<svg xmlns="http://www.w3.org/2000/svg" width="720" height="360" viewBox="0 0 720 360">
  <rect width="720" height="360" fill="#fafafa"/>
  <text x="56" y="22" font-size="13" font-family="sans-serif" fill="#222">AMZN total return (rebased 100) · cumulative distributions $0.00/sh · market cap n/a</text>
  <line x1="56" y1="308" x2="696" y2="308" stroke="#ccc"/>
  <line x1="56" y1="48" x2="56" y2="308" stroke="#ccc"/>
  <polyline fill="none" stroke="#2563eb" stroke-width="2" points="56.0,290.1 58.7,289.9 61.4,289.9 64.0,289.6 66.7,289.5 69.4,289.5 72.1,289.6 74.7,289.6 77.4,289.5 80.1,288.6 82.8,288.3 85.5,288.3 88.1,287.9 90.8,287.9 93.5,287.3 96.2,287.5 98.8,287.4 101.5,287.3 104.2,288.0 106.9,288.5 109.6,288.2 112.2,287.9 114.9,287.8 117.6,288.1 120.3,288.0 122.9,287.8 125.6,288.2 128.3,288.8 131.0,289.4 133.7,289.1 136.3,288.7 139.0,288.5 141.7,288.1 144.4,287.8 147.0,287.9 149.7,287.7 152.4,287.6 155.1,287.8 157.8,287.3 160.4,286.2 163.1,285.5 165.8,285.6 168.5,286.0 171.1,286.3 173.8,285.5 176.5,285.5 179.2,286.0 181.9,286.6 184.5,286.3 187.2,286.0 189.9,284.7 192.6,284.3 195.2,283.9 197.9,283.7 200.6,284.1 203.3,284.0 206.0,283.7 208.6,283.0 211.3,283.0 214.0,282.7 216.7,281.9 219.3,282.2 222.0,282.2 224.7,282.3 227.4,283.2 230.1,284.0 232.7,283.1 235.4,283.7 238.1,282.8 240.8,281.5 243.4,282.3 246.1,281.7 248.8,281.5 251.5,280.9 254.2,280.6 256.8,281.5 259.5,280.7 262.2,280.7 264.9,280.1 267.5,280.2 270.2,280.1 272.9,280.6 275.6,280.0 278.3,279.6 280.9,278.7 283.6,279.5 286.3,278.2 289.0,276.0 291.6,274.8 294.3,274.6 297.0,276.3 299.7,276.1 302.4,277.2 305.0,278.5 307.7,278.2 310.4,277.7 313.1,278.2 315.7,277.1 318.4,277.8 321.1,278.5 323.8,277.1 326.5,278.3 329.1,276.4 331.8,275.4 334.5,275.7 337.2,273.6 339.8,273.3 342.5,273.1 345.2,268.9 347.9,269.8 350.6,269.9 353.2,265.1 355.9,263.5 358.6,263.1 361.3,266.8 363.9,268.2 366.6,266.5 369.3,263.7 372.0,261.1 374.7,261.4 377.3,259.6 380.0,259.2 382.7,256.3 385.4,258.3 388.1,260.0 390.7,260.0 393.4,256.9 396.1,256.0 398.8,254.3 401.4,252.7 404.1,249.8 406.8,250.9 409.5,250.1 412.2,250.4 414.8,251.2 417.5,245.2 420.2,242.2 422.9,242.5 425.5,230.8 428.2,228.2 430.9,231.0 433.6,226.0 436.3,223.4 438.9,220.4 441.6,217.2 444.3,207.4 447.0,207.8 449.6,224.7 452.3,220.9 455.0,228.7 457.7,219.7 460.4,222.9 463.0,217.1 465.7,211.0 468.4,217.3 471.1,212.4 473.7,213.5 476.4,217.3 479.1,218.9 481.8,217.3 484.5,216.2 487.1,214.3 489.8,207.6 492.5,212.8 495.2,210.0 497.8,188.2 500.5,189.5 503.2,176.4 505.9,159.5 508.6,147.6 511.2,160.2 513.9,164.8 516.6,159.3 519.3,155.6 521.9,157.8 524.6,162.5 527.3,162.4 530.0,146.9 532.7,157.1 535.3,148.0 538.0,152.7 540.7,146.7 543.4,154.5 546.0,150.8 548.7,145.2 551.4,152.4 554.1,166.7 556.8,163.4 559.4,155.5 562.1,187.7 564.8,191.1 567.5,202.8 570.1,178.9 572.8,185.7 575.5,197.1 578.2,205.9 580.9,210.8 583.5,221.3 586.2,205.4 588.9,212.8 591.6,205.2 594.2,203.4 596.9,190.8 599.6,182.7 602.3,179.9 605.0,176.3 607.6,185.4 610.3,180.4 613.0,169.6 615.7,164.7 618.3,162.0 621.0,144.1 623.7,141.1 626.4,145.5 629.1,144.3 631.7,130.3 634.4,135.6 637.1,142.6 639.8,136.1 642.4,136.0 645.1,118.2 647.8,108.6 650.5,93.4 653.2,114.5 655.8,132.8 658.5,137.7 661.2,120.6 663.9,108.6 666.5,96.3 669.2,100.6 671.9,108.4 674.6,87.9 677.3,97.1 679.9,99.1 682.6,92.0 685.3,116.4 688.0,117.8 690.6,70.6 693.3,65.9 696.0,93.8"/>
  <polyline fill="none" stroke="#16a34a" stroke-width="2" points="56.0,290.1 58.7,289.9 61.4,289.9 64.0,289.6 66.7,289.5 69.4,289.5 72.1,289.6 74.7,289.6 77.4,289.5 80.1,288.6 82.8,288.3 85.5,288.3 88.1,287.9 90.8,287.9 93.5,287.3 96.2,287.5 98.8,287.4 101.5,287.3 104.2,288.0 106.9,288.5 109.6,288.2 112.2,287.9 114.9,287.8 117.6,288.1 120.3,288.0 122.9,287.8 125.6,288.2 128.3,288.8 131.0,289.4 133.7,289.1 136.3,288.7 139.0,288.5 141.7,288.1 144.4,287.8 147.0,287.9 149.7,287.7 152.4,287.6 155.1,287.8 157.8,287.3 160.4,286.2 163.1,285.5 165.8,285.6 168.5,286.0 171.1,286.3 173.8,285.5 176.5,285.5 179.2,286.0 181.9,286.6 184.5,286.3 187.2,286.0 189.9,284.7 192.6,284.3 195.2,283.9 197.9,283.7 200.6,284.1 203.3,284.0 206.0,283.7 208.6,283.0 211.3,283.0 214.0,282.7 216.7,281.9 219.3,282.2 222.0,282.2 224.7,282.3 227.4,283.2 230.1,284.0 232.7,283.1 235.4,283.7 238.1,282.8 240.8,281.5 243.4,282.3 246.1,281.7 248.8,281.5 251.5,280.9 254.2,280.6 256.8,281.5 259.5,280.7 262.2,280.7 264.9,280.1 267.5,280.2 270.2,280.1 272.9,280.6 275.6,280.0 278.3,279.6 280.9,278.7 283.6,279.5 286.3,278.2 289.0,276.0 291.6,274.8 294.3,274.6 297.0,276.3 299.7,276.1 302.4,277.2 305.0,278.5 307.7,278.2 310.4,277.7 313.1,278.2 315.7,277.1 318.4,277.8 321.1,278.5 323.8,277.1 326.5,278.3 329.1,276.4 331.8,275.4 334.5,275.7 337.2,273.6 339.8,273.3 342.5,273.1 345.2,268.9 347.9,269.8 350.6,269.9 353.2,265.1 355.9,263.5 358.6,263.1 361.3,266.8 363.9,268.2 366.6,266.5 369.3,263.7 372.0,261.1 374.7,261.4 377.3,259.6 380.0,259.2 382.7,256.3 385.4,258.3 388.1,260.0 390.7,260.0 393.4,256.9 396.1,256.0 398.8,254.3 401.4,252.7 404.1,249.8 406.8,250.9 409.5,250.1 412.2,250.4 414.8,251.2 417.5,245.2 420.2,242.2 422.9,242.5 425.5,230.8 428.2,228.2 430.9,231.0 433.6,226.0 436.3,223.4 438.9,220.4 441.6,217.2 444.3,207.4 447.0,207.8 449.6,224.7 452.3,220.9 455.0,228.7 457.7,219.7 460.4,222.9 463.0,217.1 465.7,211.0 468.4,217.3 471.1,212.4 473.7,213.5 476.4,217.3 479.1,218.9 481.8,217.3 484.5,216.2 487.1,214.3 489.8,207.6 492.5,212.8 495.2,210.0 497.8,188.2 500.5,189.5 503.2,176.4 505.9,159.5 508.6,147.6 511.2,160.2 513.9,164.8 516.6,159.3 519.3,155.6 521.9,157.8 524.6,162.5 527.3,162.4 530.0,146.9 532.7,157.1 535.3,148.0 538.0,152.7 540.7,146.7 543.4,154.5 546.0,150.8 548.7,145.2 551.4,152.4 554.1,166.7 556.8,163.4 559.4,155.5 562.1,187.7 564.8,191.1 567.5,202.8 570.1,178.9 572.8,185.7 575.5,197.1 578.2,205.9 580.9,210.8 583.5,221.3 586.2,205.4 588.9,212.8 591.6,205.2 594.2,203.4 596.9,190.8 599.6,182.7 602.3,179.9 605.0,176.3 607.6,185.4 610.3,180.4 613.0,169.6 615.7,164.7 618.3,162.0 621.0,144.1 623.7,141.1 626.4,145.5 629.1,144.3 631.7,130.3 634.4,135.6 637.1,142.6 639.8,136.1 642.4,136.0 645.1,118.2 647.8,108.6 650.5,93.4 653.2,114.5 655.8,132.8 658.5,137.7 661.2,120.6 663.9,108.6 666.5,96.3 669.2,100.6 671.9,108.4 674.6,87.9 677.3,97.1 679.9,99.1 682.6,92.0 685.3,116.4 688.0,117.8 690.6,70.6 693.3,65.9 696.0,93.8"/>
  <text x="60" y="62" font-size="11" fill="#2563eb">Price index</text>
  <text x="146" y="62" font-size="11" fill="#16a34a">Total return (price + distributions)</text>
  <text x="56" y="348" font-size="11" text-anchor="middle" fill="#444">2006-07</text><text x="217" y="348" font-size="11" text-anchor="middle" fill="#444">2011-07</text><text x="377" y="348" font-size="11" text-anchor="middle" fill="#444">2016-07</text><text x="538" y="348" font-size="11" text-anchor="middle" fill="#444">2021-07</text><text x="696" y="348" font-size="11" text-anchor="middle" fill="#444">2026-06</text>
</svg>
