<svg xmlns="http://www.w3.org/2000/svg" width="820" height="410" viewBox="0 0 820 410">
<rect width="820" height="410" fill="#fafafa"/><text x="78" y="22" font-size="14" font-family="sans-serif" fill="#0f172a">TSLA cumulative return since 2010-06-29 | dividends reinvested</text>
<text x="78" y="40" font-size="11" font-family="sans-serif" fill="#334155">Total return +24,667% | Price-only +24,667% | logarithmic scale</text>
<text x="78" y="54" font-size="9" font-family="sans-serif" fill="#64748b">Regular $0.00 | Special $0.00 | Other $0.00 per initial share path</text>
<line x1="78" y1="332.0" x2="796" y2="332.0" stroke="#e2e8f0"/><text x="70" y="336.0" font-size="10" text-anchor="end" fill="#64748b">-54.3%</text><line x1="78" y1="301.3" x2="796" y2="301.3" stroke="#e2e8f0"/><text x="70" y="305.3" font-size="10" text-anchor="end" fill="#64748b">0%</text><line x1="78" y1="287.0" x2="796" y2="287.0" stroke="#e2e8f0"/><text x="70" y="291.0" font-size="10" text-anchor="end" fill="#64748b">+44.0%</text><line x1="78" y1="242.0" x2="796" y2="242.0" stroke="#e2e8f0"/><text x="70" y="246.0" font-size="10" text-anchor="end" fill="#64748b">+353.2%</text><line x1="78" y1="197.0" x2="796" y2="197.0" stroke="#e2e8f0"/><text x="70" y="201.0" font-size="10" text-anchor="end" fill="#64748b">+1,326%</text><line x1="78" y1="152.0" x2="796" y2="152.0" stroke="#e2e8f0"/><text x="70" y="156.0" font-size="10" text-anchor="end" fill="#64748b">+4,389%</text><line x1="78" y1="107.0" x2="796" y2="107.0" stroke="#e2e8f0"/><text x="70" y="111.0" font-size="10" text-anchor="end" fill="#64748b">+14,028%</text><line x1="78" y1="62.0" x2="796" y2="62.0" stroke="#e2e8f0"/><text x="70" y="66.0" font-size="10" text-anchor="end" fill="#64748b">+44,365%</text>
<line x1="78" y1="332" x2="796" y2="332" stroke="#cbd5e1"/>
<polyline fill="none" stroke="#2563eb" stroke-width="2" points="78.0,301.3 78.2,301.4 78.4,304.6 78.5,309.9 78.7,316.8 78.9,317.5 79.1,313.6 79.2,313.7 79.4,314.5 79.6,312.1 79.8,308.6 80.0,308.5 80.1,307.0 80.3,304.7 80.5,307.7 80.7,307.9 80.8,306.4 81.0,305.8 81.2,306.5 81.4,307.2 81.6,306.9 81.7,307.6 81.9,308.4 82.1,306.5 82.3,304.6 82.4,305.9 82.6,307.4 82.8,309.1 83.0,309.1 83.2,310.2 83.3,312.6 83.5,313.3 83.7,311.7 83.9,310.8 84.1,310.0 84.2,310.8 84.4,310.7 84.6,310.1 84.8,308.0 84.9,309.9 85.1,308.5 85.3,308.8 85.5,308.9 85.7,308.5 85.8,309.3 86.0,307.4 86.2,306.3 86.4,306.3 86.5,307.2 86.7,306.6 86.9,306.9 87.1,308.0 87.3,306.9 87.4,306.1 87.6,304.6 87.8,306.5 88.0,307.8 88.1,306.3 88.3,306.8 88.5,308.5 88.7,309.2 88.9,308.1 89.0,307.3 89.2,305.6 89.4,304.6 89.6,307.5 89.7,307.1 89.9,306.4 90.1,306.1 90.3,307.4 90.5,307.4 90.6,307.4 90.8,307.8 91.0,307.8 91.2,307.2 91.3,306.8 91.5,307.2 91.7,307.8 91.9,308.2 92.1,307.0 92.2,306.8 92.4,306.9 92.6,306.7 92.8,305.7 93.0,306.4 93.1,306.0 93.3,304.8 93.5,305.6 93.7,305.9 93.8,305.0 94.0,299.7 94.2,300.4 94.4,299.6 94.6,300.1 94.7,293.2 94.9,295.0 95.1,292.6 95.3,291.3 95.4,292.8 95.6,293.0 95.8,292.5 96.0,291.1 96.2,288.2 96.3,286.8 96.5,285.8 96.7,286.0 96.9,287.1 97.0,286.0 97.2,287.1 97.4,289.4 97.6,290.5 97.8,292.0 97.9,290.4 98.1,289.4 98.3,289.8 98.5,290.4 98.6,291.7 98.8,294.3 99.0,292.9 99.2,291.3 99.4,290.6 99.5,290.2 99.7,289.5 99.9,289.1 100.1,292.3 100.2,298.7 100.4,297.4 100.6,295.5 100.8,297.2 101.0,297.0 101.1,297.1 101.3,297.0 101.5,296.8 101.7,295.2 101.9,294.7 102.0,294.5 102.2,296.6 102.4,296.6 102.6,297.7 102.7,298.4 102.9,298.5 103.1,301.1 103.3,303.5 103.5,302.7 103.6,300.3 103.8,300.0 104.0,299.9 104.2,299.7 104.3,301.1 104.5,301.0 104.7,301.3 104.9,301.2 105.1,301.7 105.2,302.0 105.4,302.7 105.6,300.3 105.8,302.4 105.9,302.4 106.1,302.4 106.3,302.7 106.5,303.1 106.7,300.0 106.8,301.8 107.0,302.5 107.2,304.8 107.4,304.8 107.5,303.6 107.7,301.8 107.9,301.3 108.1,301.2 108.3,301.1 108.4,300.5 108.6,299.6 108.8,299.6 109.0,300.1 109.1,300.0 109.3,301.1 109.5,301.0 109.7,302.4 109.9,302.9 110.0,303.1 110.2,303.1 110.4,302.9 110.6,303.3 110.7,304.2 110.9,304.2 111.1,304.0 111.3,303.2 111.5,302.4 111.6,301.3 111.8,301.6 112.0,295.4 112.2,297.0 112.4,298.2 112.5,296.9 112.7,297.3 112.9,296.2 113.1,297.3 113.2,299.1 113.4,300.1 113.6,299.6 113.8,299.3 114.0,298.6 114.1,299.5 114.3,299.3 114.5,298.4 114.7,296.9 114.8,297.4 115.0,296.6 115.2,296.4 115.4,295.6 115.6,295.6 115.7,295.9 115.9,296.7 116.1,297.0 116.3,297.3 116.4,296.3 116.6,295.2 116.8,294.6 117.0,296.4 117.2,295.5 117.3,295.7 117.5,297.1 117.7,298.0 117.9,297.5 118.0,294.8 118.2,295.1 118.4,296.8 118.6,296.9 118.8,293.7 118.9,293.1 119.1,293.0 119.3,292.2 119.5,294.4 119.6,294.0 119.8,292.2 120.0,294.1 120.2,294.6 120.4,296.3 120.5,295.6 120.7,295.3 120.9,294.5 121.1,294.2 121.3,296.0 121.4,297.2 121.6,297.2 121.8,298.0 122.0,295.7 122.1,296.2 122.3,295.5 122.5,295.7 122.7,295.8 122.9,294.9 123.0,294.7 123.2,293.5 123.4,293.7 123.6,293.5 123.7,293.8 123.9,292.7 124.1,294.0 124.3,294.6 124.5,294.8 124.6,294.2 124.8,295.6 125.0,295.7 125.2,296.2 125.3,295.2 125.5,294.1 125.7,294.1 125.9,293.3 126.1,294.4 126.2,295.1 126.4,295.6 126.6,294.8 126.8,294.8 126.9,294.0 127.1,296.0 127.3,296.2 127.5,299.9 127.7,300.7 127.8,301.7 128.0,299.4 128.2,301.4 128.4,299.1 128.5,297.5 128.7,297.6 128.9,297.8 129.1,298.2 129.3,300.7 129.4,304.0 129.6,304.6 129.8,302.9 130.0,301.3 130.2,302.6 130.3,301.6 130.5,300.0 130.7,300.1 130.9,299.9 131.0,301.1 131.2,302.7 131.4,302.9 131.6,301.4 131.8,301.8 131.9,302.8 132.1,303.0 132.3,301.0 132.5,300.6 132.6,299.8 132.8,298.3 133.0,298.3 133.2,298.0 133.4,298.2 133.5,298.5 133.7,297.4 133.9,298.7 134.1,297.7 134.2,300.2 134.4,300.9 134.6,300.5 134.8,301.6 135.0,301.7 135.1,298.9 135.3,296.6 135.5,296.5 135.7,295.2 135.8,295.6 136.0,295.4 136.2,295.2 136.4,295.0 136.6,295.9 136.7,294.6 136.9,295.7 137.1,296.0 137.3,295.0 137.4,294.3 137.6,294.7 137.8,295.1 138.0,294.0 138.2,292.5 138.3,293.2 138.5,293.9 138.7,294.1 138.9,289.3 139.0,289.5 139.2,290.7 139.4,290.0 139.6,291.2 139.8,290.7 139.9,287.9 140.1,288.4 140.3,287.5 140.5,286.4 140.7,287.8 140.8,289.1 141.0,290.1 141.2,289.8 141.4,290.5 141.5,290.3 141.7,289.2 141.9,290.1 142.1,288.9 142.3,289.1 142.4,288.3 142.6,287.0 142.8,286.5 143.0,287.2 143.1,291.2 143.3,291.0 143.5,291.8 143.7,293.1 143.9,294.3 144.0,294.2 144.2,295.1 144.4,295.4 144.6,295.2 144.7,295.7 144.9,295.4 145.1,295.2 145.3,294.3 145.5,294.4 145.6,294.1 145.8,294.3 146.0,295.0 146.2,295.5 146.3,296.3 146.5,296.6 146.7,296.1 146.9,295.6 147.1,294.8 147.2,294.7 147.4,303.2 147.6,297.1 147.8,296.8 147.9,296.9 148.1,297.1 148.3,296.8 148.5,295.9 148.7,295.1 148.8,293.8 149.0,293.3 149.2,292.9 149.4,293.6 149.6,292.9 149.7,292.0 149.9,290.9 150.1,290.1 150.3,290.3 150.4,289.9 150.6,289.1 150.8,291.0 151.0,290.5 151.2,288.4 151.3,287.9 151.5,287.3 151.7,286.4 151.9,286.9 152.0,287.2 152.2,286.9 152.4,287.7 152.6,287.9 152.8,287.7 152.9,288.1 153.1,287.0 153.3,287.4 153.5,287.7 153.6,288.5 153.8,288.5 154.0,288.5 154.2,286.6 154.4,285.2 154.5,285.1 154.7,286.0 154.9,286.3 155.1,286.0 155.2,286.3 155.4,286.4 155.6,286.2 155.8,287.0 156.0,287.4 156.1,283.7 156.3,283.2 156.5,283.2 156.7,283.8 156.8,283.9 157.0,284.6 157.2,283.1 157.4,286.3 157.6,286.9 157.7,288.5 157.9,289.3 158.1,288.5 158.3,288.1 158.5,287.9 158.6,289.5 158.8,289.5 159.0,289.0 159.2,288.4 159.3,288.4 159.5,289.9 159.7,290.1 159.9,288.7 160.1,288.1 160.2,288.2 160.4,288.5 160.6,287.7 160.8,287.5 160.9,289.3 161.1,290.0 161.3,289.3 161.5,292.1 161.7,292.3 161.8,288.7 162.0,289.5 162.2,292.3 162.4,293.1 162.5,293.5 162.7,294.3 162.9,295.7 163.1,294.0 163.3,291.3 163.4,291.1 163.6,292.0 163.8,292.6 164.0,290.2 164.1,291.8 164.3,293.0 164.5,294.9 164.7,295.2 164.9,295.2 165.0,293.4 165.2,293.8 165.4,292.3 165.6,293.5 165.7,292.8 165.9,292.7 166.1,293.2 166.3,292.5 166.5,290.0 166.6,289.7 166.8,287.7 167.0,289.6 167.2,287.7 167.3,288.5 167.5,290.3 167.7,289.9 167.9,290.6 168.1,290.7 168.2,291.9 168.4,291.5 168.6,290.8 168.8,291.1 169.0,290.5 169.1,290.7 169.3,290.4 169.5,289.0 169.7,287.2 169.8,285.3 170.0,288.2 170.2,289.7 170.4,289.5 170.6,290.1 170.7,291.5 170.9,292.6 171.1,293.8 171.3,294.9 171.4,293.0 171.6,296.0 171.8,295.9 172.0,297.6 172.2,297.8 172.3,296.1 172.5,294.7 172.7,292.0 172.9,293.6 173.0,293.1 173.2,292.4 173.4,290.9 173.6,293.1 173.8,293.2 173.9,292.0 174.1,292.4 174.3,293.0 174.5,293.6 174.6,292.4 174.8,291.4 175.0,293.0 175.2,294.6 175.4,294.1 175.5,294.5 175.7,294.5 175.9,294.4 176.1,294.9 176.2,295.2 176.4,294.3 176.6,293.2 176.8,296.0 177.0,295.4 177.1,294.7 177.3,293.1 177.5,291.9 177.7,289.2 177.9,290.7 178.0,291.0 178.2,291.2 178.4,292.3 178.6,291.5 178.7,295.6 178.9,295.7 179.1,294.4 179.3,293.3 179.5,293.5 179.6,292.6 179.8,293.3 180.0,293.2 180.2,293.8 180.3,293.4 180.5,294.6 180.7,294.5 180.9,294.6 181.1,295.6 181.2,296.0 181.4,295.0 181.6,293.9 181.8,295.0 181.9,295.4 182.1,295.3 182.3,294.5 182.5,295.9 182.7,295.8 182.8,296.0 183.0,294.9 183.2,293.4 183.4,293.8 183.5,290.5 183.7,290.9 183.9,290.4 184.1,290.7 184.3,292.0 184.4,291.0 184.6,290.3 184.8,290.6 185.0,291.3 185.1,290.0 185.3,288.7 185.5,288.6 185.7,289.3 185.9,289.7 186.0,289.5 186.2,289.7 186.4,288.4 186.6,287.8 186.8,287.7 186.9,286.7 187.1,287.6 187.3,287.8 187.5,287.6 187.6,287.3 187.8,286.8 188.0,286.0 188.2,286.0 188.4,287.9 188.5,287.7 188.7,287.0 188.9,286.8 189.1,286.8 189.2,287.0 189.4,287.5 189.6,287.1 189.8,287.9 190.0,287.8 190.1,288.4 190.3,287.6 190.5,285.9 190.7,286.6 190.8,287.0 191.0,287.1 191.2,287.8 191.4,287.9 191.6,288.0 191.7,288.7 191.9,288.3 192.1,287.6 192.3,287.3 192.4,287.0 192.6,286.9 192.8,286.1 193.0,285.2 193.2,284.1 193.3,284.2 193.5,283.1 193.7,283.1 193.9,283.6 194.0,283.6 194.2,282.8 194.4,283.4 194.6,283.0 194.8,281.9 194.9,281.6 195.1,281.8 195.3,282.7 195.5,283.2 195.6,282.6 195.8,282.8 196.0,284.1 196.2,281.8 196.4,282.5 196.5,286.1 196.7,285.1 196.9,287.0 197.1,287.0 197.3,286.2 197.4,286.5 197.6,286.7 197.8,285.7 198.0,284.5 198.1,283.4 198.3,282.9 198.5,282.6 198.7,282.0 198.9,282.0 199.0,282.1 199.2,284.3 199.4,286.0 199.6,286.2 199.7,286.2 199.9,285.3 200.1,285.2 200.3,284.5 200.5,283.6 200.6,283.2 200.8,282.9 201.0,283.2 201.2,277.4 201.3,277.0 201.5,280.0 201.7,279.2 201.9,279.8 202.1,279.3 202.2,280.6 202.4,279.3 202.6,277.7 202.8,277.6 202.9,278.0 203.1,275.9 203.3,276.1 203.5,274.8 203.7,274.1 203.8,272.2 204.0,271.5 204.2,272.0 204.4,270.8 204.5,271.4 204.7,268.6 204.9,269.3 205.1,269.8 205.3,269.2 205.4,268.9 205.6,265.5 205.8,268.2 206.0,268.0 206.2,259.5 206.3,255.5 206.5,250.2 206.7,252.3 206.9,251.6 207.0,248.3 207.2,248.6 207.4,249.3 207.6,250.3 207.8,250.5 207.9,248.1 208.1,246.3 208.3,241.3 208.5,243.3 208.6,243.2 208.8,246.0 209.0,248.1 209.2,247.2 209.4,247.0 209.5,246.2 209.7,244.3 209.9,245.1 210.1,247.3 210.2,246.0 210.4,245.8 210.6,245.0 210.8,244.3 211.0,243.8 211.1,243.3 211.3,244.9 211.5,245.3 211.7,244.5 211.8,244.2 212.0,242.9 212.2,241.6 212.4,242.3 212.6,238.9 212.7,238.7 212.9,239.5 213.1,237.9 213.3,237.4 213.4,236.8 213.6,237.2 213.8,236.2 214.0,234.8 214.2,235.7 214.3,241.7 214.5,237.9 214.7,238.3 214.9,238.1 215.1,237.2 215.2,237.1 215.4,237.4 215.6,236.7 215.8,235.0 215.9,233.4 216.1,234.3 216.3,233.5 216.5,233.2 216.7,232.5 216.8,230.6 217.0,231.3 217.2,233.6 217.4,228.3 217.5,228.4 217.7,229.9 217.9,230.4 218.1,232.1 218.3,232.0 218.4,231.4 218.6,230.6 218.8,229.3 219.0,229.8 219.1,227.4 219.3,226.2 219.5,225.6 219.7,225.0 219.9,225.1 220.0,225.2 220.2,224.5 220.4,224.5 220.6,224.1 220.7,224.3 220.9,225.0 221.1,226.5 221.3,225.1 221.5,225.8 221.6,225.5 221.8,225.3 222.0,225.1 222.2,225.2 222.3,225.2 222.5,222.5 222.7,221.3 222.9,221.8 223.1,221.5 223.2,220.9 223.4,220.2 223.6,219.7 223.8,219.2 223.9,219.3 224.1,221.8 224.3,223.5 224.5,221.8 224.7,221.4 224.8,223.2 225.0,224.6 225.2,223.6 225.4,222.3 225.6,222.1 225.7,221.2 225.9,221.3 226.1,221.4 226.3,221.3 226.4,223.7 226.6,223.9 226.8,225.6 227.0,223.6 227.2,224.4 227.3,226.0 227.5,225.6 227.7,226.9 227.9,226.7 228.0,226.1 228.2,223.1 228.4,222.7 228.6,228.9 228.8,232.0 228.9,232.5 229.1,230.6 229.3,232.5 229.5,232.3 229.6,232.6 229.8,233.2 230.0,237.4 230.2,236.0 230.4,237.6 230.5,237.3 230.7,237.5 230.9,237.7 231.1,237.8 231.2,235.8 231.4,235.6 231.6,236.6 231.8,230.6 232.0,232.2 232.1,231.8 232.3,232.7 232.5,231.5 232.7,231.3 232.8,232.0 233.0,229.9 233.2,229.8 233.4,229.7 233.6,228.6 233.7,229.7 233.9,231.7 234.1,231.0 234.3,230.9 234.5,228.8 234.6,227.8 234.8,228.9 235.0,228.6 235.2,229.1 235.3,229.2 235.5,229.3 235.7,230.0 235.9,229.4 236.1,228.9 236.2,229.9 236.4,230.3 236.6,232.1 236.8,226.4 236.9,225.7 237.1,224.1 237.3,224.3 237.5,222.8 237.7,222.4 237.8,221.7 238.0,223.2 238.2,224.4 238.4,222.4 238.5,223.1 238.7,221.4 238.9,221.7 239.1,222.7 239.3,222.3 239.4,223.3 239.6,222.4 239.8,220.6 240.0,218.6 240.1,218.6 240.3,218.8 240.5,218.0 240.7,218.3 240.9,217.2 241.0,219.2 241.2,216.0 241.4,216.1 241.6,214.6 241.7,209.5 241.9,208.7 242.1,208.8 242.3,210.0 242.5,209.1 242.6,208.4 242.8,208.7 243.0,208.7 243.2,209.8 243.4,210.9 243.5,211.7 243.7,210.5 243.9,211.1 244.1,212.3 244.2,211.8 244.4,210.7 244.6,211.4 244.8,211.6 245.0,212.6 245.1,214.1 245.3,214.1 245.5,215.4 245.7,216.5 245.8,215.6 246.0,216.3 246.2,214.7 246.4,212.4 246.6,213.2 246.7,215.6 246.9,216.5 247.1,215.0 247.3,214.7 247.4,217.1 247.6,217.2 247.8,218.3 248.0,219.1 248.2,218.1 248.3,218.3 248.5,217.1 248.7,214.4 248.9,216.4 249.0,216.4 249.2,217.9 249.4,218.2 249.6,216.6 249.8,216.4 249.9,216.4 250.1,215.8 250.3,214.8 250.5,216.5 250.6,217.6 250.8,222.4 251.0,221.6 251.2,221.0 251.4,219.9 251.5,219.8 251.7,220.2 251.9,219.6 252.1,218.7 252.2,218.8 252.4,218.0 252.6,217.0 252.8,216.5 253.0,215.7 253.1,216.0 253.3,216.0 253.5,216.4 253.7,217.0 253.9,217.0 254.0,217.1 254.2,216.6 254.4,216.3 254.6,216.9 254.7,217.5 254.9,217.0 255.1,217.2 255.3,216.7 255.5,213.4 255.6,212.1 255.8,212.9 256.0,212.8 256.2,212.5 256.3,211.2 256.5,212.0 256.7,211.3 256.9,211.5 257.1,210.9 257.2,210.7 257.4,210.8 257.6,212.5 257.8,212.6 257.9,213.7 258.1,214.3 258.3,213.6 258.5,214.3 258.7,214.5 258.8,213.0 259.0,214.2 259.2,214.7 259.4,215.0 259.5,214.2 259.7,214.1 259.9,214.2 260.1,213.7 260.3,213.5 260.4,213.5 260.6,213.3 260.8,213.3 261.0,212.6 261.1,213.6 261.3,211.9 261.5,211.0 261.7,211.0 261.9,209.3 262.0,208.8 262.2,209.4 262.4,207.7 262.6,207.6 262.8,207.6 262.9,207.4 263.1,207.3 263.3,207.6 263.5,208.1 263.6,208.3 263.8,208.5 264.0,208.1 264.2,207.2 264.4,207.4 264.5,207.1 264.7,207.0 264.9,206.2 265.1,204.1 265.2,204.5 265.4,203.9 265.6,205.1 265.8,204.4 266.0,204.9 266.1,204.6 266.3,204.7 266.5,204.8 266.7,208.6 266.8,207.5 267.0,207.4 267.2,207.0 267.4,207.7 267.6,209.1 267.7,209.1 267.9,208.8 268.1,209.6 268.3,209.7 268.4,209.9 268.6,210.3 268.8,210.7 269.0,208.9 269.2,208.3 269.3,207.5 269.5,207.7 269.7,207.7 269.9,208.1 270.0,211.3 270.2,213.4 270.4,212.9 270.6,212.5 270.8,213.1 270.9,212.9 271.1,212.3 271.3,211.5 271.5,212.2 271.6,211.5 271.8,211.5 272.0,213.9 272.2,210.3 272.4,211.1 272.5,211.0 272.7,210.5 272.9,210.3 273.1,210.9 273.3,212.3 273.4,210.6 273.6,210.7 273.8,210.4 274.0,209.0 274.1,209.3 274.3,208.9 274.5,207.8 274.7,208.5 274.9,208.0 275.0,209.5 275.2,209.4 275.4,210.3 275.6,209.7 275.7,209.5 275.9,209.4 276.1,210.0 276.3,212.1 276.5,212.2 276.6,212.5 276.8,212.7 277.0,213.5 277.2,215.2 277.3,214.7 277.5,216.0 277.7,216.2 277.9,216.6 278.1,217.1 278.2,218.3 278.4,216.8 278.6,214.5 278.8,214.3 278.9,213.7 279.1,214.0 279.3,213.8 279.5,212.8 279.7,213.2 279.8,213.8 280.0,213.7 280.2,214.3 280.4,216.0 280.5,215.8 280.7,215.8 280.9,215.9 281.1,216.6 281.3,217.5 281.4,217.1 281.6,219.4 281.8,219.5 282.0,219.3 282.2,219.5 282.3,218.6 282.5,217.6 282.7,217.7 282.9,216.6 283.0,216.8 283.2,218.0 283.4,216.9 283.6,217.2 283.8,215.8 283.9,214.5 284.1,214.4 284.3,214.0 284.5,214.6 284.6,214.6 284.8,214.8 285.0,215.5 285.2,217.4 285.4,217.2 285.5,217.1 285.7,217.0 285.9,215.7 286.1,214.7 286.2,216.5 286.4,217.1 286.6,217.2 286.8,216.5 287.0,217.3 287.1,218.4 287.3,218.0 287.5,217.4 287.7,217.8 287.8,219.1 288.0,219.7 288.2,219.9 288.4,219.2 288.6,219.7 288.7,220.2 288.9,218.8 289.1,219.0 289.3,217.8 289.4,218.8 289.6,218.3 289.8,218.0 290.0,217.6 290.2,219.0 290.3,219.8 290.5,221.0 290.7,219.8 290.9,220.2 291.1,220.4 291.2,219.7 291.4,217.3 291.6,217.3 291.8,216.4 291.9,216.0 292.1,215.8 292.3,216.0 292.5,216.5 292.7,216.4 292.8,216.6 293.0,216.6 293.2,216.9 293.4,216.1 293.5,214.3 293.7,214.4 293.9,214.5 294.1,212.2 294.3,212.3 294.4,212.0 294.6,213.1 294.8,213.1 295.0,212.3 295.1,211.9 295.3,212.4 295.5,211.3 295.7,211.3 295.9,210.8 296.0,210.0 296.2,210.2 296.4,210.1 296.6,209.3 296.7,209.3 296.9,209.6 297.1,210.1 297.3,209.8 297.5,209.5 297.6,209.6 297.8,209.6 298.0,208.9 298.2,209.0 298.3,209.2 298.5,209.4 298.7,209.3 298.9,209.8 299.1,209.3 299.2,208.2 299.4,208.2 299.6,209.0 299.8,208.9 299.9,209.0 300.1,209.1 300.3,208.7 300.5,207.6 300.7,207.3 300.8,207.2 301.0,207.6 301.2,206.5 301.4,206.8 301.6,206.3 301.7,206.6 301.9,207.3 302.1,206.4 302.3,206.3 302.4,204.7 302.6,204.7 302.8,206.4 303.0,208.4 303.2,207.9 303.3,207.7 303.5,207.3 303.7,206.8 303.9,207.1 304.0,206.6 304.2,205.5 304.4,204.4 304.6,206.6 304.8,206.4 304.9,206.5 305.1,206.8 305.3,208.7 305.5,206.9 305.6,207.0 305.8,206.6 306.0,206.7 306.2,207.6 306.4,206.7 306.5,206.1 306.7,209.8 306.9,210.3 307.1,210.6 307.2,211.2 307.4,211.1 307.6,210.3 307.8,210.2 308.0,208.4 308.1,207.5 308.3,208.3 308.5,210.4 308.7,212.3 308.8,214.4 309.0,214.2 309.2,213.3 309.4,210.3 309.6,209.4 309.7,209.3 309.9,211.0 310.1,209.5 310.3,209.9 310.5,210.4 310.6,209.4 310.8,209.3 311.0,209.4 311.2,209.1 311.3,208.7 311.5,208.6 311.7,207.3 311.9,207.3 312.1,207.5 312.2,207.0 312.4,207.5 312.6,207.5 312.8,207.1 312.9,208.1 313.1,209.4 313.3,209.7 313.5,209.4 313.7,210.8 313.8,209.5 314.0,209.8 314.2,210.5 314.4,212.1 314.5,213.0 314.7,214.0 314.9,215.0 315.1,214.3 315.3,214.7 315.4,213.9 315.6,212.9 315.8,212.8 316.0,215.4 316.1,216.0 316.3,215.7 316.5,216.2 316.7,215.0 316.9,215.9 317.0,215.4 317.2,215.7 317.4,216.6 317.6,215.3 317.7,216.3 317.9,212.1 318.1,212.1 318.3,212.0 318.5,213.2 318.6,214.8 318.8,214.3 319.0,215.5 319.2,216.5 319.4,215.2 319.5,215.3 319.7,214.0 319.9,213.9 320.1,214.2 320.2,214.6 320.4,214.5 320.6,212.5 320.8,212.2 321.0,212.4 321.1,211.2 321.3,212.1 321.5,212.0 321.7,212.4 321.8,212.2 322.0,213.0 322.2,213.4 322.4,212.9 322.6,214.7 322.7,214.4 322.9,214.0 323.1,211.7 323.3,211.9 323.4,212.3 323.6,212.0 323.8,212.4 324.0,212.5 324.2,212.3 324.3,212.6 324.5,211.2 324.7,211.1 324.9,210.8 325.0,213.6 325.2,213.6 325.4,214.3 325.6,215.0 325.8,215.8 325.9,216.4 326.1,216.0 326.3,217.9 326.5,216.7 326.6,216.9 326.8,217.0 327.0,218.2 327.2,217.9 327.4,217.4 327.5,218.6 327.7,219.2 327.9,220.3 328.1,220.0 328.2,219.7 328.4,218.5 328.6,221.4 328.8,223.5 329.0,223.1 329.1,226.0 329.3,229.7 329.5,229.7 329.7,230.9 329.9,229.1 330.0,228.9 330.2,227.9 330.4,224.6 330.6,225.0 330.7,225.1 330.9,222.5 331.1,222.7 331.3,222.3 331.5,220.5 331.6,219.9 331.8,219.5 332.0,220.7 332.2,220.3 332.3,218.8 332.5,217.7 332.7,216.9 332.9,217.4 333.1,216.2 333.2,216.9 333.4,216.5 333.6,215.0 333.8,214.5 333.9,213.8 334.1,213.0 334.3,212.0 334.5,211.0 334.7,211.7 334.8,213.7 335.0,212.8 335.2,212.4 335.4,212.4 335.5,213.0 335.7,212.5 335.9,211.2 336.1,209.6 336.3,208.3 336.4,206.8 336.6,208.0 336.8,209.1 337.0,209.2 337.1,209.5 337.3,208.4 337.5,208.9 337.7,208.5 337.9,208.5 338.0,209.6 338.2,209.2 338.4,209.4 338.6,208.6 338.8,208.9 338.9,208.6 339.1,208.9 339.3,209.5 339.5,210.6 339.6,210.5 339.8,212.0 340.0,213.7 340.2,215.7 340.4,215.1 340.5,216.2 340.7,216.2 340.9,216.2 341.1,216.5 341.2,216.4 341.4,216.3 341.6,217.0 341.8,215.8 342.0,215.0 342.1,214.1 342.3,214.9 342.5,214.5 342.7,214.2 342.8,213.3 343.0,213.6 343.2,213.6 343.4,214.2 343.6,214.4 343.7,214.4 343.9,214.0 344.1,212.0 344.3,211.5 344.4,212.5 344.6,214.4 344.8,214.6 345.0,215.1 345.2,214.6 345.3,214.5 345.5,215.0 345.7,214.2 345.9,214.2 346.0,218.6 346.2,218.6 346.4,219.3 346.6,218.2 346.8,217.6 346.9,216.0 347.1,215.6 347.3,214.8 347.5,215.3 347.7,215.2 347.8,214.9 348.0,214.7 348.2,213.3 348.4,213.3 348.5,213.7 348.7,213.9 348.9,214.1 349.1,213.1 349.3,213.2 349.4,212.7 349.6,214.1 349.8,213.8 350.0,212.4 350.1,212.5 350.3,212.7 350.5,212.3 350.7,211.6 350.9,212.4 351.0,212.9 351.2,213.2 351.4,212.3 351.6,212.4 351.7,213.1 351.9,212.6 352.1,213.2 352.3,213.3 352.5,213.2 352.6,213.2 352.8,213.5 353.0,213.6 353.2,213.5 353.3,213.3 353.5,213.7 353.7,213.3 353.9,213.7 354.1,214.0 354.2,214.2 354.4,215.0 354.6,215.7 354.8,215.6 354.9,217.8 355.1,218.3 355.3,217.4 355.5,217.6 355.7,218.4 355.8,219.0 356.0,218.2 356.2,218.7 356.4,218.6 356.5,217.8 356.7,216.9 356.9,216.7 357.1,217.0 357.3,216.9 357.4,216.7 357.6,216.5 357.8,216.2 358.0,216.8 358.2,216.7 358.3,217.8 358.5,217.1 358.7,215.3 358.9,215.7 359.0,216.3 359.2,217.7 359.4,218.6 359.6,217.7 359.8,217.9 359.9,217.6 360.1,217.9 360.3,218.6 360.5,219.1 360.6,218.1 360.8,217.2 361.0,218.1 361.2,217.9 361.4,217.4 361.5,217.5 361.7,217.5 361.9,217.1 362.1,217.9 362.2,218.4 362.4,219.8 362.6,220.3 362.8,220.5 363.0,219.8 363.1,219.3 363.3,218.9 363.5,219.9 363.7,220.9 363.8,220.2 364.0,221.7 364.2,221.2 364.4,221.2 364.6,220.2 364.7,221.0 364.9,221.1 365.1,219.7 365.3,219.3 365.4,218.6 365.6,218.7 365.8,220.0 366.0,220.0 366.2,221.6 366.3,221.7 366.5,220.6 366.7,220.8 366.9,219.3 367.1,219.5 367.2,219.5 367.4,219.4 367.6,218.3 367.8,218.2 367.9,218.4 368.1,217.4 368.3,217.4 368.5,216.2 368.7,216.4 368.8,216.3 369.0,215.4 369.2,214.3 369.4,214.2 369.5,215.1 369.7,215.3 369.9,214.7 370.1,212.9 370.3,213.0 370.4,212.6 370.6,212.2 370.8,212.4 371.0,212.5 371.1,212.5 371.3,211.1 371.5,211.5 371.7,211.0 371.9,210.1 372.0,210.0 372.2,209.3 372.4,208.4 372.6,208.5 372.7,208.8 372.9,208.7 373.1,209.1 373.3,208.9 373.5,209.3 373.6,208.9 373.8,208.9 374.0,208.0 374.2,208.0 374.3,207.3 374.5,206.2 374.7,206.2 374.9,204.6 375.1,204.6 375.2,204.7 375.4,206.3 375.6,205.8 375.8,205.1 376.0,205.6 376.1,208.2 376.3,208.1 376.5,209.7 376.7,209.2 376.8,209.2 377.0,209.1 377.2,208.9 377.4,209.0 377.6,209.4 377.7,209.6 377.9,210.0 378.1,210.2 378.3,209.8 378.4,207.9 378.6,208.3 378.8,207.3 379.0,207.4 379.2,207.3 379.3,209.0 379.5,208.4 379.7,208.4 379.9,207.1 380.0,206.1 380.2,205.1 380.4,205.1 380.6,205.0 380.8,204.9 380.9,202.2 381.1,201.5 381.3,202.7 381.5,202.2 381.6,201.7 381.8,200.4 382.0,200.9 382.2,202.4 382.4,201.5 382.5,201.8 382.7,202.0 382.9,201.3 383.1,201.7 383.2,201.3 383.4,201.0 383.6,200.2 383.8,200.7 384.0,200.9 384.1,200.2 384.3,199.1 384.5,199.6 384.7,200.6 384.8,202.6 385.0,200.9 385.2,201.1 385.4,199.3 385.6,198.8 385.7,199.1 385.9,198.9 386.1,200.0 386.3,199.8 386.5,201.2 386.6,200.3 386.8,200.6 387.0,200.7 387.2,201.5 387.3,200.7 387.5,199.9 387.7,198.8 387.9,197.7 388.1,197.0 388.2,197.0 388.4,197.1 388.6,196.2 388.8,195.6 388.9,194.9 389.1,193.8 389.3,195.1 389.5,194.9 389.7,193.1 389.8,192.7 390.0,193.2 390.2,193.6 390.4,193.8 390.5,193.5 390.7,193.1 390.9,192.5 391.1,192.4 391.3,193.0 391.4,194.6 391.6,193.6 391.8,194.8 392.0,194.7 392.1,195.7 392.3,198.6 392.5,200.9 392.7,200.3 392.9,200.0 393.0,198.6 393.2,198.3 393.4,199.0 393.6,198.5 393.7,199.5 393.9,198.5 394.1,198.8 394.3,198.3 394.5,198.4 394.6,196.8 394.8,197.1 395.0,196.6 395.2,197.7 395.4,197.7 395.5,199.0 395.7,199.5 395.9,198.7 396.1,196.3 396.2,195.2 396.4,195.4 396.6,194.3 396.8,194.5 397.0,195.3 397.1,195.1 397.3,194.4 397.5,194.6 397.7,194.5 397.8,195.7 398.0,196.2 398.2,197.3 398.4,196.9 398.6,195.6 398.7,195.6 398.9,196.2 399.1,196.4 399.3,196.2 399.4,195.6 399.6,195.3 399.8,195.3 400.0,196.0 400.2,196.6 400.3,195.9 400.5,196.7 400.7,194.4 400.9,194.5 401.0,194.2 401.2,193.0 401.4,192.7 401.6,192.2 401.8,193.2 401.9,193.4 402.1,194.1 402.3,195.8 402.5,196.5 402.6,196.5 402.8,197.0 403.0,197.1 403.2,197.0 403.4,196.9 403.5,196.2 403.7,195.4 403.9,195.4 404.1,195.2 404.3,196.7 404.4,195.3 404.6,195.4 404.8,195.3 405.0,195.3 405.1,195.9 405.3,195.3 405.5,194.9 405.7,195.7 405.9,196.5 406.0,197.4 406.2,197.4 406.4,198.8 406.6,198.7 406.7,199.4 406.9,199.5 407.1,198.1 407.3,199.3 407.5,202.1 407.6,201.2 407.8,201.6 408.0,201.2 408.2,201.4 408.3,201.6 408.5,201.6 408.7,200.0 408.9,200.9 409.1,200.5 409.2,200.4 409.4,200.1 409.6,200.9 409.8,199.7 409.9,200.4 410.1,200.0 410.3,199.9 410.5,199.8 410.7,201.0 410.8,200.9 411.0,201.2 411.2,201.3 411.4,201.5 411.5,200.3 411.7,200.6 411.9,200.1 412.1,198.4 412.3,197.0 412.4,197.2 412.6,197.3 412.8,196.7 413.0,197.2 413.1,198.1 413.3,198.4 413.5,198.1 413.7,198.8 413.9,199.8 414.0,200.5 414.2,200.0 414.4,200.5 414.6,199.4 414.8,199.8 414.9,200.1 415.1,199.9 415.3,197.5 415.5,197.8 415.6,197.7 415.8,197.3 416.0,197.5 416.2,197.1 416.4,196.3 416.5,196.6 416.7,195.9 416.9,195.8 417.1,195.6 417.2,196.4 417.4,197.4 417.6,196.8 417.8,196.0 418.0,196.4 418.1,195.5 418.3,196.0 418.5,196.7 418.7,197.9 418.8,197.8 419.0,196.5 419.2,200.1 419.4,200.7 419.6,200.0 419.7,199.0 419.9,199.2 420.1,197.8 420.3,197.6 420.4,197.7 420.6,197.9 420.8,196.4 421.0,195.7 421.2,195.1 421.3,195.8 421.5,196.7 421.7,198.1 421.9,197.7 422.0,197.9 422.2,198.5 422.4,198.0 422.6,198.4 422.8,198.6 422.9,196.5 423.1,196.9 423.3,198.7 423.5,198.8 423.7,199.3 423.8,200.3 424.0,200.6 424.2,199.9 424.4,200.8 424.5,201.8 424.7,201.5 424.9,204.8 425.1,208.0 425.3,206.7 425.4,208.8 425.6,206.5 425.8,203.7 426.0,201.3 426.1,202.1 426.3,203.4 426.5,201.4 426.7,201.9 426.9,202.8 427.0,202.0 427.2,203.2 427.4,203.6 427.6,202.9 427.7,202.0 427.9,203.3 428.1,204.2 428.3,204.2 428.5,204.6 428.6,203.9 428.8,202.8 429.0,202.8 429.2,202.0 429.3,201.8 429.5,204.1 429.7,202.8 429.9,201.6 430.1,201.7 430.2,201.1 430.4,201.3 430.6,201.9 430.8,203.1 430.9,204.1 431.1,203.8 431.3,204.1 431.5,205.2 431.7,204.1 431.8,205.4 432.0,204.8 432.2,205.0 432.4,204.9 432.6,204.2 432.7,203.1 432.9,204.0 433.1,203.1 433.3,202.4 433.4,203.2 433.6,199.5 433.8,199.9 434.0,199.8 434.2,198.0 434.3,196.8 434.5,196.5 434.7,195.1 434.9,195.0 435.0,193.7 435.2,195.7 435.4,194.6 435.6,196.2 435.8,197.8 435.9,197.9 436.1,196.9 436.3,196.6 436.5,196.0 436.6,196.7 436.8,197.7 437.0,200.6 437.2,200.8 437.4,200.8 437.5,199.6 437.7,199.2 437.9,199.6 438.1,199.9 438.2,199.6 438.4,200.7 438.6,199.1 438.8,199.0 439.0,199.4 439.1,200.3 439.3,201.6 439.5,202.3 439.7,200.9 439.8,201.1 440.0,202.4 440.2,203.3 440.4,202.2 440.6,201.9 440.7,196.0 440.9,196.2 441.1,196.9 441.3,192.8 441.4,193.7 441.6,195.7 441.8,195.3 442.0,195.2 442.2,196.2 442.3,197.2 442.5,197.6 442.7,201.3 442.9,200.9 443.1,199.2 443.2,199.3 443.4,199.5 443.6,199.1 443.8,199.6 443.9,200.5 444.1,201.3 444.3,201.6 444.5,201.8 444.7,203.5 444.8,204.6 445.0,204.6 445.2,207.1 445.4,203.9 445.5,204.8 445.7,203.3 445.9,203.4 446.1,202.6 446.3,202.7 446.4,204.0 446.6,202.1 446.8,202.2 447.0,202.1 447.1,202.0 447.3,201.9 447.5,200.8 447.7,201.0 447.9,206.9 448.0,200.6 448.2,201.9 448.4,202.7 448.6,204.4 448.7,207.3 448.9,209.1 449.1,207.2 449.3,208.1 449.5,208.8 449.6,207.8 449.8,207.7 450.0,205.2 450.2,205.9 450.3,207.0 450.5,207.6 450.7,207.5 450.9,202.8 451.1,203.5 451.2,200.1 451.4,198.1 451.6,197.7 451.8,198.3 452.0,197.4 452.1,196.6 452.3,196.4 452.5,196.9 452.7,197.0 452.8,196.2 453.0,195.8 453.2,195.9 453.4,198.1 453.6,197.2 453.7,196.6 453.9,196.1 454.1,195.5 454.3,195.6 454.4,196.2 454.6,197.3 454.8,198.8 455.0,196.4 455.2,196.6 455.3,196.2 455.5,197.0 455.7,195.9 455.9,195.0 456.0,194.9 456.2,194.5 456.4,195.1 456.6,194.3 456.8,194.1 456.9,194.1 457.1,193.1 457.3,194.2 457.5,196.1 457.6,197.4 457.8,197.9 458.0,200.0 458.2,199.5 458.4,202.6 458.5,198.7 458.7,199.9 458.9,197.8 459.1,197.9 459.2,200.7 459.4,202.0 459.6,199.7 459.8,197.7 460.0,197.6 460.1,197.3 460.3,196.5 460.5,196.3 460.7,197.7 460.9,196.6 461.0,196.4 461.2,196.3 461.4,201.7 461.6,202.1 461.7,203.7 461.9,203.1 462.1,202.4 462.3,202.5 462.5,202.3 462.6,200.9 462.8,201.1 463.0,200.4 463.2,200.3 463.3,199.3 463.5,199.8 463.7,201.0 463.9,201.2 464.1,200.4 464.2,200.5 464.4,200.9 464.6,201.5 464.8,201.0 464.9,201.3 465.1,201.7 465.3,203.2 465.5,202.7 465.7,202.2 465.8,202.3 466.0,200.1 466.2,199.5 466.4,202.7 466.5,204.0 466.7,205.2 466.9,205.2 467.1,205.2 467.3,204.1 467.4,203.2 467.6,204.2 467.8,203.5 468.0,203.3 468.1,205.4 468.3,206.2 468.5,206.5 468.7,205.6 468.9,205.6 469.0,206.9 469.2,207.6 469.4,206.5 469.6,205.4 469.7,204.9 469.9,204.7 470.1,203.4 470.3,203.9 470.5,203.1 470.6,206.5 470.8,205.4 471.0,205.7 471.2,205.8 471.4,205.3 471.5,206.4 471.7,206.5 471.9,206.7 472.1,205.6 472.2,206.0 472.4,205.7 472.6,207.2 472.8,207.0 473.0,207.8 473.1,209.5 473.3,211.6 473.5,210.5 473.7,211.0 473.8,211.7 474.0,210.1 474.2,208.4 474.4,208.3 474.6,209.6 474.7,210.0 474.9,210.4 475.1,210.8 475.3,212.9 475.4,212.0 475.6,212.1 475.8,212.7 476.0,215.8 476.2,216.9 476.3,216.9 476.5,219.4 476.7,218.8 476.9,219.8 477.0,220.2 477.2,220.0 477.4,220.3 477.6,220.9 477.8,222.3 477.9,219.2 478.1,218.6 478.3,216.8 478.5,217.0 478.6,215.5 478.8,214.7 479.0,216.1 479.2,215.3 479.4,215.1 479.5,213.3 479.7,213.3 479.9,213.0 480.1,214.2 480.3,213.8 480.4,213.5 480.6,214.2 480.8,214.3 481.0,213.7 481.1,213.6 481.3,212.9 481.5,213.4 481.7,211.6 481.9,211.9 482.0,212.4 482.2,212.4 482.4,210.9 482.6,211.0 482.7,209.9 482.9,208.6 483.1,208.8 483.3,208.4 483.5,208.6 483.6,207.9 483.8,208.3 484.0,207.6 484.2,206.9 484.3,212.6 484.5,212.8 484.7,211.5 484.9,210.4 485.1,210.5 485.2,211.8 485.4,211.7 485.6,212.7 485.8,212.3 485.9,211.8 486.1,211.0 486.3,211.6 486.5,212.6 486.7,211.6 486.8,214.2 487.0,215.0 487.2,214.2 487.4,213.0 487.5,213.1 487.7,214.0 487.9,213.8 488.1,215.7 488.3,215.1 488.4,215.2 488.6,215.0 488.8,213.9 489.0,213.2 489.2,213.3 489.3,214.0 489.5,212.5 489.7,212.9 489.9,212.1 490.0,211.5 490.2,209.6 490.4,209.8 490.6,209.9 490.8,210.3 490.9,210.0 491.1,210.2 491.3,209.7 491.5,210.7 491.6,210.6 491.8,213.6 492.0,212.6 492.2,210.3 492.4,210.4 492.5,210.6 492.7,210.0 492.9,210.2 493.1,211.9 493.2,212.2 493.4,211.1 493.6,210.7 493.8,210.0 494.0,210.0 494.1,209.5 494.3,208.1 494.5,207.9 494.7,207.7 494.8,207.3 495.0,208.1 495.2,208.6 495.4,208.3 495.6,208.4 495.7,202.0 495.9,198.5 496.1,198.5 496.3,199.9 496.4,200.1 496.6,200.1 496.8,200.3 497.0,199.8 497.2,199.8 497.3,198.7 497.5,197.6 497.7,197.4 497.9,196.5 498.0,196.0 498.2,196.4 498.4,196.0 498.6,195.7 498.8,195.9 498.9,194.9 499.1,195.7 499.3,195.4 499.5,197.9 499.7,197.5 499.8,198.4 500.0,198.1 500.2,198.3 500.4,197.7 500.5,197.5 500.7,197.9 500.9,198.2 501.1,197.6 501.3,197.1 501.4,196.1 501.6,195.6 501.8,194.9 502.0,195.0 502.1,192.6 502.3,192.8 502.5,191.4 502.7,190.3 502.9,190.2 503.0,188.9 503.2,188.3 503.4,187.8 503.6,187.8 503.7,189.3 503.9,188.9 504.1,187.8 504.3,186.7 504.5,185.9 504.6,184.5 504.8,182.6 505.0,183.4 505.2,183.7 505.3,180.0 505.5,179.1 505.7,180.5 505.9,180.9 506.1,181.1 506.2,178.4 506.4,176.8 506.6,176.7 506.8,177.2 506.9,177.6 507.1,177.0 507.3,176.1 507.5,172.2 507.7,171.6 507.8,164.5 508.0,159.4 508.2,166.8 508.4,166.1 508.6,166.1 508.7,164.9 508.9,164.8 509.1,165.1 509.3,163.3 509.4,163.5 509.6,160.7 509.8,158.1 510.0,158.9 510.2,158.8 510.3,161.9 510.5,163.5 510.7,164.6 510.9,169.9 511.0,170.6 511.2,166.4 511.4,166.3 511.6,166.1 511.8,167.4 511.9,168.5 512.1,174.3 512.3,171.9 512.5,172.6 512.6,177.5 512.8,178.4 513.0,186.5 513.2,187.8 513.4,194.7 513.5,188.1 513.7,188.1 513.9,187.5 514.1,181.6 514.2,179.0 514.4,179.8 514.6,180.8 514.8,181.8 515.0,180.1 515.1,183.4 515.3,185.7 515.5,183.5 515.7,180.7 515.8,178.5 516.0,178.3 516.2,176.6 516.4,171.6 516.6,168.2 516.7,167.1 516.9,166.3 517.1,165.8 517.3,166.2 517.5,169.5 517.6,167.0 517.8,168.4 518.0,167.4 518.2,163.6 518.3,165.0 518.5,163.5 518.7,164.4 518.9,168.7 519.1,165.5 519.2,165.1 519.4,164.4 519.6,164.5 519.8,162.6 519.9,163.0 520.1,163.0 520.3,163.9 520.5,163.3 520.7,163.5 520.8,162.8 521.0,163.1 521.2,162.7 521.4,162.2 521.5,162.7 521.7,162.6 521.9,162.5 522.1,163.2 522.3,161.8 522.4,159.0 522.6,159.7 522.8,159.6 523.0,160.5 523.1,159.5 523.3,156.8 523.5,157.1 523.7,153.8 523.9,155.8 524.0,157.4 524.2,155.1 524.4,155.5 524.6,155.1 524.7,154.6 524.9,154.7 525.1,155.0 525.3,154.7 525.5,156.3 525.6,155.3 525.8,156.4 526.0,154.4 526.2,151.7 526.3,150.3 526.5,147.3 526.7,142.3 526.9,141.8 527.1,142.5 527.2,141.7 527.4,137.7 527.6,138.9 527.8,138.4 528.0,137.6 528.1,138.8 528.3,138.8 528.5,135.3 528.7,137.1 528.8,136.5 529.0,138.5 529.2,141.1 529.4,137.8 529.6,139.4 529.7,138.9 529.9,139.2 530.1,140.7 530.3,139.2 530.4,139.2 530.6,139.2 530.8,139.1 531.0,140.1 531.2,141.0 531.3,142.3 531.5,137.4 531.7,135.8 531.9,135.1 532.0,130.9 532.2,129.8 532.4,130.0 532.6,127.5 532.8,126.6 532.9,127.3 533.1,127.1 533.3,124.6 533.5,123.1 533.6,123.6 533.8,118.9 534.0,120.8 534.2,123.1 534.4,126.9 534.5,125.8 534.7,135.1 534.9,131.0 535.1,130.5 535.2,130.3 535.4,125.7 535.6,122.9 535.8,123.6 536.0,125.3 536.1,123.6 536.3,123.0 536.5,125.2 536.7,129.5 536.9,128.8 537.0,126.8 537.2,125.5 537.4,125.7 537.6,124.8 537.7,123.1 537.9,126.1 538.1,125.1 538.3,126.2 538.5,125.1 538.6,125.1 538.8,124.3 539.0,123.6 539.2,123.2 539.3,121.9 539.5,123.0 539.7,123.8 539.9,124.6 540.1,125.4 540.2,125.4 540.4,125.1 540.6,125.6 540.8,125.6 540.9,125.2 541.1,127.0 541.3,126.5 541.5,128.7 541.7,127.5 541.8,125.3 542.0,125.5 542.2,124.0 542.4,124.7 542.5,125.5 542.7,126.5 542.9,125.9 543.1,126.4 543.3,126.7 543.4,126.8 543.6,123.7 543.8,119.8 544.0,118.8 544.1,119.6 544.3,117.1 544.5,114.7 544.7,113.4 544.9,112.6 545.0,113.8 545.2,112.6 545.4,113.7 545.6,112.1 545.8,111.7 545.9,109.0 546.1,108.5 546.3,111.3 546.5,109.9 546.6,111.0 546.8,109.1 547.0,109.5 547.2,110.2 547.4,108.1 547.5,105.9 547.7,108.5 547.9,109.1 548.1,108.7 548.2,107.8 548.4,107.7 548.6,107.5 548.8,105.9 549.0,105.3 549.1,103.9 549.3,103.7 549.5,102.6 549.7,99.6 549.8,96.6 550.0,99.8 550.2,98.0 550.4,97.8 550.6,98.2 550.7,99.1 550.9,98.2 551.1,97.9 551.3,98.2 551.4,98.1 551.6,96.6 551.8,96.5 552.0,97.3 552.2,98.6 552.3,100.7 552.5,98.4 552.7,96.9 552.9,97.7 553.0,98.0 553.2,97.9 553.4,97.3 553.6,98.0 553.8,100.1 553.9,99.8 554.1,99.6 554.3,100.5 554.5,100.4 554.6,101.0 554.8,101.3 555.0,104.8 555.2,105.6 555.4,103.3 555.5,106.6 555.7,107.0 555.9,104.6 556.1,106.3 556.3,108.3 556.4,110.2 556.6,111.8 556.8,114.1 557.0,107.1 557.1,107.4 557.3,105.6 557.5,105.9 557.7,105.1 557.9,106.9 558.0,105.5 558.2,108.3 558.4,108.2 558.6,107.3 558.7,107.8 558.9,109.7 559.1,109.1 559.3,110.4 559.5,110.9 559.6,109.4 559.8,107.4 560.0,107.8 560.2,106.1 560.3,106.0 560.5,107.2 560.7,106.5 560.9,106.9 561.1,105.5 561.2,102.2 561.4,103.8 561.6,103.5 561.8,103.4 561.9,104.8 562.1,104.5 562.3,103.2 562.5,104.5 562.7,104.0 562.8,103.5 563.0,105.3 563.2,105.9 563.4,106.9 563.5,105.0 563.7,106.4 563.9,107.1 564.1,107.2 564.3,107.7 564.4,107.2 564.6,109.8 564.8,110.5 565.0,112.3 565.2,113.5 565.3,112.3 565.5,113.2 565.7,113.1 565.9,114.1 566.0,112.5 566.2,112.9 566.4,111.2 566.6,111.3 566.8,110.4 566.9,109.7 567.1,110.0 567.3,110.1 567.5,111.3 567.6,113.4 567.8,111.7 568.0,111.3 568.2,111.4 568.4,111.7 568.5,111.0 568.7,111.0 568.9,110.5 569.1,111.7 569.2,111.3 569.4,110.6 569.6,110.1 569.8,110.3 570.0,110.1 570.1,108.1 570.3,106.7 570.5,107.2 570.7,106.2 570.8,106.7 571.0,106.7 571.2,106.8 571.4,106.8 571.6,107.9 571.7,108.8 571.9,108.3 572.1,108.1 572.3,106.4 572.4,107.4 572.6,108.3 572.8,108.4 573.0,108.8 573.2,108.7 573.3,107.9 573.5,108.2 573.7,108.5 573.9,108.9 574.1,108.0 574.2,108.8 574.4,108.7 574.6,106.9 574.8,106.3 574.9,105.0 575.1,105.0 575.3,105.0 575.5,104.8 575.7,105.6 575.8,104.8 576.0,105.0 576.2,105.1 576.4,104.3 576.5,104.6 576.7,106.4 576.9,107.5 577.1,106.2 577.3,107.1 577.4,106.7 577.6,105.2 577.8,105.1 578.0,105.0 578.1,105.5 578.3,104.9 578.5,103.9 578.7,103.6 578.9,103.7 579.0,103.8 579.2,103.7 579.4,102.7 579.6,102.7 579.7,102.6 579.9,103.6 580.1,103.2 580.3,103.2 580.5,102.6 580.6,102.5 580.8,102.4 581.0,103.9 581.2,103.4 581.3,102.8 581.5,102.7 581.7,101.6 581.9,100.8 582.1,101.5 582.2,101.3 582.4,101.6 582.6,101.6 582.8,101.3 582.9,101.3 583.1,101.2 583.3,100.6 583.5,101.1 583.7,100.7 583.8,100.1 584.0,99.8 584.2,99.4 584.4,98.3 584.6,97.0 584.7,97.3 584.9,97.2 585.1,96.0 585.3,95.3 585.4,90.6 585.6,90.9 585.8,90.1 586.0,88.7 586.2,87.3 586.3,84.1 586.5,85.3 586.7,84.0 586.9,83.5 587.0,83.7 587.2,85.7 587.4,90.7 587.6,89.0 587.8,89.2 587.9,90.3 588.1,91.1 588.3,89.5 588.5,88.2 588.6,88.0 588.8,86.5 589.0,85.9 589.2,87.5 589.4,87.3 589.5,88.5 589.7,86.5 589.9,86.3 590.1,88.0 590.2,88.4 590.4,91.0 590.6,91.2 590.8,89.6 591.0,89.0 591.1,91.4 591.3,90.9 591.5,92.9 591.7,93.2 591.8,92.5 592.0,94.6 592.2,94.3 592.4,95.7 592.6,94.1 592.7,91.2 592.9,89.0 593.1,88.1 593.3,88.2 593.5,88.3 593.6,88.9 593.8,89.4 594.0,84.4 594.2,86.1 594.3,88.3 594.5,89.1 594.7,90.5 594.9,89.4 595.1,89.1 595.2,87.6 595.4,90.4 595.6,89.7 595.8,90.4 595.9,91.7 596.1,91.7 596.3,93.8 596.5,94.4 596.7,94.9 596.8,94.1 597.0,98.9 597.2,98.1 597.4,94.1 597.5,94.4 597.7,95.5 597.9,96.1 598.1,94.7 598.3,95.4 598.4,94.8 598.6,94.3 598.8,95.5 599.0,97.5 599.1,96.8 599.3,94.7 599.5,94.7 599.7,96.8 599.9,97.6 600.0,99.3 600.2,102.1 600.4,100.3 600.6,99.9 600.7,97.0 600.9,97.3 601.1,96.6 601.3,98.5 601.5,98.5 601.6,100.1 601.8,99.2 602.0,97.5 602.2,98.5 602.4,100.6 602.5,102.0 602.7,100.2 602.9,98.4 603.1,97.0 603.2,95.5 603.4,94.8 603.6,91.8 603.8,91.6 604.0,91.0 604.1,91.2 604.3,88.1 604.5,87.9 604.7,88.0 604.8,88.6 605.0,88.4 605.2,86.2 605.4,88.1 605.6,89.8 605.7,89.4 605.9,90.6 606.1,92.5 606.3,92.1 606.4,90.7 606.6,92.2 606.8,91.4 607.0,90.5 607.2,92.5 607.3,91.2 607.5,91.4 607.7,91.7 607.9,96.8 608.0,96.5 608.2,96.7 608.4,97.0 608.6,95.6 608.8,95.3 608.9,93.5 609.1,96.9 609.3,97.2 609.5,101.0 609.6,100.3 609.8,103.7 610.0,104.0 610.2,101.9 610.4,104.2 610.5,102.3 610.7,105.0 610.9,105.0 611.1,107.7 611.2,107.0 611.4,109.8 611.6,108.0 611.8,105.1 612.0,102.4 612.1,102.4 612.3,103.4 612.5,101.6 612.7,105.4 612.9,104.8 613.0,104.7 613.2,104.2 613.4,104.5 613.6,105.8 613.7,108.7 613.9,107.7 614.1,105.6 614.3,109.1 614.5,108.5 614.6,105.0 614.8,105.1 615.0,105.3 615.2,103.5 615.3,103.7 615.5,105.7 615.7,106.4 615.9,107.1 616.1,106.6 616.2,105.6 616.4,105.8 616.6,103.7 616.8,102.7 616.9,105.4 617.1,105.6 617.3,105.0 617.5,104.7 617.7,104.5 617.8,104.4 618.0,103.6 618.2,103.3 618.4,99.6 618.5,99.5 618.7,100.1 618.9,101.5 619.1,99.2 619.3,98.3 619.4,96.1 619.6,96.1 619.8,95.6 620.0,94.8 620.1,94.6 620.3,97.3 620.5,97.0 620.7,98.0 620.9,96.5 621.0,97.5 621.2,95.7 621.4,94.5 621.6,94.9 621.8,95.2 621.9,95.3 622.1,96.1 622.3,97.1 622.5,96.2 622.6,96.1 622.8,96.2 623.0,97.3 623.2,97.7 623.4,98.7 623.5,99.0 623.7,98.8 623.9,99.8 624.1,99.2 624.2,97.9 624.4,97.1 624.6,95.8 624.8,95.1 625.0,96.8 625.1,95.4 625.3,95.2 625.5,95.3 625.7,94.5 625.8,94.6 626.0,95.6 626.2,97.2 626.4,99.1 626.6,99.0 626.7,98.0 626.9,97.3 627.1,100.1 627.3,100.5 627.4,104.1 627.6,103.0 627.8,104.3 628.0,104.8 628.2,107.3 628.3,107.4 628.5,108.5 628.7,108.4 628.9,107.6 629.0,110.7 629.2,108.0 629.4,107.9 629.6,107.5 629.8,110.2 629.9,108.9 630.1,109.5 630.3,107.5 630.5,107.1 630.6,107.0 630.8,106.4 631.0,106.6 631.2,106.5 631.4,108.8 631.5,108.7 631.7,110.2 631.9,112.2 632.1,113.4 632.3,116.3 632.4,113.5 632.6,112.4 632.8,113.4 633.0,112.7 633.1,114.3 633.3,115.1 633.5,115.7 633.7,118.5 633.9,118.0 634.0,115.1 634.2,115.1 634.4,115.1 634.6,115.6 634.7,112.7 634.9,112.7 635.1,112.6 635.3,115.2 635.5,115.8 635.6,117.1 635.8,117.2 636.0,116.0 636.2,118.5 636.3,120.2 636.5,121.2 636.7,121.0 636.9,122.9 637.1,122.9 637.2,126.2 637.4,126.3 637.6,130.0 637.8,130.7 637.9,135.4 638.1,134.1 638.3,131.1 638.5,130.6 638.7,135.8 638.8,133.8 639.0,135.0 639.2,134.0 639.4,131.7 639.5,132.1 639.7,130.6 639.9,130.5 640.1,130.9 640.3,128.1 640.4,128.9 640.6,129.4 640.8,127.5 641.0,124.6 641.2,124.5 641.3,124.4 641.5,120.3 641.7,116.2 641.9,118.8 642.0,117.3 642.2,115.5 642.4,114.0 642.6,113.6 642.8,112.7 642.9,112.3 643.1,111.4 643.3,110.2 643.5,112.2 643.6,112.7 643.8,109.9 644.0,108.9 644.2,111.2 644.4,110.0 644.5,112.1 644.7,111.5 644.9,111.2 645.1,112.2 645.2,110.2 645.4,110.5 645.6,111.1 645.8,113.5 646.0,112.1 646.1,112.9 646.3,114.1 646.5,115.3 646.7,117.3 646.8,117.2 647.0,117.0 647.2,115.1 647.4,115.7 647.6,114.9 647.7,115.7 647.9,115.1 648.1,112.1 648.3,113.4 648.4,113.2 648.6,113.6 648.8,113.3 649.0,113.8 649.2,112.8 649.3,112.6 649.5,110.2 649.7,112.7 649.9,113.1 650.1,114.6 650.2,114.7 650.4,114.8 650.6,114.3 650.8,115.6 650.9,114.5 651.1,114.7 651.3,114.3 651.5,114.8 651.7,115.6 651.8,119.7 652.0,119.2 652.2,119.8 652.4,120.2 652.5,121.9 652.7,120.3 652.9,119.3 653.1,119.9 653.3,120.3 653.4,120.2 653.6,120.1 653.8,118.0 654.0,117.6 654.1,118.2 654.3,118.3 654.5,117.5 654.7,118.5 654.9,118.9 655.0,118.8 655.2,117.1 655.4,116.4 655.6,115.7 655.7,113.9 655.9,114.5 656.1,115.1 656.3,114.8 656.5,113.0 656.6,111.4 656.8,110.9 657.0,110.2 657.2,109.0 657.3,108.3 657.5,107.7 657.7,107.1 657.9,105.3 658.1,103.8 658.2,102.9 658.4,101.5 658.6,101.8 658.8,102.0 658.9,101.2 659.1,99.2 659.3,101.4 659.5,100.6 659.7,101.8 659.8,104.3 660.0,102.8 660.2,101.9 660.4,101.7 660.6,101.1 660.7,98.4 660.9,98.1 661.1,98.9 661.3,99.2 661.4,99.9 661.6,99.9 661.8,99.6 662.0,98.7 662.2,98.2 662.3,97.0 662.5,96.6 662.7,96.9 662.9,100.9 663.0,101.3 663.2,100.0 663.4,100.5 663.6,100.7 663.8,102.0 663.9,100.4 664.1,100.2 664.3,101.2 664.5,102.2 664.6,101.4 664.8,102.3 665.0,102.6 665.2,102.9 665.4,104.1 665.5,103.6 665.7,104.0 665.9,104.5 666.1,105.6 666.2,106.9 666.4,108.0 666.6,108.7 666.8,105.9 667.0,105.6 667.1,105.0 667.3,106.1 667.5,104.7 667.7,104.7 667.8,101.8 668.0,101.8 668.2,101.6 668.4,103.7 668.6,101.9 668.7,102.6 668.9,102.6 669.1,103.1 669.3,99.3 669.5,100.2 669.6,99.7 669.8,99.0 670.0,99.2 670.2,100.5 670.3,100.4 670.5,100.9 670.7,102.0 670.9,103.7 671.1,103.3 671.2,103.8 671.4,104.4 671.6,103.4 671.8,102.8 671.9,102.6 672.1,103.4 672.3,101.2 672.5,101.3 672.7,101.2 672.8,101.4 673.0,100.8 673.2,100.9 673.4,101.5 673.5,102.7 673.7,102.3 673.9,102.1 674.1,104.0 674.3,107.9 674.4,109.3 674.6,109.3 674.8,108.5 675.0,109.3 675.1,110.5 675.3,110.2 675.5,112.1 675.7,111.5 675.9,110.5 676.0,108.2 676.2,107.9 676.4,108.0 676.6,107.5 676.7,107.5 676.9,109.7 677.1,108.9 677.3,107.2 677.5,104.9 677.6,104.0 677.8,105.5 678.0,105.4 678.2,105.2 678.4,104.3 678.5,105.4 678.7,105.2 678.9,105.1 679.1,103.4 679.2,103.8 679.4,104.5 679.6,104.7 679.8,105.2 680.0,104.7 680.1,104.6 680.3,104.0 680.5,103.8 680.7,104.5 680.8,105.0 681.0,104.6 681.2,102.7 681.4,102.3 681.6,102.5 681.7,101.7 681.9,103.3 682.1,102.2 682.3,102.5 682.4,101.8 682.6,101.1 682.8,102.4 683.0,103.1 683.2,103.1 683.3,104.7 683.5,104.8 683.7,104.9 683.9,104.4 684.0,105.3 684.2,105.5 684.4,106.6 684.6,108.1 684.8,107.9 684.9,108.7 685.1,109.4 685.3,109.3 685.5,109.9 685.6,109.9 685.8,110.1 686.0,115.2 686.2,115.1 686.4,113.4 686.5,113.3 686.7,114.2 686.9,113.9 687.1,114.1 687.2,115.5 687.4,114.7 687.6,114.1 687.8,113.7 688.0,112.9 688.1,114.0 688.3,114.9 688.5,113.9 688.7,111.5 688.9,111.6 689.0,112.9 689.2,112.7 689.4,112.1 689.6,113.2 689.7,111.7 689.9,111.7 690.1,111.2 690.3,111.3 690.5,111.1 690.6,114.0 690.8,115.6 691.0,116.5 691.2,116.1 691.3,116.8 691.5,116.2 691.7,116.3 691.9,118.1 692.1,119.8 692.2,119.5 692.4,117.1 692.6,117.7 692.8,116.7 692.9,117.4 693.1,117.8 693.3,117.4 693.5,116.3 693.7,115.8 693.8,116.7 694.0,116.8 694.2,118.8 694.4,118.4 694.5,117.7 694.7,119.2 694.9,117.3 695.1,116.4 695.3,117.6 695.4,117.0 695.6,117.8 695.8,120.0 696.0,121.1 696.1,121.5 696.3,122.9 696.5,123.7 696.7,125.1 696.9,124.3 697.0,119.9 697.2,118.0 697.4,118.4 697.6,112.8 697.8,115.1 697.9,115.8 698.1,115.8 698.3,115.5 698.5,114.7 698.6,116.2 698.8,116.9 699.0,117.6 699.2,118.4 699.4,117.6 699.5,116.3 699.7,117.1 699.9,116.9 700.1,116.3 700.2,116.9 700.4,114.3 700.6,115.7 700.8,117.1 701.0,115.9 701.1,116.5 701.3,116.6 701.5,116.0 701.7,116.2 701.8,116.6 702.0,116.9 702.2,116.9 702.4,116.2 702.6,116.3 702.7,117.1 702.9,117.9 703.1,116.4 703.3,115.2 703.4,116.2 703.6,114.2 703.8,114.7 704.0,115.4 704.2,115.1 704.3,115.2 704.5,114.2 704.7,112.3 704.9,112.1 705.0,112.0 705.2,109.7 705.4,105.9 705.6,103.4 705.8,102.6 705.9,102.4 706.1,101.0 706.3,100.8 706.5,104.3 706.7,103.1 706.8,102.5 707.0,101.9 707.2,103.1 707.4,103.0 707.5,104.6 707.7,102.6 707.9,103.4 708.1,108.6 708.3,107.8 708.4,107.9 708.6,105.8 708.8,107.4 709.0,105.8 709.1,108.4 709.3,110.1 709.5,111.8 709.7,111.5 709.9,113.3 710.0,111.9 710.2,111.6 710.4,112.1 710.6,110.1 710.7,111.4 710.9,108.9 711.1,108.6 711.3,107.4 711.5,107.7 711.6,107.3 711.8,109.6 712.0,107.8 712.2,109.1 712.3,109.9 712.5,110.5 712.7,110.4 712.9,108.9 713.1,109.6 713.2,108.0 713.4,106.1 713.6,109.6 713.8,108.6 713.9,106.8 714.1,106.5 714.3,106.2 714.5,106.1 714.7,106.7 714.8,106.5 715.0,106.6 715.2,103.8 715.4,104.8 715.5,102.9 715.7,102.2 715.9,101.8 716.1,102.2 716.3,101.3 716.4,101.1 716.6,101.6 716.8,103.0 717.0,104.4 717.2,102.9 717.3,104.3 717.5,103.7 717.7,104.3 717.9,104.7 718.0,108.3 718.2,108.0 718.4,108.0 718.6,107.6 718.8,107.7 718.9,107.8 719.1,108.1 719.3,108.2 719.5,109.0 719.6,101.3 719.8,100.0 720.0,101.0 720.2,101.4 720.4,101.7 720.5,102.9 720.7,103.0 720.9,104.0 721.1,102.6 721.2,97.2 721.4,96.1 721.6,93.0 721.8,89.7 722.0,92.2 722.1,91.9 722.3,94.3 722.5,93.1 722.7,90.9 722.8,90.1 723.0,90.6 723.2,90.8 723.4,89.4 723.6,91.0 723.7,91.0 723.9,91.6 724.1,90.2 724.3,88.9 724.4,89.5 724.6,88.8 724.8,87.5 725.0,85.5 725.2,85.4 725.3,84.3 725.5,82.1 725.7,82.7 725.9,81.0 726.1,78.7 726.2,77.3 726.4,80.7 726.6,81.0 726.8,82.4 726.9,81.5 727.1,78.7 727.3,79.4 727.5,81.4 727.7,82.7 727.8,84.0 728.0,86.5 728.2,83.4 728.4,83.4 728.5,85.0 728.7,84.9 728.9,84.9 729.1,84.1 729.3,84.8 729.4,81.7 729.6,83.1 729.8,81.9 730.0,82.1 730.1,83.0 730.3,83.2 730.5,83.8 730.7,84.7 730.9,84.6 731.0,85.5 731.2,84.4 731.4,84.0 731.6,86.1 731.7,85.2 731.9,86.6 732.1,87.0 732.3,88.4 732.5,89.6 732.6,92.1 732.8,91.2 733.0,89.0 733.2,89.0 733.3,89.2 733.5,88.5 733.7,89.2 733.9,91.1 734.1,91.9 734.2,95.3 734.4,96.9 734.6,98.1 734.8,96.6 735.0,97.8 735.1,99.6 735.3,98.5 735.5,100.8 735.7,100.9 735.8,107.5 736.0,106.0 736.2,103.2 736.4,104.4 736.6,102.9 736.7,104.8 736.9,106.9 737.1,105.2 737.3,105.1 737.4,103.1 737.6,98.6 737.8,97.3 738.0,99.5 738.2,99.4 738.3,100.8 738.5,101.5 738.7,100.1 738.9,98.0 739.0,100.2 739.2,104.6 739.4,105.6 739.6,107.6 739.8,99.5 739.9,102.5 740.1,102.5 740.3,102.5 740.5,102.2 740.6,104.2 740.8,104.2 741.0,106.6 741.2,104.8 741.4,102.8 741.5,101.4 741.7,97.7 741.9,97.6 742.1,96.8 742.2,98.1 742.4,98.3 742.6,97.4 742.8,98.4 743.0,99.1 743.1,99.0 743.3,97.7 743.5,95.9 743.7,93.4 743.8,91.5 744.0,89.9 744.2,90.5 744.4,89.7 744.6,90.6 744.7,90.4 744.9,91.4 745.1,90.7 745.3,90.9 745.5,88.2 745.6,88.9 745.8,88.7 746.0,90.1 746.2,90.5 746.3,90.3 746.5,91.7 746.7,97.8 746.9,96.4 747.1,94.6 747.2,92.4 747.4,92.4 747.6,93.3 747.8,92.5 747.9,92.1 748.1,93.6 748.3,92.9 748.5,92.9 748.7,89.8 748.8,90.7 749.0,92.3 749.2,92.5 749.4,92.7 749.5,93.5 749.7,95.6 749.9,93.7 750.1,93.8 750.3,96.5 750.4,96.0 750.6,96.3 750.8,94.4 751.0,94.0 751.1,93.6 751.3,94.3 751.5,93.0 751.7,93.3 751.9,92.0 752.0,92.2 752.2,91.7 752.4,91.7 752.6,95.0 752.7,93.7 752.9,92.5 753.1,93.0 753.3,93.3 753.5,94.6 753.6,95.4 753.8,94.5 754.0,94.6 754.2,93.2 754.4,92.9 754.5,92.0 754.7,90.9 754.9,90.7 755.1,90.9 755.2,91.3 755.4,91.9 755.6,91.4 755.8,92.1 756.0,92.7 756.1,93.2 756.3,90.8 756.5,90.0 756.7,89.5 756.8,89.7 757.0,90.1 757.2,91.5 757.4,92.0 757.6,91.5 757.7,91.0 757.9,89.6 758.1,90.1 758.3,90.0 758.4,89.9 758.6,87.6 758.8,84.8 759.0,83.4 759.2,82.4 759.3,82.0 759.5,82.8 759.7,81.9 759.9,81.2 760.0,82.0 760.2,80.4 760.4,82.2 760.6,80.6 760.8,80.4 760.9,80.3 761.1,79.0 761.3,81.0 761.5,81.6 761.6,79.5 761.8,81.3 762.0,80.8 762.2,81.1 762.4,83.1 762.5,81.0 762.7,81.7 762.9,81.1 763.1,81.7 763.3,80.7 763.4,80.0 763.6,80.4 763.8,80.8 764.0,79.9 764.1,81.2 764.3,79.6 764.5,78.9 764.7,78.8 764.9,80.7 765.0,79.2 765.2,78.2 765.4,80.3 765.6,78.8 765.7,80.2 765.9,81.6 766.1,80.2 766.3,80.7 766.5,81.5 766.6,84.2 766.8,84.0 767.0,83.6 767.2,84.3 767.3,84.0 767.5,84.9 767.7,85.3 767.9,82.7 768.1,82.6 768.2,81.9 768.4,81.6 768.6,81.6 768.8,81.7 768.9,80.1 769.1,79.4 769.3,79.4 769.5,80.7 769.7,80.2 769.8,79.7 770.0,80.1 770.2,79.0 770.4,77.6 770.5,76.5 770.7,78.3 770.9,77.0 771.1,77.2 771.3,76.6 771.4,76.8 771.6,76.8 771.8,77.7 772.0,79.0 772.1,79.4 772.3,79.8 772.5,80.9 772.7,79.7 772.9,81.3 773.0,81.5 773.2,81.1 773.4,80.2 773.6,79.9 773.8,80.0 773.9,80.8 774.1,80.8 774.3,80.9 774.5,82.6 774.6,81.5 774.8,79.9 775.0,79.9 775.2,81.1 775.4,81.5 775.5,81.4 775.7,82.8 775.9,81.5 776.1,82.3 776.2,82.3 776.4,83.8 776.6,84.7 776.8,83.3 777.0,82.8 777.1,82.0 777.3,81.7 777.5,82.8 777.7,82.7 777.8,83.4 778.0,83.3 778.2,83.3 778.4,83.3 778.6,84.4 778.7,83.5 778.9,82.7 779.1,83.6 779.3,84.2 779.4,84.1 779.6,85.2 779.8,83.8 780.0,83.9 780.2,84.7 780.3,84.5 780.5,84.5 780.7,83.7 780.9,84.9 781.0,85.3 781.2,84.9 781.4,84.5 781.6,85.1 781.8,86.4 781.9,87.7 782.1,86.3 782.3,86.1 782.5,85.8 782.7,87.3 782.8,88.4 783.0,89.1 783.2,87.3 783.4,86.3 783.5,88.5 783.7,89.3 783.9,90.0 784.1,90.4 784.3,90.2 784.4,89.8 784.6,89.4 784.8,88.1 785.0,85.2 785.1,85.5 785.3,84.4 785.5,85.2 785.7,85.8 785.9,85.7 786.0,87.1 786.2,86.8 786.4,86.6 786.6,86.8 786.7,87.2 786.9,86.3 787.1,85.3 787.3,85.2 787.5,85.5 787.6,84.5 787.8,83.3 788.0,81.7 788.2,80.2 788.3,81.3 788.5,80.2 788.7,80.4 788.9,82.3 789.1,83.5 789.2,84.0 789.4,82.8 789.6,82.7 789.8,81.9 789.9,81.3 790.1,80.6 790.3,80.5 790.5,81.1 790.7,82.9 790.8,82.2 791.0,82.2 791.2,82.6 791.4,85.3 791.6,83.6 791.7,84.7 791.9,86.3 792.1,84.5 792.3,83.8 792.4,83.3 792.6,84.0 792.8,84.8 793.0,84.4 793.2,83.9 793.3,86.3 793.5,86.9 793.7,86.9 793.9,86.5 794.0,83.3 794.2,82.4 794.4,82.0 794.6,85.1 794.8,82.5 794.9,84.1 795.1,85.0 795.3,83.8 795.5,83.7 795.6,84.9 795.8,84.8 796.0,85.0"/><polyline fill="none" stroke="#16a34a" stroke-width="3" points="78.0,301.3 78.2,301.4 78.4,304.6 78.5,309.9 78.7,316.8 78.9,317.5 79.1,313.6 79.2,313.7 79.4,314.5 79.6,312.1 79.8,308.6 80.0,308.5 80.1,307.0 80.3,304.7 80.5,307.7 80.7,307.9 80.8,306.4 81.0,305.8 81.2,306.5 81.4,307.2 81.6,306.9 81.7,307.6 81.9,308.4 82.1,306.5 82.3,304.6 82.4,305.9 82.6,307.4 82.8,309.1 83.0,309.1 83.2,310.2 83.3,312.6 83.5,313.3 83.7,311.7 83.9,310.8 84.1,310.0 84.2,310.8 84.4,310.7 84.6,310.1 84.8,308.0 84.9,309.9 85.1,308.5 85.3,308.8 85.5,308.9 85.7,308.5 85.8,309.3 86.0,307.4 86.2,306.3 86.4,306.3 86.5,307.2 86.7,306.6 86.9,306.9 87.1,308.0 87.3,306.9 87.4,306.1 87.6,304.6 87.8,306.5 88.0,307.8 88.1,306.3 88.3,306.8 88.5,308.5 88.7,309.2 88.9,308.1 89.0,307.3 89.2,305.6 89.4,304.6 89.6,307.5 89.7,307.1 89.9,306.4 90.1,306.1 90.3,307.4 90.5,307.4 90.6,307.4 90.8,307.8 91.0,307.8 91.2,307.2 91.3,306.8 91.5,307.2 91.7,307.8 91.9,308.2 92.1,307.0 92.2,306.8 92.4,306.9 92.6,306.7 92.8,305.7 93.0,306.4 93.1,306.0 93.3,304.8 93.5,305.6 93.7,305.9 93.8,305.0 94.0,299.7 94.2,300.4 94.4,299.6 94.6,300.1 94.7,293.2 94.9,295.0 95.1,292.6 95.3,291.3 95.4,292.8 95.6,293.0 95.8,292.5 96.0,291.1 96.2,288.2 96.3,286.8 96.5,285.8 96.7,286.0 96.9,287.1 97.0,286.0 97.2,287.1 97.4,289.4 97.6,290.5 97.8,292.0 97.9,290.4 98.1,289.4 98.3,289.8 98.5,290.4 98.6,291.7 98.8,294.3 99.0,292.9 99.2,291.3 99.4,290.6 99.5,290.2 99.7,289.5 99.9,289.1 100.1,292.3 100.2,298.7 100.4,297.4 100.6,295.5 100.8,297.2 101.0,297.0 101.1,297.1 101.3,297.0 101.5,296.8 101.7,295.2 101.9,294.7 102.0,294.5 102.2,296.6 102.4,296.6 102.6,297.7 102.7,298.4 102.9,298.5 103.1,301.1 103.3,303.5 103.5,302.7 103.6,300.3 103.8,300.0 104.0,299.9 104.2,299.7 104.3,301.1 104.5,301.0 104.7,301.3 104.9,301.2 105.1,301.7 105.2,302.0 105.4,302.7 105.6,300.3 105.8,302.4 105.9,302.4 106.1,302.4 106.3,302.7 106.5,303.1 106.7,300.0 106.8,301.8 107.0,302.5 107.2,304.8 107.4,304.8 107.5,303.6 107.7,301.8 107.9,301.3 108.1,301.2 108.3,301.1 108.4,300.5 108.6,299.6 108.8,299.6 109.0,300.1 109.1,300.0 109.3,301.1 109.5,301.0 109.7,302.4 109.9,302.9 110.0,303.1 110.2,303.1 110.4,302.9 110.6,303.3 110.7,304.2 110.9,304.2 111.1,304.0 111.3,303.2 111.5,302.4 111.6,301.3 111.8,301.6 112.0,295.4 112.2,297.0 112.4,298.2 112.5,296.9 112.7,297.3 112.9,296.2 113.1,297.3 113.2,299.1 113.4,300.1 113.6,299.6 113.8,299.3 114.0,298.6 114.1,299.5 114.3,299.3 114.5,298.4 114.7,296.9 114.8,297.4 115.0,296.6 115.2,296.4 115.4,295.6 115.6,295.6 115.7,295.9 115.9,296.7 116.1,297.0 116.3,297.3 116.4,296.3 116.6,295.2 116.8,294.6 117.0,296.4 117.2,295.5 117.3,295.7 117.5,297.1 117.7,298.0 117.9,297.5 118.0,294.8 118.2,295.1 118.4,296.8 118.6,296.9 118.8,293.7 118.9,293.1 119.1,293.0 119.3,292.2 119.5,294.4 119.6,294.0 119.8,292.2 120.0,294.1 120.2,294.6 120.4,296.3 120.5,295.6 120.7,295.3 120.9,294.5 121.1,294.2 121.3,296.0 121.4,297.2 121.6,297.2 121.8,298.0 122.0,295.7 122.1,296.2 122.3,295.5 122.5,295.7 122.7,295.8 122.9,294.9 123.0,294.7 123.2,293.5 123.4,293.7 123.6,293.5 123.7,293.8 123.9,292.7 124.1,294.0 124.3,294.6 124.5,294.8 124.6,294.2 124.8,295.6 125.0,295.7 125.2,296.2 125.3,295.2 125.5,294.1 125.7,294.1 125.9,293.3 126.1,294.4 126.2,295.1 126.4,295.6 126.6,294.8 126.8,294.8 126.9,294.0 127.1,296.0 127.3,296.2 127.5,299.9 127.7,300.7 127.8,301.7 128.0,299.4 128.2,301.4 128.4,299.1 128.5,297.5 128.7,297.6 128.9,297.8 129.1,298.2 129.3,300.7 129.4,304.0 129.6,304.6 129.8,302.9 130.0,301.3 130.2,302.6 130.3,301.6 130.5,300.0 130.7,300.1 130.9,299.9 131.0,301.1 131.2,302.7 131.4,302.9 131.6,301.4 131.8,301.8 131.9,302.8 132.1,303.0 132.3,301.0 132.5,300.6 132.6,299.8 132.8,298.3 133.0,298.3 133.2,298.0 133.4,298.2 133.5,298.5 133.7,297.4 133.9,298.7 134.1,297.7 134.2,300.2 134.4,300.9 134.6,300.5 134.8,301.6 135.0,301.7 135.1,298.9 135.3,296.6 135.5,296.5 135.7,295.2 135.8,295.6 136.0,295.4 136.2,295.2 136.4,295.0 136.6,295.9 136.7,294.6 136.9,295.7 137.1,296.0 137.3,295.0 137.4,294.3 137.6,294.7 137.8,295.1 138.0,294.0 138.2,292.5 138.3,293.2 138.5,293.9 138.7,294.1 138.9,289.3 139.0,289.5 139.2,290.7 139.4,290.0 139.6,291.2 139.8,290.7 139.9,287.9 140.1,288.4 140.3,287.5 140.5,286.4 140.7,287.8 140.8,289.1 141.0,290.1 141.2,289.8 141.4,290.5 141.5,290.3 141.7,289.2 141.9,290.1 142.1,288.9 142.3,289.1 142.4,288.3 142.6,287.0 142.8,286.5 143.0,287.2 143.1,291.2 143.3,291.0 143.5,291.8 143.7,293.1 143.9,294.3 144.0,294.2 144.2,295.1 144.4,295.4 144.6,295.2 144.7,295.7 144.9,295.4 145.1,295.2 145.3,294.3 145.5,294.4 145.6,294.1 145.8,294.3 146.0,295.0 146.2,295.5 146.3,296.3 146.5,296.6 146.7,296.1 146.9,295.6 147.1,294.8 147.2,294.7 147.4,303.2 147.6,297.1 147.8,296.8 147.9,296.9 148.1,297.1 148.3,296.8 148.5,295.9 148.7,295.1 148.8,293.8 149.0,293.3 149.2,292.9 149.4,293.6 149.6,292.9 149.7,292.0 149.9,290.9 150.1,290.1 150.3,290.3 150.4,289.9 150.6,289.1 150.8,291.0 151.0,290.5 151.2,288.4 151.3,287.9 151.5,287.3 151.7,286.4 151.9,286.9 152.0,287.2 152.2,286.9 152.4,287.7 152.6,287.9 152.8,287.7 152.9,288.1 153.1,287.0 153.3,287.4 153.5,287.7 153.6,288.5 153.8,288.5 154.0,288.5 154.2,286.6 154.4,285.2 154.5,285.1 154.7,286.0 154.9,286.3 155.1,286.0 155.2,286.3 155.4,286.4 155.6,286.2 155.8,287.0 156.0,287.4 156.1,283.7 156.3,283.2 156.5,283.2 156.7,283.8 156.8,283.9 157.0,284.6 157.2,283.1 157.4,286.3 157.6,286.9 157.7,288.5 157.9,289.3 158.1,288.5 158.3,288.1 158.5,287.9 158.6,289.5 158.8,289.5 159.0,289.0 159.2,288.4 159.3,288.4 159.5,289.9 159.7,290.1 159.9,288.7 160.1,288.1 160.2,288.2 160.4,288.5 160.6,287.7 160.8,287.5 160.9,289.3 161.1,290.0 161.3,289.3 161.5,292.1 161.7,292.3 161.8,288.7 162.0,289.5 162.2,292.3 162.4,293.1 162.5,293.5 162.7,294.3 162.9,295.7 163.1,294.0 163.3,291.3 163.4,291.1 163.6,292.0 163.8,292.6 164.0,290.2 164.1,291.8 164.3,293.0 164.5,294.9 164.7,295.2 164.9,295.2 165.0,293.4 165.2,293.8 165.4,292.3 165.6,293.5 165.7,292.8 165.9,292.7 166.1,293.2 166.3,292.5 166.5,290.0 166.6,289.7 166.8,287.7 167.0,289.6 167.2,287.7 167.3,288.5 167.5,290.3 167.7,289.9 167.9,290.6 168.1,290.7 168.2,291.9 168.4,291.5 168.6,290.8 168.8,291.1 169.0,290.5 169.1,290.7 169.3,290.4 169.5,289.0 169.7,287.2 169.8,285.3 170.0,288.2 170.2,289.7 170.4,289.5 170.6,290.1 170.7,291.5 170.9,292.6 171.1,293.8 171.3,294.9 171.4,293.0 171.6,296.0 171.8,295.9 172.0,297.6 172.2,297.8 172.3,296.1 172.5,294.7 172.7,292.0 172.9,293.6 173.0,293.1 173.2,292.4 173.4,290.9 173.6,293.1 173.8,293.2 173.9,292.0 174.1,292.4 174.3,293.0 174.5,293.6 174.6,292.4 174.8,291.4 175.0,293.0 175.2,294.6 175.4,294.1 175.5,294.5 175.7,294.5 175.9,294.4 176.1,294.9 176.2,295.2 176.4,294.3 176.6,293.2 176.8,296.0 177.0,295.4 177.1,294.7 177.3,293.1 177.5,291.9 177.7,289.2 177.9,290.7 178.0,291.0 178.2,291.2 178.4,292.3 178.6,291.5 178.7,295.6 178.9,295.7 179.1,294.4 179.3,293.3 179.5,293.5 179.6,292.6 179.8,293.3 180.0,293.2 180.2,293.8 180.3,293.4 180.5,294.6 180.7,294.5 180.9,294.6 181.1,295.6 181.2,296.0 181.4,295.0 181.6,293.9 181.8,295.0 181.9,295.4 182.1,295.3 182.3,294.5 182.5,295.9 182.7,295.8 182.8,296.0 183.0,294.9 183.2,293.4 183.4,293.8 183.5,290.5 183.7,290.9 183.9,290.4 184.1,290.7 184.3,292.0 184.4,291.0 184.6,290.3 184.8,290.6 185.0,291.3 185.1,290.0 185.3,288.7 185.5,288.6 185.7,289.3 185.9,289.7 186.0,289.5 186.2,289.7 186.4,288.4 186.6,287.8 186.8,287.7 186.9,286.7 187.1,287.6 187.3,287.8 187.5,287.6 187.6,287.3 187.8,286.8 188.0,286.0 188.2,286.0 188.4,287.9 188.5,287.7 188.7,287.0 188.9,286.8 189.1,286.8 189.2,287.0 189.4,287.5 189.6,287.1 189.8,287.9 190.0,287.8 190.1,288.4 190.3,287.6 190.5,285.9 190.7,286.6 190.8,287.0 191.0,287.1 191.2,287.8 191.4,287.9 191.6,288.0 191.7,288.7 191.9,288.3 192.1,287.6 192.3,287.3 192.4,287.0 192.6,286.9 192.8,286.1 193.0,285.2 193.2,284.1 193.3,284.2 193.5,283.1 193.7,283.1 193.9,283.6 194.0,283.6 194.2,282.8 194.4,283.4 194.6,283.0 194.8,281.9 194.9,281.6 195.1,281.8 195.3,282.7 195.5,283.2 195.6,282.6 195.8,282.8 196.0,284.1 196.2,281.8 196.4,282.5 196.5,286.1 196.7,285.1 196.9,287.0 197.1,287.0 197.3,286.2 197.4,286.5 197.6,286.7 197.8,285.7 198.0,284.5 198.1,283.4 198.3,282.9 198.5,282.6 198.7,282.0 198.9,282.0 199.0,282.1 199.2,284.3 199.4,286.0 199.6,286.2 199.7,286.2 199.9,285.3 200.1,285.2 200.3,284.5 200.5,283.6 200.6,283.2 200.8,282.9 201.0,283.2 201.2,277.4 201.3,277.0 201.5,280.0 201.7,279.2 201.9,279.8 202.1,279.3 202.2,280.6 202.4,279.3 202.6,277.7 202.8,277.6 202.9,278.0 203.1,275.9 203.3,276.1 203.5,274.8 203.7,274.1 203.8,272.2 204.0,271.5 204.2,272.0 204.4,270.8 204.5,271.4 204.7,268.6 204.9,269.3 205.1,269.8 205.3,269.2 205.4,268.9 205.6,265.5 205.8,268.2 206.0,268.0 206.2,259.5 206.3,255.5 206.5,250.2 206.7,252.3 206.9,251.6 207.0,248.3 207.2,248.6 207.4,249.3 207.6,250.3 207.8,250.5 207.9,248.1 208.1,246.3 208.3,241.3 208.5,243.3 208.6,243.2 208.8,246.0 209.0,248.1 209.2,247.2 209.4,247.0 209.5,246.2 209.7,244.3 209.9,245.1 210.1,247.3 210.2,246.0 210.4,245.8 210.6,245.0 210.8,244.3 211.0,243.8 211.1,243.3 211.3,244.9 211.5,245.3 211.7,244.5 211.8,244.2 212.0,242.9 212.2,241.6 212.4,242.3 212.6,238.9 212.7,238.7 212.9,239.5 213.1,237.9 213.3,237.4 213.4,236.8 213.6,237.2 213.8,236.2 214.0,234.8 214.2,235.7 214.3,241.7 214.5,237.9 214.7,238.3 214.9,238.1 215.1,237.2 215.2,237.1 215.4,237.4 215.6,236.7 215.8,235.0 215.9,233.4 216.1,234.3 216.3,233.5 216.5,233.2 216.7,232.5 216.8,230.6 217.0,231.3 217.2,233.6 217.4,228.3 217.5,228.4 217.7,229.9 217.9,230.4 218.1,232.1 218.3,232.0 218.4,231.4 218.6,230.6 218.8,229.3 219.0,229.8 219.1,227.4 219.3,226.2 219.5,225.6 219.7,225.0 219.9,225.1 220.0,225.2 220.2,224.5 220.4,224.5 220.6,224.1 220.7,224.3 220.9,225.0 221.1,226.5 221.3,225.1 221.5,225.8 221.6,225.5 221.8,225.3 222.0,225.1 222.2,225.2 222.3,225.2 222.5,222.5 222.7,221.3 222.9,221.8 223.1,221.5 223.2,220.9 223.4,220.2 223.6,219.7 223.8,219.2 223.9,219.3 224.1,221.8 224.3,223.5 224.5,221.8 224.7,221.4 224.8,223.2 225.0,224.6 225.2,223.6 225.4,222.3 225.6,222.1 225.7,221.2 225.9,221.3 226.1,221.4 226.3,221.3 226.4,223.7 226.6,223.9 226.8,225.6 227.0,223.6 227.2,224.4 227.3,226.0 227.5,225.6 227.7,226.9 227.9,226.7 228.0,226.1 228.2,223.1 228.4,222.7 228.6,228.9 228.8,232.0 228.9,232.5 229.1,230.6 229.3,232.5 229.5,232.3 229.6,232.6 229.8,233.2 230.0,237.4 230.2,236.0 230.4,237.6 230.5,237.3 230.7,237.5 230.9,237.7 231.1,237.8 231.2,235.8 231.4,235.6 231.6,236.6 231.8,230.6 232.0,232.2 232.1,231.8 232.3,232.7 232.5,231.5 232.7,231.3 232.8,232.0 233.0,229.9 233.2,229.8 233.4,229.7 233.6,228.6 233.7,229.7 233.9,231.7 234.1,231.0 234.3,230.9 234.5,228.8 234.6,227.8 234.8,228.9 235.0,228.6 235.2,229.1 235.3,229.2 235.5,229.3 235.7,230.0 235.9,229.4 236.1,228.9 236.2,229.9 236.4,230.3 236.6,232.1 236.8,226.4 236.9,225.7 237.1,224.1 237.3,224.3 237.5,222.8 237.7,222.4 237.8,221.7 238.0,223.2 238.2,224.4 238.4,222.4 238.5,223.1 238.7,221.4 238.9,221.7 239.1,222.7 239.3,222.3 239.4,223.3 239.6,222.4 239.8,220.6 240.0,218.6 240.1,218.6 240.3,218.8 240.5,218.0 240.7,218.3 240.9,217.2 241.0,219.2 241.2,216.0 241.4,216.1 241.6,214.6 241.7,209.5 241.9,208.7 242.1,208.8 242.3,210.0 242.5,209.1 242.6,208.4 242.8,208.7 243.0,208.7 243.2,209.8 243.4,210.9 243.5,211.7 243.7,210.5 243.9,211.1 244.1,212.3 244.2,211.8 244.4,210.7 244.6,211.4 244.8,211.6 245.0,212.6 245.1,214.1 245.3,214.1 245.5,215.4 245.7,216.5 245.8,215.6 246.0,216.3 246.2,214.7 246.4,212.4 246.6,213.2 246.7,215.6 246.9,216.5 247.1,215.0 247.3,214.7 247.4,217.1 247.6,217.2 247.8,218.3 248.0,219.1 248.2,218.1 248.3,218.3 248.5,217.1 248.7,214.4 248.9,216.4 249.0,216.4 249.2,217.9 249.4,218.2 249.6,216.6 249.8,216.4 249.9,216.4 250.1,215.8 250.3,214.8 250.5,216.5 250.6,217.6 250.8,222.4 251.0,221.6 251.2,221.0 251.4,219.9 251.5,219.8 251.7,220.2 251.9,219.6 252.1,218.7 252.2,218.8 252.4,218.0 252.6,217.0 252.8,216.5 253.0,215.7 253.1,216.0 253.3,216.0 253.5,216.4 253.7,217.0 253.9,217.0 254.0,217.1 254.2,216.6 254.4,216.3 254.6,216.9 254.7,217.5 254.9,217.0 255.1,217.2 255.3,216.7 255.5,213.4 255.6,212.1 255.8,212.9 256.0,212.8 256.2,212.5 256.3,211.2 256.5,212.0 256.7,211.3 256.9,211.5 257.1,210.9 257.2,210.7 257.4,210.8 257.6,212.5 257.8,212.6 257.9,213.7 258.1,214.3 258.3,213.6 258.5,214.3 258.7,214.5 258.8,213.0 259.0,214.2 259.2,214.7 259.4,215.0 259.5,214.2 259.7,214.1 259.9,214.2 260.1,213.7 260.3,213.5 260.4,213.5 260.6,213.3 260.8,213.3 261.0,212.6 261.1,213.6 261.3,211.9 261.5,211.0 261.7,211.0 261.9,209.3 262.0,208.8 262.2,209.4 262.4,207.7 262.6,207.6 262.8,207.6 262.9,207.4 263.1,207.3 263.3,207.6 263.5,208.1 263.6,208.3 263.8,208.5 264.0,208.1 264.2,207.2 264.4,207.4 264.5,207.1 264.7,207.0 264.9,206.2 265.1,204.1 265.2,204.5 265.4,203.9 265.6,205.1 265.8,204.4 266.0,204.9 266.1,204.6 266.3,204.7 266.5,204.8 266.7,208.6 266.8,207.5 267.0,207.4 267.2,207.0 267.4,207.7 267.6,209.1 267.7,209.1 267.9,208.8 268.1,209.6 268.3,209.7 268.4,209.9 268.6,210.3 268.8,210.7 269.0,208.9 269.2,208.3 269.3,207.5 269.5,207.7 269.7,207.7 269.9,208.1 270.0,211.3 270.2,213.4 270.4,212.9 270.6,212.5 270.8,213.1 270.9,212.9 271.1,212.3 271.3,211.5 271.5,212.2 271.6,211.5 271.8,211.5 272.0,213.9 272.2,210.3 272.4,211.1 272.5,211.0 272.7,210.5 272.9,210.3 273.1,210.9 273.3,212.3 273.4,210.6 273.6,210.7 273.8,210.4 274.0,209.0 274.1,209.3 274.3,208.9 274.5,207.8 274.7,208.5 274.9,208.0 275.0,209.5 275.2,209.4 275.4,210.3 275.6,209.7 275.7,209.5 275.9,209.4 276.1,210.0 276.3,212.1 276.5,212.2 276.6,212.5 276.8,212.7 277.0,213.5 277.2,215.2 277.3,214.7 277.5,216.0 277.7,216.2 277.9,216.6 278.1,217.1 278.2,218.3 278.4,216.8 278.6,214.5 278.8,214.3 278.9,213.7 279.1,214.0 279.3,213.8 279.5,212.8 279.7,213.2 279.8,213.8 280.0,213.7 280.2,214.3 280.4,216.0 280.5,215.8 280.7,215.8 280.9,215.9 281.1,216.6 281.3,217.5 281.4,217.1 281.6,219.4 281.8,219.5 282.0,219.3 282.2,219.5 282.3,218.6 282.5,217.6 282.7,217.7 282.9,216.6 283.0,216.8 283.2,218.0 283.4,216.9 283.6,217.2 283.8,215.8 283.9,214.5 284.1,214.4 284.3,214.0 284.5,214.6 284.6,214.6 284.8,214.8 285.0,215.5 285.2,217.4 285.4,217.2 285.5,217.1 285.7,217.0 285.9,215.7 286.1,214.7 286.2,216.5 286.4,217.1 286.6,217.2 286.8,216.5 287.0,217.3 287.1,218.4 287.3,218.0 287.5,217.4 287.7,217.8 287.8,219.1 288.0,219.7 288.2,219.9 288.4,219.2 288.6,219.7 288.7,220.2 288.9,218.8 289.1,219.0 289.3,217.8 289.4,218.8 289.6,218.3 289.8,218.0 290.0,217.6 290.2,219.0 290.3,219.8 290.5,221.0 290.7,219.8 290.9,220.2 291.1,220.4 291.2,219.7 291.4,217.3 291.6,217.3 291.8,216.4 291.9,216.0 292.1,215.8 292.3,216.0 292.5,216.5 292.7,216.4 292.8,216.6 293.0,216.6 293.2,216.9 293.4,216.1 293.5,214.3 293.7,214.4 293.9,214.5 294.1,212.2 294.3,212.3 294.4,212.0 294.6,213.1 294.8,213.1 295.0,212.3 295.1,211.9 295.3,212.4 295.5,211.3 295.7,211.3 295.9,210.8 296.0,210.0 296.2,210.2 296.4,210.1 296.6,209.3 296.7,209.3 296.9,209.6 297.1,210.1 297.3,209.8 297.5,209.5 297.6,209.6 297.8,209.6 298.0,208.9 298.2,209.0 298.3,209.2 298.5,209.4 298.7,209.3 298.9,209.8 299.1,209.3 299.2,208.2 299.4,208.2 299.6,209.0 299.8,208.9 299.9,209.0 300.1,209.1 300.3,208.7 300.5,207.6 300.7,207.3 300.8,207.2 301.0,207.6 301.2,206.5 301.4,206.8 301.6,206.3 301.7,206.6 301.9,207.3 302.1,206.4 302.3,206.3 302.4,204.7 302.6,204.7 302.8,206.4 303.0,208.4 303.2,207.9 303.3,207.7 303.5,207.3 303.7,206.8 303.9,207.1 304.0,206.6 304.2,205.5 304.4,204.4 304.6,206.6 304.8,206.4 304.9,206.5 305.1,206.8 305.3,208.7 305.5,206.9 305.6,207.0 305.8,206.6 306.0,206.7 306.2,207.6 306.4,206.7 306.5,206.1 306.7,209.8 306.9,210.3 307.1,210.6 307.2,211.2 307.4,211.1 307.6,210.3 307.8,210.2 308.0,208.4 308.1,207.5 308.3,208.3 308.5,210.4 308.7,212.3 308.8,214.4 309.0,214.2 309.2,213.3 309.4,210.3 309.6,209.4 309.7,209.3 309.9,211.0 310.1,209.5 310.3,209.9 310.5,210.4 310.6,209.4 310.8,209.3 311.0,209.4 311.2,209.1 311.3,208.7 311.5,208.6 311.7,207.3 311.9,207.3 312.1,207.5 312.2,207.0 312.4,207.5 312.6,207.5 312.8,207.1 312.9,208.1 313.1,209.4 313.3,209.7 313.5,209.4 313.7,210.8 313.8,209.5 314.0,209.8 314.2,210.5 314.4,212.1 314.5,213.0 314.7,214.0 314.9,215.0 315.1,214.3 315.3,214.7 315.4,213.9 315.6,212.9 315.8,212.8 316.0,215.4 316.1,216.0 316.3,215.7 316.5,216.2 316.7,215.0 316.9,215.9 317.0,215.4 317.2,215.7 317.4,216.6 317.6,215.3 317.7,216.3 317.9,212.1 318.1,212.1 318.3,212.0 318.5,213.2 318.6,214.8 318.8,214.3 319.0,215.5 319.2,216.5 319.4,215.2 319.5,215.3 319.7,214.0 319.9,213.9 320.1,214.2 320.2,214.6 320.4,214.5 320.6,212.5 320.8,212.2 321.0,212.4 321.1,211.2 321.3,212.1 321.5,212.0 321.7,212.4 321.8,212.2 322.0,213.0 322.2,213.4 322.4,212.9 322.6,214.7 322.7,214.4 322.9,214.0 323.1,211.7 323.3,211.9 323.4,212.3 323.6,212.0 323.8,212.4 324.0,212.5 324.2,212.3 324.3,212.6 324.5,211.2 324.7,211.1 324.9,210.8 325.0,213.6 325.2,213.6 325.4,214.3 325.6,215.0 325.8,215.8 325.9,216.4 326.1,216.0 326.3,217.9 326.5,216.7 326.6,216.9 326.8,217.0 327.0,218.2 327.2,217.9 327.4,217.4 327.5,218.6 327.7,219.2 327.9,220.3 328.1,220.0 328.2,219.7 328.4,218.5 328.6,221.4 328.8,223.5 329.0,223.1 329.1,226.0 329.3,229.7 329.5,229.7 329.7,230.9 329.9,229.1 330.0,228.9 330.2,227.9 330.4,224.6 330.6,225.0 330.7,225.1 330.9,222.5 331.1,222.7 331.3,222.3 331.5,220.5 331.6,219.9 331.8,219.5 332.0,220.7 332.2,220.3 332.3,218.8 332.5,217.7 332.7,216.9 332.9,217.4 333.1,216.2 333.2,216.9 333.4,216.5 333.6,215.0 333.8,214.5 333.9,213.8 334.1,213.0 334.3,212.0 334.5,211.0 334.7,211.7 334.8,213.7 335.0,212.8 335.2,212.4 335.4,212.4 335.5,213.0 335.7,212.5 335.9,211.2 336.1,209.6 336.3,208.3 336.4,206.8 336.6,208.0 336.8,209.1 337.0,209.2 337.1,209.5 337.3,208.4 337.5,208.9 337.7,208.5 337.9,208.5 338.0,209.6 338.2,209.2 338.4,209.4 338.6,208.6 338.8,208.9 338.9,208.6 339.1,208.9 339.3,209.5 339.5,210.6 339.6,210.5 339.8,212.0 340.0,213.7 340.2,215.7 340.4,215.1 340.5,216.2 340.7,216.2 340.9,216.2 341.1,216.5 341.2,216.4 341.4,216.3 341.6,217.0 341.8,215.8 342.0,215.0 342.1,214.1 342.3,214.9 342.5,214.5 342.7,214.2 342.8,213.3 343.0,213.6 343.2,213.6 343.4,214.2 343.6,214.4 343.7,214.4 343.9,214.0 344.1,212.0 344.3,211.5 344.4,212.5 344.6,214.4 344.8,214.6 345.0,215.1 345.2,214.6 345.3,214.5 345.5,215.0 345.7,214.2 345.9,214.2 346.0,218.6 346.2,218.6 346.4,219.3 346.6,218.2 346.8,217.6 346.9,216.0 347.1,215.6 347.3,214.8 347.5,215.3 347.7,215.2 347.8,214.9 348.0,214.7 348.2,213.3 348.4,213.3 348.5,213.7 348.7,213.9 348.9,214.1 349.1,213.1 349.3,213.2 349.4,212.7 349.6,214.1 349.8,213.8 350.0,212.4 350.1,212.5 350.3,212.7 350.5,212.3 350.7,211.6 350.9,212.4 351.0,212.9 351.2,213.2 351.4,212.3 351.6,212.4 351.7,213.1 351.9,212.6 352.1,213.2 352.3,213.3 352.5,213.2 352.6,213.2 352.8,213.5 353.0,213.6 353.2,213.5 353.3,213.3 353.5,213.7 353.7,213.3 353.9,213.7 354.1,214.0 354.2,214.2 354.4,215.0 354.6,215.7 354.8,215.6 354.9,217.8 355.1,218.3 355.3,217.4 355.5,217.6 355.7,218.4 355.8,219.0 356.0,218.2 356.2,218.7 356.4,218.6 356.5,217.8 356.7,216.9 356.9,216.7 357.1,217.0 357.3,216.9 357.4,216.7 357.6,216.5 357.8,216.2 358.0,216.8 358.2,216.7 358.3,217.8 358.5,217.1 358.7,215.3 358.9,215.7 359.0,216.3 359.2,217.7 359.4,218.6 359.6,217.7 359.8,217.9 359.9,217.6 360.1,217.9 360.3,218.6 360.5,219.1 360.6,218.1 360.8,217.2 361.0,218.1 361.2,217.9 361.4,217.4 361.5,217.5 361.7,217.5 361.9,217.1 362.1,217.9 362.2,218.4 362.4,219.8 362.6,220.3 362.8,220.5 363.0,219.8 363.1,219.3 363.3,218.9 363.5,219.9 363.7,220.9 363.8,220.2 364.0,221.7 364.2,221.2 364.4,221.2 364.6,220.2 364.7,221.0 364.9,221.1 365.1,219.7 365.3,219.3 365.4,218.6 365.6,218.7 365.8,220.0 366.0,220.0 366.2,221.6 366.3,221.7 366.5,220.6 366.7,220.8 366.9,219.3 367.1,219.5 367.2,219.5 367.4,219.4 367.6,218.3 367.8,218.2 367.9,218.4 368.1,217.4 368.3,217.4 368.5,216.2 368.7,216.4 368.8,216.3 369.0,215.4 369.2,214.3 369.4,214.2 369.5,215.1 369.7,215.3 369.9,214.7 370.1,212.9 370.3,213.0 370.4,212.6 370.6,212.2 370.8,212.4 371.0,212.5 371.1,212.5 371.3,211.1 371.5,211.5 371.7,211.0 371.9,210.1 372.0,210.0 372.2,209.3 372.4,208.4 372.6,208.5 372.7,208.8 372.9,208.7 373.1,209.1 373.3,208.9 373.5,209.3 373.6,208.9 373.8,208.9 374.0,208.0 374.2,208.0 374.3,207.3 374.5,206.2 374.7,206.2 374.9,204.6 375.1,204.6 375.2,204.7 375.4,206.3 375.6,205.8 375.8,205.1 376.0,205.6 376.1,208.2 376.3,208.1 376.5,209.7 376.7,209.2 376.8,209.2 377.0,209.1 377.2,208.9 377.4,209.0 377.6,209.4 377.7,209.6 377.9,210.0 378.1,210.2 378.3,209.8 378.4,207.9 378.6,208.3 378.8,207.3 379.0,207.4 379.2,207.3 379.3,209.0 379.5,208.4 379.7,208.4 379.9,207.1 380.0,206.1 380.2,205.1 380.4,205.1 380.6,205.0 380.8,204.9 380.9,202.2 381.1,201.5 381.3,202.7 381.5,202.2 381.6,201.7 381.8,200.4 382.0,200.9 382.2,202.4 382.4,201.5 382.5,201.8 382.7,202.0 382.9,201.3 383.1,201.7 383.2,201.3 383.4,201.0 383.6,200.2 383.8,200.7 384.0,200.9 384.1,200.2 384.3,199.1 384.5,199.6 384.7,200.6 384.8,202.6 385.0,200.9 385.2,201.1 385.4,199.3 385.6,198.8 385.7,199.1 385.9,198.9 386.1,200.0 386.3,199.8 386.5,201.2 386.6,200.3 386.8,200.6 387.0,200.7 387.2,201.5 387.3,200.7 387.5,199.9 387.7,198.8 387.9,197.7 388.1,197.0 388.2,197.0 388.4,197.1 388.6,196.2 388.8,195.6 388.9,194.9 389.1,193.8 389.3,195.1 389.5,194.9 389.7,193.1 389.8,192.7 390.0,193.2 390.2,193.6 390.4,193.8 390.5,193.5 390.7,193.1 390.9,192.5 391.1,192.4 391.3,193.0 391.4,194.6 391.6,193.6 391.8,194.8 392.0,194.7 392.1,195.7 392.3,198.6 392.5,200.9 392.7,200.3 392.9,200.0 393.0,198.6 393.2,198.3 393.4,199.0 393.6,198.5 393.7,199.5 393.9,198.5 394.1,198.8 394.3,198.3 394.5,198.4 394.6,196.8 394.8,197.1 395.0,196.6 395.2,197.7 395.4,197.7 395.5,199.0 395.7,199.5 395.9,198.7 396.1,196.3 396.2,195.2 396.4,195.4 396.6,194.3 396.8,194.5 397.0,195.3 397.1,195.1 397.3,194.4 397.5,194.6 397.7,194.5 397.8,195.7 398.0,196.2 398.2,197.3 398.4,196.9 398.6,195.6 398.7,195.6 398.9,196.2 399.1,196.4 399.3,196.2 399.4,195.6 399.6,195.3 399.8,195.3 400.0,196.0 400.2,196.6 400.3,195.9 400.5,196.7 400.7,194.4 400.9,194.5 401.0,194.2 401.2,193.0 401.4,192.7 401.6,192.2 401.8,193.2 401.9,193.4 402.1,194.1 402.3,195.8 402.5,196.5 402.6,196.5 402.8,197.0 403.0,197.1 403.2,197.0 403.4,196.9 403.5,196.2 403.7,195.4 403.9,195.4 404.1,195.2 404.3,196.7 404.4,195.3 404.6,195.4 404.8,195.3 405.0,195.3 405.1,195.9 405.3,195.3 405.5,194.9 405.7,195.7 405.9,196.5 406.0,197.4 406.2,197.4 406.4,198.8 406.6,198.7 406.7,199.4 406.9,199.5 407.1,198.1 407.3,199.3 407.5,202.1 407.6,201.2 407.8,201.6 408.0,201.2 408.2,201.4 408.3,201.6 408.5,201.6 408.7,200.0 408.9,200.9 409.1,200.5 409.2,200.4 409.4,200.1 409.6,200.9 409.8,199.7 409.9,200.4 410.1,200.0 410.3,199.9 410.5,199.8 410.7,201.0 410.8,200.9 411.0,201.2 411.2,201.3 411.4,201.5 411.5,200.3 411.7,200.6 411.9,200.1 412.1,198.4 412.3,197.0 412.4,197.2 412.6,197.3 412.8,196.7 413.0,197.2 413.1,198.1 413.3,198.4 413.5,198.1 413.7,198.8 413.9,199.8 414.0,200.5 414.2,200.0 414.4,200.5 414.6,199.4 414.8,199.8 414.9,200.1 415.1,199.9 415.3,197.5 415.5,197.8 415.6,197.7 415.8,197.3 416.0,197.5 416.2,197.1 416.4,196.3 416.5,196.6 416.7,195.9 416.9,195.8 417.1,195.6 417.2,196.4 417.4,197.4 417.6,196.8 417.8,196.0 418.0,196.4 418.1,195.5 418.3,196.0 418.5,196.7 418.7,197.9 418.8,197.8 419.0,196.5 419.2,200.1 419.4,200.7 419.6,200.0 419.7,199.0 419.9,199.2 420.1,197.8 420.3,197.6 420.4,197.7 420.6,197.9 420.8,196.4 421.0,195.7 421.2,195.1 421.3,195.8 421.5,196.7 421.7,198.1 421.9,197.7 422.0,197.9 422.2,198.5 422.4,198.0 422.6,198.4 422.8,198.6 422.9,196.5 423.1,196.9 423.3,198.7 423.5,198.8 423.7,199.3 423.8,200.3 424.0,200.6 424.2,199.9 424.4,200.8 424.5,201.8 424.7,201.5 424.9,204.8 425.1,208.0 425.3,206.7 425.4,208.8 425.6,206.5 425.8,203.7 426.0,201.3 426.1,202.1 426.3,203.4 426.5,201.4 426.7,201.9 426.9,202.8 427.0,202.0 427.2,203.2 427.4,203.6 427.6,202.9 427.7,202.0 427.9,203.3 428.1,204.2 428.3,204.2 428.5,204.6 428.6,203.9 428.8,202.8 429.0,202.8 429.2,202.0 429.3,201.8 429.5,204.1 429.7,202.8 429.9,201.6 430.1,201.7 430.2,201.1 430.4,201.3 430.6,201.9 430.8,203.1 430.9,204.1 431.1,203.8 431.3,204.1 431.5,205.2 431.7,204.1 431.8,205.4 432.0,204.8 432.2,205.0 432.4,204.9 432.6,204.2 432.7,203.1 432.9,204.0 433.1,203.1 433.3,202.4 433.4,203.2 433.6,199.5 433.8,199.9 434.0,199.8 434.2,198.0 434.3,196.8 434.5,196.5 434.7,195.1 434.9,195.0 435.0,193.7 435.2,195.7 435.4,194.6 435.6,196.2 435.8,197.8 435.9,197.9 436.1,196.9 436.3,196.6 436.5,196.0 436.6,196.7 436.8,197.7 437.0,200.6 437.2,200.8 437.4,200.8 437.5,199.6 437.7,199.2 437.9,199.6 438.1,199.9 438.2,199.6 438.4,200.7 438.6,199.1 438.8,199.0 439.0,199.4 439.1,200.3 439.3,201.6 439.5,202.3 439.7,200.9 439.8,201.1 440.0,202.4 440.2,203.3 440.4,202.2 440.6,201.9 440.7,196.0 440.9,196.2 441.1,196.9 441.3,192.8 441.4,193.7 441.6,195.7 441.8,195.3 442.0,195.2 442.2,196.2 442.3,197.2 442.5,197.6 442.7,201.3 442.9,200.9 443.1,199.2 443.2,199.3 443.4,199.5 443.6,199.1 443.8,199.6 443.9,200.5 444.1,201.3 444.3,201.6 444.5,201.8 444.7,203.5 444.8,204.6 445.0,204.6 445.2,207.1 445.4,203.9 445.5,204.8 445.7,203.3 445.9,203.4 446.1,202.6 446.3,202.7 446.4,204.0 446.6,202.1 446.8,202.2 447.0,202.1 447.1,202.0 447.3,201.9 447.5,200.8 447.7,201.0 447.9,206.9 448.0,200.6 448.2,201.9 448.4,202.7 448.6,204.4 448.7,207.3 448.9,209.1 449.1,207.2 449.3,208.1 449.5,208.8 449.6,207.8 449.8,207.7 450.0,205.2 450.2,205.9 450.3,207.0 450.5,207.6 450.7,207.5 450.9,202.8 451.1,203.5 451.2,200.1 451.4,198.1 451.6,197.7 451.8,198.3 452.0,197.4 452.1,196.6 452.3,196.4 452.5,196.9 452.7,197.0 452.8,196.2 453.0,195.8 453.2,195.9 453.4,198.1 453.6,197.2 453.7,196.6 453.9,196.1 454.1,195.5 454.3,195.6 454.4,196.2 454.6,197.3 454.8,198.8 455.0,196.4 455.2,196.6 455.3,196.2 455.5,197.0 455.7,195.9 455.9,195.0 456.0,194.9 456.2,194.5 456.4,195.1 456.6,194.3 456.8,194.1 456.9,194.1 457.1,193.1 457.3,194.2 457.5,196.1 457.6,197.4 457.8,197.9 458.0,200.0 458.2,199.5 458.4,202.6 458.5,198.7 458.7,199.9 458.9,197.8 459.1,197.9 459.2,200.7 459.4,202.0 459.6,199.7 459.8,197.7 460.0,197.6 460.1,197.3 460.3,196.5 460.5,196.3 460.7,197.7 460.9,196.6 461.0,196.4 461.2,196.3 461.4,201.7 461.6,202.1 461.7,203.7 461.9,203.1 462.1,202.4 462.3,202.5 462.5,202.3 462.6,200.9 462.8,201.1 463.0,200.4 463.2,200.3 463.3,199.3 463.5,199.8 463.7,201.0 463.9,201.2 464.1,200.4 464.2,200.5 464.4,200.9 464.6,201.5 464.8,201.0 464.9,201.3 465.1,201.7 465.3,203.2 465.5,202.7 465.7,202.2 465.8,202.3 466.0,200.1 466.2,199.5 466.4,202.7 466.5,204.0 466.7,205.2 466.9,205.2 467.1,205.2 467.3,204.1 467.4,203.2 467.6,204.2 467.8,203.5 468.0,203.3 468.1,205.4 468.3,206.2 468.5,206.5 468.7,205.6 468.9,205.6 469.0,206.9 469.2,207.6 469.4,206.5 469.6,205.4 469.7,204.9 469.9,204.7 470.1,203.4 470.3,203.9 470.5,203.1 470.6,206.5 470.8,205.4 471.0,205.7 471.2,205.8 471.4,205.3 471.5,206.4 471.7,206.5 471.9,206.7 472.1,205.6 472.2,206.0 472.4,205.7 472.6,207.2 472.8,207.0 473.0,207.8 473.1,209.5 473.3,211.6 473.5,210.5 473.7,211.0 473.8,211.7 474.0,210.1 474.2,208.4 474.4,208.3 474.6,209.6 474.7,210.0 474.9,210.4 475.1,210.8 475.3,212.9 475.4,212.0 475.6,212.1 475.8,212.7 476.0,215.8 476.2,216.9 476.3,216.9 476.5,219.4 476.7,218.8 476.9,219.8 477.0,220.2 477.2,220.0 477.4,220.3 477.6,220.9 477.8,222.3 477.9,219.2 478.1,218.6 478.3,216.8 478.5,217.0 478.6,215.5 478.8,214.7 479.0,216.1 479.2,215.3 479.4,215.1 479.5,213.3 479.7,213.3 479.9,213.0 480.1,214.2 480.3,213.8 480.4,213.5 480.6,214.2 480.8,214.3 481.0,213.7 481.1,213.6 481.3,212.9 481.5,213.4 481.7,211.6 481.9,211.9 482.0,212.4 482.2,212.4 482.4,210.9 482.6,211.0 482.7,209.9 482.9,208.6 483.1,208.8 483.3,208.4 483.5,208.6 483.6,207.9 483.8,208.3 484.0,207.6 484.2,206.9 484.3,212.6 484.5,212.8 484.7,211.5 484.9,210.4 485.1,210.5 485.2,211.8 485.4,211.7 485.6,212.7 485.8,212.3 485.9,211.8 486.1,211.0 486.3,211.6 486.5,212.6 486.7,211.6 486.8,214.2 487.0,215.0 487.2,214.2 487.4,213.0 487.5,213.1 487.7,214.0 487.9,213.8 488.1,215.7 488.3,215.1 488.4,215.2 488.6,215.0 488.8,213.9 489.0,213.2 489.2,213.3 489.3,214.0 489.5,212.5 489.7,212.9 489.9,212.1 490.0,211.5 490.2,209.6 490.4,209.8 490.6,209.9 490.8,210.3 490.9,210.0 491.1,210.2 491.3,209.7 491.5,210.7 491.6,210.6 491.8,213.6 492.0,212.6 492.2,210.3 492.4,210.4 492.5,210.6 492.7,210.0 492.9,210.2 493.1,211.9 493.2,212.2 493.4,211.1 493.6,210.7 493.8,210.0 494.0,210.0 494.1,209.5 494.3,208.1 494.5,207.9 494.7,207.7 494.8,207.3 495.0,208.1 495.2,208.6 495.4,208.3 495.6,208.4 495.7,202.0 495.9,198.5 496.1,198.5 496.3,199.9 496.4,200.1 496.6,200.1 496.8,200.3 497.0,199.8 497.2,199.8 497.3,198.7 497.5,197.6 497.7,197.4 497.9,196.5 498.0,196.0 498.2,196.4 498.4,196.0 498.6,195.7 498.8,195.9 498.9,194.9 499.1,195.7 499.3,195.4 499.5,197.9 499.7,197.5 499.8,198.4 500.0,198.1 500.2,198.3 500.4,197.7 500.5,197.5 500.7,197.9 500.9,198.2 501.1,197.6 501.3,197.1 501.4,196.1 501.6,195.6 501.8,194.9 502.0,195.0 502.1,192.6 502.3,192.8 502.5,191.4 502.7,190.3 502.9,190.2 503.0,188.9 503.2,188.3 503.4,187.8 503.6,187.8 503.7,189.3 503.9,188.9 504.1,187.8 504.3,186.7 504.5,185.9 504.6,184.5 504.8,182.6 505.0,183.4 505.2,183.7 505.3,180.0 505.5,179.1 505.7,180.5 505.9,180.9 506.1,181.1 506.2,178.4 506.4,176.8 506.6,176.7 506.8,177.2 506.9,177.6 507.1,177.0 507.3,176.1 507.5,172.2 507.7,171.6 507.8,164.5 508.0,159.4 508.2,166.8 508.4,166.1 508.6,166.1 508.7,164.9 508.9,164.8 509.1,165.1 509.3,163.3 509.4,163.5 509.6,160.7 509.8,158.1 510.0,158.9 510.2,158.8 510.3,161.9 510.5,163.5 510.7,164.6 510.9,169.9 511.0,170.6 511.2,166.4 511.4,166.3 511.6,166.1 511.8,167.4 511.9,168.5 512.1,174.3 512.3,171.9 512.5,172.6 512.6,177.5 512.8,178.4 513.0,186.5 513.2,187.8 513.4,194.7 513.5,188.1 513.7,188.1 513.9,187.5 514.1,181.6 514.2,179.0 514.4,179.8 514.6,180.8 514.8,181.8 515.0,180.1 515.1,183.4 515.3,185.7 515.5,183.5 515.7,180.7 515.8,178.5 516.0,178.3 516.2,176.6 516.4,171.6 516.6,168.2 516.7,167.1 516.9,166.3 517.1,165.8 517.3,166.2 517.5,169.5 517.6,167.0 517.8,168.4 518.0,167.4 518.2,163.6 518.3,165.0 518.5,163.5 518.7,164.4 518.9,168.7 519.1,165.5 519.2,165.1 519.4,164.4 519.6,164.5 519.8,162.6 519.9,163.0 520.1,163.0 520.3,163.9 520.5,163.3 520.7,163.5 520.8,162.8 521.0,163.1 521.2,162.7 521.4,162.2 521.5,162.7 521.7,162.6 521.9,162.5 522.1,163.2 522.3,161.8 522.4,159.0 522.6,159.7 522.8,159.6 523.0,160.5 523.1,159.5 523.3,156.8 523.5,157.1 523.7,153.8 523.9,155.8 524.0,157.4 524.2,155.1 524.4,155.5 524.6,155.1 524.7,154.6 524.9,154.7 525.1,155.0 525.3,154.7 525.5,156.3 525.6,155.3 525.8,156.4 526.0,154.4 526.2,151.7 526.3,150.3 526.5,147.3 526.7,142.3 526.9,141.8 527.1,142.5 527.2,141.7 527.4,137.7 527.6,138.9 527.8,138.4 528.0,137.6 528.1,138.8 528.3,138.8 528.5,135.3 528.7,137.1 528.8,136.5 529.0,138.5 529.2,141.1 529.4,137.8 529.6,139.4 529.7,138.9 529.9,139.2 530.1,140.7 530.3,139.2 530.4,139.2 530.6,139.2 530.8,139.1 531.0,140.1 531.2,141.0 531.3,142.3 531.5,137.4 531.7,135.8 531.9,135.1 532.0,130.9 532.2,129.8 532.4,130.0 532.6,127.5 532.8,126.6 532.9,127.3 533.1,127.1 533.3,124.6 533.5,123.1 533.6,123.6 533.8,118.9 534.0,120.8 534.2,123.1 534.4,126.9 534.5,125.8 534.7,135.1 534.9,131.0 535.1,130.5 535.2,130.3 535.4,125.7 535.6,122.9 535.8,123.6 536.0,125.3 536.1,123.6 536.3,123.0 536.5,125.2 536.7,129.5 536.9,128.8 537.0,126.8 537.2,125.5 537.4,125.7 537.6,124.8 537.7,123.1 537.9,126.1 538.1,125.1 538.3,126.2 538.5,125.1 538.6,125.1 538.8,124.3 539.0,123.6 539.2,123.2 539.3,121.9 539.5,123.0 539.7,123.8 539.9,124.6 540.1,125.4 540.2,125.4 540.4,125.1 540.6,125.6 540.8,125.6 540.9,125.2 541.1,127.0 541.3,126.5 541.5,128.7 541.7,127.5 541.8,125.3 542.0,125.5 542.2,124.0 542.4,124.7 542.5,125.5 542.7,126.5 542.9,125.9 543.1,126.4 543.3,126.7 543.4,126.8 543.6,123.7 543.8,119.8 544.0,118.8 544.1,119.6 544.3,117.1 544.5,114.7 544.7,113.4 544.9,112.6 545.0,113.8 545.2,112.6 545.4,113.7 545.6,112.1 545.8,111.7 545.9,109.0 546.1,108.5 546.3,111.3 546.5,109.9 546.6,111.0 546.8,109.1 547.0,109.5 547.2,110.2 547.4,108.1 547.5,105.9 547.7,108.5 547.9,109.1 548.1,108.7 548.2,107.8 548.4,107.7 548.6,107.5 548.8,105.9 549.0,105.3 549.1,103.9 549.3,103.7 549.5,102.6 549.7,99.6 549.8,96.6 550.0,99.8 550.2,98.0 550.4,97.8 550.6,98.2 550.7,99.1 550.9,98.2 551.1,97.9 551.3,98.2 551.4,98.1 551.6,96.6 551.8,96.5 552.0,97.3 552.2,98.6 552.3,100.7 552.5,98.4 552.7,96.9 552.9,97.7 553.0,98.0 553.2,97.9 553.4,97.3 553.6,98.0 553.8,100.1 553.9,99.8 554.1,99.6 554.3,100.5 554.5,100.4 554.6,101.0 554.8,101.3 555.0,104.8 555.2,105.6 555.4,103.3 555.5,106.6 555.7,107.0 555.9,104.6 556.1,106.3 556.3,108.3 556.4,110.2 556.6,111.8 556.8,114.1 557.0,107.1 557.1,107.4 557.3,105.6 557.5,105.9 557.7,105.1 557.9,106.9 558.0,105.5 558.2,108.3 558.4,108.2 558.6,107.3 558.7,107.8 558.9,109.7 559.1,109.1 559.3,110.4 559.5,110.9 559.6,109.4 559.8,107.4 560.0,107.8 560.2,106.1 560.3,106.0 560.5,107.2 560.7,106.5 560.9,106.9 561.1,105.5 561.2,102.2 561.4,103.8 561.6,103.5 561.8,103.4 561.9,104.8 562.1,104.5 562.3,103.2 562.5,104.5 562.7,104.0 562.8,103.5 563.0,105.3 563.2,105.9 563.4,106.9 563.5,105.0 563.7,106.4 563.9,107.1 564.1,107.2 564.3,107.7 564.4,107.2 564.6,109.8 564.8,110.5 565.0,112.3 565.2,113.5 565.3,112.3 565.5,113.2 565.7,113.1 565.9,114.1 566.0,112.5 566.2,112.9 566.4,111.2 566.6,111.3 566.8,110.4 566.9,109.7 567.1,110.0 567.3,110.1 567.5,111.3 567.6,113.4 567.8,111.7 568.0,111.3 568.2,111.4 568.4,111.7 568.5,111.0 568.7,111.0 568.9,110.5 569.1,111.7 569.2,111.3 569.4,110.6 569.6,110.1 569.8,110.3 570.0,110.1 570.1,108.1 570.3,106.7 570.5,107.2 570.7,106.2 570.8,106.7 571.0,106.7 571.2,106.8 571.4,106.8 571.6,107.9 571.7,108.8 571.9,108.3 572.1,108.1 572.3,106.4 572.4,107.4 572.6,108.3 572.8,108.4 573.0,108.8 573.2,108.7 573.3,107.9 573.5,108.2 573.7,108.5 573.9,108.9 574.1,108.0 574.2,108.8 574.4,108.7 574.6,106.9 574.8,106.3 574.9,105.0 575.1,105.0 575.3,105.0 575.5,104.8 575.7,105.6 575.8,104.8 576.0,105.0 576.2,105.1 576.4,104.3 576.5,104.6 576.7,106.4 576.9,107.5 577.1,106.2 577.3,107.1 577.4,106.7 577.6,105.2 577.8,105.1 578.0,105.0 578.1,105.5 578.3,104.9 578.5,103.9 578.7,103.6 578.9,103.7 579.0,103.8 579.2,103.7 579.4,102.7 579.6,102.7 579.7,102.6 579.9,103.6 580.1,103.2 580.3,103.2 580.5,102.6 580.6,102.5 580.8,102.4 581.0,103.9 581.2,103.4 581.3,102.8 581.5,102.7 581.7,101.6 581.9,100.8 582.1,101.5 582.2,101.3 582.4,101.6 582.6,101.6 582.8,101.3 582.9,101.3 583.1,101.2 583.3,100.6 583.5,101.1 583.7,100.7 583.8,100.1 584.0,99.8 584.2,99.4 584.4,98.3 584.6,97.0 584.7,97.3 584.9,97.2 585.1,96.0 585.3,95.3 585.4,90.6 585.6,90.9 585.8,90.1 586.0,88.7 586.2,87.3 586.3,84.1 586.5,85.3 586.7,84.0 586.9,83.5 587.0,83.7 587.2,85.7 587.4,90.7 587.6,89.0 587.8,89.2 587.9,90.3 588.1,91.1 588.3,89.5 588.5,88.2 588.6,88.0 588.8,86.5 589.0,85.9 589.2,87.5 589.4,87.3 589.5,88.5 589.7,86.5 589.9,86.3 590.1,88.0 590.2,88.4 590.4,91.0 590.6,91.2 590.8,89.6 591.0,89.0 591.1,91.4 591.3,90.9 591.5,92.9 591.7,93.2 591.8,92.5 592.0,94.6 592.2,94.3 592.4,95.7 592.6,94.1 592.7,91.2 592.9,89.0 593.1,88.1 593.3,88.2 593.5,88.3 593.6,88.9 593.8,89.4 594.0,84.4 594.2,86.1 594.3,88.3 594.5,89.1 594.7,90.5 594.9,89.4 595.1,89.1 595.2,87.6 595.4,90.4 595.6,89.7 595.8,90.4 595.9,91.7 596.1,91.7 596.3,93.8 596.5,94.4 596.7,94.9 596.8,94.1 597.0,98.9 597.2,98.1 597.4,94.1 597.5,94.4 597.7,95.5 597.9,96.1 598.1,94.7 598.3,95.4 598.4,94.8 598.6,94.3 598.8,95.5 599.0,97.5 599.1,96.8 599.3,94.7 599.5,94.7 599.7,96.8 599.9,97.6 600.0,99.3 600.2,102.1 600.4,100.3 600.6,99.9 600.7,97.0 600.9,97.3 601.1,96.6 601.3,98.5 601.5,98.5 601.6,100.1 601.8,99.2 602.0,97.5 602.2,98.5 602.4,100.6 602.5,102.0 602.7,100.2 602.9,98.4 603.1,97.0 603.2,95.5 603.4,94.8 603.6,91.8 603.8,91.6 604.0,91.0 604.1,91.2 604.3,88.1 604.5,87.9 604.7,88.0 604.8,88.6 605.0,88.4 605.2,86.2 605.4,88.1 605.6,89.8 605.7,89.4 605.9,90.6 606.1,92.5 606.3,92.1 606.4,90.7 606.6,92.2 606.8,91.4 607.0,90.5 607.2,92.5 607.3,91.2 607.5,91.4 607.7,91.7 607.9,96.8 608.0,96.5 608.2,96.7 608.4,97.0 608.6,95.6 608.8,95.3 608.9,93.5 609.1,96.9 609.3,97.2 609.5,101.0 609.6,100.3 609.8,103.7 610.0,104.0 610.2,101.9 610.4,104.2 610.5,102.3 610.7,105.0 610.9,105.0 611.1,107.7 611.2,107.0 611.4,109.8 611.6,108.0 611.8,105.1 612.0,102.4 612.1,102.4 612.3,103.4 612.5,101.6 612.7,105.4 612.9,104.8 613.0,104.7 613.2,104.2 613.4,104.5 613.6,105.8 613.7,108.7 613.9,107.7 614.1,105.6 614.3,109.1 614.5,108.5 614.6,105.0 614.8,105.1 615.0,105.3 615.2,103.5 615.3,103.7 615.5,105.7 615.7,106.4 615.9,107.1 616.1,106.6 616.2,105.6 616.4,105.8 616.6,103.7 616.8,102.7 616.9,105.4 617.1,105.6 617.3,105.0 617.5,104.7 617.7,104.5 617.8,104.4 618.0,103.6 618.2,103.3 618.4,99.6 618.5,99.5 618.7,100.1 618.9,101.5 619.1,99.2 619.3,98.3 619.4,96.1 619.6,96.1 619.8,95.6 620.0,94.8 620.1,94.6 620.3,97.3 620.5,97.0 620.7,98.0 620.9,96.5 621.0,97.5 621.2,95.7 621.4,94.5 621.6,94.9 621.8,95.2 621.9,95.3 622.1,96.1 622.3,97.1 622.5,96.2 622.6,96.1 622.8,96.2 623.0,97.3 623.2,97.7 623.4,98.7 623.5,99.0 623.7,98.8 623.9,99.8 624.1,99.2 624.2,97.9 624.4,97.1 624.6,95.8 624.8,95.1 625.0,96.8 625.1,95.4 625.3,95.2 625.5,95.3 625.7,94.5 625.8,94.6 626.0,95.6 626.2,97.2 626.4,99.1 626.6,99.0 626.7,98.0 626.9,97.3 627.1,100.1 627.3,100.5 627.4,104.1 627.6,103.0 627.8,104.3 628.0,104.8 628.2,107.3 628.3,107.4 628.5,108.5 628.7,108.4 628.9,107.6 629.0,110.7 629.2,108.0 629.4,107.9 629.6,107.5 629.8,110.2 629.9,108.9 630.1,109.5 630.3,107.5 630.5,107.1 630.6,107.0 630.8,106.4 631.0,106.6 631.2,106.5 631.4,108.8 631.5,108.7 631.7,110.2 631.9,112.2 632.1,113.4 632.3,116.3 632.4,113.5 632.6,112.4 632.8,113.4 633.0,112.7 633.1,114.3 633.3,115.1 633.5,115.7 633.7,118.5 633.9,118.0 634.0,115.1 634.2,115.1 634.4,115.1 634.6,115.6 634.7,112.7 634.9,112.7 635.1,112.6 635.3,115.2 635.5,115.8 635.6,117.1 635.8,117.2 636.0,116.0 636.2,118.5 636.3,120.2 636.5,121.2 636.7,121.0 636.9,122.9 637.1,122.9 637.2,126.2 637.4,126.3 637.6,130.0 637.8,130.7 637.9,135.4 638.1,134.1 638.3,131.1 638.5,130.6 638.7,135.8 638.8,133.8 639.0,135.0 639.2,134.0 639.4,131.7 639.5,132.1 639.7,130.6 639.9,130.5 640.1,130.9 640.3,128.1 640.4,128.9 640.6,129.4 640.8,127.5 641.0,124.6 641.2,124.5 641.3,124.4 641.5,120.3 641.7,116.2 641.9,118.8 642.0,117.3 642.2,115.5 642.4,114.0 642.6,113.6 642.8,112.7 642.9,112.3 643.1,111.4 643.3,110.2 643.5,112.2 643.6,112.7 643.8,109.9 644.0,108.9 644.2,111.2 644.4,110.0 644.5,112.1 644.7,111.5 644.9,111.2 645.1,112.2 645.2,110.2 645.4,110.5 645.6,111.1 645.8,113.5 646.0,112.1 646.1,112.9 646.3,114.1 646.5,115.3 646.7,117.3 646.8,117.2 647.0,117.0 647.2,115.1 647.4,115.7 647.6,114.9 647.7,115.7 647.9,115.1 648.1,112.1 648.3,113.4 648.4,113.2 648.6,113.6 648.8,113.3 649.0,113.8 649.2,112.8 649.3,112.6 649.5,110.2 649.7,112.7 649.9,113.1 650.1,114.6 650.2,114.7 650.4,114.8 650.6,114.3 650.8,115.6 650.9,114.5 651.1,114.7 651.3,114.3 651.5,114.8 651.7,115.6 651.8,119.7 652.0,119.2 652.2,119.8 652.4,120.2 652.5,121.9 652.7,120.3 652.9,119.3 653.1,119.9 653.3,120.3 653.4,120.2 653.6,120.1 653.8,118.0 654.0,117.6 654.1,118.2 654.3,118.3 654.5,117.5 654.7,118.5 654.9,118.9 655.0,118.8 655.2,117.1 655.4,116.4 655.6,115.7 655.7,113.9 655.9,114.5 656.1,115.1 656.3,114.8 656.5,113.0 656.6,111.4 656.8,110.9 657.0,110.2 657.2,109.0 657.3,108.3 657.5,107.7 657.7,107.1 657.9,105.3 658.1,103.8 658.2,102.9 658.4,101.5 658.6,101.8 658.8,102.0 658.9,101.2 659.1,99.2 659.3,101.4 659.5,100.6 659.7,101.8 659.8,104.3 660.0,102.8 660.2,101.9 660.4,101.7 660.6,101.1 660.7,98.4 660.9,98.1 661.1,98.9 661.3,99.2 661.4,99.9 661.6,99.9 661.8,99.6 662.0,98.7 662.2,98.2 662.3,97.0 662.5,96.6 662.7,96.9 662.9,100.9 663.0,101.3 663.2,100.0 663.4,100.5 663.6,100.7 663.8,102.0 663.9,100.4 664.1,100.2 664.3,101.2 664.5,102.2 664.6,101.4 664.8,102.3 665.0,102.6 665.2,102.9 665.4,104.1 665.5,103.6 665.7,104.0 665.9,104.5 666.1,105.6 666.2,106.9 666.4,108.0 666.6,108.7 666.8,105.9 667.0,105.6 667.1,105.0 667.3,106.1 667.5,104.7 667.7,104.7 667.8,101.8 668.0,101.8 668.2,101.6 668.4,103.7 668.6,101.9 668.7,102.6 668.9,102.6 669.1,103.1 669.3,99.3 669.5,100.2 669.6,99.7 669.8,99.0 670.0,99.2 670.2,100.5 670.3,100.4 670.5,100.9 670.7,102.0 670.9,103.7 671.1,103.3 671.2,103.8 671.4,104.4 671.6,103.4 671.8,102.8 671.9,102.6 672.1,103.4 672.3,101.2 672.5,101.3 672.7,101.2 672.8,101.4 673.0,100.8 673.2,100.9 673.4,101.5 673.5,102.7 673.7,102.3 673.9,102.1 674.1,104.0 674.3,107.9 674.4,109.3 674.6,109.3 674.8,108.5 675.0,109.3 675.1,110.5 675.3,110.2 675.5,112.1 675.7,111.5 675.9,110.5 676.0,108.2 676.2,107.9 676.4,108.0 676.6,107.5 676.7,107.5 676.9,109.7 677.1,108.9 677.3,107.2 677.5,104.9 677.6,104.0 677.8,105.5 678.0,105.4 678.2,105.2 678.4,104.3 678.5,105.4 678.7,105.2 678.9,105.1 679.1,103.4 679.2,103.8 679.4,104.5 679.6,104.7 679.8,105.2 680.0,104.7 680.1,104.6 680.3,104.0 680.5,103.8 680.7,104.5 680.8,105.0 681.0,104.6 681.2,102.7 681.4,102.3 681.6,102.5 681.7,101.7 681.9,103.3 682.1,102.2 682.3,102.5 682.4,101.8 682.6,101.1 682.8,102.4 683.0,103.1 683.2,103.1 683.3,104.7 683.5,104.8 683.7,104.9 683.9,104.4 684.0,105.3 684.2,105.5 684.4,106.6 684.6,108.1 684.8,107.9 684.9,108.7 685.1,109.4 685.3,109.3 685.5,109.9 685.6,109.9 685.8,110.1 686.0,115.2 686.2,115.1 686.4,113.4 686.5,113.3 686.7,114.2 686.9,113.9 687.1,114.1 687.2,115.5 687.4,114.7 687.6,114.1 687.8,113.7 688.0,112.9 688.1,114.0 688.3,114.9 688.5,113.9 688.7,111.5 688.9,111.6 689.0,112.9 689.2,112.7 689.4,112.1 689.6,113.2 689.7,111.7 689.9,111.7 690.1,111.2 690.3,111.3 690.5,111.1 690.6,114.0 690.8,115.6 691.0,116.5 691.2,116.1 691.3,116.8 691.5,116.2 691.7,116.3 691.9,118.1 692.1,119.8 692.2,119.5 692.4,117.1 692.6,117.7 692.8,116.7 692.9,117.4 693.1,117.8 693.3,117.4 693.5,116.3 693.7,115.8 693.8,116.7 694.0,116.8 694.2,118.8 694.4,118.4 694.5,117.7 694.7,119.2 694.9,117.3 695.1,116.4 695.3,117.6 695.4,117.0 695.6,117.8 695.8,120.0 696.0,121.1 696.1,121.5 696.3,122.9 696.5,123.7 696.7,125.1 696.9,124.3 697.0,119.9 697.2,118.0 697.4,118.4 697.6,112.8 697.8,115.1 697.9,115.8 698.1,115.8 698.3,115.5 698.5,114.7 698.6,116.2 698.8,116.9 699.0,117.6 699.2,118.4 699.4,117.6 699.5,116.3 699.7,117.1 699.9,116.9 700.1,116.3 700.2,116.9 700.4,114.3 700.6,115.7 700.8,117.1 701.0,115.9 701.1,116.5 701.3,116.6 701.5,116.0 701.7,116.2 701.8,116.6 702.0,116.9 702.2,116.9 702.4,116.2 702.6,116.3 702.7,117.1 702.9,117.9 703.1,116.4 703.3,115.2 703.4,116.2 703.6,114.2 703.8,114.7 704.0,115.4 704.2,115.1 704.3,115.2 704.5,114.2 704.7,112.3 704.9,112.1 705.0,112.0 705.2,109.7 705.4,105.9 705.6,103.4 705.8,102.6 705.9,102.4 706.1,101.0 706.3,100.8 706.5,104.3 706.7,103.1 706.8,102.5 707.0,101.9 707.2,103.1 707.4,103.0 707.5,104.6 707.7,102.6 707.9,103.4 708.1,108.6 708.3,107.8 708.4,107.9 708.6,105.8 708.8,107.4 709.0,105.8 709.1,108.4 709.3,110.1 709.5,111.8 709.7,111.5 709.9,113.3 710.0,111.9 710.2,111.6 710.4,112.1 710.6,110.1 710.7,111.4 710.9,108.9 711.1,108.6 711.3,107.4 711.5,107.7 711.6,107.3 711.8,109.6 712.0,107.8 712.2,109.1 712.3,109.9 712.5,110.5 712.7,110.4 712.9,108.9 713.1,109.6 713.2,108.0 713.4,106.1 713.6,109.6 713.8,108.6 713.9,106.8 714.1,106.5 714.3,106.2 714.5,106.1 714.7,106.7 714.8,106.5 715.0,106.6 715.2,103.8 715.4,104.8 715.5,102.9 715.7,102.2 715.9,101.8 716.1,102.2 716.3,101.3 716.4,101.1 716.6,101.6 716.8,103.0 717.0,104.4 717.2,102.9 717.3,104.3 717.5,103.7 717.7,104.3 717.9,104.7 718.0,108.3 718.2,108.0 718.4,108.0 718.6,107.6 718.8,107.7 718.9,107.8 719.1,108.1 719.3,108.2 719.5,109.0 719.6,101.3 719.8,100.0 720.0,101.0 720.2,101.4 720.4,101.7 720.5,102.9 720.7,103.0 720.9,104.0 721.1,102.6 721.2,97.2 721.4,96.1 721.6,93.0 721.8,89.7 722.0,92.2 722.1,91.9 722.3,94.3 722.5,93.1 722.7,90.9 722.8,90.1 723.0,90.6 723.2,90.8 723.4,89.4 723.6,91.0 723.7,91.0 723.9,91.6 724.1,90.2 724.3,88.9 724.4,89.5 724.6,88.8 724.8,87.5 725.0,85.5 725.2,85.4 725.3,84.3 725.5,82.1 725.7,82.7 725.9,81.0 726.1,78.7 726.2,77.3 726.4,80.7 726.6,81.0 726.8,82.4 726.9,81.5 727.1,78.7 727.3,79.4 727.5,81.4 727.7,82.7 727.8,84.0 728.0,86.5 728.2,83.4 728.4,83.4 728.5,85.0 728.7,84.9 728.9,84.9 729.1,84.1 729.3,84.8 729.4,81.7 729.6,83.1 729.8,81.9 730.0,82.1 730.1,83.0 730.3,83.2 730.5,83.8 730.7,84.7 730.9,84.6 731.0,85.5 731.2,84.4 731.4,84.0 731.6,86.1 731.7,85.2 731.9,86.6 732.1,87.0 732.3,88.4 732.5,89.6 732.6,92.1 732.8,91.2 733.0,89.0 733.2,89.0 733.3,89.2 733.5,88.5 733.7,89.2 733.9,91.1 734.1,91.9 734.2,95.3 734.4,96.9 734.6,98.1 734.8,96.6 735.0,97.8 735.1,99.6 735.3,98.5 735.5,100.8 735.7,100.9 735.8,107.5 736.0,106.0 736.2,103.2 736.4,104.4 736.6,102.9 736.7,104.8 736.9,106.9 737.1,105.2 737.3,105.1 737.4,103.1 737.6,98.6 737.8,97.3 738.0,99.5 738.2,99.4 738.3,100.8 738.5,101.5 738.7,100.1 738.9,98.0 739.0,100.2 739.2,104.6 739.4,105.6 739.6,107.6 739.8,99.5 739.9,102.5 740.1,102.5 740.3,102.5 740.5,102.2 740.6,104.2 740.8,104.2 741.0,106.6 741.2,104.8 741.4,102.8 741.5,101.4 741.7,97.7 741.9,97.6 742.1,96.8 742.2,98.1 742.4,98.3 742.6,97.4 742.8,98.4 743.0,99.1 743.1,99.0 743.3,97.7 743.5,95.9 743.7,93.4 743.8,91.5 744.0,89.9 744.2,90.5 744.4,89.7 744.6,90.6 744.7,90.4 744.9,91.4 745.1,90.7 745.3,90.9 745.5,88.2 745.6,88.9 745.8,88.7 746.0,90.1 746.2,90.5 746.3,90.3 746.5,91.7 746.7,97.8 746.9,96.4 747.1,94.6 747.2,92.4 747.4,92.4 747.6,93.3 747.8,92.5 747.9,92.1 748.1,93.6 748.3,92.9 748.5,92.9 748.7,89.8 748.8,90.7 749.0,92.3 749.2,92.5 749.4,92.7 749.5,93.5 749.7,95.6 749.9,93.7 750.1,93.8 750.3,96.5 750.4,96.0 750.6,96.3 750.8,94.4 751.0,94.0 751.1,93.6 751.3,94.3 751.5,93.0 751.7,93.3 751.9,92.0 752.0,92.2 752.2,91.7 752.4,91.7 752.6,95.0 752.7,93.7 752.9,92.5 753.1,93.0 753.3,93.3 753.5,94.6 753.6,95.4 753.8,94.5 754.0,94.6 754.2,93.2 754.4,92.9 754.5,92.0 754.7,90.9 754.9,90.7 755.1,90.9 755.2,91.3 755.4,91.9 755.6,91.4 755.8,92.1 756.0,92.7 756.1,93.2 756.3,90.8 756.5,90.0 756.7,89.5 756.8,89.7 757.0,90.1 757.2,91.5 757.4,92.0 757.6,91.5 757.7,91.0 757.9,89.6 758.1,90.1 758.3,90.0 758.4,89.9 758.6,87.6 758.8,84.8 759.0,83.4 759.2,82.4 759.3,82.0 759.5,82.8 759.7,81.9 759.9,81.2 760.0,82.0 760.2,80.4 760.4,82.2 760.6,80.6 760.8,80.4 760.9,80.3 761.1,79.0 761.3,81.0 761.5,81.6 761.6,79.5 761.8,81.3 762.0,80.8 762.2,81.1 762.4,83.1 762.5,81.0 762.7,81.7 762.9,81.1 763.1,81.7 763.3,80.7 763.4,80.0 763.6,80.4 763.8,80.8 764.0,79.9 764.1,81.2 764.3,79.6 764.5,78.9 764.7,78.8 764.9,80.7 765.0,79.2 765.2,78.2 765.4,80.3 765.6,78.8 765.7,80.2 765.9,81.6 766.1,80.2 766.3,80.7 766.5,81.5 766.6,84.2 766.8,84.0 767.0,83.6 767.2,84.3 767.3,84.0 767.5,84.9 767.7,85.3 767.9,82.7 768.1,82.6 768.2,81.9 768.4,81.6 768.6,81.6 768.8,81.7 768.9,80.1 769.1,79.4 769.3,79.4 769.5,80.7 769.7,80.2 769.8,79.7 770.0,80.1 770.2,79.0 770.4,77.6 770.5,76.5 770.7,78.3 770.9,77.0 771.1,77.2 771.3,76.6 771.4,76.8 771.6,76.8 771.8,77.7 772.0,79.0 772.1,79.4 772.3,79.8 772.5,80.9 772.7,79.7 772.9,81.3 773.0,81.5 773.2,81.1 773.4,80.2 773.6,79.9 773.8,80.0 773.9,80.8 774.1,80.8 774.3,80.9 774.5,82.6 774.6,81.5 774.8,79.9 775.0,79.9 775.2,81.1 775.4,81.5 775.5,81.4 775.7,82.8 775.9,81.5 776.1,82.3 776.2,82.3 776.4,83.8 776.6,84.7 776.8,83.3 777.0,82.8 777.1,82.0 777.3,81.7 777.5,82.8 777.7,82.7 777.8,83.4 778.0,83.3 778.2,83.3 778.4,83.3 778.6,84.4 778.7,83.5 778.9,82.7 779.1,83.6 779.3,84.2 779.4,84.1 779.6,85.2 779.8,83.8 780.0,83.9 780.2,84.7 780.3,84.5 780.5,84.5 780.7,83.7 780.9,84.9 781.0,85.3 781.2,84.9 781.4,84.5 781.6,85.1 781.8,86.4 781.9,87.7 782.1,86.3 782.3,86.1 782.5,85.8 782.7,87.3 782.8,88.4 783.0,89.1 783.2,87.3 783.4,86.3 783.5,88.5 783.7,89.3 783.9,90.0 784.1,90.4 784.3,90.2 784.4,89.8 784.6,89.4 784.8,88.1 785.0,85.2 785.1,85.5 785.3,84.4 785.5,85.2 785.7,85.8 785.9,85.7 786.0,87.1 786.2,86.8 786.4,86.6 786.6,86.8 786.7,87.2 786.9,86.3 787.1,85.3 787.3,85.2 787.5,85.5 787.6,84.5 787.8,83.3 788.0,81.7 788.2,80.2 788.3,81.3 788.5,80.2 788.7,80.4 788.9,82.3 789.1,83.5 789.2,84.0 789.4,82.8 789.6,82.7 789.8,81.9 789.9,81.3 790.1,80.6 790.3,80.5 790.5,81.1 790.7,82.9 790.8,82.2 791.0,82.2 791.2,82.6 791.4,85.3 791.6,83.6 791.7,84.7 791.9,86.3 792.1,84.5 792.3,83.8 792.4,83.3 792.6,84.0 792.8,84.8 793.0,84.4 793.2,83.9 793.3,86.3 793.5,86.9 793.7,86.9 793.9,86.5 794.0,83.3 794.2,82.4 794.4,82.0 794.6,85.1 794.8,82.5 794.9,84.1 795.1,85.0 795.3,83.8 795.5,83.7 795.6,84.9 795.8,84.8 796.0,85.0"/>
<text x="78" y="392" font-size="11" fill="#16a34a">Total return +24,667%</text><text x="268" y="392" font-size="11" fill="#2563eb">Price-only +24,667%</text><text x="78" y="362" font-size="11" text-anchor="middle" fill="#64748b">2010-06</text><text x="257" y="362" font-size="11" text-anchor="middle" fill="#64748b">2014-07</text><text x="437" y="362" font-size="11" text-anchor="middle" fill="#64748b">2018-07</text><text x="617" y="362" font-size="11" text-anchor="middle" fill="#64748b">2022-07</text><text x="796" y="362" font-size="11" text-anchor="middle" fill="#64748b">2026-07</text></svg>