<svg xmlns="http://www.w3.org/2000/svg" width="720" height="360" viewBox="0 0 720 360">
  <rect width="720" height="360" fill="#fafafa"/>
  <text x="56" y="22" font-size="13" font-family="sans-serif" fill="#222">TSLA total return (rebased 100) · cumulative distributions $0.00/sh · market cap n/a</text>
  <line x1="56" y1="308" x2="696" y2="308" stroke="#ccc"/>
  <line x1="56" y1="48" x2="56" y2="308" stroke="#ccc"/>
  <polyline fill="none" stroke="#2563eb" stroke-width="2" points="56.0,289.9 59.3,290.1 62.7,290.1 66.0,290.0 69.3,290.0 72.7,289.5 76.0,289.8 79.3,289.9 82.7,289.9 86.0,289.8 89.3,289.8 92.7,289.7 96.0,289.8 99.3,289.8 102.7,289.9 106.0,289.9 109.3,289.7 112.7,289.6 116.0,289.8 119.3,289.8 122.7,289.6 126.0,289.5 129.3,289.6 132.7,289.7 136.0,289.7 139.3,289.8 142.7,289.8 146.0,289.7 149.3,289.8 152.7,289.6 156.0,289.6 159.3,289.5 162.7,289.6 166.0,289.5 169.3,288.9 172.7,287.5 176.0,287.2 179.3,286.3 182.7,285.2 186.0,284.4 189.3,285.5 192.7,286.5 196.0,285.8 199.3,284.8 202.7,282.7 206.0,283.9 209.3,283.9 212.7,283.9 216.0,282.8 219.3,283.4 222.7,281.9 226.0,282.7 229.3,282.8 232.7,282.7 236.0,283.4 239.3,284.0 242.7,284.0 246.0,284.5 249.3,283.3 252.7,282.5 256.0,281.9 259.3,282.0 262.7,282.5 266.0,282.6 269.3,283.9 272.7,283.2 276.0,282.8 279.3,284.4 282.7,284.4 286.0,283.2 289.3,282.8 292.7,283.4 296.0,283.7 299.3,283.0 302.7,283.7 306.0,284.0 309.3,284.2 312.7,284.5 316.0,283.7 319.3,282.4 322.7,282.5 326.0,281.6 329.3,280.4 332.7,279.5 336.0,278.8 339.3,280.1 342.7,279.0 346.0,279.5 349.3,279.8 352.7,280.6 356.0,280.5 359.3,279.1 362.7,279.4 366.0,282.0 369.3,281.1 372.7,281.4 376.0,279.5 379.3,280.9 382.7,280.8 386.0,282.0 389.3,279.6 392.7,279.2 396.0,279.8 399.3,280.6 402.7,280.2 406.0,281.5 409.3,282.9 412.7,284.6 416.0,283.4 419.3,282.8 422.7,283.3 426.0,282.8 429.3,280.4 432.7,279.9 436.0,277.0 439.3,269.4 442.7,268.8 446.0,273.5 449.3,265.0 452.7,263.3 456.0,255.3 459.3,243.7 462.7,208.9 466.0,220.3 469.3,227.0 472.7,197.6 476.0,174.9 479.3,160.5 482.7,179.9 486.0,181.1 489.3,174.3 492.7,188.1 496.0,179.2 499.3,177.9 502.7,170.0 506.0,163.4 509.3,107.9 512.7,102.8 516.0,117.3 519.3,137.0 522.7,147.9 526.0,113.9 529.3,147.8 532.7,166.3 536.0,180.2 539.3,144.4 542.7,155.0 546.0,160.1 549.3,178.7 552.7,194.9 556.0,230.1 559.3,205.4 562.7,189.4 566.0,188.6 569.3,209.8 572.7,190.3 576.0,161.8 579.3,159.0 582.7,163.6 586.0,167.5 589.3,191.8 592.7,172.5 596.0,168.4 599.3,198.5 602.7,191.3 606.0,204.2 609.3,200.5 612.7,203.0 616.0,193.3 619.3,176.5 622.7,185.3 626.0,161.9 629.3,167.7 632.7,120.8 636.0,91.9 639.3,91.5 642.7,146.5 646.0,163.1 649.3,151.8 652.7,120.1 656.0,134.3 659.3,138.9 662.7,126.3 666.0,71.8 669.3,65.9 672.7,78.9 676.0,69.3 679.3,78.8 682.7,92.5 686.0,107.7 689.3,102.8 692.7,76.2 696.0,100.6"/>
  <polyline fill="none" stroke="#16a34a" stroke-width="2" points="56.0,289.9 59.3,290.1 62.7,290.1 66.0,290.0 69.3,290.0 72.7,289.5 76.0,289.8 79.3,289.9 82.7,289.9 86.0,289.8 89.3,289.8 92.7,289.7 96.0,289.8 99.3,289.8 102.7,289.9 106.0,289.9 109.3,289.7 112.7,289.6 116.0,289.8 119.3,289.8 122.7,289.6 126.0,289.5 129.3,289.6 132.7,289.7 136.0,289.7 139.3,289.8 142.7,289.8 146.0,289.7 149.3,289.8 152.7,289.6 156.0,289.6 159.3,289.5 162.7,289.6 166.0,289.5 169.3,288.9 172.7,287.5 176.0,287.2 179.3,286.3 182.7,285.2 186.0,284.4 189.3,285.5 192.7,286.5 196.0,285.8 199.3,284.8 202.7,282.7 206.0,283.9 209.3,283.9 212.7,283.9 216.0,282.8 219.3,283.4 222.7,281.9 226.0,282.7 229.3,282.8 232.7,282.7 236.0,283.4 239.3,284.0 242.7,284.0 246.0,284.5 249.3,283.3 252.7,282.5 256.0,281.9 259.3,282.0 262.7,282.5 266.0,282.6 269.3,283.9 272.7,283.2 276.0,282.8 279.3,284.4 282.7,284.4 286.0,283.2 289.3,282.8 292.7,283.4 296.0,283.7 299.3,283.0 302.7,283.7 306.0,284.0 309.3,284.2 312.7,284.5 316.0,283.7 319.3,282.4 322.7,282.5 326.0,281.6 329.3,280.4 332.7,279.5 336.0,278.8 339.3,280.1 342.7,279.0 346.0,279.5 349.3,279.8 352.7,280.6 356.0,280.5 359.3,279.1 362.7,279.4 366.0,282.0 369.3,281.1 372.7,281.4 376.0,279.5 379.3,280.9 382.7,280.8 386.0,282.0 389.3,279.6 392.7,279.2 396.0,279.8 399.3,280.6 402.7,280.2 406.0,281.5 409.3,282.9 412.7,284.6 416.0,283.4 419.3,282.8 422.7,283.3 426.0,282.8 429.3,280.4 432.7,279.9 436.0,277.0 439.3,269.4 442.7,268.8 446.0,273.5 449.3,265.0 452.7,263.3 456.0,255.3 459.3,243.7 462.7,208.9 466.0,220.3 469.3,227.0 472.7,197.6 476.0,174.9 479.3,160.5 482.7,179.9 486.0,181.1 489.3,174.3 492.7,188.1 496.0,179.2 499.3,177.9 502.7,170.0 506.0,163.4 509.3,107.9 512.7,102.8 516.0,117.3 519.3,137.0 522.7,147.9 526.0,113.9 529.3,147.8 532.7,166.3 536.0,180.2 539.3,144.4 542.7,155.0 546.0,160.1 549.3,178.7 552.7,194.9 556.0,230.1 559.3,205.4 562.7,189.4 566.0,188.6 569.3,209.8 572.7,190.3 576.0,161.8 579.3,159.0 582.7,163.6 586.0,167.5 589.3,191.8 592.7,172.5 596.0,168.4 599.3,198.5 602.7,191.3 606.0,204.2 609.3,200.5 612.7,203.0 616.0,193.3 619.3,176.5 622.7,185.3 626.0,161.9 629.3,167.7 632.7,120.8 636.0,91.9 639.3,91.5 642.7,146.5 646.0,163.1 649.3,151.8 652.7,120.1 656.0,134.3 659.3,138.9 662.7,126.3 666.0,71.8 669.3,65.9 672.7,78.9 676.0,69.3 679.3,78.8 682.7,92.5 686.0,107.7 689.3,102.8 692.7,76.2 696.0,100.6"/>
  <text x="60" y="62" font-size="11" fill="#2563eb">Price index</text>
  <text x="146" y="62" font-size="11" fill="#16a34a">Total return (price + distributions)</text>
  <text x="56" y="348" font-size="11" text-anchor="middle" fill="#444">2010-06</text><text x="216" y="348" font-size="11" text-anchor="middle" fill="#444">2014-06</text><text x="376" y="348" font-size="11" text-anchor="middle" fill="#444">2018-06</text><text x="536" y="348" font-size="11" text-anchor="middle" fill="#444">2022-06</text><text x="696" y="348" font-size="11" text-anchor="middle" fill="#444">2026-06</text>
</svg>
