<svg xmlns="http://www.w3.org/2000/svg" width="720" height="360" viewBox="0 0 720 360">
  <rect width="720" height="360" fill="#fafafa"/>
  <text x="56" y="22" font-size="13" font-family="sans-serif" fill="#222">XYL total return (rebased 100) · cumulative distributions $1.72/sh · market cap n/a</text>
  <line x1="56" y1="308" x2="696" y2="308" stroke="#ccc"/>
  <line x1="56" y1="48" x2="56" y2="308" stroke="#ccc"/>
  <polyline fill="none" stroke="#2563eb" stroke-width="2" points="56.0,287.9 56.2,286.0 56.3,286.3 56.5,286.2 56.7,287.1 56.9,287.1 57.0,285.7 57.2,285.3 57.4,285.3 57.6,286.6 57.7,285.5 57.9,285.2 58.1,283.6 58.2,282.6 58.4,283.8 58.6,284.2 58.8,286.3 58.9,287.3 59.1,286.7 59.3,288.5 59.5,288.9 59.6,288.7 59.8,288.5 60.0,288.4 60.1,288.1 60.3,288.6 60.5,288.5 60.7,289.0 60.8,289.0 61.0,288.9 61.2,290.1 61.4,289.2 61.5,289.6 61.7,288.5 61.9,287.9 62.0,287.9 62.2,286.5 62.4,286.9 62.6,287.4 62.7,288.6 62.9,287.7 63.1,288.5 63.3,288.6 63.4,289.4 63.6,288.5 63.8,287.2 63.9,287.9 64.1,287.8 64.3,286.8 64.5,286.9 64.6,286.8 64.8,286.5 65.0,285.7 65.2,285.0 65.3,285.4 65.5,286.4 65.7,284.9 65.8,285.6 66.0,286.3 66.2,286.2 66.4,285.6 66.5,284.8 66.7,285.4 66.9,285.5 67.1,285.5 67.2,283.2 67.4,283.8 67.6,284.3 67.7,285.3 67.9,284.7 68.1,283.9 68.3,285.0 68.4,285.2 68.6,285.0 68.8,285.0 69.0,283.5 69.1,283.8 69.3,283.1 69.5,283.5 69.7,282.8 69.8,282.5 70.0,282.9 70.2,283.0 70.3,283.1 70.5,283.3 70.7,283.2 70.9,282.9 71.0,282.2 71.2,281.8 71.4,282.3 71.6,281.8 71.7,282.7 71.9,282.5 72.1,283.4 72.2,284.9 72.4,283.7 72.6,283.9 72.8,284.5 72.9,285.2 73.1,284.5 73.3,283.8 73.5,282.7 73.6,282.3 73.8,280.7 74.0,280.8 74.1,280.2 74.3,281.1 74.5,281.5 74.7,282.6 74.8,282.6 75.0,282.8 75.2,282.8 75.4,281.7 75.5,281.5 75.7,281.5 75.9,282.0 76.0,281.9 76.2,280.9 76.4,281.0 76.6,281.8 76.7,281.5 76.9,282.5 77.1,283.3 77.3,283.2 77.4,282.6 77.6,283.5 77.8,283.3 77.9,282.8 78.1,282.0 78.3,283.0 78.5,282.5 78.6,283.4 78.8,283.0 79.0,282.0 79.2,281.3 79.3,280.8 79.5,281.7 79.7,282.0 79.8,281.9 80.0,282.7 80.2,284.1 80.4,284.5 80.5,284.3 80.7,284.7 80.9,284.7 81.1,284.8 81.2,285.9 81.4,286.3 81.6,286.0 81.7,287.6 81.9,287.2 82.1,286.0 82.3,285.6 82.4,285.3 82.6,284.7 82.8,285.5 83.0,285.1 83.1,285.8 83.3,286.1 83.5,287.5 83.6,287.5 83.8,287.3 84.0,285.8 84.2,285.3 84.3,285.0 84.5,285.7 84.7,285.6 84.9,286.3 85.0,286.6 85.2,286.1 85.4,286.4 85.5,286.5 85.7,287.1 85.9,287.9 86.1,288.3 86.2,289.0 86.4,288.5 86.6,287.8 86.8,287.3 86.9,286.3 87.1,286.6 87.3,285.4 87.4,285.7 87.6,286.3 87.8,286.6 88.0,287.7 88.1,288.5 88.3,289.8 88.5,289.5 88.7,289.8 88.8,288.9 89.0,288.5 89.2,288.1 89.3,288.7 89.5,288.6 89.7,289.1 89.9,288.5 90.0,288.8 90.2,288.0 90.4,288.0 90.6,288.4 90.7,288.5 90.9,289.1 91.1,288.3 91.2,288.1 91.4,287.9 91.6,288.1 91.8,287.5 91.9,287.6 92.1,287.5 92.3,288.2 92.5,287.8 92.6,286.7 92.8,286.4 93.0,286.1 93.1,286.3 93.3,286.6 93.5,287.3 93.7,287.5 93.8,288.1 94.0,288.3 94.2,288.3 94.4,288.2 94.5,287.8 94.7,288.3 94.9,288.2 95.0,286.7 95.2,286.4 95.4,287.3 95.6,286.0 95.7,286.6 95.9,286.0 96.1,285.6 96.3,286.0 96.4,285.4 96.6,284.9 96.8,285.6 97.0,285.9 97.1,285.8 97.3,285.9 97.5,286.7 97.6,286.1 97.8,286.4 98.0,286.2 98.2,286.2 98.3,286.6 98.5,286.4 98.7,286.4 98.9,286.4 99.0,287.0 99.2,287.4 99.4,287.8 99.5,287.3 99.7,287.1 99.9,286.0 100.1,286.5 100.2,287.2 100.4,288.0 100.6,287.8 100.8,288.0 100.9,289.3 101.1,288.8 101.3,289.1 101.4,287.9 101.6,285.9 101.8,285.5 102.0,284.9 102.1,284.8 102.3,286.1 102.5,286.8 102.7,287.1 102.8,287.0 103.0,287.4 103.2,288.3 103.3,288.3 103.5,288.0 103.7,286.9 103.9,286.4 104.0,286.0 104.2,285.7 104.4,285.1 104.6,285.5 104.7,285.0 104.9,284.7 105.1,284.7 105.2,285.3 105.4,285.4 105.6,284.9 105.8,284.7 105.9,284.2 106.1,284.1 106.3,283.8 106.5,283.5 106.6,283.7 106.8,283.6 107.0,283.9 107.1,282.8 107.3,282.2 107.5,283.4 107.7,283.6 107.8,283.4 108.0,283.5 108.2,283.4 108.4,284.2 108.5,283.0 108.7,282.3 108.9,282.5 109.0,282.5 109.2,283.2 109.4,283.7 109.6,283.0 109.7,282.3 109.9,282.9 110.1,282.8 110.3,282.9 110.4,283.3 110.6,282.4 110.8,282.3 110.9,282.0 111.1,281.6 111.3,281.5 111.5,282.0 111.6,281.6 111.8,281.5 112.0,281.5 112.2,281.6 112.3,281.4 112.5,282.2 112.7,281.8 112.8,281.7 113.0,283.3 113.2,283.0 113.4,282.4 113.5,281.5 113.7,281.0 113.9,280.6 114.1,281.0 114.2,280.1 114.4,281.5 114.6,282.0 114.7,281.8 114.9,283.1 115.1,283.2 115.3,282.4 115.4,282.3 115.6,282.3 115.8,282.3 116.0,280.7 116.1,279.1 116.3,280.8 116.5,280.7 116.6,280.1 116.8,280.5 117.0,280.6 117.2,280.2 117.3,279.8 117.5,280.1 117.7,280.7 117.9,280.6 118.0,280.5 118.2,280.7 118.4,281.9 118.5,282.0 118.7,282.7 118.9,282.2 119.1,282.7 119.2,282.8 119.4,283.0 119.6,281.9 119.8,282.1 119.9,281.7 120.1,281.5 120.3,280.3 120.4,280.0 120.6,280.4 120.8,282.4 121.0,282.0 121.1,282.7 121.3,283.1 121.5,283.2 121.7,283.4 121.8,282.5 122.0,282.0 122.2,281.7 122.3,281.9 122.5,281.0 122.7,281.9 122.9,282.3 123.0,282.4 123.2,282.5 123.4,282.5 123.6,282.0 123.7,281.3 123.9,281.7 124.1,281.8 124.3,282.2 124.4,280.9 124.6,280.4 124.8,280.3 124.9,279.8 125.1,279.9 125.3,280.2 125.5,280.6 125.6,281.4 125.8,281.7 126.0,281.3 126.2,281.4 126.3,280.5 126.5,281.2 126.7,281.0 126.8,281.7 127.0,282.8 127.2,282.7 127.4,282.2 127.5,282.3 127.7,282.8 127.9,283.2 128.1,282.7 128.2,283.0 128.4,282.7 128.6,282.0 128.7,282.7 128.9,284.2 129.1,284.7 129.3,285.3 129.4,285.0 129.6,284.8 129.8,283.8 130.0,283.3 130.1,282.0 130.3,282.3 130.5,282.1 130.6,281.5 130.8,281.2 131.0,280.5 131.2,279.8 131.3,279.7 131.5,279.6 131.7,279.6 131.9,280.4 132.0,280.4 132.2,279.8 132.4,280.1 132.5,279.9 132.7,280.2 132.9,280.4 133.1,280.0 133.2,280.3 133.4,280.7 133.6,285.7 133.8,286.7 133.9,286.3 134.1,286.2 134.3,286.1 134.4,285.9 134.6,286.8 134.8,286.7 135.0,286.7 135.1,286.9 135.3,286.7 135.5,286.6 135.7,287.1 135.8,287.4 136.0,287.3 136.2,287.8 136.3,288.0 136.5,287.7 136.7,287.8 136.9,287.3 137.0,287.9 137.2,287.5 137.4,286.7 137.6,287.0 137.7,286.5 137.9,285.8 138.1,285.0 138.2,284.6 138.4,283.5 138.6,283.0 138.8,283.0 138.9,283.2 139.1,283.3 139.3,282.9 139.5,282.7 139.6,282.3 139.8,282.3 140.0,282.9 140.1,283.2 140.3,282.5 140.5,282.3 140.7,281.0 140.8,281.5 141.0,281.6 141.2,281.0 141.4,281.2 141.5,281.6 141.7,281.1 141.9,281.4 142.0,282.5 142.2,282.8 142.4,281.6 142.6,281.3 142.7,281.2 142.9,281.6 143.1,281.6 143.3,282.3 143.4,281.7 143.6,280.9 143.8,281.1 143.9,280.9 144.1,280.3 144.3,279.7 144.5,279.8 144.6,273.6 144.8,272.0 145.0,270.2 145.2,272.4 145.3,271.3 145.5,271.5 145.7,271.9 145.8,272.6 146.0,271.1 146.2,271.2 146.4,271.2 146.5,270.5 146.7,270.4 146.9,270.3 147.1,271.2 147.2,270.8 147.4,270.6 147.6,270.1 147.7,270.1 147.9,270.2 148.1,269.9 148.3,269.8 148.4,270.1 148.6,271.3 148.8,271.8 149.0,271.9 149.1,271.5 149.3,271.9 149.5,271.7 149.7,271.9 149.8,273.0 150.0,271.9 150.2,271.4 150.3,271.3 150.5,270.9 150.7,269.9 150.9,270.8 151.0,271.0 151.2,270.8 151.4,270.5 151.6,269.9 151.7,270.1 151.9,270.1 152.1,270.1 152.2,270.8 152.4,270.3 152.6,270.4 152.8,270.2 152.9,270.3 153.1,270.0 153.3,269.5 153.5,269.3 153.6,268.4 153.8,267.0 154.0,266.5 154.1,266.7 154.3,267.8 154.5,266.8 154.7,268.6 154.8,271.6 155.0,272.1 155.2,271.3 155.4,272.4 155.5,272.2 155.7,272.2 155.9,273.2 156.0,267.2 156.2,268.5 156.4,266.9 156.6,266.0 156.7,266.1 156.9,265.7 157.1,265.2 157.3,264.5 157.4,264.1 157.6,263.2 157.8,264.9 157.9,263.0 158.1,262.7 158.3,261.8 158.5,262.9 158.6,262.0 158.8,261.8 159.0,261.9 159.2,263.2 159.3,262.8 159.5,263.3 159.7,263.7 159.8,263.1 160.0,264.1 160.2,264.5 160.4,265.2 160.5,266.4 160.7,266.3 160.9,266.2 161.1,266.3 161.2,266.9 161.4,267.1 161.6,267.2 161.7,268.1 161.9,266.6 162.1,267.9 162.3,268.0 162.4,267.6 162.6,266.9 162.8,265.7 163.0,264.6 163.1,265.5 163.3,265.4 163.5,267.0 163.6,267.6 163.8,265.9 164.0,267.8 164.2,269.0 164.3,269.2 164.5,269.6 164.7,268.5 164.9,268.9 165.0,268.5 165.2,268.1 165.4,268.2 165.5,268.0 165.7,268.7 165.9,268.8 166.1,266.9 166.2,264.9 166.4,266.0 166.6,266.2 166.8,266.3 166.9,266.0 167.1,265.5 167.3,265.4 167.4,265.6 167.6,264.1 167.8,264.3 168.0,264.6 168.1,265.5 168.3,266.1 168.5,264.4 168.7,265.4 168.8,264.5 169.0,264.3 169.2,263.5 169.3,263.3 169.5,263.9 169.7,266.4 169.9,265.4 170.0,265.0 170.2,265.5 170.4,266.1 170.6,265.3 170.7,264.6 170.9,264.0 171.1,264.0 171.2,264.3 171.4,264.6 171.6,263.2 171.8,263.4 171.9,263.2 172.1,262.6 172.3,261.9 172.5,261.3 172.6,261.1 172.8,262.1 173.0,261.8 173.1,262.2 173.3,262.0 173.5,262.3 173.7,262.2 173.8,263.1 174.0,262.4 174.2,264.2 174.4,265.3 174.5,265.0 174.7,265.5 174.9,265.7 175.0,265.0 175.2,265.5 175.4,264.9 175.6,266.4 175.7,265.1 175.9,264.8 176.1,264.9 176.3,265.4 176.4,265.6 176.6,266.2 176.8,266.9 177.0,265.6 177.1,266.9 177.3,268.9 177.5,269.4 177.6,268.9 177.8,268.3 178.0,268.3 178.2,267.6 178.3,267.5 178.5,266.7 178.7,266.8 178.9,266.4 179.0,266.5 179.2,266.4 179.4,265.2 179.5,265.0 179.7,264.2 179.9,264.6 180.1,265.2 180.2,264.5 180.4,264.8 180.6,265.2 180.8,265.5 180.9,265.5 181.1,264.1 181.3,264.5 181.4,264.4 181.6,264.6 181.8,264.8 182.0,265.3 182.1,265.4 182.3,265.2 182.5,265.7 182.7,265.6 182.8,265.0 183.0,265.2 183.2,264.6 183.3,264.6 183.5,265.4 183.7,265.2 183.9,265.3 184.0,266.8 184.2,266.6 184.4,267.2 184.6,268.5 184.7,269.6 184.9,269.4 185.1,269.3 185.2,268.4 185.4,270.8 185.6,270.0 185.8,272.2 185.9,273.7 186.1,274.7 186.3,273.3 186.5,272.3 186.6,271.0 186.8,270.7 187.0,271.6 187.1,270.2 187.3,271.0 187.5,269.3 187.7,268.8 187.8,269.3 188.0,266.8 188.2,268.1 188.4,268.0 188.5,267.0 188.7,267.6 188.9,267.8 189.0,267.0 189.2,265.7 189.4,265.9 189.6,265.4 189.7,265.3 189.9,265.0 190.1,265.1 190.3,264.9 190.4,264.7 190.6,263.8 190.8,265.3 190.9,265.1 191.1,263.8 191.3,263.5 191.5,263.5 191.6,263.3 191.8,263.6 192.0,263.4 192.2,264.2 192.3,262.7 192.5,263.2 192.7,263.2 192.8,264.5 193.0,264.0 193.2,266.2 193.4,266.0 193.5,267.3 193.7,267.2 193.9,267.2 194.1,266.1 194.2,264.0 194.4,263.2 194.6,262.9 194.7,263.0 194.9,262.9 195.1,262.6 195.3,262.7 195.4,263.5 195.6,264.1 195.8,264.1 196.0,268.1 196.1,268.5 196.3,268.0 196.5,267.6 196.6,268.7 196.8,270.1 197.0,269.9 197.2,270.3 197.3,270.7 197.5,270.3 197.7,270.4 197.9,269.2 198.0,268.8 198.2,269.1 198.4,269.0 198.5,269.8 198.7,270.6 198.9,270.8 199.1,270.9 199.2,269.8 199.4,268.7 199.6,269.6 199.8,269.6 199.9,269.0 200.1,269.2 200.3,268.7 200.4,268.9 200.6,268.3 200.8,267.5 201.0,267.9 201.1,267.9 201.3,268.2 201.5,267.6 201.7,268.0 201.8,267.7 202.0,267.6 202.2,268.0 202.3,268.2 202.5,267.4 202.7,267.5 202.9,268.2 203.0,268.4 203.2,269.1 203.4,268.9 203.6,269.9 203.7,270.1 203.9,269.1 204.1,270.0 204.3,269.3 204.4,269.9 204.6,267.9 204.8,268.4 204.9,267.7 205.1,269.2 205.3,269.3 205.5,269.8 205.6,269.9 205.8,269.4 206.0,268.8 206.2,269.3 206.3,268.7 206.5,268.0 206.7,267.5 206.8,267.5 207.0,268.9 207.2,269.4 207.4,269.0 207.5,269.1 207.7,269.0 207.9,268.5 208.1,267.9 208.2,269.1 208.4,268.6 208.6,268.8 208.7,268.6 208.9,267.8 209.1,268.3 209.3,267.1 209.4,267.0 209.6,266.6 209.8,265.9 210.0,265.7 210.1,266.1 210.3,266.5 210.5,266.7 210.6,266.5 210.8,266.1 211.0,266.2 211.2,266.8 211.3,266.3 211.5,265.8 211.7,266.2 211.9,265.9 212.0,266.3 212.2,266.2 212.4,265.7 212.5,265.9 212.7,267.1 212.9,266.8 213.1,266.4 213.2,266.7 213.4,266.6 213.6,266.5 213.8,266.0 213.9,266.9 214.1,267.0 214.3,267.4 214.4,267.5 214.6,266.7 214.8,266.1 215.0,266.7 215.1,267.4 215.3,266.9 215.5,267.0 215.7,266.1 215.8,266.9 216.0,265.9 216.2,265.4 216.3,265.5 216.5,266.0 216.7,266.0 216.9,267.2 217.0,265.8 217.2,266.2 217.4,266.4 217.6,267.2 217.7,267.0 217.9,268.4 218.1,268.4 218.2,268.7 218.4,267.5 218.6,266.8 218.8,267.7 218.9,267.6 219.1,268.0 219.3,268.0 219.5,269.0 219.6,269.4 219.8,269.9 220.0,270.0 220.1,270.4 220.3,269.8 220.5,269.0 220.7,269.0 220.8,270.2 221.0,271.4 221.2,271.5 221.4,271.3 221.5,271.6 221.7,272.0 221.9,270.9 222.0,271.8 222.2,271.7 222.4,272.0 222.6,271.6 222.7,271.5 222.9,272.1 223.1,272.6 223.3,273.4 223.4,274.4 223.6,276.4 223.8,277.2 223.9,275.6 224.1,273.9 224.3,273.3 224.5,273.8 224.6,276.0 224.8,275.6 225.0,273.9 225.2,275.1 225.3,273.8 225.5,274.4 225.7,274.3 225.8,273.7 226.0,274.2 226.2,272.8 226.4,272.2 226.5,272.7 226.7,274.1 226.9,273.5 227.1,273.9 227.2,274.9 227.4,273.6 227.6,273.7 227.7,274.4 227.9,274.6 228.1,273.1 228.3,273.4 228.4,271.9 228.6,271.9 228.8,272.1 229.0,271.0 229.1,269.4 229.3,269.6 229.5,270.0 229.7,270.5 229.8,271.3 230.0,269.8 230.2,269.8 230.3,270.0 230.5,269.6 230.7,269.9 230.9,268.3 231.0,267.3 231.2,267.8 231.4,267.9 231.6,267.0 231.7,267.1 231.9,266.9 232.1,266.5 232.2,266.6 232.4,266.5 232.6,266.3 232.8,266.1 232.9,266.9 233.1,266.0 233.3,266.0 233.5,268.0 233.6,267.8 233.8,266.6 234.0,265.9 234.1,265.1 234.3,264.8 234.5,265.1 234.7,265.0 234.8,265.1 235.0,264.8 235.2,264.9 235.4,265.4 235.5,264.8 235.7,266.0 235.9,266.4 236.0,264.8 236.2,266.1 236.4,267.2 236.6,267.2 236.7,266.4 236.9,267.3 237.1,266.5 237.3,266.4 237.4,265.1 237.6,266.9 237.8,267.9 237.9,267.4 238.1,266.8 238.3,265.7 238.5,265.8 238.6,266.0 238.8,265.7 239.0,266.1 239.2,266.8 239.3,267.5 239.5,267.5 239.7,268.3 239.8,269.9 240.0,270.5 240.2,271.0 240.4,270.6 240.5,272.2 240.7,271.8 240.9,272.9 241.1,272.9 241.2,273.2 241.4,272.4 241.6,271.0 241.7,271.5 241.9,270.1 242.1,269.6 242.3,269.5 242.4,267.7 242.6,268.3 242.8,269.6 243.0,268.2 243.1,265.8 243.3,266.5 243.5,267.3 243.6,266.4 243.8,266.9 244.0,267.3 244.2,265.9 244.3,265.9 244.5,264.8 244.7,265.0 244.9,265.9 245.0,264.8 245.2,265.4 245.4,265.1 245.5,265.0 245.7,264.7 245.9,265.2 246.1,264.3 246.2,264.1 246.4,263.9 246.6,263.8 246.8,263.2 246.9,264.4 247.1,263.9 247.3,264.3 247.4,263.4 247.6,264.1 247.8,264.0 248.0,263.1 248.1,262.5 248.3,261.7 248.5,261.7 248.7,261.8 248.8,261.8 249.0,261.1 249.2,260.9 249.3,259.6 249.5,259.0 249.7,259.2 249.9,258.6 250.0,259.4 250.2,259.0 250.4,258.7 250.6,259.2 250.7,258.6 250.9,258.6 251.1,257.9 251.2,257.6 251.4,257.3 251.6,256.8 251.8,256.2 251.9,256.1 252.1,257.0 252.3,257.6 252.5,256.5 252.6,256.9 252.8,255.8 253.0,255.7 253.1,257.0 253.3,257.7 253.5,256.9 253.7,257.5 253.8,258.6 254.0,258.1 254.2,257.5 254.4,258.0 254.5,256.4 254.7,255.8 254.9,255.2 255.0,255.3 255.2,254.8 255.4,254.7 255.6,255.1 255.7,255.5 255.9,254.7 256.1,254.7 256.3,253.1 256.4,252.6 256.6,252.6 256.8,252.9 257.0,252.7 257.1,252.4 257.3,251.8 257.5,251.3 257.6,250.9 257.8,250.4 258.0,249.6 258.2,249.9 258.3,250.5 258.5,251.0 258.7,251.0 258.9,251.1 259.0,251.5 259.2,251.2 259.4,250.2 259.5,250.4 259.7,250.6 259.9,249.8 260.1,253.6 260.2,256.1 260.4,255.5 260.6,254.5 260.8,252.7 260.9,252.3 261.1,252.4 261.3,251.1 261.4,251.0 261.6,249.7 261.8,248.7 262.0,248.5 262.1,248.6 262.3,249.0 262.5,248.6 262.7,248.7 262.8,248.4 263.0,248.3 263.2,249.1 263.3,248.7 263.5,248.9 263.7,247.3 263.9,247.3 264.0,247.1 264.2,247.3 264.4,247.3 264.6,249.7 264.7,250.0 264.9,248.8 265.1,248.1 265.2,247.8 265.4,247.1 265.6,247.1 265.8,246.0 265.9,246.2 266.1,242.9 266.3,243.2 266.5,242.9 266.6,242.7 266.8,242.1 267.0,241.7 267.1,241.9 267.3,242.4 267.5,242.5 267.7,242.3 267.8,241.8 268.0,241.8 268.2,242.0 268.4,242.8 268.5,241.9 268.7,241.8 268.9,241.9 269.0,241.7 269.2,245.8 269.4,243.8 269.6,244.4 269.7,244.4 269.9,243.1 270.1,243.6 270.3,242.6 270.4,242.2 270.6,240.4 270.8,239.0 270.9,240.8 271.1,240.9 271.3,239.9 271.5,239.7 271.6,240.4 271.8,239.3 272.0,239.2 272.2,239.6 272.3,240.1 272.5,240.3 272.7,242.2 272.8,242.8 273.0,244.0 273.2,243.3 273.4,244.1 273.5,244.4 273.7,244.9 273.9,245.0 274.1,244.4 274.2,245.4 274.4,245.5 274.6,245.8 274.7,246.9 274.9,246.3 275.1,246.9 275.3,245.9 275.4,246.4 275.6,248.3 275.8,248.7 276.0,248.3 276.1,248.0 276.3,246.0 276.5,244.7 276.6,242.4 276.8,238.8 277.0,238.8 277.2,237.9 277.3,235.3 277.5,236.0 277.7,236.6 277.9,237.8 278.0,237.5 278.2,238.5 278.4,238.6 278.5,238.5 278.7,240.7 278.9,241.2 279.1,240.8 279.2,240.4 279.4,240.4 279.6,240.5 279.8,239.8 279.9,239.9 280.1,240.2 280.3,240.9 280.4,241.8 280.6,241.8 280.8,242.5 281.0,243.3 281.1,243.3 281.3,242.2 281.5,241.9 281.7,242.1 281.8,241.6 282.0,241.8 282.2,242.0 282.3,243.6 282.5,243.9 282.7,244.3 282.9,244.1 283.0,242.8 283.2,243.6 283.4,244.2 283.6,244.6 283.7,245.0 283.9,244.5 284.1,246.4 284.3,245.6 284.4,246.6 284.6,246.2 284.8,245.1 284.9,245.1 285.1,246.1 285.3,245.1 285.5,243.2 285.6,243.3 285.8,243.4 286.0,244.4 286.2,244.7 286.3,245.0 286.5,245.6 286.7,244.8 286.8,248.4 287.0,248.3 287.2,248.7 287.4,247.6 287.5,247.2 287.7,246.5 287.9,247.6 288.1,247.5 288.2,247.4 288.4,247.3 288.6,246.4 288.7,246.5 288.9,247.8 289.1,247.1 289.3,245.3 289.4,246.7 289.6,244.3 289.8,245.4 290.0,245.7 290.1,246.0 290.3,245.6 290.5,247.7 290.6,247.5 290.8,246.5 291.0,246.1 291.2,246.9 291.3,246.0 291.5,245.7 291.7,244.9 291.9,245.5 292.0,246.8 292.2,244.7 292.4,245.4 292.5,244.8 292.7,245.1 292.9,244.1 293.1,244.6 293.2,243.7 293.4,243.1 293.6,244.4 293.8,242.9 293.9,242.8 294.1,241.9 294.3,242.1 294.4,242.2 294.6,242.3 294.8,244.6 295.0,245.4 295.1,244.4 295.3,245.0 295.5,244.7 295.7,243.1 295.8,242.4 296.0,241.0 296.2,240.4 296.3,241.0 296.5,240.7 296.7,241.1 296.9,241.2 297.0,242.8 297.2,243.6 297.4,240.9 297.6,239.5 297.7,239.7 297.9,240.3 298.1,241.7 298.2,242.0 298.4,241.8 298.6,239.5 298.8,240.4 298.9,240.8 299.1,240.9 299.3,240.0 299.5,239.6 299.6,238.7 299.8,239.0 300.0,239.8 300.1,241.1 300.3,240.4 300.5,239.8 300.7,239.3 300.8,238.3 301.0,238.0 301.2,238.9 301.4,237.5 301.5,237.3 301.7,236.7 301.9,236.6 302.0,237.0 302.2,237.2 302.4,236.7 302.6,236.5 302.7,236.3 302.9,236.8 303.1,237.4 303.3,236.9 303.4,236.0 303.6,235.4 303.8,235.7 303.9,234.9 304.1,235.0 304.3,234.1 304.5,234.1 304.6,235.0 304.8,235.9 305.0,235.0 305.2,235.5 305.3,236.0 305.5,234.3 305.7,233.4 305.8,233.0 306.0,231.9 306.2,232.4 306.4,231.3 306.5,231.5 306.7,230.4 306.9,230.2 307.1,231.1 307.2,231.6 307.4,231.6 307.6,231.5 307.7,231.9 307.9,227.5 308.1,226.4 308.3,227.0 308.4,226.2 308.6,226.2 308.8,226.5 309.0,226.8 309.1,228.0 309.3,227.8 309.5,226.5 309.7,226.5 309.8,226.4 310.0,228.1 310.2,227.9 310.3,227.4 310.5,226.3 310.7,226.3 310.9,226.1 311.0,225.4 311.2,224.3 311.4,224.3 311.6,223.6 311.7,222.7 311.9,222.9 312.1,223.0 312.2,222.8 312.4,222.0 312.6,221.5 312.8,221.1 312.9,221.2 313.1,221.1 313.3,221.1 313.5,220.6 313.6,219.9 313.8,219.6 314.0,219.3 314.1,219.5 314.3,218.1 314.5,218.6 314.7,220.5 314.8,221.1 315.0,222.0 315.2,221.7 315.4,220.5 315.5,219.5 315.7,218.5 315.9,218.5 316.0,218.4 316.2,218.2 316.4,218.3 316.6,218.8 316.7,217.8 316.9,218.1 317.1,216.0 317.3,220.7 317.4,219.9 317.6,219.5 317.8,219.0 317.9,219.9 318.1,217.9 318.3,218.4 318.5,218.0 318.6,217.9 318.8,218.2 319.0,215.0 319.2,215.6 319.3,214.1 319.5,214.9 319.7,215.0 319.8,214.9 320.0,215.0 320.2,215.4 320.4,215.5 320.5,215.9 320.7,215.3 320.9,216.1 321.1,215.1 321.2,215.2 321.4,214.2 321.6,213.5 321.7,213.6 321.9,213.0 322.1,213.1 322.3,211.6 322.4,212.1 322.6,210.1 322.8,210.7 323.0,211.1 323.1,212.7 323.3,212.5 323.5,211.8 323.6,212.1 323.8,213.7 324.0,213.2 324.2,213.3 324.3,214.7 324.5,213.2 324.7,212.6 324.9,212.7 325.0,212.8 325.2,212.9 325.4,213.2 325.5,213.3 325.7,212.1 325.9,212.0 326.1,212.1 326.2,212.3 326.4,210.9 326.6,210.1 326.8,210.3 326.9,209.9 327.1,209.9 327.3,210.7 327.4,209.1 327.6,208.2 327.8,208.1 328.0,207.2 328.1,207.1 328.3,205.7 328.5,204.4 328.7,204.5 328.8,204.6 329.0,203.4 329.2,201.4 329.3,203.1 329.5,203.7 329.7,205.1 329.9,200.7 330.0,199.2 330.2,204.4 330.4,206.7 330.6,205.9 330.7,208.6 330.9,207.6 331.1,205.7 331.2,204.2 331.4,203.3 331.6,200.8 331.8,200.0 331.9,200.8 332.1,200.1 332.3,200.3 332.5,198.8 332.6,198.2 332.8,199.1 333.0,201.1 333.1,203.4 333.3,202.9 333.5,202.3 333.7,199.9 333.8,198.0 334.0,196.6 334.2,192.7 334.4,195.0 334.5,195.2 334.7,196.7 334.9,195.8 335.0,194.4 335.2,194.9 335.4,193.4 335.6,192.9 335.7,196.3 335.9,199.2 336.1,195.4 336.3,198.1 336.4,199.0 336.6,197.1 336.8,200.2 337.0,197.4 337.1,197.3 337.3,195.9 337.5,199.7 337.6,199.2 337.8,197.3 338.0,198.3 338.2,196.7 338.3,197.2 338.5,195.6 338.7,193.7 338.9,193.1 339.0,193.9 339.2,193.0 339.4,194.3 339.5,199.5 339.7,199.5 339.9,200.8 340.1,202.6 340.2,204.0 340.4,208.4 340.6,210.9 340.8,209.6 340.9,208.9 341.1,209.0 341.3,207.5 341.4,205.7 341.6,204.5 341.8,202.9 342.0,203.0 342.1,205.4 342.3,206.5 342.5,206.5 342.7,206.2 342.8,203.8 343.0,205.4 343.2,206.3 343.3,205.5 343.5,206.6 343.7,208.1 343.9,206.4 344.0,208.3 344.2,205.8 344.4,206.5 344.6,206.1 344.7,204.5 344.9,203.6 345.1,203.4 345.2,205.9 345.4,206.6 345.6,206.1 345.8,206.0 345.9,206.7 346.1,206.3 346.3,211.1 346.5,210.1 346.6,215.0 346.8,215.1 347.0,215.4 347.1,214.9 347.3,215.2 347.5,215.3 347.7,213.5 347.8,213.2 348.0,214.1 348.2,214.0 348.4,214.5 348.5,212.4 348.7,212.1 348.9,214.7 349.0,212.3 349.2,211.6 349.4,213.5 349.6,212.8 349.7,212.1 349.9,211.5 350.1,209.7 350.3,212.8 350.4,211.9 350.6,210.6 350.8,208.5 350.9,208.7 351.1,209.0 351.3,197.7 351.5,200.5 351.6,200.3 351.8,198.7 352.0,198.5 352.2,197.4 352.3,197.2 352.5,197.5 352.7,199.0 352.8,200.5 353.0,200.8 353.2,201.6 353.4,200.8 353.5,199.6 353.7,199.0 353.9,198.4 354.1,199.8 354.2,200.6 354.4,199.5 354.6,197.6 354.7,197.9 354.9,197.2 355.1,198.8 355.3,198.8 355.4,199.2 355.6,195.7 355.8,194.5 356.0,194.0 356.1,191.9 356.3,192.1 356.5,191.7 356.6,190.4 356.8,190.2 357.0,189.1 357.2,188.5 357.3,189.4 357.5,189.4 357.7,189.7 357.9,191.7 358.0,191.5 358.2,191.5 358.4,191.3 358.5,192.0 358.7,190.7 358.9,191.0 359.1,190.7 359.2,191.3 359.4,192.9 359.6,195.7 359.8,201.4 359.9,205.3 360.1,210.7 360.3,209.4 360.4,209.5 360.6,206.0 360.8,206.7 361.0,209.2 361.1,210.3 361.3,210.1 361.5,211.8 361.7,216.0 361.8,214.4 362.0,215.0 362.2,216.4 362.3,217.4 362.5,216.6 362.7,211.2 362.9,212.4 363.0,211.6 363.2,209.3 363.4,206.4 363.6,206.3 363.7,207.5 363.9,210.7 364.1,211.1 364.3,212.2 364.4,208.2 364.6,207.5 364.8,210.0 364.9,213.8 365.1,212.0 365.3,212.4 365.5,209.7 365.6,209.8 365.8,207.1 366.0,206.8 366.2,203.9 366.3,205.0 366.5,212.4 366.7,214.5 366.8,216.4 367.0,216.1 367.2,216.9 367.4,216.5 367.5,216.6 367.7,216.9 367.9,218.8 368.1,218.7 368.2,217.4 368.4,219.6 368.6,220.3 368.7,223.9 368.9,218.9 369.1,217.0 369.3,217.1 369.4,214.7 369.6,215.0 369.8,219.0 370.0,214.3 370.1,216.0 370.3,214.9 370.5,213.1 370.6,210.9 370.8,210.2 371.0,210.5 371.2,211.0 371.3,210.8 371.5,208.7 371.7,206.9 371.9,210.3 372.0,211.8 372.2,211.4 372.4,209.2 372.5,210.1 372.7,208.2 372.9,205.6 373.1,206.8 373.2,208.7 373.4,208.5 373.6,207.7 373.8,206.3 373.9,208.4 374.1,208.0 374.3,206.6 374.4,204.0 374.6,204.4 374.8,204.7 375.0,202.2 375.1,203.4 375.3,202.0 375.5,201.6 375.7,200.7 375.8,199.9 376.0,199.7 376.2,198.1 376.3,199.4 376.5,198.0 376.7,198.2 376.9,198.3 377.0,198.9 377.2,199.8 377.4,200.2 377.6,197.1 377.7,197.5 377.9,196.4 378.1,197.8 378.2,197.4 378.4,194.6 378.6,194.5 378.8,194.9 378.9,193.0 379.1,196.8 379.3,197.2 379.5,195.0 379.6,195.2 379.8,193.4 380.0,193.4 380.1,190.8 380.3,191.7 380.5,192.3 380.7,191.8 380.8,191.2 381.0,189.5 381.2,192.5 381.4,192.8 381.5,190.2 381.7,187.7 381.9,188.5 382.0,187.5 382.2,187.0 382.4,186.7 382.6,185.7 382.7,186.5 382.9,186.5 383.1,188.0 383.3,186.4 383.4,185.2 383.6,185.9 383.8,186.1 383.9,192.5 384.1,187.8 384.3,191.6 384.5,193.2 384.6,193.3 384.8,193.3 385.0,194.9 385.2,197.3 385.3,199.5 385.5,197.9 385.7,198.2 385.8,200.0 386.0,201.2 386.2,199.1 386.4,199.6 386.5,202.0 386.7,202.2 386.9,201.7 387.1,202.2 387.2,201.9 387.4,201.7 387.6,199.1 387.7,196.2 387.9,193.7 388.1,193.2 388.3,192.5 388.4,191.1 388.6,191.8 388.8,191.4 389.0,189.9 389.1,189.9 389.3,190.8 389.5,189.7 389.7,189.1 389.8,186.1 390.0,188.7 390.2,188.1 390.3,189.1 390.5,189.5 390.7,188.5 390.9,185.5 391.0,184.1 391.2,186.3 391.4,186.0 391.6,186.9 391.7,188.8 391.9,190.1 392.1,191.1 392.2,189.8 392.4,187.4 392.6,188.5 392.8,187.2 392.9,189.5 393.1,191.0 393.3,190.3 393.5,191.2 393.6,188.7 393.8,187.7 394.0,188.9 394.1,189.2 394.3,190.2 394.5,189.8 394.7,191.3 394.8,193.8 395.0,196.0 395.2,201.1 395.4,199.0 395.5,198.6 395.7,196.6 395.9,197.2 396.0,199.1 396.2,196.9 396.4,200.6 396.6,200.1 396.7,197.7 396.9,197.1 397.1,198.6 397.3,198.7 397.4,199.4 397.6,202.6 397.8,202.0 397.9,201.6 398.1,200.4 398.3,198.0 398.5,197.6 398.6,201.0 398.8,199.8 399.0,195.6 399.2,194.5 399.3,196.1 399.5,194.6 399.7,193.0 399.8,195.1 400.0,194.0 400.2,195.1 400.4,194.6 400.5,194.5 400.7,195.3 400.9,196.1 401.1,196.0 401.2,197.2 401.4,194.2 401.6,192.9 401.7,191.5 401.9,192.4 402.1,197.2 402.3,201.1 402.4,200.2 402.6,198.7 402.8,199.4 403.0,203.1 403.1,201.1 403.3,199.6 403.5,195.8 403.6,196.9 403.8,195.2 404.0,194.9 404.2,193.8 404.3,192.1 404.5,190.0 404.7,189.6 404.9,189.0 405.0,188.3 405.2,186.1 405.4,184.8 405.5,183.5 405.7,184.8 405.9,197.5 406.1,193.3 406.2,194.1 406.4,192.3 406.6,194.9 406.8,196.4 406.9,196.4 407.1,199.0 407.3,197.6 407.4,199.1 407.6,197.8 407.8,196.0 408.0,196.4 408.1,195.2 408.3,196.1 408.5,196.2 408.7,197.1 408.8,197.6 409.0,196.7 409.2,195.9 409.3,196.1 409.5,197.7 409.7,199.4 409.9,199.7 410.0,200.5 410.2,199.8 410.4,199.7 410.6,199.0 410.7,197.2 410.9,195.8 411.1,195.7 411.2,196.4 411.4,195.2 411.6,195.4 411.8,195.9 411.9,194.2 412.1,193.6 412.3,194.1 412.5,194.2 412.6,193.8 412.8,193.9 413.0,193.8 413.1,192.0 413.3,191.2 413.5,192.1 413.7,192.6 413.8,192.2 414.0,191.5 414.2,191.9 414.4,189.5 414.5,189.4 414.7,187.5 414.9,186.3 415.0,185.8 415.2,187.6 415.4,187.9 415.6,187.7 415.7,189.2 415.9,191.4 416.1,189.6 416.3,186.3 416.4,185.4 416.6,188.9 416.8,186.0 417.0,180.5 417.1,178.6 417.3,186.4 417.5,184.5 417.6,181.9 417.8,179.3 418.0,176.0 418.2,179.6 418.3,177.7 418.5,177.9 418.7,178.0 418.9,176.8 419.0,177.1 419.2,180.7 419.4,184.3 419.5,185.0 419.7,190.6 419.9,196.3 420.1,187.8 420.2,192.0 420.4,182.6 420.6,187.5 420.8,189.7 420.9,198.8 421.1,197.3 421.3,203.4 421.4,217.9 421.6,205.3 421.8,217.5 422.0,205.9 422.1,216.8 422.3,218.6 422.5,226.4 422.7,232.0 422.8,222.8 423.0,219.6 423.2,212.4 423.3,216.8 423.5,215.5 423.7,217.4 423.9,226.6 424.0,220.4 424.2,225.4 424.4,217.3 424.6,215.6 424.7,210.6 424.9,210.1 425.1,212.1 425.2,208.3 425.4,214.0 425.6,214.9 425.8,209.7 425.9,210.3 426.1,212.3 426.3,210.4 426.5,212.5 426.6,211.6 426.8,207.7 427.0,203.0 427.1,202.5 427.3,205.7 427.5,210.2 427.7,211.5 427.8,217.5 428.0,221.0 428.2,220.1 428.4,221.1 428.5,221.9 428.7,227.9 428.9,229.3 429.0,228.1 429.2,229.4 429.4,222.8 429.6,225.3 429.7,222.7 429.9,222.9 430.1,222.4 430.3,217.2 430.4,211.0 430.6,212.2 430.8,215.3 430.9,215.9 431.1,212.6 431.3,208.9 431.5,208.3 431.6,204.3 431.8,205.0 432.0,208.5 432.2,211.6 432.3,219.7 432.5,219.1 432.7,218.5 432.8,214.4 433.0,214.1 433.2,215.2 433.4,217.1 433.5,217.1 433.7,218.9 433.9,222.0 434.1,222.5 434.2,220.8 434.4,218.9 434.6,217.7 434.7,220.0 434.9,216.9 435.1,213.9 435.3,215.7 435.4,216.4 435.6,215.0 435.8,215.0 436.0,213.6 436.1,203.3 436.3,200.4 436.5,200.8 436.6,201.7 436.8,201.8 437.0,201.4 437.2,201.4 437.3,201.1 437.5,201.7 437.7,199.9 437.9,201.5 438.0,196.6 438.2,200.9 438.4,203.9 438.5,202.8 438.7,202.5 438.9,198.6 439.1,199.0 439.2,196.7 439.4,193.5 439.6,191.2 439.8,191.6 439.9,192.7 440.1,192.4 440.3,193.1 440.4,192.9 440.6,192.8 440.8,192.8 441.0,192.8 441.1,189.3 441.3,190.1 441.5,190.5 441.7,189.7 441.8,188.3 442.0,191.4 442.2,188.8 442.3,186.3 442.5,188.9 442.7,188.5 442.9,189.4 443.0,185.9 443.2,188.3 443.4,183.9 443.6,184.5 443.7,184.1 443.9,182.8 444.1,181.7 444.3,182.1 444.4,185.8 444.6,185.0 444.8,187.6 444.9,188.0 445.1,186.5 445.3,185.1 445.5,185.3 445.6,184.6 445.8,187.3 446.0,184.1 446.2,180.9 446.3,180.5 446.5,177.6 446.7,174.8 446.8,173.5 447.0,171.3 447.2,174.7 447.4,173.1 447.5,172.8 447.7,171.9 447.9,173.8 448.1,172.0 448.2,173.2 448.4,173.0 448.6,171.8 448.7,174.4 448.9,176.1 449.1,179.1 449.3,179.9 449.4,179.4 449.6,176.9 449.8,171.7 450.0,180.1 450.1,173.1 450.3,172.6 450.5,168.4 450.6,165.7 450.8,168.0 451.0,170.4 451.2,165.9 451.3,161.8 451.5,164.2 451.7,165.9 451.9,167.0 452.0,167.0 452.2,166.4 452.4,161.5 452.5,163.0 452.7,162.2 452.9,164.2 453.1,162.3 453.2,163.9 453.4,162.9 453.6,160.0 453.8,160.4 453.9,159.6 454.1,159.8 454.3,160.3 454.4,159.9 454.6,162.2 454.8,157.7 455.0,158.9 455.1,157.7 455.3,157.2 455.5,156.0 455.7,158.3 455.8,157.7 456.0,156.8 456.2,156.6 456.3,158.1 456.5,155.9 456.7,154.2 456.9,157.8 457.0,158.0 457.2,150.8 457.4,142.6 457.6,144.5 457.7,146.9 457.9,147.2 458.1,148.3 458.2,147.7 458.4,151.2 458.6,149.9 458.8,150.4 458.9,151.8 459.1,152.8 459.3,155.5 459.5,158.6 459.6,160.8 459.8,158.8 460.0,163.1 460.1,162.2 460.3,162.1 460.5,165.7 460.7,162.1 460.8,160.4 461.0,155.6 461.2,155.2 461.4,155.3 461.5,159.1 461.7,158.8 461.9,159.0 462.0,160.4 462.2,162.8 462.4,157.7 462.6,158.2 462.7,159.2 462.9,155.4 463.1,157.3 463.3,158.0 463.4,153.4 463.6,153.9 463.8,155.3 463.9,159.8 464.1,156.8 464.3,155.7 464.5,157.2 464.6,155.5 464.8,155.4 465.0,154.0 465.2,150.3 465.3,152.8 465.5,149.7 465.7,150.1 465.8,150.3 466.0,153.1 466.2,156.6 466.4,155.3 466.5,153.9 466.7,149.0 466.9,149.9 467.1,148.8 467.2,148.3 467.4,149.3 467.6,146.2 467.7,146.0 467.9,147.0 468.1,147.4 468.3,143.5 468.4,142.8 468.6,145.0 468.8,143.8 469.0,143.4 469.1,142.4 469.3,143.1 469.5,144.2 469.7,140.9 469.8,141.6 470.0,139.2 470.2,139.3 470.3,137.7 470.5,137.8 470.7,136.1 470.9,138.9 471.0,137.3 471.2,129.7 471.4,127.3 471.6,124.9 471.7,123.9 471.9,123.1 472.1,126.9 472.2,134.9 472.4,129.9 472.6,125.5 472.8,127.0 472.9,131.1 473.1,134.5 473.3,133.4 473.5,130.6 473.6,129.8 473.8,128.3 474.0,128.2 474.1,126.9 474.3,126.0 474.5,124.0 474.7,124.9 474.8,125.4 475.0,124.1 475.2,124.5 475.4,123.2 475.5,125.4 475.7,125.8 475.9,125.9 476.0,127.5 476.2,126.1 476.4,130.5 476.6,133.2 476.7,134.1 476.9,129.1 477.1,129.0 477.3,129.5 477.4,128.1 477.6,128.2 477.8,124.1 477.9,124.1 478.1,122.8 478.3,122.5 478.5,121.2 478.6,122.0 478.8,121.6 479.0,124.2 479.2,121.0 479.3,119.9 479.5,121.4 479.7,121.0 479.8,122.7 480.0,123.9 480.2,127.5 480.4,120.1 480.5,118.6 480.7,119.3 480.9,117.1 481.1,115.7 481.2,116.0 481.4,117.7 481.6,114.0 481.7,112.7 481.9,113.0 482.1,109.1 482.3,111.3 482.4,109.8 482.6,107.6 482.8,108.1 483.0,106.6 483.1,105.1 483.3,103.6 483.5,102.9 483.6,100.5 483.8,102.4 484.0,105.0 484.2,105.1 484.3,102.8 484.5,101.7 484.7,98.7 484.9,96.7 485.0,98.1 485.2,97.0 485.4,94.3 485.5,94.6 485.7,94.2 485.9,91.7 486.1,93.0 486.2,95.8 486.4,96.7 486.6,98.7 486.8,98.0 486.9,100.9 487.1,101.2 487.3,98.3 487.4,100.5 487.6,102.8 487.8,103.7 488.0,103.9 488.1,100.1 488.3,96.6 488.5,95.8 488.7,98.1 488.8,107.4 489.0,109.3 489.2,116.4 489.3,120.5 489.5,124.0 489.7,118.5 489.9,118.9 490.0,118.7 490.2,120.2 490.4,124.9 490.6,124.9 490.7,122.9 490.9,117.0 491.1,114.7 491.2,114.0 491.4,113.3 491.6,111.4 491.8,108.8 491.9,107.7 492.1,107.2 492.3,109.3 492.5,109.0 492.6,103.4 492.8,104.5 493.0,106.8 493.1,107.2 493.3,113.1 493.5,106.0 493.7,103.8 493.8,100.2 494.0,99.5 494.2,101.6 494.4,105.0 494.5,104.6 494.7,106.4 494.9,104.0 495.0,105.2 495.2,105.1 495.4,107.1 495.6,109.6 495.7,111.4 495.9,114.1 496.1,118.2 496.3,116.2 496.4,120.8 496.6,125.2 496.8,122.2 497.0,126.1 497.1,121.6 497.3,115.6 497.5,115.6 497.6,117.4 497.8,117.9 498.0,119.1 498.2,125.0 498.3,123.2 498.5,125.1 498.7,130.0 498.9,133.0 499.0,129.7 499.2,129.4 499.4,127.1 499.5,125.7 499.7,123.6 499.9,123.9 500.1,124.3 500.2,122.9 500.4,128.1 500.6,126.0 500.8,128.8 500.9,129.0 501.1,130.6 501.3,132.7 501.4,129.3 501.6,129.4 501.8,132.4 502.0,137.4 502.1,140.0 502.3,142.6 502.5,146.0 502.7,145.0 502.8,144.2 503.0,150.6 503.2,152.9 503.3,156.5 503.5,154.3 503.7,148.6 503.9,148.8 504.0,150.0 504.2,171.7 504.4,173.6 504.6,175.4 504.7,172.1 504.9,165.6 505.1,171.3 505.2,175.8 505.4,175.8 505.6,172.7 505.8,173.4 505.9,174.8 506.1,173.4 506.3,174.5 506.5,177.7 506.6,178.5 506.8,172.9 507.0,176.3 507.1,180.1 507.3,177.7 507.5,176.4 507.7,182.7 507.8,185.9 508.0,187.7 508.2,182.1 508.4,186.2 508.5,185.5 508.7,184.9 508.9,182.3 509.0,179.5 509.2,177.8 509.4,177.8 509.6,178.5 509.7,176.8 509.9,180.5 510.1,180.8 510.3,180.2 510.4,179.9 510.6,175.8 510.8,177.8 510.9,182.7 511.1,181.0 511.3,180.1 511.5,179.9 511.6,180.2 511.8,180.2 512.0,180.3 512.2,181.9 512.3,183.4 512.5,180.5 512.7,184.6 512.8,187.2 513.0,182.5 513.2,180.0 513.4,180.6 513.5,183.7 513.7,184.8 513.9,190.4 514.1,188.1 514.2,185.9 514.4,190.9 514.6,188.6 514.7,187.7 514.9,174.0 515.1,180.9 515.3,182.8 515.4,183.2 515.6,187.2 515.8,190.2 516.0,186.9 516.1,185.0 516.3,188.7 516.5,184.8 516.6,190.1 516.8,188.4 517.0,188.8 517.2,189.6 517.3,188.4 517.5,190.0 517.7,185.0 517.9,181.6 518.0,184.4 518.2,185.3 518.4,180.5 518.5,182.3 518.7,182.0 518.9,181.4 519.1,183.8 519.2,187.1 519.4,191.5 519.6,197.0 519.8,197.8 519.9,197.9 520.1,203.7 520.3,204.0 520.4,200.7 520.6,199.5 520.8,197.2 521.0,192.4 521.1,192.5 521.3,195.4 521.5,195.2 521.7,194.9 521.8,193.9 522.0,193.8 522.2,192.6 522.3,191.2 522.5,193.9 522.7,194.9 522.9,197.3 523.0,198.6 523.2,199.6 523.4,196.4 523.6,198.9 523.7,192.1 523.9,189.7 524.1,186.6 524.3,184.3 524.4,184.3 524.6,183.3 524.8,179.3 524.9,174.5 525.1,171.0 525.3,172.4 525.5,165.2 525.6,161.9 525.8,161.2 526.0,162.1 526.2,157.8 526.3,160.6 526.5,156.4 526.7,155.3 526.8,151.4 527.0,151.2 527.2,150.4 527.4,153.3 527.5,153.2 527.7,158.1 527.9,162.5 528.1,163.9 528.2,163.9 528.4,161.5 528.6,169.4 528.7,171.0 528.9,172.2 529.1,172.6 529.3,170.9 529.4,172.4 529.6,170.2 529.8,164.5 530.0,163.4 530.1,162.7 530.3,161.4 530.5,168.1 530.6,166.6 530.8,167.1 531.0,168.9 531.2,163.3 531.3,166.2 531.5,168.7 531.7,173.3 531.9,174.7 532.0,176.4 532.2,177.3 532.4,173.5 532.5,177.8 532.7,179.1 532.9,174.2 533.1,169.1 533.2,169.9 533.4,171.6 533.6,175.8 533.8,176.5 533.9,176.1 534.1,179.3 534.3,177.4 534.4,181.1 534.6,173.6 534.8,168.3 535.0,169.5 535.1,172.7 535.3,167.8 535.5,164.2 535.7,160.3 535.8,158.9 536.0,156.3 536.2,152.9 536.3,153.1 536.5,147.7 536.7,149.9 536.9,144.9 537.0,144.8 537.2,142.2 537.4,143.0 537.6,148.0 537.7,137.0 537.9,137.9 538.1,141.8 538.2,136.3 538.4,135.9 538.6,138.6 538.8,135.5 538.9,136.6 539.1,135.6 539.3,134.4 539.5,134.0 539.6,140.7 539.8,140.2 540.0,136.0 540.1,133.5 540.3,133.9 540.5,136.5 540.7,138.6 540.8,138.3 541.0,137.7 541.2,137.9 541.4,134.3 541.5,131.4 541.7,131.8 541.9,138.9 542.0,140.2 542.2,142.6 542.4,143.0 542.6,138.0 542.7,140.3 542.9,140.5 543.1,138.8 543.3,141.8 543.4,137.2 543.6,139.0 543.8,138.7 543.9,139.0 544.1,144.4 544.3,137.8 544.5,136.9 544.6,134.9 544.8,131.6 545.0,129.3 545.2,128.1 545.3,129.7 545.5,133.9 545.7,142.4 545.8,139.7 546.0,154.8 546.2,151.1 546.4,152.9 546.5,155.0 546.7,153.1 546.9,155.4 547.1,150.3 547.2,148.8 547.4,147.0 547.6,148.2 547.7,150.3 547.9,143.9 548.1,146.5 548.3,146.8 548.4,146.6 548.6,144.9 548.8,144.6 549.0,143.7 549.1,146.5 549.3,144.7 549.5,151.6 549.7,152.1 549.8,151.6 550.0,153.1 550.2,152.9 550.3,152.7 550.5,155.4 550.7,153.4 550.9,150.5 551.0,151.1 551.2,153.5 551.4,154.2 551.6,156.4 551.7,159.0 551.9,160.9 552.1,157.4 552.2,163.2 552.4,162.2 552.6,166.3 552.8,161.3 552.9,159.8 553.1,161.5 553.3,162.0 553.5,159.7 553.6,158.3 553.8,157.3 554.0,154.7 554.1,153.1 554.3,149.2 554.5,149.6 554.7,155.2 554.8,156.8 555.0,156.8 555.2,154.6 555.4,152.6 555.5,151.2 555.7,149.4 555.9,149.6 556.0,149.2 556.2,150.0 556.4,150.8 556.6,150.3 556.7,149.8 556.9,149.4 557.1,152.2 557.3,155.6 557.4,150.7 557.6,150.6 557.8,149.5 557.9,149.5 558.1,150.1 558.3,146.3 558.5,141.8 558.6,144.6 558.8,145.5 559.0,145.5 559.2,148.4 559.3,149.1 559.5,149.3 559.7,151.6 559.8,150.4 560.0,149.6 560.2,148.7 560.4,149.8 560.5,150.1 560.7,155.4 560.9,159.2 561.1,160.1 561.2,159.7 561.4,156.9 561.6,153.6 561.7,148.5 561.9,146.6 562.1,146.4 562.3,145.0 562.4,141.6 562.6,140.5 562.8,142.0 563.0,138.6 563.1,136.9 563.3,134.3 563.5,134.1 563.6,134.4 563.8,133.9 564.0,135.8 564.2,138.2 564.3,138.9 564.5,137.2 564.7,139.1 564.9,137.7 565.0,135.5 565.2,136.9 565.4,139.6 565.5,140.8 565.7,140.8 565.9,137.0 566.1,135.4 566.2,137.2 566.4,138.7 566.6,141.0 566.8,138.9 566.9,138.4 567.1,137.5 567.3,133.9 567.4,133.5 567.6,133.2 567.8,132.5 568.0,133.4 568.1,135.0 568.3,135.5 568.5,135.3 568.7,136.7 568.8,136.4 569.0,142.8 569.2,147.5 569.3,145.3 569.5,148.4 569.7,153.2 569.9,153.1 570.0,153.2 570.2,153.6 570.4,155.5 570.6,157.2 570.7,158.1 570.9,158.2 571.1,157.4 571.2,158.1 571.4,156.3 571.6,157.9 571.8,155.2 571.9,154.1 572.1,153.3 572.3,151.2 572.5,151.2 572.6,152.8 572.8,161.2 573.0,161.0 573.1,164.7 573.3,165.5 573.5,163.0 573.7,163.1 573.8,165.9 574.0,163.6 574.2,164.9 574.4,165.1 574.5,166.2 574.7,168.3 574.9,172.1 575.0,173.0 575.2,172.8 575.4,175.3 575.6,174.0 575.7,172.7 575.9,172.7 576.1,171.4 576.3,174.3 576.4,172.4 576.6,174.3 576.8,172.8 577.0,172.6 577.1,171.1 577.3,170.4 577.5,172.3 577.6,174.2 577.8,171.2 578.0,169.3 578.2,173.9 578.3,170.8 578.5,171.4 578.7,175.1 578.9,175.5 579.0,178.4 579.2,176.8 579.4,177.7 579.5,175.8 579.7,168.4 579.9,166.8 580.1,167.1 580.2,162.6 580.4,163.9 580.6,162.8 580.8,162.8 580.9,162.7 581.1,159.9 581.3,159.8 581.4,155.2 581.6,156.8 581.8,155.1 582.0,155.3 582.1,156.9 582.3,155.5 582.5,153.4 582.7,151.6 582.8,151.8 583.0,152.7 583.2,151.2 583.3,148.4 583.5,146.6 583.7,146.1 583.9,147.3 584.0,146.7 584.2,146.8 584.4,146.3 584.6,144.0 584.7,143.6 584.9,141.4 585.1,138.4 585.2,138.8 585.4,138.8 585.6,137.3 585.8,140.6 585.9,137.1 586.1,135.5 586.3,133.8 586.5,132.5 586.6,132.6 586.8,132.5 587.0,133.7 587.1,137.3 587.3,136.0 587.5,136.3 587.7,135.1 587.8,136.4 588.0,136.1 588.2,137.1 588.4,137.0 588.5,138.4 588.7,140.5 588.9,137.6 589.0,136.8 589.2,134.2 589.4,133.5 589.6,137.1 589.7,134.9 589.9,135.9 590.1,134.2 590.3,133.5 590.4,135.8 590.6,130.7 590.8,130.7 590.9,133.0 591.1,123.5 591.3,117.0 591.5,118.7 591.6,115.3 591.8,117.1 592.0,119.8 592.2,115.6 592.3,115.1 592.5,116.2 592.7,115.7 592.8,116.7 593.0,114.0 593.2,113.1 593.4,112.9 593.5,112.9 593.7,113.1 593.9,110.6 594.1,109.1 594.2,109.2 594.4,112.1 594.6,111.8 594.7,110.7 594.9,110.6 595.1,112.1 595.3,108.2 595.4,108.9 595.6,109.0 595.8,110.2 596.0,109.8 596.1,108.2 596.3,107.7 596.5,105.5 596.6,106.9 596.8,109.4 597.0,109.1 597.2,106.6 597.3,106.8 597.5,107.9 597.7,108.8 597.9,107.5 598.0,110.3 598.2,108.5 598.4,109.4 598.5,107.4 598.7,108.6 598.9,107.6 599.1,108.8 599.2,110.2 599.4,109.0 599.6,112.0 599.8,110.4 599.9,109.2 600.1,107.3 600.3,104.3 600.4,104.4 600.6,104.5 600.8,101.4 601.0,101.0 601.1,104.3 601.3,103.9 601.5,95.2 601.7,93.1 601.8,89.6 602.0,88.2 602.2,86.2 602.3,83.8 602.5,83.1 602.7,86.1 602.9,84.7 603.0,81.7 603.2,83.6 603.4,82.5 603.6,78.3 603.7,78.0 603.9,79.3 604.1,81.9 604.3,80.9 604.4,87.6 604.6,91.8 604.8,89.3 604.9,86.5 605.1,90.7 605.3,93.3 605.5,88.8 605.6,93.7 605.8,92.9 606.0,89.6 606.2,90.8 606.3,87.1 606.5,87.1 606.7,91.7 606.8,89.1 607.0,87.6 607.2,89.6 607.4,90.6 607.5,91.1 607.7,93.6 607.9,94.8 608.1,94.5 608.2,95.8 608.4,102.9 608.6,101.6 608.7,100.8 608.9,98.2 609.1,98.5 609.3,99.3 609.4,94.6 609.6,91.9 609.8,91.0 610.0,92.9 610.1,86.1 610.3,90.0 610.5,91.6 610.6,92.6 610.8,89.4 611.0,87.0 611.2,93.9 611.3,93.2 611.5,86.8 611.7,85.6 611.9,99.5 612.0,99.5 612.2,99.8 612.4,105.3 612.5,112.2 612.7,110.0 612.9,111.0 613.1,108.4 613.2,107.9 613.4,109.8 613.6,102.6 613.8,102.9 613.9,100.0 614.1,100.7 614.3,98.0 614.4,98.4 614.6,95.5 614.8,96.2 615.0,93.6 615.1,94.7 615.3,96.2 615.5,95.5 615.7,95.6 615.8,92.5 616.0,104.3 616.2,107.1 616.3,108.9 616.5,111.2 616.7,106.7 616.9,105.8 617.0,105.7 617.2,103.8 617.4,104.1 617.6,100.7 617.7,100.1 617.9,100.6 618.1,94.6 618.2,97.2 618.4,97.7 618.6,100.3 618.8,99.3 618.9,98.4 619.1,97.7 619.3,96.8 619.5,97.9 619.6,98.0 619.8,100.2 620.0,99.5 620.1,98.6 620.3,98.3 620.5,94.7 620.7,98.3 620.8,93.7 621.0,93.0 621.2,94.0 621.4,92.6 621.5,96.6 621.7,98.1 621.9,101.2 622.0,103.2 622.2,102.5 622.4,104.4 622.6,104.8 622.7,104.2 622.9,105.7 623.1,105.1 623.3,119.7 623.4,123.7 623.6,121.3 623.8,118.9 623.9,116.3 624.1,116.5 624.3,115.2 624.5,114.8 624.6,114.5 624.8,116.3 625.0,120.0 625.2,119.7 625.3,118.5 625.5,118.9 625.7,117.9 625.8,113.5 626.0,110.9 626.2,107.3 626.4,114.9 626.5,113.1 626.7,111.1 626.9,110.7 627.1,109.5 627.2,109.8 627.4,112.0 627.6,111.8 627.7,106.6 627.9,108.0 628.1,116.9 628.3,120.9 628.4,121.7 628.6,121.4 628.8,121.4 629.0,128.1 629.1,128.9 629.3,127.7 629.5,127.1 629.7,126.0 629.8,125.4 630.0,127.0 630.2,129.2 630.3,129.6 630.5,129.7 630.7,127.6 630.9,128.2 631.0,130.0 631.2,129.8 631.4,133.1 631.6,130.3 631.7,130.7 631.9,129.5 632.1,124.6 632.2,123.3 632.4,119.5 632.6,119.9 632.8,120.0 632.9,120.1 633.1,119.0 633.3,120.5 633.5,120.6 633.6,119.7 633.8,115.8 634.0,117.9 634.1,106.8 634.3,105.8 634.5,103.1 634.7,103.6 634.8,103.3 635.0,102.0 635.2,105.7 635.4,103.6 635.5,106.6 635.7,104.7 635.9,105.1 636.0,106.0 636.2,110.1 636.4,108.6 636.6,108.9 636.7,108.1 636.9,107.6 637.1,104.0 637.3,105.9 637.4,110.1 637.6,106.1 637.8,107.3 637.9,104.4 638.1,108.5 638.3,116.5 638.5,117.8 638.6,121.0 638.8,118.0 639.0,117.5 639.2,121.2 639.3,120.5 639.5,123.0 639.7,125.4 639.8,121.4 640.0,117.4 640.2,117.4 640.4,119.3 640.5,123.7 640.7,123.7 640.9,123.0 641.1,124.4 641.2,138.3 641.4,149.3 641.6,150.9 641.7,152.3 641.9,139.1 642.1,144.0 642.3,141.6 642.4,140.5 642.6,141.5 642.8,141.4 643.0,139.3 643.1,142.6 643.3,137.1 643.5,134.2 643.6,130.3 643.8,129.5 644.0,129.8 644.2,125.1 644.3,121.8 644.5,121.5 644.7,115.4 644.9,118.7 645.0,122.0 645.2,120.9 645.4,117.1 645.5,117.8 645.7,110.3 645.9,110.8 646.1,113.4 646.2,111.3 646.4,108.9 646.6,109.0 646.8,110.7 646.9,113.0 647.1,113.7 647.3,115.8 647.4,112.0 647.6,113.0 647.8,113.0 648.0,112.3 648.1,112.9 648.3,110.4 648.5,111.2 648.7,111.3 648.8,111.2 649.0,109.6 649.2,108.1 649.3,110.7 649.5,110.2 649.7,113.3 649.9,109.7 650.0,113.5 650.2,113.9 650.4,115.1 650.6,113.3 650.7,110.4 650.9,109.8 651.1,106.4 651.2,108.6 651.4,106.6 651.6,103.8 651.8,102.6 651.9,101.6 652.1,103.8 652.3,103.1 652.5,102.8 652.6,102.8 652.8,103.9 653.0,103.8 653.1,106.1 653.3,104.8 653.5,101.3 653.7,100.8 653.8,102.2 654.0,103.7 654.2,102.5 654.4,103.4 654.5,101.1 654.7,101.6 654.9,102.1 655.0,104.5 655.2,80.3 655.4,84.5 655.6,81.4 655.7,82.0 655.9,82.0 656.1,82.3 656.3,83.7 656.4,83.3 656.6,82.4 656.8,82.2 657.0,85.1 657.1,86.9 657.3,86.8 657.5,85.1 657.6,85.0 657.8,87.9 658.0,81.8 658.2,83.7 658.3,82.5 658.5,80.3 658.7,81.4 658.9,85.6 659.0,87.7 659.2,88.8 659.4,84.9 659.5,87.3 659.7,88.2 659.9,92.5 660.1,92.2 660.2,85.2 660.4,85.6 660.6,85.3 660.8,87.0 660.9,86.6 661.1,84.5 661.3,83.3 661.4,82.2 661.6,82.9 661.8,85.7 662.0,85.8 662.1,83.0 662.3,81.5 662.5,75.3 662.7,74.7 662.8,72.7 663.0,71.3 663.2,71.2 663.3,74.2 663.5,74.1 663.7,76.5 663.9,80.8 664.0,77.9 664.2,76.9 664.4,78.3 664.6,79.9 664.7,78.1 664.9,76.6 665.1,75.9 665.2,77.9 665.4,75.0 665.6,74.0 665.8,72.1 665.9,70.2 666.1,65.9 666.3,68.4 666.5,69.6 666.6,72.6 666.8,71.6 667.0,69.8 667.1,70.4 667.3,68.8 667.5,69.2 667.7,71.4 667.8,71.2 668.0,75.7 668.2,83.6 668.4,86.6 668.5,88.0 668.7,90.0 668.9,91.6 669.0,87.6 669.2,85.1 669.4,85.7 669.6,86.3 669.7,87.1 669.9,89.3 670.1,89.3 670.3,86.7 670.4,86.8 670.6,90.0 670.8,91.2 670.9,93.5 671.1,90.9 671.3,88.2 671.5,93.3 671.6,91.3 671.8,92.4 672.0,93.6 672.2,94.0 672.3,91.6 672.5,89.8 672.7,90.6 672.8,90.5 673.0,90.3 673.2,91.0 673.4,92.4 673.5,94.9 673.7,93.3 673.9,90.0 674.1,86.0 674.2,89.3 674.4,86.7 674.6,88.8 674.7,89.9 674.9,88.1 675.1,88.1 675.3,80.0 675.4,77.7 675.6,90.3 675.8,85.2 676.0,83.2 676.1,86.1 676.3,82.5 676.5,87.6 676.6,96.0 676.8,91.9 677.0,91.9 677.2,88.5 677.3,90.7 677.5,88.7 677.7,89.6 677.9,84.6 678.0,87.9 678.2,107.4 678.4,111.1 678.5,112.2 678.7,108.8 678.9,108.7 679.1,106.8 679.2,106.9 679.4,107.8 679.6,110.2 679.8,108.7 679.9,108.5 680.1,102.2 680.3,106.3 680.4,107.3 680.6,110.4 680.8,106.6 681.0,112.1 681.1,117.3 681.3,116.7 681.5,118.1 681.7,118.7 681.8,122.7 682.0,123.0 682.2,120.9 682.3,119.7 682.5,123.4 682.7,121.9 682.9,122.0 683.0,122.9 683.2,122.0 683.4,119.7 683.6,123.6 683.7,127.0 683.9,129.4 684.1,123.6 684.3,118.5 684.4,120.6 684.6,116.1 684.8,115.4 684.9,109.0 685.1,106.6 685.3,107.7 685.5,107.5 685.6,106.1 685.8,113.8 686.0,113.8 686.2,120.8 686.3,122.0 686.5,122.8 686.7,120.2 686.8,119.8 687.0,120.2 687.2,116.7 687.4,126.4 687.5,130.7 687.7,125.9 687.9,130.7 688.1,131.7 688.2,129.0 688.4,125.2 688.6,130.3 688.7,133.6 688.9,136.6 689.1,137.4 689.3,141.7 689.4,141.0 689.6,143.3 689.8,142.9 690.0,146.3 690.1,143.1 690.3,142.3 690.5,139.5 690.6,138.1 690.8,139.8 691.0,141.3 691.2,140.8 691.3,142.9 691.5,139.5 691.7,140.5 691.9,139.7 692.0,140.1 692.2,140.8 692.4,138.5 692.5,145.0 692.7,141.6 692.9,139.9 693.1,138.3 693.2,136.5 693.4,139.5 693.6,137.6 693.8,137.0 693.9,139.3 694.1,136.5 694.3,127.9 694.4,128.9 694.6,128.4 694.8,125.9 695.0,127.5 695.1,126.0 695.3,123.8 695.5,121.6 695.7,125.1 695.8,124.7 696.0,120.2"/>
  <polyline fill="none" stroke="#16a34a" stroke-width="2" points="56.0,287.9 56.2,286.0 56.3,286.3 56.5,286.2 56.7,287.1 56.9,287.1 57.0,285.7 57.2,285.3 57.4,285.3 57.6,286.6 57.7,285.5 57.9,285.2 58.1,283.6 58.2,282.6 58.4,283.8 58.6,284.2 58.8,286.3 58.9,287.3 59.1,286.7 59.3,288.5 59.5,288.9 59.6,288.7 59.8,288.5 60.0,288.4 60.1,288.1 60.3,288.6 60.5,288.5 60.7,289.0 60.8,289.0 61.0,288.9 61.2,290.1 61.4,289.2 61.5,289.6 61.7,288.5 61.9,287.9 62.0,287.9 62.2,286.5 62.4,286.9 62.6,287.4 62.7,288.6 62.9,287.7 63.1,288.5 63.3,288.6 63.4,289.4 63.6,288.5 63.8,287.2 63.9,287.9 64.1,287.8 64.3,286.8 64.5,286.9 64.6,286.8 64.8,286.5 65.0,285.7 65.2,285.0 65.3,285.4 65.5,286.4 65.7,284.9 65.8,285.6 66.0,286.3 66.2,286.2 66.4,285.6 66.5,284.8 66.7,285.4 66.9,285.5 67.1,285.5 67.2,283.2 67.4,283.8 67.6,284.3 67.7,285.3 67.9,284.7 68.1,283.9 68.3,285.0 68.4,285.2 68.6,285.0 68.8,285.0 69.0,283.5 69.1,283.8 69.3,283.1 69.5,283.5 69.7,282.8 69.8,282.5 70.0,282.9 70.2,283.0 70.3,283.1 70.5,283.3 70.7,283.2 70.9,282.9 71.0,282.2 71.2,281.8 71.4,282.3 71.6,281.8 71.7,282.7 71.9,282.5 72.1,283.4 72.2,284.9 72.4,283.7 72.6,283.9 72.8,284.5 72.9,285.2 73.1,284.5 73.3,283.8 73.5,282.7 73.6,282.3 73.8,280.7 74.0,280.8 74.1,280.2 74.3,281.1 74.5,281.5 74.7,282.6 74.8,282.6 75.0,282.8 75.2,282.8 75.4,281.7 75.5,281.5 75.7,281.5 75.9,282.0 76.0,281.9 76.2,280.9 76.4,281.0 76.6,281.8 76.7,281.5 76.9,282.5 77.1,283.3 77.3,283.2 77.4,282.6 77.6,283.5 77.8,283.3 77.9,282.8 78.1,282.0 78.3,283.0 78.5,282.5 78.6,283.4 78.8,283.0 79.0,282.0 79.2,281.3 79.3,280.8 79.5,281.7 79.7,282.0 79.8,281.9 80.0,282.7 80.2,284.1 80.4,284.5 80.5,284.3 80.7,284.7 80.9,284.7 81.1,284.8 81.2,285.9 81.4,286.3 81.6,286.0 81.7,287.6 81.9,287.2 82.1,286.0 82.3,285.6 82.4,285.3 82.6,284.7 82.8,285.5 83.0,285.1 83.1,285.8 83.3,286.1 83.5,287.5 83.6,287.5 83.8,287.3 84.0,285.8 84.2,285.3 84.3,285.0 84.5,285.7 84.7,285.6 84.9,286.3 85.0,286.6 85.2,286.1 85.4,286.4 85.5,286.5 85.7,287.1 85.9,287.9 86.1,288.3 86.2,289.0 86.4,288.5 86.6,287.8 86.8,287.3 86.9,286.3 87.1,286.6 87.3,285.4 87.4,285.7 87.6,286.3 87.8,286.6 88.0,287.7 88.1,288.5 88.3,289.8 88.5,289.5 88.7,289.8 88.8,288.9 89.0,288.5 89.2,288.1 89.3,288.7 89.5,288.6 89.7,289.1 89.9,288.5 90.0,288.8 90.2,288.0 90.4,288.0 90.6,288.4 90.7,288.5 90.9,289.1 91.1,288.3 91.2,288.1 91.4,287.9 91.6,288.1 91.8,287.5 91.9,287.6 92.1,287.5 92.3,288.2 92.5,287.8 92.6,286.7 92.8,286.4 93.0,286.1 93.1,286.3 93.3,286.6 93.5,287.3 93.7,287.5 93.8,288.1 94.0,288.3 94.2,288.3 94.4,288.2 94.5,287.8 94.7,288.3 94.9,288.2 95.0,286.7 95.2,286.4 95.4,287.3 95.6,286.0 95.7,286.6 95.9,286.0 96.1,285.6 96.3,286.0 96.4,285.4 96.6,284.9 96.8,285.6 97.0,285.9 97.1,285.8 97.3,285.9 97.5,286.7 97.6,286.1 97.8,286.4 98.0,286.2 98.2,286.2 98.3,286.6 98.5,286.4 98.7,286.4 98.9,286.4 99.0,287.0 99.2,287.4 99.4,287.8 99.5,287.3 99.7,287.1 99.9,286.0 100.1,286.5 100.2,287.2 100.4,288.0 100.6,287.8 100.8,288.0 100.9,289.3 101.1,288.8 101.3,289.1 101.4,287.9 101.6,285.9 101.8,285.5 102.0,284.9 102.1,284.8 102.3,286.1 102.5,286.8 102.7,287.1 102.8,287.0 103.0,287.4 103.2,288.3 103.3,288.3 103.5,288.0 103.7,286.9 103.9,286.4 104.0,286.0 104.2,285.7 104.4,285.1 104.6,285.5 104.7,285.0 104.9,284.7 105.1,284.7 105.2,285.3 105.4,285.4 105.6,284.9 105.8,284.7 105.9,284.2 106.1,284.1 106.3,283.8 106.5,283.5 106.6,283.7 106.8,283.6 107.0,283.9 107.1,282.8 107.3,282.2 107.5,283.4 107.7,283.6 107.8,283.4 108.0,283.5 108.2,283.4 108.4,284.2 108.5,283.0 108.7,282.3 108.9,282.5 109.0,282.5 109.2,283.2 109.4,283.7 109.6,283.0 109.7,282.3 109.9,282.9 110.1,282.8 110.3,282.9 110.4,283.3 110.6,282.4 110.8,282.3 110.9,282.0 111.1,281.6 111.3,281.5 111.5,282.0 111.6,281.6 111.8,281.5 112.0,281.5 112.2,281.6 112.3,281.4 112.5,282.2 112.7,281.8 112.8,281.7 113.0,283.3 113.2,283.0 113.4,282.4 113.5,281.5 113.7,281.0 113.9,280.6 114.1,281.0 114.2,280.1 114.4,281.5 114.6,282.0 114.7,281.8 114.9,283.1 115.1,283.2 115.3,282.4 115.4,282.3 115.6,282.3 115.8,282.3 116.0,280.7 116.1,279.1 116.3,280.8 116.5,280.7 116.6,280.1 116.8,280.5 117.0,280.6 117.2,280.2 117.3,279.8 117.5,280.1 117.7,280.7 117.9,280.6 118.0,280.5 118.2,280.7 118.4,281.9 118.5,282.0 118.7,282.7 118.9,282.2 119.1,282.7 119.2,282.8 119.4,283.0 119.6,281.9 119.8,282.1 119.9,281.7 120.1,281.5 120.3,280.3 120.4,280.0 120.6,280.4 120.8,282.4 121.0,282.0 121.1,282.7 121.3,283.1 121.5,283.2 121.7,283.4 121.8,282.5 122.0,282.0 122.2,281.7 122.3,281.9 122.5,281.0 122.7,281.9 122.9,282.3 123.0,282.4 123.2,282.5 123.4,282.5 123.6,282.0 123.7,281.3 123.9,281.7 124.1,281.8 124.3,282.2 124.4,280.9 124.6,280.4 124.8,280.3 124.9,279.8 125.1,279.9 125.3,280.2 125.5,280.6 125.6,281.4 125.8,281.7 126.0,281.3 126.2,281.4 126.3,280.5 126.5,281.2 126.7,281.0 126.8,281.7 127.0,282.8 127.2,282.7 127.4,282.2 127.5,282.3 127.7,282.8 127.9,283.2 128.1,282.7 128.2,283.0 128.4,282.7 128.6,282.0 128.7,282.7 128.9,284.2 129.1,284.7 129.3,285.3 129.4,285.0 129.6,284.8 129.8,283.8 130.0,283.3 130.1,282.0 130.3,282.3 130.5,282.1 130.6,281.5 130.8,281.2 131.0,280.5 131.2,279.8 131.3,279.7 131.5,279.6 131.7,279.6 131.9,280.4 132.0,280.4 132.2,279.8 132.4,280.1 132.5,279.9 132.7,280.2 132.9,280.4 133.1,280.0 133.2,280.3 133.4,280.7 133.6,285.7 133.8,286.7 133.9,286.3 134.1,286.2 134.3,286.1 134.4,285.9 134.6,286.8 134.8,286.7 135.0,286.7 135.1,286.9 135.3,286.7 135.5,286.6 135.7,287.1 135.8,287.4 136.0,287.3 136.2,287.8 136.3,288.0 136.5,287.7 136.7,287.8 136.9,287.3 137.0,287.9 137.2,287.5 137.4,286.7 137.6,287.0 137.7,286.5 137.9,285.8 138.1,285.0 138.2,284.6 138.4,283.5 138.6,283.0 138.8,283.0 138.9,283.2 139.1,283.3 139.3,282.9 139.5,282.7 139.6,282.3 139.8,282.3 140.0,282.9 140.1,283.2 140.3,282.5 140.5,282.3 140.7,281.0 140.8,281.5 141.0,281.6 141.2,281.0 141.4,281.2 141.5,281.6 141.7,281.1 141.9,281.4 142.0,282.5 142.2,282.8 142.4,281.6 142.6,281.3 142.7,281.2 142.9,281.6 143.1,281.6 143.3,282.3 143.4,281.7 143.6,280.9 143.8,281.1 143.9,280.9 144.1,280.3 144.3,279.7 144.5,279.8 144.6,273.6 144.8,272.0 145.0,270.2 145.2,272.4 145.3,271.3 145.5,271.5 145.7,271.9 145.8,272.6 146.0,271.1 146.2,271.2 146.4,271.2 146.5,270.5 146.7,270.4 146.9,270.3 147.1,271.2 147.2,270.8 147.4,270.6 147.6,270.1 147.7,270.1 147.9,270.2 148.1,269.9 148.3,269.8 148.4,270.1 148.6,271.3 148.8,271.8 149.0,271.9 149.1,271.5 149.3,271.9 149.5,271.7 149.7,271.9 149.8,273.0 150.0,271.9 150.2,271.4 150.3,271.3 150.5,270.9 150.7,269.9 150.9,270.8 151.0,271.0 151.2,270.8 151.4,270.5 151.6,269.9 151.7,270.1 151.9,270.1 152.1,270.1 152.2,270.8 152.4,270.3 152.6,270.4 152.8,270.2 152.9,270.3 153.1,270.0 153.3,269.5 153.5,269.3 153.6,268.4 153.8,267.0 154.0,266.5 154.1,266.7 154.3,267.8 154.5,266.8 154.7,268.6 154.8,271.6 155.0,272.1 155.2,271.3 155.4,272.4 155.5,272.2 155.7,272.2 155.9,273.2 156.0,267.2 156.2,268.5 156.4,266.9 156.6,266.0 156.7,266.1 156.9,265.7 157.1,265.2 157.3,264.5 157.4,264.1 157.6,263.2 157.8,264.9 157.9,263.0 158.1,262.7 158.3,261.8 158.5,262.9 158.6,262.0 158.8,261.8 159.0,261.9 159.2,263.2 159.3,262.8 159.5,263.3 159.7,263.7 159.8,263.1 160.0,264.1 160.2,264.5 160.4,265.2 160.5,266.4 160.7,266.3 160.9,266.2 161.1,266.3 161.2,266.9 161.4,267.1 161.6,267.2 161.7,268.1 161.9,266.6 162.1,267.9 162.3,268.0 162.4,267.6 162.6,266.9 162.8,265.7 163.0,264.6 163.1,265.5 163.3,265.4 163.5,267.0 163.6,267.6 163.8,265.9 164.0,267.8 164.2,269.0 164.3,269.2 164.5,269.6 164.7,268.5 164.9,268.9 165.0,268.5 165.2,268.1 165.4,268.2 165.5,268.0 165.7,268.7 165.9,268.8 166.1,266.9 166.2,264.9 166.4,266.0 166.6,266.2 166.8,266.3 166.9,266.0 167.1,265.5 167.3,265.4 167.4,265.6 167.6,264.1 167.8,264.3 168.0,264.6 168.1,265.5 168.3,266.1 168.5,264.4 168.7,265.4 168.8,264.5 169.0,264.3 169.2,263.5 169.3,263.3 169.5,263.9 169.7,266.4 169.9,265.4 170.0,265.0 170.2,265.5 170.4,266.1 170.6,265.3 170.7,264.6 170.9,264.0 171.1,264.0 171.2,264.3 171.4,264.6 171.6,263.2 171.8,263.4 171.9,263.2 172.1,262.6 172.3,261.9 172.5,261.3 172.6,261.1 172.8,262.1 173.0,261.8 173.1,262.2 173.3,262.0 173.5,262.3 173.7,262.2 173.8,263.1 174.0,262.4 174.2,264.2 174.4,265.3 174.5,265.0 174.7,265.5 174.9,265.7 175.0,265.0 175.2,265.5 175.4,264.9 175.6,266.4 175.7,265.1 175.9,264.8 176.1,264.9 176.3,265.4 176.4,265.6 176.6,266.2 176.8,266.9 177.0,265.6 177.1,266.9 177.3,268.9 177.5,269.4 177.6,268.9 177.8,268.3 178.0,268.3 178.2,267.6 178.3,267.5 178.5,266.7 178.7,266.8 178.9,266.4 179.0,266.5 179.2,266.4 179.4,265.2 179.5,265.0 179.7,264.2 179.9,264.6 180.1,265.2 180.2,264.5 180.4,264.8 180.6,265.2 180.8,265.5 180.9,265.5 181.1,264.1 181.3,264.5 181.4,264.4 181.6,264.6 181.8,264.8 182.0,265.3 182.1,265.4 182.3,265.2 182.5,265.7 182.7,265.6 182.8,265.0 183.0,265.2 183.2,264.6 183.3,264.6 183.5,265.4 183.7,265.2 183.9,265.3 184.0,266.8 184.2,266.6 184.4,267.2 184.6,268.5 184.7,269.6 184.9,269.4 185.1,269.3 185.2,268.4 185.4,270.8 185.6,270.0 185.8,272.2 185.9,273.7 186.1,274.7 186.3,273.3 186.5,272.3 186.6,271.0 186.8,270.7 187.0,271.6 187.1,270.2 187.3,271.0 187.5,269.3 187.7,268.8 187.8,269.3 188.0,266.8 188.2,268.1 188.4,268.0 188.5,267.0 188.7,267.6 188.9,267.8 189.0,267.0 189.2,265.7 189.4,265.9 189.6,265.4 189.7,265.3 189.9,265.0 190.1,265.1 190.3,264.9 190.4,264.7 190.6,263.8 190.8,265.3 190.9,265.1 191.1,263.8 191.3,263.5 191.5,263.5 191.6,263.3 191.8,263.6 192.0,263.4 192.2,264.2 192.3,262.7 192.5,263.2 192.7,263.2 192.8,264.5 193.0,264.0 193.2,266.2 193.4,266.0 193.5,267.3 193.7,267.2 193.9,267.2 194.1,266.1 194.2,264.0 194.4,263.2 194.6,262.9 194.7,263.0 194.9,262.9 195.1,262.6 195.3,262.7 195.4,263.5 195.6,264.1 195.8,264.1 196.0,268.1 196.1,268.5 196.3,268.0 196.5,267.6 196.6,268.7 196.8,270.1 197.0,269.9 197.2,270.3 197.3,270.7 197.5,270.3 197.7,270.4 197.9,269.2 198.0,268.8 198.2,269.1 198.4,269.0 198.5,269.8 198.7,270.6 198.9,270.8 199.1,270.9 199.2,269.8 199.4,268.7 199.6,269.6 199.8,269.6 199.9,269.0 200.1,269.2 200.3,268.7 200.4,268.9 200.6,268.3 200.8,267.5 201.0,267.9 201.1,267.9 201.3,268.2 201.5,267.6 201.7,268.0 201.8,267.7 202.0,267.6 202.2,268.0 202.3,268.2 202.5,267.4 202.7,267.5 202.9,268.2 203.0,268.4 203.2,269.1 203.4,268.9 203.6,269.9 203.7,270.1 203.9,269.1 204.1,270.0 204.3,269.3 204.4,269.9 204.6,267.9 204.8,268.4 204.9,267.7 205.1,269.2 205.3,269.3 205.5,269.8 205.6,269.9 205.8,269.4 206.0,268.8 206.2,269.3 206.3,268.7 206.5,268.0 206.7,267.5 206.8,267.5 207.0,268.9 207.2,269.4 207.4,269.0 207.5,269.1 207.7,269.0 207.9,268.5 208.1,267.9 208.2,269.1 208.4,268.6 208.6,268.8 208.7,268.6 208.9,267.8 209.1,268.3 209.3,267.1 209.4,267.0 209.6,266.6 209.8,265.9 210.0,265.7 210.1,266.1 210.3,266.5 210.5,266.7 210.6,266.5 210.8,266.1 211.0,266.2 211.2,266.8 211.3,266.3 211.5,265.8 211.7,266.2 211.9,265.9 212.0,266.3 212.2,266.2 212.4,265.7 212.5,265.9 212.7,267.1 212.9,266.8 213.1,266.4 213.2,266.7 213.4,266.6 213.6,266.5 213.8,266.0 213.9,266.9 214.1,267.0 214.3,267.4 214.4,267.5 214.6,266.7 214.8,266.1 215.0,266.7 215.1,267.4 215.3,266.9 215.5,267.0 215.7,266.1 215.8,266.9 216.0,265.9 216.2,265.4 216.3,265.5 216.5,266.0 216.7,266.0 216.9,267.2 217.0,265.8 217.2,266.2 217.4,266.4 217.6,267.2 217.7,267.0 217.9,268.4 218.1,268.4 218.2,268.7 218.4,267.5 218.6,266.8 218.8,267.7 218.9,267.6 219.1,268.0 219.3,268.0 219.5,269.0 219.6,269.4 219.8,269.9 220.0,270.0 220.1,270.4 220.3,269.8 220.5,269.0 220.7,269.0 220.8,270.2 221.0,271.4 221.2,271.5 221.4,271.3 221.5,271.6 221.7,272.0 221.9,270.9 222.0,271.8 222.2,271.7 222.4,272.0 222.6,271.6 222.7,271.5 222.9,272.1 223.1,272.6 223.3,273.4 223.4,274.4 223.6,276.4 223.8,277.2 223.9,275.6 224.1,273.9 224.3,273.3 224.5,273.8 224.6,276.0 224.8,275.6 225.0,273.9 225.2,275.1 225.3,273.8 225.5,274.4 225.7,274.3 225.8,273.7 226.0,274.2 226.2,272.8 226.4,272.2 226.5,272.7 226.7,274.1 226.9,273.5 227.1,273.9 227.2,274.9 227.4,273.6 227.6,273.7 227.7,274.4 227.9,274.6 228.1,273.1 228.3,273.4 228.4,271.9 228.6,271.9 228.8,272.1 229.0,271.0 229.1,269.4 229.3,269.6 229.5,270.0 229.7,270.5 229.8,271.3 230.0,269.8 230.2,269.8 230.3,270.0 230.5,269.6 230.7,269.9 230.9,268.3 231.0,267.3 231.2,267.8 231.4,267.9 231.6,267.0 231.7,267.1 231.9,266.9 232.1,266.5 232.2,266.6 232.4,266.5 232.6,266.3 232.8,266.1 232.9,266.9 233.1,266.0 233.3,266.0 233.5,268.0 233.6,267.8 233.8,266.6 234.0,265.9 234.1,265.1 234.3,264.8 234.5,265.1 234.7,265.0 234.8,265.1 235.0,264.8 235.2,264.9 235.4,265.4 235.5,264.8 235.7,266.0 235.9,266.4 236.0,264.8 236.2,266.1 236.4,267.2 236.6,267.2 236.7,266.4 236.9,267.3 237.1,266.5 237.3,266.4 237.4,265.1 237.6,266.9 237.8,267.9 237.9,267.4 238.1,266.8 238.3,265.7 238.5,265.8 238.6,266.0 238.8,265.7 239.0,266.1 239.2,266.8 239.3,267.5 239.5,267.5 239.7,268.3 239.8,269.9 240.0,270.5 240.2,271.0 240.4,270.6 240.5,272.2 240.7,271.8 240.9,272.9 241.1,272.9 241.2,273.2 241.4,272.4 241.6,271.0 241.7,271.5 241.9,270.1 242.1,269.6 242.3,269.5 242.4,267.7 242.6,268.3 242.8,269.6 243.0,268.2 243.1,265.8 243.3,266.5 243.5,267.3 243.6,266.4 243.8,266.9 244.0,267.3 244.2,265.9 244.3,265.9 244.5,264.8 244.7,265.0 244.9,265.9 245.0,264.8 245.2,265.4 245.4,265.1 245.5,265.0 245.7,264.7 245.9,265.2 246.1,264.3 246.2,264.1 246.4,263.9 246.6,263.8 246.8,263.2 246.9,264.4 247.1,263.9 247.3,264.3 247.4,263.4 247.6,264.1 247.8,264.0 248.0,263.1 248.1,262.5 248.3,261.7 248.5,261.7 248.7,261.8 248.8,261.8 249.0,261.1 249.2,260.9 249.3,259.6 249.5,259.0 249.7,259.2 249.9,258.6 250.0,259.4 250.2,259.0 250.4,258.7 250.6,259.2 250.7,258.6 250.9,258.6 251.1,257.9 251.2,257.6 251.4,257.3 251.6,256.8 251.8,256.2 251.9,256.1 252.1,257.0 252.3,257.6 252.5,256.5 252.6,256.9 252.8,255.8 253.0,255.7 253.1,257.0 253.3,257.7 253.5,256.9 253.7,257.5 253.8,258.6 254.0,258.1 254.2,257.5 254.4,258.0 254.5,256.4 254.7,255.8 254.9,255.2 255.0,255.3 255.2,254.8 255.4,254.7 255.6,255.1 255.7,255.5 255.9,254.7 256.1,254.7 256.3,253.1 256.4,252.6 256.6,252.6 256.8,252.9 257.0,252.7 257.1,252.4 257.3,251.8 257.5,251.3 257.6,250.9 257.8,250.4 258.0,249.6 258.2,249.9 258.3,250.5 258.5,251.0 258.7,251.0 258.9,251.1 259.0,251.5 259.2,251.2 259.4,250.2 259.5,250.4 259.7,250.6 259.9,249.8 260.1,253.6 260.2,256.1 260.4,255.5 260.6,254.5 260.8,252.7 260.9,252.3 261.1,252.4 261.3,251.1 261.4,251.0 261.6,249.7 261.8,248.7 262.0,248.5 262.1,248.6 262.3,249.0 262.5,248.6 262.7,248.7 262.8,248.4 263.0,248.3 263.2,249.1 263.3,248.7 263.5,248.9 263.7,247.3 263.9,247.3 264.0,247.1 264.2,247.3 264.4,247.3 264.6,249.7 264.7,250.0 264.9,248.8 265.1,248.1 265.2,247.8 265.4,247.1 265.6,247.1 265.8,246.0 265.9,246.2 266.1,242.9 266.3,243.2 266.5,242.9 266.6,242.7 266.8,242.1 267.0,241.7 267.1,241.9 267.3,242.4 267.5,242.5 267.7,242.3 267.8,241.8 268.0,241.8 268.2,242.0 268.4,242.8 268.5,241.9 268.7,241.8 268.9,241.9 269.0,241.7 269.2,245.8 269.4,243.8 269.6,244.4 269.7,244.4 269.9,243.1 270.1,243.6 270.3,242.6 270.4,242.2 270.6,240.4 270.8,239.0 270.9,240.8 271.1,240.9 271.3,239.9 271.5,239.7 271.6,240.4 271.8,239.3 272.0,239.2 272.2,239.6 272.3,240.1 272.5,240.3 272.7,242.2 272.8,242.8 273.0,244.0 273.2,243.3 273.4,244.1 273.5,244.4 273.7,244.9 273.9,245.0 274.1,244.4 274.2,245.4 274.4,245.5 274.6,245.8 274.7,246.9 274.9,246.3 275.1,246.9 275.3,245.9 275.4,246.4 275.6,248.3 275.8,248.7 276.0,248.3 276.1,248.0 276.3,246.0 276.5,244.7 276.6,242.4 276.8,238.8 277.0,238.8 277.2,237.9 277.3,235.3 277.5,236.0 277.7,236.6 277.9,237.8 278.0,237.5 278.2,238.5 278.4,238.6 278.5,238.5 278.7,240.7 278.9,241.2 279.1,240.8 279.2,240.4 279.4,240.4 279.6,240.5 279.8,239.8 279.9,239.9 280.1,240.2 280.3,240.9 280.4,241.8 280.6,241.8 280.8,242.5 281.0,243.3 281.1,243.3 281.3,242.2 281.5,241.9 281.7,242.1 281.8,241.6 282.0,241.8 282.2,242.0 282.3,243.6 282.5,243.9 282.7,244.3 282.9,244.1 283.0,242.8 283.2,243.6 283.4,244.2 283.6,244.6 283.7,245.0 283.9,244.5 284.1,246.4 284.3,245.6 284.4,246.6 284.6,246.2 284.8,245.1 284.9,245.1 285.1,246.1 285.3,245.1 285.5,243.2 285.6,243.3 285.8,243.4 286.0,244.4 286.2,244.7 286.3,245.0 286.5,245.6 286.7,244.8 286.8,248.4 287.0,248.3 287.2,248.7 287.4,247.6 287.5,247.2 287.7,246.5 287.9,247.6 288.1,247.5 288.2,247.4 288.4,247.3 288.6,246.4 288.7,246.5 288.9,247.8 289.1,247.1 289.3,245.3 289.4,246.7 289.6,244.3 289.8,245.4 290.0,245.7 290.1,246.0 290.3,245.6 290.5,247.7 290.6,247.5 290.8,246.5 291.0,246.1 291.2,246.9 291.3,246.0 291.5,245.7 291.7,244.9 291.9,245.5 292.0,246.8 292.2,244.7 292.4,245.4 292.5,244.8 292.7,245.1 292.9,244.1 293.1,244.6 293.2,243.7 293.4,243.1 293.6,244.4 293.8,242.9 293.9,242.8 294.1,241.9 294.3,242.1 294.4,242.2 294.6,242.3 294.8,244.6 295.0,245.4 295.1,244.4 295.3,245.0 295.5,244.7 295.7,243.1 295.8,242.4 296.0,241.0 296.2,240.4 296.3,241.0 296.5,240.7 296.7,241.1 296.9,241.2 297.0,242.8 297.2,243.6 297.4,240.9 297.6,239.5 297.7,239.7 297.9,240.3 298.1,241.7 298.2,242.0 298.4,241.8 298.6,239.5 298.8,240.4 298.9,240.8 299.1,240.9 299.3,240.0 299.5,239.6 299.6,238.7 299.8,239.0 300.0,239.8 300.1,241.1 300.3,240.4 300.5,239.8 300.7,239.3 300.8,238.3 301.0,238.0 301.2,238.9 301.4,237.5 301.5,237.3 301.7,236.7 301.9,236.6 302.0,237.0 302.2,237.2 302.4,236.7 302.6,236.5 302.7,236.3 302.9,236.8 303.1,237.4 303.3,236.9 303.4,236.0 303.6,235.4 303.8,235.7 303.9,234.9 304.1,235.0 304.3,234.1 304.5,234.1 304.6,235.0 304.8,235.9 305.0,235.0 305.2,235.5 305.3,236.0 305.5,234.3 305.7,233.4 305.8,233.0 306.0,231.9 306.2,232.4 306.4,231.3 306.5,231.5 306.7,230.4 306.9,230.2 307.1,231.1 307.2,231.6 307.4,231.6 307.6,231.5 307.7,231.9 307.9,227.5 308.1,226.4 308.3,227.0 308.4,226.2 308.6,226.2 308.8,226.5 309.0,226.8 309.1,228.0 309.3,227.8 309.5,226.5 309.7,226.5 309.8,226.4 310.0,228.1 310.2,227.9 310.3,227.4 310.5,226.3 310.7,226.3 310.9,226.1 311.0,225.4 311.2,224.3 311.4,224.3 311.6,223.6 311.7,222.7 311.9,222.9 312.1,223.0 312.2,222.8 312.4,222.0 312.6,221.5 312.8,221.1 312.9,221.2 313.1,221.1 313.3,221.1 313.5,220.6 313.6,219.9 313.8,219.6 314.0,219.3 314.1,219.5 314.3,218.1 314.5,218.6 314.7,220.5 314.8,221.1 315.0,222.0 315.2,221.7 315.4,220.5 315.5,219.5 315.7,218.5 315.9,218.5 316.0,218.4 316.2,218.2 316.4,218.3 316.6,218.8 316.7,217.8 316.9,218.1 317.1,216.0 317.3,220.7 317.4,219.9 317.6,219.5 317.8,219.0 317.9,219.9 318.1,217.9 318.3,218.4 318.5,218.0 318.6,217.9 318.8,218.2 319.0,215.0 319.2,215.6 319.3,214.1 319.5,214.9 319.7,215.0 319.8,214.9 320.0,215.0 320.2,215.4 320.4,215.5 320.5,215.9 320.7,215.3 320.9,216.1 321.1,215.1 321.2,215.2 321.4,214.2 321.6,213.5 321.7,213.6 321.9,213.0 322.1,213.1 322.3,211.6 322.4,212.1 322.6,210.1 322.8,210.7 323.0,211.1 323.1,212.7 323.3,212.5 323.5,211.8 323.6,212.1 323.8,213.7 324.0,213.2 324.2,213.3 324.3,214.7 324.5,213.2 324.7,212.6 324.9,212.7 325.0,212.8 325.2,212.9 325.4,213.2 325.5,213.3 325.7,212.1 325.9,212.0 326.1,212.1 326.2,212.3 326.4,210.9 326.6,210.1 326.8,210.3 326.9,209.9 327.1,209.9 327.3,210.7 327.4,209.1 327.6,208.2 327.8,208.1 328.0,207.2 328.1,207.1 328.3,205.7 328.5,204.4 328.7,204.5 328.8,204.6 329.0,203.4 329.2,201.4 329.3,203.1 329.5,203.7 329.7,205.1 329.9,200.7 330.0,199.2 330.2,204.4 330.4,206.7 330.6,205.9 330.7,208.6 330.9,207.6 331.1,205.7 331.2,204.2 331.4,203.3 331.6,200.8 331.8,200.0 331.9,200.8 332.1,200.1 332.3,200.3 332.5,198.8 332.6,198.2 332.8,199.1 333.0,201.1 333.1,203.4 333.3,202.9 333.5,202.3 333.7,199.9 333.8,198.0 334.0,196.6 334.2,192.7 334.4,195.0 334.5,195.2 334.7,196.7 334.9,195.8 335.0,194.4 335.2,194.9 335.4,193.4 335.6,192.9 335.7,196.3 335.9,199.2 336.1,195.4 336.3,198.1 336.4,199.0 336.6,197.1 336.8,200.2 337.0,197.4 337.1,197.3 337.3,195.9 337.5,199.7 337.6,199.2 337.8,197.3 338.0,198.3 338.2,196.7 338.3,197.2 338.5,195.6 338.7,193.7 338.9,193.1 339.0,193.9 339.2,193.0 339.4,194.3 339.5,199.5 339.7,199.5 339.9,200.8 340.1,202.6 340.2,204.0 340.4,208.4 340.6,210.9 340.8,209.6 340.9,208.9 341.1,209.0 341.3,207.5 341.4,205.7 341.6,204.5 341.8,202.9 342.0,203.0 342.1,205.4 342.3,206.5 342.5,206.5 342.7,206.2 342.8,203.8 343.0,205.4 343.2,206.3 343.3,205.5 343.5,206.6 343.7,208.1 343.9,206.4 344.0,208.3 344.2,205.8 344.4,206.5 344.6,206.1 344.7,204.5 344.9,203.6 345.1,203.4 345.2,205.9 345.4,206.6 345.6,206.1 345.8,206.0 345.9,206.7 346.1,206.3 346.3,211.1 346.5,210.1 346.6,215.0 346.8,215.1 347.0,215.4 347.1,214.9 347.3,215.2 347.5,215.3 347.7,213.5 347.8,213.2 348.0,214.1 348.2,214.0 348.4,214.5 348.5,212.4 348.7,212.1 348.9,214.7 349.0,212.3 349.2,211.6 349.4,213.5 349.6,212.8 349.7,212.1 349.9,211.5 350.1,209.7 350.3,212.8 350.4,211.9 350.6,210.6 350.8,208.5 350.9,208.7 351.1,209.0 351.3,197.7 351.5,200.5 351.6,200.3 351.8,198.7 352.0,198.5 352.2,197.4 352.3,197.2 352.5,197.5 352.7,199.0 352.8,200.5 353.0,200.8 353.2,201.6 353.4,200.8 353.5,199.6 353.7,199.0 353.9,198.4 354.1,199.8 354.2,200.6 354.4,199.5 354.6,197.6 354.7,197.9 354.9,197.2 355.1,198.8 355.3,198.8 355.4,199.2 355.6,195.7 355.8,194.5 356.0,194.0 356.1,191.9 356.3,192.1 356.5,191.7 356.6,190.4 356.8,190.2 357.0,189.1 357.2,188.5 357.3,189.4 357.5,189.4 357.7,189.7 357.9,191.7 358.0,191.5 358.2,191.5 358.4,191.3 358.5,192.0 358.7,190.7 358.9,191.0 359.1,190.7 359.2,191.3 359.4,192.9 359.6,195.7 359.8,201.4 359.9,205.3 360.1,210.7 360.3,209.4 360.4,209.5 360.6,206.0 360.8,206.7 361.0,209.2 361.1,210.3 361.3,210.1 361.5,211.8 361.7,216.0 361.8,214.4 362.0,215.0 362.2,216.4 362.3,217.4 362.5,216.6 362.7,211.2 362.9,212.4 363.0,211.6 363.2,209.3 363.4,206.4 363.6,206.3 363.7,207.5 363.9,210.7 364.1,211.1 364.3,212.2 364.4,208.2 364.6,207.5 364.8,210.0 364.9,213.8 365.1,212.0 365.3,212.4 365.5,209.7 365.6,209.8 365.8,207.1 366.0,206.8 366.2,203.9 366.3,205.0 366.5,212.4 366.7,214.5 366.8,216.4 367.0,216.1 367.2,216.9 367.4,216.5 367.5,216.6 367.7,216.9 367.9,218.8 368.1,218.7 368.2,217.4 368.4,219.6 368.6,220.3 368.7,223.9 368.9,218.9 369.1,217.0 369.3,217.1 369.4,214.7 369.6,215.0 369.8,219.0 370.0,214.3 370.1,216.0 370.3,214.9 370.5,213.1 370.6,210.9 370.8,210.2 371.0,210.5 371.2,211.0 371.3,210.8 371.5,208.7 371.7,206.9 371.9,210.3 372.0,211.8 372.2,211.4 372.4,209.2 372.5,210.1 372.7,208.2 372.9,205.6 373.1,206.8 373.2,208.7 373.4,208.5 373.6,207.7 373.8,206.3 373.9,208.4 374.1,208.0 374.3,206.6 374.4,204.0 374.6,204.4 374.8,204.7 375.0,202.2 375.1,203.4 375.3,202.0 375.5,201.6 375.7,200.7 375.8,199.9 376.0,199.7 376.2,198.1 376.3,199.4 376.5,198.0 376.7,198.2 376.9,198.3 377.0,198.9 377.2,199.8 377.4,200.2 377.6,197.1 377.7,197.5 377.9,196.4 378.1,197.8 378.2,197.4 378.4,194.6 378.6,194.5 378.8,194.9 378.9,193.0 379.1,196.8 379.3,197.2 379.5,195.0 379.6,195.2 379.8,193.4 380.0,193.4 380.1,190.8 380.3,191.7 380.5,192.3 380.7,191.8 380.8,191.2 381.0,189.5 381.2,192.5 381.4,192.8 381.5,190.2 381.7,187.7 381.9,188.5 382.0,187.5 382.2,187.0 382.4,186.7 382.6,185.7 382.7,186.5 382.9,186.5 383.1,188.0 383.3,186.4 383.4,185.2 383.6,185.9 383.8,186.1 383.9,192.5 384.1,187.8 384.3,191.6 384.5,193.2 384.6,193.3 384.8,193.3 385.0,194.9 385.2,197.3 385.3,199.5 385.5,197.9 385.7,198.2 385.8,200.0 386.0,201.2 386.2,199.1 386.4,199.6 386.5,202.0 386.7,202.2 386.9,201.7 387.1,202.2 387.2,201.9 387.4,201.7 387.6,199.1 387.7,196.2 387.9,193.7 388.1,193.2 388.3,192.5 388.4,191.1 388.6,191.8 388.8,191.4 389.0,189.9 389.1,189.9 389.3,190.8 389.5,189.7 389.7,189.1 389.8,186.1 390.0,188.7 390.2,188.1 390.3,189.1 390.5,189.5 390.7,188.5 390.9,185.5 391.0,184.1 391.2,186.3 391.4,186.0 391.6,186.9 391.7,188.8 391.9,190.1 392.1,191.1 392.2,189.8 392.4,187.4 392.6,188.5 392.8,187.2 392.9,189.5 393.1,191.0 393.3,190.3 393.5,191.2 393.6,188.7 393.8,187.7 394.0,188.9 394.1,189.2 394.3,190.2 394.5,189.8 394.7,191.3 394.8,193.8 395.0,196.0 395.2,201.1 395.4,199.0 395.5,198.6 395.7,196.6 395.9,197.2 396.0,199.1 396.2,196.9 396.4,200.6 396.6,200.1 396.7,197.7 396.9,197.1 397.1,198.6 397.3,198.7 397.4,199.4 397.6,202.6 397.8,202.0 397.9,201.6 398.1,200.4 398.3,198.0 398.5,197.6 398.6,201.0 398.8,199.8 399.0,195.6 399.2,194.5 399.3,196.1 399.5,194.6 399.7,193.0 399.8,195.1 400.0,194.0 400.2,195.1 400.4,194.6 400.5,194.5 400.7,195.3 400.9,196.1 401.1,196.0 401.2,197.2 401.4,194.2 401.6,192.9 401.7,191.5 401.9,192.4 402.1,197.2 402.3,201.1 402.4,200.2 402.6,198.7 402.8,199.4 403.0,203.1 403.1,201.1 403.3,199.6 403.5,195.8 403.6,196.9 403.8,195.2 404.0,194.9 404.2,193.8 404.3,192.1 404.5,190.0 404.7,189.6 404.9,189.0 405.0,188.3 405.2,186.1 405.4,184.8 405.5,183.5 405.7,184.8 405.9,197.5 406.1,193.3 406.2,194.1 406.4,192.3 406.6,194.9 406.8,196.4 406.9,196.4 407.1,199.0 407.3,197.6 407.4,199.1 407.6,197.8 407.8,196.0 408.0,196.4 408.1,195.2 408.3,196.1 408.5,196.2 408.7,197.1 408.8,197.6 409.0,196.7 409.2,195.9 409.3,196.1 409.5,197.7 409.7,199.4 409.9,199.7 410.0,200.5 410.2,199.8 410.4,199.7 410.6,199.0 410.7,197.2 410.9,195.8 411.1,195.7 411.2,196.4 411.4,195.2 411.6,195.4 411.8,195.9 411.9,194.2 412.1,193.6 412.3,194.1 412.5,194.2 412.6,193.8 412.8,193.9 413.0,193.8 413.1,192.0 413.3,191.2 413.5,192.1 413.7,192.6 413.8,192.2 414.0,191.5 414.2,191.9 414.4,189.5 414.5,189.4 414.7,187.5 414.9,186.3 415.0,185.8 415.2,187.6 415.4,187.9 415.6,187.7 415.7,189.2 415.9,191.4 416.1,189.6 416.3,186.3 416.4,185.4 416.6,188.9 416.8,186.0 417.0,180.5 417.1,178.6 417.3,186.4 417.5,184.5 417.6,181.9 417.8,179.3 418.0,176.0 418.2,179.6 418.3,177.7 418.5,177.9 418.7,178.0 418.9,176.8 419.0,177.1 419.2,180.7 419.4,184.3 419.5,185.0 419.7,190.6 419.9,196.3 420.1,187.8 420.2,192.0 420.4,182.6 420.6,187.5 420.8,189.7 420.9,198.8 421.1,197.3 421.3,203.4 421.4,217.9 421.6,205.3 421.8,217.5 422.0,205.9 422.1,216.8 422.3,218.6 422.5,226.4 422.7,232.0 422.8,222.8 423.0,219.6 423.2,212.4 423.3,216.8 423.5,215.5 423.7,217.4 423.9,226.6 424.0,220.4 424.2,225.4 424.4,217.3 424.6,215.6 424.7,210.6 424.9,210.1 425.1,212.1 425.2,208.3 425.4,214.0 425.6,214.9 425.8,209.7 425.9,210.3 426.1,212.3 426.3,210.4 426.5,212.5 426.6,211.6 426.8,207.7 427.0,203.0 427.1,202.5 427.3,205.7 427.5,210.2 427.7,211.5 427.8,217.5 428.0,221.0 428.2,220.1 428.4,221.1 428.5,221.9 428.7,227.9 428.9,229.3 429.0,228.1 429.2,229.4 429.4,222.8 429.6,225.3 429.7,222.7 429.9,222.9 430.1,222.4 430.3,217.2 430.4,211.0 430.6,212.2 430.8,215.3 430.9,215.9 431.1,212.6 431.3,208.9 431.5,208.3 431.6,204.3 431.8,205.0 432.0,208.5 432.2,211.6 432.3,219.7 432.5,219.1 432.7,218.5 432.8,214.4 433.0,214.1 433.2,215.2 433.4,217.1 433.5,217.1 433.7,218.9 433.9,222.0 434.1,222.5 434.2,220.8 434.4,218.9 434.6,217.7 434.7,220.0 434.9,216.9 435.1,213.9 435.3,215.7 435.4,216.4 435.6,215.0 435.8,215.0 436.0,213.6 436.1,203.3 436.3,200.4 436.5,200.8 436.6,201.7 436.8,201.8 437.0,201.4 437.2,201.4 437.3,201.1 437.5,201.7 437.7,199.9 437.9,201.5 438.0,196.6 438.2,200.9 438.4,203.9 438.5,202.8 438.7,202.5 438.9,198.6 439.1,199.0 439.2,196.7 439.4,193.5 439.6,191.2 439.8,191.6 439.9,192.7 440.1,192.4 440.3,193.1 440.4,192.9 440.6,192.8 440.8,192.8 441.0,192.8 441.1,189.3 441.3,190.1 441.5,190.5 441.7,189.7 441.8,188.3 442.0,191.4 442.2,188.8 442.3,186.3 442.5,188.9 442.7,188.5 442.9,189.4 443.0,185.9 443.2,188.3 443.4,183.9 443.6,184.5 443.7,184.1 443.9,182.8 444.1,181.7 444.3,182.1 444.4,185.8 444.6,185.0 444.8,187.6 444.9,188.0 445.1,186.5 445.3,185.1 445.5,185.3 445.6,184.6 445.8,187.3 446.0,184.1 446.2,180.9 446.3,180.5 446.5,177.6 446.7,174.8 446.8,173.5 447.0,171.3 447.2,174.7 447.4,173.1 447.5,172.8 447.7,171.9 447.9,173.8 448.1,172.0 448.2,173.2 448.4,173.0 448.6,171.8 448.7,174.4 448.9,176.1 449.1,179.1 449.3,179.9 449.4,179.4 449.6,176.9 449.8,171.7 450.0,180.1 450.1,173.1 450.3,172.6 450.5,168.4 450.6,165.7 450.8,168.0 451.0,170.4 451.2,165.9 451.3,161.8 451.5,164.2 451.7,165.9 451.9,167.0 452.0,167.0 452.2,166.4 452.4,161.5 452.5,163.0 452.7,162.2 452.9,164.2 453.1,162.3 453.2,163.9 453.4,162.9 453.6,160.0 453.8,160.4 453.9,159.6 454.1,159.8 454.3,160.3 454.4,159.9 454.6,162.2 454.8,157.7 455.0,158.9 455.1,157.7 455.3,157.2 455.5,156.0 455.7,158.3 455.8,157.7 456.0,156.8 456.2,156.6 456.3,158.1 456.5,155.9 456.7,154.2 456.9,157.8 457.0,158.0 457.2,150.8 457.4,142.6 457.6,144.5 457.7,146.9 457.9,147.2 458.1,148.3 458.2,147.7 458.4,151.2 458.6,149.9 458.8,150.4 458.9,151.8 459.1,152.8 459.3,155.5 459.5,158.6 459.6,160.8 459.8,158.8 460.0,163.1 460.1,162.2 460.3,162.1 460.5,165.7 460.7,162.1 460.8,160.4 461.0,155.6 461.2,155.2 461.4,155.3 461.5,159.1 461.7,158.8 461.9,159.0 462.0,160.4 462.2,162.8 462.4,157.7 462.6,158.2 462.7,159.2 462.9,155.4 463.1,157.3 463.3,158.0 463.4,153.4 463.6,153.9 463.8,155.3 463.9,159.8 464.1,156.8 464.3,155.7 464.5,157.2 464.6,155.5 464.8,155.4 465.0,154.0 465.2,150.3 465.3,152.8 465.5,149.7 465.7,150.1 465.8,150.3 466.0,153.1 466.2,156.6 466.4,155.3 466.5,153.9 466.7,149.0 466.9,149.9 467.1,148.8 467.2,148.3 467.4,149.3 467.6,146.2 467.7,146.0 467.9,147.0 468.1,147.4 468.3,143.5 468.4,142.8 468.6,145.0 468.8,143.8 469.0,143.4 469.1,142.4 469.3,143.1 469.5,144.2 469.7,140.9 469.8,141.6 470.0,139.2 470.2,139.3 470.3,137.7 470.5,137.8 470.7,136.1 470.9,138.9 471.0,137.3 471.2,129.7 471.4,127.3 471.6,124.9 471.7,123.9 471.9,123.1 472.1,126.9 472.2,134.9 472.4,129.9 472.6,125.5 472.8,127.0 472.9,131.1 473.1,134.5 473.3,133.4 473.5,130.6 473.6,129.8 473.8,128.3 474.0,128.2 474.1,126.9 474.3,126.0 474.5,124.0 474.7,124.9 474.8,125.4 475.0,124.1 475.2,124.5 475.4,123.2 475.5,125.4 475.7,125.8 475.9,125.9 476.0,127.5 476.2,126.1 476.4,130.5 476.6,133.2 476.7,134.1 476.9,129.1 477.1,129.0 477.3,129.5 477.4,128.1 477.6,128.2 477.8,124.1 477.9,124.1 478.1,122.8 478.3,122.5 478.5,121.2 478.6,122.0 478.8,121.6 479.0,124.2 479.2,121.0 479.3,119.9 479.5,121.4 479.7,121.0 479.8,122.7 480.0,123.9 480.2,127.5 480.4,120.1 480.5,118.6 480.7,119.3 480.9,117.1 481.1,115.7 481.2,116.0 481.4,117.7 481.6,114.0 481.7,112.7 481.9,113.0 482.1,109.1 482.3,111.3 482.4,109.8 482.6,107.6 482.8,108.1 483.0,106.6 483.1,105.1 483.3,103.6 483.5,102.9 483.6,100.5 483.8,102.4 484.0,105.0 484.2,105.1 484.3,102.8 484.5,101.7 484.7,98.7 484.9,96.7 485.0,98.1 485.2,97.0 485.4,94.3 485.5,94.6 485.7,94.2 485.9,91.7 486.1,93.0 486.2,95.8 486.4,96.7 486.6,98.7 486.8,98.0 486.9,100.9 487.1,101.2 487.3,98.3 487.4,100.5 487.6,102.8 487.8,103.7 488.0,103.9 488.1,100.1 488.3,96.6 488.5,95.8 488.7,98.1 488.8,107.4 489.0,109.3 489.2,116.4 489.3,120.5 489.5,124.0 489.7,118.5 489.9,118.9 490.0,118.7 490.2,120.2 490.4,124.9 490.6,124.9 490.7,122.9 490.9,117.0 491.1,114.7 491.2,114.0 491.4,113.3 491.6,111.4 491.8,108.8 491.9,107.7 492.1,107.2 492.3,109.3 492.5,109.0 492.6,103.4 492.8,104.5 493.0,106.8 493.1,107.2 493.3,113.1 493.5,106.0 493.7,103.8 493.8,100.2 494.0,99.5 494.2,101.6 494.4,105.0 494.5,104.6 494.7,106.4 494.9,104.0 495.0,105.2 495.2,105.1 495.4,107.1 495.6,109.6 495.7,111.4 495.9,114.1 496.1,118.2 496.3,116.2 496.4,120.8 496.6,125.2 496.8,122.2 497.0,126.1 497.1,121.6 497.3,115.6 497.5,115.6 497.6,117.4 497.8,117.9 498.0,119.1 498.2,125.0 498.3,123.2 498.5,125.1 498.7,130.0 498.9,133.0 499.0,129.7 499.2,129.4 499.4,127.1 499.5,125.7 499.7,123.6 499.9,123.9 500.1,124.3 500.2,122.9 500.4,128.1 500.6,126.0 500.8,128.8 500.9,129.0 501.1,130.6 501.3,132.7 501.4,129.3 501.6,129.4 501.8,132.4 502.0,137.4 502.1,140.0 502.3,142.6 502.5,146.0 502.7,145.0 502.8,144.2 503.0,150.6 503.2,152.9 503.3,156.5 503.5,154.3 503.7,148.6 503.9,148.8 504.0,150.0 504.2,171.7 504.4,173.6 504.6,175.4 504.7,172.1 504.9,165.6 505.1,171.3 505.2,175.8 505.4,175.8 505.6,172.7 505.8,173.4 505.9,174.8 506.1,173.4 506.3,174.5 506.5,177.7 506.6,178.5 506.8,172.9 507.0,176.3 507.1,180.1 507.3,177.7 507.5,176.4 507.7,182.7 507.8,185.9 508.0,187.7 508.2,182.1 508.4,186.2 508.5,185.5 508.7,184.9 508.9,182.3 509.0,179.5 509.2,177.8 509.4,177.8 509.6,178.5 509.7,176.8 509.9,180.5 510.1,180.8 510.3,180.2 510.4,179.9 510.6,175.8 510.8,177.8 510.9,182.7 511.1,181.0 511.3,180.1 511.5,179.9 511.6,180.2 511.8,180.2 512.0,180.3 512.2,181.9 512.3,183.4 512.5,180.5 512.7,184.6 512.8,187.2 513.0,182.5 513.2,180.0 513.4,180.6 513.5,183.7 513.7,184.8 513.9,190.4 514.1,188.1 514.2,185.9 514.4,190.9 514.6,188.6 514.7,187.7 514.9,174.0 515.1,180.9 515.3,182.8 515.4,183.2 515.6,187.2 515.8,190.2 516.0,186.9 516.1,185.0 516.3,188.7 516.5,184.8 516.6,190.1 516.8,188.4 517.0,188.8 517.2,189.6 517.3,188.4 517.5,190.0 517.7,185.0 517.9,181.6 518.0,184.4 518.2,185.3 518.4,180.5 518.5,182.3 518.7,182.0 518.9,181.4 519.1,183.8 519.2,187.1 519.4,191.5 519.6,197.0 519.8,197.8 519.9,197.9 520.1,203.7 520.3,204.0 520.4,200.7 520.6,199.5 520.8,197.2 521.0,192.4 521.1,192.5 521.3,195.4 521.5,195.2 521.7,194.9 521.8,193.9 522.0,193.8 522.2,192.6 522.3,191.2 522.5,193.9 522.7,194.9 522.9,197.3 523.0,198.6 523.2,199.6 523.4,196.4 523.6,198.9 523.7,192.1 523.9,189.7 524.1,186.6 524.3,184.3 524.4,184.3 524.6,183.3 524.8,179.3 524.9,174.5 525.1,171.0 525.3,172.4 525.5,165.2 525.6,161.9 525.8,161.2 526.0,162.1 526.2,157.8 526.3,160.6 526.5,156.4 526.7,155.3 526.8,151.4 527.0,151.2 527.2,150.4 527.4,153.3 527.5,153.2 527.7,158.1 527.9,162.5 528.1,163.9 528.2,163.9 528.4,161.5 528.6,169.4 528.7,171.0 528.9,172.2 529.1,172.6 529.3,170.9 529.4,172.4 529.6,170.2 529.8,164.5 530.0,163.4 530.1,162.7 530.3,161.4 530.5,168.1 530.6,166.6 530.8,167.1 531.0,168.9 531.2,163.3 531.3,166.2 531.5,168.7 531.7,173.3 531.9,174.7 532.0,176.4 532.2,177.3 532.4,173.5 532.5,177.8 532.7,179.1 532.9,174.2 533.1,169.1 533.2,169.9 533.4,171.6 533.6,175.8 533.8,176.5 533.9,176.1 534.1,179.3 534.3,177.4 534.4,181.1 534.6,173.6 534.8,168.3 535.0,169.5 535.1,172.7 535.3,167.8 535.5,164.2 535.7,160.3 535.8,158.9 536.0,156.3 536.2,152.9 536.3,153.1 536.5,147.7 536.7,149.9 536.9,144.9 537.0,144.8 537.2,142.2 537.4,143.0 537.6,148.0 537.7,137.0 537.9,137.9 538.1,141.8 538.2,136.3 538.4,135.9 538.6,138.6 538.8,135.5 538.9,136.6 539.1,135.6 539.3,134.4 539.5,134.0 539.6,140.7 539.8,140.2 540.0,136.0 540.1,133.5 540.3,133.9 540.5,136.5 540.7,138.6 540.8,138.3 541.0,137.7 541.2,137.9 541.4,134.3 541.5,131.4 541.7,131.8 541.9,138.9 542.0,140.2 542.2,142.6 542.4,143.0 542.6,138.0 542.7,140.3 542.9,140.5 543.1,138.8 543.3,141.8 543.4,137.2 543.6,139.0 543.8,138.7 543.9,139.0 544.1,144.4 544.3,137.8 544.5,136.9 544.6,134.9 544.8,131.6 545.0,129.3 545.2,128.1 545.3,129.7 545.5,133.9 545.7,142.4 545.8,139.7 546.0,154.8 546.2,151.1 546.4,152.9 546.5,155.0 546.7,153.1 546.9,155.4 547.1,150.3 547.2,148.8 547.4,147.0 547.6,148.2 547.7,150.3 547.9,143.9 548.1,146.5 548.3,146.8 548.4,146.6 548.6,144.9 548.8,144.6 549.0,143.7 549.1,146.5 549.3,144.7 549.5,151.6 549.7,152.1 549.8,151.6 550.0,153.1 550.2,152.9 550.3,152.7 550.5,155.4 550.7,153.4 550.9,150.5 551.0,151.1 551.2,153.5 551.4,154.2 551.6,156.4 551.7,159.0 551.9,160.9 552.1,157.4 552.2,163.2 552.4,162.2 552.6,166.3 552.8,161.3 552.9,159.8 553.1,161.5 553.3,162.0 553.5,159.7 553.6,158.3 553.8,157.3 554.0,154.7 554.1,153.1 554.3,149.2 554.5,149.6 554.7,155.2 554.8,156.8 555.0,156.8 555.2,154.6 555.4,152.6 555.5,151.2 555.7,149.4 555.9,149.6 556.0,149.2 556.2,150.0 556.4,150.8 556.6,150.3 556.7,149.8 556.9,149.4 557.1,152.2 557.3,155.6 557.4,150.7 557.6,150.6 557.8,149.5 557.9,149.5 558.1,150.1 558.3,146.3 558.5,141.8 558.6,144.6 558.8,145.5 559.0,145.5 559.2,148.4 559.3,149.1 559.5,149.3 559.7,151.6 559.8,150.4 560.0,149.6 560.2,148.7 560.4,149.8 560.5,150.1 560.7,155.4 560.9,159.2 561.1,160.1 561.2,159.7 561.4,156.9 561.6,153.6 561.7,148.5 561.9,146.6 562.1,146.4 562.3,145.0 562.4,141.6 562.6,140.5 562.8,142.0 563.0,138.6 563.1,136.9 563.3,134.3 563.5,134.1 563.6,134.4 563.8,133.9 564.0,135.8 564.2,138.2 564.3,138.9 564.5,137.2 564.7,139.1 564.9,137.7 565.0,135.5 565.2,136.9 565.4,139.6 565.5,140.8 565.7,140.8 565.9,137.0 566.1,135.4 566.2,137.2 566.4,138.7 566.6,141.0 566.8,138.9 566.9,138.4 567.1,137.5 567.3,133.9 567.4,133.5 567.6,133.2 567.8,132.5 568.0,133.4 568.1,135.0 568.3,135.5 568.5,135.3 568.7,136.7 568.8,136.4 569.0,142.8 569.2,147.5 569.3,145.3 569.5,148.4 569.7,153.2 569.9,153.1 570.0,153.2 570.2,153.6 570.4,155.5 570.6,157.2 570.7,158.1 570.9,158.2 571.1,157.4 571.2,158.1 571.4,156.3 571.6,157.9 571.8,155.2 571.9,154.1 572.1,153.3 572.3,151.2 572.5,151.2 572.6,152.8 572.8,161.2 573.0,161.0 573.1,164.7 573.3,165.5 573.5,163.0 573.7,163.1 573.8,165.9 574.0,163.6 574.2,164.9 574.4,165.1 574.5,166.2 574.7,168.3 574.9,172.1 575.0,173.0 575.2,172.8 575.4,175.3 575.6,174.0 575.7,172.7 575.9,172.7 576.1,171.4 576.3,174.3 576.4,172.4 576.6,174.3 576.8,172.8 577.0,172.6 577.1,171.1 577.3,170.4 577.5,172.3 577.6,174.2 577.8,171.2 578.0,169.3 578.2,173.9 578.3,170.8 578.5,171.4 578.7,175.1 578.9,175.5 579.0,178.4 579.2,176.8 579.4,177.7 579.5,175.8 579.7,168.4 579.9,166.8 580.1,167.1 580.2,162.6 580.4,163.9 580.6,162.8 580.8,162.8 580.9,162.7 581.1,159.9 581.3,159.8 581.4,155.2 581.6,156.8 581.8,155.1 582.0,155.3 582.1,156.9 582.3,155.5 582.5,153.4 582.7,151.6 582.8,151.8 583.0,152.7 583.2,151.2 583.3,148.4 583.5,146.6 583.7,146.1 583.9,147.3 584.0,146.7 584.2,146.8 584.4,146.3 584.6,144.0 584.7,143.6 584.9,141.4 585.1,138.4 585.2,138.8 585.4,138.8 585.6,137.3 585.8,140.6 585.9,137.1 586.1,135.5 586.3,133.8 586.5,132.5 586.6,132.6 586.8,132.5 587.0,133.7 587.1,137.3 587.3,136.0 587.5,136.3 587.7,135.1 587.8,136.4 588.0,136.1 588.2,137.1 588.4,137.0 588.5,138.4 588.7,140.5 588.9,137.6 589.0,136.8 589.2,134.2 589.4,133.5 589.6,137.1 589.7,134.9 589.9,135.9 590.1,134.2 590.3,133.5 590.4,135.8 590.6,130.7 590.8,130.7 590.9,133.0 591.1,123.5 591.3,117.0 591.5,118.7 591.6,115.3 591.8,117.1 592.0,119.8 592.2,115.6 592.3,115.1 592.5,116.2 592.7,115.7 592.8,116.7 593.0,114.0 593.2,113.1 593.4,112.9 593.5,112.9 593.7,113.1 593.9,110.6 594.1,109.1 594.2,109.2 594.4,112.1 594.6,111.8 594.7,110.7 594.9,110.6 595.1,112.1 595.3,108.2 595.4,108.9 595.6,109.0 595.8,110.2 596.0,109.8 596.1,108.2 596.3,107.7 596.5,105.5 596.6,106.9 596.8,109.4 597.0,109.1 597.2,106.6 597.3,106.8 597.5,107.9 597.7,108.8 597.9,107.5 598.0,110.3 598.2,108.5 598.4,109.4 598.5,107.4 598.7,108.6 598.9,107.6 599.1,108.8 599.2,110.2 599.4,109.0 599.6,112.0 599.8,110.4 599.9,109.2 600.1,107.3 600.3,104.3 600.4,104.4 600.6,104.5 600.8,101.4 601.0,101.0 601.1,104.3 601.3,103.9 601.5,95.2 601.7,93.1 601.8,89.6 602.0,88.2 602.2,86.2 602.3,83.8 602.5,83.1 602.7,86.1 602.9,84.7 603.0,81.7 603.2,83.6 603.4,82.5 603.6,78.3 603.7,78.0 603.9,79.3 604.1,81.9 604.3,80.9 604.4,87.6 604.6,91.8 604.8,89.3 604.9,86.5 605.1,90.7 605.3,93.3 605.5,88.8 605.6,93.7 605.8,92.9 606.0,89.6 606.2,90.8 606.3,87.1 606.5,87.1 606.7,91.7 606.8,89.1 607.0,87.6 607.2,89.6 607.4,90.6 607.5,91.1 607.7,93.6 607.9,94.8 608.1,94.5 608.2,95.8 608.4,102.9 608.6,101.6 608.7,100.8 608.9,98.2 609.1,98.5 609.3,99.3 609.4,94.6 609.6,91.9 609.8,91.0 610.0,92.9 610.1,86.1 610.3,90.0 610.5,91.6 610.6,92.6 610.8,89.4 611.0,87.0 611.2,93.9 611.3,93.2 611.5,86.8 611.7,85.6 611.9,99.5 612.0,99.5 612.2,99.8 612.4,105.3 612.5,112.2 612.7,110.0 612.9,111.0 613.1,108.4 613.2,107.9 613.4,109.8 613.6,102.6 613.8,102.9 613.9,100.0 614.1,100.7 614.3,98.0 614.4,98.4 614.6,95.5 614.8,96.2 615.0,93.6 615.1,94.7 615.3,96.2 615.5,95.5 615.7,95.6 615.8,92.5 616.0,104.3 616.2,107.1 616.3,108.9 616.5,111.2 616.7,106.7 616.9,105.8 617.0,105.7 617.2,103.8 617.4,104.1 617.6,100.7 617.7,100.1 617.9,100.6 618.1,94.6 618.2,97.2 618.4,97.7 618.6,100.3 618.8,99.3 618.9,98.4 619.1,97.7 619.3,96.8 619.5,97.9 619.6,98.0 619.8,100.2 620.0,99.5 620.1,98.6 620.3,98.3 620.5,94.7 620.7,98.3 620.8,93.7 621.0,93.0 621.2,94.0 621.4,92.6 621.5,96.6 621.7,98.1 621.9,101.2 622.0,103.2 622.2,102.5 622.4,104.4 622.6,104.8 622.7,104.2 622.9,105.7 623.1,105.1 623.3,119.7 623.4,123.7 623.6,121.3 623.8,118.9 623.9,116.3 624.1,116.5 624.3,115.2 624.5,114.8 624.6,114.5 624.8,116.3 625.0,120.0 625.2,119.7 625.3,118.5 625.5,118.9 625.7,117.9 625.8,113.5 626.0,110.9 626.2,107.3 626.4,114.9 626.5,113.1 626.7,111.1 626.9,110.7 627.1,109.5 627.2,109.8 627.4,112.0 627.6,111.8 627.7,106.6 627.9,108.0 628.1,116.9 628.3,120.9 628.4,121.7 628.6,121.4 628.8,121.4 629.0,128.1 629.1,128.9 629.3,127.7 629.5,127.1 629.7,126.0 629.8,125.4 630.0,127.0 630.2,129.2 630.3,129.6 630.5,129.7 630.7,127.6 630.9,128.2 631.0,130.0 631.2,129.8 631.4,133.1 631.6,130.3 631.7,130.7 631.9,129.5 632.1,124.6 632.2,123.3 632.4,119.5 632.6,119.9 632.8,120.0 632.9,120.1 633.1,119.0 633.3,120.5 633.5,120.6 633.6,119.7 633.8,115.8 634.0,117.9 634.1,106.8 634.3,105.8 634.5,103.1 634.7,103.6 634.8,103.3 635.0,102.0 635.2,105.7 635.4,103.6 635.5,106.6 635.7,104.7 635.9,105.1 636.0,106.0 636.2,110.1 636.4,108.6 636.6,108.9 636.7,108.1 636.9,107.6 637.1,104.0 637.3,105.9 637.4,110.1 637.6,106.1 637.8,107.3 637.9,104.4 638.1,108.5 638.3,116.5 638.5,117.8 638.6,121.0 638.8,118.0 639.0,117.5 639.2,121.2 639.3,120.5 639.5,123.0 639.7,125.4 639.8,121.4 640.0,117.4 640.2,117.4 640.4,119.3 640.5,123.7 640.7,123.7 640.9,123.0 641.1,124.4 641.2,138.3 641.4,149.3 641.6,150.9 641.7,152.3 641.9,139.1 642.1,144.0 642.3,141.6 642.4,140.5 642.6,141.5 642.8,141.4 643.0,139.3 643.1,142.6 643.3,137.1 643.5,134.2 643.6,130.3 643.8,129.5 644.0,129.8 644.2,125.1 644.3,121.8 644.5,121.5 644.7,115.4 644.9,118.7 645.0,122.0 645.2,120.9 645.4,117.1 645.5,117.8 645.7,110.3 645.9,110.8 646.1,113.4 646.2,111.3 646.4,108.9 646.6,109.0 646.8,110.7 646.9,113.0 647.1,113.7 647.3,115.8 647.4,112.0 647.6,113.0 647.8,113.0 648.0,112.3 648.1,112.9 648.3,110.4 648.5,111.2 648.7,111.3 648.8,111.2 649.0,109.6 649.2,108.1 649.3,110.7 649.5,110.2 649.7,113.3 649.9,109.7 650.0,113.5 650.2,113.9 650.4,115.1 650.6,113.3 650.7,110.4 650.9,109.8 651.1,106.4 651.2,108.6 651.4,106.6 651.6,103.8 651.8,102.6 651.9,101.6 652.1,103.8 652.3,103.1 652.5,102.8 652.6,102.8 652.8,103.9 653.0,103.8 653.1,106.1 653.3,104.8 653.5,101.3 653.7,100.8 653.8,102.2 654.0,103.7 654.2,102.5 654.4,103.4 654.5,101.1 654.7,101.6 654.9,102.1 655.0,104.5 655.2,80.3 655.4,84.5 655.6,81.4 655.7,82.0 655.9,82.0 656.1,82.3 656.3,83.7 656.4,83.3 656.6,82.4 656.8,82.2 657.0,85.1 657.1,86.9 657.3,86.8 657.5,85.1 657.6,85.0 657.8,87.9 658.0,81.8 658.2,83.7 658.3,82.5 658.5,80.3 658.7,81.4 658.9,85.6 659.0,87.7 659.2,88.8 659.4,84.9 659.5,87.3 659.7,88.2 659.9,92.5 660.1,92.2 660.2,85.2 660.4,85.6 660.6,85.3 660.8,87.0 660.9,86.6 661.1,84.5 661.3,83.3 661.4,82.2 661.6,82.9 661.8,85.7 662.0,85.8 662.1,83.0 662.3,81.5 662.5,75.3 662.7,74.7 662.8,72.7 663.0,71.3 663.2,71.2 663.3,74.2 663.5,74.1 663.7,76.5 663.9,80.8 664.0,77.9 664.2,76.9 664.4,78.3 664.6,79.9 664.7,78.1 664.9,76.6 665.1,75.9 665.2,77.9 665.4,75.0 665.6,74.0 665.8,72.1 665.9,70.2 666.1,65.9 666.3,68.4 666.5,69.6 666.6,72.6 666.8,71.6 667.0,69.8 667.1,70.4 667.3,68.8 667.5,69.2 667.7,71.4 667.8,71.2 668.0,75.7 668.2,83.6 668.4,86.6 668.5,88.0 668.7,90.0 668.9,91.6 669.0,87.6 669.2,85.1 669.4,85.7 669.6,86.3 669.7,87.1 669.9,89.3 670.1,89.3 670.3,86.7 670.4,86.8 670.6,90.0 670.8,91.2 670.9,93.5 671.1,90.9 671.3,88.2 671.5,93.3 671.6,91.3 671.8,92.4 672.0,93.6 672.2,94.0 672.3,91.6 672.5,89.8 672.7,90.6 672.8,90.5 673.0,90.3 673.2,91.0 673.4,92.4 673.5,94.9 673.7,93.3 673.9,90.0 674.1,86.0 674.2,89.3 674.4,86.7 674.6,88.8 674.7,89.9 674.9,88.1 675.1,88.1 675.3,80.0 675.4,77.7 675.6,90.3 675.8,85.2 676.0,83.2 676.1,86.1 676.3,82.5 676.5,87.6 676.6,96.0 676.8,91.9 677.0,91.9 677.2,88.5 677.3,90.7 677.5,88.7 677.7,89.6 677.9,84.6 678.0,87.9 678.2,107.4 678.4,111.1 678.5,112.2 678.7,108.8 678.9,108.7 679.1,106.8 679.2,106.9 679.4,107.8 679.6,110.2 679.8,108.7 679.9,108.5 680.1,102.2 680.3,106.3 680.4,107.3 680.6,110.4 680.8,106.6 681.0,112.1 681.1,117.3 681.3,116.7 681.5,118.1 681.7,118.7 681.8,122.7 682.0,123.0 682.2,120.9 682.3,119.7 682.5,123.4 682.7,121.9 682.9,122.0 683.0,122.9 683.2,122.0 683.4,119.7 683.6,123.6 683.7,127.0 683.9,129.4 684.1,123.6 684.3,118.5 684.4,120.6 684.6,116.1 684.8,115.4 684.9,109.0 685.1,106.6 685.3,107.7 685.5,107.5 685.6,106.1 685.8,113.8 686.0,113.8 686.2,120.8 686.3,122.0 686.5,122.8 686.7,120.2 686.8,119.8 687.0,120.2 687.2,116.7 687.4,126.4 687.5,130.7 687.7,125.9 687.9,130.7 688.1,131.7 688.2,129.0 688.4,125.2 688.6,130.3 688.7,133.6 688.9,136.6 689.1,137.4 689.3,141.7 689.4,141.0 689.6,143.3 689.8,142.9 690.0,146.3 690.1,143.1 690.3,142.3 690.5,139.5 690.6,138.1 690.8,139.8 691.0,141.3 691.2,140.8 691.3,142.9 691.5,139.5 691.7,140.5 691.9,139.7 692.0,140.1 692.2,140.8 692.4,138.5 692.5,145.0 692.7,141.6 692.9,139.9 693.1,138.3 693.2,136.5 693.4,139.5 693.6,137.6 693.8,137.0 693.9,139.3 694.1,136.5 694.3,127.9 694.4,128.9 694.6,128.4 694.8,125.9 695.0,127.5 695.1,126.0 695.3,123.8 695.5,121.6 695.7,125.1 695.8,124.7 696.0,117.2"/>
  <text x="60" y="62" font-size="11" fill="#2563eb">Price index</text>
  <text x="146" y="62" font-size="11" fill="#16a34a">Total return (price + distributions)</text>
  <text x="56" y="348" font-size="11" text-anchor="middle" fill="#444">2011-10</text><text x="216" y="348" font-size="11" text-anchor="middle" fill="#444">2015-06</text><text x="376" y="348" font-size="11" text-anchor="middle" fill="#444">2019-02</text><text x="536" y="348" font-size="11" text-anchor="middle" fill="#444">2022-10</text><text x="696" y="348" font-size="11" text-anchor="middle" fill="#444">2026-07</text>
</svg>
