<svg xmlns="http://www.w3.org/2000/svg" width="820" height="410" viewBox="0 0 820 410">
<rect width="820" height="410" fill="#fafafa"/><text x="78" y="22" font-size="14" font-family="sans-serif" fill="#0f172a">XYL cumulative return since 2011-10-13 | dividends reinvested</text>
<text x="78" y="40" font-size="11" font-family="sans-serif" fill="#334155">Total return +509.6% | Price-only +400.7% | logarithmic scale</text>
<text x="78" y="54" font-size="9" font-family="sans-serif" fill="#64748b">Regular $15.63 | Special $0.00 | Other $0.00 per initial share path</text>
<line x1="78" y1="332.0" x2="796" y2="332.0" stroke="#e2e8f0"/><text x="70" y="336.0" font-size="10" text-anchor="end" fill="#64748b">-16.3%</text><line x1="78" y1="311.4" x2="796" y2="311.4" stroke="#e2e8f0"/><text x="70" y="315.4" font-size="10" text-anchor="end" fill="#64748b">0%</text><line x1="78" y1="287.0" x2="796" y2="287.0" stroke="#e2e8f0"/><text x="70" y="291.0" font-size="10" text-anchor="end" fill="#64748b">+23.5%</text><line x1="78" y1="242.0" x2="796" y2="242.0" stroke="#e2e8f0"/><text x="70" y="246.0" font-size="10" text-anchor="end" fill="#64748b">+82.1%</text><line x1="78" y1="197.0" x2="796" y2="197.0" stroke="#e2e8f0"/><text x="70" y="201.0" font-size="10" text-anchor="end" fill="#64748b">+168.5%</text><line x1="78" y1="152.0" x2="796" y2="152.0" stroke="#e2e8f0"/><text x="70" y="156.0" font-size="10" text-anchor="end" fill="#64748b">+296.0%</text><line x1="78" y1="107.0" x2="796" y2="107.0" stroke="#e2e8f0"/><text x="70" y="111.0" font-size="10" text-anchor="end" fill="#64748b">+483.9%</text><line x1="78" y1="62.0" x2="796" y2="62.0" stroke="#e2e8f0"/><text x="70" y="66.0" font-size="10" text-anchor="end" fill="#64748b">+761.2%</text>
<line x1="78" y1="332" x2="796" y2="332" stroke="#cbd5e1"/>
<polyline fill="none" stroke="#2563eb" stroke-width="2" points="78.0,311.4 78.2,306.3 78.4,307.1 78.6,306.8 78.8,309.0 79.0,309.0 79.2,305.4 79.4,304.4 79.5,304.5 79.7,307.8 79.9,305.0 80.1,304.1 80.3,300.1 80.5,297.6 80.7,300.6 80.9,301.6 81.1,307.0 81.3,309.7 81.5,308.2 81.7,313.1 81.9,314.3 82.1,313.6 82.3,312.9 82.5,312.7 82.6,312.0 82.8,313.3 83.0,312.9 83.2,314.5 83.4,314.4 83.6,314.2 83.8,317.5 84.0,315.1 84.2,316.2 84.4,313.1 84.6,311.3 84.8,311.4 85.0,307.5 85.2,308.7 85.4,309.9 85.6,313.2 85.7,310.9 85.9,313.0 86.1,313.3 86.3,315.5 86.5,313.0 86.7,309.4 86.9,311.4 87.1,311.1 87.3,308.2 87.5,308.7 87.7,308.3 87.9,307.6 88.1,305.3 88.3,303.6 88.5,304.7 88.7,307.2 88.8,303.5 89.0,305.1 89.2,307.1 89.4,306.6 89.6,305.2 89.8,303.1 90.0,304.7 90.2,305.0 90.4,305.0 90.6,299.0 90.8,300.6 91.0,301.7 91.2,304.5 91.4,302.7 91.6,300.7 91.8,303.6 91.9,304.2 92.1,303.7 92.3,303.7 92.5,299.7 92.7,300.5 92.9,298.8 93.1,299.9 93.3,298.0 93.5,297.3 93.7,298.4 93.9,298.7 94.1,298.8 94.3,299.3 94.5,299.0 94.7,298.3 94.9,296.5 95.0,295.5 95.2,296.7 95.4,295.7 95.6,297.9 95.8,297.4 96.0,299.7 96.2,303.4 96.4,300.3 96.6,300.7 96.8,302.4 97.0,304.0 97.2,302.4 97.4,300.6 97.6,297.9 97.8,296.7 97.9,293.0 98.1,293.3 98.3,291.8 98.5,294.0 98.7,295.0 98.9,297.6 99.1,297.6 99.3,298.0 99.5,298.1 99.7,295.4 99.9,294.8 100.1,294.9 100.3,296.2 100.5,295.8 100.7,293.4 100.9,293.7 101.0,295.6 101.2,294.9 101.4,297.4 101.6,299.2 101.8,299.0 102.0,297.6 102.2,299.7 102.4,299.4 102.6,298.1 102.8,296.2 103.0,298.5 103.2,297.4 103.4,299.4 103.6,298.5 103.8,296.0 104.0,294.3 104.1,293.2 104.3,295.2 104.5,296.2 104.7,295.7 104.9,297.7 105.1,301.3 105.3,302.4 105.5,301.7 105.7,302.8 105.9,302.7 106.1,303.2 106.3,305.9 106.5,306.9 106.7,306.2 106.9,310.6 107.1,309.4 107.2,306.3 107.4,305.2 107.6,304.3 107.8,302.7 108.0,304.9 108.2,303.8 108.4,305.8 108.6,306.4 108.8,310.3 109.0,310.2 109.2,309.8 109.4,305.6 109.6,304.5 109.8,303.7 110.0,305.5 110.2,305.2 110.3,307.1 110.5,307.9 110.7,306.4 110.9,307.3 111.1,307.5 111.3,309.2 111.5,311.3 111.7,312.5 111.9,314.5 112.1,313.0 112.3,311.2 112.5,309.8 112.7,307.1 112.9,307.7 113.1,304.8 113.3,305.4 113.4,307.0 113.6,307.9 113.8,310.9 114.0,312.9 114.2,316.6 114.4,316.0 114.6,316.7 114.8,314.3 115.0,312.9 115.2,312.0 115.4,313.6 115.6,313.2 115.8,314.6 116.0,313.0 116.2,313.9 116.4,311.6 116.5,311.6 116.7,312.7 116.9,313.1 117.1,314.7 117.3,312.5 117.5,312.0 117.7,311.5 117.9,311.9 118.1,310.4 118.3,310.4 118.5,310.2 118.7,312.3 118.9,311.2 119.1,308.2 119.3,307.2 119.4,306.5 119.6,307.0 119.8,307.8 120.0,309.6 120.2,310.2 120.4,311.9 120.6,312.4 120.8,312.6 121.0,312.2 121.2,311.2 121.4,312.6 121.6,312.3 121.8,308.0 122.0,307.4 122.2,309.8 122.4,306.1 122.5,307.9 122.7,306.2 122.9,305.3 123.1,306.3 123.3,304.6 123.5,303.4 123.7,305.1 123.9,305.9 124.1,305.6 124.3,306.0 124.5,308.0 124.7,306.5 124.9,307.2 125.1,306.8 125.3,306.7 125.5,307.8 125.6,307.2 125.8,307.2 126.0,307.4 126.2,308.9 126.4,309.9 126.6,311.1 126.8,309.7 127.0,309.1 127.2,306.2 127.4,307.5 127.6,309.6 127.8,311.5 128.0,311.2 128.2,311.6 128.4,315.3 128.6,314.0 128.7,314.6 128.9,311.4 129.1,306.0 129.3,305.0 129.5,303.3 129.7,303.1 129.9,306.4 130.1,308.2 130.3,309.2 130.5,309.0 130.7,310.1 130.9,312.4 131.1,312.5 131.3,311.7 131.5,308.6 131.7,307.3 131.8,306.3 132.0,305.5 132.2,304.0 132.4,305.0 132.6,303.6 132.8,302.8 133.0,302.9 133.2,304.4 133.4,304.7 133.6,303.3 133.8,302.9 134.0,301.7 134.2,301.2 134.4,300.6 134.6,299.9 134.8,300.3 134.9,300.0 135.1,300.9 135.3,298.1 135.5,296.5 135.7,299.7 135.9,300.0 136.1,299.5 136.3,299.9 136.5,299.6 136.7,301.4 136.9,298.5 137.1,296.8 137.3,297.2 137.5,297.4 137.7,298.9 137.8,300.3 138.0,298.5 138.2,296.9 138.4,298.2 138.6,298.1 138.8,298.4 139.0,299.2 139.2,297.2 139.4,296.8 139.6,296.1 139.8,295.2 140.0,294.8 140.2,296.0 140.4,295.1 140.6,294.9 140.8,295.0 140.9,295.0 141.1,294.7 141.3,296.6 141.5,295.7 141.7,295.4 141.9,299.3 142.1,298.6 142.3,297.0 142.5,295.0 142.7,293.7 142.9,292.8 143.1,293.6 143.3,291.6 143.5,294.9 143.7,296.1 143.9,295.6 144.0,298.9 144.2,299.0 144.4,297.0 144.6,296.8 144.8,296.9 145.0,296.9 145.2,292.9 145.4,289.3 145.6,293.1 145.8,293.0 146.0,291.6 146.2,292.6 146.4,292.8 146.6,291.8 146.8,290.8 147.0,291.6 147.1,292.9 147.3,292.7 147.5,292.5 147.7,292.9 147.9,295.9 148.1,296.0 148.3,297.7 148.5,296.6 148.7,297.9 148.9,298.0 149.1,298.4 149.3,295.9 149.5,296.4 149.7,295.4 149.9,294.9 150.1,291.9 150.2,291.2 150.4,292.3 150.6,297.2 150.8,296.2 151.0,297.8 151.2,298.8 151.4,299.0 151.6,299.7 151.8,297.3 152.0,296.0 152.2,295.3 152.4,296.0 152.6,293.7 152.8,295.8 153.0,296.8 153.2,297.1 153.3,297.4 153.5,297.2 153.7,296.1 153.9,294.3 154.1,295.2 154.3,295.6 154.5,296.7 154.7,293.5 154.9,292.3 155.1,292.1 155.3,291.0 155.5,291.2 155.7,291.9 155.9,292.7 156.1,294.5 156.2,295.4 156.4,294.5 156.6,294.5 156.8,292.5 157.0,294.2 157.2,293.7 157.4,295.3 157.6,298.1 157.8,297.7 158.0,296.6 158.2,296.8 158.4,298.1 158.6,298.9 158.8,297.8 159.0,298.4 159.2,297.8 159.3,296.2 159.5,297.9 159.7,301.5 159.9,302.9 160.1,304.4 160.3,303.6 160.5,303.0 160.7,300.6 160.9,299.2 161.1,296.2 161.3,296.8 161.5,296.3 161.7,294.8 161.9,294.1 162.1,292.5 162.3,290.8 162.4,290.6 162.6,290.4 162.8,290.4 163.0,292.4 163.2,292.2 163.4,291.0 163.6,291.5 163.8,291.2 164.0,291.8 164.2,292.3 164.4,291.4 164.6,292.0 164.8,292.9 165.0,305.4 165.2,308.2 165.4,307.0 165.5,306.6 165.7,306.6 165.9,305.9 166.1,308.3 166.3,308.0 166.5,308.0 166.7,308.7 166.9,308.0 167.1,307.9 167.3,309.2 167.5,310.1 167.7,309.7 167.9,311.2 168.1,311.7 168.3,310.8 168.5,311.2 168.6,309.8 168.8,311.3 169.0,310.2 169.2,308.1 169.4,308.9 169.6,307.5 169.8,305.6 170.0,303.7 170.2,302.6 170.4,299.9 170.6,298.7 170.8,298.5 171.0,299.1 171.2,299.2 171.4,298.3 171.6,297.9 171.7,296.9 171.9,296.8 172.1,298.2 172.3,299.0 172.5,297.4 172.7,296.7 172.9,293.8 173.1,294.8 173.3,295.0 173.5,293.8 173.7,294.3 173.9,295.2 174.1,294.0 174.3,294.7 174.5,297.3 174.7,298.1 174.8,295.0 175.0,294.3 175.2,294.0 175.4,295.1 175.6,295.1 175.8,296.9 176.0,295.5 176.2,293.4 176.4,293.9 176.6,293.4 176.8,291.9 177.0,290.7 177.2,291.0 177.4,277.4 177.6,274.0 177.7,270.6 177.9,274.9 178.1,272.6 178.3,273.1 178.5,273.9 178.7,275.3 178.9,272.3 179.1,272.4 179.3,272.5 179.5,271.2 179.7,271.0 179.9,270.7 180.1,272.5 180.3,271.7 180.5,271.2 180.7,270.3 180.8,270.3 181.0,270.5 181.2,270.0 181.4,269.7 181.6,270.4 181.8,272.6 182.0,273.7 182.2,273.8 182.4,273.0 182.6,273.9 182.8,273.5 183.0,273.8 183.2,276.0 183.4,273.9 183.6,272.9 183.8,272.6 183.9,271.9 184.1,269.9 184.3,271.7 184.5,272.0 184.7,271.6 184.9,271.1 185.1,269.9 185.3,270.4 185.5,270.3 185.7,270.2 185.9,271.7 186.1,270.7 186.3,270.9 186.5,270.5 186.7,270.6 186.9,270.1 187.0,269.2 187.2,268.8 187.4,267.0 187.6,264.5 187.8,263.6 188.0,263.8 188.2,265.9 188.4,264.1 188.6,267.5 188.8,273.4 189.0,274.4 189.2,272.6 189.4,274.9 189.6,274.5 189.8,274.5 190.0,276.4 190.1,264.8 190.3,267.2 190.5,264.2 190.7,262.6 190.9,262.8 191.1,262.2 191.3,261.2 191.5,259.9 191.7,259.2 191.9,257.7 192.1,260.5 192.3,257.2 192.5,256.8 192.7,255.2 192.9,257.1 193.1,255.6 193.2,255.3 193.4,255.3 193.6,257.6 193.8,257.0 194.0,257.9 194.2,258.5 194.4,257.4 194.6,259.2 194.8,259.8 195.0,261.2 195.2,263.3 195.4,263.1 195.6,263.1 195.8,263.2 196.0,264.2 196.1,264.5 196.3,264.7 196.5,266.6 196.7,263.7 196.9,266.2 197.1,266.3 197.3,265.6 197.5,264.3 197.7,262.0 197.9,260.1 198.1,261.6 198.3,261.5 198.5,264.4 198.7,265.5 198.9,262.4 199.1,265.9 199.2,268.2 199.4,268.5 199.6,269.3 199.8,267.3 200.0,267.9 200.2,267.2 200.4,266.6 200.6,266.7 200.8,266.3 201.0,267.6 201.2,267.7 201.4,264.2 201.6,260.6 201.8,262.6 202.0,262.9 202.2,263.2 202.3,262.7 202.5,261.8 202.7,261.5 202.9,261.9 203.1,259.3 203.3,259.5 203.5,260.1 203.7,261.7 203.9,262.8 204.1,259.7 204.3,261.6 204.5,259.9 204.7,259.5 204.9,258.1 205.1,257.7 205.3,258.9 205.4,263.3 205.6,261.5 205.8,260.8 206.0,261.7 206.2,262.8 206.4,261.3 206.6,260.1 206.8,259.0 207.0,259.0 207.2,259.5 207.4,260.1 207.6,257.6 207.8,258.0 208.0,257.6 208.2,256.6 208.4,255.4 208.5,254.4 208.7,254.1 208.9,255.7 209.1,255.3 209.3,256.0 209.5,255.6 209.7,256.1 209.9,256.0 210.1,257.4 210.3,256.3 210.5,259.4 210.7,261.3 210.9,260.8 211.1,261.7 211.3,262.2 211.5,260.8 211.6,261.7 211.8,260.6 212.0,263.3 212.2,261.1 212.4,260.4 212.6,260.6 212.8,261.4 213.0,261.8 213.2,263.0 213.4,264.2 213.6,261.8 213.8,264.3 214.0,267.9 214.2,269.0 214.4,267.9 214.5,266.8 214.7,266.8 214.9,265.5 215.1,265.4 215.3,263.9 215.5,264.0 215.7,263.3 215.9,263.4 216.1,263.3 216.3,261.2 216.5,260.9 216.7,259.3 216.9,260.0 217.1,261.2 217.3,259.9 217.5,260.4 217.6,261.1 217.8,261.7 218.0,261.7 218.2,259.2 218.4,259.8 218.6,259.7 218.8,260.1 219.0,260.4 219.2,261.3 219.4,261.5 219.6,261.2 219.8,262.0 220.0,261.9 220.2,260.9 220.4,261.2 220.6,260.1 220.7,260.1 220.9,261.4 221.1,261.3 221.3,261.3 221.5,264.0 221.7,263.7 221.9,264.8 222.1,267.3 222.3,269.4 222.5,268.9 222.7,268.7 222.9,267.0 223.1,271.7 223.3,270.1 223.5,274.4 223.7,277.5 223.8,279.6 224.0,276.8 224.2,274.7 224.4,272.1 224.6,271.5 224.8,273.3 225.0,270.5 225.2,272.1 225.4,268.7 225.6,267.8 225.8,268.8 226.0,264.1 226.2,266.6 226.4,266.3 226.6,264.5 226.8,265.5 226.9,265.8 227.1,264.4 227.3,262.1 227.5,262.3 227.7,261.6 227.9,261.4 228.1,260.8 228.3,261.1 228.5,260.5 228.7,260.2 228.9,258.7 229.1,261.4 229.3,261.0 229.5,258.6 229.7,258.2 229.9,258.2 230.0,257.7 230.2,258.3 230.4,258.0 230.6,259.3 230.8,256.7 231.0,257.7 231.2,257.6 231.4,259.9 231.6,259.0 231.8,263.0 232.0,262.5 232.2,265.0 232.4,264.9 232.6,264.8 232.8,262.7 233.0,259.1 233.1,257.6 233.3,257.1 233.5,257.2 233.7,257.1 233.9,256.5 234.1,256.8 234.3,258.1 234.5,259.2 234.7,259.1 234.9,266.6 235.1,267.3 235.3,266.3 235.5,265.5 235.7,267.7 235.9,270.2 236.0,270.0 236.2,270.7 236.4,271.5 236.6,270.7 236.8,270.9 237.0,268.6 237.2,267.8 237.4,268.3 237.6,268.3 237.8,269.8 238.0,271.4 238.2,271.7 238.4,271.9 238.6,269.8 238.8,267.6 239.0,269.3 239.1,269.4 239.3,268.3 239.5,268.5 239.7,267.6 239.9,268.1 240.1,266.9 240.3,265.4 240.5,266.0 240.7,266.2 240.9,266.7 241.1,265.5 241.3,266.3 241.5,265.8 241.7,265.5 241.9,266.4 242.1,266.6 242.2,265.1 242.4,265.3 242.6,266.6 242.8,267.0 243.0,268.3 243.2,268.1 243.4,269.9 243.6,270.3 243.8,268.3 244.0,270.2 244.2,268.8 244.4,270.0 244.6,266.1 244.8,267.1 245.0,265.7 245.2,268.6 245.3,268.7 245.5,269.8 245.7,270.0 245.9,269.0 246.1,267.7 246.3,268.8 246.5,267.6 246.7,266.3 246.9,265.4 247.1,265.4 247.3,268.1 247.5,269.0 247.7,268.2 247.9,268.4 248.1,268.2 248.3,267.3 248.4,266.2 248.6,268.4 248.8,267.4 249.0,267.7 249.2,267.4 249.4,266.0 249.6,266.8 249.8,264.7 250.0,264.5 250.2,263.6 250.4,262.4 250.6,262.0 250.8,262.8 251.0,263.6 251.2,263.9 251.4,263.4 251.5,262.8 251.7,263.1 251.9,264.1 252.1,263.1 252.3,262.2 252.5,263.0 252.7,262.4 252.9,263.2 253.1,263.1 253.3,262.0 253.5,262.5 253.7,264.5 253.9,264.0 254.1,263.4 254.3,263.8 254.4,263.7 254.6,263.4 254.8,262.6 255.0,264.3 255.2,264.4 255.4,265.2 255.6,265.3 255.8,264.0 256.0,262.7 256.2,263.9 256.4,265.3 256.6,264.2 256.8,264.4 257.0,262.8 257.2,264.2 257.4,262.5 257.5,261.5 257.7,261.7 257.9,262.6 258.1,262.7 258.3,264.8 258.5,262.2 258.7,263.1 258.9,263.3 259.1,264.8 259.3,264.4 259.5,267.0 259.7,267.1 259.9,267.6 260.1,265.4 260.3,264.1 260.5,265.8 260.6,265.6 260.8,266.3 261.0,266.4 261.2,268.3 261.4,269.0 261.6,270.0 261.8,270.1 262.0,270.9 262.2,269.6 262.4,268.1 262.6,268.2 262.8,270.5 263.0,272.8 263.2,273.1 263.4,272.6 263.6,273.4 263.7,274.0 263.9,272.0 264.1,273.7 264.3,273.4 264.5,274.0 264.7,273.3 264.9,273.0 265.1,274.3 265.3,275.2 265.5,276.9 265.7,279.0 265.9,283.3 266.1,285.0 266.3,281.5 266.5,278.0 266.7,276.8 266.8,277.7 267.0,282.5 267.2,281.5 267.4,278.0 267.6,280.4 267.8,277.7 268.0,278.9 268.2,278.8 268.4,277.5 268.6,278.5 268.8,275.6 269.0,274.4 269.2,275.4 269.4,278.4 269.6,277.0 269.8,277.8 269.9,280.1 270.1,277.4 270.3,277.6 270.5,279.0 270.7,279.3 270.9,276.2 271.1,276.8 271.3,273.9 271.5,273.8 271.7,274.4 271.9,272.1 272.1,268.9 272.3,269.3 272.5,270.1 272.7,271.1 272.8,272.7 273.0,269.8 273.2,269.8 273.4,270.1 273.6,269.3 273.8,269.8 274.0,266.9 274.2,265.0 274.4,265.9 274.6,266.1 274.8,264.4 275.0,264.5 275.2,264.3 275.4,263.6 275.6,263.8 275.8,263.6 275.9,263.1 276.1,262.7 276.3,264.2 276.5,262.7 276.7,262.6 276.9,266.3 277.1,266.0 277.3,263.7 277.5,262.5 277.7,261.0 277.9,260.4 278.1,260.9 278.3,260.8 278.5,261.0 278.7,260.4 278.9,260.7 279.0,261.5 279.2,260.5 279.4,262.6 279.6,263.3 279.8,260.4 280.0,262.7 280.2,264.7 280.4,264.8 280.6,263.4 280.8,264.9 281.0,263.6 281.2,263.4 281.4,261.0 281.6,264.2 281.8,266.2 282.0,265.2 282.1,264.0 282.3,262.1 282.5,262.2 282.7,262.7 282.9,262.2 283.1,262.9 283.3,264.0 283.5,265.4 283.7,265.4 283.9,266.9 284.1,269.9 284.3,271.0 284.5,272.0 284.7,271.3 284.9,274.4 285.1,273.7 285.2,275.8 285.4,275.9 285.6,276.4 285.8,274.9 286.0,272.2 286.2,273.1 286.4,270.4 286.6,269.3 286.8,269.1 287.0,265.8 287.2,266.9 287.4,269.4 287.6,266.7 287.8,262.2 288.0,263.5 288.2,264.9 288.3,263.4 288.5,264.3 288.7,265.0 288.9,262.3 289.1,262.5 289.3,260.4 289.5,260.8 289.7,262.4 289.9,260.5 290.1,261.5 290.3,261.0 290.5,260.7 290.7,260.2 290.9,261.2 291.1,259.6 291.3,259.3 291.4,258.9 291.6,258.7 291.8,257.7 292.0,259.7 292.2,258.9 292.4,259.6 292.6,258.0 292.8,259.2 293.0,258.9 293.2,257.5 293.4,256.3 293.6,255.0 293.8,255.1 294.0,255.2 294.2,255.3 294.3,254.0 294.5,253.7 294.7,251.6 294.9,250.5 295.1,250.9 295.3,249.9 295.5,251.2 295.7,250.5 295.9,250.0 296.1,250.9 296.3,250.0 296.5,249.9 296.7,248.8 296.9,248.2 297.1,247.8 297.3,247.0 297.4,246.1 297.6,245.8 297.8,247.3 298.0,248.2 298.2,246.5 298.4,247.2 298.6,245.4 298.8,245.3 299.0,247.3 299.2,248.4 299.4,247.1 299.6,248.1 299.8,249.9 300.0,249.1 300.2,248.1 300.4,248.9 300.5,246.3 300.7,245.4 300.9,244.4 301.1,244.7 301.3,243.9 301.5,243.8 301.7,244.4 301.9,244.9 302.1,243.7 302.3,243.7 302.5,241.2 302.7,240.5 302.9,240.5 303.1,240.9 303.3,240.7 303.5,240.3 303.6,239.3 303.8,238.6 304.0,238.0 304.2,237.3 304.4,236.1 304.6,236.5 304.8,237.4 305.0,238.1 305.2,238.1 305.4,238.3 305.6,238.8 305.8,238.4 306.0,237.0 306.2,237.3 306.4,237.5 306.6,236.4 306.7,242.0 306.9,245.8 307.1,244.9 307.3,243.3 307.5,240.7 307.7,240.1 307.9,240.2 308.1,238.3 308.3,238.2 308.5,236.2 308.7,234.8 308.9,234.5 309.1,234.7 309.3,235.2 309.5,234.6 309.7,234.8 309.8,234.3 310.0,234.3 310.2,235.4 310.4,234.9 310.6,235.1 310.8,232.8 311.0,232.8 311.2,232.6 311.4,232.8 311.6,232.8 311.8,236.2 312.0,236.7 312.2,235.0 312.4,233.9 312.6,233.6 312.7,232.5 312.9,232.6 313.1,231.0 313.3,231.2 313.5,226.8 313.7,227.1 313.9,226.8 314.1,226.6 314.3,225.7 314.5,225.2 314.7,225.5 314.9,226.1 315.1,226.3 315.3,226.0 315.5,225.3 315.7,225.4 315.8,225.6 316.0,226.6 316.2,225.5 316.4,225.4 316.6,225.4 316.8,225.2 317.0,230.8 317.2,228.0 317.4,228.8 317.6,228.8 317.8,227.0 318.0,227.7 318.2,226.4 318.4,225.9 318.6,223.5 318.8,221.7 318.9,224.0 319.1,224.2 319.3,222.8 319.5,222.6 319.7,223.4 319.9,222.0 320.1,222.0 320.3,222.5 320.5,223.2 320.7,223.4 320.9,225.8 321.1,226.7 321.3,228.3 321.5,227.3 321.7,228.4 321.9,228.8 322.0,229.5 322.2,229.6 322.4,228.8 322.6,230.1 322.8,230.3 323.0,230.8 323.2,232.2 323.4,231.4 323.6,232.2 323.8,230.9 324.0,231.5 324.2,234.3 324.4,234.9 324.6,234.2 324.8,233.8 325.0,231.0 325.1,229.2 325.3,226.1 325.5,221.4 325.7,221.4 325.9,220.3 326.1,217.1 326.3,217.9 326.5,218.6 326.7,220.2 326.9,219.8 327.1,221.0 327.3,221.1 327.5,221.0 327.7,223.8 327.9,224.5 328.1,224.0 328.2,223.5 328.4,223.5 328.6,223.7 328.8,222.7 329.0,222.9 329.2,223.3 329.4,224.2 329.6,225.3 329.8,225.3 330.0,226.3 330.2,227.3 330.4,227.4 330.6,225.8 330.8,225.5 331.0,225.7 331.1,225.0 331.3,225.3 331.5,225.6 331.7,227.7 331.9,228.1 332.1,228.7 332.3,228.4 332.5,226.7 332.7,227.7 332.9,228.6 333.1,229.1 333.3,229.6 333.5,229.0 333.7,231.6 333.9,230.5 334.1,231.8 334.2,231.3 334.4,229.8 334.6,229.8 334.8,231.1 335.0,229.8 335.2,227.2 335.4,227.4 335.6,227.5 335.8,228.8 336.0,229.2 336.2,229.6 336.4,230.4 336.6,229.3 336.8,234.3 337.0,234.2 337.2,234.8 337.3,233.2 337.5,232.6 337.7,231.6 337.9,233.2 338.1,233.1 338.3,232.9 338.5,232.8 338.7,231.5 338.9,231.7 339.1,233.5 339.3,232.6 339.5,230.0 339.7,232.0 339.9,228.6 340.1,230.2 340.3,230.6 340.4,231.0 340.6,230.4 340.8,233.4 341.0,233.1 341.2,231.7 341.4,231.1 341.6,232.2 341.8,231.0 342.0,230.5 342.2,229.5 342.4,230.3 342.6,232.2 342.8,229.3 343.0,230.2 343.2,229.4 343.4,229.7 343.5,228.4 343.7,229.0 343.9,227.8 344.1,227.1 344.3,228.9 344.5,226.7 344.7,226.6 344.9,225.5 345.1,225.7 345.3,225.9 345.5,226.0 345.7,229.0 345.9,230.2 346.1,228.8 346.3,229.6 346.5,229.1 346.6,227.1 346.8,226.1 347.0,224.2 347.2,223.5 347.4,224.3 347.6,223.9 347.8,224.4 348.0,224.6 348.2,226.6 348.4,227.7 348.6,224.1 348.8,222.4 349.0,222.6 349.2,223.4 349.4,225.2 349.6,225.6 349.7,225.3 349.9,222.4 350.1,223.6 350.3,224.0 350.5,224.2 350.7,223.0 350.9,222.4 351.1,221.3 351.3,221.7 351.5,222.8 351.7,224.4 351.9,223.5 352.1,222.7 352.3,222.1 352.5,220.8 352.6,220.4 352.8,221.5 353.0,219.8 353.2,219.6 353.4,218.7 353.6,218.6 353.8,219.1 354.0,219.4 354.2,218.8 354.4,218.6 354.6,218.3 354.8,218.9 355.0,219.7 355.2,219.0 355.4,218.0 355.6,217.2 355.7,217.6 355.9,216.6 356.1,216.8 356.3,215.6 356.5,215.6 356.7,216.7 356.9,217.9 357.1,216.7 357.3,217.4 357.5,217.9 357.7,215.9 357.9,214.8 358.1,214.3 358.3,213.0 358.5,213.6 358.7,212.3 358.8,212.6 359.0,211.2 359.2,211.0 359.4,212.0 359.6,212.6 359.8,212.7 360.0,212.6 360.2,213.0 360.4,207.8 360.6,206.6 360.8,207.3 361.0,206.4 361.2,206.4 361.4,206.8 361.6,207.0 361.8,208.5 361.9,208.2 362.1,206.7 362.3,206.7 362.5,206.6 362.7,208.5 362.9,208.4 363.1,207.8 363.3,206.5 363.5,206.5 363.7,206.3 363.9,205.5 364.1,204.2 364.3,204.3 364.5,203.5 364.7,202.5 364.9,202.7 365.0,202.9 365.2,202.6 365.4,201.8 365.6,201.2 365.8,200.9 366.0,200.9 366.2,200.8 366.4,200.8 366.6,200.3 366.8,199.6 367.0,199.3 367.2,198.9 367.4,199.1 367.6,197.6 367.8,198.2 368.0,200.2 368.1,200.8 368.3,201.8 368.5,201.5 368.7,200.2 368.9,199.1 369.1,198.1 369.3,198.1 369.5,198.0 369.7,197.8 369.9,197.9 370.1,198.4 370.3,197.4 370.5,197.7 370.7,195.5 370.9,200.4 371.0,199.6 371.2,199.2 371.4,198.6 371.6,199.6 371.8,197.5 372.0,198.0 372.2,197.5 372.4,197.4 372.6,197.8 372.8,194.5 373.0,195.2 373.2,193.6 373.4,194.4 373.6,194.5 373.8,194.4 374.0,194.5 374.1,194.9 374.3,195.0 374.5,195.4 374.7,194.8 374.9,195.6 375.1,194.6 375.3,194.7 375.5,193.7 375.7,193.0 375.9,193.1 376.1,192.5 376.3,192.6 376.5,191.1 376.7,191.6 376.9,189.7 377.1,190.3 377.2,190.7 377.4,192.2 377.6,192.0 377.8,191.3 378.0,191.6 378.2,193.2 378.4,192.8 378.6,192.8 378.8,194.2 379.0,192.7 379.2,192.1 379.4,192.2 379.6,192.3 379.8,192.4 380.0,192.7 380.2,192.8 380.3,191.6 380.5,191.5 380.7,191.6 380.9,191.8 381.1,190.4 381.3,189.7 381.5,189.9 381.7,189.5 381.9,189.4 382.1,190.3 382.3,188.7 382.5,187.9 382.7,187.7 382.9,186.9 383.1,186.8 383.3,185.5 383.4,184.3 383.6,184.4 383.8,184.4 384.0,183.4 384.2,181.5 384.4,183.1 384.6,183.6 384.8,184.9 385.0,180.9 385.2,179.6 385.4,184.3 385.6,186.4 385.8,185.7 386.0,188.2 386.2,187.3 386.4,185.5 386.5,184.1 386.7,183.3 386.9,181.0 387.1,180.3 387.3,181.0 387.5,180.3 387.7,180.5 387.9,179.2 388.1,178.7 388.3,179.5 388.5,181.3 388.7,183.3 388.9,182.9 389.1,182.4 389.3,180.2 389.4,178.5 389.6,177.3 389.8,173.9 390.0,175.9 390.2,176.1 390.4,177.4 390.6,176.6 390.8,175.4 391.0,175.8 391.2,174.6 391.4,174.1 391.6,177.0 391.8,179.6 392.0,176.3 392.2,178.6 392.4,179.4 392.5,177.7 392.7,180.5 392.9,178.0 393.1,177.9 393.3,176.7 393.5,180.0 393.7,179.5 393.9,177.9 394.1,178.8 394.3,177.4 394.5,177.8 394.7,176.4 394.9,174.8 395.1,174.3 395.3,175.0 395.5,174.2 395.6,175.3 395.8,179.9 396.0,179.8 396.2,181.0 396.4,182.6 396.6,183.9 396.8,188.0 397.0,190.5 397.2,189.2 397.4,188.5 397.6,188.6 397.8,187.2 398.0,185.5 398.2,184.4 398.4,182.9 398.6,183.0 398.7,185.2 398.9,186.2 399.1,186.2 399.3,185.9 399.5,183.7 399.7,185.2 399.9,186.1 400.1,185.3 400.3,186.3 400.5,187.7 400.7,186.2 400.9,188.0 401.1,185.6 401.3,186.2 401.5,185.9 401.7,184.4 401.8,183.6 402.0,183.3 402.2,185.6 402.4,186.3 402.6,185.9 402.8,185.8 403.0,186.4 403.2,186.0 403.4,190.6 403.6,189.7 403.8,194.5 404.0,194.6 404.2,195.0 404.4,194.4 404.6,194.7 404.8,194.8 404.9,193.0 405.1,192.7 405.3,193.6 405.5,193.5 405.7,194.0 405.9,191.9 406.1,191.6 406.3,194.2 406.5,191.8 406.7,191.1 406.9,193.0 407.1,192.3 407.3,191.6 407.5,191.0 407.7,189.3 407.9,192.3 408.0,191.5 408.2,190.1 408.4,188.1 408.6,188.3 408.8,188.6 409.0,178.2 409.2,180.7 409.4,180.6 409.6,179.1 409.8,179.0 410.0,178.0 410.2,177.8 410.4,178.0 410.6,179.4 410.8,180.7 410.9,181.0 411.1,181.7 411.3,181.0 411.5,180.0 411.7,179.4 411.9,178.8 412.1,180.1 412.3,180.8 412.5,179.8 412.7,178.1 412.9,178.4 413.1,177.8 413.3,179.2 413.5,179.2 413.7,179.6 413.9,176.5 414.0,175.5 414.2,175.1 414.4,173.3 414.6,173.4 414.8,173.1 415.0,172.0 415.2,171.8 415.4,170.9 415.6,170.5 415.8,171.2 416.0,171.1 416.2,171.4 416.4,173.1 416.6,172.9 416.8,172.9 417.0,172.7 417.1,173.3 417.3,172.2 417.5,172.6 417.7,172.3 417.9,172.7 418.1,174.1 418.3,176.5 418.5,181.5 418.7,185.1 418.9,190.2 419.1,189.0 419.3,189.1 419.5,185.8 419.7,186.4 419.9,188.8 420.1,189.8 420.2,189.7 420.4,191.4 420.6,195.5 420.8,193.9 421.0,194.5 421.2,196.0 421.4,197.0 421.6,196.2 421.8,190.7 422.0,191.9 422.2,191.1 422.4,188.9 422.6,186.2 422.8,186.1 423.0,187.2 423.2,190.3 423.3,190.6 423.5,191.7 423.7,187.9 423.9,187.2 424.1,189.5 424.3,193.3 424.5,191.5 424.7,191.9 424.9,189.3 425.1,189.4 425.3,186.8 425.5,186.5 425.7,183.8 425.9,184.9 426.1,191.9 426.3,194.0 426.4,196.0 426.6,195.6 426.8,196.4 427.0,196.1 427.2,196.1 427.4,196.4 427.6,198.4 427.8,198.3 428.0,197.0 428.2,199.2 428.4,200.0 428.6,203.8 428.8,198.5 429.0,196.6 429.2,196.7 429.3,194.2 429.5,194.5 429.7,198.6 429.9,193.8 430.1,195.5 430.3,194.4 430.5,192.6 430.7,190.4 430.9,189.7 431.1,190.0 431.3,190.5 431.5,190.3 431.7,188.4 431.9,186.6 432.1,189.8 432.3,191.3 432.4,190.9 432.6,188.8 432.8,189.7 433.0,187.8 433.2,185.4 433.4,186.5 433.6,188.4 433.8,188.1 434.0,187.4 434.2,186.1 434.4,188.0 434.6,187.6 434.8,186.3 435.0,183.9 435.2,184.3 435.4,184.6 435.5,182.3 435.7,183.3 435.9,182.1 436.1,181.7 436.3,180.9 436.5,180.2 436.7,180.0 436.9,178.6 437.1,179.8 437.3,178.5 437.5,178.7 437.7,178.8 437.9,179.3 438.1,180.1 438.3,180.5 438.5,177.7 438.6,178.0 438.8,177.1 439.0,178.3 439.2,178.0 439.4,175.6 439.6,175.4 439.8,175.8 440.0,174.2 440.2,177.5 440.4,177.8 440.6,175.9 440.8,176.1 441.0,174.5 441.2,174.5 441.4,172.3 441.6,173.1 441.7,173.6 441.9,173.1 442.1,172.7 442.3,171.2 442.5,173.8 442.7,174.1 442.9,171.8 443.1,169.8 443.3,170.5 443.5,169.7 443.7,169.2 443.9,169.0 444.1,168.2 444.3,168.8 444.5,168.8 444.7,170.0 444.8,168.7 445.0,167.7 445.2,168.3 445.4,168.5 445.6,173.8 445.8,169.9 446.0,173.0 446.2,174.4 446.4,174.4 446.6,174.5 446.8,175.8 447.0,177.9 447.2,179.8 447.4,178.4 447.6,178.7 447.7,180.3 447.9,181.4 448.1,179.4 448.3,180.0 448.5,182.1 448.7,182.3 448.9,181.8 449.1,182.2 449.3,182.0 449.5,181.8 449.7,179.5 449.9,177.0 450.1,174.8 450.3,174.4 450.5,173.8 450.7,172.6 450.8,173.1 451.0,172.8 451.2,171.6 451.4,171.6 451.6,172.4 451.8,171.4 452.0,170.9 452.2,168.5 452.4,170.6 452.6,170.1 452.8,170.9 453.0,171.2 453.2,170.5 453.4,168.0 453.6,166.9 453.8,168.6 453.9,168.4 454.1,169.1 454.3,170.7 454.5,171.7 454.7,172.6 454.9,171.5 455.1,169.6 455.3,170.4 455.5,169.4 455.7,171.3 455.9,172.5 456.1,171.9 456.3,172.7 456.5,170.6 456.7,169.8 456.9,170.8 457.0,171.0 457.2,171.9 457.4,171.5 457.6,172.7 457.8,174.9 458.0,176.8 458.2,181.2 458.4,179.4 458.6,179.1 458.8,177.3 459.0,177.8 459.2,179.5 459.4,177.5 459.6,180.8 459.8,180.4 460.0,178.2 460.1,177.7 460.3,179.0 460.5,179.1 460.7,179.7 460.9,182.6 461.1,182.1 461.3,181.7 461.5,180.6 461.7,178.5 461.9,178.2 462.1,181.2 462.3,180.1 462.5,176.4 462.7,175.5 462.9,176.8 463.1,175.6 463.2,174.2 463.4,176.0 463.6,175.1 463.8,176.0 464.0,175.6 464.2,175.5 464.4,176.2 464.6,176.9 464.8,176.8 465.0,177.8 465.2,175.2 465.4,174.1 465.6,173.0 465.8,173.7 466.0,177.8 466.1,181.2 466.3,180.4 466.5,179.1 466.7,179.7 466.9,183.1 467.1,181.3 467.3,180.0 467.5,176.6 467.7,177.6 467.9,176.0 468.1,175.8 468.3,174.9 468.5,173.5 468.7,171.7 468.9,171.3 469.1,170.8 469.2,170.3 469.4,168.5 469.6,167.5 469.8,166.4 470.0,167.4 470.2,178.0 470.4,174.4 470.6,175.1 470.8,173.6 471.0,175.8 471.2,177.1 471.4,177.1 471.6,179.4 471.8,178.1 472.0,179.4 472.2,178.3 472.3,176.7 472.5,177.1 472.7,176.1 472.9,176.9 473.1,176.9 473.3,177.7 473.5,178.2 473.7,177.3 473.9,176.7 474.1,176.8 474.3,178.2 474.5,179.8 474.7,180.0 474.9,180.8 475.1,180.1 475.3,180.0 475.4,179.4 475.6,177.8 475.8,176.6 476.0,176.5 476.2,177.2 476.4,176.1 476.6,176.2 476.8,176.7 477.0,175.2 477.2,174.7 477.4,175.1 477.6,175.2 477.8,174.8 478.0,175.0 478.2,174.9 478.4,173.4 478.5,172.7 478.7,173.4 478.9,173.9 479.1,173.5 479.3,173.0 479.5,173.2 479.7,171.3 479.9,171.2 480.1,169.6 480.3,168.7 480.5,168.2 480.7,169.7 480.9,170.0 481.1,169.8 481.3,171.0 481.5,172.8 481.6,171.3 481.8,168.6 482.0,168.0 482.2,170.8 482.4,168.4 482.6,164.1 482.8,162.6 483.0,168.7 483.2,167.2 483.4,165.1 483.6,163.1 483.8,160.6 484.0,163.4 484.2,161.9 484.4,162.0 484.6,162.2 484.7,161.2 484.9,161.4 485.1,164.2 485.3,167.0 485.5,167.6 485.7,172.2 485.9,177.1 486.1,169.9 486.3,173.3 486.5,165.7 486.7,169.6 486.9,171.4 487.1,179.2 487.3,177.9 487.5,183.4 487.6,197.5 487.8,185.2 488.0,197.1 488.2,185.6 488.4,196.3 488.6,198.2 488.8,206.7 489.0,213.1 489.2,202.7 489.4,199.2 489.6,192.0 489.8,196.3 490.0,195.0 490.2,197.0 490.4,206.9 490.6,200.1 490.7,205.5 490.9,196.9 491.1,195.1 491.3,190.1 491.5,189.7 491.7,191.6 491.9,188.0 492.1,193.5 492.3,194.4 492.5,189.3 492.7,189.8 492.9,191.8 493.1,190.0 493.3,192.0 493.5,191.1 493.7,187.3 493.8,183.0 494.0,182.5 494.2,185.5 494.4,189.8 494.6,191.0 494.8,197.1 495.0,200.7 495.2,199.8 495.4,200.8 495.6,201.7 495.8,208.3 496.0,210.0 496.2,208.5 496.4,210.0 496.6,202.6 496.8,205.4 496.9,202.5 497.1,202.7 497.3,202.3 497.5,196.8 497.7,190.5 497.9,191.7 498.1,194.8 498.3,195.4 498.5,192.1 498.7,188.5 498.9,188.0 499.1,184.1 499.3,184.9 499.5,188.2 499.7,191.1 499.9,199.4 500.0,198.7 500.2,198.1 500.4,193.9 500.6,193.6 500.8,194.7 501.0,196.7 501.2,196.6 501.4,198.5 501.6,201.8 501.8,202.4 502.0,200.5 502.2,198.5 502.4,197.3 502.6,199.6 502.8,196.4 503.0,193.4 503.1,195.3 503.3,195.9 503.5,194.5 503.7,194.5 503.9,193.1 504.1,183.2 504.3,180.6 504.5,181.0 504.7,181.8 504.9,181.9 505.1,181.5 505.3,181.5 505.5,181.2 505.7,181.8 505.9,180.2 506.0,181.6 506.2,177.3 506.4,181.1 506.6,183.8 506.8,182.8 507.0,182.5 507.2,179.0 507.4,179.4 507.6,177.3 507.8,174.6 508.0,172.7 508.2,173.0 508.4,173.9 508.6,173.7 508.8,174.3 509.0,174.1 509.1,174.0 509.3,174.0 509.5,174.0 509.7,171.1 509.9,171.8 510.1,172.1 510.3,171.4 510.5,170.3 510.7,172.9 510.9,170.7 511.1,168.6 511.3,170.8 511.5,170.5 511.7,171.2 511.9,168.3 512.1,170.3 512.2,166.7 512.4,167.2 512.6,166.9 512.8,165.8 513.0,165.0 513.2,165.3 513.4,168.2 513.6,167.6 513.8,169.7 514.0,170.0 514.2,168.8 514.4,167.7 514.6,167.8 514.8,167.3 515.0,169.5 515.2,166.9 515.3,164.3 515.5,164.1 515.7,161.8 515.9,159.7 516.1,158.7 516.3,157.1 516.5,159.6 516.7,158.4 516.9,158.3 517.1,157.6 517.3,159.0 517.5,157.6 517.7,158.5 517.9,158.4 518.1,157.5 518.3,159.4 518.4,160.7 518.6,163.0 518.8,163.6 519.0,163.2 519.2,161.3 519.4,157.4 519.6,163.7 519.8,158.4 520.0,158.1 520.2,155.0 520.4,153.1 520.6,154.7 520.8,156.5 521.0,153.2 521.2,150.4 521.4,152.1 521.5,153.3 521.7,154.0 521.9,154.0 522.1,153.6 522.3,150.2 522.5,151.2 522.7,150.7 522.9,152.1 523.1,150.7 523.3,151.9 523.5,151.1 523.7,149.2 523.9,149.4 524.1,148.9 524.3,149.0 524.4,149.4 524.6,149.1 524.8,150.7 525.0,147.6 525.2,148.4 525.4,147.6 525.6,147.2 525.8,146.5 526.0,148.0 526.2,147.6 526.4,147.0 526.6,146.9 526.8,147.9 527.0,146.4 527.2,145.2 527.4,147.7 527.5,147.8 527.7,143.0 527.9,137.9 528.1,139.0 528.3,140.5 528.5,140.7 528.7,141.4 528.9,141.1 529.1,143.3 529.3,142.5 529.5,142.8 529.7,143.7 529.9,144.3 530.1,146.1 530.3,148.2 530.5,149.7 530.6,148.4 530.8,151.3 531.0,150.7 531.2,150.6 531.4,153.1 531.6,150.6 531.8,149.4 532.0,146.2 532.2,145.9 532.4,146.0 532.6,148.5 532.8,148.3 533.0,148.5 533.2,149.4 533.4,151.1 533.6,147.6 533.7,147.9 533.9,148.6 534.1,146.0 534.3,147.3 534.5,147.8 534.7,144.7 534.9,145.0 535.1,146.0 535.3,149.0 535.5,147.0 535.7,146.2 535.9,147.3 536.1,146.1 536.3,146.1 536.5,145.1 536.7,142.7 536.8,144.4 537.0,142.3 537.2,142.6 537.4,142.7 537.6,144.5 537.8,146.8 538.0,146.0 538.2,145.1 538.4,141.9 538.6,142.5 538.8,141.8 539.0,141.4 539.2,142.0 539.4,140.1 539.6,140.0 539.8,140.6 539.9,140.8 540.1,138.4 540.3,137.9 540.5,139.3 540.7,138.6 540.9,138.3 541.1,137.7 541.3,138.2 541.5,138.8 541.7,136.8 541.9,137.2 542.1,135.8 542.3,135.8 542.5,134.8 542.7,134.9 542.9,133.9 543.0,135.6 543.2,134.6 543.4,130.2 543.6,128.8 543.8,127.4 544.0,126.8 544.2,126.4 544.4,128.5 544.6,133.2 544.8,130.3 545.0,127.7 545.2,128.6 545.4,131.0 545.6,133.0 545.8,132.3 545.9,130.6 546.1,130.2 546.3,129.3 546.5,129.2 546.7,128.5 546.9,128.0 547.1,126.9 547.3,127.4 547.5,127.6 547.7,126.9 547.9,127.1 548.1,126.4 548.3,127.7 548.5,127.9 548.7,128.0 548.9,128.8 549.0,128.0 549.2,130.6 549.4,132.2 549.6,132.7 549.8,129.8 550.0,129.7 550.2,130.0 550.4,129.2 550.6,129.3 550.8,127.0 551.0,126.9 551.2,126.2 551.4,126.0 551.6,125.3 551.8,125.7 552.0,125.5 552.1,127.0 552.3,125.2 552.5,124.6 552.7,125.4 552.9,125.2 553.1,126.2 553.3,126.8 553.5,128.9 553.7,124.7 553.9,123.9 554.1,124.3 554.3,123.1 554.5,122.3 554.7,122.4 554.9,123.4 555.1,121.4 555.2,120.7 555.4,120.9 555.6,118.8 555.8,119.9 556.0,119.1 556.2,118.0 556.4,118.3 556.6,117.4 556.8,116.7 557.0,115.9 557.2,115.5 557.4,114.3 557.6,115.3 557.8,116.7 558.0,116.7 558.2,115.5 558.3,115.0 558.5,113.4 558.7,112.4 558.9,113.2 559.1,112.6 559.3,111.3 559.5,111.4 559.7,111.2 559.9,110.0 560.1,110.6 560.3,112.0 560.5,112.4 560.7,113.4 560.9,113.1 561.1,114.5 561.3,114.7 561.4,113.2 561.6,114.4 561.8,115.5 562.0,116.0 562.2,116.1 562.4,114.1 562.6,112.4 562.8,112.0 563.0,113.1 563.2,117.9 563.4,118.9 563.6,122.7 563.8,124.9 564.0,126.9 564.2,123.8 564.3,124.0 564.5,123.9 564.7,124.8 564.9,127.3 565.1,127.4 565.3,126.2 565.5,123.0 565.7,121.7 565.9,121.4 566.1,121.0 566.3,120.0 566.5,118.6 566.7,118.0 566.9,117.8 567.1,118.9 567.3,118.7 567.4,115.8 567.6,116.4 567.8,117.6 568.0,117.8 568.2,120.9 568.4,117.1 568.6,116.0 568.8,114.2 569.0,113.8 569.2,114.9 569.4,116.6 569.6,116.4 569.8,117.4 570.0,116.1 570.2,116.8 570.4,116.7 570.5,117.7 570.7,119.1 570.9,120.0 571.1,121.4 571.3,123.7 571.5,122.6 571.7,125.1 571.9,127.5 572.1,125.8 572.3,128.0 572.5,125.5 572.7,122.2 572.9,122.2 573.1,123.2 573.3,123.5 573.5,124.2 573.6,127.5 573.8,126.4 574.0,127.5 574.2,130.3 574.4,132.1 574.6,130.1 574.8,129.9 575.0,128.6 575.2,127.8 575.4,126.6 575.6,126.8 575.8,127.0 576.0,126.3 576.2,129.2 576.4,128.0 576.6,129.6 576.7,129.7 576.9,130.7 577.1,131.9 577.3,129.9 577.5,129.9 577.7,131.7 577.9,134.6 578.1,136.3 578.3,137.8 578.5,140.0 578.7,139.4 578.9,138.8 579.1,142.9 579.3,144.4 579.5,146.8 579.7,145.3 579.8,141.6 580.0,141.7 580.2,142.6 580.4,157.4 580.6,158.8 580.8,160.2 581.0,157.7 581.2,153.0 581.4,157.2 581.6,160.5 581.8,160.5 582.0,158.2 582.2,158.6 582.4,159.7 582.6,158.7 582.7,159.5 582.9,161.9 583.1,162.5 583.3,158.3 583.5,160.9 583.7,163.7 583.9,161.9 584.1,160.9 584.3,165.8 584.5,168.3 584.7,169.8 584.9,165.3 585.1,168.6 585.3,168.0 585.5,167.5 585.7,165.4 585.8,163.3 586.0,162.0 586.2,162.0 586.4,162.6 586.6,161.2 586.8,164.0 587.0,164.3 587.2,163.8 587.4,163.6 587.6,160.4 587.8,162.0 588.0,165.8 588.2,164.5 588.4,163.7 588.6,163.6 588.8,163.8 588.9,163.8 589.1,163.9 589.3,165.1 589.5,166.3 589.7,164.0 589.9,167.3 590.1,169.4 590.3,165.7 590.5,163.7 590.7,164.1 590.9,166.6 591.1,167.4 591.3,172.0 591.5,170.1 591.7,168.3 591.9,172.4 592.0,170.5 592.2,169.8 592.4,159.1 592.6,164.4 592.8,165.8 593.0,166.1 593.2,169.4 593.4,171.9 593.6,169.2 593.8,167.6 594.0,170.6 594.2,167.4 594.4,171.8 594.6,170.4 594.8,170.7 595.0,171.4 595.1,170.4 595.3,171.7 595.5,167.6 595.7,164.9 595.9,167.1 596.1,167.8 596.3,164.1 596.5,165.5 596.7,165.2 596.9,164.8 597.1,166.6 597.3,169.3 597.5,172.9 597.7,177.6 597.9,178.3 598.1,178.4 598.2,183.6 598.4,183.9 598.6,180.9 598.8,179.8 599.0,177.8 599.2,173.7 599.4,173.8 599.6,176.2 599.8,176.0 600.0,175.8 600.2,175.0 600.4,174.9 600.6,173.9 600.8,172.7 601.0,175.0 601.2,175.8 601.3,177.9 601.5,179.0 601.7,179.9 601.9,177.2 602.1,179.3 602.3,173.5 602.5,171.4 602.7,168.9 602.9,167.0 603.1,167.1 603.3,166.2 603.5,163.1 603.7,159.5 603.9,156.9 604.1,158.0 604.2,152.8 604.4,150.5 604.6,150.0 604.8,150.6 605.0,147.7 605.2,149.6 605.4,146.7 605.6,146.0 605.8,143.4 606.0,143.3 606.2,142.8 606.4,144.6 606.6,144.6 606.8,147.8 607.0,150.8 607.2,151.8 607.3,151.9 607.5,150.2 607.7,155.7 607.9,156.9 608.1,157.8 608.3,158.1 608.5,156.8 608.7,158.0 608.9,156.3 609.1,152.3 609.3,151.5 609.5,151.0 609.7,150.1 609.9,154.8 610.1,153.8 610.3,154.1 610.4,155.4 610.6,151.5 610.8,153.4 611.0,155.2 611.2,158.6 611.4,159.7 611.6,160.9 611.8,161.6 612.0,158.8 612.2,162.0 612.4,162.9 612.6,159.2 612.8,155.5 613.0,156.1 613.2,157.4 613.4,160.4 613.5,161.0 613.7,160.7 613.9,163.1 614.1,161.7 614.3,164.5 614.5,158.8 614.7,155.0 614.9,155.8 615.1,158.2 615.3,154.6 615.5,152.0 615.7,149.4 615.9,148.4 616.1,146.7 616.3,144.4 616.5,144.5 616.6,141.0 616.8,142.5 617.0,139.3 617.2,139.2 617.4,137.6 617.6,138.1 617.8,141.3 618.0,134.4 618.2,135.0 618.4,137.3 618.6,134.0 618.8,133.7 619.0,135.4 619.2,133.5 619.4,134.2 619.6,133.6 619.7,132.9 619.9,132.6 620.1,136.7 620.3,136.4 620.5,133.8 620.7,132.3 620.9,132.6 621.1,134.1 621.3,135.4 621.5,135.2 621.7,134.9 621.9,135.0 622.1,132.8 622.3,131.1 622.5,131.4 622.6,135.6 622.8,136.3 623.0,137.9 623.2,138.1 623.4,135.1 623.6,136.5 623.8,136.5 624.0,135.5 624.2,137.4 624.4,134.5 624.6,135.7 624.8,135.5 625.0,135.6 625.2,139.0 625.4,134.9 625.6,134.4 625.7,133.2 625.9,131.2 626.1,129.9 626.3,129.2 626.5,130.1 626.7,132.6 626.9,137.7 627.1,136.1 627.3,145.7 627.5,143.2 627.7,144.4 627.9,145.8 628.1,144.5 628.3,146.0 628.5,142.7 628.7,141.7 628.8,140.6 629.0,141.4 629.2,142.7 629.4,138.6 629.6,140.3 629.8,140.5 630.0,140.4 630.2,139.3 630.4,139.1 630.6,138.5 630.8,140.3 631.0,139.1 631.2,143.6 631.4,143.8 631.6,143.5 631.8,144.5 631.9,144.4 632.1,144.3 632.3,146.0 632.5,144.7 632.7,142.8 632.9,143.2 633.1,144.8 633.3,145.3 633.5,146.7 633.7,148.5 633.9,149.8 634.1,147.4 634.3,151.4 634.5,150.6 634.7,153.6 634.9,150.0 635.0,149.0 635.2,150.1 635.4,150.5 635.6,148.9 635.8,148.0 636.0,147.3 636.2,145.6 636.4,144.5 636.6,142.0 636.8,142.2 637.0,145.9 637.2,147.0 637.4,147.0 637.6,145.5 637.8,144.2 638.0,143.3 638.1,142.1 638.3,142.3 638.5,142.0 638.7,142.5 638.9,143.0 639.1,142.7 639.3,142.4 639.5,142.2 639.7,144.0 639.9,146.2 640.1,142.9 640.3,142.9 640.5,142.2 640.7,142.2 640.9,142.6 641.0,140.2 641.2,137.3 641.4,139.1 641.6,139.7 641.8,139.7 642.0,141.5 642.2,141.9 642.4,142.0 642.6,143.6 642.8,142.8 643.0,142.3 643.2,141.7 643.4,142.4 643.6,142.6 643.8,146.1 644.0,148.6 644.1,149.2 644.3,148.9 644.5,147.1 644.7,144.9 644.9,141.6 645.1,140.4 645.3,140.2 645.5,139.4 645.7,137.3 645.9,136.6 646.1,137.5 646.3,135.4 646.5,134.4 646.7,132.8 646.9,132.7 647.1,132.9 647.2,132.6 647.4,133.7 647.6,135.2 647.8,135.6 648.0,134.6 648.2,135.7 648.4,134.9 648.6,133.5 648.8,134.3 649.0,136.0 649.2,136.7 649.4,136.7 649.6,134.4 649.8,133.5 650.0,134.6 650.2,135.5 650.3,136.8 650.5,135.6 650.7,135.3 650.9,134.7 651.1,132.6 651.3,132.4 651.5,132.2 651.7,131.8 651.9,132.3 652.1,133.2 652.3,133.5 652.5,133.4 652.7,134.2 652.9,134.1 653.1,138.0 653.3,140.9 653.4,139.5 653.6,141.5 653.8,144.6 654.0,144.5 654.2,144.6 654.4,144.9 654.6,146.1 654.8,147.3 655.0,147.9 655.2,147.9 655.4,147.4 655.6,147.9 655.8,146.6 656.0,147.7 656.2,145.9 656.4,145.2 656.5,144.7 656.7,143.3 656.9,143.3 657.1,144.3 657.3,149.9 657.5,149.9 657.7,152.4 657.9,153.0 658.1,151.2 658.3,151.3 658.5,153.2 658.7,151.6 658.9,152.6 659.1,152.7 659.3,153.4 659.5,155.0 659.6,157.7 659.8,158.3 660.0,158.2 660.2,160.1 660.4,159.1 660.6,158.2 660.8,158.2 661.0,157.2 661.2,159.3 661.4,157.9 661.6,159.3 661.8,158.3 662.0,158.1 662.2,157.0 662.4,156.5 662.5,157.9 662.7,159.3 662.9,157.1 663.1,155.7 663.3,159.1 663.5,156.8 663.7,157.2 663.9,160.0 664.1,160.2 664.3,162.4 664.5,161.2 664.7,161.9 664.9,160.4 665.1,155.0 665.3,153.9 665.5,154.1 665.6,150.9 665.8,151.8 666.0,151.1 666.2,151.1 666.4,151.0 666.6,149.1 666.8,149.0 667.0,145.9 667.2,147.0 667.4,145.8 667.6,146.0 667.8,147.1 668.0,146.1 668.2,144.8 668.4,143.6 668.6,143.7 668.7,144.3 668.9,143.3 669.1,141.5 669.3,140.3 669.5,140.0 669.7,140.8 669.9,140.4 670.1,140.5 670.3,140.1 670.5,138.7 670.7,138.4 670.9,137.1 671.1,135.3 671.3,135.5 671.5,135.5 671.7,134.6 671.8,136.6 672.0,134.5 672.2,133.5 672.4,132.5 672.6,131.7 672.8,131.8 673.0,131.8 673.2,132.5 673.4,134.6 673.6,133.8 673.8,134.0 674.0,133.3 674.2,134.1 674.4,133.9 674.6,134.5 674.8,134.4 674.9,135.2 675.1,136.6 675.3,134.8 675.5,134.3 675.7,132.7 675.9,132.4 676.1,134.5 676.3,133.2 676.5,133.8 676.7,132.8 676.9,132.4 677.1,133.7 677.3,130.7 677.5,130.7 677.7,132.0 677.9,126.6 678.0,123.0 678.2,123.9 678.4,122.1 678.6,123.0 678.8,124.5 679.0,122.2 679.2,122.0 679.4,122.6 679.6,122.3 679.8,122.9 680.0,121.4 680.2,120.9 680.4,120.8 680.6,120.8 680.8,120.9 680.9,119.6 681.1,118.8 681.3,118.8 681.5,120.3 681.7,120.2 681.9,119.6 682.1,119.5 682.3,120.4 682.5,118.3 682.7,118.7 682.9,118.7 683.1,119.4 683.3,119.2 683.5,118.3 683.7,118.1 683.9,116.9 684.0,117.6 684.2,118.9 684.4,118.8 684.6,117.5 684.8,117.6 685.0,118.1 685.2,118.6 685.4,117.9 685.6,119.4 685.8,118.5 686.0,118.9 686.2,117.9 686.4,118.5 686.6,118.0 686.8,118.6 687.0,119.3 687.1,118.7 687.3,120.3 687.5,119.5 687.7,118.8 687.9,117.8 688.1,116.3 688.3,116.3 688.5,116.4 688.7,114.8 688.9,114.6 689.1,116.3 689.3,116.1 689.5,111.7 689.7,110.7 689.9,109.0 690.1,108.3 690.2,107.3 690.4,106.2 690.6,105.9 690.8,107.3 691.0,106.6 691.2,105.2 691.4,106.1 691.6,105.6 691.8,103.6 692.0,103.5 692.2,104.1 692.4,105.3 692.6,104.9 692.8,108.0 693.0,110.0 693.2,108.8 693.3,107.5 693.5,109.5 693.7,110.7 693.9,108.6 694.1,110.9 694.3,110.6 694.5,108.9 694.7,109.6 694.9,107.8 695.1,107.8 695.3,110.0 695.5,108.7 695.7,108.0 695.9,109.0 696.1,109.4 696.3,109.7 696.4,110.9 696.6,111.5 696.8,111.3 697.0,112.0 697.2,115.5 697.4,114.9 697.6,114.5 697.8,113.2 698.0,113.3 698.2,113.7 698.4,111.4 698.6,110.1 698.8,109.6 699.0,110.6 699.2,107.3 699.3,109.2 699.5,110.0 699.7,110.4 699.9,108.9 700.1,107.7 700.3,111.1 700.5,110.7 700.7,107.6 700.9,107.1 701.1,113.8 701.3,113.8 701.5,114.0 701.7,116.8 701.9,120.4 702.1,119.3 702.3,119.8 702.4,118.4 702.6,118.2 702.8,119.2 703.0,115.4 703.2,115.6 703.4,114.1 703.6,114.4 703.8,113.1 704.0,113.3 704.2,111.8 704.4,112.2 704.6,110.9 704.8,111.5 705.0,112.2 705.2,111.8 705.4,111.9 705.5,110.4 705.7,116.3 705.9,117.7 706.1,118.7 706.3,119.9 706.5,117.5 706.7,117.1 706.9,117.0 707.1,116.0 707.3,116.2 707.5,114.4 707.7,114.1 707.9,114.4 708.1,111.4 708.3,112.7 708.5,113.0 708.6,114.2 708.8,113.7 709.0,113.3 709.2,113.0 709.4,112.5 709.6,113.1 709.8,113.1 710.0,114.2 710.2,113.9 710.4,113.4 710.6,113.2 710.8,111.4 711.0,113.2 711.2,110.9 711.4,110.6 711.6,111.1 711.7,110.4 711.9,112.4 712.1,113.1 712.3,114.7 712.5,115.7 712.7,115.4 712.9,116.3 713.1,116.5 713.3,116.2 713.5,117.0 713.7,116.7 713.9,124.5 714.1,126.7 714.3,125.4 714.5,124.0 714.7,122.6 714.8,122.7 715.0,122.0 715.2,121.8 715.4,121.6 715.6,122.6 715.8,124.6 716.0,124.5 716.2,123.8 716.4,124.0 716.6,123.5 716.8,121.1 717.0,119.7 717.2,117.9 717.4,121.9 717.6,120.9 717.8,119.8 717.9,119.6 718.1,119.0 718.3,119.1 718.5,120.3 718.7,120.2 718.9,117.5 719.1,118.2 719.3,123.0 719.5,125.1 719.7,125.6 719.9,125.4 720.1,125.4 720.3,129.2 720.5,129.7 720.7,129.0 720.8,128.6 721.0,128.0 721.2,127.7 721.4,128.6 721.6,129.8 721.8,130.1 722.0,130.2 722.2,128.9 722.4,129.3 722.6,130.3 722.8,130.2 723.0,132.1 723.2,130.5 723.4,130.7 723.6,130.0 723.8,127.2 723.9,126.5 724.1,124.3 724.3,124.6 724.5,124.7 724.7,124.7 724.9,124.1 725.1,124.9 725.3,125.0 725.5,124.5 725.7,122.3 725.9,123.5 726.1,117.6 726.3,117.1 726.5,115.6 726.7,115.9 726.9,115.8 727.0,115.1 727.2,117.0 727.4,115.9 727.6,117.5 727.8,116.5 728.0,116.7 728.2,117.1 728.4,119.3 728.6,118.5 728.8,118.6 729.0,118.2 729.2,118.0 729.4,116.1 729.6,117.1 729.8,119.3 730.0,117.2 730.1,117.8 730.3,116.4 730.5,118.5 730.7,122.7 730.9,123.5 731.1,125.2 731.3,123.5 731.5,123.2 731.7,125.3 731.9,124.9 732.1,126.3 732.3,127.7 732.5,125.4 732.7,123.2 732.9,123.2 733.1,124.2 733.2,126.7 733.4,126.7 733.6,126.3 733.8,127.1 734.0,135.2 734.2,142.1 734.4,143.1 734.6,144.0 734.8,135.7 735.0,138.7 735.2,137.2 735.4,136.6 735.6,137.2 735.8,137.1 736.0,135.8 736.2,137.8 736.3,134.5 736.5,132.8 736.7,130.5 736.9,130.0 737.1,130.2 737.3,127.5 737.5,125.6 737.7,125.5 737.9,122.1 738.1,123.9 738.3,125.7 738.5,125.1 738.7,123.0 738.9,123.5 739.1,119.4 739.2,119.7 739.4,121.0 739.6,120.0 739.8,118.7 740.0,118.7 740.2,119.6 740.4,120.8 740.6,121.2 740.8,122.3 741.0,120.3 741.2,120.8 741.4,120.8 741.6,120.5 741.8,120.8 742.0,119.5 742.2,119.9 742.3,119.9 742.5,119.9 742.7,119.0 742.9,118.3 743.1,119.6 743.3,119.3 743.5,121.0 743.7,119.1 743.9,121.1 744.1,121.3 744.3,121.9 744.5,121.0 744.7,119.5 744.9,119.2 745.1,117.4 745.3,118.5 745.4,117.5 745.6,116.0 745.8,115.4 746.0,114.9 746.2,116.0 746.4,115.7 746.6,115.5 746.8,115.5 747.0,116.1 747.2,116.0 747.4,117.2 747.6,116.5 747.8,114.7 748.0,114.5 748.2,115.2 748.4,116.0 748.5,115.3 748.7,115.8 748.9,114.6 749.1,114.9 749.3,115.2 749.5,116.4 749.7,104.6 749.9,106.5 750.1,105.1 750.3,105.4 750.5,105.4 750.7,105.5 750.9,106.1 751.1,106.0 751.3,105.5 751.5,105.4 751.6,106.8 751.8,107.7 752.0,107.6 752.2,106.8 752.4,106.8 752.6,108.1 752.8,105.3 753.0,106.1 753.2,105.6 753.4,104.6 753.6,105.0 753.8,107.0 754.0,108.0 754.2,108.6 754.4,106.7 754.6,107.9 754.7,108.3 754.9,110.4 755.1,110.2 755.3,106.8 755.5,107.0 755.7,106.9 755.9,107.7 756.1,107.5 756.3,106.5 756.5,106.0 756.7,105.4 756.9,105.8 757.1,107.1 757.3,107.1 757.5,105.8 757.6,105.1 757.8,102.3 758.0,102.0 758.2,101.1 758.4,100.4 758.6,100.4 758.8,101.8 759.0,101.7 759.2,102.8 759.4,104.8 759.6,103.5 759.8,103.0 760.0,103.6 760.2,104.4 760.4,103.5 760.6,102.9 760.7,102.5 760.9,103.5 761.1,102.1 761.3,101.7 761.5,100.8 761.7,99.9 761.9,98.1 762.1,99.2 762.3,99.7 762.5,101.0 762.7,100.6 762.9,99.8 763.1,100.1 763.3,99.3 763.5,99.5 763.7,100.5 763.8,100.4 764.0,102.5 764.2,106.1 764.4,107.5 764.6,108.2 764.8,109.2 765.0,110.0 765.2,108.0 765.4,106.8 765.6,107.1 765.8,107.4 766.0,107.8 766.2,108.8 766.4,108.8 766.6,107.6 766.8,107.6 766.9,109.1 767.1,109.7 767.3,110.9 767.5,109.6 767.7,108.3 767.9,110.7 768.1,109.8 768.3,110.3 768.5,110.9 768.7,111.1 768.9,109.9 769.1,109.1 769.3,109.5 769.5,109.4 769.7,109.3 769.9,109.6 770.0,110.3 770.2,111.5 770.4,110.7 770.6,109.2 770.8,107.2 771.0,108.8 771.2,107.6 771.4,108.6 771.6,109.1 771.8,108.2 772.0,108.2 772.2,104.4 772.4,103.4 772.6,109.3 772.8,106.9 773.0,105.9 773.1,107.3 773.3,105.6 773.5,108.0 773.7,112.1 773.9,110.1 774.1,110.1 774.3,108.4 774.5,109.5 774.7,108.5 774.9,109.0 775.1,106.6 775.3,108.2 775.5,117.9 775.7,119.8 775.9,120.4 776.1,118.6 776.2,118.5 776.4,117.6 776.6,117.6 776.8,118.1 777.0,119.4 777.2,118.6 777.4,118.5 777.6,115.2 777.8,117.3 778.0,117.8 778.2,119.4 778.4,117.4 778.6,120.3 778.8,123.2 779.0,122.8 779.1,123.6 779.3,123.9 779.5,126.2 779.7,126.3 779.9,125.1 780.1,124.5 780.3,126.5 780.5,125.7 780.7,125.8 780.9,126.2 781.1,125.7 781.3,124.5 781.5,126.7 781.7,128.6 781.9,129.9 782.1,126.7 782.2,123.8 782.4,125.0 782.6,122.5 782.8,122.1 783.0,118.7 783.2,117.4 783.4,118.1 783.6,117.9 783.8,117.2 784.0,121.3 784.2,121.3 784.4,125.1 784.6,125.7 784.8,126.2 785.0,124.8 785.2,124.6 785.3,124.8 785.5,122.8 785.7,128.2 785.9,130.7 786.1,128.0 786.3,130.7 786.5,131.3 786.7,129.7 786.9,127.5 787.1,130.5 787.3,132.4 787.5,134.2 787.7,134.6 787.9,137.3 788.1,136.8 788.3,138.3 788.4,138.1 788.6,140.2 788.8,138.1 789.0,137.6 789.2,136.0 789.4,135.1 789.6,136.1 789.8,137.0 790.0,136.7 790.2,138.0 790.4,135.9 790.6,136.6 790.8,136.1 791.0,136.3 791.2,136.8 791.4,135.3 791.5,139.3 791.7,137.3 791.9,136.2 792.1,135.2 792.3,134.1 792.5,135.9 792.7,134.8 792.9,134.4 793.1,135.8 793.3,134.1 793.5,129.1 793.7,129.7 793.9,129.4 794.1,127.9 794.3,128.8 794.5,128.0 794.6,126.7 794.8,125.6 795.0,127.5 795.2,127.3 795.4,125.0 795.6,125.0 795.8,124.7 796.0,124.8"/><polyline fill="none" stroke="#16a34a" stroke-width="3" points="78.0,311.4 78.2,306.3 78.4,307.1 78.6,306.8 78.8,309.0 79.0,309.0 79.2,305.4 79.4,304.4 79.5,304.5 79.7,307.8 79.9,305.0 80.1,304.1 80.3,300.1 80.5,297.6 80.7,300.6 80.9,301.6 81.1,307.0 81.3,309.7 81.5,308.2 81.7,313.1 81.9,314.3 82.1,313.6 82.3,312.5 82.5,312.2 82.6,311.5 82.8,312.8 83.0,312.5 83.2,314.0 83.4,313.9 83.6,313.7 83.8,317.0 84.0,314.6 84.2,315.7 84.4,312.6 84.6,310.8 84.8,310.9 85.0,307.0 85.2,308.2 85.4,309.4 85.6,312.7 85.7,310.4 85.9,312.5 86.1,312.8 86.3,315.0 86.5,312.5 86.7,308.9 86.9,310.9 87.1,310.6 87.3,307.8 87.5,308.2 87.7,307.8 87.9,307.2 88.1,304.8 88.3,303.1 88.5,304.2 88.7,306.7 88.8,303.0 89.0,304.6 89.2,306.6 89.4,306.1 89.6,304.7 89.8,302.6 90.0,304.2 90.2,304.5 90.4,304.5 90.6,298.5 90.8,300.1 91.0,301.3 91.2,304.0 91.4,302.2 91.6,300.2 91.8,303.1 91.9,303.7 92.1,303.2 92.3,303.2 92.5,299.2 92.7,300.0 92.9,298.3 93.1,299.4 93.3,297.5 93.5,296.8 93.7,297.9 93.9,298.2 94.1,298.3 94.3,298.8 94.5,298.5 94.7,297.8 94.9,296.0 95.0,295.0 95.2,296.2 95.4,295.2 95.6,297.4 95.8,296.9 96.0,299.2 96.2,302.9 96.4,299.4 96.6,299.8 96.8,301.4 97.0,303.1 97.2,301.5 97.4,299.7 97.6,297.0 97.8,295.8 97.9,292.1 98.1,292.3 98.3,290.8 98.5,293.0 98.7,294.1 98.9,296.7 99.1,296.6 99.3,297.1 99.5,297.2 99.7,294.4 99.9,293.9 100.1,294.0 100.3,295.2 100.5,294.9 100.7,292.5 100.9,292.8 101.0,294.7 101.2,293.9 101.4,296.5 101.6,298.3 101.8,298.0 102.0,296.7 102.2,298.8 102.4,298.5 102.6,297.2 102.8,295.3 103.0,297.6 103.2,296.5 103.4,298.5 103.6,297.6 103.8,295.1 104.0,293.4 104.1,292.3 104.3,294.3 104.5,295.2 104.7,294.8 104.9,296.8 105.1,300.4 105.3,301.5 105.5,300.8 105.7,301.8 105.9,301.8 106.1,302.3 106.3,305.0 106.5,306.0 106.7,305.2 106.9,309.2 107.1,308.0 107.2,304.9 107.4,303.8 107.6,302.9 107.8,301.3 108.0,303.5 108.2,302.4 108.4,304.4 108.6,305.0 108.8,308.9 109.0,308.8 109.2,308.4 109.4,304.2 109.6,303.1 109.8,302.3 110.0,304.1 110.2,303.8 110.3,305.7 110.5,306.5 110.7,305.0 110.9,305.9 111.1,306.1 111.3,307.8 111.5,309.9 111.7,311.1 111.9,313.1 112.1,311.6 112.3,309.8 112.5,308.4 112.7,305.7 112.9,306.3 113.1,303.4 113.3,304.0 113.4,305.6 113.6,306.5 113.8,309.5 114.0,311.5 114.2,315.2 114.4,314.6 114.6,315.3 114.8,312.9 115.0,311.5 115.2,310.6 115.4,312.2 115.6,311.8 115.8,313.2 116.0,311.6 116.2,312.5 116.4,310.2 116.5,310.2 116.7,311.3 116.9,311.7 117.1,313.3 117.3,311.1 117.5,310.6 117.7,310.0 117.9,310.5 118.1,309.0 118.3,309.0 118.5,308.8 118.7,310.9 118.9,309.8 119.1,306.8 119.3,305.8 119.4,305.1 119.6,305.6 119.8,306.4 120.0,307.7 120.2,308.3 120.4,310.1 120.6,310.5 120.8,310.7 121.0,310.3 121.2,309.3 121.4,310.7 121.6,310.4 121.8,306.1 122.0,305.5 122.2,308.0 122.4,304.3 122.5,306.0 122.7,304.3 122.9,303.4 123.1,304.4 123.3,302.8 123.5,301.5 123.7,303.3 123.9,304.0 124.1,303.7 124.3,304.1 124.5,306.1 124.7,304.6 124.9,305.3 125.1,304.9 125.3,304.8 125.5,305.9 125.6,305.3 125.8,305.4 126.0,305.5 126.2,307.0 126.4,308.1 126.6,309.2 126.8,307.8 127.0,307.3 127.2,304.3 127.4,305.6 127.6,307.2 127.8,309.2 128.0,308.9 128.2,309.3 128.4,313.0 128.6,311.7 128.7,312.3 128.9,309.0 129.1,303.7 129.3,302.6 129.5,301.0 129.7,300.8 129.9,304.1 130.1,305.9 130.3,306.9 130.5,306.6 130.7,307.7 130.9,310.0 131.1,310.1 131.3,309.3 131.5,306.3 131.7,305.0 131.8,304.0 132.0,303.1 132.2,301.6 132.4,302.6 132.6,301.3 132.8,300.4 133.0,300.6 133.2,302.0 133.4,302.3 133.6,301.0 133.8,300.6 134.0,299.3 134.2,298.9 134.4,298.2 134.6,297.5 134.8,297.9 134.9,297.6 135.1,298.6 135.3,295.8 135.5,294.2 135.7,297.3 135.9,297.6 136.1,297.2 136.3,297.6 136.5,297.3 136.7,299.1 136.9,296.2 137.1,294.5 137.3,294.9 137.5,295.0 137.7,296.6 137.8,298.0 138.0,296.2 138.2,294.6 138.4,295.8 138.6,295.7 138.8,296.1 139.0,296.8 139.2,294.8 139.4,294.4 139.6,293.7 139.8,292.8 140.0,292.5 140.2,293.6 140.4,292.7 140.6,292.5 140.8,292.6 140.9,292.7 141.1,292.4 141.3,294.3 141.5,293.4 141.7,293.0 141.9,297.0 142.1,296.2 142.3,294.7 142.5,292.6 142.7,291.3 142.9,290.5 143.1,290.8 143.3,288.8 143.5,292.1 143.7,293.3 143.9,292.8 144.0,296.1 144.2,296.1 144.4,294.1 144.6,294.0 144.8,294.1 145.0,294.1 145.2,290.1 145.4,286.5 145.6,290.3 145.8,290.2 146.0,288.8 146.2,289.8 146.4,290.0 146.6,289.0 146.8,288.0 147.0,288.7 147.1,290.1 147.3,289.8 147.5,289.6 147.7,290.1 147.9,293.0 148.1,293.2 148.3,294.9 148.5,293.8 148.7,295.1 148.9,295.2 149.1,295.6 149.3,293.1 149.5,293.6 149.7,292.5 149.9,292.1 150.1,289.1 150.2,288.4 150.4,289.5 150.6,294.3 150.8,293.3 151.0,294.9 151.2,296.0 151.4,296.2 151.6,296.8 151.8,294.5 152.0,293.2 152.2,292.5 152.4,293.1 152.6,290.9 152.8,293.0 153.0,294.0 153.2,294.3 153.3,294.6 153.5,294.4 153.7,293.3 153.9,291.5 154.1,292.4 154.3,292.8 154.5,293.8 154.7,290.6 154.9,289.5 155.1,289.3 155.3,288.1 155.5,287.9 155.7,288.6 155.9,289.4 156.1,291.3 156.2,292.1 156.4,291.2 156.6,291.3 156.8,289.2 157.0,290.9 157.2,290.4 157.4,292.0 157.6,294.8 157.8,294.4 158.0,293.3 158.2,293.5 158.4,294.8 158.6,295.6 158.8,294.5 159.0,295.2 159.2,294.5 159.3,292.9 159.5,294.6 159.7,298.2 159.9,299.6 160.1,301.1 160.3,300.4 160.5,299.7 160.7,297.3 160.9,295.9 161.1,292.9 161.3,293.5 161.5,293.0 161.7,291.5 161.9,290.8 162.1,289.2 162.3,287.5 162.4,287.3 162.6,287.1 162.8,287.2 163.0,289.1 163.2,288.9 163.4,287.7 163.6,288.2 163.8,287.9 164.0,288.6 164.2,289.0 164.4,288.1 164.6,288.7 164.8,289.6 165.0,302.1 165.2,304.9 165.4,303.7 165.5,303.3 165.7,303.3 165.9,302.6 166.1,305.1 166.3,304.7 166.5,304.7 166.7,305.4 166.9,304.7 167.1,304.6 167.3,305.9 167.5,306.8 167.7,306.4 167.9,307.9 168.1,308.4 168.3,307.5 168.5,307.9 168.6,306.5 168.8,308.0 169.0,306.9 169.2,304.8 169.4,305.1 169.6,303.7 169.8,301.8 170.0,299.9 170.2,298.7 170.4,296.1 170.6,294.8 170.8,294.7 171.0,295.3 171.2,295.3 171.4,294.4 171.6,294.1 171.7,293.0 171.9,293.0 172.1,294.4 172.3,295.1 172.5,293.6 172.7,292.9 172.9,290.0 173.1,291.0 173.3,291.2 173.5,289.9 173.7,290.4 173.9,291.3 174.1,290.2 174.3,290.9 174.5,293.4 174.7,294.2 174.8,291.2 175.0,290.5 175.2,290.2 175.4,291.3 175.6,291.3 175.8,293.0 176.0,291.6 176.2,289.1 176.4,289.6 176.6,289.0 176.8,287.6 177.0,286.4 177.2,286.7 177.4,273.1 177.6,269.7 177.7,266.3 177.9,270.6 178.1,268.3 178.3,268.8 178.5,269.6 178.7,271.0 178.9,268.0 179.1,268.1 179.3,268.2 179.5,266.9 179.7,266.7 179.9,266.4 180.1,268.2 180.3,267.4 180.5,266.9 180.7,266.0 180.8,266.0 181.0,266.2 181.2,265.7 181.4,265.4 181.6,266.1 181.8,268.3 182.0,269.4 182.2,269.5 182.4,268.7 182.6,269.6 182.8,269.2 183.0,269.5 183.2,271.7 183.4,269.6 183.6,268.6 183.8,268.3 183.9,267.6 184.1,265.6 184.3,267.4 184.5,267.7 184.7,267.3 184.9,266.8 185.1,265.6 185.3,266.1 185.5,266.0 185.7,265.9 185.9,267.4 186.1,266.4 186.3,266.6 186.5,266.2 186.7,266.3 186.9,265.8 187.0,264.9 187.2,264.5 187.4,262.7 187.6,260.1 187.8,259.3 188.0,259.5 188.2,261.6 188.4,259.8 188.6,263.2 188.8,269.1 189.0,270.1 189.2,268.3 189.4,270.6 189.6,270.2 189.8,270.2 190.0,272.1 190.1,260.5 190.3,262.9 190.5,259.9 190.7,258.3 190.9,258.5 191.1,257.8 191.3,256.9 191.5,255.6 191.7,254.5 191.9,253.0 192.1,255.8 192.3,252.5 192.5,252.1 192.7,250.5 192.9,252.4 193.1,250.9 193.2,250.6 193.4,250.6 193.6,252.9 193.8,252.3 194.0,253.2 194.2,253.8 194.4,252.7 194.6,254.5 194.8,255.1 195.0,256.5 195.2,258.6 195.4,258.4 195.6,258.4 195.8,258.5 196.0,259.5 196.1,259.9 196.3,260.0 196.5,261.9 196.7,259.0 196.9,261.5 197.1,261.7 197.3,260.9 197.5,259.6 197.7,257.3 197.9,255.4 198.1,256.9 198.3,256.8 198.5,259.7 198.7,260.8 198.9,257.7 199.1,261.2 199.2,263.5 199.4,263.8 199.6,264.6 199.8,262.6 200.0,263.2 200.2,262.5 200.4,261.9 200.6,262.0 200.8,261.6 201.0,262.9 201.2,263.0 201.4,259.5 201.6,255.9 201.8,257.9 202.0,258.2 202.2,258.5 202.3,258.0 202.5,257.1 202.7,256.8 202.9,257.2 203.1,254.6 203.3,254.8 203.5,255.4 203.7,257.1 203.9,258.1 204.1,254.6 204.3,256.5 204.5,254.8 204.7,254.4 204.9,253.0 205.1,252.7 205.3,253.8 205.4,258.2 205.6,256.4 205.8,255.7 206.0,256.7 206.2,257.8 206.4,256.2 206.6,255.1 206.8,254.0 207.0,253.9 207.2,254.4 207.4,255.0 207.6,252.5 207.8,252.9 208.0,252.5 208.2,251.5 208.4,250.3 208.5,249.3 208.7,249.0 208.9,250.6 209.1,250.2 209.3,250.9 209.5,250.5 209.7,251.0 209.9,250.9 210.1,252.3 210.3,251.2 210.5,254.3 210.7,256.3 210.9,255.7 211.1,256.6 211.3,257.1 211.5,255.8 211.6,256.7 211.8,255.5 212.0,258.2 212.2,256.0 212.4,255.4 212.6,255.5 212.8,256.4 213.0,256.7 213.2,257.9 213.4,259.1 213.6,256.8 213.8,259.2 214.0,262.9 214.2,263.9 214.4,262.8 214.5,261.8 214.7,261.7 214.9,260.4 215.1,260.4 215.3,258.8 215.5,258.9 215.7,258.2 215.9,258.4 216.1,258.3 216.3,256.1 216.5,255.8 216.7,254.3 216.9,255.0 217.1,256.1 217.3,254.8 217.5,255.4 217.6,256.0 217.8,256.6 218.0,256.6 218.2,254.1 218.4,254.8 218.6,254.7 218.8,255.0 219.0,254.9 219.2,255.8 219.4,256.0 219.6,255.7 219.8,256.5 220.0,256.4 220.2,255.4 220.4,255.7 220.6,254.6 220.7,254.6 220.9,256.0 221.1,255.8 221.3,255.8 221.5,258.5 221.7,258.2 221.9,259.4 222.1,261.8 222.3,263.9 222.5,263.4 222.7,263.2 222.9,261.5 223.1,266.3 223.3,264.7 223.5,268.9 223.7,272.0 223.8,274.1 224.0,271.3 224.2,269.2 224.4,266.6 224.6,266.1 224.8,267.8 225.0,265.1 225.2,266.6 225.4,263.3 225.6,262.3 225.8,262.9 226.0,258.2 226.2,260.7 226.4,260.4 226.6,258.6 226.8,259.6 226.9,259.9 227.1,258.5 227.3,256.2 227.5,256.4 227.7,255.7 227.9,255.5 228.1,254.9 228.3,255.2 228.5,254.6 228.7,254.3 228.9,252.8 229.1,255.5 229.3,255.1 229.5,252.7 229.7,252.3 229.9,252.3 230.0,251.8 230.2,252.4 230.4,252.1 230.6,253.4 230.8,250.8 231.0,251.8 231.2,251.7 231.4,254.0 231.6,253.1 231.8,257.1 232.0,256.6 232.2,259.1 232.4,259.0 232.6,258.9 232.8,256.8 233.0,253.2 233.1,251.7 233.3,251.2 233.5,251.3 233.7,251.2 233.9,250.6 234.1,250.9 234.3,252.2 234.5,253.3 234.7,253.2 234.9,260.7 235.1,261.4 235.3,260.4 235.5,259.6 235.7,261.8 235.9,264.3 236.0,264.1 236.2,264.8 236.4,265.6 236.6,264.8 236.8,265.0 237.0,262.7 237.2,261.9 237.4,262.4 237.6,262.4 237.8,263.9 238.0,265.5 238.2,265.8 238.4,266.0 238.6,263.9 238.8,261.7 239.0,263.4 239.1,263.5 239.3,262.4 239.5,262.6 239.7,261.7 239.9,262.2 240.1,261.0 240.3,259.1 240.5,259.7 240.7,259.8 240.9,260.4 241.1,259.2 241.3,259.9 241.5,259.4 241.7,259.2 241.9,260.0 242.1,260.3 242.2,258.7 242.4,259.0 242.6,260.3 242.8,260.6 243.0,262.0 243.2,261.7 243.4,263.5 243.6,263.9 243.8,262.0 244.0,263.8 244.2,262.5 244.4,263.6 244.6,259.7 244.8,260.8 245.0,259.3 245.2,262.2 245.3,262.3 245.5,263.4 245.7,263.6 245.9,262.6 246.1,261.4 246.3,262.5 246.5,261.2 246.7,260.0 246.9,259.1 247.1,259.1 247.3,261.7 247.5,262.7 247.7,261.9 247.9,262.0 248.1,261.9 248.3,260.9 248.4,259.8 248.6,262.1 248.8,261.0 249.0,261.4 249.2,261.0 249.4,259.6 249.6,260.5 249.8,258.3 250.0,258.1 250.2,257.3 250.4,256.1 250.6,255.7 250.8,256.4 251.0,257.2 251.2,257.6 251.4,257.1 251.5,256.4 251.7,256.7 251.9,257.7 252.1,256.8 252.3,255.8 252.5,256.6 252.7,256.1 252.9,256.8 253.1,256.7 253.3,255.7 253.5,256.1 253.7,257.7 253.9,257.2 254.1,256.6 254.3,257.0 254.4,256.9 254.6,256.6 254.8,255.8 255.0,257.5 255.2,257.6 255.4,258.4 255.6,258.5 255.8,257.2 256.0,255.9 256.2,257.1 256.4,258.5 256.6,257.4 256.8,257.6 257.0,256.0 257.2,257.4 257.4,255.7 257.5,254.7 257.7,254.9 257.9,255.8 258.1,255.9 258.3,258.0 258.5,255.4 258.7,256.3 258.9,256.5 259.1,258.0 259.3,257.6 259.5,260.2 259.7,260.3 259.9,260.8 260.1,258.6 260.3,257.3 260.5,259.0 260.6,258.8 260.8,259.5 261.0,259.6 261.2,261.5 261.4,262.2 261.6,263.2 261.8,263.3 262.0,264.1 262.2,262.8 262.4,261.3 262.6,261.4 262.8,263.7 263.0,266.0 263.2,266.3 263.4,265.8 263.6,266.6 263.7,267.2 263.9,265.2 264.1,266.9 264.3,266.6 264.5,267.2 264.7,266.5 264.9,266.2 265.1,267.5 265.3,268.4 265.5,270.1 265.7,272.2 265.9,276.5 266.1,278.2 266.3,274.7 266.5,271.2 266.7,270.0 266.8,270.4 267.0,275.2 267.2,274.2 267.4,270.7 267.6,273.1 267.8,270.4 268.0,271.6 268.2,271.5 268.4,270.2 268.6,271.2 268.8,268.3 269.0,267.1 269.2,268.1 269.4,271.1 269.6,269.7 269.8,270.5 269.9,272.8 270.1,270.1 270.3,270.3 270.5,271.7 270.7,272.0 270.9,268.9 271.1,269.5 271.3,266.6 271.5,266.5 271.7,267.1 271.9,264.8 272.1,261.6 272.3,262.0 272.5,262.8 272.7,263.8 272.8,265.4 273.0,262.5 273.2,262.5 273.4,262.8 273.6,262.0 273.8,262.5 274.0,259.6 274.2,257.7 274.4,258.6 274.6,258.8 274.8,257.1 275.0,257.2 275.2,257.0 275.4,255.8 275.6,256.0 275.8,255.8 275.9,255.4 276.1,255.0 276.3,256.5 276.5,254.9 276.7,254.8 276.9,258.5 277.1,258.2 277.3,256.0 277.5,254.7 277.7,253.3 277.9,252.6 278.1,253.2 278.3,253.0 278.5,253.2 278.7,252.7 278.9,252.9 279.0,253.7 279.2,252.7 279.4,254.9 279.6,255.5 279.8,252.7 280.0,255.0 280.2,257.0 280.4,257.1 280.6,255.7 280.8,257.2 281.0,255.9 281.2,255.7 281.4,253.3 281.6,256.4 281.8,258.4 282.0,257.4 282.1,256.3 282.3,254.3 282.5,254.5 282.7,254.9 282.9,254.4 283.1,255.1 283.3,256.3 283.5,257.6 283.7,257.7 283.9,259.1 284.1,262.2 284.3,263.3 284.5,264.2 284.7,263.6 284.9,266.6 285.1,266.0 285.2,268.0 285.4,268.1 285.6,268.7 285.8,267.2 286.0,264.4 286.2,265.4 286.4,262.7 286.6,261.5 286.8,261.3 287.0,258.1 287.2,259.1 287.4,261.6 287.6,259.0 287.8,254.5 288.0,255.8 288.2,257.2 288.3,255.6 288.5,256.5 288.7,257.2 288.9,254.6 289.1,254.2 289.3,252.2 289.5,252.6 289.7,254.1 289.9,252.2 290.1,253.2 290.3,252.8 290.5,252.5 290.7,252.0 290.9,253.0 291.1,251.3 291.3,251.1 291.4,250.6 291.6,250.5 291.8,249.5 292.0,251.4 292.2,250.7 292.4,251.4 292.6,249.8 292.8,250.9 293.0,250.7 293.2,249.2 293.4,248.1 293.6,246.7 293.8,246.9 294.0,247.0 294.2,247.0 294.3,245.7 294.5,245.5 294.7,243.4 294.9,242.2 295.1,242.6 295.3,241.6 295.5,243.0 295.7,242.3 295.9,241.8 296.1,242.7 296.3,241.7 296.5,241.7 296.7,240.5 296.9,240.0 297.1,239.6 297.3,238.8 297.4,237.9 297.6,237.6 297.8,239.1 298.0,240.0 298.2,238.3 298.4,239.0 298.6,237.2 298.8,237.1 299.0,239.1 299.2,240.2 299.4,238.9 299.6,239.9 299.8,241.6 300.0,240.9 300.2,239.9 300.4,240.7 300.5,238.1 300.7,237.1 300.9,236.2 301.1,236.4 301.3,235.7 301.5,235.5 301.7,236.1 301.9,236.6 302.1,235.5 302.3,235.1 302.5,232.5 302.7,231.9 302.9,231.8 303.1,232.3 303.3,232.0 303.5,231.6 303.6,230.6 303.8,229.9 304.0,229.4 304.2,228.7 304.4,227.4 304.6,227.8 304.8,228.8 305.0,229.4 305.2,229.5 305.4,229.6 305.6,230.2 305.8,229.8 306.0,228.4 306.2,228.6 306.4,228.8 306.6,227.7 306.7,233.4 306.9,237.2 307.1,236.3 307.3,234.7 307.5,232.1 307.7,231.5 307.9,231.6 308.1,229.7 308.3,229.5 308.5,227.6 308.7,226.1 308.9,225.8 309.1,226.1 309.3,226.5 309.5,226.0 309.7,226.1 309.8,225.7 310.0,225.6 310.2,226.8 310.4,226.2 310.6,226.5 310.8,224.2 311.0,224.2 311.2,223.9 311.4,224.1 311.6,224.1 311.8,227.6 312.0,228.0 312.2,226.3 312.4,225.3 312.6,224.9 312.7,223.8 312.9,223.9 313.1,222.4 313.3,222.6 313.5,218.2 313.7,218.5 313.9,218.2 314.1,217.9 314.3,217.1 314.5,216.5 314.7,216.9 314.9,217.4 315.1,217.6 315.3,217.4 315.5,216.3 315.7,216.4 315.8,216.6 316.0,217.6 316.2,216.5 316.4,216.4 316.6,216.4 316.8,216.2 317.0,221.8 317.2,219.0 317.4,219.8 317.6,219.8 317.8,218.0 318.0,218.7 318.2,217.4 318.4,216.9 318.6,214.5 318.8,212.7 318.9,215.1 319.1,215.2 319.3,213.8 319.5,213.6 319.7,214.4 319.9,213.1 320.1,213.0 320.3,213.5 320.5,214.2 320.7,214.4 320.9,216.8 321.1,217.7 321.3,219.3 321.5,218.3 321.7,219.4 321.9,219.8 322.0,220.5 322.2,220.6 322.4,219.8 322.6,221.1 322.8,221.3 323.0,221.8 323.2,223.2 323.4,222.4 323.6,223.2 323.8,221.9 324.0,222.5 324.2,225.3 324.4,225.9 324.6,225.2 324.8,224.8 325.0,221.6 325.1,219.9 325.3,216.7 325.5,212.0 325.7,212.0 325.9,210.9 326.1,207.7 326.3,208.6 326.5,209.3 326.7,210.8 326.9,210.5 327.1,211.6 327.3,211.8 327.5,211.6 327.7,214.5 327.9,215.2 328.1,214.6 328.2,214.1 328.4,214.1 328.6,214.3 328.8,213.3 329.0,213.5 329.2,213.9 329.4,214.8 329.6,216.0 329.8,216.0 330.0,216.9 330.2,217.9 330.4,218.0 330.6,216.5 330.8,216.1 331.0,216.3 331.1,215.6 331.3,215.9 331.5,216.2 331.7,218.4 331.9,218.8 332.1,219.3 332.3,219.0 332.5,217.3 332.7,218.4 332.9,219.2 333.1,219.7 333.3,220.2 333.5,219.6 333.7,222.2 333.9,221.1 334.1,222.5 334.2,221.9 334.4,220.4 334.6,220.4 334.8,221.8 335.0,220.4 335.2,217.9 335.4,218.0 335.6,218.1 335.8,219.4 336.0,219.8 336.2,220.2 336.4,221.0 336.6,220.0 336.8,224.9 337.0,224.8 337.2,225.4 337.3,223.9 337.5,223.2 337.7,222.3 337.9,223.4 338.1,223.3 338.3,223.1 338.5,223.0 338.7,221.7 338.9,221.9 339.1,223.7 339.3,222.8 339.5,220.2 339.7,222.2 339.9,218.8 340.1,220.4 340.3,220.8 340.4,221.2 340.6,220.6 340.8,223.6 341.0,223.3 341.2,221.9 341.4,221.3 341.6,222.4 341.8,221.2 342.0,220.7 342.2,219.7 342.4,220.5 342.6,222.4 342.8,219.5 343.0,220.4 343.2,219.6 343.4,219.9 343.5,218.6 343.7,219.2 343.9,218.0 344.1,217.3 344.3,219.1 344.5,216.9 344.7,216.8 344.9,215.7 345.1,215.9 345.3,216.1 345.5,216.2 345.7,219.2 345.9,220.4 346.1,219.0 346.3,219.8 346.5,219.3 346.6,217.3 346.8,216.3 347.0,214.4 347.2,213.7 347.4,214.5 347.6,214.1 347.8,214.6 348.0,214.8 348.2,216.8 348.4,217.9 348.6,214.3 348.8,212.6 349.0,212.8 349.2,213.6 349.4,215.4 349.6,215.8 349.7,215.5 349.9,212.6 350.1,213.8 350.3,214.2 350.5,214.4 350.7,213.2 350.9,212.6 351.1,211.1 351.3,211.5 351.5,212.6 351.7,214.2 351.9,213.3 352.1,212.5 352.3,211.9 352.5,210.6 352.6,210.2 352.8,211.3 353.0,209.6 353.2,209.4 353.4,208.5 353.6,208.4 353.8,208.9 354.0,209.2 354.2,208.6 354.4,208.4 354.6,208.1 354.8,208.7 355.0,209.5 355.2,208.8 355.4,207.8 355.6,207.0 355.7,207.4 355.9,206.4 356.1,206.6 356.3,205.4 356.5,205.4 356.7,206.5 356.9,207.7 357.1,206.5 357.3,207.2 357.5,207.7 357.7,205.7 357.9,204.6 358.1,204.1 358.3,202.8 358.5,203.4 358.7,202.1 358.8,202.4 359.0,201.0 359.2,200.8 359.4,201.8 359.6,202.4 359.8,202.5 360.0,202.4 360.2,202.8 360.4,197.6 360.6,196.4 360.8,197.1 361.0,196.2 361.2,196.2 361.4,196.6 361.6,196.8 361.8,198.3 361.9,198.0 362.1,196.5 362.3,196.5 362.5,196.4 362.7,198.3 362.9,198.2 363.1,197.6 363.3,196.3 363.5,196.3 363.7,196.1 363.9,195.3 364.1,194.1 364.3,193.8 364.5,193.0 364.7,192.0 364.9,192.2 365.0,192.3 365.2,192.1 365.4,191.2 365.6,190.7 365.8,190.3 366.0,190.4 366.2,190.3 366.4,190.3 366.6,189.7 366.8,189.1 367.0,188.8 367.2,188.4 367.4,188.6 367.6,187.1 367.8,187.6 368.0,189.7 368.1,190.3 368.3,191.3 368.5,191.0 368.7,189.7 368.9,188.6 369.1,187.5 369.3,187.6 369.5,187.4 369.7,187.3 369.9,187.3 370.1,187.9 370.3,186.9 370.5,187.2 370.7,185.0 370.9,189.9 371.0,189.0 371.2,188.7 371.4,188.0 371.6,189.0 371.8,187.0 372.0,187.5 372.2,187.0 372.4,186.9 372.6,187.3 372.8,184.0 373.0,184.3 373.2,182.7 373.4,183.6 373.6,183.6 373.8,183.5 374.0,183.6 374.1,184.1 374.3,184.1 374.5,184.5 374.7,184.0 374.9,184.8 375.1,183.7 375.3,183.8 375.5,182.9 375.7,182.1 375.9,182.2 376.1,181.6 376.3,181.7 376.5,180.2 376.7,180.8 376.9,178.9 377.1,179.4 377.2,179.8 377.4,181.4 377.6,181.2 377.8,180.5 378.0,180.8 378.2,182.4 378.4,181.9 378.6,182.0 378.8,183.4 379.0,181.9 379.2,181.3 379.4,181.4 379.6,181.4 379.8,181.5 380.0,181.8 380.2,182.0 380.3,180.7 380.5,180.7 380.7,180.8 380.9,181.0 381.1,179.6 381.3,178.8 381.5,179.0 381.7,178.6 381.9,178.6 382.1,179.4 382.3,177.8 382.5,177.0 382.7,176.9 382.9,176.1 383.1,175.9 383.3,174.6 383.4,173.5 383.6,173.5 383.8,173.6 384.0,172.5 384.2,170.7 384.4,172.3 384.6,172.8 384.8,174.1 385.0,170.0 385.2,168.8 385.4,173.4 385.6,175.6 385.8,174.8 386.0,177.4 386.2,176.4 386.4,174.6 386.5,173.3 386.7,172.1 386.9,169.9 387.1,169.1 387.3,169.9 387.5,169.2 387.7,169.4 387.9,168.0 388.1,167.5 388.3,168.3 388.5,170.1 388.7,172.1 388.9,171.8 389.1,171.2 389.3,169.0 389.4,167.3 389.6,166.1 389.8,162.7 390.0,164.8 390.2,164.9 390.4,166.2 390.6,165.4 390.8,164.2 391.0,164.6 391.2,163.4 391.4,162.9 391.6,165.8 391.8,168.4 392.0,165.1 392.2,167.4 392.4,168.2 392.5,166.5 392.7,169.3 392.9,166.8 393.1,166.8 393.3,165.5 393.5,168.8 393.7,168.3 393.9,166.7 394.1,167.6 394.3,166.2 394.5,166.6 394.7,165.2 394.9,163.6 395.1,163.1 395.3,163.8 395.5,163.0 395.6,164.1 395.8,168.7 396.0,168.6 396.2,169.9 396.4,171.4 396.6,172.7 396.8,176.8 397.0,179.3 397.2,178.0 397.4,177.3 397.6,177.4 397.8,176.0 398.0,174.3 398.2,173.2 398.4,171.7 398.6,171.8 398.7,174.1 398.9,175.1 399.1,175.0 399.3,174.7 399.5,172.5 399.7,174.0 399.9,174.6 400.1,173.8 400.3,174.8 400.5,176.2 400.7,174.6 400.9,176.4 401.1,174.1 401.3,174.7 401.5,174.4 401.7,172.8 401.8,172.1 402.0,171.8 402.2,174.1 402.4,174.8 402.6,174.4 402.8,174.3 403.0,174.9 403.2,174.5 403.4,179.1 403.6,178.2 403.8,183.0 404.0,183.1 404.2,183.4 404.4,182.9 404.6,183.2 404.8,183.3 404.9,181.5 405.1,181.2 405.3,182.1 405.5,182.0 405.7,182.5 405.9,180.4 406.1,180.1 406.3,182.7 406.5,180.3 406.7,179.6 406.9,181.5 407.1,180.8 407.3,180.1 407.5,179.5 407.7,177.8 407.9,180.8 408.0,179.9 408.2,178.6 408.4,176.6 408.6,176.8 408.8,177.0 409.0,166.7 409.2,169.2 409.4,169.1 409.6,167.6 409.8,167.5 410.0,166.5 410.2,166.3 410.4,166.5 410.6,167.9 410.8,169.2 410.9,169.5 411.1,170.2 411.3,169.5 411.5,168.4 411.7,167.9 411.9,167.3 412.1,168.6 412.3,169.3 412.5,168.3 412.7,166.6 412.9,166.9 413.1,165.9 413.3,167.4 413.5,167.4 413.7,167.8 413.9,164.7 414.0,163.6 414.2,163.2 414.4,161.5 414.6,161.6 414.8,161.3 415.0,160.2 415.2,160.0 415.4,159.1 415.6,158.6 415.8,159.4 416.0,159.3 416.2,159.6 416.4,161.2 416.6,161.1 416.8,161.1 417.0,160.9 417.1,161.5 417.3,160.4 417.5,160.7 417.7,160.4 417.9,160.9 418.1,162.3 418.3,164.6 418.5,169.7 418.7,173.3 418.9,178.4 419.1,177.2 419.3,177.2 419.5,173.9 419.7,174.6 419.9,177.0 420.1,178.0 420.2,177.9 420.4,179.5 420.6,183.7 420.8,182.1 421.0,182.7 421.2,184.1 421.4,185.1 421.6,184.0 421.8,178.5 422.0,179.7 422.2,178.9 422.4,176.7 422.6,173.9 422.8,173.9 423.0,175.0 423.2,178.1 423.3,178.4 423.5,179.5 423.7,175.7 423.9,175.0 424.1,177.3 424.3,181.1 424.5,179.3 424.7,179.7 424.9,177.1 425.1,177.2 425.3,174.5 425.5,174.3 425.7,171.6 425.9,172.7 426.1,179.7 426.3,181.8 426.4,183.8 426.6,183.4 426.8,184.2 427.0,183.9 427.2,183.9 427.4,184.2 427.6,186.2 427.8,186.1 428.0,184.8 428.2,187.0 428.4,187.8 428.6,191.6 428.8,186.3 429.0,184.4 429.2,184.5 429.3,182.0 429.5,182.3 429.7,186.4 429.9,181.6 430.1,183.3 430.3,182.2 430.5,180.4 430.7,178.2 430.9,177.5 431.1,177.8 431.3,178.3 431.5,178.1 431.7,176.2 431.9,174.4 432.1,177.6 432.3,179.1 432.4,178.7 432.6,176.6 432.8,177.5 433.0,175.6 433.2,173.2 433.4,174.3 433.6,176.2 433.8,175.9 434.0,175.2 434.2,173.9 434.4,175.8 434.6,175.4 434.8,174.1 435.0,171.7 435.2,171.7 435.4,172.0 435.5,169.7 435.7,170.7 435.9,169.5 436.1,169.1 436.3,168.3 436.5,167.6 436.7,167.5 436.9,166.0 437.1,167.2 437.3,165.9 437.5,166.1 437.7,166.2 437.9,166.7 438.1,167.5 438.3,167.9 438.5,165.1 438.6,165.4 438.8,164.5 439.0,165.7 439.2,165.4 439.4,163.0 439.6,162.8 439.8,163.2 440.0,161.6 440.2,164.9 440.4,165.2 440.6,163.3 440.8,163.5 441.0,161.9 441.2,162.0 441.4,159.7 441.6,160.5 441.7,161.0 441.9,160.6 442.1,160.1 442.3,158.6 442.5,161.2 442.7,161.5 442.9,159.3 443.1,157.2 443.3,157.9 443.5,157.1 443.7,156.6 443.9,156.4 444.1,155.6 444.3,156.2 444.5,156.2 444.7,157.4 444.8,156.1 445.0,155.2 445.2,155.7 445.4,155.9 445.6,161.2 445.8,157.3 446.0,160.4 446.2,161.8 446.4,161.8 446.6,161.9 446.8,163.2 447.0,165.3 447.2,167.2 447.4,165.8 447.6,166.1 447.7,167.7 447.9,168.8 448.1,166.8 448.3,167.4 448.5,169.5 448.7,169.7 448.9,169.2 449.1,169.3 449.3,169.0 449.5,168.9 449.7,166.5 449.9,164.0 450.1,161.8 450.3,161.4 450.5,160.8 450.7,159.6 450.8,160.2 451.0,159.9 451.2,158.6 451.4,158.6 451.6,159.4 451.8,158.5 452.0,158.0 452.2,155.5 452.4,157.7 452.6,157.2 452.8,157.9 453.0,158.3 453.2,157.5 453.4,155.0 453.6,154.0 453.8,155.7 453.9,155.5 454.1,156.1 454.3,157.7 454.5,158.8 454.7,159.6 454.9,158.5 455.1,156.6 455.3,157.4 455.5,156.4 455.7,158.3 455.9,159.5 456.1,158.9 456.3,159.7 456.5,157.6 456.7,156.8 456.9,157.8 457.0,158.1 457.2,158.9 457.4,158.6 457.6,159.8 457.8,161.9 458.0,163.8 458.2,168.3 458.4,166.4 458.6,166.1 458.8,164.3 459.0,164.9 459.2,166.5 459.4,164.5 459.6,167.8 459.8,167.4 460.0,165.3 460.1,164.8 460.3,166.1 460.5,166.2 460.7,166.8 460.9,169.6 461.1,169.1 461.3,168.8 461.5,167.3 461.7,165.2 461.9,164.8 462.1,167.8 462.3,166.8 462.5,163.1 462.7,162.2 462.9,163.5 463.1,162.2 463.2,160.8 463.4,162.6 463.6,161.8 463.8,162.7 464.0,162.3 464.2,162.2 464.4,162.8 464.6,163.5 464.8,163.4 465.0,164.4 465.2,161.9 465.4,160.8 465.6,159.6 465.8,160.4 466.0,164.5 466.1,167.9 466.3,167.1 466.5,165.8 466.7,166.4 466.9,169.7 467.1,168.0 467.3,166.6 467.5,163.3 467.7,164.2 467.9,162.7 468.1,162.5 468.3,161.5 468.5,160.1 468.7,158.4 468.9,158.0 469.1,157.5 469.2,157.0 469.4,155.1 469.6,154.1 469.8,153.1 470.0,153.7 470.2,164.4 470.4,160.8 470.6,161.4 470.8,160.0 471.0,162.1 471.2,163.4 471.4,163.4 471.6,165.7 471.8,164.4 472.0,165.8 472.2,164.6 472.3,163.1 472.5,163.4 472.7,162.4 472.9,163.2 473.1,163.3 473.3,164.1 473.5,164.5 473.7,163.7 473.9,163.0 474.1,163.1 474.3,164.6 474.5,166.1 474.7,166.4 474.9,167.1 475.1,166.5 475.3,166.3 475.4,165.7 475.6,164.2 475.8,162.9 476.0,162.8 476.2,163.5 476.4,162.4 476.6,162.5 476.8,163.0 477.0,161.5 477.2,161.0 477.4,161.5 477.6,161.5 477.8,161.2 478.0,161.3 478.2,161.2 478.4,159.7 478.5,159.0 478.7,159.8 478.9,160.2 479.1,159.8 479.3,159.3 479.5,159.6 479.7,157.6 479.9,157.5 480.1,156.0 480.3,155.0 480.5,154.6 480.7,156.1 480.9,156.3 481.1,156.1 481.3,157.4 481.5,159.2 481.6,157.7 481.8,155.0 482.0,154.3 482.2,157.1 482.4,154.7 482.6,150.4 482.8,149.0 483.0,155.0 483.2,153.6 483.4,151.5 483.6,149.4 483.8,147.0 484.0,149.7 484.2,148.3 484.4,148.4 484.6,148.5 484.7,147.6 484.9,147.8 485.1,150.5 485.3,153.4 485.5,153.6 485.7,158.2 485.9,163.0 486.1,155.9 486.3,159.3 486.5,151.7 486.7,155.6 486.9,157.4 487.1,165.2 487.3,163.9 487.5,169.3 487.6,183.5 487.8,171.1 488.0,183.1 488.2,171.6 488.4,182.3 488.6,184.1 488.8,192.7 489.0,199.1 489.2,188.6 489.4,185.2 489.6,177.9 489.8,182.3 490.0,181.0 490.2,182.9 490.4,192.9 490.6,186.1 490.7,191.5 490.9,182.8 491.1,181.1 491.3,176.1 491.5,175.7 491.7,177.6 491.9,173.9 492.1,179.5 492.3,180.4 492.5,175.3 492.7,175.8 492.9,177.8 493.1,176.0 493.3,177.9 493.5,177.1 493.7,173.3 493.8,169.0 494.0,168.5 494.2,171.5 494.4,175.8 494.6,177.0 494.8,183.1 495.0,186.7 495.2,185.8 495.4,186.8 495.6,187.7 495.8,194.3 496.0,196.0 496.2,194.5 496.4,196.0 496.6,188.6 496.8,191.3 496.9,188.5 497.1,188.7 497.3,188.2 497.5,182.7 497.7,176.1 497.9,177.2 498.1,180.4 498.3,181.0 498.5,177.7 498.7,174.0 498.9,173.5 499.1,169.7 499.3,170.4 499.5,173.7 499.7,176.6 499.9,184.9 500.0,184.2 500.2,183.6 500.4,179.4 500.6,179.1 500.8,180.2 501.0,182.2 501.2,182.1 501.4,184.1 501.6,187.4 501.8,187.9 502.0,186.1 502.2,184.1 502.4,182.8 502.6,185.2 502.8,182.0 503.0,179.0 503.1,180.8 503.3,181.4 503.5,180.1 503.7,180.1 503.9,178.6 504.1,168.8 504.3,166.2 504.5,166.5 504.7,167.3 504.9,167.4 505.1,167.0 505.3,167.1 505.5,166.8 505.7,167.3 505.9,165.8 506.0,167.2 506.2,162.9 506.4,166.7 506.6,169.3 506.8,168.3 507.0,168.0 507.2,164.6 507.4,164.9 507.6,162.9 507.8,160.1 508.0,158.2 508.2,158.5 508.4,159.4 508.6,159.2 508.8,159.8 509.0,159.7 509.1,159.6 509.3,159.6 509.5,159.6 509.7,156.7 509.9,157.3 510.1,157.3 510.3,156.6 510.5,155.5 510.7,158.1 510.9,155.8 511.1,153.8 511.3,155.9 511.5,155.6 511.7,156.4 511.9,153.5 512.1,155.4 512.2,151.9 512.4,152.4 512.6,152.1 512.8,151.0 513.0,150.1 513.2,150.5 513.4,153.4 513.6,152.8 513.8,154.8 514.0,155.2 514.2,154.0 514.4,152.9 514.6,153.0 514.8,152.5 515.0,154.7 515.2,152.1 515.3,149.5 515.5,149.2 515.7,147.0 515.9,144.9 516.1,143.9 516.3,142.3 516.5,144.8 516.7,143.6 516.9,143.4 517.1,142.7 517.3,144.1 517.5,142.8 517.7,143.7 517.9,143.6 518.1,142.6 518.3,144.6 518.4,145.9 518.6,148.1 518.8,148.8 519.0,148.4 519.2,146.5 519.4,142.6 519.6,148.5 519.8,143.3 520.0,142.9 520.2,139.9 520.4,137.9 520.6,139.5 520.8,141.3 521.0,138.1 521.2,135.2 521.4,136.9 521.5,138.1 521.7,138.8 521.9,138.8 522.1,138.4 522.3,135.0 522.5,136.0 522.7,135.5 522.9,136.9 523.1,135.6 523.3,136.7 523.5,135.9 523.7,134.0 523.9,134.2 524.1,133.7 524.3,133.8 524.4,134.2 524.6,133.9 524.8,135.5 525.0,132.4 525.2,133.3 525.4,132.4 525.6,132.1 525.8,131.3 526.0,132.8 526.2,132.4 526.4,131.8 526.6,131.7 526.8,132.7 527.0,131.2 527.2,130.1 527.4,132.5 527.5,132.6 527.7,127.8 527.9,122.7 528.1,123.9 528.3,125.3 528.5,125.6 528.7,126.2 528.9,125.9 529.1,128.1 529.3,127.3 529.5,127.6 529.7,128.5 529.9,129.1 530.1,131.0 530.3,133.0 530.5,134.5 530.6,133.2 530.8,136.1 531.0,135.5 531.2,135.4 531.4,137.9 531.6,135.4 531.8,134.2 532.0,131.0 532.2,130.7 532.4,130.8 532.6,133.4 532.8,133.1 533.0,133.3 533.2,133.9 533.4,135.6 533.6,132.1 533.7,132.4 533.9,133.1 534.1,130.5 534.3,131.8 534.5,132.3 534.7,129.2 534.9,129.5 535.1,130.5 535.3,133.5 535.5,131.5 535.7,130.7 535.9,131.8 536.1,130.6 536.3,130.6 536.5,129.6 536.7,127.2 536.8,128.9 537.0,126.8 537.2,127.1 537.4,127.2 537.6,129.0 537.8,131.3 538.0,130.5 538.2,129.6 538.4,126.4 538.6,126.9 538.8,126.3 539.0,125.9 539.2,126.5 539.4,124.6 539.6,124.5 539.8,125.1 539.9,125.3 540.1,122.9 540.3,122.4 540.5,123.8 540.7,123.1 540.9,122.8 541.1,122.2 541.3,122.6 541.5,123.3 541.7,121.3 541.9,121.7 542.1,120.2 542.3,120.3 542.5,119.3 542.7,119.4 542.9,118.4 543.0,120.1 543.2,119.1 543.4,114.6 543.6,113.2 543.8,111.9 544.0,111.3 544.2,110.9 544.4,113.0 544.6,117.6 544.8,114.7 545.0,112.2 545.2,113.1 545.4,115.5 545.6,117.4 545.8,116.8 545.9,115.1 546.1,114.7 546.3,113.8 546.5,113.5 546.7,112.7 546.9,112.2 547.1,111.1 547.3,111.6 547.5,111.8 547.7,111.1 547.9,111.4 548.1,110.6 548.3,111.9 548.5,112.1 548.7,112.2 548.9,113.1 549.0,112.2 549.2,114.8 549.4,116.4 549.6,116.9 549.8,114.0 550.0,113.9 550.2,114.2 550.4,113.4 550.6,113.5 550.8,111.2 551.0,111.1 551.2,110.4 551.4,110.3 551.6,109.5 551.8,109.9 552.0,109.7 552.1,111.2 552.3,109.4 552.5,108.8 552.7,109.6 552.9,109.4 553.1,110.4 553.3,111.0 553.5,113.1 553.7,108.9 553.9,108.1 554.1,108.5 554.3,107.3 554.5,106.5 554.7,106.6 554.9,107.6 555.1,105.6 555.2,104.9 555.4,105.1 555.6,103.0 555.8,104.1 556.0,103.3 556.2,102.2 556.4,102.5 556.6,101.7 556.8,100.9 557.0,100.2 557.2,99.8 557.4,98.5 557.6,99.5 557.8,100.9 558.0,100.9 558.2,99.7 558.3,99.2 558.5,97.6 558.7,96.4 558.9,97.1 559.1,96.6 559.3,95.2 559.5,95.4 559.7,95.2 559.9,93.9 560.1,94.6 560.3,96.0 560.5,96.4 560.7,97.4 560.9,97.1 561.1,98.5 561.3,98.7 561.4,97.2 561.6,98.3 561.8,99.5 562.0,100.0 562.2,100.0 562.4,98.1 562.6,96.4 562.8,96.0 563.0,97.1 563.2,101.8 563.4,102.9 563.6,106.7 563.8,108.9 564.0,110.8 564.2,107.8 564.3,108.0 564.5,107.9 564.7,108.7 564.9,111.3 565.1,111.4 565.3,110.2 565.5,106.9 565.7,105.7 565.9,105.3 566.1,104.9 566.3,104.0 566.5,102.6 566.7,102.0 566.9,101.7 567.1,102.9 567.3,102.7 567.4,99.8 567.6,100.4 567.8,101.5 568.0,101.7 568.2,104.8 568.4,101.1 568.6,100.0 568.8,98.2 569.0,97.8 569.2,98.9 569.4,100.6 569.6,100.4 569.8,101.4 570.0,100.1 570.2,100.7 570.4,100.7 570.5,101.7 570.7,102.8 570.9,103.7 571.1,105.1 571.3,107.4 571.5,106.3 571.7,108.8 571.9,111.3 572.1,109.6 572.3,111.8 572.5,109.2 572.7,105.9 572.9,106.0 573.1,106.9 573.3,107.2 573.5,107.9 573.6,111.2 573.8,110.1 574.0,111.2 574.2,114.0 574.4,115.8 574.6,113.8 574.8,113.7 575.0,112.3 575.2,111.6 575.4,110.4 575.6,110.5 575.8,110.8 576.0,110.0 576.2,112.9 576.4,111.7 576.6,113.3 576.7,113.5 576.9,114.4 577.1,115.6 577.3,113.6 577.5,113.6 577.7,115.4 577.9,118.4 578.1,120.0 578.3,121.6 578.5,123.7 578.7,123.1 578.9,122.5 579.1,126.6 579.3,128.1 579.5,130.5 579.7,129.1 579.8,125.3 580.0,125.5 580.2,126.3 580.4,141.1 580.6,142.6 580.8,143.9 581.0,141.5 581.2,136.7 581.4,140.9 581.6,144.2 581.8,144.2 582.0,141.9 582.2,142.0 582.4,143.1 582.6,142.0 582.7,142.8 582.9,145.2 583.1,145.8 583.3,141.6 583.5,144.2 583.7,147.1 583.9,145.3 584.1,144.2 584.3,149.1 584.5,151.7 584.7,153.1 584.9,148.7 585.1,151.9 585.3,151.4 585.5,150.8 585.7,148.8 585.8,146.6 586.0,145.3 586.2,145.3 586.4,145.9 586.6,144.5 586.8,147.4 587.0,147.6 587.2,147.2 587.4,147.0 587.6,143.8 587.8,145.3 588.0,149.1 588.2,147.8 588.4,147.1 588.6,146.9 588.8,147.2 588.9,147.1 589.1,147.2 589.3,148.5 589.5,149.7 589.7,147.4 589.9,150.6 590.1,152.7 590.3,149.0 590.5,147.0 590.7,147.5 590.9,149.9 591.1,150.8 591.3,155.3 591.5,153.5 591.7,151.6 591.9,155.8 592.0,153.9 592.2,153.1 592.4,142.5 592.6,147.7 592.8,149.2 593.0,149.5 593.2,152.7 593.4,155.2 593.6,152.5 593.8,151.0 594.0,153.9 594.2,150.8 594.4,155.1 594.6,153.7 594.8,154.1 595.0,154.7 595.1,153.7 595.3,154.6 595.5,150.5 595.7,147.8 595.9,150.1 596.1,150.7 596.3,147.0 596.5,148.4 596.7,148.1 596.9,147.7 597.1,149.5 597.3,152.2 597.5,155.9 597.7,160.5 597.9,161.2 598.1,161.3 598.2,166.5 598.4,166.8 598.6,163.8 598.8,162.7 599.0,160.7 599.2,156.6 599.4,156.7 599.6,159.1 599.8,158.9 600.0,158.7 600.2,157.9 600.4,157.8 600.6,156.8 600.8,155.6 601.0,157.9 601.2,158.7 601.3,160.8 601.5,161.9 601.7,162.8 601.9,160.1 602.1,162.2 602.3,156.4 602.5,154.3 602.7,151.8 602.9,149.9 603.1,150.0 603.3,149.1 603.5,146.0 603.7,142.4 603.9,139.8 604.1,140.9 604.2,135.7 604.4,133.4 604.6,132.9 604.8,133.5 605.0,130.6 605.2,132.5 605.4,129.7 605.6,128.9 605.8,126.4 606.0,126.2 606.2,125.7 606.4,127.5 606.6,127.5 606.8,130.8 607.0,133.8 607.2,134.8 607.3,134.8 607.5,133.1 607.7,138.6 607.9,139.8 608.1,140.7 608.3,140.6 608.5,139.4 608.7,140.5 608.9,138.9 609.1,134.8 609.3,134.0 609.5,133.5 609.7,132.6 609.9,137.3 610.1,136.3 610.3,136.6 610.4,137.9 610.6,134.0 610.8,136.0 611.0,137.8 611.2,141.1 611.4,142.2 611.6,143.5 611.8,144.2 612.0,141.3 612.2,144.5 612.4,145.5 612.6,141.8 612.8,138.1 613.0,138.7 613.2,139.9 613.4,143.0 613.5,143.6 613.7,143.3 613.9,145.7 614.1,144.2 614.3,147.0 614.5,141.3 614.7,137.5 614.9,138.4 615.1,140.7 615.3,137.2 615.5,134.6 615.7,131.9 615.9,130.9 616.1,129.2 616.3,126.9 616.5,127.0 616.6,123.6 616.8,125.0 617.0,121.8 617.2,121.8 617.4,120.1 617.6,120.6 617.8,123.8 618.0,117.0 618.2,117.5 618.4,119.9 618.6,116.6 618.8,116.3 619.0,118.0 619.2,116.0 619.4,116.4 619.6,115.8 619.7,115.1 619.9,114.8 620.1,118.9 620.3,118.6 620.5,116.0 620.7,114.5 620.9,114.8 621.1,116.3 621.3,117.6 621.5,117.4 621.7,117.1 621.9,117.2 622.1,115.1 622.3,113.3 622.5,113.6 622.6,117.8 622.8,118.6 623.0,120.1 623.2,120.3 623.4,117.3 623.6,118.7 623.8,118.8 624.0,117.7 624.2,119.6 624.4,116.8 624.6,117.9 624.8,117.7 625.0,117.9 625.2,121.2 625.4,117.1 625.6,116.6 625.7,115.4 625.9,113.5 626.1,112.1 626.3,111.4 626.5,112.3 626.7,114.8 626.9,119.9 627.1,118.3 627.3,127.9 627.5,125.5 627.7,126.6 627.9,128.0 628.1,126.7 628.3,128.2 628.5,125.0 628.7,124.0 628.8,122.8 629.0,123.6 629.2,124.9 629.4,120.8 629.6,122.5 629.8,122.7 630.0,122.6 630.2,121.5 630.4,121.3 630.6,120.7 630.8,122.5 631.0,121.4 631.2,125.4 631.4,125.7 631.6,125.4 631.8,126.4 631.9,126.2 632.1,126.1 632.3,127.9 632.5,126.6 632.7,124.7 632.9,125.1 633.1,126.7 633.3,127.1 633.5,128.6 633.7,130.3 633.9,131.6 634.1,129.3 634.3,133.2 634.5,132.5 634.7,135.4 634.9,131.9 635.0,130.9 635.2,132.0 635.4,132.4 635.6,130.8 635.8,129.8 636.0,129.2 636.2,127.4 636.4,126.4 636.6,123.8 636.8,124.1 637.0,127.8 637.2,128.8 637.4,128.8 637.6,127.4 637.8,126.0 638.0,125.2 638.1,124.0 638.3,124.1 638.5,123.9 638.7,124.4 638.9,124.9 639.1,124.6 639.3,124.3 639.5,124.0 639.7,125.8 639.9,128.0 640.1,124.8 640.3,124.8 640.5,124.0 640.7,124.0 640.9,124.4 641.0,122.0 641.2,119.2 641.4,120.9 641.6,121.5 641.8,121.5 642.0,123.4 642.2,123.8 642.4,123.9 642.6,125.4 642.8,124.7 643.0,124.1 643.2,123.5 643.4,124.2 643.6,124.4 643.8,127.9 644.0,130.4 644.1,130.7 644.3,130.4 644.5,128.5 644.7,126.3 644.9,123.0 645.1,121.8 645.3,121.7 645.5,120.8 645.7,118.7 645.9,118.0 646.1,119.0 646.3,116.9 646.5,115.9 646.7,114.3 646.9,114.1 647.1,114.3 647.2,114.1 647.4,115.2 647.6,116.6 647.8,117.0 648.0,116.0 648.2,117.1 648.4,116.3 648.6,115.0 648.8,115.8 649.0,117.5 649.2,118.2 649.4,118.2 649.6,115.9 649.8,114.9 650.0,116.0 650.2,116.9 650.3,118.3 650.5,117.1 650.7,116.8 650.9,116.2 651.1,114.0 651.3,113.8 651.5,113.6 651.7,113.2 651.9,113.8 652.1,114.7 652.3,115.0 652.5,114.9 652.7,115.7 652.9,115.5 653.1,119.4 653.3,122.4 653.4,121.0 653.6,122.9 653.8,126.1 654.0,126.0 654.2,126.1 654.4,126.3 654.6,127.6 654.8,128.7 655.0,129.3 655.2,129.4 655.4,128.9 655.6,129.3 655.8,128.1 656.0,129.2 656.2,127.4 656.4,126.7 656.5,126.1 656.7,124.4 656.9,124.4 657.1,125.4 657.3,131.0 657.5,131.0 657.7,133.5 657.9,134.1 658.1,132.3 658.3,132.4 658.5,134.3 658.7,132.7 658.9,133.7 659.1,133.7 659.3,134.5 659.5,136.1 659.6,138.8 659.8,139.4 660.0,139.3 660.2,141.2 660.4,140.2 660.6,139.2 660.8,139.3 661.0,138.3 661.2,140.4 661.4,139.0 661.6,140.4 661.8,139.4 662.0,139.2 662.2,138.1 662.4,137.6 662.5,138.9 662.7,140.4 662.9,138.2 663.1,136.8 663.3,140.2 663.5,137.8 663.7,138.3 663.9,141.0 664.1,141.3 664.3,143.5 664.5,142.3 664.7,143.0 664.9,141.5 665.1,136.1 665.3,135.0 665.5,135.2 665.6,132.0 665.8,132.9 666.0,132.2 666.2,132.1 666.4,132.1 666.6,130.2 666.8,130.1 667.0,127.0 667.2,128.1 667.4,126.9 667.6,127.1 667.8,127.8 668.0,126.8 668.2,125.5 668.4,124.3 668.6,124.4 668.7,125.0 668.9,124.0 669.1,122.2 669.3,121.0 669.5,120.7 669.7,121.5 669.9,121.1 670.1,121.2 670.3,120.8 670.5,119.4 670.7,119.2 670.9,117.8 671.1,116.0 671.3,116.2 671.5,116.2 671.7,115.3 671.8,117.3 672.0,115.2 672.2,114.2 672.4,113.2 672.6,112.4 672.8,112.5 673.0,112.5 673.2,113.2 673.4,115.3 673.6,114.5 673.8,114.7 674.0,114.0 674.2,114.8 674.4,114.6 674.6,115.2 674.8,115.2 674.9,116.0 675.1,117.3 675.3,115.5 675.5,115.0 675.7,113.5 675.9,113.1 676.1,115.2 676.3,113.9 676.5,114.5 676.7,113.5 676.9,113.1 677.1,114.4 677.3,111.4 677.5,111.4 677.7,112.7 677.9,107.3 678.0,103.7 678.2,104.6 678.4,102.8 678.6,103.7 678.8,105.2 679.0,102.9 679.2,102.7 679.4,103.3 679.6,102.7 679.8,103.2 680.0,101.7 680.2,101.2 680.4,101.2 680.6,101.2 680.8,101.2 680.9,99.9 681.1,99.1 681.3,99.2 681.5,100.7 681.7,100.6 681.9,100.0 682.1,99.9 682.3,100.7 682.5,98.7 682.7,99.1 682.9,99.1 683.1,99.7 683.3,99.5 683.5,98.7 683.7,98.4 683.9,97.3 684.0,98.0 684.2,99.3 684.4,99.2 684.6,97.8 684.8,98.0 685.0,98.5 685.2,99.0 685.4,98.3 685.6,99.8 685.8,98.8 686.0,99.3 686.2,98.2 686.4,98.9 686.6,98.4 686.8,99.0 687.0,99.7 687.1,99.1 687.3,100.7 687.5,99.8 687.7,99.2 687.9,98.2 688.1,96.6 688.3,96.7 688.5,96.7 688.7,95.2 688.9,95.0 689.1,96.7 689.3,96.4 689.5,92.1 689.7,91.0 689.9,89.4 690.1,88.7 690.2,87.7 690.4,86.6 690.6,86.2 690.8,87.6 691.0,87.0 691.2,85.6 691.4,86.5 691.6,86.0 691.8,84.0 692.0,83.9 692.2,84.5 692.4,85.7 692.6,85.2 692.8,88.4 693.0,90.4 693.2,88.9 693.3,87.6 693.5,89.6 693.7,90.8 693.9,88.7 694.1,91.0 694.3,90.6 694.5,89.0 694.7,89.6 694.9,87.8 695.1,87.8 695.3,90.0 695.5,88.8 695.7,88.1 695.9,89.0 696.1,89.5 696.3,89.8 696.4,91.0 696.6,91.6 696.8,91.4 697.0,92.1 697.2,95.6 697.4,95.0 697.6,94.6 697.8,93.2 698.0,93.4 698.2,93.8 698.4,91.5 698.6,90.2 698.8,89.7 699.0,90.7 699.2,87.4 699.3,89.2 699.5,90.0 699.7,90.5 699.9,88.9 700.1,87.8 700.3,91.2 700.5,90.8 700.7,87.7 700.9,87.1 701.1,93.9 701.3,93.9 701.5,94.1 701.7,96.8 701.9,100.5 702.1,99.3 702.3,99.8 702.4,98.5 702.6,98.2 702.8,99.2 703.0,95.5 703.2,95.7 703.4,94.2 703.6,94.5 703.8,93.1 704.0,93.3 704.2,91.9 704.4,92.2 704.6,91.0 704.8,91.5 705.0,92.2 705.2,91.9 705.4,91.6 705.5,90.2 705.7,96.0 705.9,97.5 706.1,98.4 706.3,99.6 706.5,97.3 706.7,96.8 706.9,96.8 707.1,95.8 707.3,95.9 707.5,94.2 707.7,93.9 707.9,94.2 708.1,91.2 708.3,92.5 708.5,92.7 708.6,94.0 708.8,93.5 709.0,93.1 709.2,92.7 709.4,92.3 709.6,92.8 709.8,92.8 710.0,94.0 710.2,93.6 710.4,93.1 710.6,93.0 710.8,91.2 711.0,93.0 711.2,90.7 711.4,90.4 711.6,90.9 711.7,90.2 711.9,92.2 712.1,92.9 712.3,94.5 712.5,95.5 712.7,95.2 712.9,96.1 713.1,96.3 713.3,96.0 713.5,96.8 713.7,96.5 713.9,104.2 714.1,106.5 714.3,105.1 714.5,103.8 714.7,102.4 714.8,102.5 715.0,101.8 715.2,101.6 715.4,101.4 715.6,102.4 715.8,104.4 716.0,104.2 716.2,103.6 716.4,103.8 716.6,103.3 716.8,100.9 717.0,99.5 717.2,97.6 717.4,101.3 717.6,100.3 717.8,99.3 717.9,99.0 718.1,98.4 718.3,98.6 718.5,99.7 718.7,99.6 718.9,96.9 719.1,97.6 719.3,102.4 719.5,104.6 719.7,105.0 719.9,104.9 720.1,104.9 720.3,108.6 720.5,109.1 720.7,108.4 720.8,108.0 721.0,107.4 721.2,107.1 721.4,108.0 721.6,109.3 721.8,109.5 722.0,109.6 722.2,108.4 722.4,108.7 722.6,109.8 722.8,109.6 723.0,111.5 723.2,109.9 723.4,110.1 723.6,109.4 723.8,106.6 723.9,105.9 724.1,103.8 724.3,104.0 724.5,104.1 724.7,104.1 724.9,103.5 725.1,104.3 725.3,104.4 725.5,103.9 725.7,101.8 725.9,102.9 726.1,97.0 726.3,96.5 726.5,95.1 726.7,95.4 726.9,95.2 727.0,94.5 727.2,96.4 727.4,95.4 727.6,96.9 727.8,95.6 728.0,95.8 728.2,96.2 728.4,98.4 728.6,97.6 728.8,97.7 729.0,97.3 729.2,97.1 729.4,95.2 729.6,96.2 729.8,98.4 730.0,96.3 730.1,96.9 730.3,95.4 730.5,97.6 730.7,101.8 730.9,102.5 731.1,104.3 731.3,102.6 731.5,102.3 731.7,104.4 731.9,104.0 732.1,105.4 732.3,106.7 732.5,104.5 732.7,102.3 732.9,102.3 733.1,103.3 733.2,105.8 733.4,105.8 733.6,105.4 733.8,106.2 734.0,114.3 734.2,121.2 734.4,122.2 734.6,123.1 734.8,114.8 735.0,117.8 735.2,116.3 735.4,115.7 735.6,116.2 735.8,116.2 736.0,114.9 736.2,116.9 736.3,113.6 736.5,111.9 736.7,109.6 736.9,109.1 737.1,109.3 737.3,106.6 737.5,104.7 737.7,104.5 737.9,101.2 738.1,103.0 738.3,104.8 738.5,104.2 738.7,102.1 738.9,102.5 739.1,98.5 739.2,98.8 739.4,100.1 739.6,99.0 739.8,97.8 740.0,97.8 740.2,98.7 740.4,99.9 740.6,100.3 740.8,101.4 741.0,99.4 741.2,99.9 741.4,99.6 741.6,99.2 741.8,99.5 742.0,98.2 742.2,98.6 742.3,98.6 742.5,98.6 742.7,97.7 742.9,97.0 743.1,98.3 743.3,98.0 743.5,99.7 743.7,97.8 743.9,99.8 744.1,100.0 744.3,100.7 744.5,99.7 744.7,98.2 744.9,97.9 745.1,96.1 745.3,97.2 745.4,96.2 745.6,94.7 745.8,94.1 746.0,93.6 746.2,94.7 746.4,94.4 746.6,94.2 746.8,94.2 747.0,94.8 747.2,94.8 747.4,95.9 747.6,95.2 747.8,93.4 748.0,93.2 748.2,93.9 748.4,94.7 748.5,94.1 748.7,94.5 748.9,93.4 749.1,93.6 749.3,93.9 749.5,95.1 749.7,83.3 749.9,85.2 750.1,83.8 750.3,84.1 750.5,84.1 750.7,84.2 750.9,84.9 751.1,84.7 751.3,84.2 751.5,84.1 751.6,85.5 751.8,86.4 752.0,86.3 752.2,85.5 752.4,85.5 752.6,86.9 752.8,84.0 753.0,84.8 753.2,84.3 753.4,83.3 753.6,83.4 753.8,85.4 754.0,86.4 754.2,87.0 754.4,85.1 754.6,86.2 754.7,86.7 754.9,88.8 755.1,88.6 755.3,85.2 755.5,85.4 755.7,85.3 755.9,86.1 756.1,85.9 756.3,84.9 756.5,84.4 756.7,83.8 756.9,84.2 757.1,85.5 757.3,85.5 757.5,84.2 757.6,83.5 757.8,80.7 758.0,80.4 758.2,79.5 758.4,78.8 758.6,78.8 758.8,80.2 759.0,80.1 759.2,81.2 759.4,83.2 759.6,81.9 759.8,81.4 760.0,82.0 760.2,82.8 760.4,81.9 760.6,81.2 760.7,80.9 760.9,81.9 761.1,80.5 761.3,80.1 761.5,79.2 761.7,78.3 761.9,76.5 762.1,77.5 762.3,78.1 762.5,79.4 762.7,79.0 762.9,78.2 763.1,78.5 763.3,77.7 763.5,77.9 763.7,78.9 763.8,78.8 764.0,80.8 764.2,84.5 764.4,85.9 764.6,86.6 764.8,87.6 765.0,88.3 765.2,86.4 765.4,85.2 765.6,85.1 765.8,85.5 766.0,85.8 766.2,86.9 766.4,86.9 766.6,85.7 766.8,85.7 766.9,87.2 767.1,87.8 767.3,88.9 767.5,87.7 767.7,86.3 767.9,88.8 768.1,87.8 768.3,88.4 768.5,89.0 768.7,89.2 768.9,88.0 769.1,87.1 769.3,87.5 769.5,87.4 769.7,87.4 769.9,87.7 770.0,88.4 770.2,89.6 770.4,88.8 770.6,87.2 770.8,85.3 771.0,86.9 771.2,85.7 771.4,86.6 771.6,87.1 771.8,86.3 772.0,86.3 772.2,82.5 772.4,81.4 772.6,87.4 772.8,84.9 773.0,84.0 773.1,85.4 773.3,83.6 773.5,86.0 773.7,90.2 773.9,88.1 774.1,88.2 774.3,86.5 774.5,87.6 774.7,86.6 774.9,87.0 775.1,84.6 775.3,86.2 775.5,95.9 775.7,97.9 775.9,98.5 776.1,96.7 776.2,96.6 776.4,95.6 776.6,95.7 776.8,96.2 777.0,97.4 777.2,96.3 777.4,96.1 777.6,92.9 777.8,95.0 778.0,95.5 778.2,97.1 778.4,95.1 778.6,98.0 778.8,100.9 779.0,100.5 779.1,101.3 779.3,101.6 779.5,103.8 779.7,104.0 779.9,102.8 780.1,102.2 780.3,104.2 780.5,103.4 780.7,103.4 780.9,103.9 781.1,103.4 781.3,102.2 781.5,104.3 781.7,106.2 781.9,107.6 782.1,104.3 782.2,101.5 782.4,102.6 782.6,100.2 782.8,99.8 783.0,96.4 783.2,95.1 783.4,95.7 783.6,95.6 783.8,94.9 784.0,98.9 784.2,98.9 784.4,102.8 784.6,103.4 784.8,103.9 785.0,102.5 785.2,102.2 785.3,102.5 785.5,100.5 785.7,105.9 785.9,108.4 786.1,105.6 786.3,108.4 786.5,108.9 786.7,107.4 786.9,105.2 787.1,108.1 787.3,110.1 787.5,111.8 787.7,112.3 787.9,115.0 788.1,114.5 788.3,115.9 788.4,115.7 788.6,117.9 788.8,115.8 789.0,115.3 789.2,113.6 789.4,112.7 789.6,113.8 789.8,114.3 790.0,114.0 790.2,115.2 790.4,113.2 790.6,113.8 790.8,113.3 791.0,113.5 791.2,114.0 791.4,112.6 791.5,116.5 791.7,114.5 791.9,113.4 792.1,112.5 792.3,111.4 792.5,113.2 792.7,112.0 792.9,111.6 793.1,113.1 793.3,111.3 793.5,106.3 793.7,106.9 793.9,106.6 794.1,105.1 794.3,106.1 794.5,105.2 794.6,104.0 794.8,102.8 795.0,104.7 795.2,104.5 795.4,102.2 795.6,102.2 795.8,101.9 796.0,102.0"/>
<text x="78" y="392" font-size="11" fill="#16a34a">Total return +509.6%</text><text x="268" y="392" font-size="11" fill="#2563eb">Price-only +400.7%</text><text x="78" y="362" font-size="11" text-anchor="middle" fill="#64748b">2011-10</text><text x="258" y="362" font-size="11" text-anchor="middle" fill="#64748b">2015-06</text><text x="437" y="362" font-size="11" text-anchor="middle" fill="#64748b">2019-02</text><text x="617" y="362" font-size="11" text-anchor="middle" fill="#64748b">2022-11</text><text x="796" y="362" font-size="11" text-anchor="middle" fill="#64748b">2026-07</text></svg>