<svg xmlns="http://www.w3.org/2000/svg" width="820" height="410" viewBox="0 0 820 410">
<rect width="820" height="410" fill="#fafafa"/><text x="78" y="22" font-size="14" font-family="sans-serif" fill="#0f172a">ALAB cumulative return since 2024-03-20 | dividends reinvested</text>
<text x="78" y="40" font-size="11" font-family="sans-serif" fill="#334155">Total return +430.7% | Price-only +430.7% | logarithmic scale</text>
<text x="78" y="54" font-size="9" font-family="sans-serif" fill="#64748b">Regular $0.00 | Special $0.00 | Other $0.00 per initial share path</text>
<line x1="78" y1="332.0" x2="796" y2="332.0" stroke="#e2e8f0"/><text x="70" y="336.0" font-size="10" text-anchor="end" fill="#64748b">-49.8%</text><line x1="78" y1="287.0" x2="796" y2="287.0" stroke="#e2e8f0"/><text x="70" y="291.0" font-size="10" text-anchor="end" fill="#64748b">-18.6%</text><line x1="78" y1="267.8" x2="796" y2="267.8" stroke="#e2e8f0"/><text x="70" y="271.8" font-size="10" text-anchor="end" fill="#64748b">0%</text><line x1="78" y1="242.0" x2="796" y2="242.0" stroke="#e2e8f0"/><text x="70" y="246.0" font-size="10" text-anchor="end" fill="#64748b">+31.9%</text><line x1="78" y1="197.0" x2="796" y2="197.0" stroke="#e2e8f0"/><text x="70" y="201.0" font-size="10" text-anchor="end" fill="#64748b">+113.7%</text><line x1="78" y1="152.0" x2="796" y2="152.0" stroke="#e2e8f0"/><text x="70" y="156.0" font-size="10" text-anchor="end" fill="#64748b">+246.3%</text><line x1="78" y1="107.0" x2="796" y2="107.0" stroke="#e2e8f0"/><text x="70" y="111.0" font-size="10" text-anchor="end" fill="#64748b">+461.2%</text><line x1="78" y1="62.0" x2="796" y2="62.0" stroke="#e2e8f0"/><text x="70" y="66.0" font-size="10" text-anchor="end" fill="#64748b">+809.4%</text>
<line x1="78" y1="332" x2="796" y2="332" stroke="#cbd5e1"/>
<polyline fill="none" stroke="#2563eb" stroke-width="2" points="78.0,267.8 79.2,264.6 80.5,256.5 81.7,238.4 82.9,240.2 84.1,244.2 85.4,251.1 86.6,255.0 87.8,253.6 89.1,257.5 90.3,256.8 91.5,254.7 92.8,256.6 94.0,258.7 95.2,254.8 96.4,249.3 97.7,252.9 98.9,254.8 100.1,250.7 101.4,252.3 102.6,255.3 103.8,264.1 105.0,262.3 106.3,254.2 107.5,255.2 108.7,254.4 110.0,238.4 111.2,237.6 112.4,238.7 113.7,250.3 114.9,245.2 116.1,247.7 117.3,246.3 118.6,248.6 119.8,257.5 121.0,256.4 122.3,256.4 123.5,256.2 124.7,253.5 125.9,247.1 127.2,252.6 128.4,253.2 129.6,253.2 130.9,252.2 132.1,252.4 133.3,256.4 134.6,253.9 135.8,258.0 137.0,260.0 138.2,262.8 139.5,264.1 140.7,265.4 141.9,269.0 143.2,267.5 144.4,266.3 145.6,267.9 146.8,261.0 148.1,263.2 149.3,264.0 150.5,266.2 151.8,265.0 153.0,263.6 154.2,260.4 155.5,266.1 156.7,272.4 157.9,272.6 159.1,274.3 160.4,278.0 161.6,274.2 162.8,270.1 164.1,274.8 165.3,270.1 166.5,271.9 167.8,271.7 169.0,272.6 170.2,277.0 171.4,275.9 172.7,278.7 173.9,277.5 175.1,274.2 176.4,274.8 177.6,280.1 178.8,281.6 180.0,284.9 181.3,282.5 182.5,283.1 183.7,293.3 185.0,293.5 186.2,293.4 187.4,295.6 188.7,303.6 189.9,300.1 191.1,307.6 192.3,303.3 193.6,300.3 194.8,303.1 196.0,317.5 197.3,306.3 198.5,306.6 199.7,309.3 200.9,307.7 202.2,311.4 203.4,301.3 204.6,306.6 205.9,306.2 207.1,310.6 208.3,307.1 209.6,309.2 210.8,304.6 212.0,301.9 213.2,298.3 214.5,300.8 215.7,291.2 216.9,301.8 218.2,310.8 219.4,304.8 220.6,304.8 221.8,308.7 223.1,313.4 224.3,312.7 225.5,304.2 226.8,305.6 228.0,301.0 229.2,300.1 230.5,295.0 231.7,294.8 232.9,293.4 234.1,286.9 235.4,286.6 236.6,285.7 237.8,284.0 239.1,279.4 240.3,281.5 241.5,283.5 242.7,286.6 244.0,286.9 245.2,290.2 246.4,283.6 247.7,283.2 248.9,282.5 250.1,269.0 251.4,261.8 252.6,261.0 253.8,263.5 255.0,267.1 256.3,262.6 257.5,262.0 258.7,260.8 260.0,260.3 261.2,258.8 262.4,259.5 263.6,256.1 264.9,253.0 266.1,252.8 267.3,251.2 268.6,252.0 269.8,256.3 271.0,253.0 272.3,257.0 273.5,227.2 274.7,225.0 275.9,228.5 277.2,223.9 278.4,230.8 279.6,232.3 280.9,233.8 282.1,234.7 283.3,236.8 284.5,232.7 285.8,227.9 287.0,225.7 288.2,219.5 289.5,221.2 290.7,216.7 291.9,218.3 293.2,223.6 294.4,220.3 295.6,220.2 296.8,209.0 298.1,210.0 299.3,210.5 300.5,206.0 301.8,204.7 303.0,207.7 304.2,204.3 305.4,204.4 306.7,197.3 307.9,198.5 309.1,200.3 310.4,204.4 311.6,202.3 312.8,197.3 314.1,194.9 315.3,190.8 316.5,188.1 317.7,190.9 319.0,194.3 320.2,197.1 321.4,195.5 322.7,191.3 323.9,189.5 325.1,196.3 326.3,198.3 327.6,199.0 328.8,200.8 330.0,199.9 331.3,197.5 332.5,200.3 333.7,196.5 335.0,202.9 336.2,204.0 337.4,203.4 338.6,209.8 339.9,240.4 341.1,233.5 342.3,232.6 343.6,226.2 344.8,221.9 346.0,225.0 347.2,221.7 348.5,217.3 349.7,219.1 350.9,222.1 352.2,220.2 353.4,231.0 354.6,235.7 355.9,235.0 357.1,235.3 358.3,229.8 359.5,233.2 360.8,234.7 362.0,237.6 363.2,238.8 364.5,246.7 365.7,240.6 366.9,249.1 368.2,250.9 369.4,259.6 370.6,257.0 371.8,258.4 373.1,265.6 374.3,260.7 375.5,268.3 376.8,261.9 378.0,258.1 379.2,263.0 380.4,253.6 381.7,253.8 382.9,258.0 384.1,258.0 385.4,257.9 386.6,255.1 387.8,251.6 389.1,253.6 390.3,260.7 391.5,266.6 392.7,269.7 394.0,271.4 395.2,267.8 396.4,264.7 397.7,277.8 398.9,282.5 400.1,278.7 401.3,281.2 402.6,264.4 403.8,272.7 405.0,270.7 406.3,271.8 407.5,270.8 408.7,272.8 410.0,272.5 411.2,280.0 412.4,278.5 413.6,270.6 414.9,264.1 416.1,261.8 417.3,261.9 418.6,262.5 419.8,263.0 421.0,257.6 422.2,254.8 423.5,253.7 424.7,254.7 425.9,255.1 427.2,254.3 428.4,254.9 429.6,243.7 430.9,235.4 432.1,232.4 433.3,230.8 434.5,232.5 435.8,232.8 437.0,228.6 438.2,230.9 439.5,228.7 440.7,228.4 441.9,225.6 443.1,226.6 444.4,226.5 445.6,232.3 446.8,230.1 448.1,228.0 449.3,227.8 450.5,232.3 451.8,232.3 453.0,230.7 454.2,231.6 455.4,228.5 456.7,228.7 457.9,233.4 459.1,227.7 460.4,230.1 461.6,223.7 462.8,229.9 464.0,237.4 465.3,236.0 466.5,233.5 467.7,225.2 469.0,232.0 470.2,232.6 471.4,234.5 472.7,234.6 473.9,232.3 475.1,233.5 476.3,230.7 477.6,223.4 478.8,226.1 480.0,227.2 481.3,232.8 482.5,230.7 483.7,231.1 484.9,225.2 486.2,221.3 487.4,204.8 488.6,208.7 489.9,206.7 491.1,205.0 492.3,204.5 493.6,203.2 494.8,207.5 496.0,199.6 497.2,194.1 498.5,198.0 499.7,193.3 500.9,194.9 502.2,171.4 503.4,173.3 504.6,168.8 505.8,168.8 507.1,162.5 508.3,161.7 509.5,163.1 510.8,165.5 512.0,165.2 513.2,173.2 514.5,172.5 515.7,169.8 516.9,168.9 518.1,171.6 519.4,169.2 520.6,168.9 521.8,163.9 523.1,167.3 524.3,171.5 525.5,170.2 526.8,164.4 528.0,162.8 529.2,151.4 530.4,152.1 531.7,145.5 532.9,144.5 534.1,145.8 535.4,145.1 536.6,142.1 537.8,138.1 539.0,137.2 540.3,139.7 541.5,142.7 542.7,145.6 544.0,156.2 545.2,158.4 546.4,159.7 547.7,159.2 548.9,160.6 550.1,161.3 551.3,154.3 552.6,158.3 553.8,149.4 555.0,153.2 556.3,150.0 557.5,147.5 558.7,155.8 559.9,158.9 561.2,178.6 562.4,178.6 563.6,177.4 564.9,179.6 566.1,181.6 567.3,180.9 568.6,182.5 569.8,177.4 571.0,176.6 572.2,173.6 573.5,174.8 574.7,171.8 575.9,174.0 577.2,165.1 578.4,162.7 579.6,168.8 580.8,167.5 582.1,177.8 583.3,176.3 584.5,171.8 585.8,175.2 587.0,180.7 588.2,189.0 589.5,189.1 590.7,191.0 591.9,192.2 593.1,190.6 594.4,192.4 595.6,190.7 596.8,186.9 598.1,188.8 599.3,182.9 600.5,180.9 601.7,176.5 603.0,190.0 604.2,183.9 605.4,183.9 606.7,178.7 607.9,170.7 609.1,175.4 610.4,177.0 611.6,171.8 612.8,186.2 614.0,189.5 615.3,188.7 616.5,191.7 617.7,188.1 619.0,176.9 620.2,172.4 621.4,174.4 622.6,173.8 623.9,175.3 625.1,173.7 626.3,173.3 627.6,175.8 628.8,168.7 630.0,175.4 631.3,178.9 632.5,176.1 633.7,181.4 634.9,177.9 636.2,172.4 637.4,168.2 638.6,172.6 639.9,171.4 641.1,167.4 642.3,166.6 643.5,170.6 644.8,170.4 646.0,174.0 647.2,177.6 648.5,173.3 649.7,175.0 650.9,179.2 652.2,185.1 653.4,184.0 654.6,180.3 655.8,188.8 657.1,190.0 658.3,173.9 659.5,164.6 660.8,167.0 662.0,189.5 663.2,201.3 664.4,199.3 665.7,203.4 666.9,199.1 668.1,196.9 669.4,199.0 670.6,200.1 671.8,200.0 673.1,200.1 674.3,202.7 675.5,207.2 676.7,205.8 678.0,214.5 679.2,211.2 680.4,206.3 681.7,206.9 682.9,204.5 684.1,209.0 685.3,202.7 686.6,206.3 687.8,206.0 689.0,200.6 690.3,200.6 691.5,201.5 692.7,201.6 694.0,209.4 695.2,203.3 696.4,204.9 697.6,206.0 698.9,211.4 700.1,212.3 701.3,223.0 702.6,214.7 703.8,217.5 705.0,208.5 706.2,207.8 707.5,207.1 708.7,202.1 709.9,199.2 711.2,186.1 712.4,175.6 713.6,173.5 714.9,172.7 716.1,173.4 717.3,171.6 718.5,170.7 719.8,162.5 721.0,161.5 722.2,159.8 723.5,152.9 724.7,160.2 725.9,166.8 727.2,160.1 728.4,161.1 729.6,157.4 730.8,158.1 732.1,151.6 733.3,152.4 734.5,160.7 735.8,158.7 737.0,155.3 738.2,156.6 739.4,148.1 740.7,146.2 741.9,144.5 743.1,151.7 744.4,140.0 745.6,124.8 746.8,121.5 748.1,118.7 749.3,115.2 750.5,113.3 751.7,106.7 753.0,108.4 754.2,114.8 755.4,105.0 756.7,103.0 757.9,104.4 759.1,115.7 760.3,107.5 761.6,108.7 762.8,111.7 764.0,101.9 765.3,102.0 766.5,96.6 767.7,103.4 769.0,100.1 770.2,90.1 771.4,85.2 772.6,94.7 773.9,94.1 775.1,94.5 776.3,96.0 777.6,81.8 778.8,76.5 780.0,87.1 781.2,92.6 782.5,86.7 783.7,98.1 784.9,95.7 786.2,90.1 787.4,91.1 788.6,103.3 789.9,103.4 791.1,106.3 792.3,114.9 793.5,119.7 794.8,118.1 796.0,112.2"/><polyline fill="none" stroke="#16a34a" stroke-width="3" points="78.0,267.8 79.2,264.6 80.5,256.5 81.7,238.4 82.9,240.2 84.1,244.2 85.4,251.1 86.6,255.0 87.8,253.6 89.1,257.5 90.3,256.8 91.5,254.7 92.8,256.6 94.0,258.7 95.2,254.8 96.4,249.3 97.7,252.9 98.9,254.8 100.1,250.7 101.4,252.3 102.6,255.3 103.8,264.1 105.0,262.3 106.3,254.2 107.5,255.2 108.7,254.4 110.0,238.4 111.2,237.6 112.4,238.7 113.7,250.3 114.9,245.2 116.1,247.7 117.3,246.3 118.6,248.6 119.8,257.5 121.0,256.4 122.3,256.4 123.5,256.2 124.7,253.5 125.9,247.1 127.2,252.6 128.4,253.2 129.6,253.2 130.9,252.2 132.1,252.4 133.3,256.4 134.6,253.9 135.8,258.0 137.0,260.0 138.2,262.8 139.5,264.1 140.7,265.4 141.9,269.0 143.2,267.5 144.4,266.3 145.6,267.9 146.8,261.0 148.1,263.2 149.3,264.0 150.5,266.2 151.8,265.0 153.0,263.6 154.2,260.4 155.5,266.1 156.7,272.4 157.9,272.6 159.1,274.3 160.4,278.0 161.6,274.2 162.8,270.1 164.1,274.8 165.3,270.1 166.5,271.9 167.8,271.7 169.0,272.6 170.2,277.0 171.4,275.9 172.7,278.7 173.9,277.5 175.1,274.2 176.4,274.8 177.6,280.1 178.8,281.6 180.0,284.9 181.3,282.5 182.5,283.1 183.7,293.3 185.0,293.5 186.2,293.4 187.4,295.6 188.7,303.6 189.9,300.1 191.1,307.6 192.3,303.3 193.6,300.3 194.8,303.1 196.0,317.5 197.3,306.3 198.5,306.6 199.7,309.3 200.9,307.7 202.2,311.4 203.4,301.3 204.6,306.6 205.9,306.2 207.1,310.6 208.3,307.1 209.6,309.2 210.8,304.6 212.0,301.9 213.2,298.3 214.5,300.8 215.7,291.2 216.9,301.8 218.2,310.8 219.4,304.8 220.6,304.8 221.8,308.7 223.1,313.4 224.3,312.7 225.5,304.2 226.8,305.6 228.0,301.0 229.2,300.1 230.5,295.0 231.7,294.8 232.9,293.4 234.1,286.9 235.4,286.6 236.6,285.7 237.8,284.0 239.1,279.4 240.3,281.5 241.5,283.5 242.7,286.6 244.0,286.9 245.2,290.2 246.4,283.6 247.7,283.2 248.9,282.5 250.1,269.0 251.4,261.8 252.6,261.0 253.8,263.5 255.0,267.1 256.3,262.6 257.5,262.0 258.7,260.8 260.0,260.3 261.2,258.8 262.4,259.5 263.6,256.1 264.9,253.0 266.1,252.8 267.3,251.2 268.6,252.0 269.8,256.3 271.0,253.0 272.3,257.0 273.5,227.2 274.7,225.0 275.9,228.5 277.2,223.9 278.4,230.8 279.6,232.3 280.9,233.8 282.1,234.7 283.3,236.8 284.5,232.7 285.8,227.9 287.0,225.7 288.2,219.5 289.5,221.2 290.7,216.7 291.9,218.3 293.2,223.6 294.4,220.3 295.6,220.2 296.8,209.0 298.1,210.0 299.3,210.5 300.5,206.0 301.8,204.7 303.0,207.7 304.2,204.3 305.4,204.4 306.7,197.3 307.9,198.5 309.1,200.3 310.4,204.4 311.6,202.3 312.8,197.3 314.1,194.9 315.3,190.8 316.5,188.1 317.7,190.9 319.0,194.3 320.2,197.1 321.4,195.5 322.7,191.3 323.9,189.5 325.1,196.3 326.3,198.3 327.6,199.0 328.8,200.8 330.0,199.9 331.3,197.5 332.5,200.3 333.7,196.5 335.0,202.9 336.2,204.0 337.4,203.4 338.6,209.8 339.9,240.4 341.1,233.5 342.3,232.6 343.6,226.2 344.8,221.9 346.0,225.0 347.2,221.7 348.5,217.3 349.7,219.1 350.9,222.1 352.2,220.2 353.4,231.0 354.6,235.7 355.9,235.0 357.1,235.3 358.3,229.8 359.5,233.2 360.8,234.7 362.0,237.6 363.2,238.8 364.5,246.7 365.7,240.6 366.9,249.1 368.2,250.9 369.4,259.6 370.6,257.0 371.8,258.4 373.1,265.6 374.3,260.7 375.5,268.3 376.8,261.9 378.0,258.1 379.2,263.0 380.4,253.6 381.7,253.8 382.9,258.0 384.1,258.0 385.4,257.9 386.6,255.1 387.8,251.6 389.1,253.6 390.3,260.7 391.5,266.6 392.7,269.7 394.0,271.4 395.2,267.8 396.4,264.7 397.7,277.8 398.9,282.5 400.1,278.7 401.3,281.2 402.6,264.4 403.8,272.7 405.0,270.7 406.3,271.8 407.5,270.8 408.7,272.8 410.0,272.5 411.2,280.0 412.4,278.5 413.6,270.6 414.9,264.1 416.1,261.8 417.3,261.9 418.6,262.5 419.8,263.0 421.0,257.6 422.2,254.8 423.5,253.7 424.7,254.7 425.9,255.1 427.2,254.3 428.4,254.9 429.6,243.7 430.9,235.4 432.1,232.4 433.3,230.8 434.5,232.5 435.8,232.8 437.0,228.6 438.2,230.9 439.5,228.7 440.7,228.4 441.9,225.6 443.1,226.6 444.4,226.5 445.6,232.3 446.8,230.1 448.1,228.0 449.3,227.8 450.5,232.3 451.8,232.3 453.0,230.7 454.2,231.6 455.4,228.5 456.7,228.7 457.9,233.4 459.1,227.7 460.4,230.1 461.6,223.7 462.8,229.9 464.0,237.4 465.3,236.0 466.5,233.5 467.7,225.2 469.0,232.0 470.2,232.6 471.4,234.5 472.7,234.6 473.9,232.3 475.1,233.5 476.3,230.7 477.6,223.4 478.8,226.1 480.0,227.2 481.3,232.8 482.5,230.7 483.7,231.1 484.9,225.2 486.2,221.3 487.4,204.8 488.6,208.7 489.9,206.7 491.1,205.0 492.3,204.5 493.6,203.2 494.8,207.5 496.0,199.6 497.2,194.1 498.5,198.0 499.7,193.3 500.9,194.9 502.2,171.4 503.4,173.3 504.6,168.8 505.8,168.8 507.1,162.5 508.3,161.7 509.5,163.1 510.8,165.5 512.0,165.2 513.2,173.2 514.5,172.5 515.7,169.8 516.9,168.9 518.1,171.6 519.4,169.2 520.6,168.9 521.8,163.9 523.1,167.3 524.3,171.5 525.5,170.2 526.8,164.4 528.0,162.8 529.2,151.4 530.4,152.1 531.7,145.5 532.9,144.5 534.1,145.8 535.4,145.1 536.6,142.1 537.8,138.1 539.0,137.2 540.3,139.7 541.5,142.7 542.7,145.6 544.0,156.2 545.2,158.4 546.4,159.7 547.7,159.2 548.9,160.6 550.1,161.3 551.3,154.3 552.6,158.3 553.8,149.4 555.0,153.2 556.3,150.0 557.5,147.5 558.7,155.8 559.9,158.9 561.2,178.6 562.4,178.6 563.6,177.4 564.9,179.6 566.1,181.6 567.3,180.9 568.6,182.5 569.8,177.4 571.0,176.6 572.2,173.6 573.5,174.8 574.7,171.8 575.9,174.0 577.2,165.1 578.4,162.7 579.6,168.8 580.8,167.5 582.1,177.8 583.3,176.3 584.5,171.8 585.8,175.2 587.0,180.7 588.2,189.0 589.5,189.1 590.7,191.0 591.9,192.2 593.1,190.6 594.4,192.4 595.6,190.7 596.8,186.9 598.1,188.8 599.3,182.9 600.5,180.9 601.7,176.5 603.0,190.0 604.2,183.9 605.4,183.9 606.7,178.7 607.9,170.7 609.1,175.4 610.4,177.0 611.6,171.8 612.8,186.2 614.0,189.5 615.3,188.7 616.5,191.7 617.7,188.1 619.0,176.9 620.2,172.4 621.4,174.4 622.6,173.8 623.9,175.3 625.1,173.7 626.3,173.3 627.6,175.8 628.8,168.7 630.0,175.4 631.3,178.9 632.5,176.1 633.7,181.4 634.9,177.9 636.2,172.4 637.4,168.2 638.6,172.6 639.9,171.4 641.1,167.4 642.3,166.6 643.5,170.6 644.8,170.4 646.0,174.0 647.2,177.6 648.5,173.3 649.7,175.0 650.9,179.2 652.2,185.1 653.4,184.0 654.6,180.3 655.8,188.8 657.1,190.0 658.3,173.9 659.5,164.6 660.8,167.0 662.0,189.5 663.2,201.3 664.4,199.3 665.7,203.4 666.9,199.1 668.1,196.9 669.4,199.0 670.6,200.1 671.8,200.0 673.1,200.1 674.3,202.7 675.5,207.2 676.7,205.8 678.0,214.5 679.2,211.2 680.4,206.3 681.7,206.9 682.9,204.5 684.1,209.0 685.3,202.7 686.6,206.3 687.8,206.0 689.0,200.6 690.3,200.6 691.5,201.5 692.7,201.6 694.0,209.4 695.2,203.3 696.4,204.9 697.6,206.0 698.9,211.4 700.1,212.3 701.3,223.0 702.6,214.7 703.8,217.5 705.0,208.5 706.2,207.8 707.5,207.1 708.7,202.1 709.9,199.2 711.2,186.1 712.4,175.6 713.6,173.5 714.9,172.7 716.1,173.4 717.3,171.6 718.5,170.7 719.8,162.5 721.0,161.5 722.2,159.8 723.5,152.9 724.7,160.2 725.9,166.8 727.2,160.1 728.4,161.1 729.6,157.4 730.8,158.1 732.1,151.6 733.3,152.4 734.5,160.7 735.8,158.7 737.0,155.3 738.2,156.6 739.4,148.1 740.7,146.2 741.9,144.5 743.1,151.7 744.4,140.0 745.6,124.8 746.8,121.5 748.1,118.7 749.3,115.2 750.5,113.3 751.7,106.7 753.0,108.4 754.2,114.8 755.4,105.0 756.7,103.0 757.9,104.4 759.1,115.7 760.3,107.5 761.6,108.7 762.8,111.7 764.0,101.9 765.3,102.0 766.5,96.6 767.7,103.4 769.0,100.1 770.2,90.1 771.4,85.2 772.6,94.7 773.9,94.1 775.1,94.5 776.3,96.0 777.6,81.8 778.8,76.5 780.0,87.1 781.2,92.6 782.5,86.7 783.7,98.1 784.9,95.7 786.2,90.1 787.4,91.1 788.6,103.3 789.9,103.4 791.1,106.3 792.3,114.9 793.5,119.7 794.8,118.1 796.0,112.2"/>
<text x="78" y="392" font-size="11" fill="#16a34a">Total return +430.7%</text><text x="268" y="392" font-size="11" fill="#2563eb">Price-only +430.7%</text><text x="78" y="362" font-size="11" text-anchor="middle" fill="#64748b">2024-03</text><text x="258" y="362" font-size="11" text-anchor="middle" fill="#64748b">2024-10</text><text x="437" y="362" font-size="11" text-anchor="middle" fill="#64748b">2025-05</text><text x="616" y="362" font-size="11" text-anchor="middle" fill="#64748b">2025-12</text><text x="796" y="362" font-size="11" text-anchor="middle" fill="#64748b">2026-07</text></svg>