<svg xmlns="http://www.w3.org/2000/svg" width="820" height="410" viewBox="0 0 820 410">
<rect width="820" height="410" fill="#fafafa"/><text x="60" y="24" font-size="14" font-family="sans-serif" fill="#0f172a">WBI wealth index · dividends reinvested on ex-date</text>
<text x="60" y="42" font-size="10" font-family="sans-serif" fill="#64748b">Regular $0.10 · Special $0.00 · Other $0.00 per initial share path</text>
<line x1="60" y1="332" x2="796" y2="332" stroke="#cbd5e1"/>
<polyline fill="none" stroke="#2563eb" stroke-width="2" points="60.0,256.3 63.6,259.5 67.1,252.8 70.7,260.2 74.3,253.5 77.9,255.2 81.4,250.7 85.0,233.2 88.6,232.8 92.2,223.1 95.7,219.1 99.3,222.2 102.9,214.5 106.4,212.8 110.0,197.4 113.6,210.0 117.2,218.8 120.7,237.7 124.3,232.1 127.9,218.5 131.5,220.6 135.0,233.1 138.6,240.2 142.2,226.6 145.7,234.2 149.3,245.3 152.9,237.5 156.5,232.7 160.0,236.4 163.6,239.2 167.2,246.0 170.8,250.0 174.3,240.0 177.9,231.4 181.5,234.8 185.0,235.4 188.6,235.7 192.2,235.6 195.8,224.6 199.3,212.5 202.9,219.6 206.5,230.7 210.1,229.7 213.6,247.3 217.2,249.2 220.8,256.7 224.3,268.8 227.9,272.1 231.5,271.3 235.1,264.8 238.6,260.0 242.2,256.7 245.8,250.6 249.4,266.0 252.9,261.7 256.5,261.4 260.1,257.8 263.7,271.3 267.2,270.6 270.8,270.3 274.4,271.1 277.9,282.0 281.5,285.9 285.1,298.4 288.7,294.9 292.2,300.6 295.8,291.7 299.4,285.2 303.0,290.0 306.5,286.7 310.1,293.0 313.7,292.5 317.2,292.4 320.8,295.5 324.4,299.5 328.0,298.2 331.5,309.6 335.1,312.8 338.7,295.3 342.3,295.9 345.8,293.4 349.4,284.9 353.0,263.9 356.5,263.5 360.1,274.1 363.7,269.3 367.3,255.2 370.8,251.4 374.4,252.4 378.0,266.4 381.6,266.7 385.1,267.0 388.7,260.7 392.3,268.6 395.8,271.6 399.4,268.5 403.0,264.8 406.6,264.1 410.1,254.9 413.7,243.2 417.3,232.7 420.9,223.9 424.4,235.9 428.0,225.2 431.6,226.6 435.1,238.5 438.7,226.0 442.3,219.9 445.9,228.1 449.4,220.0 453.0,224.5 456.6,212.0 460.2,205.7 463.7,198.6 467.3,228.2 470.9,235.3 474.4,227.5 478.0,222.9 481.6,223.5 485.2,238.9 488.7,222.2 492.3,221.7 495.9,221.3 499.5,240.9 503.0,228.4 506.6,215.0 510.2,216.3 513.7,216.7 517.3,216.0 520.9,196.4 524.5,198.8 528.0,203.6 531.6,179.7 535.2,202.4 538.8,201.3 542.3,227.1 545.9,219.6 549.5,215.7 553.0,207.5 556.6,217.8 560.2,218.8 563.8,208.4 567.3,216.4 570.9,214.1 574.5,205.3 578.1,205.3 581.6,224.2 585.2,210.6 588.8,198.4 592.3,186.8 595.9,181.7 599.5,177.9 603.1,178.2 606.6,176.1 610.2,159.3 613.8,154.7 617.4,160.4 620.9,156.3 624.5,148.3 628.1,166.8 631.7,183.8 635.2,193.5 638.8,184.3 642.4,168.9 645.9,171.1 649.5,159.5 653.1,146.7 656.7,141.9 660.2,147.1 663.8,150.1 667.4,146.0 671.0,140.6 674.5,140.7 678.1,162.1 681.7,164.2 685.2,167.1 688.8,171.1 692.4,157.0 696.0,157.6 699.5,145.4 703.1,164.5 706.7,161.4 710.3,165.8 713.8,153.2 717.4,149.7 721.0,122.8 724.5,125.1 728.1,129.3 731.7,146.8 735.3,112.4 738.8,157.0 742.4,176.3 746.0,180.2 749.6,151.7 753.1,141.8 756.7,110.8 760.3,97.4 763.8,134.9 767.4,138.8 771.0,126.7 774.6,107.5 778.1,100.1 781.7,93.6 785.3,105.1 788.9,90.4 792.4,75.0 796.0,93.7"/><polyline fill="none" stroke="#16a34a" stroke-width="3" points="60.0,256.3 63.6,259.5 67.1,252.8 70.7,260.2 74.3,253.5 77.9,255.2 81.4,250.7 85.0,233.2 88.6,232.8 92.2,223.1 95.7,219.1 99.3,222.2 102.9,214.5 106.4,212.8 110.0,197.4 113.6,210.0 117.2,218.8 120.7,237.7 124.3,232.1 127.9,218.5 131.5,220.6 135.0,233.1 138.6,240.2 142.2,226.6 145.7,234.2 149.3,245.3 152.9,237.5 156.5,232.7 160.0,236.4 163.6,239.2 167.2,246.0 170.8,250.0 174.3,240.0 177.9,231.4 181.5,234.8 185.0,235.4 188.6,235.7 192.2,235.6 195.8,224.6 199.3,212.5 202.9,219.6 206.5,230.7 210.1,229.7 213.6,247.3 217.2,249.2 220.8,256.7 224.3,268.8 227.9,272.1 231.5,271.3 235.1,264.8 238.6,260.0 242.2,256.7 245.8,250.6 249.4,266.0 252.9,261.7 256.5,261.4 260.1,257.8 263.7,271.3 267.2,270.6 270.8,270.3 274.4,271.1 277.9,282.0 281.5,285.9 285.1,298.4 288.7,294.9 292.2,300.6 295.8,291.7 299.4,285.2 303.0,290.0 306.5,286.7 310.1,293.0 313.7,292.5 317.2,292.4 320.8,295.5 324.4,299.5 328.0,298.2 331.5,309.6 335.1,312.8 338.7,295.3 342.3,295.9 345.8,293.4 349.4,284.9 353.0,263.9 356.5,263.5 360.1,274.1 363.7,269.3 367.3,255.2 370.8,251.4 374.4,252.4 378.0,266.4 381.6,266.7 385.1,267.0 388.7,260.7 392.3,268.6 395.8,271.6 399.4,268.5 403.0,264.8 406.6,264.1 410.1,254.9 413.7,243.2 417.3,232.7 420.9,223.9 424.4,235.9 428.0,225.2 431.6,226.6 435.1,238.5 438.7,226.0 442.3,219.9 445.9,228.1 449.4,220.0 453.0,224.5 456.6,212.0 460.2,205.7 463.7,198.6 467.3,228.2 470.9,235.3 474.4,226.8 478.0,222.2 481.6,222.8 485.2,238.2 488.7,221.5 492.3,221.0 495.9,220.6 499.5,240.2 503.0,227.7 506.6,214.3 510.2,215.6 513.7,216.0 517.3,215.3 520.9,195.6 524.5,198.0 528.0,202.9 531.6,178.9 535.2,201.6 538.8,200.5 542.3,226.4 545.9,218.9 549.5,215.0 553.0,206.8 556.6,217.1 560.2,218.1 563.8,207.6 567.3,215.7 570.9,213.3 574.5,204.6 578.1,204.6 581.6,223.5 585.2,209.8 588.8,197.6 592.3,186.0 595.9,180.9 599.5,177.1 603.1,177.4 606.6,175.3 610.2,158.5 613.8,153.9 617.4,159.6 620.9,155.4 624.5,147.5 628.1,166.0 631.7,183.0 635.2,192.7 638.8,183.5 642.4,168.1 645.9,170.3 649.5,158.6 653.1,145.8 656.7,141.1 660.2,146.2 663.8,149.3 667.4,145.1 671.0,139.7 674.5,139.8 678.1,161.3 681.7,163.4 685.2,166.3 688.8,170.3 692.4,156.1 696.0,156.8 699.5,143.9 703.1,163.0 706.7,159.9 710.3,164.4 713.8,151.7 717.4,148.2 721.0,121.1 724.5,123.5 728.1,127.7 731.7,145.3 735.3,110.7 738.8,155.4 742.4,174.8 746.0,178.7 749.6,150.1 753.1,140.2 756.7,109.1 760.3,95.6 763.8,133.3 767.4,137.2 771.0,125.0 774.6,105.8 778.1,98.4 781.7,91.9 785.3,103.4 788.9,88.6 792.4,73.2 796.0,92.0"/><polyline fill="none" stroke="#94a3b8" stroke-width="2" points="60.0,256.3 63.6,254.8 67.1,253.2 70.7,251.7 74.3,253.5 77.9,254.5 81.4,256.0 85.0,254.1 88.6,253.2 92.2,252.0 95.7,250.9 99.3,250.6 102.9,250.6 106.4,249.4 110.0,250.6 113.6,248.7 117.2,249.6 120.7,258.4 124.3,253.5 127.9,253.9 131.5,252.5 135.0,254.7 138.6,252.9 142.2,249.6 145.7,249.6 149.3,251.3 152.9,249.3 156.5,246.7 160.0,242.8 163.6,242.0 167.2,241.8 170.8,245.4 174.3,244.4 177.9,243.8 181.5,247.7 185.0,246.5 188.6,250.0 192.2,249.7 195.8,244.7 199.3,243.9 202.9,243.7 206.5,249.2 210.1,249.3 213.6,252.3 217.2,255.0 220.8,253.7 224.3,258.6 227.9,255.5 231.5,250.8 235.1,247.8 238.6,245.5 242.2,243.7 245.8,245.2 249.4,244.6 252.9,243.5 256.5,243.2 260.1,242.6 263.7,243.6 267.2,243.9 270.8,241.7 274.4,240.9 277.9,244.5 281.5,245.0 285.1,245.9 288.7,249.5 292.2,247.1 295.8,244.1 299.4,242.1 303.0,240.6 306.5,239.4 310.1,239.4 313.7,240.6 317.2,241.0 320.8,243.5 324.4,242.9 328.0,240.7 331.5,238.7 335.1,239.8 338.7,239.8 342.3,237.6 345.8,237.1 349.4,237.7 353.0,239.4 356.5,238.5 360.1,238.8 363.7,245.6 367.3,241.8 370.8,240.1 374.4,239.9 378.0,238.2 381.6,236.9 385.1,236.9 388.7,237.6 392.3,238.6 395.8,236.9 399.4,239.8 403.0,241.4 406.6,245.6 410.1,239.3 413.7,237.7 417.3,238.5 420.9,238.6 424.4,243.8 428.0,243.6 431.6,243.0 435.1,241.4 438.7,242.2 442.3,239.8 445.9,243.2 449.4,240.8 453.0,238.0 456.6,239.9 460.2,241.5 463.7,241.3 467.3,244.2 470.9,241.9 474.4,243.8 478.0,248.1 481.6,245.2 485.2,245.8 488.7,246.2 492.3,251.1 495.9,253.0 499.5,249.7 503.0,248.9 506.6,253.4 510.2,254.2 513.7,258.7 517.3,255.4 520.9,256.5 524.5,254.7 528.0,260.4 531.6,265.8 535.2,266.8 538.8,257.9 542.3,255.5 545.9,255.2 549.5,253.7 553.0,253.6 556.6,245.4 560.2,243.5 563.8,243.8 567.3,240.5 570.9,236.5 574.5,233.8 578.1,233.0 581.6,228.9 585.2,229.6 588.8,231.8 592.3,228.3 595.9,229.7 599.5,227.0 603.1,226.4 606.6,228.1 610.2,228.2 613.8,224.7 617.4,223.8 620.9,225.0 624.5,222.3 628.1,217.4 631.7,218.5 635.2,215.5 638.8,214.7 642.4,215.3 645.9,213.3 649.5,210.4 653.1,214.8 656.7,215.0 660.2,217.4 663.8,213.8 667.4,213.1 671.0,211.6 674.5,209.2 678.1,209.3 681.7,207.3 685.2,206.4 688.8,205.4 692.4,204.9 696.0,207.5 699.5,206.1 703.1,215.6 706.7,214.8 710.3,215.8 713.8,221.4 717.4,215.5 721.0,213.5 724.5,207.2 728.1,209.4 731.7,213.9 735.3,210.2 738.8,211.3 742.4,216.6 746.0,216.7 749.6,216.2 753.1,218.8 756.7,213.0 760.3,210.2 763.8,210.7 767.4,211.1 771.0,208.0 774.6,209.7 778.1,210.8 781.7,207.8 785.3,206.2 788.9,209.0 792.4,207.7 796.0,206.3"/>
<text x="60" y="392" font-size="11" fill="#2563eb">Price + splits</text><text x="160" y="392" font-size="11" fill="#16a34a">Total return</text><text x="250" y="392" font-size="11" fill="#64748b">SPY total return</text><text x="60" y="362" font-size="11" text-anchor="middle" fill="#64748b">2025-09</text><text x="242" y="362" font-size="11" text-anchor="middle" fill="#64748b">2025-11</text><text x="428" y="362" font-size="11" text-anchor="middle" fill="#64748b">2026-02</text><text x="614" y="362" font-size="11" text-anchor="middle" fill="#64748b">2026-04</text><text x="796" y="362" font-size="11" text-anchor="middle" fill="#64748b">2026-07</text></svg>