<svg xmlns="http://www.w3.org/2000/svg" width="720" height="360" viewBox="0 0 720 360">
  <rect width="720" height="360" fill="#fafafa"/>
  <text x="56" y="22" font-size="13" font-family="sans-serif" fill="#222">WBI total return (rebased 100) · cumulative distributions $0.00/sh · market cap n/a</text>
  <line x1="56" y1="308" x2="696" y2="308" stroke="#ccc"/>
  <line x1="56" y1="48" x2="56" y2="308" stroke="#ccc"/>
  <polyline fill="none" stroke="#2563eb" stroke-width="2" points="56.0,216.5 59.5,220.7 63.0,212.0 66.4,221.6 69.9,212.9 73.4,215.1 76.9,209.3 80.3,186.5 83.8,186.0 87.3,173.3 90.8,168.1 94.3,172.2 97.7,162.1 101.2,159.9 104.7,139.9 108.2,156.3 111.7,167.7 115.1,192.3 118.6,185.0 122.1,167.3 125.6,170.0 129.0,186.3 132.5,195.5 136.0,177.8 139.5,187.8 143.0,202.2 146.4,192.1 149.9,185.8 153.4,190.7 156.9,194.3 160.3,203.1 163.8,208.4 167.3,195.4 170.8,184.1 174.3,188.5 177.7,189.4 181.2,189.7 184.7,189.6 188.2,175.3 191.7,159.6 195.1,168.8 198.6,183.2 202.1,182.0 205.6,204.8 209.0,207.3 212.5,217.0 216.0,232.8 219.5,237.1 223.0,236.0 226.4,227.5 229.9,221.4 233.4,217.0 236.9,209.1 240.3,229.2 243.8,223.6 247.3,223.2 250.8,218.5 254.3,236.0 257.7,235.1 261.2,234.8 264.7,235.8 268.2,249.9 271.7,255.0 275.1,271.3 278.6,266.8 282.1,274.2 285.6,262.6 289.0,254.1 292.5,260.4 296.0,256.1 299.5,264.2 303.0,263.7 306.4,263.5 309.9,267.5 313.4,272.7 316.9,271.1 320.3,285.9 323.8,290.1 327.3,267.3 330.8,268.0 334.3,264.8 337.7,253.7 341.2,226.4 344.7,225.9 348.2,239.6 351.7,233.5 355.1,215.1 358.6,210.2 362.1,211.4 365.6,229.7 369.0,230.1 372.5,230.4 376.0,222.3 379.5,232.6 383.0,236.4 386.4,232.4 389.9,227.5 393.4,226.6 396.9,214.7 400.3,199.5 403.8,185.8 407.3,174.4 410.8,189.9 414.3,176.0 417.7,177.8 421.2,193.4 424.7,177.1 428.2,169.1 431.7,179.8 435.1,169.3 438.6,175.1 442.1,158.8 445.6,150.7 449.0,141.5 452.5,180.0 456.0,189.2 459.5,179.1 463.0,173.1 466.4,173.8 469.9,193.9 473.4,172.2 476.9,171.5 480.3,171.0 483.8,196.4 487.3,180.2 490.8,162.8 494.3,164.4 497.7,165.0 501.2,164.1 504.7,138.6 508.2,141.7 511.7,148.0 515.1,116.9 518.6,146.4 522.1,144.9 525.6,178.5 529.0,168.8 532.5,163.7 536.0,153.1 539.5,166.4 543.0,167.7 546.4,154.1 549.9,164.6 553.4,161.6 556.9,150.2 560.3,150.2 563.8,174.7 567.3,157.0 570.8,141.1 574.3,126.1 577.7,119.4 581.2,114.6 584.7,114.9 588.2,112.2 591.7,90.3 595.1,84.4 598.6,91.8 602.1,86.4 605.6,76.1 609.0,100.1 612.5,122.1 616.0,134.8 619.5,122.9 623.0,102.8 626.4,105.7 629.9,90.5 633.4,73.9 636.9,67.7 640.3,74.4 643.8,78.4 647.3,73.0 650.8,65.9 654.3,66.1 657.7,93.9 661.2,96.7 664.7,100.5 668.2,105.7 671.7,87.3 675.1,88.2 678.6,72.3 682.1,97.0 685.6,93.0 689.0,98.8 692.5,82.4 696.0,74.2"/>
  <polyline fill="none" stroke="#16a34a" stroke-width="2" points="56.0,216.5 59.5,220.7 63.0,212.0 66.4,221.6 69.9,212.9 73.4,215.1 76.9,209.3 80.3,186.5 83.8,186.0 87.3,173.3 90.8,168.1 94.3,172.2 97.7,162.1 101.2,159.9 104.7,139.9 108.2,156.3 111.7,167.7 115.1,192.3 118.6,185.0 122.1,167.3 125.6,170.0 129.0,186.3 132.5,195.5 136.0,177.8 139.5,187.8 143.0,202.2 146.4,192.1 149.9,185.8 153.4,190.7 156.9,194.3 160.3,203.1 163.8,208.4 167.3,195.4 170.8,184.1 174.3,188.5 177.7,189.4 181.2,189.7 184.7,189.6 188.2,175.3 191.7,159.6 195.1,168.8 198.6,183.2 202.1,182.0 205.6,204.8 209.0,207.3 212.5,217.0 216.0,232.8 219.5,237.1 223.0,236.0 226.4,227.5 229.9,221.4 233.4,217.0 236.9,209.1 240.3,229.2 243.8,223.6 247.3,223.2 250.8,218.5 254.3,236.0 257.7,235.1 261.2,234.8 264.7,235.8 268.2,249.9 271.7,255.0 275.1,271.3 278.6,266.8 282.1,274.2 285.6,262.6 289.0,254.1 292.5,260.4 296.0,256.1 299.5,264.2 303.0,263.7 306.4,263.5 309.9,267.5 313.4,272.7 316.9,271.1 320.3,285.9 323.8,290.1 327.3,267.3 330.8,268.0 334.3,264.8 337.7,253.7 341.2,226.4 344.7,225.9 348.2,239.6 351.7,233.5 355.1,215.1 358.6,210.2 362.1,211.4 365.6,229.7 369.0,230.1 372.5,230.4 376.0,222.3 379.5,232.6 383.0,236.4 386.4,232.4 389.9,227.5 393.4,226.6 396.9,214.7 400.3,199.5 403.8,185.8 407.3,174.4 410.8,189.9 414.3,176.0 417.7,177.8 421.2,193.4 424.7,177.1 428.2,169.1 431.7,179.8 435.1,169.3 438.6,175.1 442.1,158.8 445.6,150.7 449.0,141.5 452.5,180.0 456.0,189.2 459.5,179.1 463.0,173.1 466.4,173.8 469.9,193.9 473.4,172.2 476.9,171.5 480.3,171.0 483.8,196.4 487.3,180.2 490.8,162.8 494.3,164.4 497.7,165.0 501.2,164.1 504.7,138.6 508.2,141.7 511.7,148.0 515.1,116.9 518.6,146.4 522.1,144.9 525.6,178.5 529.0,168.8 532.5,163.7 536.0,153.1 539.5,166.4 543.0,167.7 546.4,154.1 549.9,164.6 553.4,161.6 556.9,150.2 560.3,150.2 563.8,174.7 567.3,157.0 570.8,141.1 574.3,126.1 577.7,119.4 581.2,114.6 584.7,114.9 588.2,112.2 591.7,90.3 595.1,84.4 598.6,91.8 602.1,86.4 605.6,76.1 609.0,100.1 612.5,122.1 616.0,134.8 619.5,122.9 623.0,102.8 626.4,105.7 629.9,90.5 633.4,73.9 636.9,67.7 640.3,74.4 643.8,78.4 647.3,73.0 650.8,65.9 654.3,66.1 657.7,93.9 661.2,96.7 664.7,100.5 668.2,105.7 671.7,87.3 675.1,88.2 678.6,72.3 682.1,97.0 685.6,93.0 689.0,98.8 692.5,82.4 696.0,74.2"/>
  <text x="60" y="62" font-size="11" fill="#2563eb">Price index</text>
  <text x="146" y="62" font-size="11" fill="#16a34a">Total return (price + distributions)</text>
  <text x="56" y="348" font-size="11" text-anchor="middle" fill="#444">2025-09</text><text x="216" y="348" font-size="11" text-anchor="middle" fill="#444">2025-11</text><text x="376" y="348" font-size="11" text-anchor="middle" fill="#444">2026-01</text><text x="536" y="348" font-size="11" text-anchor="middle" fill="#444">2026-04</text><text x="696" y="348" font-size="11" text-anchor="middle" fill="#444">2026-06</text>
</svg>
