<svg xmlns="http://www.w3.org/2000/svg" width="820" height="410" viewBox="0 0 820 410">
<rect width="820" height="410" fill="#fafafa"/><text x="78" y="22" font-size="14" font-family="sans-serif" fill="#0f172a">WBI cumulative return since 2025-09-17 | dividends reinvested</text>
<text x="78" y="40" font-size="11" font-family="sans-serif" fill="#334155">Total return +51.8% | Price-only +51.2% | logarithmic scale</text>
<text x="78" y="54" font-size="9" font-family="sans-serif" fill="#64748b">Regular $0.10 | Special $0.00 | Other $0.00 per initial share path</text>
<line x1="78" y1="332.0" x2="796" y2="332.0" stroke="#e2e8f0"/><text x="70" y="336.0" font-size="10" text-anchor="end" fill="#64748b">-21.0%</text><line x1="78" y1="287.0" x2="796" y2="287.0" stroke="#e2e8f0"/><text x="70" y="291.0" font-size="10" text-anchor="end" fill="#64748b">-10.8%</text><line x1="78" y1="244.8" x2="796" y2="244.8" stroke="#e2e8f0"/><text x="70" y="248.8" font-size="10" text-anchor="end" fill="#64748b">0%</text><line x1="78" y1="242.0" x2="796" y2="242.0" stroke="#e2e8f0"/><text x="70" y="246.0" font-size="10" text-anchor="end" fill="#64748b">+0.8%</text><line x1="78" y1="197.0" x2="796" y2="197.0" stroke="#e2e8f0"/><text x="70" y="201.0" font-size="10" text-anchor="end" fill="#64748b">+13.8%</text><line x1="78" y1="152.0" x2="796" y2="152.0" stroke="#e2e8f0"/><text x="70" y="156.0" font-size="10" text-anchor="end" fill="#64748b">+28.6%</text><line x1="78" y1="107.0" x2="796" y2="107.0" stroke="#e2e8f0"/><text x="70" y="111.0" font-size="10" text-anchor="end" fill="#64748b">+45.3%</text><line x1="78" y1="62.0" x2="796" y2="62.0" stroke="#e2e8f0"/><text x="70" y="66.0" font-size="10" text-anchor="end" fill="#64748b">+64.2%</text>
<line x1="78" y1="332" x2="796" y2="332" stroke="#cbd5e1"/>
<polyline fill="none" stroke="#2563eb" stroke-width="2" points="78.0,244.8 81.5,248.6 85.0,240.8 88.5,249.4 91.9,241.6 95.4,243.5 98.9,238.4 102.4,218.9 105.9,218.5 109.4,208.1 112.9,203.9 116.3,207.2 119.8,199.2 123.3,197.4 126.8,182.0 130.3,194.6 133.8,203.6 137.3,223.8 140.7,217.7 144.2,203.3 147.7,205.5 151.2,218.8 154.7,226.6 158.2,211.8 161.7,220.0 165.1,232.3 168.6,223.6 172.1,218.3 175.6,222.4 179.1,225.5 182.6,233.1 186.0,237.6 189.5,226.4 193.0,217.0 196.5,220.6 200.0,221.4 203.5,221.7 207.0,221.5 210.4,209.7 213.9,197.2 217.4,204.5 220.9,216.2 224.4,215.2 227.9,234.5 231.4,236.7 234.8,245.3 238.3,259.7 241.8,263.7 245.3,262.7 248.8,254.8 252.3,249.2 255.8,245.3 259.2,238.3 262.7,256.3 266.2,251.2 269.7,250.9 273.2,246.6 276.7,262.7 280.2,261.9 283.6,261.5 287.1,262.5 290.6,276.0 294.1,281.0 297.6,297.3 301.1,292.7 304.6,300.3 308.0,288.5 311.5,280.1 315.0,286.3 318.5,282.0 322.0,290.2 325.5,289.6 329.0,289.4 332.4,293.5 335.9,298.8 339.4,297.2 342.9,312.8 346.4,317.2 349.9,293.3 353.3,294.0 356.8,290.7 360.3,279.7 363.8,253.8 367.3,253.3 370.8,266.1 374.3,260.3 377.7,243.5 381.2,239.2 384.7,240.3 388.2,256.8 391.7,257.2 395.2,257.5 398.7,250.0 402.1,259.5 405.6,263.0 409.1,259.3 412.6,254.8 416.1,254.0 419.6,243.2 423.1,230.0 426.5,218.3 430.0,209.0 433.5,221.8 437.0,210.3 440.5,211.8 444.0,224.7 447.5,211.2 450.9,204.8 454.4,213.4 457.9,204.9 461.4,209.6 464.9,196.6 468.4,190.3 471.9,183.2 475.3,213.6 478.8,221.2 482.3,212.8 485.8,208.0 489.3,208.6 492.8,225.2 496.3,207.2 499.7,206.7 503.2,206.2 506.7,227.3 510.2,213.7 513.7,199.7 517.2,201.0 520.7,201.4 524.1,200.7 527.6,181.1 531.1,183.4 534.6,188.2 538.1,165.1 541.6,186.9 545.0,185.8 548.5,212.4 552.0,204.5 555.5,200.4 559.0,192.1 562.5,202.6 566.0,203.6 569.4,192.9 572.9,201.2 576.4,198.7 579.9,189.9 583.4,189.9 586.9,209.3 590.4,195.2 593.8,183.0 597.3,171.8 600.8,166.9 604.3,163.4 607.8,163.7 611.3,161.7 614.8,146.4 618.2,142.4 621.7,147.4 625.2,143.7 628.7,136.8 632.2,153.2 635.7,168.9 639.2,178.2 642.6,169.4 646.1,155.1 649.6,157.1 653.1,146.6 656.6,135.4 660.1,131.3 663.6,135.7 667.0,138.4 670.5,134.8 674.0,130.1 677.5,130.2 681.0,148.9 684.5,150.8 688.0,153.4 691.4,157.1 694.9,144.3 698.4,145.0 701.9,134.3 705.4,151.1 708.9,148.3 712.3,152.3 715.8,141.0 719.3,138.0 722.8,115.3 726.3,117.2 729.8,120.6 733.3,135.5 736.7,106.8 740.2,144.3 743.7,161.9 747.2,165.5 750.7,139.7 754.2,131.2 757.7,105.6 761.1,95.0 764.6,125.3 768.1,128.6 771.6,118.5 775.1,103.0 778.6,97.2 782.1,92.1 785.5,101.1 789.0,89.7 792.5,78.1 796.0,92.2"/><polyline fill="none" stroke="#16a34a" stroke-width="3" points="78.0,244.8 81.5,248.6 85.0,240.8 88.5,249.4 91.9,241.6 95.4,243.5 98.9,238.4 102.4,218.9 105.9,218.5 109.4,208.1 112.9,203.9 116.3,207.2 119.8,199.2 123.3,197.4 126.8,182.0 130.3,194.6 133.8,203.6 137.3,223.8 140.7,217.7 144.2,203.3 147.7,205.5 151.2,218.8 154.7,226.6 158.2,211.8 161.7,220.0 165.1,232.3 168.6,223.6 172.1,218.3 175.6,222.4 179.1,225.5 182.6,233.1 186.0,237.6 189.5,226.4 193.0,217.0 196.5,220.6 200.0,221.4 203.5,221.7 207.0,221.5 210.4,209.7 213.9,197.2 217.4,204.5 220.9,216.2 224.4,215.2 227.9,234.5 231.4,236.7 234.8,245.3 238.3,259.7 241.8,263.7 245.3,262.7 248.8,254.8 252.3,249.2 255.8,245.3 259.2,238.3 262.7,256.3 266.2,251.2 269.7,250.9 273.2,246.6 276.7,262.7 280.2,261.9 283.6,261.5 287.1,262.5 290.6,276.0 294.1,281.0 297.6,297.3 301.1,292.7 304.6,300.3 308.0,288.5 311.5,280.1 315.0,286.3 318.5,282.0 322.0,290.2 325.5,289.6 329.0,289.4 332.4,293.5 335.9,298.8 339.4,297.2 342.9,312.8 346.4,317.2 349.9,293.3 353.3,294.0 356.8,290.7 360.3,279.7 363.8,253.8 367.3,253.3 370.8,266.1 374.3,260.3 377.7,243.5 381.2,239.2 384.7,240.3 388.2,256.8 391.7,257.2 395.2,257.5 398.7,250.0 402.1,259.5 405.6,263.0 409.1,259.3 412.6,254.8 416.1,254.0 419.6,243.2 423.1,230.0 426.5,218.3 430.0,209.0 433.5,221.8 437.0,210.3 440.5,211.8 444.0,224.7 447.5,211.2 450.9,204.8 454.4,213.4 457.9,204.9 461.4,209.6 464.9,196.6 468.4,190.3 471.9,183.2 475.3,213.6 478.8,221.2 482.3,212.1 485.8,207.2 489.3,207.8 492.8,224.4 496.3,206.5 499.7,205.9 503.2,205.5 506.7,226.6 510.2,213.0 513.7,199.0 517.2,200.3 520.7,200.7 524.1,200.0 527.6,180.3 531.1,182.6 534.6,187.4 538.1,164.4 541.6,186.2 545.0,185.1 548.5,211.6 552.0,203.7 555.5,199.7 559.0,191.3 562.5,201.9 566.0,202.9 569.4,192.2 572.9,200.4 576.4,198.0 579.9,189.1 583.4,189.1 586.9,208.5 590.4,194.4 593.8,182.2 597.3,171.1 600.8,166.2 604.3,162.7 607.8,162.9 611.3,161.0 614.8,145.7 618.2,141.6 621.7,146.7 625.2,143.0 628.7,136.1 632.2,152.4 635.7,168.1 639.2,177.5 642.6,168.7 646.1,154.3 649.6,156.4 653.1,145.8 656.6,134.6 660.1,130.6 663.6,135.0 667.0,137.6 670.5,134.0 674.0,129.4 677.5,129.5 681.0,148.2 684.5,150.1 688.0,152.7 691.4,156.4 694.9,143.6 698.4,144.2 701.9,132.9 705.4,149.7 708.9,147.0 712.3,151.0 715.8,139.7 719.3,136.7 722.8,113.9 726.3,115.9 729.8,119.3 733.3,134.1 736.7,105.5 740.2,143.0 743.7,160.5 747.2,164.1 750.7,138.4 754.2,129.8 757.7,104.3 761.1,93.7 764.6,124.0 768.1,127.2 771.6,117.1 775.1,101.6 778.6,95.8 782.1,90.8 785.5,99.8 789.0,88.3 792.5,76.8 796.0,90.9"/>
<text x="78" y="392" font-size="11" fill="#16a34a">Total return +51.8%</text><text x="268" y="392" font-size="11" fill="#2563eb">Price-only +51.2%</text><text x="78" y="362" font-size="11" text-anchor="middle" fill="#64748b">2025-09</text><text x="256" y="362" font-size="11" text-anchor="middle" fill="#64748b">2025-11</text><text x="437" y="362" font-size="11" text-anchor="middle" fill="#64748b">2026-02</text><text x="618" y="362" font-size="11" text-anchor="middle" fill="#64748b">2026-04</text><text x="796" y="362" font-size="11" text-anchor="middle" fill="#64748b">2026-07</text></svg>