<svg xmlns="http://www.w3.org/2000/svg" width="820" height="410" viewBox="0 0 820 410">
<rect width="820" height="410" fill="#fafafa"/><text x="78" y="22" font-size="14" font-family="sans-serif" fill="#0f172a">WBI cumulative return since 2025-09-17 | dividends reinvested</text>
<text x="78" y="40" font-size="11" font-family="sans-serif" fill="#334155">Total return +56.2% | Price-only +55.7% | logarithmic scale</text>
<text x="78" y="54" font-size="9" font-family="sans-serif" fill="#64748b">Regular $0.10 | Special $0.00 | Other $0.00 per initial share path</text>
<line x1="78" y1="332.0" x2="796" y2="332.0" stroke="#e2e8f0"/><text x="70" y="336.0" font-size="10" text-anchor="end" fill="#64748b">-21.0%</text><line x1="78" y1="287.0" x2="796" y2="287.0" stroke="#e2e8f0"/><text x="70" y="291.0" font-size="10" text-anchor="end" fill="#64748b">-10.7%</text><line x1="78" y1="245.9" x2="796" y2="245.9" stroke="#e2e8f0"/><text x="70" y="249.9" font-size="10" text-anchor="end" fill="#64748b">0%</text><line x1="78" y1="242.0" x2="796" y2="242.0" stroke="#e2e8f0"/><text x="70" y="246.0" font-size="10" text-anchor="end" fill="#64748b">+1.1%</text><line x1="78" y1="197.0" x2="796" y2="197.0" stroke="#e2e8f0"/><text x="70" y="201.0" font-size="10" text-anchor="end" fill="#64748b">+14.4%</text><line x1="78" y1="152.0" x2="796" y2="152.0" stroke="#e2e8f0"/><text x="70" y="156.0" font-size="10" text-anchor="end" fill="#64748b">+29.4%</text><line x1="78" y1="107.0" x2="796" y2="107.0" stroke="#e2e8f0"/><text x="70" y="111.0" font-size="10" text-anchor="end" fill="#64748b">+46.4%</text><line x1="78" y1="62.0" x2="796" y2="62.0" stroke="#e2e8f0"/><text x="70" y="66.0" font-size="10" text-anchor="end" fill="#64748b">+65.7%</text>
<line x1="78" y1="332" x2="796" y2="332" stroke="#cbd5e1"/>
<polyline fill="none" stroke="#2563eb" stroke-width="2" points="78.0,245.9 81.4,249.6 84.8,241.9 88.2,250.4 91.5,242.7 94.9,244.6 98.3,239.6 101.7,220.3 105.1,219.9 108.5,209.6 111.9,205.5 115.3,208.8 118.6,200.8 122.0,199.1 125.4,183.9 128.8,196.3 132.2,205.2 135.6,225.1 139.0,219.2 142.3,204.9 145.7,207.1 149.1,220.2 152.5,227.9 155.9,213.3 159.3,221.4 162.7,233.5 166.1,225.0 169.4,219.7 172.8,223.8 176.2,226.8 179.6,234.3 183.0,238.8 186.4,227.7 189.8,218.4 193.2,222.0 196.5,222.7 199.9,223.0 203.3,222.9 206.7,211.2 210.1,198.8 213.5,206.0 216.9,217.7 220.2,216.6 223.6,235.7 227.0,237.9 230.4,246.4 233.8,260.6 237.2,264.6 240.6,263.6 244.0,255.8 247.3,250.2 250.7,246.4 254.1,239.4 257.5,257.3 260.9,252.2 264.3,251.9 267.7,247.7 271.0,263.6 274.4,262.7 277.8,262.4 281.2,263.4 284.6,276.7 288.0,281.6 291.4,297.8 294.8,293.2 298.1,300.7 301.5,289.1 304.9,280.7 308.3,286.9 311.7,282.6 315.1,290.7 318.5,290.1 321.8,290.0 325.2,293.9 328.6,299.3 332.0,297.6 335.4,313.0 338.8,317.4 342.2,293.8 345.6,294.5 348.9,291.2 352.3,280.4 355.7,254.8 359.1,254.3 362.5,266.9 365.9,261.2 369.3,244.6 372.7,240.4 376.0,241.5 379.4,257.7 382.8,258.1 386.2,258.4 389.6,251.1 393.0,260.4 396.4,263.9 399.7,260.2 403.1,255.8 406.5,255.0 409.9,244.3 413.3,231.2 416.7,219.7 420.1,210.5 423.5,223.2 426.8,211.8 430.2,213.3 433.6,226.0 437.0,212.7 440.4,206.3 443.8,214.9 447.2,206.5 450.5,211.1 453.9,198.3 457.3,192.0 460.7,185.1 464.1,215.0 467.5,222.6 470.9,214.3 474.3,209.5 477.6,210.1 481.0,226.5 484.4,208.8 487.8,208.2 491.2,207.8 494.6,228.6 498.0,215.2 501.3,201.4 504.7,202.6 508.1,203.1 511.5,202.3 514.9,182.9 518.3,185.2 521.7,190.0 525.1,167.2 528.4,188.7 531.8,187.6 535.2,213.9 538.6,206.0 542.0,202.1 545.4,193.8 548.8,204.2 552.2,205.2 555.5,194.6 558.9,202.8 562.3,200.4 565.7,191.6 569.1,191.6 572.5,210.8 575.9,196.9 579.2,184.8 582.6,173.8 586.0,169.0 589.4,165.5 592.8,165.7 596.2,163.8 599.6,148.7 603.0,144.7 606.3,149.7 609.7,146.1 613.1,139.2 616.5,155.4 619.9,170.9 623.3,180.1 626.7,171.4 630.0,157.3 633.4,159.3 636.8,148.9 640.2,137.8 643.6,133.8 647.0,138.1 650.4,140.8 653.8,137.2 657.1,132.6 660.5,132.7 663.9,151.2 667.3,153.0 670.7,155.6 674.1,159.3 677.5,146.7 680.8,147.3 684.2,136.7 687.6,153.3 691.0,150.6 694.4,154.5 697.8,143.4 701.2,140.4 704.6,117.9 707.9,119.9 711.3,123.3 714.7,137.9 718.1,109.6 721.5,146.7 724.9,164.0 728.3,167.5 731.7,142.1 735.0,133.7 738.4,108.4 741.8,97.9 745.2,127.8 748.6,131.1 752.0,121.1 755.4,105.8 758.7,100.1 762.1,95.1 765.5,104.0 768.9,92.7 772.3,81.2 775.7,95.2 779.1,91.6 782.5,93.3 785.8,92.9 789.2,85.3 792.6,77.9 796.0,84.7"/><polyline fill="none" stroke="#16a34a" stroke-width="3" points="78.0,245.9 81.4,249.6 84.8,241.9 88.2,250.4 91.5,242.7 94.9,244.6 98.3,239.6 101.7,220.3 105.1,219.9 108.5,209.6 111.9,205.5 115.3,208.8 118.6,200.8 122.0,199.1 125.4,183.9 128.8,196.3 132.2,205.2 135.6,225.1 139.0,219.2 142.3,204.9 145.7,207.1 149.1,220.2 152.5,227.9 155.9,213.3 159.3,221.4 162.7,233.5 166.1,225.0 169.4,219.7 172.8,223.8 176.2,226.8 179.6,234.3 183.0,238.8 186.4,227.7 189.8,218.4 193.2,222.0 196.5,222.7 199.9,223.0 203.3,222.9 206.7,211.2 210.1,198.8 213.5,206.0 216.9,217.7 220.2,216.6 223.6,235.7 227.0,237.9 230.4,246.4 233.8,260.6 237.2,264.6 240.6,263.6 244.0,255.8 247.3,250.2 250.7,246.4 254.1,239.4 257.5,257.3 260.9,252.2 264.3,251.9 267.7,247.7 271.0,263.6 274.4,262.7 277.8,262.4 281.2,263.4 284.6,276.7 288.0,281.6 291.4,297.8 294.8,293.2 298.1,300.7 301.5,289.1 304.9,280.7 308.3,286.9 311.7,282.6 315.1,290.7 318.5,290.1 321.8,290.0 325.2,293.9 328.6,299.3 332.0,297.6 335.4,313.0 338.8,317.4 342.2,293.8 345.6,294.5 348.9,291.2 352.3,280.4 355.7,254.8 359.1,254.3 362.5,266.9 365.9,261.2 369.3,244.6 372.7,240.4 376.0,241.5 379.4,257.7 382.8,258.1 386.2,258.4 389.6,251.1 393.0,260.4 396.4,263.9 399.7,260.2 403.1,255.8 406.5,255.0 409.9,244.3 413.3,231.2 416.7,219.7 420.1,210.5 423.5,223.2 426.8,211.8 430.2,213.3 433.6,226.0 437.0,212.7 440.4,206.3 443.8,214.9 447.2,206.5 450.5,211.1 453.9,198.3 457.3,192.0 460.7,185.1 464.1,215.0 467.5,222.6 470.9,213.6 474.3,208.8 477.6,209.3 481.0,225.8 484.4,208.0 487.8,207.5 491.2,207.0 494.6,227.9 498.0,214.4 501.3,200.6 504.7,201.9 508.1,202.3 511.5,201.6 514.9,182.2 518.3,184.5 521.7,189.2 525.1,166.4 528.4,188.0 531.8,186.9 535.2,213.1 538.6,205.3 542.0,201.3 545.4,193.1 548.8,203.5 552.2,204.5 555.5,193.9 558.9,202.0 562.3,199.6 565.7,190.9 569.1,190.9 572.5,210.1 575.9,196.1 579.2,184.1 582.6,173.0 586.0,168.2 589.4,164.8 592.8,165.0 596.2,163.1 599.6,148.0 603.0,144.0 606.3,149.0 609.7,145.3 613.1,138.5 616.5,154.7 619.9,170.2 623.3,179.4 626.7,170.7 630.0,156.5 633.4,158.5 636.8,148.1 640.2,137.1 643.6,133.0 647.0,137.4 650.4,140.0 653.8,136.5 657.1,131.9 660.5,132.0 663.9,150.5 667.3,152.3 670.7,154.9 674.1,158.5 677.5,145.9 680.8,146.5 684.2,135.4 687.6,152.0 691.0,149.3 694.4,153.2 697.8,142.1 701.2,139.1 704.6,116.6 707.9,118.5 711.3,121.9 714.7,136.6 718.1,108.3 721.5,145.3 724.9,162.6 728.3,166.2 731.7,140.8 735.0,132.3 738.4,107.1 741.8,96.6 745.2,126.5 748.6,129.8 752.0,119.8 755.4,104.5 758.7,98.8 762.1,93.8 765.5,102.6 768.9,91.4 772.3,79.9 775.7,93.9 779.1,90.3 782.5,92.0 785.8,91.6 789.2,84.0 792.6,76.6 796.0,83.4"/>
<text x="78" y="392" font-size="11" fill="#16a34a">Total return +56.2%</text><text x="268" y="392" font-size="11" fill="#2563eb">Price-only +55.7%</text><text x="78" y="362" font-size="11" text-anchor="middle" fill="#64748b">2025-09</text><text x="258" y="362" font-size="11" text-anchor="middle" fill="#64748b">2025-12</text><text x="437" y="362" font-size="11" text-anchor="middle" fill="#64748b">2026-02</text><text x="616" y="362" font-size="11" text-anchor="middle" fill="#64748b">2026-05</text><text x="796" y="362" font-size="11" text-anchor="middle" fill="#64748b">2026-07</text></svg>