<svg xmlns="http://www.w3.org/2000/svg" width="820" height="410" viewBox="0 0 820 410">
<rect width="820" height="410" fill="#fafafa"/><text x="78" y="22" font-size="14" font-family="sans-serif" fill="#0f172a">ACHR cumulative return since 2020-12-18 | dividends reinvested</text>
<text x="78" y="40" font-size="11" font-family="sans-serif" fill="#334155">Total return -46.7% | Price-only -46.7% | logarithmic scale</text>
<text x="78" y="54" font-size="9" font-family="sans-serif" fill="#64748b">Regular $0.00 | Special $0.00 | Other $0.00 per initial share path</text>
<line x1="78" y1="332.0" x2="796" y2="332.0" stroke="#e2e8f0"/><text x="70" y="336.0" font-size="10" text-anchor="end" fill="#64748b">-85.8%</text><line x1="78" y1="287.0" x2="796" y2="287.0" stroke="#e2e8f0"/><text x="70" y="291.0" font-size="10" text-anchor="end" fill="#64748b">-78.0%</text><line x1="78" y1="242.0" x2="796" y2="242.0" stroke="#e2e8f0"/><text x="70" y="246.0" font-size="10" text-anchor="end" fill="#64748b">-65.8%</text><line x1="78" y1="197.0" x2="796" y2="197.0" stroke="#e2e8f0"/><text x="70" y="201.0" font-size="10" text-anchor="end" fill="#64748b">-47.0%</text><line x1="78" y1="152.0" x2="796" y2="152.0" stroke="#e2e8f0"/><text x="70" y="156.0" font-size="10" text-anchor="end" fill="#64748b">-17.7%</text><line x1="78" y1="132.0" x2="796" y2="132.0" stroke="#e2e8f0"/><text x="70" y="136.0" font-size="10" text-anchor="end" fill="#64748b">0%</text><line x1="78" y1="107.0" x2="796" y2="107.0" stroke="#e2e8f0"/><text x="70" y="111.0" font-size="10" text-anchor="end" fill="#64748b">+27.6%</text><line x1="78" y1="62.0" x2="796" y2="62.0" stroke="#e2e8f0"/><text x="70" y="66.0" font-size="10" text-anchor="end" fill="#64748b">+98.0%</text>
<line x1="78" y1="332" x2="796" y2="332" stroke="#cbd5e1"/>
<polyline fill="none" stroke="#2563eb" stroke-width="2" points="78.0,132.0 78.5,131.0 79.0,131.5 79.5,131.1 80.1,131.4 80.6,127.3 81.1,129.4 81.6,129.6 82.1,131.1 82.6,130.8 83.1,130.0 83.6,130.1 84.2,129.4 84.7,128.0 85.2,128.0 85.7,127.1 86.2,126.9 86.7,126.8 87.2,127.5 87.8,126.1 88.3,126.7 88.8,126.1 89.3,125.7 89.8,124.5 90.3,125.9 90.8,129.1 91.3,127.3 91.9,128.2 92.4,125.0 92.9,124.3 93.4,123.9 93.9,121.9 94.4,119.0 94.9,119.0 95.4,119.7 96.0,99.6 96.5,96.6 97.0,100.5 97.5,96.2 98.0,82.9 98.5,76.5 99.0,81.7 99.6,91.0 100.1,101.7 100.6,100.8 101.1,111.6 101.6,113.8 102.1,106.0 102.6,110.0 103.1,119.9 103.7,124.1 104.2,121.6 104.7,124.5 105.2,122.6 105.7,124.3 106.2,120.0 106.7,120.5 107.3,122.7 107.8,126.1 108.3,127.3 108.8,128.1 109.3,124.9 109.8,125.5 110.3,128.2 110.8,130.3 111.4,131.3 111.9,130.1 112.4,128.7 112.9,130.5 113.4,131.2 113.9,130.5 114.4,130.9 115.0,129.4 115.5,131.1 116.0,127.7 116.5,129.5 117.0,130.9 117.5,131.1 118.0,131.6 118.5,132.2 119.1,132.5 119.6,133.0 120.1,133.1 120.6,132.8 121.1,132.5 121.6,132.8 122.1,132.8 122.7,132.7 123.2,132.6 123.7,132.7 124.2,132.3 124.7,132.7 125.2,133.0 125.7,132.8 126.2,132.9 126.8,133.1 127.3,133.1 127.8,133.1 128.3,133.2 128.8,133.2 129.3,133.0 129.8,132.9 130.3,132.8 130.9,132.4 131.4,132.7 131.9,132.5 132.4,132.6 132.9,132.5 133.4,132.2 133.9,132.8 134.5,132.4 135.0,132.5 135.5,132.6 136.0,132.4 136.5,132.5 137.0,132.1 137.5,131.0 138.0,130.0 138.6,130.0 139.1,131.8 139.6,132.0 140.1,132.5 140.6,132.2 141.1,132.4 141.6,132.4 142.2,132.3 142.7,132.4 143.2,132.3 143.7,132.0 144.2,131.9 144.7,132.0 145.2,132.3 145.7,132.1 146.3,132.1 146.8,132.1 147.3,132.3 147.8,132.3 148.3,132.6 148.8,132.5 149.3,132.6 149.9,132.6 150.4,132.7 150.9,132.7 151.4,132.7 151.9,132.7 152.4,132.8 152.9,133.0 153.4,132.9 154.0,132.9 154.5,132.9 155.0,132.9 155.5,133.0 156.0,132.5 156.5,132.4 157.0,132.6 157.5,132.9 158.1,132.7 158.6,132.6 159.1,132.7 159.6,132.7 160.1,132.2 160.6,132.1 161.1,132.0 161.7,131.8 162.2,132.0 162.7,131.9 163.2,132.2 163.7,132.3 164.2,132.2 164.7,132.0 165.2,132.1 165.8,132.1 166.3,131.7 166.8,131.8 167.3,131.7 167.8,131.7 168.3,131.8 168.8,131.9 169.4,131.7 169.9,131.7 170.4,131.8 170.9,134.0 171.4,134.5 171.9,136.2 172.4,129.7 172.9,138.1 173.5,132.5 174.0,137.1 174.5,145.7 175.0,142.6 175.5,144.2 176.0,138.2 176.5,139.3 177.1,141.7 177.6,141.7 178.1,142.5 178.6,143.8 179.1,149.7 179.6,156.5 180.1,156.9 180.6,155.6 181.2,153.5 181.7,154.5 182.2,154.7 182.7,154.5 183.2,158.1 183.7,163.5 184.2,166.8 184.8,169.4 185.3,172.9 185.8,173.0 186.3,171.3 186.8,172.6 187.3,180.0 187.8,178.5 188.3,195.0 188.9,190.4 189.4,189.3 189.9,177.2 190.4,175.8 190.9,175.2 191.4,175.5 191.9,179.2 192.4,181.6 193.0,183.0 193.5,184.9 194.0,182.3 194.5,188.6 195.0,187.5 195.5,184.2 196.0,182.7 196.6,184.2 197.1,185.4 197.6,183.2 198.1,187.5 198.6,185.2 199.1,181.5 199.6,182.8 200.1,181.3 200.7,182.7 201.2,173.9 201.7,181.0 202.2,176.8 202.7,175.8 203.2,165.5 203.7,167.8 204.3,163.8 204.8,165.9 205.3,168.8 205.8,164.2 206.3,165.5 206.8,173.6 207.3,174.7 207.8,177.7 208.4,184.2 208.9,170.3 209.4,173.5 209.9,173.3 210.4,176.4 210.9,184.0 211.4,183.3 212.0,181.1 212.5,184.2 213.0,194.2 213.5,201.9 214.0,210.3 214.5,220.6 215.0,217.0 215.5,222.5 216.1,225.3 216.6,226.6 217.1,236.4 217.6,234.9 218.1,236.4 218.6,244.3 219.1,251.3 219.6,248.7 220.2,257.1 220.7,259.6 221.2,261.0 221.7,250.0 222.2,249.4 222.7,256.1 223.2,263.2 223.8,254.0 224.3,253.0 224.8,249.7 225.3,250.4 225.8,253.3 226.3,258.2 226.8,259.9 227.3,250.4 227.9,252.3 228.4,257.8 228.9,257.1 229.4,257.1 229.9,261.7 230.4,252.0 230.9,250.0 231.5,250.0 232.0,250.0 232.5,253.0 233.0,260.6 233.5,259.2 234.0,254.0 234.5,245.9 235.0,241.0 235.6,245.0 236.1,249.4 236.6,258.2 237.1,244.3 237.6,228.7 238.1,220.3 238.6,215.1 239.2,214.6 239.7,211.5 240.2,207.9 240.7,203.1 241.2,200.5 241.7,210.8 242.2,199.9 242.7,205.4 243.3,206.7 243.8,207.9 244.3,205.8 244.8,204.6 245.3,213.3 245.8,222.5 246.3,226.6 246.9,225.0 247.4,227.9 247.9,223.8 248.4,223.8 248.9,226.3 249.4,224.5 249.9,224.0 250.4,230.8 251.0,232.7 251.5,228.7 252.0,233.0 252.5,233.5 253.0,210.6 253.5,211.0 254.0,211.2 254.5,216.5 255.1,225.0 255.6,227.6 256.1,230.3 256.6,239.8 257.1,244.0 257.6,246.8 258.1,239.5 258.7,225.6 259.2,226.1 259.7,225.6 260.2,230.0 260.7,233.8 261.2,239.8 261.7,239.2 262.2,244.3 262.8,245.0 263.3,240.4 263.8,223.0 264.3,221.0 264.8,218.9 265.3,206.0 265.8,206.9 266.4,211.9 266.9,219.8 267.4,210.6 267.9,223.5 268.4,222.8 268.9,225.8 269.4,226.1 269.9,216.0 270.5,217.2 271.0,217.7 271.5,211.2 272.0,215.1 272.5,215.6 273.0,223.8 273.5,230.5 274.1,245.6 274.6,257.8 275.1,252.3 275.6,258.9 276.1,251.0 276.6,258.2 277.1,248.4 277.6,244.3 278.2,254.7 278.7,254.7 279.2,255.4 279.7,256.1 280.2,248.4 280.7,246.5 281.2,242.2 281.7,242.8 282.3,240.1 282.8,250.0 283.3,248.1 283.8,245.9 284.3,235.2 284.8,227.6 285.3,224.5 285.9,221.3 286.4,218.9 286.9,215.8 287.4,212.4 287.9,216.3 288.4,216.0 288.9,216.5 289.4,219.8 290.0,207.3 290.5,206.0 291.0,211.0 291.5,210.1 292.0,226.3 292.5,228.4 293.0,234.9 293.6,234.7 294.1,233.8 294.6,231.1 295.1,230.0 295.6,236.9 296.1,237.2 296.6,237.5 297.1,238.1 297.7,240.4 298.2,243.4 298.7,239.8 299.2,239.2 299.7,240.4 300.2,239.2 300.7,242.8 301.3,248.1 301.8,247.5 302.3,249.4 302.8,254.7 303.3,255.0 303.8,254.7 304.3,255.4 304.8,258.9 305.4,262.1 305.9,264.3 306.4,262.8 306.9,260.3 307.4,267.0 307.9,269.3 308.4,265.1 309.0,257.5 309.5,260.6 310.0,259.9 310.5,268.1 311.0,268.9 311.5,268.9 312.0,265.4 312.5,263.9 313.1,265.4 313.6,260.6 314.1,262.5 314.6,265.4 315.1,266.6 315.6,263.6 316.1,264.7 316.6,258.9 317.2,265.8 317.7,262.5 318.2,259.2 318.7,260.3 319.2,264.7 319.7,268.1 320.2,267.4 320.8,264.7 321.3,267.4 321.8,265.1 322.3,274.1 322.8,259.9 323.3,263.2 323.8,268.1 324.3,266.2 324.9,270.9 325.4,272.1 325.9,274.9 326.4,279.2 326.9,277.9 327.4,274.1 327.9,273.3 328.5,283.2 329.0,283.2 329.5,273.3 330.0,270.5 330.5,272.1 331.0,280.9 331.5,284.1 332.0,286.3 332.6,289.2 333.1,289.6 333.6,289.2 334.1,291.1 334.6,291.1 335.1,292.1 335.6,290.6 336.2,296.1 336.7,299.2 337.2,300.2 337.7,305.7 338.2,307.4 338.7,317.5 339.2,309.1 339.7,306.2 340.3,303.5 340.8,300.2 341.3,291.1 341.8,289.2 342.3,282.3 342.8,279.2 343.3,280.1 343.8,279.6 344.4,267.0 344.9,269.7 345.4,270.5 345.9,257.8 346.4,262.8 346.9,261.7 347.4,266.6 348.0,271.7 348.5,270.9 349.0,271.3 349.5,262.5 350.0,263.9 350.5,258.5 351.0,256.4 351.5,250.0 352.1,258.5 352.6,260.3 353.1,262.1 353.6,265.1 354.1,267.7 354.6,266.6 355.1,267.7 355.7,261.7 356.2,258.5 356.7,263.6 357.2,261.7 357.7,267.0 358.2,263.2 358.7,259.9 359.2,265.1 359.8,261.7 360.3,256.8 360.8,258.5 361.3,258.5 361.8,252.0 362.3,254.4 362.8,255.4 363.4,260.6 363.9,261.0 364.4,252.7 364.9,263.2 365.4,257.8 365.9,264.7 366.4,267.0 366.9,272.1 367.5,276.2 368.0,270.1 368.5,273.3 369.0,272.5 369.5,272.9 370.0,272.5 370.5,273.3 371.1,267.0 371.6,263.9 372.1,259.9 372.6,263.6 373.1,265.4 373.6,268.5 374.1,270.9 374.6,269.3 375.2,267.4 375.7,276.6 376.2,282.7 376.7,289.6 377.2,295.1 377.7,300.2 378.2,299.7 378.7,300.8 379.3,299.7 379.8,302.9 380.3,305.7 380.8,306.2 381.3,302.9 381.8,297.6 382.3,295.1 382.9,299.2 383.4,293.5 383.9,295.1 384.4,290.6 384.9,289.6 385.4,284.5 385.9,278.8 386.4,279.2 387.0,296.6 387.5,279.2 388.0,269.7 388.5,257.5 389.0,250.0 389.5,246.8 390.0,247.1 390.6,250.4 391.1,253.7 391.6,258.5 392.1,253.0 392.6,252.7 393.1,255.7 393.6,255.4 394.1,256.4 394.7,255.0 395.2,251.0 395.7,250.4 396.2,253.0 396.7,246.8 397.2,231.6 397.7,215.8 398.3,211.2 398.8,214.6 399.3,225.8 399.8,226.8 400.3,233.3 400.8,239.5 401.3,242.8 401.8,244.3 402.4,242.5 402.9,229.5 403.4,225.0 403.9,222.5 404.4,219.8 404.9,205.8 405.4,217.9 405.9,209.5 406.5,206.2 407.0,213.9 407.5,204.1 408.0,200.7 408.5,204.8 409.0,197.1 409.5,197.3 410.1,209.3 410.6,207.7 411.1,213.0 411.6,211.7 412.1,207.3 412.6,205.6 413.1,212.1 413.6,207.3 414.2,172.2 414.7,175.0 415.2,177.2 415.7,183.3 416.2,191.1 416.7,190.5 417.2,189.1 417.8,188.2 418.3,187.0 418.8,188.0 419.3,174.9 419.8,178.2 420.3,185.0 420.8,184.2 421.3,181.3 421.9,168.2 422.4,167.5 422.9,165.0 423.4,174.9 423.9,187.8 424.4,177.6 424.9,169.7 425.5,169.2 426.0,168.7 426.5,176.4 427.0,178.5 427.5,178.9 428.0,177.9 428.5,171.0 429.0,168.7 429.6,175.5 430.1,176.3 430.6,174.1 431.1,176.6 431.6,179.5 432.1,180.5 432.6,184.4 433.2,192.7 433.7,198.9 434.2,202.1 434.7,206.9 435.2,204.6 435.7,203.7 436.2,201.5 436.7,206.0 437.3,207.1 437.8,203.5 438.3,204.6 438.8,201.1 439.3,199.3 439.8,195.0 440.3,195.4 440.8,200.5 441.4,200.5 441.9,198.7 442.4,198.3 442.9,202.3 443.4,200.3 443.9,205.4 444.4,206.4 445.0,203.5 445.5,212.4 446.0,209.5 446.5,214.6 447.0,209.3 447.5,207.9 448.0,208.8 448.5,200.1 449.1,193.5 449.6,195.8 450.1,195.6 450.6,198.5 451.1,197.5 451.6,203.3 452.1,198.7 452.7,184.4 453.2,176.6 453.7,179.7 454.2,178.7 454.7,180.0 455.2,185.7 455.7,183.7 456.2,182.0 456.8,185.2 457.3,184.9 457.8,181.6 458.3,184.4 458.8,179.0 459.3,175.7 459.8,180.7 460.4,180.5 460.9,179.8 461.4,172.2 461.9,173.6 462.4,178.2 462.9,175.0 463.4,169.7 463.9,172.7 464.5,176.9 465.0,173.2 465.5,180.0 466.0,176.9 466.5,176.6 467.0,176.4 467.5,178.0 468.1,180.0 468.6,181.6 469.1,187.3 469.6,191.3 470.1,190.2 470.6,192.4 471.1,192.0 471.6,194.6 472.2,195.2 472.7,198.3 473.2,199.3 473.7,203.5 474.2,201.9 474.7,202.3 475.2,201.5 475.7,196.5 476.3,194.4 476.8,202.5 477.3,203.1 477.8,204.8 478.3,199.3 478.8,202.9 479.3,206.2 479.9,203.7 480.4,203.9 480.9,209.7 481.4,201.5 481.9,204.6 482.4,199.1 482.9,194.8 483.4,191.3 484.0,199.5 484.5,193.7 485.0,193.9 485.5,197.9 486.0,200.1 486.5,201.7 487.0,205.4 487.6,206.7 488.1,204.3 488.6,206.9 489.1,208.6 489.6,206.2 490.1,212.4 490.6,213.9 491.1,220.3 491.7,219.3 492.2,218.4 492.7,211.7 493.2,207.3 493.7,200.7 494.2,199.9 494.7,205.0 495.3,202.3 495.8,205.4 496.3,207.1 496.8,201.5 497.3,200.5 497.8,205.0 498.3,203.7 498.8,207.1 499.4,208.2 499.9,210.8 500.4,213.5 500.9,217.4 501.4,215.6 501.9,218.1 502.4,218.1 502.9,218.6 503.5,218.6 504.0,221.5 504.5,220.8 505.0,225.3 505.5,228.4 506.0,229.2 506.5,231.4 507.1,231.4 507.6,234.9 508.1,227.4 508.6,225.3 509.1,226.3 509.6,226.1 510.1,225.0 510.6,223.8 511.2,228.7 511.7,225.6 512.2,225.3 512.7,226.6 513.2,226.6 513.7,229.2 514.2,232.7 514.8,231.6 515.3,234.9 515.8,232.2 516.3,225.6 516.8,228.4 517.3,230.5 517.8,233.5 518.3,234.4 518.9,239.8 519.4,241.6 519.9,245.9 520.4,245.3 520.9,248.4 521.4,254.7 521.9,248.4 522.5,246.2 523.0,245.3 523.5,246.8 524.0,240.7 524.5,241.3 525.0,243.4 525.5,245.3 526.0,245.3 526.6,243.4 527.1,246.2 527.6,247.8 528.1,249.4 528.6,253.0 529.1,251.0 529.6,234.7 530.2,232.4 530.7,234.7 531.2,234.9 531.7,239.5 532.2,238.7 532.7,241.6 533.2,233.0 533.7,220.3 534.3,215.8 534.8,213.9 535.3,218.6 535.8,216.0 536.3,211.9 536.8,201.7 537.3,201.7 537.8,195.0 538.4,201.3 538.9,206.2 539.4,210.3 539.9,211.2 540.4,212.1 540.9,216.3 541.4,215.8 542.0,209.3 542.5,214.4 543.0,219.8 543.5,221.3 544.0,225.3 544.5,225.0 545.0,227.9 545.5,227.6 546.1,229.7 546.6,225.8 547.1,235.2 547.6,237.8 548.1,236.4 548.6,238.1 549.1,232.7 549.7,229.7 550.2,231.4 550.7,235.8 551.2,230.3 551.7,234.1 552.2,230.3 552.7,227.4 553.2,231.6 553.8,237.5 554.3,238.1 554.8,242.2 555.3,242.8 555.8,243.4 556.3,246.8 556.8,251.7 557.4,245.9 557.9,245.3 558.4,245.3 558.9,245.3 559.4,245.0 559.9,251.3 560.4,250.7 560.9,253.0 561.5,253.3 562.0,253.0 562.5,253.7 563.0,253.7 563.5,258.2 564.0,257.8 564.5,252.7 565.0,254.0 565.6,256.1 566.1,248.4 566.6,257.1 567.1,255.7 567.6,249.1 568.1,254.0 568.6,256.1 569.2,257.1 569.7,252.3 570.2,252.3 570.7,251.3 571.2,248.7 571.7,248.7 572.2,248.7 572.7,253.0 573.3,245.3 573.8,251.0 574.3,252.0 574.8,251.7 575.3,241.9 575.8,243.4 576.3,245.9 576.9,250.0 577.4,245.9 577.9,247.1 578.4,246.8 578.9,248.1 579.4,239.2 579.9,228.4 580.4,213.3 581.0,209.9 581.5,218.6 582.0,218.4 582.5,222.8 583.0,215.6 583.5,200.1 584.0,201.5 584.6,187.8 585.1,183.3 585.6,161.4 586.1,165.0 586.6,153.5 587.1,136.2 587.6,163.9 588.1,171.9 588.7,168.8 589.2,159.0 589.7,151.0 590.2,156.9 590.7,158.2 591.2,162.7 591.7,165.8 592.3,149.7 592.8,144.0 593.3,141.4 593.8,143.0 594.3,149.3 594.8,137.0 595.3,138.2 595.8,123.8 596.4,118.9 596.9,120.2 597.4,131.1 597.9,134.3 598.4,136.2 598.9,117.3 599.4,117.8 599.9,120.6 600.5,126.9 601.0,142.8 601.5,151.6 602.0,151.8 602.5,144.9 603.0,141.4 603.5,144.5 604.1,134.8 604.6,134.1 605.1,132.8 605.6,132.0 606.1,140.7 606.6,140.7 607.1,142.0 607.6,139.4 608.2,137.5 608.7,140.4 609.2,140.6 609.7,140.8 610.2,140.8 610.7,142.2 611.2,129.6 611.8,139.2 612.3,138.4 612.8,136.7 613.3,128.1 613.8,125.0 614.3,131.1 614.8,130.3 615.3,141.0 615.9,150.1 616.4,157.5 616.9,151.9 617.4,155.6 617.9,143.8 618.4,156.1 618.9,154.8 619.5,152.9 620.0,160.3 620.5,160.9 621.0,171.2 621.5,171.0 622.0,161.4 622.5,164.6 623.0,155.8 623.6,150.6 624.1,153.1 624.6,150.0 625.1,151.0 625.6,145.7 626.1,143.3 626.6,144.9 627.1,152.9 627.7,156.3 628.2,164.5 628.7,166.6 629.2,168.8 629.7,165.3 630.2,169.1 630.7,180.7 631.3,173.3 631.8,177.4 632.3,162.1 632.8,167.9 633.3,167.8 633.8,164.6 634.3,166.5 634.8,167.5 635.4,164.9 635.9,166.2 636.4,163.4 636.9,153.9 637.4,147.6 637.9,147.2 638.4,148.0 639.0,142.6 639.5,150.4 640.0,148.6 640.5,139.2 641.0,146.1 641.5,148.0 642.0,147.6 642.5,145.2 643.1,144.7 643.6,141.6 644.1,120.4 644.6,114.4 645.1,111.4 645.6,102.5 646.1,118.3 646.7,119.2 647.2,123.6 647.7,125.7 648.2,125.8 648.7,122.7 649.2,122.4 649.7,125.7 650.2,130.8 650.8,134.5 651.3,134.6 651.8,135.4 652.3,138.4 652.8,129.7 653.3,119.5 653.8,118.4 654.4,111.6 654.9,115.3 655.4,131.8 655.9,127.9 656.4,132.5 656.9,129.6 657.4,131.3 657.9,131.7 658.5,124.5 659.0,132.4 659.5,125.8 660.0,127.0 660.5,123.3 661.0,132.9 661.5,131.9 662.0,129.9 662.6,131.5 663.1,128.0 663.6,127.2 664.1,124.0 664.6,126.6 665.1,123.8 665.6,119.5 666.2,112.2 666.7,101.7 667.2,102.5 667.7,114.3 668.2,122.0 668.7,118.6 669.2,122.0 669.7,120.0 670.3,123.9 670.8,129.7 671.3,130.1 671.8,131.4 672.3,135.4 672.8,127.4 673.3,128.3 673.9,133.2 674.4,133.7 674.9,134.6 675.4,136.5 675.9,129.1 676.4,129.6 676.9,131.8 677.4,133.5 678.0,133.2 678.5,139.2 679.0,139.9 679.5,138.2 680.0,135.1 680.5,138.3 681.0,139.4 681.6,140.8 682.1,140.2 682.6,143.0 683.1,147.1 683.6,149.7 684.1,148.9 684.6,148.3 685.1,148.2 685.7,149.2 686.2,151.4 686.7,148.4 687.2,145.4 687.7,141.1 688.2,141.2 688.7,142.5 689.2,139.7 689.8,133.1 690.3,136.4 690.8,131.7 691.3,134.7 691.8,138.8 692.3,139.3 692.8,135.3 693.4,136.1 693.9,133.6 694.4,129.8 694.9,116.7 695.4,99.9 695.9,109.0 696.4,109.1 696.9,107.5 697.5,113.2 698.0,106.6 698.5,104.6 699.0,104.6 699.5,114.1 700.0,119.7 700.5,113.2 701.1,118.2 701.6,123.2 702.1,122.7 702.6,119.2 703.1,118.8 703.6,120.6 704.1,120.2 704.6,122.3 705.2,119.9 705.7,127.5 706.2,136.3 706.7,136.2 707.2,143.8 707.7,152.3 708.2,148.9 708.8,143.2 709.3,146.5 709.8,155.0 710.3,156.1 710.8,162.2 711.3,159.7 711.8,161.6 712.3,170.1 712.9,165.6 713.4,162.0 713.9,162.8 714.4,161.3 714.9,157.3 715.4,161.7 715.9,159.1 716.5,150.1 717.0,143.0 717.5,147.1 718.0,147.0 718.5,146.8 719.0,149.9 719.5,147.6 720.0,150.8 720.6,156.7 721.1,155.2 721.6,160.1 722.1,156.9 722.6,152.5 723.1,149.5 723.6,152.8 724.1,152.9 724.7,156.0 725.2,158.5 725.7,160.5 726.2,160.9 726.7,152.9 727.2,147.6 727.7,144.5 728.3,149.3 728.8,145.8 729.3,144.7 729.8,144.1 730.3,148.7 730.8,143.5 731.3,144.1 731.8,144.1 732.4,146.5 732.9,148.7 733.4,142.4 733.9,147.0 734.4,154.2 734.9,153.4 735.4,158.1 736.0,162.1 736.5,165.5 737.0,167.5 737.5,165.3 738.0,169.0 738.5,176.0 739.0,163.9 739.5,162.9 740.1,165.8 740.6,168.7 741.1,171.8 741.6,171.6 742.1,170.9 742.6,168.7 743.1,164.9 743.7,169.2 744.2,168.8 744.7,165.5 745.2,166.8 745.7,162.8 746.2,166.5 746.7,160.9 747.2,172.4 747.8,171.8 748.3,176.4 748.8,179.7 749.3,175.5 749.8,178.7 750.3,176.9 750.8,181.5 751.3,183.5 751.9,182.0 752.4,179.2 752.9,183.8 753.4,183.8 753.9,188.2 754.4,185.9 754.9,192.7 755.5,191.8 756.0,195.4 756.5,200.9 757.0,203.9 757.5,199.3 758.0,198.5 758.5,194.4 759.0,192.2 759.6,196.0 760.1,191.4 760.6,196.3 761.1,194.8 761.6,193.9 762.1,189.8 762.6,183.0 763.2,182.7 763.7,182.2 764.2,182.2 764.7,185.0 765.2,183.0 765.7,188.0 766.2,189.3 766.7,185.7 767.3,186.8 767.8,191.1 768.3,188.6 768.8,186.3 769.3,188.0 769.8,186.8 770.3,177.2 770.9,179.3 771.4,176.1 771.9,175.2 772.4,177.6 772.9,175.5 773.4,177.2 773.9,183.2 774.4,185.4 775.0,185.6 775.5,187.8 776.0,182.0 776.5,178.0 777.0,175.7 777.5,175.0 778.0,171.0 778.6,171.0 779.1,170.6 779.6,172.1 780.1,175.3 780.6,177.7 781.1,192.2 781.6,188.7 782.1,196.3 782.7,201.7 783.2,196.7 783.7,201.1 784.2,192.0 784.7,194.1 785.2,195.6 785.7,191.6 786.2,194.2 786.8,197.7 787.3,201.7 787.8,207.1 788.3,205.4 788.8,209.5 789.3,208.4 789.8,204.3 790.4,203.1 790.9,195.4 791.4,204.1 791.9,206.0 792.4,205.8 792.9,208.4 793.4,212.4 793.9,205.8 794.5,207.3 795.0,213.7 795.5,214.9 796.0,196.5"/><polyline fill="none" stroke="#16a34a" stroke-width="3" points="78.0,132.0 78.5,131.0 79.0,131.5 79.5,131.1 80.1,131.4 80.6,127.3 81.1,129.4 81.6,129.6 82.1,131.1 82.6,130.8 83.1,130.0 83.6,130.1 84.2,129.4 84.7,128.0 85.2,128.0 85.7,127.1 86.2,126.9 86.7,126.8 87.2,127.5 87.8,126.1 88.3,126.7 88.8,126.1 89.3,125.7 89.8,124.5 90.3,125.9 90.8,129.1 91.3,127.3 91.9,128.2 92.4,125.0 92.9,124.3 93.4,123.9 93.9,121.9 94.4,119.0 94.9,119.0 95.4,119.7 96.0,99.6 96.5,96.6 97.0,100.5 97.5,96.2 98.0,82.9 98.5,76.5 99.0,81.7 99.6,91.0 100.1,101.7 100.6,100.8 101.1,111.6 101.6,113.8 102.1,106.0 102.6,110.0 103.1,119.9 103.7,124.1 104.2,121.6 104.7,124.5 105.2,122.6 105.7,124.3 106.2,120.0 106.7,120.5 107.3,122.7 107.8,126.1 108.3,127.3 108.8,128.1 109.3,124.9 109.8,125.5 110.3,128.2 110.8,130.3 111.4,131.3 111.9,130.1 112.4,128.7 112.9,130.5 113.4,131.2 113.9,130.5 114.4,130.9 115.0,129.4 115.5,131.1 116.0,127.7 116.5,129.5 117.0,130.9 117.5,131.1 118.0,131.6 118.5,132.2 119.1,132.5 119.6,133.0 120.1,133.1 120.6,132.8 121.1,132.5 121.6,132.8 122.1,132.8 122.7,132.7 123.2,132.6 123.7,132.7 124.2,132.3 124.7,132.7 125.2,133.0 125.7,132.8 126.2,132.9 126.8,133.1 127.3,133.1 127.8,133.1 128.3,133.2 128.8,133.2 129.3,133.0 129.8,132.9 130.3,132.8 130.9,132.4 131.4,132.7 131.9,132.5 132.4,132.6 132.9,132.5 133.4,132.2 133.9,132.8 134.5,132.4 135.0,132.5 135.5,132.6 136.0,132.4 136.5,132.5 137.0,132.1 137.5,131.0 138.0,130.0 138.6,130.0 139.1,131.8 139.6,132.0 140.1,132.5 140.6,132.2 141.1,132.4 141.6,132.4 142.2,132.3 142.7,132.4 143.2,132.3 143.7,132.0 144.2,131.9 144.7,132.0 145.2,132.3 145.7,132.1 146.3,132.1 146.8,132.1 147.3,132.3 147.8,132.3 148.3,132.6 148.8,132.5 149.3,132.6 149.9,132.6 150.4,132.7 150.9,132.7 151.4,132.7 151.9,132.7 152.4,132.8 152.9,133.0 153.4,132.9 154.0,132.9 154.5,132.9 155.0,132.9 155.5,133.0 156.0,132.5 156.5,132.4 157.0,132.6 157.5,132.9 158.1,132.7 158.6,132.6 159.1,132.7 159.6,132.7 160.1,132.2 160.6,132.1 161.1,132.0 161.7,131.8 162.2,132.0 162.7,131.9 163.2,132.2 163.7,132.3 164.2,132.2 164.7,132.0 165.2,132.1 165.8,132.1 166.3,131.7 166.8,131.8 167.3,131.7 167.8,131.7 168.3,131.8 168.8,131.9 169.4,131.7 169.9,131.7 170.4,131.8 170.9,134.0 171.4,134.5 171.9,136.2 172.4,129.7 172.9,138.1 173.5,132.5 174.0,137.1 174.5,145.7 175.0,142.6 175.5,144.2 176.0,138.2 176.5,139.3 177.1,141.7 177.6,141.7 178.1,142.5 178.6,143.8 179.1,149.7 179.6,156.5 180.1,156.9 180.6,155.6 181.2,153.5 181.7,154.5 182.2,154.7 182.7,154.5 183.2,158.1 183.7,163.5 184.2,166.8 184.8,169.4 185.3,172.9 185.8,173.0 186.3,171.3 186.8,172.6 187.3,180.0 187.8,178.5 188.3,195.0 188.9,190.4 189.4,189.3 189.9,177.2 190.4,175.8 190.9,175.2 191.4,175.5 191.9,179.2 192.4,181.6 193.0,183.0 193.5,184.9 194.0,182.3 194.5,188.6 195.0,187.5 195.5,184.2 196.0,182.7 196.6,184.2 197.1,185.4 197.6,183.2 198.1,187.5 198.6,185.2 199.1,181.5 199.6,182.8 200.1,181.3 200.7,182.7 201.2,173.9 201.7,181.0 202.2,176.8 202.7,175.8 203.2,165.5 203.7,167.8 204.3,163.8 204.8,165.9 205.3,168.8 205.8,164.2 206.3,165.5 206.8,173.6 207.3,174.7 207.8,177.7 208.4,184.2 208.9,170.3 209.4,173.5 209.9,173.3 210.4,176.4 210.9,184.0 211.4,183.3 212.0,181.1 212.5,184.2 213.0,194.2 213.5,201.9 214.0,210.3 214.5,220.6 215.0,217.0 215.5,222.5 216.1,225.3 216.6,226.6 217.1,236.4 217.6,234.9 218.1,236.4 218.6,244.3 219.1,251.3 219.6,248.7 220.2,257.1 220.7,259.6 221.2,261.0 221.7,250.0 222.2,249.4 222.7,256.1 223.2,263.2 223.8,254.0 224.3,253.0 224.8,249.7 225.3,250.4 225.8,253.3 226.3,258.2 226.8,259.9 227.3,250.4 227.9,252.3 228.4,257.8 228.9,257.1 229.4,257.1 229.9,261.7 230.4,252.0 230.9,250.0 231.5,250.0 232.0,250.0 232.5,253.0 233.0,260.6 233.5,259.2 234.0,254.0 234.5,245.9 235.0,241.0 235.6,245.0 236.1,249.4 236.6,258.2 237.1,244.3 237.6,228.7 238.1,220.3 238.6,215.1 239.2,214.6 239.7,211.5 240.2,207.9 240.7,203.1 241.2,200.5 241.7,210.8 242.2,199.9 242.7,205.4 243.3,206.7 243.8,207.9 244.3,205.8 244.8,204.6 245.3,213.3 245.8,222.5 246.3,226.6 246.9,225.0 247.4,227.9 247.9,223.8 248.4,223.8 248.9,226.3 249.4,224.5 249.9,224.0 250.4,230.8 251.0,232.7 251.5,228.7 252.0,233.0 252.5,233.5 253.0,210.6 253.5,211.0 254.0,211.2 254.5,216.5 255.1,225.0 255.6,227.6 256.1,230.3 256.6,239.8 257.1,244.0 257.6,246.8 258.1,239.5 258.7,225.6 259.2,226.1 259.7,225.6 260.2,230.0 260.7,233.8 261.2,239.8 261.7,239.2 262.2,244.3 262.8,245.0 263.3,240.4 263.8,223.0 264.3,221.0 264.8,218.9 265.3,206.0 265.8,206.9 266.4,211.9 266.9,219.8 267.4,210.6 267.9,223.5 268.4,222.8 268.9,225.8 269.4,226.1 269.9,216.0 270.5,217.2 271.0,217.7 271.5,211.2 272.0,215.1 272.5,215.6 273.0,223.8 273.5,230.5 274.1,245.6 274.6,257.8 275.1,252.3 275.6,258.9 276.1,251.0 276.6,258.2 277.1,248.4 277.6,244.3 278.2,254.7 278.7,254.7 279.2,255.4 279.7,256.1 280.2,248.4 280.7,246.5 281.2,242.2 281.7,242.8 282.3,240.1 282.8,250.0 283.3,248.1 283.8,245.9 284.3,235.2 284.8,227.6 285.3,224.5 285.9,221.3 286.4,218.9 286.9,215.8 287.4,212.4 287.9,216.3 288.4,216.0 288.9,216.5 289.4,219.8 290.0,207.3 290.5,206.0 291.0,211.0 291.5,210.1 292.0,226.3 292.5,228.4 293.0,234.9 293.6,234.7 294.1,233.8 294.6,231.1 295.1,230.0 295.6,236.9 296.1,237.2 296.6,237.5 297.1,238.1 297.7,240.4 298.2,243.4 298.7,239.8 299.2,239.2 299.7,240.4 300.2,239.2 300.7,242.8 301.3,248.1 301.8,247.5 302.3,249.4 302.8,254.7 303.3,255.0 303.8,254.7 304.3,255.4 304.8,258.9 305.4,262.1 305.9,264.3 306.4,262.8 306.9,260.3 307.4,267.0 307.9,269.3 308.4,265.1 309.0,257.5 309.5,260.6 310.0,259.9 310.5,268.1 311.0,268.9 311.5,268.9 312.0,265.4 312.5,263.9 313.1,265.4 313.6,260.6 314.1,262.5 314.6,265.4 315.1,266.6 315.6,263.6 316.1,264.7 316.6,258.9 317.2,265.8 317.7,262.5 318.2,259.2 318.7,260.3 319.2,264.7 319.7,268.1 320.2,267.4 320.8,264.7 321.3,267.4 321.8,265.1 322.3,274.1 322.8,259.9 323.3,263.2 323.8,268.1 324.3,266.2 324.9,270.9 325.4,272.1 325.9,274.9 326.4,279.2 326.9,277.9 327.4,274.1 327.9,273.3 328.5,283.2 329.0,283.2 329.5,273.3 330.0,270.5 330.5,272.1 331.0,280.9 331.5,284.1 332.0,286.3 332.6,289.2 333.1,289.6 333.6,289.2 334.1,291.1 334.6,291.1 335.1,292.1 335.6,290.6 336.2,296.1 336.7,299.2 337.2,300.2 337.7,305.7 338.2,307.4 338.7,317.5 339.2,309.1 339.7,306.2 340.3,303.5 340.8,300.2 341.3,291.1 341.8,289.2 342.3,282.3 342.8,279.2 343.3,280.1 343.8,279.6 344.4,267.0 344.9,269.7 345.4,270.5 345.9,257.8 346.4,262.8 346.9,261.7 347.4,266.6 348.0,271.7 348.5,270.9 349.0,271.3 349.5,262.5 350.0,263.9 350.5,258.5 351.0,256.4 351.5,250.0 352.1,258.5 352.6,260.3 353.1,262.1 353.6,265.1 354.1,267.7 354.6,266.6 355.1,267.7 355.7,261.7 356.2,258.5 356.7,263.6 357.2,261.7 357.7,267.0 358.2,263.2 358.7,259.9 359.2,265.1 359.8,261.7 360.3,256.8 360.8,258.5 361.3,258.5 361.8,252.0 362.3,254.4 362.8,255.4 363.4,260.6 363.9,261.0 364.4,252.7 364.9,263.2 365.4,257.8 365.9,264.7 366.4,267.0 366.9,272.1 367.5,276.2 368.0,270.1 368.5,273.3 369.0,272.5 369.5,272.9 370.0,272.5 370.5,273.3 371.1,267.0 371.6,263.9 372.1,259.9 372.6,263.6 373.1,265.4 373.6,268.5 374.1,270.9 374.6,269.3 375.2,267.4 375.7,276.6 376.2,282.7 376.7,289.6 377.2,295.1 377.7,300.2 378.2,299.7 378.7,300.8 379.3,299.7 379.8,302.9 380.3,305.7 380.8,306.2 381.3,302.9 381.8,297.6 382.3,295.1 382.9,299.2 383.4,293.5 383.9,295.1 384.4,290.6 384.9,289.6 385.4,284.5 385.9,278.8 386.4,279.2 387.0,296.6 387.5,279.2 388.0,269.7 388.5,257.5 389.0,250.0 389.5,246.8 390.0,247.1 390.6,250.4 391.1,253.7 391.6,258.5 392.1,253.0 392.6,252.7 393.1,255.7 393.6,255.4 394.1,256.4 394.7,255.0 395.2,251.0 395.7,250.4 396.2,253.0 396.7,246.8 397.2,231.6 397.7,215.8 398.3,211.2 398.8,214.6 399.3,225.8 399.8,226.8 400.3,233.3 400.8,239.5 401.3,242.8 401.8,244.3 402.4,242.5 402.9,229.5 403.4,225.0 403.9,222.5 404.4,219.8 404.9,205.8 405.4,217.9 405.9,209.5 406.5,206.2 407.0,213.9 407.5,204.1 408.0,200.7 408.5,204.8 409.0,197.1 409.5,197.3 410.1,209.3 410.6,207.7 411.1,213.0 411.6,211.7 412.1,207.3 412.6,205.6 413.1,212.1 413.6,207.3 414.2,172.2 414.7,175.0 415.2,177.2 415.7,183.3 416.2,191.1 416.7,190.5 417.2,189.1 417.8,188.2 418.3,187.0 418.8,188.0 419.3,174.9 419.8,178.2 420.3,185.0 420.8,184.2 421.3,181.3 421.9,168.2 422.4,167.5 422.9,165.0 423.4,174.9 423.9,187.8 424.4,177.6 424.9,169.7 425.5,169.2 426.0,168.7 426.5,176.4 427.0,178.5 427.5,178.9 428.0,177.9 428.5,171.0 429.0,168.7 429.6,175.5 430.1,176.3 430.6,174.1 431.1,176.6 431.6,179.5 432.1,180.5 432.6,184.4 433.2,192.7 433.7,198.9 434.2,202.1 434.7,206.9 435.2,204.6 435.7,203.7 436.2,201.5 436.7,206.0 437.3,207.1 437.8,203.5 438.3,204.6 438.8,201.1 439.3,199.3 439.8,195.0 440.3,195.4 440.8,200.5 441.4,200.5 441.9,198.7 442.4,198.3 442.9,202.3 443.4,200.3 443.9,205.4 444.4,206.4 445.0,203.5 445.5,212.4 446.0,209.5 446.5,214.6 447.0,209.3 447.5,207.9 448.0,208.8 448.5,200.1 449.1,193.5 449.6,195.8 450.1,195.6 450.6,198.5 451.1,197.5 451.6,203.3 452.1,198.7 452.7,184.4 453.2,176.6 453.7,179.7 454.2,178.7 454.7,180.0 455.2,185.7 455.7,183.7 456.2,182.0 456.8,185.2 457.3,184.9 457.8,181.6 458.3,184.4 458.8,179.0 459.3,175.7 459.8,180.7 460.4,180.5 460.9,179.8 461.4,172.2 461.9,173.6 462.4,178.2 462.9,175.0 463.4,169.7 463.9,172.7 464.5,176.9 465.0,173.2 465.5,180.0 466.0,176.9 466.5,176.6 467.0,176.4 467.5,178.0 468.1,180.0 468.6,181.6 469.1,187.3 469.6,191.3 470.1,190.2 470.6,192.4 471.1,192.0 471.6,194.6 472.2,195.2 472.7,198.3 473.2,199.3 473.7,203.5 474.2,201.9 474.7,202.3 475.2,201.5 475.7,196.5 476.3,194.4 476.8,202.5 477.3,203.1 477.8,204.8 478.3,199.3 478.8,202.9 479.3,206.2 479.9,203.7 480.4,203.9 480.9,209.7 481.4,201.5 481.9,204.6 482.4,199.1 482.9,194.8 483.4,191.3 484.0,199.5 484.5,193.7 485.0,193.9 485.5,197.9 486.0,200.1 486.5,201.7 487.0,205.4 487.6,206.7 488.1,204.3 488.6,206.9 489.1,208.6 489.6,206.2 490.1,212.4 490.6,213.9 491.1,220.3 491.7,219.3 492.2,218.4 492.7,211.7 493.2,207.3 493.7,200.7 494.2,199.9 494.7,205.0 495.3,202.3 495.8,205.4 496.3,207.1 496.8,201.5 497.3,200.5 497.8,205.0 498.3,203.7 498.8,207.1 499.4,208.2 499.9,210.8 500.4,213.5 500.9,217.4 501.4,215.6 501.9,218.1 502.4,218.1 502.9,218.6 503.5,218.6 504.0,221.5 504.5,220.8 505.0,225.3 505.5,228.4 506.0,229.2 506.5,231.4 507.1,231.4 507.6,234.9 508.1,227.4 508.6,225.3 509.1,226.3 509.6,226.1 510.1,225.0 510.6,223.8 511.2,228.7 511.7,225.6 512.2,225.3 512.7,226.6 513.2,226.6 513.7,229.2 514.2,232.7 514.8,231.6 515.3,234.9 515.8,232.2 516.3,225.6 516.8,228.4 517.3,230.5 517.8,233.5 518.3,234.4 518.9,239.8 519.4,241.6 519.9,245.9 520.4,245.3 520.9,248.4 521.4,254.7 521.9,248.4 522.5,246.2 523.0,245.3 523.5,246.8 524.0,240.7 524.5,241.3 525.0,243.4 525.5,245.3 526.0,245.3 526.6,243.4 527.1,246.2 527.6,247.8 528.1,249.4 528.6,253.0 529.1,251.0 529.6,234.7 530.2,232.4 530.7,234.7 531.2,234.9 531.7,239.5 532.2,238.7 532.7,241.6 533.2,233.0 533.7,220.3 534.3,215.8 534.8,213.9 535.3,218.6 535.8,216.0 536.3,211.9 536.8,201.7 537.3,201.7 537.8,195.0 538.4,201.3 538.9,206.2 539.4,210.3 539.9,211.2 540.4,212.1 540.9,216.3 541.4,215.8 542.0,209.3 542.5,214.4 543.0,219.8 543.5,221.3 544.0,225.3 544.5,225.0 545.0,227.9 545.5,227.6 546.1,229.7 546.6,225.8 547.1,235.2 547.6,237.8 548.1,236.4 548.6,238.1 549.1,232.7 549.7,229.7 550.2,231.4 550.7,235.8 551.2,230.3 551.7,234.1 552.2,230.3 552.7,227.4 553.2,231.6 553.8,237.5 554.3,238.1 554.8,242.2 555.3,242.8 555.8,243.4 556.3,246.8 556.8,251.7 557.4,245.9 557.9,245.3 558.4,245.3 558.9,245.3 559.4,245.0 559.9,251.3 560.4,250.7 560.9,253.0 561.5,253.3 562.0,253.0 562.5,253.7 563.0,253.7 563.5,258.2 564.0,257.8 564.5,252.7 565.0,254.0 565.6,256.1 566.1,248.4 566.6,257.1 567.1,255.7 567.6,249.1 568.1,254.0 568.6,256.1 569.2,257.1 569.7,252.3 570.2,252.3 570.7,251.3 571.2,248.7 571.7,248.7 572.2,248.7 572.7,253.0 573.3,245.3 573.8,251.0 574.3,252.0 574.8,251.7 575.3,241.9 575.8,243.4 576.3,245.9 576.9,250.0 577.4,245.9 577.9,247.1 578.4,246.8 578.9,248.1 579.4,239.2 579.9,228.4 580.4,213.3 581.0,209.9 581.5,218.6 582.0,218.4 582.5,222.8 583.0,215.6 583.5,200.1 584.0,201.5 584.6,187.8 585.1,183.3 585.6,161.4 586.1,165.0 586.6,153.5 587.1,136.2 587.6,163.9 588.1,171.9 588.7,168.8 589.2,159.0 589.7,151.0 590.2,156.9 590.7,158.2 591.2,162.7 591.7,165.8 592.3,149.7 592.8,144.0 593.3,141.4 593.8,143.0 594.3,149.3 594.8,137.0 595.3,138.2 595.8,123.8 596.4,118.9 596.9,120.2 597.4,131.1 597.9,134.3 598.4,136.2 598.9,117.3 599.4,117.8 599.9,120.6 600.5,126.9 601.0,142.8 601.5,151.6 602.0,151.8 602.5,144.9 603.0,141.4 603.5,144.5 604.1,134.8 604.6,134.1 605.1,132.8 605.6,132.0 606.1,140.7 606.6,140.7 607.1,142.0 607.6,139.4 608.2,137.5 608.7,140.4 609.2,140.6 609.7,140.8 610.2,140.8 610.7,142.2 611.2,129.6 611.8,139.2 612.3,138.4 612.8,136.7 613.3,128.1 613.8,125.0 614.3,131.1 614.8,130.3 615.3,141.0 615.9,150.1 616.4,157.5 616.9,151.9 617.4,155.6 617.9,143.8 618.4,156.1 618.9,154.8 619.5,152.9 620.0,160.3 620.5,160.9 621.0,171.2 621.5,171.0 622.0,161.4 622.5,164.6 623.0,155.8 623.6,150.6 624.1,153.1 624.6,150.0 625.1,151.0 625.6,145.7 626.1,143.3 626.6,144.9 627.1,152.9 627.7,156.3 628.2,164.5 628.7,166.6 629.2,168.8 629.7,165.3 630.2,169.1 630.7,180.7 631.3,173.3 631.8,177.4 632.3,162.1 632.8,167.9 633.3,167.8 633.8,164.6 634.3,166.5 634.8,167.5 635.4,164.9 635.9,166.2 636.4,163.4 636.9,153.9 637.4,147.6 637.9,147.2 638.4,148.0 639.0,142.6 639.5,150.4 640.0,148.6 640.5,139.2 641.0,146.1 641.5,148.0 642.0,147.6 642.5,145.2 643.1,144.7 643.6,141.6 644.1,120.4 644.6,114.4 645.1,111.4 645.6,102.5 646.1,118.3 646.7,119.2 647.2,123.6 647.7,125.7 648.2,125.8 648.7,122.7 649.2,122.4 649.7,125.7 650.2,130.8 650.8,134.5 651.3,134.6 651.8,135.4 652.3,138.4 652.8,129.7 653.3,119.5 653.8,118.4 654.4,111.6 654.9,115.3 655.4,131.8 655.9,127.9 656.4,132.5 656.9,129.6 657.4,131.3 657.9,131.7 658.5,124.5 659.0,132.4 659.5,125.8 660.0,127.0 660.5,123.3 661.0,132.9 661.5,131.9 662.0,129.9 662.6,131.5 663.1,128.0 663.6,127.2 664.1,124.0 664.6,126.6 665.1,123.8 665.6,119.5 666.2,112.2 666.7,101.7 667.2,102.5 667.7,114.3 668.2,122.0 668.7,118.6 669.2,122.0 669.7,120.0 670.3,123.9 670.8,129.7 671.3,130.1 671.8,131.4 672.3,135.4 672.8,127.4 673.3,128.3 673.9,133.2 674.4,133.7 674.9,134.6 675.4,136.5 675.9,129.1 676.4,129.6 676.9,131.8 677.4,133.5 678.0,133.2 678.5,139.2 679.0,139.9 679.5,138.2 680.0,135.1 680.5,138.3 681.0,139.4 681.6,140.8 682.1,140.2 682.6,143.0 683.1,147.1 683.6,149.7 684.1,148.9 684.6,148.3 685.1,148.2 685.7,149.2 686.2,151.4 686.7,148.4 687.2,145.4 687.7,141.1 688.2,141.2 688.7,142.5 689.2,139.7 689.8,133.1 690.3,136.4 690.8,131.7 691.3,134.7 691.8,138.8 692.3,139.3 692.8,135.3 693.4,136.1 693.9,133.6 694.4,129.8 694.9,116.7 695.4,99.9 695.9,109.0 696.4,109.1 696.9,107.5 697.5,113.2 698.0,106.6 698.5,104.6 699.0,104.6 699.5,114.1 700.0,119.7 700.5,113.2 701.1,118.2 701.6,123.2 702.1,122.7 702.6,119.2 703.1,118.8 703.6,120.6 704.1,120.2 704.6,122.3 705.2,119.9 705.7,127.5 706.2,136.3 706.7,136.2 707.2,143.8 707.7,152.3 708.2,148.9 708.8,143.2 709.3,146.5 709.8,155.0 710.3,156.1 710.8,162.2 711.3,159.7 711.8,161.6 712.3,170.1 712.9,165.6 713.4,162.0 713.9,162.8 714.4,161.3 714.9,157.3 715.4,161.7 715.9,159.1 716.5,150.1 717.0,143.0 717.5,147.1 718.0,147.0 718.5,146.8 719.0,149.9 719.5,147.6 720.0,150.8 720.6,156.7 721.1,155.2 721.6,160.1 722.1,156.9 722.6,152.5 723.1,149.5 723.6,152.8 724.1,152.9 724.7,156.0 725.2,158.5 725.7,160.5 726.2,160.9 726.7,152.9 727.2,147.6 727.7,144.5 728.3,149.3 728.8,145.8 729.3,144.7 729.8,144.1 730.3,148.7 730.8,143.5 731.3,144.1 731.8,144.1 732.4,146.5 732.9,148.7 733.4,142.4 733.9,147.0 734.4,154.2 734.9,153.4 735.4,158.1 736.0,162.1 736.5,165.5 737.0,167.5 737.5,165.3 738.0,169.0 738.5,176.0 739.0,163.9 739.5,162.9 740.1,165.8 740.6,168.7 741.1,171.8 741.6,171.6 742.1,170.9 742.6,168.7 743.1,164.9 743.7,169.2 744.2,168.8 744.7,165.5 745.2,166.8 745.7,162.8 746.2,166.5 746.7,160.9 747.2,172.4 747.8,171.8 748.3,176.4 748.8,179.7 749.3,175.5 749.8,178.7 750.3,176.9 750.8,181.5 751.3,183.5 751.9,182.0 752.4,179.2 752.9,183.8 753.4,183.8 753.9,188.2 754.4,185.9 754.9,192.7 755.5,191.8 756.0,195.4 756.5,200.9 757.0,203.9 757.5,199.3 758.0,198.5 758.5,194.4 759.0,192.2 759.6,196.0 760.1,191.4 760.6,196.3 761.1,194.8 761.6,193.9 762.1,189.8 762.6,183.0 763.2,182.7 763.7,182.2 764.2,182.2 764.7,185.0 765.2,183.0 765.7,188.0 766.2,189.3 766.7,185.7 767.3,186.8 767.8,191.1 768.3,188.6 768.8,186.3 769.3,188.0 769.8,186.8 770.3,177.2 770.9,179.3 771.4,176.1 771.9,175.2 772.4,177.6 772.9,175.5 773.4,177.2 773.9,183.2 774.4,185.4 775.0,185.6 775.5,187.8 776.0,182.0 776.5,178.0 777.0,175.7 777.5,175.0 778.0,171.0 778.6,171.0 779.1,170.6 779.6,172.1 780.1,175.3 780.6,177.7 781.1,192.2 781.6,188.7 782.1,196.3 782.7,201.7 783.2,196.7 783.7,201.1 784.2,192.0 784.7,194.1 785.2,195.6 785.7,191.6 786.2,194.2 786.8,197.7 787.3,201.7 787.8,207.1 788.3,205.4 788.8,209.5 789.3,208.4 789.8,204.3 790.4,203.1 790.9,195.4 791.4,204.1 791.9,206.0 792.4,205.8 792.9,208.4 793.4,212.4 793.9,205.8 794.5,207.3 795.0,213.7 795.5,214.9 796.0,196.5"/>
<text x="78" y="392" font-size="11" fill="#16a34a">Total return -46.7%</text><text x="268" y="392" font-size="11" fill="#2563eb">Price-only -46.7%</text><text x="78" y="362" font-size="11" text-anchor="middle" fill="#64748b">2020-12</text><text x="258" y="362" font-size="11" text-anchor="middle" fill="#64748b">2022-05</text><text x="437" y="362" font-size="11" text-anchor="middle" fill="#64748b">2023-10</text><text x="617" y="362" font-size="11" text-anchor="middle" fill="#64748b">2025-02</text><text x="796" y="362" font-size="11" text-anchor="middle" fill="#64748b">2026-07</text></svg>