<svg xmlns="http://www.w3.org/2000/svg" width="820" height="410" viewBox="0 0 820 410">
<rect width="820" height="410" fill="#fafafa"/><text x="78" y="22" font-size="14" font-family="sans-serif" fill="#0f172a">CRWV cumulative return since 2025-03-28 | dividends reinvested</text>
<text x="78" y="40" font-size="11" font-family="sans-serif" fill="#334155">Total return +83.0% | Price-only +83.0% | logarithmic scale</text>
<text x="78" y="54" font-size="9" font-family="sans-serif" fill="#64748b">Regular $0.00 | Special $0.00 | Other $0.00 per initial share path</text>
<line x1="78" y1="332.0" x2="796" y2="332.0" stroke="#e2e8f0"/><text x="70" y="336.0" font-size="10" text-anchor="end" fill="#64748b">-19.8%</text><line x1="78" y1="299.7" x2="796" y2="299.7" stroke="#e2e8f0"/><text x="70" y="303.7" font-size="10" text-anchor="end" fill="#64748b">0%</text><line x1="78" y1="287.0" x2="796" y2="287.0" stroke="#e2e8f0"/><text x="70" y="291.0" font-size="10" text-anchor="end" fill="#64748b">+9.1%</text><line x1="78" y1="242.0" x2="796" y2="242.0" stroke="#e2e8f0"/><text x="70" y="246.0" font-size="10" text-anchor="end" fill="#64748b">+48.3%</text><line x1="78" y1="197.0" x2="796" y2="197.0" stroke="#e2e8f0"/><text x="70" y="201.0" font-size="10" text-anchor="end" fill="#64748b">+101.6%</text><line x1="78" y1="152.0" x2="796" y2="152.0" stroke="#e2e8f0"/><text x="70" y="156.0" font-size="10" text-anchor="end" fill="#64748b">+174.1%</text><line x1="78" y1="107.0" x2="796" y2="107.0" stroke="#e2e8f0"/><text x="70" y="111.0" font-size="10" text-anchor="end" fill="#64748b">+272.6%</text><line x1="78" y1="62.0" x2="796" y2="62.0" stroke="#e2e8f0"/><text x="70" y="66.0" font-size="10" text-anchor="end" fill="#64748b">+406.6%</text>
<line x1="78" y1="332" x2="796" y2="332" stroke="#cbd5e1"/>
<polyline fill="none" stroke="#2563eb" stroke-width="2" points="78.0,299.7 80.2,310.8 82.4,259.7 84.6,237.0 86.8,256.3 89.0,273.5 91.2,267.4 93.4,287.0 95.6,270.7 97.8,291.9 100.0,286.6 102.2,287.0 104.4,296.9 106.6,297.1 108.8,303.1 111.0,317.5 113.2,305.3 115.4,293.9 117.6,293.4 119.8,294.2 122.0,292.5 124.3,289.7 126.5,295.0 128.7,284.7 130.9,262.5 133.1,264.1 135.3,254.9 137.5,256.8 139.7,253.0 141.9,263.0 144.1,244.0 146.3,232.5 148.5,223.1 150.7,226.8 152.9,197.6 155.1,186.6 157.3,180.5 159.5,155.0 161.7,165.2 163.9,161.5 166.1,134.0 168.3,143.5 170.5,157.5 172.7,149.8 174.9,138.5 177.1,105.6 179.3,93.8 181.5,121.4 183.7,116.0 185.9,94.7 188.1,101.4 190.3,106.4 192.5,107.1 194.7,108.8 196.9,98.0 199.1,86.1 201.3,87.7 203.5,76.5 205.7,84.6 207.9,85.5 210.1,97.1 212.3,98.4 214.6,96.6 216.8,93.8 219.0,100.4 221.2,104.3 223.4,91.9 225.6,96.9 227.8,104.7 230.0,103.1 232.2,118.0 234.4,131.8 236.6,124.4 238.8,115.6 241.0,113.0 243.2,124.6 245.4,135.1 247.6,132.9 249.8,127.3 252.0,131.5 254.2,138.8 256.4,144.2 258.6,151.1 260.8,153.2 263.0,161.3 265.2,146.1 267.4,159.5 269.6,156.9 271.8,149.1 274.0,151.2 276.2,137.4 278.4,127.5 280.6,116.4 282.8,107.3 285.0,141.5 287.2,166.2 289.4,165.5 291.6,170.2 293.8,176.3 296.0,178.4 298.2,179.6 300.4,174.5 302.7,177.1 304.9,178.7 307.1,170.0 309.3,161.4 311.5,161.1 313.7,175.6 315.9,181.1 318.1,185.1 320.3,182.4 322.5,175.2 324.7,165.1 326.9,142.3 329.1,148.0 331.3,148.9 333.5,138.2 335.7,140.3 337.9,137.7 340.1,137.1 342.3,132.9 344.5,123.4 346.7,126.0 348.9,123.2 351.1,130.8 353.3,138.3 355.5,135.7 357.7,119.5 359.9,119.3 362.1,118.3 364.3,121.7 366.5,122.7 368.7,128.3 370.9,116.2 373.1,113.0 375.3,117.8 377.5,114.5 379.7,122.5 381.9,117.0 384.1,114.4 386.3,119.5 388.5,130.4 390.7,132.7 393.0,136.9 395.2,134.7 397.4,124.2 399.6,120.3 401.8,121.7 404.0,116.2 406.2,125.8 408.4,122.9 410.6,131.2 412.8,144.0 415.0,145.7 417.2,155.6 419.4,159.7 421.6,157.5 423.8,183.5 426.0,188.5 428.2,201.2 430.4,203.1 432.6,207.0 434.8,207.8 437.0,207.8 439.2,219.4 441.4,214.3 443.6,210.4 445.8,215.0 448.0,209.0 450.2,211.3 452.4,203.6 454.6,205.6 456.8,199.3 459.0,188.0 461.2,183.7 463.4,187.1 465.6,179.8 467.8,183.9 470.0,185.2 472.2,200.8 474.4,212.9 476.6,218.8 478.8,229.6 481.0,222.7 483.3,192.8 485.5,189.6 487.7,197.7 489.9,200.2 492.1,204.9 494.3,207.8 496.5,209.8 498.7,214.4 500.9,199.4 503.1,204.0 505.3,202.0 507.5,203.4 509.7,203.6 511.9,197.9 514.1,181.0 516.3,185.1 518.5,181.2 520.7,173.0 522.9,163.7 525.1,172.6 527.3,174.4 529.5,178.0 531.7,176.1 533.9,168.0 536.1,153.0 538.3,156.9 540.5,166.2 542.7,175.8 544.9,182.6 547.1,180.8 549.3,193.7 551.5,208.3 553.7,181.0 555.9,170.2 558.1,172.8 560.3,172.7 562.5,171.9 564.7,171.4 566.9,179.3 569.1,172.3 571.3,169.7 573.6,182.1 575.8,179.5 578.0,166.5 580.2,168.4 582.4,169.0 584.6,199.0 586.8,201.8 589.0,210.0 591.2,199.1 593.4,208.0 595.6,211.6 597.8,208.8 600.0,207.8 602.2,194.6 604.4,198.4 606.6,196.1 608.8,187.8 611.0,194.3 613.2,193.1 615.4,196.9 617.6,195.5 619.8,194.6 622.0,192.7 624.2,184.9 626.4,197.3 628.6,208.0 630.8,219.5 633.0,202.9 635.2,201.0 637.4,194.1 639.6,196.4 641.8,188.9 644.0,182.7 646.2,177.7 648.4,162.6 650.6,151.1 652.8,142.2 655.0,140.4 657.2,139.3 659.4,142.6 661.7,141.9 663.9,144.8 666.1,135.7 668.3,141.9 670.5,151.3 672.7,148.8 674.9,157.6 677.1,146.0 679.3,149.4 681.5,140.0 683.7,132.3 685.9,129.4 688.1,118.3 690.3,128.3 692.5,146.1 694.7,145.4 696.9,154.5 699.1,149.8 701.3,146.0 703.5,155.1 705.7,160.0 707.9,165.7 710.1,163.6 712.3,154.8 714.5,157.6 716.7,157.1 718.9,159.3 721.1,155.7 723.3,152.1 725.5,133.0 727.7,139.6 729.9,150.3 732.1,154.1 734.3,164.9 736.5,162.0 738.7,167.8 740.9,172.0 743.1,171.8 745.3,164.7 747.5,155.9 749.7,142.4 752.0,144.7 754.2,141.3 756.4,149.8 758.6,157.3 760.8,164.2 763.0,167.3 765.2,170.6 767.4,172.2 769.6,166.1 771.8,188.1 774.0,195.0 776.2,186.8 778.4,191.8 780.6,180.9 782.8,181.4 785.0,182.7 787.2,192.2 789.4,198.3 791.6,203.5 793.8,211.7 796.0,211.1"/><polyline fill="none" stroke="#16a34a" stroke-width="3" points="78.0,299.7 80.2,310.8 82.4,259.7 84.6,237.0 86.8,256.3 89.0,273.5 91.2,267.4 93.4,287.0 95.6,270.7 97.8,291.9 100.0,286.6 102.2,287.0 104.4,296.9 106.6,297.1 108.8,303.1 111.0,317.5 113.2,305.3 115.4,293.9 117.6,293.4 119.8,294.2 122.0,292.5 124.3,289.7 126.5,295.0 128.7,284.7 130.9,262.5 133.1,264.1 135.3,254.9 137.5,256.8 139.7,253.0 141.9,263.0 144.1,244.0 146.3,232.5 148.5,223.1 150.7,226.8 152.9,197.6 155.1,186.6 157.3,180.5 159.5,155.0 161.7,165.2 163.9,161.5 166.1,134.0 168.3,143.5 170.5,157.5 172.7,149.8 174.9,138.5 177.1,105.6 179.3,93.8 181.5,121.4 183.7,116.0 185.9,94.7 188.1,101.4 190.3,106.4 192.5,107.1 194.7,108.8 196.9,98.0 199.1,86.1 201.3,87.7 203.5,76.5 205.7,84.6 207.9,85.5 210.1,97.1 212.3,98.4 214.6,96.6 216.8,93.8 219.0,100.4 221.2,104.3 223.4,91.9 225.6,96.9 227.8,104.7 230.0,103.1 232.2,118.0 234.4,131.8 236.6,124.4 238.8,115.6 241.0,113.0 243.2,124.6 245.4,135.1 247.6,132.9 249.8,127.3 252.0,131.5 254.2,138.8 256.4,144.2 258.6,151.1 260.8,153.2 263.0,161.3 265.2,146.1 267.4,159.5 269.6,156.9 271.8,149.1 274.0,151.2 276.2,137.4 278.4,127.5 280.6,116.4 282.8,107.3 285.0,141.5 287.2,166.2 289.4,165.5 291.6,170.2 293.8,176.3 296.0,178.4 298.2,179.6 300.4,174.5 302.7,177.1 304.9,178.7 307.1,170.0 309.3,161.4 311.5,161.1 313.7,175.6 315.9,181.1 318.1,185.1 320.3,182.4 322.5,175.2 324.7,165.1 326.9,142.3 329.1,148.0 331.3,148.9 333.5,138.2 335.7,140.3 337.9,137.7 340.1,137.1 342.3,132.9 344.5,123.4 346.7,126.0 348.9,123.2 351.1,130.8 353.3,138.3 355.5,135.7 357.7,119.5 359.9,119.3 362.1,118.3 364.3,121.7 366.5,122.7 368.7,128.3 370.9,116.2 373.1,113.0 375.3,117.8 377.5,114.5 379.7,122.5 381.9,117.0 384.1,114.4 386.3,119.5 388.5,130.4 390.7,132.7 393.0,136.9 395.2,134.7 397.4,124.2 399.6,120.3 401.8,121.7 404.0,116.2 406.2,125.8 408.4,122.9 410.6,131.2 412.8,144.0 415.0,145.7 417.2,155.6 419.4,159.7 421.6,157.5 423.8,183.5 426.0,188.5 428.2,201.2 430.4,203.1 432.6,207.0 434.8,207.8 437.0,207.8 439.2,219.4 441.4,214.3 443.6,210.4 445.8,215.0 448.0,209.0 450.2,211.3 452.4,203.6 454.6,205.6 456.8,199.3 459.0,188.0 461.2,183.7 463.4,187.1 465.6,179.8 467.8,183.9 470.0,185.2 472.2,200.8 474.4,212.9 476.6,218.8 478.8,229.6 481.0,222.7 483.3,192.8 485.5,189.6 487.7,197.7 489.9,200.2 492.1,204.9 494.3,207.8 496.5,209.8 498.7,214.4 500.9,199.4 503.1,204.0 505.3,202.0 507.5,203.4 509.7,203.6 511.9,197.9 514.1,181.0 516.3,185.1 518.5,181.2 520.7,173.0 522.9,163.7 525.1,172.6 527.3,174.4 529.5,178.0 531.7,176.1 533.9,168.0 536.1,153.0 538.3,156.9 540.5,166.2 542.7,175.8 544.9,182.6 547.1,180.8 549.3,193.7 551.5,208.3 553.7,181.0 555.9,170.2 558.1,172.8 560.3,172.7 562.5,171.9 564.7,171.4 566.9,179.3 569.1,172.3 571.3,169.7 573.6,182.1 575.8,179.5 578.0,166.5 580.2,168.4 582.4,169.0 584.6,199.0 586.8,201.8 589.0,210.0 591.2,199.1 593.4,208.0 595.6,211.6 597.8,208.8 600.0,207.8 602.2,194.6 604.4,198.4 606.6,196.1 608.8,187.8 611.0,194.3 613.2,193.1 615.4,196.9 617.6,195.5 619.8,194.6 622.0,192.7 624.2,184.9 626.4,197.3 628.6,208.0 630.8,219.5 633.0,202.9 635.2,201.0 637.4,194.1 639.6,196.4 641.8,188.9 644.0,182.7 646.2,177.7 648.4,162.6 650.6,151.1 652.8,142.2 655.0,140.4 657.2,139.3 659.4,142.6 661.7,141.9 663.9,144.8 666.1,135.7 668.3,141.9 670.5,151.3 672.7,148.8 674.9,157.6 677.1,146.0 679.3,149.4 681.5,140.0 683.7,132.3 685.9,129.4 688.1,118.3 690.3,128.3 692.5,146.1 694.7,145.4 696.9,154.5 699.1,149.8 701.3,146.0 703.5,155.1 705.7,160.0 707.9,165.7 710.1,163.6 712.3,154.8 714.5,157.6 716.7,157.1 718.9,159.3 721.1,155.7 723.3,152.1 725.5,133.0 727.7,139.6 729.9,150.3 732.1,154.1 734.3,164.9 736.5,162.0 738.7,167.8 740.9,172.0 743.1,171.8 745.3,164.7 747.5,155.9 749.7,142.4 752.0,144.7 754.2,141.3 756.4,149.8 758.6,157.3 760.8,164.2 763.0,167.3 765.2,170.6 767.4,172.2 769.6,166.1 771.8,188.1 774.0,195.0 776.2,186.8 778.4,191.8 780.6,180.9 782.8,181.4 785.0,182.7 787.2,192.2 789.4,198.3 791.6,203.5 793.8,211.7 796.0,211.1"/>
<text x="78" y="392" font-size="11" fill="#16a34a">Total return +83.0%</text><text x="268" y="392" font-size="11" fill="#2563eb">Price-only +83.0%</text><text x="78" y="362" font-size="11" text-anchor="middle" fill="#64748b">2025-03</text><text x="256" y="362" font-size="11" text-anchor="middle" fill="#64748b">2025-07</text><text x="437" y="362" font-size="11" text-anchor="middle" fill="#64748b">2025-11</text><text x="618" y="362" font-size="11" text-anchor="middle" fill="#64748b">2026-03</text><text x="796" y="362" font-size="11" text-anchor="middle" fill="#64748b">2026-07</text></svg>