<svg xmlns="http://www.w3.org/2000/svg" width="820" height="410" viewBox="0 0 820 410">
<rect width="820" height="410" fill="#fafafa"/><text x="78" y="22" font-size="14" font-family="sans-serif" fill="#0f172a">GDRZF cumulative return since 2013-03-18 | dividends reinvested</text>
<text x="78" y="40" font-size="11" font-family="sans-serif" fill="#334155">Total return +106.5% | Price-only +67.4% | logarithmic scale</text>
<text x="78" y="54" font-size="9" font-family="sans-serif" fill="#64748b">Regular $0.57 | Special $0.00 | Other $0.00 per initial share path</text>
<line x1="78" y1="332.0" x2="796" y2="332.0" stroke="#e2e8f0"/><text x="70" y="336.0" font-size="10" text-anchor="end" fill="#64748b">-79.3%</text><line x1="78" y1="287.0" x2="796" y2="287.0" stroke="#e2e8f0"/><text x="70" y="291.0" font-size="10" text-anchor="end" fill="#64748b">-67.8%</text><line x1="78" y1="242.0" x2="796" y2="242.0" stroke="#e2e8f0"/><text x="70" y="246.0" font-size="10" text-anchor="end" fill="#64748b">-49.9%</text><line x1="78" y1="197.0" x2="796" y2="197.0" stroke="#e2e8f0"/><text x="70" y="201.0" font-size="10" text-anchor="end" fill="#64748b">-22.1%</text><line x1="78" y1="171.5" x2="796" y2="171.5" stroke="#e2e8f0"/><text x="70" y="175.5" font-size="10" text-anchor="end" fill="#64748b">0%</text><line x1="78" y1="152.0" x2="796" y2="152.0" stroke="#e2e8f0"/><text x="70" y="156.0" font-size="10" text-anchor="end" fill="#64748b">+21.1%</text><line x1="78" y1="107.0" x2="796" y2="107.0" stroke="#e2e8f0"/><text x="70" y="111.0" font-size="10" text-anchor="end" fill="#64748b">+88.3%</text><line x1="78" y1="62.0" x2="796" y2="62.0" stroke="#e2e8f0"/><text x="70" y="66.0" font-size="10" text-anchor="end" fill="#64748b">+192.7%</text>
<line x1="78" y1="332" x2="796" y2="332" stroke="#cbd5e1"/>
<polyline fill="none" stroke="#2563eb" stroke-width="2" points="78.0,171.5 78.2,175.4 78.4,171.1 78.6,166.4 78.9,164.9 79.1,164.2 79.3,164.2 79.5,164.2 79.7,167.8 79.9,164.2 80.1,167.1 80.4,160.8 80.6,162.4 80.8,162.5 81.0,164.2 81.2,159.4 81.4,161.8 81.6,160.8 81.9,160.8 82.1,164.2 82.3,160.5 82.5,163.9 82.7,167.1 82.9,166.7 83.1,167.1 83.4,160.8 83.6,162.5 83.8,160.8 84.0,162.5 84.2,157.4 84.4,154.2 84.6,150.1 84.9,148.0 85.1,148.6 85.3,152.0 85.5,149.5 85.7,149.5 85.9,151.4 86.1,146.5 86.3,148.0 86.6,149.5 86.8,146.8 87.0,146.8 87.2,146.8 87.4,149.2 87.6,154.2 87.8,153.2 88.1,154.8 88.3,153.6 88.5,153.6 88.7,154.2 88.9,154.0 89.1,155.5 89.3,156.8 89.6,157.1 89.8,159.4 90.0,160.8 90.2,164.2 90.4,160.8 90.6,160.8 90.8,162.5 91.1,164.2 91.3,164.2 91.5,161.1 91.7,164.2 91.9,164.2 92.1,164.2 92.3,166.0 92.6,169.7 92.8,168.9 93.0,171.5 93.2,172.3 93.4,167.8 93.6,167.1 93.8,164.2 94.1,163.9 94.3,163.9 94.5,164.2 94.7,164.9 94.9,164.2 95.1,162.8 95.3,160.1 95.6,160.8 95.8,162.2 96.0,160.8 96.2,164.2 96.4,162.9 96.6,164.2 96.8,160.8 97.1,160.8 97.3,160.4 97.5,160.1 97.7,160.8 97.9,160.8 98.1,160.8 98.3,160.1 98.6,160.1 98.8,159.4 99.0,161.1 99.2,158.4 99.4,161.1 99.6,159.1 99.8,161.3 100.0,160.8 100.3,160.8 100.5,158.1 100.7,158.1 100.9,162.2 101.1,163.9 101.3,163.9 101.5,163.9 101.8,161.1 102.0,161.5 102.2,162.0 102.4,162.5 102.6,161.8 102.8,163.9 103.0,159.1 103.3,161.5 103.5,161.5 103.7,159.1 103.9,162.5 104.1,163.2 104.3,157.8 104.5,156.8 104.8,158.8 105.0,156.8 105.2,160.8 105.4,159.8 105.6,160.8 105.8,159.1 106.0,154.8 106.3,156.1 106.5,156.5 106.7,156.8 106.9,147.4 107.1,152.6 107.3,152.6 107.5,151.1 107.8,148.0 108.0,151.1 108.2,148.0 108.4,151.1 108.6,146.5 108.8,149.5 109.0,145.6 109.3,152.3 109.5,148.0 109.7,152.3 109.9,151.7 110.1,152.0 110.3,151.1 110.5,149.5 110.8,150.8 111.0,150.1 111.2,150.1 111.4,151.1 111.6,147.4 111.8,142.2 112.0,146.4 112.3,146.5 112.5,152.0 112.7,151.1 112.9,149.8 113.1,149.5 113.3,150.4 113.5,151.1 113.8,151.1 114.0,147.4 114.2,151.1 114.4,147.7 114.6,149.5 114.8,151.1 115.0,147.4 115.2,149.5 115.5,148.6 115.7,151.1 115.9,150.8 116.1,149.5 116.3,150.8 116.5,150.1 116.7,151.1 117.0,148.3 117.2,151.1 117.4,147.4 117.6,151.1 117.8,150.8 118.0,149.5 118.2,151.3 118.5,150.1 118.7,146.5 118.9,148.3 119.1,150.4 119.3,150.1 119.5,148.0 119.7,150.4 120.0,150.1 120.2,150.8 120.4,149.5 120.6,150.1 120.8,147.1 121.0,149.2 121.2,148.3 121.5,148.0 121.7,149.2 121.9,143.6 122.1,133.0 122.3,134.3 122.5,135.9 122.7,136.4 123.0,140.5 123.2,139.4 123.4,142.2 123.6,142.2 123.8,138.8 124.0,140.8 124.2,139.4 124.5,140.8 124.7,136.7 124.9,138.0 125.1,137.8 125.3,141.3 125.5,145.6 125.7,142.1 126.0,148.0 126.2,148.0 126.4,149.8 126.6,145.4 126.8,143.2 127.0,145.1 127.2,146.5 127.5,145.6 127.7,148.0 127.9,154.2 128.1,153.9 128.3,152.6 128.5,152.9 128.7,150.1 128.9,152.3 129.2,152.3 129.4,152.6 129.6,152.3 129.8,154.5 130.0,157.1 130.2,152.6 130.4,151.7 130.7,159.8 130.9,155.8 131.1,156.5 131.3,154.5 131.5,154.5 131.7,153.2 131.9,152.3 132.2,150.4 132.4,151.4 132.6,148.0 132.8,148.0 133.0,152.6 133.2,152.6 133.4,152.6 133.7,152.6 133.9,152.6 134.1,156.8 134.3,156.8 134.5,159.1 134.7,152.6 134.9,151.7 135.2,157.1 135.4,151.1 135.6,154.0 135.8,155.8 136.0,157.1 136.2,160.8 136.4,156.7 136.7,162.5 136.9,162.5 137.1,162.5 137.3,156.5 137.5,161.6 137.7,154.9 137.9,161.5 138.2,160.8 138.4,160.8 138.6,154.2 138.8,154.2 139.0,155.5 139.2,152.9 139.4,154.2 139.7,153.3 139.9,150.4 140.1,145.6 140.3,145.6 140.5,146.5 140.7,150.8 140.9,150.1 141.2,151.7 141.4,147.4 141.6,159.1 141.8,159.5 142.0,158.8 142.2,159.5 142.4,159.1 142.6,157.4 142.9,148.9 143.1,157.4 143.3,154.2 143.5,156.1 143.7,148.0 143.9,157.4 144.1,149.2 144.4,154.2 144.6,152.6 144.8,149.5 145.0,155.5 145.2,151.1 145.4,151.1 145.6,155.8 145.9,152.8 146.1,152.7 146.3,148.5 146.5,148.6 146.7,148.3 146.9,148.0 147.1,147.4 147.4,149.5 147.6,147.4 147.8,147.1 148.0,149.2 148.2,148.9 148.4,148.6 148.6,149.2 148.9,149.5 149.1,146.5 149.3,146.5 149.5,148.0 149.7,148.0 149.9,148.0 150.1,147.7 150.4,147.1 150.6,145.4 150.8,143.6 151.0,134.3 151.2,130.9 151.4,127.7 151.6,125.7 151.9,127.7 152.1,132.4 152.3,130.2 152.5,132.7 152.7,125.3 152.9,130.2 153.1,127.7 153.4,128.9 153.6,132.8 153.8,132.7 154.0,127.7 154.2,129.2 154.4,128.9 154.6,126.5 154.9,129.7 155.1,127.8 155.3,131.4 155.5,126.5 155.7,124.3 155.9,125.3 156.1,127.5 156.4,124.5 156.6,127.7 156.8,124.3 157.0,128.2 157.2,126.8 157.4,124.3 157.6,127.9 157.8,127.0 158.1,125.3 158.3,125.3 158.5,127.7 158.7,128.9 158.9,127.9 159.1,130.4 159.3,128.9 159.6,128.2 159.8,132.8 160.0,130.2 160.2,132.2 160.4,128.2 160.6,128.4 160.8,134.6 161.1,127.7 161.3,130.7 161.5,133.0 161.7,132.7 161.9,134.0 162.1,132.0 162.3,134.3 162.6,135.6 162.8,135.8 163.0,136.7 163.2,139.9 163.4,136.7 163.6,139.9 163.8,140.1 164.1,139.7 164.3,140.2 164.5,147.4 164.7,145.1 164.9,145.1 165.1,147.4 165.3,149.2 165.6,151.1 165.8,150.7 166.0,145.1 166.2,142.8 166.4,144.5 166.6,144.5 166.8,148.9 167.1,148.0 167.3,146.8 167.5,148.9 167.7,146.8 167.9,147.4 168.1,144.5 168.3,144.5 168.6,143.9 168.8,144.8 169.0,143.9 169.2,141.6 169.4,141.3 169.6,139.4 169.8,139.4 170.1,134.0 170.3,138.3 170.5,142.5 170.7,143.9 170.9,138.2 171.1,139.4 171.3,136.7 171.5,141.2 171.8,145.3 172.0,147.0 172.2,151.1 172.4,153.6 172.6,156.5 172.8,153.2 173.0,152.9 173.3,154.8 173.5,160.8 173.7,158.4 173.9,156.5 174.1,155.8 174.3,156.8 174.5,155.8 174.8,154.6 175.0,155.5 175.2,156.1 175.4,160.1 175.6,171.3 175.8,173.0 176.0,171.9 176.3,169.0 176.5,169.7 176.7,175.0 176.9,179.4 177.1,175.6 177.3,175.5 177.5,175.4 177.8,177.4 178.0,188.1 178.2,181.0 178.4,179.8 178.6,177.0 178.8,164.4 179.0,159.1 179.3,154.6 179.5,153.9 179.7,152.6 179.9,152.6 180.1,142.2 180.3,145.1 180.5,144.5 180.8,144.2 181.0,143.3 181.2,139.7 181.4,139.4 181.6,139.4 181.8,135.6 182.0,133.5 182.3,133.5 182.5,134.0 182.7,133.5 182.9,134.0 183.1,134.0 183.3,134.0 183.5,136.1 183.8,135.1 184.0,135.4 184.2,135.3 184.4,135.5 184.6,135.9 184.8,138.0 185.0,137.0 185.3,134.8 185.5,134.0 185.7,134.0 185.9,132.8 186.1,134.6 186.3,134.3 186.5,135.3 186.7,135.6 187.0,134.3 187.2,134.0 187.4,132.7 187.6,132.7 187.8,131.4 188.0,132.7 188.2,133.0 188.5,135.3 188.7,134.0 188.9,134.0 189.1,134.0 189.3,138.6 189.5,134.5 189.7,136.4 190.0,134.8 190.2,134.0 190.4,134.6 190.6,134.3 190.8,134.0 191.0,134.6 191.2,134.8 191.5,134.6 191.7,135.3 191.9,135.3 192.1,134.8 192.3,135.1 192.5,136.9 192.7,136.4 193.0,134.6 193.2,134.8 193.4,134.8 193.6,134.8 193.8,142.9 194.0,138.0 194.2,136.7 194.5,136.7 194.7,136.7 194.9,137.2 195.1,136.4 195.3,135.3 195.5,136.1 195.7,135.6 196.0,135.6 196.2,135.6 196.4,135.3 196.6,134.6 196.8,134.0 197.0,134.0 197.2,136.1 197.5,134.8 197.7,136.5 197.9,135.3 198.1,135.3 198.3,135.3 198.5,135.6 198.7,135.6 199.0,135.6 199.2,134.0 199.4,132.0 199.6,131.4 199.8,131.7 200.0,131.7 200.2,131.7 200.4,132.2 200.7,131.7 200.9,131.7 201.1,132.0 201.3,131.7 201.5,131.7 201.7,130.2 201.9,133.2 202.2,133.8 202.4,134.0 202.6,134.8 202.8,134.0 203.0,134.0 203.2,135.1 203.4,134.3 203.7,134.8 203.9,134.0 204.1,135.9 204.3,135.3 204.5,136.9 204.7,138.6 204.9,140.8 205.2,138.0 205.4,139.4 205.6,141.1 205.8,148.0 206.0,151.7 206.2,157.8 206.4,152.6 206.7,154.2 206.9,152.6 207.1,152.9 207.3,150.1 207.5,145.6 207.7,143.0 207.9,143.6 208.2,147.4 208.4,154.2 208.6,145.1 208.8,156.1 209.0,161.8 209.2,160.1 209.4,162.5 209.7,161.1 209.9,167.8 210.1,167.8 210.3,167.5 210.5,169.7 210.7,167.5 210.9,171.9 211.2,169.7 211.4,169.7 211.6,169.2 211.8,170.7 212.0,170.0 212.2,173.4 212.4,171.5 212.7,171.5 212.9,170.8 213.1,171.1 213.3,173.4 213.5,171.5 213.7,171.5 213.9,171.9 214.2,177.4 214.4,179.4 214.6,179.4 214.8,180.6 215.0,167.8 215.2,171.9 215.4,171.9 215.6,179.5 215.9,168.2 216.1,168.9 216.3,167.8 216.5,170.4 216.7,169.7 216.9,172.7 217.1,171.5 217.4,167.1 217.6,171.1 217.8,170.8 218.0,169.7 218.2,169.7 218.4,162.5 218.6,161.1 218.9,168.6 219.1,163.5 219.3,156.1 219.5,157.1 219.7,155.8 219.9,160.8 220.1,157.4 220.4,161.1 220.6,165.7 220.8,166.0 221.0,171.9 221.2,170.4 221.4,163.9 221.6,160.8 221.9,160.8 222.1,164.1 222.3,170.8 222.5,170.8 222.7,167.8 222.9,172.7 223.1,161.5 223.4,164.2 223.6,167.5 223.8,164.2 224.0,162.5 224.2,160.8 224.4,164.2 224.6,167.8 224.9,168.5 225.1,164.2 225.3,178.6 225.5,173.4 225.7,174.2 225.9,177.4 226.1,172.7 226.4,176.2 226.6,176.6 226.8,176.9 227.0,175.8 227.2,175.4 227.4,178.6 227.6,179.4 227.9,179.4 228.1,179.4 228.3,182.7 228.5,182.5 228.7,178.3 228.9,180.2 229.1,181.0 229.3,175.4 229.6,181.0 229.8,177.4 230.0,177.4 230.2,177.4 230.4,181.5 230.6,180.6 230.8,184.8 231.1,192.4 231.3,187.0 231.5,186.1 231.7,189.7 231.9,185.7 232.1,187.0 232.3,180.9 232.6,180.6 232.8,179.8 233.0,181.4 233.2,179.4 233.4,179.8 233.6,172.7 233.8,161.1 234.1,161.3 234.3,161.1 234.5,162.5 234.7,160.8 234.9,157.1 235.1,160.8 235.3,155.8 235.6,140.8 235.8,132.1 236.0,125.3 236.2,125.3 236.4,119.9 236.6,119.9 236.8,119.9 237.1,119.9 237.3,114.0 237.5,116.3 237.7,120.6 237.9,131.4 238.1,129.4 238.3,126.6 238.6,125.5 238.8,126.0 239.0,120.1 239.2,119.4 239.4,120.6 239.6,120.8 239.8,120.6 240.1,120.6 240.3,121.7 240.5,120.6 240.7,119.7 240.9,119.7 241.1,118.5 241.3,121.0 241.6,120.1 241.8,120.3 242.0,123.4 242.2,122.4 242.4,119.7 242.6,120.1 242.8,118.8 243.1,119.4 243.3,119.7 243.5,122.2 243.7,122.3 243.9,120.6 244.1,117.9 244.3,117.9 244.5,108.9 244.8,109.7 245.0,110.5 245.2,108.7 245.4,111.8 245.6,108.7 245.8,107.9 246.0,110.7 246.3,109.1 246.5,110.1 246.7,111.8 246.9,114.1 247.1,116.1 247.3,110.1 247.5,109.9 247.8,109.7 248.0,109.7 248.2,108.7 248.4,111.8 248.6,108.7 248.8,122.2 249.0,121.0 249.3,122.4 249.5,122.1 249.7,122.9 249.9,125.3 250.1,123.9 250.3,123.8 250.5,177.4 250.8,146.5 251.0,149.5 251.2,150.4 251.4,133.5 251.6,134.0 251.8,136.7 252.0,136.7 252.3,119.4 252.5,119.4 252.7,119.0 252.9,117.2 253.1,115.7 253.3,122.4 253.5,119.7 253.8,121.5 254.0,130.4 254.2,130.4 254.4,130.4 254.6,126.7 254.8,124.1 255.0,124.1 255.3,118.8 255.5,118.3 255.7,120.6 255.9,126.2 256.1,130.2 256.3,130.7 256.5,131.4 256.8,129.7 257.0,129.9 257.2,125.3 257.4,123.1 257.6,124.1 257.8,124.1 258.0,124.1 258.2,124.1 258.5,124.1 258.7,124.1 258.9,124.1 259.1,124.1 259.3,124.1 259.5,124.1 259.7,124.1 260.0,124.1 260.2,124.1 260.4,124.1 260.6,124.1 260.8,124.1 261.0,107.7 261.2,102.9 261.5,102.3 261.7,101.3 261.9,104.7 262.1,104.6 262.3,104.7 262.5,105.2 262.7,104.4 263.0,104.7 263.2,105.8 263.4,117.3 263.6,112.4 263.8,105.1 264.0,110.1 264.2,110.3 264.5,114.1 264.7,105.6 264.9,111.4 265.1,116.3 265.3,114.6 265.5,115.4 265.7,115.0 266.0,116.6 266.2,116.9 266.4,125.5 266.6,127.9 266.8,126.4 267.0,127.0 267.2,131.5 267.5,131.5 267.7,131.4 267.9,129.0 268.1,125.2 268.3,129.0 268.5,127.7 268.7,128.5 269.0,127.7 269.2,130.5 269.4,131.2 269.6,136.7 269.8,128.9 270.0,124.0 270.2,122.1 270.5,122.9 270.7,121.7 270.9,121.7 271.1,126.5 271.3,126.0 271.5,126.0 271.7,131.4 271.9,131.2 272.2,126.5 272.4,132.0 272.6,126.6 272.8,123.8 273.0,126.7 273.2,128.8 273.4,126.6 273.7,123.9 273.9,123.9 274.1,123.9 274.3,123.9 274.5,124.9 274.7,124.0 274.9,123.1 275.2,123.2 275.4,125.1 275.6,127.7 275.8,130.3 276.0,129.9 276.2,130.9 276.4,132.1 276.7,130.4 276.9,129.1 277.1,126.7 277.3,131.2 277.5,125.2 277.7,128.6 277.9,139.4 278.2,144.9 278.4,145.2 278.6,131.5 278.8,134.3 279.0,131.5 279.2,134.3 279.4,134.0 279.7,126.1 279.9,117.6 280.1,123.0 280.3,121.7 280.5,126.7 280.7,125.3 280.9,124.5 281.2,124.9 281.4,131.4 281.6,126.7 281.8,126.9 282.0,131.4 282.2,130.7 282.4,136.8 282.7,127.2 282.9,131.5 283.1,135.6 283.3,134.9 283.5,133.9 283.7,134.1 283.9,135.0 284.2,141.9 284.4,132.4 284.6,136.7 284.8,143.0 285.0,143.3 285.2,146.6 285.4,147.3 285.7,146.3 285.9,145.3 286.1,144.4 286.3,145.4 286.5,146.5 286.7,139.2 286.9,146.0 287.1,143.8 287.4,145.1 287.6,144.4 287.8,146.7 288.0,146.7 288.2,153.2 288.4,149.0 288.6,142.8 288.9,147.8 289.1,148.0 289.3,155.7 289.5,154.0 289.7,156.3 289.9,154.3 290.1,153.7 290.4,154.3 290.6,154.5 290.8,154.4 291.0,155.0 291.2,165.5 291.4,164.4 291.6,165.3 291.9,160.2 292.1,161.0 292.3,165.5 292.5,166.9 292.7,166.9 292.9,167.2 293.1,164.9 293.4,166.7 293.6,162.5 293.8,169.2 294.0,162.4 294.2,165.7 294.4,167.1 294.6,171.3 294.9,170.8 295.1,171.5 295.3,172.7 295.5,169.1 295.7,164.2 295.9,167.5 296.1,169.6 296.4,170.5 296.6,174.6 296.8,175.5 297.0,175.5 297.2,175.2 297.4,175.6 297.6,175.7 297.9,174.7 298.1,168.1 298.3,167.9 298.5,167.9 298.7,169.0 298.9,164.2 299.1,164.2 299.4,173.4 299.6,171.9 299.8,171.8 300.0,171.8 300.2,173.0 300.4,175.0 300.6,175.0 300.8,177.2 301.1,175.0 301.3,186.6 301.5,184.2 301.7,183.6 301.9,183.8 302.1,184.6 302.3,187.8 302.6,189.1 302.8,189.1 303.0,188.2 303.2,187.3 303.4,187.3 303.6,187.3 303.8,187.9 304.1,187.9 304.3,188.8 304.5,190.3 304.7,194.8 304.9,191.0 305.1,190.4 305.3,199.4 305.6,189.9 305.8,192.0 306.0,201.2 306.2,192.3 306.4,190.1 306.6,195.5 306.8,197.2 307.1,196.2 307.3,166.4 307.5,160.7 307.7,164.0 307.9,167.7 308.1,166.1 308.3,168.1 308.6,174.6 308.8,172.8 309.0,169.6 309.2,169.4 309.4,168.4 309.6,168.4 309.8,138.6 310.1,137.4 310.3,141.6 310.5,136.5 310.7,134.8 310.9,133.8 311.1,135.9 311.3,133.7 311.6,137.0 311.8,134.0 312.0,134.1 312.2,135.6 312.4,135.4 312.6,137.2 312.8,138.0 313.1,136.7 313.3,133.5 313.5,134.0 313.7,140.4 313.9,136.8 314.1,143.7 314.3,142.0 314.6,143.6 314.8,143.6 315.0,145.1 315.2,145.1 315.4,143.0 315.6,138.0 315.8,140.8 316.0,136.8 316.3,138.1 316.5,136.7 316.7,136.5 316.9,137.1 317.1,136.6 317.3,139.1 317.5,139.1 317.8,139.1 318.0,138.5 318.2,135.3 318.4,138.0 318.6,139.4 318.8,138.0 319.0,137.4 319.3,137.2 319.5,134.5 319.7,134.0 319.9,133.0 320.1,134.0 320.3,136.8 320.5,138.2 320.8,131.4 321.0,134.0 321.2,134.0 321.4,134.0 321.6,132.7 321.8,132.7 322.0,133.2 322.3,134.6 322.5,132.3 322.7,130.2 322.9,128.9 323.1,133.0 323.3,126.8 323.5,131.7 323.8,134.0 324.0,131.5 324.2,134.0 324.4,131.3 324.6,132.7 324.8,132.7 325.0,126.5 325.3,126.5 325.5,130.2 325.7,130.4 325.9,130.4 326.1,128.2 326.3,129.2 326.5,128.7 326.8,132.0 327.0,131.4 327.2,131.4 327.4,134.1 327.6,132.8 327.8,134.1 328.0,131.3 328.3,131.3 328.5,137.1 328.7,136.7 328.9,135.5 329.1,135.3 329.3,134.0 329.5,138.7 329.7,137.8 330.0,135.6 330.2,139.4 330.4,140.0 330.6,142.3 330.8,142.0 331.0,139.5 331.2,150.5 331.5,160.2 331.7,152.3 331.9,147.4 332.1,148.0 332.3,147.6 332.5,155.1 332.7,157.9 333.0,157.7 333.2,159.1 333.4,157.4 333.6,158.4 333.8,160.4 334.0,160.8 334.2,166.7 334.5,161.5 334.7,164.9 334.9,168.3 335.1,170.0 335.3,169.7 335.5,171.6 335.7,171.6 336.0,169.7 336.2,161.1 336.4,151.4 336.6,156.5 336.8,163.6 337.0,162.7 337.2,159.1 337.5,162.8 337.7,163.1 337.9,162.8 338.1,165.7 338.3,160.8 338.5,160.8 338.7,166.0 339.0,167.6 339.2,167.6 339.4,165.7 339.6,166.4 339.8,174.1 340.0,173.8 340.2,181.6 340.5,184.0 340.7,181.4 340.9,179.4 341.1,184.8 341.3,180.6 341.5,184.4 341.7,181.4 342.0,181.4 342.2,181.4 342.4,181.4 342.6,181.6 342.8,177.4 343.0,174.3 343.2,173.8 343.5,172.5 343.7,179.4 343.9,179.4 344.1,179.4 344.3,172.0 344.5,185.7 344.7,182.0 344.9,175.1 345.2,183.5 345.4,175.6 345.6,175.6 345.8,174.2 346.0,182.3 346.2,181.4 346.4,183.4 346.7,182.7 346.9,182.7 347.1,182.6 347.3,182.2 347.5,177.4 347.7,173.4 347.9,173.4 348.2,178.0 348.4,177.4 348.6,181.4 348.8,175.0 349.0,183.5 349.2,183.5 349.4,175.4 349.7,181.4 349.9,178.6 350.1,179.4 350.3,179.4 350.5,179.4 350.7,179.4 350.9,177.8 351.2,175.4 351.4,174.2 351.6,178.6 351.8,174.2 352.0,174.2 352.2,175.4 352.4,175.4 352.7,173.4 352.9,175.4 353.1,177.0 353.3,176.9 353.5,175.0 353.7,175.0 353.9,179.0 354.2,180.2 354.4,183.5 354.6,193.3 354.8,190.1 355.0,190.1 355.2,190.1 355.4,183.6 355.7,196.7 355.9,190.6 356.1,187.8 356.3,187.9 356.5,193.3 356.7,192.9 356.9,190.1 357.2,190.1 357.4,192.1 357.6,196.7 357.8,195.8 358.0,196.7 358.2,194.5 358.4,190.2 358.6,192.4 358.9,187.4 359.1,192.4 359.3,186.6 359.5,183.5 359.7,183.5 359.9,178.2 360.1,171.5 360.4,182.7 360.6,167.1 360.8,167.2 361.0,167.8 361.2,164.2 361.4,163.5 361.6,177.4 361.9,179.4 362.1,179.0 362.3,179.4 362.5,184.4 362.7,184.8 362.9,181.4 363.1,177.5 363.4,190.1 363.6,185.3 363.8,185.8 364.0,185.8 364.2,185.4 364.4,177.4 364.6,187.1 364.9,177.4 365.1,183.5 365.3,187.9 365.5,179.4 365.7,184.0 365.9,187.4 366.1,187.4 366.4,175.8 366.6,186.1 366.8,185.0 367.0,184.9 367.2,183.6 367.4,182.2 367.6,182.3 367.9,183.7 368.1,178.6 368.3,184.8 368.5,184.8 368.7,180.6 368.9,177.4 369.1,181.4 369.4,181.4 369.6,181.4 369.8,164.2 370.0,167.8 370.2,179.4 370.4,171.8 370.6,181.4 370.9,179.4 371.1,179.4 371.3,177.4 371.5,180.6 371.7,177.4 371.9,181.4 372.1,181.4 372.4,181.4 372.6,182.5 372.8,179.4 373.0,183.5 373.2,181.4 373.4,173.0 373.6,183.9 373.8,179.6 374.1,175.4 374.3,175.2 374.5,173.4 374.7,173.4 374.9,171.5 375.1,179.4 375.3,179.4 375.6,176.7 375.8,177.6 376.0,177.3 376.2,182.9 376.4,181.4 376.6,181.4 376.8,175.5 377.1,179.4 377.3,181.4 377.5,175.4 377.7,179.4 377.9,179.4 378.1,179.4 378.3,179.4 378.6,187.0 378.8,174.2 379.0,174.2 379.2,183.1 379.4,183.1 379.6,176.9 379.8,176.9 380.1,176.9 380.3,181.5 380.5,181.0 380.7,179.8 380.9,179.4 381.1,181.6 381.3,179.4 381.6,179.4 381.8,179.4 382.0,182.3 382.2,179.8 382.4,179.0 382.6,178.6 382.8,178.6 383.1,180.6 383.3,181.4 383.5,183.5 383.7,188.3 383.9,190.3 384.1,188.8 384.3,210.6 384.6,196.7 384.8,192.4 385.0,195.0 385.2,194.8 385.4,185.3 385.6,183.1 385.8,183.7 386.1,183.7 386.3,183.7 386.5,183.7 386.7,186.1 386.9,185.7 387.1,193.8 387.3,187.9 387.5,198.6 387.8,194.8 388.0,194.8 388.2,194.8 388.4,199.6 388.6,194.8 388.8,194.3 389.0,194.8 389.3,197.2 389.5,197.2 389.7,199.1 389.9,199.1 390.1,199.1 390.3,199.1 390.5,194.9 390.8,196.0 391.0,196.7 391.2,196.7 391.4,192.4 391.6,190.6 391.8,187.9 392.0,185.7 392.3,184.4 392.5,184.4 392.7,183.5 392.9,194.8 393.1,192.4 393.3,184.0 393.5,188.6 393.8,185.7 394.0,186.6 394.2,185.7 394.4,183.7 394.6,185.7 394.8,187.9 395.0,188.8 395.3,182.7 395.5,181.4 395.7,177.4 395.9,177.4 396.1,179.4 396.3,179.4 396.5,175.4 396.8,181.4 397.0,179.4 397.2,181.4 397.4,179.4 397.6,177.8 397.8,179.4 398.0,178.2 398.3,179.8 398.5,179.8 398.7,179.8 398.9,181.4 399.1,180.2 399.3,182.9 399.5,182.9 399.8,181.9 400.0,172.4 400.2,171.5 400.4,177.0 400.6,171.5 400.8,171.5 401.0,171.1 401.2,171.5 401.5,173.0 401.7,173.4 401.9,176.1 402.1,177.4 402.3,175.4 402.5,175.4 402.7,175.4 403.0,175.4 403.2,172.5 403.4,171.9 403.6,175.4 403.8,175.4 404.0,175.4 404.2,178.6 404.5,178.6 404.7,179.4 404.9,175.4 405.1,175.4 405.3,177.0 405.5,176.2 405.7,176.0 406.0,178.4 406.2,179.0 406.4,176.6 406.6,183.5 406.8,179.1 407.0,179.1 407.2,181.4 407.5,181.4 407.7,175.4 407.9,175.4 408.1,175.4 408.3,175.4 408.5,176.4 408.7,177.8 409.0,175.4 409.2,184.8 409.4,178.2 409.6,177.5 409.8,177.0 410.0,177.0 410.2,177.0 410.5,179.5 410.7,176.6 410.9,176.4 411.1,179.4 411.3,181.4 411.5,184.4 411.7,184.4 412.0,183.5 412.2,181.4 412.4,177.8 412.6,181.4 412.8,183.5 413.0,183.5 413.2,180.2 413.5,181.4 413.7,181.4 413.9,182.7 414.1,181.4 414.3,183.5 414.5,206.8 414.7,216.3 415.0,216.2 415.2,224.9 415.4,227.5 415.6,226.8 415.8,203.4 416.0,207.4 416.2,210.1 416.4,211.2 416.7,210.1 416.9,210.1 417.1,208.8 417.3,212.3 417.5,212.3 417.7,207.4 417.9,207.4 418.2,207.4 418.4,215.7 418.6,215.7 418.8,218.7 419.0,218.0 419.2,214.6 419.4,213.4 419.7,212.9 419.9,212.9 420.1,215.7 420.3,215.7 420.5,212.9 420.7,218.7 420.9,214.6 421.2,212.9 421.4,215.7 421.6,211.7 421.8,210.1 422.0,215.7 422.2,212.9 422.4,212.9 422.7,215.7 422.9,215.7 423.1,216.7 423.3,212.9 423.5,215.7 423.7,214.6 423.9,212.3 424.2,212.8 424.4,212.9 424.6,212.9 424.8,210.1 425.0,212.9 425.2,212.9 425.4,211.2 425.7,210.1 425.9,212.9 426.1,212.9 426.3,212.9 426.5,208.5 426.7,212.9 426.9,208.4 427.2,210.1 427.4,210.1 427.6,212.9 427.8,211.3 428.0,210.6 428.2,212.9 428.4,212.9 428.7,212.9 428.9,213.2 429.1,212.9 429.3,217.5 429.5,212.9 429.7,212.9 429.9,217.2 430.1,215.7 430.4,210.1 430.6,214.0 430.8,210.1 431.0,211.0 431.2,212.3 431.4,212.9 431.6,212.9 431.9,212.9 432.1,218.1 432.3,213.4 432.5,217.5 432.7,215.7 432.9,217.5 433.1,217.5 433.4,210.6 433.6,217.5 433.8,215.2 434.0,217.2 434.2,215.7 434.4,213.7 434.6,216.3 434.9,216.9 435.1,215.7 435.3,218.7 435.5,221.7 435.7,219.2 435.9,221.1 436.1,218.1 436.4,221.1 436.6,227.5 436.8,224.3 437.0,222.4 437.2,221.7 437.4,223.1 437.6,226.8 437.9,224.9 438.1,227.5 438.3,221.7 438.5,226.4 438.7,227.5 438.9,228.1 439.1,230.1 439.4,227.3 439.6,227.3 439.8,225.5 440.0,224.3 440.2,227.7 440.4,231.5 440.6,231.5 440.9,231.5 441.1,232.0 441.3,231.5 441.5,231.5 441.7,230.8 441.9,231.5 442.1,230.1 442.4,231.5 442.6,231.5 442.8,234.9 443.0,233.3 443.2,231.5 443.4,231.5 443.6,231.5 443.9,230.8 444.1,231.0 444.3,230.8 444.5,230.8 444.7,228.1 444.9,225.7 445.1,218.7 445.3,218.7 445.6,225.2 445.8,224.9 446.0,226.6 446.2,228.1 446.4,226.2 446.6,224.9 446.8,224.9 447.1,225.5 447.3,218.7 447.5,223.3 447.7,223.3 447.9,223.3 448.1,220.5 448.3,219.9 448.6,223.6 448.8,221.7 449.0,221.7 449.2,219.9 449.4,219.9 449.6,219.9 449.8,222.4 450.1,222.6 450.3,221.7 450.5,219.3 450.7,223.6 450.9,218.7 451.1,219.4 451.3,218.7 451.6,216.9 451.8,218.7 452.0,218.7 452.2,218.7 452.4,219.3 452.6,221.7 452.8,223.6 453.1,219.3 453.3,218.7 453.5,218.7 453.7,219.3 453.9,226.2 454.1,223.0 454.3,224.3 454.6,225.8 454.8,226.2 455.0,231.1 455.2,229.4 455.4,231.5 455.6,231.5 455.8,231.5 456.1,239.0 456.3,238.5 456.5,235.6 456.7,235.6 456.9,236.3 457.1,235.6 457.3,235.6 457.6,235.6 457.8,235.6 458.0,235.6 458.2,234.9 458.4,237.1 458.6,232.2 458.8,234.9 459.0,234.2 459.3,231.5 459.5,235.3 459.7,235.3 459.9,234.2 460.1,234.2 460.3,223.0 460.5,229.4 460.8,217.7 461.0,226.2 461.2,226.2 461.4,224.9 461.6,224.9 461.8,220.1 462.0,223.4 462.3,224.9 462.5,228.1 462.7,227.5 462.9,227.5 463.1,227.2 463.3,226.2 463.5,227.5 463.8,227.5 464.0,228.1 464.2,228.1 464.4,228.1 464.6,221.7 464.8,221.7 465.0,226.2 465.3,224.9 465.5,224.9 465.7,226.2 465.9,221.7 466.1,224.3 466.3,224.3 466.5,223.0 466.8,224.3 467.0,218.7 467.2,218.7 467.4,216.9 467.6,216.9 467.8,218.7 468.0,221.7 468.3,218.7 468.5,216.3 468.7,219.3 468.9,219.3 469.1,218.1 469.3,219.3 469.5,221.1 469.8,221.7 470.0,217.4 470.2,221.1 470.4,219.9 470.6,219.9 470.8,219.2 471.0,221.7 471.3,218.1 471.5,219.0 471.7,220.5 471.9,218.7 472.1,217.5 472.3,217.5 472.5,218.7 472.8,215.7 473.0,211.3 473.2,216.9 473.4,215.7 473.6,210.4 473.8,214.6 474.0,214.4 474.2,211.7 474.5,213.3 474.7,211.2 474.9,211.7 475.1,211.2 475.3,209.5 475.5,210.1 475.7,211.7 476.0,210.6 476.2,210.1 476.4,202.1 476.6,209.3 476.8,207.9 477.0,207.4 477.2,207.4 477.5,208.4 477.7,204.7 477.9,208.4 478.1,210.1 478.3,209.5 478.5,206.3 478.7,212.9 479.0,212.3 479.2,212.3 479.4,212.3 479.6,212.3 479.8,212.0 480.0,212.1 480.2,212.1 480.5,208.7 480.7,212.3 480.9,208.8 481.1,212.9 481.3,218.7 481.5,215.7 481.7,215.7 482.0,215.7 482.2,215.7 482.4,216.3 482.6,218.3 482.8,217.5 483.0,214.6 483.2,211.7 483.5,218.1 483.7,218.1 483.9,217.5 484.1,216.2 484.3,216.2 484.5,218.7 484.7,223.0 485.0,221.7 485.2,221.7 485.4,234.9 485.6,234.2 485.8,229.5 486.0,222.4 486.2,228.8 486.5,226.8 486.7,237.8 486.9,235.6 487.1,234.4 487.3,235.6 487.5,235.6 487.7,237.4 487.9,237.4 488.2,240.0 488.4,244.5 488.6,243.7 488.8,238.5 489.0,237.8 489.2,235.6 489.4,233.5 489.7,235.6 489.9,235.6 490.1,231.5 490.3,243.3 490.5,234.2 490.7,247.6 490.9,236.3 491.2,236.3 491.4,234.9 491.6,232.9 491.8,219.9 492.0,225.8 492.2,221.7 492.4,219.9 492.7,224.9 492.9,226.2 493.1,224.3 493.3,224.3 493.5,224.3 493.7,231.5 493.9,228.1 494.2,228.1 494.4,230.8 494.6,232.0 494.8,232.2 495.0,231.3 495.2,234.4 495.4,231.1 495.7,228.1 495.9,228.8 496.1,226.2 496.3,224.9 496.5,228.1 496.7,223.6 496.9,228.1 497.2,227.5 497.4,227.5 497.6,226.5 497.8,227.5 498.0,226.8 498.2,224.9 498.4,225.8 498.7,224.9 498.9,224.3 499.1,224.9 499.3,224.9 499.5,231.2 499.7,227.1 499.9,226.2 500.2,227.5 500.4,232.2 500.6,231.4 500.8,234.9 501.0,231.5 501.2,227.5 501.4,234.9 501.6,226.8 501.9,230.7 502.1,226.8 502.3,234.9 502.5,228.1 502.7,239.2 502.9,234.6 503.1,240.0 503.4,232.5 503.6,236.0 503.8,231.5 504.0,234.9 504.2,237.1 504.4,227.5 504.6,231.5 504.9,231.5 505.1,231.5 505.3,232.8 505.5,230.8 505.7,232.2 505.9,231.5 506.1,231.5 506.4,227.5 506.6,227.5 506.8,230.8 507.0,233.5 507.2,234.9 507.4,234.9 507.6,226.2 507.9,233.0 508.1,231.5 508.3,231.5 508.5,226.8 508.7,225.5 508.9,231.5 509.1,231.5 509.4,231.5 509.6,235.6 509.8,238.5 510.0,231.5 510.2,232.2 510.4,230.1 510.6,230.1 510.9,230.1 511.1,230.1 511.3,230.1 511.5,230.8 511.7,235.0 511.9,234.9 512.1,234.2 512.4,239.9 512.6,233.5 512.8,234.9 513.0,240.0 513.2,240.0 513.4,242.7 513.6,241.7 513.9,248.4 514.1,246.1 514.3,240.7 514.5,243.0 514.7,243.0 514.9,239.2 515.1,243.2 515.4,243.7 515.6,248.4 515.8,246.1 516.0,248.9 516.2,247.6 516.4,247.6 516.6,246.8 516.8,245.3 517.1,247.6 517.3,247.8 517.5,246.8 517.7,237.1 517.9,249.2 518.1,249.2 518.3,249.2 518.6,239.5 518.8,240.6 519.0,236.6 519.2,237.1 519.4,235.6 519.6,237.1 519.8,234.9 520.1,232.2 520.3,233.5 520.5,234.9 520.7,234.9 520.9,229.4 521.1,230.8 521.3,231.5 521.6,231.5 521.8,231.5 522.0,231.5 522.2,234.9 522.4,234.9 522.6,233.5 522.8,231.3 523.1,234.9 523.3,228.1 523.5,231.5 523.7,232.8 523.9,230.8 524.1,229.4 524.3,228.8 524.6,229.4 524.8,226.2 525.0,224.9 525.2,224.9 525.4,221.1 525.6,224.3 525.8,221.4 526.1,218.1 526.3,224.3 526.5,221.1 526.7,216.9 526.9,223.6 527.1,222.4 527.3,221.7 527.6,222.4 527.8,219.3 528.0,222.4 528.2,223.0 528.4,221.7 528.6,221.1 528.8,221.1 529.1,218.7 529.3,223.6 529.5,220.5 529.7,221.1 529.9,221.1 530.1,221.1 530.3,223.6 530.5,220.5 530.8,220.5 531.0,220.3 531.2,217.5 531.4,221.8 531.6,219.9 531.8,219.6 532.0,219.9 532.3,219.9 532.5,220.6 532.7,219.3 532.9,219.3 533.1,221.7 533.3,219.3 533.5,220.3 533.8,219.9 534.0,223.0 534.2,222.7 534.4,219.3 534.6,223.6 534.8,222.4 535.0,223.0 535.3,223.0 535.5,221.7 535.7,221.1 535.9,221.1 536.1,224.3 536.3,224.3 536.5,224.3 536.8,224.3 537.0,223.6 537.2,222.0 537.4,222.5 537.6,223.6 537.8,224.9 538.0,224.9 538.3,224.9 538.5,224.9 538.7,224.9 538.9,224.9 539.1,222.1 539.3,222.1 539.5,224.9 539.8,224.9 540.0,224.3 540.2,224.9 540.4,224.1 540.6,223.0 540.8,219.3 541.0,216.9 541.3,215.7 541.5,224.3 541.7,224.3 541.9,216.3 542.1,216.3 542.3,221.7 542.5,221.7 542.8,224.9 543.0,224.9 543.2,224.9 543.4,228.1 543.6,223.0 543.8,217.5 544.0,226.2 544.3,224.9 544.5,228.1 544.7,227.8 544.9,230.8 545.1,235.6 545.3,232.8 545.5,234.9 545.7,237.8 546.0,238.5 546.2,242.2 546.4,242.2 546.6,243.3 546.8,245.3 547.0,246.1 547.2,244.5 547.5,244.5 547.7,250.1 547.9,245.3 548.1,237.9 548.3,243.7 548.5,243.0 548.7,243.0 549.0,245.3 549.2,246.1 549.4,272.8 549.6,264.0 549.8,267.8 550.0,267.8 550.2,267.8 550.5,266.9 550.7,265.9 550.9,265.9 551.1,255.9 551.3,255.9 551.5,258.5 551.7,261.3 552.0,258.6 552.2,255.1 552.4,242.2 552.6,251.7 552.8,257.7 553.0,259.5 553.2,254.2 553.5,261.3 553.7,261.3 553.9,258.6 554.1,262.2 554.3,260.3 554.5,259.5 554.7,260.4 555.0,259.5 555.2,262.2 555.4,262.2 555.6,262.2 555.8,261.3 556.0,251.7 556.2,258.6 556.5,267.8 556.7,267.8 556.9,267.4 557.1,267.4 557.3,269.8 557.5,269.8 557.7,269.8 558.0,269.8 558.2,267.8 558.4,266.9 558.6,268.8 558.8,270.8 559.0,263.6 559.2,272.8 559.4,278.8 559.7,279.8 559.9,267.8 560.1,275.9 560.3,266.9 560.5,258.6 560.7,266.9 560.9,272.8 561.2,264.2 561.4,267.8 561.6,267.8 561.8,266.9 562.0,293.1 562.2,307.3 562.4,310.7 562.7,313.7 562.9,313.7 563.1,309.2 563.3,299.9 563.5,304.2 563.7,305.1 563.9,311.3 564.2,310.7 564.4,313.1 564.6,312.9 564.8,313.7 565.0,313.7 565.2,300.4 565.4,304.9 565.7,304.9 565.9,309.2 566.1,311.4 566.3,306.3 566.5,306.3 566.7,306.3 566.9,308.2 567.2,306.3 567.4,311.4 567.6,306.0 567.8,304.8 568.0,303.9 568.2,303.8 568.4,304.2 568.7,304.2 568.9,311.4 569.1,311.4 569.3,312.6 569.5,317.5 569.7,317.5 569.9,317.5 570.2,313.1 570.4,313.1 570.6,310.2 570.8,308.5 571.0,308.5 571.2,308.5 571.4,308.5 571.7,310.4 571.9,310.4 572.1,310.4 572.3,299.5 572.5,297.6 572.7,305.6 572.9,306.3 573.2,290.0 573.4,289.4 573.6,300.5 573.8,300.5 574.0,294.6 574.2,305.3 574.4,304.9 574.6,295.6 574.9,295.6 575.1,309.9 575.3,309.9 575.5,309.9 575.7,295.6 575.9,283.3 576.1,280.4 576.4,302.8 576.6,295.8 576.8,303.5 577.0,303.5 577.2,298.2 577.4,303.5 577.6,297.5 577.9,288.2 578.1,303.5 578.3,296.9 578.5,302.2 578.7,299.3 578.9,299.3 579.1,299.3 579.4,295.6 579.6,299.3 579.8,294.7 580.0,295.6 580.2,291.6 580.4,289.4 580.6,283.6 580.9,283.6 581.1,293.2 581.3,293.2 581.5,304.9 581.7,292.7 581.9,292.4 582.1,292.4 582.4,285.9 582.6,285.9 582.8,285.9 583.0,287.0 583.2,287.0 583.4,286.8 583.6,285.9 583.9,285.9 584.1,285.9 584.3,285.9 584.5,285.9 584.7,285.9 584.9,284.1 585.1,284.1 585.4,284.7 585.6,283.6 585.8,284.7 586.0,288.1 586.2,284.7 586.4,284.7 586.6,254.2 586.9,254.2 587.1,254.2 587.3,254.2 587.5,254.2 587.7,273.0 587.9,282.3 588.1,274.5 588.3,280.2 588.6,280.2 588.8,280.2 589.0,279.9 589.2,279.9 589.4,276.5 589.6,275.9 589.8,275.9 590.1,272.8 590.3,272.8 590.5,273.8 590.7,273.8 590.9,275.1 591.1,276.0 591.3,274.8 591.6,277.5 591.8,277.5 592.0,277.5 592.2,271.8 592.4,271.8 592.6,273.8 592.8,269.8 593.1,273.8 593.3,266.9 593.5,267.8 593.7,270.8 593.9,270.8 594.1,268.8 594.3,270.8 594.6,270.8 594.8,270.8 595.0,270.8 595.2,270.8 595.4,270.8 595.6,270.8 595.8,270.8 596.1,269.8 596.3,269.8 596.5,269.8 596.7,268.8 596.9,268.8 597.1,270.8 597.3,267.8 597.6,266.9 597.8,269.8 598.0,266.9 598.2,266.9 598.4,262.7 598.6,262.7 598.8,262.7 599.1,262.7 599.3,262.6 599.5,262.6 599.7,265.0 599.9,262.7 600.1,261.3 600.3,261.3 600.6,262.2 600.8,262.2 601.0,263.1 601.2,262.5 601.4,259.3 601.6,260.4 601.8,259.5 602.1,258.7 602.3,250.9 602.5,254.2 602.7,253.4 602.9,250.1 603.1,250.1 603.3,253.2 603.5,228.1 603.8,255.1 604.0,255.1 604.2,257.7 604.4,257.7 604.6,253.4 604.8,261.3 605.0,254.2 605.3,246.1 605.5,250.1 605.7,250.1 605.9,248.4 606.1,235.8 606.3,250.1 606.5,246.1 606.8,246.1 607.0,237.1 607.2,246.1 607.4,250.1 607.6,250.1 607.8,247.6 608.0,246.1 608.3,250.1 608.5,250.1 608.7,254.2 608.9,246.1 609.1,250.1 609.3,248.4 609.5,255.1 609.8,258.6 610.0,246.1 610.2,254.2 610.4,254.2 610.6,247.6 610.8,254.2 611.0,256.8 611.3,256.8 611.5,258.6 611.7,258.6 611.9,247.6 612.1,247.6 612.3,254.2 612.5,258.6 612.8,258.6 613.0,258.6 613.2,258.6 613.4,258.6 613.6,259.5 613.8,259.5 614.0,258.6 614.3,255.9 614.5,255.9 614.7,255.9 614.9,262.2 615.1,261.3 615.3,261.3 615.5,261.3 615.8,262.2 616.0,267.8 616.2,267.8 616.4,261.3 616.6,266.9 616.8,266.9 617.0,254.2 617.2,251.7 617.5,254.2 617.7,254.2 617.9,254.2 618.1,250.1 618.3,250.1 618.5,250.1 618.7,250.1 619.0,250.1 619.2,250.1 619.4,252.0 619.6,249.2 619.8,250.1 620.0,250.1 620.2,245.3 620.5,248.4 620.7,250.9 620.9,247.6 621.1,240.0 621.3,241.8 621.5,251.7 621.7,251.7 622.0,256.8 622.2,250.9 622.4,251.7 622.6,257.2 622.8,251.7 623.0,250.9 623.2,246.8 623.5,243.7 623.7,248.4 623.9,246.1 624.1,231.5 624.3,243.7 624.5,246.1 624.7,242.1 625.0,246.1 625.2,250.1 625.4,250.1 625.6,251.7 625.8,249.7 626.0,247.6 626.2,246.8 626.5,245.3 626.7,243.7 626.9,249.2 627.1,246.1 627.3,248.4 627.5,248.4 627.7,250.1 628.0,250.1 628.2,250.2 628.4,246.1 628.6,246.1 628.8,246.1 629.0,244.7 629.2,242.2 629.5,239.2 629.7,237.1 629.9,234.2 630.1,234.2 630.3,230.1 630.5,218.7 630.7,211.7 630.9,212.9 631.2,215.7 631.4,207.4 631.6,205.8 631.8,207.4 632.0,209.9 632.2,210.1 632.4,203.7 632.7,195.9 632.9,202.1 633.1,207.9 633.3,206.3 633.5,191.9 633.7,180.2 633.9,181.4 634.2,181.4 634.4,182.3 634.6,181.0 634.8,180.6 635.0,175.0 635.2,162.2 635.4,164.9 635.7,167.8 635.9,175.1 636.1,161.5 636.3,157.1 636.5,155.8 636.7,160.8 636.9,164.2 637.2,163.5 637.4,165.3 637.6,164.6 637.8,159.1 638.0,164.9 638.2,166.0 638.4,164.2 638.7,163.9 638.9,164.1 639.1,163.2 639.3,161.5 639.5,158.8 639.7,158.8 639.9,158.4 640.2,158.4 640.4,158.8 640.6,161.8 640.8,161.1 641.0,160.8 641.2,164.2 641.4,163.5 641.7,162.2 641.9,160.8 642.1,162.2 642.3,162.5 642.5,162.8 642.7,163.5 642.9,169.7 643.2,169.7 643.4,177.0 643.6,171.1 643.8,171.5 644.0,175.0 644.2,176.6 644.4,175.0 644.7,179.4 644.9,177.4 645.1,175.8 645.3,177.4 645.5,180.2 645.7,179.8 645.9,179.4 646.1,179.4 646.4,179.8 646.6,181.0 646.8,181.0 647.0,184.8 647.2,180.6 647.4,187.4 647.6,192.9 647.9,196.7 648.1,194.8 648.3,199.1 648.5,199.8 648.7,190.6 648.9,182.3 649.1,183.5 649.4,187.4 649.6,187.9 649.8,187.9 650.0,187.4 650.2,190.1 650.4,192.4 650.6,193.3 650.9,191.5 651.1,191.9 651.3,192.4 651.5,192.0 651.7,191.9 651.9,191.9 652.1,186.6 652.4,191.0 652.6,191.9 652.8,190.1 653.0,187.4 653.2,193.3 653.4,187.0 653.6,192.4 653.9,192.4 654.1,187.9 654.3,190.1 654.5,190.1 654.7,188.8 654.9,187.9 655.1,183.5 655.4,179.4 655.6,179.0 655.8,179.4 656.0,176.2 656.2,181.9 656.4,183.3 656.6,181.4 656.9,179.0 657.1,178.0 657.3,174.6 657.5,173.0 657.7,171.5 657.9,173.0 658.1,172.7 658.4,172.3 658.6,171.9 658.8,174.6 659.0,170.8 659.2,171.5 659.4,168.9 659.6,167.6 659.8,169.7 660.1,172.3 660.3,172.3 660.5,163.7 660.7,167.5 660.9,164.6 661.1,166.0 661.3,164.6 661.6,164.2 661.8,166.0 662.0,159.4 662.2,159.1 662.4,156.8 662.6,154.5 662.8,152.6 663.1,154.5 663.3,152.6 663.5,153.9 663.7,152.6 663.9,154.8 664.1,155.5 664.3,155.8 664.6,155.8 664.8,155.8 665.0,155.5 665.2,155.8 665.4,154.8 665.6,154.6 665.8,155.8 666.1,154.8 666.3,154.8 666.5,155.2 666.7,157.1 666.9,157.3 667.1,157.4 667.3,157.8 667.6,156.5 667.8,158.8 668.0,157.1 668.2,156.5 668.4,154.8 668.6,154.8 668.8,158.4 669.1,160.8 669.3,160.4 669.5,158.8 669.7,157.4 669.9,157.5 670.1,159.4 670.3,157.6 670.6,160.1 670.8,161.9 671.0,161.8 671.2,161.8 671.4,163.5 671.6,160.4 671.8,160.1 672.1,160.4 672.3,160.4 672.5,160.4 672.7,158.8 672.9,160.4 673.1,161.5 673.3,161.8 673.6,160.8 673.8,162.5 674.0,160.8 674.2,163.9 674.4,162.8 674.6,162.5 674.8,162.8 675.0,161.5 675.3,163.2 675.5,164.2 675.7,164.2 675.9,164.2 676.1,164.2 676.3,163.5 676.5,156.8 676.8,152.6 677.0,153.9 677.2,154.8 677.4,153.6 677.6,152.3 677.8,151.7 678.0,151.7 678.3,151.7 678.5,149.7 678.7,146.9 678.9,148.0 679.1,151.1 679.3,152.6 679.5,150.4 679.8,150.1 680.0,147.4 680.2,147.3 680.4,146.5 680.6,148.9 680.8,143.0 681.0,145.1 681.3,150.8 681.5,145.1 681.7,136.4 681.9,140.8 682.1,140.7 682.3,140.8 682.5,138.6 682.8,141.1 683.0,138.8 683.2,128.9 683.4,121.9 683.6,115.7 683.8,118.3 684.0,119.4 684.3,124.1 684.5,120.6 684.7,115.0 684.9,118.1 685.1,118.3 685.3,119.4 685.5,119.4 685.8,122.2 686.0,120.3 686.2,125.3 686.4,125.3 686.6,123.1 686.8,121.7 687.0,124.8 687.3,128.9 687.5,127.7 687.7,126.5 687.9,128.7 688.1,127.7 688.3,127.7 688.5,129.2 688.7,130.2 689.0,131.4 689.2,130.4 689.4,132.0 689.6,133.5 689.8,132.0 690.0,131.4 690.2,131.7 690.5,130.2 690.7,129.7 690.9,130.2 691.1,136.7 691.3,135.3 691.5,138.6 691.7,138.6 692.0,140.2 692.2,142.2 692.4,148.6 692.6,139.4 692.8,146.5 693.0,144.8 693.2,143.9 693.5,137.8 693.7,135.1 693.9,132.7 694.1,135.1 694.3,132.7 694.5,135.3 694.7,135.3 695.0,136.4 695.2,136.9 695.4,136.7 695.6,138.6 695.8,138.0 696.0,138.0 696.2,139.4 696.5,138.8 696.7,140.5 696.9,140.2 697.1,142.2 697.3,142.2 697.5,136.7 697.7,135.3 698.0,137.2 698.2,140.6 698.4,141.6 698.6,146.7 698.8,157.7 699.0,171.1 699.2,169.7 699.5,218.7 699.7,223.6 699.9,211.7 700.1,202.1 700.3,187.9 700.5,171.5 700.7,173.0 701.0,179.4 701.2,179.4 701.4,174.8 701.6,179.0 701.8,179.2 702.0,179.0 702.2,173.4 702.5,177.0 702.7,177.0 702.9,179.4 703.1,179.4 703.3,179.4 703.5,181.4 703.7,183.5 703.9,178.6 704.2,185.9 704.4,190.3 704.6,190.6 704.8,196.7 705.0,207.4 705.2,226.8 705.4,231.5 705.7,232.8 705.9,221.1 706.1,212.9 706.3,210.1 706.5,206.3 706.7,205.5 706.9,208.4 707.2,212.9 707.4,216.3 707.6,215.7 707.8,198.1 708.0,202.1 708.2,207.4 708.4,240.0 708.7,231.5 708.9,228.1 709.1,232.8 709.3,224.9 709.5,220.5 709.7,215.7 709.9,221.7 710.2,222.4 710.4,219.9 710.6,221.7 710.8,218.7 711.0,228.8 711.2,221.7 711.4,228.1 711.7,234.9 711.9,234.9 712.1,234.9 712.3,228.1 712.5,231.5 712.7,226.2 712.9,232.8 713.2,228.1 713.4,226.2 713.6,226.2 713.8,231.5 714.0,232.8 714.2,232.2 714.4,234.2 714.7,238.5 714.9,241.5 715.1,242.2 715.3,239.2 715.5,239.2 715.7,237.8 715.9,234.9 716.2,231.5 716.4,231.5 716.6,226.8 716.8,226.8 717.0,223.0 717.2,215.7 717.4,217.5 717.6,217.5 717.9,219.9 718.1,223.6 718.3,222.4 718.5,212.3 718.7,217.5 718.9,208.4 719.1,219.3 719.4,212.3 719.6,204.7 719.8,205.8 720.0,208.4 720.2,209.5 720.4,208.4 720.6,211.7 720.9,210.1 721.1,211.2 721.3,217.5 721.5,222.4 721.7,212.9 721.9,220.5 722.1,212.9 722.4,215.7 722.6,218.1 722.8,218.7 723.0,207.4 723.2,203.4 723.4,195.7 723.6,196.2 723.9,198.1 724.1,186.1 724.3,181.4 724.5,174.6 724.7,175.8 724.9,197.2 725.1,202.1 725.4,210.1 725.6,212.9 725.8,205.2 726.0,215.2 726.2,207.9 726.4,210.6 726.6,210.1 726.9,220.5 727.1,228.1 727.3,215.7 727.5,215.7 727.7,215.7 727.9,215.7 728.1,204.7 728.4,205.2 728.6,212.3 728.8,220.9 729.0,230.1 729.2,228.1 729.4,230.1 729.6,224.9 729.9,222.4 730.1,226.2 730.3,224.9 730.5,218.1 730.7,224.9 730.9,228.8 731.1,226.2 731.4,230.1 731.6,226.2 731.8,228.5 732.0,228.1 732.2,229.3 732.4,228.0 732.6,224.9 732.8,228.8 733.1,232.2 733.3,233.5 733.5,230.8 733.7,228.8 733.9,232.8 734.1,239.2 734.3,238.5 734.6,238.5 734.8,229.4 735.0,217.5 735.2,212.9 735.4,211.7 735.6,211.2 735.8,207.4 736.1,204.7 736.3,204.2 736.5,207.4 736.7,204.2 736.9,202.1 737.1,199.6 737.3,202.1 737.6,199.1 737.8,195.2 738.0,192.9 738.2,199.1 738.4,193.3 738.6,194.0 738.8,196.2 739.1,199.8 739.3,202.6 739.5,201.1 739.7,207.9 739.9,166.0 740.1,153.9 740.3,145.4 740.6,146.8 740.8,146.2 741.0,141.6 741.2,143.0 741.4,146.5 741.6,149.5 741.8,143.6 742.1,142.2 742.3,131.7 742.5,133.8 742.7,132.7 742.9,132.2 743.1,132.7 743.3,133.2 743.6,133.5 743.8,131.2 744.0,134.0 744.2,133.8 744.4,132.7 744.6,132.7 744.8,133.0 745.1,131.4 745.3,133.0 745.5,132.5 745.7,131.7 745.9,131.4 746.1,135.5 746.3,166.7 746.5,166.0 746.8,174.2 747.0,170.4 747.2,167.8 747.4,168.2 747.6,170.0 747.8,172.7 748.0,199.6 748.3,201.6 748.5,199.1 748.7,175.4 748.9,178.6 749.1,184.0 749.3,182.7 749.5,184.8 749.8,187.4 750.0,179.4 750.2,187.0 750.4,187.9 750.6,186.1 750.8,191.9 751.0,176.2 751.3,173.0 751.5,223.6 751.7,224.9 751.9,228.1 752.1,219.9 752.3,213.4 752.5,217.5 752.8,214.0 753.0,219.9 753.2,221.1 753.4,220.5 753.6,217.7 753.8,223.6 754.0,225.5 754.3,232.8 754.5,230.1 754.7,228.8 754.9,229.4 755.1,240.7 755.3,227.1 755.5,228.8 755.8,230.8 756.0,232.3 756.2,234.9 756.4,232.8 756.6,244.5 756.8,238.5 757.0,240.0 757.3,238.5 757.5,229.4 757.7,231.5 757.9,226.8 758.1,230.8 758.3,223.0 758.5,220.5 758.8,213.8 759.0,218.1 759.2,227.5 759.4,228.1 759.6,234.9 759.8,234.9 760.0,234.9 760.2,238.5 760.5,241.5 760.7,246.1 760.9,254.2 761.1,256.8 761.3,258.6 761.5,238.5 761.7,240.0 762.0,248.4 762.2,249.5 762.4,241.5 762.6,248.4 762.8,232.8 763.0,228.1 763.2,224.9 763.5,234.2 763.7,234.9 763.9,226.2 764.1,232.8 764.3,230.1 764.5,234.9 764.7,234.9 765.0,221.0 765.2,225.5 765.4,216.3 765.6,226.2 765.8,223.0 766.0,224.9 766.2,218.1 766.5,224.3 766.7,221.7 766.9,219.6 767.1,219.9 767.3,152.9 767.5,148.0 767.7,141.1 768.0,136.1 768.2,132.2 768.4,134.3 768.6,135.9 768.8,134.8 769.0,134.8 769.2,132.4 769.5,130.4 769.7,130.2 769.9,130.9 770.1,131.4 770.3,134.3 770.5,132.7 770.7,131.4 771.0,133.0 771.2,136.7 771.4,142.2 771.6,152.6 771.8,156.1 772.0,160.4 772.2,160.4 772.5,156.1 772.7,150.3 772.9,148.0 773.1,141.1 773.3,139.9 773.5,140.8 773.7,138.6 774.0,138.3 774.2,139.4 774.4,137.5 774.6,138.3 774.8,136.2 775.0,134.0 775.2,132.7 775.4,133.5 775.7,138.8 775.9,135.3 776.1,126.5 776.3,110.7 776.5,105.1 776.7,99.7 776.9,97.9 777.2,104.5 777.4,112.9 777.6,112.9 777.8,121.7 778.0,122.9 778.2,122.0 778.4,119.4 778.7,121.3 778.9,130.7 779.1,127.2 779.3,128.7 779.5,130.7 779.7,131.2 779.9,131.4 780.2,128.7 780.4,130.3 780.6,128.9 780.8,131.4 781.0,131.0 781.2,127.0 781.4,124.1 781.7,127.2 781.9,126.3 782.1,122.9 782.3,125.3 782.5,126.5 782.7,124.0 782.9,126.2 783.2,127.7 783.4,131.4 783.6,131.0 783.8,131.0 784.0,131.4 784.2,134.0 784.4,132.7 784.7,131.7 784.9,129.2 785.1,118.3 785.3,109.1 785.5,114.1 785.7,107.1 785.9,108.7 786.2,116.7 786.4,119.7 786.6,119.0 786.8,111.0 787.0,113.7 787.2,111.8 787.4,108.9 787.7,111.8 787.9,116.1 788.1,116.1 788.3,116.1 788.5,117.4 788.7,114.6 788.9,110.1 789.1,110.1 789.4,109.7 789.6,109.0 789.8,112.2 790.0,112.2 790.2,110.7 790.4,110.8 790.6,112.2 790.9,111.6 791.1,110.5 791.3,114.1 791.5,116.3 791.7,116.7 791.9,119.0 792.1,121.0 792.4,122.4 792.6,118.5 792.8,118.3 793.0,118.5 793.2,117.2 793.4,116.3 793.6,116.3 793.9,118.1 794.1,118.1 794.3,116.7 794.5,116.1 794.7,116.6 794.9,116.3 795.1,115.2 795.4,118.3 795.6,118.3 795.8,118.3 796.0,119.0"/><polyline fill="none" stroke="#16a34a" stroke-width="3" points="78.0,171.5 78.2,175.4 78.4,171.1 78.6,166.4 78.9,164.9 79.1,164.2 79.3,164.2 79.5,164.2 79.7,167.8 79.9,164.2 80.1,167.1 80.4,160.8 80.6,162.4 80.8,162.5 81.0,164.2 81.2,159.4 81.4,161.8 81.6,160.8 81.9,160.8 82.1,164.2 82.3,160.5 82.5,163.9 82.7,167.1 82.9,166.7 83.1,167.1 83.4,160.8 83.6,162.5 83.8,160.8 84.0,162.5 84.2,157.4 84.4,154.2 84.6,150.1 84.9,148.0 85.1,148.6 85.3,152.0 85.5,149.5 85.7,149.5 85.9,151.4 86.1,146.5 86.3,148.0 86.6,149.5 86.8,146.8 87.0,146.8 87.2,146.8 87.4,149.2 87.6,154.2 87.8,153.2 88.1,154.8 88.3,153.6 88.5,153.6 88.7,154.2 88.9,154.0 89.1,155.5 89.3,156.8 89.6,157.1 89.8,159.4 90.0,160.8 90.2,164.2 90.4,160.8 90.6,160.8 90.8,162.5 91.1,164.2 91.3,164.2 91.5,161.1 91.7,164.2 91.9,164.2 92.1,164.2 92.3,166.0 92.6,169.7 92.8,168.9 93.0,171.5 93.2,172.3 93.4,167.8 93.6,167.1 93.8,164.2 94.1,163.9 94.3,163.9 94.5,164.2 94.7,164.9 94.9,164.2 95.1,162.8 95.3,160.1 95.6,160.8 95.8,162.2 96.0,160.8 96.2,164.2 96.4,162.9 96.6,164.2 96.8,160.8 97.1,160.8 97.3,160.4 97.5,160.1 97.7,160.8 97.9,160.8 98.1,160.8 98.3,160.1 98.6,160.1 98.8,159.4 99.0,161.1 99.2,158.4 99.4,161.1 99.6,159.1 99.8,161.3 100.0,160.8 100.3,160.8 100.5,158.1 100.7,158.1 100.9,162.2 101.1,163.9 101.3,163.9 101.5,163.9 101.8,161.1 102.0,161.5 102.2,162.0 102.4,162.5 102.6,161.8 102.8,163.9 103.0,159.1 103.3,161.5 103.5,161.5 103.7,159.1 103.9,162.5 104.1,163.2 104.3,157.8 104.5,156.8 104.8,158.8 105.0,156.8 105.2,160.8 105.4,159.8 105.6,160.8 105.8,159.1 106.0,154.8 106.3,156.1 106.5,156.5 106.7,156.8 106.9,147.4 107.1,152.6 107.3,152.6 107.5,151.1 107.8,148.0 108.0,151.1 108.2,148.0 108.4,151.1 108.6,146.5 108.8,149.5 109.0,145.6 109.3,152.3 109.5,148.0 109.7,152.3 109.9,151.7 110.1,152.0 110.3,151.1 110.5,149.5 110.8,150.8 111.0,150.1 111.2,150.1 111.4,151.1 111.6,147.4 111.8,142.2 112.0,146.4 112.3,146.5 112.5,152.0 112.7,151.1 112.9,149.8 113.1,149.5 113.3,150.4 113.5,151.1 113.8,151.1 114.0,147.4 114.2,151.1 114.4,147.7 114.6,149.5 114.8,151.1 115.0,147.4 115.2,149.5 115.5,148.6 115.7,151.1 115.9,150.8 116.1,149.5 116.3,150.8 116.5,150.1 116.7,151.1 117.0,148.3 117.2,151.1 117.4,147.4 117.6,151.1 117.8,150.8 118.0,149.5 118.2,151.3 118.5,150.1 118.7,146.5 118.9,148.3 119.1,150.4 119.3,150.1 119.5,148.0 119.7,150.4 120.0,150.1 120.2,150.8 120.4,149.5 120.6,150.1 120.8,147.1 121.0,149.2 121.2,148.3 121.5,148.0 121.7,149.2 121.9,143.6 122.1,133.0 122.3,134.3 122.5,135.9 122.7,136.4 123.0,140.5 123.2,139.4 123.4,142.2 123.6,142.2 123.8,138.8 124.0,140.8 124.2,139.4 124.5,140.8 124.7,136.7 124.9,138.0 125.1,137.8 125.3,141.3 125.5,145.6 125.7,142.1 126.0,148.0 126.2,148.0 126.4,149.8 126.6,145.4 126.8,143.2 127.0,145.1 127.2,146.5 127.5,145.6 127.7,148.0 127.9,154.2 128.1,153.9 128.3,152.6 128.5,152.9 128.7,150.1 128.9,152.3 129.2,152.3 129.4,152.6 129.6,152.3 129.8,154.5 130.0,157.1 130.2,152.6 130.4,151.7 130.7,159.8 130.9,155.8 131.1,156.5 131.3,154.5 131.5,154.5 131.7,153.2 131.9,152.3 132.2,150.4 132.4,151.4 132.6,148.0 132.8,148.0 133.0,152.6 133.2,152.6 133.4,152.6 133.7,152.6 133.9,152.6 134.1,156.8 134.3,156.8 134.5,159.1 134.7,152.6 134.9,151.7 135.2,157.1 135.4,151.1 135.6,154.0 135.8,155.8 136.0,157.1 136.2,160.8 136.4,156.7 136.7,162.5 136.9,162.5 137.1,162.5 137.3,156.5 137.5,161.6 137.7,154.9 137.9,161.5 138.2,160.8 138.4,160.8 138.6,154.2 138.8,154.2 139.0,155.5 139.2,152.9 139.4,154.2 139.7,153.3 139.9,150.4 140.1,145.6 140.3,145.6 140.5,146.5 140.7,150.8 140.9,150.1 141.2,151.7 141.4,147.4 141.6,159.1 141.8,159.5 142.0,158.8 142.2,159.5 142.4,159.1 142.6,157.4 142.9,148.9 143.1,157.4 143.3,154.2 143.5,156.1 143.7,148.0 143.9,157.4 144.1,149.2 144.4,154.2 144.6,152.6 144.8,149.5 145.0,155.5 145.2,151.1 145.4,151.1 145.6,155.8 145.9,152.8 146.1,152.7 146.3,148.5 146.5,148.6 146.7,148.3 146.9,148.0 147.1,147.4 147.4,149.5 147.6,147.4 147.8,147.1 148.0,149.2 148.2,148.9 148.4,148.6 148.6,149.2 148.9,149.5 149.1,146.5 149.3,146.5 149.5,148.0 149.7,148.0 149.9,148.0 150.1,147.7 150.4,147.1 150.6,145.4 150.8,143.6 151.0,134.3 151.2,130.9 151.4,127.7 151.6,125.7 151.9,127.7 152.1,132.4 152.3,130.2 152.5,132.7 152.7,125.3 152.9,130.2 153.1,127.7 153.4,128.9 153.6,132.8 153.8,132.7 154.0,127.7 154.2,129.2 154.4,128.9 154.6,126.5 154.9,129.7 155.1,127.8 155.3,131.4 155.5,126.5 155.7,124.3 155.9,125.3 156.1,127.5 156.4,124.5 156.6,127.7 156.8,124.3 157.0,128.2 157.2,126.8 157.4,124.3 157.6,127.9 157.8,127.0 158.1,125.3 158.3,125.3 158.5,127.7 158.7,128.9 158.9,127.9 159.1,130.4 159.3,128.9 159.6,128.2 159.8,132.8 160.0,130.2 160.2,132.2 160.4,128.2 160.6,128.4 160.8,134.6 161.1,127.7 161.3,130.7 161.5,133.0 161.7,132.7 161.9,134.0 162.1,132.0 162.3,134.3 162.6,135.6 162.8,135.8 163.0,136.7 163.2,139.9 163.4,136.7 163.6,139.9 163.8,140.1 164.1,139.7 164.3,140.2 164.5,147.4 164.7,145.1 164.9,145.1 165.1,147.4 165.3,149.2 165.6,151.1 165.8,150.7 166.0,145.1 166.2,142.8 166.4,144.5 166.6,144.5 166.8,148.9 167.1,148.0 167.3,146.8 167.5,148.9 167.7,146.8 167.9,147.4 168.1,144.5 168.3,144.5 168.6,143.9 168.8,144.8 169.0,143.9 169.2,141.6 169.4,141.3 169.6,139.4 169.8,139.4 170.1,134.0 170.3,138.3 170.5,142.5 170.7,143.9 170.9,138.2 171.1,139.4 171.3,136.7 171.5,141.2 171.8,145.3 172.0,147.0 172.2,151.1 172.4,153.6 172.6,156.5 172.8,153.2 173.0,152.9 173.3,154.8 173.5,160.8 173.7,158.4 173.9,156.5 174.1,155.8 174.3,156.8 174.5,155.8 174.8,154.6 175.0,155.5 175.2,156.1 175.4,160.1 175.6,171.3 175.8,173.0 176.0,171.9 176.3,169.0 176.5,169.7 176.7,175.0 176.9,179.4 177.1,175.6 177.3,175.5 177.5,175.4 177.8,177.4 178.0,188.1 178.2,181.0 178.4,179.8 178.6,177.0 178.8,164.4 179.0,159.1 179.3,154.6 179.5,153.9 179.7,152.6 179.9,152.6 180.1,142.2 180.3,145.1 180.5,144.5 180.8,144.2 181.0,143.3 181.2,139.7 181.4,139.4 181.6,139.4 181.8,135.6 182.0,133.5 182.3,133.5 182.5,134.0 182.7,133.5 182.9,134.0 183.1,134.0 183.3,134.0 183.5,136.1 183.8,135.1 184.0,135.4 184.2,135.3 184.4,135.5 184.6,135.9 184.8,138.0 185.0,137.0 185.3,134.8 185.5,134.0 185.7,134.0 185.9,132.8 186.1,134.6 186.3,134.3 186.5,135.3 186.7,135.6 187.0,134.3 187.2,134.0 187.4,132.7 187.6,132.7 187.8,131.4 188.0,132.7 188.2,133.0 188.5,135.3 188.7,134.0 188.9,134.0 189.1,134.0 189.3,138.6 189.5,134.5 189.7,136.4 190.0,134.8 190.2,134.0 190.4,134.6 190.6,134.3 190.8,134.0 191.0,134.6 191.2,134.8 191.5,134.6 191.7,135.3 191.9,135.3 192.1,134.8 192.3,135.1 192.5,136.9 192.7,136.4 193.0,134.6 193.2,134.8 193.4,134.8 193.6,134.8 193.8,142.9 194.0,138.0 194.2,136.7 194.5,136.7 194.7,136.7 194.9,137.2 195.1,136.4 195.3,135.3 195.5,136.1 195.7,135.6 196.0,135.6 196.2,135.6 196.4,135.3 196.6,134.6 196.8,134.0 197.0,134.0 197.2,136.1 197.5,134.8 197.7,136.5 197.9,135.3 198.1,135.3 198.3,135.3 198.5,135.6 198.7,135.6 199.0,135.6 199.2,134.0 199.4,132.0 199.6,131.4 199.8,131.7 200.0,131.7 200.2,131.7 200.4,132.2 200.7,131.7 200.9,131.7 201.1,132.0 201.3,131.7 201.5,131.7 201.7,130.2 201.9,133.2 202.2,133.8 202.4,134.0 202.6,134.8 202.8,134.0 203.0,134.0 203.2,135.1 203.4,134.3 203.7,134.8 203.9,134.0 204.1,135.9 204.3,135.3 204.5,136.9 204.7,138.6 204.9,140.8 205.2,138.0 205.4,139.4 205.6,141.1 205.8,148.0 206.0,151.7 206.2,157.8 206.4,152.6 206.7,154.2 206.9,152.6 207.1,152.9 207.3,150.1 207.5,145.6 207.7,143.0 207.9,143.6 208.2,147.4 208.4,154.2 208.6,145.1 208.8,156.1 209.0,161.8 209.2,160.1 209.4,162.5 209.7,161.1 209.9,167.8 210.1,167.8 210.3,167.5 210.5,169.7 210.7,167.5 210.9,171.9 211.2,169.7 211.4,169.7 211.6,169.2 211.8,170.7 212.0,170.0 212.2,173.4 212.4,171.5 212.7,171.5 212.9,170.8 213.1,171.1 213.3,173.4 213.5,171.5 213.7,171.5 213.9,171.9 214.2,177.4 214.4,179.4 214.6,179.4 214.8,180.6 215.0,167.8 215.2,171.9 215.4,171.9 215.6,179.5 215.9,168.2 216.1,168.9 216.3,167.8 216.5,170.4 216.7,169.7 216.9,172.7 217.1,171.5 217.4,167.1 217.6,171.1 217.8,170.8 218.0,169.7 218.2,169.7 218.4,162.5 218.6,161.1 218.9,168.6 219.1,163.5 219.3,156.1 219.5,157.1 219.7,155.8 219.9,160.8 220.1,157.4 220.4,161.1 220.6,165.7 220.8,166.0 221.0,171.9 221.2,170.4 221.4,163.9 221.6,160.8 221.9,160.8 222.1,164.1 222.3,170.8 222.5,170.8 222.7,167.8 222.9,172.7 223.1,161.5 223.4,164.2 223.6,167.5 223.8,164.2 224.0,162.5 224.2,160.8 224.4,164.2 224.6,167.8 224.9,168.5 225.1,164.2 225.3,178.6 225.5,173.4 225.7,174.2 225.9,177.4 226.1,172.7 226.4,176.2 226.6,176.6 226.8,176.9 227.0,175.8 227.2,175.4 227.4,178.6 227.6,179.4 227.9,179.4 228.1,179.4 228.3,182.7 228.5,182.5 228.7,178.3 228.9,180.2 229.1,181.0 229.3,175.4 229.6,181.0 229.8,177.4 230.0,177.4 230.2,177.4 230.4,181.5 230.6,180.6 230.8,184.8 231.1,192.4 231.3,187.0 231.5,186.1 231.7,189.7 231.9,185.7 232.1,187.0 232.3,180.9 232.6,180.6 232.8,179.8 233.0,181.4 233.2,179.4 233.4,179.8 233.6,172.7 233.8,161.1 234.1,161.3 234.3,161.1 234.5,162.5 234.7,160.8 234.9,157.1 235.1,160.8 235.3,155.8 235.6,140.8 235.8,132.1 236.0,125.3 236.2,125.3 236.4,119.9 236.6,119.9 236.8,119.9 237.1,119.9 237.3,114.0 237.5,116.3 237.7,120.6 237.9,131.4 238.1,129.4 238.3,126.6 238.6,125.5 238.8,126.0 239.0,120.1 239.2,119.4 239.4,120.6 239.6,120.8 239.8,120.6 240.1,120.6 240.3,121.7 240.5,120.6 240.7,119.7 240.9,119.7 241.1,118.5 241.3,121.0 241.6,120.1 241.8,120.3 242.0,123.4 242.2,122.4 242.4,119.7 242.6,120.1 242.8,118.8 243.1,119.4 243.3,119.7 243.5,122.2 243.7,122.3 243.9,120.6 244.1,117.9 244.3,117.9 244.5,108.9 244.8,109.7 245.0,110.5 245.2,108.7 245.4,111.8 245.6,108.7 245.8,107.9 246.0,110.7 246.3,109.1 246.5,110.1 246.7,111.8 246.9,114.1 247.1,116.1 247.3,110.1 247.5,109.9 247.8,109.7 248.0,109.7 248.2,108.7 248.4,111.8 248.6,108.7 248.8,122.2 249.0,121.0 249.3,122.4 249.5,122.1 249.7,122.9 249.9,125.3 250.1,123.9 250.3,123.8 250.5,177.4 250.8,146.5 251.0,149.5 251.2,150.4 251.4,133.5 251.6,134.0 251.8,136.7 252.0,136.7 252.3,119.4 252.5,119.4 252.7,119.0 252.9,117.2 253.1,115.7 253.3,122.4 253.5,119.7 253.8,121.5 254.0,130.4 254.2,130.4 254.4,130.4 254.6,126.7 254.8,124.1 255.0,124.1 255.3,118.8 255.5,118.3 255.7,120.6 255.9,126.2 256.1,130.2 256.3,130.7 256.5,131.4 256.8,129.7 257.0,129.9 257.2,125.3 257.4,123.1 257.6,124.1 257.8,124.1 258.0,124.1 258.2,124.1 258.5,124.1 258.7,124.1 258.9,124.1 259.1,124.1 259.3,124.1 259.5,124.1 259.7,124.1 260.0,124.1 260.2,124.1 260.4,124.1 260.6,124.1 260.8,124.1 261.0,107.7 261.2,102.9 261.5,102.3 261.7,101.3 261.9,104.7 262.1,104.6 262.3,104.7 262.5,105.2 262.7,104.4 263.0,104.7 263.2,105.8 263.4,117.3 263.6,112.4 263.8,105.1 264.0,110.1 264.2,110.3 264.5,114.1 264.7,105.6 264.9,111.4 265.1,116.3 265.3,114.6 265.5,115.4 265.7,115.0 266.0,116.6 266.2,116.9 266.4,125.5 266.6,127.9 266.8,126.4 267.0,127.0 267.2,131.5 267.5,131.5 267.7,131.4 267.9,129.0 268.1,125.2 268.3,129.0 268.5,127.7 268.7,128.5 269.0,127.7 269.2,130.5 269.4,131.2 269.6,136.7 269.8,128.9 270.0,124.0 270.2,122.1 270.5,122.9 270.7,121.7 270.9,121.7 271.1,126.5 271.3,126.0 271.5,126.0 271.7,131.4 271.9,131.2 272.2,126.5 272.4,132.0 272.6,126.6 272.8,123.8 273.0,126.7 273.2,128.8 273.4,126.6 273.7,123.9 273.9,123.9 274.1,123.9 274.3,123.9 274.5,124.9 274.7,124.0 274.9,123.1 275.2,123.2 275.4,125.1 275.6,127.7 275.8,130.3 276.0,129.9 276.2,130.9 276.4,132.1 276.7,130.4 276.9,129.1 277.1,126.7 277.3,131.2 277.5,125.2 277.7,128.6 277.9,139.4 278.2,144.9 278.4,145.2 278.6,131.5 278.8,134.3 279.0,131.5 279.2,134.3 279.4,134.0 279.7,126.1 279.9,117.6 280.1,123.0 280.3,121.7 280.5,126.7 280.7,125.3 280.9,124.5 281.2,124.9 281.4,131.4 281.6,126.7 281.8,126.9 282.0,131.4 282.2,130.7 282.4,136.8 282.7,127.2 282.9,131.5 283.1,135.6 283.3,134.9 283.5,133.9 283.7,134.1 283.9,135.0 284.2,141.9 284.4,132.4 284.6,136.7 284.8,143.0 285.0,143.3 285.2,146.6 285.4,147.3 285.7,146.3 285.9,145.3 286.1,144.4 286.3,145.4 286.5,146.5 286.7,139.2 286.9,146.0 287.1,143.8 287.4,145.1 287.6,144.4 287.8,146.7 288.0,146.7 288.2,153.2 288.4,149.0 288.6,142.8 288.9,147.8 289.1,148.0 289.3,155.7 289.5,154.0 289.7,156.3 289.9,154.3 290.1,153.7 290.4,154.3 290.6,154.5 290.8,154.4 291.0,155.0 291.2,165.5 291.4,164.4 291.6,165.3 291.9,160.2 292.1,161.0 292.3,165.5 292.5,166.9 292.7,166.9 292.9,167.2 293.1,164.9 293.4,166.7 293.6,162.5 293.8,169.2 294.0,162.4 294.2,165.7 294.4,167.1 294.6,171.3 294.9,170.8 295.1,171.5 295.3,172.7 295.5,169.1 295.7,164.2 295.9,167.5 296.1,169.6 296.4,170.5 296.6,174.6 296.8,175.5 297.0,175.5 297.2,175.2 297.4,175.6 297.6,175.7 297.9,174.7 298.1,168.1 298.3,167.9 298.5,167.9 298.7,169.0 298.9,164.2 299.1,164.2 299.4,173.4 299.6,171.9 299.8,171.8 300.0,171.8 300.2,173.0 300.4,175.0 300.6,175.0 300.8,177.2 301.1,175.0 301.3,186.6 301.5,184.2 301.7,183.6 301.9,183.8 302.1,184.6 302.3,187.8 302.6,189.1 302.8,189.1 303.0,188.2 303.2,187.3 303.4,187.3 303.6,187.3 303.8,187.9 304.1,187.9 304.3,188.8 304.5,190.3 304.7,194.8 304.9,191.0 305.1,190.4 305.3,199.4 305.6,189.9 305.8,192.0 306.0,201.2 306.2,192.3 306.4,190.1 306.6,195.5 306.8,197.2 307.1,196.2 307.3,166.4 307.5,160.7 307.7,164.0 307.9,167.7 308.1,166.1 308.3,168.1 308.6,174.6 308.8,172.8 309.0,169.6 309.2,169.4 309.4,168.4 309.6,168.4 309.8,138.6 310.1,137.4 310.3,141.6 310.5,136.5 310.7,134.8 310.9,133.8 311.1,135.9 311.3,133.7 311.6,137.0 311.8,134.0 312.0,134.1 312.2,135.6 312.4,135.4 312.6,137.2 312.8,138.0 313.1,136.7 313.3,133.5 313.5,134.0 313.7,140.4 313.9,136.8 314.1,143.7 314.3,142.0 314.6,143.6 314.8,143.6 315.0,145.1 315.2,145.1 315.4,143.0 315.6,138.0 315.8,140.8 316.0,136.8 316.3,138.1 316.5,136.7 316.7,136.5 316.9,137.1 317.1,136.6 317.3,139.1 317.5,139.1 317.8,139.1 318.0,138.5 318.2,135.3 318.4,138.0 318.6,139.4 318.8,138.0 319.0,137.4 319.3,137.2 319.5,134.5 319.7,134.0 319.9,133.0 320.1,134.0 320.3,136.8 320.5,138.2 320.8,131.4 321.0,134.0 321.2,134.0 321.4,134.0 321.6,132.7 321.8,132.7 322.0,133.2 322.3,134.6 322.5,132.3 322.7,130.2 322.9,128.9 323.1,133.0 323.3,126.8 323.5,131.7 323.8,134.0 324.0,131.5 324.2,134.0 324.4,131.3 324.6,132.7 324.8,132.7 325.0,126.5 325.3,126.5 325.5,130.2 325.7,130.4 325.9,130.4 326.1,128.2 326.3,129.2 326.5,128.7 326.8,132.0 327.0,131.4 327.2,131.4 327.4,134.1 327.6,132.8 327.8,134.1 328.0,131.3 328.3,131.3 328.5,137.1 328.7,136.7 328.9,135.5 329.1,135.3 329.3,134.0 329.5,138.7 329.7,137.8 330.0,135.6 330.2,139.4 330.4,140.0 330.6,142.3 330.8,142.0 331.0,139.5 331.2,150.5 331.5,160.2 331.7,152.3 331.9,147.4 332.1,148.0 332.3,147.6 332.5,155.1 332.7,157.9 333.0,157.7 333.2,159.1 333.4,157.4 333.6,158.4 333.8,160.4 334.0,160.8 334.2,166.7 334.5,161.5 334.7,164.9 334.9,168.3 335.1,170.0 335.3,169.7 335.5,171.6 335.7,171.6 336.0,169.7 336.2,161.1 336.4,151.4 336.6,156.5 336.8,163.6 337.0,162.7 337.2,159.1 337.5,162.8 337.7,163.1 337.9,162.8 338.1,165.7 338.3,160.8 338.5,160.8 338.7,166.0 339.0,167.6 339.2,167.6 339.4,165.7 339.6,166.4 339.8,174.1 340.0,173.8 340.2,181.6 340.5,184.0 340.7,181.4 340.9,179.4 341.1,184.8 341.3,180.6 341.5,184.4 341.7,181.4 342.0,181.4 342.2,181.4 342.4,181.4 342.6,181.6 342.8,177.4 343.0,174.3 343.2,173.8 343.5,172.5 343.7,179.4 343.9,179.4 344.1,179.4 344.3,172.0 344.5,185.7 344.7,182.0 344.9,175.1 345.2,183.5 345.4,175.6 345.6,175.6 345.8,174.2 346.0,182.3 346.2,181.4 346.4,183.4 346.7,182.7 346.9,182.7 347.1,182.6 347.3,182.2 347.5,177.4 347.7,173.4 347.9,173.4 348.2,178.0 348.4,177.4 348.6,181.4 348.8,175.0 349.0,183.5 349.2,183.5 349.4,175.4 349.7,181.4 349.9,178.6 350.1,179.4 350.3,179.4 350.5,179.4 350.7,179.4 350.9,177.8 351.2,175.4 351.4,174.2 351.6,178.6 351.8,174.2 352.0,174.2 352.2,175.4 352.4,175.4 352.7,173.4 352.9,175.4 353.1,177.0 353.3,176.9 353.5,175.0 353.7,175.0 353.9,179.0 354.2,180.2 354.4,183.5 354.6,193.3 354.8,190.1 355.0,190.1 355.2,190.1 355.4,183.6 355.7,196.7 355.9,190.6 356.1,187.8 356.3,187.9 356.5,193.3 356.7,192.9 356.9,190.1 357.2,190.1 357.4,192.1 357.6,196.7 357.8,195.8 358.0,196.7 358.2,194.5 358.4,190.2 358.6,192.4 358.9,187.4 359.1,192.4 359.3,186.6 359.5,183.5 359.7,183.5 359.9,178.2 360.1,171.5 360.4,182.7 360.6,167.1 360.8,167.2 361.0,167.8 361.2,164.2 361.4,163.5 361.6,177.4 361.9,179.4 362.1,179.0 362.3,179.4 362.5,184.4 362.7,184.8 362.9,181.4 363.1,177.5 363.4,190.1 363.6,185.3 363.8,185.8 364.0,185.8 364.2,185.4 364.4,177.4 364.6,187.1 364.9,177.4 365.1,183.5 365.3,187.9 365.5,179.4 365.7,184.0 365.9,187.4 366.1,187.4 366.4,175.8 366.6,186.1 366.8,185.0 367.0,184.9 367.2,183.6 367.4,182.2 367.6,182.3 367.9,183.7 368.1,178.6 368.3,184.8 368.5,184.8 368.7,180.6 368.9,177.4 369.1,181.4 369.4,181.4 369.6,181.4 369.8,164.2 370.0,167.8 370.2,179.4 370.4,171.8 370.6,181.4 370.9,179.4 371.1,179.4 371.3,177.4 371.5,180.6 371.7,177.4 371.9,181.4 372.1,181.4 372.4,181.4 372.6,182.5 372.8,179.4 373.0,183.5 373.2,181.4 373.4,173.0 373.6,183.9 373.8,179.6 374.1,175.4 374.3,175.2 374.5,173.4 374.7,173.4 374.9,171.5 375.1,179.4 375.3,179.4 375.6,176.7 375.8,177.6 376.0,177.3 376.2,182.9 376.4,181.4 376.6,181.4 376.8,175.5 377.1,179.4 377.3,181.4 377.5,175.4 377.7,179.4 377.9,179.4 378.1,179.4 378.3,179.4 378.6,187.0 378.8,174.2 379.0,174.2 379.2,183.1 379.4,183.1 379.6,176.9 379.8,176.9 380.1,176.9 380.3,181.5 380.5,181.0 380.7,179.8 380.9,179.4 381.1,181.6 381.3,179.4 381.6,179.4 381.8,179.4 382.0,182.3 382.2,179.8 382.4,179.0 382.6,178.6 382.8,178.6 383.1,180.6 383.3,181.4 383.5,183.5 383.7,188.3 383.9,190.3 384.1,188.8 384.3,210.6 384.6,196.7 384.8,192.4 385.0,195.0 385.2,194.8 385.4,185.3 385.6,183.1 385.8,183.7 386.1,183.7 386.3,183.7 386.5,183.7 386.7,186.1 386.9,185.7 387.1,193.8 387.3,187.9 387.5,198.6 387.8,194.8 388.0,194.8 388.2,194.8 388.4,199.6 388.6,194.8 388.8,194.3 389.0,194.8 389.3,197.2 389.5,197.2 389.7,199.1 389.9,199.1 390.1,199.1 390.3,199.1 390.5,194.9 390.8,196.0 391.0,196.7 391.2,196.7 391.4,192.4 391.6,190.6 391.8,187.9 392.0,185.7 392.3,184.4 392.5,184.4 392.7,183.5 392.9,194.8 393.1,192.4 393.3,184.0 393.5,188.6 393.8,185.7 394.0,186.6 394.2,185.7 394.4,183.7 394.6,185.7 394.8,187.9 395.0,188.8 395.3,182.7 395.5,181.4 395.7,177.4 395.9,177.4 396.1,179.4 396.3,179.4 396.5,175.4 396.8,181.4 397.0,179.4 397.2,181.4 397.4,179.4 397.6,177.8 397.8,179.4 398.0,178.2 398.3,179.8 398.5,179.8 398.7,179.8 398.9,181.4 399.1,180.2 399.3,182.9 399.5,182.9 399.8,181.9 400.0,172.4 400.2,171.5 400.4,177.0 400.6,171.5 400.8,171.5 401.0,171.1 401.2,171.5 401.5,173.0 401.7,173.4 401.9,176.1 402.1,177.4 402.3,175.4 402.5,175.4 402.7,175.4 403.0,175.4 403.2,172.5 403.4,171.9 403.6,175.4 403.8,175.4 404.0,175.4 404.2,178.6 404.5,178.6 404.7,179.4 404.9,175.4 405.1,175.4 405.3,177.0 405.5,176.2 405.7,176.0 406.0,178.4 406.2,179.0 406.4,176.6 406.6,183.5 406.8,179.1 407.0,179.1 407.2,181.4 407.5,181.4 407.7,175.4 407.9,175.4 408.1,175.4 408.3,175.4 408.5,176.4 408.7,177.8 409.0,175.4 409.2,184.8 409.4,178.2 409.6,177.5 409.8,177.0 410.0,177.0 410.2,177.0 410.5,179.5 410.7,176.6 410.9,176.4 411.1,179.4 411.3,181.4 411.5,184.4 411.7,184.4 412.0,183.5 412.2,181.4 412.4,177.8 412.6,181.4 412.8,183.5 413.0,183.5 413.2,180.2 413.5,181.4 413.7,181.4 413.9,182.7 414.1,160.0 414.3,162.1 414.5,185.4 414.7,194.9 415.0,194.8 415.2,203.5 415.4,206.1 415.6,205.4 415.8,182.0 416.0,186.0 416.2,188.7 416.4,189.8 416.7,188.7 416.9,188.7 417.1,187.4 417.3,190.9 417.5,190.9 417.7,186.0 417.9,186.0 418.2,186.0 418.4,194.4 418.6,194.4 418.8,197.3 419.0,196.6 419.2,193.2 419.4,192.0 419.7,191.5 419.9,191.5 420.1,194.4 420.3,194.4 420.5,191.5 420.7,197.3 420.9,193.2 421.2,191.5 421.4,194.4 421.6,190.4 421.8,188.7 422.0,194.4 422.2,191.5 422.4,191.5 422.7,194.4 422.9,194.4 423.1,195.3 423.3,191.5 423.5,194.4 423.7,193.2 423.9,190.9 424.2,191.4 424.4,191.5 424.6,191.5 424.8,188.7 425.0,191.5 425.2,191.5 425.4,189.8 425.7,188.7 425.9,191.5 426.1,191.5 426.3,191.5 426.5,187.1 426.7,191.5 426.9,187.0 427.2,188.7 427.4,188.7 427.6,191.5 427.8,189.9 428.0,189.2 428.2,191.5 428.4,191.5 428.7,191.5 428.9,191.8 429.1,191.5 429.3,196.1 429.5,191.5 429.7,191.5 429.9,195.8 430.1,194.4 430.4,188.7 430.6,192.6 430.8,188.7 431.0,189.6 431.2,190.9 431.4,191.5 431.6,191.5 431.9,191.5 432.1,196.7 432.3,192.0 432.5,196.1 432.7,194.4 432.9,196.1 433.1,196.1 433.4,189.2 433.6,196.1 433.8,193.8 434.0,195.8 434.2,194.4 434.4,192.3 434.6,194.9 434.9,195.5 435.1,194.4 435.3,197.3 435.5,200.4 435.7,197.8 435.9,199.7 436.1,196.7 436.4,199.7 436.6,206.1 436.8,202.9 437.0,201.0 437.2,200.4 437.4,201.7 437.6,205.4 437.9,203.5 438.1,206.1 438.3,200.4 438.5,205.0 438.7,206.1 438.9,206.7 439.1,208.7 439.4,205.9 439.6,205.9 439.8,204.1 440.0,202.9 440.2,206.3 440.4,210.1 440.6,210.1 440.9,210.1 441.1,210.6 441.3,210.1 441.5,210.1 441.7,209.4 441.9,210.1 442.1,208.7 442.4,210.1 442.6,210.1 442.8,213.5 443.0,211.9 443.2,210.1 443.4,210.1 443.6,210.1 443.9,209.4 444.1,209.6 444.3,209.4 444.5,209.4 444.7,206.7 444.9,204.3 445.1,197.3 445.3,197.3 445.6,203.8 445.8,203.5 446.0,205.2 446.2,206.7 446.4,204.8 446.6,203.5 446.8,203.5 447.1,204.1 447.3,197.3 447.5,201.9 447.7,201.9 447.9,201.9 448.1,199.1 448.3,198.5 448.6,202.2 448.8,200.4 449.0,200.4 449.2,198.5 449.4,198.5 449.6,198.5 449.8,201.0 450.1,201.2 450.3,200.4 450.5,197.9 450.7,202.2 450.9,197.3 451.1,198.0 451.3,197.3 451.6,195.5 451.8,197.3 452.0,197.3 452.2,197.3 452.4,197.9 452.6,200.4 452.8,202.2 453.1,197.9 453.3,197.3 453.5,197.3 453.7,197.9 453.9,204.8 454.1,201.6 454.3,202.9 454.6,204.4 454.8,204.8 455.0,209.7 455.2,208.1 455.4,210.1 455.6,210.1 455.8,210.1 456.1,217.6 456.3,217.1 456.5,214.2 456.7,214.2 456.9,214.9 457.1,214.2 457.3,214.2 457.6,214.2 457.8,214.2 458.0,214.2 458.2,213.5 458.4,215.7 458.6,210.8 458.8,213.5 459.0,212.8 459.3,210.1 459.5,213.9 459.7,213.9 459.9,212.8 460.1,212.8 460.3,201.6 460.5,208.1 460.8,196.4 461.0,204.8 461.2,204.8 461.4,203.5 461.6,203.5 461.8,198.7 462.0,202.0 462.3,203.5 462.5,206.7 462.7,206.1 462.9,206.1 463.1,205.8 463.3,204.8 463.5,206.1 463.8,206.1 464.0,206.7 464.2,206.7 464.4,206.7 464.6,200.4 464.8,200.4 465.0,204.8 465.3,203.5 465.5,203.5 465.7,204.8 465.9,200.4 466.1,202.9 466.3,202.9 466.5,201.6 466.8,202.9 467.0,197.3 467.2,197.3 467.4,195.5 467.6,195.5 467.8,197.3 468.0,200.4 468.3,197.3 468.5,194.9 468.7,197.9 468.9,197.9 469.1,196.7 469.3,197.9 469.5,199.7 469.8,200.4 470.0,196.0 470.2,199.7 470.4,198.5 470.6,198.5 470.8,197.8 471.0,200.4 471.3,196.7 471.5,197.6 471.7,199.1 471.9,197.3 472.1,196.1 472.3,196.1 472.5,197.3 472.8,194.4 473.0,189.9 473.2,195.5 473.4,194.4 473.6,189.0 473.8,193.2 474.0,193.0 474.2,190.4 474.5,191.9 474.7,189.8 474.9,190.4 475.1,189.8 475.3,188.1 475.5,188.7 475.7,190.4 476.0,189.2 476.2,188.7 476.4,180.7 476.6,187.9 476.8,186.5 477.0,186.0 477.2,186.0 477.5,187.0 477.7,183.3 477.9,187.0 478.1,188.7 478.3,188.1 478.5,184.9 478.7,191.5 479.0,190.9 479.2,190.9 479.4,190.9 479.6,190.9 479.8,190.6 480.0,190.7 480.2,190.7 480.5,187.3 480.7,190.9 480.9,187.4 481.1,191.5 481.3,197.3 481.5,194.4 481.7,194.4 482.0,194.4 482.2,194.4 482.4,194.9 482.6,196.9 482.8,196.1 483.0,193.2 483.2,190.4 483.5,196.7 483.7,196.7 483.9,196.1 484.1,194.8 484.3,194.8 484.5,197.3 484.7,201.6 485.0,200.4 485.2,200.4 485.4,213.5 485.6,212.8 485.8,208.1 486.0,201.0 486.2,207.4 486.5,205.4 486.7,216.4 486.9,214.2 487.1,213.0 487.3,214.2 487.5,214.2 487.7,216.0 487.9,216.0 488.2,218.6 488.4,223.1 488.6,222.3 488.8,217.1 489.0,216.4 489.2,214.2 489.4,212.1 489.7,214.2 489.9,214.2 490.1,210.1 490.3,221.9 490.5,212.8 490.7,226.2 490.9,214.9 491.2,214.9 491.4,213.5 491.6,211.5 491.8,198.5 492.0,204.4 492.2,200.4 492.4,198.5 492.7,203.5 492.9,204.8 493.1,202.9 493.3,202.9 493.5,202.9 493.7,210.1 493.9,206.7 494.2,206.7 494.4,209.4 494.6,210.6 494.8,210.8 495.0,209.9 495.2,213.0 495.4,209.7 495.7,206.7 495.9,207.4 496.1,204.8 496.3,203.5 496.5,206.7 496.7,202.2 496.9,206.7 497.2,206.1 497.4,206.1 497.6,205.1 497.8,206.1 498.0,205.4 498.2,203.5 498.4,204.4 498.7,203.5 498.9,202.9 499.1,203.5 499.3,203.5 499.5,209.8 499.7,205.7 499.9,204.8 500.2,206.1 500.4,210.8 500.6,210.0 500.8,213.5 501.0,210.1 501.2,206.1 501.4,213.5 501.6,205.4 501.9,209.3 502.1,205.4 502.3,213.5 502.5,206.7 502.7,217.8 502.9,213.2 503.1,218.6 503.4,211.1 503.6,214.6 503.8,210.1 504.0,213.5 504.2,215.7 504.4,206.1 504.6,210.1 504.9,210.1 505.1,210.1 505.3,211.4 505.5,209.4 505.7,210.8 505.9,210.1 506.1,210.1 506.4,206.1 506.6,206.1 506.8,209.4 507.0,212.1 507.2,213.5 507.4,213.5 507.6,204.8 507.9,211.6 508.1,210.1 508.3,210.1 508.5,205.4 508.7,204.1 508.9,210.1 509.1,210.1 509.4,210.1 509.6,214.2 509.8,217.1 510.0,210.1 510.2,210.8 510.4,208.7 510.6,208.7 510.9,208.7 511.1,208.7 511.3,208.7 511.5,209.4 511.7,213.6 511.9,213.5 512.1,212.8 512.4,218.5 512.6,212.1 512.8,213.5 513.0,218.6 513.2,218.6 513.4,221.3 513.6,220.3 513.9,227.0 514.1,224.7 514.3,219.3 514.5,221.6 514.7,221.6 514.9,217.8 515.1,221.8 515.4,222.3 515.6,227.0 515.8,224.7 516.0,227.5 516.2,226.2 516.4,226.2 516.6,225.5 516.8,223.9 517.1,226.2 517.3,226.4 517.5,225.5 517.7,215.7 517.9,227.9 518.1,227.9 518.3,227.9 518.6,218.1 518.8,219.2 519.0,215.2 519.2,215.7 519.4,214.2 519.6,215.7 519.8,213.5 520.1,210.8 520.3,212.1 520.5,213.5 520.7,213.5 520.9,208.1 521.1,209.4 521.3,210.1 521.6,210.1 521.8,210.1 522.0,210.1 522.2,213.5 522.4,213.5 522.6,212.1 522.8,209.9 523.1,213.5 523.3,206.7 523.5,210.1 523.7,211.4 523.9,209.4 524.1,208.1 524.3,207.4 524.6,208.1 524.8,204.8 525.0,203.5 525.2,203.5 525.4,199.7 525.6,202.9 525.8,200.0 526.1,196.7 526.3,202.9 526.5,199.7 526.7,195.5 526.9,202.2 527.1,201.0 527.3,200.4 527.6,201.0 527.8,197.9 528.0,201.0 528.2,201.6 528.4,200.4 528.6,199.7 528.8,199.7 529.1,197.3 529.3,202.2 529.5,199.1 529.7,199.7 529.9,199.7 530.1,199.7 530.3,202.2 530.5,199.1 530.8,199.1 531.0,198.9 531.2,196.1 531.4,200.4 531.6,198.5 531.8,198.2 532.0,198.5 532.3,198.5 532.5,199.2 532.7,197.9 532.9,197.9 533.1,200.4 533.3,197.9 533.5,198.9 533.8,198.5 534.0,201.6 534.2,201.3 534.4,197.9 534.6,202.2 534.8,201.0 535.0,201.6 535.3,201.6 535.5,200.4 535.7,199.7 535.9,199.7 536.1,202.9 536.3,202.9 536.5,202.9 536.8,202.9 537.0,202.2 537.2,200.6 537.4,201.1 537.6,202.2 537.8,203.5 538.0,203.5 538.3,203.5 538.5,203.5 538.7,203.5 538.9,203.5 539.1,200.7 539.3,200.7 539.5,203.5 539.8,203.5 540.0,202.9 540.2,203.5 540.4,202.7 540.6,201.6 540.8,197.9 541.0,195.5 541.3,194.4 541.5,202.9 541.7,202.9 541.9,194.9 542.1,194.9 542.3,200.4 542.5,200.4 542.8,203.5 543.0,203.5 543.2,203.5 543.4,206.7 543.6,201.6 543.8,196.1 544.0,204.8 544.3,203.5 544.5,206.7 544.7,206.4 544.9,209.4 545.1,214.2 545.3,211.4 545.5,213.5 545.7,216.4 546.0,217.1 546.2,220.8 546.4,220.8 546.6,221.9 546.8,223.9 547.0,224.7 547.2,223.1 547.5,223.1 547.7,228.7 547.9,223.9 548.1,216.5 548.3,222.3 548.5,221.6 548.7,221.6 549.0,223.9 549.2,224.7 549.4,251.4 549.6,242.6 549.8,246.4 550.0,246.4 550.2,246.4 550.5,245.5 550.7,244.5 550.9,244.5 551.1,234.5 551.3,234.5 551.5,237.1 551.7,239.9 552.0,237.2 552.2,233.7 552.4,220.8 552.6,230.3 552.8,236.3 553.0,238.1 553.2,232.8 553.5,239.9 553.7,239.9 553.9,237.2 554.1,240.8 554.3,238.9 554.5,238.1 554.7,239.0 555.0,238.1 555.2,240.8 555.4,240.8 555.6,240.8 555.8,239.9 556.0,230.3 556.2,237.2 556.5,246.4 556.7,246.4 556.9,246.0 557.1,246.0 557.3,248.4 557.5,248.4 557.7,248.4 558.0,248.4 558.2,246.4 558.4,245.5 558.6,247.4 558.8,249.4 559.0,242.2 559.2,251.4 559.4,257.4 559.7,258.4 559.9,246.4 560.1,254.5 560.3,245.5 560.5,237.2 560.7,245.5 560.9,251.4 561.2,242.8 561.4,246.4 561.6,246.4 561.8,245.5 562.0,271.7 562.2,285.9 562.4,289.3 562.7,292.3 562.9,292.3 563.1,287.8 563.3,278.5 563.5,282.8 563.7,283.7 563.9,289.9 564.2,289.3 564.4,291.7 564.6,291.5 564.8,292.3 565.0,292.3 565.2,279.0 565.4,283.5 565.7,283.5 565.9,287.8 566.1,290.0 566.3,284.9 566.5,284.9 566.7,284.9 566.9,286.8 567.2,284.9 567.4,290.0 567.6,284.6 567.8,283.4 568.0,282.5 568.2,282.4 568.4,282.8 568.7,282.8 568.9,290.0 569.1,290.0 569.3,291.2 569.5,296.1 569.7,296.1 569.9,296.1 570.2,291.7 570.4,291.7 570.6,288.8 570.8,287.1 571.0,287.1 571.2,287.1 571.4,287.1 571.7,289.0 571.9,289.0 572.1,289.0 572.3,278.1 572.5,276.2 572.7,284.2 572.9,284.9 573.2,268.6 573.4,268.0 573.6,279.1 573.8,279.1 574.0,273.2 574.2,283.9 574.4,283.5 574.6,274.2 574.9,274.2 575.1,288.5 575.3,288.5 575.5,288.5 575.7,274.2 575.9,261.9 576.1,259.0 576.4,281.4 576.6,274.4 576.8,282.1 577.0,282.1 577.2,276.8 577.4,282.1 577.6,276.1 577.9,266.8 578.1,282.1 578.3,275.5 578.5,280.8 578.7,277.9 578.9,277.9 579.1,277.9 579.4,274.2 579.6,277.9 579.8,273.3 580.0,274.2 580.2,270.2 580.4,268.0 580.6,262.2 580.9,262.2 581.1,271.8 581.3,271.8 581.5,283.5 581.7,271.3 581.9,271.0 582.1,271.0 582.4,264.5 582.6,264.5 582.8,264.5 583.0,265.6 583.2,265.6 583.4,265.4 583.6,264.5 583.9,264.5 584.1,264.5 584.3,264.5 584.5,264.5 584.7,264.5 584.9,262.7 585.1,262.7 585.4,263.3 585.6,262.2 585.8,263.3 586.0,266.7 586.2,263.3 586.4,263.3 586.6,232.8 586.9,232.8 587.1,232.8 587.3,232.8 587.5,232.8 587.7,251.6 587.9,260.9 588.1,253.1 588.3,258.8 588.6,258.8 588.8,258.8 589.0,258.5 589.2,258.5 589.4,255.1 589.6,254.5 589.8,254.5 590.1,251.4 590.3,251.4 590.5,252.4 590.7,252.4 590.9,253.7 591.1,254.6 591.3,253.4 591.6,256.1 591.8,256.1 592.0,256.1 592.2,250.4 592.4,250.4 592.6,252.4 592.8,248.4 593.1,252.4 593.3,245.5 593.5,246.4 593.7,249.4 593.9,249.4 594.1,247.4 594.3,249.4 594.6,249.4 594.8,249.4 595.0,249.4 595.2,249.4 595.4,249.4 595.6,249.4 595.8,249.4 596.1,248.4 596.3,248.4 596.5,248.4 596.7,247.4 596.9,247.4 597.1,249.4 597.3,246.4 597.6,245.5 597.8,248.4 598.0,245.5 598.2,245.5 598.4,241.3 598.6,241.3 598.8,241.3 599.1,241.3 599.3,241.2 599.5,241.2 599.7,243.6 599.9,241.3 600.1,239.9 600.3,239.9 600.6,240.8 600.8,240.8 601.0,241.7 601.2,241.1 601.4,237.9 601.6,239.0 601.8,238.1 602.1,237.3 602.3,229.5 602.5,232.8 602.7,232.0 602.9,228.7 603.1,228.7 603.3,231.8 603.5,206.7 603.8,233.7 604.0,233.7 604.2,236.3 604.4,236.3 604.6,232.0 604.8,239.9 605.0,232.8 605.3,224.7 605.5,228.7 605.7,228.7 605.9,227.0 606.1,214.4 606.3,228.7 606.5,224.7 606.8,224.7 607.0,215.7 607.2,224.7 607.4,228.7 607.6,228.7 607.8,226.2 608.0,224.7 608.3,228.7 608.5,228.7 608.7,232.8 608.9,224.7 609.1,228.7 609.3,227.0 609.5,233.7 609.8,237.2 610.0,224.7 610.2,232.8 610.4,232.8 610.6,226.2 610.8,232.8 611.0,235.4 611.3,235.4 611.5,237.2 611.7,237.2 611.9,226.2 612.1,226.2 612.3,232.8 612.5,237.2 612.8,237.2 613.0,237.2 613.2,237.2 613.4,237.2 613.6,238.1 613.8,238.1 614.0,237.2 614.3,234.5 614.5,234.5 614.7,234.5 614.9,240.8 615.1,239.9 615.3,239.9 615.5,239.9 615.8,240.8 616.0,246.4 616.2,246.4 616.4,239.9 616.6,245.5 616.8,245.5 617.0,232.8 617.2,230.3 617.5,232.8 617.7,232.8 617.9,232.8 618.1,228.7 618.3,228.7 618.5,228.7 618.7,228.7 619.0,228.7 619.2,228.7 619.4,230.6 619.6,227.9 619.8,228.7 620.0,228.7 620.2,223.9 620.5,227.0 620.7,229.5 620.9,226.2 621.1,218.6 621.3,220.4 621.5,230.3 621.7,230.3 622.0,235.4 622.2,229.5 622.4,230.3 622.6,235.8 622.8,230.3 623.0,229.5 623.2,225.5 623.5,222.3 623.7,227.0 623.9,224.7 624.1,210.1 624.3,222.3 624.5,224.7 624.7,220.7 625.0,224.7 625.2,228.7 625.4,228.7 625.6,230.3 625.8,228.3 626.0,226.2 626.2,225.5 626.5,223.9 626.7,222.3 626.9,227.9 627.1,224.7 627.3,227.0 627.5,227.0 627.7,228.7 628.0,228.7 628.2,228.8 628.4,224.7 628.6,224.7 628.8,224.7 629.0,223.3 629.2,220.8 629.5,217.8 629.7,215.7 629.9,212.8 630.1,212.8 630.3,208.7 630.5,197.3 630.7,190.4 630.9,191.5 631.2,194.4 631.4,186.0 631.6,184.4 631.8,186.0 632.0,188.5 632.2,188.7 632.4,182.3 632.7,174.6 632.9,180.7 633.1,186.5 633.3,184.9 633.5,170.6 633.7,158.8 633.9,160.0 634.2,160.0 634.4,160.9 634.6,159.6 634.8,159.2 635.0,153.6 635.2,140.8 635.4,143.5 635.7,146.4 635.9,153.7 636.1,140.1 636.3,135.7 636.5,134.4 636.7,139.4 636.9,142.8 637.2,142.1 637.4,143.9 637.6,143.2 637.8,137.7 638.0,143.5 638.2,144.6 638.4,142.8 638.7,142.5 638.9,142.7 639.1,141.8 639.3,140.1 639.5,137.4 639.7,137.4 639.9,137.0 640.2,137.0 640.4,137.4 640.6,140.4 640.8,139.7 641.0,139.4 641.2,142.8 641.4,142.1 641.7,140.8 641.9,139.4 642.1,140.8 642.3,141.1 642.5,141.4 642.7,142.1 642.9,148.3 643.2,148.3 643.4,155.6 643.6,149.8 643.8,150.1 644.0,153.6 644.2,155.2 644.4,153.6 644.7,158.0 644.9,156.0 645.1,154.4 645.3,156.0 645.5,158.8 645.7,158.4 645.9,158.0 646.1,158.0 646.4,158.4 646.6,159.6 646.8,159.6 647.0,163.4 647.2,159.2 647.4,166.0 647.6,171.5 647.9,175.3 648.1,173.4 648.3,177.7 648.5,178.4 648.7,169.2 648.9,160.9 649.1,162.1 649.4,166.0 649.6,166.5 649.8,166.5 650.0,166.0 650.2,168.7 650.4,171.0 650.6,171.9 650.9,170.1 651.1,170.6 651.3,171.0 651.5,170.6 651.7,170.6 651.9,170.6 652.1,165.2 652.4,169.6 652.6,170.5 652.8,168.7 653.0,166.0 653.2,171.9 653.4,165.6 653.6,171.0 653.9,171.0 654.1,166.5 654.3,168.7 654.5,168.7 654.7,167.4 654.9,166.5 655.1,162.1 655.4,158.0 655.6,157.6 655.8,158.0 656.0,154.8 656.2,160.5 656.4,161.9 656.6,160.0 656.9,157.6 657.1,156.6 657.3,153.2 657.5,151.7 657.7,150.1 657.9,151.7 658.1,151.3 658.4,150.9 658.6,150.5 658.8,153.2 659.0,149.4 659.2,150.1 659.4,147.5 659.6,146.2 659.8,148.3 660.1,150.9 660.3,150.9 660.5,142.3 660.7,146.1 660.9,143.2 661.1,144.6 661.3,143.2 661.6,142.8 661.8,144.6 662.0,138.0 662.2,137.7 662.4,135.4 662.6,133.1 662.8,131.2 663.1,133.1 663.3,131.2 663.5,132.5 663.7,131.2 663.9,133.4 664.1,134.1 664.3,134.4 664.6,134.4 664.8,134.4 665.0,134.1 665.2,134.4 665.4,133.4 665.6,133.2 665.8,134.4 666.1,133.4 666.3,133.4 666.5,133.8 666.7,135.7 666.9,135.9 667.1,136.0 667.3,136.4 667.6,135.1 667.8,137.4 668.0,135.7 668.2,135.1 668.4,133.4 668.6,133.4 668.8,137.0 669.1,139.4 669.3,139.0 669.5,137.4 669.7,136.0 669.9,136.1 670.1,138.0 670.3,136.2 670.6,138.7 670.8,140.5 671.0,140.4 671.2,140.4 671.4,142.1 671.6,139.0 671.8,138.7 672.1,139.0 672.3,139.0 672.5,139.0 672.7,137.4 672.9,139.0 673.1,140.1 673.3,140.4 673.6,139.4 673.8,141.1 674.0,139.4 674.2,142.5 674.4,141.4 674.6,141.1 674.8,141.4 675.0,140.1 675.3,141.8 675.5,142.8 675.7,142.8 675.9,142.8 676.1,142.8 676.3,142.1 676.5,135.4 676.8,131.2 677.0,132.5 677.2,133.4 677.4,132.2 677.6,130.9 677.8,130.3 678.0,130.3 678.3,130.3 678.5,128.3 678.7,125.5 678.9,126.6 679.1,129.7 679.3,131.2 679.5,129.0 679.8,128.7 680.0,126.0 680.2,125.9 680.4,125.1 680.6,127.5 680.8,121.6 681.0,123.7 681.3,129.4 681.5,123.7 681.7,115.0 681.9,119.4 682.1,119.3 682.3,119.4 682.5,117.2 682.8,119.7 683.0,117.4 683.2,107.5 683.4,100.5 683.6,94.3 683.8,96.9 684.0,98.0 684.3,102.7 684.5,99.2 684.7,93.6 684.9,96.7 685.1,96.9 685.3,98.0 685.5,98.0 685.8,100.8 686.0,98.9 686.2,103.9 686.4,103.9 686.6,101.7 686.8,100.3 687.0,103.4 687.3,107.5 687.5,106.3 687.7,105.1 687.9,107.3 688.1,106.3 688.3,106.3 688.5,107.8 688.7,108.8 689.0,110.0 689.2,109.0 689.4,110.6 689.6,112.1 689.8,110.6 690.0,110.0 690.2,110.3 690.5,108.8 690.7,108.3 690.9,108.8 691.1,115.3 691.3,113.9 691.5,117.2 691.7,117.2 692.0,118.8 692.2,120.8 692.4,127.2 692.6,118.0 692.8,125.1 693.0,123.4 693.2,122.5 693.5,116.4 693.7,113.7 693.9,111.3 694.1,113.7 694.3,111.3 694.5,113.9 694.7,113.9 695.0,115.0 695.2,115.5 695.4,115.3 695.6,117.2 695.8,116.6 696.0,116.6 696.2,118.0 696.5,117.4 696.7,119.1 696.9,118.8 697.1,120.8 697.3,120.8 697.5,115.3 697.7,113.9 698.0,115.8 698.2,119.2 698.4,120.2 698.6,125.3 698.8,136.3 699.0,149.8 699.2,148.3 699.5,197.3 699.7,202.2 699.9,190.4 700.1,180.7 700.3,166.5 700.5,150.1 700.7,151.7 701.0,158.0 701.2,158.0 701.4,153.4 701.6,157.6 701.8,157.8 702.0,157.6 702.2,152.0 702.5,155.6 702.7,155.6 702.9,158.0 703.1,158.0 703.3,158.0 703.5,160.0 703.7,162.1 703.9,157.2 704.2,164.5 704.4,168.9 704.6,169.2 704.8,175.3 705.0,186.0 705.2,205.4 705.4,210.1 705.7,211.4 705.9,199.7 706.1,191.5 706.3,188.7 706.5,184.9 706.7,184.1 706.9,187.0 707.2,191.5 707.4,194.9 707.6,194.4 707.8,176.7 708.0,180.7 708.2,186.0 708.4,218.6 708.7,210.1 708.9,206.7 709.1,211.4 709.3,203.5 709.5,199.1 709.7,194.4 709.9,200.4 710.2,201.0 710.4,198.5 710.6,200.4 710.8,197.3 711.0,207.4 711.2,200.4 711.4,206.7 711.7,213.5 711.9,213.5 712.1,213.5 712.3,206.7 712.5,210.1 712.7,204.8 712.9,211.4 713.2,206.7 713.4,204.8 713.6,204.8 713.8,210.1 714.0,211.4 714.2,210.8 714.4,212.8 714.7,217.1 714.9,220.1 715.1,220.8 715.3,217.8 715.5,217.8 715.7,216.4 715.9,213.5 716.2,210.1 716.4,210.1 716.6,205.4 716.8,205.4 717.0,201.6 717.2,194.4 717.4,196.1 717.6,196.1 717.9,198.5 718.1,202.2 718.3,201.0 718.5,190.9 718.7,196.1 718.9,187.0 719.1,197.9 719.4,190.9 719.6,183.3 719.8,184.4 720.0,187.0 720.2,188.1 720.4,187.0 720.6,190.4 720.9,188.7 721.1,189.8 721.3,196.1 721.5,201.0 721.7,191.5 721.9,199.1 722.1,191.5 722.4,194.4 722.6,196.7 722.8,197.3 723.0,186.0 723.2,182.0 723.4,174.3 723.6,174.8 723.9,176.7 724.1,164.7 724.3,160.0 724.5,153.2 724.7,154.4 724.9,175.8 725.1,180.7 725.4,188.7 725.6,191.5 725.8,183.8 726.0,193.8 726.2,186.5 726.4,189.2 726.6,188.7 726.9,199.1 727.1,206.7 727.3,194.4 727.5,194.4 727.7,194.4 727.9,194.4 728.1,183.3 728.4,183.8 728.6,190.9 728.8,199.5 729.0,208.7 729.2,206.7 729.4,208.7 729.6,203.5 729.9,201.0 730.1,204.8 730.3,203.5 730.5,196.7 730.7,203.5 730.9,207.4 731.1,204.8 731.4,208.7 731.6,204.8 731.8,207.1 732.0,206.7 732.2,207.9 732.4,206.6 732.6,203.5 732.8,207.4 733.1,210.8 733.3,212.1 733.5,209.4 733.7,207.4 733.9,211.4 734.1,217.8 734.3,217.1 734.6,217.1 734.8,208.1 735.0,196.1 735.2,191.5 735.4,190.4 735.6,189.8 735.8,186.0 736.1,183.3 736.3,182.8 736.5,186.0 736.7,182.8 736.9,180.7 737.1,178.2 737.3,180.7 737.6,177.7 737.8,173.8 738.0,171.5 738.2,177.7 738.4,171.9 738.6,172.6 738.8,174.8 739.1,178.4 739.3,181.2 739.5,179.7 739.7,186.5 739.9,144.6 740.1,132.5 740.3,124.0 740.6,125.4 740.8,124.8 741.0,120.2 741.2,121.6 741.4,125.1 741.6,128.1 741.8,122.2 742.1,120.8 742.3,110.3 742.5,112.4 742.7,111.3 742.9,110.8 743.1,111.3 743.3,111.8 743.6,112.1 743.8,109.8 744.0,112.6 744.2,112.4 744.4,111.3 744.6,111.3 744.8,111.6 745.1,110.0 745.3,111.6 745.5,111.1 745.7,110.3 745.9,110.0 746.1,114.1 746.3,145.3 746.5,144.6 746.8,152.8 747.0,149.0 747.2,146.4 747.4,146.8 747.6,148.6 747.8,151.3 748.0,178.2 748.3,180.2 748.5,177.7 748.7,154.0 748.9,157.2 749.1,162.6 749.3,161.3 749.5,163.4 749.8,166.0 750.0,158.0 750.2,165.6 750.4,166.5 750.6,164.7 750.8,170.6 751.0,154.8 751.3,151.7 751.5,202.2 751.7,203.5 751.9,206.7 752.1,198.5 752.3,192.0 752.5,196.1 752.8,192.6 753.0,198.5 753.2,199.7 753.4,199.1 753.6,196.4 753.8,202.2 754.0,204.1 754.3,211.4 754.5,208.7 754.7,207.4 754.9,208.1 755.1,219.3 755.3,205.7 755.5,207.4 755.8,209.4 756.0,210.9 756.2,213.5 756.4,211.4 756.6,223.1 756.8,217.1 757.0,218.6 757.3,217.1 757.5,208.1 757.7,210.1 757.9,205.4 758.1,209.4 758.3,201.6 758.5,199.1 758.8,192.4 759.0,196.7 759.2,206.1 759.4,206.7 759.6,213.5 759.8,213.5 760.0,213.5 760.2,217.1 760.5,220.1 760.7,224.7 760.9,232.8 761.1,235.4 761.3,237.2 761.5,217.1 761.7,218.6 762.0,227.0 762.2,228.1 762.4,220.1 762.6,227.0 762.8,211.4 763.0,206.7 763.2,203.5 763.5,212.8 763.7,213.5 763.9,204.8 764.1,211.4 764.3,208.7 764.5,213.5 764.7,213.5 765.0,199.6 765.2,204.1 765.4,194.9 765.6,204.8 765.8,201.6 766.0,203.5 766.2,196.7 766.5,202.9 766.7,200.4 766.9,198.2 767.1,198.5 767.3,131.5 767.5,126.6 767.7,119.7 768.0,114.7 768.2,110.8 768.4,112.9 768.6,114.5 768.8,113.4 769.0,113.4 769.2,111.0 769.5,109.0 769.7,108.8 769.9,109.5 770.1,110.0 770.3,112.9 770.5,111.3 770.7,110.0 771.0,111.6 771.2,115.3 771.4,120.8 771.6,131.2 771.8,134.7 772.0,139.0 772.2,139.0 772.5,134.7 772.7,128.9 772.9,126.6 773.1,119.7 773.3,118.5 773.5,119.4 773.7,117.2 774.0,116.9 774.2,118.0 774.4,116.1 774.6,116.9 774.8,114.8 775.0,112.6 775.2,111.3 775.4,112.1 775.7,117.4 775.9,113.9 776.1,105.1 776.3,89.4 776.5,83.7 776.7,78.3 776.9,76.5 777.2,83.1 777.4,91.5 777.6,91.5 777.8,100.3 778.0,101.5 778.2,100.6 778.4,98.0 778.7,99.9 778.9,109.3 779.1,105.8 779.3,107.3 779.5,109.3 779.7,109.8 779.9,110.0 780.2,107.3 780.4,108.9 780.6,107.5 780.8,110.0 781.0,109.6 781.2,105.6 781.4,102.7 781.7,105.8 781.9,104.9 782.1,101.5 782.3,103.9 782.5,105.1 782.7,102.6 782.9,104.8 783.2,106.3 783.4,110.0 783.6,109.6 783.8,109.6 784.0,110.0 784.2,112.6 784.4,111.3 784.7,110.3 784.9,107.8 785.1,96.9 785.3,87.7 785.5,92.7 785.7,85.7 785.9,87.3 786.2,95.4 786.4,98.3 786.6,97.6 786.8,89.6 787.0,92.3 787.2,90.4 787.4,87.5 787.7,90.4 787.9,94.7 788.1,94.7 788.3,94.7 788.5,96.0 788.7,93.2 788.9,88.7 789.1,88.7 789.4,88.3 789.6,87.6 789.8,90.8 790.0,90.8 790.2,89.4 790.4,89.4 790.6,90.8 790.9,90.2 791.1,89.1 791.3,92.7 791.5,94.9 791.7,95.4 791.9,97.6 792.1,99.6 792.4,101.0 792.6,97.1 792.8,96.9 793.0,97.1 793.2,95.8 793.4,94.9 793.6,94.9 793.9,96.7 794.1,96.7 794.3,95.4 794.5,94.7 794.7,95.2 794.9,94.9 795.1,93.8 795.4,96.9 795.6,96.9 795.8,96.9 796.0,97.6"/>
<text x="78" y="392" font-size="11" fill="#16a34a">Total return +106.5%</text><text x="268" y="392" font-size="11" fill="#2563eb">Price-only +67.4%</text><text x="78" y="362" font-size="11" text-anchor="middle" fill="#64748b">2013-03</text><text x="257" y="362" font-size="11" text-anchor="middle" fill="#64748b">2016-07</text><text x="437" y="362" font-size="11" text-anchor="middle" fill="#64748b">2019-11</text><text x="617" y="362" font-size="11" text-anchor="middle" fill="#64748b">2023-03</text><text x="796" y="362" font-size="11" text-anchor="middle" fill="#64748b">2026-07</text></svg>