<svg xmlns="http://www.w3.org/2000/svg" width="720" height="360" viewBox="0 0 720 360">
  <rect width="720" height="360" fill="#fafafa"/>
  <text x="56" y="22" font-size="13" font-family="sans-serif" fill="#222">CBOE total return (rebased 100) · cumulative distributions $0.00/sh · market cap n/a</text>
  <line x1="56" y1="308" x2="696" y2="308" stroke="#ccc"/>
  <line x1="56" y1="48" x2="56" y2="308" stroke="#ccc"/>
  <polyline fill="none" stroke="#2563eb" stroke-width="2" points="56.0,282.1 56.2,282.4 56.3,282.8 56.5,283.1 56.6,282.4 56.8,282.0 57.0,281.5 57.1,281.6 57.3,282.4 57.4,281.9 57.6,282.6 57.8,282.1 57.9,283.5 58.1,283.2 58.2,283.9 58.4,284.2 58.5,284.4 58.7,284.4 58.9,285.8 59.0,285.1 59.2,285.5 59.3,286.0 59.5,286.0 59.7,286.0 59.8,286.3 60.0,285.9 60.1,285.7 60.3,285.6 60.5,286.0 60.6,285.5 60.8,285.6 60.9,285.9 61.1,285.9 61.3,285.3 61.4,285.5 61.6,285.9 61.7,287.1 61.9,287.7 62.0,287.6 62.2,288.3 62.4,288.3 62.5,288.1 62.7,288.3 62.8,288.4 63.0,288.2 63.2,288.2 63.3,288.3 63.5,288.3 63.6,288.3 63.8,289.0 64.0,289.1 64.1,289.4 64.3,289.6 64.4,289.8 64.6,289.6 64.8,289.2 64.9,289.1 65.1,288.8 65.2,288.8 65.4,288.9 65.5,289.0 65.7,288.9 65.9,289.0 66.0,288.8 66.2,288.7 66.3,288.7 66.5,288.6 66.7,289.0 66.8,289.2 67.0,289.3 67.1,289.8 67.3,289.8 67.5,289.5 67.6,289.4 67.8,289.7 67.9,290.1 68.1,289.8 68.3,289.9 68.4,289.7 68.6,289.7 68.7,289.8 68.9,289.6 69.0,289.5 69.2,288.8 69.4,288.8 69.5,288.5 69.7,288.6 69.8,288.1 70.0,288.2 70.2,287.8 70.3,287.7 70.5,287.3 70.6,287.4 70.8,287.5 71.0,287.5 71.1,287.6 71.3,287.6 71.4,287.9 71.6,287.5 71.8,287.6 71.9,287.6 72.1,287.2 72.2,287.0 72.4,287.0 72.5,287.1 72.7,287.2 72.9,287.5 73.0,287.4 73.2,287.2 73.3,287.4 73.5,287.2 73.7,287.0 73.8,287.1 74.0,287.2 74.1,287.7 74.3,287.9 74.5,287.9 74.6,287.7 74.8,287.7 74.9,287.4 75.1,287.4 75.3,287.1 75.4,287.1 75.6,287.5 75.7,287.9 75.9,288.3 76.0,288.3 76.2,288.3 76.4,288.3 76.5,288.9 76.7,288.8 76.8,288.8 77.0,288.8 77.2,288.8 77.3,288.6 77.5,288.6 77.6,288.2 77.8,288.5 78.0,288.4 78.1,288.3 78.3,287.8 78.4,287.7 78.6,287.8 78.8,287.9 78.9,287.7 79.1,287.4 79.2,287.6 79.4,287.6 79.6,287.9 79.7,287.7 79.9,287.9 80.0,288.1 80.2,288.3 80.3,288.1 80.5,288.2 80.7,288.3 80.8,288.1 81.0,288.2 81.1,288.3 81.3,288.3 81.5,288.3 81.6,288.1 81.8,287.8 81.9,287.6 82.1,287.4 82.3,287.3 82.4,286.6 82.6,285.8 82.7,286.1 82.9,285.1 83.1,286.2 83.2,286.1 83.4,285.5 83.5,285.6 83.7,286.3 83.8,286.1 84.0,285.3 84.2,284.1 84.3,284.0 84.5,285.1 84.6,285.3 84.8,284.9 85.0,285.1 85.1,284.8 85.3,284.7 85.4,284.8 85.6,285.7 85.8,285.2 85.9,285.1 86.1,285.3 86.2,285.2 86.4,285.1 86.6,285.2 86.7,284.9 86.9,284.5 87.0,284.4 87.2,284.2 87.3,284.3 87.5,284.6 87.7,284.6 87.8,284.4 88.0,284.4 88.1,285.3 88.3,285.2 88.5,285.3 88.6,285.7 88.8,285.7 88.9,285.7 89.1,285.7 89.3,285.8 89.4,285.8 89.6,285.7 89.7,285.6 89.9,285.7 90.1,285.9 90.2,285.8 90.4,285.6 90.5,285.8 90.7,285.8 90.8,285.5 91.0,285.4 91.2,285.8 91.3,285.8 91.5,285.8 91.6,286.1 91.8,286.1 92.0,286.1 92.1,285.8 92.3,285.7 92.4,285.7 92.6,285.6 92.8,285.7 92.9,285.3 93.1,285.0 93.2,285.1 93.4,285.0 93.6,284.9 93.7,285.1 93.9,285.9 94.0,286.4 94.2,286.5 94.3,286.4 94.5,286.1 94.7,286.9 94.8,286.7 95.0,286.6 95.1,287.2 95.3,287.4 95.5,287.8 95.6,287.3 95.8,287.4 95.9,287.4 96.1,287.5 96.3,287.8 96.4,288.0 96.6,287.7 96.7,287.8 96.9,287.4 97.1,287.4 97.2,287.5 97.4,287.5 97.5,287.8 97.7,287.5 97.8,287.4 98.0,287.2 98.2,287.1 98.3,287.1 98.5,287.1 98.6,287.0 98.8,287.2 99.0,287.7 99.1,287.6 99.3,287.8 99.4,288.0 99.6,288.2 99.8,288.3 99.9,288.2 100.1,288.0 100.2,287.8 100.4,288.1 100.6,287.7 100.7,287.8 100.9,288.1 101.0,288.2 101.2,288.2 101.4,288.4 101.5,288.6 101.7,288.3 101.8,289.0 102.0,288.4 102.1,289.1 102.3,288.1 102.5,288.7 102.6,287.7 102.8,287.9 102.9,287.5 103.1,287.6 103.3,287.8 103.4,288.3 103.6,288.1 103.7,288.5 103.9,288.2 104.1,287.7 104.2,288.1 104.4,287.3 104.5,287.0 104.7,287.0 104.9,286.8 105.0,287.1 105.2,287.6 105.3,287.5 105.5,286.4 105.6,286.6 105.8,286.5 106.0,286.1 106.1,285.8 106.3,285.8 106.4,286.1 106.6,285.5 106.8,285.5 106.9,285.6 107.1,286.1 107.2,285.7 107.4,285.9 107.6,285.7 107.7,285.6 107.9,286.1 108.0,286.5 108.2,287.3 108.4,287.6 108.5,287.4 108.7,286.9 108.8,287.1 109.0,287.3 109.1,286.6 109.3,286.4 109.5,286.2 109.6,286.3 109.8,286.5 109.9,286.5 110.1,286.5 110.3,286.7 110.4,286.5 110.6,286.6 110.7,286.3 110.9,287.0 111.1,286.5 111.2,286.2 111.4,286.2 111.5,286.2 111.7,286.8 111.9,286.8 112.0,286.4 112.2,285.6 112.3,285.2 112.5,285.8 112.6,286.0 112.8,285.8 113.0,285.6 113.1,285.9 113.3,285.7 113.4,285.9 113.6,286.2 113.8,286.1 113.9,286.5 114.1,286.3 114.2,286.7 114.4,286.5 114.6,286.1 114.7,286.1 114.9,285.7 115.0,285.7 115.2,285.9 115.4,285.9 115.5,286.2 115.7,286.1 115.8,286.2 116.0,285.9 116.1,286.2 116.3,286.6 116.5,286.8 116.6,286.6 116.8,286.3 116.9,286.5 117.1,286.2 117.3,286.2 117.4,286.7 117.6,286.2 117.7,286.2 117.9,286.3 118.1,286.4 118.2,286.4 118.4,286.3 118.5,286.6 118.7,286.7 118.9,286.9 119.0,287.0 119.2,286.9 119.3,286.8 119.5,286.8 119.6,286.5 119.8,286.7 120.0,286.7 120.1,286.5 120.3,286.6 120.4,286.5 120.6,286.6 120.8,286.6 120.9,286.6 121.1,286.6 121.2,286.6 121.4,286.6 121.6,286.5 121.7,286.2 121.9,286.0 122.0,285.9 122.2,285.8 122.4,286.1 122.5,286.0 122.7,285.0 122.8,285.2 123.0,285.4 123.2,285.5 123.3,285.3 123.5,285.3 123.6,285.5 123.8,285.4 123.9,285.1 124.1,285.2 124.3,285.2 124.4,285.1 124.6,285.3 124.7,285.1 124.9,285.3 125.1,285.3 125.2,285.6 125.4,285.6 125.5,285.4 125.7,285.4 125.9,285.3 126.0,285.2 126.2,285.1 126.3,285.0 126.5,285.0 126.7,284.8 126.8,284.6 127.0,284.4 127.1,284.4 127.3,284.0 127.4,284.0 127.6,284.6 127.8,284.5 127.9,284.7 128.1,284.8 128.2,284.9 128.4,284.9 128.6,285.0 128.7,285.2 128.9,285.4 129.0,285.7 129.2,285.7 129.4,285.7 129.5,285.9 129.7,285.9 129.8,285.9 130.0,286.0 130.2,286.1 130.3,286.1 130.5,286.3 130.6,286.3 130.8,286.1 130.9,285.9 131.1,285.8 131.3,286.0 131.4,285.9 131.6,286.4 131.7,286.3 131.9,286.4 132.1,286.7 132.2,286.8 132.4,286.7 132.5,286.8 132.7,286.8 132.9,287.0 133.0,286.8 133.2,287.0 133.3,287.2 133.5,287.0 133.7,287.0 133.8,286.9 134.0,286.8 134.1,286.7 134.3,286.8 134.4,286.6 134.6,286.9 134.8,286.8 134.9,286.9 135.1,286.7 135.2,286.4 135.4,285.9 135.6,285.9 135.7,285.9 135.9,285.9 136.0,285.7 136.2,285.7 136.4,285.5 136.5,285.5 136.7,285.0 136.8,285.2 137.0,285.3 137.2,285.5 137.3,285.7 137.5,285.7 137.6,285.6 137.8,285.5 137.9,285.3 138.1,285.2 138.3,285.1 138.4,285.1 138.6,285.0 138.7,285.2 138.9,285.2 139.1,285.2 139.2,285.3 139.4,285.2 139.5,284.9 139.7,284.9 139.9,284.9 140.0,284.8 140.2,284.9 140.3,284.9 140.5,284.8 140.7,285.0 140.8,284.8 141.0,284.6 141.1,284.6 141.3,284.7 141.5,284.7 141.6,284.8 141.8,285.0 141.9,284.9 142.1,284.7 142.2,284.4 142.4,284.4 142.6,284.4 142.7,284.4 142.9,284.4 143.0,284.4 143.2,284.4 143.4,284.4 143.5,284.5 143.7,284.5 143.8,284.5 144.0,284.6 144.2,284.6 144.3,284.5 144.5,284.5 144.6,284.4 144.8,284.6 145.0,284.6 145.1,284.7 145.3,284.4 145.4,284.6 145.6,284.6 145.7,284.5 145.9,284.6 146.1,284.6 146.2,284.5 146.4,284.4 146.5,284.2 146.7,284.0 146.9,283.9 147.0,283.6 147.2,283.6 147.3,283.6 147.5,283.6 147.7,283.9 147.8,284.2 148.0,283.9 148.1,284.1 148.3,284.0 148.5,284.1 148.6,284.0 148.8,283.9 148.9,283.9 149.1,284.0 149.2,284.0 149.4,284.0 149.6,284.1 149.7,284.2 149.9,284.2 150.0,284.1 150.2,284.0 150.4,284.1 150.5,284.4 150.7,284.4 150.8,284.5 151.0,284.4 151.2,284.4 151.3,284.3 151.5,284.1 151.6,283.3 151.8,283.6 152.0,283.4 152.1,283.3 152.3,283.5 152.4,283.6 152.6,283.7 152.7,283.7 152.9,283.9 153.1,284.1 153.2,284.2 153.4,284.0 153.5,284.1 153.7,284.1 153.9,284.1 154.0,284.0 154.2,284.1 154.3,284.0 154.5,283.9 154.7,283.9 154.8,283.7 155.0,283.9 155.1,283.8 155.3,283.8 155.5,283.6 155.6,283.7 155.8,283.8 155.9,283.8 156.1,283.7 156.2,283.7 156.4,283.8 156.6,283.8 156.7,283.6 156.9,284.0 157.0,283.3 157.2,283.6 157.4,283.8 157.5,284.0 157.7,284.2 157.8,284.1 158.0,284.1 158.2,283.6 158.3,283.4 158.5,282.9 158.6,282.9 158.8,282.9 159.0,282.7 159.1,282.6 159.3,282.5 159.4,282.5 159.6,282.3 159.7,282.1 159.9,282.0 160.1,281.7 160.2,281.6 160.4,281.7 160.5,281.5 160.7,281.5 160.9,281.5 161.0,281.4 161.2,281.4 161.3,281.2 161.5,281.1 161.7,281.2 161.8,281.1 162.0,281.0 162.1,280.9 162.3,280.8 162.5,280.6 162.6,280.5 162.8,280.5 162.9,280.0 163.1,279.9 163.3,280.0 163.4,280.3 163.6,280.2 163.7,280.1 163.9,280.7 164.0,280.1 164.2,279.9 164.4,279.9 164.5,280.2 164.7,279.9 164.8,279.8 165.0,279.9 165.2,280.0 165.3,280.1 165.5,279.9 165.6,280.0 165.8,279.9 166.0,279.6 166.1,279.7 166.3,279.8 166.4,279.9 166.6,279.6 166.8,279.7 166.9,279.6 167.1,279.5 167.2,279.5 167.4,279.5 167.5,279.2 167.7,279.4 167.9,279.3 168.0,279.8 168.2,279.6 168.3,279.6 168.5,279.5 168.7,279.8 168.8,279.2 169.0,279.0 169.1,279.2 169.3,279.7 169.5,279.4 169.6,279.7 169.8,279.8 169.9,279.5 170.1,279.6 170.3,279.6 170.4,279.6 170.6,279.5 170.7,279.5 170.9,279.2 171.0,278.9 171.2,279.0 171.4,278.9 171.5,278.1 171.7,278.0 171.8,277.8 172.0,277.8 172.2,277.9 172.3,277.7 172.5,277.5 172.6,277.3 172.8,277.2 173.0,277.1 173.1,276.8 173.3,276.9 173.4,276.7 173.6,277.2 173.8,276.9 173.9,276.9 174.1,276.8 174.2,276.9 174.4,276.8 174.5,277.2 174.7,277.0 174.9,277.3 175.0,277.3 175.2,276.9 175.3,276.5 175.5,275.8 175.7,276.1 175.8,276.3 176.0,275.8 176.1,275.6 176.3,275.2 176.5,275.1 176.6,275.4 176.8,275.6 176.9,275.6 177.1,274.8 177.3,274.5 177.4,273.8 177.6,272.8 177.7,273.0 177.9,272.5 178.0,272.9 178.2,272.8 178.4,272.5 178.5,272.3 178.7,272.4 178.8,272.7 179.0,272.5 179.2,272.6 179.3,272.3 179.5,272.1 179.6,271.7 179.8,271.4 180.0,271.7 180.1,271.1 180.3,271.4 180.4,271.0 180.6,271.3 180.8,271.1 180.9,271.1 181.1,271.0 181.2,270.7 181.4,270.3 181.5,270.2 181.7,271.6 181.9,272.3 182.0,272.4 182.2,271.9 182.3,271.6 182.5,271.3 182.7,271.1 182.8,271.4 183.0,272.1 183.1,272.2 183.3,272.4 183.5,272.1 183.6,272.2 183.8,271.5 183.9,271.7 184.1,271.7 184.3,273.1 184.4,272.7 184.6,272.6 184.7,273.5 184.9,274.0 185.1,273.9 185.2,273.8 185.4,273.9 185.5,273.6 185.7,273.5 185.8,273.1 186.0,273.3 186.2,273.3 186.3,273.9 186.5,273.8 186.6,273.7 186.8,273.6 187.0,273.8 187.1,273.9 187.3,273.9 187.4,274.0 187.6,273.7 187.8,273.8 187.9,273.9 188.1,272.9 188.2,273.6 188.4,273.4 188.6,273.3 188.7,273.5 188.9,273.7 189.0,273.8 189.2,272.8 189.3,272.7 189.5,272.3 189.7,272.6 189.8,272.1 190.0,272.0 190.1,271.1 190.3,271.1 190.5,270.6 190.6,270.4 190.8,270.6 190.9,270.4 191.1,271.0 191.3,270.9 191.4,271.3 191.6,271.8 191.7,271.4 191.9,271.0 192.1,270.7 192.2,270.5 192.4,271.2 192.5,270.1 192.7,269.9 192.8,270.7 193.0,270.4 193.2,270.4 193.3,269.8 193.5,270.1 193.6,269.9 193.8,268.9 194.0,268.1 194.1,267.9 194.3,268.3 194.4,268.7 194.6,269.1 194.8,269.3 194.9,268.9 195.1,270.0 195.2,270.1 195.4,270.4 195.6,269.9 195.7,270.0 195.9,269.9 196.0,270.3 196.2,269.7 196.3,269.7 196.5,269.1 196.7,269.3 196.8,269.2 197.0,269.5 197.1,269.3 197.3,268.8 197.5,268.8 197.6,269.0 197.8,269.1 197.9,269.3 198.1,269.5 198.3,270.2 198.4,269.7 198.6,270.2 198.7,270.3 198.9,270.8 199.1,270.9 199.2,270.9 199.4,271.8 199.5,271.0 199.7,270.9 199.8,271.4 200.0,270.9 200.2,270.9 200.3,270.3 200.5,270.3 200.6,270.8 200.8,271.4 201.0,270.7 201.1,271.0 201.3,269.9 201.4,269.5 201.6,271.4 201.8,270.1 201.9,270.3 202.1,269.7 202.2,268.6 202.4,268.0 202.6,267.7 202.7,266.9 202.9,266.5 203.0,266.7 203.2,266.6 203.3,267.3 203.5,267.8 203.7,268.1 203.8,268.0 204.0,268.3 204.1,268.4 204.3,268.3 204.5,268.2 204.6,267.3 204.8,266.5 204.9,266.1 205.1,266.0 205.3,266.1 205.4,266.6 205.6,266.8 205.7,266.5 205.9,266.1 206.1,265.3 206.2,265.2 206.4,266.2 206.5,266.8 206.7,266.5 206.9,266.9 207.0,266.5 207.2,266.3 207.3,266.9 207.5,266.6 207.6,267.1 207.8,266.5 208.0,266.7 208.1,267.4 208.3,267.7 208.4,268.4 208.6,269.7 208.8,270.1 208.9,269.3 209.1,270.1 209.2,270.3 209.4,270.5 209.6,270.5 209.7,269.8 209.9,269.4 210.0,269.5 210.2,269.0 210.4,269.1 210.5,268.9 210.7,269.2 210.8,269.2 211.0,268.9 211.1,268.6 211.3,268.6 211.5,269.0 211.6,268.7 211.8,269.5 211.9,270.1 212.1,270.2 212.3,270.3 212.4,269.8 212.6,270.2 212.7,270.7 212.9,271.4 213.1,271.6 213.2,271.5 213.4,271.9 213.5,271.4 213.7,271.2 213.9,270.9 214.0,270.3 214.2,270.4 214.3,270.4 214.5,270.4 214.6,270.6 214.8,272.0 215.0,272.2 215.1,272.0 215.3,271.7 215.4,271.7 215.6,272.3 215.8,272.0 215.9,271.3 216.1,270.7 216.2,270.6 216.4,269.9 216.6,270.6 216.7,271.1 216.9,271.5 217.0,271.3 217.2,271.8 217.4,271.6 217.5,271.5 217.7,271.4 217.8,271.3 218.0,271.5 218.1,271.8 218.3,271.8 218.5,271.9 218.6,272.5 218.8,272.3 218.9,272.8 219.1,272.8 219.3,272.3 219.4,272.6 219.6,272.9 219.7,272.0 219.9,271.5 220.1,271.1 220.2,272.0 220.4,271.8 220.5,271.6 220.7,271.5 220.9,271.3 221.0,271.6 221.2,271.4 221.3,271.8 221.5,271.0 221.6,271.3 221.8,271.0 222.0,270.7 222.1,270.7 222.3,270.4 222.4,270.4 222.6,270.6 222.8,270.4 222.9,270.5 223.1,270.1 223.2,269.7 223.4,269.8 223.6,270.1 223.7,270.1 223.9,270.1 224.0,268.8 224.2,268.3 224.4,268.9 224.5,268.8 224.7,268.8 224.8,268.6 225.0,268.8 225.1,268.9 225.3,268.6 225.5,268.2 225.6,268.4 225.8,268.0 225.9,267.9 226.1,267.7 226.3,267.7 226.4,267.7 226.6,267.3 226.7,267.0 226.9,267.5 227.1,267.8 227.2,268.1 227.4,268.2 227.5,268.5 227.7,268.3 227.9,268.6 228.0,268.5 228.2,268.6 228.3,268.0 228.5,267.9 228.7,267.9 228.8,268.3 229.0,267.3 229.1,267.0 229.3,267.2 229.4,267.7 229.6,267.2 229.8,266.6 229.9,267.2 230.1,268.0 230.2,266.8 230.4,266.7 230.6,266.7 230.7,266.3 230.9,265.9 231.0,265.9 231.2,265.8 231.4,265.4 231.5,265.3 231.7,265.0 231.8,264.0 232.0,262.9 232.2,263.4 232.3,263.4 232.5,263.1 232.6,263.1 232.8,262.8 232.9,263.6 233.1,263.8 233.3,263.8 233.4,264.2 233.6,264.6 233.7,264.4 233.9,264.7 234.1,264.7 234.2,264.7 234.4,264.7 234.5,264.5 234.7,264.4 234.9,264.2 235.0,264.0 235.2,264.1 235.3,264.0 235.5,263.9 235.7,263.3 235.8,262.9 236.0,262.3 236.1,262.0 236.3,262.8 236.4,262.9 236.6,262.9 236.8,262.5 236.9,261.4 237.1,261.6 237.2,261.3 237.4,261.3 237.6,261.4 237.7,261.6 237.9,261.4 238.0,261.6 238.2,262.1 238.4,262.2 238.5,260.8 238.7,260.4 238.8,259.7 239.0,260.1 239.2,260.4 239.3,260.4 239.5,260.9 239.6,261.1 239.8,261.1 239.9,260.1 240.1,260.5 240.3,261.8 240.4,260.5 240.6,260.5 240.7,260.2 240.9,260.6 241.1,260.9 241.2,260.7 241.4,261.4 241.5,261.7 241.7,261.8 241.9,261.4 242.0,261.0 242.2,262.7 242.3,263.5 242.5,263.3 242.7,263.0 242.8,262.9 243.0,262.4 243.1,262.6 243.3,262.9 243.4,263.1 243.6,262.6 243.8,262.4 243.9,262.6 244.1,263.1 244.2,263.8 244.4,264.3 244.6,264.7 244.7,265.0 244.9,265.3 245.0,265.0 245.2,264.4 245.4,264.0 245.5,263.9 245.7,263.9 245.8,264.5 246.0,264.7 246.2,264.3 246.3,264.4 246.5,265.1 246.6,264.4 246.8,264.6 246.9,264.7 247.1,265.5 247.3,266.2 247.4,265.8 247.6,266.0 247.7,265.5 247.9,266.0 248.1,266.4 248.2,266.9 248.4,266.8 248.5,266.5 248.7,266.5 248.9,266.2 249.0,266.1 249.2,266.1 249.3,265.5 249.5,265.4 249.7,265.3 249.8,265.6 250.0,265.8 250.1,266.1 250.3,266.1 250.5,265.9 250.6,266.1 250.8,266.6 250.9,266.2 251.1,266.3 251.2,266.7 251.4,267.2 251.6,267.2 251.7,267.2 251.9,267.0 252.0,266.4 252.2,266.1 252.4,265.6 252.5,265.1 252.7,265.1 252.8,264.7 253.0,265.2 253.2,265.4 253.3,265.3 253.5,265.5 253.6,265.6 253.8,264.9 254.0,265.1 254.1,265.4 254.3,265.3 254.4,265.3 254.6,265.6 254.7,266.0 254.9,266.0 255.1,266.0 255.2,266.2 255.4,266.0 255.5,265.9 255.7,265.6 255.9,265.2 256.0,265.4 256.2,264.7 256.3,264.8 256.5,264.8 256.7,265.2 256.8,265.3 257.0,265.4 257.1,265.7 257.3,266.2 257.5,265.9 257.6,266.1 257.8,266.2 257.9,266.1 258.1,265.3 258.2,264.7 258.4,264.1 258.6,264.2 258.7,264.1 258.9,263.7 259.0,263.1 259.2,264.1 259.4,263.8 259.5,263.4 259.7,263.3 259.8,263.1 260.0,263.3 260.2,263.6 260.3,263.0 260.5,263.4 260.6,263.1 260.8,263.8 261.0,264.1 261.1,263.8 261.3,263.2 261.4,263.0 261.6,262.8 261.7,262.7 261.9,262.4 262.1,262.4 262.2,262.1 262.4,261.8 262.5,262.2 262.7,262.2 262.9,262.1 263.0,261.5 263.2,261.5 263.3,261.6 263.5,261.9 263.7,262.4 263.8,263.4 264.0,264.1 264.1,264.0 264.3,262.6 264.5,262.1 264.6,261.9 264.8,262.2 264.9,262.7 265.1,261.9 265.2,261.9 265.4,262.1 265.6,261.4 265.7,261.5 265.9,260.8 266.0,260.4 266.2,260.5 266.4,260.5 266.5,260.2 266.7,261.0 266.8,261.3 267.0,260.8 267.2,261.0 267.3,260.4 267.5,260.3 267.6,260.2 267.8,260.7 268.0,260.6 268.1,259.7 268.3,259.6 268.4,259.6 268.6,260.3 268.7,260.7 268.9,261.0 269.1,260.5 269.2,260.8 269.4,260.5 269.5,261.0 269.7,260.6 269.9,260.2 270.0,260.9 270.2,260.6 270.3,260.6 270.5,261.0 270.7,260.3 270.8,259.8 271.0,259.6 271.1,259.2 271.3,258.6 271.5,258.4 271.6,259.8 271.8,258.9 271.9,258.6 272.1,259.2 272.3,258.9 272.4,258.6 272.6,258.4 272.7,257.8 272.9,257.4 273.0,258.2 273.2,258.1 273.4,257.9 273.5,257.5 273.7,256.9 273.8,256.7 274.0,256.6 274.2,256.9 274.3,257.0 274.5,256.7 274.6,256.3 274.8,256.4 275.0,257.6 275.1,258.0 275.3,259.1 275.4,258.2 275.6,258.3 275.8,260.3 275.9,261.6 276.1,261.4 276.2,260.9 276.4,259.9 276.5,259.5 276.7,260.4 276.9,261.1 277.0,261.4 277.2,261.0 277.3,260.7 277.5,261.3 277.7,260.8 277.8,260.8 278.0,260.5 278.1,260.6 278.3,261.2 278.5,261.7 278.6,262.3 278.8,262.7 278.9,262.5 279.1,262.7 279.3,262.2 279.4,262.0 279.6,262.6 279.7,262.2 279.9,261.9 280.0,261.9 280.2,262.1 280.4,262.8 280.5,261.3 280.7,262.2 280.8,261.8 281.0,261.6 281.2,261.4 281.3,260.0 281.5,260.4 281.6,260.7 281.8,261.5 282.0,263.3 282.1,263.9 282.3,264.4 282.4,263.2 282.6,263.1 282.8,262.9 282.9,262.8 283.1,263.0 283.2,263.2 283.4,263.2 283.5,262.6 283.7,262.8 283.9,262.3 284.0,261.8 284.2,262.3 284.3,262.4 284.5,262.7 284.7,262.2 284.8,262.4 285.0,261.9 285.1,261.7 285.3,262.3 285.5,260.7 285.6,261.0 285.8,261.0 285.9,261.0 286.1,260.5 286.3,260.1 286.4,260.4 286.6,260.5 286.7,261.2 286.9,261.3 287.0,261.3 287.2,260.8 287.4,261.3 287.5,261.1 287.7,260.9 287.8,261.0 288.0,260.9 288.2,259.9 288.3,260.3 288.5,260.8 288.6,260.8 288.8,261.1 289.0,261.7 289.1,261.6 289.3,261.7 289.4,261.3 289.6,261.5 289.8,261.4 289.9,261.2 290.1,260.8 290.2,260.6 290.4,261.0 290.5,260.7 290.7,261.0 290.9,260.8 291.0,261.1 291.2,261.7 291.3,263.1 291.5,262.3 291.7,262.7 291.8,262.6 292.0,262.6 292.1,262.3 292.3,262.3 292.5,261.8 292.6,262.2 292.8,261.5 292.9,262.0 293.1,262.0 293.3,262.5 293.4,262.5 293.6,262.2 293.7,261.9 293.9,262.1 294.1,261.6 294.2,261.6 294.4,262.0 294.5,261.8 294.7,262.0 294.8,262.2 295.0,262.5 295.2,262.4 295.3,262.5 295.5,262.8 295.6,262.4 295.8,262.2 296.0,261.5 296.1,261.3 296.3,261.0 296.4,261.5 296.6,261.2 296.8,262.0 296.9,262.3 297.1,262.2 297.2,261.9 297.4,261.3 297.6,261.2 297.7,262.0 297.9,261.8 298.0,260.6 298.2,260.0 298.3,260.5 298.5,259.5 298.7,259.9 298.8,259.9 299.0,259.4 299.1,259.1 299.3,258.9 299.5,259.3 299.6,258.9 299.8,258.8 299.9,259.0 300.1,258.7 300.3,259.2 300.4,259.5 300.6,259.2 300.7,258.9 300.9,259.0 301.1,258.6 301.2,258.9 301.4,258.6 301.5,258.9 301.7,258.8 301.8,258.6 302.0,258.7 302.2,258.7 302.3,258.8 302.5,259.0 302.6,259.0 302.8,259.7 303.0,259.7 303.1,259.1 303.3,259.7 303.4,259.0 303.6,258.7 303.8,259.0 303.9,258.9 304.1,259.0 304.2,258.7 304.4,258.8 304.6,258.6 304.7,258.5 304.9,258.5 305.0,258.7 305.2,258.5 305.3,258.8 305.5,258.8 305.7,258.7 305.8,258.8 306.0,259.1 306.1,258.2 306.3,258.9 306.5,259.3 306.6,259.1 306.8,258.5 306.9,258.2 307.1,258.1 307.3,258.0 307.4,258.2 307.6,257.7 307.7,260.1 307.9,259.9 308.1,260.2 308.2,260.9 308.4,261.2 308.5,260.6 308.7,259.9 308.8,259.5 309.0,259.4 309.2,259.2 309.3,259.9 309.5,259.7 309.6,259.9 309.8,260.5 310.0,260.4 310.1,261.4 310.3,261.1 310.4,261.2 310.6,261.9 310.8,261.8 310.9,261.5 311.1,261.8 311.2,262.1 311.4,262.9 311.6,262.2 311.7,262.2 311.9,262.3 312.0,262.4 312.2,262.4 312.4,262.1 312.5,261.9 312.7,262.0 312.8,260.3 313.0,259.4 313.1,259.2 313.3,258.7 313.5,258.8 313.6,258.8 313.8,258.6 313.9,258.7 314.1,258.9 314.3,259.0 314.4,259.2 314.6,258.9 314.7,258.7 314.9,258.6 315.1,258.6 315.2,258.2 315.4,256.5 315.5,256.1 315.7,255.6 315.9,254.7 316.0,254.4 316.2,253.5 316.3,253.5 316.5,253.6 316.6,253.8 316.8,254.3 317.0,254.2 317.1,254.3 317.3,254.7 317.4,255.2 317.6,255.5 317.8,255.7 317.9,255.4 318.1,255.7 318.2,255.5 318.4,255.3 318.6,255.9 318.7,254.1 318.9,254.6 319.0,254.3 319.2,254.9 319.4,255.5 319.5,255.3 319.7,255.4 319.8,254.6 320.0,254.8 320.1,254.4 320.3,254.1 320.5,253.6 320.6,253.9 320.8,253.5 320.9,252.7 321.1,252.7 321.3,252.8 321.4,252.8 321.6,251.6 321.7,252.4 321.9,252.7 322.1,252.6 322.2,252.8 322.4,251.9 322.5,253.3 322.7,252.6 322.9,252.9 323.0,252.0 323.2,251.6 323.3,251.3 323.5,251.1 323.6,250.8 323.8,251.0 324.0,251.0 324.1,251.2 324.3,251.6 324.4,252.1 324.6,252.6 324.8,251.8 324.9,252.5 325.1,252.5 325.2,252.7 325.4,252.7 325.6,252.4 325.7,252.3 325.9,251.6 326.0,251.2 326.2,251.1 326.4,251.2 326.5,251.1 326.7,251.0 326.8,251.1 327.0,251.6 327.1,251.6 327.3,251.5 327.5,251.7 327.6,251.9 327.8,251.9 327.9,251.9 328.1,251.4 328.3,250.7 328.4,251.0 328.6,250.8 328.7,251.1 328.9,251.2 329.1,250.7 329.2,250.7 329.4,251.0 329.5,250.4 329.7,250.6 329.9,250.0 330.0,250.1 330.2,250.0 330.3,249.4 330.5,249.5 330.6,248.9 330.8,248.7 331.0,249.0 331.1,249.8 331.3,249.8 331.4,249.7 331.6,249.5 331.8,249.4 331.9,249.5 332.1,249.0 332.2,249.9 332.4,248.2 332.6,248.3 332.7,248.6 332.9,248.8 333.0,248.2 333.2,248.8 333.4,248.7 333.5,248.5 333.7,248.1 333.8,248.1 334.0,247.7 334.2,247.5 334.3,247.3 334.5,247.1 334.6,247.1 334.8,247.3 334.9,247.0 335.1,247.0 335.3,246.9 335.4,247.0 335.6,245.6 335.7,245.6 335.9,245.1 336.1,245.1 336.2,245.0 336.4,244.9 336.5,245.2 336.7,245.8 336.9,245.2 337.0,245.6 337.2,245.7 337.3,245.8 337.5,245.7 337.7,245.2 337.8,244.9 338.0,244.6 338.1,244.3 338.3,244.0 338.4,243.7 338.6,243.0 338.8,243.5 338.9,243.0 339.1,243.2 339.2,243.1 339.4,243.7 339.6,243.3 339.7,243.6 339.9,243.6 340.0,242.9 340.2,243.0 340.4,242.9 340.5,242.4 340.7,242.4 340.8,242.7 341.0,242.3 341.2,242.8 341.3,242.7 341.5,242.0 341.6,241.5 341.8,241.8 341.9,241.7 342.1,242.7 342.3,241.9 342.4,241.4 342.6,240.5 342.7,240.6 342.9,240.9 343.1,240.3 343.2,240.0 343.4,239.9 343.5,240.3 343.7,240.8 343.9,240.3 344.0,239.0 344.2,239.5 344.3,239.4 344.5,238.6 344.7,238.4 344.8,238.2 345.0,238.3 345.1,237.9 345.3,237.8 345.4,237.0 345.6,236.0 345.8,236.1 345.9,235.4 346.1,235.6 346.2,235.4 346.4,235.0 346.6,234.7 346.7,235.4 346.9,234.9 347.0,234.9 347.2,234.3 347.4,234.4 347.5,234.2 347.7,234.4 347.8,235.4 348.0,234.1 348.2,233.7 348.3,233.5 348.5,233.2 348.6,232.6 348.8,232.4 348.9,233.0 349.1,233.2 349.3,232.5 349.4,233.0 349.6,232.6 349.7,232.0 349.9,231.7 350.1,232.2 350.2,232.3 350.4,232.2 350.5,232.7 350.7,232.0 350.9,231.5 351.0,231.8 351.2,232.2 351.3,231.0 351.5,230.7 351.7,230.8 351.8,230.0 352.0,230.3 352.1,228.4 352.3,228.7 352.4,229.1 352.6,229.8 352.8,229.8 352.9,229.3 353.1,229.1 353.2,228.3 353.4,227.7 353.6,228.4 353.7,228.1 353.9,227.8 354.0,226.0 354.2,225.8 354.4,225.9 354.5,225.4 354.7,225.2 354.8,223.8 355.0,224.9 355.2,223.3 355.3,222.8 355.5,223.5 355.6,223.1 355.8,223.3 356.0,222.8 356.1,222.1 356.3,221.4 356.4,220.6 356.6,221.4 356.7,221.6 356.9,221.4 357.1,221.8 357.2,222.5 357.4,222.8 357.5,222.5 357.7,222.6 357.9,222.9 358.0,222.4 358.2,222.4 358.3,222.5 358.5,223.7 358.7,223.2 358.8,222.9 359.0,220.6 359.1,219.3 359.3,218.5 359.5,217.5 359.6,217.6 359.8,218.1 359.9,218.5 360.1,218.1 360.2,217.2 360.4,216.5 360.6,216.1 360.7,215.9 360.9,215.4 361.0,214.4 361.2,214.5 361.4,215.7 361.5,216.9 361.7,216.2 361.8,214.8 362.0,216.0 362.2,218.7 362.3,227.5 362.5,229.0 362.6,231.2 362.8,233.9 363.0,231.5 363.1,230.5 363.3,228.7 363.4,227.2 363.6,231.0 363.7,231.5 363.9,231.1 364.1,232.0 364.2,232.8 364.4,231.1 364.5,231.9 364.7,230.7 364.9,231.1 365.0,228.7 365.2,228.5 365.3,226.7 365.5,226.3 365.7,225.6 365.8,222.6 366.0,223.0 366.1,225.6 366.3,226.0 366.5,226.4 366.6,226.0 366.8,226.5 366.9,225.6 367.1,227.2 367.2,230.3 367.4,230.9 367.6,229.0 367.7,230.6 367.9,230.7 368.0,229.3 368.2,230.4 368.4,231.3 368.5,231.2 368.7,230.9 368.8,232.4 369.0,232.0 369.2,231.8 369.3,233.0 369.5,232.2 369.6,233.0 369.8,232.8 370.0,231.9 370.1,232.4 370.3,232.1 370.4,231.9 370.6,233.3 370.7,234.9 370.9,234.4 371.1,234.0 371.2,234.4 371.4,234.1 371.5,233.7 371.7,234.1 371.9,234.9 372.0,236.8 372.2,236.4 372.3,236.9 372.5,235.9 372.7,234.9 372.8,234.0 373.0,233.2 373.1,233.2 373.3,233.0 373.5,233.0 373.6,234.2 373.8,234.3 373.9,235.6 374.1,236.0 374.2,236.7 374.4,236.5 374.6,237.2 374.7,239.1 374.9,240.0 375.0,239.5 375.2,239.7 375.4,238.9 375.5,238.2 375.7,236.6 375.8,235.9 376.0,235.3 376.2,234.8 376.3,235.5 376.5,236.0 376.6,236.6 376.8,236.2 377.0,235.1 377.1,235.7 377.3,235.9 377.4,235.2 377.6,235.8 377.8,234.7 377.9,235.9 378.1,236.0 378.2,235.8 378.4,236.0 378.5,236.9 378.7,236.5 378.9,237.9 379.0,236.4 379.2,236.6 379.3,237.1 379.5,236.4 379.7,236.6 379.8,236.0 380.0,235.3 380.1,234.6 380.3,235.4 380.5,235.5 380.6,235.7 380.8,235.8 380.9,235.0 381.1,235.9 381.3,237.0 381.4,240.6 381.6,240.3 381.7,240.8 381.9,241.2 382.0,241.9 382.2,243.0 382.4,242.6 382.5,243.2 382.7,243.6 382.8,243.3 383.0,243.1 383.2,242.7 383.3,241.9 383.5,241.6 383.6,241.2 383.8,239.2 384.0,239.8 384.1,239.0 384.3,238.4 384.4,236.8 384.6,237.7 384.8,238.3 384.9,238.0 385.1,238.0 385.2,237.9 385.4,235.9 385.5,236.3 385.7,236.6 385.9,235.6 386.0,236.2 386.2,235.8 386.3,236.2 386.5,235.8 386.7,235.7 386.8,235.4 387.0,234.4 387.1,234.0 387.3,233.8 387.5,233.8 387.6,235.0 387.8,237.2 387.9,239.2 388.1,239.9 388.3,241.1 388.4,240.4 388.6,240.6 388.7,241.3 388.9,241.4 389.0,240.3 389.2,238.5 389.4,237.5 389.5,237.2 389.7,237.9 389.8,238.4 390.0,238.9 390.2,236.6 390.3,236.7 390.5,236.3 390.6,235.3 390.8,235.6 391.0,234.1 391.1,234.7 391.3,234.1 391.4,234.0 391.6,232.7 391.8,230.7 391.9,230.1 392.1,231.7 392.2,230.5 392.4,230.6 392.5,230.4 392.7,231.2 392.9,232.1 393.0,232.7 393.2,233.5 393.3,232.3 393.5,232.2 393.7,232.2 393.8,231.9 394.0,231.4 394.1,232.0 394.3,233.3 394.5,233.7 394.6,233.7 394.8,233.3 394.9,234.4 395.1,234.0 395.3,233.5 395.4,235.1 395.6,235.9 395.7,236.1 395.9,235.6 396.0,234.9 396.2,236.3 396.4,235.5 396.5,236.6 396.7,237.9 396.8,238.3 397.0,239.0 397.2,239.7 397.3,240.6 397.5,241.0 397.6,244.1 397.8,242.3 398.0,241.3 398.1,240.9 398.3,239.9 398.4,241.1 398.6,241.3 398.8,239.5 398.9,240.7 399.1,242.6 399.2,243.1 399.4,243.9 399.6,244.0 399.7,243.5 399.9,243.2 400.0,243.0 400.2,242.6 400.3,241.6 400.5,240.2 400.7,239.6 400.8,241.0 401.0,241.0 401.1,240.6 401.3,241.3 401.5,242.6 401.6,242.8 401.8,242.3 401.9,242.5 402.1,241.6 402.3,241.7 402.4,241.7 402.6,241.9 402.7,242.3 402.9,242.3 403.1,241.7 403.2,243.2 403.4,242.6 403.5,242.2 403.7,241.6 403.8,241.8 404.0,240.6 404.2,241.4 404.3,241.7 404.5,242.2 404.6,241.1 404.8,240.9 405.0,240.0 405.1,240.4 405.3,241.8 405.4,243.2 405.6,243.4 405.8,242.0 405.9,241.3 406.1,241.1 406.2,241.5 406.4,240.4 406.6,241.1 406.7,241.4 406.9,241.9 407.0,241.9 407.2,241.4 407.3,241.5 407.5,241.8 407.7,242.1 407.8,242.2 408.0,241.4 408.1,240.5 408.3,240.7 408.5,241.2 408.6,241.2 408.8,241.1 408.9,241.3 409.1,241.7 409.3,240.9 409.4,241.1 409.6,240.9 409.7,239.9 409.9,239.1 410.1,237.9 410.2,237.6 410.4,237.8 410.5,237.7 410.7,237.6 410.8,237.3 411.0,237.4 411.2,237.8 411.3,237.4 411.5,237.8 411.6,238.5 411.8,237.8 412.0,236.5 412.1,237.3 412.3,236.7 412.4,236.1 412.6,236.2 412.8,236.4 412.9,235.2 413.1,235.9 413.2,235.1 413.4,234.7 413.6,233.5 413.7,233.7 413.9,233.4 414.0,234.4 414.2,234.0 414.3,234.9 414.5,233.7 414.7,234.2 414.8,232.9 415.0,232.5 415.1,232.0 415.3,231.4 415.5,231.3 415.6,231.1 415.8,231.2 415.9,233.3 416.1,233.5 416.3,233.8 416.4,233.4 416.6,234.1 416.7,234.3 416.9,234.4 417.1,233.9 417.2,234.3 417.4,233.7 417.5,233.6 417.7,234.7 417.8,234.5 418.0,236.1 418.2,234.1 418.3,233.0 418.5,232.0 418.6,231.7 418.8,231.6 419.0,231.3 419.1,230.9 419.3,230.0 419.4,229.4 419.6,229.3 419.8,229.3 419.9,229.3 420.1,229.1 420.2,228.8 420.4,229.1 420.6,228.9 420.7,230.9 420.9,231.2 421.0,231.2 421.2,231.7 421.4,231.6 421.5,232.4 421.7,228.7 421.8,227.8 422.0,228.9 422.1,226.5 422.3,226.8 422.5,226.2 422.6,226.2 422.8,225.9 422.9,225.0 423.1,225.9 423.3,224.3 423.4,224.6 423.6,225.3 423.7,225.9 423.9,226.0 424.1,225.6 424.2,225.6 424.4,225.1 424.5,225.5 424.7,225.5 424.9,226.2 425.0,226.1 425.2,226.1 425.3,226.0 425.5,226.0 425.6,226.4 425.8,226.4 426.0,228.6 426.1,228.8 426.3,228.7 426.4,231.3 426.6,231.3 426.8,229.7 426.9,228.3 427.1,227.8 427.2,228.4 427.4,228.2 427.6,226.7 427.7,226.9 427.9,227.0 428.0,228.5 428.2,228.8 428.4,228.4 428.5,230.2 428.7,228.0 428.8,227.9 429.0,226.6 429.1,227.8 429.3,227.4 429.5,227.4 429.6,228.4 429.8,228.6 429.9,228.7 430.1,228.4 430.3,227.8 430.4,227.6 430.6,228.6 430.7,229.0 430.9,229.4 431.1,228.3 431.2,229.3 431.4,229.9 431.5,229.5 431.7,227.7 431.9,228.6 432.0,228.8 432.2,229.7 432.3,228.6 432.5,229.1 432.6,228.5 432.8,228.8 433.0,228.7 433.1,228.2 433.3,227.2 433.4,227.1 433.6,225.8 433.8,225.2 433.9,223.9 434.1,223.4 434.2,223.5 434.4,223.1 434.6,223.1 434.7,225.8 434.9,226.5 435.0,226.2 435.2,226.0 435.4,225.5 435.5,225.4 435.7,225.6 435.8,225.1 436.0,225.7 436.1,228.3 436.3,228.3 436.5,228.5 436.6,228.4 436.8,227.4 436.9,227.6 437.1,227.8 437.3,227.1 437.4,226.1 437.6,226.6 437.7,226.2 437.9,226.1 438.1,226.3 438.2,226.0 438.4,225.5 438.5,225.8 438.7,224.7 438.9,225.4 439.0,226.7 439.2,227.4 439.3,228.1 439.5,228.2 439.6,228.7 439.8,228.4 440.0,227.5 440.1,227.1 440.3,227.8 440.4,227.2 440.6,226.3 440.8,225.8 440.9,225.6 441.1,225.7 441.2,224.7 441.4,224.5 441.6,223.5 441.7,223.4 441.9,223.0 442.0,223.9 442.2,223.1 442.4,220.4 442.5,223.9 442.7,223.1 442.8,223.4 443.0,223.2 443.2,222.7 443.3,221.9 443.5,223.2 443.6,225.2 443.8,223.7 443.9,223.8 444.1,224.2 444.3,224.2 444.4,223.0 444.6,224.7 444.7,229.4 444.9,226.7 445.1,227.3 445.2,226.4 445.4,228.1 445.5,227.6 445.7,230.8 445.9,231.4 446.0,234.3 446.2,242.7 446.3,241.8 446.5,249.6 446.7,245.9 446.8,254.1 447.0,249.5 447.1,251.6 447.3,253.6 447.4,252.6 447.6,251.4 447.8,244.4 447.9,244.3 448.1,243.0 448.2,245.4 448.4,246.1 448.6,243.4 448.7,245.2 448.9,241.8 449.0,242.7 449.2,241.2 449.4,242.7 449.5,242.8 449.7,238.1 449.8,239.7 450.0,239.8 450.2,237.2 450.3,236.5 450.5,238.2 450.6,238.3 450.8,239.1 450.9,240.7 451.1,240.3 451.3,239.4 451.4,238.9 451.6,238.9 451.7,242.3 451.9,242.0 452.1,239.1 452.2,240.1 452.4,238.8 452.5,238.3 452.7,238.5 452.9,239.8 453.0,239.7 453.2,238.9 453.3,238.5 453.5,236.7 453.7,239.1 453.8,238.1 454.0,239.8 454.1,238.9 454.3,237.5 454.4,236.7 454.6,236.7 454.8,234.3 454.9,235.2 455.1,236.7 455.2,235.9 455.4,237.8 455.6,239.8 455.7,236.2 455.9,236.5 456.0,237.6 456.2,240.4 456.4,238.5 456.5,237.7 456.7,237.5 456.8,237.8 457.0,238.3 457.2,239.3 457.3,238.4 457.5,241.2 457.6,242.5 457.8,241.6 457.9,243.9 458.1,243.1 458.3,242.8 458.4,240.7 458.6,241.6 458.7,241.7 458.9,242.5 459.1,243.0 459.2,244.8 459.4,243.9 459.5,244.0 459.7,244.5 459.9,242.3 460.0,243.0 460.2,243.2 460.3,242.8 460.5,242.9 460.7,243.9 460.8,244.1 461.0,245.3 461.1,246.6 461.3,246.6 461.5,245.5 461.6,246.9 461.8,246.4 461.9,247.3 462.1,247.8 462.2,247.1 462.4,248.2 462.6,246.2 462.7,247.8 462.9,245.7 463.0,247.0 463.2,247.4 463.4,246.0 463.5,245.0 463.7,244.8 463.8,245.6 464.0,245.2 464.2,243.9 464.3,243.2 464.5,244.5 464.6,244.1 464.8,243.4 465.0,243.8 465.1,243.8 465.3,244.9 465.4,245.9 465.6,245.0 465.7,244.3 465.9,245.1 466.1,245.0 466.2,246.8 466.4,245.7 466.5,245.0 466.7,245.2 466.9,244.6 467.0,245.6 467.2,244.4 467.3,244.9 467.5,245.0 467.7,245.5 467.8,245.4 468.0,245.1 468.1,245.6 468.3,246.9 468.5,246.4 468.6,245.8 468.8,246.5 468.9,246.3 469.1,247.0 469.2,248.2 469.4,248.1 469.6,247.9 469.7,248.5 469.9,248.7 470.0,248.4 470.2,249.0 470.4,248.9 470.5,250.1 470.7,250.3 470.8,251.3 471.0,250.9 471.2,250.3 471.3,251.0 471.5,250.5 471.6,252.4 471.8,251.9 472.0,250.6 472.1,249.2 472.3,247.0 472.4,246.9 472.6,249.4 472.7,248.4 472.9,246.7 473.1,247.5 473.2,246.2 473.4,247.4 473.5,246.4 473.7,246.1 473.9,247.0 474.0,245.8 474.2,245.0 474.3,245.0 474.5,243.2 474.7,243.6 474.8,243.7 475.0,243.8 475.1,244.1 475.3,242.7 475.5,242.5 475.6,242.9 475.8,242.9 475.9,242.6 476.1,244.0 476.2,245.6 476.4,246.9 476.6,247.5 476.7,246.0 476.9,244.4 477.0,244.6 477.2,245.2 477.4,244.4 477.5,244.7 477.7,244.5 477.8,244.2 478.0,243.6 478.2,242.8 478.3,243.8 478.5,243.2 478.6,242.9 478.8,243.2 479.0,243.3 479.1,241.4 479.3,240.5 479.4,239.2 479.6,238.6 479.7,237.8 479.9,240.1 480.1,241.2 480.2,240.6 480.4,240.1 480.5,240.1 480.7,241.0 480.9,241.6 481.0,241.3 481.2,241.2 481.3,243.9 481.5,243.3 481.7,243.8 481.8,241.7 482.0,240.1 482.1,241.5 482.3,241.6 482.5,245.2 482.6,243.6 482.8,243.5 482.9,244.7 483.1,246.2 483.3,245.3 483.4,240.5 483.6,241.0 483.7,238.7 483.9,240.9 484.0,241.0 484.2,240.1 484.4,238.2 484.5,238.4 484.7,239.1 484.8,238.2 485.0,240.0 485.2,241.0 485.3,239.6 485.5,235.4 485.6,235.0 485.8,236.0 486.0,236.2 486.1,236.7 486.3,235.6 486.4,235.3 486.6,236.4 486.8,236.0 486.9,236.9 487.1,237.1 487.2,237.8 487.4,237.4 487.5,236.5 487.7,239.1 487.9,239.9 488.0,239.0 488.2,240.3 488.3,239.3 488.5,237.9 488.7,237.5 488.8,238.6 489.0,238.3 489.1,238.9 489.3,238.4 489.5,237.5 489.6,237.8 489.8,237.2 489.9,236.2 490.1,235.4 490.3,236.1 490.4,235.7 490.6,235.2 490.7,235.7 490.9,235.6 491.0,235.3 491.2,235.9 491.4,236.7 491.5,236.3 491.7,235.6 491.8,234.1 492.0,233.3 492.2,232.2 492.3,233.8 492.5,233.2 492.6,231.6 492.8,232.3 493.0,231.2 493.1,229.6 493.3,229.5 493.4,230.3 493.6,232.0 493.8,230.9 493.9,230.8 494.1,231.1 494.2,231.9 494.4,232.1 494.5,231.7 494.7,231.8 494.9,231.1 495.0,231.6 495.2,230.1 495.3,230.6 495.5,230.7 495.7,230.7 495.8,230.4 496.0,229.3 496.1,229.8 496.3,229.4 496.5,228.9 496.6,229.0 496.8,227.9 496.9,227.2 497.1,229.8 497.3,226.8 497.4,225.5 497.6,226.4 497.7,224.8 497.9,224.4 498.0,225.9 498.2,225.5 498.4,226.1 498.5,226.5 498.7,226.8 498.8,227.2 499.0,227.3 499.2,227.9 499.3,226.3 499.5,226.7 499.6,227.9 499.8,228.0 500.0,227.4 500.1,227.7 500.3,228.4 500.4,228.4 500.6,226.6 500.8,227.4 500.9,225.4 501.1,226.8 501.2,228.4 501.4,227.6 501.5,228.1 501.7,226.5 501.9,225.1 502.0,223.9 502.2,223.3 502.3,224.9 502.5,223.7 502.7,224.8 502.8,224.0 503.0,222.3 503.1,221.1 503.3,221.0 503.5,221.8 503.6,222.9 503.8,223.8 503.9,220.6 504.1,219.2 504.3,221.4 504.4,221.9 504.6,221.9 504.7,222.2 504.9,222.0 505.1,222.9 505.2,221.5 505.4,220.8 505.5,220.5 505.7,221.5 505.8,223.3 506.0,222.3 506.2,222.7 506.3,221.5 506.5,222.7 506.6,222.8 506.8,223.0 507.0,223.1 507.1,223.2 507.3,224.4 507.4,223.0 507.6,222.9 507.8,223.0 507.9,221.7 508.1,223.2 508.2,223.8 508.4,222.2 508.6,223.0 508.7,223.3 508.9,223.3 509.0,225.0 509.2,224.4 509.3,222.3 509.5,221.4 509.7,222.2 509.8,222.1 510.0,222.3 510.1,221.2 510.3,221.9 510.5,220.8 510.6,221.7 510.8,221.0 510.9,220.9 511.1,219.5 511.3,219.4 511.4,218.2 511.6,219.0 511.7,218.3 511.9,217.8 512.1,216.7 512.2,215.8 512.4,216.0 512.5,217.4 512.7,216.9 512.8,216.6 513.0,218.3 513.2,220.4 513.3,219.6 513.5,218.4 513.6,218.4 513.8,217.7 514.0,219.4 514.1,219.4 514.3,219.4 514.4,221.1 514.6,219.7 514.8,218.4 514.9,219.8 515.1,219.2 515.2,219.7 515.4,220.9 515.6,219.2 515.7,219.6 515.9,218.3 516.0,218.4 516.2,218.2 516.3,219.7 516.5,217.7 516.7,218.6 516.8,220.1 517.0,219.1 517.1,217.7 517.3,220.2 517.5,221.7 517.6,221.7 517.8,219.6 517.9,219.7 518.1,219.2 518.3,218.9 518.4,219.7 518.6,219.5 518.7,218.8 518.9,220.0 519.1,221.8 519.2,222.6 519.4,222.0 519.5,222.8 519.7,223.8 519.8,221.7 520.0,222.5 520.2,225.3 520.3,226.7 520.5,226.0 520.6,225.3 520.8,225.3 521.0,226.7 521.1,226.7 521.3,228.4 521.4,228.8 521.6,228.9 521.8,227.9 521.9,226.5 522.1,226.2 522.2,225.5 522.4,227.7 522.6,225.4 522.7,225.5 522.9,223.8 523.0,224.7 523.2,224.8 523.3,225.3 523.5,225.1 523.7,224.3 523.8,224.7 524.0,226.5 524.1,226.3 524.3,227.8 524.5,229.0 524.6,227.3 524.8,227.2 524.9,227.3 525.1,227.3 525.3,226.4 525.4,227.2 525.6,225.2 525.7,227.8 525.9,229.6 526.1,228.7 526.2,229.3 526.4,229.4 526.5,229.6 526.7,229.2 526.9,228.6 527.0,227.0 527.2,227.6 527.3,228.1 527.5,225.9 527.6,228.6 527.8,229.6 528.0,228.9 528.1,230.1 528.3,228.9 528.4,228.9 528.6,229.1 528.8,227.5 528.9,230.1 529.1,229.9 529.2,228.8 529.4,226.8 529.6,227.9 529.7,227.6 529.9,227.0 530.0,225.8 530.2,227.2 530.4,227.9 530.5,226.9 530.7,226.7 530.8,228.7 531.0,229.3 531.1,228.6 531.3,231.0 531.5,228.4 531.6,228.6 531.8,230.1 531.9,230.7 532.1,230.5 532.3,228.9 532.4,231.1 532.6,231.2 532.7,233.8 532.9,233.1 533.1,232.9 533.2,233.9 533.4,232.4 533.5,232.4 533.7,233.0 533.9,235.3 534.0,234.9 534.2,234.0 534.3,233.5 534.5,234.0 534.6,233.5 534.8,232.4 535.0,230.8 535.1,230.5 535.3,230.4 535.4,228.4 535.6,229.4 535.8,228.8 535.9,229.6 536.1,229.7 536.2,229.6 536.4,232.1 536.6,232.9 536.7,233.6 536.9,232.2 537.0,232.7 537.2,232.5 537.4,232.2 537.5,232.4 537.7,230.5 537.8,228.8 538.0,229.1 538.1,229.3 538.3,229.5 538.5,229.9 538.6,229.0 538.8,227.2 538.9,227.0 539.1,226.0 539.3,226.5 539.4,224.7 539.6,225.4 539.7,226.7 539.9,226.9 540.1,226.2 540.2,226.7 540.4,224.3 540.5,224.4 540.7,222.9 540.9,223.1 541.0,222.4 541.2,222.2 541.3,222.2 541.5,221.8 541.6,223.3 541.8,227.8 542.0,227.0 542.1,226.9 542.3,226.1 542.4,225.2 542.6,226.3 542.8,226.3 542.9,226.5 543.1,227.1 543.2,225.7 543.4,225.9 543.6,225.6 543.7,223.2 543.9,221.4 544.0,223.1 544.2,223.3 544.4,224.2 544.5,223.9 544.7,223.4 544.8,225.3 545.0,225.3 545.1,226.9 545.3,226.8 545.5,224.7 545.6,225.6 545.8,224.5 545.9,223.1 546.1,222.9 546.3,222.9 546.4,223.1 546.6,224.9 546.7,224.6 546.9,226.1 547.1,225.2 547.2,225.1 547.4,225.9 547.5,226.8 547.7,227.1 547.9,228.0 548.0,227.8 548.2,227.5 548.3,226.6 548.5,227.0 548.7,227.2 548.8,226.7 549.0,225.5 549.1,225.7 549.3,224.4 549.4,226.2 549.6,226.3 549.8,226.8 549.9,226.7 550.1,225.5 550.2,228.0 550.4,225.4 550.6,224.2 550.7,225.7 550.9,226.2 551.0,225.6 551.2,224.2 551.4,222.7 551.5,223.0 551.7,223.0 551.8,222.0 552.0,222.6 552.2,220.8 552.3,221.6 552.5,222.3 552.6,220.1 552.8,220.8 552.9,221.8 553.1,223.4 553.3,224.9 553.4,228.7 553.6,226.4 553.7,223.8 553.9,223.9 554.1,223.1 554.2,224.5 554.4,222.9 554.5,222.0 554.7,222.4 554.9,221.7 555.0,222.5 555.2,223.4 555.3,221.1 555.5,221.1 555.7,220.1 555.8,220.8 556.0,220.1 556.1,220.0 556.3,221.1 556.4,222.7 556.6,221.8 556.8,223.6 556.9,224.4 557.1,222.8 557.2,222.9 557.4,223.4 557.6,223.5 557.7,221.5 557.9,222.8 558.0,221.5 558.2,221.4 558.4,221.6 558.5,220.9 558.7,222.0 558.8,221.4 559.0,222.6 559.2,223.1 559.3,223.3 559.5,224.1 559.6,223.9 559.8,223.3 559.9,223.1 560.1,222.6 560.3,223.2 560.4,223.8 560.6,224.0 560.7,224.0 560.9,223.6 561.1,224.5 561.2,224.0 561.4,223.4 561.5,224.2 561.7,223.8 561.9,223.6 562.0,223.5 562.2,225.0 562.3,222.8 562.5,221.5 562.7,220.7 562.8,221.1 563.0,221.9 563.1,221.5 563.3,220.0 563.4,221.3 563.6,220.0 563.8,221.2 563.9,219.6 564.1,220.0 564.2,220.2 564.4,219.9 564.6,219.2 564.7,220.6 564.9,221.5 565.0,221.2 565.2,221.5 565.4,221.4 565.5,222.1 565.7,223.3 565.8,223.4 566.0,224.8 566.2,226.4 566.3,224.1 566.5,222.5 566.6,224.1 566.8,222.9 566.9,221.9 567.1,221.9 567.3,220.1 567.4,220.9 567.6,220.9 567.7,219.5 567.9,218.1 568.1,217.9 568.2,217.3 568.4,217.5 568.5,216.3 568.7,216.1 568.9,215.7 569.0,215.4 569.2,215.1 569.3,217.0 569.5,216.5 569.7,216.1 569.8,215.7 570.0,214.7 570.1,214.2 570.3,214.4 570.5,213.9 570.6,213.4 570.8,212.9 570.9,212.8 571.1,213.2 571.2,214.1 571.4,213.7 571.6,212.8 571.7,213.7 571.9,213.4 572.0,213.7 572.2,214.5 572.4,214.8 572.5,214.9 572.7,215.1 572.8,213.6 573.0,213.2 573.2,213.4 573.3,213.2 573.5,213.8 573.6,214.8 573.8,214.4 574.0,213.2 574.1,213.0 574.3,215.5 574.4,215.5 574.6,216.6 574.7,216.6 574.9,217.5 575.1,217.5 575.2,216.7 575.4,215.7 575.5,215.8 575.7,217.9 575.9,217.1 576.0,215.4 576.2,213.6 576.3,215.5 576.5,215.3 576.7,213.3 576.8,213.8 577.0,214.3 577.1,214.6 577.3,214.8 577.5,214.3 577.6,215.6 577.8,216.6 577.9,216.4 578.1,216.1 578.2,215.3 578.4,213.9 578.6,214.3 578.7,213.8 578.9,214.6 579.0,215.3 579.2,215.2 579.4,214.1 579.5,214.9 579.7,212.3 579.8,211.5 580.0,211.9 580.2,212.5 580.3,212.5 580.5,211.1 580.6,210.3 580.8,211.1 581.0,210.6 581.1,210.2 581.3,211.5 581.4,212.3 581.6,212.8 581.7,212.7 581.9,212.7 582.1,212.6 582.2,209.0 582.4,208.5 582.5,208.7 582.7,208.6 582.9,207.2 583.0,205.9 583.2,207.1 583.3,206.5 583.5,206.1 583.7,206.2 583.8,206.0 584.0,205.7 584.1,206.2 584.3,206.0 584.5,206.8 584.6,205.3 584.8,205.0 584.9,205.9 585.1,206.2 585.2,206.3 585.4,205.9 585.6,206.8 585.7,206.1 585.9,203.8 586.0,204.1 586.2,203.1 586.4,204.1 586.5,205.1 586.7,205.7 586.8,206.6 587.0,205.0 587.2,202.3 587.3,202.8 587.5,202.7 587.6,201.5 587.8,202.6 588.0,202.3 588.1,203.0 588.3,202.0 588.4,202.1 588.6,201.7 588.7,201.4 588.9,199.7 589.1,199.5 589.2,198.6 589.4,197.8 589.5,198.6 589.7,198.6 589.9,199.1 590.0,198.3 590.2,197.6 590.3,197.3 590.5,197.2 590.7,197.9 590.8,198.4 591.0,198.8 591.1,198.2 591.3,198.1 591.5,197.1 591.6,198.8 591.8,197.4 591.9,197.1 592.1,196.0 592.3,197.8 592.4,193.5 592.6,190.5 592.7,191.3 592.9,190.6 593.0,189.1 593.2,190.0 593.4,187.7 593.5,188.4 593.7,188.7 593.8,188.1 594.0,188.9 594.2,188.8 594.3,188.7 594.5,186.7 594.6,186.7 594.8,186.4 595.0,186.1 595.1,187.0 595.3,185.3 595.4,186.5 595.6,185.5 595.8,185.4 595.9,188.1 596.1,188.5 596.2,187.5 596.4,188.0 596.5,187.7 596.7,187.7 596.9,191.7 597.0,189.9 597.2,189.9 597.3,188.6 597.5,190.5 597.7,189.2 597.8,189.6 598.0,190.8 598.1,189.5 598.3,188.1 598.5,187.6 598.6,187.9 598.8,190.0 598.9,190.9 599.1,191.1 599.3,189.0 599.4,189.6 599.6,189.5 599.7,188.1 599.9,186.3 600.0,184.3 600.2,182.1 600.4,182.2 600.5,183.2 600.7,182.9 600.8,181.0 601.0,181.0 601.2,181.1 601.3,182.5 601.5,184.4 601.6,184.6 601.8,184.2 602.0,183.6 602.1,184.9 602.3,185.6 602.4,186.4 602.6,183.8 602.8,184.0 602.9,184.4 603.1,183.8 603.2,183.3 603.4,183.6 603.5,182.8 603.7,182.4 603.9,179.1 604.0,180.3 604.2,176.7 604.3,175.6 604.5,176.0 604.7,177.1 604.8,176.5 605.0,178.9 605.1,182.2 605.3,180.6 605.5,180.1 605.6,181.8 605.8,184.2 605.9,182.4 606.1,184.2 606.3,185.6 606.4,184.4 606.6,186.0 606.7,184.4 606.9,184.3 607.0,184.4 607.2,184.6 607.4,184.0 607.5,186.1 607.7,187.0 607.8,187.9 608.0,186.6 608.2,184.3 608.3,185.5 608.5,185.0 608.6,187.5 608.8,185.7 609.0,186.1 609.1,185.2 609.3,187.3 609.4,186.7 609.6,188.3 609.8,187.7 609.9,188.4 610.1,188.8 610.2,188.7 610.4,188.3 610.5,186.2 610.7,186.7 610.9,187.5 611.0,187.1 611.2,185.6 611.3,187.7 611.5,186.4 611.7,186.0 611.8,186.8 612.0,190.5 612.1,186.9 612.3,184.8 612.5,184.0 612.6,183.1 612.8,184.8 612.9,186.0 613.1,185.3 613.3,186.3 613.4,188.1 613.6,185.7 613.7,184.4 613.9,185.0 614.1,184.3 614.2,184.1 614.4,186.4 614.5,185.0 614.7,187.4 614.8,188.9 615.0,190.1 615.2,191.2 615.3,189.9 615.5,189.5 615.6,190.1 615.8,190.6 616.0,191.4 616.1,192.2 616.3,190.9 616.4,193.6 616.6,194.0 616.8,194.7 616.9,193.0 617.1,193.6 617.2,191.7 617.4,189.3 617.6,192.3 617.7,193.9 617.9,193.2 618.0,193.0 618.2,193.1 618.3,191.9 618.5,192.3 618.7,192.6 618.8,193.4 619.0,193.9 619.1,194.1 619.3,193.6 619.5,193.3 619.6,193.5 619.8,191.5 619.9,191.3 620.1,186.5 620.3,184.2 620.4,183.7 620.6,182.8 620.7,184.6 620.9,183.4 621.1,182.1 621.2,182.5 621.4,183.1 621.5,182.1 621.7,184.4 621.8,183.0 622.0,177.8 622.2,176.2 622.3,175.5 622.5,172.3 622.6,171.1 622.8,173.2 623.0,171.4 623.1,172.3 623.3,169.9 623.4,173.1 623.6,171.9 623.8,170.8 623.9,169.9 624.1,169.3 624.2,167.4 624.4,167.5 624.6,165.3 624.7,166.4 624.9,167.9 625.0,169.2 625.2,170.3 625.3,165.5 625.5,167.0 625.7,166.9 625.8,166.6 626.0,166.4 626.1,166.1 626.3,166.2 626.5,167.5 626.6,167.6 626.8,165.6 626.9,164.9 627.1,166.9 627.3,169.3 627.4,168.5 627.6,167.6 627.7,169.4 627.9,171.8 628.1,170.2 628.2,172.1 628.4,170.6 628.5,167.3 628.7,166.1 628.8,167.2 629.0,167.0 629.2,169.0 629.3,168.9 629.5,169.8 629.6,169.4 629.8,169.9 630.0,170.3 630.1,167.0 630.3,166.8 630.4,167.6 630.6,167.8 630.8,165.7 630.9,164.9 631.1,165.0 631.2,164.1 631.4,165.5 631.6,165.4 631.7,165.9 631.9,167.5 632.0,165.0 632.2,167.3 632.4,167.6 632.5,165.9 632.7,172.9 632.8,173.9 633.0,175.8 633.1,173.7 633.3,174.1 633.5,175.8 633.6,174.8 633.8,173.3 633.9,170.0 634.1,170.5 634.3,168.3 634.4,166.7 634.6,165.2 634.7,164.6 634.9,162.6 635.1,162.2 635.2,163.5 635.4,166.1 635.5,165.9 635.7,166.0 635.9,168.2 636.0,171.2 636.2,172.7 636.3,171.8 636.5,172.1 636.6,173.9 636.8,173.1 637.0,176.6 637.1,175.0 637.3,173.7 637.4,177.8 637.6,179.2 637.8,178.2 637.9,177.4 638.1,176.0 638.2,175.6 638.4,176.4 638.6,176.7 638.7,176.1 638.9,176.8 639.0,179.1 639.2,179.7 639.4,178.3 639.5,179.6 639.7,178.5 639.8,178.1 640.0,178.7 640.1,177.7 640.3,177.1 640.5,175.6 640.6,175.2 640.8,172.7 640.9,173.6 641.1,170.2 641.3,171.4 641.4,171.2 641.6,169.9 641.7,171.0 641.9,167.6 642.1,167.8 642.2,168.4 642.4,169.2 642.5,166.5 642.7,167.5 642.9,168.6 643.0,166.0 643.2,168.4 643.3,172.3 643.5,169.2 643.6,167.1 643.8,168.0 644.0,166.7 644.1,166.8 644.3,168.5 644.4,170.3 644.6,168.6 644.8,166.8 644.9,164.1 645.1,166.4 645.2,165.8 645.4,165.4 645.6,165.4 645.7,161.5 645.9,166.5 646.0,168.3 646.2,164.0 646.4,164.7 646.5,163.5 646.7,161.0 646.8,162.2 647.0,161.2 647.1,164.2 647.3,165.4 647.5,164.6 647.6,162.2 647.8,160.7 647.9,159.1 648.1,156.8 648.3,157.6 648.4,157.9 648.6,157.1 648.7,164.0 648.9,169.1 649.1,168.5 649.2,170.0 649.4,167.3 649.5,164.0 649.7,162.7 649.9,162.2 650.0,162.1 650.2,162.7 650.3,164.5 650.5,164.7 650.6,166.4 650.8,165.6 651.0,165.0 651.1,165.9 651.3,162.7 651.4,159.7 651.6,160.0 651.8,156.7 651.9,153.3 652.1,152.2 652.2,151.6 652.4,155.6 652.6,153.3 652.7,160.1 652.9,160.6 653.0,165.0 653.2,161.4 653.4,160.2 653.5,158.0 653.7,156.9 653.8,155.5 654.0,155.4 654.2,153.3 654.3,153.5 654.5,157.0 654.6,156.1 654.8,154.9 654.9,153.6 655.1,156.1 655.3,158.4 655.4,159.0 655.6,159.1 655.7,161.1 655.9,160.1 656.1,159.0 656.2,156.8 656.4,157.1 656.5,157.9 656.7,157.3 656.9,155.9 657.0,157.0 657.2,154.3 657.3,154.8 657.5,154.1 657.7,156.8 657.8,155.0 658.0,152.3 658.1,153.1 658.3,153.5 658.4,153.5 658.6,151.0 658.8,152.7 658.9,153.0 659.1,151.5 659.2,151.1 659.4,150.5 659.6,151.8 659.7,149.8 659.9,149.3 660.0,148.8 660.2,150.3 660.4,147.1 660.5,147.4 660.7,144.1 660.8,143.7 661.0,146.9 661.2,148.0 661.3,146.8 661.5,147.2 661.6,142.8 661.8,140.9 661.9,142.2 662.1,142.6 662.3,141.7 662.4,139.8 662.6,139.3 662.7,142.4 662.9,144.4 663.1,145.5 663.2,143.0 663.4,144.0 663.5,143.9 663.7,140.2 663.9,141.9 664.0,143.7 664.2,142.0 664.3,146.1 664.5,149.2 664.7,151.0 664.8,150.5 665.0,153.1 665.1,150.9 665.3,151.7 665.4,152.7 665.6,151.5 665.8,152.8 665.9,151.4 666.1,150.2 666.2,151.6 666.4,151.7 666.6,151.9 666.7,149.9 666.9,151.5 667.0,152.4 667.2,150.1 667.4,147.7 667.5,145.8 667.7,145.3 667.8,145.6 668.0,143.9 668.2,144.5 668.3,146.9 668.5,146.9 668.6,148.2 668.8,149.9 668.9,147.3 669.1,147.1 669.3,147.4 669.4,144.8 669.6,145.6 669.7,149.0 669.9,146.8 670.1,150.5 670.2,148.1 670.4,149.8 670.5,152.2 670.7,149.6 670.9,149.7 671.0,148.7 671.2,149.0 671.3,148.8 671.5,152.6 671.7,150.0 671.8,144.2 672.0,143.4 672.1,141.3 672.3,140.5 672.4,139.7 672.6,137.1 672.8,135.5 672.9,135.4 673.1,134.4 673.2,135.0 673.4,136.0 673.6,136.3 673.7,135.5 673.9,138.6 674.0,138.0 674.2,139.7 674.4,138.5 674.5,136.7 674.7,136.2 674.8,136.1 675.0,138.0 675.2,138.6 675.3,138.9 675.5,138.2 675.6,139.6 675.8,139.3 676.0,139.5 676.1,142.0 676.3,140.7 676.4,139.5 676.6,143.5 676.7,142.1 676.9,140.0 677.1,142.3 677.2,143.2 677.4,140.2 677.5,138.3 677.7,137.6 677.9,137.4 678.0,137.5 678.2,138.5 678.3,140.8 678.5,142.6 678.7,140.1 678.8,141.4 679.0,138.1 679.1,134.6 679.3,134.3 679.5,132.4 679.6,130.6 679.8,129.3 679.9,127.9 680.1,126.2 680.2,127.2 680.4,126.5 680.6,123.9 680.7,124.3 680.9,128.4 681.0,129.8 681.2,132.0 681.4,131.4 681.5,131.7 681.7,132.4 681.8,129.3 682.0,127.7 682.2,125.1 682.3,126.3 682.5,121.4 682.6,125.8 682.8,129.4 683.0,128.1 683.1,125.2 683.3,119.3 683.4,118.5 683.6,118.0 683.7,116.4 683.9,115.5 684.1,113.6 684.2,114.7 684.4,114.1 684.5,109.3 684.7,110.7 684.9,106.2 685.0,108.7 685.2,110.7 685.3,108.3 685.5,109.6 685.7,118.4 685.8,119.4 686.0,115.4 686.1,115.6 686.3,114.4 686.5,113.7 686.6,117.5 686.8,119.2 686.9,119.5 687.1,121.6 687.2,120.0 687.4,123.9 687.6,122.1 687.7,126.5 687.9,120.5 688.0,121.3 688.2,121.8 688.4,115.6 688.5,111.6 688.7,111.9 688.8,111.0 689.0,112.4 689.2,111.7 689.3,108.9 689.5,108.6 689.6,105.8 689.8,103.0 690.0,109.1 690.1,106.2 690.3,109.6 690.4,110.7 690.6,109.0 690.7,106.6 690.9,110.1 691.1,106.7 691.2,105.5 691.4,109.0 691.5,91.6 691.7,83.9 691.9,80.6 692.0,79.3 692.2,84.1 692.3,77.7 692.5,76.4 692.7,73.0 692.8,65.9 693.0,71.1 693.1,68.3 693.3,66.2 693.5,68.3 693.6,69.7 693.8,75.5 693.9,72.0 694.1,73.8 694.2,78.2 694.4,80.5 694.6,87.4 694.7,108.4 694.9,124.9 695.0,118.7 695.2,118.1 695.4,120.8 695.5,121.8 695.7,115.2 695.8,108.4 696.0,106.4"/>
  <polyline fill="none" stroke="#16a34a" stroke-width="2" points="56.0,282.1 56.2,282.4 56.3,282.8 56.5,283.1 56.6,282.4 56.8,282.0 57.0,281.5 57.1,281.6 57.3,282.4 57.4,281.9 57.6,282.6 57.8,282.1 57.9,283.5 58.1,283.2 58.2,283.9 58.4,284.2 58.5,284.4 58.7,284.4 58.9,285.8 59.0,285.1 59.2,285.5 59.3,286.0 59.5,286.0 59.7,286.0 59.8,286.3 60.0,285.9 60.1,285.7 60.3,285.6 60.5,286.0 60.6,285.5 60.8,285.6 60.9,285.9 61.1,285.9 61.3,285.3 61.4,285.5 61.6,285.9 61.7,287.1 61.9,287.7 62.0,287.6 62.2,288.3 62.4,288.3 62.5,288.1 62.7,288.3 62.8,288.4 63.0,288.2 63.2,288.2 63.3,288.3 63.5,288.3 63.6,288.3 63.8,289.0 64.0,289.1 64.1,289.4 64.3,289.6 64.4,289.8 64.6,289.6 64.8,289.2 64.9,289.1 65.1,288.8 65.2,288.8 65.4,288.9 65.5,289.0 65.7,288.9 65.9,289.0 66.0,288.8 66.2,288.7 66.3,288.7 66.5,288.6 66.7,289.0 66.8,289.2 67.0,289.3 67.1,289.8 67.3,289.8 67.5,289.5 67.6,289.4 67.8,289.7 67.9,290.1 68.1,289.8 68.3,289.9 68.4,289.7 68.6,289.7 68.7,289.8 68.9,289.6 69.0,289.5 69.2,288.8 69.4,288.8 69.5,288.5 69.7,288.6 69.8,288.1 70.0,288.2 70.2,287.8 70.3,287.7 70.5,287.3 70.6,287.4 70.8,287.5 71.0,287.5 71.1,287.6 71.3,287.6 71.4,287.9 71.6,287.5 71.8,287.6 71.9,287.6 72.1,287.2 72.2,287.0 72.4,287.0 72.5,287.1 72.7,287.2 72.9,287.5 73.0,287.4 73.2,287.2 73.3,287.4 73.5,287.2 73.7,287.0 73.8,287.1 74.0,287.2 74.1,287.7 74.3,287.9 74.5,287.9 74.6,287.7 74.8,287.7 74.9,287.4 75.1,287.4 75.3,287.1 75.4,287.1 75.6,287.5 75.7,287.9 75.9,288.3 76.0,288.3 76.2,288.3 76.4,288.3 76.5,288.9 76.7,288.8 76.8,288.8 77.0,288.8 77.2,288.8 77.3,288.6 77.5,288.6 77.6,288.2 77.8,288.5 78.0,288.4 78.1,288.3 78.3,287.8 78.4,287.7 78.6,287.8 78.8,287.9 78.9,287.7 79.1,287.4 79.2,287.6 79.4,287.6 79.6,287.9 79.7,287.7 79.9,287.9 80.0,288.1 80.2,288.3 80.3,288.1 80.5,288.2 80.7,288.3 80.8,288.1 81.0,288.2 81.1,288.3 81.3,288.3 81.5,288.3 81.6,288.1 81.8,287.8 81.9,287.6 82.1,287.4 82.3,287.3 82.4,286.6 82.6,285.8 82.7,286.1 82.9,285.1 83.1,286.2 83.2,286.1 83.4,285.5 83.5,285.6 83.7,286.3 83.8,286.1 84.0,285.3 84.2,284.1 84.3,284.0 84.5,285.1 84.6,285.3 84.8,284.9 85.0,285.1 85.1,284.8 85.3,284.7 85.4,284.8 85.6,285.7 85.8,285.2 85.9,285.1 86.1,285.3 86.2,285.2 86.4,285.1 86.6,285.2 86.7,284.9 86.9,284.5 87.0,284.4 87.2,284.2 87.3,284.3 87.5,284.6 87.7,284.6 87.8,284.4 88.0,284.4 88.1,285.3 88.3,285.2 88.5,285.3 88.6,285.7 88.8,285.7 88.9,285.7 89.1,285.7 89.3,285.8 89.4,285.8 89.6,285.7 89.7,285.6 89.9,285.7 90.1,285.9 90.2,285.8 90.4,285.6 90.5,285.8 90.7,285.8 90.8,285.5 91.0,285.4 91.2,285.8 91.3,285.8 91.5,285.8 91.6,286.1 91.8,286.1 92.0,286.1 92.1,285.8 92.3,285.7 92.4,285.7 92.6,285.6 92.8,285.7 92.9,285.3 93.1,285.0 93.2,285.1 93.4,285.0 93.6,284.9 93.7,285.1 93.9,285.9 94.0,286.4 94.2,286.5 94.3,286.4 94.5,286.1 94.7,286.9 94.8,286.7 95.0,286.6 95.1,287.2 95.3,287.4 95.5,287.8 95.6,287.3 95.8,287.4 95.9,287.4 96.1,287.5 96.3,287.8 96.4,288.0 96.6,287.7 96.7,287.8 96.9,287.4 97.1,287.4 97.2,287.5 97.4,287.5 97.5,287.8 97.7,287.5 97.8,287.4 98.0,287.2 98.2,287.1 98.3,287.1 98.5,287.1 98.6,287.0 98.8,287.2 99.0,287.7 99.1,287.6 99.3,287.8 99.4,288.0 99.6,288.2 99.8,288.3 99.9,288.2 100.1,288.0 100.2,287.8 100.4,288.1 100.6,287.7 100.7,287.8 100.9,288.1 101.0,288.2 101.2,288.2 101.4,288.4 101.5,288.6 101.7,288.3 101.8,289.0 102.0,288.4 102.1,289.1 102.3,288.1 102.5,288.7 102.6,287.7 102.8,287.9 102.9,287.5 103.1,287.6 103.3,287.8 103.4,288.3 103.6,288.1 103.7,288.5 103.9,288.2 104.1,287.7 104.2,288.1 104.4,287.3 104.5,287.0 104.7,287.0 104.9,286.8 105.0,287.1 105.2,287.6 105.3,287.5 105.5,286.4 105.6,286.6 105.8,286.5 106.0,286.1 106.1,285.8 106.3,285.8 106.4,286.1 106.6,285.5 106.8,285.5 106.9,285.6 107.1,286.1 107.2,285.7 107.4,285.9 107.6,285.7 107.7,285.6 107.9,286.1 108.0,286.5 108.2,287.3 108.4,287.6 108.5,287.4 108.7,286.9 108.8,287.1 109.0,287.3 109.1,286.6 109.3,286.4 109.5,286.2 109.6,286.3 109.8,286.5 109.9,286.5 110.1,286.5 110.3,286.7 110.4,286.5 110.6,286.6 110.7,286.3 110.9,287.0 111.1,286.5 111.2,286.2 111.4,286.2 111.5,286.2 111.7,286.8 111.9,286.8 112.0,286.4 112.2,285.6 112.3,285.2 112.5,285.8 112.6,286.0 112.8,285.8 113.0,285.6 113.1,285.9 113.3,285.7 113.4,285.9 113.6,286.2 113.8,286.1 113.9,286.5 114.1,286.3 114.2,286.7 114.4,286.5 114.6,286.1 114.7,286.1 114.9,285.7 115.0,285.7 115.2,285.9 115.4,285.9 115.5,286.2 115.7,286.1 115.8,286.2 116.0,285.9 116.1,286.2 116.3,286.6 116.5,286.8 116.6,286.6 116.8,286.3 116.9,286.5 117.1,286.2 117.3,286.2 117.4,286.7 117.6,286.2 117.7,286.2 117.9,286.3 118.1,286.4 118.2,286.4 118.4,286.3 118.5,286.6 118.7,286.7 118.9,286.9 119.0,287.0 119.2,286.9 119.3,286.8 119.5,286.8 119.6,286.5 119.8,286.7 120.0,286.7 120.1,286.5 120.3,286.6 120.4,286.5 120.6,286.6 120.8,286.6 120.9,286.6 121.1,286.6 121.2,286.6 121.4,286.6 121.6,286.5 121.7,286.2 121.9,286.0 122.0,285.9 122.2,285.8 122.4,286.1 122.5,286.0 122.7,285.0 122.8,285.2 123.0,285.4 123.2,285.5 123.3,285.3 123.5,285.3 123.6,285.5 123.8,285.4 123.9,285.1 124.1,285.2 124.3,285.2 124.4,285.1 124.6,285.3 124.7,285.1 124.9,285.3 125.1,285.3 125.2,285.6 125.4,285.6 125.5,285.4 125.7,285.4 125.9,285.3 126.0,285.2 126.2,285.1 126.3,285.0 126.5,285.0 126.7,284.8 126.8,284.6 127.0,284.4 127.1,284.4 127.3,284.0 127.4,284.0 127.6,284.6 127.8,284.5 127.9,284.7 128.1,284.8 128.2,284.9 128.4,284.9 128.6,285.0 128.7,285.2 128.9,285.4 129.0,285.7 129.2,285.7 129.4,285.7 129.5,285.9 129.7,285.9 129.8,285.9 130.0,286.0 130.2,286.1 130.3,286.1 130.5,286.3 130.6,286.3 130.8,286.1 130.9,285.9 131.1,285.8 131.3,286.0 131.4,285.9 131.6,286.4 131.7,286.3 131.9,286.4 132.1,286.7 132.2,286.8 132.4,286.7 132.5,286.8 132.7,286.8 132.9,287.0 133.0,286.8 133.2,287.0 133.3,287.2 133.5,287.0 133.7,287.0 133.8,286.9 134.0,286.8 134.1,286.7 134.3,286.8 134.4,286.6 134.6,286.9 134.8,286.8 134.9,286.9 135.1,286.7 135.2,286.4 135.4,285.9 135.6,285.9 135.7,285.9 135.9,285.9 136.0,285.7 136.2,285.7 136.4,285.5 136.5,285.5 136.7,285.0 136.8,285.2 137.0,285.3 137.2,285.5 137.3,285.7 137.5,285.7 137.6,285.6 137.8,285.5 137.9,285.3 138.1,285.2 138.3,285.1 138.4,285.1 138.6,285.0 138.7,285.2 138.9,285.2 139.1,285.2 139.2,285.3 139.4,285.2 139.5,284.9 139.7,284.9 139.9,284.9 140.0,284.8 140.2,284.9 140.3,284.9 140.5,284.8 140.7,285.0 140.8,284.8 141.0,284.6 141.1,284.6 141.3,284.7 141.5,284.7 141.6,284.8 141.8,285.0 141.9,284.9 142.1,284.7 142.2,284.4 142.4,284.4 142.6,284.4 142.7,284.4 142.9,284.4 143.0,284.4 143.2,284.4 143.4,284.4 143.5,284.5 143.7,284.5 143.8,284.5 144.0,284.6 144.2,284.6 144.3,284.5 144.5,284.5 144.6,284.4 144.8,284.6 145.0,284.6 145.1,284.7 145.3,284.4 145.4,284.6 145.6,284.6 145.7,284.5 145.9,284.6 146.1,284.6 146.2,284.5 146.4,284.4 146.5,284.2 146.7,284.0 146.9,283.9 147.0,283.6 147.2,283.6 147.3,283.6 147.5,283.6 147.7,283.9 147.8,284.2 148.0,283.9 148.1,284.1 148.3,284.0 148.5,284.1 148.6,284.0 148.8,283.9 148.9,283.9 149.1,284.0 149.2,284.0 149.4,284.0 149.6,284.1 149.7,284.2 149.9,284.2 150.0,284.1 150.2,284.0 150.4,284.1 150.5,284.4 150.7,284.4 150.8,284.5 151.0,284.4 151.2,284.4 151.3,284.3 151.5,284.1 151.6,283.3 151.8,283.6 152.0,283.4 152.1,283.3 152.3,283.5 152.4,283.6 152.6,283.7 152.7,283.7 152.9,283.9 153.1,284.1 153.2,284.2 153.4,284.0 153.5,284.1 153.7,284.1 153.9,284.1 154.0,284.0 154.2,284.1 154.3,284.0 154.5,283.9 154.7,283.9 154.8,283.7 155.0,283.9 155.1,283.8 155.3,283.8 155.5,283.6 155.6,283.7 155.8,283.8 155.9,283.8 156.1,283.7 156.2,283.7 156.4,283.8 156.6,283.8 156.7,283.6 156.9,284.0 157.0,283.3 157.2,283.6 157.4,283.8 157.5,284.0 157.7,284.2 157.8,284.1 158.0,284.1 158.2,283.6 158.3,283.4 158.5,282.9 158.6,282.9 158.8,282.9 159.0,282.7 159.1,282.6 159.3,282.5 159.4,282.5 159.6,282.3 159.7,282.1 159.9,282.0 160.1,281.7 160.2,281.6 160.4,281.7 160.5,281.5 160.7,281.5 160.9,281.5 161.0,281.4 161.2,281.4 161.3,281.2 161.5,281.1 161.7,281.2 161.8,281.1 162.0,281.0 162.1,280.9 162.3,280.8 162.5,280.6 162.6,280.5 162.8,280.5 162.9,280.0 163.1,279.9 163.3,280.0 163.4,280.3 163.6,280.2 163.7,280.1 163.9,280.7 164.0,280.1 164.2,279.9 164.4,279.9 164.5,280.2 164.7,279.9 164.8,279.8 165.0,279.9 165.2,280.0 165.3,280.1 165.5,279.9 165.6,280.0 165.8,279.9 166.0,279.6 166.1,279.7 166.3,279.8 166.4,279.9 166.6,279.6 166.8,279.7 166.9,279.6 167.1,279.5 167.2,279.5 167.4,279.5 167.5,279.2 167.7,279.4 167.9,279.3 168.0,279.8 168.2,279.6 168.3,279.6 168.5,279.5 168.7,279.8 168.8,279.2 169.0,279.0 169.1,279.2 169.3,279.7 169.5,279.4 169.6,279.7 169.8,279.8 169.9,279.5 170.1,279.6 170.3,279.6 170.4,279.6 170.6,279.5 170.7,279.5 170.9,279.2 171.0,278.9 171.2,279.0 171.4,278.9 171.5,278.1 171.7,278.0 171.8,277.8 172.0,277.8 172.2,277.9 172.3,277.7 172.5,277.5 172.6,277.3 172.8,277.2 173.0,277.1 173.1,276.8 173.3,276.9 173.4,276.7 173.6,277.2 173.8,276.9 173.9,276.9 174.1,276.8 174.2,276.9 174.4,276.8 174.5,277.2 174.7,277.0 174.9,277.3 175.0,277.3 175.2,276.9 175.3,276.5 175.5,275.8 175.7,276.1 175.8,276.3 176.0,275.8 176.1,275.6 176.3,275.2 176.5,275.1 176.6,275.4 176.8,275.6 176.9,275.6 177.1,274.8 177.3,274.5 177.4,273.8 177.6,272.8 177.7,273.0 177.9,272.5 178.0,272.9 178.2,272.8 178.4,272.5 178.5,272.3 178.7,272.4 178.8,272.7 179.0,272.5 179.2,272.6 179.3,272.3 179.5,272.1 179.6,271.7 179.8,271.4 180.0,271.7 180.1,271.1 180.3,271.4 180.4,271.0 180.6,271.3 180.8,271.1 180.9,271.1 181.1,271.0 181.2,270.7 181.4,270.3 181.5,270.2 181.7,271.6 181.9,272.3 182.0,272.4 182.2,271.9 182.3,271.6 182.5,271.3 182.7,271.1 182.8,271.4 183.0,272.1 183.1,272.2 183.3,272.4 183.5,272.1 183.6,272.2 183.8,271.5 183.9,271.7 184.1,271.7 184.3,273.1 184.4,272.7 184.6,272.6 184.7,273.5 184.9,274.0 185.1,273.9 185.2,273.8 185.4,273.9 185.5,273.6 185.7,273.5 185.8,273.1 186.0,273.3 186.2,273.3 186.3,273.9 186.5,273.8 186.6,273.7 186.8,273.6 187.0,273.8 187.1,273.9 187.3,273.9 187.4,274.0 187.6,273.7 187.8,273.8 187.9,273.9 188.1,272.9 188.2,273.6 188.4,273.4 188.6,273.3 188.7,273.5 188.9,273.7 189.0,273.8 189.2,272.8 189.3,272.7 189.5,272.3 189.7,272.6 189.8,272.1 190.0,272.0 190.1,271.1 190.3,271.1 190.5,270.6 190.6,270.4 190.8,270.6 190.9,270.4 191.1,271.0 191.3,270.9 191.4,271.3 191.6,271.8 191.7,271.4 191.9,271.0 192.1,270.7 192.2,270.5 192.4,271.2 192.5,270.1 192.7,269.9 192.8,270.7 193.0,270.4 193.2,270.4 193.3,269.8 193.5,270.1 193.6,269.9 193.8,268.9 194.0,268.1 194.1,267.9 194.3,268.3 194.4,268.7 194.6,269.1 194.8,269.3 194.9,268.9 195.1,270.0 195.2,270.1 195.4,270.4 195.6,269.9 195.7,270.0 195.9,269.9 196.0,270.3 196.2,269.7 196.3,269.7 196.5,269.1 196.7,269.3 196.8,269.2 197.0,269.5 197.1,269.3 197.3,268.8 197.5,268.8 197.6,269.0 197.8,269.1 197.9,269.3 198.1,269.5 198.3,270.2 198.4,269.7 198.6,270.2 198.7,270.3 198.9,270.8 199.1,270.9 199.2,270.9 199.4,271.8 199.5,271.0 199.7,270.9 199.8,271.4 200.0,270.9 200.2,270.9 200.3,270.3 200.5,270.3 200.6,270.8 200.8,271.4 201.0,270.7 201.1,271.0 201.3,269.9 201.4,269.5 201.6,271.4 201.8,270.1 201.9,270.3 202.1,269.7 202.2,268.6 202.4,268.0 202.6,267.7 202.7,266.9 202.9,266.5 203.0,266.7 203.2,266.6 203.3,267.3 203.5,267.8 203.7,268.1 203.8,268.0 204.0,268.3 204.1,268.4 204.3,268.3 204.5,268.2 204.6,267.3 204.8,266.5 204.9,266.1 205.1,266.0 205.3,266.1 205.4,266.6 205.6,266.8 205.7,266.5 205.9,266.1 206.1,265.3 206.2,265.2 206.4,266.2 206.5,266.8 206.7,266.5 206.9,266.9 207.0,266.5 207.2,266.3 207.3,266.9 207.5,266.6 207.6,267.1 207.8,266.5 208.0,266.7 208.1,267.4 208.3,267.7 208.4,268.4 208.6,269.7 208.8,270.1 208.9,269.3 209.1,270.1 209.2,270.3 209.4,270.5 209.6,270.5 209.7,269.8 209.9,269.4 210.0,269.5 210.2,269.0 210.4,269.1 210.5,268.9 210.7,269.2 210.8,269.2 211.0,268.9 211.1,268.6 211.3,268.6 211.5,269.0 211.6,268.7 211.8,269.5 211.9,270.1 212.1,270.2 212.3,270.3 212.4,269.8 212.6,270.2 212.7,270.7 212.9,271.4 213.1,271.6 213.2,271.5 213.4,271.9 213.5,271.4 213.7,271.2 213.9,270.9 214.0,270.3 214.2,270.4 214.3,270.4 214.5,270.4 214.6,270.6 214.8,272.0 215.0,272.2 215.1,272.0 215.3,271.7 215.4,271.7 215.6,272.3 215.8,272.0 215.9,271.3 216.1,270.7 216.2,270.6 216.4,269.9 216.6,270.6 216.7,271.1 216.9,271.5 217.0,271.3 217.2,271.8 217.4,271.6 217.5,271.5 217.7,271.4 217.8,271.3 218.0,271.5 218.1,271.8 218.3,271.8 218.5,271.9 218.6,272.5 218.8,272.3 218.9,272.8 219.1,272.8 219.3,272.3 219.4,272.6 219.6,272.9 219.7,272.0 219.9,271.5 220.1,271.1 220.2,272.0 220.4,271.8 220.5,271.6 220.7,271.5 220.9,271.3 221.0,271.6 221.2,271.4 221.3,271.8 221.5,271.0 221.6,271.3 221.8,271.0 222.0,270.7 222.1,270.7 222.3,270.4 222.4,270.4 222.6,270.6 222.8,270.4 222.9,270.5 223.1,270.1 223.2,269.7 223.4,269.8 223.6,270.1 223.7,270.1 223.9,270.1 224.0,268.8 224.2,268.3 224.4,268.9 224.5,268.8 224.7,268.8 224.8,268.6 225.0,268.8 225.1,268.9 225.3,268.6 225.5,268.2 225.6,268.4 225.8,268.0 225.9,267.9 226.1,267.7 226.3,267.7 226.4,267.7 226.6,267.3 226.7,267.0 226.9,267.5 227.1,267.8 227.2,268.1 227.4,268.2 227.5,268.5 227.7,268.3 227.9,268.6 228.0,268.5 228.2,268.6 228.3,268.0 228.5,267.9 228.7,267.9 228.8,268.3 229.0,267.3 229.1,267.0 229.3,267.2 229.4,267.7 229.6,267.2 229.8,266.6 229.9,267.2 230.1,268.0 230.2,266.8 230.4,266.7 230.6,266.7 230.7,266.3 230.9,265.9 231.0,265.9 231.2,265.8 231.4,265.4 231.5,265.3 231.7,265.0 231.8,264.0 232.0,262.9 232.2,263.4 232.3,263.4 232.5,263.1 232.6,263.1 232.8,262.8 232.9,263.6 233.1,263.8 233.3,263.8 233.4,264.2 233.6,264.6 233.7,264.4 233.9,264.7 234.1,264.7 234.2,264.7 234.4,264.7 234.5,264.5 234.7,264.4 234.9,264.2 235.0,264.0 235.2,264.1 235.3,264.0 235.5,263.9 235.7,263.3 235.8,262.9 236.0,262.3 236.1,262.0 236.3,262.8 236.4,262.9 236.6,262.9 236.8,262.5 236.9,261.4 237.1,261.6 237.2,261.3 237.4,261.3 237.6,261.4 237.7,261.6 237.9,261.4 238.0,261.6 238.2,262.1 238.4,262.2 238.5,260.8 238.7,260.4 238.8,259.7 239.0,260.1 239.2,260.4 239.3,260.4 239.5,260.9 239.6,261.1 239.8,261.1 239.9,260.1 240.1,260.5 240.3,261.8 240.4,260.5 240.6,260.5 240.7,260.2 240.9,260.6 241.1,260.9 241.2,260.7 241.4,261.4 241.5,261.7 241.7,261.8 241.9,261.4 242.0,261.0 242.2,262.7 242.3,263.5 242.5,263.3 242.7,263.0 242.8,262.9 243.0,262.4 243.1,262.6 243.3,262.9 243.4,263.1 243.6,262.6 243.8,262.4 243.9,262.6 244.1,263.1 244.2,263.8 244.4,264.3 244.6,264.7 244.7,265.0 244.9,265.3 245.0,265.0 245.2,264.4 245.4,264.0 245.5,263.9 245.7,263.9 245.8,264.5 246.0,264.7 246.2,264.3 246.3,264.4 246.5,265.1 246.6,264.4 246.8,264.6 246.9,264.7 247.1,265.5 247.3,266.2 247.4,265.8 247.6,266.0 247.7,265.5 247.9,266.0 248.1,266.4 248.2,266.9 248.4,266.8 248.5,266.5 248.7,266.5 248.9,266.2 249.0,266.1 249.2,266.1 249.3,265.5 249.5,265.4 249.7,265.3 249.8,265.6 250.0,265.8 250.1,266.1 250.3,266.1 250.5,265.9 250.6,266.1 250.8,266.6 250.9,266.2 251.1,266.3 251.2,266.7 251.4,267.2 251.6,267.2 251.7,267.2 251.9,267.0 252.0,266.4 252.2,266.1 252.4,265.6 252.5,265.1 252.7,265.1 252.8,264.7 253.0,265.2 253.2,265.4 253.3,265.3 253.5,265.5 253.6,265.6 253.8,264.9 254.0,265.1 254.1,265.4 254.3,265.3 254.4,265.3 254.6,265.6 254.7,266.0 254.9,266.0 255.1,266.0 255.2,266.2 255.4,266.0 255.5,265.9 255.7,265.6 255.9,265.2 256.0,265.4 256.2,264.7 256.3,264.8 256.5,264.8 256.7,265.2 256.8,265.3 257.0,265.4 257.1,265.7 257.3,266.2 257.5,265.9 257.6,266.1 257.8,266.2 257.9,266.1 258.1,265.3 258.2,264.7 258.4,264.1 258.6,264.2 258.7,264.1 258.9,263.7 259.0,263.1 259.2,264.1 259.4,263.8 259.5,263.4 259.7,263.3 259.8,263.1 260.0,263.3 260.2,263.6 260.3,263.0 260.5,263.4 260.6,263.1 260.8,263.8 261.0,264.1 261.1,263.8 261.3,263.2 261.4,263.0 261.6,262.8 261.7,262.7 261.9,262.4 262.1,262.4 262.2,262.1 262.4,261.8 262.5,262.2 262.7,262.2 262.9,262.1 263.0,261.5 263.2,261.5 263.3,261.6 263.5,261.9 263.7,262.4 263.8,263.4 264.0,264.1 264.1,264.0 264.3,262.6 264.5,262.1 264.6,261.9 264.8,262.2 264.9,262.7 265.1,261.9 265.2,261.9 265.4,262.1 265.6,261.4 265.7,261.5 265.9,260.8 266.0,260.4 266.2,260.5 266.4,260.5 266.5,260.2 266.7,261.0 266.8,261.3 267.0,260.8 267.2,261.0 267.3,260.4 267.5,260.3 267.6,260.2 267.8,260.7 268.0,260.6 268.1,259.7 268.3,259.6 268.4,259.6 268.6,260.3 268.7,260.7 268.9,261.0 269.1,260.5 269.2,260.8 269.4,260.5 269.5,261.0 269.7,260.6 269.9,260.2 270.0,260.9 270.2,260.6 270.3,260.6 270.5,261.0 270.7,260.3 270.8,259.8 271.0,259.6 271.1,259.2 271.3,258.6 271.5,258.4 271.6,259.8 271.8,258.9 271.9,258.6 272.1,259.2 272.3,258.9 272.4,258.6 272.6,258.4 272.7,257.8 272.9,257.4 273.0,258.2 273.2,258.1 273.4,257.9 273.5,257.5 273.7,256.9 273.8,256.7 274.0,256.6 274.2,256.9 274.3,257.0 274.5,256.7 274.6,256.3 274.8,256.4 275.0,257.6 275.1,258.0 275.3,259.1 275.4,258.2 275.6,258.3 275.8,260.3 275.9,261.6 276.1,261.4 276.2,260.9 276.4,259.9 276.5,259.5 276.7,260.4 276.9,261.1 277.0,261.4 277.2,261.0 277.3,260.7 277.5,261.3 277.7,260.8 277.8,260.8 278.0,260.5 278.1,260.6 278.3,261.2 278.5,261.7 278.6,262.3 278.8,262.7 278.9,262.5 279.1,262.7 279.3,262.2 279.4,262.0 279.6,262.6 279.7,262.2 279.9,261.9 280.0,261.9 280.2,262.1 280.4,262.8 280.5,261.3 280.7,262.2 280.8,261.8 281.0,261.6 281.2,261.4 281.3,260.0 281.5,260.4 281.6,260.7 281.8,261.5 282.0,263.3 282.1,263.9 282.3,264.4 282.4,263.2 282.6,263.1 282.8,262.9 282.9,262.8 283.1,263.0 283.2,263.2 283.4,263.2 283.5,262.6 283.7,262.8 283.9,262.3 284.0,261.8 284.2,262.3 284.3,262.4 284.5,262.7 284.7,262.2 284.8,262.4 285.0,261.9 285.1,261.7 285.3,262.3 285.5,260.7 285.6,261.0 285.8,261.0 285.9,261.0 286.1,260.5 286.3,260.1 286.4,260.4 286.6,260.5 286.7,261.2 286.9,261.3 287.0,261.3 287.2,260.8 287.4,261.3 287.5,261.1 287.7,260.9 287.8,261.0 288.0,260.9 288.2,259.9 288.3,260.3 288.5,260.8 288.6,260.8 288.8,261.1 289.0,261.7 289.1,261.6 289.3,261.7 289.4,261.3 289.6,261.5 289.8,261.4 289.9,261.2 290.1,260.8 290.2,260.6 290.4,261.0 290.5,260.7 290.7,261.0 290.9,260.8 291.0,261.1 291.2,261.7 291.3,263.1 291.5,262.3 291.7,262.7 291.8,262.6 292.0,262.6 292.1,262.3 292.3,262.3 292.5,261.8 292.6,262.2 292.8,261.5 292.9,262.0 293.1,262.0 293.3,262.5 293.4,262.5 293.6,262.2 293.7,261.9 293.9,262.1 294.1,261.6 294.2,261.6 294.4,262.0 294.5,261.8 294.7,262.0 294.8,262.2 295.0,262.5 295.2,262.4 295.3,262.5 295.5,262.8 295.6,262.4 295.8,262.2 296.0,261.5 296.1,261.3 296.3,261.0 296.4,261.5 296.6,261.2 296.8,262.0 296.9,262.3 297.1,262.2 297.2,261.9 297.4,261.3 297.6,261.2 297.7,262.0 297.9,261.8 298.0,260.6 298.2,260.0 298.3,260.5 298.5,259.5 298.7,259.9 298.8,259.9 299.0,259.4 299.1,259.1 299.3,258.9 299.5,259.3 299.6,258.9 299.8,258.8 299.9,259.0 300.1,258.7 300.3,259.2 300.4,259.5 300.6,259.2 300.7,258.9 300.9,259.0 301.1,258.6 301.2,258.9 301.4,258.6 301.5,258.9 301.7,258.8 301.8,258.6 302.0,258.7 302.2,258.7 302.3,258.8 302.5,259.0 302.6,259.0 302.8,259.7 303.0,259.7 303.1,259.1 303.3,259.7 303.4,259.0 303.6,258.7 303.8,259.0 303.9,258.9 304.1,259.0 304.2,258.7 304.4,258.8 304.6,258.6 304.7,258.5 304.9,258.5 305.0,258.7 305.2,258.5 305.3,258.8 305.5,258.8 305.7,258.7 305.8,258.8 306.0,259.1 306.1,258.2 306.3,258.9 306.5,259.3 306.6,259.1 306.8,258.5 306.9,258.2 307.1,258.1 307.3,258.0 307.4,258.2 307.6,257.7 307.7,260.1 307.9,259.9 308.1,260.2 308.2,260.9 308.4,261.2 308.5,260.6 308.7,259.9 308.8,259.5 309.0,259.4 309.2,259.2 309.3,259.9 309.5,259.7 309.6,259.9 309.8,260.5 310.0,260.4 310.1,261.4 310.3,261.1 310.4,261.2 310.6,261.9 310.8,261.8 310.9,261.5 311.1,261.8 311.2,262.1 311.4,262.9 311.6,262.2 311.7,262.2 311.9,262.3 312.0,262.4 312.2,262.4 312.4,262.1 312.5,261.9 312.7,262.0 312.8,260.3 313.0,259.4 313.1,259.2 313.3,258.7 313.5,258.8 313.6,258.8 313.8,258.6 313.9,258.7 314.1,258.9 314.3,259.0 314.4,259.2 314.6,258.9 314.7,258.7 314.9,258.6 315.1,258.6 315.2,258.2 315.4,256.5 315.5,256.1 315.7,255.6 315.9,254.7 316.0,254.4 316.2,253.5 316.3,253.5 316.5,253.6 316.6,253.8 316.8,254.3 317.0,254.2 317.1,254.3 317.3,254.7 317.4,255.2 317.6,255.5 317.8,255.7 317.9,255.4 318.1,255.7 318.2,255.5 318.4,255.3 318.6,255.9 318.7,254.1 318.9,254.6 319.0,254.3 319.2,254.9 319.4,255.5 319.5,255.3 319.7,255.4 319.8,254.6 320.0,254.8 320.1,254.4 320.3,254.1 320.5,253.6 320.6,253.9 320.8,253.5 320.9,252.7 321.1,252.7 321.3,252.8 321.4,252.8 321.6,251.6 321.7,252.4 321.9,252.7 322.1,252.6 322.2,252.8 322.4,251.9 322.5,253.3 322.7,252.6 322.9,252.9 323.0,252.0 323.2,251.6 323.3,251.3 323.5,251.1 323.6,250.8 323.8,251.0 324.0,251.0 324.1,251.2 324.3,251.6 324.4,252.1 324.6,252.6 324.8,251.8 324.9,252.5 325.1,252.5 325.2,252.7 325.4,252.7 325.6,252.4 325.7,252.3 325.9,251.6 326.0,251.2 326.2,251.1 326.4,251.2 326.5,251.1 326.7,251.0 326.8,251.1 327.0,251.6 327.1,251.6 327.3,251.5 327.5,251.7 327.6,251.9 327.8,251.9 327.9,251.9 328.1,251.4 328.3,250.7 328.4,251.0 328.6,250.8 328.7,251.1 328.9,251.2 329.1,250.7 329.2,250.7 329.4,251.0 329.5,250.4 329.7,250.6 329.9,250.0 330.0,250.1 330.2,250.0 330.3,249.4 330.5,249.5 330.6,248.9 330.8,248.7 331.0,249.0 331.1,249.8 331.3,249.8 331.4,249.7 331.6,249.5 331.8,249.4 331.9,249.5 332.1,249.0 332.2,249.9 332.4,248.2 332.6,248.3 332.7,248.6 332.9,248.8 333.0,248.2 333.2,248.8 333.4,248.7 333.5,248.5 333.7,248.1 333.8,248.1 334.0,247.7 334.2,247.5 334.3,247.3 334.5,247.1 334.6,247.1 334.8,247.3 334.9,247.0 335.1,247.0 335.3,246.9 335.4,247.0 335.6,245.6 335.7,245.6 335.9,245.1 336.1,245.1 336.2,245.0 336.4,244.9 336.5,245.2 336.7,245.8 336.9,245.2 337.0,245.6 337.2,245.7 337.3,245.8 337.5,245.7 337.7,245.2 337.8,244.9 338.0,244.6 338.1,244.3 338.3,244.0 338.4,243.7 338.6,243.0 338.8,243.5 338.9,243.0 339.1,243.2 339.2,243.1 339.4,243.7 339.6,243.3 339.7,243.6 339.9,243.6 340.0,242.9 340.2,243.0 340.4,242.9 340.5,242.4 340.7,242.4 340.8,242.7 341.0,242.3 341.2,242.8 341.3,242.7 341.5,242.0 341.6,241.5 341.8,241.8 341.9,241.7 342.1,242.7 342.3,241.9 342.4,241.4 342.6,240.5 342.7,240.6 342.9,240.9 343.1,240.3 343.2,240.0 343.4,239.9 343.5,240.3 343.7,240.8 343.9,240.3 344.0,239.0 344.2,239.5 344.3,239.4 344.5,238.6 344.7,238.4 344.8,238.2 345.0,238.3 345.1,237.9 345.3,237.8 345.4,237.0 345.6,236.0 345.8,236.1 345.9,235.4 346.1,235.6 346.2,235.4 346.4,235.0 346.6,234.7 346.7,235.4 346.9,234.9 347.0,234.9 347.2,234.3 347.4,234.4 347.5,234.2 347.7,234.4 347.8,235.4 348.0,234.1 348.2,233.7 348.3,233.5 348.5,233.2 348.6,232.6 348.8,232.4 348.9,233.0 349.1,233.2 349.3,232.5 349.4,233.0 349.6,232.6 349.7,232.0 349.9,231.7 350.1,232.2 350.2,232.3 350.4,232.2 350.5,232.7 350.7,232.0 350.9,231.5 351.0,231.8 351.2,232.2 351.3,231.0 351.5,230.7 351.7,230.8 351.8,230.0 352.0,230.3 352.1,228.4 352.3,228.7 352.4,229.1 352.6,229.8 352.8,229.8 352.9,229.3 353.1,229.1 353.2,228.3 353.4,227.7 353.6,228.4 353.7,228.1 353.9,227.8 354.0,226.0 354.2,225.8 354.4,225.9 354.5,225.4 354.7,225.2 354.8,223.8 355.0,224.9 355.2,223.3 355.3,222.8 355.5,223.5 355.6,223.1 355.8,223.3 356.0,222.8 356.1,222.1 356.3,221.4 356.4,220.6 356.6,221.4 356.7,221.6 356.9,221.4 357.1,221.8 357.2,222.5 357.4,222.8 357.5,222.5 357.7,222.6 357.9,222.9 358.0,222.4 358.2,222.4 358.3,222.5 358.5,223.7 358.7,223.2 358.8,222.9 359.0,220.6 359.1,219.3 359.3,218.5 359.5,217.5 359.6,217.6 359.8,218.1 359.9,218.5 360.1,218.1 360.2,217.2 360.4,216.5 360.6,216.1 360.7,215.9 360.9,215.4 361.0,214.4 361.2,214.5 361.4,215.7 361.5,216.9 361.7,216.2 361.8,214.8 362.0,216.0 362.2,218.7 362.3,227.5 362.5,229.0 362.6,231.2 362.8,233.9 363.0,231.5 363.1,230.5 363.3,228.7 363.4,227.2 363.6,231.0 363.7,231.5 363.9,231.1 364.1,232.0 364.2,232.8 364.4,231.1 364.5,231.9 364.7,230.7 364.9,231.1 365.0,228.7 365.2,228.5 365.3,226.7 365.5,226.3 365.7,225.6 365.8,222.6 366.0,223.0 366.1,225.6 366.3,226.0 366.5,226.4 366.6,226.0 366.8,226.5 366.9,225.6 367.1,227.2 367.2,230.3 367.4,230.9 367.6,229.0 367.7,230.6 367.9,230.7 368.0,229.3 368.2,230.4 368.4,231.3 368.5,231.2 368.7,230.9 368.8,232.4 369.0,232.0 369.2,231.8 369.3,233.0 369.5,232.2 369.6,233.0 369.8,232.8 370.0,231.9 370.1,232.4 370.3,232.1 370.4,231.9 370.6,233.3 370.7,234.9 370.9,234.4 371.1,234.0 371.2,234.4 371.4,234.1 371.5,233.7 371.7,234.1 371.9,234.9 372.0,236.8 372.2,236.4 372.3,236.9 372.5,235.9 372.7,234.9 372.8,234.0 373.0,233.2 373.1,233.2 373.3,233.0 373.5,233.0 373.6,234.2 373.8,234.3 373.9,235.6 374.1,236.0 374.2,236.7 374.4,236.5 374.6,237.2 374.7,239.1 374.9,240.0 375.0,239.5 375.2,239.7 375.4,238.9 375.5,238.2 375.7,236.6 375.8,235.9 376.0,235.3 376.2,234.8 376.3,235.5 376.5,236.0 376.6,236.6 376.8,236.2 377.0,235.1 377.1,235.7 377.3,235.9 377.4,235.2 377.6,235.8 377.8,234.7 377.9,235.9 378.1,236.0 378.2,235.8 378.4,236.0 378.5,236.9 378.7,236.5 378.9,237.9 379.0,236.4 379.2,236.6 379.3,237.1 379.5,236.4 379.7,236.6 379.8,236.0 380.0,235.3 380.1,234.6 380.3,235.4 380.5,235.5 380.6,235.7 380.8,235.8 380.9,235.0 381.1,235.9 381.3,237.0 381.4,240.6 381.6,240.3 381.7,240.8 381.9,241.2 382.0,241.9 382.2,243.0 382.4,242.6 382.5,243.2 382.7,243.6 382.8,243.3 383.0,243.1 383.2,242.7 383.3,241.9 383.5,241.6 383.6,241.2 383.8,239.2 384.0,239.8 384.1,239.0 384.3,238.4 384.4,236.8 384.6,237.7 384.8,238.3 384.9,238.0 385.1,238.0 385.2,237.9 385.4,235.9 385.5,236.3 385.7,236.6 385.9,235.6 386.0,236.2 386.2,235.8 386.3,236.2 386.5,235.8 386.7,235.7 386.8,235.4 387.0,234.4 387.1,234.0 387.3,233.8 387.5,233.8 387.6,235.0 387.8,237.2 387.9,239.2 388.1,239.9 388.3,241.1 388.4,240.4 388.6,240.6 388.7,241.3 388.9,241.4 389.0,240.3 389.2,238.5 389.4,237.5 389.5,237.2 389.7,237.9 389.8,238.4 390.0,238.9 390.2,236.6 390.3,236.7 390.5,236.3 390.6,235.3 390.8,235.6 391.0,234.1 391.1,234.7 391.3,234.1 391.4,234.0 391.6,232.7 391.8,230.7 391.9,230.1 392.1,231.7 392.2,230.5 392.4,230.6 392.5,230.4 392.7,231.2 392.9,232.1 393.0,232.7 393.2,233.5 393.3,232.3 393.5,232.2 393.7,232.2 393.8,231.9 394.0,231.4 394.1,232.0 394.3,233.3 394.5,233.7 394.6,233.7 394.8,233.3 394.9,234.4 395.1,234.0 395.3,233.5 395.4,235.1 395.6,235.9 395.7,236.1 395.9,235.6 396.0,234.9 396.2,236.3 396.4,235.5 396.5,236.6 396.7,237.9 396.8,238.3 397.0,239.0 397.2,239.7 397.3,240.6 397.5,241.0 397.6,244.1 397.8,242.3 398.0,241.3 398.1,240.9 398.3,239.9 398.4,241.1 398.6,241.3 398.8,239.5 398.9,240.7 399.1,242.6 399.2,243.1 399.4,243.9 399.6,244.0 399.7,243.5 399.9,243.2 400.0,243.0 400.2,242.6 400.3,241.6 400.5,240.2 400.7,239.6 400.8,241.0 401.0,241.0 401.1,240.6 401.3,241.3 401.5,242.6 401.6,242.8 401.8,242.3 401.9,242.5 402.1,241.6 402.3,241.7 402.4,241.7 402.6,241.9 402.7,242.3 402.9,242.3 403.1,241.7 403.2,243.2 403.4,242.6 403.5,242.2 403.7,241.6 403.8,241.8 404.0,240.6 404.2,241.4 404.3,241.7 404.5,242.2 404.6,241.1 404.8,240.9 405.0,240.0 405.1,240.4 405.3,241.8 405.4,243.2 405.6,243.4 405.8,242.0 405.9,241.3 406.1,241.1 406.2,241.5 406.4,240.4 406.6,241.1 406.7,241.4 406.9,241.9 407.0,241.9 407.2,241.4 407.3,241.5 407.5,241.8 407.7,242.1 407.8,242.2 408.0,241.4 408.1,240.5 408.3,240.7 408.5,241.2 408.6,241.2 408.8,241.1 408.9,241.3 409.1,241.7 409.3,240.9 409.4,241.1 409.6,240.9 409.7,239.9 409.9,239.1 410.1,237.9 410.2,237.6 410.4,237.8 410.5,237.7 410.7,237.6 410.8,237.3 411.0,237.4 411.2,237.8 411.3,237.4 411.5,237.8 411.6,238.5 411.8,237.8 412.0,236.5 412.1,237.3 412.3,236.7 412.4,236.1 412.6,236.2 412.8,236.4 412.9,235.2 413.1,235.9 413.2,235.1 413.4,234.7 413.6,233.5 413.7,233.7 413.9,233.4 414.0,234.4 414.2,234.0 414.3,234.9 414.5,233.7 414.7,234.2 414.8,232.9 415.0,232.5 415.1,232.0 415.3,231.4 415.5,231.3 415.6,231.1 415.8,231.2 415.9,233.3 416.1,233.5 416.3,233.8 416.4,233.4 416.6,234.1 416.7,234.3 416.9,234.4 417.1,233.9 417.2,234.3 417.4,233.7 417.5,233.6 417.7,234.7 417.8,234.5 418.0,236.1 418.2,234.1 418.3,233.0 418.5,232.0 418.6,231.7 418.8,231.6 419.0,231.3 419.1,230.9 419.3,230.0 419.4,229.4 419.6,229.3 419.8,229.3 419.9,229.3 420.1,229.1 420.2,228.8 420.4,229.1 420.6,228.9 420.7,230.9 420.9,231.2 421.0,231.2 421.2,231.7 421.4,231.6 421.5,232.4 421.7,228.7 421.8,227.8 422.0,228.9 422.1,226.5 422.3,226.8 422.5,226.2 422.6,226.2 422.8,225.9 422.9,225.0 423.1,225.9 423.3,224.3 423.4,224.6 423.6,225.3 423.7,225.9 423.9,226.0 424.1,225.6 424.2,225.6 424.4,225.1 424.5,225.5 424.7,225.5 424.9,226.2 425.0,226.1 425.2,226.1 425.3,226.0 425.5,226.0 425.6,226.4 425.8,226.4 426.0,228.6 426.1,228.8 426.3,228.7 426.4,231.3 426.6,231.3 426.8,229.7 426.9,228.3 427.1,227.8 427.2,228.4 427.4,228.2 427.6,226.7 427.7,226.9 427.9,227.0 428.0,228.5 428.2,228.8 428.4,228.4 428.5,230.2 428.7,228.0 428.8,227.9 429.0,226.6 429.1,227.8 429.3,227.4 429.5,227.4 429.6,228.4 429.8,228.6 429.9,228.7 430.1,228.4 430.3,227.8 430.4,227.6 430.6,228.6 430.7,229.0 430.9,229.4 431.1,228.3 431.2,229.3 431.4,229.9 431.5,229.5 431.7,227.7 431.9,228.6 432.0,228.8 432.2,229.7 432.3,228.6 432.5,229.1 432.6,228.5 432.8,228.8 433.0,228.7 433.1,228.2 433.3,227.2 433.4,227.1 433.6,225.8 433.8,225.2 433.9,223.9 434.1,223.4 434.2,223.5 434.4,223.1 434.6,223.1 434.7,225.8 434.9,226.5 435.0,226.2 435.2,226.0 435.4,225.5 435.5,225.4 435.7,225.6 435.8,225.1 436.0,225.7 436.1,228.3 436.3,228.3 436.5,228.5 436.6,228.4 436.8,227.4 436.9,227.6 437.1,227.8 437.3,227.1 437.4,226.1 437.6,226.6 437.7,226.2 437.9,226.1 438.1,226.3 438.2,226.0 438.4,225.5 438.5,225.8 438.7,224.7 438.9,225.4 439.0,226.7 439.2,227.4 439.3,228.1 439.5,228.2 439.6,228.7 439.8,228.4 440.0,227.5 440.1,227.1 440.3,227.8 440.4,227.2 440.6,226.3 440.8,225.8 440.9,225.6 441.1,225.7 441.2,224.7 441.4,224.5 441.6,223.5 441.7,223.4 441.9,223.0 442.0,223.9 442.2,223.1 442.4,220.4 442.5,223.9 442.7,223.1 442.8,223.4 443.0,223.2 443.2,222.7 443.3,221.9 443.5,223.2 443.6,225.2 443.8,223.7 443.9,223.8 444.1,224.2 444.3,224.2 444.4,223.0 444.6,224.7 444.7,229.4 444.9,226.7 445.1,227.3 445.2,226.4 445.4,228.1 445.5,227.6 445.7,230.8 445.9,231.4 446.0,234.3 446.2,242.7 446.3,241.8 446.5,249.6 446.7,245.9 446.8,254.1 447.0,249.5 447.1,251.6 447.3,253.6 447.4,252.6 447.6,251.4 447.8,244.4 447.9,244.3 448.1,243.0 448.2,245.4 448.4,246.1 448.6,243.4 448.7,245.2 448.9,241.8 449.0,242.7 449.2,241.2 449.4,242.7 449.5,242.8 449.7,238.1 449.8,239.7 450.0,239.8 450.2,237.2 450.3,236.5 450.5,238.2 450.6,238.3 450.8,239.1 450.9,240.7 451.1,240.3 451.3,239.4 451.4,238.9 451.6,238.9 451.7,242.3 451.9,242.0 452.1,239.1 452.2,240.1 452.4,238.8 452.5,238.3 452.7,238.5 452.9,239.8 453.0,239.7 453.2,238.9 453.3,238.5 453.5,236.7 453.7,239.1 453.8,238.1 454.0,239.8 454.1,238.9 454.3,237.5 454.4,236.7 454.6,236.7 454.8,234.3 454.9,235.2 455.1,236.7 455.2,235.9 455.4,237.8 455.6,239.8 455.7,236.2 455.9,236.5 456.0,237.6 456.2,240.4 456.4,238.5 456.5,237.7 456.7,237.5 456.8,237.8 457.0,238.3 457.2,239.3 457.3,238.4 457.5,241.2 457.6,242.5 457.8,241.6 457.9,243.9 458.1,243.1 458.3,242.8 458.4,240.7 458.6,241.6 458.7,241.7 458.9,242.5 459.1,243.0 459.2,244.8 459.4,243.9 459.5,244.0 459.7,244.5 459.9,242.3 460.0,243.0 460.2,243.2 460.3,242.8 460.5,242.9 460.7,243.9 460.8,244.1 461.0,245.3 461.1,246.6 461.3,246.6 461.5,245.5 461.6,246.9 461.8,246.4 461.9,247.3 462.1,247.8 462.2,247.1 462.4,248.2 462.6,246.2 462.7,247.8 462.9,245.7 463.0,247.0 463.2,247.4 463.4,246.0 463.5,245.0 463.7,244.8 463.8,245.6 464.0,245.2 464.2,243.9 464.3,243.2 464.5,244.5 464.6,244.1 464.8,243.4 465.0,243.8 465.1,243.8 465.3,244.9 465.4,245.9 465.6,245.0 465.7,244.3 465.9,245.1 466.1,245.0 466.2,246.8 466.4,245.7 466.5,245.0 466.7,245.2 466.9,244.6 467.0,245.6 467.2,244.4 467.3,244.9 467.5,245.0 467.7,245.5 467.8,245.4 468.0,245.1 468.1,245.6 468.3,246.9 468.5,246.4 468.6,245.8 468.8,246.5 468.9,246.3 469.1,247.0 469.2,248.2 469.4,248.1 469.6,247.9 469.7,248.5 469.9,248.7 470.0,248.4 470.2,249.0 470.4,248.9 470.5,250.1 470.7,250.3 470.8,251.3 471.0,250.9 471.2,250.3 471.3,251.0 471.5,250.5 471.6,252.4 471.8,251.9 472.0,250.6 472.1,249.2 472.3,247.0 472.4,246.9 472.6,249.4 472.7,248.4 472.9,246.7 473.1,247.5 473.2,246.2 473.4,247.4 473.5,246.4 473.7,246.1 473.9,247.0 474.0,245.8 474.2,245.0 474.3,245.0 474.5,243.2 474.7,243.6 474.8,243.7 475.0,243.8 475.1,244.1 475.3,242.7 475.5,242.5 475.6,242.9 475.8,242.9 475.9,242.6 476.1,244.0 476.2,245.6 476.4,246.9 476.6,247.5 476.7,246.0 476.9,244.4 477.0,244.6 477.2,245.2 477.4,244.4 477.5,244.7 477.7,244.5 477.8,244.2 478.0,243.6 478.2,242.8 478.3,243.8 478.5,243.2 478.6,242.9 478.8,243.2 479.0,243.3 479.1,241.4 479.3,240.5 479.4,239.2 479.6,238.6 479.7,237.8 479.9,240.1 480.1,241.2 480.2,240.6 480.4,240.1 480.5,240.1 480.7,241.0 480.9,241.6 481.0,241.3 481.2,241.2 481.3,243.9 481.5,243.3 481.7,243.8 481.8,241.7 482.0,240.1 482.1,241.5 482.3,241.6 482.5,245.2 482.6,243.6 482.8,243.5 482.9,244.7 483.1,246.2 483.3,245.3 483.4,240.5 483.6,241.0 483.7,238.7 483.9,240.9 484.0,241.0 484.2,240.1 484.4,238.2 484.5,238.4 484.7,239.1 484.8,238.2 485.0,240.0 485.2,241.0 485.3,239.6 485.5,235.4 485.6,235.0 485.8,236.0 486.0,236.2 486.1,236.7 486.3,235.6 486.4,235.3 486.6,236.4 486.8,236.0 486.9,236.9 487.1,237.1 487.2,237.8 487.4,237.4 487.5,236.5 487.7,239.1 487.9,239.9 488.0,239.0 488.2,240.3 488.3,239.3 488.5,237.9 488.7,237.5 488.8,238.6 489.0,238.3 489.1,238.9 489.3,238.4 489.5,237.5 489.6,237.8 489.8,237.2 489.9,236.2 490.1,235.4 490.3,236.1 490.4,235.7 490.6,235.2 490.7,235.7 490.9,235.6 491.0,235.3 491.2,235.9 491.4,236.7 491.5,236.3 491.7,235.6 491.8,234.1 492.0,233.3 492.2,232.2 492.3,233.8 492.5,233.2 492.6,231.6 492.8,232.3 493.0,231.2 493.1,229.6 493.3,229.5 493.4,230.3 493.6,232.0 493.8,230.9 493.9,230.8 494.1,231.1 494.2,231.9 494.4,232.1 494.5,231.7 494.7,231.8 494.9,231.1 495.0,231.6 495.2,230.1 495.3,230.6 495.5,230.7 495.7,230.7 495.8,230.4 496.0,229.3 496.1,229.8 496.3,229.4 496.5,228.9 496.6,229.0 496.8,227.9 496.9,227.2 497.1,229.8 497.3,226.8 497.4,225.5 497.6,226.4 497.7,224.8 497.9,224.4 498.0,225.9 498.2,225.5 498.4,226.1 498.5,226.5 498.7,226.8 498.8,227.2 499.0,227.3 499.2,227.9 499.3,226.3 499.5,226.7 499.6,227.9 499.8,228.0 500.0,227.4 500.1,227.7 500.3,228.4 500.4,228.4 500.6,226.6 500.8,227.4 500.9,225.4 501.1,226.8 501.2,228.4 501.4,227.6 501.5,228.1 501.7,226.5 501.9,225.1 502.0,223.9 502.2,223.3 502.3,224.9 502.5,223.7 502.7,224.8 502.8,224.0 503.0,222.3 503.1,221.1 503.3,221.0 503.5,221.8 503.6,222.9 503.8,223.8 503.9,220.6 504.1,219.2 504.3,221.4 504.4,221.9 504.6,221.9 504.7,222.2 504.9,222.0 505.1,222.9 505.2,221.5 505.4,220.8 505.5,220.5 505.7,221.5 505.8,223.3 506.0,222.3 506.2,222.7 506.3,221.5 506.5,222.7 506.6,222.8 506.8,223.0 507.0,223.1 507.1,223.2 507.3,224.4 507.4,223.0 507.6,222.9 507.8,223.0 507.9,221.7 508.1,223.2 508.2,223.8 508.4,222.2 508.6,223.0 508.7,223.3 508.9,223.3 509.0,225.0 509.2,224.4 509.3,222.3 509.5,221.4 509.7,222.2 509.8,222.1 510.0,222.3 510.1,221.2 510.3,221.9 510.5,220.8 510.6,221.7 510.8,221.0 510.9,220.9 511.1,219.5 511.3,219.4 511.4,218.2 511.6,219.0 511.7,218.3 511.9,217.8 512.1,216.7 512.2,215.8 512.4,216.0 512.5,217.4 512.7,216.9 512.8,216.6 513.0,218.3 513.2,220.4 513.3,219.6 513.5,218.4 513.6,218.4 513.8,217.7 514.0,219.4 514.1,219.4 514.3,219.4 514.4,221.1 514.6,219.7 514.8,218.4 514.9,219.8 515.1,219.2 515.2,219.7 515.4,220.9 515.6,219.2 515.7,219.6 515.9,218.3 516.0,218.4 516.2,218.2 516.3,219.7 516.5,217.7 516.7,218.6 516.8,220.1 517.0,219.1 517.1,217.7 517.3,220.2 517.5,221.7 517.6,221.7 517.8,219.6 517.9,219.7 518.1,219.2 518.3,218.9 518.4,219.7 518.6,219.5 518.7,218.8 518.9,220.0 519.1,221.8 519.2,222.6 519.4,222.0 519.5,222.8 519.7,223.8 519.8,221.7 520.0,222.5 520.2,225.3 520.3,226.7 520.5,226.0 520.6,225.3 520.8,225.3 521.0,226.7 521.1,226.7 521.3,228.4 521.4,228.8 521.6,228.9 521.8,227.9 521.9,226.5 522.1,226.2 522.2,225.5 522.4,227.7 522.6,225.4 522.7,225.5 522.9,223.8 523.0,224.7 523.2,224.8 523.3,225.3 523.5,225.1 523.7,224.3 523.8,224.7 524.0,226.5 524.1,226.3 524.3,227.8 524.5,229.0 524.6,227.3 524.8,227.2 524.9,227.3 525.1,227.3 525.3,226.4 525.4,227.2 525.6,225.2 525.7,227.8 525.9,229.6 526.1,228.7 526.2,229.3 526.4,229.4 526.5,229.6 526.7,229.2 526.9,228.6 527.0,227.0 527.2,227.6 527.3,228.1 527.5,225.9 527.6,228.6 527.8,229.6 528.0,228.9 528.1,230.1 528.3,228.9 528.4,228.9 528.6,229.1 528.8,227.5 528.9,230.1 529.1,229.9 529.2,228.8 529.4,226.8 529.6,227.9 529.7,227.6 529.9,227.0 530.0,225.8 530.2,227.2 530.4,227.9 530.5,226.9 530.7,226.7 530.8,228.7 531.0,229.3 531.1,228.6 531.3,231.0 531.5,228.4 531.6,228.6 531.8,230.1 531.9,230.7 532.1,230.5 532.3,228.9 532.4,231.1 532.6,231.2 532.7,233.8 532.9,233.1 533.1,232.9 533.2,233.9 533.4,232.4 533.5,232.4 533.7,233.0 533.9,235.3 534.0,234.9 534.2,234.0 534.3,233.5 534.5,234.0 534.6,233.5 534.8,232.4 535.0,230.8 535.1,230.5 535.3,230.4 535.4,228.4 535.6,229.4 535.8,228.8 535.9,229.6 536.1,229.7 536.2,229.6 536.4,232.1 536.6,232.9 536.7,233.6 536.9,232.2 537.0,232.7 537.2,232.5 537.4,232.2 537.5,232.4 537.7,230.5 537.8,228.8 538.0,229.1 538.1,229.3 538.3,229.5 538.5,229.9 538.6,229.0 538.8,227.2 538.9,227.0 539.1,226.0 539.3,226.5 539.4,224.7 539.6,225.4 539.7,226.7 539.9,226.9 540.1,226.2 540.2,226.7 540.4,224.3 540.5,224.4 540.7,222.9 540.9,223.1 541.0,222.4 541.2,222.2 541.3,222.2 541.5,221.8 541.6,223.3 541.8,227.8 542.0,227.0 542.1,226.9 542.3,226.1 542.4,225.2 542.6,226.3 542.8,226.3 542.9,226.5 543.1,227.1 543.2,225.7 543.4,225.9 543.6,225.6 543.7,223.2 543.9,221.4 544.0,223.1 544.2,223.3 544.4,224.2 544.5,223.9 544.7,223.4 544.8,225.3 545.0,225.3 545.1,226.9 545.3,226.8 545.5,224.7 545.6,225.6 545.8,224.5 545.9,223.1 546.1,222.9 546.3,222.9 546.4,223.1 546.6,224.9 546.7,224.6 546.9,226.1 547.1,225.2 547.2,225.1 547.4,225.9 547.5,226.8 547.7,227.1 547.9,228.0 548.0,227.8 548.2,227.5 548.3,226.6 548.5,227.0 548.7,227.2 548.8,226.7 549.0,225.5 549.1,225.7 549.3,224.4 549.4,226.2 549.6,226.3 549.8,226.8 549.9,226.7 550.1,225.5 550.2,228.0 550.4,225.4 550.6,224.2 550.7,225.7 550.9,226.2 551.0,225.6 551.2,224.2 551.4,222.7 551.5,223.0 551.7,223.0 551.8,222.0 552.0,222.6 552.2,220.8 552.3,221.6 552.5,222.3 552.6,220.1 552.8,220.8 552.9,221.8 553.1,223.4 553.3,224.9 553.4,228.7 553.6,226.4 553.7,223.8 553.9,223.9 554.1,223.1 554.2,224.5 554.4,222.9 554.5,222.0 554.7,222.4 554.9,221.7 555.0,222.5 555.2,223.4 555.3,221.1 555.5,221.1 555.7,220.1 555.8,220.8 556.0,220.1 556.1,220.0 556.3,221.1 556.4,222.7 556.6,221.8 556.8,223.6 556.9,224.4 557.1,222.8 557.2,222.9 557.4,223.4 557.6,223.5 557.7,221.5 557.9,222.8 558.0,221.5 558.2,221.4 558.4,221.6 558.5,220.9 558.7,222.0 558.8,221.4 559.0,222.6 559.2,223.1 559.3,223.3 559.5,224.1 559.6,223.9 559.8,223.3 559.9,223.1 560.1,222.6 560.3,223.2 560.4,223.8 560.6,224.0 560.7,224.0 560.9,223.6 561.1,224.5 561.2,224.0 561.4,223.4 561.5,224.2 561.7,223.8 561.9,223.6 562.0,223.5 562.2,225.0 562.3,222.8 562.5,221.5 562.7,220.7 562.8,221.1 563.0,221.9 563.1,221.5 563.3,220.0 563.4,221.3 563.6,220.0 563.8,221.2 563.9,219.6 564.1,220.0 564.2,220.2 564.4,219.9 564.6,219.2 564.7,220.6 564.9,221.5 565.0,221.2 565.2,221.5 565.4,221.4 565.5,222.1 565.7,223.3 565.8,223.4 566.0,224.8 566.2,226.4 566.3,224.1 566.5,222.5 566.6,224.1 566.8,222.9 566.9,221.9 567.1,221.9 567.3,220.1 567.4,220.9 567.6,220.9 567.7,219.5 567.9,218.1 568.1,217.9 568.2,217.3 568.4,217.5 568.5,216.3 568.7,216.1 568.9,215.7 569.0,215.4 569.2,215.1 569.3,217.0 569.5,216.5 569.7,216.1 569.8,215.7 570.0,214.7 570.1,214.2 570.3,214.4 570.5,213.9 570.6,213.4 570.8,212.9 570.9,212.8 571.1,213.2 571.2,214.1 571.4,213.7 571.6,212.8 571.7,213.7 571.9,213.4 572.0,213.7 572.2,214.5 572.4,214.8 572.5,214.9 572.7,215.1 572.8,213.6 573.0,213.2 573.2,213.4 573.3,213.2 573.5,213.8 573.6,214.8 573.8,214.4 574.0,213.2 574.1,213.0 574.3,215.5 574.4,215.5 574.6,216.6 574.7,216.6 574.9,217.5 575.1,217.5 575.2,216.7 575.4,215.7 575.5,215.8 575.7,217.9 575.9,217.1 576.0,215.4 576.2,213.6 576.3,215.5 576.5,215.3 576.7,213.3 576.8,213.8 577.0,214.3 577.1,214.6 577.3,214.8 577.5,214.3 577.6,215.6 577.8,216.6 577.9,216.4 578.1,216.1 578.2,215.3 578.4,213.9 578.6,214.3 578.7,213.8 578.9,214.6 579.0,215.3 579.2,215.2 579.4,214.1 579.5,214.9 579.7,212.3 579.8,211.5 580.0,211.9 580.2,212.5 580.3,212.5 580.5,211.1 580.6,210.3 580.8,211.1 581.0,210.6 581.1,210.2 581.3,211.5 581.4,212.3 581.6,212.8 581.7,212.7 581.9,212.7 582.1,212.6 582.2,209.0 582.4,208.5 582.5,208.7 582.7,208.6 582.9,207.2 583.0,205.9 583.2,207.1 583.3,206.5 583.5,206.1 583.7,206.2 583.8,206.0 584.0,205.7 584.1,206.2 584.3,206.0 584.5,206.8 584.6,205.3 584.8,205.0 584.9,205.9 585.1,206.2 585.2,206.3 585.4,205.9 585.6,206.8 585.7,206.1 585.9,203.8 586.0,204.1 586.2,203.1 586.4,204.1 586.5,205.1 586.7,205.7 586.8,206.6 587.0,205.0 587.2,202.3 587.3,202.8 587.5,202.7 587.6,201.5 587.8,202.6 588.0,202.3 588.1,203.0 588.3,202.0 588.4,202.1 588.6,201.7 588.7,201.4 588.9,199.7 589.1,199.5 589.2,198.6 589.4,197.8 589.5,198.6 589.7,198.6 589.9,199.1 590.0,198.3 590.2,197.6 590.3,197.3 590.5,197.2 590.7,197.9 590.8,198.4 591.0,198.8 591.1,198.2 591.3,198.1 591.5,197.1 591.6,198.8 591.8,197.4 591.9,197.1 592.1,196.0 592.3,197.8 592.4,193.5 592.6,190.5 592.7,191.3 592.9,190.6 593.0,189.1 593.2,190.0 593.4,187.7 593.5,188.4 593.7,188.7 593.8,188.1 594.0,188.9 594.2,188.8 594.3,188.7 594.5,186.7 594.6,186.7 594.8,186.4 595.0,186.1 595.1,187.0 595.3,185.3 595.4,186.5 595.6,185.5 595.8,185.4 595.9,188.1 596.1,188.5 596.2,187.5 596.4,188.0 596.5,187.7 596.7,187.7 596.9,191.7 597.0,189.9 597.2,189.9 597.3,188.6 597.5,190.5 597.7,189.2 597.8,189.6 598.0,190.8 598.1,189.5 598.3,188.1 598.5,187.6 598.6,187.9 598.8,190.0 598.9,190.9 599.1,191.1 599.3,189.0 599.4,189.6 599.6,189.5 599.7,188.1 599.9,186.3 600.0,184.3 600.2,182.1 600.4,182.2 600.5,183.2 600.7,182.9 600.8,181.0 601.0,181.0 601.2,181.1 601.3,182.5 601.5,184.4 601.6,184.6 601.8,184.2 602.0,183.6 602.1,184.9 602.3,185.6 602.4,186.4 602.6,183.8 602.8,184.0 602.9,184.4 603.1,183.8 603.2,183.3 603.4,183.6 603.5,182.8 603.7,182.4 603.9,179.1 604.0,180.3 604.2,176.7 604.3,175.6 604.5,176.0 604.7,177.1 604.8,176.5 605.0,178.9 605.1,182.2 605.3,180.6 605.5,180.1 605.6,181.8 605.8,184.2 605.9,182.4 606.1,184.2 606.3,185.6 606.4,184.4 606.6,186.0 606.7,184.4 606.9,184.3 607.0,184.4 607.2,184.6 607.4,184.0 607.5,186.1 607.7,187.0 607.8,187.9 608.0,186.6 608.2,184.3 608.3,185.5 608.5,185.0 608.6,187.5 608.8,185.7 609.0,186.1 609.1,185.2 609.3,187.3 609.4,186.7 609.6,188.3 609.8,187.7 609.9,188.4 610.1,188.8 610.2,188.7 610.4,188.3 610.5,186.2 610.7,186.7 610.9,187.5 611.0,187.1 611.2,185.6 611.3,187.7 611.5,186.4 611.7,186.0 611.8,186.8 612.0,190.5 612.1,186.9 612.3,184.8 612.5,184.0 612.6,183.1 612.8,184.8 612.9,186.0 613.1,185.3 613.3,186.3 613.4,188.1 613.6,185.7 613.7,184.4 613.9,185.0 614.1,184.3 614.2,184.1 614.4,186.4 614.5,185.0 614.7,187.4 614.8,188.9 615.0,190.1 615.2,191.2 615.3,189.9 615.5,189.5 615.6,190.1 615.8,190.6 616.0,191.4 616.1,192.2 616.3,190.9 616.4,193.6 616.6,194.0 616.8,194.7 616.9,193.0 617.1,193.6 617.2,191.7 617.4,189.3 617.6,192.3 617.7,193.9 617.9,193.2 618.0,193.0 618.2,193.1 618.3,191.9 618.5,192.3 618.7,192.6 618.8,193.4 619.0,193.9 619.1,194.1 619.3,193.6 619.5,193.3 619.6,193.5 619.8,191.5 619.9,191.3 620.1,186.5 620.3,184.2 620.4,183.7 620.6,182.8 620.7,184.6 620.9,183.4 621.1,182.1 621.2,182.5 621.4,183.1 621.5,182.1 621.7,184.4 621.8,183.0 622.0,177.8 622.2,176.2 622.3,175.5 622.5,172.3 622.6,171.1 622.8,173.2 623.0,171.4 623.1,172.3 623.3,169.9 623.4,173.1 623.6,171.9 623.8,170.8 623.9,169.9 624.1,169.3 624.2,167.4 624.4,167.5 624.6,165.3 624.7,166.4 624.9,167.9 625.0,169.2 625.2,170.3 625.3,165.5 625.5,167.0 625.7,166.9 625.8,166.6 626.0,166.4 626.1,166.1 626.3,166.2 626.5,167.5 626.6,167.6 626.8,165.6 626.9,164.9 627.1,166.9 627.3,169.3 627.4,168.5 627.6,167.6 627.7,169.4 627.9,171.8 628.1,170.2 628.2,172.1 628.4,170.6 628.5,167.3 628.7,166.1 628.8,167.2 629.0,167.0 629.2,169.0 629.3,168.9 629.5,169.8 629.6,169.4 629.8,169.9 630.0,170.3 630.1,167.0 630.3,166.8 630.4,167.6 630.6,167.8 630.8,165.7 630.9,164.9 631.1,165.0 631.2,164.1 631.4,165.5 631.6,165.4 631.7,165.9 631.9,167.5 632.0,165.0 632.2,167.3 632.4,167.6 632.5,165.9 632.7,172.9 632.8,173.9 633.0,175.8 633.1,173.7 633.3,174.1 633.5,175.8 633.6,174.8 633.8,173.3 633.9,170.0 634.1,170.5 634.3,168.3 634.4,166.7 634.6,165.2 634.7,164.6 634.9,162.6 635.1,162.2 635.2,163.5 635.4,166.1 635.5,165.9 635.7,166.0 635.9,168.2 636.0,171.2 636.2,172.7 636.3,171.8 636.5,172.1 636.6,173.9 636.8,173.1 637.0,176.6 637.1,175.0 637.3,173.7 637.4,177.8 637.6,179.2 637.8,178.2 637.9,177.4 638.1,176.0 638.2,175.6 638.4,176.4 638.6,176.7 638.7,176.1 638.9,176.8 639.0,179.1 639.2,179.7 639.4,178.3 639.5,179.6 639.7,178.5 639.8,178.1 640.0,178.7 640.1,177.7 640.3,177.1 640.5,175.6 640.6,175.2 640.8,172.7 640.9,173.6 641.1,170.2 641.3,171.4 641.4,171.2 641.6,169.9 641.7,171.0 641.9,167.6 642.1,167.8 642.2,168.4 642.4,169.2 642.5,166.5 642.7,167.5 642.9,168.6 643.0,166.0 643.2,168.4 643.3,172.3 643.5,169.2 643.6,167.1 643.8,168.0 644.0,166.7 644.1,166.8 644.3,168.5 644.4,170.3 644.6,168.6 644.8,166.8 644.9,164.1 645.1,166.4 645.2,165.8 645.4,165.4 645.6,165.4 645.7,161.5 645.9,166.5 646.0,168.3 646.2,164.0 646.4,164.7 646.5,163.5 646.7,161.0 646.8,162.2 647.0,161.2 647.1,164.2 647.3,165.4 647.5,164.6 647.6,162.2 647.8,160.7 647.9,159.1 648.1,156.8 648.3,157.6 648.4,157.9 648.6,157.1 648.7,164.0 648.9,169.1 649.1,168.5 649.2,170.0 649.4,167.3 649.5,164.0 649.7,162.7 649.9,162.2 650.0,162.1 650.2,162.7 650.3,164.5 650.5,164.7 650.6,166.4 650.8,165.6 651.0,165.0 651.1,165.9 651.3,162.7 651.4,159.7 651.6,160.0 651.8,156.7 651.9,153.3 652.1,152.2 652.2,151.6 652.4,155.6 652.6,153.3 652.7,160.1 652.9,160.6 653.0,165.0 653.2,161.4 653.4,160.2 653.5,158.0 653.7,156.9 653.8,155.5 654.0,155.4 654.2,153.3 654.3,153.5 654.5,157.0 654.6,156.1 654.8,154.9 654.9,153.6 655.1,156.1 655.3,158.4 655.4,159.0 655.6,159.1 655.7,161.1 655.9,160.1 656.1,159.0 656.2,156.8 656.4,157.1 656.5,157.9 656.7,157.3 656.9,155.9 657.0,157.0 657.2,154.3 657.3,154.8 657.5,154.1 657.7,156.8 657.8,155.0 658.0,152.3 658.1,153.1 658.3,153.5 658.4,153.5 658.6,151.0 658.8,152.7 658.9,153.0 659.1,151.5 659.2,151.1 659.4,150.5 659.6,151.8 659.7,149.8 659.9,149.3 660.0,148.8 660.2,150.3 660.4,147.1 660.5,147.4 660.7,144.1 660.8,143.7 661.0,146.9 661.2,148.0 661.3,146.8 661.5,147.2 661.6,142.8 661.8,140.9 661.9,142.2 662.1,142.6 662.3,141.7 662.4,139.8 662.6,139.3 662.7,142.4 662.9,144.4 663.1,145.5 663.2,143.0 663.4,144.0 663.5,143.9 663.7,140.2 663.9,141.9 664.0,143.7 664.2,142.0 664.3,146.1 664.5,149.2 664.7,151.0 664.8,150.5 665.0,153.1 665.1,150.9 665.3,151.7 665.4,152.7 665.6,151.5 665.8,152.8 665.9,151.4 666.1,150.2 666.2,151.6 666.4,151.7 666.6,151.9 666.7,149.9 666.9,151.5 667.0,152.4 667.2,150.1 667.4,147.7 667.5,145.8 667.7,145.3 667.8,145.6 668.0,143.9 668.2,144.5 668.3,146.9 668.5,146.9 668.6,148.2 668.8,149.9 668.9,147.3 669.1,147.1 669.3,147.4 669.4,144.8 669.6,145.6 669.7,149.0 669.9,146.8 670.1,150.5 670.2,148.1 670.4,149.8 670.5,152.2 670.7,149.6 670.9,149.7 671.0,148.7 671.2,149.0 671.3,148.8 671.5,152.6 671.7,150.0 671.8,144.2 672.0,143.4 672.1,141.3 672.3,140.5 672.4,139.7 672.6,137.1 672.8,135.5 672.9,135.4 673.1,134.4 673.2,135.0 673.4,136.0 673.6,136.3 673.7,135.5 673.9,138.6 674.0,138.0 674.2,139.7 674.4,138.5 674.5,136.7 674.7,136.2 674.8,136.1 675.0,138.0 675.2,138.6 675.3,138.9 675.5,138.2 675.6,139.6 675.8,139.3 676.0,139.5 676.1,142.0 676.3,140.7 676.4,139.5 676.6,143.5 676.7,142.1 676.9,140.0 677.1,142.3 677.2,143.2 677.4,140.2 677.5,138.3 677.7,137.6 677.9,137.4 678.0,137.5 678.2,138.5 678.3,140.8 678.5,142.6 678.7,140.1 678.8,141.4 679.0,138.1 679.1,134.6 679.3,134.3 679.5,132.4 679.6,130.6 679.8,129.3 679.9,127.9 680.1,126.2 680.2,127.2 680.4,126.5 680.6,123.9 680.7,124.3 680.9,128.4 681.0,129.8 681.2,132.0 681.4,131.4 681.5,131.7 681.7,132.4 681.8,129.3 682.0,127.7 682.2,125.1 682.3,126.3 682.5,121.4 682.6,125.8 682.8,129.4 683.0,128.1 683.1,125.2 683.3,119.3 683.4,118.5 683.6,118.0 683.7,116.4 683.9,115.5 684.1,113.6 684.2,114.7 684.4,114.1 684.5,109.3 684.7,110.7 684.9,106.2 685.0,108.7 685.2,110.7 685.3,108.3 685.5,109.6 685.7,118.4 685.8,119.4 686.0,115.4 686.1,115.6 686.3,114.4 686.5,113.7 686.6,117.5 686.8,119.2 686.9,119.5 687.1,121.6 687.2,120.0 687.4,123.9 687.6,122.1 687.7,126.5 687.9,120.5 688.0,121.3 688.2,121.8 688.4,115.6 688.5,111.6 688.7,111.9 688.8,111.0 689.0,112.4 689.2,111.7 689.3,108.9 689.5,108.6 689.6,105.8 689.8,103.0 690.0,109.1 690.1,106.2 690.3,109.6 690.4,110.7 690.6,109.0 690.7,106.6 690.9,110.1 691.1,106.7 691.2,105.5 691.4,109.0 691.5,91.6 691.7,83.9 691.9,80.6 692.0,79.3 692.2,84.1 692.3,77.7 692.5,76.4 692.7,73.0 692.8,65.9 693.0,71.1 693.1,68.3 693.3,66.2 693.5,68.3 693.6,69.7 693.8,75.5 693.9,72.0 694.1,73.8 694.2,78.2 694.4,80.5 694.6,87.4 694.7,108.4 694.9,124.9 695.0,118.7 695.2,118.1 695.4,120.8 695.5,121.8 695.7,115.2 695.8,108.4 696.0,106.4"/>
  <text x="60" y="62" font-size="11" fill="#2563eb">Price index</text>
  <text x="146" y="62" font-size="11" fill="#16a34a">Total return (price + distributions)</text>
  <text x="56" y="348" font-size="11" text-anchor="middle" fill="#444">2010-06</text><text x="216" y="348" font-size="11" text-anchor="middle" fill="#444">2014-06</text><text x="376" y="348" font-size="11" text-anchor="middle" fill="#444">2018-06</text><text x="536" y="348" font-size="11" text-anchor="middle" fill="#444">2022-06</text><text x="696" y="348" font-size="11" text-anchor="middle" fill="#444">2026-06</text>
</svg>
