<svg xmlns="http://www.w3.org/2000/svg" width="820" height="410" viewBox="0 0 820 410">
<rect width="820" height="410" fill="#fafafa"/><text x="78" y="22" font-size="14" font-family="sans-serif" fill="#0f172a">CBOE cumulative return since 2010-06-15 | dividends reinvested</text>
<text x="78" y="40" font-size="11" font-family="sans-serif" fill="#334155">Total return +970.6% | Price-only +752.9% | logarithmic scale</text>
<text x="78" y="54" font-size="9" font-family="sans-serif" fill="#64748b">Regular $24.22 | Special $0.00 | Other $0.00 per initial share path</text>
<line x1="78" y1="332.0" x2="796" y2="332.0" stroke="#e2e8f0"/><text x="70" y="336.0" font-size="10" text-anchor="end" fill="#64748b">-48.5%</text><line x1="78" y1="287.0" x2="796" y2="287.0" stroke="#e2e8f0"/><text x="70" y="291.0" font-size="10" text-anchor="end" fill="#64748b">-7.6%</text><line x1="78" y1="280.9" x2="796" y2="280.9" stroke="#e2e8f0"/><text x="70" y="284.9" font-size="10" text-anchor="end" fill="#64748b">0%</text><line x1="78" y1="242.0" x2="796" y2="242.0" stroke="#e2e8f0"/><text x="70" y="246.0" font-size="10" text-anchor="end" fill="#64748b">+65.5%</text><line x1="78" y1="197.0" x2="796" y2="197.0" stroke="#e2e8f0"/><text x="70" y="201.0" font-size="10" text-anchor="end" fill="#64748b">+196.5%</text><line x1="78" y1="152.0" x2="796" y2="152.0" stroke="#e2e8f0"/><text x="70" y="156.0" font-size="10" text-anchor="end" fill="#64748b">+431.2%</text><line x1="78" y1="107.0" x2="796" y2="107.0" stroke="#e2e8f0"/><text x="70" y="111.0" font-size="10" text-anchor="end" fill="#64748b">+851.7%</text><line x1="78" y1="62.0" x2="796" y2="62.0" stroke="#e2e8f0"/><text x="70" y="66.0" font-size="10" text-anchor="end" fill="#64748b">+1,605%</text>
<line x1="78" y1="332" x2="796" y2="332" stroke="#cbd5e1"/>
<polyline fill="none" stroke="#2563eb" stroke-width="2" points="78.0,280.9 78.2,281.9 78.4,283.3 78.5,284.5 78.7,281.9 78.9,280.4 79.1,278.5 79.2,279.0 79.4,281.9 79.6,280.2 79.8,282.6 80.0,280.7 80.1,286.2 80.3,284.8 80.5,287.5 80.7,289.0 80.8,289.6 81.0,289.7 81.2,295.7 81.4,292.8 81.6,294.2 81.7,296.6 81.9,296.7 82.1,296.6 82.3,297.8 82.4,296.3 82.6,295.1 82.8,294.7 83.0,296.6 83.1,294.6 83.3,294.7 83.5,296.1 83.7,296.3 83.9,293.6 84.0,294.4 84.2,296.0 84.4,301.7 84.6,304.9 84.7,304.3 84.9,307.5 85.1,307.7 85.3,306.5 85.5,307.5 85.6,308.2 85.8,307.1 86.0,307.2 86.2,307.5 86.3,308.0 86.5,307.5 86.7,311.7 86.9,312.1 87.1,313.5 87.2,315.0 87.4,315.9 87.6,314.9 87.8,312.3 87.9,312.1 88.1,310.4 88.3,310.1 88.5,310.8 88.7,311.7 88.8,311.2 89.0,311.5 89.2,310.4 89.4,309.8 89.5,309.9 89.7,309.4 89.9,311.4 90.1,312.7 90.3,313.3 90.4,316.1 90.6,316.0 90.8,314.3 91.0,313.4 91.1,315.4 91.3,317.5 91.5,316.0 91.7,316.8 91.8,315.2 92.0,315.2 92.2,316.0 92.4,315.1 92.6,314.3 92.7,310.1 92.9,310.2 93.1,308.8 93.3,309.3 93.4,306.9 93.6,307.1 93.8,305.1 94.0,304.5 94.2,302.5 94.3,303.1 94.5,303.5 94.7,303.7 94.9,304.2 95.0,304.2 95.2,305.6 95.4,303.9 95.6,304.2 95.8,304.2 95.9,302.2 96.1,301.5 96.3,301.3 96.5,301.6 96.6,302.0 96.8,303.8 97.0,303.1 97.2,302.3 97.4,303.0 97.5,302.0 97.7,301.0 97.9,301.7 98.1,302.0 98.2,304.6 98.4,305.9 98.6,305.4 98.8,304.9 99.0,304.5 99.1,303.1 99.3,303.0 99.5,301.6 99.7,301.7 99.8,303.5 100.0,305.8 100.2,307.6 100.4,307.5 100.5,307.7 100.7,308.0 100.9,310.8 101.1,310.6 101.3,310.3 101.4,310.3 101.6,310.6 101.8,309.5 102.0,309.5 102.1,307.4 102.3,308.6 102.5,308.4 102.7,308.0 102.9,305.0 103.0,304.8 103.2,305.0 103.4,305.5 103.6,304.8 103.7,303.4 103.9,304.3 104.1,304.4 104.3,305.7 104.5,304.9 104.6,305.6 104.8,306.9 105.0,307.5 105.2,306.9 105.3,307.2 105.5,307.7 105.7,306.9 105.9,307.0 106.1,307.6 106.2,307.5 106.4,307.7 106.6,306.7 106.8,304.9 106.9,304.3 107.1,303.3 107.3,302.7 107.5,299.5 107.7,295.5 107.8,297.1 108.0,292.8 108.2,297.4 108.4,297.1 108.5,294.3 108.7,294.8 108.9,298.1 109.1,296.9 109.2,293.7 109.4,288.5 109.6,288.1 109.8,292.7 110.0,293.5 110.1,292.0 110.3,292.5 110.5,291.3 110.7,291.1 110.8,291.3 111.0,295.3 111.2,293.0 111.4,292.5 111.6,293.6 111.7,293.2 111.9,292.8 112.1,292.9 112.3,292.0 112.4,290.3 112.6,289.7 112.8,289.0 113.0,289.4 113.2,290.5 113.3,290.5 113.5,289.6 113.7,289.7 113.9,293.7 114.0,293.2 114.2,293.5 114.4,295.2 114.6,295.1 114.8,295.5 114.9,295.5 115.1,295.8 115.3,295.6 115.5,295.1 115.6,294.7 115.8,295.4 116.0,296.1 116.2,295.6 116.4,294.9 116.5,295.7 116.7,295.5 116.9,294.6 117.1,294.2 117.2,295.7 117.4,295.7 117.6,295.7 117.8,297.2 117.9,297.1 118.1,297.1 118.3,295.7 118.5,295.3 118.7,295.1 118.8,294.7 119.0,295.3 119.2,293.3 119.4,292.2 119.5,292.7 119.7,292.2 119.9,291.9 120.1,292.5 120.3,296.2 120.4,298.3 120.6,298.9 120.8,298.4 121.0,297.1 121.1,300.6 121.3,299.6 121.5,299.5 121.7,302.4 121.9,303.1 122.0,305.0 122.2,302.8 122.4,303.4 122.6,303.1 122.7,303.6 122.9,305.0 123.1,306.2 123.3,304.9 123.5,305.0 123.6,303.3 123.8,303.1 124.0,303.9 124.2,303.9 124.3,305.1 124.5,303.8 124.7,303.0 124.9,302.3 125.0,302.0 125.2,301.8 125.4,301.7 125.6,301.3 125.8,302.1 125.9,304.9 126.1,304.3 126.3,305.2 126.5,306.1 126.6,307.4 126.8,308.0 127.0,307.4 127.2,306.3 127.4,305.2 127.5,306.9 127.7,304.9 127.9,305.1 128.1,306.8 128.2,307.3 128.4,307.4 128.6,308.1 128.8,309.1 129.0,307.9 129.1,311.7 129.3,308.3 129.5,312.1 129.7,306.5 129.8,310.0 130.0,304.6 130.2,305.5 130.4,303.6 130.6,304.4 130.7,304.9 130.9,307.9 131.1,306.9 131.3,308.8 131.4,307.4 131.6,304.9 131.8,306.5 132.0,302.6 132.2,301.1 132.3,301.2 132.5,300.3 132.7,301.9 132.9,304.1 133.0,303.6 133.2,298.4 133.4,299.3 133.6,299.0 133.7,297.2 133.9,295.7 134.1,295.7 134.3,297.1 134.5,294.3 134.6,294.5 134.8,294.9 135.0,296.9 135.2,295.2 135.3,296.3 135.5,295.1 135.7,294.7 135.9,297.0 136.1,298.9 136.2,302.7 136.4,304.1 136.6,303.3 136.8,300.7 136.9,301.7 137.1,302.7 137.3,299.6 137.5,298.4 137.7,297.5 137.8,298.1 138.0,299.0 138.2,299.1 138.4,298.9 138.5,299.6 138.7,299.0 138.9,299.3 139.1,297.9 139.3,301.1 139.4,298.8 139.6,297.6 139.8,297.5 140.0,297.7 140.1,300.1 140.3,300.5 140.5,298.4 140.7,294.7 140.9,293.2 141.0,295.7 141.2,296.6 141.4,295.7 141.6,295.0 141.7,296.3 141.9,295.4 142.1,296.2 142.3,297.7 142.4,297.1 142.6,298.8 142.8,298.1 143.0,299.8 143.2,298.8 143.3,297.1 143.5,297.0 143.7,295.4 143.9,295.1 144.0,296.4 144.2,296.3 144.4,297.3 144.6,297.3 144.8,297.3 144.9,296.3 145.1,297.7 145.3,299.2 145.5,300.2 145.6,299.2 145.8,298.1 146.0,298.7 146.2,297.3 146.4,297.3 146.5,299.7 146.7,297.4 146.9,297.6 147.1,298.1 147.2,298.6 147.4,298.5 147.6,298.1 147.8,299.3 148.0,300.0 148.1,300.9 148.3,301.0 148.5,300.8 148.7,300.1 148.8,300.2 149.0,299.0 149.2,299.9 149.4,299.8 149.6,299.0 149.7,299.2 149.9,298.7 150.1,299.1 150.3,299.5 150.4,299.2 150.6,299.3 150.8,299.5 151.0,299.3 151.1,298.9 151.3,297.4 151.5,296.5 151.7,296.3 151.9,295.9 152.0,297.2 152.2,296.7 152.4,292.1 152.6,292.9 152.7,294.2 152.9,294.2 153.1,293.6 153.3,293.7 153.5,294.3 153.6,294.1 153.8,292.6 154.0,293.3 154.2,292.9 154.3,292.6 154.5,293.5 154.7,292.7 154.9,293.4 155.1,293.6 155.2,295.0 155.4,294.7 155.6,294.1 155.8,294.1 155.9,293.4 156.1,293.3 156.3,292.6 156.5,292.3 156.7,292.3 156.8,291.6 157.0,290.7 157.2,289.6 157.4,289.6 157.5,288.3 157.7,288.2 157.9,290.4 158.1,290.0 158.3,290.8 158.4,291.2 158.6,292.0 158.8,292.0 159.0,292.4 159.1,293.1 159.3,294.0 159.5,295.1 159.7,295.4 159.8,295.2 160.0,296.2 160.2,296.2 160.4,296.2 160.6,296.7 160.7,296.9 160.9,297.2 161.1,297.8 161.3,297.8 161.4,296.9 161.6,296.0 161.8,295.8 162.0,296.8 162.2,296.2 162.3,298.3 162.5,297.9 162.7,298.4 162.9,299.9 163.0,300.1 163.2,299.6 163.4,300.1 163.6,300.2 163.8,301.1 163.9,300.1 164.1,301.2 164.3,302.5 164.5,301.3 164.6,301.2 164.8,300.9 165.0,300.5 165.2,299.9 165.4,300.3 165.5,299.2 165.7,301.0 165.9,300.3 166.1,300.8 166.2,299.8 166.4,298.4 166.6,296.3 166.8,296.3 167.0,296.0 167.1,296.0 167.3,295.3 167.5,295.3 167.7,294.2 167.8,294.5 168.0,292.4 168.2,293.1 168.4,293.6 168.5,294.5 168.7,295.2 168.9,295.3 169.1,294.9 169.3,294.5 169.4,293.5 169.6,293.2 169.8,292.6 170.0,292.6 170.1,292.4 170.3,293.0 170.5,293.0 170.7,293.2 170.9,293.4 171.0,293.1 171.2,291.8 171.4,291.9 171.6,291.8 171.7,291.2 171.9,291.6 172.1,292.0 172.3,291.5 172.5,292.3 172.6,291.5 172.8,290.6 173.0,290.5 173.2,290.9 173.3,291.0 173.5,291.2 173.7,292.4 173.9,291.8 174.1,290.8 174.2,289.6 174.4,289.5 174.6,289.8 174.8,289.8 174.9,289.6 175.1,289.5 175.3,289.7 175.5,289.7 175.7,290.0 175.8,290.1 176.0,290.2 176.2,290.4 176.4,290.4 176.5,290.2 176.7,290.3 176.9,289.9 177.1,290.4 177.2,290.7 177.4,291.1 177.6,289.8 177.8,290.5 178.0,290.4 178.1,290.0 178.3,290.5 178.5,290.5 178.7,290.2 178.8,289.6 179.0,288.8 179.2,288.0 179.4,287.5 179.6,286.5 179.7,286.3 179.9,286.4 180.1,286.4 180.3,287.7 180.4,288.8 180.6,287.8 180.8,288.6 181.0,288.2 181.2,288.5 181.3,288.3 181.5,287.9 181.7,287.8 181.9,288.1 182.0,288.0 182.2,288.3 182.4,288.4 182.6,288.9 182.8,288.7 182.9,288.4 183.1,288.1 183.3,288.4 183.5,289.7 183.6,289.7 183.8,290.3 184.0,289.8 184.2,289.5 184.4,289.2 184.5,288.4 184.7,285.3 184.9,286.5 185.1,285.8 185.2,285.5 185.4,286.0 185.6,286.6 185.8,286.9 185.9,287.0 186.1,287.8 186.3,288.5 186.5,288.8 186.7,288.1 186.8,288.4 187.0,288.5 187.2,288.4 187.4,288.2 187.5,288.3 187.7,288.2 187.9,287.7 188.1,287.7 188.3,287.1 188.4,287.7 188.6,287.5 188.8,287.4 189.0,286.7 189.1,287.0 189.3,287.2 189.5,287.2 189.7,286.8 189.9,287.0 190.0,287.3 190.2,287.3 190.4,286.6 190.6,288.3 190.7,285.3 190.9,286.7 191.1,287.3 191.3,288.1 191.5,288.8 191.6,288.7 191.8,288.4 192.0,286.7 192.2,285.7 192.3,283.9 192.5,283.6 192.7,283.9 192.9,283.0 193.1,282.7 193.2,282.3 193.4,282.1 193.6,281.4 193.8,280.9 193.9,280.5 194.1,279.4 194.3,279.1 194.5,279.3 194.6,278.7 194.8,278.8 195.0,278.5 195.2,278.4 195.4,278.3 195.5,277.6 195.7,277.4 195.9,277.5 196.1,277.2 196.2,276.8 196.4,276.7 196.6,276.3 196.8,275.6 197.0,275.2 197.1,275.1 197.3,273.6 197.5,273.0 197.7,273.4 197.8,274.3 198.0,274.3 198.2,273.9 198.4,275.7 198.6,273.7 198.7,273.2 198.9,273.1 199.1,274.2 199.3,273.3 199.4,272.9 199.6,273.2 199.8,273.4 200.0,273.7 200.2,273.2 200.3,273.5 200.5,273.2 200.7,272.2 200.9,272.6 201.0,272.7 201.2,273.0 201.4,272.1 201.6,272.5 201.8,272.1 201.9,271.7 202.1,271.7 202.3,271.8 202.5,271.0 202.6,271.4 202.8,271.1 203.0,272.7 203.2,272.1 203.3,272.1 203.5,271.8 203.7,272.6 203.9,271.0 204.1,270.3 204.2,270.9 204.4,272.5 204.6,271.4 204.8,272.5 204.9,272.6 205.1,271.6 205.3,272.2 205.5,272.0 205.7,272.0 205.8,271.6 206.0,271.8 206.2,270.7 206.4,269.7 206.5,270.2 206.7,269.8 206.9,267.3 207.1,266.9 207.3,266.5 207.4,266.4 207.6,266.7 207.8,266.2 208.0,265.5 208.1,264.8 208.3,264.8 208.5,264.3 208.7,263.4 208.9,263.6 209.0,263.3 209.2,264.5 209.4,263.8 209.6,263.8 209.7,263.4 209.9,263.7 210.1,263.5 210.3,264.5 210.5,264.0 210.6,264.9 210.8,265.0 211.0,263.9 211.2,262.5 211.3,260.7 211.5,261.4 211.7,262.0 211.9,260.6 212.0,260.0 212.2,259.0 212.4,258.6 212.6,259.3 212.8,260.0 212.9,259.9 213.1,257.8 213.3,257.0 213.5,255.0 213.6,252.6 213.8,253.0 214.0,251.7 214.2,252.9 214.4,252.4 214.5,251.7 214.7,251.4 214.9,251.5 215.1,252.3 215.2,251.9 215.4,252.0 215.6,251.4 215.8,250.7 216.0,249.8 216.1,249.0 216.3,249.7 216.5,248.4 216.7,249.2 216.8,248.1 217.0,248.7 217.2,248.4 217.4,248.4 217.6,248.0 217.7,247.4 217.9,246.4 218.1,246.3 218.3,249.6 218.4,251.4 218.6,251.6 218.8,250.2 219.0,249.5 219.1,248.9 219.3,248.3 219.5,249.1 219.7,250.9 219.9,251.0 220.0,251.4 220.2,250.8 220.4,251.0 220.6,249.3 220.7,249.9 220.9,249.8 221.1,253.2 221.3,252.4 221.5,252.1 221.6,254.2 221.8,255.7 222.0,255.4 222.2,255.2 222.3,255.3 222.5,254.7 222.7,254.2 222.9,253.3 223.1,253.8 223.2,253.8 223.4,255.4 223.6,255.2 223.8,254.9 223.9,254.5 224.1,255.2 224.3,255.5 224.5,255.5 224.7,255.7 224.8,255.0 225.0,255.1 225.2,255.3 225.4,252.8 225.5,254.7 225.7,254.1 225.9,253.7 226.1,254.3 226.3,255.0 226.4,255.0 226.6,252.5 226.8,252.3 227.0,251.2 227.1,252.0 227.3,250.9 227.5,250.6 227.7,248.4 227.8,248.3 228.0,247.2 228.2,246.6 228.4,247.2 228.6,246.6 228.7,248.2 228.9,247.7 229.1,248.7 229.3,250.1 229.4,249.2 229.6,248.1 229.8,247.4 230.0,246.8 230.2,248.6 230.3,245.9 230.5,245.5 230.7,247.3 230.9,246.6 231.0,246.8 231.2,245.2 231.4,245.9 231.6,245.5 231.8,243.2 231.9,241.5 232.1,240.9 232.3,241.9 232.5,242.8 232.6,243.6 232.8,244.2 233.0,243.1 233.2,245.7 233.4,245.9 233.5,246.7 233.7,245.4 233.9,245.8 234.1,245.5 234.2,246.5 234.4,245.0 234.6,244.9 234.8,243.7 235.0,244.1 235.1,243.9 235.3,244.7 235.5,244.0 235.7,242.9 235.8,243.0 236.0,243.3 236.2,243.7 236.4,244.2 236.5,244.6 236.7,246.1 236.9,245.1 237.1,246.2 237.3,246.5 237.4,247.6 237.6,248.0 237.8,247.8 238.0,250.0 238.1,248.0 238.3,247.9 238.5,249.1 238.7,247.8 238.9,247.8 239.0,246.4 239.2,246.5 239.4,247.6 239.6,249.1 239.7,247.3 239.9,248.0 240.1,245.5 240.3,244.5 240.5,249.0 240.6,246.1 240.8,246.5 241.0,245.0 241.2,242.5 241.3,241.1 241.5,240.6 241.7,238.8 241.9,237.9 242.1,238.4 242.2,238.2 242.4,239.8 242.6,240.7 242.8,241.4 242.9,241.3 243.1,241.9 243.3,242.1 243.5,241.8 243.7,241.6 243.8,239.7 244.0,238.0 244.2,237.1 244.4,236.9 244.5,237.1 244.7,238.2 244.9,238.7 245.1,238.0 245.2,237.2 245.4,235.4 245.6,235.3 245.8,237.4 246.0,238.6 246.1,237.9 246.3,238.9 246.5,238.1 246.7,237.5 246.8,238.8 247.0,238.2 247.2,239.2 247.4,238.0 247.6,238.4 247.7,239.9 247.9,240.6 248.1,242.0 248.3,245.1 248.4,245.9 248.6,244.0 248.8,245.9 249.0,246.4 249.2,246.9 249.3,246.9 249.5,245.3 249.7,244.3 249.9,244.5 250.0,243.5 250.2,243.6 250.4,243.2 250.6,243.9 250.8,243.9 250.9,243.2 251.1,242.6 251.3,242.4 251.5,243.4 251.6,242.7 251.8,244.6 252.0,246.0 252.2,246.1 252.4,246.4 252.5,245.2 252.7,246.3 252.9,247.3 253.1,249.1 253.2,249.6 253.4,249.4 253.6,250.3 253.8,249.1 253.9,248.6 254.1,247.9 254.3,246.3 254.5,246.6 254.7,246.7 254.8,246.6 255.0,247.2 255.2,250.7 255.4,251.0 255.5,250.4 255.7,249.7 255.9,249.7 256.1,251.4 256.3,250.6 256.4,248.8 256.6,247.3 256.8,247.2 257.0,245.6 257.1,247.1 257.3,248.4 257.5,249.3 257.7,248.8 257.9,250.1 258.0,249.6 258.2,249.3 258.4,249.0 258.6,248.8 258.7,249.2 258.9,250.1 259.1,250.0 259.3,250.3 259.5,251.8 259.6,251.3 259.8,252.6 260.0,252.5 260.2,251.3 260.3,252.0 260.5,252.8 260.7,250.5 260.9,249.2 261.1,248.2 261.2,250.6 261.4,250.0 261.6,249.6 261.8,249.4 261.9,248.8 262.1,249.6 262.3,249.0 262.5,250.0 262.6,248.0 262.8,248.8 263.0,248.1 263.2,247.4 263.4,247.3 263.5,246.6 263.7,246.6 263.9,247.0 264.1,246.8 264.2,246.9 264.4,245.9 264.6,244.9 264.8,245.3 265.0,246.0 265.1,246.1 265.3,246.0 265.5,243.0 265.7,241.8 265.8,243.3 266.0,243.1 266.2,243.1 266.4,242.5 266.6,243.0 266.7,243.2 266.9,242.6 267.1,241.7 267.3,242.0 267.4,241.2 267.6,240.9 267.8,240.5 268.0,240.6 268.2,240.6 268.3,239.8 268.5,239.1 268.7,240.1 268.9,240.9 269.0,241.5 269.2,241.7 269.4,242.3 269.6,241.9 269.8,242.4 269.9,242.3 270.1,242.5 270.3,241.2 270.5,241.0 270.6,241.1 270.8,241.9 271.0,239.7 271.2,239.0 271.3,239.4 271.5,240.6 271.7,239.4 271.9,238.2 272.1,239.5 272.2,241.2 272.4,238.7 272.6,238.5 272.8,238.4 272.9,237.5 273.1,236.8 273.3,236.7 273.5,236.5 273.7,235.8 273.8,235.6 274.0,234.9 274.2,232.9 274.4,230.8 274.5,231.6 274.7,231.8 274.9,231.1 275.1,231.2 275.3,230.5 275.4,232.2 275.6,232.4 275.8,232.5 276.0,233.3 276.1,234.0 276.3,233.7 276.5,234.2 276.7,234.3 276.9,234.3 277.0,234.2 277.2,233.8 277.4,233.6 277.6,233.3 277.7,232.8 277.9,233.1 278.1,232.8 278.3,232.6 278.5,231.4 278.6,230.8 278.8,229.6 279.0,229.1 279.2,230.6 279.3,230.7 279.5,230.7 279.7,230.0 279.9,228.0 280.0,228.3 280.2,227.7 280.4,227.7 280.6,227.9 280.8,228.3 280.9,227.8 281.1,228.4 281.3,229.3 281.5,229.3 281.6,226.9 281.8,226.1 282.0,224.8 282.2,225.6 282.4,226.2 282.5,226.0 282.7,226.9 282.9,227.3 283.1,227.3 283.2,225.6 283.4,226.3 283.6,228.7 283.8,226.3 284.0,226.3 284.1,225.7 284.3,226.5 284.5,227.0 284.7,226.6 284.8,228.0 285.0,228.6 285.2,228.7 285.4,228.0 285.6,227.2 285.7,230.4 285.9,231.8 286.1,231.5 286.3,230.9 286.4,230.8 286.6,229.8 286.8,230.2 287.0,230.8 287.2,231.0 287.3,230.2 287.5,229.8 287.7,230.1 287.9,231.2 288.0,232.4 288.2,233.5 288.4,234.2 288.6,234.9 288.7,235.4 288.9,234.9 289.1,233.7 289.3,233.0 289.5,232.8 289.6,232.6 289.8,233.9 290.0,234.3 290.2,233.5 290.3,233.7 290.5,235.1 290.7,233.8 290.9,234.2 291.1,234.2 291.2,235.8 291.4,237.3 291.6,236.5 291.8,236.9 291.9,235.8 292.1,236.9 292.3,237.9 292.5,238.8 292.7,238.6 292.8,237.9 293.0,238.1 293.2,237.3 293.4,237.2 293.5,237.1 293.7,236.0 293.9,235.6 294.1,235.5 294.3,236.1 294.4,236.6 294.6,237.0 294.8,237.1 295.0,236.6 295.1,237.1 295.3,238.1 295.5,237.4 295.7,237.6 295.9,238.5 296.0,239.5 296.2,239.5 296.4,239.5 296.6,239.1 296.7,237.7 296.9,237.1 297.1,236.0 297.3,235.1 297.4,235.0 297.6,234.3 297.8,235.2 298.0,235.7 298.2,235.5 298.3,235.9 298.5,236.1 298.7,234.6 298.9,235.1 299.0,235.6 299.2,235.6 299.4,235.5 299.6,236.1 299.8,237.0 299.9,236.9 300.1,236.9 300.3,237.4 300.5,237.0 300.6,236.7 300.8,236.1 301.0,235.4 301.2,235.7 301.4,234.2 301.5,234.6 301.7,234.5 301.9,235.3 302.1,235.6 302.2,235.6 302.4,236.3 302.6,237.3 302.8,236.7 303.0,237.1 303.1,237.4 303.3,237.2 303.5,235.5 303.7,234.3 303.8,233.0 304.0,233.2 304.2,233.1 304.4,232.4 304.5,231.2 304.7,233.0 304.9,232.6 305.1,231.7 305.3,231.5 305.4,231.1 305.6,231.5 305.8,232.1 306.0,230.9 306.1,231.7 306.3,231.1 306.5,232.5 306.7,233.1 306.9,232.4 307.0,231.4 307.2,231.0 307.4,230.6 307.6,230.3 307.7,229.7 307.9,229.9 308.1,229.3 308.3,228.7 308.5,229.3 308.6,229.4 308.8,229.2 309.0,228.1 309.2,228.1 309.3,228.3 309.5,228.8 309.7,229.7 309.9,231.7 310.1,233.1 310.2,232.9 310.4,230.1 310.6,229.3 310.8,228.8 310.9,229.4 311.1,230.3 311.3,228.8 311.5,228.8 311.7,229.1 311.8,228.0 312.0,228.1 312.2,226.9 312.4,226.2 312.5,226.3 312.7,226.2 312.9,225.8 313.1,227.2 313.2,227.8 313.4,226.9 313.6,227.2 313.8,226.1 314.0,226.0 314.1,225.7 314.3,226.6 314.5,226.4 314.7,224.9 314.8,224.7 315.0,224.6 315.2,225.9 315.4,226.6 315.6,227.2 315.7,226.4 315.9,226.8 316.1,226.3 316.3,227.1 316.4,226.4 316.6,225.8 316.8,227.1 317.0,226.5 317.2,226.4 317.3,227.2 317.5,226.0 317.7,225.0 317.9,224.6 318.0,223.9 318.2,223.0 318.4,222.6 318.6,225.0 318.8,223.5 318.9,223.0 319.1,224.0 319.3,223.4 319.5,223.0 319.6,222.5 319.8,221.6 320.0,220.9 320.2,222.2 320.4,222.1 320.5,221.6 320.7,221.0 320.9,220.1 321.1,219.7 321.2,219.5 321.4,219.9 321.6,220.2 321.8,219.6 321.9,219.0 322.1,219.2 322.3,221.1 322.5,221.8 322.7,223.7 322.8,222.2 323.0,222.5 323.2,225.9 323.4,228.2 323.5,227.9 323.7,226.9 323.9,225.2 324.1,224.6 324.3,226.2 324.4,227.3 324.6,227.9 324.8,227.1 325.0,226.6 325.1,227.7 325.3,226.8 325.5,226.8 325.7,226.2 325.9,226.5 326.0,227.5 326.2,228.6 326.4,229.6 326.6,230.4 326.7,229.9 326.9,230.3 327.1,229.5 327.3,229.0 327.5,230.1 327.6,229.5 327.8,228.8 328.0,228.8 328.2,229.2 328.3,230.6 328.5,227.7 328.7,229.3 328.9,228.7 329.1,228.2 329.2,227.9 329.4,225.5 329.6,226.0 329.8,226.6 329.9,228.2 330.1,231.4 330.3,232.7 330.5,233.7 330.6,231.3 330.8,231.1 331.0,230.7 331.2,230.5 331.4,230.8 331.5,231.2 331.7,231.3 331.9,230.1 332.1,230.6 332.2,229.7 332.4,228.6 332.6,229.6 332.8,229.8 333.0,230.4 333.1,229.4 333.3,229.8 333.5,228.8 333.7,228.5 333.8,229.5 334.0,226.7 334.2,227.1 334.4,227.2 334.6,227.2 334.7,226.3 334.9,225.5 335.1,226.1 335.3,226.3 335.4,227.5 335.6,227.7 335.8,227.7 336.0,226.8 336.2,227.7 336.3,227.3 336.5,226.9 336.7,227.1 336.9,227.0 337.0,225.1 337.2,225.9 337.4,226.8 337.6,226.8 337.8,227.4 337.9,228.4 338.1,228.4 338.3,228.5 338.5,227.8 338.6,228.1 338.8,228.0 339.0,227.6 339.2,226.8 339.3,226.4 339.5,227.2 339.7,226.7 339.9,227.3 340.1,226.8 340.2,227.4 340.4,228.5 340.6,231.0 340.8,229.7 340.9,230.4 341.1,230.2 341.3,230.2 341.5,229.6 341.7,229.5 341.8,228.7 342.0,229.4 342.2,228.2 342.4,229.0 342.5,229.0 342.7,230.1 342.9,230.0 343.1,229.4 343.3,228.9 343.4,229.2 343.6,228.2 343.8,228.3 344.0,229.0 344.1,228.7 344.3,229.0 344.5,229.5 344.7,229.9 344.9,229.8 345.0,230.0 345.2,230.5 345.4,229.8 345.6,229.5 345.7,228.1 345.9,227.8 346.1,227.2 346.3,228.0 346.5,227.6 346.6,229.1 346.8,229.5 347.0,229.5 347.2,228.8 347.3,227.8 347.5,227.6 347.7,229.1 347.9,228.7 348.0,226.5 348.2,225.5 348.4,226.3 348.6,224.5 348.8,225.1 348.9,225.2 349.1,224.3 349.3,223.8 349.5,223.5 349.6,224.2 349.8,223.5 350.0,223.2 350.2,223.7 350.4,223.2 350.5,223.9 350.7,224.4 350.9,224.0 351.1,223.4 351.2,223.6 351.4,222.9 351.6,223.5 351.8,223.0 352.0,223.4 352.1,223.3 352.3,223.0 352.5,223.1 352.7,223.0 352.8,223.2 353.0,223.5 353.2,223.5 353.4,224.9 353.6,224.9 353.7,223.7 353.9,224.8 354.1,223.6 354.3,223.2 354.4,223.6 354.6,223.4 354.8,223.6 355.0,223.1 355.2,223.2 355.3,222.9 355.5,222.7 355.7,222.7 355.9,223.1 356.0,222.8 356.2,223.3 356.4,223.3 356.6,223.2 356.7,223.3 356.9,223.9 357.1,222.3 357.3,223.5 357.5,224.2 357.6,223.7 357.8,222.8 358.0,222.3 358.2,222.1 358.3,221.9 358.5,222.3 358.7,221.3 358.9,225.5 359.1,225.1 359.2,225.8 359.4,227.0 359.6,227.5 359.8,226.5 359.9,225.2 360.1,224.5 360.3,224.4 360.5,224.0 360.7,225.1 360.8,224.9 361.0,225.2 361.2,226.3 361.4,226.1 361.5,227.9 361.7,227.3 361.9,227.5 362.1,228.8 362.3,228.6 362.4,228.2 362.6,228.6 362.8,229.1 363.0,230.8 363.1,229.5 363.3,229.5 363.5,229.6 363.7,229.9 363.9,229.8 364.0,229.3 364.2,228.9 364.4,229.0 364.6,226.0 364.7,224.3 364.9,223.9 365.1,223.0 365.3,223.3 365.4,223.2 365.6,222.9 365.8,223.1 366.0,223.3 366.2,223.6 366.3,223.9 366.5,223.4 366.7,223.2 366.9,223.0 367.0,222.9 367.2,222.2 367.4,219.4 367.6,218.8 367.8,217.8 367.9,216.5 368.1,216.0 368.3,214.6 368.5,214.6 368.6,214.7 368.8,215.0 369.0,215.7 369.2,215.6 369.4,215.9 369.5,216.4 369.7,217.2 369.9,217.7 370.1,218.0 370.2,217.6 370.4,218.1 370.6,217.7 370.8,217.5 371.0,218.4 371.1,215.4 371.3,216.2 371.5,215.8 371.7,216.8 371.8,217.7 372.0,217.4 372.2,217.5 372.4,216.3 372.6,216.6 372.7,216.0 372.9,215.5 373.1,214.6 373.3,215.2 373.4,214.5 373.6,213.3 373.8,213.3 374.0,213.5 374.1,213.4 374.3,211.7 374.5,212.8 374.7,213.3 374.9,213.1 375.0,213.5 375.2,212.1 375.4,214.3 375.6,213.2 375.7,213.6 375.9,212.2 376.1,211.7 376.3,211.2 376.5,210.9 376.6,210.4 376.8,210.8 377.0,210.8 377.2,211.1 377.3,211.6 377.5,212.3 377.7,213.2 377.9,212.0 378.1,213.0 378.2,213.0 378.4,213.3 378.6,213.3 378.8,212.9 378.9,212.7 379.1,211.7 379.3,211.1 379.5,211.0 379.7,211.1 379.8,210.9 380.0,210.8 380.2,210.8 380.4,211.7 380.5,211.6 380.7,211.5 380.9,211.9 381.1,212.1 381.3,212.2 381.4,212.1 381.6,211.3 381.8,210.3 382.0,210.7 382.1,210.5 382.3,210.9 382.5,211.0 382.7,210.3 382.8,210.3 383.0,210.8 383.2,209.9 383.4,210.1 383.6,209.3 383.7,209.5 383.9,209.2 384.1,208.5 384.3,208.5 384.4,207.7 384.6,207.4 384.8,207.9 385.0,209.0 385.2,209.0 385.3,208.8 385.5,208.5 385.7,208.5 385.9,208.5 386.0,207.8 386.2,209.2 386.4,206.7 386.6,206.8 386.8,207.2 386.9,207.5 387.1,206.7 387.3,207.6 387.5,207.4 387.6,207.2 387.8,206.6 388.0,206.6 388.2,206.0 388.4,205.7 388.5,205.5 388.7,205.2 388.9,205.2 389.1,205.4 389.2,205.0 389.4,205.1 389.6,204.9 389.8,205.1 390.0,203.2 390.1,203.1 390.3,202.5 390.5,202.4 390.7,202.3 390.8,202.2 391.0,202.6 391.2,203.5 391.4,202.6 391.5,203.1 391.7,203.3 391.9,203.5 392.1,203.3 392.3,202.6 392.4,202.2 392.6,201.8 392.8,201.4 393.0,201.0 393.1,200.6 393.3,199.7 393.5,200.4 393.7,199.7 393.9,200.0 394.0,199.9 394.2,200.6 394.4,200.1 394.6,200.6 394.7,200.5 394.9,199.6 395.1,199.8 395.3,199.6 395.5,198.9 395.6,199.0 395.8,199.4 396.0,198.9 396.2,199.5 396.3,199.3 396.5,198.5 396.7,197.9 396.9,198.2 397.1,198.1 397.2,199.3 397.4,198.4 397.6,197.7 397.8,196.6 397.9,196.7 398.1,197.1 398.3,196.4 398.5,196.0 398.6,195.8 398.8,196.3 399.0,197.0 399.2,196.4 399.4,194.8 399.5,195.4 399.7,195.3 399.9,194.3 400.1,194.0 400.2,193.8 400.4,193.9 400.6,193.4 400.8,193.4 401.0,192.4 401.1,191.3 401.3,191.3 401.5,190.5 401.7,190.8 401.8,190.5 402.0,190.1 402.2,189.7 402.4,190.6 402.6,190.0 402.7,190.0 402.9,189.3 403.1,189.4 403.3,189.2 403.4,189.4 403.6,190.6 403.8,189.1 404.0,188.7 404.2,188.4 404.3,188.0 404.5,187.4 404.7,187.2 404.9,187.9 405.0,188.0 405.2,187.3 405.4,187.9 405.6,187.4 405.8,186.7 405.9,186.4 406.1,187.0 406.3,187.1 406.5,187.0 406.6,187.5 406.8,186.8 407.0,186.3 407.2,186.6 407.3,186.9 407.5,185.7 407.7,185.4 407.9,185.5 408.1,184.6 408.2,184.9 408.4,182.9 408.6,183.3 408.8,183.7 408.9,184.4 409.1,184.4 409.3,183.9 409.5,183.7 409.7,182.8 409.8,182.3 410.0,183.0 410.2,182.6 410.4,182.3 410.5,180.5 410.7,180.3 410.9,180.5 411.1,180.0 411.3,179.7 411.4,178.3 411.6,179.4 411.8,177.9 412.0,177.4 412.1,178.1 412.3,177.7 412.5,177.9 412.7,177.4 412.9,176.7 413.0,176.1 413.2,175.3 413.4,176.1 413.6,176.2 413.7,176.0 413.9,176.4 414.1,177.1 414.3,177.4 414.5,177.1 414.6,177.2 414.8,177.5 415.0,177.0 415.2,177.0 415.3,177.1 415.5,178.3 415.7,177.8 415.9,177.5 416.0,175.3 416.2,174.1 416.4,173.4 416.6,172.5 416.8,172.6 416.9,173.0 417.1,173.4 417.3,173.0 417.5,172.2 417.6,171.6 417.8,171.2 418.0,171.1 418.2,170.6 418.4,169.7 418.5,169.8 418.7,170.9 418.9,171.9 419.1,171.3 419.2,170.1 419.4,171.2 419.6,173.5 419.8,182.0 420.0,183.6 420.1,186.0 420.3,188.8 420.5,186.3 420.7,185.2 420.8,183.3 421.0,181.7 421.2,185.7 421.4,186.2 421.6,185.8 421.7,186.8 421.9,187.6 422.1,185.8 422.3,186.6 422.4,185.4 422.6,185.8 422.8,183.3 423.0,183.1 423.2,181.2 423.3,180.8 423.5,180.1 423.7,177.2 423.9,177.6 424.0,180.1 424.2,180.5 424.4,180.9 424.6,180.5 424.7,181.0 424.9,180.1 425.1,181.8 425.3,184.9 425.5,185.6 425.6,183.6 425.8,185.3 426.0,185.4 426.2,183.9 426.3,185.0 426.5,186.1 426.7,185.9 426.9,185.6 427.1,187.2 427.2,186.7 427.4,186.6 427.6,187.8 427.8,187.0 427.9,187.9 428.1,187.6 428.3,186.7 428.5,187.2 428.7,186.8 428.8,186.6 429.0,188.2 429.2,189.9 429.4,189.4 429.5,189.0 429.7,189.5 429.9,189.0 430.1,188.7 430.3,189.0 430.4,190.0 430.6,192.2 430.8,191.7 431.0,192.3 431.1,191.1 431.3,190.0 431.5,189.0 431.7,188.1 431.9,188.1 432.0,187.8 432.2,187.9 432.4,189.2 432.6,189.3 432.7,190.8 432.9,191.2 433.1,192.0 433.3,191.8 433.4,192.6 433.6,194.9 433.8,196.0 434.0,195.3 434.2,195.6 434.3,194.7 434.5,193.9 434.7,191.9 434.9,191.1 435.0,190.4 435.2,189.9 435.4,190.7 435.6,191.2 435.8,192.0 435.9,191.4 436.1,190.2 436.3,190.9 436.5,191.1 436.6,190.4 436.8,191.0 437.0,189.8 437.2,191.1 437.4,191.2 437.5,191.0 437.7,191.3 437.9,192.3 438.1,191.9 438.2,193.5 438.4,191.7 438.6,191.9 438.8,192.5 439.0,191.7 439.1,191.9 439.3,191.3 439.5,190.4 439.7,189.6 439.8,190.5 440.0,190.6 440.2,190.9 440.4,191.0 440.6,190.1 440.7,191.1 440.9,192.5 441.1,196.7 441.3,196.4 441.4,197.0 441.6,197.4 441.8,198.4 442.0,199.7 442.1,199.2 442.3,200.0 442.5,200.5 442.7,200.1 442.9,199.9 443.0,199.3 443.2,198.4 443.4,198.0 443.6,197.4 443.7,195.1 443.9,195.8 444.1,194.8 444.3,194.0 444.5,192.1 444.6,193.2 444.8,193.9 445.0,193.5 445.2,193.6 445.3,193.5 445.5,191.1 445.7,191.6 445.9,191.9 446.1,190.8 446.2,191.5 446.4,191.1 446.6,191.5 446.8,191.0 446.9,190.9 447.1,190.5 447.3,189.5 447.5,188.9 447.7,188.8 447.8,188.8 448.0,190.1 448.2,192.6 448.4,195.0 448.5,195.9 448.7,197.3 448.9,196.4 449.1,196.8 449.3,197.5 449.4,197.7 449.6,196.3 449.8,194.2 450.0,193.0 450.1,192.6 450.3,193.5 450.5,194.0 450.7,194.7 450.8,192.0 451.0,192.1 451.2,191.6 451.4,190.4 451.6,190.8 451.7,189.0 451.9,189.8 452.1,189.1 452.3,188.9 452.4,187.5 452.6,185.4 452.8,184.8 453.0,186.4 453.2,185.2 453.3,185.3 453.5,185.1 453.7,185.9 453.9,186.9 454.0,187.5 454.2,188.5 454.4,187.1 454.6,187.0 454.8,187.0 454.9,186.7 455.1,186.1 455.3,186.8 455.5,188.2 455.6,188.6 455.8,188.7 456.0,188.2 456.2,189.4 456.4,189.0 456.5,188.4 456.7,190.2 456.9,191.2 457.1,191.4 457.2,190.8 457.4,190.0 457.6,191.5 457.8,190.7 458.0,191.9 458.1,193.4 458.3,193.9 458.5,194.8 458.7,195.6 458.8,196.7 459.0,197.2 459.2,201.2 459.4,198.8 459.5,197.6 459.7,197.1 459.9,195.8 460.1,197.3 460.3,197.6 460.4,195.4 460.6,196.8 460.8,199.3 461.0,199.9 461.1,200.9 461.3,201.1 461.5,200.4 461.7,199.9 461.9,199.7 462.0,199.3 462.2,198.0 462.4,196.3 462.6,195.5 462.7,197.2 462.9,197.2 463.1,196.7 463.3,197.6 463.5,199.3 463.6,199.5 463.8,198.8 464.0,199.1 464.2,198.0 464.3,198.0 464.5,198.1 464.7,198.4 464.9,198.8 465.1,198.9 465.2,198.1 465.4,200.0 465.6,199.3 465.8,198.8 465.9,197.9 466.1,198.2 466.3,196.8 466.5,197.7 466.7,198.1 466.8,198.8 467.0,197.3 467.2,197.1 467.4,196.0 467.5,196.5 467.7,198.2 467.9,199.9 468.1,200.3 468.2,198.5 468.4,197.5 468.6,197.4 468.8,197.8 469.0,196.4 469.1,197.4 469.3,197.7 469.5,198.3 469.7,198.3 469.8,197.7 470.0,197.9 470.2,198.3 470.4,198.7 470.6,198.8 470.7,197.7 470.9,196.6 471.1,196.9 471.3,197.5 471.4,197.5 471.6,197.4 471.8,197.6 472.0,198.1 472.2,197.1 472.3,197.3 472.5,197.1 472.7,195.9 472.9,194.9 473.0,193.5 473.2,193.1 473.4,193.3 473.6,193.3 473.8,193.1 473.9,192.8 474.1,192.9 474.3,193.3 474.5,192.9 474.6,193.3 474.8,194.2 475.0,193.4 475.2,191.8 475.4,192.7 475.5,192.1 475.7,191.4 475.9,191.5 476.1,191.7 476.2,190.3 476.4,191.2 476.6,190.2 476.8,189.8 476.9,188.4 477.1,188.6 477.3,188.3 477.5,189.5 477.7,188.9 477.8,190.0 478.0,188.7 478.2,189.2 478.4,187.8 478.5,187.4 478.7,186.8 478.9,186.1 479.1,186.0 479.3,185.8 479.4,186.0 479.6,188.1 479.8,188.4 480.0,188.7 480.1,188.4 480.3,189.1 480.5,189.4 480.7,189.4 480.9,188.8 481.0,189.3 481.2,188.6 481.4,188.5 481.6,189.7 481.7,189.6 481.9,191.4 482.1,189.1 482.3,187.8 482.5,186.8 482.6,186.5 482.8,186.3 483.0,186.1 483.2,185.6 483.3,184.7 483.5,184.0 483.7,184.0 483.9,183.9 484.0,183.9 484.2,183.6 484.4,183.4 484.6,183.6 484.8,183.5 484.9,185.6 485.1,185.9 485.3,186.0 485.5,186.4 485.6,186.4 485.8,187.2 486.0,183.3 486.2,182.3 486.4,183.5 486.5,181.0 486.7,181.3 486.9,180.8 487.1,180.7 487.2,180.4 487.4,179.6 487.6,180.4 487.8,178.8 488.0,179.2 488.1,179.8 488.3,180.4 488.5,180.6 488.7,180.1 488.8,180.1 489.0,179.6 489.2,180.0 489.4,180.1 489.6,180.7 489.7,180.6 489.9,180.6 490.1,180.6 490.3,180.6 490.4,180.9 490.6,180.9 490.8,183.2 491.0,183.3 491.2,183.3 491.3,186.0 491.5,186.1 491.7,184.4 491.9,182.9 492.0,182.4 492.2,182.9 492.4,182.7 492.6,181.2 492.7,181.4 492.9,181.5 493.1,183.0 493.3,183.4 493.5,182.9 493.6,184.8 493.8,182.6 494.0,182.5 494.2,181.2 494.3,182.3 494.5,181.9 494.7,181.9 494.9,182.9 495.1,183.2 495.2,183.3 495.4,183.0 495.6,182.4 495.8,182.1 495.9,183.1 496.1,183.5 496.3,184.0 496.5,182.9 496.7,183.9 496.8,184.5 497.0,184.1 497.2,182.2 497.4,183.2 497.5,183.4 497.7,184.3 497.9,183.2 498.1,183.7 498.3,183.1 498.4,183.4 498.6,183.3 498.8,182.7 499.0,181.7 499.1,181.7 499.3,180.4 499.5,179.7 499.7,178.4 499.9,177.9 500.0,178.0 500.2,177.7 500.4,177.7 500.6,180.3 500.7,181.1 500.9,180.8 501.1,180.5 501.3,180.0 501.4,179.9 501.6,180.1 501.8,179.7 502.0,180.3 502.2,182.9 502.3,182.9 502.5,183.0 502.7,183.0 502.9,181.9 503.0,182.2 503.2,182.4 503.4,181.6 503.6,180.7 503.8,181.1 503.9,180.7 504.1,180.7 504.3,180.8 504.5,180.5 504.6,180.0 504.8,180.3 505.0,179.2 505.2,179.9 505.4,181.2 505.5,182.0 505.7,182.6 505.9,182.8 506.1,183.3 506.2,183.0 506.4,182.1 506.6,181.6 506.8,182.3 507.0,181.7 507.1,180.9 507.3,180.3 507.5,180.2 507.7,180.2 507.8,179.3 508.0,179.1 508.2,178.0 508.4,178.0 508.6,177.6 508.7,178.5 508.9,177.7 509.1,175.1 509.3,178.4 509.4,177.7 509.6,177.9 509.8,177.8 510.0,177.3 510.1,176.5 510.3,177.8 510.5,179.8 510.7,178.2 510.9,178.4 511.0,178.8 511.2,178.7 511.4,177.6 511.6,179.3 511.7,184.0 511.9,181.2 512.1,181.9 512.3,181.0 512.5,182.7 512.6,182.1 512.8,185.5 513.0,186.1 513.2,189.4 513.3,199.3 513.5,198.2 513.7,208.8 513.9,203.5 514.1,215.4 514.2,208.6 514.4,211.6 514.6,214.7 514.8,213.1 514.9,211.3 515.1,201.5 515.3,201.5 515.5,199.7 515.7,202.9 515.8,203.8 516.0,200.2 516.2,202.6 516.4,198.2 516.5,199.3 516.7,197.5 516.9,199.4 517.1,199.5 517.3,193.7 517.4,195.6 517.6,195.7 517.8,192.6 518.0,191.9 518.1,193.8 518.3,194.0 518.5,194.8 518.7,196.8 518.8,196.3 519.0,195.3 519.2,194.6 519.4,194.6 519.6,198.9 519.7,198.5 519.9,194.9 520.1,196.1 520.3,194.5 520.4,194.0 520.6,194.2 520.8,195.7 521.0,195.6 521.2,194.6 521.3,194.2 521.5,192.0 521.7,194.9 521.9,193.7 522.0,195.7 522.2,194.6 522.4,193.0 522.6,192.1 522.8,192.1 522.9,189.3 523.1,190.3 523.3,192.1 523.5,191.1 523.6,193.3 523.8,195.8 524.0,191.5 524.2,191.8 524.4,193.1 524.5,196.5 524.7,194.2 524.9,193.3 525.1,193.0 525.2,193.3 525.4,193.9 525.6,195.1 525.8,194.1 526.0,197.5 526.1,199.1 526.3,198.0 526.5,201.0 526.7,199.9 526.8,199.5 527.0,196.9 527.2,198.0 527.4,198.1 527.5,199.1 527.7,199.7 527.9,202.1 528.1,200.9 528.3,201.0 528.4,201.7 528.6,198.9 528.8,199.8 529.0,200.0 529.1,199.4 529.3,199.6 529.5,200.8 529.7,201.2 529.9,202.7 530.0,204.6 530.2,204.5 530.4,203.0 530.6,205.0 530.7,204.2 530.9,205.5 531.1,206.1 531.3,205.1 531.5,206.7 531.6,203.9 531.8,206.2 532.0,203.3 532.2,205.0 532.3,205.5 532.5,203.7 532.7,202.4 532.9,202.1 533.1,203.1 533.2,202.6 533.4,200.8 533.6,200.0 533.8,201.7 533.9,201.2 534.1,200.2 534.3,200.8 534.5,200.7 534.7,202.2 534.8,203.6 535.0,202.4 535.2,201.4 535.4,202.5 535.5,202.3 535.7,204.8 535.9,203.2 536.1,202.3 536.2,202.6 536.4,201.8 536.6,203.2 536.8,201.5 537.0,202.2 537.1,202.4 537.3,203.0 537.5,202.8 537.7,202.5 537.8,203.1 538.0,205.0 538.2,204.2 538.4,203.5 538.6,204.4 538.7,204.1 538.9,205.0 539.1,206.8 539.3,206.6 539.4,206.3 539.6,207.1 539.8,207.4 540.0,207.0 540.2,207.8 540.3,207.7 540.5,209.4 540.7,209.7 540.9,211.2 541.0,210.6 541.2,209.7 541.4,210.7 541.6,210.1 541.8,212.8 541.9,212.1 542.1,210.1 542.3,208.1 542.5,205.1 542.6,204.9 542.8,208.4 543.0,207.0 543.2,204.7 543.4,205.7 543.5,203.9 543.7,205.6 543.9,204.3 544.1,203.8 544.2,205.0 544.4,203.4 544.6,202.3 544.8,202.3 544.9,200.1 545.1,200.5 545.3,200.7 545.5,200.8 545.7,201.1 545.8,199.3 546.0,199.1 546.2,199.6 546.4,199.6 546.5,199.3 546.7,201.1 546.9,203.2 547.1,204.9 547.3,205.8 547.4,203.8 547.6,201.6 547.8,201.9 548.0,202.6 548.1,201.6 548.3,202.0 548.5,201.6 548.7,201.3 548.9,200.5 549.0,199.5 549.2,200.8 549.4,200.0 549.6,199.6 549.7,200.0 549.9,200.1 550.1,197.7 550.3,196.6 550.5,195.0 550.6,194.3 550.8,193.3 551.0,196.2 551.2,197.4 551.3,196.8 551.5,196.1 551.7,196.1 551.9,197.2 552.1,197.9 552.2,197.6 552.4,197.5 552.6,200.9 552.8,200.1 552.9,200.8 553.1,198.1 553.3,196.1 553.5,197.8 553.6,198.0 553.8,202.6 554.0,200.5 554.2,200.4 554.4,202.0 554.5,204.0 554.7,202.8 554.9,196.6 555.1,197.2 555.2,194.4 555.4,197.1 555.6,197.2 555.8,196.1 556.0,193.8 556.1,194.1 556.3,194.9 556.5,193.9 556.7,196.0 556.8,197.2 557.0,195.5 557.2,190.6 557.4,190.1 557.6,191.3 557.7,191.5 557.9,192.1 558.1,190.8 558.3,190.5 558.4,191.7 558.6,191.2 558.8,192.3 559.0,192.5 559.2,193.3 559.3,192.8 559.5,191.8 559.7,194.9 559.9,195.9 560.0,194.8 560.2,196.3 560.4,195.1 560.6,193.4 560.8,193.0 560.9,194.2 561.1,193.9 561.3,194.6 561.5,194.0 561.6,193.0 561.8,193.3 562.0,192.7 562.2,191.5 562.3,190.6 562.5,191.3 562.7,190.9 562.9,190.4 563.1,190.9 563.2,190.8 563.4,190.4 563.6,191.1 563.8,192.0 563.9,191.6 564.1,190.8 564.3,189.1 564.5,188.2 564.7,187.0 564.8,188.7 565.0,188.1 565.2,186.3 565.4,187.1 565.5,185.9 565.7,184.2 565.9,184.1 566.1,184.9 566.3,186.8 566.4,185.6 566.6,185.5 566.8,185.8 567.0,186.7 567.1,186.9 567.3,186.4 567.5,186.6 567.7,185.8 567.9,186.3 568.0,184.8 568.2,185.2 568.4,185.4 568.6,185.4 568.7,185.1 568.9,183.9 569.1,184.4 569.3,184.1 569.5,183.5 569.6,183.6 569.8,182.4 570.0,181.7 570.2,184.4 570.3,181.3 570.5,180.0 570.7,180.9 570.9,179.3 571.0,178.9 571.2,180.4 571.4,180.1 571.6,180.7 571.8,181.0 571.9,181.3 572.1,181.7 572.3,181.8 572.5,182.5 572.6,180.8 572.8,181.2 573.0,182.4 573.2,182.5 573.4,181.9 573.5,182.2 573.7,182.9 573.9,182.9 574.1,181.1 574.2,182.0 574.4,179.9 574.6,181.3 574.8,182.9 575.0,182.1 575.1,182.7 575.3,181.0 575.5,179.6 575.7,178.5 575.8,177.9 576.0,179.4 576.2,178.2 576.4,179.4 576.6,178.6 576.7,176.9 576.9,175.7 577.1,175.7 577.3,176.4 577.4,177.4 577.6,178.4 577.8,175.3 578.0,174.0 578.1,176.1 578.3,176.5 578.5,176.5 578.7,176.8 578.9,176.6 579.0,177.5 579.2,176.2 579.4,175.5 579.6,175.2 579.7,176.1 579.9,177.9 580.1,176.9 580.3,177.3 580.5,176.2 580.6,177.3 580.8,177.4 581.0,177.6 581.2,177.7 581.3,177.8 581.5,178.9 581.7,177.6 581.9,177.5 582.1,177.6 582.2,176.4 582.4,177.8 582.6,178.3 582.8,176.8 582.9,177.6 583.1,177.9 583.3,177.9 583.5,179.5 583.7,179.0 583.8,176.9 584.0,176.0 584.2,176.8 584.4,176.8 584.5,176.9 584.7,175.9 584.9,176.6 585.1,175.5 585.3,176.3 585.4,175.6 585.6,175.6 585.8,174.3 586.0,174.2 586.1,173.1 586.3,173.8 586.5,173.2 586.7,172.7 586.8,171.7 587.0,170.9 587.2,171.1 587.4,172.4 587.6,171.9 587.7,171.7 587.9,173.1 588.1,175.1 588.3,174.3 588.4,173.3 588.6,173.3 588.8,172.7 589.0,174.2 589.2,174.2 589.3,174.2 589.5,175.7 589.7,174.5 589.9,173.3 590.0,174.5 590.2,174.0 590.4,174.5 590.6,175.6 590.8,174.0 590.9,174.4 591.1,173.2 591.3,173.3 591.5,173.1 591.6,174.4 591.8,172.7 592.0,173.5 592.2,174.8 592.4,173.9 592.5,172.7 592.7,174.9 592.9,176.3 593.1,176.3 593.2,174.3 593.4,174.5 593.6,174.0 593.8,173.8 594.0,174.5 594.1,174.3 594.3,173.6 594.5,174.8 594.7,176.4 594.8,177.2 595.0,176.6 595.2,177.4 595.4,178.3 595.5,176.3 595.7,177.2 595.9,179.8 596.1,181.2 596.3,180.5 596.4,179.9 596.6,179.8 596.8,181.3 597.0,181.3 597.1,182.9 597.3,183.4 597.5,183.5 597.7,182.4 597.9,181.0 598.0,180.8 598.2,180.0 598.4,182.2 598.6,179.9 598.7,180.1 598.9,178.4 599.1,179.2 599.3,179.3 599.5,179.9 599.6,179.7 599.8,178.9 600.0,179.3 600.2,181.1 600.3,180.8 600.5,182.3 600.7,183.6 600.9,181.8 601.1,181.7 601.2,181.8 601.4,181.9 601.6,180.9 601.8,181.8 601.9,179.7 602.1,182.4 602.3,184.2 602.5,183.3 602.7,183.9 602.8,184.0 603.0,184.2 603.2,183.8 603.4,183.2 603.5,181.6 603.7,182.1 603.9,182.6 604.1,180.4 604.2,183.1 604.4,184.2 604.6,183.5 604.8,184.7 605.0,183.5 605.1,183.5 605.3,183.7 605.5,182.1 605.7,184.7 605.8,184.6 606.0,183.4 606.2,181.4 606.4,182.4 606.6,182.2 606.7,181.5 606.9,180.3 607.1,181.8 607.3,182.4 607.4,181.5 607.6,181.2 607.8,183.3 608.0,183.9 608.2,183.1 608.3,185.7 608.5,183.0 608.7,183.1 608.9,184.7 609.0,185.4 609.2,185.1 609.4,183.5 609.6,185.9 609.8,185.9 609.9,188.8 610.1,188.0 610.3,187.8 610.5,188.8 610.6,187.2 610.8,187.3 611.0,187.8 611.2,190.5 611.4,189.9 611.5,188.9 611.7,188.4 611.9,188.9 612.1,188.4 612.2,187.2 612.4,185.5 612.6,185.2 612.8,185.1 612.9,183.0 613.1,184.0 613.3,183.4 613.5,184.2 613.7,184.3 613.8,184.3 614.0,186.9 614.2,187.8 614.4,188.5 614.5,187.0 614.7,187.6 614.9,187.4 615.1,187.0 615.3,187.2 615.4,185.1 615.6,183.4 615.8,183.6 616.0,184.0 616.1,184.1 616.3,184.5 616.5,183.5 616.7,181.7 616.9,181.5 617.0,180.6 617.2,181.0 617.4,179.2 617.6,180.0 617.7,181.3 617.9,181.4 618.1,180.7 618.3,181.2 618.5,178.9 618.6,178.9 618.8,177.5 619.0,177.7 619.2,177.0 619.3,176.8 619.5,176.8 619.7,176.5 619.9,177.9 620.1,182.3 620.2,181.6 620.4,181.4 620.6,180.6 620.8,179.7 620.9,180.8 621.1,180.8 621.3,181.0 621.5,181.7 621.6,180.3 621.8,180.5 622.0,180.1 622.2,177.8 622.4,176.1 622.5,177.6 622.7,177.9 622.9,178.8 623.1,178.5 623.2,178.0 623.4,179.8 623.6,179.8 623.8,181.5 624.0,181.4 624.1,179.3 624.3,180.2 624.5,179.1 624.7,177.7 624.8,177.4 625.0,177.5 625.2,177.7 625.4,179.4 625.6,179.1 625.7,180.6 625.9,179.7 626.1,179.6 626.3,180.4 626.4,181.3 626.6,181.6 626.8,182.6 627.0,182.4 627.2,182.0 627.3,181.1 627.5,181.5 627.7,181.8 627.9,181.3 628.0,180.1 628.2,180.2 628.4,179.0 628.6,180.7 628.8,180.9 628.9,181.3 629.1,181.2 629.3,180.0 629.5,182.6 629.6,179.9 629.8,178.8 630.0,180.2 630.2,180.7 630.3,180.1 630.5,178.7 630.7,177.3 630.9,177.5 631.1,177.5 631.2,176.6 631.4,177.2 631.6,175.4 631.8,176.2 631.9,177.0 632.1,174.9 632.3,175.5 632.5,176.4 632.7,178.0 632.8,179.4 633.0,183.3 633.2,180.9 633.4,178.4 633.5,178.4 633.7,177.7 633.9,179.1 634.1,177.5 634.3,176.7 634.4,177.0 634.6,176.4 634.8,177.1 635.0,178.0 635.1,175.8 635.3,175.8 635.5,174.9 635.7,175.5 635.9,174.8 636.0,174.8 636.2,175.8 636.4,177.3 636.6,176.5 636.7,178.2 636.9,179.0 637.1,177.4 637.3,177.5 637.5,178.0 637.6,178.0 637.8,176.2 638.0,177.3 638.2,176.2 638.3,176.0 638.5,176.2 638.7,175.6 638.9,176.6 639.0,176.1 639.2,177.2 639.4,177.7 639.6,177.8 639.8,178.7 639.9,178.5 640.1,177.9 640.3,177.7 640.5,177.2 640.6,177.7 640.8,178.4 641.0,178.6 641.2,178.6 641.4,178.1 641.5,179.0 641.7,178.5 641.9,177.9 642.1,178.7 642.2,178.4 642.4,178.2 642.6,178.1 642.8,179.5 643.0,177.3 643.1,176.1 643.3,175.4 643.5,175.7 643.7,176.5 643.8,176.2 644.0,174.7 644.2,175.9 644.4,174.7 644.6,175.8 644.7,174.4 644.9,174.8 645.1,174.9 645.3,174.6 645.4,174.0 645.6,175.3 645.8,176.2 646.0,175.8 646.2,176.2 646.3,176.0 646.5,176.7 646.7,177.8 646.9,178.0 647.0,179.3 647.2,180.9 647.4,178.6 647.6,177.1 647.7,178.6 647.9,177.5 648.1,176.6 648.3,176.5 648.5,174.8 648.6,175.6 648.8,175.6 649.0,174.3 649.2,173.0 649.3,172.8 649.5,172.3 649.7,172.5 649.9,171.4 650.1,171.2 650.2,170.8 650.4,170.6 650.6,170.4 650.8,172.0 650.9,171.5 651.1,171.2 651.3,170.9 651.5,170.0 651.7,169.5 651.8,169.7 652.0,169.3 652.2,168.9 652.4,168.4 652.5,168.3 652.7,168.6 652.9,169.4 653.1,169.1 653.3,168.3 653.4,169.1 653.6,168.8 653.8,169.1 654.0,169.8 654.1,170.1 654.3,170.1 654.5,170.3 654.7,169.0 654.9,168.7 655.0,168.8 655.2,168.7 655.4,169.2 655.6,170.1 655.7,169.7 655.9,168.7 656.1,168.5 656.3,170.6 656.4,170.6 656.6,171.6 656.8,171.7 657.0,172.5 657.2,172.4 657.3,171.8 657.5,170.8 657.7,170.9 657.9,172.8 658.0,172.1 658.2,170.6 658.4,169.0 658.6,170.7 658.8,170.5 658.9,168.8 659.1,169.2 659.3,169.6 659.5,169.9 659.6,170.1 659.8,169.6 660.0,170.8 660.2,171.7 660.4,171.5 660.5,171.2 660.7,170.5 660.9,169.3 661.1,169.6 661.2,169.2 661.4,169.9 661.6,170.5 661.8,170.4 662.0,169.5 662.1,170.1 662.3,167.9 662.5,167.3 662.7,167.6 662.8,168.0 663.0,168.0 663.2,166.9 663.4,166.2 663.5,166.9 663.7,166.5 663.9,166.1 664.1,167.3 664.3,167.9 664.4,168.3 664.6,168.2 664.8,168.3 665.0,168.1 665.1,165.1 665.3,164.8 665.5,164.9 665.7,164.8 665.9,163.7 666.0,162.7 666.2,163.6 666.4,163.2 666.6,162.8 666.7,162.9 666.9,162.8 667.1,162.5 667.3,162.9 667.5,162.8 667.6,163.4 667.8,162.2 668.0,162.0 668.2,162.7 668.3,162.9 668.5,163.0 668.7,162.6 668.9,163.3 669.1,162.8 669.2,161.0 669.4,161.3 669.6,160.5 669.8,161.2 669.9,162.0 670.1,162.5 670.3,163.2 670.5,162.0 670.7,159.9 670.8,160.2 671.0,160.1 671.2,159.3 671.4,160.1 671.5,159.8 671.7,160.4 671.9,159.6 672.1,159.7 672.2,159.4 672.4,159.2 672.6,157.9 672.8,157.7 673.0,157.0 673.1,156.5 673.3,157.1 673.5,157.1 673.7,157.4 673.8,156.8 674.0,156.3 674.2,156.1 674.4,156.1 674.6,156.5 674.7,156.9 674.9,157.3 675.1,156.8 675.3,156.7 675.4,156.0 675.6,157.2 675.8,156.2 676.0,156.0 676.2,155.1 676.3,156.5 676.5,153.4 676.7,151.3 676.9,151.9 677.0,151.4 677.2,150.3 677.4,150.9 677.6,149.4 677.8,149.9 677.9,150.1 678.1,149.7 678.3,150.2 678.5,150.1 678.6,150.1 678.8,148.7 679.0,148.7 679.2,148.6 679.4,148.4 679.5,149.0 679.7,147.8 679.9,148.6 680.1,148.0 680.2,147.9 680.4,149.7 680.6,149.9 680.8,149.3 680.9,149.6 681.1,149.4 681.3,149.4 681.5,152.1 681.7,150.9 681.8,150.9 682.0,150.1 682.2,151.3 682.4,150.4 682.5,150.7 682.7,151.5 682.9,150.7 683.1,149.7 683.3,149.4 683.4,149.5 683.6,151.0 683.8,151.6 684.0,151.8 684.1,150.3 684.3,150.7 684.5,150.7 684.7,149.7 684.9,148.5 685.0,147.2 685.2,145.8 685.4,145.8 685.6,146.5 685.7,146.3 685.9,145.0 686.1,145.1 686.3,145.1 686.5,146.0 686.6,147.3 686.8,147.4 687.0,147.1 687.2,146.8 687.3,147.6 687.5,148.0 687.7,148.6 687.9,146.9 688.1,147.0 688.2,147.3 688.4,146.9 688.6,146.6 688.8,146.7 688.9,146.2 689.1,145.9 689.3,143.9 689.5,144.6 689.6,142.4 689.8,141.7 690.0,142.0 690.2,142.6 690.4,142.3 690.5,143.8 690.7,145.8 690.9,144.8 691.1,144.5 691.2,145.6 691.4,147.1 691.6,145.9 691.8,147.1 692.0,148.0 692.1,147.3 692.3,148.3 692.5,147.3 692.7,147.2 692.8,147.3 693.0,147.4 693.2,147.0 693.4,148.4 693.6,148.9 693.7,149.6 693.9,148.7 694.1,147.2 694.3,148.0 694.4,147.6 694.6,149.3 694.8,148.1 695.0,148.4 695.2,147.7 695.3,149.1 695.5,148.8 695.7,149.8 695.9,149.4 696.0,149.9 696.2,150.2 696.4,150.1 696.6,149.8 696.8,148.4 696.9,148.8 697.1,149.3 697.3,149.0 697.5,148.0 697.6,149.4 697.8,148.6 698.0,148.3 698.2,148.8 698.3,151.3 698.5,148.9 698.7,147.5 698.9,147.0 699.1,146.4 699.2,147.5 699.4,148.3 699.6,147.8 699.8,148.5 699.9,149.7 700.1,148.1 700.3,147.3 700.5,147.6 700.7,147.2 700.8,147.1 701.0,148.6 701.2,147.7 701.4,149.2 701.5,150.2 701.7,151.0 701.9,151.8 702.1,150.9 702.3,150.6 702.4,151.1 702.6,151.4 702.8,152.0 703.0,152.5 703.1,151.6 703.3,153.4 703.5,153.8 703.7,154.3 703.9,153.0 704.0,153.4 704.2,152.1 704.4,150.5 704.6,152.6 704.7,153.6 704.9,153.2 705.1,153.0 705.3,153.1 705.5,152.3 705.6,152.5 705.8,152.7 706.0,153.3 706.2,153.7 706.3,153.8 706.5,153.5 706.7,153.3 706.9,153.4 707.0,152.0 707.2,151.9 707.4,148.6 707.6,147.1 707.8,146.8 707.9,146.2 708.1,147.4 708.3,146.6 708.5,145.8 708.6,146.0 708.8,146.4 709.0,145.8 709.2,147.3 709.4,146.3 709.5,143.1 709.7,142.1 709.9,141.7 710.1,139.8 710.2,139.0 710.4,140.3 710.6,139.2 710.8,139.7 711.0,138.3 711.1,140.2 711.3,139.5 711.5,138.9 711.7,138.3 711.8,138.0 712.0,136.9 712.2,137.0 712.4,135.7 712.6,136.4 712.7,137.2 712.9,137.9 713.1,138.6 713.3,135.8 713.4,136.7 713.6,136.6 713.8,136.4 714.0,136.4 714.2,136.2 714.3,136.2 714.5,137.0 714.7,137.0 714.9,135.9 715.0,135.5 715.2,136.6 715.4,138.0 715.6,137.5 715.7,137.0 715.9,138.1 716.1,139.4 716.3,138.5 716.5,139.6 716.6,138.8 716.8,136.9 717.0,136.2 717.2,136.8 717.3,136.7 717.5,137.8 717.7,137.8 717.9,138.3 718.1,138.0 718.2,138.3 718.4,138.6 718.6,136.7 718.8,136.6 718.9,137.0 719.1,137.1 719.3,136.0 719.5,135.5 719.7,135.6 719.8,135.0 720.0,135.8 720.2,135.8 720.4,136.0 720.5,137.0 720.7,135.6 720.9,136.9 721.1,137.0 721.3,136.1 721.4,140.1 721.6,140.7 721.8,141.8 722.0,140.6 722.1,140.8 722.3,141.8 722.5,141.2 722.7,140.3 722.9,138.4 723.0,138.7 723.2,137.4 723.4,136.5 723.6,135.7 723.7,135.4 723.9,134.2 724.1,134.0 724.3,134.7 724.4,136.2 724.6,136.1 724.8,136.1 725.0,137.4 725.2,139.1 725.3,140.0 725.5,139.5 725.7,139.6 725.9,140.7 726.0,140.2 726.2,142.3 726.4,141.4 726.6,140.6 726.8,143.1 726.9,143.9 727.1,143.3 727.3,142.8 727.5,142.0 727.6,141.7 727.8,142.2 728.0,142.4 728.2,142.0 728.4,142.5 728.5,143.9 728.7,144.2 728.9,143.4 729.1,144.2 729.2,143.5 729.4,143.2 729.6,143.6 729.8,143.0 730.0,142.7 730.1,141.7 730.3,141.5 730.5,140.0 730.7,140.6 730.8,138.6 731.0,139.2 731.2,139.1 731.4,138.4 731.6,139.0 731.7,137.0 731.9,137.2 732.1,137.5 732.3,138.0 732.4,136.4 732.6,137.0 732.8,137.6 733.0,136.1 733.1,137.5 733.3,139.7 733.5,138.0 733.7,136.8 733.9,137.3 734.0,136.5 734.2,136.6 734.4,137.6 734.6,138.6 734.7,137.6 734.9,136.6 735.1,135.1 735.3,136.4 735.5,136.0 735.6,135.8 735.8,135.8 736.0,133.6 736.2,136.4 736.3,137.4 736.5,135.0 736.7,135.4 736.9,134.7 737.1,133.4 737.2,134.0 737.4,133.5 737.6,135.1 737.8,135.8 737.9,135.3 738.1,134.0 738.3,133.2 738.5,132.3 738.7,131.1 738.8,131.5 739.0,131.7 739.2,131.3 739.4,135.0 739.5,137.9 739.7,137.5 739.9,138.4 740.1,136.8 740.3,135.0 740.4,134.3 740.6,134.0 740.8,134.0 741.0,134.3 741.1,135.3 741.3,135.4 741.5,136.3 741.7,135.9 741.8,135.5 742.0,136.1 742.2,134.3 742.4,132.6 742.6,132.8 742.7,131.1 742.9,129.3 743.1,128.7 743.3,128.4 743.4,130.5 743.6,129.3 743.8,132.9 744.0,133.1 744.2,135.6 744.3,133.6 744.5,132.9 744.7,131.7 744.9,131.2 745.0,130.4 745.2,130.4 745.4,129.3 745.6,129.4 745.8,131.2 745.9,130.8 746.1,130.1 746.3,129.5 746.5,130.8 746.6,132.0 746.8,132.3 747.0,132.4 747.2,133.4 747.4,132.9 747.5,132.3 747.7,131.1 747.9,131.3 748.1,131.7 748.2,131.4 748.4,130.6 748.6,131.2 748.8,129.8 749.0,130.1 749.1,129.7 749.3,131.1 749.5,130.2 749.7,128.8 749.8,129.2 750.0,129.4 750.2,129.4 750.4,128.1 750.5,129.0 750.7,129.1 750.9,128.4 751.1,128.2 751.3,127.9 751.4,128.5 751.6,127.5 751.8,127.3 752.0,127.0 752.1,127.8 752.3,126.2 752.5,126.3 752.7,124.7 752.9,124.5 753.0,126.1 753.2,126.6 753.4,126.0 753.6,126.2 753.7,124.1 753.9,123.1 754.1,123.8 754.3,124.0 754.5,123.6 754.6,122.6 754.8,122.4 755.0,123.9 755.2,124.8 755.3,125.4 755.5,124.1 755.7,124.7 755.9,124.6 756.1,122.8 756.2,123.6 756.4,124.5 756.6,123.7 756.8,125.7 756.9,127.2 757.1,128.1 757.3,127.9 757.5,129.2 757.6,128.0 757.8,128.5 758.0,129.0 758.2,128.4 758.4,129.0 758.5,128.3 758.7,127.7 758.9,128.4 759.1,128.5 759.2,128.6 759.4,127.5 759.6,128.4 759.8,128.8 760.0,127.6 760.1,126.5 760.3,125.5 760.5,125.3 760.7,125.4 760.8,124.6 761.0,124.9 761.2,126.0 761.4,126.1 761.6,126.7 761.7,127.6 761.9,126.3 762.1,126.1 762.3,126.3 762.4,125.1 762.6,125.4 762.8,127.1 763.0,126.0 763.2,127.9 763.3,126.7 763.5,127.5 763.7,128.7 763.9,127.4 764.0,127.4 764.2,127.0 764.4,127.1 764.6,127.0 764.8,128.9 764.9,127.6 765.1,124.8 765.3,124.4 765.5,123.3 765.6,123.0 765.8,122.6 766.0,121.4 766.2,120.6 766.3,120.6 766.5,120.1 766.7,120.4 766.9,120.9 767.1,121.0 767.2,120.6 767.4,122.1 767.6,121.8 767.8,122.6 767.9,122.0 768.1,121.2 768.3,120.9 768.5,120.9 768.7,121.8 768.8,122.1 769.0,122.2 769.2,121.9 769.4,122.6 769.5,122.4 769.7,122.5 769.9,123.7 770.1,123.1 770.3,122.5 770.4,124.4 770.6,123.7 770.8,122.7 771.0,123.8 771.1,124.3 771.3,122.8 771.5,121.9 771.7,121.6 771.9,121.5 772.0,121.5 772.2,122.0 772.4,123.1 772.6,124.0 772.7,122.8 772.9,123.4 773.1,121.8 773.3,120.2 773.5,120.1 773.6,119.2 773.8,118.4 774.0,117.8 774.2,117.2 774.3,116.5 774.5,116.9 774.7,116.6 774.9,115.5 775.0,115.7 775.2,117.4 775.4,118.0 775.6,119.0 775.8,118.8 775.9,118.9 776.1,119.2 776.3,117.8 776.5,117.1 776.6,116.0 776.8,116.5 777.0,114.4 777.2,116.3 777.4,117.9 777.5,117.3 777.7,116.0 777.9,113.5 778.1,113.2 778.2,113.0 778.4,112.3 778.6,111.9 778.8,111.2 779.0,111.6 779.1,111.3 779.3,109.4 779.5,110.0 779.7,108.2 779.8,109.2 780.0,110.0 780.2,109.0 780.4,109.5 780.6,113.2 780.7,113.6 780.9,111.9 781.1,112.0 781.3,111.5 781.4,111.2 781.6,112.8 781.8,113.5 782.0,113.6 782.2,114.5 782.3,113.8 782.5,115.5 782.7,114.7 782.9,116.6 783.0,114.0 783.2,114.4 783.4,114.6 783.6,112.0 783.7,110.4 783.9,110.5 784.1,110.1 784.3,110.7 784.5,110.4 784.6,109.3 784.8,109.1 785.0,108.1 785.2,107.0 785.3,109.3 785.5,108.2 785.7,109.5 785.9,110.0 786.1,109.3 786.2,108.4 786.4,109.7 786.6,108.4 786.8,107.9 786.9,109.3 787.1,102.7 787.3,99.9 787.5,98.8 787.7,98.3 787.8,100.0 788.0,97.8 788.2,97.3 788.4,96.2 788.5,93.8 788.7,95.6 788.9,94.6 789.1,93.9 789.3,94.6 789.4,95.1 789.6,97.0 789.8,95.8 790.0,96.5 790.1,97.9 790.3,98.7 790.5,101.2 790.7,109.1 790.9,115.9 791.0,113.3 791.2,113.0 791.4,114.1 791.6,114.6 791.7,111.8 791.9,109.1 792.1,110.4 792.3,110.7 792.4,111.2 792.6,118.8 792.8,122.0 793.0,123.7 793.2,121.6 793.3,121.1 793.5,123.5 793.7,125.0 793.9,125.8 794.0,129.3 794.2,125.7 794.4,124.1 794.6,123.7 794.8,124.9 794.9,120.8 795.1,118.9 795.3,118.1 795.5,118.0 795.6,115.5 795.8,116.1 796.0,115.5"/><polyline fill="none" stroke="#16a34a" stroke-width="3" points="78.0,280.9 78.2,281.9 78.4,283.3 78.5,284.5 78.7,281.9 78.9,280.4 79.1,278.5 79.2,279.0 79.4,281.9 79.6,280.2 79.8,282.6 80.0,280.7 80.1,286.2 80.3,284.8 80.5,287.5 80.7,289.0 80.8,289.6 81.0,289.7 81.2,295.7 81.4,292.8 81.6,294.2 81.7,296.6 81.9,296.7 82.1,296.6 82.3,297.8 82.4,296.3 82.6,295.1 82.8,294.7 83.0,296.6 83.1,294.6 83.3,294.7 83.5,296.1 83.7,296.3 83.9,293.6 84.0,294.4 84.2,296.0 84.4,301.7 84.6,304.9 84.7,304.3 84.9,307.5 85.1,307.7 85.3,306.5 85.5,307.5 85.6,308.2 85.8,307.1 86.0,307.2 86.2,307.5 86.3,308.0 86.5,307.5 86.7,311.7 86.9,312.1 87.1,313.5 87.2,315.0 87.4,315.9 87.6,314.9 87.8,311.9 87.9,311.8 88.1,310.0 88.3,309.8 88.5,310.4 88.7,311.3 88.8,310.8 89.0,311.2 89.2,310.0 89.4,309.4 89.5,309.5 89.7,309.0 89.9,311.1 90.1,312.3 90.3,313.0 90.4,315.7 90.6,315.6 90.8,313.9 91.0,313.1 91.1,315.0 91.3,317.2 91.5,315.7 91.7,316.5 91.8,314.8 92.0,314.8 92.2,315.7 92.4,314.7 92.6,314.0 92.7,309.8 92.9,309.9 93.1,308.4 93.3,308.9 93.4,306.5 93.6,306.7 93.8,304.8 94.0,304.2 94.2,302.2 94.3,302.7 94.5,303.1 94.7,303.3 94.9,303.9 95.0,303.8 95.2,305.2 95.4,303.5 95.6,303.9 95.8,303.8 95.9,301.8 96.1,301.1 96.3,301.0 96.5,301.2 96.6,301.6 96.8,303.4 97.0,302.8 97.2,302.0 97.4,302.6 97.5,301.6 97.7,300.7 97.9,301.3 98.1,301.7 98.2,304.3 98.4,305.5 98.6,305.1 98.8,304.6 99.0,303.8 99.1,302.5 99.3,302.3 99.5,301.0 99.7,301.1 99.8,302.8 100.0,305.1 100.2,306.9 100.4,306.8 100.5,307.0 100.7,307.3 100.9,310.1 101.1,309.9 101.3,309.6 101.4,309.6 101.6,309.9 101.8,308.8 102.0,308.8 102.1,306.7 102.3,307.9 102.5,307.8 102.7,307.3 102.9,304.4 103.0,304.1 103.2,304.4 103.4,304.9 103.6,304.2 103.7,302.7 103.9,303.6 104.1,303.7 104.3,305.0 104.5,304.2 104.6,304.9 104.8,306.2 105.0,306.8 105.2,306.2 105.3,306.5 105.5,307.0 105.7,306.2 105.9,306.3 106.1,306.9 106.2,306.8 106.4,307.0 106.6,306.0 106.8,304.3 106.9,303.6 107.1,302.6 107.3,302.1 107.5,298.8 107.7,294.8 107.8,296.4 108.0,292.1 108.2,296.8 108.4,296.4 108.5,293.6 108.7,294.2 108.9,297.5 109.1,296.2 109.2,293.0 109.4,287.8 109.6,287.4 109.8,292.0 110.0,292.5 110.1,291.1 110.3,291.6 110.5,290.3 110.7,290.2 110.8,290.3 111.0,294.3 111.2,292.0 111.4,291.5 111.6,292.6 111.7,292.2 111.9,291.9 112.1,292.0 112.3,291.0 112.4,289.3 112.6,288.7 112.8,288.0 113.0,288.4 113.2,289.6 113.3,289.5 113.5,288.6 113.7,288.8 113.9,292.7 114.0,292.2 114.2,292.6 114.4,294.3 114.6,294.2 114.8,294.5 114.9,294.5 115.1,294.8 115.3,294.6 115.5,294.1 115.6,293.7 115.8,294.4 116.0,295.1 116.2,294.6 116.4,293.9 116.5,294.7 116.7,294.6 116.9,293.6 117.1,293.2 117.2,294.7 117.4,294.7 117.6,294.8 117.8,296.3 117.9,296.1 118.1,296.1 118.3,294.7 118.5,294.3 118.7,294.1 118.8,293.7 119.0,294.4 119.2,292.4 119.4,291.3 119.5,291.8 119.7,291.2 119.9,290.9 120.1,291.6 120.3,295.2 120.4,297.4 120.6,298.0 120.8,297.5 121.0,296.2 121.1,299.3 121.3,298.4 121.5,298.2 121.7,301.2 121.9,301.8 122.0,303.8 122.2,301.5 122.4,302.1 122.6,301.8 122.7,302.3 122.9,303.7 123.1,304.9 123.3,303.6 123.5,303.7 123.6,302.0 123.8,301.8 124.0,302.6 124.2,302.7 124.3,303.9 124.5,302.6 124.7,301.7 124.9,301.1 125.0,300.7 125.2,300.5 125.4,300.4 125.6,300.0 125.8,300.9 125.9,303.6 126.1,303.1 126.3,303.9 126.5,304.9 126.6,306.1 126.8,306.7 127.0,306.1 127.2,305.1 127.4,304.0 127.5,305.6 127.7,303.6 127.9,303.8 128.1,305.6 128.2,306.0 128.4,306.1 128.6,306.8 128.8,307.9 129.0,306.7 129.1,310.5 129.3,307.0 129.5,310.9 129.7,305.2 129.8,308.7 130.0,303.3 130.2,304.3 130.4,302.4 130.6,303.1 130.7,303.7 130.9,306.7 131.1,305.6 131.3,307.5 131.4,306.1 131.6,303.6 131.8,305.2 132.0,301.3 132.2,299.9 132.3,299.9 132.5,298.7 132.7,300.3 132.9,302.5 133.0,302.0 133.2,296.8 133.4,297.7 133.6,297.4 133.7,295.5 133.9,294.0 134.1,294.0 134.3,295.4 134.5,292.7 134.6,292.8 134.8,293.3 135.0,295.3 135.2,293.6 135.3,294.7 135.5,293.5 135.7,293.1 135.9,295.4 136.1,297.3 136.2,301.1 136.4,302.4 136.6,301.6 136.8,299.0 136.9,300.0 137.1,301.1 137.3,297.9 137.5,296.8 137.7,295.9 137.8,296.5 138.0,297.4 138.2,297.5 138.4,297.2 138.5,298.0 138.7,297.4 138.9,297.7 139.1,296.2 139.3,299.5 139.4,297.1 139.6,296.0 139.8,295.8 140.0,296.0 140.1,298.4 140.3,298.8 140.5,296.8 140.7,293.0 140.9,291.6 141.0,294.0 141.2,295.0 141.4,294.1 141.6,293.4 141.7,294.7 141.9,293.8 142.1,294.6 142.3,296.1 142.4,295.4 142.6,297.2 142.8,296.5 143.0,298.2 143.2,297.2 143.3,295.4 143.5,295.4 143.7,293.4 143.9,293.1 144.0,294.4 144.2,294.3 144.4,295.4 144.6,295.3 144.8,295.4 144.9,294.3 145.1,295.7 145.3,297.2 145.5,298.2 145.6,297.2 145.8,296.2 146.0,296.8 146.2,295.3 146.4,295.3 146.5,297.8 146.7,295.4 146.9,295.6 147.1,296.1 147.2,296.6 147.4,296.5 147.6,296.2 147.8,297.3 148.0,298.0 148.1,298.9 148.3,299.1 148.5,298.8 148.7,298.1 148.8,298.2 149.0,297.0 149.2,297.9 149.4,297.8 149.6,297.1 149.7,297.2 149.9,296.8 150.1,297.2 150.3,297.5 150.4,297.2 150.6,297.3 150.8,297.5 151.0,297.3 151.1,297.0 151.3,295.4 151.5,294.5 151.7,294.3 151.9,293.9 152.0,295.2 152.2,294.7 152.4,290.2 152.6,290.9 152.7,292.2 152.9,292.2 153.1,291.6 153.3,291.8 153.5,292.4 153.6,292.2 153.8,290.6 154.0,291.3 154.2,290.9 154.3,290.6 154.5,291.2 154.7,290.4 154.9,291.1 155.1,291.3 155.2,292.7 155.4,292.4 155.6,291.8 155.8,291.8 155.9,291.1 156.1,291.0 156.3,290.3 156.5,290.0 156.7,290.0 156.8,289.3 157.0,288.4 157.2,287.3 157.4,287.3 157.5,286.0 157.7,285.8 157.9,288.1 158.1,287.7 158.3,288.5 158.4,288.9 158.6,289.7 158.8,289.6 159.0,290.1 159.1,290.8 159.3,291.7 159.5,292.8 159.7,293.1 159.8,292.9 160.0,293.9 160.2,293.9 160.4,293.9 160.6,294.4 160.7,294.6 160.9,294.9 161.1,295.5 161.3,295.5 161.4,294.6 161.6,293.7 161.8,293.5 162.0,294.5 162.2,293.9 162.3,296.0 162.5,295.6 162.7,296.1 162.9,297.6 163.0,297.8 163.2,297.3 163.4,297.8 163.6,297.9 163.8,298.8 163.9,297.8 164.1,298.9 164.3,300.1 164.5,299.0 164.6,298.9 164.8,298.6 165.0,298.2 165.2,297.6 165.4,298.0 165.5,296.9 165.7,298.3 165.9,297.6 166.1,298.1 166.2,297.1 166.4,295.7 166.6,293.6 166.8,293.6 167.0,293.3 167.1,293.4 167.3,292.6 167.5,292.7 167.7,291.5 167.8,291.8 168.0,289.7 168.2,290.4 168.4,290.9 168.5,291.8 168.7,292.5 168.9,292.6 169.1,292.2 169.3,291.8 169.4,290.8 169.6,290.5 169.8,289.9 170.0,289.9 170.1,289.7 170.3,290.4 170.5,290.4 170.7,290.5 170.9,290.7 171.0,290.5 171.2,289.2 171.4,289.2 171.6,289.1 171.7,288.6 171.9,288.9 172.1,289.3 172.3,288.8 172.5,289.6 172.6,288.8 172.8,287.9 173.0,287.8 173.2,288.2 173.3,288.3 173.5,288.6 173.7,289.7 173.9,289.1 174.1,288.1 174.2,286.9 174.4,286.8 174.6,287.1 174.8,287.1 174.9,286.9 175.1,286.8 175.3,287.0 175.5,287.0 175.7,287.3 175.8,287.4 176.0,287.5 176.2,287.7 176.4,287.7 176.5,287.5 176.7,287.6 176.9,287.2 177.1,287.3 177.2,287.7 177.4,288.1 177.6,286.7 177.8,287.4 178.0,287.3 178.1,287.0 178.3,287.5 178.5,287.4 178.7,287.1 178.8,286.6 179.0,285.8 179.2,284.9 179.4,284.4 179.6,283.4 179.7,283.2 179.9,283.3 180.1,283.3 180.3,284.7 180.4,285.7 180.6,284.8 180.8,285.5 181.0,285.1 181.2,285.4 181.3,285.2 181.5,284.8 181.7,284.7 181.9,285.0 182.0,284.9 182.2,285.2 182.4,285.3 182.6,285.8 182.8,285.7 182.9,285.3 183.1,285.0 183.3,285.3 183.5,286.6 183.6,286.7 183.8,287.2 184.0,286.7 184.2,286.4 184.4,286.2 184.5,285.3 184.7,282.3 184.9,283.4 185.1,282.8 185.2,282.4 185.4,283.0 185.6,283.5 185.8,283.8 185.9,283.9 186.1,284.7 186.3,285.5 186.5,285.7 186.7,285.0 186.8,285.3 187.0,285.5 187.2,285.3 187.4,285.1 187.5,285.3 187.7,285.2 187.9,284.3 188.1,284.2 188.3,283.6 188.4,284.2 188.6,284.0 188.8,283.9 189.0,283.2 189.1,283.6 189.3,283.8 189.5,283.8 189.7,283.3 189.9,283.5 190.0,283.9 190.2,283.9 190.4,283.1 190.6,284.8 190.7,281.8 190.9,283.2 191.1,283.9 191.3,284.6 191.5,285.3 191.6,285.2 191.8,285.0 192.0,283.2 192.2,282.2 192.3,280.4 192.5,280.2 192.7,280.4 192.9,279.5 193.1,279.2 193.2,278.9 193.4,278.7 193.6,278.0 193.8,277.4 193.9,277.1 194.1,275.9 194.3,275.6 194.5,275.8 194.6,275.3 194.8,275.3 195.0,275.1 195.2,274.9 195.4,274.8 195.5,274.2 195.7,273.9 195.9,274.0 196.1,273.8 196.2,273.4 196.4,273.2 196.6,272.9 196.8,272.1 197.0,271.7 197.1,271.7 197.3,270.1 197.5,269.6 197.7,269.9 197.8,270.8 198.0,270.8 198.2,270.5 198.4,272.2 198.6,270.2 198.7,269.4 198.9,269.3 199.1,270.4 199.3,269.5 199.4,269.1 199.6,269.5 199.8,269.6 200.0,269.9 200.2,269.4 200.3,269.7 200.5,269.5 200.7,268.4 200.9,268.8 201.0,268.9 201.2,269.2 201.4,268.3 201.6,268.7 201.8,268.3 201.9,267.9 202.1,267.9 202.3,268.0 202.5,267.2 202.6,267.7 202.8,267.3 203.0,268.9 203.2,268.3 203.3,268.3 203.5,268.0 203.7,268.8 203.9,267.2 204.1,266.5 204.2,267.1 204.4,268.8 204.6,267.6 204.8,268.7 204.9,268.8 205.1,267.9 205.3,268.4 205.5,268.2 205.7,268.2 205.8,267.9 206.0,268.0 206.2,267.0 206.4,265.9 206.5,266.4 206.7,266.0 206.9,263.5 207.1,263.1 207.3,262.7 207.4,262.6 207.6,262.9 207.8,262.4 208.0,261.7 208.1,261.0 208.3,261.0 208.5,260.5 208.7,259.6 208.9,259.8 209.0,259.5 209.2,260.7 209.4,260.0 209.6,260.0 209.7,259.6 209.9,259.7 210.1,259.5 210.3,260.5 210.5,259.9 210.6,260.8 210.8,260.9 211.0,259.8 211.2,258.5 211.3,256.6 211.5,257.3 211.7,257.9 211.9,256.5 212.0,255.9 212.2,254.9 212.4,254.5 212.6,255.3 212.8,255.9 212.9,255.9 213.1,253.8 213.3,252.9 213.5,250.9 213.6,248.5 213.8,248.9 214.0,247.7 214.2,248.8 214.4,248.3 214.5,247.6 214.7,247.3 214.9,247.4 215.1,248.2 215.2,247.8 215.4,247.9 215.6,247.3 215.8,246.6 216.0,245.7 216.1,244.9 216.3,245.6 216.5,244.3 216.7,245.1 216.8,244.0 217.0,244.7 217.2,244.3 217.4,244.3 217.6,243.9 217.7,243.4 217.9,242.3 218.1,242.2 218.3,245.5 218.4,247.3 218.6,247.5 218.8,246.1 219.0,245.4 219.1,244.9 219.3,244.2 219.5,245.0 219.7,246.8 219.9,246.9 220.0,247.4 220.2,246.7 220.4,246.9 220.6,245.3 220.7,245.8 220.9,245.8 221.1,249.2 221.3,248.3 221.5,248.0 221.6,250.1 221.8,251.6 222.0,251.3 222.2,251.2 222.3,251.3 222.5,250.6 222.7,250.1 222.9,249.2 223.1,249.8 223.2,249.7 223.4,251.3 223.6,251.1 223.8,250.8 223.9,250.5 224.1,251.1 224.3,251.4 224.5,251.4 224.7,251.6 224.8,250.9 225.0,251.0 225.2,251.3 225.4,248.7 225.5,250.6 225.7,250.0 225.9,249.6 226.1,250.3 226.3,250.9 226.4,250.9 226.6,248.5 226.8,248.2 227.0,247.1 227.1,247.9 227.3,246.8 227.5,246.5 227.7,244.3 227.8,244.2 228.0,243.1 228.2,242.5 228.4,243.1 228.6,242.5 228.7,244.1 228.9,243.7 229.1,244.6 229.3,246.0 229.4,245.1 229.6,244.0 229.8,243.4 230.0,242.7 230.2,244.5 230.3,241.8 230.5,241.4 230.7,243.2 230.9,242.5 231.0,242.7 231.2,241.1 231.4,241.8 231.6,241.5 231.8,239.1 231.9,237.4 232.1,236.8 232.3,237.9 232.5,238.5 232.6,239.2 232.8,239.8 233.0,238.8 233.2,241.3 233.4,241.5 233.5,242.4 233.7,241.1 233.9,241.4 234.1,241.1 234.2,242.1 234.4,240.7 234.6,240.6 234.8,239.4 235.0,239.7 235.1,239.6 235.3,240.3 235.5,239.7 235.7,238.6 235.8,238.6 236.0,239.0 236.2,239.3 236.4,239.9 236.5,239.6 236.7,241.0 236.9,240.0 237.1,241.1 237.3,241.5 237.4,242.5 237.6,242.9 237.8,242.8 238.0,244.9 238.1,242.9 238.3,242.8 238.5,244.0 238.7,242.7 238.9,242.7 239.0,241.4 239.2,241.4 239.4,242.5 239.6,244.1 239.7,242.2 239.9,243.0 240.1,240.4 240.3,239.5 240.5,243.9 240.6,241.0 240.8,241.4 241.0,240.0 241.2,237.4 241.3,236.1 241.5,235.5 241.7,233.7 241.9,232.9 242.1,233.4 242.2,233.1 242.4,234.7 242.6,235.6 242.8,236.3 242.9,236.2 243.1,236.8 243.3,236.7 243.5,236.4 243.7,236.3 243.8,234.4 244.0,232.7 244.2,231.8 244.4,231.6 244.5,231.8 244.7,232.9 244.9,233.4 245.1,232.6 245.2,231.9 245.4,230.1 245.6,230.0 245.8,232.0 246.0,233.2 246.1,232.6 246.3,233.5 246.5,232.7 246.7,232.2 246.8,233.4 247.0,232.9 247.2,233.9 247.4,232.7 247.6,233.1 247.7,234.6 247.9,235.3 248.1,236.7 248.3,239.7 248.4,240.6 248.6,238.7 248.8,240.6 249.0,241.1 249.2,241.6 249.3,241.6 249.5,240.0 249.7,238.9 249.9,239.2 250.0,238.1 250.2,238.3 250.4,237.9 250.6,238.6 250.8,238.5 250.9,237.9 251.1,237.2 251.3,237.1 251.5,238.1 251.6,237.3 251.8,239.3 252.0,240.6 252.2,240.8 252.4,241.0 252.5,239.9 252.7,240.9 252.9,242.0 253.1,243.7 253.2,244.3 253.4,244.1 253.6,245.0 253.8,243.8 253.9,243.3 254.1,242.5 254.3,241.0 254.5,241.0 254.7,241.1 254.8,240.9 255.0,241.6 255.2,245.0 255.4,245.4 255.5,244.8 255.7,244.1 255.9,244.1 256.1,245.8 256.3,245.0 256.4,243.2 256.6,241.7 256.8,241.6 257.0,240.0 257.1,241.5 257.3,242.8 257.5,243.7 257.7,243.2 257.9,244.5 258.0,244.0 258.2,243.6 258.4,243.4 258.6,243.2 258.7,243.6 258.9,244.5 259.1,244.4 259.3,244.7 259.5,246.2 259.6,245.7 259.8,247.0 260.0,246.9 260.2,245.7 260.3,246.4 260.5,247.2 260.7,244.9 260.9,243.6 261.1,242.6 261.2,245.0 261.4,244.4 261.6,244.0 261.8,243.8 261.9,243.2 262.1,244.0 262.3,243.4 262.5,244.4 262.6,242.4 262.8,243.2 263.0,242.5 263.2,241.8 263.4,241.7 263.5,240.9 263.7,240.9 263.9,241.4 264.1,241.2 264.2,241.3 264.4,240.3 264.6,239.3 264.8,239.7 265.0,240.4 265.1,240.4 265.3,240.4 265.5,237.4 265.7,236.2 265.8,237.4 266.0,237.2 266.2,237.1 266.4,236.6 266.6,237.1 266.7,237.3 266.9,236.7 267.1,235.8 267.3,236.1 267.4,235.2 267.6,235.0 267.8,234.6 268.0,234.7 268.2,234.7 268.3,233.9 268.5,233.2 268.7,234.2 268.9,235.0 269.0,235.5 269.2,235.8 269.4,236.4 269.6,236.0 269.8,236.5 269.9,236.4 270.1,236.6 270.3,235.3 270.5,235.1 270.6,235.1 270.8,235.9 271.0,233.8 271.2,233.1 271.3,233.5 271.5,234.7 271.7,233.5 271.9,232.3 272.1,233.5 272.2,235.3 272.4,232.8 272.6,232.6 272.8,232.5 272.9,231.6 273.1,230.8 273.3,230.8 273.5,230.5 273.7,229.9 273.8,229.7 274.0,229.0 274.2,227.0 274.4,224.9 274.5,225.7 274.7,225.9 274.9,225.2 275.1,225.2 275.3,224.6 275.4,226.3 275.6,226.5 275.8,226.6 276.0,227.4 276.1,228.1 276.3,227.8 276.5,228.3 276.7,228.4 276.9,228.4 277.0,228.1 277.2,227.6 277.4,227.5 277.6,227.2 277.7,226.7 277.9,226.9 278.1,226.6 278.3,226.4 278.5,225.3 278.6,224.7 278.8,223.4 279.0,222.9 279.2,224.4 279.3,224.6 279.5,224.6 279.7,223.9 279.9,221.8 280.0,222.2 280.2,221.5 280.4,221.5 280.6,221.7 280.8,222.1 280.9,221.7 281.1,222.2 281.3,223.1 281.5,223.1 281.6,220.7 281.8,219.9 282.0,218.6 282.2,219.4 282.4,220.0 282.5,219.8 282.7,220.7 282.9,221.1 283.1,221.1 283.2,219.4 283.4,220.1 283.6,222.5 283.8,220.1 284.0,220.1 284.1,219.5 284.3,220.3 284.5,220.8 284.7,220.4 284.8,221.8 285.0,222.4 285.2,222.5 285.4,221.8 285.6,221.0 285.7,224.2 285.9,225.7 286.1,225.3 286.3,224.8 286.4,224.6 286.6,223.6 286.8,224.1 287.0,224.6 287.2,224.9 287.3,224.1 287.5,223.6 287.7,224.0 287.9,224.7 288.0,226.0 288.2,227.0 288.4,227.8 288.6,228.4 288.7,229.0 288.9,228.4 289.1,227.2 289.3,226.5 289.5,226.3 289.6,226.2 289.8,227.5 290.0,227.8 290.2,227.1 290.3,227.3 290.5,228.7 290.7,227.3 290.9,227.7 291.1,227.8 291.2,229.4 291.4,230.9 291.6,230.1 291.8,230.4 291.9,229.4 292.1,230.5 292.3,231.4 292.5,232.4 292.7,232.2 292.8,231.5 293.0,231.6 293.2,230.8 293.4,230.7 293.5,230.7 293.7,229.5 293.9,229.2 294.1,229.0 294.3,229.7 294.4,230.2 294.6,230.6 294.8,230.6 295.0,230.2 295.1,230.7 295.3,231.7 295.5,230.9 295.7,231.2 295.9,232.0 296.0,233.1 296.2,233.1 296.4,233.1 296.6,232.7 296.7,231.3 296.9,230.7 297.1,229.6 297.3,228.7 297.4,228.6 297.6,227.9 297.8,228.8 298.0,229.3 298.2,229.1 298.3,229.5 298.5,229.6 298.7,228.2 298.9,228.6 299.0,228.9 299.2,228.9 299.4,228.7 299.6,229.3 299.8,230.3 299.9,230.2 300.1,230.1 300.3,230.6 300.5,230.2 300.6,230.0 300.8,229.4 301.0,228.7 301.2,229.0 301.4,227.5 301.5,227.8 301.7,227.8 301.9,228.6 302.1,228.9 302.2,228.9 302.4,229.6 302.6,230.6 302.8,230.0 303.0,230.4 303.1,230.7 303.3,230.5 303.5,228.8 303.7,227.5 303.8,226.3 304.0,226.5 304.2,226.4 304.4,225.7 304.5,224.5 304.7,226.3 304.9,225.8 305.1,225.0 305.3,224.8 305.4,224.4 305.6,224.8 305.8,225.3 306.0,224.2 306.1,225.0 306.3,224.4 306.5,225.8 306.7,226.4 306.9,225.7 307.0,224.7 307.2,224.3 307.4,223.8 307.6,223.6 307.7,223.0 307.9,223.2 308.1,222.6 308.3,221.9 308.5,222.6 308.6,222.7 308.8,222.5 309.0,221.3 309.2,221.4 309.3,221.6 309.5,222.1 309.7,223.0 309.9,225.0 310.1,226.3 310.2,226.1 310.4,223.4 310.6,222.6 310.8,222.0 310.9,222.7 311.1,223.6 311.3,221.8 311.5,221.8 311.7,222.1 311.8,221.0 312.0,221.1 312.2,219.9 312.4,219.2 312.5,219.3 312.7,219.2 312.9,218.8 313.1,220.2 313.2,220.8 313.4,219.9 313.6,220.2 313.8,219.1 314.0,219.0 314.1,218.7 314.3,219.6 314.5,219.4 314.7,217.9 314.8,217.7 315.0,217.6 315.2,218.9 315.4,219.6 315.6,220.2 315.7,219.4 315.9,219.8 316.1,219.3 316.3,220.1 316.4,219.4 316.6,218.8 316.8,220.1 317.0,219.5 317.2,219.4 317.3,220.2 317.5,219.0 317.7,218.0 317.9,217.6 318.0,216.9 318.2,216.0 318.4,215.6 318.6,218.0 318.8,216.5 318.9,216.0 319.1,217.0 319.3,216.4 319.5,216.0 319.6,215.5 319.8,214.6 320.0,213.9 320.2,215.2 320.4,215.1 320.5,214.6 320.7,214.0 320.9,213.1 321.1,212.7 321.2,212.5 321.4,212.9 321.6,213.2 321.8,212.6 321.9,212.0 322.1,212.2 322.3,214.2 322.5,214.5 322.7,216.5 322.8,215.0 323.0,215.2 323.2,218.6 323.4,221.0 323.5,220.7 323.7,219.7 323.9,217.9 324.1,217.3 324.3,218.9 324.4,220.1 324.6,220.7 324.8,219.8 325.0,219.4 325.1,220.5 325.3,219.6 325.5,219.6 325.7,219.0 325.9,219.3 326.0,220.2 326.2,221.3 326.4,222.4 326.6,223.2 326.7,222.7 326.9,223.1 327.1,222.2 327.3,221.7 327.5,222.9 327.6,222.2 327.8,221.5 328.0,221.5 328.2,221.9 328.3,223.4 328.5,220.4 328.7,222.1 328.9,221.4 329.1,221.0 329.2,220.7 329.4,218.2 329.6,218.8 329.8,219.3 329.9,220.9 330.1,224.2 330.3,225.4 330.5,226.4 330.6,224.0 330.8,223.9 331.0,223.4 331.2,223.3 331.4,223.6 331.5,224.0 331.7,224.0 331.9,222.8 332.1,223.4 332.2,222.4 332.4,221.4 332.6,222.3 332.8,222.6 333.0,223.1 333.1,222.1 333.3,222.3 333.5,221.3 333.7,221.0 333.8,222.0 334.0,219.2 334.2,219.6 334.4,219.7 334.6,219.7 334.7,218.8 334.9,218.0 335.1,218.5 335.3,218.8 335.4,220.0 335.6,220.2 335.8,220.2 336.0,219.3 336.2,220.2 336.3,219.8 336.5,219.4 336.7,219.6 336.9,219.4 337.0,217.6 337.2,218.4 337.4,219.3 337.6,219.3 337.8,219.8 337.9,220.9 338.1,220.8 338.3,220.9 338.5,220.3 338.6,220.6 338.8,220.4 339.0,220.1 339.2,219.3 339.3,218.9 339.5,219.7 339.7,219.2 339.9,219.7 340.1,219.2 340.2,219.8 340.4,221.0 340.6,223.5 340.8,222.1 340.9,222.9 341.1,222.6 341.3,222.6 341.5,222.1 341.7,222.0 341.8,221.2 342.0,221.9 342.2,220.6 342.4,221.5 342.5,221.5 342.7,222.5 342.9,222.5 343.1,221.9 343.3,221.3 343.4,221.7 343.6,220.7 343.8,220.8 344.0,221.4 344.1,221.1 344.3,221.4 344.5,221.7 344.7,222.1 344.9,222.0 345.0,222.2 345.2,222.7 345.4,221.9 345.6,221.6 345.7,220.2 345.9,220.0 346.1,219.3 346.3,220.2 346.5,219.8 346.6,221.3 346.8,221.7 347.0,221.7 347.2,221.0 347.3,219.9 347.5,219.8 347.7,221.3 347.9,220.8 348.0,218.7 348.2,217.6 348.4,218.5 348.6,216.7 348.8,217.3 348.9,217.3 349.1,216.5 349.3,216.0 349.5,215.7 349.6,216.3 349.8,215.6 350.0,215.4 350.2,215.8 350.4,215.3 350.5,216.1 350.7,216.6 350.9,216.2 351.1,215.6 351.2,215.8 351.4,215.1 351.6,215.7 351.8,215.2 352.0,215.6 352.1,215.5 352.3,215.2 352.5,215.2 352.7,215.2 352.8,215.4 353.0,215.7 353.2,215.7 353.4,217.0 353.6,217.1 353.7,215.9 353.9,216.9 354.1,215.8 354.3,215.3 354.4,215.8 354.6,215.6 354.8,215.8 355.0,215.2 355.2,215.4 355.3,215.0 355.5,214.9 355.7,214.8 355.9,215.0 356.0,214.7 356.2,215.2 356.4,215.2 356.6,215.1 356.7,215.2 356.9,215.8 357.1,214.2 357.3,215.4 357.5,216.1 357.6,215.6 357.8,214.7 358.0,214.2 358.2,214.0 358.3,213.8 358.5,214.2 358.7,213.2 358.9,217.4 359.1,217.0 359.2,217.7 359.4,218.9 359.6,219.4 359.8,218.4 359.9,217.1 360.1,216.4 360.3,216.3 360.5,215.9 360.7,217.0 360.8,216.8 361.0,217.1 361.2,218.2 361.4,218.0 361.5,219.8 361.7,219.2 361.9,219.4 362.1,220.7 362.3,220.5 362.4,220.1 362.6,220.5 362.8,221.0 363.0,222.7 363.1,221.4 363.3,221.4 363.5,221.5 363.7,221.8 363.9,221.7 364.0,221.2 364.2,220.8 364.4,220.9 364.6,217.9 364.7,216.2 364.9,215.8 365.1,214.9 365.3,215.2 365.4,215.1 365.6,214.8 365.8,215.0 366.0,215.3 366.2,215.5 366.3,215.8 366.5,215.3 366.7,215.1 366.9,214.9 367.0,214.5 367.2,213.8 367.4,211.0 367.6,210.4 367.8,209.4 367.9,208.1 368.1,207.6 368.3,206.2 368.5,206.2 368.6,206.3 368.8,206.6 369.0,207.4 369.2,207.2 369.4,207.5 369.5,208.0 369.7,208.8 369.9,209.3 370.1,209.6 370.2,209.2 370.4,209.7 370.6,209.3 370.8,209.1 371.0,210.0 371.1,207.0 371.3,207.8 371.5,207.4 371.7,208.4 371.8,209.3 372.0,209.0 372.2,209.1 372.4,207.9 372.6,208.2 372.7,207.6 372.9,207.2 373.1,206.3 373.3,206.9 373.4,206.1 373.6,205.0 373.8,204.9 374.0,205.1 374.1,205.0 374.3,203.3 374.5,204.5 374.7,205.0 374.9,204.8 375.0,205.1 375.2,203.7 375.4,205.9 375.6,204.8 375.7,205.2 375.9,203.8 376.1,203.3 376.3,202.8 376.5,202.6 376.6,202.1 376.8,202.4 377.0,202.4 377.2,202.7 377.3,203.2 377.5,204.0 377.7,204.9 377.9,203.4 378.1,204.4 378.2,204.4 378.4,204.7 378.6,204.7 378.8,204.3 378.9,204.1 379.1,203.1 379.3,202.5 379.5,202.3 379.7,202.5 379.8,202.3 380.0,202.2 380.2,202.2 380.4,203.1 380.5,203.0 380.7,202.9 380.9,203.3 381.1,203.5 381.3,203.5 381.4,203.5 381.6,202.7 381.8,201.7 382.0,202.1 382.1,201.9 382.3,202.3 382.5,202.4 382.7,201.7 382.8,201.6 383.0,202.1 383.2,201.2 383.4,201.5 383.6,200.7 383.7,200.9 383.9,200.6 384.1,199.9 384.3,199.9 384.4,199.1 384.6,198.8 384.8,199.3 385.0,200.4 385.2,200.4 385.3,200.2 385.5,199.9 385.7,199.8 385.9,199.9 386.0,199.2 386.2,200.6 386.4,198.0 386.6,198.2 386.8,198.6 386.9,198.9 387.1,198.0 387.3,199.0 387.5,198.8 387.6,198.6 387.8,198.0 388.0,198.0 388.2,197.4 388.4,197.1 388.5,196.9 388.7,196.6 388.9,196.5 389.1,196.6 389.2,196.2 389.4,196.2 389.6,196.1 389.8,196.2 390.0,194.4 390.1,194.3 390.3,193.6 390.5,193.6 390.7,193.5 390.8,193.4 391.0,193.8 391.2,194.6 391.4,193.7 391.5,194.3 391.7,194.4 391.9,194.6 392.1,194.5 392.3,193.7 392.4,193.4 392.6,192.9 392.8,192.5 393.0,192.2 393.1,191.8 393.3,190.8 393.5,191.6 393.7,190.9 393.9,191.1 394.0,191.0 394.2,191.8 394.4,191.3 394.6,191.7 394.7,191.7 394.9,190.8 395.1,190.9 395.3,190.7 395.5,190.1 395.6,190.2 395.8,190.5 396.0,190.0 396.2,190.6 396.3,190.5 396.5,189.6 396.7,189.1 396.9,189.4 397.1,189.2 397.2,190.5 397.4,189.5 397.6,188.9 397.8,187.8 397.9,187.9 398.1,188.2 398.3,187.6 398.5,187.2 398.6,187.0 398.8,187.5 399.0,188.2 399.2,187.5 399.4,186.0 399.5,186.5 399.7,186.5 399.9,185.4 400.1,185.2 400.2,185.0 400.4,184.9 400.6,184.4 400.8,184.3 401.0,183.4 401.1,182.2 401.3,182.3 401.5,181.5 401.7,181.8 401.8,181.5 402.0,181.0 402.2,180.7 402.4,181.5 402.6,180.9 402.7,181.0 402.9,180.3 403.1,180.4 403.3,180.1 403.4,180.3 403.6,181.5 403.8,180.1 404.0,179.6 404.2,179.4 404.3,179.0 404.5,178.4 404.7,178.2 404.9,178.8 405.0,179.0 405.2,178.3 405.4,178.8 405.6,178.3 405.8,177.7 405.9,177.4 406.1,177.9 406.3,178.0 406.5,178.0 406.6,178.5 406.8,177.7 407.0,177.2 407.2,177.5 407.3,177.9 407.5,176.7 407.7,176.4 407.9,176.4 408.1,175.6 408.2,175.9 408.4,173.9 408.6,174.3 408.8,174.7 408.9,175.3 409.1,175.3 409.3,174.9 409.5,174.6 409.7,173.8 409.8,173.2 410.0,173.9 410.2,173.6 410.4,173.3 410.5,171.5 410.7,171.2 410.9,171.4 411.1,170.9 411.3,170.7 411.4,169.3 411.6,170.4 411.8,168.6 412.0,168.1 412.1,168.8 412.3,168.4 412.5,168.7 412.7,168.2 412.9,167.5 413.0,166.8 413.2,166.1 413.4,166.9 413.6,167.0 413.7,166.8 413.9,167.2 414.1,167.9 414.3,168.2 414.5,167.9 414.6,168.0 414.8,168.3 415.0,167.8 415.2,167.8 415.3,167.9 415.5,169.1 415.7,168.6 415.9,168.3 416.0,166.1 416.2,164.9 416.4,164.2 416.6,163.3 416.8,163.4 416.9,163.8 417.1,164.2 417.3,163.8 417.5,162.9 417.6,162.4 417.8,162.0 418.0,161.8 418.2,161.4 418.4,160.5 418.5,160.6 418.7,161.7 418.9,162.7 419.1,162.1 419.2,160.8 419.4,161.9 419.6,164.3 419.8,172.8 420.0,174.4 420.1,176.7 420.3,179.6 420.5,177.1 420.7,176.0 420.8,174.1 421.0,172.5 421.2,176.5 421.4,177.0 421.6,176.6 421.7,177.6 421.9,178.4 422.1,176.6 422.3,177.4 422.4,176.1 422.6,176.4 422.8,173.9 423.0,173.7 423.2,171.8 423.3,171.4 423.5,170.7 423.7,167.8 423.9,168.2 424.0,170.7 424.2,171.1 424.4,171.5 424.6,171.1 424.7,171.6 424.9,170.7 425.1,172.4 425.3,175.5 425.5,176.2 425.6,174.2 425.8,175.9 426.0,176.0 426.2,174.5 426.3,175.6 426.5,176.7 426.7,176.5 426.9,176.2 427.1,177.8 427.2,177.3 427.4,177.2 427.6,178.4 427.8,177.6 427.9,178.5 428.1,178.2 428.3,177.3 428.5,177.8 428.7,177.4 428.8,177.2 429.0,178.8 429.2,180.5 429.4,180.0 429.5,179.6 429.7,180.1 429.9,179.6 430.1,179.3 430.3,179.6 430.4,180.6 430.6,182.8 430.8,182.3 431.0,182.9 431.1,181.7 431.3,180.6 431.5,179.6 431.7,178.7 431.9,178.7 432.0,178.4 432.2,178.5 432.4,179.8 432.6,179.9 432.7,181.4 432.9,181.8 433.1,182.6 433.3,182.4 433.4,183.2 433.6,185.5 433.8,186.4 434.0,185.7 434.2,186.0 434.3,185.0 434.5,184.2 434.7,182.3 434.9,181.5 435.0,180.8 435.2,180.3 435.4,181.1 435.6,181.6 435.8,182.3 435.9,181.8 436.1,180.6 436.3,181.3 436.5,181.5 436.6,180.7 436.8,181.4 437.0,180.2 437.2,181.5 437.4,181.6 437.5,181.4 437.7,181.7 437.9,182.6 438.1,182.3 438.2,183.9 438.4,182.1 438.6,182.3 438.8,182.9 439.0,182.1 439.1,182.3 439.3,181.7 439.5,180.8 439.7,180.0 439.8,180.9 440.0,181.0 440.2,181.3 440.4,181.4 440.6,180.5 440.7,181.5 440.9,182.8 441.1,187.1 441.3,186.7 441.4,187.4 441.6,187.8 441.8,188.8 442.0,190.1 442.1,189.6 442.3,190.3 442.5,190.8 442.7,190.5 442.9,190.3 443.0,189.7 443.2,188.7 443.4,188.4 443.6,187.8 443.7,185.4 443.9,186.2 444.1,185.2 444.3,184.4 444.5,182.5 444.6,183.6 444.8,184.3 445.0,183.9 445.2,183.8 445.3,183.6 445.5,181.2 445.7,181.7 445.9,182.0 446.1,181.0 446.2,181.7 446.4,181.2 446.6,181.6 446.8,181.2 446.9,181.1 447.1,180.7 447.3,179.6 447.5,179.1 447.7,178.9 447.8,178.9 448.0,180.3 448.2,182.7 448.4,185.1 448.5,186.0 448.7,187.4 448.9,186.6 449.1,186.9 449.3,187.7 449.4,187.9 449.6,186.4 449.8,184.3 450.0,183.2 450.1,182.8 450.3,183.6 450.5,184.2 450.7,184.8 450.8,182.1 451.0,182.2 451.2,181.8 451.4,180.6 451.6,180.9 451.7,179.2 451.9,179.9 452.1,179.3 452.3,179.1 452.4,177.7 452.6,175.5 452.8,174.9 453.0,176.6 453.2,175.3 453.3,175.4 453.5,175.2 453.7,176.0 453.9,177.0 454.0,177.7 454.2,178.6 454.4,177.3 454.6,177.2 454.8,177.1 454.9,176.8 455.1,176.3 455.3,176.9 455.5,178.3 455.6,178.8 455.8,178.8 456.0,178.4 456.2,179.6 456.4,178.9 456.5,178.4 456.7,180.2 456.9,181.1 457.1,181.3 457.2,180.8 457.4,179.9 457.6,181.5 457.8,180.6 458.0,181.9 458.1,183.3 458.3,183.8 458.5,184.7 458.7,185.5 458.8,186.6 459.0,187.1 459.2,191.1 459.4,188.7 459.5,187.5 459.7,187.0 459.9,185.7 460.1,187.3 460.3,187.5 460.4,185.3 460.6,186.7 460.8,189.2 461.0,189.8 461.1,190.8 461.3,191.0 461.5,190.3 461.7,189.9 461.9,189.7 462.0,189.2 462.2,187.9 462.4,186.2 462.6,185.4 462.7,187.1 462.9,187.2 463.1,186.6 463.3,187.6 463.5,189.2 463.6,189.4 463.8,188.8 464.0,189.0 464.2,187.9 464.3,188.0 464.5,188.0 464.7,188.3 464.9,188.7 465.1,188.8 465.2,188.0 465.4,189.9 465.6,189.2 465.8,188.7 465.9,187.9 466.1,188.1 466.3,186.7 466.5,187.7 466.7,188.1 466.8,188.7 467.0,187.0 467.2,186.8 467.4,185.7 467.5,186.2 467.7,187.9 467.9,189.6 468.1,189.9 468.2,188.1 468.4,187.2 468.6,187.1 468.8,187.5 469.0,186.1 469.1,187.1 469.3,187.3 469.5,188.0 469.7,188.0 469.8,187.4 470.0,187.5 470.2,187.9 470.4,188.3 470.6,188.4 470.7,187.4 470.9,186.3 471.1,186.5 471.3,187.2 471.4,187.1 471.6,187.1 471.8,187.3 472.0,187.8 472.2,186.8 472.3,187.0 472.5,186.8 472.7,185.6 472.9,184.6 473.0,183.2 473.2,182.8 473.4,183.0 473.6,182.9 473.8,182.7 473.9,182.5 474.1,182.6 474.3,183.0 474.5,182.6 474.6,183.0 474.8,183.9 475.0,183.0 475.2,181.4 475.4,182.4 475.5,181.8 475.7,181.1 475.9,181.2 476.1,181.4 476.2,180.0 476.4,180.8 476.6,179.8 476.8,179.4 476.9,178.1 477.1,178.3 477.3,178.0 477.5,179.1 477.7,178.6 477.8,179.7 478.0,178.4 478.2,178.6 478.4,177.2 478.5,176.8 478.7,176.2 478.9,175.6 479.1,175.5 479.3,175.3 479.4,175.4 479.6,177.6 479.8,177.8 480.0,178.2 480.1,177.8 480.3,178.6 480.5,178.8 480.7,178.9 480.9,178.3 481.0,178.7 481.2,178.1 481.4,178.0 481.6,179.2 481.7,179.0 481.9,180.8 482.1,178.6 482.3,177.3 482.5,176.2 482.6,175.9 482.8,175.8 483.0,175.5 483.2,175.0 483.3,174.1 483.5,173.4 483.7,173.4 483.9,173.4 484.0,173.3 484.2,173.1 484.4,172.8 484.6,173.1 484.8,172.9 484.9,175.1 485.1,175.4 485.3,175.4 485.5,175.9 485.6,175.8 485.8,176.7 486.0,172.7 486.2,171.8 486.4,172.9 486.5,170.5 486.7,170.8 486.9,170.2 487.1,170.1 487.2,169.9 487.4,169.0 487.6,169.9 487.8,168.3 488.0,168.6 488.1,169.3 488.3,169.8 488.5,170.0 488.7,169.6 488.8,169.6 489.0,169.0 489.2,169.5 489.4,169.5 489.6,169.9 489.7,169.8 489.9,169.8 490.1,169.8 490.3,169.8 490.4,170.1 490.6,170.1 490.8,172.4 491.0,172.5 491.2,172.5 491.3,175.2 491.5,175.3 491.7,173.6 491.9,172.1 492.0,171.6 492.2,172.2 492.4,171.9 492.6,170.4 492.7,170.6 492.9,170.7 493.1,172.2 493.3,172.6 493.5,172.2 493.6,174.0 493.8,171.8 494.0,171.7 494.2,170.4 494.3,171.6 494.5,171.1 494.7,171.2 494.9,172.1 495.1,172.4 495.2,172.5 495.4,172.2 495.6,171.6 495.8,171.4 495.9,172.4 496.1,172.8 496.3,173.2 496.5,172.1 496.7,173.1 496.8,173.7 497.0,173.3 497.2,171.4 497.4,172.4 497.5,172.6 497.7,173.5 497.9,172.4 498.1,172.9 498.3,172.3 498.4,172.6 498.6,172.5 498.8,172.0 499.0,170.9 499.1,170.9 499.3,169.6 499.5,169.0 499.7,167.7 499.9,167.2 500.0,167.3 500.2,166.9 500.4,166.9 500.6,169.3 500.7,170.0 500.9,169.7 501.1,169.5 501.3,169.0 501.4,168.9 501.6,169.1 501.8,168.6 502.0,169.2 502.2,171.9 502.3,171.8 502.5,172.0 502.7,172.0 502.9,170.9 503.0,171.2 503.2,171.4 503.4,170.6 503.6,169.7 503.8,170.1 503.9,169.7 504.1,169.6 504.3,169.8 504.5,169.5 504.6,169.0 504.8,169.3 505.0,168.2 505.2,168.9 505.4,170.2 505.5,171.0 505.7,171.6 505.9,171.7 506.1,172.2 506.2,172.0 506.4,171.1 506.6,170.6 506.8,171.3 507.0,170.7 507.1,169.9 507.3,169.3 507.5,169.1 507.7,169.2 507.8,168.3 508.0,168.1 508.2,167.0 508.4,167.0 508.6,166.6 508.7,167.5 508.9,166.6 509.1,164.1 509.3,167.4 509.4,166.7 509.6,166.9 509.8,166.8 510.0,166.3 510.1,165.5 510.3,166.8 510.5,168.7 510.7,167.2 510.9,167.4 511.0,167.8 511.2,167.7 511.4,166.6 511.6,168.2 511.7,172.7 511.9,170.0 512.1,170.6 512.3,169.7 512.5,171.4 512.6,170.9 512.8,174.3 513.0,174.9 513.2,178.1 513.3,188.1 513.5,187.0 513.7,197.5 513.9,192.2 514.1,204.2 514.2,197.3 514.4,200.4 514.6,203.5 514.8,201.9 514.9,200.1 515.1,190.3 515.3,190.2 515.5,188.4 515.7,191.6 515.8,192.6 516.0,189.0 516.2,191.3 516.4,186.9 516.5,188.0 516.7,186.2 516.9,188.1 517.1,188.2 517.3,182.5 517.4,184.3 517.6,184.5 517.8,181.3 518.0,180.6 518.1,182.6 518.3,182.7 518.5,183.6 518.7,185.6 518.8,185.1 519.0,184.0 519.2,183.4 519.4,183.3 519.6,187.6 519.7,187.3 519.9,183.7 520.1,184.8 520.3,183.3 520.4,182.7 520.6,182.9 520.8,184.5 521.0,184.4 521.2,183.4 521.3,182.9 521.5,180.7 521.7,183.7 521.9,182.5 522.0,184.4 522.2,183.4 522.4,181.8 522.6,180.8 522.8,180.6 522.9,177.7 523.1,178.8 523.3,180.5 523.5,179.6 523.6,181.8 523.8,184.3 524.0,180.0 524.2,180.3 524.4,181.5 524.5,184.9 524.7,182.7 524.9,181.7 525.1,181.5 525.2,181.8 525.4,182.4 525.6,183.6 525.8,182.5 526.0,185.9 526.1,187.6 526.3,186.5 526.5,189.4 526.7,188.3 526.8,187.9 527.0,185.4 527.2,186.5 527.4,186.5 527.5,187.6 527.7,188.2 527.9,190.5 528.1,189.4 528.3,189.4 528.4,190.2 528.6,187.3 528.8,188.3 529.0,188.5 529.1,187.9 529.3,188.1 529.5,189.3 529.7,189.7 529.9,191.2 530.0,193.0 530.2,192.9 530.4,191.5 530.6,193.4 530.7,192.7 530.9,193.9 531.1,194.6 531.3,193.6 531.5,195.1 531.6,192.4 531.8,194.6 532.0,191.7 532.2,193.5 532.3,194.0 532.5,192.2 532.7,190.9 532.9,190.6 533.1,191.6 533.2,191.0 533.4,189.3 533.6,188.4 533.8,190.2 533.9,189.7 534.1,188.3 534.3,188.9 534.5,188.8 534.7,190.3 534.8,191.7 535.0,190.5 535.2,189.5 535.4,190.6 535.5,190.4 535.7,192.9 535.9,191.4 536.1,190.4 536.2,190.7 536.4,189.9 536.6,191.3 536.8,189.6 537.0,190.4 537.1,190.5 537.3,191.2 537.5,191.0 537.7,190.6 537.8,191.2 538.0,193.1 538.2,192.3 538.4,191.6 538.6,192.5 538.7,192.2 538.9,193.1 539.1,194.9 539.3,194.7 539.4,194.4 539.6,195.2 539.8,195.5 540.0,195.2 540.2,195.9 540.3,195.8 540.5,197.6 540.7,197.8 540.9,199.4 541.0,198.7 541.2,197.8 541.4,198.8 541.6,198.2 541.8,200.9 541.9,200.2 542.1,198.2 542.3,196.3 542.5,193.2 542.6,193.0 542.8,196.6 543.0,195.1 543.2,192.8 543.4,193.8 543.5,192.0 543.7,193.7 543.9,192.4 544.1,191.9 544.2,193.2 544.4,191.5 544.6,190.4 544.8,190.4 544.9,188.2 545.1,188.6 545.3,188.8 545.5,188.6 545.7,188.9 545.8,187.1 546.0,186.9 546.2,187.3 546.4,187.3 546.5,187.0 546.7,188.9 546.9,191.0 547.1,192.7 547.3,193.5 547.4,191.5 547.6,189.3 547.8,189.6 548.0,190.4 548.1,189.3 548.3,189.8 548.5,189.4 548.7,189.1 548.9,188.3 549.0,187.2 549.2,188.6 549.4,187.8 549.6,187.4 549.7,187.8 549.9,187.9 550.1,185.5 550.3,184.4 550.5,182.8 550.6,182.0 550.8,181.1 551.0,183.9 551.2,185.2 551.3,184.5 551.5,183.9 551.7,183.8 551.9,185.0 552.1,185.7 552.2,185.4 552.4,185.2 552.6,188.7 552.8,187.9 552.9,188.5 553.1,185.9 553.3,183.8 553.5,185.6 553.6,185.7 553.8,190.4 554.0,188.3 554.2,188.2 554.4,189.8 554.5,191.7 554.7,190.5 554.9,184.4 555.1,185.0 555.2,182.2 555.4,184.9 555.6,184.9 555.8,183.8 556.0,181.6 556.1,181.6 556.3,182.4 556.5,181.3 556.7,183.4 556.8,184.7 557.0,182.9 557.2,178.1 557.4,177.5 557.6,178.7 557.7,178.9 557.9,179.5 558.1,178.3 558.3,177.9 558.4,179.1 558.6,178.7 558.8,179.7 559.0,180.0 559.2,180.8 559.3,180.3 559.5,179.2 559.7,182.4 559.9,183.3 560.0,182.2 560.2,183.7 560.4,182.6 560.6,180.9 560.8,180.4 560.9,181.7 561.1,181.4 561.3,182.0 561.5,181.5 561.6,180.5 561.8,180.8 562.0,180.1 562.2,178.9 562.3,178.0 562.5,178.8 562.7,178.3 562.9,177.8 563.1,178.3 563.2,178.3 563.4,177.8 563.6,178.5 563.8,179.5 563.9,179.0 564.1,178.3 564.3,176.5 564.5,175.7 564.7,174.5 564.8,176.2 565.0,175.5 565.2,173.8 565.4,174.5 565.5,173.4 565.7,171.7 565.9,171.6 566.1,172.4 566.3,174.3 566.4,173.1 566.6,173.0 566.8,173.2 567.0,174.2 567.1,174.4 567.3,173.9 567.5,173.7 567.7,173.0 567.9,173.5 568.0,171.9 568.2,172.4 568.4,172.6 568.6,172.5 568.7,172.2 568.9,171.1 569.1,171.5 569.3,171.2 569.5,170.6 569.6,170.8 569.8,169.6 570.0,168.9 570.2,171.5 570.3,168.5 570.5,167.2 570.7,168.0 570.9,166.5 571.0,166.1 571.2,167.6 571.4,167.2 571.6,167.8 571.8,168.2 571.9,168.5 572.1,168.9 572.3,169.0 572.5,169.6 572.6,168.0 572.8,168.3 573.0,169.6 573.2,169.7 573.4,169.1 573.5,169.4 573.7,170.1 573.9,170.1 574.1,168.3 574.2,169.1 574.4,167.1 574.6,168.5 574.8,170.1 575.0,169.3 575.1,169.8 575.3,168.2 575.5,166.8 575.7,165.6 575.8,165.0 576.0,166.6 576.2,165.4 576.4,166.5 576.6,165.7 576.7,164.1 576.9,162.9 577.1,162.8 577.3,163.6 577.4,164.6 577.6,165.5 577.8,162.4 578.0,161.2 578.1,163.2 578.3,163.7 578.5,163.7 578.7,164.0 578.9,163.8 579.0,164.4 579.2,163.0 579.4,162.3 579.6,162.0 579.7,163.0 579.9,164.7 580.1,163.8 580.3,164.2 580.5,163.0 580.6,164.1 580.8,164.2 581.0,164.5 581.2,164.5 581.3,164.6 581.5,165.8 581.7,164.4 581.9,164.4 582.1,164.5 582.2,163.2 582.4,164.6 582.6,165.2 582.8,163.6 582.9,164.5 583.1,164.7 583.3,164.7 583.5,166.4 583.7,165.8 583.8,163.7 584.0,162.9 584.2,163.7 584.4,163.6 584.5,163.8 584.7,162.8 584.9,163.4 585.1,162.4 585.3,163.2 585.4,162.5 585.6,162.5 585.8,161.1 586.0,161.1 586.1,160.0 586.3,160.6 586.5,160.0 586.7,159.6 586.8,158.6 587.0,157.8 587.2,158.0 587.4,159.2 587.6,158.8 587.7,158.5 587.9,160.0 588.1,162.0 588.3,161.2 588.4,160.1 588.6,160.1 588.8,159.5 589.0,161.0 589.2,161.0 589.3,161.0 589.5,162.6 589.7,161.3 589.9,160.1 590.0,161.4 590.2,160.6 590.4,161.1 590.6,162.2 590.8,160.6 590.9,161.0 591.1,159.7 591.3,159.9 591.5,159.6 591.6,161.0 591.8,159.2 592.0,160.0 592.2,161.4 592.4,160.5 592.5,159.2 592.7,161.5 592.9,162.9 593.1,162.9 593.2,160.9 593.4,161.0 593.6,160.6 593.8,160.3 594.0,161.0 594.1,160.9 594.3,160.2 594.5,161.4 594.7,163.0 594.8,163.8 595.0,163.2 595.2,164.0 595.4,164.9 595.5,162.9 595.7,163.7 595.9,166.4 596.1,167.8 596.3,167.1 596.4,166.4 596.6,166.4 596.8,167.8 597.0,167.8 597.1,169.5 597.3,170.0 597.5,170.1 597.7,169.0 597.9,167.6 598.0,167.3 598.2,166.6 598.4,168.8 598.6,166.4 598.7,166.6 598.9,165.0 599.1,165.8 599.3,165.9 599.5,166.4 599.6,166.2 599.8,165.5 600.0,165.8 600.2,167.6 600.3,167.4 600.5,168.9 600.7,170.2 600.9,168.4 601.1,168.0 601.2,168.1 601.4,168.1 601.6,167.2 601.8,168.0 601.9,166.0 602.1,168.6 602.3,170.5 602.5,169.5 602.7,170.2 602.8,170.3 603.0,170.4 603.2,170.0 603.4,169.4 603.5,167.8 603.7,168.4 603.9,168.9 604.1,166.6 604.2,169.4 604.4,170.5 604.6,169.8 604.8,171.0 605.0,169.7 605.1,169.8 605.3,170.0 605.5,168.3 605.7,171.0 605.8,170.8 606.0,169.6 606.2,167.6 606.4,168.7 606.6,168.4 606.7,167.7 606.9,166.6 607.1,168.0 607.3,168.7 607.4,167.7 607.6,167.5 607.8,169.6 608.0,170.2 608.2,169.4 608.3,171.9 608.5,169.3 608.7,169.4 608.9,170.9 609.0,171.6 609.2,171.4 609.4,169.8 609.6,172.1 609.8,172.1 609.9,175.0 610.1,174.3 610.3,174.1 610.5,175.1 610.6,173.4 610.8,173.5 611.0,174.1 611.2,176.7 611.4,176.2 611.5,175.2 611.7,174.7 611.9,175.2 612.1,174.6 612.2,173.4 612.4,171.4 612.6,171.1 612.8,171.0 612.9,168.9 613.1,169.9 613.3,169.3 613.5,170.2 613.7,170.3 613.8,170.2 614.0,172.8 614.2,173.7 614.4,174.4 614.5,172.9 614.7,173.5 614.9,173.3 615.1,172.9 615.3,173.1 615.4,171.0 615.6,169.3 615.8,169.6 616.0,169.9 616.1,170.0 616.3,170.5 616.5,169.5 616.7,167.6 616.9,167.4 617.0,166.5 617.2,166.9 617.4,165.1 617.6,165.9 617.7,167.2 617.9,167.3 618.1,166.6 618.3,167.1 618.5,164.8 618.6,164.8 618.8,163.4 619.0,163.6 619.2,163.0 619.3,162.8 619.5,162.7 619.7,162.4 619.9,163.8 620.1,168.2 620.2,167.5 620.4,167.4 620.6,166.6 620.8,165.7 620.9,166.7 621.1,166.8 621.3,167.0 621.5,167.6 621.6,166.2 621.8,166.4 622.0,166.0 622.2,163.7 622.4,162.0 622.5,163.6 622.7,163.8 622.9,164.7 623.1,164.4 623.2,163.9 623.4,165.7 623.6,165.8 623.8,167.1 624.0,167.0 624.1,164.8 624.3,165.8 624.5,164.7 624.7,163.3 624.8,163.0 625.0,163.1 625.2,163.3 625.4,165.0 625.6,164.7 625.7,166.2 625.9,165.3 626.1,165.2 626.3,166.0 626.4,166.9 626.6,167.2 626.8,168.2 627.0,168.0 627.2,167.6 627.3,166.7 627.5,167.1 627.7,167.3 627.9,166.8 628.0,165.7 628.2,165.8 628.4,164.6 628.6,166.3 628.8,166.5 628.9,166.9 629.1,166.8 629.3,165.6 629.5,168.2 629.6,165.5 629.8,164.4 630.0,165.8 630.2,166.3 630.3,165.7 630.5,164.3 630.7,162.9 630.9,163.1 631.1,163.1 631.2,162.2 631.4,162.8 631.6,161.0 631.8,161.8 631.9,162.5 632.1,160.5 632.3,161.1 632.5,162.0 632.7,163.6 632.8,165.0 633.0,168.9 633.2,166.5 633.4,164.0 633.5,164.0 633.7,163.3 633.9,164.7 634.1,163.1 634.3,162.3 634.4,162.6 634.6,162.0 634.8,162.7 635.0,163.3 635.1,161.0 635.3,161.1 635.5,160.1 635.7,160.8 635.9,160.1 636.0,160.0 636.2,161.1 636.4,162.6 636.6,161.7 636.7,163.4 636.9,164.3 637.1,162.7 637.3,162.8 637.5,163.3 637.6,163.3 637.8,161.4 638.0,162.6 638.2,161.4 638.3,161.3 638.5,161.5 638.7,160.8 638.9,161.9 639.0,161.4 639.2,162.5 639.4,162.9 639.6,163.1 639.8,163.9 639.9,163.7 640.1,163.1 640.3,162.9 640.5,162.5 640.6,163.0 640.8,163.7 641.0,163.9 641.2,163.9 641.4,163.4 641.5,164.3 641.7,163.8 641.9,163.2 642.1,164.0 642.2,163.6 642.4,163.5 642.6,163.4 642.8,164.8 643.0,162.6 643.1,161.4 643.3,160.7 643.5,161.0 643.7,161.8 643.8,161.4 644.0,160.0 644.2,161.2 644.4,160.0 644.6,161.1 644.7,159.7 644.9,160.1 645.1,160.2 645.3,159.9 645.4,159.3 645.6,160.3 645.8,161.2 646.0,160.8 646.2,161.1 646.3,161.0 646.5,161.7 646.7,162.8 646.9,163.0 647.0,164.3 647.2,165.9 647.4,163.6 647.6,162.1 647.7,163.6 647.9,162.5 648.1,161.5 648.3,161.5 648.5,159.8 648.6,160.6 648.8,160.5 649.0,159.3 649.2,158.0 649.3,157.8 649.5,157.3 649.7,157.5 649.9,156.4 650.1,156.2 650.2,155.8 650.4,155.6 650.6,155.4 650.8,157.0 650.9,156.5 651.1,156.2 651.3,155.8 651.5,154.9 651.7,154.5 651.8,154.7 652.0,154.2 652.2,153.8 652.4,153.4 652.5,153.3 652.7,153.6 652.9,154.4 653.1,154.1 653.3,153.3 653.4,154.1 653.6,153.8 653.8,154.1 654.0,154.8 654.1,155.0 654.3,155.1 654.5,155.3 654.7,154.0 654.9,153.7 655.0,153.8 655.2,153.7 655.4,154.2 655.6,155.0 655.7,154.7 655.9,153.7 656.1,153.5 656.3,155.6 656.4,155.6 656.6,156.6 656.8,156.6 657.0,157.2 657.2,157.1 657.3,156.4 657.5,155.5 657.7,155.6 657.9,157.5 658.0,156.8 658.2,155.3 658.4,153.7 658.6,155.4 658.8,155.2 658.9,153.5 659.1,153.9 659.3,154.3 659.5,154.6 659.6,154.8 659.8,154.3 660.0,155.5 660.2,156.4 660.4,156.2 660.5,155.9 660.7,155.2 660.9,153.9 661.1,154.3 661.2,153.9 661.4,154.6 661.6,155.2 661.8,155.1 662.0,154.2 662.1,154.8 662.3,152.6 662.5,151.9 662.7,152.3 662.8,152.7 663.0,152.7 663.2,151.6 663.4,150.9 663.5,151.6 663.7,151.2 663.9,150.8 664.1,152.0 664.3,152.6 664.4,153.0 664.6,152.9 664.8,152.9 665.0,152.8 665.1,149.8 665.3,149.4 665.5,149.6 665.7,149.5 665.9,148.4 666.0,147.4 666.2,148.3 666.4,147.9 666.6,147.5 666.7,147.6 666.9,147.5 667.1,147.2 667.3,147.6 667.5,147.5 667.6,148.1 667.8,146.9 668.0,146.7 668.2,147.4 668.3,147.3 668.5,147.4 668.7,147.0 668.9,147.7 669.1,147.2 669.2,145.4 669.4,145.7 669.6,144.9 669.8,145.6 669.9,146.4 670.1,146.9 670.3,147.6 670.5,146.4 670.7,144.3 670.8,144.6 671.0,144.5 671.2,143.7 671.4,144.5 671.5,144.2 671.7,144.8 671.9,144.0 672.1,144.1 672.2,143.8 672.4,143.6 672.6,142.3 672.8,142.1 673.0,141.5 673.1,140.9 673.3,141.5 673.5,141.5 673.7,141.8 673.8,141.3 674.0,140.7 674.2,140.5 674.4,140.5 674.6,140.9 674.7,141.3 674.9,141.7 675.1,141.2 675.3,141.1 675.4,140.4 675.6,141.6 675.8,140.6 676.0,140.4 676.2,139.6 676.3,140.9 676.5,137.8 676.7,135.7 676.9,136.3 677.0,135.8 677.2,134.7 677.4,135.3 677.6,133.8 677.8,134.3 677.9,134.5 678.1,134.1 678.3,134.6 678.5,134.5 678.6,134.5 678.8,133.1 679.0,133.1 679.2,133.0 679.4,132.8 679.5,133.1 679.7,132.0 679.9,132.8 680.1,132.2 680.2,132.1 680.4,133.9 680.6,134.1 680.8,133.5 680.9,133.8 681.1,133.6 681.3,133.6 681.5,136.3 681.7,135.1 681.8,135.1 682.0,134.2 682.2,135.5 682.4,134.6 682.5,134.9 682.7,135.7 682.9,134.8 683.1,133.9 683.3,133.5 683.4,133.7 683.6,135.2 683.8,135.7 684.0,135.9 684.1,134.5 684.3,134.9 684.5,134.8 684.7,133.9 684.9,132.6 685.0,131.4 685.2,129.9 685.4,130.0 685.6,130.7 685.7,130.5 685.9,129.2 686.1,129.2 686.3,129.3 686.5,130.2 686.6,131.4 686.8,131.5 687.0,131.3 687.2,130.9 687.3,131.7 687.5,132.2 687.7,132.7 687.9,131.0 688.1,131.2 688.2,131.4 688.4,131.0 688.6,130.7 688.8,130.9 688.9,130.4 689.1,130.1 689.3,128.1 689.5,128.8 689.6,126.5 689.8,125.9 690.0,126.1 690.2,126.8 690.4,126.2 690.5,127.7 690.7,129.8 690.9,128.8 691.1,128.4 691.2,129.5 691.4,131.1 691.6,129.9 691.8,131.1 692.0,132.0 692.1,131.2 692.3,132.2 692.5,131.2 692.7,131.1 692.8,131.2 693.0,131.3 693.2,130.9 693.4,132.3 693.6,132.9 693.7,133.5 693.9,132.6 694.1,131.1 694.3,131.9 694.4,131.6 694.6,133.2 694.8,132.0 695.0,132.3 695.2,131.7 695.3,133.1 695.5,132.7 695.7,133.8 695.9,133.3 696.0,133.8 696.2,134.1 696.4,134.0 696.6,133.8 696.8,132.3 696.9,132.7 697.1,133.2 697.3,133.0 697.5,132.0 697.6,133.4 697.8,132.5 698.0,132.2 698.2,132.8 698.3,135.3 698.5,132.8 698.7,131.5 698.9,130.9 699.1,130.4 699.2,131.5 699.4,132.3 699.6,131.8 699.8,132.4 699.9,133.7 700.1,132.0 700.3,131.2 700.5,131.6 700.7,131.1 700.8,131.0 701.0,132.5 701.2,131.6 701.4,133.2 701.5,134.2 701.7,135.0 701.9,135.5 702.1,134.6 702.3,134.3 702.4,134.8 702.6,135.1 702.8,135.7 703.0,136.2 703.1,135.3 703.3,137.1 703.5,137.5 703.7,138.0 703.9,136.8 704.0,137.1 704.2,135.8 704.4,134.2 704.6,136.3 704.7,137.4 704.9,136.9 705.1,136.8 705.3,136.8 705.5,136.0 705.6,136.2 705.8,136.5 706.0,137.0 706.2,137.4 706.3,137.5 706.5,137.2 706.7,137.0 706.9,137.1 707.0,135.7 707.2,135.6 707.4,132.4 707.6,130.8 707.8,130.5 707.9,129.9 708.1,131.1 708.3,130.3 708.5,129.5 708.6,129.7 708.8,130.1 709.0,129.5 709.2,131.0 709.4,130.0 709.5,126.8 709.7,125.8 709.9,125.4 710.1,123.5 710.2,122.7 710.4,124.0 710.6,122.9 710.8,123.5 711.0,122.1 711.1,124.0 711.3,123.2 711.5,122.6 711.7,122.0 711.8,121.7 712.0,120.6 712.2,120.7 712.4,119.4 712.6,120.1 712.7,120.9 712.9,121.6 713.1,122.0 713.3,119.3 713.4,120.2 713.6,120.1 713.8,119.9 714.0,119.8 714.2,119.7 714.3,119.7 714.5,120.4 714.7,120.5 714.9,119.4 715.0,119.0 715.2,120.1 715.4,121.5 715.6,121.0 715.7,120.5 715.9,121.5 716.1,122.9 716.3,122.0 716.5,123.1 716.6,122.2 716.8,120.4 717.0,119.7 717.2,120.3 717.3,120.2 717.5,121.3 717.7,121.2 717.9,121.8 718.1,121.5 718.2,121.8 718.4,122.0 718.6,120.1 718.8,120.1 718.9,120.5 719.1,120.6 719.3,119.4 719.5,119.0 719.7,119.0 719.8,118.5 720.0,119.3 720.2,119.3 720.4,119.5 720.5,120.5 720.7,119.0 720.9,120.3 721.1,120.5 721.3,119.5 721.4,123.6 721.6,124.2 721.8,125.3 722.0,124.1 722.1,124.3 722.3,125.3 722.5,124.7 722.7,123.8 722.9,121.9 723.0,122.2 723.2,120.9 723.4,120.0 723.6,119.1 723.7,118.8 723.9,117.7 724.1,117.5 724.3,118.0 724.4,119.4 724.6,119.3 724.8,119.4 725.0,120.6 725.2,122.3 725.3,123.3 725.5,122.7 725.7,122.9 725.9,123.9 726.0,123.5 726.2,125.6 726.4,124.6 726.6,123.8 726.8,126.3 726.9,127.2 727.1,126.6 727.3,126.1 727.5,125.2 727.6,124.9 727.8,125.5 728.0,125.7 728.2,125.3 728.4,125.7 728.5,127.1 728.7,127.5 728.9,126.6 729.1,127.4 729.2,126.7 729.4,126.5 729.6,126.9 729.8,126.3 730.0,125.9 730.1,125.0 730.3,124.8 730.5,123.3 730.7,123.8 730.8,121.8 731.0,122.5 731.2,122.3 731.4,121.6 731.6,122.2 731.7,120.3 731.9,120.4 732.1,120.7 732.3,121.2 732.4,119.7 732.6,120.2 732.8,120.8 733.0,119.4 733.1,120.8 733.3,123.0 733.5,121.2 733.7,120.0 733.9,120.5 734.0,119.8 734.2,119.8 734.4,120.8 734.6,121.8 734.7,120.8 734.9,119.6 735.1,118.1 735.3,119.4 735.5,119.0 735.6,118.8 735.8,118.8 736.0,116.6 736.2,119.5 736.3,120.4 736.5,118.0 736.7,118.4 736.9,117.7 737.1,116.4 737.2,117.1 737.4,116.5 737.6,118.1 737.8,118.8 737.9,118.3 738.1,117.0 738.3,116.2 738.5,115.4 738.7,114.1 738.8,114.5 739.0,114.7 739.2,114.3 739.4,118.0 739.5,120.9 739.7,120.6 739.9,121.4 740.1,119.9 740.3,118.0 740.4,117.3 740.6,117.0 740.8,117.0 741.0,117.3 741.1,118.3 741.3,118.4 741.5,119.4 741.7,118.9 741.8,118.6 742.0,119.1 742.2,117.3 742.4,115.7 742.6,115.9 742.7,114.1 742.9,112.3 743.1,111.8 743.3,111.5 743.4,113.5 743.6,112.3 743.8,115.9 744.0,116.2 744.2,118.6 744.3,116.6 744.5,116.0 744.7,114.8 744.9,114.2 745.0,113.5 745.2,113.4 745.4,112.3 745.6,112.4 745.8,114.2 745.9,113.8 746.1,112.9 746.3,112.3 746.5,113.6 746.6,114.8 746.8,115.1 747.0,115.2 747.2,116.2 747.4,115.7 747.5,115.1 747.7,113.9 747.9,114.1 748.1,114.5 748.2,114.2 748.4,113.5 748.6,114.0 748.8,112.6 749.0,112.9 749.1,112.5 749.3,113.9 749.5,113.0 749.7,111.6 749.8,112.0 750.0,112.2 750.2,112.2 750.4,110.9 750.5,111.8 750.7,112.0 750.9,111.2 751.1,111.0 751.3,110.7 751.4,111.3 751.6,110.3 751.8,110.1 752.0,109.8 752.1,110.6 752.3,109.0 752.5,109.1 752.7,107.5 752.9,107.3 753.0,108.9 753.2,109.4 753.4,108.8 753.6,109.0 753.7,106.9 753.9,105.9 754.1,106.6 754.3,106.8 754.5,106.4 754.6,105.4 754.8,105.2 755.0,106.7 755.2,107.6 755.3,108.2 755.5,106.9 755.7,107.5 755.9,107.4 756.1,105.6 756.2,106.4 756.4,107.3 756.6,106.5 756.8,108.5 756.9,110.0 757.1,110.9 757.3,110.7 757.5,112.0 757.6,110.9 757.8,111.3 758.0,111.8 758.2,111.2 758.4,111.8 758.5,111.1 758.7,110.5 758.9,111.2 759.1,111.3 759.2,111.4 759.4,110.3 759.6,111.2 759.8,111.6 760.0,110.5 760.1,109.3 760.3,108.3 760.5,108.1 760.7,108.2 760.8,107.4 761.0,107.7 761.2,108.9 761.4,108.9 761.6,109.5 761.7,110.4 761.9,109.1 762.1,109.0 762.3,109.1 762.4,107.9 762.6,108.2 762.8,109.9 763.0,108.8 763.2,110.7 763.3,109.5 763.5,110.3 763.7,111.5 763.9,110.2 764.0,110.2 764.2,109.8 764.4,109.9 764.6,109.8 764.8,111.8 764.9,110.4 765.1,107.6 765.3,107.2 765.5,106.1 765.6,105.8 765.8,105.4 766.0,104.2 766.2,103.4 766.3,103.4 766.5,102.9 766.7,103.2 766.9,103.7 767.1,103.8 767.2,103.4 767.4,104.9 767.6,104.6 767.8,105.4 767.9,104.8 768.1,104.0 768.3,103.7 768.5,103.7 768.7,104.6 768.8,104.9 769.0,105.0 769.2,104.7 769.4,105.4 769.5,105.2 769.7,105.3 769.9,106.5 770.1,105.9 770.3,105.3 770.4,107.2 770.6,106.5 770.8,105.5 771.0,106.6 771.1,107.1 771.3,105.6 771.5,104.8 771.7,104.4 771.9,104.3 772.0,104.3 772.2,104.8 772.4,105.9 772.6,106.8 772.7,105.6 772.9,106.2 773.1,104.6 773.3,103.0 773.5,102.9 773.6,102.0 773.8,101.2 774.0,100.6 774.2,100.0 774.3,99.3 774.5,99.7 774.7,99.4 774.9,98.3 775.0,98.5 775.2,100.2 775.4,100.8 775.6,101.8 775.8,101.6 775.9,101.7 776.1,102.0 776.3,100.6 776.5,99.9 776.6,98.8 776.8,99.3 777.0,97.2 777.2,99.1 777.4,100.7 777.5,100.1 777.7,98.8 777.9,96.3 778.1,96.0 778.2,95.8 778.4,95.1 778.6,94.7 778.8,94.0 779.0,94.4 779.1,94.1 779.3,92.0 779.5,92.6 779.7,90.8 779.8,91.8 780.0,92.6 780.2,91.6 780.4,92.2 780.6,95.8 780.7,96.2 780.9,94.5 781.1,94.6 781.3,94.1 781.4,93.8 781.6,95.4 781.8,96.1 782.0,96.2 782.2,97.1 782.3,96.4 782.5,98.1 782.7,97.3 782.9,99.2 783.0,96.6 783.2,97.0 783.4,97.2 783.6,94.6 783.7,93.0 783.9,93.1 784.1,92.7 784.3,93.3 784.5,93.0 784.6,91.9 784.8,91.8 785.0,90.7 785.2,89.6 785.3,92.0 785.5,90.8 785.7,92.1 785.9,92.6 786.1,91.9 786.2,91.0 786.4,92.4 786.6,91.0 786.8,90.5 786.9,91.9 787.1,85.3 787.3,82.5 787.5,81.4 787.7,80.9 787.8,82.6 788.0,80.4 788.2,80.0 788.4,78.8 788.5,76.5 788.7,78.2 788.9,77.2 789.1,76.6 789.3,77.3 789.4,77.7 789.6,79.6 789.8,78.5 790.0,79.1 790.1,80.6 790.3,81.3 790.5,83.6 790.7,91.5 790.9,98.3 791.0,95.7 791.2,95.5 791.4,96.6 791.6,97.0 791.7,94.2 791.9,91.5 792.1,92.9 792.3,93.1 792.4,93.6 792.6,101.3 792.8,104.4 793.0,106.1 793.2,104.0 793.3,103.6 793.5,106.0 793.7,107.4 793.9,108.3 794.0,111.8 794.2,108.2 794.4,106.6 794.6,106.2 794.8,107.4 794.9,103.2 795.1,101.4 795.3,100.5 795.5,100.5 795.6,97.9 795.8,98.5 796.0,97.9"/>
<text x="78" y="392" font-size="11" fill="#16a34a">Total return +970.6%</text><text x="268" y="392" font-size="11" fill="#2563eb">Price-only +752.9%</text><text x="78" y="362" font-size="11" text-anchor="middle" fill="#64748b">2010-06</text><text x="258" y="362" font-size="11" text-anchor="middle" fill="#64748b">2014-06</text><text x="437" y="362" font-size="11" text-anchor="middle" fill="#64748b">2018-06</text><text x="616" y="362" font-size="11" text-anchor="middle" fill="#64748b">2022-07</text><text x="796" y="362" font-size="11" text-anchor="middle" fill="#64748b">2026-07</text></svg>