<svg xmlns="http://www.w3.org/2000/svg" width="720" height="360" viewBox="0 0 720 360">
  <rect width="720" height="360" fill="#fafafa"/>
  <text x="56" y="22" font-size="13" font-family="sans-serif" fill="#222">CBOE total return (rebased 100) · cumulative distributions $0.00/sh · market cap n/a</text>
  <line x1="56" y1="308" x2="696" y2="308" stroke="#ccc"/>
  <line x1="56" y1="48" x2="56" y2="308" stroke="#ccc"/>
  <polyline fill="none" stroke="#2563eb" stroke-width="2" points="56.0,281.2 59.3,285.5 62.7,289.6 66.0,290.1 69.3,287.3 72.7,287.5 76.0,288.2 79.3,288.1 82.7,283.4 86.0,283.8 89.3,285.3 92.7,285.7 96.0,286.9 99.3,288.0 102.7,286.5 106.0,287.0 109.3,285.8 112.7,285.3 116.0,286.0 119.3,286.2 122.7,284.8 126.0,284.2 129.3,285.6 132.7,286.5 136.0,284.7 139.3,284.1 142.7,284.2 146.0,283.5 149.3,283.4 152.7,283.1 156.0,283.4 159.3,280.3 162.7,278.8 166.0,278.1 169.3,277.7 172.7,275.8 176.0,271.2 179.3,268.7 182.7,271.7 186.0,272.2 189.3,269.9 192.7,267.1 196.0,267.4 199.3,267.3 202.7,265.9 206.0,264.0 209.3,266.4 212.7,268.3 216.0,269.3 219.3,269.8 222.7,266.6 226.0,266.2 229.3,262.4 232.7,261.7 236.0,259.2 239.3,258.4 242.7,261.6 246.0,263.5 249.3,264.3 252.7,262.7 256.0,263.6 259.3,260.2 262.7,259.3 266.0,256.5 269.3,256.6 272.7,252.9 276.0,258.1 279.3,256.9 282.7,259.8 286.0,257.8 289.3,260.2 292.7,259.0 296.0,256.9 299.3,255.3 302.7,255.4 306.0,258.1 309.3,259.3 312.7,255.2 316.0,251.7 319.3,247.6 322.7,248.7 326.0,246.5 329.3,245.6 332.7,242.7 336.0,239.1 339.3,236.9 342.7,232.4 346.0,227.5 349.3,223.6 352.7,216.2 356.0,215.4 359.3,208.4 362.7,224.4 366.0,222.9 369.3,228.1 372.7,234.7 376.0,230.1 379.3,235.0 382.7,232.4 386.0,235.9 389.3,223.8 392.7,227.5 396.0,234.5 399.3,237.8 402.7,235.9 406.0,236.3 409.3,231.8 412.7,226.9 416.0,230.4 419.3,226.3 422.7,219.3 426.0,222.3 429.3,222.2 432.7,219.5 436.0,218.7 439.3,216.4 442.7,223.0 446.0,240.7 449.3,233.4 452.7,228.4 456.0,237.8 459.3,241.8 462.7,238.9 466.0,241.8 469.3,246.4 472.7,239.2 476.0,237.9 479.3,238.9 482.7,233.7 486.0,233.9 489.3,229.9 492.7,224.9 496.0,219.4 499.3,219.8 502.7,214.3 506.0,215.9 509.3,210.1 512.7,212.3 516.0,211.2 519.3,219.7 522.7,220.6 526.0,222.7 529.3,223.7 532.7,224.2 536.0,223.6 539.3,216.3 542.7,220.1 546.0,220.6 549.3,215.5 552.7,213.8 556.0,214.8 559.3,216.6 562.7,214.3 566.0,208.5 569.3,204.6 572.7,209.8 576.0,205.8 579.3,204.6 582.7,197.4 586.0,192.8 589.3,187.3 592.7,174.2 596.0,176.8 599.3,173.0 602.7,167.2 606.0,173.1 609.3,174.9 612.7,180.8 616.0,182.9 619.3,173.3 622.7,157.6 626.0,158.0 629.3,151.8 632.7,150.1 636.0,164.8 639.3,158.4 642.7,153.7 646.0,142.7 649.3,145.9 652.7,140.6 656.0,137.7 659.3,132.1 662.7,135.7 666.0,129.1 669.3,128.8 672.7,119.9 676.0,125.0 679.3,114.9 682.7,90.1 686.0,103.5 689.3,89.9 692.7,65.9 696.0,88.6"/>
  <polyline fill="none" stroke="#16a34a" stroke-width="2" points="56.0,281.2 59.3,285.5 62.7,289.6 66.0,290.1 69.3,287.3 72.7,287.5 76.0,288.2 79.3,288.1 82.7,283.4 86.0,283.8 89.3,285.3 92.7,285.7 96.0,286.9 99.3,288.0 102.7,286.5 106.0,287.0 109.3,285.8 112.7,285.3 116.0,286.0 119.3,286.2 122.7,284.8 126.0,284.2 129.3,285.6 132.7,286.5 136.0,284.7 139.3,284.1 142.7,284.2 146.0,283.5 149.3,283.4 152.7,283.1 156.0,283.4 159.3,280.3 162.7,278.8 166.0,278.1 169.3,277.7 172.7,275.8 176.0,271.2 179.3,268.7 182.7,271.7 186.0,272.2 189.3,269.9 192.7,267.1 196.0,267.4 199.3,267.3 202.7,265.9 206.0,264.0 209.3,266.4 212.7,268.3 216.0,269.3 219.3,269.8 222.7,266.6 226.0,266.2 229.3,262.4 232.7,261.7 236.0,259.2 239.3,258.4 242.7,261.6 246.0,263.5 249.3,264.3 252.7,262.7 256.0,263.6 259.3,260.2 262.7,259.3 266.0,256.5 269.3,256.6 272.7,252.9 276.0,258.1 279.3,256.9 282.7,259.8 286.0,257.8 289.3,260.2 292.7,259.0 296.0,256.9 299.3,255.3 302.7,255.4 306.0,258.1 309.3,259.3 312.7,255.2 316.0,251.7 319.3,247.6 322.7,248.7 326.0,246.5 329.3,245.6 332.7,242.7 336.0,239.1 339.3,236.9 342.7,232.4 346.0,227.5 349.3,223.6 352.7,216.2 356.0,215.4 359.3,208.4 362.7,224.4 366.0,222.9 369.3,228.1 372.7,234.7 376.0,230.1 379.3,235.0 382.7,232.4 386.0,235.9 389.3,223.8 392.7,227.5 396.0,234.5 399.3,237.8 402.7,235.9 406.0,236.3 409.3,231.8 412.7,226.9 416.0,230.4 419.3,226.3 422.7,219.3 426.0,222.3 429.3,222.2 432.7,219.5 436.0,218.7 439.3,216.4 442.7,223.0 446.0,240.7 449.3,233.4 452.7,228.4 456.0,237.8 459.3,241.8 462.7,238.9 466.0,241.8 469.3,246.4 472.7,239.2 476.0,237.9 479.3,238.9 482.7,233.7 486.0,233.9 489.3,229.9 492.7,224.9 496.0,219.4 499.3,219.8 502.7,214.3 506.0,215.9 509.3,210.1 512.7,212.3 516.0,211.2 519.3,219.7 522.7,220.6 526.0,222.7 529.3,223.7 532.7,224.2 536.0,223.6 539.3,216.3 542.7,220.1 546.0,220.6 549.3,215.5 552.7,213.8 556.0,214.8 559.3,216.6 562.7,214.3 566.0,208.5 569.3,204.6 572.7,209.8 576.0,205.8 579.3,204.6 582.7,197.4 586.0,192.8 589.3,187.3 592.7,174.2 596.0,176.8 599.3,173.0 602.7,167.2 606.0,173.1 609.3,174.9 612.7,180.8 616.0,182.9 619.3,173.3 622.7,157.6 626.0,158.0 629.3,151.8 632.7,150.1 636.0,164.8 639.3,158.4 642.7,153.7 646.0,142.7 649.3,145.9 652.7,140.6 656.0,137.7 659.3,132.1 662.7,135.7 666.0,129.1 669.3,128.8 672.7,119.9 676.0,125.0 679.3,114.9 682.7,90.1 686.0,103.5 689.3,89.9 692.7,65.9 696.0,88.6"/>
  <text x="60" y="62" font-size="11" fill="#2563eb">Price index</text>
  <text x="146" y="62" font-size="11" fill="#16a34a">Total return (price + distributions)</text>
  <text x="56" y="348" font-size="11" text-anchor="middle" fill="#444">2010-06</text><text x="216" y="348" font-size="11" text-anchor="middle" fill="#444">2014-06</text><text x="376" y="348" font-size="11" text-anchor="middle" fill="#444">2018-06</text><text x="536" y="348" font-size="11" text-anchor="middle" fill="#444">2022-06</text><text x="696" y="348" font-size="11" text-anchor="middle" fill="#444">2026-06</text>
</svg>
