<svg xmlns="http://www.w3.org/2000/svg" width="720" height="360" viewBox="0 0 720 360">
  <rect width="720" height="360" fill="#fafafa"/>
  <text x="56" y="22" font-size="13" font-family="sans-serif" fill="#222">SJT total return (rebased 100) · cumulative distributions $0.00/sh · market cap n/a</text>
  <line x1="56" y1="308" x2="696" y2="308" stroke="#ccc"/>
  <line x1="56" y1="48" x2="56" y2="308" stroke="#ccc"/>
  <polyline fill="none" stroke="#2563eb" stroke-width="2" points="56.0,95.8 58.7,106.2 61.4,121.5 64.0,112.2 66.7,103.5 69.4,134.0 72.1,133.4 74.7,140.9 77.4,142.2 80.1,137.7 82.8,136.0 85.5,139.3 88.1,136.0 90.8,139.3 93.5,129.2 96.2,112.7 98.8,125.4 101.5,131.4 104.2,114.0 106.9,105.1 109.6,111.8 112.2,105.7 114.9,89.4 117.6,65.9 120.3,107.0 122.9,92.8 125.6,107.7 128.3,111.8 131.0,150.9 133.7,143.5 136.3,199.1 139.0,221.8 141.7,228.2 144.4,228.6 147.0,213.3 149.7,227.8 152.4,233.0 155.1,225.0 157.8,209.1 160.4,210.3 163.1,211.5 165.8,213.2 168.5,197.9 171.1,198.0 173.8,195.0 176.5,175.2 179.2,180.6 181.9,176.8 184.5,167.8 187.2,188.8 189.9,175.3 192.6,176.3 195.2,177.8 197.9,181.3 200.6,177.6 203.3,172.2 206.0,160.9 208.6,174.0 211.3,178.9 214.0,178.4 216.7,181.2 219.3,177.4 222.0,184.1 224.7,176.7 227.4,177.9 230.1,185.2 232.7,202.3 235.4,209.0 238.1,202.3 240.8,214.7 243.4,230.8 246.1,224.6 248.8,218.0 251.5,231.6 254.2,228.8 256.8,229.6 259.5,228.9 262.2,232.7 264.9,222.6 267.5,219.7 270.2,223.9 272.9,222.3 275.6,221.1 278.3,219.3 280.9,217.5 283.6,216.2 286.3,219.6 289.0,220.8 291.6,215.3 294.3,215.8 297.0,212.3 299.7,212.9 302.4,211.1 305.0,203.7 307.7,205.8 310.4,202.8 313.1,212.5 315.7,201.7 318.4,204.3 321.1,208.6 323.8,214.3 326.5,228.4 329.1,229.9 331.8,229.1 334.5,240.0 337.2,245.3 339.8,246.9 342.5,246.2 345.2,246.5 347.9,245.1 350.6,252.7 353.2,261.9 355.9,273.0 358.6,279.7 361.3,269.2 363.9,276.4 366.6,274.6 369.3,265.7 372.0,265.1 374.7,263.8 377.3,267.7 380.0,270.4 382.7,270.8 385.4,268.9 388.1,270.2 390.7,267.1 393.4,262.5 396.1,267.2 398.8,264.0 401.4,264.8 404.1,263.9 406.8,266.2 409.5,266.2 412.2,265.7 414.8,260.9 417.5,262.5 420.2,257.2 422.9,258.9 425.5,251.0 428.2,256.7 430.9,260.6 433.6,265.8 436.3,267.3 438.9,271.3 441.6,270.8 444.3,271.1 447.0,275.6 449.6,274.8 452.3,274.4 455.0,276.4 457.7,276.7 460.4,276.2 463.0,273.5 465.7,277.7 468.4,280.1 471.1,281.3 473.7,284.1 476.4,288.2 479.1,285.4 481.8,287.4 484.5,288.5 487.1,287.8 489.8,288.5 492.5,289.0 495.2,290.1 497.8,287.8 500.5,286.5 503.2,289.2 505.9,289.0 508.6,286.1 511.2,288.0 513.9,284.1 516.6,282.2 519.3,287.2 521.9,283.0 524.6,281.5 527.3,280.6 530.0,276.4 532.7,272.1 535.3,274.6 538.0,274.7 540.7,278.9 543.4,275.0 546.0,265.9 548.7,268.3 551.4,269.8 554.1,266.1 556.8,265.4 559.4,256.2 562.1,246.8 564.8,235.3 567.5,256.7 570.1,236.8 572.8,237.6 575.5,253.0 578.2,246.7 580.9,241.6 583.5,242.8 586.2,249.1 588.9,246.3 591.6,247.3 594.2,262.1 596.9,259.7 599.6,263.0 602.3,259.8 605.0,266.6 607.6,265.6 610.3,262.8 613.0,266.5 615.7,274.9 618.3,276.3 621.0,274.6 623.7,273.9 626.4,279.6 629.1,280.2 631.7,280.1 634.4,280.2 637.1,284.0 639.8,281.9 642.4,280.4 645.1,278.0 647.8,281.3 650.5,279.6 653.2,275.3 655.8,272.7 658.5,271.3 661.2,268.9 663.9,270.4 666.5,270.0 669.2,271.5 671.9,270.1 674.6,271.6 677.3,272.2 679.9,272.2 682.6,270.0 685.3,274.4 688.0,276.3 690.6,279.0 693.3,281.1 696.0,282.6"/>
  <polyline fill="none" stroke="#16a34a" stroke-width="2" points="56.0,95.8 58.7,106.2 61.4,121.5 64.0,112.2 66.7,103.5 69.4,134.0 72.1,133.4 74.7,140.9 77.4,142.2 80.1,137.7 82.8,136.0 85.5,139.3 88.1,136.0 90.8,139.3 93.5,129.2 96.2,112.7 98.8,125.4 101.5,131.4 104.2,114.0 106.9,105.1 109.6,111.8 112.2,105.7 114.9,89.4 117.6,65.9 120.3,107.0 122.9,92.8 125.6,107.7 128.3,111.8 131.0,150.9 133.7,143.5 136.3,199.1 139.0,221.8 141.7,228.2 144.4,228.6 147.0,213.3 149.7,227.8 152.4,233.0 155.1,225.0 157.8,209.1 160.4,210.3 163.1,211.5 165.8,213.2 168.5,197.9 171.1,198.0 173.8,195.0 176.5,175.2 179.2,180.6 181.9,176.8 184.5,167.8 187.2,188.8 189.9,175.3 192.6,176.3 195.2,177.8 197.9,181.3 200.6,177.6 203.3,172.2 206.0,160.9 208.6,174.0 211.3,178.9 214.0,178.4 216.7,181.2 219.3,177.4 222.0,184.1 224.7,176.7 227.4,177.9 230.1,185.2 232.7,202.3 235.4,209.0 238.1,202.3 240.8,214.7 243.4,230.8 246.1,224.6 248.8,218.0 251.5,231.6 254.2,228.8 256.8,229.6 259.5,228.9 262.2,232.7 264.9,222.6 267.5,219.7 270.2,223.9 272.9,222.3 275.6,221.1 278.3,219.3 280.9,217.5 283.6,216.2 286.3,219.6 289.0,220.8 291.6,215.3 294.3,215.8 297.0,212.3 299.7,212.9 302.4,211.1 305.0,203.7 307.7,205.8 310.4,202.8 313.1,212.5 315.7,201.7 318.4,204.3 321.1,208.6 323.8,214.3 326.5,228.4 329.1,229.9 331.8,229.1 334.5,240.0 337.2,245.3 339.8,246.9 342.5,246.2 345.2,246.5 347.9,245.1 350.6,252.7 353.2,261.9 355.9,273.0 358.6,279.7 361.3,269.2 363.9,276.4 366.6,274.6 369.3,265.7 372.0,265.1 374.7,263.8 377.3,267.7 380.0,270.4 382.7,270.8 385.4,268.9 388.1,270.2 390.7,267.1 393.4,262.5 396.1,267.2 398.8,264.0 401.4,264.8 404.1,263.9 406.8,266.2 409.5,266.2 412.2,265.7 414.8,260.9 417.5,262.5 420.2,257.2 422.9,258.9 425.5,251.0 428.2,256.7 430.9,260.6 433.6,265.8 436.3,267.3 438.9,271.3 441.6,270.8 444.3,271.1 447.0,275.6 449.6,274.8 452.3,274.4 455.0,276.4 457.7,276.7 460.4,276.2 463.0,273.5 465.7,277.7 468.4,280.1 471.1,281.3 473.7,284.1 476.4,288.2 479.1,285.4 481.8,287.4 484.5,288.5 487.1,287.8 489.8,288.5 492.5,289.0 495.2,290.1 497.8,287.8 500.5,286.5 503.2,289.2 505.9,289.0 508.6,286.1 511.2,288.0 513.9,284.1 516.6,282.2 519.3,287.2 521.9,283.0 524.6,281.5 527.3,280.6 530.0,276.4 532.7,272.1 535.3,274.6 538.0,274.7 540.7,278.9 543.4,275.0 546.0,265.9 548.7,268.3 551.4,269.8 554.1,266.1 556.8,265.4 559.4,256.2 562.1,246.8 564.8,235.3 567.5,256.7 570.1,236.8 572.8,237.6 575.5,253.0 578.2,246.7 580.9,241.6 583.5,242.8 586.2,249.1 588.9,246.3 591.6,247.3 594.2,262.1 596.9,259.7 599.6,263.0 602.3,259.8 605.0,266.6 607.6,265.6 610.3,262.8 613.0,266.5 615.7,274.9 618.3,276.3 621.0,274.6 623.7,273.9 626.4,279.6 629.1,280.2 631.7,280.1 634.4,280.2 637.1,284.0 639.8,281.9 642.4,280.4 645.1,278.0 647.8,281.3 650.5,279.6 653.2,275.3 655.8,272.7 658.5,271.3 661.2,268.9 663.9,270.4 666.5,270.0 669.2,271.5 671.9,270.1 674.6,271.6 677.3,272.2 679.9,272.2 682.6,270.0 685.3,274.4 688.0,276.3 690.6,279.0 693.3,281.1 696.0,282.6"/>
  <text x="60" y="62" font-size="11" fill="#2563eb">Price index</text>
  <text x="146" y="62" font-size="11" fill="#16a34a">Total return (price + distributions)</text>
  <text x="56" y="348" font-size="11" text-anchor="middle" fill="#444">2006-07</text><text x="217" y="348" font-size="11" text-anchor="middle" fill="#444">2011-07</text><text x="377" y="348" font-size="11" text-anchor="middle" fill="#444">2016-07</text><text x="538" y="348" font-size="11" text-anchor="middle" fill="#444">2021-07</text><text x="696" y="348" font-size="11" text-anchor="middle" fill="#444">2026-06</text>
</svg>
