<svg xmlns="http://www.w3.org/2000/svg" width="720" height="360" viewBox="0 0 720 360">
  <rect width="720" height="360" fill="#fafafa"/>
  <text x="56" y="22" font-size="13" font-family="sans-serif" fill="#222">ABX total return (rebased 100) · cumulative distributions $0.20/sh · market cap n/a</text>
  <line x1="56" y1="308" x2="696" y2="308" stroke="#ccc"/>
  <line x1="56" y1="48" x2="56" y2="308" stroke="#ccc"/>
  <polyline fill="none" stroke="#2563eb" stroke-width="2" points="56.0,144.9 56.4,145.2 56.9,142.4 57.3,142.9 57.8,143.5 58.2,142.9 58.7,141.8 59.1,143.8 59.6,143.6 60.0,144.4 60.4,141.5 60.9,142.4 61.3,144.4 61.8,142.6 62.2,143.2 62.7,143.8 63.1,144.4 63.5,144.9 64.0,142.8 64.4,143.8 64.9,145.2 65.3,145.2 65.8,144.2 66.2,144.1 66.7,145.5 67.1,143.8 67.5,143.8 68.0,144.7 68.4,144.9 68.9,144.9 69.3,144.7 69.8,144.7 70.2,144.4 70.6,144.4 71.1,145.2 71.5,145.2 72.0,145.2 72.4,143.2 72.9,143.8 73.3,143.8 73.8,144.1 74.2,142.5 74.6,144.4 75.1,143.8 75.5,141.5 76.0,144.1 76.4,143.2 76.9,142.9 77.3,143.5 77.7,142.9 78.2,139.5 78.6,142.9 79.1,140.1 79.5,140.1 80.0,142.9 80.4,140.9 80.9,140.1 81.3,140.4 81.7,138.6 82.2,138.9 82.6,139.5 83.1,141.8 83.5,140.9 84.0,138.6 84.4,138.1 84.8,136.6 85.3,138.1 85.7,138.9 86.2,137.8 86.6,137.8 87.1,138.1 87.5,139.5 88.0,137.2 88.4,135.2 88.8,135.2 89.3,134.6 89.7,132.3 90.2,130.6 90.6,133.5 91.1,133.1 91.5,132.8 92.0,132.3 92.4,132.3 92.8,129.2 93.3,121.5 93.7,124.0 94.2,126.6 94.6,125.9 95.1,126.0 95.5,122.3 95.9,121.2 96.4,124.6 96.8,130.6 97.3,129.5 97.7,125.8 98.2,126.6 98.6,124.3 99.1,120.9 99.5,120.9 99.9,122.9 100.4,121.8 100.8,122.3 101.3,122.3 101.7,123.5 102.2,123.8 102.6,124.0 103.0,122.9 103.5,122.6 103.9,120.6 104.4,120.9 104.8,124.0 105.3,126.3 105.7,122.6 106.2,130.1 106.6,133.2 107.0,131.8 107.5,133.8 107.9,136.6 108.4,138.1 108.8,131.5 109.3,136.3 109.7,134.9 110.1,138.9 110.6,138.6 111.0,139.5 111.5,140.6 111.9,137.8 112.4,136.9 112.8,139.2 113.3,138.4 113.7,140.6 114.1,141.5 114.6,143.2 115.0,141.5 115.5,141.5 115.9,141.8 116.4,143.2 116.8,142.9 117.2,141.8 117.7,140.6 118.1,142.1 118.6,140.9 119.0,140.1 119.5,138.6 119.9,139.2 120.4,140.1 120.8,139.5 121.2,139.5 121.7,141.2 122.1,141.8 122.6,142.4 123.0,141.8 123.5,141.5 123.9,142.1 124.3,141.5 124.8,142.4 125.2,141.8 125.7,140.1 126.1,142.4 126.6,141.6 127.0,141.8 127.5,142.9 127.9,142.9 128.3,142.4 128.8,142.4 129.2,142.1 129.7,142.4 130.1,143.2 130.6,142.9 131.0,142.9 131.5,142.1 131.9,143.2 132.3,142.4 132.8,142.4 133.2,143.5 133.7,142.6 134.1,143.8 134.6,143.2 135.0,144.1 135.4,143.2 135.9,143.4 136.3,142.9 136.8,142.4 137.2,142.6 137.7,142.9 138.1,142.1 138.6,142.4 139.0,142.1 139.4,142.4 139.9,142.4 140.3,142.6 140.8,142.4 141.2,142.9 141.7,142.9 142.1,142.9 142.5,141.8 143.0,142.6 143.4,142.9 143.9,142.9 144.3,142.1 144.8,143.5 145.2,141.8 145.7,142.0 146.1,142.1 146.5,142.4 147.0,142.4 147.4,142.9 147.9,142.9 148.3,142.9 148.8,142.9 149.2,142.9 149.6,143.2 150.1,143.2 150.5,143.2 151.0,142.9 151.4,143.2 151.9,142.9 152.3,143.2 152.8,143.8 153.2,143.5 153.6,143.8 154.1,143.5 154.5,142.6 155.0,143.5 155.4,142.9 155.9,143.2 156.3,142.6 156.7,143.8 157.2,143.8 157.6,143.2 158.1,143.5 158.5,143.5 159.0,142.9 159.4,143.2 159.9,143.5 160.3,143.8 160.7,143.5 161.2,143.5 161.6,142.9 162.1,143.2 162.5,142.9 163.0,143.5 163.4,143.5 163.9,142.6 164.3,142.6 164.7,142.4 165.2,143.2 165.6,142.4 166.1,142.4 166.5,142.4 167.0,142.4 167.4,142.4 167.8,142.2 168.3,142.1 168.7,142.2 169.2,141.8 169.6,141.8 170.1,142.1 170.5,142.4 171.0,142.4 171.4,141.8 171.8,141.5 172.3,141.5 172.7,141.5 173.2,141.2 173.6,141.2 174.1,141.5 174.5,141.5 174.9,140.9 175.4,141.2 175.8,141.2 176.3,141.5 176.7,140.9 177.2,141.2 177.6,141.2 178.1,141.8 178.5,141.5 178.9,140.9 179.4,140.9 179.8,140.9 180.3,140.6 180.7,141.2 181.2,140.4 181.6,140.4 182.0,140.9 182.5,140.9 182.9,140.9 183.4,140.4 183.8,140.6 184.3,140.4 184.7,140.9 185.2,140.9 185.6,140.9 186.0,140.1 186.5,140.1 186.9,140.1 187.4,139.8 187.8,139.5 188.3,139.8 188.7,140.1 189.1,139.8 189.6,139.5 190.0,139.5 190.5,139.5 190.9,139.8 191.4,139.8 191.8,139.5 192.3,139.8 192.7,139.5 193.1,140.4 193.6,140.4 194.0,140.4 194.5,140.4 194.9,140.6 195.4,140.9 195.8,140.4 196.2,140.6 196.7,140.6 197.1,140.9 197.6,140.1 198.0,140.1 198.5,140.9 198.9,140.1 199.4,140.6 199.8,140.1 200.2,140.1 200.7,140.1 201.1,140.1 201.6,140.4 202.0,140.1 202.5,140.1 202.9,140.4 203.4,140.4 203.8,140.4 204.2,140.4 204.7,140.1 205.1,140.1 205.6,140.1 206.0,140.6 206.5,140.6 206.9,140.1 207.3,140.6 207.8,140.6 208.2,140.6 208.7,140.4 209.1,140.4 209.6,140.6 210.0,140.6 210.5,140.1 210.9,139.8 211.3,139.8 211.8,139.8 212.2,139.8 212.7,139.5 213.1,139.5 213.6,139.5 214.0,140.1 214.4,140.1 214.9,140.1 215.3,140.1 215.8,140.4 216.2,140.1 216.7,140.4 217.1,139.8 217.6,140.1 218.0,139.8 218.4,139.8 218.9,139.8 219.3,139.5 219.8,139.8 220.2,139.5 220.7,139.5 221.1,139.5 221.5,139.5 222.0,139.4 222.4,139.5 222.9,139.5 223.3,139.5 223.8,139.5 224.2,139.4 224.7,139.5 225.1,139.5 225.5,139.6 226.0,139.5 226.4,139.2 226.9,138.9 227.3,139.2 227.8,139.1 228.2,139.2 228.6,139.2 229.1,139.2 229.5,139.5 230.0,138.6 230.4,138.6 230.9,138.6 231.3,138.9 231.8,138.9 232.2,138.6 232.6,138.9 233.1,138.6 233.5,138.4 234.0,137.5 234.4,137.8 234.9,137.9 235.3,137.8 235.8,137.8 236.2,137.8 236.6,138.1 237.1,138.1 237.5,138.4 238.0,138.4 238.4,138.4 238.9,138.4 239.3,138.1 239.7,138.1 240.2,138.4 240.6,138.6 241.1,138.6 241.5,138.6 242.0,138.4 242.4,138.6 242.9,138.6 243.3,138.4 243.7,138.6 244.2,138.4 244.6,138.4 245.1,138.4 245.5,138.4 246.0,138.4 246.4,138.4 246.8,138.4 247.3,138.1 247.7,138.1 248.2,137.8 248.6,137.5 249.1,137.8 249.5,137.8 250.0,137.8 250.4,137.5 250.8,137.2 251.3,137.5 251.7,137.5 252.2,137.2 252.6,137.5 253.1,137.5 253.5,136.9 253.9,137.2 254.4,137.2 254.8,137.2 255.3,137.2 255.7,137.2 256.2,137.2 256.6,137.2 257.1,137.2 257.5,136.6 257.9,136.9 258.4,136.9 258.8,136.9 259.3,136.9 259.7,136.6 260.2,136.9 260.6,136.6 261.0,136.9 261.5,136.9 261.9,136.6 262.4,136.3 262.8,136.9 263.3,136.6 263.7,136.3 264.2,136.1 264.6,135.5 265.0,135.1 265.5,135.1 265.9,134.5 266.4,135.2 266.8,136.1 267.3,136.1 267.7,135.5 268.1,135.8 268.6,135.9 269.0,135.8 269.5,135.6 269.9,135.8 270.4,135.5 270.8,135.5 271.3,135.5 271.7,136.1 272.1,132.3 272.6,134.3 273.0,135.2 273.5,135.6 273.9,135.5 274.4,135.2 274.8,135.5 275.3,135.8 275.7,135.9 276.1,135.8 276.6,135.8 277.0,135.8 277.5,135.8 277.9,136.1 278.4,134.6 278.8,134.6 279.2,132.3 279.7,134.1 280.1,134.1 280.6,134.3 281.0,134.6 281.5,134.6 281.9,133.8 282.4,134.9 282.8,134.9 283.2,135.2 283.7,135.8 284.1,135.8 284.6,135.8 285.0,135.2 285.5,135.8 285.9,135.5 286.3,135.1 286.8,135.1 287.2,134.9 287.7,134.6 288.1,134.9 288.6,134.9 289.0,134.9 289.5,135.3 289.9,135.2 290.3,134.9 290.8,134.9 291.2,134.9 291.7,134.8 292.1,134.6 292.6,134.6 293.0,134.8 293.4,134.6 293.9,134.6 294.3,134.6 294.8,134.6 295.2,134.1 295.7,134.3 296.1,134.3 296.6,134.3 297.0,134.3 297.4,134.3 297.9,134.1 298.3,134.1 298.8,134.1 299.2,134.1 299.7,134.1 300.1,134.1 300.5,134.1 301.0,133.5 301.4,133.5 301.9,134.1 302.3,134.1 302.8,133.9 303.2,133.9 303.7,133.9 304.1,133.9 304.5,134.1 305.0,134.1 305.4,134.1 305.9,133.9 306.3,134.1 306.8,133.5 307.2,133.8 307.7,133.8 308.1,133.8 308.5,133.8 309.0,133.5 309.4,133.8 309.9,131.8 310.3,131.8 310.8,132.3 311.2,133.5 311.6,133.5 312.1,133.5 312.5,132.3 313.0,132.1 313.4,131.2 313.9,131.5 314.3,130.9 314.8,130.9 315.2,130.8 315.6,130.9 316.1,130.9 316.5,130.2 317.0,130.3 317.4,130.3 317.9,132.3 318.3,131.1 318.7,130.3 319.2,132.3 319.6,132.1 320.1,131.2 320.5,131.2 321.0,131.2 321.4,131.2 321.9,131.8 322.3,131.8 322.7,131.8 323.2,131.8 323.6,131.8 324.1,131.8 324.5,131.8 325.0,131.8 325.4,131.8 325.8,128.3 326.3,130.3 326.7,126.9 327.2,121.2 327.6,121.2 328.1,123.8 328.5,123.8 329.0,123.8 329.4,123.8 329.8,130.9 330.3,131.3 330.7,131.1 331.2,131.3 331.6,131.3 332.1,131.2 332.5,131.2 332.9,131.2 333.4,131.2 333.8,131.2 334.3,131.2 334.7,131.2 335.2,131.2 335.6,131.2 336.1,130.0 336.5,130.0 336.9,130.0 337.4,128.6 337.8,129.5 338.3,129.5 338.7,128.6 339.2,129.2 339.6,128.6 340.0,128.6 340.5,129.5 340.9,126.6 341.4,127.9 341.8,129.2 342.3,129.2 342.7,128.6 343.2,128.3 343.6,128.3 344.0,128.0 344.5,128.6 344.9,127.8 345.4,127.8 345.8,124.9 346.3,128.3 346.7,127.6 347.2,127.6 347.6,128.1 348.0,128.3 348.5,128.3 348.9,128.3 349.4,128.3 349.8,128.3 350.3,128.6 350.7,128.6 351.1,128.6 351.6,128.2 352.0,128.3 352.5,127.5 352.9,127.5 353.4,127.5 353.8,126.3 354.3,128.0 354.7,126.6 355.1,128.0 355.6,127.8 356.0,127.8 356.5,127.8 356.9,128.3 357.4,128.3 357.8,128.3 358.2,128.3 358.7,128.3 359.1,128.3 359.6,128.3 360.0,128.3 360.5,127.5 360.9,126.0 361.4,126.0 361.8,126.0 362.2,123.8 362.7,126.3 363.1,124.3 363.6,123.0 364.0,116.0 364.5,120.0 364.9,126.0 365.3,125.8 365.8,129.2 366.2,138.6 366.7,142.4 367.1,108.0 367.6,144.9 368.0,135.8 368.5,112.3 368.9,150.9 369.3,135.5 369.8,177.6 370.2,180.7 370.7,192.2 371.1,197.3 371.6,193.9 372.0,207.1 372.4,213.4 372.9,233.7 373.3,255.1 373.8,256.3 374.2,258.3 374.7,253.4 375.1,253.4 375.6,251.1 376.0,245.4 376.4,247.7 376.9,244.6 377.3,237.4 377.8,244.0 378.2,248.6 378.7,243.7 379.1,244.6 379.6,256.9 380.0,251.1 380.4,256.0 380.9,248.3 381.3,225.4 381.8,205.3 382.2,207.9 382.7,208.5 383.1,205.6 383.5,213.4 384.0,209.2 384.4,205.6 384.9,211.9 385.3,217.9 385.8,159.5 386.2,151.2 386.7,154.1 387.1,162.1 387.5,160.7 388.0,163.5 388.4,165.5 388.9,188.7 389.3,208.2 389.8,201.0 390.2,191.0 390.6,185.9 391.1,203.9 391.5,201.9 392.0,218.5 392.4,215.4 392.9,222.2 393.3,219.7 393.8,228.5 394.2,236.5 394.6,229.1 395.1,215.9 395.5,221.7 396.0,227.4 396.4,215.9 396.9,224.5 397.3,211.0 397.7,223.9 398.2,222.5 398.6,228.0 399.1,222.5 399.5,235.1 400.0,232.0 400.4,242.8 400.9,239.7 401.3,236.8 401.7,229.1 402.2,245.1 402.6,245.1 403.1,248.3 403.5,245.7 404.0,240.5 404.4,249.1 404.8,246.7 405.3,248.3 405.7,247.9 406.2,243.1 406.6,242.6 407.1,233.1 407.5,228.2 408.0,225.4 408.4,222.5 408.8,223.1 409.3,227.4 409.7,230.5 410.2,250.3 410.6,252.0 411.1,245.7 411.5,242.6 412.0,236.3 412.4,237.1 412.8,219.1 413.3,222.5 413.7,219.4 414.2,219.7 414.6,220.8 415.1,225.4 415.5,222.2 415.9,221.1 416.4,226.8 416.8,222.5 417.3,219.8 417.7,222.5 418.2,225.4 418.6,202.5 419.1,195.0 419.5,186.7 419.9,192.5 420.4,191.0 420.8,183.9 421.3,194.5 421.7,189.6 422.2,186.4 422.6,167.8 423.0,167.6 423.5,134.6 423.9,146.4 424.4,128.9 424.8,123.8 425.3,119.2 425.7,124.6 426.2,100.9 426.6,117.7 427.0,118.3 427.5,100.9 427.9,104.9 428.4,99.1 428.8,97.7 429.3,93.7 429.7,79.4 430.1,76.2 430.6,80.2 431.0,79.1 431.5,77.1 431.9,68.5 432.4,71.4 432.8,66.8 433.3,66.5 433.7,65.9 434.1,71.7 434.6,67.9 435.0,66.5 435.5,66.5 435.9,69.4 436.4,92.0 436.8,68.8 437.2,77.0 437.7,70.8 438.1,70.5 438.6,70.8 439.0,70.2 439.5,68.8 439.9,81.2 440.4,85.7 440.8,77.4 441.2,81.1 441.7,90.0 442.1,84.5 442.6,76.5 443.0,85.7 443.5,89.4 443.9,106.3 444.3,101.4 444.8,107.4 445.2,99.9 445.7,103.7 446.1,73.7 446.6,73.1 447.0,73.7 447.5,73.7 447.9,74.2 448.3,73.7 448.8,74.2 449.2,75.4 449.7,76.8 450.1,73.4 450.6,89.1 451.0,74.2 451.5,73.4 451.9,79.4 452.3,83.7 452.8,79.4 453.2,81.1 453.7,79.4 454.1,81.7 454.6,82.5 455.0,93.7 455.4,77.1 455.9,82.2 456.3,78.5 456.8,85.4 457.2,84.0 457.7,84.0 458.1,83.1 458.6,77.4 459.0,80.0 459.4,80.0 459.9,81.4 460.3,84.0 460.8,80.5 461.2,88.0 461.7,82.8 462.1,77.7 462.5,77.2 463.0,80.0 463.4,78.0 463.9,80.8 464.3,80.0 464.8,80.5 465.2,88.5 465.7,80.2 466.1,89.7 466.5,93.7 467.0,91.7 467.4,100.9 467.9,103.1 468.3,115.5 468.8,116.6 469.2,88.0 469.6,85.4 470.1,135.2 470.5,96.3 471.0,87.1 471.4,93.7 471.9,113.7 472.3,116.3 472.8,125.8 473.2,90.3 473.6,122.6 474.1,124.9 474.5,115.0 475.0,128.0 475.4,130.6 475.9,165.0 476.3,143.6 476.7,173.6 477.2,179.3 477.6,175.3 478.1,170.7 478.5,162.4 479.0,175.3 479.4,165.3 479.9,171.0 480.3,167.0 480.7,171.0 481.2,183.0 481.6,182.4 482.1,180.4 482.5,179.0 483.0,177.3 483.4,175.9 483.9,170.1 484.3,179.6 484.7,183.0 485.2,134.3 485.6,136.1 486.1,114.3 486.5,117.2 487.0,134.6 487.4,138.6 487.8,151.5 488.3,151.8 488.7,146.9 489.2,147.5 489.6,147.8 490.1,161.5 490.5,157.2 491.0,150.1 491.4,129.2 491.8,119.7 492.3,126.3 492.7,117.7 493.2,123.8 493.6,118.0 494.1,128.3 494.5,122.0 494.9,108.6 495.4,130.6 495.8,136.1 496.3,128.0 496.7,128.0 497.2,127.2 497.6,130.9 498.1,136.6 498.5,130.6 498.9,131.8 499.4,132.6 499.8,137.2 500.3,135.5 500.7,138.9 501.2,142.9 501.6,141.2 502.0,138.9 502.5,130.9 502.9,140.6 503.4,140.4 503.8,125.2 504.3,139.8 504.7,130.3 505.2,122.9 505.6,119.7 506.0,118.9 506.5,126.3 506.9,128.9 507.4,133.2 507.8,148.1 508.3,149.8 508.7,150.9 509.1,145.2 509.6,148.9 510.0,144.7 510.5,153.8 510.9,144.1 511.4,129.8 511.8,136.3 512.3,143.2 512.7,140.9 513.1,143.5 513.6,151.2 514.0,149.8 514.5,173.8 514.9,171.3 515.4,162.4 515.8,164.4 516.2,165.3 516.7,175.9 517.1,175.0 517.6,175.6 518.0,178.4 518.5,175.9 518.9,177.9 519.4,174.1 519.8,170.7 520.2,164.7 520.7,177.9 521.1,187.6 521.6,172.4 522.0,180.1 522.5,184.2 522.9,181.6 523.4,181.6 523.8,169.3 524.2,173.6 524.7,206.8 525.1,203.3 525.6,199.0 526.0,191.6 526.5,188.7 526.9,196.2 527.3,195.3 527.8,196.7 528.2,195.9 528.7,195.9 529.1,199.0 529.6,193.0 530.0,196.2 530.5,197.0 530.9,195.6 531.3,197.9 531.8,202.5 532.2,206.8 532.7,207.9 533.1,201.9 533.6,199.6 534.0,207.1 534.4,196.2 534.9,201.0 535.3,201.0 535.8,198.8 536.2,201.3 536.7,196.7 537.1,201.9 537.6,206.5 538.0,211.3 538.4,224.8 538.9,219.4 539.3,211.1 539.8,208.2 540.2,211.6 540.7,209.6 541.1,207.6 541.5,204.5 542.0,204.2 542.4,195.9 542.9,196.7 543.3,193.9 543.8,200.2 544.2,197.0 544.7,199.9 545.1,203.3 545.5,199.9 546.0,204.5 546.4,195.9 546.9,199.3 547.3,204.8 547.8,205.3 548.2,204.5 548.6,200.5 549.1,203.3 549.5,204.2 550.0,205.1 550.4,205.9 550.9,202.2 551.3,211.1 551.8,218.5 552.2,208.8 552.6,202.8 553.1,200.2 553.5,199.3 554.0,206.8 554.4,203.3 554.9,207.1 555.3,210.2 555.8,215.6 556.2,205.6 556.6,212.2 557.1,208.2 557.5,204.8 558.0,205.3 558.4,198.2 558.9,200.5 559.3,210.5 559.7,204.2 560.2,207.6 560.6,212.5 561.1,216.5 561.5,218.2 562.0,204.8 562.4,208.5 562.9,213.1 563.3,197.6 563.7,204.5 564.2,220.2 564.6,221.4 565.1,232.8 565.5,219.7 566.0,218.8 566.4,198.2 566.8,191.3 567.3,193.9 567.7,193.3 568.2,189.6 568.6,192.2 569.1,190.0 569.5,185.3 570.0,185.3 570.4,186.2 570.8,187.0 571.3,188.2 571.7,186.4 572.2,186.7 572.6,186.2 573.1,186.4 573.5,188.2 573.9,186.7 574.4,183.0 574.8,170.1 575.3,173.8 575.7,170.1 576.2,167.8 576.6,166.4 577.1,167.8 577.5,167.8 577.9,172.1 578.4,181.9 578.8,188.4 579.3,189.0 579.7,190.5 580.2,197.9 580.6,202.2 581.0,201.6 581.5,205.1 581.9,204.2 582.4,251.1 582.8,259.2 583.3,249.7 583.7,246.0 584.2,246.0 584.6,247.4 585.0,255.7 585.5,249.4 585.9,249.1 586.4,264.0 586.8,260.3 587.3,265.7 587.7,266.9 588.1,266.9 588.6,270.9 589.0,267.2 589.5,290.1 589.9,275.8 590.4,271.2 590.8,270.3 591.3,268.6 591.7,269.7 592.1,266.0 592.6,274.0 593.0,274.0 593.5,281.8 593.9,284.6 594.4,283.8 594.8,279.5 595.3,276.6 595.7,278.0 596.1,273.5 596.6,270.6 597.0,267.2 597.5,270.6 597.9,272.6 598.4,271.7 598.8,270.0 599.2,268.9 599.7,268.0 600.1,271.5 600.6,266.3 601.0,263.4 601.5,264.0 601.9,265.5 602.4,252.9 602.8,257.4 603.2,242.8 603.7,241.7 604.1,243.1 604.6,239.4 605.0,241.1 605.5,238.5 605.9,239.4 606.3,239.4 606.8,235.1 607.2,225.4 607.7,223.4 608.1,225.1 608.6,224.5 609.0,218.2 609.5,222.2 609.9,227.1 610.3,236.3 610.8,234.2 611.2,232.0 611.7,240.5 612.1,242.3 612.6,238.3 613.0,235.4 613.4,232.0 613.9,232.0 614.3,232.5 614.8,237.1 615.2,244.6 615.7,247.7 616.1,248.8 616.6,249.4 617.0,256.3 617.4,254.9 617.9,253.4 618.3,258.9 618.8,259.7 619.2,258.9 619.7,247.7 620.1,251.1 620.5,256.0 621.0,252.3 621.4,251.4 621.9,258.6 622.3,254.9 622.8,250.9 623.2,248.3 623.7,259.7 624.1,266.0 624.5,264.9 625.0,255.4 625.4,262.3 625.9,264.0 626.3,255.4 626.8,264.6 627.2,270.6 627.7,270.3 628.1,277.2 628.5,279.2 629.0,274.9 629.4,278.6 629.9,271.2 630.3,271.7 630.8,238.3 631.2,235.4 631.6,230.8 632.1,229.7 632.5,237.7 633.0,235.4 633.4,244.8 633.9,247.7 634.3,251.7 634.8,262.0 635.2,256.6 635.6,254.6 636.1,244.6 636.5,235.7 637.0,233.1 637.4,230.8 637.9,238.8 638.3,226.5 638.7,224.2 639.2,225.7 639.6,211.3 640.1,204.2 640.5,195.3 641.0,182.4 641.4,185.3 641.9,185.0 642.3,186.7 642.7,185.3 643.2,172.1 643.6,179.3 644.1,179.7 644.5,181.9 645.0,179.0 645.4,179.6 645.8,180.4 646.3,185.6 646.7,178.1 647.2,196.2 647.6,192.5 648.1,188.4 648.5,186.7 649.0,173.3 649.4,176.1 649.8,176.4 650.3,183.9 650.7,175.9 651.2,180.7 651.6,177.6 652.1,178.7 652.5,184.4 652.9,184.7 653.4,187.3 653.8,185.3 654.3,191.0 654.7,197.3 655.2,192.5 655.6,209.6 656.1,192.5 656.5,213.9 656.9,200.8 657.4,215.4 657.8,210.5 658.3,198.5 658.7,190.2 659.2,197.0 659.6,185.6 660.0,182.4 660.5,179.9 660.9,168.7 661.4,173.3 661.8,173.3 662.3,176.7 662.7,173.0 663.2,172.7 663.6,163.8 664.0,161.5 664.5,149.2 664.9,146.9 665.4,138.4 665.8,138.1 666.3,141.5 666.7,147.2 667.2,127.8 667.6,133.8 668.0,140.9 668.5,142.4 668.9,138.9 669.4,134.1 669.8,152.7 670.3,164.7 670.7,165.8 671.1,163.3 671.6,167.6 672.0,168.4 672.5,170.1 672.9,184.2 673.4,195.0 673.8,197.3 674.3,200.8 674.7,191.3 675.1,193.6 675.6,192.5 676.0,177.6 676.5,192.2 676.9,190.5 677.4,177.9 677.8,173.3 678.2,171.0 678.7,169.3 679.1,157.8 679.6,146.9 680.0,152.7 680.5,157.8 680.9,159.3 681.4,159.3 681.8,156.1 682.2,152.4 682.7,154.4 683.1,150.9 683.6,152.7 684.0,159.8 684.5,157.8 684.9,152.7 685.3,154.4 685.8,163.0 686.2,158.7 686.7,155.5 687.1,158.1 687.6,160.4 688.0,162.7 688.5,154.4 688.9,169.8 689.3,169.3 689.8,166.1 690.2,164.1 690.7,149.2 691.1,156.1 691.6,158.7 692.0,165.8 692.4,163.8 692.9,170.1 693.3,185.3 693.8,169.0 694.2,172.1 694.7,173.6 695.1,167.0 695.6,162.1 696.0,157.5"/>
  <polyline fill="none" stroke="#16a34a" stroke-width="2" points="56.0,144.9 56.4,145.2 56.9,142.4 57.3,142.9 57.8,143.5 58.2,142.9 58.7,141.8 59.1,143.8 59.6,143.6 60.0,144.4 60.4,141.5 60.9,142.4 61.3,144.4 61.8,142.6 62.2,143.2 62.7,143.8 63.1,144.4 63.5,144.9 64.0,142.8 64.4,143.8 64.9,145.2 65.3,145.2 65.8,144.2 66.2,144.1 66.7,145.5 67.1,143.8 67.5,143.8 68.0,144.7 68.4,144.9 68.9,144.9 69.3,144.7 69.8,144.7 70.2,144.4 70.6,144.4 71.1,145.2 71.5,145.2 72.0,145.2 72.4,143.2 72.9,143.8 73.3,143.8 73.8,144.1 74.2,142.5 74.6,144.4 75.1,143.8 75.5,141.5 76.0,144.1 76.4,143.2 76.9,142.9 77.3,143.5 77.7,142.9 78.2,139.5 78.6,142.9 79.1,140.1 79.5,140.1 80.0,142.9 80.4,140.9 80.9,140.1 81.3,140.4 81.7,138.6 82.2,138.9 82.6,139.5 83.1,141.8 83.5,140.9 84.0,138.6 84.4,138.1 84.8,136.6 85.3,138.1 85.7,138.9 86.2,137.8 86.6,137.8 87.1,138.1 87.5,139.5 88.0,137.2 88.4,135.2 88.8,135.2 89.3,134.6 89.7,132.3 90.2,130.6 90.6,133.5 91.1,133.1 91.5,132.8 92.0,132.3 92.4,132.3 92.8,129.2 93.3,121.5 93.7,124.0 94.2,126.6 94.6,125.9 95.1,126.0 95.5,122.3 95.9,121.2 96.4,124.6 96.8,130.6 97.3,129.5 97.7,125.8 98.2,126.6 98.6,124.3 99.1,120.9 99.5,120.9 99.9,122.9 100.4,121.8 100.8,122.3 101.3,122.3 101.7,123.5 102.2,123.8 102.6,124.0 103.0,122.9 103.5,122.6 103.9,120.6 104.4,120.9 104.8,124.0 105.3,126.3 105.7,122.6 106.2,130.1 106.6,133.2 107.0,131.8 107.5,133.8 107.9,136.6 108.4,138.1 108.8,131.5 109.3,136.3 109.7,134.9 110.1,138.9 110.6,138.6 111.0,139.5 111.5,140.6 111.9,137.8 112.4,136.9 112.8,139.2 113.3,138.4 113.7,140.6 114.1,141.5 114.6,143.2 115.0,141.5 115.5,141.5 115.9,141.8 116.4,143.2 116.8,142.9 117.2,141.8 117.7,140.6 118.1,142.1 118.6,140.9 119.0,140.1 119.5,138.6 119.9,139.2 120.4,140.1 120.8,139.5 121.2,139.5 121.7,141.2 122.1,141.8 122.6,142.4 123.0,141.8 123.5,141.5 123.9,142.1 124.3,141.5 124.8,142.4 125.2,141.8 125.7,140.1 126.1,142.4 126.6,141.6 127.0,141.8 127.5,142.9 127.9,142.9 128.3,142.4 128.8,142.4 129.2,142.1 129.7,142.4 130.1,143.2 130.6,142.9 131.0,142.9 131.5,142.1 131.9,143.2 132.3,142.4 132.8,142.4 133.2,143.5 133.7,142.6 134.1,143.8 134.6,143.2 135.0,144.1 135.4,143.2 135.9,143.4 136.3,142.9 136.8,142.4 137.2,142.6 137.7,142.9 138.1,142.1 138.6,142.4 139.0,142.1 139.4,142.4 139.9,142.4 140.3,142.6 140.8,142.4 141.2,142.9 141.7,142.9 142.1,142.9 142.5,141.8 143.0,142.6 143.4,142.9 143.9,142.9 144.3,142.1 144.8,143.5 145.2,141.8 145.7,142.0 146.1,142.1 146.5,142.4 147.0,142.4 147.4,142.9 147.9,142.9 148.3,142.9 148.8,142.9 149.2,142.9 149.6,143.2 150.1,143.2 150.5,143.2 151.0,142.9 151.4,143.2 151.9,142.9 152.3,143.2 152.8,143.8 153.2,143.5 153.6,143.8 154.1,143.5 154.5,142.6 155.0,143.5 155.4,142.9 155.9,143.2 156.3,142.6 156.7,143.8 157.2,143.8 157.6,143.2 158.1,143.5 158.5,143.5 159.0,142.9 159.4,143.2 159.9,143.5 160.3,143.8 160.7,143.5 161.2,143.5 161.6,142.9 162.1,143.2 162.5,142.9 163.0,143.5 163.4,143.5 163.9,142.6 164.3,142.6 164.7,142.4 165.2,143.2 165.6,142.4 166.1,142.4 166.5,142.4 167.0,142.4 167.4,142.4 167.8,142.2 168.3,142.1 168.7,142.2 169.2,141.8 169.6,141.8 170.1,142.1 170.5,142.4 171.0,142.4 171.4,141.8 171.8,141.5 172.3,141.5 172.7,141.5 173.2,141.2 173.6,141.2 174.1,141.5 174.5,141.5 174.9,140.9 175.4,141.2 175.8,141.2 176.3,141.5 176.7,140.9 177.2,141.2 177.6,141.2 178.1,141.8 178.5,141.5 178.9,140.9 179.4,140.9 179.8,140.9 180.3,140.6 180.7,141.2 181.2,140.4 181.6,140.4 182.0,140.9 182.5,140.9 182.9,140.9 183.4,140.4 183.8,140.6 184.3,140.4 184.7,140.9 185.2,140.9 185.6,140.9 186.0,140.1 186.5,140.1 186.9,140.1 187.4,139.8 187.8,139.5 188.3,139.8 188.7,140.1 189.1,139.8 189.6,139.5 190.0,139.5 190.5,139.5 190.9,139.8 191.4,139.8 191.8,139.5 192.3,139.8 192.7,139.5 193.1,140.4 193.6,140.4 194.0,140.4 194.5,140.4 194.9,140.6 195.4,140.9 195.8,140.4 196.2,140.6 196.7,140.6 197.1,140.9 197.6,140.1 198.0,140.1 198.5,140.9 198.9,140.1 199.4,140.6 199.8,140.1 200.2,140.1 200.7,140.1 201.1,140.1 201.6,140.4 202.0,140.1 202.5,140.1 202.9,140.4 203.4,140.4 203.8,140.4 204.2,140.4 204.7,140.1 205.1,140.1 205.6,140.1 206.0,140.6 206.5,140.6 206.9,140.1 207.3,140.6 207.8,140.6 208.2,140.6 208.7,140.4 209.1,140.4 209.6,140.6 210.0,140.6 210.5,140.1 210.9,139.8 211.3,139.8 211.8,139.8 212.2,139.8 212.7,139.5 213.1,139.5 213.6,139.5 214.0,140.1 214.4,140.1 214.9,140.1 215.3,140.1 215.8,140.4 216.2,140.1 216.7,140.4 217.1,139.8 217.6,140.1 218.0,139.8 218.4,139.8 218.9,139.8 219.3,139.5 219.8,139.8 220.2,139.5 220.7,139.5 221.1,139.5 221.5,139.5 222.0,139.4 222.4,139.5 222.9,139.5 223.3,139.5 223.8,139.5 224.2,139.4 224.7,139.5 225.1,139.5 225.5,139.6 226.0,139.5 226.4,139.2 226.9,138.9 227.3,139.2 227.8,139.1 228.2,139.2 228.6,139.2 229.1,139.2 229.5,139.5 230.0,138.6 230.4,138.6 230.9,138.6 231.3,138.9 231.8,138.9 232.2,138.6 232.6,138.9 233.1,138.6 233.5,138.4 234.0,137.5 234.4,137.8 234.9,137.9 235.3,137.8 235.8,137.8 236.2,137.8 236.6,138.1 237.1,138.1 237.5,138.4 238.0,138.4 238.4,138.4 238.9,138.4 239.3,138.1 239.7,138.1 240.2,138.4 240.6,138.6 241.1,138.6 241.5,138.6 242.0,138.4 242.4,138.6 242.9,138.6 243.3,138.4 243.7,138.6 244.2,138.4 244.6,138.4 245.1,138.4 245.5,138.4 246.0,138.4 246.4,138.4 246.8,138.4 247.3,138.1 247.7,138.1 248.2,137.8 248.6,137.5 249.1,137.8 249.5,137.8 250.0,137.8 250.4,137.5 250.8,137.2 251.3,137.5 251.7,137.5 252.2,137.2 252.6,137.5 253.1,137.5 253.5,136.9 253.9,137.2 254.4,137.2 254.8,137.2 255.3,137.2 255.7,137.2 256.2,137.2 256.6,137.2 257.1,137.2 257.5,136.6 257.9,136.9 258.4,136.9 258.8,136.9 259.3,136.9 259.7,136.6 260.2,136.9 260.6,136.6 261.0,136.9 261.5,136.9 261.9,136.6 262.4,136.3 262.8,136.9 263.3,136.6 263.7,136.3 264.2,136.1 264.6,135.5 265.0,135.1 265.5,135.1 265.9,134.5 266.4,135.2 266.8,136.1 267.3,136.1 267.7,135.5 268.1,135.8 268.6,135.9 269.0,135.8 269.5,135.6 269.9,135.8 270.4,135.5 270.8,135.5 271.3,135.5 271.7,136.1 272.1,132.3 272.6,134.3 273.0,135.2 273.5,135.6 273.9,135.5 274.4,135.2 274.8,135.5 275.3,135.8 275.7,135.9 276.1,135.8 276.6,135.8 277.0,135.8 277.5,135.8 277.9,136.1 278.4,134.6 278.8,134.6 279.2,132.3 279.7,134.1 280.1,134.1 280.6,134.3 281.0,134.6 281.5,134.6 281.9,133.8 282.4,134.9 282.8,134.9 283.2,135.2 283.7,135.8 284.1,135.8 284.6,135.8 285.0,135.2 285.5,135.8 285.9,135.5 286.3,135.1 286.8,135.1 287.2,134.9 287.7,134.6 288.1,134.9 288.6,134.9 289.0,134.9 289.5,135.3 289.9,135.2 290.3,134.9 290.8,134.9 291.2,134.9 291.7,134.8 292.1,134.6 292.6,134.6 293.0,134.8 293.4,134.6 293.9,134.6 294.3,134.6 294.8,134.6 295.2,134.1 295.7,134.3 296.1,134.3 296.6,134.3 297.0,134.3 297.4,134.3 297.9,134.1 298.3,134.1 298.8,134.1 299.2,134.1 299.7,134.1 300.1,134.1 300.5,134.1 301.0,133.5 301.4,133.5 301.9,134.1 302.3,134.1 302.8,133.9 303.2,133.9 303.7,133.9 304.1,133.9 304.5,134.1 305.0,134.1 305.4,134.1 305.9,133.9 306.3,134.1 306.8,133.5 307.2,133.8 307.7,133.8 308.1,133.8 308.5,133.8 309.0,133.5 309.4,133.8 309.9,131.8 310.3,131.8 310.8,132.3 311.2,133.5 311.6,133.5 312.1,133.5 312.5,132.3 313.0,132.1 313.4,131.2 313.9,131.5 314.3,130.9 314.8,130.9 315.2,130.8 315.6,130.9 316.1,130.9 316.5,130.2 317.0,130.3 317.4,130.3 317.9,132.3 318.3,131.1 318.7,130.3 319.2,132.3 319.6,132.1 320.1,131.2 320.5,131.2 321.0,131.2 321.4,131.2 321.9,131.8 322.3,131.8 322.7,131.8 323.2,131.8 323.6,131.8 324.1,131.8 324.5,131.8 325.0,131.8 325.4,131.8 325.8,128.3 326.3,130.3 326.7,126.9 327.2,121.2 327.6,121.2 328.1,123.8 328.5,123.8 329.0,123.8 329.4,123.8 329.8,130.9 330.3,131.3 330.7,131.1 331.2,131.3 331.6,131.3 332.1,131.2 332.5,131.2 332.9,131.2 333.4,131.2 333.8,131.2 334.3,131.2 334.7,131.2 335.2,131.2 335.6,131.2 336.1,130.0 336.5,130.0 336.9,130.0 337.4,128.6 337.8,129.5 338.3,129.5 338.7,128.6 339.2,129.2 339.6,128.6 340.0,128.6 340.5,129.5 340.9,126.6 341.4,127.9 341.8,129.2 342.3,129.2 342.7,128.6 343.2,128.3 343.6,128.3 344.0,128.0 344.5,128.6 344.9,127.8 345.4,127.8 345.8,124.9 346.3,128.3 346.7,127.6 347.2,127.6 347.6,128.1 348.0,128.3 348.5,128.3 348.9,128.3 349.4,128.3 349.8,128.3 350.3,128.6 350.7,128.6 351.1,128.6 351.6,128.2 352.0,128.3 352.5,127.5 352.9,127.5 353.4,127.5 353.8,126.3 354.3,128.0 354.7,126.6 355.1,128.0 355.6,127.8 356.0,127.8 356.5,127.8 356.9,128.3 357.4,128.3 357.8,128.3 358.2,128.3 358.7,128.3 359.1,128.3 359.6,128.3 360.0,128.3 360.5,127.5 360.9,126.0 361.4,126.0 361.8,126.0 362.2,123.8 362.7,126.3 363.1,124.3 363.6,123.0 364.0,116.0 364.5,120.0 364.9,126.0 365.3,125.8 365.8,129.2 366.2,138.6 366.7,142.4 367.1,108.0 367.6,144.9 368.0,135.8 368.5,112.3 368.9,150.9 369.3,135.5 369.8,177.6 370.2,180.7 370.7,192.2 371.1,197.3 371.6,193.9 372.0,207.1 372.4,213.4 372.9,233.7 373.3,255.1 373.8,256.3 374.2,258.3 374.7,253.4 375.1,253.4 375.6,251.1 376.0,245.4 376.4,247.7 376.9,244.6 377.3,237.4 377.8,244.0 378.2,248.6 378.7,243.7 379.1,244.6 379.6,256.9 380.0,251.1 380.4,256.0 380.9,248.3 381.3,225.4 381.8,205.3 382.2,207.9 382.7,208.5 383.1,205.6 383.5,213.4 384.0,209.2 384.4,205.6 384.9,211.9 385.3,217.9 385.8,159.5 386.2,151.2 386.7,154.1 387.1,162.1 387.5,160.7 388.0,163.5 388.4,165.5 388.9,188.7 389.3,208.2 389.8,201.0 390.2,191.0 390.6,185.9 391.1,203.9 391.5,201.9 392.0,218.5 392.4,215.4 392.9,222.2 393.3,219.7 393.8,228.5 394.2,236.5 394.6,229.1 395.1,215.9 395.5,221.7 396.0,227.4 396.4,215.9 396.9,224.5 397.3,211.0 397.7,223.9 398.2,222.5 398.6,228.0 399.1,222.5 399.5,235.1 400.0,232.0 400.4,242.8 400.9,239.7 401.3,236.8 401.7,229.1 402.2,245.1 402.6,245.1 403.1,248.3 403.5,245.7 404.0,240.5 404.4,249.1 404.8,246.7 405.3,248.3 405.7,247.9 406.2,243.1 406.6,242.6 407.1,233.1 407.5,228.2 408.0,225.4 408.4,222.5 408.8,223.1 409.3,227.4 409.7,230.5 410.2,250.3 410.6,252.0 411.1,245.7 411.5,242.6 412.0,236.3 412.4,237.1 412.8,219.1 413.3,222.5 413.7,219.4 414.2,219.7 414.6,220.8 415.1,225.4 415.5,222.2 415.9,221.1 416.4,226.8 416.8,222.5 417.3,219.8 417.7,222.5 418.2,225.4 418.6,202.5 419.1,195.0 419.5,186.7 419.9,192.5 420.4,191.0 420.8,183.9 421.3,194.5 421.7,189.6 422.2,186.4 422.6,167.8 423.0,167.6 423.5,134.6 423.9,146.4 424.4,128.9 424.8,123.8 425.3,119.2 425.7,124.6 426.2,100.9 426.6,117.7 427.0,118.3 427.5,100.9 427.9,104.9 428.4,99.1 428.8,97.7 429.3,93.7 429.7,79.4 430.1,76.2 430.6,80.2 431.0,79.1 431.5,77.1 431.9,68.5 432.4,71.4 432.8,66.8 433.3,66.5 433.7,65.9 434.1,71.7 434.6,67.9 435.0,66.5 435.5,66.5 435.9,69.4 436.4,92.0 436.8,68.8 437.2,77.0 437.7,70.8 438.1,70.5 438.6,70.8 439.0,70.2 439.5,68.8 439.9,81.2 440.4,85.7 440.8,77.4 441.2,81.1 441.7,90.0 442.1,84.5 442.6,76.5 443.0,85.7 443.5,89.4 443.9,106.3 444.3,101.4 444.8,107.4 445.2,99.9 445.7,103.7 446.1,73.7 446.6,73.1 447.0,73.7 447.5,73.7 447.9,74.2 448.3,73.7 448.8,74.2 449.2,75.4 449.7,76.8 450.1,73.4 450.6,89.1 451.0,74.2 451.5,73.4 451.9,79.4 452.3,83.7 452.8,79.4 453.2,81.1 453.7,79.4 454.1,81.7 454.6,82.5 455.0,93.7 455.4,77.1 455.9,82.2 456.3,78.5 456.8,85.4 457.2,84.0 457.7,84.0 458.1,83.1 458.6,77.4 459.0,80.0 459.4,80.0 459.9,81.4 460.3,84.0 460.8,80.5 461.2,88.0 461.7,82.8 462.1,77.7 462.5,77.2 463.0,80.0 463.4,78.0 463.9,80.8 464.3,80.0 464.8,80.5 465.2,88.5 465.7,80.2 466.1,89.7 466.5,93.7 467.0,91.7 467.4,100.9 467.9,103.1 468.3,115.5 468.8,116.6 469.2,88.0 469.6,85.4 470.1,135.2 470.5,96.3 471.0,87.1 471.4,93.7 471.9,113.7 472.3,116.3 472.8,125.8 473.2,90.3 473.6,122.6 474.1,124.9 474.5,115.0 475.0,128.0 475.4,130.6 475.9,165.0 476.3,143.6 476.7,173.6 477.2,179.3 477.6,175.3 478.1,170.7 478.5,162.4 479.0,175.3 479.4,165.3 479.9,171.0 480.3,167.0 480.7,171.0 481.2,183.0 481.6,182.4 482.1,180.4 482.5,179.0 483.0,177.3 483.4,175.9 483.9,170.1 484.3,179.6 484.7,183.0 485.2,134.3 485.6,136.1 486.1,114.3 486.5,117.2 487.0,134.6 487.4,138.6 487.8,151.5 488.3,151.8 488.7,146.9 489.2,147.5 489.6,147.8 490.1,161.5 490.5,157.2 491.0,150.1 491.4,129.2 491.8,119.7 492.3,126.3 492.7,117.7 493.2,123.8 493.6,118.0 494.1,128.3 494.5,122.0 494.9,108.6 495.4,130.6 495.8,136.1 496.3,128.0 496.7,128.0 497.2,127.2 497.6,130.9 498.1,136.6 498.5,130.6 498.9,131.8 499.4,132.6 499.8,137.2 500.3,135.5 500.7,138.9 501.2,142.9 501.6,141.2 502.0,138.9 502.5,130.9 502.9,140.6 503.4,140.4 503.8,125.2 504.3,139.8 504.7,130.3 505.2,122.9 505.6,119.7 506.0,118.9 506.5,126.3 506.9,128.9 507.4,133.2 507.8,148.1 508.3,149.8 508.7,150.9 509.1,145.2 509.6,148.9 510.0,144.7 510.5,153.8 510.9,144.1 511.4,129.8 511.8,136.3 512.3,143.2 512.7,140.9 513.1,143.5 513.6,151.2 514.0,149.8 514.5,173.8 514.9,171.3 515.4,162.4 515.8,164.4 516.2,165.3 516.7,175.9 517.1,175.0 517.6,175.6 518.0,178.4 518.5,175.9 518.9,177.9 519.4,174.1 519.8,170.7 520.2,164.7 520.7,177.9 521.1,187.6 521.6,172.4 522.0,180.1 522.5,184.2 522.9,181.6 523.4,181.6 523.8,169.3 524.2,173.6 524.7,206.8 525.1,203.3 525.6,199.0 526.0,191.6 526.5,188.7 526.9,196.2 527.3,195.3 527.8,196.7 528.2,195.9 528.7,195.9 529.1,199.0 529.6,193.0 530.0,196.2 530.5,197.0 530.9,195.6 531.3,197.9 531.8,202.5 532.2,206.8 532.7,207.9 533.1,201.9 533.6,199.6 534.0,207.1 534.4,196.2 534.9,201.0 535.3,201.0 535.8,198.8 536.2,201.3 536.7,196.7 537.1,201.9 537.6,206.5 538.0,211.3 538.4,224.8 538.9,219.4 539.3,211.1 539.8,208.2 540.2,211.6 540.7,209.6 541.1,207.6 541.5,204.5 542.0,204.2 542.4,195.9 542.9,196.7 543.3,193.9 543.8,200.2 544.2,197.0 544.7,199.9 545.1,203.3 545.5,199.9 546.0,204.5 546.4,195.9 546.9,199.3 547.3,204.8 547.8,205.3 548.2,204.5 548.6,200.5 549.1,203.3 549.5,204.2 550.0,205.1 550.4,205.9 550.9,202.2 551.3,211.1 551.8,218.5 552.2,208.8 552.6,202.8 553.1,200.2 553.5,199.3 554.0,206.8 554.4,203.3 554.9,207.1 555.3,210.2 555.8,215.6 556.2,205.6 556.6,212.2 557.1,208.2 557.5,204.8 558.0,205.3 558.4,198.2 558.9,200.5 559.3,210.5 559.7,204.2 560.2,207.6 560.6,212.5 561.1,216.5 561.5,218.2 562.0,204.8 562.4,208.5 562.9,213.1 563.3,197.6 563.7,204.5 564.2,220.2 564.6,221.4 565.1,232.8 565.5,219.7 566.0,218.8 566.4,198.2 566.8,191.3 567.3,193.9 567.7,193.3 568.2,189.6 568.6,192.2 569.1,190.0 569.5,185.3 570.0,185.3 570.4,186.2 570.8,187.0 571.3,188.2 571.7,186.4 572.2,186.7 572.6,186.2 573.1,186.4 573.5,188.2 573.9,186.7 574.4,183.0 574.8,170.1 575.3,173.8 575.7,170.1 576.2,167.8 576.6,166.4 577.1,167.8 577.5,167.8 577.9,172.1 578.4,181.9 578.8,188.4 579.3,189.0 579.7,190.5 580.2,197.9 580.6,202.2 581.0,201.6 581.5,205.1 581.9,204.2 582.4,251.1 582.8,259.2 583.3,249.7 583.7,246.0 584.2,246.0 584.6,247.4 585.0,255.7 585.5,249.4 585.9,249.1 586.4,264.0 586.8,260.3 587.3,265.7 587.7,266.9 588.1,266.9 588.6,270.9 589.0,267.2 589.5,290.1 589.9,275.8 590.4,271.2 590.8,270.3 591.3,268.6 591.7,269.7 592.1,266.0 592.6,274.0 593.0,274.0 593.5,281.8 593.9,284.6 594.4,283.8 594.8,279.5 595.3,276.6 595.7,278.0 596.1,273.5 596.6,270.6 597.0,267.2 597.5,270.6 597.9,272.6 598.4,271.7 598.8,270.0 599.2,268.9 599.7,268.0 600.1,271.5 600.6,266.3 601.0,263.4 601.5,264.0 601.9,265.5 602.4,252.9 602.8,257.4 603.2,242.8 603.7,241.7 604.1,243.1 604.6,239.4 605.0,241.1 605.5,238.5 605.9,239.4 606.3,239.4 606.8,235.1 607.2,225.4 607.7,223.4 608.1,225.1 608.6,224.5 609.0,218.2 609.5,222.2 609.9,227.1 610.3,236.3 610.8,234.2 611.2,232.0 611.7,240.5 612.1,242.3 612.6,238.3 613.0,235.4 613.4,232.0 613.9,232.0 614.3,232.5 614.8,237.1 615.2,244.6 615.7,247.7 616.1,248.8 616.6,249.4 617.0,256.3 617.4,254.9 617.9,253.4 618.3,258.9 618.8,259.7 619.2,258.9 619.7,247.7 620.1,251.1 620.5,256.0 621.0,252.3 621.4,251.4 621.9,258.6 622.3,254.9 622.8,250.9 623.2,248.3 623.7,259.7 624.1,266.0 624.5,264.9 625.0,255.4 625.4,262.3 625.9,264.0 626.3,255.4 626.8,264.6 627.2,270.6 627.7,270.3 628.1,277.2 628.5,279.2 629.0,274.9 629.4,278.6 629.9,271.2 630.3,271.7 630.8,238.3 631.2,235.4 631.6,230.8 632.1,229.7 632.5,237.7 633.0,235.4 633.4,244.8 633.9,247.7 634.3,251.7 634.8,262.0 635.2,256.6 635.6,254.6 636.1,244.6 636.5,235.7 637.0,233.1 637.4,230.8 637.9,238.8 638.3,226.5 638.7,224.2 639.2,225.7 639.6,211.3 640.1,204.2 640.5,195.3 641.0,182.4 641.4,185.3 641.9,185.0 642.3,186.7 642.7,185.3 643.2,172.1 643.6,179.3 644.1,179.7 644.5,181.9 645.0,179.0 645.4,179.6 645.8,180.4 646.3,185.6 646.7,178.1 647.2,196.2 647.6,192.5 648.1,188.4 648.5,186.7 649.0,173.3 649.4,176.1 649.8,176.4 650.3,183.9 650.7,175.9 651.2,180.7 651.6,177.6 652.1,178.7 652.5,184.4 652.9,184.7 653.4,187.3 653.8,185.3 654.3,191.0 654.7,197.3 655.2,192.5 655.6,209.6 656.1,192.5 656.5,213.9 656.9,200.8 657.4,215.4 657.8,210.5 658.3,198.5 658.7,190.2 659.2,197.0 659.6,185.6 660.0,182.4 660.5,179.9 660.9,168.7 661.4,173.3 661.8,173.3 662.3,176.7 662.7,173.0 663.2,172.7 663.6,163.8 664.0,161.5 664.5,149.2 664.9,146.9 665.4,138.4 665.8,138.1 666.3,141.5 666.7,147.2 667.2,127.8 667.6,133.8 668.0,140.9 668.5,142.4 668.9,138.9 669.4,134.1 669.8,152.7 670.3,164.7 670.7,165.8 671.1,163.3 671.6,167.6 672.0,168.4 672.5,170.1 672.9,184.2 673.4,195.0 673.8,197.3 674.3,200.8 674.7,191.3 675.1,193.6 675.6,192.5 676.0,177.6 676.5,192.2 676.9,190.5 677.4,177.9 677.8,173.3 678.2,171.0 678.7,169.3 679.1,157.8 679.6,146.9 680.0,152.7 680.5,157.8 680.9,159.3 681.4,159.3 681.8,156.1 682.2,152.4 682.7,154.4 683.1,150.9 683.6,152.7 684.0,159.8 684.5,157.8 684.9,152.7 685.3,154.4 685.8,163.0 686.2,158.7 686.7,155.5 687.1,158.1 687.6,160.4 688.0,162.7 688.5,154.4 688.9,169.8 689.3,169.3 689.8,166.1 690.2,164.1 690.7,149.2 691.1,156.1 691.6,158.7 692.0,165.8 692.4,163.8 692.9,170.1 693.3,185.3 693.8,169.0 694.2,172.1 694.7,173.6 695.1,167.0 695.6,162.1 696.0,151.8"/>
  <text x="60" y="62" font-size="11" fill="#2563eb">Price index</text>
  <text x="146" y="62" font-size="11" fill="#16a34a">Total return (price + distributions)</text>
  <text x="56" y="348" font-size="11" text-anchor="middle" fill="#444">2020-09</text><text x="216" y="348" font-size="11" text-anchor="middle" fill="#444">2022-02</text><text x="376" y="348" font-size="11" text-anchor="middle" fill="#444">2023-07</text><text x="536" y="348" font-size="11" text-anchor="middle" fill="#444">2025-01</text><text x="696" y="348" font-size="11" text-anchor="middle" fill="#444">2026-06</text>
</svg>
