<svg xmlns="http://www.w3.org/2000/svg" width="820" height="410" viewBox="0 0 820 410">
<rect width="820" height="410" fill="#fafafa"/><text x="78" y="22" font-size="14" font-family="sans-serif" fill="#0f172a">ABX cumulative return since 2020-09-14 | dividends reinvested</text>
<text x="78" y="40" font-size="11" font-family="sans-serif" fill="#334155">Total return +9.0% | Price-only +5.7% | logarithmic scale</text>
<text x="78" y="54" font-size="9" font-family="sans-serif" fill="#64748b">Regular $0.20 | Special $0.00 | Other $0.00 per initial share path</text>
<line x1="78" y1="332.0" x2="796" y2="332.0" stroke="#e2e8f0"/><text x="70" y="336.0" font-size="10" text-anchor="end" fill="#64748b">-55.0%</text><line x1="78" y1="287.0" x2="796" y2="287.0" stroke="#e2e8f0"/><text x="70" y="291.0" font-size="10" text-anchor="end" fill="#64748b">-45.8%</text><line x1="78" y1="242.0" x2="796" y2="242.0" stroke="#e2e8f0"/><text x="70" y="246.0" font-size="10" text-anchor="end" fill="#64748b">-34.9%</text><line x1="78" y1="197.0" x2="796" y2="197.0" stroke="#e2e8f0"/><text x="70" y="201.0" font-size="10" text-anchor="end" fill="#64748b">-21.7%</text><line x1="78" y1="152.0" x2="796" y2="152.0" stroke="#e2e8f0"/><text x="70" y="156.0" font-size="10" text-anchor="end" fill="#64748b">-5.8%</text><line x1="78" y1="137.5" x2="796" y2="137.5" stroke="#e2e8f0"/><text x="70" y="141.5" font-size="10" text-anchor="end" fill="#64748b">0%</text><line x1="78" y1="107.0" x2="796" y2="107.0" stroke="#e2e8f0"/><text x="70" y="111.0" font-size="10" text-anchor="end" fill="#64748b">+13.3%</text><line x1="78" y1="62.0" x2="796" y2="62.0" stroke="#e2e8f0"/><text x="70" y="66.0" font-size="10" text-anchor="end" fill="#64748b">+36.3%</text>
<line x1="78" y1="332" x2="796" y2="332" stroke="#cbd5e1"/>
<polyline fill="none" stroke="#2563eb" stroke-width="2" points="78.0,137.5 78.5,137.7 79.0,135.2 79.5,135.7 80.0,136.2 80.4,135.7 80.9,134.7 81.4,136.5 81.9,136.3 82.4,137.0 82.9,134.5 83.4,135.2 83.9,137.0 84.4,135.5 84.9,136.0 85.3,136.5 85.8,137.0 86.3,137.5 86.8,135.6 87.3,136.5 87.8,137.7 88.3,137.7 88.8,136.8 89.3,136.7 89.7,138.0 90.2,136.5 90.7,136.5 91.2,137.2 91.7,137.5 92.2,137.5 92.7,137.2 93.2,137.2 93.7,137.0 94.2,137.0 94.6,137.7 95.1,137.7 95.6,137.7 96.1,136.0 96.6,136.5 97.1,136.5 97.6,136.7 98.1,135.3 98.6,137.0 99.0,136.5 99.5,134.5 100.0,136.7 100.5,136.0 101.0,135.7 101.5,136.2 102.0,135.7 102.5,132.7 103.0,135.7 103.5,133.2 103.9,133.2 104.4,135.7 104.9,134.0 105.4,133.2 105.9,133.5 106.4,132.0 106.9,132.3 107.4,132.7 107.9,134.7 108.3,134.0 108.8,132.0 109.3,131.5 109.8,130.3 110.3,131.5 110.8,132.3 111.3,131.3 111.8,131.3 112.3,131.5 112.7,132.7 113.2,130.8 113.7,129.1 114.2,129.1 114.7,128.6 115.2,126.7 115.7,125.2 116.2,127.6 116.7,127.3 117.2,127.0 117.6,126.7 118.1,126.7 118.6,124.0 119.1,117.7 119.6,119.8 120.1,121.9 120.6,121.3 121.1,121.4 121.6,118.4 122.0,117.5 122.5,120.3 123.0,125.2 123.5,124.3 124.0,121.2 124.5,121.9 125.0,120.0 125.5,117.2 126.0,117.2 126.5,118.9 126.9,117.9 127.4,118.4 127.9,118.4 128.4,119.3 128.9,119.6 129.4,119.8 129.9,118.9 130.4,118.6 130.9,117.0 131.3,117.2 131.8,119.8 132.3,121.7 132.8,118.6 133.3,124.7 133.8,127.4 134.3,126.2 134.8,127.9 135.3,130.3 135.8,131.5 136.2,125.9 136.7,130.0 137.2,128.8 137.7,132.3 138.2,132.0 138.7,132.7 139.2,133.7 139.7,131.3 140.2,130.5 140.6,132.5 141.1,131.8 141.6,133.7 142.1,134.5 142.6,136.0 143.1,134.5 143.6,134.5 144.1,134.7 144.6,136.0 145.1,135.7 145.5,134.7 146.0,133.7 146.5,135.0 147.0,134.0 147.5,133.2 148.0,132.0 148.5,132.5 149.0,133.2 149.5,132.7 149.9,132.7 150.4,134.2 150.9,134.7 151.4,135.2 151.9,134.7 152.4,134.5 152.9,135.0 153.4,134.5 153.9,135.2 154.4,134.7 154.8,133.2 155.3,135.2 155.8,134.6 156.3,134.7 156.8,135.7 157.3,135.7 157.8,135.2 158.3,135.2 158.8,135.0 159.2,135.2 159.7,136.0 160.2,135.7 160.7,135.7 161.2,135.0 161.7,136.0 162.2,135.2 162.7,135.2 163.2,136.2 163.7,135.5 164.1,136.5 164.6,136.0 165.1,136.7 165.6,136.0 166.1,136.1 166.6,135.7 167.1,135.2 167.6,135.5 168.1,135.7 168.5,135.0 169.0,135.2 169.5,135.0 170.0,135.2 170.5,135.2 171.0,135.5 171.5,135.2 172.0,135.7 172.5,135.7 173.0,135.7 173.4,134.7 173.9,135.5 174.4,135.7 174.9,135.7 175.4,135.0 175.9,136.2 176.4,134.7 176.9,134.9 177.4,135.0 177.8,135.2 178.3,135.2 178.8,135.7 179.3,135.7 179.8,135.7 180.3,135.7 180.8,135.7 181.3,136.0 181.8,136.0 182.2,136.0 182.7,135.7 183.2,136.0 183.7,135.7 184.2,136.0 184.7,136.5 185.2,136.2 185.7,136.5 186.2,136.2 186.7,135.5 187.1,136.2 187.6,135.7 188.1,136.0 188.6,135.5 189.1,136.5 189.6,136.5 190.1,136.0 190.6,136.2 191.1,136.2 191.5,135.7 192.0,136.0 192.5,136.2 193.0,136.5 193.5,136.2 194.0,136.2 194.5,135.7 195.0,135.9 195.5,135.7 196.0,136.2 196.4,136.2 196.9,135.5 197.4,135.5 197.9,135.2 198.4,136.0 198.9,135.2 199.4,135.2 199.9,135.2 200.4,135.2 200.8,135.2 201.3,135.1 201.8,135.0 202.3,135.1 202.8,134.7 203.3,134.7 203.8,135.0 204.3,135.2 204.8,135.2 205.3,134.7 205.7,134.5 206.2,134.5 206.7,134.5 207.2,134.2 207.7,134.2 208.2,134.5 208.7,134.5 209.2,134.0 209.7,134.2 210.1,134.2 210.6,134.5 211.1,134.0 211.6,134.2 212.1,134.2 212.6,134.7 213.1,134.5 213.6,134.0 214.1,134.0 214.6,134.0 215.0,133.7 215.5,134.2 216.0,133.5 216.5,133.5 217.0,134.0 217.5,134.0 218.0,134.0 218.5,133.5 219.0,133.7 219.4,133.5 219.9,134.0 220.4,134.0 220.9,134.0 221.4,133.2 221.9,133.2 222.4,133.2 222.9,133.0 223.4,132.7 223.9,133.0 224.3,133.2 224.8,133.0 225.3,132.7 225.8,132.7 226.3,132.7 226.8,133.0 227.3,133.0 227.8,132.7 228.3,133.0 228.7,132.7 229.2,133.5 229.7,133.5 230.2,133.5 230.7,133.5 231.2,133.7 231.7,134.0 232.2,133.5 232.7,133.7 233.2,133.7 233.6,134.0 234.1,133.2 234.6,133.2 235.1,134.0 235.6,133.2 236.1,133.7 236.6,133.2 237.1,133.2 237.6,133.2 238.0,133.2 238.5,133.5 239.0,133.2 239.5,133.2 240.0,133.5 240.5,133.5 241.0,133.5 241.5,133.5 242.0,133.2 242.4,133.2 242.9,133.2 243.4,133.7 243.9,133.7 244.4,133.2 244.9,133.7 245.4,133.7 245.9,133.7 246.4,133.5 246.9,133.5 247.3,133.7 247.8,133.7 248.3,133.2 248.8,133.0 249.3,133.0 249.8,133.0 250.3,133.0 250.8,132.7 251.3,132.7 251.7,132.7 252.2,133.2 252.7,133.2 253.2,133.2 253.7,133.2 254.2,133.5 254.7,133.2 255.2,133.5 255.7,133.0 256.2,133.2 256.6,133.0 257.1,133.0 257.6,133.0 258.1,132.7 258.6,133.0 259.1,132.7 259.6,132.7 260.1,132.7 260.6,132.7 261.0,132.7 261.5,132.7 262.0,132.7 262.5,132.7 263.0,132.7 263.5,132.6 264.0,132.7 264.5,132.7 265.0,132.9 265.5,132.7 265.9,132.5 266.4,132.3 266.9,132.5 267.4,132.4 267.9,132.5 268.4,132.5 268.9,132.5 269.4,132.7 269.9,132.0 270.3,132.0 270.8,132.0 271.3,132.3 271.8,132.3 272.3,132.0 272.8,132.3 273.3,132.0 273.8,131.8 274.3,131.0 274.8,131.3 275.2,131.4 275.7,131.2 276.2,131.3 276.7,131.3 277.2,131.5 277.7,131.5 278.2,131.8 278.7,131.8 279.2,131.8 279.6,131.8 280.1,131.5 280.6,131.5 281.1,131.8 281.6,132.0 282.1,132.0 282.6,132.0 283.1,131.8 283.6,132.0 284.1,132.0 284.5,131.8 285.0,132.0 285.5,131.8 286.0,131.8 286.5,131.8 287.0,131.8 287.5,131.8 288.0,131.8 288.5,131.8 288.9,131.5 289.4,131.5 289.9,131.3 290.4,131.0 290.9,131.3 291.4,131.3 291.9,131.3 292.4,131.0 292.9,130.8 293.4,131.0 293.8,131.0 294.3,130.8 294.8,131.0 295.3,131.0 295.8,130.5 296.3,130.8 296.8,130.8 297.3,130.8 297.8,130.8 298.2,130.8 298.7,130.8 299.2,130.8 299.7,130.8 300.2,130.3 300.7,130.5 301.2,130.5 301.7,130.5 302.2,130.5 302.7,130.3 303.1,130.5 303.6,130.3 304.1,130.5 304.6,130.5 305.1,130.3 305.6,130.0 306.1,130.5 306.6,130.3 307.1,130.0 307.5,129.8 308.0,129.3 308.5,129.0 309.0,129.0 309.5,128.5 310.0,129.1 310.5,129.8 311.0,129.8 311.5,129.3 311.9,129.6 312.4,129.7 312.9,129.6 313.4,129.4 313.9,129.6 314.4,129.3 314.9,129.3 315.4,129.3 315.9,129.8 316.4,126.7 316.8,128.3 317.3,129.1 317.8,129.4 318.3,129.3 318.8,129.1 319.3,129.3 319.8,129.6 320.3,129.7 320.8,129.6 321.2,129.6 321.7,129.6 322.2,129.6 322.7,129.8 323.2,128.6 323.7,128.6 324.2,126.7 324.7,128.1 325.2,128.1 325.7,128.3 326.1,128.6 326.6,128.6 327.1,127.9 327.6,128.8 328.1,128.8 328.6,129.1 329.1,129.6 329.6,129.6 330.1,129.6 330.5,129.1 331.0,129.6 331.5,129.3 332.0,129.0 332.5,129.0 333.0,128.8 333.5,128.6 334.0,128.8 334.5,128.8 335.0,128.8 335.4,129.2 335.9,129.1 336.4,128.8 336.9,128.8 337.4,128.8 337.9,128.7 338.4,128.6 338.9,128.6 339.4,128.7 339.8,128.6 340.3,128.6 340.8,128.6 341.3,128.6 341.8,128.1 342.3,128.3 342.8,128.3 343.3,128.3 343.8,128.3 344.3,128.3 344.7,128.1 345.2,128.1 345.7,128.1 346.2,128.1 346.7,128.1 347.2,128.1 347.7,128.1 348.2,127.6 348.7,127.6 349.1,128.1 349.6,128.1 350.1,128.0 350.6,128.0 351.1,128.0 351.6,128.0 352.1,128.1 352.6,128.1 353.1,128.1 353.6,128.0 354.0,128.1 354.5,127.6 355.0,127.9 355.5,127.9 356.0,127.9 356.5,127.9 357.0,127.6 357.5,127.9 358.0,126.2 358.4,126.2 358.9,126.7 359.4,127.6 359.9,127.6 360.4,127.6 360.9,126.7 361.4,126.4 361.9,125.7 362.4,125.9 362.9,125.5 363.3,125.5 363.8,125.3 364.3,125.5 364.8,125.5 365.3,124.9 365.8,125.0 366.3,125.0 366.8,126.7 367.3,125.6 367.7,125.0 368.2,126.7 368.7,126.4 369.2,125.7 369.7,125.7 370.2,125.7 370.7,125.7 371.2,126.2 371.7,126.2 372.1,126.2 372.6,126.2 373.1,126.2 373.6,126.2 374.1,126.2 374.6,126.2 375.1,126.2 375.6,123.3 376.1,125.0 376.6,122.1 377.0,117.5 377.5,117.5 378.0,119.6 378.5,119.6 379.0,119.6 379.5,119.6 380.0,125.5 380.5,125.8 381.0,125.6 381.4,125.8 381.9,125.8 382.4,125.7 382.9,125.7 383.4,125.7 383.9,125.7 384.4,125.7 384.9,125.7 385.4,125.7 385.9,125.7 386.3,125.7 386.8,124.7 387.3,124.7 387.8,124.7 388.3,123.6 388.8,124.3 389.3,124.3 389.8,123.6 390.3,124.0 390.7,123.6 391.2,123.6 391.7,124.3 392.2,121.9 392.7,123.0 393.2,124.0 393.7,124.0 394.2,123.6 394.7,123.3 395.2,123.3 395.6,123.1 396.1,123.6 396.6,122.8 397.1,122.8 397.6,120.5 398.1,123.3 398.6,122.7 399.1,122.7 399.6,123.1 400.0,123.3 400.5,123.3 401.0,123.3 401.5,123.3 402.0,123.3 402.5,123.6 403.0,123.6 403.5,123.6 404.0,123.2 404.5,123.3 404.9,122.6 405.4,122.6 405.9,122.6 406.4,121.7 406.9,123.1 407.4,121.9 407.9,123.1 408.4,122.8 408.9,122.8 409.3,122.8 409.8,123.3 410.3,123.3 410.8,123.3 411.3,123.3 411.8,123.3 412.3,123.3 412.8,123.3 413.3,123.3 413.8,122.6 414.2,121.4 414.7,121.4 415.2,121.4 415.7,119.6 416.2,121.7 416.7,120.0 417.2,119.0 417.7,113.3 418.2,116.5 418.6,121.4 419.1,121.2 419.6,124.0 420.1,132.0 420.6,135.2 421.1,107.1 421.6,137.5 422.1,129.6 422.6,110.4 423.1,142.8 423.5,129.3 424.0,167.9 424.5,171.1 425.0,182.9 425.5,188.4 426.0,184.7 426.5,199.1 427.0,206.4 427.5,231.2 427.9,260.6 428.4,262.3 428.9,265.2 429.4,258.1 429.9,258.1 430.4,254.9 430.9,246.9 431.4,250.0 431.9,245.7 432.4,236.1 432.8,244.9 433.3,251.2 433.8,244.5 434.3,245.7 434.8,263.1 435.3,254.9 435.8,261.9 436.3,250.8 436.8,220.8 437.2,197.2 437.7,200.1 438.2,200.8 438.7,197.5 439.2,206.4 439.7,201.6 440.2,197.5 440.7,204.7 441.2,211.8 441.6,150.6 442.1,143.1 442.6,145.6 443.1,153.0 443.6,151.7 444.1,154.4 444.6,156.3 445.1,179.3 445.6,200.4 446.1,192.4 446.5,181.7 447.0,176.3 447.5,195.6 448.0,193.4 448.5,212.4 449.0,208.7 449.5,216.9 450.0,213.8 450.5,224.7 450.9,235.0 451.4,225.4 451.9,209.4 452.4,216.2 452.9,223.3 453.4,209.4 453.9,219.7 454.4,203.7 454.9,219.0 455.4,217.3 455.8,224.0 456.3,217.3 456.8,233.1 457.3,229.0 457.8,243.3 458.3,239.1 458.8,235.3 459.3,225.4 459.8,246.5 460.2,246.5 460.7,250.8 461.2,247.3 461.7,240.3 462.2,252.0 462.7,248.6 463.2,250.8 463.7,250.3 464.2,243.7 464.7,243.0 465.1,230.5 465.6,224.3 466.1,220.8 466.6,217.3 467.1,218.0 467.6,223.3 468.1,227.2 468.6,253.6 469.1,256.1 469.5,247.3 470.0,243.0 470.5,234.6 471.0,235.7 471.5,213.1 472.0,217.3 472.5,213.5 473.0,213.8 473.5,215.2 474.0,220.8 474.4,216.9 474.9,215.6 475.4,222.5 475.9,217.3 476.4,213.9 476.9,217.3 477.4,220.8 477.9,194.0 478.4,185.9 478.8,177.2 479.3,183.2 479.8,181.7 480.3,174.3 480.8,185.3 481.3,180.2 481.8,176.9 482.3,158.4 482.8,158.2 483.3,128.6 483.7,138.7 484.2,123.8 484.7,119.6 485.2,115.9 485.7,120.3 486.2,101.6 486.7,114.7 487.2,115.2 487.7,101.6 488.1,104.6 488.6,100.3 489.1,99.2 489.6,96.2 490.1,85.8 490.6,83.6 491.1,86.4 491.6,85.6 492.1,84.2 492.6,78.2 493.0,80.2 493.5,77.1 494.0,76.9 494.5,76.5 495.0,80.4 495.5,77.8 496.0,76.9 496.5,76.9 497.0,78.8 497.4,94.9 497.9,78.4 498.4,84.1 498.9,79.8 499.4,79.6 499.9,79.8 500.4,79.4 500.9,78.4 501.4,87.1 501.9,90.3 502.3,84.4 502.8,87.1 503.3,93.5 503.8,89.5 504.3,83.8 504.8,90.3 505.3,93.1 505.8,105.7 506.3,102.0 506.7,106.6 507.2,100.8 507.7,103.7 508.2,81.8 508.7,81.4 509.2,81.8 509.7,81.8 510.2,82.2 510.7,81.8 511.1,82.2 511.6,83.0 512.1,84.0 512.6,81.6 513.1,92.8 513.6,82.2 514.1,81.6 514.6,85.8 515.1,88.9 515.6,85.8 516.0,87.1 516.5,85.8 517.0,87.5 517.5,88.1 518.0,96.2 518.5,84.2 519.0,87.9 519.5,85.2 520.0,90.1 520.4,89.1 520.9,89.1 521.4,88.5 521.9,84.4 522.4,86.2 522.9,86.2 523.4,87.3 523.9,89.1 524.4,86.6 524.9,92.0 525.3,88.3 525.8,84.6 526.3,84.3 526.8,86.2 527.3,84.8 527.8,86.9 528.3,86.2 528.8,86.6 529.3,92.4 529.7,86.4 530.2,93.3 530.7,96.2 531.2,94.7 531.7,101.6 532.2,103.3 532.7,112.9 533.2,113.8 533.7,92.0 534.2,90.1 534.6,129.1 535.1,98.1 535.6,91.4 536.1,96.2 536.6,111.5 537.1,113.6 537.6,121.2 538.1,93.7 538.6,118.6 539.0,120.5 539.5,112.5 540.0,123.1 540.5,125.2 541.0,155.7 541.5,136.3 542.0,164.0 542.5,169.6 543.0,165.7 543.5,161.2 543.9,153.3 544.4,165.7 544.9,156.0 545.4,161.5 545.9,157.6 546.4,161.5 546.9,173.4 547.4,172.8 547.9,170.8 548.3,169.3 548.8,167.6 549.3,166.2 549.8,160.6 550.3,169.9 550.8,173.4 551.3,128.3 551.8,129.8 552.3,112.0 552.8,114.2 553.2,128.6 553.7,132.0 554.2,143.3 554.7,143.6 555.2,139.2 555.7,139.7 556.2,140.0 556.7,152.5 557.2,148.5 557.6,142.0 558.1,124.0 558.6,116.3 559.1,121.7 559.6,114.7 560.1,119.6 560.6,114.9 561.1,123.3 561.6,118.2 562.1,107.5 562.5,125.2 563.0,129.8 563.5,123.1 564.0,123.1 564.5,122.4 565.0,125.5 565.5,130.3 566.0,125.2 566.5,126.2 566.9,126.9 567.4,130.8 567.9,129.3 568.4,132.3 568.9,135.7 569.4,134.2 569.9,132.3 570.4,125.5 570.9,133.7 571.3,133.5 571.8,120.7 572.3,133.0 572.8,125.0 573.3,118.9 573.8,116.3 574.3,115.6 574.8,121.7 575.3,123.8 575.8,127.4 576.2,140.2 576.7,141.8 577.2,142.8 577.7,137.7 578.2,141.0 578.7,137.2 579.2,145.4 579.7,136.7 580.2,124.5 580.6,130.0 581.1,136.0 581.6,134.0 582.1,136.2 582.6,143.1 583.1,141.8 583.6,164.3 584.1,161.7 584.6,153.3 585.1,155.2 585.5,156.0 586.0,166.2 586.5,165.4 587.0,165.9 587.5,168.8 588.0,166.2 588.5,168.2 589.0,164.5 589.5,161.2 589.9,155.4 590.4,168.2 590.9,178.1 591.4,162.9 591.9,170.5 592.4,174.6 592.9,171.9 593.4,171.9 593.9,159.8 594.4,164.0 594.8,198.8 595.3,195.0 595.8,190.3 596.3,182.3 596.8,179.3 597.3,187.2 597.8,186.2 598.3,187.8 598.8,186.8 599.2,186.8 599.7,190.3 600.2,183.8 600.7,187.2 601.2,188.1 601.7,186.5 602.2,189.0 602.7,194.0 603.2,198.8 603.7,200.1 604.1,193.4 604.6,190.9 605.1,199.1 605.6,187.2 606.1,192.4 606.6,192.4 607.1,189.9 607.6,192.8 608.1,187.8 608.5,193.4 609.0,198.5 609.5,204.0 610.0,220.1 610.5,213.5 611.0,203.7 611.5,200.4 612.0,204.4 612.5,202.1 613.0,199.8 613.4,196.3 613.9,195.9 614.4,186.8 614.9,187.8 615.4,184.7 615.9,191.5 616.4,188.1 616.9,191.2 617.4,195.0 617.8,191.2 618.3,196.3 618.8,186.8 619.3,190.6 619.8,196.6 620.3,197.2 620.8,196.3 621.3,191.8 621.8,195.0 622.3,195.9 622.7,196.9 623.2,197.9 623.7,193.7 624.2,203.7 624.7,212.4 625.2,201.1 625.7,194.3 626.2,191.5 626.7,190.6 627.1,198.8 627.6,195.0 628.1,199.1 628.6,202.7 629.1,209.0 629.6,197.5 630.1,205.0 630.6,200.4 631.1,196.6 631.6,197.2 632.0,189.3 632.5,191.8 633.0,203.1 633.5,195.9 634.0,199.8 634.5,205.4 635.0,210.1 635.5,212.1 636.0,196.6 636.4,200.8 636.9,206.0 637.4,188.7 637.9,196.3 638.4,214.5 638.9,215.9 639.4,230.1 639.9,213.8 640.4,212.8 640.8,189.3 641.3,182.0 641.8,184.7 642.3,184.1 642.8,180.2 643.3,182.9 643.8,180.6 644.3,175.7 644.8,175.7 645.3,176.6 645.7,177.5 646.2,178.7 646.7,176.9 647.2,177.2 647.7,176.6 648.2,176.9 648.7,178.7 649.2,177.2 649.7,173.4 650.1,160.6 650.6,164.3 651.1,160.6 651.6,158.4 652.1,157.1 652.6,158.4 653.1,158.4 653.6,162.6 654.1,172.2 654.6,179.0 655.0,179.6 655.5,181.1 656.0,189.0 656.5,193.7 657.0,193.1 657.5,196.9 658.0,195.9 658.5,254.9 659.0,266.5 659.4,252.8 659.9,247.6 660.4,247.6 660.9,249.6 661.4,261.4 661.9,252.4 662.4,252.0 662.9,273.9 663.4,268.2 663.9,276.5 664.3,278.3 664.8,278.3 665.3,284.6 665.8,278.7 666.3,317.5 666.8,292.6 667.3,285.1 667.8,283.7 668.3,281.0 668.7,282.8 669.2,277.0 669.7,289.8 670.2,289.8 670.7,302.8 671.2,307.7 671.7,306.2 672.2,298.8 672.7,294.0 673.2,296.4 673.6,288.8 674.1,284.2 674.6,278.7 675.1,284.2 675.6,287.4 676.1,286.0 676.6,283.3 677.1,281.5 677.6,280.1 678.0,285.6 678.5,277.4 679.0,273.0 679.5,273.9 680.0,276.1 680.5,257.3 681.0,264.0 681.5,243.3 682.0,241.8 682.5,243.7 682.9,238.7 683.4,241.0 683.9,237.6 684.4,238.7 684.9,238.7 685.4,233.1 685.9,220.8 686.4,218.3 686.9,220.4 687.3,219.7 687.8,212.1 688.3,216.9 688.8,222.9 689.3,234.6 689.8,232.0 690.3,229.0 690.8,240.3 691.3,242.6 691.8,237.2 692.2,233.5 692.7,229.0 693.2,229.0 693.7,229.8 694.2,235.7 694.7,245.7 695.2,250.0 695.7,251.6 696.2,252.4 696.6,262.3 697.1,260.2 697.6,258.1 698.1,266.1 698.6,267.4 699.1,266.1 699.6,250.0 700.1,254.9 700.6,261.9 701.0,256.5 701.5,255.3 702.0,265.7 702.5,260.2 703.0,254.4 703.5,250.8 704.0,267.4 704.5,277.0 705.0,275.2 705.5,261.0 705.9,271.2 706.4,273.9 706.9,261.0 707.4,274.7 707.9,284.2 708.4,283.7 708.9,295.0 709.4,298.3 709.9,291.2 710.3,297.4 710.8,285.1 711.3,286.0 711.8,237.2 712.3,233.5 712.8,227.6 713.3,226.1 713.8,236.5 714.3,233.5 714.8,246.1 715.2,250.0 715.7,255.7 716.2,270.8 716.7,262.7 717.2,259.8 717.7,245.7 718.2,233.8 718.7,230.5 719.2,227.6 719.6,238.0 720.1,222.2 720.6,219.4 721.1,221.1 721.6,204.0 722.1,195.9 722.6,186.2 723.1,172.8 723.6,175.7 724.1,175.4 724.5,177.2 725.0,175.7 725.5,162.6 726.0,169.6 726.5,170.1 727.0,172.2 727.5,169.3 728.0,169.9 728.5,170.8 728.9,176.0 729.4,168.5 729.9,187.2 730.4,183.2 730.9,179.0 731.4,177.2 731.9,163.7 732.4,166.5 732.9,166.8 733.4,174.3 733.8,166.2 734.3,171.1 734.8,167.9 735.3,169.1 735.8,174.8 736.3,175.1 736.8,177.8 737.3,175.7 737.8,181.7 738.2,188.4 738.7,183.2 739.2,202.1 739.7,183.2 740.2,207.0 740.7,192.1 741.2,208.7 741.7,203.1 742.2,189.6 742.7,180.8 743.1,188.1 743.6,176.0 744.1,172.8 744.6,170.2 745.1,159.3 745.6,163.7 746.1,163.7 746.6,167.1 747.1,163.4 747.5,163.1 748.0,154.6 748.5,152.5 749.0,141.3 749.5,139.2 750.0,131.8 750.5,131.5 751.0,134.5 751.5,139.5 752.0,122.8 752.4,127.9 752.9,134.0 753.4,135.2 753.9,132.3 754.4,128.1 754.9,144.3 755.4,155.4 755.9,156.5 756.4,154.1 756.8,158.2 757.3,159.0 757.8,160.6 758.3,174.6 758.8,185.9 759.3,188.4 759.8,192.1 760.3,182.0 760.8,184.4 761.3,183.2 761.7,167.9 762.2,182.9 762.7,181.1 763.2,168.2 763.7,163.7 764.2,161.5 764.7,159.8 765.2,149.0 765.7,139.2 766.1,144.3 766.6,149.0 767.1,150.4 767.6,150.4 768.1,147.5 768.6,144.1 769.1,145.9 769.6,142.8 770.1,144.3 770.5,150.9 771.0,149.0 771.5,144.3 772.0,145.9 772.5,153.8 773.0,149.8 773.5,146.9 774.0,149.3 774.5,151.4 775.0,153.6 775.4,145.9 775.9,160.4 776.4,159.8 776.9,156.8 777.4,154.9 777.9,141.3 778.4,147.5 778.9,149.8 779.4,156.5 779.8,154.6 780.3,160.6 780.8,175.7 781.3,159.5 781.8,162.6 782.3,164.0 782.8,157.6 783.3,153.0 783.8,145.4 784.3,140.5 784.7,139.0 785.2,136.7 785.7,138.7 786.2,149.3 786.7,141.3 787.2,139.5 787.7,148.0 788.2,149.6 788.7,132.5 789.1,112.7 789.6,113.6 790.1,92.4 790.6,88.7 791.1,85.8 791.6,89.9 792.1,93.5 792.6,86.0 793.1,104.6 793.6,107.1 794.0,104.0 794.5,109.7 795.0,118.2 795.5,121.7 796.0,124.0"/><polyline fill="none" stroke="#16a34a" stroke-width="3" points="78.0,137.5 78.5,137.7 79.0,135.2 79.5,135.7 80.0,136.2 80.4,135.7 80.9,134.7 81.4,136.5 81.9,136.3 82.4,137.0 82.9,134.5 83.4,135.2 83.9,137.0 84.4,135.5 84.9,136.0 85.3,136.5 85.8,137.0 86.3,137.5 86.8,135.6 87.3,136.5 87.8,137.7 88.3,137.7 88.8,136.8 89.3,136.7 89.7,138.0 90.2,136.5 90.7,136.5 91.2,137.2 91.7,137.5 92.2,137.5 92.7,137.2 93.2,137.2 93.7,137.0 94.2,137.0 94.6,137.7 95.1,137.7 95.6,137.7 96.1,136.0 96.6,136.5 97.1,136.5 97.6,136.7 98.1,135.3 98.6,137.0 99.0,136.5 99.5,134.5 100.0,136.7 100.5,136.0 101.0,135.7 101.5,136.2 102.0,135.7 102.5,132.7 103.0,135.7 103.5,133.2 103.9,133.2 104.4,135.7 104.9,134.0 105.4,133.2 105.9,133.5 106.4,132.0 106.9,132.3 107.4,132.7 107.9,134.7 108.3,134.0 108.8,132.0 109.3,131.5 109.8,130.3 110.3,131.5 110.8,132.3 111.3,131.3 111.8,131.3 112.3,131.5 112.7,132.7 113.2,130.8 113.7,129.1 114.2,129.1 114.7,128.6 115.2,126.7 115.7,125.2 116.2,127.6 116.7,127.3 117.2,127.0 117.6,126.7 118.1,126.7 118.6,124.0 119.1,117.7 119.6,119.8 120.1,121.9 120.6,121.3 121.1,121.4 121.6,118.4 122.0,117.5 122.5,120.3 123.0,125.2 123.5,124.3 124.0,121.2 124.5,121.9 125.0,120.0 125.5,117.2 126.0,117.2 126.5,118.9 126.9,117.9 127.4,118.4 127.9,118.4 128.4,119.3 128.9,119.6 129.4,119.8 129.9,118.9 130.4,118.6 130.9,117.0 131.3,117.2 131.8,119.8 132.3,121.7 132.8,118.6 133.3,124.7 133.8,127.4 134.3,126.2 134.8,127.9 135.3,130.3 135.8,131.5 136.2,125.9 136.7,130.0 137.2,128.8 137.7,132.3 138.2,132.0 138.7,132.7 139.2,133.7 139.7,131.3 140.2,130.5 140.6,132.5 141.1,131.8 141.6,133.7 142.1,134.5 142.6,136.0 143.1,134.5 143.6,134.5 144.1,134.7 144.6,136.0 145.1,135.7 145.5,134.7 146.0,133.7 146.5,135.0 147.0,134.0 147.5,133.2 148.0,132.0 148.5,132.5 149.0,133.2 149.5,132.7 149.9,132.7 150.4,134.2 150.9,134.7 151.4,135.2 151.9,134.7 152.4,134.5 152.9,135.0 153.4,134.5 153.9,135.2 154.4,134.7 154.8,133.2 155.3,135.2 155.8,134.6 156.3,134.7 156.8,135.7 157.3,135.7 157.8,135.2 158.3,135.2 158.8,135.0 159.2,135.2 159.7,136.0 160.2,135.7 160.7,135.7 161.2,135.0 161.7,136.0 162.2,135.2 162.7,135.2 163.2,136.2 163.7,135.5 164.1,136.5 164.6,136.0 165.1,136.7 165.6,136.0 166.1,136.1 166.6,135.7 167.1,135.2 167.6,135.5 168.1,135.7 168.5,135.0 169.0,135.2 169.5,135.0 170.0,135.2 170.5,135.2 171.0,135.5 171.5,135.2 172.0,135.7 172.5,135.7 173.0,135.7 173.4,134.7 173.9,135.5 174.4,135.7 174.9,135.7 175.4,135.0 175.9,136.2 176.4,134.7 176.9,134.9 177.4,135.0 177.8,135.2 178.3,135.2 178.8,135.7 179.3,135.7 179.8,135.7 180.3,135.7 180.8,135.7 181.3,136.0 181.8,136.0 182.2,136.0 182.7,135.7 183.2,136.0 183.7,135.7 184.2,136.0 184.7,136.5 185.2,136.2 185.7,136.5 186.2,136.2 186.7,135.5 187.1,136.2 187.6,135.7 188.1,136.0 188.6,135.5 189.1,136.5 189.6,136.5 190.1,136.0 190.6,136.2 191.1,136.2 191.5,135.7 192.0,136.0 192.5,136.2 193.0,136.5 193.5,136.2 194.0,136.2 194.5,135.7 195.0,135.9 195.5,135.7 196.0,136.2 196.4,136.2 196.9,135.5 197.4,135.5 197.9,135.2 198.4,136.0 198.9,135.2 199.4,135.2 199.9,135.2 200.4,135.2 200.8,135.2 201.3,135.1 201.8,135.0 202.3,135.1 202.8,134.7 203.3,134.7 203.8,135.0 204.3,135.2 204.8,135.2 205.3,134.7 205.7,134.5 206.2,134.5 206.7,134.5 207.2,134.2 207.7,134.2 208.2,134.5 208.7,134.5 209.2,134.0 209.7,134.2 210.1,134.2 210.6,134.5 211.1,134.0 211.6,134.2 212.1,134.2 212.6,134.7 213.1,134.5 213.6,134.0 214.1,134.0 214.6,134.0 215.0,133.7 215.5,134.2 216.0,133.5 216.5,133.5 217.0,134.0 217.5,134.0 218.0,134.0 218.5,133.5 219.0,133.7 219.4,133.5 219.9,134.0 220.4,134.0 220.9,134.0 221.4,133.2 221.9,133.2 222.4,133.2 222.9,133.0 223.4,132.7 223.9,133.0 224.3,133.2 224.8,133.0 225.3,132.7 225.8,132.7 226.3,132.7 226.8,133.0 227.3,133.0 227.8,132.7 228.3,133.0 228.7,132.7 229.2,133.5 229.7,133.5 230.2,133.5 230.7,133.5 231.2,133.7 231.7,134.0 232.2,133.5 232.7,133.7 233.2,133.7 233.6,134.0 234.1,133.2 234.6,133.2 235.1,134.0 235.6,133.2 236.1,133.7 236.6,133.2 237.1,133.2 237.6,133.2 238.0,133.2 238.5,133.5 239.0,133.2 239.5,133.2 240.0,133.5 240.5,133.5 241.0,133.5 241.5,133.5 242.0,133.2 242.4,133.2 242.9,133.2 243.4,133.7 243.9,133.7 244.4,133.2 244.9,133.7 245.4,133.7 245.9,133.7 246.4,133.5 246.9,133.5 247.3,133.7 247.8,133.7 248.3,133.2 248.8,133.0 249.3,133.0 249.8,133.0 250.3,133.0 250.8,132.7 251.3,132.7 251.7,132.7 252.2,133.2 252.7,133.2 253.2,133.2 253.7,133.2 254.2,133.5 254.7,133.2 255.2,133.5 255.7,133.0 256.2,133.2 256.6,133.0 257.1,133.0 257.6,133.0 258.1,132.7 258.6,133.0 259.1,132.7 259.6,132.7 260.1,132.7 260.6,132.7 261.0,132.7 261.5,132.7 262.0,132.7 262.5,132.7 263.0,132.7 263.5,132.6 264.0,132.7 264.5,132.7 265.0,132.9 265.5,132.7 265.9,132.5 266.4,132.3 266.9,132.5 267.4,132.4 267.9,132.5 268.4,132.5 268.9,132.5 269.4,132.7 269.9,132.0 270.3,132.0 270.8,132.0 271.3,132.3 271.8,132.3 272.3,132.0 272.8,132.3 273.3,132.0 273.8,131.8 274.3,131.0 274.8,131.3 275.2,131.4 275.7,131.2 276.2,131.3 276.7,131.3 277.2,131.5 277.7,131.5 278.2,131.8 278.7,131.8 279.2,131.8 279.6,131.8 280.1,131.5 280.6,131.5 281.1,131.8 281.6,132.0 282.1,132.0 282.6,132.0 283.1,131.8 283.6,132.0 284.1,132.0 284.5,131.8 285.0,132.0 285.5,131.8 286.0,131.8 286.5,131.8 287.0,131.8 287.5,131.8 288.0,131.8 288.5,131.8 288.9,131.5 289.4,131.5 289.9,131.3 290.4,131.0 290.9,131.3 291.4,131.3 291.9,131.3 292.4,131.0 292.9,130.8 293.4,131.0 293.8,131.0 294.3,130.8 294.8,131.0 295.3,131.0 295.8,130.5 296.3,130.8 296.8,130.8 297.3,130.8 297.8,130.8 298.2,130.8 298.7,130.8 299.2,130.8 299.7,130.8 300.2,130.3 300.7,130.5 301.2,130.5 301.7,130.5 302.2,130.5 302.7,130.3 303.1,130.5 303.6,130.3 304.1,130.5 304.6,130.5 305.1,130.3 305.6,130.0 306.1,130.5 306.6,130.3 307.1,130.0 307.5,129.8 308.0,129.3 308.5,129.0 309.0,129.0 309.5,128.5 310.0,129.1 310.5,129.8 311.0,129.8 311.5,129.3 311.9,129.6 312.4,129.7 312.9,129.6 313.4,129.4 313.9,129.6 314.4,129.3 314.9,129.3 315.4,129.3 315.9,129.8 316.4,126.7 316.8,128.3 317.3,129.1 317.8,129.4 318.3,129.3 318.8,129.1 319.3,129.3 319.8,129.6 320.3,129.7 320.8,129.6 321.2,129.6 321.7,129.6 322.2,129.6 322.7,129.8 323.2,128.6 323.7,128.6 324.2,126.7 324.7,128.1 325.2,128.1 325.7,128.3 326.1,128.6 326.6,128.6 327.1,127.9 327.6,128.8 328.1,128.8 328.6,129.1 329.1,129.6 329.6,129.6 330.1,129.6 330.5,129.1 331.0,129.6 331.5,129.3 332.0,129.0 332.5,129.0 333.0,128.8 333.5,128.6 334.0,128.8 334.5,128.8 335.0,128.8 335.4,129.2 335.9,129.1 336.4,128.8 336.9,128.8 337.4,128.8 337.9,128.7 338.4,128.6 338.9,128.6 339.4,128.7 339.8,128.6 340.3,128.6 340.8,128.6 341.3,128.6 341.8,128.1 342.3,128.3 342.8,128.3 343.3,128.3 343.8,128.3 344.3,128.3 344.7,128.1 345.2,128.1 345.7,128.1 346.2,128.1 346.7,128.1 347.2,128.1 347.7,128.1 348.2,127.6 348.7,127.6 349.1,128.1 349.6,128.1 350.1,128.0 350.6,128.0 351.1,128.0 351.6,128.0 352.1,128.1 352.6,128.1 353.1,128.1 353.6,128.0 354.0,128.1 354.5,127.6 355.0,127.9 355.5,127.9 356.0,127.9 356.5,127.9 357.0,127.6 357.5,127.9 358.0,126.2 358.4,126.2 358.9,126.7 359.4,127.6 359.9,127.6 360.4,127.6 360.9,126.7 361.4,126.4 361.9,125.7 362.4,125.9 362.9,125.5 363.3,125.5 363.8,125.3 364.3,125.5 364.8,125.5 365.3,124.9 365.8,125.0 366.3,125.0 366.8,126.7 367.3,125.6 367.7,125.0 368.2,126.7 368.7,126.4 369.2,125.7 369.7,125.7 370.2,125.7 370.7,125.7 371.2,126.2 371.7,126.2 372.1,126.2 372.6,126.2 373.1,126.2 373.6,126.2 374.1,126.2 374.6,126.2 375.1,126.2 375.6,123.3 376.1,125.0 376.6,122.1 377.0,117.5 377.5,117.5 378.0,119.6 378.5,119.6 379.0,119.6 379.5,119.6 380.0,125.5 380.5,125.8 381.0,125.6 381.4,125.8 381.9,125.8 382.4,125.7 382.9,125.7 383.4,125.7 383.9,125.7 384.4,125.7 384.9,125.7 385.4,125.7 385.9,125.7 386.3,125.7 386.8,124.7 387.3,124.7 387.8,124.7 388.3,123.6 388.8,124.3 389.3,124.3 389.8,123.6 390.3,124.0 390.7,123.6 391.2,123.6 391.7,124.3 392.2,121.9 392.7,123.0 393.2,124.0 393.7,124.0 394.2,123.6 394.7,123.3 395.2,123.3 395.6,123.1 396.1,123.6 396.6,122.8 397.1,122.8 397.6,120.5 398.1,123.3 398.6,122.7 399.1,122.7 399.6,123.1 400.0,123.3 400.5,123.3 401.0,123.3 401.5,123.3 402.0,123.3 402.5,123.6 403.0,123.6 403.5,123.6 404.0,123.2 404.5,123.3 404.9,122.6 405.4,122.6 405.9,122.6 406.4,121.7 406.9,123.1 407.4,121.9 407.9,123.1 408.4,122.8 408.9,122.8 409.3,122.8 409.8,123.3 410.3,123.3 410.8,123.3 411.3,123.3 411.8,123.3 412.3,123.3 412.8,123.3 413.3,123.3 413.8,122.6 414.2,121.4 414.7,121.4 415.2,121.4 415.7,119.6 416.2,121.7 416.7,120.0 417.2,119.0 417.7,113.3 418.2,116.5 418.6,121.4 419.1,121.2 419.6,124.0 420.1,132.0 420.6,135.2 421.1,107.1 421.6,137.5 422.1,129.6 422.6,110.4 423.1,142.8 423.5,129.3 424.0,167.9 424.5,171.1 425.0,182.9 425.5,188.4 426.0,184.7 426.5,199.1 427.0,206.4 427.5,231.2 427.9,260.6 428.4,262.3 428.9,265.2 429.4,258.1 429.9,258.1 430.4,254.9 430.9,246.9 431.4,250.0 431.9,245.7 432.4,236.1 432.8,244.9 433.3,251.2 433.8,244.5 434.3,245.7 434.8,263.1 435.3,254.9 435.8,261.9 436.3,250.8 436.8,220.8 437.2,197.2 437.7,200.1 438.2,200.8 438.7,197.5 439.2,206.4 439.7,201.6 440.2,197.5 440.7,204.7 441.2,211.8 441.6,150.6 442.1,143.1 442.6,145.6 443.1,153.0 443.6,151.7 444.1,154.4 444.6,156.3 445.1,179.3 445.6,200.4 446.1,192.4 446.5,181.7 447.0,176.3 447.5,195.6 448.0,193.4 448.5,212.4 449.0,208.7 449.5,216.9 450.0,213.8 450.5,224.7 450.9,235.0 451.4,225.4 451.9,209.4 452.4,216.2 452.9,223.3 453.4,209.4 453.9,219.7 454.4,203.7 454.9,219.0 455.4,217.3 455.8,224.0 456.3,217.3 456.8,233.1 457.3,229.0 457.8,243.3 458.3,239.1 458.8,235.3 459.3,225.4 459.8,246.5 460.2,246.5 460.7,250.8 461.2,247.3 461.7,240.3 462.2,252.0 462.7,248.6 463.2,250.8 463.7,250.3 464.2,243.7 464.7,243.0 465.1,230.5 465.6,224.3 466.1,220.8 466.6,217.3 467.1,218.0 467.6,223.3 468.1,227.2 468.6,253.6 469.1,256.1 469.5,247.3 470.0,243.0 470.5,234.6 471.0,235.7 471.5,213.1 472.0,217.3 472.5,213.5 473.0,213.8 473.5,215.2 474.0,220.8 474.4,216.9 474.9,215.6 475.4,222.5 475.9,217.3 476.4,213.9 476.9,217.3 477.4,220.8 477.9,194.0 478.4,185.9 478.8,177.2 479.3,183.2 479.8,181.7 480.3,174.3 480.8,185.3 481.3,180.2 481.8,176.9 482.3,158.4 482.8,158.2 483.3,128.6 483.7,138.7 484.2,123.8 484.7,119.6 485.2,115.9 485.7,120.3 486.2,101.6 486.7,114.7 487.2,115.2 487.7,101.6 488.1,104.6 488.6,100.3 489.1,99.2 489.6,96.2 490.1,85.8 490.6,83.6 491.1,86.4 491.6,85.6 492.1,84.2 492.6,78.2 493.0,80.2 493.5,77.1 494.0,76.9 494.5,76.5 495.0,80.4 495.5,77.8 496.0,76.9 496.5,76.9 497.0,78.8 497.4,94.9 497.9,78.4 498.4,84.1 498.9,79.8 499.4,79.6 499.9,79.8 500.4,79.4 500.9,78.4 501.4,87.1 501.9,90.3 502.3,84.4 502.8,87.1 503.3,93.5 503.8,89.5 504.3,83.8 504.8,90.3 505.3,93.1 505.8,105.7 506.3,102.0 506.7,106.6 507.2,100.8 507.7,103.7 508.2,81.8 508.7,81.4 509.2,81.8 509.7,81.8 510.2,82.2 510.7,81.8 511.1,82.2 511.6,83.0 512.1,84.0 512.6,81.6 513.1,92.8 513.6,82.2 514.1,81.6 514.6,85.8 515.1,88.9 515.6,85.8 516.0,87.1 516.5,85.8 517.0,87.5 517.5,88.1 518.0,96.2 518.5,84.2 519.0,87.9 519.5,85.2 520.0,90.1 520.4,89.1 520.9,89.1 521.4,88.5 521.9,84.4 522.4,86.2 522.9,86.2 523.4,87.3 523.9,89.1 524.4,86.6 524.9,92.0 525.3,88.3 525.8,84.6 526.3,84.3 526.8,86.2 527.3,84.8 527.8,86.9 528.3,86.2 528.8,86.6 529.3,92.4 529.7,86.4 530.2,93.3 530.7,96.2 531.2,94.7 531.7,101.6 532.2,103.3 532.7,112.9 533.2,113.8 533.7,92.0 534.2,90.1 534.6,129.1 535.1,98.1 535.6,91.4 536.1,96.2 536.6,111.5 537.1,113.6 537.6,121.2 538.1,93.7 538.6,118.6 539.0,120.5 539.5,112.5 540.0,123.1 540.5,125.2 541.0,155.7 541.5,136.3 542.0,164.0 542.5,169.6 543.0,165.7 543.5,161.2 543.9,153.3 544.4,165.7 544.9,156.0 545.4,161.5 545.9,157.6 546.4,161.5 546.9,173.4 547.4,172.8 547.9,170.8 548.3,169.3 548.8,167.6 549.3,166.2 549.8,160.6 550.3,169.9 550.8,173.4 551.3,128.3 551.8,129.8 552.3,112.0 552.8,114.2 553.2,128.6 553.7,132.0 554.2,143.3 554.7,143.6 555.2,139.2 555.7,139.7 556.2,140.0 556.7,152.5 557.2,148.5 557.6,142.0 558.1,124.0 558.6,116.3 559.1,121.7 559.6,114.7 560.1,119.6 560.6,114.9 561.1,123.3 561.6,118.2 562.1,107.5 562.5,125.2 563.0,129.8 563.5,123.1 564.0,123.1 564.5,122.4 565.0,125.5 565.5,130.3 566.0,125.2 566.5,126.2 566.9,126.9 567.4,130.8 567.9,129.3 568.4,132.3 568.9,135.7 569.4,134.2 569.9,132.3 570.4,125.5 570.9,133.7 571.3,133.5 571.8,120.7 572.3,133.0 572.8,125.0 573.3,118.9 573.8,116.3 574.3,115.6 574.8,121.7 575.3,123.8 575.8,127.4 576.2,140.2 576.7,141.8 577.2,142.8 577.7,137.7 578.2,141.0 578.7,137.2 579.2,145.4 579.7,136.7 580.2,124.5 580.6,130.0 581.1,136.0 581.6,134.0 582.1,136.2 582.6,143.1 583.1,141.8 583.6,164.3 584.1,161.7 584.6,153.3 585.1,155.2 585.5,156.0 586.0,166.2 586.5,165.4 587.0,165.9 587.5,168.8 588.0,166.2 588.5,168.2 589.0,164.5 589.5,161.2 589.9,155.4 590.4,168.2 590.9,178.1 591.4,162.9 591.9,170.5 592.4,174.6 592.9,171.9 593.4,171.9 593.9,159.8 594.4,164.0 594.8,198.8 595.3,195.0 595.8,190.3 596.3,182.3 596.8,179.3 597.3,187.2 597.8,186.2 598.3,187.8 598.8,186.8 599.2,186.8 599.7,190.3 600.2,183.8 600.7,187.2 601.2,188.1 601.7,186.5 602.2,189.0 602.7,194.0 603.2,198.8 603.7,200.1 604.1,193.4 604.6,190.9 605.1,199.1 605.6,187.2 606.1,192.4 606.6,192.4 607.1,189.9 607.6,192.8 608.1,187.8 608.5,193.4 609.0,198.5 609.5,204.0 610.0,220.1 610.5,213.5 611.0,203.7 611.5,200.4 612.0,204.4 612.5,202.1 613.0,199.8 613.4,196.3 613.9,195.9 614.4,186.8 614.9,187.8 615.4,184.7 615.9,191.5 616.4,188.1 616.9,191.2 617.4,195.0 617.8,191.2 618.3,196.3 618.8,186.8 619.3,190.6 619.8,196.6 620.3,197.2 620.8,196.3 621.3,191.8 621.8,195.0 622.3,195.9 622.7,196.9 623.2,197.9 623.7,193.7 624.2,203.7 624.7,212.4 625.2,201.1 625.7,194.3 626.2,191.5 626.7,190.6 627.1,198.8 627.6,195.0 628.1,199.1 628.6,202.7 629.1,209.0 629.6,197.5 630.1,205.0 630.6,200.4 631.1,196.6 631.6,197.2 632.0,189.3 632.5,191.8 633.0,203.1 633.5,195.9 634.0,199.8 634.5,205.4 635.0,210.1 635.5,212.1 636.0,196.6 636.4,200.8 636.9,206.0 637.4,188.7 637.9,196.3 638.4,214.5 638.9,215.9 639.4,230.1 639.9,213.8 640.4,212.8 640.8,189.3 641.3,182.0 641.8,184.7 642.3,184.1 642.8,180.2 643.3,182.9 643.8,180.6 644.3,175.7 644.8,175.7 645.3,176.6 645.7,177.5 646.2,178.7 646.7,176.9 647.2,177.2 647.7,176.6 648.2,176.9 648.7,178.7 649.2,177.2 649.7,173.4 650.1,160.6 650.6,164.3 651.1,160.6 651.6,158.4 652.1,157.1 652.6,158.4 653.1,158.4 653.6,162.6 654.1,172.2 654.6,179.0 655.0,179.6 655.5,181.1 656.0,189.0 656.5,193.7 657.0,193.1 657.5,196.9 658.0,195.9 658.5,254.9 659.0,266.5 659.4,252.8 659.9,247.6 660.4,247.6 660.9,249.6 661.4,261.4 661.9,252.4 662.4,252.0 662.9,273.9 663.4,268.2 663.9,276.5 664.3,278.3 664.8,278.3 665.3,284.6 665.8,278.7 666.3,317.5 666.8,292.6 667.3,285.1 667.8,283.7 668.3,281.0 668.7,282.8 669.2,277.0 669.7,289.8 670.2,289.8 670.7,302.8 671.2,307.7 671.7,306.2 672.2,298.8 672.7,294.0 673.2,296.4 673.6,288.8 674.1,284.2 674.6,278.7 675.1,284.2 675.6,287.4 676.1,286.0 676.6,283.3 677.1,281.5 677.6,280.1 678.0,285.6 678.5,277.4 679.0,273.0 679.5,273.9 680.0,276.1 680.5,257.3 681.0,264.0 681.5,243.3 682.0,241.8 682.5,243.7 682.9,238.7 683.4,241.0 683.9,237.6 684.4,238.7 684.9,238.7 685.4,233.1 685.9,220.8 686.4,218.3 686.9,220.4 687.3,219.7 687.8,212.1 688.3,216.9 688.8,222.9 689.3,234.6 689.8,232.0 690.3,229.0 690.8,240.3 691.3,242.6 691.8,237.2 692.2,233.5 692.7,229.0 693.2,229.0 693.7,229.8 694.2,235.7 694.7,245.7 695.2,250.0 695.7,251.6 696.2,252.4 696.6,262.3 697.1,260.2 697.6,258.1 698.1,266.1 698.6,267.4 699.1,266.1 699.6,250.0 700.1,254.9 700.6,261.9 701.0,256.5 701.5,255.3 702.0,265.7 702.5,260.2 703.0,254.4 703.5,250.8 704.0,267.4 704.5,277.0 705.0,275.2 705.5,261.0 705.9,271.2 706.4,273.9 706.9,261.0 707.4,274.7 707.9,284.2 708.4,283.7 708.9,295.0 709.4,298.3 709.9,291.2 710.3,297.4 710.8,285.1 711.3,286.0 711.8,237.2 712.3,233.5 712.8,227.6 713.3,226.1 713.8,236.5 714.3,233.5 714.8,246.1 715.2,250.0 715.7,255.7 716.2,270.8 716.7,262.7 717.2,259.8 717.7,245.7 718.2,233.8 718.7,230.5 719.2,227.6 719.6,230.5 720.1,214.7 720.6,211.9 721.1,213.7 721.6,196.6 722.1,188.5 722.6,178.8 723.1,165.3 723.6,168.3 724.1,168.0 724.5,169.7 725.0,168.3 725.5,155.1 726.0,162.2 726.5,162.6 727.0,164.8 727.5,161.9 728.0,162.5 728.5,163.3 728.9,168.6 729.4,161.0 729.9,179.7 730.4,175.7 730.9,171.5 731.4,169.7 731.9,156.2 732.4,159.0 732.9,159.3 733.4,166.8 733.8,158.8 734.3,163.6 734.8,160.5 735.3,161.6 735.8,167.4 736.3,167.7 736.8,170.3 737.3,168.3 737.8,174.2 738.2,180.9 738.7,175.7 739.2,194.6 739.7,175.7 740.2,199.6 740.7,184.7 741.2,201.2 741.7,195.6 742.2,182.2 742.7,173.3 743.1,180.6 743.6,168.6 744.1,165.3 744.6,162.7 745.1,151.8 745.6,156.2 746.1,156.2 746.6,159.6 747.1,155.9 747.5,155.7 748.0,147.2 748.5,145.0 749.0,133.8 749.5,131.8 750.0,124.3 750.5,124.0 751.0,127.0 751.5,132.0 752.0,115.4 752.4,120.4 752.9,126.5 753.4,127.7 753.9,124.8 754.4,120.6 754.9,136.9 755.4,148.0 755.9,149.1 756.4,146.6 756.8,150.7 757.3,151.5 757.8,153.2 758.3,167.1 758.8,178.5 759.3,180.9 759.8,184.7 760.3,174.5 760.8,176.9 761.3,175.7 761.7,160.5 762.2,175.4 762.7,173.6 763.2,160.7 763.7,156.2 764.2,154.0 764.7,152.3 765.2,141.6 765.7,131.8 766.1,136.9 766.6,141.6 767.1,142.9 767.6,142.9 768.1,140.0 768.6,136.6 769.1,138.4 769.6,135.3 770.1,136.9 770.5,143.4 771.0,141.6 771.5,136.9 772.0,138.4 772.5,146.4 773.0,142.4 773.5,139.5 774.0,141.8 774.5,144.0 775.0,146.1 775.4,138.4 775.9,152.9 776.4,152.3 776.9,149.3 777.4,147.4 777.9,133.8 778.4,140.0 778.9,142.4 779.4,149.1 779.8,147.2 780.3,153.2 780.8,168.3 781.3,152.1 781.8,155.1 782.3,156.5 782.8,150.1 783.3,145.6 783.8,137.9 784.3,133.0 784.7,131.5 785.2,129.2 785.7,131.3 786.2,141.8 786.7,133.8 787.2,132.0 787.7,140.5 788.2,142.1 788.7,125.0 789.1,105.2 789.6,106.1 790.1,85.0 790.6,81.2 791.1,78.4 791.6,82.5 792.1,86.0 792.6,78.6 793.1,97.2 793.6,99.6 794.0,96.5 794.5,102.3 795.0,110.7 795.5,114.2 796.0,116.6"/>
<text x="78" y="392" font-size="11" fill="#16a34a">Total return +9.0%</text><text x="268" y="392" font-size="11" fill="#2563eb">Price-only +5.7%</text><text x="78" y="362" font-size="11" text-anchor="middle" fill="#64748b">2020-09</text><text x="258" y="362" font-size="11" text-anchor="middle" fill="#64748b">2022-02</text><text x="437" y="362" font-size="11" text-anchor="middle" fill="#64748b">2023-08</text><text x="617" y="362" font-size="11" text-anchor="middle" fill="#64748b">2025-01</text><text x="796" y="362" font-size="11" text-anchor="middle" fill="#64748b">2026-07</text></svg>