<svg xmlns="http://www.w3.org/2000/svg" width="720" height="360" viewBox="0 0 720 360">
  <rect width="720" height="360" fill="#fafafa"/>
  <text x="56" y="22" font-size="13" font-family="sans-serif" fill="#222">SBR total return (rebased 100) · cumulative distributions $0.00/sh · market cap n/a</text>
  <line x1="56" y1="308" x2="696" y2="308" stroke="#ccc"/>
  <line x1="56" y1="48" x2="56" y2="308" stroke="#ccc"/>
  <polyline fill="none" stroke="#2563eb" stroke-width="2" points="56.0,215.6 58.7,209.5 61.4,219.1 64.0,216.8 66.7,182.6 69.4,229.6 72.1,232.0 74.7,238.0 77.4,233.6 80.1,232.1 82.8,226.9 85.5,230.7 88.1,230.5 90.8,229.2 93.5,222.9 96.2,208.9 98.8,208.7 101.5,227.3 104.2,226.3 106.9,202.9 109.6,199.0 112.2,190.7 114.9,143.9 117.6,131.9 120.3,149.4 122.9,136.8 125.6,178.1 128.3,206.5 131.0,230.3 133.7,234.6 136.3,227.1 139.0,270.3 141.7,256.0 144.4,249.3 147.0,232.7 149.7,222.0 152.4,242.0 155.1,242.3 157.8,236.9 160.4,231.7 163.1,233.2 165.8,234.5 168.5,229.7 171.1,208.5 173.8,217.0 176.5,189.2 179.2,201.0 181.9,211.3 184.5,190.5 187.2,197.6 189.9,189.1 192.6,186.3 195.2,168.6 197.9,164.4 200.6,158.6 203.3,145.4 206.0,160.3 208.6,128.2 211.3,139.8 214.0,148.6 216.7,146.5 219.3,154.5 222.0,151.3 224.7,140.0 227.4,139.6 230.1,151.2 232.7,155.2 235.4,146.4 238.1,162.2 240.8,171.0 243.4,204.0 246.1,200.0 248.8,187.7 251.5,190.5 254.2,194.2 256.8,207.8 259.5,208.4 262.2,239.0 264.9,212.4 267.5,213.4 270.2,213.2 272.9,197.3 275.6,190.2 278.3,194.2 280.9,195.8 283.6,192.8 286.3,197.3 289.0,197.5 291.6,194.1 294.3,198.4 297.0,197.9 299.7,197.3 302.4,202.4 305.0,193.9 307.7,174.9 310.4,160.5 313.1,175.0 315.7,174.0 318.4,184.5 321.1,192.6 323.8,207.1 326.5,254.1 329.1,239.3 331.8,228.0 334.5,240.7 337.2,236.9 339.8,240.2 342.5,246.7 345.2,264.3 347.9,265.7 350.6,273.8 353.2,267.8 355.9,264.9 358.6,290.1 361.3,265.4 363.9,268.5 366.6,277.5 369.3,266.3 372.0,260.3 374.7,263.1 377.3,250.3 380.0,252.4 382.7,250.4 385.4,252.6 388.1,256.7 390.7,256.5 393.4,239.0 396.1,250.7 398.8,254.8 401.4,248.8 404.1,244.4 406.8,242.9 409.5,237.6 412.2,237.1 414.8,235.2 417.5,229.5 420.2,224.6 422.9,220.9 425.5,214.1 428.2,226.9 430.9,223.3 433.6,214.6 436.3,204.2 438.9,211.4 441.6,218.2 444.3,223.7 447.0,229.9 449.6,249.9 452.3,246.9 455.0,248.5 457.7,230.9 460.4,220.6 463.0,213.5 465.7,204.2 468.4,218.2 471.1,206.8 473.7,214.3 476.4,229.2 479.1,225.4 481.8,244.7 484.5,238.3 487.1,237.1 489.8,243.7 492.5,256.1 495.2,284.9 497.8,284.6 500.5,283.6 503.2,284.6 505.9,279.3 508.6,275.0 511.2,279.4 513.9,282.5 516.6,279.0 519.3,282.7 521.9,276.0 524.6,265.1 527.3,274.6 530.0,257.8 532.7,254.0 535.3,237.0 538.0,236.3 540.7,243.5 543.4,227.5 546.0,227.9 548.7,231.2 551.4,231.9 554.1,197.3 556.8,168.4 559.4,171.2 562.1,150.4 564.8,99.8 567.5,159.4 570.1,123.5 572.8,97.7 575.5,120.9 578.2,72.4 580.9,86.8 583.5,66.7 586.2,65.9 588.9,108.7 591.6,118.2 594.2,105.6 596.9,127.9 599.6,140.3 602.3,132.8 605.0,139.4 607.6,140.5 610.3,171.2 613.0,151.9 615.7,133.1 618.3,158.3 621.0,163.1 623.7,149.2 626.4,157.0 629.1,141.1 631.7,145.0 634.4,151.3 637.1,146.7 639.8,156.1 642.4,158.8 645.1,143.9 647.8,144.6 650.5,139.4 653.2,142.3 655.8,133.7 658.5,140.7 661.2,138.9 663.9,137.5 666.5,139.0 669.2,108.8 671.9,89.3 674.6,117.7 677.3,97.1 679.9,130.4 682.6,119.9 685.3,113.9 688.0,104.8 690.6,100.9 693.3,107.0 696.0,94.0"/>
  <polyline fill="none" stroke="#16a34a" stroke-width="2" points="56.0,215.6 58.7,209.5 61.4,219.1 64.0,216.8 66.7,182.6 69.4,229.6 72.1,232.0 74.7,238.0 77.4,233.6 80.1,232.1 82.8,226.9 85.5,230.7 88.1,230.5 90.8,229.2 93.5,222.9 96.2,208.9 98.8,208.7 101.5,227.3 104.2,226.3 106.9,202.9 109.6,199.0 112.2,190.7 114.9,143.9 117.6,131.9 120.3,149.4 122.9,136.8 125.6,178.1 128.3,206.5 131.0,230.3 133.7,234.6 136.3,227.1 139.0,270.3 141.7,256.0 144.4,249.3 147.0,232.7 149.7,222.0 152.4,242.0 155.1,242.3 157.8,236.9 160.4,231.7 163.1,233.2 165.8,234.5 168.5,229.7 171.1,208.5 173.8,217.0 176.5,189.2 179.2,201.0 181.9,211.3 184.5,190.5 187.2,197.6 189.9,189.1 192.6,186.3 195.2,168.6 197.9,164.4 200.6,158.6 203.3,145.4 206.0,160.3 208.6,128.2 211.3,139.8 214.0,148.6 216.7,146.5 219.3,154.5 222.0,151.3 224.7,140.0 227.4,139.6 230.1,151.2 232.7,155.2 235.4,146.4 238.1,162.2 240.8,171.0 243.4,204.0 246.1,200.0 248.8,187.7 251.5,190.5 254.2,194.2 256.8,207.8 259.5,208.4 262.2,239.0 264.9,212.4 267.5,213.4 270.2,213.2 272.9,197.3 275.6,190.2 278.3,194.2 280.9,195.8 283.6,192.8 286.3,197.3 289.0,197.5 291.6,194.1 294.3,198.4 297.0,197.9 299.7,197.3 302.4,202.4 305.0,193.9 307.7,174.9 310.4,160.5 313.1,175.0 315.7,174.0 318.4,184.5 321.1,192.6 323.8,207.1 326.5,254.1 329.1,239.3 331.8,228.0 334.5,240.7 337.2,236.9 339.8,240.2 342.5,246.7 345.2,264.3 347.9,265.7 350.6,273.8 353.2,267.8 355.9,264.9 358.6,290.1 361.3,265.4 363.9,268.5 366.6,277.5 369.3,266.3 372.0,260.3 374.7,263.1 377.3,250.3 380.0,252.4 382.7,250.4 385.4,252.6 388.1,256.7 390.7,256.5 393.4,239.0 396.1,250.7 398.8,254.8 401.4,248.8 404.1,244.4 406.8,242.9 409.5,237.6 412.2,237.1 414.8,235.2 417.5,229.5 420.2,224.6 422.9,220.9 425.5,214.1 428.2,226.9 430.9,223.3 433.6,214.6 436.3,204.2 438.9,211.4 441.6,218.2 444.3,223.7 447.0,229.9 449.6,249.9 452.3,246.9 455.0,248.5 457.7,230.9 460.4,220.6 463.0,213.5 465.7,204.2 468.4,218.2 471.1,206.8 473.7,214.3 476.4,229.2 479.1,225.4 481.8,244.7 484.5,238.3 487.1,237.1 489.8,243.7 492.5,256.1 495.2,284.9 497.8,284.6 500.5,283.6 503.2,284.6 505.9,279.3 508.6,275.0 511.2,279.4 513.9,282.5 516.6,279.0 519.3,282.7 521.9,276.0 524.6,265.1 527.3,274.6 530.0,257.8 532.7,254.0 535.3,237.0 538.0,236.3 540.7,243.5 543.4,227.5 546.0,227.9 548.7,231.2 551.4,231.9 554.1,197.3 556.8,168.4 559.4,171.2 562.1,150.4 564.8,99.8 567.5,159.4 570.1,123.5 572.8,97.7 575.5,120.9 578.2,72.4 580.9,86.8 583.5,66.7 586.2,65.9 588.9,108.7 591.6,118.2 594.2,105.6 596.9,127.9 599.6,140.3 602.3,132.8 605.0,139.4 607.6,140.5 610.3,171.2 613.0,151.9 615.7,133.1 618.3,158.3 621.0,163.1 623.7,149.2 626.4,157.0 629.1,141.1 631.7,145.0 634.4,151.3 637.1,146.7 639.8,156.1 642.4,158.8 645.1,143.9 647.8,144.6 650.5,139.4 653.2,142.3 655.8,133.7 658.5,140.7 661.2,138.9 663.9,137.5 666.5,139.0 669.2,108.8 671.9,89.3 674.6,117.7 677.3,97.1 679.9,130.4 682.6,119.9 685.3,113.9 688.0,104.8 690.6,100.9 693.3,107.0 696.0,94.0"/>
  <text x="60" y="62" font-size="11" fill="#2563eb">Price index</text>
  <text x="146" y="62" font-size="11" fill="#16a34a">Total return (price + distributions)</text>
  <text x="56" y="348" font-size="11" text-anchor="middle" fill="#444">2006-07</text><text x="217" y="348" font-size="11" text-anchor="middle" fill="#444">2011-07</text><text x="377" y="348" font-size="11" text-anchor="middle" fill="#444">2016-07</text><text x="538" y="348" font-size="11" text-anchor="middle" fill="#444">2021-07</text><text x="696" y="348" font-size="11" text-anchor="middle" fill="#444">2026-06</text>
</svg>
