<svg xmlns="http://www.w3.org/2000/svg" width="720" height="360" viewBox="0 0 720 360">
  <rect width="720" height="360" fill="#fafafa"/>
  <text x="56" y="22" font-size="13" font-family="sans-serif" fill="#222">XYZ total return (rebased 100) · cumulative distributions $0.00/sh · market cap n/a</text>
  <line x1="56" y1="308" x2="696" y2="308" stroke="#ccc"/>
  <line x1="56" y1="48" x2="56" y2="308" stroke="#ccc"/>
  <polyline fill="none" stroke="#2563eb" stroke-width="2" points="56.0,286.2 56.2,286.4 56.5,287.0 56.7,287.1 57.0,287.2 57.2,287.1 57.4,287.1 57.7,287.2 57.9,287.2 58.2,287.2 58.4,287.1 58.6,286.8 58.9,287.0 59.1,287.1 59.4,287.1 59.6,287.1 59.8,286.8 60.1,286.7 60.3,286.9 60.6,286.8 60.8,286.8 61.0,286.9 61.3,286.7 61.5,286.7 61.8,286.6 62.0,286.4 62.2,286.5 62.5,286.5 62.7,286.2 62.9,287.0 63.2,287.5 63.4,287.5 63.7,287.8 63.9,287.7 64.1,287.2 64.4,287.0 64.6,287.4 64.9,288.1 65.1,288.5 65.3,289.2 65.6,289.2 65.8,288.7 66.1,288.9 66.3,288.9 66.5,289.1 66.8,289.5 67.0,289.8 67.3,289.7 67.5,289.7 67.7,290.0 68.0,290.0 68.2,289.6 68.5,289.9 68.7,290.1 68.9,289.9 69.2,289.7 69.4,289.9 69.7,289.3 69.9,288.8 70.1,288.9 70.4,288.7 70.6,288.8 70.9,288.4 71.1,289.0 71.3,288.8 71.6,288.5 71.8,288.5 72.1,288.4 72.3,288.1 72.5,287.1 72.8,286.9 73.0,287.1 73.3,286.9 73.5,287.5 73.7,287.1 74.0,287.7 74.2,287.8 74.5,287.4 74.7,287.1 74.9,287.2 75.2,287.1 75.4,287.1 75.6,285.9 75.9,286.2 76.1,286.6 76.4,286.4 76.6,285.9 76.8,285.7 77.1,284.6 77.3,284.4 77.6,285.3 77.8,285.2 78.0,285.2 78.3,284.7 78.5,284.8 78.8,284.5 79.0,284.3 79.2,284.2 79.5,284.6 79.7,284.8 80.0,285.2 80.2,285.0 80.4,285.4 80.7,285.8 80.9,286.1 81.2,286.0 81.4,285.8 81.6,285.3 81.9,284.9 82.1,284.3 82.4,284.7 82.6,285.5 82.8,285.9 83.1,286.0 83.3,286.2 83.6,288.6 83.8,288.9 84.0,288.7 84.3,289.0 84.5,289.3 84.8,289.3 85.0,289.4 85.2,289.4 85.5,289.2 85.7,289.1 86.0,289.2 86.2,289.2 86.4,288.6 86.7,288.7 86.9,288.9 87.1,289.0 87.4,289.1 87.6,289.1 87.9,289.0 88.1,289.2 88.3,289.1 88.6,289.1 88.8,289.1 89.1,289.3 89.3,289.4 89.5,289.6 89.8,289.6 90.0,289.5 90.3,289.5 90.5,289.5 90.7,289.4 91.0,289.3 91.2,289.7 91.5,289.4 91.7,289.7 91.9,289.9 92.2,289.6 92.4,289.3 92.7,289.5 92.9,289.3 93.1,289.6 93.4,289.6 93.6,289.5 93.9,289.3 94.1,289.4 94.3,289.2 94.6,289.3 94.8,289.2 95.1,289.4 95.3,289.3 95.5,289.3 95.8,289.1 96.0,289.2 96.3,289.0 96.5,288.9 96.7,288.7 97.0,288.6 97.2,288.6 97.5,288.7 97.7,288.6 97.9,288.7 98.2,288.4 98.4,287.7 98.7,287.8 98.9,287.7 99.1,287.7 99.4,287.9 99.6,287.6 99.8,287.4 100.1,287.5 100.3,287.4 100.6,287.6 100.8,287.3 101.0,287.3 101.3,287.2 101.5,286.8 101.8,287.0 102.0,286.8 102.2,287.1 102.5,287.1 102.7,287.0 103.0,286.9 103.2,287.1 103.4,287.1 103.7,287.2 103.9,287.2 104.2,287.3 104.4,287.7 104.6,287.6 104.9,287.7 105.1,287.7 105.4,287.6 105.6,287.6 105.8,287.5 106.1,287.4 106.3,287.2 106.6,287.4 106.8,287.2 107.0,287.5 107.3,287.3 107.5,287.2 107.8,287.4 108.0,287.4 108.2,287.4 108.5,287.4 108.7,287.3 109.0,287.5 109.2,287.5 109.4,287.5 109.7,287.8 109.9,287.7 110.2,287.8 110.4,287.8 110.6,288.0 110.9,287.6 111.1,287.7 111.4,287.8 111.6,287.7 111.8,287.6 112.1,287.9 112.3,287.7 112.5,287.8 112.8,287.8 113.0,287.7 113.3,287.9 113.5,287.3 113.7,287.1 114.0,286.9 114.2,286.9 114.5,286.8 114.7,287.1 114.9,287.4 115.2,287.2 115.4,286.8 115.7,287.1 115.9,287.1 116.1,286.9 116.4,287.0 116.6,286.9 116.9,286.7 117.1,286.7 117.3,286.5 117.6,286.7 117.8,286.7 118.1,286.3 118.3,286.5 118.5,286.2 118.8,286.1 119.0,286.1 119.3,285.4 119.5,285.5 119.7,285.5 120.0,285.6 120.2,285.4 120.5,285.6 120.7,285.3 120.9,285.1 121.2,285.2 121.4,285.1 121.7,285.1 121.9,285.4 122.1,285.4 122.4,285.5 122.6,285.5 122.9,285.7 123.1,285.8 123.3,285.6 123.6,285.2 123.8,285.0 124.0,284.6 124.3,284.6 124.5,284.7 124.8,284.7 125.0,284.8 125.2,284.8 125.5,284.9 125.7,284.9 126.0,284.9 126.2,284.7 126.4,285.0 126.7,284.9 126.9,285.0 127.2,285.1 127.4,285.0 127.6,285.1 127.9,284.9 128.1,285.2 128.4,285.2 128.6,285.2 128.8,285.1 129.1,285.1 129.3,285.1 129.6,284.9 129.8,285.0 130.0,285.0 130.3,285.2 130.5,285.2 130.8,285.5 131.0,285.1 131.2,284.9 131.5,284.6 131.7,282.9 132.0,282.6 132.2,282.2 132.4,282.7 132.7,282.8 132.9,283.0 133.2,283.1 133.4,283.1 133.6,283.2 133.9,283.1 134.1,282.9 134.4,283.1 134.6,283.1 134.8,283.2 135.1,283.0 135.3,282.8 135.6,282.8 135.8,282.8 136.0,283.4 136.3,283.5 136.5,283.3 136.7,283.3 137.0,282.8 137.2,282.8 137.5,282.8 137.7,282.7 137.9,282.8 138.2,283.0 138.4,283.0 138.7,283.2 138.9,283.0 139.1,283.2 139.4,283.0 139.6,283.1 139.9,282.7 140.1,283.1 140.3,282.9 140.6,283.0 140.8,282.8 141.1,282.4 141.3,282.6 141.5,282.3 141.8,282.0 142.0,282.1 142.3,282.0 142.5,282.0 142.7,281.7 143.0,281.5 143.2,281.9 143.5,280.6 143.7,280.7 143.9,280.9 144.2,280.7 144.4,280.6 144.7,280.8 144.9,280.5 145.1,280.3 145.4,280.3 145.6,280.9 145.9,280.8 146.1,280.6 146.3,279.8 146.6,279.2 146.8,279.0 147.1,278.6 147.3,278.6 147.5,278.3 147.8,278.1 148.0,277.9 148.3,277.9 148.5,277.8 148.7,277.1 149.0,277.0 149.2,276.6 149.4,278.1 149.7,277.6 149.9,277.7 150.2,277.7 150.4,277.3 150.6,277.6 150.9,277.1 151.1,277.4 151.4,277.1 151.6,277.0 151.8,277.1 152.1,277.3 152.3,277.8 152.6,277.0 152.8,277.7 153.0,277.7 153.3,278.2 153.5,277.5 153.8,277.9 154.0,277.6 154.2,277.3 154.5,276.1 154.7,275.4 155.0,275.6 155.2,275.3 155.4,275.5 155.7,275.1 155.9,275.3 156.2,275.3 156.4,274.9 156.6,275.0 156.9,274.9 157.1,274.5 157.4,275.7 157.6,275.5 157.8,275.3 158.1,275.0 158.3,275.2 158.6,276.3 158.8,276.3 159.0,275.9 159.3,275.6 159.5,276.0 159.8,276.7 160.0,276.6 160.2,276.3 160.5,276.6 160.7,276.4 160.9,276.8 161.2,276.6 161.4,276.9 161.7,276.2 161.9,276.0 162.1,275.9 162.4,276.4 162.6,276.5 162.9,276.4 163.1,275.8 163.3,275.5 163.6,275.7 163.8,275.8 164.1,275.6 164.3,275.4 164.5,275.2 164.8,274.3 165.0,274.6 165.3,274.4 165.5,273.5 165.7,273.6 166.0,273.4 166.2,273.5 166.5,273.6 166.7,273.7 166.9,273.4 167.2,274.4 167.4,274.3 167.7,273.9 167.9,273.6 168.1,273.3 168.4,272.8 168.6,272.4 168.9,272.2 169.1,271.7 169.3,271.7 169.6,271.5 169.8,271.3 170.1,270.7 170.3,270.0 170.5,270.0 170.8,269.7 171.0,270.1 171.3,270.3 171.5,270.6 171.7,270.3 172.0,270.3 172.2,270.1 172.5,270.0 172.7,269.0 172.9,268.1 173.2,267.6 173.4,266.4 173.6,267.0 173.9,267.4 174.1,266.7 174.4,266.5 174.6,266.8 174.8,266.8 175.1,265.8 175.3,264.8 175.6,264.2 175.8,264.4 176.0,263.6 176.3,262.6 176.5,260.7 176.8,259.9 177.0,257.5 177.2,256.9 177.5,256.9 177.7,263.3 178.0,262.1 178.2,264.9 178.4,264.8 178.7,265.6 178.9,266.7 179.2,266.1 179.4,266.1 179.6,265.2 179.9,265.7 180.1,265.5 180.4,265.7 180.6,267.3 180.8,266.6 181.1,266.6 181.3,266.0 181.6,266.7 181.8,267.7 182.0,267.5 182.3,268.1 182.5,268.2 182.8,267.6 183.0,268.1 183.2,268.5 183.5,267.3 183.7,266.3 184.0,265.7 184.2,263.2 184.4,263.5 184.7,263.4 184.9,263.5 185.2,262.3 185.4,263.1 185.6,264.7 185.9,264.1 186.1,263.9 186.3,262.0 186.6,259.8 186.8,260.0 187.1,260.6 187.3,259.9 187.5,259.2 187.8,259.7 188.0,259.6 188.3,258.5 188.5,260.5 188.7,261.2 189.0,263.3 189.2,262.8 189.5,262.8 189.7,264.6 189.9,264.5 190.2,264.2 190.4,262.4 190.7,262.6 190.9,260.6 191.1,260.8 191.4,260.1 191.6,260.8 191.9,260.1 192.1,260.2 192.3,258.8 192.6,259.3 192.8,259.2 193.1,259.2 193.3,259.2 193.5,255.6 193.8,256.3 194.0,255.4 194.3,254.1 194.5,253.9 194.7,253.3 195.0,254.4 195.2,252.2 195.5,252.0 195.7,251.9 195.9,252.2 196.2,249.6 196.4,250.1 196.7,251.7 196.9,254.6 197.1,253.0 197.4,255.1 197.6,258.1 197.8,256.6 198.1,257.8 198.3,257.9 198.6,257.9 198.8,257.6 199.0,259.3 199.3,259.3 199.5,257.7 199.8,257.8 200.0,256.2 200.2,258.0 200.5,258.4 200.7,256.7 201.0,254.8 201.2,255.4 201.4,254.7 201.7,255.7 201.9,259.2 202.2,260.2 202.4,258.6 202.6,257.9 202.9,258.1 203.1,257.4 203.4,257.0 203.6,256.6 203.8,256.7 204.1,255.0 204.3,253.2 204.6,252.5 204.8,252.1 205.0,252.1 205.3,252.4 205.5,252.1 205.8,250.5 206.0,252.0 206.2,251.8 206.5,250.7 206.7,252.1 207.0,251.8 207.2,251.4 207.4,251.2 207.7,250.3 207.9,249.5 208.2,249.2 208.4,248.2 208.6,246.8 208.9,246.5 209.1,245.5 209.4,247.2 209.6,246.3 209.8,246.7 210.1,245.1 210.3,245.7 210.5,244.6 210.8,244.1 211.0,242.7 211.3,242.9 211.5,241.5 211.7,241.9 212.0,243.0 212.2,246.2 212.5,245.7 212.7,247.7 212.9,246.5 213.2,246.4 213.4,245.2 213.7,246.3 213.9,244.3 214.1,242.5 214.4,242.4 214.6,243.8 214.9,243.4 215.1,241.8 215.3,242.0 215.6,242.1 215.8,240.9 216.1,241.0 216.3,239.3 216.5,239.2 216.8,238.2 217.0,240.1 217.3,237.5 217.5,237.9 217.7,239.7 218.0,243.1 218.2,243.9 218.5,242.1 218.7,237.4 218.9,240.9 219.2,238.8 219.4,238.7 219.7,238.9 219.9,240.1 220.1,239.1 220.4,237.6 220.6,235.5 220.9,237.7 221.1,237.3 221.3,237.2 221.6,236.1 221.8,235.3 222.1,234.3 222.3,233.7 222.5,232.8 222.8,232.8 223.0,230.7 223.2,226.7 223.5,225.0 223.7,224.3 224.0,222.1 224.2,225.5 224.4,224.4 224.7,223.2 224.9,223.7 225.2,221.3 225.4,222.8 225.6,223.0 225.9,222.5 226.1,225.7 226.4,224.8 226.6,227.4 226.8,226.0 227.1,227.0 227.3,226.4 227.6,218.8 227.8,219.3 228.0,216.6 228.3,215.8 228.5,217.2 228.8,216.7 229.0,217.5 229.2,219.5 229.5,219.8 229.7,226.4 230.0,226.3 230.2,233.4 230.4,240.3 230.7,236.3 230.9,236.5 231.2,232.4 231.4,233.0 231.6,235.5 231.9,236.2 232.1,234.9 232.4,236.1 232.6,240.1 232.8,236.7 233.1,238.6 233.3,241.8 233.6,240.6 233.8,236.7 234.0,234.0 234.3,233.2 234.5,235.4 234.7,233.6 235.0,229.1 235.2,235.3 235.5,236.9 235.7,239.7 235.9,238.0 236.2,239.7 236.4,236.6 236.7,239.1 236.9,245.3 237.1,246.3 237.4,245.6 237.6,244.9 237.9,242.4 238.1,242.9 238.3,239.6 238.6,239.6 238.8,239.7 239.1,238.0 239.3,244.9 239.5,243.1 239.8,247.1 240.0,245.0 240.3,246.3 240.5,244.8 240.7,245.4 241.0,246.0 241.2,248.9 241.5,247.8 241.7,248.5 241.9,251.1 242.2,253.9 242.4,255.4 242.7,251.6 242.9,250.9 243.1,251.1 243.4,251.0 243.6,250.0 243.9,254.0 244.1,249.2 244.3,247.2 244.6,245.2 244.8,242.9 245.1,242.7 245.3,242.6 245.5,243.5 245.8,242.9 246.0,242.9 246.3,240.5 246.5,237.7 246.7,241.3 247.0,240.3 247.2,236.3 247.4,233.0 247.7,234.5 247.9,240.7 248.2,238.3 248.4,238.4 248.6,238.9 248.9,238.1 249.1,237.7 249.4,237.4 249.6,238.0 249.8,236.7 250.1,236.0 250.3,235.0 250.6,234.9 250.8,234.9 251.0,234.9 251.3,234.1 251.5,234.7 251.8,235.9 252.0,234.6 252.2,233.7 252.5,233.0 252.7,231.9 253.0,230.3 253.2,233.4 253.4,235.7 253.7,234.6 253.9,235.3 254.2,236.2 254.4,235.9 254.6,235.0 254.9,234.0 255.1,233.1 255.4,233.5 255.6,234.1 255.8,235.3 256.1,234.0 256.3,235.2 256.6,232.6 256.8,235.4 257.0,235.8 257.3,236.3 257.5,237.1 257.8,236.1 258.0,235.5 258.2,234.4 258.5,235.0 258.7,233.8 259.0,235.8 259.2,235.4 259.4,235.5 259.7,235.8 259.9,235.7 260.1,235.0 260.4,235.2 260.6,236.0 260.9,236.7 261.1,237.3 261.3,238.9 261.6,237.4 261.8,237.5 262.1,237.9 262.3,237.4 262.5,238.3 262.8,237.3 263.0,237.2 263.3,236.6 263.5,241.4 263.7,240.8 264.0,239.4 264.2,240.8 264.5,241.8 264.7,242.5 264.9,242.8 265.2,245.8 265.4,244.4 265.7,243.5 265.9,242.5 266.1,243.4 266.4,244.1 266.6,242.9 266.9,242.5 267.1,244.7 267.3,243.9 267.6,243.0 267.8,245.1 268.1,244.7 268.3,246.1 268.5,247.2 268.8,245.0 269.0,243.7 269.3,243.0 269.5,240.8 269.7,239.2 270.0,239.4 270.2,239.2 270.5,237.8 270.7,238.2 270.9,237.7 271.2,238.1 271.4,237.4 271.6,235.9 271.9,237.2 272.1,237.3 272.4,239.7 272.6,239.6 272.8,238.5 273.1,237.5 273.3,236.9 273.6,236.3 273.8,236.1 274.0,236.0 274.3,236.7 274.5,233.0 274.8,232.7 275.0,231.8 275.2,229.5 275.5,229.6 275.7,230.9 276.0,230.6 276.2,230.5 276.4,232.6 276.7,232.5 276.9,232.3 277.2,231.0 277.4,231.3 277.6,229.9 277.9,231.2 278.1,231.0 278.4,231.0 278.6,230.6 278.8,239.9 279.1,243.8 279.3,244.0 279.6,243.6 279.8,242.6 280.0,243.6 280.3,245.9 280.5,245.3 280.8,246.5 281.0,246.1 281.2,245.4 281.5,244.4 281.7,244.2 282.0,243.3 282.2,243.9 282.4,246.3 282.7,245.5 282.9,246.3 283.2,246.0 283.4,245.4 283.6,246.2 283.9,246.8 284.1,246.8 284.3,245.3 284.6,246.1 284.8,246.5 285.1,247.3 285.3,248.4 285.5,249.6 285.8,249.1 286.0,248.4 286.3,248.1 286.5,248.0 286.7,248.5 287.0,249.5 287.2,250.4 287.5,249.8 287.7,249.0 287.9,247.1 288.2,247.1 288.4,246.1 288.7,246.4 288.9,247.7 289.1,246.1 289.4,245.6 289.6,245.9 289.9,247.1 290.1,245.9 290.3,246.1 290.6,246.5 290.8,246.2 291.1,244.2 291.3,245.3 291.5,245.0 291.8,247.4 292.0,246.8 292.3,248.7 292.5,249.1 292.7,246.3 293.0,245.4 293.2,245.5 293.5,245.8 293.7,246.0 293.9,246.6 294.2,245.6 294.4,245.8 294.7,246.9 294.9,246.6 295.1,244.1 295.4,245.7 295.6,244.6 295.9,246.5 296.1,246.5 296.3,245.3 296.6,243.9 296.8,243.0 297.0,242.5 297.3,241.9 297.5,241.7 297.8,241.4 298.0,241.0 298.2,240.4 298.5,239.8 298.7,240.3 299.0,242.1 299.2,242.0 299.4,241.4 299.7,241.9 299.9,241.2 300.2,242.0 300.4,243.0 300.6,243.0 300.9,242.9 301.1,243.8 301.4,242.4 301.6,243.2 301.8,243.5 302.1,244.0 302.3,244.8 302.6,245.5 302.8,244.5 303.0,244.4 303.3,244.6 303.5,246.3 303.8,245.6 304.0,244.6 304.2,245.3 304.5,245.6 304.7,244.0 305.0,241.5 305.2,241.2 305.4,241.2 305.7,240.6 305.9,241.1 306.2,239.3 306.4,239.9 306.6,240.1 306.9,240.9 307.1,240.6 307.4,240.1 307.6,238.6 307.8,238.7 308.1,235.6 308.3,234.5 308.5,234.6 308.8,235.7 309.0,231.5 309.3,230.6 309.5,232.8 309.7,232.6 310.0,232.3 310.2,231.2 310.5,231.5 310.7,231.4 310.9,230.5 311.2,229.8 311.4,229.4 311.7,227.1 311.9,226.7 312.1,228.5 312.4,231.2 312.6,233.8 312.9,234.1 313.1,231.9 313.3,228.6 313.6,230.8 313.8,232.3 314.1,232.0 314.3,234.4 314.5,237.0 314.8,243.1 315.0,241.8 315.3,245.7 315.5,253.0 315.7,249.6 316.0,263.1 316.2,260.3 316.5,264.6 316.7,264.1 316.9,265.7 317.2,264.1 317.4,259.0 317.7,254.0 317.9,251.0 318.1,253.2 318.4,251.8 318.6,254.0 318.9,258.6 319.1,259.3 319.3,261.1 319.6,255.6 319.8,255.7 320.1,250.2 320.3,248.4 320.5,248.2 320.8,245.8 321.0,246.6 321.2,249.9 321.5,246.9 321.7,246.9 322.0,249.9 322.2,247.0 322.4,246.3 322.7,246.1 322.9,244.8 323.2,246.3 323.4,243.0 323.6,243.5 323.9,245.3 324.1,244.7 324.4,242.3 324.6,241.1 324.8,235.8 325.1,234.6 325.3,235.5 325.6,235.3 325.8,236.4 326.0,232.8 326.3,231.1 326.5,234.1 326.8,232.0 327.0,229.7 327.2,230.1 327.5,230.1 327.7,230.7 328.0,230.5 328.2,231.7 328.4,230.5 328.7,229.1 328.9,224.8 329.2,221.5 329.4,225.0 329.6,223.2 329.9,223.5 330.1,223.5 330.4,221.6 330.6,226.4 330.8,225.8 331.1,222.3 331.3,219.3 331.6,217.4 331.8,216.4 332.0,216.6 332.3,211.5 332.5,211.1 332.8,214.2 333.0,211.0 333.2,211.4 333.5,211.9 333.7,210.9 333.9,201.9 334.2,204.0 334.4,199.4 334.7,194.0 334.9,187.6 335.1,190.9 335.4,192.0 335.6,199.7 335.9,197.5 336.1,196.8 336.3,198.6 336.6,198.0 336.8,191.7 337.1,192.8 337.3,191.0 337.5,196.2 337.8,197.4 338.0,193.9 338.3,195.7 338.5,191.6 338.7,191.1 339.0,190.5 339.2,186.4 339.5,184.8 339.7,176.8 339.9,170.7 340.2,176.3 340.4,182.7 340.7,183.6 340.9,183.0 341.1,179.6 341.4,180.6 341.6,171.9 341.9,173.1 342.1,173.7 342.3,169.2 342.6,169.8 342.8,172.5 343.1,169.9 343.3,170.9 343.5,169.4 343.8,169.1 344.0,166.1 344.3,160.3 344.5,163.4 344.7,171.6 345.0,176.9 345.2,182.9 345.4,178.7 345.7,181.3 345.9,184.3 346.2,178.6 346.4,170.3 346.6,173.1 346.9,177.5 347.1,178.1 347.4,173.1 347.6,169.4 347.8,174.3 348.1,172.1 348.3,167.6 348.6,165.2 348.8,161.8 349.0,163.7 349.3,158.8 349.5,157.9 349.8,148.6 350.0,153.2 350.2,149.2 350.5,146.5 350.7,143.4 351.0,145.1 351.2,140.8 351.4,143.2 351.7,142.3 351.9,144.2 352.2,143.7 352.4,144.7 352.6,151.2 352.9,152.7 353.1,152.0 353.4,157.7 353.6,156.7 353.8,159.9 354.1,157.7 354.3,170.0 354.6,169.7 354.8,167.2 355.0,156.5 355.3,153.3 355.5,134.6 355.8,146.0 356.0,155.9 356.2,146.6 356.5,150.6 356.7,151.7 357.0,150.1 357.2,142.9 357.4,144.8 357.7,139.8 357.9,136.3 358.1,126.6 358.4,130.6 358.6,122.4 358.9,122.7 359.1,124.0 359.3,130.5 359.6,131.4 359.8,128.5 360.1,126.3 360.3,122.7 360.5,122.3 360.8,127.2 361.0,118.9 361.3,119.4 361.5,120.0 361.7,116.6 362.0,110.8 362.2,107.8 362.5,103.9 362.7,105.5 362.9,98.9 363.2,107.8 363.4,109.8 363.7,113.9 363.9,121.5 364.1,115.7 364.4,118.5 364.6,115.6 364.9,108.6 365.1,110.9 365.3,100.6 365.6,99.0 365.8,112.1 366.1,110.4 366.3,107.6 366.5,106.1 366.8,110.2 367.0,110.6 367.3,111.1 367.5,116.9 367.7,114.2 368.0,119.4 368.2,125.5 368.5,131.0 368.7,116.7 368.9,119.9 369.2,115.0 369.4,110.3 369.7,110.1 369.9,102.1 370.1,99.9 370.4,83.8 370.6,85.3 370.8,85.9 371.1,78.9 371.3,73.4 371.6,70.7 371.8,74.8 372.0,74.9 372.3,70.2 372.5,77.2 372.8,86.6 373.0,102.4 373.2,110.8 373.5,108.4 373.7,99.4 374.0,90.2 374.2,105.0 374.4,117.9 374.7,119.5 374.9,131.5 375.2,112.4 375.4,111.1 375.6,98.8 375.9,98.5 376.1,91.0 376.4,97.4 376.6,94.9 376.8,113.1 377.1,112.6 377.3,111.6 377.6,114.0 377.8,121.9 378.0,126.0 378.3,121.8 378.5,127.1 378.8,122.5 379.0,110.8 379.2,108.8 379.5,108.4 379.7,103.1 380.0,96.0 380.2,85.1 380.4,82.5 380.7,79.5 380.9,73.0 381.2,85.1 381.4,81.3 381.6,87.0 381.9,95.8 382.1,95.7 382.3,95.9 382.6,96.0 382.8,94.9 383.1,87.3 383.3,88.9 383.5,88.6 383.8,93.8 384.0,96.3 384.3,97.2 384.5,107.4 384.7,106.9 385.0,113.4 385.2,105.7 385.5,119.5 385.7,116.1 385.9,127.5 386.2,135.3 386.4,126.6 386.7,130.6 386.9,130.4 387.1,132.9 387.4,129.0 387.6,133.0 387.9,124.0 388.1,119.7 388.3,114.7 388.6,115.9 388.8,114.5 389.1,115.0 389.3,116.3 389.5,123.6 389.8,121.8 390.0,119.1 390.3,121.4 390.5,124.6 390.7,118.9 391.0,117.1 391.2,107.6 391.5,110.2 391.7,112.4 391.9,103.4 392.2,102.6 392.4,105.2 392.7,103.5 392.9,101.3 393.1,96.8 393.4,100.3 393.6,94.8 393.9,92.9 394.1,97.1 394.3,98.7 394.6,99.3 394.8,94.7 395.0,96.4 395.3,103.6 395.5,98.7 395.8,97.5 396.0,99.0 396.2,101.0 396.5,104.2 396.7,102.2 397.0,105.4 397.2,94.9 397.4,86.1 397.7,83.3 397.9,80.5 398.2,82.2 398.4,90.6 398.6,84.9 398.9,87.7 399.1,94.3 399.4,73.7 399.6,76.0 399.8,78.5 400.1,65.9 400.3,71.4 400.6,67.6 400.8,73.1 401.0,74.7 401.3,76.8 401.5,77.3 401.8,81.0 402.0,83.1 402.2,84.1 402.5,86.0 402.7,81.3 403.0,75.3 403.2,75.5 403.4,77.6 403.7,82.1 403.9,77.2 404.2,74.0 404.4,77.2 404.6,77.0 404.9,78.9 405.1,75.8 405.4,79.0 405.6,88.1 405.8,90.7 406.1,93.7 406.3,94.7 406.6,94.4 406.8,93.0 407.0,87.8 407.3,87.3 407.5,91.8 407.7,90.9 408.0,82.9 408.2,78.3 408.5,81.8 408.7,85.4 408.9,98.0 409.2,103.4 409.4,100.3 409.7,100.8 409.9,111.5 410.1,103.5 410.4,100.9 410.6,92.7 410.9,101.4 411.1,106.5 411.3,102.3 411.6,98.0 411.8,94.1 412.1,92.8 412.3,90.2 412.5,88.4 412.8,87.6 413.0,79.6 413.3,89.5 413.5,82.2 413.7,81.0 414.0,89.5 414.2,82.7 414.5,88.3 414.7,87.9 414.9,92.8 415.2,90.0 415.4,94.1 415.7,102.4 415.9,102.9 416.1,107.8 416.4,110.7 416.6,111.3 416.9,110.6 417.1,105.9 417.3,101.5 417.6,106.9 417.8,108.1 418.1,112.4 418.3,123.7 418.5,124.3 418.8,120.2 419.0,123.1 419.2,122.4 419.5,126.2 419.7,137.5 420.0,139.4 420.2,148.3 420.4,149.6 420.7,141.6 420.9,137.3 421.2,143.9 421.4,148.3 421.6,153.1 421.9,157.0 422.1,154.5 422.4,161.0 422.6,160.0 422.8,167.2 423.1,157.2 423.3,159.7 423.6,159.5 423.8,158.8 424.0,162.8 424.3,164.3 424.5,161.4 424.8,164.5 425.0,162.5 425.2,168.8 425.5,179.3 425.7,178.4 426.0,180.9 426.2,178.5 426.4,175.3 426.7,177.7 426.9,184.7 427.2,187.7 427.4,190.4 427.6,191.9 427.9,192.4 428.1,200.1 428.4,200.8 428.6,202.4 428.8,205.9 429.1,210.3 429.3,206.5 429.6,196.7 429.8,192.3 430.0,203.5 430.3,213.7 430.5,207.7 430.8,212.7 431.0,213.1 431.2,204.4 431.5,207.6 431.7,208.5 431.9,205.4 432.2,202.5 432.4,207.6 432.7,211.7 432.9,216.8 433.1,220.0 433.4,224.2 433.6,219.1 433.9,198.7 434.1,192.4 434.3,193.6 434.6,195.1 434.8,203.3 435.1,209.6 435.3,217.0 435.5,214.5 435.8,205.2 436.0,207.7 436.3,213.4 436.5,219.2 436.7,212.4 437.0,201.8 437.2,192.0 437.5,181.6 437.7,186.4 437.9,180.7 438.2,185.9 438.4,186.2 438.7,190.1 438.9,183.7 439.1,176.6 439.4,182.1 439.6,185.8 439.9,187.4 440.1,177.9 440.3,185.5 440.6,191.4 440.8,193.7 441.1,195.9 441.3,196.0 441.5,196.2 441.8,193.6 442.0,197.5 442.3,199.1 442.5,194.0 442.7,203.1 443.0,208.6 443.2,212.8 443.5,208.9 443.7,214.6 443.9,215.0 444.2,211.2 444.4,215.3 444.6,210.2 444.9,213.1 445.1,209.4 445.4,218.6 445.6,218.1 445.8,228.2 446.1,227.8 446.3,238.6 446.6,234.8 446.8,228.0 447.0,231.6 447.3,227.4 447.5,229.7 447.8,225.5 448.0,228.5 448.2,228.6 448.5,234.7 448.7,233.0 449.0,228.6 449.2,222.7 449.4,225.2 449.7,229.8 449.9,225.3 450.2,228.8 450.4,228.6 450.6,227.6 450.9,227.5 451.1,234.2 451.4,238.0 451.6,245.5 451.8,247.5 452.1,245.4 452.3,249.8 452.6,249.0 452.8,247.3 453.0,247.2 453.3,241.8 453.5,238.7 453.8,240.0 454.0,243.2 454.2,244.6 454.5,246.6 454.7,244.6 455.0,242.2 455.2,243.7 455.4,240.7 455.7,242.0 455.9,245.1 456.1,243.6 456.4,244.3 456.6,245.8 456.9,242.8 457.1,242.6 457.3,240.2 457.6,235.6 457.8,235.6 458.1,238.1 458.3,238.4 458.5,242.5 458.8,237.3 459.0,235.7 459.3,234.6 459.5,233.1 459.7,232.1 460.0,224.7 460.2,223.4 460.5,225.0 460.7,226.8 460.9,230.4 461.2,224.1 461.4,226.4 461.7,224.8 461.9,225.8 462.1,226.5 462.4,231.1 462.6,231.6 462.9,236.0 463.1,237.1 463.3,238.8 463.6,237.4 463.8,235.8 464.1,240.5 464.3,241.4 464.5,240.3 464.8,240.4 465.0,240.6 465.3,242.6 465.5,243.4 465.7,241.3 466.0,239.1 466.2,236.0 466.5,235.2 466.7,239.9 466.9,240.7 467.2,240.2 467.4,243.7 467.7,244.7 467.9,246.5 468.1,248.2 468.4,251.1 468.6,250.8 468.8,252.6 469.1,251.8 469.3,248.5 469.6,251.1 469.8,251.9 470.0,251.2 470.3,245.8 470.5,246.0 470.8,246.2 471.0,249.9 471.2,250.5 471.5,253.1 471.7,250.9 472.0,250.8 472.2,254.7 472.4,251.1 472.7,250.0 472.9,252.7 473.2,251.7 473.4,251.0 473.6,250.2 473.9,248.0 474.1,248.2 474.4,247.5 474.6,246.7 474.8,247.7 475.1,248.6 475.3,252.1 475.6,252.7 475.8,247.7 476.0,245.6 476.3,245.7 476.5,250.0 476.8,241.7 477.0,238.2 477.2,239.3 477.5,236.8 477.7,239.9 478.0,241.2 478.2,243.0 478.4,246.2 478.7,245.5 478.9,244.5 479.2,245.0 479.4,246.6 479.6,246.0 479.9,241.4 480.1,240.2 480.4,241.0 480.6,245.2 480.8,246.7 481.1,246.9 481.3,245.0 481.5,244.0 481.8,242.7 482.0,238.7 482.3,238.5 482.5,242.9 482.7,245.7 483.0,247.4 483.2,246.6 483.5,245.6 483.7,247.3 483.9,247.0 484.2,247.9 484.4,248.5 484.7,245.4 484.9,245.4 485.1,243.9 485.4,242.6 485.6,243.9 485.9,240.4 486.1,240.3 486.3,239.5 486.6,238.2 486.8,238.1 487.1,238.2 487.3,235.4 487.5,237.8 487.8,238.8 488.0,234.5 488.3,230.0 488.5,230.7 488.7,230.7 489.0,230.4 489.2,228.2 489.5,231.5 489.7,229.9 489.9,228.2 490.2,224.5 490.4,227.5 490.7,229.3 490.9,228.7 491.1,230.4 491.4,234.5 491.6,235.3 491.9,234.0 492.1,232.3 492.3,229.1 492.6,232.5 492.8,235.4 493.0,238.0 493.3,237.1 493.5,236.1 493.8,233.5 494.0,235.3 494.2,234.0 494.5,234.1 494.7,233.0 495.0,230.6 495.2,230.7 495.4,233.0 495.7,233.0 495.9,236.4 496.2,238.7 496.4,240.0 496.6,236.6 496.9,236.2 497.1,235.4 497.4,236.3 497.6,235.9 497.8,233.4 498.1,237.4 498.3,246.2 498.6,247.2 498.8,244.1 499.0,244.7 499.3,242.4 499.5,240.8 499.8,240.7 500.0,241.3 500.2,240.5 500.5,241.5 500.7,241.1 501.0,242.5 501.2,242.5 501.4,245.5 501.7,244.0 501.9,244.4 502.2,244.3 502.4,244.6 502.6,245.4 502.9,245.8 503.1,244.9 503.4,244.1 503.6,246.9 503.8,247.3 504.1,247.3 504.3,247.1 504.6,247.6 504.8,249.6 505.0,248.3 505.3,247.4 505.5,248.4 505.7,248.7 506.0,248.3 506.2,249.8 506.5,250.0 506.7,251.4 506.9,250.3 507.2,251.4 507.4,249.6 507.7,248.1 507.9,248.9 508.1,247.2 508.4,246.5 508.6,246.2 508.9,248.3 509.1,248.6 509.3,248.7 509.6,247.4 509.8,246.5 510.1,244.9 510.3,244.8 510.5,242.8 510.8,242.6 511.0,243.6 511.3,243.7 511.5,244.3 511.7,243.2 512.0,244.7 512.2,242.7 512.5,242.4 512.7,242.2 512.9,243.3 513.2,244.4 513.4,245.4 513.7,246.3 513.9,244.5 514.1,243.8 514.4,244.1 514.6,242.4 514.9,242.7 515.1,240.4 515.3,244.0 515.6,241.8 515.8,240.3 516.1,238.6 516.3,238.6 516.5,234.5 516.8,235.1 517.0,232.9 517.3,232.1 517.5,232.8 517.7,234.5 518.0,234.5 518.2,233.7 518.4,233.9 518.7,233.5 518.9,234.8 519.2,232.7 519.4,230.9 519.6,232.4 519.9,235.9 520.1,236.6 520.4,244.9 520.6,244.5 520.8,245.8 521.1,245.5 521.3,245.9 521.6,247.3 521.8,247.6 522.0,249.1 522.3,249.8 522.5,250.9 522.8,250.3 523.0,249.7 523.2,251.0 523.5,250.0 523.7,251.3 524.0,251.1 524.2,251.1 524.4,249.6 524.7,249.6 524.9,249.7 525.2,249.2 525.4,248.8 525.6,249.7 525.9,251.0 526.1,253.4 526.4,252.7 526.6,252.4 526.8,252.5 527.1,252.8 527.3,253.6 527.6,254.9 527.8,256.1 528.0,257.9 528.3,259.5 528.5,260.3 528.8,259.6 529.0,260.2 529.2,260.7 529.5,260.6 529.7,260.7 529.9,261.5 530.2,262.6 530.4,262.6 530.7,262.0 530.9,261.0 531.1,261.1 531.4,259.2 531.6,258.7 531.9,259.7 532.1,261.5 532.3,260.2 532.6,259.3 532.8,260.4 533.1,260.7 533.3,260.9 533.5,260.9 533.8,259.8 534.0,262.7 534.3,262.8 534.5,264.1 534.7,264.8 535.0,263.9 535.2,263.4 535.5,260.9 535.7,257.0 535.9,256.3 536.2,255.1 536.4,254.1 536.7,255.1 536.9,254.7 537.1,254.3 537.4,251.8 537.6,250.8 537.9,250.8 538.1,249.2 538.3,248.3 538.6,248.8 538.8,248.6 539.1,248.0 539.3,247.5 539.5,245.0 539.8,244.7 540.0,244.9 540.3,243.6 540.5,243.6 540.7,243.7 541.0,241.2 541.2,240.8 541.5,240.2 541.7,240.7 541.9,239.9 542.2,239.5 542.4,235.6 542.6,236.1 542.9,236.4 543.1,233.6 543.4,234.5 543.6,233.9 543.8,233.7 544.1,232.8 544.3,231.7 544.6,231.8 544.8,233.5 545.0,237.7 545.3,240.7 545.5,241.1 545.8,242.0 546.0,240.1 546.2,239.9 546.5,241.3 546.7,241.3 547.0,242.4 547.2,243.5 547.4,244.6 547.7,244.1 547.9,243.0 548.2,242.3 548.4,242.7 548.6,245.6 548.9,245.5 549.1,243.7 549.4,240.4 549.6,241.0 549.8,243.6 550.1,242.3 550.3,241.3 550.6,243.0 550.8,242.0 551.0,240.9 551.3,240.5 551.5,242.1 551.8,240.5 552.0,243.7 552.2,241.7 552.5,240.0 552.7,243.1 553.0,243.1 553.2,244.1 553.4,241.2 553.7,232.2 553.9,235.7 554.2,233.2 554.4,232.6 554.6,231.8 554.9,232.0 555.1,233.8 555.3,235.9 555.6,235.0 555.8,233.6 556.1,230.7 556.3,230.1 556.5,230.0 556.8,226.7 557.0,230.3 557.3,231.2 557.5,230.6 557.7,231.9 558.0,230.2 558.2,228.0 558.5,230.7 558.7,229.2 558.9,228.2 559.2,228.7 559.4,227.6 559.7,230.2 559.9,232.0 560.1,231.6 560.4,235.7 560.6,233.7 560.9,232.7 561.1,231.4 561.3,232.6 561.6,231.3 561.8,233.8 562.1,236.7 562.3,237.0 562.5,236.7 562.8,237.9 563.0,239.2 563.3,238.2 563.5,235.3 563.7,236.2 564.0,237.3 564.2,235.9 564.5,235.2 564.7,237.1 564.9,242.1 565.2,239.3 565.4,240.0 565.7,236.7 565.9,238.2 566.1,238.6 566.4,236.9 566.6,238.5 566.8,239.8 567.1,238.6 567.3,238.3 567.6,238.1 567.8,237.7 568.0,236.6 568.3,238.3 568.5,241.7 568.8,242.3 569.0,242.6 569.2,242.8 569.5,243.2 569.7,243.6 570.0,244.4 570.2,244.2 570.4,244.3 570.7,243.8 570.9,242.5 571.2,243.6 571.4,244.2 571.6,244.3 571.9,244.0 572.1,245.8 572.4,246.0 572.6,245.7 572.8,246.2 573.1,245.5 573.3,245.3 573.6,244.1 573.8,244.5 574.0,245.1 574.3,245.0 574.5,244.1 574.8,244.6 575.0,244.0 575.2,244.1 575.5,243.0 575.7,244.3 576.0,244.1 576.2,244.2 576.4,242.4 576.7,240.6 576.9,237.9 577.2,237.9 577.4,238.0 577.6,241.2 577.9,241.1 578.1,241.0 578.4,242.1 578.6,246.3 578.8,246.5 579.1,247.6 579.3,247.1 579.5,247.7 579.8,246.2 580.0,247.8 580.3,247.4 580.5,250.0 580.7,250.0 581.0,249.3 581.2,246.8 581.5,246.0 581.7,246.9 581.9,245.0 582.2,245.9 582.4,244.3 582.7,242.9 582.9,242.1 583.1,243.7 583.4,243.1 583.6,244.6 583.9,243.4 584.1,243.2 584.3,242.3 584.6,243.9 584.8,242.5 585.1,242.8 585.3,244.3 585.5,244.4 585.8,244.0 586.0,246.7 586.3,246.7 586.5,246.6 586.7,245.0 587.0,244.7 587.2,244.5 587.5,243.0 587.7,241.7 587.9,242.2 588.2,240.7 588.4,241.6 588.7,241.3 588.9,241.6 589.1,243.5 589.4,242.4 589.6,242.0 589.9,241.9 590.1,242.9 590.3,243.6 590.6,243.1 590.8,242.0 591.1,243.1 591.3,241.0 591.5,241.0 591.8,239.5 592.0,239.8 592.2,238.2 592.5,238.1 592.7,236.7 593.0,236.5 593.2,235.7 593.4,236.3 593.7,237.2 593.9,238.4 594.2,237.5 594.4,237.4 594.6,235.9 594.9,236.9 595.1,236.9 595.4,237.6 595.6,237.8 595.8,237.3 596.1,237.6 596.3,233.3 596.6,235.2 596.8,235.8 597.0,228.6 597.3,225.4 597.5,226.6 597.8,228.6 598.0,227.8 598.2,222.5 598.5,221.2 598.7,223.4 599.0,220.9 599.2,221.3 599.4,222.5 599.7,224.0 599.9,224.2 600.2,224.3 600.4,220.9 600.6,220.5 600.9,215.8 601.1,218.3 601.4,216.4 601.6,218.7 601.8,219.8 602.1,216.4 602.3,219.8 602.6,221.5 602.8,220.1 603.0,219.4 603.3,225.4 603.5,225.1 603.7,223.4 604.0,223.7 604.2,222.3 604.5,221.9 604.7,224.0 604.9,225.2 605.2,227.3 605.4,225.8 605.7,221.4 605.9,221.6 606.1,225.1 606.4,225.8 606.6,229.3 606.9,229.7 607.1,229.4 607.3,227.4 607.6,226.1 607.8,225.6 608.1,223.6 608.3,225.2 608.5,225.0 608.8,224.2 609.0,227.2 609.3,224.3 609.5,223.1 609.7,220.7 610.0,222.5 610.2,223.0 610.5,226.3 610.7,226.4 610.9,226.4 611.2,227.0 611.4,227.4 611.7,229.2 611.9,228.9 612.1,227.8 612.4,228.1 612.6,227.9 612.9,228.2 613.1,228.9 613.3,240.9 613.6,242.9 613.8,245.4 614.1,243.4 614.3,244.2 614.5,243.4 614.8,245.5 615.0,248.2 615.3,246.8 615.5,247.9 615.7,247.7 616.0,252.1 616.2,251.6 616.4,251.1 616.7,252.6 616.9,250.0 617.2,248.9 617.4,248.0 617.6,246.6 617.9,246.9 618.1,246.8 618.4,245.6 618.6,246.7 618.8,248.5 619.1,250.2 619.3,251.6 619.6,252.4 619.8,251.5 620.0,249.5 620.3,252.7 620.5,255.7 620.8,255.6 621.0,256.7 621.2,251.0 621.5,253.6 621.7,252.7 622.0,252.1 622.2,251.8 622.4,252.9 622.7,252.7 622.9,254.0 623.2,252.4 623.4,251.3 623.6,249.8 623.9,249.3 624.1,249.1 624.4,248.1 624.6,249.0 624.8,249.0 625.1,258.8 625.3,258.7 625.6,258.2 625.8,257.6 626.0,255.9 626.3,255.6 626.5,251.8 626.8,249.2 627.0,249.0 627.2,250.2 627.5,249.7 627.7,249.1 628.0,249.9 628.2,251.5 628.4,249.1 628.7,248.8 628.9,246.0 629.1,246.3 629.4,246.0 629.6,246.3 629.9,246.3 630.1,244.9 630.3,244.6 630.6,244.8 630.8,243.7 631.1,243.0 631.3,244.1 631.5,244.4 631.8,244.6 632.0,246.5 632.3,243.8 632.5,245.0 632.7,245.2 633.0,244.8 633.2,244.8 633.5,243.4 633.7,243.8 633.9,243.6 634.2,242.3 634.4,241.2 634.7,241.0 634.9,240.2 635.1,240.2 635.4,240.0 635.6,241.3 635.9,240.4 636.1,240.6 636.3,243.5 636.6,240.6 636.8,242.8 637.1,240.3 637.3,239.0 637.5,237.2 637.8,232.9 638.0,232.0 638.3,231.6 638.5,231.5 638.7,230.7 639.0,230.9 639.2,232.8 639.5,233.3 639.7,233.6 639.9,236.2 640.2,234.5 640.4,235.2 640.6,234.5 640.9,233.9 641.1,236.8 641.4,237.1 641.6,235.8 641.8,233.9 642.1,234.6 642.3,234.8 642.6,234.0 642.8,236.0 643.0,236.1 643.3,236.2 643.5,232.1 643.8,232.1 644.0,232.4 644.2,231.9 644.5,230.7 644.7,231.6 645.0,234.4 645.2,234.8 645.4,234.8 645.7,235.5 645.9,234.8 646.2,235.0 646.4,236.5 646.6,236.1 646.9,237.2 647.1,235.8 647.4,234.8 647.6,234.9 647.8,233.5 648.1,233.8 648.3,233.5 648.6,234.2 648.8,234.2 649.0,236.5 649.3,236.5 649.5,235.1 649.8,237.7 650.0,236.8 650.2,234.0 650.5,233.9 650.7,233.2 651.0,232.2 651.2,230.4 651.4,230.7 651.7,235.7 651.9,235.4 652.2,234.5 652.4,234.5 652.6,235.8 652.9,235.3 653.1,234.2 653.3,233.2 653.6,234.7 653.8,232.5 654.1,231.7 654.3,231.2 654.5,231.2 654.8,234.2 655.0,236.3 655.3,234.7 655.5,236.0 655.7,237.4 656.0,236.6 656.2,238.8 656.5,243.3 656.7,242.2 656.9,242.9 657.2,243.0 657.4,245.9 657.7,247.4 657.9,248.7 658.1,249.7 658.4,246.1 658.6,246.1 658.9,246.1 659.1,246.2 659.3,244.7 659.6,243.6 659.8,242.2 660.1,244.2 660.3,247.7 660.5,246.8 660.8,246.0 661.0,246.8 661.3,246.9 661.5,246.5 661.7,245.1 662.0,244.8 662.2,243.9 662.5,244.5 662.7,244.0 662.9,244.7 663.2,244.1 663.4,243.4 663.7,243.5 663.9,243.7 664.1,242.8 664.4,242.6 664.6,242.9 664.9,243.2 665.1,243.6 665.3,243.5 665.6,240.8 665.8,239.6 666.0,238.3 666.3,239.4 666.5,239.9 666.8,239.3 667.0,241.8 667.2,243.1 667.5,243.7 667.7,242.9 668.0,245.6 668.2,244.5 668.4,243.6 668.7,242.1 668.9,242.9 669.2,244.0 669.4,244.3 669.6,245.9 669.9,247.4 670.1,247.4 670.4,250.4 670.6,249.9 670.8,253.2 671.1,251.1 671.3,250.4 671.6,250.0 671.8,252.8 672.0,256.7 672.3,256.1 672.5,255.3 672.8,253.0 673.0,253.6 673.2,253.3 673.5,255.3 673.7,255.1 674.0,254.4 674.2,252.2 674.4,244.7 674.7,244.1 674.9,245.4 675.2,243.5 675.4,241.7 675.6,242.6 675.9,243.2 676.1,243.2 676.4,244.0 676.6,247.8 676.8,247.9 677.1,247.9 677.3,247.9 677.5,249.5 677.8,248.6 678.0,248.3 678.3,246.8 678.5,247.8 678.7,247.7 679.0,248.3 679.2,251.0 679.5,250.2 679.7,247.6 679.9,248.1 680.2,247.9 680.4,247.2 680.7,247.8 680.9,245.4 681.1,245.5 681.4,245.9 681.6,244.3 681.9,242.7 682.1,241.2 682.3,240.6 682.6,238.5 682.8,236.4 683.1,238.1 683.3,237.5 683.5,239.6 683.8,238.2 684.0,238.5 684.3,239.9 684.5,240.0 684.7,239.1 685.0,238.1 685.2,238.0 685.5,238.5 685.7,238.9 685.9,239.4 686.2,235.6 686.4,237.0 686.7,237.8 686.9,239.7 687.1,238.3 687.4,239.3 687.6,239.0 687.9,240.2 688.1,238.8 688.3,240.7 688.6,241.1 688.8,240.2 689.1,238.4 689.3,236.0 689.5,234.9 689.8,234.6 690.0,236.1 690.2,239.7 690.5,238.8 690.7,241.1 691.0,239.6 691.2,241.0 691.4,242.3 691.7,240.3 691.9,239.9 692.2,236.0 692.4,235.7 692.6,237.2 692.9,235.6 693.1,237.0 693.4,237.6 693.6,234.9 693.8,236.2 694.1,233.1 694.3,233.0 694.6,234.6 694.8,233.7 695.0,232.3 695.3,232.2 695.5,233.4 695.8,234.2 696.0,233.4"/>
  <polyline fill="none" stroke="#16a34a" stroke-width="2" points="56.0,286.2 56.2,286.4 56.5,287.0 56.7,287.1 57.0,287.2 57.2,287.1 57.4,287.1 57.7,287.2 57.9,287.2 58.2,287.2 58.4,287.1 58.6,286.8 58.9,287.0 59.1,287.1 59.4,287.1 59.6,287.1 59.8,286.8 60.1,286.7 60.3,286.9 60.6,286.8 60.8,286.8 61.0,286.9 61.3,286.7 61.5,286.7 61.8,286.6 62.0,286.4 62.2,286.5 62.5,286.5 62.7,286.2 62.9,287.0 63.2,287.5 63.4,287.5 63.7,287.8 63.9,287.7 64.1,287.2 64.4,287.0 64.6,287.4 64.9,288.1 65.1,288.5 65.3,289.2 65.6,289.2 65.8,288.7 66.1,288.9 66.3,288.9 66.5,289.1 66.8,289.5 67.0,289.8 67.3,289.7 67.5,289.7 67.7,290.0 68.0,290.0 68.2,289.6 68.5,289.9 68.7,290.1 68.9,289.9 69.2,289.7 69.4,289.9 69.7,289.3 69.9,288.8 70.1,288.9 70.4,288.7 70.6,288.8 70.9,288.4 71.1,289.0 71.3,288.8 71.6,288.5 71.8,288.5 72.1,288.4 72.3,288.1 72.5,287.1 72.8,286.9 73.0,287.1 73.3,286.9 73.5,287.5 73.7,287.1 74.0,287.7 74.2,287.8 74.5,287.4 74.7,287.1 74.9,287.2 75.2,287.1 75.4,287.1 75.6,285.9 75.9,286.2 76.1,286.6 76.4,286.4 76.6,285.9 76.8,285.7 77.1,284.6 77.3,284.4 77.6,285.3 77.8,285.2 78.0,285.2 78.3,284.7 78.5,284.8 78.8,284.5 79.0,284.3 79.2,284.2 79.5,284.6 79.7,284.8 80.0,285.2 80.2,285.0 80.4,285.4 80.7,285.8 80.9,286.1 81.2,286.0 81.4,285.8 81.6,285.3 81.9,284.9 82.1,284.3 82.4,284.7 82.6,285.5 82.8,285.9 83.1,286.0 83.3,286.2 83.6,288.6 83.8,288.9 84.0,288.7 84.3,289.0 84.5,289.3 84.8,289.3 85.0,289.4 85.2,289.4 85.5,289.2 85.7,289.1 86.0,289.2 86.2,289.2 86.4,288.6 86.7,288.7 86.9,288.9 87.1,289.0 87.4,289.1 87.6,289.1 87.9,289.0 88.1,289.2 88.3,289.1 88.6,289.1 88.8,289.1 89.1,289.3 89.3,289.4 89.5,289.6 89.8,289.6 90.0,289.5 90.3,289.5 90.5,289.5 90.7,289.4 91.0,289.3 91.2,289.7 91.5,289.4 91.7,289.7 91.9,289.9 92.2,289.6 92.4,289.3 92.7,289.5 92.9,289.3 93.1,289.6 93.4,289.6 93.6,289.5 93.9,289.3 94.1,289.4 94.3,289.2 94.6,289.3 94.8,289.2 95.1,289.4 95.3,289.3 95.5,289.3 95.8,289.1 96.0,289.2 96.3,289.0 96.5,288.9 96.7,288.7 97.0,288.6 97.2,288.6 97.5,288.7 97.7,288.6 97.9,288.7 98.2,288.4 98.4,287.7 98.7,287.8 98.9,287.7 99.1,287.7 99.4,287.9 99.6,287.6 99.8,287.4 100.1,287.5 100.3,287.4 100.6,287.6 100.8,287.3 101.0,287.3 101.3,287.2 101.5,286.8 101.8,287.0 102.0,286.8 102.2,287.1 102.5,287.1 102.7,287.0 103.0,286.9 103.2,287.1 103.4,287.1 103.7,287.2 103.9,287.2 104.2,287.3 104.4,287.7 104.6,287.6 104.9,287.7 105.1,287.7 105.4,287.6 105.6,287.6 105.8,287.5 106.1,287.4 106.3,287.2 106.6,287.4 106.8,287.2 107.0,287.5 107.3,287.3 107.5,287.2 107.8,287.4 108.0,287.4 108.2,287.4 108.5,287.4 108.7,287.3 109.0,287.5 109.2,287.5 109.4,287.5 109.7,287.8 109.9,287.7 110.2,287.8 110.4,287.8 110.6,288.0 110.9,287.6 111.1,287.7 111.4,287.8 111.6,287.7 111.8,287.6 112.1,287.9 112.3,287.7 112.5,287.8 112.8,287.8 113.0,287.7 113.3,287.9 113.5,287.3 113.7,287.1 114.0,286.9 114.2,286.9 114.5,286.8 114.7,287.1 114.9,287.4 115.2,287.2 115.4,286.8 115.7,287.1 115.9,287.1 116.1,286.9 116.4,287.0 116.6,286.9 116.9,286.7 117.1,286.7 117.3,286.5 117.6,286.7 117.8,286.7 118.1,286.3 118.3,286.5 118.5,286.2 118.8,286.1 119.0,286.1 119.3,285.4 119.5,285.5 119.7,285.5 120.0,285.6 120.2,285.4 120.5,285.6 120.7,285.3 120.9,285.1 121.2,285.2 121.4,285.1 121.7,285.1 121.9,285.4 122.1,285.4 122.4,285.5 122.6,285.5 122.9,285.7 123.1,285.8 123.3,285.6 123.6,285.2 123.8,285.0 124.0,284.6 124.3,284.6 124.5,284.7 124.8,284.7 125.0,284.8 125.2,284.8 125.5,284.9 125.7,284.9 126.0,284.9 126.2,284.7 126.4,285.0 126.7,284.9 126.9,285.0 127.2,285.1 127.4,285.0 127.6,285.1 127.9,284.9 128.1,285.2 128.4,285.2 128.6,285.2 128.8,285.1 129.1,285.1 129.3,285.1 129.6,284.9 129.8,285.0 130.0,285.0 130.3,285.2 130.5,285.2 130.8,285.5 131.0,285.1 131.2,284.9 131.5,284.6 131.7,282.9 132.0,282.6 132.2,282.2 132.4,282.7 132.7,282.8 132.9,283.0 133.2,283.1 133.4,283.1 133.6,283.2 133.9,283.1 134.1,282.9 134.4,283.1 134.6,283.1 134.8,283.2 135.1,283.0 135.3,282.8 135.6,282.8 135.8,282.8 136.0,283.4 136.3,283.5 136.5,283.3 136.7,283.3 137.0,282.8 137.2,282.8 137.5,282.8 137.7,282.7 137.9,282.8 138.2,283.0 138.4,283.0 138.7,283.2 138.9,283.0 139.1,283.2 139.4,283.0 139.6,283.1 139.9,282.7 140.1,283.1 140.3,282.9 140.6,283.0 140.8,282.8 141.1,282.4 141.3,282.6 141.5,282.3 141.8,282.0 142.0,282.1 142.3,282.0 142.5,282.0 142.7,281.7 143.0,281.5 143.2,281.9 143.5,280.6 143.7,280.7 143.9,280.9 144.2,280.7 144.4,280.6 144.7,280.8 144.9,280.5 145.1,280.3 145.4,280.3 145.6,280.9 145.9,280.8 146.1,280.6 146.3,279.8 146.6,279.2 146.8,279.0 147.1,278.6 147.3,278.6 147.5,278.3 147.8,278.1 148.0,277.9 148.3,277.9 148.5,277.8 148.7,277.1 149.0,277.0 149.2,276.6 149.4,278.1 149.7,277.6 149.9,277.7 150.2,277.7 150.4,277.3 150.6,277.6 150.9,277.1 151.1,277.4 151.4,277.1 151.6,277.0 151.8,277.1 152.1,277.3 152.3,277.8 152.6,277.0 152.8,277.7 153.0,277.7 153.3,278.2 153.5,277.5 153.8,277.9 154.0,277.6 154.2,277.3 154.5,276.1 154.7,275.4 155.0,275.6 155.2,275.3 155.4,275.5 155.7,275.1 155.9,275.3 156.2,275.3 156.4,274.9 156.6,275.0 156.9,274.9 157.1,274.5 157.4,275.7 157.6,275.5 157.8,275.3 158.1,275.0 158.3,275.2 158.6,276.3 158.8,276.3 159.0,275.9 159.3,275.6 159.5,276.0 159.8,276.7 160.0,276.6 160.2,276.3 160.5,276.6 160.7,276.4 160.9,276.8 161.2,276.6 161.4,276.9 161.7,276.2 161.9,276.0 162.1,275.9 162.4,276.4 162.6,276.5 162.9,276.4 163.1,275.8 163.3,275.5 163.6,275.7 163.8,275.8 164.1,275.6 164.3,275.4 164.5,275.2 164.8,274.3 165.0,274.6 165.3,274.4 165.5,273.5 165.7,273.6 166.0,273.4 166.2,273.5 166.5,273.6 166.7,273.7 166.9,273.4 167.2,274.4 167.4,274.3 167.7,273.9 167.9,273.6 168.1,273.3 168.4,272.8 168.6,272.4 168.9,272.2 169.1,271.7 169.3,271.7 169.6,271.5 169.8,271.3 170.1,270.7 170.3,270.0 170.5,270.0 170.8,269.7 171.0,270.1 171.3,270.3 171.5,270.6 171.7,270.3 172.0,270.3 172.2,270.1 172.5,270.0 172.7,269.0 172.9,268.1 173.2,267.6 173.4,266.4 173.6,267.0 173.9,267.4 174.1,266.7 174.4,266.5 174.6,266.8 174.8,266.8 175.1,265.8 175.3,264.8 175.6,264.2 175.8,264.4 176.0,263.6 176.3,262.6 176.5,260.7 176.8,259.9 177.0,257.5 177.2,256.9 177.5,256.9 177.7,263.3 178.0,262.1 178.2,264.9 178.4,264.8 178.7,265.6 178.9,266.7 179.2,266.1 179.4,266.1 179.6,265.2 179.9,265.7 180.1,265.5 180.4,265.7 180.6,267.3 180.8,266.6 181.1,266.6 181.3,266.0 181.6,266.7 181.8,267.7 182.0,267.5 182.3,268.1 182.5,268.2 182.8,267.6 183.0,268.1 183.2,268.5 183.5,267.3 183.7,266.3 184.0,265.7 184.2,263.2 184.4,263.5 184.7,263.4 184.9,263.5 185.2,262.3 185.4,263.1 185.6,264.7 185.9,264.1 186.1,263.9 186.3,262.0 186.6,259.8 186.8,260.0 187.1,260.6 187.3,259.9 187.5,259.2 187.8,259.7 188.0,259.6 188.3,258.5 188.5,260.5 188.7,261.2 189.0,263.3 189.2,262.8 189.5,262.8 189.7,264.6 189.9,264.5 190.2,264.2 190.4,262.4 190.7,262.6 190.9,260.6 191.1,260.8 191.4,260.1 191.6,260.8 191.9,260.1 192.1,260.2 192.3,258.8 192.6,259.3 192.8,259.2 193.1,259.2 193.3,259.2 193.5,255.6 193.8,256.3 194.0,255.4 194.3,254.1 194.5,253.9 194.7,253.3 195.0,254.4 195.2,252.2 195.5,252.0 195.7,251.9 195.9,252.2 196.2,249.6 196.4,250.1 196.7,251.7 196.9,254.6 197.1,253.0 197.4,255.1 197.6,258.1 197.8,256.6 198.1,257.8 198.3,257.9 198.6,257.9 198.8,257.6 199.0,259.3 199.3,259.3 199.5,257.7 199.8,257.8 200.0,256.2 200.2,258.0 200.5,258.4 200.7,256.7 201.0,254.8 201.2,255.4 201.4,254.7 201.7,255.7 201.9,259.2 202.2,260.2 202.4,258.6 202.6,257.9 202.9,258.1 203.1,257.4 203.4,257.0 203.6,256.6 203.8,256.7 204.1,255.0 204.3,253.2 204.6,252.5 204.8,252.1 205.0,252.1 205.3,252.4 205.5,252.1 205.8,250.5 206.0,252.0 206.2,251.8 206.5,250.7 206.7,252.1 207.0,251.8 207.2,251.4 207.4,251.2 207.7,250.3 207.9,249.5 208.2,249.2 208.4,248.2 208.6,246.8 208.9,246.5 209.1,245.5 209.4,247.2 209.6,246.3 209.8,246.7 210.1,245.1 210.3,245.7 210.5,244.6 210.8,244.1 211.0,242.7 211.3,242.9 211.5,241.5 211.7,241.9 212.0,243.0 212.2,246.2 212.5,245.7 212.7,247.7 212.9,246.5 213.2,246.4 213.4,245.2 213.7,246.3 213.9,244.3 214.1,242.5 214.4,242.4 214.6,243.8 214.9,243.4 215.1,241.8 215.3,242.0 215.6,242.1 215.8,240.9 216.1,241.0 216.3,239.3 216.5,239.2 216.8,238.2 217.0,240.1 217.3,237.5 217.5,237.9 217.7,239.7 218.0,243.1 218.2,243.9 218.5,242.1 218.7,237.4 218.9,240.9 219.2,238.8 219.4,238.7 219.7,238.9 219.9,240.1 220.1,239.1 220.4,237.6 220.6,235.5 220.9,237.7 221.1,237.3 221.3,237.2 221.6,236.1 221.8,235.3 222.1,234.3 222.3,233.7 222.5,232.8 222.8,232.8 223.0,230.7 223.2,226.7 223.5,225.0 223.7,224.3 224.0,222.1 224.2,225.5 224.4,224.4 224.7,223.2 224.9,223.7 225.2,221.3 225.4,222.8 225.6,223.0 225.9,222.5 226.1,225.7 226.4,224.8 226.6,227.4 226.8,226.0 227.1,227.0 227.3,226.4 227.6,218.8 227.8,219.3 228.0,216.6 228.3,215.8 228.5,217.2 228.8,216.7 229.0,217.5 229.2,219.5 229.5,219.8 229.7,226.4 230.0,226.3 230.2,233.4 230.4,240.3 230.7,236.3 230.9,236.5 231.2,232.4 231.4,233.0 231.6,235.5 231.9,236.2 232.1,234.9 232.4,236.1 232.6,240.1 232.8,236.7 233.1,238.6 233.3,241.8 233.6,240.6 233.8,236.7 234.0,234.0 234.3,233.2 234.5,235.4 234.7,233.6 235.0,229.1 235.2,235.3 235.5,236.9 235.7,239.7 235.9,238.0 236.2,239.7 236.4,236.6 236.7,239.1 236.9,245.3 237.1,246.3 237.4,245.6 237.6,244.9 237.9,242.4 238.1,242.9 238.3,239.6 238.6,239.6 238.8,239.7 239.1,238.0 239.3,244.9 239.5,243.1 239.8,247.1 240.0,245.0 240.3,246.3 240.5,244.8 240.7,245.4 241.0,246.0 241.2,248.9 241.5,247.8 241.7,248.5 241.9,251.1 242.2,253.9 242.4,255.4 242.7,251.6 242.9,250.9 243.1,251.1 243.4,251.0 243.6,250.0 243.9,254.0 244.1,249.2 244.3,247.2 244.6,245.2 244.8,242.9 245.1,242.7 245.3,242.6 245.5,243.5 245.8,242.9 246.0,242.9 246.3,240.5 246.5,237.7 246.7,241.3 247.0,240.3 247.2,236.3 247.4,233.0 247.7,234.5 247.9,240.7 248.2,238.3 248.4,238.4 248.6,238.9 248.9,238.1 249.1,237.7 249.4,237.4 249.6,238.0 249.8,236.7 250.1,236.0 250.3,235.0 250.6,234.9 250.8,234.9 251.0,234.9 251.3,234.1 251.5,234.7 251.8,235.9 252.0,234.6 252.2,233.7 252.5,233.0 252.7,231.9 253.0,230.3 253.2,233.4 253.4,235.7 253.7,234.6 253.9,235.3 254.2,236.2 254.4,235.9 254.6,235.0 254.9,234.0 255.1,233.1 255.4,233.5 255.6,234.1 255.8,235.3 256.1,234.0 256.3,235.2 256.6,232.6 256.8,235.4 257.0,235.8 257.3,236.3 257.5,237.1 257.8,236.1 258.0,235.5 258.2,234.4 258.5,235.0 258.7,233.8 259.0,235.8 259.2,235.4 259.4,235.5 259.7,235.8 259.9,235.7 260.1,235.0 260.4,235.2 260.6,236.0 260.9,236.7 261.1,237.3 261.3,238.9 261.6,237.4 261.8,237.5 262.1,237.9 262.3,237.4 262.5,238.3 262.8,237.3 263.0,237.2 263.3,236.6 263.5,241.4 263.7,240.8 264.0,239.4 264.2,240.8 264.5,241.8 264.7,242.5 264.9,242.8 265.2,245.8 265.4,244.4 265.7,243.5 265.9,242.5 266.1,243.4 266.4,244.1 266.6,242.9 266.9,242.5 267.1,244.7 267.3,243.9 267.6,243.0 267.8,245.1 268.1,244.7 268.3,246.1 268.5,247.2 268.8,245.0 269.0,243.7 269.3,243.0 269.5,240.8 269.7,239.2 270.0,239.4 270.2,239.2 270.5,237.8 270.7,238.2 270.9,237.7 271.2,238.1 271.4,237.4 271.6,235.9 271.9,237.2 272.1,237.3 272.4,239.7 272.6,239.6 272.8,238.5 273.1,237.5 273.3,236.9 273.6,236.3 273.8,236.1 274.0,236.0 274.3,236.7 274.5,233.0 274.8,232.7 275.0,231.8 275.2,229.5 275.5,229.6 275.7,230.9 276.0,230.6 276.2,230.5 276.4,232.6 276.7,232.5 276.9,232.3 277.2,231.0 277.4,231.3 277.6,229.9 277.9,231.2 278.1,231.0 278.4,231.0 278.6,230.6 278.8,239.9 279.1,243.8 279.3,244.0 279.6,243.6 279.8,242.6 280.0,243.6 280.3,245.9 280.5,245.3 280.8,246.5 281.0,246.1 281.2,245.4 281.5,244.4 281.7,244.2 282.0,243.3 282.2,243.9 282.4,246.3 282.7,245.5 282.9,246.3 283.2,246.0 283.4,245.4 283.6,246.2 283.9,246.8 284.1,246.8 284.3,245.3 284.6,246.1 284.8,246.5 285.1,247.3 285.3,248.4 285.5,249.6 285.8,249.1 286.0,248.4 286.3,248.1 286.5,248.0 286.7,248.5 287.0,249.5 287.2,250.4 287.5,249.8 287.7,249.0 287.9,247.1 288.2,247.1 288.4,246.1 288.7,246.4 288.9,247.7 289.1,246.1 289.4,245.6 289.6,245.9 289.9,247.1 290.1,245.9 290.3,246.1 290.6,246.5 290.8,246.2 291.1,244.2 291.3,245.3 291.5,245.0 291.8,247.4 292.0,246.8 292.3,248.7 292.5,249.1 292.7,246.3 293.0,245.4 293.2,245.5 293.5,245.8 293.7,246.0 293.9,246.6 294.2,245.6 294.4,245.8 294.7,246.9 294.9,246.6 295.1,244.1 295.4,245.7 295.6,244.6 295.9,246.5 296.1,246.5 296.3,245.3 296.6,243.9 296.8,243.0 297.0,242.5 297.3,241.9 297.5,241.7 297.8,241.4 298.0,241.0 298.2,240.4 298.5,239.8 298.7,240.3 299.0,242.1 299.2,242.0 299.4,241.4 299.7,241.9 299.9,241.2 300.2,242.0 300.4,243.0 300.6,243.0 300.9,242.9 301.1,243.8 301.4,242.4 301.6,243.2 301.8,243.5 302.1,244.0 302.3,244.8 302.6,245.5 302.8,244.5 303.0,244.4 303.3,244.6 303.5,246.3 303.8,245.6 304.0,244.6 304.2,245.3 304.5,245.6 304.7,244.0 305.0,241.5 305.2,241.2 305.4,241.2 305.7,240.6 305.9,241.1 306.2,239.3 306.4,239.9 306.6,240.1 306.9,240.9 307.1,240.6 307.4,240.1 307.6,238.6 307.8,238.7 308.1,235.6 308.3,234.5 308.5,234.6 308.8,235.7 309.0,231.5 309.3,230.6 309.5,232.8 309.7,232.6 310.0,232.3 310.2,231.2 310.5,231.5 310.7,231.4 310.9,230.5 311.2,229.8 311.4,229.4 311.7,227.1 311.9,226.7 312.1,228.5 312.4,231.2 312.6,233.8 312.9,234.1 313.1,231.9 313.3,228.6 313.6,230.8 313.8,232.3 314.1,232.0 314.3,234.4 314.5,237.0 314.8,243.1 315.0,241.8 315.3,245.7 315.5,253.0 315.7,249.6 316.0,263.1 316.2,260.3 316.5,264.6 316.7,264.1 316.9,265.7 317.2,264.1 317.4,259.0 317.7,254.0 317.9,251.0 318.1,253.2 318.4,251.8 318.6,254.0 318.9,258.6 319.1,259.3 319.3,261.1 319.6,255.6 319.8,255.7 320.1,250.2 320.3,248.4 320.5,248.2 320.8,245.8 321.0,246.6 321.2,249.9 321.5,246.9 321.7,246.9 322.0,249.9 322.2,247.0 322.4,246.3 322.7,246.1 322.9,244.8 323.2,246.3 323.4,243.0 323.6,243.5 323.9,245.3 324.1,244.7 324.4,242.3 324.6,241.1 324.8,235.8 325.1,234.6 325.3,235.5 325.6,235.3 325.8,236.4 326.0,232.8 326.3,231.1 326.5,234.1 326.8,232.0 327.0,229.7 327.2,230.1 327.5,230.1 327.7,230.7 328.0,230.5 328.2,231.7 328.4,230.5 328.7,229.1 328.9,224.8 329.2,221.5 329.4,225.0 329.6,223.2 329.9,223.5 330.1,223.5 330.4,221.6 330.6,226.4 330.8,225.8 331.1,222.3 331.3,219.3 331.6,217.4 331.8,216.4 332.0,216.6 332.3,211.5 332.5,211.1 332.8,214.2 333.0,211.0 333.2,211.4 333.5,211.9 333.7,210.9 333.9,201.9 334.2,204.0 334.4,199.4 334.7,194.0 334.9,187.6 335.1,190.9 335.4,192.0 335.6,199.7 335.9,197.5 336.1,196.8 336.3,198.6 336.6,198.0 336.8,191.7 337.1,192.8 337.3,191.0 337.5,196.2 337.8,197.4 338.0,193.9 338.3,195.7 338.5,191.6 338.7,191.1 339.0,190.5 339.2,186.4 339.5,184.8 339.7,176.8 339.9,170.7 340.2,176.3 340.4,182.7 340.7,183.6 340.9,183.0 341.1,179.6 341.4,180.6 341.6,171.9 341.9,173.1 342.1,173.7 342.3,169.2 342.6,169.8 342.8,172.5 343.1,169.9 343.3,170.9 343.5,169.4 343.8,169.1 344.0,166.1 344.3,160.3 344.5,163.4 344.7,171.6 345.0,176.9 345.2,182.9 345.4,178.7 345.7,181.3 345.9,184.3 346.2,178.6 346.4,170.3 346.6,173.1 346.9,177.5 347.1,178.1 347.4,173.1 347.6,169.4 347.8,174.3 348.1,172.1 348.3,167.6 348.6,165.2 348.8,161.8 349.0,163.7 349.3,158.8 349.5,157.9 349.8,148.6 350.0,153.2 350.2,149.2 350.5,146.5 350.7,143.4 351.0,145.1 351.2,140.8 351.4,143.2 351.7,142.3 351.9,144.2 352.2,143.7 352.4,144.7 352.6,151.2 352.9,152.7 353.1,152.0 353.4,157.7 353.6,156.7 353.8,159.9 354.1,157.7 354.3,170.0 354.6,169.7 354.8,167.2 355.0,156.5 355.3,153.3 355.5,134.6 355.8,146.0 356.0,155.9 356.2,146.6 356.5,150.6 356.7,151.7 357.0,150.1 357.2,142.9 357.4,144.8 357.7,139.8 357.9,136.3 358.1,126.6 358.4,130.6 358.6,122.4 358.9,122.7 359.1,124.0 359.3,130.5 359.6,131.4 359.8,128.5 360.1,126.3 360.3,122.7 360.5,122.3 360.8,127.2 361.0,118.9 361.3,119.4 361.5,120.0 361.7,116.6 362.0,110.8 362.2,107.8 362.5,103.9 362.7,105.5 362.9,98.9 363.2,107.8 363.4,109.8 363.7,113.9 363.9,121.5 364.1,115.7 364.4,118.5 364.6,115.6 364.9,108.6 365.1,110.9 365.3,100.6 365.6,99.0 365.8,112.1 366.1,110.4 366.3,107.6 366.5,106.1 366.8,110.2 367.0,110.6 367.3,111.1 367.5,116.9 367.7,114.2 368.0,119.4 368.2,125.5 368.5,131.0 368.7,116.7 368.9,119.9 369.2,115.0 369.4,110.3 369.7,110.1 369.9,102.1 370.1,99.9 370.4,83.8 370.6,85.3 370.8,85.9 371.1,78.9 371.3,73.4 371.6,70.7 371.8,74.8 372.0,74.9 372.3,70.2 372.5,77.2 372.8,86.6 373.0,102.4 373.2,110.8 373.5,108.4 373.7,99.4 374.0,90.2 374.2,105.0 374.4,117.9 374.7,119.5 374.9,131.5 375.2,112.4 375.4,111.1 375.6,98.8 375.9,98.5 376.1,91.0 376.4,97.4 376.6,94.9 376.8,113.1 377.1,112.6 377.3,111.6 377.6,114.0 377.8,121.9 378.0,126.0 378.3,121.8 378.5,127.1 378.8,122.5 379.0,110.8 379.2,108.8 379.5,108.4 379.7,103.1 380.0,96.0 380.2,85.1 380.4,82.5 380.7,79.5 380.9,73.0 381.2,85.1 381.4,81.3 381.6,87.0 381.9,95.8 382.1,95.7 382.3,95.9 382.6,96.0 382.8,94.9 383.1,87.3 383.3,88.9 383.5,88.6 383.8,93.8 384.0,96.3 384.3,97.2 384.5,107.4 384.7,106.9 385.0,113.4 385.2,105.7 385.5,119.5 385.7,116.1 385.9,127.5 386.2,135.3 386.4,126.6 386.7,130.6 386.9,130.4 387.1,132.9 387.4,129.0 387.6,133.0 387.9,124.0 388.1,119.7 388.3,114.7 388.6,115.9 388.8,114.5 389.1,115.0 389.3,116.3 389.5,123.6 389.8,121.8 390.0,119.1 390.3,121.4 390.5,124.6 390.7,118.9 391.0,117.1 391.2,107.6 391.5,110.2 391.7,112.4 391.9,103.4 392.2,102.6 392.4,105.2 392.7,103.5 392.9,101.3 393.1,96.8 393.4,100.3 393.6,94.8 393.9,92.9 394.1,97.1 394.3,98.7 394.6,99.3 394.8,94.7 395.0,96.4 395.3,103.6 395.5,98.7 395.8,97.5 396.0,99.0 396.2,101.0 396.5,104.2 396.7,102.2 397.0,105.4 397.2,94.9 397.4,86.1 397.7,83.3 397.9,80.5 398.2,82.2 398.4,90.6 398.6,84.9 398.9,87.7 399.1,94.3 399.4,73.7 399.6,76.0 399.8,78.5 400.1,65.9 400.3,71.4 400.6,67.6 400.8,73.1 401.0,74.7 401.3,76.8 401.5,77.3 401.8,81.0 402.0,83.1 402.2,84.1 402.5,86.0 402.7,81.3 403.0,75.3 403.2,75.5 403.4,77.6 403.7,82.1 403.9,77.2 404.2,74.0 404.4,77.2 404.6,77.0 404.9,78.9 405.1,75.8 405.4,79.0 405.6,88.1 405.8,90.7 406.1,93.7 406.3,94.7 406.6,94.4 406.8,93.0 407.0,87.8 407.3,87.3 407.5,91.8 407.7,90.9 408.0,82.9 408.2,78.3 408.5,81.8 408.7,85.4 408.9,98.0 409.2,103.4 409.4,100.3 409.7,100.8 409.9,111.5 410.1,103.5 410.4,100.9 410.6,92.7 410.9,101.4 411.1,106.5 411.3,102.3 411.6,98.0 411.8,94.1 412.1,92.8 412.3,90.2 412.5,88.4 412.8,87.6 413.0,79.6 413.3,89.5 413.5,82.2 413.7,81.0 414.0,89.5 414.2,82.7 414.5,88.3 414.7,87.9 414.9,92.8 415.2,90.0 415.4,94.1 415.7,102.4 415.9,102.9 416.1,107.8 416.4,110.7 416.6,111.3 416.9,110.6 417.1,105.9 417.3,101.5 417.6,106.9 417.8,108.1 418.1,112.4 418.3,123.7 418.5,124.3 418.8,120.2 419.0,123.1 419.2,122.4 419.5,126.2 419.7,137.5 420.0,139.4 420.2,148.3 420.4,149.6 420.7,141.6 420.9,137.3 421.2,143.9 421.4,148.3 421.6,153.1 421.9,157.0 422.1,154.5 422.4,161.0 422.6,160.0 422.8,167.2 423.1,157.2 423.3,159.7 423.6,159.5 423.8,158.8 424.0,162.8 424.3,164.3 424.5,161.4 424.8,164.5 425.0,162.5 425.2,168.8 425.5,179.3 425.7,178.4 426.0,180.9 426.2,178.5 426.4,175.3 426.7,177.7 426.9,184.7 427.2,187.7 427.4,190.4 427.6,191.9 427.9,192.4 428.1,200.1 428.4,200.8 428.6,202.4 428.8,205.9 429.1,210.3 429.3,206.5 429.6,196.7 429.8,192.3 430.0,203.5 430.3,213.7 430.5,207.7 430.8,212.7 431.0,213.1 431.2,204.4 431.5,207.6 431.7,208.5 431.9,205.4 432.2,202.5 432.4,207.6 432.7,211.7 432.9,216.8 433.1,220.0 433.4,224.2 433.6,219.1 433.9,198.7 434.1,192.4 434.3,193.6 434.6,195.1 434.8,203.3 435.1,209.6 435.3,217.0 435.5,214.5 435.8,205.2 436.0,207.7 436.3,213.4 436.5,219.2 436.7,212.4 437.0,201.8 437.2,192.0 437.5,181.6 437.7,186.4 437.9,180.7 438.2,185.9 438.4,186.2 438.7,190.1 438.9,183.7 439.1,176.6 439.4,182.1 439.6,185.8 439.9,187.4 440.1,177.9 440.3,185.5 440.6,191.4 440.8,193.7 441.1,195.9 441.3,196.0 441.5,196.2 441.8,193.6 442.0,197.5 442.3,199.1 442.5,194.0 442.7,203.1 443.0,208.6 443.2,212.8 443.5,208.9 443.7,214.6 443.9,215.0 444.2,211.2 444.4,215.3 444.6,210.2 444.9,213.1 445.1,209.4 445.4,218.6 445.6,218.1 445.8,228.2 446.1,227.8 446.3,238.6 446.6,234.8 446.8,228.0 447.0,231.6 447.3,227.4 447.5,229.7 447.8,225.5 448.0,228.5 448.2,228.6 448.5,234.7 448.7,233.0 449.0,228.6 449.2,222.7 449.4,225.2 449.7,229.8 449.9,225.3 450.2,228.8 450.4,228.6 450.6,227.6 450.9,227.5 451.1,234.2 451.4,238.0 451.6,245.5 451.8,247.5 452.1,245.4 452.3,249.8 452.6,249.0 452.8,247.3 453.0,247.2 453.3,241.8 453.5,238.7 453.8,240.0 454.0,243.2 454.2,244.6 454.5,246.6 454.7,244.6 455.0,242.2 455.2,243.7 455.4,240.7 455.7,242.0 455.9,245.1 456.1,243.6 456.4,244.3 456.6,245.8 456.9,242.8 457.1,242.6 457.3,240.2 457.6,235.6 457.8,235.6 458.1,238.1 458.3,238.4 458.5,242.5 458.8,237.3 459.0,235.7 459.3,234.6 459.5,233.1 459.7,232.1 460.0,224.7 460.2,223.4 460.5,225.0 460.7,226.8 460.9,230.4 461.2,224.1 461.4,226.4 461.7,224.8 461.9,225.8 462.1,226.5 462.4,231.1 462.6,231.6 462.9,236.0 463.1,237.1 463.3,238.8 463.6,237.4 463.8,235.8 464.1,240.5 464.3,241.4 464.5,240.3 464.8,240.4 465.0,240.6 465.3,242.6 465.5,243.4 465.7,241.3 466.0,239.1 466.2,236.0 466.5,235.2 466.7,239.9 466.9,240.7 467.2,240.2 467.4,243.7 467.7,244.7 467.9,246.5 468.1,248.2 468.4,251.1 468.6,250.8 468.8,252.6 469.1,251.8 469.3,248.5 469.6,251.1 469.8,251.9 470.0,251.2 470.3,245.8 470.5,246.0 470.8,246.2 471.0,249.9 471.2,250.5 471.5,253.1 471.7,250.9 472.0,250.8 472.2,254.7 472.4,251.1 472.7,250.0 472.9,252.7 473.2,251.7 473.4,251.0 473.6,250.2 473.9,248.0 474.1,248.2 474.4,247.5 474.6,246.7 474.8,247.7 475.1,248.6 475.3,252.1 475.6,252.7 475.8,247.7 476.0,245.6 476.3,245.7 476.5,250.0 476.8,241.7 477.0,238.2 477.2,239.3 477.5,236.8 477.7,239.9 478.0,241.2 478.2,243.0 478.4,246.2 478.7,245.5 478.9,244.5 479.2,245.0 479.4,246.6 479.6,246.0 479.9,241.4 480.1,240.2 480.4,241.0 480.6,245.2 480.8,246.7 481.1,246.9 481.3,245.0 481.5,244.0 481.8,242.7 482.0,238.7 482.3,238.5 482.5,242.9 482.7,245.7 483.0,247.4 483.2,246.6 483.5,245.6 483.7,247.3 483.9,247.0 484.2,247.9 484.4,248.5 484.7,245.4 484.9,245.4 485.1,243.9 485.4,242.6 485.6,243.9 485.9,240.4 486.1,240.3 486.3,239.5 486.6,238.2 486.8,238.1 487.1,238.2 487.3,235.4 487.5,237.8 487.8,238.8 488.0,234.5 488.3,230.0 488.5,230.7 488.7,230.7 489.0,230.4 489.2,228.2 489.5,231.5 489.7,229.9 489.9,228.2 490.2,224.5 490.4,227.5 490.7,229.3 490.9,228.7 491.1,230.4 491.4,234.5 491.6,235.3 491.9,234.0 492.1,232.3 492.3,229.1 492.6,232.5 492.8,235.4 493.0,238.0 493.3,237.1 493.5,236.1 493.8,233.5 494.0,235.3 494.2,234.0 494.5,234.1 494.7,233.0 495.0,230.6 495.2,230.7 495.4,233.0 495.7,233.0 495.9,236.4 496.2,238.7 496.4,240.0 496.6,236.6 496.9,236.2 497.1,235.4 497.4,236.3 497.6,235.9 497.8,233.4 498.1,237.4 498.3,246.2 498.6,247.2 498.8,244.1 499.0,244.7 499.3,242.4 499.5,240.8 499.8,240.7 500.0,241.3 500.2,240.5 500.5,241.5 500.7,241.1 501.0,242.5 501.2,242.5 501.4,245.5 501.7,244.0 501.9,244.4 502.2,244.3 502.4,244.6 502.6,245.4 502.9,245.8 503.1,244.9 503.4,244.1 503.6,246.9 503.8,247.3 504.1,247.3 504.3,247.1 504.6,247.6 504.8,249.6 505.0,248.3 505.3,247.4 505.5,248.4 505.7,248.7 506.0,248.3 506.2,249.8 506.5,250.0 506.7,251.4 506.9,250.3 507.2,251.4 507.4,249.6 507.7,248.1 507.9,248.9 508.1,247.2 508.4,246.5 508.6,246.2 508.9,248.3 509.1,248.6 509.3,248.7 509.6,247.4 509.8,246.5 510.1,244.9 510.3,244.8 510.5,242.8 510.8,242.6 511.0,243.6 511.3,243.7 511.5,244.3 511.7,243.2 512.0,244.7 512.2,242.7 512.5,242.4 512.7,242.2 512.9,243.3 513.2,244.4 513.4,245.4 513.7,246.3 513.9,244.5 514.1,243.8 514.4,244.1 514.6,242.4 514.9,242.7 515.1,240.4 515.3,244.0 515.6,241.8 515.8,240.3 516.1,238.6 516.3,238.6 516.5,234.5 516.8,235.1 517.0,232.9 517.3,232.1 517.5,232.8 517.7,234.5 518.0,234.5 518.2,233.7 518.4,233.9 518.7,233.5 518.9,234.8 519.2,232.7 519.4,230.9 519.6,232.4 519.9,235.9 520.1,236.6 520.4,244.9 520.6,244.5 520.8,245.8 521.1,245.5 521.3,245.9 521.6,247.3 521.8,247.6 522.0,249.1 522.3,249.8 522.5,250.9 522.8,250.3 523.0,249.7 523.2,251.0 523.5,250.0 523.7,251.3 524.0,251.1 524.2,251.1 524.4,249.6 524.7,249.6 524.9,249.7 525.2,249.2 525.4,248.8 525.6,249.7 525.9,251.0 526.1,253.4 526.4,252.7 526.6,252.4 526.8,252.5 527.1,252.8 527.3,253.6 527.6,254.9 527.8,256.1 528.0,257.9 528.3,259.5 528.5,260.3 528.8,259.6 529.0,260.2 529.2,260.7 529.5,260.6 529.7,260.7 529.9,261.5 530.2,262.6 530.4,262.6 530.7,262.0 530.9,261.0 531.1,261.1 531.4,259.2 531.6,258.7 531.9,259.7 532.1,261.5 532.3,260.2 532.6,259.3 532.8,260.4 533.1,260.7 533.3,260.9 533.5,260.9 533.8,259.8 534.0,262.7 534.3,262.8 534.5,264.1 534.7,264.8 535.0,263.9 535.2,263.4 535.5,260.9 535.7,257.0 535.9,256.3 536.2,255.1 536.4,254.1 536.7,255.1 536.9,254.7 537.1,254.3 537.4,251.8 537.6,250.8 537.9,250.8 538.1,249.2 538.3,248.3 538.6,248.8 538.8,248.6 539.1,248.0 539.3,247.5 539.5,245.0 539.8,244.7 540.0,244.9 540.3,243.6 540.5,243.6 540.7,243.7 541.0,241.2 541.2,240.8 541.5,240.2 541.7,240.7 541.9,239.9 542.2,239.5 542.4,235.6 542.6,236.1 542.9,236.4 543.1,233.6 543.4,234.5 543.6,233.9 543.8,233.7 544.1,232.8 544.3,231.7 544.6,231.8 544.8,233.5 545.0,237.7 545.3,240.7 545.5,241.1 545.8,242.0 546.0,240.1 546.2,239.9 546.5,241.3 546.7,241.3 547.0,242.4 547.2,243.5 547.4,244.6 547.7,244.1 547.9,243.0 548.2,242.3 548.4,242.7 548.6,245.6 548.9,245.5 549.1,243.7 549.4,240.4 549.6,241.0 549.8,243.6 550.1,242.3 550.3,241.3 550.6,243.0 550.8,242.0 551.0,240.9 551.3,240.5 551.5,242.1 551.8,240.5 552.0,243.7 552.2,241.7 552.5,240.0 552.7,243.1 553.0,243.1 553.2,244.1 553.4,241.2 553.7,232.2 553.9,235.7 554.2,233.2 554.4,232.6 554.6,231.8 554.9,232.0 555.1,233.8 555.3,235.9 555.6,235.0 555.8,233.6 556.1,230.7 556.3,230.1 556.5,230.0 556.8,226.7 557.0,230.3 557.3,231.2 557.5,230.6 557.7,231.9 558.0,230.2 558.2,228.0 558.5,230.7 558.7,229.2 558.9,228.2 559.2,228.7 559.4,227.6 559.7,230.2 559.9,232.0 560.1,231.6 560.4,235.7 560.6,233.7 560.9,232.7 561.1,231.4 561.3,232.6 561.6,231.3 561.8,233.8 562.1,236.7 562.3,237.0 562.5,236.7 562.8,237.9 563.0,239.2 563.3,238.2 563.5,235.3 563.7,236.2 564.0,237.3 564.2,235.9 564.5,235.2 564.7,237.1 564.9,242.1 565.2,239.3 565.4,240.0 565.7,236.7 565.9,238.2 566.1,238.6 566.4,236.9 566.6,238.5 566.8,239.8 567.1,238.6 567.3,238.3 567.6,238.1 567.8,237.7 568.0,236.6 568.3,238.3 568.5,241.7 568.8,242.3 569.0,242.6 569.2,242.8 569.5,243.2 569.7,243.6 570.0,244.4 570.2,244.2 570.4,244.3 570.7,243.8 570.9,242.5 571.2,243.6 571.4,244.2 571.6,244.3 571.9,244.0 572.1,245.8 572.4,246.0 572.6,245.7 572.8,246.2 573.1,245.5 573.3,245.3 573.6,244.1 573.8,244.5 574.0,245.1 574.3,245.0 574.5,244.1 574.8,244.6 575.0,244.0 575.2,244.1 575.5,243.0 575.7,244.3 576.0,244.1 576.2,244.2 576.4,242.4 576.7,240.6 576.9,237.9 577.2,237.9 577.4,238.0 577.6,241.2 577.9,241.1 578.1,241.0 578.4,242.1 578.6,246.3 578.8,246.5 579.1,247.6 579.3,247.1 579.5,247.7 579.8,246.2 580.0,247.8 580.3,247.4 580.5,250.0 580.7,250.0 581.0,249.3 581.2,246.8 581.5,246.0 581.7,246.9 581.9,245.0 582.2,245.9 582.4,244.3 582.7,242.9 582.9,242.1 583.1,243.7 583.4,243.1 583.6,244.6 583.9,243.4 584.1,243.2 584.3,242.3 584.6,243.9 584.8,242.5 585.1,242.8 585.3,244.3 585.5,244.4 585.8,244.0 586.0,246.7 586.3,246.7 586.5,246.6 586.7,245.0 587.0,244.7 587.2,244.5 587.5,243.0 587.7,241.7 587.9,242.2 588.2,240.7 588.4,241.6 588.7,241.3 588.9,241.6 589.1,243.5 589.4,242.4 589.6,242.0 589.9,241.9 590.1,242.9 590.3,243.6 590.6,243.1 590.8,242.0 591.1,243.1 591.3,241.0 591.5,241.0 591.8,239.5 592.0,239.8 592.2,238.2 592.5,238.1 592.7,236.7 593.0,236.5 593.2,235.7 593.4,236.3 593.7,237.2 593.9,238.4 594.2,237.5 594.4,237.4 594.6,235.9 594.9,236.9 595.1,236.9 595.4,237.6 595.6,237.8 595.8,237.3 596.1,237.6 596.3,233.3 596.6,235.2 596.8,235.8 597.0,228.6 597.3,225.4 597.5,226.6 597.8,228.6 598.0,227.8 598.2,222.5 598.5,221.2 598.7,223.4 599.0,220.9 599.2,221.3 599.4,222.5 599.7,224.0 599.9,224.2 600.2,224.3 600.4,220.9 600.6,220.5 600.9,215.8 601.1,218.3 601.4,216.4 601.6,218.7 601.8,219.8 602.1,216.4 602.3,219.8 602.6,221.5 602.8,220.1 603.0,219.4 603.3,225.4 603.5,225.1 603.7,223.4 604.0,223.7 604.2,222.3 604.5,221.9 604.7,224.0 604.9,225.2 605.2,227.3 605.4,225.8 605.7,221.4 605.9,221.6 606.1,225.1 606.4,225.8 606.6,229.3 606.9,229.7 607.1,229.4 607.3,227.4 607.6,226.1 607.8,225.6 608.1,223.6 608.3,225.2 608.5,225.0 608.8,224.2 609.0,227.2 609.3,224.3 609.5,223.1 609.7,220.7 610.0,222.5 610.2,223.0 610.5,226.3 610.7,226.4 610.9,226.4 611.2,227.0 611.4,227.4 611.7,229.2 611.9,228.9 612.1,227.8 612.4,228.1 612.6,227.9 612.9,228.2 613.1,228.9 613.3,240.9 613.6,242.9 613.8,245.4 614.1,243.4 614.3,244.2 614.5,243.4 614.8,245.5 615.0,248.2 615.3,246.8 615.5,247.9 615.7,247.7 616.0,252.1 616.2,251.6 616.4,251.1 616.7,252.6 616.9,250.0 617.2,248.9 617.4,248.0 617.6,246.6 617.9,246.9 618.1,246.8 618.4,245.6 618.6,246.7 618.8,248.5 619.1,250.2 619.3,251.6 619.6,252.4 619.8,251.5 620.0,249.5 620.3,252.7 620.5,255.7 620.8,255.6 621.0,256.7 621.2,251.0 621.5,253.6 621.7,252.7 622.0,252.1 622.2,251.8 622.4,252.9 622.7,252.7 622.9,254.0 623.2,252.4 623.4,251.3 623.6,249.8 623.9,249.3 624.1,249.1 624.4,248.1 624.6,249.0 624.8,249.0 625.1,258.8 625.3,258.7 625.6,258.2 625.8,257.6 626.0,255.9 626.3,255.6 626.5,251.8 626.8,249.2 627.0,249.0 627.2,250.2 627.5,249.7 627.7,249.1 628.0,249.9 628.2,251.5 628.4,249.1 628.7,248.8 628.9,246.0 629.1,246.3 629.4,246.0 629.6,246.3 629.9,246.3 630.1,244.9 630.3,244.6 630.6,244.8 630.8,243.7 631.1,243.0 631.3,244.1 631.5,244.4 631.8,244.6 632.0,246.5 632.3,243.8 632.5,245.0 632.7,245.2 633.0,244.8 633.2,244.8 633.5,243.4 633.7,243.8 633.9,243.6 634.2,242.3 634.4,241.2 634.7,241.0 634.9,240.2 635.1,240.2 635.4,240.0 635.6,241.3 635.9,240.4 636.1,240.6 636.3,243.5 636.6,240.6 636.8,242.8 637.1,240.3 637.3,239.0 637.5,237.2 637.8,232.9 638.0,232.0 638.3,231.6 638.5,231.5 638.7,230.7 639.0,230.9 639.2,232.8 639.5,233.3 639.7,233.6 639.9,236.2 640.2,234.5 640.4,235.2 640.6,234.5 640.9,233.9 641.1,236.8 641.4,237.1 641.6,235.8 641.8,233.9 642.1,234.6 642.3,234.8 642.6,234.0 642.8,236.0 643.0,236.1 643.3,236.2 643.5,232.1 643.8,232.1 644.0,232.4 644.2,231.9 644.5,230.7 644.7,231.6 645.0,234.4 645.2,234.8 645.4,234.8 645.7,235.5 645.9,234.8 646.2,235.0 646.4,236.5 646.6,236.1 646.9,237.2 647.1,235.8 647.4,234.8 647.6,234.9 647.8,233.5 648.1,233.8 648.3,233.5 648.6,234.2 648.8,234.2 649.0,236.5 649.3,236.5 649.5,235.1 649.8,237.7 650.0,236.8 650.2,234.0 650.5,233.9 650.7,233.2 651.0,232.2 651.2,230.4 651.4,230.7 651.7,235.7 651.9,235.4 652.2,234.5 652.4,234.5 652.6,235.8 652.9,235.3 653.1,234.2 653.3,233.2 653.6,234.7 653.8,232.5 654.1,231.7 654.3,231.2 654.5,231.2 654.8,234.2 655.0,236.3 655.3,234.7 655.5,236.0 655.7,237.4 656.0,236.6 656.2,238.8 656.5,243.3 656.7,242.2 656.9,242.9 657.2,243.0 657.4,245.9 657.7,247.4 657.9,248.7 658.1,249.7 658.4,246.1 658.6,246.1 658.9,246.1 659.1,246.2 659.3,244.7 659.6,243.6 659.8,242.2 660.1,244.2 660.3,247.7 660.5,246.8 660.8,246.0 661.0,246.8 661.3,246.9 661.5,246.5 661.7,245.1 662.0,244.8 662.2,243.9 662.5,244.5 662.7,244.0 662.9,244.7 663.2,244.1 663.4,243.4 663.7,243.5 663.9,243.7 664.1,242.8 664.4,242.6 664.6,242.9 664.9,243.2 665.1,243.6 665.3,243.5 665.6,240.8 665.8,239.6 666.0,238.3 666.3,239.4 666.5,239.9 666.8,239.3 667.0,241.8 667.2,243.1 667.5,243.7 667.7,242.9 668.0,245.6 668.2,244.5 668.4,243.6 668.7,242.1 668.9,242.9 669.2,244.0 669.4,244.3 669.6,245.9 669.9,247.4 670.1,247.4 670.4,250.4 670.6,249.9 670.8,253.2 671.1,251.1 671.3,250.4 671.6,250.0 671.8,252.8 672.0,256.7 672.3,256.1 672.5,255.3 672.8,253.0 673.0,253.6 673.2,253.3 673.5,255.3 673.7,255.1 674.0,254.4 674.2,252.2 674.4,244.7 674.7,244.1 674.9,245.4 675.2,243.5 675.4,241.7 675.6,242.6 675.9,243.2 676.1,243.2 676.4,244.0 676.6,247.8 676.8,247.9 677.1,247.9 677.3,247.9 677.5,249.5 677.8,248.6 678.0,248.3 678.3,246.8 678.5,247.8 678.7,247.7 679.0,248.3 679.2,251.0 679.5,250.2 679.7,247.6 679.9,248.1 680.2,247.9 680.4,247.2 680.7,247.8 680.9,245.4 681.1,245.5 681.4,245.9 681.6,244.3 681.9,242.7 682.1,241.2 682.3,240.6 682.6,238.5 682.8,236.4 683.1,238.1 683.3,237.5 683.5,239.6 683.8,238.2 684.0,238.5 684.3,239.9 684.5,240.0 684.7,239.1 685.0,238.1 685.2,238.0 685.5,238.5 685.7,238.9 685.9,239.4 686.2,235.6 686.4,237.0 686.7,237.8 686.9,239.7 687.1,238.3 687.4,239.3 687.6,239.0 687.9,240.2 688.1,238.8 688.3,240.7 688.6,241.1 688.8,240.2 689.1,238.4 689.3,236.0 689.5,234.9 689.8,234.6 690.0,236.1 690.2,239.7 690.5,238.8 690.7,241.1 691.0,239.6 691.2,241.0 691.4,242.3 691.7,240.3 691.9,239.9 692.2,236.0 692.4,235.7 692.6,237.2 692.9,235.6 693.1,237.0 693.4,237.6 693.6,234.9 693.8,236.2 694.1,233.1 694.3,233.0 694.6,234.6 694.8,233.7 695.0,232.3 695.3,232.2 695.5,233.4 695.8,234.2 696.0,233.4"/>
  <text x="60" y="62" font-size="11" fill="#2563eb">Price index</text>
  <text x="146" y="62" font-size="11" fill="#16a34a">Total return (price + distributions)</text>
  <text x="56" y="348" font-size="11" text-anchor="middle" fill="#444">2015-11</text><text x="216" y="348" font-size="11" text-anchor="middle" fill="#444">2018-07</text><text x="376" y="348" font-size="11" text-anchor="middle" fill="#444">2021-03</text><text x="536" y="348" font-size="11" text-anchor="middle" fill="#444">2023-11</text><text x="696" y="348" font-size="11" text-anchor="middle" fill="#444">2026-07</text>
</svg>
