<svg xmlns="http://www.w3.org/2000/svg" width="720" height="360" viewBox="0 0 720 360">
  <rect width="720" height="360" fill="#fafafa"/>
  <text x="56" y="22" font-size="13" font-family="sans-serif" fill="#222">DHR total return (rebased 100) · cumulative distributions $0.00/sh · market cap n/a</text>
  <line x1="56" y1="308" x2="696" y2="308" stroke="#ccc"/>
  <line x1="56" y1="48" x2="56" y2="308" stroke="#ccc"/>
  <polyline fill="none" stroke="#2563eb" stroke-width="2" points="56.0,286.1 58.7,285.8 61.4,285.2 64.0,284.3 66.7,283.9 69.4,284.1 72.1,283.7 74.7,284.3 77.4,284.4 80.1,284.5 82.8,283.8 85.5,283.3 88.1,283.5 90.8,282.7 93.5,281.3 96.2,280.5 98.8,280.2 101.5,279.9 104.2,283.4 106.9,283.7 109.6,283.1 112.2,282.6 114.9,282.5 117.6,282.8 120.3,282.1 122.9,281.6 125.6,285.0 128.3,287.7 131.0,288.7 133.7,288.5 136.3,288.7 139.0,290.1 141.7,289.1 144.4,288.0 147.0,287.4 149.7,287.1 152.4,287.2 155.1,287.3 157.8,285.5 160.4,285.3 163.1,284.5 165.8,283.4 168.5,284.4 171.1,283.7 173.8,282.1 176.5,280.9 179.2,282.2 181.9,283.6 184.5,282.9 187.2,284.1 189.9,281.7 192.6,280.2 195.2,280.3 197.9,278.1 200.6,278.7 203.3,276.2 206.0,275.5 208.6,273.7 211.3,274.1 214.0,274.9 216.7,277.1 219.3,278.9 222.0,281.0 224.7,277.5 227.4,277.5 230.1,278.2 232.7,275.2 235.4,275.0 238.1,273.3 240.8,274.2 243.4,275.5 246.1,275.4 248.8,275.0 251.5,274.6 254.2,273.7 256.8,275.6 259.5,274.4 262.2,273.3 264.9,271.1 267.5,270.2 270.2,269.9 272.9,270.6 275.6,270.1 278.3,269.3 280.9,267.1 283.6,268.0 286.3,266.0 289.0,264.4 291.6,263.0 294.3,261.6 297.0,263.2 299.7,262.0 302.4,262.8 305.0,263.7 307.7,261.0 310.4,260.8 313.1,263.5 315.7,262.0 318.4,262.3 321.1,259.9 323.8,258.2 326.5,257.0 329.1,258.8 331.8,256.1 334.5,257.4 337.2,259.1 339.8,256.6 342.5,257.0 345.2,253.8 347.9,256.3 350.6,257.2 353.2,252.8 355.9,251.1 358.6,253.0 361.3,256.5 363.9,255.0 366.6,252.0 369.3,250.9 372.0,250.0 374.7,248.6 377.3,245.1 380.0,245.1 382.7,247.3 385.4,247.2 388.1,247.4 390.7,247.7 393.4,243.3 396.1,242.1 398.8,242.1 401.4,243.7 404.1,242.5 406.8,242.9 409.5,245.0 412.2,243.6 414.8,241.9 417.5,237.2 420.2,235.7 422.9,236.8 425.5,230.7 428.2,233.2 430.9,233.1 433.6,231.4 436.3,232.2 438.9,232.6 441.6,229.8 444.3,229.1 447.0,225.4 449.6,232.1 452.3,224.7 455.0,229.4 457.7,223.7 460.4,212.1 463.0,208.5 465.7,208.2 468.4,208.5 471.1,200.6 473.7,202.3 476.4,201.2 479.1,199.5 481.8,204.3 484.5,198.4 487.1,192.9 489.8,187.6 492.5,199.4 495.2,203.8 497.8,185.7 500.5,183.4 503.2,176.0 505.9,156.5 508.6,154.6 511.2,148.2 513.9,137.9 516.6,141.5 519.3,143.3 521.9,131.9 524.6,145.0 527.3,141.1 530.0,120.2 532.7,118.7 535.3,109.8 538.0,88.7 540.7,69.4 543.4,83.7 546.0,78.4 548.7,71.3 551.4,65.9 554.1,97.2 556.8,105.4 559.4,91.7 562.1,122.3 564.8,113.1 567.5,120.6 570.1,93.1 572.8,108.7 575.5,117.1 578.2,121.9 580.9,106.2 583.5,111.9 586.2,112.7 588.9,124.9 591.6,121.6 594.2,132.6 596.9,137.8 599.6,130.3 602.3,119.4 605.0,112.2 607.6,124.5 610.3,147.3 613.0,121.7 615.7,115.2 618.3,108.2 621.0,97.4 623.7,100.2 626.4,102.7 629.1,94.4 631.7,100.1 634.4,77.8 637.1,84.2 639.8,77.1 642.4,103.5 645.1,108.4 647.8,116.6 650.5,122.2 653.2,134.4 655.8,136.7 658.5,141.3 661.2,149.0 663.9,142.8 666.5,143.1 669.2,136.0 671.9,142.2 674.6,128.2 677.3,118.9 679.9,117.2 682.6,125.3 685.3,132.1 688.0,149.2 690.6,157.9 693.3,154.9 696.0,156.3"/>
  <polyline fill="none" stroke="#16a34a" stroke-width="2" points="56.0,286.1 58.7,285.8 61.4,285.2 64.0,284.3 66.7,283.9 69.4,284.1 72.1,283.7 74.7,284.3 77.4,284.4 80.1,284.5 82.8,283.8 85.5,283.3 88.1,283.5 90.8,282.7 93.5,281.3 96.2,280.5 98.8,280.2 101.5,279.9 104.2,283.4 106.9,283.7 109.6,283.1 112.2,282.6 114.9,282.5 117.6,282.8 120.3,282.1 122.9,281.6 125.6,285.0 128.3,287.7 131.0,288.7 133.7,288.5 136.3,288.7 139.0,290.1 141.7,289.1 144.4,288.0 147.0,287.4 149.7,287.1 152.4,287.2 155.1,287.3 157.8,285.5 160.4,285.3 163.1,284.5 165.8,283.4 168.5,284.4 171.1,283.7 173.8,282.1 176.5,280.9 179.2,282.2 181.9,283.6 184.5,282.9 187.2,284.1 189.9,281.7 192.6,280.2 195.2,280.3 197.9,278.1 200.6,278.7 203.3,276.2 206.0,275.5 208.6,273.7 211.3,274.1 214.0,274.9 216.7,277.1 219.3,278.9 222.0,281.0 224.7,277.5 227.4,277.5 230.1,278.2 232.7,275.2 235.4,275.0 238.1,273.3 240.8,274.2 243.4,275.5 246.1,275.4 248.8,275.0 251.5,274.6 254.2,273.7 256.8,275.6 259.5,274.4 262.2,273.3 264.9,271.1 267.5,270.2 270.2,269.9 272.9,270.6 275.6,270.1 278.3,269.3 280.9,267.1 283.6,268.0 286.3,266.0 289.0,264.4 291.6,263.0 294.3,261.6 297.0,263.2 299.7,262.0 302.4,262.8 305.0,263.7 307.7,261.0 310.4,260.8 313.1,263.5 315.7,262.0 318.4,262.3 321.1,259.9 323.8,258.2 326.5,257.0 329.1,258.8 331.8,256.1 334.5,257.4 337.2,259.1 339.8,256.6 342.5,257.0 345.2,253.8 347.9,256.3 350.6,257.2 353.2,252.8 355.9,251.1 358.6,253.0 361.3,256.5 363.9,255.0 366.6,252.0 369.3,250.9 372.0,250.0 374.7,248.6 377.3,245.1 380.0,245.1 382.7,247.3 385.4,247.2 388.1,247.4 390.7,247.7 393.4,243.3 396.1,242.1 398.8,242.1 401.4,243.7 404.1,242.5 406.8,242.9 409.5,245.0 412.2,243.6 414.8,241.9 417.5,237.2 420.2,235.7 422.9,236.8 425.5,230.7 428.2,233.2 430.9,233.1 433.6,231.4 436.3,232.2 438.9,232.6 441.6,229.8 444.3,229.1 447.0,225.4 449.6,232.1 452.3,224.7 455.0,229.4 457.7,223.7 460.4,212.1 463.0,208.5 465.7,208.2 468.4,208.5 471.1,200.6 473.7,202.3 476.4,201.2 479.1,199.5 481.8,204.3 484.5,198.4 487.1,192.9 489.8,187.6 492.5,199.4 495.2,203.8 497.8,185.7 500.5,183.4 503.2,176.0 505.9,156.5 508.6,154.6 511.2,148.2 513.9,137.9 516.6,141.5 519.3,143.3 521.9,131.9 524.6,145.0 527.3,141.1 530.0,120.2 532.7,118.7 535.3,109.8 538.0,88.7 540.7,69.4 543.4,83.7 546.0,78.4 548.7,71.3 551.4,65.9 554.1,97.2 556.8,105.4 559.4,91.7 562.1,122.3 564.8,113.1 567.5,120.6 570.1,93.1 572.8,108.7 575.5,117.1 578.2,121.9 580.9,106.2 583.5,111.9 586.2,112.7 588.9,124.9 591.6,121.6 594.2,132.6 596.9,137.8 599.6,130.3 602.3,119.4 605.0,112.2 607.6,124.5 610.3,147.3 613.0,121.7 615.7,115.2 618.3,108.2 621.0,97.4 623.7,100.2 626.4,102.7 629.1,94.4 631.7,100.1 634.4,77.8 637.1,84.2 639.8,77.1 642.4,103.5 645.1,108.4 647.8,116.6 650.5,122.2 653.2,134.4 655.8,136.7 658.5,141.3 661.2,149.0 663.9,142.8 666.5,143.1 669.2,136.0 671.9,142.2 674.6,128.2 677.3,118.9 679.9,117.2 682.6,125.3 685.3,132.1 688.0,149.2 690.6,157.9 693.3,154.9 696.0,156.3"/>
  <text x="60" y="62" font-size="11" fill="#2563eb">Price index</text>
  <text x="146" y="62" font-size="11" fill="#16a34a">Total return (price + distributions)</text>
  <text x="56" y="348" font-size="11" text-anchor="middle" fill="#444">2006-07</text><text x="217" y="348" font-size="11" text-anchor="middle" fill="#444">2011-07</text><text x="377" y="348" font-size="11" text-anchor="middle" fill="#444">2016-07</text><text x="538" y="348" font-size="11" text-anchor="middle" fill="#444">2021-07</text><text x="696" y="348" font-size="11" text-anchor="middle" fill="#444">2026-06</text>
</svg>
