<svg xmlns="http://www.w3.org/2000/svg" width="720" height="360" viewBox="0 0 720 360">
  <rect width="720" height="360" fill="#fafafa"/>
  <text x="56" y="22" font-size="13" font-family="sans-serif" fill="#222">BUR total return (rebased 100) · cumulative distributions $0.00/sh · market cap n/a</text>
  <line x1="56" y1="308" x2="696" y2="308" stroke="#ccc"/>
  <line x1="56" y1="48" x2="56" y2="308" stroke="#ccc"/>
  <polyline fill="none" stroke="#2563eb" stroke-width="2" points="56.0,177.5 56.5,175.7 56.9,183.9 57.4,184.8 57.8,186.4 58.3,189.7 58.7,192.4 59.2,202.3 59.6,205.2 60.1,202.9 60.5,211.7 61.0,203.6 61.4,198.5 61.9,196.0 62.3,195.8 62.8,185.7 63.2,188.9 63.7,189.7 64.1,186.4 64.6,183.5 65.0,177.2 65.5,180.3 65.9,176.6 66.4,171.3 66.8,172.3 67.3,173.0 67.7,173.0 68.2,172.1 68.6,176.8 69.1,178.6 69.5,178.3 70.0,181.9 70.5,191.3 70.9,183.7 71.4,189.1 71.8,192.6 72.3,186.2 72.7,190.9 73.2,191.8 73.6,191.1 74.1,185.7 74.5,183.0 75.0,188.0 75.4,193.1 75.9,194.7 76.3,193.8 76.8,193.6 77.2,189.1 77.7,192.4 78.1,191.1 78.6,189.8 79.0,188.0 79.5,189.7 79.9,181.7 80.4,186.1 80.8,192.2 81.3,192.9 81.7,198.0 82.2,200.5 82.6,203.6 83.1,205.9 83.6,204.1 84.0,201.2 84.5,200.5 84.9,199.4 85.4,202.2 85.8,206.1 86.3,206.9 86.7,211.2 87.2,208.5 87.6,209.4 88.1,204.5 88.5,203.2 89.0,207.9 89.4,209.7 89.9,209.6 90.3,208.6 90.8,205.8 91.2,202.7 91.7,200.7 92.1,198.9 92.6,178.5 93.0,195.1 93.5,197.6 93.9,204.1 94.4,200.9 94.8,198.5 95.3,196.2 95.7,202.7 96.2,208.1 96.6,209.0 97.1,212.3 97.6,212.3 98.0,211.7 98.5,214.5 98.9,205.8 99.4,210.1 99.8,211.6 100.3,207.2 100.7,206.1 101.2,206.1 101.6,208.5 102.1,210.5 102.5,210.7 103.0,208.5 103.4,208.8 103.9,213.0 104.3,211.2 104.8,215.9 105.2,216.6 105.7,211.6 106.1,208.1 106.6,200.2 107.0,182.4 107.5,179.5 107.9,180.6 108.4,181.0 108.8,182.1 109.3,186.4 109.7,185.7 110.2,185.5 110.7,183.9 111.1,183.3 111.6,179.4 112.0,169.0 112.5,175.4 112.9,163.1 113.4,154.9 113.8,155.7 114.3,146.8 114.7,139.7 115.2,137.0 115.6,128.3 116.1,130.2 116.5,138.7 117.0,132.7 117.4,134.3 117.9,135.4 118.3,117.8 118.8,121.3 119.2,134.0 119.7,145.3 120.1,147.0 120.6,136.8 121.0,143.2 121.5,141.5 121.9,144.1 122.4,145.9 122.8,144.4 123.3,152.9 123.7,149.5 124.2,149.0 124.7,148.4 125.1,145.9 125.6,145.9 126.0,147.3 126.5,152.6 126.9,149.3 127.4,156.0 127.8,155.8 128.3,158.6 128.7,161.4 129.2,161.3 129.6,163.6 130.1,164.0 130.5,160.9 131.0,162.7 131.4,168.9 131.9,165.2 132.3,165.6 132.8,164.9 133.2,165.1 133.7,170.7 134.1,171.4 134.6,173.6 135.0,175.0 135.5,173.0 135.9,171.8 136.4,176.8 136.8,179.5 137.3,181.0 137.8,171.2 138.2,168.9 138.7,167.1 139.1,169.9 139.6,175.9 140.0,168.9 140.5,180.1 140.9,180.8 141.4,169.9 141.8,171.8 142.3,169.2 142.7,170.1 143.2,171.6 143.6,170.9 144.1,164.2 144.5,167.6 145.0,168.5 145.4,165.4 145.9,158.2 146.3,158.6 146.8,155.5 147.2,157.3 147.7,154.2 148.1,149.9 148.6,149.7 149.0,152.0 149.5,154.4 149.9,157.5 150.4,152.9 150.8,153.1 151.3,152.8 151.8,154.9 152.2,149.1 152.7,145.2 153.1,148.1 153.6,141.4 154.0,145.2 154.5,146.1 154.9,143.4 155.4,143.5 155.8,148.1 156.3,153.8 156.7,153.5 157.2,157.1 157.6,164.2 158.1,164.5 158.5,167.1 159.0,165.6 159.4,168.7 159.9,165.8 160.3,169.6 160.8,168.3 161.2,163.6 161.7,161.3 162.1,166.0 162.6,160.4 163.0,165.8 163.5,164.7 163.9,164.2 164.4,164.0 164.8,163.3 165.3,164.0 165.8,165.4 166.2,167.4 166.7,168.1 167.1,171.8 167.6,170.7 168.0,171.2 168.5,166.5 168.9,166.3 169.4,168.5 169.8,168.0 170.3,167.6 170.7,162.5 171.2,156.9 171.6,162.0 172.1,166.2 172.5,169.9 173.0,173.9 173.4,173.0 173.9,169.4 174.3,160.0 174.8,155.5 175.2,153.3 175.7,154.0 176.1,153.3 176.6,158.2 177.0,161.4 177.5,159.8 177.9,156.9 178.4,158.2 178.9,161.6 179.3,165.2 179.8,169.9 180.2,171.2 180.7,173.0 181.1,172.5 181.6,170.5 182.0,175.9 182.5,177.0 182.9,174.7 183.4,179.4 183.8,183.2 184.3,182.3 184.7,177.4 185.2,177.2 185.6,177.5 186.1,177.7 186.5,177.2 187.0,182.4 187.4,183.0 187.9,182.1 188.3,183.2 188.8,184.6 189.2,189.5 189.7,182.3 190.1,175.7 190.6,177.4 191.0,175.0 191.5,174.7 191.9,180.3 192.4,179.5 192.9,171.9 193.3,171.9 193.8,167.2 194.2,177.0 194.7,173.7 195.1,171.4 195.6,178.3 196.0,179.0 196.5,180.4 196.9,180.8 197.4,183.0 197.8,183.7 198.3,188.9 198.7,191.3 199.2,197.1 199.6,195.6 200.1,197.1 200.5,201.6 201.0,200.3 201.4,198.2 201.9,192.6 202.3,188.0 202.8,187.5 203.2,190.2 203.7,194.6 204.1,194.7 204.6,194.9 205.0,188.6 205.5,189.3 206.0,193.1 206.4,192.4 206.9,191.3 207.3,188.0 207.8,191.5 208.2,194.2 208.7,195.1 209.1,196.7 209.6,197.3 210.0,187.9 210.5,186.4 210.9,191.5 211.4,193.1 211.8,199.6 212.3,207.2 212.7,213.2 213.2,205.8 213.6,197.8 214.1,198.4 214.5,199.4 215.0,197.4 215.4,197.4 215.9,194.4 216.3,190.9 216.8,190.2 217.2,192.2 217.7,189.3 218.1,187.7 218.6,185.0 219.0,183.7 219.5,187.5 220.0,185.3 220.4,191.3 220.9,196.7 221.3,196.0 221.8,190.6 222.2,188.9 222.7,195.5 223.1,194.0 223.6,195.5 224.0,195.8 224.5,197.3 224.9,196.4 225.4,197.8 225.8,199.4 226.3,199.8 226.7,200.0 227.2,201.1 227.6,200.2 228.1,202.9 228.5,207.6 229.0,208.5 229.4,206.3 229.9,209.9 230.3,207.4 230.8,210.3 231.2,210.1 231.7,215.7 232.1,220.1 232.6,228.2 233.1,228.9 233.5,227.1 234.0,227.7 234.4,224.2 234.9,224.6 235.3,219.7 235.8,224.0 236.2,221.7 236.7,221.1 237.1,215.0 237.6,214.5 238.0,214.3 238.5,210.5 238.9,206.1 239.4,203.2 239.8,201.2 240.3,198.9 240.7,199.6 241.2,195.6 241.6,194.6 242.1,193.5 242.5,190.8 243.0,194.9 243.4,201.8 243.9,201.6 244.3,195.5 244.8,203.8 245.2,202.0 245.7,201.1 246.1,201.8 246.6,203.1 247.1,195.3 247.5,181.9 248.0,178.1 248.4,181.5 248.9,180.4 249.3,185.3 249.8,186.6 250.2,190.6 250.7,185.9 251.1,182.4 251.6,183.7 252.0,179.0 252.5,182.4 252.9,184.4 253.4,178.1 253.8,175.6 254.3,171.6 254.7,166.2 255.2,163.1 255.6,171.6 256.1,168.1 256.5,172.7 257.0,169.9 257.4,169.4 257.9,170.1 258.3,169.0 258.8,175.2 259.2,166.2 259.7,166.0 260.1,168.0 260.6,166.0 261.1,173.2 261.5,170.3 262.0,174.3 262.4,172.5 262.9,176.5 263.3,177.7 263.8,181.7 264.2,182.8 264.7,187.0 265.1,189.8 265.6,190.0 266.0,190.0 266.5,185.3 266.9,190.6 267.4,191.3 267.8,191.1 268.3,194.0 268.7,199.3 269.2,198.9 269.6,201.1 270.1,205.6 270.5,210.1 271.0,208.5 271.4,204.5 271.9,211.7 272.3,215.2 272.8,213.9 273.2,216.4 273.7,216.8 274.2,222.0 274.6,222.8 275.1,226.6 275.5,228.7 276.0,232.0 276.4,233.8 276.9,228.7 277.3,229.8 277.8,227.3 278.2,219.9 278.7,216.3 279.1,214.5 279.6,218.3 280.0,219.7 280.5,224.4 280.9,227.8 281.4,234.5 281.8,232.5 282.3,232.9 282.7,225.5 283.2,222.2 283.6,223.7 284.1,225.1 284.5,225.1 285.0,222.8 285.4,218.8 285.9,214.5 286.3,218.6 286.8,217.0 287.2,216.6 287.7,217.7 288.2,215.5 288.6,220.1 289.1,213.4 289.5,207.4 290.0,209.9 290.4,210.7 290.9,203.1 291.3,201.6 291.8,206.1 292.2,203.2 292.7,205.6 293.1,204.1 293.6,199.6 294.0,204.3 294.5,201.4 294.9,199.4 295.4,199.4 295.8,200.2 296.3,199.6 296.7,196.4 297.2,196.7 297.6,201.2 298.1,206.5 298.5,209.7 299.0,207.8 299.4,205.6 299.9,205.0 300.3,202.7 300.8,204.1 301.3,207.4 301.7,212.1 302.2,217.9 302.6,220.1 303.1,218.3 303.5,217.5 304.0,220.1 304.4,220.4 304.9,221.0 305.3,217.3 305.8,217.2 306.2,215.5 306.7,211.9 307.1,209.6 307.6,208.7 308.0,205.6 308.5,205.8 308.9,198.7 309.4,196.2 309.8,197.1 310.3,197.8 310.7,201.6 311.2,203.1 311.6,205.0 312.1,202.3 312.5,197.8 313.0,195.8 313.4,194.0 313.9,196.2 314.3,199.6 314.8,197.4 315.3,197.8 315.7,198.4 316.2,201.8 316.6,207.8 317.1,210.1 317.5,211.2 318.0,211.6 318.4,213.9 318.9,213.7 319.3,212.1 319.8,211.7 320.2,211.7 320.7,213.4 321.1,213.7 321.6,217.2 322.0,217.7 322.5,216.3 322.9,217.5 323.4,215.7 323.8,215.5 324.3,215.7 324.7,213.0 325.2,213.4 325.6,210.8 326.1,215.5 326.5,214.5 327.0,217.3 327.4,220.1 327.9,222.8 328.4,221.7 328.8,224.2 329.3,235.8 329.7,240.9 330.2,242.9 330.6,237.1 331.1,234.7 331.5,235.8 332.0,234.9 332.4,232.2 332.9,233.1 333.3,234.7 333.8,232.4 334.2,162.9 334.7,162.9 335.1,151.5 335.6,150.8 336.0,141.0 336.5,132.1 336.9,136.8 337.4,135.9 337.8,134.0 338.3,133.6 338.7,134.7 339.2,136.7 339.6,134.0 340.1,130.3 340.5,128.2 341.0,129.8 341.4,135.0 341.9,130.9 342.4,128.7 342.8,122.0 343.3,122.4 343.7,127.6 344.2,119.3 344.6,125.6 345.1,120.2 345.5,117.5 346.0,115.3 346.4,116.9 346.9,119.7 347.3,119.7 347.8,116.0 348.2,115.1 348.7,114.2 349.1,113.0 349.6,118.4 350.0,126.7 350.5,117.8 350.9,125.8 351.4,119.5 351.8,118.4 352.3,125.3 352.7,123.1 353.2,118.4 353.6,120.4 354.1,122.6 354.5,119.3 355.0,122.7 355.4,124.2 355.9,125.1 356.4,127.3 356.8,126.9 357.3,132.5 357.7,133.8 358.2,133.8 358.6,128.9 359.1,134.0 359.5,133.6 360.0,139.6 360.4,142.5 360.9,143.0 361.3,147.5 361.8,145.7 362.2,142.6 362.7,139.0 363.1,139.4 363.6,143.7 364.0,141.5 364.5,143.4 364.9,145.5 365.4,145.0 365.8,142.8 366.3,146.8 366.7,139.7 367.2,141.7 367.6,141.4 368.1,135.0 368.5,136.1 369.0,131.6 369.5,127.6 369.9,120.9 370.4,125.3 370.8,117.3 371.3,119.1 371.7,111.7 372.2,118.2 372.6,115.1 373.1,113.1 373.5,111.3 374.0,116.2 374.4,116.0 374.9,102.8 375.3,111.0 375.8,105.9 376.2,108.4 376.7,112.4 377.1,120.7 377.6,128.0 378.0,126.5 378.5,123.5 378.9,121.5 379.4,121.3 379.8,115.5 380.3,114.8 380.7,111.5 381.2,111.9 381.6,113.9 382.1,112.8 382.5,119.3 383.0,117.8 383.5,112.1 383.9,75.2 384.4,67.2 384.8,71.2 385.3,75.7 385.7,83.5 386.2,94.3 386.6,99.8 387.1,95.6 387.5,100.3 388.0,105.0 388.4,102.7 388.9,104.5 389.3,103.2 389.8,107.2 390.2,112.4 390.7,109.7 391.1,115.7 391.6,126.4 392.0,128.9 392.5,127.8 392.9,127.8 393.4,130.2 393.8,123.6 394.3,119.5 394.7,128.0 395.2,128.2 395.6,128.7 396.1,129.1 396.6,132.0 397.0,136.3 397.5,139.0 397.9,138.8 398.4,138.8 398.8,141.9 399.3,139.9 399.7,140.6 400.2,139.6 400.6,137.9 401.1,136.5 401.5,131.8 402.0,123.6 402.4,123.1 402.9,122.6 403.3,123.6 403.8,127.3 404.2,116.8 404.7,115.9 405.1,114.1 405.6,122.0 406.0,125.4 406.5,122.9 406.9,105.5 407.4,111.3 407.8,102.1 408.3,104.3 408.7,111.5 409.2,116.9 409.6,116.6 410.1,111.7 410.6,111.9 411.0,113.1 411.5,118.0 411.9,120.9 412.4,119.7 412.8,120.6 413.3,116.9 413.7,115.0 414.2,111.2 414.6,117.7 415.1,124.5 415.5,120.4 416.0,117.1 416.4,124.9 416.9,126.0 417.3,118.2 417.8,118.6 418.2,73.7 418.7,76.2 419.1,80.8 419.6,89.8 420.0,94.2 420.5,94.2 420.9,96.0 421.4,95.4 421.8,93.4 422.3,93.2 422.7,93.4 423.2,88.5 423.6,99.9 424.1,103.6 424.6,101.6 425.0,97.6 425.5,98.9 425.9,93.2 426.4,93.8 426.8,88.7 427.3,88.9 427.7,84.4 428.2,85.8 428.6,90.9 429.1,88.9 429.5,93.6 430.0,96.3 430.4,101.6 430.9,103.0 431.3,103.2 431.8,103.2 432.2,92.9 432.7,100.1 433.1,99.2 433.6,88.7 434.0,86.2 434.5,85.5 434.9,92.7 435.4,85.8 435.8,80.4 436.3,80.8 436.7,80.6 437.2,92.2 437.7,89.3 438.1,90.2 438.6,99.4 439.0,109.0 439.5,109.5 439.9,107.2 440.4,109.3 440.8,112.2 441.3,111.0 441.7,114.4 442.2,103.6 442.6,101.9 443.1,104.3 443.5,99.6 444.0,92.7 444.4,91.4 444.9,87.1 445.3,91.3 445.8,81.5 446.2,72.6 446.7,74.1 447.1,74.6 447.6,75.0 448.0,73.2 448.5,80.0 448.9,79.9 449.4,74.6 449.8,66.5 450.3,65.9 450.7,67.2 451.2,89.6 451.7,94.5 452.1,92.3 452.6,90.5 453.0,94.2 453.5,97.6 453.9,93.1 454.4,84.7 454.8,88.4 455.3,88.4 455.7,84.6 456.2,81.1 456.6,86.4 457.1,83.3 457.5,75.9 458.0,76.4 458.4,70.3 458.9,71.9 459.3,71.9 459.8,79.1 460.2,83.7 460.7,100.7 461.1,107.2 461.6,99.4 462.0,105.4 462.5,103.7 462.9,105.7 463.4,106.6 463.8,109.9 464.3,111.7 464.8,105.2 465.2,109.0 465.7,110.6 466.1,106.6 466.6,101.7 467.0,97.0 467.5,99.0 467.9,107.2 468.4,111.2 468.8,104.3 469.3,110.6 469.7,116.4 470.2,111.2 470.6,112.4 471.1,116.4 471.5,114.8 472.0,123.6 472.4,123.6 472.9,124.9 473.3,127.3 473.8,132.1 474.2,127.8 474.7,130.2 475.1,126.9 475.6,135.9 476.0,127.6 476.5,129.1 476.9,128.2 477.4,126.0 477.8,129.4 478.3,124.9 478.8,118.8 479.2,116.6 479.7,113.3 480.1,105.7 480.6,106.5 481.0,111.2 481.5,117.3 481.9,114.4 482.4,112.6 482.8,119.5 483.3,118.4 483.7,109.0 484.2,119.1 484.6,112.1 485.1,107.7 485.5,117.3 486.0,126.7 486.4,137.9 486.9,135.6 487.3,136.8 487.8,136.5 488.2,130.3 488.7,134.3 489.1,130.5 489.6,129.1 490.0,122.9 490.5,123.5 490.9,118.0 491.4,123.8 491.9,121.8 492.3,127.1 492.8,120.7 493.2,120.0 493.7,121.3 494.1,122.2 494.6,119.3 495.0,118.6 495.5,128.7 495.9,127.4 496.4,128.2 496.8,132.9 497.3,130.2 497.7,130.7 498.2,131.2 498.6,128.0 499.1,121.8 499.5,123.5 500.0,119.8 500.4,120.9 500.9,115.3 501.3,122.0 501.8,122.6 502.2,120.0 502.7,126.0 503.1,122.2 503.6,117.7 504.0,123.1 504.5,130.7 504.9,126.7 505.4,129.6 505.9,122.6 506.3,127.3 506.8,128.7 507.2,123.3 507.7,122.6 508.1,119.7 508.6,117.3 509.0,118.4 509.5,111.7 509.9,112.6 510.4,111.0 510.8,116.4 511.3,115.3 511.7,115.1 512.2,113.5 512.6,117.7 513.1,116.2 513.5,118.8 514.0,114.6 514.4,118.8 514.9,118.8 515.3,120.4 515.8,114.6 516.2,98.7 516.7,105.2 517.1,113.0 517.6,114.4 518.0,121.6 518.5,124.7 518.9,121.5 519.4,124.4 519.9,120.7 520.3,119.8 520.8,117.8 521.2,114.6 521.7,113.3 522.1,115.5 522.6,119.8 523.0,118.0 523.5,116.4 523.9,116.4 524.4,121.1 524.8,121.5 525.3,120.9 525.7,122.4 526.2,120.9 526.6,116.0 527.1,113.0 527.5,118.4 528.0,118.8 528.4,118.4 528.9,119.5 529.3,128.5 529.8,128.9 530.2,129.1 530.7,132.5 531.1,131.6 531.6,129.6 532.0,132.9 532.5,133.0 533.0,132.3 533.4,129.8 533.9,123.5 534.3,125.3 534.8,130.0 535.2,132.0 535.7,136.7 536.1,136.8 536.6,136.5 537.0,126.0 537.5,127.3 537.9,126.2 538.4,111.0 538.8,112.1 539.3,108.4 539.7,110.1 540.2,98.5 540.6,96.9 541.1,103.2 541.5,104.1 542.0,109.0 542.4,112.8 542.9,108.6 543.3,105.7 543.8,101.9 544.2,100.3 544.7,93.8 545.1,90.0 545.6,93.8 546.0,87.6 546.5,85.1 547.0,84.9 547.4,83.1 547.9,83.1 548.3,85.3 548.8,82.4 549.2,81.5 549.7,82.6 550.1,81.3 550.6,80.8 551.0,104.5 551.5,117.5 551.9,117.1 552.4,115.0 552.8,119.3 553.3,130.3 553.7,122.7 554.2,119.8 554.6,123.5 555.1,117.3 555.5,114.1 556.0,111.9 556.4,109.0 556.9,107.7 557.3,112.8 557.8,111.2 558.2,109.7 558.7,115.0 559.1,114.6 559.6,119.3 560.1,124.0 560.5,118.8 561.0,116.4 561.4,132.1 561.9,147.3 562.3,151.5 562.8,150.6 563.2,130.0 563.7,142.1 564.1,133.6 564.6,124.4 565.0,117.3 565.5,112.6 565.9,112.2 566.4,116.8 566.8,108.3 567.3,110.3 567.7,113.1 568.2,115.5 568.6,116.9 569.1,114.4 569.5,117.3 570.0,118.4 570.4,110.3 570.9,110.6 571.3,112.6 571.8,109.3 572.2,110.8 572.7,113.5 573.1,104.6 573.6,103.4 574.1,101.9 574.5,114.4 575.0,116.2 575.4,116.2 575.9,115.9 576.3,125.6 576.8,124.9 577.2,127.1 577.7,124.0 578.1,130.0 578.6,127.4 579.0,130.3 579.5,133.2 579.9,130.0 580.4,132.1 580.8,125.1 581.3,121.8 581.7,123.5 582.2,124.9 582.6,124.2 583.1,130.3 583.5,135.4 584.0,134.3 584.4,165.6 584.9,163.3 585.3,163.4 585.8,163.3 586.2,157.8 586.7,160.7 587.2,153.3 587.6,151.5 588.1,105.0 588.5,125.3 589.0,119.7 589.4,107.9 589.9,107.9 590.3,99.2 590.8,94.5 591.2,99.0 591.7,106.5 592.1,103.0 592.6,111.5 593.0,107.0 593.5,102.5 593.9,109.2 594.4,114.1 594.8,110.6 595.3,107.9 595.7,111.7 596.2,113.7 596.6,120.2 597.1,126.0 597.5,129.2 598.0,130.5 598.4,138.1 598.9,134.5 599.3,132.7 599.8,132.3 600.2,128.3 600.7,120.2 601.2,119.7 601.6,113.9 602.1,109.5 602.5,117.3 603.0,120.6 603.4,116.8 603.9,112.6 604.3,113.0 604.8,116.9 605.2,110.1 605.7,112.4 606.1,110.8 606.6,114.1 607.0,114.4 607.5,109.7 607.9,113.1 608.4,124.2 608.8,122.2 609.3,121.8 609.7,132.7 610.2,136.1 610.6,137.2 611.1,127.8 611.5,129.4 612.0,129.8 612.4,130.9 612.9,131.1 613.3,130.2 613.8,137.9 614.2,136.1 614.7,135.0 615.2,139.9 615.6,144.3 616.1,144.6 616.5,143.9 617.0,146.6 617.4,147.3 617.9,147.2 618.3,147.0 618.8,154.2 619.2,155.7 619.7,153.3 620.1,154.0 620.6,160.7 621.0,161.4 621.5,158.6 621.9,158.4 622.4,165.8 622.8,169.0 623.3,169.2 623.7,169.6 624.2,170.3 624.6,171.2 625.1,169.6 625.5,158.7 626.0,162.0 626.4,181.0 626.9,192.2 627.3,183.0 627.8,185.0 628.3,191.7 628.7,191.7 629.2,199.1 629.6,200.9 630.1,200.5 630.5,198.7 631.0,200.7 631.4,205.2 631.9,207.6 632.3,212.6 632.8,209.0 633.2,209.2 633.7,208.8 634.1,205.6 634.6,197.8 635.0,192.6 635.5,190.6 635.9,189.8 636.4,193.5 636.8,194.4 637.3,190.4 637.7,196.9 638.2,194.9 638.6,200.3 639.1,196.0 639.5,196.5 640.0,197.6 640.4,200.2 640.9,200.0 641.3,197.6 641.8,196.7 642.3,195.5 642.7,195.3 643.2,198.4 643.6,198.0 644.1,200.2 644.5,198.5 645.0,195.6 645.4,200.0 645.9,201.6 646.3,204.7 646.8,198.2 647.2,194.9 647.7,194.9 648.1,195.3 648.6,192.2 649.0,188.6 649.5,190.2 649.9,185.9 650.4,185.1 650.8,187.1 651.3,187.7 651.7,189.1 652.2,184.4 652.6,186.6 653.1,188.4 653.5,185.5 654.0,191.5 654.4,188.2 654.9,187.7 655.4,186.2 655.8,193.5 656.3,191.1 656.7,202.9 657.2,201.6 657.6,200.7 658.1,195.8 658.5,197.8 659.0,194.7 659.4,193.1 659.9,189.3 660.3,186.1 660.8,186.6 661.2,188.4 661.7,196.5 662.1,194.2 662.6,189.7 663.0,208.8 663.5,210.3 663.9,205.0 664.4,208.3 664.8,211.6 665.3,213.4 665.7,222.4 666.2,213.4 666.6,213.2 667.1,214.1 667.5,222.0 668.0,219.7 668.4,217.3 668.9,213.2 669.4,214.3 669.8,215.0 670.3,223.7 670.7,221.7 671.2,224.0 671.6,222.4 672.1,221.3 672.5,288.1 673.0,290.1 673.4,281.2 673.9,286.1 674.3,288.1 674.8,281.9 675.2,280.8 675.7,281.0 676.1,283.4 676.6,284.1 677.0,281.7 677.5,277.8 677.9,277.4 678.4,278.5 678.8,273.2 679.3,272.7 679.7,281.0 680.2,277.8 680.6,281.9 681.1,274.7 681.5,277.8 682.0,276.1 682.5,275.2 682.9,274.0 683.4,268.9 683.8,267.8 684.3,268.7 684.7,267.1 685.2,269.6 685.6,270.0 686.1,276.9 686.5,279.8 687.0,281.4 687.4,275.4 687.9,278.9 688.3,283.9 688.8,285.7 689.2,278.5 689.7,277.9 690.1,281.0 690.6,280.3 691.0,280.8 691.5,281.4 691.9,279.0 692.4,279.6 692.8,280.5 693.3,285.0 693.7,282.5 694.2,282.5 694.6,282.8 695.1,282.7 695.5,286.8 696.0,288.0"/>
  <polyline fill="none" stroke="#16a34a" stroke-width="2" points="56.0,177.5 56.5,175.7 56.9,183.9 57.4,184.8 57.8,186.4 58.3,189.7 58.7,192.4 59.2,202.3 59.6,205.2 60.1,202.9 60.5,211.7 61.0,203.6 61.4,198.5 61.9,196.0 62.3,195.8 62.8,185.7 63.2,188.9 63.7,189.7 64.1,186.4 64.6,183.5 65.0,177.2 65.5,180.3 65.9,176.6 66.4,171.3 66.8,172.3 67.3,173.0 67.7,173.0 68.2,172.1 68.6,176.8 69.1,178.6 69.5,178.3 70.0,181.9 70.5,191.3 70.9,183.7 71.4,189.1 71.8,192.6 72.3,186.2 72.7,190.9 73.2,191.8 73.6,191.1 74.1,185.7 74.5,183.0 75.0,188.0 75.4,193.1 75.9,194.7 76.3,193.8 76.8,193.6 77.2,189.1 77.7,192.4 78.1,191.1 78.6,189.8 79.0,188.0 79.5,189.7 79.9,181.7 80.4,186.1 80.8,192.2 81.3,192.9 81.7,198.0 82.2,200.5 82.6,203.6 83.1,205.9 83.6,204.1 84.0,201.2 84.5,200.5 84.9,199.4 85.4,202.2 85.8,206.1 86.3,206.9 86.7,211.2 87.2,208.5 87.6,209.4 88.1,204.5 88.5,203.2 89.0,207.9 89.4,209.7 89.9,209.6 90.3,208.6 90.8,205.8 91.2,202.7 91.7,200.7 92.1,198.9 92.6,178.5 93.0,195.1 93.5,197.6 93.9,204.1 94.4,200.9 94.8,198.5 95.3,196.2 95.7,202.7 96.2,208.1 96.6,209.0 97.1,212.3 97.6,212.3 98.0,211.7 98.5,214.5 98.9,205.8 99.4,210.1 99.8,211.6 100.3,207.2 100.7,206.1 101.2,206.1 101.6,208.5 102.1,210.5 102.5,210.7 103.0,208.5 103.4,208.8 103.9,213.0 104.3,211.2 104.8,215.9 105.2,216.6 105.7,211.6 106.1,208.1 106.6,200.2 107.0,182.4 107.5,179.5 107.9,180.6 108.4,181.0 108.8,182.1 109.3,186.4 109.7,185.7 110.2,185.5 110.7,183.9 111.1,183.3 111.6,179.4 112.0,169.0 112.5,175.4 112.9,163.1 113.4,154.9 113.8,155.7 114.3,146.8 114.7,139.7 115.2,137.0 115.6,128.3 116.1,130.2 116.5,138.7 117.0,132.7 117.4,134.3 117.9,135.4 118.3,117.8 118.8,121.3 119.2,134.0 119.7,145.3 120.1,147.0 120.6,136.8 121.0,143.2 121.5,141.5 121.9,144.1 122.4,145.9 122.8,144.4 123.3,152.9 123.7,149.5 124.2,149.0 124.7,148.4 125.1,145.9 125.6,145.9 126.0,147.3 126.5,152.6 126.9,149.3 127.4,156.0 127.8,155.8 128.3,158.6 128.7,161.4 129.2,161.3 129.6,163.6 130.1,164.0 130.5,160.9 131.0,162.7 131.4,168.9 131.9,165.2 132.3,165.6 132.8,164.9 133.2,165.1 133.7,170.7 134.1,171.4 134.6,173.6 135.0,175.0 135.5,173.0 135.9,171.8 136.4,176.8 136.8,179.5 137.3,181.0 137.8,171.2 138.2,168.9 138.7,167.1 139.1,169.9 139.6,175.9 140.0,168.9 140.5,180.1 140.9,180.8 141.4,169.9 141.8,171.8 142.3,169.2 142.7,170.1 143.2,171.6 143.6,170.9 144.1,164.2 144.5,167.6 145.0,168.5 145.4,165.4 145.9,158.2 146.3,158.6 146.8,155.5 147.2,157.3 147.7,154.2 148.1,149.9 148.6,149.7 149.0,152.0 149.5,154.4 149.9,157.5 150.4,152.9 150.8,153.1 151.3,152.8 151.8,154.9 152.2,149.1 152.7,145.2 153.1,148.1 153.6,141.4 154.0,145.2 154.5,146.1 154.9,143.4 155.4,143.5 155.8,148.1 156.3,153.8 156.7,153.5 157.2,157.1 157.6,164.2 158.1,164.5 158.5,167.1 159.0,165.6 159.4,168.7 159.9,165.8 160.3,169.6 160.8,168.3 161.2,163.6 161.7,161.3 162.1,166.0 162.6,160.4 163.0,165.8 163.5,164.7 163.9,164.2 164.4,164.0 164.8,163.3 165.3,164.0 165.8,165.4 166.2,167.4 166.7,168.1 167.1,171.8 167.6,170.7 168.0,171.2 168.5,166.5 168.9,166.3 169.4,168.5 169.8,168.0 170.3,167.6 170.7,162.5 171.2,156.9 171.6,162.0 172.1,166.2 172.5,169.9 173.0,173.9 173.4,173.0 173.9,169.4 174.3,160.0 174.8,155.5 175.2,153.3 175.7,154.0 176.1,153.3 176.6,158.2 177.0,161.4 177.5,159.8 177.9,156.9 178.4,158.2 178.9,161.6 179.3,165.2 179.8,169.9 180.2,171.2 180.7,173.0 181.1,172.5 181.6,170.5 182.0,175.9 182.5,177.0 182.9,174.7 183.4,179.4 183.8,183.2 184.3,182.3 184.7,177.4 185.2,177.2 185.6,177.5 186.1,177.7 186.5,177.2 187.0,182.4 187.4,183.0 187.9,182.1 188.3,183.2 188.8,184.6 189.2,189.5 189.7,182.3 190.1,175.7 190.6,177.4 191.0,175.0 191.5,174.7 191.9,180.3 192.4,179.5 192.9,171.9 193.3,171.9 193.8,167.2 194.2,177.0 194.7,173.7 195.1,171.4 195.6,178.3 196.0,179.0 196.5,180.4 196.9,180.8 197.4,183.0 197.8,183.7 198.3,188.9 198.7,191.3 199.2,197.1 199.6,195.6 200.1,197.1 200.5,201.6 201.0,200.3 201.4,198.2 201.9,192.6 202.3,188.0 202.8,187.5 203.2,190.2 203.7,194.6 204.1,194.7 204.6,194.9 205.0,188.6 205.5,189.3 206.0,193.1 206.4,192.4 206.9,191.3 207.3,188.0 207.8,191.5 208.2,194.2 208.7,195.1 209.1,196.7 209.6,197.3 210.0,187.9 210.5,186.4 210.9,191.5 211.4,193.1 211.8,199.6 212.3,207.2 212.7,213.2 213.2,205.8 213.6,197.8 214.1,198.4 214.5,199.4 215.0,197.4 215.4,197.4 215.9,194.4 216.3,190.9 216.8,190.2 217.2,192.2 217.7,189.3 218.1,187.7 218.6,185.0 219.0,183.7 219.5,187.5 220.0,185.3 220.4,191.3 220.9,196.7 221.3,196.0 221.8,190.6 222.2,188.9 222.7,195.5 223.1,194.0 223.6,195.5 224.0,195.8 224.5,197.3 224.9,196.4 225.4,197.8 225.8,199.4 226.3,199.8 226.7,200.0 227.2,201.1 227.6,200.2 228.1,202.9 228.5,207.6 229.0,208.5 229.4,206.3 229.9,209.9 230.3,207.4 230.8,210.3 231.2,210.1 231.7,215.7 232.1,220.1 232.6,228.2 233.1,228.9 233.5,227.1 234.0,227.7 234.4,224.2 234.9,224.6 235.3,219.7 235.8,224.0 236.2,221.7 236.7,221.1 237.1,215.0 237.6,214.5 238.0,214.3 238.5,210.5 238.9,206.1 239.4,203.2 239.8,201.2 240.3,198.9 240.7,199.6 241.2,195.6 241.6,194.6 242.1,193.5 242.5,190.8 243.0,194.9 243.4,201.8 243.9,201.6 244.3,195.5 244.8,203.8 245.2,202.0 245.7,201.1 246.1,201.8 246.6,203.1 247.1,195.3 247.5,181.9 248.0,178.1 248.4,181.5 248.9,180.4 249.3,185.3 249.8,186.6 250.2,190.6 250.7,185.9 251.1,182.4 251.6,183.7 252.0,179.0 252.5,182.4 252.9,184.4 253.4,178.1 253.8,175.6 254.3,171.6 254.7,166.2 255.2,163.1 255.6,171.6 256.1,168.1 256.5,172.7 257.0,169.9 257.4,169.4 257.9,170.1 258.3,169.0 258.8,175.2 259.2,166.2 259.7,166.0 260.1,168.0 260.6,166.0 261.1,173.2 261.5,170.3 262.0,174.3 262.4,172.5 262.9,176.5 263.3,177.7 263.8,181.7 264.2,182.8 264.7,187.0 265.1,189.8 265.6,190.0 266.0,190.0 266.5,185.3 266.9,190.6 267.4,191.3 267.8,191.1 268.3,194.0 268.7,199.3 269.2,198.9 269.6,201.1 270.1,205.6 270.5,210.1 271.0,208.5 271.4,204.5 271.9,211.7 272.3,215.2 272.8,213.9 273.2,216.4 273.7,216.8 274.2,222.0 274.6,222.8 275.1,226.6 275.5,228.7 276.0,232.0 276.4,233.8 276.9,228.7 277.3,229.8 277.8,227.3 278.2,219.9 278.7,216.3 279.1,214.5 279.6,218.3 280.0,219.7 280.5,224.4 280.9,227.8 281.4,234.5 281.8,232.5 282.3,232.9 282.7,225.5 283.2,222.2 283.6,223.7 284.1,225.1 284.5,225.1 285.0,222.8 285.4,218.8 285.9,214.5 286.3,218.6 286.8,217.0 287.2,216.6 287.7,217.7 288.2,215.5 288.6,220.1 289.1,213.4 289.5,207.4 290.0,209.9 290.4,210.7 290.9,203.1 291.3,201.6 291.8,206.1 292.2,203.2 292.7,205.6 293.1,204.1 293.6,199.6 294.0,204.3 294.5,201.4 294.9,199.4 295.4,199.4 295.8,200.2 296.3,199.6 296.7,196.4 297.2,196.7 297.6,201.2 298.1,206.5 298.5,209.7 299.0,207.8 299.4,205.6 299.9,205.0 300.3,202.7 300.8,204.1 301.3,207.4 301.7,212.1 302.2,217.9 302.6,220.1 303.1,218.3 303.5,217.5 304.0,220.1 304.4,220.4 304.9,221.0 305.3,217.3 305.8,217.2 306.2,215.5 306.7,211.9 307.1,209.6 307.6,208.7 308.0,205.6 308.5,205.8 308.9,198.7 309.4,196.2 309.8,197.1 310.3,197.8 310.7,201.6 311.2,203.1 311.6,205.0 312.1,202.3 312.5,197.8 313.0,195.8 313.4,194.0 313.9,196.2 314.3,199.6 314.8,197.4 315.3,197.8 315.7,198.4 316.2,201.8 316.6,207.8 317.1,210.1 317.5,211.2 318.0,211.6 318.4,213.9 318.9,213.7 319.3,212.1 319.8,211.7 320.2,211.7 320.7,213.4 321.1,213.7 321.6,217.2 322.0,217.7 322.5,216.3 322.9,217.5 323.4,215.7 323.8,215.5 324.3,215.7 324.7,213.0 325.2,213.4 325.6,210.8 326.1,215.5 326.5,214.5 327.0,217.3 327.4,220.1 327.9,222.8 328.4,221.7 328.8,224.2 329.3,235.8 329.7,240.9 330.2,242.9 330.6,237.1 331.1,234.7 331.5,235.8 332.0,234.9 332.4,232.2 332.9,233.1 333.3,234.7 333.8,232.4 334.2,162.9 334.7,162.9 335.1,151.5 335.6,150.8 336.0,141.0 336.5,132.1 336.9,136.8 337.4,135.9 337.8,134.0 338.3,133.6 338.7,134.7 339.2,136.7 339.6,134.0 340.1,130.3 340.5,128.2 341.0,129.8 341.4,135.0 341.9,130.9 342.4,128.7 342.8,122.0 343.3,122.4 343.7,127.6 344.2,119.3 344.6,125.6 345.1,120.2 345.5,117.5 346.0,115.3 346.4,116.9 346.9,119.7 347.3,119.7 347.8,116.0 348.2,115.1 348.7,114.2 349.1,113.0 349.6,118.4 350.0,126.7 350.5,117.8 350.9,125.8 351.4,119.5 351.8,118.4 352.3,125.3 352.7,123.1 353.2,118.4 353.6,120.4 354.1,122.6 354.5,119.3 355.0,122.7 355.4,124.2 355.9,125.1 356.4,127.3 356.8,126.9 357.3,132.5 357.7,133.8 358.2,133.8 358.6,128.9 359.1,134.0 359.5,133.6 360.0,139.6 360.4,142.5 360.9,143.0 361.3,147.5 361.8,145.7 362.2,142.6 362.7,139.0 363.1,139.4 363.6,143.7 364.0,141.5 364.5,143.4 364.9,145.5 365.4,145.0 365.8,142.8 366.3,146.8 366.7,139.7 367.2,141.7 367.6,141.4 368.1,135.0 368.5,136.1 369.0,131.6 369.5,127.6 369.9,120.9 370.4,125.3 370.8,117.3 371.3,119.1 371.7,111.7 372.2,118.2 372.6,115.1 373.1,113.1 373.5,111.3 374.0,116.2 374.4,116.0 374.9,102.8 375.3,111.0 375.8,105.9 376.2,108.4 376.7,112.4 377.1,120.7 377.6,128.0 378.0,126.5 378.5,123.5 378.9,121.5 379.4,121.3 379.8,115.5 380.3,114.8 380.7,111.5 381.2,111.9 381.6,113.9 382.1,112.8 382.5,119.3 383.0,117.8 383.5,112.1 383.9,75.2 384.4,67.2 384.8,71.2 385.3,75.7 385.7,83.5 386.2,94.3 386.6,99.8 387.1,95.6 387.5,100.3 388.0,105.0 388.4,102.7 388.9,104.5 389.3,103.2 389.8,107.2 390.2,112.4 390.7,109.7 391.1,115.7 391.6,126.4 392.0,128.9 392.5,127.8 392.9,127.8 393.4,130.2 393.8,123.6 394.3,119.5 394.7,128.0 395.2,128.2 395.6,128.7 396.1,129.1 396.6,132.0 397.0,136.3 397.5,139.0 397.9,138.8 398.4,138.8 398.8,141.9 399.3,139.9 399.7,140.6 400.2,139.6 400.6,137.9 401.1,136.5 401.5,131.8 402.0,123.6 402.4,123.1 402.9,122.6 403.3,123.6 403.8,127.3 404.2,116.8 404.7,115.9 405.1,114.1 405.6,122.0 406.0,125.4 406.5,122.9 406.9,105.5 407.4,111.3 407.8,102.1 408.3,104.3 408.7,111.5 409.2,116.9 409.6,116.6 410.1,111.7 410.6,111.9 411.0,113.1 411.5,118.0 411.9,120.9 412.4,119.7 412.8,120.6 413.3,116.9 413.7,115.0 414.2,111.2 414.6,117.7 415.1,124.5 415.5,120.4 416.0,117.1 416.4,124.9 416.9,126.0 417.3,118.2 417.8,118.6 418.2,73.7 418.7,76.2 419.1,80.8 419.6,89.8 420.0,94.2 420.5,94.2 420.9,96.0 421.4,95.4 421.8,93.4 422.3,93.2 422.7,93.4 423.2,88.5 423.6,99.9 424.1,103.6 424.6,101.6 425.0,97.6 425.5,98.9 425.9,93.2 426.4,93.8 426.8,88.7 427.3,88.9 427.7,84.4 428.2,85.8 428.6,90.9 429.1,88.9 429.5,93.6 430.0,96.3 430.4,101.6 430.9,103.0 431.3,103.2 431.8,103.2 432.2,92.9 432.7,100.1 433.1,99.2 433.6,88.7 434.0,86.2 434.5,85.5 434.9,92.7 435.4,85.8 435.8,80.4 436.3,80.8 436.7,80.6 437.2,92.2 437.7,89.3 438.1,90.2 438.6,99.4 439.0,109.0 439.5,109.5 439.9,107.2 440.4,109.3 440.8,112.2 441.3,111.0 441.7,114.4 442.2,103.6 442.6,101.9 443.1,104.3 443.5,99.6 444.0,92.7 444.4,91.4 444.9,87.1 445.3,91.3 445.8,81.5 446.2,72.6 446.7,74.1 447.1,74.6 447.6,75.0 448.0,73.2 448.5,80.0 448.9,79.9 449.4,74.6 449.8,66.5 450.3,65.9 450.7,67.2 451.2,89.6 451.7,94.5 452.1,92.3 452.6,90.5 453.0,94.2 453.5,97.6 453.9,93.1 454.4,84.7 454.8,88.4 455.3,88.4 455.7,84.6 456.2,81.1 456.6,86.4 457.1,83.3 457.5,75.9 458.0,76.4 458.4,70.3 458.9,71.9 459.3,71.9 459.8,79.1 460.2,83.7 460.7,100.7 461.1,107.2 461.6,99.4 462.0,105.4 462.5,103.7 462.9,105.7 463.4,106.6 463.8,109.9 464.3,111.7 464.8,105.2 465.2,109.0 465.7,110.6 466.1,106.6 466.6,101.7 467.0,97.0 467.5,99.0 467.9,107.2 468.4,111.2 468.8,104.3 469.3,110.6 469.7,116.4 470.2,111.2 470.6,112.4 471.1,116.4 471.5,114.8 472.0,123.6 472.4,123.6 472.9,124.9 473.3,127.3 473.8,132.1 474.2,127.8 474.7,130.2 475.1,126.9 475.6,135.9 476.0,127.6 476.5,129.1 476.9,128.2 477.4,126.0 477.8,129.4 478.3,124.9 478.8,118.8 479.2,116.6 479.7,113.3 480.1,105.7 480.6,106.5 481.0,111.2 481.5,117.3 481.9,114.4 482.4,112.6 482.8,119.5 483.3,118.4 483.7,109.0 484.2,119.1 484.6,112.1 485.1,107.7 485.5,117.3 486.0,126.7 486.4,137.9 486.9,135.6 487.3,136.8 487.8,136.5 488.2,130.3 488.7,134.3 489.1,130.5 489.6,129.1 490.0,122.9 490.5,123.5 490.9,118.0 491.4,123.8 491.9,121.8 492.3,127.1 492.8,120.7 493.2,120.0 493.7,121.3 494.1,122.2 494.6,119.3 495.0,118.6 495.5,128.7 495.9,127.4 496.4,128.2 496.8,132.9 497.3,130.2 497.7,130.7 498.2,131.2 498.6,128.0 499.1,121.8 499.5,123.5 500.0,119.8 500.4,120.9 500.9,115.3 501.3,122.0 501.8,122.6 502.2,120.0 502.7,126.0 503.1,122.2 503.6,117.7 504.0,123.1 504.5,130.7 504.9,126.7 505.4,129.6 505.9,122.6 506.3,127.3 506.8,128.7 507.2,123.3 507.7,122.6 508.1,119.7 508.6,117.3 509.0,118.4 509.5,111.7 509.9,112.6 510.4,111.0 510.8,116.4 511.3,115.3 511.7,115.1 512.2,113.5 512.6,117.7 513.1,116.2 513.5,118.8 514.0,114.6 514.4,118.8 514.9,118.8 515.3,120.4 515.8,114.6 516.2,98.7 516.7,105.2 517.1,113.0 517.6,114.4 518.0,121.6 518.5,124.7 518.9,121.5 519.4,124.4 519.9,120.7 520.3,119.8 520.8,117.8 521.2,114.6 521.7,113.3 522.1,115.5 522.6,119.8 523.0,118.0 523.5,116.4 523.9,116.4 524.4,121.1 524.8,121.5 525.3,120.9 525.7,122.4 526.2,120.9 526.6,116.0 527.1,113.0 527.5,118.4 528.0,118.8 528.4,118.4 528.9,119.5 529.3,128.5 529.8,128.9 530.2,129.1 530.7,132.5 531.1,131.6 531.6,129.6 532.0,132.9 532.5,133.0 533.0,132.3 533.4,129.8 533.9,123.5 534.3,125.3 534.8,130.0 535.2,132.0 535.7,136.7 536.1,136.8 536.6,136.5 537.0,126.0 537.5,127.3 537.9,126.2 538.4,111.0 538.8,112.1 539.3,108.4 539.7,110.1 540.2,98.5 540.6,96.9 541.1,103.2 541.5,104.1 542.0,109.0 542.4,112.8 542.9,108.6 543.3,105.7 543.8,101.9 544.2,100.3 544.7,93.8 545.1,90.0 545.6,93.8 546.0,87.6 546.5,85.1 547.0,84.9 547.4,83.1 547.9,83.1 548.3,85.3 548.8,82.4 549.2,81.5 549.7,82.6 550.1,81.3 550.6,80.8 551.0,104.5 551.5,117.5 551.9,117.1 552.4,115.0 552.8,119.3 553.3,130.3 553.7,122.7 554.2,119.8 554.6,123.5 555.1,117.3 555.5,114.1 556.0,111.9 556.4,109.0 556.9,107.7 557.3,112.8 557.8,111.2 558.2,109.7 558.7,115.0 559.1,114.6 559.6,119.3 560.1,124.0 560.5,118.8 561.0,116.4 561.4,132.1 561.9,147.3 562.3,151.5 562.8,150.6 563.2,130.0 563.7,142.1 564.1,133.6 564.6,124.4 565.0,117.3 565.5,112.6 565.9,112.2 566.4,116.8 566.8,108.3 567.3,110.3 567.7,113.1 568.2,115.5 568.6,116.9 569.1,114.4 569.5,117.3 570.0,118.4 570.4,110.3 570.9,110.6 571.3,112.6 571.8,109.3 572.2,110.8 572.7,113.5 573.1,104.6 573.6,103.4 574.1,101.9 574.5,114.4 575.0,116.2 575.4,116.2 575.9,115.9 576.3,125.6 576.8,124.9 577.2,127.1 577.7,124.0 578.1,130.0 578.6,127.4 579.0,130.3 579.5,133.2 579.9,130.0 580.4,132.1 580.8,125.1 581.3,121.8 581.7,123.5 582.2,124.9 582.6,124.2 583.1,130.3 583.5,135.4 584.0,134.3 584.4,165.6 584.9,163.3 585.3,163.4 585.8,163.3 586.2,157.8 586.7,160.7 587.2,153.3 587.6,151.5 588.1,105.0 588.5,125.3 589.0,119.7 589.4,107.9 589.9,107.9 590.3,99.2 590.8,94.5 591.2,99.0 591.7,106.5 592.1,103.0 592.6,111.5 593.0,107.0 593.5,102.5 593.9,109.2 594.4,114.1 594.8,110.6 595.3,107.9 595.7,111.7 596.2,113.7 596.6,120.2 597.1,126.0 597.5,129.2 598.0,130.5 598.4,138.1 598.9,134.5 599.3,132.7 599.8,132.3 600.2,128.3 600.7,120.2 601.2,119.7 601.6,113.9 602.1,109.5 602.5,117.3 603.0,120.6 603.4,116.8 603.9,112.6 604.3,113.0 604.8,116.9 605.2,110.1 605.7,112.4 606.1,110.8 606.6,114.1 607.0,114.4 607.5,109.7 607.9,113.1 608.4,124.2 608.8,122.2 609.3,121.8 609.7,132.7 610.2,136.1 610.6,137.2 611.1,127.8 611.5,129.4 612.0,129.8 612.4,130.9 612.9,131.1 613.3,130.2 613.8,137.9 614.2,136.1 614.7,135.0 615.2,139.9 615.6,144.3 616.1,144.6 616.5,143.9 617.0,146.6 617.4,147.3 617.9,147.2 618.3,147.0 618.8,154.2 619.2,155.7 619.7,153.3 620.1,154.0 620.6,160.7 621.0,161.4 621.5,158.6 621.9,158.4 622.4,165.8 622.8,169.0 623.3,169.2 623.7,169.6 624.2,170.3 624.6,171.2 625.1,169.6 625.5,158.7 626.0,162.0 626.4,181.0 626.9,192.2 627.3,183.0 627.8,185.0 628.3,191.7 628.7,191.7 629.2,199.1 629.6,200.9 630.1,200.5 630.5,198.7 631.0,200.7 631.4,205.2 631.9,207.6 632.3,212.6 632.8,209.0 633.2,209.2 633.7,208.8 634.1,205.6 634.6,197.8 635.0,192.6 635.5,190.6 635.9,189.8 636.4,193.5 636.8,194.4 637.3,190.4 637.7,196.9 638.2,194.9 638.6,200.3 639.1,196.0 639.5,196.5 640.0,197.6 640.4,200.2 640.9,200.0 641.3,197.6 641.8,196.7 642.3,195.5 642.7,195.3 643.2,198.4 643.6,198.0 644.1,200.2 644.5,198.5 645.0,195.6 645.4,200.0 645.9,201.6 646.3,204.7 646.8,198.2 647.2,194.9 647.7,194.9 648.1,195.3 648.6,192.2 649.0,188.6 649.5,190.2 649.9,185.9 650.4,185.1 650.8,187.1 651.3,187.7 651.7,189.1 652.2,184.4 652.6,186.6 653.1,188.4 653.5,185.5 654.0,191.5 654.4,188.2 654.9,187.7 655.4,186.2 655.8,193.5 656.3,191.1 656.7,202.9 657.2,201.6 657.6,200.7 658.1,195.8 658.5,197.8 659.0,194.7 659.4,193.1 659.9,189.3 660.3,186.1 660.8,186.6 661.2,188.4 661.7,196.5 662.1,194.2 662.6,189.7 663.0,208.8 663.5,210.3 663.9,205.0 664.4,208.3 664.8,211.6 665.3,213.4 665.7,222.4 666.2,213.4 666.6,213.2 667.1,214.1 667.5,222.0 668.0,219.7 668.4,217.3 668.9,213.2 669.4,214.3 669.8,215.0 670.3,223.7 670.7,221.7 671.2,224.0 671.6,222.4 672.1,221.3 672.5,288.1 673.0,290.1 673.4,281.2 673.9,286.1 674.3,288.1 674.8,281.9 675.2,280.8 675.7,281.0 676.1,283.4 676.6,284.1 677.0,281.7 677.5,277.8 677.9,277.4 678.4,278.5 678.8,273.2 679.3,272.7 679.7,281.0 680.2,277.8 680.6,281.9 681.1,274.7 681.5,277.8 682.0,276.1 682.5,275.2 682.9,274.0 683.4,268.9 683.8,267.8 684.3,268.7 684.7,267.1 685.2,269.6 685.6,270.0 686.1,276.9 686.5,279.8 687.0,281.4 687.4,275.4 687.9,278.9 688.3,283.9 688.8,285.7 689.2,278.5 689.7,277.9 690.1,281.0 690.6,280.3 691.0,280.8 691.5,281.4 691.9,279.0 692.4,279.6 692.8,280.5 693.3,285.0 693.7,282.5 694.2,282.5 694.6,282.8 695.1,282.7 695.5,286.8 696.0,288.0"/>
  <text x="60" y="62" font-size="11" fill="#2563eb">Price index</text>
  <text x="146" y="62" font-size="11" fill="#16a34a">Total return (price + distributions)</text>
  <text x="56" y="348" font-size="11" text-anchor="middle" fill="#444">2020-10</text><text x="216" y="348" font-size="11" text-anchor="middle" fill="#444">2022-03</text><text x="376" y="348" font-size="11" text-anchor="middle" fill="#444">2023-08</text><text x="536" y="348" font-size="11" text-anchor="middle" fill="#444">2025-01</text><text x="696" y="348" font-size="11" text-anchor="middle" fill="#444">2026-06</text>
</svg>
