<svg xmlns="http://www.w3.org/2000/svg" width="820" height="410" viewBox="0 0 820 410">
<rect width="820" height="410" fill="#fafafa"/><text x="78" y="22" font-size="14" font-family="sans-serif" fill="#0f172a">BUR cumulative return since 2020-10-19 | dividends reinvested</text>
<text x="78" y="40" font-size="11" font-family="sans-serif" fill="#334155">Total return -56.5% | Price-only -59.4% | logarithmic scale</text>
<text x="78" y="54" font-size="9" font-family="sans-serif" fill="#64748b">Regular $0.71 | Special $0.00 | Other $0.00 per initial share path</text>
<line x1="78" y1="332.0" x2="796" y2="332.0" stroke="#e2e8f0"/><text x="70" y="336.0" font-size="10" text-anchor="end" fill="#64748b">-64.6%</text><line x1="78" y1="287.0" x2="796" y2="287.0" stroke="#e2e8f0"/><text x="70" y="291.0" font-size="10" text-anchor="end" fill="#64748b">-53.5%</text><line x1="78" y1="242.0" x2="796" y2="242.0" stroke="#e2e8f0"/><text x="70" y="246.0" font-size="10" text-anchor="end" fill="#64748b">-38.9%</text><line x1="78" y1="197.0" x2="796" y2="197.0" stroke="#e2e8f0"/><text x="70" y="201.0" font-size="10" text-anchor="end" fill="#64748b">-19.7%</text><line x1="78" y1="160.8" x2="796" y2="160.8" stroke="#e2e8f0"/><text x="70" y="164.8" font-size="10" text-anchor="end" fill="#64748b">0%</text><line x1="78" y1="152.0" x2="796" y2="152.0" stroke="#e2e8f0"/><text x="70" y="156.0" font-size="10" text-anchor="end" fill="#64748b">+5.5%</text><line x1="78" y1="107.0" x2="796" y2="107.0" stroke="#e2e8f0"/><text x="70" y="111.0" font-size="10" text-anchor="end" fill="#64748b">+38.7%</text><line x1="78" y1="62.0" x2="796" y2="62.0" stroke="#e2e8f0"/><text x="70" y="66.0" font-size="10" text-anchor="end" fill="#64748b">+82.2%</text>
<line x1="78" y1="332" x2="796" y2="332" stroke="#cbd5e1"/>
<polyline fill="none" stroke="#2563eb" stroke-width="2" points="78.0,160.8 78.5,159.2 79.0,166.6 79.5,167.4 80.0,168.9 80.5,172.0 81.0,174.6 81.5,184.5 82.0,187.5 82.5,185.0 83.0,194.4 83.5,185.8 84.0,180.6 84.5,178.1 85.0,177.9 85.5,168.2 86.0,171.3 86.5,172.0 87.0,168.9 87.5,166.2 88.0,160.5 88.5,163.3 89.0,160.0 89.5,155.4 90.0,156.3 90.5,156.9 91.0,156.9 91.5,156.1 92.0,160.2 92.5,161.8 93.0,161.5 93.5,164.8 94.0,173.5 94.5,166.4 95.0,171.5 95.5,174.8 96.0,168.8 96.5,173.2 97.0,174.1 97.5,173.4 98.0,168.2 98.5,165.7 99.0,170.4 99.5,175.3 100.0,176.9 100.5,176.0 101.0,175.8 101.5,171.5 101.9,174.6 102.4,173.4 102.9,172.2 103.4,170.4 103.9,172.0 104.4,164.6 104.9,168.6 105.4,174.4 105.9,175.1 106.4,180.1 106.9,182.6 107.4,185.8 107.9,188.2 108.4,186.4 108.9,183.4 109.4,182.6 109.9,181.5 110.4,184.3 110.9,188.4 111.4,189.2 111.9,193.8 112.4,190.9 112.9,191.9 113.4,186.7 113.9,185.4 114.4,190.3 114.9,192.3 115.4,192.1 115.9,191.0 116.4,188.1 116.9,184.9 117.4,182.8 117.9,181.0 118.4,161.7 118.9,177.2 119.4,179.7 119.9,186.4 120.4,183.0 120.9,180.6 121.4,178.3 121.9,184.9 122.4,190.5 122.9,191.5 123.4,195.0 123.9,195.0 124.4,194.4 124.9,197.4 125.4,188.1 125.9,192.7 126.4,194.2 126.9,189.6 127.4,188.4 127.9,188.4 128.4,190.9 128.9,193.1 129.4,193.3 129.9,190.9 130.4,191.3 130.9,195.8 131.4,193.8 131.9,199.0 132.4,199.8 132.9,194.2 133.4,190.5 133.9,182.3 134.4,165.2 134.9,162.6 135.4,163.6 135.9,163.9 136.4,164.9 136.9,168.9 137.4,168.2 137.9,168.1 138.4,166.6 138.9,166.1 139.4,162.5 139.9,153.5 140.4,158.9 140.9,148.5 141.4,141.9 141.9,142.5 142.4,135.6 142.9,130.3 143.4,128.3 143.9,122.1 144.4,123.3 144.9,129.5 145.4,125.1 145.9,126.3 146.4,127.1 146.9,114.9 147.4,117.2 147.9,126.1 148.4,134.5 148.9,135.7 149.4,128.2 149.8,132.8 150.3,131.6 150.8,133.5 151.3,134.9 151.8,133.8 152.3,140.3 152.8,137.6 153.3,137.2 153.8,136.8 154.3,134.9 154.8,134.9 155.3,136.0 155.8,140.0 156.3,137.5 156.8,142.8 157.3,142.6 157.8,144.8 158.3,147.1 158.8,147.0 159.3,148.9 159.8,149.2 160.3,146.7 160.8,148.2 161.3,153.3 161.8,150.3 162.3,150.6 162.8,150.0 163.3,150.1 163.8,154.9 164.3,155.5 164.8,157.3 165.3,158.6 165.8,156.9 166.3,155.8 166.8,160.2 167.3,162.6 167.8,163.9 168.3,155.3 168.8,153.3 169.3,151.8 169.8,154.2 170.3,159.4 170.8,153.3 171.3,163.1 171.8,163.8 172.3,154.2 172.8,155.8 173.3,153.6 173.8,154.4 174.3,155.6 174.8,155.0 175.3,149.4 175.8,152.2 176.3,153.0 176.8,150.4 177.3,144.5 177.8,144.8 178.3,142.3 178.8,143.8 179.3,141.3 179.8,137.9 180.3,137.8 180.8,139.6 181.3,141.5 181.8,143.9 182.3,140.3 182.8,140.5 183.3,140.2 183.8,141.9 184.3,137.4 184.8,134.3 185.3,136.5 185.8,131.5 186.3,134.3 186.8,135.0 187.3,133.0 187.8,133.1 188.3,136.5 188.8,141.0 189.3,140.7 189.8,143.6 190.3,149.4 190.8,149.7 191.3,151.8 191.8,150.6 192.3,153.2 192.8,150.7 193.3,153.9 193.8,152.8 194.3,148.9 194.8,147.0 195.3,150.9 195.8,146.2 196.3,150.7 196.8,149.8 197.3,149.4 197.7,149.2 198.2,148.6 198.7,149.2 199.2,150.4 199.7,152.1 200.2,152.7 200.7,155.8 201.2,154.9 201.7,155.3 202.2,151.3 202.7,151.2 203.2,153.0 203.7,152.5 204.2,152.2 204.7,148.0 205.2,143.5 205.7,147.6 206.2,151.0 206.7,154.2 207.2,157.7 207.7,156.9 208.2,153.8 208.7,146.0 209.2,142.3 209.7,140.6 210.2,141.2 210.7,140.6 211.2,144.5 211.7,147.1 212.2,145.8 212.7,143.5 213.2,144.5 213.7,147.3 214.2,150.3 214.7,154.2 215.2,155.3 215.7,156.9 216.2,156.4 216.7,154.7 217.2,159.4 217.7,160.4 218.2,158.3 218.7,162.5 219.2,165.9 219.7,165.1 220.2,160.7 220.7,160.5 221.2,160.8 221.7,161.0 222.2,160.5 222.7,165.2 223.2,165.7 223.7,164.9 224.2,165.9 224.7,167.2 225.2,171.8 225.7,165.1 226.2,159.2 226.7,160.7 227.2,158.6 227.7,158.3 228.2,163.3 228.7,162.6 229.2,155.9 229.7,155.9 230.2,151.9 230.7,160.4 231.2,157.5 231.7,155.5 232.2,161.5 232.7,162.1 233.2,163.4 233.7,163.8 234.2,165.7 234.7,166.4 235.2,171.3 235.7,173.5 236.2,179.2 236.7,177.8 237.2,179.2 237.7,183.7 238.2,182.5 238.7,180.3 239.2,174.8 239.7,170.4 240.2,169.9 240.7,172.5 241.2,176.7 241.7,176.9 242.2,177.1 242.7,171.0 243.2,171.6 243.7,175.3 244.2,174.6 244.7,173.5 245.2,170.4 245.6,173.7 246.1,176.3 246.6,177.2 247.1,178.8 247.6,179.4 248.1,170.3 248.6,168.9 249.1,173.7 249.6,175.3 250.1,181.7 250.6,189.6 251.1,196.0 251.6,188.1 252.1,179.9 252.6,180.5 253.1,181.5 253.6,179.6 254.1,179.6 254.6,176.5 255.1,173.2 255.6,172.5 256.1,174.4 256.6,171.6 257.1,170.1 257.6,167.6 258.1,166.4 258.6,169.9 259.1,167.9 259.6,173.5 260.1,178.8 260.6,178.1 261.1,172.8 261.6,171.3 262.1,177.6 262.6,176.2 263.1,177.6 263.6,177.9 264.1,179.4 264.6,178.5 265.1,179.9 265.6,181.5 266.1,181.9 266.6,182.1 267.1,183.2 267.6,182.3 268.1,185.0 268.6,190.0 269.1,190.9 269.6,188.6 270.1,192.5 270.6,189.8 271.1,192.9 271.6,192.7 272.1,198.8 272.6,203.8 273.1,213.4 273.6,214.3 274.1,212.1 274.6,212.8 275.1,208.6 275.6,209.1 276.1,203.3 276.6,208.4 277.1,205.6 277.6,205.0 278.1,198.0 278.6,197.4 279.1,197.2 279.6,193.1 280.1,188.4 280.6,185.4 281.1,183.4 281.6,181.0 282.1,181.7 282.6,177.8 283.1,176.7 283.6,175.6 284.1,173.0 284.6,177.1 285.1,183.9 285.6,183.7 286.1,177.6 286.6,186.0 287.1,184.1 287.6,183.2 288.1,183.9 288.6,185.2 289.1,177.4 289.6,164.8 290.1,161.3 290.6,164.4 291.1,163.4 291.6,167.9 292.1,169.1 292.6,172.8 293.1,168.4 293.5,165.2 294.0,166.4 294.5,162.1 295.0,165.2 295.5,167.1 296.0,161.3 296.5,159.1 297.0,155.6 297.5,151.0 298.0,148.5 298.5,155.6 299.0,152.7 299.5,156.6 300.0,154.2 300.5,153.8 301.0,154.4 301.5,153.5 302.0,158.8 302.5,151.0 303.0,150.9 303.5,152.5 304.0,150.9 304.5,157.0 305.0,154.5 305.5,158.0 306.0,156.4 306.5,159.9 307.0,161.0 307.5,164.6 308.0,165.6 308.5,169.4 309.0,172.2 309.5,172.3 310.0,172.3 310.5,167.9 311.0,172.8 311.5,173.5 312.0,173.4 312.5,176.2 313.0,181.4 313.5,181.0 314.0,183.2 314.5,187.9 315.0,192.7 315.5,190.9 316.0,186.7 316.5,194.4 317.0,198.2 317.5,196.8 318.0,199.6 318.5,200.0 319.0,206.1 319.5,206.9 320.0,211.4 320.5,214.1 321.0,218.1 321.5,220.4 322.0,214.1 322.5,215.4 323.0,212.3 323.5,203.5 324.0,199.4 324.5,197.4 325.0,201.7 325.5,203.3 326.0,208.8 326.5,213.0 327.0,221.3 327.5,218.8 328.0,219.3 328.5,210.1 329.0,206.3 329.5,208.0 330.0,209.7 330.5,209.7 331.0,206.9 331.5,202.3 332.0,197.4 332.5,202.1 333.0,200.2 333.5,199.8 334.0,201.1 334.5,198.6 335.0,203.8 335.5,196.2 336.0,189.8 336.5,192.5 337.0,193.3 337.5,185.2 338.0,183.7 338.5,188.4 339.0,185.4 339.5,187.9 340.0,186.4 340.5,181.7 341.0,186.5 341.4,183.6 341.9,181.5 342.4,181.5 342.9,182.3 343.4,181.7 343.9,178.5 344.4,178.8 344.9,183.4 345.4,188.8 345.9,192.3 346.4,190.1 346.9,187.9 347.4,187.3 347.9,184.9 348.4,186.4 348.9,189.8 349.4,194.8 349.9,201.3 350.4,203.8 350.9,201.7 351.4,200.9 351.9,203.8 352.4,204.2 352.9,204.8 353.4,200.7 353.9,200.4 354.4,198.6 354.9,194.6 355.4,192.1 355.9,191.1 356.4,187.9 356.9,188.1 357.4,180.8 357.9,178.3 358.4,179.2 358.9,179.9 359.4,183.7 359.9,185.2 360.4,187.3 360.9,184.5 361.4,179.9 361.9,177.9 362.4,176.2 362.9,178.3 363.4,181.7 363.9,179.6 364.4,179.9 364.9,180.5 365.4,183.9 365.9,190.1 366.4,192.7 366.9,193.8 367.4,194.2 367.9,196.8 368.4,196.6 368.9,194.8 369.4,194.4 369.9,194.4 370.4,196.2 370.9,196.6 371.4,200.4 371.9,201.1 372.4,199.4 372.9,200.9 373.4,198.8 373.9,198.6 374.4,198.8 374.9,195.8 375.4,196.2 375.9,193.4 376.4,198.6 376.9,197.4 377.4,200.7 377.9,203.8 378.4,206.9 378.9,205.6 379.4,208.6 379.9,223.0 380.4,229.7 380.9,232.4 381.4,224.6 381.9,221.6 382.4,223.0 382.9,221.8 383.4,218.4 383.9,219.5 384.4,221.6 384.9,218.6 385.4,148.3 385.9,148.3 386.4,139.2 386.9,138.6 387.4,131.2 387.9,124.8 388.4,128.2 388.9,127.5 389.3,126.1 389.8,125.8 390.3,126.6 390.8,128.0 391.3,126.1 391.8,123.5 392.3,121.9 392.8,123.1 393.3,126.8 393.8,123.9 394.3,122.3 394.8,117.7 395.3,117.9 395.8,121.6 396.3,115.8 396.8,120.2 397.3,116.5 397.8,114.6 398.3,113.2 398.8,114.3 399.3,116.1 399.8,116.1 400.3,113.7 400.8,113.1 401.3,112.5 401.8,111.6 402.3,115.2 402.8,120.9 403.3,114.9 403.8,120.3 404.3,116.0 404.8,115.2 405.3,119.9 405.8,118.4 406.3,115.2 406.8,116.6 407.3,118.1 407.8,115.8 408.3,118.2 408.8,119.2 409.3,119.8 409.8,121.3 410.3,121.1 410.8,125.0 411.3,125.9 411.8,125.9 412.3,122.5 412.8,126.1 413.3,125.8 413.8,130.1 414.3,132.3 414.8,132.7 415.3,136.1 415.8,134.7 416.3,132.4 416.8,129.7 417.3,130.0 417.8,133.2 418.3,131.6 418.8,133.0 419.3,134.6 419.8,134.2 420.3,132.6 420.8,135.6 421.3,130.3 421.8,131.8 422.3,131.5 422.8,126.8 423.3,127.6 423.8,124.4 424.3,121.6 424.8,116.9 425.3,119.9 425.8,114.5 426.3,115.7 426.8,110.8 427.3,115.1 427.8,113.1 428.3,111.7 428.8,110.5 429.3,113.8 429.8,113.7 430.3,105.1 430.8,110.3 431.3,107.0 431.8,108.7 432.3,111.3 432.8,116.8 433.3,121.8 433.8,120.8 434.3,118.7 434.8,117.3 435.3,117.2 435.8,113.3 436.3,112.8 436.8,110.7 437.2,110.9 437.7,112.2 438.2,111.5 438.7,115.8 439.2,114.9 439.7,111.0 440.2,88.4 440.7,83.9 441.2,86.1 441.7,88.7 442.2,93.2 442.7,99.8 443.2,103.1 443.7,100.5 444.2,103.5 444.7,106.4 445.2,105.0 445.7,106.1 446.2,105.3 446.7,107.8 447.2,111.3 447.7,109.5 448.2,113.4 448.7,120.7 449.2,122.5 449.7,121.7 450.2,121.7 450.7,123.3 451.2,118.8 451.7,116.0 452.2,121.8 452.7,121.9 453.2,122.3 453.7,122.6 454.2,124.6 454.7,127.8 455.2,129.7 455.7,129.6 456.2,129.6 456.7,131.9 457.2,130.4 457.7,130.9 458.2,130.1 458.7,128.9 459.2,127.9 459.7,124.5 460.2,118.8 460.7,118.4 461.2,118.1 461.7,118.8 462.2,121.3 462.7,114.1 463.2,113.5 463.7,112.3 464.2,117.7 464.7,120.1 465.2,118.3 465.7,106.8 466.2,110.5 466.7,104.6 467.2,106.0 467.7,110.7 468.2,114.3 468.7,114.0 469.2,110.8 469.7,110.9 470.2,111.7 470.7,115.0 471.2,116.9 471.7,116.1 472.2,116.7 472.7,114.3 473.2,112.9 473.7,110.4 474.2,114.7 474.7,119.4 475.2,116.6 475.7,114.4 476.2,119.7 476.7,120.4 477.2,115.1 477.7,115.4 478.2,87.6 478.7,89.0 479.2,91.7 479.7,97.0 480.2,99.7 480.7,99.7 481.2,100.8 481.7,100.4 482.2,99.2 482.7,99.1 483.2,99.2 483.7,96.3 484.2,103.2 484.7,105.5 485.1,104.3 485.6,101.8 486.1,102.6 486.6,99.1 487.1,99.4 487.6,96.4 488.1,96.5 488.6,93.8 489.1,94.6 489.6,97.7 490.1,96.5 490.6,99.3 491.1,101.0 491.6,104.3 492.1,105.2 492.6,105.3 493.1,105.3 493.6,98.9 494.1,103.4 494.6,102.8 495.1,96.4 495.6,94.9 496.1,94.4 496.6,98.8 497.1,94.6 497.6,91.4 498.1,91.7 498.6,91.5 499.1,98.4 499.6,96.7 500.1,97.2 500.6,102.9 501.1,109.0 501.6,109.4 502.1,107.8 502.6,109.2 503.1,111.1 503.6,110.3 504.1,112.6 504.6,105.5 505.1,104.5 505.6,106.0 506.1,103.0 506.6,98.8 507.1,98.0 507.6,95.4 508.1,97.9 508.6,92.1 509.1,87.0 509.6,87.8 510.1,88.1 510.6,88.3 511.1,87.3 511.6,91.2 512.1,91.1 512.6,88.1 513.1,83.5 513.6,83.2 514.1,83.9 514.6,96.9 515.1,99.9 515.6,98.6 516.1,97.5 516.6,99.7 517.1,101.8 517.6,99.0 518.1,94.0 518.6,96.1 519.1,96.1 519.6,93.9 520.1,91.9 520.6,95.0 521.1,93.1 521.6,88.8 522.1,89.1 522.6,85.6 523.1,86.6 523.6,86.6 524.1,90.7 524.6,93.4 525.1,103.7 525.6,107.8 526.1,102.9 526.6,106.7 527.1,105.6 527.6,106.9 528.1,107.5 528.6,109.6 529.1,110.8 529.6,106.6 530.1,109.0 530.6,110.1 531.1,107.5 531.6,104.4 532.1,101.4 532.6,102.7 533.0,107.8 533.5,110.4 534.0,106.0 534.5,110.1 535.0,113.9 535.5,110.4 536.0,111.3 536.5,113.9 537.0,112.8 537.5,118.8 538.0,118.8 538.5,119.7 539.0,121.3 539.5,124.8 540.0,121.7 540.5,123.3 541.0,121.1 541.5,127.5 542.0,121.6 542.5,122.6 543.0,121.9 543.5,120.4 544.0,122.8 544.5,119.7 545.0,115.5 545.5,114.0 546.0,111.9 546.5,106.9 547.0,107.4 547.5,110.4 548.0,114.5 548.5,112.6 549.0,111.4 549.5,116.0 550.0,115.2 550.5,109.0 551.0,115.7 551.5,111.0 552.0,108.2 552.5,114.5 553.0,120.9 553.5,128.9 554.0,127.2 554.5,128.2 555.0,127.9 555.5,123.5 556.0,126.3 556.5,123.6 557.0,122.6 557.5,118.3 558.0,118.7 558.5,115.0 559.0,118.9 559.5,117.6 560.0,121.2 560.5,116.8 561.0,116.3 561.5,117.2 562.0,117.8 562.5,115.8 563.0,115.4 563.5,122.3 564.0,121.4 564.5,121.9 565.0,125.3 565.5,123.3 566.0,123.7 566.5,124.1 567.0,121.8 567.5,117.6 568.0,118.7 568.5,116.2 569.0,116.9 569.5,113.2 570.0,117.7 570.5,118.1 571.0,116.3 571.5,120.4 572.0,117.8 572.5,114.7 573.0,118.4 573.5,123.7 574.0,120.9 574.5,123.0 575.0,118.1 575.5,121.3 576.0,122.3 576.5,118.6 577.0,118.1 577.5,116.1 578.0,114.5 578.5,115.2 579.0,110.8 579.5,111.4 580.0,110.3 580.5,113.9 580.9,113.2 581.4,113.1 581.9,112.0 582.4,114.7 582.9,113.8 583.4,115.5 583.9,112.7 584.4,115.5 584.9,115.5 585.4,116.6 585.9,112.7 586.4,102.5 586.9,106.6 587.4,111.6 587.9,112.6 588.4,117.4 588.9,119.6 589.4,117.3 589.9,119.3 590.4,116.8 590.9,116.2 591.4,114.9 591.9,112.7 592.4,111.9 592.9,113.3 593.4,116.2 593.9,115.0 594.4,113.9 594.9,113.9 595.4,117.1 595.9,117.3 596.4,116.9 596.9,117.9 597.4,116.9 597.9,113.7 598.4,111.6 598.9,115.2 599.4,115.5 599.9,115.2 600.4,116.0 600.9,122.2 601.4,122.5 601.9,122.6 602.4,125.0 602.9,124.4 603.4,123.0 603.9,125.3 604.4,125.4 604.9,124.9 605.4,123.1 605.9,118.7 606.4,119.9 606.9,123.2 607.4,124.6 607.9,128.0 608.4,128.2 608.9,127.9 609.4,120.4 609.9,121.3 610.4,120.6 610.9,110.3 611.4,111.0 611.9,108.7 612.4,109.7 612.9,102.3 613.4,101.3 613.9,105.3 614.4,105.9 614.9,109.0 615.4,111.5 615.9,108.8 616.4,106.9 616.9,104.5 617.4,103.5 617.9,99.4 618.4,97.1 618.9,99.4 619.4,95.7 619.9,94.2 620.4,94.1 620.9,93.0 621.4,93.0 621.9,94.3 622.4,92.6 622.9,92.1 623.4,92.7 623.9,92.0 624.4,91.7 624.9,106.1 625.4,114.6 625.9,114.4 626.4,112.9 626.9,115.8 627.4,123.5 627.9,118.2 628.4,116.2 628.8,118.7 629.3,114.5 629.8,112.3 630.3,110.9 630.8,109.0 631.3,108.2 631.8,111.5 632.3,110.4 632.8,109.5 633.3,112.9 633.8,112.7 634.3,115.8 634.8,119.1 635.3,115.5 635.8,113.9 636.3,124.8 636.8,136.0 637.3,139.2 637.8,138.5 638.3,123.2 638.8,132.0 639.3,125.8 639.8,119.3 640.3,114.5 640.8,111.4 641.3,111.1 641.8,114.1 642.3,108.5 642.8,109.8 643.3,111.7 643.8,113.3 644.3,114.3 644.8,112.6 645.3,114.5 645.8,115.2 646.3,109.8 646.8,110.1 647.3,111.4 647.8,109.2 648.3,110.2 648.8,112.0 649.3,106.2 649.8,105.4 650.3,104.5 650.8,112.6 651.3,113.8 651.8,113.8 652.3,113.5 652.8,120.2 653.3,119.7 653.8,121.2 654.3,119.1 654.8,123.2 655.3,121.4 655.8,123.5 656.3,125.5 656.8,123.2 657.3,124.8 657.8,119.8 658.3,117.6 658.8,118.7 659.3,119.7 659.8,119.2 660.3,123.5 660.8,127.1 661.3,126.3 661.8,150.6 662.3,148.6 662.8,148.8 663.3,148.6 663.8,144.2 664.3,146.5 664.8,140.6 665.3,139.2 665.8,106.4 666.3,119.9 666.8,116.1 667.3,108.3 667.8,108.3 668.3,102.8 668.8,99.9 669.3,102.7 669.8,107.4 670.3,105.2 670.8,110.7 671.3,107.7 671.8,104.8 672.3,109.1 672.8,112.3 673.3,110.1 673.8,108.3 674.3,110.8 674.8,112.1 675.3,116.5 675.8,120.4 676.3,122.7 676.7,123.6 677.2,129.1 677.7,126.4 678.2,125.1 678.7,124.9 679.2,122.1 679.7,116.5 680.2,116.1 680.7,112.2 681.2,109.4 681.7,114.5 682.2,116.7 682.7,114.1 683.2,111.4 683.7,111.6 684.2,114.3 684.7,109.7 685.2,111.3 685.7,110.2 686.2,112.3 686.7,112.6 687.2,109.5 687.7,111.7 688.2,119.2 688.7,117.8 689.2,117.6 689.7,125.1 690.2,127.6 690.7,128.4 691.2,121.7 691.7,122.8 692.2,123.1 692.7,123.9 693.2,124.0 693.7,123.3 694.2,128.9 694.7,127.6 695.2,126.8 695.7,130.4 696.2,133.6 696.7,133.9 697.2,133.4 697.7,135.4 698.2,136.0 698.7,135.8 699.2,135.7 699.7,141.3 700.2,142.5 700.7,140.6 701.2,141.2 701.7,146.5 702.2,147.1 702.7,144.8 703.2,144.6 703.7,150.7 704.2,153.5 704.7,153.6 705.2,153.9 705.7,154.5 706.2,155.3 706.7,153.9 707.2,144.9 707.7,147.6 708.2,163.9 708.7,174.4 709.2,165.7 709.7,167.6 710.2,173.9 710.7,173.9 711.2,181.2 711.7,183.0 712.2,182.6 712.7,180.8 713.2,182.8 713.7,187.5 714.2,190.0 714.7,195.4 715.2,191.5 715.7,191.7 716.2,191.3 716.7,187.9 717.2,179.9 717.7,174.8 718.2,172.8 718.7,172.2 719.2,175.6 719.7,176.5 720.2,172.7 720.7,179.0 721.2,177.1 721.7,182.5 722.2,178.1 722.7,178.7 723.2,179.7 723.7,182.3 724.2,182.1 724.6,179.7 725.1,178.8 725.6,177.6 726.1,177.4 726.6,180.5 727.1,180.1 727.6,182.3 728.1,180.6 728.6,177.8 729.1,182.1 729.6,183.7 730.1,186.9 730.6,180.3 731.1,177.1 731.6,177.1 732.1,177.4 732.6,174.4 733.1,171.0 733.6,172.5 734.1,168.4 734.6,167.7 735.1,169.6 735.6,170.1 736.1,171.5 736.6,167.1 737.1,169.1 737.6,170.8 738.1,168.1 738.6,173.7 739.1,170.6 739.6,170.1 740.1,168.8 740.6,175.6 741.1,173.4 741.6,185.0 742.1,183.7 742.6,182.8 743.1,177.9 743.6,179.9 744.1,176.9 744.6,175.3 745.1,171.6 745.6,168.6 746.1,169.1 746.6,170.8 747.1,178.7 747.6,176.3 748.1,172.0 748.6,191.3 749.1,192.9 749.6,187.3 750.1,190.7 750.6,194.2 751.1,196.2 751.6,206.5 752.1,196.2 752.6,196.0 753.1,197.0 753.6,206.1 754.1,203.3 754.6,200.7 755.1,196.0 755.6,197.2 756.1,198.0 756.6,208.0 757.1,205.6 757.6,208.4 758.1,206.5 758.6,205.2 759.1,310.2 759.6,314.6 760.1,295.7 760.6,305.9 761.1,310.2 761.6,297.2 762.1,295.0 762.6,295.4 763.1,300.2 763.6,301.7 764.1,296.8 764.6,289.0 765.1,288.3 765.6,290.4 766.1,280.4 766.6,279.4 767.1,295.4 767.6,289.0 768.1,297.2 768.6,283.1 769.1,289.0 769.6,285.8 770.1,284.1 770.6,281.8 771.1,272.7 771.6,270.8 772.1,272.3 772.5,269.5 773.0,273.9 773.5,274.6 774.0,287.2 774.5,292.9 775.0,296.1 775.5,284.5 776.0,291.1 776.5,301.3 777.0,305.1 777.5,290.4 778.0,289.3 778.5,295.4 779.0,293.9 779.5,295.0 780.0,296.1 780.5,291.4 781.0,292.5 781.5,294.3 782.0,303.6 782.5,298.3 783.0,298.3 783.5,299.1 784.0,298.7 784.5,307.4 785.0,305.9 785.5,305.1 786.0,297.9 786.5,299.1 787.0,299.8 787.5,295.4 788.0,304.7 788.5,309.4 789.0,311.4 789.5,312.2 790.0,308.2 790.5,317.5 791.0,311.8 791.5,309.4 792.0,305.5 792.5,302.1 793.0,304.0 793.5,305.1 794.0,306.3 794.5,308.2 795.0,307.8 795.5,312.6 796.0,309.4"/><polyline fill="none" stroke="#16a34a" stroke-width="3" points="78.0,160.8 78.5,159.2 79.0,166.6 79.5,167.4 80.0,168.9 80.5,172.0 81.0,174.6 81.5,184.5 82.0,187.5 82.5,185.0 83.0,194.4 83.5,185.8 84.0,180.6 84.5,178.1 85.0,177.9 85.5,168.2 86.0,171.3 86.5,172.0 87.0,168.9 87.5,166.2 88.0,160.5 88.5,163.3 89.0,160.0 89.5,155.4 90.0,156.3 90.5,156.9 91.0,156.9 91.5,156.1 92.0,160.2 92.5,161.8 93.0,161.5 93.5,164.8 94.0,173.5 94.5,166.4 95.0,171.5 95.5,174.8 96.0,168.8 96.5,173.2 97.0,174.1 97.5,173.4 98.0,168.2 98.5,165.7 99.0,170.4 99.5,175.3 100.0,176.9 100.5,176.0 101.0,175.8 101.5,171.5 101.9,174.6 102.4,173.4 102.9,172.2 103.4,170.4 103.9,172.0 104.4,164.6 104.9,168.6 105.4,174.4 105.9,175.1 106.4,180.1 106.9,182.6 107.4,185.8 107.9,188.2 108.4,186.4 108.9,183.4 109.4,182.6 109.9,181.5 110.4,184.3 110.9,188.4 111.4,189.2 111.9,193.8 112.4,190.9 112.9,191.9 113.4,186.7 113.9,185.4 114.4,190.3 114.9,192.3 115.4,192.1 115.9,191.0 116.4,188.1 116.9,184.9 117.4,182.8 117.9,181.0 118.4,161.7 118.9,177.2 119.4,179.7 119.9,186.4 120.4,183.0 120.9,180.6 121.4,178.3 121.9,184.9 122.4,190.5 122.9,191.5 123.4,195.0 123.9,195.0 124.4,194.4 124.9,197.4 125.4,188.1 125.9,192.7 126.4,194.2 126.9,189.6 127.4,188.4 127.9,188.4 128.4,190.9 128.9,193.1 129.4,193.3 129.9,190.9 130.4,191.3 130.9,195.8 131.4,193.8 131.9,199.0 132.4,199.8 132.9,194.2 133.4,190.5 133.9,182.3 134.4,165.2 134.9,162.6 135.4,163.6 135.9,163.9 136.4,164.9 136.9,168.9 137.4,168.2 137.9,168.1 138.4,166.6 138.9,166.1 139.4,162.5 139.9,153.5 140.4,158.9 140.9,148.5 141.4,141.9 141.9,142.5 142.4,135.6 142.9,130.3 143.4,128.3 143.9,122.1 144.4,123.3 144.9,129.5 145.4,125.1 145.9,126.3 146.4,127.1 146.9,114.9 147.4,117.2 147.9,126.1 148.4,134.5 148.9,135.7 149.4,128.2 149.8,132.8 150.3,131.6 150.8,133.5 151.3,134.9 151.8,133.8 152.3,140.3 152.8,137.6 153.3,137.2 153.8,135.1 154.3,133.2 154.8,133.2 155.3,134.3 155.8,138.3 156.3,135.8 156.8,141.0 157.3,140.9 157.8,143.1 158.3,145.4 158.8,145.3 159.3,147.2 159.8,147.5 160.3,145.0 160.8,146.4 161.3,151.6 161.8,148.5 162.3,148.8 162.8,148.2 163.3,148.4 163.8,153.1 164.3,153.7 164.8,155.6 165.3,156.9 165.8,155.2 166.3,154.1 166.8,158.5 167.3,160.9 167.8,162.2 168.3,153.6 168.8,151.6 169.3,150.1 169.8,152.5 170.3,157.7 170.8,151.6 171.3,161.4 171.8,162.0 172.3,152.5 172.8,154.1 173.3,151.9 173.8,152.7 174.3,153.9 174.8,153.3 175.3,147.6 175.8,150.5 176.3,151.3 176.8,148.7 177.3,142.8 177.8,143.1 178.3,140.6 178.8,142.0 179.3,139.6 179.8,136.2 180.3,136.1 180.8,137.9 181.3,139.7 181.8,142.2 182.3,138.6 182.8,138.7 183.3,138.5 183.8,140.2 184.3,135.6 184.8,132.6 185.3,134.8 185.8,129.8 186.3,132.6 186.8,133.3 187.3,131.2 187.8,131.4 188.3,134.8 188.8,139.3 189.3,139.0 189.8,141.9 190.3,147.6 190.8,147.9 191.3,150.1 191.8,148.8 192.3,151.4 192.8,149.0 193.3,152.2 193.8,151.1 194.3,147.2 194.8,145.3 195.3,149.1 195.8,144.5 196.3,149.0 196.8,148.1 197.3,147.6 197.7,147.5 198.2,146.9 198.7,147.5 199.2,148.7 199.7,150.4 200.2,151.0 200.7,154.1 201.2,153.1 201.7,153.6 202.2,149.6 202.7,149.4 203.2,151.3 203.7,150.8 204.2,150.5 204.7,146.3 205.2,141.7 205.7,145.8 206.2,149.3 206.7,152.5 207.2,155.9 207.7,155.2 208.2,152.0 208.7,144.2 209.2,140.6 209.7,138.9 210.2,139.4 210.7,138.9 211.2,142.8 211.7,145.4 212.2,143.2 212.7,140.8 213.2,141.8 213.7,144.6 214.2,147.6 214.7,151.6 215.2,152.7 215.7,154.2 216.2,153.8 216.7,152.0 217.2,156.8 217.7,157.7 218.2,155.6 218.7,159.8 219.2,163.3 219.7,162.4 220.2,158.0 220.7,157.9 221.2,158.2 221.7,158.4 222.2,157.9 222.7,162.6 223.2,163.1 223.7,162.3 224.2,163.3 224.7,164.6 225.2,169.2 225.7,162.4 226.2,156.6 226.7,158.0 227.2,156.0 227.7,155.6 228.2,160.6 228.7,160.0 229.2,153.3 229.7,153.3 230.2,149.3 230.7,157.7 231.2,154.9 231.7,152.8 232.2,158.8 232.7,159.5 233.2,160.8 233.7,161.1 234.2,163.1 234.7,163.8 235.2,168.7 235.7,170.9 236.2,176.5 236.7,175.1 237.2,176.5 237.7,181.1 238.2,179.8 238.7,177.6 239.2,172.1 239.7,167.8 240.2,167.3 240.7,169.9 241.2,174.0 241.7,174.2 242.2,174.4 242.7,168.3 243.2,169.0 243.7,172.6 244.2,171.9 244.7,170.9 245.2,167.8 245.6,171.1 246.1,173.7 246.6,174.6 247.1,176.2 247.6,176.7 248.1,167.6 248.6,166.3 249.1,171.1 249.6,172.6 250.1,179.1 250.6,186.9 251.1,193.4 251.6,185.4 252.1,177.3 252.6,177.8 253.1,178.9 253.6,176.9 254.1,176.9 254.6,173.9 255.1,170.5 255.6,169.9 256.1,171.8 256.6,169.0 257.1,167.5 257.6,164.9 258.1,163.8 258.6,167.3 259.1,165.3 259.6,170.9 260.1,176.2 260.6,175.5 261.1,170.2 261.6,168.7 262.1,174.9 262.6,173.5 263.1,174.9 263.6,175.3 264.1,176.7 264.6,175.8 265.1,177.3 265.6,178.9 266.1,179.3 266.6,179.4 267.1,180.5 267.6,179.6 268.1,182.4 268.6,187.3 269.1,188.3 269.6,186.0 270.1,189.8 270.6,187.1 271.1,190.2 271.6,190.0 272.1,196.2 272.6,201.1 273.1,210.8 273.6,211.7 274.1,209.4 274.6,210.1 275.1,206.0 275.6,206.4 276.1,200.7 276.6,205.8 277.1,203.0 277.6,202.4 278.1,195.4 278.6,194.8 279.1,194.6 279.6,189.2 280.1,184.6 280.6,181.5 281.1,179.5 281.6,177.1 282.1,177.9 282.6,173.9 283.1,172.8 283.6,171.8 284.1,169.1 284.6,173.2 285.1,180.1 285.6,179.9 286.1,173.7 286.6,182.1 287.1,180.2 287.6,179.3 288.1,180.1 288.6,181.4 289.1,173.5 289.6,160.9 290.1,157.5 290.6,160.5 291.1,159.6 291.6,164.0 292.1,165.2 292.6,169.0 293.1,164.5 293.5,161.4 294.0,162.5 294.5,158.3 295.0,161.4 295.5,163.2 296.0,157.5 296.5,155.2 297.0,151.8 297.5,147.1 298.0,144.6 298.5,151.8 299.0,148.8 299.5,152.7 300.0,150.4 300.5,149.9 301.0,150.5 301.5,149.6 302.0,154.9 302.5,147.1 303.0,147.0 303.5,148.7 304.0,147.0 304.5,153.2 305.0,150.7 305.5,154.1 306.0,152.5 306.5,156.0 307.0,157.1 307.5,160.7 308.0,161.7 308.5,165.6 309.0,168.3 309.5,168.5 310.0,168.5 310.5,164.0 311.0,169.0 311.5,169.7 312.0,169.5 312.5,172.3 313.0,177.5 313.5,177.1 314.0,179.3 314.5,184.0 315.0,188.8 315.5,187.0 316.0,182.9 316.5,190.6 317.0,194.3 317.5,192.9 318.0,195.8 318.5,196.2 319.0,202.2 319.5,203.0 320.0,207.6 320.5,210.2 321.0,214.3 321.5,216.5 322.0,210.2 322.5,211.5 323.0,208.4 323.5,199.7 324.0,195.6 324.5,193.5 325.0,197.8 325.5,199.5 326.0,205.0 326.5,209.1 327.0,217.5 327.5,214.9 328.0,215.4 328.5,206.3 329.0,202.4 329.5,204.1 330.0,205.8 330.5,205.8 331.0,203.0 331.5,198.4 332.0,193.5 332.5,198.2 333.0,196.4 333.5,196.0 334.0,197.2 334.5,194.7 335.0,198.6 335.5,191.0 336.0,184.6 336.5,187.3 337.0,188.1 337.5,180.0 338.0,178.6 338.5,183.2 339.0,180.2 339.5,182.7 340.0,181.2 340.5,176.5 341.0,181.4 341.4,178.4 341.9,176.4 342.4,176.4 342.9,177.1 343.4,176.5 343.9,173.3 344.4,173.6 344.9,178.2 345.4,183.6 345.9,187.1 346.4,185.0 346.9,182.7 347.4,182.1 347.9,179.7 348.4,181.2 348.9,184.6 349.4,189.6 349.9,196.1 350.4,198.6 350.9,196.5 351.4,195.7 351.9,198.6 352.4,199.0 352.9,199.6 353.4,195.5 353.9,195.3 354.4,193.4 354.9,189.4 355.4,186.9 355.9,185.9 356.4,182.7 356.9,182.9 357.4,175.6 357.9,173.1 358.4,174.0 358.9,174.7 359.4,178.6 359.9,180.0 360.4,182.1 360.9,179.3 361.4,174.7 361.9,172.8 362.4,171.0 362.9,173.1 363.4,176.5 363.9,174.4 364.4,174.7 364.9,175.3 365.4,178.7 365.9,185.0 366.4,187.5 366.9,188.7 367.4,189.0 367.9,191.6 368.4,191.4 368.9,189.6 369.4,189.2 369.9,189.2 370.4,191.0 370.9,191.4 371.4,195.3 371.9,195.9 372.4,194.2 372.9,195.7 373.4,193.6 373.9,193.4 374.4,193.6 374.9,190.6 375.4,191.0 375.9,188.3 376.4,193.4 376.9,192.2 377.4,195.5 377.9,198.6 378.4,201.7 378.9,200.5 379.4,203.4 379.9,217.8 380.4,224.5 380.9,227.2 381.4,219.4 381.9,216.4 382.4,217.8 382.9,216.6 383.4,213.2 383.9,214.3 384.4,216.4 384.9,213.4 385.4,143.1 385.9,143.1 386.4,134.0 386.9,133.4 387.4,126.0 387.9,119.6 388.4,123.0 388.9,122.3 389.3,120.9 389.8,120.6 390.3,121.4 390.8,122.8 391.3,120.9 391.8,118.3 392.3,116.8 392.8,117.9 393.3,121.7 393.8,118.7 394.3,117.1 394.8,112.5 395.3,112.7 395.8,116.4 396.3,110.7 396.8,115.0 397.3,111.3 397.8,109.4 398.3,108.0 398.8,109.1 399.3,110.9 399.8,110.9 400.3,108.5 400.8,107.9 401.3,107.3 401.8,106.4 402.3,110.0 402.8,115.7 403.3,109.7 403.8,115.1 404.3,110.0 404.8,109.3 405.3,114.0 405.8,112.5 406.3,109.3 406.8,110.6 407.3,112.1 407.8,109.9 408.3,112.2 408.8,113.2 409.3,113.8 409.8,115.4 410.3,115.1 410.8,119.1 411.3,120.0 411.8,120.0 412.3,116.5 412.8,120.1 413.3,119.8 413.8,124.2 414.3,126.3 414.8,126.7 415.3,130.2 415.8,128.8 416.3,126.5 416.8,123.8 417.3,124.1 417.8,127.3 418.3,125.7 418.8,127.0 419.3,128.7 419.8,128.2 420.3,126.6 420.8,129.6 421.3,124.3 421.8,125.8 422.3,125.5 422.8,120.9 423.3,121.7 423.8,118.4 424.3,115.6 424.8,111.0 425.3,114.0 425.8,108.5 426.3,109.8 426.8,104.8 427.3,109.2 427.8,107.1 428.3,105.8 428.8,104.6 429.3,107.8 429.8,107.7 430.3,99.1 430.8,104.4 431.3,101.1 431.8,102.7 432.3,105.3 432.8,110.9 433.3,115.9 433.8,114.9 434.3,112.7 434.8,111.4 435.3,111.2 435.8,107.3 436.3,106.9 436.8,104.7 437.2,104.9 437.7,106.3 438.2,105.5 438.7,109.9 439.2,108.9 439.7,105.1 440.2,82.5 440.7,78.0 441.2,80.2 441.7,82.8 442.2,87.3 442.7,93.8 443.2,97.2 443.7,94.6 444.2,97.5 444.7,100.5 445.2,99.0 445.7,100.1 446.2,99.3 446.7,101.9 447.2,105.3 447.7,103.5 448.2,107.5 448.7,114.7 449.2,116.5 449.7,115.7 450.2,115.7 450.7,117.4 451.2,112.8 451.7,110.0 452.2,115.9 452.7,116.0 453.2,116.4 453.7,116.6 454.2,118.7 454.7,121.8 455.2,123.8 455.7,123.7 456.2,123.7 456.7,125.9 457.2,124.5 457.7,125.0 458.2,124.2 458.7,123.0 459.2,121.9 459.7,118.5 460.2,112.8 460.7,112.5 461.2,112.1 461.7,112.8 462.2,114.6 462.7,107.4 463.2,106.8 463.7,105.6 464.2,110.9 464.7,113.3 465.2,111.6 465.7,100.0 466.2,103.8 466.7,97.9 467.2,99.2 467.7,103.9 468.2,107.5 468.7,107.3 469.2,104.0 469.7,104.2 470.2,105.0 470.7,108.2 471.2,110.2 471.7,109.3 472.2,109.9 472.7,107.5 473.2,106.2 473.7,103.7 474.2,108.0 474.7,112.7 475.2,109.8 475.7,107.6 476.2,112.9 476.7,113.7 477.2,108.4 477.7,108.6 478.2,80.8 478.7,82.3 479.2,84.9 479.7,90.3 480.2,92.9 480.7,92.9 481.2,94.0 481.7,93.7 482.2,92.5 482.7,92.4 483.2,92.5 483.7,89.5 484.2,96.5 484.7,98.8 485.1,97.5 485.6,95.0 486.1,95.8 486.6,92.4 487.1,92.7 487.6,89.6 488.1,89.7 488.6,87.0 489.1,87.9 489.6,90.9 490.1,89.7 490.6,92.6 491.1,94.2 491.6,97.5 492.1,98.4 492.6,98.6 493.1,98.6 493.6,92.1 494.1,96.6 494.6,96.0 495.1,89.6 495.6,88.1 496.1,87.7 496.6,92.0 497.1,87.9 497.6,84.7 498.1,84.9 498.6,84.8 499.1,91.7 499.6,89.9 500.1,90.5 500.6,96.2 501.1,102.3 501.6,102.6 502.1,101.1 502.6,102.5 503.1,104.4 503.6,103.6 504.1,105.8 504.6,98.8 505.1,97.7 505.6,99.2 506.1,96.3 506.6,92.0 507.1,91.3 507.6,88.6 508.1,91.1 508.6,85.3 509.1,80.2 509.6,81.0 510.1,81.4 510.6,81.6 511.1,80.5 511.6,84.5 512.1,84.4 512.6,81.4 513.1,76.8 513.6,76.5 514.1,77.2 514.6,90.2 515.1,93.1 515.6,91.8 516.1,90.7 516.6,92.9 517.1,95.0 517.6,92.2 518.1,87.2 518.6,89.4 519.1,89.4 519.6,87.1 520.1,85.1 520.6,88.2 521.1,86.4 521.6,82.1 522.1,82.4 522.6,78.9 523.1,79.8 523.6,79.8 524.1,84.0 524.6,86.6 525.1,97.0 525.6,101.1 526.1,96.2 526.6,99.9 527.1,98.9 527.6,100.2 528.1,100.7 528.6,102.9 529.1,103.3 529.6,99.1 530.1,101.5 530.6,102.6 531.1,100.0 531.6,96.9 532.1,93.9 532.6,95.2 533.0,100.3 533.5,102.9 534.0,98.5 534.5,102.6 535.0,106.4 535.5,102.9 536.0,103.8 536.5,106.4 537.0,105.3 537.5,111.3 538.0,111.3 538.5,112.2 539.0,113.8 539.5,117.3 540.0,114.2 540.5,115.9 541.0,113.6 541.5,120.0 542.0,114.1 542.5,115.1 543.0,114.5 543.5,112.9 544.0,115.3 544.5,112.2 545.0,108.0 545.5,106.5 546.0,104.4 546.5,99.4 547.0,99.9 547.5,102.9 548.0,107.0 548.5,105.1 549.0,103.9 549.5,108.5 550.0,107.7 550.5,101.5 551.0,108.2 551.5,103.5 552.0,100.7 552.5,107.0 553.0,113.4 553.5,121.5 554.0,119.7 554.5,120.7 555.0,120.4 555.5,116.0 556.0,118.8 556.5,116.1 557.0,115.1 557.5,110.8 558.0,111.2 558.5,107.5 559.0,111.4 559.5,110.1 560.0,113.7 560.5,109.3 561.0,108.8 561.5,109.7 562.0,110.3 562.5,108.3 563.0,107.9 563.5,114.8 564.0,113.9 564.5,114.5 565.0,117.8 565.5,115.9 566.0,116.2 566.5,116.6 567.0,114.3 567.5,110.1 568.0,111.2 568.5,108.7 569.0,109.5 569.5,105.7 570.0,110.2 570.5,110.6 571.0,108.8 571.5,112.9 572.0,110.3 572.5,107.2 573.0,110.9 573.5,116.2 574.0,113.4 574.5,115.5 575.0,110.6 575.5,113.8 576.0,114.8 576.5,111.1 577.0,110.6 577.5,108.6 578.0,107.0 578.5,107.7 579.0,103.3 579.5,103.9 580.0,102.8 580.5,106.4 580.9,105.7 581.4,105.6 581.9,104.5 582.4,107.2 582.9,106.3 583.4,108.0 583.9,105.2 584.4,108.0 584.9,107.2 585.4,108.3 585.9,104.4 586.4,94.2 586.9,98.3 587.4,103.4 587.9,104.3 588.4,109.2 588.9,111.3 589.4,109.1 589.9,111.0 590.4,108.6 590.9,107.9 591.4,106.6 591.9,104.4 592.4,103.6 592.9,105.0 593.4,107.9 593.9,106.7 594.4,105.6 594.9,105.6 595.4,108.8 595.9,109.1 596.4,108.7 596.9,109.7 597.4,108.7 597.9,105.4 598.4,103.4 598.9,107.0 599.4,107.2 599.9,107.0 600.4,107.7 600.9,113.9 601.4,114.2 601.9,114.3 602.4,116.8 602.9,116.1 603.4,114.7 603.9,117.0 604.4,117.1 604.9,116.6 605.4,114.8 605.9,110.4 606.4,111.7 606.9,115.0 607.4,116.4 607.9,119.8 608.4,119.9 608.9,119.6 609.4,112.2 609.9,113.1 610.4,112.3 610.9,102.0 611.4,102.8 611.9,100.4 612.4,101.5 612.9,94.1 613.4,93.1 613.9,97.0 614.4,97.6 614.9,100.8 615.4,103.2 615.9,100.5 616.4,98.7 616.9,96.2 617.4,95.2 617.9,91.2 618.4,88.9 618.9,91.2 619.4,87.5 619.9,85.9 620.4,85.8 620.9,84.8 621.4,84.8 621.9,86.1 622.4,84.3 622.9,83.8 623.4,84.5 623.9,83.7 624.4,83.4 624.9,97.8 625.4,106.4 625.9,106.1 626.4,104.7 626.9,107.6 627.4,115.2 627.9,109.9 628.4,107.9 628.8,110.4 629.3,106.2 629.8,104.1 630.3,102.6 630.8,100.8 631.3,99.9 631.8,103.2 632.3,102.2 632.8,101.2 633.3,104.7 633.8,104.4 634.3,107.6 634.8,110.8 635.3,107.2 635.8,105.6 636.3,116.5 636.8,127.7 637.3,130.9 637.8,130.2 638.3,115.0 638.8,123.8 639.3,117.5 639.8,111.0 640.3,106.2 640.8,103.1 641.3,102.9 641.8,105.9 642.3,100.3 642.8,101.6 643.3,103.5 643.8,105.0 644.3,106.0 644.8,104.3 645.3,106.2 645.8,107.0 646.3,101.6 646.8,101.8 647.3,103.1 647.8,101.0 648.3,101.9 648.8,103.7 649.3,98.0 649.8,97.2 650.3,96.2 650.8,104.3 651.3,105.5 651.8,105.5 652.3,105.3 652.8,111.9 653.3,111.4 653.8,112.1 654.3,110.0 654.8,114.2 655.3,112.4 655.8,114.4 656.3,116.5 656.8,114.2 657.3,115.7 657.8,110.7 658.3,108.5 658.8,109.6 659.3,110.6 659.8,110.1 660.3,114.4 660.8,118.0 661.3,117.3 661.8,141.5 662.3,139.6 662.8,139.7 663.3,139.6 663.8,135.1 664.3,137.5 664.8,131.6 665.3,130.1 665.8,97.4 666.3,110.9 666.8,107.0 667.3,99.3 667.8,99.3 668.3,93.7 668.8,90.8 669.3,93.6 669.8,98.3 670.3,96.1 670.8,101.6 671.3,98.7 671.8,95.8 672.3,100.1 672.8,103.3 673.3,101.0 673.8,99.3 674.3,101.7 674.8,103.0 675.3,107.4 675.8,111.4 676.3,113.7 676.7,114.5 677.2,120.0 677.7,117.4 678.2,116.1 678.7,115.8 679.2,113.0 679.7,107.4 680.2,107.0 680.7,103.2 681.2,100.3 681.7,105.4 682.2,107.6 682.7,105.1 683.2,102.3 683.7,102.6 684.2,105.2 684.7,100.7 685.2,102.2 685.7,101.1 686.2,103.3 686.7,103.5 687.2,100.4 687.7,102.7 688.2,110.1 688.7,108.8 689.2,108.5 689.7,116.1 690.2,118.6 690.7,119.4 691.2,112.6 691.7,113.8 692.2,114.0 692.7,114.8 693.2,114.9 693.7,114.3 694.2,119.9 694.7,118.6 695.2,117.8 695.7,121.4 696.2,124.6 696.7,124.9 697.2,124.3 697.7,126.4 698.2,126.9 698.7,126.8 699.2,126.6 699.7,132.3 700.2,133.4 700.7,131.6 701.2,132.1 701.7,137.5 702.2,138.1 702.7,135.7 703.2,135.6 703.7,141.7 704.2,144.4 704.7,144.6 705.2,144.9 705.7,145.5 706.2,146.3 706.7,144.9 707.2,135.9 707.7,138.5 708.2,154.9 708.7,165.4 709.2,156.7 709.7,158.5 710.2,164.8 710.7,164.8 711.2,172.1 711.7,174.0 712.2,173.6 712.7,171.8 713.2,173.8 713.7,178.4 714.2,180.9 714.7,186.4 715.2,182.4 715.7,182.6 716.2,182.3 716.7,178.8 717.2,170.9 717.7,165.7 718.2,163.8 718.7,163.1 719.2,166.6 719.7,167.5 720.2,163.6 720.7,170.0 721.2,168.0 721.7,173.4 722.2,169.1 722.7,169.6 723.2,170.7 723.7,173.2 724.2,173.0 724.6,170.7 725.1,169.8 725.6,168.5 726.1,168.4 726.6,171.4 727.1,171.0 727.6,173.2 728.1,171.6 728.6,168.7 729.1,173.0 729.6,174.7 730.1,177.9 730.6,171.2 731.1,168.0 731.6,168.0 732.1,168.4 732.6,165.4 733.1,161.9 733.6,163.4 734.1,159.4 734.6,158.7 735.1,160.5 735.6,161.1 736.1,162.4 736.6,158.0 737.1,160.0 737.6,161.7 738.1,159.0 738.6,164.7 739.1,161.6 739.6,161.1 740.1,159.7 740.6,166.6 741.1,164.3 741.6,176.0 742.1,174.7 742.6,173.8 743.1,168.9 743.6,170.9 744.1,167.8 744.6,166.2 745.1,162.6 745.6,159.5 746.1,160.0 746.6,161.7 747.1,169.6 747.6,167.3 748.1,162.9 748.6,182.3 749.1,183.8 749.6,178.2 750.1,181.7 750.6,185.2 751.1,187.2 751.6,197.4 752.1,187.2 752.6,187.0 753.1,188.0 753.6,197.0 754.1,194.3 754.6,191.6 755.1,187.0 755.6,188.2 756.1,189.0 756.6,198.9 757.1,196.6 757.6,199.4 758.1,197.4 758.6,196.2 759.1,301.2 759.6,305.6 760.1,286.7 760.6,296.8 761.1,301.2 761.6,288.2 762.1,286.0 762.6,286.3 763.1,291.1 763.6,292.6 764.1,287.8 764.6,279.9 765.1,279.2 765.6,281.3 766.1,271.4 766.6,270.4 767.1,286.3 767.6,279.9 768.1,288.2 768.6,274.1 769.1,279.9 769.6,276.8 770.1,275.1 770.6,272.7 771.1,263.6 771.6,261.7 772.1,263.3 772.5,260.5 773.0,264.9 773.5,265.5 774.0,278.2 774.5,283.8 775.0,287.1 775.5,275.4 776.0,282.0 776.5,292.2 777.0,296.1 777.5,281.3 778.0,280.3 778.5,284.0 779.0,282.6 779.5,283.7 780.0,284.8 780.5,280.1 781.0,281.2 781.5,283.0 782.0,292.3 782.5,287.0 783.0,287.0 783.5,287.7 784.0,287.4 784.5,296.1 785.0,294.6 785.5,293.8 786.0,286.6 786.5,287.7 787.0,288.5 787.5,284.0 788.0,293.4 788.5,298.1 789.0,300.1 789.5,300.9 790.0,296.9 790.5,306.2 791.0,300.5 791.5,298.1 792.0,294.2 792.5,290.7 793.0,292.6 793.5,293.8 794.0,294.9 794.5,296.9 795.0,296.5 795.5,301.3 796.0,298.1"/>
<text x="78" y="392" font-size="11" fill="#16a34a">Total return -56.5%</text><text x="268" y="392" font-size="11" fill="#2563eb">Price-only -59.4%</text><text x="78" y="362" font-size="11" text-anchor="middle" fill="#64748b">2020-10</text><text x="258" y="362" font-size="11" text-anchor="middle" fill="#64748b">2022-03</text><text x="437" y="362" font-size="11" text-anchor="middle" fill="#64748b">2023-08</text><text x="617" y="362" font-size="11" text-anchor="middle" fill="#64748b">2025-02</text><text x="796" y="362" font-size="11" text-anchor="middle" fill="#64748b">2026-07</text></svg>