<svg xmlns="http://www.w3.org/2000/svg" width="720" height="360" viewBox="0 0 720 360">
  <rect width="720" height="360" fill="#fafafa"/>
  <text x="56" y="22" font-size="13" font-family="sans-serif" fill="#222">ADN.TO total return (rebased 100) · cumulative distributions $1.16/sh · market cap $323.1M</text>
  <line x1="56" y1="308" x2="696" y2="308" stroke="#ccc"/>
  <line x1="56" y1="48" x2="56" y2="308" stroke="#ccc"/>
  <polyline fill="none" stroke="#2563eb" stroke-width="2" points="56.0,223.7 59.0,235.3 62.0,226.4 64.9,266.9 67.9,286.3 70.9,277.1 73.9,284.7 76.8,290.1 79.8,285.5 82.8,271.0 85.8,248.3 88.7,251.9 91.7,254.8 94.7,251.2 97.7,255.0 100.7,255.7 103.6,280.5 106.6,280.9 109.6,277.1 112.6,274.8 115.5,263.8 118.5,265.7 121.5,274.5 124.5,284.0 127.4,276.3 130.4,286.3 133.4,283.5 136.4,272.5 139.3,274.0 142.3,263.5 145.3,242.3 148.3,226.0 151.3,198.5 154.2,191.4 157.2,197.3 160.2,197.9 163.2,210.6 166.1,223.7 169.1,226.7 172.1,213.0 175.1,225.2 178.0,220.2 181.0,209.2 184.0,209.2 187.0,206.5 190.0,206.2 192.9,205.4 195.9,195.5 198.9,193.9 201.9,192.4 204.8,184.8 207.8,183.3 210.8,164.2 213.8,159.6 216.7,151.2 219.7,168.0 222.7,148.9 225.7,160.4 228.7,175.6 231.6,174.9 234.6,168.8 237.6,188.6 240.6,188.8 243.5,179.4 246.5,191.4 249.5,190.9 252.5,176.4 255.4,167.7 258.4,179.4 261.4,185.6 264.4,190.1 267.3,174.7 270.3,176.2 273.3,164.2 276.3,173.3 279.3,160.4 282.2,141.3 285.2,147.4 288.2,136.3 291.2,114.1 294.1,100.9 297.1,87.9 300.1,87.9 303.1,89.4 306.0,86.2 309.0,74.9 312.0,71.6 315.0,98.7 318.0,65.9 320.9,71.1 323.9,103.3 326.9,83.5 329.9,69.6 332.8,107.0 335.8,118.1 338.8,124.8 341.8,102.4 344.7,100.0 347.7,101.6 350.7,111.7 353.7,110.8 356.7,97.8 359.6,113.2 362.6,94.9 365.6,97.4 368.6,102.1 371.5,101.2 374.5,90.5 377.5,97.1 380.5,94.8 383.4,82.6 386.4,78.9 389.4,90.2 392.4,80.3 395.3,88.1 398.3,82.1 401.3,84.7 404.3,77.4 407.3,82.1 410.2,74.2 413.2,71.1 416.2,86.4 419.2,99.8 422.1,117.5 425.1,149.1 428.1,147.0 431.1,109.6 434.0,116.3 437.0,129.6 440.0,123.0 443.0,128.5 446.0,126.5 448.9,121.2 451.9,130.5 454.9,118.3 457.9,128.3 460.8,123.5 463.8,123.9 466.8,127.3 469.8,124.5 472.7,183.3 475.7,163.6 478.7,167.2 481.7,156.3 484.7,130.9 487.6,124.4 490.6,129.9 493.6,145.1 496.6,137.6 499.5,132.2 502.5,127.4 505.5,99.2 508.5,80.3 511.4,68.1 514.4,91.1 517.4,81.3 520.4,109.9 523.3,97.8 526.3,91.9 529.3,96.8 532.3,108.5 535.3,85.2 538.2,87.9 541.2,87.7 544.2,87.1 547.2,90.5 550.1,93.2 553.1,123.6 556.1,118.4 559.1,121.2 562.0,133.7 565.0,147.7 568.0,139.5 571.0,149.4 574.0,130.8 576.9,139.9 579.9,137.2 582.9,137.3 585.9,126.8 588.8,121.2 591.8,121.5 594.8,96.6 597.8,113.4 600.7,141.0 603.7,130.8 606.7,116.1 609.7,130.3 612.7,120.7 615.6,112.6 618.6,110.9 621.6,110.3 624.6,116.4 627.5,101.2 630.5,113.5 633.5,111.7 636.5,96.9 639.4,107.3 642.4,112.0 645.4,114.8 648.4,112.2 651.3,111.7 654.3,114.3 657.3,103.6 660.3,107.6 663.3,103.8 666.2,106.5 669.2,127.1 672.2,159.2 675.2,138.6 678.1,135.2 681.1,132.0 684.1,121.0 687.1,116.6 690.0,115.4 693.0,109.9 696.0,112.3"/>
  <polyline fill="none" stroke="#16a34a" stroke-width="2" points="56.0,223.7 59.0,235.3 62.0,226.4 64.9,266.9 67.9,286.3 70.9,277.1 73.9,284.7 76.8,290.1 79.8,285.5 82.8,271.0 85.8,248.3 88.7,251.9 91.7,254.8 94.7,251.2 97.7,255.0 100.7,255.7 103.6,280.5 106.6,280.9 109.6,277.1 112.6,274.8 115.5,263.8 118.5,265.7 121.5,274.5 124.5,284.0 127.4,276.3 130.4,286.3 133.4,283.5 136.4,272.5 139.3,274.0 142.3,263.5 145.3,242.3 148.3,226.0 151.3,198.5 154.2,191.4 157.2,197.3 160.2,197.9 163.2,210.6 166.1,223.7 169.1,226.7 172.1,213.0 175.1,225.2 178.0,220.2 181.0,209.2 184.0,209.2 187.0,206.5 190.0,206.2 192.9,205.4 195.9,195.5 198.9,193.9 201.9,192.4 204.8,184.8 207.8,183.3 210.8,164.2 213.8,159.6 216.7,151.2 219.7,168.0 222.7,148.9 225.7,160.4 228.7,175.6 231.6,174.9 234.6,168.8 237.6,188.6 240.6,188.8 243.5,179.4 246.5,191.4 249.5,190.9 252.5,176.4 255.4,167.7 258.4,179.4 261.4,185.6 264.4,190.1 267.3,174.7 270.3,176.2 273.3,164.2 276.3,173.3 279.3,160.4 282.2,141.3 285.2,147.4 288.2,136.3 291.2,114.1 294.1,100.9 297.1,87.9 300.1,87.9 303.1,89.4 306.0,86.2 309.0,74.9 312.0,71.6 315.0,98.7 318.0,65.9 320.9,71.1 323.9,103.3 326.9,83.5 329.9,69.6 332.8,107.0 335.8,118.1 338.8,124.8 341.8,102.4 344.7,100.0 347.7,101.6 350.7,111.7 353.7,110.8 356.7,97.8 359.6,113.2 362.6,94.9 365.6,97.4 368.6,102.1 371.5,101.2 374.5,90.5 377.5,97.1 380.5,94.8 383.4,82.6 386.4,78.9 389.4,90.2 392.4,80.3 395.3,88.1 398.3,82.1 401.3,84.7 404.3,77.4 407.3,82.1 410.2,74.2 413.2,71.1 416.2,86.4 419.2,99.8 422.1,117.5 425.1,149.1 428.1,147.0 431.1,109.6 434.0,116.3 437.0,129.6 440.0,123.0 443.0,128.5 446.0,126.5 448.9,121.2 451.9,130.5 454.9,118.3 457.9,128.3 460.8,123.5 463.8,123.9 466.8,127.3 469.8,124.5 472.7,183.3 475.7,163.6 478.7,167.2 481.7,156.3 484.7,130.9 487.6,124.4 490.6,129.9 493.6,145.1 496.6,137.6 499.5,132.2 502.5,127.4 505.5,99.2 508.5,80.3 511.4,68.1 514.4,91.1 517.4,81.3 520.4,109.9 523.3,97.8 526.3,91.9 529.3,96.8 532.3,108.5 535.3,85.2 538.2,87.9 541.2,87.7 544.2,87.1 547.2,90.5 550.1,93.2 553.1,123.6 556.1,118.4 559.1,121.2 562.0,133.7 565.0,147.7 568.0,139.5 571.0,149.4 574.0,130.8 576.9,139.9 579.9,137.2 582.9,137.3 585.9,126.8 588.8,121.2 591.8,121.5 594.8,96.6 597.8,113.4 600.7,141.0 603.7,130.8 606.7,116.1 609.7,130.3 612.7,120.7 615.6,112.6 618.6,110.9 621.6,110.3 624.6,116.4 627.5,101.2 630.5,113.5 633.5,111.7 636.5,96.9 639.4,107.3 642.4,112.0 645.4,114.8 648.4,112.2 651.3,111.7 654.3,114.3 657.3,103.6 660.3,107.6 663.3,103.8 666.2,106.5 669.2,127.1 672.2,159.2 675.2,138.6 678.1,135.2 681.1,132.0 684.1,121.0 687.1,116.6 690.0,115.4 693.0,109.9 696.0,112.3"/>
  <text x="60" y="62" font-size="11" fill="#2563eb">Price index</text>
  <text x="146" y="62" font-size="11" fill="#16a34a">Total return (price + distributions)</text>
  <text x="56" y="348" font-size="11" text-anchor="middle" fill="#444">2008-07</text><text x="217" y="348" font-size="11" text-anchor="middle" fill="#444">2013-01</text><text x="377" y="348" font-size="11" text-anchor="middle" fill="#444">2017-07</text><text x="538" y="348" font-size="11" text-anchor="middle" fill="#444">2022-01</text><text x="696" y="348" font-size="11" text-anchor="middle" fill="#444">2026-06</text>
</svg>
