<svg xmlns="http://www.w3.org/2000/svg" width="820" height="410" viewBox="0 0 820 410">
<rect width="820" height="410" fill="#fafafa"/><text x="78" y="22" font-size="14" font-family="sans-serif" fill="#0f172a">ABBV cumulative return since 2013-01-02 | dividends reinvested</text>
<text x="78" y="40" font-size="11" font-family="sans-serif" fill="#334155">Total return +1,089% | Price-only +595.1% | logarithmic scale</text>
<text x="78" y="54" font-size="9" font-family="sans-serif" fill="#64748b">Regular $78.43 | Special $0.00 | Other $0.00 per initial share path</text>
<line x1="78" y1="332.0" x2="796" y2="332.0" stroke="#e2e8f0"/><text x="70" y="336.0" font-size="10" text-anchor="end" fill="#64748b">-17.8%</text><line x1="78" y1="313.7" x2="796" y2="313.7" stroke="#e2e8f0"/><text x="70" y="317.7" font-size="10" text-anchor="end" fill="#64748b">0%</text><line x1="78" y1="287.0" x2="796" y2="287.0" stroke="#e2e8f0"/><text x="70" y="291.0" font-size="10" text-anchor="end" fill="#64748b">+33.2%</text><line x1="78" y1="242.0" x2="796" y2="242.0" stroke="#e2e8f0"/><text x="70" y="246.0" font-size="10" text-anchor="end" fill="#64748b">+115.7%</text><line x1="78" y1="197.0" x2="796" y2="197.0" stroke="#e2e8f0"/><text x="70" y="201.0" font-size="10" text-anchor="end" fill="#64748b">+249.4%</text><line x1="78" y1="152.0" x2="796" y2="152.0" stroke="#e2e8f0"/><text x="70" y="156.0" font-size="10" text-anchor="end" fill="#64748b">+466.0%</text><line x1="78" y1="107.0" x2="796" y2="107.0" stroke="#e2e8f0"/><text x="70" y="111.0" font-size="10" text-anchor="end" fill="#64748b">+816.8%</text><line x1="78" y1="62.0" x2="796" y2="62.0" stroke="#e2e8f0"/><text x="70" y="66.0" font-size="10" text-anchor="end" fill="#64748b">+1,385%</text>
<line x1="78" y1="332" x2="796" y2="332" stroke="#cbd5e1"/>
<polyline fill="none" stroke="#2563eb" stroke-width="2" points="78.0,313.7 78.2,314.5 78.4,315.7 78.6,315.5 78.8,317.5 79.1,317.0 79.3,316.7 79.5,317.1 79.7,316.5 79.9,315.1 80.1,312.6 80.3,310.3 80.5,308.0 80.7,310.3 81.0,306.9 81.2,307.7 81.4,307.3 81.6,309.1 81.8,308.1 82.0,309.0 82.2,309.6 82.4,308.4 82.6,308.1 82.9,308.3 83.1,308.5 83.3,310.3 83.5,310.8 83.7,311.8 83.9,312.9 84.1,313.3 84.3,309.9 84.5,307.4 84.8,305.9 85.0,304.9 85.2,304.5 85.4,305.2 85.6,307.9 85.8,308.6 86.0,309.5 86.2,309.0 86.4,306.8 86.7,305.8 86.9,307.6 87.1,307.0 87.3,307.6 87.5,308.0 87.7,307.2 87.9,308.4 88.1,308.4 88.3,307.4 88.6,305.1 88.8,306.0 89.0,305.5 89.2,303.8 89.4,305.2 89.6,304.0 89.8,303.2 90.0,301.1 90.2,301.2 90.5,299.8 90.7,299.0 90.9,299.9 91.1,300.3 91.3,297.9 91.5,298.6 91.7,297.5 91.9,295.8 92.1,293.5 92.4,294.4 92.6,294.6 92.8,298.3 93.0,296.0 93.2,296.5 93.4,296.3 93.6,296.2 93.8,292.3 94.0,290.3 94.3,292.0 94.5,292.2 94.7,288.9 94.9,290.1 95.1,288.4 95.3,289.5 95.5,292.7 95.7,291.3 95.9,291.4 96.2,290.8 96.4,293.8 96.6,292.2 96.8,290.6 97.0,291.5 97.2,289.9 97.4,288.5 97.6,288.1 97.8,286.2 98.0,288.0 98.3,287.4 98.5,287.0 98.7,287.3 98.9,289.7 99.1,289.8 99.3,292.9 99.5,291.5 99.7,295.5 99.9,294.0 100.2,293.5 100.4,294.7 100.6,293.7 100.8,292.7 101.0,292.9 101.2,293.6 101.4,295.3 101.6,294.5 101.8,294.4 102.1,294.8 102.3,293.7 102.5,294.7 102.7,299.1 102.9,295.7 103.1,297.3 103.3,295.6 103.5,294.0 103.7,294.5 104.0,298.5 104.2,297.9 104.4,296.6 104.6,296.5 104.8,295.4 105.0,293.4 105.2,294.1 105.4,292.9 105.6,293.2 105.9,290.5 106.1,291.4 106.3,293.1 106.5,292.8 106.7,292.0 106.9,291.6 107.1,290.6 107.3,292.0 107.5,293.4 107.8,292.2 108.0,291.0 108.2,290.5 108.4,291.2 108.6,289.6 108.8,290.1 109.0,289.9 109.2,291.2 109.4,290.8 109.7,291.5 109.9,290.5 110.1,291.2 110.3,290.5 110.5,290.7 110.7,291.5 110.9,294.4 111.1,294.8 111.3,294.0 111.6,294.9 111.8,296.3 112.0,295.0 112.2,293.9 112.4,293.9 112.6,295.6 112.8,295.8 113.0,295.7 113.2,295.7 113.5,295.7 113.7,294.5 113.9,293.7 114.1,292.9 114.3,291.8 114.5,291.0 114.7,290.7 114.9,291.2 115.1,290.8 115.4,288.9 115.6,285.3 115.8,284.7 116.0,285.7 116.2,284.9 116.4,286.3 116.6,288.6 116.8,289.9 117.0,290.6 117.3,292.0 117.5,291.1 117.7,288.9 117.9,288.6 118.1,288.5 118.3,286.9 118.5,288.4 118.7,291.6 118.9,291.0 119.2,289.2 119.4,289.2 119.6,287.9 119.8,288.4 120.0,286.4 120.2,284.2 120.4,283.9 120.6,283.9 120.8,282.6 121.1,283.9 121.3,284.7 121.5,282.1 121.7,281.8 121.9,281.1 122.1,283.0 122.3,283.7 122.5,282.7 122.7,283.1 123.0,284.2 123.2,284.5 123.4,286.1 123.6,284.5 123.8,283.5 124.0,285.6 124.2,284.9 124.4,284.5 124.6,283.7 124.9,282.9 125.1,283.7 125.3,284.7 125.5,283.5 125.7,282.8 125.9,283.8 126.1,283.4 126.3,284.1 126.5,283.7 126.8,283.8 127.0,280.8 127.2,281.4 127.4,281.2 127.6,278.3 127.8,278.5 128.0,276.8 128.2,275.9 128.4,276.4 128.7,276.4 128.9,274.7 129.1,274.2 129.3,273.0 129.5,276.0 129.7,276.0 129.9,276.1 130.1,276.5 130.3,275.3 130.6,276.1 130.8,275.3 131.0,275.7 131.2,277.1 131.4,276.6 131.6,280.0 131.8,279.8 132.0,280.1 132.2,278.5 132.5,279.1 132.7,281.1 132.9,279.6 133.1,280.6 133.3,279.8 133.5,280.6 133.7,280.8 133.9,282.5 134.1,282.9 134.4,285.0 134.6,286.9 134.8,285.2 135.0,285.3 135.2,284.0 135.4,282.2 135.6,285.8 135.8,284.7 136.0,285.1 136.3,284.7 136.5,282.9 136.7,281.6 136.9,281.4 137.1,279.7 137.3,280.1 137.5,279.4 137.7,278.1 137.9,278.6 138.1,277.3 138.4,278.8 138.6,279.2 138.8,279.4 139.0,279.4 139.2,279.1 139.4,279.1 139.6,280.6 139.8,277.8 140.0,277.6 140.3,277.0 140.5,278.1 140.7,277.7 140.9,277.5 141.1,277.7 141.3,278.3 141.5,278.5 141.7,277.1 141.9,275.1 142.2,275.1 142.4,274.1 142.6,274.5 142.8,278.3 143.0,277.7 143.2,278.0 143.4,277.7 143.6,278.9 143.8,278.2 144.1,276.9 144.3,274.7 144.5,274.4 144.7,276.7 144.9,279.6 145.1,282.5 145.3,279.6 145.5,285.8 145.7,287.6 146.0,286.9 146.2,284.8 146.4,284.3 146.6,283.5 146.8,281.8 147.0,280.7 147.2,280.5 147.4,282.0 147.6,282.4 147.9,279.1 148.1,278.2 148.3,277.0 148.5,277.8 148.7,278.6 148.9,278.3 149.1,279.1 149.3,275.7 149.5,276.8 149.8,276.6 150.0,276.4 150.2,276.7 150.4,275.5 150.6,275.9 150.8,275.4 151.0,273.4 151.2,274.4 151.4,274.8 151.7,274.2 151.9,273.7 152.1,273.6 152.3,273.5 152.5,273.5 152.7,273.0 152.9,273.3 153.1,272.9 153.3,272.6 153.6,271.4 153.8,271.7 154.0,273.9 154.2,273.6 154.4,273.2 154.6,274.2 154.8,273.3 155.0,273.6 155.2,273.1 155.5,272.6 155.7,273.2 155.9,274.8 156.1,274.0 156.3,274.3 156.5,271.9 156.7,269.3 156.9,268.9 157.1,269.5 157.4,268.7 157.6,266.7 157.8,266.6 158.0,267.9 158.2,270.7 158.4,271.8 158.6,270.5 158.8,271.9 159.0,272.1 159.3,274.5 159.5,274.2 159.7,274.4 159.9,272.0 160.1,273.6 160.3,273.5 160.5,272.8 160.7,273.4 160.9,275.0 161.2,274.0 161.4,274.6 161.6,274.0 161.8,276.5 162.0,276.2 162.2,274.8 162.4,275.7 162.6,277.0 162.8,276.3 163.1,275.6 163.3,274.8 163.5,275.6 163.7,274.3 163.9,273.2 164.1,273.7 164.3,273.0 164.5,271.4 164.7,271.8 165.0,271.9 165.2,271.5 165.4,270.4 165.6,270.6 165.8,270.7 166.0,270.9 166.2,271.4 166.4,271.7 166.6,271.0 166.9,271.0 167.1,270.3 167.3,270.9 167.5,268.6 167.7,268.2 167.9,267.2 168.1,267.1 168.3,267.0 168.5,266.0 168.8,264.3 169.0,264.6 169.2,265.2 169.4,265.8 169.6,267.6 169.8,265.2 170.0,266.9 170.2,265.0 170.4,266.1 170.7,267.3 170.9,268.2 171.1,269.1 171.3,265.8 171.5,267.2 171.7,269.1 171.9,266.4 172.1,269.0 172.3,271.9 172.6,274.2 172.8,273.4 173.0,272.5 173.2,275.5 173.4,274.7 173.6,272.9 173.8,269.7 174.0,268.7 174.2,264.5 174.5,263.3 174.7,263.0 174.9,262.3 175.1,263.8 175.3,261.9 175.5,258.5 175.7,258.8 175.9,259.7 176.1,259.9 176.4,259.6 176.6,261.4 176.8,258.0 177.0,257.9 177.2,258.1 177.4,258.3 177.6,257.7 177.8,256.2 178.0,254.8 178.2,255.6 178.5,256.0 178.7,253.0 178.9,252.4 179.1,252.0 179.3,251.1 179.5,250.4 179.7,250.6 179.9,250.3 180.1,251.4 180.4,249.9 180.6,249.8 180.8,250.1 181.0,250.5 181.2,252.6 181.4,253.4 181.6,255.9 181.8,255.4 182.0,255.9 182.3,254.1 182.5,252.2 182.7,252.5 182.9,253.5 183.1,257.2 183.3,254.6 183.5,253.5 183.7,253.3 183.9,254.4 184.2,255.7 184.4,255.0 184.6,256.8 184.8,257.2 185.0,253.6 185.2,252.6 185.4,255.2 185.6,255.2 185.8,258.6 186.1,258.2 186.3,259.4 186.5,256.9 186.7,258.5 186.9,259.6 187.1,259.2 187.3,260.0 187.5,259.4 187.7,259.0 188.0,260.9 188.2,259.0 188.4,263.2 188.6,262.7 188.8,261.2 189.0,268.7 189.2,266.9 189.4,268.7 189.6,271.1 189.9,268.7 190.1,269.0 190.3,268.5 190.5,266.8 190.7,265.8 190.9,264.9 191.1,265.3 191.3,261.7 191.5,262.9 191.8,262.4 192.0,262.8 192.2,262.9 192.4,263.0 192.6,263.0 192.8,264.3 193.0,263.3 193.2,268.8 193.4,270.8 193.7,271.0 193.9,270.5 194.1,269.2 194.3,266.9 194.5,266.9 194.7,265.1 194.9,264.2 195.1,263.9 195.3,261.9 195.6,263.1 195.8,263.0 196.0,264.3 196.2,266.6 196.4,268.1 196.6,267.5 196.8,266.5 197.0,266.0 197.2,268.4 197.5,268.5 197.7,267.5 197.9,266.2 198.1,265.6 198.3,263.3 198.5,260.7 198.7,261.9 198.9,261.1 199.1,260.6 199.4,259.8 199.6,260.3 199.8,258.4 200.0,258.3 200.2,257.0 200.4,257.4 200.6,254.8 200.8,256.3 201.0,254.2 201.3,255.4 201.5,256.8 201.7,257.3 201.9,256.7 202.1,257.9 202.3,257.8 202.5,256.7 202.7,255.9 202.9,256.0 203.2,256.6 203.4,255.9 203.6,254.9 203.8,254.9 204.0,255.4 204.2,255.2 204.4,255.0 204.6,255.4 204.8,255.6 205.1,254.7 205.3,252.9 205.5,252.8 205.7,254.0 205.9,253.6 206.1,254.0 206.3,253.4 206.5,252.9 206.7,252.9 207.0,252.4 207.2,252.5 207.4,251.7 207.6,252.0 207.8,253.4 208.0,253.6 208.2,253.8 208.4,252.4 208.6,250.7 208.9,250.1 209.1,249.2 209.3,249.3 209.5,250.4 209.7,249.6 209.9,248.8 210.1,253.2 210.3,253.2 210.5,251.4 210.8,251.8 211.0,251.8 211.2,251.3 211.4,252.5 211.6,252.1 211.8,250.4 212.0,249.9 212.2,249.6 212.4,249.7 212.7,249.4 212.9,249.4 213.1,248.3 213.3,248.6 213.5,248.6 213.7,248.7 213.9,252.0 214.1,250.2 214.3,247.7 214.6,248.3 214.8,249.2 215.0,249.4 215.2,249.7 215.4,249.4 215.6,249.0 215.8,250.4 216.0,251.2 216.2,250.4 216.5,251.7 216.7,251.0 216.9,251.3 217.1,251.2 217.3,250.2 217.5,250.9 217.7,251.3 217.9,252.8 218.1,255.0 218.3,258.5 218.6,262.6 218.8,259.0 219.0,257.0 219.2,257.8 219.4,260.1 219.6,263.0 219.8,262.2 220.0,261.3 220.2,264.1 220.5,262.9 220.7,264.9 220.9,264.4 221.1,264.8 221.3,265.4 221.5,265.0 221.7,264.5 221.9,264.0 222.1,261.9 222.4,264.7 222.6,267.3 222.8,267.8 223.0,269.2 223.2,270.6 223.4,276.2 223.6,275.7 223.8,272.9 224.0,271.6 224.3,270.5 224.5,269.1 224.7,271.7 224.9,270.8 225.1,270.1 225.3,270.8 225.5,270.6 225.7,273.9 225.9,273.7 226.2,270.0 226.4,269.3 226.6,269.9 226.8,272.2 227.0,273.9 227.2,284.0 227.4,280.1 227.6,277.3 227.8,276.1 228.1,274.9 228.3,273.4 228.5,264.4 228.7,258.6 228.9,260.0 229.1,258.0 229.3,259.5 229.5,257.5 229.7,258.9 230.0,260.2 230.2,262.4 230.4,263.4 230.6,264.0 230.8,263.7 231.0,263.2 231.2,262.2 231.4,262.9 231.6,262.0 231.9,262.0 232.1,262.0 232.3,263.3 232.5,263.7 232.7,266.7 232.9,265.3 233.1,267.4 233.3,270.0 233.5,268.2 233.8,269.7 234.0,269.1 234.2,270.1 234.4,270.6 234.6,273.5 234.8,271.1 235.0,269.5 235.2,267.5 235.4,269.6 235.7,270.6 235.9,269.9 236.1,267.6 236.3,266.0 236.5,266.2 236.7,265.7 236.9,264.6 237.1,264.1 237.3,264.9 237.6,267.5 237.8,267.9 238.0,267.9 238.2,268.2 238.4,270.8 238.6,273.8 238.8,272.1 239.0,278.6 239.2,272.6 239.5,268.0 239.7,271.9 239.9,268.3 240.1,266.3 240.3,265.6 240.5,265.9 240.7,266.5 240.9,268.4 241.1,270.4 241.4,272.0 241.6,272.9 241.8,273.7 242.0,268.8 242.2,268.9 242.4,275.1 242.6,275.5 242.8,274.5 243.0,275.8 243.3,276.8 243.5,276.1 243.7,274.4 243.9,271.8 244.1,272.6 244.3,273.1 244.5,271.4 244.7,271.7 244.9,272.1 245.2,269.9 245.4,270.2 245.6,272.5 245.8,269.6 246.0,270.7 246.2,270.3 246.4,269.9 246.6,269.5 246.8,271.3 247.1,269.5 247.3,269.8 247.5,267.3 247.7,268.2 247.9,270.8 248.1,269.7 248.3,271.3 248.5,269.2 248.7,270.2 249.0,267.7 249.2,269.6 249.4,270.0 249.6,270.0 249.8,268.5 250.0,268.5 250.2,268.3 250.4,267.8 250.6,265.0 250.9,266.0 251.1,263.9 251.3,264.8 251.5,266.2 251.7,266.1 251.9,263.9 252.1,265.2 252.3,264.9 252.5,264.5 252.8,263.9 253.0,263.5 253.2,263.0 253.4,261.6 253.6,261.6 253.8,262.3 254.0,262.3 254.2,262.7 254.4,261.9 254.7,262.2 254.9,261.5 255.1,261.0 255.3,261.5 255.5,260.2 255.7,259.9 255.9,258.2 256.1,258.1 256.3,259.6 256.6,260.0 256.8,260.7 257.0,260.0 257.2,263.4 257.4,263.0 257.6,264.9 257.8,264.2 258.0,264.8 258.2,262.7 258.4,261.9 258.7,260.8 258.9,259.6 259.1,259.3 259.3,259.4 259.5,256.2 259.7,256.3 259.9,259.5 260.1,259.0 260.3,261.1 260.6,262.6 260.8,262.2 261.0,263.9 261.2,263.9 261.4,263.1 261.6,262.4 261.8,263.7 262.0,263.6 262.2,263.8 262.5,263.1 262.7,261.7 262.9,264.0 263.1,265.8 263.3,263.8 263.5,261.0 263.7,260.8 263.9,259.6 264.1,260.8 264.4,258.6 264.6,258.6 264.8,257.5 265.0,257.2 265.2,255.6 265.4,256.6 265.6,258.3 265.8,258.7 266.0,258.4 266.3,258.7 266.5,258.6 266.7,257.9 266.9,258.0 267.1,257.3 267.3,257.1 267.5,256.4 267.7,256.7 267.9,254.5 268.2,253.5 268.4,253.8 268.6,254.1 268.8,254.7 269.0,254.1 269.2,254.4 269.4,253.8 269.6,254.2 269.8,253.5 270.1,253.2 270.3,252.9 270.5,253.8 270.7,253.7 270.9,253.8 271.1,253.3 271.3,253.4 271.5,254.6 271.7,256.2 272.0,256.7 272.2,256.8 272.4,257.0 272.6,257.5 272.8,257.6 273.0,257.7 273.2,257.6 273.4,256.8 273.6,256.3 273.9,257.6 274.1,258.7 274.3,257.6 274.5,258.7 274.7,258.7 274.9,258.7 275.1,258.8 275.3,259.3 275.5,258.8 275.8,257.6 276.0,256.2 276.2,256.3 276.4,257.6 276.6,256.9 276.8,257.4 277.0,259.5 277.2,259.1 277.4,258.9 277.7,259.2 277.9,258.6 278.1,259.4 278.3,259.3 278.5,258.7 278.7,260.1 278.9,261.9 279.1,262.0 279.3,263.5 279.6,263.5 279.8,261.4 280.0,261.5 280.2,261.1 280.4,262.2 280.6,262.0 280.8,261.4 281.0,262.2 281.2,261.5 281.5,267.6 281.7,270.6 281.9,269.4 282.1,268.9 282.3,270.4 282.5,270.1 282.7,265.5 282.9,265.6 283.1,259.7 283.4,257.7 283.6,259.0 283.8,259.2 284.0,259.4 284.2,261.4 284.4,261.1 284.6,262.9 284.8,263.1 285.0,265.4 285.3,263.5 285.5,263.0 285.7,264.6 285.9,261.3 286.1,262.5 286.3,265.1 286.5,264.6 286.7,262.4 286.9,261.3 287.2,263.8 287.4,262.4 287.6,261.4 287.8,260.6 288.0,260.7 288.2,261.2 288.4,260.7 288.6,260.4 288.8,260.4 289.1,260.4 289.3,261.5 289.5,261.2 289.7,260.2 289.9,259.9 290.1,260.3 290.3,259.6 290.5,259.8 290.7,260.1 291.0,258.8 291.2,258.1 291.4,258.0 291.6,257.4 291.8,257.6 292.0,262.0 292.2,261.8 292.4,260.7 292.6,260.9 292.9,261.2 293.1,261.6 293.3,262.0 293.5,262.3 293.7,262.8 293.9,261.6 294.1,261.8 294.3,263.7 294.5,263.1 294.8,262.0 295.0,262.4 295.2,262.4 295.4,262.7 295.6,262.7 295.8,262.9 296.0,262.9 296.2,262.5 296.4,263.1 296.7,263.0 296.9,262.5 297.1,261.2 297.3,261.5 297.5,261.0 297.7,260.9 297.9,261.7 298.1,260.8 298.3,260.6 298.5,260.4 298.8,260.9 299.0,259.4 299.2,258.8 299.4,258.7 299.6,258.4 299.8,258.2 300.0,257.5 300.2,257.0 300.4,255.0 300.7,255.1 300.9,255.3 301.1,254.1 301.3,255.0 301.5,255.3 301.7,255.1 301.9,255.8 302.1,255.5 302.3,255.4 302.6,255.4 302.8,254.7 303.0,254.9 303.2,255.2 303.4,255.6 303.6,256.1 303.8,256.2 304.0,256.1 304.2,256.3 304.5,256.2 304.7,255.5 304.9,256.3 305.1,257.5 305.3,257.2 305.5,257.5 305.7,257.3 305.9,258.2 306.1,258.5 306.4,258.0 306.6,258.0 306.8,256.8 307.0,256.1 307.2,256.2 307.4,254.8 307.6,254.9 307.8,254.2 308.0,254.0 308.3,253.8 308.5,253.1 308.7,253.5 308.9,254.6 309.1,254.6 309.3,254.9 309.5,255.9 309.7,254.8 309.9,253.9 310.2,253.7 310.4,255.8 310.6,255.4 310.8,255.5 311.0,255.7 311.2,255.1 311.4,255.0 311.6,254.4 311.8,254.8 312.1,254.8 312.3,254.8 312.5,253.9 312.7,253.1 312.9,252.7 313.1,252.2 313.3,251.0 313.5,251.0 313.7,249.8 314.0,250.0 314.2,249.8 314.4,248.7 314.6,248.6 314.8,248.0 315.0,247.6 315.2,247.8 315.4,247.6 315.6,245.2 315.9,245.9 316.1,245.8 316.3,246.2 316.5,245.6 316.7,246.1 316.9,246.1 317.1,246.2 317.3,246.1 317.5,247.1 317.8,246.7 318.0,247.0 318.2,246.9 318.4,246.9 318.6,245.9 318.8,245.3 319.0,245.8 319.2,246.4 319.4,245.7 319.7,244.2 319.9,243.4 320.1,244.3 320.3,246.1 320.5,246.0 320.7,247.1 320.9,248.8 321.1,249.5 321.3,248.9 321.6,248.4 321.8,248.1 322.0,248.1 322.2,247.8 322.4,247.4 322.6,246.7 322.8,248.8 323.0,248.5 323.2,248.3 323.5,248.9 323.7,248.8 323.9,249.6 324.1,249.4 324.3,248.4 324.5,247.1 324.7,247.4 324.9,246.6 325.1,246.1 325.4,245.0 325.6,244.3 325.8,244.3 326.0,242.6 326.2,242.4 326.4,242.6 326.6,240.4 326.8,234.9 327.0,230.9 327.3,229.1 327.5,228.3 327.7,227.5 327.9,226.7 328.1,228.7 328.3,230.9 328.5,229.8 328.7,228.6 328.9,228.6 329.2,228.6 329.4,229.5 329.6,230.9 329.8,231.5 330.0,227.0 330.2,227.1 330.4,225.5 330.6,226.2 330.8,226.0 331.1,225.7 331.3,225.4 331.5,225.1 331.7,224.7 331.9,223.5 332.1,224.5 332.3,225.2 332.5,224.8 332.7,223.7 333.0,219.9 333.2,219.4 333.4,219.8 333.6,221.4 333.8,224.2 334.0,224.1 334.2,226.4 334.4,223.9 334.6,224.9 334.9,225.7 335.1,223.4 335.3,224.9 335.5,223.6 335.7,222.9 335.9,221.9 336.1,220.2 336.3,220.0 336.5,220.5 336.8,220.8 337.0,221.1 337.2,222.1 337.4,221.4 337.6,222.3 337.8,222.3 338.0,221.2 338.2,221.4 338.4,221.2 338.6,220.5 338.9,220.5 339.1,220.1 339.3,219.0 339.5,219.6 339.7,220.7 339.9,220.5 340.1,221.5 340.3,221.6 340.5,219.9 340.8,219.4 341.0,219.6 341.2,218.6 341.4,219.6 341.6,218.5 341.8,217.8 342.0,218.1 342.2,218.5 342.4,218.1 342.7,217.8 342.9,218.2 343.1,217.9 343.3,218.2 343.5,219.2 343.7,217.6 343.9,216.1 344.1,216.7 344.3,215.1 344.6,216.6 344.8,215.9 345.0,216.4 345.2,216.8 345.4,215.8 345.6,213.8 345.8,212.1 346.0,212.6 346.2,211.9 346.5,210.2 346.7,211.2 346.9,211.1 347.1,208.7 347.3,196.6 347.5,197.3 347.7,202.3 347.9,205.3 348.1,202.0 348.4,202.9 348.6,207.6 348.8,206.2 349.0,204.2 349.2,208.5 349.4,206.1 349.6,205.6 349.8,205.6 350.0,204.6 350.3,203.1 350.5,200.2 350.7,200.7 350.9,200.7 351.1,201.0 351.3,200.1 351.5,197.9 351.7,200.4 351.9,202.4 352.2,204.0 352.4,203.0 352.6,202.5 352.8,203.4 353.0,203.3 353.2,201.4 353.4,199.6 353.6,200.4 353.8,199.3 354.1,199.9 354.3,203.1 354.5,204.1 354.7,205.5 354.9,205.0 355.1,205.1 355.3,217.9 355.5,218.5 355.7,220.6 356.0,223.9 356.2,221.6 356.4,221.2 356.6,224.4 356.8,225.3 357.0,222.9 357.2,223.7 357.4,226.1 357.6,225.4 357.9,222.2 358.1,222.2 358.3,223.7 358.5,224.0 358.7,223.3 358.9,222.3 359.1,221.5 359.3,222.9 359.5,223.3 359.8,222.7 360.0,224.5 360.2,224.0 360.4,218.5 360.6,217.3 360.8,219.4 361.0,214.2 361.2,215.7 361.4,215.8 361.7,215.9 361.9,216.4 362.1,216.7 362.3,215.0 362.5,213.5 362.7,212.3 362.9,210.8 363.1,212.3 363.3,211.5 363.6,211.3 363.8,210.7 364.0,210.5 364.2,210.5 364.4,211.0 364.6,213.2 364.8,215.1 365.0,216.6 365.2,213.3 365.5,217.1 365.7,217.9 365.9,216.9 366.1,216.8 366.3,216.1 366.5,216.7 366.7,215.7 366.9,216.3 367.1,217.1 367.4,218.4 367.6,217.3 367.8,216.5 368.0,217.5 368.2,218.0 368.4,217.7 368.6,220.3 368.8,222.4 369.0,222.8 369.3,223.7 369.5,224.4 369.7,223.4 369.9,223.2 370.1,222.8 370.3,222.3 370.5,221.4 370.7,219.0 370.9,218.9 371.2,217.2 371.4,220.9 371.6,220.3 371.8,219.3 372.0,219.7 372.2,220.5 372.4,221.5 372.6,226.0 372.8,227.1 373.1,226.5 373.3,224.3 373.5,222.7 373.7,221.9 373.9,225.3 374.1,224.4 374.3,223.6 374.5,222.0 374.7,220.8 375.0,219.4 375.2,218.9 375.4,221.8 375.6,222.1 375.8,220.4 376.0,220.1 376.2,219.1 376.4,220.0 376.6,218.5 376.9,217.8 377.1,217.2 377.3,218.3 377.5,218.2 377.7,218.3 377.9,218.8 378.1,218.5 378.3,218.0 378.5,218.7 378.7,218.4 379.0,219.1 379.2,219.9 379.4,221.3 379.6,220.7 379.8,222.1 380.0,221.7 380.2,222.0 380.4,222.7 380.6,222.6 380.9,219.6 381.1,220.2 381.3,220.5 381.5,223.3 381.7,224.9 381.9,223.2 382.1,223.6 382.3,222.4 382.5,222.1 382.8,221.7 383.0,221.7 383.2,221.3 383.4,220.9 383.6,221.6 383.8,219.9 384.0,222.0 384.2,221.5 384.4,221.1 384.7,221.3 384.9,222.8 385.1,225.2 385.3,225.2 385.5,226.8 385.7,224.0 385.9,223.6 386.1,226.0 386.3,228.0 386.6,232.1 386.8,233.5 387.0,237.6 387.2,234.9 387.4,236.0 387.6,235.3 387.8,235.1 388.0,239.5 388.2,236.7 388.5,237.4 388.7,233.9 388.9,232.7 389.1,229.1 389.3,228.3 389.5,227.2 389.7,226.2 389.9,227.8 390.1,227.7 390.4,225.8 390.6,224.3 390.8,226.5 391.0,227.9 391.2,230.0 391.4,230.6 391.6,229.9 391.8,228.4 392.0,227.0 392.3,226.0 392.5,221.6 392.7,222.2 392.9,225.4 393.1,225.6 393.3,229.1 393.5,228.4 393.7,227.8 393.9,227.4 394.2,228.3 394.4,230.6 394.6,231.3 394.8,232.8 395.0,232.9 395.2,230.8 395.4,231.3 395.6,232.2 395.8,226.9 396.1,226.0 396.3,224.8 396.5,223.7 396.7,226.7 396.9,229.8 397.1,226.9 397.3,225.5 397.5,225.1 397.7,228.2 398.0,227.8 398.2,227.7 398.4,231.5 398.6,230.7 398.8,230.7 399.0,228.9 399.2,226.4 399.4,227.3 399.6,227.5 399.9,230.3 400.1,236.3 400.3,240.3 400.5,239.9 400.7,238.0 400.9,236.6 401.1,236.3 401.3,238.6 401.5,237.3 401.8,238.0 402.0,237.9 402.2,237.3 402.4,237.2 402.6,237.0 402.8,236.0 403.0,236.3 403.2,235.9 403.4,236.3 403.7,236.9 403.9,238.4 404.1,236.9 404.3,236.6 404.5,236.3 404.7,237.6 404.9,237.8 405.1,236.8 405.3,237.5 405.6,238.2 405.8,239.2 406.0,239.0 406.2,239.8 406.4,239.2 406.6,238.4 406.8,238.2 407.0,237.0 407.2,235.4 407.5,236.2 407.7,236.0 407.9,236.4 408.1,235.5 408.3,237.2 408.5,237.5 408.7,236.0 408.9,237.0 409.1,237.0 409.4,236.2 409.6,236.0 409.8,233.4 410.0,233.4 410.2,233.7 410.4,233.0 410.6,232.4 410.8,233.8 411.0,233.5 411.3,234.9 411.5,236.0 411.7,235.7 411.9,236.7 412.1,239.3 412.3,239.8 412.5,239.1 412.7,238.5 412.9,238.5 413.2,237.7 413.4,237.3 413.6,236.6 413.8,237.6 414.0,238.2 414.2,238.7 414.4,238.4 414.6,237.8 414.8,239.3 415.1,239.3 415.3,239.4 415.5,239.9 415.7,240.6 415.9,238.7 416.1,238.3 416.3,237.5 416.5,237.5 416.7,237.1 417.0,235.9 417.2,235.1 417.4,235.6 417.6,236.8 417.8,239.2 418.0,239.2 418.2,239.7 418.4,240.8 418.6,242.1 418.8,240.8 419.1,240.4 419.3,240.4 419.5,240.0 419.7,240.5 419.9,239.1 420.1,238.6 420.3,238.1 420.5,238.4 420.7,238.5 421.0,239.0 421.2,239.7 421.4,238.9 421.6,238.3 421.8,238.7 422.0,255.3 422.2,252.1 422.4,249.4 422.6,245.8 422.9,244.9 423.1,243.9 423.3,243.0 423.5,245.5 423.7,247.8 423.9,247.7 424.1,247.2 424.3,247.7 424.5,249.0 424.8,249.0 425.0,250.5 425.2,251.6 425.4,251.7 425.6,251.3 425.8,252.1 426.0,252.4 426.2,252.8 426.4,253.9 426.7,252.4 426.9,253.2 427.1,253.2 427.3,254.0 427.5,255.1 427.7,255.8 427.9,256.0 428.1,256.6 428.3,257.1 428.6,255.6 428.8,255.5 429.0,257.0 429.2,256.3 429.4,258.5 429.6,259.2 429.8,257.1 430.0,254.1 430.2,254.3 430.5,252.7 430.7,252.7 430.9,254.9 431.1,254.2 431.3,255.3 431.5,254.8 431.7,254.5 431.9,255.2 432.1,255.7 432.4,254.3 432.6,253.4 432.8,252.6 433.0,253.9 433.2,251.8 433.4,250.0 433.6,248.3 433.8,248.7 434.0,248.6 434.3,247.3 434.5,247.7 434.7,247.2 434.9,246.2 435.1,245.5 435.3,245.5 435.5,246.6 435.7,244.1 435.9,243.1 436.2,242.0 436.4,245.2 436.6,246.6 436.8,244.4 437.0,243.4 437.2,243.8 437.4,244.8 437.6,245.1 437.8,243.6 438.1,244.6 438.3,244.5 438.5,243.6 438.7,243.2 438.9,242.8 439.1,241.1 439.3,240.1 439.5,239.4 439.7,239.6 440.0,240.7 440.2,241.0 440.4,238.9 440.6,238.7 440.8,237.3 441.0,237.4 441.2,234.9 441.4,233.5 441.6,234.8 441.9,234.5 442.1,234.6 442.3,231.0 442.5,230.5 442.7,229.7 442.9,229.4 443.1,228.4 443.3,227.4 443.5,227.2 443.8,226.9 444.0,228.9 444.2,229.6 444.4,230.1 444.6,228.3 444.8,228.3 445.0,227.7 445.2,228.3 445.4,229.1 445.7,230.2 445.9,228.9 446.1,229.4 446.3,229.1 446.5,229.7 446.7,229.6 446.9,229.4 447.1,227.2 447.3,228.2 447.6,226.5 447.8,225.8 448.0,226.6 448.2,227.2 448.4,226.7 448.6,225.7 448.8,226.1 449.0,226.1 449.2,226.8 449.5,227.5 449.7,227.4 449.9,226.4 450.1,227.3 450.3,226.5 450.5,227.1 450.7,226.4 450.9,225.7 451.1,226.9 451.4,227.5 451.6,227.8 451.8,226.7 452.0,226.7 452.2,228.0 452.4,228.0 452.6,228.9 452.8,231.0 453.0,232.9 453.3,232.3 453.5,232.6 453.7,233.2 453.9,234.9 454.1,235.7 454.3,234.3 454.5,232.0 454.7,229.5 454.9,228.9 455.2,223.6 455.4,221.1 455.6,219.9 455.8,218.2 456.0,220.5 456.2,221.8 456.4,222.3 456.6,221.7 456.8,221.6 457.0,220.9 457.3,222.7 457.5,226.8 457.7,227.6 457.9,230.8 458.1,230.5 458.3,227.3 458.5,228.5 458.7,224.1 458.9,225.3 459.2,227.2 459.4,231.0 459.6,228.5 459.8,231.4 460.0,238.5 460.2,230.8 460.4,243.8 460.6,245.4 460.8,248.0 461.1,248.0 461.3,251.0 461.5,257.0 461.7,252.8 461.9,252.2 462.1,244.4 462.3,245.9 462.5,242.6 462.7,241.5 463.0,244.9 463.2,242.8 463.4,245.0 463.6,242.0 463.8,242.4 464.0,238.6 464.2,237.2 464.4,236.6 464.6,234.5 464.9,234.8 465.1,234.8 465.3,233.0 465.5,232.4 465.7,236.5 465.9,235.2 466.1,234.6 466.3,232.8 466.5,231.6 466.8,233.7 467.0,232.6 467.2,234.4 467.4,233.7 467.6,234.8 467.8,230.8 468.0,230.8 468.2,232.1 468.4,232.4 468.7,228.1 468.9,225.4 469.1,227.1 469.3,226.0 469.5,225.2 469.7,224.4 469.9,224.7 470.1,224.7 470.3,222.8 470.6,223.8 470.8,225.2 471.0,225.9 471.2,225.9 471.4,223.2 471.6,225.2 471.8,224.8 472.0,225.0 472.2,222.8 472.5,222.0 472.7,221.3 472.9,219.7 473.1,219.0 473.3,223.6 473.5,223.4 473.7,222.8 473.9,219.8 474.1,220.2 474.4,219.7 474.6,219.2 474.8,218.7 475.0,218.6 475.2,220.7 475.4,218.9 475.6,219.8 475.8,219.5 476.0,217.8 476.3,216.9 476.5,217.1 476.7,217.0 476.9,216.7 477.1,216.8 477.3,218.0 477.5,219.1 477.7,218.1 477.9,217.2 478.2,215.6 478.4,216.2 478.6,215.3 478.8,216.5 479.0,218.5 479.2,218.3 479.4,217.9 479.6,218.8 479.8,218.8 480.1,219.2 480.3,218.9 480.5,219.9 480.7,221.0 480.9,220.0 481.1,221.6 481.3,222.6 481.5,223.3 481.7,222.9 482.0,223.5 482.2,223.2 482.4,220.4 482.6,221.2 482.8,220.8 483.0,219.6 483.2,220.2 483.4,219.8 483.6,220.7 483.9,221.0 484.1,221.4 484.3,221.8 484.5,221.5 484.7,221.6 484.9,221.7 485.1,220.1 485.3,223.6 485.5,221.9 485.8,224.0 486.0,224.0 486.2,225.7 486.4,224.2 486.6,226.3 486.8,226.2 487.0,225.4 487.2,225.0 487.4,226.1 487.7,226.3 487.9,225.8 488.1,226.9 488.3,227.4 488.5,228.9 488.7,230.3 488.9,229.9 489.1,228.8 489.3,229.2 489.6,228.5 489.8,228.9 490.0,230.0 490.2,228.1 490.4,230.3 490.6,229.0 490.8,228.7 491.0,228.3 491.2,227.7 491.5,228.2 491.7,230.1 491.9,231.0 492.1,229.9 492.3,232.0 492.5,232.1 492.7,233.6 492.9,232.0 493.1,232.0 493.4,232.4 493.6,233.8 493.8,236.3 494.0,236.1 494.2,231.1 494.4,227.8 494.6,228.1 494.8,221.4 495.0,222.2 495.3,223.0 495.5,220.8 495.7,217.2 495.9,217.8 496.1,218.4 496.3,217.0 496.5,217.6 496.7,216.8 496.9,217.3 497.1,216.4 497.4,215.3 497.6,214.1 497.8,212.5 498.0,212.3 498.2,211.6 498.4,211.9 498.6,212.4 498.8,211.5 499.0,211.8 499.3,209.5 499.5,210.8 499.7,209.2 499.9,208.3 500.1,209.4 500.3,210.4 500.5,212.3 500.7,213.5 500.9,211.9 501.2,211.6 501.4,212.0 501.6,212.7 501.8,213.5 502.0,213.1 502.2,213.1 502.4,212.9 502.6,211.8 502.8,211.3 503.1,209.6 503.3,211.2 503.5,210.2 503.7,211.0 503.9,210.0 504.1,209.5 504.3,208.0 504.5,207.4 504.7,205.1 505.0,205.8 505.2,206.8 505.4,205.4 505.6,205.0 505.8,206.1 506.0,206.5 506.2,206.8 506.4,208.2 506.6,213.5 506.9,212.2 507.1,213.8 507.3,214.0 507.5,212.9 507.7,209.8 507.9,208.5 508.1,208.3 508.3,209.9 508.5,211.2 508.8,212.4 509.0,212.7 509.2,212.0 509.4,212.3 509.6,210.4 509.8,210.6 510.0,211.5 510.2,209.7 510.4,210.4 510.7,208.3 510.9,209.5 511.1,209.1 511.3,208.6 511.5,209.0 511.7,210.0 511.9,211.0 512.1,210.0 512.3,210.6 512.6,210.0 512.8,208.9 513.0,209.0 513.2,208.7 513.4,207.0 513.6,206.5 513.8,211.5 514.0,212.6 514.2,213.0 514.5,210.7 514.7,211.7 514.9,213.3 515.1,212.5 515.3,210.7 515.5,210.0 515.7,210.0 515.9,208.7 516.1,208.5 516.4,210.5 516.6,211.2 516.8,211.4 517.0,210.6 517.2,209.3 517.4,208.7 517.6,208.7 517.8,210.7 518.0,209.9 518.3,209.0 518.5,208.4 518.7,208.0 518.9,206.5 519.1,207.2 519.3,206.0 519.5,206.0 519.7,206.0 519.9,205.6 520.2,206.4 520.4,205.9 520.6,203.3 520.8,203.9 521.0,202.4 521.2,202.2 521.4,202.4 521.6,202.1 521.8,203.1 522.1,203.1 522.3,201.8 522.5,201.9 522.7,201.5 522.9,201.3 523.1,202.4 523.3,201.4 523.5,202.1 523.7,202.3 524.0,203.4 524.2,203.3 524.4,205.3 524.6,204.5 524.8,205.3 525.0,206.0 525.2,205.3 525.4,205.2 525.6,204.7 525.9,205.2 526.1,203.9 526.3,202.1 526.5,202.7 526.7,202.7 526.9,202.4 527.1,202.6 527.3,203.1 527.5,204.6 527.8,203.3 528.0,203.3 528.2,203.9 528.4,203.3 528.6,204.7 528.8,204.7 529.0,205.3 529.2,205.0 529.4,203.7 529.7,202.9 529.9,202.5 530.1,201.6 530.3,202.0 530.5,201.8 530.7,200.9 530.9,200.7 531.1,201.2 531.3,201.3 531.6,201.0 531.8,202.7 532.0,202.2 532.2,201.5 532.4,201.0 532.6,200.5 532.8,200.8 533.0,200.7 533.2,200.2 533.5,200.0 533.7,202.0 533.9,202.7 534.1,202.0 534.3,203.0 534.5,203.0 534.7,203.5 534.9,203.8 535.1,203.2 535.4,204.1 535.6,202.5 535.8,201.9 536.0,200.3 536.2,199.3 536.4,201.2 536.6,200.7 536.8,200.0 537.0,199.6 537.2,199.3 537.5,198.8 537.7,198.8 537.9,199.4 538.1,198.6 538.3,198.5 538.5,205.3 538.7,205.5 538.9,205.8 539.1,208.0 539.4,206.9 539.6,209.5 539.8,210.1 540.0,209.4 540.2,210.2 540.4,209.1 540.6,208.8 540.8,209.1 541.0,210.3 541.3,209.6 541.5,210.3 541.7,209.5 541.9,209.7 542.1,209.2 542.3,209.5 542.5,208.2 542.7,209.0 542.9,208.0 543.2,208.3 543.4,207.6 543.6,207.8 543.8,206.5 544.0,206.2 544.2,206.9 544.4,208.4 544.6,208.5 544.8,208.1 545.1,207.8 545.3,209.4 545.5,209.4 545.7,208.6 545.9,208.3 546.1,207.9 546.3,208.5 546.5,207.6 546.7,208.6 547.0,207.5 547.2,203.3 547.4,203.2 547.6,201.8 547.8,201.0 548.0,201.4 548.2,201.3 548.4,202.2 548.6,202.6 548.9,201.6 549.1,201.7 549.3,201.5 549.5,201.6 549.7,201.9 549.9,201.2 550.1,201.4 550.3,202.1 550.5,202.5 550.8,200.0 551.0,200.1 551.2,201.8 551.4,201.5 551.6,202.8 551.8,202.3 552.0,201.5 552.2,200.0 552.4,198.0 552.7,197.9 552.9,197.6 553.1,195.9 553.3,194.9 553.5,194.2 553.7,193.6 553.9,191.4 554.1,190.3 554.3,192.0 554.6,191.0 554.8,191.6 555.0,190.2 555.2,189.4 555.4,188.5 555.6,188.5 555.8,187.8 556.0,187.5 556.2,187.8 556.5,187.8 556.7,188.0 556.9,187.5 557.1,187.9 557.3,188.2 557.5,187.1 557.7,186.7 557.9,186.5 558.1,189.1 558.4,187.5 558.6,186.9 558.8,187.9 559.0,189.5 559.2,190.2 559.4,190.1 559.6,189.4 559.8,188.6 560.0,187.4 560.3,186.1 560.5,186.8 560.7,186.7 560.9,185.6 561.1,184.2 561.3,184.3 561.5,183.0 561.7,182.4 561.9,182.6 562.2,182.9 562.4,183.4 562.6,182.7 562.8,181.6 563.0,180.9 563.2,181.4 563.4,182.1 563.6,181.1 563.8,180.3 564.1,181.3 564.3,178.6 564.5,179.7 564.7,179.7 564.9,178.5 565.1,178.0 565.3,177.9 565.5,178.6 565.7,180.1 566.0,179.0 566.2,178.8 566.4,178.8 566.6,177.0 566.8,174.7 567.0,174.6 567.2,173.1 567.4,172.7 567.6,172.2 567.9,172.2 568.1,173.2 568.3,172.1 568.5,171.5 568.7,171.1 568.9,171.0 569.1,170.1 569.3,171.0 569.5,170.7 569.8,171.1 570.0,170.3 570.2,167.2 570.4,164.8 570.6,163.9 570.8,166.7 571.0,168.1 571.2,172.9 571.4,170.9 571.7,172.6 571.9,174.4 572.1,174.2 572.3,173.1 572.5,175.2 572.7,174.4 572.9,174.5 573.1,173.6 573.3,174.4 573.6,180.2 573.8,179.6 574.0,178.5 574.2,177.3 574.4,176.9 574.6,176.5 574.8,177.7 575.0,177.0 575.2,177.1 575.5,175.6 575.7,176.1 575.9,174.9 576.1,175.3 576.3,176.8 576.5,177.2 576.7,177.6 576.9,179.5 577.1,178.8 577.3,177.1 577.6,177.9 577.8,178.3 578.0,179.9 578.2,180.8 578.4,180.3 578.6,180.0 578.8,180.4 579.0,178.8 579.2,178.7 579.5,181.2 579.7,182.6 579.9,185.1 580.1,186.3 580.3,186.0 580.5,185.3 580.7,185.9 580.9,182.4 581.1,179.8 581.4,178.6 581.6,176.8 581.8,176.3 582.0,176.7 582.2,175.7 582.4,176.3 582.6,175.9 582.8,175.9 583.0,176.7 583.3,177.0 583.5,176.5 583.7,176.3 583.9,176.7 584.1,176.9 584.3,178.0 584.5,176.0 584.7,178.5 584.9,178.4 585.2,179.7 585.4,179.7 585.6,179.2 585.8,178.1 586.0,177.7 586.2,177.6 586.4,178.4 586.6,182.4 586.8,184.6 587.1,184.4 587.3,183.9 587.5,185.4 587.7,186.0 587.9,184.5 588.1,184.5 588.3,184.1 588.5,183.3 588.7,183.0 589.0,183.2 589.2,183.0 589.4,183.7 589.6,183.8 589.8,183.5 590.0,184.5 590.2,185.4 590.4,186.1 590.6,185.1 590.9,187.2 591.1,187.6 591.3,187.7 591.5,188.5 591.7,185.7 591.9,187.2 592.1,186.3 592.3,185.6 592.5,184.4 592.8,183.8 593.0,183.2 593.2,185.7 593.4,185.0 593.6,183.0 593.8,182.0 594.0,182.9 594.2,183.5 594.4,184.5 594.7,182.7 594.9,182.7 595.1,183.9 595.3,183.6 595.5,181.7 595.7,182.9 595.9,188.6 596.1,185.8 596.3,183.4 596.6,182.5 596.8,184.5 597.0,185.5 597.2,185.8 597.4,183.7 597.6,184.7 597.8,182.8 598.0,182.8 598.2,181.8 598.5,181.7 598.7,182.6 598.9,182.8 599.1,180.1 599.3,177.7 599.5,178.4 599.7,176.7 599.9,176.1 600.1,179.8 600.4,180.5 600.6,180.2 600.8,181.7 601.0,181.8 601.2,181.2 601.4,179.5 601.6,179.2 601.8,179.8 602.0,178.4 602.3,178.2 602.5,177.2 602.7,176.4 602.9,177.1 603.1,176.9 603.3,175.2 603.5,173.9 603.7,172.4 603.9,172.6 604.2,172.5 604.4,173.2 604.6,173.3 604.8,171.6 605.0,171.3 605.2,170.1 605.4,170.0 605.6,170.1 605.8,169.1 606.1,168.8 606.3,170.5 606.5,169.2 606.7,169.5 606.9,169.5 607.1,170.5 607.3,172.0 607.5,171.4 607.7,171.9 608.0,171.0 608.2,170.4 608.4,170.5 608.6,170.5 608.8,171.0 609.0,170.8 609.2,171.3 609.4,170.9 609.6,170.1 609.9,170.2 610.1,168.5 610.3,171.3 610.5,172.5 610.7,173.9 610.9,176.9 611.1,176.1 611.3,176.5 611.5,178.8 611.8,179.1 612.0,178.5 612.2,179.2 612.4,179.7 612.6,179.6 612.8,179.9 613.0,180.6 613.2,181.0 613.4,179.7 613.7,180.4 613.9,181.5 614.1,181.3 614.3,181.4 614.5,181.3 614.7,181.7 614.9,179.1 615.1,177.0 615.3,176.0 615.6,176.7 615.8,177.6 616.0,178.6 616.2,177.5 616.4,177.0 616.6,177.8 616.8,177.0 617.0,176.6 617.2,175.6 617.4,175.9 617.7,175.0 617.9,175.6 618.1,174.6 618.3,175.0 618.5,176.5 618.7,178.5 618.9,179.9 619.1,178.4 619.3,177.1 619.6,175.9 619.8,175.8 620.0,175.0 620.2,175.7 620.4,174.5 620.6,174.1 620.8,176.0 621.0,175.0 621.2,173.4 621.5,173.7 621.7,173.3 621.9,173.4 622.1,173.5 622.3,172.6 622.5,172.0 622.7,172.4 622.9,171.8 623.1,171.3 623.4,171.5 623.6,171.4 623.8,170.9 624.0,170.7 624.2,171.3 624.4,171.6 624.6,172.5 624.8,171.5 625.0,171.2 625.3,170.8 625.5,169.9 625.7,169.4 625.9,171.2 626.1,179.0 626.3,177.6 626.5,176.0 626.7,177.3 626.9,178.7 627.2,179.9 627.4,179.5 627.6,179.9 627.8,180.3 628.0,180.5 628.2,180.4 628.4,180.1 628.6,180.4 628.8,182.5 629.1,182.5 629.3,182.4 629.5,181.4 629.7,181.5 629.9,183.0 630.1,183.9 630.3,185.6 630.5,186.3 630.7,187.1 631.0,186.1 631.2,189.2 631.4,186.8 631.6,186.8 631.8,187.8 632.0,187.1 632.2,186.3 632.4,185.9 632.6,186.2 632.9,185.8 633.1,187.2 633.3,187.5 633.5,185.6 633.7,186.2 633.9,186.8 634.1,186.4 634.3,187.5 634.5,188.1 634.8,189.8 635.0,189.8 635.2,189.3 635.4,188.3 635.6,188.1 635.8,186.3 636.0,186.6 636.2,187.7 636.4,188.4 636.7,187.7 636.9,188.1 637.1,189.1 637.3,187.4 637.5,188.2 637.7,187.0 637.9,186.3 638.1,183.3 638.3,182.2 638.6,182.6 638.8,183.6 639.0,183.4 639.2,179.0 639.4,177.7 639.6,178.5 639.8,179.2 640.0,178.6 640.2,178.9 640.5,179.7 640.7,178.1 640.9,178.5 641.1,177.8 641.3,177.4 641.5,176.9 641.7,176.9 641.9,177.0 642.1,177.3 642.4,178.3 642.6,178.2 642.8,178.2 643.0,179.4 643.2,180.1 643.4,180.4 643.6,180.3 643.8,179.9 644.0,179.8 644.3,179.3 644.5,180.2 644.7,179.4 644.9,180.7 645.1,181.0 645.3,178.9 645.5,178.9 645.7,178.9 645.9,178.7 646.2,177.5 646.4,176.0 646.6,177.0 646.8,175.8 647.0,176.1 647.2,176.0 647.4,176.2 647.6,176.6 647.8,175.4 648.1,175.9 648.3,176.3 648.5,176.9 648.7,178.8 648.9,179.4 649.1,179.9 649.3,179.7 649.5,179.9 649.7,179.4 650.0,178.8 650.2,179.0 650.4,178.7 650.6,179.3 650.8,179.5 651.0,180.0 651.2,178.8 651.4,178.7 651.6,181.1 651.9,180.6 652.1,181.6 652.3,180.6 652.5,181.3 652.7,181.3 652.9,185.4 653.1,183.4 653.3,183.9 653.5,183.1 653.8,182.6 654.0,183.8 654.2,183.9 654.4,183.3 654.6,183.4 654.8,186.0 655.0,185.6 655.2,185.6 655.4,186.0 655.7,186.3 655.9,185.9 656.1,185.8 656.3,185.8 656.5,185.6 656.7,185.7 656.9,185.6 657.1,185.3 657.3,186.0 657.5,185.7 657.8,183.1 658.0,182.5 658.2,182.0 658.4,181.7 658.6,180.5 658.8,179.5 659.0,178.7 659.2,177.5 659.4,176.3 659.7,175.6 659.9,175.3 660.1,175.8 660.3,176.2 660.5,176.1 660.7,177.2 660.9,176.7 661.1,175.2 661.3,175.4 661.6,175.3 661.8,175.4 662.0,175.2 662.2,172.3 662.4,172.0 662.6,171.4 662.8,171.0 663.0,171.4 663.2,170.9 663.5,169.4 663.7,170.1 663.9,170.9 664.1,171.4 664.3,171.1 664.5,170.3 664.7,169.5 664.9,169.2 665.1,168.0 665.4,169.8 665.6,169.3 665.8,169.7 666.0,170.0 666.2,169.4 666.4,169.7 666.6,167.9 666.8,167.3 667.0,165.9 667.3,164.8 667.5,163.9 667.7,164.0 667.9,164.4 668.1,164.9 668.3,164.8 668.5,164.2 668.7,163.0 668.9,162.6 669.2,163.5 669.4,163.8 669.6,163.0 669.8,162.2 670.0,161.9 670.2,161.8 670.4,162.3 670.6,163.3 670.8,161.8 671.1,162.8 671.3,161.7 671.5,160.7 671.7,161.0 671.9,161.9 672.1,161.4 672.3,160.8 672.5,161.3 672.7,160.6 673.0,162.4 673.2,162.0 673.4,161.4 673.6,163.2 673.8,162.6 674.0,162.1 674.2,162.0 674.4,161.7 674.6,161.1 674.9,160.2 675.1,160.9 675.3,160.9 675.5,162.6 675.7,167.7 675.9,166.6 676.1,166.7 676.3,166.5 676.5,167.1 676.8,168.0 677.0,170.9 677.2,171.3 677.4,170.8 677.6,169.8 677.8,169.6 678.0,168.6 678.2,167.8 678.4,166.8 678.7,167.8 678.9,168.1 679.1,172.5 679.3,171.4 679.5,170.7 679.7,171.2 679.9,171.8 680.1,170.1 680.3,170.7 680.6,170.8 680.8,172.0 681.0,172.0 681.2,171.8 681.4,171.5 681.6,171.3 681.8,170.1 682.0,169.7 682.2,168.6 682.5,169.6 682.7,170.5 682.9,172.5 683.1,173.3 683.3,174.0 683.5,175.0 683.7,175.3 683.9,174.4 684.1,171.5 684.4,172.1 684.6,171.0 684.8,169.1 685.0,167.4 685.2,166.9 685.4,166.3 685.6,167.9 685.8,168.8 686.0,168.5 686.3,167.4 686.5,166.8 686.7,165.8 686.9,165.4 687.1,166.4 687.3,165.1 687.5,166.2 687.7,166.0 687.9,167.1 688.2,165.8 688.4,166.4 688.6,168.8 688.8,170.0 689.0,168.1 689.2,168.5 689.4,167.7 689.6,167.6 689.8,166.6 690.1,166.4 690.3,167.7 690.5,167.0 690.7,163.7 690.9,166.0 691.1,165.3 691.3,164.6 691.5,164.9 691.7,163.2 692.0,160.1 692.2,158.6 692.4,160.3 692.6,157.8 692.8,158.5 693.0,156.4 693.2,156.6 693.4,159.0 693.6,158.3 693.9,157.4 694.1,156.0 694.3,156.2 694.5,156.1 694.7,155.6 694.9,154.7 695.1,154.6 695.3,154.3 695.5,152.9 695.8,153.2 696.0,153.1 696.2,153.1 696.4,152.6 696.6,152.6 696.8,153.3 697.0,153.6 697.2,153.7 697.4,153.2 697.6,152.5 697.9,152.8 698.1,154.8 698.3,154.6 698.5,153.1 698.7,151.7 698.9,154.0 699.1,154.3 699.3,154.2 699.5,153.4 699.8,154.5 700.0,154.8 700.2,154.4 700.4,154.5 700.6,154.3 700.8,154.5 701.0,155.6 701.2,155.3 701.4,153.9 701.7,152.6 701.9,152.9 702.1,152.9 702.3,153.6 702.5,154.1 702.7,154.5 702.9,154.7 703.1,153.9 703.3,154.1 703.6,154.2 703.8,153.5 704.0,155.3 704.2,156.0 704.4,156.9 704.6,156.8 704.8,157.9 705.0,156.8 705.2,157.3 705.5,156.4 705.7,157.3 705.9,156.4 706.1,156.5 706.3,150.7 706.5,149.6 706.7,149.8 706.9,151.2 707.1,150.6 707.4,150.9 707.6,151.2 707.8,151.7 708.0,164.2 708.2,166.0 708.4,166.4 708.6,166.8 708.8,169.4 709.0,168.7 709.3,168.5 709.5,167.8 709.7,165.6 709.9,162.8 710.1,162.8 710.3,160.7 710.5,159.7 710.7,159.7 710.9,160.3 711.2,160.5 711.4,163.1 711.6,163.3 711.8,163.3 712.0,163.0 712.2,163.5 712.4,164.2 712.6,164.9 712.8,164.8 713.1,165.7 713.3,163.7 713.5,164.9 713.7,165.8 713.9,163.6 714.1,162.1 714.3,161.3 714.5,161.7 714.7,162.3 715.0,163.2 715.2,162.5 715.4,161.5 715.6,160.6 715.8,161.2 716.0,161.5 716.2,162.0 716.4,163.8 716.6,163.0 716.9,163.6 717.1,165.8 717.3,164.6 717.5,165.7 717.7,165.2 717.9,167.0 718.1,166.2 718.3,166.4 718.5,162.9 718.8,164.0 719.0,163.7 719.2,163.5 719.4,159.3 719.6,156.1 719.8,156.2 720.0,155.4 720.2,154.8 720.4,155.9 720.7,156.0 720.9,155.3 721.1,154.7 721.3,154.5 721.5,154.8 721.7,153.2 721.9,152.7 722.1,151.0 722.3,150.5 722.6,149.5 722.8,149.5 723.0,150.0 723.2,149.1 723.4,147.3 723.6,146.2 723.8,147.9 724.0,146.2 724.2,146.5 724.5,145.0 724.7,144.0 724.9,145.3 725.1,146.0 725.3,146.2 725.5,146.1 725.7,144.9 725.9,145.2 726.1,145.9 726.4,146.0 726.6,146.9 726.8,147.2 727.0,150.8 727.2,150.8 727.4,150.2 727.6,149.0 727.8,147.1 728.0,148.5 728.3,149.0 728.5,150.7 728.7,157.7 728.9,157.9 729.1,163.5 729.3,161.3 729.5,164.3 729.7,163.9 729.9,161.7 730.2,162.9 730.4,165.7 730.6,165.0 730.8,166.5 731.0,164.5 731.2,162.8 731.4,161.1 731.6,158.2 731.8,155.1 732.1,154.5 732.3,153.7 732.5,154.6 732.7,152.1 732.9,153.3 733.1,157.6 733.3,157.2 733.5,158.4 733.7,158.9 734.0,156.2 734.2,157.2 734.4,162.6 734.6,160.4 734.8,159.2 735.0,158.3 735.2,158.8 735.4,160.3 735.6,159.9 735.9,159.6 736.1,158.3 736.3,159.7 736.5,158.4 736.7,158.1 736.9,157.7 737.1,157.6 737.3,157.5 737.5,157.5 737.7,156.3 738.0,156.6 738.2,156.5 738.4,155.5 738.6,155.0 738.8,155.7 739.0,155.8 739.2,158.5 739.4,158.5 739.6,158.5 739.9,159.3 740.1,158.4 740.3,158.5 740.5,157.8 740.7,160.1 740.9,158.4 741.1,156.2 741.3,155.8 741.5,156.6 741.8,157.4 742.0,156.3 742.2,155.9 742.4,153.8 742.6,155.0 742.8,155.5 743.0,158.0 743.2,155.9 743.4,155.5 743.7,156.6 743.9,158.8 744.1,157.6 744.3,155.9 744.5,155.8 744.7,156.1 744.9,156.9 745.1,155.6 745.3,156.5 745.6,156.7 745.8,153.7 746.0,152.7 746.2,152.1 746.4,153.2 746.6,152.0 746.8,152.3 747.0,152.1 747.2,152.1 747.5,150.7 747.7,149.3 747.9,148.4 748.1,148.4 748.3,148.6 748.5,147.3 748.7,147.1 748.9,146.6 749.1,148.0 749.4,147.6 749.6,147.7 749.8,147.8 750.0,146.7 750.2,146.0 750.4,146.1 750.6,145.5 750.8,145.7 751.0,147.0 751.3,146.7 751.5,146.1 751.7,142.4 751.9,143.2 752.1,143.6 752.3,144.1 752.5,142.2 752.7,141.7 752.9,141.5 753.2,141.4 753.4,141.4 753.6,142.5 753.8,143.2 754.0,142.3 754.2,141.2 754.4,137.8 754.6,132.7 754.8,135.8 755.1,136.8 755.3,138.3 755.5,137.2 755.7,137.9 755.9,138.1 756.1,138.2 756.3,138.3 756.5,138.7 756.7,139.9 757.0,139.7 757.2,138.6 757.4,137.6 757.6,137.8 757.8,138.9 758.0,139.1 758.2,139.2 758.4,139.2 758.6,139.4 758.9,140.4 759.1,139.1 759.3,143.4 759.5,146.0 759.7,144.3 759.9,143.9 760.1,142.9 760.3,142.9 760.5,143.1 760.8,140.4 761.0,137.1 761.2,137.5 761.4,137.4 761.6,136.8 761.8,136.8 762.0,137.2 762.2,138.6 762.4,135.9 762.7,138.6 762.9,137.7 763.1,139.3 763.3,139.3 763.5,140.4 763.7,140.7 763.9,138.3 764.1,138.9 764.3,140.0 764.6,141.2 764.8,141.3 765.0,140.4 765.2,140.9 765.4,141.1 765.6,139.4 765.8,141.0 766.0,140.7 766.2,141.3 766.5,139.7 766.7,139.2 766.9,138.9 767.1,138.4 767.3,138.4 767.5,138.0 767.7,138.5 767.9,139.0 768.1,138.7 768.4,142.5 768.6,140.9 768.8,137.0 769.0,140.8 769.2,142.5 769.4,142.5 769.6,142.2 769.8,141.7 770.0,143.9 770.3,145.0 770.5,145.1 770.7,144.2 770.9,143.3 771.1,142.8 771.3,142.2 771.5,140.9 771.7,143.1 771.9,142.4 772.2,141.3 772.4,140.2 772.6,140.2 772.8,143.8 773.0,142.9 773.2,141.1 773.4,141.2 773.6,141.5 773.8,142.2 774.1,139.4 774.3,137.8 774.5,137.2 774.7,138.9 774.9,140.7 775.1,140.5 775.3,138.6 775.5,139.0 775.7,139.6 776.0,140.6 776.2,137.5 776.4,136.7 776.6,136.8 776.8,135.9 777.0,137.4 777.2,138.3 777.4,139.4 777.6,139.6 777.8,139.3 778.1,140.3 778.3,142.7 778.5,141.9 778.7,142.6 778.9,147.6 779.1,148.6 779.3,149.1 779.5,149.2 779.7,149.0 780.0,148.1 780.2,146.4 780.4,147.1 780.6,145.5 780.8,143.6 781.0,144.7 781.2,147.4 781.4,148.4 781.6,148.5 781.9,146.2 782.1,145.8 782.3,147.8 782.5,148.5 782.7,146.8 782.9,147.6 783.1,147.3 783.3,147.6 783.5,149.7 783.8,149.1 784.0,151.2 784.2,151.0 784.4,152.0 784.6,152.7 784.8,152.5 785.0,149.6 785.2,146.3 785.4,148.4 785.7,147.7 785.9,148.6 786.1,149.1 786.3,150.2 786.5,150.7 786.7,150.1 786.9,147.8 787.1,147.5 787.3,146.5 787.6,146.7 787.8,147.1 788.0,145.2 788.2,145.9 788.4,144.9 788.6,144.4 788.8,145.5 789.0,144.5 789.2,143.1 789.5,143.5 789.7,145.6 789.9,144.5 790.1,143.8 790.3,140.5 790.5,139.5 790.7,141.2 790.9,140.3 791.1,140.5 791.4,140.5 791.6,139.3 791.8,141.9 792.0,141.5 792.2,142.0 792.4,144.0 792.6,138.4 792.8,136.5 793.0,136.4 793.3,133.2 793.5,129.4 793.7,129.0 793.9,130.0 794.1,130.2 794.3,126.6 794.5,128.8 794.7,128.9 794.9,129.6 795.2,130.6 795.4,131.3 795.6,131.4 795.8,132.6 796.0,132.8"/><polyline fill="none" stroke="#16a34a" stroke-width="3" points="78.0,313.7 78.2,314.5 78.4,315.7 78.6,315.5 78.8,317.5 79.1,317.0 79.3,316.7 79.5,316.1 79.7,315.4 79.9,314.0 80.1,311.5 80.3,309.2 80.5,306.9 80.7,309.2 81.0,305.8 81.2,306.6 81.4,306.3 81.6,308.0 81.8,307.0 82.0,307.9 82.2,308.5 82.4,307.3 82.6,307.0 82.9,307.2 83.1,307.4 83.3,309.2 83.5,309.7 83.7,310.7 83.9,311.8 84.1,312.2 84.3,308.8 84.5,306.3 84.8,304.8 85.0,303.8 85.2,303.4 85.4,304.1 85.6,306.8 85.8,307.5 86.0,308.4 86.2,308.0 86.4,305.7 86.7,304.7 86.9,306.5 87.1,305.9 87.3,306.5 87.5,306.9 87.7,306.1 87.9,307.3 88.1,307.3 88.3,306.4 88.6,304.0 88.8,304.9 89.0,304.4 89.2,302.7 89.4,304.1 89.6,302.9 89.8,302.1 90.0,300.0 90.2,300.1 90.5,298.7 90.7,297.9 90.9,298.8 91.1,299.2 91.3,296.8 91.5,297.5 91.7,296.4 91.9,294.7 92.1,292.4 92.4,292.4 92.6,292.7 92.8,296.3 93.0,294.1 93.2,294.5 93.4,294.4 93.6,294.2 93.8,290.3 94.0,288.3 94.3,290.1 94.5,290.2 94.7,286.9 94.9,288.2 95.1,286.5 95.3,287.5 95.5,290.7 95.7,289.3 95.9,289.5 96.2,288.8 96.4,291.8 96.6,290.2 96.8,288.6 97.0,289.6 97.2,287.9 97.4,286.5 97.6,286.2 97.8,284.2 98.0,286.1 98.3,285.5 98.5,285.1 98.7,285.4 98.9,287.7 99.1,287.8 99.3,291.0 99.5,289.6 99.7,293.5 99.9,292.1 100.2,291.5 100.4,292.8 100.6,291.8 100.8,290.7 101.0,290.9 101.2,291.6 101.4,293.4 101.6,292.5 101.8,292.4 102.1,292.9 102.3,291.7 102.5,292.8 102.7,297.2 102.9,293.7 103.1,295.3 103.3,293.7 103.5,292.1 103.7,292.6 104.0,296.5 104.2,295.9 104.4,294.6 104.6,294.6 104.8,293.5 105.0,291.4 105.2,292.2 105.4,290.9 105.6,290.3 105.9,287.7 106.1,288.6 106.3,290.3 106.5,290.0 106.7,289.2 106.9,288.8 107.1,287.8 107.3,289.2 107.5,290.6 107.8,289.4 108.0,288.2 108.2,287.7 108.4,288.4 108.6,286.8 108.8,287.3 109.0,287.1 109.2,288.4 109.4,288.0 109.7,288.7 109.9,287.7 110.1,288.4 110.3,287.7 110.5,287.9 110.7,288.7 110.9,291.6 111.1,292.0 111.3,291.2 111.6,292.1 111.8,293.5 112.0,292.2 112.2,291.1 112.4,291.1 112.6,292.8 112.8,293.0 113.0,292.9 113.2,292.9 113.5,292.9 113.7,291.7 113.9,290.9 114.1,290.1 114.3,289.0 114.5,288.2 114.7,287.9 114.9,288.4 115.1,288.0 115.4,286.1 115.6,282.5 115.8,281.9 116.0,282.9 116.2,282.1 116.4,283.5 116.6,285.8 116.8,287.1 117.0,287.8 117.3,289.2 117.5,288.3 117.7,286.1 117.9,285.8 118.1,285.7 118.3,284.1 118.5,285.5 118.7,288.8 118.9,288.2 119.2,285.6 119.4,285.6 119.6,284.3 119.8,284.8 120.0,282.8 120.2,280.6 120.4,280.3 120.6,280.3 120.8,279.0 121.1,280.3 121.3,281.1 121.5,278.5 121.7,278.2 121.9,277.5 122.1,279.4 122.3,280.1 122.5,279.1 122.7,279.5 123.0,280.6 123.2,280.9 123.4,282.4 123.6,280.9 123.8,279.8 124.0,282.0 124.2,281.2 124.4,280.9 124.6,280.1 124.9,279.3 125.1,280.1 125.3,281.0 125.5,279.8 125.7,279.1 125.9,280.2 126.1,279.8 126.3,280.5 126.5,280.1 126.8,280.2 127.0,277.2 127.2,277.8 127.4,277.6 127.6,274.7 127.8,274.9 128.0,273.2 128.2,272.3 128.4,272.8 128.7,272.8 128.9,271.1 129.1,270.6 129.3,269.4 129.5,272.4 129.7,272.4 129.9,272.4 130.1,272.8 130.3,271.7 130.6,272.5 130.8,271.7 131.0,272.0 131.2,273.5 131.4,272.9 131.6,276.4 131.8,276.2 132.0,276.5 132.2,274.9 132.5,275.5 132.7,276.7 132.9,275.3 133.1,276.2 133.3,275.5 133.5,276.3 133.7,276.4 133.9,278.1 134.1,278.5 134.4,280.6 134.6,282.5 134.8,280.8 135.0,281.0 135.2,279.6 135.4,277.8 135.6,281.5 135.8,280.3 136.0,280.7 136.3,280.3 136.5,278.5 136.7,277.2 136.9,277.0 137.1,275.4 137.3,275.7 137.5,275.0 137.7,273.7 137.9,274.2 138.1,273.0 138.4,274.5 138.6,274.8 138.8,275.1 139.0,275.0 139.2,274.7 139.4,274.7 139.6,276.2 139.8,273.5 140.0,273.3 140.3,272.7 140.5,273.7 140.7,273.3 140.9,273.2 141.1,273.4 141.3,274.0 141.5,274.2 141.7,272.8 141.9,270.8 142.2,270.8 142.4,269.8 142.6,270.2 142.8,273.9 143.0,273.3 143.2,273.6 143.4,273.3 143.6,274.6 143.8,273.8 144.1,272.6 144.3,270.4 144.5,270.1 144.7,272.4 144.9,275.2 145.1,278.1 145.3,275.2 145.5,281.5 145.7,282.4 146.0,281.7 146.2,279.6 146.4,279.1 146.6,278.3 146.8,276.6 147.0,275.5 147.2,275.3 147.4,276.8 147.6,277.2 147.9,273.9 148.1,273.0 148.3,271.8 148.5,272.6 148.7,273.4 148.9,273.0 149.1,273.9 149.3,270.5 149.5,271.6 149.8,271.4 150.0,271.2 150.2,271.5 150.4,270.3 150.6,270.7 150.8,270.2 151.0,268.2 151.2,269.2 151.4,269.6 151.7,269.0 151.9,268.5 152.1,268.4 152.3,268.3 152.5,268.3 152.7,267.8 152.9,268.1 153.1,267.7 153.3,267.4 153.6,266.2 153.8,266.5 154.0,268.7 154.2,268.4 154.4,268.0 154.6,269.0 154.8,268.1 155.0,268.4 155.2,267.9 155.5,267.4 155.7,268.0 155.9,269.6 156.1,268.8 156.3,269.1 156.5,266.7 156.7,264.1 156.9,263.7 157.1,264.3 157.4,263.5 157.6,261.5 157.8,261.4 158.0,262.7 158.2,265.5 158.4,266.6 158.6,265.3 158.8,266.0 159.0,266.2 159.3,268.6 159.5,268.3 159.7,268.5 159.9,266.1 160.1,267.7 160.3,267.6 160.5,266.8 160.7,267.5 160.9,269.1 161.2,268.1 161.4,268.7 161.6,268.1 161.8,270.6 162.0,270.3 162.2,268.9 162.4,269.8 162.6,271.1 162.8,270.4 163.1,269.7 163.3,268.9 163.5,269.7 163.7,268.4 163.9,267.3 164.1,267.8 164.3,267.1 164.5,265.5 164.7,265.8 165.0,266.0 165.2,265.6 165.4,264.5 165.6,264.7 165.8,264.8 166.0,264.9 166.2,265.5 166.4,265.8 166.6,265.1 166.9,265.0 167.1,264.4 167.3,265.0 167.5,262.7 167.7,262.3 167.9,261.2 168.1,261.2 168.3,261.1 168.5,260.0 168.8,258.4 169.0,258.7 169.2,259.3 169.4,259.9 169.6,261.7 169.8,259.3 170.0,261.0 170.2,259.1 170.4,260.2 170.7,261.4 170.9,262.2 171.1,263.2 171.3,259.9 171.5,261.3 171.7,263.2 171.9,260.5 172.1,263.1 172.3,265.3 172.6,267.6 172.8,266.7 173.0,265.9 173.2,268.9 173.4,268.0 173.6,266.2 173.8,263.1 174.0,262.1 174.2,257.9 174.5,256.7 174.7,256.4 174.9,255.7 175.1,257.2 175.3,255.3 175.5,251.9 175.7,252.2 175.9,253.1 176.1,253.3 176.4,253.0 176.6,254.8 176.8,251.4 177.0,251.3 177.2,251.5 177.4,251.6 177.6,251.1 177.8,249.6 178.0,248.2 178.2,248.9 178.5,249.4 178.7,246.3 178.9,245.7 179.1,245.4 179.3,244.5 179.5,243.8 179.7,243.9 179.9,243.7 180.1,244.8 180.4,243.3 180.6,243.1 180.8,243.5 181.0,243.9 181.2,246.0 181.4,246.8 181.6,249.3 181.8,248.8 182.0,249.3 182.3,247.4 182.5,245.6 182.7,245.8 182.9,246.9 183.1,250.6 183.3,247.9 183.5,246.9 183.7,246.6 183.9,247.8 184.2,249.0 184.4,248.4 184.6,250.2 184.8,250.6 185.0,246.9 185.2,246.0 185.4,248.5 185.6,248.6 185.8,251.3 186.1,250.8 186.3,252.0 186.5,249.6 186.7,251.2 186.9,252.3 187.1,251.9 187.3,252.7 187.5,252.1 187.7,251.7 188.0,253.6 188.2,251.7 188.4,255.9 188.6,255.3 188.8,253.9 189.0,261.3 189.2,259.6 189.4,261.4 189.6,263.7 189.9,261.4 190.1,261.7 190.3,261.1 190.5,259.5 190.7,258.4 190.9,257.6 191.1,258.0 191.3,254.4 191.5,255.5 191.8,255.1 192.0,255.4 192.2,255.6 192.4,255.6 192.6,255.7 192.8,257.0 193.0,256.0 193.2,261.4 193.4,263.4 193.7,263.6 193.9,263.1 194.1,261.8 194.3,259.6 194.5,259.6 194.7,257.8 194.9,256.8 195.1,256.6 195.3,254.6 195.6,255.8 195.8,255.7 196.0,257.0 196.2,259.2 196.4,260.7 196.6,260.1 196.8,259.2 197.0,258.7 197.2,261.0 197.5,261.2 197.7,260.2 197.9,258.9 198.1,258.3 198.3,255.9 198.5,253.3 198.7,253.8 198.9,253.0 199.1,252.5 199.4,251.7 199.6,252.1 199.8,250.3 200.0,250.2 200.2,248.9 200.4,249.2 200.6,246.6 200.8,248.1 201.0,246.0 201.3,247.3 201.5,248.7 201.7,249.1 201.9,248.6 202.1,249.8 202.3,249.7 202.5,248.6 202.7,247.8 202.9,247.9 203.2,248.4 203.4,247.7 203.6,246.8 203.8,246.8 204.0,247.3 204.2,247.1 204.4,246.9 204.6,247.2 204.8,247.5 205.1,246.6 205.3,244.8 205.5,244.7 205.7,245.9 205.9,245.4 206.1,245.9 206.3,245.3 206.5,244.8 206.7,244.8 207.0,244.2 207.2,244.4 207.4,243.6 207.6,243.9 207.8,245.3 208.0,245.5 208.2,245.7 208.4,244.3 208.6,242.6 208.9,241.9 209.1,241.1 209.3,241.2 209.5,242.3 209.7,241.5 209.9,240.6 210.1,245.1 210.3,245.1 210.5,243.3 210.8,243.7 211.0,243.7 211.2,243.2 211.4,244.4 211.6,244.0 211.8,242.3 212.0,241.1 212.2,240.8 212.4,240.9 212.7,240.6 212.9,240.6 213.1,239.5 213.3,239.9 213.5,239.8 213.7,239.9 213.9,243.2 214.1,241.5 214.3,238.9 214.6,239.5 214.8,240.4 215.0,240.6 215.2,240.9 215.4,240.6 215.6,240.2 215.8,241.6 216.0,242.4 216.2,241.6 216.5,242.9 216.7,242.2 216.9,242.5 217.1,242.4 217.3,241.4 217.5,242.1 217.7,242.5 217.9,244.0 218.1,246.2 218.3,249.7 218.6,253.9 218.8,250.2 219.0,248.2 219.2,249.0 219.4,251.3 219.6,254.2 219.8,253.4 220.0,252.5 220.2,255.3 220.5,254.1 220.7,256.1 220.9,255.6 221.1,256.0 221.3,256.6 221.5,256.2 221.7,255.7 221.9,255.2 222.1,253.1 222.4,255.9 222.6,258.5 222.8,259.0 223.0,260.4 223.2,261.8 223.4,267.4 223.6,266.9 223.8,264.1 224.0,262.8 224.3,261.7 224.5,260.3 224.7,262.9 224.9,262.0 225.1,261.3 225.3,262.0 225.5,261.8 225.7,264.2 225.9,264.0 226.2,260.3 226.4,259.6 226.6,260.2 226.8,262.5 227.0,264.2 227.2,274.4 227.4,270.4 227.6,267.7 227.8,266.4 228.1,265.2 228.3,263.7 228.5,254.8 228.7,249.0 228.9,250.4 229.1,248.3 229.3,249.9 229.5,247.9 229.7,249.2 230.0,250.6 230.2,252.7 230.4,253.7 230.6,254.3 230.8,254.1 231.0,253.5 231.2,252.5 231.4,253.2 231.6,252.4 231.9,252.3 232.1,252.3 232.3,253.6 232.5,254.1 232.7,257.0 232.9,255.6 233.1,257.7 233.3,260.3 233.5,258.6 233.8,260.1 234.0,259.4 234.2,260.5 234.4,260.9 234.6,263.8 234.8,261.4 235.0,259.9 235.2,257.8 235.4,259.9 235.7,260.9 235.9,260.2 236.1,257.9 236.3,256.3 236.5,256.5 236.7,256.0 236.9,254.9 237.1,254.4 237.3,255.3 237.6,257.9 237.8,258.3 238.0,258.2 238.2,258.5 238.4,261.1 238.6,264.1 238.8,262.5 239.0,267.9 239.2,261.9 239.5,257.3 239.7,261.2 239.9,257.6 240.1,255.6 240.3,254.9 240.5,255.2 240.7,255.8 240.9,257.6 241.1,259.7 241.4,261.3 241.6,262.2 241.8,263.0 242.0,258.1 242.2,258.2 242.4,264.4 242.6,264.8 242.8,263.8 243.0,265.1 243.3,266.1 243.5,265.4 243.7,263.7 243.9,261.1 244.1,261.9 244.3,262.4 244.5,260.7 244.7,261.0 244.9,261.3 245.2,259.1 245.4,259.5 245.6,261.8 245.8,258.9 246.0,260.0 246.2,259.6 246.4,259.2 246.6,258.8 246.8,260.6 247.1,258.8 247.3,259.1 247.5,256.6 247.7,257.5 247.9,260.1 248.1,259.0 248.3,260.6 248.5,258.5 248.7,259.5 249.0,257.0 249.2,258.9 249.4,259.3 249.6,259.3 249.8,257.7 250.0,257.8 250.2,257.6 250.4,257.1 250.6,254.3 250.9,255.3 251.1,253.2 251.3,254.1 251.5,255.4 251.7,255.4 251.9,253.2 252.1,253.6 252.3,253.3 252.5,252.9 252.8,252.3 253.0,251.9 253.2,251.4 253.4,250.0 253.6,250.0 253.8,250.6 254.0,250.7 254.2,251.1 254.4,250.3 254.7,250.6 254.9,249.9 255.1,249.4 255.3,249.9 255.5,248.6 255.7,248.3 255.9,246.6 256.1,246.5 256.3,248.0 256.6,248.3 256.8,249.1 257.0,248.4 257.2,251.8 257.4,251.4 257.6,253.3 257.8,252.6 258.0,253.2 258.2,251.1 258.4,250.3 258.7,249.2 258.9,248.0 259.1,247.7 259.3,247.8 259.5,244.5 259.7,244.7 259.9,247.9 260.1,247.4 260.3,249.5 260.6,251.0 260.8,250.6 261.0,252.2 261.2,252.3 261.4,251.5 261.6,250.8 261.8,252.1 262.0,252.0 262.2,252.2 262.5,251.5 262.7,250.1 262.9,252.4 263.1,254.2 263.3,252.2 263.5,249.4 263.7,249.2 263.9,248.0 264.1,249.2 264.4,247.0 264.6,247.0 264.8,245.9 265.0,245.6 265.2,244.0 265.4,244.2 265.6,245.9 265.8,246.3 266.0,245.9 266.3,246.3 266.5,246.2 266.7,245.5 266.9,245.6 267.1,244.8 267.3,244.6 267.5,244.0 267.7,244.3 267.9,242.1 268.2,241.1 268.4,241.3 268.6,241.6 268.8,242.3 269.0,241.7 269.2,242.0 269.4,241.4 269.6,241.8 269.8,241.1 270.1,240.8 270.3,240.5 270.5,241.4 270.7,241.3 270.9,241.3 271.1,240.9 271.3,241.0 271.5,242.2 271.7,243.8 272.0,244.3 272.2,244.4 272.4,244.6 272.6,245.1 272.8,245.2 273.0,245.3 273.2,245.1 273.4,244.4 273.6,243.9 273.9,245.2 274.1,246.2 274.3,245.2 274.5,246.3 274.7,246.3 274.9,246.3 275.1,246.4 275.3,246.9 275.5,246.4 275.8,245.2 276.0,243.7 276.2,243.9 276.4,245.2 276.6,244.5 276.8,245.0 277.0,247.0 277.2,246.7 277.4,246.4 277.7,246.8 277.9,246.2 278.1,247.0 278.3,246.9 278.5,246.3 278.7,247.7 278.9,248.6 279.1,248.7 279.3,250.2 279.6,250.2 279.8,248.1 280.0,248.3 280.2,247.8 280.4,248.9 280.6,248.7 280.8,248.1 281.0,248.9 281.2,248.2 281.5,254.3 281.7,257.3 281.9,256.1 282.1,255.6 282.3,257.1 282.5,256.8 282.7,252.2 282.9,252.3 283.1,246.4 283.4,244.4 283.6,245.8 283.8,246.0 284.0,246.1 284.2,248.1 284.4,247.9 284.6,249.7 284.8,249.8 285.0,252.1 285.3,250.2 285.5,249.7 285.7,251.3 285.9,248.0 286.1,249.2 286.3,251.8 286.5,251.3 286.7,249.1 286.9,248.0 287.2,250.5 287.4,249.1 287.6,248.1 287.8,247.3 288.0,247.4 288.2,247.9 288.4,247.4 288.6,247.1 288.8,247.1 289.1,247.2 289.3,248.2 289.5,247.9 289.7,246.9 289.9,246.6 290.1,247.0 290.3,246.3 290.5,246.5 290.7,246.8 291.0,245.5 291.2,244.8 291.4,244.7 291.6,244.1 291.8,244.3 292.0,247.7 292.2,247.5 292.4,246.4 292.6,246.6 292.9,246.9 293.1,247.4 293.3,247.7 293.5,248.0 293.7,248.6 293.9,247.4 294.1,247.5 294.3,249.5 294.5,248.8 294.8,247.8 295.0,248.1 295.2,248.1 295.4,248.5 295.6,248.5 295.8,248.6 296.0,248.7 296.2,248.2 296.4,248.8 296.7,248.7 296.9,248.2 297.1,247.0 297.3,247.2 297.5,246.8 297.7,246.7 297.9,247.4 298.1,246.5 298.3,246.3 298.5,246.1 298.8,246.7 299.0,245.2 299.2,244.6 299.4,244.4 299.6,244.1 299.8,243.9 300.0,243.3 300.2,242.7 300.4,240.8 300.7,240.8 300.9,241.1 301.1,239.8 301.3,240.7 301.5,241.0 301.7,240.9 301.9,241.5 302.1,241.3 302.3,241.1 302.6,241.1 302.8,240.5 303.0,240.6 303.2,240.9 303.4,241.4 303.6,241.8 303.8,242.0 304.0,241.9 304.2,242.1 304.5,241.9 304.7,241.2 304.9,242.1 305.1,242.3 305.3,242.0 305.5,242.4 305.7,242.1 305.9,243.1 306.1,243.3 306.4,242.9 306.6,242.8 306.8,241.6 307.0,241.0 307.2,241.0 307.4,239.6 307.6,239.8 307.8,239.0 308.0,238.8 308.3,238.6 308.5,237.9 308.7,238.3 308.9,239.4 309.1,239.4 309.3,239.7 309.5,240.7 309.7,239.6 309.9,238.7 310.2,238.5 310.4,240.6 310.6,240.2 310.8,240.3 311.0,240.5 311.2,239.9 311.4,239.8 311.6,239.2 311.8,239.6 312.1,239.6 312.3,239.6 312.5,238.7 312.7,237.9 312.9,237.6 313.1,237.1 313.3,235.9 313.5,235.8 313.7,234.6 314.0,234.8 314.2,234.6 314.4,233.5 314.6,233.4 314.8,232.8 315.0,232.4 315.2,232.6 315.4,232.4 315.6,230.0 315.9,230.7 316.1,230.6 316.3,231.0 316.5,230.4 316.7,230.9 316.9,230.9 317.1,231.0 317.3,230.9 317.5,231.9 317.8,231.5 318.0,231.8 318.2,231.8 318.4,230.9 318.6,229.9 318.8,229.3 319.0,229.8 319.2,230.4 319.4,229.7 319.7,228.2 319.9,227.4 320.1,228.3 320.3,230.1 320.5,230.0 320.7,231.1 320.9,232.8 321.1,233.5 321.3,232.8 321.6,232.4 321.8,232.0 322.0,232.0 322.2,231.7 322.4,231.4 322.6,230.7 322.8,232.8 323.0,232.5 323.2,232.3 323.5,232.9 323.7,232.8 323.9,233.6 324.1,233.4 324.3,232.4 324.5,231.0 324.7,231.3 324.9,230.6 325.1,230.1 325.4,229.0 325.6,228.3 325.8,228.3 326.0,226.5 326.2,226.4 326.4,226.6 326.6,224.4 326.8,218.8 327.0,214.9 327.3,213.1 327.5,212.3 327.7,211.5 327.9,210.7 328.1,212.7 328.3,214.9 328.5,213.7 328.7,212.6 328.9,212.6 329.2,212.6 329.4,213.5 329.6,214.9 329.8,215.5 330.0,211.0 330.2,211.1 330.4,209.5 330.6,210.2 330.8,210.0 331.1,209.7 331.3,209.4 331.5,209.1 331.7,208.7 331.9,207.5 332.1,207.8 332.3,208.6 332.5,208.2 332.7,207.0 333.0,203.2 333.2,202.8 333.4,203.1 333.6,204.7 333.8,207.5 334.0,207.4 334.2,209.7 334.4,207.3 334.6,208.3 334.9,209.0 335.1,206.8 335.3,208.2 335.5,206.9 335.7,206.2 335.9,205.2 336.1,203.5 336.3,203.3 336.5,203.8 336.8,204.1 337.0,204.5 337.2,205.4 337.4,204.7 337.6,205.6 337.8,205.6 338.0,204.5 338.2,204.7 338.4,204.5 338.6,203.8 338.9,203.8 339.1,203.4 339.3,202.3 339.5,202.9 339.7,204.0 339.9,203.8 340.1,204.8 340.3,205.0 340.5,203.3 340.8,202.8 341.0,202.9 341.2,201.9 341.4,202.9 341.6,201.8 341.8,201.1 342.0,201.4 342.2,201.9 342.4,201.4 342.7,201.1 342.9,201.5 343.1,201.2 343.3,201.5 343.5,202.5 343.7,200.9 343.9,199.5 344.1,200.0 344.3,198.4 344.6,199.9 344.8,199.2 345.0,199.7 345.2,199.4 345.4,198.4 345.6,196.5 345.8,194.8 346.0,195.3 346.2,194.5 346.5,192.9 346.7,193.9 346.9,193.8 347.1,191.3 347.3,179.3 347.5,180.0 347.7,185.0 347.9,188.0 348.1,184.6 348.4,185.6 348.6,190.3 348.8,188.9 349.0,186.8 349.2,191.2 349.4,188.8 349.6,188.2 349.8,188.3 350.0,187.3 350.3,185.8 350.5,182.8 350.7,183.3 350.9,183.4 351.1,183.7 351.3,182.7 351.5,180.6 351.7,183.1 351.9,185.1 352.2,186.7 352.4,185.7 352.6,185.2 352.8,186.1 353.0,186.0 353.2,184.1 353.4,182.3 353.6,183.1 353.8,181.9 354.1,182.6 354.3,185.8 354.5,186.8 354.7,188.2 354.9,187.6 355.1,187.8 355.3,200.6 355.5,201.2 355.7,203.3 356.0,206.5 356.2,204.3 356.4,203.9 356.6,207.1 356.8,208.0 357.0,205.6 357.2,206.3 357.4,208.8 357.6,208.1 357.9,204.9 358.1,204.9 358.3,205.5 358.5,205.7 358.7,205.0 358.9,204.0 359.1,203.2 359.3,204.6 359.5,205.0 359.8,204.4 360.0,206.2 360.2,205.7 360.4,200.2 360.6,199.0 360.8,201.1 361.0,195.9 361.2,197.4 361.4,197.5 361.7,197.6 361.9,198.1 362.1,198.4 362.3,196.7 362.5,195.2 362.7,194.0 362.9,192.5 363.1,194.0 363.3,193.2 363.6,193.0 363.8,192.4 364.0,192.2 364.2,192.2 364.4,192.7 364.6,194.9 364.8,196.8 365.0,198.3 365.2,195.0 365.5,198.8 365.7,199.6 365.9,198.6 366.1,198.5 366.3,197.8 366.5,198.4 366.7,197.4 366.9,198.0 367.1,198.8 367.4,200.1 367.6,199.0 367.8,198.2 368.0,199.2 368.2,199.7 368.4,199.4 368.6,202.0 368.8,204.1 369.0,204.5 369.3,205.5 369.5,206.1 369.7,205.1 369.9,204.9 370.1,204.5 370.3,204.0 370.5,203.1 370.7,200.7 370.9,200.6 371.2,198.9 371.4,202.6 371.6,201.1 371.8,200.1 372.0,200.4 372.2,201.2 372.4,202.2 372.6,206.7 372.8,207.8 373.1,207.3 373.3,205.1 373.5,203.5 373.7,202.7 373.9,206.1 374.1,205.2 374.3,204.4 374.5,202.7 374.7,201.5 375.0,200.2 375.2,199.6 375.4,202.6 375.6,202.9 375.8,201.2 376.0,200.9 376.2,199.9 376.4,200.7 376.6,199.3 376.9,198.5 377.1,198.0 377.3,199.1 377.5,199.0 377.7,199.1 377.9,199.6 378.1,199.3 378.3,198.7 378.5,199.5 378.7,199.1 379.0,199.9 379.2,200.7 379.4,202.1 379.6,201.5 379.8,202.9 380.0,202.5 380.2,202.8 380.4,203.5 380.6,203.4 380.9,200.4 381.1,201.0 381.3,201.3 381.5,204.0 381.7,205.6 381.9,204.0 382.1,204.4 382.3,203.2 382.5,202.9 382.8,202.5 383.0,202.5 383.2,202.1 383.4,201.6 383.6,202.4 383.8,200.7 384.0,202.8 384.2,202.3 384.4,201.8 384.7,202.1 384.9,203.6 385.1,206.0 385.3,205.0 385.5,206.6 385.7,203.8 385.9,203.4 386.1,205.8 386.3,207.8 386.6,211.8 386.8,213.3 387.0,217.4 387.2,214.7 387.4,215.8 387.6,215.1 387.8,214.9 388.0,219.2 388.2,216.5 388.5,217.2 388.7,213.7 388.9,212.5 389.1,208.9 389.3,208.1 389.5,207.0 389.7,206.0 389.9,207.6 390.1,207.5 390.4,205.6 390.6,204.1 390.8,206.2 391.0,207.7 391.2,209.8 391.4,210.4 391.6,209.7 391.8,208.1 392.0,206.8 392.3,205.8 392.5,201.4 392.7,202.0 392.9,205.1 393.1,205.4 393.3,208.9 393.5,208.2 393.7,207.6 393.9,207.2 394.2,208.1 394.4,210.4 394.6,211.1 394.8,212.6 395.0,212.7 395.2,210.6 395.4,211.1 395.6,212.0 395.8,206.7 396.1,205.8 396.3,204.6 396.5,203.5 396.7,206.5 396.9,209.6 397.1,206.7 397.3,205.3 397.5,204.9 397.7,208.0 398.0,207.6 398.2,207.5 398.4,210.1 398.6,209.3 398.8,209.3 399.0,207.5 399.2,205.1 399.4,205.9 399.6,206.2 399.9,208.9 400.1,214.9 400.3,218.9 400.5,218.5 400.7,216.6 400.9,215.2 401.1,214.9 401.3,217.3 401.5,215.9 401.8,216.6 402.0,216.5 402.2,215.9 402.4,215.8 402.6,215.6 402.8,214.6 403.0,214.9 403.2,214.5 403.4,214.9 403.7,215.5 403.9,217.0 404.1,215.5 404.3,215.2 404.5,214.9 404.7,216.2 404.9,216.4 405.1,215.4 405.3,216.2 405.6,216.8 405.8,217.8 406.0,217.6 406.2,218.4 406.4,217.8 406.6,217.0 406.8,216.8 407.0,215.6 407.2,214.0 407.5,214.8 407.7,214.6 407.9,215.0 408.1,214.1 408.3,215.8 408.5,216.1 408.7,214.6 408.9,215.7 409.1,215.6 409.4,214.8 409.6,214.6 409.8,212.0 410.0,212.0 410.2,212.3 410.4,211.6 410.6,211.0 410.8,212.4 411.0,212.1 411.3,213.5 411.5,213.4 411.7,213.1 411.9,214.1 412.1,216.7 412.3,217.2 412.5,216.5 412.7,215.9 412.9,215.9 413.2,215.1 413.4,214.7 413.6,214.0 413.8,215.0 414.0,215.6 414.2,216.1 414.4,215.8 414.6,215.2 414.8,216.7 415.1,216.7 415.3,216.8 415.5,217.3 415.7,218.0 415.9,216.1 416.1,215.7 416.3,214.9 416.5,214.9 416.7,214.5 417.0,213.3 417.2,212.5 417.4,213.0 417.6,214.2 417.8,216.6 418.0,216.6 418.2,217.1 418.4,218.2 418.6,219.5 418.8,218.2 419.1,217.8 419.3,217.8 419.5,217.3 419.7,217.9 419.9,216.5 420.1,216.0 420.3,215.5 420.5,215.8 420.7,215.9 421.0,216.4 421.2,217.1 421.4,216.3 421.6,215.7 421.8,216.1 422.0,232.7 422.2,229.5 422.4,226.8 422.6,223.2 422.9,222.3 423.1,221.3 423.3,220.4 423.5,222.9 423.7,225.1 423.9,225.1 424.1,224.6 424.3,225.1 424.5,225.0 424.8,225.0 425.0,226.5 425.2,227.6 425.4,227.7 425.6,227.3 425.8,228.1 426.0,228.4 426.2,228.8 426.4,229.9 426.7,228.4 426.9,229.2 427.1,229.2 427.3,230.0 427.5,231.1 427.7,231.8 427.9,231.9 428.1,232.6 428.3,233.0 428.6,231.6 428.8,231.4 429.0,232.9 429.2,232.2 429.4,234.4 429.6,235.2 429.8,233.1 430.0,230.0 430.2,230.3 430.5,228.7 430.7,228.7 430.9,230.9 431.1,230.2 431.3,231.3 431.5,230.7 431.7,230.5 431.9,231.2 432.1,231.7 432.4,230.3 432.6,229.4 432.8,228.6 433.0,229.9 433.2,227.8 433.4,226.0 433.6,224.2 433.8,224.7 434.0,224.6 434.3,223.2 434.5,223.7 434.7,223.1 434.9,222.2 435.1,221.5 435.3,221.5 435.5,222.6 435.7,220.1 435.9,219.1 436.2,218.0 436.4,221.1 436.6,222.6 436.8,220.4 437.0,219.3 437.2,219.7 437.4,220.8 437.6,221.1 437.8,219.6 438.1,219.3 438.3,219.1 438.5,218.2 438.7,217.9 438.9,217.4 439.1,215.8 439.3,214.7 439.5,214.1 439.7,214.2 440.0,215.4 440.2,215.7 440.4,213.5 440.6,213.3 440.8,211.9 441.0,212.1 441.2,209.5 441.4,208.1 441.6,209.4 441.9,209.1 442.1,209.2 442.3,205.7 442.5,205.2 442.7,204.3 442.9,204.1 443.1,203.0 443.3,202.0 443.5,201.9 443.8,201.6 444.0,203.5 444.2,204.2 444.4,204.7 444.6,202.9 444.8,202.9 445.0,202.3 445.2,202.9 445.4,203.7 445.7,204.9 445.9,203.5 446.1,204.0 446.3,203.7 446.5,204.3 446.7,204.2 446.9,204.0 447.1,201.9 447.3,202.8 447.6,201.1 447.8,200.5 448.0,201.3 448.2,201.8 448.4,201.3 448.6,200.3 448.8,200.7 449.0,200.7 449.2,201.4 449.5,202.1 449.7,202.1 449.9,201.0 450.1,201.9 450.3,201.2 450.5,201.7 450.7,201.1 450.9,200.3 451.1,201.5 451.4,202.1 451.6,201.2 451.8,200.1 452.0,200.1 452.2,201.4 452.4,201.4 452.6,202.3 452.8,204.4 453.0,206.3 453.3,205.7 453.5,206.0 453.7,206.6 453.9,208.3 454.1,209.1 454.3,207.7 454.5,205.4 454.7,202.9 454.9,202.3 455.2,197.0 455.4,194.5 455.6,193.3 455.8,191.6 456.0,193.9 456.2,195.2 456.4,195.6 456.6,195.1 456.8,195.0 457.0,194.3 457.3,196.1 457.5,200.2 457.7,201.0 457.9,204.2 458.1,203.9 458.3,200.7 458.5,201.9 458.7,197.5 458.9,198.7 459.2,200.5 459.4,204.4 459.6,201.9 459.8,204.8 460.0,211.9 460.2,204.2 460.4,217.2 460.6,218.8 460.8,221.4 461.1,221.4 461.3,224.3 461.5,230.4 461.7,226.2 461.9,225.6 462.1,217.8 462.3,219.3 462.5,216.0 462.7,214.9 463.0,218.3 463.2,216.2 463.4,218.4 463.6,215.4 463.8,215.8 464.0,212.0 464.2,210.6 464.4,210.0 464.6,206.5 464.9,206.9 465.1,206.8 465.3,205.0 465.5,204.4 465.7,208.6 465.9,207.3 466.1,206.6 466.3,204.9 466.5,203.7 466.8,205.8 467.0,204.7 467.2,206.4 467.4,205.7 467.6,206.8 467.8,202.9 468.0,202.9 468.2,204.2 468.4,204.5 468.7,200.2 468.9,197.5 469.1,199.2 469.3,198.0 469.5,197.3 469.7,196.5 469.9,196.7 470.1,196.8 470.3,194.9 470.6,195.8 470.8,197.3 471.0,198.0 471.2,198.0 471.4,195.3 471.6,197.3 471.8,196.9 472.0,197.1 472.2,194.9 472.5,194.1 472.7,193.3 472.9,191.8 473.1,191.1 473.3,195.7 473.5,195.5 473.7,194.8 473.9,191.9 474.1,192.2 474.4,191.7 474.6,191.3 474.8,190.7 475.0,190.7 475.2,192.8 475.4,191.0 475.6,191.8 475.8,191.5 476.0,189.9 476.3,189.0 476.5,189.2 476.7,189.1 476.9,188.8 477.1,188.8 477.3,190.1 477.5,191.2 477.7,190.2 477.9,188.1 478.2,186.6 478.4,187.1 478.6,186.3 478.8,187.5 479.0,189.5 479.2,189.2 479.4,188.9 479.6,189.8 479.8,189.7 480.1,190.2 480.3,189.9 480.5,190.8 480.7,191.9 480.9,190.9 481.1,192.5 481.3,193.6 481.5,194.3 481.7,193.9 482.0,194.4 482.2,194.2 482.4,191.3 482.6,192.1 482.8,191.8 483.0,190.5 483.2,191.2 483.4,190.8 483.6,191.6 483.9,192.0 484.1,192.3 484.3,192.8 484.5,192.5 484.7,192.5 484.9,192.7 485.1,191.1 485.3,194.6 485.5,192.9 485.8,195.0 486.0,195.0 486.2,196.7 486.4,195.2 486.6,197.2 486.8,197.2 487.0,196.4 487.2,195.9 487.4,197.1 487.7,197.3 487.9,196.8 488.1,197.8 488.3,198.3 488.5,199.9 488.7,201.2 488.9,200.9 489.1,199.7 489.3,200.2 489.6,199.4 489.8,199.9 490.0,201.0 490.2,199.0 490.4,201.2 490.6,200.0 490.8,199.7 491.0,199.3 491.2,198.6 491.5,199.2 491.7,199.8 491.9,200.7 492.1,199.6 492.3,201.7 492.5,201.8 492.7,203.3 492.9,201.7 493.1,201.7 493.4,202.1 493.6,203.5 493.8,206.0 494.0,205.8 494.2,200.8 494.4,197.4 494.6,197.7 494.8,191.1 495.0,191.9 495.3,192.7 495.5,190.4 495.7,186.8 495.9,187.5 496.1,188.0 496.3,186.7 496.5,187.3 496.7,186.5 496.9,187.0 497.1,186.1 497.4,185.0 497.6,183.8 497.8,182.2 498.0,181.9 498.2,181.3 498.4,181.6 498.6,182.1 498.8,181.2 499.0,181.5 499.3,179.2 499.5,180.5 499.7,178.9 499.9,178.0 500.1,179.0 500.3,180.0 500.5,181.9 500.7,183.2 500.9,181.5 501.2,181.3 501.4,181.7 501.6,182.4 501.8,183.2 502.0,182.8 502.2,182.8 502.4,182.6 502.6,181.5 502.8,181.0 503.1,179.3 503.3,180.9 503.5,179.9 503.7,180.7 503.9,179.7 504.1,179.2 504.3,177.7 504.5,177.1 504.7,174.8 505.0,174.4 505.2,175.4 505.4,174.0 505.6,173.6 505.8,174.7 506.0,175.1 506.2,175.4 506.4,176.8 506.6,182.1 506.9,180.9 507.1,182.4 507.3,182.6 507.5,181.5 507.7,178.4 507.9,177.1 508.1,176.9 508.3,178.5 508.5,179.8 508.8,181.0 509.0,181.3 509.2,180.6 509.4,180.9 509.6,179.0 509.8,179.2 510.0,180.1 510.2,178.3 510.4,179.0 510.7,176.9 510.9,178.1 511.1,177.7 511.3,177.2 511.5,177.6 511.7,178.6 511.9,179.6 512.1,178.6 512.3,179.2 512.6,178.6 512.8,177.5 513.0,177.6 513.2,177.3 513.4,175.6 513.6,175.1 513.8,180.1 514.0,181.2 514.2,181.6 514.5,179.4 514.7,180.3 514.9,181.9 515.1,181.1 515.3,179.3 515.5,178.6 515.7,178.6 515.9,177.3 516.1,177.1 516.4,179.1 516.6,179.8 516.8,180.0 517.0,179.2 517.2,177.9 517.4,177.3 517.6,177.3 517.8,178.2 518.0,177.3 518.3,176.5 518.5,175.9 518.7,175.5 518.9,174.0 519.1,174.6 519.3,173.5 519.5,173.5 519.7,173.5 519.9,173.0 520.2,173.9 520.4,173.4 520.6,170.8 520.8,171.4 521.0,169.9 521.2,169.6 521.4,169.9 521.6,169.5 521.8,170.6 522.1,170.6 522.3,169.2 522.5,169.4 522.7,169.0 522.9,168.7 523.1,169.8 523.3,168.8 523.5,169.6 523.7,169.8 524.0,170.9 524.2,170.8 524.4,172.7 524.6,172.0 524.8,172.8 525.0,173.5 525.2,172.8 525.4,172.7 525.6,172.1 525.9,172.7 526.1,171.3 526.3,169.5 526.5,170.2 526.7,170.2 526.9,169.9 527.1,170.1 527.3,170.6 527.5,172.1 527.8,170.7 528.0,170.8 528.2,171.3 528.4,170.7 528.6,172.2 528.8,172.2 529.0,172.7 529.2,172.5 529.4,171.1 529.7,170.4 529.9,169.9 530.1,169.1 530.3,169.4 530.5,169.2 530.7,168.4 530.9,168.2 531.1,167.6 531.3,167.7 531.6,167.5 531.8,169.2 532.0,168.6 532.2,167.9 532.4,167.5 532.6,166.9 532.8,167.3 533.0,167.1 533.2,166.7 533.5,166.4 533.7,168.4 533.9,169.1 534.1,168.5 534.3,169.4 534.5,169.4 534.7,169.9 534.9,170.3 535.1,169.6 535.4,170.5 535.6,169.0 535.8,168.3 536.0,166.8 536.2,165.8 536.4,167.7 536.6,167.1 536.8,166.4 537.0,166.0 537.2,165.8 537.5,165.2 537.7,165.2 537.9,165.8 538.1,165.1 538.3,164.9 538.5,171.7 538.7,171.9 538.9,172.3 539.1,174.5 539.4,173.3 539.6,176.0 539.8,176.5 540.0,175.8 540.2,176.7 540.4,175.6 540.6,175.3 540.8,175.6 541.0,176.7 541.3,176.1 541.5,176.7 541.7,175.9 541.9,176.2 542.1,175.6 542.3,175.9 542.5,174.6 542.7,175.5 542.9,174.4 543.2,174.7 543.4,174.1 543.6,174.2 543.8,172.9 544.0,172.6 544.2,173.4 544.4,174.9 544.6,174.9 544.8,173.5 545.1,173.1 545.3,174.7 545.5,174.7 545.7,173.9 545.9,173.6 546.1,173.3 546.3,173.8 546.5,173.0 546.7,173.9 547.0,172.8 547.2,168.7 547.4,168.5 547.6,167.2 547.8,166.3 548.0,166.7 548.2,166.6 548.4,167.5 548.6,167.9 548.9,167.0 549.1,167.1 549.3,166.8 549.5,166.9 549.7,167.2 549.9,166.5 550.1,166.7 550.3,167.4 550.5,167.9 550.8,165.3 551.0,165.5 551.2,167.2 551.4,166.9 551.6,168.2 551.8,167.7 552.0,166.9 552.2,165.3 552.4,163.4 552.7,163.2 552.9,163.0 553.1,161.2 553.3,160.3 553.5,159.5 553.7,158.9 553.9,156.8 554.1,155.7 554.3,157.3 554.6,156.3 554.8,157.0 555.0,155.5 555.2,154.8 555.4,153.8 555.6,153.8 555.8,153.2 556.0,152.8 556.2,153.2 556.5,153.1 556.7,153.3 556.9,152.8 557.1,153.3 557.3,153.5 557.5,152.5 557.7,152.1 557.9,151.9 558.1,153.5 558.4,151.8 558.6,151.2 558.8,152.3 559.0,153.8 559.2,154.6 559.4,154.4 559.6,153.8 559.8,153.0 560.0,151.8 560.3,150.5 560.5,151.2 560.7,151.1 560.9,150.0 561.1,148.6 561.3,148.6 561.5,147.4 561.7,146.7 561.9,146.9 562.2,147.3 562.4,147.7 562.6,147.1 562.8,145.9 563.0,145.2 563.2,145.8 563.4,146.4 563.6,145.4 563.8,144.7 564.1,145.6 564.3,142.9 564.5,144.0 564.7,144.1 564.9,142.9 565.1,142.4 565.3,142.3 565.5,143.0 565.7,144.4 566.0,143.3 566.2,143.1 566.4,143.2 566.6,141.3 566.8,139.0 567.0,138.9 567.2,137.4 567.4,137.1 567.6,136.6 567.9,136.6 568.1,137.5 568.3,136.4 568.5,135.8 568.7,135.5 568.9,135.3 569.1,134.4 569.3,135.4 569.5,135.0 569.8,135.5 570.0,134.6 570.2,131.5 570.4,129.2 570.6,128.3 570.8,131.0 571.0,132.4 571.2,136.4 571.4,134.4 571.7,136.1 571.9,137.9 572.1,137.7 572.3,136.6 572.5,138.7 572.7,138.0 572.9,138.0 573.1,137.2 573.3,137.9 573.6,143.8 573.8,143.1 574.0,142.0 574.2,140.8 574.4,140.4 574.6,140.1 574.8,141.2 575.0,140.5 575.2,140.6 575.5,139.2 575.7,139.6 575.9,138.5 576.1,138.9 576.3,140.3 576.5,140.7 576.7,141.2 576.9,143.0 577.1,142.3 577.3,140.6 577.6,141.4 577.8,141.8 578.0,143.4 578.2,144.3 578.4,143.8 578.6,143.6 578.8,144.0 579.0,142.3 579.2,142.3 579.5,144.7 579.7,146.1 579.9,148.6 580.1,149.8 580.3,149.5 580.5,148.8 580.7,149.4 580.9,145.9 581.1,143.3 581.4,142.1 581.6,140.3 581.8,139.9 582.0,140.3 582.2,139.3 582.4,139.8 582.6,139.5 582.8,139.4 583.0,140.2 583.3,140.6 583.5,140.0 583.7,139.8 583.9,140.3 584.1,140.5 584.3,140.7 584.5,138.7 584.7,141.2 584.9,141.1 585.2,142.4 585.4,142.3 585.6,141.9 585.8,140.8 586.0,140.4 586.2,140.2 586.4,141.1 586.6,145.1 586.8,147.2 587.1,147.1 587.3,146.6 587.5,148.1 587.7,148.7 587.9,147.1 588.1,147.2 588.3,146.7 588.5,146.0 588.7,145.6 589.0,145.8 589.2,145.7 589.4,146.4 589.6,146.5 589.8,146.1 590.0,147.1 590.2,148.0 590.4,148.8 590.6,147.8 590.9,149.8 591.1,150.3 591.3,150.4 591.5,151.1 591.7,148.4 591.9,149.9 592.1,149.0 592.3,148.2 592.5,147.0 592.8,146.4 593.0,145.9 593.2,148.3 593.4,147.7 593.6,145.7 593.8,144.7 594.0,145.6 594.2,146.2 594.4,147.2 594.7,145.4 594.9,145.3 595.1,146.6 595.3,146.2 595.5,144.3 595.7,145.6 595.9,151.3 596.1,148.5 596.3,146.0 596.6,145.2 596.8,147.2 597.0,148.2 597.2,148.5 597.4,146.4 597.6,147.4 597.8,144.5 598.0,144.5 598.2,143.6 598.5,143.4 598.7,144.4 598.9,144.5 599.1,141.9 599.3,139.5 599.5,140.1 599.7,138.5 599.9,137.9 600.1,141.5 600.4,142.3 600.6,141.9 600.8,143.5 601.0,143.5 601.2,143.0 601.4,141.2 601.6,140.9 601.8,141.5 602.0,140.2 602.3,139.9 602.5,138.9 602.7,138.1 602.9,138.9 603.1,138.7 603.3,137.0 603.5,135.7 603.7,134.1 603.9,134.3 604.2,134.2 604.4,134.9 604.6,135.0 604.8,133.3 605.0,133.0 605.2,131.9 605.4,131.7 605.6,131.8 605.8,130.9 606.1,130.6 606.3,132.2 606.5,130.9 606.7,131.2 606.9,131.2 607.1,132.2 607.3,133.7 607.5,133.1 607.7,133.6 608.0,132.7 608.2,132.1 608.4,132.2 608.6,132.3 608.8,132.7 609.0,132.5 609.2,133.1 609.4,132.6 609.6,131.9 609.9,132.0 610.1,130.2 610.3,133.0 610.5,134.2 610.7,135.7 610.9,137.7 611.1,136.9 611.3,137.4 611.5,139.6 611.8,139.9 612.0,139.4 612.2,140.0 612.4,140.6 612.6,140.5 612.8,140.7 613.0,141.4 613.2,141.9 613.4,140.5 613.7,141.2 613.9,142.4 614.1,142.1 614.3,142.3 614.5,142.2 614.7,142.5 614.9,139.9 615.1,137.8 615.3,136.8 615.6,137.5 615.8,138.4 616.0,139.4 616.2,138.3 616.4,137.9 616.6,138.7 616.8,137.8 617.0,137.4 617.2,136.5 617.4,136.7 617.7,135.9 617.9,136.4 618.1,135.4 618.3,135.9 618.5,137.3 618.7,139.4 618.9,140.8 619.1,139.3 619.3,137.9 619.6,136.7 619.8,136.6 620.0,135.9 620.2,136.5 620.4,135.4 620.6,135.0 620.8,136.8 621.0,135.9 621.2,134.2 621.5,134.5 621.7,134.1 621.9,134.3 622.1,134.3 622.3,133.5 622.5,132.8 622.7,133.2 622.9,132.6 623.1,132.2 623.4,132.3 623.6,132.3 623.8,131.7 624.0,130.7 624.2,131.3 624.4,131.6 624.6,132.5 624.8,131.5 625.0,131.2 625.3,130.8 625.5,129.9 625.7,129.4 625.9,131.2 626.1,139.0 626.3,137.6 626.5,136.0 626.7,137.3 626.9,138.7 627.2,139.9 627.4,139.5 627.6,139.9 627.8,140.3 628.0,140.5 628.2,140.4 628.4,140.0 628.6,140.4 628.8,142.5 629.1,142.5 629.3,142.4 629.5,141.4 629.7,141.5 629.9,143.0 630.1,143.9 630.3,145.6 630.5,146.3 630.7,147.1 631.0,146.1 631.2,149.2 631.4,146.8 631.6,146.8 631.8,147.8 632.0,147.1 632.2,146.3 632.4,145.9 632.6,146.2 632.9,145.8 633.1,147.2 633.3,147.5 633.5,145.6 633.7,146.2 633.9,146.8 634.1,146.4 634.3,147.5 634.5,148.1 634.8,149.8 635.0,149.8 635.2,149.3 635.4,148.3 635.6,148.1 635.8,146.3 636.0,146.5 636.2,147.7 636.4,148.4 636.7,147.7 636.9,148.1 637.1,148.0 637.3,146.4 637.5,147.2 637.7,146.0 637.9,145.2 638.1,142.2 638.3,141.2 638.6,141.6 638.8,142.6 639.0,142.4 639.2,138.0 639.4,136.7 639.6,137.5 639.8,138.1 640.0,137.6 640.2,137.8 640.5,138.7 640.7,137.0 640.9,137.5 641.1,136.8 641.3,136.3 641.5,135.9 641.7,135.8 641.9,135.9 642.1,136.3 642.4,137.2 642.6,137.1 642.8,137.1 643.0,138.3 643.2,139.1 643.4,139.4 643.6,139.3 643.8,138.8 644.0,138.7 644.3,138.3 644.5,139.1 644.7,138.4 644.9,139.7 645.1,140.0 645.3,137.9 645.5,137.8 645.7,137.8 645.9,137.7 646.2,136.5 646.4,135.0 646.6,135.9 646.8,134.8 647.0,135.1 647.2,135.0 647.4,135.1 647.6,135.5 647.8,134.4 648.1,134.8 648.3,135.3 648.5,135.8 648.7,137.8 648.9,138.3 649.1,138.8 649.3,138.7 649.5,138.8 649.7,138.3 650.0,137.8 650.2,137.9 650.4,137.6 650.6,137.4 650.8,137.6 651.0,138.0 651.2,136.8 651.4,136.8 651.6,139.1 651.9,138.7 652.1,139.6 652.3,138.6 652.5,139.3 652.7,139.3 652.9,143.5 653.1,141.5 653.3,142.0 653.5,141.1 653.8,140.6 654.0,141.8 654.2,141.9 654.4,141.3 654.6,141.4 654.8,144.1 655.0,143.7 655.2,143.7 655.4,144.0 655.7,144.4 655.9,143.9 656.1,143.9 656.3,143.9 656.5,143.6 656.7,143.8 656.9,143.6 657.1,143.4 657.3,144.0 657.5,143.7 657.8,141.2 658.0,140.5 658.2,140.0 658.4,139.7 658.6,138.6 658.8,137.6 659.0,136.8 659.2,135.5 659.4,134.3 659.7,133.7 659.9,133.3 660.1,133.8 660.3,134.2 660.5,134.1 660.7,135.3 660.9,134.7 661.1,133.3 661.3,133.5 661.6,133.3 661.8,133.4 662.0,133.3 662.2,130.4 662.4,130.0 662.6,129.4 662.8,129.0 663.0,129.5 663.2,128.9 663.5,127.5 663.7,128.1 663.9,128.0 664.1,128.5 664.3,128.2 664.5,127.5 664.7,126.7 664.9,126.3 665.1,125.1 665.4,127.0 665.6,126.5 665.8,126.9 666.0,127.1 666.2,126.6 666.4,126.9 666.6,125.1 666.8,124.5 667.0,123.1 667.3,122.0 667.5,121.0 667.7,121.2 667.9,121.5 668.1,122.1 668.3,122.0 668.5,121.3 668.7,120.2 668.9,119.7 669.2,120.6 669.4,121.0 669.6,120.1 669.8,119.4 670.0,119.0 670.2,118.9 670.4,119.5 670.6,120.5 670.8,119.0 671.1,120.0 671.3,118.8 671.5,117.9 671.7,118.1 671.9,119.0 672.1,118.6 672.3,117.9 672.5,118.5 672.7,117.8 673.0,119.5 673.2,119.2 673.4,118.6 673.6,120.4 673.8,119.7 674.0,119.2 674.2,119.2 674.4,118.8 674.6,118.2 674.9,117.3 675.1,118.0 675.3,118.1 675.5,119.8 675.7,124.9 675.9,123.7 676.1,123.9 676.3,123.7 676.5,124.3 676.8,125.1 677.0,127.2 677.2,127.5 677.4,127.0 677.6,126.1 677.8,125.8 678.0,124.8 678.2,124.0 678.4,123.1 678.7,124.1 678.9,124.4 679.1,128.7 679.3,127.6 679.5,127.0 679.7,127.5 679.9,128.0 680.1,126.3 680.3,126.9 680.6,127.0 680.8,128.2 681.0,128.3 681.2,128.1 681.4,127.8 681.6,127.6 681.8,126.3 682.0,126.0 682.2,124.8 682.5,125.9 682.7,126.8 682.9,128.7 683.1,129.5 683.3,130.2 683.5,131.3 683.7,131.6 683.9,130.7 684.1,127.8 684.4,128.4 684.6,127.3 684.8,125.4 685.0,123.6 685.2,123.2 685.4,122.6 685.6,124.1 685.8,125.0 686.0,124.8 686.3,123.6 686.5,123.0 686.7,122.1 686.9,121.7 687.1,122.6 687.3,121.4 687.5,122.4 687.7,122.2 687.9,123.4 688.2,122.0 688.4,122.7 688.6,125.1 688.8,126.3 689.0,124.4 689.2,124.8 689.4,123.9 689.6,123.9 689.8,122.9 690.1,122.7 690.3,123.1 690.5,122.4 690.7,119.2 690.9,121.4 691.1,120.7 691.3,120.0 691.5,120.3 691.7,118.7 692.0,115.5 692.2,114.0 692.4,115.7 692.6,113.2 692.8,113.9 693.0,111.8 693.2,112.0 693.4,114.4 693.6,113.8 693.9,112.9 694.1,111.4 694.3,111.7 694.5,111.5 694.7,111.0 694.9,110.2 695.1,110.0 695.3,109.7 695.5,108.3 695.8,108.7 696.0,108.5 696.2,108.5 696.4,108.0 696.6,108.0 696.8,108.8 697.0,109.0 697.2,109.1 697.4,108.6 697.6,107.9 697.9,108.2 698.1,110.2 698.3,110.0 698.5,108.5 698.7,107.1 698.9,109.4 699.1,109.7 699.3,109.6 699.5,108.9 699.8,109.9 700.0,110.2 700.2,109.9 700.4,109.9 700.6,109.8 700.8,109.9 701.0,111.0 701.2,110.7 701.4,109.3 701.7,108.0 701.9,108.3 702.1,108.3 702.3,109.0 702.5,109.5 702.7,109.9 702.9,110.2 703.1,109.3 703.3,109.5 703.6,109.6 703.8,108.9 704.0,110.0 704.2,110.6 704.4,111.6 704.6,111.4 704.8,112.6 705.0,111.5 705.2,111.9 705.5,111.0 705.7,111.9 705.9,111.0 706.1,111.1 706.3,105.4 706.5,104.3 706.7,104.4 706.9,105.9 707.1,105.3 707.4,105.5 707.6,105.8 707.8,106.3 708.0,118.8 708.2,120.7 708.4,121.1 708.6,121.5 708.8,124.0 709.0,123.3 709.3,123.2 709.5,122.5 709.7,120.3 709.9,117.5 710.1,117.5 710.3,115.3 710.5,114.3 710.7,114.4 710.9,115.0 711.2,115.1 711.4,117.8 711.6,117.9 711.8,117.9 712.0,117.7 712.2,118.2 712.4,118.9 712.6,119.5 712.8,119.4 713.1,120.4 713.3,118.3 713.5,119.6 713.7,120.4 713.9,118.2 714.1,116.8 714.3,115.9 714.5,116.3 714.7,117.0 715.0,117.9 715.2,117.1 715.4,116.2 715.6,115.3 715.8,115.9 716.0,116.2 716.2,116.7 716.4,118.5 716.6,117.6 716.9,118.3 717.1,119.6 717.3,118.4 717.5,119.5 717.7,118.9 717.9,120.8 718.1,120.0 718.3,120.2 718.5,116.6 718.8,117.8 719.0,117.5 719.2,117.3 719.4,113.0 719.6,109.9 719.8,110.0 720.0,109.1 720.2,108.5 720.4,109.7 720.7,109.8 720.9,109.1 721.1,108.5 721.3,108.3 721.5,108.6 721.7,107.0 721.9,106.4 722.1,104.8 722.3,104.2 722.6,103.3 722.8,103.3 723.0,103.8 723.2,102.9 723.4,101.1 723.6,100.0 723.8,101.6 724.0,100.0 724.2,100.3 724.5,98.8 724.7,97.7 724.9,99.1 725.1,99.7 725.3,100.0 725.5,99.9 725.7,98.7 725.9,99.0 726.1,99.7 726.4,99.8 726.6,100.6 726.8,101.0 727.0,104.6 727.2,104.6 727.4,103.9 727.6,102.8 727.8,100.9 728.0,102.3 728.3,102.8 728.5,104.4 728.7,111.5 728.9,111.7 729.1,117.3 729.3,115.1 729.5,118.1 729.7,117.6 729.9,115.5 730.2,115.8 730.4,118.6 730.6,117.9 730.8,119.4 731.0,117.4 731.2,115.7 731.4,114.0 731.6,111.1 731.8,108.0 732.1,107.4 732.3,106.7 732.5,107.5 732.7,105.1 732.9,106.2 733.1,110.5 733.3,110.1 733.5,111.3 733.7,111.8 734.0,109.1 734.2,110.1 734.4,115.5 734.6,113.3 734.8,112.1 735.0,111.3 735.2,111.7 735.4,113.2 735.6,112.9 735.9,112.5 736.1,111.2 736.3,112.6 736.5,111.3 736.7,111.1 736.9,110.6 737.1,110.5 737.3,110.4 737.5,110.4 737.7,109.2 738.0,109.5 738.2,109.4 738.4,108.4 738.6,107.9 738.8,108.6 739.0,108.7 739.2,111.4 739.4,111.4 739.6,111.5 739.9,112.2 740.1,111.3 740.3,111.4 740.5,110.7 740.7,113.0 740.9,111.3 741.1,109.1 741.3,108.8 741.5,109.5 741.8,110.3 742.0,109.2 742.2,108.8 742.4,106.7 742.6,107.9 742.8,108.4 743.0,110.1 743.2,108.0 743.4,107.6 743.7,108.7 743.9,110.9 744.1,109.7 744.3,108.0 744.5,107.9 744.7,108.2 744.9,109.0 745.1,107.7 745.3,108.6 745.6,108.8 745.8,105.8 746.0,104.8 746.2,104.2 746.4,105.3 746.6,104.1 746.8,104.4 747.0,104.2 747.2,104.2 747.5,102.8 747.7,101.4 747.9,100.4 748.1,100.5 748.3,100.7 748.5,99.3 748.7,99.2 748.9,98.7 749.1,100.1 749.4,99.7 749.6,99.8 749.8,99.9 750.0,98.8 750.2,98.1 750.4,98.1 750.6,97.6 750.8,97.8 751.0,99.1 751.3,98.8 751.5,98.2 751.7,94.5 751.9,95.3 752.1,95.6 752.3,96.2 752.5,94.3 752.7,93.8 752.9,93.6 753.2,93.5 753.4,93.5 753.6,94.6 753.8,95.2 754.0,94.4 754.2,93.3 754.4,89.9 754.6,84.8 754.8,87.9 755.1,88.9 755.3,90.4 755.5,89.3 755.7,90.0 755.9,90.2 756.1,90.3 756.3,90.4 756.5,90.8 756.7,91.4 757.0,91.1 757.2,90.0 757.4,89.0 757.6,89.2 757.8,90.3 758.0,90.5 758.2,90.6 758.4,90.6 758.6,90.8 758.9,91.8 759.1,90.5 759.3,94.8 759.5,97.4 759.7,95.7 759.9,95.3 760.1,94.4 760.3,94.3 760.5,94.5 760.8,91.8 761.0,88.5 761.2,88.9 761.4,88.9 761.6,88.2 761.8,88.2 762.0,88.6 762.2,90.0 762.4,87.3 762.7,90.0 762.9,89.1 763.1,90.8 763.3,90.7 763.5,91.8 763.7,92.1 763.9,89.7 764.1,90.3 764.3,91.4 764.6,92.6 764.8,92.7 765.0,91.8 765.2,92.3 765.4,92.6 765.6,90.8 765.8,92.4 766.0,92.1 766.2,92.8 766.5,91.1 766.7,90.7 766.9,90.3 767.1,89.9 767.3,89.8 767.5,89.5 767.7,89.9 767.9,90.4 768.1,90.1 768.4,93.9 768.6,92.3 768.8,88.4 769.0,92.2 769.2,93.9 769.4,93.9 769.6,93.6 769.8,93.2 770.0,95.3 770.3,95.6 770.5,95.8 770.7,94.9 770.9,94.0 771.1,93.5 771.3,92.9 771.5,91.6 771.7,93.8 771.9,93.0 772.2,91.9 772.4,90.8 772.6,90.8 772.8,94.4 773.0,93.6 773.2,91.8 773.4,91.8 773.6,92.2 773.8,92.8 774.1,90.1 774.3,88.5 774.5,87.9 774.7,89.6 774.9,91.4 775.1,91.2 775.3,89.3 775.5,89.7 775.7,90.3 776.0,91.2 776.2,88.2 776.4,87.3 776.6,87.5 776.8,86.6 777.0,88.1 777.2,89.0 777.4,90.1 777.6,90.3 777.8,90.0 778.1,91.0 778.3,93.3 778.5,92.6 778.7,93.3 778.9,98.3 779.1,99.2 779.3,99.8 779.5,99.8 779.7,99.7 780.0,98.8 780.2,97.0 780.4,97.8 780.6,96.2 780.8,94.3 781.0,95.4 781.2,98.1 781.4,99.0 781.6,99.2 781.9,96.8 782.1,96.5 782.3,98.5 782.5,99.1 782.7,97.4 782.9,97.5 783.1,97.2 783.3,97.5 783.5,99.6 783.8,99.0 784.0,101.1 784.2,100.9 784.4,101.9 784.6,102.6 784.8,102.4 785.0,99.5 785.2,96.2 785.4,98.3 785.7,97.6 785.9,98.5 786.1,99.0 786.3,100.1 786.5,100.6 786.7,100.0 786.9,97.7 787.1,97.4 787.3,96.4 787.6,96.6 787.8,97.0 788.0,95.1 788.2,95.8 788.4,94.8 788.6,94.3 788.8,95.4 789.0,94.4 789.2,93.0 789.5,93.4 789.7,95.5 789.9,94.4 790.1,93.7 790.3,90.4 790.5,89.4 790.7,91.1 790.9,90.2 791.1,90.4 791.4,90.4 791.6,89.2 791.8,91.8 792.0,91.4 792.2,91.9 792.4,93.9 792.6,88.3 792.8,86.4 793.0,86.3 793.3,83.1 793.5,79.3 793.7,78.9 793.9,79.9 794.1,80.1 794.3,76.5 794.5,78.7 794.7,78.8 794.9,79.5 795.2,80.5 795.4,81.2 795.6,81.3 795.8,82.5 796.0,82.7"/>
<text x="78" y="392" font-size="11" fill="#16a34a">Total return +1,089%</text><text x="268" y="392" font-size="11" fill="#2563eb">Price-only +595.1%</text><text x="78" y="362" font-size="11" text-anchor="middle" fill="#64748b">2013-01</text><text x="257" y="362" font-size="11" text-anchor="middle" fill="#64748b">2016-05</text><text x="437" y="362" font-size="11" text-anchor="middle" fill="#64748b">2019-10</text><text x="617" y="362" font-size="11" text-anchor="middle" fill="#64748b">2023-02</text><text x="796" y="362" font-size="11" text-anchor="middle" fill="#64748b">2026-07</text></svg>