<svg xmlns="http://www.w3.org/2000/svg" width="820" height="410" viewBox="0 0 820 410">
<rect width="820" height="410" fill="#fafafa"/><text x="78" y="22" font-size="14" font-family="sans-serif" fill="#0f172a">ALLE cumulative return since 2013-11-18 | dividends reinvested</text>
<text x="78" y="40" font-size="11" font-family="sans-serif" fill="#334155">Total return +226.7% | Price-only +185.8% | logarithmic scale</text>
<text x="78" y="54" font-size="9" font-family="sans-serif" fill="#64748b">Regular $15.03 | Special $0.00 | Other $0.00 per initial share path</text>
<line x1="78" y1="332.0" x2="796" y2="332.0" stroke="#e2e8f0"/><text x="70" y="336.0" font-size="10" text-anchor="end" fill="#64748b">-23.8%</text><line x1="78" y1="291.4" x2="796" y2="291.4" stroke="#e2e8f0"/><text x="70" y="295.4" font-size="10" text-anchor="end" fill="#64748b">0%</text><line x1="78" y1="287.0" x2="796" y2="287.0" stroke="#e2e8f0"/><text x="70" y="291.0" font-size="10" text-anchor="end" fill="#64748b">+3.0%</text><line x1="78" y1="242.0" x2="796" y2="242.0" stroke="#e2e8f0"/><text x="70" y="246.0" font-size="10" text-anchor="end" fill="#64748b">+39.1%</text><line x1="78" y1="197.0" x2="796" y2="197.0" stroke="#e2e8f0"/><text x="70" y="201.0" font-size="10" text-anchor="end" fill="#64748b">+87.9%</text><line x1="78" y1="152.0" x2="796" y2="152.0" stroke="#e2e8f0"/><text x="70" y="156.0" font-size="10" text-anchor="end" fill="#64748b">+153.8%</text><line x1="78" y1="107.0" x2="796" y2="107.0" stroke="#e2e8f0"/><text x="70" y="111.0" font-size="10" text-anchor="end" fill="#64748b">+242.9%</text><line x1="78" y1="62.0" x2="796" y2="62.0" stroke="#e2e8f0"/><text x="70" y="66.0" font-size="10" text-anchor="end" fill="#64748b">+363.3%</text>
<line x1="78" y1="332" x2="796" y2="332" stroke="#cbd5e1"/>
<polyline fill="none" stroke="#2563eb" stroke-width="2" points="78.0,291.4 78.2,299.9 78.5,303.7 78.7,306.6 78.9,305.9 79.1,305.3 79.4,308.6 79.6,308.5 79.8,308.5 80.0,308.8 80.3,309.7 80.5,313.4 80.7,316.3 80.9,317.5 81.2,315.8 81.4,310.9 81.6,311.2 81.8,309.4 82.1,308.4 82.3,306.9 82.5,306.7 82.7,305.0 83.0,304.3 83.2,305.0 83.4,303.7 83.6,303.9 83.9,303.5 84.1,303.7 84.3,305.5 84.5,305.2 84.8,307.1 85.0,306.0 85.2,307.0 85.4,306.3 85.7,306.3 85.9,305.4 86.1,300.1 86.3,295.9 86.6,293.5 86.8,294.4 87.0,294.7 87.2,292.9 87.5,292.3 87.7,291.3 87.9,293.7 88.1,296.5 88.4,297.3 88.6,293.7 88.8,293.5 89.0,288.5 89.3,288.7 89.5,294.6 89.7,292.7 90.0,294.1 90.2,289.0 90.4,286.9 90.6,287.2 90.9,287.1 91.1,286.7 91.3,286.4 91.5,287.9 91.8,286.4 92.0,289.3 92.2,282.3 92.4,279.8 92.7,278.4 92.9,273.7 93.1,273.4 93.3,271.5 93.6,274.3 93.8,276.7 94.0,275.2 94.2,275.4 94.5,277.5 94.7,276.9 94.9,277.2 95.1,273.9 95.4,274.5 95.6,276.3 95.8,277.2 96.0,278.1 96.3,277.2 96.5,277.2 96.7,274.8 96.9,275.8 97.2,276.7 97.4,277.4 97.6,280.8 97.8,282.5 98.1,280.4 98.3,280.4 98.5,275.5 98.7,273.4 99.0,272.6 99.2,276.0 99.4,282.0 99.6,282.6 99.9,282.3 100.1,284.7 100.3,286.7 100.6,287.4 100.8,286.9 101.0,286.1 101.2,286.3 101.5,284.9 101.7,283.8 101.9,285.6 102.1,286.0 102.4,288.1 102.6,290.3 102.8,290.1 103.0,288.7 103.3,283.1 103.5,284.7 103.7,286.6 103.9,287.1 104.2,287.0 104.4,288.7 104.6,286.7 104.8,285.3 105.1,285.3 105.3,287.4 105.5,292.0 105.7,288.9 106.0,286.1 106.2,285.3 106.4,284.6 106.6,282.4 106.9,279.6 107.1,279.5 107.3,278.2 107.5,276.6 107.8,279.8 108.0,280.7 108.2,279.7 108.4,277.6 108.7,274.4 108.9,270.2 109.1,268.9 109.3,267.9 109.6,268.9 109.8,269.5 110.0,269.6 110.2,266.8 110.5,266.5 110.7,266.3 110.9,266.4 111.1,265.5 111.4,265.7 111.6,268.0 111.8,268.0 112.1,268.9 112.3,270.9 112.5,268.0 112.7,267.0 113.0,266.2 113.2,266.7 113.4,269.7 113.6,271.1 113.9,270.8 114.1,270.9 114.3,269.7 114.5,269.8 114.8,270.8 115.0,271.3 115.2,274.5 115.4,272.8 115.7,273.1 115.9,272.8 116.1,274.0 116.3,272.6 116.6,272.2 116.8,276.4 117.0,279.6 117.2,276.2 117.5,282.5 117.7,285.7 117.9,286.4 118.1,285.6 118.4,286.4 118.6,287.1 118.8,284.9 119.0,285.7 119.3,283.9 119.5,280.2 119.7,280.8 119.9,280.1 120.2,279.0 120.4,279.1 120.6,279.4 120.8,280.5 121.1,281.0 121.3,279.5 121.5,279.8 121.7,280.9 122.0,282.2 122.2,282.5 122.4,280.1 122.6,280.3 122.9,279.9 123.1,279.5 123.3,280.2 123.6,281.6 123.8,281.0 124.0,280.7 124.2,284.2 124.5,284.4 124.7,283.5 124.9,283.6 125.1,284.9 125.4,287.2 125.6,289.2 125.8,290.0 126.0,289.8 126.3,292.2 126.5,291.6 126.7,292.9 126.9,294.0 127.2,293.6 127.4,293.3 127.6,289.3 127.8,291.0 128.1,297.3 128.3,295.2 128.5,297.0 128.7,298.4 129.0,301.4 129.2,302.3 129.4,300.1 129.6,298.2 129.9,296.8 130.1,296.3 130.3,292.1 130.5,295.7 130.8,291.5 131.0,289.4 131.2,289.3 131.4,286.2 131.7,285.9 131.9,279.0 132.1,277.8 132.3,276.8 132.6,277.7 132.8,277.9 133.0,276.8 133.2,278.1 133.5,278.9 133.7,279.4 133.9,279.4 134.2,280.5 134.4,280.1 134.6,278.5 134.8,275.6 135.1,275.2 135.3,275.0 135.5,274.7 135.7,275.4 136.0,276.4 136.2,277.9 136.4,275.6 136.6,276.1 136.9,274.2 137.1,273.3 137.3,273.6 137.5,271.0 137.8,272.7 138.0,272.5 138.2,274.8 138.4,274.7 138.7,275.8 138.9,276.1 139.1,276.8 139.3,274.9 139.6,272.6 139.8,272.5 140.0,270.8 140.2,270.7 140.5,270.5 140.7,270.7 140.9,270.0 141.1,270.7 141.4,271.2 141.6,272.4 141.8,272.7 142.0,272.9 142.3,270.9 142.5,268.9 142.7,270.1 142.9,272.5 143.2,272.2 143.4,271.6 143.6,275.8 143.8,277.0 144.1,278.6 144.3,278.3 144.5,274.2 144.7,273.9 145.0,275.5 145.2,275.8 145.4,274.3 145.7,273.1 145.9,275.2 146.1,273.9 146.3,272.4 146.6,270.8 146.8,267.1 147.0,265.7 147.2,267.4 147.5,267.5 147.7,267.9 147.9,265.2 148.1,262.9 148.4,263.1 148.6,269.8 148.8,265.5 149.0,263.0 149.3,263.7 149.5,263.5 149.7,263.1 149.9,263.8 150.2,265.2 150.4,262.4 150.6,263.3 150.8,263.4 151.1,264.3 151.3,266.0 151.5,264.6 151.7,265.6 152.0,264.8 152.2,263.5 152.4,264.1 152.6,262.6 152.9,263.7 153.1,259.9 153.3,259.4 153.5,256.7 153.8,257.2 154.0,257.2 154.2,258.7 154.4,258.2 154.7,256.4 154.9,254.8 155.1,256.6 155.3,256.8 155.6,255.9 155.8,255.4 156.0,255.6 156.2,255.3 156.5,255.9 156.7,256.4 156.9,258.8 157.2,259.5 157.4,258.3 157.6,259.1 157.8,261.7 158.1,261.2 158.3,259.9 158.5,258.6 158.7,260.1 159.0,257.1 159.2,258.0 159.4,257.5 159.6,258.1 159.9,256.6 160.1,255.9 160.3,254.0 160.5,255.8 160.8,256.3 161.0,255.8 161.2,253.7 161.4,251.7 161.7,255.1 161.9,255.2 162.1,254.9 162.3,255.1 162.6,254.8 162.8,255.0 163.0,255.7 163.2,256.0 163.5,256.4 163.7,257.3 163.9,255.0 164.1,254.7 164.4,253.5 164.6,254.5 164.8,253.6 165.0,252.6 165.3,255.0 165.5,254.8 165.7,256.0 165.9,257.1 166.2,255.5 166.4,255.4 166.6,256.8 166.8,257.3 167.1,258.0 167.3,256.6 167.5,256.0 167.8,255.4 168.0,254.4 168.2,254.4 168.4,254.4 168.7,255.2 168.9,255.5 169.1,259.7 169.3,259.1 169.6,258.9 169.8,260.0 170.0,260.6 170.2,260.3 170.5,263.3 170.7,261.5 170.9,258.8 171.1,257.0 171.4,255.7 171.6,257.3 171.8,256.3 172.0,256.0 172.3,255.4 172.5,257.4 172.7,256.8 172.9,256.8 173.2,255.9 173.4,256.5 173.6,253.6 173.8,250.4 174.1,251.7 174.3,251.7 174.5,252.9 174.7,253.1 175.0,252.5 175.2,253.9 175.4,253.0 175.6,251.3 175.9,251.8 176.1,252.0 176.3,251.5 176.5,250.8 176.8,248.2 177.0,248.5 177.2,249.3 177.4,253.1 177.7,258.5 177.9,263.1 178.1,267.3 178.3,261.9 178.6,258.2 178.8,258.8 179.0,260.4 179.3,263.1 179.5,261.2 179.7,260.0 179.9,262.7 180.2,258.6 180.4,259.0 180.6,258.7 180.8,257.9 181.1,257.7 181.3,255.4 181.5,255.0 181.7,254.5 182.0,256.7 182.2,255.2 182.4,258.6 182.6,258.0 182.9,259.0 183.1,260.4 183.3,266.5 183.5,269.6 183.8,265.4 184.0,263.1 184.2,264.3 184.4,262.0 184.7,262.9 184.9,260.4 185.1,260.1 185.3,260.3 185.6,261.6 185.8,262.3 186.0,262.4 186.2,258.6 186.5,258.7 186.7,259.5 186.9,254.6 187.1,256.3 187.4,249.8 187.6,250.4 187.8,249.7 188.0,248.7 188.3,247.0 188.5,248.6 188.7,247.1 188.9,243.5 189.2,246.7 189.4,248.2 189.6,249.4 189.8,249.2 190.1,250.6 190.3,251.4 190.5,247.5 190.8,248.2 191.0,250.5 191.2,248.1 191.4,248.4 191.7,245.6 191.9,243.7 192.1,244.1 192.3,245.9 192.6,247.1 192.8,244.3 193.0,242.7 193.2,242.5 193.5,240.7 193.7,242.3 193.9,245.0 194.1,242.7 194.4,244.3 194.6,245.6 194.8,247.1 195.0,246.6 195.3,248.4 195.5,247.7 195.7,246.5 195.9,244.2 196.2,246.1 196.4,248.3 196.6,248.0 196.8,247.1 197.1,245.6 197.3,246.1 197.5,244.5 197.7,243.1 198.0,243.8 198.2,245.4 198.4,248.6 198.6,248.7 198.9,252.7 199.1,257.1 199.3,260.0 199.5,260.7 199.8,259.2 200.0,262.5 200.2,258.9 200.4,262.8 200.7,264.5 200.9,266.1 201.1,266.6 201.3,259.6 201.6,261.5 201.8,259.6 202.0,260.1 202.3,261.4 202.5,258.1 202.7,258.4 202.9,262.7 203.2,261.0 203.4,260.0 203.6,269.1 203.8,275.9 204.1,274.5 204.3,272.9 204.5,267.8 204.7,265.8 205.0,263.3 205.2,262.5 205.4,263.0 205.6,262.6 205.9,256.8 206.1,256.7 206.3,253.1 206.5,250.3 206.8,250.1 207.0,252.2 207.2,247.9 207.4,248.3 207.7,247.9 207.9,250.0 208.1,251.0 208.3,252.3 208.6,251.4 208.8,251.9 209.0,250.4 209.2,249.4 209.5,250.7 209.7,250.4 209.9,249.0 210.1,248.5 210.4,248.7 210.6,249.3 210.8,251.3 211.0,251.8 211.3,251.3 211.5,250.7 211.7,250.2 211.9,250.5 212.2,246.6 212.4,247.8 212.6,248.2 212.9,244.7 213.1,249.9 213.3,249.7 213.5,251.2 213.8,251.2 214.0,249.2 214.2,250.5 214.4,250.4 214.7,249.2 214.9,250.1 215.1,250.0 215.3,251.6 215.6,249.3 215.8,248.2 216.0,246.0 216.2,243.3 216.5,246.9 216.7,246.5 216.9,244.1 217.1,245.9 217.4,246.4 217.6,246.6 217.8,245.2 218.0,244.8 218.3,243.1 218.5,245.3 218.7,244.9 218.9,245.2 219.2,244.4 219.4,243.3 219.6,242.6 219.8,242.5 220.1,242.2 220.3,242.5 220.5,240.5 220.7,240.9 221.0,241.3 221.2,240.8 221.4,241.5 221.6,240.3 221.9,240.5 222.1,241.0 222.3,241.0 222.5,241.3 222.8,238.5 223.0,238.6 223.2,240.9 223.4,241.9 223.7,241.6 223.9,240.4 224.1,240.3 224.4,241.4 224.6,238.7 224.8,238.5 225.0,238.9 225.3,238.0 225.5,245.8 225.7,249.8 225.9,244.3 226.2,240.7 226.4,237.6 226.6,239.0 226.8,240.7 227.1,240.2 227.3,239.3 227.5,237.0 227.7,236.6 228.0,235.3 228.2,235.5 228.4,234.3 228.6,233.6 228.9,234.4 229.1,232.5 229.3,232.3 229.5,233.1 229.8,231.5 230.0,232.5 230.2,231.2 230.4,232.4 230.7,230.6 230.9,231.4 231.1,231.4 231.3,232.8 231.6,234.2 231.8,234.3 232.0,233.4 232.2,234.3 232.5,233.6 232.7,233.6 232.9,232.6 233.1,231.5 233.4,230.5 233.6,231.7 233.8,232.9 234.0,232.4 234.3,233.7 234.5,232.4 234.7,231.8 234.9,232.6 235.2,232.0 235.4,233.1 235.6,232.0 235.9,233.7 236.1,233.8 236.3,232.5 236.5,231.4 236.8,232.0 237.0,234.5 237.2,236.7 237.4,243.3 237.7,242.1 237.9,243.9 238.1,245.0 238.3,243.3 238.6,244.6 238.8,242.1 239.0,242.2 239.2,241.0 239.5,238.5 239.7,239.3 239.9,240.2 240.1,238.7 240.4,237.7 240.6,240.2 240.8,238.8 241.0,240.4 241.3,242.1 241.5,241.7 241.7,240.9 241.9,243.2 242.2,242.3 242.4,244.7 242.6,242.9 242.8,244.0 243.1,241.4 243.3,240.0 243.5,241.0 243.7,242.5 244.0,242.3 244.2,242.6 244.4,241.3 244.6,246.3 244.9,246.1 245.1,252.6 245.3,250.8 245.5,250.2 245.8,251.1 246.0,251.3 246.2,251.5 246.5,250.7 246.7,246.5 246.9,245.9 247.1,243.5 247.4,238.3 247.6,237.9 247.8,239.5 248.0,239.1 248.3,241.7 248.5,240.1 248.7,242.2 248.9,240.9 249.2,240.7 249.4,241.4 249.6,240.9 249.8,242.1 250.1,241.9 250.3,243.2 250.5,246.4 250.7,247.8 251.0,248.4 251.2,247.5 251.4,245.7 251.6,246.6 251.9,245.9 252.1,247.2 252.3,246.0 252.5,246.5 252.8,247.7 253.0,249.3 253.2,247.7 253.4,246.7 253.7,246.2 253.9,246.9 254.1,246.6 254.3,246.3 254.6,248.0 254.8,248.0 255.0,249.8 255.2,248.2 255.5,245.4 255.7,244.6 255.9,245.5 256.1,246.5 256.4,248.7 256.6,245.9 256.8,244.9 257.0,246.3 257.3,245.5 257.5,244.1 257.7,243.9 258.0,247.1 258.2,247.3 258.4,244.3 258.6,243.9 258.9,245.3 259.1,244.0 259.3,245.6 259.5,246.0 259.8,245.3 260.0,246.1 260.2,242.2 260.4,242.2 260.7,242.9 260.9,241.6 261.1,232.8 261.3,232.4 261.6,233.3 261.8,234.1 262.0,232.5 262.2,230.3 262.5,229.6 262.7,227.1 262.9,228.0 263.1,228.2 263.4,228.2 263.6,228.9 263.8,231.0 264.0,228.7 264.3,228.2 264.5,228.5 264.7,229.7 264.9,230.4 265.2,229.9 265.4,229.2 265.6,227.1 265.8,226.6 266.1,227.3 266.3,226.2 266.5,225.8 266.7,225.1 267.0,225.6 267.2,227.6 267.4,226.5 267.6,226.4 267.9,226.0 268.1,226.3 268.3,225.8 268.5,225.3 268.8,224.4 269.0,224.7 269.2,224.7 269.5,226.3 269.7,227.8 269.9,226.7 270.1,226.7 270.4,226.8 270.6,225.5 270.8,225.6 271.0,225.9 271.3,223.7 271.5,224.2 271.7,222.5 271.9,220.8 272.2,220.4 272.4,219.8 272.6,218.8 272.8,217.0 273.1,215.3 273.3,219.0 273.5,220.8 273.7,221.0 274.0,221.6 274.2,221.5 274.4,221.2 274.6,222.5 274.9,222.2 275.1,222.5 275.3,221.6 275.5,222.7 275.8,221.7 276.0,219.3 276.2,222.1 276.4,221.5 276.7,218.2 276.9,217.4 277.1,218.5 277.3,218.2 277.6,217.4 277.8,217.6 278.0,219.3 278.2,219.0 278.5,218.0 278.7,216.3 278.9,216.4 279.1,219.2 279.4,219.6 279.6,220.9 279.8,221.7 280.1,219.4 280.3,217.8 280.5,216.9 280.7,215.0 281.0,213.5 281.2,212.4 281.4,212.9 281.6,213.6 281.9,214.2 282.1,213.7 282.3,213.8 282.5,215.3 282.8,214.1 283.0,216.8 283.2,214.4 283.4,213.9 283.7,212.5 283.9,215.2 284.1,214.2 284.3,213.6 284.6,213.7 284.8,212.8 285.0,215.0 285.2,215.0 285.5,214.9 285.7,215.3 285.9,215.1 286.1,214.4 286.4,215.7 286.6,215.9 286.8,218.1 287.0,219.3 287.3,214.2 287.5,213.8 287.7,214.1 287.9,213.7 288.2,214.9 288.4,215.0 288.6,214.0 288.8,212.8 289.1,213.9 289.3,215.3 289.5,218.5 289.7,217.8 290.0,217.4 290.2,218.4 290.4,217.8 290.6,218.6 290.9,219.9 291.1,221.2 291.3,220.1 291.6,222.0 291.8,221.9 292.0,221.0 292.2,220.1 292.5,220.7 292.7,219.6 292.9,218.9 293.1,218.0 293.4,217.6 293.6,215.9 293.8,216.0 294.0,214.9 294.3,214.4 294.5,214.6 294.7,213.1 294.9,211.6 295.2,211.3 295.4,211.6 295.6,211.2 295.8,209.9 296.1,210.1 296.3,208.2 296.5,208.2 296.7,206.7 297.0,206.8 297.2,206.0 297.4,204.8 297.6,204.7 297.9,203.1 298.1,204.3 298.3,203.8 298.5,203.6 298.8,202.8 299.0,202.5 299.2,201.9 299.4,199.5 299.7,201.7 299.9,201.9 300.1,203.9 300.3,202.9 300.6,202.6 300.8,202.1 301.0,203.4 301.2,201.4 301.5,204.8 301.7,215.1 301.9,215.9 302.1,212.8 302.4,210.2 302.6,211.4 302.8,212.3 303.1,212.7 303.3,210.8 303.5,210.0 303.7,210.2 304.0,212.6 304.2,210.7 304.4,209.2 304.6,211.1 304.9,212.7 305.1,212.0 305.3,211.6 305.5,210.5 305.8,210.2 306.0,210.6 306.2,211.1 306.4,210.7 306.7,210.3 306.9,211.0 307.1,208.9 307.3,208.1 307.6,210.2 307.8,212.7 308.0,213.1 308.2,210.7 308.5,211.9 308.7,212.4 308.9,212.5 309.1,211.6 309.4,213.3 309.6,212.2 309.8,211.7 310.0,216.3 310.3,214.6 310.5,214.6 310.7,215.8 310.9,215.7 311.2,216.4 311.4,217.3 311.6,217.3 311.8,216.6 312.1,216.0 312.3,213.9 312.5,213.5 312.7,214.1 313.0,211.1 313.2,211.6 313.4,208.5 313.7,207.3 313.9,209.0 314.1,208.8 314.3,209.0 314.6,205.2 314.8,206.0 315.0,206.7 315.2,206.3 315.5,206.7 315.7,205.0 315.9,204.4 316.1,206.6 316.4,205.4 316.6,207.1 316.8,213.0 317.0,218.1 317.3,216.2 317.5,216.5 317.7,221.5 317.9,219.3 318.2,216.9 318.4,217.1 318.6,216.5 318.8,212.3 319.1,211.4 319.3,206.2 319.5,204.4 319.7,205.5 320.0,205.3 320.2,202.4 320.4,203.9 320.6,208.9 320.9,212.6 321.1,212.3 321.3,210.9 321.5,209.3 321.8,209.3 322.0,207.8 322.2,203.5 322.4,203.2 322.7,205.5 322.9,206.7 323.1,206.5 323.3,205.8 323.6,206.9 323.8,206.3 324.0,205.7 324.2,208.1 324.5,211.0 324.7,208.1 324.9,209.1 325.2,210.7 325.4,206.9 325.6,210.5 325.8,208.1 326.1,206.1 326.3,205.7 326.5,207.8 326.7,208.2 327.0,207.0 327.2,208.2 327.4,206.8 327.6,208.1 327.9,206.7 328.1,206.3 328.3,204.7 328.5,206.7 328.8,207.8 329.0,208.2 329.2,212.5 329.4,210.9 329.7,219.1 329.9,220.5 330.1,221.8 330.3,221.9 330.6,225.8 330.8,226.4 331.0,223.8 331.2,224.6 331.5,224.3 331.7,223.6 331.9,221.5 332.1,221.6 332.4,222.4 332.6,223.2 332.8,222.1 333.0,222.4 333.3,219.5 333.5,218.7 333.7,218.9 333.9,217.9 334.2,217.8 334.4,218.7 334.6,219.7 334.8,217.9 335.1,223.3 335.3,220.4 335.5,219.6 335.7,218.0 336.0,217.9 336.2,216.0 336.4,214.4 336.7,214.1 336.9,212.4 337.1,214.8 337.3,213.1 337.6,212.6 337.8,213.7 338.0,216.1 338.2,216.4 338.5,220.4 338.7,220.8 338.9,223.4 339.1,223.5 339.4,221.4 339.6,221.8 339.8,221.5 340.0,220.9 340.3,222.1 340.5,220.4 340.7,222.4 340.9,220.3 341.2,219.5 341.4,220.4 341.6,218.2 341.8,217.0 342.1,217.9 342.3,216.3 342.5,217.9 342.7,218.9 343.0,217.4 343.2,218.9 343.4,216.8 343.6,216.3 343.9,213.7 344.1,213.5 344.3,214.7 344.5,213.6 344.8,214.8 345.0,214.2 345.2,213.2 345.4,211.7 345.7,210.7 345.9,211.8 346.1,211.7 346.3,213.1 346.6,213.2 346.8,210.4 347.0,206.8 347.2,206.6 347.5,204.4 347.7,204.0 347.9,202.5 348.2,203.7 348.4,204.8 348.6,203.4 348.8,202.7 349.1,202.6 349.3,204.0 349.5,203.4 349.7,203.5 350.0,203.6 350.2,200.1 350.4,200.6 350.6,201.0 350.9,199.1 351.1,199.3 351.3,199.2 351.5,199.9 351.8,202.5 352.0,200.7 352.2,198.2 352.4,197.8 352.7,197.3 352.9,198.7 353.1,199.8 353.3,200.3 353.6,199.6 353.8,198.8 354.0,197.9 354.2,196.9 354.5,196.6 354.7,196.8 354.9,198.5 355.1,199.6 355.4,201.5 355.6,202.8 355.8,208.1 356.0,211.4 356.3,209.5 356.5,209.4 356.7,207.0 356.9,208.8 357.2,211.4 357.4,213.1 357.6,213.6 357.8,211.4 358.1,216.9 358.3,211.0 358.5,211.4 358.8,213.3 359.0,208.1 359.2,206.1 359.4,203.2 359.7,201.9 359.9,201.2 360.1,200.3 360.3,199.2 360.6,198.1 360.8,199.8 361.0,201.2 361.2,200.7 361.5,203.7 361.7,201.4 361.9,200.0 362.1,199.7 362.4,200.9 362.6,199.1 362.8,200.3 363.0,199.2 363.3,198.4 363.5,195.2 363.7,195.9 363.9,196.2 364.2,193.7 364.4,198.3 364.6,199.2 364.8,201.0 365.1,203.5 365.3,203.4 365.5,202.4 365.7,203.1 366.0,205.0 366.2,209.7 366.4,208.6 366.6,212.8 366.9,215.7 367.1,219.2 367.3,225.3 367.5,219.1 367.8,217.7 368.0,219.2 368.2,217.0 368.4,214.5 368.7,217.0 368.9,217.4 369.1,215.8 369.3,213.8 369.6,212.1 369.8,212.4 370.0,212.6 370.3,213.2 370.5,213.2 370.7,214.6 370.9,213.2 371.2,210.0 371.4,212.4 371.6,212.0 371.8,210.9 372.1,208.8 372.3,208.6 372.5,207.3 372.7,205.8 373.0,205.9 373.2,204.3 373.4,203.4 373.6,200.3 373.9,199.4 374.1,197.6 374.3,196.5 374.5,196.3 374.8,193.8 375.0,192.7 375.2,196.0 375.4,196.2 375.7,202.1 375.9,202.3 376.1,201.8 376.3,199.3 376.6,201.0 376.8,201.1 377.0,198.1 377.2,198.9 377.5,196.8 377.7,198.5 377.9,198.9 378.1,199.7 378.4,202.2 378.6,202.2 378.8,201.2 379.0,200.8 379.3,199.4 379.5,200.9 379.7,201.5 379.9,200.7 380.2,201.0 380.4,202.6 380.6,200.7 380.8,203.5 381.1,203.1 381.3,201.5 381.5,201.8 381.8,199.1 382.0,197.6 382.2,194.5 382.4,194.8 382.7,193.1 382.9,192.1 383.1,190.8 383.3,191.7 383.6,193.1 383.8,193.4 384.0,192.7 384.2,191.4 384.5,192.2 384.7,192.5 384.9,192.5 385.1,192.7 385.4,192.4 385.6,189.2 385.8,189.9 386.0,188.3 386.3,185.6 386.5,185.4 386.7,184.2 386.9,184.5 387.2,184.7 387.4,179.8 387.6,181.2 387.8,184.0 388.1,183.6 388.3,182.9 388.5,182.6 388.7,184.4 389.0,183.9 389.2,182.4 389.4,180.3 389.6,182.3 389.9,183.1 390.1,180.9 390.3,183.2 390.5,184.4 390.8,184.1 391.0,184.8 391.2,186.4 391.4,183.8 391.7,187.5 391.9,183.6 392.1,182.4 392.4,178.2 392.6,177.6 392.8,177.0 393.0,175.0 393.3,175.7 393.5,176.4 393.7,175.3 393.9,174.3 394.2,176.2 394.4,174.1 394.6,172.7 394.8,171.2 395.1,171.8 395.3,171.7 395.5,172.1 395.7,172.1 396.0,170.5 396.2,168.0 396.4,166.7 396.6,168.4 396.9,168.1 397.1,167.4 397.3,168.8 397.5,168.6 397.8,169.7 398.0,169.8 398.2,168.2 398.4,167.8 398.7,167.7 398.9,170.4 399.1,169.6 399.3,172.1 399.6,171.5 399.8,170.4 400.0,171.2 400.2,176.0 400.5,175.4 400.7,177.6 400.9,176.8 401.1,177.8 401.4,179.4 401.6,180.3 401.8,183.5 402.0,183.3 402.3,185.6 402.5,184.3 402.7,185.0 402.9,187.6 403.2,186.9 403.4,192.2 403.6,191.2 403.9,190.0 404.1,188.3 404.3,190.7 404.5,190.0 404.8,189.6 405.0,193.2 405.2,192.3 405.4,192.7 405.7,191.8 405.9,189.5 406.1,188.7 406.3,190.2 406.6,188.0 406.8,185.1 407.0,184.6 407.2,186.2 407.5,185.7 407.7,183.2 407.9,182.6 408.1,179.7 408.4,179.9 408.6,180.7 408.8,179.6 409.0,179.9 409.3,180.7 409.5,181.3 409.7,180.7 409.9,180.3 410.2,179.1 410.4,179.4 410.6,177.7 410.8,181.4 411.1,182.7 411.3,181.4 411.5,178.2 411.7,179.2 412.0,179.6 412.2,181.5 412.4,182.0 412.6,180.9 412.9,182.4 413.1,180.4 413.3,178.0 413.5,177.0 413.8,177.3 414.0,175.7 414.2,175.4 414.4,176.6 414.7,163.9 414.9,164.3 415.1,161.7 415.4,161.6 415.6,160.2 415.8,160.8 416.0,158.0 416.3,158.1 416.5,159.4 416.7,160.1 416.9,161.8 417.2,161.3 417.4,161.3 417.6,162.5 417.8,159.9 418.1,159.3 418.3,156.9 418.5,157.8 418.7,156.8 419.0,158.9 419.2,157.6 419.4,157.0 419.6,156.0 419.9,153.1 420.1,153.8 420.3,155.7 420.5,155.3 420.8,155.5 421.0,153.6 421.2,152.9 421.4,152.1 421.7,150.8 421.9,150.8 422.1,148.8 422.3,150.3 422.6,152.1 422.8,153.7 423.0,151.4 423.2,151.3 423.5,151.3 423.7,150.6 423.9,151.6 424.1,151.0 424.4,150.1 424.6,150.2 424.8,150.7 425.0,150.2 425.3,149.2 425.5,151.1 425.7,151.3 426.0,153.1 426.2,152.5 426.4,152.2 426.6,151.6 426.9,150.1 427.1,150.0 427.3,149.3 427.5,145.5 427.8,146.1 428.0,147.1 428.2,144.4 428.4,144.0 428.7,146.1 428.9,146.5 429.1,144.4 429.3,142.9 429.6,143.0 429.8,144.6 430.0,141.3 430.2,137.9 430.5,140.1 430.7,141.0 430.9,139.2 431.1,136.6 431.4,135.0 431.6,134.2 431.8,136.1 432.0,133.9 432.3,138.9 432.5,142.5 432.7,144.0 432.9,145.4 433.2,147.3 433.4,150.9 433.6,151.3 433.8,158.1 434.1,162.2 434.3,154.7 434.5,156.6 434.7,150.4 435.0,152.5 435.2,156.0 435.4,162.1 435.6,157.8 435.9,162.4 436.1,178.1 436.3,166.3 436.5,186.5 436.8,179.2 437.0,188.1 437.2,192.1 437.5,211.2 437.7,219.1 437.9,207.5 438.1,199.7 438.4,187.9 438.6,196.1 438.8,190.7 439.0,195.5 439.3,208.1 439.5,208.4 439.7,209.1 439.9,191.5 440.2,194.3 440.4,191.3 440.6,190.2 440.8,189.5 441.1,186.2 441.3,191.6 441.5,192.3 441.7,186.6 442.0,192.4 442.2,197.6 442.4,194.0 442.6,190.5 442.9,188.3 443.1,184.4 443.3,180.6 443.5,179.6 443.8,182.2 444.0,186.9 444.2,191.1 444.4,188.0 444.7,186.1 444.9,182.8 445.1,179.7 445.3,180.6 445.6,183.5 445.8,192.8 446.0,193.0 446.2,194.0 446.5,189.3 446.7,191.9 446.9,187.1 447.1,192.3 447.4,191.8 447.6,186.6 447.8,184.5 448.0,183.2 448.3,183.5 448.5,182.1 448.7,183.0 449.0,175.7 449.2,174.2 449.4,161.7 449.6,161.4 449.9,165.7 450.1,170.1 450.3,180.7 450.5,179.5 450.8,179.1 451.0,176.4 451.2,176.8 451.4,178.6 451.7,179.0 451.9,179.1 452.1,179.1 452.3,186.3 452.6,186.1 452.8,187.5 453.0,183.4 453.2,179.8 453.5,180.2 453.7,179.5 453.9,177.2 454.1,180.0 454.4,179.4 454.6,182.3 454.8,180.8 455.0,180.5 455.3,176.8 455.5,173.2 455.7,172.4 455.9,173.1 456.2,172.2 456.4,169.0 456.6,166.6 456.8,179.3 457.1,181.5 457.3,181.0 457.5,185.3 457.7,185.7 458.0,186.7 458.2,183.9 458.4,182.4 458.6,183.9 458.9,182.4 459.1,184.2 459.3,182.9 459.6,179.6 459.8,177.0 460.0,176.9 460.2,179.1 460.5,180.7 460.7,179.7 460.9,182.2 461.1,182.0 461.4,184.0 461.6,182.6 461.8,178.8 462.0,180.0 462.3,179.4 462.5,178.3 462.7,177.2 462.9,178.1 463.2,179.9 463.4,176.0 463.6,182.4 463.8,183.5 464.1,186.1 464.3,185.0 464.5,187.6 464.7,186.1 465.0,184.3 465.2,181.7 465.4,177.4 465.6,177.2 465.9,178.3 466.1,186.4 466.3,185.7 466.5,190.1 466.8,189.7 467.0,187.2 467.2,184.2 467.4,184.3 467.7,184.7 467.9,185.3 468.1,184.8 468.3,181.9 468.6,181.8 468.8,180.7 469.0,177.6 469.2,177.2 469.5,171.9 469.7,175.7 469.9,176.5 470.1,176.0 470.4,175.8 470.6,177.3 470.8,175.3 471.1,177.3 471.3,180.1 471.5,178.8 471.7,181.8 472.0,184.2 472.2,188.6 472.4,185.9 472.6,185.3 472.9,180.8 473.1,177.1 473.3,180.7 473.5,177.0 473.8,178.9 474.0,166.3 474.2,161.9 474.4,165.6 474.7,168.6 474.9,163.4 475.1,158.0 475.3,161.5 475.6,162.7 475.8,163.3 476.0,164.8 476.2,163.2 476.5,159.8 476.7,161.9 476.9,163.1 477.1,163.4 477.4,162.1 477.6,164.1 477.8,163.7 478.0,162.7 478.3,165.8 478.5,164.6 478.7,167.0 478.9,167.9 479.2,169.4 479.4,169.2 479.6,166.5 479.8,167.2 480.1,165.0 480.3,163.8 480.5,165.0 480.7,165.6 481.0,165.1 481.2,164.7 481.4,162.8 481.6,164.1 481.9,162.2 482.1,160.4 482.3,162.8 482.6,162.5 482.8,159.2 483.0,155.3 483.2,155.8 483.5,155.4 483.7,155.9 483.9,159.5 484.1,160.5 484.4,162.9 484.6,162.5 484.8,163.2 485.0,162.1 485.3,164.0 485.5,166.0 485.7,167.1 485.9,165.9 486.2,168.1 486.4,172.9 486.6,168.4 486.8,167.6 487.1,166.9 487.3,166.3 487.5,163.7 487.7,159.5 488.0,159.9 488.2,158.4 488.4,156.9 488.6,158.0 488.9,169.0 489.1,169.7 489.3,171.1 489.5,170.1 489.8,170.2 490.0,170.4 490.2,169.7 490.4,172.1 490.7,170.5 490.9,166.5 491.1,165.0 491.3,165.9 491.6,168.2 491.8,164.4 492.0,160.2 492.2,162.9 492.5,160.9 492.7,162.1 492.9,159.2 493.2,158.1 493.4,154.1 493.6,152.6 493.8,153.3 494.1,155.9 494.3,155.2 494.5,156.7 494.7,153.7 495.0,151.5 495.2,147.6 495.4,148.1 495.6,149.3 495.9,148.9 496.1,146.4 496.3,143.8 496.5,142.1 496.8,142.2 497.0,142.8 497.2,141.9 497.4,142.0 497.7,144.6 497.9,143.5 498.1,143.2 498.3,140.4 498.6,141.1 498.8,141.0 499.0,140.3 499.2,137.6 499.5,134.5 499.7,136.8 499.9,135.2 500.1,136.5 500.4,135.7 500.6,138.8 500.8,137.0 501.0,135.5 501.3,136.8 501.5,132.5 501.7,131.4 501.9,130.0 502.2,133.0 502.4,137.7 502.6,133.6 502.8,132.4 503.1,133.9 503.3,135.7 503.5,135.2 503.7,135.3 504.0,135.4 504.2,134.1 504.4,133.5 504.7,133.7 504.9,132.5 505.1,132.2 505.3,133.4 505.6,134.5 505.8,134.9 506.0,134.0 506.2,134.9 506.5,133.8 506.7,134.8 506.9,134.1 507.1,134.1 507.4,134.5 507.6,134.3 507.8,133.6 508.0,136.4 508.3,138.5 508.5,135.1 508.7,134.1 508.9,134.7 509.2,134.1 509.4,133.9 509.6,133.4 509.8,133.6 510.1,133.5 510.3,132.5 510.5,132.7 510.7,134.3 511.0,132.7 511.2,135.4 511.4,134.6 511.6,134.7 511.9,139.2 512.1,137.2 512.3,135.6 512.5,134.3 512.8,137.1 513.0,131.3 513.2,132.2 513.4,137.1 513.7,133.6 513.9,134.8 514.1,136.3 514.3,137.5 514.6,137.6 514.8,136.4 515.0,137.2 515.2,135.1 515.5,137.6 515.7,135.6 515.9,135.4 516.2,136.7 516.4,136.5 516.6,135.8 516.8,135.8 517.1,134.9 517.3,132.7 517.5,132.6 517.7,132.8 518.0,132.5 518.2,134.2 518.4,133.7 518.6,132.3 518.9,131.5 519.1,132.7 519.3,131.1 519.5,129.5 519.8,128.5 520.0,127.9 520.2,124.7 520.4,124.3 520.7,129.4 520.9,127.6 521.1,129.2 521.3,127.9 521.6,130.3 521.8,133.2 522.0,131.4 522.2,131.4 522.5,134.4 522.7,135.7 522.9,137.8 523.1,136.6 523.4,134.2 523.6,135.6 523.8,136.1 524.0,138.6 524.3,137.9 524.5,141.3 524.7,141.0 524.9,143.5 525.2,144.2 525.4,144.6 525.6,142.0 525.8,142.1 526.1,144.8 526.3,145.7 526.5,145.0 526.8,141.1 527.0,139.2 527.2,138.3 527.4,138.5 527.7,136.1 527.9,142.1 528.1,139.8 528.3,142.5 528.6,144.4 528.8,146.8 529.0,146.2 529.2,145.8 529.5,143.9 529.7,142.4 529.9,144.5 530.1,142.6 530.4,142.2 530.6,141.5 530.8,140.4 531.0,140.8 531.3,141.0 531.5,138.0 531.7,139.2 531.9,137.4 532.2,136.5 532.4,138.2 532.6,139.5 532.8,140.9 533.1,141.5 533.3,141.5 533.5,144.5 533.7,145.3 534.0,151.3 534.2,152.3 534.4,145.6 534.6,144.7 534.9,142.0 535.1,141.8 535.3,141.0 535.5,142.8 535.8,142.6 536.0,143.3 536.2,144.2 536.4,143.4 536.7,141.9 536.9,146.2 537.1,150.6 537.3,148.0 537.6,148.2 537.8,147.0 538.0,144.3 538.3,142.6 538.5,141.1 538.7,142.0 538.9,141.0 539.2,144.5 539.4,141.1 539.6,144.6 539.8,146.0 540.1,147.7 540.3,149.6 540.5,146.6 540.7,146.6 541.0,148.3 541.2,150.3 541.4,151.0 541.6,152.2 541.9,154.8 542.1,154.2 542.3,151.4 542.5,154.9 542.8,155.3 543.0,155.1 543.2,154.3 543.4,152.4 543.7,155.8 543.9,155.5 544.1,160.7 544.3,156.7 544.6,155.2 544.8,153.6 545.0,149.4 545.2,154.9 545.5,157.2 545.7,157.9 545.9,159.4 546.1,161.8 546.4,162.7 546.6,163.3 546.8,164.1 547.0,169.4 547.3,166.5 547.5,162.0 547.7,162.8 547.9,162.6 548.2,159.1 548.4,158.7 548.6,159.2 548.8,162.5 549.1,166.9 549.3,162.7 549.5,164.9 549.8,167.0 550.0,166.2 550.2,162.8 550.4,160.3 550.7,158.6 550.9,158.1 551.1,159.2 551.3,159.0 551.6,164.5 551.8,165.3 552.0,165.7 552.2,164.1 552.5,162.1 552.7,164.3 552.9,169.1 553.1,166.7 553.4,167.0 553.6,168.6 553.8,173.0 554.0,170.9 554.3,173.3 554.5,173.6 554.7,174.6 554.9,171.3 555.2,172.3 555.4,173.5 555.6,169.8 555.8,165.3 556.1,166.0 556.3,162.8 556.5,162.5 556.7,163.1 557.0,160.8 557.2,156.8 557.4,163.1 557.6,162.4 557.9,161.6 558.1,157.7 558.3,163.8 558.5,165.3 558.8,163.6 559.0,167.8 559.2,170.7 559.4,167.2 559.7,165.1 559.9,166.4 560.1,163.9 560.3,169.9 560.6,170.4 560.8,170.0 561.0,170.8 561.3,171.5 561.5,171.4 561.7,167.7 561.9,164.1 562.2,166.6 562.4,166.3 562.6,163.3 562.8,166.8 563.1,166.0 563.3,164.3 563.5,168.2 563.7,170.8 564.0,172.8 564.2,178.5 564.4,181.2 564.6,182.0 564.9,188.6 565.1,189.7 565.3,190.6 565.5,190.0 565.8,187.9 566.0,183.6 566.2,184.2 566.4,185.5 566.7,185.5 566.9,186.2 567.1,183.6 567.3,182.4 567.6,182.0 567.8,181.5 568.0,185.2 568.2,186.2 568.5,187.7 568.7,190.0 568.9,189.8 569.1,187.6 569.4,189.7 569.6,182.3 569.8,180.7 570.0,178.0 570.3,178.1 570.5,178.6 570.7,179.1 570.9,176.9 571.2,176.7 571.4,174.8 571.6,175.2 571.9,179.0 572.1,177.9 572.3,178.3 572.5,179.8 572.8,178.8 573.0,184.3 573.2,180.3 573.4,178.9 573.7,173.8 573.9,172.6 574.1,170.9 574.3,170.7 574.6,170.0 574.8,173.7 575.0,178.4 575.2,180.2 575.5,180.3 575.7,178.2 575.9,186.6 576.1,188.0 576.4,188.1 576.6,190.6 576.8,189.6 577.0,190.9 577.3,191.3 577.5,186.1 577.7,185.8 577.9,183.6 578.2,181.2 578.4,189.3 578.6,190.5 578.8,193.7 579.1,199.3 579.3,195.2 579.5,197.0 579.7,196.9 580.0,197.8 580.2,195.5 580.4,198.5 580.6,200.5 580.9,195.8 581.1,200.0 581.3,199.3 581.5,194.8 581.8,189.4 582.0,189.2 582.2,191.7 582.4,194.8 582.7,195.9 582.9,196.2 583.1,198.0 583.4,195.2 583.6,198.9 583.8,193.1 584.0,190.4 584.3,195.3 584.5,199.1 584.7,194.2 584.9,191.7 585.2,186.8 585.4,187.1 585.6,178.0 585.8,174.1 586.1,176.1 586.3,173.5 586.5,180.1 586.7,179.6 587.0,178.5 587.2,172.8 587.4,173.2 587.6,176.6 587.9,163.5 588.1,164.0 588.3,167.5 588.5,165.2 588.8,167.4 589.0,167.7 589.2,164.8 589.4,165.2 589.7,163.5 589.9,163.5 590.1,163.0 590.3,165.8 590.6,167.7 590.8,163.9 591.0,163.4 591.2,162.8 591.5,167.4 591.7,169.9 591.9,169.9 592.1,167.6 592.4,170.0 592.6,168.4 592.8,166.3 593.0,169.1 593.3,174.7 593.5,177.4 593.7,176.4 593.9,176.5 594.2,173.3 594.4,175.5 594.6,175.7 594.9,174.4 595.1,176.7 595.3,173.3 595.5,175.4 595.8,172.0 596.0,169.8 596.2,171.9 596.4,166.9 596.7,165.7 596.9,166.0 597.1,163.3 597.3,164.1 597.6,163.8 597.8,165.0 598.0,167.5 598.2,171.2 598.5,167.0 598.7,166.0 598.9,164.2 599.1,164.3 599.4,164.4 599.6,163.1 599.8,162.9 600.0,158.9 600.3,155.7 600.5,153.6 600.7,152.2 600.9,154.7 601.2,155.4 601.4,155.6 601.6,157.6 601.8,158.2 602.1,155.9 602.3,155.9 602.5,153.8 602.7,157.3 603.0,157.5 603.2,162.1 603.4,164.6 603.6,163.7 603.9,164.8 604.1,164.8 604.3,165.1 604.5,165.5 604.8,165.4 605.0,162.5 605.2,162.9 605.5,164.3 605.7,163.0 605.9,166.8 606.1,172.2 606.4,174.4 606.6,172.1 606.8,177.4 607.0,174.1 607.3,178.2 607.5,174.6 607.7,173.0 607.9,177.4 608.2,179.7 608.4,182.2 608.6,179.5 608.8,176.9 609.1,175.2 609.3,175.7 609.5,173.3 609.7,174.2 610.0,183.1 610.2,184.3 610.4,183.6 610.6,182.5 610.9,181.1 611.1,180.7 611.3,179.9 611.5,179.0 611.8,176.6 612.0,176.7 612.2,176.9 612.4,176.9 612.7,178.6 612.9,178.4 613.1,180.2 613.3,172.2 613.6,166.8 613.8,168.1 614.0,167.9 614.2,169.3 614.5,170.2 614.7,172.9 614.9,171.4 615.1,172.1 615.4,171.7 615.6,171.1 615.8,170.3 616.0,170.5 616.3,169.6 616.5,173.6 616.7,170.1 617.0,168.1 617.2,169.7 617.4,169.1 617.6,171.7 617.9,173.9 618.1,175.4 618.3,172.8 618.5,172.8 618.8,176.1 619.0,176.1 619.2,169.8 619.4,170.9 619.7,168.6 619.9,164.7 620.1,164.6 620.3,165.2 620.6,162.7 620.8,158.6 621.0,159.9 621.2,157.1 621.5,157.7 621.7,158.0 621.9,156.5 622.1,160.3 622.4,161.5 622.6,159.3 622.8,157.0 623.0,158.1 623.3,156.3 623.5,155.7 623.7,157.3 623.9,160.1 624.2,161.6 624.4,159.8 624.6,157.6 624.8,154.0 625.1,152.9 625.3,152.3 625.5,152.4 625.7,150.6 626.0,148.9 626.2,148.7 626.4,150.1 626.6,149.4 626.9,148.1 627.1,147.2 627.3,159.2 627.5,161.5 627.8,162.2 628.0,159.7 628.2,160.7 628.5,162.8 628.7,166.6 628.9,166.2 629.1,164.5 629.4,166.3 629.6,167.6 629.8,167.1 630.0,166.9 630.3,165.7 630.5,169.8 630.7,171.9 630.9,174.5 631.2,172.0 631.4,172.3 631.6,171.8 631.8,168.2 632.1,171.0 632.3,169.0 632.5,167.7 632.7,165.1 633.0,164.0 633.2,163.7 633.4,162.5 633.6,167.2 633.9,170.9 634.1,171.5 634.3,171.4 634.5,171.2 634.8,173.3 635.0,175.0 635.2,173.9 635.4,174.8 635.7,175.5 635.9,174.6 636.1,176.8 636.3,177.4 636.6,177.4 636.8,177.2 637.0,180.0 637.2,178.2 637.5,176.8 637.7,176.9 637.9,178.4 638.1,178.9 638.4,177.0 638.6,179.0 638.8,177.6 639.1,176.5 639.3,175.1 639.5,174.4 639.7,177.3 640.0,177.9 640.2,175.4 640.4,174.9 640.6,182.9 640.9,185.2 641.1,187.6 641.3,187.8 641.5,187.4 641.8,188.3 642.0,187.2 642.2,186.9 642.4,186.5 642.7,185.5 642.9,184.7 643.1,184.4 643.3,180.2 643.6,180.5 643.8,181.0 644.0,180.0 644.2,181.4 644.5,177.9 644.7,178.3 644.9,174.4 645.1,173.4 645.4,174.4 645.6,173.8 645.8,174.7 646.0,177.0 646.3,176.2 646.5,175.7 646.7,177.0 646.9,177.0 647.2,176.3 647.4,174.2 647.6,170.6 647.8,172.9 648.1,175.0 648.3,175.6 648.5,175.6 648.7,168.3 649.0,169.1 649.2,169.1 649.4,167.1 649.6,157.6 649.9,158.9 650.1,158.3 650.3,156.4 650.6,155.1 650.8,152.1 651.0,148.3 651.2,146.7 651.5,146.6 651.7,147.5 651.9,147.7 652.1,150.6 652.4,153.9 652.6,153.0 652.8,152.3 653.0,151.2 653.3,150.8 653.5,153.2 653.7,154.9 653.9,156.0 654.2,156.5 654.4,157.4 654.6,154.3 654.8,153.1 655.1,149.2 655.3,150.5 655.5,152.2 655.7,148.8 656.0,149.8 656.2,147.5 656.4,148.2 656.6,151.0 656.9,147.0 657.1,146.5 657.3,148.8 657.5,148.4 657.8,147.4 658.0,143.2 658.2,141.6 658.4,139.7 658.7,144.3 658.9,142.4 659.1,140.0 659.3,141.0 659.6,141.4 659.8,142.5 660.0,144.2 660.2,144.8 660.5,145.5 660.7,144.6 660.9,145.9 661.1,146.3 661.4,147.5 661.6,145.2 661.8,146.7 662.1,145.6 662.3,141.6 662.5,142.8 662.7,142.6 663.0,140.3 663.2,140.7 663.4,143.7 663.6,143.3 663.9,142.3 664.1,140.4 664.3,137.8 664.5,137.8 664.8,139.1 665.0,140.5 665.2,140.0 665.4,139.0 665.7,138.5 665.9,141.2 666.1,142.0 666.3,142.1 666.6,142.6 666.8,141.2 667.0,140.5 667.2,139.4 667.5,144.8 667.7,144.1 667.9,146.8 668.1,147.4 668.4,148.0 668.6,148.7 668.8,149.9 669.0,149.4 669.3,149.2 669.5,147.3 669.7,147.8 669.9,149.8 670.2,151.0 670.4,149.9 670.6,153.8 670.8,154.5 671.1,153.0 671.3,152.2 671.5,149.8 671.7,150.4 672.0,150.7 672.2,148.9 672.4,148.5 672.7,148.8 672.9,146.9 673.1,146.2 673.3,149.2 673.6,150.3 673.8,151.8 674.0,151.4 674.2,152.0 674.5,153.8 674.7,152.6 674.9,155.2 675.1,156.5 675.4,155.2 675.6,153.5 675.8,155.1 676.0,158.7 676.3,158.0 676.5,158.9 676.7,159.6 676.9,158.9 677.2,159.2 677.4,155.8 677.6,156.8 677.8,160.4 678.1,160.5 678.3,160.1 678.5,161.2 678.7,160.5 679.0,157.8 679.2,160.7 679.4,162.6 679.6,160.4 679.9,158.1 680.1,161.2 680.3,160.7 680.5,161.2 680.8,162.2 681.0,162.1 681.2,162.6 681.4,159.6 681.7,156.0 681.9,152.2 682.1,152.4 682.3,146.1 682.6,147.4 682.8,146.8 683.0,150.7 683.2,147.7 683.5,147.1 683.7,146.3 683.9,140.5 684.2,136.2 684.4,135.2 684.6,133.4 684.8,136.2 685.1,141.2 685.3,144.3 685.5,146.4 685.7,146.6 686.0,147.9 686.2,144.4 686.4,145.1 686.6,145.2 686.9,143.7 687.1,142.5 687.3,140.4 687.5,142.3 687.8,140.6 688.0,141.3 688.2,138.7 688.4,138.1 688.7,136.0 688.9,135.2 689.1,135.7 689.3,136.4 689.6,135.6 689.8,134.0 690.0,136.0 690.2,135.6 690.5,137.4 690.7,138.7 690.9,138.6 691.1,136.9 691.4,135.9 691.6,133.7 691.8,131.5 692.0,129.8 692.3,129.2 692.5,129.1 692.7,128.8 692.9,132.3 693.2,129.9 693.4,128.7 693.6,129.1 693.8,128.8 694.1,128.7 694.3,126.7 694.5,127.5 694.7,126.6 695.0,126.5 695.2,126.8 695.4,126.4 695.7,127.1 695.9,125.8 696.1,127.8 696.3,125.1 696.6,122.9 696.8,122.9 697.0,121.5 697.2,119.9 697.5,119.1 697.7,120.4 697.9,121.8 698.1,121.5 698.4,127.2 698.6,130.0 698.8,130.2 699.0,132.9 699.3,133.7 699.5,133.1 699.7,132.9 699.9,133.2 700.2,131.8 700.4,131.7 700.6,129.8 700.8,128.7 701.1,129.1 701.3,130.7 701.5,131.8 701.7,131.3 702.0,133.0 702.2,134.2 702.4,134.7 702.6,133.3 702.9,131.2 703.1,131.2 703.3,129.9 703.5,132.3 703.8,131.2 704.0,131.8 704.2,132.3 704.4,132.2 704.7,131.6 704.9,132.4 705.1,132.2 705.3,131.2 705.6,132.1 705.8,132.2 706.0,133.5 706.2,134.0 706.5,135.4 706.7,136.3 706.9,141.0 707.2,143.1 707.4,141.3 707.6,141.4 707.8,140.3 708.1,140.4 708.3,141.5 708.5,142.7 708.7,143.0 709.0,145.4 709.2,143.6 709.4,144.8 709.6,146.8 709.9,145.6 710.1,148.2 710.3,145.8 710.5,144.1 710.8,142.7 711.0,140.8 711.2,139.7 711.4,138.1 711.7,141.3 711.9,140.1 712.1,140.9 712.3,137.6 712.6,141.4 712.8,142.7 713.0,139.8 713.2,140.7 713.5,145.3 713.7,145.5 713.9,144.9 714.1,144.6 714.4,145.3 714.6,143.2 714.8,141.8 715.0,142.1 715.3,140.2 715.5,139.9 715.7,148.6 715.9,147.8 716.2,147.2 716.4,147.1 716.6,146.2 716.8,143.9 717.1,144.5 717.3,146.8 717.5,145.3 717.8,147.9 718.0,151.1 718.2,147.9 718.4,146.9 718.7,142.3 718.9,141.2 719.1,148.5 719.3,150.9 719.6,149.7 719.8,147.7 720.0,146.9 720.2,146.1 720.5,145.4 720.7,146.4 720.9,147.2 721.1,143.1 721.4,144.3 721.6,143.4 721.8,143.6 722.0,145.8 722.3,143.3 722.5,142.7 722.7,141.3 722.9,147.0 723.2,151.3 723.4,154.8 723.6,157.6 723.8,150.1 724.1,153.2 724.3,149.5 724.5,148.1 724.7,147.4 725.0,149.5 725.2,148.1 725.4,151.7 725.6,147.5 725.9,147.9 726.1,133.2 726.3,136.5 726.5,135.7 726.8,134.6 727.0,133.6 727.2,134.1 727.4,131.7 727.7,131.8 727.9,132.8 728.1,132.5 728.3,131.7 728.6,130.7 728.8,128.7 729.0,129.7 729.3,131.6 729.5,129.6 729.7,126.8 729.9,128.0 730.2,128.8 730.4,130.6 730.6,131.0 730.8,131.3 731.1,127.9 731.3,129.4 731.5,129.2 731.7,129.9 732.0,133.3 732.2,133.7 732.4,134.7 732.6,134.6 732.9,133.6 733.1,133.1 733.3,133.1 733.5,134.9 733.8,134.1 734.0,137.8 734.2,136.9 734.4,136.8 734.7,136.2 734.9,135.3 735.1,130.1 735.3,128.9 735.6,129.7 735.8,129.1 736.0,128.6 736.2,128.4 736.5,124.8 736.7,124.4 736.9,124.3 737.1,124.2 737.4,123.9 737.6,122.3 737.8,120.9 738.0,123.6 738.3,124.1 738.5,126.9 738.7,126.4 738.9,118.9 739.2,119.6 739.4,122.8 739.6,119.7 739.8,118.1 740.1,109.3 740.3,107.8 740.5,109.3 740.8,108.9 741.0,108.3 741.2,107.3 741.4,108.0 741.7,106.6 741.9,107.8 742.1,108.6 742.3,109.3 742.6,109.3 742.8,108.6 743.0,106.8 743.2,104.0 743.5,104.9 743.7,106.2 743.9,106.1 744.1,103.8 744.4,105.0 744.6,106.1 744.8,101.7 745.0,103.8 745.3,102.3 745.5,101.9 745.7,102.8 745.9,103.8 746.2,105.4 746.4,105.7 746.6,103.0 746.8,102.0 747.1,101.0 747.3,103.7 747.5,103.3 747.7,97.5 748.0,99.3 748.2,98.3 748.4,97.6 748.6,98.0 748.9,96.1 749.1,95.7 749.3,96.9 749.5,97.3 749.8,99.0 750.0,101.1 750.2,99.3 750.4,99.3 750.7,97.3 750.9,97.9 751.1,97.0 751.4,97.4 751.6,97.3 751.8,97.6 752.0,96.6 752.3,98.9 752.5,100.8 752.7,100.4 752.9,98.8 753.2,97.4 753.4,97.2 753.6,97.2 753.8,96.8 754.1,95.6 754.3,98.9 754.5,102.6 754.7,106.1 755.0,102.8 755.2,104.5 755.4,107.6 755.6,107.9 755.9,107.4 756.1,108.4 756.3,107.6 756.5,107.4 756.8,108.1 757.0,106.0 757.2,106.4 757.4,105.8 757.7,105.1 757.9,108.6 758.1,111.6 758.3,112.8 758.6,111.7 758.8,112.1 759.0,113.2 759.2,110.1 759.5,110.6 759.7,107.1 759.9,107.5 760.1,107.2 760.4,108.0 760.6,108.9 760.8,109.0 761.0,111.9 761.3,113.6 761.5,113.8 761.7,115.1 761.9,112.5 762.2,108.4 762.4,112.0 762.6,109.9 762.9,113.0 763.1,112.1 763.3,112.8 763.5,112.7 763.8,112.0 764.0,112.2 764.2,111.9 764.4,112.0 764.7,111.5 764.9,111.7 765.1,113.5 765.3,111.9 765.6,111.0 765.8,111.0 766.0,113.7 766.2,108.8 766.5,110.2 766.7,111.4 766.9,111.2 767.1,111.2 767.4,109.5 767.6,108.1 767.8,109.9 768.0,107.3 768.3,106.4 768.5,106.5 768.7,106.4 768.9,106.4 769.2,108.2 769.4,108.6 769.6,107.8 769.8,107.7 770.1,105.6 770.3,101.0 770.5,98.6 770.7,95.3 771.0,96.8 771.2,96.0 771.4,95.6 771.6,96.6 771.9,95.5 772.1,110.3 772.3,110.3 772.5,111.6 772.8,110.7 773.0,114.0 773.2,113.8 773.4,116.9 773.7,112.3 773.9,111.7 774.1,110.4 774.4,114.3 774.6,115.9 774.8,120.2 775.0,122.0 775.3,122.2 775.5,124.9 775.7,125.8 775.9,126.6 776.2,127.1 776.4,126.6 776.6,126.5 776.8,127.8 777.1,128.7 777.3,130.1 777.5,128.9 777.7,126.7 778.0,124.9 778.2,126.6 778.4,128.0 778.6,129.7 778.9,127.2 779.1,128.3 779.3,131.6 779.5,132.5 779.8,133.4 780.0,128.0 780.2,126.1 780.4,127.7 780.7,125.2 780.9,125.4 781.1,131.0 781.3,131.1 781.6,128.2 781.8,127.3 782.0,129.0 782.2,127.5 782.5,125.0 782.7,126.3 782.9,124.0 783.1,135.0 783.4,135.5 783.6,135.4 783.8,137.6 784.0,141.0 784.3,141.2 784.5,137.8 784.7,136.2 785.0,138.9 785.2,141.1 785.4,142.3 785.6,143.1 785.9,142.5 786.1,148.9 786.3,145.6 786.5,148.3 786.8,144.7 787.0,143.0 787.2,143.3 787.4,142.0 787.7,142.4 787.9,142.2 788.1,143.7 788.3,143.6 788.6,144.0 788.8,143.7 789.0,143.4 789.2,143.6 789.5,146.5 789.7,142.6 789.9,144.5 790.1,139.6 790.4,139.3 790.6,139.6 790.8,138.3 791.0,143.6 791.3,139.7 791.5,142.7 791.7,145.2 791.9,139.3 792.2,136.0 792.4,133.0 792.6,133.1 792.8,132.2 793.1,132.8 793.3,132.1 793.5,132.6 793.7,133.4 794.0,138.2 794.2,138.1 794.4,136.4 794.6,136.7 794.9,136.5 795.1,137.2 795.3,133.3 795.5,135.7 795.8,134.7 796.0,134.3"/><polyline fill="none" stroke="#16a34a" stroke-width="3" points="78.0,291.4 78.2,299.9 78.5,303.7 78.7,306.6 78.9,305.9 79.1,305.3 79.4,308.6 79.6,308.5 79.8,308.5 80.0,308.8 80.3,309.7 80.5,313.4 80.7,316.3 80.9,317.5 81.2,315.8 81.4,310.9 81.6,311.2 81.8,309.4 82.1,308.4 82.3,306.9 82.5,306.7 82.7,305.0 83.0,304.3 83.2,305.0 83.4,303.7 83.6,303.9 83.9,303.5 84.1,303.7 84.3,305.5 84.5,305.2 84.8,307.1 85.0,306.0 85.2,307.0 85.4,306.3 85.7,306.3 85.9,305.4 86.1,300.1 86.3,295.9 86.6,293.5 86.8,294.4 87.0,294.7 87.2,292.9 87.5,292.3 87.7,291.3 87.9,293.7 88.1,296.5 88.4,297.3 88.6,293.7 88.8,293.5 89.0,288.5 89.3,288.7 89.5,294.6 89.7,292.7 90.0,294.1 90.2,289.0 90.4,286.9 90.6,287.2 90.9,287.1 91.1,286.7 91.3,286.4 91.5,287.9 91.8,286.4 92.0,289.3 92.2,282.3 92.4,279.8 92.7,278.4 92.9,273.7 93.1,273.4 93.3,271.5 93.6,274.3 93.8,276.7 94.0,275.2 94.2,275.4 94.5,277.5 94.7,276.9 94.9,277.2 95.1,273.9 95.4,274.5 95.6,276.1 95.8,277.0 96.0,277.9 96.3,277.0 96.5,277.0 96.7,274.5 96.9,275.5 97.2,276.5 97.4,277.2 97.6,280.5 97.8,282.2 98.1,280.2 98.3,280.2 98.5,275.2 98.7,273.2 99.0,272.4 99.2,275.8 99.4,281.8 99.6,282.4 99.9,282.1 100.1,284.5 100.3,286.5 100.6,287.2 100.8,286.6 101.0,285.8 101.2,286.1 101.5,284.7 101.7,283.6 101.9,285.3 102.1,285.8 102.4,287.9 102.6,290.1 102.8,289.9 103.0,288.5 103.3,282.8 103.5,284.4 103.7,286.3 103.9,286.9 104.2,286.7 104.4,288.5 104.6,286.5 104.8,285.1 105.1,285.1 105.3,287.2 105.5,291.7 105.7,288.7 106.0,285.9 106.2,285.0 106.4,284.4 106.6,282.1 106.9,279.3 107.1,279.3 107.3,278.0 107.5,276.3 107.8,279.5 108.0,280.5 108.2,279.5 108.4,277.4 108.7,274.2 108.9,270.0 109.1,268.6 109.3,267.6 109.6,268.7 109.8,269.0 110.0,269.1 110.2,266.4 110.5,266.1 110.7,265.8 110.9,266.0 111.1,265.1 111.4,265.2 111.6,267.6 111.8,267.5 112.1,268.5 112.3,270.5 112.5,267.6 112.7,266.6 113.0,265.7 113.2,266.3 113.4,269.2 113.6,270.7 113.9,270.4 114.1,270.4 114.3,269.3 114.5,269.4 114.8,270.4 115.0,270.9 115.2,274.1 115.4,272.4 115.7,272.7 115.9,272.3 116.1,273.6 116.3,272.1 116.6,271.8 116.8,276.0 117.0,279.2 117.2,275.7 117.5,282.1 117.7,285.2 117.9,286.0 118.1,285.1 118.4,286.0 118.6,286.7 118.8,284.5 119.0,285.2 119.3,283.5 119.5,279.8 119.7,280.4 119.9,279.7 120.2,278.6 120.4,278.7 120.6,279.0 120.8,280.0 121.1,280.5 121.3,279.1 121.5,279.4 121.7,280.4 122.0,281.7 122.2,282.1 122.4,279.7 122.6,279.9 122.9,279.5 123.1,279.1 123.3,279.8 123.6,281.2 123.8,280.6 124.0,280.3 124.2,283.5 124.5,283.7 124.7,282.8 124.9,282.9 125.1,284.2 125.4,286.5 125.6,288.5 125.8,289.3 126.0,289.1 126.3,291.5 126.5,290.9 126.7,292.2 126.9,293.3 127.2,292.9 127.4,292.6 127.6,288.7 127.8,290.4 128.1,296.6 128.3,294.6 128.5,296.3 128.7,297.7 129.0,300.8 129.2,301.6 129.4,299.5 129.6,297.5 129.9,296.1 130.1,295.7 130.3,291.5 130.5,295.0 130.8,290.8 131.0,288.7 131.2,288.6 131.4,285.5 131.7,285.2 131.9,278.4 132.1,277.1 132.3,276.1 132.6,277.0 132.8,277.2 133.0,276.2 133.2,277.5 133.5,278.3 133.7,278.7 133.9,278.8 134.2,279.9 134.4,279.4 134.6,277.8 134.8,274.9 135.1,274.6 135.3,274.3 135.5,274.0 135.7,274.7 136.0,275.8 136.2,277.2 136.4,275.0 136.6,275.4 136.9,273.6 137.1,272.7 137.3,272.9 137.5,270.3 137.8,272.1 138.0,271.8 138.2,274.1 138.4,274.0 138.7,274.9 138.9,275.2 139.1,275.9 139.3,274.0 139.6,271.7 139.8,271.6 140.0,269.9 140.2,269.8 140.5,269.6 140.7,269.8 140.9,269.1 141.1,269.8 141.4,270.3 141.6,271.5 141.8,271.8 142.0,272.0 142.3,270.0 142.5,268.0 142.7,269.2 142.9,271.6 143.2,271.3 143.4,270.7 143.6,274.9 143.8,276.1 144.1,277.7 144.3,277.4 144.5,273.3 144.7,273.0 145.0,274.6 145.2,274.9 145.4,273.4 145.7,272.2 145.9,274.3 146.1,273.0 146.3,271.5 146.6,269.9 146.8,266.3 147.0,264.8 147.2,266.5 147.5,266.6 147.7,267.0 147.9,264.3 148.1,262.0 148.4,262.2 148.6,268.9 148.8,264.6 149.0,262.1 149.3,262.8 149.5,262.6 149.7,262.2 149.9,262.9 150.2,264.3 150.4,261.5 150.6,262.4 150.8,262.5 151.1,263.4 151.3,265.1 151.5,263.7 151.7,264.7 152.0,263.9 152.2,262.6 152.4,263.0 152.6,261.5 152.9,262.5 153.1,258.7 153.3,258.3 153.5,255.5 153.8,256.1 154.0,256.1 154.2,257.5 154.4,257.1 154.7,255.3 154.9,253.6 155.1,255.4 155.3,255.7 155.6,254.7 155.8,254.3 156.0,254.5 156.2,254.2 156.5,254.8 156.7,255.3 156.9,257.6 157.2,258.4 157.4,257.1 157.6,257.9 157.8,260.6 158.1,260.1 158.3,258.8 158.5,257.4 158.7,259.0 159.0,255.9 159.2,256.9 159.4,256.3 159.6,257.0 159.9,255.5 160.1,254.7 160.3,252.8 160.5,254.6 160.8,255.2 161.0,254.7 161.2,252.5 161.4,250.6 161.7,253.9 161.9,254.0 162.1,253.7 162.3,253.9 162.6,253.7 162.8,253.8 163.0,254.5 163.2,254.9 163.5,255.2 163.7,256.1 163.9,253.8 164.1,253.6 164.4,252.4 164.6,253.3 164.8,252.5 165.0,251.5 165.3,253.8 165.5,253.7 165.7,254.9 165.9,256.0 166.2,254.3 166.4,254.3 166.6,255.4 166.8,255.9 167.1,256.6 167.3,255.2 167.5,254.6 167.8,254.0 168.0,253.0 168.2,253.0 168.4,253.0 168.7,253.8 168.9,254.1 169.1,258.3 169.3,257.7 169.6,257.6 169.8,258.7 170.0,259.2 170.2,259.0 170.5,261.9 170.7,260.1 170.9,257.4 171.1,255.6 171.4,254.3 171.6,255.9 171.8,254.9 172.0,254.6 172.3,254.0 172.5,256.0 172.7,255.4 172.9,255.4 173.2,254.6 173.4,255.1 173.6,252.2 173.8,249.0 174.1,250.3 174.3,250.3 174.5,251.5 174.7,251.7 175.0,251.1 175.2,252.5 175.4,251.6 175.6,249.9 175.9,250.4 176.1,250.6 176.3,250.1 176.5,249.4 176.8,246.8 177.0,247.1 177.2,247.9 177.4,251.7 177.7,257.1 177.9,261.7 178.1,265.9 178.3,260.5 178.6,256.8 178.8,257.4 179.0,259.1 179.3,261.7 179.5,259.8 179.7,258.6 179.9,261.3 180.2,257.2 180.4,257.6 180.6,257.3 180.8,256.5 181.1,256.0 181.3,253.8 181.5,253.4 181.7,252.8 182.0,255.1 182.2,253.6 182.4,256.9 182.6,256.4 182.9,257.4 183.1,258.7 183.3,264.8 183.5,268.0 183.8,263.8 184.0,261.5 184.2,262.7 184.4,260.3 184.7,261.2 184.9,258.7 185.1,258.5 185.3,258.7 185.6,260.0 185.8,260.7 186.0,260.8 186.2,257.0 186.5,257.0 186.7,257.9 186.9,252.9 187.1,254.7 187.4,248.2 187.6,248.8 187.8,248.0 188.0,247.0 188.3,245.4 188.5,247.0 188.7,245.5 188.9,241.9 189.2,245.1 189.4,246.5 189.6,247.8 189.8,247.5 190.1,248.9 190.3,249.7 190.5,245.8 190.8,246.6 191.0,248.9 191.2,246.5 191.4,246.8 191.7,243.9 191.9,242.0 192.1,242.4 192.3,244.3 192.6,245.4 192.8,242.7 193.0,241.0 193.2,240.9 193.5,239.0 193.7,240.6 193.9,243.3 194.1,241.1 194.4,242.7 194.6,243.9 194.8,245.4 195.0,245.0 195.3,246.8 195.5,245.8 195.7,244.6 195.9,242.3 196.2,244.2 196.4,246.4 196.6,246.2 196.8,245.2 197.1,243.7 197.3,244.2 197.5,242.6 197.7,241.2 198.0,242.0 198.2,243.5 198.4,246.7 198.6,246.9 198.9,250.8 199.1,255.2 199.3,258.2 199.5,258.9 199.8,257.3 200.0,260.6 200.2,257.0 200.4,260.9 200.7,262.6 200.9,264.2 201.1,264.7 201.3,257.7 201.6,259.6 201.8,257.7 202.0,258.3 202.3,259.6 202.5,256.2 202.7,256.5 202.9,260.8 203.2,259.2 203.4,258.1 203.6,267.2 203.8,274.0 204.1,272.6 204.3,271.0 204.5,266.0 204.7,264.0 205.0,261.4 205.2,260.6 205.4,261.2 205.6,260.7 205.9,255.0 206.1,254.9 206.3,251.2 206.5,248.4 206.8,248.2 207.0,250.3 207.2,246.0 207.4,246.5 207.7,246.0 207.9,248.1 208.1,249.1 208.3,250.4 208.6,249.5 208.8,250.1 209.0,248.5 209.2,247.3 209.5,248.5 209.7,248.2 209.9,246.8 210.1,246.4 210.4,246.5 210.6,247.2 210.8,249.2 211.0,249.7 211.3,249.1 211.5,248.5 211.7,248.0 211.9,248.3 212.2,244.5 212.4,245.7 212.6,246.0 212.9,242.6 213.1,247.7 213.3,247.5 213.5,249.0 213.8,249.0 214.0,247.0 214.2,248.4 214.4,248.2 214.7,247.1 214.9,247.9 215.1,247.9 215.3,249.5 215.6,247.1 215.8,246.0 216.0,243.8 216.2,241.2 216.5,244.8 216.7,244.3 216.9,241.9 217.1,243.8 217.4,244.3 217.6,244.5 217.8,243.0 218.0,242.7 218.3,240.9 218.5,243.2 218.7,242.8 218.9,243.0 219.2,242.3 219.4,241.2 219.6,240.4 219.8,240.3 220.1,240.0 220.3,240.3 220.5,238.3 220.7,238.7 221.0,239.2 221.2,238.6 221.4,239.4 221.6,238.2 221.9,238.3 222.1,238.8 222.3,238.8 222.5,239.1 222.8,236.4 223.0,236.5 223.2,238.8 223.4,239.5 223.7,239.1 223.9,238.0 224.1,237.9 224.4,239.0 224.6,236.3 224.8,236.1 225.0,236.5 225.3,235.6 225.5,243.4 225.7,247.4 225.9,241.9 226.2,238.3 226.4,235.2 226.6,236.6 226.8,238.3 227.1,237.8 227.3,236.9 227.5,234.5 227.7,234.1 228.0,232.9 228.2,233.1 228.4,231.8 228.6,231.1 228.9,232.0 229.1,230.1 229.3,229.9 229.5,230.7 229.8,229.1 230.0,230.0 230.2,228.8 230.4,230.0 230.7,228.2 230.9,229.0 231.1,228.9 231.3,230.4 231.6,231.8 231.8,231.9 232.0,231.0 232.2,231.9 232.5,231.2 232.7,231.1 232.9,230.2 233.1,229.1 233.4,228.1 233.6,229.3 233.8,230.5 234.0,230.0 234.3,231.3 234.5,230.0 234.7,229.4 234.9,230.2 235.2,229.6 235.4,230.7 235.6,229.6 235.9,231.3 236.1,231.4 236.3,230.1 236.5,229.0 236.8,229.6 237.0,232.1 237.2,234.2 237.4,240.9 237.7,239.7 237.9,241.2 238.1,242.3 238.3,240.6 238.6,242.0 238.8,239.5 239.0,239.5 239.2,238.3 239.5,235.8 239.7,236.6 239.9,237.5 240.1,236.0 240.4,235.0 240.6,237.5 240.8,236.1 241.0,237.7 241.3,239.4 241.5,239.1 241.7,238.2 241.9,240.5 242.2,239.7 242.4,242.0 242.6,240.2 242.8,241.3 243.1,238.7 243.3,237.3 243.5,238.3 243.7,239.8 244.0,239.7 244.2,239.9 244.4,238.6 244.6,243.6 244.9,243.5 245.1,249.9 245.3,248.1 245.5,247.5 245.8,248.4 246.0,248.7 246.2,248.8 246.5,248.0 246.7,243.8 246.9,243.2 247.1,240.8 247.4,235.6 247.6,235.2 247.8,236.8 248.0,236.4 248.3,239.0 248.5,237.4 248.7,239.6 248.9,238.2 249.2,238.1 249.4,238.7 249.6,238.3 249.8,239.4 250.1,239.2 250.3,240.5 250.5,243.8 250.7,245.1 251.0,245.7 251.2,244.8 251.4,243.0 251.6,243.9 251.9,243.3 252.1,244.5 252.3,243.0 252.5,243.5 252.8,244.8 253.0,246.3 253.2,244.7 253.4,243.8 253.7,243.3 253.9,244.0 254.1,243.6 254.3,243.3 254.6,245.0 254.8,245.1 255.0,246.9 255.2,245.2 255.5,242.4 255.7,241.6 255.9,242.5 256.1,243.6 256.4,245.7 256.6,242.9 256.8,242.0 257.0,243.4 257.3,242.5 257.5,241.2 257.7,240.9 258.0,244.2 258.2,244.4 258.4,241.3 258.6,240.9 258.9,242.4 259.1,241.1 259.3,242.6 259.5,243.0 259.8,242.4 260.0,243.1 260.2,239.3 260.4,239.2 260.7,240.0 260.9,238.7 261.1,229.8 261.3,229.4 261.6,230.4 261.8,231.2 262.0,229.6 262.2,227.3 262.5,226.6 262.7,224.1 262.9,225.0 263.1,225.2 263.4,225.2 263.6,225.9 263.8,228.0 264.0,225.8 264.3,225.2 264.5,225.5 264.7,226.7 264.9,227.5 265.2,226.9 265.4,226.2 265.6,224.2 265.8,223.3 266.1,224.1 266.3,223.0 266.5,222.5 266.7,221.9 267.0,222.3 267.2,224.3 267.4,223.3 267.6,223.1 267.9,222.7 268.1,223.0 268.3,222.6 268.5,222.0 268.8,221.1 269.0,221.4 269.2,221.4 269.5,223.0 269.7,224.6 269.9,223.4 270.1,223.4 270.4,223.6 270.6,222.2 270.8,222.3 271.0,222.6 271.3,220.4 271.5,220.9 271.7,219.2 271.9,217.5 272.2,217.1 272.4,216.5 272.6,215.5 272.8,213.7 273.1,212.0 273.3,215.7 273.5,217.5 273.7,217.7 274.0,218.3 274.2,218.2 274.4,217.9 274.6,219.3 274.9,218.9 275.1,219.2 275.3,218.3 275.5,219.4 275.8,218.4 276.0,216.0 276.2,218.9 276.4,218.2 276.7,214.9 276.9,214.2 277.1,215.2 277.3,214.9 277.6,214.2 277.8,214.3 278.0,216.1 278.2,215.7 278.5,214.8 278.7,213.0 278.9,213.2 279.1,215.9 279.4,216.3 279.6,217.6 279.8,218.4 280.1,216.1 280.3,214.2 280.5,213.3 280.7,211.5 281.0,209.9 281.2,208.8 281.4,209.3 281.6,210.1 281.9,210.6 282.1,210.2 282.3,210.2 282.5,211.8 282.8,210.5 283.0,213.2 283.2,210.8 283.4,210.3 283.7,208.9 283.9,211.6 284.1,210.6 284.3,210.0 284.6,210.1 284.8,209.2 285.0,211.4 285.2,211.4 285.5,211.3 285.7,211.7 285.9,211.5 286.1,210.8 286.4,212.1 286.6,212.3 286.8,214.5 287.0,215.7 287.3,210.6 287.5,210.3 287.7,210.5 287.9,210.1 288.2,211.3 288.4,211.4 288.6,210.4 288.8,209.2 289.1,210.3 289.3,211.8 289.5,214.9 289.7,214.2 290.0,213.8 290.2,214.8 290.4,214.2 290.6,215.1 290.9,216.3 291.1,217.6 291.3,216.5 291.6,218.4 291.8,218.3 292.0,217.4 292.2,216.5 292.5,217.1 292.7,216.1 292.9,215.3 293.1,214.4 293.4,214.0 293.6,212.4 293.8,212.4 294.0,211.3 294.3,210.9 294.5,211.0 294.7,209.5 294.9,208.0 295.2,207.5 295.4,207.7 295.6,207.3 295.8,206.0 296.1,206.2 296.3,204.3 296.5,204.4 296.7,202.9 297.0,202.9 297.2,202.2 297.4,200.9 297.6,200.8 297.9,199.2 298.1,200.5 298.3,199.9 298.5,199.7 298.8,199.0 299.0,198.6 299.2,198.0 299.4,195.7 299.7,197.8 299.9,198.1 300.1,200.0 300.3,199.0 300.6,198.7 300.8,198.3 301.0,199.5 301.2,197.5 301.5,200.9 301.7,211.3 301.9,212.0 302.1,208.9 302.4,206.4 302.6,207.5 302.8,208.4 303.1,208.8 303.3,206.9 303.5,206.1 303.7,206.3 304.0,208.7 304.2,206.8 304.4,205.4 304.6,207.2 304.9,208.8 305.1,208.1 305.3,207.7 305.5,206.6 305.8,206.3 306.0,206.8 306.2,207.2 306.4,206.9 306.7,206.5 306.9,207.2 307.1,205.0 307.3,204.2 307.6,206.3 307.8,208.9 308.0,209.3 308.2,206.9 308.5,208.0 308.7,208.6 308.9,208.6 309.1,207.7 309.4,209.5 309.6,208.1 309.8,207.6 310.0,212.1 310.3,210.4 310.5,210.4 310.7,211.6 310.9,211.5 311.2,212.3 311.4,213.1 311.6,213.1 311.8,212.4 312.1,211.8 312.3,209.7 312.5,209.4 312.7,210.0 313.0,206.9 313.2,207.5 313.4,204.3 313.7,203.1 313.9,204.8 314.1,204.6 314.3,204.9 314.6,201.1 314.8,201.8 315.0,202.6 315.2,202.2 315.5,202.6 315.7,200.8 315.9,200.3 316.1,202.4 316.4,201.3 316.6,202.9 316.8,208.9 317.0,213.9 317.3,212.1 317.5,212.3 317.7,217.4 317.9,215.1 318.2,212.7 318.4,212.9 318.6,212.3 318.8,208.1 319.1,207.3 319.3,202.0 319.5,200.2 319.7,201.4 320.0,201.2 320.2,198.3 320.4,199.8 320.6,204.8 320.9,208.4 321.1,208.2 321.3,206.7 321.5,205.1 321.8,205.1 322.0,203.6 322.2,199.4 322.4,199.0 322.7,201.3 322.9,202.2 323.1,202.0 323.3,201.3 323.6,202.4 323.8,201.7 324.0,201.2 324.2,203.5 324.5,206.5 324.7,203.6 324.9,204.6 325.2,206.2 325.4,202.3 325.6,206.0 325.8,203.6 326.1,201.5 326.3,201.2 326.5,203.3 326.7,203.6 327.0,202.4 327.2,203.6 327.4,202.3 327.6,203.6 327.9,202.2 328.1,201.7 328.3,200.2 328.5,202.1 328.8,203.3 329.0,203.7 329.2,207.9 329.4,206.3 329.7,214.6 329.9,216.0 330.1,217.3 330.3,217.3 330.6,221.3 330.8,221.9 331.0,219.3 331.2,220.1 331.5,219.8 331.7,219.0 331.9,217.0 332.1,217.1 332.4,217.9 332.6,218.7 332.8,217.6 333.0,217.9 333.3,215.0 333.5,214.2 333.7,214.4 333.9,213.4 334.2,213.3 334.4,214.2 334.6,215.2 334.8,213.4 335.1,218.7 335.3,215.9 335.5,215.1 335.7,213.5 336.0,213.4 336.2,211.5 336.4,209.8 336.7,209.6 336.9,207.9 337.1,210.2 337.3,208.2 337.6,207.7 337.8,208.8 338.0,211.2 338.2,211.5 338.5,215.5 338.7,215.9 338.9,218.4 339.1,218.5 339.4,216.5 339.6,216.9 339.8,216.5 340.0,216.0 340.3,217.2 340.5,215.5 340.7,217.5 340.9,215.4 341.2,214.6 341.4,215.5 341.6,213.3 341.8,212.1 342.1,212.9 342.3,211.4 342.5,213.0 342.7,214.0 343.0,212.5 343.2,214.0 343.4,211.9 343.6,211.4 343.9,208.8 344.1,208.6 344.3,209.8 344.5,208.7 344.8,209.9 345.0,209.3 345.2,208.3 345.4,206.8 345.7,205.8 345.9,206.9 346.1,206.8 346.3,208.2 346.6,208.3 346.8,205.5 347.0,201.9 347.2,201.7 347.5,199.5 347.7,199.0 347.9,197.6 348.2,198.8 348.4,199.9 348.6,198.5 348.8,197.8 349.1,197.7 349.3,199.0 349.5,198.5 349.7,198.6 350.0,198.7 350.2,195.2 350.4,195.7 350.6,196.1 350.9,194.2 351.1,194.4 351.3,194.3 351.5,195.0 351.8,197.2 352.0,195.4 352.2,192.9 352.4,192.6 352.7,192.0 352.9,193.4 353.1,194.6 353.3,195.0 353.6,194.3 353.8,193.6 354.0,192.6 354.2,191.7 354.5,191.4 354.7,191.5 354.9,193.2 355.1,194.3 355.4,196.3 355.6,197.6 355.8,202.9 356.0,206.1 356.3,204.3 356.5,204.2 356.7,201.7 356.9,203.6 357.2,206.2 357.4,207.9 357.6,208.4 357.8,206.1 358.1,211.6 358.3,205.8 358.5,206.2 358.8,208.1 359.0,202.8 359.2,200.8 359.4,197.9 359.7,196.7 359.9,195.9 360.1,195.0 360.3,193.9 360.6,192.8 360.8,194.6 361.0,195.9 361.2,195.4 361.5,198.4 361.7,196.1 361.9,194.8 362.1,194.5 362.4,195.6 362.6,193.9 362.8,195.0 363.0,193.9 363.3,193.1 363.5,189.9 363.7,190.7 363.9,190.9 364.2,188.5 364.4,193.1 364.6,194.0 364.8,195.8 365.1,198.2 365.3,198.1 365.5,197.2 365.7,197.9 366.0,199.4 366.2,204.1 366.4,202.9 366.6,207.1 366.9,210.0 367.1,213.6 367.3,219.6 367.5,213.4 367.8,212.1 368.0,213.5 368.2,211.3 368.4,208.8 368.7,211.4 368.9,211.7 369.1,210.2 369.3,208.1 369.6,206.5 369.8,206.7 370.0,207.0 370.3,207.5 370.5,207.6 370.7,208.9 370.9,207.5 371.2,204.4 371.4,206.8 371.6,206.3 371.8,205.3 372.1,203.2 372.3,203.0 372.5,201.7 372.7,200.1 373.0,200.2 373.2,198.7 373.4,197.8 373.6,194.7 373.9,193.8 374.1,192.0 374.3,190.9 374.5,190.7 374.8,188.2 375.0,187.0 375.2,190.4 375.4,190.6 375.7,196.5 375.9,196.6 376.1,196.1 376.3,193.7 376.6,195.4 376.8,195.5 377.0,192.5 377.2,193.2 377.5,191.2 377.7,192.9 377.9,193.3 378.1,194.1 378.4,196.6 378.6,196.6 378.8,195.6 379.0,195.2 379.3,193.8 379.5,194.8 379.7,195.4 379.9,194.6 380.2,194.9 380.4,196.5 380.6,194.6 380.8,197.4 381.1,197.0 381.3,195.4 381.5,195.7 381.8,193.0 382.0,191.5 382.2,188.4 382.4,188.8 382.7,187.0 382.9,186.0 383.1,184.8 383.3,185.6 383.6,187.0 383.8,187.3 384.0,186.6 384.2,185.3 384.5,186.1 384.7,186.4 384.9,186.4 385.1,186.6 385.4,186.3 385.6,183.1 385.8,183.8 386.0,182.2 386.3,179.5 386.5,179.4 386.7,178.1 386.9,178.4 387.2,178.6 387.4,173.7 387.6,175.1 387.8,177.9 388.1,177.5 388.3,176.8 388.5,176.5 388.7,178.4 389.0,177.9 389.2,176.3 389.4,174.2 389.6,176.3 389.9,177.0 390.1,174.8 390.3,177.1 390.5,178.3 390.8,178.0 391.0,178.7 391.2,180.3 391.4,177.7 391.7,181.4 391.9,177.6 392.1,176.3 392.4,172.1 392.6,171.5 392.8,170.9 393.0,168.9 393.3,169.7 393.5,170.3 393.7,168.8 393.9,167.8 394.2,169.8 394.4,167.6 394.6,166.2 394.8,164.7 395.1,165.3 395.3,165.2 395.5,165.7 395.7,165.6 396.0,164.0 396.2,161.6 396.4,160.3 396.6,162.0 396.9,161.6 397.1,161.0 397.3,162.3 397.5,162.1 397.8,163.2 398.0,163.3 398.2,161.7 398.4,161.3 398.7,161.3 398.9,163.9 399.1,163.1 399.3,165.6 399.6,165.0 399.8,163.9 400.0,164.8 400.2,169.5 400.5,168.9 400.7,171.1 400.9,170.3 401.1,171.4 401.4,172.9 401.6,173.9 401.8,177.1 402.0,176.8 402.3,179.1 402.5,177.9 402.7,178.5 402.9,181.2 403.2,180.4 403.4,185.7 403.6,184.7 403.9,183.6 404.1,181.8 404.3,184.3 404.5,183.5 404.8,183.2 405.0,186.8 405.2,185.8 405.4,186.2 405.7,185.4 405.9,183.0 406.1,182.3 406.3,183.7 406.6,181.5 406.8,178.7 407.0,178.2 407.2,179.7 407.5,179.2 407.7,176.7 407.9,176.1 408.1,172.9 408.4,173.0 408.6,173.9 408.8,172.8 409.0,173.0 409.3,173.9 409.5,174.5 409.7,173.8 409.9,173.4 410.2,172.3 410.4,172.5 410.6,170.8 410.8,174.5 411.1,175.8 411.3,174.5 411.5,171.3 411.7,172.4 412.0,172.7 412.2,174.6 412.4,175.1 412.6,174.0 412.9,175.5 413.1,173.5 413.3,171.2 413.5,170.1 413.8,170.4 414.0,168.8 414.2,168.5 414.4,169.8 414.7,157.0 414.9,157.5 415.1,154.9 415.4,154.7 415.6,153.3 415.8,153.9 416.0,151.2 416.3,151.3 416.5,152.6 416.7,153.2 416.9,154.9 417.2,154.4 417.4,154.4 417.6,155.7 417.8,153.1 418.1,152.5 418.3,150.0 418.5,150.9 418.7,149.9 419.0,152.1 419.2,150.8 419.4,150.1 419.6,149.1 419.9,146.2 420.1,147.0 420.3,148.9 420.5,148.5 420.8,148.7 421.0,146.7 421.2,146.1 421.4,145.2 421.7,143.9 421.9,143.9 422.1,142.0 422.3,143.4 422.6,145.2 422.8,146.5 423.0,144.2 423.2,144.1 423.5,144.1 423.7,143.4 423.9,144.4 424.1,143.8 424.4,142.9 424.6,143.0 424.8,143.5 425.0,143.0 425.3,142.0 425.5,143.9 425.7,144.1 426.0,145.9 426.2,145.3 426.4,145.0 426.6,144.4 426.9,142.9 427.1,142.8 427.3,142.1 427.5,138.3 427.8,138.9 428.0,139.9 428.2,137.2 428.4,136.8 428.7,138.9 428.9,139.3 429.1,137.2 429.3,135.7 429.6,135.8 429.8,137.4 430.0,134.1 430.2,130.7 430.5,132.9 430.7,133.9 430.9,132.0 431.1,129.4 431.4,127.8 431.6,127.0 431.8,128.9 432.0,126.7 432.3,131.7 432.5,135.3 432.7,136.8 432.9,138.2 433.2,140.2 433.4,143.7 433.6,144.1 433.8,150.9 434.1,155.0 434.3,147.5 434.5,149.4 434.7,143.2 435.0,145.3 435.2,148.8 435.4,154.9 435.6,150.6 435.9,155.2 436.1,170.9 436.3,159.2 436.5,178.8 436.8,171.5 437.0,180.4 437.2,184.4 437.5,203.5 437.7,211.4 437.9,199.8 438.1,192.0 438.4,180.3 438.6,188.5 438.8,183.0 439.0,187.8 439.3,200.4 439.5,200.7 439.7,201.4 439.9,183.8 440.2,186.6 440.4,183.6 440.6,182.5 440.8,181.8 441.1,178.5 441.3,183.9 441.5,184.7 441.7,179.0 442.0,184.7 442.2,189.9 442.4,186.3 442.6,182.8 442.9,180.6 443.1,176.8 443.3,173.0 443.5,171.9 443.8,174.6 444.0,179.2 444.2,183.4 444.4,180.3 444.7,178.4 444.9,175.2 445.1,172.0 445.3,172.9 445.6,175.8 445.8,185.2 446.0,185.3 446.2,186.3 446.5,181.7 446.7,184.2 446.9,179.4 447.1,184.6 447.4,184.2 447.6,178.9 447.8,176.8 448.0,175.5 448.3,175.8 448.5,174.4 448.7,175.3 449.0,168.0 449.2,166.5 449.4,154.0 449.6,153.8 449.9,158.0 450.1,162.4 450.3,173.0 450.5,171.8 450.8,171.0 451.0,168.3 451.2,168.7 451.4,170.5 451.7,170.9 451.9,170.9 452.1,171.0 452.3,178.2 452.6,177.9 452.8,179.4 453.0,175.2 453.2,171.6 453.5,172.1 453.7,171.4 453.9,169.1 454.1,171.9 454.4,171.2 454.6,174.1 454.8,172.7 455.0,172.3 455.3,168.7 455.5,165.1 455.7,164.2 455.9,165.0 456.2,164.0 456.4,160.9 456.6,158.5 456.8,171.1 457.1,173.4 457.3,172.8 457.5,177.1 457.7,177.6 458.0,178.6 458.2,175.7 458.4,174.2 458.6,175.8 458.9,174.2 459.1,176.1 459.3,174.7 459.6,171.5 459.8,168.8 460.0,168.8 460.2,170.9 460.5,172.6 460.7,171.6 460.9,174.0 461.1,173.8 461.4,175.9 461.6,174.5 461.8,170.6 462.0,171.8 462.3,171.3 462.5,170.1 462.7,169.0 462.9,169.9 463.2,171.8 463.4,167.9 463.6,174.3 463.8,175.4 464.1,177.9 464.3,176.9 464.5,179.4 464.7,178.0 465.0,176.2 465.2,173.1 465.4,168.8 465.6,168.6 465.9,169.6 466.1,177.8 466.3,177.1 466.5,181.5 466.8,181.1 467.0,178.6 467.2,175.6 467.4,175.7 467.7,176.1 467.9,176.7 468.1,176.2 468.3,173.2 468.6,173.1 468.8,172.1 469.0,169.0 469.2,168.6 469.5,163.2 469.7,167.1 469.9,167.9 470.1,167.4 470.4,167.1 470.6,168.7 470.8,166.7 471.1,168.7 471.3,171.5 471.5,170.2 471.7,173.2 472.0,175.5 472.2,180.0 472.4,177.3 472.6,176.7 472.9,172.2 473.1,168.4 473.3,172.1 473.5,168.4 473.8,170.2 474.0,157.6 474.2,153.3 474.4,157.0 474.7,160.0 474.9,154.8 475.1,149.3 475.3,152.9 475.6,154.1 475.8,154.7 476.0,156.1 476.2,154.6 476.5,151.2 476.7,153.2 476.9,154.5 477.1,154.8 477.4,153.5 477.6,155.4 477.8,155.1 478.0,154.1 478.3,157.2 478.5,156.0 478.7,158.3 478.9,159.3 479.2,160.7 479.4,160.6 479.6,157.4 479.8,158.1 480.1,155.9 480.3,154.7 480.5,156.0 480.7,156.5 481.0,156.0 481.2,155.7 481.4,153.7 481.6,155.0 481.9,153.2 482.1,151.3 482.3,153.8 482.6,153.5 482.8,150.1 483.0,146.2 483.2,146.7 483.5,146.3 483.7,146.9 483.9,150.5 484.1,151.4 484.4,153.9 484.6,153.5 484.8,154.1 485.0,153.0 485.3,154.9 485.5,156.9 485.7,158.0 485.9,156.8 486.2,159.1 486.4,163.9 486.6,159.3 486.8,158.5 487.1,157.8 487.3,157.2 487.5,154.7 487.7,150.5 488.0,150.9 488.2,149.3 488.4,147.8 488.6,148.9 488.9,160.0 489.1,160.7 489.3,162.1 489.5,161.0 489.8,161.1 490.0,161.4 490.2,160.7 490.4,163.1 490.7,161.4 490.9,157.4 491.1,156.0 491.3,156.8 491.6,159.2 491.8,155.3 492.0,151.2 492.2,153.8 492.5,151.9 492.7,153.1 492.9,150.1 493.2,149.1 493.4,144.6 493.6,143.1 493.8,143.8 494.1,146.4 494.3,145.7 494.5,147.2 494.7,144.2 495.0,142.0 495.2,138.1 495.4,138.6 495.6,139.8 495.9,139.4 496.1,136.9 496.3,134.3 496.5,132.6 496.8,132.7 497.0,133.3 497.2,132.4 497.4,132.5 497.7,135.1 497.9,134.0 498.1,133.7 498.3,130.9 498.6,131.6 498.8,131.5 499.0,130.8 499.2,128.1 499.5,125.0 499.7,127.3 499.9,125.7 500.1,127.0 500.4,126.2 500.6,129.3 500.8,127.5 501.0,126.0 501.3,127.3 501.5,123.0 501.7,121.9 501.9,120.5 502.2,123.5 502.4,128.2 502.6,124.1 502.8,122.9 503.1,124.4 503.3,126.2 503.5,125.7 503.7,125.8 504.0,125.9 504.2,124.6 504.4,124.0 504.7,124.2 504.9,123.0 505.1,122.7 505.3,123.9 505.6,125.0 505.8,125.4 506.0,124.5 506.2,125.4 506.5,124.3 506.7,125.3 506.9,124.7 507.1,124.6 507.4,125.0 507.6,124.4 507.8,123.8 508.0,126.5 508.3,128.7 508.5,125.2 508.7,124.2 508.9,124.8 509.2,124.2 509.4,124.1 509.6,123.5 509.8,123.7 510.1,123.6 510.3,122.6 510.5,122.8 510.7,124.4 511.0,122.8 511.2,125.5 511.4,124.7 511.6,124.8 511.9,129.3 512.1,127.3 512.3,125.7 512.5,124.4 512.8,127.3 513.0,121.4 513.2,122.3 513.4,127.2 513.7,123.7 513.9,124.9 514.1,126.4 514.3,127.6 514.6,127.7 514.8,126.5 515.0,127.3 515.2,125.2 515.5,127.7 515.7,125.7 515.9,125.5 516.2,126.8 516.4,126.6 516.6,125.9 516.8,126.0 517.1,125.0 517.3,122.9 517.5,122.7 517.7,122.9 518.0,122.6 518.2,124.4 518.4,123.8 518.6,122.4 518.9,121.6 519.1,122.8 519.3,121.2 519.5,119.6 519.8,118.6 520.0,118.0 520.2,114.8 520.4,114.4 520.7,119.5 520.9,117.7 521.1,119.4 521.3,118.0 521.6,120.4 521.8,123.3 522.0,121.2 522.2,121.2 522.5,124.1 522.7,125.4 522.9,127.5 523.1,126.4 523.4,123.9 523.6,125.3 523.8,125.8 524.0,128.3 524.3,127.6 524.5,131.0 524.7,130.7 524.9,133.2 525.2,133.9 525.4,134.3 525.6,131.8 525.8,131.9 526.1,134.6 526.3,135.4 526.5,134.8 526.8,130.8 527.0,128.9 527.2,128.1 527.4,128.2 527.7,125.8 527.9,131.8 528.1,129.5 528.3,132.3 528.6,134.1 528.8,136.6 529.0,135.9 529.2,135.5 529.5,133.7 529.7,132.2 529.9,134.2 530.1,132.3 530.4,131.9 530.6,131.2 530.8,130.2 531.0,130.5 531.3,130.8 531.5,127.7 531.7,129.0 531.9,127.2 532.2,126.3 532.4,128.0 532.6,129.2 532.8,130.6 533.1,131.2 533.3,131.2 533.5,134.3 533.7,135.1 534.0,141.0 534.2,142.1 534.4,135.3 534.6,134.4 534.9,131.7 535.1,131.5 535.3,130.7 535.5,132.5 535.8,132.3 536.0,133.0 536.2,134.0 536.4,133.1 536.7,131.7 536.9,135.6 537.1,139.9 537.3,137.4 537.6,137.5 537.8,136.3 538.0,133.6 538.3,131.9 538.5,130.4 538.7,131.3 538.9,130.3 539.2,133.8 539.4,130.4 539.6,133.9 539.8,135.3 540.1,137.0 540.3,138.9 540.5,135.9 540.7,135.9 541.0,137.6 541.2,139.6 541.4,140.3 541.6,141.5 541.9,144.2 542.1,143.5 542.3,140.7 542.5,144.2 542.8,144.6 543.0,144.5 543.2,143.6 543.4,141.7 543.7,145.1 543.9,144.9 544.1,150.0 544.3,146.0 544.6,144.5 544.8,143.0 545.0,138.8 545.2,144.2 545.5,146.5 545.7,147.2 545.9,148.8 546.1,151.1 546.4,152.0 546.6,152.6 546.8,153.4 547.0,158.7 547.3,155.8 547.5,151.3 547.7,152.1 547.9,151.9 548.2,148.4 548.4,148.0 548.6,148.5 548.8,151.8 549.1,156.2 549.3,152.1 549.5,154.2 549.8,156.3 550.0,155.5 550.2,151.6 550.4,149.1 550.7,147.3 550.9,146.9 551.1,148.0 551.3,147.7 551.6,153.3 551.8,154.1 552.0,154.5 552.2,152.9 552.5,150.9 552.7,153.1 552.9,157.9 553.1,155.5 553.4,155.8 553.6,157.4 553.8,161.7 554.0,159.7 554.3,162.1 554.5,162.4 554.7,163.4 554.9,160.1 555.2,161.1 555.4,162.3 555.6,158.5 555.8,154.1 556.1,154.8 556.3,151.6 556.5,151.3 556.7,151.9 557.0,149.6 557.2,145.6 557.4,151.9 557.6,151.2 557.9,150.4 558.1,146.5 558.3,152.5 558.5,154.1 558.8,152.4 559.0,156.6 559.2,159.5 559.4,156.0 559.7,153.8 559.9,155.2 560.1,152.7 560.3,158.7 560.6,159.2 560.8,158.8 561.0,159.6 561.3,160.3 561.5,160.2 561.7,156.5 561.9,152.8 562.2,155.3 562.4,155.1 562.6,152.1 562.8,155.6 563.1,154.8 563.3,153.1 563.5,156.9 563.7,159.6 564.0,161.5 564.2,167.2 564.4,169.9 564.6,170.2 564.9,176.8 565.1,177.8 565.3,178.8 565.5,178.2 565.8,176.1 566.0,171.8 566.2,172.4 566.4,173.6 566.7,173.6 566.9,174.4 567.1,171.8 567.3,170.6 567.6,170.2 567.8,169.7 568.0,173.4 568.2,174.4 568.5,175.9 568.7,178.2 568.9,178.0 569.1,175.8 569.4,177.9 569.6,170.5 569.8,168.8 570.0,166.1 570.3,166.2 570.5,166.8 570.7,167.2 570.9,165.1 571.2,164.9 571.4,162.9 571.6,163.4 571.9,167.2 572.1,166.0 572.3,166.4 572.5,167.9 572.8,167.0 573.0,172.5 573.2,168.4 573.4,167.0 573.7,161.9 573.9,160.8 574.1,159.1 574.3,158.9 574.6,158.2 574.8,161.9 575.0,166.6 575.2,168.4 575.5,168.4 575.7,166.3 575.9,174.8 576.1,176.2 576.4,176.3 576.6,178.7 576.8,177.7 577.0,179.1 577.3,179.5 577.5,174.2 577.7,174.0 577.9,171.8 578.2,169.4 578.4,177.5 578.6,178.7 578.8,181.2 579.1,186.8 579.3,182.7 579.5,184.5 579.7,184.5 580.0,185.3 580.2,183.0 580.4,186.0 580.6,188.0 580.9,183.4 581.1,187.5 581.3,186.9 581.5,182.3 581.8,176.9 582.0,176.7 582.2,179.2 582.4,182.4 582.7,183.4 582.9,183.7 583.1,185.5 583.4,182.7 583.6,186.4 583.8,180.6 584.0,178.0 584.3,182.9 584.5,186.7 584.7,181.8 584.9,179.2 585.2,174.3 585.4,174.6 585.6,165.5 585.8,161.6 586.1,163.6 586.3,161.1 586.5,167.6 586.7,167.1 587.0,166.0 587.2,160.3 587.4,160.7 587.6,164.2 587.9,151.0 588.1,151.5 588.3,155.0 588.5,152.8 588.8,154.9 589.0,155.3 589.2,152.3 589.4,152.7 589.7,151.0 589.9,151.0 590.1,150.5 590.3,153.3 590.6,155.3 590.8,151.4 591.0,150.9 591.2,150.3 591.5,154.9 591.7,157.4 591.9,157.5 592.1,155.1 592.4,157.5 592.6,156.0 592.8,153.8 593.0,156.6 593.3,161.7 593.5,164.3 593.7,163.3 593.9,163.4 594.2,160.2 594.4,162.4 594.6,162.6 594.9,161.3 595.1,163.7 595.3,160.2 595.5,162.3 595.8,158.9 596.0,156.8 596.2,158.8 596.4,153.8 596.7,152.7 596.9,153.0 597.1,150.2 597.3,151.0 597.6,150.7 597.8,152.0 598.0,154.4 598.2,158.1 598.5,154.0 598.7,152.9 598.9,151.2 599.1,151.2 599.4,151.4 599.6,150.0 599.8,149.8 600.0,145.8 600.3,142.6 600.5,140.6 600.7,139.1 600.9,141.6 601.2,142.4 601.4,142.5 601.6,144.5 601.8,145.1 602.1,142.8 602.3,142.9 602.5,140.7 602.7,144.3 603.0,144.5 603.2,149.1 603.4,151.5 603.6,150.7 603.9,151.7 604.1,151.7 604.3,152.1 604.5,152.5 604.8,152.3 605.0,149.4 605.2,149.8 605.5,151.2 605.7,149.9 605.9,153.7 606.1,159.2 606.4,161.3 606.6,158.4 606.8,163.7 607.0,160.4 607.3,164.5 607.5,160.9 607.7,159.3 607.9,163.7 608.2,166.0 608.4,168.5 608.6,165.8 608.8,163.2 609.1,161.5 609.3,162.0 609.5,159.6 609.7,160.6 610.0,169.4 610.2,170.6 610.4,169.9 610.6,168.8 610.9,167.4 611.1,167.1 611.3,166.2 611.5,165.3 611.8,162.9 612.0,163.0 612.2,163.2 612.4,163.2 612.7,165.0 612.9,164.7 613.1,166.5 613.3,158.6 613.6,153.2 613.8,154.4 614.0,154.2 614.2,155.6 614.5,156.5 614.7,159.2 614.9,157.7 615.1,158.4 615.4,158.1 615.6,157.4 615.8,156.6 616.0,156.9 616.3,155.9 616.5,159.9 616.7,156.4 617.0,154.4 617.2,156.1 617.4,155.4 617.6,158.0 617.9,160.2 618.1,161.7 618.3,159.1 618.5,159.1 618.8,162.4 619.0,162.4 619.2,156.1 619.4,157.2 619.7,154.9 619.9,151.0 620.1,150.9 620.3,151.5 620.6,149.0 620.8,144.9 621.0,145.6 621.2,142.8 621.5,143.5 621.7,143.7 621.9,142.2 622.1,146.1 622.4,147.2 622.6,145.1 622.8,142.8 623.0,143.8 623.3,142.0 623.5,141.5 623.7,143.1 623.9,145.8 624.2,147.3 624.4,145.6 624.6,143.3 624.8,139.8 625.1,138.6 625.3,138.1 625.5,138.1 625.7,136.4 626.0,134.7 626.2,134.4 626.4,135.9 626.6,135.2 626.9,133.8 627.1,132.9 627.3,144.9 627.5,147.2 627.8,147.9 628.0,145.5 628.2,146.4 628.5,148.6 628.7,152.4 628.9,151.9 629.1,150.2 629.4,152.1 629.6,153.3 629.8,152.8 630.0,152.6 630.3,151.4 630.5,155.5 630.7,157.6 630.9,160.2 631.2,157.8 631.4,158.0 631.6,157.6 631.8,153.9 632.1,156.7 632.3,154.7 632.5,153.4 632.7,150.8 633.0,149.7 633.2,149.4 633.4,148.2 633.6,153.0 633.9,156.6 634.1,157.2 634.3,157.1 634.5,156.9 634.8,159.0 635.0,160.7 635.2,159.6 635.4,159.9 635.7,160.6 635.9,159.7 636.1,161.9 636.3,162.5 636.6,162.5 636.8,162.3 637.0,165.1 637.2,163.3 637.5,161.9 637.7,162.0 637.9,163.5 638.1,164.0 638.4,162.1 638.6,164.1 638.8,162.7 639.1,161.6 639.3,160.2 639.5,159.5 639.7,162.4 640.0,163.0 640.2,160.5 640.4,160.0 640.6,168.0 640.9,170.3 641.1,172.7 641.3,172.9 641.5,172.5 641.8,173.4 642.0,172.3 642.2,172.0 642.4,171.6 642.7,170.6 642.9,169.8 643.1,169.5 643.3,165.3 643.6,165.6 643.8,166.1 644.0,165.1 644.2,166.5 644.5,163.0 644.7,163.4 644.9,159.5 645.1,158.5 645.4,159.5 645.6,158.9 645.8,159.8 646.0,162.1 646.3,161.3 646.5,160.8 646.7,162.1 646.9,162.1 647.2,161.4 647.4,159.3 647.6,155.7 647.8,158.0 648.1,160.1 648.3,160.7 648.5,160.7 648.7,153.4 649.0,154.2 649.2,154.2 649.4,152.2 649.6,142.7 649.9,143.4 650.1,142.9 650.3,140.9 650.6,139.6 650.8,136.6 651.0,132.9 651.2,131.3 651.5,131.1 651.7,132.0 651.9,132.2 652.1,135.1 652.4,138.4 652.6,137.5 652.8,136.9 653.0,135.7 653.3,135.3 653.5,137.7 653.7,139.5 653.9,140.6 654.2,141.0 654.4,141.9 654.6,138.8 654.8,137.6 655.1,133.7 655.3,135.0 655.5,136.7 655.7,133.3 656.0,134.3 656.2,132.0 656.4,132.8 656.6,135.5 656.9,131.5 657.1,131.1 657.3,133.3 657.5,133.0 657.8,131.9 658.0,127.7 658.2,126.1 658.4,124.3 658.7,128.8 658.9,127.0 659.1,124.6 659.3,125.6 659.6,126.0 659.8,127.1 660.0,128.7 660.2,129.4 660.5,130.1 660.7,129.1 660.9,130.5 661.1,130.8 661.4,132.1 661.6,129.7 661.8,131.2 662.1,130.2 662.3,126.2 662.5,127.3 662.7,127.1 663.0,124.8 663.2,125.2 663.4,127.7 663.6,127.3 663.9,126.2 664.1,124.3 664.3,121.8 664.5,121.8 664.8,123.1 665.0,124.5 665.2,124.0 665.4,123.0 665.7,122.4 665.9,125.1 666.1,126.0 666.3,126.1 666.6,126.6 666.8,125.1 667.0,124.5 667.2,123.4 667.5,128.8 667.7,128.1 667.9,130.8 668.1,131.3 668.4,132.0 668.6,132.7 668.8,133.8 669.0,133.4 669.3,133.1 669.5,131.3 669.7,131.8 669.9,133.8 670.2,135.0 670.4,133.9 670.6,137.8 670.8,138.4 671.1,137.0 671.3,136.2 671.5,133.8 671.7,134.4 672.0,134.7 672.2,132.8 672.4,132.5 672.7,132.8 672.9,130.9 673.1,130.2 673.3,133.2 673.6,134.3 673.8,135.8 674.0,135.4 674.2,136.0 674.5,137.8 674.7,136.5 674.9,139.2 675.1,140.5 675.4,139.2 675.6,137.5 675.8,139.1 676.0,142.7 676.3,141.9 676.5,142.9 676.7,143.6 676.9,142.9 677.2,143.1 677.4,139.8 677.6,140.8 677.8,143.7 678.1,143.9 678.3,143.4 678.5,144.5 678.7,143.9 679.0,141.2 679.2,144.0 679.4,146.0 679.6,143.8 679.9,141.5 680.1,144.5 680.3,144.1 680.5,144.6 680.8,145.6 681.0,145.4 681.2,145.9 681.4,142.9 681.7,139.3 681.9,135.5 682.1,135.8 682.3,129.5 682.6,130.7 682.8,130.2 683.0,134.1 683.2,131.0 683.5,130.4 683.7,129.6 683.9,123.9 684.2,119.6 684.4,118.6 684.6,116.8 684.8,119.5 685.1,124.5 685.3,127.7 685.5,129.8 685.7,130.0 686.0,131.2 686.2,127.8 686.4,128.4 686.6,128.6 686.9,127.1 687.1,125.9 687.3,123.8 687.5,125.7 687.8,123.9 688.0,124.6 688.2,122.1 688.4,121.5 688.7,119.3 688.9,118.5 689.1,119.1 689.3,119.7 689.6,119.0 689.8,117.3 690.0,119.3 690.2,118.9 690.5,120.7 690.7,122.1 690.9,122.0 691.1,120.2 691.4,119.2 691.6,117.0 691.8,114.8 692.0,113.2 692.3,112.5 692.5,112.5 692.7,112.1 692.9,115.1 693.2,112.8 693.4,111.5 693.6,112.0 693.8,111.7 694.1,111.6 694.3,109.5 694.5,110.3 694.7,109.4 695.0,109.4 695.2,109.7 695.4,109.3 695.7,109.9 695.9,108.7 696.1,110.7 696.3,108.0 696.6,105.8 696.8,105.7 697.0,104.3 697.2,102.8 697.5,101.9 697.7,103.2 697.9,104.6 698.1,104.4 698.4,110.0 698.6,112.8 698.8,113.1 699.0,115.8 699.3,116.6 699.5,116.0 699.7,115.7 699.9,116.1 700.2,114.6 700.4,114.6 700.6,112.7 700.8,111.6 701.1,111.9 701.3,113.6 701.5,114.7 701.7,114.2 702.0,115.8 702.2,117.0 702.4,117.6 702.6,116.2 702.9,114.1 703.1,114.1 703.3,112.7 703.5,115.1 703.8,114.1 704.0,114.7 704.2,115.1 704.4,115.0 704.7,114.4 704.9,115.2 705.1,115.0 705.3,114.0 705.6,114.9 705.8,115.1 706.0,116.4 706.2,116.8 706.5,118.2 706.7,118.7 706.9,123.3 707.2,125.4 707.4,123.6 707.6,123.7 707.8,122.7 708.1,122.7 708.3,123.9 708.5,125.0 708.7,125.3 709.0,127.8 709.2,125.9 709.4,127.1 709.6,129.1 709.9,128.0 710.1,130.5 710.3,128.1 710.5,126.4 710.8,125.1 711.0,123.1 711.2,122.0 711.4,120.4 711.7,123.6 711.9,122.4 712.1,123.2 712.3,119.9 712.6,123.7 712.8,125.0 713.0,122.1 713.2,123.0 713.5,127.6 713.7,127.9 713.9,127.2 714.1,126.9 714.4,127.6 714.6,125.5 714.8,124.1 715.0,124.4 715.3,122.5 715.5,122.3 715.7,130.9 715.9,130.1 716.2,129.5 716.4,129.4 716.6,128.5 716.8,126.2 717.1,126.8 717.3,129.2 717.5,127.6 717.8,130.2 718.0,133.4 718.2,130.2 718.4,129.2 718.7,124.6 718.9,123.5 719.1,130.8 719.3,133.3 719.6,132.0 719.8,129.4 720.0,128.6 720.2,127.9 720.5,127.1 720.7,128.2 720.9,128.9 721.1,124.8 721.4,126.0 721.6,125.1 721.8,125.3 722.0,127.5 722.3,125.0 722.5,124.4 722.7,123.1 722.9,128.8 723.2,133.0 723.4,136.5 723.6,139.4 723.8,131.8 724.1,134.9 724.3,131.2 724.5,129.9 724.7,129.1 725.0,131.2 725.2,129.8 725.4,133.5 725.6,129.2 725.9,129.7 726.1,115.0 726.3,118.2 726.5,117.4 726.8,116.4 727.0,115.3 727.2,115.8 727.4,113.4 727.7,113.5 727.9,114.5 728.1,114.2 728.3,113.5 728.6,112.5 728.8,110.4 729.0,111.4 729.3,113.3 729.5,111.4 729.7,108.5 729.9,109.7 730.2,110.6 730.4,112.4 730.6,112.7 730.8,113.0 731.1,109.7 731.3,111.2 731.5,110.9 731.7,111.6 732.0,115.1 732.2,115.4 732.4,116.5 732.6,116.3 732.9,115.3 733.1,114.9 733.3,114.8 733.5,116.7 733.8,115.9 734.0,119.0 734.2,118.1 734.4,117.9 734.7,117.3 734.9,116.4 735.1,111.3 735.3,110.1 735.6,110.9 735.8,110.3 736.0,109.8 736.2,109.5 736.5,105.9 736.7,105.6 736.9,105.4 737.1,105.4 737.4,105.0 737.6,103.5 737.8,102.0 738.0,104.7 738.3,105.2 738.5,108.1 738.7,107.5 738.9,100.1 739.2,100.8 739.4,103.9 739.6,100.9 739.8,99.3 740.1,90.5 740.3,88.9 740.5,90.5 740.8,90.1 741.0,89.5 741.2,88.5 741.4,89.2 741.7,87.7 741.9,88.9 742.1,89.8 742.3,90.4 742.6,90.5 742.8,89.8 743.0,88.0 743.2,85.2 743.5,86.1 743.7,87.3 743.9,87.3 744.1,84.9 744.4,86.1 744.6,87.3 744.8,82.9 745.0,85.0 745.3,83.5 745.5,83.1 745.7,84.0 745.9,85.0 746.2,86.6 746.4,86.9 746.6,84.2 746.8,83.2 747.1,82.1 747.3,84.9 747.5,84.4 747.7,78.6 748.0,80.5 748.2,79.5 748.4,78.8 748.6,79.1 748.9,77.3 749.1,76.8 749.3,78.1 749.5,78.4 749.8,80.2 750.0,82.2 750.2,80.5 750.4,80.5 750.7,78.5 750.9,79.0 751.1,78.2 751.4,78.5 751.6,78.5 751.8,78.8 752.0,77.7 752.3,80.1 752.5,82.0 752.7,81.6 752.9,80.0 753.2,78.6 753.4,78.4 753.6,78.4 753.8,78.0 754.1,76.7 754.3,80.1 754.5,83.8 754.7,87.2 755.0,84.0 755.2,85.6 755.4,88.8 755.6,89.0 755.9,88.6 756.1,89.6 756.3,88.8 756.5,88.6 756.8,89.2 757.0,87.2 757.2,87.6 757.4,87.0 757.7,86.3 757.9,89.7 758.1,92.7 758.3,93.9 758.6,92.9 758.8,93.3 759.0,94.4 759.2,91.2 759.5,91.8 759.7,88.3 759.9,88.7 760.1,88.4 760.4,89.1 760.6,90.1 760.8,90.2 761.0,93.1 761.3,94.8 761.5,95.0 761.7,96.3 761.9,93.6 762.2,89.6 762.4,93.1 762.6,91.1 762.9,94.2 763.1,93.2 763.3,94.0 763.5,93.9 763.8,93.2 764.0,93.3 764.2,93.1 764.4,93.2 764.7,92.6 764.9,92.8 765.1,94.6 765.3,93.0 765.6,92.1 765.8,92.2 766.0,94.8 766.2,90.0 766.5,91.4 766.7,92.5 766.9,92.3 767.1,92.4 767.4,90.7 767.6,89.3 767.8,91.1 768.0,88.5 768.3,87.6 768.5,87.7 768.7,87.5 768.9,87.6 769.2,89.4 769.4,89.8 769.6,88.9 769.8,88.8 770.1,86.7 770.3,82.2 770.5,79.8 770.7,76.5 771.0,78.0 771.2,77.2 771.4,76.8 771.6,77.8 771.9,76.7 772.1,91.4 772.3,91.5 772.5,92.7 772.8,91.9 773.0,95.1 773.2,95.0 773.4,98.0 773.7,93.5 773.9,92.8 774.1,91.6 774.4,95.4 774.6,97.1 774.8,101.3 775.0,103.2 775.3,103.3 775.5,106.0 775.7,106.9 775.9,107.7 776.2,107.7 776.4,107.2 776.6,107.1 776.8,108.4 777.1,109.3 777.3,110.7 777.5,109.5 777.7,107.3 778.0,105.5 778.2,107.2 778.4,108.6 778.6,110.2 778.9,107.8 779.1,108.9 779.3,112.2 779.5,113.1 779.8,113.9 780.0,108.6 780.2,106.7 780.4,108.3 780.7,105.8 780.9,106.0 781.1,111.6 781.3,111.7 781.6,108.8 781.8,107.9 782.0,109.6 782.2,108.1 782.5,105.6 782.7,106.9 782.9,104.6 783.1,115.6 783.4,116.1 783.6,116.0 783.8,118.2 784.0,121.6 784.3,121.8 784.5,118.4 784.7,116.8 785.0,119.4 785.2,121.7 785.4,122.9 785.6,123.7 785.9,123.1 786.1,129.5 786.3,126.2 786.5,128.9 786.8,125.3 787.0,123.6 787.2,123.9 787.4,122.6 787.7,123.0 787.9,122.8 788.1,124.3 788.3,124.2 788.6,124.6 788.8,124.3 789.0,124.0 789.2,124.2 789.5,127.1 789.7,123.2 789.9,125.1 790.1,120.2 790.4,119.9 790.6,119.6 790.8,118.3 791.0,123.6 791.3,119.7 791.5,122.7 791.7,125.2 791.9,119.2 792.2,115.9 792.4,113.0 792.6,113.1 792.8,112.2 793.1,112.8 793.3,112.1 793.5,112.5 793.7,113.4 794.0,118.1 794.2,118.1 794.4,116.3 794.6,116.6 794.9,116.5 795.1,117.2 795.3,113.2 795.5,115.7 795.8,114.7 796.0,114.2"/>
<text x="78" y="392" font-size="11" fill="#16a34a">Total return +226.7%</text><text x="268" y="392" font-size="11" fill="#2563eb">Price-only +185.8%</text><text x="78" y="362" font-size="11" text-anchor="middle" fill="#64748b">2013-11</text><text x="258" y="362" font-size="11" text-anchor="middle" fill="#64748b">2017-01</text><text x="437" y="362" font-size="11" text-anchor="middle" fill="#64748b">2020-03</text><text x="616" y="362" font-size="11" text-anchor="middle" fill="#64748b">2023-05</text><text x="796" y="362" font-size="11" text-anchor="middle" fill="#64748b">2026-07</text></svg>