<svg xmlns="http://www.w3.org/2000/svg" width="720" height="360" viewBox="0 0 720 360">
  <rect width="720" height="360" fill="#fafafa"/>
  <text x="56" y="22" font-size="13" font-family="sans-serif" fill="#222">CSU total return (rebased 100) · cumulative distributions $0.00/sh · market cap n/a</text>
  <line x1="56" y1="308" x2="696" y2="308" stroke="#ccc"/>
  <line x1="56" y1="48" x2="56" y2="308" stroke="#ccc"/>
  <polyline fill="none" stroke="#2563eb" stroke-width="2" points="56.0,290.0 58.9,290.0 61.7,290.0 64.6,290.1 67.4,290.0 70.3,290.1 73.1,290.1 76.0,289.9 78.9,289.8 81.7,289.9 84.6,289.8 87.4,289.9 90.3,290.0 93.1,290.0 96.0,289.9 98.9,290.0 101.7,290.0 104.6,289.8 107.4,289.6 110.3,289.6 113.1,289.6 116.0,289.6 118.9,289.5 121.7,289.5 124.6,289.5 127.4,289.5 130.3,289.4 133.1,289.4 136.0,289.3 138.9,289.1 141.7,289.1 144.6,289.3 147.4,289.3 150.3,289.3 153.1,289.2 156.0,289.2 158.9,289.1 161.7,289.0 164.6,288.8 167.4,288.9 170.3,288.7 173.1,288.2 176.0,288.0 178.9,287.7 181.7,287.9 184.6,287.8 187.4,287.9 190.3,287.9 193.1,288.0 196.0,288.0 198.9,287.6 201.7,287.1 204.6,286.6 207.4,287.1 210.3,286.9 213.1,287.1 216.0,286.9 218.9,286.9 221.7,286.6 224.6,286.4 227.4,285.9 230.3,285.7 233.1,285.7 236.0,285.5 238.9,285.6 241.7,285.5 244.6,284.9 247.4,284.2 250.3,284.6 253.1,284.3 256.0,283.3 258.9,282.9 261.7,282.5 264.6,282.6 267.4,281.0 270.3,280.3 273.1,280.1 276.0,279.0 278.9,280.2 281.7,280.1 284.6,278.8 287.4,279.4 290.3,278.9 293.1,278.4 296.0,276.8 298.9,276.1 301.7,275.5 304.6,275.2 307.4,272.1 310.3,271.4 313.1,269.8 316.0,268.1 318.9,268.7 321.7,264.9 324.6,265.7 327.4,265.9 330.3,265.6 333.1,265.3 336.0,265.1 338.9,268.1 341.7,265.6 344.6,267.1 347.4,269.0 350.3,267.1 353.1,268.6 356.0,267.1 358.9,265.3 361.7,264.4 364.6,262.8 367.4,262.9 370.3,263.6 373.1,264.6 376.0,263.0 378.9,261.6 381.7,262.9 384.6,259.6 387.4,260.5 390.3,260.8 393.1,259.8 396.0,260.4 398.9,258.0 401.7,257.0 404.6,256.7 407.4,255.2 410.3,253.6 413.1,251.7 416.0,249.7 418.9,245.0 421.7,245.1 424.6,248.6 427.4,246.2 430.3,248.3 433.1,250.2 436.0,250.0 438.9,251.7 441.7,246.9 444.6,240.4 447.4,240.0 450.3,237.8 453.1,238.3 456.0,235.4 458.9,234.5 461.7,232.6 464.6,231.4 467.4,232.4 470.3,227.1 473.1,234.2 476.0,228.4 478.9,229.4 481.7,233.4 484.6,230.7 487.4,220.5 490.3,222.0 493.1,219.7 496.0,223.0 498.9,224.4 501.7,228.0 504.6,218.6 507.4,216.6 510.3,220.9 513.1,216.8 516.0,212.0 518.9,209.8 521.7,213.7 524.6,206.4 527.4,201.0 530.3,194.7 533.1,197.5 536.0,193.0 538.9,193.1 541.7,185.3 544.6,192.4 547.4,194.8 550.3,194.7 553.1,199.9 556.0,201.3 558.9,204.9 561.7,192.9 564.6,201.9 567.4,204.4 570.3,202.3 573.1,193.3 576.0,195.8 578.9,185.1 581.7,185.3 584.6,176.5 587.4,171.5 590.3,166.3 593.1,167.3 596.0,165.5 598.9,165.9 601.7,164.7 604.6,165.7 607.4,147.4 610.3,143.0 613.1,123.5 616.0,120.7 618.9,124.2 621.7,131.3 624.6,120.1 627.4,113.3 630.3,94.7 633.1,92.7 636.0,92.7 638.9,101.7 641.7,77.6 644.6,90.7 647.4,76.8 650.3,66.2 653.1,85.6 656.0,67.1 658.9,66.7 661.7,65.9 664.6,75.5 667.4,85.9 670.3,120.7 673.1,124.7 676.0,138.6 678.9,142.2 681.7,177.8 684.6,177.4 687.4,181.0 690.3,179.5 693.1,163.8 696.0,151.7"/>
  <polyline fill="none" stroke="#16a34a" stroke-width="2" points="56.0,290.0 58.9,290.0 61.7,290.0 64.6,290.1 67.4,290.0 70.3,290.1 73.1,290.1 76.0,289.9 78.9,289.8 81.7,289.9 84.6,289.8 87.4,289.9 90.3,290.0 93.1,290.0 96.0,289.9 98.9,290.0 101.7,290.0 104.6,289.8 107.4,289.6 110.3,289.6 113.1,289.6 116.0,289.6 118.9,289.5 121.7,289.5 124.6,289.5 127.4,289.5 130.3,289.4 133.1,289.4 136.0,289.3 138.9,289.1 141.7,289.1 144.6,289.3 147.4,289.3 150.3,289.3 153.1,289.2 156.0,289.2 158.9,289.1 161.7,289.0 164.6,288.8 167.4,288.9 170.3,288.7 173.1,288.2 176.0,288.0 178.9,287.7 181.7,287.9 184.6,287.8 187.4,287.9 190.3,287.9 193.1,288.0 196.0,288.0 198.9,287.6 201.7,287.1 204.6,286.6 207.4,287.1 210.3,286.9 213.1,287.1 216.0,286.9 218.9,286.9 221.7,286.6 224.6,286.4 227.4,285.9 230.3,285.7 233.1,285.7 236.0,285.5 238.9,285.6 241.7,285.5 244.6,284.9 247.4,284.2 250.3,284.6 253.1,284.3 256.0,283.3 258.9,282.9 261.7,282.5 264.6,282.6 267.4,281.0 270.3,280.3 273.1,280.1 276.0,279.0 278.9,280.2 281.7,280.1 284.6,278.8 287.4,279.4 290.3,278.9 293.1,278.4 296.0,276.8 298.9,276.1 301.7,275.5 304.6,275.2 307.4,272.1 310.3,271.4 313.1,269.8 316.0,268.1 318.9,268.7 321.7,264.9 324.6,265.7 327.4,265.9 330.3,265.6 333.1,265.3 336.0,265.1 338.9,268.1 341.7,265.6 344.6,267.1 347.4,269.0 350.3,267.1 353.1,268.6 356.0,267.1 358.9,265.3 361.7,264.4 364.6,262.8 367.4,262.9 370.3,263.6 373.1,264.6 376.0,263.0 378.9,261.6 381.7,262.9 384.6,259.6 387.4,260.5 390.3,260.8 393.1,259.8 396.0,260.4 398.9,258.0 401.7,257.0 404.6,256.7 407.4,255.2 410.3,253.6 413.1,251.7 416.0,249.7 418.9,245.0 421.7,245.1 424.6,248.6 427.4,246.2 430.3,248.3 433.1,250.2 436.0,250.0 438.9,251.7 441.7,246.9 444.6,240.4 447.4,240.0 450.3,237.8 453.1,238.3 456.0,235.4 458.9,234.5 461.7,232.6 464.6,231.4 467.4,232.4 470.3,227.1 473.1,234.2 476.0,228.4 478.9,229.4 481.7,233.4 484.6,230.7 487.4,220.5 490.3,222.0 493.1,219.7 496.0,223.0 498.9,224.4 501.7,228.0 504.6,218.6 507.4,216.6 510.3,220.9 513.1,216.8 516.0,212.0 518.9,209.8 521.7,213.7 524.6,206.4 527.4,201.0 530.3,194.7 533.1,197.5 536.0,193.0 538.9,193.1 541.7,185.3 544.6,192.4 547.4,194.8 550.3,194.7 553.1,199.9 556.0,201.3 558.9,204.9 561.7,192.9 564.6,201.9 567.4,204.4 570.3,202.3 573.1,193.3 576.0,195.8 578.9,185.1 581.7,185.3 584.6,176.5 587.4,171.5 590.3,166.3 593.1,167.3 596.0,165.5 598.9,165.9 601.7,164.7 604.6,165.7 607.4,147.4 610.3,143.0 613.1,123.5 616.0,120.7 618.9,124.2 621.7,131.3 624.6,120.1 627.4,113.3 630.3,94.7 633.1,92.7 636.0,92.7 638.9,101.7 641.7,77.6 644.6,90.7 647.4,76.8 650.3,66.2 653.1,85.6 656.0,67.1 658.9,66.7 661.7,65.9 664.6,75.5 667.4,85.9 670.3,120.7 673.1,124.7 676.0,138.6 678.9,142.2 681.7,177.8 684.6,177.4 687.4,181.0 690.3,179.5 693.1,163.8 696.0,151.7"/>
  <text x="60" y="62" font-size="11" fill="#2563eb">Price index</text>
  <text x="146" y="62" font-size="11" fill="#16a34a">Total return (price + distributions)</text>
  <text x="56" y="348" font-size="11" text-anchor="middle" fill="#444">2007-10</text><text x="216" y="348" font-size="11" text-anchor="middle" fill="#444">2012-06</text><text x="376" y="348" font-size="11" text-anchor="middle" fill="#444">2017-02</text><text x="536" y="348" font-size="11" text-anchor="middle" fill="#444">2021-10</text><text x="696" y="348" font-size="11" text-anchor="middle" fill="#444">2026-06</text>
</svg>
