<svg xmlns="http://www.w3.org/2000/svg" width="820" height="410" viewBox="0 0 820 410">
<rect width="820" height="410" fill="#fafafa"/><text x="78" y="22" font-size="14" font-family="sans-serif" fill="#0f172a">TPHS cumulative return since 2012-10-02 | dividends reinvested</text>
<text x="78" y="40" font-size="11" font-family="sans-serif" fill="#334155">Total return -99.4% | Price-only -99.4% | logarithmic scale</text>
<text x="78" y="54" font-size="9" font-family="sans-serif" fill="#64748b">Regular $0.00 | Special $0.00 | Other $0.00 per initial share path</text>
<line x1="78" y1="332.0" x2="796" y2="332.0" stroke="#e2e8f0"/><text x="70" y="336.0" font-size="10" text-anchor="end" fill="#64748b">-99.6%</text><line x1="78" y1="287.0" x2="796" y2="287.0" stroke="#e2e8f0"/><text x="70" y="291.0" font-size="10" text-anchor="end" fill="#64748b">-98.8%</text><line x1="78" y1="242.0" x2="796" y2="242.0" stroke="#e2e8f0"/><text x="70" y="246.0" font-size="10" text-anchor="end" fill="#64748b">-96.1%</text><line x1="78" y1="197.0" x2="796" y2="197.0" stroke="#e2e8f0"/><text x="70" y="201.0" font-size="10" text-anchor="end" fill="#64748b">-87.5%</text><line x1="78" y1="152.0" x2="796" y2="152.0" stroke="#e2e8f0"/><text x="70" y="156.0" font-size="10" text-anchor="end" fill="#64748b">-60.0%</text><line x1="78" y1="116.5" x2="796" y2="116.5" stroke="#e2e8f0"/><text x="70" y="120.5" font-size="10" text-anchor="end" fill="#64748b">0%</text><line x1="78" y1="107.0" x2="796" y2="107.0" stroke="#e2e8f0"/><text x="70" y="111.0" font-size="10" text-anchor="end" fill="#64748b">+27.8%</text><line x1="78" y1="62.0" x2="796" y2="62.0" stroke="#e2e8f0"/><text x="70" y="66.0" font-size="10" text-anchor="end" fill="#64748b">+308.3%</text>
<line x1="78" y1="332" x2="796" y2="332" stroke="#cbd5e1"/>
<polyline fill="none" stroke="#2563eb" stroke-width="2" points="78.0,116.5 78.2,111.5 78.4,112.3 78.6,112.3 78.8,112.3 79.0,117.1 79.2,117.1 79.5,117.1 79.7,116.7 79.9,116.7 80.1,116.7 80.3,117.6 80.5,117.6 80.7,117.6 80.9,116.7 81.1,117.1 81.3,117.1 81.5,117.1 81.7,117.1 81.9,112.4 82.1,111.9 82.4,111.9 82.6,112.3 82.8,111.9 83.0,111.9 83.2,112.2 83.4,111.9 83.6,111.9 83.8,110.6 84.0,110.6 84.2,111.9 84.4,110.2 84.6,110.2 84.8,111.9 85.0,111.9 85.3,111.9 85.5,111.9 85.7,112.0 85.9,111.9 86.1,110.1 86.3,110.1 86.5,110.1 86.7,111.9 86.9,111.9 87.1,111.1 87.3,111.2 87.5,111.2 87.7,110.5 87.9,110.5 88.2,110.1 88.4,110.1 88.6,108.3 88.8,108.3 89.0,106.3 89.2,106.6 89.4,106.6 89.6,106.7 89.8,106.7 90.0,105.7 90.2,105.8 90.4,104.2 90.6,103.8 90.8,103.8 91.1,103.8 91.3,103.8 91.5,103.8 91.7,100.4 91.9,100.4 92.1,104.2 92.3,104.2 92.5,104.2 92.7,105.7 92.9,105.0 93.1,107.9 93.3,106.6 93.5,108.7 93.7,108.2 94.0,108.2 94.2,108.5 94.4,108.5 94.6,107.0 94.8,107.0 95.0,107.0 95.2,108.5 95.4,108.3 95.6,108.7 95.8,108.7 96.0,108.7 96.2,108.7 96.4,108.7 96.6,108.7 96.9,108.7 97.1,108.7 97.3,108.7 97.5,108.7 97.7,108.7 97.9,108.7 98.1,108.7 98.3,108.7 98.5,110.1 98.7,110.3 98.9,109.6 99.1,109.5 99.3,110.1 99.5,110.4 99.8,110.1 100.0,110.1 100.2,109.6 100.4,109.6 100.6,101.9 100.8,107.9 101.0,107.9 101.2,110.4 101.4,110.4 101.6,104.3 101.8,104.3 102.0,104.3 102.2,104.3 102.4,104.3 102.7,108.0 102.9,109.5 103.1,109.5 103.3,109.6 103.5,101.5 103.7,103.8 103.9,107.0 104.1,108.3 104.3,108.7 104.5,108.7 104.7,109.2 104.9,109.6 105.1,110.8 105.3,110.8 105.6,110.8 105.8,110.5 106.0,108.7 106.2,108.7 106.4,107.0 106.6,107.9 106.8,107.7 107.0,101.9 107.2,98.4 107.4,100.4 107.6,100.3 107.8,100.4 108.0,100.4 108.2,100.4 108.5,100.1 108.7,99.7 108.9,99.7 109.1,99.7 109.3,99.7 109.5,99.4 109.7,98.4 109.9,99.4 110.1,100.9 110.3,103.8 110.5,100.5 110.7,100.5 110.9,100.5 111.1,100.5 111.4,103.8 111.6,103.8 111.8,103.0 112.0,103.0 112.2,103.6 112.4,100.1 112.6,100.1 112.8,101.5 113.0,101.5 113.2,101.2 113.4,101.2 113.6,101.2 113.8,101.5 114.0,101.5 114.3,101.2 114.5,101.2 114.7,101.2 114.9,101.2 115.1,103.8 115.3,104.3 115.5,104.3 115.7,104.3 115.9,104.3 116.1,104.3 116.3,104.6 116.5,104.6 116.7,104.6 116.9,104.6 117.2,104.6 117.4,104.6 117.6,104.6 117.8,104.6 118.0,104.6 118.2,104.6 118.4,104.6 118.6,106.2 118.8,106.2 119.0,106.2 119.2,105.4 119.4,105.4 119.6,110.1 119.8,110.1 120.1,110.1 120.3,110.1 120.5,110.1 120.7,110.1 120.9,109.2 121.1,109.2 121.3,108.7 121.5,110.1 121.7,110.1 121.9,110.1 122.1,110.1 122.3,110.1 122.5,105.8 122.7,105.8 123.0,107.7 123.2,107.7 123.4,107.4 123.6,107.4 123.8,107.4 124.0,107.4 124.2,107.7 124.4,107.7 124.6,107.7 124.8,107.7 125.0,107.7 125.2,107.7 125.4,107.7 125.6,107.7 125.9,112.4 126.1,112.4 126.3,112.4 126.5,112.4 126.7,112.4 126.9,112.4 127.1,112.4 127.3,112.4 127.5,114.9 127.7,114.9 127.9,114.9 128.1,114.9 128.3,114.9 128.5,114.9 128.8,114.9 129.0,113.4 129.2,107.9 129.4,107.9 129.6,107.9 129.8,112.9 130.0,107.9 130.2,107.9 130.4,107.9 130.6,103.0 130.8,103.4 131.0,103.8 131.2,103.8 131.4,103.8 131.7,103.8 131.9,102.6 132.1,103.8 132.3,103.8 132.5,101.9 132.7,101.9 132.9,101.9 133.1,103.8 133.3,104.6 133.5,103.4 133.7,102.6 133.9,102.5 134.1,103.4 134.3,103.4 134.6,103.4 134.8,103.7 135.0,102.4 135.2,102.4 135.4,102.3 135.6,102.5 135.8,102.5 136.0,98.4 136.2,98.4 136.4,98.4 136.6,101.9 136.8,101.9 137.0,102.3 137.2,98.4 137.5,99.7 137.7,99.7 137.9,101.9 138.1,101.9 138.3,101.9 138.5,101.9 138.7,101.9 138.9,101.7 139.1,101.7 139.3,98.4 139.5,100.1 139.7,99.0 139.9,98.7 140.1,97.6 140.4,97.7 140.6,97.1 140.8,98.0 141.0,97.5 141.2,96.7 141.4,96.7 141.6,96.1 141.8,97.7 142.0,93.9 142.2,94.2 142.4,91.9 142.6,92.2 142.8,92.2 143.0,92.2 143.3,92.2 143.5,92.2 143.7,90.7 143.9,90.7 144.1,91.0 144.3,90.7 144.5,94.2 144.7,93.6 144.9,94.8 145.1,94.5 145.3,94.5 145.5,95.4 145.7,92.7 145.9,96.4 146.2,96.7 146.4,94.3 146.6,94.3 146.8,95.4 147.0,95.4 147.2,95.4 147.4,94.8 147.6,95.1 147.8,96.4 148.0,95.8 148.2,91.3 148.4,91.0 148.6,95.8 148.8,95.8 149.1,95.8 149.3,93.9 149.5,93.9 149.7,95.1 149.9,95.1 150.1,95.8 150.3,91.9 150.5,95.4 150.7,95.4 150.9,91.6 151.1,95.1 151.3,94.5 151.5,91.9 151.7,92.5 152.0,92.2 152.2,94.8 152.4,94.2 152.6,94.2 152.8,93.6 153.0,94.2 153.2,92.4 153.4,93.6 153.6,93.6 153.8,93.6 154.0,92.2 154.2,93.6 154.4,94.5 154.6,94.5 154.9,94.5 155.1,94.5 155.3,95.1 155.5,95.1 155.7,94.2 155.9,94.8 156.1,94.8 156.3,94.5 156.5,94.8 156.7,94.5 156.9,94.5 157.1,94.8 157.3,94.2 157.5,94.8 157.8,94.8 158.0,94.5 158.2,94.5 158.4,94.5 158.6,90.7 158.8,94.5 159.0,94.5 159.2,94.5 159.4,94.5 159.6,94.5 159.8,94.2 160.0,94.5 160.2,94.5 160.4,94.5 160.7,94.5 160.9,94.8 161.1,94.8 161.3,93.6 161.5,93.6 161.7,93.3 161.9,93.3 162.1,92.9 162.3,92.9 162.5,93.3 162.7,93.3 162.9,93.6 163.1,93.6 163.3,93.6 163.6,94.8 163.8,93.6 164.0,94.2 164.2,94.8 164.4,94.8 164.6,94.5 164.8,94.5 165.0,94.8 165.2,94.5 165.4,94.5 165.6,94.8 165.8,93.9 166.0,94.8 166.2,94.3 166.5,93.0 166.7,94.5 166.9,94.2 167.1,94.2 167.3,94.2 167.5,93.6 167.7,93.3 167.9,93.9 168.1,93.4 168.3,93.6 168.5,93.4 168.7,94.3 168.9,94.3 169.1,94.8 169.4,94.8 169.6,94.8 169.8,94.8 170.0,94.8 170.2,94.8 170.4,94.8 170.6,94.8 170.8,94.8 171.0,95.3 171.2,93.0 171.4,95.4 171.6,95.4 171.8,95.4 172.0,96.1 172.3,96.4 172.5,96.7 172.7,97.7 172.9,97.7 173.1,97.7 173.3,97.7 173.5,97.4 173.7,97.4 173.9,97.4 174.1,97.4 174.3,97.4 174.5,97.0 174.7,96.7 174.9,97.7 175.2,97.7 175.4,96.7 175.6,97.7 175.8,96.7 176.0,96.7 176.2,96.7 176.4,97.7 176.6,97.7 176.8,97.7 177.0,97.7 177.2,97.7 177.4,97.6 177.6,97.4 177.8,97.5 178.1,97.4 178.3,97.4 178.5,97.4 178.7,97.4 178.9,97.4 179.1,97.4 179.3,97.0 179.5,97.0 179.7,97.4 179.9,97.4 180.1,97.3 180.3,97.3 180.5,97.4 180.7,97.4 181.0,96.8 181.2,96.8 181.4,96.7 181.6,96.7 181.8,97.4 182.0,97.4 182.2,97.4 182.4,97.4 182.6,96.7 182.8,97.0 183.0,97.0 183.2,96.8 183.4,96.8 183.6,97.6 183.9,97.4 184.1,97.4 184.3,97.4 184.5,97.4 184.7,96.8 184.9,96.8 185.1,96.8 185.3,96.8 185.5,97.0 185.7,98.0 185.9,98.0 186.1,98.0 186.3,98.3 186.5,98.3 186.8,98.0 187.0,97.4 187.2,97.4 187.4,97.4 187.6,97.4 187.8,97.4 188.0,97.4 188.2,98.3 188.4,98.3 188.6,97.4 188.8,97.4 189.0,97.7 189.2,98.0 189.4,98.0 189.7,98.0 189.9,98.0 190.1,98.0 190.3,98.0 190.5,98.0 190.7,98.0 190.9,98.0 191.1,98.4 191.3,99.2 191.5,97.4 191.7,99.0 191.9,97.4 192.1,97.4 192.3,97.4 192.6,97.4 192.8,99.0 193.0,98.7 193.2,96.7 193.4,96.7 193.6,96.7 193.8,95.8 194.0,95.8 194.2,96.1 194.4,96.1 194.6,95.8 194.8,90.7 195.0,90.7 195.2,90.5 195.5,89.9 195.7,89.9 195.9,90.7 196.1,90.7 196.3,90.5 196.5,92.2 196.7,89.9 196.9,90.2 197.1,89.9 197.3,89.9 197.5,89.9 197.7,89.9 197.9,89.9 198.2,89.9 198.4,89.5 198.6,87.6 198.8,86.1 199.0,88.1 199.2,88.1 199.4,86.6 199.6,86.1 199.8,85.6 200.0,84.6 200.2,86.5 200.4,86.1 200.6,87.3 200.8,87.1 201.1,87.1 201.3,88.3 201.5,89.0 201.7,88.6 201.9,88.6 202.1,88.6 202.3,89.0 202.5,88.6 202.7,88.6 202.9,88.6 203.1,84.6 203.3,87.1 203.5,88.9 203.7,84.6 204.0,84.6 204.2,84.6 204.4,87.8 204.6,87.6 204.8,87.8 205.0,87.8 205.2,86.4 205.4,86.4 205.6,86.4 205.8,86.4 206.0,85.2 206.2,85.2 206.4,85.2 206.6,85.2 206.9,85.2 207.1,89.1 207.3,89.1 207.5,90.5 207.7,91.0 207.9,90.7 208.1,93.0 208.3,89.4 208.5,85.6 208.7,84.1 208.9,84.9 209.1,84.9 209.3,84.9 209.5,86.1 209.8,86.6 210.0,86.6 210.2,86.6 210.4,86.6 210.6,85.6 210.8,85.6 211.0,85.6 211.2,85.6 211.4,85.6 211.6,84.1 211.8,84.1 212.0,84.1 212.2,84.1 212.4,85.1 212.7,85.6 212.9,85.8 213.1,85.8 213.3,86.8 213.5,86.8 213.7,86.8 213.9,85.8 214.1,85.8 214.3,86.8 214.5,86.6 214.7,86.6 214.9,85.8 215.1,85.8 215.3,85.8 215.6,85.8 215.8,85.8 216.0,85.8 216.2,85.6 216.4,85.8 216.6,86.3 216.8,85.8 217.0,86.8 217.2,86.8 217.4,86.8 217.6,89.5 217.8,85.6 218.0,85.6 218.2,85.6 218.5,85.6 218.7,85.6 218.9,86.8 219.1,86.8 219.3,86.8 219.5,85.6 219.7,85.6 219.9,85.6 220.1,85.6 220.3,86.3 220.5,86.3 220.7,86.4 220.9,87.3 221.1,87.6 221.4,90.7 221.6,90.7 221.8,90.7 222.0,90.7 222.2,90.7 222.4,90.7 222.6,90.7 222.8,90.7 223.0,90.7 223.2,90.7 223.4,90.7 223.6,90.7 223.8,90.7 224.0,90.7 224.3,90.7 224.5,90.7 224.7,90.7 224.9,90.7 225.1,90.7 225.3,93.9 225.5,95.1 225.7,95.1 225.9,94.2 226.1,94.2 226.3,94.2 226.5,94.2 226.7,94.2 226.9,93.6 227.2,93.6 227.4,93.6 227.6,92.7 227.8,92.7 228.0,93.6 228.2,93.6 228.4,96.1 228.6,96.6 228.8,96.7 229.0,96.7 229.2,96.7 229.4,95.4 229.6,94.8 229.8,94.8 230.1,95.8 230.3,96.1 230.5,94.8 230.7,94.8 230.9,96.1 231.1,96.1 231.3,96.1 231.5,99.4 231.7,97.0 231.9,96.7 232.1,94.5 232.3,92.4 232.5,92.4 232.7,92.4 233.0,92.4 233.2,92.4 233.4,92.4 233.6,92.4 233.8,92.4 234.0,92.4 234.2,92.4 234.4,92.4 234.6,95.1 234.8,94.2 235.0,94.2 235.2,94.2 235.4,93.9 235.6,93.6 235.9,93.8 236.1,93.6 236.3,93.6 236.5,93.6 236.7,96.7 236.9,96.1 237.1,96.7 237.3,96.7 237.5,96.7 237.7,96.7 237.9,96.7 238.1,96.7 238.3,96.7 238.5,96.7 238.8,97.4 239.0,95.1 239.2,95.1 239.4,95.1 239.6,95.1 239.8,95.1 240.0,95.1 240.2,96.1 240.4,96.7 240.6,96.7 240.8,96.4 241.0,96.4 241.2,96.4 241.4,96.7 241.7,96.7 241.9,96.4 242.1,96.4 242.3,96.4 242.5,96.4 242.7,96.1 242.9,95.1 243.1,95.4 243.3,95.1 243.5,95.1 243.7,95.4 243.9,96.7 244.1,96.7 244.3,96.7 244.6,98.8 244.8,98.4 245.0,98.7 245.2,98.4 245.4,98.4 245.6,101.9 245.8,96.7 246.0,97.2 246.2,97.2 246.4,95.4 246.6,95.4 246.8,97.2 247.0,95.9 247.2,96.7 247.5,95.4 247.7,95.4 247.9,96.4 248.1,97.3 248.3,97.7 248.5,97.7 248.7,98.0 248.9,98.0 249.1,100.1 249.3,99.5 249.5,101.3 249.7,101.6 249.9,101.1 250.1,100.8 250.4,98.7 250.6,96.8 250.8,96.8 251.0,96.8 251.2,96.8 251.4,97.7 251.6,97.7 251.8,97.8 252.0,97.8 252.2,97.8 252.4,98.1 252.6,98.0 252.8,97.8 253.0,97.8 253.3,98.3 253.5,98.1 253.7,97.7 253.9,97.4 254.1,96.8 254.3,97.0 254.5,97.7 254.7,96.8 254.9,96.1 255.1,95.4 255.3,96.1 255.5,95.0 255.7,95.4 255.9,95.6 256.2,93.0 256.4,92.4 256.6,92.4 256.8,92.4 257.0,92.4 257.2,92.4 257.4,89.9 257.6,91.6 257.8,91.9 258.0,92.2 258.2,91.7 258.4,92.4 258.6,93.7 258.8,92.4 259.1,91.9 259.3,92.2 259.5,91.0 259.7,91.3 259.9,90.2 260.1,89.9 260.3,90.4 260.5,89.9 260.7,89.9 260.9,88.9 261.1,89.9 261.3,88.3 261.5,89.3 261.7,88.5 262.0,88.6 262.2,89.4 262.4,88.6 262.6,88.6 262.8,88.9 263.0,88.9 263.2,89.4 263.4,89.7 263.6,88.6 263.8,88.6 264.0,88.4 264.2,89.2 264.4,88.9 264.6,88.6 264.9,88.6 265.1,88.1 265.3,87.2 265.5,88.6 265.7,88.9 265.9,88.6 266.1,88.0 266.3,86.9 266.5,87.1 266.7,87.3 266.9,86.9 267.1,86.7 267.3,86.6 267.5,85.8 267.8,85.3 268.0,85.4 268.2,85.6 268.4,86.2 268.6,86.3 268.8,87.6 269.0,89.1 269.2,86.8 269.4,87.9 269.6,87.1 269.8,87.4 270.0,88.0 270.2,90.3 270.4,91.3 270.7,93.3 270.9,92.5 271.1,92.9 271.3,92.6 271.5,89.9 271.7,90.8 271.9,89.4 272.1,90.7 272.3,92.1 272.5,91.5 272.7,89.0 272.9,87.1 273.1,88.4 273.3,90.0 273.6,89.6 273.8,91.2 274.0,89.7 274.2,88.8 274.4,87.1 274.6,87.7 274.8,87.9 275.0,87.4 275.2,87.5 275.4,87.0 275.6,86.0 275.8,86.1 276.0,85.9 276.2,86.6 276.5,86.0 276.7,85.6 276.9,85.3 277.1,84.9 277.3,86.9 277.5,87.9 277.7,87.5 277.9,87.1 278.1,84.8 278.3,85.1 278.5,84.6 278.7,84.8 278.9,84.7 279.1,83.5 279.4,83.5 279.6,83.5 279.8,83.7 280.0,83.5 280.2,83.5 280.4,83.4 280.6,83.3 280.8,83.7 281.0,83.9 281.2,84.6 281.4,84.5 281.6,84.4 281.8,83.2 282.0,82.9 282.3,82.9 282.5,76.5 282.7,77.0 282.9,77.0 283.1,77.4 283.3,76.8 283.5,77.2 283.7,77.0 283.9,76.9 284.1,78.3 284.3,77.1 284.5,78.4 284.7,77.5 284.9,77.1 285.2,77.8 285.4,78.0 285.6,78.3 285.8,79.2 286.0,79.7 286.2,77.8 286.4,78.2 286.6,79.5 286.8,78.7 287.0,78.0 287.2,77.8 287.4,77.7 287.6,78.1 287.8,78.4 288.1,79.2 288.3,79.4 288.5,77.8 288.7,77.8 288.9,77.7 289.1,78.0 289.3,78.0 289.5,77.7 289.7,78.0 289.9,79.4 290.1,80.0 290.3,80.6 290.5,78.3 290.7,79.7 291.0,80.2 291.2,81.2 291.4,81.5 291.6,79.9 291.8,80.0 292.0,77.7 292.2,77.7 292.4,77.3 292.6,77.5 292.8,77.8 293.0,77.4 293.2,77.5 293.4,77.0 293.6,76.9 293.9,76.6 294.1,76.6 294.3,76.7 294.5,76.8 294.7,77.0 294.9,76.9 295.1,77.2 295.3,77.2 295.5,76.8 295.7,76.9 295.9,77.0 296.1,77.3 296.3,77.6 296.5,77.8 296.8,77.6 297.0,78.5 297.2,78.8 297.4,78.5 297.6,77.9 297.8,78.5 298.0,78.5 298.2,79.0 298.4,78.5 298.6,81.1 298.8,80.4 299.0,79.7 299.2,79.9 299.4,79.7 299.7,80.0 299.9,80.5 300.1,80.6 300.3,81.0 300.5,80.6 300.7,81.4 300.9,82.1 301.1,82.2 301.3,85.3 301.5,84.2 301.7,84.7 301.9,85.4 302.1,85.5 302.3,84.1 302.6,83.5 302.8,84.7 303.0,84.8 303.2,85.1 303.4,85.2 303.6,85.5 303.8,85.3 304.0,84.9 304.2,86.2 304.4,88.2 304.6,88.5 304.8,90.1 305.0,89.5 305.2,88.8 305.5,88.4 305.7,86.4 305.9,84.2 306.1,81.8 306.3,79.2 306.5,78.8 306.7,78.9 306.9,77.0 307.1,82.2 307.3,83.0 307.5,83.1 307.7,83.7 307.9,84.7 308.1,84.7 308.4,85.9 308.6,87.4 308.8,87.7 309.0,92.7 309.2,89.2 309.4,90.0 309.6,89.0 309.8,88.9 310.0,89.0 310.2,89.1 310.4,89.4 310.6,89.7 310.8,89.0 311.0,88.9 311.3,89.0 311.5,88.8 311.7,88.2 311.9,88.0 312.1,89.1 312.3,88.9 312.5,89.4 312.7,89.9 312.9,89.2 313.1,88.8 313.3,89.5 313.5,89.2 313.7,89.8 313.9,90.3 314.2,90.3 314.4,89.5 314.6,90.0 314.8,89.8 315.0,89.8 315.2,89.3 315.4,88.9 315.6,88.5 315.8,88.9 316.0,90.0 316.2,89.7 316.4,89.4 316.6,89.6 316.8,89.6 317.1,89.1 317.3,88.4 317.5,88.6 317.7,88.4 317.9,89.9 318.1,89.7 318.3,89.2 318.5,89.9 318.7,89.8 318.9,89.8 319.1,91.1 319.3,91.4 319.5,91.7 319.8,90.6 320.0,91.1 320.2,90.9 320.4,92.3 320.6,92.5 320.8,91.6 321.0,91.0 321.2,90.8 321.4,90.9 321.6,90.8 321.8,90.4 322.0,90.2 322.2,90.9 322.4,91.1 322.7,91.7 322.9,91.4 323.1,92.0 323.3,91.3 323.5,91.2 323.7,90.9 323.9,90.9 324.1,90.8 324.3,91.2 324.5,90.9 324.7,90.7 324.9,90.4 325.1,90.1 325.3,89.8 325.6,91.6 325.8,91.5 326.0,91.6 326.2,91.3 326.4,91.6 326.6,90.0 326.8,90.9 327.0,90.9 327.2,91.3 327.4,91.5 327.6,91.1 327.8,90.4 328.0,90.2 328.2,90.1 328.5,90.7 328.7,90.4 328.9,90.9 329.1,90.1 329.3,91.0 329.5,90.6 329.7,91.1 329.9,91.4 330.1,91.5 330.3,90.7 330.5,91.3 330.7,91.6 330.9,91.7 331.1,91.9 331.4,91.1 331.6,92.2 331.8,92.0 332.0,92.4 332.2,92.3 332.4,92.2 332.6,91.5 332.8,91.8 333.0,92.0 333.2,92.1 333.4,92.0 333.6,92.0 333.8,92.0 334.0,91.2 334.3,90.9 334.5,90.1 334.7,90.0 334.9,90.3 335.1,90.2 335.3,89.4 335.5,89.1 335.7,88.6 335.9,88.4 336.1,92.4 336.3,91.1 336.5,91.2 336.7,90.9 336.9,90.8 337.2,90.8 337.4,91.4 337.6,90.4 337.8,89.7 338.0,90.1 338.2,90.6 338.4,89.8 338.6,90.1 338.8,90.1 339.0,89.5 339.2,90.0 339.4,90.3 339.6,89.7 339.8,89.9 340.1,90.4 340.3,89.8 340.5,89.5 340.7,89.5 340.9,89.4 341.1,89.7 341.3,89.5 341.5,90.2 341.7,89.4 341.9,89.4 342.1,89.3 342.3,90.0 342.5,90.7 342.7,89.7 343.0,90.1 343.2,90.0 343.4,90.5 343.6,90.3 343.8,90.9 344.0,91.0 344.2,90.6 344.4,90.6 344.6,90.7 344.8,90.7 345.0,90.7 345.2,90.0 345.4,90.5 345.6,90.2 345.9,90.1 346.1,90.1 346.3,90.0 346.5,90.4 346.7,90.1 346.9,90.1 347.1,90.5 347.3,90.6 347.5,90.7 347.7,91.4 347.9,91.3 348.1,91.2 348.3,91.0 348.5,91.2 348.8,91.6 349.0,90.9 349.2,91.9 349.4,90.1 349.6,90.7 349.8,91.2 350.0,91.9 350.2,91.5 350.4,91.7 350.6,91.9 350.8,91.9 351.0,91.5 351.2,91.0 351.4,90.7 351.7,91.2 351.9,91.4 352.1,91.5 352.3,91.9 352.5,92.2 352.7,91.9 352.9,91.2 353.1,90.4 353.3,90.9 353.5,91.2 353.7,91.5 353.9,91.0 354.1,91.1 354.3,91.2 354.6,91.4 354.8,91.4 355.0,91.2 355.2,91.6 355.4,91.8 355.6,92.1 355.8,91.9 356.0,92.4 356.2,93.1 356.4,94.0 356.6,93.9 356.8,94.6 357.0,94.3 357.2,94.5 357.5,94.2 357.7,94.1 357.9,94.2 358.1,94.4 358.3,96.1 358.5,95.9 358.7,95.8 358.9,95.8 359.1,96.0 359.3,96.2 359.5,96.7 359.7,93.7 359.9,94.1 360.1,94.8 360.4,95.1 360.6,95.4 360.8,95.8 361.0,94.3 361.2,93.7 361.4,93.2 361.6,93.3 361.8,92.5 362.0,91.0 362.2,91.5 362.4,91.8 362.6,91.0 362.8,91.5 363.0,92.3 363.3,93.0 363.5,94.0 363.7,93.5 363.9,93.6 364.1,94.5 364.3,94.4 364.5,94.0 364.7,93.9 364.9,94.6 365.1,94.3 365.3,94.1 365.5,93.9 365.7,93.9 365.9,93.9 366.2,93.8 366.4,92.2 366.6,91.9 366.8,92.3 367.0,93.1 367.2,93.0 367.4,92.9 367.6,92.2 367.8,91.7 368.0,93.2 368.2,93.3 368.4,92.4 368.6,91.9 368.8,91.6 369.1,91.6 369.3,91.1 369.5,90.8 369.7,90.5 369.9,90.7 370.1,90.7 370.3,91.2 370.5,91.6 370.7,91.2 370.9,91.1 371.1,90.2 371.3,90.0 371.5,89.8 371.7,89.5 372.0,89.4 372.2,88.9 372.4,88.9 372.6,89.9 372.8,90.9 373.0,91.0 373.2,91.1 373.4,90.7 373.6,91.4 373.8,91.2 374.0,91.5 374.2,91.6 374.4,92.2 374.6,92.2 374.9,92.0 375.1,91.5 375.3,91.2 375.5,91.2 375.7,91.1 375.9,91.2 376.1,90.6 376.3,91.1 376.5,91.0 376.7,92.2 376.9,92.0 377.1,93.3 377.3,92.6 377.5,91.6 377.8,91.7 378.0,91.6 378.2,92.1 378.4,92.7 378.6,92.7 378.8,92.5 379.0,92.7 379.2,92.8 379.4,93.0 379.6,93.0 379.8,92.2 380.0,92.3 380.2,92.6 380.4,93.6 380.7,93.3 380.9,93.1 381.1,93.6 381.3,94.2 381.5,94.0 381.7,94.3 381.9,94.0 382.1,94.2 382.3,94.1 382.5,94.1 382.7,94.3 382.9,94.5 383.1,94.6 383.3,94.9 383.6,94.8 383.8,95.7 384.0,95.1 384.2,95.4 384.4,95.9 384.6,95.3 384.8,95.7 385.0,96.0 385.2,96.5 385.4,96.7 385.6,95.9 385.8,96.1 386.0,96.7 386.2,96.1 386.5,96.7 386.7,96.7 386.9,96.7 387.1,96.1 387.3,96.2 387.5,96.6 387.7,96.7 387.9,96.4 388.1,96.7 388.3,96.4 388.5,97.0 388.7,97.4 388.9,96.7 389.1,96.3 389.4,96.5 389.6,96.1 389.8,96.3 390.0,96.6 390.2,96.1 390.4,96.1 390.6,96.7 390.8,94.6 391.0,95.3 391.2,95.9 391.4,96.0 391.6,96.2 391.8,96.7 392.0,97.0 392.3,96.8 392.5,97.7 392.7,97.4 392.9,97.6 393.1,97.4 393.3,97.7 393.5,98.0 393.7,99.0 393.9,99.1 394.1,98.5 394.3,99.0 394.5,99.1 394.7,98.8 394.9,101.2 395.2,101.8 395.4,102.4 395.6,103.2 395.8,101.4 396.0,101.1 396.2,102.5 396.4,103.6 396.6,103.6 396.8,104.1 397.0,104.5 397.2,104.6 397.4,103.2 397.6,102.9 397.8,103.0 398.1,103.2 398.3,102.8 398.5,103.6 398.7,104.4 398.9,104.3 399.1,103.1 399.3,104.3 399.5,104.3 399.7,105.5 399.9,106.2 400.1,104.6 400.3,106.0 400.5,106.4 400.7,107.2 401.0,107.9 401.2,107.9 401.4,108.3 401.6,107.9 401.8,107.7 402.0,104.2 402.2,101.6 402.4,106.7 402.6,107.6 402.8,110.5 403.0,110.3 403.2,109.3 403.4,109.6 403.6,111.7 403.9,108.1 404.1,105.7 404.3,105.4 404.5,106.3 404.7,106.2 404.9,106.1 405.1,108.6 405.3,106.7 405.5,106.8 405.7,107.6 405.9,107.0 406.1,107.0 406.3,107.2 406.5,109.1 406.8,110.0 407.0,110.0 407.2,112.0 407.4,109.3 407.6,111.0 407.8,111.5 408.0,112.5 408.2,113.6 408.4,111.4 408.6,112.4 408.8,112.8 409.0,112.8 409.2,111.5 409.4,112.0 409.7,111.6 409.9,110.6 410.1,110.8 410.3,111.1 410.5,111.0 410.7,112.6 410.9,112.4 411.1,112.1 411.3,112.1 411.5,111.8 411.7,111.9 411.9,111.5 412.1,111.9 412.3,113.9 412.6,114.9 412.8,115.7 413.0,115.7 413.2,113.7 413.4,114.7 413.6,115.6 413.8,106.4 414.0,112.3 414.2,112.2 414.4,112.0 414.6,112.4 414.8,112.4 415.0,110.2 415.2,111.3 415.5,110.8 415.7,111.2 415.9,112.4 416.1,111.8 416.3,111.3 416.5,111.0 416.7,111.1 416.9,110.1 417.1,110.1 417.3,110.0 417.5,108.1 417.7,109.7 417.9,109.1 418.1,110.4 418.4,110.4 418.6,110.7 418.8,110.3 419.0,111.6 419.2,111.6 419.4,112.0 419.6,112.9 419.8,112.5 420.0,111.9 420.2,113.2 420.4,112.3 420.6,112.9 420.8,111.6 421.0,111.9 421.3,111.7 421.5,110.1 421.7,111.1 421.9,111.9 422.1,112.8 422.3,112.6 422.5,111.5 422.7,112.4 422.9,112.7 423.1,112.5 423.3,109.9 423.5,110.9 423.7,112.2 423.9,112.1 424.2,112.4 424.4,112.2 424.6,112.2 424.8,111.7 425.0,111.6 425.2,111.8 425.4,112.8 425.6,113.8 425.8,112.5 426.0,111.9 426.2,111.9 426.4,113.3 426.6,112.9 426.8,112.9 427.1,111.0 427.3,109.7 427.5,111.5 427.7,111.9 427.9,111.4 428.1,112.4 428.3,112.4 428.5,112.4 428.7,112.3 428.9,112.9 429.1,113.7 429.3,114.8 429.5,115.0 429.7,114.2 430.0,113.9 430.2,115.3 430.4,115.2 430.6,113.3 430.8,114.1 431.0,113.4 431.2,114.4 431.4,114.3 431.6,114.0 431.8,112.8 432.0,113.0 432.2,112.4 432.4,111.9 432.6,111.0 432.9,110.6 433.1,111.2 433.3,110.4 433.5,110.5 433.7,111.9 433.9,113.7 434.1,115.5 434.3,115.5 434.5,114.9 434.7,113.5 434.9,114.3 435.1,114.5 435.3,115.5 435.5,115.3 435.8,114.8 436.0,114.7 436.2,114.3 436.4,114.7 436.6,113.1 436.8,114.4 437.0,115.0 437.2,115.1 437.4,115.5 437.6,114.9 437.8,114.4 438.0,114.2 438.2,114.3 438.5,114.6 438.7,115.0 438.9,115.2 439.1,114.7 439.3,114.6 439.5,112.9 439.7,114.0 439.9,114.0 440.1,114.8 440.3,115.1 440.5,115.1 440.7,115.0 440.9,114.6 441.1,113.0 441.4,112.6 441.6,112.0 441.8,110.3 442.0,110.1 442.2,112.4 442.4,111.9 442.6,112.4 442.8,113.7 443.0,112.0 443.2,112.3 443.4,112.3 443.6,112.2 443.8,112.4 444.0,111.9 444.3,110.9 444.5,111.9 444.7,111.8 444.9,112.3 445.1,111.6 445.3,111.8 445.5,112.8 445.7,112.8 445.9,113.9 446.1,113.6 446.3,114.6 446.5,114.1 446.7,113.9 446.9,112.6 447.2,113.9 447.4,114.5 447.6,114.2 447.8,112.4 448.0,113.7 448.2,114.3 448.4,114.3 448.6,114.3 448.8,112.9 449.0,113.5 449.2,113.2 449.4,113.9 449.6,113.4 449.8,114.8 450.1,114.8 450.3,116.4 450.5,115.8 450.7,117.7 450.9,121.0 451.1,122.6 451.3,122.9 451.5,123.6 451.7,123.2 451.9,124.4 452.1,124.6 452.3,125.7 452.5,124.9 452.7,125.4 453.0,125.7 453.2,124.9 453.4,125.7 453.6,125.6 453.8,125.7 454.0,124.6 454.2,124.8 454.4,123.2 454.6,122.8 454.8,123.2 455.0,124.4 455.2,124.4 455.4,123.4 455.6,123.1 455.9,123.6 456.1,122.4 456.3,122.6 456.5,122.4 456.7,122.9 456.9,122.7 457.1,121.9 457.3,122.2 457.5,120.0 457.7,120.1 457.9,119.5 458.1,120.1 458.3,120.5 458.5,118.4 458.8,119.0 459.0,119.9 459.2,119.4 459.4,119.9 459.6,120.2 459.8,119.9 460.0,120.4 460.2,120.2 460.4,119.3 460.6,119.4 460.8,119.5 461.0,118.3 461.2,118.3 461.4,117.0 461.7,116.8 461.9,117.2 462.1,117.1 462.3,117.5 462.5,117.2 462.7,116.5 462.9,118.4 463.1,118.5 463.3,117.6 463.5,119.1 463.7,120.0 463.9,120.6 464.1,123.6 464.3,122.9 464.6,123.7 464.8,125.6 465.0,129.6 465.2,130.0 465.4,134.6 465.6,144.9 465.8,141.7 466.0,149.2 466.2,146.5 466.4,148.7 466.6,150.4 466.8,154.5 467.0,155.7 467.2,156.9 467.5,144.0 467.7,137.6 467.9,139.5 468.1,142.7 468.3,142.9 468.5,149.4 468.7,145.8 468.9,143.6 469.1,142.1 469.3,141.3 469.5,138.0 469.7,139.1 469.9,144.2 470.1,142.7 470.4,146.7 470.6,153.9 470.8,150.7 471.0,157.2 471.2,158.8 471.4,154.8 471.6,153.7 471.8,154.8 472.0,149.4 472.2,150.7 472.4,149.9 472.6,151.0 472.8,152.6 473.0,151.7 473.3,152.0 473.5,152.3 473.7,149.9 473.9,147.0 474.1,148.7 474.3,152.0 474.5,148.9 474.7,151.0 474.9,147.4 475.1,143.6 475.3,147.0 475.5,146.7 475.7,144.0 475.9,143.8 476.2,143.8 476.4,146.5 476.6,145.8 476.8,145.1 477.0,145.8 477.2,145.9 477.4,143.2 477.6,142.1 477.8,139.1 478.0,137.0 478.2,138.5 478.4,140.1 478.6,147.7 478.8,149.7 479.1,148.4 479.3,146.0 479.5,145.8 479.7,145.8 479.9,145.8 480.1,149.9 480.3,152.6 480.5,149.9 480.7,151.0 480.9,158.4 481.1,151.5 481.3,153.7 481.5,158.1 481.7,153.1 482.0,156.3 482.2,157.2 482.4,154.5 482.6,156.0 482.8,153.7 483.0,153.7 483.2,154.1 483.4,153.4 483.6,154.2 483.8,152.8 484.0,154.5 484.2,152.0 484.4,151.0 484.6,152.8 484.9,153.7 485.1,156.6 485.3,154.5 485.5,152.8 485.7,153.7 485.9,155.1 486.1,154.5 486.3,153.7 486.5,152.0 486.7,154.5 486.9,155.1 487.1,154.5 487.3,153.7 487.5,152.6 487.8,153.1 488.0,153.7 488.2,153.9 488.4,154.1 488.6,152.8 488.8,153.0 489.0,150.7 489.2,151.0 489.4,151.0 489.6,152.3 489.8,155.1 490.0,151.2 490.2,152.3 490.4,152.6 490.7,151.5 490.9,152.0 491.1,151.2 491.3,149.2 491.5,148.7 491.7,147.9 491.9,150.2 492.1,148.4 492.3,146.0 492.5,146.7 492.7,146.5 492.9,155.4 493.1,152.0 493.3,154.8 493.6,155.4 493.8,154.8 494.0,155.7 494.2,156.3 494.4,152.6 494.6,152.8 494.8,153.1 495.0,153.4 495.2,156.0 495.4,156.0 495.6,154.8 495.8,156.0 496.0,156.0 496.2,155.4 496.5,157.2 496.7,154.4 496.9,155.6 497.1,156.3 497.3,156.3 497.5,156.9 497.7,157.1 497.9,156.3 498.1,154.2 498.3,152.8 498.5,153.4 498.7,153.7 498.9,152.4 499.1,153.4 499.4,153.7 499.6,151.7 499.8,152.8 500.0,153.1 500.2,156.3 500.4,152.6 500.6,152.8 500.8,152.6 501.0,153.1 501.2,153.1 501.4,153.9 501.6,153.9 501.8,153.4 502.0,153.1 502.3,152.3 502.5,156.0 502.7,153.7 502.9,154.8 503.1,155.4 503.3,154.2 503.5,155.4 503.7,154.2 503.9,154.2 504.1,151.0 504.3,150.2 504.5,154.2 504.7,153.4 504.9,154.8 505.2,154.2 505.4,155.4 505.6,156.3 505.8,156.3 506.0,156.6 506.2,157.2 506.4,157.3 506.6,159.7 506.8,156.0 507.0,157.5 507.2,156.0 507.4,155.5 507.6,157.2 507.8,157.5 508.1,157.5 508.3,156.6 508.5,156.6 508.7,155.7 508.9,153.9 509.1,154.2 509.3,154.2 509.5,154.5 509.7,152.8 509.9,153.4 510.1,145.6 510.3,138.3 510.5,140.1 510.7,136.5 511.0,138.5 511.2,138.5 511.4,141.1 511.6,144.7 511.8,145.8 512.0,146.5 512.2,144.5 512.4,143.8 512.6,139.3 512.8,137.0 513.0,138.3 513.2,136.1 513.4,134.7 513.6,135.4 513.9,134.0 514.1,132.2 514.3,131.3 514.5,132.4 514.7,132.2 514.9,127.7 515.1,131.1 515.3,130.5 515.5,131.0 515.7,135.1 515.9,135.1 516.1,135.2 516.3,136.5 516.5,138.1 516.8,137.6 517.0,138.5 517.2,134.7 517.4,135.6 517.6,136.1 517.8,133.4 518.0,131.3 518.2,134.9 518.4,135.1 518.6,137.2 518.8,135.9 519.0,136.3 519.2,138.0 519.4,138.0 519.7,139.3 519.9,137.6 520.1,139.3 520.3,138.3 520.5,137.6 520.7,136.5 520.9,135.8 521.1,137.6 521.3,138.0 521.5,138.1 521.7,137.6 521.9,138.0 522.1,136.3 522.3,137.6 522.6,137.4 522.8,137.6 523.0,138.5 523.2,138.3 523.4,138.1 523.6,138.9 523.8,138.7 524.0,138.9 524.2,139.1 524.4,139.7 524.6,140.5 524.8,140.5 525.0,140.3 525.2,143.4 525.5,141.9 525.7,142.3 525.9,139.5 526.1,142.3 526.3,142.5 526.5,144.2 526.7,144.5 526.9,143.6 527.1,142.9 527.3,142.3 527.5,143.2 527.7,142.3 527.9,142.3 528.1,141.1 528.4,140.5 528.6,140.7 528.8,142.3 529.0,141.1 529.2,138.9 529.4,140.1 529.6,140.1 529.8,141.7 530.0,142.1 530.2,141.1 530.4,140.1 530.6,138.0 530.8,138.3 531.0,139.3 531.3,138.7 531.5,140.9 531.7,141.9 531.9,139.5 532.1,138.3 532.3,137.4 532.5,138.3 532.7,138.5 532.9,141.3 533.1,142.3 533.3,137.2 533.5,137.2 533.7,137.0 533.9,137.0 534.2,137.4 534.4,136.3 534.6,136.5 534.8,134.9 535.0,135.2 535.2,135.4 535.4,134.9 535.6,136.3 535.8,136.3 536.0,136.7 536.2,130.3 536.4,128.7 536.6,125.2 536.8,127.1 537.1,128.4 537.3,129.7 537.5,129.4 537.7,132.2 537.9,132.7 538.1,134.2 538.3,135.2 538.5,137.6 538.7,135.9 538.9,134.4 539.1,134.2 539.3,136.8 539.5,134.6 539.7,133.0 540.0,132.7 540.2,136.7 540.4,136.8 540.6,137.2 540.8,136.8 541.0,138.1 541.2,138.1 541.4,137.6 541.6,136.7 541.8,137.4 542.0,136.3 542.2,137.8 542.4,137.0 542.6,137.4 542.9,138.9 543.1,139.1 543.3,138.3 543.5,138.5 543.7,139.3 543.9,139.7 544.1,139.3 544.3,139.9 544.5,139.1 544.7,140.3 544.9,138.9 545.1,139.3 545.3,139.7 545.5,139.3 545.8,139.7 546.0,139.7 546.2,140.1 546.4,140.3 546.6,140.3 546.8,140.1 547.0,139.9 547.2,139.7 547.4,139.7 547.6,139.9 547.8,140.7 548.0,140.2 548.2,139.9 548.4,139.5 548.7,137.9 548.9,135.6 549.1,133.5 549.3,136.8 549.5,134.7 549.7,134.2 549.9,135.9 550.1,135.9 550.3,135.1 550.5,135.8 550.7,139.1 550.9,138.1 551.1,139.1 551.3,138.9 551.6,140.3 551.8,140.5 552.0,140.5 552.2,140.3 552.4,140.1 552.6,140.5 552.8,140.3 553.0,141.9 553.2,141.7 553.4,141.1 553.6,141.7 553.8,141.3 554.0,141.9 554.2,141.9 554.5,141.7 554.7,141.5 554.9,141.1 555.1,141.1 555.3,141.1 555.5,141.1 555.7,141.5 555.9,140.9 556.1,141.9 556.3,140.9 556.5,141.1 556.7,141.7 556.9,141.9 557.2,141.9 557.4,141.9 557.6,141.9 557.8,142.1 558.0,142.9 558.2,143.2 558.4,142.1 558.6,142.3 558.8,142.1 559.0,141.9 559.2,143.2 559.4,141.5 559.6,141.9 559.8,143.8 560.1,142.5 560.3,141.6 560.5,142.3 560.7,143.8 560.9,143.2 561.1,144.7 561.3,144.7 561.5,144.8 561.7,144.5 561.9,142.3 562.1,142.7 562.3,144.5 562.5,145.1 562.7,144.5 563.0,145.1 563.2,145.1 563.4,144.8 563.6,145.6 563.8,143.6 564.0,142.5 564.2,143.4 564.4,142.3 564.6,142.3 564.8,143.2 565.0,143.6 565.2,144.5 565.4,144.5 565.6,144.2 565.9,143.2 566.1,141.3 566.3,142.5 566.5,142.3 566.7,141.9 566.9,140.9 567.1,141.5 567.3,142.1 567.5,142.5 567.7,143.2 567.9,142.5 568.1,141.7 568.3,142.9 568.5,142.3 568.8,142.5 569.0,142.1 569.2,141.7 569.4,142.9 569.6,141.5 569.8,142.1 570.0,142.3 570.2,143.4 570.4,143.6 570.6,143.6 570.8,142.7 571.0,139.3 571.2,138.3 571.4,138.5 571.7,140.9 571.9,137.6 572.1,136.9 572.3,140.7 572.5,140.7 572.7,138.7 572.9,141.3 573.1,142.1 573.3,142.7 573.5,141.5 573.7,143.2 573.9,144.5 574.1,144.7 574.3,146.3 574.6,147.0 574.8,145.8 575.0,148.4 575.2,148.7 575.4,149.2 575.6,148.2 575.8,151.5 576.0,152.6 576.2,151.2 576.4,154.5 576.6,156.3 576.8,155.7 577.0,155.4 577.2,156.0 577.5,156.0 577.7,153.5 577.9,155.7 578.1,156.0 578.3,159.1 578.5,158.4 578.7,159.6 578.9,159.1 579.1,159.4 579.3,160.1 579.5,159.4 579.7,157.8 579.9,161.2 580.1,161.8 580.4,160.4 580.6,159.4 580.8,156.3 581.0,152.8 581.2,154.8 581.4,154.5 581.6,154.5 581.8,159.1 582.0,159.1 582.2,159.4 582.4,159.4 582.6,158.4 582.8,159.7 583.0,162.5 583.3,162.1 583.5,164.3 583.7,163.2 583.9,164.3 584.1,164.3 584.3,164.6 584.5,161.4 584.7,165.0 584.9,162.5 585.1,166.1 585.3,166.1 585.5,167.7 585.7,165.8 585.9,165.4 586.2,166.1 586.4,165.0 586.6,163.9 586.8,162.5 587.0,164.6 587.2,163.2 587.4,165.0 587.6,164.6 587.8,162.5 588.0,162.5 588.2,164.3 588.4,164.2 588.6,163.5 588.8,161.4 589.1,164.6 589.3,162.8 589.5,165.0 589.7,162.5 589.9,164.3 590.1,162.5 590.3,161.8 590.5,160.1 590.7,159.4 590.9,162.8 591.1,162.5 591.3,163.5 591.5,163.5 591.7,161.3 592.0,161.1 592.2,160.7 592.4,162.1 592.6,162.5 592.8,164.6 593.0,164.5 593.2,165.4 593.4,165.2 593.6,165.4 593.8,165.8 594.0,168.1 594.2,166.1 594.4,166.1 594.6,167.6 594.9,166.9 595.1,168.4 595.3,170.2 595.5,172.4 595.7,173.7 595.9,162.5 596.1,163.5 596.3,159.4 596.5,165.4 596.7,163.9 596.9,174.8 597.1,174.3 597.3,173.8 597.5,172.4 597.8,171.5 598.0,178.3 598.2,174.0 598.4,171.4 598.6,173.4 598.8,171.1 599.0,171.0 599.2,172.4 599.4,166.5 599.6,172.2 599.8,169.6 600.0,171.1 600.2,168.0 600.4,171.1 600.7,172.4 600.9,170.7 601.1,174.1 601.3,174.3 601.5,170.2 601.7,170.2 601.9,175.8 602.1,175.3 602.3,173.8 602.5,164.6 602.7,171.9 602.9,177.6 603.1,175.2 603.3,176.8 603.6,176.7 603.8,176.8 604.0,177.0 604.2,176.8 604.4,178.8 604.6,179.4 604.8,179.7 605.0,177.8 605.2,179.7 605.4,180.0 605.6,186.8 605.8,189.3 606.0,197.5 606.2,195.0 606.5,195.4 606.7,195.0 606.9,195.0 607.1,195.2 607.3,193.0 607.5,193.5 607.7,194.2 607.9,183.8 608.1,172.9 608.3,176.8 608.5,177.3 608.7,172.5 608.9,173.4 609.1,174.3 609.4,177.3 609.6,179.4 609.8,177.8 610.0,179.0 610.2,178.3 610.4,180.0 610.6,180.0 610.8,179.8 611.0,179.4 611.2,180.0 611.4,180.0 611.6,181.1 611.8,181.8 612.0,177.8 612.3,180.5 612.5,178.1 612.7,180.0 612.9,179.1 613.1,178.6 613.3,179.7 613.5,178.3 613.7,178.9 613.9,177.3 614.1,174.8 614.3,176.8 614.5,175.8 614.7,171.1 614.9,171.1 615.2,171.8 615.4,171.1 615.6,171.1 615.8,171.1 616.0,172.0 616.2,172.0 616.4,169.0 616.6,167.3 616.8,167.7 617.0,169.8 617.2,169.1 617.4,171.7 617.6,171.9 617.8,171.1 618.1,171.0 618.3,170.1 618.5,170.1 618.7,171.1 618.9,169.8 619.1,172.0 619.3,171.1 619.5,168.1 619.7,171.8 619.9,170.7 620.1,172.0 620.3,174.0 620.5,175.8 620.7,174.3 621.0,175.8 621.2,174.7 621.4,175.8 621.6,175.8 621.8,177.2 622.0,180.2 622.2,180.5 622.4,181.7 622.6,180.0 622.8,180.0 623.0,182.8 623.2,184.0 623.4,187.9 623.6,188.6 623.9,188.6 624.1,187.9 624.3,195.4 624.5,194.6 624.7,194.6 624.9,194.6 625.1,197.1 625.3,196.2 625.5,197.1 625.7,196.6 625.9,198.4 626.1,199.3 626.3,201.7 626.5,202.1 626.8,202.6 627.0,202.6 627.2,204.7 627.4,203.6 627.6,207.7 627.8,207.9 628.0,209.1 628.2,212.2 628.4,210.6 628.6,212.2 628.8,212.2 629.0,209.9 629.2,213.8 629.4,212.8 629.7,214.1 629.9,214.1 630.1,212.2 630.3,205.7 630.5,197.1 630.7,196.7 630.9,191.2 631.1,192.2 631.3,193.0 631.5,181.2 631.7,185.5 631.9,187.1 632.1,189.9 632.3,188.3 632.6,187.9 632.8,188.6 633.0,189.0 633.2,189.3 633.4,192.9 633.6,191.0 633.8,188.6 634.0,191.5 634.2,191.4 634.4,191.5 634.6,191.5 634.8,191.5 635.0,190.8 635.2,187.9 635.5,189.8 635.7,188.9 635.9,188.6 636.1,190.4 636.3,190.8 636.5,189.3 636.7,193.9 636.9,191.5 637.1,191.5 637.3,187.9 637.5,190.0 637.7,190.0 637.9,187.9 638.1,192.7 638.4,191.5 638.6,183.4 638.8,189.5 639.0,188.3 639.2,183.6 639.4,183.6 639.6,184.8 639.8,186.6 640.0,187.9 640.2,185.9 640.4,191.4 640.6,189.3 640.8,192.0 641.0,192.0 641.3,192.0 641.5,193.7 641.7,192.2 641.9,193.0 642.1,192.4 642.3,189.0 642.5,191.8 642.7,191.6 642.9,193.0 643.1,193.4 643.3,194.8 643.5,193.0 643.7,191.5 643.9,197.1 644.2,204.7 644.4,207.9 644.6,205.0 644.8,203.6 645.0,206.3 645.2,197.2 645.4,203.5 645.6,206.7 645.8,204.7 646.0,203.6 646.2,203.6 646.4,204.6 646.6,203.7 646.8,202.1 647.1,197.1 647.3,197.1 647.5,198.0 647.7,197.5 647.9,198.0 648.1,198.0 648.3,197.5 648.5,197.0 648.7,202.1 648.9,200.7 649.1,200.3 649.3,200.7 649.5,198.7 649.7,200.7 650.0,204.7 650.2,203.6 650.4,203.0 650.6,205.2 650.8,205.2 651.0,203.7 651.2,205.7 651.4,204.7 651.6,205.2 651.8,205.2 652.0,200.7 652.2,199.4 652.4,200.7 652.6,201.6 652.9,202.6 653.1,206.3 653.3,203.2 653.5,202.6 653.7,202.7 653.9,206.3 654.1,205.7 654.3,204.8 654.5,203.9 654.7,206.8 654.9,204.7 655.1,203.6 655.3,203.1 655.5,203.6 655.8,198.8 656.0,201.4 656.2,202.8 656.4,205.7 656.6,201.7 656.8,202.2 657.0,203.2 657.2,202.4 657.4,205.7 657.6,217.9 657.8,221.4 658.0,226.1 658.2,228.5 658.4,228.2 658.7,229.8 658.9,229.0 659.1,227.2 659.3,228.5 659.5,229.4 659.7,232.0 659.9,233.1 660.1,236.7 660.3,237.2 660.5,237.3 660.7,239.7 660.9,240.4 661.1,242.3 661.3,241.1 661.6,238.1 661.8,237.9 662.0,239.3 662.2,238.6 662.4,250.1 662.6,248.6 662.8,246.5 663.0,246.0 663.2,245.9 663.4,248.8 663.6,249.6 663.8,251.3 664.0,250.2 664.2,233.4 664.5,234.8 664.7,232.6 664.9,234.6 665.1,223.6 665.3,222.3 665.5,224.1 665.7,218.1 665.9,221.7 666.1,223.4 666.3,223.9 666.5,223.5 666.7,222.4 666.9,222.6 667.1,229.5 667.4,232.2 667.6,235.3 667.8,233.9 668.0,232.8 668.2,234.0 668.4,234.0 668.6,234.1 668.8,234.8 669.0,234.2 669.2,234.8 669.4,233.6 669.6,230.8 669.8,232.5 670.0,231.2 670.3,230.5 670.5,230.2 670.7,232.6 670.9,232.4 671.1,232.4 671.3,232.4 671.5,231.5 671.7,234.4 671.9,233.9 672.1,236.9 672.3,240.7 672.5,237.2 672.7,237.2 672.9,239.4 673.2,240.7 673.4,243.2 673.6,238.9 673.8,242.3 674.0,245.5 674.2,245.3 674.4,246.1 674.6,263.5 674.8,232.5 675.0,237.6 675.2,237.9 675.4,239.9 675.6,242.9 675.8,244.3 676.1,243.8 676.3,237.9 676.5,239.7 676.7,244.4 676.9,242.2 677.1,241.0 677.3,241.0 677.5,242.3 677.7,240.5 677.9,242.2 678.1,242.3 678.3,242.0 678.5,242.2 678.8,239.8 679.0,240.8 679.2,242.1 679.4,241.5 679.6,242.9 679.8,242.9 680.0,242.8 680.2,242.6 680.4,242.9 680.6,243.2 680.8,243.0 681.0,242.3 681.2,242.3 681.4,243.5 681.7,243.1 681.9,244.0 682.1,244.0 682.3,242.9 682.5,244.7 682.7,244.6 682.9,242.3 683.1,243.4 683.3,243.0 683.5,242.3 683.7,242.1 683.9,243.9 684.1,243.4 684.3,242.9 684.6,245.5 684.8,243.5 685.0,239.4 685.2,237.9 685.4,238.8 685.6,241.2 685.8,242.1 686.0,242.6 686.2,243.1 686.4,247.9 686.6,233.6 686.8,233.6 687.0,237.9 687.2,238.6 687.5,242.1 687.7,243.7 687.9,245.8 688.1,247.9 688.3,245.7 688.5,245.5 688.7,244.7 688.9,246.7 689.1,249.1 689.3,247.1 689.5,249.3 689.7,247.7 689.9,250.9 690.1,250.5 690.4,250.3 690.6,247.6 690.8,249.3 691.0,249.7 691.2,248.1 691.4,247.6 691.6,247.7 691.8,247.0 692.0,248.1 692.2,247.7 692.4,247.0 692.6,249.0 692.8,250.2 693.0,250.9 693.3,250.2 693.5,250.8 693.7,253.8 693.9,257.1 694.1,277.8 694.3,273.9 694.5,290.7 694.7,272.1 694.9,267.6 695.1,262.6 695.3,268.1 695.5,269.1 695.7,260.3 695.9,264.0 696.2,265.0 696.4,265.4 696.6,265.4 696.8,271.5 697.0,280.1 697.2,278.5 697.4,274.5 697.6,277.8 697.8,277.8 698.0,275.2 698.2,281.5 698.4,285.5 698.6,289.9 698.8,292.9 699.1,293.1 699.3,283.8 699.5,293.2 699.7,298.1 699.9,297.2 700.1,297.9 700.3,298.1 700.5,298.2 700.7,298.8 700.9,299.5 701.1,291.1 701.3,300.7 701.5,301.9 701.7,301.9 702.0,301.8 702.2,299.5 702.4,301.9 702.6,290.9 702.8,290.9 703.0,297.1 703.2,296.0 703.4,296.0 703.6,292.9 703.8,292.4 704.0,292.4 704.2,289.1 704.4,298.3 704.6,299.5 704.9,300.7 705.1,293.9 705.3,296.0 705.5,288.1 705.7,295.0 705.9,295.0 706.1,297.7 706.3,299.4 706.5,300.7 706.7,298.3 706.9,298.3 707.1,296.5 707.3,303.5 707.5,303.2 707.8,303.3 708.0,305.1 708.2,305.1 708.4,308.3 708.6,304.8 708.8,307.6 709.0,307.6 709.2,307.6 709.4,307.4 709.6,307.6 709.8,307.3 710.0,297.3 710.2,299.2 710.4,280.9 710.7,288.5 710.9,269.7 711.1,269.7 711.3,276.4 711.5,278.3 711.7,278.1 711.9,281.8 712.1,281.4 712.3,273.3 712.5,273.3 712.7,273.0 712.9,273.0 713.1,281.1 713.3,282.1 713.6,284.0 713.8,283.9 714.0,283.5 714.2,282.2 714.4,282.2 714.6,285.5 714.8,282.2 715.0,282.1 715.2,276.9 715.4,269.2 715.6,271.1 715.8,275.9 716.0,270.9 716.2,282.8 716.5,269.2 716.7,270.1 716.9,270.3 717.1,276.4 717.3,274.5 717.5,268.5 717.7,273.9 717.9,269.6 718.1,275.2 718.3,277.8 718.5,278.5 718.7,283.0 718.9,282.1 719.1,283.9 719.4,283.8 719.6,290.8 719.8,291.5 720.0,292.9 720.2,292.8 720.4,291.6 720.6,292.5 720.8,292.7 721.0,278.6 721.2,286.2 721.4,280.7 721.6,282.2 721.8,275.2 722.0,273.4 722.3,273.9 722.5,273.9 722.7,272.7 722.9,269.2 723.1,273.6 723.3,269.2 723.5,269.2 723.7,269.2 723.9,273.2 724.1,273.0 724.3,276.1 724.5,278.2 724.7,279.8 724.9,278.6 725.2,279.5 725.4,279.4 725.6,280.9 725.8,280.9 726.0,280.9 726.2,280.9 726.4,280.7 726.6,280.7 726.8,280.7 727.0,280.7 727.2,269.2 727.4,280.6 727.6,280.6 727.8,280.6 728.1,283.6 728.3,283.6 728.5,283.6 728.7,283.6 728.9,283.6 729.1,283.6 729.3,283.5 729.5,276.2 729.7,283.3 729.9,283.3 730.1,283.2 730.3,283.2 730.5,283.2 730.7,283.1 731.0,283.3 731.2,282.1 731.4,282.1 731.6,282.1 731.8,282.1 732.0,282.1 732.2,282.1 732.4,282.1 732.6,282.1 732.8,283.7 733.0,283.6 733.2,283.6 733.4,283.7 733.6,283.7 733.9,283.6 734.1,284.0 734.3,287.2 734.5,287.2 734.7,289.0 734.9,289.0 735.1,289.9 735.3,285.9 735.5,287.2 735.7,294.1 735.9,295.8 736.1,295.8 736.3,287.5 736.5,293.7 736.8,282.2 737.0,290.9 737.2,282.7 737.4,289.7 737.6,279.9 737.8,275.7 738.0,278.5 738.2,277.1 738.4,281.5 738.6,283.8 738.8,282.2 739.0,283.0 739.2,286.0 739.4,282.2 739.7,284.2 739.9,286.3 740.1,285.9 740.3,282.2 740.5,283.0 740.7,283.7 740.9,283.6 741.1,282.2 741.3,282.2 741.5,282.2 741.7,282.2 741.9,282.1 742.1,283.6 742.3,289.1 742.6,289.2 742.8,284.9 743.0,282.3 743.2,288.5 743.4,288.4 743.6,288.5 743.8,288.5 744.0,286.9 744.2,286.9 744.4,289.2 744.6,289.2 744.8,285.7 745.0,289.5 745.2,289.5 745.5,289.5 745.7,289.5 745.9,289.5 746.1,289.5 746.3,289.5 746.5,289.4 746.7,289.5 746.9,289.4 747.1,290.9 747.3,291.9 747.5,285.5 747.7,287.0 747.9,290.9 748.1,291.4 748.4,289.9 748.6,289.0 748.8,288.9 749.0,287.2 749.2,288.1 749.4,288.5 749.6,285.0 749.8,288.1 750.0,286.3 750.2,288.1 750.4,285.2 750.6,287.2 750.8,287.1 751.0,282.3 751.3,284.6 751.5,284.6 751.7,285.4 751.9,284.2 752.1,283.8 752.3,285.5 752.5,285.8 752.7,284.6 752.9,285.5 753.1,285.5 753.3,283.0 753.5,286.2 753.7,286.0 753.9,286.0 754.2,282.3 754.4,286.0 754.6,285.0 754.8,285.5 755.0,285.4 755.2,285.4 755.4,284.8 755.6,284.8 755.8,287.1 756.0,284.2 756.2,284.2 756.4,285.0 756.6,285.7 756.8,286.0 757.1,284.6 757.3,284.6 757.5,285.6 757.7,285.5 757.9,286.4 758.1,291.9 758.3,291.9 758.5,290.4 758.7,291.8 758.9,288.9 759.1,288.8 759.3,290.9 759.5,287.2 759.7,286.3 760.0,286.3 760.2,290.7 760.4,290.7 760.6,288.5 760.8,286.7 761.0,289.1 761.2,289.9 761.4,289.9 761.6,288.5 761.8,290.9 762.0,290.9 762.2,288.5 762.4,286.3 762.6,290.9 762.9,289.9 763.1,287.8 763.3,291.3 763.5,291.3 763.7,290.9 763.9,293.4 764.1,290.9 764.3,288.5 764.5,286.3 764.7,286.3 764.9,286.3 765.1,288.5 765.3,283.4 765.5,287.6 765.8,283.8 766.0,292.9 766.2,292.2 766.4,290.1 766.6,292.9 766.8,292.7 767.0,292.7 767.2,292.0 767.4,293.4 767.6,293.4 767.8,295.9 768.0,296.0 768.2,296.0 768.4,298.2 768.7,301.6 768.9,298.3 769.1,300.0 769.3,302.0 769.5,302.0 769.7,308.8 769.9,304.0 770.1,299.8 770.3,304.0 770.5,296.0 770.7,296.0 770.9,304.6 771.1,296.5 771.3,300.6 771.6,299.0 771.8,299.0 772.0,301.3 772.2,301.3 772.4,300.7 772.6,300.7 772.8,302.0 773.0,302.0 773.2,302.0 773.4,302.0 773.6,302.0 773.8,305.4 774.0,305.4 774.2,305.4 774.5,305.4 774.7,306.8 774.9,308.8 775.1,300.9 775.3,308.6 775.5,304.6 775.7,302.1 775.9,308.3 776.1,308.3 776.3,308.3 776.5,291.8 776.7,308.0 776.9,308.0 777.1,308.0 777.4,308.0 777.6,308.0 777.8,307.6 778.0,307.7 778.2,307.9 778.4,307.9 778.6,298.9 778.8,303.5 779.0,303.5 779.2,307.9 779.4,307.9 779.6,308.2 779.8,308.8 780.0,308.8 780.3,308.8 780.5,305.4 780.7,305.4 780.9,308.8 781.1,307.3 781.3,308.6 781.5,308.6 781.7,308.6 781.9,308.6 782.1,308.6 782.3,308.6 782.5,302.0 782.7,302.0 782.9,308.2 783.2,308.0 783.4,308.0 783.6,308.0 783.8,308.0 784.0,307.9 784.2,307.9 784.4,308.2 784.6,307.9 784.8,308.0 785.0,317.3 785.2,314.0 785.4,311.8 785.6,312.3 785.8,312.3 786.1,312.3 786.3,314.6 786.5,313.5 786.7,313.5 786.9,310.7 787.1,313.2 787.3,310.3 787.5,313.2 787.7,313.2 787.9,302.0 788.1,306.7 788.3,306.7 788.5,305.7 788.7,305.7 789.0,307.3 789.2,307.3 789.4,308.9 789.6,311.0 789.8,313.0 790.0,313.0 790.2,315.8 790.4,317.3 790.6,317.3 790.8,317.2 791.0,317.0 791.2,317.5 791.4,312.3 791.6,312.3 791.9,317.2 792.1,317.2 792.3,317.0 792.5,317.0 792.7,317.0 792.9,317.0 793.1,317.0 793.3,316.8 793.5,316.8 793.7,316.8 793.9,316.8 794.1,316.8 794.3,309.2 794.5,309.4 794.8,309.7 795.0,312.1 795.2,312.1 795.4,312.3 795.6,312.3 795.8,312.3 796.0,312.3"/><polyline fill="none" stroke="#16a34a" stroke-width="3" points="78.0,116.5 78.2,111.5 78.4,112.3 78.6,112.3 78.8,112.3 79.0,117.1 79.2,117.1 79.5,117.1 79.7,116.7 79.9,116.7 80.1,116.7 80.3,117.6 80.5,117.6 80.7,117.6 80.9,116.7 81.1,117.1 81.3,117.1 81.5,117.1 81.7,117.1 81.9,112.4 82.1,111.9 82.4,111.9 82.6,112.3 82.8,111.9 83.0,111.9 83.2,112.2 83.4,111.9 83.6,111.9 83.8,110.6 84.0,110.6 84.2,111.9 84.4,110.2 84.6,110.2 84.8,111.9 85.0,111.9 85.3,111.9 85.5,111.9 85.7,112.0 85.9,111.9 86.1,110.1 86.3,110.1 86.5,110.1 86.7,111.9 86.9,111.9 87.1,111.1 87.3,111.2 87.5,111.2 87.7,110.5 87.9,110.5 88.2,110.1 88.4,110.1 88.6,108.3 88.8,108.3 89.0,106.3 89.2,106.6 89.4,106.6 89.6,106.7 89.8,106.7 90.0,105.7 90.2,105.8 90.4,104.2 90.6,103.8 90.8,103.8 91.1,103.8 91.3,103.8 91.5,103.8 91.7,100.4 91.9,100.4 92.1,104.2 92.3,104.2 92.5,104.2 92.7,105.7 92.9,105.0 93.1,107.9 93.3,106.6 93.5,108.7 93.7,108.2 94.0,108.2 94.2,108.5 94.4,108.5 94.6,107.0 94.8,107.0 95.0,107.0 95.2,108.5 95.4,108.3 95.6,108.7 95.8,108.7 96.0,108.7 96.2,108.7 96.4,108.7 96.6,108.7 96.9,108.7 97.1,108.7 97.3,108.7 97.5,108.7 97.7,108.7 97.9,108.7 98.1,108.7 98.3,108.7 98.5,110.1 98.7,110.3 98.9,109.6 99.1,109.5 99.3,110.1 99.5,110.4 99.8,110.1 100.0,110.1 100.2,109.6 100.4,109.6 100.6,101.9 100.8,107.9 101.0,107.9 101.2,110.4 101.4,110.4 101.6,104.3 101.8,104.3 102.0,104.3 102.2,104.3 102.4,104.3 102.7,108.0 102.9,109.5 103.1,109.5 103.3,109.6 103.5,101.5 103.7,103.8 103.9,107.0 104.1,108.3 104.3,108.7 104.5,108.7 104.7,109.2 104.9,109.6 105.1,110.8 105.3,110.8 105.6,110.8 105.8,110.5 106.0,108.7 106.2,108.7 106.4,107.0 106.6,107.9 106.8,107.7 107.0,101.9 107.2,98.4 107.4,100.4 107.6,100.3 107.8,100.4 108.0,100.4 108.2,100.4 108.5,100.1 108.7,99.7 108.9,99.7 109.1,99.7 109.3,99.7 109.5,99.4 109.7,98.4 109.9,99.4 110.1,100.9 110.3,103.8 110.5,100.5 110.7,100.5 110.9,100.5 111.1,100.5 111.4,103.8 111.6,103.8 111.8,103.0 112.0,103.0 112.2,103.6 112.4,100.1 112.6,100.1 112.8,101.5 113.0,101.5 113.2,101.2 113.4,101.2 113.6,101.2 113.8,101.5 114.0,101.5 114.3,101.2 114.5,101.2 114.7,101.2 114.9,101.2 115.1,103.8 115.3,104.3 115.5,104.3 115.7,104.3 115.9,104.3 116.1,104.3 116.3,104.6 116.5,104.6 116.7,104.6 116.9,104.6 117.2,104.6 117.4,104.6 117.6,104.6 117.8,104.6 118.0,104.6 118.2,104.6 118.4,104.6 118.6,106.2 118.8,106.2 119.0,106.2 119.2,105.4 119.4,105.4 119.6,110.1 119.8,110.1 120.1,110.1 120.3,110.1 120.5,110.1 120.7,110.1 120.9,109.2 121.1,109.2 121.3,108.7 121.5,110.1 121.7,110.1 121.9,110.1 122.1,110.1 122.3,110.1 122.5,105.8 122.7,105.8 123.0,107.7 123.2,107.7 123.4,107.4 123.6,107.4 123.8,107.4 124.0,107.4 124.2,107.7 124.4,107.7 124.6,107.7 124.8,107.7 125.0,107.7 125.2,107.7 125.4,107.7 125.6,107.7 125.9,112.4 126.1,112.4 126.3,112.4 126.5,112.4 126.7,112.4 126.9,112.4 127.1,112.4 127.3,112.4 127.5,114.9 127.7,114.9 127.9,114.9 128.1,114.9 128.3,114.9 128.5,114.9 128.8,114.9 129.0,113.4 129.2,107.9 129.4,107.9 129.6,107.9 129.8,112.9 130.0,107.9 130.2,107.9 130.4,107.9 130.6,103.0 130.8,103.4 131.0,103.8 131.2,103.8 131.4,103.8 131.7,103.8 131.9,102.6 132.1,103.8 132.3,103.8 132.5,101.9 132.7,101.9 132.9,101.9 133.1,103.8 133.3,104.6 133.5,103.4 133.7,102.6 133.9,102.5 134.1,103.4 134.3,103.4 134.6,103.4 134.8,103.7 135.0,102.4 135.2,102.4 135.4,102.3 135.6,102.5 135.8,102.5 136.0,98.4 136.2,98.4 136.4,98.4 136.6,101.9 136.8,101.9 137.0,102.3 137.2,98.4 137.5,99.7 137.7,99.7 137.9,101.9 138.1,101.9 138.3,101.9 138.5,101.9 138.7,101.9 138.9,101.7 139.1,101.7 139.3,98.4 139.5,100.1 139.7,99.0 139.9,98.7 140.1,97.6 140.4,97.7 140.6,97.1 140.8,98.0 141.0,97.5 141.2,96.7 141.4,96.7 141.6,96.1 141.8,97.7 142.0,93.9 142.2,94.2 142.4,91.9 142.6,92.2 142.8,92.2 143.0,92.2 143.3,92.2 143.5,92.2 143.7,90.7 143.9,90.7 144.1,91.0 144.3,90.7 144.5,94.2 144.7,93.6 144.9,94.8 145.1,94.5 145.3,94.5 145.5,95.4 145.7,92.7 145.9,96.4 146.2,96.7 146.4,94.3 146.6,94.3 146.8,95.4 147.0,95.4 147.2,95.4 147.4,94.8 147.6,95.1 147.8,96.4 148.0,95.8 148.2,91.3 148.4,91.0 148.6,95.8 148.8,95.8 149.1,95.8 149.3,93.9 149.5,93.9 149.7,95.1 149.9,95.1 150.1,95.8 150.3,91.9 150.5,95.4 150.7,95.4 150.9,91.6 151.1,95.1 151.3,94.5 151.5,91.9 151.7,92.5 152.0,92.2 152.2,94.8 152.4,94.2 152.6,94.2 152.8,93.6 153.0,94.2 153.2,92.4 153.4,93.6 153.6,93.6 153.8,93.6 154.0,92.2 154.2,93.6 154.4,94.5 154.6,94.5 154.9,94.5 155.1,94.5 155.3,95.1 155.5,95.1 155.7,94.2 155.9,94.8 156.1,94.8 156.3,94.5 156.5,94.8 156.7,94.5 156.9,94.5 157.1,94.8 157.3,94.2 157.5,94.8 157.8,94.8 158.0,94.5 158.2,94.5 158.4,94.5 158.6,90.7 158.8,94.5 159.0,94.5 159.2,94.5 159.4,94.5 159.6,94.5 159.8,94.2 160.0,94.5 160.2,94.5 160.4,94.5 160.7,94.5 160.9,94.8 161.1,94.8 161.3,93.6 161.5,93.6 161.7,93.3 161.9,93.3 162.1,92.9 162.3,92.9 162.5,93.3 162.7,93.3 162.9,93.6 163.1,93.6 163.3,93.6 163.6,94.8 163.8,93.6 164.0,94.2 164.2,94.8 164.4,94.8 164.6,94.5 164.8,94.5 165.0,94.8 165.2,94.5 165.4,94.5 165.6,94.8 165.8,93.9 166.0,94.8 166.2,94.3 166.5,93.0 166.7,94.5 166.9,94.2 167.1,94.2 167.3,94.2 167.5,93.6 167.7,93.3 167.9,93.9 168.1,93.4 168.3,93.6 168.5,93.4 168.7,94.3 168.9,94.3 169.1,94.8 169.4,94.8 169.6,94.8 169.8,94.8 170.0,94.8 170.2,94.8 170.4,94.8 170.6,94.8 170.8,94.8 171.0,95.3 171.2,93.0 171.4,95.4 171.6,95.4 171.8,95.4 172.0,96.1 172.3,96.4 172.5,96.7 172.7,97.7 172.9,97.7 173.1,97.7 173.3,97.7 173.5,97.4 173.7,97.4 173.9,97.4 174.1,97.4 174.3,97.4 174.5,97.0 174.7,96.7 174.9,97.7 175.2,97.7 175.4,96.7 175.6,97.7 175.8,96.7 176.0,96.7 176.2,96.7 176.4,97.7 176.6,97.7 176.8,97.7 177.0,97.7 177.2,97.7 177.4,97.6 177.6,97.4 177.8,97.5 178.1,97.4 178.3,97.4 178.5,97.4 178.7,97.4 178.9,97.4 179.1,97.4 179.3,97.0 179.5,97.0 179.7,97.4 179.9,97.4 180.1,97.3 180.3,97.3 180.5,97.4 180.7,97.4 181.0,96.8 181.2,96.8 181.4,96.7 181.6,96.7 181.8,97.4 182.0,97.4 182.2,97.4 182.4,97.4 182.6,96.7 182.8,97.0 183.0,97.0 183.2,96.8 183.4,96.8 183.6,97.6 183.9,97.4 184.1,97.4 184.3,97.4 184.5,97.4 184.7,96.8 184.9,96.8 185.1,96.8 185.3,96.8 185.5,97.0 185.7,98.0 185.9,98.0 186.1,98.0 186.3,98.3 186.5,98.3 186.8,98.0 187.0,97.4 187.2,97.4 187.4,97.4 187.6,97.4 187.8,97.4 188.0,97.4 188.2,98.3 188.4,98.3 188.6,97.4 188.8,97.4 189.0,97.7 189.2,98.0 189.4,98.0 189.7,98.0 189.9,98.0 190.1,98.0 190.3,98.0 190.5,98.0 190.7,98.0 190.9,98.0 191.1,98.4 191.3,99.2 191.5,97.4 191.7,99.0 191.9,97.4 192.1,97.4 192.3,97.4 192.6,97.4 192.8,99.0 193.0,98.7 193.2,96.7 193.4,96.7 193.6,96.7 193.8,95.8 194.0,95.8 194.2,96.1 194.4,96.1 194.6,95.8 194.8,90.7 195.0,90.7 195.2,90.5 195.5,89.9 195.7,89.9 195.9,90.7 196.1,90.7 196.3,90.5 196.5,92.2 196.7,89.9 196.9,90.2 197.1,89.9 197.3,89.9 197.5,89.9 197.7,89.9 197.9,89.9 198.2,89.9 198.4,89.5 198.6,87.6 198.8,86.1 199.0,88.1 199.2,88.1 199.4,86.6 199.6,86.1 199.8,85.6 200.0,84.6 200.2,86.5 200.4,86.1 200.6,87.3 200.8,87.1 201.1,87.1 201.3,88.3 201.5,89.0 201.7,88.6 201.9,88.6 202.1,88.6 202.3,89.0 202.5,88.6 202.7,88.6 202.9,88.6 203.1,84.6 203.3,87.1 203.5,88.9 203.7,84.6 204.0,84.6 204.2,84.6 204.4,87.8 204.6,87.6 204.8,87.8 205.0,87.8 205.2,86.4 205.4,86.4 205.6,86.4 205.8,86.4 206.0,85.2 206.2,85.2 206.4,85.2 206.6,85.2 206.9,85.2 207.1,89.1 207.3,89.1 207.5,90.5 207.7,91.0 207.9,90.7 208.1,93.0 208.3,89.4 208.5,85.6 208.7,84.1 208.9,84.9 209.1,84.9 209.3,84.9 209.5,86.1 209.8,86.6 210.0,86.6 210.2,86.6 210.4,86.6 210.6,85.6 210.8,85.6 211.0,85.6 211.2,85.6 211.4,85.6 211.6,84.1 211.8,84.1 212.0,84.1 212.2,84.1 212.4,85.1 212.7,85.6 212.9,85.8 213.1,85.8 213.3,86.8 213.5,86.8 213.7,86.8 213.9,85.8 214.1,85.8 214.3,86.8 214.5,86.6 214.7,86.6 214.9,85.8 215.1,85.8 215.3,85.8 215.6,85.8 215.8,85.8 216.0,85.8 216.2,85.6 216.4,85.8 216.6,86.3 216.8,85.8 217.0,86.8 217.2,86.8 217.4,86.8 217.6,89.5 217.8,85.6 218.0,85.6 218.2,85.6 218.5,85.6 218.7,85.6 218.9,86.8 219.1,86.8 219.3,86.8 219.5,85.6 219.7,85.6 219.9,85.6 220.1,85.6 220.3,86.3 220.5,86.3 220.7,86.4 220.9,87.3 221.1,87.6 221.4,90.7 221.6,90.7 221.8,90.7 222.0,90.7 222.2,90.7 222.4,90.7 222.6,90.7 222.8,90.7 223.0,90.7 223.2,90.7 223.4,90.7 223.6,90.7 223.8,90.7 224.0,90.7 224.3,90.7 224.5,90.7 224.7,90.7 224.9,90.7 225.1,90.7 225.3,93.9 225.5,95.1 225.7,95.1 225.9,94.2 226.1,94.2 226.3,94.2 226.5,94.2 226.7,94.2 226.9,93.6 227.2,93.6 227.4,93.6 227.6,92.7 227.8,92.7 228.0,93.6 228.2,93.6 228.4,96.1 228.6,96.6 228.8,96.7 229.0,96.7 229.2,96.7 229.4,95.4 229.6,94.8 229.8,94.8 230.1,95.8 230.3,96.1 230.5,94.8 230.7,94.8 230.9,96.1 231.1,96.1 231.3,96.1 231.5,99.4 231.7,97.0 231.9,96.7 232.1,94.5 232.3,92.4 232.5,92.4 232.7,92.4 233.0,92.4 233.2,92.4 233.4,92.4 233.6,92.4 233.8,92.4 234.0,92.4 234.2,92.4 234.4,92.4 234.6,95.1 234.8,94.2 235.0,94.2 235.2,94.2 235.4,93.9 235.6,93.6 235.9,93.8 236.1,93.6 236.3,93.6 236.5,93.6 236.7,96.7 236.9,96.1 237.1,96.7 237.3,96.7 237.5,96.7 237.7,96.7 237.9,96.7 238.1,96.7 238.3,96.7 238.5,96.7 238.8,97.4 239.0,95.1 239.2,95.1 239.4,95.1 239.6,95.1 239.8,95.1 240.0,95.1 240.2,96.1 240.4,96.7 240.6,96.7 240.8,96.4 241.0,96.4 241.2,96.4 241.4,96.7 241.7,96.7 241.9,96.4 242.1,96.4 242.3,96.4 242.5,96.4 242.7,96.1 242.9,95.1 243.1,95.4 243.3,95.1 243.5,95.1 243.7,95.4 243.9,96.7 244.1,96.7 244.3,96.7 244.6,98.8 244.8,98.4 245.0,98.7 245.2,98.4 245.4,98.4 245.6,101.9 245.8,96.7 246.0,97.2 246.2,97.2 246.4,95.4 246.6,95.4 246.8,97.2 247.0,95.9 247.2,96.7 247.5,95.4 247.7,95.4 247.9,96.4 248.1,97.3 248.3,97.7 248.5,97.7 248.7,98.0 248.9,98.0 249.1,100.1 249.3,99.5 249.5,101.3 249.7,101.6 249.9,101.1 250.1,100.8 250.4,98.7 250.6,96.8 250.8,96.8 251.0,96.8 251.2,96.8 251.4,97.7 251.6,97.7 251.8,97.8 252.0,97.8 252.2,97.8 252.4,98.1 252.6,98.0 252.8,97.8 253.0,97.8 253.3,98.3 253.5,98.1 253.7,97.7 253.9,97.4 254.1,96.8 254.3,97.0 254.5,97.7 254.7,96.8 254.9,96.1 255.1,95.4 255.3,96.1 255.5,95.0 255.7,95.4 255.9,95.6 256.2,93.0 256.4,92.4 256.6,92.4 256.8,92.4 257.0,92.4 257.2,92.4 257.4,89.9 257.6,91.6 257.8,91.9 258.0,92.2 258.2,91.7 258.4,92.4 258.6,93.7 258.8,92.4 259.1,91.9 259.3,92.2 259.5,91.0 259.7,91.3 259.9,90.2 260.1,89.9 260.3,90.4 260.5,89.9 260.7,89.9 260.9,88.9 261.1,89.9 261.3,88.3 261.5,89.3 261.7,88.5 262.0,88.6 262.2,89.4 262.4,88.6 262.6,88.6 262.8,88.9 263.0,88.9 263.2,89.4 263.4,89.7 263.6,88.6 263.8,88.6 264.0,88.4 264.2,89.2 264.4,88.9 264.6,88.6 264.9,88.6 265.1,88.1 265.3,87.2 265.5,88.6 265.7,88.9 265.9,88.6 266.1,88.0 266.3,86.9 266.5,87.1 266.7,87.3 266.9,86.9 267.1,86.7 267.3,86.6 267.5,85.8 267.8,85.3 268.0,85.4 268.2,85.6 268.4,86.2 268.6,86.3 268.8,87.6 269.0,89.1 269.2,86.8 269.4,87.9 269.6,87.1 269.8,87.4 270.0,88.0 270.2,90.3 270.4,91.3 270.7,93.3 270.9,92.5 271.1,92.9 271.3,92.6 271.5,89.9 271.7,90.8 271.9,89.4 272.1,90.7 272.3,92.1 272.5,91.5 272.7,89.0 272.9,87.1 273.1,88.4 273.3,90.0 273.6,89.6 273.8,91.2 274.0,89.7 274.2,88.8 274.4,87.1 274.6,87.7 274.8,87.9 275.0,87.4 275.2,87.5 275.4,87.0 275.6,86.0 275.8,86.1 276.0,85.9 276.2,86.6 276.5,86.0 276.7,85.6 276.9,85.3 277.1,84.9 277.3,86.9 277.5,87.9 277.7,87.5 277.9,87.1 278.1,84.8 278.3,85.1 278.5,84.6 278.7,84.8 278.9,84.7 279.1,83.5 279.4,83.5 279.6,83.5 279.8,83.7 280.0,83.5 280.2,83.5 280.4,83.4 280.6,83.3 280.8,83.7 281.0,83.9 281.2,84.6 281.4,84.5 281.6,84.4 281.8,83.2 282.0,82.9 282.3,82.9 282.5,76.5 282.7,77.0 282.9,77.0 283.1,77.4 283.3,76.8 283.5,77.2 283.7,77.0 283.9,76.9 284.1,78.3 284.3,77.1 284.5,78.4 284.7,77.5 284.9,77.1 285.2,77.8 285.4,78.0 285.6,78.3 285.8,79.2 286.0,79.7 286.2,77.8 286.4,78.2 286.6,79.5 286.8,78.7 287.0,78.0 287.2,77.8 287.4,77.7 287.6,78.1 287.8,78.4 288.1,79.2 288.3,79.4 288.5,77.8 288.7,77.8 288.9,77.7 289.1,78.0 289.3,78.0 289.5,77.7 289.7,78.0 289.9,79.4 290.1,80.0 290.3,80.6 290.5,78.3 290.7,79.7 291.0,80.2 291.2,81.2 291.4,81.5 291.6,79.9 291.8,80.0 292.0,77.7 292.2,77.7 292.4,77.3 292.6,77.5 292.8,77.8 293.0,77.4 293.2,77.5 293.4,77.0 293.6,76.9 293.9,76.6 294.1,76.6 294.3,76.7 294.5,76.8 294.7,77.0 294.9,76.9 295.1,77.2 295.3,77.2 295.5,76.8 295.7,76.9 295.9,77.0 296.1,77.3 296.3,77.6 296.5,77.8 296.8,77.6 297.0,78.5 297.2,78.8 297.4,78.5 297.6,77.9 297.8,78.5 298.0,78.5 298.2,79.0 298.4,78.5 298.6,81.1 298.8,80.4 299.0,79.7 299.2,79.9 299.4,79.7 299.7,80.0 299.9,80.5 300.1,80.6 300.3,81.0 300.5,80.6 300.7,81.4 300.9,82.1 301.1,82.2 301.3,85.3 301.5,84.2 301.7,84.7 301.9,85.4 302.1,85.5 302.3,84.1 302.6,83.5 302.8,84.7 303.0,84.8 303.2,85.1 303.4,85.2 303.6,85.5 303.8,85.3 304.0,84.9 304.2,86.2 304.4,88.2 304.6,88.5 304.8,90.1 305.0,89.5 305.2,88.8 305.5,88.4 305.7,86.4 305.9,84.2 306.1,81.8 306.3,79.2 306.5,78.8 306.7,78.9 306.9,77.0 307.1,82.2 307.3,83.0 307.5,83.1 307.7,83.7 307.9,84.7 308.1,84.7 308.4,85.9 308.6,87.4 308.8,87.7 309.0,92.7 309.2,89.2 309.4,90.0 309.6,89.0 309.8,88.9 310.0,89.0 310.2,89.1 310.4,89.4 310.6,89.7 310.8,89.0 311.0,88.9 311.3,89.0 311.5,88.8 311.7,88.2 311.9,88.0 312.1,89.1 312.3,88.9 312.5,89.4 312.7,89.9 312.9,89.2 313.1,88.8 313.3,89.5 313.5,89.2 313.7,89.8 313.9,90.3 314.2,90.3 314.4,89.5 314.6,90.0 314.8,89.8 315.0,89.8 315.2,89.3 315.4,88.9 315.6,88.5 315.8,88.9 316.0,90.0 316.2,89.7 316.4,89.4 316.6,89.6 316.8,89.6 317.1,89.1 317.3,88.4 317.5,88.6 317.7,88.4 317.9,89.9 318.1,89.7 318.3,89.2 318.5,89.9 318.7,89.8 318.9,89.8 319.1,91.1 319.3,91.4 319.5,91.7 319.8,90.6 320.0,91.1 320.2,90.9 320.4,92.3 320.6,92.5 320.8,91.6 321.0,91.0 321.2,90.8 321.4,90.9 321.6,90.8 321.8,90.4 322.0,90.2 322.2,90.9 322.4,91.1 322.7,91.7 322.9,91.4 323.1,92.0 323.3,91.3 323.5,91.2 323.7,90.9 323.9,90.9 324.1,90.8 324.3,91.2 324.5,90.9 324.7,90.7 324.9,90.4 325.1,90.1 325.3,89.8 325.6,91.6 325.8,91.5 326.0,91.6 326.2,91.3 326.4,91.6 326.6,90.0 326.8,90.9 327.0,90.9 327.2,91.3 327.4,91.5 327.6,91.1 327.8,90.4 328.0,90.2 328.2,90.1 328.5,90.7 328.7,90.4 328.9,90.9 329.1,90.1 329.3,91.0 329.5,90.6 329.7,91.1 329.9,91.4 330.1,91.5 330.3,90.7 330.5,91.3 330.7,91.6 330.9,91.7 331.1,91.9 331.4,91.1 331.6,92.2 331.8,92.0 332.0,92.4 332.2,92.3 332.4,92.2 332.6,91.5 332.8,91.8 333.0,92.0 333.2,92.1 333.4,92.0 333.6,92.0 333.8,92.0 334.0,91.2 334.3,90.9 334.5,90.1 334.7,90.0 334.9,90.3 335.1,90.2 335.3,89.4 335.5,89.1 335.7,88.6 335.9,88.4 336.1,92.4 336.3,91.1 336.5,91.2 336.7,90.9 336.9,90.8 337.2,90.8 337.4,91.4 337.6,90.4 337.8,89.7 338.0,90.1 338.2,90.6 338.4,89.8 338.6,90.1 338.8,90.1 339.0,89.5 339.2,90.0 339.4,90.3 339.6,89.7 339.8,89.9 340.1,90.4 340.3,89.8 340.5,89.5 340.7,89.5 340.9,89.4 341.1,89.7 341.3,89.5 341.5,90.2 341.7,89.4 341.9,89.4 342.1,89.3 342.3,90.0 342.5,90.7 342.7,89.7 343.0,90.1 343.2,90.0 343.4,90.5 343.6,90.3 343.8,90.9 344.0,91.0 344.2,90.6 344.4,90.6 344.6,90.7 344.8,90.7 345.0,90.7 345.2,90.0 345.4,90.5 345.6,90.2 345.9,90.1 346.1,90.1 346.3,90.0 346.5,90.4 346.7,90.1 346.9,90.1 347.1,90.5 347.3,90.6 347.5,90.7 347.7,91.4 347.9,91.3 348.1,91.2 348.3,91.0 348.5,91.2 348.8,91.6 349.0,90.9 349.2,91.9 349.4,90.1 349.6,90.7 349.8,91.2 350.0,91.9 350.2,91.5 350.4,91.7 350.6,91.9 350.8,91.9 351.0,91.5 351.2,91.0 351.4,90.7 351.7,91.2 351.9,91.4 352.1,91.5 352.3,91.9 352.5,92.2 352.7,91.9 352.9,91.2 353.1,90.4 353.3,90.9 353.5,91.2 353.7,91.5 353.9,91.0 354.1,91.1 354.3,91.2 354.6,91.4 354.8,91.4 355.0,91.2 355.2,91.6 355.4,91.8 355.6,92.1 355.8,91.9 356.0,92.4 356.2,93.1 356.4,94.0 356.6,93.9 356.8,94.6 357.0,94.3 357.2,94.5 357.5,94.2 357.7,94.1 357.9,94.2 358.1,94.4 358.3,96.1 358.5,95.9 358.7,95.8 358.9,95.8 359.1,96.0 359.3,96.2 359.5,96.7 359.7,93.7 359.9,94.1 360.1,94.8 360.4,95.1 360.6,95.4 360.8,95.8 361.0,94.3 361.2,93.7 361.4,93.2 361.6,93.3 361.8,92.5 362.0,91.0 362.2,91.5 362.4,91.8 362.6,91.0 362.8,91.5 363.0,92.3 363.3,93.0 363.5,94.0 363.7,93.5 363.9,93.6 364.1,94.5 364.3,94.4 364.5,94.0 364.7,93.9 364.9,94.6 365.1,94.3 365.3,94.1 365.5,93.9 365.7,93.9 365.9,93.9 366.2,93.8 366.4,92.2 366.6,91.9 366.8,92.3 367.0,93.1 367.2,93.0 367.4,92.9 367.6,92.2 367.8,91.7 368.0,93.2 368.2,93.3 368.4,92.4 368.6,91.9 368.8,91.6 369.1,91.6 369.3,91.1 369.5,90.8 369.7,90.5 369.9,90.7 370.1,90.7 370.3,91.2 370.5,91.6 370.7,91.2 370.9,91.1 371.1,90.2 371.3,90.0 371.5,89.8 371.7,89.5 372.0,89.4 372.2,88.9 372.4,88.9 372.6,89.9 372.8,90.9 373.0,91.0 373.2,91.1 373.4,90.7 373.6,91.4 373.8,91.2 374.0,91.5 374.2,91.6 374.4,92.2 374.6,92.2 374.9,92.0 375.1,91.5 375.3,91.2 375.5,91.2 375.7,91.1 375.9,91.2 376.1,90.6 376.3,91.1 376.5,91.0 376.7,92.2 376.9,92.0 377.1,93.3 377.3,92.6 377.5,91.6 377.8,91.7 378.0,91.6 378.2,92.1 378.4,92.7 378.6,92.7 378.8,92.5 379.0,92.7 379.2,92.8 379.4,93.0 379.6,93.0 379.8,92.2 380.0,92.3 380.2,92.6 380.4,93.6 380.7,93.3 380.9,93.1 381.1,93.6 381.3,94.2 381.5,94.0 381.7,94.3 381.9,94.0 382.1,94.2 382.3,94.1 382.5,94.1 382.7,94.3 382.9,94.5 383.1,94.6 383.3,94.9 383.6,94.8 383.8,95.7 384.0,95.1 384.2,95.4 384.4,95.9 384.6,95.3 384.8,95.7 385.0,96.0 385.2,96.5 385.4,96.7 385.6,95.9 385.8,96.1 386.0,96.7 386.2,96.1 386.5,96.7 386.7,96.7 386.9,96.7 387.1,96.1 387.3,96.2 387.5,96.6 387.7,96.7 387.9,96.4 388.1,96.7 388.3,96.4 388.5,97.0 388.7,97.4 388.9,96.7 389.1,96.3 389.4,96.5 389.6,96.1 389.8,96.3 390.0,96.6 390.2,96.1 390.4,96.1 390.6,96.7 390.8,94.6 391.0,95.3 391.2,95.9 391.4,96.0 391.6,96.2 391.8,96.7 392.0,97.0 392.3,96.8 392.5,97.7 392.7,97.4 392.9,97.6 393.1,97.4 393.3,97.7 393.5,98.0 393.7,99.0 393.9,99.1 394.1,98.5 394.3,99.0 394.5,99.1 394.7,98.8 394.9,101.2 395.2,101.8 395.4,102.4 395.6,103.2 395.8,101.4 396.0,101.1 396.2,102.5 396.4,103.6 396.6,103.6 396.8,104.1 397.0,104.5 397.2,104.6 397.4,103.2 397.6,102.9 397.8,103.0 398.1,103.2 398.3,102.8 398.5,103.6 398.7,104.4 398.9,104.3 399.1,103.1 399.3,104.3 399.5,104.3 399.7,105.5 399.9,106.2 400.1,104.6 400.3,106.0 400.5,106.4 400.7,107.2 401.0,107.9 401.2,107.9 401.4,108.3 401.6,107.9 401.8,107.7 402.0,104.2 402.2,101.6 402.4,106.7 402.6,107.6 402.8,110.5 403.0,110.3 403.2,109.3 403.4,109.6 403.6,111.7 403.9,108.1 404.1,105.7 404.3,105.4 404.5,106.3 404.7,106.2 404.9,106.1 405.1,108.6 405.3,106.7 405.5,106.8 405.7,107.6 405.9,107.0 406.1,107.0 406.3,107.2 406.5,109.1 406.8,110.0 407.0,110.0 407.2,112.0 407.4,109.3 407.6,111.0 407.8,111.5 408.0,112.5 408.2,113.6 408.4,111.4 408.6,112.4 408.8,112.8 409.0,112.8 409.2,111.5 409.4,112.0 409.7,111.6 409.9,110.6 410.1,110.8 410.3,111.1 410.5,111.0 410.7,112.6 410.9,112.4 411.1,112.1 411.3,112.1 411.5,111.8 411.7,111.9 411.9,111.5 412.1,111.9 412.3,113.9 412.6,114.9 412.8,115.7 413.0,115.7 413.2,113.7 413.4,114.7 413.6,115.6 413.8,106.4 414.0,112.3 414.2,112.2 414.4,112.0 414.6,112.4 414.8,112.4 415.0,110.2 415.2,111.3 415.5,110.8 415.7,111.2 415.9,112.4 416.1,111.8 416.3,111.3 416.5,111.0 416.7,111.1 416.9,110.1 417.1,110.1 417.3,110.0 417.5,108.1 417.7,109.7 417.9,109.1 418.1,110.4 418.4,110.4 418.6,110.7 418.8,110.3 419.0,111.6 419.2,111.6 419.4,112.0 419.6,112.9 419.8,112.5 420.0,111.9 420.2,113.2 420.4,112.3 420.6,112.9 420.8,111.6 421.0,111.9 421.3,111.7 421.5,110.1 421.7,111.1 421.9,111.9 422.1,112.8 422.3,112.6 422.5,111.5 422.7,112.4 422.9,112.7 423.1,112.5 423.3,109.9 423.5,110.9 423.7,112.2 423.9,112.1 424.2,112.4 424.4,112.2 424.6,112.2 424.8,111.7 425.0,111.6 425.2,111.8 425.4,112.8 425.6,113.8 425.8,112.5 426.0,111.9 426.2,111.9 426.4,113.3 426.6,112.9 426.8,112.9 427.1,111.0 427.3,109.7 427.5,111.5 427.7,111.9 427.9,111.4 428.1,112.4 428.3,112.4 428.5,112.4 428.7,112.3 428.9,112.9 429.1,113.7 429.3,114.8 429.5,115.0 429.7,114.2 430.0,113.9 430.2,115.3 430.4,115.2 430.6,113.3 430.8,114.1 431.0,113.4 431.2,114.4 431.4,114.3 431.6,114.0 431.8,112.8 432.0,113.0 432.2,112.4 432.4,111.9 432.6,111.0 432.9,110.6 433.1,111.2 433.3,110.4 433.5,110.5 433.7,111.9 433.9,113.7 434.1,115.5 434.3,115.5 434.5,114.9 434.7,113.5 434.9,114.3 435.1,114.5 435.3,115.5 435.5,115.3 435.8,114.8 436.0,114.7 436.2,114.3 436.4,114.7 436.6,113.1 436.8,114.4 437.0,115.0 437.2,115.1 437.4,115.5 437.6,114.9 437.8,114.4 438.0,114.2 438.2,114.3 438.5,114.6 438.7,115.0 438.9,115.2 439.1,114.7 439.3,114.6 439.5,112.9 439.7,114.0 439.9,114.0 440.1,114.8 440.3,115.1 440.5,115.1 440.7,115.0 440.9,114.6 441.1,113.0 441.4,112.6 441.6,112.0 441.8,110.3 442.0,110.1 442.2,112.4 442.4,111.9 442.6,112.4 442.8,113.7 443.0,112.0 443.2,112.3 443.4,112.3 443.6,112.2 443.8,112.4 444.0,111.9 444.3,110.9 444.5,111.9 444.7,111.8 444.9,112.3 445.1,111.6 445.3,111.8 445.5,112.8 445.7,112.8 445.9,113.9 446.1,113.6 446.3,114.6 446.5,114.1 446.7,113.9 446.9,112.6 447.2,113.9 447.4,114.5 447.6,114.2 447.8,112.4 448.0,113.7 448.2,114.3 448.4,114.3 448.6,114.3 448.8,112.9 449.0,113.5 449.2,113.2 449.4,113.9 449.6,113.4 449.8,114.8 450.1,114.8 450.3,116.4 450.5,115.8 450.7,117.7 450.9,121.0 451.1,122.6 451.3,122.9 451.5,123.6 451.7,123.2 451.9,124.4 452.1,124.6 452.3,125.7 452.5,124.9 452.7,125.4 453.0,125.7 453.2,124.9 453.4,125.7 453.6,125.6 453.8,125.7 454.0,124.6 454.2,124.8 454.4,123.2 454.6,122.8 454.8,123.2 455.0,124.4 455.2,124.4 455.4,123.4 455.6,123.1 455.9,123.6 456.1,122.4 456.3,122.6 456.5,122.4 456.7,122.9 456.9,122.7 457.1,121.9 457.3,122.2 457.5,120.0 457.7,120.1 457.9,119.5 458.1,120.1 458.3,120.5 458.5,118.4 458.8,119.0 459.0,119.9 459.2,119.4 459.4,119.9 459.6,120.2 459.8,119.9 460.0,120.4 460.2,120.2 460.4,119.3 460.6,119.4 460.8,119.5 461.0,118.3 461.2,118.3 461.4,117.0 461.7,116.8 461.9,117.2 462.1,117.1 462.3,117.5 462.5,117.2 462.7,116.5 462.9,118.4 463.1,118.5 463.3,117.6 463.5,119.1 463.7,120.0 463.9,120.6 464.1,123.6 464.3,122.9 464.6,123.7 464.8,125.6 465.0,129.6 465.2,130.0 465.4,134.6 465.6,144.9 465.8,141.7 466.0,149.2 466.2,146.5 466.4,148.7 466.6,150.4 466.8,154.5 467.0,155.7 467.2,156.9 467.5,144.0 467.7,137.6 467.9,139.5 468.1,142.7 468.3,142.9 468.5,149.4 468.7,145.8 468.9,143.6 469.1,142.1 469.3,141.3 469.5,138.0 469.7,139.1 469.9,144.2 470.1,142.7 470.4,146.7 470.6,153.9 470.8,150.7 471.0,157.2 471.2,158.8 471.4,154.8 471.6,153.7 471.8,154.8 472.0,149.4 472.2,150.7 472.4,149.9 472.6,151.0 472.8,152.6 473.0,151.7 473.3,152.0 473.5,152.3 473.7,149.9 473.9,147.0 474.1,148.7 474.3,152.0 474.5,148.9 474.7,151.0 474.9,147.4 475.1,143.6 475.3,147.0 475.5,146.7 475.7,144.0 475.9,143.8 476.2,143.8 476.4,146.5 476.6,145.8 476.8,145.1 477.0,145.8 477.2,145.9 477.4,143.2 477.6,142.1 477.8,139.1 478.0,137.0 478.2,138.5 478.4,140.1 478.6,147.7 478.8,149.7 479.1,148.4 479.3,146.0 479.5,145.8 479.7,145.8 479.9,145.8 480.1,149.9 480.3,152.6 480.5,149.9 480.7,151.0 480.9,158.4 481.1,151.5 481.3,153.7 481.5,158.1 481.7,153.1 482.0,156.3 482.2,157.2 482.4,154.5 482.6,156.0 482.8,153.7 483.0,153.7 483.2,154.1 483.4,153.4 483.6,154.2 483.8,152.8 484.0,154.5 484.2,152.0 484.4,151.0 484.6,152.8 484.9,153.7 485.1,156.6 485.3,154.5 485.5,152.8 485.7,153.7 485.9,155.1 486.1,154.5 486.3,153.7 486.5,152.0 486.7,154.5 486.9,155.1 487.1,154.5 487.3,153.7 487.5,152.6 487.8,153.1 488.0,153.7 488.2,153.9 488.4,154.1 488.6,152.8 488.8,153.0 489.0,150.7 489.2,151.0 489.4,151.0 489.6,152.3 489.8,155.1 490.0,151.2 490.2,152.3 490.4,152.6 490.7,151.5 490.9,152.0 491.1,151.2 491.3,149.2 491.5,148.7 491.7,147.9 491.9,150.2 492.1,148.4 492.3,146.0 492.5,146.7 492.7,146.5 492.9,155.4 493.1,152.0 493.3,154.8 493.6,155.4 493.8,154.8 494.0,155.7 494.2,156.3 494.4,152.6 494.6,152.8 494.8,153.1 495.0,153.4 495.2,156.0 495.4,156.0 495.6,154.8 495.8,156.0 496.0,156.0 496.2,155.4 496.5,157.2 496.7,154.4 496.9,155.6 497.1,156.3 497.3,156.3 497.5,156.9 497.7,157.1 497.9,156.3 498.1,154.2 498.3,152.8 498.5,153.4 498.7,153.7 498.9,152.4 499.1,153.4 499.4,153.7 499.6,151.7 499.8,152.8 500.0,153.1 500.2,156.3 500.4,152.6 500.6,152.8 500.8,152.6 501.0,153.1 501.2,153.1 501.4,153.9 501.6,153.9 501.8,153.4 502.0,153.1 502.3,152.3 502.5,156.0 502.7,153.7 502.9,154.8 503.1,155.4 503.3,154.2 503.5,155.4 503.7,154.2 503.9,154.2 504.1,151.0 504.3,150.2 504.5,154.2 504.7,153.4 504.9,154.8 505.2,154.2 505.4,155.4 505.6,156.3 505.8,156.3 506.0,156.6 506.2,157.2 506.4,157.3 506.6,159.7 506.8,156.0 507.0,157.5 507.2,156.0 507.4,155.5 507.6,157.2 507.8,157.5 508.1,157.5 508.3,156.6 508.5,156.6 508.7,155.7 508.9,153.9 509.1,154.2 509.3,154.2 509.5,154.5 509.7,152.8 509.9,153.4 510.1,145.6 510.3,138.3 510.5,140.1 510.7,136.5 511.0,138.5 511.2,138.5 511.4,141.1 511.6,144.7 511.8,145.8 512.0,146.5 512.2,144.5 512.4,143.8 512.6,139.3 512.8,137.0 513.0,138.3 513.2,136.1 513.4,134.7 513.6,135.4 513.9,134.0 514.1,132.2 514.3,131.3 514.5,132.4 514.7,132.2 514.9,127.7 515.1,131.1 515.3,130.5 515.5,131.0 515.7,135.1 515.9,135.1 516.1,135.2 516.3,136.5 516.5,138.1 516.8,137.6 517.0,138.5 517.2,134.7 517.4,135.6 517.6,136.1 517.8,133.4 518.0,131.3 518.2,134.9 518.4,135.1 518.6,137.2 518.8,135.9 519.0,136.3 519.2,138.0 519.4,138.0 519.7,139.3 519.9,137.6 520.1,139.3 520.3,138.3 520.5,137.6 520.7,136.5 520.9,135.8 521.1,137.6 521.3,138.0 521.5,138.1 521.7,137.6 521.9,138.0 522.1,136.3 522.3,137.6 522.6,137.4 522.8,137.6 523.0,138.5 523.2,138.3 523.4,138.1 523.6,138.9 523.8,138.7 524.0,138.9 524.2,139.1 524.4,139.7 524.6,140.5 524.8,140.5 525.0,140.3 525.2,143.4 525.5,141.9 525.7,142.3 525.9,139.5 526.1,142.3 526.3,142.5 526.5,144.2 526.7,144.5 526.9,143.6 527.1,142.9 527.3,142.3 527.5,143.2 527.7,142.3 527.9,142.3 528.1,141.1 528.4,140.5 528.6,140.7 528.8,142.3 529.0,141.1 529.2,138.9 529.4,140.1 529.6,140.1 529.8,141.7 530.0,142.1 530.2,141.1 530.4,140.1 530.6,138.0 530.8,138.3 531.0,139.3 531.3,138.7 531.5,140.9 531.7,141.9 531.9,139.5 532.1,138.3 532.3,137.4 532.5,138.3 532.7,138.5 532.9,141.3 533.1,142.3 533.3,137.2 533.5,137.2 533.7,137.0 533.9,137.0 534.2,137.4 534.4,136.3 534.6,136.5 534.8,134.9 535.0,135.2 535.2,135.4 535.4,134.9 535.6,136.3 535.8,136.3 536.0,136.7 536.2,130.3 536.4,128.7 536.6,125.2 536.8,127.1 537.1,128.4 537.3,129.7 537.5,129.4 537.7,132.2 537.9,132.7 538.1,134.2 538.3,135.2 538.5,137.6 538.7,135.9 538.9,134.4 539.1,134.2 539.3,136.8 539.5,134.6 539.7,133.0 540.0,132.7 540.2,136.7 540.4,136.8 540.6,137.2 540.8,136.8 541.0,138.1 541.2,138.1 541.4,137.6 541.6,136.7 541.8,137.4 542.0,136.3 542.2,137.8 542.4,137.0 542.6,137.4 542.9,138.9 543.1,139.1 543.3,138.3 543.5,138.5 543.7,139.3 543.9,139.7 544.1,139.3 544.3,139.9 544.5,139.1 544.7,140.3 544.9,138.9 545.1,139.3 545.3,139.7 545.5,139.3 545.8,139.7 546.0,139.7 546.2,140.1 546.4,140.3 546.6,140.3 546.8,140.1 547.0,139.9 547.2,139.7 547.4,139.7 547.6,139.9 547.8,140.7 548.0,140.2 548.2,139.9 548.4,139.5 548.7,137.9 548.9,135.6 549.1,133.5 549.3,136.8 549.5,134.7 549.7,134.2 549.9,135.9 550.1,135.9 550.3,135.1 550.5,135.8 550.7,139.1 550.9,138.1 551.1,139.1 551.3,138.9 551.6,140.3 551.8,140.5 552.0,140.5 552.2,140.3 552.4,140.1 552.6,140.5 552.8,140.3 553.0,141.9 553.2,141.7 553.4,141.1 553.6,141.7 553.8,141.3 554.0,141.9 554.2,141.9 554.5,141.7 554.7,141.5 554.9,141.1 555.1,141.1 555.3,141.1 555.5,141.1 555.7,141.5 555.9,140.9 556.1,141.9 556.3,140.9 556.5,141.1 556.7,141.7 556.9,141.9 557.2,141.9 557.4,141.9 557.6,141.9 557.8,142.1 558.0,142.9 558.2,143.2 558.4,142.1 558.6,142.3 558.8,142.1 559.0,141.9 559.2,143.2 559.4,141.5 559.6,141.9 559.8,143.8 560.1,142.5 560.3,141.6 560.5,142.3 560.7,143.8 560.9,143.2 561.1,144.7 561.3,144.7 561.5,144.8 561.7,144.5 561.9,142.3 562.1,142.7 562.3,144.5 562.5,145.1 562.7,144.5 563.0,145.1 563.2,145.1 563.4,144.8 563.6,145.6 563.8,143.6 564.0,142.5 564.2,143.4 564.4,142.3 564.6,142.3 564.8,143.2 565.0,143.6 565.2,144.5 565.4,144.5 565.6,144.2 565.9,143.2 566.1,141.3 566.3,142.5 566.5,142.3 566.7,141.9 566.9,140.9 567.1,141.5 567.3,142.1 567.5,142.5 567.7,143.2 567.9,142.5 568.1,141.7 568.3,142.9 568.5,142.3 568.8,142.5 569.0,142.1 569.2,141.7 569.4,142.9 569.6,141.5 569.8,142.1 570.0,142.3 570.2,143.4 570.4,143.6 570.6,143.6 570.8,142.7 571.0,139.3 571.2,138.3 571.4,138.5 571.7,140.9 571.9,137.6 572.1,136.9 572.3,140.7 572.5,140.7 572.7,138.7 572.9,141.3 573.1,142.1 573.3,142.7 573.5,141.5 573.7,143.2 573.9,144.5 574.1,144.7 574.3,146.3 574.6,147.0 574.8,145.8 575.0,148.4 575.2,148.7 575.4,149.2 575.6,148.2 575.8,151.5 576.0,152.6 576.2,151.2 576.4,154.5 576.6,156.3 576.8,155.7 577.0,155.4 577.2,156.0 577.5,156.0 577.7,153.5 577.9,155.7 578.1,156.0 578.3,159.1 578.5,158.4 578.7,159.6 578.9,159.1 579.1,159.4 579.3,160.1 579.5,159.4 579.7,157.8 579.9,161.2 580.1,161.8 580.4,160.4 580.6,159.4 580.8,156.3 581.0,152.8 581.2,154.8 581.4,154.5 581.6,154.5 581.8,159.1 582.0,159.1 582.2,159.4 582.4,159.4 582.6,158.4 582.8,159.7 583.0,162.5 583.3,162.1 583.5,164.3 583.7,163.2 583.9,164.3 584.1,164.3 584.3,164.6 584.5,161.4 584.7,165.0 584.9,162.5 585.1,166.1 585.3,166.1 585.5,167.7 585.7,165.8 585.9,165.4 586.2,166.1 586.4,165.0 586.6,163.9 586.8,162.5 587.0,164.6 587.2,163.2 587.4,165.0 587.6,164.6 587.8,162.5 588.0,162.5 588.2,164.3 588.4,164.2 588.6,163.5 588.8,161.4 589.1,164.6 589.3,162.8 589.5,165.0 589.7,162.5 589.9,164.3 590.1,162.5 590.3,161.8 590.5,160.1 590.7,159.4 590.9,162.8 591.1,162.5 591.3,163.5 591.5,163.5 591.7,161.3 592.0,161.1 592.2,160.7 592.4,162.1 592.6,162.5 592.8,164.6 593.0,164.5 593.2,165.4 593.4,165.2 593.6,165.4 593.8,165.8 594.0,168.1 594.2,166.1 594.4,166.1 594.6,167.6 594.9,166.9 595.1,168.4 595.3,170.2 595.5,172.4 595.7,173.7 595.9,162.5 596.1,163.5 596.3,159.4 596.5,165.4 596.7,163.9 596.9,174.8 597.1,174.3 597.3,173.8 597.5,172.4 597.8,171.5 598.0,178.3 598.2,174.0 598.4,171.4 598.6,173.4 598.8,171.1 599.0,171.0 599.2,172.4 599.4,166.5 599.6,172.2 599.8,169.6 600.0,171.1 600.2,168.0 600.4,171.1 600.7,172.4 600.9,170.7 601.1,174.1 601.3,174.3 601.5,170.2 601.7,170.2 601.9,175.8 602.1,175.3 602.3,173.8 602.5,164.6 602.7,171.9 602.9,177.6 603.1,175.2 603.3,176.8 603.6,176.7 603.8,176.8 604.0,177.0 604.2,176.8 604.4,178.8 604.6,179.4 604.8,179.7 605.0,177.8 605.2,179.7 605.4,180.0 605.6,186.8 605.8,189.3 606.0,197.5 606.2,195.0 606.5,195.4 606.7,195.0 606.9,195.0 607.1,195.2 607.3,193.0 607.5,193.5 607.7,194.2 607.9,183.8 608.1,172.9 608.3,176.8 608.5,177.3 608.7,172.5 608.9,173.4 609.1,174.3 609.4,177.3 609.6,179.4 609.8,177.8 610.0,179.0 610.2,178.3 610.4,180.0 610.6,180.0 610.8,179.8 611.0,179.4 611.2,180.0 611.4,180.0 611.6,181.1 611.8,181.8 612.0,177.8 612.3,180.5 612.5,178.1 612.7,180.0 612.9,179.1 613.1,178.6 613.3,179.7 613.5,178.3 613.7,178.9 613.9,177.3 614.1,174.8 614.3,176.8 614.5,175.8 614.7,171.1 614.9,171.1 615.2,171.8 615.4,171.1 615.6,171.1 615.8,171.1 616.0,172.0 616.2,172.0 616.4,169.0 616.6,167.3 616.8,167.7 617.0,169.8 617.2,169.1 617.4,171.7 617.6,171.9 617.8,171.1 618.1,171.0 618.3,170.1 618.5,170.1 618.7,171.1 618.9,169.8 619.1,172.0 619.3,171.1 619.5,168.1 619.7,171.8 619.9,170.7 620.1,172.0 620.3,174.0 620.5,175.8 620.7,174.3 621.0,175.8 621.2,174.7 621.4,175.8 621.6,175.8 621.8,177.2 622.0,180.2 622.2,180.5 622.4,181.7 622.6,180.0 622.8,180.0 623.0,182.8 623.2,184.0 623.4,187.9 623.6,188.6 623.9,188.6 624.1,187.9 624.3,195.4 624.5,194.6 624.7,194.6 624.9,194.6 625.1,197.1 625.3,196.2 625.5,197.1 625.7,196.6 625.9,198.4 626.1,199.3 626.3,201.7 626.5,202.1 626.8,202.6 627.0,202.6 627.2,204.7 627.4,203.6 627.6,207.7 627.8,207.9 628.0,209.1 628.2,212.2 628.4,210.6 628.6,212.2 628.8,212.2 629.0,209.9 629.2,213.8 629.4,212.8 629.7,214.1 629.9,214.1 630.1,212.2 630.3,205.7 630.5,197.1 630.7,196.7 630.9,191.2 631.1,192.2 631.3,193.0 631.5,181.2 631.7,185.5 631.9,187.1 632.1,189.9 632.3,188.3 632.6,187.9 632.8,188.6 633.0,189.0 633.2,189.3 633.4,192.9 633.6,191.0 633.8,188.6 634.0,191.5 634.2,191.4 634.4,191.5 634.6,191.5 634.8,191.5 635.0,190.8 635.2,187.9 635.5,189.8 635.7,188.9 635.9,188.6 636.1,190.4 636.3,190.8 636.5,189.3 636.7,193.9 636.9,191.5 637.1,191.5 637.3,187.9 637.5,190.0 637.7,190.0 637.9,187.9 638.1,192.7 638.4,191.5 638.6,183.4 638.8,189.5 639.0,188.3 639.2,183.6 639.4,183.6 639.6,184.8 639.8,186.6 640.0,187.9 640.2,185.9 640.4,191.4 640.6,189.3 640.8,192.0 641.0,192.0 641.3,192.0 641.5,193.7 641.7,192.2 641.9,193.0 642.1,192.4 642.3,189.0 642.5,191.8 642.7,191.6 642.9,193.0 643.1,193.4 643.3,194.8 643.5,193.0 643.7,191.5 643.9,197.1 644.2,204.7 644.4,207.9 644.6,205.0 644.8,203.6 645.0,206.3 645.2,197.2 645.4,203.5 645.6,206.7 645.8,204.7 646.0,203.6 646.2,203.6 646.4,204.6 646.6,203.7 646.8,202.1 647.1,197.1 647.3,197.1 647.5,198.0 647.7,197.5 647.9,198.0 648.1,198.0 648.3,197.5 648.5,197.0 648.7,202.1 648.9,200.7 649.1,200.3 649.3,200.7 649.5,198.7 649.7,200.7 650.0,204.7 650.2,203.6 650.4,203.0 650.6,205.2 650.8,205.2 651.0,203.7 651.2,205.7 651.4,204.7 651.6,205.2 651.8,205.2 652.0,200.7 652.2,199.4 652.4,200.7 652.6,201.6 652.9,202.6 653.1,206.3 653.3,203.2 653.5,202.6 653.7,202.7 653.9,206.3 654.1,205.7 654.3,204.8 654.5,203.9 654.7,206.8 654.9,204.7 655.1,203.6 655.3,203.1 655.5,203.6 655.8,198.8 656.0,201.4 656.2,202.8 656.4,205.7 656.6,201.7 656.8,202.2 657.0,203.2 657.2,202.4 657.4,205.7 657.6,217.9 657.8,221.4 658.0,226.1 658.2,228.5 658.4,228.2 658.7,229.8 658.9,229.0 659.1,227.2 659.3,228.5 659.5,229.4 659.7,232.0 659.9,233.1 660.1,236.7 660.3,237.2 660.5,237.3 660.7,239.7 660.9,240.4 661.1,242.3 661.3,241.1 661.6,238.1 661.8,237.9 662.0,239.3 662.2,238.6 662.4,250.1 662.6,248.6 662.8,246.5 663.0,246.0 663.2,245.9 663.4,248.8 663.6,249.6 663.8,251.3 664.0,250.2 664.2,233.4 664.5,234.8 664.7,232.6 664.9,234.6 665.1,223.6 665.3,222.3 665.5,224.1 665.7,218.1 665.9,221.7 666.1,223.4 666.3,223.9 666.5,223.5 666.7,222.4 666.9,222.6 667.1,229.5 667.4,232.2 667.6,235.3 667.8,233.9 668.0,232.8 668.2,234.0 668.4,234.0 668.6,234.1 668.8,234.8 669.0,234.2 669.2,234.8 669.4,233.6 669.6,230.8 669.8,232.5 670.0,231.2 670.3,230.5 670.5,230.2 670.7,232.6 670.9,232.4 671.1,232.4 671.3,232.4 671.5,231.5 671.7,234.4 671.9,233.9 672.1,236.9 672.3,240.7 672.5,237.2 672.7,237.2 672.9,239.4 673.2,240.7 673.4,243.2 673.6,238.9 673.8,242.3 674.0,245.5 674.2,245.3 674.4,246.1 674.6,263.5 674.8,232.5 675.0,237.6 675.2,237.9 675.4,239.9 675.6,242.9 675.8,244.3 676.1,243.8 676.3,237.9 676.5,239.7 676.7,244.4 676.9,242.2 677.1,241.0 677.3,241.0 677.5,242.3 677.7,240.5 677.9,242.2 678.1,242.3 678.3,242.0 678.5,242.2 678.8,239.8 679.0,240.8 679.2,242.1 679.4,241.5 679.6,242.9 679.8,242.9 680.0,242.8 680.2,242.6 680.4,242.9 680.6,243.2 680.8,243.0 681.0,242.3 681.2,242.3 681.4,243.5 681.7,243.1 681.9,244.0 682.1,244.0 682.3,242.9 682.5,244.7 682.7,244.6 682.9,242.3 683.1,243.4 683.3,243.0 683.5,242.3 683.7,242.1 683.9,243.9 684.1,243.4 684.3,242.9 684.6,245.5 684.8,243.5 685.0,239.4 685.2,237.9 685.4,238.8 685.6,241.2 685.8,242.1 686.0,242.6 686.2,243.1 686.4,247.9 686.6,233.6 686.8,233.6 687.0,237.9 687.2,238.6 687.5,242.1 687.7,243.7 687.9,245.8 688.1,247.9 688.3,245.7 688.5,245.5 688.7,244.7 688.9,246.7 689.1,249.1 689.3,247.1 689.5,249.3 689.7,247.7 689.9,250.9 690.1,250.5 690.4,250.3 690.6,247.6 690.8,249.3 691.0,249.7 691.2,248.1 691.4,247.6 691.6,247.7 691.8,247.0 692.0,248.1 692.2,247.7 692.4,247.0 692.6,249.0 692.8,250.2 693.0,250.9 693.3,250.2 693.5,250.8 693.7,253.8 693.9,257.1 694.1,277.8 694.3,273.9 694.5,290.7 694.7,272.1 694.9,267.6 695.1,262.6 695.3,268.1 695.5,269.1 695.7,260.3 695.9,264.0 696.2,265.0 696.4,265.4 696.6,265.4 696.8,271.5 697.0,280.1 697.2,278.5 697.4,274.5 697.6,277.8 697.8,277.8 698.0,275.2 698.2,281.5 698.4,285.5 698.6,289.9 698.8,292.9 699.1,293.1 699.3,283.8 699.5,293.2 699.7,298.1 699.9,297.2 700.1,297.9 700.3,298.1 700.5,298.2 700.7,298.8 700.9,299.5 701.1,291.1 701.3,300.7 701.5,301.9 701.7,301.9 702.0,301.8 702.2,299.5 702.4,301.9 702.6,290.9 702.8,290.9 703.0,297.1 703.2,296.0 703.4,296.0 703.6,292.9 703.8,292.4 704.0,292.4 704.2,289.1 704.4,298.3 704.6,299.5 704.9,300.7 705.1,293.9 705.3,296.0 705.5,288.1 705.7,295.0 705.9,295.0 706.1,297.7 706.3,299.4 706.5,300.7 706.7,298.3 706.9,298.3 707.1,296.5 707.3,303.5 707.5,303.2 707.8,303.3 708.0,305.1 708.2,305.1 708.4,308.3 708.6,304.8 708.8,307.6 709.0,307.6 709.2,307.6 709.4,307.4 709.6,307.6 709.8,307.3 710.0,297.3 710.2,299.2 710.4,280.9 710.7,288.5 710.9,269.7 711.1,269.7 711.3,276.4 711.5,278.3 711.7,278.1 711.9,281.8 712.1,281.4 712.3,273.3 712.5,273.3 712.7,273.0 712.9,273.0 713.1,281.1 713.3,282.1 713.6,284.0 713.8,283.9 714.0,283.5 714.2,282.2 714.4,282.2 714.6,285.5 714.8,282.2 715.0,282.1 715.2,276.9 715.4,269.2 715.6,271.1 715.8,275.9 716.0,270.9 716.2,282.8 716.5,269.2 716.7,270.1 716.9,270.3 717.1,276.4 717.3,274.5 717.5,268.5 717.7,273.9 717.9,269.6 718.1,275.2 718.3,277.8 718.5,278.5 718.7,283.0 718.9,282.1 719.1,283.9 719.4,283.8 719.6,290.8 719.8,291.5 720.0,292.9 720.2,292.8 720.4,291.6 720.6,292.5 720.8,292.7 721.0,278.6 721.2,286.2 721.4,280.7 721.6,282.2 721.8,275.2 722.0,273.4 722.3,273.9 722.5,273.9 722.7,272.7 722.9,269.2 723.1,273.6 723.3,269.2 723.5,269.2 723.7,269.2 723.9,273.2 724.1,273.0 724.3,276.1 724.5,278.2 724.7,279.8 724.9,278.6 725.2,279.5 725.4,279.4 725.6,280.9 725.8,280.9 726.0,280.9 726.2,280.9 726.4,280.7 726.6,280.7 726.8,280.7 727.0,280.7 727.2,269.2 727.4,280.6 727.6,280.6 727.8,280.6 728.1,283.6 728.3,283.6 728.5,283.6 728.7,283.6 728.9,283.6 729.1,283.6 729.3,283.5 729.5,276.2 729.7,283.3 729.9,283.3 730.1,283.2 730.3,283.2 730.5,283.2 730.7,283.1 731.0,283.3 731.2,282.1 731.4,282.1 731.6,282.1 731.8,282.1 732.0,282.1 732.2,282.1 732.4,282.1 732.6,282.1 732.8,283.7 733.0,283.6 733.2,283.6 733.4,283.7 733.6,283.7 733.9,283.6 734.1,284.0 734.3,287.2 734.5,287.2 734.7,289.0 734.9,289.0 735.1,289.9 735.3,285.9 735.5,287.2 735.7,294.1 735.9,295.8 736.1,295.8 736.3,287.5 736.5,293.7 736.8,282.2 737.0,290.9 737.2,282.7 737.4,289.7 737.6,279.9 737.8,275.7 738.0,278.5 738.2,277.1 738.4,281.5 738.6,283.8 738.8,282.2 739.0,283.0 739.2,286.0 739.4,282.2 739.7,284.2 739.9,286.3 740.1,285.9 740.3,282.2 740.5,283.0 740.7,283.7 740.9,283.6 741.1,282.2 741.3,282.2 741.5,282.2 741.7,282.2 741.9,282.1 742.1,283.6 742.3,289.1 742.6,289.2 742.8,284.9 743.0,282.3 743.2,288.5 743.4,288.4 743.6,288.5 743.8,288.5 744.0,286.9 744.2,286.9 744.4,289.2 744.6,289.2 744.8,285.7 745.0,289.5 745.2,289.5 745.5,289.5 745.7,289.5 745.9,289.5 746.1,289.5 746.3,289.5 746.5,289.4 746.7,289.5 746.9,289.4 747.1,290.9 747.3,291.9 747.5,285.5 747.7,287.0 747.9,290.9 748.1,291.4 748.4,289.9 748.6,289.0 748.8,288.9 749.0,287.2 749.2,288.1 749.4,288.5 749.6,285.0 749.8,288.1 750.0,286.3 750.2,288.1 750.4,285.2 750.6,287.2 750.8,287.1 751.0,282.3 751.3,284.6 751.5,284.6 751.7,285.4 751.9,284.2 752.1,283.8 752.3,285.5 752.5,285.8 752.7,284.6 752.9,285.5 753.1,285.5 753.3,283.0 753.5,286.2 753.7,286.0 753.9,286.0 754.2,282.3 754.4,286.0 754.6,285.0 754.8,285.5 755.0,285.4 755.2,285.4 755.4,284.8 755.6,284.8 755.8,287.1 756.0,284.2 756.2,284.2 756.4,285.0 756.6,285.7 756.8,286.0 757.1,284.6 757.3,284.6 757.5,285.6 757.7,285.5 757.9,286.4 758.1,291.9 758.3,291.9 758.5,290.4 758.7,291.8 758.9,288.9 759.1,288.8 759.3,290.9 759.5,287.2 759.7,286.3 760.0,286.3 760.2,290.7 760.4,290.7 760.6,288.5 760.8,286.7 761.0,289.1 761.2,289.9 761.4,289.9 761.6,288.5 761.8,290.9 762.0,290.9 762.2,288.5 762.4,286.3 762.6,290.9 762.9,289.9 763.1,287.8 763.3,291.3 763.5,291.3 763.7,290.9 763.9,293.4 764.1,290.9 764.3,288.5 764.5,286.3 764.7,286.3 764.9,286.3 765.1,288.5 765.3,283.4 765.5,287.6 765.8,283.8 766.0,292.9 766.2,292.2 766.4,290.1 766.6,292.9 766.8,292.7 767.0,292.7 767.2,292.0 767.4,293.4 767.6,293.4 767.8,295.9 768.0,296.0 768.2,296.0 768.4,298.2 768.7,301.6 768.9,298.3 769.1,300.0 769.3,302.0 769.5,302.0 769.7,308.8 769.9,304.0 770.1,299.8 770.3,304.0 770.5,296.0 770.7,296.0 770.9,304.6 771.1,296.5 771.3,300.6 771.6,299.0 771.8,299.0 772.0,301.3 772.2,301.3 772.4,300.7 772.6,300.7 772.8,302.0 773.0,302.0 773.2,302.0 773.4,302.0 773.6,302.0 773.8,305.4 774.0,305.4 774.2,305.4 774.5,305.4 774.7,306.8 774.9,308.8 775.1,300.9 775.3,308.6 775.5,304.6 775.7,302.1 775.9,308.3 776.1,308.3 776.3,308.3 776.5,291.8 776.7,308.0 776.9,308.0 777.1,308.0 777.4,308.0 777.6,308.0 777.8,307.6 778.0,307.7 778.2,307.9 778.4,307.9 778.6,298.9 778.8,303.5 779.0,303.5 779.2,307.9 779.4,307.9 779.6,308.2 779.8,308.8 780.0,308.8 780.3,308.8 780.5,305.4 780.7,305.4 780.9,308.8 781.1,307.3 781.3,308.6 781.5,308.6 781.7,308.6 781.9,308.6 782.1,308.6 782.3,308.6 782.5,302.0 782.7,302.0 782.9,308.2 783.2,308.0 783.4,308.0 783.6,308.0 783.8,308.0 784.0,307.9 784.2,307.9 784.4,308.2 784.6,307.9 784.8,308.0 785.0,317.3 785.2,314.0 785.4,311.8 785.6,312.3 785.8,312.3 786.1,312.3 786.3,314.6 786.5,313.5 786.7,313.5 786.9,310.7 787.1,313.2 787.3,310.3 787.5,313.2 787.7,313.2 787.9,302.0 788.1,306.7 788.3,306.7 788.5,305.7 788.7,305.7 789.0,307.3 789.2,307.3 789.4,308.9 789.6,311.0 789.8,313.0 790.0,313.0 790.2,315.8 790.4,317.3 790.6,317.3 790.8,317.2 791.0,317.0 791.2,317.5 791.4,312.3 791.6,312.3 791.9,317.2 792.1,317.2 792.3,317.0 792.5,317.0 792.7,317.0 792.9,317.0 793.1,317.0 793.3,316.8 793.5,316.8 793.7,316.8 793.9,316.8 794.1,316.8 794.3,309.2 794.5,309.4 794.8,309.7 795.0,312.1 795.2,312.1 795.4,312.3 795.6,312.3 795.8,312.3 796.0,312.3"/>
<text x="78" y="392" font-size="11" fill="#16a34a">Total return -99.4%</text><text x="268" y="392" font-size="11" fill="#2563eb">Price-only -99.4%</text><text x="78" y="362" font-size="11" text-anchor="middle" fill="#64748b">2012-10</text><text x="257" y="362" font-size="11" text-anchor="middle" fill="#64748b">2016-03</text><text x="437" y="362" font-size="11" text-anchor="middle" fill="#64748b">2019-08</text><text x="617" y="362" font-size="11" text-anchor="middle" fill="#64748b">2023-02</text><text x="796" y="362" font-size="11" text-anchor="middle" fill="#64748b">2026-07</text></svg>