<svg xmlns="http://www.w3.org/2000/svg" width="820" height="410" viewBox="0 0 820 410">
<rect width="820" height="410" fill="#fafafa"/><text x="78" y="22" font-size="14" font-family="sans-serif" fill="#0f172a">HIMS cumulative return since 2019-09-13 | dividends reinvested</text>
<text x="78" y="40" font-size="11" font-family="sans-serif" fill="#334155">Total return +235.1% | Price-only +235.1% | logarithmic scale</text>
<text x="78" y="54" font-size="9" font-family="sans-serif" fill="#64748b">Regular $0.00 | Special $0.00 | Other $0.00 per initial share path</text>
<line x1="78" y1="332.0" x2="796" y2="332.0" stroke="#e2e8f0"/><text x="70" y="336.0" font-size="10" text-anchor="end" fill="#64748b">-73.6%</text><line x1="78" y1="287.0" x2="796" y2="287.0" stroke="#e2e8f0"/><text x="70" y="291.0" font-size="10" text-anchor="end" fill="#64748b">-53.0%</text><line x1="78" y1="242.0" x2="796" y2="242.0" stroke="#e2e8f0"/><text x="70" y="246.0" font-size="10" text-anchor="end" fill="#64748b">-16.3%</text><line x1="78" y1="228.2" x2="796" y2="228.2" stroke="#e2e8f0"/><text x="70" y="232.2" font-size="10" text-anchor="end" fill="#64748b">0%</text><line x1="78" y1="197.0" x2="796" y2="197.0" stroke="#e2e8f0"/><text x="70" y="201.0" font-size="10" text-anchor="end" fill="#64748b">+49.2%</text><line x1="78" y1="152.0" x2="796" y2="152.0" stroke="#e2e8f0"/><text x="70" y="156.0" font-size="10" text-anchor="end" fill="#64748b">+165.9%</text><line x1="78" y1="107.0" x2="796" y2="107.0" stroke="#e2e8f0"/><text x="70" y="111.0" font-size="10" text-anchor="end" fill="#64748b">+373.9%</text><line x1="78" y1="62.0" x2="796" y2="62.0" stroke="#e2e8f0"/><text x="70" y="66.0" font-size="10" text-anchor="end" fill="#64748b">+744.6%</text>
<line x1="78" y1="332" x2="796" y2="332" stroke="#cbd5e1"/>
<polyline fill="none" stroke="#2563eb" stroke-width="2" points="78.0,228.2 78.4,228.2 78.8,228.2 79.3,228.2 79.7,227.0 80.1,227.0 80.5,227.0 80.9,227.0 81.3,227.0 81.8,227.4 82.2,227.6 82.6,227.6 83.0,227.6 83.4,227.6 83.9,227.7 84.3,227.7 84.7,227.8 85.1,227.8 85.5,227.8 85.9,228.0 86.4,228.0 86.8,228.0 87.2,227.8 87.6,227.8 88.0,227.8 88.4,227.8 88.9,227.8 89.3,227.8 89.7,227.8 90.1,227.8 90.5,227.8 91.0,227.8 91.4,227.9 91.8,227.8 92.2,227.9 92.6,227.9 93.0,227.8 93.5,227.7 93.9,227.7 94.3,227.7 94.7,227.6 95.1,227.6 95.6,227.6 96.0,227.6 96.4,227.8 96.8,227.4 97.2,227.4 97.6,227.4 98.1,227.2 98.5,227.2 98.9,227.3 99.3,227.3 99.7,227.2 100.2,227.2 100.6,227.2 101.0,227.2 101.4,227.2 101.8,227.8 102.2,227.4 102.7,227.4 103.1,228.1 103.5,228.1 103.9,228.1 104.3,228.1 104.7,227.7 105.2,227.4 105.6,227.4 106.0,227.7 106.4,227.7 106.8,227.4 107.3,227.4 107.7,227.4 108.1,227.4 108.5,227.4 108.9,227.4 109.3,227.4 109.8,227.4 110.2,227.4 110.6,227.4 111.0,227.2 111.4,227.1 111.9,227.0 112.3,227.0 112.7,227.0 113.1,227.0 113.5,226.6 113.9,226.6 114.4,226.2 114.8,226.0 115.2,226.0 115.6,226.0 116.0,226.2 116.4,226.2 116.9,226.2 117.3,226.0 117.7,226.5 118.1,226.2 118.5,226.2 119.0,226.2 119.4,226.2 119.8,226.2 120.2,226.2 120.6,226.3 121.0,226.5 121.5,225.4 121.9,225.4 122.3,225.8 122.7,225.8 123.1,225.8 123.6,225.8 124.0,225.8 124.4,225.8 124.8,225.8 125.2,225.8 125.6,225.8 126.1,226.3 126.5,226.3 126.9,226.3 127.3,225.7 127.7,225.9 128.2,225.9 128.6,226.5 129.0,226.8 129.4,227.1 129.8,227.8 130.2,227.8 130.7,229.4 131.1,230.1 131.5,231.1 131.9,230.9 132.3,230.9 132.7,231.4 133.2,230.0 133.6,230.0 134.0,228.5 134.4,228.5 134.8,227.4 135.3,226.6 135.7,226.9 136.1,227.3 136.5,227.8 136.9,227.9 137.3,228.2 137.8,227.8 138.2,227.8 138.6,227.8 139.0,227.7 139.4,227.6 139.9,227.1 140.3,227.8 140.7,227.8 141.1,227.8 141.5,227.4 141.9,227.5 142.4,226.8 142.8,227.2 143.2,226.8 143.6,226.8 144.0,226.8 144.5,226.7 144.9,226.7 145.3,226.6 145.7,226.7 146.1,226.7 146.5,226.7 147.0,227.4 147.4,226.8 147.8,226.6 148.2,226.4 148.6,227.1 149.0,226.8 149.5,227.0 149.9,227.1 150.3,227.1 150.7,226.7 151.1,226.3 151.6,227.4 152.0,227.4 152.4,227.1 152.8,227.0 153.2,226.7 153.6,226.7 154.1,226.4 154.5,226.4 154.9,226.4 155.3,226.5 155.7,226.2 156.2,226.4 156.6,226.5 157.0,226.2 157.4,226.2 157.8,226.2 158.2,225.9 158.7,225.8 159.1,225.5 159.5,225.5 159.9,225.3 160.3,225.3 160.7,225.2 161.2,225.0 161.6,225.3 162.0,225.0 162.4,223.8 162.8,223.4 163.3,223.2 163.7,224.4 164.1,224.4 164.5,223.2 164.9,223.8 165.3,223.6 165.8,223.1 166.2,223.1 166.6,223.1 167.0,223.2 167.4,222.1 167.9,222.4 168.3,223.1 168.7,222.0 169.1,222.6 169.5,223.3 169.9,224.1 170.4,224.1 170.8,224.3 171.2,223.5 171.6,224.5 172.0,224.5 172.5,224.5 172.9,224.5 173.3,222.1 173.7,222.0 174.1,221.9 174.5,221.4 175.0,221.0 175.4,221.0 175.8,221.7 176.2,222.6 176.6,222.8 177.0,222.2 177.5,223.2 177.9,222.8 178.3,222.8 178.7,222.3 179.1,223.2 179.6,222.9 180.0,221.0 180.4,221.2 180.8,221.4 181.2,221.0 181.6,221.0 182.1,220.2 182.5,219.3 182.9,219.4 183.3,219.2 183.7,218.8 184.2,217.8 184.6,217.8 185.0,217.8 185.4,219.2 185.8,219.2 186.2,220.8 186.7,221.7 187.1,220.4 187.5,217.4 187.9,215.0 188.3,214.0 188.8,220.6 189.2,222.7 189.6,224.1 190.0,225.0 190.4,224.7 190.8,223.9 191.3,222.9 191.7,223.5 192.1,223.0 192.5,223.0 192.9,222.9 193.3,223.5 193.8,223.5 194.2,224.0 194.6,224.7 195.0,225.0 195.4,225.1 195.9,225.7 196.3,226.0 196.7,226.4 197.1,226.1 197.5,225.0 197.9,225.4 198.4,225.3 198.8,225.2 199.2,225.4 199.6,225.8 200.0,225.9 200.5,225.7 200.9,225.5 201.3,225.7 201.7,225.5 202.1,225.6 202.5,225.4 203.0,225.7 203.4,224.9 203.8,224.8 204.2,224.7 204.6,224.7 205.1,224.7 205.5,223.2 205.9,222.6 206.3,220.8 206.7,222.6 207.1,220.5 207.6,219.9 208.0,213.6 208.4,213.8 208.8,212.1 209.2,210.4 209.6,213.1 210.1,209.2 210.5,211.8 210.9,209.8 211.3,210.7 211.7,212.1 212.2,209.4 212.6,203.6 213.0,195.1 213.4,195.1 213.8,195.4 214.2,193.2 214.7,196.3 215.1,197.1 215.5,191.6 215.9,193.3 216.3,191.4 216.8,190.3 217.2,184.3 217.6,183.7 218.0,184.4 218.4,184.3 218.8,183.2 219.3,180.6 219.7,185.6 220.1,188.2 220.5,192.8 220.9,194.0 221.3,202.8 221.8,196.7 222.2,206.1 222.6,187.3 223.0,176.6 223.4,164.8 223.9,172.5 224.3,166.1 224.7,164.6 225.1,158.4 225.5,156.9 225.9,160.0 226.4,164.3 226.8,167.4 227.2,163.6 227.6,164.6 228.0,168.7 228.5,176.6 228.9,175.5 229.3,182.0 229.7,182.8 230.1,186.0 230.5,194.9 231.0,197.3 231.4,193.9 231.8,189.9 232.2,194.9 232.6,202.9 233.1,204.0 233.5,206.3 233.9,202.8 234.3,204.8 234.7,195.0 235.1,191.1 235.6,189.3 236.0,188.2 236.4,191.8 236.8,189.9 237.2,197.9 237.6,203.3 238.1,204.8 238.5,205.9 238.9,206.0 239.3,203.7 239.7,207.4 240.2,208.5 240.6,204.8 241.0,202.6 241.4,199.9 241.8,202.0 242.2,205.9 242.7,206.5 243.1,206.3 243.5,209.1 243.9,211.6 244.3,210.5 244.8,206.8 245.2,210.5 245.6,217.7 246.0,227.4 246.4,217.1 246.8,219.2 247.3,216.2 247.7,212.6 248.1,212.1 248.5,210.1 248.9,210.7 249.4,210.0 249.8,214.7 250.2,216.0 250.6,215.8 251.0,221.1 251.4,220.6 251.9,224.1 252.3,227.4 252.7,235.0 253.1,242.4 253.5,236.2 253.9,233.0 254.4,226.2 254.8,222.3 255.2,216.2 255.6,207.3 256.0,212.1 256.5,214.7 256.9,209.9 257.3,200.9 257.7,198.1 258.1,205.0 258.5,202.1 259.0,200.7 259.4,200.5 259.8,196.2 260.2,193.2 260.6,203.5 261.1,207.1 261.5,211.0 261.9,206.8 262.3,211.9 262.7,213.9 263.1,214.8 263.6,218.5 264.0,217.8 264.4,219.9 264.8,218.3 265.2,221.0 265.6,221.7 266.1,219.9 266.5,221.4 266.9,219.9 267.3,219.4 267.7,223.7 268.2,222.3 268.6,221.1 269.0,224.2 269.4,225.7 269.8,222.3 270.2,226.8 270.7,232.6 271.1,228.4 271.5,233.7 271.9,230.1 272.3,237.5 272.8,236.2 273.2,239.3 273.6,238.3 274.0,242.1 274.4,242.0 274.8,240.7 275.3,244.6 275.7,244.8 276.1,243.3 276.5,242.3 276.9,242.9 277.4,242.9 277.8,242.5 278.2,241.8 278.6,245.5 279.0,248.3 279.4,240.3 279.9,240.4 280.3,249.3 280.7,255.4 281.1,250.3 281.5,256.5 281.9,253.1 282.4,251.3 282.8,246.6 283.2,248.9 283.6,249.2 284.0,246.6 284.5,244.0 284.9,245.1 285.3,242.8 285.7,240.7 286.1,241.9 286.5,238.3 287.0,239.0 287.4,234.3 287.8,237.3 288.2,235.9 288.6,237.8 289.1,237.8 289.5,238.2 289.9,237.2 290.3,243.5 290.7,241.5 291.1,241.7 291.6,241.7 292.0,243.0 292.4,240.5 292.8,245.7 293.2,248.7 293.7,248.6 294.1,251.1 294.5,251.7 294.9,250.7 295.3,250.5 295.7,249.6 296.2,250.2 296.6,249.2 297.0,244.4 297.4,240.6 297.8,239.6 298.2,240.5 298.7,244.4 299.1,241.5 299.5,241.1 299.9,239.6 300.3,248.1 300.8,244.5 301.2,246.2 301.6,249.6 302.0,244.8 302.4,245.9 302.8,241.9 303.3,242.7 303.7,241.5 304.1,240.7 304.5,240.8 304.9,239.7 305.4,241.3 305.8,243.8 306.2,246.9 306.6,250.0 307.0,242.3 307.4,242.1 307.9,242.8 308.3,249.9 308.7,251.0 309.1,252.7 309.5,257.8 309.9,256.0 310.4,255.7 310.8,256.6 311.2,259.5 311.6,264.4 312.0,266.0 312.5,267.9 312.9,266.1 313.3,261.5 313.7,259.5 314.1,262.9 314.5,265.1 315.0,267.8 315.4,273.1 315.8,261.9 316.2,264.7 316.6,260.9 317.1,263.9 317.5,260.9 317.9,260.4 318.3,258.4 318.7,259.1 319.1,261.1 319.6,265.3 320.0,261.6 320.4,259.5 320.8,257.2 321.2,260.1 321.7,267.9 322.1,269.9 322.5,269.8 322.9,272.0 323.3,269.4 323.7,272.0 324.2,276.8 324.6,276.2 325.0,280.9 325.4,282.9 325.8,283.4 326.2,283.9 326.7,286.5 327.1,286.4 327.5,289.3 327.9,294.3 328.3,291.9 328.8,282.5 329.2,282.3 329.6,284.9 330.0,290.0 330.4,289.8 330.8,286.0 331.3,286.0 331.7,281.3 332.1,282.0 332.5,285.0 332.9,287.9 333.4,282.6 333.8,283.9 334.2,289.3 334.6,290.5 335.0,294.1 335.4,284.6 335.9,280.4 336.3,276.0 336.7,277.2 337.1,279.8 337.5,277.4 338.0,282.3 338.4,287.1 338.8,291.8 339.2,292.5 339.6,285.0 340.0,288.1 340.5,289.3 340.9,299.9 341.3,291.6 341.7,287.7 342.1,281.3 342.5,279.0 343.0,280.4 343.4,276.6 343.8,276.3 344.2,276.5 344.6,278.0 345.1,278.1 345.5,275.3 345.9,275.7 346.3,275.6 346.7,276.0 347.1,273.0 347.6,277.7 348.0,279.8 348.4,280.4 348.8,284.1 349.2,284.2 349.7,282.3 350.1,280.2 350.5,279.6 350.9,283.3 351.3,279.0 351.7,282.0 352.2,286.9 352.6,286.2 353.0,283.4 353.4,286.2 353.8,288.9 354.3,290.3 354.7,294.0 355.1,291.8 355.5,291.8 355.9,291.4 356.3,294.3 356.8,298.1 357.2,303.8 357.6,309.0 358.0,317.5 358.4,315.3 358.8,309.5 359.3,309.0 359.7,304.2 360.1,310.4 360.5,307.2 360.9,308.1 361.4,307.7 361.8,310.1 362.2,306.4 362.6,304.0 363.0,296.4 363.4,297.2 363.9,297.4 364.3,293.2 364.7,296.8 365.1,295.1 365.5,297.0 366.0,294.1 366.4,299.5 366.8,300.9 367.2,302.8 367.6,301.3 368.0,296.6 368.5,296.0 368.9,291.4 369.3,290.9 369.7,291.2 370.1,287.2 370.5,287.4 371.0,284.4 371.4,287.1 371.8,286.4 372.2,288.2 372.6,283.9 373.1,279.3 373.5,278.0 373.9,271.6 374.3,271.7 374.7,274.9 375.1,275.1 375.6,274.3 376.0,274.1 376.4,273.0 376.8,272.9 377.2,269.8 377.7,265.6 378.1,263.3 378.5,268.6 378.9,268.1 379.3,270.9 379.7,269.4 380.2,265.5 380.6,263.9 381.0,263.4 381.4,261.1 381.8,259.9 382.3,260.4 382.7,259.5 383.1,258.1 383.5,262.2 383.9,256.4 384.3,253.4 384.8,252.7 385.2,251.9 385.6,254.8 386.0,257.4 386.4,261.6 386.8,266.6 387.3,266.1 387.7,266.5 388.1,263.4 388.5,261.6 388.9,266.1 389.4,265.3 389.8,263.2 390.2,261.8 390.6,263.2 391.0,265.2 391.4,266.6 391.9,260.0 392.3,258.9 392.7,258.0 393.1,258.5 393.5,265.8 394.0,264.6 394.4,266.0 394.8,267.9 395.2,269.3 395.6,270.1 396.0,270.6 396.5,273.6 396.9,275.3 397.3,275.9 397.7,274.9 398.1,270.4 398.6,271.9 399.0,272.0 399.4,272.3 399.8,270.4 400.2,270.4 400.6,271.0 401.1,274.9 401.5,280.7 401.9,279.8 402.3,280.7 402.7,280.9 403.1,284.2 403.6,291.6 404.0,290.7 404.4,296.2 404.8,292.7 405.2,291.0 405.7,294.7 406.1,291.8 406.5,290.0 406.9,291.6 407.3,288.9 407.7,288.1 408.2,288.4 408.6,292.7 409.0,294.1 409.4,293.2 409.8,286.7 410.3,272.7 410.7,272.9 411.1,264.4 411.5,268.6 411.9,266.0 412.3,263.9 412.8,269.3 413.2,268.7 413.6,269.3 414.0,267.7 414.4,267.8 414.8,262.9 415.3,264.9 415.7,265.6 416.1,268.1 416.5,263.9 416.9,261.6 417.4,258.8 417.8,257.7 418.2,258.7 418.6,254.4 419.0,251.6 419.4,252.8 419.9,252.4 420.3,250.6 420.7,252.3 421.1,255.5 421.5,257.1 422.0,257.9 422.4,258.4 422.8,257.1 423.2,260.0 423.6,261.0 424.0,263.4 424.5,264.2 424.9,261.6 425.3,261.2 425.7,262.3 426.1,258.8 426.6,265.1 427.0,264.7 427.4,260.6 427.8,257.0 428.2,257.4 428.6,253.3 429.1,248.7 429.5,247.1 429.9,246.6 430.3,249.2 430.7,251.5 431.1,247.6 431.6,247.5 432.0,249.7 432.4,248.1 432.8,246.4 433.2,249.5 433.7,241.3 434.1,244.0 434.5,240.9 434.9,245.0 435.3,245.5 435.7,239.7 436.2,239.9 436.6,234.2 437.0,229.7 437.4,230.1 437.8,227.8 438.3,226.3 438.7,229.6 439.1,229.5 439.5,231.9 439.9,232.3 440.3,229.4 440.8,228.4 441.2,229.4 441.6,217.3 442.0,215.5 442.4,223.9 442.9,223.8 443.3,226.0 443.7,228.4 444.1,227.5 444.5,230.3 444.9,235.0 445.4,235.7 445.8,237.6 446.2,234.7 446.6,227.0 447.0,228.6 447.4,229.3 447.9,226.3 448.3,229.0 448.7,231.3 449.1,230.3 449.5,230.3 450.0,227.3 450.4,226.3 450.8,227.3 451.2,227.2 451.6,224.2 452.0,225.9 452.5,228.4 452.9,227.0 453.3,228.2 453.7,230.2 454.1,229.5 454.6,226.2 455.0,228.5 455.4,226.8 455.8,219.2 456.2,217.8 456.6,220.2 457.1,214.5 457.5,213.6 457.9,217.8 458.3,217.8 458.7,215.4 459.2,215.1 459.6,212.3 460.0,214.5 460.4,213.3 460.8,214.2 461.2,212.1 461.7,213.4 462.1,221.7 462.5,221.3 462.9,222.3 463.3,220.5 463.7,220.8 464.2,222.9 464.6,222.0 465.0,224.5 465.4,228.4 465.8,230.6 466.3,233.1 466.7,236.4 467.1,234.5 467.5,234.2 467.9,235.8 468.3,235.3 468.8,235.7 469.2,234.8 469.6,235.2 470.0,233.2 470.4,233.4 470.9,233.5 471.3,234.8 471.7,234.9 472.1,234.4 472.5,237.7 472.9,236.5 473.4,237.9 473.8,240.6 474.2,240.0 474.6,240.7 475.0,240.0 475.4,241.8 475.9,240.8 476.3,239.5 476.7,234.0 477.1,231.4 477.5,233.8 478.0,235.7 478.4,237.9 478.8,241.4 479.2,238.2 479.6,238.0 480.0,237.7 480.5,233.8 480.9,236.0 481.3,233.8 481.7,233.8 482.1,235.7 482.6,240.6 483.0,241.5 483.4,240.7 483.8,241.1 484.2,241.5 484.6,240.1 485.1,238.0 485.5,235.0 485.9,236.9 486.3,240.3 486.7,242.0 487.2,242.5 487.6,244.9 488.0,249.6 488.4,250.9 488.8,252.3 489.2,252.2 489.7,253.0 490.1,252.4 490.5,254.4 490.9,255.3 491.3,256.5 491.7,254.4 492.2,257.3 492.6,255.6 493.0,257.7 493.4,256.5 493.8,256.0 494.3,255.0 494.7,255.0 495.1,257.7 495.5,256.0 495.9,255.6 496.3,255.4 496.8,257.1 497.2,259.8 497.6,259.8 498.0,260.6 498.4,261.8 498.9,262.6 499.3,262.4 499.7,262.1 500.1,263.3 500.5,263.9 500.9,264.9 501.4,266.2 501.8,264.9 502.2,264.3 502.6,263.6 503.0,261.8 503.5,262.7 503.9,260.7 504.3,263.7 504.7,263.8 505.1,262.4 505.5,261.8 506.0,262.4 506.4,261.9 506.8,261.7 507.2,263.6 507.6,263.2 508.0,262.8 508.5,262.2 508.9,264.7 509.3,265.7 509.7,266.4 510.1,263.9 510.6,263.1 511.0,264.3 511.4,265.3 511.8,269.3 512.2,269.3 512.6,266.6 513.1,267.8 513.5,265.3 513.9,260.4 514.3,262.8 514.7,254.7 515.2,254.1 515.6,258.6 516.0,256.5 516.4,254.4 516.8,250.5 517.2,246.8 517.7,246.8 518.1,249.3 518.5,246.5 518.9,248.2 519.3,243.1 519.7,241.8 520.2,241.4 520.6,240.2 521.0,237.3 521.4,235.7 521.8,236.3 522.3,235.7 522.7,236.2 523.1,235.7 523.5,237.2 523.9,238.0 524.3,236.5 524.8,239.8 525.2,237.6 525.6,237.3 526.0,239.7 526.4,238.0 526.9,237.0 527.3,240.7 527.7,238.3 528.1,238.4 528.5,237.5 528.9,235.5 529.4,234.5 529.8,235.7 530.2,229.4 530.6,234.4 531.0,239.5 531.5,240.6 531.9,236.4 532.3,238.9 532.7,238.1 533.1,236.9 533.5,238.6 534.0,239.6 534.4,240.1 534.8,240.0 535.2,240.9 535.6,237.5 536.0,237.0 536.5,235.3 536.9,234.0 537.3,236.4 537.7,234.6 538.1,236.0 538.6,238.5 539.0,235.6 539.4,235.9 539.8,238.7 540.2,231.2 540.6,231.1 541.1,227.8 541.5,227.6 541.9,227.0 542.3,230.7 542.7,226.7 543.2,226.2 543.6,226.3 544.0,229.7 544.4,231.3 544.8,231.0 545.2,230.4 545.7,224.7 546.1,203.6 546.5,204.2 546.9,205.9 547.3,205.4 547.8,196.6 548.2,199.1 548.6,200.4 549.0,198.5 549.4,198.9 549.8,197.8 550.3,197.0 550.7,194.4 551.1,198.2 551.5,197.0 551.9,191.6 552.3,191.8 552.8,187.7 553.2,186.5 553.6,188.4 554.0,188.5 554.4,190.9 554.9,191.3 555.3,192.6 555.7,191.7 556.1,195.1 556.5,192.4 556.9,196.7 557.4,197.6 557.8,195.6 558.2,197.4 558.6,197.4 559.0,197.1 559.5,200.6 559.9,204.8 560.3,208.0 560.7,209.8 561.1,210.2 561.5,213.0 562.0,213.2 562.4,210.3 562.8,210.2 563.2,210.7 563.6,209.2 564.1,208.9 564.5,209.0 564.9,209.1 565.3,210.8 565.7,217.3 566.1,214.7 566.6,210.1 567.0,211.4 567.4,206.6 567.8,210.5 568.2,206.8 568.6,201.8 569.1,201.3 569.5,200.2 569.9,197.3 570.3,178.3 570.7,182.7 571.2,189.2 571.6,190.8 572.0,185.8 572.4,176.2 572.8,174.3 573.2,171.2 573.7,174.9 574.1,170.7 574.5,169.4 574.9,166.1 575.3,166.7 575.8,169.6 576.2,166.5 576.6,165.0 577.0,159.5 577.4,157.2 577.8,159.2 578.3,157.9 578.7,155.9 579.1,163.8 579.5,164.7 579.9,164.7 580.3,161.2 580.8,166.8 581.2,172.5 581.6,171.9 582.0,167.3 582.4,168.0 582.9,170.7 583.3,169.6 583.7,170.6 584.1,170.0 584.5,171.8 584.9,168.6 585.4,166.2 585.8,162.3 586.2,161.4 586.6,165.2 587.0,171.2 587.5,174.9 587.9,171.3 588.3,162.5 588.7,163.4 589.1,160.9 589.5,166.0 590.0,166.2 590.4,168.1 590.8,167.9 591.2,178.6 591.6,182.6 592.1,181.5 592.5,185.8 592.9,189.8 593.3,190.7 593.7,190.2 594.1,190.1 594.6,190.1 595.0,192.8 595.4,191.4 595.8,192.1 596.2,187.3 596.6,187.4 597.1,187.3 597.5,187.8 597.9,186.5 598.3,189.7 598.7,195.8 599.2,196.9 599.6,196.4 600.0,196.4 600.4,197.6 600.8,197.1 601.2,198.0 601.7,202.4 602.1,200.5 602.5,197.5 602.9,193.6 603.3,190.9 603.8,187.3 604.2,188.6 604.6,189.5 605.0,188.5 605.4,185.6 605.8,188.5 606.3,187.9 606.7,184.0 607.1,184.1 607.5,182.1 607.9,181.8 608.4,179.0 608.8,175.3 609.2,176.8 609.6,184.7 610.0,182.3 610.4,174.8 610.9,177.6 611.3,177.7 611.7,181.5 612.1,177.9 612.5,170.7 612.9,162.4 613.4,163.9 613.8,166.8 614.2,164.7 614.6,161.6 615.0,159.7 615.5,167.4 615.9,166.9 616.3,166.1 616.7,161.5 617.1,164.3 617.5,176.4 618.0,177.3 618.4,171.2 618.8,169.7 619.2,170.2 619.6,160.3 620.1,159.7 620.5,160.3 620.9,146.7 621.3,150.1 621.7,147.5 622.1,169.4 622.6,175.3 623.0,168.8 623.4,159.9 623.8,165.9 624.2,157.9 624.6,154.2 625.1,137.6 625.5,139.3 625.9,140.2 626.3,135.5 626.7,138.9 627.2,135.5 627.6,131.5 628.0,137.0 628.4,130.8 628.8,134.5 629.2,138.8 629.7,140.5 630.1,140.8 630.5,141.0 630.9,137.9 631.3,138.2 631.8,144.9 632.2,151.1 632.6,151.6 633.0,147.5 633.4,146.0 633.8,145.1 634.3,150.5 634.7,154.7 635.1,157.8 635.5,154.6 635.9,150.3 636.4,149.5 636.8,147.3 637.2,153.0 637.6,154.0 638.0,152.5 638.4,151.5 638.9,146.8 639.3,146.6 639.7,146.8 640.1,141.5 640.5,141.8 640.9,138.8 641.4,138.8 641.8,139.7 642.2,137.1 642.6,136.3 643.0,131.4 643.5,124.1 643.9,120.7 644.3,115.1 644.7,114.5 645.1,117.7 645.5,113.8 646.0,109.9 646.4,112.0 646.8,107.2 647.2,88.1 647.6,86.4 648.1,89.0 648.5,76.5 648.9,79.1 649.3,102.4 649.7,99.2 650.1,118.9 650.6,115.0 651.0,116.1 651.4,109.3 651.8,117.3 652.2,117.7 652.7,116.9 653.1,130.4 653.5,126.9 653.9,130.2 654.3,129.7 654.7,131.4 655.2,137.1 655.6,133.3 656.0,129.7 656.4,137.3 656.8,131.6 657.2,133.9 657.7,129.6 658.1,123.8 658.5,124.6 658.9,132.8 659.3,136.2 659.8,143.3 660.2,142.2 660.6,138.4 661.0,137.9 661.4,146.4 661.8,152.2 662.3,147.0 662.7,151.9 663.1,142.4 663.5,149.8 663.9,148.6 664.4,145.5 664.8,142.4 665.2,149.4 665.6,148.6 666.0,152.7 666.4,154.1 666.9,150.1 667.3,146.0 667.7,146.2 668.1,145.1 668.5,128.9 668.9,133.4 669.4,126.5 669.8,117.0 670.2,115.1 670.6,102.1 671.0,97.7 671.5,99.1 671.9,98.3 672.3,93.5 672.7,82.0 673.1,85.6 673.5,88.9 674.0,81.2 674.4,84.1 674.8,85.5 675.2,89.7 675.6,96.0 676.1,94.1 676.5,96.2 676.9,96.2 677.3,97.6 677.7,91.7 678.1,91.4 678.6,94.2 679.0,95.8 679.4,97.1 679.8,92.0 680.2,91.2 680.7,93.5 681.1,90.3 681.5,90.8 681.9,93.2 682.3,87.3 682.7,88.0 683.2,85.7 683.6,81.8 684.0,114.9 684.4,113.1 684.8,115.9 685.2,107.3 685.7,102.2 686.1,101.5 686.5,104.5 686.9,105.3 687.3,104.5 687.8,103.8 688.2,102.9 688.6,99.3 689.0,100.8 689.4,104.6 689.8,98.2 690.3,100.5 690.7,98.4 691.1,101.3 691.5,100.7 691.9,105.1 692.4,101.2 692.8,89.7 693.2,90.6 693.6,90.2 694.0,88.8 694.4,86.7 694.9,80.2 695.3,79.4 695.7,83.8 696.1,82.8 696.5,93.1 697.0,99.5 697.4,99.6 697.8,98.3 698.2,101.3 698.6,104.5 699.0,103.9 699.5,105.9 699.9,107.7 700.3,109.3 700.7,114.5 701.1,112.3 701.5,111.3 702.0,110.2 702.4,113.0 702.8,108.9 703.2,111.2 703.6,111.0 704.1,114.2 704.5,115.7 704.9,110.4 705.3,104.3 705.7,103.8 706.1,101.8 706.6,104.8 707.0,104.8 707.4,98.6 707.8,93.1 708.2,95.3 708.7,99.9 709.1,100.7 709.5,92.1 709.9,89.9 710.3,90.1 710.7,92.4 711.2,96.3 711.6,94.0 712.0,89.2 712.4,88.2 712.8,91.4 713.3,92.0 713.7,89.9 714.1,97.4 714.5,94.2 714.9,89.7 715.3,89.5 715.8,89.4 716.2,95.3 716.6,94.2 717.0,95.2 717.4,83.6 717.8,88.2 718.3,101.6 718.7,99.2 719.1,102.3 719.5,105.3 719.9,103.6 720.4,103.2 720.8,104.1 721.2,105.9 721.6,106.7 722.0,111.1 722.4,108.7 722.9,110.5 723.3,113.4 723.7,111.7 724.1,115.7 724.5,116.6 725.0,116.6 725.4,119.1 725.8,120.6 726.2,126.7 726.6,124.7 727.0,127.7 727.5,126.3 727.9,127.2 728.3,132.2 728.7,129.7 729.1,123.1 729.5,124.5 730.0,121.8 730.4,119.1 730.8,123.6 731.2,126.2 731.6,124.6 732.1,118.6 732.5,120.2 732.9,120.4 733.3,119.0 733.7,122.9 734.1,123.1 734.6,124.3 735.0,126.3 735.4,125.0 735.8,129.1 736.2,129.5 736.7,127.8 737.1,128.9 737.5,129.5 737.9,129.8 738.3,130.6 738.7,131.1 739.2,133.5 739.6,134.9 740.0,132.6 740.4,129.7 740.8,128.0 741.3,128.0 741.7,131.6 742.1,136.8 742.5,135.2 742.9,135.5 743.3,137.7 743.8,137.9 744.2,137.5 744.6,139.8 745.0,144.0 745.4,139.7 745.8,142.0 746.3,140.3 746.7,141.9 747.1,144.6 747.5,141.4 747.9,149.0 748.4,150.9 748.8,153.6 749.2,157.1 749.6,160.1 750.0,161.7 750.4,175.3 750.9,184.2 751.3,186.7 751.7,191.0 752.1,188.5 752.5,188.7 753.0,190.8 753.4,190.9 753.8,191.8 754.2,192.4 754.6,192.7 755.0,190.9 755.5,192.0 755.9,197.5 756.3,187.7 756.7,190.9 757.1,187.8 757.6,190.6 758.0,191.3 758.4,164.6 758.8,160.1 759.2,152.5 759.6,158.9 760.1,155.9 760.5,155.6 760.9,155.3 761.3,161.2 761.7,157.9 762.1,165.1 762.6,163.6 763.0,167.6 763.4,169.4 763.8,169.3 764.2,175.1 764.7,177.5 765.1,169.7 765.5,173.2 765.9,176.0 766.3,171.3 766.7,174.6 767.2,175.0 767.6,173.6 768.0,174.9 768.4,168.3 768.8,167.5 769.3,157.5 769.7,149.3 770.1,144.2 770.5,138.5 770.9,141.7 771.3,143.6 771.8,146.0 772.2,139.6 772.6,142.6 773.0,146.7 773.4,151.2 773.8,148.7 774.3,148.1 774.7,148.5 775.1,151.2 775.5,149.6 775.9,153.2 776.4,145.7 776.8,143.3 777.2,155.1 777.6,158.0 778.0,157.6 778.4,155.1 778.9,164.2 779.3,163.6 779.7,161.6 780.1,158.4 780.5,159.2 781.0,158.9 781.4,154.6 781.8,154.1 782.2,151.7 782.6,147.1 783.0,147.8 783.5,147.8 783.9,146.4 784.3,151.6 784.7,148.7 785.1,143.7 785.6,147.0 786.0,144.0 786.4,149.8 786.8,140.6 787.2,137.3 787.6,136.3 788.1,128.0 788.5,132.3 788.9,133.7 789.3,134.3 789.7,134.3 790.1,131.4 790.6,132.7 791.0,129.8 791.4,123.5 791.8,125.1 792.2,122.1 792.7,126.5 793.1,126.7 793.5,128.0 793.9,130.4 794.3,130.4 794.7,128.7 795.2,124.3 795.6,132.0 796.0,134.0"/><polyline fill="none" stroke="#16a34a" stroke-width="3" points="78.0,228.2 78.4,228.2 78.8,228.2 79.3,228.2 79.7,227.0 80.1,227.0 80.5,227.0 80.9,227.0 81.3,227.0 81.8,227.4 82.2,227.6 82.6,227.6 83.0,227.6 83.4,227.6 83.9,227.7 84.3,227.7 84.7,227.8 85.1,227.8 85.5,227.8 85.9,228.0 86.4,228.0 86.8,228.0 87.2,227.8 87.6,227.8 88.0,227.8 88.4,227.8 88.9,227.8 89.3,227.8 89.7,227.8 90.1,227.8 90.5,227.8 91.0,227.8 91.4,227.9 91.8,227.8 92.2,227.9 92.6,227.9 93.0,227.8 93.5,227.7 93.9,227.7 94.3,227.7 94.7,227.6 95.1,227.6 95.6,227.6 96.0,227.6 96.4,227.8 96.8,227.4 97.2,227.4 97.6,227.4 98.1,227.2 98.5,227.2 98.9,227.3 99.3,227.3 99.7,227.2 100.2,227.2 100.6,227.2 101.0,227.2 101.4,227.2 101.8,227.8 102.2,227.4 102.7,227.4 103.1,228.1 103.5,228.1 103.9,228.1 104.3,228.1 104.7,227.7 105.2,227.4 105.6,227.4 106.0,227.7 106.4,227.7 106.8,227.4 107.3,227.4 107.7,227.4 108.1,227.4 108.5,227.4 108.9,227.4 109.3,227.4 109.8,227.4 110.2,227.4 110.6,227.4 111.0,227.2 111.4,227.1 111.9,227.0 112.3,227.0 112.7,227.0 113.1,227.0 113.5,226.6 113.9,226.6 114.4,226.2 114.8,226.0 115.2,226.0 115.6,226.0 116.0,226.2 116.4,226.2 116.9,226.2 117.3,226.0 117.7,226.5 118.1,226.2 118.5,226.2 119.0,226.2 119.4,226.2 119.8,226.2 120.2,226.2 120.6,226.3 121.0,226.5 121.5,225.4 121.9,225.4 122.3,225.8 122.7,225.8 123.1,225.8 123.6,225.8 124.0,225.8 124.4,225.8 124.8,225.8 125.2,225.8 125.6,225.8 126.1,226.3 126.5,226.3 126.9,226.3 127.3,225.7 127.7,225.9 128.2,225.9 128.6,226.5 129.0,226.8 129.4,227.1 129.8,227.8 130.2,227.8 130.7,229.4 131.1,230.1 131.5,231.1 131.9,230.9 132.3,230.9 132.7,231.4 133.2,230.0 133.6,230.0 134.0,228.5 134.4,228.5 134.8,227.4 135.3,226.6 135.7,226.9 136.1,227.3 136.5,227.8 136.9,227.9 137.3,228.2 137.8,227.8 138.2,227.8 138.6,227.8 139.0,227.7 139.4,227.6 139.9,227.1 140.3,227.8 140.7,227.8 141.1,227.8 141.5,227.4 141.9,227.5 142.4,226.8 142.8,227.2 143.2,226.8 143.6,226.8 144.0,226.8 144.5,226.7 144.9,226.7 145.3,226.6 145.7,226.7 146.1,226.7 146.5,226.7 147.0,227.4 147.4,226.8 147.8,226.6 148.2,226.4 148.6,227.1 149.0,226.8 149.5,227.0 149.9,227.1 150.3,227.1 150.7,226.7 151.1,226.3 151.6,227.4 152.0,227.4 152.4,227.1 152.8,227.0 153.2,226.7 153.6,226.7 154.1,226.4 154.5,226.4 154.9,226.4 155.3,226.5 155.7,226.2 156.2,226.4 156.6,226.5 157.0,226.2 157.4,226.2 157.8,226.2 158.2,225.9 158.7,225.8 159.1,225.5 159.5,225.5 159.9,225.3 160.3,225.3 160.7,225.2 161.2,225.0 161.6,225.3 162.0,225.0 162.4,223.8 162.8,223.4 163.3,223.2 163.7,224.4 164.1,224.4 164.5,223.2 164.9,223.8 165.3,223.6 165.8,223.1 166.2,223.1 166.6,223.1 167.0,223.2 167.4,222.1 167.9,222.4 168.3,223.1 168.7,222.0 169.1,222.6 169.5,223.3 169.9,224.1 170.4,224.1 170.8,224.3 171.2,223.5 171.6,224.5 172.0,224.5 172.5,224.5 172.9,224.5 173.3,222.1 173.7,222.0 174.1,221.9 174.5,221.4 175.0,221.0 175.4,221.0 175.8,221.7 176.2,222.6 176.6,222.8 177.0,222.2 177.5,223.2 177.9,222.8 178.3,222.8 178.7,222.3 179.1,223.2 179.6,222.9 180.0,221.0 180.4,221.2 180.8,221.4 181.2,221.0 181.6,221.0 182.1,220.2 182.5,219.3 182.9,219.4 183.3,219.2 183.7,218.8 184.2,217.8 184.6,217.8 185.0,217.8 185.4,219.2 185.8,219.2 186.2,220.8 186.7,221.7 187.1,220.4 187.5,217.4 187.9,215.0 188.3,214.0 188.8,220.6 189.2,222.7 189.6,224.1 190.0,225.0 190.4,224.7 190.8,223.9 191.3,222.9 191.7,223.5 192.1,223.0 192.5,223.0 192.9,222.9 193.3,223.5 193.8,223.5 194.2,224.0 194.6,224.7 195.0,225.0 195.4,225.1 195.9,225.7 196.3,226.0 196.7,226.4 197.1,226.1 197.5,225.0 197.9,225.4 198.4,225.3 198.8,225.2 199.2,225.4 199.6,225.8 200.0,225.9 200.5,225.7 200.9,225.5 201.3,225.7 201.7,225.5 202.1,225.6 202.5,225.4 203.0,225.7 203.4,224.9 203.8,224.8 204.2,224.7 204.6,224.7 205.1,224.7 205.5,223.2 205.9,222.6 206.3,220.8 206.7,222.6 207.1,220.5 207.6,219.9 208.0,213.6 208.4,213.8 208.8,212.1 209.2,210.4 209.6,213.1 210.1,209.2 210.5,211.8 210.9,209.8 211.3,210.7 211.7,212.1 212.2,209.4 212.6,203.6 213.0,195.1 213.4,195.1 213.8,195.4 214.2,193.2 214.7,196.3 215.1,197.1 215.5,191.6 215.9,193.3 216.3,191.4 216.8,190.3 217.2,184.3 217.6,183.7 218.0,184.4 218.4,184.3 218.8,183.2 219.3,180.6 219.7,185.6 220.1,188.2 220.5,192.8 220.9,194.0 221.3,202.8 221.8,196.7 222.2,206.1 222.6,187.3 223.0,176.6 223.4,164.8 223.9,172.5 224.3,166.1 224.7,164.6 225.1,158.4 225.5,156.9 225.9,160.0 226.4,164.3 226.8,167.4 227.2,163.6 227.6,164.6 228.0,168.7 228.5,176.6 228.9,175.5 229.3,182.0 229.7,182.8 230.1,186.0 230.5,194.9 231.0,197.3 231.4,193.9 231.8,189.9 232.2,194.9 232.6,202.9 233.1,204.0 233.5,206.3 233.9,202.8 234.3,204.8 234.7,195.0 235.1,191.1 235.6,189.3 236.0,188.2 236.4,191.8 236.8,189.9 237.2,197.9 237.6,203.3 238.1,204.8 238.5,205.9 238.9,206.0 239.3,203.7 239.7,207.4 240.2,208.5 240.6,204.8 241.0,202.6 241.4,199.9 241.8,202.0 242.2,205.9 242.7,206.5 243.1,206.3 243.5,209.1 243.9,211.6 244.3,210.5 244.8,206.8 245.2,210.5 245.6,217.7 246.0,227.4 246.4,217.1 246.8,219.2 247.3,216.2 247.7,212.6 248.1,212.1 248.5,210.1 248.9,210.7 249.4,210.0 249.8,214.7 250.2,216.0 250.6,215.8 251.0,221.1 251.4,220.6 251.9,224.1 252.3,227.4 252.7,235.0 253.1,242.4 253.5,236.2 253.9,233.0 254.4,226.2 254.8,222.3 255.2,216.2 255.6,207.3 256.0,212.1 256.5,214.7 256.9,209.9 257.3,200.9 257.7,198.1 258.1,205.0 258.5,202.1 259.0,200.7 259.4,200.5 259.8,196.2 260.2,193.2 260.6,203.5 261.1,207.1 261.5,211.0 261.9,206.8 262.3,211.9 262.7,213.9 263.1,214.8 263.6,218.5 264.0,217.8 264.4,219.9 264.8,218.3 265.2,221.0 265.6,221.7 266.1,219.9 266.5,221.4 266.9,219.9 267.3,219.4 267.7,223.7 268.2,222.3 268.6,221.1 269.0,224.2 269.4,225.7 269.8,222.3 270.2,226.8 270.7,232.6 271.1,228.4 271.5,233.7 271.9,230.1 272.3,237.5 272.8,236.2 273.2,239.3 273.6,238.3 274.0,242.1 274.4,242.0 274.8,240.7 275.3,244.6 275.7,244.8 276.1,243.3 276.5,242.3 276.9,242.9 277.4,242.9 277.8,242.5 278.2,241.8 278.6,245.5 279.0,248.3 279.4,240.3 279.9,240.4 280.3,249.3 280.7,255.4 281.1,250.3 281.5,256.5 281.9,253.1 282.4,251.3 282.8,246.6 283.2,248.9 283.6,249.2 284.0,246.6 284.5,244.0 284.9,245.1 285.3,242.8 285.7,240.7 286.1,241.9 286.5,238.3 287.0,239.0 287.4,234.3 287.8,237.3 288.2,235.9 288.6,237.8 289.1,237.8 289.5,238.2 289.9,237.2 290.3,243.5 290.7,241.5 291.1,241.7 291.6,241.7 292.0,243.0 292.4,240.5 292.8,245.7 293.2,248.7 293.7,248.6 294.1,251.1 294.5,251.7 294.9,250.7 295.3,250.5 295.7,249.6 296.2,250.2 296.6,249.2 297.0,244.4 297.4,240.6 297.8,239.6 298.2,240.5 298.7,244.4 299.1,241.5 299.5,241.1 299.9,239.6 300.3,248.1 300.8,244.5 301.2,246.2 301.6,249.6 302.0,244.8 302.4,245.9 302.8,241.9 303.3,242.7 303.7,241.5 304.1,240.7 304.5,240.8 304.9,239.7 305.4,241.3 305.8,243.8 306.2,246.9 306.6,250.0 307.0,242.3 307.4,242.1 307.9,242.8 308.3,249.9 308.7,251.0 309.1,252.7 309.5,257.8 309.9,256.0 310.4,255.7 310.8,256.6 311.2,259.5 311.6,264.4 312.0,266.0 312.5,267.9 312.9,266.1 313.3,261.5 313.7,259.5 314.1,262.9 314.5,265.1 315.0,267.8 315.4,273.1 315.8,261.9 316.2,264.7 316.6,260.9 317.1,263.9 317.5,260.9 317.9,260.4 318.3,258.4 318.7,259.1 319.1,261.1 319.6,265.3 320.0,261.6 320.4,259.5 320.8,257.2 321.2,260.1 321.7,267.9 322.1,269.9 322.5,269.8 322.9,272.0 323.3,269.4 323.7,272.0 324.2,276.8 324.6,276.2 325.0,280.9 325.4,282.9 325.8,283.4 326.2,283.9 326.7,286.5 327.1,286.4 327.5,289.3 327.9,294.3 328.3,291.9 328.8,282.5 329.2,282.3 329.6,284.9 330.0,290.0 330.4,289.8 330.8,286.0 331.3,286.0 331.7,281.3 332.1,282.0 332.5,285.0 332.9,287.9 333.4,282.6 333.8,283.9 334.2,289.3 334.6,290.5 335.0,294.1 335.4,284.6 335.9,280.4 336.3,276.0 336.7,277.2 337.1,279.8 337.5,277.4 338.0,282.3 338.4,287.1 338.8,291.8 339.2,292.5 339.6,285.0 340.0,288.1 340.5,289.3 340.9,299.9 341.3,291.6 341.7,287.7 342.1,281.3 342.5,279.0 343.0,280.4 343.4,276.6 343.8,276.3 344.2,276.5 344.6,278.0 345.1,278.1 345.5,275.3 345.9,275.7 346.3,275.6 346.7,276.0 347.1,273.0 347.6,277.7 348.0,279.8 348.4,280.4 348.8,284.1 349.2,284.2 349.7,282.3 350.1,280.2 350.5,279.6 350.9,283.3 351.3,279.0 351.7,282.0 352.2,286.9 352.6,286.2 353.0,283.4 353.4,286.2 353.8,288.9 354.3,290.3 354.7,294.0 355.1,291.8 355.5,291.8 355.9,291.4 356.3,294.3 356.8,298.1 357.2,303.8 357.6,309.0 358.0,317.5 358.4,315.3 358.8,309.5 359.3,309.0 359.7,304.2 360.1,310.4 360.5,307.2 360.9,308.1 361.4,307.7 361.8,310.1 362.2,306.4 362.6,304.0 363.0,296.4 363.4,297.2 363.9,297.4 364.3,293.2 364.7,296.8 365.1,295.1 365.5,297.0 366.0,294.1 366.4,299.5 366.8,300.9 367.2,302.8 367.6,301.3 368.0,296.6 368.5,296.0 368.9,291.4 369.3,290.9 369.7,291.2 370.1,287.2 370.5,287.4 371.0,284.4 371.4,287.1 371.8,286.4 372.2,288.2 372.6,283.9 373.1,279.3 373.5,278.0 373.9,271.6 374.3,271.7 374.7,274.9 375.1,275.1 375.6,274.3 376.0,274.1 376.4,273.0 376.8,272.9 377.2,269.8 377.7,265.6 378.1,263.3 378.5,268.6 378.9,268.1 379.3,270.9 379.7,269.4 380.2,265.5 380.6,263.9 381.0,263.4 381.4,261.1 381.8,259.9 382.3,260.4 382.7,259.5 383.1,258.1 383.5,262.2 383.9,256.4 384.3,253.4 384.8,252.7 385.2,251.9 385.6,254.8 386.0,257.4 386.4,261.6 386.8,266.6 387.3,266.1 387.7,266.5 388.1,263.4 388.5,261.6 388.9,266.1 389.4,265.3 389.8,263.2 390.2,261.8 390.6,263.2 391.0,265.2 391.4,266.6 391.9,260.0 392.3,258.9 392.7,258.0 393.1,258.5 393.5,265.8 394.0,264.6 394.4,266.0 394.8,267.9 395.2,269.3 395.6,270.1 396.0,270.6 396.5,273.6 396.9,275.3 397.3,275.9 397.7,274.9 398.1,270.4 398.6,271.9 399.0,272.0 399.4,272.3 399.8,270.4 400.2,270.4 400.6,271.0 401.1,274.9 401.5,280.7 401.9,279.8 402.3,280.7 402.7,280.9 403.1,284.2 403.6,291.6 404.0,290.7 404.4,296.2 404.8,292.7 405.2,291.0 405.7,294.7 406.1,291.8 406.5,290.0 406.9,291.6 407.3,288.9 407.7,288.1 408.2,288.4 408.6,292.7 409.0,294.1 409.4,293.2 409.8,286.7 410.3,272.7 410.7,272.9 411.1,264.4 411.5,268.6 411.9,266.0 412.3,263.9 412.8,269.3 413.2,268.7 413.6,269.3 414.0,267.7 414.4,267.8 414.8,262.9 415.3,264.9 415.7,265.6 416.1,268.1 416.5,263.9 416.9,261.6 417.4,258.8 417.8,257.7 418.2,258.7 418.6,254.4 419.0,251.6 419.4,252.8 419.9,252.4 420.3,250.6 420.7,252.3 421.1,255.5 421.5,257.1 422.0,257.9 422.4,258.4 422.8,257.1 423.2,260.0 423.6,261.0 424.0,263.4 424.5,264.2 424.9,261.6 425.3,261.2 425.7,262.3 426.1,258.8 426.6,265.1 427.0,264.7 427.4,260.6 427.8,257.0 428.2,257.4 428.6,253.3 429.1,248.7 429.5,247.1 429.9,246.6 430.3,249.2 430.7,251.5 431.1,247.6 431.6,247.5 432.0,249.7 432.4,248.1 432.8,246.4 433.2,249.5 433.7,241.3 434.1,244.0 434.5,240.9 434.9,245.0 435.3,245.5 435.7,239.7 436.2,239.9 436.6,234.2 437.0,229.7 437.4,230.1 437.8,227.8 438.3,226.3 438.7,229.6 439.1,229.5 439.5,231.9 439.9,232.3 440.3,229.4 440.8,228.4 441.2,229.4 441.6,217.3 442.0,215.5 442.4,223.9 442.9,223.8 443.3,226.0 443.7,228.4 444.1,227.5 444.5,230.3 444.9,235.0 445.4,235.7 445.8,237.6 446.2,234.7 446.6,227.0 447.0,228.6 447.4,229.3 447.9,226.3 448.3,229.0 448.7,231.3 449.1,230.3 449.5,230.3 450.0,227.3 450.4,226.3 450.8,227.3 451.2,227.2 451.6,224.2 452.0,225.9 452.5,228.4 452.9,227.0 453.3,228.2 453.7,230.2 454.1,229.5 454.6,226.2 455.0,228.5 455.4,226.8 455.8,219.2 456.2,217.8 456.6,220.2 457.1,214.5 457.5,213.6 457.9,217.8 458.3,217.8 458.7,215.4 459.2,215.1 459.6,212.3 460.0,214.5 460.4,213.3 460.8,214.2 461.2,212.1 461.7,213.4 462.1,221.7 462.5,221.3 462.9,222.3 463.3,220.5 463.7,220.8 464.2,222.9 464.6,222.0 465.0,224.5 465.4,228.4 465.8,230.6 466.3,233.1 466.7,236.4 467.1,234.5 467.5,234.2 467.9,235.8 468.3,235.3 468.8,235.7 469.2,234.8 469.6,235.2 470.0,233.2 470.4,233.4 470.9,233.5 471.3,234.8 471.7,234.9 472.1,234.4 472.5,237.7 472.9,236.5 473.4,237.9 473.8,240.6 474.2,240.0 474.6,240.7 475.0,240.0 475.4,241.8 475.9,240.8 476.3,239.5 476.7,234.0 477.1,231.4 477.5,233.8 478.0,235.7 478.4,237.9 478.8,241.4 479.2,238.2 479.6,238.0 480.0,237.7 480.5,233.8 480.9,236.0 481.3,233.8 481.7,233.8 482.1,235.7 482.6,240.6 483.0,241.5 483.4,240.7 483.8,241.1 484.2,241.5 484.6,240.1 485.1,238.0 485.5,235.0 485.9,236.9 486.3,240.3 486.7,242.0 487.2,242.5 487.6,244.9 488.0,249.6 488.4,250.9 488.8,252.3 489.2,252.2 489.7,253.0 490.1,252.4 490.5,254.4 490.9,255.3 491.3,256.5 491.7,254.4 492.2,257.3 492.6,255.6 493.0,257.7 493.4,256.5 493.8,256.0 494.3,255.0 494.7,255.0 495.1,257.7 495.5,256.0 495.9,255.6 496.3,255.4 496.8,257.1 497.2,259.8 497.6,259.8 498.0,260.6 498.4,261.8 498.9,262.6 499.3,262.4 499.7,262.1 500.1,263.3 500.5,263.9 500.9,264.9 501.4,266.2 501.8,264.9 502.2,264.3 502.6,263.6 503.0,261.8 503.5,262.7 503.9,260.7 504.3,263.7 504.7,263.8 505.1,262.4 505.5,261.8 506.0,262.4 506.4,261.9 506.8,261.7 507.2,263.6 507.6,263.2 508.0,262.8 508.5,262.2 508.9,264.7 509.3,265.7 509.7,266.4 510.1,263.9 510.6,263.1 511.0,264.3 511.4,265.3 511.8,269.3 512.2,269.3 512.6,266.6 513.1,267.8 513.5,265.3 513.9,260.4 514.3,262.8 514.7,254.7 515.2,254.1 515.6,258.6 516.0,256.5 516.4,254.4 516.8,250.5 517.2,246.8 517.7,246.8 518.1,249.3 518.5,246.5 518.9,248.2 519.3,243.1 519.7,241.8 520.2,241.4 520.6,240.2 521.0,237.3 521.4,235.7 521.8,236.3 522.3,235.7 522.7,236.2 523.1,235.7 523.5,237.2 523.9,238.0 524.3,236.5 524.8,239.8 525.2,237.6 525.6,237.3 526.0,239.7 526.4,238.0 526.9,237.0 527.3,240.7 527.7,238.3 528.1,238.4 528.5,237.5 528.9,235.5 529.4,234.5 529.8,235.7 530.2,229.4 530.6,234.4 531.0,239.5 531.5,240.6 531.9,236.4 532.3,238.9 532.7,238.1 533.1,236.9 533.5,238.6 534.0,239.6 534.4,240.1 534.8,240.0 535.2,240.9 535.6,237.5 536.0,237.0 536.5,235.3 536.9,234.0 537.3,236.4 537.7,234.6 538.1,236.0 538.6,238.5 539.0,235.6 539.4,235.9 539.8,238.7 540.2,231.2 540.6,231.1 541.1,227.8 541.5,227.6 541.9,227.0 542.3,230.7 542.7,226.7 543.2,226.2 543.6,226.3 544.0,229.7 544.4,231.3 544.8,231.0 545.2,230.4 545.7,224.7 546.1,203.6 546.5,204.2 546.9,205.9 547.3,205.4 547.8,196.6 548.2,199.1 548.6,200.4 549.0,198.5 549.4,198.9 549.8,197.8 550.3,197.0 550.7,194.4 551.1,198.2 551.5,197.0 551.9,191.6 552.3,191.8 552.8,187.7 553.2,186.5 553.6,188.4 554.0,188.5 554.4,190.9 554.9,191.3 555.3,192.6 555.7,191.7 556.1,195.1 556.5,192.4 556.9,196.7 557.4,197.6 557.8,195.6 558.2,197.4 558.6,197.4 559.0,197.1 559.5,200.6 559.9,204.8 560.3,208.0 560.7,209.8 561.1,210.2 561.5,213.0 562.0,213.2 562.4,210.3 562.8,210.2 563.2,210.7 563.6,209.2 564.1,208.9 564.5,209.0 564.9,209.1 565.3,210.8 565.7,217.3 566.1,214.7 566.6,210.1 567.0,211.4 567.4,206.6 567.8,210.5 568.2,206.8 568.6,201.8 569.1,201.3 569.5,200.2 569.9,197.3 570.3,178.3 570.7,182.7 571.2,189.2 571.6,190.8 572.0,185.8 572.4,176.2 572.8,174.3 573.2,171.2 573.7,174.9 574.1,170.7 574.5,169.4 574.9,166.1 575.3,166.7 575.8,169.6 576.2,166.5 576.6,165.0 577.0,159.5 577.4,157.2 577.8,159.2 578.3,157.9 578.7,155.9 579.1,163.8 579.5,164.7 579.9,164.7 580.3,161.2 580.8,166.8 581.2,172.5 581.6,171.9 582.0,167.3 582.4,168.0 582.9,170.7 583.3,169.6 583.7,170.6 584.1,170.0 584.5,171.8 584.9,168.6 585.4,166.2 585.8,162.3 586.2,161.4 586.6,165.2 587.0,171.2 587.5,174.9 587.9,171.3 588.3,162.5 588.7,163.4 589.1,160.9 589.5,166.0 590.0,166.2 590.4,168.1 590.8,167.9 591.2,178.6 591.6,182.6 592.1,181.5 592.5,185.8 592.9,189.8 593.3,190.7 593.7,190.2 594.1,190.1 594.6,190.1 595.0,192.8 595.4,191.4 595.8,192.1 596.2,187.3 596.6,187.4 597.1,187.3 597.5,187.8 597.9,186.5 598.3,189.7 598.7,195.8 599.2,196.9 599.6,196.4 600.0,196.4 600.4,197.6 600.8,197.1 601.2,198.0 601.7,202.4 602.1,200.5 602.5,197.5 602.9,193.6 603.3,190.9 603.8,187.3 604.2,188.6 604.6,189.5 605.0,188.5 605.4,185.6 605.8,188.5 606.3,187.9 606.7,184.0 607.1,184.1 607.5,182.1 607.9,181.8 608.4,179.0 608.8,175.3 609.2,176.8 609.6,184.7 610.0,182.3 610.4,174.8 610.9,177.6 611.3,177.7 611.7,181.5 612.1,177.9 612.5,170.7 612.9,162.4 613.4,163.9 613.8,166.8 614.2,164.7 614.6,161.6 615.0,159.7 615.5,167.4 615.9,166.9 616.3,166.1 616.7,161.5 617.1,164.3 617.5,176.4 618.0,177.3 618.4,171.2 618.8,169.7 619.2,170.2 619.6,160.3 620.1,159.7 620.5,160.3 620.9,146.7 621.3,150.1 621.7,147.5 622.1,169.4 622.6,175.3 623.0,168.8 623.4,159.9 623.8,165.9 624.2,157.9 624.6,154.2 625.1,137.6 625.5,139.3 625.9,140.2 626.3,135.5 626.7,138.9 627.2,135.5 627.6,131.5 628.0,137.0 628.4,130.8 628.8,134.5 629.2,138.8 629.7,140.5 630.1,140.8 630.5,141.0 630.9,137.9 631.3,138.2 631.8,144.9 632.2,151.1 632.6,151.6 633.0,147.5 633.4,146.0 633.8,145.1 634.3,150.5 634.7,154.7 635.1,157.8 635.5,154.6 635.9,150.3 636.4,149.5 636.8,147.3 637.2,153.0 637.6,154.0 638.0,152.5 638.4,151.5 638.9,146.8 639.3,146.6 639.7,146.8 640.1,141.5 640.5,141.8 640.9,138.8 641.4,138.8 641.8,139.7 642.2,137.1 642.6,136.3 643.0,131.4 643.5,124.1 643.9,120.7 644.3,115.1 644.7,114.5 645.1,117.7 645.5,113.8 646.0,109.9 646.4,112.0 646.8,107.2 647.2,88.1 647.6,86.4 648.1,89.0 648.5,76.5 648.9,79.1 649.3,102.4 649.7,99.2 650.1,118.9 650.6,115.0 651.0,116.1 651.4,109.3 651.8,117.3 652.2,117.7 652.7,116.9 653.1,130.4 653.5,126.9 653.9,130.2 654.3,129.7 654.7,131.4 655.2,137.1 655.6,133.3 656.0,129.7 656.4,137.3 656.8,131.6 657.2,133.9 657.7,129.6 658.1,123.8 658.5,124.6 658.9,132.8 659.3,136.2 659.8,143.3 660.2,142.2 660.6,138.4 661.0,137.9 661.4,146.4 661.8,152.2 662.3,147.0 662.7,151.9 663.1,142.4 663.5,149.8 663.9,148.6 664.4,145.5 664.8,142.4 665.2,149.4 665.6,148.6 666.0,152.7 666.4,154.1 666.9,150.1 667.3,146.0 667.7,146.2 668.1,145.1 668.5,128.9 668.9,133.4 669.4,126.5 669.8,117.0 670.2,115.1 670.6,102.1 671.0,97.7 671.5,99.1 671.9,98.3 672.3,93.5 672.7,82.0 673.1,85.6 673.5,88.9 674.0,81.2 674.4,84.1 674.8,85.5 675.2,89.7 675.6,96.0 676.1,94.1 676.5,96.2 676.9,96.2 677.3,97.6 677.7,91.7 678.1,91.4 678.6,94.2 679.0,95.8 679.4,97.1 679.8,92.0 680.2,91.2 680.7,93.5 681.1,90.3 681.5,90.8 681.9,93.2 682.3,87.3 682.7,88.0 683.2,85.7 683.6,81.8 684.0,114.9 684.4,113.1 684.8,115.9 685.2,107.3 685.7,102.2 686.1,101.5 686.5,104.5 686.9,105.3 687.3,104.5 687.8,103.8 688.2,102.9 688.6,99.3 689.0,100.8 689.4,104.6 689.8,98.2 690.3,100.5 690.7,98.4 691.1,101.3 691.5,100.7 691.9,105.1 692.4,101.2 692.8,89.7 693.2,90.6 693.6,90.2 694.0,88.8 694.4,86.7 694.9,80.2 695.3,79.4 695.7,83.8 696.1,82.8 696.5,93.1 697.0,99.5 697.4,99.6 697.8,98.3 698.2,101.3 698.6,104.5 699.0,103.9 699.5,105.9 699.9,107.7 700.3,109.3 700.7,114.5 701.1,112.3 701.5,111.3 702.0,110.2 702.4,113.0 702.8,108.9 703.2,111.2 703.6,111.0 704.1,114.2 704.5,115.7 704.9,110.4 705.3,104.3 705.7,103.8 706.1,101.8 706.6,104.8 707.0,104.8 707.4,98.6 707.8,93.1 708.2,95.3 708.7,99.9 709.1,100.7 709.5,92.1 709.9,89.9 710.3,90.1 710.7,92.4 711.2,96.3 711.6,94.0 712.0,89.2 712.4,88.2 712.8,91.4 713.3,92.0 713.7,89.9 714.1,97.4 714.5,94.2 714.9,89.7 715.3,89.5 715.8,89.4 716.2,95.3 716.6,94.2 717.0,95.2 717.4,83.6 717.8,88.2 718.3,101.6 718.7,99.2 719.1,102.3 719.5,105.3 719.9,103.6 720.4,103.2 720.8,104.1 721.2,105.9 721.6,106.7 722.0,111.1 722.4,108.7 722.9,110.5 723.3,113.4 723.7,111.7 724.1,115.7 724.5,116.6 725.0,116.6 725.4,119.1 725.8,120.6 726.2,126.7 726.6,124.7 727.0,127.7 727.5,126.3 727.9,127.2 728.3,132.2 728.7,129.7 729.1,123.1 729.5,124.5 730.0,121.8 730.4,119.1 730.8,123.6 731.2,126.2 731.6,124.6 732.1,118.6 732.5,120.2 732.9,120.4 733.3,119.0 733.7,122.9 734.1,123.1 734.6,124.3 735.0,126.3 735.4,125.0 735.8,129.1 736.2,129.5 736.7,127.8 737.1,128.9 737.5,129.5 737.9,129.8 738.3,130.6 738.7,131.1 739.2,133.5 739.6,134.9 740.0,132.6 740.4,129.7 740.8,128.0 741.3,128.0 741.7,131.6 742.1,136.8 742.5,135.2 742.9,135.5 743.3,137.7 743.8,137.9 744.2,137.5 744.6,139.8 745.0,144.0 745.4,139.7 745.8,142.0 746.3,140.3 746.7,141.9 747.1,144.6 747.5,141.4 747.9,149.0 748.4,150.9 748.8,153.6 749.2,157.1 749.6,160.1 750.0,161.7 750.4,175.3 750.9,184.2 751.3,186.7 751.7,191.0 752.1,188.5 752.5,188.7 753.0,190.8 753.4,190.9 753.8,191.8 754.2,192.4 754.6,192.7 755.0,190.9 755.5,192.0 755.9,197.5 756.3,187.7 756.7,190.9 757.1,187.8 757.6,190.6 758.0,191.3 758.4,164.6 758.8,160.1 759.2,152.5 759.6,158.9 760.1,155.9 760.5,155.6 760.9,155.3 761.3,161.2 761.7,157.9 762.1,165.1 762.6,163.6 763.0,167.6 763.4,169.4 763.8,169.3 764.2,175.1 764.7,177.5 765.1,169.7 765.5,173.2 765.9,176.0 766.3,171.3 766.7,174.6 767.2,175.0 767.6,173.6 768.0,174.9 768.4,168.3 768.8,167.5 769.3,157.5 769.7,149.3 770.1,144.2 770.5,138.5 770.9,141.7 771.3,143.6 771.8,146.0 772.2,139.6 772.6,142.6 773.0,146.7 773.4,151.2 773.8,148.7 774.3,148.1 774.7,148.5 775.1,151.2 775.5,149.6 775.9,153.2 776.4,145.7 776.8,143.3 777.2,155.1 777.6,158.0 778.0,157.6 778.4,155.1 778.9,164.2 779.3,163.6 779.7,161.6 780.1,158.4 780.5,159.2 781.0,158.9 781.4,154.6 781.8,154.1 782.2,151.7 782.6,147.1 783.0,147.8 783.5,147.8 783.9,146.4 784.3,151.6 784.7,148.7 785.1,143.7 785.6,147.0 786.0,144.0 786.4,149.8 786.8,140.6 787.2,137.3 787.6,136.3 788.1,128.0 788.5,132.3 788.9,133.7 789.3,134.3 789.7,134.3 790.1,131.4 790.6,132.7 791.0,129.8 791.4,123.5 791.8,125.1 792.2,122.1 792.7,126.5 793.1,126.7 793.5,128.0 793.9,130.4 794.3,130.4 794.7,128.7 795.2,124.3 795.6,132.0 796.0,134.0"/>
<text x="78" y="392" font-size="11" fill="#16a34a">Total return +235.1%</text><text x="268" y="392" font-size="11" fill="#2563eb">Price-only +235.1%</text><text x="78" y="362" font-size="11" text-anchor="middle" fill="#64748b">2019-09</text><text x="257" y="362" font-size="11" text-anchor="middle" fill="#64748b">2021-05</text><text x="437" y="362" font-size="11" text-anchor="middle" fill="#64748b">2023-02</text><text x="617" y="362" font-size="11" text-anchor="middle" fill="#64748b">2024-10</text><text x="796" y="362" font-size="11" text-anchor="middle" fill="#64748b">2026-07</text></svg>