<svg xmlns="http://www.w3.org/2000/svg" width="720" height="360" viewBox="0 0 720 360">
  <rect width="720" height="360" fill="#fafafa"/>
  <text x="56" y="22" font-size="13" font-family="sans-serif" fill="#222">CKX total return (rebased 100) · cumulative distributions $0.00/sh · market cap $21.7M</text>
  <line x1="56" y1="308" x2="696" y2="308" stroke="#ccc"/>
  <line x1="56" y1="48" x2="56" y2="308" stroke="#ccc"/>
  <polyline fill="none" stroke="#2563eb" stroke-width="2" points="56.0,183.7 58.7,182.2 61.4,202.7 64.0,217.8 66.7,136.6 69.4,164.8 72.1,174.0 74.7,141.3 77.4,173.8 80.1,160.1 82.8,160.1 85.5,148.3 88.1,142.7 90.8,164.8 93.5,174.2 96.2,182.2 98.8,186.0 101.5,201.3 104.2,197.1 106.9,197.8 109.6,202.5 112.2,202.5 114.9,150.7 117.6,159.9 120.3,163.2 122.9,149.5 125.6,183.7 128.3,207.2 131.0,202.5 133.7,158.9 136.3,206.0 139.0,219.0 141.7,201.5 144.4,209.5 147.0,162.5 149.7,181.5 152.4,213.8 155.1,199.0 157.8,205.1 160.4,190.7 163.1,204.4 165.8,200.1 168.5,195.4 171.1,203.4 173.8,182.5 176.5,189.5 179.2,177.1 181.9,200.1 184.5,217.8 187.2,189.5 189.9,223.9 192.6,219.0 195.2,183.7 197.9,194.0 200.6,189.5 203.3,189.3 206.0,171.9 208.6,150.5 211.3,191.9 214.0,177.8 216.7,173.3 219.3,194.7 222.0,182.7 224.7,189.5 227.4,209.5 230.1,210.7 232.7,214.3 235.4,201.8 238.1,174.2 240.8,183.2 243.4,190.7 246.1,141.3 248.8,65.9 251.5,151.9 254.2,151.4 256.8,159.2 259.5,148.3 262.2,154.2 264.9,122.9 267.5,173.8 270.2,144.6 272.9,166.7 275.6,148.3 278.3,114.2 280.9,126.2 283.6,147.2 286.3,127.9 289.0,139.4 291.6,142.4 294.3,125.5 297.0,136.6 299.7,133.0 302.4,120.1 305.0,127.1 307.7,122.0 310.4,84.5 313.1,89.5 315.7,102.0 318.4,91.8 321.1,103.6 323.8,108.1 326.5,95.4 329.1,124.8 331.8,116.1 334.5,128.8 337.2,131.1 339.8,119.4 342.5,135.9 345.2,154.0 347.9,214.3 350.6,224.6 353.2,203.0 355.9,223.0 358.6,243.9 361.3,246.7 363.9,258.5 366.6,230.7 369.3,211.4 372.0,200.1 374.7,211.0 377.3,209.1 380.0,220.6 382.7,219.0 385.4,221.3 388.1,227.9 390.7,217.8 393.4,219.0 396.1,206.0 398.8,197.8 401.4,203.9 404.1,196.6 406.8,207.2 409.5,199.4 412.2,227.2 414.8,228.4 417.5,216.6 420.2,230.7 422.9,238.3 425.5,235.9 428.2,233.3 430.9,234.3 433.6,236.6 436.3,230.7 438.9,225.3 441.6,224.9 444.3,230.7 447.0,240.2 449.6,223.0 452.3,232.9 455.0,235.2 457.7,230.7 460.4,233.1 463.0,242.3 465.7,238.0 468.4,243.7 471.1,248.4 473.7,235.9 476.4,234.3 479.1,236.2 481.8,256.2 484.5,257.8 487.1,258.5 489.8,249.6 492.5,254.5 495.2,277.8 497.8,280.2 500.5,290.1 503.2,286.3 505.9,270.3 508.6,238.3 511.2,242.5 513.9,254.5 516.6,260.2 519.3,254.0 521.9,234.0 524.6,208.4 527.3,173.1 530.0,209.8 532.7,183.7 535.3,185.1 538.0,196.6 540.7,208.4 543.4,212.4 546.0,198.7 548.7,198.5 551.4,214.3 554.1,205.3 556.8,195.4 559.4,221.1 562.1,204.6 564.8,214.3 567.5,215.9 570.1,217.8 572.8,215.2 575.5,220.6 578.2,225.1 580.9,226.7 583.5,243.7 586.2,242.7 588.9,237.8 591.6,255.9 594.2,247.9 596.9,245.1 599.6,242.7 602.3,239.0 605.0,190.7 607.6,169.1 610.3,179.9 613.0,182.5 615.7,172.8 618.3,166.2 621.0,167.2 623.7,167.2 626.4,147.2 629.1,161.0 631.7,160.1 634.4,167.4 637.1,160.6 639.8,150.2 642.4,172.8 645.1,190.7 647.8,181.3 650.5,212.1 653.2,195.7 655.8,198.5 658.5,230.3 661.2,221.3 663.9,226.0 666.5,195.2 669.2,206.7 671.9,215.7 674.6,230.5 677.3,254.8 679.9,262.5 682.6,220.1 685.3,221.3 688.0,234.3 690.6,207.9 693.3,227.7 696.0,228.6"/>
  <polyline fill="none" stroke="#16a34a" stroke-width="2" points="56.0,183.7 58.7,182.2 61.4,202.7 64.0,217.8 66.7,136.6 69.4,164.8 72.1,174.0 74.7,141.3 77.4,173.8 80.1,160.1 82.8,160.1 85.5,148.3 88.1,142.7 90.8,164.8 93.5,174.2 96.2,182.2 98.8,186.0 101.5,201.3 104.2,197.1 106.9,197.8 109.6,202.5 112.2,202.5 114.9,150.7 117.6,159.9 120.3,163.2 122.9,149.5 125.6,183.7 128.3,207.2 131.0,202.5 133.7,158.9 136.3,206.0 139.0,219.0 141.7,201.5 144.4,209.5 147.0,162.5 149.7,181.5 152.4,213.8 155.1,199.0 157.8,205.1 160.4,190.7 163.1,204.4 165.8,200.1 168.5,195.4 171.1,203.4 173.8,182.5 176.5,189.5 179.2,177.1 181.9,200.1 184.5,217.8 187.2,189.5 189.9,223.9 192.6,219.0 195.2,183.7 197.9,194.0 200.6,189.5 203.3,189.3 206.0,171.9 208.6,150.5 211.3,191.9 214.0,177.8 216.7,173.3 219.3,194.7 222.0,182.7 224.7,189.5 227.4,209.5 230.1,210.7 232.7,214.3 235.4,201.8 238.1,174.2 240.8,183.2 243.4,190.7 246.1,141.3 248.8,65.9 251.5,151.9 254.2,151.4 256.8,159.2 259.5,148.3 262.2,154.2 264.9,122.9 267.5,173.8 270.2,144.6 272.9,166.7 275.6,148.3 278.3,114.2 280.9,126.2 283.6,147.2 286.3,127.9 289.0,139.4 291.6,142.4 294.3,125.5 297.0,136.6 299.7,133.0 302.4,120.1 305.0,127.1 307.7,122.0 310.4,84.5 313.1,89.5 315.7,102.0 318.4,91.8 321.1,103.6 323.8,108.1 326.5,95.4 329.1,124.8 331.8,116.1 334.5,128.8 337.2,131.1 339.8,119.4 342.5,135.9 345.2,154.0 347.9,214.3 350.6,224.6 353.2,203.0 355.9,223.0 358.6,243.9 361.3,246.7 363.9,258.5 366.6,230.7 369.3,211.4 372.0,200.1 374.7,211.0 377.3,209.1 380.0,220.6 382.7,219.0 385.4,221.3 388.1,227.9 390.7,217.8 393.4,219.0 396.1,206.0 398.8,197.8 401.4,203.9 404.1,196.6 406.8,207.2 409.5,199.4 412.2,227.2 414.8,228.4 417.5,216.6 420.2,230.7 422.9,238.3 425.5,235.9 428.2,233.3 430.9,234.3 433.6,236.6 436.3,230.7 438.9,225.3 441.6,224.9 444.3,230.7 447.0,240.2 449.6,223.0 452.3,232.9 455.0,235.2 457.7,230.7 460.4,233.1 463.0,242.3 465.7,238.0 468.4,243.7 471.1,248.4 473.7,235.9 476.4,234.3 479.1,236.2 481.8,256.2 484.5,257.8 487.1,258.5 489.8,249.6 492.5,254.5 495.2,277.8 497.8,280.2 500.5,290.1 503.2,286.3 505.9,270.3 508.6,238.3 511.2,242.5 513.9,254.5 516.6,260.2 519.3,254.0 521.9,234.0 524.6,208.4 527.3,173.1 530.0,209.8 532.7,183.7 535.3,185.1 538.0,196.6 540.7,208.4 543.4,212.4 546.0,198.7 548.7,198.5 551.4,214.3 554.1,205.3 556.8,195.4 559.4,221.1 562.1,204.6 564.8,214.3 567.5,215.9 570.1,217.8 572.8,215.2 575.5,220.6 578.2,225.1 580.9,226.7 583.5,243.7 586.2,242.7 588.9,237.8 591.6,255.9 594.2,247.9 596.9,245.1 599.6,242.7 602.3,239.0 605.0,190.7 607.6,169.1 610.3,179.9 613.0,182.5 615.7,172.8 618.3,166.2 621.0,167.2 623.7,167.2 626.4,147.2 629.1,161.0 631.7,160.1 634.4,167.4 637.1,160.6 639.8,150.2 642.4,172.8 645.1,190.7 647.8,181.3 650.5,212.1 653.2,195.7 655.8,198.5 658.5,230.3 661.2,221.3 663.9,226.0 666.5,195.2 669.2,206.7 671.9,215.7 674.6,230.5 677.3,254.8 679.9,262.5 682.6,220.1 685.3,221.3 688.0,234.3 690.6,207.9 693.3,227.7 696.0,228.6"/>
  <text x="60" y="62" font-size="11" fill="#2563eb">Price index</text>
  <text x="146" y="62" font-size="11" fill="#16a34a">Total return (price + distributions)</text>
  <text x="56" y="348" font-size="11" text-anchor="middle" fill="#444">2006-07</text><text x="217" y="348" font-size="11" text-anchor="middle" fill="#444">2011-07</text><text x="377" y="348" font-size="11" text-anchor="middle" fill="#444">2016-07</text><text x="538" y="348" font-size="11" text-anchor="middle" fill="#444">2021-07</text><text x="696" y="348" font-size="11" text-anchor="middle" fill="#444">2026-06</text>
</svg>
