<svg xmlns="http://www.w3.org/2000/svg" width="720" height="360" viewBox="0 0 720 360">
  <rect width="720" height="360" fill="#fafafa"/>
  <text x="56" y="22" font-size="13" font-family="sans-serif" fill="#222">DMLP total return (rebased 100) · cumulative distributions $0.00/sh · market cap n/a</text>
  <line x1="56" y1="308" x2="696" y2="308" stroke="#ccc"/>
  <line x1="56" y1="48" x2="56" y2="308" stroke="#ccc"/>
  <polyline fill="none" stroke="#2563eb" stroke-width="2" points="56.0,131.4 58.7,118.0 61.4,142.7 64.0,151.7 66.7,150.9 69.4,176.0 72.1,177.5 74.7,179.8 77.4,176.2 80.1,173.6 82.8,170.7 85.5,176.3 88.1,170.5 90.8,179.4 93.5,191.0 96.2,173.1 98.8,191.7 101.5,193.1 104.2,197.7 106.9,182.8 109.6,185.3 112.2,149.8 114.9,123.8 117.6,88.4 120.3,97.2 122.9,124.8 125.6,166.4 128.3,172.6 131.0,196.0 133.7,231.3 136.3,203.2 139.0,227.3 141.7,227.1 144.4,215.7 147.0,189.8 149.7,169.0 152.4,169.5 155.1,183.3 157.8,171.2 160.4,173.1 163.1,187.8 165.8,182.8 168.5,174.1 171.1,173.4 173.8,183.6 176.5,128.8 179.2,138.6 181.9,144.6 184.5,140.6 187.2,156.5 189.9,132.5 192.6,135.5 195.2,129.8 197.9,127.3 200.6,119.7 203.3,130.3 206.0,111.4 208.6,114.9 211.3,125.2 214.0,132.3 216.7,138.7 219.3,150.5 222.0,160.3 224.7,153.4 227.4,172.4 230.1,170.4 232.7,175.8 235.4,152.9 238.1,138.2 240.8,161.9 243.4,180.7 246.1,176.7 248.8,175.4 251.5,176.8 254.2,175.8 256.8,175.8 259.5,185.3 262.2,191.3 264.9,174.0 267.5,162.2 270.2,165.5 272.9,162.8 275.6,157.5 278.3,154.0 280.9,156.3 283.6,158.5 286.3,159.3 289.0,155.6 291.6,153.4 294.3,140.6 297.0,149.3 299.7,148.7 302.4,138.6 305.0,128.1 307.7,120.0 310.4,99.7 313.1,67.3 315.7,68.0 318.4,108.4 321.1,127.3 323.8,142.0 326.5,144.6 329.1,156.5 331.8,156.1 334.5,169.7 337.2,168.4 339.8,170.3 342.5,181.8 345.2,220.5 347.9,236.2 350.6,243.9 353.2,244.0 355.9,254.6 358.6,284.9 361.3,277.4 363.9,288.5 366.6,271.4 369.3,246.1 372.0,257.1 374.7,244.3 377.3,239.7 380.0,240.0 382.7,235.4 385.4,240.4 388.1,224.3 390.7,216.2 393.4,218.0 396.1,226.1 398.8,219.3 401.4,221.1 404.1,227.0 406.8,244.0 409.5,239.5 412.2,244.0 414.8,238.6 417.5,242.6 420.2,240.0 422.9,237.3 425.5,231.0 428.2,233.2 430.9,229.2 433.6,211.3 436.3,191.1 438.9,188.8 441.6,208.6 444.3,206.5 447.0,190.6 449.6,209.9 452.3,224.9 455.0,242.3 457.7,217.9 460.4,210.2 463.0,209.8 465.7,203.9 468.4,212.0 471.1,209.4 473.7,206.3 476.4,212.6 479.1,206.3 481.8,215.0 484.5,217.7 487.1,198.6 489.8,227.5 492.5,236.7 495.2,290.1 497.8,262.4 500.5,268.9 503.2,259.0 505.9,275.8 508.6,270.7 511.2,280.9 513.9,283.3 516.6,275.0 519.3,275.7 521.9,265.5 524.6,244.0 527.3,251.1 530.0,243.0 532.7,237.3 535.3,222.5 538.0,225.0 540.7,224.7 543.4,201.7 546.0,201.8 548.7,214.0 551.4,196.1 554.1,172.7 556.8,162.5 559.4,140.9 562.1,139.4 564.8,96.6 567.5,159.7 570.1,115.3 572.8,116.5 575.5,149.6 578.2,118.0 580.9,102.3 583.5,105.2 586.2,111.8 588.9,97.3 591.6,102.0 594.2,105.2 596.9,114.7 599.6,104.9 602.3,98.6 605.0,123.8 607.6,113.1 610.3,123.4 613.0,112.4 615.7,88.2 618.3,91.8 621.0,96.4 623.7,71.2 626.4,84.2 629.1,77.8 631.7,97.0 634.4,101.0 637.1,101.0 639.8,103.2 642.4,87.1 645.1,65.9 647.8,74.7 650.5,91.8 653.2,100.9 655.8,103.9 658.5,116.6 661.2,133.5 663.9,123.8 666.5,127.9 669.2,147.9 671.9,141.4 674.6,147.1 677.3,176.7 679.9,173.1 682.6,145.7 685.3,140.5 688.0,130.6 690.6,122.7 693.3,130.8 696.0,131.5"/>
  <polyline fill="none" stroke="#16a34a" stroke-width="2" points="56.0,131.4 58.7,118.0 61.4,142.7 64.0,151.7 66.7,150.9 69.4,176.0 72.1,177.5 74.7,179.8 77.4,176.2 80.1,173.6 82.8,170.7 85.5,176.3 88.1,170.5 90.8,179.4 93.5,191.0 96.2,173.1 98.8,191.7 101.5,193.1 104.2,197.7 106.9,182.8 109.6,185.3 112.2,149.8 114.9,123.8 117.6,88.4 120.3,97.2 122.9,124.8 125.6,166.4 128.3,172.6 131.0,196.0 133.7,231.3 136.3,203.2 139.0,227.3 141.7,227.1 144.4,215.7 147.0,189.8 149.7,169.0 152.4,169.5 155.1,183.3 157.8,171.2 160.4,173.1 163.1,187.8 165.8,182.8 168.5,174.1 171.1,173.4 173.8,183.6 176.5,128.8 179.2,138.6 181.9,144.6 184.5,140.6 187.2,156.5 189.9,132.5 192.6,135.5 195.2,129.8 197.9,127.3 200.6,119.7 203.3,130.3 206.0,111.4 208.6,114.9 211.3,125.2 214.0,132.3 216.7,138.7 219.3,150.5 222.0,160.3 224.7,153.4 227.4,172.4 230.1,170.4 232.7,175.8 235.4,152.9 238.1,138.2 240.8,161.9 243.4,180.7 246.1,176.7 248.8,175.4 251.5,176.8 254.2,175.8 256.8,175.8 259.5,185.3 262.2,191.3 264.9,174.0 267.5,162.2 270.2,165.5 272.9,162.8 275.6,157.5 278.3,154.0 280.9,156.3 283.6,158.5 286.3,159.3 289.0,155.6 291.6,153.4 294.3,140.6 297.0,149.3 299.7,148.7 302.4,138.6 305.0,128.1 307.7,120.0 310.4,99.7 313.1,67.3 315.7,68.0 318.4,108.4 321.1,127.3 323.8,142.0 326.5,144.6 329.1,156.5 331.8,156.1 334.5,169.7 337.2,168.4 339.8,170.3 342.5,181.8 345.2,220.5 347.9,236.2 350.6,243.9 353.2,244.0 355.9,254.6 358.6,284.9 361.3,277.4 363.9,288.5 366.6,271.4 369.3,246.1 372.0,257.1 374.7,244.3 377.3,239.7 380.0,240.0 382.7,235.4 385.4,240.4 388.1,224.3 390.7,216.2 393.4,218.0 396.1,226.1 398.8,219.3 401.4,221.1 404.1,227.0 406.8,244.0 409.5,239.5 412.2,244.0 414.8,238.6 417.5,242.6 420.2,240.0 422.9,237.3 425.5,231.0 428.2,233.2 430.9,229.2 433.6,211.3 436.3,191.1 438.9,188.8 441.6,208.6 444.3,206.5 447.0,190.6 449.6,209.9 452.3,224.9 455.0,242.3 457.7,217.9 460.4,210.2 463.0,209.8 465.7,203.9 468.4,212.0 471.1,209.4 473.7,206.3 476.4,212.6 479.1,206.3 481.8,215.0 484.5,217.7 487.1,198.6 489.8,227.5 492.5,236.7 495.2,290.1 497.8,262.4 500.5,268.9 503.2,259.0 505.9,275.8 508.6,270.7 511.2,280.9 513.9,283.3 516.6,275.0 519.3,275.7 521.9,265.5 524.6,244.0 527.3,251.1 530.0,243.0 532.7,237.3 535.3,222.5 538.0,225.0 540.7,224.7 543.4,201.7 546.0,201.8 548.7,214.0 551.4,196.1 554.1,172.7 556.8,162.5 559.4,140.9 562.1,139.4 564.8,96.6 567.5,159.7 570.1,115.3 572.8,116.5 575.5,149.6 578.2,118.0 580.9,102.3 583.5,105.2 586.2,111.8 588.9,97.3 591.6,102.0 594.2,105.2 596.9,114.7 599.6,104.9 602.3,98.6 605.0,123.8 607.6,113.1 610.3,123.4 613.0,112.4 615.7,88.2 618.3,91.8 621.0,96.4 623.7,71.2 626.4,84.2 629.1,77.8 631.7,97.0 634.4,101.0 637.1,101.0 639.8,103.2 642.4,87.1 645.1,65.9 647.8,74.7 650.5,91.8 653.2,100.9 655.8,103.9 658.5,116.6 661.2,133.5 663.9,123.8 666.5,127.9 669.2,147.9 671.9,141.4 674.6,147.1 677.3,176.7 679.9,173.1 682.6,145.7 685.3,140.5 688.0,130.6 690.6,122.7 693.3,130.8 696.0,131.5"/>
  <text x="60" y="62" font-size="11" fill="#2563eb">Price index</text>
  <text x="146" y="62" font-size="11" fill="#16a34a">Total return (price + distributions)</text>
  <text x="56" y="348" font-size="11" text-anchor="middle" fill="#444">2006-07</text><text x="217" y="348" font-size="11" text-anchor="middle" fill="#444">2011-07</text><text x="377" y="348" font-size="11" text-anchor="middle" fill="#444">2016-07</text><text x="538" y="348" font-size="11" text-anchor="middle" fill="#444">2021-07</text><text x="696" y="348" font-size="11" text-anchor="middle" fill="#444">2026-06</text>
</svg>
