<svg xmlns="http://www.w3.org/2000/svg" width="720" height="360" viewBox="0 0 720 360">
  <rect width="720" height="360" fill="#fafafa"/>
  <text x="56" y="22" font-size="13" font-family="sans-serif" fill="#222">MRSH total return (rebased 100) · cumulative distributions $0.00/sh · market cap n/a</text>
  <line x1="56" y1="308" x2="696" y2="308" stroke="#ccc"/>
  <line x1="56" y1="48" x2="56" y2="308" stroke="#ccc"/>
  <polyline fill="none" stroke="#2563eb" stroke-width="2" points="56.0,281.0 58.7,281.9 61.4,279.9 64.0,278.7 66.7,276.7 69.4,277.4 72.1,278.6 74.7,278.7 77.4,278.8 80.1,276.4 82.8,275.3 85.5,277.2 88.1,280.5 90.8,281.4 93.5,282.6 96.2,282.2 98.8,282.9 101.5,281.6 104.2,280.5 106.9,282.6 109.6,283.7 112.2,280.5 114.9,280.8 117.6,281.5 120.3,279.8 122.9,276.2 125.6,276.4 128.3,278.8 131.0,282.6 133.7,283.8 136.3,288.7 139.0,290.1 141.7,287.8 144.4,286.9 147.0,289.1 149.7,287.9 152.4,287.6 155.1,284.5 157.8,283.3 160.4,284.6 163.1,285.5 165.8,286.0 168.5,286.5 171.1,284.8 173.8,283.6 176.5,283.8 179.2,286.2 181.9,285.5 184.5,284.5 187.2,284.3 189.9,283.9 192.6,283.1 195.2,283.0 197.9,280.7 200.6,280.2 203.3,277.7 206.0,278.3 208.6,277.8 211.3,277.4 214.0,276.9 216.7,278.6 219.3,278.4 222.0,281.5 224.7,277.5 227.4,277.9 230.1,276.5 232.7,276.5 235.4,276.9 238.1,275.3 240.8,274.7 243.4,276.1 246.1,275.9 248.8,274.9 251.5,274.0 254.2,274.2 256.8,274.1 259.5,272.9 262.2,273.7 264.9,272.7 267.5,271.0 270.2,270.2 272.9,270.2 275.6,268.2 278.3,268.3 280.9,266.3 283.6,267.0 286.3,264.7 289.0,262.4 291.6,260.8 294.3,259.9 297.0,262.5 299.7,260.1 302.4,259.0 305.0,259.0 307.7,258.0 310.4,256.5 313.1,257.5 315.7,255.2 318.4,256.0 321.1,253.9 323.8,251.7 326.5,251.1 329.1,254.5 331.8,251.4 334.5,252.2 337.2,252.2 339.8,250.1 342.5,251.6 345.2,250.4 347.9,254.6 350.6,256.1 353.2,252.6 355.9,253.0 358.6,252.9 361.3,255.0 363.9,251.3 366.6,247.6 369.3,245.2 372.0,242.3 374.7,240.0 377.3,242.7 380.0,240.8 382.7,241.2 385.4,245.0 388.1,239.1 390.7,240.8 393.4,240.4 396.1,235.0 398.8,234.6 401.4,234.4 404.1,231.0 406.8,230.6 409.5,230.5 412.2,230.4 414.8,224.8 417.5,227.6 420.2,224.6 422.9,227.2 425.5,225.0 428.2,225.5 430.9,226.0 433.6,227.1 436.3,228.2 438.9,226.6 441.6,225.2 444.3,223.9 447.0,225.8 449.6,223.8 452.3,219.9 455.0,228.8 457.7,220.4 460.4,215.6 463.0,214.8 465.7,214.4 468.4,213.1 471.1,209.0 473.7,209.9 476.4,208.8 479.1,208.7 481.8,205.1 484.5,200.7 487.1,197.4 489.8,197.0 492.5,204.2 495.2,222.1 497.8,211.4 500.5,202.8 503.2,201.4 505.9,192.3 508.6,193.9 511.2,194.1 513.9,205.3 516.6,194.2 519.3,191.9 521.9,198.9 524.6,193.6 527.3,187.1 530.0,173.3 532.7,170.7 535.3,168.4 538.0,161.9 540.7,152.0 543.4,157.7 546.0,142.5 548.7,145.2 551.4,135.5 554.1,155.5 556.8,153.8 559.4,138.9 562.1,147.5 564.8,149.3 567.5,153.9 570.1,145.3 572.8,147.9 575.5,159.8 578.2,147.8 580.9,136.2 583.5,143.8 586.2,134.5 588.9,147.1 591.6,142.7 594.2,129.2 596.9,136.2 599.6,121.4 602.3,121.1 605.0,114.5 607.6,119.2 610.3,119.8 613.0,110.2 615.7,120.0 618.3,115.7 621.0,107.3 623.7,103.7 626.4,110.1 629.1,102.1 631.7,99.0 634.4,87.2 637.1,82.3 639.8,86.7 642.4,91.5 645.1,76.6 647.8,97.3 650.5,92.8 653.2,72.1 655.8,65.9 658.5,84.3 661.2,76.2 663.9,91.1 666.5,110.4 669.2,103.8 671.9,108.1 674.6,131.2 677.3,126.0 679.9,123.9 682.6,121.3 685.3,122.7 688.0,135.9 690.6,141.6 693.3,149.3 696.0,141.7"/>
  <polyline fill="none" stroke="#16a34a" stroke-width="2" points="56.0,281.0 58.7,281.9 61.4,279.9 64.0,278.7 66.7,276.7 69.4,277.4 72.1,278.6 74.7,278.7 77.4,278.8 80.1,276.4 82.8,275.3 85.5,277.2 88.1,280.5 90.8,281.4 93.5,282.6 96.2,282.2 98.8,282.9 101.5,281.6 104.2,280.5 106.9,282.6 109.6,283.7 112.2,280.5 114.9,280.8 117.6,281.5 120.3,279.8 122.9,276.2 125.6,276.4 128.3,278.8 131.0,282.6 133.7,283.8 136.3,288.7 139.0,290.1 141.7,287.8 144.4,286.9 147.0,289.1 149.7,287.9 152.4,287.6 155.1,284.5 157.8,283.3 160.4,284.6 163.1,285.5 165.8,286.0 168.5,286.5 171.1,284.8 173.8,283.6 176.5,283.8 179.2,286.2 181.9,285.5 184.5,284.5 187.2,284.3 189.9,283.9 192.6,283.1 195.2,283.0 197.9,280.7 200.6,280.2 203.3,277.7 206.0,278.3 208.6,277.8 211.3,277.4 214.0,276.9 216.7,278.6 219.3,278.4 222.0,281.5 224.7,277.5 227.4,277.9 230.1,276.5 232.7,276.5 235.4,276.9 238.1,275.3 240.8,274.7 243.4,276.1 246.1,275.9 248.8,274.9 251.5,274.0 254.2,274.2 256.8,274.1 259.5,272.9 262.2,273.7 264.9,272.7 267.5,271.0 270.2,270.2 272.9,270.2 275.6,268.2 278.3,268.3 280.9,266.3 283.6,267.0 286.3,264.7 289.0,262.4 291.6,260.8 294.3,259.9 297.0,262.5 299.7,260.1 302.4,259.0 305.0,259.0 307.7,258.0 310.4,256.5 313.1,257.5 315.7,255.2 318.4,256.0 321.1,253.9 323.8,251.7 326.5,251.1 329.1,254.5 331.8,251.4 334.5,252.2 337.2,252.2 339.8,250.1 342.5,251.6 345.2,250.4 347.9,254.6 350.6,256.1 353.2,252.6 355.9,253.0 358.6,252.9 361.3,255.0 363.9,251.3 366.6,247.6 369.3,245.2 372.0,242.3 374.7,240.0 377.3,242.7 380.0,240.8 382.7,241.2 385.4,245.0 388.1,239.1 390.7,240.8 393.4,240.4 396.1,235.0 398.8,234.6 401.4,234.4 404.1,231.0 406.8,230.6 409.5,230.5 412.2,230.4 414.8,224.8 417.5,227.6 420.2,224.6 422.9,227.2 425.5,225.0 428.2,225.5 430.9,226.0 433.6,227.1 436.3,228.2 438.9,226.6 441.6,225.2 444.3,223.9 447.0,225.8 449.6,223.8 452.3,219.9 455.0,228.8 457.7,220.4 460.4,215.6 463.0,214.8 465.7,214.4 468.4,213.1 471.1,209.0 473.7,209.9 476.4,208.8 479.1,208.7 481.8,205.1 484.5,200.7 487.1,197.4 489.8,197.0 492.5,204.2 495.2,222.1 497.8,211.4 500.5,202.8 503.2,201.4 505.9,192.3 508.6,193.9 511.2,194.1 513.9,205.3 516.6,194.2 519.3,191.9 521.9,198.9 524.6,193.6 527.3,187.1 530.0,173.3 532.7,170.7 535.3,168.4 538.0,161.9 540.7,152.0 543.4,157.7 546.0,142.5 548.7,145.2 551.4,135.5 554.1,155.5 556.8,153.8 559.4,138.9 562.1,147.5 564.8,149.3 567.5,153.9 570.1,145.3 572.8,147.9 575.5,159.8 578.2,147.8 580.9,136.2 583.5,143.8 586.2,134.5 588.9,147.1 591.6,142.7 594.2,129.2 596.9,136.2 599.6,121.4 602.3,121.1 605.0,114.5 607.6,119.2 610.3,119.8 613.0,110.2 615.7,120.0 618.3,115.7 621.0,107.3 623.7,103.7 626.4,110.1 629.1,102.1 631.7,99.0 634.4,87.2 637.1,82.3 639.8,86.7 642.4,91.5 645.1,76.6 647.8,97.3 650.5,92.8 653.2,72.1 655.8,65.9 658.5,84.3 661.2,76.2 663.9,91.1 666.5,110.4 669.2,103.8 671.9,108.1 674.6,131.2 677.3,126.0 679.9,123.9 682.6,121.3 685.3,122.7 688.0,135.9 690.6,141.6 693.3,149.3 696.0,141.7"/>
  <text x="60" y="62" font-size="11" fill="#2563eb">Price index</text>
  <text x="146" y="62" font-size="11" fill="#16a34a">Total return (price + distributions)</text>
  <text x="56" y="348" font-size="11" text-anchor="middle" fill="#444">2006-07</text><text x="217" y="348" font-size="11" text-anchor="middle" fill="#444">2011-07</text><text x="377" y="348" font-size="11" text-anchor="middle" fill="#444">2016-07</text><text x="538" y="348" font-size="11" text-anchor="middle" fill="#444">2021-07</text><text x="696" y="348" font-size="11" text-anchor="middle" fill="#444">2026-06</text>
</svg>
