<svg xmlns="http://www.w3.org/2000/svg" width="720" height="360" viewBox="0 0 720 360">
  <rect width="720" height="360" fill="#fafafa"/>
  <text x="56" y="22" font-size="13" font-family="sans-serif" fill="#222">VTRS total return (rebased 100) · cumulative distributions $0.00/sh · market cap n/a</text>
  <line x1="56" y1="308" x2="696" y2="308" stroke="#ccc"/>
  <line x1="56" y1="48" x2="56" y2="308" stroke="#ccc"/>
  <polyline fill="none" stroke="#2563eb" stroke-width="2" points="56.0,242.8 58.7,248.5 61.4,249.2 64.0,247.9 66.7,248.6 69.4,249.8 72.1,242.2 74.7,245.6 77.4,245.7 80.1,242.9 82.8,250.4 85.5,256.0 88.1,263.5 90.8,266.8 93.5,263.7 96.2,267.0 98.8,269.3 101.5,270.4 104.2,267.7 106.9,278.1 109.6,279.0 112.2,273.5 114.9,272.9 117.6,277.3 120.3,274.2 122.9,274.5 125.6,279.6 128.3,289.5 131.0,286.6 133.7,284.9 136.3,279.9 139.0,276.1 141.7,272.7 144.4,273.2 147.0,273.3 149.7,273.9 152.4,273.4 155.1,268.3 157.8,263.6 160.4,262.8 163.1,257.1 165.8,255.1 168.5,255.8 171.1,245.0 173.8,240.2 176.5,242.6 179.2,251.6 181.9,260.0 184.5,258.7 187.2,259.6 189.9,253.8 192.6,248.5 195.2,251.1 197.9,245.7 200.6,238.6 203.3,239.6 206.0,240.4 208.6,232.5 211.3,237.3 214.0,233.3 216.7,239.9 219.3,247.0 222.0,260.2 224.7,251.1 227.4,251.3 230.1,244.6 232.7,247.0 235.4,237.6 238.1,237.6 240.8,243.7 243.4,243.8 246.1,244.9 248.8,239.1 251.5,237.2 254.2,234.4 256.8,231.0 259.5,224.6 262.2,223.6 264.9,220.8 267.5,216.1 270.2,218.4 272.9,217.8 275.6,213.1 278.3,211.1 280.9,202.3 283.6,196.1 286.3,186.2 289.0,187.3 291.6,165.4 294.3,168.0 297.0,160.9 299.7,125.5 302.4,149.0 305.0,142.2 307.7,145.5 310.4,139.5 313.1,147.1 315.7,149.8 318.4,160.7 321.1,132.5 323.8,114.9 326.5,122.7 329.1,133.9 331.8,119.3 334.5,112.3 337.2,67.2 339.8,65.9 342.5,82.6 345.2,124.0 347.9,146.4 350.6,178.9 353.2,165.6 355.9,140.4 358.6,130.7 361.3,135.5 363.9,162.1 366.6,157.7 369.3,173.9 372.0,168.2 374.7,168.5 377.3,156.1 380.0,171.6 382.7,186.4 385.4,192.1 388.1,191.7 390.7,186.3 393.4,186.6 396.1,173.4 398.8,183.4 401.4,189.1 404.1,183.4 406.8,184.0 409.5,183.4 412.2,209.6 414.8,210.0 417.5,194.8 420.2,191.9 422.9,171.8 425.5,169.9 428.2,178.7 430.9,175.7 433.6,184.2 436.3,185.2 438.9,193.3 441.6,189.2 444.3,182.9 447.0,191.7 449.6,210.4 452.3,201.3 455.0,223.8 457.7,214.9 460.4,227.3 463.0,220.5 465.7,225.2 468.4,260.8 471.1,253.0 473.7,246.5 476.4,251.5 479.1,250.4 481.8,252.6 484.5,253.9 487.1,249.3 489.8,244.7 492.5,259.5 495.2,267.4 497.8,260.9 500.5,259.9 503.2,263.3 505.9,263.2 508.6,262.3 511.2,267.7 513.9,268.7 516.6,260.7 519.3,254.0 521.9,260.2 524.6,267.6 527.3,270.7 530.0,273.0 532.7,266.3 535.3,269.6 538.0,270.3 540.7,268.4 543.4,272.2 546.0,272.9 548.7,276.5 551.4,272.2 554.1,267.2 556.8,281.0 559.4,281.5 562.1,283.4 564.8,276.6 567.5,282.9 570.1,285.6 572.8,286.1 575.5,289.7 578.2,284.1 580.9,281.0 583.5,280.6 586.2,277.0 588.9,279.7 591.6,285.9 594.2,286.9 596.9,287.5 599.6,284.6 602.3,282.7 605.0,281.9 607.6,285.0 610.3,288.4 613.0,287.4 615.7,281.7 618.3,278.4 621.0,276.3 623.7,277.8 626.4,279.1 629.1,282.5 631.7,282.4 634.4,277.4 637.1,277.3 639.8,278.9 642.4,279.0 645.1,273.8 647.8,276.0 650.5,280.1 653.2,287.2 655.8,289.1 658.5,290.1 661.2,288.8 663.9,288.3 666.5,289.0 669.2,282.6 671.9,284.9 674.6,283.3 677.3,282.1 679.9,276.0 682.6,273.8 685.3,267.3 688.0,272.3 690.6,267.3 693.3,262.7 696.0,263.8"/>
  <polyline fill="none" stroke="#16a34a" stroke-width="2" points="56.0,242.8 58.7,248.5 61.4,249.2 64.0,247.9 66.7,248.6 69.4,249.8 72.1,242.2 74.7,245.6 77.4,245.7 80.1,242.9 82.8,250.4 85.5,256.0 88.1,263.5 90.8,266.8 93.5,263.7 96.2,267.0 98.8,269.3 101.5,270.4 104.2,267.7 106.9,278.1 109.6,279.0 112.2,273.5 114.9,272.9 117.6,277.3 120.3,274.2 122.9,274.5 125.6,279.6 128.3,289.5 131.0,286.6 133.7,284.9 136.3,279.9 139.0,276.1 141.7,272.7 144.4,273.2 147.0,273.3 149.7,273.9 152.4,273.4 155.1,268.3 157.8,263.6 160.4,262.8 163.1,257.1 165.8,255.1 168.5,255.8 171.1,245.0 173.8,240.2 176.5,242.6 179.2,251.6 181.9,260.0 184.5,258.7 187.2,259.6 189.9,253.8 192.6,248.5 195.2,251.1 197.9,245.7 200.6,238.6 203.3,239.6 206.0,240.4 208.6,232.5 211.3,237.3 214.0,233.3 216.7,239.9 219.3,247.0 222.0,260.2 224.7,251.1 227.4,251.3 230.1,244.6 232.7,247.0 235.4,237.6 238.1,237.6 240.8,243.7 243.4,243.8 246.1,244.9 248.8,239.1 251.5,237.2 254.2,234.4 256.8,231.0 259.5,224.6 262.2,223.6 264.9,220.8 267.5,216.1 270.2,218.4 272.9,217.8 275.6,213.1 278.3,211.1 280.9,202.3 283.6,196.1 286.3,186.2 289.0,187.3 291.6,165.4 294.3,168.0 297.0,160.9 299.7,125.5 302.4,149.0 305.0,142.2 307.7,145.5 310.4,139.5 313.1,147.1 315.7,149.8 318.4,160.7 321.1,132.5 323.8,114.9 326.5,122.7 329.1,133.9 331.8,119.3 334.5,112.3 337.2,67.2 339.8,65.9 342.5,82.6 345.2,124.0 347.9,146.4 350.6,178.9 353.2,165.6 355.9,140.4 358.6,130.7 361.3,135.5 363.9,162.1 366.6,157.7 369.3,173.9 372.0,168.2 374.7,168.5 377.3,156.1 380.0,171.6 382.7,186.4 385.4,192.1 388.1,191.7 390.7,186.3 393.4,186.6 396.1,173.4 398.8,183.4 401.4,189.1 404.1,183.4 406.8,184.0 409.5,183.4 412.2,209.6 414.8,210.0 417.5,194.8 420.2,191.9 422.9,171.8 425.5,169.9 428.2,178.7 430.9,175.7 433.6,184.2 436.3,185.2 438.9,193.3 441.6,189.2 444.3,182.9 447.0,191.7 449.6,210.4 452.3,201.3 455.0,223.8 457.7,214.9 460.4,227.3 463.0,220.5 465.7,225.2 468.4,260.8 471.1,253.0 473.7,246.5 476.4,251.5 479.1,250.4 481.8,252.6 484.5,253.9 487.1,249.3 489.8,244.7 492.5,259.5 495.2,267.4 497.8,260.9 500.5,259.9 503.2,263.3 505.9,263.2 508.6,262.3 511.2,267.7 513.9,268.7 516.6,260.7 519.3,254.0 521.9,260.2 524.6,267.6 527.3,270.7 530.0,273.0 532.7,266.3 535.3,269.6 538.0,270.3 540.7,268.4 543.4,272.2 546.0,272.9 548.7,276.5 551.4,272.2 554.1,267.2 556.8,281.0 559.4,281.5 562.1,283.4 564.8,276.6 567.5,282.9 570.1,285.6 572.8,286.1 575.5,289.7 578.2,284.1 580.9,281.0 583.5,280.6 586.2,277.0 588.9,279.7 591.6,285.9 594.2,286.9 596.9,287.5 599.6,284.6 602.3,282.7 605.0,281.9 607.6,285.0 610.3,288.4 613.0,287.4 615.7,281.7 618.3,278.4 621.0,276.3 623.7,277.8 626.4,279.1 629.1,282.5 631.7,282.4 634.4,277.4 637.1,277.3 639.8,278.9 642.4,279.0 645.1,273.8 647.8,276.0 650.5,280.1 653.2,287.2 655.8,289.1 658.5,290.1 661.2,288.8 663.9,288.3 666.5,289.0 669.2,282.6 671.9,284.9 674.6,283.3 677.3,282.1 679.9,276.0 682.6,273.8 685.3,267.3 688.0,272.3 690.6,267.3 693.3,262.7 696.0,263.8"/>
  <text x="60" y="62" font-size="11" fill="#2563eb">Price index</text>
  <text x="146" y="62" font-size="11" fill="#16a34a">Total return (price + distributions)</text>
  <text x="56" y="348" font-size="11" text-anchor="middle" fill="#444">2006-07</text><text x="217" y="348" font-size="11" text-anchor="middle" fill="#444">2011-07</text><text x="377" y="348" font-size="11" text-anchor="middle" fill="#444">2016-07</text><text x="538" y="348" font-size="11" text-anchor="middle" fill="#444">2021-07</text><text x="696" y="348" font-size="11" text-anchor="middle" fill="#444">2026-06</text>
</svg>
