<svg xmlns="http://www.w3.org/2000/svg" width="720" height="360" viewBox="0 0 720 360">
  <rect width="720" height="360" fill="#fafafa"/>
  <text x="56" y="22" font-size="13" font-family="sans-serif" fill="#222">RDDT total return (rebased 100) · cumulative distributions $0.00/sh · market cap n/a</text>
  <line x1="56" y1="308" x2="696" y2="308" stroke="#ccc"/>
  <line x1="56" y1="48" x2="56" y2="308" stroke="#ccc"/>
  <polyline fill="none" stroke="#2563eb" stroke-width="2" points="56.0,279.2 57.1,283.5 58.2,270.1 59.3,265.0 60.5,272.1 61.6,280.2 62.7,283.5 63.8,279.1 64.9,282.5 66.0,283.7 67.1,281.9 68.3,283.3 69.4,284.4 70.5,287.2 71.6,284.9 72.7,287.1 73.8,289.3 75.0,288.2 76.1,290.1 77.2,287.6 78.3,288.4 79.4,287.3 80.5,286.5 81.6,286.2 82.8,286.9 83.9,284.0 85.0,283.2 86.1,285.0 87.2,283.6 88.3,281.8 89.4,282.8 90.6,281.3 91.7,280.2 92.8,278.2 93.9,279.5 95.0,276.2 96.1,271.7 97.3,267.6 98.4,270.3 99.5,273.4 100.6,267.9 101.7,268.7 102.8,270.6 103.9,273.1 105.1,275.6 106.2,275.0 107.3,271.4 108.4,272.2 109.5,273.5 110.6,275.5 111.7,274.0 112.9,275.2 114.0,269.8 115.1,266.6 116.2,270.1 117.3,270.3 118.4,268.4 119.6,264.2 120.7,266.1 121.8,269.0 122.9,269.6 124.0,269.7 125.1,272.4 126.2,272.5 127.4,273.3 128.5,268.6 129.6,266.4 130.7,266.4 131.8,266.1 132.9,263.5 134.0,256.8 135.2,256.7 136.3,257.3 137.4,257.5 138.5,259.7 139.6,260.8 140.7,259.9 141.9,256.5 143.0,257.3 144.1,259.8 145.2,264.9 146.3,264.2 147.4,265.4 148.5,262.0 149.7,262.3 150.8,267.0 151.9,267.9 153.0,267.6 154.1,269.9 155.2,271.4 156.3,269.1 157.5,270.5 158.6,272.2 159.7,273.0 160.8,275.4 161.9,278.9 163.0,274.8 164.2,276.8 165.3,277.2 166.4,275.2 167.5,274.8 168.6,274.2 169.7,274.8 170.8,275.4 172.0,274.7 173.1,272.9 174.2,273.4 175.3,270.7 176.4,271.6 177.5,270.9 178.6,273.6 179.8,271.1 180.9,269.9 182.0,272.3 183.1,272.8 184.2,271.2 185.3,273.0 186.5,272.4 187.6,272.9 188.7,270.0 189.8,270.3 190.9,270.8 192.0,270.7 193.1,268.1 194.3,266.4 195.4,265.5 196.5,263.9 197.6,265.1 198.7,263.2 199.8,262.3 200.9,263.6 202.1,263.1 203.2,264.2 204.3,264.1 205.4,262.4 206.5,262.7 207.6,257.9 208.8,259.8 209.9,259.5 211.0,259.3 212.1,260.3 213.2,257.1 214.3,255.5 215.4,255.2 216.6,253.2 217.7,254.1 218.8,249.7 219.9,251.9 221.0,253.2 222.1,252.8 223.2,251.9 224.4,249.2 225.5,250.9 226.6,248.9 227.7,215.6 228.8,212.5 229.9,218.6 231.1,222.4 232.2,209.3 233.3,210.8 234.4,200.7 235.5,197.5 236.6,202.9 237.7,204.3 238.9,200.1 240.0,200.3 241.1,207.2 242.2,202.7 243.3,195.2 244.4,196.1 245.5,175.0 246.7,186.0 247.8,190.6 248.9,196.7 250.0,192.4 251.1,191.8 252.2,190.9 253.4,182.9 254.5,178.7 255.6,179.8 256.7,170.4 257.8,166.2 258.9,177.0 260.0,167.4 261.2,169.7 262.3,160.9 263.4,155.6 264.5,164.6 265.6,172.5 266.7,169.5 267.8,162.7 269.0,164.8 270.1,156.2 271.2,156.9 272.3,160.0 273.4,167.7 274.5,169.8 275.7,167.4 276.8,155.9 277.9,154.2 279.0,161.2 280.1,161.5 281.2,166.2 282.3,168.6 283.5,168.4 284.6,162.8 285.7,158.7 286.8,158.3 287.9,145.7 289.0,150.1 290.1,151.8 291.3,151.4 292.4,152.9 293.5,139.5 294.6,132.4 295.7,135.4 296.8,134.8 298.0,132.1 299.1,119.6 300.2,113.9 301.3,118.4 302.4,110.0 303.5,110.2 304.6,121.1 305.8,118.4 306.9,129.6 308.0,137.9 309.1,146.8 310.2,144.4 311.3,158.2 312.4,166.9 313.6,167.7 314.7,173.1 315.8,165.3 316.9,173.3 318.0,171.4 319.1,170.7 320.3,173.9 321.4,164.9 322.5,182.1 323.6,198.3 324.7,224.1 325.8,209.2 326.9,201.5 328.1,210.3 329.2,203.9 330.3,206.4 331.4,221.4 332.5,221.6 333.6,222.7 334.7,216.0 335.9,207.0 337.0,206.6 338.1,211.6 339.2,221.3 340.3,223.7 341.4,226.4 342.6,221.5 343.7,222.0 344.8,234.2 345.9,243.9 347.0,238.0 348.1,241.9 349.2,220.7 350.4,229.2 351.5,230.1 352.6,232.9 353.7,234.6 354.8,235.7 355.9,234.9 357.0,236.8 358.2,229.6 359.3,224.2 360.4,219.3 361.5,213.7 362.6,210.7 363.7,209.8 364.9,215.1 366.0,213.0 367.1,217.8 368.2,215.4 369.3,221.5 370.4,225.8 371.5,223.6 372.7,223.0 373.8,220.3 374.9,218.8 376.0,206.7 377.1,218.0 378.2,218.4 379.3,223.4 380.5,225.7 381.6,235.2 382.7,232.8 383.8,230.4 384.9,226.7 386.0,225.9 387.1,222.4 388.3,219.2 389.4,219.5 390.5,220.7 391.6,213.6 392.7,219.3 393.8,210.6 395.0,214.2 396.1,214.6 397.2,216.6 398.3,215.5 399.4,213.6 400.5,205.8 401.6,198.4 402.8,191.3 403.9,193.3 405.0,198.1 406.1,191.7 407.2,190.8 408.3,188.6 409.4,189.5 410.6,182.2 411.7,180.6 412.8,173.7 413.9,176.0 415.0,179.5 416.1,186.7 417.3,187.0 418.4,189.6 419.5,187.1 420.6,186.3 421.7,187.8 422.8,188.3 423.9,190.0 425.1,184.5 426.2,186.4 427.3,186.8 428.4,186.6 429.5,184.6 430.6,183.1 431.7,181.2 432.9,187.8 434.0,183.4 435.1,172.5 436.2,145.4 437.3,132.7 438.4,135.3 439.6,122.0 440.7,122.9 441.8,119.4 442.9,114.3 444.0,111.1 445.1,100.7 446.2,92.3 447.4,89.4 448.5,94.0 449.6,107.1 450.7,116.6 451.8,116.3 452.9,117.6 454.0,115.3 455.2,115.6 456.3,123.6 457.4,109.7 458.5,110.1 459.6,115.0 460.7,112.0 461.9,103.3 463.0,95.7 464.1,105.4 465.2,95.5 466.3,77.2 467.4,75.8 468.5,81.8 469.7,72.8 470.8,69.9 471.9,70.0 473.0,65.9 474.1,72.0 475.2,78.7 476.3,98.1 477.5,99.8 478.6,102.7 479.7,95.6 480.8,93.7 481.9,105.3 483.0,131.9 484.2,133.5 485.3,127.4 486.4,130.9 487.5,128.6 488.6,132.2 489.7,123.1 490.8,135.8 492.0,130.8 493.1,137.9 494.2,133.6 495.3,135.4 496.4,139.3 497.5,132.0 498.6,128.9 499.8,137.2 500.9,133.6 502.0,120.6 503.1,115.8 504.2,121.8 505.3,124.0 506.5,139.8 507.6,125.7 508.7,129.6 509.8,146.2 510.9,138.0 512.0,150.2 513.1,139.6 514.3,130.3 515.4,126.4 516.5,131.7 517.6,144.6 518.7,140.9 519.8,146.4 520.9,148.2 522.1,146.2 523.2,151.9 524.3,150.4 525.4,139.2 526.5,116.5 527.6,127.1 528.8,118.4 529.9,111.7 531.0,112.3 532.1,114.2 533.2,112.4 534.3,101.4 535.4,98.6 536.6,99.4 537.7,97.5 538.8,101.9 539.9,110.4 541.0,116.5 542.1,111.1 543.2,107.9 544.4,104.0 545.5,102.3 546.6,102.3 547.7,109.4 548.8,109.4 549.9,109.4 551.1,100.8 552.2,102.1 553.3,105.5 554.4,93.8 555.5,91.7 556.6,82.3 557.7,80.7 558.9,82.2 560.0,91.2 561.1,91.8 562.2,77.3 563.3,83.7 564.4,106.5 565.5,104.4 566.7,109.8 567.8,124.6 568.9,120.3 570.0,116.1 571.1,121.2 572.2,138.0 573.4,141.0 574.5,144.0 575.6,153.5 576.7,156.5 577.8,167.9 578.9,180.2 580.0,181.8 581.2,192.6 582.3,190.8 583.4,182.8 584.5,193.1 585.6,201.1 586.7,192.8 587.8,193.2 589.0,185.2 590.1,186.5 591.2,182.6 592.3,190.1 593.4,190.4 594.5,183.1 595.7,181.6 596.8,186.8 597.9,185.6 599.0,187.0 600.1,185.4 601.2,188.3 602.3,193.1 603.5,193.6 604.6,198.1 605.7,195.3 606.8,200.0 607.9,199.9 609.0,192.5 610.1,188.3 611.3,189.8 612.4,194.3 613.5,192.6 614.6,191.5 615.7,196.2 616.8,192.8 618.0,204.8 619.1,210.0 620.2,207.8 621.3,197.6 622.4,196.2 623.5,196.3 624.6,194.1 625.8,191.4 626.9,187.6 628.0,194.0 629.1,192.7 630.2,183.4 631.3,178.4 632.4,174.6 633.6,170.7 634.7,169.4 635.8,167.0 636.9,176.2 638.0,168.9 639.1,179.9 640.3,178.0 641.4,172.9 642.5,184.8 643.6,185.0 644.7,185.5 645.8,166.8 646.9,164.3 648.1,161.8 649.2,166.8 650.3,169.3 651.4,177.2 652.5,173.6 653.6,180.5 654.7,178.8 655.9,176.7 657.0,174.9 658.1,174.0 659.2,178.1 660.3,186.0 661.4,182.7 662.6,190.8 663.7,188.0 664.8,178.7 665.9,165.7 667.0,157.6 668.1,155.8 669.2,164.3 670.4,163.9 671.5,150.0 672.6,160.1 673.7,162.3 674.8,155.6 675.9,161.3 677.0,160.3 678.2,171.1 679.3,151.9 680.4,158.2 681.5,167.3 682.6,158.6 683.7,163.0 684.9,167.7 686.0,172.4 687.1,175.0 688.2,166.4 689.3,159.2 690.4,160.0 691.5,136.5 692.7,139.5 693.8,133.5 694.9,134.9 696.0,140.9"/>
  <polyline fill="none" stroke="#16a34a" stroke-width="2" points="56.0,279.2 57.1,283.5 58.2,270.1 59.3,265.0 60.5,272.1 61.6,280.2 62.7,283.5 63.8,279.1 64.9,282.5 66.0,283.7 67.1,281.9 68.3,283.3 69.4,284.4 70.5,287.2 71.6,284.9 72.7,287.1 73.8,289.3 75.0,288.2 76.1,290.1 77.2,287.6 78.3,288.4 79.4,287.3 80.5,286.5 81.6,286.2 82.8,286.9 83.9,284.0 85.0,283.2 86.1,285.0 87.2,283.6 88.3,281.8 89.4,282.8 90.6,281.3 91.7,280.2 92.8,278.2 93.9,279.5 95.0,276.2 96.1,271.7 97.3,267.6 98.4,270.3 99.5,273.4 100.6,267.9 101.7,268.7 102.8,270.6 103.9,273.1 105.1,275.6 106.2,275.0 107.3,271.4 108.4,272.2 109.5,273.5 110.6,275.5 111.7,274.0 112.9,275.2 114.0,269.8 115.1,266.6 116.2,270.1 117.3,270.3 118.4,268.4 119.6,264.2 120.7,266.1 121.8,269.0 122.9,269.6 124.0,269.7 125.1,272.4 126.2,272.5 127.4,273.3 128.5,268.6 129.6,266.4 130.7,266.4 131.8,266.1 132.9,263.5 134.0,256.8 135.2,256.7 136.3,257.3 137.4,257.5 138.5,259.7 139.6,260.8 140.7,259.9 141.9,256.5 143.0,257.3 144.1,259.8 145.2,264.9 146.3,264.2 147.4,265.4 148.5,262.0 149.7,262.3 150.8,267.0 151.9,267.9 153.0,267.6 154.1,269.9 155.2,271.4 156.3,269.1 157.5,270.5 158.6,272.2 159.7,273.0 160.8,275.4 161.9,278.9 163.0,274.8 164.2,276.8 165.3,277.2 166.4,275.2 167.5,274.8 168.6,274.2 169.7,274.8 170.8,275.4 172.0,274.7 173.1,272.9 174.2,273.4 175.3,270.7 176.4,271.6 177.5,270.9 178.6,273.6 179.8,271.1 180.9,269.9 182.0,272.3 183.1,272.8 184.2,271.2 185.3,273.0 186.5,272.4 187.6,272.9 188.7,270.0 189.8,270.3 190.9,270.8 192.0,270.7 193.1,268.1 194.3,266.4 195.4,265.5 196.5,263.9 197.6,265.1 198.7,263.2 199.8,262.3 200.9,263.6 202.1,263.1 203.2,264.2 204.3,264.1 205.4,262.4 206.5,262.7 207.6,257.9 208.8,259.8 209.9,259.5 211.0,259.3 212.1,260.3 213.2,257.1 214.3,255.5 215.4,255.2 216.6,253.2 217.7,254.1 218.8,249.7 219.9,251.9 221.0,253.2 222.1,252.8 223.2,251.9 224.4,249.2 225.5,250.9 226.6,248.9 227.7,215.6 228.8,212.5 229.9,218.6 231.1,222.4 232.2,209.3 233.3,210.8 234.4,200.7 235.5,197.5 236.6,202.9 237.7,204.3 238.9,200.1 240.0,200.3 241.1,207.2 242.2,202.7 243.3,195.2 244.4,196.1 245.5,175.0 246.7,186.0 247.8,190.6 248.9,196.7 250.0,192.4 251.1,191.8 252.2,190.9 253.4,182.9 254.5,178.7 255.6,179.8 256.7,170.4 257.8,166.2 258.9,177.0 260.0,167.4 261.2,169.7 262.3,160.9 263.4,155.6 264.5,164.6 265.6,172.5 266.7,169.5 267.8,162.7 269.0,164.8 270.1,156.2 271.2,156.9 272.3,160.0 273.4,167.7 274.5,169.8 275.7,167.4 276.8,155.9 277.9,154.2 279.0,161.2 280.1,161.5 281.2,166.2 282.3,168.6 283.5,168.4 284.6,162.8 285.7,158.7 286.8,158.3 287.9,145.7 289.0,150.1 290.1,151.8 291.3,151.4 292.4,152.9 293.5,139.5 294.6,132.4 295.7,135.4 296.8,134.8 298.0,132.1 299.1,119.6 300.2,113.9 301.3,118.4 302.4,110.0 303.5,110.2 304.6,121.1 305.8,118.4 306.9,129.6 308.0,137.9 309.1,146.8 310.2,144.4 311.3,158.2 312.4,166.9 313.6,167.7 314.7,173.1 315.8,165.3 316.9,173.3 318.0,171.4 319.1,170.7 320.3,173.9 321.4,164.9 322.5,182.1 323.6,198.3 324.7,224.1 325.8,209.2 326.9,201.5 328.1,210.3 329.2,203.9 330.3,206.4 331.4,221.4 332.5,221.6 333.6,222.7 334.7,216.0 335.9,207.0 337.0,206.6 338.1,211.6 339.2,221.3 340.3,223.7 341.4,226.4 342.6,221.5 343.7,222.0 344.8,234.2 345.9,243.9 347.0,238.0 348.1,241.9 349.2,220.7 350.4,229.2 351.5,230.1 352.6,232.9 353.7,234.6 354.8,235.7 355.9,234.9 357.0,236.8 358.2,229.6 359.3,224.2 360.4,219.3 361.5,213.7 362.6,210.7 363.7,209.8 364.9,215.1 366.0,213.0 367.1,217.8 368.2,215.4 369.3,221.5 370.4,225.8 371.5,223.6 372.7,223.0 373.8,220.3 374.9,218.8 376.0,206.7 377.1,218.0 378.2,218.4 379.3,223.4 380.5,225.7 381.6,235.2 382.7,232.8 383.8,230.4 384.9,226.7 386.0,225.9 387.1,222.4 388.3,219.2 389.4,219.5 390.5,220.7 391.6,213.6 392.7,219.3 393.8,210.6 395.0,214.2 396.1,214.6 397.2,216.6 398.3,215.5 399.4,213.6 400.5,205.8 401.6,198.4 402.8,191.3 403.9,193.3 405.0,198.1 406.1,191.7 407.2,190.8 408.3,188.6 409.4,189.5 410.6,182.2 411.7,180.6 412.8,173.7 413.9,176.0 415.0,179.5 416.1,186.7 417.3,187.0 418.4,189.6 419.5,187.1 420.6,186.3 421.7,187.8 422.8,188.3 423.9,190.0 425.1,184.5 426.2,186.4 427.3,186.8 428.4,186.6 429.5,184.6 430.6,183.1 431.7,181.2 432.9,187.8 434.0,183.4 435.1,172.5 436.2,145.4 437.3,132.7 438.4,135.3 439.6,122.0 440.7,122.9 441.8,119.4 442.9,114.3 444.0,111.1 445.1,100.7 446.2,92.3 447.4,89.4 448.5,94.0 449.6,107.1 450.7,116.6 451.8,116.3 452.9,117.6 454.0,115.3 455.2,115.6 456.3,123.6 457.4,109.7 458.5,110.1 459.6,115.0 460.7,112.0 461.9,103.3 463.0,95.7 464.1,105.4 465.2,95.5 466.3,77.2 467.4,75.8 468.5,81.8 469.7,72.8 470.8,69.9 471.9,70.0 473.0,65.9 474.1,72.0 475.2,78.7 476.3,98.1 477.5,99.8 478.6,102.7 479.7,95.6 480.8,93.7 481.9,105.3 483.0,131.9 484.2,133.5 485.3,127.4 486.4,130.9 487.5,128.6 488.6,132.2 489.7,123.1 490.8,135.8 492.0,130.8 493.1,137.9 494.2,133.6 495.3,135.4 496.4,139.3 497.5,132.0 498.6,128.9 499.8,137.2 500.9,133.6 502.0,120.6 503.1,115.8 504.2,121.8 505.3,124.0 506.5,139.8 507.6,125.7 508.7,129.6 509.8,146.2 510.9,138.0 512.0,150.2 513.1,139.6 514.3,130.3 515.4,126.4 516.5,131.7 517.6,144.6 518.7,140.9 519.8,146.4 520.9,148.2 522.1,146.2 523.2,151.9 524.3,150.4 525.4,139.2 526.5,116.5 527.6,127.1 528.8,118.4 529.9,111.7 531.0,112.3 532.1,114.2 533.2,112.4 534.3,101.4 535.4,98.6 536.6,99.4 537.7,97.5 538.8,101.9 539.9,110.4 541.0,116.5 542.1,111.1 543.2,107.9 544.4,104.0 545.5,102.3 546.6,102.3 547.7,109.4 548.8,109.4 549.9,109.4 551.1,100.8 552.2,102.1 553.3,105.5 554.4,93.8 555.5,91.7 556.6,82.3 557.7,80.7 558.9,82.2 560.0,91.2 561.1,91.8 562.2,77.3 563.3,83.7 564.4,106.5 565.5,104.4 566.7,109.8 567.8,124.6 568.9,120.3 570.0,116.1 571.1,121.2 572.2,138.0 573.4,141.0 574.5,144.0 575.6,153.5 576.7,156.5 577.8,167.9 578.9,180.2 580.0,181.8 581.2,192.6 582.3,190.8 583.4,182.8 584.5,193.1 585.6,201.1 586.7,192.8 587.8,193.2 589.0,185.2 590.1,186.5 591.2,182.6 592.3,190.1 593.4,190.4 594.5,183.1 595.7,181.6 596.8,186.8 597.9,185.6 599.0,187.0 600.1,185.4 601.2,188.3 602.3,193.1 603.5,193.6 604.6,198.1 605.7,195.3 606.8,200.0 607.9,199.9 609.0,192.5 610.1,188.3 611.3,189.8 612.4,194.3 613.5,192.6 614.6,191.5 615.7,196.2 616.8,192.8 618.0,204.8 619.1,210.0 620.2,207.8 621.3,197.6 622.4,196.2 623.5,196.3 624.6,194.1 625.8,191.4 626.9,187.6 628.0,194.0 629.1,192.7 630.2,183.4 631.3,178.4 632.4,174.6 633.6,170.7 634.7,169.4 635.8,167.0 636.9,176.2 638.0,168.9 639.1,179.9 640.3,178.0 641.4,172.9 642.5,184.8 643.6,185.0 644.7,185.5 645.8,166.8 646.9,164.3 648.1,161.8 649.2,166.8 650.3,169.3 651.4,177.2 652.5,173.6 653.6,180.5 654.7,178.8 655.9,176.7 657.0,174.9 658.1,174.0 659.2,178.1 660.3,186.0 661.4,182.7 662.6,190.8 663.7,188.0 664.8,178.7 665.9,165.7 667.0,157.6 668.1,155.8 669.2,164.3 670.4,163.9 671.5,150.0 672.6,160.1 673.7,162.3 674.8,155.6 675.9,161.3 677.0,160.3 678.2,171.1 679.3,151.9 680.4,158.2 681.5,167.3 682.6,158.6 683.7,163.0 684.9,167.7 686.0,172.4 687.1,175.0 688.2,166.4 689.3,159.2 690.4,160.0 691.5,136.5 692.7,139.5 693.8,133.5 694.9,134.9 696.0,140.9"/>
  <text x="60" y="62" font-size="11" fill="#2563eb">Price index</text>
  <text x="146" y="62" font-size="11" fill="#16a34a">Total return (price + distributions)</text>
  <text x="56" y="348" font-size="11" text-anchor="middle" fill="#444">2024-03</text><text x="215" y="348" font-size="11" text-anchor="middle" fill="#444">2024-10</text><text x="376" y="348" font-size="11" text-anchor="middle" fill="#444">2025-05</text><text x="537" y="348" font-size="11" text-anchor="middle" fill="#444">2025-12</text><text x="696" y="348" font-size="11" text-anchor="middle" fill="#444">2026-07</text>
</svg>
