<svg xmlns="http://www.w3.org/2000/svg" width="820" height="410" viewBox="0 0 820 410">
<rect width="820" height="410" fill="#fafafa"/><text x="78" y="22" font-size="14" font-family="sans-serif" fill="#0f172a">RDDT cumulative return since 2024-03-21 | dividends reinvested</text>
<text x="78" y="40" font-size="11" font-family="sans-serif" fill="#334155">Total return +292.6% | Price-only +292.6% | logarithmic scale</text>
<text x="78" y="54" font-size="9" font-family="sans-serif" fill="#64748b">Regular $0.00 | Special $0.00 | Other $0.00 per initial share path</text>
<line x1="78" y1="332.0" x2="796" y2="332.0" stroke="#e2e8f0"/><text x="70" y="336.0" font-size="10" text-anchor="end" fill="#64748b">-30.8%</text><line x1="78" y1="287.0" x2="796" y2="287.0" stroke="#e2e8f0"/><text x="70" y="291.0" font-size="10" text-anchor="end" fill="#64748b">-0.8%</text><line x1="78" y1="286.0" x2="796" y2="286.0" stroke="#e2e8f0"/><text x="70" y="290.0" font-size="10" text-anchor="end" fill="#64748b">0%</text><line x1="78" y1="242.0" x2="796" y2="242.0" stroke="#e2e8f0"/><text x="70" y="246.0" font-size="10" text-anchor="end" fill="#64748b">+42.3%</text><line x1="78" y1="197.0" x2="796" y2="197.0" stroke="#e2e8f0"/><text x="70" y="201.0" font-size="10" text-anchor="end" fill="#64748b">+104.2%</text><line x1="78" y1="152.0" x2="796" y2="152.0" stroke="#e2e8f0"/><text x="70" y="156.0" font-size="10" text-anchor="end" fill="#64748b">+192.9%</text><line x1="78" y1="107.0" x2="796" y2="107.0" stroke="#e2e8f0"/><text x="70" y="111.0" font-size="10" text-anchor="end" fill="#64748b">+320.1%</text><line x1="78" y1="62.0" x2="796" y2="62.0" stroke="#e2e8f0"/><text x="70" y="66.0" font-size="10" text-anchor="end" fill="#64748b">+502.7%</text>
<line x1="78" y1="332" x2="796" y2="332" stroke="#cbd5e1"/>
<polyline fill="none" stroke="#2563eb" stroke-width="2" points="78.0,286.0 79.2,297.5 80.5,264.8 81.7,254.2 83.0,269.1 84.2,288.8 85.4,297.6 86.7,286.0 87.9,294.8 89.2,298.1 90.4,293.3 91.6,297.1 92.9,300.2 94.1,308.6 95.4,301.5 96.6,308.0 97.8,314.9 99.1,311.4 100.3,317.5 101.6,309.7 102.8,312.2 104.0,308.7 105.3,306.4 106.5,305.5 107.8,307.5 109.0,299.0 110.2,296.7 111.5,301.8 112.7,297.8 114.0,293.0 115.2,295.8 116.4,291.5 117.7,288.6 118.9,283.7 120.2,286.8 121.4,278.6 122.6,268.2 123.9,259.6 125.1,265.1 126.4,272.1 127.6,260.2 128.8,261.8 130.1,265.8 131.3,271.4 132.6,277.1 133.8,275.8 135.0,267.5 136.3,269.4 137.5,272.3 138.8,276.9 140.0,273.4 141.2,276.3 142.5,264.2 143.7,257.4 145.0,264.8 146.2,265.1 147.4,261.2 148.7,252.6 149.9,256.4 151.2,262.4 152.4,263.6 153.6,263.9 154.9,269.8 156.1,270.1 157.4,271.9 158.6,261.5 159.8,257.1 161.1,257.1 162.3,256.5 163.6,251.4 164.8,239.0 166.0,238.8 167.3,240.0 168.5,240.2 169.8,244.1 171.0,246.2 172.2,244.6 173.5,238.5 174.7,239.9 176.0,244.4 177.2,254.0 178.4,252.6 179.7,255.0 180.9,248.5 182.2,249.0 183.4,258.4 184.6,260.1 185.9,259.5 187.1,264.4 188.4,267.6 189.6,262.6 190.8,265.7 192.1,269.5 193.3,271.2 194.6,276.7 195.8,285.4 197.0,275.3 198.3,280.0 199.5,281.0 200.8,276.3 202.0,275.3 203.2,274.0 204.5,275.4 205.7,276.7 207.0,275.2 208.2,271.0 209.4,272.0 210.7,266.0 211.9,268.0 213.2,266.5 214.4,272.6 215.6,267.0 216.9,264.3 218.1,269.6 219.4,270.8 220.6,267.1 221.8,271.1 223.1,269.8 224.3,271.0 225.6,264.6 226.8,265.1 228.0,266.3 229.3,266.1 230.5,260.5 231.8,257.0 233.0,255.2 234.2,252.2 235.5,254.4 236.7,250.7 238.0,249.0 239.2,251.5 240.4,250.4 241.7,252.6 242.9,252.5 244.2,249.2 245.4,249.7 246.6,241.0 247.9,244.4 249.1,243.8 250.4,243.4 251.6,245.3 252.8,239.5 254.1,236.7 255.3,236.2 256.6,232.8 257.8,234.4 259.1,227.1 260.3,230.8 261.5,232.8 262.8,232.2 264.0,230.7 265.3,226.4 266.5,229.0 267.7,225.8 269.0,182.1 270.2,178.6 271.5,185.4 272.7,189.9 273.9,175.3 275.2,176.8 276.4,166.6 277.7,163.4 278.9,168.7 280.1,170.1 281.4,166.0 282.6,166.1 283.9,173.0 285.1,168.5 286.3,161.3 287.6,162.1 288.8,143.6 290.1,152.9 291.3,157.0 292.5,162.7 293.8,158.7 295.0,158.1 296.3,157.2 297.5,150.2 298.7,146.6 300.0,147.5 301.2,139.9 302.5,136.6 303.7,145.3 304.9,137.5 306.2,139.3 307.4,132.6 308.7,128.7 309.9,135.4 311.1,141.5 312.4,139.2 313.6,134.0 314.9,135.5 316.1,129.2 317.3,129.6 318.6,131.9 319.8,137.8 321.1,139.4 322.3,137.5 323.5,128.9 324.8,127.7 326.0,132.8 327.3,133.0 328.5,136.6 329.7,138.5 331.0,138.3 332.2,134.0 333.5,131.0 334.7,130.6 335.9,121.7 337.2,124.8 338.4,126.0 339.7,125.7 340.9,126.8 342.1,117.5 343.4,113.0 344.6,114.9 345.9,114.5 347.1,112.8 348.3,105.0 349.6,101.7 350.8,104.3 352.1,99.4 353.3,99.6 354.5,105.9 355.8,104.3 357.0,111.2 358.3,116.5 359.5,122.5 360.7,120.8 362.0,130.6 363.2,137.2 364.5,137.8 365.7,142.1 366.9,135.9 368.2,142.2 369.4,140.7 370.7,140.1 371.9,142.7 373.1,135.6 374.4,149.5 375.6,164.2 376.9,191.9 378.1,175.1 379.3,167.3 380.6,176.3 381.8,169.7 383.1,172.3 384.3,188.7 385.5,188.9 386.8,190.2 388.0,182.5 389.3,172.9 390.5,172.4 391.7,177.7 393.0,188.5 394.2,191.4 395.5,194.7 396.7,188.7 397.9,189.3 399.2,204.6 400.4,218.2 401.7,209.7 402.9,215.3 404.1,187.8 405.4,198.2 406.6,199.2 407.9,202.8 409.1,205.1 410.3,206.6 411.6,205.5 412.8,208.2 414.1,198.6 415.3,192.0 416.5,186.2 417.8,179.9 419.0,176.7 420.3,175.7 421.5,181.5 422.7,179.2 424.0,184.5 425.2,181.8 426.5,188.8 427.7,193.9 428.9,191.3 430.2,190.5 431.4,187.4 432.7,185.6 433.9,172.5 435.1,184.8 436.4,185.2 437.6,191.1 438.9,193.8 440.1,205.9 441.3,202.8 442.6,199.7 443.8,195.0 445.1,194.1 446.3,189.9 447.5,186.1 448.8,186.4 450.0,187.8 451.3,179.8 452.5,186.3 453.7,176.6 455.0,180.5 456.2,181.0 457.5,183.2 458.7,181.9 459.9,179.8 461.2,171.6 462.4,164.3 463.7,157.7 464.9,159.5 466.1,164.0 467.4,158.0 468.6,157.2 469.9,155.2 471.1,156.0 472.3,149.6 473.6,148.3 474.8,142.6 476.1,144.4 477.3,147.3 478.5,153.5 479.8,153.8 481.0,156.1 482.3,153.8 483.5,153.1 484.7,154.5 486.0,154.9 487.2,156.5 488.5,151.6 489.7,153.2 490.9,153.6 492.2,153.4 493.4,151.7 494.7,150.4 495.9,148.8 497.1,154.4 498.4,150.6 499.6,141.6 500.9,121.5 502.1,113.1 503.3,114.8 504.6,106.5 505.8,107.1 507.1,104.9 508.3,101.9 509.5,100.1 510.8,94.2 512.0,89.7 513.3,88.1 514.5,90.6 515.7,97.8 517.0,103.3 518.2,103.1 519.5,103.9 520.7,102.5 521.9,102.7 523.2,107.5 524.4,99.2 525.7,99.5 526.9,102.3 528.1,100.6 529.4,95.6 530.6,91.5 531.9,96.8 533.1,91.4 534.3,82.0 535.6,81.2 536.8,84.3 538.1,79.8 539.3,78.3 540.5,78.4 541.8,76.5 543.0,79.4 544.3,82.7 545.5,92.8 546.7,93.7 548.0,95.3 549.2,91.4 550.5,90.5 551.7,96.8 552.9,112.6 554.2,113.6 555.4,109.8 556.7,112.0 557.9,110.6 559.1,112.8 560.4,107.1 561.6,115.1 562.9,111.9 564.1,116.5 565.3,113.7 566.6,114.9 567.8,117.4 569.1,112.7 570.3,110.7 571.5,116.1 572.8,113.7 574.0,105.7 575.3,102.8 576.5,106.4 577.7,107.7 579.0,117.7 580.2,108.8 581.5,111.1 582.7,122.1 583.9,116.6 585.2,124.9 586.4,117.6 587.7,111.6 588.9,109.2 590.1,112.5 591.4,121.0 592.6,118.5 593.9,122.2 595.1,123.5 596.3,122.1 597.6,126.1 598.8,125.0 600.1,117.4 601.3,103.2 602.5,109.6 603.8,104.3 605.0,100.4 606.3,100.8 607.5,101.9 608.7,100.8 610.0,94.6 611.2,93.1 612.5,93.5 613.7,92.5 614.9,94.9 616.2,99.7 617.4,103.2 618.7,100.1 619.9,98.2 621.2,96.1 622.4,95.1 623.6,95.1 624.9,99.1 626.1,99.1 627.4,99.1 628.6,94.3 629.8,95.0 631.1,96.9 632.3,90.5 633.6,89.4 634.8,84.5 636.0,83.7 637.3,84.4 638.5,89.1 639.8,89.4 641.0,82.0 642.2,85.2 643.5,97.5 644.7,96.2 646.0,99.3 647.2,108.1 648.4,105.5 649.7,103.0 650.9,106.0 652.2,116.5 653.4,118.6 654.6,120.6 655.9,127.2 657.1,129.3 658.4,137.9 659.6,147.9 660.8,149.2 662.1,158.8 663.3,157.2 664.6,150.1 665.8,159.3 667.0,166.9 668.3,159.0 669.5,159.4 670.8,152.2 672.0,153.4 673.2,150.0 674.5,156.5 675.7,156.9 677.0,150.4 678.2,149.1 679.4,153.6 680.7,152.5 681.9,153.7 683.2,152.4 684.4,154.9 685.6,159.2 686.9,159.7 688.1,164.0 689.4,161.3 690.6,165.8 691.8,165.7 693.1,158.7 694.3,154.9 695.6,156.2 696.8,160.4 698.0,158.8 699.3,157.8 700.5,162.2 701.8,159.0 703.0,170.6 704.2,176.0 705.5,173.7 706.7,163.6 708.0,162.1 709.2,162.3 710.4,160.2 711.7,157.7 712.9,154.3 714.2,160.1 715.4,158.9 716.6,150.6 717.9,146.4 719.1,143.2 720.4,140.1 721.6,139.1 722.8,137.2 724.1,144.5 725.3,138.7 726.6,147.7 727.8,146.1 729.0,141.9 730.3,151.8 731.5,152.0 732.8,152.4 734.0,137.1 735.2,135.2 736.5,133.3 737.7,137.0 739.0,139.0 740.2,145.4 741.4,142.4 742.7,148.2 743.9,146.7 745.2,145.0 746.4,143.5 747.6,142.7 748.9,146.1 750.1,152.8 751.4,150.1 752.6,157.2 753.8,154.6 755.1,146.7 756.3,136.2 757.6,130.2 758.8,128.9 760.0,135.1 761.3,134.9 762.5,124.7 763.8,132.0 765.0,133.7 766.2,128.7 767.5,132.9 768.7,132.1 770.0,140.4 771.2,126.1 772.4,130.6 773.7,137.5 774.9,130.9 776.2,134.2 777.4,137.7 778.6,141.5 779.9,143.6 781.1,136.7 782.4,131.3 783.6,131.9 784.8,115.6 786.1,117.6 787.3,113.7 788.6,114.6 789.8,117.2 791.0,114.0 792.3,117.2 793.5,113.6 794.8,112.2 796.0,115.5"/><polyline fill="none" stroke="#16a34a" stroke-width="3" points="78.0,286.0 79.2,297.5 80.5,264.8 81.7,254.2 83.0,269.1 84.2,288.8 85.4,297.6 86.7,286.0 87.9,294.8 89.2,298.1 90.4,293.3 91.6,297.1 92.9,300.2 94.1,308.6 95.4,301.5 96.6,308.0 97.8,314.9 99.1,311.4 100.3,317.5 101.6,309.7 102.8,312.2 104.0,308.7 105.3,306.4 106.5,305.5 107.8,307.5 109.0,299.0 110.2,296.7 111.5,301.8 112.7,297.8 114.0,293.0 115.2,295.8 116.4,291.5 117.7,288.6 118.9,283.7 120.2,286.8 121.4,278.6 122.6,268.2 123.9,259.6 125.1,265.1 126.4,272.1 127.6,260.2 128.8,261.8 130.1,265.8 131.3,271.4 132.6,277.1 133.8,275.8 135.0,267.5 136.3,269.4 137.5,272.3 138.8,276.9 140.0,273.4 141.2,276.3 142.5,264.2 143.7,257.4 145.0,264.8 146.2,265.1 147.4,261.2 148.7,252.6 149.9,256.4 151.2,262.4 152.4,263.6 153.6,263.9 154.9,269.8 156.1,270.1 157.4,271.9 158.6,261.5 159.8,257.1 161.1,257.1 162.3,256.5 163.6,251.4 164.8,239.0 166.0,238.8 167.3,240.0 168.5,240.2 169.8,244.1 171.0,246.2 172.2,244.6 173.5,238.5 174.7,239.9 176.0,244.4 177.2,254.0 178.4,252.6 179.7,255.0 180.9,248.5 182.2,249.0 183.4,258.4 184.6,260.1 185.9,259.5 187.1,264.4 188.4,267.6 189.6,262.6 190.8,265.7 192.1,269.5 193.3,271.2 194.6,276.7 195.8,285.4 197.0,275.3 198.3,280.0 199.5,281.0 200.8,276.3 202.0,275.3 203.2,274.0 204.5,275.4 205.7,276.7 207.0,275.2 208.2,271.0 209.4,272.0 210.7,266.0 211.9,268.0 213.2,266.5 214.4,272.6 215.6,267.0 216.9,264.3 218.1,269.6 219.4,270.8 220.6,267.1 221.8,271.1 223.1,269.8 224.3,271.0 225.6,264.6 226.8,265.1 228.0,266.3 229.3,266.1 230.5,260.5 231.8,257.0 233.0,255.2 234.2,252.2 235.5,254.4 236.7,250.7 238.0,249.0 239.2,251.5 240.4,250.4 241.7,252.6 242.9,252.5 244.2,249.2 245.4,249.7 246.6,241.0 247.9,244.4 249.1,243.8 250.4,243.4 251.6,245.3 252.8,239.5 254.1,236.7 255.3,236.2 256.6,232.8 257.8,234.4 259.1,227.1 260.3,230.8 261.5,232.8 262.8,232.2 264.0,230.7 265.3,226.4 266.5,229.0 267.7,225.8 269.0,182.1 270.2,178.6 271.5,185.4 272.7,189.9 273.9,175.3 275.2,176.8 276.4,166.6 277.7,163.4 278.9,168.7 280.1,170.1 281.4,166.0 282.6,166.1 283.9,173.0 285.1,168.5 286.3,161.3 287.6,162.1 288.8,143.6 290.1,152.9 291.3,157.0 292.5,162.7 293.8,158.7 295.0,158.1 296.3,157.2 297.5,150.2 298.7,146.6 300.0,147.5 301.2,139.9 302.5,136.6 303.7,145.3 304.9,137.5 306.2,139.3 307.4,132.6 308.7,128.7 309.9,135.4 311.1,141.5 312.4,139.2 313.6,134.0 314.9,135.5 316.1,129.2 317.3,129.6 318.6,131.9 319.8,137.8 321.1,139.4 322.3,137.5 323.5,128.9 324.8,127.7 326.0,132.8 327.3,133.0 328.5,136.6 329.7,138.5 331.0,138.3 332.2,134.0 333.5,131.0 334.7,130.6 335.9,121.7 337.2,124.8 338.4,126.0 339.7,125.7 340.9,126.8 342.1,117.5 343.4,113.0 344.6,114.9 345.9,114.5 347.1,112.8 348.3,105.0 349.6,101.7 350.8,104.3 352.1,99.4 353.3,99.6 354.5,105.9 355.8,104.3 357.0,111.2 358.3,116.5 359.5,122.5 360.7,120.8 362.0,130.6 363.2,137.2 364.5,137.8 365.7,142.1 366.9,135.9 368.2,142.2 369.4,140.7 370.7,140.1 371.9,142.7 373.1,135.6 374.4,149.5 375.6,164.2 376.9,191.9 378.1,175.1 379.3,167.3 380.6,176.3 381.8,169.7 383.1,172.3 384.3,188.7 385.5,188.9 386.8,190.2 388.0,182.5 389.3,172.9 390.5,172.4 391.7,177.7 393.0,188.5 394.2,191.4 395.5,194.7 396.7,188.7 397.9,189.3 399.2,204.6 400.4,218.2 401.7,209.7 402.9,215.3 404.1,187.8 405.4,198.2 406.6,199.2 407.9,202.8 409.1,205.1 410.3,206.6 411.6,205.5 412.8,208.2 414.1,198.6 415.3,192.0 416.5,186.2 417.8,179.9 419.0,176.7 420.3,175.7 421.5,181.5 422.7,179.2 424.0,184.5 425.2,181.8 426.5,188.8 427.7,193.9 428.9,191.3 430.2,190.5 431.4,187.4 432.7,185.6 433.9,172.5 435.1,184.8 436.4,185.2 437.6,191.1 438.9,193.8 440.1,205.9 441.3,202.8 442.6,199.7 443.8,195.0 445.1,194.1 446.3,189.9 447.5,186.1 448.8,186.4 450.0,187.8 451.3,179.8 452.5,186.3 453.7,176.6 455.0,180.5 456.2,181.0 457.5,183.2 458.7,181.9 459.9,179.8 461.2,171.6 462.4,164.3 463.7,157.7 464.9,159.5 466.1,164.0 467.4,158.0 468.6,157.2 469.9,155.2 471.1,156.0 472.3,149.6 473.6,148.3 474.8,142.6 476.1,144.4 477.3,147.3 478.5,153.5 479.8,153.8 481.0,156.1 482.3,153.8 483.5,153.1 484.7,154.5 486.0,154.9 487.2,156.5 488.5,151.6 489.7,153.2 490.9,153.6 492.2,153.4 493.4,151.7 494.7,150.4 495.9,148.8 497.1,154.4 498.4,150.6 499.6,141.6 500.9,121.5 502.1,113.1 503.3,114.8 504.6,106.5 505.8,107.1 507.1,104.9 508.3,101.9 509.5,100.1 510.8,94.2 512.0,89.7 513.3,88.1 514.5,90.6 515.7,97.8 517.0,103.3 518.2,103.1 519.5,103.9 520.7,102.5 521.9,102.7 523.2,107.5 524.4,99.2 525.7,99.5 526.9,102.3 528.1,100.6 529.4,95.6 530.6,91.5 531.9,96.8 533.1,91.4 534.3,82.0 535.6,81.2 536.8,84.3 538.1,79.8 539.3,78.3 540.5,78.4 541.8,76.5 543.0,79.4 544.3,82.7 545.5,92.8 546.7,93.7 548.0,95.3 549.2,91.4 550.5,90.5 551.7,96.8 552.9,112.6 554.2,113.6 555.4,109.8 556.7,112.0 557.9,110.6 559.1,112.8 560.4,107.1 561.6,115.1 562.9,111.9 564.1,116.5 565.3,113.7 566.6,114.9 567.8,117.4 569.1,112.7 570.3,110.7 571.5,116.1 572.8,113.7 574.0,105.7 575.3,102.8 576.5,106.4 577.7,107.7 579.0,117.7 580.2,108.8 581.5,111.1 582.7,122.1 583.9,116.6 585.2,124.9 586.4,117.6 587.7,111.6 588.9,109.2 590.1,112.5 591.4,121.0 592.6,118.5 593.9,122.2 595.1,123.5 596.3,122.1 597.6,126.1 598.8,125.0 600.1,117.4 601.3,103.2 602.5,109.6 603.8,104.3 605.0,100.4 606.3,100.8 607.5,101.9 608.7,100.8 610.0,94.6 611.2,93.1 612.5,93.5 613.7,92.5 614.9,94.9 616.2,99.7 617.4,103.2 618.7,100.1 619.9,98.2 621.2,96.1 622.4,95.1 623.6,95.1 624.9,99.1 626.1,99.1 627.4,99.1 628.6,94.3 629.8,95.0 631.1,96.9 632.3,90.5 633.6,89.4 634.8,84.5 636.0,83.7 637.3,84.4 638.5,89.1 639.8,89.4 641.0,82.0 642.2,85.2 643.5,97.5 644.7,96.2 646.0,99.3 647.2,108.1 648.4,105.5 649.7,103.0 650.9,106.0 652.2,116.5 653.4,118.6 654.6,120.6 655.9,127.2 657.1,129.3 658.4,137.9 659.6,147.9 660.8,149.2 662.1,158.8 663.3,157.2 664.6,150.1 665.8,159.3 667.0,166.9 668.3,159.0 669.5,159.4 670.8,152.2 672.0,153.4 673.2,150.0 674.5,156.5 675.7,156.9 677.0,150.4 678.2,149.1 679.4,153.6 680.7,152.5 681.9,153.7 683.2,152.4 684.4,154.9 685.6,159.2 686.9,159.7 688.1,164.0 689.4,161.3 690.6,165.8 691.8,165.7 693.1,158.7 694.3,154.9 695.6,156.2 696.8,160.4 698.0,158.8 699.3,157.8 700.5,162.2 701.8,159.0 703.0,170.6 704.2,176.0 705.5,173.7 706.7,163.6 708.0,162.1 709.2,162.3 710.4,160.2 711.7,157.7 712.9,154.3 714.2,160.1 715.4,158.9 716.6,150.6 717.9,146.4 719.1,143.2 720.4,140.1 721.6,139.1 722.8,137.2 724.1,144.5 725.3,138.7 726.6,147.7 727.8,146.1 729.0,141.9 730.3,151.8 731.5,152.0 732.8,152.4 734.0,137.1 735.2,135.2 736.5,133.3 737.7,137.0 739.0,139.0 740.2,145.4 741.4,142.4 742.7,148.2 743.9,146.7 745.2,145.0 746.4,143.5 747.6,142.7 748.9,146.1 750.1,152.8 751.4,150.1 752.6,157.2 753.8,154.6 755.1,146.7 756.3,136.2 757.6,130.2 758.8,128.9 760.0,135.1 761.3,134.9 762.5,124.7 763.8,132.0 765.0,133.7 766.2,128.7 767.5,132.9 768.7,132.1 770.0,140.4 771.2,126.1 772.4,130.6 773.7,137.5 774.9,130.9 776.2,134.2 777.4,137.7 778.6,141.5 779.9,143.6 781.1,136.7 782.4,131.3 783.6,131.9 784.8,115.6 786.1,117.6 787.3,113.7 788.6,114.6 789.8,117.2 791.0,114.0 792.3,117.2 793.5,113.6 794.8,112.2 796.0,115.5"/>
<text x="78" y="392" font-size="11" fill="#16a34a">Total return +292.6%</text><text x="268" y="392" font-size="11" fill="#2563eb">Price-only +292.6%</text><text x="78" y="362" font-size="11" text-anchor="middle" fill="#64748b">2024-03</text><text x="258" y="362" font-size="11" text-anchor="middle" fill="#64748b">2024-10</text><text x="438" y="362" font-size="11" text-anchor="middle" fill="#64748b">2025-05</text><text x="617" y="362" font-size="11" text-anchor="middle" fill="#64748b">2025-12</text><text x="796" y="362" font-size="11" text-anchor="middle" fill="#64748b">2026-07</text></svg>