<svg xmlns="http://www.w3.org/2000/svg" width="820" height="410" viewBox="0 0 820 410">
<rect width="820" height="410" fill="#fafafa"/><text x="78" y="22" font-size="14" font-family="sans-serif" fill="#0f172a">PLWN cumulative return since 2011-04-13 | dividends reinvested</text>
<text x="78" y="40" font-size="11" font-family="sans-serif" fill="#334155">Total return +365.9% | Price-only +144.7% | logarithmic scale</text>
<text x="78" y="54" font-size="9" font-family="sans-serif" fill="#64748b">Regular $411.43 | Special $0.00 | Other $0.00 per initial share path</text>
<line x1="78" y1="332.0" x2="796" y2="332.0" stroke="#e2e8f0"/><text x="70" y="336.0" font-size="10" text-anchor="end" fill="#64748b">-19.9%</text><line x1="78" y1="302.6" x2="796" y2="302.6" stroke="#e2e8f0"/><text x="70" y="306.6" font-size="10" text-anchor="end" fill="#64748b">0%</text><line x1="78" y1="287.0" x2="796" y2="287.0" stroke="#e2e8f0"/><text x="70" y="291.0" font-size="10" text-anchor="end" fill="#64748b">+12.5%</text><line x1="78" y1="242.0" x2="796" y2="242.0" stroke="#e2e8f0"/><text x="70" y="246.0" font-size="10" text-anchor="end" fill="#64748b">+57.8%</text><line x1="78" y1="197.0" x2="796" y2="197.0" stroke="#e2e8f0"/><text x="70" y="201.0" font-size="10" text-anchor="end" fill="#64748b">+121.4%</text><line x1="78" y1="152.0" x2="796" y2="152.0" stroke="#e2e8f0"/><text x="70" y="156.0" font-size="10" text-anchor="end" fill="#64748b">+210.6%</text><line x1="78" y1="107.0" x2="796" y2="107.0" stroke="#e2e8f0"/><text x="70" y="111.0" font-size="10" text-anchor="end" fill="#64748b">+335.8%</text><line x1="78" y1="62.0" x2="796" y2="62.0" stroke="#e2e8f0"/><text x="70" y="66.0" font-size="10" text-anchor="end" fill="#64748b">+511.5%</text>
<line x1="78" y1="332" x2="796" y2="332" stroke="#cbd5e1"/>
<polyline fill="none" stroke="#2563eb" stroke-width="2" points="78.0,302.6 78.2,302.6 78.4,302.6 78.6,302.6 78.7,302.6 78.9,302.6 79.1,302.6 79.3,302.6 79.5,302.6 79.7,302.6 79.9,302.6 80.1,308.4 80.2,314.4 80.4,308.4 80.6,308.4 80.8,308.4 81.0,308.4 81.2,308.4 81.4,308.4 81.6,308.4 81.7,308.4 81.9,308.4 82.1,308.4 82.3,308.4 82.5,308.4 82.7,308.4 82.9,308.4 83.1,308.4 83.2,308.4 83.4,308.4 83.6,308.4 83.8,308.4 84.0,308.4 84.2,308.4 84.4,308.4 84.5,308.4 84.7,308.4 84.9,308.4 85.1,308.4 85.3,308.4 85.5,308.4 85.7,308.4 85.9,308.4 86.0,308.4 86.2,308.4 86.4,308.4 86.6,308.4 86.8,308.4 87.0,308.4 87.2,308.4 87.4,308.4 87.5,308.4 87.7,308.4 87.9,308.4 88.1,308.4 88.3,308.4 88.5,308.4 88.7,308.4 88.9,308.4 89.0,305.4 89.2,305.4 89.4,305.4 89.6,305.4 89.8,305.4 90.0,305.4 90.2,305.4 90.4,305.4 90.5,305.4 90.7,305.4 90.9,305.4 91.1,311.4 91.3,305.4 91.5,305.4 91.7,305.4 91.8,305.4 92.0,305.4 92.2,305.4 92.4,305.4 92.6,305.4 92.8,305.4 93.0,305.4 93.2,305.4 93.3,305.4 93.5,305.4 93.7,305.4 93.9,305.4 94.1,305.4 94.3,305.4 94.5,305.4 94.7,305.4 94.8,305.4 95.0,305.4 95.2,305.4 95.4,305.4 95.6,305.4 95.8,305.4 96.0,305.4 96.2,305.4 96.3,305.4 96.5,305.4 96.7,305.4 96.9,305.4 97.1,305.4 97.3,305.4 97.5,305.4 97.6,305.4 97.8,305.4 98.0,305.4 98.2,294.4 98.4,294.4 98.6,294.4 98.8,294.4 99.0,294.4 99.1,294.4 99.3,294.4 99.5,294.4 99.7,294.4 99.9,294.4 100.1,294.4 100.3,294.4 100.5,294.4 100.6,294.4 100.8,294.4 101.0,294.4 101.2,294.4 101.4,313.8 101.6,313.8 101.8,313.8 102.0,313.8 102.1,313.8 102.3,313.8 102.5,313.8 102.7,313.8 102.9,313.8 103.1,313.8 103.3,313.8 103.4,308.4 103.6,308.4 103.8,308.4 104.0,308.4 104.2,308.4 104.4,308.4 104.6,308.4 104.8,308.4 104.9,308.4 105.1,308.4 105.3,308.4 105.5,308.4 105.7,308.4 105.9,308.4 106.1,308.4 106.3,308.4 106.4,308.4 106.6,308.4 106.8,313.2 107.0,313.2 107.2,313.2 107.4,313.2 107.6,313.2 107.8,313.2 107.9,313.2 108.1,308.4 108.3,308.4 108.5,308.4 108.7,308.4 108.9,308.4 109.1,308.4 109.2,308.4 109.4,308.4 109.6,308.4 109.8,308.4 110.0,308.4 110.2,308.4 110.4,308.4 110.6,308.4 110.7,308.4 110.9,308.4 111.1,308.4 111.3,308.4 111.5,308.4 111.7,308.4 111.9,308.4 112.1,308.4 112.2,308.4 112.4,308.4 112.6,308.4 112.8,308.4 113.0,308.4 113.2,308.4 113.4,308.4 113.6,308.4 113.7,308.4 113.9,308.4 114.1,308.4 114.3,308.4 114.5,308.4 114.7,308.4 114.9,308.4 115.1,308.4 115.2,308.4 115.4,308.4 115.6,308.4 115.8,308.4 116.0,308.4 116.2,305.4 116.4,305.4 116.5,305.4 116.7,305.4 116.9,305.4 117.1,305.4 117.3,305.4 117.5,305.4 117.7,305.4 117.9,305.4 118.0,305.4 118.2,305.4 118.4,305.4 118.6,305.4 118.8,305.4 119.0,305.4 119.2,305.4 119.4,305.4 119.5,305.4 119.7,305.4 119.9,305.4 120.1,305.4 120.3,305.4 120.5,305.4 120.7,305.4 120.9,305.4 121.0,305.4 121.2,305.4 121.4,305.4 121.6,305.4 121.8,305.4 122.0,305.4 122.2,305.4 122.3,305.4 122.5,305.4 122.7,305.4 122.9,305.4 123.1,305.4 123.3,305.4 123.5,305.4 123.7,305.4 123.8,305.4 124.0,305.4 124.2,305.4 124.4,305.4 124.6,305.4 124.8,305.4 125.0,305.4 125.2,305.4 125.3,305.4 125.5,305.4 125.7,305.4 125.9,305.4 126.1,305.4 126.3,305.4 126.5,305.4 126.7,305.4 126.8,305.4 127.0,305.4 127.2,305.4 127.4,305.4 127.6,305.4 127.8,305.4 128.0,305.4 128.1,305.4 128.3,305.4 128.5,305.4 128.7,305.4 128.9,305.4 129.1,305.4 129.3,305.4 129.5,305.4 129.6,305.4 129.8,305.4 130.0,305.4 130.2,305.4 130.4,305.4 130.6,305.4 130.8,305.4 131.0,305.4 131.1,305.4 131.3,305.4 131.5,305.4 131.7,294.4 131.9,294.4 132.1,294.4 132.3,294.4 132.5,294.4 132.6,294.4 132.8,294.4 133.0,294.4 133.2,294.4 133.4,294.4 133.6,294.4 133.8,294.4 134.0,294.4 134.1,294.4 134.3,286.3 134.5,286.3 134.7,286.3 134.9,286.3 135.1,287.1 135.3,287.1 135.4,287.1 135.6,287.1 135.8,287.1 136.0,287.1 136.2,287.1 136.4,287.1 136.6,287.1 136.8,287.1 136.9,287.1 137.1,287.1 137.3,287.1 137.5,287.1 137.7,305.4 137.9,305.4 138.1,305.2 138.3,305.2 138.4,305.2 138.6,305.2 138.8,305.2 139.0,305.2 139.2,305.2 139.4,305.2 139.6,305.2 139.8,305.2 139.9,305.2 140.1,305.2 140.3,305.2 140.5,305.2 140.7,305.2 140.9,309.3 141.1,309.3 141.2,309.3 141.4,309.3 141.6,309.3 141.8,309.3 142.0,309.3 142.2,309.3 142.4,309.3 142.6,309.3 142.7,309.3 142.9,309.3 143.1,309.3 143.3,309.3 143.5,309.3 143.7,309.3 143.9,309.3 144.1,309.3 144.2,309.3 144.4,309.3 144.6,309.3 144.8,309.3 145.0,309.3 145.2,309.3 145.4,309.3 145.6,309.3 145.7,309.3 145.9,309.3 146.1,309.3 146.3,309.3 146.5,309.3 146.7,294.4 146.9,294.4 147.0,294.4 147.2,294.4 147.4,294.4 147.6,294.4 147.8,294.4 148.0,294.4 148.2,294.4 148.4,294.4 148.5,294.4 148.7,294.4 148.9,294.4 149.1,294.4 149.3,294.4 149.5,294.4 149.7,294.4 149.9,294.4 150.0,294.4 150.2,294.4 150.4,294.4 150.6,294.4 150.8,294.4 151.0,294.4 151.2,294.4 151.4,294.4 151.5,294.4 151.7,294.4 151.9,294.4 152.1,294.4 152.3,294.4 152.5,294.4 152.7,294.4 152.9,299.2 153.0,299.2 153.2,299.2 153.4,299.2 153.6,299.2 153.8,296.5 154.0,296.5 154.2,296.5 154.3,296.5 154.5,296.5 154.7,295.4 154.9,295.4 155.1,295.4 155.3,295.4 155.5,294.9 155.7,294.9 155.8,294.9 156.0,294.9 156.2,294.9 156.4,294.9 156.6,294.9 156.8,294.9 157.0,294.9 157.2,294.9 157.3,296.1 157.5,296.1 157.7,296.1 157.9,296.1 158.1,296.1 158.3,296.1 158.5,296.1 158.7,296.1 158.8,296.1 159.0,296.1 159.2,296.1 159.4,291.2 159.6,291.2 159.8,291.2 160.0,291.2 160.1,291.2 160.3,291.2 160.5,291.2 160.7,291.2 160.9,291.2 161.1,291.2 161.3,291.2 161.5,291.2 161.6,291.2 161.8,291.2 162.0,291.2 162.2,291.2 162.4,291.2 162.6,291.2 162.8,281.7 163.0,281.7 163.1,281.7 163.3,281.7 163.5,281.7 163.7,281.7 163.9,281.7 164.1,281.7 164.3,281.7 164.5,281.7 164.6,281.7 164.8,299.8 165.0,299.8 165.2,299.8 165.4,299.8 165.6,299.8 165.8,299.8 165.9,299.8 166.1,299.8 166.3,299.8 166.5,299.8 166.7,299.8 166.9,299.8 167.1,299.8 167.3,299.8 167.4,299.8 167.6,299.8 167.8,299.8 168.0,299.8 168.2,299.8 168.4,299.8 168.6,299.8 168.8,299.8 168.9,299.8 169.1,299.8 169.3,299.8 169.5,299.8 169.7,299.8 169.9,299.8 170.1,299.8 170.3,299.8 170.4,299.8 170.6,299.8 170.8,299.8 171.0,291.7 171.2,291.7 171.4,291.7 171.6,291.7 171.7,291.7 171.9,291.7 172.1,291.7 172.3,291.7 172.5,291.7 172.7,291.7 172.9,291.7 173.1,291.7 173.2,291.7 173.4,291.7 173.6,291.7 173.8,291.7 174.0,291.7 174.2,291.7 174.4,291.7 174.6,291.7 174.7,291.7 174.9,291.7 175.1,291.7 175.3,291.7 175.5,291.7 175.7,291.7 175.9,291.7 176.1,291.7 176.2,291.7 176.4,291.7 176.6,291.7 176.8,291.7 177.0,291.7 177.2,291.7 177.4,291.7 177.6,291.7 177.7,291.7 177.9,281.7 178.1,281.7 178.3,281.7 178.5,281.7 178.7,281.7 178.9,281.7 179.0,281.7 179.2,281.7 179.4,281.7 179.6,281.7 179.8,281.7 180.0,281.7 180.2,281.7 180.4,281.7 180.5,281.7 180.7,281.7 180.9,281.7 181.1,281.7 181.3,281.7 181.5,281.7 181.7,281.7 181.9,281.7 182.0,281.7 182.2,281.7 182.4,281.7 182.6,281.7 182.8,281.7 183.0,281.7 183.2,281.7 183.4,281.7 183.5,281.7 183.7,281.7 183.9,281.7 184.1,281.7 184.3,281.7 184.5,281.7 184.7,286.6 184.8,286.6 185.0,286.6 185.2,286.6 185.4,286.6 185.6,286.6 185.8,286.6 186.0,286.6 186.2,286.6 186.3,286.6 186.5,286.6 186.7,286.6 186.9,286.6 187.1,286.6 187.3,286.6 187.5,286.6 187.7,281.7 187.8,281.7 188.0,281.7 188.2,281.7 188.4,281.7 188.6,281.7 188.8,281.7 189.0,281.7 189.2,281.7 189.3,281.7 189.5,281.7 189.7,281.7 189.9,281.7 190.1,281.7 190.3,281.7 190.5,281.7 190.6,281.7 190.8,281.7 191.0,281.7 191.2,281.7 191.4,281.7 191.6,281.7 191.8,281.7 192.0,281.7 192.1,281.7 192.3,281.7 192.5,281.7 192.7,281.7 192.9,281.7 193.1,281.7 193.3,277.0 193.5,277.0 193.6,277.0 193.8,277.0 194.0,277.0 194.2,277.0 194.4,277.0 194.6,277.0 194.8,277.0 195.0,277.0 195.1,277.0 195.3,277.0 195.5,277.0 195.7,277.0 195.9,277.0 196.1,277.0 196.3,277.0 196.5,277.0 196.6,277.0 196.8,277.0 197.0,277.0 197.2,277.0 197.4,277.0 197.6,277.0 197.8,277.0 197.9,277.0 198.1,277.0 198.3,277.0 198.5,277.0 198.7,277.0 198.9,277.0 199.1,277.0 199.3,277.0 199.4,277.0 199.6,277.0 199.8,277.0 200.0,277.0 200.2,277.0 200.4,277.0 200.6,277.0 200.8,277.0 200.9,277.0 201.1,277.0 201.3,277.0 201.5,277.0 201.7,277.0 201.9,277.0 202.1,277.0 202.3,277.0 202.4,277.0 202.6,277.0 202.8,277.0 203.0,277.0 203.2,277.0 203.4,277.0 203.6,277.0 203.7,277.0 203.9,277.0 204.1,277.0 204.3,277.0 204.5,277.0 204.7,277.0 204.9,277.0 205.1,277.0 205.2,277.0 205.4,277.0 205.6,277.0 205.8,277.0 206.0,277.0 206.2,277.0 206.4,277.0 206.6,277.0 206.7,277.0 206.9,277.0 207.1,277.0 207.3,277.0 207.5,276.5 207.7,276.5 207.9,276.5 208.1,276.5 208.2,276.5 208.4,276.5 208.6,276.5 208.8,276.5 209.0,276.5 209.2,276.5 209.4,276.5 209.5,276.5 209.7,276.5 209.9,276.5 210.1,276.5 210.3,276.5 210.5,276.5 210.7,276.5 210.9,276.5 211.0,276.5 211.2,276.5 211.4,276.5 211.6,276.5 211.8,276.5 212.0,276.5 212.2,276.5 212.4,276.5 212.5,276.5 212.7,276.5 212.9,276.5 213.1,276.5 213.3,276.5 213.5,276.5 213.7,276.5 213.9,276.5 214.0,274.7 214.2,272.4 214.4,272.4 214.6,272.4 214.8,272.4 215.0,272.4 215.2,272.4 215.4,272.4 215.5,272.4 215.7,272.4 215.9,272.4 216.1,272.4 216.3,272.4 216.5,272.4 216.7,272.4 216.8,272.4 217.0,272.4 217.2,272.4 217.4,272.4 217.6,272.4 217.8,272.4 218.0,272.4 218.2,272.4 218.3,272.4 218.5,272.4 218.7,272.4 218.9,272.4 219.1,272.4 219.3,272.4 219.5,272.4 219.7,272.4 219.8,272.4 220.0,272.4 220.2,272.4 220.4,272.4 220.6,272.4 220.8,272.4 221.0,272.4 221.2,272.4 221.3,272.4 221.5,272.4 221.7,272.4 221.9,272.4 222.1,272.4 222.3,272.4 222.5,272.4 222.6,272.4 222.8,272.4 223.0,272.4 223.2,272.4 223.4,272.4 223.6,272.4 223.8,272.4 224.0,272.4 224.1,272.4 224.3,272.4 224.5,272.4 224.7,272.4 224.9,272.4 225.1,272.4 225.3,272.4 225.5,272.4 225.6,272.4 225.8,272.4 226.0,272.4 226.2,272.4 226.4,272.4 226.6,272.4 226.8,272.4 227.0,272.4 227.1,272.4 227.3,272.4 227.5,271.5 227.7,271.5 227.9,271.5 228.1,271.5 228.3,271.5 228.4,271.5 228.6,271.5 228.8,271.5 229.0,271.5 229.2,271.5 229.4,271.5 229.6,271.5 229.8,271.5 229.9,271.5 230.1,271.5 230.3,271.5 230.5,271.5 230.7,271.5 230.9,271.5 231.1,271.5 231.3,271.5 231.4,271.5 231.6,271.5 231.8,271.5 232.0,271.5 232.2,271.5 232.4,271.5 232.6,271.5 232.8,271.5 232.9,271.5 233.1,271.5 233.3,271.5 233.5,271.5 233.7,271.5 233.9,271.5 234.1,271.5 234.2,271.5 234.4,271.5 234.6,271.5 234.8,271.5 235.0,271.5 235.2,271.5 235.4,271.5 235.6,270.1 235.7,270.1 235.9,270.1 236.1,270.1 236.3,270.1 236.5,270.1 236.7,270.1 236.9,270.1 237.1,270.1 237.2,270.1 237.4,270.1 237.6,270.1 237.8,270.1 238.0,270.1 238.2,270.1 238.4,270.1 238.6,270.1 238.7,270.1 238.9,270.1 239.1,270.1 239.3,270.1 239.5,270.1 239.7,270.1 239.9,270.1 240.1,270.1 240.2,271.5 240.4,271.5 240.6,271.5 240.8,271.5 241.0,271.5 241.2,271.5 241.4,271.5 241.5,271.5 241.7,271.5 241.9,271.5 242.1,271.5 242.3,271.5 242.5,271.5 242.7,271.5 242.9,271.5 243.0,271.5 243.2,271.5 243.4,271.5 243.6,271.5 243.8,271.5 244.0,271.5 244.2,270.1 244.4,270.1 244.5,270.1 244.7,270.1 244.9,270.1 245.1,270.1 245.3,270.1 245.5,270.1 245.7,270.1 245.9,270.1 246.0,270.1 246.2,270.1 246.4,270.1 246.6,270.1 246.8,270.1 247.0,270.1 247.2,270.1 247.3,270.1 247.5,270.1 247.7,270.1 247.9,270.1 248.1,270.1 248.3,270.1 248.5,270.1 248.7,270.1 248.8,270.1 249.0,270.1 249.2,270.1 249.4,270.1 249.6,270.1 249.8,270.1 250.0,270.1 250.2,270.1 250.3,270.1 250.5,270.1 250.7,270.1 250.9,270.1 251.1,270.1 251.3,270.1 251.5,270.1 251.7,270.1 251.8,270.1 252.0,270.1 252.2,270.1 252.4,270.1 252.6,270.1 252.8,270.1 253.0,270.1 253.1,270.1 253.3,270.1 253.5,270.1 253.7,270.1 253.9,263.7 254.1,263.7 254.3,263.7 254.5,263.7 254.6,263.7 254.8,263.7 255.0,263.7 255.2,263.7 255.4,263.7 255.6,263.7 255.8,263.7 256.0,263.7 256.1,263.7 256.3,263.7 256.5,263.7 256.7,263.7 256.9,263.7 257.1,263.7 257.3,263.7 257.5,263.7 257.6,263.7 257.8,263.7 258.0,263.7 258.2,263.7 258.4,263.7 258.6,263.7 258.8,263.7 259.0,263.7 259.1,263.7 259.3,263.7 259.5,263.7 259.7,263.7 259.9,263.7 260.1,263.7 260.3,263.7 260.4,263.7 260.6,263.7 260.8,263.7 261.0,257.5 261.2,257.5 261.4,257.5 261.6,257.5 261.8,257.5 261.9,257.5 262.1,257.5 262.3,257.5 262.5,257.5 262.7,257.5 262.9,257.5 263.1,257.5 263.3,257.5 263.4,257.5 263.6,257.5 263.8,257.5 264.0,257.5 264.2,257.5 264.4,257.5 264.6,257.5 264.8,257.5 264.9,257.5 265.1,257.5 265.3,257.5 265.5,257.5 265.7,257.5 265.9,257.5 266.1,257.5 266.2,257.5 266.4,257.5 266.6,257.5 266.8,257.5 267.0,257.5 267.2,257.5 267.4,257.5 267.6,257.5 267.7,257.5 267.9,257.5 268.1,257.5 268.3,257.5 268.5,257.5 268.7,257.5 268.9,257.5 269.1,257.5 269.2,257.5 269.4,257.5 269.6,274.7 269.8,274.7 270.0,274.7 270.2,274.7 270.4,274.7 270.6,274.7 270.7,270.1 270.9,270.1 271.1,270.1 271.3,270.1 271.5,270.1 271.7,270.1 271.9,270.1 272.0,270.1 272.2,270.1 272.4,270.1 272.6,272.4 272.8,272.4 273.0,272.4 273.2,272.4 273.4,272.4 273.5,272.4 273.7,272.4 273.9,272.4 274.1,272.4 274.3,272.4 274.5,272.4 274.7,272.4 274.9,272.4 275.0,272.4 275.2,272.4 275.4,272.4 275.6,272.4 275.8,272.4 276.0,272.4 276.2,272.4 276.4,272.4 276.5,272.4 276.7,272.4 276.9,272.4 277.1,272.4 277.3,272.4 277.5,272.4 277.7,270.6 277.8,272.4 278.0,272.4 278.2,272.4 278.4,272.4 278.6,272.4 278.8,272.4 279.0,272.4 279.2,272.4 279.3,286.6 279.5,286.6 279.7,286.6 279.9,286.6 280.1,286.6 280.3,286.6 280.5,279.8 280.7,279.8 280.8,279.8 281.0,279.8 281.2,279.8 281.4,279.8 281.6,279.8 281.8,279.8 282.0,279.8 282.2,279.8 282.3,279.8 282.5,279.8 282.7,279.8 282.9,279.8 283.1,279.8 283.3,279.8 283.5,279.8 283.7,279.8 283.8,279.8 284.0,279.8 284.2,279.8 284.4,279.8 284.6,279.8 284.8,279.8 285.0,279.8 285.1,279.8 285.3,279.8 285.5,279.8 285.7,279.8 285.9,279.8 286.1,279.8 286.3,279.8 286.5,279.8 286.6,279.8 286.8,279.8 287.0,279.8 287.2,279.8 287.4,279.8 287.6,279.8 287.8,279.8 288.0,279.8 288.1,279.8 288.3,279.8 288.5,279.8 288.7,279.8 288.9,279.8 289.1,279.8 289.3,279.8 289.5,279.8 289.6,279.8 289.8,279.8 290.0,279.8 290.2,279.8 290.4,279.8 290.6,279.8 290.8,279.8 290.9,279.8 291.1,279.8 291.3,279.8 291.5,279.8 291.7,279.8 291.9,279.8 292.1,279.8 292.3,279.8 292.4,279.8 292.6,279.8 292.8,279.8 293.0,279.8 293.2,279.8 293.4,279.8 293.6,279.8 293.8,279.8 293.9,279.8 294.1,279.8 294.3,279.8 294.5,279.8 294.7,279.8 294.9,279.8 295.1,279.8 295.3,279.8 295.4,279.8 295.6,279.8 295.8,279.8 296.0,279.8 296.2,279.8 296.4,279.8 296.6,279.8 296.7,279.8 296.9,279.8 297.1,279.8 297.3,279.8 297.5,279.8 297.7,279.8 297.9,279.8 298.1,273.4 298.2,273.4 298.4,273.4 298.6,273.4 298.8,273.4 299.0,273.4 299.2,273.4 299.4,273.4 299.6,273.4 299.7,273.4 299.9,273.4 300.1,273.4 300.3,273.4 300.5,273.4 300.7,273.4 300.9,273.4 301.1,273.4 301.2,281.7 301.4,281.7 301.6,281.7 301.8,281.7 302.0,281.7 302.2,281.7 302.4,281.7 302.6,281.7 302.7,281.7 302.9,281.7 303.1,281.7 303.3,281.7 303.5,281.7 303.7,281.7 303.9,286.6 304.0,286.6 304.2,286.6 304.4,286.6 304.6,286.6 304.8,286.6 305.0,286.6 305.2,286.6 305.4,286.6 305.5,286.6 305.7,286.6 305.9,286.6 306.1,286.6 306.3,284.1 306.5,284.1 306.7,284.1 306.9,284.1 307.0,284.1 307.2,284.1 307.4,284.1 307.6,284.1 307.8,284.1 308.0,284.1 308.2,284.1 308.4,284.1 308.5,284.1 308.7,284.1 308.9,284.1 309.1,284.1 309.3,284.1 309.5,284.1 309.7,284.1 309.8,284.1 310.0,284.1 310.2,284.1 310.4,284.1 310.6,284.1 310.8,284.1 311.0,284.1 311.2,284.1 311.3,284.1 311.5,284.1 311.7,284.1 311.9,284.1 312.1,284.1 312.3,284.1 312.5,284.1 312.7,284.1 312.8,284.1 313.0,286.6 313.2,286.6 313.4,286.6 313.6,286.6 313.8,286.6 314.0,286.6 314.2,286.6 314.3,286.6 314.5,286.6 314.7,286.6 314.9,286.6 315.1,286.6 315.3,286.6 315.5,286.5 315.6,286.5 315.8,288.1 316.0,288.1 316.2,289.2 316.4,289.2 316.6,289.2 316.8,294.4 317.0,294.4 317.1,294.4 317.3,294.4 317.5,294.4 317.7,294.4 317.9,294.4 318.1,294.4 318.3,294.4 318.5,294.4 318.6,294.4 318.8,294.4 319.0,294.4 319.2,294.4 319.4,294.4 319.6,294.4 319.8,294.4 320.0,294.4 320.1,294.4 320.3,294.4 320.5,294.4 320.7,294.4 320.9,294.4 321.1,294.4 321.3,294.4 321.5,297.1 321.6,299.8 321.8,299.8 322.0,299.8 322.2,299.8 322.4,299.8 322.6,300.9 322.8,300.9 322.9,305.4 323.1,305.4 323.3,305.4 323.5,317.5 323.7,317.5 323.9,317.5 324.1,317.5 324.3,300.9 324.4,300.9 324.6,300.9 324.8,299.8 325.0,299.8 325.2,299.8 325.4,299.8 325.6,299.8 325.8,299.8 325.9,289.2 326.1,289.2 326.3,289.2 326.5,289.2 326.7,289.2 326.9,289.2 327.1,289.2 327.3,289.2 327.4,289.2 327.6,289.2 327.8,289.2 328.0,289.2 328.2,289.2 328.4,289.2 328.6,289.2 328.7,289.2 328.9,289.2 329.1,289.2 329.3,289.2 329.5,289.2 329.7,289.2 329.9,289.2 330.1,289.2 330.2,289.2 330.4,289.2 330.6,289.2 330.8,289.2 331.0,289.2 331.2,289.2 331.4,289.2 331.6,289.2 331.7,289.2 331.9,289.2 332.1,289.2 332.3,289.2 332.5,289.2 332.7,289.2 332.9,281.7 333.1,281.7 333.2,281.7 333.4,281.7 333.6,281.7 333.8,281.7 334.0,281.7 334.2,281.7 334.4,281.7 334.5,281.7 334.7,281.7 334.9,281.7 335.1,299.8 335.3,299.8 335.5,315.7 335.7,315.7 335.9,307.2 336.0,307.2 336.2,307.2 336.4,307.2 336.6,307.2 336.8,307.2 337.0,307.2 337.2,307.2 337.4,307.2 337.5,307.2 337.7,307.2 337.9,307.2 338.1,307.2 338.3,307.2 338.5,307.2 338.7,307.2 338.9,307.2 339.0,307.2 339.2,307.2 339.4,307.2 339.6,307.2 339.8,307.2 340.0,307.2 340.2,307.2 340.3,307.2 340.5,307.2 340.7,307.2 340.9,307.2 341.1,307.2 341.3,307.2 341.5,307.2 341.7,308.4 341.8,308.4 342.0,308.4 342.2,308.4 342.4,308.4 342.6,307.8 342.8,307.8 343.0,307.8 343.2,307.8 343.3,307.8 343.5,311.4 343.7,311.4 343.9,311.4 344.1,311.4 344.3,311.4 344.5,311.4 344.7,311.4 344.8,311.4 345.0,311.4 345.2,311.4 345.4,311.4 345.6,311.4 345.8,311.4 346.0,311.4 346.2,311.4 346.3,311.4 346.5,311.4 346.7,311.4 346.9,311.4 347.1,311.4 347.3,311.4 347.5,311.4 347.6,311.4 347.8,311.4 348.0,311.4 348.2,311.4 348.4,311.4 348.6,294.4 348.8,294.4 349.0,294.4 349.1,294.4 349.3,294.4 349.5,294.4 349.7,294.4 349.9,294.4 350.1,294.4 350.3,294.4 350.5,294.4 350.6,294.4 350.8,294.4 351.0,294.4 351.2,302.6 351.4,302.6 351.6,302.6 351.8,302.6 352.0,302.6 352.1,302.6 352.3,302.6 352.5,302.6 352.7,302.6 352.9,302.6 353.1,302.6 353.3,302.6 353.4,302.6 353.6,302.6 353.8,302.6 354.0,302.6 354.2,302.6 354.4,302.6 354.6,302.6 354.8,302.6 354.9,302.6 355.1,302.6 355.3,302.6 355.5,302.6 355.7,302.6 355.9,302.6 356.1,302.6 356.3,302.6 356.4,302.6 356.6,302.6 356.8,302.6 357.0,302.6 357.2,302.6 357.4,302.6 357.6,302.6 357.8,302.6 357.9,302.6 358.1,302.6 358.3,302.6 358.5,302.6 358.7,302.6 358.9,302.6 359.1,302.6 359.2,302.6 359.4,302.6 359.6,302.6 359.8,302.6 360.0,302.6 360.2,302.6 360.4,302.6 360.6,302.6 360.7,302.6 360.9,302.6 361.1,302.6 361.3,302.6 361.5,302.6 361.7,302.6 361.9,302.6 362.1,302.6 362.2,302.6 362.4,302.6 362.6,302.6 362.8,302.6 363.0,302.6 363.2,302.6 363.4,302.6 363.6,302.6 363.7,302.6 363.9,302.6 364.1,302.6 364.3,302.6 364.5,302.6 364.7,313.8 364.9,313.8 365.1,313.8 365.2,313.8 365.4,313.8 365.6,313.8 365.8,313.8 366.0,312.1 366.2,311.4 366.4,311.4 366.5,311.4 366.7,311.4 366.9,311.4 367.1,311.4 367.3,311.4 367.5,311.4 367.7,311.4 367.9,311.4 368.0,311.4 368.2,311.4 368.4,311.4 368.6,311.4 368.8,311.4 369.0,311.4 369.2,311.4 369.4,311.4 369.5,311.4 369.7,311.4 369.9,311.4 370.1,311.4 370.3,311.4 370.5,311.4 370.7,311.4 370.9,311.4 371.0,311.4 371.2,311.4 371.4,311.4 371.6,311.4 371.8,311.4 372.0,311.4 372.2,311.4 372.3,311.4 372.5,311.4 372.7,311.4 372.9,311.4 373.1,311.4 373.3,311.4 373.5,311.4 373.7,311.4 373.8,311.4 374.0,311.4 374.2,311.4 374.4,311.4 374.6,311.4 374.8,311.4 375.0,311.4 375.2,311.4 375.3,311.4 375.5,311.4 375.7,311.4 375.9,311.4 376.1,311.4 376.3,311.4 376.5,311.4 376.7,311.4 376.8,311.4 377.0,311.4 377.2,311.4 377.4,311.4 377.6,311.4 377.8,311.4 378.0,311.4 378.1,311.4 378.3,311.4 378.5,311.4 378.7,311.4 378.9,311.4 379.1,311.4 379.3,311.4 379.5,311.4 379.6,311.4 379.8,302.6 380.0,302.6 380.2,302.6 380.4,294.4 380.6,294.4 380.8,294.4 381.0,294.4 381.1,294.4 381.3,294.4 381.5,294.4 381.7,294.4 381.9,294.4 382.1,294.4 382.3,294.4 382.5,294.4 382.6,294.4 382.8,294.4 383.0,294.4 383.2,294.4 383.4,311.4 383.6,311.4 383.8,311.4 383.9,311.4 384.1,311.4 384.3,311.4 384.5,311.4 384.7,311.4 384.9,311.4 385.1,311.4 385.3,311.4 385.4,311.4 385.6,311.4 385.8,311.4 386.0,311.4 386.2,311.4 386.4,311.4 386.6,311.4 386.8,311.4 386.9,311.4 387.1,311.4 387.3,311.4 387.5,311.4 387.7,311.4 387.9,311.4 388.1,311.4 388.3,311.4 388.4,311.4 388.6,311.4 388.8,311.4 389.0,311.4 389.2,317.5 389.4,317.5 389.6,317.5 389.8,317.5 389.9,317.5 390.1,317.5 390.3,317.5 390.5,317.5 390.7,317.5 390.9,317.5 391.1,317.5 391.2,317.5 391.4,317.5 391.6,317.5 391.8,317.5 392.0,317.5 392.2,317.5 392.4,317.5 392.6,317.5 392.7,317.5 392.9,317.5 393.1,317.5 393.3,317.5 393.5,294.4 393.7,289.2 393.9,289.2 394.1,289.2 394.2,289.2 394.4,289.2 394.6,289.2 394.8,289.2 395.0,289.2 395.2,289.2 395.4,289.2 395.6,289.2 395.7,289.2 395.9,289.2 396.1,289.2 396.3,289.2 396.5,289.2 396.7,289.2 396.9,289.2 397.0,289.2 397.2,289.2 397.4,289.2 397.6,289.2 397.8,289.2 398.0,289.2 398.2,289.2 398.4,289.2 398.5,289.2 398.7,289.2 398.9,289.2 399.1,289.2 399.3,289.2 399.5,289.2 399.7,289.2 399.9,289.2 400.0,289.2 400.2,289.2 400.4,289.2 400.6,289.2 400.8,289.2 401.0,289.2 401.2,289.2 401.4,289.2 401.5,301.4 401.7,301.4 401.9,301.4 402.1,301.4 402.3,301.4 402.5,301.4 402.7,301.4 402.8,301.4 403.0,301.4 403.2,301.4 403.4,301.4 403.6,301.4 403.8,301.4 404.0,301.4 404.2,274.7 404.3,274.7 404.5,274.7 404.7,274.7 404.9,274.7 405.1,274.7 405.3,274.7 405.5,301.4 405.7,301.4 405.8,301.4 406.0,301.4 406.2,301.4 406.4,301.4 406.6,301.4 406.8,301.4 407.0,301.4 407.2,301.4 407.3,301.4 407.5,301.4 407.7,293.3 407.9,293.3 408.1,293.3 408.3,293.3 408.5,293.3 408.7,289.2 408.8,289.2 409.0,289.2 409.2,289.2 409.4,289.2 409.6,289.2 409.8,289.2 410.0,289.2 410.1,289.2 410.3,289.2 410.5,284.1 410.7,284.1 410.9,284.1 411.1,284.1 411.3,284.1 411.5,284.1 411.6,284.1 411.8,284.1 412.0,284.1 412.2,284.1 412.4,284.1 412.6,284.1 412.8,284.1 413.0,284.1 413.1,284.1 413.3,284.1 413.5,284.1 413.7,284.1 413.9,284.1 414.1,284.1 414.3,284.1 414.5,284.1 414.6,284.1 414.8,284.1 415.0,284.1 415.2,284.1 415.4,284.1 415.6,284.1 415.8,284.1 415.9,284.1 416.1,284.1 416.3,284.1 416.5,284.1 416.7,284.1 416.9,284.1 417.1,272.9 417.3,284.1 417.4,284.1 417.6,284.1 417.8,284.1 418.0,284.1 418.2,284.1 418.4,272.9 418.6,272.9 418.8,272.9 418.9,272.9 419.1,272.9 419.3,272.9 419.5,272.9 419.7,272.9 419.9,272.9 420.1,272.9 420.3,272.9 420.4,272.9 420.6,272.9 420.8,272.9 421.0,272.9 421.2,272.9 421.4,272.9 421.6,272.9 421.7,272.9 421.9,272.9 422.1,272.9 422.3,272.9 422.5,270.1 422.7,270.1 422.9,270.1 423.1,270.1 423.2,270.1 423.4,270.1 423.6,270.1 423.8,270.1 424.0,270.1 424.2,270.1 424.4,270.1 424.6,270.1 424.7,270.1 424.9,270.1 425.1,270.1 425.3,270.1 425.5,270.1 425.7,308.4 425.9,308.4 426.1,308.4 426.2,308.4 426.4,308.4 426.6,308.4 426.8,308.4 427.0,308.4 427.2,308.4 427.4,308.4 427.6,308.4 427.7,308.4 427.9,308.4 428.1,305.4 428.3,281.7 428.5,281.7 428.7,277.0 428.9,281.7 429.0,273.3 429.2,273.3 429.4,269.3 429.6,269.3 429.8,269.3 430.0,269.3 430.2,269.3 430.4,269.3 430.5,269.3 430.7,269.3 430.9,269.3 431.1,269.3 431.3,269.3 431.5,269.3 431.7,269.3 431.9,269.3 432.0,269.3 432.2,269.3 432.4,269.3 432.6,269.3 432.8,269.3 433.0,269.3 433.2,269.3 433.4,269.3 433.5,269.3 433.7,269.3 433.9,269.3 434.1,269.3 434.3,269.3 434.5,269.3 434.7,269.3 434.8,269.3 435.0,269.3 435.2,269.3 435.4,266.6 435.6,266.6 435.8,266.6 436.0,266.6 436.2,266.6 436.3,266.6 436.5,266.6 436.7,266.6 436.9,266.6 437.1,266.6 437.3,266.6 437.5,266.6 437.7,266.6 437.8,266.6 438.0,266.6 438.2,266.6 438.4,266.6 438.6,266.6 438.8,266.6 439.0,266.6 439.2,266.6 439.3,266.6 439.5,281.7 439.7,281.7 439.9,281.7 440.1,281.7 440.3,281.7 440.5,281.7 440.6,281.7 440.8,281.7 441.0,281.7 441.2,281.7 441.4,281.7 441.6,281.7 441.8,281.7 442.0,281.7 442.1,281.7 442.3,281.7 442.5,281.7 442.7,281.7 442.9,281.7 443.1,281.7 443.3,281.7 443.5,281.7 443.6,281.7 443.8,281.7 444.0,281.7 444.2,302.6 444.4,302.6 444.6,302.6 444.8,302.6 445.0,302.6 445.1,302.6 445.3,302.6 445.5,302.6 445.7,302.6 445.9,302.6 446.1,302.6 446.3,302.6 446.4,302.6 446.6,302.6 446.8,302.6 447.0,302.6 447.2,302.6 447.4,302.6 447.6,302.6 447.8,302.6 447.9,302.6 448.1,302.6 448.3,277.0 448.5,277.4 448.7,277.4 448.9,277.4 449.1,277.4 449.3,277.4 449.4,277.4 449.6,277.4 449.8,277.4 450.0,277.4 450.2,277.4 450.4,277.4 450.6,293.8 450.8,293.8 450.9,293.8 451.1,293.8 451.3,293.8 451.5,293.8 451.7,293.8 451.9,293.8 452.1,293.8 452.3,279.3 452.4,279.3 452.6,279.3 452.8,279.3 453.0,277.0 453.2,277.0 453.4,277.0 453.6,277.0 453.7,277.0 453.9,277.0 454.1,277.0 454.3,276.0 454.5,276.0 454.7,263.8 454.9,263.8 455.1,263.8 455.2,263.8 455.4,263.8 455.6,263.8 455.8,280.7 456.0,280.7 456.2,280.7 456.4,280.7 456.6,280.7 456.7,280.7 456.9,280.7 457.1,280.7 457.3,280.7 457.5,280.7 457.7,280.7 457.9,280.7 458.1,280.7 458.2,280.7 458.4,280.7 458.6,280.7 458.8,280.7 459.0,280.7 459.2,280.7 459.4,280.7 459.5,280.7 459.7,280.7 459.9,280.7 460.1,280.7 460.3,280.7 460.5,280.7 460.7,280.7 460.9,280.7 461.0,280.7 461.2,280.7 461.4,280.7 461.6,280.7 461.8,280.7 462.0,280.7 462.2,280.7 462.4,280.7 462.5,280.7 462.7,280.7 462.9,280.7 463.1,280.7 463.3,280.7 463.5,280.7 463.7,280.7 463.9,280.7 464.0,279.3 464.2,279.3 464.4,279.3 464.6,279.3 464.8,279.3 465.0,279.3 465.2,279.3 465.3,279.3 465.5,279.3 465.7,279.3 465.9,279.3 466.1,279.3 466.3,279.3 466.5,279.3 466.7,277.0 466.8,277.0 467.0,277.0 467.2,277.0 467.4,280.2 467.6,280.2 467.8,280.2 468.0,284.1 468.2,279.8 468.3,279.8 468.5,279.8 468.7,281.7 468.9,281.7 469.1,281.7 469.3,281.7 469.5,281.7 469.7,281.7 469.8,281.7 470.0,281.7 470.2,281.7 470.4,281.7 470.6,281.7 470.8,293.3 471.0,293.3 471.2,281.7 471.3,287.4 471.5,287.4 471.7,287.4 471.9,287.4 472.1,287.4 472.3,281.7 472.5,285.6 472.6,285.6 472.8,285.6 473.0,300.8 473.2,300.8 473.4,300.8 473.6,300.8 473.8,300.8 474.0,300.8 474.1,281.7 474.3,281.7 474.5,281.7 474.7,281.7 474.9,281.7 475.1,281.7 475.3,281.7 475.5,281.7 475.6,281.7 475.8,285.6 476.0,285.6 476.2,284.1 476.4,284.1 476.6,284.1 476.8,284.1 477.0,284.1 477.1,284.1 477.3,284.1 477.5,284.1 477.7,284.1 477.9,284.1 478.1,284.1 478.3,284.1 478.4,281.7 478.6,281.7 478.8,281.7 479.0,281.7 479.2,281.7 479.4,281.7 479.6,281.7 479.8,281.7 479.9,281.7 480.1,281.7 480.3,281.7 480.5,281.7 480.7,281.7 480.9,281.7 481.1,281.7 481.3,281.7 481.4,281.7 481.6,281.7 481.8,281.7 482.0,277.0 482.2,277.0 482.4,277.0 482.6,277.0 482.8,277.0 482.9,277.0 483.1,277.0 483.3,277.0 483.5,277.0 483.7,277.0 483.9,270.2 484.1,270.2 484.2,270.2 484.4,270.2 484.6,270.1 484.8,270.1 485.0,270.1 485.2,270.1 485.4,270.1 485.6,270.1 485.7,270.1 485.9,270.1 486.1,270.1 486.3,270.1 486.5,270.1 486.7,270.1 486.9,270.1 487.1,270.1 487.2,270.1 487.4,270.1 487.6,270.1 487.8,270.1 488.0,280.7 488.2,280.7 488.4,280.7 488.6,280.7 488.7,280.7 488.9,271.8 489.1,280.7 489.3,271.9 489.5,271.5 489.7,270.1 489.9,270.1 490.1,270.1 490.2,270.1 490.4,270.1 490.6,270.1 490.8,276.0 491.0,267.0 491.2,267.0 491.4,270.1 491.5,270.1 491.7,265.8 491.9,265.8 492.1,270.1 492.3,270.1 492.5,270.1 492.7,271.0 492.9,271.1 493.0,271.1 493.2,265.8 493.4,265.8 493.6,265.8 493.8,265.8 494.0,253.5 494.2,261.6 494.4,255.5 494.5,255.5 494.7,261.6 494.9,261.6 495.1,261.6 495.3,261.6 495.5,261.6 495.7,310.2 495.9,262.0 496.0,262.0 496.2,263.8 496.4,263.8 496.6,263.8 496.8,263.8 497.0,263.8 497.2,263.7 497.3,263.7 497.5,269.3 497.7,269.7 497.9,265.8 498.1,270.1 498.3,270.1 498.5,270.1 498.7,270.1 498.8,270.1 499.0,270.1 499.2,265.8 499.4,265.8 499.6,270.1 499.8,270.1 500.0,265.8 500.2,261.6 500.3,261.6 500.5,261.6 500.7,261.6 500.9,246.7 501.1,246.7 501.3,246.6 501.5,231.9 501.7,202.0 501.8,216.3 502.0,216.3 502.2,216.3 502.4,216.3 502.6,216.3 502.8,216.3 503.0,209.1 503.1,209.1 503.3,223.9 503.5,223.9 503.7,223.9 503.9,223.9 504.1,223.9 504.3,223.9 504.5,223.9 504.6,223.6 504.8,223.6 505.0,223.6 505.2,223.2 505.4,216.3 505.6,213.4 505.8,213.4 506.0,213.4 506.1,213.4 506.3,213.4 506.5,223.2 506.7,223.2 506.9,223.2 507.1,210.5 507.3,216.0 507.5,216.0 507.6,216.0 507.8,216.0 508.0,216.0 508.2,216.0 508.4,216.0 508.6,216.0 508.8,216.0 508.9,216.0 509.1,209.1 509.3,216.0 509.5,216.0 509.7,216.0 509.9,216.0 510.1,223.6 510.3,223.6 510.4,223.3 510.6,222.3 510.8,217.8 511.0,217.8 511.2,217.8 511.4,222.9 511.6,222.9 511.8,222.9 511.9,222.9 512.1,219.3 512.3,222.3 512.5,222.3 512.7,216.3 512.9,216.3 513.1,216.3 513.3,216.3 513.4,216.0 513.6,207.7 513.8,207.7 514.0,207.7 514.2,207.7 514.4,207.7 514.6,207.7 514.8,203.6 514.9,202.3 515.1,202.3 515.3,202.3 515.5,202.3 515.7,202.3 515.9,202.3 516.1,210.5 516.2,210.5 516.4,210.5 516.6,213.1 516.8,213.1 517.0,213.1 517.2,202.3 517.4,202.3 517.6,202.3 517.7,202.3 517.9,202.3 518.1,202.3 518.3,202.3 518.5,202.3 518.7,180.3 518.9,178.0 519.1,178.0 519.2,212.8 519.4,212.8 519.6,212.8 519.8,213.4 520.0,213.4 520.2,213.4 520.4,213.4 520.6,207.7 520.7,207.4 520.9,202.5 521.1,202.5 521.3,202.3 521.5,202.3 521.7,202.3 521.9,202.3 522.0,211.1 522.2,211.1 522.4,203.6 522.6,203.6 522.8,180.5 523.0,180.5 523.2,210.4 523.4,210.4 523.5,210.4 523.7,210.4 523.9,210.4 524.1,210.4 524.3,210.4 524.5,210.4 524.7,210.4 524.9,210.4 525.0,210.4 525.2,210.4 525.4,210.4 525.6,210.4 525.8,210.4 526.0,210.4 526.2,210.4 526.4,210.4 526.5,202.0 526.7,202.0 526.9,202.0 527.1,202.3 527.3,202.3 527.5,208.3 527.7,208.3 527.8,208.3 528.0,208.3 528.2,208.3 528.4,208.3 528.6,208.3 528.8,208.3 529.0,208.3 529.2,208.3 529.3,195.8 529.5,195.8 529.7,195.8 529.9,195.8 530.1,195.8 530.3,195.8 530.5,207.7 530.7,207.7 530.8,189.9 531.0,189.9 531.2,189.9 531.4,189.9 531.6,189.9 531.8,189.6 532.0,189.6 532.2,195.8 532.3,202.3 532.5,202.3 532.7,202.3 532.9,202.3 533.1,195.8 533.3,195.8 533.5,195.8 533.7,195.8 533.8,195.8 534.0,195.8 534.2,195.8 534.4,195.8 534.6,195.8 534.8,195.8 535.0,195.8 535.1,199.6 535.3,199.6 535.5,199.6 535.7,199.6 535.9,199.6 536.1,200.2 536.3,200.2 536.5,200.2 536.6,190.8 536.8,190.8 537.0,190.8 537.2,190.8 537.4,189.6 537.6,189.6 537.8,189.6 538.0,189.6 538.1,189.6 538.3,189.6 538.5,189.6 538.7,189.6 538.9,189.6 539.1,189.6 539.3,189.6 539.5,189.6 539.6,189.7 539.8,189.7 540.0,192.0 540.2,192.0 540.4,192.0 540.6,192.0 540.8,192.0 540.9,192.0 541.1,192.0 541.3,192.0 541.5,192.0 541.7,189.6 541.9,182.8 542.1,182.8 542.3,182.8 542.4,182.8 542.6,182.8 542.8,182.8 543.0,182.8 543.2,182.8 543.4,182.8 543.6,182.8 543.8,182.8 543.9,182.8 544.1,182.8 544.3,182.8 544.5,192.0 544.7,192.0 544.9,192.0 545.1,182.8 545.3,182.8 545.4,182.8 545.6,182.8 545.8,182.8 546.0,182.8 546.2,181.0 546.4,181.0 546.6,181.0 546.7,187.2 546.9,193.3 547.1,193.3 547.3,194.5 547.5,206.0 547.7,188.7 547.9,195.7 548.1,193.3 548.2,193.3 548.4,192.0 548.6,192.0 548.8,192.0 549.0,192.0 549.2,192.0 549.4,192.0 549.6,192.0 549.7,192.0 549.9,192.0 550.1,188.6 550.3,188.6 550.5,199.6 550.7,189.6 550.9,188.6 551.1,188.6 551.2,189.6 551.4,188.6 551.6,188.6 551.8,188.6 552.0,188.6 552.2,188.6 552.4,207.7 552.5,207.7 552.7,207.7 552.9,207.7 553.1,207.7 553.3,201.0 553.5,197.1 553.7,197.1 553.9,197.1 554.0,197.1 554.2,197.1 554.4,197.1 554.6,197.1 554.8,197.1 555.0,197.1 555.2,197.1 555.4,197.1 555.5,197.1 555.7,197.1 555.9,197.1 556.1,191.8 556.3,191.8 556.5,191.8 556.7,191.8 556.9,191.8 557.0,191.8 557.2,191.8 557.4,191.8 557.6,200.7 557.8,200.4 558.0,200.4 558.2,200.4 558.4,200.4 558.5,200.2 558.7,200.2 558.9,192.0 559.1,192.0 559.3,192.0 559.5,192.0 559.7,192.0 559.8,192.0 560.0,192.0 560.2,195.7 560.4,195.7 560.6,195.7 560.8,184.6 561.0,184.6 561.2,198.3 561.3,198.3 561.5,198.3 561.7,198.3 561.9,200.2 562.1,200.2 562.3,200.2 562.5,192.8 562.7,192.0 562.8,189.6 563.0,189.6 563.2,192.0 563.4,192.0 563.6,195.8 563.8,195.8 564.0,195.8 564.2,195.8 564.3,187.3 564.5,187.3 564.7,187.4 564.9,187.3 565.1,195.8 565.3,195.8 565.5,200.1 565.6,191.6 565.8,191.6 566.0,191.6 566.2,187.2 566.4,198.6 566.6,198.1 566.8,198.3 567.0,202.4 567.1,202.4 567.3,202.4 567.5,201.0 567.7,201.0 567.9,201.0 568.1,201.0 568.3,201.0 568.5,201.7 568.6,201.7 568.8,201.0 569.0,201.0 569.2,201.0 569.4,192.0 569.6,192.0 569.8,190.8 570.0,190.8 570.1,191.1 570.3,190.8 570.5,190.8 570.7,190.8 570.9,189.9 571.1,189.9 571.3,189.9 571.4,189.9 571.6,189.9 571.8,189.9 572.0,189.9 572.2,189.9 572.4,189.9 572.6,189.9 572.8,189.9 572.9,189.9 573.1,189.9 573.3,189.9 573.5,189.9 573.7,189.9 573.9,189.9 574.1,189.9 574.3,189.9 574.4,189.9 574.6,189.9 574.8,189.9 575.0,189.9 575.2,189.9 575.4,189.9 575.6,189.9 575.8,189.9 575.9,189.9 576.1,231.9 576.3,231.9 576.5,231.9 576.7,231.9 576.9,231.9 577.1,231.9 577.3,231.9 577.4,231.9 577.6,231.9 577.8,231.9 578.0,231.9 578.2,231.9 578.4,231.9 578.6,231.9 578.7,231.9 578.9,231.9 579.1,231.9 579.3,231.9 579.5,231.9 579.7,231.9 579.9,231.9 580.1,231.9 580.2,231.9 580.4,231.9 580.6,231.9 580.8,231.9 581.0,231.9 581.2,231.9 581.4,231.9 581.6,231.9 581.7,231.9 581.9,231.9 582.1,202.3 582.3,202.3 582.5,202.3 582.7,202.3 582.9,202.3 583.1,202.3 583.2,202.3 583.4,202.3 583.6,202.3 583.8,202.3 584.0,195.8 584.2,195.8 584.4,195.8 584.5,195.8 584.7,195.8 584.9,195.8 585.1,195.8 585.3,195.8 585.5,195.8 585.7,195.8 585.9,195.8 586.0,195.8 586.2,195.8 586.4,195.8 586.6,195.8 586.8,195.8 587.0,195.8 587.2,195.8 587.4,195.8 587.5,195.8 587.7,195.8 587.9,195.8 588.1,195.8 588.3,195.8 588.5,195.8 588.7,195.8 588.9,195.8 589.0,195.8 589.2,195.8 589.4,195.8 589.6,195.8 589.8,195.8 590.0,195.8 590.2,195.8 590.3,195.8 590.5,195.8 590.7,195.8 590.9,195.8 591.1,195.8 591.3,195.8 591.5,195.8 591.7,195.8 591.8,195.8 592.0,195.8 592.2,195.8 592.4,195.8 592.6,195.8 592.8,195.8 593.0,195.8 593.2,195.8 593.3,195.8 593.5,195.8 593.7,195.8 593.9,195.8 594.1,195.8 594.3,195.8 594.5,195.8 594.7,195.8 594.8,195.8 595.0,195.8 595.2,195.8 595.4,195.8 595.6,195.8 595.8,195.8 596.0,195.8 596.2,195.8 596.3,195.8 596.5,196.0 596.7,196.0 596.9,196.0 597.1,196.0 597.3,196.0 597.5,196.0 597.6,196.0 597.8,196.0 598.0,196.0 598.2,196.0 598.4,196.0 598.6,196.0 598.8,196.0 599.0,196.0 599.1,196.0 599.3,196.0 599.5,196.0 599.7,196.0 599.9,196.0 600.1,196.0 600.3,196.0 600.5,196.0 600.6,196.0 600.8,196.0 601.0,196.0 601.2,196.0 601.4,196.0 601.6,194.3 601.8,194.3 602.0,194.3 602.1,194.3 602.3,194.3 602.5,194.3 602.7,194.3 602.9,194.3 603.1,194.3 603.3,194.3 603.4,194.3 603.6,194.3 603.8,194.3 604.0,194.3 604.2,194.3 604.4,194.3 604.6,194.3 604.8,194.3 604.9,194.5 605.1,194.5 605.3,194.5 605.5,194.5 605.7,194.5 605.9,194.5 606.1,195.8 606.3,195.8 606.4,195.8 606.6,198.1 606.8,195.8 607.0,195.8 607.2,195.8 607.4,195.8 607.6,195.8 607.8,195.8 607.9,195.8 608.1,195.8 608.3,195.8 608.5,195.8 608.7,195.8 608.9,195.8 609.1,195.8 609.2,195.8 609.4,195.8 609.6,195.8 609.8,195.8 610.0,195.8 610.2,195.8 610.4,195.8 610.6,195.8 610.7,195.8 610.9,195.8 611.1,195.8 611.3,195.8 611.5,195.8 611.7,195.8 611.9,195.8 612.1,195.8 612.2,195.8 612.4,195.8 612.6,195.8 612.8,195.8 613.0,195.8 613.2,195.8 613.4,195.8 613.6,195.8 613.7,195.8 613.9,195.8 614.1,195.8 614.3,195.8 614.5,187.2 614.7,187.2 614.9,187.2 615.0,187.2 615.2,187.2 615.4,187.2 615.6,187.2 615.8,187.2 616.0,187.2 616.2,187.2 616.4,184.9 616.5,184.9 616.7,184.9 616.9,184.9 617.1,184.9 617.3,184.9 617.5,184.9 617.7,184.9 617.9,184.9 618.0,184.9 618.2,184.9 618.4,184.9 618.6,184.9 618.8,184.9 619.0,184.9 619.2,184.9 619.4,184.9 619.5,184.9 619.7,184.9 619.9,184.9 620.1,184.9 620.3,184.9 620.5,184.9 620.7,182.6 620.9,182.6 621.0,182.6 621.2,182.6 621.4,182.6 621.6,182.6 621.8,182.6 622.0,182.6 622.2,182.6 622.3,182.6 622.5,182.6 622.7,182.6 622.9,182.6 623.1,182.6 623.3,182.6 623.5,182.6 623.7,182.6 623.8,182.6 624.0,182.6 624.2,182.6 624.4,182.6 624.6,182.6 624.8,182.6 625.0,182.6 625.2,182.6 625.3,182.6 625.5,182.6 625.7,182.6 625.9,182.6 626.1,182.6 626.3,178.0 626.5,178.0 626.7,178.0 626.8,178.0 627.0,178.0 627.2,178.0 627.4,182.6 627.6,182.6 627.8,182.6 628.0,182.6 628.1,182.6 628.3,182.6 628.5,182.6 628.7,182.6 628.9,182.6 629.1,182.6 629.3,182.6 629.5,182.6 629.6,182.6 629.8,182.6 630.0,182.6 630.2,182.6 630.4,182.6 630.6,182.6 630.8,182.6 631.0,182.6 631.1,182.6 631.3,182.6 631.5,182.6 631.7,182.6 631.9,182.6 632.1,182.6 632.3,182.6 632.5,179.2 632.6,179.2 632.8,179.2 633.0,179.2 633.2,179.2 633.4,179.2 633.6,179.2 633.8,179.2 633.9,179.2 634.1,180.3 634.3,180.3 634.5,180.3 634.7,180.3 634.9,180.3 635.1,180.3 635.3,180.3 635.4,180.3 635.6,180.3 635.8,180.3 636.0,180.3 636.2,180.3 636.4,180.3 636.6,180.3 636.8,180.3 636.9,180.3 637.1,180.3 637.3,180.3 637.5,180.3 637.7,180.3 637.9,180.3 638.1,180.3 638.3,180.3 638.4,180.3 638.6,180.3 638.8,180.3 639.0,180.1 639.2,180.3 639.4,180.3 639.6,180.3 639.8,180.3 639.9,180.3 640.1,180.3 640.3,180.3 640.5,180.3 640.7,172.6 640.9,172.6 641.1,172.6 641.2,172.6 641.4,172.6 641.6,172.6 641.8,172.6 642.0,172.6 642.2,172.6 642.4,172.6 642.6,172.6 642.7,172.6 642.9,172.6 643.1,172.6 643.3,172.6 643.5,172.6 643.7,172.6 643.9,172.6 644.1,172.6 644.2,172.6 644.4,172.6 644.6,172.6 644.8,172.6 645.0,172.6 645.2,172.6 645.4,172.6 645.6,180.3 645.7,180.3 645.9,180.3 646.1,180.3 646.3,180.3 646.5,180.3 646.7,180.3 646.9,180.3 647.0,180.3 647.2,180.3 647.4,180.3 647.6,180.3 647.8,180.3 648.0,180.3 648.2,180.3 648.4,180.3 648.5,180.3 648.7,180.3 648.9,180.3 649.1,180.3 649.3,180.3 649.5,180.3 649.7,180.3 649.9,180.3 650.0,180.3 650.2,180.3 650.4,180.3 650.6,180.3 650.8,180.3 651.0,180.3 651.2,180.3 651.4,180.3 651.5,180.3 651.7,180.3 651.9,180.3 652.1,180.3 652.3,180.3 652.5,180.3 652.7,180.3 652.8,180.3 653.0,180.3 653.2,180.3 653.4,180.3 653.6,186.5 653.8,186.5 654.0,187.2 654.2,187.2 654.3,187.2 654.5,187.2 654.7,187.2 654.9,187.2 655.1,187.2 655.3,183.7 655.5,183.7 655.7,183.7 655.8,183.7 656.0,184.9 656.2,184.9 656.4,184.9 656.6,184.9 656.8,184.9 657.0,184.9 657.2,184.9 657.3,184.9 657.5,184.9 657.7,184.9 657.9,184.9 658.1,184.9 658.3,184.9 658.5,184.9 658.6,184.9 658.8,184.9 659.0,184.9 659.2,184.9 659.4,184.9 659.6,184.9 659.8,184.9 660.0,184.9 660.1,184.9 660.3,184.9 660.5,184.9 660.7,184.9 660.9,184.9 661.1,184.9 661.3,184.9 661.5,184.9 661.6,184.9 661.8,184.9 662.0,184.9 662.2,184.9 662.4,184.5 662.6,184.5 662.8,184.5 663.0,184.5 663.1,184.5 663.3,184.5 663.5,184.5 663.7,184.5 663.9,184.5 664.1,184.5 664.3,184.5 664.5,184.5 664.6,184.5 664.8,184.5 665.0,184.5 665.2,184.5 665.4,184.5 665.6,184.5 665.8,182.6 665.9,182.6 666.1,182.6 666.3,182.6 666.5,182.6 666.7,182.6 666.9,184.5 667.1,184.5 667.3,184.5 667.4,184.5 667.6,184.5 667.8,184.5 668.0,184.5 668.2,184.5 668.4,184.5 668.6,184.5 668.8,184.5 668.9,184.5 669.1,184.5 669.3,184.5 669.5,184.5 669.7,184.5 669.9,184.5 670.1,184.5 670.3,184.5 670.4,184.5 670.6,184.5 670.8,184.5 671.0,184.5 671.2,184.5 671.4,184.5 671.6,184.5 671.7,184.5 671.9,184.5 672.1,184.5 672.3,184.5 672.5,184.5 672.7,184.5 672.9,184.5 673.1,184.5 673.2,184.5 673.4,183.5 673.6,183.5 673.8,183.5 674.0,183.5 674.2,183.5 674.4,183.5 674.6,183.5 674.7,184.9 674.9,184.9 675.1,184.2 675.3,184.2 675.5,184.2 675.7,184.2 675.9,184.2 676.1,184.2 676.2,184.2 676.4,184.2 676.6,184.2 676.8,184.2 677.0,184.2 677.2,184.2 677.4,184.2 677.5,184.2 677.7,184.2 677.9,184.2 678.1,184.2 678.3,184.2 678.5,184.2 678.7,184.2 678.9,184.2 679.0,184.2 679.2,184.2 679.4,184.2 679.6,184.2 679.8,184.2 680.0,184.2 680.2,184.2 680.4,184.2 680.5,184.2 680.7,184.2 680.9,184.2 681.1,184.2 681.3,184.2 681.5,184.2 681.7,184.2 681.9,175.9 682.0,175.9 682.2,175.9 682.4,175.9 682.6,175.9 682.8,175.9 683.0,175.9 683.2,175.9 683.4,175.9 683.5,175.9 683.7,175.9 683.9,175.9 684.1,175.9 684.3,175.9 684.5,175.9 684.7,175.9 684.8,175.9 685.0,175.9 685.2,175.9 685.4,175.9 685.6,175.9 685.8,175.9 686.0,175.9 686.2,175.9 686.3,175.9 686.5,175.9 686.7,183.7 686.9,183.7 687.1,183.7 687.3,183.7 687.5,183.7 687.7,183.7 687.8,183.7 688.0,183.7 688.2,183.7 688.4,183.7 688.6,183.7 688.8,183.7 689.0,183.7 689.2,183.7 689.3,184.3 689.5,184.3 689.7,184.3 689.9,184.3 690.1,184.3 690.3,184.3 690.5,184.3 690.6,184.3 690.8,184.3 691.0,184.3 691.2,184.3 691.4,184.3 691.6,184.3 691.8,184.3 692.0,184.3 692.1,184.3 692.3,184.3 692.5,184.3 692.7,184.3 692.9,184.3 693.1,184.3 693.3,184.3 693.5,184.3 693.6,175.9 693.8,175.9 694.0,175.9 694.2,175.9 694.4,175.9 694.6,180.3 694.8,180.3 695.0,180.3 695.1,180.3 695.3,180.3 695.5,180.3 695.7,180.3 695.9,180.3 696.1,180.3 696.3,180.3 696.4,180.3 696.6,180.3 696.8,180.3 697.0,180.3 697.2,180.3 697.4,180.3 697.6,180.3 697.8,180.3 697.9,180.3 698.1,180.3 698.3,180.3 698.5,180.3 698.7,180.3 698.9,180.3 699.1,180.3 699.3,180.3 699.4,180.3 699.6,180.3 699.8,180.3 700.0,180.3 700.2,184.3 700.4,184.3 700.6,184.3 700.8,184.3 700.9,184.3 701.1,184.3 701.3,184.3 701.5,184.3 701.7,184.3 701.9,184.3 702.1,184.3 702.3,182.6 702.4,182.6 702.6,182.6 702.8,182.6 703.0,182.6 703.2,182.6 703.4,182.6 703.6,182.6 703.7,182.6 703.9,182.6 704.1,182.6 704.3,184.3 704.5,184.3 704.7,184.3 704.9,184.3 705.1,184.3 705.2,184.3 705.4,184.3 705.6,184.3 705.8,184.3 706.0,184.3 706.2,184.3 706.4,184.3 706.6,184.3 706.7,184.3 706.9,184.3 707.1,184.3 707.3,184.3 707.5,184.3 707.7,184.3 707.9,184.3 708.1,184.3 708.2,184.3 708.4,184.3 708.6,184.3 708.8,184.3 709.0,184.3 709.2,184.3 709.4,184.3 709.5,184.3 709.7,184.3 709.9,184.3 710.1,184.3 710.3,184.3 710.5,184.3 710.7,184.3 710.9,184.3 711.0,184.3 711.2,184.3 711.4,184.3 711.6,184.3 711.8,184.3 712.0,184.3 712.2,184.3 712.4,184.3 712.5,184.3 712.7,184.3 712.9,184.3 713.1,184.3 713.3,189.6 713.5,189.6 713.7,189.6 713.9,189.6 714.0,189.6 714.2,189.6 714.4,189.6 714.6,189.6 714.8,189.6 715.0,189.6 715.2,189.6 715.3,189.6 715.5,189.6 715.7,189.6 715.9,189.6 716.1,189.6 716.3,189.6 716.5,189.6 716.7,188.4 716.8,188.4 717.0,188.4 717.2,188.4 717.4,188.4 717.6,188.4 717.8,188.4 718.0,188.4 718.2,188.4 718.3,188.4 718.5,188.4 718.7,188.4 718.9,188.4 719.1,188.4 719.3,188.4 719.5,188.4 719.7,188.4 719.8,188.4 720.0,188.4 720.2,188.4 720.4,188.4 720.6,188.4 720.8,188.4 721.0,188.4 721.1,188.4 721.3,188.4 721.5,188.4 721.7,188.4 721.9,188.4 722.1,188.4 722.3,188.4 722.5,188.4 722.6,188.4 722.8,188.4 723.0,188.4 723.2,188.4 723.4,188.4 723.6,188.4 723.8,188.4 724.0,188.4 724.1,188.4 724.3,188.4 724.5,188.4 724.7,188.4 724.9,188.4 725.1,188.4 725.3,188.4 725.5,188.4 725.6,188.4 725.8,188.4 726.0,188.4 726.2,188.4 726.4,188.4 726.6,188.4 726.8,188.4 727.0,188.4 727.1,188.4 727.3,188.4 727.5,188.4 727.7,188.4 727.9,188.4 728.1,188.4 728.3,176.9 728.4,176.9 728.6,176.9 728.8,176.9 729.0,176.9 729.2,176.9 729.4,176.9 729.6,176.9 729.8,176.9 729.9,176.9 730.1,176.9 730.3,176.9 730.5,176.9 730.7,176.9 730.9,176.9 731.1,176.9 731.3,176.9 731.4,176.9 731.6,176.9 731.8,176.9 732.0,176.9 732.2,176.9 732.4,176.9 732.6,176.9 732.8,176.9 732.9,176.9 733.1,176.9 733.3,176.9 733.5,176.9 733.7,176.9 733.9,176.9 734.1,176.9 734.2,176.9 734.4,176.9 734.6,176.9 734.8,176.9 735.0,176.9 735.2,176.9 735.4,176.9 735.6,176.9 735.7,176.9 735.9,176.9 736.1,176.9 736.3,176.9 736.5,178.0 736.7,178.0 736.9,178.0 737.1,178.0 737.2,178.0 737.4,178.0 737.6,178.0 737.8,178.0 738.0,178.0 738.2,178.0 738.4,178.0 738.6,178.0 738.7,178.0 738.9,188.4 739.1,188.4 739.3,188.4 739.5,188.4 739.7,188.4 739.9,188.4 740.0,188.4 740.2,180.3 740.4,180.3 740.6,180.3 740.8,180.3 741.0,180.3 741.2,182.1 741.4,182.1 741.5,182.1 741.7,182.1 741.9,182.1 742.1,182.1 742.3,182.1 742.5,188.4 742.7,188.4 742.9,188.4 743.0,188.4 743.2,189.6 743.4,189.6 743.6,189.6 743.8,189.6 744.0,189.6 744.2,189.6 744.4,189.6 744.5,189.6 744.7,189.6 744.9,189.6 745.1,189.6 745.3,189.6 745.5,189.6 745.7,189.6 745.9,189.6 746.0,189.6 746.2,189.6 746.4,189.6 746.6,189.6 746.8,189.6 747.0,189.6 747.2,189.6 747.3,189.6 747.5,189.6 747.7,189.6 747.9,189.6 748.1,183.7 748.3,183.7 748.5,183.7 748.7,183.7 748.8,183.7 749.0,183.7 749.2,183.7 749.4,183.7 749.6,183.7 749.8,183.7 750.0,183.7 750.2,187.2 750.3,187.2 750.5,187.2 750.7,187.2 750.9,187.2 751.1,187.2 751.3,187.2 751.5,187.2 751.7,187.2 751.8,187.2 752.0,187.2 752.2,187.2 752.4,187.2 752.6,187.2 752.8,187.2 753.0,187.2 753.1,187.2 753.3,187.2 753.5,187.2 753.7,187.2 753.9,187.2 754.1,187.2 754.3,187.2 754.5,187.2 754.6,187.2 754.8,187.2 755.0,187.2 755.2,187.2 755.4,187.2 755.6,187.2 755.8,187.2 756.0,187.2 756.1,187.2 756.3,187.2 756.5,187.2 756.7,187.2 756.9,187.2 757.1,187.2 757.3,187.2 757.5,187.2 757.6,187.2 757.8,157.6 758.0,157.6 758.2,157.6 758.4,157.6 758.6,157.6 758.8,157.6 758.9,157.6 759.1,157.6 759.3,157.6 759.5,183.7 759.7,183.7 759.9,183.7 760.1,183.7 760.3,183.7 760.4,183.7 760.6,183.7 760.8,183.7 761.0,183.7 761.2,183.7 761.4,183.7 761.6,183.7 761.8,183.7 761.9,183.7 762.1,183.7 762.3,183.7 762.5,183.7 762.7,183.7 762.9,183.7 763.1,182.6 763.3,182.6 763.4,182.6 763.6,182.6 763.8,182.6 764.0,182.6 764.2,183.7 764.4,183.7 764.6,183.7 764.8,183.7 764.9,183.7 765.1,183.7 765.3,183.7 765.5,183.7 765.7,183.7 765.9,183.7 766.1,183.7 766.2,183.7 766.4,183.7 766.6,183.7 766.8,183.7 767.0,183.7 767.2,183.7 767.4,183.7 767.6,183.7 767.7,183.7 767.9,183.7 768.1,183.7 768.3,183.7 768.5,183.7 768.7,183.7 768.9,183.7 769.1,183.7 769.2,183.7 769.4,183.7 769.6,183.7 769.8,183.7 770.0,183.7 770.2,183.7 770.4,183.7 770.6,183.7 770.7,183.7 770.9,183.7 771.1,183.7 771.3,183.7 771.5,183.7 771.7,183.7 771.9,183.7 772.0,183.7 772.2,183.7 772.4,183.7 772.6,183.7 772.8,183.7 773.0,183.7 773.2,183.7 773.4,183.7 773.5,183.7 773.7,183.7 773.9,183.7 774.1,183.7 774.3,183.7 774.5,183.7 774.7,183.7 774.9,183.7 775.0,183.7 775.2,183.7 775.4,183.7 775.6,183.7 775.8,183.7 776.0,183.7 776.2,183.7 776.4,183.7 776.5,183.7 776.7,183.7 776.9,183.7 777.1,183.7 777.3,183.7 777.5,183.7 777.7,183.7 777.8,183.7 778.0,183.7 778.2,183.7 778.4,183.7 778.6,183.7 778.8,183.7 779.0,183.7 779.2,183.7 779.3,183.7 779.5,183.7 779.7,183.7 779.9,183.7 780.1,183.7 780.3,183.7 780.5,183.7 780.7,183.7 780.8,183.7 781.0,183.7 781.2,183.7 781.4,183.7 781.6,183.7 781.8,183.7 782.0,183.7 782.2,183.7 782.3,183.7 782.5,183.7 782.7,183.7 782.9,183.7 783.1,187.2 783.3,187.2 783.5,187.2 783.6,187.2 783.8,187.2 784.0,187.2 784.2,187.2 784.4,187.2 784.6,187.2 784.8,187.2 785.0,187.2 785.1,187.2 785.3,187.2 785.5,187.2 785.7,187.2 785.9,187.2 786.1,187.2 786.3,187.2 786.5,187.2 786.6,187.2 786.8,187.2 787.0,187.2 787.2,187.2 787.4,187.2 787.6,187.2 787.8,187.2 788.0,187.2 788.1,187.2 788.3,187.2 788.5,187.2 788.7,187.2 788.9,187.2 789.1,187.2 789.3,187.2 789.5,187.2 789.6,187.2 789.8,187.2 790.0,187.2 790.2,187.2 790.4,187.2 790.6,187.2 790.8,187.2 790.9,187.2 791.1,187.2 791.3,187.2 791.5,187.2 791.7,187.2 791.9,187.2 792.1,187.2 792.3,187.2 792.4,187.2 792.6,187.2 792.8,187.2 793.0,183.7 793.2,183.7 793.4,183.7 793.6,183.7 793.8,183.7 793.9,183.7 794.1,183.7 794.3,183.7 794.5,183.7 794.7,183.7 794.9,183.7 795.1,183.7 795.3,183.7 795.4,183.7 795.6,183.7 795.8,183.7 796.0,183.7"/><polyline fill="none" stroke="#16a34a" stroke-width="3" points="78.0,302.6 78.2,302.6 78.4,302.6 78.6,302.6 78.7,302.6 78.9,302.6 79.1,302.6 79.3,302.6 79.5,302.6 79.7,302.6 79.9,302.6 80.1,308.4 80.2,314.4 80.4,308.4 80.6,308.4 80.8,308.4 81.0,308.4 81.2,308.4 81.4,308.4 81.6,308.4 81.7,308.4 81.9,308.4 82.1,308.4 82.3,308.4 82.5,308.4 82.7,308.4 82.9,308.4 83.1,308.4 83.2,308.4 83.4,308.4 83.6,308.4 83.8,308.4 84.0,308.4 84.2,308.4 84.4,308.4 84.5,308.4 84.7,308.4 84.9,308.4 85.1,308.4 85.3,308.4 85.5,308.4 85.7,308.4 85.9,308.4 86.0,308.4 86.2,308.4 86.4,308.4 86.6,308.4 86.8,308.4 87.0,308.4 87.2,308.4 87.4,308.4 87.5,308.4 87.7,308.4 87.9,308.4 88.1,308.4 88.3,308.4 88.5,308.4 88.7,308.4 88.9,308.4 89.0,305.4 89.2,305.4 89.4,305.4 89.6,305.4 89.8,305.4 90.0,305.4 90.2,305.4 90.4,305.4 90.5,305.4 90.7,305.4 90.9,305.4 91.1,311.4 91.3,305.4 91.5,305.4 91.7,305.4 91.8,305.4 92.0,305.4 92.2,305.4 92.4,305.4 92.6,305.4 92.8,305.4 93.0,305.4 93.2,305.4 93.3,305.4 93.5,305.4 93.7,305.4 93.9,305.4 94.1,305.4 94.3,305.4 94.5,305.4 94.7,305.4 94.8,305.4 95.0,305.4 95.2,305.4 95.4,305.4 95.6,305.4 95.8,305.4 96.0,305.4 96.2,305.4 96.3,305.4 96.5,305.4 96.7,305.4 96.9,305.4 97.1,305.4 97.3,305.4 97.5,305.4 97.6,305.4 97.8,305.4 98.0,305.4 98.2,294.4 98.4,294.4 98.6,294.4 98.8,294.4 99.0,294.4 99.1,294.4 99.3,294.4 99.5,294.4 99.7,294.4 99.9,294.4 100.1,294.4 100.3,294.4 100.5,294.4 100.6,294.4 100.8,294.4 101.0,294.4 101.2,294.4 101.4,313.8 101.6,313.8 101.8,313.8 102.0,313.8 102.1,313.8 102.3,313.8 102.5,313.8 102.7,313.8 102.9,313.8 103.1,313.8 103.3,313.8 103.4,308.4 103.6,308.4 103.8,308.4 104.0,308.4 104.2,308.4 104.4,308.4 104.6,308.4 104.8,308.4 104.9,308.4 105.1,308.4 105.3,308.4 105.5,308.4 105.7,308.4 105.9,308.4 106.1,308.4 106.3,308.4 106.4,308.4 106.6,308.4 106.8,313.2 107.0,313.2 107.2,313.2 107.4,313.2 107.6,313.2 107.8,313.2 107.9,313.2 108.1,308.4 108.3,308.4 108.5,308.4 108.7,308.4 108.9,308.4 109.1,308.4 109.2,308.4 109.4,308.4 109.6,308.4 109.8,308.4 110.0,308.4 110.2,308.4 110.4,308.4 110.6,308.4 110.7,308.4 110.9,308.4 111.1,308.4 111.3,308.4 111.5,308.4 111.7,308.4 111.9,308.4 112.1,308.4 112.2,308.4 112.4,308.4 112.6,308.4 112.8,308.4 113.0,308.4 113.2,308.4 113.4,308.4 113.6,308.4 113.7,308.4 113.9,308.4 114.1,308.4 114.3,308.4 114.5,308.4 114.7,308.4 114.9,308.4 115.1,308.4 115.2,308.4 115.4,308.4 115.6,308.4 115.8,308.4 116.0,308.4 116.2,305.4 116.4,305.4 116.5,305.4 116.7,305.4 116.9,305.4 117.1,305.4 117.3,305.4 117.5,305.4 117.7,305.4 117.9,305.4 118.0,305.4 118.2,305.4 118.4,305.4 118.6,305.4 118.8,305.4 119.0,305.4 119.2,305.4 119.4,305.4 119.5,305.4 119.7,305.4 119.9,305.4 120.1,305.4 120.3,305.4 120.5,305.4 120.7,305.4 120.9,305.4 121.0,305.4 121.2,305.4 121.4,305.4 121.6,305.4 121.8,305.4 122.0,305.4 122.2,305.4 122.3,305.4 122.5,305.4 122.7,305.4 122.9,305.4 123.1,305.4 123.3,305.4 123.5,305.4 123.7,305.4 123.8,305.4 124.0,305.4 124.2,305.4 124.4,305.4 124.6,305.4 124.8,305.4 125.0,305.4 125.2,305.4 125.3,305.4 125.5,305.4 125.7,305.4 125.9,305.4 126.1,305.4 126.3,305.4 126.5,305.4 126.7,305.4 126.8,305.4 127.0,305.4 127.2,305.4 127.4,305.4 127.6,305.4 127.8,305.4 128.0,305.4 128.1,305.4 128.3,305.4 128.5,305.4 128.7,305.4 128.9,305.4 129.1,305.4 129.3,305.4 129.5,305.4 129.6,305.4 129.8,305.4 130.0,305.4 130.2,305.4 130.4,305.4 130.6,305.4 130.8,305.4 131.0,305.4 131.1,305.4 131.3,305.4 131.5,305.4 131.7,294.4 131.9,294.4 132.1,294.4 132.3,294.4 132.5,294.4 132.6,294.4 132.8,294.4 133.0,294.4 133.2,294.4 133.4,294.4 133.6,294.4 133.8,294.4 134.0,294.4 134.1,294.4 134.3,286.3 134.5,286.3 134.7,286.3 134.9,286.3 135.1,287.1 135.3,287.1 135.4,287.1 135.6,287.1 135.8,287.1 136.0,287.1 136.2,287.1 136.4,287.1 136.6,287.1 136.8,287.1 136.9,287.1 137.1,287.1 137.3,287.1 137.5,287.1 137.7,305.4 137.9,305.4 138.1,305.2 138.3,305.2 138.4,305.2 138.6,305.2 138.8,305.2 139.0,305.2 139.2,305.2 139.4,305.2 139.6,305.2 139.8,305.2 139.9,305.2 140.1,305.2 140.3,305.2 140.5,305.2 140.7,305.2 140.9,309.3 141.1,309.3 141.2,309.3 141.4,309.3 141.6,309.3 141.8,309.3 142.0,309.3 142.2,309.3 142.4,309.3 142.6,309.3 142.7,309.3 142.9,309.3 143.1,309.3 143.3,309.3 143.5,309.3 143.7,309.3 143.9,309.3 144.1,309.3 144.2,309.3 144.4,309.3 144.6,309.3 144.8,309.3 145.0,309.3 145.2,309.3 145.4,309.3 145.6,309.3 145.7,309.3 145.9,309.3 146.1,309.3 146.3,309.3 146.5,309.3 146.7,294.4 146.9,294.4 147.0,294.4 147.2,294.4 147.4,294.4 147.6,294.4 147.8,294.4 148.0,294.4 148.2,294.4 148.4,294.4 148.5,294.4 148.7,294.4 148.9,294.4 149.1,294.4 149.3,294.4 149.5,294.4 149.7,294.4 149.9,294.4 150.0,294.4 150.2,294.4 150.4,294.4 150.6,294.4 150.8,294.4 151.0,294.4 151.2,294.4 151.4,294.4 151.5,294.4 151.7,294.4 151.9,294.4 152.1,294.4 152.3,294.4 152.5,294.4 152.7,294.4 152.9,299.2 153.0,299.2 153.2,299.2 153.4,299.2 153.6,299.2 153.8,296.5 154.0,296.5 154.2,296.5 154.3,296.5 154.5,296.5 154.7,295.4 154.9,295.4 155.1,295.4 155.3,295.4 155.5,294.9 155.7,294.9 155.8,294.9 156.0,294.9 156.2,294.9 156.4,294.9 156.6,294.9 156.8,294.9 157.0,294.9 157.2,294.9 157.3,296.1 157.5,296.1 157.7,296.1 157.9,296.1 158.1,296.1 158.3,296.1 158.5,296.1 158.7,296.1 158.8,296.1 159.0,296.1 159.2,296.1 159.4,291.2 159.6,291.2 159.8,291.2 160.0,291.2 160.1,291.2 160.3,291.2 160.5,291.2 160.7,291.2 160.9,291.2 161.1,291.2 161.3,291.2 161.5,291.2 161.6,291.2 161.8,291.2 162.0,291.2 162.2,291.2 162.4,291.2 162.6,291.2 162.8,281.7 163.0,281.7 163.1,281.7 163.3,281.7 163.5,281.7 163.7,281.7 163.9,281.7 164.1,281.7 164.3,281.7 164.5,281.7 164.6,281.7 164.8,299.8 165.0,299.8 165.2,299.8 165.4,299.8 165.6,299.8 165.8,299.8 165.9,299.8 166.1,299.8 166.3,299.8 166.5,299.8 166.7,299.8 166.9,299.8 167.1,299.8 167.3,299.8 167.4,299.8 167.6,299.8 167.8,299.8 168.0,299.8 168.2,299.8 168.4,299.8 168.6,299.8 168.8,299.8 168.9,299.8 169.1,299.8 169.3,299.8 169.5,299.8 169.7,299.8 169.9,299.8 170.1,299.8 170.3,299.8 170.4,299.8 170.6,299.8 170.8,299.8 171.0,291.7 171.2,291.7 171.4,291.7 171.6,291.7 171.7,291.7 171.9,291.7 172.1,291.7 172.3,291.7 172.5,291.7 172.7,291.7 172.9,291.7 173.1,291.7 173.2,291.7 173.4,291.7 173.6,291.7 173.8,291.7 174.0,291.7 174.2,291.7 174.4,291.7 174.6,291.7 174.7,291.7 174.9,291.7 175.1,291.7 175.3,291.7 175.5,291.7 175.7,291.7 175.9,291.7 176.1,291.7 176.2,291.7 176.4,291.7 176.6,291.7 176.8,291.7 177.0,291.7 177.2,291.7 177.4,291.7 177.6,291.7 177.7,291.7 177.9,281.7 178.1,281.7 178.3,281.7 178.5,281.7 178.7,281.7 178.9,281.7 179.0,281.7 179.2,281.7 179.4,281.7 179.6,281.7 179.8,281.7 180.0,281.7 180.2,281.7 180.4,281.7 180.5,281.7 180.7,281.7 180.9,281.7 181.1,281.7 181.3,281.7 181.5,281.7 181.7,281.7 181.9,281.7 182.0,281.7 182.2,281.7 182.4,281.7 182.6,281.7 182.8,281.7 183.0,281.7 183.2,281.7 183.4,281.7 183.5,281.7 183.7,281.7 183.9,281.7 184.1,281.7 184.3,281.7 184.5,281.7 184.7,286.6 184.8,286.6 185.0,286.6 185.2,286.6 185.4,286.6 185.6,286.6 185.8,286.6 186.0,286.6 186.2,286.6 186.3,286.6 186.5,286.6 186.7,286.6 186.9,286.6 187.1,286.6 187.3,286.6 187.5,286.6 187.7,281.7 187.8,281.7 188.0,281.7 188.2,281.7 188.4,281.7 188.6,281.7 188.8,281.7 189.0,281.7 189.2,281.7 189.3,281.7 189.5,281.7 189.7,281.7 189.9,281.7 190.1,281.7 190.3,281.7 190.5,281.7 190.6,281.7 190.8,281.7 191.0,281.7 191.2,281.7 191.4,281.7 191.6,281.7 191.8,281.7 192.0,281.7 192.1,281.7 192.3,281.7 192.5,281.7 192.7,281.7 192.9,281.7 193.1,281.7 193.3,277.0 193.5,277.0 193.6,277.0 193.8,277.0 194.0,277.0 194.2,277.0 194.4,277.0 194.6,277.0 194.8,277.0 195.0,277.0 195.1,277.0 195.3,277.0 195.5,277.0 195.7,277.0 195.9,277.0 196.1,277.0 196.3,277.0 196.5,277.0 196.6,277.0 196.8,277.0 197.0,277.0 197.2,277.0 197.4,277.0 197.6,277.0 197.8,277.0 197.9,277.0 198.1,277.0 198.3,277.0 198.5,277.0 198.7,277.0 198.9,277.0 199.1,277.0 199.3,277.0 199.4,277.0 199.6,277.0 199.8,277.0 200.0,277.0 200.2,277.0 200.4,277.0 200.6,277.0 200.8,277.0 200.9,277.0 201.1,277.0 201.3,277.0 201.5,277.0 201.7,277.0 201.9,277.0 202.1,277.0 202.3,277.0 202.4,277.0 202.6,277.0 202.8,277.0 203.0,277.0 203.2,277.0 203.4,277.0 203.6,277.0 203.7,277.0 203.9,277.0 204.1,277.0 204.3,277.0 204.5,277.0 204.7,277.0 204.9,277.0 205.1,277.0 205.2,277.0 205.4,277.0 205.6,277.0 205.8,277.0 206.0,277.0 206.2,277.0 206.4,277.0 206.6,277.0 206.7,277.0 206.9,277.0 207.1,277.0 207.3,277.0 207.5,276.5 207.7,276.5 207.9,276.5 208.1,276.5 208.2,276.5 208.4,276.5 208.6,276.5 208.8,276.5 209.0,276.5 209.2,276.5 209.4,276.5 209.5,276.5 209.7,276.5 209.9,276.5 210.1,276.5 210.3,276.5 210.5,276.5 210.7,276.5 210.9,276.5 211.0,276.5 211.2,276.5 211.4,276.5 211.6,276.5 211.8,276.5 212.0,276.5 212.2,276.5 212.4,276.5 212.5,276.5 212.7,276.5 212.9,276.5 213.1,276.5 213.3,276.5 213.5,276.5 213.7,276.5 213.9,276.5 214.0,274.7 214.2,272.4 214.4,272.4 214.6,272.4 214.8,272.4 215.0,272.4 215.2,272.4 215.4,272.4 215.5,272.4 215.7,272.4 215.9,272.4 216.1,272.4 216.3,272.4 216.5,272.4 216.7,272.4 216.8,272.4 217.0,272.4 217.2,272.4 217.4,272.4 217.6,272.4 217.8,272.4 218.0,272.4 218.2,272.4 218.3,272.4 218.5,272.4 218.7,272.4 218.9,272.4 219.1,272.4 219.3,272.4 219.5,272.4 219.7,272.4 219.8,272.4 220.0,272.4 220.2,272.4 220.4,272.4 220.6,272.4 220.8,272.4 221.0,272.4 221.2,272.4 221.3,272.4 221.5,272.4 221.7,272.4 221.9,272.4 222.1,272.4 222.3,272.4 222.5,272.4 222.6,272.4 222.8,272.4 223.0,272.4 223.2,272.4 223.4,272.4 223.6,272.4 223.8,272.4 224.0,272.4 224.1,272.4 224.3,272.4 224.5,272.4 224.7,272.4 224.9,272.4 225.1,272.4 225.3,272.4 225.5,272.4 225.6,272.4 225.8,272.4 226.0,272.4 226.2,272.4 226.4,272.4 226.6,272.4 226.8,272.4 227.0,272.4 227.1,272.4 227.3,272.4 227.5,271.5 227.7,271.5 227.9,271.5 228.1,271.5 228.3,271.5 228.4,271.5 228.6,271.5 228.8,271.5 229.0,271.5 229.2,271.5 229.4,271.5 229.6,271.5 229.8,271.5 229.9,271.5 230.1,271.5 230.3,271.5 230.5,271.5 230.7,271.5 230.9,271.5 231.1,271.5 231.3,271.5 231.4,271.5 231.6,271.5 231.8,271.5 232.0,271.5 232.2,271.5 232.4,271.5 232.6,271.5 232.8,271.5 232.9,271.5 233.1,271.5 233.3,271.5 233.5,271.5 233.7,271.5 233.9,271.5 234.1,271.5 234.2,271.5 234.4,271.5 234.6,271.5 234.8,271.5 235.0,271.5 235.2,271.5 235.4,271.5 235.6,270.1 235.7,270.1 235.9,270.1 236.1,270.1 236.3,270.1 236.5,270.1 236.7,270.1 236.9,270.1 237.1,270.1 237.2,270.1 237.4,270.1 237.6,270.1 237.8,270.1 238.0,270.1 238.2,270.1 238.4,270.1 238.6,270.1 238.7,270.1 238.9,270.1 239.1,270.1 239.3,270.1 239.5,270.1 239.7,270.1 239.9,270.1 240.1,270.1 240.2,271.5 240.4,271.5 240.6,271.5 240.8,271.5 241.0,271.5 241.2,271.5 241.4,271.5 241.5,271.5 241.7,271.5 241.9,271.5 242.1,271.5 242.3,271.5 242.5,271.5 242.7,271.5 242.9,271.5 243.0,271.5 243.2,271.5 243.4,271.5 243.6,271.5 243.8,271.5 244.0,271.5 244.2,270.1 244.4,270.1 244.5,270.1 244.7,270.1 244.9,270.1 245.1,270.1 245.3,270.1 245.5,270.1 245.7,270.1 245.9,270.1 246.0,270.1 246.2,270.1 246.4,270.1 246.6,270.1 246.8,270.1 247.0,270.1 247.2,270.1 247.3,270.1 247.5,270.1 247.7,270.1 247.9,270.1 248.1,270.1 248.3,270.1 248.5,270.1 248.7,270.1 248.8,270.1 249.0,270.1 249.2,270.1 249.4,270.1 249.6,270.1 249.8,270.1 250.0,270.1 250.2,270.1 250.3,270.1 250.5,270.1 250.7,270.1 250.9,270.1 251.1,270.1 251.3,270.1 251.5,270.1 251.7,270.1 251.8,270.1 252.0,270.1 252.2,270.1 252.4,270.1 252.6,270.1 252.8,270.1 253.0,270.1 253.1,270.1 253.3,270.1 253.5,270.1 253.7,270.1 253.9,263.7 254.1,263.7 254.3,263.7 254.5,263.7 254.6,263.7 254.8,263.7 255.0,263.7 255.2,263.7 255.4,263.7 255.6,263.7 255.8,263.7 256.0,263.7 256.1,263.7 256.3,263.7 256.5,263.7 256.7,263.7 256.9,263.7 257.1,263.7 257.3,263.7 257.5,263.7 257.6,263.7 257.8,263.7 258.0,263.7 258.2,263.7 258.4,263.7 258.6,263.7 258.8,263.7 259.0,263.7 259.1,263.7 259.3,263.7 259.5,263.7 259.7,263.7 259.9,263.7 260.1,263.7 260.3,263.7 260.4,263.7 260.6,263.7 260.8,263.7 261.0,257.5 261.2,257.5 261.4,257.5 261.6,257.5 261.8,257.5 261.9,257.5 262.1,257.5 262.3,257.5 262.5,257.5 262.7,257.5 262.9,257.5 263.1,257.5 263.3,257.5 263.4,257.5 263.6,257.5 263.8,257.5 264.0,257.5 264.2,257.5 264.4,257.5 264.6,257.5 264.8,257.5 264.9,257.5 265.1,257.5 265.3,257.5 265.5,257.5 265.7,257.5 265.9,257.5 266.1,257.5 266.2,257.5 266.4,257.5 266.6,257.5 266.8,257.5 267.0,257.5 267.2,257.5 267.4,257.5 267.6,257.5 267.7,257.5 267.9,257.5 268.1,257.5 268.3,257.5 268.5,257.5 268.7,257.5 268.9,257.5 269.1,257.5 269.2,257.5 269.4,257.5 269.6,274.7 269.8,274.7 270.0,274.7 270.2,274.7 270.4,274.7 270.6,274.7 270.7,270.1 270.9,270.1 271.1,270.1 271.3,270.1 271.5,270.1 271.7,270.1 271.9,270.1 272.0,270.1 272.2,270.1 272.4,270.1 272.6,272.4 272.8,272.4 273.0,272.4 273.2,272.4 273.4,272.4 273.5,272.4 273.7,272.4 273.9,272.4 274.1,272.4 274.3,272.4 274.5,272.4 274.7,272.4 274.9,272.4 275.0,272.4 275.2,272.4 275.4,272.4 275.6,272.4 275.8,272.4 276.0,272.4 276.2,272.4 276.4,272.4 276.5,272.4 276.7,272.4 276.9,272.4 277.1,272.4 277.3,272.4 277.5,272.4 277.7,270.6 277.8,272.4 278.0,272.4 278.2,272.4 278.4,272.4 278.6,272.4 278.8,272.4 279.0,272.4 279.2,272.4 279.3,286.6 279.5,286.6 279.7,286.6 279.9,286.6 280.1,286.6 280.3,286.6 280.5,279.8 280.7,279.8 280.8,279.8 281.0,279.8 281.2,279.8 281.4,279.8 281.6,279.8 281.8,279.8 282.0,279.8 282.2,279.8 282.3,279.8 282.5,279.8 282.7,279.8 282.9,279.8 283.1,279.8 283.3,279.8 283.5,279.8 283.7,279.8 283.8,279.8 284.0,279.8 284.2,279.8 284.4,279.8 284.6,279.8 284.8,279.8 285.0,279.8 285.1,279.8 285.3,279.8 285.5,279.8 285.7,279.8 285.9,279.8 286.1,279.8 286.3,279.8 286.5,279.8 286.6,279.8 286.8,279.8 287.0,279.8 287.2,279.8 287.4,279.8 287.6,279.8 287.8,279.8 288.0,279.8 288.1,279.8 288.3,279.8 288.5,279.8 288.7,279.8 288.9,279.8 289.1,279.8 289.3,279.8 289.5,279.8 289.6,279.8 289.8,279.8 290.0,279.8 290.2,279.8 290.4,279.8 290.6,279.8 290.8,279.8 290.9,279.8 291.1,279.8 291.3,279.8 291.5,279.8 291.7,279.8 291.9,279.8 292.1,279.8 292.3,279.8 292.4,279.8 292.6,279.8 292.8,279.8 293.0,279.8 293.2,279.8 293.4,279.8 293.6,279.8 293.8,279.8 293.9,279.8 294.1,279.8 294.3,279.8 294.5,279.8 294.7,279.8 294.9,279.8 295.1,279.8 295.3,279.8 295.4,279.8 295.6,279.8 295.8,279.8 296.0,279.8 296.2,279.8 296.4,279.8 296.6,279.8 296.7,279.8 296.9,279.8 297.1,279.8 297.3,279.8 297.5,279.8 297.7,279.8 297.9,279.8 298.1,273.4 298.2,273.4 298.4,273.4 298.6,273.4 298.8,273.4 299.0,273.4 299.2,273.4 299.4,273.4 299.6,273.4 299.7,273.4 299.9,273.4 300.1,273.4 300.3,273.4 300.5,273.4 300.7,273.4 300.9,273.4 301.1,273.4 301.2,281.7 301.4,281.7 301.6,281.7 301.8,281.7 302.0,281.7 302.2,281.7 302.4,281.7 302.6,281.7 302.7,281.7 302.9,281.7 303.1,281.7 303.3,281.7 303.5,281.7 303.7,281.7 303.9,286.6 304.0,286.6 304.2,286.6 304.4,286.6 304.6,286.6 304.8,286.6 305.0,286.6 305.2,286.6 305.4,286.6 305.5,286.6 305.7,286.6 305.9,286.6 306.1,286.6 306.3,284.1 306.5,284.1 306.7,284.1 306.9,284.1 307.0,284.1 307.2,284.1 307.4,284.1 307.6,284.1 307.8,284.1 308.0,284.1 308.2,284.1 308.4,284.1 308.5,284.1 308.7,284.1 308.9,284.1 309.1,284.1 309.3,284.1 309.5,284.1 309.7,284.1 309.8,284.1 310.0,284.1 310.2,284.1 310.4,284.1 310.6,284.1 310.8,284.1 311.0,284.1 311.2,284.1 311.3,284.1 311.5,284.1 311.7,284.1 311.9,284.1 312.1,284.1 312.3,284.1 312.5,284.1 312.7,284.1 312.8,284.1 313.0,286.6 313.2,286.6 313.4,286.6 313.6,286.6 313.8,286.6 314.0,286.6 314.2,286.6 314.3,286.6 314.5,286.6 314.7,286.6 314.9,286.6 315.1,286.6 315.3,286.6 315.5,286.5 315.6,286.5 315.8,288.1 316.0,288.1 316.2,289.2 316.4,289.2 316.6,289.2 316.8,294.4 317.0,294.4 317.1,294.4 317.3,294.4 317.5,294.4 317.7,294.4 317.9,294.4 318.1,294.4 318.3,294.4 318.5,294.4 318.6,294.4 318.8,294.4 319.0,294.4 319.2,294.4 319.4,294.4 319.6,294.4 319.8,294.4 320.0,294.4 320.1,294.4 320.3,294.4 320.5,294.4 320.7,294.4 320.9,294.4 321.1,294.4 321.3,294.4 321.5,297.1 321.6,299.8 321.8,299.8 322.0,299.8 322.2,299.8 322.4,299.8 322.6,300.9 322.8,300.9 322.9,305.4 323.1,305.4 323.3,305.4 323.5,317.5 323.7,317.5 323.9,317.5 324.1,317.5 324.3,300.9 324.4,300.9 324.6,300.9 324.8,299.8 325.0,299.8 325.2,299.8 325.4,299.8 325.6,299.8 325.8,299.8 325.9,289.2 326.1,289.2 326.3,289.2 326.5,289.2 326.7,289.2 326.9,289.2 327.1,289.2 327.3,289.2 327.4,289.2 327.6,289.2 327.8,289.2 328.0,289.2 328.2,289.2 328.4,289.2 328.6,289.2 328.7,289.2 328.9,289.2 329.1,289.2 329.3,289.2 329.5,289.2 329.7,289.2 329.9,289.2 330.1,289.2 330.2,289.2 330.4,289.2 330.6,289.2 330.8,289.2 331.0,289.2 331.2,289.2 331.4,289.2 331.6,289.2 331.7,289.2 331.9,289.2 332.1,289.2 332.3,289.2 332.5,289.2 332.7,289.2 332.9,281.7 333.1,281.7 333.2,281.7 333.4,281.7 333.6,281.7 333.8,281.7 334.0,281.7 334.2,281.7 334.4,281.7 334.5,281.7 334.7,281.7 334.9,281.7 335.1,299.8 335.3,299.8 335.5,315.7 335.7,315.7 335.9,307.2 336.0,307.2 336.2,307.2 336.4,307.2 336.6,307.2 336.8,307.2 337.0,307.2 337.2,307.2 337.4,307.2 337.5,307.2 337.7,307.2 337.9,307.2 338.1,307.2 338.3,307.2 338.5,307.2 338.7,307.2 338.9,307.2 339.0,307.2 339.2,307.2 339.4,307.2 339.6,307.2 339.8,307.2 340.0,307.2 340.2,307.2 340.3,307.2 340.5,307.2 340.7,307.2 340.9,307.2 341.1,307.2 341.3,307.2 341.5,307.2 341.7,308.4 341.8,308.4 342.0,308.4 342.2,308.4 342.4,308.4 342.6,307.8 342.8,307.8 343.0,307.8 343.2,307.8 343.3,307.8 343.5,311.4 343.7,311.4 343.9,311.4 344.1,311.4 344.3,311.4 344.5,311.4 344.7,311.4 344.8,311.4 345.0,311.4 345.2,311.4 345.4,311.4 345.6,311.4 345.8,311.4 346.0,311.4 346.2,311.4 346.3,311.4 346.5,311.4 346.7,311.4 346.9,311.4 347.1,311.4 347.3,311.4 347.5,311.4 347.6,311.4 347.8,311.4 348.0,311.4 348.2,311.4 348.4,311.4 348.6,294.4 348.8,294.4 349.0,294.4 349.1,294.4 349.3,294.4 349.5,294.4 349.7,294.4 349.9,294.4 350.1,294.4 350.3,294.4 350.5,294.4 350.6,294.4 350.8,294.4 351.0,294.4 351.2,302.6 351.4,302.6 351.6,302.6 351.8,302.6 352.0,302.6 352.1,302.6 352.3,302.6 352.5,302.6 352.7,302.6 352.9,302.6 353.1,302.6 353.3,302.6 353.4,302.6 353.6,302.6 353.8,302.6 354.0,302.6 354.2,302.6 354.4,302.6 354.6,302.6 354.8,302.6 354.9,302.6 355.1,302.6 355.3,302.6 355.5,302.6 355.7,302.6 355.9,302.6 356.1,302.6 356.3,302.6 356.4,302.6 356.6,302.6 356.8,302.6 357.0,302.6 357.2,302.6 357.4,302.6 357.6,302.6 357.8,302.6 357.9,302.6 358.1,302.6 358.3,302.6 358.5,302.6 358.7,302.6 358.9,302.6 359.1,302.6 359.2,302.6 359.4,302.6 359.6,302.6 359.8,302.6 360.0,302.6 360.2,302.6 360.4,302.6 360.6,302.6 360.7,302.6 360.9,302.6 361.1,302.6 361.3,302.6 361.5,302.6 361.7,302.6 361.9,302.6 362.1,302.6 362.2,302.6 362.4,302.6 362.6,302.6 362.8,302.6 363.0,302.6 363.2,302.6 363.4,302.6 363.6,302.6 363.7,302.6 363.9,302.6 364.1,302.6 364.3,302.6 364.5,302.6 364.7,313.8 364.9,313.8 365.1,313.8 365.2,313.8 365.4,313.8 365.6,313.8 365.8,313.8 366.0,312.1 366.2,311.4 366.4,311.4 366.5,311.4 366.7,311.4 366.9,311.4 367.1,311.4 367.3,311.4 367.5,311.4 367.7,311.4 367.9,311.4 368.0,311.4 368.2,311.4 368.4,311.4 368.6,311.4 368.8,311.4 369.0,311.4 369.2,311.4 369.4,311.4 369.5,311.4 369.7,311.4 369.9,311.4 370.1,311.4 370.3,311.4 370.5,311.4 370.7,311.4 370.9,311.4 371.0,311.4 371.2,311.4 371.4,311.4 371.6,311.4 371.8,311.4 372.0,311.4 372.2,311.4 372.3,311.4 372.5,311.4 372.7,311.4 372.9,311.4 373.1,311.4 373.3,311.4 373.5,311.4 373.7,311.4 373.8,311.4 374.0,311.4 374.2,311.4 374.4,311.4 374.6,311.4 374.8,311.4 375.0,311.4 375.2,311.4 375.3,311.4 375.5,311.4 375.7,311.4 375.9,311.4 376.1,311.4 376.3,311.4 376.5,311.4 376.7,311.4 376.8,311.4 377.0,311.4 377.2,311.4 377.4,311.4 377.6,311.4 377.8,311.4 378.0,311.4 378.1,311.4 378.3,311.4 378.5,311.4 378.7,311.4 378.9,311.4 379.1,311.4 379.3,311.4 379.5,311.4 379.6,311.4 379.8,302.6 380.0,302.6 380.2,302.6 380.4,294.4 380.6,294.4 380.8,294.4 381.0,294.4 381.1,294.4 381.3,294.4 381.5,294.4 381.7,294.4 381.9,294.4 382.1,294.4 382.3,294.4 382.5,294.4 382.6,294.4 382.8,294.4 383.0,294.4 383.2,294.4 383.4,311.4 383.6,311.4 383.8,311.4 383.9,311.4 384.1,311.4 384.3,311.4 384.5,311.4 384.7,311.4 384.9,311.4 385.1,311.4 385.3,311.4 385.4,311.4 385.6,311.4 385.8,311.4 386.0,311.4 386.2,311.4 386.4,311.4 386.6,311.4 386.8,311.4 386.9,311.4 387.1,311.4 387.3,311.4 387.5,311.4 387.7,311.4 387.9,311.4 388.1,311.4 388.3,311.4 388.4,311.4 388.6,311.4 388.8,311.4 389.0,311.4 389.2,317.5 389.4,317.5 389.6,317.5 389.8,317.5 389.9,317.5 390.1,317.5 390.3,317.5 390.5,317.5 390.7,317.5 390.9,317.5 391.1,317.5 391.2,317.5 391.4,317.5 391.6,317.5 391.8,317.5 392.0,317.5 392.2,317.5 392.4,317.5 392.6,317.5 392.7,317.5 392.9,317.5 393.1,317.5 393.3,317.5 393.5,294.4 393.7,289.2 393.9,289.2 394.1,289.2 394.2,289.2 394.4,289.2 394.6,289.2 394.8,289.2 395.0,289.2 395.2,289.2 395.4,289.2 395.6,289.2 395.7,289.2 395.9,289.2 396.1,289.2 396.3,289.2 396.5,289.2 396.7,289.2 396.9,289.2 397.0,289.2 397.2,289.2 397.4,289.2 397.6,289.2 397.8,289.2 398.0,289.2 398.2,289.2 398.4,289.2 398.5,289.2 398.7,289.2 398.9,289.2 399.1,289.2 399.3,289.2 399.5,289.2 399.7,289.2 399.9,289.2 400.0,289.2 400.2,289.2 400.4,289.2 400.6,289.2 400.8,289.2 401.0,289.2 401.2,289.2 401.4,289.2 401.5,294.4 401.7,294.4 401.9,294.4 402.1,294.4 402.3,294.4 402.5,294.4 402.7,294.4 402.8,294.4 403.0,294.4 403.2,294.4 403.4,294.4 403.6,294.4 403.8,294.4 404.0,294.4 404.2,267.6 404.3,267.6 404.5,267.6 404.7,267.6 404.9,267.6 405.1,267.6 405.3,267.6 405.5,294.4 405.7,294.4 405.8,294.4 406.0,294.4 406.2,294.4 406.4,294.4 406.6,294.4 406.8,294.4 407.0,294.4 407.2,294.4 407.3,294.4 407.5,294.4 407.7,286.2 407.9,286.2 408.1,286.2 408.3,286.2 408.5,286.2 408.7,282.1 408.8,282.1 409.0,282.1 409.2,282.1 409.4,282.1 409.6,282.1 409.8,282.1 410.0,282.1 410.1,282.1 410.3,282.1 410.5,277.1 410.7,277.1 410.9,277.1 411.1,277.1 411.3,277.1 411.5,277.1 411.6,277.1 411.8,277.1 412.0,277.1 412.2,277.1 412.4,277.1 412.6,277.1 412.8,277.1 413.0,277.1 413.1,277.1 413.3,277.1 413.5,277.1 413.7,277.1 413.9,277.1 414.1,277.1 414.3,277.1 414.5,277.1 414.6,277.1 414.8,277.1 415.0,277.1 415.2,277.1 415.4,277.1 415.6,277.1 415.8,277.1 415.9,277.1 416.1,277.1 416.3,277.1 416.5,277.1 416.7,277.1 416.9,277.1 417.1,265.8 417.3,277.1 417.4,277.1 417.6,277.1 417.8,277.1 418.0,277.1 418.2,277.1 418.4,265.8 418.6,265.8 418.8,265.8 418.9,265.8 419.1,265.8 419.3,265.8 419.5,265.8 419.7,265.8 419.9,265.8 420.1,265.8 420.3,265.8 420.4,265.8 420.6,265.8 420.8,265.8 421.0,265.8 421.2,265.8 421.4,265.8 421.6,265.8 421.7,265.8 421.9,265.8 422.1,265.8 422.3,265.8 422.5,263.1 422.7,263.1 422.9,263.1 423.1,263.1 423.2,263.1 423.4,263.1 423.6,263.1 423.8,263.1 424.0,263.1 424.2,263.1 424.4,263.1 424.6,263.1 424.7,263.1 424.9,263.1 425.1,263.1 425.3,263.1 425.5,263.1 425.7,293.6 425.9,293.6 426.1,293.6 426.2,293.6 426.4,293.6 426.6,293.6 426.8,293.6 427.0,293.6 427.2,293.6 427.4,293.6 427.6,293.6 427.7,293.6 427.9,293.6 428.1,290.7 428.3,266.9 428.5,266.9 428.7,262.2 428.9,266.9 429.0,258.6 429.2,258.6 429.4,254.5 429.6,254.5 429.8,254.5 430.0,254.5 430.2,254.5 430.4,254.5 430.5,254.5 430.7,254.5 430.9,254.5 431.1,254.5 431.3,254.5 431.5,254.5 431.7,254.5 431.9,254.5 432.0,254.5 432.2,254.5 432.4,254.5 432.6,254.5 432.8,254.5 433.0,254.5 433.2,254.5 433.4,254.5 433.5,254.5 433.7,254.5 433.9,254.5 434.1,254.5 434.3,254.5 434.5,254.5 434.7,254.5 434.8,254.5 435.0,254.5 435.2,254.5 435.4,251.9 435.6,251.9 435.8,251.9 436.0,251.9 436.2,251.9 436.3,251.9 436.5,251.9 436.7,251.9 436.9,251.9 437.1,251.9 437.3,251.9 437.5,251.9 437.7,251.9 437.8,251.9 438.0,251.9 438.2,251.9 438.4,251.9 438.6,251.9 438.8,251.9 439.0,251.9 439.2,251.9 439.3,251.9 439.5,266.9 439.7,266.9 439.9,266.9 440.1,266.9 440.3,266.9 440.5,266.9 440.6,266.9 440.8,266.9 441.0,266.9 441.2,266.9 441.4,266.9 441.6,266.9 441.8,266.9 442.0,266.9 442.1,266.9 442.3,266.9 442.5,266.9 442.7,266.9 442.9,266.9 443.1,266.9 443.3,266.9 443.5,266.9 443.6,266.9 443.8,266.9 444.0,266.9 444.2,287.8 444.4,287.8 444.6,287.8 444.8,287.8 445.0,287.8 445.1,287.8 445.3,287.8 445.5,287.8 445.7,287.8 445.9,287.8 446.1,287.8 446.3,287.8 446.4,287.8 446.6,287.8 446.8,287.8 447.0,287.8 447.2,287.8 447.4,287.8 447.6,287.8 447.8,287.8 447.9,287.8 448.1,287.8 448.3,262.2 448.5,256.7 448.7,256.7 448.9,256.7 449.1,256.7 449.3,256.7 449.4,256.7 449.6,256.7 449.8,256.7 450.0,256.7 450.2,256.7 450.4,256.7 450.6,273.1 450.8,273.1 450.9,273.1 451.1,273.1 451.3,273.1 451.5,273.1 451.7,273.1 451.9,273.1 452.1,273.1 452.3,258.6 452.4,258.6 452.6,258.6 452.8,258.6 453.0,256.2 453.2,256.2 453.4,256.2 453.6,256.2 453.7,256.2 453.9,256.2 454.1,256.2 454.3,255.3 454.5,255.3 454.7,243.1 454.9,243.1 455.1,243.1 455.2,243.1 455.4,243.1 455.6,243.1 455.8,260.0 456.0,260.0 456.2,260.0 456.4,260.0 456.6,260.0 456.7,260.0 456.9,260.0 457.1,260.0 457.3,260.0 457.5,260.0 457.7,260.0 457.9,260.0 458.1,260.0 458.2,260.0 458.4,260.0 458.6,260.0 458.8,260.0 459.0,260.0 459.2,260.0 459.4,260.0 459.5,260.0 459.7,260.0 459.9,260.0 460.1,260.0 460.3,260.0 460.5,260.0 460.7,260.0 460.9,260.0 461.0,260.0 461.2,260.0 461.4,260.0 461.6,260.0 461.8,260.0 462.0,260.0 462.2,260.0 462.4,260.0 462.5,260.0 462.7,260.0 462.9,260.0 463.1,260.0 463.3,260.0 463.5,260.0 463.7,260.0 463.9,260.0 464.0,258.6 464.2,258.6 464.4,258.6 464.6,258.6 464.8,258.6 465.0,258.6 465.2,258.6 465.3,258.6 465.5,258.6 465.7,258.6 465.9,258.6 466.1,258.6 466.3,258.6 466.5,258.6 466.7,256.2 466.8,256.2 467.0,256.2 467.2,256.2 467.4,259.5 467.6,259.5 467.8,259.5 468.0,263.4 468.2,259.1 468.3,259.1 468.5,259.1 468.7,261.0 468.9,261.0 469.1,261.0 469.3,261.0 469.5,261.0 469.7,261.0 469.8,261.0 470.0,261.0 470.2,261.0 470.4,261.0 470.6,261.0 470.8,272.6 471.0,272.6 471.2,261.0 471.3,266.7 471.5,266.7 471.7,266.7 471.9,266.7 472.1,266.7 472.3,261.0 472.5,258.8 472.6,258.8 472.8,258.8 473.0,274.1 473.2,274.1 473.4,274.1 473.6,274.1 473.8,274.1 474.0,274.1 474.1,254.9 474.3,254.9 474.5,254.9 474.7,254.9 474.9,254.9 475.1,254.9 475.3,254.9 475.5,254.9 475.6,254.9 475.8,258.8 476.0,258.8 476.2,257.4 476.4,257.4 476.6,257.4 476.8,257.4 477.0,257.4 477.1,257.4 477.3,257.4 477.5,257.4 477.7,257.4 477.9,257.4 478.1,257.4 478.3,257.4 478.4,254.9 478.6,254.9 478.8,254.9 479.0,254.9 479.2,254.9 479.4,254.9 479.6,254.9 479.8,254.9 479.9,254.9 480.1,254.9 480.3,254.9 480.5,254.9 480.7,254.9 480.9,254.9 481.1,254.9 481.3,254.9 481.4,254.9 481.6,254.9 481.8,254.9 482.0,250.2 482.2,250.2 482.4,250.2 482.6,250.2 482.8,250.2 482.9,250.2 483.1,250.2 483.3,250.2 483.5,250.2 483.7,250.2 483.9,243.4 484.1,243.4 484.2,243.4 484.4,243.4 484.6,243.4 484.8,243.4 485.0,243.4 485.2,243.4 485.4,243.4 485.6,243.4 485.7,243.4 485.9,243.4 486.1,243.4 486.3,243.4 486.5,243.4 486.7,243.4 486.9,243.4 487.1,243.4 487.2,243.4 487.4,243.4 487.6,243.4 487.8,243.4 488.0,254.0 488.2,254.0 488.4,254.0 488.6,254.0 488.7,254.0 488.9,245.0 489.1,254.0 489.3,245.2 489.5,244.7 489.7,243.4 489.9,243.4 490.1,243.4 490.2,243.4 490.4,243.4 490.6,243.4 490.8,249.2 491.0,240.3 491.2,240.3 491.4,243.4 491.5,243.4 491.7,239.0 491.9,239.0 492.1,243.4 492.3,243.4 492.5,243.4 492.7,244.3 492.9,244.3 493.0,244.3 493.2,239.0 493.4,239.0 493.6,239.0 493.8,239.0 494.0,226.7 494.2,234.8 494.4,228.7 494.5,228.7 494.7,234.8 494.9,234.8 495.1,234.8 495.3,234.8 495.5,234.8 495.7,275.4 495.9,227.3 496.0,227.3 496.2,229.1 496.4,229.1 496.6,229.1 496.8,229.1 497.0,229.1 497.2,229.0 497.3,229.0 497.5,234.6 497.7,234.9 497.9,231.1 498.1,235.4 498.3,235.4 498.5,235.4 498.7,235.4 498.8,235.4 499.0,235.4 499.2,231.1 499.4,231.1 499.6,235.4 499.8,235.4 500.0,231.1 500.2,226.9 500.3,226.9 500.5,226.9 500.7,226.9 500.9,212.0 501.1,212.0 501.3,211.9 501.5,197.2 501.7,167.3 501.8,181.6 502.0,181.6 502.2,181.6 502.4,181.6 502.6,181.6 502.8,181.6 503.0,174.4 503.1,174.4 503.3,189.2 503.5,189.2 503.7,189.2 503.9,189.2 504.1,189.2 504.3,189.2 504.5,189.2 504.6,188.8 504.8,188.8 505.0,188.8 505.2,188.5 505.4,181.6 505.6,178.6 505.8,178.6 506.0,178.6 506.1,178.6 506.3,178.6 506.5,188.5 506.7,188.5 506.9,188.5 507.1,175.8 507.3,181.3 507.5,181.3 507.6,181.3 507.8,181.3 508.0,181.3 508.2,181.3 508.4,181.3 508.6,181.3 508.8,181.3 508.9,181.3 509.1,174.4 509.3,181.3 509.5,181.3 509.7,181.3 509.9,181.3 510.1,188.8 510.3,188.8 510.4,188.6 510.6,187.6 510.8,183.0 511.0,183.0 511.2,183.0 511.4,188.2 511.6,188.2 511.8,188.2 511.9,188.2 512.1,184.5 512.3,187.6 512.5,187.6 512.7,181.6 512.9,181.6 513.1,181.6 513.3,181.6 513.4,181.3 513.6,173.0 513.8,173.0 514.0,173.0 514.2,173.0 514.4,173.0 514.6,173.0 514.8,168.9 514.9,167.6 515.1,167.6 515.3,167.6 515.5,167.6 515.7,167.6 515.9,167.6 516.1,175.8 516.2,175.8 516.4,175.8 516.6,178.3 516.8,178.3 517.0,178.3 517.2,167.6 517.4,167.6 517.6,167.6 517.7,167.6 517.9,167.6 518.1,167.6 518.3,167.6 518.5,167.6 518.7,145.6 518.9,143.3 519.1,143.3 519.2,178.1 519.4,178.1 519.6,173.8 519.8,174.4 520.0,174.4 520.2,174.4 520.4,174.4 520.6,168.7 520.7,168.5 520.9,163.6 521.1,163.6 521.3,163.3 521.5,163.3 521.7,163.3 521.9,163.3 522.0,172.1 522.2,172.1 522.4,164.7 522.6,164.7 522.8,141.6 523.0,141.6 523.2,171.4 523.4,171.4 523.5,171.4 523.7,171.4 523.9,171.4 524.1,171.4 524.3,171.4 524.5,171.4 524.7,171.4 524.9,171.4 525.0,171.4 525.2,171.4 525.4,171.4 525.6,171.4 525.8,171.4 526.0,171.4 526.2,171.4 526.4,171.4 526.5,163.1 526.7,163.1 526.9,163.1 527.1,163.3 527.3,163.3 527.5,169.3 527.7,169.3 527.8,169.3 528.0,169.3 528.2,169.3 528.4,169.3 528.6,169.3 528.8,169.3 529.0,169.3 529.2,169.3 529.3,156.8 529.5,156.8 529.7,156.8 529.9,156.8 530.1,156.8 530.3,156.8 530.5,168.7 530.7,168.7 530.8,150.9 531.0,150.9 531.2,150.9 531.4,150.9 531.6,150.9 531.8,150.7 532.0,150.7 532.2,156.8 532.3,163.3 532.5,163.3 532.7,163.3 532.9,163.3 533.1,156.8 533.3,156.8 533.5,156.8 533.7,156.8 533.8,156.8 534.0,156.8 534.2,156.8 534.4,156.8 534.6,156.8 534.8,156.8 535.0,156.8 535.1,160.6 535.3,160.6 535.5,160.6 535.7,160.6 535.9,160.6 536.1,161.2 536.3,161.2 536.5,161.2 536.6,151.9 536.8,151.9 537.0,151.9 537.2,151.9 537.4,150.7 537.6,150.7 537.8,150.7 538.0,150.7 538.1,150.7 538.3,150.7 538.5,150.7 538.7,150.7 538.9,150.7 539.1,150.7 539.3,150.7 539.5,150.7 539.6,150.7 539.8,150.7 540.0,153.1 540.2,153.1 540.4,153.1 540.6,153.1 540.8,153.1 540.9,153.1 541.1,153.1 541.3,153.1 541.5,153.1 541.7,150.7 541.9,143.8 542.1,143.8 542.3,143.8 542.4,143.8 542.6,140.4 542.8,140.4 543.0,140.4 543.2,140.4 543.4,140.4 543.6,140.4 543.8,140.4 543.9,140.4 544.1,140.4 544.3,140.4 544.5,149.7 544.7,149.7 544.9,149.7 545.1,140.4 545.3,140.4 545.4,140.4 545.6,140.4 545.8,140.4 546.0,140.4 546.2,138.7 546.4,138.7 546.6,138.6 546.7,144.9 546.9,150.9 547.1,150.9 547.3,152.2 547.5,163.7 547.7,146.3 547.9,153.4 548.1,150.9 548.2,150.9 548.4,149.7 548.6,149.7 548.8,149.7 549.0,149.7 549.2,149.7 549.4,149.7 549.6,149.7 549.7,149.6 549.9,149.6 550.1,146.3 550.3,146.3 550.5,157.3 550.7,147.3 550.9,146.3 551.1,146.3 551.2,147.3 551.4,146.3 551.6,146.3 551.8,146.3 552.0,146.3 552.2,146.3 552.4,165.3 552.5,165.3 552.7,165.3 552.9,165.3 553.1,165.3 553.3,158.6 553.5,154.7 553.7,154.7 553.9,154.7 554.0,154.7 554.2,154.7 554.4,154.7 554.6,154.7 554.8,154.7 555.0,154.7 555.2,154.7 555.4,154.7 555.5,154.7 555.7,154.7 555.9,154.7 556.1,149.4 556.3,149.4 556.5,149.4 556.7,149.4 556.9,149.4 557.0,149.4 557.2,149.4 557.4,149.4 557.6,158.3 557.8,158.1 558.0,158.1 558.2,158.1 558.4,158.1 558.5,157.8 558.7,157.8 558.9,149.6 559.1,149.6 559.3,149.6 559.5,149.6 559.7,149.6 559.8,149.6 560.0,149.6 560.2,153.4 560.4,153.4 560.6,153.4 560.8,142.3 561.0,142.3 561.2,156.0 561.3,156.0 561.5,156.0 561.7,156.0 561.9,157.8 562.1,157.8 562.3,157.8 562.5,150.4 562.7,149.7 562.8,147.3 563.0,147.3 563.2,149.6 563.4,149.6 563.6,153.4 563.8,153.4 564.0,153.4 564.2,153.4 564.3,144.9 564.5,144.9 564.7,145.0 564.9,145.0 565.1,153.4 565.3,153.4 565.5,157.8 565.6,149.3 565.8,149.3 566.0,149.3 566.2,144.9 566.4,156.3 566.6,155.7 566.8,151.8 567.0,155.9 567.1,155.9 567.3,155.9 567.5,154.4 567.7,154.4 567.9,154.4 568.1,154.4 568.3,154.4 568.5,155.2 568.6,155.2 568.8,154.4 569.0,154.4 569.2,154.4 569.4,145.5 569.6,145.5 569.8,144.3 570.0,144.3 570.1,144.5 570.3,144.3 570.5,144.3 570.7,144.3 570.9,143.3 571.1,143.3 571.3,143.3 571.4,143.3 571.6,143.3 571.8,143.3 572.0,143.3 572.2,143.3 572.4,143.3 572.6,143.3 572.8,143.3 572.9,143.3 573.1,143.3 573.3,143.3 573.5,143.3 573.7,143.3 573.9,143.3 574.1,143.3 574.3,143.3 574.4,143.3 574.6,143.3 574.8,143.3 575.0,143.3 575.2,143.3 575.4,143.3 575.6,143.3 575.8,143.3 575.9,143.3 576.1,185.4 576.3,185.4 576.5,185.4 576.7,185.4 576.9,185.4 577.1,185.4 577.3,185.4 577.4,185.4 577.6,185.4 577.8,185.4 578.0,185.4 578.2,185.4 578.4,185.4 578.6,185.4 578.7,185.4 578.9,185.4 579.1,185.4 579.3,185.4 579.5,185.4 579.7,185.4 579.9,185.4 580.1,185.4 580.2,185.4 580.4,185.4 580.6,185.4 580.8,185.4 581.0,185.4 581.2,185.4 581.4,185.4 581.6,185.4 581.7,185.4 581.9,185.4 582.1,155.8 582.3,155.8 582.5,155.8 582.7,155.8 582.9,155.8 583.1,155.8 583.2,155.8 583.4,155.8 583.6,155.8 583.8,155.8 584.0,149.3 584.2,149.3 584.4,149.3 584.5,149.3 584.7,149.3 584.9,149.3 585.1,149.3 585.3,149.3 585.5,149.3 585.7,149.3 585.9,149.3 586.0,149.3 586.2,149.3 586.4,149.3 586.6,149.3 586.8,149.3 587.0,149.3 587.2,149.3 587.4,149.3 587.5,149.3 587.7,149.3 587.9,149.3 588.1,149.3 588.3,149.3 588.5,149.3 588.7,149.3 588.9,149.3 589.0,149.3 589.2,149.3 589.4,149.3 589.6,149.3 589.8,149.3 590.0,144.6 590.2,144.6 590.3,144.6 590.5,144.6 590.7,144.6 590.9,144.6 591.1,144.6 591.3,144.6 591.5,144.6 591.7,144.6 591.8,144.6 592.0,144.6 592.2,144.6 592.4,144.6 592.6,144.6 592.8,144.6 593.0,144.6 593.2,144.6 593.3,144.6 593.5,144.6 593.7,144.6 593.9,144.6 594.1,144.6 594.3,144.6 594.5,144.6 594.7,144.6 594.8,144.6 595.0,144.6 595.2,144.6 595.4,144.6 595.6,144.6 595.8,144.6 596.0,144.6 596.2,144.6 596.3,144.6 596.5,144.8 596.7,144.8 596.9,144.8 597.1,144.8 597.3,144.8 597.5,144.8 597.6,144.8 597.8,144.8 598.0,144.8 598.2,144.8 598.4,144.8 598.6,144.8 598.8,144.8 599.0,144.8 599.1,144.8 599.3,144.8 599.5,144.8 599.7,144.8 599.9,144.8 600.1,144.8 600.3,144.8 600.5,144.8 600.6,144.8 600.8,144.8 601.0,144.8 601.2,144.8 601.4,144.8 601.6,143.1 601.8,143.1 602.0,143.1 602.1,143.1 602.3,143.1 602.5,143.1 602.7,143.1 602.9,143.1 603.1,143.1 603.3,143.1 603.4,143.1 603.6,143.1 603.8,143.1 604.0,143.1 604.2,143.1 604.4,143.1 604.6,143.1 604.8,143.1 604.9,143.4 605.1,143.4 605.3,143.4 605.5,143.4 605.7,143.4 605.9,143.4 606.1,144.6 606.3,144.6 606.4,144.6 606.6,146.9 606.8,144.6 607.0,144.6 607.2,144.6 607.4,144.6 607.6,144.6 607.8,144.6 607.9,144.6 608.1,144.6 608.3,144.6 608.5,144.6 608.7,144.6 608.9,144.6 609.1,144.6 609.2,144.6 609.4,144.6 609.6,144.6 609.8,144.6 610.0,144.6 610.2,144.6 610.4,144.6 610.6,144.6 610.7,144.6 610.9,144.6 611.1,144.6 611.3,144.6 611.5,144.6 611.7,144.6 611.9,144.6 612.1,144.6 612.2,144.6 612.4,144.6 612.6,144.6 612.8,144.6 613.0,144.6 613.2,144.6 613.4,144.6 613.6,144.6 613.7,144.6 613.9,139.8 614.1,139.8 614.3,139.8 614.5,131.2 614.7,131.2 614.9,131.2 615.0,131.2 615.2,131.2 615.4,131.2 615.6,131.2 615.8,131.2 616.0,131.2 616.2,131.2 616.4,128.8 616.5,128.8 616.7,128.8 616.9,128.8 617.1,128.8 617.3,128.8 617.5,128.8 617.7,128.8 617.9,128.8 618.0,128.8 618.2,128.8 618.4,128.8 618.6,128.8 618.8,128.8 619.0,128.8 619.2,128.8 619.4,128.8 619.5,128.8 619.7,128.8 619.9,128.8 620.1,128.8 620.3,128.8 620.5,128.8 620.7,126.5 620.9,126.5 621.0,126.5 621.2,126.5 621.4,126.5 621.6,126.5 621.8,126.5 622.0,126.5 622.2,126.5 622.3,126.5 622.5,126.5 622.7,126.5 622.9,126.5 623.1,126.5 623.3,126.5 623.5,126.5 623.7,126.5 623.8,126.5 624.0,126.5 624.2,126.5 624.4,126.5 624.6,126.5 624.8,126.5 625.0,126.5 625.2,126.5 625.3,126.5 625.5,126.5 625.7,126.5 625.9,126.5 626.1,126.5 626.3,122.0 626.5,122.0 626.7,122.0 626.8,122.0 627.0,122.0 627.2,122.0 627.4,126.5 627.6,126.5 627.8,126.5 628.0,126.5 628.1,126.5 628.3,126.5 628.5,126.5 628.7,126.5 628.9,126.5 629.1,126.5 629.3,126.5 629.5,126.5 629.6,126.5 629.8,126.5 630.0,126.5 630.2,126.5 630.4,126.5 630.6,126.5 630.8,126.5 631.0,126.5 631.1,126.5 631.3,126.5 631.5,126.5 631.7,126.5 631.9,126.5 632.1,126.5 632.3,126.5 632.5,123.1 632.6,123.1 632.8,123.1 633.0,123.1 633.2,123.1 633.4,123.1 633.6,123.1 633.8,123.1 633.9,123.1 634.1,124.3 634.3,124.3 634.5,124.3 634.7,124.3 634.9,124.3 635.1,124.3 635.3,124.3 635.4,124.3 635.6,124.3 635.8,124.3 636.0,124.3 636.2,124.3 636.4,124.3 636.6,124.3 636.8,124.3 636.9,120.3 637.1,120.3 637.3,120.3 637.5,120.3 637.7,120.3 637.9,120.3 638.1,120.3 638.3,120.3 638.4,120.3 638.6,120.3 638.8,120.3 639.0,120.0 639.2,120.3 639.4,120.3 639.6,120.3 639.8,120.3 639.9,120.3 640.1,120.3 640.3,120.3 640.5,120.3 640.7,112.6 640.9,112.6 641.1,112.6 641.2,112.6 641.4,112.6 641.6,112.6 641.8,112.6 642.0,112.6 642.2,112.6 642.4,112.6 642.6,112.6 642.7,112.6 642.9,112.6 643.1,112.6 643.3,112.6 643.5,112.6 643.7,112.6 643.9,112.6 644.1,112.6 644.2,112.6 644.4,112.6 644.6,112.6 644.8,112.6 645.0,112.6 645.2,112.6 645.4,112.6 645.6,120.3 645.7,120.3 645.9,120.3 646.1,120.3 646.3,120.3 646.5,120.3 646.7,120.3 646.9,120.3 647.0,120.3 647.2,120.3 647.4,120.3 647.6,120.3 647.8,120.3 648.0,120.3 648.2,120.3 648.4,120.3 648.5,120.3 648.7,120.3 648.9,120.3 649.1,120.3 649.3,120.3 649.5,120.3 649.7,120.3 649.9,120.3 650.0,120.3 650.2,120.3 650.4,120.3 650.6,120.3 650.8,120.3 651.0,120.3 651.2,120.3 651.4,120.3 651.5,120.3 651.7,120.3 651.9,120.3 652.1,120.3 652.3,120.3 652.5,120.3 652.7,120.3 652.8,120.3 653.0,120.3 653.2,120.3 653.4,120.3 653.6,126.5 653.8,126.5 654.0,127.2 654.2,127.2 654.3,127.2 654.5,127.2 654.7,127.2 654.9,127.2 655.1,127.2 655.3,123.7 655.5,123.7 655.7,123.7 655.8,123.7 656.0,124.9 656.2,124.9 656.4,124.9 656.6,124.9 656.8,124.9 657.0,124.9 657.2,124.9 657.3,124.9 657.5,124.9 657.7,124.9 657.9,124.9 658.1,124.9 658.3,124.9 658.5,124.9 658.6,124.9 658.8,124.9 659.0,124.9 659.2,124.9 659.4,124.9 659.6,124.9 659.8,124.9 660.0,124.9 660.1,124.9 660.3,124.9 660.5,124.9 660.7,124.9 660.9,120.6 661.1,120.6 661.3,120.6 661.5,120.6 661.6,120.6 661.8,120.6 662.0,120.6 662.2,120.6 662.4,120.3 662.6,120.3 662.8,120.3 663.0,120.3 663.1,120.3 663.3,120.3 663.5,120.3 663.7,120.3 663.9,120.3 664.1,120.3 664.3,120.3 664.5,120.3 664.6,120.3 664.8,120.3 665.0,120.3 665.2,120.3 665.4,120.3 665.6,120.3 665.8,118.3 665.9,118.3 666.1,118.3 666.3,118.3 666.5,118.3 666.7,118.3 666.9,120.3 667.1,120.3 667.3,120.3 667.4,120.3 667.6,120.3 667.8,120.3 668.0,120.3 668.2,120.3 668.4,120.3 668.6,120.3 668.8,120.3 668.9,120.3 669.1,120.3 669.3,120.3 669.5,120.3 669.7,120.3 669.9,120.3 670.1,120.3 670.3,120.3 670.4,120.3 670.6,120.3 670.8,120.3 671.0,120.3 671.2,120.3 671.4,120.3 671.6,120.3 671.7,120.3 671.9,120.3 672.1,120.3 672.3,120.3 672.5,120.3 672.7,120.3 672.9,120.3 673.1,120.3 673.2,120.3 673.4,119.2 673.6,119.2 673.8,119.2 674.0,119.2 674.2,119.2 674.4,119.2 674.6,119.2 674.7,120.6 674.9,120.6 675.1,119.9 675.3,119.9 675.5,119.9 675.7,119.9 675.9,119.9 676.1,119.9 676.2,119.9 676.4,119.9 676.6,119.9 676.8,119.9 677.0,119.9 677.2,119.9 677.4,119.9 677.5,119.9 677.7,119.9 677.9,119.9 678.1,119.9 678.3,119.9 678.5,119.9 678.7,119.9 678.9,119.9 679.0,119.9 679.2,119.9 679.4,119.9 679.6,119.9 679.8,119.9 680.0,119.9 680.2,119.9 680.4,119.9 680.5,119.9 680.7,119.9 680.9,119.9 681.1,119.9 681.3,119.9 681.5,119.9 681.7,119.9 681.9,111.6 682.0,111.6 682.2,111.6 682.4,111.6 682.6,111.6 682.8,111.6 683.0,111.6 683.2,111.6 683.4,111.6 683.5,111.6 683.7,111.6 683.9,111.6 684.1,107.6 684.3,107.6 684.5,107.6 684.7,107.6 684.8,107.6 685.0,107.6 685.2,107.6 685.4,107.6 685.6,107.6 685.8,107.6 686.0,107.6 686.2,107.6 686.3,107.6 686.5,107.6 686.7,115.5 686.9,115.5 687.1,115.5 687.3,115.5 687.5,115.5 687.7,115.5 687.8,115.5 688.0,115.5 688.2,115.5 688.4,115.5 688.6,115.5 688.8,115.5 689.0,115.5 689.2,115.5 689.3,116.1 689.5,116.1 689.7,116.1 689.9,116.1 690.1,116.1 690.3,116.1 690.5,116.1 690.6,116.1 690.8,116.1 691.0,116.1 691.2,116.1 691.4,116.1 691.6,116.1 691.8,116.1 692.0,116.1 692.1,116.1 692.3,116.1 692.5,116.1 692.7,116.1 692.9,116.1 693.1,116.1 693.3,116.1 693.5,116.1 693.6,107.6 693.8,107.6 694.0,107.6 694.2,107.6 694.4,107.6 694.6,112.1 694.8,112.1 695.0,112.1 695.1,112.1 695.3,112.1 695.5,112.1 695.7,112.1 695.9,112.1 696.1,112.1 696.3,112.1 696.4,112.1 696.6,112.1 696.8,112.1 697.0,112.1 697.2,112.1 697.4,112.1 697.6,112.1 697.8,112.1 697.9,112.1 698.1,112.1 698.3,112.1 698.5,112.1 698.7,112.1 698.9,112.1 699.1,112.1 699.3,112.1 699.4,112.1 699.6,112.1 699.8,112.1 700.0,112.1 700.2,116.1 700.4,116.1 700.6,116.1 700.8,116.1 700.9,116.1 701.1,116.1 701.3,116.1 701.5,116.1 701.7,116.1 701.9,116.1 702.1,116.1 702.3,114.3 702.4,114.3 702.6,114.3 702.8,114.3 703.0,114.3 703.2,114.3 703.4,114.3 703.6,114.3 703.7,114.3 703.9,114.3 704.1,114.3 704.3,116.1 704.5,116.1 704.7,116.1 704.9,116.1 705.1,116.1 705.2,116.1 705.4,116.1 705.6,116.1 705.8,116.1 706.0,116.1 706.2,116.1 706.4,116.1 706.6,116.1 706.7,116.1 706.9,116.1 707.1,116.1 707.3,116.1 707.5,116.1 707.7,116.1 707.9,116.1 708.1,111.8 708.2,111.8 708.4,111.8 708.6,111.8 708.8,111.8 709.0,111.8 709.2,111.8 709.4,111.8 709.5,111.8 709.7,111.8 709.9,111.8 710.1,111.8 710.3,111.8 710.5,111.8 710.7,111.8 710.9,111.8 711.0,111.8 711.2,111.8 711.4,111.8 711.6,111.8 711.8,111.8 712.0,111.8 712.2,111.8 712.4,111.8 712.5,111.8 712.7,111.8 712.9,111.8 713.1,111.8 713.3,117.2 713.5,117.2 713.7,117.2 713.9,117.2 714.0,117.2 714.2,117.2 714.4,117.2 714.6,117.2 714.8,117.2 715.0,117.2 715.2,117.2 715.3,117.2 715.5,117.2 715.7,117.2 715.9,117.2 716.1,117.2 716.3,117.2 716.5,117.2 716.7,116.0 716.8,116.0 717.0,116.0 717.2,116.0 717.4,116.0 717.6,116.0 717.8,116.0 718.0,116.0 718.2,116.0 718.3,116.0 718.5,116.0 718.7,116.0 718.9,116.0 719.1,116.0 719.3,116.0 719.5,116.0 719.7,116.0 719.8,116.0 720.0,116.0 720.2,116.0 720.4,116.0 720.6,116.0 720.8,116.0 721.0,116.0 721.1,116.0 721.3,116.0 721.5,116.0 721.7,116.0 721.9,116.0 722.1,116.0 722.3,116.0 722.5,116.0 722.6,116.0 722.8,116.0 723.0,116.0 723.2,116.0 723.4,116.0 723.6,116.0 723.8,116.0 724.0,116.0 724.1,116.0 724.3,116.0 724.5,116.0 724.7,116.0 724.9,116.0 725.1,116.0 725.3,116.0 725.5,116.0 725.6,116.0 725.8,116.0 726.0,116.0 726.2,116.0 726.4,116.0 726.6,116.0 726.8,116.0 727.0,116.0 727.1,116.0 727.3,116.0 727.5,116.0 727.7,116.0 727.9,116.0 728.1,116.0 728.3,104.5 728.4,104.5 728.6,104.5 728.8,104.5 729.0,104.5 729.2,104.5 729.4,104.5 729.6,104.5 729.8,104.5 729.9,104.5 730.1,104.5 730.3,104.5 730.5,104.5 730.7,104.5 730.9,104.5 731.1,100.4 731.3,100.4 731.4,100.4 731.6,100.4 731.8,100.4 732.0,100.4 732.2,100.4 732.4,100.4 732.6,100.4 732.8,100.4 732.9,100.4 733.1,100.4 733.3,100.4 733.5,100.4 733.7,100.4 733.9,100.4 734.1,100.4 734.2,100.4 734.4,100.4 734.6,100.4 734.8,100.4 735.0,100.4 735.2,100.4 735.4,100.4 735.6,100.4 735.7,100.4 735.9,100.4 736.1,100.4 736.3,100.4 736.5,101.5 736.7,101.5 736.9,101.5 737.1,101.5 737.2,101.5 737.4,101.5 737.6,101.5 737.8,101.5 738.0,101.5 738.2,101.5 738.4,101.5 738.6,101.5 738.7,101.5 738.9,111.9 739.1,111.9 739.3,111.9 739.5,111.9 739.7,111.9 739.9,111.9 740.0,111.9 740.2,103.7 740.4,103.7 740.6,103.7 740.8,103.7 741.0,103.7 741.2,105.5 741.4,105.5 741.5,105.5 741.7,105.5 741.9,105.5 742.1,105.5 742.3,105.5 742.5,111.9 742.7,111.9 742.9,111.9 743.0,111.9 743.2,113.1 743.4,113.1 743.6,113.1 743.8,113.1 744.0,113.1 744.2,113.1 744.4,113.1 744.5,113.1 744.7,113.1 744.9,113.1 745.1,113.1 745.3,113.1 745.5,113.1 745.7,113.1 745.9,113.1 746.0,113.1 746.2,113.1 746.4,113.1 746.6,113.1 746.8,113.1 747.0,113.1 747.2,113.1 747.3,113.1 747.5,113.1 747.7,113.1 747.9,113.1 748.1,107.1 748.3,107.1 748.5,107.1 748.7,107.1 748.8,107.1 749.0,107.1 749.2,107.1 749.4,107.1 749.6,107.1 749.8,107.1 750.0,107.1 750.2,110.7 750.3,110.7 750.5,110.7 750.7,110.7 750.9,110.7 751.1,110.7 751.3,110.7 751.5,110.7 751.7,110.7 751.8,110.7 752.0,110.7 752.2,110.7 752.4,110.7 752.6,110.7 752.8,110.7 753.0,110.7 753.1,110.7 753.3,110.7 753.5,110.7 753.7,110.7 753.9,110.7 754.1,110.7 754.3,110.7 754.5,110.7 754.6,106.1 754.8,106.1 755.0,106.1 755.2,106.1 755.4,106.1 755.6,106.1 755.8,106.1 756.0,106.1 756.1,106.1 756.3,106.1 756.5,106.1 756.7,106.1 756.9,106.1 757.1,106.1 757.3,106.1 757.5,106.1 757.6,106.1 757.8,76.5 758.0,76.5 758.2,76.5 758.4,76.5 758.6,76.5 758.8,76.5 758.9,76.5 759.1,76.5 759.3,76.5 759.5,102.6 759.7,102.6 759.9,102.6 760.1,102.6 760.3,102.6 760.4,102.6 760.6,102.6 760.8,102.6 761.0,102.6 761.2,102.6 761.4,102.6 761.6,102.6 761.8,102.6 761.9,102.6 762.1,102.6 762.3,102.6 762.5,102.6 762.7,102.6 762.9,102.6 763.1,101.5 763.3,101.5 763.4,101.5 763.6,101.5 763.8,101.5 764.0,101.5 764.2,102.6 764.4,102.6 764.6,102.6 764.8,102.6 764.9,102.6 765.1,102.6 765.3,102.6 765.5,102.6 765.7,102.6 765.9,102.6 766.1,102.6 766.2,102.6 766.4,102.6 766.6,102.6 766.8,102.6 767.0,102.6 767.2,102.6 767.4,102.6 767.6,102.6 767.7,102.6 767.9,102.6 768.1,102.6 768.3,102.6 768.5,102.6 768.7,102.6 768.9,102.6 769.1,102.6 769.2,102.6 769.4,102.6 769.6,102.6 769.8,102.6 770.0,102.6 770.2,102.6 770.4,102.6 770.6,102.6 770.7,102.6 770.9,102.6 771.1,102.6 771.3,102.6 771.5,102.6 771.7,102.6 771.9,102.6 772.0,102.6 772.2,102.6 772.4,102.6 772.6,102.6 772.8,102.6 773.0,102.6 773.2,102.6 773.4,102.6 773.5,102.6 773.7,102.6 773.9,102.6 774.1,102.6 774.3,102.6 774.5,102.6 774.7,102.6 774.9,102.6 775.0,102.6 775.2,102.6 775.4,102.6 775.6,102.6 775.8,102.6 776.0,102.6 776.2,102.6 776.4,102.6 776.5,102.6 776.7,102.6 776.9,102.6 777.1,102.6 777.3,102.6 777.5,102.6 777.7,102.6 777.8,98.1 778.0,98.1 778.2,98.1 778.4,98.1 778.6,98.1 778.8,98.1 779.0,98.1 779.2,98.1 779.3,98.1 779.5,98.1 779.7,98.1 779.9,98.1 780.1,98.1 780.3,98.1 780.5,98.1 780.7,98.1 780.8,98.1 781.0,98.1 781.2,98.1 781.4,98.1 781.6,98.1 781.8,98.1 782.0,98.1 782.2,98.1 782.3,98.1 782.5,98.1 782.7,98.1 782.9,98.1 783.1,101.6 783.3,101.6 783.5,101.6 783.6,101.6 783.8,101.6 784.0,101.6 784.2,101.6 784.4,101.6 784.6,101.6 784.8,101.6 785.0,101.6 785.1,101.6 785.3,101.6 785.5,101.6 785.7,101.6 785.9,101.6 786.1,101.6 786.3,101.6 786.5,101.6 786.6,101.6 786.8,101.6 787.0,101.6 787.2,101.6 787.4,101.6 787.6,101.6 787.8,101.6 788.0,101.6 788.1,101.6 788.3,101.6 788.5,101.6 788.7,101.6 788.9,101.6 789.1,101.6 789.3,101.6 789.5,101.6 789.6,101.6 789.8,101.6 790.0,101.6 790.2,101.6 790.4,101.6 790.6,101.6 790.8,101.6 790.9,101.6 791.1,101.6 791.3,101.6 791.5,101.6 791.7,101.6 791.9,101.6 792.1,101.6 792.3,101.6 792.4,101.6 792.6,101.6 792.8,101.6 793.0,98.1 793.2,98.1 793.4,98.1 793.6,98.1 793.8,98.1 793.9,98.1 794.1,98.1 794.3,98.1 794.5,98.1 794.7,98.1 794.9,98.1 795.1,98.1 795.3,98.1 795.4,98.1 795.6,98.1 795.8,98.1 796.0,98.1"/>
<text x="78" y="392" font-size="11" fill="#16a34a">Total return +365.9%</text><text x="268" y="392" font-size="11" fill="#2563eb">Price-only +144.7%</text><text x="78" y="362" font-size="11" text-anchor="middle" fill="#64748b">2011-04</text><text x="257" y="362" font-size="11" text-anchor="middle" fill="#64748b">2015-02</text><text x="437" y="362" font-size="11" text-anchor="middle" fill="#64748b">2018-11</text><text x="617" y="362" font-size="11" text-anchor="middle" fill="#64748b">2022-09</text><text x="796" y="362" font-size="11" text-anchor="middle" fill="#64748b">2026-07</text></svg>