<svg xmlns="http://www.w3.org/2000/svg" width="820" height="410" viewBox="0 0 820 410">
<rect width="820" height="410" fill="#fafafa"/><text x="78" y="22" font-size="14" font-family="sans-serif" fill="#0f172a">PLWN cumulative return since 2011-04-13 | dividends reinvested</text>
<text x="78" y="40" font-size="11" font-family="sans-serif" fill="#334155">Total return +365.9% | Price-only +144.7% | logarithmic scale</text>
<text x="78" y="54" font-size="9" font-family="sans-serif" fill="#64748b">Regular $411.43 | Special $0.00 | Other $0.00 per initial share path</text>
<line x1="78" y1="332.0" x2="796" y2="332.0" stroke="#e2e8f0"/><text x="70" y="336.0" font-size="10" text-anchor="end" fill="#64748b">-19.9%</text><line x1="78" y1="302.6" x2="796" y2="302.6" stroke="#e2e8f0"/><text x="70" y="306.6" font-size="10" text-anchor="end" fill="#64748b">0%</text><line x1="78" y1="287.0" x2="796" y2="287.0" stroke="#e2e8f0"/><text x="70" y="291.0" font-size="10" text-anchor="end" fill="#64748b">+12.5%</text><line x1="78" y1="242.0" x2="796" y2="242.0" stroke="#e2e8f0"/><text x="70" y="246.0" font-size="10" text-anchor="end" fill="#64748b">+57.8%</text><line x1="78" y1="197.0" x2="796" y2="197.0" stroke="#e2e8f0"/><text x="70" y="201.0" font-size="10" text-anchor="end" fill="#64748b">+121.4%</text><line x1="78" y1="152.0" x2="796" y2="152.0" stroke="#e2e8f0"/><text x="70" y="156.0" font-size="10" text-anchor="end" fill="#64748b">+210.6%</text><line x1="78" y1="107.0" x2="796" y2="107.0" stroke="#e2e8f0"/><text x="70" y="111.0" font-size="10" text-anchor="end" fill="#64748b">+335.8%</text><line x1="78" y1="62.0" x2="796" y2="62.0" stroke="#e2e8f0"/><text x="70" y="66.0" font-size="10" text-anchor="end" fill="#64748b">+511.5%</text>
<line x1="78" y1="332" x2="796" y2="332" stroke="#cbd5e1"/>
<polyline fill="none" stroke="#2563eb" stroke-width="2" points="78.0,302.6 78.2,302.6 78.4,302.6 78.6,302.6 78.7,302.6 78.9,302.6 79.1,302.6 79.3,302.6 79.5,302.6 79.7,302.6 79.9,302.6 80.1,308.4 80.2,314.4 80.4,308.4 80.6,308.4 80.8,308.4 81.0,308.4 81.2,308.4 81.4,308.4 81.6,308.4 81.7,308.4 81.9,308.4 82.1,308.4 82.3,308.4 82.5,308.4 82.7,308.4 82.9,308.4 83.0,308.4 83.2,308.4 83.4,308.4 83.6,308.4 83.8,308.4 84.0,308.4 84.2,308.4 84.4,308.4 84.5,308.4 84.7,308.4 84.9,308.4 85.1,308.4 85.3,308.4 85.5,308.4 85.7,308.4 85.9,308.4 86.0,308.4 86.2,308.4 86.4,308.4 86.6,308.4 86.8,308.4 87.0,308.4 87.2,308.4 87.3,308.4 87.5,308.4 87.7,308.4 87.9,308.4 88.1,308.4 88.3,308.4 88.5,308.4 88.7,308.4 88.8,308.4 89.0,305.4 89.2,305.4 89.4,305.4 89.6,305.4 89.8,305.4 90.0,305.4 90.2,305.4 90.3,305.4 90.5,305.4 90.7,305.4 90.9,305.4 91.1,311.4 91.3,305.4 91.5,305.4 91.6,305.4 91.8,305.4 92.0,305.4 92.2,305.4 92.4,305.4 92.6,305.4 92.8,305.4 93.0,305.4 93.1,305.4 93.3,305.4 93.5,305.4 93.7,305.4 93.9,305.4 94.1,305.4 94.3,305.4 94.5,305.4 94.6,305.4 94.8,305.4 95.0,305.4 95.2,305.4 95.4,305.4 95.6,305.4 95.8,305.4 96.0,305.4 96.1,305.4 96.3,305.4 96.5,305.4 96.7,305.4 96.9,305.4 97.1,305.4 97.3,305.4 97.4,305.4 97.6,305.4 97.8,305.4 98.0,305.4 98.2,294.4 98.4,294.4 98.6,294.4 98.8,294.4 98.9,294.4 99.1,294.4 99.3,294.4 99.5,294.4 99.7,294.4 99.9,294.4 100.1,294.4 100.3,294.4 100.4,294.4 100.6,294.4 100.8,294.4 101.0,294.4 101.2,294.4 101.4,313.8 101.6,313.8 101.7,313.8 101.9,313.8 102.1,313.8 102.3,313.8 102.5,313.8 102.7,313.8 102.9,313.8 103.1,313.8 103.2,313.8 103.4,308.4 103.6,308.4 103.8,308.4 104.0,308.4 104.2,308.4 104.4,308.4 104.6,308.4 104.7,308.4 104.9,308.4 105.1,308.4 105.3,308.4 105.5,308.4 105.7,308.4 105.9,308.4 106.0,308.4 106.2,308.4 106.4,308.4 106.6,308.4 106.8,313.2 107.0,313.2 107.2,313.2 107.4,313.2 107.5,313.2 107.7,313.2 107.9,313.2 108.1,308.4 108.3,308.4 108.5,308.4 108.7,308.4 108.9,308.4 109.0,308.4 109.2,308.4 109.4,308.4 109.6,308.4 109.8,308.4 110.0,308.4 110.2,308.4 110.3,308.4 110.5,308.4 110.7,308.4 110.9,308.4 111.1,308.4 111.3,308.4 111.5,308.4 111.7,308.4 111.8,308.4 112.0,308.4 112.2,308.4 112.4,308.4 112.6,308.4 112.8,308.4 113.0,308.4 113.2,308.4 113.3,308.4 113.5,308.4 113.7,308.4 113.9,308.4 114.1,308.4 114.3,308.4 114.5,308.4 114.6,308.4 114.8,308.4 115.0,308.4 115.2,308.4 115.4,308.4 115.6,308.4 115.8,308.4 116.0,308.4 116.1,305.4 116.3,305.4 116.5,305.4 116.7,305.4 116.9,305.4 117.1,305.4 117.3,305.4 117.5,305.4 117.6,305.4 117.8,305.4 118.0,305.4 118.2,305.4 118.4,305.4 118.6,305.4 118.8,305.4 118.9,305.4 119.1,305.4 119.3,305.4 119.5,305.4 119.7,305.4 119.9,305.4 120.1,305.4 120.3,305.4 120.4,305.4 120.6,305.4 120.8,305.4 121.0,305.4 121.2,305.4 121.4,305.4 121.6,305.4 121.8,305.4 121.9,305.4 122.1,305.4 122.3,305.4 122.5,305.4 122.7,305.4 122.9,305.4 123.1,305.4 123.2,305.4 123.4,305.4 123.6,305.4 123.8,305.4 124.0,305.4 124.2,305.4 124.4,305.4 124.6,305.4 124.7,305.4 124.9,305.4 125.1,305.4 125.3,305.4 125.5,305.4 125.7,305.4 125.9,305.4 126.1,305.4 126.2,305.4 126.4,305.4 126.6,305.4 126.8,305.4 127.0,305.4 127.2,305.4 127.4,305.4 127.5,305.4 127.7,305.4 127.9,305.4 128.1,305.4 128.3,305.4 128.5,305.4 128.7,305.4 128.9,305.4 129.0,305.4 129.2,305.4 129.4,305.4 129.6,305.4 129.8,305.4 130.0,305.4 130.2,305.4 130.4,305.4 130.5,305.4 130.7,305.4 130.9,305.4 131.1,305.4 131.3,305.4 131.5,305.4 131.7,294.4 131.8,294.4 132.0,294.4 132.2,294.4 132.4,294.4 132.6,294.4 132.8,294.4 133.0,294.4 133.2,294.4 133.3,294.4 133.5,294.4 133.7,294.4 133.9,294.4 134.1,294.4 134.3,286.3 134.5,286.3 134.7,286.3 134.8,286.3 135.0,287.1 135.2,287.1 135.4,287.1 135.6,287.1 135.8,287.1 136.0,287.1 136.2,287.1 136.3,287.1 136.5,287.1 136.7,287.1 136.9,287.1 137.1,287.1 137.3,287.1 137.5,287.1 137.6,305.4 137.8,305.4 138.0,305.2 138.2,305.2 138.4,305.2 138.6,305.2 138.8,305.2 139.0,305.2 139.1,305.2 139.3,305.2 139.5,305.2 139.7,305.2 139.9,305.2 140.1,305.2 140.3,305.2 140.5,305.2 140.6,305.2 140.8,309.3 141.0,309.3 141.2,309.3 141.4,309.3 141.6,309.3 141.8,309.3 141.9,309.3 142.1,309.3 142.3,309.3 142.5,309.3 142.7,309.3 142.9,309.3 143.1,309.3 143.3,309.3 143.4,309.3 143.6,309.3 143.8,309.3 144.0,309.3 144.2,309.3 144.4,309.3 144.6,309.3 144.8,309.3 144.9,309.3 145.1,309.3 145.3,309.3 145.5,309.3 145.7,309.3 145.9,309.3 146.1,309.3 146.2,309.3 146.4,309.3 146.6,294.4 146.8,294.4 147.0,294.4 147.2,294.4 147.4,294.4 147.6,294.4 147.7,294.4 147.9,294.4 148.1,294.4 148.3,294.4 148.5,294.4 148.7,294.4 148.9,294.4 149.1,294.4 149.2,294.4 149.4,294.4 149.6,294.4 149.8,294.4 150.0,294.4 150.2,294.4 150.4,294.4 150.5,294.4 150.7,294.4 150.9,294.4 151.1,294.4 151.3,294.4 151.5,294.4 151.7,294.4 151.9,294.4 152.0,294.4 152.2,294.4 152.4,294.4 152.6,294.4 152.8,299.2 153.0,299.2 153.2,299.2 153.4,299.2 153.5,299.2 153.7,296.5 153.9,296.5 154.1,296.5 154.3,296.5 154.5,296.5 154.7,295.4 154.8,295.4 155.0,295.4 155.2,295.4 155.4,294.9 155.6,294.9 155.8,294.9 156.0,294.9 156.2,294.9 156.3,294.9 156.5,294.9 156.7,294.9 156.9,294.9 157.1,294.9 157.3,296.1 157.5,296.1 157.7,296.1 157.8,296.1 158.0,296.1 158.2,296.1 158.4,296.1 158.6,296.1 158.8,296.1 159.0,296.1 159.1,296.1 159.3,291.2 159.5,291.2 159.7,291.2 159.9,291.2 160.1,291.2 160.3,291.2 160.5,291.2 160.6,291.2 160.8,291.2 161.0,291.2 161.2,291.2 161.4,291.2 161.6,291.2 161.8,291.2 162.0,291.2 162.1,291.2 162.3,291.2 162.5,291.2 162.7,281.7 162.9,281.7 163.1,281.7 163.3,281.7 163.4,281.7 163.6,281.7 163.8,281.7 164.0,281.7 164.2,281.7 164.4,281.7 164.6,281.7 164.8,299.8 164.9,299.8 165.1,299.8 165.3,299.8 165.5,299.8 165.7,299.8 165.9,299.8 166.1,299.8 166.3,299.8 166.4,299.8 166.6,299.8 166.8,299.8 167.0,299.8 167.2,299.8 167.4,299.8 167.6,299.8 167.8,299.8 167.9,299.8 168.1,299.8 168.3,299.8 168.5,299.8 168.7,299.8 168.9,299.8 169.1,299.8 169.2,299.8 169.4,299.8 169.6,299.8 169.8,299.8 170.0,299.8 170.2,299.8 170.4,299.8 170.6,299.8 170.7,299.8 170.9,291.7 171.1,291.7 171.3,291.7 171.5,291.7 171.7,291.7 171.9,291.7 172.1,291.7 172.2,291.7 172.4,291.7 172.6,291.7 172.8,291.7 173.0,291.7 173.2,291.7 173.4,291.7 173.5,291.7 173.7,291.7 173.9,291.7 174.1,291.7 174.3,291.7 174.5,291.7 174.7,291.7 174.9,291.7 175.0,291.7 175.2,291.7 175.4,291.7 175.6,291.7 175.8,291.7 176.0,291.7 176.2,291.7 176.4,291.7 176.5,291.7 176.7,291.7 176.9,291.7 177.1,291.7 177.3,291.7 177.5,291.7 177.7,291.7 177.8,281.7 178.0,281.7 178.2,281.7 178.4,281.7 178.6,281.7 178.8,281.7 179.0,281.7 179.2,281.7 179.3,281.7 179.5,281.7 179.7,281.7 179.9,281.7 180.1,281.7 180.3,281.7 180.5,281.7 180.7,281.7 180.8,281.7 181.0,281.7 181.2,281.7 181.4,281.7 181.6,281.7 181.8,281.7 182.0,281.7 182.1,281.7 182.3,281.7 182.5,281.7 182.7,281.7 182.9,281.7 183.1,281.7 183.3,281.7 183.5,281.7 183.6,281.7 183.8,281.7 184.0,281.7 184.2,281.7 184.4,281.7 184.6,286.6 184.8,286.6 185.0,286.6 185.1,286.6 185.3,286.6 185.5,286.6 185.7,286.6 185.9,286.6 186.1,286.6 186.3,286.6 186.4,286.6 186.6,286.6 186.8,286.6 187.0,286.6 187.2,286.6 187.4,286.6 187.6,281.7 187.8,281.7 187.9,281.7 188.1,281.7 188.3,281.7 188.5,281.7 188.7,281.7 188.9,281.7 189.1,281.7 189.3,281.7 189.4,281.7 189.6,281.7 189.8,281.7 190.0,281.7 190.2,281.7 190.4,281.7 190.6,281.7 190.7,281.7 190.9,281.7 191.1,281.7 191.3,281.7 191.5,281.7 191.7,281.7 191.9,281.7 192.1,281.7 192.2,281.7 192.4,281.7 192.6,281.7 192.8,281.7 193.0,281.7 193.2,277.0 193.4,277.0 193.6,277.0 193.7,277.0 193.9,277.0 194.1,277.0 194.3,277.0 194.5,277.0 194.7,277.0 194.9,277.0 195.0,277.0 195.2,277.0 195.4,277.0 195.6,277.0 195.8,277.0 196.0,277.0 196.2,277.0 196.4,277.0 196.5,277.0 196.7,277.0 196.9,277.0 197.1,277.0 197.3,277.0 197.5,277.0 197.7,277.0 197.9,277.0 198.0,277.0 198.2,277.0 198.4,277.0 198.6,277.0 198.8,277.0 199.0,277.0 199.2,277.0 199.3,277.0 199.5,277.0 199.7,277.0 199.9,277.0 200.1,277.0 200.3,277.0 200.5,277.0 200.7,277.0 200.8,277.0 201.0,277.0 201.2,277.0 201.4,277.0 201.6,277.0 201.8,277.0 202.0,277.0 202.2,277.0 202.3,277.0 202.5,277.0 202.7,277.0 202.9,277.0 203.1,277.0 203.3,277.0 203.5,277.0 203.6,277.0 203.8,277.0 204.0,277.0 204.2,277.0 204.4,277.0 204.6,277.0 204.8,277.0 205.0,277.0 205.1,277.0 205.3,277.0 205.5,277.0 205.7,277.0 205.9,277.0 206.1,277.0 206.3,277.0 206.5,277.0 206.6,277.0 206.8,277.0 207.0,277.0 207.2,277.0 207.4,276.5 207.6,276.5 207.8,276.5 208.0,276.5 208.1,276.5 208.3,276.5 208.5,276.5 208.7,276.5 208.9,276.5 209.1,276.5 209.3,276.5 209.4,276.5 209.6,276.5 209.8,276.5 210.0,276.5 210.2,276.5 210.4,276.5 210.6,276.5 210.8,276.5 210.9,276.5 211.1,276.5 211.3,276.5 211.5,276.5 211.7,276.5 211.9,276.5 212.1,276.5 212.3,276.5 212.4,276.5 212.6,276.5 212.8,276.5 213.0,276.5 213.2,276.5 213.4,276.5 213.6,276.5 213.7,276.5 213.9,274.7 214.1,272.4 214.3,272.4 214.5,272.4 214.7,272.4 214.9,272.4 215.1,272.4 215.2,272.4 215.4,272.4 215.6,272.4 215.8,272.4 216.0,272.4 216.2,272.4 216.4,272.4 216.6,272.4 216.7,272.4 216.9,272.4 217.1,272.4 217.3,272.4 217.5,272.4 217.7,272.4 217.9,272.4 218.0,272.4 218.2,272.4 218.4,272.4 218.6,272.4 218.8,272.4 219.0,272.4 219.2,272.4 219.4,272.4 219.5,272.4 219.7,272.4 219.9,272.4 220.1,272.4 220.3,272.4 220.5,272.4 220.7,272.4 220.9,272.4 221.0,272.4 221.2,272.4 221.4,272.4 221.6,272.4 221.8,272.4 222.0,272.4 222.2,272.4 222.3,272.4 222.5,272.4 222.7,272.4 222.9,272.4 223.1,272.4 223.3,272.4 223.5,272.4 223.7,272.4 223.8,272.4 224.0,272.4 224.2,272.4 224.4,272.4 224.6,272.4 224.8,272.4 225.0,272.4 225.2,272.4 225.3,272.4 225.5,272.4 225.7,272.4 225.9,272.4 226.1,272.4 226.3,272.4 226.5,272.4 226.6,272.4 226.8,272.4 227.0,272.4 227.2,272.4 227.4,271.5 227.6,271.5 227.8,271.5 228.0,271.5 228.1,271.5 228.3,271.5 228.5,271.5 228.7,271.5 228.9,271.5 229.1,271.5 229.3,271.5 229.5,271.5 229.6,271.5 229.8,271.5 230.0,271.5 230.2,271.5 230.4,271.5 230.6,271.5 230.8,271.5 230.9,271.5 231.1,271.5 231.3,271.5 231.5,271.5 231.7,271.5 231.9,271.5 232.1,271.5 232.3,271.5 232.4,271.5 232.6,271.5 232.8,271.5 233.0,271.5 233.2,271.5 233.4,271.5 233.6,271.5 233.8,271.5 233.9,271.5 234.1,271.5 234.3,271.5 234.5,271.5 234.7,271.5 234.9,271.5 235.1,271.5 235.2,271.5 235.4,270.1 235.6,270.1 235.8,270.1 236.0,270.1 236.2,270.1 236.4,270.1 236.6,270.1 236.7,270.1 236.9,270.1 237.1,270.1 237.3,270.1 237.5,270.1 237.7,270.1 237.9,270.1 238.1,270.1 238.2,270.1 238.4,270.1 238.6,270.1 238.8,270.1 239.0,270.1 239.2,270.1 239.4,270.1 239.6,270.1 239.7,270.1 239.9,270.1 240.1,271.5 240.3,271.5 240.5,271.5 240.7,271.5 240.9,271.5 241.0,271.5 241.2,271.5 241.4,271.5 241.6,271.5 241.8,271.5 242.0,271.5 242.2,271.5 242.4,271.5 242.5,271.5 242.7,271.5 242.9,271.5 243.1,271.5 243.3,271.5 243.5,271.5 243.7,271.5 243.9,271.5 244.0,270.1 244.2,270.1 244.4,270.1 244.6,270.1 244.8,270.1 245.0,270.1 245.2,270.1 245.3,270.1 245.5,270.1 245.7,270.1 245.9,270.1 246.1,270.1 246.3,270.1 246.5,270.1 246.7,270.1 246.8,270.1 247.0,270.1 247.2,270.1 247.4,270.1 247.6,270.1 247.8,270.1 248.0,270.1 248.2,270.1 248.3,270.1 248.5,270.1 248.7,270.1 248.9,270.1 249.1,270.1 249.3,270.1 249.5,270.1 249.6,270.1 249.8,270.1 250.0,270.1 250.2,270.1 250.4,270.1 250.6,270.1 250.8,270.1 251.0,270.1 251.1,270.1 251.3,270.1 251.5,270.1 251.7,270.1 251.9,270.1 252.1,270.1 252.3,270.1 252.5,270.1 252.6,270.1 252.8,270.1 253.0,270.1 253.2,270.1 253.4,270.1 253.6,270.1 253.8,263.7 253.9,263.7 254.1,263.7 254.3,263.7 254.5,263.7 254.7,263.7 254.9,263.7 255.1,263.7 255.3,263.7 255.4,263.7 255.6,263.7 255.8,263.7 256.0,263.7 256.2,263.7 256.4,263.7 256.6,263.7 256.8,263.7 256.9,263.7 257.1,263.7 257.3,263.7 257.5,263.7 257.7,263.7 257.9,263.7 258.1,263.7 258.2,263.7 258.4,263.7 258.6,263.7 258.8,263.7 259.0,263.7 259.2,263.7 259.4,263.7 259.6,263.7 259.7,263.7 259.9,263.7 260.1,263.7 260.3,263.7 260.5,263.7 260.7,263.7 260.9,257.5 261.1,257.5 261.2,257.5 261.4,257.5 261.6,257.5 261.8,257.5 262.0,257.5 262.2,257.5 262.4,257.5 262.5,257.5 262.7,257.5 262.9,257.5 263.1,257.5 263.3,257.5 263.5,257.5 263.7,257.5 263.9,257.5 264.0,257.5 264.2,257.5 264.4,257.5 264.6,257.5 264.8,257.5 265.0,257.5 265.2,257.5 265.4,257.5 265.5,257.5 265.7,257.5 265.9,257.5 266.1,257.5 266.3,257.5 266.5,257.5 266.7,257.5 266.8,257.5 267.0,257.5 267.2,257.5 267.4,257.5 267.6,257.5 267.8,257.5 268.0,257.5 268.2,257.5 268.3,257.5 268.5,257.5 268.7,257.5 268.9,257.5 269.1,257.5 269.3,257.5 269.5,274.7 269.7,274.7 269.8,274.7 270.0,274.7 270.2,274.7 270.4,274.7 270.6,270.1 270.8,270.1 271.0,270.1 271.1,270.1 271.3,270.1 271.5,270.1 271.7,270.1 271.9,270.1 272.1,270.1 272.3,270.1 272.5,272.4 272.6,272.4 272.8,272.4 273.0,272.4 273.2,272.4 273.4,272.4 273.6,272.4 273.8,272.4 274.0,272.4 274.1,272.4 274.3,272.4 274.5,272.4 274.7,272.4 274.9,272.4 275.1,272.4 275.3,272.4 275.5,272.4 275.6,272.4 275.8,272.4 276.0,272.4 276.2,272.4 276.4,272.4 276.6,272.4 276.8,272.4 276.9,272.4 277.1,272.4 277.3,272.4 277.5,270.6 277.7,272.4 277.9,272.4 278.1,272.4 278.3,272.4 278.4,272.4 278.6,272.4 278.8,272.4 279.0,272.4 279.2,286.6 279.4,286.6 279.6,286.6 279.8,286.6 279.9,286.6 280.1,286.6 280.3,279.8 280.5,279.8 280.7,279.8 280.9,279.8 281.1,279.8 281.2,279.8 281.4,279.8 281.6,279.8 281.8,279.8 282.0,279.8 282.2,279.8 282.4,279.8 282.6,279.8 282.7,279.8 282.9,279.8 283.1,279.8 283.3,279.8 283.5,279.8 283.7,279.8 283.9,279.8 284.1,279.8 284.2,279.8 284.4,279.8 284.6,279.8 284.8,279.8 285.0,279.8 285.2,279.8 285.4,279.8 285.5,279.8 285.7,279.8 285.9,279.8 286.1,279.8 286.3,279.8 286.5,279.8 286.7,279.8 286.9,279.8 287.0,279.8 287.2,279.8 287.4,279.8 287.6,279.8 287.8,279.8 288.0,279.8 288.2,279.8 288.4,279.8 288.5,279.8 288.7,279.8 288.9,279.8 289.1,279.8 289.3,279.8 289.5,279.8 289.7,279.8 289.8,279.8 290.0,279.8 290.2,279.8 290.4,279.8 290.6,279.8 290.8,279.8 291.0,279.8 291.2,279.8 291.3,279.8 291.5,279.8 291.7,279.8 291.9,279.8 292.1,279.8 292.3,279.8 292.5,279.8 292.7,279.8 292.8,279.8 293.0,279.8 293.2,279.8 293.4,279.8 293.6,279.8 293.8,279.8 294.0,279.8 294.1,279.8 294.3,279.8 294.5,279.8 294.7,279.8 294.9,279.8 295.1,279.8 295.3,279.8 295.5,279.8 295.6,279.8 295.8,279.8 296.0,279.8 296.2,279.8 296.4,279.8 296.6,279.8 296.8,279.8 297.0,279.8 297.1,279.8 297.3,279.8 297.5,279.8 297.7,279.8 297.9,273.4 298.1,273.4 298.3,273.4 298.4,273.4 298.6,273.4 298.8,273.4 299.0,273.4 299.2,273.4 299.4,273.4 299.6,273.4 299.8,273.4 299.9,273.4 300.1,273.4 300.3,273.4 300.5,273.4 300.7,273.4 300.9,273.4 301.1,281.7 301.3,281.7 301.4,281.7 301.6,281.7 301.8,281.7 302.0,281.7 302.2,281.7 302.4,281.7 302.6,281.7 302.7,281.7 302.9,281.7 303.1,281.7 303.3,281.7 303.5,281.7 303.7,286.6 303.9,286.6 304.1,286.6 304.2,286.6 304.4,286.6 304.6,286.6 304.8,286.6 305.0,286.6 305.2,286.6 305.4,286.6 305.6,286.6 305.7,286.6 305.9,286.6 306.1,284.1 306.3,284.1 306.5,284.1 306.7,284.1 306.9,284.1 307.0,284.1 307.2,284.1 307.4,284.1 307.6,284.1 307.8,284.1 308.0,284.1 308.2,284.1 308.4,284.1 308.5,284.1 308.7,284.1 308.9,284.1 309.1,284.1 309.3,284.1 309.5,284.1 309.7,284.1 309.9,284.1 310.0,284.1 310.2,284.1 310.4,284.1 310.6,284.1 310.8,284.1 311.0,284.1 311.2,284.1 311.4,284.1 311.5,284.1 311.7,284.1 311.9,284.1 312.1,284.1 312.3,284.1 312.5,284.1 312.7,284.1 312.8,286.6 313.0,286.6 313.2,286.6 313.4,286.6 313.6,286.6 313.8,286.6 314.0,286.6 314.2,286.6 314.3,286.6 314.5,286.6 314.7,286.6 314.9,286.6 315.1,286.6 315.3,286.5 315.5,286.5 315.7,288.1 315.8,288.1 316.0,289.2 316.2,289.2 316.4,289.2 316.6,294.4 316.8,294.4 317.0,294.4 317.1,294.4 317.3,294.4 317.5,294.4 317.7,294.4 317.9,294.4 318.1,294.4 318.3,294.4 318.5,294.4 318.6,294.4 318.8,294.4 319.0,294.4 319.2,294.4 319.4,294.4 319.6,294.4 319.8,294.4 320.0,294.4 320.1,294.4 320.3,294.4 320.5,294.4 320.7,294.4 320.9,294.4 321.1,294.4 321.3,297.1 321.4,299.8 321.6,299.8 321.8,299.8 322.0,299.8 322.2,299.8 322.4,300.9 322.6,300.9 322.8,305.4 322.9,305.4 323.1,305.4 323.3,317.5 323.5,317.5 323.7,317.5 323.9,317.5 324.1,300.9 324.3,300.9 324.4,300.9 324.6,299.8 324.8,299.8 325.0,299.8 325.2,299.8 325.4,299.8 325.6,299.8 325.7,289.2 325.9,289.2 326.1,289.2 326.3,289.2 326.5,289.2 326.7,289.2 326.9,289.2 327.1,289.2 327.2,289.2 327.4,289.2 327.6,289.2 327.8,289.2 328.0,289.2 328.2,289.2 328.4,289.2 328.6,289.2 328.7,289.2 328.9,289.2 329.1,289.2 329.3,289.2 329.5,289.2 329.7,289.2 329.9,289.2 330.0,289.2 330.2,289.2 330.4,289.2 330.6,289.2 330.8,289.2 331.0,289.2 331.2,289.2 331.4,289.2 331.5,289.2 331.7,289.2 331.9,289.2 332.1,289.2 332.3,289.2 332.5,289.2 332.7,281.7 332.9,281.7 333.0,281.7 333.2,281.7 333.4,281.7 333.6,281.7 333.8,281.7 334.0,281.7 334.2,281.7 334.3,281.7 334.5,281.7 334.7,281.7 334.9,299.8 335.1,299.8 335.3,315.7 335.5,315.7 335.7,307.2 335.8,307.2 336.0,307.2 336.2,307.2 336.4,307.2 336.6,307.2 336.8,307.2 337.0,307.2 337.2,307.2 337.3,307.2 337.5,307.2 337.7,307.2 337.9,307.2 338.1,307.2 338.3,307.2 338.5,307.2 338.6,307.2 338.8,307.2 339.0,307.2 339.2,307.2 339.4,307.2 339.6,307.2 339.8,307.2 340.0,307.2 340.1,307.2 340.3,307.2 340.5,307.2 340.7,307.2 340.9,307.2 341.1,307.2 341.3,307.2 341.5,308.4 341.6,308.4 341.8,308.4 342.0,308.4 342.2,308.4 342.4,307.8 342.6,307.8 342.8,307.8 342.9,307.8 343.1,307.8 343.3,311.4 343.5,311.4 343.7,311.4 343.9,311.4 344.1,311.4 344.3,311.4 344.4,311.4 344.6,311.4 344.8,311.4 345.0,311.4 345.2,311.4 345.4,311.4 345.6,311.4 345.8,311.4 345.9,311.4 346.1,311.4 346.3,311.4 346.5,311.4 346.7,311.4 346.9,311.4 347.1,311.4 347.2,311.4 347.4,311.4 347.6,311.4 347.8,311.4 348.0,311.4 348.2,311.4 348.4,294.4 348.6,294.4 348.7,294.4 348.9,294.4 349.1,294.4 349.3,294.4 349.5,294.4 349.7,294.4 349.9,294.4 350.1,294.4 350.2,294.4 350.4,294.4 350.6,294.4 350.8,294.4 351.0,302.6 351.2,302.6 351.4,302.6 351.6,302.6 351.7,302.6 351.9,302.6 352.1,302.6 352.3,302.6 352.5,302.6 352.7,302.6 352.9,302.6 353.0,302.6 353.2,302.6 353.4,302.6 353.6,302.6 353.8,302.6 354.0,302.6 354.2,302.6 354.4,302.6 354.5,302.6 354.7,302.6 354.9,302.6 355.1,302.6 355.3,302.6 355.5,302.6 355.7,302.6 355.9,302.6 356.0,302.6 356.2,302.6 356.4,302.6 356.6,302.6 356.8,302.6 357.0,302.6 357.2,302.6 357.3,302.6 357.5,302.6 357.7,302.6 357.9,302.6 358.1,302.6 358.3,302.6 358.5,302.6 358.7,302.6 358.8,302.6 359.0,302.6 359.2,302.6 359.4,302.6 359.6,302.6 359.8,302.6 360.0,302.6 360.2,302.6 360.3,302.6 360.5,302.6 360.7,302.6 360.9,302.6 361.1,302.6 361.3,302.6 361.5,302.6 361.6,302.6 361.8,302.6 362.0,302.6 362.2,302.6 362.4,302.6 362.6,302.6 362.8,302.6 363.0,302.6 363.1,302.6 363.3,302.6 363.5,302.6 363.7,302.6 363.9,302.6 364.1,302.6 364.3,302.6 364.5,313.8 364.6,313.8 364.8,313.8 365.0,313.8 365.2,313.8 365.4,313.8 365.6,313.8 365.8,312.1 365.9,311.4 366.1,311.4 366.3,311.4 366.5,311.4 366.7,311.4 366.9,311.4 367.1,311.4 367.3,311.4 367.4,311.4 367.6,311.4 367.8,311.4 368.0,311.4 368.2,311.4 368.4,311.4 368.6,311.4 368.8,311.4 368.9,311.4 369.1,311.4 369.3,311.4 369.5,311.4 369.7,311.4 369.9,311.4 370.1,311.4 370.2,311.4 370.4,311.4 370.6,311.4 370.8,311.4 371.0,311.4 371.2,311.4 371.4,311.4 371.6,311.4 371.7,311.4 371.9,311.4 372.1,311.4 372.3,311.4 372.5,311.4 372.7,311.4 372.9,311.4 373.1,311.4 373.2,311.4 373.4,311.4 373.6,311.4 373.8,311.4 374.0,311.4 374.2,311.4 374.4,311.4 374.5,311.4 374.7,311.4 374.9,311.4 375.1,311.4 375.3,311.4 375.5,311.4 375.7,311.4 375.9,311.4 376.0,311.4 376.2,311.4 376.4,311.4 376.6,311.4 376.8,311.4 377.0,311.4 377.2,311.4 377.4,311.4 377.5,311.4 377.7,311.4 377.9,311.4 378.1,311.4 378.3,311.4 378.5,311.4 378.7,311.4 378.8,311.4 379.0,311.4 379.2,311.4 379.4,311.4 379.6,302.6 379.8,302.6 380.0,302.6 380.2,294.4 380.3,294.4 380.5,294.4 380.7,294.4 380.9,294.4 381.1,294.4 381.3,294.4 381.5,294.4 381.7,294.4 381.8,294.4 382.0,294.4 382.2,294.4 382.4,294.4 382.6,294.4 382.8,294.4 383.0,294.4 383.1,311.4 383.3,311.4 383.5,311.4 383.7,311.4 383.9,311.4 384.1,311.4 384.3,311.4 384.5,311.4 384.6,311.4 384.8,311.4 385.0,311.4 385.2,311.4 385.4,311.4 385.6,311.4 385.8,311.4 386.0,311.4 386.1,311.4 386.3,311.4 386.5,311.4 386.7,311.4 386.9,311.4 387.1,311.4 387.3,311.4 387.5,311.4 387.6,311.4 387.8,311.4 388.0,311.4 388.2,311.4 388.4,311.4 388.6,311.4 388.8,311.4 388.9,317.5 389.1,317.5 389.3,317.5 389.5,317.5 389.7,317.5 389.9,317.5 390.1,317.5 390.3,317.5 390.4,317.5 390.6,317.5 390.8,317.5 391.0,317.5 391.2,317.5 391.4,317.5 391.6,317.5 391.8,317.5 391.9,317.5 392.1,317.5 392.3,317.5 392.5,317.5 392.7,317.5 392.9,317.5 393.1,317.5 393.2,294.4 393.4,289.2 393.6,289.2 393.8,289.2 394.0,289.2 394.2,289.2 394.4,289.2 394.6,289.2 394.7,289.2 394.9,289.2 395.1,289.2 395.3,289.2 395.5,289.2 395.7,289.2 395.9,289.2 396.1,289.2 396.2,289.2 396.4,289.2 396.6,289.2 396.8,289.2 397.0,289.2 397.2,289.2 397.4,289.2 397.5,289.2 397.7,289.2 397.9,289.2 398.1,289.2 398.3,289.2 398.5,289.2 398.7,289.2 398.9,289.2 399.0,289.2 399.2,289.2 399.4,289.2 399.6,289.2 399.8,289.2 400.0,289.2 400.2,289.2 400.4,289.2 400.5,289.2 400.7,289.2 400.9,289.2 401.1,289.2 401.3,301.4 401.5,301.4 401.7,301.4 401.8,301.4 402.0,301.4 402.2,301.4 402.4,301.4 402.6,301.4 402.8,301.4 403.0,301.4 403.2,301.4 403.3,301.4 403.5,301.4 403.7,301.4 403.9,274.7 404.1,274.7 404.3,274.7 404.5,274.7 404.7,274.7 404.8,274.7 405.0,274.7 405.2,301.4 405.4,301.4 405.6,301.4 405.8,301.4 406.0,301.4 406.1,301.4 406.3,301.4 406.5,301.4 406.7,301.4 406.9,301.4 407.1,301.4 407.3,301.4 407.5,293.3 407.6,293.3 407.8,293.3 408.0,293.3 408.2,293.3 408.4,289.2 408.6,289.2 408.8,289.2 409.0,289.2 409.1,289.2 409.3,289.2 409.5,289.2 409.7,289.2 409.9,289.2 410.1,289.2 410.3,284.1 410.4,284.1 410.6,284.1 410.8,284.1 411.0,284.1 411.2,284.1 411.4,284.1 411.6,284.1 411.8,284.1 411.9,284.1 412.1,284.1 412.3,284.1 412.5,284.1 412.7,284.1 412.9,284.1 413.1,284.1 413.3,284.1 413.4,284.1 413.6,284.1 413.8,284.1 414.0,284.1 414.2,284.1 414.4,284.1 414.6,284.1 414.7,284.1 414.9,284.1 415.1,284.1 415.3,284.1 415.5,284.1 415.7,284.1 415.9,284.1 416.1,284.1 416.2,284.1 416.4,284.1 416.6,284.1 416.8,272.9 417.0,284.1 417.2,284.1 417.4,284.1 417.6,284.1 417.7,284.1 417.9,284.1 418.1,272.9 418.3,272.9 418.5,272.9 418.7,272.9 418.9,272.9 419.1,272.9 419.2,272.9 419.4,272.9 419.6,272.9 419.8,272.9 420.0,272.9 420.2,272.9 420.4,272.9 420.5,272.9 420.7,272.9 420.9,272.9 421.1,272.9 421.3,272.9 421.5,272.9 421.7,272.9 421.9,272.9 422.0,272.9 422.2,270.1 422.4,270.1 422.6,270.1 422.8,270.1 423.0,270.1 423.2,270.1 423.4,270.1 423.5,270.1 423.7,270.1 423.9,270.1 424.1,270.1 424.3,270.1 424.5,270.1 424.7,270.1 424.8,270.1 425.0,270.1 425.2,270.1 425.4,308.4 425.6,308.4 425.8,308.4 426.0,308.4 426.2,308.4 426.3,308.4 426.5,308.4 426.7,308.4 426.9,308.4 427.1,308.4 427.3,308.4 427.5,308.4 427.7,308.4 427.8,305.4 428.0,281.7 428.2,281.7 428.4,277.0 428.6,281.7 428.8,273.3 429.0,273.3 429.1,269.3 429.3,269.3 429.5,269.3 429.7,269.3 429.9,269.3 430.1,269.3 430.3,269.3 430.5,269.3 430.6,269.3 430.8,269.3 431.0,269.3 431.2,269.3 431.4,269.3 431.6,269.3 431.8,269.3 432.0,269.3 432.1,269.3 432.3,269.3 432.5,269.3 432.7,269.3 432.9,269.3 433.1,269.3 433.3,269.3 433.4,269.3 433.6,269.3 433.8,269.3 434.0,269.3 434.2,269.3 434.4,269.3 434.6,269.3 434.8,269.3 434.9,269.3 435.1,266.6 435.3,266.6 435.5,266.6 435.7,266.6 435.9,266.6 436.1,266.6 436.3,266.6 436.4,266.6 436.6,266.6 436.8,266.6 437.0,266.6 437.2,266.6 437.4,266.6 437.6,266.6 437.7,266.6 437.9,266.6 438.1,266.6 438.3,266.6 438.5,266.6 438.7,266.6 438.9,266.6 439.1,266.6 439.2,281.7 439.4,281.7 439.6,281.7 439.8,281.7 440.0,281.7 440.2,281.7 440.4,281.7 440.6,281.7 440.7,281.7 440.9,281.7 441.1,281.7 441.3,281.7 441.5,281.7 441.7,281.7 441.9,281.7 442.0,281.7 442.2,281.7 442.4,281.7 442.6,281.7 442.8,281.7 443.0,281.7 443.2,281.7 443.4,281.7 443.5,281.7 443.7,281.7 443.9,302.6 444.1,302.6 444.3,302.6 444.5,302.6 444.7,302.6 444.9,302.6 445.0,302.6 445.2,302.6 445.4,302.6 445.6,302.6 445.8,302.6 446.0,302.6 446.2,302.6 446.3,302.6 446.5,302.6 446.7,302.6 446.9,302.6 447.1,302.6 447.3,302.6 447.5,302.6 447.7,302.6 447.8,302.6 448.0,277.0 448.2,277.4 448.4,277.4 448.6,277.4 448.8,277.4 449.0,277.4 449.2,277.4 449.3,277.4 449.5,277.4 449.7,277.4 449.9,277.4 450.1,277.4 450.3,293.8 450.5,293.8 450.6,293.8 450.8,293.8 451.0,293.8 451.2,293.8 451.4,293.8 451.6,293.8 451.8,293.8 452.0,279.3 452.1,279.3 452.3,279.3 452.5,279.3 452.7,277.0 452.9,277.0 453.1,277.0 453.3,277.0 453.5,277.0 453.6,277.0 453.8,277.0 454.0,276.0 454.2,276.0 454.4,263.8 454.6,263.8 454.8,263.8 454.9,263.8 455.1,263.8 455.3,263.8 455.5,280.7 455.7,280.7 455.9,280.7 456.1,280.7 456.3,280.7 456.4,280.7 456.6,280.7 456.8,280.7 457.0,280.7 457.2,280.7 457.4,280.7 457.6,280.7 457.8,280.7 457.9,280.7 458.1,280.7 458.3,280.7 458.5,280.7 458.7,280.7 458.9,280.7 459.1,280.7 459.3,280.7 459.4,280.7 459.6,280.7 459.8,280.7 460.0,280.7 460.2,280.7 460.4,280.7 460.6,280.7 460.7,280.7 460.9,280.7 461.1,280.7 461.3,280.7 461.5,280.7 461.7,280.7 461.9,280.7 462.1,280.7 462.2,280.7 462.4,280.7 462.6,280.7 462.8,280.7 463.0,280.7 463.2,280.7 463.4,280.7 463.6,280.7 463.7,279.3 463.9,279.3 464.1,279.3 464.3,279.3 464.5,279.3 464.7,279.3 464.9,279.3 465.0,279.3 465.2,279.3 465.4,279.3 465.6,279.3 465.8,279.3 466.0,279.3 466.2,279.3 466.4,277.0 466.5,277.0 466.7,277.0 466.9,277.0 467.1,280.2 467.3,280.2 467.5,280.2 467.7,284.1 467.9,279.8 468.0,279.8 468.2,279.8 468.4,281.7 468.6,281.7 468.8,281.7 469.0,281.7 469.2,281.7 469.3,281.7 469.5,281.7 469.7,281.7 469.9,281.7 470.1,281.7 470.3,281.7 470.5,293.3 470.7,293.3 470.8,281.7 471.0,287.4 471.2,287.4 471.4,287.4 471.6,287.4 471.8,287.4 472.0,281.7 472.2,285.6 472.3,285.6 472.5,285.6 472.7,300.8 472.9,300.8 473.1,300.8 473.3,300.8 473.5,300.8 473.6,300.8 473.8,281.7 474.0,281.7 474.2,281.7 474.4,281.7 474.6,281.7 474.8,281.7 475.0,281.7 475.1,281.7 475.3,281.7 475.5,285.6 475.7,285.6 475.9,284.1 476.1,284.1 476.3,284.1 476.5,284.1 476.6,284.1 476.8,284.1 477.0,284.1 477.2,284.1 477.4,284.1 477.6,284.1 477.8,284.1 477.9,284.1 478.1,281.7 478.3,281.7 478.5,281.7 478.7,281.7 478.9,281.7 479.1,281.7 479.3,281.7 479.4,281.7 479.6,281.7 479.8,281.7 480.0,281.7 480.2,281.7 480.4,281.7 480.6,281.7 480.8,281.7 480.9,281.7 481.1,281.7 481.3,281.7 481.5,281.7 481.7,277.0 481.9,277.0 482.1,277.0 482.2,277.0 482.4,277.0 482.6,277.0 482.8,277.0 483.0,277.0 483.2,277.0 483.4,277.0 483.6,270.2 483.7,270.2 483.9,270.2 484.1,270.2 484.3,270.1 484.5,270.1 484.7,270.1 484.9,270.1 485.1,270.1 485.2,270.1 485.4,270.1 485.6,270.1 485.8,270.1 486.0,270.1 486.2,270.1 486.4,270.1 486.5,270.1 486.7,270.1 486.9,270.1 487.1,270.1 487.3,270.1 487.5,270.1 487.7,280.7 487.9,280.7 488.0,280.7 488.2,280.7 488.4,280.7 488.6,271.8 488.8,280.7 489.0,271.9 489.2,271.5 489.4,270.1 489.5,270.1 489.7,270.1 489.9,270.1 490.1,270.1 490.3,270.1 490.5,276.0 490.7,267.0 490.8,267.0 491.0,270.1 491.2,270.1 491.4,265.8 491.6,265.8 491.8,270.1 492.0,270.1 492.2,270.1 492.3,271.0 492.5,271.1 492.7,271.1 492.9,265.8 493.1,265.8 493.3,265.8 493.5,265.8 493.7,253.5 493.8,261.6 494.0,255.5 494.2,255.5 494.4,261.6 494.6,261.6 494.8,261.6 495.0,261.6 495.2,261.6 495.3,310.2 495.5,262.0 495.7,262.0 495.9,263.8 496.1,263.8 496.3,263.8 496.5,263.8 496.6,263.8 496.8,263.7 497.0,263.7 497.2,269.3 497.4,269.7 497.6,265.8 497.8,270.1 498.0,270.1 498.1,270.1 498.3,270.1 498.5,270.1 498.7,270.1 498.9,265.8 499.1,265.8 499.3,270.1 499.5,270.1 499.6,265.8 499.8,261.6 500.0,261.6 500.2,261.6 500.4,261.6 500.6,246.7 500.8,246.7 500.9,246.6 501.1,231.9 501.3,202.0 501.5,216.3 501.7,216.3 501.9,216.3 502.1,216.3 502.3,216.3 502.4,216.3 502.6,209.1 502.8,209.1 503.0,223.9 503.2,223.9 503.4,223.9 503.6,223.9 503.8,223.9 503.9,223.9 504.1,223.9 504.3,223.6 504.5,223.6 504.7,223.6 504.9,223.2 505.1,216.3 505.2,213.4 505.4,213.4 505.6,213.4 505.8,213.4 506.0,213.4 506.2,223.2 506.4,223.2 506.6,223.2 506.7,210.5 506.9,216.0 507.1,216.0 507.3,216.0 507.5,216.0 507.7,216.0 507.9,216.0 508.1,216.0 508.2,216.0 508.4,216.0 508.6,216.0 508.8,209.1 509.0,216.0 509.2,216.0 509.4,216.0 509.5,216.0 509.7,223.6 509.9,223.6 510.1,223.3 510.3,222.3 510.5,217.8 510.7,217.8 510.9,217.8 511.0,222.9 511.2,222.9 511.4,222.9 511.6,222.9 511.8,219.3 512.0,222.3 512.2,222.3 512.4,216.3 512.5,216.3 512.7,216.3 512.9,216.3 513.1,216.0 513.3,207.7 513.5,207.7 513.7,207.7 513.8,207.7 514.0,207.7 514.2,207.7 514.4,203.6 514.6,202.3 514.8,202.3 515.0,202.3 515.2,202.3 515.3,202.3 515.5,202.3 515.7,210.5 515.9,210.5 516.1,210.5 516.3,213.1 516.5,213.1 516.7,213.1 516.8,202.3 517.0,202.3 517.2,202.3 517.4,202.3 517.6,202.3 517.8,202.3 518.0,202.3 518.1,202.3 518.3,180.3 518.5,178.0 518.7,178.0 518.9,212.8 519.1,212.8 519.3,212.8 519.5,213.4 519.6,213.4 519.8,213.4 520.0,213.4 520.2,207.7 520.4,207.4 520.6,202.5 520.8,202.5 521.0,202.3 521.1,202.3 521.3,202.3 521.5,202.3 521.7,211.1 521.9,211.1 522.1,203.6 522.3,203.6 522.4,180.5 522.6,180.5 522.8,210.4 523.0,210.4 523.2,210.4 523.4,210.4 523.6,210.4 523.8,210.4 523.9,210.4 524.1,210.4 524.3,210.4 524.5,210.4 524.7,210.4 524.9,210.4 525.1,210.4 525.3,210.4 525.4,210.4 525.6,210.4 525.8,210.4 526.0,210.4 526.2,202.0 526.4,202.0 526.6,202.0 526.8,202.3 526.9,202.3 527.1,208.3 527.3,208.3 527.5,208.3 527.7,208.3 527.9,208.3 528.1,208.3 528.2,208.3 528.4,208.3 528.6,208.3 528.8,208.3 529.0,195.8 529.2,195.8 529.4,195.8 529.6,195.8 529.7,195.8 529.9,195.8 530.1,207.7 530.3,207.7 530.5,189.9 530.7,189.9 530.9,189.9 531.1,189.9 531.2,189.9 531.4,189.6 531.6,189.6 531.8,195.8 532.0,202.3 532.2,202.3 532.4,202.3 532.5,202.3 532.7,195.8 532.9,195.8 533.1,195.8 533.3,195.8 533.5,195.8 533.7,195.8 533.9,195.8 534.0,195.8 534.2,195.8 534.4,195.8 534.6,195.8 534.8,199.6 535.0,199.6 535.2,199.6 535.4,199.6 535.5,199.6 535.7,200.2 535.9,200.2 536.1,200.2 536.3,190.8 536.5,190.8 536.7,190.8 536.8,190.8 537.0,189.6 537.2,189.6 537.4,189.6 537.6,189.6 537.8,189.6 538.0,189.6 538.2,189.6 538.3,189.6 538.5,189.6 538.7,189.6 538.9,189.6 539.1,189.6 539.3,189.7 539.5,189.7 539.7,192.0 539.8,192.0 540.0,192.0 540.2,192.0 540.4,192.0 540.6,192.0 540.8,192.0 541.0,192.0 541.1,192.0 541.3,189.6 541.5,182.8 541.7,182.8 541.9,182.8 542.1,182.8 542.3,182.8 542.5,182.8 542.6,182.8 542.8,182.8 543.0,182.8 543.2,182.8 543.4,182.8 543.6,182.8 543.8,182.8 544.0,182.8 544.1,192.0 544.3,192.0 544.5,192.0 544.7,182.8 544.9,182.8 545.1,182.8 545.3,182.8 545.4,182.8 545.6,182.8 545.8,181.0 546.0,181.0 546.2,181.0 546.4,187.2 546.6,193.3 546.8,193.3 546.9,194.5 547.1,206.0 547.3,188.7 547.5,195.7 547.7,193.3 547.9,193.3 548.1,192.0 548.3,192.0 548.4,192.0 548.6,192.0 548.8,192.0 549.0,192.0 549.2,192.0 549.4,192.0 549.6,192.0 549.7,188.6 549.9,188.6 550.1,199.6 550.3,189.6 550.5,188.6 550.7,188.6 550.9,189.6 551.1,188.6 551.2,188.6 551.4,188.6 551.6,188.6 551.8,188.6 552.0,207.7 552.2,207.7 552.4,207.7 552.6,207.7 552.7,207.7 552.9,201.0 553.1,197.1 553.3,197.1 553.5,197.1 553.7,197.1 553.9,197.1 554.0,197.1 554.2,197.1 554.4,197.1 554.6,197.1 554.8,197.1 555.0,197.1 555.2,197.1 555.4,197.1 555.5,197.1 555.7,191.8 555.9,191.8 556.1,191.8 556.3,191.8 556.5,191.8 556.7,191.8 556.9,191.8 557.0,191.8 557.2,200.7 557.4,200.4 557.6,200.4 557.8,200.4 558.0,200.4 558.2,200.2 558.3,200.2 558.5,192.0 558.7,192.0 558.9,192.0 559.1,192.0 559.3,192.0 559.5,192.0 559.7,192.0 559.8,195.7 560.0,195.7 560.2,195.7 560.4,184.6 560.6,184.6 560.8,198.3 561.0,198.3 561.2,198.3 561.3,198.3 561.5,200.2 561.7,200.2 561.9,200.2 562.1,192.8 562.3,192.0 562.5,189.6 562.7,189.6 562.8,192.0 563.0,192.0 563.2,195.8 563.4,195.8 563.6,195.8 563.8,195.8 564.0,187.3 564.1,187.3 564.3,187.4 564.5,187.3 564.7,195.8 564.9,195.8 565.1,200.1 565.3,191.6 565.5,191.6 565.6,191.6 565.8,187.2 566.0,198.6 566.2,198.1 566.4,198.3 566.6,202.4 566.8,202.4 567.0,202.4 567.1,201.0 567.3,201.0 567.5,201.0 567.7,201.0 567.9,201.0 568.1,201.7 568.3,201.7 568.4,201.0 568.6,201.0 568.8,201.0 569.0,192.0 569.2,192.0 569.4,190.8 569.6,190.8 569.8,191.1 569.9,190.8 570.1,190.8 570.3,190.8 570.5,189.9 570.7,189.9 570.9,189.9 571.1,189.9 571.3,189.9 571.4,189.9 571.6,189.9 571.8,189.9 572.0,189.9 572.2,189.9 572.4,189.9 572.6,189.9 572.7,189.9 572.9,189.9 573.1,189.9 573.3,189.9 573.5,189.9 573.7,189.9 573.9,189.9 574.1,189.9 574.2,189.9 574.4,189.9 574.6,189.9 574.8,189.9 575.0,189.9 575.2,189.9 575.4,189.9 575.6,189.9 575.7,231.9 575.9,231.9 576.1,231.9 576.3,231.9 576.5,231.9 576.7,231.9 576.9,231.9 577.0,231.9 577.2,231.9 577.4,231.9 577.6,231.9 577.8,231.9 578.0,231.9 578.2,231.9 578.4,231.9 578.5,231.9 578.7,231.9 578.9,231.9 579.1,231.9 579.3,231.9 579.5,231.9 579.7,231.9 579.9,231.9 580.0,231.9 580.2,231.9 580.4,231.9 580.6,231.9 580.8,231.9 581.0,231.9 581.2,231.9 581.3,231.9 581.5,231.9 581.7,202.3 581.9,202.3 582.1,202.3 582.3,202.3 582.5,202.3 582.7,202.3 582.8,202.3 583.0,202.3 583.2,202.3 583.4,202.3 583.6,195.8 583.8,195.8 584.0,195.8 584.2,195.8 584.3,195.8 584.5,195.8 584.7,195.8 584.9,195.8 585.1,195.8 585.3,195.8 585.5,195.8 585.6,195.8 585.8,195.8 586.0,195.8 586.2,195.8 586.4,195.8 586.6,195.8 586.8,195.8 587.0,195.8 587.1,195.8 587.3,195.8 587.5,195.8 587.7,195.8 587.9,195.8 588.1,195.8 588.3,195.8 588.5,195.8 588.6,195.8 588.8,195.8 589.0,195.8 589.2,195.8 589.4,195.8 589.6,195.8 589.8,195.8 589.9,195.8 590.1,195.8 590.3,195.8 590.5,195.8 590.7,195.8 590.9,195.8 591.1,195.8 591.3,195.8 591.4,195.8 591.6,195.8 591.8,195.8 592.0,195.8 592.2,195.8 592.4,195.8 592.6,195.8 592.8,195.8 592.9,195.8 593.1,195.8 593.3,195.8 593.5,195.8 593.7,195.8 593.9,195.8 594.1,195.8 594.2,195.8 594.4,195.8 594.6,195.8 594.8,195.8 595.0,195.8 595.2,195.8 595.4,195.8 595.6,195.8 595.7,195.8 595.9,195.8 596.1,196.0 596.3,196.0 596.5,196.0 596.7,196.0 596.9,196.0 597.1,196.0 597.2,196.0 597.4,196.0 597.6,196.0 597.8,196.0 598.0,196.0 598.2,196.0 598.4,196.0 598.5,196.0 598.7,196.0 598.9,196.0 599.1,196.0 599.3,196.0 599.5,196.0 599.7,196.0 599.9,196.0 600.0,196.0 600.2,196.0 600.4,196.0 600.6,196.0 600.8,196.0 601.0,196.0 601.2,194.3 601.4,194.3 601.5,194.3 601.7,194.3 601.9,194.3 602.1,194.3 602.3,194.3 602.5,194.3 602.7,194.3 602.9,194.3 603.0,194.3 603.2,194.3 603.4,194.3 603.6,194.3 603.8,194.3 604.0,194.3 604.2,194.3 604.3,194.3 604.5,194.5 604.7,194.5 604.9,194.5 605.1,194.5 605.3,194.5 605.5,194.5 605.7,195.8 605.8,195.8 606.0,195.8 606.2,198.1 606.4,195.8 606.6,195.8 606.8,195.8 607.0,195.8 607.2,195.8 607.3,195.8 607.5,195.8 607.7,195.8 607.9,195.8 608.1,195.8 608.3,195.8 608.5,195.8 608.6,195.8 608.8,195.8 609.0,195.8 609.2,195.8 609.4,195.8 609.6,195.8 609.8,195.8 610.0,195.8 610.1,195.8 610.3,195.8 610.5,195.8 610.7,195.8 610.9,195.8 611.1,195.8 611.3,195.8 611.5,195.8 611.6,195.8 611.8,195.8 612.0,195.8 612.2,195.8 612.4,195.8 612.6,195.8 612.8,195.8 612.9,195.8 613.1,195.8 613.3,195.8 613.5,195.8 613.7,195.8 613.9,195.8 614.1,187.2 614.3,187.2 614.4,187.2 614.6,187.2 614.8,187.2 615.0,187.2 615.2,187.2 615.4,187.2 615.6,187.2 615.8,187.2 615.9,184.9 616.1,184.9 616.3,184.9 616.5,184.9 616.7,184.9 616.9,184.9 617.1,184.9 617.2,184.9 617.4,184.9 617.6,184.9 617.8,184.9 618.0,184.9 618.2,184.9 618.4,184.9 618.6,184.9 618.7,184.9 618.9,184.9 619.1,184.9 619.3,184.9 619.5,184.9 619.7,184.9 619.9,184.9 620.1,184.9 620.2,182.6 620.4,182.6 620.6,182.6 620.8,182.6 621.0,182.6 621.2,182.6 621.4,182.6 621.5,182.6 621.7,182.6 621.9,182.6 622.1,182.6 622.3,182.6 622.5,182.6 622.7,182.6 622.9,182.6 623.0,182.6 623.2,182.6 623.4,182.6 623.6,182.6 623.8,182.6 624.0,182.6 624.2,182.6 624.4,182.6 624.5,182.6 624.7,182.6 624.9,182.6 625.1,182.6 625.3,182.6 625.5,182.6 625.7,182.6 625.8,178.0 626.0,178.0 626.2,178.0 626.4,178.0 626.6,178.0 626.8,178.0 627.0,182.6 627.2,182.6 627.3,182.6 627.5,182.6 627.7,182.6 627.9,182.6 628.1,182.6 628.3,182.6 628.5,182.6 628.7,182.6 628.8,182.6 629.0,182.6 629.2,182.6 629.4,182.6 629.6,182.6 629.8,182.6 630.0,182.6 630.1,182.6 630.3,182.6 630.5,182.6 630.7,182.6 630.9,182.6 631.1,182.6 631.3,182.6 631.5,182.6 631.6,182.6 631.8,182.6 632.0,179.2 632.2,179.2 632.4,179.2 632.6,179.2 632.8,179.2 633.0,179.2 633.1,179.2 633.3,179.2 633.5,179.2 633.7,180.3 633.9,180.3 634.1,180.3 634.3,180.3 634.5,180.3 634.6,180.3 634.8,180.3 635.0,180.3 635.2,180.3 635.4,180.3 635.6,180.3 635.8,180.3 635.9,180.3 636.1,180.3 636.3,180.3 636.5,180.3 636.7,180.3 636.9,180.3 637.1,180.3 637.3,180.3 637.4,180.3 637.6,180.3 637.8,180.3 638.0,180.3 638.2,180.3 638.4,180.3 638.6,180.1 638.8,180.3 638.9,180.3 639.1,180.3 639.3,180.3 639.5,180.3 639.7,180.3 639.9,180.3 640.1,180.3 640.2,172.6 640.4,172.6 640.6,172.6 640.8,172.6 641.0,172.6 641.2,172.6 641.4,172.6 641.6,172.6 641.7,172.6 641.9,172.6 642.1,172.6 642.3,172.6 642.5,172.6 642.7,172.6 642.9,172.6 643.1,172.6 643.2,172.6 643.4,172.6 643.6,172.6 643.8,172.6 644.0,172.6 644.2,172.6 644.4,172.6 644.5,172.6 644.7,172.6 644.9,172.6 645.1,180.3 645.3,180.3 645.5,180.3 645.7,180.3 645.9,180.3 646.0,180.3 646.2,180.3 646.4,180.3 646.6,180.3 646.8,180.3 647.0,180.3 647.2,180.3 647.4,180.3 647.5,180.3 647.7,180.3 647.9,180.3 648.1,180.3 648.3,180.3 648.5,180.3 648.7,180.3 648.8,180.3 649.0,180.3 649.2,180.3 649.4,180.3 649.6,180.3 649.8,180.3 650.0,180.3 650.2,180.3 650.3,180.3 650.5,180.3 650.7,180.3 650.9,180.3 651.1,180.3 651.3,180.3 651.5,180.3 651.7,180.3 651.8,180.3 652.0,180.3 652.2,180.3 652.4,180.3 652.6,180.3 652.8,180.3 653.0,180.3 653.1,186.5 653.3,186.5 653.5,187.2 653.7,187.2 653.9,187.2 654.1,187.2 654.3,187.2 654.5,187.2 654.6,187.2 654.8,183.7 655.0,183.7 655.2,183.7 655.4,183.7 655.6,184.9 655.8,184.9 656.0,184.9 656.1,184.9 656.3,184.9 656.5,184.9 656.7,184.9 656.9,184.9 657.1,184.9 657.3,184.9 657.4,184.9 657.6,184.9 657.8,184.9 658.0,184.9 658.2,184.9 658.4,184.9 658.6,184.9 658.8,184.9 658.9,184.9 659.1,184.9 659.3,184.9 659.5,184.9 659.7,184.9 659.9,184.9 660.1,184.9 660.3,184.9 660.4,184.9 660.6,184.9 660.8,184.9 661.0,184.9 661.2,184.9 661.4,184.9 661.6,184.9 661.7,184.9 661.9,184.5 662.1,184.5 662.3,184.5 662.5,184.5 662.7,184.5 662.9,184.5 663.1,184.5 663.2,184.5 663.4,184.5 663.6,184.5 663.8,184.5 664.0,184.5 664.2,184.5 664.4,184.5 664.6,184.5 664.7,184.5 664.9,184.5 665.1,184.5 665.3,182.6 665.5,182.6 665.7,182.6 665.9,182.6 666.0,182.6 666.2,182.6 666.4,184.5 666.6,184.5 666.8,184.5 667.0,184.5 667.2,184.5 667.4,184.5 667.5,184.5 667.7,184.5 667.9,184.5 668.1,184.5 668.3,184.5 668.5,184.5 668.7,184.5 668.9,184.5 669.0,184.5 669.2,184.5 669.4,184.5 669.6,184.5 669.8,184.5 670.0,184.5 670.2,184.5 670.4,184.5 670.5,184.5 670.7,184.5 670.9,184.5 671.1,184.5 671.3,184.5 671.5,184.5 671.7,184.5 671.8,184.5 672.0,184.5 672.2,184.5 672.4,184.5 672.6,184.5 672.8,184.5 673.0,183.5 673.2,183.5 673.3,183.5 673.5,183.5 673.7,183.5 673.9,183.5 674.1,183.5 674.3,184.9 674.5,184.9 674.7,184.2 674.8,184.2 675.0,184.2 675.2,184.2 675.4,184.2 675.6,184.2 675.8,184.2 676.0,184.2 676.1,184.2 676.3,184.2 676.5,184.2 676.7,184.2 676.9,184.2 677.1,184.2 677.3,184.2 677.5,184.2 677.6,184.2 677.8,184.2 678.0,184.2 678.2,184.2 678.4,184.2 678.6,184.2 678.8,184.2 679.0,184.2 679.1,184.2 679.3,184.2 679.5,184.2 679.7,184.2 679.9,184.2 680.1,184.2 680.3,184.2 680.4,184.2 680.6,184.2 680.8,184.2 681.0,184.2 681.2,184.2 681.4,175.9 681.6,175.9 681.8,175.9 681.9,175.9 682.1,175.9 682.3,175.9 682.5,175.9 682.7,175.9 682.9,175.9 683.1,175.9 683.3,175.9 683.4,175.9 683.6,175.9 683.8,175.9 684.0,175.9 684.2,175.9 684.4,175.9 684.6,175.9 684.7,175.9 684.9,175.9 685.1,175.9 685.3,175.9 685.5,175.9 685.7,175.9 685.9,175.9 686.1,175.9 686.2,183.7 686.4,183.7 686.6,183.7 686.8,183.7 687.0,183.7 687.2,183.7 687.4,183.7 687.6,183.7 687.7,183.7 687.9,183.7 688.1,183.7 688.3,183.7 688.5,183.7 688.7,183.7 688.9,184.3 689.0,184.3 689.2,184.3 689.4,184.3 689.6,184.3 689.8,184.3 690.0,184.3 690.2,184.3 690.4,184.3 690.5,184.3 690.7,184.3 690.9,184.3 691.1,184.3 691.3,184.3 691.5,184.3 691.7,184.3 691.9,184.3 692.0,184.3 692.2,184.3 692.4,184.3 692.6,184.3 692.8,184.3 693.0,184.3 693.2,175.9 693.3,175.9 693.5,175.9 693.7,175.9 693.9,175.9 694.1,180.3 694.3,180.3 694.5,180.3 694.7,180.3 694.8,180.3 695.0,180.3 695.2,180.3 695.4,180.3 695.6,180.3 695.8,180.3 696.0,180.3 696.2,180.3 696.3,180.3 696.5,180.3 696.7,180.3 696.9,180.3 697.1,180.3 697.3,180.3 697.5,180.3 697.6,180.3 697.8,180.3 698.0,180.3 698.2,180.3 698.4,180.3 698.6,180.3 698.8,180.3 699.0,180.3 699.1,180.3 699.3,180.3 699.5,180.3 699.7,184.3 699.9,184.3 700.1,184.3 700.3,184.3 700.5,184.3 700.6,184.3 700.8,184.3 701.0,184.3 701.2,184.3 701.4,184.3 701.6,184.3 701.8,182.6 701.9,182.6 702.1,182.6 702.3,182.6 702.5,182.6 702.7,182.6 702.9,182.6 703.1,182.6 703.3,182.6 703.4,182.6 703.6,182.6 703.8,184.3 704.0,184.3 704.2,184.3 704.4,184.3 704.6,184.3 704.8,184.3 704.9,184.3 705.1,184.3 705.3,184.3 705.5,184.3 705.7,184.3 705.9,184.3 706.1,184.3 706.2,184.3 706.4,184.3 706.6,184.3 706.8,184.3 707.0,184.3 707.2,184.3 707.4,184.3 707.6,184.3 707.7,184.3 707.9,184.3 708.1,184.3 708.3,184.3 708.5,184.3 708.7,184.3 708.9,184.3 709.1,184.3 709.2,184.3 709.4,184.3 709.6,184.3 709.8,184.3 710.0,184.3 710.2,184.3 710.4,184.3 710.6,184.3 710.7,184.3 710.9,184.3 711.1,184.3 711.3,184.3 711.5,184.3 711.7,184.3 711.9,184.3 712.0,184.3 712.2,184.3 712.4,184.3 712.6,184.3 712.8,189.6 713.0,189.6 713.2,189.6 713.4,189.6 713.5,189.6 713.7,189.6 713.9,189.6 714.1,189.6 714.3,189.6 714.5,189.6 714.7,189.6 714.9,189.6 715.0,189.6 715.2,189.6 715.4,189.6 715.6,189.6 715.8,189.6 716.0,189.6 716.2,188.4 716.3,188.4 716.5,188.4 716.7,188.4 716.9,188.4 717.1,188.4 717.3,188.4 717.5,188.4 717.7,188.4 717.8,188.4 718.0,188.4 718.2,188.4 718.4,188.4 718.6,188.4 718.8,188.4 719.0,188.4 719.2,188.4 719.3,188.4 719.5,188.4 719.7,188.4 719.9,188.4 720.1,188.4 720.3,188.4 720.5,188.4 720.6,188.4 720.8,188.4 721.0,188.4 721.2,188.4 721.4,188.4 721.6,188.4 721.8,188.4 722.0,188.4 722.1,188.4 722.3,188.4 722.5,188.4 722.7,188.4 722.9,188.4 723.1,188.4 723.3,188.4 723.5,188.4 723.6,188.4 723.8,188.4 724.0,188.4 724.2,188.4 724.4,188.4 724.6,188.4 724.8,188.4 724.9,188.4 725.1,188.4 725.3,188.4 725.5,188.4 725.7,188.4 725.9,188.4 726.1,188.4 726.3,188.4 726.4,188.4 726.6,188.4 726.8,188.4 727.0,188.4 727.2,188.4 727.4,188.4 727.6,188.4 727.8,176.9 727.9,176.9 728.1,176.9 728.3,176.9 728.5,176.9 728.7,176.9 728.9,176.9 729.1,176.9 729.2,176.9 729.4,176.9 729.6,176.9 729.8,176.9 730.0,176.9 730.2,176.9 730.4,176.9 730.6,176.9 730.7,176.9 730.9,176.9 731.1,176.9 731.3,176.9 731.5,176.9 731.7,176.9 731.9,176.9 732.1,176.9 732.2,176.9 732.4,176.9 732.6,176.9 732.8,176.9 733.0,176.9 733.2,176.9 733.4,176.9 733.5,176.9 733.7,176.9 733.9,176.9 734.1,176.9 734.3,176.9 734.5,176.9 734.7,176.9 734.9,176.9 735.0,176.9 735.2,176.9 735.4,176.9 735.6,176.9 735.8,176.9 736.0,178.0 736.2,178.0 736.4,178.0 736.5,178.0 736.7,178.0 736.9,178.0 737.1,178.0 737.3,178.0 737.5,178.0 737.7,178.0 737.8,178.0 738.0,178.0 738.2,178.0 738.4,188.4 738.6,188.4 738.8,188.4 739.0,188.4 739.2,188.4 739.3,188.4 739.5,188.4 739.7,180.3 739.9,180.3 740.1,180.3 740.3,180.3 740.5,180.3 740.7,182.1 740.8,182.1 741.0,182.1 741.2,182.1 741.4,182.1 741.6,182.1 741.8,182.1 742.0,188.4 742.1,188.4 742.3,188.4 742.5,188.4 742.7,189.6 742.9,189.6 743.1,189.6 743.3,189.6 743.5,189.6 743.6,189.6 743.8,189.6 744.0,189.6 744.2,189.6 744.4,189.6 744.6,189.6 744.8,189.6 745.0,189.6 745.1,189.6 745.3,189.6 745.5,189.6 745.7,189.6 745.9,189.6 746.1,189.6 746.3,189.6 746.5,189.6 746.6,189.6 746.8,189.6 747.0,189.6 747.2,189.6 747.4,189.6 747.6,183.7 747.8,183.7 747.9,183.7 748.1,183.7 748.3,183.7 748.5,183.7 748.7,183.7 748.9,183.7 749.1,183.7 749.3,183.7 749.4,183.7 749.6,187.2 749.8,187.2 750.0,187.2 750.2,187.2 750.4,187.2 750.6,187.2 750.8,187.2 750.9,187.2 751.1,187.2 751.3,187.2 751.5,187.2 751.7,187.2 751.9,187.2 752.1,187.2 752.2,187.2 752.4,187.2 752.6,187.2 752.8,187.2 753.0,187.2 753.2,187.2 753.4,187.2 753.6,187.2 753.7,187.2 753.9,187.2 754.1,187.2 754.3,187.2 754.5,187.2 754.7,187.2 754.9,187.2 755.1,187.2 755.2,187.2 755.4,187.2 755.6,187.2 755.8,187.2 756.0,187.2 756.2,187.2 756.4,187.2 756.5,187.2 756.7,187.2 756.9,187.2 757.1,187.2 757.3,157.6 757.5,157.6 757.7,157.6 757.9,157.6 758.0,157.6 758.2,157.6 758.4,157.6 758.6,157.6 758.8,157.6 759.0,183.7 759.2,183.7 759.4,183.7 759.5,183.7 759.7,183.7 759.9,183.7 760.1,183.7 760.3,183.7 760.5,183.7 760.7,183.7 760.8,183.7 761.0,183.7 761.2,183.7 761.4,183.7 761.6,183.7 761.8,183.7 762.0,183.7 762.2,183.7 762.3,183.7 762.5,182.6 762.7,182.6 762.9,182.6 763.1,182.6 763.3,182.6 763.5,182.6 763.7,183.7 763.8,183.7 764.0,183.7 764.2,183.7 764.4,183.7 764.6,183.7 764.8,183.7 765.0,183.7 765.1,183.7 765.3,183.7 765.5,183.7 765.7,183.7 765.9,183.7 766.1,183.7 766.3,183.7 766.5,183.7 766.6,183.7 766.8,183.7 767.0,183.7 767.2,183.7 767.4,183.7 767.6,183.7 767.8,183.7 768.0,183.7 768.1,183.7 768.3,183.7 768.5,183.7 768.7,183.7 768.9,183.7 769.1,183.7 769.3,183.7 769.4,183.7 769.6,183.7 769.8,183.7 770.0,183.7 770.2,183.7 770.4,183.7 770.6,183.7 770.8,183.7 770.9,183.7 771.1,183.7 771.3,183.7 771.5,183.7 771.7,183.7 771.9,183.7 772.1,183.7 772.3,183.7 772.4,183.7 772.6,183.7 772.8,183.7 773.0,183.7 773.2,183.7 773.4,183.7 773.6,183.7 773.7,183.7 773.9,183.7 774.1,183.7 774.3,183.7 774.5,183.7 774.7,183.7 774.9,183.7 775.1,183.7 775.2,183.7 775.4,183.7 775.6,183.7 775.8,183.7 776.0,183.7 776.2,183.7 776.4,183.7 776.6,183.7 776.7,183.7 776.9,183.7 777.1,183.7 777.3,183.7 777.5,183.7 777.7,183.7 777.9,183.7 778.0,183.7 778.2,183.7 778.4,183.7 778.6,183.7 778.8,183.7 779.0,183.7 779.2,183.7 779.4,183.7 779.5,183.7 779.7,183.7 779.9,183.7 780.1,183.7 780.3,183.7 780.5,183.7 780.7,183.7 780.9,183.7 781.0,183.7 781.2,183.7 781.4,183.7 781.6,183.7 781.8,183.7 782.0,183.7 782.2,183.7 782.4,183.7 782.5,187.2 782.7,187.2 782.9,187.2 783.1,187.2 783.3,187.2 783.5,187.2 783.7,187.2 783.8,187.2 784.0,187.2 784.2,187.2 784.4,187.2 784.6,187.2 784.8,187.2 785.0,187.2 785.2,187.2 785.3,187.2 785.5,187.2 785.7,187.2 785.9,187.2 786.1,187.2 786.3,187.2 786.5,187.2 786.7,187.2 786.8,187.2 787.0,187.2 787.2,187.2 787.4,187.2 787.6,187.2 787.8,187.2 788.0,187.2 788.1,187.2 788.3,187.2 788.5,187.2 788.7,187.2 788.9,187.2 789.1,187.2 789.3,187.2 789.5,187.2 789.6,187.2 789.8,187.2 790.0,187.2 790.2,187.2 790.4,187.2 790.6,187.2 790.8,187.2 791.0,187.2 791.1,187.2 791.3,187.2 791.5,187.2 791.7,187.2 791.9,187.2 792.1,187.2 792.3,187.2 792.4,183.7 792.6,183.7 792.8,183.7 793.0,183.7 793.2,183.7 793.4,183.7 793.6,183.7 793.8,183.7 793.9,183.7 794.1,183.7 794.3,183.7 794.5,183.7 794.7,183.7 794.9,183.7 795.1,183.7 795.3,183.7 795.4,183.7 795.6,183.7 795.8,183.7 796.0,183.7"/><polyline fill="none" stroke="#16a34a" stroke-width="3" points="78.0,302.6 78.2,302.6 78.4,302.6 78.6,302.6 78.7,302.6 78.9,302.6 79.1,302.6 79.3,302.6 79.5,302.6 79.7,302.6 79.9,302.6 80.1,308.4 80.2,314.4 80.4,308.4 80.6,308.4 80.8,308.4 81.0,308.4 81.2,308.4 81.4,308.4 81.6,308.4 81.7,308.4 81.9,308.4 82.1,308.4 82.3,308.4 82.5,308.4 82.7,308.4 82.9,308.4 83.0,308.4 83.2,308.4 83.4,308.4 83.6,308.4 83.8,308.4 84.0,308.4 84.2,308.4 84.4,308.4 84.5,308.4 84.7,308.4 84.9,308.4 85.1,308.4 85.3,308.4 85.5,308.4 85.7,308.4 85.9,308.4 86.0,308.4 86.2,308.4 86.4,308.4 86.6,308.4 86.8,308.4 87.0,308.4 87.2,308.4 87.3,308.4 87.5,308.4 87.7,308.4 87.9,308.4 88.1,308.4 88.3,308.4 88.5,308.4 88.7,308.4 88.8,308.4 89.0,305.4 89.2,305.4 89.4,305.4 89.6,305.4 89.8,305.4 90.0,305.4 90.2,305.4 90.3,305.4 90.5,305.4 90.7,305.4 90.9,305.4 91.1,311.4 91.3,305.4 91.5,305.4 91.6,305.4 91.8,305.4 92.0,305.4 92.2,305.4 92.4,305.4 92.6,305.4 92.8,305.4 93.0,305.4 93.1,305.4 93.3,305.4 93.5,305.4 93.7,305.4 93.9,305.4 94.1,305.4 94.3,305.4 94.5,305.4 94.6,305.4 94.8,305.4 95.0,305.4 95.2,305.4 95.4,305.4 95.6,305.4 95.8,305.4 96.0,305.4 96.1,305.4 96.3,305.4 96.5,305.4 96.7,305.4 96.9,305.4 97.1,305.4 97.3,305.4 97.4,305.4 97.6,305.4 97.8,305.4 98.0,305.4 98.2,294.4 98.4,294.4 98.6,294.4 98.8,294.4 98.9,294.4 99.1,294.4 99.3,294.4 99.5,294.4 99.7,294.4 99.9,294.4 100.1,294.4 100.3,294.4 100.4,294.4 100.6,294.4 100.8,294.4 101.0,294.4 101.2,294.4 101.4,313.8 101.6,313.8 101.7,313.8 101.9,313.8 102.1,313.8 102.3,313.8 102.5,313.8 102.7,313.8 102.9,313.8 103.1,313.8 103.2,313.8 103.4,308.4 103.6,308.4 103.8,308.4 104.0,308.4 104.2,308.4 104.4,308.4 104.6,308.4 104.7,308.4 104.9,308.4 105.1,308.4 105.3,308.4 105.5,308.4 105.7,308.4 105.9,308.4 106.0,308.4 106.2,308.4 106.4,308.4 106.6,308.4 106.8,313.2 107.0,313.2 107.2,313.2 107.4,313.2 107.5,313.2 107.7,313.2 107.9,313.2 108.1,308.4 108.3,308.4 108.5,308.4 108.7,308.4 108.9,308.4 109.0,308.4 109.2,308.4 109.4,308.4 109.6,308.4 109.8,308.4 110.0,308.4 110.2,308.4 110.3,308.4 110.5,308.4 110.7,308.4 110.9,308.4 111.1,308.4 111.3,308.4 111.5,308.4 111.7,308.4 111.8,308.4 112.0,308.4 112.2,308.4 112.4,308.4 112.6,308.4 112.8,308.4 113.0,308.4 113.2,308.4 113.3,308.4 113.5,308.4 113.7,308.4 113.9,308.4 114.1,308.4 114.3,308.4 114.5,308.4 114.6,308.4 114.8,308.4 115.0,308.4 115.2,308.4 115.4,308.4 115.6,308.4 115.8,308.4 116.0,308.4 116.1,305.4 116.3,305.4 116.5,305.4 116.7,305.4 116.9,305.4 117.1,305.4 117.3,305.4 117.5,305.4 117.6,305.4 117.8,305.4 118.0,305.4 118.2,305.4 118.4,305.4 118.6,305.4 118.8,305.4 118.9,305.4 119.1,305.4 119.3,305.4 119.5,305.4 119.7,305.4 119.9,305.4 120.1,305.4 120.3,305.4 120.4,305.4 120.6,305.4 120.8,305.4 121.0,305.4 121.2,305.4 121.4,305.4 121.6,305.4 121.8,305.4 121.9,305.4 122.1,305.4 122.3,305.4 122.5,305.4 122.7,305.4 122.9,305.4 123.1,305.4 123.2,305.4 123.4,305.4 123.6,305.4 123.8,305.4 124.0,305.4 124.2,305.4 124.4,305.4 124.6,305.4 124.7,305.4 124.9,305.4 125.1,305.4 125.3,305.4 125.5,305.4 125.7,305.4 125.9,305.4 126.1,305.4 126.2,305.4 126.4,305.4 126.6,305.4 126.8,305.4 127.0,305.4 127.2,305.4 127.4,305.4 127.5,305.4 127.7,305.4 127.9,305.4 128.1,305.4 128.3,305.4 128.5,305.4 128.7,305.4 128.9,305.4 129.0,305.4 129.2,305.4 129.4,305.4 129.6,305.4 129.8,305.4 130.0,305.4 130.2,305.4 130.4,305.4 130.5,305.4 130.7,305.4 130.9,305.4 131.1,305.4 131.3,305.4 131.5,305.4 131.7,294.4 131.8,294.4 132.0,294.4 132.2,294.4 132.4,294.4 132.6,294.4 132.8,294.4 133.0,294.4 133.2,294.4 133.3,294.4 133.5,294.4 133.7,294.4 133.9,294.4 134.1,294.4 134.3,286.3 134.5,286.3 134.7,286.3 134.8,286.3 135.0,287.1 135.2,287.1 135.4,287.1 135.6,287.1 135.8,287.1 136.0,287.1 136.2,287.1 136.3,287.1 136.5,287.1 136.7,287.1 136.9,287.1 137.1,287.1 137.3,287.1 137.5,287.1 137.6,305.4 137.8,305.4 138.0,305.2 138.2,305.2 138.4,305.2 138.6,305.2 138.8,305.2 139.0,305.2 139.1,305.2 139.3,305.2 139.5,305.2 139.7,305.2 139.9,305.2 140.1,305.2 140.3,305.2 140.5,305.2 140.6,305.2 140.8,309.3 141.0,309.3 141.2,309.3 141.4,309.3 141.6,309.3 141.8,309.3 141.9,309.3 142.1,309.3 142.3,309.3 142.5,309.3 142.7,309.3 142.9,309.3 143.1,309.3 143.3,309.3 143.4,309.3 143.6,309.3 143.8,309.3 144.0,309.3 144.2,309.3 144.4,309.3 144.6,309.3 144.8,309.3 144.9,309.3 145.1,309.3 145.3,309.3 145.5,309.3 145.7,309.3 145.9,309.3 146.1,309.3 146.2,309.3 146.4,309.3 146.6,294.4 146.8,294.4 147.0,294.4 147.2,294.4 147.4,294.4 147.6,294.4 147.7,294.4 147.9,294.4 148.1,294.4 148.3,294.4 148.5,294.4 148.7,294.4 148.9,294.4 149.1,294.4 149.2,294.4 149.4,294.4 149.6,294.4 149.8,294.4 150.0,294.4 150.2,294.4 150.4,294.4 150.5,294.4 150.7,294.4 150.9,294.4 151.1,294.4 151.3,294.4 151.5,294.4 151.7,294.4 151.9,294.4 152.0,294.4 152.2,294.4 152.4,294.4 152.6,294.4 152.8,299.2 153.0,299.2 153.2,299.2 153.4,299.2 153.5,299.2 153.7,296.5 153.9,296.5 154.1,296.5 154.3,296.5 154.5,296.5 154.7,295.4 154.8,295.4 155.0,295.4 155.2,295.4 155.4,294.9 155.6,294.9 155.8,294.9 156.0,294.9 156.2,294.9 156.3,294.9 156.5,294.9 156.7,294.9 156.9,294.9 157.1,294.9 157.3,296.1 157.5,296.1 157.7,296.1 157.8,296.1 158.0,296.1 158.2,296.1 158.4,296.1 158.6,296.1 158.8,296.1 159.0,296.1 159.1,296.1 159.3,291.2 159.5,291.2 159.7,291.2 159.9,291.2 160.1,291.2 160.3,291.2 160.5,291.2 160.6,291.2 160.8,291.2 161.0,291.2 161.2,291.2 161.4,291.2 161.6,291.2 161.8,291.2 162.0,291.2 162.1,291.2 162.3,291.2 162.5,291.2 162.7,281.7 162.9,281.7 163.1,281.7 163.3,281.7 163.4,281.7 163.6,281.7 163.8,281.7 164.0,281.7 164.2,281.7 164.4,281.7 164.6,281.7 164.8,299.8 164.9,299.8 165.1,299.8 165.3,299.8 165.5,299.8 165.7,299.8 165.9,299.8 166.1,299.8 166.3,299.8 166.4,299.8 166.6,299.8 166.8,299.8 167.0,299.8 167.2,299.8 167.4,299.8 167.6,299.8 167.8,299.8 167.9,299.8 168.1,299.8 168.3,299.8 168.5,299.8 168.7,299.8 168.9,299.8 169.1,299.8 169.2,299.8 169.4,299.8 169.6,299.8 169.8,299.8 170.0,299.8 170.2,299.8 170.4,299.8 170.6,299.8 170.7,299.8 170.9,291.7 171.1,291.7 171.3,291.7 171.5,291.7 171.7,291.7 171.9,291.7 172.1,291.7 172.2,291.7 172.4,291.7 172.6,291.7 172.8,291.7 173.0,291.7 173.2,291.7 173.4,291.7 173.5,291.7 173.7,291.7 173.9,291.7 174.1,291.7 174.3,291.7 174.5,291.7 174.7,291.7 174.9,291.7 175.0,291.7 175.2,291.7 175.4,291.7 175.6,291.7 175.8,291.7 176.0,291.7 176.2,291.7 176.4,291.7 176.5,291.7 176.7,291.7 176.9,291.7 177.1,291.7 177.3,291.7 177.5,291.7 177.7,291.7 177.8,281.7 178.0,281.7 178.2,281.7 178.4,281.7 178.6,281.7 178.8,281.7 179.0,281.7 179.2,281.7 179.3,281.7 179.5,281.7 179.7,281.7 179.9,281.7 180.1,281.7 180.3,281.7 180.5,281.7 180.7,281.7 180.8,281.7 181.0,281.7 181.2,281.7 181.4,281.7 181.6,281.7 181.8,281.7 182.0,281.7 182.1,281.7 182.3,281.7 182.5,281.7 182.7,281.7 182.9,281.7 183.1,281.7 183.3,281.7 183.5,281.7 183.6,281.7 183.8,281.7 184.0,281.7 184.2,281.7 184.4,281.7 184.6,286.6 184.8,286.6 185.0,286.6 185.1,286.6 185.3,286.6 185.5,286.6 185.7,286.6 185.9,286.6 186.1,286.6 186.3,286.6 186.4,286.6 186.6,286.6 186.8,286.6 187.0,286.6 187.2,286.6 187.4,286.6 187.6,281.7 187.8,281.7 187.9,281.7 188.1,281.7 188.3,281.7 188.5,281.7 188.7,281.7 188.9,281.7 189.1,281.7 189.3,281.7 189.4,281.7 189.6,281.7 189.8,281.7 190.0,281.7 190.2,281.7 190.4,281.7 190.6,281.7 190.7,281.7 190.9,281.7 191.1,281.7 191.3,281.7 191.5,281.7 191.7,281.7 191.9,281.7 192.1,281.7 192.2,281.7 192.4,281.7 192.6,281.7 192.8,281.7 193.0,281.7 193.2,277.0 193.4,277.0 193.6,277.0 193.7,277.0 193.9,277.0 194.1,277.0 194.3,277.0 194.5,277.0 194.7,277.0 194.9,277.0 195.0,277.0 195.2,277.0 195.4,277.0 195.6,277.0 195.8,277.0 196.0,277.0 196.2,277.0 196.4,277.0 196.5,277.0 196.7,277.0 196.9,277.0 197.1,277.0 197.3,277.0 197.5,277.0 197.7,277.0 197.9,277.0 198.0,277.0 198.2,277.0 198.4,277.0 198.6,277.0 198.8,277.0 199.0,277.0 199.2,277.0 199.3,277.0 199.5,277.0 199.7,277.0 199.9,277.0 200.1,277.0 200.3,277.0 200.5,277.0 200.7,277.0 200.8,277.0 201.0,277.0 201.2,277.0 201.4,277.0 201.6,277.0 201.8,277.0 202.0,277.0 202.2,277.0 202.3,277.0 202.5,277.0 202.7,277.0 202.9,277.0 203.1,277.0 203.3,277.0 203.5,277.0 203.6,277.0 203.8,277.0 204.0,277.0 204.2,277.0 204.4,277.0 204.6,277.0 204.8,277.0 205.0,277.0 205.1,277.0 205.3,277.0 205.5,277.0 205.7,277.0 205.9,277.0 206.1,277.0 206.3,277.0 206.5,277.0 206.6,277.0 206.8,277.0 207.0,277.0 207.2,277.0 207.4,276.5 207.6,276.5 207.8,276.5 208.0,276.5 208.1,276.5 208.3,276.5 208.5,276.5 208.7,276.5 208.9,276.5 209.1,276.5 209.3,276.5 209.4,276.5 209.6,276.5 209.8,276.5 210.0,276.5 210.2,276.5 210.4,276.5 210.6,276.5 210.8,276.5 210.9,276.5 211.1,276.5 211.3,276.5 211.5,276.5 211.7,276.5 211.9,276.5 212.1,276.5 212.3,276.5 212.4,276.5 212.6,276.5 212.8,276.5 213.0,276.5 213.2,276.5 213.4,276.5 213.6,276.5 213.7,276.5 213.9,274.7 214.1,272.4 214.3,272.4 214.5,272.4 214.7,272.4 214.9,272.4 215.1,272.4 215.2,272.4 215.4,272.4 215.6,272.4 215.8,272.4 216.0,272.4 216.2,272.4 216.4,272.4 216.6,272.4 216.7,272.4 216.9,272.4 217.1,272.4 217.3,272.4 217.5,272.4 217.7,272.4 217.9,272.4 218.0,272.4 218.2,272.4 218.4,272.4 218.6,272.4 218.8,272.4 219.0,272.4 219.2,272.4 219.4,272.4 219.5,272.4 219.7,272.4 219.9,272.4 220.1,272.4 220.3,272.4 220.5,272.4 220.7,272.4 220.9,272.4 221.0,272.4 221.2,272.4 221.4,272.4 221.6,272.4 221.8,272.4 222.0,272.4 222.2,272.4 222.3,272.4 222.5,272.4 222.7,272.4 222.9,272.4 223.1,272.4 223.3,272.4 223.5,272.4 223.7,272.4 223.8,272.4 224.0,272.4 224.2,272.4 224.4,272.4 224.6,272.4 224.8,272.4 225.0,272.4 225.2,272.4 225.3,272.4 225.5,272.4 225.7,272.4 225.9,272.4 226.1,272.4 226.3,272.4 226.5,272.4 226.6,272.4 226.8,272.4 227.0,272.4 227.2,272.4 227.4,271.5 227.6,271.5 227.8,271.5 228.0,271.5 228.1,271.5 228.3,271.5 228.5,271.5 228.7,271.5 228.9,271.5 229.1,271.5 229.3,271.5 229.5,271.5 229.6,271.5 229.8,271.5 230.0,271.5 230.2,271.5 230.4,271.5 230.6,271.5 230.8,271.5 230.9,271.5 231.1,271.5 231.3,271.5 231.5,271.5 231.7,271.5 231.9,271.5 232.1,271.5 232.3,271.5 232.4,271.5 232.6,271.5 232.8,271.5 233.0,271.5 233.2,271.5 233.4,271.5 233.6,271.5 233.8,271.5 233.9,271.5 234.1,271.5 234.3,271.5 234.5,271.5 234.7,271.5 234.9,271.5 235.1,271.5 235.2,271.5 235.4,270.1 235.6,270.1 235.8,270.1 236.0,270.1 236.2,270.1 236.4,270.1 236.6,270.1 236.7,270.1 236.9,270.1 237.1,270.1 237.3,270.1 237.5,270.1 237.7,270.1 237.9,270.1 238.1,270.1 238.2,270.1 238.4,270.1 238.6,270.1 238.8,270.1 239.0,270.1 239.2,270.1 239.4,270.1 239.6,270.1 239.7,270.1 239.9,270.1 240.1,271.5 240.3,271.5 240.5,271.5 240.7,271.5 240.9,271.5 241.0,271.5 241.2,271.5 241.4,271.5 241.6,271.5 241.8,271.5 242.0,271.5 242.2,271.5 242.4,271.5 242.5,271.5 242.7,271.5 242.9,271.5 243.1,271.5 243.3,271.5 243.5,271.5 243.7,271.5 243.9,271.5 244.0,270.1 244.2,270.1 244.4,270.1 244.6,270.1 244.8,270.1 245.0,270.1 245.2,270.1 245.3,270.1 245.5,270.1 245.7,270.1 245.9,270.1 246.1,270.1 246.3,270.1 246.5,270.1 246.7,270.1 246.8,270.1 247.0,270.1 247.2,270.1 247.4,270.1 247.6,270.1 247.8,270.1 248.0,270.1 248.2,270.1 248.3,270.1 248.5,270.1 248.7,270.1 248.9,270.1 249.1,270.1 249.3,270.1 249.5,270.1 249.6,270.1 249.8,270.1 250.0,270.1 250.2,270.1 250.4,270.1 250.6,270.1 250.8,270.1 251.0,270.1 251.1,270.1 251.3,270.1 251.5,270.1 251.7,270.1 251.9,270.1 252.1,270.1 252.3,270.1 252.5,270.1 252.6,270.1 252.8,270.1 253.0,270.1 253.2,270.1 253.4,270.1 253.6,270.1 253.8,263.7 253.9,263.7 254.1,263.7 254.3,263.7 254.5,263.7 254.7,263.7 254.9,263.7 255.1,263.7 255.3,263.7 255.4,263.7 255.6,263.7 255.8,263.7 256.0,263.7 256.2,263.7 256.4,263.7 256.6,263.7 256.8,263.7 256.9,263.7 257.1,263.7 257.3,263.7 257.5,263.7 257.7,263.7 257.9,263.7 258.1,263.7 258.2,263.7 258.4,263.7 258.6,263.7 258.8,263.7 259.0,263.7 259.2,263.7 259.4,263.7 259.6,263.7 259.7,263.7 259.9,263.7 260.1,263.7 260.3,263.7 260.5,263.7 260.7,263.7 260.9,257.5 261.1,257.5 261.2,257.5 261.4,257.5 261.6,257.5 261.8,257.5 262.0,257.5 262.2,257.5 262.4,257.5 262.5,257.5 262.7,257.5 262.9,257.5 263.1,257.5 263.3,257.5 263.5,257.5 263.7,257.5 263.9,257.5 264.0,257.5 264.2,257.5 264.4,257.5 264.6,257.5 264.8,257.5 265.0,257.5 265.2,257.5 265.4,257.5 265.5,257.5 265.7,257.5 265.9,257.5 266.1,257.5 266.3,257.5 266.5,257.5 266.7,257.5 266.8,257.5 267.0,257.5 267.2,257.5 267.4,257.5 267.6,257.5 267.8,257.5 268.0,257.5 268.2,257.5 268.3,257.5 268.5,257.5 268.7,257.5 268.9,257.5 269.1,257.5 269.3,257.5 269.5,274.7 269.7,274.7 269.8,274.7 270.0,274.7 270.2,274.7 270.4,274.7 270.6,270.1 270.8,270.1 271.0,270.1 271.1,270.1 271.3,270.1 271.5,270.1 271.7,270.1 271.9,270.1 272.1,270.1 272.3,270.1 272.5,272.4 272.6,272.4 272.8,272.4 273.0,272.4 273.2,272.4 273.4,272.4 273.6,272.4 273.8,272.4 274.0,272.4 274.1,272.4 274.3,272.4 274.5,272.4 274.7,272.4 274.9,272.4 275.1,272.4 275.3,272.4 275.5,272.4 275.6,272.4 275.8,272.4 276.0,272.4 276.2,272.4 276.4,272.4 276.6,272.4 276.8,272.4 276.9,272.4 277.1,272.4 277.3,272.4 277.5,270.6 277.7,272.4 277.9,272.4 278.1,272.4 278.3,272.4 278.4,272.4 278.6,272.4 278.8,272.4 279.0,272.4 279.2,286.6 279.4,286.6 279.6,286.6 279.8,286.6 279.9,286.6 280.1,286.6 280.3,279.8 280.5,279.8 280.7,279.8 280.9,279.8 281.1,279.8 281.2,279.8 281.4,279.8 281.6,279.8 281.8,279.8 282.0,279.8 282.2,279.8 282.4,279.8 282.6,279.8 282.7,279.8 282.9,279.8 283.1,279.8 283.3,279.8 283.5,279.8 283.7,279.8 283.9,279.8 284.1,279.8 284.2,279.8 284.4,279.8 284.6,279.8 284.8,279.8 285.0,279.8 285.2,279.8 285.4,279.8 285.5,279.8 285.7,279.8 285.9,279.8 286.1,279.8 286.3,279.8 286.5,279.8 286.7,279.8 286.9,279.8 287.0,279.8 287.2,279.8 287.4,279.8 287.6,279.8 287.8,279.8 288.0,279.8 288.2,279.8 288.4,279.8 288.5,279.8 288.7,279.8 288.9,279.8 289.1,279.8 289.3,279.8 289.5,279.8 289.7,279.8 289.8,279.8 290.0,279.8 290.2,279.8 290.4,279.8 290.6,279.8 290.8,279.8 291.0,279.8 291.2,279.8 291.3,279.8 291.5,279.8 291.7,279.8 291.9,279.8 292.1,279.8 292.3,279.8 292.5,279.8 292.7,279.8 292.8,279.8 293.0,279.8 293.2,279.8 293.4,279.8 293.6,279.8 293.8,279.8 294.0,279.8 294.1,279.8 294.3,279.8 294.5,279.8 294.7,279.8 294.9,279.8 295.1,279.8 295.3,279.8 295.5,279.8 295.6,279.8 295.8,279.8 296.0,279.8 296.2,279.8 296.4,279.8 296.6,279.8 296.8,279.8 297.0,279.8 297.1,279.8 297.3,279.8 297.5,279.8 297.7,279.8 297.9,273.4 298.1,273.4 298.3,273.4 298.4,273.4 298.6,273.4 298.8,273.4 299.0,273.4 299.2,273.4 299.4,273.4 299.6,273.4 299.8,273.4 299.9,273.4 300.1,273.4 300.3,273.4 300.5,273.4 300.7,273.4 300.9,273.4 301.1,281.7 301.3,281.7 301.4,281.7 301.6,281.7 301.8,281.7 302.0,281.7 302.2,281.7 302.4,281.7 302.6,281.7 302.7,281.7 302.9,281.7 303.1,281.7 303.3,281.7 303.5,281.7 303.7,286.6 303.9,286.6 304.1,286.6 304.2,286.6 304.4,286.6 304.6,286.6 304.8,286.6 305.0,286.6 305.2,286.6 305.4,286.6 305.6,286.6 305.7,286.6 305.9,286.6 306.1,284.1 306.3,284.1 306.5,284.1 306.7,284.1 306.9,284.1 307.0,284.1 307.2,284.1 307.4,284.1 307.6,284.1 307.8,284.1 308.0,284.1 308.2,284.1 308.4,284.1 308.5,284.1 308.7,284.1 308.9,284.1 309.1,284.1 309.3,284.1 309.5,284.1 309.7,284.1 309.9,284.1 310.0,284.1 310.2,284.1 310.4,284.1 310.6,284.1 310.8,284.1 311.0,284.1 311.2,284.1 311.4,284.1 311.5,284.1 311.7,284.1 311.9,284.1 312.1,284.1 312.3,284.1 312.5,284.1 312.7,284.1 312.8,286.6 313.0,286.6 313.2,286.6 313.4,286.6 313.6,286.6 313.8,286.6 314.0,286.6 314.2,286.6 314.3,286.6 314.5,286.6 314.7,286.6 314.9,286.6 315.1,286.6 315.3,286.5 315.5,286.5 315.7,288.1 315.8,288.1 316.0,289.2 316.2,289.2 316.4,289.2 316.6,294.4 316.8,294.4 317.0,294.4 317.1,294.4 317.3,294.4 317.5,294.4 317.7,294.4 317.9,294.4 318.1,294.4 318.3,294.4 318.5,294.4 318.6,294.4 318.8,294.4 319.0,294.4 319.2,294.4 319.4,294.4 319.6,294.4 319.8,294.4 320.0,294.4 320.1,294.4 320.3,294.4 320.5,294.4 320.7,294.4 320.9,294.4 321.1,294.4 321.3,297.1 321.4,299.8 321.6,299.8 321.8,299.8 322.0,299.8 322.2,299.8 322.4,300.9 322.6,300.9 322.8,305.4 322.9,305.4 323.1,305.4 323.3,317.5 323.5,317.5 323.7,317.5 323.9,317.5 324.1,300.9 324.3,300.9 324.4,300.9 324.6,299.8 324.8,299.8 325.0,299.8 325.2,299.8 325.4,299.8 325.6,299.8 325.7,289.2 325.9,289.2 326.1,289.2 326.3,289.2 326.5,289.2 326.7,289.2 326.9,289.2 327.1,289.2 327.2,289.2 327.4,289.2 327.6,289.2 327.8,289.2 328.0,289.2 328.2,289.2 328.4,289.2 328.6,289.2 328.7,289.2 328.9,289.2 329.1,289.2 329.3,289.2 329.5,289.2 329.7,289.2 329.9,289.2 330.0,289.2 330.2,289.2 330.4,289.2 330.6,289.2 330.8,289.2 331.0,289.2 331.2,289.2 331.4,289.2 331.5,289.2 331.7,289.2 331.9,289.2 332.1,289.2 332.3,289.2 332.5,289.2 332.7,281.7 332.9,281.7 333.0,281.7 333.2,281.7 333.4,281.7 333.6,281.7 333.8,281.7 334.0,281.7 334.2,281.7 334.3,281.7 334.5,281.7 334.7,281.7 334.9,299.8 335.1,299.8 335.3,315.7 335.5,315.7 335.7,307.2 335.8,307.2 336.0,307.2 336.2,307.2 336.4,307.2 336.6,307.2 336.8,307.2 337.0,307.2 337.2,307.2 337.3,307.2 337.5,307.2 337.7,307.2 337.9,307.2 338.1,307.2 338.3,307.2 338.5,307.2 338.6,307.2 338.8,307.2 339.0,307.2 339.2,307.2 339.4,307.2 339.6,307.2 339.8,307.2 340.0,307.2 340.1,307.2 340.3,307.2 340.5,307.2 340.7,307.2 340.9,307.2 341.1,307.2 341.3,307.2 341.5,308.4 341.6,308.4 341.8,308.4 342.0,308.4 342.2,308.4 342.4,307.8 342.6,307.8 342.8,307.8 342.9,307.8 343.1,307.8 343.3,311.4 343.5,311.4 343.7,311.4 343.9,311.4 344.1,311.4 344.3,311.4 344.4,311.4 344.6,311.4 344.8,311.4 345.0,311.4 345.2,311.4 345.4,311.4 345.6,311.4 345.8,311.4 345.9,311.4 346.1,311.4 346.3,311.4 346.5,311.4 346.7,311.4 346.9,311.4 347.1,311.4 347.2,311.4 347.4,311.4 347.6,311.4 347.8,311.4 348.0,311.4 348.2,311.4 348.4,294.4 348.6,294.4 348.7,294.4 348.9,294.4 349.1,294.4 349.3,294.4 349.5,294.4 349.7,294.4 349.9,294.4 350.1,294.4 350.2,294.4 350.4,294.4 350.6,294.4 350.8,294.4 351.0,302.6 351.2,302.6 351.4,302.6 351.6,302.6 351.7,302.6 351.9,302.6 352.1,302.6 352.3,302.6 352.5,302.6 352.7,302.6 352.9,302.6 353.0,302.6 353.2,302.6 353.4,302.6 353.6,302.6 353.8,302.6 354.0,302.6 354.2,302.6 354.4,302.6 354.5,302.6 354.7,302.6 354.9,302.6 355.1,302.6 355.3,302.6 355.5,302.6 355.7,302.6 355.9,302.6 356.0,302.6 356.2,302.6 356.4,302.6 356.6,302.6 356.8,302.6 357.0,302.6 357.2,302.6 357.3,302.6 357.5,302.6 357.7,302.6 357.9,302.6 358.1,302.6 358.3,302.6 358.5,302.6 358.7,302.6 358.8,302.6 359.0,302.6 359.2,302.6 359.4,302.6 359.6,302.6 359.8,302.6 360.0,302.6 360.2,302.6 360.3,302.6 360.5,302.6 360.7,302.6 360.9,302.6 361.1,302.6 361.3,302.6 361.5,302.6 361.6,302.6 361.8,302.6 362.0,302.6 362.2,302.6 362.4,302.6 362.6,302.6 362.8,302.6 363.0,302.6 363.1,302.6 363.3,302.6 363.5,302.6 363.7,302.6 363.9,302.6 364.1,302.6 364.3,302.6 364.5,313.8 364.6,313.8 364.8,313.8 365.0,313.8 365.2,313.8 365.4,313.8 365.6,313.8 365.8,312.1 365.9,311.4 366.1,311.4 366.3,311.4 366.5,311.4 366.7,311.4 366.9,311.4 367.1,311.4 367.3,311.4 367.4,311.4 367.6,311.4 367.8,311.4 368.0,311.4 368.2,311.4 368.4,311.4 368.6,311.4 368.8,311.4 368.9,311.4 369.1,311.4 369.3,311.4 369.5,311.4 369.7,311.4 369.9,311.4 370.1,311.4 370.2,311.4 370.4,311.4 370.6,311.4 370.8,311.4 371.0,311.4 371.2,311.4 371.4,311.4 371.6,311.4 371.7,311.4 371.9,311.4 372.1,311.4 372.3,311.4 372.5,311.4 372.7,311.4 372.9,311.4 373.1,311.4 373.2,311.4 373.4,311.4 373.6,311.4 373.8,311.4 374.0,311.4 374.2,311.4 374.4,311.4 374.5,311.4 374.7,311.4 374.9,311.4 375.1,311.4 375.3,311.4 375.5,311.4 375.7,311.4 375.9,311.4 376.0,311.4 376.2,311.4 376.4,311.4 376.6,311.4 376.8,311.4 377.0,311.4 377.2,311.4 377.4,311.4 377.5,311.4 377.7,311.4 377.9,311.4 378.1,311.4 378.3,311.4 378.5,311.4 378.7,311.4 378.8,311.4 379.0,311.4 379.2,311.4 379.4,311.4 379.6,302.6 379.8,302.6 380.0,302.6 380.2,294.4 380.3,294.4 380.5,294.4 380.7,294.4 380.9,294.4 381.1,294.4 381.3,294.4 381.5,294.4 381.7,294.4 381.8,294.4 382.0,294.4 382.2,294.4 382.4,294.4 382.6,294.4 382.8,294.4 383.0,294.4 383.1,311.4 383.3,311.4 383.5,311.4 383.7,311.4 383.9,311.4 384.1,311.4 384.3,311.4 384.5,311.4 384.6,311.4 384.8,311.4 385.0,311.4 385.2,311.4 385.4,311.4 385.6,311.4 385.8,311.4 386.0,311.4 386.1,311.4 386.3,311.4 386.5,311.4 386.7,311.4 386.9,311.4 387.1,311.4 387.3,311.4 387.5,311.4 387.6,311.4 387.8,311.4 388.0,311.4 388.2,311.4 388.4,311.4 388.6,311.4 388.8,311.4 388.9,317.5 389.1,317.5 389.3,317.5 389.5,317.5 389.7,317.5 389.9,317.5 390.1,317.5 390.3,317.5 390.4,317.5 390.6,317.5 390.8,317.5 391.0,317.5 391.2,317.5 391.4,317.5 391.6,317.5 391.8,317.5 391.9,317.5 392.1,317.5 392.3,317.5 392.5,317.5 392.7,317.5 392.9,317.5 393.1,317.5 393.2,294.4 393.4,289.2 393.6,289.2 393.8,289.2 394.0,289.2 394.2,289.2 394.4,289.2 394.6,289.2 394.7,289.2 394.9,289.2 395.1,289.2 395.3,289.2 395.5,289.2 395.7,289.2 395.9,289.2 396.1,289.2 396.2,289.2 396.4,289.2 396.6,289.2 396.8,289.2 397.0,289.2 397.2,289.2 397.4,289.2 397.5,289.2 397.7,289.2 397.9,289.2 398.1,289.2 398.3,289.2 398.5,289.2 398.7,289.2 398.9,289.2 399.0,289.2 399.2,289.2 399.4,289.2 399.6,289.2 399.8,289.2 400.0,289.2 400.2,289.2 400.4,289.2 400.5,289.2 400.7,289.2 400.9,289.2 401.1,289.2 401.3,294.4 401.5,294.4 401.7,294.4 401.8,294.4 402.0,294.4 402.2,294.4 402.4,294.4 402.6,294.4 402.8,294.4 403.0,294.4 403.2,294.4 403.3,294.4 403.5,294.4 403.7,294.4 403.9,267.6 404.1,267.6 404.3,267.6 404.5,267.6 404.7,267.6 404.8,267.6 405.0,267.6 405.2,294.4 405.4,294.4 405.6,294.4 405.8,294.4 406.0,294.4 406.1,294.4 406.3,294.4 406.5,294.4 406.7,294.4 406.9,294.4 407.1,294.4 407.3,294.4 407.5,286.2 407.6,286.2 407.8,286.2 408.0,286.2 408.2,286.2 408.4,282.1 408.6,282.1 408.8,282.1 409.0,282.1 409.1,282.1 409.3,282.1 409.5,282.1 409.7,282.1 409.9,282.1 410.1,282.1 410.3,277.1 410.4,277.1 410.6,277.1 410.8,277.1 411.0,277.1 411.2,277.1 411.4,277.1 411.6,277.1 411.8,277.1 411.9,277.1 412.1,277.1 412.3,277.1 412.5,277.1 412.7,277.1 412.9,277.1 413.1,277.1 413.3,277.1 413.4,277.1 413.6,277.1 413.8,277.1 414.0,277.1 414.2,277.1 414.4,277.1 414.6,277.1 414.7,277.1 414.9,277.1 415.1,277.1 415.3,277.1 415.5,277.1 415.7,277.1 415.9,277.1 416.1,277.1 416.2,277.1 416.4,277.1 416.6,277.1 416.8,265.8 417.0,277.1 417.2,277.1 417.4,277.1 417.6,277.1 417.7,277.1 417.9,277.1 418.1,265.8 418.3,265.8 418.5,265.8 418.7,265.8 418.9,265.8 419.1,265.8 419.2,265.8 419.4,265.8 419.6,265.8 419.8,265.8 420.0,265.8 420.2,265.8 420.4,265.8 420.5,265.8 420.7,265.8 420.9,265.8 421.1,265.8 421.3,265.8 421.5,265.8 421.7,265.8 421.9,265.8 422.0,265.8 422.2,263.1 422.4,263.1 422.6,263.1 422.8,263.1 423.0,263.1 423.2,263.1 423.4,263.1 423.5,263.1 423.7,263.1 423.9,263.1 424.1,263.1 424.3,263.1 424.5,263.1 424.7,263.1 424.8,263.1 425.0,263.1 425.2,263.1 425.4,293.6 425.6,293.6 425.8,293.6 426.0,293.6 426.2,293.6 426.3,293.6 426.5,293.6 426.7,293.6 426.9,293.6 427.1,293.6 427.3,293.6 427.5,293.6 427.7,293.6 427.8,290.7 428.0,266.9 428.2,266.9 428.4,262.2 428.6,266.9 428.8,258.6 429.0,258.6 429.1,254.5 429.3,254.5 429.5,254.5 429.7,254.5 429.9,254.5 430.1,254.5 430.3,254.5 430.5,254.5 430.6,254.5 430.8,254.5 431.0,254.5 431.2,254.5 431.4,254.5 431.6,254.5 431.8,254.5 432.0,254.5 432.1,254.5 432.3,254.5 432.5,254.5 432.7,254.5 432.9,254.5 433.1,254.5 433.3,254.5 433.4,254.5 433.6,254.5 433.8,254.5 434.0,254.5 434.2,254.5 434.4,254.5 434.6,254.5 434.8,254.5 434.9,254.5 435.1,251.9 435.3,251.9 435.5,251.9 435.7,251.9 435.9,251.9 436.1,251.9 436.3,251.9 436.4,251.9 436.6,251.9 436.8,251.9 437.0,251.9 437.2,251.9 437.4,251.9 437.6,251.9 437.7,251.9 437.9,251.9 438.1,251.9 438.3,251.9 438.5,251.9 438.7,251.9 438.9,251.9 439.1,251.9 439.2,266.9 439.4,266.9 439.6,266.9 439.8,266.9 440.0,266.9 440.2,266.9 440.4,266.9 440.6,266.9 440.7,266.9 440.9,266.9 441.1,266.9 441.3,266.9 441.5,266.9 441.7,266.9 441.9,266.9 442.0,266.9 442.2,266.9 442.4,266.9 442.6,266.9 442.8,266.9 443.0,266.9 443.2,266.9 443.4,266.9 443.5,266.9 443.7,266.9 443.9,287.8 444.1,287.8 444.3,287.8 444.5,287.8 444.7,287.8 444.9,287.8 445.0,287.8 445.2,287.8 445.4,287.8 445.6,287.8 445.8,287.8 446.0,287.8 446.2,287.8 446.3,287.8 446.5,287.8 446.7,287.8 446.9,287.8 447.1,287.8 447.3,287.8 447.5,287.8 447.7,287.8 447.8,287.8 448.0,262.2 448.2,256.7 448.4,256.7 448.6,256.7 448.8,256.7 449.0,256.7 449.2,256.7 449.3,256.7 449.5,256.7 449.7,256.7 449.9,256.7 450.1,256.7 450.3,273.1 450.5,273.1 450.6,273.1 450.8,273.1 451.0,273.1 451.2,273.1 451.4,273.1 451.6,273.1 451.8,273.1 452.0,258.6 452.1,258.6 452.3,258.6 452.5,258.6 452.7,256.2 452.9,256.2 453.1,256.2 453.3,256.2 453.5,256.2 453.6,256.2 453.8,256.2 454.0,255.3 454.2,255.3 454.4,243.1 454.6,243.1 454.8,243.1 454.9,243.1 455.1,243.1 455.3,243.1 455.5,260.0 455.7,260.0 455.9,260.0 456.1,260.0 456.3,260.0 456.4,260.0 456.6,260.0 456.8,260.0 457.0,260.0 457.2,260.0 457.4,260.0 457.6,260.0 457.8,260.0 457.9,260.0 458.1,260.0 458.3,260.0 458.5,260.0 458.7,260.0 458.9,260.0 459.1,260.0 459.3,260.0 459.4,260.0 459.6,260.0 459.8,260.0 460.0,260.0 460.2,260.0 460.4,260.0 460.6,260.0 460.7,260.0 460.9,260.0 461.1,260.0 461.3,260.0 461.5,260.0 461.7,260.0 461.9,260.0 462.1,260.0 462.2,260.0 462.4,260.0 462.6,260.0 462.8,260.0 463.0,260.0 463.2,260.0 463.4,260.0 463.6,260.0 463.7,258.6 463.9,258.6 464.1,258.6 464.3,258.6 464.5,258.6 464.7,258.6 464.9,258.6 465.0,258.6 465.2,258.6 465.4,258.6 465.6,258.6 465.8,258.6 466.0,258.6 466.2,258.6 466.4,256.2 466.5,256.2 466.7,256.2 466.9,256.2 467.1,259.5 467.3,259.5 467.5,259.5 467.7,263.4 467.9,259.1 468.0,259.1 468.2,259.1 468.4,261.0 468.6,261.0 468.8,261.0 469.0,261.0 469.2,261.0 469.3,261.0 469.5,261.0 469.7,261.0 469.9,261.0 470.1,261.0 470.3,261.0 470.5,272.6 470.7,272.6 470.8,261.0 471.0,266.7 471.2,266.7 471.4,266.7 471.6,266.7 471.8,266.7 472.0,261.0 472.2,258.8 472.3,258.8 472.5,258.8 472.7,274.1 472.9,274.1 473.1,274.1 473.3,274.1 473.5,274.1 473.6,274.1 473.8,254.9 474.0,254.9 474.2,254.9 474.4,254.9 474.6,254.9 474.8,254.9 475.0,254.9 475.1,254.9 475.3,254.9 475.5,258.8 475.7,258.8 475.9,257.4 476.1,257.4 476.3,257.4 476.5,257.4 476.6,257.4 476.8,257.4 477.0,257.4 477.2,257.4 477.4,257.4 477.6,257.4 477.8,257.4 477.9,257.4 478.1,254.9 478.3,254.9 478.5,254.9 478.7,254.9 478.9,254.9 479.1,254.9 479.3,254.9 479.4,254.9 479.6,254.9 479.8,254.9 480.0,254.9 480.2,254.9 480.4,254.9 480.6,254.9 480.8,254.9 480.9,254.9 481.1,254.9 481.3,254.9 481.5,254.9 481.7,250.2 481.9,250.2 482.1,250.2 482.2,250.2 482.4,250.2 482.6,250.2 482.8,250.2 483.0,250.2 483.2,250.2 483.4,250.2 483.6,243.4 483.7,243.4 483.9,243.4 484.1,243.4 484.3,243.4 484.5,243.4 484.7,243.4 484.9,243.4 485.1,243.4 485.2,243.4 485.4,243.4 485.6,243.4 485.8,243.4 486.0,243.4 486.2,243.4 486.4,243.4 486.5,243.4 486.7,243.4 486.9,243.4 487.1,243.4 487.3,243.4 487.5,243.4 487.7,254.0 487.9,254.0 488.0,254.0 488.2,254.0 488.4,254.0 488.6,245.0 488.8,254.0 489.0,245.2 489.2,244.7 489.4,243.4 489.5,243.4 489.7,243.4 489.9,243.4 490.1,243.4 490.3,243.4 490.5,249.2 490.7,240.3 490.8,240.3 491.0,243.4 491.2,243.4 491.4,239.0 491.6,239.0 491.8,243.4 492.0,243.4 492.2,243.4 492.3,244.3 492.5,244.3 492.7,244.3 492.9,239.0 493.1,239.0 493.3,239.0 493.5,239.0 493.7,226.7 493.8,234.8 494.0,228.7 494.2,228.7 494.4,234.8 494.6,234.8 494.8,234.8 495.0,234.8 495.2,234.8 495.3,275.4 495.5,227.3 495.7,227.3 495.9,229.1 496.1,229.1 496.3,229.1 496.5,229.1 496.6,229.1 496.8,229.0 497.0,229.0 497.2,234.6 497.4,234.9 497.6,231.1 497.8,235.4 498.0,235.4 498.1,235.4 498.3,235.4 498.5,235.4 498.7,235.4 498.9,231.1 499.1,231.1 499.3,235.4 499.5,235.4 499.6,231.1 499.8,226.9 500.0,226.9 500.2,226.9 500.4,226.9 500.6,212.0 500.8,212.0 500.9,211.9 501.1,197.2 501.3,167.3 501.5,181.6 501.7,181.6 501.9,181.6 502.1,181.6 502.3,181.6 502.4,181.6 502.6,174.4 502.8,174.4 503.0,189.2 503.2,189.2 503.4,189.2 503.6,189.2 503.8,189.2 503.9,189.2 504.1,189.2 504.3,188.8 504.5,188.8 504.7,188.8 504.9,188.5 505.1,181.6 505.2,178.6 505.4,178.6 505.6,178.6 505.8,178.6 506.0,178.6 506.2,188.5 506.4,188.5 506.6,188.5 506.7,175.8 506.9,181.3 507.1,181.3 507.3,181.3 507.5,181.3 507.7,181.3 507.9,181.3 508.1,181.3 508.2,181.3 508.4,181.3 508.6,181.3 508.8,174.4 509.0,181.3 509.2,181.3 509.4,181.3 509.5,181.3 509.7,188.8 509.9,188.8 510.1,188.6 510.3,187.6 510.5,183.0 510.7,183.0 510.9,183.0 511.0,188.2 511.2,188.2 511.4,188.2 511.6,188.2 511.8,184.5 512.0,187.6 512.2,187.6 512.4,181.6 512.5,181.6 512.7,181.6 512.9,181.6 513.1,181.3 513.3,173.0 513.5,173.0 513.7,173.0 513.8,173.0 514.0,173.0 514.2,173.0 514.4,168.9 514.6,167.6 514.8,167.6 515.0,167.6 515.2,167.6 515.3,167.6 515.5,167.6 515.7,175.8 515.9,175.8 516.1,175.8 516.3,178.3 516.5,178.3 516.7,178.3 516.8,167.6 517.0,167.6 517.2,167.6 517.4,167.6 517.6,167.6 517.8,167.6 518.0,167.6 518.1,167.6 518.3,145.6 518.5,143.3 518.7,143.3 518.9,178.1 519.1,178.1 519.3,173.8 519.5,174.4 519.6,174.4 519.8,174.4 520.0,174.4 520.2,168.7 520.4,168.5 520.6,163.6 520.8,163.6 521.0,163.3 521.1,163.3 521.3,163.3 521.5,163.3 521.7,172.1 521.9,172.1 522.1,164.7 522.3,164.7 522.4,141.6 522.6,141.6 522.8,171.4 523.0,171.4 523.2,171.4 523.4,171.4 523.6,171.4 523.8,171.4 523.9,171.4 524.1,171.4 524.3,171.4 524.5,171.4 524.7,171.4 524.9,171.4 525.1,171.4 525.3,171.4 525.4,171.4 525.6,171.4 525.8,171.4 526.0,171.4 526.2,163.1 526.4,163.1 526.6,163.1 526.8,163.3 526.9,163.3 527.1,169.3 527.3,169.3 527.5,169.3 527.7,169.3 527.9,169.3 528.1,169.3 528.2,169.3 528.4,169.3 528.6,169.3 528.8,169.3 529.0,156.8 529.2,156.8 529.4,156.8 529.6,156.8 529.7,156.8 529.9,156.8 530.1,168.7 530.3,168.7 530.5,150.9 530.7,150.9 530.9,150.9 531.1,150.9 531.2,150.9 531.4,150.7 531.6,150.7 531.8,156.8 532.0,163.3 532.2,163.3 532.4,163.3 532.5,163.3 532.7,156.8 532.9,156.8 533.1,156.8 533.3,156.8 533.5,156.8 533.7,156.8 533.9,156.8 534.0,156.8 534.2,156.8 534.4,156.8 534.6,156.8 534.8,160.6 535.0,160.6 535.2,160.6 535.4,160.6 535.5,160.6 535.7,161.2 535.9,161.2 536.1,161.2 536.3,151.9 536.5,151.9 536.7,151.9 536.8,151.9 537.0,150.7 537.2,150.7 537.4,150.7 537.6,150.7 537.8,150.7 538.0,150.7 538.2,150.7 538.3,150.7 538.5,150.7 538.7,150.7 538.9,150.7 539.1,150.7 539.3,150.7 539.5,150.7 539.7,153.1 539.8,153.1 540.0,153.1 540.2,153.1 540.4,153.1 540.6,153.1 540.8,153.1 541.0,153.1 541.1,153.1 541.3,150.7 541.5,143.8 541.7,143.8 541.9,143.8 542.1,143.8 542.3,140.4 542.5,140.4 542.6,140.4 542.8,140.4 543.0,140.4 543.2,140.4 543.4,140.4 543.6,140.4 543.8,140.4 544.0,140.4 544.1,149.7 544.3,149.7 544.5,149.7 544.7,140.4 544.9,140.4 545.1,140.4 545.3,140.4 545.4,140.4 545.6,140.4 545.8,138.7 546.0,138.7 546.2,138.6 546.4,144.9 546.6,150.9 546.8,150.9 546.9,152.2 547.1,163.7 547.3,146.3 547.5,153.4 547.7,150.9 547.9,150.9 548.1,149.7 548.3,149.7 548.4,149.7 548.6,149.7 548.8,149.7 549.0,149.7 549.2,149.7 549.4,149.6 549.6,149.6 549.7,146.3 549.9,146.3 550.1,157.3 550.3,147.3 550.5,146.3 550.7,146.3 550.9,147.3 551.1,146.3 551.2,146.3 551.4,146.3 551.6,146.3 551.8,146.3 552.0,165.3 552.2,165.3 552.4,165.3 552.6,165.3 552.7,165.3 552.9,158.6 553.1,154.7 553.3,154.7 553.5,154.7 553.7,154.7 553.9,154.7 554.0,154.7 554.2,154.7 554.4,154.7 554.6,154.7 554.8,154.7 555.0,154.7 555.2,154.7 555.4,154.7 555.5,154.7 555.7,149.4 555.9,149.4 556.1,149.4 556.3,149.4 556.5,149.4 556.7,149.4 556.9,149.4 557.0,149.4 557.2,158.3 557.4,158.1 557.6,158.1 557.8,158.1 558.0,158.1 558.2,157.8 558.3,157.8 558.5,149.6 558.7,149.6 558.9,149.6 559.1,149.6 559.3,149.6 559.5,149.6 559.7,149.6 559.8,153.4 560.0,153.4 560.2,153.4 560.4,142.3 560.6,142.3 560.8,156.0 561.0,156.0 561.2,156.0 561.3,156.0 561.5,157.8 561.7,157.8 561.9,157.8 562.1,150.4 562.3,149.7 562.5,147.3 562.7,147.3 562.8,149.6 563.0,149.6 563.2,153.4 563.4,153.4 563.6,153.4 563.8,153.4 564.0,144.9 564.1,144.9 564.3,145.0 564.5,145.0 564.7,153.4 564.9,153.4 565.1,157.8 565.3,149.3 565.5,149.3 565.6,149.3 565.8,144.9 566.0,156.3 566.2,155.7 566.4,151.8 566.6,155.9 566.8,155.9 567.0,155.9 567.1,154.4 567.3,154.4 567.5,154.4 567.7,154.4 567.9,154.4 568.1,155.2 568.3,155.2 568.4,154.4 568.6,154.4 568.8,154.4 569.0,145.5 569.2,145.5 569.4,144.3 569.6,144.3 569.8,144.5 569.9,144.3 570.1,144.3 570.3,144.3 570.5,143.3 570.7,143.3 570.9,143.3 571.1,143.3 571.3,143.3 571.4,143.3 571.6,143.3 571.8,143.3 572.0,143.3 572.2,143.3 572.4,143.3 572.6,143.3 572.7,143.3 572.9,143.3 573.1,143.3 573.3,143.3 573.5,143.3 573.7,143.3 573.9,143.3 574.1,143.3 574.2,143.3 574.4,143.3 574.6,143.3 574.8,143.3 575.0,143.3 575.2,143.3 575.4,143.3 575.6,143.3 575.7,185.4 575.9,185.4 576.1,185.4 576.3,185.4 576.5,185.4 576.7,185.4 576.9,185.4 577.0,185.4 577.2,185.4 577.4,185.4 577.6,185.4 577.8,185.4 578.0,185.4 578.2,185.4 578.4,185.4 578.5,185.4 578.7,185.4 578.9,185.4 579.1,185.4 579.3,185.4 579.5,185.4 579.7,185.4 579.9,185.4 580.0,185.4 580.2,185.4 580.4,185.4 580.6,185.4 580.8,185.4 581.0,185.4 581.2,185.4 581.3,185.4 581.5,185.4 581.7,155.8 581.9,155.8 582.1,155.8 582.3,155.8 582.5,155.8 582.7,155.8 582.8,155.8 583.0,155.8 583.2,155.8 583.4,155.8 583.6,149.3 583.8,149.3 584.0,149.3 584.2,149.3 584.3,149.3 584.5,149.3 584.7,149.3 584.9,149.3 585.1,149.3 585.3,149.3 585.5,149.3 585.6,149.3 585.8,149.3 586.0,149.3 586.2,149.3 586.4,149.3 586.6,149.3 586.8,149.3 587.0,149.3 587.1,149.3 587.3,149.3 587.5,149.3 587.7,149.3 587.9,149.3 588.1,149.3 588.3,149.3 588.5,149.3 588.6,149.3 588.8,149.3 589.0,149.3 589.2,149.3 589.4,149.3 589.6,144.6 589.8,144.6 589.9,144.6 590.1,144.6 590.3,144.6 590.5,144.6 590.7,144.6 590.9,144.6 591.1,144.6 591.3,144.6 591.4,144.6 591.6,144.6 591.8,144.6 592.0,144.6 592.2,144.6 592.4,144.6 592.6,144.6 592.8,144.6 592.9,144.6 593.1,144.6 593.3,144.6 593.5,144.6 593.7,144.6 593.9,144.6 594.1,144.6 594.2,144.6 594.4,144.6 594.6,144.6 594.8,144.6 595.0,144.6 595.2,144.6 595.4,144.6 595.6,144.6 595.7,144.6 595.9,144.6 596.1,144.8 596.3,144.8 596.5,144.8 596.7,144.8 596.9,144.8 597.1,144.8 597.2,144.8 597.4,144.8 597.6,144.8 597.8,144.8 598.0,144.8 598.2,144.8 598.4,144.8 598.5,144.8 598.7,144.8 598.9,144.8 599.1,144.8 599.3,144.8 599.5,144.8 599.7,144.8 599.9,144.8 600.0,144.8 600.2,144.8 600.4,144.8 600.6,144.8 600.8,144.8 601.0,144.8 601.2,143.1 601.4,143.1 601.5,143.1 601.7,143.1 601.9,143.1 602.1,143.1 602.3,143.1 602.5,143.1 602.7,143.1 602.9,143.1 603.0,143.1 603.2,143.1 603.4,143.1 603.6,143.1 603.8,143.1 604.0,143.1 604.2,143.1 604.3,143.1 604.5,143.4 604.7,143.4 604.9,143.4 605.1,143.4 605.3,143.4 605.5,143.4 605.7,144.6 605.8,144.6 606.0,144.6 606.2,146.9 606.4,144.6 606.6,144.6 606.8,144.6 607.0,144.6 607.2,144.6 607.3,144.6 607.5,144.6 607.7,144.6 607.9,144.6 608.1,144.6 608.3,144.6 608.5,144.6 608.6,144.6 608.8,144.6 609.0,144.6 609.2,144.6 609.4,144.6 609.6,144.6 609.8,144.6 610.0,144.6 610.1,144.6 610.3,144.6 610.5,144.6 610.7,144.6 610.9,144.6 611.1,144.6 611.3,144.6 611.5,144.6 611.6,144.6 611.8,144.6 612.0,144.6 612.2,144.6 612.4,144.6 612.6,144.6 612.8,144.6 612.9,144.6 613.1,144.6 613.3,144.6 613.5,139.8 613.7,139.8 613.9,139.8 614.1,131.2 614.3,131.2 614.4,131.2 614.6,131.2 614.8,131.2 615.0,131.2 615.2,131.2 615.4,131.2 615.6,131.2 615.8,131.2 615.9,128.8 616.1,128.8 616.3,128.8 616.5,128.8 616.7,128.8 616.9,128.8 617.1,128.8 617.2,128.8 617.4,128.8 617.6,128.8 617.8,128.8 618.0,128.8 618.2,128.8 618.4,128.8 618.6,128.8 618.7,128.8 618.9,128.8 619.1,128.8 619.3,128.8 619.5,128.8 619.7,128.8 619.9,128.8 620.1,128.8 620.2,126.5 620.4,126.5 620.6,126.5 620.8,126.5 621.0,126.5 621.2,126.5 621.4,126.5 621.5,126.5 621.7,126.5 621.9,126.5 622.1,126.5 622.3,126.5 622.5,126.5 622.7,126.5 622.9,126.5 623.0,126.5 623.2,126.5 623.4,126.5 623.6,126.5 623.8,126.5 624.0,126.5 624.2,126.5 624.4,126.5 624.5,126.5 624.7,126.5 624.9,126.5 625.1,126.5 625.3,126.5 625.5,126.5 625.7,126.5 625.8,122.0 626.0,122.0 626.2,122.0 626.4,122.0 626.6,122.0 626.8,122.0 627.0,126.5 627.2,126.5 627.3,126.5 627.5,126.5 627.7,126.5 627.9,126.5 628.1,126.5 628.3,126.5 628.5,126.5 628.7,126.5 628.8,126.5 629.0,126.5 629.2,126.5 629.4,126.5 629.6,126.5 629.8,126.5 630.0,126.5 630.1,126.5 630.3,126.5 630.5,126.5 630.7,126.5 630.9,126.5 631.1,126.5 631.3,126.5 631.5,126.5 631.6,126.5 631.8,126.5 632.0,123.1 632.2,123.1 632.4,123.1 632.6,123.1 632.8,123.1 633.0,123.1 633.1,123.1 633.3,123.1 633.5,123.1 633.7,124.3 633.9,124.3 634.1,124.3 634.3,124.3 634.5,124.3 634.6,124.3 634.8,124.3 635.0,124.3 635.2,124.3 635.4,124.3 635.6,124.3 635.8,124.3 635.9,124.3 636.1,124.3 636.3,124.3 636.5,120.3 636.7,120.3 636.9,120.3 637.1,120.3 637.3,120.3 637.4,120.3 637.6,120.3 637.8,120.3 638.0,120.3 638.2,120.3 638.4,120.3 638.6,120.0 638.8,120.3 638.9,120.3 639.1,120.3 639.3,120.3 639.5,120.3 639.7,120.3 639.9,120.3 640.1,120.3 640.2,112.6 640.4,112.6 640.6,112.6 640.8,112.6 641.0,112.6 641.2,112.6 641.4,112.6 641.6,112.6 641.7,112.6 641.9,112.6 642.1,112.6 642.3,112.6 642.5,112.6 642.7,112.6 642.9,112.6 643.1,112.6 643.2,112.6 643.4,112.6 643.6,112.6 643.8,112.6 644.0,112.6 644.2,112.6 644.4,112.6 644.5,112.6 644.7,112.6 644.9,112.6 645.1,120.3 645.3,120.3 645.5,120.3 645.7,120.3 645.9,120.3 646.0,120.3 646.2,120.3 646.4,120.3 646.6,120.3 646.8,120.3 647.0,120.3 647.2,120.3 647.4,120.3 647.5,120.3 647.7,120.3 647.9,120.3 648.1,120.3 648.3,120.3 648.5,120.3 648.7,120.3 648.8,120.3 649.0,120.3 649.2,120.3 649.4,120.3 649.6,120.3 649.8,120.3 650.0,120.3 650.2,120.3 650.3,120.3 650.5,120.3 650.7,120.3 650.9,120.3 651.1,120.3 651.3,120.3 651.5,120.3 651.7,120.3 651.8,120.3 652.0,120.3 652.2,120.3 652.4,120.3 652.6,120.3 652.8,120.3 653.0,120.3 653.1,126.5 653.3,126.5 653.5,127.2 653.7,127.2 653.9,127.2 654.1,127.2 654.3,127.2 654.5,127.2 654.6,127.2 654.8,123.7 655.0,123.7 655.2,123.7 655.4,123.7 655.6,124.9 655.8,124.9 656.0,124.9 656.1,124.9 656.3,124.9 656.5,124.9 656.7,124.9 656.9,124.9 657.1,124.9 657.3,124.9 657.4,124.9 657.6,124.9 657.8,124.9 658.0,124.9 658.2,124.9 658.4,124.9 658.6,124.9 658.8,124.9 658.9,124.9 659.1,124.9 659.3,124.9 659.5,124.9 659.7,124.9 659.9,124.9 660.1,124.9 660.3,124.9 660.4,120.6 660.6,120.6 660.8,120.6 661.0,120.6 661.2,120.6 661.4,120.6 661.6,120.6 661.7,120.6 661.9,120.3 662.1,120.3 662.3,120.3 662.5,120.3 662.7,120.3 662.9,120.3 663.1,120.3 663.2,120.3 663.4,120.3 663.6,120.3 663.8,120.3 664.0,120.3 664.2,120.3 664.4,120.3 664.6,120.3 664.7,120.3 664.9,120.3 665.1,120.3 665.3,118.3 665.5,118.3 665.7,118.3 665.9,118.3 666.0,118.3 666.2,118.3 666.4,120.3 666.6,120.3 666.8,120.3 667.0,120.3 667.2,120.3 667.4,120.3 667.5,120.3 667.7,120.3 667.9,120.3 668.1,120.3 668.3,120.3 668.5,120.3 668.7,120.3 668.9,120.3 669.0,120.3 669.2,120.3 669.4,120.3 669.6,120.3 669.8,120.3 670.0,120.3 670.2,120.3 670.4,120.3 670.5,120.3 670.7,120.3 670.9,120.3 671.1,120.3 671.3,120.3 671.5,120.3 671.7,120.3 671.8,120.3 672.0,120.3 672.2,120.3 672.4,120.3 672.6,120.3 672.8,120.3 673.0,119.2 673.2,119.2 673.3,119.2 673.5,119.2 673.7,119.2 673.9,119.2 674.1,119.2 674.3,120.6 674.5,120.6 674.7,119.9 674.8,119.9 675.0,119.9 675.2,119.9 675.4,119.9 675.6,119.9 675.8,119.9 676.0,119.9 676.1,119.9 676.3,119.9 676.5,119.9 676.7,119.9 676.9,119.9 677.1,119.9 677.3,119.9 677.5,119.9 677.6,119.9 677.8,119.9 678.0,119.9 678.2,119.9 678.4,119.9 678.6,119.9 678.8,119.9 679.0,119.9 679.1,119.9 679.3,119.9 679.5,119.9 679.7,119.9 679.9,119.9 680.1,119.9 680.3,119.9 680.4,119.9 680.6,119.9 680.8,119.9 681.0,119.9 681.2,119.9 681.4,111.6 681.6,111.6 681.8,111.6 681.9,111.6 682.1,111.6 682.3,111.6 682.5,111.6 682.7,111.6 682.9,111.6 683.1,111.6 683.3,111.6 683.4,111.6 683.6,107.6 683.8,107.6 684.0,107.6 684.2,107.6 684.4,107.6 684.6,107.6 684.7,107.6 684.9,107.6 685.1,107.6 685.3,107.6 685.5,107.6 685.7,107.6 685.9,107.6 686.1,107.6 686.2,115.5 686.4,115.5 686.6,115.5 686.8,115.5 687.0,115.5 687.2,115.5 687.4,115.5 687.6,115.5 687.7,115.5 687.9,115.5 688.1,115.5 688.3,115.5 688.5,115.5 688.7,115.5 688.9,116.1 689.0,116.1 689.2,116.1 689.4,116.1 689.6,116.1 689.8,116.1 690.0,116.1 690.2,116.1 690.4,116.1 690.5,116.1 690.7,116.1 690.9,116.1 691.1,116.1 691.3,116.1 691.5,116.1 691.7,116.1 691.9,116.1 692.0,116.1 692.2,116.1 692.4,116.1 692.6,116.1 692.8,116.1 693.0,116.1 693.2,107.6 693.3,107.6 693.5,107.6 693.7,107.6 693.9,107.6 694.1,112.1 694.3,112.1 694.5,112.1 694.7,112.1 694.8,112.1 695.0,112.1 695.2,112.1 695.4,112.1 695.6,112.1 695.8,112.1 696.0,112.1 696.2,112.1 696.3,112.1 696.5,112.1 696.7,112.1 696.9,112.1 697.1,112.1 697.3,112.1 697.5,112.1 697.6,112.1 697.8,112.1 698.0,112.1 698.2,112.1 698.4,112.1 698.6,112.1 698.8,112.1 699.0,112.1 699.1,112.1 699.3,112.1 699.5,112.1 699.7,116.1 699.9,116.1 700.1,116.1 700.3,116.1 700.5,116.1 700.6,116.1 700.8,116.1 701.0,116.1 701.2,116.1 701.4,116.1 701.6,116.1 701.8,114.3 701.9,114.3 702.1,114.3 702.3,114.3 702.5,114.3 702.7,114.3 702.9,114.3 703.1,114.3 703.3,114.3 703.4,114.3 703.6,114.3 703.8,116.1 704.0,116.1 704.2,116.1 704.4,116.1 704.6,116.1 704.8,116.1 704.9,116.1 705.1,116.1 705.3,116.1 705.5,116.1 705.7,116.1 705.9,116.1 706.1,116.1 706.2,116.1 706.4,116.1 706.6,116.1 706.8,116.1 707.0,116.1 707.2,116.1 707.4,116.1 707.6,111.8 707.7,111.8 707.9,111.8 708.1,111.8 708.3,111.8 708.5,111.8 708.7,111.8 708.9,111.8 709.1,111.8 709.2,111.8 709.4,111.8 709.6,111.8 709.8,111.8 710.0,111.8 710.2,111.8 710.4,111.8 710.6,111.8 710.7,111.8 710.9,111.8 711.1,111.8 711.3,111.8 711.5,111.8 711.7,111.8 711.9,111.8 712.0,111.8 712.2,111.8 712.4,111.8 712.6,111.8 712.8,117.2 713.0,117.2 713.2,117.2 713.4,117.2 713.5,117.2 713.7,117.2 713.9,117.2 714.1,117.2 714.3,117.2 714.5,117.2 714.7,117.2 714.9,117.2 715.0,117.2 715.2,117.2 715.4,117.2 715.6,117.2 715.8,117.2 716.0,117.2 716.2,116.0 716.3,116.0 716.5,116.0 716.7,116.0 716.9,116.0 717.1,116.0 717.3,116.0 717.5,116.0 717.7,116.0 717.8,116.0 718.0,116.0 718.2,116.0 718.4,116.0 718.6,116.0 718.8,116.0 719.0,116.0 719.2,116.0 719.3,116.0 719.5,116.0 719.7,116.0 719.9,116.0 720.1,116.0 720.3,116.0 720.5,116.0 720.6,116.0 720.8,116.0 721.0,116.0 721.2,116.0 721.4,116.0 721.6,116.0 721.8,116.0 722.0,116.0 722.1,116.0 722.3,116.0 722.5,116.0 722.7,116.0 722.9,116.0 723.1,116.0 723.3,116.0 723.5,116.0 723.6,116.0 723.8,116.0 724.0,116.0 724.2,116.0 724.4,116.0 724.6,116.0 724.8,116.0 724.9,116.0 725.1,116.0 725.3,116.0 725.5,116.0 725.7,116.0 725.9,116.0 726.1,116.0 726.3,116.0 726.4,116.0 726.6,116.0 726.8,116.0 727.0,116.0 727.2,116.0 727.4,116.0 727.6,116.0 727.8,104.5 727.9,104.5 728.1,104.5 728.3,104.5 728.5,104.5 728.7,104.5 728.9,104.5 729.1,104.5 729.2,104.5 729.4,104.5 729.6,104.5 729.8,104.5 730.0,104.5 730.2,104.5 730.4,104.5 730.6,100.4 730.7,100.4 730.9,100.4 731.1,100.4 731.3,100.4 731.5,100.4 731.7,100.4 731.9,100.4 732.1,100.4 732.2,100.4 732.4,100.4 732.6,100.4 732.8,100.4 733.0,100.4 733.2,100.4 733.4,100.4 733.5,100.4 733.7,100.4 733.9,100.4 734.1,100.4 734.3,100.4 734.5,100.4 734.7,100.4 734.9,100.4 735.0,100.4 735.2,100.4 735.4,100.4 735.6,100.4 735.8,100.4 736.0,101.5 736.2,101.5 736.4,101.5 736.5,101.5 736.7,101.5 736.9,101.5 737.1,101.5 737.3,101.5 737.5,101.5 737.7,101.5 737.8,101.5 738.0,101.5 738.2,101.5 738.4,111.9 738.6,111.9 738.8,111.9 739.0,111.9 739.2,111.9 739.3,111.9 739.5,111.9 739.7,103.7 739.9,103.7 740.1,103.7 740.3,103.7 740.5,103.7 740.7,105.5 740.8,105.5 741.0,105.5 741.2,105.5 741.4,105.5 741.6,105.5 741.8,105.5 742.0,111.9 742.1,111.9 742.3,111.9 742.5,111.9 742.7,113.1 742.9,113.1 743.1,113.1 743.3,113.1 743.5,113.1 743.6,113.1 743.8,113.1 744.0,113.1 744.2,113.1 744.4,113.1 744.6,113.1 744.8,113.1 745.0,113.1 745.1,113.1 745.3,113.1 745.5,113.1 745.7,113.1 745.9,113.1 746.1,113.1 746.3,113.1 746.5,113.1 746.6,113.1 746.8,113.1 747.0,113.1 747.2,113.1 747.4,113.1 747.6,107.1 747.8,107.1 747.9,107.1 748.1,107.1 748.3,107.1 748.5,107.1 748.7,107.1 748.9,107.1 749.1,107.1 749.3,107.1 749.4,107.1 749.6,110.7 749.8,110.7 750.0,110.7 750.2,110.7 750.4,110.7 750.6,110.7 750.8,110.7 750.9,110.7 751.1,110.7 751.3,110.7 751.5,110.7 751.7,110.7 751.9,110.7 752.1,110.7 752.2,110.7 752.4,110.7 752.6,110.7 752.8,110.7 753.0,110.7 753.2,110.7 753.4,110.7 753.6,110.7 753.7,110.7 753.9,110.7 754.1,106.1 754.3,106.1 754.5,106.1 754.7,106.1 754.9,106.1 755.1,106.1 755.2,106.1 755.4,106.1 755.6,106.1 755.8,106.1 756.0,106.1 756.2,106.1 756.4,106.1 756.5,106.1 756.7,106.1 756.9,106.1 757.1,106.1 757.3,76.5 757.5,76.5 757.7,76.5 757.9,76.5 758.0,76.5 758.2,76.5 758.4,76.5 758.6,76.5 758.8,76.5 759.0,102.6 759.2,102.6 759.4,102.6 759.5,102.6 759.7,102.6 759.9,102.6 760.1,102.6 760.3,102.6 760.5,102.6 760.7,102.6 760.8,102.6 761.0,102.6 761.2,102.6 761.4,102.6 761.6,102.6 761.8,102.6 762.0,102.6 762.2,102.6 762.3,102.6 762.5,101.5 762.7,101.5 762.9,101.5 763.1,101.5 763.3,101.5 763.5,101.5 763.7,102.6 763.8,102.6 764.0,102.6 764.2,102.6 764.4,102.6 764.6,102.6 764.8,102.6 765.0,102.6 765.1,102.6 765.3,102.6 765.5,102.6 765.7,102.6 765.9,102.6 766.1,102.6 766.3,102.6 766.5,102.6 766.6,102.6 766.8,102.6 767.0,102.6 767.2,102.6 767.4,102.6 767.6,102.6 767.8,102.6 768.0,102.6 768.1,102.6 768.3,102.6 768.5,102.6 768.7,102.6 768.9,102.6 769.1,102.6 769.3,102.6 769.4,102.6 769.6,102.6 769.8,102.6 770.0,102.6 770.2,102.6 770.4,102.6 770.6,102.6 770.8,102.6 770.9,102.6 771.1,102.6 771.3,102.6 771.5,102.6 771.7,102.6 771.9,102.6 772.1,102.6 772.3,102.6 772.4,102.6 772.6,102.6 772.8,102.6 773.0,102.6 773.2,102.6 773.4,102.6 773.6,102.6 773.7,102.6 773.9,102.6 774.1,102.6 774.3,102.6 774.5,102.6 774.7,102.6 774.9,102.6 775.1,102.6 775.2,102.6 775.4,102.6 775.6,102.6 775.8,102.6 776.0,102.6 776.2,102.6 776.4,102.6 776.6,102.6 776.7,102.6 776.9,102.6 777.1,102.6 777.3,98.1 777.5,98.1 777.7,98.1 777.9,98.1 778.0,98.1 778.2,98.1 778.4,98.1 778.6,98.1 778.8,98.1 779.0,98.1 779.2,98.1 779.4,98.1 779.5,98.1 779.7,98.1 779.9,98.1 780.1,98.1 780.3,98.1 780.5,98.1 780.7,98.1 780.9,98.1 781.0,98.1 781.2,98.1 781.4,98.1 781.6,98.1 781.8,98.1 782.0,98.1 782.2,98.1 782.4,98.1 782.5,101.6 782.7,101.6 782.9,101.6 783.1,101.6 783.3,101.6 783.5,101.6 783.7,101.6 783.8,101.6 784.0,101.6 784.2,101.6 784.4,101.6 784.6,101.6 784.8,101.6 785.0,101.6 785.2,101.6 785.3,101.6 785.5,101.6 785.7,101.6 785.9,101.6 786.1,101.6 786.3,101.6 786.5,101.6 786.7,101.6 786.8,101.6 787.0,101.6 787.2,101.6 787.4,101.6 787.6,101.6 787.8,101.6 788.0,101.6 788.1,101.6 788.3,101.6 788.5,101.6 788.7,101.6 788.9,101.6 789.1,101.6 789.3,101.6 789.5,101.6 789.6,101.6 789.8,101.6 790.0,101.6 790.2,101.6 790.4,101.6 790.6,101.6 790.8,101.6 791.0,101.6 791.1,101.6 791.3,101.6 791.5,101.6 791.7,101.6 791.9,101.6 792.1,101.6 792.3,101.6 792.4,98.1 792.6,98.1 792.8,98.1 793.0,98.1 793.2,98.1 793.4,98.1 793.6,98.1 793.8,98.1 793.9,98.1 794.1,98.1 794.3,98.1 794.5,98.1 794.7,98.1 794.9,98.1 795.1,98.1 795.3,98.1 795.4,98.1 795.6,98.1 795.8,98.1 796.0,98.1"/>
<text x="78" y="392" font-size="11" fill="#16a34a">Total return +365.9%</text><text x="268" y="392" font-size="11" fill="#2563eb">Price-only +144.7%</text><text x="78" y="362" font-size="11" text-anchor="middle" fill="#64748b">2011-04</text><text x="258" y="362" font-size="11" text-anchor="middle" fill="#64748b">2015-02</text><text x="437" y="362" font-size="11" text-anchor="middle" fill="#64748b">2018-11</text><text x="616" y="362" font-size="11" text-anchor="middle" fill="#64748b">2022-09</text><text x="796" y="362" font-size="11" text-anchor="middle" fill="#64748b">2026-07</text></svg>