<svg xmlns="http://www.w3.org/2000/svg" width="720" height="360" viewBox="0 0 720 360">
  <rect width="720" height="360" fill="#fafafa"/>
  <text x="56" y="22" font-size="13" font-family="sans-serif" fill="#222">TEQ.ST total return (rebased 100) · cumulative distributions $0.00/sh · market cap n/a</text>
  <line x1="56" y1="308" x2="696" y2="308" stroke="#ccc"/>
  <line x1="56" y1="48" x2="56" y2="308" stroke="#ccc"/>
  <polyline fill="none" stroke="#2563eb" stroke-width="2" points="56.0,271.6 63.4,274.4 70.7,273.8 78.1,273.9 85.4,287.1 92.8,287.8 100.1,287.7 107.5,287.9 114.9,286.0 122.2,284.2 129.6,285.7 136.9,290.1 144.3,287.9 151.6,287.3 159.0,277.9 166.3,278.6 173.7,275.8 181.1,277.3 188.4,276.8 195.8,264.7 203.1,256.5 210.5,248.7 217.8,236.2 225.2,229.3 232.6,233.8 239.9,231.9 247.3,235.6 254.6,230.3 262.0,210.8 269.3,215.8 276.7,177.5 284.0,166.7 291.4,168.2 298.8,176.5 306.1,194.1 313.5,205.4 320.8,195.1 328.2,196.3 335.5,198.6 342.9,166.3 350.3,189.2 357.6,174.0 365.0,187.3 372.3,182.4 379.7,174.2 387.0,156.9 394.4,125.4 401.7,120.7 409.1,134.8 416.5,151.5 423.8,81.6 431.2,65.9 438.5,82.6 445.9,92.4 453.2,108.5 460.6,97.2 468.0,66.4 475.3,89.9 482.7,90.4 490.0,93.3 497.4,112.4 504.7,94.3 512.1,112.4 519.4,112.9 526.8,116.0 534.2,121.7 541.5,119.4 548.9,144.0 556.2,147.9 563.6,144.6 570.9,151.8 578.3,143.8 585.7,154.0 593.0,173.8 600.4,161.8 607.7,162.6 615.1,170.8 622.4,156.7 629.8,135.0 637.1,141.1 644.5,135.4 651.9,139.5 659.2,154.0 666.6,160.3 673.9,155.0 681.3,151.8 688.6,155.6 696.0,153.2"/>
  <polyline fill="none" stroke="#16a34a" stroke-width="2" points="56.0,271.6 63.4,274.4 70.7,273.8 78.1,273.9 85.4,287.1 92.8,287.8 100.1,287.7 107.5,287.9 114.9,286.0 122.2,284.2 129.6,285.7 136.9,290.1 144.3,287.9 151.6,287.3 159.0,277.9 166.3,278.6 173.7,275.8 181.1,277.3 188.4,276.8 195.8,264.7 203.1,256.5 210.5,248.7 217.8,236.2 225.2,229.3 232.6,233.8 239.9,231.9 247.3,235.6 254.6,230.3 262.0,210.8 269.3,215.8 276.7,177.5 284.0,166.7 291.4,168.2 298.8,176.5 306.1,194.1 313.5,205.4 320.8,195.1 328.2,196.3 335.5,198.6 342.9,166.3 350.3,189.2 357.6,174.0 365.0,187.3 372.3,182.4 379.7,174.2 387.0,156.9 394.4,125.4 401.7,120.7 409.1,134.8 416.5,151.5 423.8,81.6 431.2,65.9 438.5,82.6 445.9,92.4 453.2,108.5 460.6,97.2 468.0,66.4 475.3,89.9 482.7,90.4 490.0,93.3 497.4,112.4 504.7,94.3 512.1,112.4 519.4,112.9 526.8,116.0 534.2,121.7 541.5,119.4 548.9,144.0 556.2,147.9 563.6,144.6 570.9,151.8 578.3,143.8 585.7,154.0 593.0,173.8 600.4,161.8 607.7,162.6 615.1,170.8 622.4,156.7 629.8,135.0 637.1,141.1 644.5,135.4 651.9,139.5 659.2,154.0 666.6,160.3 673.9,155.0 681.3,151.8 688.6,155.6 696.0,153.2"/>
  <text x="60" y="62" font-size="11" fill="#2563eb">Price index</text>
  <text x="146" y="62" font-size="11" fill="#16a34a">Total return (price + distributions)</text>
  <text x="56" y="348" font-size="11" text-anchor="middle" fill="#444">2019-03</text><text x="218" y="348" font-size="11" text-anchor="middle" fill="#444">2021-01</text><text x="380" y="348" font-size="11" text-anchor="middle" fill="#444">2022-11</text><text x="542" y="348" font-size="11" text-anchor="middle" fill="#444">2024-09</text><text x="696" y="348" font-size="11" text-anchor="middle" fill="#444">2026-06</text>
</svg>
