<svg xmlns="http://www.w3.org/2000/svg" width="820" height="410" viewBox="0 0 820 410">
<rect width="820" height="410" fill="#fafafa"/><text x="78" y="22" font-size="14" font-family="sans-serif" fill="#0f172a">TEQ.ST cumulative return since 2019-04-04 | dividends reinvested</text>
<text x="78" y="40" font-size="11" font-family="sans-serif" fill="#334155">Total return +320.0% | Price-only +317.9% | logarithmic scale</text>
<text x="78" y="54" font-size="9" font-family="sans-serif" fill="#64748b">Regular $0.50 | Special $0.00 | Other $0.00 per initial share path</text>
<line x1="78" y1="332.0" x2="796" y2="332.0" stroke="#e2e8f0"/><text x="70" y="336.0" font-size="10" text-anchor="end" fill="#64748b">-63.8%</text><line x1="78" y1="287.0" x2="796" y2="287.0" stroke="#e2e8f0"/><text x="70" y="291.0" font-size="10" text-anchor="end" fill="#64748b">-39.1%</text><line x1="78" y1="244.0" x2="796" y2="244.0" stroke="#e2e8f0"/><text x="70" y="248.0" font-size="10" text-anchor="end" fill="#64748b">0%</text><line x1="78" y1="242.0" x2="796" y2="242.0" stroke="#e2e8f0"/><text x="70" y="246.0" font-size="10" text-anchor="end" fill="#64748b">+2.3%</text><line x1="78" y1="197.0" x2="796" y2="197.0" stroke="#e2e8f0"/><text x="70" y="201.0" font-size="10" text-anchor="end" fill="#64748b">+72.0%</text><line x1="78" y1="152.0" x2="796" y2="152.0" stroke="#e2e8f0"/><text x="70" y="156.0" font-size="10" text-anchor="end" fill="#64748b">+189.2%</text><line x1="78" y1="107.0" x2="796" y2="107.0" stroke="#e2e8f0"/><text x="70" y="111.0" font-size="10" text-anchor="end" fill="#64748b">+386.3%</text><line x1="78" y1="62.0" x2="796" y2="62.0" stroke="#e2e8f0"/><text x="70" y="66.0" font-size="10" text-anchor="end" fill="#64748b">+717.7%</text>
<line x1="78" y1="332" x2="796" y2="332" stroke="#cbd5e1"/>
<polyline fill="none" stroke="#2563eb" stroke-width="2" points="78.0,244.0 78.4,246.7 78.8,241.4 79.2,234.3 79.6,232.0 80.0,227.8 80.4,232.0 80.8,243.1 81.1,240.9 81.5,241.8 81.9,244.4 82.3,245.3 82.7,240.1 83.1,241.8 83.5,244.4 83.9,244.9 84.3,244.4 84.7,244.9 85.1,244.9 85.5,246.7 85.9,247.1 86.3,246.2 86.6,248.1 87.0,249.5 87.4,250.9 87.8,248.1 88.2,247.1 88.6,248.1 89.0,250.4 89.4,248.5 89.8,247.6 90.2,248.5 90.6,250.0 91.0,248.1 91.4,251.4 91.8,250.9 92.1,251.9 92.5,250.9 92.9,253.4 93.3,251.9 93.7,251.9 94.1,248.5 94.5,252.4 94.9,251.4 95.3,251.4 95.7,252.4 96.1,252.4 96.5,253.4 96.9,256.4 97.3,254.8 97.6,255.4 98.0,254.8 98.4,250.9 98.8,249.5 99.2,250.4 99.6,246.7 100.0,244.4 100.4,246.2 100.8,247.1 101.2,245.8 101.6,246.7 102.0,245.3 102.4,244.9 102.8,245.3 103.2,246.2 103.5,246.2 103.9,246.2 104.3,248.3 104.7,246.3 105.1,245.1 105.5,248.3 105.9,248.5 106.3,247.8 106.7,248.0 107.1,247.8 107.5,248.5 107.9,249.7 108.3,248.2 108.7,250.4 109.0,252.2 109.4,252.2 109.8,250.9 110.2,251.2 110.6,250.8 111.0,253.6 111.4,253.5 111.8,254.1 112.2,253.6 112.6,255.2 113.0,254.2 113.4,256.0 113.8,285.1 114.2,288.2 114.5,288.6 114.9,289.0 115.3,286.4 115.7,290.1 116.1,289.7 116.5,286.0 116.9,289.7 117.3,288.2 117.7,287.8 118.1,290.7 118.5,290.3 118.9,291.6 119.3,292.4 119.7,290.5 120.1,289.9 120.4,292.0 120.8,293.0 121.2,290.3 121.6,286.0 122.0,290.7 122.4,292.2 122.8,292.4 123.2,293.2 123.6,290.5 124.0,293.6 124.4,292.6 124.8,292.8 125.2,290.7 125.6,291.2 125.9,292.2 126.3,291.6 126.7,291.8 127.1,292.0 127.5,292.6 127.9,292.0 128.3,287.7 128.7,286.9 129.1,286.9 129.5,289.9 129.9,291.2 130.3,292.0 130.7,290.7 131.1,294.4 131.4,291.8 131.8,292.6 132.2,291.4 132.6,293.8 133.0,293.6 133.4,292.0 133.8,289.7 134.2,292.0 134.6,294.8 135.0,290.5 135.4,292.8 135.8,291.2 136.2,292.8 136.6,291.2 136.9,291.8 137.3,292.8 137.7,292.8 138.1,292.4 138.5,290.7 138.9,293.4 139.3,293.4 139.7,293.4 140.1,293.0 140.5,292.4 140.9,293.4 141.3,293.2 141.7,292.8 142.1,292.0 142.5,292.0 142.8,290.5 143.2,291.0 143.6,290.8 144.0,291.0 144.4,291.2 144.8,291.2 145.2,290.5 145.6,290.1 146.0,290.1 146.4,290.5 146.8,290.5 147.2,288.8 147.6,288.6 148.0,285.8 148.3,282.7 148.7,285.7 149.1,281.5 149.5,281.1 149.9,281.8 150.3,280.1 150.7,279.1 151.1,281.6 151.5,279.3 151.9,279.3 152.3,279.9 152.7,280.9 153.1,279.3 153.5,279.1 153.8,279.6 154.2,279.9 154.6,278.3 155.0,279.1 155.4,279.4 155.8,280.9 156.2,278.1 156.6,279.9 157.0,279.3 157.4,279.8 157.8,279.8 158.2,276.6 158.6,276.5 159.0,278.6 159.3,277.9 159.7,277.6 160.1,277.1 160.5,277.3 160.9,277.8 161.3,274.7 161.7,279.8 162.1,277.4 162.5,269.2 162.9,271.0 163.3,276.0 163.7,277.4 164.1,279.9 164.5,283.9 164.9,284.6 165.2,277.0 165.6,274.6 166.0,277.9 166.4,279.1 166.8,279.1 167.2,282.5 167.6,279.1 168.0,282.3 168.4,293.0 168.8,293.6 169.2,299.0 169.6,303.8 170.0,304.5 170.4,295.6 170.7,302.1 171.1,317.5 171.5,310.9 171.9,306.3 172.3,304.0 172.7,310.9 173.1,301.6 173.5,302.1 173.9,302.7 174.3,305.8 174.7,309.5 175.1,301.8 175.5,299.7 175.9,304.0 176.2,303.6 176.6,297.6 177.0,303.8 177.4,302.2 177.8,296.0 178.2,295.6 178.6,304.5 179.0,303.3 179.4,305.4 179.8,303.6 180.2,303.1 180.6,299.3 181.0,295.2 181.4,292.8 181.8,297.6 182.1,293.6 182.5,298.4 182.9,299.7 183.3,294.4 183.7,294.0 184.1,293.6 184.5,294.4 184.9,297.6 185.3,295.2 185.7,296.8 186.1,297.6 186.5,294.0 186.9,293.6 187.3,292.4 187.6,289.0 188.0,289.0 188.4,290.5 188.8,290.5 189.2,290.8 189.6,288.6 190.0,285.7 190.4,291.2 190.8,289.3 191.2,289.0 191.6,286.4 192.0,286.4 192.4,286.0 192.8,286.8 193.1,272.7 193.5,272.7 193.9,275.8 194.3,275.8 194.7,273.3 195.1,269.9 195.5,272.7 195.9,270.5 196.3,270.5 196.7,271.1 197.1,260.0 197.5,259.2 197.9,261.1 198.3,261.1 198.6,262.5 199.0,266.4 199.4,261.4 199.8,261.7 200.2,260.8 200.6,261.1 201.0,259.8 201.4,261.1 201.8,261.1 202.2,263.9 202.6,261.1 203.0,261.1 203.4,261.4 203.8,263.6 204.2,264.1 204.5,264.1 204.9,262.8 205.3,264.7 205.7,261.7 206.1,261.9 206.5,261.7 206.9,256.4 207.3,257.4 207.7,257.4 208.1,258.4 208.5,258.4 208.9,259.5 209.3,257.1 209.7,253.4 210.0,253.8 210.4,250.9 210.8,252.1 211.2,254.3 211.6,256.4 212.0,256.1 212.4,256.1 212.8,258.2 213.2,256.9 213.6,253.4 214.0,254.8 214.4,254.6 214.8,249.7 215.2,249.7 215.5,252.6 215.9,255.6 216.3,254.3 216.7,255.9 217.1,255.9 217.5,256.1 217.9,256.1 218.3,256.1 218.7,255.9 219.1,255.6 219.5,256.1 219.9,255.9 220.3,257.1 220.7,256.4 221.0,256.6 221.4,257.1 221.8,258.2 222.2,259.0 222.6,258.4 223.0,258.4 223.4,261.9 223.8,259.8 224.2,257.9 224.6,259.8 225.0,257.4 225.4,257.4 225.8,258.2 226.2,258.2 226.6,257.9 226.9,257.7 227.3,259.0 227.7,259.0 228.1,259.8 228.5,258.4 228.9,259.0 229.3,257.9 229.7,260.3 230.1,259.5 230.5,261.1 230.9,266.7 231.3,259.8 231.7,257.1 232.1,253.4 232.4,252.4 232.8,250.0 233.2,244.4 233.6,241.8 234.0,242.2 234.4,244.2 234.8,246.5 235.2,250.4 235.6,251.6 236.0,251.2 236.4,252.1 236.8,245.1 237.2,243.8 237.6,242.4 237.9,239.9 238.3,235.5 238.7,231.6 239.1,228.2 239.5,233.3 239.9,229.9 240.3,228.7 240.7,229.3 241.1,228.2 241.5,230.1 241.9,231.6 242.3,232.2 242.7,231.4 243.1,233.5 243.5,235.9 243.8,231.6 244.2,229.7 244.6,227.8 245.0,223.3 245.4,224.6 245.8,226.2 246.2,225.8 246.6,223.7 247.0,218.1 247.4,214.5 247.8,215.5 248.2,213.0 248.6,208.1 249.0,207.3 249.3,200.8 249.7,207.0 250.1,210.5 250.5,211.7 250.9,215.5 251.3,209.9 251.7,210.8 252.1,207.3 252.5,206.7 252.9,204.1 253.3,202.4 253.7,201.9 254.1,202.7 254.5,206.4 254.8,208.1 255.2,203.6 255.6,206.4 256.0,208.7 256.4,207.5 256.8,208.1 257.2,201.1 257.6,196.6 258.0,191.8 258.4,193.1 258.8,193.3 259.2,194.8 259.6,197.1 260.0,191.6 260.3,195.3 260.7,192.6 261.1,193.3 261.5,189.0 261.9,188.7 262.3,191.4 262.7,185.3 263.1,187.3 263.5,184.0 263.9,184.0 264.3,177.5 264.7,177.5 265.1,182.2 265.5,177.5 265.9,180.0 266.2,179.4 266.6,180.3 267.0,181.8 267.4,183.7 267.8,186.2 268.2,184.2 268.6,182.2 269.0,185.1 269.4,182.8 269.8,183.5 270.2,182.8 270.6,179.6 271.0,182.2 271.4,181.5 271.7,181.3 272.1,179.6 272.5,177.3 272.9,175.3 273.3,172.9 273.7,167.1 274.1,169.3 274.5,175.3 274.9,176.5 275.3,176.1 275.7,170.8 276.1,172.3 276.5,176.7 276.9,175.9 277.2,179.2 277.6,175.1 278.0,174.1 278.4,170.4 278.8,173.1 279.2,174.5 279.6,181.8 280.0,184.6 280.4,187.3 280.8,190.2 281.2,186.9 281.6,188.0 282.0,185.1 282.4,189.2 282.7,193.3 283.1,194.6 283.5,193.8 283.9,194.6 284.3,190.9 284.7,189.7 285.1,187.3 285.5,184.8 285.9,184.6 286.3,187.8 286.7,189.0 287.1,186.4 287.5,184.4 287.9,182.4 288.3,177.5 288.6,177.1 289.0,178.6 289.4,178.4 289.8,178.8 290.2,179.2 290.6,180.9 291.0,179.0 291.4,180.5 291.8,179.0 292.2,177.1 292.6,179.8 293.0,180.5 293.4,179.4 293.8,179.2 294.1,178.4 294.5,180.7 294.9,180.7 295.3,183.3 295.7,184.2 296.1,186.7 296.5,184.0 296.9,183.7 297.3,184.0 297.7,179.8 298.1,180.7 298.5,178.6 298.9,178.4 299.3,178.2 299.6,173.5 300.0,172.9 300.4,176.3 300.8,182.0 301.2,180.9 301.6,181.1 302.0,181.1 302.4,180.9 302.8,178.6 303.2,177.7 303.6,179.2 304.0,181.1 304.4,179.2 304.8,180.7 305.2,179.6 305.5,180.3 305.9,179.8 306.3,178.4 306.7,178.4 307.1,182.4 307.5,182.4 307.9,181.5 308.3,177.9 308.7,163.5 309.1,157.4 309.5,160.3 309.9,151.8 310.3,152.6 310.7,155.0 311.0,157.4 311.4,159.5 311.8,162.0 312.2,159.0 312.6,157.4 313.0,158.2 313.4,161.6 313.8,161.1 314.2,160.7 314.6,161.1 315.0,160.3 315.4,163.0 315.8,167.8 316.2,160.3 316.5,150.7 316.9,159.0 317.3,154.2 317.7,154.2 318.1,155.4 318.5,154.2 318.9,159.0 319.3,163.3 319.7,162.0 320.1,162.6 320.5,165.1 320.9,164.0 321.3,170.4 321.7,167.4 322.0,166.1 322.4,163.5 322.8,166.0 323.2,166.0 323.6,167.4 324.0,171.9 324.4,171.6 324.8,175.1 325.2,170.6 325.6,166.0 326.0,161.1 326.4,160.3 326.8,158.2 327.2,156.2 327.6,152.2 327.9,153.4 328.3,150.7 328.7,143.5 329.1,143.8 329.5,147.4 329.9,146.3 330.3,136.4 330.7,132.1 331.1,125.6 331.5,119.1 331.9,123.1 332.3,120.9 332.7,120.1 333.1,112.0 333.4,107.5 333.8,114.2 334.2,119.9 334.6,120.7 335.0,125.0 335.4,132.1 335.8,126.2 336.2,127.9 336.6,131.8 337.0,136.4 337.4,128.8 337.8,122.8 338.2,130.0 338.6,131.8 338.9,129.7 339.3,127.9 339.7,133.9 340.1,132.7 340.5,135.2 340.9,130.0 341.3,131.5 341.7,130.6 342.1,132.4 342.5,130.3 342.9,134.5 343.3,134.9 343.7,132.7 344.1,133.9 344.4,134.2 344.8,133.3 345.2,132.7 345.6,134.5 346.0,129.7 346.4,128.5 346.8,128.8 347.2,130.6 347.6,124.2 348.0,124.2 348.4,123.6 348.8,129.7 349.2,136.1 349.6,131.8 350.0,129.1 350.3,132.4 350.7,130.3 351.1,129.1 351.5,132.4 351.9,132.7 352.3,133.3 352.7,135.5 353.1,137.7 353.5,136.1 353.9,134.5 354.3,134.9 354.7,135.8 355.1,135.8 355.5,131.5 355.8,130.0 356.2,132.7 356.6,139.0 357.0,138.7 357.4,142.8 357.8,137.1 358.2,139.0 358.6,141.1 359.0,146.3 359.4,145.9 359.8,146.6 360.2,145.6 360.6,145.6 361.0,148.1 361.3,144.5 361.7,147.7 362.1,150.7 362.5,145.6 362.9,148.1 363.3,150.3 363.7,149.6 364.1,152.6 364.5,159.5 364.9,164.4 365.3,163.0 365.7,162.4 366.1,162.6 366.5,161.6 366.9,160.7 367.2,164.2 367.6,160.7 368.0,159.0 368.4,157.4 368.8,158.6 369.2,158.2 369.6,159.9 370.0,157.8 370.4,152.6 370.8,154.2 371.2,153.0 371.6,153.4 372.0,157.0 372.4,155.8 372.7,156.3 373.1,154.8 373.5,156.6 373.9,155.8 374.3,156.6 374.7,156.7 375.1,159.7 375.5,161.1 375.9,159.5 376.3,163.9 376.7,158.5 377.1,149.0 377.5,141.3 377.9,146.5 378.2,145.8 378.6,149.6 379.0,149.6 379.4,148.8 379.8,157.4 380.2,161.1 380.6,161.7 381.0,161.1 381.4,162.4 381.8,166.8 382.2,169.7 382.6,160.5 383.0,158.2 383.4,154.2 383.7,150.2 384.1,153.1 384.5,155.1 384.9,152.8 385.3,154.7 385.7,152.3 386.1,155.0 386.5,155.1 386.9,151.8 387.3,148.5 387.7,149.7 388.1,148.7 388.5,145.5 388.9,144.6 389.3,147.2 389.6,148.8 390.0,150.9 390.4,151.8 390.8,156.9 391.2,158.9 391.6,159.0 392.0,160.4 392.4,156.3 392.8,158.2 393.2,154.7 393.6,157.2 394.0,154.5 394.4,148.1 394.8,147.1 395.1,151.8 395.5,151.5 395.9,148.1 396.3,145.5 396.7,145.1 397.1,140.9 397.5,134.5 397.9,133.8 398.3,133.0 398.7,134.5 399.1,137.6 399.5,142.4 399.9,139.8 400.3,134.0 400.6,135.2 401.0,134.3 401.4,133.9 401.8,133.5 402.2,129.5 402.6,132.1 403.0,132.4 403.4,131.7 403.8,129.4 404.2,132.7 404.6,136.4 405.0,133.3 405.4,132.2 405.8,135.5 406.1,134.2 406.5,137.7 406.9,135.8 407.3,136.2 407.7,134.3 408.1,130.6 408.5,130.6 408.9,131.5 409.3,131.9 409.7,130.9 410.1,136.4 410.5,141.1 410.9,141.1 411.3,134.5 411.7,137.0 412.0,142.1 412.4,144.8 412.8,144.5 413.2,146.8 413.6,143.4 414.0,146.1 414.4,146.4 414.8,140.4 415.2,134.2 415.6,133.2 416.0,133.3 416.4,132.1 416.8,129.1 417.2,129.5 417.5,129.5 417.9,128.0 418.3,131.9 418.7,132.1 419.1,131.2 419.5,131.3 419.9,134.9 420.3,134.5 420.7,133.4 421.1,135.8 421.5,134.2 421.9,133.9 422.3,133.9 422.7,136.3 423.0,137.9 423.4,139.3 423.8,136.4 424.2,137.2 424.6,137.0 425.0,136.7 425.4,138.8 425.8,137.9 426.2,138.9 426.6,135.8 427.0,137.6 427.4,150.6 427.8,154.3 428.2,152.2 428.6,143.1 428.9,144.5 429.3,138.8 429.7,143.1 430.1,144.2 430.5,146.4 430.9,147.4 431.3,146.2 431.7,145.6 432.1,143.8 432.5,145.8 432.9,141.7 433.3,142.6 433.7,140.6 434.1,141.1 434.4,145.8 434.8,144.5 435.2,142.6 435.6,139.0 436.0,135.7 436.4,135.2 436.8,134.9 437.2,134.0 437.6,136.4 438.0,136.8 438.4,139.7 438.8,138.3 439.2,140.5 439.6,139.3 439.9,141.6 440.3,142.4 440.7,142.1 441.1,143.2 441.5,141.1 441.9,137.5 442.3,135.0 442.7,137.6 443.1,139.3 443.5,137.7 443.9,139.0 444.3,136.3 444.7,138.4 445.1,136.2 445.4,135.4 445.8,137.6 446.2,137.1 446.6,134.3 447.0,130.4 447.4,130.4 447.8,133.0 448.2,132.2 448.6,133.3 449.0,133.4 449.4,135.5 449.8,136.7 450.2,136.8 450.6,135.5 451.0,135.9 451.3,132.4 451.7,131.0 452.1,130.7 452.5,125.0 452.9,124.4 453.3,125.2 453.7,121.5 454.1,124.1 454.5,124.3 454.9,123.9 455.3,122.4 455.7,122.3 456.1,120.8 456.5,120.2 456.8,118.5 457.2,117.0 457.6,120.7 458.0,124.7 458.4,116.2 458.8,113.0 459.2,109.9 459.6,107.3 460.0,105.6 460.4,110.4 460.8,113.9 461.2,111.4 461.6,109.6 462.0,112.4 462.3,111.4 462.7,107.7 463.1,110.9 463.5,113.0 463.9,113.0 464.3,107.4 464.7,108.3 465.1,106.9 465.5,109.7 465.9,111.0 466.3,111.4 466.7,108.7 467.1,110.5 467.5,109.3 467.9,109.4 468.2,110.9 468.6,110.5 469.0,110.8 469.4,108.9 469.8,108.7 470.2,105.0 470.6,108.2 471.0,108.5 471.4,106.8 471.8,105.5 472.2,102.9 472.6,100.3 473.0,101.1 473.4,112.6 473.7,109.6 474.1,110.7 474.5,109.6 474.9,105.8 475.3,104.0 475.7,100.5 476.1,103.1 476.5,103.7 476.9,102.9 477.3,98.8 477.7,102.0 478.1,105.9 478.5,108.2 478.9,112.2 479.2,113.8 479.6,116.1 480.0,111.6 480.4,111.5 480.8,110.4 481.2,109.3 481.6,106.3 482.0,109.1 482.4,113.0 482.8,113.6 483.2,113.9 483.6,114.7 484.0,113.0 484.4,111.6 484.7,111.9 485.1,113.9 485.5,113.6 485.9,112.0 486.3,115.0 486.7,120.8 487.1,120.9 487.5,117.6 487.9,116.8 488.3,111.6 488.7,110.2 489.1,108.9 489.5,105.8 489.9,103.5 490.3,101.8 490.6,105.0 491.0,103.0 491.4,102.0 491.8,99.4 492.2,96.1 492.6,91.6 493.0,92.4 493.4,97.8 493.8,95.1 494.2,95.7 494.6,90.3 495.0,89.2 495.4,88.6 495.8,89.4 496.1,91.4 496.5,92.6 496.9,90.9 497.3,89.0 497.7,90.3 498.1,90.7 498.5,93.4 498.9,98.2 499.3,95.5 499.7,96.3 500.1,93.0 500.5,94.1 500.9,95.9 501.3,94.5 501.6,89.6 502.0,85.4 502.4,82.4 502.8,84.5 503.2,83.4 503.6,84.3 504.0,84.7 504.4,83.4 504.8,85.5 505.2,88.3 505.6,88.6 506.0,89.0 506.4,89.9 506.8,91.2 507.1,90.3 507.5,91.8 507.9,90.7 508.3,93.0 508.7,92.4 509.1,91.8 509.5,89.6 509.9,90.9 510.3,89.0 510.7,90.1 511.1,90.3 511.5,90.3 511.9,89.0 512.3,89.6 512.7,87.3 513.0,84.1 513.4,81.9 513.8,84.8 514.2,91.1 514.6,94.1 515.0,92.2 515.4,90.7 515.8,91.1 516.2,91.4 516.6,94.0 517.0,92.2 517.4,89.9 517.8,85.5 518.2,86.4 518.5,85.5 518.9,87.9 519.3,92.6 519.7,92.0 520.1,92.6 520.5,93.4 520.9,99.4 521.3,101.3 521.7,101.8 522.1,102.6 522.5,101.3 522.9,103.2 523.3,99.6 523.7,99.4 524.0,100.1 524.4,104.5 524.8,104.1 525.2,102.7 525.6,106.8 526.0,105.9 526.4,105.4 526.8,98.8 527.2,96.3 527.6,106.2 528.0,102.8 528.4,102.9 528.8,99.8 529.2,100.1 529.6,100.7 529.9,94.5 530.3,95.9 530.7,97.4 531.1,96.3 531.5,96.1 531.9,94.1 532.3,95.1 532.7,94.7 533.1,89.0 533.5,89.7 533.9,91.1 534.3,86.3 534.7,86.6 535.1,84.8 535.4,89.0 535.8,86.4 536.2,88.6 536.6,91.2 537.0,93.8 537.4,96.1 537.8,95.3 538.2,96.7 538.6,94.1 539.0,93.0 539.4,91.1 539.8,90.1 540.2,87.2 540.6,84.8 540.9,82.9 541.3,85.2 541.7,82.0 542.1,82.6 542.5,87.5 542.9,88.1 543.3,87.9 543.7,88.8 544.1,89.2 544.5,85.5 544.9,85.9 545.3,83.6 545.7,87.0 546.1,88.4 546.4,87.5 546.8,89.9 547.2,88.3 547.6,92.8 548.0,92.8 548.4,94.0 548.8,91.6 549.2,89.9 549.6,92.2 550.0,94.0 550.4,92.2 550.8,93.8 551.2,93.6 551.6,92.4 552.0,92.4 552.3,93.6 552.7,94.5 553.1,91.2 553.5,92.2 553.9,92.4 554.3,92.2 554.7,92.6 555.1,93.0 555.5,94.5 555.9,90.9 556.3,86.8 556.7,83.9 557.1,83.8 557.5,82.6 557.8,76.9 558.2,78.4 558.6,77.1 559.0,81.4 559.4,94.0 559.8,90.9 560.2,94.1 560.6,94.0 561.0,93.6 561.4,94.5 561.8,96.5 562.2,92.6 562.6,93.0 563.0,91.4 563.3,87.9 563.7,90.9 564.1,91.4 564.5,92.2 564.9,93.4 565.3,93.8 565.7,96.1 566.1,98.8 566.5,96.5 566.9,97.8 567.3,98.8 567.7,98.2 568.1,96.9 568.5,96.1 568.8,93.4 569.2,94.3 569.6,93.4 570.0,93.8 570.4,94.0 570.8,93.2 571.2,94.5 571.6,94.3 572.0,94.5 572.4,96.9 572.8,99.6 573.2,98.6 573.6,98.6 574.0,100.5 574.4,98.2 574.7,97.4 575.1,93.6 575.5,94.9 575.9,98.8 576.3,102.9 576.7,101.5 577.1,102.8 577.5,100.5 577.9,102.0 578.3,101.8 578.7,103.6 579.1,102.8 579.5,101.1 579.9,100.1 580.2,99.8 580.6,98.0 581.0,97.8 581.4,96.5 581.8,97.4 582.2,96.9 582.6,96.3 583.0,95.3 583.4,96.5 583.8,93.4 584.2,94.0 584.6,94.9 585.0,94.9 585.4,95.5 585.7,95.1 586.1,94.7 586.5,94.1 586.9,95.9 587.3,95.9 587.7,95.9 588.1,95.7 588.5,96.7 588.9,98.4 589.3,98.2 589.7,100.5 590.1,102.0 590.5,101.8 590.9,102.0 591.3,102.4 591.6,102.7 592.0,101.1 592.4,102.4 592.8,103.9 593.2,100.3 593.6,101.8 594.0,100.9 594.4,103.0 594.8,101.8 595.2,102.9 595.6,101.5 596.0,104.2 596.4,104.0 596.8,102.8 597.1,102.8 597.5,100.1 597.9,102.2 598.3,100.7 598.7,102.0 599.1,101.8 599.5,100.9 599.9,107.8 600.3,108.3 600.7,104.8 601.1,103.7 601.5,102.6 601.9,104.1 602.3,104.3 602.6,102.0 603.0,104.0 603.4,107.0 603.8,109.0 604.2,108.0 604.6,106.2 605.0,104.6 605.4,103.2 605.8,105.1 606.2,104.6 606.6,104.4 607.0,103.3 607.4,104.0 607.8,104.0 608.1,104.1 608.5,104.1 608.9,106.3 609.3,106.1 609.7,105.3 610.1,105.5 610.5,104.2 610.9,103.9 611.3,103.4 611.7,103.4 612.1,105.0 612.5,105.0 612.9,105.9 613.3,107.3 613.7,106.8 614.0,106.7 614.4,108.2 614.8,107.0 615.2,103.8 615.6,104.2 616.0,103.6 616.4,104.4 616.8,105.6 617.2,107.5 617.6,107.1 618.0,107.8 618.4,107.1 618.8,106.1 619.2,104.4 619.5,105.9 619.9,104.8 620.3,105.6 620.7,104.9 621.1,105.0 621.5,104.9 621.9,104.3 622.3,104.6 622.7,105.5 623.1,104.6 623.5,105.0 623.9,103.9 624.3,104.4 624.7,103.7 625.0,104.4 625.4,104.2 625.8,105.3 626.2,105.2 626.6,105.1 627.0,105.1 627.4,105.1 627.8,104.7 628.2,105.0 628.6,104.9 629.0,105.4 629.4,105.9 629.8,106.2 630.2,106.8 630.5,107.3 630.9,107.5 631.3,110.0 631.7,110.0 632.1,111.2 632.5,110.6 632.9,111.5 633.3,113.3 633.7,115.6 634.1,116.8 634.5,117.6 634.9,116.5 635.3,117.6 635.7,118.0 636.1,117.6 636.4,116.4 636.8,116.9 637.2,117.8 637.6,117.6 638.0,117.5 638.4,118.6 638.8,117.5 639.2,117.5 639.6,117.5 640.0,117.6 640.4,117.5 640.8,116.6 641.2,118.2 641.6,118.5 641.9,115.7 642.3,117.4 642.7,118.0 643.1,117.4 643.5,117.4 643.9,119.0 644.3,115.8 644.7,114.9 645.1,114.8 645.5,116.4 645.9,117.1 646.3,119.1 646.7,120.9 647.1,119.6 647.4,118.2 647.8,118.0 648.2,118.3 648.6,119.1 649.0,121.0 649.4,120.3 649.8,121.1 650.2,121.7 650.6,121.8 651.0,120.2 651.4,119.4 651.8,117.2 652.2,117.2 652.6,119.7 653.0,118.2 653.3,116.4 653.7,115.3 654.1,112.4 654.5,112.5 654.9,113.2 655.3,113.0 655.7,111.9 656.1,113.2 656.5,121.7 656.9,122.5 657.3,121.7 657.7,120.7 658.1,123.4 658.5,118.2 658.8,118.5 659.2,116.6 659.6,117.1 660.0,121.1 660.4,121.4 660.8,124.4 661.2,122.6 661.6,123.6 662.0,123.9 662.4,123.5 662.8,117.5 663.2,121.2 663.6,121.2 664.0,120.2 664.3,120.0 664.7,119.7 665.1,121.0 665.5,121.8 665.9,123.4 666.3,122.8 666.7,121.7 667.1,119.2 667.5,116.5 667.9,114.0 668.3,116.8 668.7,116.5 669.1,119.0 669.5,112.1 669.8,112.1 670.2,122.9 670.6,120.7 671.0,125.2 671.4,119.3 671.8,116.6 672.2,119.0 672.6,120.0 673.0,117.9 673.4,120.2 673.8,124.4 674.2,124.1 674.6,123.5 675.0,123.3 675.4,121.7 675.7,123.4 676.1,122.3 676.5,123.3 676.9,124.4 677.3,125.7 677.7,124.7 678.1,124.6 678.5,123.4 678.9,121.5 679.3,121.4 679.7,122.1 680.1,122.1 680.5,124.6 680.9,127.2 681.2,126.5 681.6,130.9 682.0,132.6 682.4,134.0 682.8,133.4 683.2,133.7 683.6,133.2 684.0,134.0 684.4,133.9 684.8,132.6 685.2,132.6 685.6,132.4 686.0,132.4 686.4,132.7 686.7,132.6 687.1,131.8 687.5,132.3 687.9,131.6 688.3,132.7 688.7,131.1 689.1,131.1 689.5,130.9 689.9,130.9 690.3,129.2 690.7,126.2 691.1,125.4 691.5,126.7 691.9,127.3 692.2,126.3 692.6,125.7 693.0,125.8 693.4,126.7 693.8,127.3 694.2,126.2 694.6,123.7 695.0,121.9 695.4,121.0 695.8,120.1 696.2,120.5 696.6,118.3 697.0,116.6 697.4,124.6 697.8,125.0 698.1,123.7 698.5,120.7 698.9,121.7 699.3,120.9 699.7,123.7 700.1,124.7 700.5,127.2 700.9,127.3 701.3,127.1 701.7,126.5 702.1,126.7 702.5,124.9 702.9,127.2 703.3,127.2 703.6,127.1 704.0,128.0 704.4,129.4 704.8,129.5 705.2,133.5 705.6,133.8 706.0,131.8 706.4,131.6 706.8,130.6 707.2,131.3 707.6,132.2 708.0,130.4 708.4,129.4 708.8,132.2 709.1,128.8 709.5,129.4 709.9,129.9 710.3,129.4 710.7,128.8 711.1,127.8 711.5,129.1 711.9,126.4 712.3,127.8 712.7,126.4 713.1,127.4 713.5,127.1 713.9,127.3 714.3,127.0 714.7,127.0 715.0,127.9 715.4,127.4 715.8,125.0 716.2,122.9 716.6,127.0 717.0,122.3 717.4,123.8 717.8,125.4 718.2,125.6 718.6,123.3 719.0,124.5 719.4,118.3 719.8,119.6 720.2,127.7 720.5,128.5 720.9,128.5 721.3,129.2 721.7,128.8 722.1,128.5 722.5,129.2 722.9,109.5 723.3,108.5 723.7,112.6 724.1,112.9 724.5,110.3 724.9,112.0 725.3,112.0 725.7,112.0 726.0,112.2 726.4,112.3 726.8,115.1 727.2,115.5 727.6,117.3 728.0,115.8 728.4,119.6 728.8,116.9 729.2,118.3 729.6,117.2 730.0,117.6 730.4,117.6 730.8,117.5 731.2,120.5 731.5,120.4 731.9,119.9 732.3,119.4 732.7,117.6 733.1,116.8 733.5,116.4 733.9,114.0 734.3,115.4 734.7,117.7 735.1,116.5 735.5,117.5 735.9,116.0 736.3,114.1 736.7,116.7 737.1,116.0 737.4,114.7 737.8,116.9 738.2,114.5 738.6,115.6 739.0,115.8 739.4,115.1 739.8,114.5 740.2,111.5 740.6,111.6 741.0,111.7 741.4,111.5 741.8,112.5 742.2,113.0 742.6,112.2 742.9,111.5 743.3,112.5 743.7,112.0 744.1,113.1 744.5,114.0 744.9,113.6 745.3,114.1 745.7,114.1 746.1,116.4 746.5,116.5 746.9,116.5 747.3,115.4 747.7,115.0 748.1,115.0 748.4,115.5 748.8,113.7 749.2,114.6 749.6,114.6 750.0,114.3 750.4,114.0 750.8,116.3 751.2,116.3 751.6,117.2 752.0,113.5 752.4,112.0 752.8,108.5 753.2,109.7 753.6,109.2 753.9,120.9 754.3,120.3 754.7,119.6 755.1,119.1 755.5,120.9 755.9,122.8 756.3,121.9 756.7,123.4 757.1,122.5 757.5,122.3 757.9,122.9 758.3,122.8 758.7,122.8 759.1,123.4 759.5,123.3 759.8,127.8 760.2,127.1 760.6,126.7 761.0,127.0 761.4,129.5 761.8,130.0 762.2,131.5 762.6,130.6 763.0,132.4 763.4,133.5 763.8,133.8 764.2,133.7 764.6,131.7 765.0,131.1 765.3,133.3 765.7,132.1 766.1,125.8 766.5,127.5 766.9,128.9 767.3,130.9 767.7,128.6 768.1,129.2 768.5,128.5 768.9,127.4 769.3,126.6 769.7,126.1 770.1,124.3 770.5,123.5 770.8,124.3 771.2,124.3 771.6,124.3 772.0,121.3 772.4,123.6 772.8,120.7 773.2,121.7 773.6,122.9 774.0,122.8 774.4,122.9 774.8,123.9 775.2,125.3 775.6,125.7 776.0,124.8 776.4,125.0 776.7,123.9 777.1,124.8 777.5,122.8 777.9,123.8 778.3,124.5 778.7,123.4 779.1,123.0 779.5,122.9 779.9,122.3 780.3,120.9 780.7,121.4 781.1,120.2 781.5,121.1 781.9,124.5 782.2,121.7 782.6,122.5 783.0,122.5 783.4,122.8 783.8,123.4 784.2,121.6 784.6,123.1 785.0,121.7 785.4,121.3 785.8,119.8 786.2,120.0 786.6,120.7 787.0,122.4 787.4,124.0 787.7,123.3 788.1,123.6 788.5,123.9 788.9,124.3 789.3,125.5 789.7,124.8 790.1,125.3 790.5,123.4 790.9,122.4 791.3,122.8 791.7,123.7 792.1,126.1 792.5,123.3 792.9,122.7 793.2,119.1 793.6,119.6 794.0,119.5 794.4,117.5 794.8,119.1 795.2,119.1 795.6,122.2 796.0,120.1"/><polyline fill="none" stroke="#16a34a" stroke-width="3" points="78.0,244.0 78.4,246.7 78.8,241.4 79.2,234.3 79.6,232.0 80.0,227.8 80.4,232.0 80.8,243.1 81.1,240.9 81.5,241.8 81.9,244.4 82.3,245.3 82.7,240.1 83.1,241.8 83.5,244.4 83.9,244.9 84.3,244.4 84.7,244.9 85.1,244.9 85.5,246.7 85.9,247.1 86.3,246.2 86.6,248.1 87.0,249.5 87.4,250.9 87.8,248.1 88.2,247.1 88.6,248.1 89.0,250.4 89.4,248.5 89.8,247.6 90.2,248.5 90.6,250.0 91.0,248.1 91.4,251.4 91.8,250.9 92.1,251.9 92.5,250.9 92.9,253.4 93.3,251.9 93.7,251.9 94.1,248.5 94.5,252.4 94.9,251.4 95.3,251.4 95.7,252.4 96.1,252.4 96.5,253.4 96.9,256.4 97.3,254.8 97.6,255.4 98.0,254.8 98.4,250.9 98.8,249.5 99.2,250.4 99.6,246.7 100.0,244.4 100.4,246.2 100.8,247.1 101.2,245.8 101.6,246.7 102.0,245.3 102.4,244.9 102.8,245.3 103.2,246.2 103.5,246.2 103.9,246.2 104.3,248.3 104.7,246.3 105.1,245.1 105.5,248.3 105.9,248.5 106.3,247.8 106.7,248.0 107.1,247.8 107.5,248.5 107.9,249.7 108.3,248.2 108.7,250.4 109.0,252.2 109.4,252.2 109.8,250.9 110.2,251.2 110.6,250.8 111.0,253.6 111.4,253.5 111.8,254.1 112.2,253.6 112.6,255.2 113.0,254.2 113.4,256.0 113.8,285.1 114.2,288.2 114.5,288.6 114.9,289.0 115.3,286.4 115.7,290.1 116.1,289.7 116.5,286.0 116.9,289.7 117.3,288.2 117.7,287.8 118.1,290.7 118.5,290.3 118.9,291.6 119.3,292.4 119.7,290.5 120.1,289.9 120.4,292.0 120.8,293.0 121.2,290.3 121.6,286.0 122.0,290.7 122.4,292.2 122.8,292.4 123.2,293.2 123.6,290.5 124.0,293.6 124.4,292.6 124.8,292.8 125.2,290.7 125.6,291.2 125.9,292.2 126.3,291.6 126.7,291.8 127.1,292.0 127.5,292.6 127.9,292.0 128.3,287.7 128.7,286.9 129.1,286.9 129.5,289.9 129.9,291.2 130.3,292.0 130.7,290.7 131.1,294.4 131.4,291.8 131.8,292.6 132.2,291.4 132.6,293.8 133.0,293.6 133.4,292.0 133.8,289.7 134.2,292.0 134.6,294.8 135.0,290.5 135.4,292.8 135.8,291.2 136.2,292.8 136.6,291.2 136.9,291.8 137.3,292.8 137.7,292.8 138.1,292.4 138.5,290.7 138.9,293.4 139.3,293.4 139.7,293.4 140.1,293.0 140.5,292.4 140.9,293.4 141.3,293.2 141.7,292.8 142.1,292.0 142.5,292.0 142.8,290.5 143.2,291.0 143.6,290.8 144.0,291.0 144.4,291.2 144.8,291.2 145.2,290.5 145.6,290.1 146.0,290.1 146.4,290.5 146.8,290.5 147.2,288.8 147.6,288.6 148.0,285.8 148.3,282.7 148.7,285.7 149.1,281.5 149.5,281.1 149.9,281.8 150.3,280.1 150.7,279.1 151.1,281.6 151.5,279.3 151.9,279.3 152.3,279.9 152.7,280.9 153.1,279.3 153.5,279.1 153.8,279.6 154.2,279.9 154.6,278.3 155.0,279.1 155.4,279.4 155.8,280.9 156.2,278.1 156.6,279.9 157.0,279.3 157.4,279.8 157.8,279.8 158.2,276.6 158.6,276.5 159.0,278.6 159.3,277.9 159.7,277.6 160.1,277.1 160.5,277.3 160.9,277.8 161.3,274.7 161.7,279.8 162.1,277.4 162.5,269.2 162.9,271.0 163.3,276.0 163.7,277.4 164.1,279.9 164.5,283.9 164.9,284.6 165.2,277.0 165.6,274.6 166.0,277.9 166.4,279.1 166.8,279.1 167.2,282.5 167.6,279.1 168.0,282.3 168.4,293.0 168.8,293.6 169.2,299.0 169.6,303.8 170.0,304.5 170.4,295.6 170.7,302.1 171.1,317.5 171.5,310.9 171.9,306.3 172.3,304.0 172.7,310.9 173.1,301.6 173.5,302.1 173.9,302.7 174.3,305.8 174.7,309.5 175.1,301.8 175.5,299.7 175.9,304.0 176.2,303.6 176.6,297.6 177.0,303.8 177.4,302.2 177.8,296.0 178.2,295.6 178.6,304.5 179.0,303.3 179.4,305.4 179.8,303.6 180.2,303.1 180.6,299.3 181.0,295.2 181.4,292.8 181.8,297.6 182.1,293.6 182.5,298.4 182.9,299.7 183.3,294.4 183.7,294.0 184.1,293.6 184.5,294.4 184.9,297.6 185.3,295.2 185.7,296.8 186.1,297.6 186.5,294.0 186.9,293.6 187.3,292.4 187.6,289.0 188.0,289.0 188.4,290.5 188.8,290.5 189.2,290.8 189.6,288.6 190.0,285.7 190.4,291.2 190.8,289.3 191.2,289.0 191.6,286.4 192.0,286.4 192.4,286.0 192.8,286.8 193.1,272.7 193.5,272.7 193.9,275.8 194.3,275.8 194.7,273.3 195.1,269.9 195.5,272.7 195.9,270.5 196.3,270.5 196.7,271.1 197.1,260.0 197.5,259.2 197.9,261.1 198.3,261.1 198.6,262.5 199.0,266.4 199.4,261.4 199.8,261.7 200.2,260.8 200.6,261.1 201.0,259.8 201.4,261.1 201.8,261.1 202.2,263.9 202.6,261.1 203.0,261.1 203.4,261.4 203.8,263.6 204.2,264.1 204.5,264.1 204.9,262.8 205.3,264.7 205.7,261.7 206.1,261.9 206.5,261.7 206.9,256.4 207.3,257.4 207.7,257.4 208.1,258.4 208.5,258.4 208.9,259.5 209.3,257.1 209.7,253.4 210.0,253.8 210.4,250.9 210.8,252.1 211.2,254.3 211.6,256.4 212.0,256.1 212.4,256.1 212.8,258.2 213.2,256.9 213.6,253.4 214.0,254.8 214.4,254.6 214.8,249.7 215.2,249.7 215.5,252.6 215.9,255.6 216.3,254.3 216.7,255.9 217.1,255.9 217.5,256.1 217.9,256.1 218.3,256.1 218.7,255.9 219.1,255.6 219.5,256.1 219.9,255.9 220.3,257.1 220.7,256.4 221.0,256.6 221.4,257.1 221.8,258.2 222.2,259.0 222.6,258.4 223.0,258.4 223.4,261.9 223.8,259.8 224.2,257.9 224.6,259.8 225.0,257.4 225.4,257.4 225.8,258.2 226.2,258.2 226.6,257.9 226.9,257.7 227.3,259.0 227.7,259.0 228.1,259.8 228.5,258.4 228.9,259.0 229.3,257.9 229.7,260.3 230.1,259.5 230.5,261.1 230.9,266.7 231.3,259.8 231.7,257.1 232.1,253.4 232.4,252.4 232.8,250.0 233.2,244.4 233.6,241.8 234.0,242.2 234.4,244.2 234.8,246.5 235.2,250.4 235.6,251.6 236.0,251.2 236.4,252.1 236.8,245.1 237.2,243.8 237.6,242.4 237.9,239.9 238.3,235.5 238.7,231.6 239.1,228.2 239.5,233.3 239.9,229.9 240.3,228.7 240.7,229.3 241.1,228.2 241.5,230.1 241.9,231.6 242.3,232.2 242.7,231.4 243.1,233.5 243.5,235.9 243.8,231.6 244.2,229.7 244.6,227.8 245.0,223.3 245.4,224.6 245.8,226.2 246.2,225.8 246.6,223.7 247.0,218.1 247.4,214.5 247.8,215.5 248.2,213.0 248.6,208.1 249.0,207.3 249.3,200.8 249.7,207.0 250.1,210.5 250.5,211.7 250.9,215.5 251.3,209.9 251.7,210.8 252.1,207.3 252.5,206.7 252.9,204.1 253.3,202.4 253.7,201.9 254.1,202.7 254.5,206.4 254.8,208.1 255.2,203.6 255.6,206.4 256.0,208.7 256.4,207.5 256.8,208.1 257.2,201.1 257.6,196.6 258.0,191.8 258.4,193.1 258.8,193.3 259.2,194.8 259.6,197.1 260.0,191.6 260.3,195.3 260.7,192.6 261.1,193.3 261.5,189.0 261.9,188.7 262.3,191.4 262.7,185.3 263.1,187.3 263.5,184.0 263.9,184.0 264.3,177.5 264.7,177.5 265.1,182.2 265.5,177.5 265.9,180.0 266.2,179.4 266.6,180.3 267.0,181.8 267.4,183.7 267.8,186.2 268.2,184.2 268.6,182.2 269.0,185.1 269.4,182.8 269.8,183.5 270.2,182.8 270.6,179.6 271.0,182.2 271.4,181.5 271.7,181.3 272.1,179.6 272.5,177.3 272.9,175.3 273.3,172.9 273.7,167.1 274.1,169.3 274.5,175.3 274.9,176.5 275.3,176.1 275.7,170.8 276.1,172.3 276.5,176.7 276.9,175.9 277.2,179.2 277.6,175.1 278.0,174.1 278.4,170.4 278.8,173.1 279.2,174.5 279.6,181.8 280.0,184.6 280.4,187.3 280.8,190.2 281.2,186.9 281.6,188.0 282.0,185.1 282.4,189.2 282.7,193.3 283.1,194.6 283.5,193.8 283.9,194.6 284.3,190.9 284.7,189.7 285.1,187.3 285.5,184.8 285.9,184.6 286.3,187.8 286.7,189.0 287.1,186.4 287.5,184.4 287.9,182.4 288.3,177.5 288.6,177.1 289.0,178.6 289.4,178.4 289.8,178.8 290.2,179.2 290.6,180.9 291.0,179.0 291.4,180.5 291.8,179.0 292.2,177.1 292.6,179.8 293.0,180.5 293.4,179.4 293.8,179.2 294.1,178.4 294.5,180.7 294.9,180.7 295.3,183.3 295.7,184.2 296.1,186.7 296.5,184.0 296.9,183.7 297.3,184.0 297.7,179.8 298.1,180.7 298.5,178.6 298.9,178.4 299.3,178.2 299.6,173.5 300.0,172.9 300.4,176.3 300.8,182.0 301.2,180.9 301.6,181.1 302.0,181.1 302.4,180.9 302.8,178.6 303.2,177.7 303.6,179.2 304.0,181.1 304.4,179.2 304.8,180.7 305.2,179.6 305.5,180.3 305.9,179.8 306.3,178.4 306.7,178.4 307.1,182.4 307.5,182.4 307.9,181.5 308.3,177.9 308.7,163.5 309.1,157.4 309.5,160.3 309.9,151.8 310.3,152.6 310.7,155.0 311.0,157.4 311.4,159.5 311.8,162.0 312.2,159.0 312.6,157.4 313.0,158.2 313.4,161.6 313.8,161.1 314.2,160.7 314.6,161.1 315.0,160.3 315.4,163.0 315.8,167.8 316.2,160.3 316.5,150.7 316.9,159.0 317.3,154.2 317.7,154.2 318.1,155.4 318.5,154.2 318.9,159.0 319.3,163.3 319.7,162.0 320.1,162.6 320.5,165.1 320.9,164.0 321.3,170.4 321.7,167.4 322.0,166.1 322.4,163.5 322.8,166.0 323.2,166.0 323.6,167.4 324.0,171.9 324.4,171.6 324.8,175.1 325.2,170.6 325.6,166.0 326.0,161.1 326.4,160.3 326.8,158.2 327.2,156.2 327.6,152.2 327.9,153.4 328.3,150.7 328.7,143.5 329.1,143.8 329.5,147.4 329.9,146.3 330.3,136.4 330.7,132.1 331.1,125.6 331.5,119.1 331.9,123.1 332.3,120.9 332.7,120.1 333.1,112.0 333.4,107.5 333.8,114.2 334.2,119.9 334.6,120.7 335.0,125.0 335.4,132.1 335.8,126.2 336.2,127.9 336.6,131.8 337.0,136.4 337.4,128.8 337.8,122.8 338.2,130.0 338.6,131.8 338.9,129.7 339.3,127.9 339.7,133.9 340.1,132.7 340.5,135.2 340.9,130.0 341.3,131.5 341.7,130.6 342.1,132.4 342.5,130.3 342.9,134.5 343.3,134.9 343.7,132.7 344.1,133.9 344.4,134.2 344.8,133.3 345.2,132.7 345.6,134.5 346.0,129.7 346.4,128.5 346.8,128.8 347.2,130.6 347.6,124.2 348.0,124.2 348.4,123.6 348.8,129.7 349.2,136.1 349.6,131.8 350.0,129.1 350.3,132.4 350.7,130.3 351.1,129.1 351.5,132.4 351.9,132.7 352.3,133.3 352.7,135.5 353.1,137.7 353.5,136.1 353.9,134.5 354.3,134.9 354.7,135.8 355.1,135.8 355.5,131.5 355.8,130.0 356.2,132.7 356.6,139.0 357.0,138.7 357.4,142.8 357.8,137.1 358.2,139.0 358.6,141.1 359.0,146.3 359.4,145.9 359.8,146.6 360.2,145.6 360.6,145.6 361.0,148.1 361.3,144.5 361.7,147.7 362.1,150.7 362.5,145.6 362.9,148.1 363.3,150.3 363.7,149.6 364.1,152.6 364.5,159.5 364.9,164.4 365.3,163.0 365.7,162.4 366.1,162.6 366.5,161.6 366.9,160.7 367.2,164.2 367.6,160.7 368.0,159.0 368.4,157.4 368.8,158.6 369.2,158.2 369.6,159.9 370.0,157.8 370.4,152.6 370.8,154.2 371.2,153.0 371.6,153.4 372.0,157.0 372.4,155.8 372.7,156.3 373.1,154.8 373.5,156.6 373.9,155.8 374.3,156.6 374.7,156.7 375.1,159.7 375.5,161.1 375.9,159.5 376.3,163.9 376.7,158.5 377.1,149.0 377.5,141.3 377.9,146.5 378.2,145.8 378.6,149.6 379.0,149.6 379.4,148.8 379.8,157.4 380.2,161.1 380.6,161.7 381.0,161.1 381.4,162.0 381.8,166.4 382.2,169.3 382.6,160.1 383.0,157.8 383.4,153.7 383.7,149.7 384.1,152.7 384.5,154.7 384.9,152.3 385.3,154.2 385.7,151.9 386.1,154.5 386.5,154.7 386.9,151.4 387.3,148.1 387.7,149.3 388.1,148.3 388.5,145.1 388.9,144.2 389.3,146.8 389.6,148.4 390.0,150.5 390.4,151.4 390.8,156.5 391.2,158.4 391.6,158.6 392.0,159.9 392.4,155.8 392.8,157.8 393.2,154.2 393.6,156.8 394.0,154.1 394.4,147.7 394.8,146.6 395.1,151.4 395.5,151.1 395.9,147.7 396.3,145.1 396.7,144.6 397.1,140.5 397.5,134.1 397.9,133.4 398.3,132.6 398.7,134.1 399.1,137.2 399.5,142.0 399.9,139.4 400.3,133.6 400.6,134.7 401.0,133.9 401.4,133.5 401.8,133.1 402.2,129.1 402.6,131.6 403.0,132.0 403.4,131.3 403.8,129.0 404.2,132.2 404.6,136.0 405.0,132.9 405.4,131.8 405.8,135.1 406.1,133.7 406.5,137.3 406.9,135.4 407.3,135.8 407.7,133.9 408.1,130.2 408.5,130.2 408.9,131.0 409.3,131.5 409.7,130.4 410.1,136.0 410.5,140.6 410.9,140.6 411.3,134.1 411.7,136.5 412.0,141.7 412.4,144.4 412.8,144.1 413.2,146.4 413.6,143.0 414.0,145.6 414.4,145.9 414.8,139.9 415.2,133.7 415.6,132.7 416.0,132.9 416.4,131.6 416.8,128.6 417.2,129.1 417.5,129.1 417.9,127.6 418.3,131.5 418.7,131.6 419.1,130.8 419.5,130.9 419.9,134.5 420.3,134.1 420.7,133.0 421.1,135.4 421.5,133.7 421.9,133.5 422.3,133.5 422.7,135.9 423.0,137.4 423.4,138.9 423.8,136.0 424.2,136.8 424.6,136.5 425.0,136.3 425.4,138.4 425.8,137.4 426.2,138.5 426.6,135.4 427.0,137.2 427.4,150.2 427.8,153.9 428.2,151.7 428.6,142.7 428.9,144.1 429.3,138.4 429.7,142.7 430.1,143.8 430.5,145.9 430.9,146.9 431.3,145.8 431.7,145.2 432.1,143.4 432.5,145.3 432.9,141.3 433.3,142.1 433.7,140.2 434.1,140.6 434.4,145.3 434.8,144.1 435.2,142.1 435.6,138.6 436.0,135.2 436.4,134.7 436.8,134.5 437.2,133.6 437.6,136.0 438.0,136.4 438.4,139.3 438.8,137.8 439.2,140.1 439.6,138.9 439.9,141.2 440.3,142.0 440.7,141.7 441.1,142.8 441.5,140.6 441.9,137.0 442.3,134.6 442.7,137.2 443.1,138.9 443.5,137.3 443.9,138.6 444.3,135.9 444.7,138.0 445.1,135.8 445.4,135.0 445.8,137.2 446.2,136.7 446.6,133.9 447.0,129.9 447.4,129.9 447.8,132.6 448.2,131.8 448.6,132.9 449.0,133.0 449.4,135.1 449.8,136.3 450.2,136.4 450.6,135.1 451.0,135.5 451.3,132.0 451.7,130.5 452.1,130.3 452.5,124.6 452.9,123.9 453.3,124.7 453.7,121.1 454.1,123.7 454.5,123.8 454.9,123.5 455.3,121.9 455.7,121.8 456.1,120.3 456.5,119.8 456.8,118.1 457.2,116.6 457.6,120.2 458.0,124.3 458.4,115.7 458.8,112.6 459.2,109.5 459.6,106.9 460.0,105.1 460.4,109.9 460.8,113.4 461.2,111.0 461.6,109.2 462.0,112.0 462.3,111.0 462.7,107.2 463.1,110.4 463.5,112.6 463.9,112.6 464.3,107.0 464.7,107.9 465.1,106.5 465.5,109.3 465.9,110.6 466.3,111.0 466.7,108.3 467.1,110.0 467.5,108.9 467.9,109.0 468.2,110.4 468.6,110.0 469.0,110.3 469.4,108.4 469.8,108.3 470.2,104.5 470.6,107.8 471.0,108.1 471.4,106.4 471.8,105.1 472.2,102.5 472.6,99.8 473.0,100.7 473.4,112.2 473.7,109.2 474.1,110.2 474.5,109.2 474.9,105.4 475.3,103.5 475.7,100.0 476.1,102.7 476.5,103.3 476.9,102.5 477.3,98.4 477.7,101.5 478.1,105.5 478.5,107.8 478.9,111.8 479.2,113.3 479.6,115.6 480.0,111.2 480.4,111.1 480.8,109.9 481.2,108.9 481.6,105.9 482.0,108.6 482.4,112.6 482.8,113.1 483.2,113.4 483.6,114.2 484.0,112.6 484.4,111.2 484.7,111.5 485.1,113.4 485.5,113.1 485.9,111.6 486.3,114.5 486.7,120.3 487.1,120.4 487.5,117.2 487.9,116.4 488.3,111.2 488.7,109.8 489.1,108.4 489.5,105.4 489.9,103.1 490.3,101.3 490.6,104.6 491.0,102.6 491.4,101.5 491.8,99.0 492.2,95.7 492.6,91.2 493.0,92.0 493.4,97.3 493.8,94.7 494.2,95.3 494.6,89.9 495.0,88.7 495.4,88.2 495.8,88.9 496.1,91.0 496.5,92.2 496.9,90.4 497.3,88.6 497.7,89.9 498.1,90.2 498.5,92.9 498.9,97.7 499.3,95.1 499.7,95.9 500.1,92.5 500.5,93.7 500.9,95.5 501.3,94.1 501.6,89.1 502.0,84.9 502.4,82.0 502.8,84.0 503.2,83.0 503.6,83.9 504.0,84.2 504.4,83.0 504.8,85.1 505.2,87.8 505.6,88.2 506.0,88.6 506.4,89.5 506.8,90.8 507.1,89.9 507.5,91.4 507.9,90.2 508.3,92.5 508.7,92.0 509.1,91.4 509.5,89.1 509.9,90.4 510.3,88.6 510.7,89.7 511.1,89.9 511.5,89.9 511.9,88.6 512.3,89.1 512.7,86.9 513.0,83.7 513.4,81.4 513.8,84.4 514.2,90.6 514.6,93.7 515.0,91.8 515.4,90.2 515.8,90.6 516.2,91.0 516.6,93.5 517.0,91.8 517.4,89.5 517.8,85.1 518.2,86.0 518.5,85.1 518.9,87.5 519.3,92.2 519.7,91.6 520.1,92.2 520.5,92.9 520.9,99.0 521.3,100.9 521.7,101.3 522.1,102.1 522.5,100.9 522.9,102.8 523.3,99.2 523.7,99.0 524.0,99.6 524.4,104.1 524.8,103.6 525.2,102.2 525.6,106.3 526.0,105.5 526.4,105.0 526.8,98.4 527.2,95.9 527.6,105.8 528.0,102.4 528.4,102.5 528.8,99.4 529.2,99.6 529.6,100.3 529.9,94.1 530.3,95.5 530.7,96.9 531.1,95.9 531.5,95.7 531.9,93.7 532.3,94.7 532.7,94.3 533.1,88.6 533.5,89.3 533.9,90.6 534.3,85.8 534.7,86.2 535.1,84.4 535.4,88.6 535.8,86.0 536.2,88.2 536.6,90.8 537.0,93.3 537.4,95.7 537.8,94.9 538.2,96.3 538.6,93.7 539.0,92.5 539.4,90.6 539.8,89.7 540.2,86.7 540.6,84.4 540.9,82.5 541.3,84.8 541.7,81.6 542.1,82.1 542.5,87.1 542.9,87.6 543.3,87.5 543.7,88.4 544.1,88.7 544.5,85.1 544.9,85.5 545.3,83.2 545.7,86.5 546.1,88.0 546.4,87.1 546.8,89.5 547.2,87.8 547.6,92.4 548.0,92.4 548.4,93.5 548.8,91.2 549.2,89.5 549.6,91.8 550.0,93.5 550.4,91.8 550.8,93.3 551.2,93.1 551.6,92.0 552.0,92.0 552.3,93.1 552.7,94.1 553.1,90.8 553.5,91.8 553.9,92.0 554.3,91.8 554.7,92.2 555.1,92.5 555.5,94.1 555.9,90.4 556.3,86.4 556.7,83.5 557.1,83.3 557.5,82.1 557.8,76.5 558.2,77.9 558.6,76.6 559.0,80.9 559.4,93.5 559.8,90.4 560.2,93.7 560.6,93.5 561.0,93.1 561.4,94.1 561.8,96.1 562.2,92.2 562.6,92.5 563.0,91.0 563.3,87.5 563.7,90.4 564.1,91.0 564.5,91.8 564.9,92.9 565.3,93.3 565.7,95.7 566.1,98.4 566.5,96.1 566.9,97.3 567.3,98.4 567.7,97.7 568.1,96.5 568.5,95.7 568.8,92.9 569.2,93.9 569.6,92.9 570.0,93.3 570.4,93.5 570.8,92.7 571.2,94.1 571.6,93.9 572.0,94.1 572.4,96.5 572.8,99.2 573.2,98.2 573.6,98.2 574.0,100.0 574.4,97.7 574.7,96.9 575.1,93.1 575.5,94.5 575.9,98.4 576.3,102.5 576.7,101.1 577.1,102.4 577.5,100.0 577.9,101.5 578.3,101.3 578.7,103.2 579.1,102.4 579.5,100.7 579.9,99.6 580.2,99.4 580.6,97.5 581.0,97.3 581.4,96.1 581.8,96.9 582.2,96.5 582.6,95.9 583.0,94.9 583.4,96.1 583.8,92.9 584.2,93.5 584.6,94.5 585.0,94.5 585.4,95.1 585.7,94.7 586.1,94.3 586.5,93.7 586.9,95.5 587.3,95.5 587.7,95.5 588.1,95.3 588.5,96.3 588.9,98.0 589.3,97.7 589.7,100.0 590.1,101.5 590.5,101.3 590.9,101.5 591.3,102.0 591.6,102.2 592.0,100.7 592.4,102.0 592.8,103.5 593.2,99.8 593.6,101.3 594.0,100.5 594.4,102.6 594.8,101.3 595.2,102.5 595.6,101.1 596.0,103.7 596.4,103.5 596.8,102.4 597.1,102.3 597.5,99.6 597.9,101.8 598.3,100.3 598.7,101.5 599.1,101.3 599.5,100.5 599.9,107.3 600.3,107.9 600.7,104.3 601.1,103.3 601.5,102.1 601.9,103.6 602.3,103.9 602.6,101.5 603.0,103.5 603.4,106.6 603.8,108.5 604.2,107.6 604.6,105.8 605.0,104.2 605.4,102.8 605.8,104.7 606.2,104.2 606.6,104.0 607.0,102.8 607.4,103.5 607.8,103.5 608.1,103.6 608.5,103.6 608.9,105.9 609.3,105.7 609.7,104.9 610.1,105.1 610.5,103.7 610.9,103.5 611.3,102.9 611.7,102.9 612.1,104.5 612.5,104.5 612.9,105.5 613.3,106.9 613.7,106.4 614.0,106.2 614.4,107.8 614.8,106.6 615.2,103.4 615.6,103.7 616.0,103.2 616.4,104.0 616.8,105.1 617.2,107.1 617.6,106.7 618.0,107.3 618.4,106.7 618.8,105.7 619.2,104.0 619.5,105.5 619.9,104.3 620.3,105.1 620.7,104.4 621.1,104.5 621.5,104.4 621.9,103.9 622.3,104.2 622.7,105.1 623.1,104.2 623.5,104.5 623.9,103.5 624.3,104.0 624.7,103.3 625.0,104.0 625.4,103.7 625.8,104.9 626.2,104.8 626.6,104.7 627.0,104.7 627.4,104.7 627.8,104.3 628.2,104.5 628.6,104.4 629.0,105.0 629.4,105.5 629.8,105.8 630.2,106.4 630.5,106.9 630.9,107.1 631.3,109.6 631.7,109.6 632.1,110.8 632.5,110.1 632.9,111.1 633.3,112.8 633.7,115.1 634.1,116.4 634.5,117.2 634.9,116.0 635.3,117.2 635.7,117.6 636.1,117.2 636.4,115.9 636.8,116.5 637.2,117.4 637.6,117.2 638.0,117.1 638.4,118.2 638.8,117.1 639.2,117.1 639.6,117.1 640.0,117.2 640.4,117.1 640.8,116.1 641.2,117.8 641.6,118.1 641.9,115.2 642.3,117.0 642.7,117.6 643.1,117.0 643.5,117.0 643.9,118.5 644.3,115.3 644.7,114.4 645.1,114.3 645.5,115.9 645.9,116.7 646.3,118.6 646.7,120.4 647.1,119.2 647.4,117.8 647.8,117.6 648.2,117.9 648.6,118.6 649.0,120.5 649.4,119.9 649.8,120.6 650.2,121.3 650.6,121.4 651.0,119.8 651.4,118.9 651.8,116.8 652.2,116.8 652.6,119.3 653.0,117.8 653.3,115.9 653.7,114.8 654.1,112.0 654.5,112.1 654.9,112.7 655.3,112.6 655.7,111.5 656.1,112.7 656.5,121.3 656.9,122.1 657.3,121.3 657.7,120.2 658.1,122.9 658.5,117.8 658.8,118.1 659.2,116.1 659.6,116.7 660.0,120.6 660.4,121.0 660.8,123.9 661.2,122.2 661.6,123.2 662.0,123.5 662.4,123.0 662.8,117.1 663.2,120.8 663.6,120.8 664.0,119.8 664.3,119.6 664.7,119.3 665.1,120.5 665.5,121.4 665.9,122.9 666.3,122.4 666.7,121.3 667.1,118.7 667.5,116.0 667.9,113.5 668.3,116.4 668.7,116.0 669.1,118.5 669.5,111.7 669.8,111.7 670.2,122.5 670.6,120.2 671.0,124.7 671.4,118.8 671.8,116.1 672.2,118.5 672.6,119.6 673.0,117.5 673.4,119.8 673.8,123.9 674.2,123.7 674.6,123.0 675.0,122.8 675.4,121.3 675.7,122.9 676.1,121.8 676.5,122.8 676.9,123.9 677.3,125.3 677.7,124.3 678.1,124.2 678.5,122.9 678.9,121.1 679.3,121.0 679.7,121.6 680.1,121.6 680.5,124.2 680.9,126.8 681.2,126.1 681.6,130.4 682.0,132.1 682.4,133.6 682.8,133.0 683.2,133.2 683.6,132.7 684.0,133.6 684.4,133.5 684.8,132.1 685.2,132.1 685.6,132.0 686.0,132.0 686.4,132.2 686.7,132.1 687.1,131.4 687.5,131.9 687.9,131.1 688.3,132.2 688.7,130.7 689.1,130.7 689.5,130.4 689.9,130.4 690.3,128.8 690.7,125.7 691.1,124.9 691.5,126.3 691.9,126.9 692.2,125.9 692.6,125.3 693.0,125.4 693.4,126.3 693.8,126.9 694.2,125.7 694.6,123.3 695.0,121.5 695.4,120.5 695.8,119.7 696.2,120.1 696.6,117.9 697.0,116.1 697.4,124.2 697.8,124.6 698.1,123.3 698.5,120.2 698.9,121.3 699.3,120.4 699.7,123.3 700.1,124.3 700.5,126.8 700.9,126.9 701.3,126.7 701.7,126.1 702.1,126.3 702.5,124.5 702.9,126.8 703.3,126.8 703.6,126.7 704.0,127.6 704.4,129.0 704.8,129.1 705.2,133.1 705.6,133.4 706.0,131.4 706.4,131.1 706.8,130.2 707.2,130.9 707.6,131.8 708.0,129.9 708.4,129.0 708.8,131.8 709.1,128.4 709.5,129.0 709.9,129.5 710.3,129.0 710.7,128.4 711.1,127.3 711.5,128.6 711.9,126.0 712.3,127.3 712.7,126.0 713.1,127.0 713.5,126.7 713.9,126.9 714.3,126.5 714.7,126.5 715.0,127.5 715.4,127.0 715.8,124.6 716.2,122.5 716.6,126.5 717.0,121.8 717.4,123.4 717.8,124.9 718.2,125.2 718.6,122.8 719.0,124.0 719.4,117.9 719.8,119.2 720.2,127.2 720.5,128.0 720.9,128.0 721.3,128.8 721.7,128.4 722.1,128.0 722.5,128.8 722.9,109.1 723.3,108.1 723.7,112.2 724.1,112.5 724.5,109.9 724.9,111.6 725.3,111.6 725.7,111.6 726.0,111.8 726.4,111.9 726.8,114.6 727.2,115.0 727.6,116.9 728.0,115.3 728.4,119.2 728.8,116.5 729.2,117.9 729.6,116.8 730.0,117.2 730.4,117.2 730.8,117.1 731.2,120.1 731.5,120.0 731.9,119.5 732.3,118.9 732.7,117.2 733.1,116.4 733.5,115.9 733.9,113.5 734.3,114.9 734.7,117.3 735.1,116.0 735.5,117.1 735.9,115.5 736.3,113.6 736.7,116.3 737.1,115.5 737.4,114.2 737.8,116.5 738.2,114.0 738.6,115.1 739.0,115.3 739.4,114.6 739.8,114.0 740.2,111.1 740.6,111.2 741.0,111.3 741.4,111.1 741.8,112.1 742.2,112.6 742.6,111.8 742.9,111.1 743.3,112.1 743.7,111.6 744.1,112.6 744.5,113.5 744.9,113.1 745.3,113.6 745.7,113.6 746.1,115.9 746.5,116.0 746.9,116.0 747.3,114.9 747.7,114.5 748.1,114.5 748.4,115.0 748.8,113.2 749.2,114.1 749.6,114.1 750.0,113.8 750.4,113.5 750.8,115.8 751.2,115.8 751.6,116.8 752.0,113.0 752.4,111.6 752.8,108.1 753.2,109.3 753.6,108.8 753.9,120.4 754.3,119.9 754.7,119.2 755.1,118.6 755.5,120.4 755.9,122.4 756.3,121.5 756.7,122.9 757.1,122.1 757.5,121.8 757.9,122.5 758.3,122.4 758.7,122.4 759.1,122.9 759.5,122.8 759.8,127.3 760.2,126.7 760.6,126.3 761.0,126.5 761.4,129.1 761.8,129.6 762.2,131.0 762.6,130.2 763.0,132.0 763.4,133.1 763.8,133.4 764.2,133.2 764.6,131.3 765.0,130.7 765.3,132.9 765.7,131.6 766.1,125.4 766.5,127.1 766.9,128.5 767.3,130.4 767.7,128.2 768.1,128.8 768.5,128.0 768.9,127.0 769.3,126.2 769.7,125.6 770.1,123.8 770.5,123.0 770.8,123.8 771.2,123.8 771.6,123.8 772.0,120.9 772.4,123.2 772.8,120.2 773.2,121.3 773.6,122.5 774.0,122.4 774.4,122.5 774.8,123.5 775.2,124.8 775.6,125.3 776.0,124.4 776.4,124.6 776.7,123.5 777.1,124.4 777.5,122.4 777.9,123.4 778.3,124.0 778.7,122.9 779.1,122.6 779.5,122.5 779.9,121.8 780.3,120.4 780.7,121.0 781.1,119.8 781.5,120.6 781.9,124.0 782.2,121.3 782.6,122.1 783.0,122.1 783.4,122.4 783.8,122.9 784.2,121.2 784.6,122.7 785.0,121.3 785.4,120.9 785.8,119.4 786.2,119.6 786.6,120.2 787.0,121.9 787.4,123.6 787.7,122.8 788.1,123.2 788.5,123.5 788.9,123.8 789.3,125.1 789.7,124.4 790.1,124.8 790.5,122.9 790.9,121.9 791.3,122.4 791.7,123.3 792.1,125.6 792.5,122.8 792.9,122.3 793.2,118.6 793.6,119.2 794.0,119.1 794.4,117.1 794.8,118.6 795.2,118.6 795.6,121.7 796.0,119.7"/>
<text x="78" y="392" font-size="11" fill="#16a34a">Total return +320.0%</text><text x="268" y="392" font-size="11" fill="#2563eb">Price-only +317.9%</text><text x="78" y="362" font-size="11" text-anchor="middle" fill="#64748b">2019-04</text><text x="258" y="362" font-size="11" text-anchor="middle" fill="#64748b">2021-02</text><text x="437" y="362" font-size="11" text-anchor="middle" fill="#64748b">2022-11</text><text x="617" y="362" font-size="11" text-anchor="middle" fill="#64748b">2024-09</text><text x="796" y="362" font-size="11" text-anchor="middle" fill="#64748b">2026-07</text></svg>