<svg xmlns="http://www.w3.org/2000/svg" width="820" height="410" viewBox="0 0 820 410">
<rect width="820" height="410" fill="#fafafa"/><text x="78" y="22" font-size="14" font-family="sans-serif" fill="#0f172a">TEQ.ST cumulative return since 2019-04-04 | dividends reinvested</text>
<text x="78" y="40" font-size="11" font-family="sans-serif" fill="#334155">Total return +322.6% | Price-only +320.5% | logarithmic scale</text>
<text x="78" y="54" font-size="9" font-family="sans-serif" fill="#64748b">Regular $0.50 | Special $0.00 | Other $0.00 per initial share path</text>
<line x1="78" y1="332.0" x2="796" y2="332.0" stroke="#e2e8f0"/><text x="70" y="336.0" font-size="10" text-anchor="end" fill="#64748b">-63.8%</text><line x1="78" y1="287.0" x2="796" y2="287.0" stroke="#e2e8f0"/><text x="70" y="291.0" font-size="10" text-anchor="end" fill="#64748b">-39.1%</text><line x1="78" y1="244.0" x2="796" y2="244.0" stroke="#e2e8f0"/><text x="70" y="248.0" font-size="10" text-anchor="end" fill="#64748b">0%</text><line x1="78" y1="242.0" x2="796" y2="242.0" stroke="#e2e8f0"/><text x="70" y="246.0" font-size="10" text-anchor="end" fill="#64748b">+2.3%</text><line x1="78" y1="197.0" x2="796" y2="197.0" stroke="#e2e8f0"/><text x="70" y="201.0" font-size="10" text-anchor="end" fill="#64748b">+72.0%</text><line x1="78" y1="152.0" x2="796" y2="152.0" stroke="#e2e8f0"/><text x="70" y="156.0" font-size="10" text-anchor="end" fill="#64748b">+189.2%</text><line x1="78" y1="107.0" x2="796" y2="107.0" stroke="#e2e8f0"/><text x="70" y="111.0" font-size="10" text-anchor="end" fill="#64748b">+386.3%</text><line x1="78" y1="62.0" x2="796" y2="62.0" stroke="#e2e8f0"/><text x="70" y="66.0" font-size="10" text-anchor="end" fill="#64748b">+717.7%</text>
<line x1="78" y1="332" x2="796" y2="332" stroke="#cbd5e1"/>
<polyline fill="none" stroke="#2563eb" stroke-width="2" points="78.0,244.0 78.4,246.7 78.8,241.4 79.2,234.3 79.6,232.0 80.0,227.8 80.4,232.0 80.8,243.1 81.2,240.9 81.5,241.8 81.9,244.4 82.3,245.3 82.7,240.1 83.1,241.8 83.5,244.4 83.9,244.9 84.3,244.4 84.7,244.9 85.1,244.9 85.5,246.7 85.9,247.1 86.3,246.2 86.7,248.1 87.1,249.5 87.5,250.9 87.9,248.1 88.3,247.1 88.6,248.1 89.0,250.4 89.4,248.5 89.8,247.6 90.2,248.5 90.6,250.0 91.0,248.1 91.4,251.4 91.8,250.9 92.2,251.9 92.6,250.9 93.0,253.4 93.4,251.9 93.8,251.9 94.2,248.5 94.6,252.4 95.0,251.4 95.3,251.4 95.7,252.4 96.1,252.4 96.5,253.4 96.9,256.4 97.3,254.8 97.7,255.4 98.1,254.8 98.5,250.9 98.9,249.5 99.3,250.4 99.7,246.7 100.1,244.4 100.5,246.2 100.9,247.1 101.3,245.8 101.7,246.7 102.1,245.3 102.4,244.9 102.8,245.3 103.2,246.2 103.6,246.2 104.0,246.2 104.4,248.3 104.8,246.3 105.2,245.1 105.6,248.3 106.0,248.5 106.4,247.8 106.8,248.0 107.2,247.8 107.6,248.5 108.0,249.7 108.4,248.2 108.8,250.4 109.1,252.2 109.5,252.2 109.9,250.9 110.3,251.2 110.7,250.8 111.1,253.6 111.5,253.5 111.9,254.1 112.3,253.6 112.7,255.2 113.1,254.2 113.5,256.0 113.9,285.1 114.3,288.2 114.7,288.6 115.1,289.0 115.5,286.4 115.9,290.1 116.2,289.7 116.6,286.0 117.0,289.7 117.4,288.2 117.8,287.8 118.2,290.7 118.6,290.3 119.0,291.6 119.4,292.4 119.8,290.5 120.2,289.9 120.6,292.0 121.0,293.0 121.4,290.3 121.8,286.0 122.2,290.7 122.6,292.2 122.9,292.4 123.3,293.2 123.7,290.5 124.1,293.6 124.5,292.6 124.9,292.8 125.3,290.7 125.7,291.2 126.1,292.2 126.5,291.6 126.9,291.8 127.3,292.0 127.7,292.6 128.1,292.0 128.5,287.7 128.9,286.9 129.3,286.9 129.7,289.9 130.0,291.2 130.4,292.0 130.8,290.7 131.2,294.4 131.6,291.8 132.0,292.6 132.4,291.4 132.8,293.8 133.2,293.6 133.6,292.0 134.0,289.7 134.4,292.0 134.8,294.8 135.2,290.5 135.6,292.8 136.0,291.2 136.4,292.8 136.7,291.2 137.1,291.8 137.5,292.8 137.9,292.8 138.3,292.4 138.7,290.7 139.1,293.4 139.5,293.4 139.9,293.4 140.3,293.0 140.7,292.4 141.1,293.4 141.5,293.2 141.9,292.8 142.3,292.0 142.7,292.0 143.1,290.5 143.5,291.0 143.8,290.8 144.2,291.0 144.6,291.2 145.0,291.2 145.4,290.5 145.8,290.1 146.2,290.1 146.6,290.5 147.0,290.5 147.4,288.8 147.8,288.6 148.2,285.8 148.6,282.7 149.0,285.7 149.4,281.5 149.8,281.1 150.2,281.8 150.5,280.1 150.9,279.1 151.3,281.6 151.7,279.3 152.1,279.3 152.5,279.9 152.9,280.9 153.3,279.3 153.7,279.1 154.1,279.6 154.5,279.9 154.9,278.3 155.3,279.1 155.7,279.4 156.1,280.9 156.5,278.1 156.9,279.9 157.3,279.3 157.6,279.8 158.0,279.8 158.4,276.6 158.8,276.5 159.2,278.6 159.6,277.9 160.0,277.6 160.4,277.1 160.8,277.3 161.2,277.8 161.6,274.7 162.0,279.8 162.4,277.4 162.8,269.2 163.2,271.0 163.6,276.0 164.0,277.4 164.3,279.9 164.7,283.9 165.1,284.6 165.5,277.0 165.9,274.6 166.3,277.9 166.7,279.1 167.1,279.1 167.5,282.5 167.9,279.1 168.3,282.3 168.7,293.0 169.1,293.6 169.5,299.0 169.9,303.8 170.3,304.5 170.7,295.6 171.1,302.1 171.4,317.5 171.8,310.9 172.2,306.3 172.6,304.0 173.0,310.9 173.4,301.6 173.8,302.1 174.2,302.7 174.6,305.8 175.0,309.5 175.4,301.8 175.8,299.7 176.2,304.0 176.6,303.6 177.0,297.6 177.4,303.8 177.8,302.2 178.1,296.0 178.5,295.6 178.9,304.5 179.3,303.3 179.7,305.4 180.1,303.6 180.5,303.1 180.9,299.3 181.3,295.2 181.7,292.8 182.1,297.6 182.5,293.6 182.9,298.4 183.3,299.7 183.7,294.4 184.1,294.0 184.5,293.6 184.9,294.4 185.2,297.6 185.6,295.2 186.0,296.8 186.4,297.6 186.8,294.0 187.2,293.6 187.6,292.4 188.0,289.0 188.4,289.0 188.8,290.5 189.2,290.5 189.6,290.8 190.0,288.6 190.4,285.7 190.8,291.2 191.2,289.3 191.6,289.0 191.9,286.4 192.3,286.4 192.7,286.0 193.1,286.8 193.5,272.7 193.9,272.7 194.3,275.8 194.7,275.8 195.1,273.3 195.5,269.9 195.9,272.7 196.3,270.5 196.7,270.5 197.1,271.1 197.5,260.0 197.9,259.2 198.3,261.1 198.7,261.1 199.0,262.5 199.4,266.4 199.8,261.4 200.2,261.7 200.6,260.8 201.0,261.1 201.4,259.8 201.8,261.1 202.2,261.1 202.6,263.9 203.0,261.1 203.4,261.1 203.8,261.4 204.2,263.6 204.6,264.1 205.0,264.1 205.4,262.8 205.7,264.7 206.1,261.7 206.5,261.9 206.9,261.7 207.3,256.4 207.7,257.4 208.1,257.4 208.5,258.4 208.9,258.4 209.3,259.5 209.7,257.1 210.1,253.4 210.5,253.8 210.9,250.9 211.3,252.1 211.7,254.3 212.1,256.4 212.5,256.1 212.8,256.1 213.2,258.2 213.6,256.9 214.0,253.4 214.4,254.8 214.8,254.6 215.2,249.7 215.6,249.7 216.0,252.6 216.4,255.6 216.8,254.3 217.2,255.9 217.6,255.9 218.0,256.1 218.4,256.1 218.8,256.1 219.2,255.9 219.5,255.6 219.9,256.1 220.3,255.9 220.7,257.1 221.1,256.4 221.5,256.6 221.9,257.1 222.3,258.2 222.7,259.0 223.1,258.4 223.5,258.4 223.9,261.9 224.3,259.8 224.7,257.9 225.1,259.8 225.5,257.4 225.9,257.4 226.3,258.2 226.6,258.2 227.0,257.9 227.4,257.7 227.8,259.0 228.2,259.0 228.6,259.8 229.0,258.4 229.4,259.0 229.8,257.9 230.2,260.3 230.6,259.5 231.0,261.1 231.4,266.7 231.8,259.8 232.2,257.1 232.6,253.4 233.0,252.4 233.3,250.0 233.7,244.4 234.1,241.8 234.5,242.2 234.9,244.2 235.3,246.5 235.7,250.4 236.1,251.6 236.5,251.2 236.9,252.1 237.3,245.1 237.7,243.8 238.1,242.4 238.5,239.9 238.9,235.5 239.3,231.6 239.7,228.2 240.1,233.3 240.4,229.9 240.8,228.7 241.2,229.3 241.6,228.2 242.0,230.1 242.4,231.6 242.8,232.2 243.2,231.4 243.6,233.5 244.0,235.9 244.4,231.6 244.8,229.7 245.2,227.8 245.6,223.3 246.0,224.6 246.4,226.2 246.8,225.8 247.1,223.7 247.5,218.1 247.9,214.5 248.3,215.5 248.7,213.0 249.1,208.1 249.5,207.3 249.9,200.8 250.3,207.0 250.7,210.5 251.1,211.7 251.5,215.5 251.9,209.9 252.3,210.8 252.7,207.3 253.1,206.7 253.5,204.1 253.9,202.4 254.2,201.9 254.6,202.7 255.0,206.4 255.4,208.1 255.8,203.6 256.2,206.4 256.6,208.7 257.0,207.5 257.4,208.1 257.8,201.1 258.2,196.6 258.6,191.8 259.0,193.1 259.4,193.3 259.8,194.8 260.2,197.1 260.6,191.6 261.0,195.3 261.3,192.6 261.7,193.3 262.1,189.0 262.5,188.7 262.9,191.4 263.3,185.3 263.7,187.3 264.1,184.0 264.5,184.0 264.9,177.5 265.3,177.5 265.7,182.2 266.1,177.5 266.5,180.0 266.9,179.4 267.3,180.3 267.7,181.8 268.0,183.7 268.4,186.2 268.8,184.2 269.2,182.2 269.6,185.1 270.0,182.8 270.4,183.5 270.8,182.8 271.2,179.6 271.6,182.2 272.0,181.5 272.4,181.3 272.8,179.6 273.2,177.3 273.6,175.3 274.0,172.9 274.4,167.1 274.8,169.3 275.1,175.3 275.5,176.5 275.9,176.1 276.3,170.8 276.7,172.3 277.1,176.7 277.5,175.9 277.9,179.2 278.3,175.1 278.7,174.1 279.1,170.4 279.5,173.1 279.9,174.5 280.3,181.8 280.7,184.6 281.1,187.3 281.5,190.2 281.8,186.9 282.2,188.0 282.6,185.1 283.0,189.2 283.4,193.3 283.8,194.6 284.2,193.8 284.6,194.6 285.0,190.9 285.4,189.7 285.8,187.3 286.2,184.8 286.6,184.6 287.0,187.8 287.4,189.0 287.8,186.4 288.2,184.4 288.6,182.4 288.9,177.5 289.3,177.1 289.7,178.6 290.1,178.4 290.5,178.8 290.9,179.2 291.3,180.9 291.7,179.0 292.1,180.5 292.5,179.0 292.9,177.1 293.3,179.8 293.7,180.5 294.1,179.4 294.5,179.2 294.9,178.4 295.3,180.7 295.6,180.7 296.0,183.3 296.4,184.2 296.8,186.7 297.2,184.0 297.6,183.7 298.0,184.0 298.4,179.8 298.8,180.7 299.2,178.6 299.6,178.4 300.0,178.2 300.4,173.5 300.8,172.9 301.2,176.3 301.6,182.0 302.0,180.9 302.4,181.1 302.7,181.1 303.1,180.9 303.5,178.6 303.9,177.7 304.3,179.2 304.7,181.1 305.1,179.2 305.5,180.7 305.9,179.6 306.3,180.3 306.7,179.8 307.1,178.4 307.5,178.4 307.9,182.4 308.3,182.4 308.7,181.5 309.1,177.9 309.4,163.5 309.8,157.4 310.2,160.3 310.6,151.8 311.0,152.6 311.4,155.0 311.8,157.4 312.2,159.5 312.6,162.0 313.0,159.0 313.4,157.4 313.8,158.2 314.2,161.6 314.6,161.1 315.0,160.7 315.4,161.1 315.8,160.3 316.2,163.0 316.5,167.8 316.9,160.3 317.3,150.7 317.7,159.0 318.1,154.2 318.5,154.2 318.9,155.4 319.3,154.2 319.7,159.0 320.1,163.3 320.5,162.0 320.9,162.6 321.3,165.1 321.7,164.0 322.1,170.4 322.5,167.4 322.9,166.1 323.2,163.5 323.6,166.0 324.0,166.0 324.4,167.4 324.8,171.9 325.2,171.6 325.6,175.1 326.0,170.6 326.4,166.0 326.8,161.1 327.2,160.3 327.6,158.2 328.0,156.2 328.4,152.2 328.8,153.4 329.2,150.7 329.6,143.5 330.0,143.8 330.3,147.4 330.7,146.3 331.1,136.4 331.5,132.1 331.9,125.6 332.3,119.1 332.7,123.1 333.1,120.9 333.5,120.1 333.9,112.0 334.3,107.5 334.7,114.2 335.1,119.9 335.5,120.7 335.9,125.0 336.3,132.1 336.7,126.2 337.0,127.9 337.4,131.8 337.8,136.4 338.2,128.8 338.6,122.8 339.0,130.0 339.4,131.8 339.8,129.7 340.2,127.9 340.6,133.9 341.0,132.7 341.4,135.2 341.8,130.0 342.2,131.5 342.6,130.6 343.0,132.4 343.4,130.3 343.8,134.5 344.1,134.9 344.5,132.7 344.9,133.9 345.3,134.2 345.7,133.3 346.1,132.7 346.5,134.5 346.9,129.7 347.3,128.5 347.7,128.8 348.1,130.6 348.5,124.2 348.9,124.2 349.3,123.6 349.7,129.7 350.1,136.1 350.5,131.8 350.8,129.1 351.2,132.4 351.6,130.3 352.0,129.1 352.4,132.4 352.8,132.7 353.2,133.3 353.6,135.5 354.0,137.7 354.4,136.1 354.8,134.5 355.2,134.9 355.6,135.8 356.0,135.8 356.4,131.5 356.8,130.0 357.2,132.7 357.6,139.0 357.9,138.7 358.3,142.8 358.7,137.1 359.1,139.0 359.5,141.1 359.9,146.3 360.3,145.9 360.7,146.6 361.1,145.6 361.5,145.6 361.9,148.1 362.3,144.5 362.7,147.7 363.1,150.7 363.5,145.6 363.9,148.1 364.3,150.3 364.6,149.6 365.0,152.6 365.4,159.5 365.8,164.4 366.2,163.0 366.6,162.4 367.0,162.6 367.4,161.6 367.8,160.7 368.2,164.2 368.6,160.7 369.0,159.0 369.4,157.4 369.8,158.6 370.2,158.2 370.6,159.9 371.0,157.8 371.4,152.6 371.7,154.2 372.1,153.0 372.5,153.4 372.9,157.0 373.3,155.8 373.7,156.3 374.1,154.8 374.5,156.6 374.9,155.8 375.3,156.6 375.7,156.7 376.1,159.7 376.5,161.1 376.9,159.5 377.3,163.9 377.7,158.5 378.1,149.0 378.4,141.3 378.8,146.5 379.2,145.8 379.6,149.6 380.0,149.6 380.4,148.8 380.8,157.4 381.2,161.1 381.6,161.7 382.0,161.1 382.4,162.4 382.8,166.8 383.2,169.7 383.6,160.5 384.0,158.2 384.4,154.2 384.8,150.2 385.2,153.1 385.5,155.1 385.9,152.8 386.3,154.7 386.7,152.3 387.1,155.0 387.5,155.1 387.9,151.8 388.3,148.5 388.7,149.7 389.1,148.7 389.5,145.5 389.9,144.6 390.3,147.2 390.7,148.8 391.1,150.9 391.5,151.8 391.9,156.9 392.2,158.9 392.6,159.0 393.0,160.4 393.4,156.3 393.8,158.2 394.2,154.7 394.6,157.2 395.0,154.5 395.4,148.1 395.8,147.1 396.2,151.8 396.6,151.5 397.0,148.1 397.4,145.5 397.8,145.1 398.2,140.9 398.6,134.5 399.0,133.8 399.3,133.0 399.7,134.5 400.1,137.6 400.5,142.4 400.9,139.8 401.3,134.0 401.7,135.2 402.1,134.3 402.5,133.9 402.9,133.5 403.3,129.5 403.7,132.1 404.1,132.4 404.5,131.7 404.9,129.4 405.3,132.7 405.7,136.4 406.0,133.3 406.4,132.2 406.8,135.5 407.2,134.2 407.6,137.7 408.0,135.8 408.4,136.2 408.8,134.3 409.2,130.6 409.6,130.6 410.0,131.5 410.4,131.9 410.8,130.9 411.2,136.4 411.6,141.1 412.0,141.1 412.4,134.5 412.8,137.0 413.1,142.1 413.5,144.8 413.9,144.5 414.3,146.8 414.7,143.4 415.1,146.1 415.5,146.4 415.9,140.4 416.3,134.2 416.7,133.2 417.1,133.3 417.5,132.1 417.9,129.1 418.3,129.5 418.7,129.5 419.1,128.0 419.5,131.9 419.8,132.1 420.2,131.2 420.6,131.3 421.0,134.9 421.4,134.5 421.8,133.4 422.2,135.8 422.6,134.2 423.0,133.9 423.4,133.9 423.8,136.3 424.2,137.9 424.6,139.3 425.0,136.4 425.4,137.2 425.8,137.0 426.2,136.7 426.6,138.8 426.9,137.9 427.3,138.9 427.7,135.8 428.1,137.6 428.5,150.6 428.9,154.3 429.3,152.2 429.7,143.1 430.1,144.5 430.5,138.8 430.9,143.1 431.3,144.2 431.7,146.4 432.1,147.4 432.5,146.2 432.9,145.6 433.3,143.8 433.6,145.8 434.0,141.7 434.4,142.6 434.8,140.6 435.2,141.1 435.6,145.8 436.0,144.5 436.4,142.6 436.8,139.0 437.2,135.7 437.6,135.2 438.0,134.9 438.4,134.0 438.8,136.4 439.2,136.8 439.6,139.7 440.0,138.3 440.4,140.5 440.7,139.3 441.1,141.6 441.5,142.4 441.9,142.1 442.3,143.2 442.7,141.1 443.1,137.5 443.5,135.0 443.9,137.6 444.3,139.3 444.7,137.7 445.1,139.0 445.5,136.3 445.9,138.4 446.3,136.2 446.7,135.4 447.1,137.6 447.4,137.1 447.8,134.3 448.2,130.4 448.6,130.4 449.0,133.0 449.4,132.2 449.8,133.3 450.2,133.4 450.6,135.5 451.0,136.7 451.4,136.8 451.8,135.5 452.2,135.9 452.6,132.4 453.0,131.0 453.4,130.7 453.8,125.0 454.2,124.4 454.5,125.2 454.9,121.5 455.3,124.1 455.7,124.3 456.1,123.9 456.5,122.4 456.9,122.3 457.3,120.8 457.7,120.2 458.1,118.5 458.5,117.0 458.9,120.7 459.3,124.7 459.7,116.2 460.1,113.0 460.5,109.9 460.9,107.3 461.2,105.6 461.6,110.4 462.0,113.9 462.4,111.4 462.8,109.6 463.2,112.4 463.6,111.4 464.0,107.7 464.4,110.9 464.8,113.0 465.2,113.0 465.6,107.4 466.0,108.3 466.4,106.9 466.8,109.7 467.2,111.0 467.6,111.4 468.0,108.7 468.3,110.5 468.7,109.3 469.1,109.4 469.5,110.9 469.9,110.5 470.3,110.8 470.7,108.9 471.1,108.7 471.5,105.0 471.9,108.2 472.3,108.5 472.7,106.8 473.1,105.5 473.5,102.9 473.9,100.3 474.3,101.1 474.7,112.6 475.0,109.6 475.4,110.7 475.8,109.6 476.2,105.8 476.6,104.0 477.0,100.5 477.4,103.1 477.8,103.7 478.2,102.9 478.6,98.8 479.0,102.0 479.4,105.9 479.8,108.2 480.2,112.2 480.6,113.8 481.0,116.1 481.4,111.6 481.8,111.5 482.1,110.4 482.5,109.3 482.9,106.3 483.3,109.1 483.7,113.0 484.1,113.6 484.5,113.9 484.9,114.7 485.3,113.0 485.7,111.6 486.1,111.9 486.5,113.9 486.9,113.6 487.3,112.0 487.7,115.0 488.1,120.8 488.5,120.9 488.8,117.6 489.2,116.8 489.6,111.6 490.0,110.2 490.4,108.9 490.8,105.8 491.2,103.5 491.6,101.8 492.0,105.0 492.4,103.0 492.8,102.0 493.2,99.4 493.6,96.1 494.0,91.6 494.4,92.4 494.8,97.8 495.2,95.1 495.6,95.7 495.9,90.3 496.3,89.2 496.7,88.6 497.1,89.4 497.5,91.4 497.9,92.6 498.3,90.9 498.7,89.0 499.1,90.3 499.5,90.7 499.9,93.4 500.3,98.2 500.7,95.5 501.1,96.3 501.5,93.0 501.9,94.1 502.3,95.9 502.6,94.5 503.0,89.6 503.4,85.4 503.8,82.4 504.2,84.5 504.6,83.4 505.0,84.3 505.4,84.7 505.8,83.4 506.2,85.5 506.6,88.3 507.0,88.6 507.4,89.0 507.8,89.9 508.2,91.2 508.6,90.3 509.0,91.8 509.4,90.7 509.7,93.0 510.1,92.4 510.5,91.8 510.9,89.6 511.3,90.9 511.7,89.0 512.1,90.1 512.5,90.3 512.9,90.3 513.3,89.0 513.7,89.6 514.1,87.3 514.5,84.1 514.9,81.9 515.3,84.8 515.7,91.1 516.1,94.1 516.4,92.2 516.8,90.7 517.2,91.1 517.6,91.4 518.0,94.0 518.4,92.2 518.8,89.9 519.2,85.5 519.6,86.4 520.0,85.5 520.4,87.9 520.8,92.6 521.2,92.0 521.6,92.6 522.0,93.4 522.4,99.4 522.8,101.3 523.2,101.8 523.5,102.6 523.9,101.3 524.3,103.2 524.7,99.6 525.1,99.4 525.5,100.1 525.9,104.5 526.3,104.1 526.7,102.7 527.1,106.8 527.5,105.9 527.9,105.4 528.3,98.8 528.7,96.3 529.1,106.2 529.5,102.8 529.9,102.9 530.2,99.8 530.6,100.1 531.0,100.7 531.4,94.5 531.8,95.9 532.2,97.4 532.6,96.3 533.0,96.1 533.4,94.1 533.8,95.1 534.2,94.7 534.6,89.0 535.0,89.7 535.4,91.1 535.8,86.3 536.2,86.6 536.6,84.8 537.0,89.0 537.3,86.4 537.7,88.6 538.1,91.2 538.5,93.8 538.9,96.1 539.3,95.3 539.7,96.7 540.1,94.1 540.5,93.0 540.9,91.1 541.3,90.1 541.7,87.2 542.1,84.8 542.5,82.9 542.9,85.2 543.3,82.0 543.7,82.6 544.0,87.5 544.4,88.1 544.8,87.9 545.2,88.8 545.6,89.2 546.0,85.5 546.4,85.9 546.8,83.6 547.2,87.0 547.6,88.4 548.0,87.5 548.4,89.9 548.8,88.3 549.2,92.8 549.6,92.8 550.0,94.0 550.4,91.6 550.8,89.9 551.1,92.2 551.5,94.0 551.9,92.2 552.3,93.8 552.7,93.6 553.1,92.4 553.5,92.4 553.9,93.6 554.3,94.5 554.7,91.2 555.1,92.2 555.5,92.4 555.9,92.2 556.3,92.6 556.7,93.0 557.1,94.5 557.5,90.9 557.8,86.8 558.2,83.9 558.6,83.8 559.0,82.6 559.4,76.9 559.8,78.4 560.2,77.1 560.6,81.4 561.0,94.0 561.4,90.9 561.8,94.1 562.2,94.0 562.6,93.6 563.0,94.5 563.4,96.5 563.8,92.6 564.2,93.0 564.6,91.4 564.9,87.9 565.3,90.9 565.7,91.4 566.1,92.2 566.5,93.4 566.9,93.8 567.3,96.1 567.7,98.8 568.1,96.5 568.5,97.8 568.9,98.8 569.3,98.2 569.7,96.9 570.1,96.1 570.5,93.4 570.9,94.3 571.3,93.4 571.6,93.8 572.0,94.0 572.4,93.2 572.8,94.5 573.2,94.3 573.6,94.5 574.0,96.9 574.4,99.6 574.8,98.6 575.2,98.6 575.6,100.5 576.0,98.2 576.4,97.4 576.8,93.6 577.2,94.9 577.6,98.8 578.0,102.9 578.4,101.5 578.7,102.8 579.1,100.5 579.5,102.0 579.9,101.8 580.3,103.6 580.7,102.8 581.1,101.1 581.5,100.1 581.9,99.8 582.3,98.0 582.7,97.8 583.1,96.5 583.5,97.4 583.9,96.9 584.3,96.3 584.7,95.3 585.1,96.5 585.4,93.4 585.8,94.0 586.2,94.9 586.6,94.9 587.0,95.5 587.4,95.1 587.8,94.7 588.2,94.1 588.6,95.9 589.0,95.9 589.4,95.9 589.8,95.7 590.2,96.7 590.6,98.4 591.0,98.2 591.4,100.5 591.8,102.0 592.2,101.8 592.5,102.0 592.9,102.4 593.3,102.7 593.7,101.1 594.1,102.4 594.5,103.9 594.9,100.3 595.3,101.8 595.7,100.9 596.1,103.0 596.5,101.8 596.9,102.9 597.3,101.5 597.7,104.2 598.1,104.0 598.5,102.8 598.9,102.8 599.2,100.1 599.6,102.2 600.0,100.7 600.4,102.0 600.8,101.8 601.2,100.9 601.6,107.8 602.0,108.3 602.4,104.8 602.8,103.7 603.2,102.6 603.6,104.1 604.0,104.3 604.4,102.0 604.8,104.0 605.2,107.0 605.6,109.0 606.0,108.0 606.3,106.2 606.7,104.6 607.1,103.2 607.5,105.1 607.9,104.6 608.3,104.4 608.7,103.3 609.1,104.0 609.5,104.0 609.9,104.1 610.3,104.1 610.7,106.3 611.1,106.1 611.5,105.3 611.9,105.5 612.3,104.2 612.7,103.9 613.0,103.4 613.4,103.4 613.8,105.0 614.2,105.0 614.6,105.9 615.0,107.3 615.4,106.8 615.8,106.7 616.2,108.2 616.6,107.0 617.0,103.8 617.4,104.2 617.8,103.6 618.2,104.4 618.6,105.6 619.0,107.5 619.4,107.1 619.8,107.8 620.1,107.1 620.5,106.1 620.9,104.4 621.3,105.9 621.7,104.8 622.1,105.6 622.5,104.9 622.9,105.0 623.3,104.9 623.7,104.3 624.1,104.6 624.5,105.5 624.9,104.6 625.3,105.0 625.7,103.9 626.1,104.4 626.5,103.7 626.9,104.4 627.2,104.2 627.6,105.3 628.0,105.2 628.4,105.1 628.8,105.1 629.2,105.1 629.6,104.7 630.0,105.0 630.4,104.9 630.8,105.4 631.2,105.9 631.6,106.2 632.0,106.8 632.4,107.3 632.8,107.5 633.2,110.0 633.6,110.0 633.9,111.2 634.3,110.6 634.7,111.5 635.1,113.3 635.5,115.6 635.9,116.8 636.3,117.6 636.7,116.5 637.1,117.6 637.5,118.0 637.9,117.6 638.3,116.4 638.7,116.9 639.1,117.8 639.5,117.6 639.9,117.5 640.3,118.6 640.7,117.5 641.0,117.5 641.4,117.5 641.8,117.6 642.2,117.5 642.6,116.6 643.0,118.2 643.4,118.5 643.8,115.7 644.2,117.4 644.6,118.0 645.0,117.4 645.4,117.4 645.8,119.0 646.2,115.8 646.6,114.9 647.0,114.8 647.4,116.4 647.7,117.1 648.1,119.1 648.5,120.9 648.9,119.6 649.3,118.2 649.7,118.0 650.1,118.3 650.5,119.1 650.9,121.0 651.3,120.3 651.7,121.1 652.1,121.7 652.5,121.8 652.9,120.2 653.3,119.4 653.7,117.2 654.1,117.2 654.5,119.7 654.8,118.2 655.2,116.4 655.6,115.3 656.0,112.4 656.4,112.5 656.8,113.2 657.2,113.0 657.6,111.9 658.0,113.2 658.4,121.7 658.8,122.5 659.2,121.7 659.6,120.7 660.0,123.4 660.4,118.2 660.8,118.5 661.2,116.6 661.5,117.1 661.9,121.1 662.3,121.4 662.7,124.4 663.1,122.6 663.5,123.6 663.9,123.9 664.3,123.5 664.7,117.5 665.1,121.2 665.5,121.2 665.9,120.2 666.3,120.0 666.7,119.7 667.1,121.0 667.5,121.8 667.9,123.4 668.3,122.8 668.6,121.7 669.0,119.2 669.4,116.5 669.8,114.0 670.2,116.8 670.6,116.5 671.0,119.0 671.4,112.1 671.8,112.1 672.2,122.9 672.6,120.7 673.0,125.2 673.4,119.3 673.8,116.6 674.2,119.0 674.6,120.0 675.0,117.9 675.3,120.2 675.7,124.4 676.1,124.1 676.5,123.5 676.9,123.3 677.3,121.7 677.7,123.4 678.1,122.3 678.5,123.3 678.9,124.4 679.3,125.7 679.7,124.7 680.1,124.6 680.5,123.4 680.9,121.5 681.3,121.4 681.7,122.1 682.1,122.1 682.4,124.6 682.8,127.2 683.2,126.5 683.6,130.9 684.0,132.6 684.4,134.0 684.8,133.4 685.2,133.7 685.6,133.2 686.0,134.0 686.4,133.9 686.8,132.6 687.2,132.6 687.6,132.4 688.0,132.4 688.4,132.7 688.8,132.6 689.1,131.8 689.5,132.3 689.9,131.6 690.3,132.7 690.7,131.1 691.1,131.1 691.5,130.9 691.9,130.9 692.3,129.2 692.7,126.2 693.1,125.4 693.5,126.7 693.9,127.3 694.3,126.3 694.7,125.7 695.1,125.8 695.5,126.7 695.9,127.3 696.2,126.2 696.6,123.7 697.0,121.9 697.4,121.0 697.8,120.1 698.2,120.5 698.6,118.3 699.0,116.6 699.4,124.6 699.8,125.0 700.2,123.7 700.6,120.7 701.0,121.7 701.4,120.9 701.8,123.7 702.2,124.7 702.6,127.2 702.9,127.3 703.3,127.1 703.7,126.5 704.1,126.7 704.5,124.9 704.9,127.2 705.3,127.2 705.7,127.1 706.1,128.0 706.5,129.4 706.9,129.5 707.3,133.5 707.7,133.8 708.1,131.8 708.5,131.6 708.9,130.6 709.3,131.3 709.7,132.2 710.0,130.4 710.4,129.4 710.8,132.2 711.2,128.8 711.6,129.4 712.0,129.9 712.4,129.4 712.8,128.8 713.2,127.8 713.6,129.1 714.0,126.4 714.4,127.8 714.8,126.4 715.2,127.4 715.6,127.1 716.0,127.3 716.4,127.0 716.7,127.0 717.1,127.9 717.5,127.4 717.9,125.0 718.3,122.9 718.7,127.0 719.1,122.3 719.5,123.8 719.9,125.4 720.3,125.6 720.7,123.3 721.1,124.5 721.5,118.3 721.9,119.6 722.3,127.7 722.7,128.5 723.1,128.5 723.5,129.2 723.8,128.8 724.2,128.5 724.6,129.2 725.0,109.5 725.4,108.5 725.8,112.6 726.2,112.9 726.6,110.3 727.0,112.0 727.4,112.0 727.8,112.0 728.2,112.2 728.6,112.3 729.0,115.1 729.4,115.5 729.8,117.3 730.2,115.8 730.5,119.6 730.9,116.9 731.3,118.3 731.7,117.2 732.1,117.6 732.5,117.6 732.9,117.5 733.3,120.5 733.7,120.4 734.1,119.9 734.5,119.4 734.9,117.6 735.3,116.8 735.7,116.4 736.1,114.0 736.5,115.4 736.9,117.7 737.3,116.5 737.6,117.5 738.0,116.0 738.4,114.1 738.8,116.7 739.2,116.0 739.6,114.7 740.0,116.9 740.4,114.5 740.8,115.6 741.2,115.8 741.6,115.1 742.0,114.5 742.4,111.5 742.8,111.6 743.2,111.7 743.6,111.5 744.0,112.5 744.3,113.0 744.7,112.2 745.1,111.5 745.5,112.5 745.9,112.0 746.3,113.1 746.7,114.0 747.1,113.6 747.5,114.1 747.9,114.1 748.3,116.4 748.7,116.5 749.1,116.5 749.5,115.4 749.9,115.0 750.3,115.0 750.7,115.5 751.1,113.7 751.4,114.6 751.8,114.6 752.2,114.3 752.6,114.0 753.0,116.3 753.4,116.3 753.8,117.2 754.2,113.5 754.6,112.0 755.0,108.5 755.4,109.7 755.8,109.2 756.2,120.9 756.6,120.3 757.0,119.6 757.4,119.1 757.8,120.9 758.1,122.8 758.5,121.9 758.9,123.4 759.3,122.5 759.7,122.3 760.1,122.9 760.5,122.8 760.9,122.8 761.3,123.4 761.7,123.3 762.1,127.8 762.5,127.1 762.9,126.7 763.3,127.0 763.7,129.5 764.1,130.0 764.5,131.5 764.9,130.6 765.2,132.4 765.6,133.5 766.0,133.8 766.4,133.7 766.8,131.7 767.2,131.1 767.6,133.3 768.0,132.1 768.4,125.8 768.8,127.5 769.2,128.9 769.6,130.9 770.0,128.6 770.4,129.2 770.8,128.5 771.2,127.4 771.6,126.6 771.9,126.1 772.3,124.3 772.7,123.5 773.1,124.3 773.5,124.3 773.9,124.3 774.3,121.3 774.7,123.6 775.1,120.7 775.5,121.7 775.9,122.9 776.3,122.8 776.7,122.9 777.1,123.9 777.5,125.3 777.9,125.7 778.3,124.8 778.7,125.0 779.0,123.9 779.4,124.8 779.8,122.8 780.2,123.8 780.6,124.5 781.0,123.4 781.4,123.0 781.8,122.9 782.2,122.3 782.6,120.9 783.0,121.4 783.4,120.2 783.8,121.1 784.2,124.5 784.6,121.7 785.0,122.5 785.4,122.5 785.7,122.8 786.1,123.4 786.5,121.6 786.9,123.1 787.3,121.7 787.7,121.3 788.1,119.8 788.5,120.0 788.9,120.7 789.3,122.4 789.7,124.0 790.1,123.3 790.5,123.6 790.9,123.9 791.3,124.3 791.7,125.5 792.1,124.8 792.5,125.3 792.8,123.4 793.2,122.4 793.6,122.8 794.0,123.7 794.4,126.1 794.8,123.3 795.2,122.7 795.6,119.1 796.0,119.6"/><polyline fill="none" stroke="#16a34a" stroke-width="3" points="78.0,244.0 78.4,246.7 78.8,241.4 79.2,234.3 79.6,232.0 80.0,227.8 80.4,232.0 80.8,243.1 81.2,240.9 81.5,241.8 81.9,244.4 82.3,245.3 82.7,240.1 83.1,241.8 83.5,244.4 83.9,244.9 84.3,244.4 84.7,244.9 85.1,244.9 85.5,246.7 85.9,247.1 86.3,246.2 86.7,248.1 87.1,249.5 87.5,250.9 87.9,248.1 88.3,247.1 88.6,248.1 89.0,250.4 89.4,248.5 89.8,247.6 90.2,248.5 90.6,250.0 91.0,248.1 91.4,251.4 91.8,250.9 92.2,251.9 92.6,250.9 93.0,253.4 93.4,251.9 93.8,251.9 94.2,248.5 94.6,252.4 95.0,251.4 95.3,251.4 95.7,252.4 96.1,252.4 96.5,253.4 96.9,256.4 97.3,254.8 97.7,255.4 98.1,254.8 98.5,250.9 98.9,249.5 99.3,250.4 99.7,246.7 100.1,244.4 100.5,246.2 100.9,247.1 101.3,245.8 101.7,246.7 102.1,245.3 102.4,244.9 102.8,245.3 103.2,246.2 103.6,246.2 104.0,246.2 104.4,248.3 104.8,246.3 105.2,245.1 105.6,248.3 106.0,248.5 106.4,247.8 106.8,248.0 107.2,247.8 107.6,248.5 108.0,249.7 108.4,248.2 108.8,250.4 109.1,252.2 109.5,252.2 109.9,250.9 110.3,251.2 110.7,250.8 111.1,253.6 111.5,253.5 111.9,254.1 112.3,253.6 112.7,255.2 113.1,254.2 113.5,256.0 113.9,285.1 114.3,288.2 114.7,288.6 115.1,289.0 115.5,286.4 115.9,290.1 116.2,289.7 116.6,286.0 117.0,289.7 117.4,288.2 117.8,287.8 118.2,290.7 118.6,290.3 119.0,291.6 119.4,292.4 119.8,290.5 120.2,289.9 120.6,292.0 121.0,293.0 121.4,290.3 121.8,286.0 122.2,290.7 122.6,292.2 122.9,292.4 123.3,293.2 123.7,290.5 124.1,293.6 124.5,292.6 124.9,292.8 125.3,290.7 125.7,291.2 126.1,292.2 126.5,291.6 126.9,291.8 127.3,292.0 127.7,292.6 128.1,292.0 128.5,287.7 128.9,286.9 129.3,286.9 129.7,289.9 130.0,291.2 130.4,292.0 130.8,290.7 131.2,294.4 131.6,291.8 132.0,292.6 132.4,291.4 132.8,293.8 133.2,293.6 133.6,292.0 134.0,289.7 134.4,292.0 134.8,294.8 135.2,290.5 135.6,292.8 136.0,291.2 136.4,292.8 136.7,291.2 137.1,291.8 137.5,292.8 137.9,292.8 138.3,292.4 138.7,290.7 139.1,293.4 139.5,293.4 139.9,293.4 140.3,293.0 140.7,292.4 141.1,293.4 141.5,293.2 141.9,292.8 142.3,292.0 142.7,292.0 143.1,290.5 143.5,291.0 143.8,290.8 144.2,291.0 144.6,291.2 145.0,291.2 145.4,290.5 145.8,290.1 146.2,290.1 146.6,290.5 147.0,290.5 147.4,288.8 147.8,288.6 148.2,285.8 148.6,282.7 149.0,285.7 149.4,281.5 149.8,281.1 150.2,281.8 150.5,280.1 150.9,279.1 151.3,281.6 151.7,279.3 152.1,279.3 152.5,279.9 152.9,280.9 153.3,279.3 153.7,279.1 154.1,279.6 154.5,279.9 154.9,278.3 155.3,279.1 155.7,279.4 156.1,280.9 156.5,278.1 156.9,279.9 157.3,279.3 157.6,279.8 158.0,279.8 158.4,276.6 158.8,276.5 159.2,278.6 159.6,277.9 160.0,277.6 160.4,277.1 160.8,277.3 161.2,277.8 161.6,274.7 162.0,279.8 162.4,277.4 162.8,269.2 163.2,271.0 163.6,276.0 164.0,277.4 164.3,279.9 164.7,283.9 165.1,284.6 165.5,277.0 165.9,274.6 166.3,277.9 166.7,279.1 167.1,279.1 167.5,282.5 167.9,279.1 168.3,282.3 168.7,293.0 169.1,293.6 169.5,299.0 169.9,303.8 170.3,304.5 170.7,295.6 171.1,302.1 171.4,317.5 171.8,310.9 172.2,306.3 172.6,304.0 173.0,310.9 173.4,301.6 173.8,302.1 174.2,302.7 174.6,305.8 175.0,309.5 175.4,301.8 175.8,299.7 176.2,304.0 176.6,303.6 177.0,297.6 177.4,303.8 177.8,302.2 178.1,296.0 178.5,295.6 178.9,304.5 179.3,303.3 179.7,305.4 180.1,303.6 180.5,303.1 180.9,299.3 181.3,295.2 181.7,292.8 182.1,297.6 182.5,293.6 182.9,298.4 183.3,299.7 183.7,294.4 184.1,294.0 184.5,293.6 184.9,294.4 185.2,297.6 185.6,295.2 186.0,296.8 186.4,297.6 186.8,294.0 187.2,293.6 187.6,292.4 188.0,289.0 188.4,289.0 188.8,290.5 189.2,290.5 189.6,290.8 190.0,288.6 190.4,285.7 190.8,291.2 191.2,289.3 191.6,289.0 191.9,286.4 192.3,286.4 192.7,286.0 193.1,286.8 193.5,272.7 193.9,272.7 194.3,275.8 194.7,275.8 195.1,273.3 195.5,269.9 195.9,272.7 196.3,270.5 196.7,270.5 197.1,271.1 197.5,260.0 197.9,259.2 198.3,261.1 198.7,261.1 199.0,262.5 199.4,266.4 199.8,261.4 200.2,261.7 200.6,260.8 201.0,261.1 201.4,259.8 201.8,261.1 202.2,261.1 202.6,263.9 203.0,261.1 203.4,261.1 203.8,261.4 204.2,263.6 204.6,264.1 205.0,264.1 205.4,262.8 205.7,264.7 206.1,261.7 206.5,261.9 206.9,261.7 207.3,256.4 207.7,257.4 208.1,257.4 208.5,258.4 208.9,258.4 209.3,259.5 209.7,257.1 210.1,253.4 210.5,253.8 210.9,250.9 211.3,252.1 211.7,254.3 212.1,256.4 212.5,256.1 212.8,256.1 213.2,258.2 213.6,256.9 214.0,253.4 214.4,254.8 214.8,254.6 215.2,249.7 215.6,249.7 216.0,252.6 216.4,255.6 216.8,254.3 217.2,255.9 217.6,255.9 218.0,256.1 218.4,256.1 218.8,256.1 219.2,255.9 219.5,255.6 219.9,256.1 220.3,255.9 220.7,257.1 221.1,256.4 221.5,256.6 221.9,257.1 222.3,258.2 222.7,259.0 223.1,258.4 223.5,258.4 223.9,261.9 224.3,259.8 224.7,257.9 225.1,259.8 225.5,257.4 225.9,257.4 226.3,258.2 226.6,258.2 227.0,257.9 227.4,257.7 227.8,259.0 228.2,259.0 228.6,259.8 229.0,258.4 229.4,259.0 229.8,257.9 230.2,260.3 230.6,259.5 231.0,261.1 231.4,266.7 231.8,259.8 232.2,257.1 232.6,253.4 233.0,252.4 233.3,250.0 233.7,244.4 234.1,241.8 234.5,242.2 234.9,244.2 235.3,246.5 235.7,250.4 236.1,251.6 236.5,251.2 236.9,252.1 237.3,245.1 237.7,243.8 238.1,242.4 238.5,239.9 238.9,235.5 239.3,231.6 239.7,228.2 240.1,233.3 240.4,229.9 240.8,228.7 241.2,229.3 241.6,228.2 242.0,230.1 242.4,231.6 242.8,232.2 243.2,231.4 243.6,233.5 244.0,235.9 244.4,231.6 244.8,229.7 245.2,227.8 245.6,223.3 246.0,224.6 246.4,226.2 246.8,225.8 247.1,223.7 247.5,218.1 247.9,214.5 248.3,215.5 248.7,213.0 249.1,208.1 249.5,207.3 249.9,200.8 250.3,207.0 250.7,210.5 251.1,211.7 251.5,215.5 251.9,209.9 252.3,210.8 252.7,207.3 253.1,206.7 253.5,204.1 253.9,202.4 254.2,201.9 254.6,202.7 255.0,206.4 255.4,208.1 255.8,203.6 256.2,206.4 256.6,208.7 257.0,207.5 257.4,208.1 257.8,201.1 258.2,196.6 258.6,191.8 259.0,193.1 259.4,193.3 259.8,194.8 260.2,197.1 260.6,191.6 261.0,195.3 261.3,192.6 261.7,193.3 262.1,189.0 262.5,188.7 262.9,191.4 263.3,185.3 263.7,187.3 264.1,184.0 264.5,184.0 264.9,177.5 265.3,177.5 265.7,182.2 266.1,177.5 266.5,180.0 266.9,179.4 267.3,180.3 267.7,181.8 268.0,183.7 268.4,186.2 268.8,184.2 269.2,182.2 269.6,185.1 270.0,182.8 270.4,183.5 270.8,182.8 271.2,179.6 271.6,182.2 272.0,181.5 272.4,181.3 272.8,179.6 273.2,177.3 273.6,175.3 274.0,172.9 274.4,167.1 274.8,169.3 275.1,175.3 275.5,176.5 275.9,176.1 276.3,170.8 276.7,172.3 277.1,176.7 277.5,175.9 277.9,179.2 278.3,175.1 278.7,174.1 279.1,170.4 279.5,173.1 279.9,174.5 280.3,181.8 280.7,184.6 281.1,187.3 281.5,190.2 281.8,186.9 282.2,188.0 282.6,185.1 283.0,189.2 283.4,193.3 283.8,194.6 284.2,193.8 284.6,194.6 285.0,190.9 285.4,189.7 285.8,187.3 286.2,184.8 286.6,184.6 287.0,187.8 287.4,189.0 287.8,186.4 288.2,184.4 288.6,182.4 288.9,177.5 289.3,177.1 289.7,178.6 290.1,178.4 290.5,178.8 290.9,179.2 291.3,180.9 291.7,179.0 292.1,180.5 292.5,179.0 292.9,177.1 293.3,179.8 293.7,180.5 294.1,179.4 294.5,179.2 294.9,178.4 295.3,180.7 295.6,180.7 296.0,183.3 296.4,184.2 296.8,186.7 297.2,184.0 297.6,183.7 298.0,184.0 298.4,179.8 298.8,180.7 299.2,178.6 299.6,178.4 300.0,178.2 300.4,173.5 300.8,172.9 301.2,176.3 301.6,182.0 302.0,180.9 302.4,181.1 302.7,181.1 303.1,180.9 303.5,178.6 303.9,177.7 304.3,179.2 304.7,181.1 305.1,179.2 305.5,180.7 305.9,179.6 306.3,180.3 306.7,179.8 307.1,178.4 307.5,178.4 307.9,182.4 308.3,182.4 308.7,181.5 309.1,177.9 309.4,163.5 309.8,157.4 310.2,160.3 310.6,151.8 311.0,152.6 311.4,155.0 311.8,157.4 312.2,159.5 312.6,162.0 313.0,159.0 313.4,157.4 313.8,158.2 314.2,161.6 314.6,161.1 315.0,160.7 315.4,161.1 315.8,160.3 316.2,163.0 316.5,167.8 316.9,160.3 317.3,150.7 317.7,159.0 318.1,154.2 318.5,154.2 318.9,155.4 319.3,154.2 319.7,159.0 320.1,163.3 320.5,162.0 320.9,162.6 321.3,165.1 321.7,164.0 322.1,170.4 322.5,167.4 322.9,166.1 323.2,163.5 323.6,166.0 324.0,166.0 324.4,167.4 324.8,171.9 325.2,171.6 325.6,175.1 326.0,170.6 326.4,166.0 326.8,161.1 327.2,160.3 327.6,158.2 328.0,156.2 328.4,152.2 328.8,153.4 329.2,150.7 329.6,143.5 330.0,143.8 330.3,147.4 330.7,146.3 331.1,136.4 331.5,132.1 331.9,125.6 332.3,119.1 332.7,123.1 333.1,120.9 333.5,120.1 333.9,112.0 334.3,107.5 334.7,114.2 335.1,119.9 335.5,120.7 335.9,125.0 336.3,132.1 336.7,126.2 337.0,127.9 337.4,131.8 337.8,136.4 338.2,128.8 338.6,122.8 339.0,130.0 339.4,131.8 339.8,129.7 340.2,127.9 340.6,133.9 341.0,132.7 341.4,135.2 341.8,130.0 342.2,131.5 342.6,130.6 343.0,132.4 343.4,130.3 343.8,134.5 344.1,134.9 344.5,132.7 344.9,133.9 345.3,134.2 345.7,133.3 346.1,132.7 346.5,134.5 346.9,129.7 347.3,128.5 347.7,128.8 348.1,130.6 348.5,124.2 348.9,124.2 349.3,123.6 349.7,129.7 350.1,136.1 350.5,131.8 350.8,129.1 351.2,132.4 351.6,130.3 352.0,129.1 352.4,132.4 352.8,132.7 353.2,133.3 353.6,135.5 354.0,137.7 354.4,136.1 354.8,134.5 355.2,134.9 355.6,135.8 356.0,135.8 356.4,131.5 356.8,130.0 357.2,132.7 357.6,139.0 357.9,138.7 358.3,142.8 358.7,137.1 359.1,139.0 359.5,141.1 359.9,146.3 360.3,145.9 360.7,146.6 361.1,145.6 361.5,145.6 361.9,148.1 362.3,144.5 362.7,147.7 363.1,150.7 363.5,145.6 363.9,148.1 364.3,150.3 364.6,149.6 365.0,152.6 365.4,159.5 365.8,164.4 366.2,163.0 366.6,162.4 367.0,162.6 367.4,161.6 367.8,160.7 368.2,164.2 368.6,160.7 369.0,159.0 369.4,157.4 369.8,158.6 370.2,158.2 370.6,159.9 371.0,157.8 371.4,152.6 371.7,154.2 372.1,153.0 372.5,153.4 372.9,157.0 373.3,155.8 373.7,156.3 374.1,154.8 374.5,156.6 374.9,155.8 375.3,156.6 375.7,156.7 376.1,159.7 376.5,161.1 376.9,159.5 377.3,163.9 377.7,158.5 378.1,149.0 378.4,141.3 378.8,146.5 379.2,145.8 379.6,149.6 380.0,149.6 380.4,148.8 380.8,157.4 381.2,161.1 381.6,161.7 382.0,161.1 382.4,162.0 382.8,166.4 383.2,169.3 383.6,160.1 384.0,157.8 384.4,153.7 384.8,149.7 385.2,152.7 385.5,154.7 385.9,152.3 386.3,154.2 386.7,151.9 387.1,154.5 387.5,154.7 387.9,151.4 388.3,148.1 388.7,149.3 389.1,148.3 389.5,145.1 389.9,144.2 390.3,146.8 390.7,148.4 391.1,150.5 391.5,151.4 391.9,156.5 392.2,158.4 392.6,158.6 393.0,159.9 393.4,155.8 393.8,157.8 394.2,154.2 394.6,156.8 395.0,154.1 395.4,147.7 395.8,146.6 396.2,151.4 396.6,151.1 397.0,147.7 397.4,145.1 397.8,144.6 398.2,140.5 398.6,134.1 399.0,133.4 399.3,132.6 399.7,134.1 400.1,137.2 400.5,142.0 400.9,139.4 401.3,133.6 401.7,134.7 402.1,133.9 402.5,133.5 402.9,133.1 403.3,129.1 403.7,131.6 404.1,132.0 404.5,131.3 404.9,129.0 405.3,132.2 405.7,136.0 406.0,132.9 406.4,131.8 406.8,135.1 407.2,133.7 407.6,137.3 408.0,135.4 408.4,135.8 408.8,133.9 409.2,130.2 409.6,130.2 410.0,131.0 410.4,131.5 410.8,130.4 411.2,136.0 411.6,140.6 412.0,140.6 412.4,134.1 412.8,136.5 413.1,141.7 413.5,144.4 413.9,144.1 414.3,146.4 414.7,143.0 415.1,145.6 415.5,145.9 415.9,139.9 416.3,133.7 416.7,132.7 417.1,132.9 417.5,131.6 417.9,128.6 418.3,129.1 418.7,129.1 419.1,127.6 419.5,131.5 419.8,131.6 420.2,130.8 420.6,130.9 421.0,134.5 421.4,134.1 421.8,133.0 422.2,135.4 422.6,133.7 423.0,133.5 423.4,133.5 423.8,135.9 424.2,137.4 424.6,138.9 425.0,136.0 425.4,136.8 425.8,136.5 426.2,136.3 426.6,138.4 426.9,137.4 427.3,138.5 427.7,135.4 428.1,137.2 428.5,150.2 428.9,153.9 429.3,151.7 429.7,142.7 430.1,144.1 430.5,138.4 430.9,142.7 431.3,143.8 431.7,145.9 432.1,146.9 432.5,145.8 432.9,145.2 433.3,143.4 433.6,145.3 434.0,141.3 434.4,142.1 434.8,140.2 435.2,140.6 435.6,145.3 436.0,144.1 436.4,142.1 436.8,138.6 437.2,135.2 437.6,134.7 438.0,134.5 438.4,133.6 438.8,136.0 439.2,136.4 439.6,139.3 440.0,137.8 440.4,140.1 440.7,138.9 441.1,141.2 441.5,142.0 441.9,141.7 442.3,142.8 442.7,140.6 443.1,137.0 443.5,134.6 443.9,137.2 444.3,138.9 444.7,137.3 445.1,138.6 445.5,135.9 445.9,138.0 446.3,135.8 446.7,135.0 447.1,137.2 447.4,136.7 447.8,133.9 448.2,129.9 448.6,129.9 449.0,132.6 449.4,131.8 449.8,132.9 450.2,133.0 450.6,135.1 451.0,136.3 451.4,136.4 451.8,135.1 452.2,135.5 452.6,132.0 453.0,130.5 453.4,130.3 453.8,124.6 454.2,123.9 454.5,124.7 454.9,121.1 455.3,123.7 455.7,123.8 456.1,123.5 456.5,121.9 456.9,121.8 457.3,120.3 457.7,119.8 458.1,118.1 458.5,116.6 458.9,120.2 459.3,124.3 459.7,115.7 460.1,112.6 460.5,109.5 460.9,106.9 461.2,105.1 461.6,109.9 462.0,113.4 462.4,111.0 462.8,109.2 463.2,112.0 463.6,111.0 464.0,107.2 464.4,110.4 464.8,112.6 465.2,112.6 465.6,107.0 466.0,107.9 466.4,106.5 466.8,109.3 467.2,110.6 467.6,111.0 468.0,108.3 468.3,110.0 468.7,108.9 469.1,109.0 469.5,110.4 469.9,110.0 470.3,110.3 470.7,108.4 471.1,108.3 471.5,104.5 471.9,107.8 472.3,108.1 472.7,106.4 473.1,105.1 473.5,102.5 473.9,99.8 474.3,100.7 474.7,112.2 475.0,109.2 475.4,110.2 475.8,109.2 476.2,105.4 476.6,103.5 477.0,100.0 477.4,102.7 477.8,103.3 478.2,102.5 478.6,98.4 479.0,101.5 479.4,105.5 479.8,107.8 480.2,111.8 480.6,113.3 481.0,115.6 481.4,111.2 481.8,111.1 482.1,109.9 482.5,108.9 482.9,105.9 483.3,108.6 483.7,112.6 484.1,113.1 484.5,113.4 484.9,114.2 485.3,112.6 485.7,111.2 486.1,111.5 486.5,113.4 486.9,113.1 487.3,111.6 487.7,114.5 488.1,120.3 488.5,120.4 488.8,117.2 489.2,116.4 489.6,111.2 490.0,109.8 490.4,108.4 490.8,105.4 491.2,103.1 491.6,101.3 492.0,104.6 492.4,102.6 492.8,101.5 493.2,99.0 493.6,95.7 494.0,91.2 494.4,92.0 494.8,97.3 495.2,94.7 495.6,95.3 495.9,89.9 496.3,88.7 496.7,88.2 497.1,88.9 497.5,91.0 497.9,92.2 498.3,90.4 498.7,88.6 499.1,89.9 499.5,90.2 499.9,92.9 500.3,97.7 500.7,95.1 501.1,95.9 501.5,92.5 501.9,93.7 502.3,95.5 502.6,94.1 503.0,89.1 503.4,84.9 503.8,82.0 504.2,84.0 504.6,83.0 505.0,83.9 505.4,84.2 505.8,83.0 506.2,85.1 506.6,87.8 507.0,88.2 507.4,88.6 507.8,89.5 508.2,90.8 508.6,89.9 509.0,91.4 509.4,90.2 509.7,92.5 510.1,92.0 510.5,91.4 510.9,89.1 511.3,90.4 511.7,88.6 512.1,89.7 512.5,89.9 512.9,89.9 513.3,88.6 513.7,89.1 514.1,86.9 514.5,83.7 514.9,81.4 515.3,84.4 515.7,90.6 516.1,93.7 516.4,91.8 516.8,90.2 517.2,90.6 517.6,91.0 518.0,93.5 518.4,91.8 518.8,89.5 519.2,85.1 519.6,86.0 520.0,85.1 520.4,87.5 520.8,92.2 521.2,91.6 521.6,92.2 522.0,92.9 522.4,99.0 522.8,100.9 523.2,101.3 523.5,102.1 523.9,100.9 524.3,102.8 524.7,99.2 525.1,99.0 525.5,99.6 525.9,104.1 526.3,103.6 526.7,102.2 527.1,106.3 527.5,105.5 527.9,105.0 528.3,98.4 528.7,95.9 529.1,105.8 529.5,102.4 529.9,102.5 530.2,99.4 530.6,99.6 531.0,100.3 531.4,94.1 531.8,95.5 532.2,96.9 532.6,95.9 533.0,95.7 533.4,93.7 533.8,94.7 534.2,94.3 534.6,88.6 535.0,89.3 535.4,90.6 535.8,85.8 536.2,86.2 536.6,84.4 537.0,88.6 537.3,86.0 537.7,88.2 538.1,90.8 538.5,93.3 538.9,95.7 539.3,94.9 539.7,96.3 540.1,93.7 540.5,92.5 540.9,90.6 541.3,89.7 541.7,86.7 542.1,84.4 542.5,82.5 542.9,84.8 543.3,81.6 543.7,82.1 544.0,87.1 544.4,87.6 544.8,87.5 545.2,88.4 545.6,88.7 546.0,85.1 546.4,85.5 546.8,83.2 547.2,86.5 547.6,88.0 548.0,87.1 548.4,89.5 548.8,87.8 549.2,92.4 549.6,92.4 550.0,93.5 550.4,91.2 550.8,89.5 551.1,91.8 551.5,93.5 551.9,91.8 552.3,93.3 552.7,93.1 553.1,92.0 553.5,92.0 553.9,93.1 554.3,94.1 554.7,90.8 555.1,91.8 555.5,92.0 555.9,91.8 556.3,92.2 556.7,92.5 557.1,94.1 557.5,90.4 557.8,86.4 558.2,83.5 558.6,83.3 559.0,82.1 559.4,76.5 559.8,77.9 560.2,76.6 560.6,80.9 561.0,93.5 561.4,90.4 561.8,93.7 562.2,93.5 562.6,93.1 563.0,94.1 563.4,96.1 563.8,92.2 564.2,92.5 564.6,91.0 564.9,87.5 565.3,90.4 565.7,91.0 566.1,91.8 566.5,92.9 566.9,93.3 567.3,95.7 567.7,98.4 568.1,96.1 568.5,97.3 568.9,98.4 569.3,97.7 569.7,96.5 570.1,95.7 570.5,92.9 570.9,93.9 571.3,92.9 571.6,93.3 572.0,93.5 572.4,92.7 572.8,94.1 573.2,93.9 573.6,94.1 574.0,96.5 574.4,99.2 574.8,98.2 575.2,98.2 575.6,100.0 576.0,97.7 576.4,96.9 576.8,93.1 577.2,94.5 577.6,98.4 578.0,102.5 578.4,101.1 578.7,102.4 579.1,100.0 579.5,101.5 579.9,101.3 580.3,103.2 580.7,102.4 581.1,100.7 581.5,99.6 581.9,99.4 582.3,97.5 582.7,97.3 583.1,96.1 583.5,96.9 583.9,96.5 584.3,95.9 584.7,94.9 585.1,96.1 585.4,92.9 585.8,93.5 586.2,94.5 586.6,94.5 587.0,95.1 587.4,94.7 587.8,94.3 588.2,93.7 588.6,95.5 589.0,95.5 589.4,95.5 589.8,95.3 590.2,96.3 590.6,98.0 591.0,97.7 591.4,100.0 591.8,101.5 592.2,101.3 592.5,101.5 592.9,102.0 593.3,102.2 593.7,100.7 594.1,102.0 594.5,103.5 594.9,99.8 595.3,101.3 595.7,100.5 596.1,102.6 596.5,101.3 596.9,102.5 597.3,101.1 597.7,103.7 598.1,103.5 598.5,102.4 598.9,102.3 599.2,99.6 599.6,101.8 600.0,100.3 600.4,101.5 600.8,101.3 601.2,100.5 601.6,107.3 602.0,107.9 602.4,104.3 602.8,103.3 603.2,102.1 603.6,103.6 604.0,103.9 604.4,101.5 604.8,103.5 605.2,106.6 605.6,108.5 606.0,107.6 606.3,105.8 606.7,104.2 607.1,102.8 607.5,104.7 607.9,104.2 608.3,104.0 608.7,102.8 609.1,103.5 609.5,103.5 609.9,103.6 610.3,103.6 610.7,105.9 611.1,105.7 611.5,104.9 611.9,105.1 612.3,103.7 612.7,103.5 613.0,102.9 613.4,102.9 613.8,104.5 614.2,104.5 614.6,105.5 615.0,106.9 615.4,106.4 615.8,106.2 616.2,107.8 616.6,106.6 617.0,103.4 617.4,103.7 617.8,103.2 618.2,104.0 618.6,105.1 619.0,107.1 619.4,106.7 619.8,107.3 620.1,106.7 620.5,105.7 620.9,104.0 621.3,105.5 621.7,104.3 622.1,105.1 622.5,104.4 622.9,104.5 623.3,104.4 623.7,103.9 624.1,104.2 624.5,105.1 624.9,104.2 625.3,104.5 625.7,103.5 626.1,104.0 626.5,103.3 626.9,104.0 627.2,103.7 627.6,104.9 628.0,104.8 628.4,104.7 628.8,104.7 629.2,104.7 629.6,104.3 630.0,104.5 630.4,104.4 630.8,105.0 631.2,105.5 631.6,105.8 632.0,106.4 632.4,106.9 632.8,107.1 633.2,109.6 633.6,109.6 633.9,110.8 634.3,110.1 634.7,111.1 635.1,112.8 635.5,115.1 635.9,116.4 636.3,117.2 636.7,116.0 637.1,117.2 637.5,117.6 637.9,117.2 638.3,115.9 638.7,116.5 639.1,117.4 639.5,117.2 639.9,117.1 640.3,118.2 640.7,117.1 641.0,117.1 641.4,117.1 641.8,117.2 642.2,117.1 642.6,116.1 643.0,117.8 643.4,118.1 643.8,115.2 644.2,117.0 644.6,117.6 645.0,117.0 645.4,117.0 645.8,118.5 646.2,115.3 646.6,114.4 647.0,114.3 647.4,115.9 647.7,116.7 648.1,118.6 648.5,120.4 648.9,119.2 649.3,117.8 649.7,117.6 650.1,117.9 650.5,118.6 650.9,120.5 651.3,119.9 651.7,120.6 652.1,121.3 652.5,121.4 652.9,119.8 653.3,118.9 653.7,116.8 654.1,116.8 654.5,119.3 654.8,117.8 655.2,115.9 655.6,114.8 656.0,112.0 656.4,112.1 656.8,112.7 657.2,112.6 657.6,111.5 658.0,112.7 658.4,121.3 658.8,122.1 659.2,121.3 659.6,120.2 660.0,122.9 660.4,117.8 660.8,118.1 661.2,116.1 661.5,116.7 661.9,120.6 662.3,121.0 662.7,123.9 663.1,122.2 663.5,123.2 663.9,123.5 664.3,123.0 664.7,117.1 665.1,120.8 665.5,120.8 665.9,119.8 666.3,119.6 666.7,119.3 667.1,120.5 667.5,121.4 667.9,122.9 668.3,122.4 668.6,121.3 669.0,118.7 669.4,116.0 669.8,113.5 670.2,116.4 670.6,116.0 671.0,118.5 671.4,111.7 671.8,111.7 672.2,122.5 672.6,120.2 673.0,124.7 673.4,118.8 673.8,116.1 674.2,118.5 674.6,119.6 675.0,117.5 675.3,119.8 675.7,123.9 676.1,123.7 676.5,123.0 676.9,122.8 677.3,121.3 677.7,122.9 678.1,121.8 678.5,122.8 678.9,123.9 679.3,125.3 679.7,124.3 680.1,124.2 680.5,122.9 680.9,121.1 681.3,121.0 681.7,121.6 682.1,121.6 682.4,124.2 682.8,126.8 683.2,126.1 683.6,130.4 684.0,132.1 684.4,133.6 684.8,133.0 685.2,133.2 685.6,132.7 686.0,133.6 686.4,133.5 686.8,132.1 687.2,132.1 687.6,132.0 688.0,132.0 688.4,132.2 688.8,132.1 689.1,131.4 689.5,131.9 689.9,131.1 690.3,132.2 690.7,130.7 691.1,130.7 691.5,130.4 691.9,130.4 692.3,128.8 692.7,125.7 693.1,124.9 693.5,126.3 693.9,126.9 694.3,125.9 694.7,125.3 695.1,125.4 695.5,126.3 695.9,126.9 696.2,125.7 696.6,123.3 697.0,121.5 697.4,120.5 697.8,119.7 698.2,120.1 698.6,117.9 699.0,116.1 699.4,124.2 699.8,124.6 700.2,123.3 700.6,120.2 701.0,121.3 701.4,120.4 701.8,123.3 702.2,124.3 702.6,126.8 702.9,126.9 703.3,126.7 703.7,126.1 704.1,126.3 704.5,124.5 704.9,126.8 705.3,126.8 705.7,126.7 706.1,127.6 706.5,129.0 706.9,129.1 707.3,133.1 707.7,133.4 708.1,131.4 708.5,131.1 708.9,130.2 709.3,130.9 709.7,131.8 710.0,129.9 710.4,129.0 710.8,131.8 711.2,128.4 711.6,129.0 712.0,129.5 712.4,129.0 712.8,128.4 713.2,127.3 713.6,128.6 714.0,126.0 714.4,127.3 714.8,126.0 715.2,127.0 715.6,126.7 716.0,126.9 716.4,126.5 716.7,126.5 717.1,127.5 717.5,127.0 717.9,124.6 718.3,122.5 718.7,126.5 719.1,121.8 719.5,123.4 719.9,124.9 720.3,125.2 720.7,122.8 721.1,124.0 721.5,117.9 721.9,119.2 722.3,127.2 722.7,128.0 723.1,128.0 723.5,128.8 723.8,128.4 724.2,128.0 724.6,128.8 725.0,109.1 725.4,108.1 725.8,112.2 726.2,112.5 726.6,109.9 727.0,111.6 727.4,111.6 727.8,111.6 728.2,111.8 728.6,111.9 729.0,114.6 729.4,115.0 729.8,116.9 730.2,115.3 730.5,119.2 730.9,116.5 731.3,117.9 731.7,116.8 732.1,117.2 732.5,117.2 732.9,117.1 733.3,120.1 733.7,120.0 734.1,119.5 734.5,118.9 734.9,117.2 735.3,116.4 735.7,115.9 736.1,113.5 736.5,114.9 736.9,117.3 737.3,116.0 737.6,117.1 738.0,115.5 738.4,113.6 738.8,116.3 739.2,115.5 739.6,114.2 740.0,116.5 740.4,114.0 740.8,115.1 741.2,115.3 741.6,114.6 742.0,114.0 742.4,111.1 742.8,111.2 743.2,111.3 743.6,111.1 744.0,112.1 744.3,112.6 744.7,111.8 745.1,111.1 745.5,112.1 745.9,111.6 746.3,112.6 746.7,113.5 747.1,113.1 747.5,113.6 747.9,113.6 748.3,115.9 748.7,116.0 749.1,116.0 749.5,114.9 749.9,114.5 750.3,114.5 750.7,115.0 751.1,113.2 751.4,114.1 751.8,114.1 752.2,113.8 752.6,113.5 753.0,115.8 753.4,115.8 753.8,116.8 754.2,113.0 754.6,111.6 755.0,108.1 755.4,109.3 755.8,108.8 756.2,120.4 756.6,119.9 757.0,119.2 757.4,118.6 757.8,120.4 758.1,122.4 758.5,121.5 758.9,122.9 759.3,122.1 759.7,121.8 760.1,122.5 760.5,122.4 760.9,122.4 761.3,122.9 761.7,122.8 762.1,127.3 762.5,126.7 762.9,126.3 763.3,126.5 763.7,129.1 764.1,129.6 764.5,131.0 764.9,130.2 765.2,132.0 765.6,133.1 766.0,133.4 766.4,133.2 766.8,131.3 767.2,130.7 767.6,132.9 768.0,131.6 768.4,125.4 768.8,127.1 769.2,128.5 769.6,130.4 770.0,128.2 770.4,128.8 770.8,128.0 771.2,127.0 771.6,126.2 771.9,125.6 772.3,123.8 772.7,123.0 773.1,123.8 773.5,123.8 773.9,123.8 774.3,120.9 774.7,123.2 775.1,120.2 775.5,121.3 775.9,122.5 776.3,122.4 776.7,122.5 777.1,123.5 777.5,124.8 777.9,125.3 778.3,124.4 778.7,124.6 779.0,123.5 779.4,124.4 779.8,122.4 780.2,123.4 780.6,124.0 781.0,122.9 781.4,122.6 781.8,122.5 782.2,121.8 782.6,120.4 783.0,121.0 783.4,119.8 783.8,120.6 784.2,124.0 784.6,121.3 785.0,122.1 785.4,122.1 785.7,122.4 786.1,122.9 786.5,121.2 786.9,122.7 787.3,121.3 787.7,120.9 788.1,119.4 788.5,119.6 788.9,120.2 789.3,121.9 789.7,123.6 790.1,122.8 790.5,123.2 790.9,123.5 791.3,123.8 791.7,125.1 792.1,124.4 792.5,124.8 792.8,122.9 793.2,121.9 793.6,122.4 794.0,123.3 794.4,125.6 794.8,122.8 795.2,122.3 795.6,118.6 796.0,119.2"/>
<text x="78" y="392" font-size="11" fill="#16a34a">Total return +322.6%</text><text x="268" y="392" font-size="11" fill="#2563eb">Price-only +320.5%</text><text x="78" y="362" font-size="11" text-anchor="middle" fill="#64748b">2019-04</text><text x="257" y="362" font-size="11" text-anchor="middle" fill="#64748b">2021-02</text><text x="437" y="362" font-size="11" text-anchor="middle" fill="#64748b">2022-11</text><text x="617" y="362" font-size="11" text-anchor="middle" fill="#64748b">2024-09</text><text x="796" y="362" font-size="11" text-anchor="middle" fill="#64748b">2026-07</text></svg>