<svg xmlns="http://www.w3.org/2000/svg" width="720" height="360" viewBox="0 0 720 360">
  <rect width="720" height="360" fill="#fafafa"/>
  <text x="56" y="22" font-size="13" font-family="sans-serif" fill="#222">GLXY total return (rebased 100) · cumulative distributions $0.00/sh · market cap n/a</text>
  <line x1="56" y1="308" x2="696" y2="308" stroke="#ccc"/>
  <line x1="56" y1="48" x2="56" y2="308" stroke="#ccc"/>
  <polyline fill="none" stroke="#2563eb" stroke-width="2" points="56.0,238.7 58.4,231.4 60.8,246.4 63.2,241.8 65.6,224.4 67.9,237.4 70.3,247.9 72.7,259.6 75.1,266.3 77.5,278.8 79.9,275.6 82.3,270.3 84.7,262.2 87.0,270.9 89.4,263.0 91.8,254.8 94.2,262.8 96.6,268.6 99.0,267.8 101.4,272.8 103.8,268.3 106.1,275.9 108.5,271.1 110.9,272.7 113.3,276.0 115.7,265.3 118.1,268.0 120.5,258.7 122.9,263.1 125.3,246.5 127.6,251.6 130.0,243.7 132.4,247.8 134.8,265.5 137.2,267.5 139.6,261.4 142.0,259.3 144.4,257.4 146.7,250.4 149.1,255.4 151.5,225.3 153.9,210.8 156.3,201.4 158.7,198.7 161.1,184.4 163.5,167.8 165.9,160.4 168.2,171.6 170.6,180.2 173.0,204.6 175.4,186.2 177.8,190.4 180.2,203.6 182.6,186.3 185.0,196.7 187.3,199.6 189.7,193.2 192.1,195.8 194.5,189.8 196.9,194.8 199.3,191.0 201.7,189.0 204.1,210.4 206.4,204.4 208.8,227.6 211.2,224.0 213.6,229.3 216.0,214.9 218.4,223.7 220.8,222.2 223.2,224.9 225.6,224.0 227.9,232.8 230.3,227.0 232.7,225.0 235.1,237.8 237.5,232.8 239.9,226.5 242.3,206.2 244.7,210.5 247.0,186.4 249.4,179.3 251.8,170.1 254.2,160.9 256.6,150.8 259.0,150.2 261.4,152.0 263.8,144.9 266.1,149.7 268.5,139.8 270.9,158.5 273.3,169.0 275.7,139.8 278.1,143.9 280.5,126.5 282.9,120.5 285.3,123.6 287.6,100.6 290.0,94.2 292.4,78.6 294.8,71.4 297.2,95.9 299.6,80.0 302.0,80.7 304.4,74.0 306.7,91.3 309.1,109.7 311.5,93.6 313.9,65.9 316.3,113.5 318.7,102.6 321.1,92.1 323.5,85.8 325.9,113.9 328.2,121.3 330.6,141.1 333.0,133.6 335.4,134.7 337.8,166.6 340.2,164.3 342.6,173.4 345.0,163.3 347.3,161.3 349.7,170.3 352.1,165.8 354.5,200.5 356.9,208.2 359.3,219.4 361.7,214.8 364.1,213.2 366.4,228.1 368.8,233.4 371.2,221.7 373.6,215.6 376.0,209.1 378.4,206.1 380.8,221.5 383.2,216.7 385.6,202.1 387.9,197.6 390.3,215.4 392.7,210.4 395.1,181.4 397.5,180.8 399.9,177.9 402.3,204.7 404.7,223.7 407.0,225.7 409.4,238.6 411.8,241.2 414.2,228.4 416.6,223.1 419.0,223.3 421.4,224.7 423.8,233.6 426.1,235.6 428.5,238.9 430.9,242.5 433.3,221.9 435.7,208.6 438.1,210.5 440.5,215.4 442.9,215.5 445.3,220.3 447.6,215.6 450.0,204.1 452.4,192.3 454.8,159.6 457.2,139.6 459.6,158.6 462.0,155.6 464.4,168.8 466.7,160.3 469.1,165.7 471.5,149.3 473.9,160.3 476.3,177.1 478.7,191.7 481.1,207.4 483.5,245.8 485.9,261.5 488.2,290.1 490.6,264.9 493.0,252.9 495.4,252.6 497.8,259.4 500.2,261.6 502.6,248.5 505.0,251.7 507.3,247.9 509.7,248.8 512.1,252.5 514.5,259.9 516.9,249.6 519.3,238.5 521.7,246.1 524.1,257.8 526.4,247.9 528.8,257.0 531.2,225.5 533.6,239.3 536.0,258.1 538.4,250.0 540.8,247.1 543.2,250.3 545.6,257.4 547.9,242.6 550.3,236.1 552.7,232.7 555.1,249.2 557.5,253.8 559.9,256.6 562.3,248.2 564.7,251.7 567.0,251.4 569.4,266.2 571.8,280.1 574.2,287.4 576.6,276.2 579.0,285.5 581.4,283.2 583.8,277.7 586.1,274.6 588.5,271.5 590.9,252.9 593.3,248.5 595.7,241.3 598.1,230.8 600.5,228.0 602.9,224.7 605.3,212.5 607.6,204.3 610.0,220.2 612.4,204.3 614.8,208.8 617.2,211.1 619.6,219.3 622.0,208.1 624.4,216.2 626.7,198.8 629.1,193.0 631.5,183.9 633.9,174.0 636.3,167.1 638.7,182.7 641.1,174.7 643.5,162.2 645.9,164.8 648.2,169.7 650.6,159.1 653.0,180.1 655.4,195.1 657.8,197.8 660.2,195.9 662.6,180.4 665.0,188.3 667.3,180.0 669.7,177.0 672.1,175.6 674.5,180.3 676.9,169.7 679.3,184.8 681.7,189.7 684.1,190.4 686.4,218.6 688.8,172.3 691.2,153.6 693.6,175.4 696.0,165.9"/>
  <polyline fill="none" stroke="#16a34a" stroke-width="2" points="56.0,238.7 58.4,231.4 60.8,246.4 63.2,241.8 65.6,224.4 67.9,237.4 70.3,247.9 72.7,259.6 75.1,266.3 77.5,278.8 79.9,275.6 82.3,270.3 84.7,262.2 87.0,270.9 89.4,263.0 91.8,254.8 94.2,262.8 96.6,268.6 99.0,267.8 101.4,272.8 103.8,268.3 106.1,275.9 108.5,271.1 110.9,272.7 113.3,276.0 115.7,265.3 118.1,268.0 120.5,258.7 122.9,263.1 125.3,246.5 127.6,251.6 130.0,243.7 132.4,247.8 134.8,265.5 137.2,267.5 139.6,261.4 142.0,259.3 144.4,257.4 146.7,250.4 149.1,255.4 151.5,225.3 153.9,210.8 156.3,201.4 158.7,198.7 161.1,184.4 163.5,167.8 165.9,160.4 168.2,171.6 170.6,180.2 173.0,204.6 175.4,186.2 177.8,190.4 180.2,203.6 182.6,186.3 185.0,196.7 187.3,199.6 189.7,193.2 192.1,195.8 194.5,189.8 196.9,194.8 199.3,191.0 201.7,189.0 204.1,210.4 206.4,204.4 208.8,227.6 211.2,224.0 213.6,229.3 216.0,214.9 218.4,223.7 220.8,222.2 223.2,224.9 225.6,224.0 227.9,232.8 230.3,227.0 232.7,225.0 235.1,237.8 237.5,232.8 239.9,226.5 242.3,206.2 244.7,210.5 247.0,186.4 249.4,179.3 251.8,170.1 254.2,160.9 256.6,150.8 259.0,150.2 261.4,152.0 263.8,144.9 266.1,149.7 268.5,139.8 270.9,158.5 273.3,169.0 275.7,139.8 278.1,143.9 280.5,126.5 282.9,120.5 285.3,123.6 287.6,100.6 290.0,94.2 292.4,78.6 294.8,71.4 297.2,95.9 299.6,80.0 302.0,80.7 304.4,74.0 306.7,91.3 309.1,109.7 311.5,93.6 313.9,65.9 316.3,113.5 318.7,102.6 321.1,92.1 323.5,85.8 325.9,113.9 328.2,121.3 330.6,141.1 333.0,133.6 335.4,134.7 337.8,166.6 340.2,164.3 342.6,173.4 345.0,163.3 347.3,161.3 349.7,170.3 352.1,165.8 354.5,200.5 356.9,208.2 359.3,219.4 361.7,214.8 364.1,213.2 366.4,228.1 368.8,233.4 371.2,221.7 373.6,215.6 376.0,209.1 378.4,206.1 380.8,221.5 383.2,216.7 385.6,202.1 387.9,197.6 390.3,215.4 392.7,210.4 395.1,181.4 397.5,180.8 399.9,177.9 402.3,204.7 404.7,223.7 407.0,225.7 409.4,238.6 411.8,241.2 414.2,228.4 416.6,223.1 419.0,223.3 421.4,224.7 423.8,233.6 426.1,235.6 428.5,238.9 430.9,242.5 433.3,221.9 435.7,208.6 438.1,210.5 440.5,215.4 442.9,215.5 445.3,220.3 447.6,215.6 450.0,204.1 452.4,192.3 454.8,159.6 457.2,139.6 459.6,158.6 462.0,155.6 464.4,168.8 466.7,160.3 469.1,165.7 471.5,149.3 473.9,160.3 476.3,177.1 478.7,191.7 481.1,207.4 483.5,245.8 485.9,261.5 488.2,290.1 490.6,264.9 493.0,252.9 495.4,252.6 497.8,259.4 500.2,261.6 502.6,248.5 505.0,251.7 507.3,247.9 509.7,248.8 512.1,252.5 514.5,259.9 516.9,249.6 519.3,238.5 521.7,246.1 524.1,257.8 526.4,247.9 528.8,257.0 531.2,225.5 533.6,239.3 536.0,258.1 538.4,250.0 540.8,247.1 543.2,250.3 545.6,257.4 547.9,242.6 550.3,236.1 552.7,232.7 555.1,249.2 557.5,253.8 559.9,256.6 562.3,248.2 564.7,251.7 567.0,251.4 569.4,266.2 571.8,280.1 574.2,287.4 576.6,276.2 579.0,285.5 581.4,283.2 583.8,277.7 586.1,274.6 588.5,271.5 590.9,252.9 593.3,248.5 595.7,241.3 598.1,230.8 600.5,228.0 602.9,224.7 605.3,212.5 607.6,204.3 610.0,220.2 612.4,204.3 614.8,208.8 617.2,211.1 619.6,219.3 622.0,208.1 624.4,216.2 626.7,198.8 629.1,193.0 631.5,183.9 633.9,174.0 636.3,167.1 638.7,182.7 641.1,174.7 643.5,162.2 645.9,164.8 648.2,169.7 650.6,159.1 653.0,180.1 655.4,195.1 657.8,197.8 660.2,195.9 662.6,180.4 665.0,188.3 667.3,180.0 669.7,177.0 672.1,175.6 674.5,180.3 676.9,169.7 679.3,184.8 681.7,189.7 684.1,190.4 686.4,218.6 688.8,172.3 691.2,153.6 693.6,175.4 696.0,165.9"/>
  <text x="60" y="62" font-size="11" fill="#2563eb">Price index</text>
  <text x="146" y="62" font-size="11" fill="#16a34a">Total return (price + distributions)</text>
  <text x="56" y="348" font-size="11" text-anchor="middle" fill="#444">2025-05</text><text x="216" y="348" font-size="11" text-anchor="middle" fill="#444">2025-08</text><text x="376" y="348" font-size="11" text-anchor="middle" fill="#444">2025-11</text><text x="536" y="348" font-size="11" text-anchor="middle" fill="#444">2026-03</text><text x="696" y="348" font-size="11" text-anchor="middle" fill="#444">2026-06</text>
</svg>
