<svg xmlns="http://www.w3.org/2000/svg" width="720" height="360" viewBox="0 0 720 360">
  <rect width="720" height="360" fill="#fafafa"/>
  <text x="56" y="22" font-size="13" font-family="sans-serif" fill="#222">CBRS total return (rebased 100) · cumulative distributions $0.00/sh · market cap n/a</text>
  <line x1="56" y1="308" x2="696" y2="308" stroke="#ccc"/>
  <line x1="56" y1="48" x2="56" y2="308" stroke="#ccc"/>
  <polyline fill="none" stroke="#2563eb" stroke-width="2" points="56.0,65.9 86.5,129.8 117.0,95.3 147.4,81.1 177.9,107.4 208.4,125.4 238.9,176.5 269.3,207.2 299.8,155.9 330.3,205.4 360.8,216.8 391.2,265.1 421.7,217.8 452.2,261.7 482.7,260.8 513.1,290.1 543.6,215.1 574.1,237.5 604.6,216.1 635.0,238.1 665.5,263.6 696.0,249.9"/>
  <polyline fill="none" stroke="#16a34a" stroke-width="2" points="56.0,65.9 86.5,129.8 117.0,95.3 147.4,81.1 177.9,107.4 208.4,125.4 238.9,176.5 269.3,207.2 299.8,155.9 330.3,205.4 360.8,216.8 391.2,265.1 421.7,217.8 452.2,261.7 482.7,260.8 513.1,290.1 543.6,215.1 574.1,237.5 604.6,216.1 635.0,238.1 665.5,263.6 696.0,249.9"/>
  <text x="60" y="62" font-size="11" fill="#2563eb">Price index</text>
  <text x="146" y="62" font-size="11" fill="#16a34a">Total return (price + distributions)</text>
  <text x="56" y="348" font-size="11" text-anchor="middle" fill="#444">2026-05</text><text x="208" y="348" font-size="11" text-anchor="middle" fill="#444">2026-05</text><text x="391" y="348" font-size="11" text-anchor="middle" fill="#444">2026-06</text><text x="544" y="348" font-size="11" text-anchor="middle" fill="#444">2026-06</text><text x="696" y="348" font-size="11" text-anchor="middle" fill="#444">2026-06</text>
</svg>
