<svg xmlns="http://www.w3.org/2000/svg" width="820" height="410" viewBox="0 0 820 410">
<rect width="820" height="410" fill="#fafafa"/><text x="78" y="22" font-size="14" font-family="sans-serif" fill="#0f172a">CBRS cumulative return since 2026-05-14 | dividends reinvested</text>
<text x="78" y="40" font-size="11" font-family="sans-serif" fill="#334155">Total return -40.8% | Price-only -40.8% | logarithmic scale</text>
<text x="78" y="54" font-size="9" font-family="sans-serif" fill="#64748b">Regular $0.00 | Special $0.00 | Other $0.00 per initial share path</text>
<line x1="78" y1="332.0" x2="796" y2="332.0" stroke="#e2e8f0"/><text x="70" y="336.0" font-size="10" text-anchor="end" fill="#64748b">-47.9%</text><line x1="78" y1="287.0" x2="796" y2="287.0" stroke="#e2e8f0"/><text x="70" y="291.0" font-size="10" text-anchor="end" fill="#64748b">-41.6%</text><line x1="78" y1="242.0" x2="796" y2="242.0" stroke="#e2e8f0"/><text x="70" y="246.0" font-size="10" text-anchor="end" fill="#64748b">-34.4%</text><line x1="78" y1="197.0" x2="796" y2="197.0" stroke="#e2e8f0"/><text x="70" y="201.0" font-size="10" text-anchor="end" fill="#64748b">-26.4%</text><line x1="78" y1="152.0" x2="796" y2="152.0" stroke="#e2e8f0"/><text x="70" y="156.0" font-size="10" text-anchor="end" fill="#64748b">-17.4%</text><line x1="78" y1="107.0" x2="796" y2="107.0" stroke="#e2e8f0"/><text x="70" y="111.0" font-size="10" text-anchor="end" fill="#64748b">-7.3%</text><line x1="78" y1="77.6" x2="796" y2="77.6" stroke="#e2e8f0"/><text x="70" y="81.6" font-size="10" text-anchor="end" fill="#64748b">0%</text><line x1="78" y1="62.0" x2="796" y2="62.0" stroke="#e2e8f0"/><text x="70" y="66.0" font-size="10" text-anchor="end" fill="#64748b">+4.1%</text>
<line x1="78" y1="332" x2="796" y2="332" stroke="#cbd5e1"/>
<polyline fill="none" stroke="#2563eb" stroke-width="2" points="78.0,77.6 95.5,119.0 113.0,96.1 130.5,87.0 148.0,104.0 165.6,116.0 183.1,152.3 200.6,175.9 218.1,137.3 235.6,174.5 253.1,183.6 270.6,224.6 288.1,184.3 305.7,221.6 323.2,220.8 340.7,247.7 358.2,182.2 375.7,200.7 393.2,183.0 410.7,201.1 428.2,223.3 445.8,216.1 463.3,226.5 480.8,223.9 498.3,187.3 515.8,204.8 533.3,200.8 550.8,285.9 568.3,316.4 585.9,287.3 603.4,219.4 620.9,210.8 638.4,210.3 655.9,240.3 673.4,265.6 690.9,298.1 708.4,287.0 726.0,252.6 743.5,221.4 761.0,240.8 778.5,242.3 796.0,282.2"/><polyline fill="none" stroke="#16a34a" stroke-width="3" points="78.0,77.6 95.5,119.0 113.0,96.1 130.5,87.0 148.0,104.0 165.6,116.0 183.1,152.3 200.6,175.9 218.1,137.3 235.6,174.5 253.1,183.6 270.6,224.6 288.1,184.3 305.7,221.6 323.2,220.8 340.7,247.7 358.2,182.2 375.7,200.7 393.2,183.0 410.7,201.1 428.2,223.3 445.8,216.1 463.3,226.5 480.8,223.9 498.3,187.3 515.8,204.8 533.3,200.8 550.8,285.9 568.3,316.4 585.9,287.3 603.4,219.4 620.9,210.8 638.4,210.3 655.9,240.3 673.4,265.6 690.9,298.1 708.4,287.0 726.0,252.6 743.5,221.4 761.0,240.8 778.5,242.3 796.0,282.2"/>
<text x="78" y="392" font-size="11" fill="#16a34a">Total return -40.8%</text><text x="268" y="392" font-size="11" fill="#2563eb">Price-only -40.8%</text><text x="78" y="362" font-size="11" text-anchor="middle" fill="#64748b">2026-05</text><text x="253" y="362" font-size="11" text-anchor="middle" fill="#64748b">2026-05</text><text x="446" y="362" font-size="11" text-anchor="middle" fill="#64748b">2026-06</text><text x="621" y="362" font-size="11" text-anchor="middle" fill="#64748b">2026-06</text><text x="796" y="362" font-size="11" text-anchor="middle" fill="#64748b">2026-07</text></svg>