<svg xmlns="http://www.w3.org/2000/svg" width="820" height="410" viewBox="0 0 820 410">
<rect width="820" height="410" fill="#fafafa"/><text x="78" y="22" font-size="14" font-family="sans-serif" fill="#0f172a">GROY cumulative return since 2021-03-09 | dividends reinvested</text>
<text x="78" y="40" font-size="11" font-family="sans-serif" fill="#334155">Total return -26.5% | Price-only -28.2% | logarithmic scale</text>
<text x="78" y="54" font-size="9" font-family="sans-serif" fill="#64748b">Regular $0.06 | Special $0.00 | Other $0.00 per initial share path</text>
<line x1="78" y1="332.0" x2="796" y2="332.0" stroke="#e2e8f0"/><text x="70" y="336.0" font-size="10" text-anchor="end" fill="#64748b">-70.6%</text><line x1="78" y1="287.0" x2="796" y2="287.0" stroke="#e2e8f0"/><text x="70" y="291.0" font-size="10" text-anchor="end" fill="#64748b">-59.3%</text><line x1="78" y1="242.0" x2="796" y2="242.0" stroke="#e2e8f0"/><text x="70" y="246.0" font-size="10" text-anchor="end" fill="#64748b">-43.6%</text><line x1="78" y1="197.0" x2="796" y2="197.0" stroke="#e2e8f0"/><text x="70" y="201.0" font-size="10" text-anchor="end" fill="#64748b">-22.0%</text><line x1="78" y1="162.5" x2="796" y2="162.5" stroke="#e2e8f0"/><text x="70" y="166.5" font-size="10" text-anchor="end" fill="#64748b">0%</text><line x1="78" y1="152.0" x2="796" y2="152.0" stroke="#e2e8f0"/><text x="70" y="156.0" font-size="10" text-anchor="end" fill="#64748b">+7.9%</text><line x1="78" y1="107.0" x2="796" y2="107.0" stroke="#e2e8f0"/><text x="70" y="111.0" font-size="10" text-anchor="end" fill="#64748b">+49.3%</text><line x1="78" y1="62.0" x2="796" y2="62.0" stroke="#e2e8f0"/><text x="70" y="66.0" font-size="10" text-anchor="end" fill="#64748b">+106.5%</text>
<line x1="78" y1="332" x2="796" y2="332" stroke="#cbd5e1"/>
<polyline fill="none" stroke="#2563eb" stroke-width="2" points="78.0,162.5 78.5,122.2 79.1,124.2 79.6,116.2 80.1,117.0 80.7,120.6 81.2,119.3 81.7,123.0 82.3,124.2 82.8,123.3 83.3,129.0 83.9,129.3 84.4,128.7 85.0,129.6 85.5,130.8 86.0,130.5 86.6,130.8 87.1,131.7 87.6,128.4 88.2,128.1 88.7,130.2 89.2,129.3 89.8,126.9 90.3,130.8 90.8,126.9 91.4,124.8 91.9,126.3 92.4,127.2 93.0,127.8 93.5,129.2 94.0,123.6 94.6,126.9 95.1,130.2 95.6,126.0 96.2,126.0 96.7,125.8 97.2,120.7 97.8,121.0 98.3,123.0 98.9,121.0 99.4,117.0 99.9,118.7 100.5,116.2 101.0,116.2 101.5,123.0 102.1,128.4 102.6,130.2 103.1,124.2 103.7,120.7 104.2,123.3 104.7,124.2 105.3,122.4 105.8,118.2 106.3,114.3 106.9,119.3 107.4,119.6 107.9,116.2 108.5,116.8 109.0,120.1 109.5,122.2 110.1,122.6 110.6,119.9 111.1,124.8 111.7,125.1 112.2,120.7 112.8,118.7 113.3,118.7 113.8,102.7 114.4,105.3 114.9,105.3 115.4,112.1 116.0,121.9 116.5,130.2 117.0,102.2 117.6,99.3 118.1,76.5 118.6,94.4 119.2,102.7 119.7,105.5 120.2,106.8 120.8,91.2 121.3,91.2 121.8,101.0 122.4,106.8 122.9,109.4 123.4,108.9 124.0,112.4 124.5,114.0 125.0,114.5 125.6,115.9 126.1,115.9 126.7,114.5 127.2,117.9 127.7,115.9 128.3,115.9 128.8,116.8 129.3,115.9 129.9,117.9 130.4,117.6 130.9,120.1 131.5,120.1 132.0,114.5 132.5,120.7 133.1,122.4 133.6,118.2 134.1,112.9 134.7,116.2 135.2,117.9 135.7,121.0 136.3,120.4 136.8,120.4 137.3,124.8 137.9,129.0 138.4,132.0 138.9,137.8 139.5,139.7 140.0,133.9 140.6,120.4 141.1,128.1 141.6,127.5 142.2,136.8 142.7,141.7 143.2,136.5 143.8,140.0 144.3,135.5 144.8,134.2 145.4,142.7 145.9,143.0 146.4,112.9 147.0,108.1 147.5,112.4 148.0,112.9 148.6,112.9 149.1,114.3 149.6,111.6 150.2,115.1 150.7,107.3 151.2,105.8 151.8,106.6 152.3,105.3 152.8,106.6 153.4,110.2 153.9,111.3 154.5,116.2 155.0,115.6 155.5,115.1 156.1,113.5 156.6,113.5 157.1,113.5 157.7,114.0 158.2,110.8 158.7,110.0 159.3,106.0 159.8,103.5 160.3,101.5 160.9,107.1 161.4,105.5 161.9,105.3 162.5,106.3 163.0,108.7 163.5,107.1 164.1,109.7 164.6,112.6 165.1,112.6 165.7,114.5 166.2,118.4 166.7,119.3 167.3,119.9 167.8,120.1 168.4,120.4 168.9,119.0 169.4,121.9 170.0,117.6 170.5,109.4 171.0,110.0 171.6,108.9 172.1,110.0 172.6,109.7 173.2,112.4 173.7,113.2 174.2,117.3 174.8,117.3 175.3,112.4 175.8,113.5 176.4,115.1 176.9,113.7 177.4,121.9 178.0,121.9 178.5,119.6 179.0,122.2 179.6,121.3 180.1,118.4 180.6,116.8 181.2,121.3 181.7,121.0 182.3,121.9 182.8,121.3 183.3,120.7 183.9,112.1 184.4,121.6 184.9,120.4 185.5,118.7 186.0,117.0 186.5,118.2 187.1,119.6 187.6,119.3 188.1,121.9 188.7,118.4 189.2,118.2 189.7,117.9 190.3,121.9 190.8,128.1 191.3,124.5 191.9,126.3 192.4,124.2 192.9,127.2 193.5,130.8 194.0,129.9 194.5,128.4 195.1,122.4 195.6,121.3 196.2,131.1 196.7,133.9 197.2,131.4 197.8,138.7 198.3,147.1 198.8,140.4 199.4,135.8 199.9,130.8 200.4,133.9 201.0,139.7 201.5,141.0 202.0,136.8 202.6,140.0 203.1,134.2 203.6,143.4 204.2,137.4 204.7,139.4 205.2,144.1 205.8,142.4 206.3,134.9 206.8,139.1 207.4,146.4 207.9,142.0 208.4,146.4 209.0,147.1 209.5,143.4 210.1,146.8 210.6,145.1 211.1,143.7 211.7,146.4 212.2,153.2 212.7,145.8 213.3,151.0 213.8,153.9 214.3,156.1 214.9,151.7 215.4,150.6 215.9,153.9 216.5,145.1 217.0,143.0 217.5,144.7 218.1,149.2 218.6,143.7 219.1,139.1 219.7,142.4 220.2,150.6 220.7,149.6 221.3,148.2 221.8,143.0 222.3,139.7 222.9,133.9 223.4,142.0 224.0,140.4 224.5,146.8 225.0,147.5 225.6,137.4 226.1,145.8 226.6,144.7 227.2,140.7 227.7,137.1 228.2,132.7 228.8,136.1 229.3,141.4 229.8,147.8 230.4,156.5 230.9,161.7 231.4,163.7 232.0,156.8 232.5,161.7 233.0,163.7 233.6,160.6 234.1,156.1 234.6,164.1 235.2,167.6 235.7,181.1 236.2,181.6 236.8,186.6 237.3,197.6 237.9,183.8 238.4,189.3 238.9,180.2 239.5,184.3 240.0,176.3 240.5,180.2 241.1,174.6 241.6,175.5 242.1,185.2 242.7,179.4 243.2,181.6 243.7,187.5 244.3,194.1 244.8,180.7 245.3,181.1 245.9,186.6 246.4,180.2 246.9,182.5 247.5,188.4 248.0,182.5 248.5,188.4 249.1,186.6 249.6,187.0 250.1,188.9 250.7,200.1 251.2,195.6 251.8,201.6 252.3,209.5 252.8,202.6 253.4,203.7 253.9,213.4 254.4,218.5 255.0,226.9 255.5,221.5 256.0,230.0 256.6,232.5 257.1,217.9 257.6,217.4 258.2,212.8 258.7,209.0 259.2,210.1 259.8,214.5 260.3,219.7 260.8,215.1 261.4,208.5 261.9,207.9 262.4,199.1 263.0,210.6 263.5,212.3 264.0,214.0 264.6,205.3 265.1,202.1 265.7,204.7 266.2,186.1 266.7,192.2 267.3,201.6 267.8,188.4 268.3,190.8 268.9,180.2 269.4,181.6 269.9,183.8 270.5,190.8 271.0,185.6 271.5,187.0 272.1,179.8 272.6,191.2 273.1,191.7 273.7,196.1 274.2,201.6 274.7,196.6 275.3,187.0 275.8,187.0 276.3,196.6 276.9,197.6 277.4,204.2 277.9,204.7 278.5,207.4 279.0,202.6 279.6,205.8 280.1,196.6 280.6,196.6 281.2,192.2 281.7,188.4 282.2,197.1 282.8,200.1 283.3,206.3 283.8,205.8 284.4,204.7 284.9,207.9 285.4,209.0 286.0,211.7 286.5,222.0 287.0,228.8 287.6,224.4 288.1,214.5 288.6,213.4 289.2,210.1 289.7,201.6 290.2,196.6 290.8,194.6 291.3,219.7 291.8,232.5 292.4,234.5 292.9,233.2 293.5,227.5 294.0,228.8 294.5,235.1 295.1,218.5 295.6,216.2 296.1,219.7 296.7,218.5 297.2,212.8 297.7,214.5 298.3,209.0 298.8,204.2 299.3,210.1 299.9,212.8 300.4,212.8 300.9,214.0 301.5,226.3 302.0,225.7 302.5,216.8 303.1,212.8 303.6,202.1 304.1,212.3 304.7,201.6 305.2,205.3 305.7,191.7 306.3,203.7 306.8,204.2 307.4,208.5 307.9,207.9 308.4,205.3 309.0,193.6 309.5,193.2 310.0,201.6 310.6,205.8 311.1,202.6 311.6,203.7 312.2,193.2 312.7,196.1 313.2,207.4 313.8,209.0 314.3,206.3 314.8,209.5 315.4,210.6 315.9,206.8 316.4,211.2 317.0,213.4 317.5,220.3 318.0,217.9 318.6,223.8 319.1,215.7 319.7,223.2 320.2,225.1 320.7,226.9 321.3,221.5 321.8,226.3 322.3,225.7 322.9,222.0 323.4,212.8 323.9,204.2 324.5,211.7 325.0,207.4 325.5,207.4 326.1,206.3 326.6,212.3 327.1,204.7 327.7,206.3 328.2,212.3 328.7,215.7 329.3,215.7 329.8,212.3 330.3,213.4 330.9,211.2 331.4,215.1 331.9,214.0 332.5,214.0 333.0,219.1 333.6,216.8 334.1,216.2 334.6,217.4 335.2,217.4 335.7,220.9 336.2,220.9 336.8,223.2 337.3,228.1 337.8,222.0 338.4,222.0 338.9,226.9 339.4,226.9 340.0,226.9 340.5,227.5 341.0,233.2 341.6,234.5 342.1,231.9 342.6,233.8 343.2,233.8 343.7,233.2 344.2,233.2 344.8,227.5 345.3,231.9 345.8,235.1 346.4,239.1 346.9,239.8 347.5,242.5 348.0,239.8 348.5,232.5 349.1,233.8 349.6,238.4 350.1,241.8 350.7,235.1 351.2,230.0 351.7,237.1 352.3,235.8 352.8,232.5 353.3,231.9 353.9,228.8 354.4,231.3 354.9,235.1 355.5,228.8 356.0,232.5 356.5,231.3 357.1,231.3 357.6,231.9 358.1,225.7 358.7,219.1 359.2,222.6 359.7,224.4 360.3,216.2 360.8,218.5 361.4,222.6 361.9,222.0 362.4,228.8 363.0,225.7 363.5,230.6 364.0,232.5 364.6,230.0 365.1,231.9 365.6,234.5 366.2,235.8 366.7,236.5 367.2,232.5 367.8,230.0 368.3,222.6 368.8,222.0 369.4,225.7 369.9,224.4 370.4,230.0 371.0,233.8 371.5,235.1 372.0,232.5 372.6,237.1 373.1,237.1 373.6,237.1 374.2,237.8 374.7,237.8 375.3,240.5 375.8,244.6 376.3,248.2 376.9,248.9 377.4,250.3 377.9,248.2 378.5,241.8 379.0,245.3 379.5,246.0 380.1,246.7 380.6,245.3 381.1,243.2 381.7,243.9 382.2,246.7 382.7,247.4 383.3,249.6 383.8,253.3 384.3,257.1 384.9,262.5 385.4,261.7 385.9,261.7 386.5,262.5 387.0,259.4 387.5,260.9 388.1,262.5 388.6,261.7 389.2,260.2 389.7,256.3 390.2,258.6 390.8,264.1 391.3,260.9 391.8,257.1 392.4,258.6 392.9,254.8 393.4,252.5 394.0,254.0 394.5,254.0 395.0,251.1 395.6,253.3 396.1,254.8 396.6,254.8 397.2,256.3 397.7,254.0 398.2,254.8 398.8,261.7 399.3,260.9 399.8,260.2 400.4,262.5 400.9,267.4 401.4,269.0 402.0,267.4 402.5,269.9 403.1,265.7 403.6,269.0 404.1,271.6 404.7,269.0 405.2,272.4 405.7,277.7 406.3,280.3 406.8,281.3 407.3,281.3 407.9,283.1 408.4,283.1 408.9,283.1 409.5,279.4 410.0,284.0 410.5,283.1 411.1,281.3 411.6,283.1 412.1,286.8 412.7,288.8 413.2,290.7 413.7,292.7 414.3,292.7 414.8,295.7 415.3,295.7 415.9,297.7 416.4,300.8 417.0,295.7 417.5,295.7 418.0,295.7 418.6,298.7 419.1,292.7 419.6,299.8 420.2,304.0 420.7,297.7 421.2,301.9 421.8,302.9 422.3,302.9 422.8,305.1 423.4,308.4 423.9,307.3 424.4,311.7 425.0,308.4 425.5,305.1 426.0,307.3 426.6,309.5 427.1,309.5 427.6,304.0 428.2,299.8 428.7,297.7 429.2,295.7 429.8,295.7 430.3,296.7 430.9,300.8 431.4,296.7 431.9,298.7 432.5,300.8 433.0,302.9 433.5,302.9 434.1,302.9 434.6,305.1 435.1,307.3 435.7,308.4 436.2,294.7 436.7,290.7 437.3,295.7 437.8,298.7 438.3,300.8 438.9,302.9 439.4,305.1 439.9,305.1 440.5,297.7 441.0,287.8 441.5,291.7 442.1,290.7 442.6,283.1 443.1,287.8 443.7,285.9 444.2,278.5 444.8,275.9 445.3,275.9 445.8,278.5 446.4,274.1 446.9,277.7 447.4,281.3 448.0,282.2 448.5,283.1 449.0,284.0 449.6,285.0 450.1,292.7 450.6,284.0 451.2,280.3 451.7,285.0 452.2,291.7 452.8,280.3 453.3,283.1 453.8,282.2 454.4,280.3 454.9,281.3 455.4,280.3 456.0,284.0 456.5,285.9 457.0,287.8 457.6,290.7 458.1,292.7 458.7,295.7 459.2,295.7 459.7,293.7 460.3,292.7 460.8,291.7 461.3,290.7 461.9,293.7 462.4,295.7 462.9,296.7 463.5,297.7 464.0,291.7 464.5,292.7 465.1,297.7 465.6,297.7 466.1,297.7 466.7,298.7 467.2,299.8 467.7,299.8 468.3,295.7 468.8,296.7 469.3,300.8 469.9,297.7 470.4,297.7 470.9,298.7 471.5,300.8 472.0,284.0 472.6,293.7 473.1,282.2 473.6,270.7 474.2,264.1 474.7,257.8 475.2,268.2 475.8,270.7 476.3,264.1 476.8,259.4 477.4,265.7 477.9,268.2 478.4,269.0 479.0,261.7 479.5,254.8 480.0,254.8 480.6,254.0 481.1,254.0 481.6,251.1 482.2,237.1 482.7,244.6 483.2,240.5 483.8,245.3 484.3,243.2 484.8,247.4 485.4,254.8 485.9,249.6 486.5,246.7 487.0,250.3 487.5,249.6 488.1,248.9 488.6,243.9 489.1,251.8 489.7,251.1 490.2,248.2 490.7,237.1 491.3,243.9 491.8,239.8 492.3,242.5 492.9,243.9 493.4,245.3 493.9,241.2 494.5,241.8 495.0,246.7 495.5,248.2 496.1,248.2 496.6,248.9 497.1,246.7 497.7,250.3 498.2,243.9 498.7,243.2 499.3,236.5 499.8,233.2 500.4,233.8 500.9,241.2 501.4,241.8 502.0,244.6 502.5,250.3 503.0,248.9 503.6,254.8 504.1,258.6 504.6,254.0 505.2,257.1 505.7,258.6 506.2,259.4 506.8,253.3 507.3,255.5 507.8,243.9 508.4,238.4 508.9,244.6 509.4,248.2 510.0,250.3 510.5,248.9 511.0,275.0 511.6,282.2 512.1,285.0 512.6,271.6 513.2,277.7 513.7,278.5 514.3,276.8 514.8,274.1 515.3,283.1 515.9,280.3 516.4,287.8 516.9,285.0 517.5,286.8 518.0,287.8 518.5,289.7 519.1,293.7 519.6,287.8 520.1,290.7 520.7,294.7 521.2,293.7 521.7,296.7 522.3,294.7 522.8,291.7 523.3,293.7 523.9,291.7 524.4,288.8 524.9,283.1 525.5,285.9 526.0,290.7 526.5,285.0 527.1,279.4 527.6,281.3 528.2,283.1 528.7,276.8 529.2,285.0 529.8,289.7 530.3,289.7 530.8,288.8 531.4,291.7 531.9,294.7 532.4,295.7 533.0,295.7 533.5,295.7 534.0,294.7 534.6,288.8 535.1,293.7 535.6,300.8 536.2,310.6 536.7,307.3 537.2,311.7 537.8,309.5 538.3,308.4 538.8,301.9 539.4,300.8 539.9,305.1 540.4,299.8 541.0,297.7 541.5,293.7 542.1,294.7 542.6,294.7 543.1,295.7 543.7,294.7 544.2,295.7 544.7,296.7 545.3,299.8 545.8,299.8 546.3,301.9 546.9,306.2 547.4,308.4 547.9,308.4 548.5,312.9 549.0,312.9 549.5,314.0 550.1,314.0 550.6,309.5 551.1,293.7 551.7,300.8 552.2,300.8 552.7,300.8 553.3,301.9 553.8,299.8 554.3,300.8 554.9,294.7 555.4,293.7 556.0,289.7 556.5,294.7 557.0,296.7 557.6,296.7 558.1,295.7 558.6,297.7 559.2,295.7 559.7,292.7 560.2,296.7 560.8,297.7 561.3,294.7 561.8,294.7 562.4,292.7 562.9,293.7 563.4,291.7 564.0,291.7 564.5,283.1 565.0,282.2 565.6,277.7 566.1,284.0 566.6,283.1 567.2,286.8 567.7,284.0 568.3,280.3 568.8,283.1 569.3,285.9 569.9,289.7 570.4,291.7 570.9,288.8 571.5,296.7 572.0,291.7 572.5,290.7 573.1,298.7 573.6,299.8 574.1,301.9 574.7,302.9 575.2,306.2 575.7,300.8 576.3,299.8 576.8,302.9 577.3,301.9 577.9,305.1 578.4,307.3 578.9,306.2 579.5,305.1 580.0,304.0 580.5,306.2 581.1,306.2 581.6,306.2 582.2,309.5 582.7,311.7 583.2,306.2 583.8,306.2 584.3,300.8 584.8,306.2 585.4,308.4 585.9,309.5 586.4,308.4 587.0,316.4 587.5,315.2 588.0,316.4 588.6,317.5 589.1,317.5 589.6,311.7 590.2,315.2 590.7,316.4 591.2,312.9 591.8,309.5 592.3,308.4 592.8,310.6 593.4,312.9 593.9,309.5 594.4,308.4 595.0,312.9 595.5,311.7 596.1,309.5 596.6,314.0 597.1,311.7 597.7,310.6 598.2,312.9 598.7,314.0 599.3,308.4 599.8,312.9 600.3,310.6 600.9,309.5 601.4,305.1 601.9,300.8 602.5,299.8 603.0,297.7 603.5,284.0 604.1,284.0 604.6,285.9 605.1,286.8 605.7,290.7 606.2,285.9 606.7,285.9 607.3,292.7 607.8,285.0 608.3,289.7 608.9,287.8 609.4,291.7 610.0,293.7 610.5,297.7 611.0,293.7 611.6,299.8 612.1,296.7 612.6,299.8 613.2,294.7 613.7,292.7 614.2,293.7 614.8,293.7 615.3,294.7 615.8,291.7 616.4,285.9 616.9,284.0 617.4,282.2 618.0,277.7 618.5,279.4 619.0,280.3 619.6,298.7 620.1,295.7 620.6,291.7 621.2,288.8 621.7,291.7 622.2,284.0 622.8,288.8 623.3,288.8 623.9,288.8 624.4,291.7 624.9,293.7 625.5,304.0 626.0,301.9 626.5,299.8 627.1,289.7 627.6,285.9 628.1,281.3 628.7,275.9 629.2,269.0 629.7,267.4 630.3,271.6 630.8,269.0 631.3,283.1 631.9,283.1 632.4,283.1 632.9,285.9 633.5,282.2 634.0,284.0 634.5,283.1 635.1,287.8 635.6,286.8 636.1,283.1 636.7,276.8 637.2,278.5 637.8,278.5 638.3,272.4 638.8,280.3 639.4,279.4 639.9,285.0 640.4,283.1 641.0,283.1 641.5,273.3 642.0,264.9 642.6,259.4 643.1,258.6 643.6,254.8 644.2,255.5 644.7,251.1 645.2,251.8 645.8,254.0 646.3,249.6 646.8,251.1 647.4,247.4 647.9,241.8 648.4,241.2 649.0,240.5 649.5,245.3 650.0,232.5 650.6,225.1 651.1,224.4 651.7,226.9 652.2,228.8 652.7,229.4 653.3,223.8 653.8,220.3 654.3,226.3 654.9,225.1 655.4,225.1 655.9,230.0 656.5,229.4 657.0,225.7 657.5,226.3 658.1,223.8 658.6,219.1 659.1,224.4 659.7,219.1 660.2,219.7 660.7,216.2 661.3,214.0 661.8,215.7 662.3,215.7 662.9,216.8 663.4,219.7 663.9,215.7 664.5,210.6 665.0,209.5 665.6,211.7 666.1,200.6 666.6,205.8 667.2,201.6 667.7,210.6 668.2,208.5 668.8,202.6 669.3,195.6 669.8,193.2 670.4,185.6 670.9,183.4 671.4,176.8 672.0,182.5 672.5,187.0 673.0,184.3 673.6,183.8 674.1,185.6 674.6,184.3 675.2,191.7 675.7,188.9 676.2,179.8 676.8,179.4 677.3,178.5 677.8,170.9 678.4,174.2 678.9,174.6 679.5,161.0 680.0,153.5 680.5,155.3 681.1,161.7 681.6,152.8 682.1,153.2 682.7,155.7 683.2,161.7 683.7,157.2 684.3,153.9 684.8,156.1 685.3,157.9 685.9,160.2 686.4,161.0 686.9,159.1 687.5,155.0 688.0,154.2 688.5,159.8 689.1,157.2 689.6,151.7 690.1,151.4 690.7,152.1 691.2,152.4 691.7,154.2 692.3,153.2 692.8,154.2 693.4,154.2 693.9,144.7 694.4,157.6 695.0,161.7 695.5,157.2 696.0,160.2 696.6,152.8 697.1,154.6 697.6,166.0 698.2,159.1 698.7,163.7 699.2,164.1 699.8,161.7 700.3,158.3 700.8,162.9 701.4,161.7 701.9,160.2 702.4,155.7 703.0,158.3 703.5,160.6 704.0,172.5 704.6,170.1 705.1,179.4 705.6,174.6 706.2,171.7 706.7,164.1 707.3,160.6 707.8,155.0 708.3,157.9 708.9,159.8 709.4,155.7 709.9,153.9 710.5,159.4 711.0,166.4 711.5,156.8 712.1,153.2 712.6,147.8 713.1,134.2 713.7,138.4 714.2,141.0 714.7,141.7 715.3,134.6 715.8,138.7 716.3,152.1 716.9,144.4 717.4,145.8 717.9,143.7 718.5,144.1 719.0,144.7 719.5,144.7 720.1,147.8 720.6,146.8 721.2,144.1 721.7,141.7 722.2,140.4 722.8,141.4 723.3,140.0 723.8,145.4 724.4,143.0 724.9,145.8 725.4,144.4 726.0,141.4 726.5,135.5 727.0,133.0 727.6,133.9 728.1,133.3 728.6,125.4 729.2,122.4 729.7,120.4 730.2,118.7 730.8,117.6 731.3,110.5 731.8,118.2 732.4,118.2 732.9,122.2 733.4,128.1 734.0,120.7 734.5,120.4 735.1,126.3 735.6,137.8 736.1,134.2 736.7,129.3 737.2,135.5 737.7,145.1 738.3,139.7 738.8,131.4 739.3,130.2 739.9,131.4 740.4,140.4 740.9,137.4 741.5,143.0 742.0,138.1 742.5,136.8 743.1,131.7 743.6,132.4 744.1,128.1 744.7,129.3 745.2,124.2 745.7,125.7 746.3,125.4 746.8,133.0 747.3,133.6 747.9,138.7 748.4,137.1 749.0,139.7 749.5,136.5 750.0,140.0 750.6,144.7 751.1,148.9 751.6,150.3 752.2,152.4 752.7,162.1 753.2,175.9 753.8,180.2 754.3,177.6 754.8,176.3 755.4,172.1 755.9,178.9 756.4,173.0 757.0,173.8 757.5,162.5 758.0,157.2 758.6,158.7 759.1,162.1 759.6,162.5 760.2,160.2 760.7,160.2 761.2,159.8 761.8,158.3 762.3,156.8 762.9,157.6 763.4,156.8 763.9,153.5 764.5,153.9 765.0,166.4 765.5,164.1 766.1,167.2 766.6,166.4 767.1,163.3 767.7,167.6 768.2,170.9 768.7,168.4 769.3,168.0 769.8,168.0 770.3,168.0 770.9,164.9 771.4,161.7 771.9,161.4 772.5,157.2 773.0,157.2 773.5,156.8 774.1,163.3 774.6,173.0 775.1,175.5 775.7,181.6 776.2,177.2 776.8,177.2 777.3,180.7 777.8,175.1 778.4,179.8 778.9,178.1 779.4,175.9 780.0,180.2 780.5,177.2 781.0,182.9 781.6,182.0 782.1,195.1 782.6,193.6 783.2,194.6 783.7,201.6 784.2,194.1 784.8,192.7 785.3,187.9 785.8,184.7 786.4,191.2 786.9,193.2 787.4,196.6 788.0,195.6 788.5,202.6 789.0,202.6 789.6,196.1 790.1,199.1 790.7,198.6 791.2,198.6 791.7,193.6 792.3,197.1 792.8,204.2 793.3,206.8 793.9,205.8 794.4,205.8 794.9,209.0 795.5,207.4 796.0,208.5"/><polyline fill="none" stroke="#16a34a" stroke-width="3" points="78.0,162.5 78.5,122.2 79.1,124.2 79.6,116.2 80.1,117.0 80.7,120.6 81.2,119.3 81.7,123.0 82.3,124.2 82.8,123.3 83.3,129.0 83.9,129.3 84.4,128.7 85.0,129.6 85.5,130.8 86.0,130.5 86.6,130.8 87.1,131.7 87.6,128.4 88.2,128.1 88.7,130.2 89.2,129.3 89.8,126.9 90.3,130.8 90.8,126.9 91.4,124.8 91.9,126.3 92.4,127.2 93.0,127.8 93.5,129.2 94.0,123.6 94.6,126.9 95.1,130.2 95.6,126.0 96.2,126.0 96.7,125.8 97.2,120.7 97.8,121.0 98.3,123.0 98.9,121.0 99.4,117.0 99.9,118.7 100.5,116.2 101.0,116.2 101.5,123.0 102.1,128.4 102.6,130.2 103.1,124.2 103.7,120.7 104.2,123.3 104.7,124.2 105.3,122.4 105.8,118.2 106.3,114.3 106.9,119.3 107.4,119.6 107.9,116.2 108.5,116.8 109.0,120.1 109.5,122.2 110.1,122.6 110.6,119.9 111.1,124.8 111.7,125.1 112.2,120.7 112.8,118.7 113.3,118.7 113.8,102.7 114.4,105.3 114.9,105.3 115.4,112.1 116.0,121.9 116.5,130.2 117.0,102.2 117.6,99.3 118.1,76.5 118.6,94.4 119.2,102.7 119.7,105.5 120.2,106.8 120.8,91.2 121.3,91.2 121.8,101.0 122.4,106.8 122.9,109.4 123.4,108.9 124.0,112.4 124.5,114.0 125.0,114.5 125.6,115.9 126.1,115.9 126.7,114.5 127.2,117.9 127.7,115.9 128.3,115.9 128.8,116.8 129.3,115.9 129.9,117.9 130.4,117.6 130.9,120.1 131.5,120.1 132.0,114.5 132.5,120.7 133.1,122.4 133.6,118.2 134.1,112.9 134.7,116.2 135.2,117.9 135.7,121.0 136.3,120.4 136.8,120.4 137.3,124.8 137.9,129.0 138.4,132.0 138.9,137.8 139.5,139.7 140.0,133.9 140.6,120.4 141.1,128.1 141.6,127.5 142.2,136.8 142.7,141.7 143.2,136.5 143.8,140.0 144.3,135.5 144.8,134.2 145.4,142.7 145.9,143.0 146.4,112.9 147.0,108.1 147.5,112.4 148.0,112.9 148.6,112.9 149.1,114.3 149.6,111.6 150.2,115.1 150.7,107.3 151.2,105.8 151.8,106.6 152.3,105.3 152.8,106.6 153.4,110.2 153.9,111.3 154.5,116.2 155.0,115.6 155.5,115.1 156.1,113.5 156.6,113.5 157.1,113.5 157.7,114.0 158.2,110.8 158.7,110.0 159.3,106.0 159.8,103.5 160.3,101.5 160.9,107.1 161.4,105.5 161.9,105.3 162.5,106.3 163.0,108.7 163.5,107.1 164.1,109.7 164.6,112.6 165.1,112.6 165.7,114.5 166.2,118.4 166.7,119.3 167.3,119.9 167.8,120.1 168.4,120.4 168.9,119.0 169.4,121.9 170.0,117.6 170.5,109.4 171.0,110.0 171.6,108.9 172.1,110.0 172.6,109.7 173.2,112.4 173.7,113.2 174.2,117.3 174.8,117.3 175.3,112.4 175.8,113.5 176.4,115.1 176.9,113.7 177.4,121.9 178.0,121.9 178.5,119.6 179.0,122.2 179.6,121.3 180.1,118.4 180.6,116.8 181.2,121.3 181.7,121.0 182.3,121.9 182.8,121.3 183.3,120.7 183.9,112.1 184.4,121.6 184.9,120.4 185.5,118.7 186.0,117.0 186.5,118.2 187.1,119.6 187.6,119.3 188.1,121.9 188.7,118.4 189.2,118.2 189.7,117.9 190.3,121.9 190.8,128.1 191.3,124.5 191.9,126.3 192.4,124.2 192.9,127.2 193.5,130.8 194.0,129.9 194.5,128.4 195.1,122.4 195.6,121.3 196.2,131.1 196.7,133.9 197.2,131.4 197.8,138.7 198.3,147.1 198.8,140.4 199.4,135.8 199.9,130.8 200.4,133.9 201.0,139.7 201.5,141.0 202.0,136.8 202.6,140.0 203.1,134.2 203.6,143.4 204.2,137.4 204.7,139.4 205.2,144.1 205.8,142.4 206.3,134.9 206.8,139.1 207.4,146.4 207.9,142.0 208.4,146.4 209.0,147.1 209.5,143.4 210.1,146.8 210.6,145.1 211.1,143.7 211.7,146.4 212.2,153.2 212.7,145.8 213.3,151.0 213.8,153.9 214.3,156.1 214.9,151.4 215.4,150.3 215.9,153.5 216.5,144.7 217.0,142.7 217.5,144.4 218.1,148.9 218.6,143.4 219.1,138.7 219.7,142.0 220.2,150.3 220.7,149.2 221.3,147.8 221.8,142.7 222.3,139.4 222.9,133.6 223.4,141.7 224.0,140.0 224.5,146.4 225.0,147.1 225.6,137.1 226.1,145.4 226.6,144.4 227.2,140.3 227.7,136.8 228.2,132.3 228.8,135.8 229.3,141.0 229.8,147.5 230.4,156.1 230.9,161.4 231.4,163.3 232.0,156.5 232.5,161.4 233.0,163.3 233.6,160.2 234.1,155.7 234.6,163.7 235.2,167.3 235.7,180.8 236.2,181.2 236.8,186.2 237.3,197.2 237.9,183.5 238.4,189.0 238.9,179.9 239.5,183.9 240.0,176.0 240.5,179.9 241.1,174.3 241.6,175.1 242.1,184.8 242.7,179.0 243.2,181.2 243.7,187.1 244.3,193.8 244.8,180.3 245.3,180.8 245.9,186.2 246.4,179.9 246.9,182.1 247.5,188.0 248.0,182.1 248.5,188.0 249.1,186.2 249.6,186.7 250.1,188.0 250.7,199.3 251.2,194.8 251.8,200.8 252.3,208.7 252.8,201.8 253.4,202.9 253.9,212.6 254.4,217.7 255.0,226.1 255.5,220.6 256.0,229.2 256.6,231.7 257.1,217.1 257.6,216.5 258.2,212.0 258.7,208.2 259.2,209.3 259.8,213.7 260.3,218.9 260.8,214.3 261.4,207.6 261.9,207.1 262.4,198.2 263.0,209.8 263.5,211.5 264.0,213.1 264.6,204.4 265.1,201.3 265.7,203.9 266.2,185.3 266.7,191.4 267.3,200.8 267.8,187.6 268.3,189.9 268.9,179.4 269.4,180.8 269.9,183.0 270.5,189.9 271.0,184.8 271.5,186.2 272.1,179.0 272.6,190.4 273.1,190.9 273.7,195.3 274.2,200.8 274.7,195.8 275.3,186.2 275.8,186.2 276.3,195.8 276.9,196.7 277.4,203.4 277.9,203.9 278.5,206.6 279.0,201.8 279.6,205.0 280.1,195.8 280.6,195.8 281.2,191.4 281.7,187.6 282.2,196.2 282.8,199.3 283.3,205.5 283.8,205.0 284.4,203.4 284.9,206.6 285.4,207.6 286.0,210.4 286.5,220.7 287.0,227.4 287.6,223.1 288.1,213.2 288.6,212.0 289.2,208.7 289.7,200.3 290.2,195.2 290.8,193.3 291.3,218.3 291.8,231.2 292.4,233.1 292.9,231.8 293.5,226.2 294.0,227.4 294.5,233.8 295.1,217.2 295.6,214.9 296.1,218.3 296.7,217.2 297.2,211.5 297.7,213.2 298.3,207.6 298.8,202.9 299.3,208.7 299.9,211.5 300.4,211.5 300.9,212.6 301.5,224.9 302.0,224.3 302.5,215.4 303.1,211.5 303.6,200.8 304.1,210.9 304.7,200.3 305.2,203.9 305.7,190.4 306.3,202.3 306.8,202.9 307.4,207.1 307.9,206.6 308.4,203.9 309.0,192.3 309.5,191.8 310.0,200.3 310.6,204.4 311.1,201.3 311.6,202.3 312.2,191.8 312.7,194.7 313.2,206.0 313.8,207.6 314.3,205.0 314.8,208.2 315.4,209.3 315.9,205.5 316.4,209.8 317.0,211.5 317.5,218.4 318.0,216.0 318.6,221.9 319.1,213.7 319.7,221.3 320.2,223.1 320.7,225.0 321.3,219.5 321.8,224.4 322.3,223.8 322.9,220.1 323.4,210.9 323.9,202.3 324.5,209.8 325.0,205.5 325.5,205.5 326.1,204.4 326.6,210.4 327.1,202.8 327.7,204.4 328.2,210.4 328.7,213.7 329.3,213.7 329.8,210.4 330.3,211.5 330.9,209.3 331.4,213.2 331.9,212.1 332.5,212.1 333.0,217.2 333.6,214.9 334.1,214.3 334.6,215.5 335.2,215.5 335.7,219.0 336.2,219.0 336.8,221.3 337.3,226.2 337.8,220.1 338.4,220.1 338.9,225.0 339.4,225.0 340.0,225.0 340.5,225.6 341.0,231.3 341.6,232.6 342.1,230.0 342.6,231.9 343.2,231.9 343.7,231.3 344.2,231.3 344.8,225.6 345.3,230.0 345.8,233.2 346.4,237.2 346.9,237.9 347.5,240.6 348.0,237.9 348.5,230.6 349.1,231.9 349.6,236.5 350.1,239.9 350.7,233.2 351.2,228.1 351.7,235.2 352.3,233.9 352.8,230.6 353.3,230.0 353.9,226.8 354.4,229.4 354.9,233.2 355.5,226.2 356.0,230.0 356.5,228.7 357.1,228.7 357.6,229.4 358.1,223.1 358.7,216.6 359.2,220.1 359.7,221.9 360.3,213.7 360.8,216.0 361.4,220.1 361.9,219.5 362.4,226.2 363.0,223.1 363.5,228.1 364.0,230.0 364.6,227.5 365.1,229.4 365.6,232.0 366.2,233.3 366.7,233.9 367.2,230.0 367.8,227.5 368.3,220.1 368.8,219.5 369.4,223.1 369.9,221.9 370.4,227.5 371.0,231.3 371.5,232.6 372.0,230.0 372.6,234.6 373.1,234.6 373.6,234.6 374.2,235.3 374.7,235.3 375.3,237.9 375.8,242.1 376.3,245.6 376.9,246.3 377.4,247.8 377.9,245.6 378.5,239.3 379.0,242.8 379.5,243.5 380.1,244.2 380.6,242.8 381.1,240.7 381.7,241.4 382.2,244.2 382.7,244.9 383.3,247.1 383.8,250.7 384.3,253.8 384.9,259.2 385.4,258.4 385.9,258.4 386.5,259.2 387.0,256.1 387.5,257.6 388.1,259.2 388.6,258.4 389.2,256.9 389.7,253.0 390.2,255.3 390.8,260.8 391.3,257.6 391.8,253.8 392.4,255.3 392.9,251.5 393.4,249.2 394.0,250.7 394.5,250.7 395.0,247.8 395.6,250.0 396.1,251.5 396.6,251.5 397.2,253.0 397.7,250.7 398.2,251.5 398.8,258.4 399.3,257.6 399.8,256.9 400.4,259.2 400.9,264.1 401.4,265.8 402.0,264.1 402.5,266.6 403.1,262.5 403.6,265.8 404.1,268.3 404.7,265.8 405.2,269.1 405.7,274.4 406.3,277.1 406.8,278.0 407.3,278.0 407.9,279.8 408.4,279.8 408.9,279.8 409.5,276.2 410.0,280.7 410.5,279.8 411.1,278.0 411.6,279.8 412.1,283.5 412.7,285.5 413.2,287.4 413.7,289.4 414.3,289.4 414.8,292.4 415.3,292.4 415.9,294.4 416.4,297.5 417.0,292.4 417.5,292.4 418.0,292.4 418.6,295.4 419.1,289.4 419.6,296.5 420.2,300.7 420.7,294.4 421.2,298.6 421.8,299.6 422.3,299.6 422.8,301.8 423.4,305.1 423.9,304.0 424.4,308.4 425.0,305.1 425.5,301.8 426.0,304.0 426.6,306.2 427.1,306.2 427.6,300.7 428.2,296.5 428.7,294.4 429.2,292.4 429.8,292.4 430.3,293.4 430.9,297.5 431.4,293.4 431.9,295.4 432.5,297.5 433.0,299.6 433.5,299.6 434.1,299.6 434.6,301.8 435.1,304.0 435.7,305.1 436.2,291.4 436.7,287.4 437.3,292.4 437.8,295.4 438.3,297.5 438.9,299.6 439.4,301.8 439.9,301.8 440.5,294.4 441.0,284.5 441.5,288.4 442.1,287.4 442.6,279.8 443.1,284.5 443.7,282.6 444.2,275.3 444.8,272.6 445.3,272.6 445.8,275.3 446.4,270.9 446.9,274.4 447.4,278.0 448.0,278.9 448.5,279.8 449.0,280.7 449.6,281.7 450.1,289.4 450.6,280.7 451.2,277.1 451.7,281.7 452.2,288.4 452.8,277.1 453.3,279.8 453.8,278.9 454.4,277.1 454.9,278.0 455.4,277.1 456.0,280.7 456.5,282.6 457.0,284.5 457.6,287.4 458.1,289.4 458.7,292.4 459.2,292.4 459.7,290.4 460.3,289.4 460.8,288.4 461.3,287.4 461.9,290.4 462.4,292.4 462.9,293.4 463.5,294.4 464.0,288.4 464.5,289.4 465.1,294.4 465.6,294.4 466.1,294.4 466.7,295.4 467.2,296.5 467.7,296.5 468.3,292.4 468.8,293.4 469.3,297.5 469.9,294.4 470.4,294.4 470.9,295.4 471.5,297.5 472.0,280.7 472.6,290.4 473.1,278.9 473.6,267.4 474.2,260.8 474.7,254.5 475.2,264.9 475.8,267.4 476.3,260.8 476.8,256.1 477.4,262.5 477.9,264.9 478.4,265.8 479.0,258.4 479.5,251.5 480.0,251.5 480.6,250.7 481.1,250.7 481.6,247.8 482.2,233.8 482.7,241.3 483.2,237.2 483.8,242.0 484.3,239.9 484.8,244.1 485.4,251.5 485.9,246.3 486.5,243.4 487.0,247.0 487.5,246.3 488.1,245.6 488.6,240.6 489.1,248.5 489.7,247.8 490.2,244.9 490.7,233.8 491.3,240.6 491.8,236.5 492.3,239.2 492.9,240.6 493.4,242.0 493.9,237.9 494.5,238.5 495.0,243.4 495.5,244.9 496.1,244.9 496.6,245.6 497.1,243.4 497.7,247.0 498.2,240.6 498.7,239.9 499.3,233.2 499.8,229.9 500.4,230.5 500.9,237.9 501.4,238.5 502.0,241.3 502.5,247.0 503.0,245.6 503.6,251.5 504.1,255.3 504.6,250.7 505.2,253.8 505.7,255.3 506.2,256.1 506.8,250.0 507.3,252.2 507.8,240.6 508.4,235.2 508.9,241.3 509.4,244.9 510.0,247.0 510.5,245.6 511.0,271.7 511.6,278.9 512.1,281.7 512.6,268.3 513.2,274.4 513.7,275.3 514.3,273.5 514.8,270.9 515.3,279.8 515.9,277.1 516.4,284.5 516.9,281.7 517.5,283.5 518.0,284.5 518.5,286.4 519.1,290.4 519.6,284.5 520.1,287.4 520.7,291.4 521.2,290.4 521.7,293.4 522.3,291.4 522.8,288.4 523.3,290.4 523.9,288.4 524.4,285.5 524.9,279.8 525.5,282.6 526.0,287.4 526.5,281.7 527.1,276.2 527.6,278.0 528.2,279.8 528.7,273.5 529.2,281.7 529.8,286.4 530.3,286.4 530.8,285.5 531.4,288.4 531.9,291.4 532.4,292.4 533.0,292.4 533.5,292.4 534.0,291.4 534.6,285.5 535.1,290.4 535.6,297.5 536.2,307.3 536.7,304.0 537.2,308.4 537.8,306.2 538.3,305.1 538.8,298.6 539.4,297.5 539.9,301.8 540.4,296.5 541.0,294.4 541.5,290.4 542.1,291.4 542.6,291.4 543.1,292.4 543.7,291.4 544.2,292.4 544.7,293.4 545.3,296.5 545.8,296.5 546.3,298.6 546.9,302.9 547.4,305.1 547.9,305.1 548.5,309.6 549.0,309.6 549.5,310.7 550.1,310.7 550.6,306.2 551.1,290.4 551.7,297.5 552.2,297.5 552.7,297.5 553.3,298.6 553.8,296.5 554.3,297.5 554.9,291.4 555.4,290.4 556.0,286.4 556.5,291.4 557.0,293.4 557.6,293.4 558.1,292.4 558.6,294.4 559.2,292.4 559.7,289.4 560.2,293.4 560.8,294.4 561.3,291.4 561.8,291.4 562.4,289.4 562.9,290.4 563.4,288.4 564.0,288.4 564.5,279.8 565.0,278.9 565.6,274.4 566.1,280.7 566.6,279.8 567.2,283.5 567.7,280.7 568.3,277.1 568.8,279.8 569.3,282.6 569.9,286.4 570.4,288.4 570.9,285.5 571.5,293.4 572.0,288.4 572.5,287.4 573.1,295.4 573.6,296.5 574.1,298.6 574.7,299.6 575.2,302.9 575.7,297.5 576.3,296.5 576.8,299.6 577.3,298.6 577.9,301.8 578.4,304.0 578.9,302.9 579.5,301.8 580.0,300.7 580.5,302.9 581.1,302.9 581.6,302.9 582.2,306.2 582.7,308.4 583.2,302.9 583.8,302.9 584.3,297.5 584.8,302.9 585.4,305.1 585.9,306.2 586.4,305.1 587.0,313.1 587.5,311.9 588.0,313.1 588.6,314.2 589.1,314.2 589.6,308.4 590.2,311.9 590.7,313.1 591.2,309.6 591.8,306.2 592.3,305.1 592.8,307.3 593.4,309.6 593.9,306.2 594.4,305.1 595.0,309.6 595.5,308.4 596.1,306.2 596.6,310.7 597.1,308.4 597.7,307.3 598.2,309.6 598.7,310.7 599.3,305.1 599.8,309.6 600.3,307.3 600.9,306.2 601.4,301.8 601.9,297.5 602.5,296.5 603.0,294.4 603.5,280.7 604.1,280.7 604.6,282.6 605.1,283.5 605.7,287.4 606.2,282.6 606.7,282.6 607.3,289.4 607.8,281.7 608.3,286.4 608.9,284.5 609.4,288.4 610.0,290.4 610.5,294.4 611.0,290.4 611.6,296.5 612.1,293.4 612.6,296.5 613.2,291.4 613.7,289.4 614.2,290.4 614.8,290.4 615.3,291.4 615.8,288.4 616.4,282.6 616.9,280.7 617.4,278.9 618.0,274.4 618.5,276.2 619.0,277.1 619.6,295.4 620.1,292.4 620.6,288.4 621.2,285.5 621.7,288.4 622.2,280.7 622.8,285.5 623.3,285.5 623.9,285.5 624.4,288.4 624.9,290.4 625.5,300.7 626.0,298.6 626.5,296.5 627.1,286.4 627.6,282.6 628.1,278.0 628.7,272.6 629.2,265.8 629.7,264.1 630.3,268.3 630.8,265.8 631.3,279.8 631.9,279.8 632.4,279.8 632.9,282.6 633.5,278.9 634.0,280.7 634.5,279.8 635.1,284.5 635.6,283.5 636.1,279.8 636.7,273.5 637.2,275.3 637.8,275.3 638.3,269.1 638.8,277.1 639.4,276.2 639.9,281.7 640.4,279.8 641.0,279.8 641.5,270.0 642.0,261.6 642.6,256.1 643.1,255.3 643.6,251.5 644.2,252.2 644.7,247.8 645.2,248.5 645.8,250.7 646.3,246.3 646.8,247.8 647.4,244.1 647.9,238.5 648.4,237.9 649.0,237.2 649.5,242.0 650.0,229.3 650.6,221.8 651.1,221.2 651.7,223.6 652.2,225.5 652.7,226.1 653.3,220.5 653.8,217.0 654.3,223.0 654.9,221.8 655.4,221.8 655.9,226.7 656.5,226.1 657.0,222.4 657.5,223.0 658.1,220.5 658.6,215.8 659.1,221.2 659.7,215.8 660.2,216.4 660.7,212.9 661.3,210.7 661.8,212.4 662.3,212.4 662.9,213.5 663.4,216.4 663.9,212.4 664.5,207.3 665.0,206.2 665.6,208.4 666.1,197.3 666.6,202.5 667.2,198.3 667.7,207.3 668.2,205.2 668.8,199.4 669.3,192.3 669.8,189.9 670.4,182.3 670.9,180.1 671.4,173.5 672.0,179.2 672.5,183.7 673.0,181.0 673.6,180.5 674.1,182.3 674.6,181.0 675.2,188.4 675.7,185.6 676.2,176.5 676.8,176.1 677.3,175.2 677.8,167.6 678.4,170.9 678.9,171.3 679.5,157.7 680.0,150.2 680.5,152.0 681.1,158.4 681.6,149.5 682.1,149.9 682.7,152.4 683.2,158.4 683.7,153.9 684.3,150.6 684.8,152.8 685.3,154.6 685.9,156.9 686.4,157.7 686.9,155.8 687.5,151.7 688.0,151.0 688.5,156.5 689.1,153.9 689.6,148.4 690.1,148.1 690.7,148.8 691.2,149.1 691.7,151.0 692.3,149.9 692.8,151.0 693.4,151.0 693.9,141.4 694.4,154.3 695.0,158.4 695.5,153.9 696.0,156.9 696.6,149.5 697.1,151.3 697.6,162.7 698.2,155.8 698.7,160.4 699.2,160.8 699.8,158.4 700.3,155.0 700.8,159.6 701.4,158.4 701.9,156.9 702.4,152.4 703.0,155.0 703.5,157.3 704.0,169.3 704.6,166.8 705.1,176.1 705.6,171.3 706.2,168.4 706.7,160.8 707.3,157.3 707.8,151.7 708.3,154.6 708.9,156.5 709.4,152.4 709.9,150.6 710.5,156.2 711.0,163.1 711.5,153.5 712.1,149.9 712.6,144.5 713.1,130.9 713.7,135.1 714.2,137.7 714.7,138.4 715.3,131.3 715.8,135.4 716.3,148.8 716.9,141.1 717.4,142.5 717.9,140.4 718.5,140.8 719.0,141.4 719.5,141.4 720.1,144.5 720.6,143.5 721.2,140.8 721.7,138.4 722.2,137.1 722.8,138.1 723.3,136.7 723.8,142.1 724.4,139.7 724.9,142.5 725.4,141.1 726.0,138.1 726.5,132.2 727.0,129.7 727.6,130.6 728.1,130.0 728.6,122.1 729.2,119.1 729.7,117.1 730.2,115.4 730.8,114.3 731.3,107.2 731.8,114.9 732.4,114.9 732.9,118.9 733.4,124.8 734.0,117.4 734.5,117.1 735.1,123.0 735.6,134.5 736.1,130.9 736.7,126.0 737.2,132.2 737.7,141.8 738.3,136.4 738.8,128.1 739.3,126.9 739.9,128.1 740.4,137.1 740.9,134.1 741.5,139.7 742.0,134.8 742.5,133.5 743.1,128.4 743.6,129.1 744.1,124.8 744.7,126.0 745.2,120.9 745.7,122.4 746.3,122.1 746.8,129.7 747.3,130.3 747.9,135.4 748.4,133.8 749.0,136.4 749.5,133.2 750.0,136.7 750.6,141.4 751.1,145.6 751.6,147.0 752.2,149.1 752.7,158.8 753.2,172.6 753.8,177.0 754.3,174.3 754.8,173.1 755.4,168.8 755.9,175.6 756.4,169.7 757.0,170.5 757.5,159.2 758.0,153.9 758.6,155.4 759.1,158.8 759.6,159.2 760.2,156.9 760.7,156.9 761.2,156.5 761.8,155.0 762.3,153.5 762.9,154.3 763.4,153.5 763.9,150.2 764.5,150.6 765.0,163.1 765.5,160.8 766.1,163.9 766.6,163.1 767.1,160.0 767.7,164.3 768.2,167.6 768.7,165.2 769.3,164.7 769.8,164.7 770.3,164.7 770.9,161.6 771.4,158.4 771.9,158.1 772.5,153.9 773.0,153.9 773.5,153.5 774.1,160.0 774.6,169.7 775.1,172.2 775.7,178.3 776.2,173.9 776.8,173.9 777.3,177.4 777.8,171.8 778.4,176.5 778.9,174.8 779.4,172.6 780.0,177.0 780.5,173.9 781.0,179.6 781.6,178.7 782.1,191.8 782.6,190.3 783.2,191.3 783.7,198.3 784.2,190.8 784.8,189.4 785.3,184.6 785.8,181.4 786.4,187.9 786.9,189.9 787.4,193.3 788.0,192.3 788.5,199.4 789.0,199.4 789.6,192.8 790.1,195.8 790.7,195.3 791.2,195.3 791.7,190.3 792.3,193.8 792.8,200.9 793.3,203.6 793.9,202.5 794.4,202.5 794.9,205.7 795.5,204.1 796.0,205.2"/>
<text x="78" y="392" font-size="11" fill="#16a34a">Total return -26.5%</text><text x="268" y="392" font-size="11" fill="#2563eb">Price-only -28.2%</text><text x="78" y="362" font-size="11" text-anchor="middle" fill="#64748b">2021-03</text><text x="258" y="362" font-size="11" text-anchor="middle" fill="#64748b">2022-07</text><text x="437" y="362" font-size="11" text-anchor="middle" fill="#64748b">2023-11</text><text x="617" y="362" font-size="11" text-anchor="middle" fill="#64748b">2025-03</text><text x="796" y="362" font-size="11" text-anchor="middle" fill="#64748b">2026-07</text></svg>