<svg xmlns="http://www.w3.org/2000/svg" width="820" height="410" viewBox="0 0 820 410">
<rect width="820" height="410" fill="#fafafa"/><text x="78" y="22" font-size="14" font-family="sans-serif" fill="#0f172a">CMSG cumulative return since 2026-05-27 | dividends reinvested</text>
<text x="78" y="40" font-size="11" font-family="sans-serif" fill="#334155">Total return -6.6% | Price-only -6.6% | logarithmic scale</text>
<text x="78" y="54" font-size="9" font-family="sans-serif" fill="#64748b">Regular $0.00 | Special $0.00 | Other $0.00 per initial share path</text>
<line x1="78" y1="332.0" x2="796" y2="332.0" stroke="#e2e8f0"/><text x="70" y="336.0" font-size="10" text-anchor="end" fill="#64748b">-14.1%</text><line x1="78" y1="287.0" x2="796" y2="287.0" stroke="#e2e8f0"/><text x="70" y="291.0" font-size="10" text-anchor="end" fill="#64748b">-10.6%</text><line x1="78" y1="242.0" x2="796" y2="242.0" stroke="#e2e8f0"/><text x="70" y="246.0" font-size="10" text-anchor="end" fill="#64748b">-6.9%</text><line x1="78" y1="197.0" x2="796" y2="197.0" stroke="#e2e8f0"/><text x="70" y="201.0" font-size="10" text-anchor="end" fill="#64748b">-3.2%</text><line x1="78" y1="160.4" x2="796" y2="160.4" stroke="#e2e8f0"/><text x="70" y="164.4" font-size="10" text-anchor="end" fill="#64748b">0%</text><line x1="78" y1="152.0" x2="796" y2="152.0" stroke="#e2e8f0"/><text x="70" y="156.0" font-size="10" text-anchor="end" fill="#64748b">+0.7%</text><line x1="78" y1="107.0" x2="796" y2="107.0" stroke="#e2e8f0"/><text x="70" y="111.0" font-size="10" text-anchor="end" fill="#64748b">+4.8%</text><line x1="78" y1="62.0" x2="796" y2="62.0" stroke="#e2e8f0"/><text x="70" y="66.0" font-size="10" text-anchor="end" fill="#64748b">+9.1%</text>
<line x1="78" y1="332" x2="796" y2="332" stroke="#cbd5e1"/>
<polyline fill="none" stroke="#2563eb" stroke-width="2" points="78.0,160.4 100.4,160.4 122.9,107.3 145.3,209.9 167.8,209.5 190.2,200.2 212.6,180.1 235.1,218.5 257.5,180.1 279.9,200.2 302.4,239.3 324.8,200.6 347.2,279.8 369.7,262.6 392.1,243.5 414.6,241.4 437.0,222.6 459.4,273.3 481.9,264.7 504.3,286.7 526.8,282.0 549.2,241.4 571.6,216.1 594.1,190.1 616.5,180.1 638.9,180.1 661.4,200.2 683.8,200.2 706.2,237.2 728.7,237.2 751.1,237.2 773.6,237.2 796.0,237.2"/><polyline fill="none" stroke="#16a34a" stroke-width="3" points="78.0,160.4 100.4,160.4 122.9,107.3 145.3,209.9 167.8,209.5 190.2,200.2 212.6,180.1 235.1,218.5 257.5,180.1 279.9,200.2 302.4,239.3 324.8,200.6 347.2,279.8 369.7,262.6 392.1,243.5 414.6,241.4 437.0,222.6 459.4,273.3 481.9,264.7 504.3,286.7 526.8,282.0 549.2,241.4 571.6,216.1 594.1,190.1 616.5,180.1 638.9,180.1 661.4,200.2 683.8,200.2 706.2,237.2 728.7,237.2 751.1,237.2 773.6,237.2 796.0,237.2"/>
<text x="78" y="392" font-size="11" fill="#16a34a">Total return -6.6%</text><text x="268" y="392" font-size="11" fill="#2563eb">Price-only -6.6%</text><text x="78" y="362" font-size="11" text-anchor="middle" fill="#64748b">2026-05</text><text x="258" y="362" font-size="11" text-anchor="middle" fill="#64748b">2026-06</text><text x="437" y="362" font-size="11" text-anchor="middle" fill="#64748b">2026-06</text><text x="616" y="362" font-size="11" text-anchor="middle" fill="#64748b">2026-07</text><text x="796" y="362" font-size="11" text-anchor="middle" fill="#64748b">2026-07</text></svg>