<svg xmlns="http://www.w3.org/2000/svg" width="720" height="360" viewBox="0 0 720 360">
  <rect width="720" height="360" fill="#fafafa"/>
  <text x="56" y="22" font-size="13" font-family="sans-serif" fill="#222">NBIS total return (rebased 100) · cumulative distributions $0.00/sh · market cap n/a</text>
  <line x1="56" y1="308" x2="696" y2="308" stroke="#ccc"/>
  <line x1="56" y1="48" x2="56" y2="308" stroke="#ccc"/>
  <polyline fill="none" stroke="#2563eb" stroke-width="2" points="56.0,287.5 57.6,288.6 59.1,290.1 60.7,289.6 62.2,287.9 63.8,284.1 65.4,284.2 66.9,285.6 68.5,286.2 70.0,287.4 71.6,286.8 73.2,288.4 74.7,288.1 76.3,286.9 77.9,287.6 79.4,286.6 81.0,287.9 82.5,288.8 84.1,289.2 85.7,289.7 87.2,288.8 88.8,286.9 90.3,287.0 91.9,285.7 93.5,284.3 95.0,284.3 96.6,285.6 98.1,286.2 99.7,285.7 101.3,282.3 102.8,279.0 104.4,276.3 106.0,277.4 107.5,272.3 109.1,276.7 110.6,275.1 112.2,275.9 113.8,277.2 115.3,277.8 116.9,275.4 118.4,279.0 120.0,281.1 121.6,281.1 123.1,281.4 124.7,279.7 126.2,280.0 127.8,280.2 129.4,280.9 130.9,281.2 132.5,280.5 134.0,278.0 135.6,277.4 137.2,277.3 138.7,277.0 140.3,277.8 141.9,275.6 143.4,273.3 145.0,272.2 146.5,272.1 148.1,271.6 149.7,273.0 151.2,271.5 152.8,269.8 154.3,270.6 155.9,267.8 157.5,282.0 159.0,278.4 160.6,278.7 162.1,276.8 163.7,276.0 165.3,275.4 166.8,274.4 168.4,274.9 170.0,274.3 171.5,271.1 173.1,268.5 174.6,268.1 176.2,270.0 177.8,267.8 179.3,265.3 180.9,262.1 182.4,265.0 184.0,263.7 185.6,269.5 187.1,272.8 188.7,274.6 190.2,273.0 191.8,276.6 193.4,276.2 194.9,280.2 196.5,278.8 198.0,278.3 199.6,281.3 201.2,280.3 202.7,281.9 204.3,282.6 205.9,279.9 207.4,281.9 209.0,279.6 210.5,280.0 212.1,282.4 213.7,280.6 215.2,281.9 216.8,281.2 218.3,279.2 219.9,281.0 221.5,283.2 223.0,282.6 224.6,285.4 226.1,286.5 227.7,285.1 229.3,283.5 230.8,285.9 232.4,287.2 234.0,286.5 235.5,287.4 237.1,284.4 238.6,286.6 240.2,286.1 241.8,286.8 243.3,286.3 244.9,286.5 246.4,286.1 248.0,286.8 249.6,285.8 251.1,284.8 252.7,283.5 254.2,283.4 255.8,283.8 257.4,284.0 258.9,285.0 260.5,283.9 262.0,282.6 263.6,284.1 265.2,282.9 266.7,280.7 268.3,280.0 269.9,280.0 271.4,275.4 273.0,273.7 274.5,272.9 276.1,273.2 277.7,271.8 279.2,271.6 280.8,270.2 282.3,270.4 283.9,271.4 285.5,270.7 287.0,269.5 288.6,269.7 290.1,271.1 291.7,272.3 293.3,273.0 294.8,271.8 296.4,269.9 298.0,263.7 299.5,261.9 301.1,258.0 302.6,258.0 304.2,259.8 305.8,260.1 307.3,262.9 308.9,259.9 310.4,261.8 312.0,261.8 313.6,262.2 315.1,262.6 316.7,259.4 318.2,261.7 319.8,258.0 321.4,258.6 322.9,255.5 324.5,260.0 326.0,260.3 327.6,260.1 329.2,262.3 330.7,262.9 332.3,263.9 333.9,263.5 335.4,265.5 337.0,258.5 338.5,257.1 340.1,257.3 341.7,257.0 343.2,257.8 344.8,258.2 346.3,259.4 347.9,258.6 349.5,258.4 351.0,259.1 352.6,257.8 354.1,259.9 355.7,259.1 357.3,256.3 358.8,258.5 360.4,256.5 362.0,255.6 363.5,255.7 365.1,246.4 366.6,243.3 368.2,242.0 369.8,237.4 371.3,241.6 372.9,243.6 374.4,240.7 376.0,239.9 377.6,244.7 379.1,244.5 380.7,245.6 382.2,243.1 383.8,242.2 385.4,241.8 386.9,242.1 388.5,240.3 390.0,243.7 391.6,246.1 393.2,246.1 394.7,246.8 396.3,246.3 397.9,247.6 399.4,218.9 401.0,221.0 402.5,224.8 404.1,223.7 405.7,223.2 407.2,224.6 408.8,220.4 410.3,220.3 411.9,215.6 413.5,209.0 415.0,207.9 416.6,203.0 418.1,207.8 419.7,208.0 421.3,205.7 422.8,203.9 424.4,200.9 426.0,191.6 427.5,189.6 429.1,192.4 430.6,199.0 432.2,195.1 433.8,185.4 435.3,188.2 436.9,182.9 438.4,189.5 440.0,191.6 441.6,194.1 443.1,202.8 444.7,206.8 446.2,211.1 447.8,216.3 449.4,209.4 450.9,199.4 452.5,192.0 454.0,195.2 455.6,192.3 457.2,193.1 458.7,187.1 460.3,196.5 461.9,205.5 463.4,199.6 465.0,206.4 466.5,204.8 468.1,206.0 469.7,213.0 471.2,220.1 472.8,225.3 474.3,229.9 475.9,227.7 477.5,223.6 479.0,219.5 480.6,228.9 482.1,230.2 483.7,222.3 485.3,225.1 486.8,219.8 488.4,219.7 490.0,214.9 491.5,218.2 493.1,216.0 494.6,212.5 496.2,216.8 497.8,214.7 499.3,218.3 500.9,220.8 502.4,220.2 504.0,226.2 505.6,232.1 507.1,232.3 508.7,237.2 510.2,234.9 511.8,224.6 513.4,221.1 514.9,224.0 516.5,223.0 518.0,226.2 519.6,227.7 521.2,228.4 522.7,229.8 524.3,224.1 525.9,221.5 527.4,214.8 529.0,218.4 530.5,217.4 532.1,216.9 533.7,208.4 535.2,210.1 536.8,213.2 538.3,211.5 539.9,207.1 541.5,215.6 543.0,216.0 544.6,217.9 546.1,220.0 547.7,222.7 549.3,216.9 550.8,214.6 552.4,219.6 554.0,228.4 555.5,225.7 557.1,224.1 558.6,231.0 560.2,238.7 561.8,227.6 563.3,221.5 564.9,222.4 566.4,225.3 568.0,224.3 569.6,216.8 571.1,217.3 572.7,213.4 574.2,208.1 575.8,216.9 577.4,214.5 578.9,212.7 580.5,209.5 582.0,210.6 583.6,223.0 585.2,223.1 586.7,227.0 588.3,217.0 589.9,218.9 591.4,224.7 593.0,219.6 594.5,218.2 596.1,204.1 597.7,207.7 599.2,203.3 600.8,188.0 602.3,200.2 603.9,198.2 605.5,195.5 607.0,199.0 608.6,202.2 610.1,201.5 611.7,201.3 613.3,209.6 614.8,214.3 616.4,222.0 618.0,211.6 619.5,213.2 621.1,207.0 622.6,203.6 624.2,199.2 625.8,192.3 627.3,182.1 628.9,174.3 630.4,165.6 632.0,158.9 633.6,154.5 635.1,155.8 636.7,163.2 638.2,161.4 639.8,163.8 641.4,164.1 642.9,163.3 644.5,172.3 646.0,174.3 647.6,182.8 649.2,177.7 650.7,180.4 652.3,165.6 653.9,145.8 655.4,146.2 657.0,128.8 658.5,138.2 660.1,145.2 661.7,137.0 663.2,143.3 664.8,117.8 666.3,105.2 667.9,106.3 669.5,124.5 671.0,126.4 672.6,131.8 674.1,106.3 675.7,111.0 677.3,117.1 678.8,116.8 680.4,100.5 682.0,96.2 683.5,65.9 685.1,69.5 686.6,77.6 688.2,70.3 689.8,99.2 691.3,108.1 692.9,106.2 694.4,113.8 696.0,109.9"/>
  <polyline fill="none" stroke="#16a34a" stroke-width="2" points="56.0,287.5 57.6,288.6 59.1,290.1 60.7,289.6 62.2,287.9 63.8,284.1 65.4,284.2 66.9,285.6 68.5,286.2 70.0,287.4 71.6,286.8 73.2,288.4 74.7,288.1 76.3,286.9 77.9,287.6 79.4,286.6 81.0,287.9 82.5,288.8 84.1,289.2 85.7,289.7 87.2,288.8 88.8,286.9 90.3,287.0 91.9,285.7 93.5,284.3 95.0,284.3 96.6,285.6 98.1,286.2 99.7,285.7 101.3,282.3 102.8,279.0 104.4,276.3 106.0,277.4 107.5,272.3 109.1,276.7 110.6,275.1 112.2,275.9 113.8,277.2 115.3,277.8 116.9,275.4 118.4,279.0 120.0,281.1 121.6,281.1 123.1,281.4 124.7,279.7 126.2,280.0 127.8,280.2 129.4,280.9 130.9,281.2 132.5,280.5 134.0,278.0 135.6,277.4 137.2,277.3 138.7,277.0 140.3,277.8 141.9,275.6 143.4,273.3 145.0,272.2 146.5,272.1 148.1,271.6 149.7,273.0 151.2,271.5 152.8,269.8 154.3,270.6 155.9,267.8 157.5,282.0 159.0,278.4 160.6,278.7 162.1,276.8 163.7,276.0 165.3,275.4 166.8,274.4 168.4,274.9 170.0,274.3 171.5,271.1 173.1,268.5 174.6,268.1 176.2,270.0 177.8,267.8 179.3,265.3 180.9,262.1 182.4,265.0 184.0,263.7 185.6,269.5 187.1,272.8 188.7,274.6 190.2,273.0 191.8,276.6 193.4,276.2 194.9,280.2 196.5,278.8 198.0,278.3 199.6,281.3 201.2,280.3 202.7,281.9 204.3,282.6 205.9,279.9 207.4,281.9 209.0,279.6 210.5,280.0 212.1,282.4 213.7,280.6 215.2,281.9 216.8,281.2 218.3,279.2 219.9,281.0 221.5,283.2 223.0,282.6 224.6,285.4 226.1,286.5 227.7,285.1 229.3,283.5 230.8,285.9 232.4,287.2 234.0,286.5 235.5,287.4 237.1,284.4 238.6,286.6 240.2,286.1 241.8,286.8 243.3,286.3 244.9,286.5 246.4,286.1 248.0,286.8 249.6,285.8 251.1,284.8 252.7,283.5 254.2,283.4 255.8,283.8 257.4,284.0 258.9,285.0 260.5,283.9 262.0,282.6 263.6,284.1 265.2,282.9 266.7,280.7 268.3,280.0 269.9,280.0 271.4,275.4 273.0,273.7 274.5,272.9 276.1,273.2 277.7,271.8 279.2,271.6 280.8,270.2 282.3,270.4 283.9,271.4 285.5,270.7 287.0,269.5 288.6,269.7 290.1,271.1 291.7,272.3 293.3,273.0 294.8,271.8 296.4,269.9 298.0,263.7 299.5,261.9 301.1,258.0 302.6,258.0 304.2,259.8 305.8,260.1 307.3,262.9 308.9,259.9 310.4,261.8 312.0,261.8 313.6,262.2 315.1,262.6 316.7,259.4 318.2,261.7 319.8,258.0 321.4,258.6 322.9,255.5 324.5,260.0 326.0,260.3 327.6,260.1 329.2,262.3 330.7,262.9 332.3,263.9 333.9,263.5 335.4,265.5 337.0,258.5 338.5,257.1 340.1,257.3 341.7,257.0 343.2,257.8 344.8,258.2 346.3,259.4 347.9,258.6 349.5,258.4 351.0,259.1 352.6,257.8 354.1,259.9 355.7,259.1 357.3,256.3 358.8,258.5 360.4,256.5 362.0,255.6 363.5,255.7 365.1,246.4 366.6,243.3 368.2,242.0 369.8,237.4 371.3,241.6 372.9,243.6 374.4,240.7 376.0,239.9 377.6,244.7 379.1,244.5 380.7,245.6 382.2,243.1 383.8,242.2 385.4,241.8 386.9,242.1 388.5,240.3 390.0,243.7 391.6,246.1 393.2,246.1 394.7,246.8 396.3,246.3 397.9,247.6 399.4,218.9 401.0,221.0 402.5,224.8 404.1,223.7 405.7,223.2 407.2,224.6 408.8,220.4 410.3,220.3 411.9,215.6 413.5,209.0 415.0,207.9 416.6,203.0 418.1,207.8 419.7,208.0 421.3,205.7 422.8,203.9 424.4,200.9 426.0,191.6 427.5,189.6 429.1,192.4 430.6,199.0 432.2,195.1 433.8,185.4 435.3,188.2 436.9,182.9 438.4,189.5 440.0,191.6 441.6,194.1 443.1,202.8 444.7,206.8 446.2,211.1 447.8,216.3 449.4,209.4 450.9,199.4 452.5,192.0 454.0,195.2 455.6,192.3 457.2,193.1 458.7,187.1 460.3,196.5 461.9,205.5 463.4,199.6 465.0,206.4 466.5,204.8 468.1,206.0 469.7,213.0 471.2,220.1 472.8,225.3 474.3,229.9 475.9,227.7 477.5,223.6 479.0,219.5 480.6,228.9 482.1,230.2 483.7,222.3 485.3,225.1 486.8,219.8 488.4,219.7 490.0,214.9 491.5,218.2 493.1,216.0 494.6,212.5 496.2,216.8 497.8,214.7 499.3,218.3 500.9,220.8 502.4,220.2 504.0,226.2 505.6,232.1 507.1,232.3 508.7,237.2 510.2,234.9 511.8,224.6 513.4,221.1 514.9,224.0 516.5,223.0 518.0,226.2 519.6,227.7 521.2,228.4 522.7,229.8 524.3,224.1 525.9,221.5 527.4,214.8 529.0,218.4 530.5,217.4 532.1,216.9 533.7,208.4 535.2,210.1 536.8,213.2 538.3,211.5 539.9,207.1 541.5,215.6 543.0,216.0 544.6,217.9 546.1,220.0 547.7,222.7 549.3,216.9 550.8,214.6 552.4,219.6 554.0,228.4 555.5,225.7 557.1,224.1 558.6,231.0 560.2,238.7 561.8,227.6 563.3,221.5 564.9,222.4 566.4,225.3 568.0,224.3 569.6,216.8 571.1,217.3 572.7,213.4 574.2,208.1 575.8,216.9 577.4,214.5 578.9,212.7 580.5,209.5 582.0,210.6 583.6,223.0 585.2,223.1 586.7,227.0 588.3,217.0 589.9,218.9 591.4,224.7 593.0,219.6 594.5,218.2 596.1,204.1 597.7,207.7 599.2,203.3 600.8,188.0 602.3,200.2 603.9,198.2 605.5,195.5 607.0,199.0 608.6,202.2 610.1,201.5 611.7,201.3 613.3,209.6 614.8,214.3 616.4,222.0 618.0,211.6 619.5,213.2 621.1,207.0 622.6,203.6 624.2,199.2 625.8,192.3 627.3,182.1 628.9,174.3 630.4,165.6 632.0,158.9 633.6,154.5 635.1,155.8 636.7,163.2 638.2,161.4 639.8,163.8 641.4,164.1 642.9,163.3 644.5,172.3 646.0,174.3 647.6,182.8 649.2,177.7 650.7,180.4 652.3,165.6 653.9,145.8 655.4,146.2 657.0,128.8 658.5,138.2 660.1,145.2 661.7,137.0 663.2,143.3 664.8,117.8 666.3,105.2 667.9,106.3 669.5,124.5 671.0,126.4 672.6,131.8 674.1,106.3 675.7,111.0 677.3,117.1 678.8,116.8 680.4,100.5 682.0,96.2 683.5,65.9 685.1,69.5 686.6,77.6 688.2,70.3 689.8,99.2 691.3,108.1 692.9,106.2 694.4,113.8 696.0,109.9"/>
  <text x="60" y="62" font-size="11" fill="#2563eb">Price index</text>
  <text x="146" y="62" font-size="11" fill="#16a34a">Total return (price + distributions)</text>
  <text x="56" y="348" font-size="11" text-anchor="middle" fill="#444">2024-10</text><text x="215" y="348" font-size="11" text-anchor="middle" fill="#444">2025-03</text><text x="376" y="348" font-size="11" text-anchor="middle" fill="#444">2025-08</text><text x="537" y="348" font-size="11" text-anchor="middle" fill="#444">2026-01</text><text x="696" y="348" font-size="11" text-anchor="middle" fill="#444">2026-06</text>
</svg>
