<svg xmlns="http://www.w3.org/2000/svg" width="720" height="360" viewBox="0 0 720 360">
  <rect width="720" height="360" fill="#fafafa"/>
  <text x="56" y="22" font-size="13" font-family="sans-serif" fill="#222">FNV total return (rebased 100) · cumulative distributions $0.00/sh · market cap n/a</text>
  <line x1="56" y1="308" x2="696" y2="308" stroke="#ccc"/>
  <line x1="56" y1="48" x2="56" y2="308" stroke="#ccc"/>
  <polyline fill="none" stroke="#2563eb" stroke-width="2" points="56.0,288.5 58.9,285.0 61.8,282.0 64.6,285.5 67.5,286.4 70.4,282.9 73.3,281.1 76.2,283.7 79.1,284.5 81.9,285.5 84.8,289.2 87.7,290.1 90.6,286.7 93.5,283.8 96.4,283.9 99.2,283.2 102.1,283.5 105.0,278.0 107.9,281.1 110.8,280.0 113.7,279.9 116.5,279.3 119.4,280.5 122.3,278.5 125.2,278.7 128.1,279.9 131.0,279.4 133.8,278.8 136.7,277.2 139.6,277.3 142.5,275.6 145.4,275.6 148.3,276.4 151.1,274.8 154.0,272.2 156.9,273.4 159.8,273.3 162.7,277.9 165.5,272.7 168.4,270.5 171.3,268.1 174.2,269.0 177.1,269.9 180.0,266.1 182.8,265.3 185.7,271.0 188.6,267.9 191.5,265.8 194.4,269.4 197.3,263.4 200.1,264.3 203.0,265.2 205.9,263.7 208.8,266.1 211.7,263.4 214.6,260.3 217.4,257.8 220.3,251.9 223.2,253.0 226.1,254.1 229.0,253.3 231.9,256.5 234.7,260.8 237.6,263.0 240.5,264.7 243.4,266.3 246.3,271.3 249.2,265.9 252.0,263.2 254.9,263.3 257.8,263.6 260.7,267.4 263.6,267.1 266.5,260.6 269.3,258.4 272.2,262.8 275.1,260.9 278.0,262.2 280.9,253.2 283.7,253.9 286.6,254.1 289.5,260.3 292.4,262.1 295.3,259.3 298.2,260.0 301.0,253.0 303.9,257.0 306.8,260.6 309.7,257.8 312.6,258.1 315.5,261.3 318.3,267.3 321.2,264.9 324.1,264.4 327.0,258.8 329.9,261.1 332.8,262.9 335.6,264.3 338.5,251.3 341.4,249.8 344.3,242.4 347.2,248.1 350.1,237.5 352.9,236.7 355.8,242.7 358.7,242.7 361.6,246.4 364.5,252.7 367.4,251.2 370.2,246.7 373.1,247.1 376.0,246.3 378.9,244.1 381.8,238.7 384.6,240.8 387.5,240.5 390.4,232.7 393.3,236.3 396.2,234.7 399.1,233.2 401.9,234.2 404.8,237.2 407.7,242.5 410.6,243.9 413.5,241.8 416.4,242.1 419.2,240.0 422.1,239.8 425.0,247.6 427.9,248.8 430.8,248.9 433.7,243.5 436.5,242.4 439.4,236.2 442.3,238.1 445.2,238.3 448.1,241.2 451.0,236.5 453.8,230.1 456.7,228.5 459.6,219.4 462.5,224.8 465.4,220.0 468.3,218.8 471.1,214.6 474.0,206.0 476.9,211.1 479.8,217.8 482.7,190.4 485.5,183.4 488.4,184.2 491.3,167.2 494.2,175.1 497.1,184.2 500.0,186.8 502.8,189.7 505.7,196.2 508.6,201.2 511.5,211.5 514.4,196.2 517.3,184.5 520.1,175.8 523.0,179.6 525.9,167.2 528.8,179.0 531.7,192.3 534.6,181.5 537.4,186.0 540.3,185.3 543.2,190.3 546.1,177.9 549.0,167.5 551.9,174.5 554.7,182.1 557.6,190.9 560.5,193.9 563.4,200.5 566.3,201.1 569.2,197.6 572.0,178.7 574.9,186.8 577.8,178.2 580.7,194.3 583.6,179.0 586.5,174.0 589.3,179.3 592.2,181.7 595.1,179.0 598.0,180.5 600.9,189.3 603.7,199.3 606.6,207.3 609.5,208.3 612.4,210.5 615.3,213.3 618.2,201.3 621.0,200.3 623.9,197.4 626.8,201.9 629.7,193.1 632.6,198.8 635.5,197.1 638.3,190.0 641.2,198.4 644.1,202.7 647.0,187.3 649.9,181.4 652.8,169.1 655.6,157.2 658.5,159.7 661.4,163.8 664.3,167.7 667.2,143.3 670.1,114.3 672.9,144.8 675.8,125.3 678.7,127.4 681.6,104.7 684.5,65.9 687.4,94.1 690.2,108.1 693.1,107.8 696.0,126.3"/>
  <polyline fill="none" stroke="#16a34a" stroke-width="2" points="56.0,288.5 58.9,285.0 61.8,282.0 64.6,285.5 67.5,286.4 70.4,282.9 73.3,281.1 76.2,283.7 79.1,284.5 81.9,285.5 84.8,289.2 87.7,290.1 90.6,286.7 93.5,283.8 96.4,283.9 99.2,283.2 102.1,283.5 105.0,278.0 107.9,281.1 110.8,280.0 113.7,279.9 116.5,279.3 119.4,280.5 122.3,278.5 125.2,278.7 128.1,279.9 131.0,279.4 133.8,278.8 136.7,277.2 139.6,277.3 142.5,275.6 145.4,275.6 148.3,276.4 151.1,274.8 154.0,272.2 156.9,273.4 159.8,273.3 162.7,277.9 165.5,272.7 168.4,270.5 171.3,268.1 174.2,269.0 177.1,269.9 180.0,266.1 182.8,265.3 185.7,271.0 188.6,267.9 191.5,265.8 194.4,269.4 197.3,263.4 200.1,264.3 203.0,265.2 205.9,263.7 208.8,266.1 211.7,263.4 214.6,260.3 217.4,257.8 220.3,251.9 223.2,253.0 226.1,254.1 229.0,253.3 231.9,256.5 234.7,260.8 237.6,263.0 240.5,264.7 243.4,266.3 246.3,271.3 249.2,265.9 252.0,263.2 254.9,263.3 257.8,263.6 260.7,267.4 263.6,267.1 266.5,260.6 269.3,258.4 272.2,262.8 275.1,260.9 278.0,262.2 280.9,253.2 283.7,253.9 286.6,254.1 289.5,260.3 292.4,262.1 295.3,259.3 298.2,260.0 301.0,253.0 303.9,257.0 306.8,260.6 309.7,257.8 312.6,258.1 315.5,261.3 318.3,267.3 321.2,264.9 324.1,264.4 327.0,258.8 329.9,261.1 332.8,262.9 335.6,264.3 338.5,251.3 341.4,249.8 344.3,242.4 347.2,248.1 350.1,237.5 352.9,236.7 355.8,242.7 358.7,242.7 361.6,246.4 364.5,252.7 367.4,251.2 370.2,246.7 373.1,247.1 376.0,246.3 378.9,244.1 381.8,238.7 384.6,240.8 387.5,240.5 390.4,232.7 393.3,236.3 396.2,234.7 399.1,233.2 401.9,234.2 404.8,237.2 407.7,242.5 410.6,243.9 413.5,241.8 416.4,242.1 419.2,240.0 422.1,239.8 425.0,247.6 427.9,248.8 430.8,248.9 433.7,243.5 436.5,242.4 439.4,236.2 442.3,238.1 445.2,238.3 448.1,241.2 451.0,236.5 453.8,230.1 456.7,228.5 459.6,219.4 462.5,224.8 465.4,220.0 468.3,218.8 471.1,214.6 474.0,206.0 476.9,211.1 479.8,217.8 482.7,190.4 485.5,183.4 488.4,184.2 491.3,167.2 494.2,175.1 497.1,184.2 500.0,186.8 502.8,189.7 505.7,196.2 508.6,201.2 511.5,211.5 514.4,196.2 517.3,184.5 520.1,175.8 523.0,179.6 525.9,167.2 528.8,179.0 531.7,192.3 534.6,181.5 537.4,186.0 540.3,185.3 543.2,190.3 546.1,177.9 549.0,167.5 551.9,174.5 554.7,182.1 557.6,190.9 560.5,193.9 563.4,200.5 566.3,201.1 569.2,197.6 572.0,178.7 574.9,186.8 577.8,178.2 580.7,194.3 583.6,179.0 586.5,174.0 589.3,179.3 592.2,181.7 595.1,179.0 598.0,180.5 600.9,189.3 603.7,199.3 606.6,207.3 609.5,208.3 612.4,210.5 615.3,213.3 618.2,201.3 621.0,200.3 623.9,197.4 626.8,201.9 629.7,193.1 632.6,198.8 635.5,197.1 638.3,190.0 641.2,198.4 644.1,202.7 647.0,187.3 649.9,181.4 652.8,169.1 655.6,157.2 658.5,159.7 661.4,163.8 664.3,167.7 667.2,143.3 670.1,114.3 672.9,144.8 675.8,125.3 678.7,127.4 681.6,104.7 684.5,65.9 687.4,94.1 690.2,108.1 693.1,107.8 696.0,126.3"/>
  <text x="60" y="62" font-size="11" fill="#2563eb">Price index</text>
  <text x="146" y="62" font-size="11" fill="#16a34a">Total return (price + distributions)</text>
  <text x="56" y="348" font-size="11" text-anchor="middle" fill="#444">2007-12</text><text x="215" y="348" font-size="11" text-anchor="middle" fill="#444">2012-07</text><text x="376" y="348" font-size="11" text-anchor="middle" fill="#444">2017-03</text><text x="537" y="348" font-size="11" text-anchor="middle" fill="#444">2021-11</text><text x="696" y="348" font-size="11" text-anchor="middle" fill="#444">2026-06</text>
</svg>
