<svg xmlns="http://www.w3.org/2000/svg" width="820" height="410" viewBox="0 0 820 410">
<rect width="820" height="410" fill="#fafafa"/><text x="78" y="22" font-size="14" font-family="sans-serif" fill="#0f172a">TFPM cumulative return since 2022-08-30 | dividends reinvested</text>
<text x="78" y="40" font-size="11" font-family="sans-serif" fill="#334155">Total return +151.8% | Price-only +140.4% | logarithmic scale</text>
<text x="78" y="54" font-size="9" font-family="sans-serif" fill="#64748b">Regular $0.77 | Special $0.00 | Other $0.00 per initial share path</text>
<line x1="78" y1="332.0" x2="796" y2="332.0" stroke="#e2e8f0"/><text x="70" y="336.0" font-size="10" text-anchor="end" fill="#64748b">-12.1%</text><line x1="78" y1="309.5" x2="796" y2="309.5" stroke="#e2e8f0"/><text x="70" y="313.5" font-size="10" text-anchor="end" fill="#64748b">0%</text><line x1="78" y1="287.0" x2="796" y2="287.0" stroke="#e2e8f0"/><text x="70" y="291.0" font-size="10" text-anchor="end" fill="#64748b">+13.7%</text><line x1="78" y1="242.0" x2="796" y2="242.0" stroke="#e2e8f0"/><text x="70" y="246.0" font-size="10" text-anchor="end" fill="#64748b">+47.1%</text><line x1="78" y1="197.0" x2="796" y2="197.0" stroke="#e2e8f0"/><text x="70" y="201.0" font-size="10" text-anchor="end" fill="#64748b">+90.2%</text><line x1="78" y1="152.0" x2="796" y2="152.0" stroke="#e2e8f0"/><text x="70" y="156.0" font-size="10" text-anchor="end" fill="#64748b">+146.0%</text><line x1="78" y1="107.0" x2="796" y2="107.0" stroke="#e2e8f0"/><text x="70" y="111.0" font-size="10" text-anchor="end" fill="#64748b">+218.2%</text><line x1="78" y1="62.0" x2="796" y2="62.0" stroke="#e2e8f0"/><text x="70" y="66.0" font-size="10" text-anchor="end" fill="#64748b">+311.5%</text>
<line x1="78" y1="332" x2="796" y2="332" stroke="#cbd5e1"/>
<polyline fill="none" stroke="#2563eb" stroke-width="2" points="78.0,309.5 78.7,298.4 79.5,300.6 80.2,292.0 81.0,296.5 81.7,293.3 82.4,291.0 83.2,294.0 83.9,291.6 84.7,288.7 85.4,290.4 86.1,295.5 86.9,293.6 87.6,293.4 88.4,297.2 89.1,296.2 89.8,292.7 90.6,299.3 91.3,302.6 92.1,304.1 92.8,299.9 93.5,296.8 94.3,291.3 95.0,286.8 95.8,287.9 96.5,289.9 97.2,290.2 98.0,300.3 98.7,302.0 99.5,304.4 100.2,305.2 100.9,303.6 101.7,305.4 102.4,305.3 103.2,306.8 103.9,309.2 104.6,306.9 105.4,306.0 106.1,311.1 106.9,311.8 107.6,312.9 108.3,312.8 109.1,311.4 109.8,308.0 110.6,311.7 111.3,308.3 112.0,312.8 112.8,305.1 113.5,311.7 114.3,312.5 115.0,317.5 115.8,311.7 116.5,312.2 117.2,316.6 118.0,311.1 118.7,315.0 119.5,310.7 120.2,312.8 120.9,313.9 121.7,305.3 122.4,307.2 123.2,306.5 123.9,306.0 124.6,300.8 125.4,290.9 126.1,277.9 126.9,279.4 127.6,288.6 128.3,289.0 129.1,283.9 129.8,287.5 130.6,287.1 131.3,289.5 132.0,286.7 132.8,287.9 133.5,289.0 134.3,278.9 135.0,276.5 135.7,278.1 136.5,274.0 137.2,273.6 138.0,272.0 138.7,266.6 139.4,266.6 140.2,270.6 140.9,276.6 141.7,275.0 142.4,272.3 143.1,271.5 143.9,276.1 144.6,274.7 145.4,271.3 146.1,272.2 146.8,272.0 147.6,277.8 148.3,280.3 149.1,279.7 149.8,275.7 150.5,276.1 151.3,280.5 152.0,281.2 152.8,282.0 153.5,282.4 154.2,282.8 155.0,278.1 155.7,279.9 156.5,277.2 157.2,278.3 157.9,280.3 158.7,274.7 159.4,273.1 160.2,273.2 160.9,274.6 161.6,273.1 162.4,279.2 163.1,272.8 163.9,276.1 164.6,274.1 165.3,273.3 166.1,275.2 166.8,284.5 167.6,283.2 168.3,283.7 169.0,280.5 169.8,279.9 170.5,276.0 171.3,277.0 172.0,275.6 172.7,279.3 173.5,282.6 174.2,283.9 175.0,284.9 175.7,286.8 176.4,281.6 177.2,282.0 177.9,293.3 178.7,289.7 179.4,294.7 180.1,286.3 180.9,293.6 181.6,289.8 182.4,282.8 183.1,280.3 183.8,275.8 184.6,268.9 185.3,263.2 186.1,261.6 186.8,262.1 187.6,256.2 188.3,255.8 189.0,255.2 189.8,252.9 190.5,251.9 191.3,251.6 192.0,249.9 192.7,241.4 193.5,240.0 194.2,247.0 195.0,242.7 195.7,247.2 196.4,246.4 197.2,247.1 197.9,243.4 198.7,242.3 199.4,248.9 200.1,243.7 200.9,247.8 201.6,247.8 202.4,241.7 203.1,239.9 203.8,239.8 204.6,237.4 205.3,239.4 206.1,239.8 206.8,247.7 207.5,260.6 208.3,261.0 209.0,260.8 209.8,263.9 210.5,263.6 211.2,269.7 212.0,267.3 212.7,267.9 213.5,272.5 214.2,275.7 214.9,278.5 215.7,276.9 216.4,278.1 217.2,271.1 217.9,270.5 218.6,271.1 219.4,272.6 220.1,272.2 220.9,275.0 221.6,272.3 222.3,271.0 223.1,271.1 223.8,269.7 224.6,271.3 225.3,276.6 226.0,278.0 226.8,283.3 227.5,283.7 228.3,281.0 229.0,281.9 229.7,281.1 230.5,281.6 231.2,283.0 232.0,280.7 232.7,276.4 233.4,273.2 234.2,282.7 234.9,285.9 235.7,285.1 236.4,283.2 237.1,282.0 237.9,274.3 238.6,275.5 239.4,273.8 240.1,272.6 240.8,271.7 241.6,272.2 242.3,274.1 243.1,274.2 243.8,275.8 244.5,273.6 245.3,277.4 246.0,284.0 246.8,279.8 247.5,276.2 248.2,284.1 249.0,287.5 249.7,287.0 250.5,289.9 251.2,288.3 251.9,289.9 252.7,281.9 253.4,285.2 254.2,280.2 254.9,277.6 255.6,278.7 256.4,279.3 257.1,281.5 257.9,278.1 258.6,279.2 259.4,277.8 260.1,273.0 260.8,276.9 261.6,279.8 262.3,277.4 263.1,274.7 263.8,275.6 264.5,276.9 265.3,277.9 266.0,286.7 266.8,289.7 267.5,289.0 268.2,286.3 269.0,285.6 269.7,285.2 270.5,285.1 271.2,283.9 271.9,284.3 272.7,282.8 273.4,283.1 274.2,283.9 274.9,283.9 275.6,285.5 276.4,283.7 277.1,286.7 277.9,292.7 278.6,291.3 279.3,285.6 280.1,290.9 280.8,289.5 281.6,290.8 282.3,291.0 283.0,287.5 283.8,285.1 284.5,284.5 285.3,283.2 286.0,288.7 286.7,283.2 287.5,288.2 288.2,285.5 289.0,286.5 289.7,285.7 290.4,286.8 291.2,290.1 291.9,285.1 292.7,285.5 293.4,289.7 294.1,286.8 294.9,285.2 295.6,289.0 296.4,289.0 297.1,288.4 297.8,282.3 298.6,285.5 299.3,288.2 300.1,291.2 300.8,297.9 301.5,300.7 302.3,301.1 303.0,295.1 303.8,292.4 304.5,290.2 305.2,293.0 306.0,291.5 306.7,287.9 307.5,288.6 308.2,285.5 308.9,285.7 309.7,280.9 310.4,281.6 311.2,274.3 311.9,275.0 312.6,275.3 313.4,277.9 314.1,278.1 314.9,276.7 315.6,278.7 316.3,279.3 317.1,284.8 317.8,278.8 318.6,279.2 319.3,280.7 320.0,281.5 320.8,278.0 321.5,283.2 322.3,279.3 323.0,280.9 323.7,280.2 324.5,280.1 325.2,282.6 326.0,282.4 326.7,287.1 327.4,289.7 328.2,287.2 328.9,285.9 329.7,289.4 330.4,291.3 331.2,291.9 331.9,290.9 332.6,288.4 333.4,294.3 334.1,296.5 334.9,294.3 335.6,295.8 336.3,296.7 337.1,291.3 337.8,293.0 338.6,290.2 339.3,289.7 340.0,285.2 340.8,285.3 341.5,289.7 342.3,285.3 343.0,290.1 343.7,291.7 344.5,290.5 345.2,289.9 346.0,290.2 346.7,293.6 347.4,291.5 348.2,300.0 348.9,298.7 349.7,296.9 350.4,295.0 351.1,295.2 351.9,294.8 352.6,295.7 353.4,297.8 354.1,300.4 354.8,297.2 355.6,296.1 356.3,292.6 357.1,287.5 357.8,284.3 358.5,284.9 359.3,281.0 360.0,281.2 360.8,278.5 361.5,278.3 362.2,280.7 363.0,278.4 363.7,279.6 364.5,280.7 365.2,279.0 365.9,281.1 366.7,274.7 367.4,277.1 368.2,279.2 368.9,275.6 369.6,275.2 370.4,269.3 371.1,268.0 371.9,264.6 372.6,266.8 373.3,260.0 374.1,260.2 374.8,255.3 375.6,253.8 376.3,254.2 377.0,252.3 377.8,249.1 378.5,251.3 379.3,255.8 380.0,256.6 380.7,252.1 381.5,254.1 382.2,254.9 383.0,260.7 383.7,253.1 384.4,252.0 385.2,248.0 385.9,246.3 386.7,243.9 387.4,249.0 388.1,247.5 388.9,246.0 389.6,246.8 390.4,247.4 391.1,245.8 391.8,250.2 392.6,243.9 393.3,245.4 394.1,246.2 394.8,243.9 395.5,242.1 396.3,242.5 397.0,236.2 397.8,233.9 398.5,231.6 399.2,236.1 400.0,238.3 400.7,232.5 401.5,233.6 402.2,240.4 403.0,246.4 403.7,244.7 404.4,245.5 405.2,252.0 405.9,251.6 406.7,249.6 407.4,260.0 408.1,256.5 408.9,257.8 409.6,258.8 410.4,261.5 411.1,260.3 411.8,260.6 412.6,257.2 413.3,257.1 414.1,261.0 414.8,259.4 415.5,259.5 416.3,256.5 417.0,257.1 417.8,255.8 418.5,256.7 419.2,252.2 420.0,246.1 420.7,254.8 421.5,254.1 422.2,255.8 422.9,253.9 423.7,249.7 424.4,245.3 425.2,249.1 425.9,245.3 426.6,247.9 427.4,250.2 428.1,249.9 428.9,251.9 429.6,255.2 430.3,256.2 431.1,258.2 431.8,258.2 432.6,256.5 433.3,259.8 434.0,256.0 434.8,259.0 435.5,261.2 436.3,264.0 437.0,265.9 437.7,268.8 438.5,262.3 439.2,260.9 440.0,252.8 440.7,254.9 441.4,252.3 442.2,252.2 442.9,249.3 443.7,247.7 444.4,246.6 445.1,245.5 445.9,246.8 446.6,245.2 447.4,244.3 448.1,244.4 448.8,250.8 449.6,247.2 450.3,246.4 451.1,251.6 451.8,252.5 452.5,251.8 453.3,257.4 454.0,253.1 454.8,251.2 455.5,251.5 456.2,244.4 457.0,240.2 457.7,239.1 458.5,240.8 459.2,244.0 459.9,241.5 460.7,241.2 461.4,242.4 462.2,236.2 462.9,237.0 463.6,235.7 464.4,245.3 465.1,248.3 465.9,246.9 466.6,248.3 467.3,248.0 468.1,249.2 468.8,249.7 469.6,251.8 470.3,252.6 471.0,247.4 471.8,245.8 472.5,245.0 473.3,245.0 474.0,243.9 474.8,241.8 475.5,230.9 476.2,228.5 477.0,222.5 477.7,226.1 478.5,227.1 479.2,227.5 479.9,232.2 480.7,231.4 481.4,235.1 482.2,238.1 482.9,239.4 483.6,238.2 484.4,236.5 485.1,238.1 485.9,235.3 486.6,239.9 487.3,246.8 488.1,249.6 488.8,248.4 489.6,245.7 490.3,248.3 491.0,245.6 491.8,243.3 492.5,243.7 493.3,242.0 494.0,243.4 494.7,245.0 495.5,244.0 496.2,244.0 497.0,242.4 497.7,244.7 498.4,241.5 499.2,242.3 499.9,242.8 500.7,247.3 501.4,244.2 502.1,243.6 502.9,239.5 503.6,245.2 504.4,249.0 505.1,248.0 505.8,248.6 506.6,256.8 507.3,257.1 508.1,259.0 508.8,258.8 509.5,259.1 510.3,259.1 511.0,259.1 511.8,262.2 512.5,261.0 513.2,258.2 514.0,259.4 514.7,259.1 515.5,258.5 516.2,257.1 516.9,256.2 517.7,258.4 518.4,254.6 519.2,255.2 519.9,253.0 520.6,252.9 521.4,249.0 522.1,249.9 522.9,251.0 523.6,250.8 524.3,254.3 525.1,252.2 525.8,254.0 526.6,247.0 527.3,249.9 528.0,249.0 528.8,245.9 529.5,241.4 530.3,241.6 531.0,245.8 531.7,241.0 532.5,241.4 533.2,236.5 534.0,235.2 534.7,238.1 535.4,236.5 536.2,236.5 536.9,244.7 537.7,241.6 538.4,235.0 539.1,237.1 539.9,236.7 540.6,243.1 541.4,244.8 542.1,242.1 542.8,239.6 543.6,232.6 544.3,234.0 545.1,233.7 545.8,235.4 546.6,228.2 547.3,227.8 548.0,222.7 548.8,220.8 549.5,220.7 550.3,218.4 551.0,217.9 551.7,217.9 552.5,219.0 553.2,217.4 554.0,216.1 554.7,218.1 555.4,213.6 556.2,216.6 556.9,218.8 557.7,217.6 558.4,216.1 559.1,213.0 559.9,225.2 560.6,226.3 561.4,226.2 562.1,212.3 562.8,205.9 563.6,199.0 564.3,197.7 565.1,197.0 565.8,194.0 566.5,194.5 567.3,192.4 568.0,193.9 568.8,201.1 569.5,200.2 570.2,204.6 571.0,206.2 571.7,208.9 572.5,204.4 573.2,205.6 573.9,203.1 574.7,197.5 575.4,194.1 576.2,195.3 576.9,198.8 577.6,193.9 578.4,210.4 579.1,211.5 579.9,214.3 580.6,211.8 581.3,212.1 582.1,208.2 582.8,204.2 583.6,200.0 584.3,201.6 585.0,196.3 585.8,198.0 586.5,196.0 587.3,196.6 588.0,195.2 588.7,186.4 589.5,180.1 590.2,176.1 591.0,174.0 591.7,179.8 592.4,177.5 593.2,180.5 593.9,178.7 594.7,175.7 595.4,171.2 596.1,175.5 596.9,175.4 597.6,175.2 598.4,174.2 599.1,172.4 599.8,177.2 600.6,181.1 601.3,180.5 602.1,186.1 602.8,181.5 603.5,181.9 604.3,180.2 605.0,178.0 605.8,175.2 606.5,186.4 607.2,182.8 608.0,184.6 608.7,182.2 609.5,181.9 610.2,182.4 610.9,183.9 611.7,186.2 612.4,185.7 613.2,181.0 613.9,177.7 614.6,180.4 615.4,182.1 616.1,181.8 616.9,184.0 617.6,182.7 618.4,186.6 619.1,188.1 619.8,186.4 620.6,180.2 621.3,176.0 622.1,173.7 622.8,161.1 623.5,162.2 624.3,159.4 625.0,160.4 625.8,165.3 626.5,166.6 627.2,164.5 628.0,166.2 628.7,173.0 629.5,170.1 630.2,165.1 630.9,163.0 631.7,163.9 632.4,162.0 633.2,163.0 633.9,160.4 634.6,156.3 635.4,154.2 636.1,156.9 636.9,158.9 637.6,150.3 638.3,147.5 639.1,148.7 639.8,150.7 640.6,146.9 641.3,148.3 642.0,148.2 642.8,151.5 643.5,153.9 644.3,153.3 645.0,150.3 645.7,149.3 646.5,149.5 647.2,154.1 648.0,152.5 648.7,148.4 649.4,145.0 650.2,144.6 650.9,140.2 651.7,143.6 652.4,141.6 653.1,137.8 653.9,140.1 654.6,134.9 655.4,142.8 656.1,140.2 656.8,134.5 657.6,131.7 658.3,127.3 659.1,122.2 659.8,135.1 660.5,129.2 661.3,145.3 662.0,144.3 662.8,147.0 663.5,147.6 664.2,153.8 665.0,151.8 665.7,152.4 666.5,150.5 667.2,153.8 667.9,152.2 668.7,157.2 669.4,153.5 670.2,154.1 670.9,149.1 671.6,141.8 672.4,138.3 673.1,131.1 673.9,135.4 674.6,139.6 675.3,138.7 676.1,135.2 676.8,132.3 677.6,141.9 678.3,142.0 679.0,131.5 679.8,131.3 680.5,126.2 681.3,121.0 682.0,120.4 682.7,125.6 683.5,126.3 684.2,124.7 685.0,124.9 685.7,127.0 686.4,121.2 687.2,117.8 687.9,114.8 688.7,114.9 689.4,118.4 690.2,119.4 690.9,120.1 691.6,123.3 692.4,116.1 693.1,114.3 693.9,114.2 694.6,113.8 695.3,110.8 696.1,122.8 696.8,121.3 697.6,122.4 698.3,124.8 699.0,121.8 699.8,112.9 700.5,114.1 701.3,114.1 702.0,112.8 702.7,107.7 703.5,105.5 704.2,106.0 705.0,106.3 705.7,103.6 706.4,98.0 707.2,101.9 707.9,94.9 708.7,96.8 709.4,96.1 710.1,97.0 710.9,92.3 711.6,101.7 712.4,119.8 713.1,118.0 713.8,113.1 714.6,115.7 715.3,124.8 716.1,117.1 716.8,109.8 717.5,106.5 718.3,102.0 719.0,115.3 719.8,107.4 720.5,110.4 721.2,108.6 722.0,104.9 722.7,100.2 723.5,95.5 724.2,93.5 724.9,90.4 725.7,88.1 726.4,84.0 727.2,85.0 727.9,95.9 728.6,93.1 729.4,97.9 730.1,95.6 730.9,94.5 731.6,93.7 732.3,97.8 733.1,101.2 733.8,108.9 734.6,105.5 735.3,107.3 736.0,118.0 736.8,130.0 737.5,137.1 738.3,130.9 739.0,129.2 739.7,126.4 740.5,131.0 741.2,124.7 742.0,124.2 742.7,114.7 743.4,108.8 744.2,109.3 744.9,111.7 745.7,111.5 746.4,108.9 747.1,111.3 747.9,110.1 748.6,110.1 749.4,109.3 750.1,110.0 750.8,111.4 751.6,106.6 752.3,107.6 753.1,117.4 753.8,116.4 754.5,118.6 755.3,119.6 756.0,120.4 756.8,127.6 757.5,131.7 758.2,129.4 759.0,131.5 759.7,132.6 760.5,133.8 761.2,125.2 762.0,126.8 762.7,121.6 763.4,110.7 764.2,111.6 764.9,110.4 765.7,117.3 766.4,129.0 767.1,130.6 767.9,135.5 768.6,130.5 769.4,129.5 770.1,136.0 770.8,131.1 771.6,136.8 772.3,136.7 773.1,130.7 773.8,137.9 774.5,134.9 775.3,141.0 776.0,137.9 776.8,150.6 777.5,149.4 778.2,153.3 779.0,159.6 779.7,152.3 780.5,145.2 781.2,136.0 781.9,132.8 782.7,137.0 783.4,139.9 784.2,141.0 784.9,147.4 785.6,151.9 786.4,151.2 787.1,140.8 787.9,139.6 788.6,140.4 789.3,139.2 790.1,131.8 790.8,139.8 791.6,145.1 792.3,154.2 793.0,149.1 793.8,151.7 794.5,154.9 795.3,153.1 796.0,156.1"/><polyline fill="none" stroke="#16a34a" stroke-width="3" points="78.0,308.8 78.7,297.6 79.5,299.8 80.2,291.3 81.0,295.8 81.7,292.5 82.4,290.3 83.2,293.2 83.9,290.8 84.7,287.9 85.4,289.6 86.1,294.8 86.9,292.8 87.6,292.6 88.4,296.4 89.1,295.5 89.8,291.9 90.6,298.6 91.3,301.8 92.1,303.3 92.8,299.2 93.5,296.0 94.3,290.6 95.0,286.1 95.8,287.1 96.5,289.2 97.2,289.5 98.0,299.5 98.7,301.3 99.5,303.6 100.2,304.4 100.9,302.9 101.7,304.7 102.4,304.5 103.2,306.0 103.9,308.5 104.6,306.1 105.4,305.3 106.1,310.3 106.9,311.1 107.6,312.2 108.3,312.0 109.1,310.6 109.8,307.2 110.6,310.9 111.3,307.5 112.0,312.0 112.8,304.4 113.5,310.9 114.3,311.7 115.0,316.8 115.8,310.9 116.5,311.4 117.2,315.8 118.0,310.3 118.7,314.2 119.5,310.0 120.2,312.0 120.9,313.1 121.7,304.5 122.4,306.5 123.2,305.7 123.9,305.3 124.6,299.4 125.4,289.4 126.1,276.4 126.9,277.9 127.6,287.1 128.3,287.5 129.1,282.4 129.8,286.0 130.6,285.6 131.3,288.0 132.0,285.2 132.8,286.4 133.5,287.5 134.3,277.4 135.0,275.0 135.7,276.6 136.5,272.5 137.2,272.1 138.0,270.5 138.7,265.1 139.4,265.1 140.2,269.1 140.9,275.1 141.7,273.5 142.4,270.8 143.1,270.0 143.9,274.6 144.6,273.2 145.4,269.9 146.1,270.7 146.8,270.5 147.6,276.3 148.3,278.8 149.1,278.2 149.8,274.2 150.5,274.6 151.3,279.0 152.0,279.8 152.8,280.5 153.5,280.9 154.2,281.3 155.0,276.6 155.7,278.5 156.5,275.7 157.2,276.8 157.9,278.8 158.7,273.2 159.4,271.6 160.2,271.7 160.9,273.1 161.6,271.6 162.4,277.7 163.1,271.3 163.9,274.6 164.6,272.6 165.3,271.8 166.1,273.7 166.8,283.0 167.6,281.7 168.3,282.2 169.0,279.0 169.8,278.5 170.5,274.5 171.3,274.9 172.0,273.5 172.7,277.2 173.5,280.4 174.2,281.7 175.0,282.8 175.7,284.7 176.4,279.5 177.2,279.9 177.9,291.1 178.7,287.5 179.4,292.5 180.1,284.1 180.9,291.4 181.6,287.7 182.4,280.7 183.1,278.2 183.8,273.7 184.6,266.8 185.3,261.0 186.1,259.5 186.8,260.0 187.6,254.1 188.3,253.6 189.0,253.1 189.8,250.7 190.5,249.7 191.3,249.5 192.0,247.8 192.7,239.2 193.5,237.9 194.2,244.8 195.0,240.6 195.7,245.1 196.4,244.3 197.2,244.9 197.9,241.2 198.7,240.2 199.4,246.8 200.1,241.5 200.9,245.7 201.6,245.7 202.4,239.6 203.1,237.8 203.8,237.7 204.6,235.2 205.3,237.3 206.1,237.7 206.8,245.6 207.5,258.4 208.3,258.9 209.0,258.7 209.8,261.7 210.5,261.5 211.2,267.6 212.0,265.2 212.7,265.8 213.5,270.3 214.2,273.6 214.9,276.4 215.7,274.7 216.4,275.4 217.2,268.3 217.9,267.7 218.6,268.3 219.4,269.8 220.1,269.4 220.9,272.2 221.6,269.6 222.3,268.2 223.1,268.3 223.8,267.0 224.6,268.6 225.3,273.8 226.0,275.2 226.8,280.6 227.5,281.0 228.3,278.2 229.0,279.1 229.7,278.3 230.5,278.9 231.2,280.2 232.0,278.0 232.7,273.6 233.4,270.4 234.2,279.9 234.9,283.1 235.7,282.3 236.4,280.4 237.1,279.3 237.9,271.6 238.6,272.7 239.4,271.1 240.1,269.8 240.8,268.9 241.6,269.4 242.3,271.3 243.1,271.4 243.8,273.1 244.5,270.8 245.3,274.6 246.0,281.2 246.8,277.0 247.5,273.5 248.2,281.4 249.0,284.7 249.7,284.2 250.5,287.2 251.2,285.5 251.9,287.2 252.7,279.1 253.4,282.4 254.2,277.4 254.9,274.9 255.6,275.9 256.4,276.5 257.1,278.7 257.9,275.4 258.6,276.4 259.4,275.0 260.1,270.2 260.8,274.1 261.6,277.0 262.3,274.6 263.1,271.9 263.8,272.2 264.5,273.4 265.3,274.4 266.0,283.2 266.8,286.2 267.5,285.5 268.2,282.8 269.0,282.2 269.7,281.8 270.5,281.6 271.2,280.4 271.9,280.8 272.7,279.4 273.4,279.6 274.2,280.4 274.9,280.4 275.6,282.0 276.4,280.3 277.1,283.2 277.9,289.3 278.6,287.9 279.3,282.2 280.1,287.5 280.8,286.1 281.6,287.3 282.3,287.6 283.0,284.1 283.8,281.6 284.5,281.1 285.3,279.8 286.0,285.3 286.7,279.8 287.5,284.7 288.2,282.0 289.0,283.1 289.7,282.3 290.4,283.4 291.2,286.6 291.9,281.6 292.7,282.0 293.4,286.2 294.1,283.4 294.9,281.8 295.6,285.5 296.4,285.5 297.1,285.0 297.8,278.9 298.6,282.0 299.3,284.7 300.1,287.7 300.8,294.5 301.5,297.3 302.3,297.7 303.0,291.7 303.8,289.0 304.5,286.8 305.2,289.6 306.0,288.0 306.7,284.5 307.5,285.1 308.2,282.0 308.9,282.3 309.7,277.4 310.4,277.5 311.2,270.2 311.9,270.8 312.6,271.2 313.4,273.8 314.1,274.0 314.9,272.6 315.6,274.5 316.3,275.2 317.1,280.7 317.8,274.7 318.6,275.0 319.3,276.6 320.0,277.4 320.8,273.9 321.5,279.1 322.3,275.2 323.0,276.7 323.7,276.1 324.5,275.9 325.2,278.4 326.0,278.3 326.7,283.0 327.4,285.5 328.2,283.1 328.9,281.7 329.7,285.3 330.4,287.2 331.2,287.7 331.9,286.8 332.6,284.3 333.4,290.1 334.1,292.4 334.9,290.1 335.6,291.7 336.3,292.5 337.1,287.2 337.8,288.9 338.6,286.1 339.3,285.5 340.0,281.1 340.8,281.2 341.5,285.5 342.3,281.2 343.0,286.0 343.7,287.6 344.5,286.4 345.2,285.8 346.0,286.1 346.7,289.4 347.4,287.3 348.2,295.8 348.9,294.5 349.7,292.8 350.4,290.8 351.1,291.1 351.9,290.7 352.6,291.5 353.4,293.7 354.1,296.3 354.8,293.1 355.6,292.0 356.3,288.4 357.1,282.6 357.8,279.4 358.5,280.1 359.3,276.1 360.0,276.4 360.8,273.7 361.5,273.4 362.2,275.9 363.0,273.5 363.7,274.7 364.5,275.9 365.2,274.2 365.9,276.3 366.7,269.9 367.4,272.3 368.2,274.3 368.9,270.7 369.6,270.4 370.4,264.4 371.1,263.2 371.9,259.7 372.6,262.0 373.3,255.2 374.1,255.4 374.8,250.5 375.6,248.9 376.3,249.4 377.0,247.5 377.8,244.3 378.5,246.5 379.3,250.9 380.0,251.7 380.7,247.2 381.5,249.2 382.2,250.0 383.0,255.8 383.7,248.2 384.4,247.1 385.2,243.2 385.9,241.5 386.7,239.0 387.4,244.2 388.1,242.7 388.9,241.2 389.6,241.9 390.4,242.6 391.1,240.9 391.8,245.4 392.6,239.0 393.3,240.5 394.1,241.4 394.8,239.0 395.5,237.3 396.3,237.7 397.0,231.4 397.8,229.1 398.5,226.7 399.2,231.3 400.0,233.4 400.7,227.6 401.5,228.8 402.2,235.6 403.0,241.6 403.7,239.3 404.4,240.1 405.2,246.6 405.9,246.2 406.7,244.2 407.4,254.6 408.1,251.0 408.9,252.4 409.6,253.4 410.4,256.1 411.1,254.9 411.8,255.2 412.6,251.8 413.3,251.7 414.1,255.6 414.8,254.0 415.5,254.1 416.3,251.0 417.0,251.7 417.8,250.4 418.5,251.3 419.2,246.8 420.0,240.7 420.7,249.4 421.5,248.7 422.2,250.4 422.9,248.5 423.7,244.3 424.4,239.9 425.2,243.7 425.9,239.9 426.6,242.5 427.4,244.8 428.1,244.5 428.9,246.5 429.6,249.8 430.3,250.8 431.1,252.8 431.8,252.8 432.6,251.0 433.3,254.4 434.0,250.6 434.8,253.6 435.5,255.8 436.3,258.6 437.0,260.5 437.7,263.4 438.5,256.9 439.2,255.5 440.0,247.3 440.7,249.5 441.4,246.9 442.2,246.8 442.9,243.9 443.7,242.3 444.4,241.2 445.1,240.1 445.9,241.3 446.6,239.7 447.4,238.9 448.1,239.0 448.8,245.4 449.6,241.8 450.3,240.4 451.1,245.6 451.8,246.5 452.5,245.8 453.3,251.4 454.0,247.1 454.8,245.2 455.5,245.5 456.2,238.4 457.0,234.2 457.7,233.1 458.5,234.9 459.2,238.0 459.9,235.5 460.7,235.2 461.4,236.4 462.2,230.3 462.9,231.0 463.6,229.7 464.4,239.3 465.1,242.3 465.9,240.9 466.6,242.3 467.3,242.0 468.1,243.2 468.8,243.7 469.6,245.8 470.3,246.6 471.0,241.4 471.8,239.8 472.5,239.1 473.3,239.1 474.0,237.9 474.8,235.8 475.5,224.9 476.2,222.5 477.0,216.5 477.7,220.1 478.5,221.1 479.2,221.5 479.9,226.2 480.7,225.4 481.4,229.1 482.2,232.1 482.9,233.4 483.6,232.2 484.4,230.6 485.1,232.1 485.9,229.3 486.6,233.9 487.3,240.8 488.1,243.6 488.8,242.4 489.6,239.7 490.3,242.3 491.0,239.6 491.8,237.3 492.5,237.7 493.3,236.0 494.0,237.4 494.7,239.1 495.5,238.0 496.2,238.0 497.0,235.8 497.7,238.2 498.4,234.9 499.2,235.7 499.9,236.3 500.7,240.7 501.4,237.6 502.1,237.0 502.9,232.9 503.6,238.6 504.4,242.4 505.1,241.5 505.8,242.0 506.6,250.2 507.3,250.6 508.1,252.4 508.8,252.3 509.5,252.5 510.3,252.5 511.0,252.5 511.8,255.6 512.5,254.5 513.2,251.6 514.0,252.9 514.7,252.5 515.5,251.9 516.2,250.6 516.9,249.7 517.7,251.8 518.4,248.1 519.2,248.6 519.9,246.4 520.6,246.3 521.4,242.4 522.1,243.3 522.9,244.4 523.6,244.2 524.3,247.7 525.1,245.6 525.8,247.4 526.6,240.4 527.3,243.3 528.0,242.4 528.8,239.3 529.5,234.8 530.3,235.0 531.0,239.2 531.7,234.4 532.5,234.8 533.2,230.0 534.0,228.7 534.7,231.5 535.4,230.0 536.2,230.0 536.9,238.2 537.7,235.0 538.4,228.5 539.1,230.5 539.9,230.1 540.6,236.6 541.4,238.3 542.1,235.0 542.8,232.5 543.6,225.4 544.3,226.9 545.1,226.6 545.8,228.3 546.6,221.0 547.3,220.6 548.0,215.6 548.8,213.7 549.5,213.6 550.3,211.3 551.0,210.7 551.7,210.7 552.5,211.8 553.2,210.3 554.0,209.0 554.7,211.0 555.4,206.5 556.2,209.5 556.9,211.6 557.7,210.4 558.4,209.0 559.1,205.9 559.9,218.1 560.6,219.2 561.4,219.1 562.1,205.2 562.8,198.8 563.6,191.9 564.3,190.6 565.1,189.8 565.8,186.9 566.5,187.4 567.3,185.3 568.0,186.7 568.8,193.9 569.5,193.0 570.2,197.4 571.0,199.0 571.7,201.8 572.5,197.3 573.2,198.4 573.9,196.0 574.7,190.4 575.4,187.0 576.2,188.2 576.9,191.6 577.6,186.8 578.4,203.2 579.1,204.4 579.9,207.1 580.6,204.6 581.3,205.0 582.1,201.1 582.8,197.1 583.6,192.8 584.3,194.4 585.0,189.1 585.8,190.9 586.5,188.9 587.3,189.4 588.0,187.6 588.7,178.8 589.5,172.5 590.2,168.5 591.0,166.4 591.7,172.2 592.4,170.0 593.2,172.9 593.9,171.1 594.7,168.2 595.4,163.6 596.1,167.9 596.9,167.8 597.6,167.7 598.4,166.7 599.1,164.8 599.8,169.7 600.6,173.5 601.3,172.9 602.1,178.5 602.8,174.0 603.5,174.3 604.3,172.6 605.0,170.5 605.8,167.6 606.5,178.8 607.2,175.2 608.0,177.0 608.7,174.6 609.5,174.3 610.2,174.8 610.9,176.3 611.7,178.6 612.4,178.1 613.2,173.5 613.9,170.1 614.6,172.9 615.4,174.6 616.1,174.3 616.9,176.4 617.6,175.2 618.4,179.0 619.1,180.5 619.8,178.8 620.6,172.6 621.3,168.4 622.1,166.2 622.8,153.6 623.5,154.6 624.3,151.8 625.0,152.8 625.8,157.7 626.5,159.0 627.2,156.9 628.0,158.6 628.7,165.5 629.5,162.5 630.2,157.5 630.9,155.4 631.7,156.3 632.4,154.4 633.2,155.4 633.9,152.8 634.6,148.7 635.4,146.6 636.1,149.3 636.9,151.3 637.6,142.7 638.3,139.9 639.1,141.1 639.8,143.2 640.6,139.4 641.3,140.7 642.0,140.6 642.8,143.9 643.5,146.4 644.3,145.7 645.0,142.7 645.7,141.7 646.5,141.9 647.2,146.5 648.0,144.9 648.7,140.8 649.4,137.4 650.2,137.0 650.9,132.6 651.7,136.1 652.4,134.0 653.1,130.2 653.9,132.5 654.6,127.4 655.4,135.2 656.1,132.6 656.8,126.9 657.6,124.1 658.3,119.7 659.1,114.6 659.8,127.5 660.5,121.6 661.3,137.7 662.0,136.7 662.8,139.4 663.5,140.0 664.2,146.2 665.0,144.2 665.7,144.8 666.5,142.9 667.2,146.2 667.9,144.7 668.7,149.6 669.4,145.9 670.2,146.5 670.9,141.5 671.6,134.2 672.4,130.7 673.1,123.6 673.9,127.8 674.6,132.1 675.3,131.1 676.1,127.6 676.8,124.7 677.6,134.3 678.3,134.4 679.0,123.9 679.8,123.7 680.5,118.6 681.3,113.4 682.0,112.8 682.7,118.1 683.5,118.8 684.2,117.1 685.0,117.3 685.7,119.4 686.4,113.6 687.2,110.2 687.9,107.2 688.7,107.3 689.4,110.8 690.2,111.8 690.9,112.6 691.6,115.7 692.4,108.5 693.1,106.7 693.9,106.6 694.6,106.2 695.3,103.2 696.1,115.2 696.8,113.8 697.6,114.8 698.3,117.2 699.0,114.2 699.8,105.3 700.5,106.5 701.3,106.5 702.0,105.2 702.7,100.1 703.5,97.9 704.2,98.4 705.0,98.7 705.7,96.0 706.4,90.4 707.2,94.4 707.9,87.3 708.7,89.2 709.4,88.5 710.1,89.5 710.9,84.7 711.6,94.1 712.4,112.2 713.1,110.4 713.8,105.5 714.6,108.1 715.3,117.3 716.1,109.5 716.8,102.3 717.5,99.0 718.3,94.4 719.0,107.7 719.8,99.8 720.5,102.9 721.2,101.0 722.0,97.3 722.7,92.6 723.5,87.9 724.2,85.9 724.9,82.8 725.7,80.5 726.4,76.5 727.2,77.2 727.9,88.1 728.6,85.3 729.4,90.1 730.1,87.8 730.9,86.6 731.6,85.9 732.3,89.9 733.1,93.4 733.8,101.0 734.6,97.7 735.3,99.4 736.0,110.1 736.8,122.2 737.5,129.2 738.3,123.0 739.0,121.4 739.7,118.6 740.5,123.2 741.2,116.9 742.0,116.4 742.7,106.9 743.4,101.0 744.2,101.4 744.9,103.9 745.7,103.6 746.4,101.1 747.1,103.4 747.9,102.3 748.6,102.3 749.4,101.4 750.1,102.2 750.8,103.5 751.6,98.8 752.3,99.8 753.1,109.5 753.8,108.6 754.5,110.8 755.3,111.7 756.0,112.6 756.8,119.7 757.5,123.9 758.2,121.6 759.0,123.7 759.7,124.8 760.5,126.0 761.2,117.4 762.0,118.9 762.7,113.7 763.4,102.9 764.2,103.8 764.9,102.6 765.7,109.4 766.4,121.2 767.1,122.8 767.9,127.6 768.6,122.6 769.4,121.7 770.1,128.1 770.8,123.3 771.6,128.9 772.3,128.8 773.1,122.9 773.8,129.8 774.5,126.7 775.3,132.8 776.0,129.8 776.8,142.5 777.5,141.2 778.2,145.1 779.0,151.5 779.7,144.1 780.5,137.0 781.2,127.8 781.9,124.6 782.7,128.8 783.4,131.8 784.2,132.9 784.9,139.2 785.6,143.7 786.4,143.1 787.1,132.7 787.9,131.4 788.6,132.2 789.3,131.0 790.1,123.6 790.8,131.6 791.6,136.9 792.3,146.0 793.0,141.0 793.8,143.5 794.5,146.7 795.3,144.9 796.0,147.9"/>
<text x="78" y="392" font-size="11" fill="#16a34a">Total return +151.8%</text><text x="268" y="392" font-size="11" fill="#2563eb">Price-only +140.4%</text><text x="78" y="362" font-size="11" text-anchor="middle" fill="#64748b">2022-08</text><text x="257" y="362" font-size="11" text-anchor="middle" fill="#64748b">2023-08</text><text x="437" y="362" font-size="11" text-anchor="middle" fill="#64748b">2024-08</text><text x="617" y="362" font-size="11" text-anchor="middle" fill="#64748b">2025-07</text><text x="796" y="362" font-size="11" text-anchor="middle" fill="#64748b">2026-07</text></svg>