<svg xmlns="http://www.w3.org/2000/svg" width="820" height="410" viewBox="0 0 820 410">
<rect width="820" height="410" fill="#fafafa"/><text x="78" y="22" font-size="14" font-family="sans-serif" fill="#0f172a">BABA cumulative return since 2014-09-19 | dividends reinvested</text>
<text x="78" y="40" font-size="11" font-family="sans-serif" fill="#334155">Total return +30.9% | Price-only +23.1% | logarithmic scale</text>
<text x="78" y="54" font-size="9" font-family="sans-serif" fill="#64748b">Regular $5.86 | Special $0.00 | Other $0.00 per initial share path</text>
<line x1="78" y1="332.0" x2="796" y2="332.0" stroke="#e2e8f0"/><text x="70" y="336.0" font-size="10" text-anchor="end" fill="#64748b">-44.8%</text><line x1="78" y1="287.0" x2="796" y2="287.0" stroke="#e2e8f0"/><text x="70" y="291.0" font-size="10" text-anchor="end" fill="#64748b">-24.1%</text><line x1="78" y1="248.1" x2="796" y2="248.1" stroke="#e2e8f0"/><text x="70" y="252.1" font-size="10" text-anchor="end" fill="#64748b">0%</text><line x1="78" y1="242.0" x2="796" y2="242.0" stroke="#e2e8f0"/><text x="70" y="246.0" font-size="10" text-anchor="end" fill="#64748b">+4.4%</text><line x1="78" y1="197.0" x2="796" y2="197.0" stroke="#e2e8f0"/><text x="70" y="201.0" font-size="10" text-anchor="end" fill="#64748b">+43.7%</text><line x1="78" y1="152.0" x2="796" y2="152.0" stroke="#e2e8f0"/><text x="70" y="156.0" font-size="10" text-anchor="end" fill="#64748b">+97.7%</text><line x1="78" y1="107.0" x2="796" y2="107.0" stroke="#e2e8f0"/><text x="70" y="111.0" font-size="10" text-anchor="end" fill="#64748b">+172.0%</text><line x1="78" y1="62.0" x2="796" y2="62.0" stroke="#e2e8f0"/><text x="70" y="66.0" font-size="10" text-anchor="end" fill="#64748b">+274.3%</text>
<line x1="78" y1="332" x2="796" y2="332" stroke="#cbd5e1"/>
<polyline fill="none" stroke="#2563eb" stroke-width="2" points="78.0,248.1 78.2,254.3 78.5,258.6 78.7,253.2 79.0,255.8 79.2,253.4 79.4,256.1 79.7,255.9 79.9,260.3 80.2,258.8 80.4,257.1 80.7,256.8 80.9,257.8 81.1,256.8 81.4,256.0 81.6,260.7 81.9,261.9 82.1,262.2 82.3,261.2 82.6,255.9 82.8,257.4 83.1,256.8 83.3,252.7 83.6,251.6 83.8,247.3 84.0,245.3 84.3,242.4 84.5,239.7 84.8,241.6 85.0,241.0 85.2,241.2 85.5,236.7 85.7,230.9 86.0,227.5 86.2,223.8 86.5,220.1 86.7,214.5 86.9,220.1 87.2,215.6 87.4,219.7 87.7,219.4 87.9,220.4 88.1,224.8 88.4,227.3 88.6,226.0 88.9,224.9 89.1,220.8 89.4,221.4 89.6,222.4 89.8,223.7 90.1,231.0 90.3,225.9 90.6,225.0 90.8,226.9 91.0,228.5 91.3,232.3 91.5,229.1 91.8,233.9 92.0,232.4 92.3,232.2 92.5,232.7 92.7,231.3 93.0,227.0 93.2,226.8 93.5,225.0 93.7,227.4 93.9,231.6 94.2,231.1 94.4,231.1 94.7,231.0 94.9,231.3 95.2,233.8 95.4,234.2 95.6,237.8 95.9,234.6 96.1,236.3 96.4,232.3 96.6,235.0 96.8,237.0 97.1,238.1 97.3,239.8 97.6,244.5 97.8,243.7 98.1,239.2 98.3,234.7 98.5,233.7 98.8,234.9 99.0,233.7 99.3,235.1 99.5,241.4 99.7,254.4 100.0,255.5 100.2,253.9 100.5,253.1 100.7,254.1 101.0,258.9 101.2,261.0 101.4,260.5 101.7,258.4 101.9,260.5 102.2,258.7 102.4,255.6 102.6,259.1 102.9,259.3 103.1,259.0 103.4,259.5 103.6,261.4 103.8,262.7 104.1,260.2 104.3,261.5 104.6,261.9 104.8,263.8 105.1,267.9 105.3,261.3 105.5,260.3 105.8,263.1 106.0,266.3 106.3,265.6 106.5,267.2 106.7,267.4 107.0,267.5 107.2,263.8 107.5,263.0 107.7,262.8 108.0,260.9 108.2,261.8 108.4,263.4 108.7,264.4 108.9,264.2 109.2,263.5 109.4,262.8 109.6,264.0 109.9,265.1 110.1,266.6 110.4,266.7 110.6,267.5 110.9,266.9 111.1,261.5 111.3,260.3 111.6,262.8 111.8,263.3 112.1,262.1 112.3,262.7 112.5,263.7 112.8,267.4 113.0,266.9 113.3,266.5 113.5,267.1 113.8,266.7 114.0,262.9 114.2,262.3 114.5,262.0 114.7,266.4 115.0,268.4 115.2,268.6 115.4,269.7 115.7,271.5 115.9,270.7 116.2,260.5 116.4,258.8 116.7,259.3 116.9,259.2 117.1,258.0 117.4,256.6 117.6,256.5 117.9,258.7 118.1,256.9 118.3,253.0 118.6,248.1 118.8,249.1 119.1,250.2 119.3,250.1 119.6,252.6 119.8,255.2 120.0,252.9 120.3,253.3 120.5,252.9 120.8,253.2 121.0,253.0 121.2,256.8 121.5,257.9 121.7,255.8 122.0,258.5 122.2,259.5 122.5,260.3 122.7,260.3 122.9,259.2 123.2,259.3 123.4,260.9 123.7,261.0 123.9,262.0 124.1,261.9 124.4,261.7 124.6,265.0 124.9,268.8 125.1,266.7 125.4,266.4 125.6,267.1 125.8,270.3 126.1,271.4 126.3,274.4 126.6,272.4 126.8,270.2 127.0,267.5 127.3,268.1 127.5,269.4 127.8,268.0 128.0,264.9 128.3,266.1 128.5,266.3 128.7,263.6 129.0,264.0 129.2,265.5 129.5,268.2 129.7,269.7 129.9,270.2 130.2,270.8 130.4,273.7 130.7,274.3 130.9,272.7 131.1,271.0 131.4,272.5 131.6,272.8 131.9,269.9 132.1,275.5 132.4,282.9 132.6,279.6 132.8,280.2 133.1,279.4 133.3,281.9 133.6,283.4 133.8,288.9 134.0,293.2 134.3,298.3 134.5,292.4 134.8,292.3 135.0,287.8 135.3,289.4 135.5,297.6 135.7,300.3 136.0,298.8 136.2,296.8 136.5,302.4 136.7,309.1 136.9,302.1 137.2,302.5 137.4,300.8 137.7,305.3 137.9,300.3 138.2,295.2 138.4,297.8 138.6,298.4 138.9,302.4 139.1,306.9 139.4,311.3 139.6,311.5 139.8,313.1 140.1,317.5 140.3,316.5 140.6,313.7 140.8,313.9 141.1,303.9 141.3,302.3 141.5,302.3 141.8,297.2 142.0,294.2 142.3,292.1 142.5,288.9 142.7,290.2 143.0,292.5 143.2,286.0 143.5,285.6 143.7,284.3 144.0,286.0 144.2,290.6 144.4,287.5 144.7,278.6 144.9,277.3 145.2,271.7 145.4,266.6 145.6,266.8 145.9,264.1 146.1,263.2 146.4,264.8 146.6,261.5 146.9,261.5 147.1,264.5 147.3,268.3 147.6,268.2 147.8,271.0 148.1,272.9 148.3,278.2 148.5,273.7 148.8,274.0 149.0,274.8 149.3,274.5 149.5,270.8 149.8,268.4 150.0,269.2 150.2,267.7 150.5,268.3 150.7,263.7 151.0,263.8 151.2,262.1 151.4,266.2 151.7,262.4 151.9,262.5 152.2,263.2 152.4,264.8 152.7,263.3 152.9,271.2 153.1,269.7 153.4,266.4 153.6,262.8 153.9,264.6 154.1,266.1 154.3,265.7 154.6,262.4 154.8,262.5 155.1,264.3 155.3,267.0 155.5,265.1 155.8,267.8 156.0,268.5 156.3,276.7 156.5,273.1 156.8,275.5 157.0,284.1 157.2,287.9 157.5,289.7 157.7,284.2 158.0,288.9 158.2,285.1 158.4,290.4 158.7,289.3 158.9,292.1 159.2,288.1 159.4,288.8 159.7,290.1 159.9,290.0 160.1,290.5 160.4,295.9 160.6,295.6 160.9,295.6 161.1,299.8 161.3,303.4 161.6,300.3 161.8,305.2 162.1,308.7 162.3,308.0 162.6,307.1 162.8,309.9 163.0,309.2 163.3,297.2 163.5,297.0 163.8,296.7 164.0,295.1 164.2,291.9 164.5,295.8 164.7,295.2 165.0,296.4 165.2,295.9 165.5,291.9 165.7,287.8 165.9,287.0 166.2,287.5 166.4,285.1 166.7,283.8 166.9,287.4 167.1,284.7 167.4,285.6 167.6,281.7 167.9,282.9 168.1,285.1 168.4,282.6 168.6,281.2 168.8,277.5 169.1,274.1 169.3,273.9 169.6,276.9 169.8,278.2 170.0,277.0 170.3,274.1 170.5,272.7 170.8,272.4 171.0,273.0 171.3,272.3 171.5,275.5 171.7,273.0 172.0,275.0 172.2,275.2 172.5,274.8 172.7,274.5 172.9,271.3 173.2,271.4 173.4,272.5 173.7,272.5 173.9,271.6 174.2,268.6 174.4,269.3 174.6,270.9 174.9,272.8 175.1,273.2 175.4,274.9 175.6,277.2 175.8,276.2 176.1,276.8 176.3,278.1 176.6,278.3 176.8,272.8 177.1,272.1 177.3,271.7 177.5,271.2 177.8,271.0 178.0,272.2 178.3,275.8 178.5,272.0 178.7,271.8 179.0,272.4 179.2,273.7 179.5,272.8 179.7,272.5 180.0,268.7 180.2,278.7 180.4,273.6 180.7,269.0 180.9,267.2 181.2,276.7 181.4,275.5 181.6,276.8 181.9,274.2 182.1,274.6 182.4,274.9 182.6,275.1 182.8,278.1 183.1,279.0 183.3,274.7 183.6,273.6 183.8,273.8 184.1,276.1 184.3,274.0 184.5,273.1 184.8,273.0 185.0,272.2 185.3,277.4 185.5,281.3 185.7,277.4 186.0,274.2 186.2,271.5 186.5,271.3 186.7,272.5 187.0,273.1 187.2,271.8 187.4,272.5 187.7,268.1 187.9,267.7 188.2,269.7 188.4,267.7 188.6,268.5 188.9,266.1 189.1,265.9 189.4,263.1 189.6,263.5 189.9,263.0 190.1,265.2 190.3,264.5 190.6,265.3 190.8,265.3 191.1,266.4 191.3,263.2 191.5,264.2 191.8,264.4 192.0,262.6 192.3,262.8 192.5,262.1 192.8,261.7 193.0,258.3 193.2,251.3 193.5,241.7 193.7,243.3 194.0,244.0 194.2,243.5 194.4,243.5 194.7,243.7 194.9,245.5 195.2,245.3 195.4,248.1 195.7,248.0 195.9,246.4 196.1,246.6 196.4,245.0 196.6,243.2 196.9,242.9 197.1,240.3 197.3,234.0 197.6,236.0 197.8,235.6 198.1,239.8 198.3,238.1 198.6,238.8 198.8,235.9 199.0,233.1 199.3,232.8 199.5,235.0 199.8,237.3 200.0,231.0 200.2,226.6 200.5,228.8 200.7,231.2 201.0,228.0 201.2,227.4 201.5,231.6 201.7,231.3 201.9,231.8 202.2,231.7 202.4,229.7 202.7,229.6 202.9,231.0 203.1,227.8 203.4,232.0 203.6,234.2 203.9,236.2 204.1,236.6 204.4,235.3 204.6,234.6 204.8,233.8 205.1,233.9 205.3,233.8 205.6,233.0 205.8,233.4 206.0,235.4 206.3,235.9 206.5,236.5 206.8,236.9 207.0,237.6 207.2,241.3 207.5,242.4 207.7,242.7 208.0,240.1 208.2,239.4 208.5,244.0 208.7,247.4 208.9,249.5 209.2,254.4 209.4,252.5 209.7,249.7 209.9,247.8 210.1,248.9 210.4,248.8 210.6,249.1 210.9,249.4 211.1,249.4 211.4,248.3 211.6,246.5 211.8,247.9 212.1,254.3 212.3,253.3 212.6,252.5 212.8,253.5 213.0,252.4 213.3,250.5 213.5,249.0 213.8,250.3 214.0,250.7 214.3,252.2 214.5,255.9 214.7,256.2 215.0,255.8 215.2,254.3 215.5,255.3 215.7,259.2 215.9,259.2 216.2,258.0 216.4,258.3 216.7,258.3 216.9,257.6 217.2,256.3 217.4,253.3 217.6,247.4 217.9,248.1 218.1,246.9 218.4,243.9 218.6,243.6 218.8,245.1 219.1,244.6 219.3,244.8 219.6,245.0 219.8,244.7 220.1,244.9 220.3,241.5 220.5,237.2 220.8,233.6 221.0,235.4 221.3,236.3 221.5,237.8 221.7,237.4 222.0,237.0 222.2,238.0 222.5,238.7 222.7,238.0 223.0,238.1 223.2,234.3 223.4,234.6 223.7,235.9 223.9,234.9 224.2,237.0 224.4,237.1 224.6,238.1 224.9,238.5 225.1,236.3 225.4,233.4 225.6,235.8 225.9,235.1 226.1,234.2 226.3,235.2 226.6,233.6 226.8,234.8 227.1,234.6 227.3,236.0 227.5,235.6 227.8,234.8 228.0,234.7 228.3,234.5 228.5,232.1 228.8,233.4 229.0,234.1 229.2,231.5 229.5,231.5 229.7,229.4 230.0,232.2 230.2,230.9 230.4,228.0 230.7,228.3 230.9,228.3 231.2,228.6 231.4,226.4 231.7,227.3 231.9,228.6 232.1,228.3 232.4,229.0 232.6,229.1 232.9,228.3 233.1,227.1 233.3,223.6 233.6,225.2 233.8,225.0 234.1,225.5 234.3,223.5 234.5,224.2 234.8,224.8 235.0,222.0 235.3,221.9 235.5,219.7 235.8,218.9 236.0,219.6 236.2,219.0 236.5,218.9 236.7,217.5 237.0,215.8 237.2,217.6 237.4,218.5 237.7,218.2 237.9,217.3 238.2,213.5 238.4,213.5 238.7,213.3 238.9,213.1 239.1,211.9 239.4,208.9 239.6,212.7 239.9,212.0 240.1,209.8 240.3,208.0 240.6,210.1 240.8,210.3 241.1,209.3 241.3,208.9 241.6,209.0 241.8,210.7 242.0,208.9 242.3,208.7 242.5,207.3 242.8,208.2 243.0,207.0 243.2,189.4 243.5,192.3 243.7,192.7 244.0,195.2 244.2,195.2 244.5,196.8 244.7,197.0 244.9,192.3 245.2,193.4 245.4,188.5 245.7,189.5 245.9,188.8 246.1,189.1 246.4,190.2 246.6,187.9 246.9,191.0 247.1,190.9 247.4,190.8 247.6,187.0 247.8,189.6 248.1,189.4 248.3,188.0 248.6,186.0 248.8,183.0 249.0,182.5 249.3,180.3 249.5,180.9 249.8,178.6 250.0,179.1 250.3,180.1 250.5,180.3 250.7,179.9 251.0,179.8 251.2,176.7 251.5,178.2 251.7,175.1 251.9,177.5 252.2,177.7 252.4,180.3 252.7,179.0 252.9,179.0 253.2,174.0 253.4,175.2 253.6,175.2 253.9,180.4 254.1,180.5 254.4,177.8 254.6,174.9 254.8,173.4 255.1,169.5 255.3,166.5 255.6,165.0 255.8,160.7 256.1,159.7 256.3,160.3 256.5,163.0 256.8,165.8 257.0,166.6 257.3,163.4 257.5,163.0 257.7,163.5 258.0,164.5 258.2,165.9 258.5,164.0 258.7,165.2 258.9,161.1 259.2,160.1 259.4,157.1 259.7,158.6 259.9,158.9 260.2,156.4 260.4,156.3 260.6,158.0 260.9,158.4 261.1,157.8 261.4,164.7 261.6,166.9 261.8,163.6 262.1,164.2 262.3,162.2 262.6,161.4 262.8,157.5 263.1,157.4 263.3,157.2 263.5,157.0 263.8,154.7 264.0,153.9 264.3,152.7 264.5,155.9 264.7,157.6 265.0,156.7 265.2,160.1 265.5,156.6 265.7,158.0 266.0,158.5 266.2,161.8 266.4,161.4 266.7,164.2 266.9,164.1 267.2,159.4 267.4,155.1 267.6,152.6 267.9,151.7 268.1,152.6 268.4,153.8 268.6,150.3 268.9,149.8 269.1,151.8 269.3,152.4 269.6,151.4 269.8,152.8 270.1,154.9 270.3,155.2 270.5,152.1 270.8,152.4 271.0,150.2 271.3,148.0 271.5,148.8 271.8,147.8 272.0,150.2 272.2,151.2 272.5,156.4 272.7,158.6 273.0,160.6 273.2,164.7 273.4,165.3 273.7,162.2 273.9,160.7 274.2,158.2 274.4,156.9 274.7,160.6 274.9,159.1 275.1,163.0 275.4,161.5 275.6,161.6 275.9,163.3 276.1,162.2 276.3,160.1 276.6,159.3 276.8,162.5 277.1,162.0 277.3,162.5 277.6,162.4 277.8,153.5 278.0,153.2 278.3,151.9 278.5,148.2 278.8,148.5 279.0,148.1 279.2,148.9 279.5,149.6 279.7,150.4 280.0,154.5 280.2,153.4 280.5,152.9 280.7,153.2 280.9,153.2 281.2,147.0 281.4,144.7 281.7,142.7 281.9,137.8 282.1,139.4 282.4,141.7 282.6,138.5 282.9,147.1 283.1,150.7 283.3,155.9 283.6,152.3 283.8,156.1 284.1,161.4 284.3,159.0 284.6,158.4 284.8,156.9 285.0,151.1 285.3,150.6 285.5,153.5 285.8,150.8 286.0,149.6 286.2,149.6 286.5,146.3 286.7,145.6 287.0,150.0 287.2,151.6 287.5,154.8 287.7,156.5 287.9,155.1 288.2,150.7 288.4,149.4 288.7,150.8 288.9,148.3 289.1,146.7 289.4,149.9 289.6,146.8 289.9,142.1 290.1,141.3 290.4,145.4 290.6,142.2 290.8,144.8 291.1,152.7 291.3,155.4 291.6,148.3 291.8,154.9 292.0,157.2 292.3,153.6 292.5,158.2 292.8,160.6 293.0,162.7 293.3,162.3 293.5,166.5 293.7,164.5 294.0,158.6 294.2,160.0 294.5,159.6 294.7,162.7 294.9,160.6 295.2,157.4 295.4,154.3 295.7,155.3 295.9,157.0 296.2,159.9 296.4,161.9 296.6,164.2 296.9,161.2 297.1,158.6 297.4,157.5 297.6,156.7 297.8,155.2 298.1,154.4 298.3,149.5 298.6,144.8 298.8,144.1 299.1,144.7 299.3,144.4 299.5,145.5 299.8,142.4 300.0,143.9 300.3,142.8 300.5,144.3 300.7,145.0 301.0,143.2 301.2,144.4 301.5,143.8 301.7,143.3 302.0,142.0 302.2,142.9 302.4,142.9 302.7,142.9 302.9,138.5 303.2,135.3 303.4,135.7 303.6,135.7 303.9,138.9 304.1,137.9 304.4,137.5 304.6,135.2 304.9,136.9 305.1,134.0 305.3,135.9 305.6,135.6 305.8,138.4 306.1,137.2 306.3,139.9 306.5,140.1 306.8,147.8 307.0,147.7 307.3,152.5 307.5,149.9 307.8,152.1 308.0,151.4 308.2,152.7 308.5,151.0 308.7,147.0 309.0,146.7 309.2,146.8 309.4,150.6 309.7,148.6 309.9,148.7 310.2,148.5 310.4,146.8 310.6,148.1 310.9,150.7 311.1,150.8 311.4,150.9 311.6,149.5 311.9,142.9 312.1,145.6 312.3,149.1 312.6,152.6 312.8,150.8 313.1,152.3 313.3,154.3 313.5,155.7 313.8,157.4 314.0,156.4 314.3,158.3 314.5,158.6 314.8,156.3 315.0,158.2 315.2,162.3 315.5,164.5 315.7,162.8 316.0,162.1 316.2,159.3 316.4,158.0 316.7,158.0 316.9,162.6 317.2,160.9 317.4,155.8 317.7,157.8 317.9,157.5 318.1,160.6 318.4,160.3 318.6,164.0 318.9,169.3 319.1,173.1 319.3,170.9 319.6,176.2 319.8,175.2 320.1,171.7 320.3,168.2 320.6,168.8 320.8,173.9 321.0,175.9 321.3,170.6 321.5,167.9 321.8,168.9 322.0,170.2 322.2,169.2 322.5,168.3 322.7,167.5 323.0,168.8 323.2,171.2 323.5,172.7 323.7,170.9 323.9,176.4 324.2,177.8 324.4,181.0 324.7,185.0 324.9,193.5 325.1,189.9 325.4,184.6 325.6,187.6 325.9,182.4 326.1,183.8 326.4,189.8 326.6,188.9 326.8,183.2 327.1,185.2 327.3,192.2 327.6,187.2 327.8,188.9 328.0,198.6 328.3,195.5 328.5,189.5 328.8,180.9 329.0,184.3 329.3,187.2 329.5,184.5 329.7,179.7 330.0,183.0 330.2,187.0 330.5,189.0 330.7,184.9 330.9,181.6 331.2,176.3 331.4,178.2 331.7,182.5 331.9,185.9 332.2,182.6 332.4,181.7 332.6,176.5 332.9,176.1 333.1,173.5 333.4,176.3 333.6,172.2 333.8,169.7 334.1,174.4 334.3,176.7 334.6,179.2 334.8,180.7 335.0,180.3 335.3,180.6 335.5,180.7 335.8,183.0 336.0,187.8 336.3,191.0 336.5,194.7 336.7,196.8 337.0,200.1 337.2,200.2 337.5,193.8 337.7,193.3 337.9,192.7 338.2,194.8 338.4,195.1 338.7,201.6 338.9,192.0 339.2,188.7 339.4,185.1 339.6,180.3 339.9,180.5 340.1,180.8 340.4,182.7 340.6,181.2 340.8,177.6 341.1,176.5 341.3,175.6 341.6,180.0 341.8,180.2 342.1,176.6 342.3,173.6 342.5,173.9 342.8,175.7 343.0,167.1 343.3,165.7 343.5,166.1 343.7,167.2 344.0,162.9 344.2,163.1 344.5,166.9 344.7,166.6 345.0,166.5 345.2,165.5 345.4,164.9 345.7,165.7 345.9,167.6 346.2,164.2 346.4,163.8 346.6,163.0 346.9,158.8 347.1,153.8 347.4,153.6 347.6,152.8 347.9,154.0 348.1,153.3 348.3,150.8 348.6,152.5 348.8,153.1 349.1,158.5 349.3,160.3 349.5,156.0 349.8,155.8 350.0,155.8 350.3,156.1 350.5,155.6 350.8,154.9 351.0,154.7 351.2,155.3 351.5,155.2 351.7,159.3 352.0,157.3 352.2,157.8 352.4,158.7 352.7,158.1 352.9,154.4 353.2,155.6 353.4,155.0 353.7,157.7 353.9,155.5 354.1,152.2 354.4,151.3 354.6,150.8 354.9,151.6 355.1,152.5 355.3,149.5 355.6,154.0 355.8,151.9 356.1,150.5 356.3,151.0 356.6,152.2 356.8,150.7 357.0,152.0 357.3,150.3 357.5,150.9 357.8,151.0 358.0,152.0 358.2,149.2 358.5,148.4 358.7,144.9 359.0,150.0 359.2,155.2 359.5,156.7 359.7,157.1 359.9,157.9 360.2,164.4 360.4,160.4 360.7,158.2 360.9,159.9 361.1,164.8 361.4,172.4 361.6,170.0 361.9,174.0 362.1,176.5 362.3,177.4 362.6,177.6 362.8,179.7 363.1,181.0 363.3,182.7 363.6,182.1 363.8,178.2 364.0,180.5 364.3,180.6 364.5,178.1 364.8,173.1 365.0,170.6 365.2,172.9 365.5,172.7 365.7,174.6 366.0,173.0 366.2,168.2 366.5,168.2 366.7,165.9 366.9,166.4 367.2,166.0 367.4,167.9 367.7,165.2 367.9,163.7 368.1,164.9 368.4,160.3 368.6,159.9 368.9,160.6 369.1,161.7 369.4,165.7 369.6,165.4 369.8,167.0 370.1,167.3 370.3,165.2 370.6,161.5 370.8,161.0 371.0,160.5 371.3,162.1 371.5,161.9 371.8,161.1 372.0,157.8 372.3,157.4 372.5,158.5 372.7,157.3 373.0,158.7 373.2,161.0 373.5,161.8 373.7,168.1 373.9,172.1 374.2,178.6 374.4,175.2 374.7,173.7 374.9,171.0 375.2,173.7 375.4,173.6 375.6,169.4 375.9,171.1 376.1,166.9 376.4,160.6 376.6,157.7 376.8,158.5 377.1,160.1 377.3,162.8 377.6,169.0 377.8,167.8 378.1,167.6 378.3,166.5 378.5,162.1 378.8,160.3 379.0,162.4 379.3,160.9 379.5,157.2 379.7,159.0 380.0,158.1 380.2,160.3 380.5,159.4 380.7,157.7 381.0,157.0 381.2,158.7 381.4,157.1 381.7,156.3 381.9,156.0 382.2,154.4 382.4,158.7 382.6,163.1 382.9,159.0 383.1,160.3 383.4,167.8 383.6,166.7 383.9,168.5 384.1,168.0 384.3,164.8 384.6,164.1 384.8,165.8 385.1,171.3 385.3,168.4 385.5,167.7 385.8,162.0 386.0,163.4 386.3,160.1 386.5,158.6 386.7,158.8 387.0,165.1 387.2,161.5 387.5,164.5 387.7,164.5 388.0,162.3 388.2,160.9 388.4,157.4 388.7,158.8 388.9,158.3 389.2,159.0 389.4,159.1 389.6,156.6 389.9,154.8 390.1,153.1 390.4,151.2 390.6,150.8 390.9,151.2 391.1,151.0 391.3,154.4 391.6,154.2 391.8,152.1 392.1,152.8 392.3,152.3 392.5,154.5 392.8,152.6 393.0,151.1 393.3,148.4 393.5,145.3 393.8,140.9 394.0,141.5 394.2,144.1 394.5,145.1 394.7,146.0 395.0,141.5 395.2,140.2 395.4,142.4 395.7,141.2 395.9,138.2 396.2,138.3 396.4,138.1 396.7,136.6 396.9,135.8 397.1,134.6 397.4,134.5 397.6,133.1 397.9,131.4 398.1,131.8 398.3,130.4 398.6,131.0 398.8,132.7 399.1,133.2 399.3,128.2 399.6,130.0 399.8,130.2 400.0,129.6 400.3,129.3 400.5,126.9 400.8,125.6 401.0,121.5 401.2,123.9 401.5,124.8 401.7,125.5 402.0,123.4 402.2,126.6 402.5,126.5 402.7,128.6 402.9,132.1 403.2,137.7 403.4,134.4 403.7,133.2 403.9,135.6 404.1,136.9 404.4,132.5 404.6,126.2 404.9,127.9 405.1,127.5 405.4,130.3 405.6,130.8 405.8,129.8 406.1,125.3 406.3,127.8 406.6,128.3 406.8,127.7 407.0,126.7 407.3,129.3 407.5,132.9 407.8,137.2 408.0,137.6 408.3,135.4 408.5,138.0 408.7,135.9 409.0,133.9 409.2,136.3 409.5,133.3 409.7,133.6 409.9,138.2 410.2,143.1 410.4,137.0 410.7,142.2 410.9,152.4 411.2,145.8 411.4,157.2 411.6,152.6 411.9,156.3 412.1,155.6 412.4,155.3 412.6,159.2 412.8,151.9 413.1,149.8 413.3,144.8 413.6,149.8 413.8,147.8 414.0,145.4 414.3,150.5 414.5,149.5 414.8,150.9 415.0,144.0 415.3,142.9 415.5,144.3 415.7,144.1 416.0,141.9 416.2,138.1 416.5,135.8 416.7,132.8 416.9,134.9 417.2,133.2 417.4,136.4 417.7,134.6 417.9,137.8 418.2,138.4 418.4,138.9 418.6,140.7 418.9,136.8 419.1,139.6 419.4,145.4 419.6,147.9 419.8,145.0 420.1,144.9 420.3,144.0 420.6,140.6 420.8,137.7 421.1,141.3 421.3,141.9 421.5,140.6 421.8,138.9 422.0,131.1 422.3,129.8 422.5,130.1 422.7,133.2 423.0,141.7 423.2,140.3 423.5,140.6 423.7,141.8 424.0,136.4 424.2,136.9 424.4,131.7 424.7,128.9 424.9,129.3 425.2,128.3 425.4,128.7 425.6,127.6 425.9,125.7 426.1,131.1 426.4,129.6 426.6,130.0 426.9,126.4 427.1,125.3 427.3,125.8 427.6,127.6 427.8,127.1 428.1,122.5 428.3,124.1 428.5,126.7 428.8,130.8 429.0,131.3 429.3,130.8 429.5,130.7 429.8,125.7 430.0,115.8 430.2,117.8 430.5,105.7 430.7,103.6 431.0,103.9 431.2,109.1 431.4,110.8 431.7,110.5 431.9,114.3 432.2,111.6 432.4,107.3 432.7,105.6 432.9,109.1 433.1,109.0 433.4,110.6 433.6,109.5 433.9,110.5 434.1,108.6 434.3,108.5 434.6,109.4 434.8,105.6 435.1,103.3 435.3,101.8 435.6,101.4 435.8,108.8 436.0,111.1 436.3,110.9 436.5,107.1 436.8,107.9 437.0,107.8 437.2,106.1 437.5,104.9 437.7,104.2 438.0,105.6 438.2,101.4 438.4,96.0 438.7,91.0 438.9,88.1 439.2,91.9 439.4,89.6 439.7,90.5 439.9,85.2 440.1,86.2 440.4,92.8 440.6,93.3 440.9,99.1 441.1,97.5 441.3,100.4 441.6,98.3 441.8,97.0 442.1,95.1 442.3,95.0 442.6,96.2 442.8,97.9 443.0,97.2 443.3,96.4 443.5,97.6 443.8,99.3 444.0,98.6 444.2,96.1 444.5,95.6 444.7,87.2 445.0,89.1 445.2,90.0 445.5,89.9 445.7,87.9 445.9,86.0 446.2,84.0 446.4,84.4 446.7,81.4 446.9,80.2 447.1,83.8 447.4,84.6 447.6,80.9 447.9,81.8 448.1,79.8 448.4,80.6 448.6,81.4 448.8,79.7 449.1,81.1 449.3,76.5 449.6,80.6 449.8,78.5 450.0,82.1 450.3,79.3 450.5,91.3 450.8,86.3 451.0,90.2 451.3,84.3 451.5,88.8 451.7,101.0 452.0,101.4 452.2,102.2 452.5,104.0 452.7,105.4 452.9,106.2 453.2,106.8 453.4,104.5 453.7,98.8 453.9,99.1 454.2,94.0 454.4,95.2 454.6,95.8 454.9,102.7 455.1,102.3 455.4,103.8 455.6,100.8 455.8,100.6 456.1,102.3 456.3,101.2 456.6,102.4 456.8,101.9 457.1,102.0 457.3,106.6 457.5,107.2 457.8,103.5 458.0,102.1 458.3,104.5 458.5,104.2 458.7,106.8 459.0,106.6 459.2,126.8 459.5,126.5 459.7,118.0 460.0,116.7 460.2,120.1 460.4,123.1 460.7,115.5 460.9,123.2 461.2,123.7 461.4,118.0 461.6,123.4 461.9,124.5 462.1,118.6 462.4,114.0 462.6,113.7 462.8,109.1 463.1,101.5 463.3,104.5 463.6,105.2 463.8,103.7 464.1,101.3 464.3,104.3 464.5,104.1 464.8,107.9 465.0,102.0 465.3,107.5 465.5,102.6 465.7,100.8 466.0,101.4 466.2,103.1 466.5,101.0 466.7,100.3 467.0,99.7 467.2,100.3 467.4,98.8 467.7,98.7 467.9,102.1 468.2,102.5 468.4,107.8 468.6,108.5 468.9,109.8 469.1,115.7 469.4,117.1 469.6,114.8 469.9,119.1 470.1,118.0 470.3,121.5 470.6,119.4 470.8,123.8 471.1,116.9 471.3,119.2 471.5,115.3 471.8,120.6 472.0,121.6 472.3,123.7 472.5,119.7 472.8,117.9 473.0,115.9 473.2,117.5 473.5,117.1 473.7,122.0 474.0,126.3 474.2,123.5 474.4,120.6 474.7,122.2 474.9,123.8 475.2,125.3 475.4,124.7 475.7,121.4 475.9,124.6 476.1,122.9 476.4,125.9 476.6,113.4 476.9,114.7 477.1,116.2 477.3,116.3 477.6,116.5 477.8,118.9 478.1,121.8 478.3,122.1 478.6,122.2 478.8,120.5 479.0,120.1 479.3,118.2 479.5,117.7 479.8,119.2 480.0,121.2 480.2,121.3 480.5,123.1 480.7,123.8 481.0,124.0 481.2,124.7 481.5,128.3 481.7,127.2 481.9,128.1 482.2,137.3 482.4,134.9 482.7,133.9 482.9,132.1 483.1,132.9 483.4,130.0 483.6,133.9 483.9,134.3 484.1,133.8 484.4,133.4 484.6,132.8 484.8,132.0 485.1,128.4 485.3,128.3 485.6,129.9 485.8,128.7 486.0,130.0 486.3,130.7 486.5,132.4 486.8,132.6 487.0,133.5 487.3,132.0 487.5,134.6 487.7,135.1 488.0,133.5 488.2,133.1 488.5,133.9 488.7,133.7 488.9,131.4 489.2,129.1 489.4,122.7 489.7,122.6 489.9,122.1 490.1,123.8 490.4,126.8 490.6,129.5 490.9,133.5 491.1,135.9 491.4,141.6 491.6,137.4 491.8,137.7 492.1,134.9 492.3,133.6 492.6,131.4 492.8,133.2 493.0,135.3 493.3,134.2 493.5,133.9 493.8,131.9 494.0,136.9 494.3,147.4 494.5,151.7 494.7,144.3 495.0,143.2 495.2,144.9 495.5,141.4 495.7,143.3 495.9,141.0 496.2,142.0 496.4,144.0 496.7,144.9 496.9,144.5 497.2,145.2 497.4,147.5 497.6,149.7 497.9,154.2 498.1,161.3 498.4,162.5 498.6,172.5 498.8,174.8 499.1,172.0 499.3,163.0 499.6,165.1 499.8,168.4 500.1,173.4 500.3,170.9 500.5,166.9 500.8,161.7 501.0,162.7 501.3,164.1 501.5,160.2 501.7,163.8 502.0,166.6 502.2,166.0 502.5,168.3 502.7,172.8 503.0,174.8 503.2,176.3 503.4,172.9 503.7,180.7 503.9,181.9 504.2,180.3 504.4,180.9 504.6,186.8 504.9,181.9 505.1,179.8 505.4,184.3 505.6,183.9 505.9,187.6 506.1,192.2 506.3,188.6 506.6,187.7 506.8,176.5 507.1,171.6 507.3,169.5 507.5,170.3 507.8,166.6 508.0,167.1 508.3,166.1 508.5,167.1 508.8,158.7 509.0,158.6 509.2,158.4 509.5,158.2 509.7,159.4 510.0,164.4 510.2,165.0 510.4,164.6 510.7,168.7 510.9,164.3 511.2,170.4 511.4,167.6 511.7,168.8 511.9,174.1 512.1,171.1 512.4,172.8 512.6,169.5 512.9,166.2 513.1,167.1 513.3,167.3 513.6,165.7 513.8,171.6 514.1,188.2 514.3,191.4 514.5,195.2 514.8,198.3 515.0,195.3 515.3,198.6 515.5,200.5 515.8,204.9 516.0,210.6 516.2,211.2 516.5,223.3 516.7,209.3 517.0,207.2 517.2,207.7 517.4,209.0 517.7,207.7 517.9,210.9 518.2,206.0 518.4,210.6 518.7,213.2 518.9,211.1 519.1,219.5 519.4,210.1 519.6,216.1 519.9,215.1 520.1,217.6 520.3,219.8 520.6,223.1 520.8,210.0 521.1,214.9 521.3,213.1 521.6,214.0 521.8,212.2 522.0,205.9 522.3,202.4 522.5,204.1 522.8,199.9 523.0,194.4 523.2,200.7 523.5,200.5 523.7,203.8 524.0,204.7 524.2,201.1 524.5,209.8 524.7,213.1 524.9,214.5 525.2,221.5 525.4,223.5 525.7,219.2 525.9,206.9 526.1,205.3 526.4,210.2 526.6,209.5 526.9,210.9 527.1,219.7 527.4,211.3 527.6,206.1 527.8,208.9 528.1,210.9 528.3,211.3 528.6,206.4 528.8,207.1 529.0,208.4 529.3,214.7 529.5,222.1 529.8,226.1 530.0,227.2 530.3,228.5 530.5,232.1 530.7,229.6 531.0,231.8 531.2,236.4 531.5,238.4 531.7,241.1 531.9,242.8 532.2,237.9 532.4,249.6 532.7,259.3 532.9,274.7 533.2,276.5 533.4,232.4 533.6,238.7 533.9,228.0 534.1,234.3 534.4,219.5 534.6,216.8 534.8,219.3 535.1,222.0 535.3,219.4 535.6,217.4 535.8,217.6 536.1,227.3 536.3,225.5 536.5,216.5 536.8,224.5 537.0,228.8 537.3,233.3 537.5,234.3 537.7,237.1 538.0,239.6 538.2,239.2 538.5,245.7 538.7,246.9 539.0,248.7 539.2,255.0 539.4,260.5 539.7,259.7 539.9,260.8 540.2,263.8 540.4,256.7 540.6,252.7 540.9,243.4 541.1,237.5 541.4,238.7 541.6,237.3 541.8,247.0 542.1,254.0 542.3,262.4 542.6,262.9 542.8,267.7 543.1,268.8 543.3,257.3 543.5,259.7 543.8,251.0 544.0,258.4 544.3,257.8 544.5,259.2 544.7,258.5 545.0,266.4 545.2,266.7 545.5,247.2 545.7,248.8 546.0,244.9 546.2,248.9 546.4,242.8 546.7,249.1 546.9,240.6 547.2,233.3 547.4,214.0 547.6,225.9 547.9,226.0 548.1,241.3 548.4,232.0 548.6,228.3 548.9,237.2 549.1,236.1 549.3,230.5 549.6,232.1 549.8,223.1 550.1,216.3 550.3,215.0 550.5,217.4 550.8,218.3 551.0,221.1 551.3,218.3 551.5,213.4 551.8,214.6 552.0,210.7 552.2,212.5 552.5,226.3 552.7,226.8 553.0,226.9 553.2,234.0 553.4,235.8 553.7,234.9 553.9,232.7 554.2,233.8 554.4,232.2 554.7,238.4 554.9,237.7 555.1,237.2 555.4,235.4 555.6,238.5 555.9,255.1 556.1,253.6 556.3,250.0 556.6,245.4 556.8,242.9 557.1,250.1 557.3,252.8 557.6,252.2 557.8,250.3 558.0,246.7 558.3,246.8 558.5,247.7 558.8,250.0 559.0,254.4 559.2,252.9 559.5,254.7 559.7,254.0 560.0,254.4 560.2,250.2 560.5,239.4 560.7,242.1 560.9,244.1 561.2,248.2 561.4,245.9 561.7,248.4 561.9,251.3 562.1,256.5 562.4,253.1 562.6,254.8 562.9,250.8 563.1,246.9 563.4,254.9 563.6,255.8 563.8,255.9 564.1,259.8 564.3,257.8 564.6,260.8 564.8,267.9 565.0,269.4 565.3,272.8 565.5,272.6 565.8,274.5 566.0,269.0 566.2,272.4 566.5,270.7 566.7,269.9 567.0,263.6 567.2,263.2 567.5,263.3 567.7,268.5 567.9,272.0 568.2,279.1 568.4,278.4 568.7,279.8 568.9,283.6 569.1,276.5 569.4,277.3 569.6,287.0 569.9,285.5 570.1,285.2 570.4,304.0 570.6,303.9 570.8,292.6 571.1,298.2 571.3,302.7 571.6,303.1 571.8,298.1 572.0,300.6 572.3,299.5 572.5,289.9 572.8,290.1 573.0,293.3 573.3,300.3 573.5,290.0 573.7,288.0 574.0,286.9 574.2,271.9 574.5,274.0 574.7,263.4 574.9,269.9 575.2,276.2 575.4,277.9 575.7,273.4 575.9,278.9 576.2,278.2 576.4,270.9 576.6,258.0 576.9,260.6 577.1,254.0 577.4,253.3 577.6,251.8 577.8,256.7 578.1,247.7 578.3,252.0 578.6,255.0 578.8,251.9 579.1,252.7 579.3,260.2 579.5,259.2 579.8,258.6 580.0,260.6 580.3,257.6 580.5,257.3 580.7,261.1 581.0,254.3 581.2,258.5 581.5,255.5 581.7,257.1 582.0,251.0 582.2,233.8 582.4,232.9 582.7,229.2 582.9,224.7 583.2,219.7 583.4,219.5 583.6,221.8 583.9,217.1 584.1,219.3 584.4,221.7 584.6,217.6 584.9,213.7 585.1,214.1 585.3,214.2 585.6,213.2 585.8,212.8 586.1,215.4 586.3,224.3 586.5,225.5 586.8,222.2 587.0,226.1 587.3,230.6 587.5,231.7 587.8,231.7 588.0,232.2 588.2,227.8 588.5,234.2 588.7,232.6 589.0,233.4 589.2,234.9 589.4,234.9 589.7,239.2 589.9,246.3 590.2,246.8 590.4,247.7 590.7,255.7 590.9,255.3 591.1,257.6 591.4,254.2 591.6,254.5 591.9,254.6 592.1,254.7 592.3,256.1 592.6,258.9 592.8,264.9 593.1,265.6 593.3,265.7 593.5,264.1 593.8,268.1 594.0,266.8 594.3,267.8 594.5,268.9 594.8,264.3 595.0,264.4 595.2,259.6 595.5,259.0 595.7,260.3 596.0,241.5 596.2,239.3 596.4,234.5 596.7,236.2 596.9,241.5 597.2,238.2 597.4,241.3 597.7,235.4 597.9,237.1 598.1,239.6 598.4,248.2 598.6,244.7 598.9,247.1 599.1,244.4 599.3,245.7 599.6,248.7 599.8,252.9 600.1,255.5 600.3,259.0 600.6,265.6 600.8,265.8 601.0,263.0 601.3,262.7 601.5,263.5 601.8,268.0 602.0,268.1 602.2,266.4 602.5,265.1 602.7,265.0 603.0,266.8 603.2,265.6 603.5,257.4 603.7,261.6 603.9,256.7 604.2,256.0 604.4,253.0 604.7,260.9 604.9,263.8 605.1,260.3 605.4,265.7 605.6,268.6 605.9,272.9 606.1,269.0 606.4,273.1 606.6,271.5 606.8,265.5 607.1,263.4 607.3,263.1 607.6,259.4 607.8,261.7 608.0,260.3 608.3,261.3 608.5,260.7 608.8,258.0 609.0,255.1 609.3,250.7 609.5,250.8 609.7,257.4 610.0,259.2 610.2,259.0 610.5,262.3 610.7,261.4 610.9,258.7 611.2,262.8 611.4,264.6 611.7,264.9 611.9,263.7 612.2,263.3 612.4,264.1 612.6,253.2 612.9,253.2 613.1,251.3 613.4,248.0 613.6,244.1 613.8,247.1 614.1,248.8 614.3,252.2 614.6,250.8 614.8,251.1 615.1,250.7 615.3,244.5 615.5,246.5 615.8,243.3 616.0,245.8 616.3,238.5 616.5,236.2 616.7,239.1 617.0,246.4 617.2,242.7 617.5,243.7 617.7,244.2 617.9,247.6 618.2,246.7 618.4,240.3 618.7,245.4 618.9,248.8 619.2,251.6 619.4,255.5 619.6,253.1 619.9,257.2 620.1,256.3 620.4,257.1 620.6,254.3 620.8,255.5 621.1,254.4 621.3,250.6 621.6,247.9 621.8,248.5 622.1,249.6 622.3,246.4 622.5,247.0 622.8,247.3 623.0,254.1 623.3,254.0 623.5,256.1 623.7,256.8 624.0,257.8 624.2,257.3 624.5,258.8 624.7,258.8 625.0,258.7 625.2,260.9 625.4,263.6 625.7,256.8 625.9,258.5 626.2,260.6 626.4,260.2 626.6,261.3 626.9,259.3 627.1,259.6 627.4,262.9 627.6,263.7 627.9,264.4 628.1,260.4 628.3,262.4 628.6,258.6 628.8,257.6 629.1,263.0 629.3,263.8 629.5,263.3 629.8,264.0 630.0,265.5 630.3,267.9 630.5,270.8 630.8,269.8 631.0,265.7 631.2,268.9 631.5,266.3 631.7,265.8 632.0,265.3 632.2,266.3 632.4,266.4 632.7,264.8 632.9,261.6 633.2,261.5 633.4,261.5 633.7,262.5 633.9,266.0 634.1,265.9 634.4,266.8 634.6,264.0 634.9,258.8 635.1,272.3 635.3,275.0 635.6,273.4 635.8,272.6 636.1,272.5 636.3,273.4 636.6,275.1 636.8,276.6 637.0,280.4 637.3,280.0 637.5,281.7 637.8,283.5 638.0,284.8 638.2,286.6 638.5,284.9 638.7,285.3 639.0,286.8 639.2,286.8 639.5,286.6 639.7,284.6 639.9,280.7 640.2,282.0 640.4,279.1 640.7,282.9 640.9,277.4 641.1,279.3 641.4,278.2 641.6,277.7 641.9,275.6 642.1,275.2 642.3,280.2 642.6,276.8 642.8,280.4 643.1,283.6 643.3,283.8 643.6,285.5 643.8,286.7 644.0,284.8 644.3,285.9 644.5,290.6 644.8,291.7 645.0,293.5 645.2,290.7 645.5,292.3 645.7,281.7 646.0,279.4 646.2,282.0 646.5,281.7 646.7,282.5 646.9,284.9 647.2,285.2 647.4,284.7 647.7,285.8 647.9,280.5 648.1,273.8 648.4,282.4 648.6,288.0 648.9,285.5 649.1,283.3 649.4,286.3 649.6,282.9 649.8,282.0 650.1,281.9 650.3,283.3 650.6,278.7 650.8,277.7 651.0,278.0 651.3,277.0 651.5,274.8 651.8,280.6 652.0,281.6 652.3,280.5 652.5,285.6 652.7,285.4 653.0,282.2 653.2,284.5 653.5,282.5 653.7,280.1 653.9,277.8 654.2,277.2 654.4,282.8 654.7,282.8 654.9,282.6 655.2,282.8 655.4,281.3 655.6,282.0 655.9,285.3 656.1,286.6 656.4,286.6 656.6,286.4 656.8,284.8 657.1,282.9 657.3,283.8 657.6,284.7 657.8,285.7 658.1,286.2 658.3,286.1 658.5,283.6 658.8,280.6 659.0,280.1 659.3,287.0 659.5,288.3 659.7,290.3 660.0,291.9 660.2,291.8 660.5,291.4 660.7,288.2 661.0,284.6 661.2,280.5 661.4,279.6 661.7,278.8 661.9,277.2 662.2,280.1 662.4,278.8 662.6,270.1 662.9,268.4 663.1,268.0 663.4,271.8 663.6,273.4 663.9,271.6 664.1,270.6 664.3,262.8 664.6,271.6 664.8,269.0 665.1,259.4 665.3,256.4 665.5,256.8 665.8,260.3 666.0,266.0 666.3,269.3 666.5,268.5 666.8,269.7 667.0,272.4 667.2,271.3 667.5,273.7 667.7,274.4 668.0,273.5 668.2,271.0 668.4,270.7 668.7,273.5 668.9,271.9 669.2,274.4 669.4,274.2 669.6,278.5 669.9,282.9 670.1,280.6 670.4,280.8 670.6,281.0 670.9,282.3 671.1,280.2 671.3,282.1 671.6,281.4 671.8,284.8 672.1,285.6 672.3,285.2 672.5,282.3 672.8,278.7 673.0,280.7 673.3,282.6 673.5,278.5 673.8,277.9 674.0,273.3 674.2,271.3 674.5,274.2 674.7,273.6 675.0,276.0 675.2,276.9 675.4,279.3 675.7,276.7 675.9,277.7 676.2,278.3 676.4,279.0 676.7,276.9 676.9,273.1 677.1,274.3 677.4,272.7 677.6,274.3 677.9,275.3 678.1,276.1 678.3,274.4 678.6,274.6 678.8,270.1 679.1,270.7 679.3,269.1 679.6,268.8 679.8,271.6 680.0,271.5 680.3,265.2 680.5,264.0 680.8,268.9 681.0,264.6 681.2,265.6 681.5,261.5 681.7,267.6 682.0,268.2 682.2,271.4 682.5,268.9 682.7,264.9 682.9,266.7 683.2,266.4 683.4,266.5 683.7,268.6 683.9,268.2 684.1,264.2 684.4,262.5 684.6,261.3 684.9,262.7 685.1,264.5 685.4,262.6 685.6,263.1 685.8,256.5 686.1,256.8 686.3,253.9 686.6,243.2 686.8,245.8 687.0,232.3 687.3,229.3 687.5,230.9 687.8,222.3 688.0,219.2 688.3,222.2 688.5,220.1 688.7,216.5 689.0,226.2 689.2,228.5 689.5,226.7 689.7,225.6 689.9,228.6 690.2,236.7 690.4,236.2 690.7,239.1 690.9,235.8 691.2,237.9 691.4,238.6 691.6,242.1 691.9,244.5 692.1,242.9 692.4,239.3 692.6,239.5 692.8,241.1 693.1,242.1 693.3,242.7 693.6,241.5 693.8,240.3 694.0,243.9 694.3,239.0 694.5,247.7 694.8,245.8 695.0,251.3 695.3,251.0 695.5,253.2 695.7,256.3 696.0,255.1 696.2,258.7 696.5,259.2 696.7,261.2 696.9,265.3 697.2,261.2 697.4,261.8 697.7,259.5 697.9,258.3 698.2,260.6 698.4,261.0 698.6,262.3 698.9,263.6 699.1,260.6 699.4,250.5 699.6,254.4 699.8,255.7 700.1,255.3 700.3,257.5 700.6,260.4 700.8,258.6 701.1,262.1 701.3,263.3 701.5,266.7 701.8,261.9 702.0,261.3 702.3,260.4 702.5,262.0 702.7,263.6 703.0,262.5 703.2,262.2 703.5,261.3 703.7,261.3 704.0,263.0 704.2,264.3 704.4,269.8 704.7,269.7 704.9,267.8 705.2,266.5 705.4,266.5 705.6,261.9 705.9,261.5 706.1,259.8 706.4,260.3 706.6,255.4 706.9,254.1 707.1,244.9 707.3,243.9 707.6,235.4 707.8,240.9 708.1,241.2 708.3,236.0 708.5,240.2 708.8,238.7 709.0,234.4 709.3,224.1 709.5,222.3 709.8,215.5 710.0,214.1 710.2,208.1 710.5,205.6 710.7,206.9 711.0,195.9 711.2,188.0 711.4,203.3 711.7,197.9 711.9,192.7 712.2,195.3 712.4,199.5 712.7,201.4 712.9,202.4 713.1,190.7 713.4,191.8 713.6,191.2 713.9,199.5 714.1,192.8 714.3,194.7 714.6,193.4 714.8,190.7 715.1,184.4 715.3,189.0 715.6,188.6 715.8,194.9 716.0,196.8 716.3,197.5 716.5,199.3 716.8,199.8 717.0,196.2 717.2,199.6 717.5,199.8 717.7,199.3 718.0,202.5 718.2,203.0 718.5,217.6 718.7,231.0 718.9,240.1 719.2,232.6 719.4,233.5 719.7,228.7 719.9,220.8 720.1,222.9 720.4,230.0 720.6,227.2 720.9,225.6 721.1,218.4 721.3,214.7 721.6,214.4 721.8,213.2 722.1,215.4 722.3,214.8 722.6,214.2 722.8,212.9 723.0,206.9 723.3,206.0 723.5,204.8 723.8,209.8 724.0,206.9 724.2,207.4 724.5,199.5 724.7,200.4 725.0,197.9 725.2,209.0 725.5,209.5 725.7,210.1 725.9,207.6 726.2,209.4 726.4,211.8 726.7,212.7 726.9,214.1 727.1,217.4 727.4,216.9 727.6,220.9 727.9,219.8 728.1,219.6 728.4,214.2 728.6,213.6 728.8,214.2 729.1,211.8 729.3,211.3 729.6,213.1 729.8,217.5 730.0,222.2 730.3,218.3 730.5,219.5 730.8,221.4 731.0,222.0 731.3,221.9 731.5,217.1 731.7,220.1 732.0,220.8 732.2,220.7 732.5,221.5 732.7,220.8 732.9,224.9 733.2,227.5 733.4,230.7 733.7,228.4 733.9,233.9 734.2,230.2 734.4,230.1 734.6,228.1 734.9,217.1 735.1,218.6 735.4,216.7 735.6,213.2 735.8,213.2 736.1,212.7 736.3,210.5 736.6,212.2 736.8,213.5 737.1,211.0 737.3,214.3 737.5,216.6 737.8,212.8 738.0,217.0 738.3,216.5 738.5,217.0 738.7,212.5 739.0,212.4 739.2,213.1 739.5,215.1 739.7,210.7 740.0,205.7 740.2,210.9 740.4,212.0 740.7,211.9 740.9,213.5 741.2,214.1 741.4,215.8 741.6,210.1 741.9,208.5 742.1,208.7 742.4,210.9 742.6,214.0 742.9,196.9 743.1,193.2 743.3,195.4 743.6,201.2 743.8,196.3 744.1,190.6 744.3,184.8 744.5,187.9 744.8,177.0 745.0,177.4 745.3,174.7 745.5,171.0 745.7,167.6 746.0,170.8 746.2,170.5 746.5,169.2 746.7,170.3 747.0,159.2 747.2,159.9 747.4,162.8 747.7,156.4 747.9,157.3 748.2,154.2 748.4,149.2 748.6,150.2 748.9,150.8 749.1,155.3 749.4,155.5 749.6,161.4 749.9,173.8 750.1,167.1 750.3,170.4 750.6,167.8 750.8,168.5 751.1,166.9 751.3,161.5 751.5,167.2 751.8,167.9 752.0,162.8 752.3,160.6 752.5,156.8 752.8,158.9 753.0,156.4 753.2,161.2 753.5,164.0 753.7,166.3 754.0,169.2 754.2,168.8 754.4,166.4 754.7,167.5 754.9,167.8 755.2,172.2 755.4,174.8 755.7,173.1 755.9,178.5 756.1,175.0 756.4,173.2 756.6,173.9 756.9,179.0 757.1,179.3 757.3,172.3 757.6,175.6 757.8,175.1 758.1,175.3 758.3,169.2 758.6,172.0 758.8,174.6 759.0,175.2 759.3,174.4 759.5,174.6 759.8,176.6 760.0,174.0 760.2,175.7 760.5,176.8 760.7,182.0 761.0,182.7 761.2,184.8 761.5,184.6 761.7,182.2 761.9,181.1 762.2,180.9 762.4,182.0 762.7,180.0 762.9,183.5 763.1,184.6 763.4,185.3 763.6,176.8 763.9,176.3 764.1,181.2 764.4,185.1 764.6,177.9 764.8,181.1 765.1,167.5 765.3,166.9 765.6,164.5 765.8,163.6 766.0,168.3 766.3,170.9 766.5,165.5 766.8,158.6 767.0,161.7 767.3,163.3 767.5,162.2 767.7,159.8 768.0,160.9 768.2,164.8 768.5,165.7 768.7,169.8 768.9,173.7 769.2,174.9 769.4,170.8 769.7,170.3 769.9,167.3 770.2,169.2 770.4,174.1 770.6,176.8 770.9,177.0 771.1,176.7 771.4,178.1 771.6,177.9 771.8,179.5 772.1,179.2 772.3,179.9 772.6,183.9 772.8,187.7 773.0,189.2 773.3,196.3 773.5,198.7 773.8,201.8 774.0,201.4 774.3,199.4 774.5,195.0 774.7,195.6 775.0,197.7 775.2,196.7 775.5,195.1 775.7,195.3 775.9,197.5 776.2,207.9 776.4,210.7 776.7,206.6 776.9,207.2 777.2,202.4 777.4,207.3 777.6,210.4 777.9,211.2 778.1,207.2 778.4,209.2 778.6,211.1 778.8,210.8 779.1,213.8 779.3,207.4 779.6,204.8 779.8,205.2 780.1,204.4 780.3,200.8 780.5,198.7 780.8,193.2 781.0,190.8 781.3,191.6 781.5,196.5 781.7,195.4 782.0,200.4 782.2,196.1 782.5,199.5 782.7,201.3 783.0,201.8 783.2,200.2 783.4,200.6 783.7,198.7 783.9,199.8 784.2,190.3 784.4,190.8 784.6,191.7 784.9,194.5 785.1,197.1 785.4,186.0 785.6,190.7 785.9,199.4 786.1,198.7 786.3,196.2 786.6,197.5 786.8,200.6 787.1,202.2 787.3,202.8 787.5,204.7 787.8,206.5 788.0,208.6 788.3,207.3 788.5,201.3 788.8,205.3 789.0,206.7 789.2,212.3 789.5,213.4 789.7,213.9 790.0,219.1 790.2,222.4 790.4,222.2 790.7,222.6 790.9,224.5 791.2,229.1 791.4,229.6 791.7,232.4 791.9,235.6 792.1,239.5 792.4,246.4 792.6,246.7 792.9,245.7 793.1,245.0 793.3,242.1 793.6,244.8 793.8,242.2 794.1,241.9 794.3,227.1 794.6,224.3 794.8,222.8 795.0,222.8 795.3,222.8 795.5,216.3 795.8,216.5 796.0,218.8"/><polyline fill="none" stroke="#16a34a" stroke-width="3" points="78.0,248.1 78.2,254.3 78.5,258.6 78.7,253.2 79.0,255.8 79.2,253.4 79.4,256.1 79.7,255.9 79.9,260.3 80.2,258.8 80.4,257.1 80.7,256.8 80.9,257.8 81.1,256.8 81.4,256.0 81.6,260.7 81.9,261.9 82.1,262.2 82.3,261.2 82.6,255.9 82.8,257.4 83.1,256.8 83.3,252.7 83.6,251.6 83.8,247.3 84.0,245.3 84.3,242.4 84.5,239.7 84.8,241.6 85.0,241.0 85.2,241.2 85.5,236.7 85.7,230.9 86.0,227.5 86.2,223.8 86.5,220.1 86.7,214.5 86.9,220.1 87.2,215.6 87.4,219.7 87.7,219.4 87.9,220.4 88.1,224.8 88.4,227.3 88.6,226.0 88.9,224.9 89.1,220.8 89.4,221.4 89.6,222.4 89.8,223.7 90.1,231.0 90.3,225.9 90.6,225.0 90.8,226.9 91.0,228.5 91.3,232.3 91.5,229.1 91.8,233.9 92.0,232.4 92.3,232.2 92.5,232.7 92.7,231.3 93.0,227.0 93.2,226.8 93.5,225.0 93.7,227.4 93.9,231.6 94.2,231.1 94.4,231.1 94.7,231.0 94.9,231.3 95.2,233.8 95.4,234.2 95.6,237.8 95.9,234.6 96.1,236.3 96.4,232.3 96.6,235.0 96.8,237.0 97.1,238.1 97.3,239.8 97.6,244.5 97.8,243.7 98.1,239.2 98.3,234.7 98.5,233.7 98.8,234.9 99.0,233.7 99.3,235.1 99.5,241.4 99.7,254.4 100.0,255.5 100.2,253.9 100.5,253.1 100.7,254.1 101.0,258.9 101.2,261.0 101.4,260.5 101.7,258.4 101.9,260.5 102.2,258.7 102.4,255.6 102.6,259.1 102.9,259.3 103.1,259.0 103.4,259.5 103.6,261.4 103.8,262.7 104.1,260.2 104.3,261.5 104.6,261.9 104.8,263.8 105.1,267.9 105.3,261.3 105.5,260.3 105.8,263.1 106.0,266.3 106.3,265.6 106.5,267.2 106.7,267.4 107.0,267.5 107.2,263.8 107.5,263.0 107.7,262.8 108.0,260.9 108.2,261.8 108.4,263.4 108.7,264.4 108.9,264.2 109.2,263.5 109.4,262.8 109.6,264.0 109.9,265.1 110.1,266.6 110.4,266.7 110.6,267.5 110.9,266.9 111.1,261.5 111.3,260.3 111.6,262.8 111.8,263.3 112.1,262.1 112.3,262.7 112.5,263.7 112.8,267.4 113.0,266.9 113.3,266.5 113.5,267.1 113.8,266.7 114.0,262.9 114.2,262.3 114.5,262.0 114.7,266.4 115.0,268.4 115.2,268.6 115.4,269.7 115.7,271.5 115.9,270.7 116.2,260.5 116.4,258.8 116.7,259.3 116.9,259.2 117.1,258.0 117.4,256.6 117.6,256.5 117.9,258.7 118.1,256.9 118.3,253.0 118.6,248.1 118.8,249.1 119.1,250.2 119.3,250.1 119.6,252.6 119.8,255.2 120.0,252.9 120.3,253.3 120.5,252.9 120.8,253.2 121.0,253.0 121.2,256.8 121.5,257.9 121.7,255.8 122.0,258.5 122.2,259.5 122.5,260.3 122.7,260.3 122.9,259.2 123.2,259.3 123.4,260.9 123.7,261.0 123.9,262.0 124.1,261.9 124.4,261.7 124.6,265.0 124.9,268.8 125.1,266.7 125.4,266.4 125.6,267.1 125.8,270.3 126.1,271.4 126.3,274.4 126.6,272.4 126.8,270.2 127.0,267.5 127.3,268.1 127.5,269.4 127.8,268.0 128.0,264.9 128.3,266.1 128.5,266.3 128.7,263.6 129.0,264.0 129.2,265.5 129.5,268.2 129.7,269.7 129.9,270.2 130.2,270.8 130.4,273.7 130.7,274.3 130.9,272.7 131.1,271.0 131.4,272.5 131.6,272.8 131.9,269.9 132.1,275.5 132.4,282.9 132.6,279.6 132.8,280.2 133.1,279.4 133.3,281.9 133.6,283.4 133.8,288.9 134.0,293.2 134.3,298.3 134.5,292.4 134.8,292.3 135.0,287.8 135.3,289.4 135.5,297.6 135.7,300.3 136.0,298.8 136.2,296.8 136.5,302.4 136.7,309.1 136.9,302.1 137.2,302.5 137.4,300.8 137.7,305.3 137.9,300.3 138.2,295.2 138.4,297.8 138.6,298.4 138.9,302.4 139.1,306.9 139.4,311.3 139.6,311.5 139.8,313.1 140.1,317.5 140.3,316.5 140.6,313.7 140.8,313.9 141.1,303.9 141.3,302.3 141.5,302.3 141.8,297.2 142.0,294.2 142.3,292.1 142.5,288.9 142.7,290.2 143.0,292.5 143.2,286.0 143.5,285.6 143.7,284.3 144.0,286.0 144.2,290.6 144.4,287.5 144.7,278.6 144.9,277.3 145.2,271.7 145.4,266.6 145.6,266.8 145.9,264.1 146.1,263.2 146.4,264.8 146.6,261.5 146.9,261.5 147.1,264.5 147.3,268.3 147.6,268.2 147.8,271.0 148.1,272.9 148.3,278.2 148.5,273.7 148.8,274.0 149.0,274.8 149.3,274.5 149.5,270.8 149.8,268.4 150.0,269.2 150.2,267.7 150.5,268.3 150.7,263.7 151.0,263.8 151.2,262.1 151.4,266.2 151.7,262.4 151.9,262.5 152.2,263.2 152.4,264.8 152.7,263.3 152.9,271.2 153.1,269.7 153.4,266.4 153.6,262.8 153.9,264.6 154.1,266.1 154.3,265.7 154.6,262.4 154.8,262.5 155.1,264.3 155.3,267.0 155.5,265.1 155.8,267.8 156.0,268.5 156.3,276.7 156.5,273.1 156.8,275.5 157.0,284.1 157.2,287.9 157.5,289.7 157.7,284.2 158.0,288.9 158.2,285.1 158.4,290.4 158.7,289.3 158.9,292.1 159.2,288.1 159.4,288.8 159.7,290.1 159.9,290.0 160.1,290.5 160.4,295.9 160.6,295.6 160.9,295.6 161.1,299.8 161.3,303.4 161.6,300.3 161.8,305.2 162.1,308.7 162.3,308.0 162.6,307.1 162.8,309.9 163.0,309.2 163.3,297.2 163.5,297.0 163.8,296.7 164.0,295.1 164.2,291.9 164.5,295.8 164.7,295.2 165.0,296.4 165.2,295.9 165.5,291.9 165.7,287.8 165.9,287.0 166.2,287.5 166.4,285.1 166.7,283.8 166.9,287.4 167.1,284.7 167.4,285.6 167.6,281.7 167.9,282.9 168.1,285.1 168.4,282.6 168.6,281.2 168.8,277.5 169.1,274.1 169.3,273.9 169.6,276.9 169.8,278.2 170.0,277.0 170.3,274.1 170.5,272.7 170.8,272.4 171.0,273.0 171.3,272.3 171.5,275.5 171.7,273.0 172.0,275.0 172.2,275.2 172.5,274.8 172.7,274.5 172.9,271.3 173.2,271.4 173.4,272.5 173.7,272.5 173.9,271.6 174.2,268.6 174.4,269.3 174.6,270.9 174.9,272.8 175.1,273.2 175.4,274.9 175.6,277.2 175.8,276.2 176.1,276.8 176.3,278.1 176.6,278.3 176.8,272.8 177.1,272.1 177.3,271.7 177.5,271.2 177.8,271.0 178.0,272.2 178.3,275.8 178.5,272.0 178.7,271.8 179.0,272.4 179.2,273.7 179.5,272.8 179.7,272.5 180.0,268.7 180.2,278.7 180.4,273.6 180.7,269.0 180.9,267.2 181.2,276.7 181.4,275.5 181.6,276.8 181.9,274.2 182.1,274.6 182.4,274.9 182.6,275.1 182.8,278.1 183.1,279.0 183.3,274.7 183.6,273.6 183.8,273.8 184.1,276.1 184.3,274.0 184.5,273.1 184.8,273.0 185.0,272.2 185.3,277.4 185.5,281.3 185.7,277.4 186.0,274.2 186.2,271.5 186.5,271.3 186.7,272.5 187.0,273.1 187.2,271.8 187.4,272.5 187.7,268.1 187.9,267.7 188.2,269.7 188.4,267.7 188.6,268.5 188.9,266.1 189.1,265.9 189.4,263.1 189.6,263.5 189.9,263.0 190.1,265.2 190.3,264.5 190.6,265.3 190.8,265.3 191.1,266.4 191.3,263.2 191.5,264.2 191.8,264.4 192.0,262.6 192.3,262.8 192.5,262.1 192.8,261.7 193.0,258.3 193.2,251.3 193.5,241.7 193.7,243.3 194.0,244.0 194.2,243.5 194.4,243.5 194.7,243.7 194.9,245.5 195.2,245.3 195.4,248.1 195.7,248.0 195.9,246.4 196.1,246.6 196.4,245.0 196.6,243.2 196.9,242.9 197.1,240.3 197.3,234.0 197.6,236.0 197.8,235.6 198.1,239.8 198.3,238.1 198.6,238.8 198.8,235.9 199.0,233.1 199.3,232.8 199.5,235.0 199.8,237.3 200.0,231.0 200.2,226.6 200.5,228.8 200.7,231.2 201.0,228.0 201.2,227.4 201.5,231.6 201.7,231.3 201.9,231.8 202.2,231.7 202.4,229.7 202.7,229.6 202.9,231.0 203.1,227.8 203.4,232.0 203.6,234.2 203.9,236.2 204.1,236.6 204.4,235.3 204.6,234.6 204.8,233.8 205.1,233.9 205.3,233.8 205.6,233.0 205.8,233.4 206.0,235.4 206.3,235.9 206.5,236.5 206.8,236.9 207.0,237.6 207.2,241.3 207.5,242.4 207.7,242.7 208.0,240.1 208.2,239.4 208.5,244.0 208.7,247.4 208.9,249.5 209.2,254.4 209.4,252.5 209.7,249.7 209.9,247.8 210.1,248.9 210.4,248.8 210.6,249.1 210.9,249.4 211.1,249.4 211.4,248.3 211.6,246.5 211.8,247.9 212.1,254.3 212.3,253.3 212.6,252.5 212.8,253.5 213.0,252.4 213.3,250.5 213.5,249.0 213.8,250.3 214.0,250.7 214.3,252.2 214.5,255.9 214.7,256.2 215.0,255.8 215.2,254.3 215.5,255.3 215.7,259.2 215.9,259.2 216.2,258.0 216.4,258.3 216.7,258.3 216.9,257.6 217.2,256.3 217.4,253.3 217.6,247.4 217.9,248.1 218.1,246.9 218.4,243.9 218.6,243.6 218.8,245.1 219.1,244.6 219.3,244.8 219.6,245.0 219.8,244.7 220.1,244.9 220.3,241.5 220.5,237.2 220.8,233.6 221.0,235.4 221.3,236.3 221.5,237.8 221.7,237.4 222.0,237.0 222.2,238.0 222.5,238.7 222.7,238.0 223.0,238.1 223.2,234.3 223.4,234.6 223.7,235.9 223.9,234.9 224.2,237.0 224.4,237.1 224.6,238.1 224.9,238.5 225.1,236.3 225.4,233.4 225.6,235.8 225.9,235.1 226.1,234.2 226.3,235.2 226.6,233.6 226.8,234.8 227.1,234.6 227.3,236.0 227.5,235.6 227.8,234.8 228.0,234.7 228.3,234.5 228.5,232.1 228.8,233.4 229.0,234.1 229.2,231.5 229.5,231.5 229.7,229.4 230.0,232.2 230.2,230.9 230.4,228.0 230.7,228.3 230.9,228.3 231.2,228.6 231.4,226.4 231.7,227.3 231.9,228.6 232.1,228.3 232.4,229.0 232.6,229.1 232.9,228.3 233.1,227.1 233.3,223.6 233.6,225.2 233.8,225.0 234.1,225.5 234.3,223.5 234.5,224.2 234.8,224.8 235.0,222.0 235.3,221.9 235.5,219.7 235.8,218.9 236.0,219.6 236.2,219.0 236.5,218.9 236.7,217.5 237.0,215.8 237.2,217.6 237.4,218.5 237.7,218.2 237.9,217.3 238.2,213.5 238.4,213.5 238.7,213.3 238.9,213.1 239.1,211.9 239.4,208.9 239.6,212.7 239.9,212.0 240.1,209.8 240.3,208.0 240.6,210.1 240.8,210.3 241.1,209.3 241.3,208.9 241.6,209.0 241.8,210.7 242.0,208.9 242.3,208.7 242.5,207.3 242.8,208.2 243.0,207.0 243.2,189.4 243.5,192.3 243.7,192.7 244.0,195.2 244.2,195.2 244.5,196.8 244.7,197.0 244.9,192.3 245.2,193.4 245.4,188.5 245.7,189.5 245.9,188.8 246.1,189.1 246.4,190.2 246.6,187.9 246.9,191.0 247.1,190.9 247.4,190.8 247.6,187.0 247.8,189.6 248.1,189.4 248.3,188.0 248.6,186.0 248.8,183.0 249.0,182.5 249.3,180.3 249.5,180.9 249.8,178.6 250.0,179.1 250.3,180.1 250.5,180.3 250.7,179.9 251.0,179.8 251.2,176.7 251.5,178.2 251.7,175.1 251.9,177.5 252.2,177.7 252.4,180.3 252.7,179.0 252.9,179.0 253.2,174.0 253.4,175.2 253.6,175.2 253.9,180.4 254.1,180.5 254.4,177.8 254.6,174.9 254.8,173.4 255.1,169.5 255.3,166.5 255.6,165.0 255.8,160.7 256.1,159.7 256.3,160.3 256.5,163.0 256.8,165.8 257.0,166.6 257.3,163.4 257.5,163.0 257.7,163.5 258.0,164.5 258.2,165.9 258.5,164.0 258.7,165.2 258.9,161.1 259.2,160.1 259.4,157.1 259.7,158.6 259.9,158.9 260.2,156.4 260.4,156.3 260.6,158.0 260.9,158.4 261.1,157.8 261.4,164.7 261.6,166.9 261.8,163.6 262.1,164.2 262.3,162.2 262.6,161.4 262.8,157.5 263.1,157.4 263.3,157.2 263.5,157.0 263.8,154.7 264.0,153.9 264.3,152.7 264.5,155.9 264.7,157.6 265.0,156.7 265.2,160.1 265.5,156.6 265.7,158.0 266.0,158.5 266.2,161.8 266.4,161.4 266.7,164.2 266.9,164.1 267.2,159.4 267.4,155.1 267.6,152.6 267.9,151.7 268.1,152.6 268.4,153.8 268.6,150.3 268.9,149.8 269.1,151.8 269.3,152.4 269.6,151.4 269.8,152.8 270.1,154.9 270.3,155.2 270.5,152.1 270.8,152.4 271.0,150.2 271.3,148.0 271.5,148.8 271.8,147.8 272.0,150.2 272.2,151.2 272.5,156.4 272.7,158.6 273.0,160.6 273.2,164.7 273.4,165.3 273.7,162.2 273.9,160.7 274.2,158.2 274.4,156.9 274.7,160.6 274.9,159.1 275.1,163.0 275.4,161.5 275.6,161.6 275.9,163.3 276.1,162.2 276.3,160.1 276.6,159.3 276.8,162.5 277.1,162.0 277.3,162.5 277.6,162.4 277.8,153.5 278.0,153.2 278.3,151.9 278.5,148.2 278.8,148.5 279.0,148.1 279.2,148.9 279.5,149.6 279.7,150.4 280.0,154.5 280.2,153.4 280.5,152.9 280.7,153.2 280.9,153.2 281.2,147.0 281.4,144.7 281.7,142.7 281.9,137.8 282.1,139.4 282.4,141.7 282.6,138.5 282.9,147.1 283.1,150.7 283.3,155.9 283.6,152.3 283.8,156.1 284.1,161.4 284.3,159.0 284.6,158.4 284.8,156.9 285.0,151.1 285.3,150.6 285.5,153.5 285.8,150.8 286.0,149.6 286.2,149.6 286.5,146.3 286.7,145.6 287.0,150.0 287.2,151.6 287.5,154.8 287.7,156.5 287.9,155.1 288.2,150.7 288.4,149.4 288.7,150.8 288.9,148.3 289.1,146.7 289.4,149.9 289.6,146.8 289.9,142.1 290.1,141.3 290.4,145.4 290.6,142.2 290.8,144.8 291.1,152.7 291.3,155.4 291.6,148.3 291.8,154.9 292.0,157.2 292.3,153.6 292.5,158.2 292.8,160.6 293.0,162.7 293.3,162.3 293.5,166.5 293.7,164.5 294.0,158.6 294.2,160.0 294.5,159.6 294.7,162.7 294.9,160.6 295.2,157.4 295.4,154.3 295.7,155.3 295.9,157.0 296.2,159.9 296.4,161.9 296.6,164.2 296.9,161.2 297.1,158.6 297.4,157.5 297.6,156.7 297.8,155.2 298.1,154.4 298.3,149.5 298.6,144.8 298.8,144.1 299.1,144.7 299.3,144.4 299.5,145.5 299.8,142.4 300.0,143.9 300.3,142.8 300.5,144.3 300.7,145.0 301.0,143.2 301.2,144.4 301.5,143.8 301.7,143.3 302.0,142.0 302.2,142.9 302.4,142.9 302.7,142.9 302.9,138.5 303.2,135.3 303.4,135.7 303.6,135.7 303.9,138.9 304.1,137.9 304.4,137.5 304.6,135.2 304.9,136.9 305.1,134.0 305.3,135.9 305.6,135.6 305.8,138.4 306.1,137.2 306.3,139.9 306.5,140.1 306.8,147.8 307.0,147.7 307.3,152.5 307.5,149.9 307.8,152.1 308.0,151.4 308.2,152.7 308.5,151.0 308.7,147.0 309.0,146.7 309.2,146.8 309.4,150.6 309.7,148.6 309.9,148.7 310.2,148.5 310.4,146.8 310.6,148.1 310.9,150.7 311.1,150.8 311.4,150.9 311.6,149.5 311.9,142.9 312.1,145.6 312.3,149.1 312.6,152.6 312.8,150.8 313.1,152.3 313.3,154.3 313.5,155.7 313.8,157.4 314.0,156.4 314.3,158.3 314.5,158.6 314.8,156.3 315.0,158.2 315.2,162.3 315.5,164.5 315.7,162.8 316.0,162.1 316.2,159.3 316.4,158.0 316.7,158.0 316.9,162.6 317.2,160.9 317.4,155.8 317.7,157.8 317.9,157.5 318.1,160.6 318.4,160.3 318.6,164.0 318.9,169.3 319.1,173.1 319.3,170.9 319.6,176.2 319.8,175.2 320.1,171.7 320.3,168.2 320.6,168.8 320.8,173.9 321.0,175.9 321.3,170.6 321.5,167.9 321.8,168.9 322.0,170.2 322.2,169.2 322.5,168.3 322.7,167.5 323.0,168.8 323.2,171.2 323.5,172.7 323.7,170.9 323.9,176.4 324.2,177.8 324.4,181.0 324.7,185.0 324.9,193.5 325.1,189.9 325.4,184.6 325.6,187.6 325.9,182.4 326.1,183.8 326.4,189.8 326.6,188.9 326.8,183.2 327.1,185.2 327.3,192.2 327.6,187.2 327.8,188.9 328.0,198.6 328.3,195.5 328.5,189.5 328.8,180.9 329.0,184.3 329.3,187.2 329.5,184.5 329.7,179.7 330.0,183.0 330.2,187.0 330.5,189.0 330.7,184.9 330.9,181.6 331.2,176.3 331.4,178.2 331.7,182.5 331.9,185.9 332.2,182.6 332.4,181.7 332.6,176.5 332.9,176.1 333.1,173.5 333.4,176.3 333.6,172.2 333.8,169.7 334.1,174.4 334.3,176.7 334.6,179.2 334.8,180.7 335.0,180.3 335.3,180.6 335.5,180.7 335.8,183.0 336.0,187.8 336.3,191.0 336.5,194.7 336.7,196.8 337.0,200.1 337.2,200.2 337.5,193.8 337.7,193.3 337.9,192.7 338.2,194.8 338.4,195.1 338.7,201.6 338.9,192.0 339.2,188.7 339.4,185.1 339.6,180.3 339.9,180.5 340.1,180.8 340.4,182.7 340.6,181.2 340.8,177.6 341.1,176.5 341.3,175.6 341.6,180.0 341.8,180.2 342.1,176.6 342.3,173.6 342.5,173.9 342.8,175.7 343.0,167.1 343.3,165.7 343.5,166.1 343.7,167.2 344.0,162.9 344.2,163.1 344.5,166.9 344.7,166.6 345.0,166.5 345.2,165.5 345.4,164.9 345.7,165.7 345.9,167.6 346.2,164.2 346.4,163.8 346.6,163.0 346.9,158.8 347.1,153.8 347.4,153.6 347.6,152.8 347.9,154.0 348.1,153.3 348.3,150.8 348.6,152.5 348.8,153.1 349.1,158.5 349.3,160.3 349.5,156.0 349.8,155.8 350.0,155.8 350.3,156.1 350.5,155.6 350.8,154.9 351.0,154.7 351.2,155.3 351.5,155.2 351.7,159.3 352.0,157.3 352.2,157.8 352.4,158.7 352.7,158.1 352.9,154.4 353.2,155.6 353.4,155.0 353.7,157.7 353.9,155.5 354.1,152.2 354.4,151.3 354.6,150.8 354.9,151.6 355.1,152.5 355.3,149.5 355.6,154.0 355.8,151.9 356.1,150.5 356.3,151.0 356.6,152.2 356.8,150.7 357.0,152.0 357.3,150.3 357.5,150.9 357.8,151.0 358.0,152.0 358.2,149.2 358.5,148.4 358.7,144.9 359.0,150.0 359.2,155.2 359.5,156.7 359.7,157.1 359.9,157.9 360.2,164.4 360.4,160.4 360.7,158.2 360.9,159.9 361.1,164.8 361.4,172.4 361.6,170.0 361.9,174.0 362.1,176.5 362.3,177.4 362.6,177.6 362.8,179.7 363.1,181.0 363.3,182.7 363.6,182.1 363.8,178.2 364.0,180.5 364.3,180.6 364.5,178.1 364.8,173.1 365.0,170.6 365.2,172.9 365.5,172.7 365.7,174.6 366.0,173.0 366.2,168.2 366.5,168.2 366.7,165.9 366.9,166.4 367.2,166.0 367.4,167.9 367.7,165.2 367.9,163.7 368.1,164.9 368.4,160.3 368.6,159.9 368.9,160.6 369.1,161.7 369.4,165.7 369.6,165.4 369.8,167.0 370.1,167.3 370.3,165.2 370.6,161.5 370.8,161.0 371.0,160.5 371.3,162.1 371.5,161.9 371.8,161.1 372.0,157.8 372.3,157.4 372.5,158.5 372.7,157.3 373.0,158.7 373.2,161.0 373.5,161.8 373.7,168.1 373.9,172.1 374.2,178.6 374.4,175.2 374.7,173.7 374.9,171.0 375.2,173.7 375.4,173.6 375.6,169.4 375.9,171.1 376.1,166.9 376.4,160.6 376.6,157.7 376.8,158.5 377.1,160.1 377.3,162.8 377.6,169.0 377.8,167.8 378.1,167.6 378.3,166.5 378.5,162.1 378.8,160.3 379.0,162.4 379.3,160.9 379.5,157.2 379.7,159.0 380.0,158.1 380.2,160.3 380.5,159.4 380.7,157.7 381.0,157.0 381.2,158.7 381.4,157.1 381.7,156.3 381.9,156.0 382.2,154.4 382.4,158.7 382.6,163.1 382.9,159.0 383.1,160.3 383.4,167.8 383.6,166.7 383.9,168.5 384.1,168.0 384.3,164.8 384.6,164.1 384.8,165.8 385.1,171.3 385.3,168.4 385.5,167.7 385.8,162.0 386.0,163.4 386.3,160.1 386.5,158.6 386.7,158.8 387.0,165.1 387.2,161.5 387.5,164.5 387.7,164.5 388.0,162.3 388.2,160.9 388.4,157.4 388.7,158.8 388.9,158.3 389.2,159.0 389.4,159.1 389.6,156.6 389.9,154.8 390.1,153.1 390.4,151.2 390.6,150.8 390.9,151.2 391.1,151.0 391.3,154.4 391.6,154.2 391.8,152.1 392.1,152.8 392.3,152.3 392.5,154.5 392.8,152.6 393.0,151.1 393.3,148.4 393.5,145.3 393.8,140.9 394.0,141.5 394.2,144.1 394.5,145.1 394.7,146.0 395.0,141.5 395.2,140.2 395.4,142.4 395.7,141.2 395.9,138.2 396.2,138.3 396.4,138.1 396.7,136.6 396.9,135.8 397.1,134.6 397.4,134.5 397.6,133.1 397.9,131.4 398.1,131.8 398.3,130.4 398.6,131.0 398.8,132.7 399.1,133.2 399.3,128.2 399.6,130.0 399.8,130.2 400.0,129.6 400.3,129.3 400.5,126.9 400.8,125.6 401.0,121.5 401.2,123.9 401.5,124.8 401.7,125.5 402.0,123.4 402.2,126.6 402.5,126.5 402.7,128.6 402.9,132.1 403.2,137.7 403.4,134.4 403.7,133.2 403.9,135.6 404.1,136.9 404.4,132.5 404.6,126.2 404.9,127.9 405.1,127.5 405.4,130.3 405.6,130.8 405.8,129.8 406.1,125.3 406.3,127.8 406.6,128.3 406.8,127.7 407.0,126.7 407.3,129.3 407.5,132.9 407.8,137.2 408.0,137.6 408.3,135.4 408.5,138.0 408.7,135.9 409.0,133.9 409.2,136.3 409.5,133.3 409.7,133.6 409.9,138.2 410.2,143.1 410.4,137.0 410.7,142.2 410.9,152.4 411.2,145.8 411.4,157.2 411.6,152.6 411.9,156.3 412.1,155.6 412.4,155.3 412.6,159.2 412.8,151.9 413.1,149.8 413.3,144.8 413.6,149.8 413.8,147.8 414.0,145.4 414.3,150.5 414.5,149.5 414.8,150.9 415.0,144.0 415.3,142.9 415.5,144.3 415.7,144.1 416.0,141.9 416.2,138.1 416.5,135.8 416.7,132.8 416.9,134.9 417.2,133.2 417.4,136.4 417.7,134.6 417.9,137.8 418.2,138.4 418.4,138.9 418.6,140.7 418.9,136.8 419.1,139.6 419.4,145.4 419.6,147.9 419.8,145.0 420.1,144.9 420.3,144.0 420.6,140.6 420.8,137.7 421.1,141.3 421.3,141.9 421.5,140.6 421.8,138.9 422.0,131.1 422.3,129.8 422.5,130.1 422.7,133.2 423.0,141.7 423.2,140.3 423.5,140.6 423.7,141.8 424.0,136.4 424.2,136.9 424.4,131.7 424.7,128.9 424.9,129.3 425.2,128.3 425.4,128.7 425.6,127.6 425.9,125.7 426.1,131.1 426.4,129.6 426.6,130.0 426.9,126.4 427.1,125.3 427.3,125.8 427.6,127.6 427.8,127.1 428.1,122.5 428.3,124.1 428.5,126.7 428.8,130.8 429.0,131.3 429.3,130.8 429.5,130.7 429.8,125.7 430.0,115.8 430.2,117.8 430.5,105.7 430.7,103.6 431.0,103.9 431.2,109.1 431.4,110.8 431.7,110.5 431.9,114.3 432.2,111.6 432.4,107.3 432.7,105.6 432.9,109.1 433.1,109.0 433.4,110.6 433.6,109.5 433.9,110.5 434.1,108.6 434.3,108.5 434.6,109.4 434.8,105.6 435.1,103.3 435.3,101.8 435.6,101.4 435.8,108.8 436.0,111.1 436.3,110.9 436.5,107.1 436.8,107.9 437.0,107.8 437.2,106.1 437.5,104.9 437.7,104.2 438.0,105.6 438.2,101.4 438.4,96.0 438.7,91.0 438.9,88.1 439.2,91.9 439.4,89.6 439.7,90.5 439.9,85.2 440.1,86.2 440.4,92.8 440.6,93.3 440.9,99.1 441.1,97.5 441.3,100.4 441.6,98.3 441.8,97.0 442.1,95.1 442.3,95.0 442.6,96.2 442.8,97.9 443.0,97.2 443.3,96.4 443.5,97.6 443.8,99.3 444.0,98.6 444.2,96.1 444.5,95.6 444.7,87.2 445.0,89.1 445.2,90.0 445.5,89.9 445.7,87.9 445.9,86.0 446.2,84.0 446.4,84.4 446.7,81.4 446.9,80.2 447.1,83.8 447.4,84.6 447.6,80.9 447.9,81.8 448.1,79.8 448.4,80.6 448.6,81.4 448.8,79.7 449.1,81.1 449.3,76.5 449.6,80.6 449.8,78.5 450.0,82.1 450.3,79.3 450.5,91.3 450.8,86.3 451.0,90.2 451.3,84.3 451.5,88.8 451.7,101.0 452.0,101.4 452.2,102.2 452.5,104.0 452.7,105.4 452.9,106.2 453.2,106.8 453.4,104.5 453.7,98.8 453.9,99.1 454.2,94.0 454.4,95.2 454.6,95.8 454.9,102.7 455.1,102.3 455.4,103.8 455.6,100.8 455.8,100.6 456.1,102.3 456.3,101.2 456.6,102.4 456.8,101.9 457.1,102.0 457.3,106.6 457.5,107.2 457.8,103.5 458.0,102.1 458.3,104.5 458.5,104.2 458.7,106.8 459.0,106.6 459.2,126.8 459.5,126.5 459.7,118.0 460.0,116.7 460.2,120.1 460.4,123.1 460.7,115.5 460.9,123.2 461.2,123.7 461.4,118.0 461.6,123.4 461.9,124.5 462.1,118.6 462.4,114.0 462.6,113.7 462.8,109.1 463.1,101.5 463.3,104.5 463.6,105.2 463.8,103.7 464.1,101.3 464.3,104.3 464.5,104.1 464.8,107.9 465.0,102.0 465.3,107.5 465.5,102.6 465.7,100.8 466.0,101.4 466.2,103.1 466.5,101.0 466.7,100.3 467.0,99.7 467.2,100.3 467.4,98.8 467.7,98.7 467.9,102.1 468.2,102.5 468.4,107.8 468.6,108.5 468.9,109.8 469.1,115.7 469.4,117.1 469.6,114.8 469.9,119.1 470.1,118.0 470.3,121.5 470.6,119.4 470.8,123.8 471.1,116.9 471.3,119.2 471.5,115.3 471.8,120.6 472.0,121.6 472.3,123.7 472.5,119.7 472.8,117.9 473.0,115.9 473.2,117.5 473.5,117.1 473.7,122.0 474.0,126.3 474.2,123.5 474.4,120.6 474.7,122.2 474.9,123.8 475.2,125.3 475.4,124.7 475.7,121.4 475.9,124.6 476.1,122.9 476.4,125.9 476.6,113.4 476.9,114.7 477.1,116.2 477.3,116.3 477.6,116.5 477.8,118.9 478.1,121.8 478.3,122.1 478.6,122.2 478.8,120.5 479.0,120.1 479.3,118.2 479.5,117.7 479.8,119.2 480.0,121.2 480.2,121.3 480.5,123.1 480.7,123.8 481.0,124.0 481.2,124.7 481.5,128.3 481.7,127.2 481.9,128.1 482.2,137.3 482.4,134.9 482.7,133.9 482.9,132.1 483.1,132.9 483.4,130.0 483.6,133.9 483.9,134.3 484.1,133.8 484.4,133.4 484.6,132.8 484.8,132.0 485.1,128.4 485.3,128.3 485.6,129.9 485.8,128.7 486.0,130.0 486.3,130.7 486.5,132.4 486.8,132.6 487.0,133.5 487.3,132.0 487.5,134.6 487.7,135.1 488.0,133.5 488.2,133.1 488.5,133.9 488.7,133.7 488.9,131.4 489.2,129.1 489.4,122.7 489.7,122.6 489.9,122.1 490.1,123.8 490.4,126.8 490.6,129.5 490.9,133.5 491.1,135.9 491.4,141.6 491.6,137.4 491.8,137.7 492.1,134.9 492.3,133.6 492.6,131.4 492.8,133.2 493.0,135.3 493.3,134.2 493.5,133.9 493.8,131.9 494.0,136.9 494.3,147.4 494.5,151.7 494.7,144.3 495.0,143.2 495.2,144.9 495.5,141.4 495.7,143.3 495.9,141.0 496.2,142.0 496.4,144.0 496.7,144.9 496.9,144.5 497.2,145.2 497.4,147.5 497.6,149.7 497.9,154.2 498.1,161.3 498.4,162.5 498.6,172.5 498.8,174.8 499.1,172.0 499.3,163.0 499.6,165.1 499.8,168.4 500.1,173.4 500.3,170.9 500.5,166.9 500.8,161.7 501.0,162.7 501.3,164.1 501.5,160.2 501.7,163.8 502.0,166.6 502.2,166.0 502.5,168.3 502.7,172.8 503.0,174.8 503.2,176.3 503.4,172.9 503.7,180.7 503.9,181.9 504.2,180.3 504.4,180.9 504.6,186.8 504.9,181.9 505.1,179.8 505.4,184.3 505.6,183.9 505.9,187.6 506.1,192.2 506.3,188.6 506.6,187.7 506.8,176.5 507.1,171.6 507.3,169.5 507.5,170.3 507.8,166.6 508.0,167.1 508.3,166.1 508.5,167.1 508.8,158.7 509.0,158.6 509.2,158.4 509.5,158.2 509.7,159.4 510.0,164.4 510.2,165.0 510.4,164.6 510.7,168.7 510.9,164.3 511.2,170.4 511.4,167.6 511.7,168.8 511.9,174.1 512.1,171.1 512.4,172.8 512.6,169.5 512.9,166.2 513.1,167.1 513.3,167.3 513.6,165.7 513.8,171.6 514.1,188.2 514.3,191.4 514.5,195.2 514.8,198.3 515.0,195.3 515.3,198.6 515.5,200.5 515.8,204.9 516.0,210.6 516.2,211.2 516.5,223.3 516.7,209.3 517.0,207.2 517.2,207.7 517.4,209.0 517.7,207.7 517.9,210.9 518.2,206.0 518.4,210.6 518.7,213.2 518.9,211.1 519.1,219.5 519.4,210.1 519.6,216.1 519.9,215.1 520.1,217.6 520.3,219.8 520.6,223.1 520.8,210.0 521.1,214.9 521.3,213.1 521.6,214.0 521.8,212.2 522.0,205.9 522.3,202.4 522.5,204.1 522.8,199.9 523.0,194.4 523.2,200.7 523.5,200.5 523.7,203.8 524.0,204.7 524.2,201.1 524.5,209.8 524.7,213.1 524.9,214.5 525.2,221.5 525.4,223.5 525.7,219.2 525.9,206.9 526.1,205.3 526.4,210.2 526.6,209.5 526.9,210.9 527.1,219.7 527.4,211.3 527.6,206.1 527.8,208.9 528.1,210.9 528.3,211.3 528.6,206.4 528.8,207.1 529.0,208.4 529.3,214.7 529.5,222.1 529.8,226.1 530.0,227.2 530.3,228.5 530.5,232.1 530.7,229.6 531.0,231.8 531.2,236.4 531.5,238.4 531.7,241.1 531.9,242.8 532.2,237.9 532.4,249.6 532.7,259.3 532.9,274.7 533.2,276.5 533.4,232.4 533.6,238.7 533.9,228.0 534.1,234.3 534.4,219.5 534.6,216.8 534.8,219.3 535.1,222.0 535.3,219.4 535.6,217.4 535.8,217.6 536.1,227.3 536.3,225.5 536.5,216.5 536.8,224.5 537.0,228.8 537.3,233.3 537.5,234.3 537.7,237.1 538.0,239.6 538.2,239.2 538.5,245.7 538.7,246.9 539.0,248.7 539.2,255.0 539.4,260.5 539.7,259.7 539.9,260.8 540.2,263.8 540.4,256.7 540.6,252.7 540.9,243.4 541.1,237.5 541.4,238.7 541.6,237.3 541.8,247.0 542.1,254.0 542.3,262.4 542.6,262.9 542.8,267.7 543.1,268.8 543.3,257.3 543.5,259.7 543.8,251.0 544.0,258.4 544.3,257.8 544.5,259.2 544.7,258.5 545.0,266.4 545.2,266.7 545.5,247.2 545.7,248.8 546.0,244.9 546.2,248.9 546.4,242.8 546.7,249.1 546.9,240.6 547.2,233.3 547.4,214.0 547.6,225.9 547.9,226.0 548.1,241.3 548.4,232.0 548.6,228.3 548.9,237.2 549.1,236.1 549.3,230.5 549.6,232.1 549.8,223.1 550.1,216.3 550.3,215.0 550.5,217.4 550.8,218.3 551.0,221.1 551.3,218.3 551.5,213.4 551.8,214.6 552.0,210.7 552.2,212.5 552.5,226.3 552.7,226.8 553.0,226.9 553.2,234.0 553.4,235.8 553.7,234.9 553.9,232.7 554.2,233.8 554.4,232.2 554.7,238.4 554.9,237.7 555.1,237.2 555.4,235.4 555.6,238.5 555.9,255.1 556.1,253.6 556.3,250.0 556.6,245.4 556.8,242.9 557.1,250.1 557.3,252.8 557.6,252.2 557.8,250.3 558.0,246.7 558.3,246.8 558.5,247.7 558.8,250.0 559.0,254.4 559.2,252.9 559.5,254.7 559.7,254.0 560.0,254.4 560.2,250.2 560.5,239.4 560.7,242.1 560.9,244.1 561.2,248.2 561.4,245.9 561.7,248.4 561.9,251.3 562.1,256.5 562.4,253.1 562.6,254.8 562.9,250.8 563.1,246.9 563.4,254.9 563.6,255.8 563.8,255.9 564.1,259.8 564.3,257.8 564.6,260.8 564.8,267.9 565.0,269.4 565.3,272.8 565.5,272.6 565.8,274.5 566.0,269.0 566.2,272.4 566.5,270.7 566.7,269.9 567.0,263.6 567.2,263.2 567.5,263.3 567.7,268.5 567.9,272.0 568.2,279.1 568.4,278.4 568.7,279.8 568.9,283.6 569.1,276.5 569.4,277.3 569.6,287.0 569.9,285.5 570.1,285.2 570.4,304.0 570.6,303.9 570.8,292.6 571.1,298.2 571.3,302.7 571.6,303.1 571.8,298.1 572.0,300.6 572.3,299.5 572.5,289.9 572.8,290.1 573.0,293.3 573.3,300.3 573.5,290.0 573.7,288.0 574.0,286.9 574.2,271.9 574.5,274.0 574.7,263.4 574.9,269.9 575.2,276.2 575.4,277.9 575.7,273.4 575.9,278.9 576.2,278.2 576.4,270.9 576.6,258.0 576.9,260.6 577.1,254.0 577.4,253.3 577.6,251.8 577.8,256.7 578.1,247.7 578.3,252.0 578.6,255.0 578.8,251.9 579.1,252.7 579.3,260.2 579.5,259.2 579.8,258.6 580.0,260.6 580.3,257.6 580.5,257.3 580.7,261.1 581.0,254.3 581.2,258.5 581.5,255.5 581.7,257.1 582.0,251.0 582.2,233.8 582.4,232.9 582.7,229.2 582.9,224.7 583.2,219.7 583.4,219.5 583.6,221.8 583.9,217.1 584.1,219.3 584.4,221.7 584.6,217.6 584.9,213.7 585.1,214.1 585.3,214.2 585.6,213.2 585.8,212.8 586.1,215.4 586.3,224.3 586.5,225.5 586.8,222.2 587.0,226.1 587.3,230.6 587.5,231.7 587.8,231.7 588.0,232.2 588.2,227.8 588.5,234.2 588.7,232.6 589.0,233.4 589.2,234.9 589.4,234.9 589.7,239.2 589.9,246.3 590.2,246.8 590.4,247.7 590.7,255.7 590.9,255.3 591.1,257.6 591.4,254.2 591.6,254.5 591.9,254.6 592.1,254.7 592.3,256.1 592.6,258.9 592.8,264.9 593.1,265.6 593.3,265.7 593.5,264.1 593.8,268.1 594.0,266.8 594.3,267.8 594.5,268.9 594.8,264.3 595.0,264.4 595.2,259.6 595.5,259.0 595.7,260.3 596.0,241.5 596.2,239.3 596.4,234.5 596.7,236.2 596.9,241.5 597.2,238.2 597.4,241.3 597.7,235.4 597.9,237.1 598.1,239.6 598.4,248.2 598.6,244.7 598.9,247.1 599.1,244.4 599.3,245.7 599.6,248.7 599.8,252.9 600.1,255.5 600.3,259.0 600.6,265.6 600.8,265.8 601.0,263.0 601.3,262.7 601.5,263.5 601.8,268.0 602.0,268.1 602.2,266.4 602.5,265.1 602.7,265.0 603.0,266.8 603.2,265.6 603.5,257.4 603.7,261.6 603.9,256.7 604.2,256.0 604.4,253.0 604.7,260.9 604.9,263.8 605.1,260.3 605.4,265.7 605.6,268.6 605.9,272.9 606.1,269.0 606.4,273.1 606.6,271.5 606.8,265.5 607.1,263.4 607.3,263.1 607.6,259.4 607.8,261.7 608.0,260.3 608.3,261.3 608.5,260.7 608.8,258.0 609.0,255.1 609.3,250.7 609.5,250.8 609.7,257.4 610.0,259.2 610.2,259.0 610.5,262.3 610.7,261.4 610.9,258.7 611.2,262.8 611.4,264.6 611.7,264.9 611.9,263.7 612.2,263.3 612.4,264.1 612.6,253.2 612.9,253.2 613.1,251.3 613.4,248.0 613.6,244.1 613.8,247.1 614.1,248.8 614.3,252.2 614.6,250.8 614.8,251.1 615.1,250.7 615.3,244.5 615.5,246.5 615.8,243.3 616.0,245.8 616.3,238.5 616.5,236.2 616.7,239.1 617.0,246.4 617.2,242.7 617.5,243.7 617.7,244.2 617.9,247.6 618.2,246.7 618.4,240.3 618.7,245.4 618.9,248.8 619.2,251.6 619.4,255.5 619.6,253.1 619.9,257.2 620.1,256.3 620.4,257.1 620.6,254.3 620.8,255.5 621.1,254.4 621.3,250.6 621.6,247.9 621.8,248.5 622.1,249.6 622.3,246.4 622.5,247.0 622.8,247.3 623.0,254.1 623.3,254.0 623.5,256.1 623.7,256.8 624.0,257.8 624.2,257.3 624.5,258.8 624.7,258.8 625.0,258.7 625.2,260.9 625.4,263.6 625.7,256.8 625.9,258.5 626.2,260.6 626.4,260.2 626.6,261.3 626.9,259.3 627.1,259.6 627.4,262.9 627.6,263.7 627.9,264.4 628.1,260.4 628.3,262.4 628.6,258.6 628.8,257.6 629.1,263.0 629.3,263.8 629.5,263.3 629.8,264.0 630.0,265.5 630.3,267.9 630.5,270.8 630.8,269.8 631.0,265.7 631.2,268.9 631.5,266.3 631.7,265.8 632.0,265.3 632.2,266.3 632.4,266.4 632.7,264.8 632.9,261.6 633.2,261.5 633.4,261.5 633.7,262.5 633.9,266.0 634.1,265.9 634.4,266.8 634.6,264.0 634.9,258.8 635.1,272.3 635.3,275.0 635.6,273.4 635.8,272.6 636.1,272.5 636.3,273.4 636.6,275.1 636.8,276.6 637.0,280.4 637.3,280.0 637.5,281.7 637.8,283.5 638.0,284.8 638.2,286.6 638.5,284.9 638.7,285.3 639.0,286.8 639.2,286.8 639.5,286.6 639.7,284.6 639.9,280.7 640.2,282.0 640.4,279.1 640.7,281.0 640.9,275.5 641.1,277.4 641.4,276.3 641.6,275.8 641.9,273.7 642.1,273.2 642.3,278.3 642.6,274.9 642.8,278.5 643.1,281.7 643.3,281.9 643.6,283.6 643.8,284.8 644.0,282.9 644.3,284.0 644.5,288.7 644.8,289.8 645.0,291.6 645.2,288.8 645.5,290.4 645.7,279.7 646.0,277.5 646.2,280.1 646.5,279.8 646.7,280.6 646.9,283.0 647.2,283.3 647.4,282.7 647.7,283.9 647.9,278.6 648.1,271.9 648.4,280.5 648.6,286.1 648.9,283.6 649.1,281.4 649.4,284.4 649.6,280.9 649.8,280.1 650.1,280.0 650.3,281.4 650.6,276.8 650.8,275.8 651.0,276.1 651.3,275.1 651.5,272.9 651.8,278.7 652.0,279.7 652.3,278.6 652.5,283.6 652.7,283.5 653.0,280.3 653.2,282.6 653.5,280.6 653.7,278.1 653.9,275.9 654.2,275.3 654.4,280.9 654.7,280.9 654.9,280.7 655.2,280.9 655.4,279.4 655.6,280.1 655.9,283.4 656.1,284.7 656.4,284.7 656.6,284.4 656.8,282.9 657.1,281.0 657.3,281.9 657.6,282.8 657.8,283.7 658.1,284.3 658.3,284.2 658.5,281.7 658.8,278.7 659.0,278.2 659.3,285.0 659.5,286.4 659.7,288.4 660.0,290.0 660.2,289.9 660.5,289.5 660.7,286.3 661.0,282.6 661.2,278.6 661.4,277.7 661.7,276.9 661.9,275.3 662.2,278.2 662.4,276.9 662.6,268.2 662.9,266.5 663.1,266.1 663.4,269.9 663.6,271.5 663.9,269.7 664.1,268.7 664.3,260.9 664.6,269.7 664.8,267.1 665.1,257.4 665.3,254.5 665.5,254.9 665.8,258.4 666.0,264.1 666.3,267.4 666.5,266.6 666.8,267.8 667.0,270.5 667.2,269.4 667.5,271.7 667.7,272.5 668.0,271.5 668.2,269.1 668.4,268.8 668.7,271.6 668.9,270.0 669.2,272.5 669.4,272.3 669.6,273.6 669.9,278.0 670.1,275.7 670.4,275.8 670.6,276.1 670.9,277.3 671.1,275.2 671.3,277.1 671.6,276.4 671.8,279.9 672.1,280.6 672.3,280.2 672.5,277.3 672.8,273.8 673.0,275.7 673.3,277.7 673.5,273.5 673.8,272.9 674.0,268.4 674.2,266.3 674.5,269.3 674.7,268.6 675.0,271.0 675.2,272.0 675.4,274.3 675.7,271.8 675.9,272.8 676.2,273.3 676.4,274.1 676.7,272.0 676.9,268.2 677.1,269.3 677.4,267.8 677.6,269.3 677.9,270.3 678.1,271.2 678.3,269.5 678.6,269.6 678.8,265.2 679.1,265.7 679.3,264.1 679.6,263.8 679.8,266.7 680.0,266.5 680.3,260.2 680.5,259.0 680.8,263.9 681.0,259.6 681.2,260.6 681.5,256.5 681.7,262.7 682.0,263.2 682.2,266.4 682.5,263.9 682.7,260.0 682.9,261.8 683.2,261.4 683.4,261.5 683.7,263.7 683.9,263.2 684.1,259.2 684.4,257.5 684.6,256.4 684.9,257.7 685.1,259.5 685.4,257.7 685.6,258.1 685.8,251.5 686.1,251.8 686.3,249.0 686.6,238.3 686.8,240.8 687.0,227.3 687.3,224.3 687.5,225.9 687.8,217.3 688.0,214.2 688.3,217.2 688.5,215.1 688.7,211.5 689.0,221.2 689.2,223.5 689.5,221.7 689.7,220.6 689.9,223.7 690.2,231.7 690.4,231.2 690.7,234.2 690.9,230.9 691.2,233.0 691.4,233.6 691.6,237.1 691.9,239.5 692.1,237.9 692.4,234.4 692.6,234.5 692.8,236.1 693.1,237.1 693.3,237.7 693.6,236.5 693.8,235.4 694.0,238.9 694.3,234.1 694.5,242.7 694.8,240.9 695.0,246.4 695.3,246.0 695.5,248.2 695.7,251.3 696.0,250.1 696.2,253.7 696.5,254.3 696.7,256.2 696.9,260.3 697.2,256.2 697.4,256.9 697.7,254.6 697.9,253.3 698.2,255.6 698.4,256.1 698.6,257.3 698.9,258.6 699.1,255.6 699.4,245.5 699.6,249.4 699.8,250.7 700.1,250.3 700.3,252.6 700.6,255.4 700.8,253.7 701.1,257.2 701.3,258.3 701.5,261.8 701.8,256.9 702.0,256.3 702.3,255.4 702.5,257.1 702.7,258.6 703.0,257.5 703.2,257.3 703.5,256.3 703.7,256.3 704.0,258.0 704.2,259.4 704.4,264.8 704.7,264.8 704.9,262.8 705.2,261.5 705.4,261.5 705.6,257.0 705.9,256.5 706.1,254.9 706.4,255.4 706.6,250.5 706.9,249.1 707.1,240.0 707.3,239.0 707.6,230.4 707.8,235.9 708.1,236.2 708.3,231.0 708.5,235.3 708.8,233.7 709.0,229.4 709.3,219.1 709.5,217.3 709.8,210.5 710.0,209.1 710.2,203.1 710.5,200.7 710.7,201.9 711.0,190.9 711.2,183.1 711.4,198.3 711.7,193.0 711.9,187.7 712.2,190.3 712.4,194.6 712.7,196.4 712.9,197.4 713.1,185.8 713.4,186.9 713.6,186.2 713.9,194.5 714.1,187.8 714.3,189.7 714.6,188.5 714.8,185.7 715.1,179.4 715.3,184.1 715.6,183.6 715.8,190.0 716.0,191.8 716.3,192.5 716.5,194.3 716.8,194.8 717.0,191.3 717.2,194.6 717.5,194.9 717.7,194.4 718.0,197.5 718.2,198.0 718.5,212.7 718.7,226.1 718.9,235.1 719.2,227.7 719.4,228.5 719.7,223.8 719.9,215.8 720.1,217.9 720.4,225.0 720.6,222.3 720.9,220.6 721.1,213.5 721.3,209.8 721.6,209.4 721.8,208.2 722.1,210.5 722.3,209.9 722.6,209.2 722.8,207.9 723.0,201.9 723.3,201.0 723.5,199.8 723.8,204.8 724.0,201.9 724.2,202.4 724.5,194.5 724.7,195.5 725.0,192.9 725.2,204.0 725.5,204.5 725.7,205.1 725.9,202.6 726.2,204.4 726.4,206.8 726.7,207.7 726.9,209.1 727.1,212.4 727.4,211.9 727.6,216.0 727.9,214.9 728.1,214.6 728.4,209.2 728.6,208.6 728.8,209.3 729.1,206.8 729.3,206.4 729.6,208.2 729.8,210.2 730.0,214.8 730.3,211.0 730.5,212.1 730.8,214.0 731.0,214.6 731.3,214.5 731.5,209.7 731.7,212.7 732.0,213.5 732.2,213.3 732.5,214.1 732.7,213.4 732.9,217.5 733.2,220.1 733.4,223.3 733.7,221.0 733.9,226.6 734.2,222.8 734.4,222.7 734.6,220.7 734.9,209.8 735.1,211.3 735.4,209.4 735.6,205.9 735.8,205.8 736.1,205.3 736.3,203.1 736.6,204.8 736.8,206.1 737.1,203.6 737.3,206.9 737.5,209.3 737.8,205.4 738.0,209.6 738.3,209.1 738.5,209.7 738.7,205.1 739.0,205.0 739.2,205.7 739.5,207.8 739.7,203.3 740.0,198.3 740.2,203.5 740.4,204.7 740.7,204.5 740.9,206.2 741.2,206.7 741.4,208.4 741.6,202.7 741.9,201.1 742.1,201.3 742.4,203.6 742.6,206.7 742.9,189.5 743.1,185.9 743.3,188.0 743.6,193.9 743.8,188.9 744.1,183.2 744.3,177.4 744.5,180.5 744.8,169.7 745.0,170.0 745.3,167.3 745.5,163.6 745.7,160.2 746.0,163.4 746.2,163.1 746.5,161.9 746.7,162.9 747.0,151.8 747.2,152.6 747.4,155.5 747.7,149.0 747.9,150.0 748.2,146.8 748.4,141.8 748.6,142.8 748.9,143.4 749.1,147.9 749.4,148.1 749.6,154.0 749.9,166.5 750.1,159.7 750.3,163.1 750.6,160.5 750.8,161.2 751.1,159.5 751.3,154.2 751.5,159.8 751.8,160.5 752.0,155.5 752.3,153.2 752.5,149.4 752.8,151.6 753.0,149.0 753.2,153.8 753.5,156.7 753.7,159.0 754.0,161.8 754.2,161.4 754.4,159.0 754.7,160.1 754.9,160.5 755.2,164.9 755.4,167.4 755.7,165.7 755.9,171.2 756.1,167.6 756.4,165.8 756.6,166.6 756.9,171.6 757.1,172.0 757.3,164.9 757.6,168.2 757.8,167.7 758.1,168.0 758.3,161.9 758.6,164.6 758.8,167.3 759.0,167.9 759.3,167.1 759.5,167.2 759.8,169.2 760.0,166.6 760.2,168.3 760.5,169.4 760.7,174.6 761.0,175.3 761.2,177.4 761.5,177.2 761.7,174.9 761.9,173.8 762.2,173.5 762.4,174.6 762.7,172.6 762.9,176.1 763.1,177.2 763.4,177.9 763.6,169.4 763.9,168.9 764.1,173.8 764.4,177.8 764.6,170.5 764.8,173.8 765.1,160.1 765.3,159.5 765.6,157.1 765.8,156.3 766.0,160.9 766.3,163.5 766.5,158.1 766.8,151.2 767.0,154.4 767.3,155.9 767.5,154.8 767.7,152.4 768.0,153.5 768.2,157.4 768.5,158.4 768.7,162.4 768.9,166.3 769.2,167.6 769.4,163.4 769.7,163.0 769.9,160.0 770.2,161.8 770.4,166.7 770.6,169.4 770.9,169.7 771.1,169.4 771.4,170.7 771.6,170.6 771.8,172.1 772.1,171.8 772.3,172.6 772.6,176.5 772.8,180.3 773.0,181.9 773.3,188.9 773.5,191.4 773.8,194.5 774.0,194.0 774.3,192.0 774.5,187.6 774.7,188.2 775.0,190.4 775.2,189.3 775.5,187.8 775.7,187.9 775.9,190.1 776.2,200.5 776.4,203.3 776.7,199.2 776.9,199.9 777.2,195.0 777.4,199.9 777.6,203.0 777.9,203.8 778.1,199.9 778.4,201.8 778.6,203.8 778.8,203.5 779.1,206.5 779.3,200.0 779.6,197.4 779.8,197.8 780.1,197.0 780.3,193.4 780.5,191.3 780.8,185.8 781.0,183.4 781.3,184.2 781.5,189.1 781.7,188.1 782.0,193.0 782.2,188.7 782.5,192.2 782.7,193.9 783.0,194.4 783.2,192.8 783.4,193.2 783.7,191.4 783.9,192.4 784.2,183.0 784.4,183.4 784.6,184.3 784.9,187.2 785.1,189.8 785.4,178.7 785.6,183.3 785.9,192.1 786.1,191.4 786.3,188.9 786.6,190.1 786.8,193.3 787.1,194.9 787.3,195.4 787.5,197.3 787.8,199.1 788.0,201.3 788.3,199.9 788.5,194.0 788.8,197.9 789.0,199.3 789.2,204.9 789.5,206.1 789.7,206.5 790.0,211.7 790.2,213.7 790.4,213.5 790.7,213.9 790.9,215.9 791.2,220.4 791.4,220.9 791.7,223.7 791.9,226.9 792.1,230.8 792.4,237.7 792.6,238.1 792.9,237.0 793.1,236.3 793.3,233.4 793.6,236.1 793.8,233.5 794.1,233.2 794.3,218.4 794.6,215.7 794.8,214.2 795.0,214.1 795.3,214.2 795.5,207.6 795.8,207.8 796.0,210.1"/>
<text x="78" y="392" font-size="11" fill="#16a34a">Total return +30.9%</text><text x="268" y="392" font-size="11" fill="#2563eb">Price-only +23.1%</text><text x="78" y="362" font-size="11" text-anchor="middle" fill="#64748b">2014-09</text><text x="258" y="362" font-size="11" text-anchor="middle" fill="#64748b">2017-08</text><text x="437" y="362" font-size="11" text-anchor="middle" fill="#64748b">2020-08</text><text x="616" y="362" font-size="11" text-anchor="middle" fill="#64748b">2023-07</text><text x="796" y="362" font-size="11" text-anchor="middle" fill="#64748b">2026-07</text></svg>