<svg xmlns="http://www.w3.org/2000/svg" width="720" height="360" viewBox="0 0 720 360">
  <rect width="720" height="360" fill="#fafafa"/>
  <text x="56" y="22" font-size="13" font-family="sans-serif" fill="#222">CSGP total return (rebased 100) · cumulative distributions $0.00/sh · market cap n/a</text>
  <line x1="56" y1="308" x2="696" y2="308" stroke="#ccc"/>
  <line x1="56" y1="48" x2="56" y2="308" stroke="#ccc"/>
  <polyline fill="none" stroke="#2563eb" stroke-width="2" points="56.0,285.8 58.7,286.5 61.4,286.3 64.0,284.9 66.7,284.4 69.4,283.4 72.1,284.8 74.7,285.0 77.4,285.5 80.1,284.5 82.8,283.2 85.5,283.5 88.1,284.0 90.8,283.0 93.5,283.4 96.2,282.4 98.8,284.7 101.5,284.9 104.2,286.1 106.9,286.3 109.6,285.9 112.2,284.7 114.9,285.0 117.6,285.6 120.3,284.3 122.9,283.6 125.6,285.3 128.3,287.6 131.0,288.4 133.7,288.3 136.3,289.1 139.0,290.1 141.7,288.9 144.4,287.3 147.0,287.7 149.7,286.6 152.4,287.4 155.1,287.1 157.8,286.3 160.4,286.9 163.1,286.7 165.8,286.2 168.5,286.5 171.1,286.8 173.8,286.3 176.5,285.7 179.2,286.4 181.9,286.9 184.5,285.7 187.2,286.3 189.9,284.5 192.6,284.3 195.2,283.6 197.9,282.4 200.6,282.7 203.3,282.6 206.0,281.2 208.6,279.9 211.3,281.1 214.0,282.0 216.7,282.1 219.3,283.9 222.0,283.8 224.7,281.5 227.4,280.3 230.1,280.2 232.7,282.6 235.4,281.9 238.1,279.7 240.8,278.8 243.4,278.5 246.1,276.8 248.8,276.5 251.5,276.8 254.2,276.7 256.8,276.4 259.5,275.4 262.2,274.8 264.9,273.8 267.5,272.1 270.2,270.1 272.9,270.3 275.6,269.5 278.3,265.4 280.9,258.8 283.6,260.8 286.3,256.1 289.0,254.0 291.6,251.8 294.3,252.2 297.0,255.1 299.7,248.2 302.4,251.6 305.0,257.8 307.7,258.4 310.4,258.5 313.1,261.9 315.7,261.6 318.4,259.1 321.1,257.8 323.8,255.6 326.5,252.4 329.1,252.2 331.8,248.7 334.5,249.0 337.2,247.4 339.8,246.4 342.5,248.2 345.2,248.2 347.9,254.0 350.6,254.9 353.2,247.8 355.9,246.3 358.6,246.9 361.3,254.4 363.9,253.9 366.6,251.3 369.3,249.1 372.0,246.9 374.7,244.0 377.3,246.6 380.0,246.8 382.7,244.5 385.4,251.6 388.1,250.6 390.7,251.2 393.4,248.0 396.1,247.7 398.8,246.8 401.4,238.7 404.1,233.8 406.8,233.3 409.5,230.5 412.2,227.8 414.8,232.2 417.5,225.7 420.2,223.5 422.9,225.4 425.5,213.7 428.2,214.6 430.9,209.7 433.6,208.8 436.3,205.3 438.9,197.8 441.6,197.0 444.3,190.8 447.0,195.9 449.6,210.0 452.3,208.1 455.0,215.8 457.7,203.0 460.4,187.1 463.0,185.0 465.7,177.9 468.4,174.7 471.1,164.1 473.7,149.5 476.4,149.6 479.1,154.8 481.8,165.2 484.5,150.1 487.1,153.6 489.8,140.5 492.5,137.0 495.2,156.2 497.8,141.7 500.5,139.6 503.2,126.8 505.9,93.6 508.6,93.9 511.2,93.9 513.9,99.9 516.6,79.1 519.3,75.9 521.9,81.7 524.6,99.8 527.3,100.3 530.0,92.5 532.7,92.6 535.3,98.8 538.0,84.4 540.7,94.2 543.4,91.0 546.0,91.1 548.7,110.8 551.4,107.8 554.1,128.9 556.8,150.7 559.4,137.4 562.1,144.5 564.8,150.9 567.5,152.2 570.1,123.2 572.8,130.2 575.5,130.2 578.2,99.0 580.9,103.0 583.5,112.0 586.2,110.5 588.9,127.8 591.6,132.1 594.2,112.8 596.9,106.9 599.6,84.0 602.3,96.0 605.0,100.7 607.6,112.9 610.3,121.2 613.0,98.2 615.7,87.9 618.3,97.2 621.0,88.7 623.7,65.9 626.4,78.0 629.1,109.9 631.7,119.5 634.4,110.2 637.1,111.9 639.8,116.4 642.4,122.7 645.1,102.3 647.8,125.5 650.5,113.6 653.2,114.4 655.8,107.3 658.5,119.4 661.2,120.8 663.9,104.5 666.5,69.3 669.2,82.9 671.9,95.1 674.6,132.2 677.3,132.2 679.9,135.9 682.6,149.6 685.3,189.8 688.0,200.0 690.6,213.7 693.3,219.4 696.0,218.0"/>
  <polyline fill="none" stroke="#16a34a" stroke-width="2" points="56.0,285.8 58.7,286.5 61.4,286.3 64.0,284.9 66.7,284.4 69.4,283.4 72.1,284.8 74.7,285.0 77.4,285.5 80.1,284.5 82.8,283.2 85.5,283.5 88.1,284.0 90.8,283.0 93.5,283.4 96.2,282.4 98.8,284.7 101.5,284.9 104.2,286.1 106.9,286.3 109.6,285.9 112.2,284.7 114.9,285.0 117.6,285.6 120.3,284.3 122.9,283.6 125.6,285.3 128.3,287.6 131.0,288.4 133.7,288.3 136.3,289.1 139.0,290.1 141.7,288.9 144.4,287.3 147.0,287.7 149.7,286.6 152.4,287.4 155.1,287.1 157.8,286.3 160.4,286.9 163.1,286.7 165.8,286.2 168.5,286.5 171.1,286.8 173.8,286.3 176.5,285.7 179.2,286.4 181.9,286.9 184.5,285.7 187.2,286.3 189.9,284.5 192.6,284.3 195.2,283.6 197.9,282.4 200.6,282.7 203.3,282.6 206.0,281.2 208.6,279.9 211.3,281.1 214.0,282.0 216.7,282.1 219.3,283.9 222.0,283.8 224.7,281.5 227.4,280.3 230.1,280.2 232.7,282.6 235.4,281.9 238.1,279.7 240.8,278.8 243.4,278.5 246.1,276.8 248.8,276.5 251.5,276.8 254.2,276.7 256.8,276.4 259.5,275.4 262.2,274.8 264.9,273.8 267.5,272.1 270.2,270.1 272.9,270.3 275.6,269.5 278.3,265.4 280.9,258.8 283.6,260.8 286.3,256.1 289.0,254.0 291.6,251.8 294.3,252.2 297.0,255.1 299.7,248.2 302.4,251.6 305.0,257.8 307.7,258.4 310.4,258.5 313.1,261.9 315.7,261.6 318.4,259.1 321.1,257.8 323.8,255.6 326.5,252.4 329.1,252.2 331.8,248.7 334.5,249.0 337.2,247.4 339.8,246.4 342.5,248.2 345.2,248.2 347.9,254.0 350.6,254.9 353.2,247.8 355.9,246.3 358.6,246.9 361.3,254.4 363.9,253.9 366.6,251.3 369.3,249.1 372.0,246.9 374.7,244.0 377.3,246.6 380.0,246.8 382.7,244.5 385.4,251.6 388.1,250.6 390.7,251.2 393.4,248.0 396.1,247.7 398.8,246.8 401.4,238.7 404.1,233.8 406.8,233.3 409.5,230.5 412.2,227.8 414.8,232.2 417.5,225.7 420.2,223.5 422.9,225.4 425.5,213.7 428.2,214.6 430.9,209.7 433.6,208.8 436.3,205.3 438.9,197.8 441.6,197.0 444.3,190.8 447.0,195.9 449.6,210.0 452.3,208.1 455.0,215.8 457.7,203.0 460.4,187.1 463.0,185.0 465.7,177.9 468.4,174.7 471.1,164.1 473.7,149.5 476.4,149.6 479.1,154.8 481.8,165.2 484.5,150.1 487.1,153.6 489.8,140.5 492.5,137.0 495.2,156.2 497.8,141.7 500.5,139.6 503.2,126.8 505.9,93.6 508.6,93.9 511.2,93.9 513.9,99.9 516.6,79.1 519.3,75.9 521.9,81.7 524.6,99.8 527.3,100.3 530.0,92.5 532.7,92.6 535.3,98.8 538.0,84.4 540.7,94.2 543.4,91.0 546.0,91.1 548.7,110.8 551.4,107.8 554.1,128.9 556.8,150.7 559.4,137.4 562.1,144.5 564.8,150.9 567.5,152.2 570.1,123.2 572.8,130.2 575.5,130.2 578.2,99.0 580.9,103.0 583.5,112.0 586.2,110.5 588.9,127.8 591.6,132.1 594.2,112.8 596.9,106.9 599.6,84.0 602.3,96.0 605.0,100.7 607.6,112.9 610.3,121.2 613.0,98.2 615.7,87.9 618.3,97.2 621.0,88.7 623.7,65.9 626.4,78.0 629.1,109.9 631.7,119.5 634.4,110.2 637.1,111.9 639.8,116.4 642.4,122.7 645.1,102.3 647.8,125.5 650.5,113.6 653.2,114.4 655.8,107.3 658.5,119.4 661.2,120.8 663.9,104.5 666.5,69.3 669.2,82.9 671.9,95.1 674.6,132.2 677.3,132.2 679.9,135.9 682.6,149.6 685.3,189.8 688.0,200.0 690.6,213.7 693.3,219.4 696.0,218.0"/>
  <text x="60" y="62" font-size="11" fill="#2563eb">Price index</text>
  <text x="146" y="62" font-size="11" fill="#16a34a">Total return (price + distributions)</text>
  <text x="56" y="348" font-size="11" text-anchor="middle" fill="#444">2006-07</text><text x="217" y="348" font-size="11" text-anchor="middle" fill="#444">2011-07</text><text x="377" y="348" font-size="11" text-anchor="middle" fill="#444">2016-07</text><text x="538" y="348" font-size="11" text-anchor="middle" fill="#444">2021-07</text><text x="696" y="348" font-size="11" text-anchor="middle" fill="#444">2026-06</text>
</svg>
