<svg xmlns="http://www.w3.org/2000/svg" width="720" height="360" viewBox="0 0 720 360">
  <rect width="720" height="360" fill="#fafafa"/>
  <text x="56" y="22" font-size="13" font-family="sans-serif" fill="#222">AMCR total return (rebased 100) · cumulative distributions $0.00/sh · market cap n/a</text>
  <line x1="56" y1="308" x2="696" y2="308" stroke="#ccc"/>
  <line x1="56" y1="48" x2="56" y2="308" stroke="#ccc"/>
  <polyline fill="none" stroke="#2563eb" stroke-width="2" points="56.0,238.0 56.2,238.0 56.4,238.0 56.5,238.0 56.7,238.0 56.9,238.0 57.1,238.0 57.3,238.0 57.4,238.0 57.6,238.0 57.8,238.0 58.0,238.0 58.2,238.0 58.3,238.0 58.5,238.0 58.7,238.0 58.9,247.0 59.1,247.0 59.2,247.0 59.4,247.0 59.6,247.0 59.8,247.0 60.0,247.0 60.1,247.0 60.3,247.0 60.5,247.0 60.7,247.0 60.9,247.0 61.0,247.0 61.2,247.0 61.4,247.0 61.6,247.0 61.8,247.0 61.9,247.0 62.1,247.0 62.3,247.0 62.5,247.0 62.7,247.0 62.8,247.0 63.0,247.0 63.2,247.0 63.4,247.0 63.6,247.0 63.7,247.0 63.9,247.0 64.1,247.0 64.3,247.0 64.5,247.0 64.6,247.0 64.8,247.0 65.0,247.0 65.2,247.0 65.4,247.0 65.5,247.0 65.7,247.0 65.9,247.0 66.1,247.0 66.3,247.0 66.4,247.0 66.6,247.0 66.8,247.0 67.0,247.0 67.2,247.0 67.3,247.0 67.5,247.0 67.7,247.0 67.9,235.1 68.1,235.1 68.2,235.1 68.4,235.1 68.6,236.9 68.8,236.9 69.0,236.9 69.1,242.5 69.3,242.5 69.5,242.5 69.7,242.5 69.9,242.5 70.0,242.5 70.2,242.5 70.4,242.5 70.6,242.5 70.8,242.5 70.9,242.5 71.1,242.5 71.3,242.5 71.5,242.5 71.7,242.5 71.8,242.5 72.0,242.5 72.2,242.5 72.4,242.5 72.6,242.5 72.7,242.5 72.9,242.5 73.1,242.5 73.3,242.5 73.5,242.5 73.6,242.5 73.8,242.5 74.0,242.5 74.2,242.5 74.4,242.5 74.5,242.5 74.7,242.5 74.9,242.5 75.1,230.6 75.3,230.6 75.4,230.6 75.6,230.6 75.8,230.6 76.0,230.6 76.2,230.6 76.3,230.6 76.5,230.6 76.7,230.6 76.9,230.6 77.1,232.1 77.2,232.1 77.4,232.1 77.6,232.1 77.8,232.1 78.0,232.1 78.1,232.1 78.3,232.1 78.5,232.1 78.7,232.1 78.9,232.1 79.0,232.1 79.2,232.1 79.4,232.1 79.6,232.1 79.8,232.1 79.9,232.1 80.1,224.4 80.3,224.4 80.5,224.4 80.7,223.2 80.8,223.2 81.0,223.2 81.2,223.2 81.4,223.2 81.6,223.2 81.7,223.2 81.9,223.2 82.1,223.2 82.3,223.2 82.5,223.2 82.6,223.2 82.8,218.1 83.0,218.1 83.2,218.1 83.4,218.1 83.5,218.1 83.7,218.1 83.9,218.1 84.1,218.1 84.3,218.1 84.4,218.1 84.6,218.1 84.8,218.1 85.0,209.5 85.2,209.5 85.3,209.5 85.5,209.5 85.7,209.5 85.9,209.5 86.1,197.3 86.2,194.9 86.4,194.9 86.6,194.9 86.8,194.9 87.0,204.2 87.1,204.2 87.3,206.5 87.5,207.4 87.7,203.3 87.9,203.3 88.0,204.2 88.2,204.2 88.4,204.2 88.6,202.4 88.8,199.4 88.9,199.4 89.1,199.4 89.3,198.2 89.5,198.2 89.7,184.5 89.8,184.5 90.0,184.5 90.2,187.5 90.4,168.5 90.6,181.9 90.7,181.9 90.9,181.3 91.1,184.5 91.3,182.8 91.5,182.8 91.6,197.6 91.8,203.6 92.0,198.2 92.2,192.9 92.4,192.9 92.5,189.6 92.7,179.8 92.9,173.5 93.1,184.5 93.3,179.2 93.4,179.2 93.6,179.2 93.8,194.9 94.0,181.3 94.2,184.2 94.3,184.2 94.5,181.3 94.7,184.2 94.9,179.8 95.1,176.8 95.2,182.8 95.4,171.2 95.6,171.2 95.8,171.2 96.0,171.2 96.1,176.2 96.3,177.1 96.5,167.0 96.7,159.3 96.9,162.2 97.0,162.2 97.2,174.1 97.4,174.1 97.6,174.1 97.8,180.1 97.9,180.1 98.1,182.5 98.3,164.9 98.5,163.7 98.7,163.7 98.8,170.0 99.0,168.2 99.2,163.7 99.4,163.7 99.6,163.7 99.7,163.7 99.9,172.6 100.1,173.2 100.3,174.1 100.5,171.2 100.6,171.2 100.8,161.1 101.0,170.0 101.2,170.0 101.4,180.7 101.5,180.7 101.7,182.5 101.9,182.5 102.1,173.5 102.3,173.5 102.4,180.1 102.6,180.1 102.8,174.4 103.0,181.3 103.2,181.3 103.3,190.5 103.5,190.5 103.7,197.3 103.9,197.3 104.1,196.4 104.2,196.4 104.4,192.9 104.6,192.9 104.8,192.9 105.0,192.9 105.1,192.9 105.3,192.9 105.5,205.3 105.7,205.3 105.9,194.3 106.0,186.6 106.2,186.6 106.4,186.6 106.6,194.1 106.8,192.3 106.9,188.7 107.1,188.7 107.3,188.7 107.5,188.7 107.7,188.7 107.8,188.7 108.0,176.2 108.2,176.2 108.4,176.2 108.6,169.7 108.7,170.3 108.9,170.3 109.1,170.3 109.3,170.3 109.5,184.5 109.6,184.5 109.8,185.4 110.0,185.4 110.2,183.6 110.4,183.6 110.5,181.6 110.7,181.6 110.9,181.6 111.1,177.1 111.3,177.1 111.4,177.1 111.6,178.9 111.8,178.9 112.0,178.9 112.2,178.9 112.3,171.2 112.5,171.2 112.7,171.2 112.9,184.5 113.1,181.6 113.2,177.1 113.4,177.1 113.6,177.1 113.8,177.1 114.0,177.1 114.1,189.0 114.3,188.4 114.5,187.5 114.7,187.5 114.9,187.5 115.0,187.5 115.2,173.8 115.4,173.2 115.6,173.2 115.8,167.9 115.9,167.9 116.1,167.9 116.3,167.9 116.5,159.6 116.7,159.6 116.8,170.3 117.0,171.8 117.2,171.8 117.4,180.7 117.6,180.7 117.7,180.7 117.9,180.7 118.1,174.1 118.3,176.5 118.5,172.9 118.6,173.8 118.8,170.3 119.0,170.3 119.2,174.4 119.4,174.4 119.5,181.6 119.7,181.6 119.9,181.6 120.1,181.6 120.3,168.2 120.4,163.7 120.6,166.4 120.8,156.3 121.0,156.3 121.2,156.3 121.3,157.8 121.5,160.8 121.7,160.8 121.9,170.6 122.1,160.8 122.2,160.8 122.4,160.8 122.6,160.8 122.8,159.6 123.0,156.9 123.1,159.3 123.3,162.8 123.5,162.8 123.7,157.8 123.9,162.8 124.0,162.8 124.2,162.8 124.4,153.0 124.6,154.2 124.8,156.6 124.9,156.6 125.1,164.9 125.3,161.4 125.5,164.3 125.7,164.3 125.8,165.2 126.0,169.1 126.2,169.1 126.4,169.7 126.6,169.7 126.7,163.7 126.9,166.4 127.1,166.4 127.3,163.4 127.5,163.4 127.6,164.3 127.8,157.8 128.0,160.8 128.2,191.1 128.4,189.9 128.5,188.4 128.7,185.1 128.9,185.1 129.1,186.0 129.3,186.0 129.4,190.5 129.6,190.5 129.8,183.9 130.0,186.6 130.2,186.6 130.3,186.0 130.5,184.8 130.7,186.3 130.9,186.9 131.1,186.9 131.2,193.8 131.4,193.8 131.6,198.8 131.8,192.0 132.0,192.0 132.1,191.7 132.3,186.9 132.5,186.9 132.7,186.9 132.9,196.4 133.0,189.3 133.2,190.5 133.4,189.9 133.6,189.9 133.8,189.9 133.9,191.7 134.1,191.7 134.3,186.6 134.5,183.9 134.7,183.9 134.8,174.4 135.0,174.4 135.2,174.4 135.4,174.4 135.6,174.4 135.7,175.6 135.9,181.9 136.1,181.9 136.3,181.9 136.4,181.9 136.6,181.9 136.8,181.9 137.0,181.9 137.2,191.7 137.3,191.7 137.5,191.7 137.7,194.9 137.9,194.9 138.1,194.9 138.2,194.9 138.4,194.9 138.6,194.9 138.8,194.9 139.0,194.9 139.1,194.9 139.3,194.9 139.5,194.9 139.7,194.9 139.9,194.9 140.0,194.9 140.2,194.9 140.4,194.9 140.6,194.9 140.8,194.9 140.9,194.9 141.1,194.9 141.3,187.2 141.5,187.2 141.7,187.2 141.8,187.2 142.0,187.2 142.2,187.2 142.4,187.2 142.6,187.2 142.7,187.2 142.9,187.2 143.1,187.2 143.3,184.8 143.5,184.8 143.6,184.8 143.8,184.8 144.0,184.8 144.2,184.8 144.4,184.8 144.5,184.8 144.7,184.8 144.9,184.8 145.1,181.6 145.3,181.6 145.4,181.6 145.6,181.6 145.8,181.6 146.0,181.6 146.2,175.6 146.3,175.6 146.5,178.6 146.7,178.6 146.9,178.6 147.1,178.6 147.2,178.6 147.4,178.6 147.6,178.6 147.8,178.6 148.0,178.6 148.1,178.6 148.3,178.6 148.5,178.6 148.7,178.6 148.9,178.6 149.0,178.6 149.2,178.6 149.4,178.6 149.6,178.6 149.8,178.6 149.9,178.6 150.1,178.6 150.3,178.6 150.5,178.6 150.7,178.6 150.8,178.6 151.0,174.1 151.2,174.1 151.4,174.1 151.6,174.1 151.7,174.1 151.9,174.1 152.1,174.1 152.3,174.1 152.5,174.1 152.6,174.1 152.8,174.1 153.0,174.1 153.2,174.1 153.4,174.1 153.5,177.4 153.7,177.4 153.9,177.4 154.1,184.2 154.3,184.2 154.4,184.2 154.6,184.2 154.8,184.2 155.0,184.2 155.2,184.2 155.3,184.2 155.5,184.2 155.7,184.2 155.9,184.2 156.1,184.2 156.2,184.2 156.4,184.2 156.6,184.2 156.8,184.2 157.0,184.2 157.1,184.2 157.3,184.2 157.5,184.2 157.7,184.2 157.9,184.2 158.0,184.2 158.2,184.2 158.4,184.2 158.6,184.2 158.8,184.2 158.9,184.2 159.1,184.2 159.3,184.2 159.5,184.2 159.7,184.2 159.8,184.2 160.0,184.2 160.2,184.2 160.4,184.2 160.6,161.4 160.7,161.4 160.9,161.4 161.1,161.4 161.3,161.4 161.5,161.4 161.6,161.4 161.8,161.4 162.0,161.4 162.2,161.4 162.4,161.4 162.5,161.4 162.7,161.4 162.9,161.4 163.1,161.4 163.3,161.4 163.4,161.4 163.6,161.4 163.8,161.4 164.0,161.4 164.2,161.4 164.3,161.4 164.5,161.4 164.7,174.4 164.9,174.4 165.1,174.4 165.2,174.4 165.4,174.4 165.6,174.4 165.8,174.4 166.0,174.4 166.1,174.4 166.3,174.4 166.5,174.4 166.7,174.4 166.9,174.4 167.0,174.4 167.2,174.4 167.4,174.4 167.6,174.4 167.8,174.4 167.9,174.4 168.1,167.0 168.3,159.6 168.5,159.6 168.7,159.6 168.8,156.9 169.0,156.9 169.2,156.9 169.4,156.9 169.6,156.9 169.7,156.9 169.9,156.9 170.1,156.9 170.3,156.9 170.5,156.9 170.6,156.9 170.8,156.9 171.0,156.9 171.2,156.9 171.4,156.9 171.5,156.9 171.7,156.9 171.9,156.9 172.1,156.9 172.3,156.9 172.4,155.1 172.6,155.1 172.8,155.1 173.0,155.1 173.2,155.1 173.3,152.1 173.5,152.1 173.7,152.1 173.9,152.1 174.1,152.1 174.2,152.1 174.4,152.1 174.6,134.0 174.8,134.0 175.0,134.0 175.1,134.0 175.3,134.0 175.5,134.0 175.7,148.3 175.9,148.3 176.0,148.3 176.2,148.3 176.4,148.3 176.6,148.3 176.8,148.3 176.9,148.3 177.1,148.3 177.3,148.3 177.5,148.3 177.7,148.3 177.8,148.3 178.0,148.3 178.2,170.3 178.4,174.7 178.6,174.7 178.7,174.7 178.9,174.7 179.1,170.3 179.3,170.3 179.5,170.3 179.6,164.0 179.8,162.5 180.0,162.5 180.2,162.5 180.4,162.5 180.5,162.5 180.7,162.5 180.9,162.5 181.1,162.5 181.3,162.5 181.4,162.5 181.6,162.5 181.8,162.5 182.0,162.5 182.2,162.5 182.3,162.5 182.5,162.5 182.7,162.5 182.9,162.5 183.1,162.5 183.2,162.5 183.4,162.5 183.6,162.5 183.8,162.5 184.0,162.5 184.1,145.9 184.3,145.9 184.5,145.9 184.7,145.9 184.9,145.9 185.0,145.9 185.2,145.9 185.4,145.9 185.6,145.9 185.8,145.9 185.9,151.5 186.1,151.5 186.3,151.5 186.5,151.5 186.7,151.5 186.8,151.5 187.0,151.5 187.2,151.5 187.4,151.5 187.6,151.5 187.7,151.5 187.9,151.5 188.1,151.5 188.3,151.5 188.5,151.5 188.6,151.5 188.8,151.5 189.0,151.5 189.2,151.5 189.4,151.5 189.5,151.5 189.7,151.5 189.9,151.5 190.1,151.5 190.3,151.5 190.4,151.5 190.6,156.3 190.8,151.5 191.0,151.5 191.2,151.5 191.3,151.5 191.5,151.5 191.7,151.5 191.9,151.5 192.1,151.5 192.2,151.5 192.4,151.5 192.6,151.5 192.8,151.5 193.0,151.5 193.1,151.5 193.3,151.5 193.5,151.5 193.7,151.5 193.9,151.5 194.0,151.5 194.2,151.5 194.4,151.5 194.6,151.5 194.8,151.5 194.9,151.5 195.1,151.5 195.3,151.5 195.5,151.5 195.7,151.5 195.8,151.5 196.0,151.5 196.2,151.5 196.4,151.5 196.6,151.5 196.7,151.5 196.9,151.5 197.1,151.5 197.3,151.5 197.5,151.5 197.6,151.5 197.8,151.5 198.0,151.5 198.2,151.5 198.4,151.5 198.5,151.5 198.7,151.5 198.9,151.5 199.1,151.5 199.3,151.5 199.4,151.5 199.6,151.5 199.8,151.5 200.0,155.4 200.2,155.4 200.3,155.4 200.5,155.4 200.7,157.8 200.9,157.8 201.1,157.8 201.2,157.8 201.4,160.8 201.6,160.8 201.8,160.8 202.0,160.8 202.1,160.8 202.3,160.8 202.5,160.8 202.7,160.8 202.9,160.8 203.0,160.8 203.2,160.8 203.4,160.8 203.6,160.8 203.8,160.8 203.9,160.8 204.1,160.8 204.3,160.8 204.5,160.8 204.7,187.5 204.8,187.5 205.0,187.5 205.2,187.5 205.4,187.5 205.6,187.5 205.7,187.5 205.9,187.5 206.1,187.5 206.3,187.5 206.5,187.5 206.6,187.5 206.8,187.5 207.0,187.5 207.2,187.5 207.4,187.5 207.5,187.5 207.7,187.5 207.9,187.5 208.1,187.5 208.3,187.5 208.4,187.5 208.6,187.5 208.8,187.5 209.0,187.5 209.2,187.5 209.3,187.5 209.5,187.5 209.7,187.5 209.9,187.5 210.1,187.5 210.2,187.5 210.4,187.5 210.6,187.5 210.8,186.3 211.0,186.3 211.1,186.3 211.3,186.3 211.5,186.3 211.7,186.3 211.9,186.3 212.0,186.3 212.2,186.3 212.4,186.3 212.6,186.3 212.8,186.3 212.9,186.3 213.1,186.3 213.3,186.3 213.5,186.6 213.7,186.6 213.8,186.6 214.0,186.6 214.2,186.6 214.4,179.8 214.6,179.8 214.7,179.8 214.9,179.8 215.1,179.8 215.3,179.8 215.5,179.8 215.6,179.8 215.8,179.8 216.0,179.8 216.2,179.8 216.4,179.8 216.5,179.8 216.7,179.8 216.9,179.8 217.1,179.8 217.3,179.8 217.4,179.8 217.6,183.6 217.8,183.6 218.0,183.6 218.2,183.6 218.3,183.6 218.5,183.6 218.7,183.6 218.9,183.6 219.1,188.7 219.2,183.6 219.4,183.6 219.6,183.6 219.8,183.6 220.0,183.6 220.1,183.6 220.3,180.1 220.5,180.1 220.7,186.3 220.9,186.3 221.0,186.3 221.2,186.3 221.4,197.9 221.6,208.3 221.8,208.3 221.9,208.3 222.1,208.3 222.3,208.3 222.5,208.3 222.7,208.3 222.8,208.3 223.0,208.3 223.2,208.3 223.4,208.3 223.6,208.3 223.7,208.3 223.9,208.3 224.1,208.3 224.3,208.3 224.5,208.3 224.6,208.3 224.8,208.3 225.0,208.3 225.2,208.3 225.4,208.3 225.5,208.3 225.7,208.3 225.9,208.3 226.1,208.3 226.3,208.3 226.4,208.3 226.6,208.3 226.8,208.3 227.0,208.3 227.2,208.3 227.3,208.3 227.5,208.3 227.7,208.3 227.9,208.3 228.1,208.3 228.2,208.3 228.4,208.3 228.6,208.3 228.8,155.7 229.0,155.7 229.1,155.7 229.3,155.7 229.5,155.7 229.7,155.7 229.9,155.7 230.0,155.7 230.2,155.7 230.4,155.7 230.6,155.7 230.8,155.7 230.9,155.7 231.1,155.7 231.3,155.7 231.5,155.7 231.7,155.7 231.8,155.7 232.0,155.7 232.2,144.4 232.4,144.4 232.6,140.0 232.7,140.0 232.9,140.0 233.1,140.0 233.3,140.0 233.5,140.0 233.6,140.0 233.8,140.0 234.0,140.0 234.2,140.0 234.4,140.0 234.5,140.0 234.7,140.0 234.9,140.0 235.1,140.0 235.3,140.0 235.4,140.0 235.6,117.4 235.8,117.4 236.0,117.4 236.2,117.4 236.3,117.4 236.5,117.4 236.7,117.4 236.9,117.4 237.1,117.4 237.2,117.4 237.4,117.4 237.6,117.4 237.8,117.4 238.0,117.4 238.1,117.4 238.3,117.4 238.5,117.4 238.7,117.4 238.9,117.4 239.0,117.4 239.2,117.4 239.4,117.4 239.6,117.4 239.8,112.6 239.9,112.6 240.1,134.6 240.3,134.6 240.5,134.6 240.7,134.6 240.8,134.6 241.0,134.6 241.2,134.6 241.4,134.6 241.6,134.6 241.7,134.6 241.9,134.6 242.1,134.6 242.3,134.6 242.5,134.6 242.6,134.6 242.8,134.6 243.0,137.0 243.2,137.0 243.4,137.0 243.5,137.0 243.7,137.0 243.9,137.0 244.1,137.0 244.3,137.0 244.4,137.0 244.6,137.0 244.8,137.0 245.0,137.0 245.2,137.0 245.3,137.0 245.5,137.0 245.7,137.0 245.9,137.0 246.1,137.0 246.2,132.5 246.4,132.5 246.6,132.5 246.8,132.5 247.0,132.5 247.1,132.5 247.3,132.5 247.5,132.5 247.7,132.5 247.9,132.5 248.0,132.5 248.2,132.5 248.4,132.5 248.6,132.5 248.8,118.8 248.9,118.8 249.1,118.8 249.3,118.8 249.5,118.8 249.7,118.8 249.8,118.8 250.0,118.8 250.2,118.8 250.4,118.8 250.6,118.8 250.7,118.8 250.9,118.8 251.1,118.8 251.3,118.8 251.5,118.8 251.6,118.8 251.8,118.8 252.0,118.8 252.2,118.8 252.4,118.8 252.5,118.8 252.7,118.8 252.9,118.8 253.1,118.8 253.3,118.8 253.4,118.8 253.6,118.8 253.8,118.8 254.0,118.8 254.2,118.8 254.3,118.8 254.5,118.8 254.7,118.8 254.9,118.8 255.1,118.8 255.2,118.8 255.4,118.8 255.6,118.8 255.8,118.8 256.0,118.8 256.1,118.8 256.3,118.8 256.5,118.8 256.7,118.8 256.9,118.8 257.0,118.8 257.2,118.8 257.4,118.8 257.6,118.8 257.8,118.8 257.9,118.8 258.1,118.8 258.3,118.8 258.5,118.8 258.7,118.8 258.8,118.8 259.0,118.8 259.2,118.8 259.4,118.8 259.6,118.8 259.7,118.8 259.9,118.8 260.1,118.8 260.3,118.8 260.5,118.8 260.6,118.8 260.8,118.8 261.0,118.8 261.2,118.8 261.4,118.8 261.5,118.8 261.7,118.8 261.9,118.8 262.1,118.8 262.3,118.8 262.4,118.8 262.6,118.8 262.8,118.8 263.0,118.8 263.2,144.7 263.3,144.7 263.5,150.9 263.7,150.9 263.9,150.9 264.1,150.9 264.2,150.9 264.4,150.9 264.6,150.9 264.8,150.9 265.0,150.9 265.1,150.9 265.3,150.9 265.5,150.9 265.7,150.9 265.9,150.9 266.0,150.9 266.2,150.9 266.4,150.9 266.6,150.9 266.8,150.9 266.9,150.9 267.1,150.9 267.3,150.9 267.5,150.9 267.7,150.9 267.8,150.9 268.0,150.9 268.2,150.9 268.4,150.9 268.6,150.9 268.7,150.9 268.9,150.9 269.1,150.9 269.3,150.9 269.5,150.9 269.6,150.9 269.8,150.9 270.0,150.9 270.2,150.9 270.4,150.9 270.5,150.9 270.7,150.9 270.9,150.9 271.1,150.9 271.3,150.9 271.4,150.9 271.6,150.9 271.8,150.9 272.0,150.9 272.2,150.9 272.3,150.9 272.5,150.9 272.7,150.9 272.9,150.9 273.1,150.9 273.2,150.9 273.4,150.9 273.6,148.0 273.8,148.0 274.0,152.7 274.1,152.7 274.3,152.7 274.5,152.7 274.7,152.7 274.9,142.9 275.0,142.9 275.2,142.9 275.4,134.3 275.6,134.3 275.8,134.3 275.9,134.3 276.1,125.1 276.3,125.1 276.5,125.1 276.7,123.6 276.8,123.6 277.0,123.6 277.2,123.6 277.4,123.6 277.6,132.5 277.7,132.5 277.9,132.5 278.1,132.5 278.3,132.5 278.5,132.5 278.6,132.5 278.8,132.5 279.0,132.5 279.2,132.5 279.4,132.5 279.5,132.5 279.7,132.5 279.9,118.8 280.1,118.8 280.3,122.1 280.4,122.1 280.6,122.1 280.8,122.1 281.0,122.1 281.2,122.1 281.3,122.1 281.5,122.1 281.7,130.7 281.9,130.7 282.1,130.7 282.2,130.7 282.4,130.7 282.6,130.7 282.8,140.0 283.0,140.0 283.1,140.0 283.3,140.0 283.5,140.0 283.7,140.0 283.9,140.0 284.0,140.0 284.2,140.0 284.4,125.1 284.6,117.7 284.8,117.7 284.9,117.7 285.1,116.2 285.3,116.2 285.5,116.2 285.7,116.2 285.8,116.2 286.0,116.2 286.2,108.7 286.4,108.7 286.6,108.7 286.7,108.7 286.9,108.7 287.1,108.7 287.3,108.7 287.5,108.7 287.6,108.7 287.8,108.7 288.0,97.4 288.2,97.4 288.4,97.4 288.5,97.4 288.7,97.4 288.9,97.4 289.1,97.4 289.3,97.4 289.4,97.4 289.6,105.8 289.8,105.8 290.0,105.8 290.2,105.8 290.3,105.8 290.5,105.8 290.7,105.8 290.9,105.8 291.1,105.8 291.2,105.8 291.4,101.3 291.6,101.3 291.8,101.3 292.0,101.3 292.1,101.3 292.3,101.3 292.5,101.3 292.7,101.3 292.9,101.3 293.0,101.3 293.2,101.3 293.4,101.3 293.6,101.3 293.8,101.3 293.9,101.3 294.1,101.3 294.3,92.4 294.5,95.4 294.7,87.3 294.8,87.3 295.0,87.3 295.2,87.3 295.4,87.3 295.6,87.3 295.7,87.3 295.9,87.3 296.1,87.3 296.3,87.3 296.4,87.3 296.6,87.3 296.8,87.3 297.0,87.3 297.2,87.3 297.3,87.3 297.5,87.3 297.7,87.3 297.9,87.3 298.1,87.3 298.2,87.3 298.4,87.3 298.6,87.3 298.8,87.3 299.0,87.3 299.1,108.7 299.3,108.7 299.5,108.7 299.7,108.7 299.9,108.7 300.0,108.7 300.2,108.7 300.4,108.7 300.6,108.7 300.8,108.7 300.9,108.7 301.1,108.7 301.3,108.7 301.5,108.7 301.7,108.7 301.8,108.7 302.0,108.7 302.2,108.7 302.4,108.7 302.6,108.7 302.7,108.7 302.9,108.7 303.1,108.7 303.3,108.7 303.5,108.7 303.6,108.7 303.8,108.7 304.0,108.7 304.2,108.7 304.4,108.7 304.5,108.7 304.7,108.7 304.9,108.7 305.1,108.7 305.3,108.7 305.4,108.7 305.6,129.0 305.8,129.0 306.0,129.0 306.2,129.0 306.3,129.0 306.5,129.0 306.7,129.0 306.9,129.0 307.1,131.0 307.2,131.0 307.4,131.0 307.6,131.0 307.8,131.0 308.0,131.0 308.1,131.0 308.3,131.0 308.5,131.0 308.7,131.0 308.9,131.0 309.0,131.0 309.2,131.0 309.4,131.0 309.6,131.0 309.8,131.0 309.9,131.0 310.1,131.0 310.3,116.2 310.5,116.2 310.7,116.2 310.8,116.2 311.0,116.2 311.2,116.2 311.4,116.2 311.6,116.2 311.7,116.2 311.9,116.2 312.1,116.2 312.3,116.2 312.5,116.2 312.6,116.2 312.8,122.1 313.0,122.1 313.2,122.1 313.4,122.1 313.5,122.4 313.7,117.7 313.9,117.7 314.1,117.7 314.3,117.7 314.4,117.7 314.6,117.7 314.8,117.7 315.0,117.7 315.2,117.7 315.3,117.7 315.5,117.7 315.7,117.7 315.9,117.7 316.1,117.7 316.2,126.9 316.4,126.9 316.6,138.5 316.8,142.9 317.0,142.9 317.1,142.9 317.3,142.9 317.5,136.7 317.7,136.7 317.9,136.7 318.0,136.7 318.2,136.7 318.4,147.7 318.6,147.7 318.8,147.7 318.9,147.7 319.1,147.7 319.3,147.7 319.5,147.7 319.7,147.7 319.8,147.7 320.0,147.7 320.2,139.4 320.4,139.4 320.6,139.4 320.7,139.4 320.9,139.4 321.1,139.4 321.3,139.4 321.5,139.4 321.6,147.4 321.8,147.4 322.0,147.4 322.2,147.4 322.4,147.4 322.5,147.4 322.7,153.3 322.9,153.3 323.1,147.4 323.3,147.4 323.4,147.4 323.6,147.4 323.8,147.4 324.0,142.3 324.2,144.4 324.3,144.4 324.5,144.4 324.7,144.4 324.9,144.4 325.1,144.4 325.2,144.4 325.4,144.4 325.6,144.4 325.8,163.7 326.0,163.7 326.1,163.7 326.3,163.7 326.5,163.7 326.7,163.7 326.9,156.9 327.0,156.9 327.2,157.2 327.4,157.2 327.6,157.2 327.8,157.2 327.9,157.2 328.1,157.2 328.3,157.2 328.5,157.2 328.7,157.2 328.8,157.2 329.0,157.2 329.2,157.2 329.4,157.2 329.6,157.2 329.7,157.2 329.9,157.2 330.1,157.2 330.3,157.2 330.5,154.8 330.6,154.8 330.8,154.8 331.0,154.8 331.2,152.4 331.4,152.4 331.5,165.2 331.7,165.2 331.9,169.7 332.1,169.7 332.3,169.7 332.4,169.7 332.6,169.7 332.8,169.7 333.0,148.9 333.2,154.8 333.3,154.8 333.5,154.8 333.7,165.2 333.9,158.4 334.1,156.3 334.2,156.3 334.4,156.3 334.6,156.3 334.8,153.6 335.0,153.6 335.1,153.6 335.3,153.6 335.5,153.6 335.7,153.6 335.9,153.6 336.0,153.6 336.2,153.6 336.4,153.6 336.6,153.6 336.8,153.6 336.9,153.6 337.1,137.0 337.3,137.0 337.5,137.0 337.7,137.0 337.8,137.0 338.0,137.0 338.2,151.8 338.4,151.8 338.6,160.8 338.7,160.8 338.9,160.8 339.1,160.8 339.3,160.8 339.5,160.8 339.6,160.8 339.8,157.8 340.0,157.8 340.2,157.8 340.4,157.8 340.5,157.8 340.7,159.9 340.9,159.9 341.1,159.9 341.3,159.9 341.4,159.9 341.6,159.9 341.8,159.9 342.0,159.9 342.2,159.9 342.3,174.1 342.5,168.8 342.7,168.8 342.9,168.8 343.1,168.8 343.2,168.8 343.4,177.1 343.6,177.1 343.8,177.1 344.0,177.1 344.1,177.1 344.3,172.6 344.5,171.2 344.7,171.2 344.9,172.6 345.0,172.6 345.2,183.1 345.4,183.1 345.6,187.5 345.8,187.5 345.9,187.5 346.1,193.2 346.3,193.2 346.5,193.2 346.7,190.5 346.8,190.5 347.0,190.5 347.2,190.5 347.4,199.4 347.6,199.4 347.7,199.4 347.9,199.4 348.1,199.4 348.3,199.4 348.5,199.4 348.6,199.4 348.8,199.4 349.0,199.4 349.2,199.4 349.4,199.4 349.5,181.9 349.7,181.9 349.9,177.1 350.1,178.6 350.3,181.6 350.4,177.1 350.6,176.8 350.8,171.2 351.0,171.2 351.2,171.2 351.3,178.6 351.5,178.6 351.7,178.6 351.9,178.6 352.1,178.6 352.2,182.5 352.4,173.8 352.6,173.8 352.8,173.8 353.0,173.8 353.1,173.8 353.3,173.8 353.5,173.8 353.7,182.8 353.9,181.6 354.0,181.6 354.2,181.6 354.4,184.5 354.6,184.5 354.8,184.5 354.9,192.0 355.1,199.4 355.3,199.4 355.5,206.8 355.7,206.8 355.8,190.5 356.0,190.5 356.2,190.5 356.4,190.5 356.6,190.5 356.7,184.5 356.9,186.3 357.1,186.0 357.3,184.2 357.5,184.2 357.6,184.2 357.8,189.0 358.0,189.0 358.2,182.5 358.4,183.1 358.5,183.1 358.7,178.9 358.9,178.9 359.1,178.9 359.3,178.9 359.4,178.9 359.6,178.9 359.8,178.9 360.0,178.9 360.2,178.9 360.3,167.0 360.5,167.0 360.7,160.8 360.9,160.8 361.1,161.7 361.2,161.7 361.4,161.7 361.6,161.7 361.8,161.7 362.0,161.7 362.1,161.7 362.3,161.7 362.5,161.7 362.7,148.9 362.9,148.9 363.0,148.9 363.2,148.9 363.4,148.9 363.6,148.9 363.8,160.8 363.9,159.6 364.1,159.6 364.3,159.6 364.5,159.6 364.7,155.1 364.8,155.7 365.0,155.7 365.2,155.7 365.4,155.7 365.6,155.7 365.7,155.7 365.9,149.2 366.1,145.9 366.3,146.5 366.5,146.5 366.6,145.9 366.8,147.4 367.0,147.4 367.2,137.6 367.4,137.6 367.5,137.6 367.7,137.6 367.9,145.0 368.1,139.4 368.3,132.5 368.4,132.5 368.6,132.5 368.8,132.5 369.0,132.5 369.2,135.5 369.3,139.7 369.5,139.7 369.7,142.0 369.9,137.0 370.1,137.0 370.2,140.0 370.4,140.0 370.6,140.0 370.8,140.0 371.0,140.0 371.1,140.0 371.3,119.4 371.5,119.4 371.7,119.4 371.9,119.4 372.0,119.4 372.2,119.4 372.4,119.4 372.6,119.4 372.8,119.4 372.9,119.4 373.1,119.4 373.3,119.4 373.5,119.4 373.7,119.4 373.8,119.4 374.0,119.4 374.2,119.4 374.4,119.4 374.6,119.4 374.7,135.5 374.9,135.5 375.1,135.5 375.3,135.5 375.5,135.5 375.6,135.5 375.8,135.5 376.0,134.6 376.2,133.4 376.4,140.5 376.5,142.0 376.7,150.4 376.9,145.9 377.1,152.1 377.3,143.8 377.4,139.4 377.6,135.8 377.8,126.3 378.0,124.8 378.2,125.4 378.3,125.4 378.5,127.2 378.7,122.7 378.9,119.7 379.1,121.8 379.2,126.9 379.4,139.4 379.6,141.1 379.8,137.6 380.0,135.5 380.1,137.6 380.3,142.9 380.5,134.6 380.7,131.6 380.9,131.9 381.0,147.7 381.2,144.1 381.4,146.2 381.6,140.5 381.8,141.1 381.9,143.8 382.1,151.5 382.3,151.8 382.5,154.5 382.7,153.6 382.8,160.8 383.0,162.5 383.2,156.9 383.4,151.5 383.6,155.7 383.7,161.7 383.9,156.9 384.1,171.2 384.3,178.6 384.5,172.1 384.6,166.4 384.8,170.6 385.0,180.1 385.2,183.4 385.4,186.3 385.5,178.0 385.7,176.2 385.9,178.3 386.1,177.4 386.3,175.0 386.4,178.3 386.6,178.3 386.8,176.5 387.0,173.5 387.2,175.3 387.3,167.9 387.5,165.5 387.7,166.7 387.9,163.1 388.1,179.5 388.2,176.8 388.4,175.0 388.6,175.9 388.8,179.8 389.0,180.1 389.1,181.6 389.3,180.1 389.5,181.3 389.7,177.7 389.9,177.1 390.0,183.1 390.2,186.9 390.4,183.1 390.6,184.8 390.8,187.8 390.9,192.6 391.1,189.9 391.3,189.9 391.5,181.6 391.7,181.9 391.8,181.9 392.0,187.8 392.2,181.9 392.4,181.9 392.6,179.2 392.7,179.8 392.9,178.3 393.1,185.4 393.3,178.0 393.5,182.2 393.6,185.1 393.8,182.8 394.0,183.9 394.2,177.7 394.4,172.9 394.5,169.7 394.7,170.6 394.9,176.2 395.1,176.5 395.3,175.3 395.4,174.7 395.6,173.8 395.8,171.2 396.0,169.1 396.2,169.1 396.3,165.5 396.5,174.7 396.7,172.6 396.9,167.9 397.1,166.4 397.2,165.2 397.4,160.8 397.6,161.9 397.8,164.6 398.0,167.6 398.1,164.3 398.3,159.9 398.5,155.7 398.7,156.9 398.9,159.3 399.0,155.4 399.2,149.5 399.4,153.0 399.6,147.1 399.8,145.6 399.9,146.8 400.1,145.9 400.3,146.8 400.5,142.6 400.7,146.2 400.8,144.4 401.0,141.4 401.2,144.4 401.4,144.7 401.6,150.9 401.7,155.1 401.9,157.2 402.1,159.9 402.3,158.7 402.5,157.8 402.6,156.3 402.8,149.2 403.0,151.2 403.2,149.8 403.4,145.3 403.5,142.9 403.7,148.9 403.9,148.0 404.1,148.0 404.3,155.1 404.4,146.8 404.6,143.2 404.8,144.4 405.0,145.0 405.2,152.1 405.3,149.5 405.5,143.8 405.7,139.4 405.9,139.7 406.1,145.3 406.2,145.6 406.4,140.8 406.6,155.7 406.8,164.9 407.0,163.4 407.1,163.4 407.3,164.3 407.5,161.7 407.7,162.5 407.9,171.8 408.0,179.5 408.2,176.8 408.4,185.7 408.6,189.9 408.8,175.9 408.9,181.9 409.1,176.5 409.3,187.8 409.5,189.9 409.7,203.0 409.8,200.3 410.0,229.4 410.2,267.8 410.4,264.2 410.6,290.1 410.7,281.7 410.9,277.0 411.1,246.1 411.3,249.9 411.5,270.2 411.6,243.4 411.8,237.8 412.0,225.3 412.2,235.1 412.4,220.8 412.5,225.6 412.7,233.3 412.9,223.8 413.1,233.9 413.3,222.6 413.4,225.3 413.6,214.0 413.8,194.6 414.0,202.4 414.2,198.2 414.3,209.8 414.5,215.5 414.7,205.9 414.9,210.1 415.1,221.4 415.2,218.4 415.4,222.9 415.6,216.6 415.8,208.9 416.0,198.8 416.1,192.3 416.3,200.3 416.5,208.9 416.7,208.6 416.9,211.9 417.0,214.9 417.2,211.0 417.4,200.3 417.6,204.5 417.8,196.1 417.9,196.1 418.1,196.7 418.3,196.4 418.5,180.4 418.7,187.5 418.8,186.0 419.0,185.1 419.2,181.6 419.4,169.7 419.6,173.8 419.7,169.7 419.9,163.4 420.1,164.3 420.3,159.9 420.5,154.8 420.6,153.9 420.8,143.5 421.0,154.8 421.2,163.7 421.4,175.0 421.5,193.8 421.7,175.3 421.9,163.7 422.1,161.9 422.3,161.7 422.4,161.4 422.6,160.5 422.8,161.7 423.0,162.5 423.2,170.9 423.3,169.4 423.5,179.5 423.7,171.2 423.9,163.4 424.1,159.9 424.2,151.8 424.4,147.4 424.6,151.2 424.8,156.3 425.0,158.7 425.1,154.5 425.3,157.5 425.5,151.5 425.7,148.9 425.9,147.4 426.0,146.8 426.2,148.0 426.4,144.4 426.6,142.9 426.8,147.7 426.9,149.8 427.1,145.3 427.3,148.6 427.5,151.2 427.7,159.0 427.8,160.8 428.0,156.6 428.2,148.9 428.4,149.2 428.6,145.9 428.7,145.6 428.9,137.0 429.1,137.6 429.3,134.3 429.5,134.0 429.6,134.0 429.8,130.7 430.0,137.6 430.2,131.3 430.4,131.6 430.5,136.7 430.7,143.8 430.9,143.8 431.1,141.4 431.3,137.9 431.4,132.5 431.6,138.2 431.8,132.8 432.0,127.2 432.2,137.6 432.3,139.4 432.5,146.8 432.7,139.7 432.9,136.7 433.1,138.2 433.2,135.5 433.4,133.7 433.6,134.3 433.8,130.4 434.0,132.5 434.1,139.7 434.3,138.8 434.5,152.4 434.7,152.4 434.9,145.3 435.0,142.6 435.2,144.4 435.4,138.5 435.6,139.7 435.8,139.7 435.9,136.1 436.1,139.7 436.3,133.1 436.5,129.8 436.7,127.5 436.8,127.2 437.0,127.8 437.2,128.1 437.4,126.0 437.6,125.1 437.7,131.6 437.9,134.3 438.1,137.6 438.3,138.8 438.5,140.8 438.6,150.9 438.8,152.7 439.0,160.2 439.2,154.8 439.4,156.9 439.5,144.4 439.7,135.8 439.9,137.3 440.1,124.8 440.3,124.5 440.4,109.0 440.6,114.4 440.8,112.3 441.0,123.6 441.2,116.5 441.3,105.8 441.5,112.3 441.7,115.0 441.9,112.6 442.1,112.3 442.2,123.0 442.4,116.2 442.6,122.4 442.8,125.7 443.0,130.1 443.1,124.2 443.3,126.0 443.5,126.9 443.7,123.9 443.9,129.5 444.0,123.9 444.2,121.8 444.4,124.2 444.6,126.9 444.8,131.9 444.9,123.9 445.1,128.1 445.3,123.3 445.5,120.3 445.7,126.0 445.8,125.1 446.0,123.3 446.2,120.9 446.4,122.4 446.6,122.1 446.7,118.0 446.9,117.1 447.1,128.7 447.3,126.3 447.5,116.8 447.6,119.7 447.8,125.1 448.0,123.9 448.2,121.2 448.4,127.2 448.5,128.4 448.7,138.5 448.9,141.4 449.1,133.1 449.3,132.5 449.4,137.3 449.6,140.8 449.8,133.7 450.0,138.2 450.2,134.6 450.3,141.7 450.5,143.2 450.7,142.0 450.9,139.7 451.1,134.6 451.2,126.0 451.4,126.0 451.6,132.8 451.8,127.2 452.0,131.0 452.1,125.1 452.3,132.5 452.5,131.0 452.7,127.5 452.9,127.5 453.0,127.5 453.2,129.0 453.4,127.8 453.6,129.8 453.8,141.7 453.9,131.3 454.1,127.2 454.3,126.0 454.5,131.9 454.7,121.8 454.8,117.4 455.0,117.7 455.2,112.3 455.4,118.2 455.6,117.1 455.7,117.4 455.9,125.1 456.1,120.9 456.3,129.2 456.4,131.0 456.6,127.8 456.8,129.0 457.0,130.7 457.2,122.7 457.3,116.8 457.5,116.2 457.7,118.0 457.9,119.7 458.1,120.3 458.2,113.5 458.4,110.8 458.6,121.2 458.8,123.0 459.0,118.2 459.1,118.5 459.3,116.8 459.5,118.0 459.7,113.5 459.9,111.7 460.0,114.4 460.2,114.4 460.4,112.0 460.6,120.6 460.8,118.2 460.9,118.0 461.1,120.0 461.3,119.4 461.5,113.5 461.7,117.7 461.8,116.5 462.0,97.4 462.2,101.9 462.4,95.7 462.6,96.8 462.7,96.8 462.9,98.3 463.1,105.8 463.3,98.9 463.5,99.2 463.6,101.6 463.8,104.6 464.0,109.9 464.2,110.5 464.4,110.8 464.5,112.0 464.7,118.5 464.9,116.8 465.1,113.8 465.3,116.2 465.4,113.5 465.6,114.4 465.8,112.0 466.0,105.8 466.2,107.3 466.3,107.8 466.5,108.1 466.7,108.1 466.9,103.1 467.1,105.8 467.2,109.9 467.4,115.6 467.6,123.9 467.8,129.2 468.0,126.0 468.1,123.9 468.3,125.4 468.5,124.5 468.7,121.8 468.9,123.6 469.0,126.3 469.2,126.3 469.4,123.3 469.6,123.9 469.8,126.9 469.9,123.6 470.1,128.4 470.3,124.8 470.5,124.8 470.7,123.3 470.8,123.9 471.0,123.0 471.2,126.9 471.4,132.5 471.6,132.2 471.7,129.2 471.9,129.0 472.1,131.0 472.3,125.4 472.5,124.2 472.6,122.7 472.8,120.9 473.0,123.3 473.2,124.5 473.4,120.0 473.5,122.1 473.7,119.7 473.9,118.2 474.1,115.6 474.3,111.7 474.4,104.9 474.6,108.7 474.8,105.8 475.0,103.7 475.2,107.3 475.3,106.1 475.5,98.3 475.7,86.7 475.9,90.0 476.1,91.8 476.2,86.4 476.4,90.9 476.6,87.0 476.8,86.7 477.0,85.0 477.1,89.7 477.3,87.9 477.5,90.0 477.7,103.7 477.9,100.7 478.0,106.4 478.2,101.3 478.4,101.3 478.6,100.7 478.8,98.3 478.9,106.4 479.1,114.7 479.3,116.8 479.5,119.4 479.7,118.0 479.8,115.6 480.0,116.5 480.2,114.1 480.4,119.1 480.6,118.2 480.7,122.4 480.9,119.4 481.1,121.2 481.3,116.2 481.5,117.7 481.6,115.0 481.8,118.8 482.0,121.5 482.2,120.9 482.4,120.0 482.5,112.9 482.7,111.7 482.9,112.9 483.1,109.6 483.3,109.0 483.4,109.3 483.6,105.5 483.8,107.8 484.0,109.9 484.2,109.3 484.3,105.8 484.5,108.1 484.7,112.0 484.9,107.8 485.1,101.3 485.2,105.5 485.4,106.1 485.6,104.3 485.8,101.0 486.0,100.1 486.1,99.5 486.3,98.9 486.5,98.6 486.7,101.0 486.9,105.8 487.0,109.6 487.2,113.2 487.4,111.4 487.6,117.1 487.8,120.3 487.9,123.9 488.1,122.7 488.3,130.4 488.5,132.2 488.7,125.7 488.8,130.7 489.0,123.0 489.2,122.4 489.4,121.5 489.6,123.3 489.7,122.1 489.9,120.0 490.1,120.0 490.3,111.7 490.5,109.0 490.6,116.5 490.8,122.1 491.0,118.0 491.2,121.8 491.4,120.3 491.5,115.9 491.7,114.4 491.9,111.7 492.1,111.4 492.3,109.9 492.4,113.8 492.6,108.1 492.8,107.5 493.0,110.5 493.2,106.7 493.3,105.8 493.5,107.0 493.7,106.1 493.9,101.9 494.1,99.2 494.2,101.9 494.4,98.0 494.6,106.4 494.8,111.7 495.0,112.6 495.1,116.5 495.3,117.4 495.5,116.2 495.7,112.0 495.9,109.9 496.0,104.3 496.2,106.4 496.4,117.4 496.6,123.3 496.8,125.4 496.9,121.5 497.1,116.8 497.3,121.5 497.5,122.4 497.7,123.0 497.8,115.9 498.0,117.1 498.2,116.5 498.4,113.8 498.6,119.1 498.7,121.2 498.9,125.7 499.1,116.2 499.3,121.2 499.5,132.2 499.6,127.5 499.8,129.5 500.0,131.3 500.2,146.2 500.4,141.7 500.5,137.3 500.7,142.9 500.9,142.9 501.1,131.3 501.3,132.8 501.4,126.3 501.6,121.8 501.8,120.0 502.0,126.3 502.2,126.6 502.3,133.4 502.5,131.6 502.7,129.8 502.9,129.5 503.1,123.0 503.2,124.2 503.4,130.1 503.6,123.9 503.8,125.7 504.0,125.7 504.1,125.1 504.3,124.2 504.5,118.5 504.7,118.2 504.9,120.3 505.0,119.1 505.2,120.0 505.4,124.2 505.6,117.4 505.8,109.9 505.9,112.3 506.1,122.7 506.3,120.6 506.5,121.8 506.7,109.6 506.8,106.1 507.0,114.4 507.2,119.1 507.4,111.1 507.6,76.9 507.7,91.2 507.9,86.1 508.1,92.1 508.3,93.6 508.5,95.1 508.6,93.3 508.8,87.3 509.0,82.3 509.2,70.7 509.4,88.5 509.5,81.7 509.7,82.6 509.9,79.0 510.1,81.7 510.3,81.4 510.4,77.5 510.6,71.3 510.8,77.5 511.0,74.8 511.2,67.1 511.3,68.9 511.5,65.9 511.7,66.2 511.9,70.1 512.1,75.4 512.2,87.6 512.4,101.6 512.6,107.5 512.8,107.3 513.0,118.8 513.1,118.5 513.3,112.6 513.5,114.4 513.7,112.0 513.9,98.0 514.0,99.2 514.2,100.4 514.4,93.9 514.6,97.4 514.8,94.5 514.9,97.1 515.1,90.9 515.3,90.6 515.5,97.1 515.7,92.4 515.8,96.5 516.0,98.9 516.2,98.6 516.4,96.0 516.6,100.4 516.7,91.5 516.9,96.0 517.1,91.2 517.3,92.4 517.5,88.2 517.6,83.5 517.8,84.1 518.0,79.3 518.2,82.0 518.4,79.3 518.5,87.9 518.7,88.8 518.9,92.7 519.1,102.2 519.3,98.6 519.4,98.3 519.6,89.1 519.8,91.5 520.0,86.1 520.2,79.6 520.3,71.9 520.5,80.2 520.7,88.8 520.9,96.0 521.1,96.0 521.2,93.0 521.4,90.3 521.6,82.9 521.8,97.7 522.0,102.5 522.1,104.9 522.3,109.9 522.5,110.2 522.7,109.6 522.9,114.7 523.0,107.3 523.2,104.9 523.4,101.6 523.6,99.2 523.8,112.0 523.9,118.0 524.1,116.5 524.3,120.3 524.5,117.4 524.7,126.9 524.8,133.4 525.0,135.5 525.2,140.5 525.4,145.9 525.6,149.8 525.7,142.9 525.9,147.4 526.1,148.0 526.3,139.1 526.5,131.6 526.6,137.3 526.8,137.9 527.0,146.5 527.2,143.2 527.4,146.5 527.5,152.1 527.7,138.2 527.9,144.7 528.1,140.2 528.3,134.0 528.4,138.2 528.6,143.2 528.8,131.0 529.0,131.0 529.2,126.0 529.3,125.7 529.5,123.9 529.7,117.7 529.9,122.7 530.1,122.4 530.2,144.7 530.4,146.8 530.6,135.2 530.8,133.4 531.0,133.4 531.1,139.4 531.3,121.5 531.5,120.9 531.7,116.5 531.9,117.1 532.0,119.4 532.2,116.5 532.4,115.6 532.6,110.5 532.8,110.5 532.9,107.8 533.1,107.8 533.3,110.5 533.5,107.0 533.7,99.8 533.8,98.9 534.0,95.4 534.2,102.2 534.4,105.8 534.6,106.4 534.7,97.4 534.9,99.2 535.1,96.0 535.3,93.6 535.5,96.0 535.6,102.5 535.8,107.8 536.0,109.6 536.2,108.7 536.4,107.3 536.5,110.8 536.7,108.4 536.9,107.8 537.1,112.9 537.3,109.6 537.4,112.9 537.6,112.6 537.8,109.3 538.0,112.6 538.2,104.3 538.3,104.3 538.5,106.7 538.7,104.9 538.9,104.3 539.1,106.4 539.2,105.8 539.4,113.8 539.6,117.7 539.8,113.8 540.0,110.2 540.1,118.0 540.3,116.8 540.5,115.3 540.7,111.7 540.9,116.8 541.0,108.4 541.2,108.1 541.4,104.3 541.6,109.3 541.8,112.3 541.9,113.5 542.1,132.2 542.3,133.4 542.5,130.1 542.7,126.6 542.8,128.1 543.0,124.8 543.2,127.8 543.4,127.5 543.6,137.6 543.7,135.8 543.9,131.0 544.1,131.6 544.3,130.1 544.5,135.8 544.6,135.5 544.8,133.7 545.0,133.1 545.2,138.5 545.4,142.3 545.5,141.4 545.7,144.4 545.9,147.7 546.1,147.4 546.3,143.2 546.4,147.7 546.6,146.2 546.8,148.9 547.0,142.3 547.2,140.2 547.3,145.6 547.5,144.7 547.7,142.0 547.9,140.8 548.1,139.1 548.2,136.7 548.4,135.8 548.6,128.7 548.8,131.0 549.0,133.4 549.1,130.7 549.3,132.5 549.5,137.3 549.7,140.2 549.9,139.4 550.0,134.3 550.2,137.0 550.4,137.0 550.6,135.2 550.8,137.6 550.9,139.4 551.1,138.2 551.3,137.9 551.5,145.3 551.7,148.3 551.8,142.3 552.0,140.8 552.2,138.2 552.4,142.3 552.6,169.4 552.7,163.4 552.9,157.2 553.1,156.0 553.3,160.5 553.5,158.1 553.6,159.0 553.8,160.8 554.0,159.0 554.2,163.1 554.4,162.2 554.5,163.1 554.7,162.8 554.9,161.7 555.1,166.1 555.3,171.5 555.4,175.3 555.6,175.9 555.8,177.4 556.0,180.4 556.2,178.0 556.3,170.6 556.5,169.7 556.7,169.7 556.9,166.4 557.1,167.3 557.2,169.4 557.4,168.8 557.6,164.9 557.8,164.9 558.0,161.4 558.1,159.3 558.3,164.0 558.5,165.2 558.7,167.6 558.9,173.5 559.0,170.9 559.2,167.6 559.4,175.3 559.6,172.6 559.8,170.3 559.9,167.3 560.1,176.8 560.3,174.7 560.5,171.5 560.7,178.3 560.8,173.5 561.0,172.9 561.2,170.3 561.4,171.8 561.6,173.2 561.7,171.2 561.9,170.3 562.1,171.2 562.3,169.1 562.5,166.4 562.6,164.3 562.8,165.2 563.0,164.3 563.2,163.1 563.4,161.9 563.5,169.4 563.7,174.1 563.9,176.5 564.1,174.1 564.3,172.4 564.4,178.3 564.6,178.6 564.8,178.0 565.0,178.9 565.2,180.1 565.3,185.1 565.5,187.2 565.7,182.5 565.9,182.5 566.1,186.0 566.2,190.2 566.4,188.4 566.6,187.5 566.8,186.9 567.0,183.6 567.1,178.3 567.3,177.1 567.5,177.4 567.7,176.2 567.9,185.1 568.0,191.1 568.2,194.9 568.4,192.0 568.6,186.6 568.8,186.3 568.9,193.2 569.1,183.6 569.3,189.0 569.5,191.1 569.7,193.8 569.8,191.7 570.0,196.1 570.2,197.9 570.4,193.8 570.6,196.4 570.7,198.5 570.9,194.3 571.1,194.6 571.3,197.6 571.5,201.5 571.6,197.9 571.8,201.5 572.0,203.9 572.2,200.0 572.4,199.7 572.5,200.9 572.7,208.6 572.9,208.0 573.1,202.7 573.3,203.9 573.4,209.5 573.6,210.7 573.8,214.0 574.0,215.8 574.2,210.4 574.3,212.5 574.5,208.9 574.7,209.5 574.9,203.6 575.1,202.7 575.2,208.0 575.4,205.1 575.6,196.1 575.8,197.6 576.0,197.9 576.1,197.3 576.3,199.7 576.5,197.3 576.7,200.9 576.9,191.7 577.0,189.0 577.2,191.1 577.4,188.4 577.6,188.4 577.8,192.3 577.9,191.1 578.1,188.7 578.3,189.0 578.5,190.5 578.7,184.8 578.8,185.1 579.0,182.8 579.2,185.1 579.4,188.4 579.6,187.2 579.7,180.4 579.9,180.1 580.1,182.5 580.3,186.3 580.5,177.4 580.6,178.3 580.8,181.6 581.0,179.2 581.2,177.4 581.4,181.0 581.5,178.3 581.7,179.2 581.9,179.2 582.1,178.0 582.3,178.3 582.4,180.4 582.6,177.1 582.8,181.6 583.0,180.4 583.2,177.4 583.3,175.3 583.5,176.5 583.7,176.8 583.9,174.4 584.1,177.1 584.2,182.2 584.4,185.7 584.6,186.0 584.8,185.4 585.0,185.7 585.1,185.4 585.3,190.2 585.5,185.4 585.7,183.4 585.9,182.2 586.0,182.8 586.2,186.6 586.4,185.7 586.6,187.8 586.8,192.9 586.9,194.1 587.1,188.1 587.3,194.6 587.5,196.4 587.7,194.1 587.8,203.0 588.0,200.9 588.2,199.7 588.4,198.2 588.6,195.8 588.7,193.2 588.9,191.7 589.1,191.4 589.3,195.2 589.5,200.9 589.6,203.3 589.8,197.6 590.0,196.7 590.2,194.3 590.4,194.3 590.5,193.5 590.7,186.9 590.9,188.7 591.1,185.4 591.3,184.8 591.4,183.9 591.6,186.6 591.8,185.1 592.0,186.9 592.2,188.1 592.3,194.9 592.5,191.1 592.7,192.6 592.9,190.8 593.1,193.8 593.2,185.1 593.4,184.2 593.6,186.0 593.8,190.2 594.0,194.1 594.1,194.3 594.3,193.2 594.5,194.9 594.7,188.1 594.9,196.1 595.0,197.3 595.2,202.1 595.4,201.2 595.6,204.5 595.8,204.5 595.9,202.4 596.1,200.3 596.3,198.5 596.5,200.0 596.7,197.6 596.8,200.9 597.0,200.3 597.2,197.9 597.4,201.2 597.6,175.6 597.7,173.5 597.9,169.4 598.1,167.0 598.3,166.1 598.5,163.1 598.6,160.2 598.8,159.0 599.0,158.7 599.2,156.9 599.4,159.6 599.5,159.0 599.7,161.7 599.9,167.6 600.1,167.6 600.3,167.6 600.4,173.2 600.6,171.5 600.8,174.7 601.0,177.7 601.2,173.2 601.3,164.6 601.5,163.4 601.7,164.3 601.9,163.4 602.1,164.9 602.2,169.4 602.4,172.4 602.6,170.3 602.8,168.2 603.0,168.5 603.1,170.9 603.3,170.9 603.5,170.6 603.7,173.2 603.9,171.2 604.0,169.4 604.2,173.2 604.4,174.4 604.6,175.3 604.8,176.2 604.9,181.6 605.1,182.2 605.3,181.0 605.5,184.5 605.7,180.7 605.8,182.8 606.0,177.1 606.2,175.3 606.4,172.4 606.6,174.4 606.7,167.6 606.9,159.9 607.1,160.2 607.3,166.4 607.5,165.2 607.6,167.6 607.8,167.3 608.0,165.2 608.2,158.4 608.4,157.2 608.5,155.4 608.7,153.9 608.9,154.8 609.1,154.2 609.3,161.1 609.4,155.1 609.6,158.1 609.8,151.5 610.0,153.0 610.2,154.8 610.3,148.9 610.5,150.1 610.7,144.4 610.9,156.3 611.1,151.2 611.2,146.2 611.4,142.0 611.6,142.0 611.8,137.0 612.0,134.9 612.1,135.2 612.3,132.8 612.5,130.7 612.7,126.9 612.9,130.7 613.0,130.1 613.2,133.4 613.4,137.6 613.6,137.0 613.8,139.1 613.9,142.9 614.1,143.5 614.3,140.2 614.5,136.4 614.7,140.2 614.8,139.7 615.0,136.7 615.2,142.9 615.4,137.6 615.6,134.3 615.7,137.6 615.9,129.5 616.1,129.5 616.3,130.1 616.4,130.4 616.6,133.1 616.8,135.5 617.0,134.0 617.2,136.7 617.3,137.6 617.5,138.5 617.7,137.0 617.9,134.3 618.1,129.8 618.2,129.0 618.4,131.0 618.6,132.5 618.8,132.8 619.0,136.4 619.1,140.2 619.3,138.8 619.5,137.9 619.7,140.0 619.9,137.6 620.0,142.0 620.2,138.2 620.4,136.1 620.6,161.9 620.8,163.7 620.9,161.9 621.1,163.7 621.3,163.4 621.5,163.1 621.7,160.5 621.8,164.0 622.0,166.4 622.2,164.3 622.4,163.1 622.6,165.2 622.7,172.9 622.9,159.6 623.1,155.7 623.3,155.1 623.5,155.4 623.6,158.1 623.8,154.8 624.0,150.7 624.2,152.7 624.4,153.0 624.5,155.7 624.7,162.5 624.9,164.3 625.1,163.7 625.3,165.8 625.4,169.1 625.6,170.0 625.8,172.6 626.0,174.4 626.2,177.7 626.3,186.3 626.5,187.5 626.7,187.5 626.9,186.6 627.1,184.8 627.2,185.7 627.4,186.3 627.6,189.3 627.8,187.2 628.0,189.0 628.1,189.6 628.3,186.6 628.5,184.5 628.7,183.1 628.9,187.2 629.0,183.9 629.2,183.9 629.4,181.3 629.6,178.6 629.8,178.6 629.9,175.9 630.1,178.0 630.3,176.5 630.5,176.8 630.7,172.9 630.8,175.3 631.0,177.1 631.2,177.1 631.4,178.0 631.6,182.8 631.7,168.2 631.9,163.1 632.1,168.8 632.3,169.1 632.5,168.5 632.6,168.8 632.8,170.0 633.0,166.7 633.2,167.6 633.4,164.6 633.5,163.7 633.7,158.1 633.9,162.2 634.1,161.9 634.3,160.2 634.4,167.0 634.6,167.9 634.8,166.1 635.0,165.8 635.2,170.9 635.3,167.6 635.5,166.4 635.7,161.1 635.9,161.9 636.1,169.7 636.2,171.8 636.4,180.7 636.6,176.2 636.8,174.4 637.0,172.1 637.1,174.4 637.3,178.0 637.5,186.3 637.7,183.1 637.9,186.3 638.0,181.6 638.2,178.3 638.4,180.4 638.6,178.6 638.8,175.3 638.9,175.6 639.1,182.5 639.3,192.9 639.5,201.8 639.7,212.2 639.8,198.8 640.0,198.8 640.2,189.6 640.4,183.4 640.6,188.7 640.7,192.0 640.9,187.8 641.1,190.2 641.3,182.8 641.5,183.9 641.6,179.8 641.8,183.4 642.0,180.7 642.2,189.6 642.4,193.5 642.5,197.0 642.7,189.9 642.9,190.2 643.1,194.1 643.3,196.1 643.4,194.3 643.6,195.8 643.8,189.3 644.0,194.3 644.2,194.1 644.3,190.2 644.5,186.3 644.7,186.3 644.9,190.5 645.1,194.1 645.2,198.5 645.4,200.6 645.6,194.3 645.8,198.5 646.0,197.0 646.1,196.1 646.3,198.5 646.5,196.4 646.7,197.3 646.9,198.2 647.0,196.1 647.2,194.1 647.4,192.3 647.6,194.6 647.8,192.3 647.9,196.4 648.1,193.8 648.3,197.3 648.5,197.9 648.7,200.3 648.8,197.3 649.0,194.1 649.2,197.9 649.4,193.2 649.6,193.8 649.7,193.8 649.9,185.4 650.1,178.9 650.3,180.7 650.5,179.2 650.6,175.0 650.8,175.6 651.0,174.7 651.2,179.8 651.4,181.0 651.5,186.3 651.7,185.7 651.9,184.2 652.1,183.4 652.3,187.2 652.4,178.9 652.6,175.3 652.8,176.8 653.0,177.4 653.2,180.7 653.3,179.8 653.5,183.6 653.7,189.0 653.9,190.5 654.1,187.5 654.2,188.1 654.4,187.2 654.6,180.4 654.8,179.5 655.0,180.4 655.1,176.5 655.3,171.5 655.5,206.5 655.7,207.4 655.9,214.9 656.0,213.4 656.2,212.2 656.4,209.8 656.6,208.0 656.8,213.4 656.9,215.8 657.1,214.0 657.3,212.8 657.5,210.4 657.7,216.6 657.8,218.7 658.0,218.7 658.2,220.2 658.4,222.6 658.6,223.5 658.7,222.3 658.9,219.3 659.1,220.8 659.3,220.8 659.5,217.5 659.6,220.8 659.8,219.9 660.0,221.4 660.2,221.7 660.4,226.5 660.5,229.7 660.7,230.0 660.9,227.6 661.1,225.0 661.3,223.8 661.4,223.5 661.6,222.3 661.8,223.8 662.0,227.0 662.2,230.3 662.3,230.0 662.5,234.5 662.7,231.2 662.9,229.7 663.1,226.2 663.2,227.6 663.4,225.0 663.6,224.7 663.8,224.7 664.0,225.0 664.1,225.0 664.3,222.3 664.5,225.0 664.7,221.1 664.9,218.7 665.0,229.1 665.2,233.6 665.4,232.1 665.6,233.3 665.8,233.0 665.9,227.0 666.1,222.6 666.3,218.1 666.5,216.3 666.7,215.5 666.8,216.9 667.0,211.9 667.2,214.9 667.4,215.8 667.6,215.5 667.7,216.6 667.9,218.4 668.1,214.3 668.3,215.2 668.5,214.0 668.6,210.7 668.8,213.7 669.0,213.1 669.2,217.2 669.4,215.5 669.5,219.6 669.7,220.2 669.9,221.7 670.1,225.9 670.3,223.2 670.4,219.3 670.6,222.3 670.8,221.7 671.0,219.6 671.2,218.1 671.3,219.0 671.5,220.5 671.7,219.6 671.9,221.1 672.1,221.4 672.2,219.6 672.4,215.8 672.6,217.5 672.8,219.0 673.0,216.9 673.1,215.5 673.3,212.2 673.5,217.2 673.7,209.2 673.9,209.8 674.0,211.0 674.2,206.8 674.4,204.8 674.6,204.4 674.8,223.5 674.9,222.2 675.1,214.9 675.3,212.7 675.5,203.7 675.7,202.2 675.8,201.1 676.0,204.2 676.2,206.0 676.4,203.9 676.6,206.8 676.7,199.9 676.9,178.2 677.1,188.8 677.3,180.6 677.5,179.1 677.6,178.4 677.8,169.1 678.0,171.2 678.2,169.1 678.4,172.3 678.5,172.1 678.7,172.5 678.9,166.8 679.1,166.2 679.3,168.6 679.4,176.7 679.6,180.1 679.8,179.0 680.0,180.7 680.2,186.5 680.3,194.2 680.5,207.2 680.7,209.6 680.9,215.5 681.1,216.6 681.2,214.3 681.4,227.2 681.6,225.7 681.8,225.6 682.0,224.9 682.1,230.0 682.3,236.9 682.5,239.4 682.7,232.9 682.9,234.3 683.0,225.9 683.2,229.9 683.4,237.3 683.6,240.4 683.8,230.6 683.9,225.0 684.1,229.5 684.3,230.3 684.5,234.8 684.7,215.0 684.8,218.7 685.0,222.2 685.2,223.4 685.4,223.1 685.6,225.6 685.7,228.1 685.9,217.6 686.1,219.3 686.3,222.6 686.5,227.5 686.6,231.3 686.8,235.4 687.0,234.8 687.2,237.8 687.4,244.9 687.5,240.8 687.7,242.5 687.9,247.5 688.1,243.2 688.3,227.9 688.4,229.6 688.6,229.5 688.8,227.9 689.0,233.8 689.2,234.5 689.3,237.5 689.5,248.8 689.7,244.1 689.9,248.8 690.1,240.5 690.2,238.0 690.4,238.8 690.6,235.4 690.8,231.1 691.0,233.6 691.1,236.1 691.3,242.6 691.5,238.6 691.7,241.7 691.9,243.2 692.0,240.2 692.2,242.1 692.4,236.1 692.6,240.0 692.8,229.6 692.9,225.6 693.1,222.5 693.3,220.7 693.5,224.6 693.7,222.7 693.8,225.1 694.0,226.6 694.2,219.0 694.4,212.1 694.6,211.1 694.7,211.7 694.9,209.2 695.1,207.5 695.3,199.4 695.5,201.7 695.6,202.7 695.8,217.5 696.0,213.1"/>
  <polyline fill="none" stroke="#16a34a" stroke-width="2" points="56.0,238.0 56.2,238.0 56.4,238.0 56.5,238.0 56.7,238.0 56.9,238.0 57.1,238.0 57.3,238.0 57.4,238.0 57.6,238.0 57.8,238.0 58.0,238.0 58.2,238.0 58.3,238.0 58.5,238.0 58.7,238.0 58.9,247.0 59.1,247.0 59.2,247.0 59.4,247.0 59.6,247.0 59.8,247.0 60.0,247.0 60.1,247.0 60.3,247.0 60.5,247.0 60.7,247.0 60.9,247.0 61.0,247.0 61.2,247.0 61.4,247.0 61.6,247.0 61.8,247.0 61.9,247.0 62.1,247.0 62.3,247.0 62.5,247.0 62.7,247.0 62.8,247.0 63.0,247.0 63.2,247.0 63.4,247.0 63.6,247.0 63.7,247.0 63.9,247.0 64.1,247.0 64.3,247.0 64.5,247.0 64.6,247.0 64.8,247.0 65.0,247.0 65.2,247.0 65.4,247.0 65.5,247.0 65.7,247.0 65.9,247.0 66.1,247.0 66.3,247.0 66.4,247.0 66.6,247.0 66.8,247.0 67.0,247.0 67.2,247.0 67.3,247.0 67.5,247.0 67.7,247.0 67.9,235.1 68.1,235.1 68.2,235.1 68.4,235.1 68.6,236.9 68.8,236.9 69.0,236.9 69.1,242.5 69.3,242.5 69.5,242.5 69.7,242.5 69.9,242.5 70.0,242.5 70.2,242.5 70.4,242.5 70.6,242.5 70.8,242.5 70.9,242.5 71.1,242.5 71.3,242.5 71.5,242.5 71.7,242.5 71.8,242.5 72.0,242.5 72.2,242.5 72.4,242.5 72.6,242.5 72.7,242.5 72.9,242.5 73.1,242.5 73.3,242.5 73.5,242.5 73.6,242.5 73.8,242.5 74.0,242.5 74.2,242.5 74.4,242.5 74.5,242.5 74.7,242.5 74.9,242.5 75.1,230.6 75.3,230.6 75.4,230.6 75.6,230.6 75.8,230.6 76.0,230.6 76.2,230.6 76.3,230.6 76.5,230.6 76.7,230.6 76.9,230.6 77.1,232.1 77.2,232.1 77.4,232.1 77.6,232.1 77.8,232.1 78.0,232.1 78.1,232.1 78.3,232.1 78.5,232.1 78.7,232.1 78.9,232.1 79.0,232.1 79.2,232.1 79.4,232.1 79.6,232.1 79.8,232.1 79.9,232.1 80.1,224.4 80.3,224.4 80.5,224.4 80.7,223.2 80.8,223.2 81.0,223.2 81.2,223.2 81.4,223.2 81.6,223.2 81.7,223.2 81.9,223.2 82.1,223.2 82.3,223.2 82.5,223.2 82.6,223.2 82.8,218.1 83.0,218.1 83.2,218.1 83.4,218.1 83.5,218.1 83.7,218.1 83.9,218.1 84.1,218.1 84.3,218.1 84.4,218.1 84.6,218.1 84.8,218.1 85.0,209.5 85.2,209.5 85.3,209.5 85.5,209.5 85.7,209.5 85.9,209.5 86.1,197.3 86.2,194.9 86.4,194.9 86.6,194.9 86.8,194.9 87.0,204.2 87.1,204.2 87.3,206.5 87.5,207.4 87.7,203.3 87.9,203.3 88.0,204.2 88.2,204.2 88.4,204.2 88.6,202.4 88.8,199.4 88.9,199.4 89.1,199.4 89.3,198.2 89.5,198.2 89.7,184.5 89.8,184.5 90.0,184.5 90.2,187.5 90.4,168.5 90.6,181.9 90.7,181.9 90.9,181.3 91.1,184.5 91.3,182.8 91.5,182.8 91.6,197.6 91.8,203.6 92.0,198.2 92.2,192.9 92.4,192.9 92.5,189.6 92.7,179.8 92.9,173.5 93.1,184.5 93.3,179.2 93.4,179.2 93.6,179.2 93.8,194.9 94.0,181.3 94.2,184.2 94.3,184.2 94.5,181.3 94.7,184.2 94.9,179.8 95.1,176.8 95.2,182.8 95.4,171.2 95.6,171.2 95.8,171.2 96.0,171.2 96.1,176.2 96.3,177.1 96.5,167.0 96.7,159.3 96.9,162.2 97.0,162.2 97.2,174.1 97.4,174.1 97.6,174.1 97.8,180.1 97.9,180.1 98.1,182.5 98.3,164.9 98.5,163.7 98.7,163.7 98.8,170.0 99.0,168.2 99.2,163.7 99.4,163.7 99.6,163.7 99.7,163.7 99.9,172.6 100.1,173.2 100.3,174.1 100.5,171.2 100.6,171.2 100.8,161.1 101.0,170.0 101.2,170.0 101.4,180.7 101.5,180.7 101.7,182.5 101.9,182.5 102.1,173.5 102.3,173.5 102.4,180.1 102.6,180.1 102.8,174.4 103.0,181.3 103.2,181.3 103.3,190.5 103.5,190.5 103.7,197.3 103.9,197.3 104.1,196.4 104.2,196.4 104.4,192.9 104.6,192.9 104.8,192.9 105.0,192.9 105.1,192.9 105.3,192.9 105.5,205.3 105.7,205.3 105.9,194.3 106.0,186.6 106.2,186.6 106.4,186.6 106.6,194.1 106.8,192.3 106.9,188.7 107.1,188.7 107.3,188.7 107.5,188.7 107.7,188.7 107.8,188.7 108.0,176.2 108.2,176.2 108.4,176.2 108.6,169.7 108.7,170.3 108.9,170.3 109.1,170.3 109.3,170.3 109.5,184.5 109.6,184.5 109.8,185.4 110.0,185.4 110.2,183.6 110.4,183.6 110.5,181.6 110.7,181.6 110.9,181.6 111.1,177.1 111.3,177.1 111.4,177.1 111.6,178.9 111.8,178.9 112.0,178.9 112.2,178.9 112.3,171.2 112.5,171.2 112.7,171.2 112.9,184.5 113.1,181.6 113.2,177.1 113.4,177.1 113.6,177.1 113.8,177.1 114.0,177.1 114.1,189.0 114.3,188.4 114.5,187.5 114.7,187.5 114.9,187.5 115.0,187.5 115.2,173.8 115.4,173.2 115.6,173.2 115.8,167.9 115.9,167.9 116.1,167.9 116.3,167.9 116.5,159.6 116.7,159.6 116.8,170.3 117.0,171.8 117.2,171.8 117.4,180.7 117.6,180.7 117.7,180.7 117.9,180.7 118.1,174.1 118.3,176.5 118.5,172.9 118.6,173.8 118.8,170.3 119.0,170.3 119.2,174.4 119.4,174.4 119.5,181.6 119.7,181.6 119.9,181.6 120.1,181.6 120.3,168.2 120.4,163.7 120.6,166.4 120.8,156.3 121.0,156.3 121.2,156.3 121.3,157.8 121.5,160.8 121.7,160.8 121.9,170.6 122.1,160.8 122.2,160.8 122.4,160.8 122.6,160.8 122.8,159.6 123.0,156.9 123.1,159.3 123.3,162.8 123.5,162.8 123.7,157.8 123.9,162.8 124.0,162.8 124.2,162.8 124.4,153.0 124.6,154.2 124.8,156.6 124.9,156.6 125.1,164.9 125.3,161.4 125.5,164.3 125.7,164.3 125.8,165.2 126.0,169.1 126.2,169.1 126.4,169.7 126.6,169.7 126.7,163.7 126.9,166.4 127.1,166.4 127.3,163.4 127.5,163.4 127.6,164.3 127.8,157.8 128.0,160.8 128.2,191.1 128.4,189.9 128.5,188.4 128.7,185.1 128.9,185.1 129.1,186.0 129.3,186.0 129.4,190.5 129.6,190.5 129.8,183.9 130.0,186.6 130.2,186.6 130.3,186.0 130.5,184.8 130.7,186.3 130.9,186.9 131.1,186.9 131.2,193.8 131.4,193.8 131.6,198.8 131.8,192.0 132.0,192.0 132.1,191.7 132.3,186.9 132.5,186.9 132.7,186.9 132.9,196.4 133.0,189.3 133.2,190.5 133.4,189.9 133.6,189.9 133.8,189.9 133.9,191.7 134.1,191.7 134.3,186.6 134.5,183.9 134.7,183.9 134.8,174.4 135.0,174.4 135.2,174.4 135.4,174.4 135.6,174.4 135.7,175.6 135.9,181.9 136.1,181.9 136.3,181.9 136.4,181.9 136.6,181.9 136.8,181.9 137.0,181.9 137.2,191.7 137.3,191.7 137.5,191.7 137.7,194.9 137.9,194.9 138.1,194.9 138.2,194.9 138.4,194.9 138.6,194.9 138.8,194.9 139.0,194.9 139.1,194.9 139.3,194.9 139.5,194.9 139.7,194.9 139.9,194.9 140.0,194.9 140.2,194.9 140.4,194.9 140.6,194.9 140.8,194.9 140.9,194.9 141.1,194.9 141.3,187.2 141.5,187.2 141.7,187.2 141.8,187.2 142.0,187.2 142.2,187.2 142.4,187.2 142.6,187.2 142.7,187.2 142.9,187.2 143.1,187.2 143.3,184.8 143.5,184.8 143.6,184.8 143.8,184.8 144.0,184.8 144.2,184.8 144.4,184.8 144.5,184.8 144.7,184.8 144.9,184.8 145.1,181.6 145.3,181.6 145.4,181.6 145.6,181.6 145.8,181.6 146.0,181.6 146.2,175.6 146.3,175.6 146.5,178.6 146.7,178.6 146.9,178.6 147.1,178.6 147.2,178.6 147.4,178.6 147.6,178.6 147.8,178.6 148.0,178.6 148.1,178.6 148.3,178.6 148.5,178.6 148.7,178.6 148.9,178.6 149.0,178.6 149.2,178.6 149.4,178.6 149.6,178.6 149.8,178.6 149.9,178.6 150.1,178.6 150.3,178.6 150.5,178.6 150.7,178.6 150.8,178.6 151.0,174.1 151.2,174.1 151.4,174.1 151.6,174.1 151.7,174.1 151.9,174.1 152.1,174.1 152.3,174.1 152.5,174.1 152.6,174.1 152.8,174.1 153.0,174.1 153.2,174.1 153.4,174.1 153.5,177.4 153.7,177.4 153.9,177.4 154.1,184.2 154.3,184.2 154.4,184.2 154.6,184.2 154.8,184.2 155.0,184.2 155.2,184.2 155.3,184.2 155.5,184.2 155.7,184.2 155.9,184.2 156.1,184.2 156.2,184.2 156.4,184.2 156.6,184.2 156.8,184.2 157.0,184.2 157.1,184.2 157.3,184.2 157.5,184.2 157.7,184.2 157.9,184.2 158.0,184.2 158.2,184.2 158.4,184.2 158.6,184.2 158.8,184.2 158.9,184.2 159.1,184.2 159.3,184.2 159.5,184.2 159.7,184.2 159.8,184.2 160.0,184.2 160.2,184.2 160.4,184.2 160.6,161.4 160.7,161.4 160.9,161.4 161.1,161.4 161.3,161.4 161.5,161.4 161.6,161.4 161.8,161.4 162.0,161.4 162.2,161.4 162.4,161.4 162.5,161.4 162.7,161.4 162.9,161.4 163.1,161.4 163.3,161.4 163.4,161.4 163.6,161.4 163.8,161.4 164.0,161.4 164.2,161.4 164.3,161.4 164.5,161.4 164.7,174.4 164.9,174.4 165.1,174.4 165.2,174.4 165.4,174.4 165.6,174.4 165.8,174.4 166.0,174.4 166.1,174.4 166.3,174.4 166.5,174.4 166.7,174.4 166.9,174.4 167.0,174.4 167.2,174.4 167.4,174.4 167.6,174.4 167.8,174.4 167.9,174.4 168.1,167.0 168.3,159.6 168.5,159.6 168.7,159.6 168.8,156.9 169.0,156.9 169.2,156.9 169.4,156.9 169.6,156.9 169.7,156.9 169.9,156.9 170.1,156.9 170.3,156.9 170.5,156.9 170.6,156.9 170.8,156.9 171.0,156.9 171.2,156.9 171.4,156.9 171.5,156.9 171.7,156.9 171.9,156.9 172.1,156.9 172.3,156.9 172.4,155.1 172.6,155.1 172.8,155.1 173.0,155.1 173.2,155.1 173.3,152.1 173.5,152.1 173.7,152.1 173.9,152.1 174.1,152.1 174.2,152.1 174.4,152.1 174.6,134.0 174.8,134.0 175.0,134.0 175.1,134.0 175.3,134.0 175.5,134.0 175.7,148.3 175.9,148.3 176.0,148.3 176.2,148.3 176.4,148.3 176.6,148.3 176.8,148.3 176.9,148.3 177.1,148.3 177.3,148.3 177.5,148.3 177.7,148.3 177.8,148.3 178.0,148.3 178.2,170.3 178.4,174.7 178.6,174.7 178.7,174.7 178.9,174.7 179.1,170.3 179.3,170.3 179.5,170.3 179.6,164.0 179.8,162.5 180.0,162.5 180.2,162.5 180.4,162.5 180.5,162.5 180.7,162.5 180.9,162.5 181.1,162.5 181.3,162.5 181.4,162.5 181.6,162.5 181.8,162.5 182.0,162.5 182.2,162.5 182.3,162.5 182.5,162.5 182.7,162.5 182.9,162.5 183.1,162.5 183.2,162.5 183.4,162.5 183.6,162.5 183.8,162.5 184.0,162.5 184.1,145.9 184.3,145.9 184.5,145.9 184.7,145.9 184.9,145.9 185.0,145.9 185.2,145.9 185.4,145.9 185.6,145.9 185.8,145.9 185.9,151.5 186.1,151.5 186.3,151.5 186.5,151.5 186.7,151.5 186.8,151.5 187.0,151.5 187.2,151.5 187.4,151.5 187.6,151.5 187.7,151.5 187.9,151.5 188.1,151.5 188.3,151.5 188.5,151.5 188.6,151.5 188.8,151.5 189.0,151.5 189.2,151.5 189.4,151.5 189.5,151.5 189.7,151.5 189.9,151.5 190.1,151.5 190.3,151.5 190.4,151.5 190.6,156.3 190.8,151.5 191.0,151.5 191.2,151.5 191.3,151.5 191.5,151.5 191.7,151.5 191.9,151.5 192.1,151.5 192.2,151.5 192.4,151.5 192.6,151.5 192.8,151.5 193.0,151.5 193.1,151.5 193.3,151.5 193.5,151.5 193.7,151.5 193.9,151.5 194.0,151.5 194.2,151.5 194.4,151.5 194.6,151.5 194.8,151.5 194.9,151.5 195.1,151.5 195.3,151.5 195.5,151.5 195.7,151.5 195.8,151.5 196.0,151.5 196.2,151.5 196.4,151.5 196.6,151.5 196.7,151.5 196.9,151.5 197.1,151.5 197.3,151.5 197.5,151.5 197.6,151.5 197.8,151.5 198.0,151.5 198.2,151.5 198.4,151.5 198.5,151.5 198.7,151.5 198.9,151.5 199.1,151.5 199.3,151.5 199.4,151.5 199.6,151.5 199.8,151.5 200.0,155.4 200.2,155.4 200.3,155.4 200.5,155.4 200.7,157.8 200.9,157.8 201.1,157.8 201.2,157.8 201.4,160.8 201.6,160.8 201.8,160.8 202.0,160.8 202.1,160.8 202.3,160.8 202.5,160.8 202.7,160.8 202.9,160.8 203.0,160.8 203.2,160.8 203.4,160.8 203.6,160.8 203.8,160.8 203.9,160.8 204.1,160.8 204.3,160.8 204.5,160.8 204.7,187.5 204.8,187.5 205.0,187.5 205.2,187.5 205.4,187.5 205.6,187.5 205.7,187.5 205.9,187.5 206.1,187.5 206.3,187.5 206.5,187.5 206.6,187.5 206.8,187.5 207.0,187.5 207.2,187.5 207.4,187.5 207.5,187.5 207.7,187.5 207.9,187.5 208.1,187.5 208.3,187.5 208.4,187.5 208.6,187.5 208.8,187.5 209.0,187.5 209.2,187.5 209.3,187.5 209.5,187.5 209.7,187.5 209.9,187.5 210.1,187.5 210.2,187.5 210.4,187.5 210.6,187.5 210.8,186.3 211.0,186.3 211.1,186.3 211.3,186.3 211.5,186.3 211.7,186.3 211.9,186.3 212.0,186.3 212.2,186.3 212.4,186.3 212.6,186.3 212.8,186.3 212.9,186.3 213.1,186.3 213.3,186.3 213.5,186.6 213.7,186.6 213.8,186.6 214.0,186.6 214.2,186.6 214.4,179.8 214.6,179.8 214.7,179.8 214.9,179.8 215.1,179.8 215.3,179.8 215.5,179.8 215.6,179.8 215.8,179.8 216.0,179.8 216.2,179.8 216.4,179.8 216.5,179.8 216.7,179.8 216.9,179.8 217.1,179.8 217.3,179.8 217.4,179.8 217.6,183.6 217.8,183.6 218.0,183.6 218.2,183.6 218.3,183.6 218.5,183.6 218.7,183.6 218.9,183.6 219.1,188.7 219.2,183.6 219.4,183.6 219.6,183.6 219.8,183.6 220.0,183.6 220.1,183.6 220.3,180.1 220.5,180.1 220.7,186.3 220.9,186.3 221.0,186.3 221.2,186.3 221.4,197.9 221.6,208.3 221.8,208.3 221.9,208.3 222.1,208.3 222.3,208.3 222.5,208.3 222.7,208.3 222.8,208.3 223.0,208.3 223.2,208.3 223.4,208.3 223.6,208.3 223.7,208.3 223.9,208.3 224.1,208.3 224.3,208.3 224.5,208.3 224.6,208.3 224.8,208.3 225.0,208.3 225.2,208.3 225.4,208.3 225.5,208.3 225.7,208.3 225.9,208.3 226.1,208.3 226.3,208.3 226.4,208.3 226.6,208.3 226.8,208.3 227.0,208.3 227.2,208.3 227.3,208.3 227.5,208.3 227.7,208.3 227.9,208.3 228.1,208.3 228.2,208.3 228.4,208.3 228.6,208.3 228.8,155.7 229.0,155.7 229.1,155.7 229.3,155.7 229.5,155.7 229.7,155.7 229.9,155.7 230.0,155.7 230.2,155.7 230.4,155.7 230.6,155.7 230.8,155.7 230.9,155.7 231.1,155.7 231.3,155.7 231.5,155.7 231.7,155.7 231.8,155.7 232.0,155.7 232.2,144.4 232.4,144.4 232.6,140.0 232.7,140.0 232.9,140.0 233.1,140.0 233.3,140.0 233.5,140.0 233.6,140.0 233.8,140.0 234.0,140.0 234.2,140.0 234.4,140.0 234.5,140.0 234.7,140.0 234.9,140.0 235.1,140.0 235.3,140.0 235.4,140.0 235.6,117.4 235.8,117.4 236.0,117.4 236.2,117.4 236.3,117.4 236.5,117.4 236.7,117.4 236.9,117.4 237.1,117.4 237.2,117.4 237.4,117.4 237.6,117.4 237.8,117.4 238.0,117.4 238.1,117.4 238.3,117.4 238.5,117.4 238.7,117.4 238.9,117.4 239.0,117.4 239.2,117.4 239.4,117.4 239.6,117.4 239.8,112.6 239.9,112.6 240.1,134.6 240.3,134.6 240.5,134.6 240.7,134.6 240.8,134.6 241.0,134.6 241.2,134.6 241.4,134.6 241.6,134.6 241.7,134.6 241.9,134.6 242.1,134.6 242.3,134.6 242.5,134.6 242.6,134.6 242.8,134.6 243.0,137.0 243.2,137.0 243.4,137.0 243.5,137.0 243.7,137.0 243.9,137.0 244.1,137.0 244.3,137.0 244.4,137.0 244.6,137.0 244.8,137.0 245.0,137.0 245.2,137.0 245.3,137.0 245.5,137.0 245.7,137.0 245.9,137.0 246.1,137.0 246.2,132.5 246.4,132.5 246.6,132.5 246.8,132.5 247.0,132.5 247.1,132.5 247.3,132.5 247.5,132.5 247.7,132.5 247.9,132.5 248.0,132.5 248.2,132.5 248.4,132.5 248.6,132.5 248.8,118.8 248.9,118.8 249.1,118.8 249.3,118.8 249.5,118.8 249.7,118.8 249.8,118.8 250.0,118.8 250.2,118.8 250.4,118.8 250.6,118.8 250.7,118.8 250.9,118.8 251.1,118.8 251.3,118.8 251.5,118.8 251.6,118.8 251.8,118.8 252.0,118.8 252.2,118.8 252.4,118.8 252.5,118.8 252.7,118.8 252.9,118.8 253.1,118.8 253.3,118.8 253.4,118.8 253.6,118.8 253.8,118.8 254.0,118.8 254.2,118.8 254.3,118.8 254.5,118.8 254.7,118.8 254.9,118.8 255.1,118.8 255.2,118.8 255.4,118.8 255.6,118.8 255.8,118.8 256.0,118.8 256.1,118.8 256.3,118.8 256.5,118.8 256.7,118.8 256.9,118.8 257.0,118.8 257.2,118.8 257.4,118.8 257.6,118.8 257.8,118.8 257.9,118.8 258.1,118.8 258.3,118.8 258.5,118.8 258.7,118.8 258.8,118.8 259.0,118.8 259.2,118.8 259.4,118.8 259.6,118.8 259.7,118.8 259.9,118.8 260.1,118.8 260.3,118.8 260.5,118.8 260.6,118.8 260.8,118.8 261.0,118.8 261.2,118.8 261.4,118.8 261.5,118.8 261.7,118.8 261.9,118.8 262.1,118.8 262.3,118.8 262.4,118.8 262.6,118.8 262.8,118.8 263.0,118.8 263.2,144.7 263.3,144.7 263.5,150.9 263.7,150.9 263.9,150.9 264.1,150.9 264.2,150.9 264.4,150.9 264.6,150.9 264.8,150.9 265.0,150.9 265.1,150.9 265.3,150.9 265.5,150.9 265.7,150.9 265.9,150.9 266.0,150.9 266.2,150.9 266.4,150.9 266.6,150.9 266.8,150.9 266.9,150.9 267.1,150.9 267.3,150.9 267.5,150.9 267.7,150.9 267.8,150.9 268.0,150.9 268.2,150.9 268.4,150.9 268.6,150.9 268.7,150.9 268.9,150.9 269.1,150.9 269.3,150.9 269.5,150.9 269.6,150.9 269.8,150.9 270.0,150.9 270.2,150.9 270.4,150.9 270.5,150.9 270.7,150.9 270.9,150.9 271.1,150.9 271.3,150.9 271.4,150.9 271.6,150.9 271.8,150.9 272.0,150.9 272.2,150.9 272.3,150.9 272.5,150.9 272.7,150.9 272.9,150.9 273.1,150.9 273.2,150.9 273.4,150.9 273.6,148.0 273.8,148.0 274.0,152.7 274.1,152.7 274.3,152.7 274.5,152.7 274.7,152.7 274.9,142.9 275.0,142.9 275.2,142.9 275.4,134.3 275.6,134.3 275.8,134.3 275.9,134.3 276.1,125.1 276.3,125.1 276.5,125.1 276.7,123.6 276.8,123.6 277.0,123.6 277.2,123.6 277.4,123.6 277.6,132.5 277.7,132.5 277.9,132.5 278.1,132.5 278.3,132.5 278.5,132.5 278.6,132.5 278.8,132.5 279.0,132.5 279.2,132.5 279.4,132.5 279.5,132.5 279.7,132.5 279.9,118.8 280.1,118.8 280.3,122.1 280.4,122.1 280.6,122.1 280.8,122.1 281.0,122.1 281.2,122.1 281.3,122.1 281.5,122.1 281.7,130.7 281.9,130.7 282.1,130.7 282.2,130.7 282.4,130.7 282.6,130.7 282.8,140.0 283.0,140.0 283.1,140.0 283.3,140.0 283.5,140.0 283.7,140.0 283.9,140.0 284.0,140.0 284.2,140.0 284.4,125.1 284.6,117.7 284.8,117.7 284.9,117.7 285.1,116.2 285.3,116.2 285.5,116.2 285.7,116.2 285.8,116.2 286.0,116.2 286.2,108.7 286.4,108.7 286.6,108.7 286.7,108.7 286.9,108.7 287.1,108.7 287.3,108.7 287.5,108.7 287.6,108.7 287.8,108.7 288.0,97.4 288.2,97.4 288.4,97.4 288.5,97.4 288.7,97.4 288.9,97.4 289.1,97.4 289.3,97.4 289.4,97.4 289.6,105.8 289.8,105.8 290.0,105.8 290.2,105.8 290.3,105.8 290.5,105.8 290.7,105.8 290.9,105.8 291.1,105.8 291.2,105.8 291.4,101.3 291.6,101.3 291.8,101.3 292.0,101.3 292.1,101.3 292.3,101.3 292.5,101.3 292.7,101.3 292.9,101.3 293.0,101.3 293.2,101.3 293.4,101.3 293.6,101.3 293.8,101.3 293.9,101.3 294.1,101.3 294.3,92.4 294.5,95.4 294.7,87.3 294.8,87.3 295.0,87.3 295.2,87.3 295.4,87.3 295.6,87.3 295.7,87.3 295.9,87.3 296.1,87.3 296.3,87.3 296.4,87.3 296.6,87.3 296.8,87.3 297.0,87.3 297.2,87.3 297.3,87.3 297.5,87.3 297.7,87.3 297.9,87.3 298.1,87.3 298.2,87.3 298.4,87.3 298.6,87.3 298.8,87.3 299.0,87.3 299.1,108.7 299.3,108.7 299.5,108.7 299.7,108.7 299.9,108.7 300.0,108.7 300.2,108.7 300.4,108.7 300.6,108.7 300.8,108.7 300.9,108.7 301.1,108.7 301.3,108.7 301.5,108.7 301.7,108.7 301.8,108.7 302.0,108.7 302.2,108.7 302.4,108.7 302.6,108.7 302.7,108.7 302.9,108.7 303.1,108.7 303.3,108.7 303.5,108.7 303.6,108.7 303.8,108.7 304.0,108.7 304.2,108.7 304.4,108.7 304.5,108.7 304.7,108.7 304.9,108.7 305.1,108.7 305.3,108.7 305.4,108.7 305.6,129.0 305.8,129.0 306.0,129.0 306.2,129.0 306.3,129.0 306.5,129.0 306.7,129.0 306.9,129.0 307.1,131.0 307.2,131.0 307.4,131.0 307.6,131.0 307.8,131.0 308.0,131.0 308.1,131.0 308.3,131.0 308.5,131.0 308.7,131.0 308.9,131.0 309.0,131.0 309.2,131.0 309.4,131.0 309.6,131.0 309.8,131.0 309.9,131.0 310.1,131.0 310.3,116.2 310.5,116.2 310.7,116.2 310.8,116.2 311.0,116.2 311.2,116.2 311.4,116.2 311.6,116.2 311.7,116.2 311.9,116.2 312.1,116.2 312.3,116.2 312.5,116.2 312.6,116.2 312.8,122.1 313.0,122.1 313.2,122.1 313.4,122.1 313.5,122.4 313.7,117.7 313.9,117.7 314.1,117.7 314.3,117.7 314.4,117.7 314.6,117.7 314.8,117.7 315.0,117.7 315.2,117.7 315.3,117.7 315.5,117.7 315.7,117.7 315.9,117.7 316.1,117.7 316.2,126.9 316.4,126.9 316.6,138.5 316.8,142.9 317.0,142.9 317.1,142.9 317.3,142.9 317.5,136.7 317.7,136.7 317.9,136.7 318.0,136.7 318.2,136.7 318.4,147.7 318.6,147.7 318.8,147.7 318.9,147.7 319.1,147.7 319.3,147.7 319.5,147.7 319.7,147.7 319.8,147.7 320.0,147.7 320.2,139.4 320.4,139.4 320.6,139.4 320.7,139.4 320.9,139.4 321.1,139.4 321.3,139.4 321.5,139.4 321.6,147.4 321.8,147.4 322.0,147.4 322.2,147.4 322.4,147.4 322.5,147.4 322.7,153.3 322.9,153.3 323.1,147.4 323.3,147.4 323.4,147.4 323.6,147.4 323.8,147.4 324.0,142.3 324.2,144.4 324.3,144.4 324.5,144.4 324.7,144.4 324.9,144.4 325.1,144.4 325.2,144.4 325.4,144.4 325.6,144.4 325.8,163.7 326.0,163.7 326.1,163.7 326.3,163.7 326.5,163.7 326.7,163.7 326.9,156.9 327.0,156.9 327.2,157.2 327.4,157.2 327.6,157.2 327.8,157.2 327.9,157.2 328.1,157.2 328.3,157.2 328.5,157.2 328.7,157.2 328.8,157.2 329.0,157.2 329.2,157.2 329.4,157.2 329.6,157.2 329.7,157.2 329.9,157.2 330.1,157.2 330.3,157.2 330.5,154.8 330.6,154.8 330.8,154.8 331.0,154.8 331.2,152.4 331.4,152.4 331.5,165.2 331.7,165.2 331.9,169.7 332.1,169.7 332.3,169.7 332.4,169.7 332.6,169.7 332.8,169.7 333.0,148.9 333.2,154.8 333.3,154.8 333.5,154.8 333.7,165.2 333.9,158.4 334.1,156.3 334.2,156.3 334.4,156.3 334.6,156.3 334.8,153.6 335.0,153.6 335.1,153.6 335.3,153.6 335.5,153.6 335.7,153.6 335.9,153.6 336.0,153.6 336.2,153.6 336.4,153.6 336.6,153.6 336.8,153.6 336.9,153.6 337.1,137.0 337.3,137.0 337.5,137.0 337.7,137.0 337.8,137.0 338.0,137.0 338.2,151.8 338.4,151.8 338.6,160.8 338.7,160.8 338.9,160.8 339.1,160.8 339.3,160.8 339.5,160.8 339.6,160.8 339.8,157.8 340.0,157.8 340.2,157.8 340.4,157.8 340.5,157.8 340.7,159.9 340.9,159.9 341.1,159.9 341.3,159.9 341.4,159.9 341.6,159.9 341.8,159.9 342.0,159.9 342.2,159.9 342.3,174.1 342.5,168.8 342.7,168.8 342.9,168.8 343.1,168.8 343.2,168.8 343.4,177.1 343.6,177.1 343.8,177.1 344.0,177.1 344.1,177.1 344.3,172.6 344.5,171.2 344.7,171.2 344.9,172.6 345.0,172.6 345.2,183.1 345.4,183.1 345.6,187.5 345.8,187.5 345.9,187.5 346.1,193.2 346.3,193.2 346.5,193.2 346.7,190.5 346.8,190.5 347.0,190.5 347.2,190.5 347.4,199.4 347.6,199.4 347.7,199.4 347.9,199.4 348.1,199.4 348.3,199.4 348.5,199.4 348.6,199.4 348.8,199.4 349.0,199.4 349.2,199.4 349.4,199.4 349.5,181.9 349.7,181.9 349.9,177.1 350.1,178.6 350.3,181.6 350.4,177.1 350.6,176.8 350.8,171.2 351.0,171.2 351.2,171.2 351.3,178.6 351.5,178.6 351.7,178.6 351.9,178.6 352.1,178.6 352.2,182.5 352.4,173.8 352.6,173.8 352.8,173.8 353.0,173.8 353.1,173.8 353.3,173.8 353.5,173.8 353.7,182.8 353.9,181.6 354.0,181.6 354.2,181.6 354.4,184.5 354.6,184.5 354.8,184.5 354.9,192.0 355.1,199.4 355.3,199.4 355.5,206.8 355.7,206.8 355.8,190.5 356.0,190.5 356.2,190.5 356.4,190.5 356.6,190.5 356.7,184.5 356.9,186.3 357.1,186.0 357.3,184.2 357.5,184.2 357.6,184.2 357.8,189.0 358.0,189.0 358.2,182.5 358.4,183.1 358.5,183.1 358.7,178.9 358.9,178.9 359.1,178.9 359.3,178.9 359.4,178.9 359.6,178.9 359.8,178.9 360.0,178.9 360.2,178.9 360.3,167.0 360.5,167.0 360.7,160.8 360.9,160.8 361.1,161.7 361.2,161.7 361.4,161.7 361.6,161.7 361.8,161.7 362.0,161.7 362.1,161.7 362.3,161.7 362.5,161.7 362.7,148.9 362.9,148.9 363.0,148.9 363.2,148.9 363.4,148.9 363.6,148.9 363.8,160.8 363.9,159.6 364.1,159.6 364.3,159.6 364.5,159.6 364.7,155.1 364.8,155.7 365.0,155.7 365.2,155.7 365.4,155.7 365.6,155.7 365.7,155.7 365.9,149.2 366.1,145.9 366.3,146.5 366.5,146.5 366.6,145.9 366.8,147.4 367.0,147.4 367.2,137.6 367.4,137.6 367.5,137.6 367.7,137.6 367.9,145.0 368.1,139.4 368.3,132.5 368.4,132.5 368.6,132.5 368.8,132.5 369.0,132.5 369.2,135.5 369.3,139.7 369.5,139.7 369.7,142.0 369.9,137.0 370.1,137.0 370.2,140.0 370.4,140.0 370.6,140.0 370.8,140.0 371.0,140.0 371.1,140.0 371.3,119.4 371.5,119.4 371.7,119.4 371.9,119.4 372.0,119.4 372.2,119.4 372.4,119.4 372.6,119.4 372.8,119.4 372.9,119.4 373.1,119.4 373.3,119.4 373.5,119.4 373.7,119.4 373.8,119.4 374.0,119.4 374.2,119.4 374.4,119.4 374.6,119.4 374.7,135.5 374.9,135.5 375.1,135.5 375.3,135.5 375.5,135.5 375.6,135.5 375.8,135.5 376.0,134.6 376.2,133.4 376.4,140.5 376.5,142.0 376.7,150.4 376.9,145.9 377.1,152.1 377.3,143.8 377.4,139.4 377.6,135.8 377.8,126.3 378.0,124.8 378.2,125.4 378.3,125.4 378.5,127.2 378.7,122.7 378.9,119.7 379.1,121.8 379.2,126.9 379.4,139.4 379.6,141.1 379.8,137.6 380.0,135.5 380.1,137.6 380.3,142.9 380.5,134.6 380.7,131.6 380.9,131.9 381.0,147.7 381.2,144.1 381.4,146.2 381.6,140.5 381.8,141.1 381.9,143.8 382.1,151.5 382.3,151.8 382.5,154.5 382.7,153.6 382.8,160.8 383.0,162.5 383.2,156.9 383.4,151.5 383.6,155.7 383.7,161.7 383.9,156.9 384.1,171.2 384.3,178.6 384.5,172.1 384.6,166.4 384.8,170.6 385.0,180.1 385.2,183.4 385.4,186.3 385.5,178.0 385.7,176.2 385.9,178.3 386.1,177.4 386.3,175.0 386.4,178.3 386.6,178.3 386.8,176.5 387.0,173.5 387.2,175.3 387.3,167.9 387.5,165.5 387.7,166.7 387.9,163.1 388.1,179.5 388.2,176.8 388.4,175.0 388.6,175.9 388.8,179.8 389.0,180.1 389.1,181.6 389.3,180.1 389.5,181.3 389.7,177.7 389.9,177.1 390.0,183.1 390.2,186.9 390.4,183.1 390.6,184.8 390.8,187.8 390.9,192.6 391.1,189.9 391.3,189.9 391.5,181.6 391.7,181.9 391.8,181.9 392.0,187.8 392.2,181.9 392.4,181.9 392.6,179.2 392.7,179.8 392.9,178.3 393.1,185.4 393.3,178.0 393.5,182.2 393.6,185.1 393.8,182.8 394.0,183.9 394.2,177.7 394.4,172.9 394.5,169.7 394.7,170.6 394.9,176.2 395.1,176.5 395.3,175.3 395.4,174.7 395.6,173.8 395.8,171.2 396.0,169.1 396.2,169.1 396.3,165.5 396.5,174.7 396.7,172.6 396.9,167.9 397.1,166.4 397.2,165.2 397.4,160.8 397.6,161.9 397.8,164.6 398.0,167.6 398.1,164.3 398.3,159.9 398.5,155.7 398.7,156.9 398.9,159.3 399.0,155.4 399.2,149.5 399.4,153.0 399.6,147.1 399.8,145.6 399.9,146.8 400.1,145.9 400.3,146.8 400.5,142.6 400.7,146.2 400.8,144.4 401.0,141.4 401.2,144.4 401.4,144.7 401.6,150.9 401.7,155.1 401.9,157.2 402.1,159.9 402.3,158.7 402.5,157.8 402.6,156.3 402.8,149.2 403.0,151.2 403.2,149.8 403.4,145.3 403.5,142.9 403.7,148.9 403.9,148.0 404.1,148.0 404.3,155.1 404.4,146.8 404.6,143.2 404.8,144.4 405.0,145.0 405.2,152.1 405.3,149.5 405.5,143.8 405.7,139.4 405.9,139.7 406.1,145.3 406.2,145.6 406.4,140.8 406.6,155.7 406.8,164.9 407.0,163.4 407.1,163.4 407.3,164.3 407.5,161.7 407.7,162.5 407.9,171.8 408.0,179.5 408.2,176.8 408.4,185.7 408.6,189.9 408.8,175.9 408.9,181.9 409.1,176.5 409.3,187.8 409.5,189.9 409.7,203.0 409.8,200.3 410.0,229.4 410.2,267.8 410.4,264.2 410.6,290.1 410.7,281.7 410.9,277.0 411.1,246.1 411.3,249.9 411.5,270.2 411.6,243.4 411.8,237.8 412.0,225.3 412.2,235.1 412.4,220.8 412.5,225.6 412.7,233.3 412.9,223.8 413.1,233.9 413.3,222.6 413.4,225.3 413.6,214.0 413.8,194.6 414.0,202.4 414.2,198.2 414.3,209.8 414.5,215.5 414.7,205.9 414.9,210.1 415.1,221.4 415.2,218.4 415.4,222.9 415.6,216.6 415.8,208.9 416.0,198.8 416.1,192.3 416.3,200.3 416.5,208.9 416.7,208.6 416.9,211.9 417.0,214.9 417.2,211.0 417.4,200.3 417.6,204.5 417.8,196.1 417.9,196.1 418.1,196.7 418.3,196.4 418.5,180.4 418.7,187.5 418.8,186.0 419.0,185.1 419.2,181.6 419.4,169.7 419.6,173.8 419.7,169.7 419.9,163.4 420.1,164.3 420.3,159.9 420.5,154.8 420.6,153.9 420.8,143.5 421.0,154.8 421.2,163.7 421.4,175.0 421.5,193.8 421.7,175.3 421.9,163.7 422.1,161.9 422.3,161.7 422.4,161.4 422.6,160.5 422.8,161.7 423.0,162.5 423.2,170.9 423.3,169.4 423.5,179.5 423.7,171.2 423.9,163.4 424.1,159.9 424.2,151.8 424.4,147.4 424.6,151.2 424.8,156.3 425.0,158.7 425.1,154.5 425.3,157.5 425.5,151.5 425.7,148.9 425.9,147.4 426.0,146.8 426.2,148.0 426.4,144.4 426.6,142.9 426.8,147.7 426.9,149.8 427.1,145.3 427.3,148.6 427.5,151.2 427.7,159.0 427.8,160.8 428.0,156.6 428.2,148.9 428.4,149.2 428.6,145.9 428.7,145.6 428.9,137.0 429.1,137.6 429.3,134.3 429.5,134.0 429.6,134.0 429.8,130.7 430.0,137.6 430.2,131.3 430.4,131.6 430.5,136.7 430.7,143.8 430.9,143.8 431.1,141.4 431.3,137.9 431.4,132.5 431.6,138.2 431.8,132.8 432.0,127.2 432.2,137.6 432.3,139.4 432.5,146.8 432.7,139.7 432.9,136.7 433.1,138.2 433.2,135.5 433.4,133.7 433.6,134.3 433.8,130.4 434.0,132.5 434.1,139.7 434.3,138.8 434.5,152.4 434.7,152.4 434.9,145.3 435.0,142.6 435.2,144.4 435.4,138.5 435.6,139.7 435.8,139.7 435.9,136.1 436.1,139.7 436.3,133.1 436.5,129.8 436.7,127.5 436.8,127.2 437.0,127.8 437.2,128.1 437.4,126.0 437.6,125.1 437.7,131.6 437.9,134.3 438.1,137.6 438.3,138.8 438.5,140.8 438.6,150.9 438.8,152.7 439.0,160.2 439.2,154.8 439.4,156.9 439.5,144.4 439.7,135.8 439.9,137.3 440.1,124.8 440.3,124.5 440.4,109.0 440.6,114.4 440.8,112.3 441.0,123.6 441.2,116.5 441.3,105.8 441.5,112.3 441.7,115.0 441.9,112.6 442.1,112.3 442.2,123.0 442.4,116.2 442.6,122.4 442.8,125.7 443.0,130.1 443.1,124.2 443.3,126.0 443.5,126.9 443.7,123.9 443.9,129.5 444.0,123.9 444.2,121.8 444.4,124.2 444.6,126.9 444.8,131.9 444.9,123.9 445.1,128.1 445.3,123.3 445.5,120.3 445.7,126.0 445.8,125.1 446.0,123.3 446.2,120.9 446.4,122.4 446.6,122.1 446.7,118.0 446.9,117.1 447.1,128.7 447.3,126.3 447.5,116.8 447.6,119.7 447.8,125.1 448.0,123.9 448.2,121.2 448.4,127.2 448.5,128.4 448.7,138.5 448.9,141.4 449.1,133.1 449.3,132.5 449.4,137.3 449.6,140.8 449.8,133.7 450.0,138.2 450.2,134.6 450.3,141.7 450.5,143.2 450.7,142.0 450.9,139.7 451.1,134.6 451.2,126.0 451.4,126.0 451.6,132.8 451.8,127.2 452.0,131.0 452.1,125.1 452.3,132.5 452.5,131.0 452.7,127.5 452.9,127.5 453.0,127.5 453.2,129.0 453.4,127.8 453.6,129.8 453.8,141.7 453.9,131.3 454.1,127.2 454.3,126.0 454.5,131.9 454.7,121.8 454.8,117.4 455.0,117.7 455.2,112.3 455.4,118.2 455.6,117.1 455.7,117.4 455.9,125.1 456.1,120.9 456.3,129.2 456.4,131.0 456.6,127.8 456.8,129.0 457.0,130.7 457.2,122.7 457.3,116.8 457.5,116.2 457.7,118.0 457.9,119.7 458.1,120.3 458.2,113.5 458.4,110.8 458.6,121.2 458.8,123.0 459.0,118.2 459.1,118.5 459.3,116.8 459.5,118.0 459.7,113.5 459.9,111.7 460.0,114.4 460.2,114.4 460.4,112.0 460.6,120.6 460.8,118.2 460.9,118.0 461.1,120.0 461.3,119.4 461.5,113.5 461.7,117.7 461.8,116.5 462.0,97.4 462.2,101.9 462.4,95.7 462.6,96.8 462.7,96.8 462.9,98.3 463.1,105.8 463.3,98.9 463.5,99.2 463.6,101.6 463.8,104.6 464.0,109.9 464.2,110.5 464.4,110.8 464.5,112.0 464.7,118.5 464.9,116.8 465.1,113.8 465.3,116.2 465.4,113.5 465.6,114.4 465.8,112.0 466.0,105.8 466.2,107.3 466.3,107.8 466.5,108.1 466.7,108.1 466.9,103.1 467.1,105.8 467.2,109.9 467.4,115.6 467.6,123.9 467.8,129.2 468.0,126.0 468.1,123.9 468.3,125.4 468.5,124.5 468.7,121.8 468.9,123.6 469.0,126.3 469.2,126.3 469.4,123.3 469.6,123.9 469.8,126.9 469.9,123.6 470.1,128.4 470.3,124.8 470.5,124.8 470.7,123.3 470.8,123.9 471.0,123.0 471.2,126.9 471.4,132.5 471.6,132.2 471.7,129.2 471.9,129.0 472.1,131.0 472.3,125.4 472.5,124.2 472.6,122.7 472.8,120.9 473.0,123.3 473.2,124.5 473.4,120.0 473.5,122.1 473.7,119.7 473.9,118.2 474.1,115.6 474.3,111.7 474.4,104.9 474.6,108.7 474.8,105.8 475.0,103.7 475.2,107.3 475.3,106.1 475.5,98.3 475.7,86.7 475.9,90.0 476.1,91.8 476.2,86.4 476.4,90.9 476.6,87.0 476.8,86.7 477.0,85.0 477.1,89.7 477.3,87.9 477.5,90.0 477.7,103.7 477.9,100.7 478.0,106.4 478.2,101.3 478.4,101.3 478.6,100.7 478.8,98.3 478.9,106.4 479.1,114.7 479.3,116.8 479.5,119.4 479.7,118.0 479.8,115.6 480.0,116.5 480.2,114.1 480.4,119.1 480.6,118.2 480.7,122.4 480.9,119.4 481.1,121.2 481.3,116.2 481.5,117.7 481.6,115.0 481.8,118.8 482.0,121.5 482.2,120.9 482.4,120.0 482.5,112.9 482.7,111.7 482.9,112.9 483.1,109.6 483.3,109.0 483.4,109.3 483.6,105.5 483.8,107.8 484.0,109.9 484.2,109.3 484.3,105.8 484.5,108.1 484.7,112.0 484.9,107.8 485.1,101.3 485.2,105.5 485.4,106.1 485.6,104.3 485.8,101.0 486.0,100.1 486.1,99.5 486.3,98.9 486.5,98.6 486.7,101.0 486.9,105.8 487.0,109.6 487.2,113.2 487.4,111.4 487.6,117.1 487.8,120.3 487.9,123.9 488.1,122.7 488.3,130.4 488.5,132.2 488.7,125.7 488.8,130.7 489.0,123.0 489.2,122.4 489.4,121.5 489.6,123.3 489.7,122.1 489.9,120.0 490.1,120.0 490.3,111.7 490.5,109.0 490.6,116.5 490.8,122.1 491.0,118.0 491.2,121.8 491.4,120.3 491.5,115.9 491.7,114.4 491.9,111.7 492.1,111.4 492.3,109.9 492.4,113.8 492.6,108.1 492.8,107.5 493.0,110.5 493.2,106.7 493.3,105.8 493.5,107.0 493.7,106.1 493.9,101.9 494.1,99.2 494.2,101.9 494.4,98.0 494.6,106.4 494.8,111.7 495.0,112.6 495.1,116.5 495.3,117.4 495.5,116.2 495.7,112.0 495.9,109.9 496.0,104.3 496.2,106.4 496.4,117.4 496.6,123.3 496.8,125.4 496.9,121.5 497.1,116.8 497.3,121.5 497.5,122.4 497.7,123.0 497.8,115.9 498.0,117.1 498.2,116.5 498.4,113.8 498.6,119.1 498.7,121.2 498.9,125.7 499.1,116.2 499.3,121.2 499.5,132.2 499.6,127.5 499.8,129.5 500.0,131.3 500.2,146.2 500.4,141.7 500.5,137.3 500.7,142.9 500.9,142.9 501.1,131.3 501.3,132.8 501.4,126.3 501.6,121.8 501.8,120.0 502.0,126.3 502.2,126.6 502.3,133.4 502.5,131.6 502.7,129.8 502.9,129.5 503.1,123.0 503.2,124.2 503.4,130.1 503.6,123.9 503.8,125.7 504.0,125.7 504.1,125.1 504.3,124.2 504.5,118.5 504.7,118.2 504.9,120.3 505.0,119.1 505.2,120.0 505.4,124.2 505.6,117.4 505.8,109.9 505.9,112.3 506.1,122.7 506.3,120.6 506.5,121.8 506.7,109.6 506.8,106.1 507.0,114.4 507.2,119.1 507.4,111.1 507.6,76.9 507.7,91.2 507.9,86.1 508.1,92.1 508.3,93.6 508.5,95.1 508.6,93.3 508.8,87.3 509.0,82.3 509.2,70.7 509.4,88.5 509.5,81.7 509.7,82.6 509.9,79.0 510.1,81.7 510.3,81.4 510.4,77.5 510.6,71.3 510.8,77.5 511.0,74.8 511.2,67.1 511.3,68.9 511.5,65.9 511.7,66.2 511.9,70.1 512.1,75.4 512.2,87.6 512.4,101.6 512.6,107.5 512.8,107.3 513.0,118.8 513.1,118.5 513.3,112.6 513.5,114.4 513.7,112.0 513.9,98.0 514.0,99.2 514.2,100.4 514.4,93.9 514.6,97.4 514.8,94.5 514.9,97.1 515.1,90.9 515.3,90.6 515.5,97.1 515.7,92.4 515.8,96.5 516.0,98.9 516.2,98.6 516.4,96.0 516.6,100.4 516.7,91.5 516.9,96.0 517.1,91.2 517.3,92.4 517.5,88.2 517.6,83.5 517.8,84.1 518.0,79.3 518.2,82.0 518.4,79.3 518.5,87.9 518.7,88.8 518.9,92.7 519.1,102.2 519.3,98.6 519.4,98.3 519.6,89.1 519.8,91.5 520.0,86.1 520.2,79.6 520.3,71.9 520.5,80.2 520.7,88.8 520.9,96.0 521.1,96.0 521.2,93.0 521.4,90.3 521.6,82.9 521.8,97.7 522.0,102.5 522.1,104.9 522.3,109.9 522.5,110.2 522.7,109.6 522.9,114.7 523.0,107.3 523.2,104.9 523.4,101.6 523.6,99.2 523.8,112.0 523.9,118.0 524.1,116.5 524.3,120.3 524.5,117.4 524.7,126.9 524.8,133.4 525.0,135.5 525.2,140.5 525.4,145.9 525.6,149.8 525.7,142.9 525.9,147.4 526.1,148.0 526.3,139.1 526.5,131.6 526.6,137.3 526.8,137.9 527.0,146.5 527.2,143.2 527.4,146.5 527.5,152.1 527.7,138.2 527.9,144.7 528.1,140.2 528.3,134.0 528.4,138.2 528.6,143.2 528.8,131.0 529.0,131.0 529.2,126.0 529.3,125.7 529.5,123.9 529.7,117.7 529.9,122.7 530.1,122.4 530.2,144.7 530.4,146.8 530.6,135.2 530.8,133.4 531.0,133.4 531.1,139.4 531.3,121.5 531.5,120.9 531.7,116.5 531.9,117.1 532.0,119.4 532.2,116.5 532.4,115.6 532.6,110.5 532.8,110.5 532.9,107.8 533.1,107.8 533.3,110.5 533.5,107.0 533.7,99.8 533.8,98.9 534.0,95.4 534.2,102.2 534.4,105.8 534.6,106.4 534.7,97.4 534.9,99.2 535.1,96.0 535.3,93.6 535.5,96.0 535.6,102.5 535.8,107.8 536.0,109.6 536.2,108.7 536.4,107.3 536.5,110.8 536.7,108.4 536.9,107.8 537.1,112.9 537.3,109.6 537.4,112.9 537.6,112.6 537.8,109.3 538.0,112.6 538.2,104.3 538.3,104.3 538.5,106.7 538.7,104.9 538.9,104.3 539.1,106.4 539.2,105.8 539.4,113.8 539.6,117.7 539.8,113.8 540.0,110.2 540.1,118.0 540.3,116.8 540.5,115.3 540.7,111.7 540.9,116.8 541.0,108.4 541.2,108.1 541.4,104.3 541.6,109.3 541.8,112.3 541.9,113.5 542.1,132.2 542.3,133.4 542.5,130.1 542.7,126.6 542.8,128.1 543.0,124.8 543.2,127.8 543.4,127.5 543.6,137.6 543.7,135.8 543.9,131.0 544.1,131.6 544.3,130.1 544.5,135.8 544.6,135.5 544.8,133.7 545.0,133.1 545.2,138.5 545.4,142.3 545.5,141.4 545.7,144.4 545.9,147.7 546.1,147.4 546.3,143.2 546.4,147.7 546.6,146.2 546.8,148.9 547.0,142.3 547.2,140.2 547.3,145.6 547.5,144.7 547.7,142.0 547.9,140.8 548.1,139.1 548.2,136.7 548.4,135.8 548.6,128.7 548.8,131.0 549.0,133.4 549.1,130.7 549.3,132.5 549.5,137.3 549.7,140.2 549.9,139.4 550.0,134.3 550.2,137.0 550.4,137.0 550.6,135.2 550.8,137.6 550.9,139.4 551.1,138.2 551.3,137.9 551.5,145.3 551.7,148.3 551.8,142.3 552.0,140.8 552.2,138.2 552.4,142.3 552.6,169.4 552.7,163.4 552.9,157.2 553.1,156.0 553.3,160.5 553.5,158.1 553.6,159.0 553.8,160.8 554.0,159.0 554.2,163.1 554.4,162.2 554.5,163.1 554.7,162.8 554.9,161.7 555.1,166.1 555.3,171.5 555.4,175.3 555.6,175.9 555.8,177.4 556.0,180.4 556.2,178.0 556.3,170.6 556.5,169.7 556.7,169.7 556.9,166.4 557.1,167.3 557.2,169.4 557.4,168.8 557.6,164.9 557.8,164.9 558.0,161.4 558.1,159.3 558.3,164.0 558.5,165.2 558.7,167.6 558.9,173.5 559.0,170.9 559.2,167.6 559.4,175.3 559.6,172.6 559.8,170.3 559.9,167.3 560.1,176.8 560.3,174.7 560.5,171.5 560.7,178.3 560.8,173.5 561.0,172.9 561.2,170.3 561.4,171.8 561.6,173.2 561.7,171.2 561.9,170.3 562.1,171.2 562.3,169.1 562.5,166.4 562.6,164.3 562.8,165.2 563.0,164.3 563.2,163.1 563.4,161.9 563.5,169.4 563.7,174.1 563.9,176.5 564.1,174.1 564.3,172.4 564.4,178.3 564.6,178.6 564.8,178.0 565.0,178.9 565.2,180.1 565.3,185.1 565.5,187.2 565.7,182.5 565.9,182.5 566.1,186.0 566.2,190.2 566.4,188.4 566.6,187.5 566.8,186.9 567.0,183.6 567.1,178.3 567.3,177.1 567.5,177.4 567.7,176.2 567.9,185.1 568.0,191.1 568.2,194.9 568.4,192.0 568.6,186.6 568.8,186.3 568.9,193.2 569.1,183.6 569.3,189.0 569.5,191.1 569.7,193.8 569.8,191.7 570.0,196.1 570.2,197.9 570.4,193.8 570.6,196.4 570.7,198.5 570.9,194.3 571.1,194.6 571.3,197.6 571.5,201.5 571.6,197.9 571.8,201.5 572.0,203.9 572.2,200.0 572.4,199.7 572.5,200.9 572.7,208.6 572.9,208.0 573.1,202.7 573.3,203.9 573.4,209.5 573.6,210.7 573.8,214.0 574.0,215.8 574.2,210.4 574.3,212.5 574.5,208.9 574.7,209.5 574.9,203.6 575.1,202.7 575.2,208.0 575.4,205.1 575.6,196.1 575.8,197.6 576.0,197.9 576.1,197.3 576.3,199.7 576.5,197.3 576.7,200.9 576.9,191.7 577.0,189.0 577.2,191.1 577.4,188.4 577.6,188.4 577.8,192.3 577.9,191.1 578.1,188.7 578.3,189.0 578.5,190.5 578.7,184.8 578.8,185.1 579.0,182.8 579.2,185.1 579.4,188.4 579.6,187.2 579.7,180.4 579.9,180.1 580.1,182.5 580.3,186.3 580.5,177.4 580.6,178.3 580.8,181.6 581.0,179.2 581.2,177.4 581.4,181.0 581.5,178.3 581.7,179.2 581.9,179.2 582.1,178.0 582.3,178.3 582.4,180.4 582.6,177.1 582.8,181.6 583.0,180.4 583.2,177.4 583.3,175.3 583.5,176.5 583.7,176.8 583.9,174.4 584.1,177.1 584.2,182.2 584.4,185.7 584.6,186.0 584.8,185.4 585.0,185.7 585.1,185.4 585.3,190.2 585.5,185.4 585.7,183.4 585.9,182.2 586.0,182.8 586.2,186.6 586.4,185.7 586.6,187.8 586.8,192.9 586.9,194.1 587.1,188.1 587.3,194.6 587.5,196.4 587.7,194.1 587.8,203.0 588.0,200.9 588.2,199.7 588.4,198.2 588.6,195.8 588.7,193.2 588.9,191.7 589.1,191.4 589.3,195.2 589.5,200.9 589.6,203.3 589.8,197.6 590.0,196.7 590.2,194.3 590.4,194.3 590.5,193.5 590.7,186.9 590.9,188.7 591.1,185.4 591.3,184.8 591.4,183.9 591.6,186.6 591.8,185.1 592.0,186.9 592.2,188.1 592.3,194.9 592.5,191.1 592.7,192.6 592.9,190.8 593.1,193.8 593.2,185.1 593.4,184.2 593.6,186.0 593.8,190.2 594.0,194.1 594.1,194.3 594.3,193.2 594.5,194.9 594.7,188.1 594.9,196.1 595.0,197.3 595.2,202.1 595.4,201.2 595.6,204.5 595.8,204.5 595.9,202.4 596.1,200.3 596.3,198.5 596.5,200.0 596.7,197.6 596.8,200.9 597.0,200.3 597.2,197.9 597.4,201.2 597.6,175.6 597.7,173.5 597.9,169.4 598.1,167.0 598.3,166.1 598.5,163.1 598.6,160.2 598.8,159.0 599.0,158.7 599.2,156.9 599.4,159.6 599.5,159.0 599.7,161.7 599.9,167.6 600.1,167.6 600.3,167.6 600.4,173.2 600.6,171.5 600.8,174.7 601.0,177.7 601.2,173.2 601.3,164.6 601.5,163.4 601.7,164.3 601.9,163.4 602.1,164.9 602.2,169.4 602.4,172.4 602.6,170.3 602.8,168.2 603.0,168.5 603.1,170.9 603.3,170.9 603.5,170.6 603.7,173.2 603.9,171.2 604.0,169.4 604.2,173.2 604.4,174.4 604.6,175.3 604.8,176.2 604.9,181.6 605.1,182.2 605.3,181.0 605.5,184.5 605.7,180.7 605.8,182.8 606.0,177.1 606.2,175.3 606.4,172.4 606.6,174.4 606.7,167.6 606.9,159.9 607.1,160.2 607.3,166.4 607.5,165.2 607.6,167.6 607.8,167.3 608.0,165.2 608.2,158.4 608.4,157.2 608.5,155.4 608.7,153.9 608.9,154.8 609.1,154.2 609.3,161.1 609.4,155.1 609.6,158.1 609.8,151.5 610.0,153.0 610.2,154.8 610.3,148.9 610.5,150.1 610.7,144.4 610.9,156.3 611.1,151.2 611.2,146.2 611.4,142.0 611.6,142.0 611.8,137.0 612.0,134.9 612.1,135.2 612.3,132.8 612.5,130.7 612.7,126.9 612.9,130.7 613.0,130.1 613.2,133.4 613.4,137.6 613.6,137.0 613.8,139.1 613.9,142.9 614.1,143.5 614.3,140.2 614.5,136.4 614.7,140.2 614.8,139.7 615.0,136.7 615.2,142.9 615.4,137.6 615.6,134.3 615.7,137.6 615.9,129.5 616.1,129.5 616.3,130.1 616.4,130.4 616.6,133.1 616.8,135.5 617.0,134.0 617.2,136.7 617.3,137.6 617.5,138.5 617.7,137.0 617.9,134.3 618.1,129.8 618.2,129.0 618.4,131.0 618.6,132.5 618.8,132.8 619.0,136.4 619.1,140.2 619.3,138.8 619.5,137.9 619.7,140.0 619.9,137.6 620.0,142.0 620.2,138.2 620.4,136.1 620.6,161.9 620.8,163.7 620.9,161.9 621.1,163.7 621.3,163.4 621.5,163.1 621.7,160.5 621.8,164.0 622.0,166.4 622.2,164.3 622.4,163.1 622.6,165.2 622.7,172.9 622.9,159.6 623.1,155.7 623.3,155.1 623.5,155.4 623.6,158.1 623.8,154.8 624.0,150.7 624.2,152.7 624.4,153.0 624.5,155.7 624.7,162.5 624.9,164.3 625.1,163.7 625.3,165.8 625.4,169.1 625.6,170.0 625.8,172.6 626.0,174.4 626.2,177.7 626.3,186.3 626.5,187.5 626.7,187.5 626.9,186.6 627.1,184.8 627.2,185.7 627.4,186.3 627.6,189.3 627.8,187.2 628.0,189.0 628.1,189.6 628.3,186.6 628.5,184.5 628.7,183.1 628.9,187.2 629.0,183.9 629.2,183.9 629.4,181.3 629.6,178.6 629.8,178.6 629.9,175.9 630.1,178.0 630.3,176.5 630.5,176.8 630.7,172.9 630.8,175.3 631.0,177.1 631.2,177.1 631.4,178.0 631.6,182.8 631.7,168.2 631.9,163.1 632.1,168.8 632.3,169.1 632.5,168.5 632.6,168.8 632.8,170.0 633.0,166.7 633.2,167.6 633.4,164.6 633.5,163.7 633.7,158.1 633.9,162.2 634.1,161.9 634.3,160.2 634.4,167.0 634.6,167.9 634.8,166.1 635.0,165.8 635.2,170.9 635.3,167.6 635.5,166.4 635.7,161.1 635.9,161.9 636.1,169.7 636.2,171.8 636.4,180.7 636.6,176.2 636.8,174.4 637.0,172.1 637.1,174.4 637.3,178.0 637.5,186.3 637.7,183.1 637.9,186.3 638.0,181.6 638.2,178.3 638.4,180.4 638.6,178.6 638.8,175.3 638.9,175.6 639.1,182.5 639.3,192.9 639.5,201.8 639.7,212.2 639.8,198.8 640.0,198.8 640.2,189.6 640.4,183.4 640.6,188.7 640.7,192.0 640.9,187.8 641.1,190.2 641.3,182.8 641.5,183.9 641.6,179.8 641.8,183.4 642.0,180.7 642.2,189.6 642.4,193.5 642.5,197.0 642.7,189.9 642.9,190.2 643.1,194.1 643.3,196.1 643.4,194.3 643.6,195.8 643.8,189.3 644.0,194.3 644.2,194.1 644.3,190.2 644.5,186.3 644.7,186.3 644.9,190.5 645.1,194.1 645.2,198.5 645.4,200.6 645.6,194.3 645.8,198.5 646.0,197.0 646.1,196.1 646.3,198.5 646.5,196.4 646.7,197.3 646.9,198.2 647.0,196.1 647.2,194.1 647.4,192.3 647.6,194.6 647.8,192.3 647.9,196.4 648.1,193.8 648.3,197.3 648.5,197.9 648.7,200.3 648.8,197.3 649.0,194.1 649.2,197.9 649.4,193.2 649.6,193.8 649.7,193.8 649.9,185.4 650.1,178.9 650.3,180.7 650.5,179.2 650.6,175.0 650.8,175.6 651.0,174.7 651.2,179.8 651.4,181.0 651.5,186.3 651.7,185.7 651.9,184.2 652.1,183.4 652.3,187.2 652.4,178.9 652.6,175.3 652.8,176.8 653.0,177.4 653.2,180.7 653.3,179.8 653.5,183.6 653.7,189.0 653.9,190.5 654.1,187.5 654.2,188.1 654.4,187.2 654.6,180.4 654.8,179.5 655.0,180.4 655.1,176.5 655.3,171.5 655.5,206.5 655.7,207.4 655.9,214.9 656.0,213.4 656.2,212.2 656.4,209.8 656.6,208.0 656.8,213.4 656.9,215.8 657.1,214.0 657.3,212.8 657.5,210.4 657.7,216.6 657.8,218.7 658.0,218.7 658.2,220.2 658.4,222.6 658.6,223.5 658.7,222.3 658.9,219.3 659.1,220.8 659.3,220.8 659.5,217.5 659.6,220.8 659.8,219.9 660.0,221.4 660.2,221.7 660.4,226.5 660.5,229.7 660.7,230.0 660.9,227.6 661.1,225.0 661.3,223.8 661.4,223.5 661.6,222.3 661.8,223.8 662.0,227.0 662.2,230.3 662.3,230.0 662.5,234.5 662.7,231.2 662.9,229.7 663.1,226.2 663.2,227.6 663.4,225.0 663.6,224.7 663.8,224.7 664.0,225.0 664.1,225.0 664.3,222.3 664.5,225.0 664.7,221.1 664.9,218.7 665.0,229.1 665.2,233.6 665.4,232.1 665.6,233.3 665.8,233.0 665.9,227.0 666.1,222.6 666.3,218.1 666.5,216.3 666.7,215.5 666.8,216.9 667.0,211.9 667.2,214.9 667.4,215.8 667.6,215.5 667.7,216.6 667.9,218.4 668.1,214.3 668.3,215.2 668.5,214.0 668.6,210.7 668.8,213.7 669.0,213.1 669.2,217.2 669.4,215.5 669.5,219.6 669.7,220.2 669.9,221.7 670.1,225.9 670.3,223.2 670.4,219.3 670.6,222.3 670.8,221.7 671.0,219.6 671.2,218.1 671.3,219.0 671.5,220.5 671.7,219.6 671.9,221.1 672.1,221.4 672.2,219.6 672.4,215.8 672.6,217.5 672.8,219.0 673.0,216.9 673.1,215.5 673.3,212.2 673.5,217.2 673.7,209.2 673.9,209.8 674.0,211.0 674.2,206.8 674.4,204.8 674.6,204.4 674.8,223.5 674.9,222.2 675.1,214.9 675.3,212.7 675.5,203.7 675.7,202.2 675.8,201.1 676.0,204.2 676.2,206.0 676.4,203.9 676.6,206.8 676.7,199.9 676.9,178.2 677.1,188.8 677.3,180.6 677.5,179.1 677.6,178.4 677.8,169.1 678.0,171.2 678.2,169.1 678.4,172.3 678.5,172.1 678.7,172.5 678.9,166.8 679.1,166.2 679.3,168.6 679.4,176.7 679.6,180.1 679.8,179.0 680.0,180.7 680.2,186.5 680.3,194.2 680.5,207.2 680.7,209.6 680.9,215.5 681.1,216.6 681.2,214.3 681.4,227.2 681.6,225.7 681.8,225.6 682.0,224.9 682.1,230.0 682.3,236.9 682.5,239.4 682.7,232.9 682.9,234.3 683.0,225.9 683.2,229.9 683.4,237.3 683.6,240.4 683.8,230.6 683.9,225.0 684.1,229.5 684.3,230.3 684.5,234.8 684.7,215.0 684.8,218.7 685.0,222.2 685.2,223.4 685.4,223.1 685.6,225.6 685.7,228.1 685.9,217.6 686.1,219.3 686.3,222.6 686.5,227.5 686.6,231.3 686.8,235.4 687.0,234.8 687.2,237.8 687.4,244.9 687.5,240.8 687.7,242.5 687.9,247.5 688.1,243.2 688.3,227.9 688.4,229.6 688.6,229.5 688.8,227.9 689.0,233.8 689.2,234.5 689.3,237.5 689.5,248.8 689.7,244.1 689.9,248.8 690.1,240.5 690.2,238.0 690.4,238.8 690.6,235.4 690.8,231.1 691.0,233.6 691.1,236.1 691.3,242.6 691.5,238.6 691.7,241.7 691.9,243.2 692.0,240.2 692.2,242.1 692.4,236.1 692.6,240.0 692.8,229.6 692.9,225.6 693.1,222.5 693.3,220.7 693.5,224.6 693.7,222.7 693.8,225.1 694.0,226.6 694.2,219.0 694.4,212.1 694.6,211.1 694.7,211.7 694.9,209.2 695.1,207.5 695.3,199.4 695.5,201.7 695.6,202.7 695.8,217.5 696.0,213.1"/>
  <text x="60" y="62" font-size="11" fill="#2563eb">Price index</text>
  <text x="146" y="62" font-size="11" fill="#16a34a">Total return (price + distributions)</text>
  <text x="56" y="348" font-size="11" text-anchor="middle" fill="#444">2012-05</text><text x="216" y="348" font-size="11" text-anchor="middle" fill="#444">2015-11</text><text x="376" y="348" font-size="11" text-anchor="middle" fill="#444">2019-06</text><text x="536" y="348" font-size="11" text-anchor="middle" fill="#444">2022-12</text><text x="696" y="348" font-size="11" text-anchor="middle" fill="#444">2026-07</text>
</svg>
