<svg xmlns="http://www.w3.org/2000/svg" width="820" height="410" viewBox="0 0 820 410">
<rect width="820" height="410" fill="#fafafa"/><text x="78" y="22" font-size="14" font-family="sans-serif" fill="#0f172a">OR cumulative return since 2016-07-06 | dividends reinvested</text>
<text x="78" y="40" font-size="11" font-family="sans-serif" fill="#334155">Total return +139.1% | Price-only +111.1% | logarithmic scale</text>
<text x="78" y="54" font-size="9" font-family="sans-serif" fill="#64748b">Regular $1.68 | Special $0.00 | Other $0.00 per initial share path</text>
<line x1="78" y1="332.0" x2="796" y2="332.0" stroke="#e2e8f0"/><text x="70" y="336.0" font-size="10" text-anchor="end" fill="#64748b">-66.5%</text><line x1="78" y1="287.0" x2="796" y2="287.0" stroke="#e2e8f0"/><text x="70" y="291.0" font-size="10" text-anchor="end" fill="#64748b">-48.2%</text><line x1="78" y1="242.0" x2="796" y2="242.0" stroke="#e2e8f0"/><text x="70" y="246.0" font-size="10" text-anchor="end" fill="#64748b">-20.1%</text><line x1="78" y1="218.8" x2="796" y2="218.8" stroke="#e2e8f0"/><text x="70" y="222.8" font-size="10" text-anchor="end" fill="#64748b">0%</text><line x1="78" y1="197.0" x2="796" y2="197.0" stroke="#e2e8f0"/><text x="70" y="201.0" font-size="10" text-anchor="end" fill="#64748b">+23.4%</text><line x1="78" y1="152.0" x2="796" y2="152.0" stroke="#e2e8f0"/><text x="70" y="156.0" font-size="10" text-anchor="end" fill="#64748b">+90.5%</text><line x1="78" y1="107.0" x2="796" y2="107.0" stroke="#e2e8f0"/><text x="70" y="111.0" font-size="10" text-anchor="end" fill="#64748b">+194.1%</text><line x1="78" y1="62.0" x2="796" y2="62.0" stroke="#e2e8f0"/><text x="70" y="66.0" font-size="10" text-anchor="end" fill="#64748b">+354.0%</text>
<line x1="78" y1="332" x2="796" y2="332" stroke="#cbd5e1"/>
<polyline fill="none" stroke="#2563eb" stroke-width="2" points="78.0,218.8 78.3,221.4 78.6,218.9 78.9,220.8 79.1,223.4 79.4,221.0 79.7,219.0 80.0,221.8 80.3,221.4 80.6,223.5 80.9,227.0 81.1,225.7 81.4,227.4 81.7,231.8 82.0,227.6 82.3,225.3 82.6,223.9 82.8,221.6 83.1,212.5 83.4,216.8 83.7,218.7 84.0,219.4 84.3,222.1 84.6,223.1 84.8,222.4 85.1,222.2 85.4,223.4 85.7,222.9 86.0,222.9 86.3,225.6 86.6,226.4 86.8,224.1 87.1,226.2 87.4,226.1 87.7,227.0 88.0,231.4 88.3,230.4 88.5,232.1 88.8,232.2 89.1,237.1 89.4,238.4 89.7,231.1 90.0,229.2 90.3,226.6 90.5,228.8 90.8,231.8 91.1,236.6 91.4,232.0 91.7,234.3 92.0,236.4 92.3,234.5 92.5,241.5 92.8,239.3 93.1,239.0 93.4,234.5 93.7,234.9 94.0,238.0 94.2,238.9 94.5,240.6 94.8,240.4 95.1,241.0 95.4,241.6 95.7,246.4 96.0,253.7 96.2,252.9 96.5,251.9 96.8,249.8 97.1,248.8 97.4,250.9 97.7,249.5 98.0,247.7 98.2,250.9 98.5,248.3 98.8,246.4 99.1,245.1 99.4,247.7 99.7,248.3 99.9,250.0 100.2,245.9 100.5,245.3 100.8,246.3 101.1,246.0 101.4,245.6 101.7,243.2 101.9,244.1 102.2,244.7 102.5,246.7 102.8,248.1 103.1,249.8 103.4,252.3 103.7,255.8 103.9,257.0 104.2,254.6 104.5,250.0 104.8,251.0 105.1,253.8 105.4,252.6 105.6,253.8 105.9,253.4 106.2,255.9 106.5,255.2 106.8,252.9 107.1,252.5 107.4,253.1 107.6,252.5 107.9,251.0 108.2,250.6 108.5,250.0 108.8,249.5 109.1,248.9 109.4,251.0 109.6,251.5 109.9,252.9 110.2,257.6 110.5,260.6 110.8,262.7 111.1,260.8 111.3,260.6 111.6,261.9 111.9,262.2 112.2,261.4 112.5,259.5 112.8,257.1 113.1,251.9 113.3,253.9 113.6,251.5 113.9,250.5 114.2,244.1 114.5,246.4 114.8,244.3 115.1,243.9 115.3,242.5 115.6,243.8 115.9,244.4 116.2,243.4 116.5,245.7 116.8,246.0 117.0,246.0 117.3,244.5 117.6,244.8 117.9,243.8 118.2,244.6 118.5,243.2 118.8,242.9 119.0,241.1 119.3,239.3 119.6,238.8 119.9,237.7 120.2,234.5 120.5,233.5 120.8,232.7 121.0,235.5 121.3,234.6 121.6,235.8 121.9,235.8 122.2,235.3 122.5,233.0 122.8,234.4 123.0,236.4 123.3,237.1 123.6,237.0 123.9,238.6 124.2,243.0 124.5,241.3 124.7,239.2 125.0,242.7 125.3,241.5 125.6,245.0 125.9,245.7 126.2,246.6 126.5,247.3 126.7,244.5 127.0,241.8 127.3,243.8 127.6,239.7 127.9,238.5 128.2,241.6 128.5,238.3 128.7,238.1 129.0,237.7 129.3,238.6 129.6,239.3 129.9,236.4 130.2,238.8 130.4,239.0 130.7,239.9 131.0,240.1 131.3,240.2 131.6,239.5 131.9,238.6 132.2,238.4 132.4,239.4 132.7,239.1 133.0,237.9 133.3,236.5 133.6,238.6 133.9,238.6 134.2,236.4 134.4,238.9 134.7,239.3 135.0,240.0 135.3,241.4 135.6,245.9 135.9,246.0 136.1,245.3 136.4,244.2 136.7,245.2 137.0,246.2 137.3,246.4 137.6,249.7 137.9,248.3 138.1,248.2 138.4,248.7 138.7,248.5 139.0,244.4 139.3,242.7 139.6,242.1 139.9,240.2 140.1,239.8 140.4,241.0 140.7,240.0 141.0,233.5 141.3,240.2 141.6,242.8 141.8,244.1 142.1,244.8 142.4,245.8 142.7,245.3 143.0,244.4 143.3,244.2 143.6,230.6 143.8,228.4 144.1,225.3 144.4,226.8 144.7,227.0 145.0,226.4 145.3,226.3 145.6,230.7 145.8,230.4 146.1,232.1 146.4,230.4 146.7,229.8 147.0,229.3 147.3,228.2 147.5,228.2 147.8,229.9 148.1,229.2 148.4,227.7 148.7,229.7 149.0,230.2 149.3,231.8 149.5,230.9 149.8,231.8 150.1,232.6 150.4,228.9 150.7,229.4 151.0,229.4 151.3,230.9 151.5,229.8 151.8,228.8 152.1,227.7 152.4,227.0 152.7,226.3 153.0,226.2 153.2,226.4 153.5,227.6 153.8,226.0 154.1,228.3 154.4,226.2 154.7,225.0 155.0,226.2 155.2,226.9 155.5,226.4 155.8,228.2 156.1,230.1 156.4,228.6 156.7,227.5 157.0,226.9 157.2,226.3 157.5,226.3 157.8,227.5 158.1,225.7 158.4,226.2 158.7,225.9 158.9,225.9 159.2,226.0 159.5,226.2 159.8,224.2 160.1,219.2 160.4,218.2 160.7,217.6 160.9,218.6 161.2,216.2 161.5,217.4 161.8,215.4 162.1,215.3 162.4,213.4 162.7,214.2 162.9,216.8 163.2,216.8 163.5,218.6 163.8,218.7 164.1,220.5 164.4,222.7 164.7,221.6 164.9,221.9 165.2,223.2 165.5,222.7 165.8,221.8 166.1,223.2 166.4,224.6 166.6,224.5 166.9,224.5 167.2,225.1 167.5,223.8 167.8,222.8 168.1,224.9 168.4,223.4 168.6,221.5 168.9,223.1 169.2,222.0 169.5,221.8 169.8,221.7 170.1,223.3 170.4,224.9 170.6,224.8 170.9,224.2 171.2,226.3 171.5,226.4 171.8,226.1 172.1,227.0 172.3,229.1 172.6,227.2 172.9,226.5 173.2,227.0 173.5,226.0 173.8,226.8 174.1,228.2 174.3,227.5 174.6,227.7 174.9,229.6 175.2,230.6 175.5,230.9 175.8,231.1 176.1,231.2 176.3,231.5 176.6,230.6 176.9,230.3 177.2,232.0 177.5,231.5 177.8,230.6 178.0,231.8 178.3,231.5 178.6,232.5 178.9,233.9 179.2,233.5 179.5,234.0 179.8,235.1 180.0,236.0 180.3,237.6 180.6,239.5 180.9,239.5 181.2,241.0 181.5,241.7 181.8,240.0 182.0,241.0 182.3,242.6 182.6,242.5 182.9,243.2 183.2,240.4 183.5,239.9 183.7,236.7 184.0,234.1 184.3,236.7 184.6,236.0 184.9,235.9 185.2,236.1 185.5,237.5 185.7,236.0 186.0,236.9 186.3,238.7 186.6,239.1 186.9,238.2 187.2,237.1 187.5,232.8 187.7,232.1 188.0,233.5 188.3,234.5 188.6,234.8 188.9,236.0 189.2,235.7 189.4,232.6 189.7,235.9 190.0,236.7 190.3,239.9 190.6,239.7 190.9,238.8 191.2,237.9 191.4,241.0 191.7,240.6 192.0,245.6 192.3,245.2 192.6,245.2 192.9,247.8 193.2,244.8 193.4,244.8 193.7,242.7 194.0,242.5 194.3,244.6 194.6,254.2 194.9,253.7 195.1,253.9 195.4,252.3 195.7,250.4 196.0,253.3 196.3,254.1 196.6,251.9 196.9,252.0 197.1,251.7 197.4,250.2 197.7,253.8 198.0,254.2 198.3,252.3 198.6,251.4 198.9,251.6 199.1,253.5 199.4,255.2 199.7,256.5 200.0,256.1 200.3,256.6 200.6,254.3 200.8,255.7 201.1,254.9 201.4,253.6 201.7,254.6 202.0,256.1 202.3,254.4 202.6,252.6 202.8,252.8 203.1,257.0 203.4,255.5 203.7,254.5 204.0,254.2 204.3,254.4 204.6,253.2 204.8,253.7 205.1,250.5 205.4,249.8 205.7,250.0 206.0,250.6 206.3,252.3 206.6,252.1 206.8,255.0 207.1,253.8 207.4,254.6 207.7,254.1 208.0,251.9 208.3,253.5 208.5,253.4 208.8,252.9 209.1,253.1 209.4,250.1 209.7,247.8 210.0,246.9 210.3,245.7 210.5,243.7 210.8,245.1 211.1,246.1 211.4,248.2 211.7,249.4 212.0,250.2 212.3,249.1 212.5,248.5 212.8,249.8 213.1,248.7 213.4,247.8 213.7,247.6 214.0,248.6 214.2,248.8 214.5,248.8 214.8,248.8 215.1,249.5 215.4,249.7 215.7,249.6 216.0,250.9 216.2,251.9 216.5,253.9 216.8,255.4 217.1,255.1 217.4,256.5 217.7,255.8 218.0,255.6 218.2,257.6 218.5,259.1 218.8,259.8 219.1,257.8 219.4,258.8 219.7,258.6 219.9,258.6 220.2,258.8 220.5,256.6 220.8,256.5 221.1,255.2 221.4,255.4 221.7,255.0 221.9,255.3 222.2,256.1 222.5,257.7 222.8,257.5 223.1,257.4 223.4,257.1 223.7,257.0 223.9,256.7 224.2,256.5 224.5,255.3 224.8,256.1 225.1,256.3 225.4,254.2 225.6,254.5 225.9,255.6 226.2,256.3 226.5,256.2 226.8,257.3 227.1,260.2 227.4,260.0 227.6,260.0 227.9,262.1 228.2,263.0 228.5,262.8 228.8,263.4 229.1,265.4 229.4,267.3 229.6,272.2 229.9,275.3 230.2,273.4 230.5,271.5 230.8,271.6 231.1,271.3 231.3,275.5 231.6,272.0 231.9,270.1 232.2,273.1 232.5,272.5 232.8,273.4 233.1,274.9 233.3,278.3 233.6,280.9 233.9,281.2 234.2,278.9 234.5,279.5 234.8,280.2 235.1,276.6 235.3,279.1 235.6,281.9 235.9,280.9 236.2,281.9 236.5,279.1 236.8,278.7 237.0,279.5 237.3,279.0 237.6,277.4 237.9,280.6 238.2,281.7 238.5,279.5 238.8,279.4 239.0,276.4 239.3,277.6 239.6,277.9 239.9,278.3 240.2,277.9 240.5,279.9 240.8,277.8 241.0,271.6 241.3,271.4 241.6,271.8 241.9,273.1 242.2,272.3 242.5,275.0 242.7,275.1 243.0,273.2 243.3,272.2 243.6,271.9 243.9,278.9 244.2,278.3 244.5,279.4 244.7,277.6 245.0,278.7 245.3,275.0 245.6,273.7 245.9,275.3 246.2,276.3 246.5,283.0 246.7,282.4 247.0,282.3 247.3,287.2 247.6,286.7 247.9,284.3 248.2,281.5 248.5,279.4 248.7,279.1 249.0,280.5 249.3,277.0 249.6,280.2 249.9,280.2 250.2,283.3 250.4,280.8 250.7,281.2 251.0,280.6 251.3,280.1 251.6,282.9 251.9,281.5 252.2,275.1 252.4,274.0 252.7,275.4 253.0,274.2 253.3,274.0 253.6,276.2 253.9,274.1 254.2,270.6 254.4,270.9 254.7,269.5 255.0,269.0 255.3,264.6 255.6,266.0 255.9,265.5 256.1,266.3 256.4,264.4 256.7,263.2 257.0,260.4 257.3,260.5 257.6,262.9 257.9,260.8 258.1,259.4 258.4,261.2 258.7,262.0 259.0,262.2 259.3,262.3 259.6,262.8 259.9,262.8 260.1,266.1 260.4,264.1 260.7,264.2 261.0,264.6 261.3,261.8 261.6,257.9 261.8,256.4 262.1,255.1 262.4,253.3 262.7,252.8 263.0,253.8 263.3,253.4 263.6,254.1 263.8,254.6 264.1,252.3 264.4,253.1 264.7,253.9 265.0,253.2 265.3,250.3 265.6,248.8 265.8,246.5 266.1,245.9 266.4,239.9 266.7,237.0 267.0,238.8 267.3,236.8 267.5,238.6 267.8,239.1 268.1,240.4 268.4,240.5 268.7,240.8 269.0,243.7 269.3,243.0 269.5,235.7 269.8,236.0 270.1,233.2 270.4,232.2 270.7,234.8 271.0,237.2 271.3,237.4 271.5,237.1 271.8,234.8 272.1,235.4 272.4,235.0 272.7,233.3 273.0,233.2 273.2,233.4 273.5,238.2 273.8,238.8 274.1,239.9 274.4,237.6 274.7,238.6 275.0,236.9 275.2,236.8 275.5,236.7 275.8,235.7 276.1,237.3 276.4,239.0 276.7,240.5 277.0,236.7 277.2,238.7 277.5,240.0 277.8,241.0 278.1,241.1 278.4,243.8 278.7,240.9 278.9,239.2 279.2,237.4 279.5,239.5 279.8,238.3 280.1,248.1 280.4,249.8 280.7,251.5 280.9,251.8 281.2,251.3 281.5,253.2 281.8,253.3 282.1,253.3 282.4,248.4 282.7,249.2 282.9,249.7 283.2,252.1 283.5,251.3 283.8,250.2 284.1,250.2 284.4,252.6 284.6,252.4 284.9,252.6 285.2,251.8 285.5,252.5 285.8,250.0 286.1,246.6 286.4,244.4 286.6,243.5 286.9,243.8 287.2,243.8 287.5,245.5 287.8,247.8 288.1,249.0 288.4,249.8 288.6,247.6 288.9,246.8 289.2,244.0 289.5,242.8 289.8,241.9 290.1,239.3 290.4,239.4 290.6,236.9 290.9,242.6 291.2,243.4 291.5,247.1 291.8,246.5 292.1,248.0 292.3,245.7 292.6,246.8 292.9,247.6 293.2,248.9 293.5,248.7 293.8,247.2 294.1,247.4 294.3,244.3 294.6,244.0 294.9,244.0 295.2,241.1 295.5,236.2 295.8,236.3 296.1,235.1 296.3,234.6 296.6,231.4 296.9,232.7 297.2,231.5 297.5,230.4 297.8,229.7 298.0,233.8 298.3,231.2 298.6,231.3 298.9,221.8 299.2,229.7 299.5,228.6 299.8,227.0 300.0,226.2 300.3,226.8 300.6,229.2 300.9,231.3 301.2,229.9 301.5,230.8 301.8,230.9 302.0,228.2 302.3,228.7 302.6,229.8 302.9,225.6 303.2,226.4 303.5,224.3 303.7,224.5 304.0,225.9 304.3,225.9 304.6,224.0 304.9,222.5 305.2,225.7 305.5,227.3 305.7,230.2 306.0,230.5 306.3,230.6 306.6,233.3 306.9,236.4 307.2,233.3 307.5,232.2 307.7,233.9 308.0,231.7 308.3,229.9 308.6,240.7 308.9,244.9 309.2,248.1 309.4,250.6 309.7,254.2 310.0,258.5 310.3,258.1 310.6,255.6 310.9,256.2 311.2,254.2 311.4,256.5 311.7,256.1 312.0,258.0 312.3,258.5 312.6,259.7 312.9,257.7 313.2,260.6 313.4,258.8 313.7,257.0 314.0,256.8 314.3,257.8 314.6,257.9 314.9,257.3 315.1,255.3 315.4,255.6 315.7,256.2 316.0,255.6 316.3,255.2 316.6,252.6 316.9,252.4 317.1,253.7 317.4,259.1 317.7,261.1 318.0,268.3 318.3,267.8 318.6,268.9 318.9,266.8 319.1,266.3 319.4,266.7 319.7,266.9 320.0,266.8 320.3,263.3 320.6,263.3 320.8,264.8 321.1,267.8 321.4,266.6 321.7,265.6 322.0,266.8 322.3,264.4 322.6,264.4 322.8,262.2 323.1,263.3 323.4,264.0 323.7,266.1 324.0,266.3 324.3,266.9 324.6,264.3 324.8,264.8 325.1,261.2 325.4,262.6 325.7,262.0 326.0,261.3 326.3,261.2 326.5,262.1 326.8,256.8 327.1,255.8 327.4,251.5 327.7,254.9 328.0,253.7 328.3,254.0 328.5,253.9 328.8,254.8 329.1,255.5 329.4,251.9 329.7,258.9 330.0,257.9 330.3,257.5 330.5,260.3 330.8,258.9 331.1,256.9 331.4,256.5 331.7,256.4 332.0,253.8 332.3,256.3 332.5,255.6 332.8,254.0 333.1,254.9 333.4,256.4 333.7,253.9 334.0,253.6 334.2,251.2 334.5,255.0 334.8,256.6 335.1,257.9 335.4,254.3 335.7,254.9 336.0,253.7 336.2,247.7 336.5,253.2 336.8,249.7 337.1,247.8 337.4,246.6 337.7,244.7 338.0,246.1 338.2,246.6 338.5,248.8 338.8,253.9 339.1,253.8 339.4,263.4 339.7,271.4 339.9,268.7 340.2,264.8 340.5,264.9 340.8,262.8 341.1,266.0 341.4,276.8 341.7,277.0 341.9,285.6 342.2,301.7 342.5,317.5 342.8,304.4 343.1,279.5 343.4,289.6 343.7,288.5 343.9,295.4 344.2,290.9 344.5,285.7 344.8,274.2 345.1,272.8 345.4,283.1 345.6,282.3 345.9,281.6 346.2,281.7 346.5,278.3 346.8,280.5 347.1,276.4 347.4,275.9 347.6,279.1 347.9,271.1 348.2,266.5 348.5,267.2 348.8,268.2 349.1,267.6 349.4,270.0 349.6,268.2 349.9,269.3 350.2,261.8 350.5,258.7 350.8,259.1 351.1,258.3 351.3,258.6 351.6,256.2 351.9,260.2 352.2,257.4 352.5,257.6 352.8,257.4 353.1,259.6 353.3,255.8 353.6,255.5 353.9,258.0 354.2,255.9 354.5,260.5 354.8,254.8 355.1,247.5 355.3,253.1 355.6,244.8 355.9,246.3 356.2,249.1 356.5,247.8 356.8,253.9 357.0,252.7 357.3,253.1 357.6,252.2 357.9,250.2 358.2,254.9 358.5,259.1 358.8,256.5 359.0,257.6 359.3,257.0 359.6,257.3 359.9,254.9 360.2,260.7 360.5,262.5 360.8,258.3 361.0,260.8 361.3,259.9 361.6,262.6 361.9,257.5 362.2,254.1 362.5,252.3 362.7,254.5 363.0,253.2 363.3,254.3 363.6,254.5 363.9,251.0 364.2,251.6 364.5,251.5 364.7,247.5 365.0,244.6 365.3,243.8 365.6,243.7 365.9,245.2 366.2,248.2 366.5,244.6 366.7,241.9 367.0,244.9 367.3,243.3 367.6,240.1 367.9,237.4 368.2,237.0 368.4,239.4 368.7,236.9 369.0,233.5 369.3,232.8 369.6,234.4 369.9,237.7 370.2,234.4 370.4,235.4 370.7,229.5 371.0,228.2 371.3,233.5 371.6,236.3 371.9,237.2 372.2,241.2 372.4,243.3 372.7,240.0 373.0,241.6 373.3,234.7 373.6,234.2 373.9,236.6 374.2,233.8 374.4,236.2 374.7,236.4 375.0,236.5 375.3,233.9 375.6,235.1 375.9,231.3 376.1,229.5 376.4,230.5 376.7,230.7 377.0,230.8 377.3,233.8 377.6,234.0 377.9,228.3 378.1,227.9 378.4,226.4 378.7,223.8 379.0,223.0 379.3,222.8 379.6,222.9 379.9,223.5 380.1,227.3 380.4,228.6 380.7,236.7 381.0,234.0 381.3,234.7 381.6,233.5 381.8,232.8 382.1,233.5 382.4,232.3 382.7,234.2 383.0,232.7 383.3,231.6 383.6,233.7 383.8,232.3 384.1,227.4 384.4,228.7 384.7,230.4 385.0,228.4 385.3,229.6 385.6,232.0 385.8,233.5 386.1,233.0 386.4,230.6 386.7,231.5 387.0,232.7 387.3,233.4 387.5,231.3 387.8,240.6 388.1,240.0 388.4,239.4 388.7,235.0 389.0,234.6 389.3,236.7 389.5,229.7 389.8,228.3 390.1,235.3 390.4,238.8 390.7,238.9 391.0,236.6 391.3,236.9 391.5,239.2 391.8,239.8 392.1,242.9 392.4,244.1 392.7,242.1 393.0,244.9 393.2,246.3 393.5,245.4 393.8,243.2 394.1,242.2 394.4,239.2 394.7,238.8 395.0,239.6 395.2,240.0 395.5,235.8 395.8,235.6 396.1,238.3 396.4,238.8 396.7,238.7 397.0,238.6 397.2,234.8 397.5,233.9 397.8,228.7 398.1,231.9 398.4,229.6 398.7,230.8 398.9,230.2 399.2,229.0 399.5,229.2 399.8,231.4 400.1,224.8 400.4,226.4 400.7,222.3 400.9,221.5 401.2,220.8 401.5,221.7 401.8,226.2 402.1,227.9 402.4,229.0 402.7,230.3 402.9,230.1 403.2,233.5 403.5,233.5 403.8,230.8 404.1,231.5 404.4,232.7 404.6,234.3 404.9,233.8 405.2,239.6 405.5,236.7 405.8,239.2 406.1,234.7 406.4,238.8 406.6,239.2 406.9,243.3 407.2,241.3 407.5,238.4 407.8,239.2 408.1,239.2 408.4,241.5 408.6,237.9 408.9,236.3 409.2,239.2 409.5,240.1 409.8,240.2 410.1,237.3 410.3,240.0 410.6,238.8 410.9,247.3 411.2,251.1 411.5,252.3 411.8,244.7 412.1,245.9 412.3,247.5 412.6,243.8 412.9,244.5 413.2,242.8 413.5,240.6 413.8,239.2 414.1,238.4 414.3,237.5 414.6,238.5 414.9,236.1 415.2,237.6 415.5,236.2 415.8,235.8 416.1,238.9 416.3,240.6 416.6,241.4 416.9,238.9 417.2,239.8 417.5,243.6 417.8,240.9 418.0,236.8 418.3,237.1 418.6,233.5 418.9,233.5 419.2,231.7 419.5,231.0 419.8,232.3 420.0,230.7 420.3,232.5 420.6,230.1 420.9,229.7 421.2,230.8 421.5,230.1 421.8,227.2 422.0,228.7 422.3,229.1 422.6,229.3 422.9,231.1 423.2,229.4 423.5,230.9 423.7,231.4 424.0,226.6 424.3,227.9 424.6,227.2 424.9,221.8 425.2,219.9 425.5,221.2 425.7,219.1 426.0,219.2 426.3,219.7 426.6,218.0 426.9,214.5 427.2,215.3 427.5,217.2 427.7,215.9 428.0,215.4 428.3,214.2 428.6,214.2 428.9,214.4 429.2,215.0 429.4,213.9 429.7,212.8 430.0,211.8 430.3,213.7 430.6,211.0 430.9,210.9 431.2,212.0 431.4,212.0 431.7,210.9 432.0,211.9 432.3,209.7 432.6,208.7 432.9,210.5 433.2,215.1 433.4,217.0 433.7,215.1 434.0,215.4 434.3,216.2 434.6,217.1 434.9,217.7 435.1,219.1 435.4,220.2 435.7,218.3 436.0,218.8 436.3,216.1 436.6,217.8 436.9,219.1 437.1,222.3 437.4,221.0 437.7,220.2 438.0,220.2 438.3,219.0 438.6,219.9 438.9,222.0 439.1,224.4 439.4,223.8 439.7,222.0 440.0,222.9 440.3,223.8 440.6,221.6 440.8,222.2 441.1,220.8 441.4,219.4 441.7,218.8 442.0,219.9 442.3,219.1 442.6,220.2 442.8,223.1 443.1,225.8 443.4,228.8 443.7,230.2 444.0,229.8 444.3,230.8 444.6,228.1 444.8,228.5 445.1,229.3 445.4,230.9 445.7,234.8 446.0,235.0 446.3,231.9 446.5,231.5 446.8,232.4 447.1,232.3 447.4,229.4 447.7,231.1 448.0,230.2 448.3,231.5 448.5,231.5 448.8,228.5 449.1,231.5 449.4,231.1 449.7,232.1 450.0,233.5 450.3,231.5 450.5,231.0 450.8,230.3 451.1,232.3 451.4,233.5 451.7,234.2 452.0,234.0 452.2,235.1 452.5,238.1 452.8,238.3 453.1,238.2 453.4,237.4 453.7,240.4 454.0,238.9 454.2,239.5 454.5,238.8 454.8,237.5 455.1,235.1 455.4,235.8 455.7,235.1 456.0,236.2 456.2,233.8 456.5,231.5 456.8,228.9 457.1,229.5 457.4,230.4 457.7,230.8 457.9,229.3 458.2,228.6 458.5,228.3 458.8,226.8 459.1,226.8 459.4,225.2 459.7,225.1 459.9,226.8 460.2,227.4 460.5,229.2 460.8,228.2 461.1,230.0 461.4,227.3 461.7,227.3 461.9,226.4 462.2,225.7 462.5,221.6 462.8,220.5 463.1,218.7 463.4,219.9 463.7,221.0 463.9,221.7 464.2,222.3 464.5,223.8 464.8,226.2 465.1,226.7 465.4,227.8 465.6,229.3 465.9,230.3 466.2,234.8 466.5,239.1 466.8,239.2 467.1,236.7 467.4,234.5 467.6,234.0 467.9,236.8 468.2,235.8 468.5,236.9 468.8,239.2 469.1,238.9 469.4,234.8 469.6,235.5 469.9,235.8 470.2,234.8 470.5,233.3 470.8,231.8 471.1,231.5 471.3,232.3 471.6,233.4 471.9,231.2 472.2,229.9 472.5,232.8 472.8,232.6 473.1,235.1 473.3,238.8 473.6,238.7 473.9,235.8 474.2,231.5 474.5,231.2 474.8,233.5 475.1,235.0 475.3,236.7 475.6,230.4 475.9,234.0 476.2,235.7 476.5,235.8 476.8,236.6 477.0,240.1 477.3,243.0 477.6,242.6 477.9,240.6 478.2,240.2 478.5,239.1 478.8,240.2 479.0,240.4 479.3,236.4 479.6,233.6 479.9,233.5 480.2,235.7 480.5,230.8 480.8,228.4 481.0,229.6 481.3,227.3 481.6,227.1 481.9,229.3 482.2,230.9 482.5,228.8 482.7,229.9 483.0,229.3 483.3,229.0 483.6,222.9 483.9,222.0 484.2,220.3 484.5,218.3 484.7,216.1 485.0,216.6 485.3,216.1 485.6,212.7 485.9,213.9 486.2,218.2 486.5,217.1 486.7,216.3 487.0,214.8 487.3,222.7 487.6,222.0 487.9,223.2 488.2,221.3 488.4,221.4 488.7,222.0 489.0,224.5 489.3,223.8 489.6,222.6 489.9,222.3 490.2,219.0 490.4,219.6 490.7,221.8 491.0,221.0 491.3,219.6 491.6,217.8 491.9,217.9 492.2,217.8 492.4,216.8 492.7,215.4 493.0,217.2 493.3,217.4 493.6,214.4 493.9,219.3 494.1,221.9 494.4,225.3 494.7,227.9 495.0,229.9 495.3,228.2 495.6,229.5 495.9,231.2 496.1,228.7 496.4,226.5 496.7,229.7 497.0,230.5 497.3,236.6 497.6,238.5 497.9,238.5 498.1,244.7 498.4,244.0 498.7,243.7 499.0,242.6 499.3,244.1 499.6,237.1 499.8,237.2 500.1,235.3 500.4,232.9 500.7,235.8 501.0,235.9 501.3,235.2 501.6,238.6 501.8,237.2 502.1,232.1 502.4,234.1 502.7,234.1 503.0,233.7 503.3,234.4 503.6,238.2 503.8,234.3 504.1,240.3 504.4,241.4 504.7,240.1 505.0,237.7 505.3,239.8 505.6,239.0 505.8,241.0 506.1,245.3 506.4,243.1 506.7,243.1 507.0,244.8 507.3,244.9 507.5,249.9 507.8,246.7 508.1,252.5 508.4,252.6 508.7,251.3 509.0,251.3 509.3,251.6 509.5,253.1 509.8,249.4 510.1,252.7 510.4,253.8 510.7,251.9 511.0,250.0 511.3,254.4 511.5,254.3 511.8,256.5 512.1,256.9 512.4,253.7 512.7,250.4 513.0,247.1 513.2,246.4 513.5,246.6 513.8,248.6 514.1,250.3 514.4,246.9 514.7,247.6 515.0,245.6 515.2,245.6 515.5,247.4 515.8,246.7 516.1,245.1 516.4,246.9 516.7,246.6 517.0,250.1 517.2,249.4 517.5,251.8 517.8,250.8 518.1,249.1 518.4,247.8 518.7,247.2 518.9,251.3 519.2,251.2 519.5,253.5 519.8,254.3 520.1,258.7 520.4,253.9 520.7,254.4 520.9,250.3 521.2,250.2 521.5,248.5 521.8,244.6 522.1,248.1 522.4,248.0 522.7,251.8 522.9,252.2 523.2,250.2 523.5,252.5 523.8,251.6 524.1,252.8 524.4,256.7 524.6,258.1 524.9,257.6 525.2,251.9 525.5,252.0 525.8,249.1 526.1,245.8 526.4,242.9 526.6,244.4 526.9,244.8 527.2,250.5 527.5,252.3 527.8,251.6 528.1,250.3 528.4,250.4 528.6,253.8 528.9,250.6 529.2,250.2 529.5,252.5 529.8,251.2 530.1,245.7 530.3,245.9 530.6,244.0 530.9,242.1 531.2,243.1 531.5,242.5 531.8,243.6 532.1,242.6 532.3,247.9 532.6,248.7 532.9,238.7 533.2,238.8 533.5,230.6 533.8,232.1 534.1,226.7 534.3,224.2 534.6,225.7 534.9,226.4 535.2,227.0 535.5,226.7 535.8,226.4 536.0,228.2 536.3,226.0 536.6,225.6 536.9,227.0 537.2,230.9 537.5,227.9 537.8,226.9 538.0,225.4 538.3,225.9 538.6,229.2 538.9,228.8 539.2,227.7 539.5,227.7 539.8,229.8 540.0,230.3 540.3,229.3 540.6,229.4 540.9,231.9 541.2,231.5 541.5,233.4 541.7,230.7 542.0,230.6 542.3,230.4 542.6,230.4 542.9,228.2 543.2,231.2 543.5,231.2 543.7,231.5 544.0,229.9 544.3,227.0 544.6,226.8 544.9,226.0 545.2,227.0 545.5,226.6 545.7,226.8 546.0,223.8 546.3,221.8 546.6,223.8 546.9,223.7 547.2,218.3 547.5,218.8 547.7,219.6 548.0,217.9 548.3,216.5 548.6,218.0 548.9,219.6 549.2,220.9 549.4,220.8 549.7,219.8 550.0,222.3 550.3,224.9 550.6,225.4 550.9,224.2 551.2,224.9 551.4,226.4 551.7,225.5 552.0,225.5 552.3,223.8 552.6,224.4 552.9,224.6 553.2,225.6 553.4,226.3 553.7,227.4 554.0,227.7 554.3,224.1 554.6,224.1 554.9,222.9 555.1,219.6 555.4,219.9 555.7,218.9 556.0,219.8 556.3,224.0 556.6,225.8 556.9,225.5 557.1,223.5 557.4,218.3 557.7,215.5 558.0,215.7 558.3,215.9 558.6,210.0 558.9,210.1 559.1,213.2 559.4,211.3 559.7,208.9 560.0,208.9 560.3,207.6 560.6,205.1 560.8,205.5 561.1,204.3 561.4,203.4 561.7,200.4 562.0,197.8 562.3,198.1 562.6,198.4 562.8,201.0 563.1,199.3 563.4,199.3 563.7,198.1 564.0,199.3 564.3,201.5 564.6,200.7 564.8,201.7 565.1,200.8 565.4,202.0 565.7,201.1 566.0,199.4 566.3,200.1 566.5,200.2 566.8,200.6 567.1,199.4 567.4,193.5 567.7,192.5 568.0,192.5 568.3,192.9 568.5,192.7 568.8,194.0 569.1,194.6 569.4,195.6 569.7,194.9 570.0,193.4 570.3,196.4 570.5,198.3 570.8,202.3 571.1,200.6 571.4,201.2 571.7,201.3 572.0,204.8 572.2,206.0 572.5,206.4 572.8,206.1 573.1,203.2 573.4,200.6 573.7,202.4 574.0,201.6 574.2,201.3 574.5,203.2 574.8,201.0 575.1,201.9 575.4,203.0 575.7,204.4 576.0,204.5 576.2,206.2 576.5,204.7 576.8,209.4 577.1,208.7 577.4,208.0 577.7,208.5 577.9,207.6 578.2,208.1 578.5,209.5 578.8,208.3 579.1,206.4 579.4,204.0 579.7,216.9 579.9,214.7 580.2,213.7 580.5,213.1 580.8,213.7 581.1,210.1 581.4,208.5 581.7,208.8 581.9,208.6 582.2,208.0 582.5,208.6 582.8,210.2 583.1,211.6 583.4,210.7 583.6,208.7 583.9,210.7 584.2,214.5 584.5,213.0 584.8,210.2 585.1,212.6 585.4,215.9 585.6,215.6 585.9,215.0 586.2,215.5 586.5,216.5 586.8,215.9 587.1,216.5 587.4,217.0 587.6,218.1 587.9,220.6 588.2,221.7 588.5,221.6 588.8,222.1 589.1,221.5 589.4,221.2 589.6,218.4 589.9,219.5 590.2,221.4 590.5,219.9 590.8,218.7 591.1,219.6 591.3,221.0 591.6,222.5 591.9,226.4 592.2,227.4 592.5,226.8 592.8,226.4 593.1,225.1 593.3,225.9 593.6,226.8 593.9,226.0 594.2,223.6 594.5,223.9 594.8,225.5 595.1,225.4 595.3,226.8 595.6,227.5 595.9,228.3 596.2,232.2 596.5,235.0 596.8,233.7 597.0,234.2 597.3,236.8 597.6,236.7 597.9,236.7 598.2,235.8 598.5,234.4 598.8,232.6 599.0,232.5 599.3,232.0 599.6,235.6 599.9,232.2 600.2,232.9 600.5,230.6 600.8,230.6 601.0,229.9 601.3,228.9 601.6,227.7 601.9,227.8 602.2,230.8 602.5,229.8 602.7,229.1 603.0,229.6 603.3,230.2 603.6,229.8 603.9,226.9 604.2,225.3 604.5,225.1 604.7,226.0 605.0,227.6 605.3,222.7 605.6,226.1 605.9,231.7 606.2,230.4 606.5,230.5 606.7,227.8 607.0,229.2 607.3,222.9 607.6,219.6 607.9,216.6 608.2,215.0 608.4,213.2 608.7,211.8 609.0,211.0 609.3,211.3 609.6,210.5 609.9,214.2 610.2,215.9 610.4,215.8 610.7,217.2 611.0,218.3 611.3,218.6 611.6,221.3 611.9,216.8 612.2,213.1 612.4,213.6 612.7,212.8 613.0,209.9 613.3,213.0 613.6,211.3 613.9,211.1 614.1,210.7 614.4,210.5 614.7,213.6 615.0,214.0 615.3,215.5 615.6,218.0 615.9,216.5 616.1,219.0 616.4,218.3 616.7,217.7 617.0,217.0 617.3,217.1 617.6,212.5 617.9,212.0 618.1,214.7 618.4,214.9 618.7,214.8 619.0,214.3 619.3,212.6 619.6,213.6 619.8,214.4 620.1,215.7 620.4,213.5 620.7,212.7 621.0,212.0 621.3,208.9 621.6,210.0 621.8,211.1 622.1,209.0 622.4,208.2 622.7,211.5 623.0,211.5 623.3,209.7 623.6,214.6 623.8,215.5 624.1,214.8 624.4,215.0 624.7,215.4 625.0,217.2 625.3,218.0 625.5,214.6 625.8,215.7 626.1,216.8 626.4,217.9 626.7,211.8 627.0,207.8 627.3,206.3 627.5,205.7 627.8,202.1 628.1,202.9 628.4,201.2 628.7,201.6 629.0,201.9 629.3,201.1 629.5,203.1 629.8,202.4 630.1,203.4 630.4,205.6 630.7,202.3 631.0,203.8 631.3,204.8 631.5,203.7 631.8,204.5 632.1,202.4 632.4,199.6 632.7,198.7 633.0,199.6 633.2,199.2 633.5,201.0 633.8,199.9 634.1,200.5 634.4,199.9 634.7,200.6 635.0,199.5 635.2,201.5 635.5,202.3 635.8,203.5 636.1,201.3 636.4,201.2 636.7,201.5 637.0,205.9 637.2,203.7 637.5,203.9 637.8,202.6 638.1,201.9 638.4,201.8 638.7,206.3 638.9,205.6 639.2,204.9 639.5,205.9 639.8,204.7 640.1,203.6 640.4,203.1 640.7,201.4 640.9,200.1 641.2,201.5 641.5,200.0 641.8,199.4 642.1,200.3 642.4,198.1 642.7,197.4 642.9,198.5 643.2,201.1 643.5,201.7 643.8,200.7 644.1,199.7 644.4,200.7 644.6,199.2 644.9,198.1 645.2,197.2 645.5,199.4 645.8,198.2 646.1,194.1 646.4,197.9 646.6,195.6 646.9,197.8 647.2,197.4 647.5,199.4 647.8,199.9 648.1,200.1 648.4,198.9 648.6,198.9 648.9,199.5 649.2,205.1 649.5,205.8 649.8,206.4 650.1,205.4 650.3,205.0 650.6,205.7 650.9,204.7 651.2,203.2 651.5,200.5 651.8,201.5 652.1,202.8 652.3,201.9 652.6,197.6 652.9,194.7 653.2,193.1 653.5,190.6 653.8,188.9 654.1,189.4 654.3,189.5 654.6,190.9 654.9,190.3 655.2,193.4 655.5,195.4 655.8,193.7 656.0,192.3 656.3,193.6 656.6,192.7 656.9,194.5 657.2,195.5 657.5,200.0 657.8,198.9 658.0,202.5 658.3,201.4 658.6,200.3 658.9,196.5 659.2,195.4 659.5,195.7 659.8,195.8 660.0,194.3 660.3,193.9 660.6,193.3 660.9,192.3 661.2,193.9 661.5,191.0 661.7,190.6 662.0,192.2 662.3,193.7 662.6,193.5 662.9,194.3 663.2,197.8 663.5,198.9 663.7,197.1 664.0,199.1 664.3,197.0 664.6,194.8 664.9,196.1 665.2,191.4 665.5,189.3 665.7,189.9 666.0,190.4 666.3,190.8 666.6,190.2 666.9,187.4 667.2,188.0 667.4,186.8 667.7,186.4 668.0,184.5 668.3,187.5 668.6,187.1 668.9,186.1 669.2,185.5 669.4,185.3 669.7,186.6 670.0,186.4 670.3,185.9 670.6,185.3 670.9,184.2 671.2,182.8 671.4,182.5 671.7,180.7 672.0,180.1 672.3,178.9 672.6,175.9 672.9,174.5 673.2,173.6 673.4,174.7 673.7,175.8 674.0,175.6 674.3,175.2 674.6,174.0 674.9,173.9 675.1,178.5 675.4,177.2 675.7,177.6 676.0,176.7 676.3,177.5 676.6,176.4 676.9,177.9 677.1,183.7 677.4,186.8 677.7,187.7 678.0,186.7 678.3,187.0 678.6,183.6 678.9,180.4 679.1,180.0 679.4,179.9 679.7,178.6 680.0,182.8 680.3,182.1 680.6,182.8 680.8,182.4 681.1,183.7 681.4,182.9 681.7,182.2 682.0,181.4 682.3,183.6 682.6,181.2 682.8,181.5 683.1,178.4 683.4,182.1 683.7,184.1 684.0,184.6 684.3,184.6 684.6,187.8 684.8,187.5 685.1,188.4 685.4,188.7 685.7,188.2 686.0,187.4 686.3,188.0 686.5,189.8 686.8,189.5 687.1,186.4 687.4,187.0 687.7,189.1 688.0,187.1 688.3,186.6 688.5,186.3 688.8,188.5 689.1,185.9 689.4,185.9 689.7,185.6 690.0,186.1 690.3,184.2 690.5,184.0 690.8,185.6 691.1,185.8 691.4,187.6 691.7,186.2 692.0,187.4 692.2,186.6 692.5,187.1 692.8,186.1 693.1,182.3 693.4,181.1 693.7,180.8 694.0,180.1 694.2,179.1 694.5,180.3 694.8,177.2 695.1,176.9 695.4,180.8 695.7,180.3 696.0,181.7 696.2,184.2 696.5,186.6 696.8,186.8 697.1,188.1 697.4,186.4 697.7,190.5 697.9,188.2 698.2,190.0 698.5,187.6 698.8,185.1 699.1,186.2 699.4,188.2 699.7,190.3 699.9,184.2 700.2,184.6 700.5,182.3 700.8,180.4 701.1,178.2 701.4,178.7 701.7,179.2 701.9,179.0 702.2,177.5 702.5,176.3 702.8,173.3 703.1,175.1 703.4,173.3 703.6,174.5 703.9,173.5 704.2,174.3 704.5,173.9 704.8,174.2 705.1,180.1 705.4,181.9 705.6,183.1 705.9,177.0 706.2,170.1 706.5,167.4 706.8,165.7 707.1,163.5 707.4,161.4 707.6,163.2 707.9,162.4 708.2,164.6 708.5,165.1 708.8,163.0 709.1,163.1 709.3,161.8 709.6,161.8 709.9,160.1 710.2,162.6 710.5,164.1 710.8,161.8 711.1,159.3 711.3,160.3 711.6,161.5 711.9,158.7 712.2,167.0 712.5,163.6 712.8,166.3 713.1,164.1 713.3,163.2 713.6,161.1 713.9,158.4 714.2,156.1 714.5,156.6 714.8,154.3 715.1,156.6 715.3,155.5 715.6,155.1 715.9,153.7 716.2,147.8 716.5,148.8 716.8,148.4 717.0,150.0 717.3,152.3 717.6,152.0 717.9,153.2 718.2,152.5 718.5,150.3 718.8,148.8 719.0,150.5 719.3,151.4 719.6,151.9 719.9,152.7 720.2,152.3 720.5,153.9 720.8,154.2 721.0,153.1 721.3,155.9 721.6,153.1 721.9,153.6 722.2,153.6 722.5,151.8 722.7,147.1 723.0,152.7 723.3,149.5 723.6,148.8 723.9,144.7 724.2,146.3 724.5,146.1 724.7,145.7 725.0,147.7 725.3,146.5 725.6,144.8 725.9,141.8 726.2,142.8 726.5,144.6 726.7,144.6 727.0,145.7 727.3,144.8 727.6,145.5 727.9,145.3 728.2,144.5 728.4,141.0 728.7,138.9 729.0,138.2 729.3,135.9 729.6,135.7 729.9,134.9 730.2,134.6 730.4,134.3 730.7,135.0 731.0,135.2 731.3,134.3 731.6,137.1 731.9,136.4 732.2,134.9 732.4,134.1 732.7,134.4 733.0,133.4 733.3,133.4 733.6,132.9 733.9,129.9 734.1,128.8 734.4,126.3 734.7,125.6 735.0,122.9 735.3,121.1 735.6,122.3 735.9,119.5 736.1,118.5 736.4,118.4 736.7,115.6 737.0,120.7 737.3,119.8 737.6,118.9 737.9,114.8 738.1,115.1 738.4,113.7 738.7,115.7 739.0,113.8 739.3,111.5 739.6,109.1 739.8,107.1 740.1,106.8 740.4,108.2 740.7,108.8 741.0,106.3 741.3,105.1 741.6,105.5 741.8,113.7 742.1,113.5 742.4,110.5 742.7,111.8 743.0,110.8 743.3,107.2 743.6,113.5 743.8,113.8 744.1,123.9 744.4,122.1 744.7,125.1 745.0,126.1 745.3,131.4 745.5,131.0 745.8,130.8 746.1,128.5 746.4,130.5 746.7,130.9 747.0,134.2 747.3,132.7 747.5,133.4 747.8,130.6 748.1,129.3 748.4,129.1 748.7,126.1 749.0,128.1 749.3,129.1 749.5,130.8 749.8,128.9 750.1,126.9 750.4,129.6 750.7,129.7 751.0,125.2 751.2,125.4 751.5,123.6 751.8,121.4 752.1,122.6 752.4,124.0 752.7,124.0 753.0,123.5 753.2,124.3 753.5,125.5 753.8,122.0 754.1,120.4 754.4,118.5 754.7,118.1 755.0,122.0 755.2,118.8 755.5,119.7 755.8,119.4 756.1,115.5 756.4,115.6 756.7,114.3 757.0,115.3 757.2,113.8 757.5,119.4 757.8,118.3 758.1,120.0 758.4,120.5 758.7,119.6 758.9,115.8 759.2,111.6 759.5,112.5 759.8,111.0 760.1,107.0 760.4,104.9 760.7,105.3 760.9,105.1 761.2,104.2 761.5,98.0 761.8,99.1 762.1,94.4 762.4,94.6 762.7,93.8 762.9,92.8 763.2,91.0 763.5,93.5 763.8,108.8 764.1,110.7 764.4,106.6 764.6,104.6 764.9,110.8 765.2,107.2 765.5,101.9 765.8,99.9 766.1,97.7 766.4,106.4 766.6,100.5 766.9,101.5 767.2,98.5 767.5,102.4 767.8,98.2 768.1,95.7 768.4,94.1 768.6,93.2 768.9,90.6 769.2,89.7 769.5,89.0 769.8,97.2 770.1,97.4 770.3,99.7 770.6,99.6 770.9,98.8 771.2,98.1 771.5,99.8 771.8,102.1 772.1,106.4 772.3,106.6 772.6,107.9 772.9,115.8 773.2,122.3 773.5,127.6 773.8,123.0 774.1,122.2 774.3,121.8 774.6,123.8 774.9,120.5 775.2,120.4 775.5,112.6 775.8,107.0 776.0,106.6 776.3,107.9 776.6,107.0 776.9,106.7 777.2,108.2 777.5,108.8 777.8,108.7 778.0,107.0 778.3,107.0 778.6,105.1 778.9,100.7 779.2,100.4 779.5,108.5 779.8,106.1 780.0,107.2 780.3,106.4 780.6,110.2 780.9,113.8 781.2,116.8 781.5,115.6 781.7,116.2 782.0,118.0 782.3,118.0 782.6,110.6 782.9,114.0 783.2,111.5 783.5,107.8 783.7,108.3 784.0,109.4 784.3,111.6 784.6,117.0 784.9,117.7 785.2,119.7 785.5,118.1 785.7,119.5 786.0,119.4 786.3,115.6 786.6,119.1 786.9,118.6 787.2,115.3 787.4,118.4 787.7,115.8 788.0,120.2 788.3,117.9 788.6,124.5 788.9,124.8 789.2,127.1 789.4,132.1 789.7,128.0 790.0,124.7 790.3,117.8 790.6,115.8 790.9,118.0 791.2,121.5 791.4,124.5 791.7,129.8 792.0,132.3 792.3,132.2 792.6,129.6 792.9,130.5 793.1,131.6 793.4,132.4 793.7,132.2 794.0,134.3 794.3,136.7 794.6,139.8 794.9,138.0 795.1,139.6 795.4,141.6 795.7,141.0 796.0,141.3"/><polyline fill="none" stroke="#16a34a" stroke-width="3" points="78.0,218.8 78.3,221.4 78.6,218.9 78.9,220.8 79.1,223.4 79.4,221.0 79.7,219.0 80.0,221.8 80.3,221.4 80.6,223.5 80.9,227.0 81.1,225.7 81.4,227.4 81.7,231.8 82.0,227.6 82.3,225.3 82.6,223.9 82.8,221.6 83.1,212.5 83.4,216.8 83.7,218.7 84.0,219.4 84.3,222.1 84.6,223.1 84.8,222.4 85.1,222.2 85.4,223.4 85.7,222.9 86.0,222.9 86.3,225.6 86.6,226.4 86.8,224.1 87.1,226.2 87.4,226.1 87.7,227.0 88.0,231.4 88.3,230.4 88.5,232.1 88.8,232.2 89.1,237.1 89.4,238.4 89.7,231.1 90.0,229.2 90.3,226.6 90.5,228.8 90.8,231.8 91.1,236.6 91.4,232.0 91.7,234.3 92.0,236.4 92.3,234.5 92.5,241.5 92.8,239.3 93.1,239.0 93.4,234.5 93.7,234.9 94.0,238.0 94.2,238.9 94.5,240.6 94.8,240.1 95.1,240.7 95.4,241.4 95.7,246.1 96.0,253.4 96.2,252.7 96.5,251.6 96.8,249.5 97.1,248.5 97.4,250.6 97.7,249.2 98.0,247.4 98.2,250.6 98.5,248.0 98.8,246.1 99.1,244.8 99.4,247.4 99.7,248.0 99.9,249.7 100.2,245.6 100.5,245.0 100.8,246.0 101.1,245.7 101.4,245.3 101.7,242.9 101.9,243.9 102.2,244.4 102.5,246.4 102.8,247.8 103.1,249.5 103.4,252.0 103.7,255.6 103.9,256.8 104.2,254.4 104.5,249.7 104.8,250.7 105.1,253.5 105.4,252.3 105.6,253.5 105.9,253.1 106.2,255.7 106.5,254.9 106.8,252.7 107.1,252.2 107.4,252.8 107.6,252.2 107.9,250.7 108.2,250.4 108.5,249.7 108.8,249.2 109.1,248.6 109.4,250.7 109.6,251.2 109.9,252.7 110.2,257.3 110.5,260.3 110.8,262.4 111.1,260.6 111.3,260.3 111.6,261.6 111.9,261.9 112.2,261.1 112.5,259.2 112.8,256.6 113.1,251.3 113.3,253.3 113.6,250.9 113.9,249.9 114.2,243.5 114.5,245.8 114.8,243.7 115.1,243.3 115.3,241.9 115.6,243.3 115.9,243.8 116.2,242.8 116.5,245.1 116.8,245.4 117.0,245.4 117.3,243.9 117.6,244.2 117.9,243.3 118.2,244.0 118.5,242.6 118.8,242.3 119.0,240.5 119.3,238.7 119.6,238.2 119.9,237.1 120.2,233.9 120.5,232.9 120.8,232.1 121.0,234.9 121.3,234.0 121.6,235.2 121.9,235.2 122.2,234.7 122.5,232.4 122.8,233.8 123.0,235.8 123.3,236.5 123.6,236.4 123.9,238.0 124.2,242.4 124.5,240.7 124.7,238.6 125.0,242.1 125.3,240.9 125.6,244.4 125.9,245.1 126.2,246.0 126.5,246.7 126.7,243.9 127.0,241.2 127.3,243.3 127.6,239.1 127.9,237.9 128.2,241.0 128.5,237.7 128.7,237.5 129.0,237.1 129.3,238.0 129.6,238.7 129.9,235.8 130.2,238.2 130.4,238.2 130.7,239.0 131.0,239.3 131.3,239.4 131.6,238.6 131.9,237.7 132.2,237.5 132.4,238.5 132.7,238.2 133.0,237.0 133.3,235.6 133.6,237.7 133.9,237.7 134.2,235.5 134.4,238.1 134.7,238.4 135.0,239.1 135.3,240.5 135.6,245.0 135.9,245.1 136.1,244.4 136.4,243.4 136.7,244.3 137.0,245.3 137.3,245.5 137.6,248.8 137.9,247.4 138.1,247.3 138.4,247.8 138.7,247.6 139.0,243.6 139.3,241.8 139.6,241.2 139.9,239.4 140.1,238.9 140.4,240.1 140.7,239.1 141.0,232.7 141.3,239.4 141.6,241.9 141.8,243.3 142.1,243.9 142.4,244.9 142.7,244.4 143.0,243.6 143.3,243.4 143.6,229.7 143.8,227.5 144.1,224.4 144.4,225.9 144.7,226.1 145.0,225.5 145.3,225.4 145.6,229.8 145.8,229.6 146.1,231.2 146.4,229.5 146.7,229.0 147.0,228.4 147.3,227.3 147.5,227.4 147.8,229.1 148.1,228.3 148.4,226.6 148.7,228.5 149.0,229.1 149.3,230.7 149.5,229.7 149.8,230.7 150.1,231.5 150.4,227.8 150.7,228.3 151.0,228.3 151.3,229.7 151.5,228.6 151.8,227.7 152.1,226.5 152.4,225.9 152.7,225.1 153.0,225.1 153.2,225.3 153.5,226.5 153.8,224.9 154.1,227.2 154.4,225.1 154.7,223.8 155.0,225.1 155.2,225.8 155.5,225.2 155.8,227.1 156.1,229.0 156.4,227.5 156.7,226.4 157.0,225.8 157.2,225.1 157.5,225.1 157.8,226.4 158.1,224.6 158.4,225.1 158.7,224.7 158.9,224.7 159.2,224.9 159.5,225.1 159.8,223.0 160.1,218.1 160.4,217.1 160.7,216.5 160.9,217.4 161.2,215.0 161.5,216.3 161.8,214.2 162.1,214.2 162.4,212.3 162.7,213.1 162.9,215.6 163.2,215.7 163.5,217.4 163.8,217.6 164.1,219.3 164.4,221.5 164.7,220.5 164.9,220.7 165.2,222.1 165.5,221.6 165.8,220.7 166.1,222.1 166.4,223.4 166.6,223.0 166.9,223.0 167.2,223.7 167.5,222.3 167.8,221.4 168.1,223.4 168.4,222.0 168.6,220.0 168.9,221.6 169.2,220.5 169.5,220.3 169.8,220.3 170.1,221.8 170.4,223.4 170.6,223.4 170.9,222.8 171.2,224.8 171.5,224.9 171.8,224.7 172.1,225.6 172.3,227.6 172.6,225.7 172.9,225.1 173.2,225.6 173.5,224.6 173.8,225.3 174.1,226.7 174.3,226.1 174.6,226.3 174.9,228.1 175.2,229.2 175.5,229.5 175.8,229.7 176.1,229.8 176.3,230.1 176.6,229.2 176.9,228.8 177.2,230.5 177.5,230.1 177.8,229.2 178.0,230.4 178.3,230.1 178.6,231.1 178.9,232.4 179.2,232.1 179.5,232.5 179.8,233.7 180.0,234.6 180.3,236.1 180.6,238.0 180.9,238.0 181.2,239.5 181.5,240.3 181.8,238.5 182.0,239.5 182.3,241.2 182.6,241.1 182.9,241.7 183.2,239.0 183.5,238.4 183.7,235.2 184.0,232.6 184.3,235.3 184.6,234.2 184.9,234.1 185.2,234.3 185.5,235.7 185.7,234.2 186.0,235.1 186.3,236.9 186.6,237.3 186.9,236.4 187.2,235.3 187.5,231.0 187.7,230.3 188.0,231.7 188.3,232.7 188.6,233.0 188.9,234.2 189.2,233.9 189.4,230.8 189.7,234.1 190.0,234.9 190.3,238.1 190.6,237.9 190.9,237.0 191.2,236.1 191.4,239.2 191.7,238.8 192.0,243.8 192.3,243.4 192.6,243.4 192.9,246.0 193.2,243.0 193.4,243.0 193.7,240.9 194.0,240.7 194.3,242.8 194.6,252.4 194.9,251.9 195.1,252.1 195.4,250.5 195.7,248.6 196.0,251.5 196.3,252.3 196.6,250.1 196.9,250.2 197.1,249.9 197.4,248.4 197.7,252.0 198.0,252.4 198.3,250.5 198.6,249.6 198.9,249.8 199.1,251.7 199.4,253.4 199.7,254.7 200.0,254.3 200.3,254.8 200.6,252.5 200.8,253.9 201.1,253.1 201.4,251.8 201.7,252.8 202.0,253.8 202.3,252.2 202.6,250.4 202.8,250.6 203.1,254.8 203.4,253.3 203.7,252.3 204.0,252.0 204.3,252.2 204.6,250.9 204.8,251.5 205.1,248.3 205.4,247.6 205.7,247.8 206.0,248.4 206.3,250.1 206.6,249.9 206.8,252.7 207.1,251.6 207.4,252.4 207.7,251.9 208.0,249.7 208.3,251.2 208.5,251.1 208.8,250.7 209.1,250.8 209.4,247.9 209.7,245.6 210.0,244.7 210.3,243.5 210.5,241.4 210.8,242.9 211.1,243.9 211.4,246.0 211.7,247.2 212.0,248.0 212.3,246.9 212.5,246.3 212.8,247.6 213.1,246.5 213.4,245.6 213.7,245.4 214.0,246.4 214.2,246.6 214.5,246.6 214.8,246.6 215.1,247.3 215.4,247.5 215.7,247.4 216.0,248.6 216.2,249.7 216.5,251.7 216.8,253.2 217.1,252.9 217.4,254.3 217.7,253.6 218.0,253.4 218.2,255.4 218.5,256.9 218.8,257.6 219.1,255.6 219.4,256.6 219.7,256.4 219.9,256.4 220.2,256.2 220.5,254.0 220.8,253.9 221.1,252.5 221.4,252.8 221.7,252.3 221.9,252.7 222.2,253.4 222.5,255.1 222.8,254.8 223.1,254.7 223.4,254.5 223.7,254.4 223.9,254.1 224.2,253.9 224.5,252.7 224.8,253.4 225.1,253.6 225.4,251.6 225.6,251.9 225.9,253.0 226.2,253.6 226.5,253.5 226.8,254.6 227.1,257.5 227.4,257.4 227.6,257.4 227.9,259.5 228.2,260.4 228.5,260.2 228.8,260.7 229.1,262.8 229.4,264.7 229.6,269.5 229.9,272.6 230.2,270.8 230.5,268.9 230.8,269.0 231.1,268.6 231.3,272.9 231.6,269.4 231.9,267.5 232.2,270.4 232.5,269.9 232.8,270.8 233.1,272.2 233.3,275.7 233.6,278.3 233.9,278.5 234.2,276.2 234.5,276.9 234.8,277.6 235.1,273.9 235.3,276.5 235.6,279.2 235.9,278.3 236.2,279.2 236.5,276.5 236.8,276.1 237.0,276.9 237.3,276.4 237.6,274.7 237.9,278.0 238.2,278.6 238.5,276.4 238.8,276.2 239.0,273.3 239.3,274.5 239.6,274.7 239.9,275.1 240.2,274.7 240.5,276.8 240.8,274.6 241.0,268.5 241.3,268.2 241.6,268.6 241.9,269.9 242.2,269.1 242.5,271.8 242.7,272.0 243.0,270.0 243.3,269.0 243.6,268.7 243.9,275.7 244.2,275.1 244.5,276.2 244.7,274.5 245.0,275.6 245.3,271.8 245.6,270.5 245.9,272.1 246.2,273.1 246.5,279.8 246.7,279.3 247.0,279.1 247.3,284.0 247.6,283.6 247.9,281.1 248.2,278.3 248.5,276.2 248.7,276.0 249.0,277.3 249.3,273.8 249.6,277.1 249.9,277.1 250.2,280.1 250.4,277.6 250.7,278.0 251.0,277.5 251.3,276.9 251.6,279.7 251.9,278.3 252.2,272.0 252.4,270.8 252.7,272.2 253.0,271.0 253.3,270.8 253.6,273.0 253.9,270.9 254.2,267.5 254.4,267.7 254.7,266.4 255.0,265.9 255.3,261.4 255.6,262.8 255.9,262.3 256.1,262.7 256.4,260.8 256.7,259.5 257.0,256.8 257.3,256.9 257.6,259.3 257.9,257.2 258.1,255.8 258.4,257.6 258.7,258.4 259.0,258.6 259.3,258.7 259.6,259.2 259.9,259.2 260.1,262.5 260.4,260.5 260.7,260.6 261.0,260.9 261.3,258.1 261.6,254.3 261.8,252.8 262.1,251.5 262.4,249.7 262.7,249.2 263.0,250.2 263.3,249.8 263.6,250.5 263.8,251.0 264.1,248.7 264.4,249.4 264.7,250.3 265.0,249.5 265.3,246.7 265.6,245.2 265.8,242.9 266.1,242.3 266.4,236.3 266.7,233.4 267.0,235.2 267.3,233.2 267.5,235.0 267.8,235.5 268.1,236.8 268.4,236.9 268.7,237.2 269.0,240.0 269.3,239.4 269.5,232.1 269.8,232.4 270.1,229.6 270.4,228.6 270.7,231.2 271.0,233.6 271.3,233.8 271.5,233.5 271.8,231.2 272.1,231.8 272.4,231.4 272.7,229.7 273.0,229.6 273.2,229.8 273.5,234.2 273.8,234.9 274.1,235.9 274.4,233.6 274.7,234.6 275.0,233.0 275.2,232.9 275.5,232.7 275.8,231.7 276.1,233.3 276.4,235.1 276.7,236.6 277.0,232.8 277.2,234.7 277.5,236.0 277.8,237.0 278.1,237.1 278.4,239.9 278.7,236.9 278.9,235.3 279.2,233.4 279.5,235.5 279.8,234.3 280.1,244.1 280.4,245.9 280.7,247.5 280.9,247.8 281.2,247.3 281.5,249.2 281.8,249.3 282.1,249.3 282.4,244.4 282.7,245.3 282.9,245.8 283.2,248.2 283.5,247.3 283.8,246.3 284.1,246.3 284.4,248.7 284.6,248.5 284.9,248.7 285.2,247.8 285.5,248.6 285.8,246.1 286.1,242.6 286.4,240.5 286.6,239.5 286.9,239.8 287.2,239.9 287.5,241.6 287.8,243.8 288.1,245.1 288.4,245.9 288.6,243.6 288.9,242.8 289.2,240.1 289.5,238.8 289.8,238.0 290.1,235.4 290.4,235.4 290.6,233.0 290.9,238.6 291.2,239.4 291.5,242.8 291.8,242.2 292.1,243.7 292.3,241.4 292.6,242.5 292.9,243.3 293.2,244.6 293.5,244.4 293.8,242.9 294.1,243.1 294.3,240.0 294.6,239.7 294.9,239.7 295.2,236.8 295.5,231.9 295.8,232.0 296.1,230.8 296.3,230.3 296.6,227.0 296.9,228.3 297.2,227.2 297.5,226.1 297.8,225.3 298.0,229.5 298.3,226.9 298.6,227.0 298.9,217.5 299.2,225.3 299.5,224.3 299.8,222.7 300.0,221.9 300.3,222.5 300.6,224.8 300.9,227.0 301.2,225.6 301.5,226.4 301.8,226.6 302.0,223.9 302.3,224.4 302.6,225.5 302.9,221.3 303.2,222.1 303.5,220.0 303.7,220.2 304.0,221.6 304.3,221.6 304.6,219.7 304.9,218.2 305.2,221.4 305.5,223.0 305.7,225.9 306.0,226.2 306.3,226.3 306.6,229.0 306.9,232.1 307.2,229.0 307.5,227.9 307.7,229.6 308.0,227.4 308.3,225.6 308.6,236.4 308.9,240.6 309.2,243.8 309.4,246.3 309.7,249.5 310.0,253.7 310.3,253.4 310.6,250.9 310.9,251.4 311.2,249.5 311.4,251.8 311.7,251.3 312.0,253.3 312.3,253.7 312.6,255.0 312.9,253.0 313.2,255.9 313.4,254.1 313.7,252.3 314.0,252.1 314.3,253.1 314.6,253.2 314.9,252.5 315.1,250.6 315.4,250.9 315.7,251.4 316.0,250.9 316.3,250.5 316.6,247.9 316.9,247.7 317.1,249.0 317.4,254.4 317.7,256.3 318.0,263.6 318.3,263.1 318.6,264.2 318.9,262.1 319.1,261.6 319.4,262.0 319.7,262.2 320.0,262.1 320.3,258.5 320.6,258.5 320.8,260.1 321.1,263.1 321.4,261.9 321.7,260.9 322.0,262.1 322.3,259.7 322.6,259.7 322.8,257.5 323.1,258.5 323.4,259.2 323.7,261.4 324.0,261.6 324.3,262.2 324.6,259.6 324.8,260.1 325.1,256.5 325.4,257.8 325.7,257.3 326.0,256.6 326.3,256.5 326.5,257.4 326.8,252.1 327.1,251.1 327.4,246.7 327.7,250.1 328.0,248.5 328.3,248.9 328.5,248.8 328.8,249.6 329.1,250.4 329.4,246.8 329.7,253.8 330.0,252.8 330.3,252.3 330.5,255.1 330.8,253.8 331.1,251.8 331.4,251.4 331.7,251.2 332.0,248.7 332.3,251.1 332.5,250.5 332.8,248.9 333.1,249.7 333.4,251.2 333.7,248.8 334.0,248.4 334.2,246.0 334.5,249.8 334.8,251.5 335.1,252.8 335.4,249.2 335.7,249.7 336.0,248.5 336.2,242.6 336.5,248.0 336.8,244.6 337.1,242.7 337.4,241.5 337.7,239.6 338.0,241.0 338.2,241.5 338.5,243.7 338.8,248.8 339.1,248.7 339.4,258.2 339.7,266.3 339.9,263.5 340.2,259.7 340.5,259.8 340.8,257.7 341.1,260.8 341.4,271.7 341.7,271.8 341.9,280.4 342.2,296.5 342.5,312.4 342.8,299.3 343.1,274.4 343.4,284.4 343.7,283.4 343.9,290.3 344.2,285.8 344.5,280.6 344.8,269.1 345.1,267.7 345.4,278.0 345.6,276.7 345.9,276.0 346.2,276.1 346.5,272.7 346.8,274.9 347.1,270.8 347.4,270.3 347.6,273.5 347.9,265.5 348.2,260.8 348.5,261.5 348.8,262.5 349.1,261.9 349.4,264.4 349.6,262.5 349.9,263.6 350.2,256.1 350.5,253.1 350.8,253.5 351.1,252.6 351.3,252.9 351.6,250.5 351.9,254.5 352.2,251.7 352.5,251.9 352.8,251.7 353.1,254.0 353.3,250.2 353.6,249.9 353.9,252.4 354.2,250.3 354.5,254.9 354.8,249.1 355.1,241.9 355.3,247.4 355.6,239.2 355.9,240.7 356.2,243.5 356.5,242.2 356.8,248.3 357.0,247.1 357.3,247.4 357.6,246.6 357.9,244.6 358.2,249.2 358.5,253.5 358.8,250.8 359.0,251.9 359.3,251.4 359.6,251.6 359.9,249.2 360.2,255.1 360.5,256.8 360.8,252.6 361.0,255.2 361.3,254.3 361.6,256.9 361.9,251.8 362.2,248.5 362.5,246.7 362.7,248.9 363.0,247.5 363.3,248.7 363.6,248.5 363.9,244.9 364.2,245.5 364.5,245.4 364.7,241.5 365.0,238.6 365.3,237.7 365.6,237.6 365.9,239.2 366.2,242.2 366.5,238.6 366.7,235.9 367.0,238.9 367.3,237.2 367.6,234.1 367.9,231.3 368.2,231.0 368.4,233.4 368.7,230.9 369.0,227.5 369.3,226.7 369.6,228.4 369.9,231.6 370.2,228.4 370.4,229.4 370.7,223.5 371.0,222.2 371.3,227.5 371.6,230.3 371.9,231.2 372.2,235.1 372.4,237.2 372.7,234.0 373.0,235.6 373.3,228.6 373.6,228.1 373.9,230.5 374.2,227.8 374.4,230.2 374.7,230.3 375.0,230.4 375.3,227.9 375.6,229.1 375.9,225.3 376.1,223.5 376.4,224.5 376.7,224.7 377.0,224.7 377.3,227.8 377.6,227.9 377.9,222.3 378.1,221.9 378.4,220.3 378.7,217.7 379.0,216.9 379.3,216.8 379.6,216.9 379.9,217.5 380.1,221.2 380.4,222.5 380.7,230.6 381.0,227.9 381.3,228.6 381.6,227.4 381.8,226.5 382.1,227.2 382.4,226.0 382.7,227.8 383.0,226.3 383.3,225.3 383.6,227.4 383.8,226.0 384.1,221.1 384.4,222.4 384.7,224.0 385.0,222.1 385.3,223.2 385.6,225.6 385.8,227.2 386.1,226.7 386.4,224.2 386.7,225.2 387.0,226.3 387.3,227.0 387.5,224.9 387.8,234.3 388.1,233.6 388.4,233.0 388.7,228.7 389.0,228.2 389.3,230.3 389.5,223.3 389.8,222.0 390.1,228.9 390.4,232.5 390.7,232.6 391.0,230.2 391.3,230.6 391.5,232.9 391.8,233.4 392.1,236.5 392.4,237.8 392.7,235.8 393.0,238.6 393.2,239.9 393.5,239.0 393.8,236.8 394.1,235.9 394.4,232.9 394.7,232.5 395.0,233.2 395.2,233.6 395.5,229.4 395.8,229.2 396.1,231.9 396.4,232.4 396.7,232.3 397.0,232.2 397.2,228.4 397.5,227.5 397.8,222.4 398.1,225.5 398.4,223.2 398.7,224.4 398.9,223.8 399.2,222.6 399.5,222.8 399.8,225.0 400.1,218.1 400.4,219.7 400.7,215.7 400.9,214.8 401.2,214.1 401.5,215.0 401.8,219.5 402.1,221.2 402.4,222.3 402.7,223.6 402.9,223.4 403.2,226.9 403.5,226.8 403.8,224.1 404.1,224.9 404.4,226.0 404.6,227.7 404.9,227.1 405.2,232.9 405.5,230.1 405.8,232.5 406.1,228.0 406.4,232.1 406.6,232.5 406.9,236.6 407.2,234.6 407.5,231.7 407.8,232.5 408.1,232.5 408.4,234.8 408.6,231.3 408.9,229.6 409.2,232.5 409.5,233.5 409.8,233.6 410.1,230.6 410.3,233.4 410.6,232.1 410.9,240.6 411.2,244.4 411.5,245.6 411.8,238.1 412.1,239.2 412.3,240.8 412.6,237.1 412.9,237.9 413.2,236.1 413.5,233.9 413.8,232.5 414.1,231.7 414.3,230.8 414.6,231.8 414.9,229.4 415.2,230.9 415.5,229.5 415.8,229.2 416.1,232.3 416.3,233.9 416.6,234.7 416.9,232.3 417.2,233.1 417.5,236.5 417.8,233.8 418.0,229.8 418.3,230.0 418.6,226.5 418.9,226.4 419.2,224.7 419.5,224.0 419.8,225.3 420.0,223.6 420.3,225.4 420.6,223.0 420.9,222.6 421.2,223.7 421.5,223.0 421.8,220.1 422.0,221.6 422.3,222.0 422.6,222.2 422.9,224.1 423.2,222.4 423.5,223.8 423.7,224.3 424.0,219.5 424.3,220.9 424.6,220.1 424.9,214.7 425.2,212.9 425.5,214.2 425.7,212.0 426.0,212.2 426.3,212.6 426.6,210.9 426.9,207.4 427.2,208.2 427.5,210.1 427.7,208.9 428.0,208.4 428.3,207.1 428.6,207.1 428.9,207.3 429.2,207.9 429.4,206.8 429.7,205.8 430.0,204.8 430.3,206.7 430.6,203.9 430.9,203.8 431.2,205.0 431.4,205.0 431.7,203.8 432.0,204.8 432.3,202.6 432.6,201.6 432.9,203.5 433.2,208.0 433.4,209.9 433.7,208.1 434.0,208.4 434.3,209.1 434.6,210.0 434.9,210.7 435.1,212.0 435.4,212.9 435.7,211.0 436.0,211.4 436.3,208.7 436.6,210.4 436.9,211.7 437.1,214.9 437.4,213.6 437.7,212.9 438.0,212.8 438.3,211.6 438.6,212.6 438.9,214.7 439.1,217.0 439.4,216.4 439.7,214.6 440.0,215.5 440.3,216.4 440.6,214.3 440.8,214.8 441.1,213.4 441.4,212.0 441.7,211.4 442.0,212.6 442.3,211.7 442.6,212.9 442.8,215.7 443.1,218.4 443.4,221.5 443.7,222.8 444.0,222.4 444.3,223.4 444.6,220.7 444.8,221.1 445.1,221.9 445.4,223.6 445.7,227.4 446.0,227.7 446.3,224.5 446.5,224.2 446.8,225.0 447.1,224.9 447.4,222.0 447.7,223.7 448.0,222.8 448.3,224.1 448.5,224.1 448.8,221.1 449.1,224.1 449.4,223.7 449.7,224.8 450.0,226.2 450.3,224.1 450.5,223.7 450.8,222.9 451.1,224.9 451.4,226.2 451.7,226.9 452.0,226.6 452.2,227.8 452.5,230.7 452.8,230.9 453.1,230.8 453.4,229.6 453.7,232.7 454.0,231.2 454.2,231.7 454.5,231.0 454.8,229.7 455.1,227.4 455.4,228.1 455.7,227.4 456.0,228.4 456.2,226.0 456.5,223.7 456.8,221.1 457.1,221.7 457.4,222.7 457.7,223.0 457.9,221.6 458.2,220.8 458.5,220.6 458.8,219.1 459.1,219.1 459.4,217.4 459.7,217.3 459.9,219.0 460.2,219.6 460.5,221.4 460.8,220.5 461.1,222.2 461.4,219.6 461.7,219.5 461.9,218.6 462.2,217.9 462.5,213.9 462.8,212.7 463.1,210.9 463.4,212.1 463.7,213.2 463.9,213.9 464.2,214.5 464.5,216.1 464.8,218.4 465.1,218.9 465.4,220.1 465.6,221.5 465.9,222.5 466.2,227.0 466.5,231.3 466.8,231.4 467.1,228.9 467.4,226.7 467.6,226.2 467.9,229.1 468.2,228.0 468.5,229.2 468.8,231.4 469.1,231.2 469.4,227.0 469.6,227.7 469.9,228.0 470.2,227.0 470.5,225.5 470.8,224.0 471.1,223.8 471.3,224.5 471.6,225.6 471.9,223.1 472.2,221.8 472.5,224.6 472.8,224.4 473.1,227.0 473.3,230.7 473.6,230.5 473.9,227.6 474.2,223.4 474.5,223.1 474.8,225.4 475.1,226.9 475.3,228.5 475.6,222.2 475.9,225.8 476.2,227.5 476.5,227.7 476.8,228.4 477.0,232.0 477.3,234.8 477.6,234.5 477.9,232.5 478.2,232.1 478.5,231.0 478.8,232.1 479.0,232.3 479.3,228.2 479.6,225.5 479.9,225.4 480.2,227.5 480.5,222.6 480.8,220.3 481.0,221.4 481.3,219.1 481.6,218.9 481.9,221.1 482.2,222.7 482.5,220.7 482.7,221.8 483.0,221.1 483.3,220.9 483.6,214.8 483.9,213.9 484.2,212.2 484.5,210.2 484.7,207.9 485.0,208.5 485.3,207.9 485.6,204.6 485.9,205.8 486.2,210.0 486.5,208.9 486.7,208.2 487.0,206.6 487.3,214.5 487.6,213.8 487.9,215.1 488.2,213.2 488.4,213.3 488.7,213.8 489.0,216.3 489.3,215.7 489.6,214.1 489.9,213.8 490.2,210.5 490.4,211.1 490.7,213.3 491.0,212.5 491.3,211.1 491.6,209.3 491.9,209.4 492.2,209.3 492.4,208.3 492.7,206.9 493.0,208.7 493.3,208.9 493.6,205.9 493.9,210.8 494.1,213.4 494.4,216.8 494.7,219.4 495.0,221.4 495.3,219.8 495.6,221.0 495.9,222.7 496.1,220.3 496.4,218.0 496.7,221.2 497.0,222.0 497.3,228.1 497.6,230.0 497.9,230.0 498.1,236.2 498.4,235.6 498.7,235.2 499.0,234.1 499.3,235.7 499.6,228.6 499.8,228.7 500.1,226.8 500.4,224.4 500.7,227.4 501.0,227.4 501.3,226.7 501.6,230.1 501.8,228.7 502.1,223.7 502.4,225.6 502.7,225.6 503.0,225.2 503.3,225.9 503.6,229.7 503.8,225.8 504.1,231.8 504.4,232.9 504.7,231.7 505.0,229.3 505.3,231.3 505.6,230.5 505.8,232.5 506.1,236.8 506.4,234.6 506.7,234.6 507.0,236.3 507.3,236.0 507.5,241.0 507.8,237.8 508.1,243.6 508.4,243.7 508.7,242.4 509.0,242.4 509.3,242.7 509.5,244.1 509.8,240.5 510.1,243.8 510.4,244.9 510.7,243.0 511.0,241.1 511.3,245.5 511.5,245.4 511.8,247.6 512.1,248.0 512.4,244.8 512.7,241.5 513.0,238.2 513.2,237.5 513.5,237.7 513.8,239.7 514.1,241.4 514.4,238.0 514.7,238.7 515.0,236.7 515.2,236.7 515.5,238.5 515.8,237.8 516.1,236.2 516.4,238.0 516.7,237.7 517.0,241.2 517.2,240.5 517.5,242.9 517.8,241.8 518.1,240.2 518.4,238.9 518.7,238.3 518.9,242.4 519.2,242.3 519.5,244.6 519.8,245.4 520.1,249.8 520.4,245.0 520.7,245.5 520.9,241.4 521.2,241.3 521.5,239.6 521.8,235.7 522.1,239.2 522.4,239.1 522.7,242.9 522.9,243.3 523.2,241.3 523.5,243.6 523.8,242.7 524.1,243.9 524.4,247.8 524.6,249.2 524.9,248.7 525.2,242.6 525.5,242.7 525.8,239.8 526.1,236.5 526.4,233.6 526.6,235.1 526.9,235.5 527.2,241.2 527.5,243.0 527.8,242.3 528.1,241.0 528.4,241.1 528.6,244.5 528.9,241.3 529.2,240.9 529.5,243.2 529.8,241.8 530.1,236.4 530.3,236.6 530.6,234.7 530.9,232.8 531.2,233.8 531.5,233.2 531.8,234.2 532.1,233.3 532.3,238.6 532.6,239.4 532.9,229.3 533.2,229.4 533.5,221.3 533.8,222.8 534.1,217.4 534.3,214.8 534.6,216.4 534.9,217.0 535.2,217.7 535.5,217.4 535.8,217.0 536.0,218.8 536.3,216.7 536.6,216.3 536.9,217.7 537.2,221.5 537.5,218.6 537.8,217.6 538.0,216.1 538.3,216.6 538.6,219.8 538.9,219.5 539.2,218.4 539.5,218.4 539.8,220.5 540.0,220.9 540.3,220.0 540.6,220.1 540.9,222.6 541.2,222.1 541.5,224.0 541.7,221.4 542.0,221.3 542.3,221.1 542.6,221.0 542.9,218.8 543.2,221.9 543.5,221.5 543.7,221.8 544.0,220.3 544.3,217.3 544.6,217.2 544.9,216.4 545.2,217.3 545.5,216.9 545.7,217.1 546.0,214.1 546.3,212.1 546.6,214.1 546.9,214.0 547.2,208.7 547.5,209.1 547.7,209.9 548.0,208.2 548.3,206.9 548.6,208.4 548.9,210.0 549.2,211.2 549.4,211.1 549.7,210.1 550.0,212.6 550.3,215.2 550.6,215.7 550.9,214.6 551.2,215.2 551.4,216.7 551.7,215.9 552.0,215.8 552.3,214.2 552.6,214.7 552.9,214.9 553.2,216.0 553.4,216.6 553.7,217.8 554.0,218.0 554.3,214.4 554.6,214.4 554.9,213.2 555.1,210.0 555.4,210.3 555.7,209.3 556.0,210.1 556.3,214.3 556.6,216.1 556.9,215.9 557.1,213.9 557.4,208.6 557.7,205.8 558.0,206.1 558.3,206.3 558.6,200.4 558.9,200.5 559.1,203.5 559.4,201.6 559.7,199.3 560.0,199.2 560.3,197.9 560.6,195.5 560.8,195.8 561.1,194.3 561.4,193.5 561.7,190.5 562.0,187.8 562.3,188.2 562.6,188.5 562.8,191.0 563.1,189.3 563.4,189.4 563.7,188.2 564.0,189.3 564.3,191.6 564.6,190.8 564.8,191.8 565.1,190.9 565.4,192.1 565.7,191.2 566.0,189.4 566.3,190.1 566.5,190.3 566.8,190.6 567.1,189.4 567.4,183.6 567.7,182.6 568.0,182.6 568.3,183.0 568.5,182.8 568.8,184.0 569.1,184.6 569.4,185.7 569.7,185.0 570.0,183.4 570.3,186.5 570.5,188.4 570.8,192.3 571.1,190.6 571.4,191.2 571.7,191.3 572.0,194.9 572.2,196.1 572.5,196.5 572.8,196.2 573.1,193.2 573.4,190.7 573.7,192.4 574.0,191.7 574.2,191.3 574.5,193.2 574.8,191.0 575.1,191.9 575.4,193.0 575.7,194.5 576.0,194.6 576.2,196.3 576.5,194.7 576.8,199.5 577.1,198.7 577.4,198.1 577.7,198.6 577.9,197.7 578.2,198.2 578.5,199.6 578.8,198.0 579.1,196.2 579.4,193.8 579.7,206.7 579.9,204.4 580.2,203.5 580.5,202.9 580.8,203.5 581.1,199.9 581.4,198.2 581.7,198.6 581.9,198.3 582.2,197.7 582.5,198.3 582.8,199.9 583.1,201.4 583.4,200.4 583.6,198.4 583.9,200.4 584.2,204.2 584.5,202.7 584.8,199.9 585.1,202.4 585.4,205.7 585.6,205.4 585.9,204.7 586.2,205.3 586.5,206.3 586.8,205.7 587.1,206.2 587.4,206.7 587.6,207.9 587.9,210.4 588.2,211.5 588.5,211.4 588.8,211.9 589.1,211.2 589.4,210.9 589.6,208.2 589.9,209.2 590.2,211.2 590.5,209.7 590.8,208.5 591.1,209.4 591.3,210.8 591.6,212.3 591.9,216.1 592.2,217.2 592.5,216.6 592.8,216.2 593.1,214.9 593.3,215.6 593.6,216.6 593.9,215.8 594.2,213.4 594.5,213.7 594.8,215.3 595.1,215.1 595.3,216.5 595.6,217.3 595.9,218.1 596.2,222.0 596.5,224.8 596.8,223.1 597.0,223.6 597.3,226.2 597.6,226.1 597.9,226.1 598.2,225.1 598.5,223.8 598.8,222.0 599.0,221.9 599.3,221.3 599.6,224.9 599.9,221.6 600.2,222.3 600.5,220.0 600.8,220.0 601.0,219.3 601.3,218.3 601.6,217.0 601.9,217.2 602.2,220.1 602.5,219.1 602.7,218.5 603.0,219.0 603.3,219.6 603.6,219.2 603.9,216.3 604.2,214.7 604.5,214.4 604.7,215.4 605.0,217.0 605.3,212.0 605.6,215.5 605.9,221.1 606.2,219.7 606.5,219.9 606.7,217.2 607.0,218.5 607.3,212.3 607.6,209.0 607.9,206.0 608.2,204.4 608.4,202.5 608.7,201.2 609.0,200.3 609.3,200.7 609.6,199.8 609.9,203.6 610.2,205.3 610.4,205.2 610.7,206.6 611.0,207.7 611.3,207.9 611.6,210.7 611.9,206.2 612.2,202.5 612.4,203.0 612.7,202.2 613.0,199.3 613.3,202.4 613.6,200.7 613.9,200.5 614.1,200.1 614.4,199.8 614.7,202.6 615.0,203.1 615.3,204.5 615.6,207.0 615.9,205.6 616.1,208.1 616.4,207.3 616.7,206.7 617.0,206.0 617.3,206.2 617.6,201.5 617.9,201.0 618.1,203.7 618.4,204.0 618.7,203.8 619.0,203.4 619.3,201.6 619.6,202.6 619.8,203.4 620.1,204.8 620.4,202.6 620.7,201.8 621.0,201.1 621.3,198.0 621.6,199.1 621.8,200.1 622.1,198.1 622.4,197.2 622.7,200.5 623.0,200.5 623.3,198.7 623.6,203.7 623.8,204.5 624.1,203.8 624.4,204.0 624.7,204.5 625.0,206.3 625.3,207.0 625.5,203.7 625.8,204.8 626.1,205.8 626.4,206.9 626.7,200.9 627.0,196.9 627.3,195.3 627.5,194.7 627.8,191.1 628.1,191.9 628.4,190.3 628.7,190.7 629.0,191.0 629.3,190.1 629.5,192.1 629.8,191.5 630.1,192.4 630.4,194.7 630.7,191.4 631.0,192.9 631.3,193.9 631.5,192.7 631.8,193.5 632.1,191.1 632.4,188.3 632.7,187.4 633.0,188.4 633.2,187.9 633.5,189.8 633.8,188.7 634.1,189.2 634.4,188.6 634.7,189.3 635.0,188.3 635.2,190.2 635.5,191.0 635.8,192.2 636.1,190.1 636.4,190.0 636.7,190.3 637.0,194.7 637.2,192.4 637.5,192.7 637.8,191.4 638.1,190.7 638.4,190.6 638.7,195.0 638.9,194.4 639.2,193.6 639.5,194.7 639.8,193.5 640.1,192.4 640.4,191.9 640.7,190.2 640.9,188.8 641.2,190.3 641.5,188.8 641.8,188.2 642.1,189.1 642.4,186.9 642.7,186.1 642.9,187.3 643.2,189.9 643.5,190.4 643.8,189.5 644.1,188.5 644.4,189.5 644.6,187.9 644.9,186.9 645.2,186.0 645.5,188.2 645.8,186.9 646.1,182.9 646.4,186.6 646.6,184.4 646.9,186.5 647.2,186.1 647.5,188.2 647.8,188.6 648.1,188.9 648.4,187.6 648.6,187.6 648.9,188.3 649.2,193.8 649.5,194.6 649.8,195.2 650.1,194.2 650.3,193.5 650.6,194.2 650.9,193.1 651.2,191.7 651.5,188.9 651.8,190.0 652.1,191.3 652.3,190.3 652.6,186.1 652.9,183.1 653.2,181.6 653.5,179.1 653.8,177.3 654.1,177.9 654.3,178.0 654.6,179.3 654.9,178.7 655.2,181.8 655.5,183.9 655.8,182.2 656.0,180.7 656.3,182.1 656.6,181.2 656.9,183.0 657.2,184.0 657.5,188.5 657.8,187.3 658.0,191.0 658.3,189.9 658.6,188.8 658.9,184.9 659.2,183.9 659.5,184.2 659.8,184.2 660.0,182.8 660.3,182.3 660.6,181.8 660.9,180.8 661.2,182.3 661.5,179.5 661.7,179.1 662.0,180.6 662.3,182.2 662.6,181.9 662.9,182.8 663.2,186.2 663.5,187.4 663.7,185.5 664.0,187.5 664.3,185.5 664.6,183.2 664.9,184.5 665.2,179.8 665.5,177.7 665.7,178.3 666.0,178.8 666.3,179.2 666.6,178.6 666.9,175.9 667.2,176.5 667.4,175.2 667.7,174.8 668.0,172.9 668.3,175.7 668.6,175.3 668.9,174.3 669.2,173.7 669.4,173.4 669.7,174.8 670.0,174.6 670.3,174.1 670.6,173.5 670.9,172.3 671.2,170.9 671.4,170.7 671.7,168.9 672.0,168.2 672.3,167.1 672.6,164.1 672.9,162.6 673.2,161.8 673.4,162.8 673.7,163.9 674.0,163.7 674.3,163.3 674.6,162.2 674.9,162.1 675.1,166.6 675.4,165.4 675.7,165.8 676.0,164.8 676.3,165.7 676.6,164.5 676.9,166.1 677.1,171.9 677.4,174.9 677.7,175.8 678.0,174.9 678.3,175.2 678.6,171.8 678.9,168.6 679.1,168.1 679.4,168.0 679.7,166.7 680.0,171.0 680.3,170.2 680.6,170.9 680.8,170.6 681.1,171.9 681.4,171.1 681.7,170.4 682.0,169.6 682.3,171.8 682.6,169.4 682.8,169.7 683.1,166.5 683.4,170.3 683.7,172.2 684.0,172.8 684.3,172.7 684.6,175.9 684.8,175.7 685.1,176.6 685.4,176.9 685.7,176.3 686.0,175.6 686.3,176.2 686.5,178.0 686.8,177.4 687.1,174.3 687.4,175.0 687.7,177.0 688.0,175.0 688.3,174.6 688.5,174.2 688.8,176.4 689.1,173.8 689.4,173.8 689.7,173.6 690.0,174.0 690.3,172.1 690.5,171.9 690.8,173.5 691.1,173.7 691.4,175.5 691.7,174.1 692.0,175.4 692.2,174.5 692.5,175.0 692.8,174.1 693.1,170.2 693.4,169.0 693.7,168.8 694.0,168.0 694.2,167.0 694.5,168.2 694.8,165.1 695.1,164.8 695.4,168.7 695.7,168.2 696.0,169.6 696.2,172.1 696.5,174.5 696.8,174.7 697.1,176.0 697.4,174.3 697.7,178.4 697.9,176.1 698.2,178.0 698.5,175.5 698.8,173.0 699.1,174.1 699.4,176.1 699.7,178.3 699.9,172.1 700.2,172.5 700.5,170.2 700.8,168.4 701.1,166.1 701.4,166.6 701.7,167.2 701.9,166.9 702.2,165.4 702.5,164.2 702.8,161.2 703.1,163.0 703.4,161.2 703.6,162.4 703.9,161.2 704.2,162.0 704.5,161.6 704.8,161.9 705.1,167.8 705.4,169.6 705.6,170.8 705.9,164.7 706.2,157.8 706.5,155.1 706.8,153.4 707.1,151.2 707.4,149.1 707.6,150.9 707.9,150.1 708.2,152.3 708.5,152.8 708.8,150.7 709.1,150.8 709.3,149.5 709.6,149.5 709.9,147.8 710.2,150.3 710.5,151.8 710.8,149.5 711.1,147.0 711.3,148.0 711.6,149.2 711.9,146.4 712.2,154.7 712.5,151.3 712.8,154.0 713.1,151.8 713.3,150.9 713.6,148.8 713.9,146.1 714.2,143.8 714.5,144.3 714.8,142.0 715.1,144.3 715.3,143.2 715.6,142.8 715.9,141.4 716.2,135.5 716.5,136.5 716.8,136.1 717.0,137.7 717.3,140.0 717.6,139.7 717.9,140.9 718.2,140.2 718.5,138.0 718.8,136.5 719.0,138.2 719.3,139.1 719.6,139.6 719.9,140.4 720.2,140.0 720.5,141.7 720.8,141.9 721.0,140.8 721.3,143.6 721.6,140.6 721.9,141.1 722.2,141.1 722.5,139.3 722.7,134.6 723.0,140.2 723.3,137.0 723.6,136.3 723.9,132.2 724.2,133.8 724.5,133.6 724.7,133.2 725.0,135.2 725.3,134.0 725.6,132.3 725.9,129.3 726.2,130.3 726.5,132.1 726.7,132.0 727.0,133.2 727.3,132.3 727.6,133.0 727.9,132.8 728.2,132.0 728.4,128.5 728.7,126.4 729.0,125.7 729.3,123.4 729.6,123.2 729.9,122.4 730.2,122.1 730.4,121.8 730.7,122.4 731.0,122.7 731.3,121.8 731.6,124.6 731.9,123.9 732.2,122.4 732.4,121.6 732.7,121.9 733.0,120.9 733.3,120.9 733.6,120.4 733.9,117.4 734.1,116.3 734.4,113.8 734.7,113.1 735.0,110.3 735.3,108.6 735.6,109.8 735.9,107.0 736.1,106.0 736.4,105.8 736.7,103.1 737.0,108.1 737.3,107.3 737.6,106.4 737.9,102.3 738.1,102.5 738.4,101.2 738.7,103.2 739.0,101.3 739.3,99.0 739.6,96.6 739.8,94.6 740.1,94.3 740.4,95.6 740.7,96.3 741.0,93.7 741.3,92.6 741.6,93.0 741.8,101.2 742.1,101.0 742.4,98.0 742.7,99.3 743.0,98.3 743.3,94.7 743.6,101.0 743.8,101.3 744.1,111.3 744.4,109.6 744.7,112.6 745.0,113.6 745.3,118.9 745.5,118.5 745.8,118.3 746.1,116.0 746.4,118.0 746.7,118.4 747.0,121.7 747.3,120.2 747.5,120.9 747.8,118.1 748.1,116.8 748.4,116.6 748.7,113.6 749.0,115.6 749.3,116.6 749.5,118.3 749.8,116.4 750.1,114.4 750.4,117.1 750.7,117.2 751.0,112.7 751.2,112.9 751.5,111.0 751.8,108.9 752.1,110.1 752.4,111.5 752.7,111.4 753.0,111.0 753.2,111.8 753.5,113.0 753.8,109.5 754.1,107.9 754.4,106.0 754.7,105.5 755.0,109.5 755.2,106.3 755.5,107.1 755.8,106.9 756.1,102.9 756.4,103.1 756.7,101.7 757.0,102.7 757.2,101.2 757.5,106.9 757.8,105.8 758.1,107.5 758.4,108.0 758.7,107.1 758.9,103.3 759.2,99.1 759.5,100.0 759.8,98.5 760.1,94.5 760.4,92.4 760.7,92.8 760.9,92.6 761.2,91.7 761.5,85.5 761.8,86.6 762.1,81.9 762.4,82.1 762.7,81.3 762.9,80.2 763.2,78.5 763.5,80.9 763.8,96.2 764.1,98.1 764.4,94.1 764.6,92.0 764.9,98.3 765.2,94.7 765.5,89.4 765.8,87.4 766.1,85.2 766.4,93.9 766.6,88.0 766.9,89.0 767.2,86.0 767.5,89.9 767.8,85.7 768.1,83.2 768.4,81.6 768.6,80.7 768.9,78.0 769.2,77.2 769.5,76.5 769.8,84.7 770.1,84.8 770.3,87.2 770.6,87.0 770.9,86.3 771.2,85.6 771.5,87.3 771.8,89.6 772.1,93.9 772.3,94.1 772.6,95.4 772.9,103.2 773.2,109.8 773.5,115.1 773.8,110.5 774.1,109.7 774.3,109.3 774.6,111.3 774.9,107.9 775.2,107.9 775.5,99.9 775.8,94.3 776.0,93.9 776.3,95.2 776.6,94.3 776.9,94.0 777.2,95.5 777.5,96.1 777.8,96.0 778.0,94.3 778.3,94.3 778.6,92.4 778.9,88.0 779.2,87.8 779.5,95.8 779.8,93.5 780.0,94.5 780.3,93.7 780.6,97.5 780.9,101.1 781.2,104.1 781.5,103.0 781.7,103.5 782.0,105.3 782.3,105.3 782.6,97.9 782.9,101.4 783.2,98.8 783.5,95.1 783.7,95.6 784.0,96.7 784.3,98.9 784.6,104.3 784.9,105.1 785.2,107.0 785.5,105.4 785.7,106.8 786.0,106.7 786.3,103.0 786.6,106.4 786.9,105.9 787.2,102.7 787.4,105.7 787.7,103.1 788.0,107.5 788.3,105.2 788.6,111.9 788.9,112.1 789.2,114.4 789.4,119.5 789.7,115.4 790.0,112.0 790.3,105.1 790.6,103.1 790.9,105.4 791.2,108.9 791.4,111.8 791.7,117.1 792.0,119.7 792.3,119.5 792.6,116.9 792.9,117.8 793.1,118.7 793.4,119.5 793.7,119.4 794.0,121.5 794.3,123.8 794.6,126.9 794.9,125.1 795.1,126.7 795.4,128.7 795.7,128.1 796.0,128.5"/>
<text x="78" y="392" font-size="11" fill="#16a34a">Total return +139.1%</text><text x="268" y="392" font-size="11" fill="#2563eb">Price-only +111.1%</text><text x="78" y="362" font-size="11" text-anchor="middle" fill="#64748b">2016-07</text><text x="258" y="362" font-size="11" text-anchor="middle" fill="#64748b">2019-01</text><text x="437" y="362" font-size="11" text-anchor="middle" fill="#64748b">2021-07</text><text x="617" y="362" font-size="11" text-anchor="middle" fill="#64748b">2024-01</text><text x="796" y="362" font-size="11" text-anchor="middle" fill="#64748b">2026-07</text></svg>