<svg xmlns="http://www.w3.org/2000/svg" width="720" height="360" viewBox="0 0 720 360">
  <rect width="720" height="360" fill="#fafafa"/>
  <text x="56" y="22" font-size="13" font-family="sans-serif" fill="#222">OR total return (rebased 100) · cumulative distributions $0.00/sh · market cap n/a</text>
  <line x1="56" y1="308" x2="696" y2="308" stroke="#ccc"/>
  <line x1="56" y1="48" x2="56" y2="308" stroke="#ccc"/>
  <polyline fill="none" stroke="#2563eb" stroke-width="2" points="56.0,257.3 61.4,268.5 66.8,270.4 72.1,272.7 77.5,276.8 82.9,277.3 88.3,270.1 93.6,270.2 99.0,269.5 104.4,271.9 109.8,272.6 115.2,263.3 120.5,259.7 125.9,253.3 131.3,259.4 136.7,261.1 142.1,265.4 147.4,267.0 152.8,268.7 158.2,277.4 163.6,277.6 168.9,277.1 174.3,274.5 179.7,278.7 185.1,278.5 190.5,287.3 195.8,289.2 201.2,288.9 206.6,289.7 212.0,282.6 217.3,276.9 222.7,268.9 228.1,268.7 233.5,268.4 238.9,273.3 244.2,273.2 249.6,265.6 255.0,260.4 260.4,279.6 265.7,276.6 271.1,282.6 276.5,277.3 281.9,275.8 287.3,285.7 292.6,290.1 298.0,280.5 303.4,276.4 308.8,275.7 314.2,266.0 319.5,262.8 324.9,265.4 330.3,269.1 335.7,270.8 341.0,260.7 346.4,269.0 351.8,275.8 357.2,270.0 362.6,264.0 367.9,251.6 373.3,254.9 378.7,255.3 384.1,263.3 389.4,268.8 394.8,261.0 400.2,263.3 405.6,263.1 411.0,269.8 416.3,262.5 421.7,257.8 427.1,262.8 432.5,268.6 437.8,275.1 443.2,273.2 448.6,277.5 454.0,274.7 459.4,271.6 464.7,261.1 470.1,264.1 475.5,256.7 480.9,258.3 486.3,243.1 491.6,240.6 497.0,242.8 502.4,245.6 507.8,248.7 513.1,256.9 518.5,265.9 523.9,263.3 529.3,249.6 534.7,251.7 540.0,250.1 545.4,250.0 550.8,239.7 556.2,245.5 561.5,238.4 566.9,244.4 572.3,233.4 577.7,234.9 583.1,228.0 588.4,218.9 593.8,223.1 599.2,230.3 604.6,227.9 609.9,229.0 615.3,213.3 620.7,197.0 626.1,188.4 631.5,187.6 636.8,176.3 642.2,151.4 647.6,106.9 653.0,152.4 658.4,136.0 663.7,133.3 669.1,110.5 674.5,65.9 679.9,118.5 685.2,124.7 690.6,124.2 696.0,152.3"/>
  <polyline fill="none" stroke="#16a34a" stroke-width="2" points="56.0,257.3 61.4,268.5 66.8,270.4 72.1,272.7 77.5,276.8 82.9,277.3 88.3,270.1 93.6,270.2 99.0,269.5 104.4,271.9 109.8,272.6 115.2,263.3 120.5,259.7 125.9,253.3 131.3,259.4 136.7,261.1 142.1,265.4 147.4,267.0 152.8,268.7 158.2,277.4 163.6,277.6 168.9,277.1 174.3,274.5 179.7,278.7 185.1,278.5 190.5,287.3 195.8,289.2 201.2,288.9 206.6,289.7 212.0,282.6 217.3,276.9 222.7,268.9 228.1,268.7 233.5,268.4 238.9,273.3 244.2,273.2 249.6,265.6 255.0,260.4 260.4,279.6 265.7,276.6 271.1,282.6 276.5,277.3 281.9,275.8 287.3,285.7 292.6,290.1 298.0,280.5 303.4,276.4 308.8,275.7 314.2,266.0 319.5,262.8 324.9,265.4 330.3,269.1 335.7,270.8 341.0,260.7 346.4,269.0 351.8,275.8 357.2,270.0 362.6,264.0 367.9,251.6 373.3,254.9 378.7,255.3 384.1,263.3 389.4,268.8 394.8,261.0 400.2,263.3 405.6,263.1 411.0,269.8 416.3,262.5 421.7,257.8 427.1,262.8 432.5,268.6 437.8,275.1 443.2,273.2 448.6,277.5 454.0,274.7 459.4,271.6 464.7,261.1 470.1,264.1 475.5,256.7 480.9,258.3 486.3,243.1 491.6,240.6 497.0,242.8 502.4,245.6 507.8,248.7 513.1,256.9 518.5,265.9 523.9,263.3 529.3,249.6 534.7,251.7 540.0,250.1 545.4,250.0 550.8,239.7 556.2,245.5 561.5,238.4 566.9,244.4 572.3,233.4 577.7,234.9 583.1,228.0 588.4,218.9 593.8,223.1 599.2,230.3 604.6,227.9 609.9,229.0 615.3,213.3 620.7,197.0 626.1,188.4 631.5,187.6 636.8,176.3 642.2,151.4 647.6,106.9 653.0,152.4 658.4,136.0 663.7,133.3 669.1,110.5 674.5,65.9 679.9,118.5 685.2,124.7 690.6,124.2 696.0,152.3"/>
  <text x="60" y="62" font-size="11" fill="#2563eb">Price index</text>
  <text x="146" y="62" font-size="11" fill="#16a34a">Total return (price + distributions)</text>
  <text x="56" y="348" font-size="11" text-anchor="middle" fill="#444">2016-07</text><text x="217" y="348" font-size="11" text-anchor="middle" fill="#444">2019-01</text><text x="379" y="348" font-size="11" text-anchor="middle" fill="#444">2021-07</text><text x="540" y="348" font-size="11" text-anchor="middle" fill="#444">2024-01</text><text x="696" y="348" font-size="11" text-anchor="middle" fill="#444">2026-06</text>
</svg>
