<svg xmlns="http://www.w3.org/2000/svg" width="720" height="360" viewBox="0 0 720 360">
  <rect width="720" height="360" fill="#fafafa"/>
  <text x="56" y="22" font-size="13" font-family="sans-serif" fill="#222">XP total return (rebased 100) · cumulative distributions $0.00/sh · market cap n/a</text>
  <line x1="56" y1="308" x2="696" y2="308" stroke="#ccc"/>
  <line x1="56" y1="48" x2="56" y2="308" stroke="#ccc"/>
  <polyline fill="none" stroke="#2563eb" stroke-width="2" points="56.0,158.4 56.4,157.4 56.8,140.4 57.2,151.0 57.6,159.2 58.0,138.2 58.4,140.1 58.7,127.7 59.1,132.0 59.5,129.8 59.9,135.1 60.3,136.1 60.7,137.3 61.1,135.9 61.5,135.5 61.9,137.6 62.3,148.7 62.7,146.6 63.1,144.9 63.4,139.8 63.8,141.0 64.2,141.3 64.6,143.5 65.0,141.3 65.4,140.4 65.8,134.4 66.2,124.5 66.6,114.0 67.0,122.2 67.4,135.8 67.8,140.9 68.1,133.0 68.5,125.9 68.9,133.9 69.3,126.9 69.7,125.2 70.1,133.4 70.5,128.3 70.9,137.1 71.3,142.3 71.7,142.5 72.1,133.3 72.5,122.7 72.9,120.2 73.2,125.9 73.6,122.5 74.0,113.9 74.4,111.2 74.8,114.8 75.2,130.5 75.6,141.5 76.0,148.7 76.4,152.9 76.8,157.3 77.2,143.5 77.6,149.0 77.9,134.1 78.3,151.2 78.7,177.6 79.1,201.6 79.5,183.3 79.9,220.4 80.3,251.0 80.7,225.1 81.1,246.4 81.5,238.8 81.9,251.6 82.3,233.4 82.7,249.7 83.0,255.2 83.4,240.3 83.8,221.8 84.2,211.6 84.6,225.8 85.0,235.1 85.4,242.3 85.8,249.8 86.2,253.8 86.6,251.3 87.0,236.1 87.4,229.9 87.7,229.6 88.1,224.1 88.5,231.8 88.9,223.0 89.3,219.6 89.7,208.2 90.1,200.6 90.5,200.0 90.9,212.6 91.3,205.0 91.7,206.5 92.1,222.3 92.4,217.4 92.8,211.1 93.2,210.0 93.6,209.8 94.0,221.2 94.4,222.1 94.8,224.1 95.2,222.4 95.6,213.9 96.0,210.1 96.4,208.8 96.8,211.5 97.2,194.6 97.5,204.8 97.9,202.3 98.3,196.5 98.7,202.4 99.1,196.9 99.5,191.4 99.9,189.7 100.3,177.9 100.7,180.2 101.1,180.7 101.5,181.0 101.9,180.0 102.2,170.6 102.6,157.3 103.0,157.1 103.4,146.6 103.8,122.0 104.2,123.8 104.6,115.3 105.0,133.2 105.4,121.1 105.8,118.0 106.2,106.4 106.6,93.0 106.9,83.0 107.3,87.8 107.7,92.0 108.1,75.6 108.5,101.1 108.9,93.7 109.3,106.3 109.7,108.2 110.1,116.6 110.5,109.1 110.9,101.2 111.3,85.7 111.7,90.4 112.0,85.1 112.4,88.1 112.8,88.9 113.2,96.0 113.6,102.2 114.0,100.4 114.4,113.3 114.8,113.4 115.2,102.3 115.6,100.4 116.0,96.5 116.4,103.8 116.7,102.1 117.1,87.7 117.5,87.4 117.9,80.9 118.3,86.6 118.7,91.8 119.1,88.4 119.5,84.3 119.9,83.8 120.3,72.4 120.7,82.7 121.1,83.6 121.5,87.1 121.8,91.6 122.2,99.2 122.6,104.8 123.0,105.5 123.4,102.4 123.8,101.9 124.2,99.3 124.6,108.2 125.0,93.8 125.4,88.1 125.8,84.7 126.2,74.6 126.5,73.8 126.9,75.8 127.3,66.7 127.7,75.2 128.1,84.1 128.5,90.0 128.9,96.2 129.3,86.9 129.7,97.7 130.1,103.2 130.5,105.1 130.9,105.6 131.2,105.6 131.6,109.1 132.0,110.8 132.4,116.2 132.8,109.0 133.2,119.1 133.6,113.6 134.0,110.7 134.4,119.4 134.8,120.0 135.2,118.4 135.6,117.2 136.0,122.7 136.3,116.2 136.7,110.7 137.1,118.0 137.5,111.2 137.9,113.5 138.3,113.7 138.7,121.3 139.1,111.1 139.5,115.6 139.9,115.4 140.3,116.0 140.7,102.9 141.0,97.3 141.4,107.4 141.8,108.6 142.2,112.3 142.6,110.5 143.0,124.2 143.4,125.5 143.8,127.3 144.2,121.5 144.6,114.8 145.0,125.6 145.4,111.4 145.7,115.9 146.1,110.8 146.5,131.5 146.9,130.4 147.3,136.1 147.7,135.6 148.1,129.2 148.5,125.5 148.9,130.8 149.3,124.4 149.7,127.7 150.1,123.5 150.5,116.7 150.8,116.8 151.2,118.5 151.6,122.1 152.0,125.2 152.4,125.5 152.8,136.0 153.2,136.2 153.6,135.8 154.0,133.5 154.4,139.2 154.8,143.9 155.2,151.1 155.5,145.9 155.9,136.7 156.3,127.3 156.7,121.5 157.1,125.6 157.5,123.7 157.9,126.0 158.3,122.2 158.7,120.3 159.1,126.7 159.5,127.7 159.9,125.1 160.2,129.5 160.6,132.1 161.0,133.6 161.4,141.1 161.8,137.3 162.2,125.2 162.6,132.7 163.0,125.0 163.4,129.2 163.8,124.7 164.2,128.9 164.6,109.4 165.0,113.4 165.3,112.1 165.7,116.0 166.1,110.2 166.5,97.1 166.9,102.7 167.3,100.8 167.7,107.6 168.1,88.2 168.5,78.8 168.9,83.4 169.3,81.9 169.7,80.4 170.0,79.4 170.4,84.0 170.8,86.7 171.2,80.6 171.6,81.1 172.0,72.8 172.4,71.0 172.8,79.5 173.2,72.7 173.6,94.2 174.0,90.9 174.4,85.0 174.8,99.1 175.1,104.8 175.5,104.9 175.9,109.1 176.3,120.3 176.7,125.5 177.1,123.3 177.5,141.3 177.9,139.2 178.3,137.1 178.7,122.5 179.1,124.0 179.5,122.6 179.8,123.9 180.2,123.2 180.6,138.8 181.0,129.7 181.4,129.0 181.8,135.6 182.2,146.8 182.6,140.6 183.0,140.9 183.4,144.5 183.8,145.9 184.2,140.6 184.5,129.4 184.9,133.2 185.3,133.9 185.7,136.1 186.1,133.1 186.5,133.2 186.9,137.4 187.3,135.1 187.7,132.1 188.1,133.1 188.5,134.0 188.9,136.5 189.3,136.6 189.6,130.3 190.0,130.3 190.4,127.6 190.8,131.0 191.2,137.1 191.6,130.4 192.0,130.5 192.4,129.9 192.8,132.6 193.2,136.4 193.6,112.4 194.0,114.1 194.3,101.3 194.7,113.2 195.1,105.9 195.5,119.8 195.9,121.7 196.3,111.7 196.7,111.7 197.1,115.9 197.5,116.7 197.9,118.4 198.3,125.0 198.7,128.5 199.0,134.6 199.4,128.7 199.8,134.8 200.2,129.6 200.6,130.5 201.0,127.7 201.4,130.3 201.8,125.2 202.2,119.9 202.6,119.2 203.0,115.0 203.4,108.2 203.8,104.6 204.1,103.4 204.5,103.7 204.9,102.0 205.3,94.8 205.7,94.5 206.1,96.2 206.5,96.4 206.9,93.4 207.3,95.7 207.7,100.6 208.1,100.2 208.5,102.3 208.8,108.1 209.2,114.4 209.6,114.2 210.0,121.5 210.4,120.4 210.8,128.2 211.2,125.8 211.6,124.7 212.0,120.4 212.4,123.2 212.8,123.8 213.2,118.0 213.6,131.6 213.9,125.5 214.3,121.9 214.7,125.1 215.1,122.4 215.5,116.0 215.9,124.6 216.3,121.0 216.7,117.0 217.1,121.9 217.5,118.4 217.9,115.0 218.3,96.9 218.6,90.2 219.0,83.4 219.4,75.1 219.8,77.9 220.2,82.0 220.6,83.5 221.0,86.7 221.4,93.5 221.8,99.9 222.2,102.4 222.6,99.0 223.0,99.5 223.3,97.7 223.7,87.9 224.1,83.1 224.5,86.5 224.9,79.8 225.3,78.5 225.7,79.9 226.1,72.3 226.5,65.9 226.9,72.4 227.3,68.3 227.7,83.9 228.1,78.9 228.4,85.5 228.8,86.8 229.2,89.8 229.6,91.8 230.0,93.6 230.4,99.6 230.8,108.1 231.2,97.2 231.6,92.5 232.0,97.4 232.4,104.2 232.8,108.5 233.1,118.6 233.5,121.7 233.9,126.8 234.3,116.4 234.7,125.2 235.1,126.6 235.5,130.0 235.9,118.1 236.3,126.8 236.7,144.1 237.1,153.9 237.5,155.4 237.8,160.4 238.2,145.9 238.6,145.0 239.0,151.7 239.4,150.2 239.8,160.7 240.2,162.9 240.6,155.4 241.0,162.1 241.4,162.7 241.8,162.2 242.2,167.5 242.6,160.4 242.9,167.3 243.3,164.6 243.7,170.1 244.1,155.5 244.5,160.5 244.9,161.4 245.3,166.7 245.7,161.0 246.1,162.2 246.5,161.8 246.9,170.0 247.3,181.0 247.6,187.7 248.0,184.4 248.4,190.2 248.8,182.6 249.2,181.0 249.6,185.5 250.0,183.9 250.4,190.3 250.8,187.8 251.2,187.8 251.6,188.6 252.0,185.1 252.4,183.0 252.7,182.3 253.1,183.5 253.5,182.4 253.9,176.6 254.3,187.6 254.7,181.9 255.1,188.1 255.5,187.0 255.9,189.1 256.3,185.9 256.7,185.7 257.1,183.9 257.4,180.9 257.8,190.8 258.2,194.8 258.6,190.9 259.0,190.0 259.4,188.6 259.8,193.4 260.2,201.1 260.6,199.1 261.0,195.5 261.4,195.6 261.8,182.3 262.1,179.7 262.5,186.9 262.9,190.0 263.3,198.0 263.7,188.2 264.1,180.7 264.5,184.7 264.9,183.5 265.3,178.6 265.7,174.4 266.1,176.0 266.5,176.1 266.9,164.7 267.2,162.1 267.6,169.9 268.0,174.2 268.4,171.5 268.8,172.1 269.2,171.0 269.6,159.5 270.0,166.3 270.4,163.1 270.8,164.2 271.2,153.5 271.6,151.2 271.9,157.7 272.3,160.0 272.7,161.8 273.1,163.9 273.5,167.5 273.9,170.0 274.3,170.1 274.7,174.0 275.1,173.3 275.5,176.9 275.9,187.4 276.3,202.3 276.6,194.0 277.0,175.2 277.4,177.6 277.8,185.4 278.2,192.3 278.6,187.8 279.0,175.0 279.4,175.5 279.8,169.7 280.2,170.1 280.6,165.7 281.0,175.7 281.4,170.3 281.7,171.3 282.1,171.6 282.5,163.7 282.9,176.5 283.3,182.5 283.7,177.7 284.1,173.4 284.5,175.8 284.9,180.3 285.3,179.1 285.7,183.8 286.1,185.2 286.4,189.3 286.8,188.0 287.2,193.0 287.6,197.0 288.0,193.3 288.4,193.3 288.8,201.6 289.2,207.5 289.6,205.2 290.0,212.1 290.4,216.5 290.8,210.7 291.2,212.8 291.5,215.3 291.9,218.5 292.3,228.2 292.7,230.4 293.1,237.6 293.5,244.3 293.9,245.8 294.3,248.9 294.7,240.7 295.1,237.0 295.5,243.4 295.9,238.3 296.2,242.6 296.6,233.6 297.0,230.8 297.4,228.9 297.8,234.4 298.2,231.5 298.6,223.9 299.0,219.3 299.4,223.9 299.8,228.5 300.2,220.4 300.6,223.3 300.9,222.7 301.3,217.9 301.7,223.2 302.1,226.5 302.5,235.9 302.9,243.9 303.3,244.7 303.7,240.9 304.1,245.7 304.5,245.1 304.9,243.9 305.3,243.3 305.7,241.2 306.0,239.8 306.4,239.2 306.8,245.7 307.2,247.8 307.6,249.6 308.0,250.1 308.4,245.8 308.8,249.1 309.2,246.8 309.6,246.7 310.0,253.1 310.4,250.2 310.7,250.0 311.1,254.9 311.5,252.0 311.9,251.8 312.3,248.1 312.7,246.8 313.1,243.1 313.5,245.7 313.9,244.5 314.3,246.4 314.7,238.0 315.1,235.4 315.4,232.3 315.8,227.3 316.2,227.7 316.6,221.5 317.0,219.4 317.4,217.5 317.8,212.6 318.2,218.1 318.6,235.4 319.0,245.2 319.4,240.1 319.8,228.1 320.2,232.6 320.5,231.5 320.9,231.0 321.3,236.2 321.7,241.2 322.1,229.4 322.5,224.9 322.9,226.6 323.3,231.0 323.7,234.0 324.1,239.7 324.5,242.6 324.9,241.9 325.2,241.8 325.6,244.4 326.0,241.7 326.4,241.8 326.8,237.1 327.2,232.2 327.6,239.2 328.0,239.5 328.4,240.8 328.8,243.9 329.2,240.5 329.6,240.0 329.9,239.7 330.3,240.0 330.7,243.2 331.1,250.5 331.5,247.4 331.9,246.5 332.3,247.5 332.7,243.8 333.1,234.3 333.5,233.6 333.9,232.8 334.3,229.9 334.7,232.2 335.0,231.7 335.4,242.6 335.8,243.2 336.2,245.3 336.6,251.7 337.0,250.8 337.4,252.5 337.8,253.6 338.2,255.7 338.6,249.1 339.0,250.2 339.4,250.7 339.7,254.9 340.1,255.5 340.5,252.2 340.9,247.6 341.3,241.3 341.7,242.5 342.1,241.7 342.5,243.9 342.9,246.8 343.3,247.5 343.7,240.0 344.1,243.1 344.5,242.6 344.8,243.3 345.2,241.2 345.6,247.9 346.0,251.6 346.4,252.8 346.8,253.5 347.2,257.4 347.6,258.0 348.0,257.7 348.4,260.5 348.8,257.8 349.2,252.1 349.5,252.1 349.9,247.4 350.3,252.5 350.7,255.3 351.1,257.3 351.5,261.0 351.9,261.0 352.3,262.7 352.7,265.3 353.1,267.7 353.5,270.5 353.9,271.6 354.2,270.5 354.6,265.6 355.0,263.8 355.4,266.2 355.8,263.1 356.2,268.5 356.6,266.6 357.0,264.6 357.4,264.1 357.8,272.5 358.2,270.3 358.6,271.7 359.0,267.3 359.3,265.6 359.7,262.9 360.1,260.3 360.5,255.7 360.9,256.9 361.3,259.5 361.7,258.8 362.1,256.8 362.5,254.8 362.9,251.5 363.3,250.8 363.7,251.8 364.0,250.2 364.4,248.8 364.8,249.6 365.2,250.4 365.6,251.7 366.0,250.5 366.4,252.5 366.8,254.7 367.2,257.4 367.6,257.5 368.0,262.9 368.4,262.4 368.7,260.1 369.1,260.6 369.5,259.4 369.9,261.1 370.3,277.6 370.7,275.4 371.1,276.1 371.5,275.7 371.9,277.3 372.3,280.6 372.7,280.3 373.1,282.9 373.5,285.3 373.8,285.4 374.2,283.0 374.6,282.9 375.0,277.6 375.4,280.7 375.8,286.4 376.2,288.5 376.6,288.6 377.0,288.4 377.4,284.6 377.8,283.0 378.2,285.5 378.5,283.8 378.9,286.0 379.3,290.1 379.7,288.6 380.1,286.9 380.5,283.0 380.9,283.2 381.3,282.4 381.7,283.3 382.1,287.2 382.5,288.6 382.9,288.1 383.3,289.1 383.6,288.5 384.0,280.9 384.4,277.5 384.8,272.1 385.2,272.3 385.6,273.0 386.0,271.3 386.4,274.9 386.8,274.0 387.2,274.6 387.6,273.0 388.0,274.2 388.3,275.4 388.7,271.3 389.1,269.9 389.5,270.7 389.9,275.4 390.3,274.7 390.7,272.3 391.1,266.5 391.5,266.7 391.9,265.3 392.3,262.2 392.7,263.1 393.0,263.9 393.4,261.9 393.8,260.7 394.2,256.4 394.6,258.1 395.0,253.5 395.4,251.1 395.8,252.1 396.2,251.0 396.6,247.1 397.0,244.4 397.4,249.2 397.8,251.3 398.1,249.2 398.5,243.8 398.9,244.5 399.3,242.0 399.7,238.5 400.1,235.5 400.5,235.3 400.9,231.8 401.3,236.0 401.7,232.0 402.1,228.1 402.5,226.6 402.8,218.3 403.2,213.3 403.6,218.2 404.0,219.3 404.4,221.6 404.8,224.8 405.2,223.9 405.6,221.6 406.0,219.2 406.4,217.7 406.8,218.6 407.2,223.2 407.5,218.2 407.9,223.1 408.3,220.9 408.7,219.6 409.1,220.3 409.5,222.5 409.9,219.3 410.3,217.2 410.7,217.2 411.1,209.6 411.5,203.6 411.9,199.7 412.3,201.2 412.6,198.1 413.0,202.9 413.4,202.9 413.8,199.6 414.2,200.6 414.6,202.8 415.0,202.4 415.4,203.2 415.8,204.2 416.2,203.8 416.6,205.5 417.0,207.0 417.3,208.9 417.7,208.5 418.1,212.2 418.5,212.0 418.9,218.3 419.3,211.4 419.7,208.4 420.1,203.9 420.5,197.1 420.9,203.8 421.3,206.7 421.7,205.8 422.1,202.4 422.4,204.4 422.8,208.8 423.2,203.2 423.6,208.1 424.0,209.3 424.4,210.2 424.8,211.4 425.2,211.1 425.6,210.3 426.0,205.9 426.4,207.0 426.8,203.2 427.1,202.7 427.5,208.5 427.9,209.8 428.3,218.6 428.7,219.7 429.1,220.5 429.5,223.3 429.9,226.8 430.3,221.9 430.7,221.5 431.1,222.3 431.5,230.7 431.8,227.1 432.2,225.8 432.6,227.5 433.0,227.5 433.4,225.6 433.8,227.7 434.2,230.7 434.6,230.5 435.0,229.7 435.4,230.7 435.8,234.3 436.2,233.5 436.6,232.0 436.9,230.4 437.3,233.5 437.7,238.1 438.1,235.6 438.5,236.7 438.9,240.8 439.3,238.3 439.7,236.5 440.1,234.8 440.5,230.2 440.9,233.5 441.3,226.6 441.6,227.9 442.0,229.8 442.4,225.2 442.8,226.1 443.2,225.1 443.6,219.5 444.0,220.0 444.4,219.2 444.8,219.2 445.2,222.3 445.6,220.7 446.0,219.9 446.3,221.1 446.7,219.0 447.1,219.5 447.5,220.2 447.9,216.7 448.3,223.5 448.7,216.9 449.1,218.2 449.5,215.7 449.9,217.2 450.3,220.0 450.7,224.9 451.1,218.3 451.4,208.8 451.8,213.2 452.2,205.0 452.6,201.6 453.0,205.5 453.4,205.6 453.8,204.3 454.2,203.4 454.6,200.8 455.0,203.2 455.4,204.8 455.8,207.5 456.1,210.7 456.5,214.4 456.9,209.8 457.3,203.5 457.7,211.0 458.1,210.6 458.5,209.5 458.9,206.2 459.3,207.9 459.7,208.1 460.1,210.6 460.5,208.8 460.8,208.0 461.2,209.4 461.6,208.1 462.0,208.7 462.4,206.4 462.8,203.7 463.2,210.6 463.6,213.0 464.0,209.6 464.4,203.7 464.8,209.1 465.2,209.9 465.6,211.7 465.9,212.6 466.3,211.0 466.7,210.5 467.1,214.6 467.5,210.2 467.9,210.2 468.3,211.4 468.7,209.5 469.1,214.0 469.5,212.0 469.9,216.1 470.3,215.6 470.6,212.8 471.0,217.8 471.4,218.2 471.8,216.7 472.2,218.2 472.6,217.5 473.0,211.9 473.4,211.5 473.8,209.0 474.2,208.5 474.6,206.2 475.0,205.6 475.4,209.1 475.7,208.6 476.1,209.4 476.5,210.6 476.9,207.0 477.3,207.4 477.7,209.4 478.1,209.1 478.5,208.0 478.9,208.0 479.3,207.0 479.7,209.5 480.1,210.1 480.4,211.2 480.8,210.9 481.2,212.5 481.6,210.9 482.0,208.9 482.4,215.2 482.8,215.7 483.2,219.8 483.6,224.2 484.0,228.9 484.4,229.7 484.8,232.4 485.1,232.7 485.5,232.2 485.9,235.2 486.3,234.8 486.7,235.3 487.1,232.5 487.5,230.5 487.9,235.7 488.3,235.3 488.7,232.1 489.1,225.1 489.5,225.0 489.9,226.7 490.2,224.7 490.6,229.8 491.0,229.6 491.4,228.5 491.8,227.8 492.2,227.5 492.6,227.7 493.0,229.1 493.4,229.6 493.8,230.3 494.2,249.5 494.6,246.8 494.9,245.7 495.3,244.8 495.7,247.6 496.1,243.5 496.5,243.9 496.9,242.9 497.3,243.9 497.7,244.6 498.1,243.1 498.5,244.8 498.9,245.9 499.3,245.9 499.6,249.3 500.0,252.9 500.4,253.9 500.8,254.6 501.2,252.7 501.6,249.5 502.0,251.5 502.4,249.9 502.8,250.0 503.2,250.0 503.6,249.5 504.0,251.7 504.4,255.9 504.7,256.6 505.1,255.9 505.5,254.6 505.9,254.6 506.3,252.5 506.7,248.0 507.1,247.6 507.5,247.0 507.9,246.1 508.3,245.5 508.7,246.3 509.1,251.2 509.4,250.0 509.8,247.4 510.2,248.5 510.6,252.2 511.0,251.7 511.4,250.9 511.8,251.5 512.2,253.2 512.6,254.3 513.0,257.0 513.4,258.4 513.8,260.8 514.2,258.4 514.5,256.7 514.9,252.5 515.3,249.1 515.7,249.2 516.1,247.0 516.5,240.7 516.9,239.5 517.3,238.6 517.7,238.3 518.1,240.8 518.5,241.5 518.9,242.3 519.2,240.6 519.6,240.5 520.0,241.1 520.4,243.2 520.8,246.3 521.2,247.1 521.6,247.0 522.0,247.9 522.4,246.0 522.8,248.4 523.2,248.3 523.6,248.9 523.9,247.4 524.3,246.1 524.7,242.4 525.1,241.3 525.5,240.5 525.9,240.4 526.3,239.7 526.7,247.6 527.1,252.1 527.5,248.7 527.9,250.7 528.3,248.6 528.7,248.3 529.0,249.7 529.4,249.2 529.8,249.6 530.2,249.8 530.6,250.9 531.0,250.9 531.4,251.2 531.8,253.9 532.2,253.2 532.6,252.0 533.0,249.4 533.4,251.8 533.7,248.6 534.1,248.5 534.5,248.6 534.9,249.0 535.3,249.4 535.7,252.2 536.1,250.5 536.5,251.5 536.9,248.5 537.3,250.7 537.7,250.0 538.1,252.4 538.4,256.2 538.8,251.5 539.2,250.0 539.6,249.8 540.0,251.5 540.4,254.6 540.8,253.0 541.2,255.9 541.6,256.1 542.0,256.7 542.4,257.0 542.8,255.7 543.2,256.7 543.5,262.3 543.9,263.1 544.3,261.1 544.7,260.3 545.1,260.3 545.5,266.3 545.9,274.1 546.3,272.4 546.7,274.7 547.1,274.6 547.5,274.2 547.9,274.8 548.2,274.7 548.6,277.5 549.0,276.5 549.4,276.4 549.8,276.3 550.2,277.9 550.6,277.1 551.0,283.1 551.4,282.0 551.8,281.6 552.2,281.8 552.6,281.9 553.0,281.6 553.3,282.2 553.7,283.8 554.1,283.4 554.5,283.7 554.9,285.6 555.3,285.9 555.7,286.8 556.1,287.9 556.5,287.2 556.9,285.1 557.3,285.9 557.7,283.0 558.0,282.7 558.4,282.7 558.8,285.9 559.2,282.2 559.6,281.5 560.0,278.2 560.4,276.3 560.8,275.4 561.2,275.4 561.6,271.5 562.0,273.5 562.4,272.6 562.7,271.5 563.1,271.8 563.5,270.7 563.9,271.9 564.3,270.8 564.7,270.2 565.1,269.8 565.5,269.7 565.9,267.4 566.3,265.9 566.7,266.9 567.1,265.7 567.5,267.9 567.8,268.4 568.2,267.6 568.6,267.8 569.0,268.8 569.4,270.7 569.8,271.5 570.2,271.2 570.6,269.6 571.0,268.5 571.4,263.6 571.8,265.2 572.2,266.2 572.5,270.8 572.9,272.1 573.3,267.8 573.7,263.5 574.1,264.5 574.5,262.2 574.9,264.8 575.3,265.3 575.7,267.4 576.1,267.9 576.5,266.8 576.9,267.8 577.2,267.1 577.6,272.9 578.0,270.7 578.4,271.4 578.8,270.3 579.2,277.1 579.6,278.4 580.0,278.8 580.4,274.8 580.8,277.5 581.2,274.5 581.6,273.0 582.0,273.0 582.3,273.4 582.7,271.8 583.1,272.1 583.5,268.9 583.9,265.7 584.3,262.9 584.7,260.7 585.1,259.3 585.5,259.6 585.9,259.9 586.3,260.6 586.7,259.5 587.0,261.1 587.4,261.6 587.8,261.4 588.2,251.7 588.6,250.1 589.0,250.0 589.4,246.5 589.8,244.4 590.2,246.1 590.6,245.2 591.0,245.9 591.4,246.3 591.8,245.8 592.1,245.6 592.5,245.9 592.9,242.5 593.3,241.3 593.7,242.5 594.1,241.9 594.5,241.2 594.9,242.1 595.3,240.7 595.7,239.6 596.1,240.0 596.5,241.1 596.8,238.6 597.2,234.9 597.6,239.8 598.0,240.3 598.4,238.2 598.8,238.8 599.2,239.2 599.6,240.9 600.0,242.5 600.4,241.6 600.8,242.4 601.2,241.9 601.5,240.0 601.9,237.2 602.3,239.5 602.7,240.3 603.1,239.5 603.5,241.2 603.9,242.1 604.3,242.8 604.7,246.0 605.1,248.0 605.5,249.6 605.9,248.2 606.3,247.9 606.6,248.7 607.0,254.0 607.4,255.2 607.8,255.9 608.2,255.2 608.6,256.9 609.0,257.4 609.4,259.3 609.8,258.3 610.2,258.2 610.6,259.7 611.0,258.5 611.3,256.7 611.7,256.3 612.1,254.2 612.5,253.1 612.9,253.2 613.3,256.6 613.7,252.6 614.1,252.2 614.5,252.8 614.9,251.8 615.3,252.2 615.7,260.5 616.0,260.2 616.4,259.5 616.8,257.9 617.2,256.5 617.6,256.3 618.0,254.4 618.4,246.2 618.8,248.6 619.2,250.1 619.6,250.5 620.0,250.0 620.4,244.4 620.8,246.5 621.1,248.3 621.5,245.8 621.9,244.4 622.3,244.6 622.7,245.3 623.1,243.1 623.5,238.6 623.9,237.7 624.3,239.7 624.7,241.2 625.1,241.2 625.5,242.7 625.8,244.7 626.2,245.1 626.6,243.7 627.0,245.0 627.4,248.1 627.8,251.8 628.2,253.1 628.6,254.3 629.0,257.9 629.4,259.3 629.8,259.0 630.2,261.5 630.5,260.6 630.9,260.3 631.3,257.5 631.7,258.2 632.1,257.4 632.5,252.4 632.9,254.8 633.3,256.3 633.7,253.9 634.1,251.8 634.5,251.5 634.9,250.1 635.3,248.3 635.6,250.0 636.0,248.2 636.4,247.5 636.8,248.9 637.2,246.5 637.6,245.9 638.0,246.0 638.4,244.3 638.8,239.5 639.2,242.7 639.6,243.4 640.0,245.8 640.3,248.9 640.7,246.9 641.1,249.4 641.5,254.2 641.9,252.9 642.3,250.7 642.7,248.6 643.1,243.4 643.5,240.0 643.9,240.1 644.3,238.2 644.7,242.6 645.1,239.2 645.4,250.1 645.8,247.7 646.2,249.1 646.6,250.2 647.0,250.8 647.4,252.2 647.8,251.7 648.2,257.4 648.6,261.9 649.0,261.1 649.4,260.4 649.8,259.3 650.1,258.4 650.5,258.1 650.9,258.0 651.3,258.0 651.7,257.5 652.1,258.4 652.5,259.5 652.9,254.8 653.3,254.7 653.7,255.8 654.1,254.1 654.5,254.4 654.8,253.7 655.2,254.9 655.6,253.1 656.0,252.7 656.4,252.7 656.8,247.6 657.2,243.2 657.6,239.3 658.0,237.3 658.4,238.7 658.8,237.2 659.2,236.1 659.6,237.9 659.9,241.1 660.3,239.4 660.7,239.2 661.1,243.9 661.5,245.9 661.9,241.7 662.3,235.7 662.7,238.8 663.1,236.7 663.5,239.6 663.9,239.1 664.3,240.1 664.6,237.5 665.0,230.2 665.4,222.0 665.8,229.0 666.2,224.8 666.6,225.4 667.0,228.2 667.4,229.9 667.8,228.9 668.2,236.8 668.6,234.4 669.0,240.0 669.3,245.9 669.7,240.9 670.1,237.6 670.5,238.6 670.9,249.1 671.3,248.3 671.7,242.7 672.1,243.7 672.5,246.3 672.9,244.3 673.3,248.3 673.7,241.0 674.1,242.7 674.4,240.1 674.8,246.2 675.2,251.1 675.6,250.9 676.0,243.7 676.4,245.5 676.8,246.0 677.2,244.2 677.6,245.9 678.0,239.5 678.4,238.9 678.8,238.4 679.1,236.3 679.5,231.5 679.9,233.9 680.3,232.2 680.7,232.3 681.1,233.8 681.5,236.7 681.9,236.2 682.3,240.4 682.7,239.8 683.1,240.7 683.5,242.4 683.9,247.3 684.2,243.0 684.6,243.5 685.0,246.6 685.4,244.4 685.8,240.7 686.2,245.0 686.6,242.9 687.0,245.7 687.4,246.4 687.8,253.3 688.2,251.6 688.6,252.3 688.9,253.1 689.3,256.8 689.7,251.1 690.1,249.9 690.5,255.9 690.9,253.7 691.3,254.2 691.7,255.2 692.1,256.8 692.5,257.2 692.9,259.4 693.3,262.7 693.6,262.5 694.0,264.1 694.4,264.6 694.8,262.5 695.2,266.3 695.6,262.4 696.0,260.4"/>
  <polyline fill="none" stroke="#16a34a" stroke-width="2" points="56.0,158.4 56.4,157.4 56.8,140.4 57.2,151.0 57.6,159.2 58.0,138.2 58.4,140.1 58.7,127.7 59.1,132.0 59.5,129.8 59.9,135.1 60.3,136.1 60.7,137.3 61.1,135.9 61.5,135.5 61.9,137.6 62.3,148.7 62.7,146.6 63.1,144.9 63.4,139.8 63.8,141.0 64.2,141.3 64.6,143.5 65.0,141.3 65.4,140.4 65.8,134.4 66.2,124.5 66.6,114.0 67.0,122.2 67.4,135.8 67.8,140.9 68.1,133.0 68.5,125.9 68.9,133.9 69.3,126.9 69.7,125.2 70.1,133.4 70.5,128.3 70.9,137.1 71.3,142.3 71.7,142.5 72.1,133.3 72.5,122.7 72.9,120.2 73.2,125.9 73.6,122.5 74.0,113.9 74.4,111.2 74.8,114.8 75.2,130.5 75.6,141.5 76.0,148.7 76.4,152.9 76.8,157.3 77.2,143.5 77.6,149.0 77.9,134.1 78.3,151.2 78.7,177.6 79.1,201.6 79.5,183.3 79.9,220.4 80.3,251.0 80.7,225.1 81.1,246.4 81.5,238.8 81.9,251.6 82.3,233.4 82.7,249.7 83.0,255.2 83.4,240.3 83.8,221.8 84.2,211.6 84.6,225.8 85.0,235.1 85.4,242.3 85.8,249.8 86.2,253.8 86.6,251.3 87.0,236.1 87.4,229.9 87.7,229.6 88.1,224.1 88.5,231.8 88.9,223.0 89.3,219.6 89.7,208.2 90.1,200.6 90.5,200.0 90.9,212.6 91.3,205.0 91.7,206.5 92.1,222.3 92.4,217.4 92.8,211.1 93.2,210.0 93.6,209.8 94.0,221.2 94.4,222.1 94.8,224.1 95.2,222.4 95.6,213.9 96.0,210.1 96.4,208.8 96.8,211.5 97.2,194.6 97.5,204.8 97.9,202.3 98.3,196.5 98.7,202.4 99.1,196.9 99.5,191.4 99.9,189.7 100.3,177.9 100.7,180.2 101.1,180.7 101.5,181.0 101.9,180.0 102.2,170.6 102.6,157.3 103.0,157.1 103.4,146.6 103.8,122.0 104.2,123.8 104.6,115.3 105.0,133.2 105.4,121.1 105.8,118.0 106.2,106.4 106.6,93.0 106.9,83.0 107.3,87.8 107.7,92.0 108.1,75.6 108.5,101.1 108.9,93.7 109.3,106.3 109.7,108.2 110.1,116.6 110.5,109.1 110.9,101.2 111.3,85.7 111.7,90.4 112.0,85.1 112.4,88.1 112.8,88.9 113.2,96.0 113.6,102.2 114.0,100.4 114.4,113.3 114.8,113.4 115.2,102.3 115.6,100.4 116.0,96.5 116.4,103.8 116.7,102.1 117.1,87.7 117.5,87.4 117.9,80.9 118.3,86.6 118.7,91.8 119.1,88.4 119.5,84.3 119.9,83.8 120.3,72.4 120.7,82.7 121.1,83.6 121.5,87.1 121.8,91.6 122.2,99.2 122.6,104.8 123.0,105.5 123.4,102.4 123.8,101.9 124.2,99.3 124.6,108.2 125.0,93.8 125.4,88.1 125.8,84.7 126.2,74.6 126.5,73.8 126.9,75.8 127.3,66.7 127.7,75.2 128.1,84.1 128.5,90.0 128.9,96.2 129.3,86.9 129.7,97.7 130.1,103.2 130.5,105.1 130.9,105.6 131.2,105.6 131.6,109.1 132.0,110.8 132.4,116.2 132.8,109.0 133.2,119.1 133.6,113.6 134.0,110.7 134.4,119.4 134.8,120.0 135.2,118.4 135.6,117.2 136.0,122.7 136.3,116.2 136.7,110.7 137.1,118.0 137.5,111.2 137.9,113.5 138.3,113.7 138.7,121.3 139.1,111.1 139.5,115.6 139.9,115.4 140.3,116.0 140.7,102.9 141.0,97.3 141.4,107.4 141.8,108.6 142.2,112.3 142.6,110.5 143.0,124.2 143.4,125.5 143.8,127.3 144.2,121.5 144.6,114.8 145.0,125.6 145.4,111.4 145.7,115.9 146.1,110.8 146.5,131.5 146.9,130.4 147.3,136.1 147.7,135.6 148.1,129.2 148.5,125.5 148.9,130.8 149.3,124.4 149.7,127.7 150.1,123.5 150.5,116.7 150.8,116.8 151.2,118.5 151.6,122.1 152.0,125.2 152.4,125.5 152.8,136.0 153.2,136.2 153.6,135.8 154.0,133.5 154.4,139.2 154.8,143.9 155.2,151.1 155.5,145.9 155.9,136.7 156.3,127.3 156.7,121.5 157.1,125.6 157.5,123.7 157.9,126.0 158.3,122.2 158.7,120.3 159.1,126.7 159.5,127.7 159.9,125.1 160.2,129.5 160.6,132.1 161.0,133.6 161.4,141.1 161.8,137.3 162.2,125.2 162.6,132.7 163.0,125.0 163.4,129.2 163.8,124.7 164.2,128.9 164.6,109.4 165.0,113.4 165.3,112.1 165.7,116.0 166.1,110.2 166.5,97.1 166.9,102.7 167.3,100.8 167.7,107.6 168.1,88.2 168.5,78.8 168.9,83.4 169.3,81.9 169.7,80.4 170.0,79.4 170.4,84.0 170.8,86.7 171.2,80.6 171.6,81.1 172.0,72.8 172.4,71.0 172.8,79.5 173.2,72.7 173.6,94.2 174.0,90.9 174.4,85.0 174.8,99.1 175.1,104.8 175.5,104.9 175.9,109.1 176.3,120.3 176.7,125.5 177.1,123.3 177.5,141.3 177.9,139.2 178.3,137.1 178.7,122.5 179.1,124.0 179.5,122.6 179.8,123.9 180.2,123.2 180.6,138.8 181.0,129.7 181.4,129.0 181.8,135.6 182.2,146.8 182.6,140.6 183.0,140.9 183.4,144.5 183.8,145.9 184.2,140.6 184.5,129.4 184.9,133.2 185.3,133.9 185.7,136.1 186.1,133.1 186.5,133.2 186.9,137.4 187.3,135.1 187.7,132.1 188.1,133.1 188.5,134.0 188.9,136.5 189.3,136.6 189.6,130.3 190.0,130.3 190.4,127.6 190.8,131.0 191.2,137.1 191.6,130.4 192.0,130.5 192.4,129.9 192.8,132.6 193.2,136.4 193.6,112.4 194.0,114.1 194.3,101.3 194.7,113.2 195.1,105.9 195.5,119.8 195.9,121.7 196.3,111.7 196.7,111.7 197.1,115.9 197.5,116.7 197.9,118.4 198.3,125.0 198.7,128.5 199.0,134.6 199.4,128.7 199.8,134.8 200.2,129.6 200.6,130.5 201.0,127.7 201.4,130.3 201.8,125.2 202.2,119.9 202.6,119.2 203.0,115.0 203.4,108.2 203.8,104.6 204.1,103.4 204.5,103.7 204.9,102.0 205.3,94.8 205.7,94.5 206.1,96.2 206.5,96.4 206.9,93.4 207.3,95.7 207.7,100.6 208.1,100.2 208.5,102.3 208.8,108.1 209.2,114.4 209.6,114.2 210.0,121.5 210.4,120.4 210.8,128.2 211.2,125.8 211.6,124.7 212.0,120.4 212.4,123.2 212.8,123.8 213.2,118.0 213.6,131.6 213.9,125.5 214.3,121.9 214.7,125.1 215.1,122.4 215.5,116.0 215.9,124.6 216.3,121.0 216.7,117.0 217.1,121.9 217.5,118.4 217.9,115.0 218.3,96.9 218.6,90.2 219.0,83.4 219.4,75.1 219.8,77.9 220.2,82.0 220.6,83.5 221.0,86.7 221.4,93.5 221.8,99.9 222.2,102.4 222.6,99.0 223.0,99.5 223.3,97.7 223.7,87.9 224.1,83.1 224.5,86.5 224.9,79.8 225.3,78.5 225.7,79.9 226.1,72.3 226.5,65.9 226.9,72.4 227.3,68.3 227.7,83.9 228.1,78.9 228.4,85.5 228.8,86.8 229.2,89.8 229.6,91.8 230.0,93.6 230.4,99.6 230.8,108.1 231.2,97.2 231.6,92.5 232.0,97.4 232.4,104.2 232.8,108.5 233.1,118.6 233.5,121.7 233.9,126.8 234.3,116.4 234.7,125.2 235.1,126.6 235.5,130.0 235.9,118.1 236.3,126.8 236.7,144.1 237.1,153.9 237.5,155.4 237.8,160.4 238.2,145.9 238.6,145.0 239.0,151.7 239.4,150.2 239.8,160.7 240.2,162.9 240.6,155.4 241.0,162.1 241.4,162.7 241.8,162.2 242.2,167.5 242.6,160.4 242.9,167.3 243.3,164.6 243.7,170.1 244.1,155.5 244.5,160.5 244.9,161.4 245.3,166.7 245.7,161.0 246.1,162.2 246.5,161.8 246.9,170.0 247.3,181.0 247.6,187.7 248.0,184.4 248.4,190.2 248.8,182.6 249.2,181.0 249.6,185.5 250.0,183.9 250.4,190.3 250.8,187.8 251.2,187.8 251.6,188.6 252.0,185.1 252.4,183.0 252.7,182.3 253.1,183.5 253.5,182.4 253.9,176.6 254.3,187.6 254.7,181.9 255.1,188.1 255.5,187.0 255.9,189.1 256.3,185.9 256.7,185.7 257.1,183.9 257.4,180.9 257.8,190.8 258.2,194.8 258.6,190.9 259.0,190.0 259.4,188.6 259.8,193.4 260.2,201.1 260.6,199.1 261.0,195.5 261.4,195.6 261.8,182.3 262.1,179.7 262.5,186.9 262.9,190.0 263.3,198.0 263.7,188.2 264.1,180.7 264.5,184.7 264.9,183.5 265.3,178.6 265.7,174.4 266.1,176.0 266.5,176.1 266.9,164.7 267.2,162.1 267.6,169.9 268.0,174.2 268.4,171.5 268.8,172.1 269.2,171.0 269.6,159.5 270.0,166.3 270.4,163.1 270.8,164.2 271.2,153.5 271.6,151.2 271.9,157.7 272.3,160.0 272.7,161.8 273.1,163.9 273.5,167.5 273.9,170.0 274.3,170.1 274.7,174.0 275.1,173.3 275.5,176.9 275.9,187.4 276.3,202.3 276.6,194.0 277.0,175.2 277.4,177.6 277.8,185.4 278.2,192.3 278.6,187.8 279.0,175.0 279.4,175.5 279.8,169.7 280.2,170.1 280.6,165.7 281.0,175.7 281.4,170.3 281.7,171.3 282.1,171.6 282.5,163.7 282.9,176.5 283.3,182.5 283.7,177.7 284.1,173.4 284.5,175.8 284.9,180.3 285.3,179.1 285.7,183.8 286.1,185.2 286.4,189.3 286.8,188.0 287.2,193.0 287.6,197.0 288.0,193.3 288.4,193.3 288.8,201.6 289.2,207.5 289.6,205.2 290.0,212.1 290.4,216.5 290.8,210.7 291.2,212.8 291.5,215.3 291.9,218.5 292.3,228.2 292.7,230.4 293.1,237.6 293.5,244.3 293.9,245.8 294.3,248.9 294.7,240.7 295.1,237.0 295.5,243.4 295.9,238.3 296.2,242.6 296.6,233.6 297.0,230.8 297.4,228.9 297.8,234.4 298.2,231.5 298.6,223.9 299.0,219.3 299.4,223.9 299.8,228.5 300.2,220.4 300.6,223.3 300.9,222.7 301.3,217.9 301.7,223.2 302.1,226.5 302.5,235.9 302.9,243.9 303.3,244.7 303.7,240.9 304.1,245.7 304.5,245.1 304.9,243.9 305.3,243.3 305.7,241.2 306.0,239.8 306.4,239.2 306.8,245.7 307.2,247.8 307.6,249.6 308.0,250.1 308.4,245.8 308.8,249.1 309.2,246.8 309.6,246.7 310.0,253.1 310.4,250.2 310.7,250.0 311.1,254.9 311.5,252.0 311.9,251.8 312.3,248.1 312.7,246.8 313.1,243.1 313.5,245.7 313.9,244.5 314.3,246.4 314.7,238.0 315.1,235.4 315.4,232.3 315.8,227.3 316.2,227.7 316.6,221.5 317.0,219.4 317.4,217.5 317.8,212.6 318.2,218.1 318.6,235.4 319.0,245.2 319.4,240.1 319.8,228.1 320.2,232.6 320.5,231.5 320.9,231.0 321.3,236.2 321.7,241.2 322.1,229.4 322.5,224.9 322.9,226.6 323.3,231.0 323.7,234.0 324.1,239.7 324.5,242.6 324.9,241.9 325.2,241.8 325.6,244.4 326.0,241.7 326.4,241.8 326.8,237.1 327.2,232.2 327.6,239.2 328.0,239.5 328.4,240.8 328.8,243.9 329.2,240.5 329.6,240.0 329.9,239.7 330.3,240.0 330.7,243.2 331.1,250.5 331.5,247.4 331.9,246.5 332.3,247.5 332.7,243.8 333.1,234.3 333.5,233.6 333.9,232.8 334.3,229.9 334.7,232.2 335.0,231.7 335.4,242.6 335.8,243.2 336.2,245.3 336.6,251.7 337.0,250.8 337.4,252.5 337.8,253.6 338.2,255.7 338.6,249.1 339.0,250.2 339.4,250.7 339.7,254.9 340.1,255.5 340.5,252.2 340.9,247.6 341.3,241.3 341.7,242.5 342.1,241.7 342.5,243.9 342.9,246.8 343.3,247.5 343.7,240.0 344.1,243.1 344.5,242.6 344.8,243.3 345.2,241.2 345.6,247.9 346.0,251.6 346.4,252.8 346.8,253.5 347.2,257.4 347.6,258.0 348.0,257.7 348.4,260.5 348.8,257.8 349.2,252.1 349.5,252.1 349.9,247.4 350.3,252.5 350.7,255.3 351.1,257.3 351.5,261.0 351.9,261.0 352.3,262.7 352.7,265.3 353.1,267.7 353.5,270.5 353.9,271.6 354.2,270.5 354.6,265.6 355.0,263.8 355.4,266.2 355.8,263.1 356.2,268.5 356.6,266.6 357.0,264.6 357.4,264.1 357.8,272.5 358.2,270.3 358.6,271.7 359.0,267.3 359.3,265.6 359.7,262.9 360.1,260.3 360.5,255.7 360.9,256.9 361.3,259.5 361.7,258.8 362.1,256.8 362.5,254.8 362.9,251.5 363.3,250.8 363.7,251.8 364.0,250.2 364.4,248.8 364.8,249.6 365.2,250.4 365.6,251.7 366.0,250.5 366.4,252.5 366.8,254.7 367.2,257.4 367.6,257.5 368.0,262.9 368.4,262.4 368.7,260.1 369.1,260.6 369.5,259.4 369.9,261.1 370.3,277.6 370.7,275.4 371.1,276.1 371.5,275.7 371.9,277.3 372.3,280.6 372.7,280.3 373.1,282.9 373.5,285.3 373.8,285.4 374.2,283.0 374.6,282.9 375.0,277.6 375.4,280.7 375.8,286.4 376.2,288.5 376.6,288.6 377.0,288.4 377.4,284.6 377.8,283.0 378.2,285.5 378.5,283.8 378.9,286.0 379.3,290.1 379.7,288.6 380.1,286.9 380.5,283.0 380.9,283.2 381.3,282.4 381.7,283.3 382.1,287.2 382.5,288.6 382.9,288.1 383.3,289.1 383.6,288.5 384.0,280.9 384.4,277.5 384.8,272.1 385.2,272.3 385.6,273.0 386.0,271.3 386.4,274.9 386.8,274.0 387.2,274.6 387.6,273.0 388.0,274.2 388.3,275.4 388.7,271.3 389.1,269.9 389.5,270.7 389.9,275.4 390.3,274.7 390.7,272.3 391.1,266.5 391.5,266.7 391.9,265.3 392.3,262.2 392.7,263.1 393.0,263.9 393.4,261.9 393.8,260.7 394.2,256.4 394.6,258.1 395.0,253.5 395.4,251.1 395.8,252.1 396.2,251.0 396.6,247.1 397.0,244.4 397.4,249.2 397.8,251.3 398.1,249.2 398.5,243.8 398.9,244.5 399.3,242.0 399.7,238.5 400.1,235.5 400.5,235.3 400.9,231.8 401.3,236.0 401.7,232.0 402.1,228.1 402.5,226.6 402.8,218.3 403.2,213.3 403.6,218.2 404.0,219.3 404.4,221.6 404.8,224.8 405.2,223.9 405.6,221.6 406.0,219.2 406.4,217.7 406.8,218.6 407.2,223.2 407.5,218.2 407.9,223.1 408.3,220.9 408.7,219.6 409.1,220.3 409.5,222.5 409.9,219.3 410.3,217.2 410.7,217.2 411.1,209.6 411.5,203.6 411.9,199.7 412.3,201.2 412.6,198.1 413.0,202.9 413.4,202.9 413.8,199.6 414.2,200.6 414.6,202.8 415.0,202.4 415.4,203.2 415.8,204.2 416.2,203.8 416.6,205.5 417.0,207.0 417.3,208.9 417.7,208.5 418.1,212.2 418.5,212.0 418.9,218.3 419.3,211.4 419.7,208.4 420.1,203.9 420.5,197.1 420.9,203.8 421.3,206.7 421.7,205.8 422.1,202.4 422.4,204.4 422.8,208.8 423.2,203.2 423.6,208.1 424.0,209.3 424.4,210.2 424.8,211.4 425.2,211.1 425.6,210.3 426.0,205.9 426.4,207.0 426.8,203.2 427.1,202.7 427.5,208.5 427.9,209.8 428.3,218.6 428.7,219.7 429.1,220.5 429.5,223.3 429.9,226.8 430.3,221.9 430.7,221.5 431.1,222.3 431.5,230.7 431.8,227.1 432.2,225.8 432.6,227.5 433.0,227.5 433.4,225.6 433.8,227.7 434.2,230.7 434.6,230.5 435.0,229.7 435.4,230.7 435.8,234.3 436.2,233.5 436.6,232.0 436.9,230.4 437.3,233.5 437.7,238.1 438.1,235.6 438.5,236.7 438.9,240.8 439.3,238.3 439.7,236.5 440.1,234.8 440.5,230.2 440.9,233.5 441.3,226.6 441.6,227.9 442.0,229.8 442.4,225.2 442.8,226.1 443.2,225.1 443.6,219.5 444.0,220.0 444.4,219.2 444.8,219.2 445.2,222.3 445.6,220.7 446.0,219.9 446.3,221.1 446.7,219.0 447.1,219.5 447.5,220.2 447.9,216.7 448.3,223.5 448.7,216.9 449.1,218.2 449.5,215.7 449.9,217.2 450.3,220.0 450.7,224.9 451.1,218.3 451.4,208.8 451.8,213.2 452.2,205.0 452.6,201.6 453.0,205.5 453.4,205.6 453.8,204.3 454.2,203.4 454.6,200.8 455.0,203.2 455.4,204.8 455.8,207.5 456.1,210.7 456.5,214.4 456.9,209.8 457.3,203.5 457.7,211.0 458.1,210.6 458.5,209.5 458.9,206.2 459.3,207.9 459.7,208.1 460.1,210.6 460.5,208.8 460.8,208.0 461.2,209.4 461.6,208.1 462.0,208.7 462.4,206.4 462.8,203.7 463.2,210.6 463.6,213.0 464.0,209.6 464.4,203.7 464.8,209.1 465.2,209.9 465.6,211.7 465.9,212.6 466.3,211.0 466.7,210.5 467.1,214.6 467.5,210.2 467.9,210.2 468.3,211.4 468.7,209.5 469.1,214.0 469.5,212.0 469.9,216.1 470.3,215.6 470.6,212.8 471.0,217.8 471.4,218.2 471.8,216.7 472.2,218.2 472.6,217.5 473.0,211.9 473.4,211.5 473.8,209.0 474.2,208.5 474.6,206.2 475.0,205.6 475.4,209.1 475.7,208.6 476.1,209.4 476.5,210.6 476.9,207.0 477.3,207.4 477.7,209.4 478.1,209.1 478.5,208.0 478.9,208.0 479.3,207.0 479.7,209.5 480.1,210.1 480.4,211.2 480.8,210.9 481.2,212.5 481.6,210.9 482.0,208.9 482.4,215.2 482.8,215.7 483.2,219.8 483.6,224.2 484.0,228.9 484.4,229.7 484.8,232.4 485.1,232.7 485.5,232.2 485.9,235.2 486.3,234.8 486.7,235.3 487.1,232.5 487.5,230.5 487.9,235.7 488.3,235.3 488.7,232.1 489.1,225.1 489.5,225.0 489.9,226.7 490.2,224.7 490.6,229.8 491.0,229.6 491.4,228.5 491.8,227.8 492.2,227.5 492.6,227.7 493.0,229.1 493.4,229.6 493.8,230.3 494.2,249.5 494.6,246.8 494.9,245.7 495.3,244.8 495.7,247.6 496.1,243.5 496.5,243.9 496.9,242.9 497.3,243.9 497.7,244.6 498.1,243.1 498.5,244.8 498.9,245.9 499.3,245.9 499.6,249.3 500.0,252.9 500.4,253.9 500.8,254.6 501.2,252.7 501.6,249.5 502.0,251.5 502.4,249.9 502.8,250.0 503.2,250.0 503.6,249.5 504.0,251.7 504.4,255.9 504.7,256.6 505.1,255.9 505.5,254.6 505.9,254.6 506.3,252.5 506.7,248.0 507.1,247.6 507.5,247.0 507.9,246.1 508.3,245.5 508.7,246.3 509.1,251.2 509.4,250.0 509.8,247.4 510.2,248.5 510.6,252.2 511.0,251.7 511.4,250.9 511.8,251.5 512.2,253.2 512.6,254.3 513.0,257.0 513.4,258.4 513.8,260.8 514.2,258.4 514.5,256.7 514.9,252.5 515.3,249.1 515.7,249.2 516.1,247.0 516.5,240.7 516.9,239.5 517.3,238.6 517.7,238.3 518.1,240.8 518.5,241.5 518.9,242.3 519.2,240.6 519.6,240.5 520.0,241.1 520.4,243.2 520.8,246.3 521.2,247.1 521.6,247.0 522.0,247.9 522.4,246.0 522.8,248.4 523.2,248.3 523.6,248.9 523.9,247.4 524.3,246.1 524.7,242.4 525.1,241.3 525.5,240.5 525.9,240.4 526.3,239.7 526.7,247.6 527.1,252.1 527.5,248.7 527.9,250.7 528.3,248.6 528.7,248.3 529.0,249.7 529.4,249.2 529.8,249.6 530.2,249.8 530.6,250.9 531.0,250.9 531.4,251.2 531.8,253.9 532.2,253.2 532.6,252.0 533.0,249.4 533.4,251.8 533.7,248.6 534.1,248.5 534.5,248.6 534.9,249.0 535.3,249.4 535.7,252.2 536.1,250.5 536.5,251.5 536.9,248.5 537.3,250.7 537.7,250.0 538.1,252.4 538.4,256.2 538.8,251.5 539.2,250.0 539.6,249.8 540.0,251.5 540.4,254.6 540.8,253.0 541.2,255.9 541.6,256.1 542.0,256.7 542.4,257.0 542.8,255.7 543.2,256.7 543.5,262.3 543.9,263.1 544.3,261.1 544.7,260.3 545.1,260.3 545.5,266.3 545.9,274.1 546.3,272.4 546.7,274.7 547.1,274.6 547.5,274.2 547.9,274.8 548.2,274.7 548.6,277.5 549.0,276.5 549.4,276.4 549.8,276.3 550.2,277.9 550.6,277.1 551.0,283.1 551.4,282.0 551.8,281.6 552.2,281.8 552.6,281.9 553.0,281.6 553.3,282.2 553.7,283.8 554.1,283.4 554.5,283.7 554.9,285.6 555.3,285.9 555.7,286.8 556.1,287.9 556.5,287.2 556.9,285.1 557.3,285.9 557.7,283.0 558.0,282.7 558.4,282.7 558.8,285.9 559.2,282.2 559.6,281.5 560.0,278.2 560.4,276.3 560.8,275.4 561.2,275.4 561.6,271.5 562.0,273.5 562.4,272.6 562.7,271.5 563.1,271.8 563.5,270.7 563.9,271.9 564.3,270.8 564.7,270.2 565.1,269.8 565.5,269.7 565.9,267.4 566.3,265.9 566.7,266.9 567.1,265.7 567.5,267.9 567.8,268.4 568.2,267.6 568.6,267.8 569.0,268.8 569.4,270.7 569.8,271.5 570.2,271.2 570.6,269.6 571.0,268.5 571.4,263.6 571.8,265.2 572.2,266.2 572.5,270.8 572.9,272.1 573.3,267.8 573.7,263.5 574.1,264.5 574.5,262.2 574.9,264.8 575.3,265.3 575.7,267.4 576.1,267.9 576.5,266.8 576.9,267.8 577.2,267.1 577.6,272.9 578.0,270.7 578.4,271.4 578.8,270.3 579.2,277.1 579.6,278.4 580.0,278.8 580.4,274.8 580.8,277.5 581.2,274.5 581.6,273.0 582.0,273.0 582.3,273.4 582.7,271.8 583.1,272.1 583.5,268.9 583.9,265.7 584.3,262.9 584.7,260.7 585.1,259.3 585.5,259.6 585.9,259.9 586.3,260.6 586.7,259.5 587.0,261.1 587.4,261.6 587.8,261.4 588.2,251.7 588.6,250.1 589.0,250.0 589.4,246.5 589.8,244.4 590.2,246.1 590.6,245.2 591.0,245.9 591.4,246.3 591.8,245.8 592.1,245.6 592.5,245.9 592.9,242.5 593.3,241.3 593.7,242.5 594.1,241.9 594.5,241.2 594.9,242.1 595.3,240.7 595.7,239.6 596.1,240.0 596.5,241.1 596.8,238.6 597.2,234.9 597.6,239.8 598.0,240.3 598.4,238.2 598.8,238.8 599.2,239.2 599.6,240.9 600.0,242.5 600.4,241.6 600.8,242.4 601.2,241.9 601.5,240.0 601.9,237.2 602.3,239.5 602.7,240.3 603.1,239.5 603.5,241.2 603.9,242.1 604.3,242.8 604.7,246.0 605.1,248.0 605.5,249.6 605.9,248.2 606.3,247.9 606.6,248.7 607.0,254.0 607.4,255.2 607.8,255.9 608.2,255.2 608.6,256.9 609.0,257.4 609.4,259.3 609.8,258.3 610.2,258.2 610.6,259.7 611.0,258.5 611.3,256.7 611.7,256.3 612.1,254.2 612.5,253.1 612.9,253.2 613.3,256.6 613.7,252.6 614.1,252.2 614.5,252.8 614.9,251.8 615.3,252.2 615.7,260.5 616.0,260.2 616.4,259.5 616.8,257.9 617.2,256.5 617.6,256.3 618.0,254.4 618.4,246.2 618.8,248.6 619.2,250.1 619.6,250.5 620.0,250.0 620.4,244.4 620.8,246.5 621.1,248.3 621.5,245.8 621.9,244.4 622.3,244.6 622.7,245.3 623.1,243.1 623.5,238.6 623.9,237.7 624.3,239.7 624.7,241.2 625.1,241.2 625.5,242.7 625.8,244.7 626.2,245.1 626.6,243.7 627.0,245.0 627.4,248.1 627.8,251.8 628.2,253.1 628.6,254.3 629.0,257.9 629.4,259.3 629.8,259.0 630.2,261.5 630.5,260.6 630.9,260.3 631.3,257.5 631.7,258.2 632.1,257.4 632.5,252.4 632.9,254.8 633.3,256.3 633.7,253.9 634.1,251.8 634.5,251.5 634.9,250.1 635.3,248.3 635.6,250.0 636.0,248.2 636.4,247.5 636.8,248.9 637.2,246.5 637.6,245.9 638.0,246.0 638.4,244.3 638.8,239.5 639.2,242.7 639.6,243.4 640.0,245.8 640.3,248.9 640.7,246.9 641.1,249.4 641.5,254.2 641.9,252.9 642.3,250.7 642.7,248.6 643.1,243.4 643.5,240.0 643.9,240.1 644.3,238.2 644.7,242.6 645.1,239.2 645.4,250.1 645.8,247.7 646.2,249.1 646.6,250.2 647.0,250.8 647.4,252.2 647.8,251.7 648.2,257.4 648.6,261.9 649.0,261.1 649.4,260.4 649.8,259.3 650.1,258.4 650.5,258.1 650.9,258.0 651.3,258.0 651.7,257.5 652.1,258.4 652.5,259.5 652.9,254.8 653.3,254.7 653.7,255.8 654.1,254.1 654.5,254.4 654.8,253.7 655.2,254.9 655.6,253.1 656.0,252.7 656.4,252.7 656.8,247.6 657.2,243.2 657.6,239.3 658.0,237.3 658.4,238.7 658.8,237.2 659.2,236.1 659.6,237.9 659.9,241.1 660.3,239.4 660.7,239.2 661.1,243.9 661.5,245.9 661.9,241.7 662.3,235.7 662.7,238.8 663.1,236.7 663.5,239.6 663.9,239.1 664.3,240.1 664.6,237.5 665.0,230.2 665.4,222.0 665.8,229.0 666.2,224.8 666.6,225.4 667.0,228.2 667.4,229.9 667.8,228.9 668.2,236.8 668.6,234.4 669.0,240.0 669.3,245.9 669.7,240.9 670.1,237.6 670.5,238.6 670.9,249.1 671.3,248.3 671.7,242.7 672.1,243.7 672.5,246.3 672.9,244.3 673.3,248.3 673.7,241.0 674.1,242.7 674.4,240.1 674.8,246.2 675.2,251.1 675.6,250.9 676.0,243.7 676.4,245.5 676.8,246.0 677.2,244.2 677.6,245.9 678.0,239.5 678.4,238.9 678.8,238.4 679.1,236.3 679.5,231.5 679.9,233.9 680.3,232.2 680.7,232.3 681.1,233.8 681.5,236.7 681.9,236.2 682.3,240.4 682.7,239.8 683.1,240.7 683.5,242.4 683.9,247.3 684.2,243.0 684.6,243.5 685.0,246.6 685.4,244.4 685.8,240.7 686.2,245.0 686.6,242.9 687.0,245.7 687.4,246.4 687.8,253.3 688.2,251.6 688.6,252.3 688.9,253.1 689.3,256.8 689.7,251.1 690.1,249.9 690.5,255.9 690.9,253.7 691.3,254.2 691.7,255.2 692.1,256.8 692.5,257.2 692.9,259.4 693.3,262.7 693.6,262.5 694.0,264.1 694.4,264.6 694.8,262.5 695.2,266.3 695.6,262.4 696.0,260.4"/>
  <text x="60" y="62" font-size="11" fill="#2563eb">Price index</text>
  <text x="146" y="62" font-size="11" fill="#16a34a">Total return (price + distributions)</text>
  <text x="56" y="348" font-size="11" text-anchor="middle" fill="#444">2019-12</text><text x="216" y="348" font-size="11" text-anchor="middle" fill="#444">2021-07</text><text x="376" y="348" font-size="11" text-anchor="middle" fill="#444">2023-03</text><text x="536" y="348" font-size="11" text-anchor="middle" fill="#444">2024-10</text><text x="696" y="348" font-size="11" text-anchor="middle" fill="#444">2026-06</text>
</svg>
