<svg xmlns="http://www.w3.org/2000/svg" width="720" height="360" viewBox="0 0 720 360">
  <rect width="720" height="360" fill="#fafafa"/>
  <text x="56" y="22" font-size="13" font-family="sans-serif" fill="#222">XP total return (rebased 100) · cumulative distributions $0.00/sh · market cap n/a</text>
  <line x1="56" y1="308" x2="696" y2="308" stroke="#ccc"/>
  <line x1="56" y1="48" x2="56" y2="308" stroke="#ccc"/>
  <polyline fill="none" stroke="#2563eb" stroke-width="2" points="56.0,158.4 56.4,157.4 56.8,140.4 57.2,151.0 57.6,159.2 58.0,138.2 58.4,140.1 58.7,127.7 59.1,132.0 59.5,129.8 59.9,135.1 60.3,136.1 60.7,137.3 61.1,135.9 61.5,135.5 61.9,137.6 62.3,148.7 62.7,146.6 63.1,144.9 63.5,139.8 63.8,141.0 64.2,141.3 64.6,143.5 65.0,141.3 65.4,140.4 65.8,134.4 66.2,124.5 66.6,114.0 67.0,122.2 67.4,135.8 67.8,140.9 68.2,133.0 68.5,125.9 68.9,133.9 69.3,126.9 69.7,125.2 70.1,133.4 70.5,128.3 70.9,137.1 71.3,142.3 71.7,142.5 72.1,133.3 72.5,122.7 72.9,120.2 73.3,125.9 73.6,122.5 74.0,113.9 74.4,111.2 74.8,114.8 75.2,130.5 75.6,141.5 76.0,148.7 76.4,152.9 76.8,157.3 77.2,143.5 77.6,149.0 78.0,134.1 78.4,151.2 78.7,177.6 79.1,201.6 79.5,183.3 79.9,220.4 80.3,251.0 80.7,225.1 81.1,246.4 81.5,238.8 81.9,251.6 82.3,233.4 82.7,249.7 83.1,255.2 83.5,240.3 83.8,221.8 84.2,211.6 84.6,225.8 85.0,235.1 85.4,242.3 85.8,249.8 86.2,253.8 86.6,251.3 87.0,236.1 87.4,229.9 87.8,229.6 88.2,224.1 88.5,231.8 88.9,223.0 89.3,219.6 89.7,208.2 90.1,200.6 90.5,200.0 90.9,212.6 91.3,205.0 91.7,206.5 92.1,222.3 92.5,217.4 92.9,211.1 93.3,210.0 93.6,209.8 94.0,221.2 94.4,222.1 94.8,224.1 95.2,222.4 95.6,213.9 96.0,210.1 96.4,208.8 96.8,211.5 97.2,194.6 97.6,204.8 98.0,202.3 98.4,196.5 98.7,202.4 99.1,196.9 99.5,191.4 99.9,189.7 100.3,177.9 100.7,180.2 101.1,180.7 101.5,181.0 101.9,180.0 102.3,170.6 102.7,157.3 103.1,157.1 103.5,146.6 103.8,122.0 104.2,123.8 104.6,115.3 105.0,133.2 105.4,121.1 105.8,118.0 106.2,106.4 106.6,93.0 107.0,83.0 107.4,87.8 107.8,92.0 108.2,75.6 108.5,101.1 108.9,93.7 109.3,106.3 109.7,108.2 110.1,116.6 110.5,109.1 110.9,101.2 111.3,85.7 111.7,90.4 112.1,85.1 112.5,88.1 112.9,88.9 113.3,96.0 113.6,102.2 114.0,100.4 114.4,113.3 114.8,113.4 115.2,102.3 115.6,100.4 116.0,96.5 116.4,103.8 116.8,102.1 117.2,87.7 117.6,87.4 118.0,80.9 118.4,86.6 118.7,91.8 119.1,88.4 119.5,84.3 119.9,83.8 120.3,72.4 120.7,82.7 121.1,83.6 121.5,87.1 121.9,91.6 122.3,99.2 122.7,104.8 123.1,105.5 123.5,102.4 123.8,101.9 124.2,99.3 124.6,108.2 125.0,93.8 125.4,88.1 125.8,84.7 126.2,74.6 126.6,73.8 127.0,75.8 127.4,66.7 127.8,75.2 128.2,84.1 128.5,90.0 128.9,96.2 129.3,86.9 129.7,97.7 130.1,103.2 130.5,105.1 130.9,105.6 131.3,105.6 131.7,109.1 132.1,110.8 132.5,116.2 132.9,109.0 133.3,119.1 133.6,113.6 134.0,110.7 134.4,119.4 134.8,120.0 135.2,118.4 135.6,117.2 136.0,122.7 136.4,116.2 136.8,110.7 137.2,118.0 137.6,111.2 138.0,113.5 138.4,113.7 138.7,121.3 139.1,111.1 139.5,115.6 139.9,115.4 140.3,116.0 140.7,102.9 141.1,97.3 141.5,107.4 141.9,108.6 142.3,112.3 142.7,110.5 143.1,124.2 143.5,125.5 143.8,127.3 144.2,121.5 144.6,114.8 145.0,125.6 145.4,111.4 145.8,115.9 146.2,110.8 146.6,131.5 147.0,130.4 147.4,136.1 147.8,135.6 148.2,129.2 148.5,125.5 148.9,130.8 149.3,124.4 149.7,127.7 150.1,123.5 150.5,116.7 150.9,116.8 151.3,118.5 151.7,122.1 152.1,125.2 152.5,125.5 152.9,136.0 153.3,136.2 153.6,135.8 154.0,133.5 154.4,139.2 154.8,143.9 155.2,151.1 155.6,145.9 156.0,136.7 156.4,127.3 156.8,121.5 157.2,125.6 157.6,123.7 158.0,126.0 158.4,122.2 158.7,120.3 159.1,126.7 159.5,127.7 159.9,125.1 160.3,129.5 160.7,132.1 161.1,133.6 161.5,141.1 161.9,137.3 162.3,125.2 162.7,132.7 163.1,125.0 163.5,129.2 163.8,124.7 164.2,128.9 164.6,109.4 165.0,113.4 165.4,112.1 165.8,116.0 166.2,110.2 166.6,97.1 167.0,102.7 167.4,100.8 167.8,107.6 168.2,88.2 168.5,78.8 168.9,83.4 169.3,81.9 169.7,80.4 170.1,79.4 170.5,84.0 170.9,86.7 171.3,80.6 171.7,81.1 172.1,72.8 172.5,71.0 172.9,79.5 173.3,72.7 173.6,94.2 174.0,90.9 174.4,85.0 174.8,99.1 175.2,104.8 175.6,104.9 176.0,109.1 176.4,120.3 176.8,125.5 177.2,123.3 177.6,141.3 178.0,139.2 178.4,137.1 178.7,122.5 179.1,124.0 179.5,122.6 179.9,123.9 180.3,123.2 180.7,138.8 181.1,129.7 181.5,129.0 181.9,135.6 182.3,146.8 182.7,140.6 183.1,140.9 183.5,144.5 183.8,145.9 184.2,140.6 184.6,129.4 185.0,133.2 185.4,133.9 185.8,136.1 186.2,133.1 186.6,133.2 187.0,137.4 187.4,135.1 187.8,132.1 188.2,133.1 188.5,134.0 188.9,136.5 189.3,136.6 189.7,130.3 190.1,130.3 190.5,127.6 190.9,131.0 191.3,137.1 191.7,130.4 192.1,130.5 192.5,129.9 192.9,132.6 193.3,136.4 193.6,112.4 194.0,114.1 194.4,101.3 194.8,113.2 195.2,105.9 195.6,119.8 196.0,121.7 196.4,111.7 196.8,111.7 197.2,115.9 197.6,116.7 198.0,118.4 198.4,125.0 198.7,128.5 199.1,134.6 199.5,128.7 199.9,134.8 200.3,129.6 200.7,130.5 201.1,127.7 201.5,130.3 201.9,125.2 202.3,119.9 202.7,119.2 203.1,115.0 203.5,108.2 203.8,104.6 204.2,103.4 204.6,103.7 205.0,102.0 205.4,94.8 205.8,94.5 206.2,96.2 206.6,96.4 207.0,93.4 207.4,95.7 207.8,100.6 208.2,100.2 208.5,102.3 208.9,108.1 209.3,114.4 209.7,114.2 210.1,121.5 210.5,120.4 210.9,128.2 211.3,125.8 211.7,124.7 212.1,120.4 212.5,123.2 212.9,123.8 213.3,118.0 213.6,131.6 214.0,125.5 214.4,121.9 214.8,125.1 215.2,122.4 215.6,116.0 216.0,124.6 216.4,121.0 216.8,117.0 217.2,121.9 217.6,118.4 218.0,115.0 218.4,96.9 218.7,90.2 219.1,83.4 219.5,75.1 219.9,77.9 220.3,82.0 220.7,83.5 221.1,86.7 221.5,93.5 221.9,99.9 222.3,102.4 222.7,99.0 223.1,99.5 223.5,97.7 223.8,87.9 224.2,83.1 224.6,86.5 225.0,79.8 225.4,78.5 225.8,79.9 226.2,72.3 226.6,65.9 227.0,72.4 227.4,68.3 227.8,83.9 228.2,78.9 228.5,85.5 228.9,86.8 229.3,89.8 229.7,91.8 230.1,93.6 230.5,99.6 230.9,108.1 231.3,97.2 231.7,92.5 232.1,97.4 232.5,104.2 232.9,108.5 233.3,118.6 233.6,121.7 234.0,126.8 234.4,116.4 234.8,125.2 235.2,126.6 235.6,130.0 236.0,118.1 236.4,126.8 236.8,144.1 237.2,153.9 237.6,155.4 238.0,160.4 238.4,145.9 238.7,145.0 239.1,151.7 239.5,150.2 239.9,160.7 240.3,162.9 240.7,155.4 241.1,162.1 241.5,162.7 241.9,162.2 242.3,167.5 242.7,160.4 243.1,167.3 243.5,164.6 243.8,170.1 244.2,155.5 244.6,160.5 245.0,161.4 245.4,166.7 245.8,161.0 246.2,162.2 246.6,161.8 247.0,170.0 247.4,181.0 247.8,187.7 248.2,184.4 248.5,190.2 248.9,182.6 249.3,181.0 249.7,185.5 250.1,183.9 250.5,190.3 250.9,187.8 251.3,187.8 251.7,188.6 252.1,185.1 252.5,183.0 252.9,182.3 253.3,183.5 253.6,182.4 254.0,176.6 254.4,187.6 254.8,181.9 255.2,188.1 255.6,187.0 256.0,189.1 256.4,185.9 256.8,185.7 257.2,183.9 257.6,180.9 258.0,190.8 258.4,194.8 258.7,190.9 259.1,190.0 259.5,188.6 259.9,193.4 260.3,201.1 260.7,199.1 261.1,195.5 261.5,195.6 261.9,182.3 262.3,179.7 262.7,186.9 263.1,190.0 263.5,198.0 263.8,188.2 264.2,180.7 264.6,184.7 265.0,183.5 265.4,178.6 265.8,174.4 266.2,176.0 266.6,176.1 267.0,164.7 267.4,162.1 267.8,169.9 268.2,174.2 268.5,171.5 268.9,172.1 269.3,171.0 269.7,159.5 270.1,166.3 270.5,163.1 270.9,164.2 271.3,153.5 271.7,151.2 272.1,157.7 272.5,160.0 272.9,161.8 273.3,163.9 273.6,167.5 274.0,170.0 274.4,170.1 274.8,174.0 275.2,173.3 275.6,176.9 276.0,187.4 276.4,202.3 276.8,194.0 277.2,175.2 277.6,177.6 278.0,185.4 278.4,192.3 278.7,187.8 279.1,175.0 279.5,175.5 279.9,169.7 280.3,170.1 280.7,165.7 281.1,175.7 281.5,170.3 281.9,171.3 282.3,171.6 282.7,163.7 283.1,176.5 283.5,182.5 283.8,177.7 284.2,173.4 284.6,175.8 285.0,180.3 285.4,179.1 285.8,183.8 286.2,185.2 286.6,189.3 287.0,188.0 287.4,193.0 287.8,197.0 288.2,193.3 288.5,193.3 288.9,201.6 289.3,207.5 289.7,205.2 290.1,212.1 290.5,216.5 290.9,210.7 291.3,212.8 291.7,215.3 292.1,218.5 292.5,228.2 292.9,230.4 293.3,237.6 293.6,244.3 294.0,245.8 294.4,248.9 294.8,240.7 295.2,237.0 295.6,243.4 296.0,238.3 296.4,242.6 296.8,233.6 297.2,230.8 297.6,228.9 298.0,234.4 298.4,231.5 298.7,223.9 299.1,219.3 299.5,223.9 299.9,228.5 300.3,220.4 300.7,223.3 301.1,222.7 301.5,217.9 301.9,223.2 302.3,226.5 302.7,235.9 303.1,243.9 303.5,244.7 303.8,240.9 304.2,245.7 304.6,245.1 305.0,243.9 305.4,243.3 305.8,241.2 306.2,239.8 306.6,239.2 307.0,245.7 307.4,247.8 307.8,249.6 308.2,250.1 308.5,245.8 308.9,249.1 309.3,246.8 309.7,246.7 310.1,253.1 310.5,250.2 310.9,250.0 311.3,254.9 311.7,252.0 312.1,251.8 312.5,248.1 312.9,246.8 313.3,243.1 313.6,245.7 314.0,244.5 314.4,246.4 314.8,238.0 315.2,235.4 315.6,232.3 316.0,227.3 316.4,227.7 316.8,221.5 317.2,219.4 317.6,217.5 318.0,212.6 318.4,218.1 318.7,235.4 319.1,245.2 319.5,240.1 319.9,228.1 320.3,232.6 320.7,231.5 321.1,231.0 321.5,236.2 321.9,241.2 322.3,229.4 322.7,224.9 323.1,226.6 323.5,231.0 323.8,234.0 324.2,239.7 324.6,242.6 325.0,241.9 325.4,241.8 325.8,244.4 326.2,241.7 326.6,241.8 327.0,237.1 327.4,232.2 327.8,239.2 328.2,239.5 328.5,240.8 328.9,243.9 329.3,240.5 329.7,240.0 330.1,239.7 330.5,240.0 330.9,243.2 331.3,250.5 331.7,247.4 332.1,246.5 332.5,247.5 332.9,243.8 333.3,234.3 333.6,233.6 334.0,232.8 334.4,229.9 334.8,232.2 335.2,231.7 335.6,242.6 336.0,243.2 336.4,245.3 336.8,251.7 337.2,250.8 337.6,252.5 338.0,253.6 338.4,255.7 338.7,249.1 339.1,250.2 339.5,250.7 339.9,254.9 340.3,255.5 340.7,252.2 341.1,247.6 341.5,241.3 341.9,242.5 342.3,241.7 342.7,243.9 343.1,246.8 343.5,247.5 343.8,240.0 344.2,243.1 344.6,242.6 345.0,243.3 345.4,241.2 345.8,247.9 346.2,251.6 346.6,252.8 347.0,253.5 347.4,257.4 347.8,258.0 348.2,257.7 348.5,260.5 348.9,257.8 349.3,252.1 349.7,252.1 350.1,247.4 350.5,252.5 350.9,255.3 351.3,257.3 351.7,261.0 352.1,261.0 352.5,262.7 352.9,265.3 353.3,267.7 353.6,270.5 354.0,271.6 354.4,270.5 354.8,265.6 355.2,263.8 355.6,266.2 356.0,263.1 356.4,268.5 356.8,266.6 357.2,264.6 357.6,264.1 358.0,272.5 358.4,270.3 358.7,271.7 359.1,267.3 359.5,265.6 359.9,262.9 360.3,260.3 360.7,255.7 361.1,256.9 361.5,259.5 361.9,258.8 362.3,256.8 362.7,254.8 363.1,251.5 363.5,250.8 363.8,251.8 364.2,250.2 364.6,248.8 365.0,249.6 365.4,250.4 365.8,251.7 366.2,250.5 366.6,252.5 367.0,254.7 367.4,257.4 367.8,257.5 368.2,262.9 368.5,262.4 368.9,260.1 369.3,260.6 369.7,259.4 370.1,261.1 370.5,277.6 370.9,275.4 371.3,276.1 371.7,275.7 372.1,277.3 372.5,280.6 372.9,280.3 373.3,282.9 373.6,285.3 374.0,285.4 374.4,283.0 374.8,282.9 375.2,277.6 375.6,280.7 376.0,286.4 376.4,288.5 376.8,288.6 377.2,288.4 377.6,284.6 378.0,283.0 378.4,285.5 378.7,283.8 379.1,286.0 379.5,290.1 379.9,288.6 380.3,286.9 380.7,283.0 381.1,283.2 381.5,282.4 381.9,283.3 382.3,287.2 382.7,288.6 383.1,288.1 383.5,289.1 383.8,288.5 384.2,280.9 384.6,277.5 385.0,272.1 385.4,272.3 385.8,273.0 386.2,271.3 386.6,274.9 387.0,274.0 387.4,274.6 387.8,273.0 388.2,274.2 388.5,275.4 388.9,271.3 389.3,269.9 389.7,270.7 390.1,275.4 390.5,274.7 390.9,272.3 391.3,266.5 391.7,266.7 392.1,265.3 392.5,262.2 392.9,263.1 393.3,263.9 393.6,261.9 394.0,260.7 394.4,256.4 394.8,258.1 395.2,253.5 395.6,251.1 396.0,252.1 396.4,251.0 396.8,247.1 397.2,244.4 397.6,249.2 398.0,251.3 398.4,249.2 398.7,243.8 399.1,244.5 399.5,242.0 399.9,238.5 400.3,235.5 400.7,235.3 401.1,231.8 401.5,236.0 401.9,232.0 402.3,228.1 402.7,226.6 403.1,218.3 403.5,213.3 403.8,218.2 404.2,219.3 404.6,221.6 405.0,224.8 405.4,223.9 405.8,221.6 406.2,219.2 406.6,217.7 407.0,218.6 407.4,223.2 407.8,218.2 408.2,223.1 408.5,220.9 408.9,219.6 409.3,220.3 409.7,222.5 410.1,219.3 410.5,217.2 410.9,217.2 411.3,209.6 411.7,203.6 412.1,199.7 412.5,201.2 412.9,198.1 413.3,202.9 413.6,202.9 414.0,199.6 414.4,200.6 414.8,202.8 415.2,202.4 415.6,203.2 416.0,204.2 416.4,203.8 416.8,205.5 417.2,207.0 417.6,208.9 418.0,208.5 418.4,212.2 418.7,212.0 419.1,218.3 419.5,211.4 419.9,208.4 420.3,203.9 420.7,197.1 421.1,203.8 421.5,206.7 421.9,205.8 422.3,202.4 422.7,204.4 423.1,208.8 423.5,203.2 423.8,208.1 424.2,209.3 424.6,210.2 425.0,211.4 425.4,211.1 425.8,210.3 426.2,205.9 426.6,207.0 427.0,203.2 427.4,202.7 427.8,208.5 428.2,209.8 428.5,218.6 428.9,219.7 429.3,220.5 429.7,223.3 430.1,226.8 430.5,221.9 430.9,221.5 431.3,222.3 431.7,230.7 432.1,227.1 432.5,225.8 432.9,227.5 433.3,227.5 433.6,225.6 434.0,227.7 434.4,230.7 434.8,230.5 435.2,229.7 435.6,230.7 436.0,234.3 436.4,233.5 436.8,232.0 437.2,230.4 437.6,233.5 438.0,238.1 438.4,235.6 438.7,236.7 439.1,240.8 439.5,238.3 439.9,236.5 440.3,234.8 440.7,230.2 441.1,233.5 441.5,226.6 441.9,227.9 442.3,229.8 442.7,225.2 443.1,226.1 443.5,225.1 443.8,219.5 444.2,220.0 444.6,219.2 445.0,219.2 445.4,222.3 445.8,220.7 446.2,219.9 446.6,221.1 447.0,219.0 447.4,219.5 447.8,220.2 448.2,216.7 448.5,223.5 448.9,216.9 449.3,218.2 449.7,215.7 450.1,217.2 450.5,220.0 450.9,224.9 451.3,218.3 451.7,208.8 452.1,213.2 452.5,205.0 452.9,201.6 453.3,205.5 453.6,205.6 454.0,204.3 454.4,203.4 454.8,200.8 455.2,203.2 455.6,204.8 456.0,207.5 456.4,210.7 456.8,214.4 457.2,209.8 457.6,203.5 458.0,211.0 458.4,210.6 458.7,209.5 459.1,206.2 459.5,207.9 459.9,208.1 460.3,210.6 460.7,208.8 461.1,208.0 461.5,209.4 461.9,208.1 462.3,208.7 462.7,206.4 463.1,203.7 463.5,210.6 463.8,213.0 464.2,209.6 464.6,203.7 465.0,209.1 465.4,209.9 465.8,211.7 466.2,212.6 466.6,211.0 467.0,210.5 467.4,214.6 467.8,210.2 468.2,210.2 468.5,211.4 468.9,209.5 469.3,214.0 469.7,212.0 470.1,216.1 470.5,215.6 470.9,212.8 471.3,217.8 471.7,218.2 472.1,216.7 472.5,218.2 472.9,217.5 473.3,211.9 473.6,211.5 474.0,209.0 474.4,208.5 474.8,206.2 475.2,205.6 475.6,209.1 476.0,208.6 476.4,209.4 476.8,210.6 477.2,207.0 477.6,207.4 478.0,209.4 478.4,209.1 478.7,208.0 479.1,208.0 479.5,207.0 479.9,209.5 480.3,210.1 480.7,211.2 481.1,210.9 481.5,212.5 481.9,210.9 482.3,208.9 482.7,215.2 483.1,215.7 483.5,219.8 483.8,224.2 484.2,228.9 484.6,229.7 485.0,232.4 485.4,232.7 485.8,232.2 486.2,235.2 486.6,234.8 487.0,235.3 487.4,232.5 487.8,230.5 488.2,235.7 488.5,235.3 488.9,232.1 489.3,225.1 489.7,225.0 490.1,226.7 490.5,224.7 490.9,229.8 491.3,229.6 491.7,228.5 492.1,227.8 492.5,227.5 492.9,227.7 493.3,229.1 493.6,229.6 494.0,230.3 494.4,249.5 494.8,246.8 495.2,245.7 495.6,244.8 496.0,247.6 496.4,243.5 496.8,243.9 497.2,242.9 497.6,243.9 498.0,244.6 498.4,243.1 498.7,244.8 499.1,245.9 499.5,245.9 499.9,249.3 500.3,252.9 500.7,253.9 501.1,254.6 501.5,252.7 501.9,249.5 502.3,251.5 502.7,249.9 503.1,250.0 503.5,250.0 503.8,249.5 504.2,251.7 504.6,255.9 505.0,256.6 505.4,255.9 505.8,254.6 506.2,254.6 506.6,252.5 507.0,248.0 507.4,247.6 507.8,247.0 508.2,246.1 508.5,245.5 508.9,246.3 509.3,251.2 509.7,250.0 510.1,247.4 510.5,248.5 510.9,252.2 511.3,251.7 511.7,250.9 512.1,251.5 512.5,253.2 512.9,254.3 513.3,257.0 513.6,258.4 514.0,260.8 514.4,258.4 514.8,256.7 515.2,252.5 515.6,249.1 516.0,249.2 516.4,247.0 516.8,240.7 517.2,239.5 517.6,238.6 518.0,238.3 518.4,240.8 518.7,241.5 519.1,242.3 519.5,240.6 519.9,240.5 520.3,241.1 520.7,243.2 521.1,246.3 521.5,247.1 521.9,247.0 522.3,247.9 522.7,246.0 523.1,248.4 523.5,248.3 523.8,248.9 524.2,247.4 524.6,246.1 525.0,242.4 525.4,241.3 525.8,240.5 526.2,240.4 526.6,239.7 527.0,247.6 527.4,252.1 527.8,248.7 528.2,250.7 528.5,248.6 528.9,248.3 529.3,249.7 529.7,249.2 530.1,249.6 530.5,249.8 530.9,250.9 531.3,250.9 531.7,251.2 532.1,253.9 532.5,253.2 532.9,252.0 533.3,249.4 533.6,251.8 534.0,248.6 534.4,248.5 534.8,248.6 535.2,249.0 535.6,249.4 536.0,252.2 536.4,250.5 536.8,251.5 537.2,248.5 537.6,250.7 538.0,250.0 538.4,252.4 538.7,256.2 539.1,251.5 539.5,250.0 539.9,249.8 540.3,251.5 540.7,254.6 541.1,253.0 541.5,255.9 541.9,256.1 542.3,256.7 542.7,257.0 543.1,255.7 543.5,256.7 543.8,262.3 544.2,263.1 544.6,261.1 545.0,260.3 545.4,260.3 545.8,266.3 546.2,274.1 546.6,272.4 547.0,274.7 547.4,274.6 547.8,274.2 548.2,274.8 548.5,274.7 548.9,277.5 549.3,276.5 549.7,276.4 550.1,276.3 550.5,277.9 550.9,277.1 551.3,283.1 551.7,282.0 552.1,281.6 552.5,281.8 552.9,281.9 553.3,281.6 553.6,282.2 554.0,283.8 554.4,283.4 554.8,283.7 555.2,285.6 555.6,285.9 556.0,286.8 556.4,287.9 556.8,287.2 557.2,285.1 557.6,285.9 558.0,283.0 558.4,282.7 558.7,282.7 559.1,285.9 559.5,282.2 559.9,281.5 560.3,278.2 560.7,276.3 561.1,275.4 561.5,275.4 561.9,271.5 562.3,273.5 562.7,272.6 563.1,271.5 563.5,271.8 563.8,270.7 564.2,271.9 564.6,270.8 565.0,270.2 565.4,269.8 565.8,269.7 566.2,267.4 566.6,265.9 567.0,266.9 567.4,265.7 567.8,267.9 568.2,268.4 568.5,267.6 568.9,267.8 569.3,268.8 569.7,270.7 570.1,271.5 570.5,271.2 570.9,269.6 571.3,268.5 571.7,263.6 572.1,265.2 572.5,266.2 572.9,270.8 573.3,272.1 573.6,267.8 574.0,263.5 574.4,264.5 574.8,262.2 575.2,264.8 575.6,265.3 576.0,267.4 576.4,267.9 576.8,266.8 577.2,267.8 577.6,267.1 578.0,272.9 578.4,270.7 578.7,271.4 579.1,270.3 579.5,277.1 579.9,278.4 580.3,278.8 580.7,274.8 581.1,277.5 581.5,274.5 581.9,273.0 582.3,273.0 582.7,273.4 583.1,271.8 583.5,272.1 583.8,268.9 584.2,265.7 584.6,262.9 585.0,260.7 585.4,259.3 585.8,259.6 586.2,259.9 586.6,260.6 587.0,259.5 587.4,261.1 587.8,261.6 588.2,261.4 588.5,251.7 588.9,250.1 589.3,250.0 589.7,246.5 590.1,244.4 590.5,246.1 590.9,245.2 591.3,245.9 591.7,246.3 592.1,245.8 592.5,245.6 592.9,245.9 593.3,242.5 593.6,241.3 594.0,242.5 594.4,241.9 594.8,241.2 595.2,242.1 595.6,240.7 596.0,239.6 596.4,240.0 596.8,241.1 597.2,238.6 597.6,234.9 598.0,239.8 598.4,240.3 598.7,238.2 599.1,238.8 599.5,239.2 599.9,240.9 600.3,242.5 600.7,241.6 601.1,242.4 601.5,241.9 601.9,240.0 602.3,237.2 602.7,239.5 603.1,240.3 603.5,239.5 603.8,241.2 604.2,242.1 604.6,242.8 605.0,246.0 605.4,248.0 605.8,249.6 606.2,248.2 606.6,247.9 607.0,248.7 607.4,254.0 607.8,255.2 608.2,255.9 608.5,255.2 608.9,256.9 609.3,257.4 609.7,259.3 610.1,258.3 610.5,258.2 610.9,259.7 611.3,258.5 611.7,256.7 612.1,256.3 612.5,254.2 612.9,253.1 613.3,253.2 613.6,256.6 614.0,252.6 614.4,252.2 614.8,252.8 615.2,251.8 615.6,252.2 616.0,260.5 616.4,260.2 616.8,259.5 617.2,257.9 617.6,256.5 618.0,256.3 618.4,254.4 618.7,246.2 619.1,248.6 619.5,250.1 619.9,250.5 620.3,250.0 620.7,244.4 621.1,246.5 621.5,248.3 621.9,245.8 622.3,244.4 622.7,244.6 623.1,245.3 623.5,243.1 623.8,238.6 624.2,237.7 624.6,239.7 625.0,241.2 625.4,241.2 625.8,242.7 626.2,244.7 626.6,245.1 627.0,243.7 627.4,245.0 627.8,248.1 628.2,251.8 628.5,253.1 628.9,254.3 629.3,257.9 629.7,259.3 630.1,259.0 630.5,261.5 630.9,260.6 631.3,260.3 631.7,257.5 632.1,258.2 632.5,257.4 632.9,252.4 633.3,254.8 633.6,256.3 634.0,253.9 634.4,251.8 634.8,251.5 635.2,250.1 635.6,248.3 636.0,250.0 636.4,248.2 636.8,247.5 637.2,248.9 637.6,246.5 638.0,245.9 638.4,246.0 638.7,244.3 639.1,239.5 639.5,242.7 639.9,243.4 640.3,245.8 640.7,248.9 641.1,246.9 641.5,249.4 641.9,254.2 642.3,252.9 642.7,250.7 643.1,248.6 643.5,243.4 643.8,240.0 644.2,240.1 644.6,238.2 645.0,242.6 645.4,239.2 645.8,250.1 646.2,247.7 646.6,249.1 647.0,250.2 647.4,250.8 647.8,252.2 648.2,251.7 648.5,257.4 648.9,261.9 649.3,261.1 649.7,260.4 650.1,259.3 650.5,258.4 650.9,258.1 651.3,258.0 651.7,258.0 652.1,257.5 652.5,258.4 652.9,259.5 653.3,254.8 653.6,254.7 654.0,255.8 654.4,254.1 654.8,254.4 655.2,253.7 655.6,254.9 656.0,253.1 656.4,252.7 656.8,252.7 657.2,247.6 657.6,243.2 658.0,239.3 658.4,237.3 658.7,238.7 659.1,237.2 659.5,236.1 659.9,237.9 660.3,241.1 660.7,239.4 661.1,239.2 661.5,243.9 661.9,245.9 662.3,241.7 662.7,235.7 663.1,238.8 663.5,236.7 663.8,239.6 664.2,239.1 664.6,240.1 665.0,237.5 665.4,230.2 665.8,222.0 666.2,229.0 666.6,224.8 667.0,225.4 667.4,228.2 667.8,229.9 668.2,228.9 668.5,236.8 668.9,234.4 669.3,240.0 669.7,245.9 670.1,240.9 670.5,237.6 670.9,238.6 671.3,249.1 671.7,248.3 672.1,242.7 672.5,243.7 672.9,246.3 673.3,244.3 673.6,248.3 674.0,241.0 674.4,242.7 674.8,240.1 675.2,246.2 675.6,251.1 676.0,250.9 676.4,243.7 676.8,245.5 677.2,246.0 677.6,244.2 678.0,245.9 678.4,239.5 678.7,238.9 679.1,238.4 679.5,236.3 679.9,231.5 680.3,233.9 680.7,232.2 681.1,232.3 681.5,233.8 681.9,236.7 682.3,236.2 682.7,240.4 683.1,239.8 683.5,240.7 683.8,242.4 684.2,247.3 684.6,243.0 685.0,243.5 685.4,246.6 685.8,244.4 686.2,240.7 686.6,245.0 687.0,242.9 687.4,245.7 687.8,246.4 688.2,253.3 688.5,251.6 688.9,252.3 689.3,253.1 689.7,256.8 690.1,251.1 690.5,249.9 690.9,255.9 691.3,253.7 691.7,254.2 692.1,255.2 692.5,256.8 692.9,257.2 693.3,259.4 693.6,262.7 694.0,262.5 694.4,264.1 694.8,264.6 695.2,262.5 695.6,266.3 696.0,264.6"/>
  <polyline fill="none" stroke="#16a34a" stroke-width="2" points="56.0,158.4 56.4,157.4 56.8,140.4 57.2,151.0 57.6,159.2 58.0,138.2 58.4,140.1 58.7,127.7 59.1,132.0 59.5,129.8 59.9,135.1 60.3,136.1 60.7,137.3 61.1,135.9 61.5,135.5 61.9,137.6 62.3,148.7 62.7,146.6 63.1,144.9 63.5,139.8 63.8,141.0 64.2,141.3 64.6,143.5 65.0,141.3 65.4,140.4 65.8,134.4 66.2,124.5 66.6,114.0 67.0,122.2 67.4,135.8 67.8,140.9 68.2,133.0 68.5,125.9 68.9,133.9 69.3,126.9 69.7,125.2 70.1,133.4 70.5,128.3 70.9,137.1 71.3,142.3 71.7,142.5 72.1,133.3 72.5,122.7 72.9,120.2 73.3,125.9 73.6,122.5 74.0,113.9 74.4,111.2 74.8,114.8 75.2,130.5 75.6,141.5 76.0,148.7 76.4,152.9 76.8,157.3 77.2,143.5 77.6,149.0 78.0,134.1 78.4,151.2 78.7,177.6 79.1,201.6 79.5,183.3 79.9,220.4 80.3,251.0 80.7,225.1 81.1,246.4 81.5,238.8 81.9,251.6 82.3,233.4 82.7,249.7 83.1,255.2 83.5,240.3 83.8,221.8 84.2,211.6 84.6,225.8 85.0,235.1 85.4,242.3 85.8,249.8 86.2,253.8 86.6,251.3 87.0,236.1 87.4,229.9 87.8,229.6 88.2,224.1 88.5,231.8 88.9,223.0 89.3,219.6 89.7,208.2 90.1,200.6 90.5,200.0 90.9,212.6 91.3,205.0 91.7,206.5 92.1,222.3 92.5,217.4 92.9,211.1 93.3,210.0 93.6,209.8 94.0,221.2 94.4,222.1 94.8,224.1 95.2,222.4 95.6,213.9 96.0,210.1 96.4,208.8 96.8,211.5 97.2,194.6 97.6,204.8 98.0,202.3 98.4,196.5 98.7,202.4 99.1,196.9 99.5,191.4 99.9,189.7 100.3,177.9 100.7,180.2 101.1,180.7 101.5,181.0 101.9,180.0 102.3,170.6 102.7,157.3 103.1,157.1 103.5,146.6 103.8,122.0 104.2,123.8 104.6,115.3 105.0,133.2 105.4,121.1 105.8,118.0 106.2,106.4 106.6,93.0 107.0,83.0 107.4,87.8 107.8,92.0 108.2,75.6 108.5,101.1 108.9,93.7 109.3,106.3 109.7,108.2 110.1,116.6 110.5,109.1 110.9,101.2 111.3,85.7 111.7,90.4 112.1,85.1 112.5,88.1 112.9,88.9 113.3,96.0 113.6,102.2 114.0,100.4 114.4,113.3 114.8,113.4 115.2,102.3 115.6,100.4 116.0,96.5 116.4,103.8 116.8,102.1 117.2,87.7 117.6,87.4 118.0,80.9 118.4,86.6 118.7,91.8 119.1,88.4 119.5,84.3 119.9,83.8 120.3,72.4 120.7,82.7 121.1,83.6 121.5,87.1 121.9,91.6 122.3,99.2 122.7,104.8 123.1,105.5 123.5,102.4 123.8,101.9 124.2,99.3 124.6,108.2 125.0,93.8 125.4,88.1 125.8,84.7 126.2,74.6 126.6,73.8 127.0,75.8 127.4,66.7 127.8,75.2 128.2,84.1 128.5,90.0 128.9,96.2 129.3,86.9 129.7,97.7 130.1,103.2 130.5,105.1 130.9,105.6 131.3,105.6 131.7,109.1 132.1,110.8 132.5,116.2 132.9,109.0 133.3,119.1 133.6,113.6 134.0,110.7 134.4,119.4 134.8,120.0 135.2,118.4 135.6,117.2 136.0,122.7 136.4,116.2 136.8,110.7 137.2,118.0 137.6,111.2 138.0,113.5 138.4,113.7 138.7,121.3 139.1,111.1 139.5,115.6 139.9,115.4 140.3,116.0 140.7,102.9 141.1,97.3 141.5,107.4 141.9,108.6 142.3,112.3 142.7,110.5 143.1,124.2 143.5,125.5 143.8,127.3 144.2,121.5 144.6,114.8 145.0,125.6 145.4,111.4 145.8,115.9 146.2,110.8 146.6,131.5 147.0,130.4 147.4,136.1 147.8,135.6 148.2,129.2 148.5,125.5 148.9,130.8 149.3,124.4 149.7,127.7 150.1,123.5 150.5,116.7 150.9,116.8 151.3,118.5 151.7,122.1 152.1,125.2 152.5,125.5 152.9,136.0 153.3,136.2 153.6,135.8 154.0,133.5 154.4,139.2 154.8,143.9 155.2,151.1 155.6,145.9 156.0,136.7 156.4,127.3 156.8,121.5 157.2,125.6 157.6,123.7 158.0,126.0 158.4,122.2 158.7,120.3 159.1,126.7 159.5,127.7 159.9,125.1 160.3,129.5 160.7,132.1 161.1,133.6 161.5,141.1 161.9,137.3 162.3,125.2 162.7,132.7 163.1,125.0 163.5,129.2 163.8,124.7 164.2,128.9 164.6,109.4 165.0,113.4 165.4,112.1 165.8,116.0 166.2,110.2 166.6,97.1 167.0,102.7 167.4,100.8 167.8,107.6 168.2,88.2 168.5,78.8 168.9,83.4 169.3,81.9 169.7,80.4 170.1,79.4 170.5,84.0 170.9,86.7 171.3,80.6 171.7,81.1 172.1,72.8 172.5,71.0 172.9,79.5 173.3,72.7 173.6,94.2 174.0,90.9 174.4,85.0 174.8,99.1 175.2,104.8 175.6,104.9 176.0,109.1 176.4,120.3 176.8,125.5 177.2,123.3 177.6,141.3 178.0,139.2 178.4,137.1 178.7,122.5 179.1,124.0 179.5,122.6 179.9,123.9 180.3,123.2 180.7,138.8 181.1,129.7 181.5,129.0 181.9,135.6 182.3,146.8 182.7,140.6 183.1,140.9 183.5,144.5 183.8,145.9 184.2,140.6 184.6,129.4 185.0,133.2 185.4,133.9 185.8,136.1 186.2,133.1 186.6,133.2 187.0,137.4 187.4,135.1 187.8,132.1 188.2,133.1 188.5,134.0 188.9,136.5 189.3,136.6 189.7,130.3 190.1,130.3 190.5,127.6 190.9,131.0 191.3,137.1 191.7,130.4 192.1,130.5 192.5,129.9 192.9,132.6 193.3,136.4 193.6,112.4 194.0,114.1 194.4,101.3 194.8,113.2 195.2,105.9 195.6,119.8 196.0,121.7 196.4,111.7 196.8,111.7 197.2,115.9 197.6,116.7 198.0,118.4 198.4,125.0 198.7,128.5 199.1,134.6 199.5,128.7 199.9,134.8 200.3,129.6 200.7,130.5 201.1,127.7 201.5,130.3 201.9,125.2 202.3,119.9 202.7,119.2 203.1,115.0 203.5,108.2 203.8,104.6 204.2,103.4 204.6,103.7 205.0,102.0 205.4,94.8 205.8,94.5 206.2,96.2 206.6,96.4 207.0,93.4 207.4,95.7 207.8,100.6 208.2,100.2 208.5,102.3 208.9,108.1 209.3,114.4 209.7,114.2 210.1,121.5 210.5,120.4 210.9,128.2 211.3,125.8 211.7,124.7 212.1,120.4 212.5,123.2 212.9,123.8 213.3,118.0 213.6,131.6 214.0,125.5 214.4,121.9 214.8,125.1 215.2,122.4 215.6,116.0 216.0,124.6 216.4,121.0 216.8,117.0 217.2,121.9 217.6,118.4 218.0,115.0 218.4,96.9 218.7,90.2 219.1,83.4 219.5,75.1 219.9,77.9 220.3,82.0 220.7,83.5 221.1,86.7 221.5,93.5 221.9,99.9 222.3,102.4 222.7,99.0 223.1,99.5 223.5,97.7 223.8,87.9 224.2,83.1 224.6,86.5 225.0,79.8 225.4,78.5 225.8,79.9 226.2,72.3 226.6,65.9 227.0,72.4 227.4,68.3 227.8,83.9 228.2,78.9 228.5,85.5 228.9,86.8 229.3,89.8 229.7,91.8 230.1,93.6 230.5,99.6 230.9,108.1 231.3,97.2 231.7,92.5 232.1,97.4 232.5,104.2 232.9,108.5 233.3,118.6 233.6,121.7 234.0,126.8 234.4,116.4 234.8,125.2 235.2,126.6 235.6,130.0 236.0,118.1 236.4,126.8 236.8,144.1 237.2,153.9 237.6,155.4 238.0,160.4 238.4,145.9 238.7,145.0 239.1,151.7 239.5,150.2 239.9,160.7 240.3,162.9 240.7,155.4 241.1,162.1 241.5,162.7 241.9,162.2 242.3,167.5 242.7,160.4 243.1,167.3 243.5,164.6 243.8,170.1 244.2,155.5 244.6,160.5 245.0,161.4 245.4,166.7 245.8,161.0 246.2,162.2 246.6,161.8 247.0,170.0 247.4,181.0 247.8,187.7 248.2,184.4 248.5,190.2 248.9,182.6 249.3,181.0 249.7,185.5 250.1,183.9 250.5,190.3 250.9,187.8 251.3,187.8 251.7,188.6 252.1,185.1 252.5,183.0 252.9,182.3 253.3,183.5 253.6,182.4 254.0,176.6 254.4,187.6 254.8,181.9 255.2,188.1 255.6,187.0 256.0,189.1 256.4,185.9 256.8,185.7 257.2,183.9 257.6,180.9 258.0,190.8 258.4,194.8 258.7,190.9 259.1,190.0 259.5,188.6 259.9,193.4 260.3,201.1 260.7,199.1 261.1,195.5 261.5,195.6 261.9,182.3 262.3,179.7 262.7,186.9 263.1,190.0 263.5,198.0 263.8,188.2 264.2,180.7 264.6,184.7 265.0,183.5 265.4,178.6 265.8,174.4 266.2,176.0 266.6,176.1 267.0,164.7 267.4,162.1 267.8,169.9 268.2,174.2 268.5,171.5 268.9,172.1 269.3,171.0 269.7,159.5 270.1,166.3 270.5,163.1 270.9,164.2 271.3,153.5 271.7,151.2 272.1,157.7 272.5,160.0 272.9,161.8 273.3,163.9 273.6,167.5 274.0,170.0 274.4,170.1 274.8,174.0 275.2,173.3 275.6,176.9 276.0,187.4 276.4,202.3 276.8,194.0 277.2,175.2 277.6,177.6 278.0,185.4 278.4,192.3 278.7,187.8 279.1,175.0 279.5,175.5 279.9,169.7 280.3,170.1 280.7,165.7 281.1,175.7 281.5,170.3 281.9,171.3 282.3,171.6 282.7,163.7 283.1,176.5 283.5,182.5 283.8,177.7 284.2,173.4 284.6,175.8 285.0,180.3 285.4,179.1 285.8,183.8 286.2,185.2 286.6,189.3 287.0,188.0 287.4,193.0 287.8,197.0 288.2,193.3 288.5,193.3 288.9,201.6 289.3,207.5 289.7,205.2 290.1,212.1 290.5,216.5 290.9,210.7 291.3,212.8 291.7,215.3 292.1,218.5 292.5,228.2 292.9,230.4 293.3,237.6 293.6,244.3 294.0,245.8 294.4,248.9 294.8,240.7 295.2,237.0 295.6,243.4 296.0,238.3 296.4,242.6 296.8,233.6 297.2,230.8 297.6,228.9 298.0,234.4 298.4,231.5 298.7,223.9 299.1,219.3 299.5,223.9 299.9,228.5 300.3,220.4 300.7,223.3 301.1,222.7 301.5,217.9 301.9,223.2 302.3,226.5 302.7,235.9 303.1,243.9 303.5,244.7 303.8,240.9 304.2,245.7 304.6,245.1 305.0,243.9 305.4,243.3 305.8,241.2 306.2,239.8 306.6,239.2 307.0,245.7 307.4,247.8 307.8,249.6 308.2,250.1 308.5,245.8 308.9,249.1 309.3,246.8 309.7,246.7 310.1,253.1 310.5,250.2 310.9,250.0 311.3,254.9 311.7,252.0 312.1,251.8 312.5,248.1 312.9,246.8 313.3,243.1 313.6,245.7 314.0,244.5 314.4,246.4 314.8,238.0 315.2,235.4 315.6,232.3 316.0,227.3 316.4,227.7 316.8,221.5 317.2,219.4 317.6,217.5 318.0,212.6 318.4,218.1 318.7,235.4 319.1,245.2 319.5,240.1 319.9,228.1 320.3,232.6 320.7,231.5 321.1,231.0 321.5,236.2 321.9,241.2 322.3,229.4 322.7,224.9 323.1,226.6 323.5,231.0 323.8,234.0 324.2,239.7 324.6,242.6 325.0,241.9 325.4,241.8 325.8,244.4 326.2,241.7 326.6,241.8 327.0,237.1 327.4,232.2 327.8,239.2 328.2,239.5 328.5,240.8 328.9,243.9 329.3,240.5 329.7,240.0 330.1,239.7 330.5,240.0 330.9,243.2 331.3,250.5 331.7,247.4 332.1,246.5 332.5,247.5 332.9,243.8 333.3,234.3 333.6,233.6 334.0,232.8 334.4,229.9 334.8,232.2 335.2,231.7 335.6,242.6 336.0,243.2 336.4,245.3 336.8,251.7 337.2,250.8 337.6,252.5 338.0,253.6 338.4,255.7 338.7,249.1 339.1,250.2 339.5,250.7 339.9,254.9 340.3,255.5 340.7,252.2 341.1,247.6 341.5,241.3 341.9,242.5 342.3,241.7 342.7,243.9 343.1,246.8 343.5,247.5 343.8,240.0 344.2,243.1 344.6,242.6 345.0,243.3 345.4,241.2 345.8,247.9 346.2,251.6 346.6,252.8 347.0,253.5 347.4,257.4 347.8,258.0 348.2,257.7 348.5,260.5 348.9,257.8 349.3,252.1 349.7,252.1 350.1,247.4 350.5,252.5 350.9,255.3 351.3,257.3 351.7,261.0 352.1,261.0 352.5,262.7 352.9,265.3 353.3,267.7 353.6,270.5 354.0,271.6 354.4,270.5 354.8,265.6 355.2,263.8 355.6,266.2 356.0,263.1 356.4,268.5 356.8,266.6 357.2,264.6 357.6,264.1 358.0,272.5 358.4,270.3 358.7,271.7 359.1,267.3 359.5,265.6 359.9,262.9 360.3,260.3 360.7,255.7 361.1,256.9 361.5,259.5 361.9,258.8 362.3,256.8 362.7,254.8 363.1,251.5 363.5,250.8 363.8,251.8 364.2,250.2 364.6,248.8 365.0,249.6 365.4,250.4 365.8,251.7 366.2,250.5 366.6,252.5 367.0,254.7 367.4,257.4 367.8,257.5 368.2,262.9 368.5,262.4 368.9,260.1 369.3,260.6 369.7,259.4 370.1,261.1 370.5,277.6 370.9,275.4 371.3,276.1 371.7,275.7 372.1,277.3 372.5,280.6 372.9,280.3 373.3,282.9 373.6,285.3 374.0,285.4 374.4,283.0 374.8,282.9 375.2,277.6 375.6,280.7 376.0,286.4 376.4,288.5 376.8,288.6 377.2,288.4 377.6,284.6 378.0,283.0 378.4,285.5 378.7,283.8 379.1,286.0 379.5,290.1 379.9,288.6 380.3,286.9 380.7,283.0 381.1,283.2 381.5,282.4 381.9,283.3 382.3,287.2 382.7,288.6 383.1,288.1 383.5,289.1 383.8,288.5 384.2,280.9 384.6,277.5 385.0,272.1 385.4,272.3 385.8,273.0 386.2,271.3 386.6,274.9 387.0,274.0 387.4,274.6 387.8,273.0 388.2,274.2 388.5,275.4 388.9,271.3 389.3,269.9 389.7,270.7 390.1,275.4 390.5,274.7 390.9,272.3 391.3,266.5 391.7,266.7 392.1,265.3 392.5,262.2 392.9,263.1 393.3,263.9 393.6,261.9 394.0,260.7 394.4,256.4 394.8,258.1 395.2,253.5 395.6,251.1 396.0,252.1 396.4,251.0 396.8,247.1 397.2,244.4 397.6,249.2 398.0,251.3 398.4,249.2 398.7,243.8 399.1,244.5 399.5,242.0 399.9,238.5 400.3,235.5 400.7,235.3 401.1,231.8 401.5,236.0 401.9,232.0 402.3,228.1 402.7,226.6 403.1,218.3 403.5,213.3 403.8,218.2 404.2,219.3 404.6,221.6 405.0,224.8 405.4,223.9 405.8,221.6 406.2,219.2 406.6,217.7 407.0,218.6 407.4,223.2 407.8,218.2 408.2,223.1 408.5,220.9 408.9,219.6 409.3,220.3 409.7,222.5 410.1,219.3 410.5,217.2 410.9,217.2 411.3,209.6 411.7,203.6 412.1,199.7 412.5,201.2 412.9,198.1 413.3,202.9 413.6,202.9 414.0,199.6 414.4,200.6 414.8,202.8 415.2,202.4 415.6,203.2 416.0,204.2 416.4,203.8 416.8,205.5 417.2,207.0 417.6,208.9 418.0,208.5 418.4,212.2 418.7,212.0 419.1,218.3 419.5,211.4 419.9,208.4 420.3,203.9 420.7,197.1 421.1,203.8 421.5,206.7 421.9,205.8 422.3,202.4 422.7,204.4 423.1,208.8 423.5,203.2 423.8,208.1 424.2,209.3 424.6,210.2 425.0,211.4 425.4,211.1 425.8,210.3 426.2,205.9 426.6,207.0 427.0,203.2 427.4,202.7 427.8,208.5 428.2,209.8 428.5,218.6 428.9,219.7 429.3,220.5 429.7,223.3 430.1,226.8 430.5,221.9 430.9,221.5 431.3,222.3 431.7,230.7 432.1,227.1 432.5,225.8 432.9,227.5 433.3,227.5 433.6,225.6 434.0,227.7 434.4,230.7 434.8,230.5 435.2,229.7 435.6,230.7 436.0,234.3 436.4,233.5 436.8,232.0 437.2,230.4 437.6,233.5 438.0,238.1 438.4,235.6 438.7,236.7 439.1,240.8 439.5,238.3 439.9,236.5 440.3,234.8 440.7,230.2 441.1,233.5 441.5,226.6 441.9,227.9 442.3,229.8 442.7,225.2 443.1,226.1 443.5,225.1 443.8,219.5 444.2,220.0 444.6,219.2 445.0,219.2 445.4,222.3 445.8,220.7 446.2,219.9 446.6,221.1 447.0,219.0 447.4,219.5 447.8,220.2 448.2,216.7 448.5,223.5 448.9,216.9 449.3,218.2 449.7,215.7 450.1,217.2 450.5,220.0 450.9,224.9 451.3,218.3 451.7,208.8 452.1,213.2 452.5,205.0 452.9,201.6 453.3,205.5 453.6,205.6 454.0,204.3 454.4,203.4 454.8,200.8 455.2,203.2 455.6,204.8 456.0,207.5 456.4,210.7 456.8,214.4 457.2,209.8 457.6,203.5 458.0,211.0 458.4,210.6 458.7,209.5 459.1,206.2 459.5,207.9 459.9,208.1 460.3,210.6 460.7,208.8 461.1,208.0 461.5,209.4 461.9,208.1 462.3,208.7 462.7,206.4 463.1,203.7 463.5,210.6 463.8,213.0 464.2,209.6 464.6,203.7 465.0,209.1 465.4,209.9 465.8,211.7 466.2,212.6 466.6,211.0 467.0,210.5 467.4,214.6 467.8,210.2 468.2,210.2 468.5,211.4 468.9,209.5 469.3,214.0 469.7,212.0 470.1,216.1 470.5,215.6 470.9,212.8 471.3,217.8 471.7,218.2 472.1,216.7 472.5,218.2 472.9,217.5 473.3,211.9 473.6,211.5 474.0,209.0 474.4,208.5 474.8,206.2 475.2,205.6 475.6,209.1 476.0,208.6 476.4,209.4 476.8,210.6 477.2,207.0 477.6,207.4 478.0,209.4 478.4,209.1 478.7,208.0 479.1,208.0 479.5,207.0 479.9,209.5 480.3,210.1 480.7,211.2 481.1,210.9 481.5,212.5 481.9,210.9 482.3,208.9 482.7,215.2 483.1,215.7 483.5,219.8 483.8,224.2 484.2,228.9 484.6,229.7 485.0,232.4 485.4,232.7 485.8,232.2 486.2,235.2 486.6,234.8 487.0,235.3 487.4,232.5 487.8,230.5 488.2,235.7 488.5,235.3 488.9,232.1 489.3,225.1 489.7,225.0 490.1,226.7 490.5,224.7 490.9,229.8 491.3,229.6 491.7,228.5 492.1,227.8 492.5,227.5 492.9,227.7 493.3,229.1 493.6,229.6 494.0,230.3 494.4,249.5 494.8,246.8 495.2,245.7 495.6,244.8 496.0,247.6 496.4,243.5 496.8,243.9 497.2,242.9 497.6,243.9 498.0,244.6 498.4,243.1 498.7,244.8 499.1,245.9 499.5,245.9 499.9,249.3 500.3,252.9 500.7,253.9 501.1,254.6 501.5,252.7 501.9,249.5 502.3,251.5 502.7,249.9 503.1,250.0 503.5,250.0 503.8,249.5 504.2,251.7 504.6,255.9 505.0,256.6 505.4,255.9 505.8,254.6 506.2,254.6 506.6,252.5 507.0,248.0 507.4,247.6 507.8,247.0 508.2,246.1 508.5,245.5 508.9,246.3 509.3,251.2 509.7,250.0 510.1,247.4 510.5,248.5 510.9,252.2 511.3,251.7 511.7,250.9 512.1,251.5 512.5,253.2 512.9,254.3 513.3,257.0 513.6,258.4 514.0,260.8 514.4,258.4 514.8,256.7 515.2,252.5 515.6,249.1 516.0,249.2 516.4,247.0 516.8,240.7 517.2,239.5 517.6,238.6 518.0,238.3 518.4,240.8 518.7,241.5 519.1,242.3 519.5,240.6 519.9,240.5 520.3,241.1 520.7,243.2 521.1,246.3 521.5,247.1 521.9,247.0 522.3,247.9 522.7,246.0 523.1,248.4 523.5,248.3 523.8,248.9 524.2,247.4 524.6,246.1 525.0,242.4 525.4,241.3 525.8,240.5 526.2,240.4 526.6,239.7 527.0,247.6 527.4,252.1 527.8,248.7 528.2,250.7 528.5,248.6 528.9,248.3 529.3,249.7 529.7,249.2 530.1,249.6 530.5,249.8 530.9,250.9 531.3,250.9 531.7,251.2 532.1,253.9 532.5,253.2 532.9,252.0 533.3,249.4 533.6,251.8 534.0,248.6 534.4,248.5 534.8,248.6 535.2,249.0 535.6,249.4 536.0,252.2 536.4,250.5 536.8,251.5 537.2,248.5 537.6,250.7 538.0,250.0 538.4,252.4 538.7,256.2 539.1,251.5 539.5,250.0 539.9,249.8 540.3,251.5 540.7,254.6 541.1,253.0 541.5,255.9 541.9,256.1 542.3,256.7 542.7,257.0 543.1,255.7 543.5,256.7 543.8,262.3 544.2,263.1 544.6,261.1 545.0,260.3 545.4,260.3 545.8,266.3 546.2,274.1 546.6,272.4 547.0,274.7 547.4,274.6 547.8,274.2 548.2,274.8 548.5,274.7 548.9,277.5 549.3,276.5 549.7,276.4 550.1,276.3 550.5,277.9 550.9,277.1 551.3,283.1 551.7,282.0 552.1,281.6 552.5,281.8 552.9,281.9 553.3,281.6 553.6,282.2 554.0,283.8 554.4,283.4 554.8,283.7 555.2,285.6 555.6,285.9 556.0,286.8 556.4,287.9 556.8,287.2 557.2,285.1 557.6,285.9 558.0,283.0 558.4,282.7 558.7,282.7 559.1,285.9 559.5,282.2 559.9,281.5 560.3,278.2 560.7,276.3 561.1,275.4 561.5,275.4 561.9,271.5 562.3,273.5 562.7,272.6 563.1,271.5 563.5,271.8 563.8,270.7 564.2,271.9 564.6,270.8 565.0,270.2 565.4,269.8 565.8,269.7 566.2,267.4 566.6,265.9 567.0,266.9 567.4,265.7 567.8,267.9 568.2,268.4 568.5,267.6 568.9,267.8 569.3,268.8 569.7,270.7 570.1,271.5 570.5,271.2 570.9,269.6 571.3,268.5 571.7,263.6 572.1,265.2 572.5,266.2 572.9,270.8 573.3,272.1 573.6,267.8 574.0,263.5 574.4,264.5 574.8,262.2 575.2,264.8 575.6,265.3 576.0,267.4 576.4,267.9 576.8,266.8 577.2,267.8 577.6,267.1 578.0,272.9 578.4,270.7 578.7,271.4 579.1,270.3 579.5,277.1 579.9,278.4 580.3,278.8 580.7,274.8 581.1,277.5 581.5,274.5 581.9,273.0 582.3,273.0 582.7,273.4 583.1,271.8 583.5,272.1 583.8,268.9 584.2,265.7 584.6,262.9 585.0,260.7 585.4,259.3 585.8,259.6 586.2,259.9 586.6,260.6 587.0,259.5 587.4,261.1 587.8,261.6 588.2,261.4 588.5,251.7 588.9,250.1 589.3,250.0 589.7,246.5 590.1,244.4 590.5,246.1 590.9,245.2 591.3,245.9 591.7,246.3 592.1,245.8 592.5,245.6 592.9,245.9 593.3,242.5 593.6,241.3 594.0,242.5 594.4,241.9 594.8,241.2 595.2,242.1 595.6,240.7 596.0,239.6 596.4,240.0 596.8,241.1 597.2,238.6 597.6,234.9 598.0,239.8 598.4,240.3 598.7,238.2 599.1,238.8 599.5,239.2 599.9,240.9 600.3,242.5 600.7,241.6 601.1,242.4 601.5,241.9 601.9,240.0 602.3,237.2 602.7,239.5 603.1,240.3 603.5,239.5 603.8,241.2 604.2,242.1 604.6,242.8 605.0,246.0 605.4,248.0 605.8,249.6 606.2,248.2 606.6,247.9 607.0,248.7 607.4,254.0 607.8,255.2 608.2,255.9 608.5,255.2 608.9,256.9 609.3,257.4 609.7,259.3 610.1,258.3 610.5,258.2 610.9,259.7 611.3,258.5 611.7,256.7 612.1,256.3 612.5,254.2 612.9,253.1 613.3,253.2 613.6,256.6 614.0,252.6 614.4,252.2 614.8,252.8 615.2,251.8 615.6,252.2 616.0,260.5 616.4,260.2 616.8,259.5 617.2,257.9 617.6,256.5 618.0,256.3 618.4,254.4 618.7,246.2 619.1,248.6 619.5,250.1 619.9,250.5 620.3,250.0 620.7,244.4 621.1,246.5 621.5,248.3 621.9,245.8 622.3,244.4 622.7,244.6 623.1,245.3 623.5,243.1 623.8,238.6 624.2,237.7 624.6,239.7 625.0,241.2 625.4,241.2 625.8,242.7 626.2,244.7 626.6,245.1 627.0,243.7 627.4,245.0 627.8,248.1 628.2,251.8 628.5,253.1 628.9,254.3 629.3,257.9 629.7,259.3 630.1,259.0 630.5,261.5 630.9,260.6 631.3,260.3 631.7,257.5 632.1,258.2 632.5,257.4 632.9,252.4 633.3,254.8 633.6,256.3 634.0,253.9 634.4,251.8 634.8,251.5 635.2,250.1 635.6,248.3 636.0,250.0 636.4,248.2 636.8,247.5 637.2,248.9 637.6,246.5 638.0,245.9 638.4,246.0 638.7,244.3 639.1,239.5 639.5,242.7 639.9,243.4 640.3,245.8 640.7,248.9 641.1,246.9 641.5,249.4 641.9,254.2 642.3,252.9 642.7,250.7 643.1,248.6 643.5,243.4 643.8,240.0 644.2,240.1 644.6,238.2 645.0,242.6 645.4,239.2 645.8,250.1 646.2,247.7 646.6,249.1 647.0,250.2 647.4,250.8 647.8,252.2 648.2,251.7 648.5,257.4 648.9,261.9 649.3,261.1 649.7,260.4 650.1,259.3 650.5,258.4 650.9,258.1 651.3,258.0 651.7,258.0 652.1,257.5 652.5,258.4 652.9,259.5 653.3,254.8 653.6,254.7 654.0,255.8 654.4,254.1 654.8,254.4 655.2,253.7 655.6,254.9 656.0,253.1 656.4,252.7 656.8,252.7 657.2,247.6 657.6,243.2 658.0,239.3 658.4,237.3 658.7,238.7 659.1,237.2 659.5,236.1 659.9,237.9 660.3,241.1 660.7,239.4 661.1,239.2 661.5,243.9 661.9,245.9 662.3,241.7 662.7,235.7 663.1,238.8 663.5,236.7 663.8,239.6 664.2,239.1 664.6,240.1 665.0,237.5 665.4,230.2 665.8,222.0 666.2,229.0 666.6,224.8 667.0,225.4 667.4,228.2 667.8,229.9 668.2,228.9 668.5,236.8 668.9,234.4 669.3,240.0 669.7,245.9 670.1,240.9 670.5,237.6 670.9,238.6 671.3,249.1 671.7,248.3 672.1,242.7 672.5,243.7 672.9,246.3 673.3,244.3 673.6,248.3 674.0,241.0 674.4,242.7 674.8,240.1 675.2,246.2 675.6,251.1 676.0,250.9 676.4,243.7 676.8,245.5 677.2,246.0 677.6,244.2 678.0,245.9 678.4,239.5 678.7,238.9 679.1,238.4 679.5,236.3 679.9,231.5 680.3,233.9 680.7,232.2 681.1,232.3 681.5,233.8 681.9,236.7 682.3,236.2 682.7,240.4 683.1,239.8 683.5,240.7 683.8,242.4 684.2,247.3 684.6,243.0 685.0,243.5 685.4,246.6 685.8,244.4 686.2,240.7 686.6,245.0 687.0,242.9 687.4,245.7 687.8,246.4 688.2,253.3 688.5,251.6 688.9,252.3 689.3,253.1 689.7,256.8 690.1,251.1 690.5,249.9 690.9,255.9 691.3,253.7 691.7,254.2 692.1,255.2 692.5,256.8 692.9,257.2 693.3,259.4 693.6,262.7 694.0,262.5 694.4,264.1 694.8,264.6 695.2,262.5 695.6,266.3 696.0,264.6"/>
  <text x="60" y="62" font-size="11" fill="#2563eb">Price index</text>
  <text x="146" y="62" font-size="11" fill="#16a34a">Total return (price + distributions)</text>
  <text x="56" y="348" font-size="11" text-anchor="middle" fill="#444">2019-12</text><text x="216" y="348" font-size="11" text-anchor="middle" fill="#444">2021-07</text><text x="376" y="348" font-size="11" text-anchor="middle" fill="#444">2023-03</text><text x="536" y="348" font-size="11" text-anchor="middle" fill="#444">2024-10</text><text x="696" y="348" font-size="11" text-anchor="middle" fill="#444">2026-06</text>
</svg>
