<svg xmlns="http://www.w3.org/2000/svg" width="720" height="360" viewBox="0 0 720 360">
  <rect width="720" height="360" fill="#fafafa"/>
  <text x="56" y="22" font-size="13" font-family="sans-serif" fill="#222">XP total return (rebased 100) · cumulative distributions $0.00/sh · market cap n/a</text>
  <line x1="56" y1="308" x2="696" y2="308" stroke="#ccc"/>
  <line x1="56" y1="48" x2="56" y2="308" stroke="#ccc"/>
  <polyline fill="none" stroke="#2563eb" stroke-width="2" points="56.0,158.4 56.4,157.4 56.8,140.4 57.2,151.0 57.6,159.2 58.0,138.2 58.3,140.1 58.7,127.7 59.1,132.0 59.5,129.8 59.9,135.1 60.3,136.1 60.7,137.3 61.1,135.9 61.5,135.5 61.9,137.6 62.3,148.7 62.7,146.6 63.0,144.9 63.4,139.8 63.8,141.0 64.2,141.3 64.6,143.5 65.0,141.3 65.4,140.4 65.8,134.4 66.2,124.5 66.6,114.0 67.0,122.2 67.3,135.8 67.7,140.9 68.1,133.0 68.5,125.9 68.9,133.9 69.3,126.9 69.7,125.2 70.1,133.4 70.5,128.3 70.9,137.1 71.3,142.3 71.6,142.5 72.0,133.3 72.4,122.7 72.8,120.2 73.2,125.9 73.6,122.5 74.0,113.9 74.4,111.2 74.8,114.8 75.2,130.5 75.6,141.5 76.0,148.7 76.3,152.9 76.7,157.3 77.1,143.5 77.5,149.0 77.9,134.1 78.3,151.2 78.7,177.6 79.1,201.6 79.5,183.3 79.9,220.4 80.3,251.0 80.6,225.1 81.0,246.4 81.4,238.8 81.8,251.6 82.2,233.4 82.6,249.7 83.0,255.2 83.4,240.3 83.8,221.8 84.2,211.6 84.6,225.8 84.9,235.1 85.3,242.3 85.7,249.8 86.1,253.8 86.5,251.3 86.9,236.1 87.3,229.9 87.7,229.6 88.1,224.1 88.5,231.8 88.9,223.0 89.3,219.6 89.6,208.2 90.0,200.6 90.4,200.0 90.8,212.6 91.2,205.0 91.6,206.5 92.0,222.3 92.4,217.4 92.8,211.1 93.2,210.0 93.6,209.8 93.9,221.2 94.3,222.1 94.7,224.1 95.1,222.4 95.5,213.9 95.9,210.1 96.3,208.8 96.7,211.5 97.1,194.6 97.5,204.8 97.9,202.3 98.2,196.5 98.6,202.4 99.0,196.9 99.4,191.4 99.8,189.7 100.2,177.9 100.6,180.2 101.0,180.7 101.4,181.0 101.8,180.0 102.2,170.6 102.6,157.3 102.9,157.1 103.3,146.6 103.7,122.0 104.1,123.8 104.5,115.3 104.9,133.2 105.3,121.1 105.7,118.0 106.1,106.4 106.5,93.0 106.9,83.0 107.2,87.8 107.6,92.0 108.0,75.6 108.4,101.1 108.8,93.7 109.2,106.3 109.6,108.2 110.0,116.6 110.4,109.1 110.8,101.2 111.2,85.7 111.6,90.4 111.9,85.1 112.3,88.1 112.7,88.9 113.1,96.0 113.5,102.2 113.9,100.4 114.3,113.3 114.7,113.4 115.1,102.3 115.5,100.4 115.9,96.5 116.2,103.8 116.6,102.1 117.0,87.7 117.4,87.4 117.8,80.9 118.2,86.6 118.6,91.8 119.0,88.4 119.4,84.3 119.8,83.8 120.2,72.4 120.5,82.7 120.9,83.6 121.3,87.1 121.7,91.6 122.1,99.2 122.5,104.8 122.9,105.5 123.3,102.4 123.7,101.9 124.1,99.3 124.5,108.2 124.9,93.8 125.2,88.1 125.6,84.7 126.0,74.6 126.4,73.8 126.8,75.8 127.2,66.7 127.6,75.2 128.0,84.1 128.4,90.0 128.8,96.2 129.2,86.9 129.5,97.7 129.9,103.2 130.3,105.1 130.7,105.6 131.1,105.6 131.5,109.1 131.9,110.8 132.3,116.2 132.7,109.0 133.1,119.1 133.5,113.6 133.8,110.7 134.2,119.4 134.6,120.0 135.0,118.4 135.4,117.2 135.8,122.7 136.2,116.2 136.6,110.7 137.0,118.0 137.4,111.2 137.8,113.5 138.2,113.7 138.5,121.3 138.9,111.1 139.3,115.6 139.7,115.4 140.1,116.0 140.5,102.9 140.9,97.3 141.3,107.4 141.7,108.6 142.1,112.3 142.5,110.5 142.8,124.2 143.2,125.5 143.6,127.3 144.0,121.5 144.4,114.8 144.8,125.6 145.2,111.4 145.6,115.9 146.0,110.8 146.4,131.5 146.8,130.4 147.1,136.1 147.5,135.6 147.9,129.2 148.3,125.5 148.7,130.8 149.1,124.4 149.5,127.7 149.9,123.5 150.3,116.7 150.7,116.8 151.1,118.5 151.5,122.1 151.8,125.2 152.2,125.5 152.6,136.0 153.0,136.2 153.4,135.8 153.8,133.5 154.2,139.2 154.6,143.9 155.0,151.1 155.4,145.9 155.8,136.7 156.1,127.3 156.5,121.5 156.9,125.6 157.3,123.7 157.7,126.0 158.1,122.2 158.5,120.3 158.9,126.7 159.3,127.7 159.7,125.1 160.1,129.5 160.4,132.1 160.8,133.6 161.2,141.1 161.6,137.3 162.0,125.2 162.4,132.7 162.8,125.0 163.2,129.2 163.6,124.7 164.0,128.9 164.4,109.4 164.8,113.4 165.1,112.1 165.5,116.0 165.9,110.2 166.3,97.1 166.7,102.7 167.1,100.8 167.5,107.6 167.9,88.2 168.3,78.8 168.7,83.4 169.1,81.9 169.4,80.4 169.8,79.4 170.2,84.0 170.6,86.7 171.0,80.6 171.4,81.1 171.8,72.8 172.2,71.0 172.6,79.5 173.0,72.7 173.4,94.2 173.8,90.9 174.1,85.0 174.5,99.1 174.9,104.8 175.3,104.9 175.7,109.1 176.1,120.3 176.5,125.5 176.9,123.3 177.3,141.3 177.7,139.2 178.1,137.1 178.4,122.5 178.8,124.0 179.2,122.6 179.6,123.9 180.0,123.2 180.4,138.8 180.8,129.7 181.2,129.0 181.6,135.6 182.0,146.8 182.4,140.6 182.7,140.9 183.1,144.5 183.5,145.9 183.9,140.6 184.3,129.4 184.7,133.2 185.1,133.9 185.5,136.1 185.9,133.1 186.3,133.2 186.7,137.4 187.1,135.1 187.4,132.1 187.8,133.1 188.2,134.0 188.6,136.5 189.0,136.6 189.4,130.3 189.8,130.3 190.2,127.6 190.6,131.0 191.0,137.1 191.4,130.4 191.7,130.5 192.1,129.9 192.5,132.6 192.9,136.4 193.3,112.4 193.7,114.1 194.1,101.3 194.5,113.2 194.9,105.9 195.3,119.8 195.7,121.7 196.0,111.7 196.4,111.7 196.8,115.9 197.2,116.7 197.6,118.4 198.0,125.0 198.4,128.5 198.8,134.6 199.2,128.7 199.6,134.8 200.0,129.6 200.4,130.5 200.7,127.7 201.1,130.3 201.5,125.2 201.9,119.9 202.3,119.2 202.7,115.0 203.1,108.2 203.5,104.6 203.9,103.4 204.3,103.7 204.7,102.0 205.0,94.8 205.4,94.5 205.8,96.2 206.2,96.4 206.6,93.4 207.0,95.7 207.4,100.6 207.8,100.2 208.2,102.3 208.6,108.1 209.0,114.4 209.3,114.2 209.7,121.5 210.1,120.4 210.5,128.2 210.9,125.8 211.3,124.7 211.7,120.4 212.1,123.2 212.5,123.8 212.9,118.0 213.3,131.6 213.7,125.5 214.0,121.9 214.4,125.1 214.8,122.4 215.2,116.0 215.6,124.6 216.0,121.0 216.4,117.0 216.8,121.9 217.2,118.4 217.6,115.0 218.0,96.9 218.3,90.2 218.7,83.4 219.1,75.1 219.5,77.9 219.9,82.0 220.3,83.5 220.7,86.7 221.1,93.5 221.5,99.9 221.9,102.4 222.3,99.0 222.7,99.5 223.0,97.7 223.4,87.9 223.8,83.1 224.2,86.5 224.6,79.8 225.0,78.5 225.4,79.9 225.8,72.3 226.2,65.9 226.6,72.4 227.0,68.3 227.3,83.9 227.7,78.9 228.1,85.5 228.5,86.8 228.9,89.8 229.3,91.8 229.7,93.6 230.1,99.6 230.5,108.1 230.9,97.2 231.3,92.5 231.6,97.4 232.0,104.2 232.4,108.5 232.8,118.6 233.2,121.7 233.6,126.8 234.0,116.4 234.4,125.2 234.8,126.6 235.2,130.0 235.6,118.1 236.0,126.8 236.3,144.1 236.7,153.9 237.1,155.4 237.5,160.4 237.9,145.9 238.3,145.0 238.7,151.7 239.1,150.2 239.5,160.7 239.9,162.9 240.3,155.4 240.6,162.1 241.0,162.7 241.4,162.2 241.8,167.5 242.2,160.4 242.6,167.3 243.0,164.6 243.4,170.1 243.8,155.5 244.2,160.5 244.6,161.4 244.9,166.7 245.3,161.0 245.7,162.2 246.1,161.8 246.5,170.0 246.9,181.0 247.3,187.7 247.7,184.4 248.1,190.2 248.5,182.6 248.9,181.0 249.3,185.5 249.6,183.9 250.0,190.3 250.4,187.8 250.8,187.8 251.2,188.6 251.6,185.1 252.0,183.0 252.4,182.3 252.8,183.5 253.2,182.4 253.6,176.6 253.9,187.6 254.3,181.9 254.7,188.1 255.1,187.0 255.5,189.1 255.9,185.9 256.3,185.7 256.7,183.9 257.1,180.9 257.5,190.8 257.9,194.8 258.2,190.9 258.6,190.0 259.0,188.6 259.4,193.4 259.8,201.1 260.2,199.1 260.6,195.5 261.0,195.6 261.4,182.3 261.8,179.7 262.2,186.9 262.6,190.0 262.9,198.0 263.3,188.2 263.7,180.7 264.1,184.7 264.5,183.5 264.9,178.6 265.3,174.4 265.7,176.0 266.1,176.1 266.5,164.7 266.9,162.1 267.2,169.9 267.6,174.2 268.0,171.5 268.4,172.1 268.8,171.0 269.2,159.5 269.6,166.3 270.0,163.1 270.4,164.2 270.8,153.5 271.2,151.2 271.6,157.7 271.9,160.0 272.3,161.8 272.7,163.9 273.1,167.5 273.5,170.0 273.9,170.1 274.3,174.0 274.7,173.3 275.1,176.9 275.5,187.4 275.9,202.3 276.2,194.0 276.6,175.2 277.0,177.6 277.4,185.4 277.8,192.3 278.2,187.8 278.6,175.0 279.0,175.5 279.4,169.7 279.8,170.1 280.2,165.7 280.5,175.7 280.9,170.3 281.3,171.3 281.7,171.6 282.1,163.7 282.5,176.5 282.9,182.5 283.3,177.7 283.7,173.4 284.1,175.8 284.5,180.3 284.9,179.1 285.2,183.8 285.6,185.2 286.0,189.3 286.4,188.0 286.8,193.0 287.2,197.0 287.6,193.3 288.0,193.3 288.4,201.6 288.8,207.5 289.2,205.2 289.5,212.1 289.9,216.5 290.3,210.7 290.7,212.8 291.1,215.3 291.5,218.5 291.9,228.2 292.3,230.4 292.7,237.6 293.1,244.3 293.5,245.8 293.8,248.9 294.2,240.7 294.6,237.0 295.0,243.4 295.4,238.3 295.8,242.6 296.2,233.6 296.6,230.8 297.0,228.9 297.4,234.4 297.8,231.5 298.2,223.9 298.5,219.3 298.9,223.9 299.3,228.5 299.7,220.4 300.1,223.3 300.5,222.7 300.9,217.9 301.3,223.2 301.7,226.5 302.1,235.9 302.5,243.9 302.8,244.7 303.2,240.9 303.6,245.7 304.0,245.1 304.4,243.9 304.8,243.3 305.2,241.2 305.6,239.8 306.0,239.2 306.4,245.7 306.8,247.8 307.1,249.6 307.5,250.1 307.9,245.8 308.3,249.1 308.7,246.8 309.1,246.7 309.5,253.1 309.9,250.2 310.3,250.0 310.7,254.9 311.1,252.0 311.5,251.8 311.8,248.1 312.2,246.8 312.6,243.1 313.0,245.7 313.4,244.5 313.8,246.4 314.2,238.0 314.6,235.4 315.0,232.3 315.4,227.3 315.8,227.7 316.1,221.5 316.5,219.4 316.9,217.5 317.3,212.6 317.7,218.1 318.1,235.4 318.5,245.2 318.9,240.1 319.3,228.1 319.7,232.6 320.1,231.5 320.4,231.0 320.8,236.2 321.2,241.2 321.6,229.4 322.0,224.9 322.4,226.6 322.8,231.0 323.2,234.0 323.6,239.7 324.0,242.6 324.4,241.9 324.8,241.8 325.1,244.4 325.5,241.7 325.9,241.8 326.3,237.1 326.7,232.2 327.1,239.2 327.5,239.5 327.9,240.8 328.3,243.9 328.7,240.5 329.1,240.0 329.4,239.7 329.8,240.0 330.2,243.2 330.6,250.5 331.0,247.4 331.4,246.5 331.8,247.5 332.2,243.8 332.6,234.3 333.0,233.6 333.4,232.8 333.8,229.9 334.1,232.2 334.5,231.7 334.9,242.6 335.3,243.2 335.7,245.3 336.1,251.7 336.5,250.8 336.9,252.5 337.3,253.6 337.7,255.7 338.1,249.1 338.4,250.2 338.8,250.7 339.2,254.9 339.6,255.5 340.0,252.2 340.4,247.6 340.8,241.3 341.2,242.5 341.6,241.7 342.0,243.9 342.4,246.8 342.7,247.5 343.1,240.0 343.5,243.1 343.9,242.6 344.3,243.3 344.7,241.2 345.1,247.9 345.5,251.6 345.9,252.8 346.3,253.5 346.7,257.4 347.1,258.0 347.4,257.7 347.8,260.5 348.2,257.8 348.6,252.1 349.0,252.1 349.4,247.4 349.8,252.5 350.2,255.3 350.6,257.3 351.0,261.0 351.4,261.0 351.7,262.7 352.1,265.3 352.5,267.7 352.9,270.5 353.3,271.6 353.7,270.5 354.1,265.6 354.5,263.8 354.9,266.2 355.3,263.1 355.7,268.5 356.0,266.6 356.4,264.6 356.8,264.1 357.2,272.5 357.6,270.3 358.0,271.7 358.4,267.3 358.8,265.6 359.2,262.9 359.6,260.3 360.0,255.7 360.4,256.9 360.7,259.5 361.1,258.8 361.5,256.8 361.9,254.8 362.3,251.5 362.7,250.8 363.1,251.8 363.5,250.2 363.9,248.8 364.3,249.6 364.7,250.4 365.0,251.7 365.4,250.5 365.8,252.5 366.2,254.7 366.6,257.4 367.0,257.5 367.4,262.9 367.8,262.4 368.2,260.1 368.6,260.6 369.0,259.4 369.3,261.1 369.7,277.6 370.1,275.4 370.5,276.1 370.9,275.7 371.3,277.3 371.7,280.6 372.1,280.3 372.5,282.9 372.9,285.3 373.3,285.4 373.7,283.0 374.0,282.9 374.4,277.6 374.8,280.7 375.2,286.4 375.6,288.5 376.0,288.6 376.4,288.4 376.8,284.6 377.2,283.0 377.6,285.5 378.0,283.8 378.3,286.0 378.7,290.1 379.1,288.6 379.5,286.9 379.9,283.0 380.3,283.2 380.7,282.4 381.1,283.3 381.5,287.2 381.9,288.6 382.3,288.1 382.7,289.1 383.0,288.5 383.4,280.9 383.8,277.5 384.2,272.1 384.6,272.3 385.0,273.0 385.4,271.3 385.8,274.9 386.2,274.0 386.6,274.6 387.0,273.0 387.3,274.2 387.7,275.4 388.1,271.3 388.5,269.9 388.9,270.7 389.3,275.4 389.7,274.7 390.1,272.3 390.5,266.5 390.9,266.7 391.3,265.3 391.6,262.2 392.0,263.1 392.4,263.9 392.8,261.9 393.2,260.7 393.6,256.4 394.0,258.1 394.4,253.5 394.8,251.1 395.2,252.1 395.6,251.0 396.0,247.1 396.3,244.4 396.7,249.2 397.1,251.3 397.5,249.2 397.9,243.8 398.3,244.5 398.7,242.0 399.1,238.5 399.5,235.5 399.9,235.3 400.3,231.8 400.6,236.0 401.0,232.0 401.4,228.1 401.8,226.6 402.2,218.3 402.6,213.3 403.0,218.2 403.4,219.3 403.8,221.6 404.2,224.8 404.6,223.9 404.9,221.6 405.3,219.2 405.7,217.7 406.1,218.6 406.5,223.2 406.9,218.2 407.3,223.1 407.7,220.9 408.1,219.6 408.5,220.3 408.9,222.5 409.3,219.3 409.6,217.2 410.0,217.2 410.4,209.6 410.8,203.6 411.2,199.7 411.6,201.2 412.0,198.1 412.4,202.9 412.8,202.9 413.2,199.6 413.6,200.6 413.9,202.8 414.3,202.4 414.7,203.2 415.1,204.2 415.5,203.8 415.9,205.5 416.3,207.0 416.7,208.9 417.1,208.5 417.5,212.2 417.9,212.0 418.2,218.3 418.6,211.4 419.0,208.4 419.4,203.9 419.8,197.1 420.2,203.8 420.6,206.7 421.0,205.8 421.4,202.4 421.8,204.4 422.2,208.8 422.6,203.2 422.9,208.1 423.3,209.3 423.7,210.2 424.1,211.4 424.5,211.1 424.9,210.3 425.3,205.9 425.7,207.0 426.1,203.2 426.5,202.7 426.9,208.5 427.2,209.8 427.6,218.6 428.0,219.7 428.4,220.5 428.8,223.3 429.2,226.8 429.6,221.9 430.0,221.5 430.4,222.3 430.8,230.7 431.2,227.1 431.6,225.8 431.9,227.5 432.3,227.5 432.7,225.6 433.1,227.7 433.5,230.7 433.9,230.5 434.3,229.7 434.7,230.7 435.1,234.3 435.5,233.5 435.9,232.0 436.2,230.4 436.6,233.5 437.0,238.1 437.4,235.6 437.8,236.7 438.2,240.8 438.6,238.3 439.0,236.5 439.4,234.8 439.8,230.2 440.2,233.5 440.5,226.6 440.9,227.9 441.3,229.8 441.7,225.2 442.1,226.1 442.5,225.1 442.9,219.5 443.3,220.0 443.7,219.2 444.1,219.2 444.5,222.3 444.9,220.7 445.2,219.9 445.6,221.1 446.0,219.0 446.4,219.5 446.8,220.2 447.2,216.7 447.6,223.5 448.0,216.9 448.4,218.2 448.8,215.7 449.2,217.2 449.5,220.0 449.9,224.9 450.3,218.3 450.7,208.8 451.1,213.2 451.5,205.0 451.9,201.6 452.3,205.5 452.7,205.6 453.1,204.3 453.5,203.4 453.8,200.8 454.2,203.2 454.6,204.8 455.0,207.5 455.4,210.7 455.8,214.4 456.2,209.8 456.6,203.5 457.0,211.0 457.4,210.6 457.8,209.5 458.2,206.2 458.5,207.9 458.9,208.1 459.3,210.6 459.7,208.8 460.1,208.0 460.5,209.4 460.9,208.1 461.3,208.7 461.7,206.4 462.1,203.7 462.5,210.6 462.8,213.0 463.2,209.6 463.6,203.7 464.0,209.1 464.4,209.9 464.8,211.7 465.2,212.6 465.6,211.0 466.0,210.5 466.4,214.6 466.8,210.2 467.1,210.2 467.5,211.4 467.9,209.5 468.3,214.0 468.7,212.0 469.1,216.1 469.5,215.6 469.9,212.8 470.3,217.8 470.7,218.2 471.1,216.7 471.5,218.2 471.8,217.5 472.2,211.9 472.6,211.5 473.0,209.0 473.4,208.5 473.8,206.2 474.2,205.6 474.6,209.1 475.0,208.6 475.4,209.4 475.8,210.6 476.1,207.0 476.5,207.4 476.9,209.4 477.3,209.1 477.7,208.0 478.1,208.0 478.5,207.0 478.9,209.5 479.3,210.1 479.7,211.2 480.1,210.9 480.4,212.5 480.8,210.9 481.2,208.9 481.6,215.2 482.0,215.7 482.4,219.8 482.8,224.2 483.2,228.9 483.6,229.7 484.0,232.4 484.4,232.7 484.8,232.2 485.1,235.2 485.5,234.8 485.9,235.3 486.3,232.5 486.7,230.5 487.1,235.7 487.5,235.3 487.9,232.1 488.3,225.1 488.7,225.0 489.1,226.7 489.4,224.7 489.8,229.8 490.2,229.6 490.6,228.5 491.0,227.8 491.4,227.5 491.8,227.7 492.2,229.1 492.6,229.6 493.0,230.3 493.4,249.5 493.8,246.8 494.1,245.7 494.5,244.8 494.9,247.6 495.3,243.5 495.7,243.9 496.1,242.9 496.5,243.9 496.9,244.6 497.3,243.1 497.7,244.8 498.1,245.9 498.4,245.9 498.8,249.3 499.2,252.9 499.6,253.9 500.0,254.6 500.4,252.7 500.8,249.5 501.2,251.5 501.6,249.9 502.0,250.0 502.4,250.0 502.7,249.5 503.1,251.7 503.5,255.9 503.9,256.6 504.3,255.9 504.7,254.6 505.1,254.6 505.5,252.5 505.9,248.0 506.3,247.6 506.7,247.0 507.1,246.1 507.4,245.5 507.8,246.3 508.2,251.2 508.6,250.0 509.0,247.4 509.4,248.5 509.8,252.2 510.2,251.7 510.6,250.9 511.0,251.5 511.4,253.2 511.7,254.3 512.1,257.0 512.5,258.4 512.9,260.8 513.3,258.4 513.7,256.7 514.1,252.5 514.5,249.1 514.9,249.2 515.3,247.0 515.7,240.7 516.0,239.5 516.4,238.6 516.8,238.3 517.2,240.8 517.6,241.5 518.0,242.3 518.4,240.6 518.8,240.5 519.2,241.1 519.6,243.2 520.0,246.3 520.4,247.1 520.7,247.0 521.1,247.9 521.5,246.0 521.9,248.4 522.3,248.3 522.7,248.9 523.1,247.4 523.5,246.1 523.9,242.4 524.3,241.3 524.7,240.5 525.0,240.4 525.4,239.7 525.8,247.6 526.2,252.1 526.6,248.7 527.0,250.7 527.4,248.6 527.8,248.3 528.2,249.7 528.6,249.2 529.0,249.6 529.3,249.8 529.7,250.9 530.1,250.9 530.5,251.2 530.9,253.9 531.3,253.2 531.7,252.0 532.1,249.4 532.5,251.8 532.9,248.6 533.3,248.5 533.7,248.6 534.0,249.0 534.4,249.4 534.8,252.2 535.2,250.5 535.6,251.5 536.0,248.5 536.4,250.7 536.8,250.0 537.2,252.4 537.6,256.2 538.0,251.5 538.3,250.0 538.7,249.8 539.1,251.5 539.5,254.6 539.9,253.0 540.3,255.9 540.7,256.1 541.1,256.7 541.5,257.0 541.9,255.7 542.3,256.7 542.7,262.3 543.0,263.1 543.4,261.1 543.8,260.3 544.2,260.3 544.6,266.3 545.0,274.1 545.4,272.4 545.8,274.7 546.2,274.6 546.6,274.2 547.0,274.8 547.3,274.7 547.7,277.5 548.1,276.5 548.5,276.4 548.9,276.3 549.3,277.9 549.7,277.1 550.1,283.1 550.5,282.0 550.9,281.6 551.3,281.8 551.6,281.9 552.0,281.6 552.4,282.2 552.8,283.8 553.2,283.4 553.6,283.7 554.0,285.6 554.4,285.9 554.8,286.8 555.2,287.9 555.6,287.2 556.0,285.1 556.3,285.9 556.7,283.0 557.1,282.7 557.5,282.7 557.9,285.9 558.3,282.2 558.7,281.5 559.1,278.2 559.5,276.3 559.9,275.4 560.3,275.4 560.6,271.5 561.0,273.5 561.4,272.6 561.8,271.5 562.2,271.8 562.6,270.7 563.0,271.9 563.4,270.8 563.8,270.2 564.2,269.8 564.6,269.7 564.9,267.4 565.3,265.9 565.7,266.9 566.1,265.7 566.5,267.9 566.9,268.4 567.3,267.6 567.7,267.8 568.1,268.8 568.5,270.7 568.9,271.5 569.3,271.2 569.6,269.6 570.0,268.5 570.4,263.6 570.8,265.2 571.2,266.2 571.6,270.8 572.0,272.1 572.4,267.8 572.8,263.5 573.2,264.5 573.6,262.2 573.9,264.8 574.3,265.3 574.7,267.4 575.1,267.9 575.5,266.8 575.9,267.8 576.3,267.1 576.7,272.9 577.1,270.7 577.5,271.4 577.9,270.3 578.2,277.1 578.6,278.4 579.0,278.8 579.4,274.8 579.8,277.5 580.2,274.5 580.6,273.0 581.0,273.0 581.4,273.4 581.8,271.8 582.2,272.1 582.6,268.9 582.9,265.7 583.3,262.9 583.7,260.7 584.1,259.3 584.5,259.6 584.9,259.9 585.3,260.6 585.7,259.5 586.1,261.1 586.5,261.6 586.9,261.4 587.2,251.7 587.6,250.1 588.0,250.0 588.4,246.5 588.8,244.4 589.2,246.1 589.6,245.2 590.0,245.9 590.4,246.3 590.8,245.8 591.2,245.6 591.6,245.9 591.9,242.5 592.3,241.3 592.7,242.5 593.1,241.9 593.5,241.2 593.9,242.1 594.3,240.7 594.7,239.6 595.1,240.0 595.5,241.1 595.9,238.6 596.2,234.9 596.6,239.8 597.0,240.3 597.4,238.2 597.8,238.8 598.2,239.2 598.6,240.9 599.0,242.5 599.4,241.6 599.8,242.4 600.2,241.9 600.5,240.0 600.9,237.2 601.3,239.5 601.7,240.3 602.1,239.5 602.5,241.2 602.9,242.1 603.3,242.8 603.7,246.0 604.1,248.0 604.5,249.6 604.9,248.2 605.2,247.9 605.6,248.7 606.0,254.0 606.4,255.2 606.8,255.9 607.2,255.2 607.6,256.9 608.0,257.4 608.4,259.3 608.8,258.3 609.2,258.2 609.5,259.7 609.9,258.5 610.3,256.7 610.7,256.3 611.1,254.2 611.5,253.1 611.9,253.2 612.3,256.6 612.7,252.6 613.1,252.2 613.5,252.8 613.8,251.8 614.2,252.2 614.6,260.5 615.0,260.2 615.4,259.5 615.8,257.9 616.2,256.5 616.6,256.3 617.0,254.4 617.4,246.2 617.8,248.6 618.2,250.1 618.5,250.5 618.9,250.0 619.3,244.4 619.7,246.5 620.1,248.3 620.5,245.8 620.9,244.4 621.3,244.6 621.7,245.3 622.1,243.1 622.5,238.6 622.8,237.7 623.2,239.7 623.6,241.2 624.0,241.2 624.4,242.7 624.8,244.7 625.2,245.1 625.6,243.7 626.0,245.0 626.4,248.1 626.8,251.8 627.1,253.1 627.5,254.3 627.9,257.9 628.3,259.3 628.7,259.0 629.1,261.5 629.5,260.6 629.9,260.3 630.3,257.5 630.7,258.2 631.1,257.4 631.5,252.4 631.8,254.8 632.2,256.3 632.6,253.9 633.0,251.8 633.4,251.5 633.8,250.1 634.2,248.3 634.6,250.0 635.0,248.2 635.4,247.5 635.8,248.9 636.1,246.5 636.5,245.9 636.9,246.0 637.3,244.3 637.7,239.5 638.1,242.7 638.5,243.4 638.9,245.8 639.3,248.9 639.7,246.9 640.1,249.4 640.4,254.2 640.8,252.9 641.2,250.7 641.6,248.6 642.0,243.4 642.4,240.0 642.8,240.1 643.2,238.2 643.6,242.6 644.0,239.2 644.4,250.1 644.8,247.7 645.1,249.1 645.5,250.2 645.9,250.8 646.3,252.2 646.7,251.7 647.1,257.4 647.5,261.9 647.9,261.1 648.3,260.4 648.7,259.3 649.1,258.4 649.4,258.1 649.8,258.0 650.2,258.0 650.6,257.5 651.0,258.4 651.4,259.5 651.8,254.8 652.2,254.7 652.6,255.8 653.0,254.1 653.4,254.4 653.8,253.7 654.1,254.9 654.5,253.1 654.9,252.7 655.3,252.7 655.7,247.6 656.1,243.2 656.5,239.3 656.9,237.3 657.3,238.7 657.7,237.2 658.1,236.1 658.4,237.9 658.8,241.1 659.2,239.4 659.6,239.2 660.0,243.9 660.4,245.9 660.8,241.7 661.2,235.7 661.6,238.8 662.0,236.7 662.4,239.6 662.7,239.1 663.1,240.1 663.5,237.5 663.9,230.2 664.3,222.0 664.7,229.0 665.1,224.8 665.5,225.4 665.9,228.2 666.3,229.9 666.7,228.9 667.1,236.8 667.4,234.4 667.8,240.0 668.2,245.9 668.6,240.9 669.0,237.6 669.4,238.6 669.8,249.1 670.2,248.3 670.6,242.7 671.0,243.7 671.4,246.3 671.7,244.3 672.1,248.3 672.5,241.0 672.9,242.7 673.3,240.1 673.7,246.2 674.1,251.1 674.5,250.9 674.9,243.7 675.3,245.5 675.7,246.0 676.0,244.2 676.4,245.9 676.8,239.5 677.2,238.9 677.6,238.4 678.0,236.3 678.4,231.5 678.8,233.9 679.2,232.2 679.6,232.3 680.0,233.8 680.4,236.7 680.7,236.2 681.1,240.4 681.5,239.8 681.9,240.7 682.3,242.4 682.7,247.3 683.1,243.0 683.5,243.5 683.9,246.6 684.3,244.4 684.7,240.7 685.0,245.0 685.4,242.9 685.8,245.7 686.2,246.4 686.6,253.3 687.0,251.6 687.4,252.3 687.8,253.1 688.2,256.8 688.6,251.1 689.0,249.9 689.3,255.9 689.7,253.7 690.1,254.2 690.5,255.2 690.9,256.8 691.3,257.2 691.7,259.4 692.1,262.7 692.5,262.5 692.9,264.1 693.3,264.6 693.7,262.5 694.0,266.3 694.4,262.4 694.8,260.4 695.2,261.5 695.6,262.2 696.0,260.1"/>
  <polyline fill="none" stroke="#16a34a" stroke-width="2" points="56.0,158.4 56.4,157.4 56.8,140.4 57.2,151.0 57.6,159.2 58.0,138.2 58.3,140.1 58.7,127.7 59.1,132.0 59.5,129.8 59.9,135.1 60.3,136.1 60.7,137.3 61.1,135.9 61.5,135.5 61.9,137.6 62.3,148.7 62.7,146.6 63.0,144.9 63.4,139.8 63.8,141.0 64.2,141.3 64.6,143.5 65.0,141.3 65.4,140.4 65.8,134.4 66.2,124.5 66.6,114.0 67.0,122.2 67.3,135.8 67.7,140.9 68.1,133.0 68.5,125.9 68.9,133.9 69.3,126.9 69.7,125.2 70.1,133.4 70.5,128.3 70.9,137.1 71.3,142.3 71.6,142.5 72.0,133.3 72.4,122.7 72.8,120.2 73.2,125.9 73.6,122.5 74.0,113.9 74.4,111.2 74.8,114.8 75.2,130.5 75.6,141.5 76.0,148.7 76.3,152.9 76.7,157.3 77.1,143.5 77.5,149.0 77.9,134.1 78.3,151.2 78.7,177.6 79.1,201.6 79.5,183.3 79.9,220.4 80.3,251.0 80.6,225.1 81.0,246.4 81.4,238.8 81.8,251.6 82.2,233.4 82.6,249.7 83.0,255.2 83.4,240.3 83.8,221.8 84.2,211.6 84.6,225.8 84.9,235.1 85.3,242.3 85.7,249.8 86.1,253.8 86.5,251.3 86.9,236.1 87.3,229.9 87.7,229.6 88.1,224.1 88.5,231.8 88.9,223.0 89.3,219.6 89.6,208.2 90.0,200.6 90.4,200.0 90.8,212.6 91.2,205.0 91.6,206.5 92.0,222.3 92.4,217.4 92.8,211.1 93.2,210.0 93.6,209.8 93.9,221.2 94.3,222.1 94.7,224.1 95.1,222.4 95.5,213.9 95.9,210.1 96.3,208.8 96.7,211.5 97.1,194.6 97.5,204.8 97.9,202.3 98.2,196.5 98.6,202.4 99.0,196.9 99.4,191.4 99.8,189.7 100.2,177.9 100.6,180.2 101.0,180.7 101.4,181.0 101.8,180.0 102.2,170.6 102.6,157.3 102.9,157.1 103.3,146.6 103.7,122.0 104.1,123.8 104.5,115.3 104.9,133.2 105.3,121.1 105.7,118.0 106.1,106.4 106.5,93.0 106.9,83.0 107.2,87.8 107.6,92.0 108.0,75.6 108.4,101.1 108.8,93.7 109.2,106.3 109.6,108.2 110.0,116.6 110.4,109.1 110.8,101.2 111.2,85.7 111.6,90.4 111.9,85.1 112.3,88.1 112.7,88.9 113.1,96.0 113.5,102.2 113.9,100.4 114.3,113.3 114.7,113.4 115.1,102.3 115.5,100.4 115.9,96.5 116.2,103.8 116.6,102.1 117.0,87.7 117.4,87.4 117.8,80.9 118.2,86.6 118.6,91.8 119.0,88.4 119.4,84.3 119.8,83.8 120.2,72.4 120.5,82.7 120.9,83.6 121.3,87.1 121.7,91.6 122.1,99.2 122.5,104.8 122.9,105.5 123.3,102.4 123.7,101.9 124.1,99.3 124.5,108.2 124.9,93.8 125.2,88.1 125.6,84.7 126.0,74.6 126.4,73.8 126.8,75.8 127.2,66.7 127.6,75.2 128.0,84.1 128.4,90.0 128.8,96.2 129.2,86.9 129.5,97.7 129.9,103.2 130.3,105.1 130.7,105.6 131.1,105.6 131.5,109.1 131.9,110.8 132.3,116.2 132.7,109.0 133.1,119.1 133.5,113.6 133.8,110.7 134.2,119.4 134.6,120.0 135.0,118.4 135.4,117.2 135.8,122.7 136.2,116.2 136.6,110.7 137.0,118.0 137.4,111.2 137.8,113.5 138.2,113.7 138.5,121.3 138.9,111.1 139.3,115.6 139.7,115.4 140.1,116.0 140.5,102.9 140.9,97.3 141.3,107.4 141.7,108.6 142.1,112.3 142.5,110.5 142.8,124.2 143.2,125.5 143.6,127.3 144.0,121.5 144.4,114.8 144.8,125.6 145.2,111.4 145.6,115.9 146.0,110.8 146.4,131.5 146.8,130.4 147.1,136.1 147.5,135.6 147.9,129.2 148.3,125.5 148.7,130.8 149.1,124.4 149.5,127.7 149.9,123.5 150.3,116.7 150.7,116.8 151.1,118.5 151.5,122.1 151.8,125.2 152.2,125.5 152.6,136.0 153.0,136.2 153.4,135.8 153.8,133.5 154.2,139.2 154.6,143.9 155.0,151.1 155.4,145.9 155.8,136.7 156.1,127.3 156.5,121.5 156.9,125.6 157.3,123.7 157.7,126.0 158.1,122.2 158.5,120.3 158.9,126.7 159.3,127.7 159.7,125.1 160.1,129.5 160.4,132.1 160.8,133.6 161.2,141.1 161.6,137.3 162.0,125.2 162.4,132.7 162.8,125.0 163.2,129.2 163.6,124.7 164.0,128.9 164.4,109.4 164.8,113.4 165.1,112.1 165.5,116.0 165.9,110.2 166.3,97.1 166.7,102.7 167.1,100.8 167.5,107.6 167.9,88.2 168.3,78.8 168.7,83.4 169.1,81.9 169.4,80.4 169.8,79.4 170.2,84.0 170.6,86.7 171.0,80.6 171.4,81.1 171.8,72.8 172.2,71.0 172.6,79.5 173.0,72.7 173.4,94.2 173.8,90.9 174.1,85.0 174.5,99.1 174.9,104.8 175.3,104.9 175.7,109.1 176.1,120.3 176.5,125.5 176.9,123.3 177.3,141.3 177.7,139.2 178.1,137.1 178.4,122.5 178.8,124.0 179.2,122.6 179.6,123.9 180.0,123.2 180.4,138.8 180.8,129.7 181.2,129.0 181.6,135.6 182.0,146.8 182.4,140.6 182.7,140.9 183.1,144.5 183.5,145.9 183.9,140.6 184.3,129.4 184.7,133.2 185.1,133.9 185.5,136.1 185.9,133.1 186.3,133.2 186.7,137.4 187.1,135.1 187.4,132.1 187.8,133.1 188.2,134.0 188.6,136.5 189.0,136.6 189.4,130.3 189.8,130.3 190.2,127.6 190.6,131.0 191.0,137.1 191.4,130.4 191.7,130.5 192.1,129.9 192.5,132.6 192.9,136.4 193.3,112.4 193.7,114.1 194.1,101.3 194.5,113.2 194.9,105.9 195.3,119.8 195.7,121.7 196.0,111.7 196.4,111.7 196.8,115.9 197.2,116.7 197.6,118.4 198.0,125.0 198.4,128.5 198.8,134.6 199.2,128.7 199.6,134.8 200.0,129.6 200.4,130.5 200.7,127.7 201.1,130.3 201.5,125.2 201.9,119.9 202.3,119.2 202.7,115.0 203.1,108.2 203.5,104.6 203.9,103.4 204.3,103.7 204.7,102.0 205.0,94.8 205.4,94.5 205.8,96.2 206.2,96.4 206.6,93.4 207.0,95.7 207.4,100.6 207.8,100.2 208.2,102.3 208.6,108.1 209.0,114.4 209.3,114.2 209.7,121.5 210.1,120.4 210.5,128.2 210.9,125.8 211.3,124.7 211.7,120.4 212.1,123.2 212.5,123.8 212.9,118.0 213.3,131.6 213.7,125.5 214.0,121.9 214.4,125.1 214.8,122.4 215.2,116.0 215.6,124.6 216.0,121.0 216.4,117.0 216.8,121.9 217.2,118.4 217.6,115.0 218.0,96.9 218.3,90.2 218.7,83.4 219.1,75.1 219.5,77.9 219.9,82.0 220.3,83.5 220.7,86.7 221.1,93.5 221.5,99.9 221.9,102.4 222.3,99.0 222.7,99.5 223.0,97.7 223.4,87.9 223.8,83.1 224.2,86.5 224.6,79.8 225.0,78.5 225.4,79.9 225.8,72.3 226.2,65.9 226.6,72.4 227.0,68.3 227.3,83.9 227.7,78.9 228.1,85.5 228.5,86.8 228.9,89.8 229.3,91.8 229.7,93.6 230.1,99.6 230.5,108.1 230.9,97.2 231.3,92.5 231.6,97.4 232.0,104.2 232.4,108.5 232.8,118.6 233.2,121.7 233.6,126.8 234.0,116.4 234.4,125.2 234.8,126.6 235.2,130.0 235.6,118.1 236.0,126.8 236.3,144.1 236.7,153.9 237.1,155.4 237.5,160.4 237.9,145.9 238.3,145.0 238.7,151.7 239.1,150.2 239.5,160.7 239.9,162.9 240.3,155.4 240.6,162.1 241.0,162.7 241.4,162.2 241.8,167.5 242.2,160.4 242.6,167.3 243.0,164.6 243.4,170.1 243.8,155.5 244.2,160.5 244.6,161.4 244.9,166.7 245.3,161.0 245.7,162.2 246.1,161.8 246.5,170.0 246.9,181.0 247.3,187.7 247.7,184.4 248.1,190.2 248.5,182.6 248.9,181.0 249.3,185.5 249.6,183.9 250.0,190.3 250.4,187.8 250.8,187.8 251.2,188.6 251.6,185.1 252.0,183.0 252.4,182.3 252.8,183.5 253.2,182.4 253.6,176.6 253.9,187.6 254.3,181.9 254.7,188.1 255.1,187.0 255.5,189.1 255.9,185.9 256.3,185.7 256.7,183.9 257.1,180.9 257.5,190.8 257.9,194.8 258.2,190.9 258.6,190.0 259.0,188.6 259.4,193.4 259.8,201.1 260.2,199.1 260.6,195.5 261.0,195.6 261.4,182.3 261.8,179.7 262.2,186.9 262.6,190.0 262.9,198.0 263.3,188.2 263.7,180.7 264.1,184.7 264.5,183.5 264.9,178.6 265.3,174.4 265.7,176.0 266.1,176.1 266.5,164.7 266.9,162.1 267.2,169.9 267.6,174.2 268.0,171.5 268.4,172.1 268.8,171.0 269.2,159.5 269.6,166.3 270.0,163.1 270.4,164.2 270.8,153.5 271.2,151.2 271.6,157.7 271.9,160.0 272.3,161.8 272.7,163.9 273.1,167.5 273.5,170.0 273.9,170.1 274.3,174.0 274.7,173.3 275.1,176.9 275.5,187.4 275.9,202.3 276.2,194.0 276.6,175.2 277.0,177.6 277.4,185.4 277.8,192.3 278.2,187.8 278.6,175.0 279.0,175.5 279.4,169.7 279.8,170.1 280.2,165.7 280.5,175.7 280.9,170.3 281.3,171.3 281.7,171.6 282.1,163.7 282.5,176.5 282.9,182.5 283.3,177.7 283.7,173.4 284.1,175.8 284.5,180.3 284.9,179.1 285.2,183.8 285.6,185.2 286.0,189.3 286.4,188.0 286.8,193.0 287.2,197.0 287.6,193.3 288.0,193.3 288.4,201.6 288.8,207.5 289.2,205.2 289.5,212.1 289.9,216.5 290.3,210.7 290.7,212.8 291.1,215.3 291.5,218.5 291.9,228.2 292.3,230.4 292.7,237.6 293.1,244.3 293.5,245.8 293.8,248.9 294.2,240.7 294.6,237.0 295.0,243.4 295.4,238.3 295.8,242.6 296.2,233.6 296.6,230.8 297.0,228.9 297.4,234.4 297.8,231.5 298.2,223.9 298.5,219.3 298.9,223.9 299.3,228.5 299.7,220.4 300.1,223.3 300.5,222.7 300.9,217.9 301.3,223.2 301.7,226.5 302.1,235.9 302.5,243.9 302.8,244.7 303.2,240.9 303.6,245.7 304.0,245.1 304.4,243.9 304.8,243.3 305.2,241.2 305.6,239.8 306.0,239.2 306.4,245.7 306.8,247.8 307.1,249.6 307.5,250.1 307.9,245.8 308.3,249.1 308.7,246.8 309.1,246.7 309.5,253.1 309.9,250.2 310.3,250.0 310.7,254.9 311.1,252.0 311.5,251.8 311.8,248.1 312.2,246.8 312.6,243.1 313.0,245.7 313.4,244.5 313.8,246.4 314.2,238.0 314.6,235.4 315.0,232.3 315.4,227.3 315.8,227.7 316.1,221.5 316.5,219.4 316.9,217.5 317.3,212.6 317.7,218.1 318.1,235.4 318.5,245.2 318.9,240.1 319.3,228.1 319.7,232.6 320.1,231.5 320.4,231.0 320.8,236.2 321.2,241.2 321.6,229.4 322.0,224.9 322.4,226.6 322.8,231.0 323.2,234.0 323.6,239.7 324.0,242.6 324.4,241.9 324.8,241.8 325.1,244.4 325.5,241.7 325.9,241.8 326.3,237.1 326.7,232.2 327.1,239.2 327.5,239.5 327.9,240.8 328.3,243.9 328.7,240.5 329.1,240.0 329.4,239.7 329.8,240.0 330.2,243.2 330.6,250.5 331.0,247.4 331.4,246.5 331.8,247.5 332.2,243.8 332.6,234.3 333.0,233.6 333.4,232.8 333.8,229.9 334.1,232.2 334.5,231.7 334.9,242.6 335.3,243.2 335.7,245.3 336.1,251.7 336.5,250.8 336.9,252.5 337.3,253.6 337.7,255.7 338.1,249.1 338.4,250.2 338.8,250.7 339.2,254.9 339.6,255.5 340.0,252.2 340.4,247.6 340.8,241.3 341.2,242.5 341.6,241.7 342.0,243.9 342.4,246.8 342.7,247.5 343.1,240.0 343.5,243.1 343.9,242.6 344.3,243.3 344.7,241.2 345.1,247.9 345.5,251.6 345.9,252.8 346.3,253.5 346.7,257.4 347.1,258.0 347.4,257.7 347.8,260.5 348.2,257.8 348.6,252.1 349.0,252.1 349.4,247.4 349.8,252.5 350.2,255.3 350.6,257.3 351.0,261.0 351.4,261.0 351.7,262.7 352.1,265.3 352.5,267.7 352.9,270.5 353.3,271.6 353.7,270.5 354.1,265.6 354.5,263.8 354.9,266.2 355.3,263.1 355.7,268.5 356.0,266.6 356.4,264.6 356.8,264.1 357.2,272.5 357.6,270.3 358.0,271.7 358.4,267.3 358.8,265.6 359.2,262.9 359.6,260.3 360.0,255.7 360.4,256.9 360.7,259.5 361.1,258.8 361.5,256.8 361.9,254.8 362.3,251.5 362.7,250.8 363.1,251.8 363.5,250.2 363.9,248.8 364.3,249.6 364.7,250.4 365.0,251.7 365.4,250.5 365.8,252.5 366.2,254.7 366.6,257.4 367.0,257.5 367.4,262.9 367.8,262.4 368.2,260.1 368.6,260.6 369.0,259.4 369.3,261.1 369.7,277.6 370.1,275.4 370.5,276.1 370.9,275.7 371.3,277.3 371.7,280.6 372.1,280.3 372.5,282.9 372.9,285.3 373.3,285.4 373.7,283.0 374.0,282.9 374.4,277.6 374.8,280.7 375.2,286.4 375.6,288.5 376.0,288.6 376.4,288.4 376.8,284.6 377.2,283.0 377.6,285.5 378.0,283.8 378.3,286.0 378.7,290.1 379.1,288.6 379.5,286.9 379.9,283.0 380.3,283.2 380.7,282.4 381.1,283.3 381.5,287.2 381.9,288.6 382.3,288.1 382.7,289.1 383.0,288.5 383.4,280.9 383.8,277.5 384.2,272.1 384.6,272.3 385.0,273.0 385.4,271.3 385.8,274.9 386.2,274.0 386.6,274.6 387.0,273.0 387.3,274.2 387.7,275.4 388.1,271.3 388.5,269.9 388.9,270.7 389.3,275.4 389.7,274.7 390.1,272.3 390.5,266.5 390.9,266.7 391.3,265.3 391.6,262.2 392.0,263.1 392.4,263.9 392.8,261.9 393.2,260.7 393.6,256.4 394.0,258.1 394.4,253.5 394.8,251.1 395.2,252.1 395.6,251.0 396.0,247.1 396.3,244.4 396.7,249.2 397.1,251.3 397.5,249.2 397.9,243.8 398.3,244.5 398.7,242.0 399.1,238.5 399.5,235.5 399.9,235.3 400.3,231.8 400.6,236.0 401.0,232.0 401.4,228.1 401.8,226.6 402.2,218.3 402.6,213.3 403.0,218.2 403.4,219.3 403.8,221.6 404.2,224.8 404.6,223.9 404.9,221.6 405.3,219.2 405.7,217.7 406.1,218.6 406.5,223.2 406.9,218.2 407.3,223.1 407.7,220.9 408.1,219.6 408.5,220.3 408.9,222.5 409.3,219.3 409.6,217.2 410.0,217.2 410.4,209.6 410.8,203.6 411.2,199.7 411.6,201.2 412.0,198.1 412.4,202.9 412.8,202.9 413.2,199.6 413.6,200.6 413.9,202.8 414.3,202.4 414.7,203.2 415.1,204.2 415.5,203.8 415.9,205.5 416.3,207.0 416.7,208.9 417.1,208.5 417.5,212.2 417.9,212.0 418.2,218.3 418.6,211.4 419.0,208.4 419.4,203.9 419.8,197.1 420.2,203.8 420.6,206.7 421.0,205.8 421.4,202.4 421.8,204.4 422.2,208.8 422.6,203.2 422.9,208.1 423.3,209.3 423.7,210.2 424.1,211.4 424.5,211.1 424.9,210.3 425.3,205.9 425.7,207.0 426.1,203.2 426.5,202.7 426.9,208.5 427.2,209.8 427.6,218.6 428.0,219.7 428.4,220.5 428.8,223.3 429.2,226.8 429.6,221.9 430.0,221.5 430.4,222.3 430.8,230.7 431.2,227.1 431.6,225.8 431.9,227.5 432.3,227.5 432.7,225.6 433.1,227.7 433.5,230.7 433.9,230.5 434.3,229.7 434.7,230.7 435.1,234.3 435.5,233.5 435.9,232.0 436.2,230.4 436.6,233.5 437.0,238.1 437.4,235.6 437.8,236.7 438.2,240.8 438.6,238.3 439.0,236.5 439.4,234.8 439.8,230.2 440.2,233.5 440.5,226.6 440.9,227.9 441.3,229.8 441.7,225.2 442.1,226.1 442.5,225.1 442.9,219.5 443.3,220.0 443.7,219.2 444.1,219.2 444.5,222.3 444.9,220.7 445.2,219.9 445.6,221.1 446.0,219.0 446.4,219.5 446.8,220.2 447.2,216.7 447.6,223.5 448.0,216.9 448.4,218.2 448.8,215.7 449.2,217.2 449.5,220.0 449.9,224.9 450.3,218.3 450.7,208.8 451.1,213.2 451.5,205.0 451.9,201.6 452.3,205.5 452.7,205.6 453.1,204.3 453.5,203.4 453.8,200.8 454.2,203.2 454.6,204.8 455.0,207.5 455.4,210.7 455.8,214.4 456.2,209.8 456.6,203.5 457.0,211.0 457.4,210.6 457.8,209.5 458.2,206.2 458.5,207.9 458.9,208.1 459.3,210.6 459.7,208.8 460.1,208.0 460.5,209.4 460.9,208.1 461.3,208.7 461.7,206.4 462.1,203.7 462.5,210.6 462.8,213.0 463.2,209.6 463.6,203.7 464.0,209.1 464.4,209.9 464.8,211.7 465.2,212.6 465.6,211.0 466.0,210.5 466.4,214.6 466.8,210.2 467.1,210.2 467.5,211.4 467.9,209.5 468.3,214.0 468.7,212.0 469.1,216.1 469.5,215.6 469.9,212.8 470.3,217.8 470.7,218.2 471.1,216.7 471.5,218.2 471.8,217.5 472.2,211.9 472.6,211.5 473.0,209.0 473.4,208.5 473.8,206.2 474.2,205.6 474.6,209.1 475.0,208.6 475.4,209.4 475.8,210.6 476.1,207.0 476.5,207.4 476.9,209.4 477.3,209.1 477.7,208.0 478.1,208.0 478.5,207.0 478.9,209.5 479.3,210.1 479.7,211.2 480.1,210.9 480.4,212.5 480.8,210.9 481.2,208.9 481.6,215.2 482.0,215.7 482.4,219.8 482.8,224.2 483.2,228.9 483.6,229.7 484.0,232.4 484.4,232.7 484.8,232.2 485.1,235.2 485.5,234.8 485.9,235.3 486.3,232.5 486.7,230.5 487.1,235.7 487.5,235.3 487.9,232.1 488.3,225.1 488.7,225.0 489.1,226.7 489.4,224.7 489.8,229.8 490.2,229.6 490.6,228.5 491.0,227.8 491.4,227.5 491.8,227.7 492.2,229.1 492.6,229.6 493.0,230.3 493.4,249.5 493.8,246.8 494.1,245.7 494.5,244.8 494.9,247.6 495.3,243.5 495.7,243.9 496.1,242.9 496.5,243.9 496.9,244.6 497.3,243.1 497.7,244.8 498.1,245.9 498.4,245.9 498.8,249.3 499.2,252.9 499.6,253.9 500.0,254.6 500.4,252.7 500.8,249.5 501.2,251.5 501.6,249.9 502.0,250.0 502.4,250.0 502.7,249.5 503.1,251.7 503.5,255.9 503.9,256.6 504.3,255.9 504.7,254.6 505.1,254.6 505.5,252.5 505.9,248.0 506.3,247.6 506.7,247.0 507.1,246.1 507.4,245.5 507.8,246.3 508.2,251.2 508.6,250.0 509.0,247.4 509.4,248.5 509.8,252.2 510.2,251.7 510.6,250.9 511.0,251.5 511.4,253.2 511.7,254.3 512.1,257.0 512.5,258.4 512.9,260.8 513.3,258.4 513.7,256.7 514.1,252.5 514.5,249.1 514.9,249.2 515.3,247.0 515.7,240.7 516.0,239.5 516.4,238.6 516.8,238.3 517.2,240.8 517.6,241.5 518.0,242.3 518.4,240.6 518.8,240.5 519.2,241.1 519.6,243.2 520.0,246.3 520.4,247.1 520.7,247.0 521.1,247.9 521.5,246.0 521.9,248.4 522.3,248.3 522.7,248.9 523.1,247.4 523.5,246.1 523.9,242.4 524.3,241.3 524.7,240.5 525.0,240.4 525.4,239.7 525.8,247.6 526.2,252.1 526.6,248.7 527.0,250.7 527.4,248.6 527.8,248.3 528.2,249.7 528.6,249.2 529.0,249.6 529.3,249.8 529.7,250.9 530.1,250.9 530.5,251.2 530.9,253.9 531.3,253.2 531.7,252.0 532.1,249.4 532.5,251.8 532.9,248.6 533.3,248.5 533.7,248.6 534.0,249.0 534.4,249.4 534.8,252.2 535.2,250.5 535.6,251.5 536.0,248.5 536.4,250.7 536.8,250.0 537.2,252.4 537.6,256.2 538.0,251.5 538.3,250.0 538.7,249.8 539.1,251.5 539.5,254.6 539.9,253.0 540.3,255.9 540.7,256.1 541.1,256.7 541.5,257.0 541.9,255.7 542.3,256.7 542.7,262.3 543.0,263.1 543.4,261.1 543.8,260.3 544.2,260.3 544.6,266.3 545.0,274.1 545.4,272.4 545.8,274.7 546.2,274.6 546.6,274.2 547.0,274.8 547.3,274.7 547.7,277.5 548.1,276.5 548.5,276.4 548.9,276.3 549.3,277.9 549.7,277.1 550.1,283.1 550.5,282.0 550.9,281.6 551.3,281.8 551.6,281.9 552.0,281.6 552.4,282.2 552.8,283.8 553.2,283.4 553.6,283.7 554.0,285.6 554.4,285.9 554.8,286.8 555.2,287.9 555.6,287.2 556.0,285.1 556.3,285.9 556.7,283.0 557.1,282.7 557.5,282.7 557.9,285.9 558.3,282.2 558.7,281.5 559.1,278.2 559.5,276.3 559.9,275.4 560.3,275.4 560.6,271.5 561.0,273.5 561.4,272.6 561.8,271.5 562.2,271.8 562.6,270.7 563.0,271.9 563.4,270.8 563.8,270.2 564.2,269.8 564.6,269.7 564.9,267.4 565.3,265.9 565.7,266.9 566.1,265.7 566.5,267.9 566.9,268.4 567.3,267.6 567.7,267.8 568.1,268.8 568.5,270.7 568.9,271.5 569.3,271.2 569.6,269.6 570.0,268.5 570.4,263.6 570.8,265.2 571.2,266.2 571.6,270.8 572.0,272.1 572.4,267.8 572.8,263.5 573.2,264.5 573.6,262.2 573.9,264.8 574.3,265.3 574.7,267.4 575.1,267.9 575.5,266.8 575.9,267.8 576.3,267.1 576.7,272.9 577.1,270.7 577.5,271.4 577.9,270.3 578.2,277.1 578.6,278.4 579.0,278.8 579.4,274.8 579.8,277.5 580.2,274.5 580.6,273.0 581.0,273.0 581.4,273.4 581.8,271.8 582.2,272.1 582.6,268.9 582.9,265.7 583.3,262.9 583.7,260.7 584.1,259.3 584.5,259.6 584.9,259.9 585.3,260.6 585.7,259.5 586.1,261.1 586.5,261.6 586.9,261.4 587.2,251.7 587.6,250.1 588.0,250.0 588.4,246.5 588.8,244.4 589.2,246.1 589.6,245.2 590.0,245.9 590.4,246.3 590.8,245.8 591.2,245.6 591.6,245.9 591.9,242.5 592.3,241.3 592.7,242.5 593.1,241.9 593.5,241.2 593.9,242.1 594.3,240.7 594.7,239.6 595.1,240.0 595.5,241.1 595.9,238.6 596.2,234.9 596.6,239.8 597.0,240.3 597.4,238.2 597.8,238.8 598.2,239.2 598.6,240.9 599.0,242.5 599.4,241.6 599.8,242.4 600.2,241.9 600.5,240.0 600.9,237.2 601.3,239.5 601.7,240.3 602.1,239.5 602.5,241.2 602.9,242.1 603.3,242.8 603.7,246.0 604.1,248.0 604.5,249.6 604.9,248.2 605.2,247.9 605.6,248.7 606.0,254.0 606.4,255.2 606.8,255.9 607.2,255.2 607.6,256.9 608.0,257.4 608.4,259.3 608.8,258.3 609.2,258.2 609.5,259.7 609.9,258.5 610.3,256.7 610.7,256.3 611.1,254.2 611.5,253.1 611.9,253.2 612.3,256.6 612.7,252.6 613.1,252.2 613.5,252.8 613.8,251.8 614.2,252.2 614.6,260.5 615.0,260.2 615.4,259.5 615.8,257.9 616.2,256.5 616.6,256.3 617.0,254.4 617.4,246.2 617.8,248.6 618.2,250.1 618.5,250.5 618.9,250.0 619.3,244.4 619.7,246.5 620.1,248.3 620.5,245.8 620.9,244.4 621.3,244.6 621.7,245.3 622.1,243.1 622.5,238.6 622.8,237.7 623.2,239.7 623.6,241.2 624.0,241.2 624.4,242.7 624.8,244.7 625.2,245.1 625.6,243.7 626.0,245.0 626.4,248.1 626.8,251.8 627.1,253.1 627.5,254.3 627.9,257.9 628.3,259.3 628.7,259.0 629.1,261.5 629.5,260.6 629.9,260.3 630.3,257.5 630.7,258.2 631.1,257.4 631.5,252.4 631.8,254.8 632.2,256.3 632.6,253.9 633.0,251.8 633.4,251.5 633.8,250.1 634.2,248.3 634.6,250.0 635.0,248.2 635.4,247.5 635.8,248.9 636.1,246.5 636.5,245.9 636.9,246.0 637.3,244.3 637.7,239.5 638.1,242.7 638.5,243.4 638.9,245.8 639.3,248.9 639.7,246.9 640.1,249.4 640.4,254.2 640.8,252.9 641.2,250.7 641.6,248.6 642.0,243.4 642.4,240.0 642.8,240.1 643.2,238.2 643.6,242.6 644.0,239.2 644.4,250.1 644.8,247.7 645.1,249.1 645.5,250.2 645.9,250.8 646.3,252.2 646.7,251.7 647.1,257.4 647.5,261.9 647.9,261.1 648.3,260.4 648.7,259.3 649.1,258.4 649.4,258.1 649.8,258.0 650.2,258.0 650.6,257.5 651.0,258.4 651.4,259.5 651.8,254.8 652.2,254.7 652.6,255.8 653.0,254.1 653.4,254.4 653.8,253.7 654.1,254.9 654.5,253.1 654.9,252.7 655.3,252.7 655.7,247.6 656.1,243.2 656.5,239.3 656.9,237.3 657.3,238.7 657.7,237.2 658.1,236.1 658.4,237.9 658.8,241.1 659.2,239.4 659.6,239.2 660.0,243.9 660.4,245.9 660.8,241.7 661.2,235.7 661.6,238.8 662.0,236.7 662.4,239.6 662.7,239.1 663.1,240.1 663.5,237.5 663.9,230.2 664.3,222.0 664.7,229.0 665.1,224.8 665.5,225.4 665.9,228.2 666.3,229.9 666.7,228.9 667.1,236.8 667.4,234.4 667.8,240.0 668.2,245.9 668.6,240.9 669.0,237.6 669.4,238.6 669.8,249.1 670.2,248.3 670.6,242.7 671.0,243.7 671.4,246.3 671.7,244.3 672.1,248.3 672.5,241.0 672.9,242.7 673.3,240.1 673.7,246.2 674.1,251.1 674.5,250.9 674.9,243.7 675.3,245.5 675.7,246.0 676.0,244.2 676.4,245.9 676.8,239.5 677.2,238.9 677.6,238.4 678.0,236.3 678.4,231.5 678.8,233.9 679.2,232.2 679.6,232.3 680.0,233.8 680.4,236.7 680.7,236.2 681.1,240.4 681.5,239.8 681.9,240.7 682.3,242.4 682.7,247.3 683.1,243.0 683.5,243.5 683.9,246.6 684.3,244.4 684.7,240.7 685.0,245.0 685.4,242.9 685.8,245.7 686.2,246.4 686.6,253.3 687.0,251.6 687.4,252.3 687.8,253.1 688.2,256.8 688.6,251.1 689.0,249.9 689.3,255.9 689.7,253.7 690.1,254.2 690.5,255.2 690.9,256.8 691.3,257.2 691.7,259.4 692.1,262.7 692.5,262.5 692.9,264.1 693.3,264.6 693.7,262.5 694.0,266.3 694.4,262.4 694.8,260.4 695.2,261.5 695.6,262.2 696.0,260.1"/>
  <text x="60" y="62" font-size="11" fill="#2563eb">Price index</text>
  <text x="146" y="62" font-size="11" fill="#16a34a">Total return (price + distributions)</text>
  <text x="56" y="348" font-size="11" text-anchor="middle" fill="#444">2019-12</text><text x="216" y="348" font-size="11" text-anchor="middle" fill="#444">2021-07</text><text x="376" y="348" font-size="11" text-anchor="middle" fill="#444">2023-03</text><text x="536" y="348" font-size="11" text-anchor="middle" fill="#444">2024-10</text><text x="696" y="348" font-size="11" text-anchor="middle" fill="#444">2026-06</text>
</svg>
