<svg xmlns="http://www.w3.org/2000/svg" width="720" height="360" viewBox="0 0 720 360">
  <rect width="720" height="360" fill="#fafafa"/>
  <text x="56" y="22" font-size="13" font-family="sans-serif" fill="#222">STHO total return (rebased 100) · cumulative distributions $0.00/sh · market cap $111.4M</text>
  <line x1="56" y1="308" x2="696" y2="308" stroke="#ccc"/>
  <line x1="56" y1="48" x2="56" y2="308" stroke="#ccc"/>
  <polyline fill="none" stroke="#2563eb" stroke-width="2" points="56.0,78.0 56.8,84.8 57.6,65.9 58.4,117.7 59.2,103.9 60.0,106.9 60.8,121.7 61.6,112.6 62.4,112.1 63.2,114.5 64.0,123.5 64.8,130.2 65.6,140.9 66.3,123.7 67.1,122.9 67.9,121.4 68.7,125.2 69.5,124.7 70.3,121.7 71.1,132.1 71.9,140.0 72.7,136.9 73.5,136.8 74.3,143.6 75.1,146.7 75.9,144.7 76.7,138.3 77.5,131.5 78.3,129.8 79.1,130.2 79.9,128.1 80.7,128.1 81.5,128.1 82.3,125.7 83.1,134.3 83.9,131.3 84.7,132.4 85.5,134.5 86.2,134.0 87.0,138.8 87.8,149.7 88.6,157.0 89.4,153.7 90.2,148.4 91.0,146.5 91.8,145.2 92.6,137.4 93.4,153.7 94.2,152.0 95.0,144.2 95.8,146.7 96.6,150.6 97.4,153.7 98.2,160.2 99.0,166.2 99.8,167.1 100.6,168.9 101.4,170.2 102.2,171.1 103.0,176.1 103.8,179.4 104.6,171.8 105.4,170.0 106.1,168.6 106.9,164.1 107.7,159.2 108.5,153.1 109.3,152.6 110.1,155.4 110.9,150.6 111.7,149.6 112.5,145.3 113.3,142.9 114.1,143.9 114.9,152.6 115.7,160.6 116.5,158.0 117.3,152.6 118.1,154.2 118.9,153.2 119.7,149.7 120.5,146.4 121.3,142.4 122.1,146.4 122.9,145.8 123.7,145.2 124.5,149.3 125.3,156.5 126.0,153.5 126.8,156.3 127.6,154.3 128.4,173.5 129.2,175.5 130.0,173.0 130.8,174.6 131.6,177.0 132.4,177.8 133.2,180.8 134.0,181.4 134.8,181.3 135.6,179.3 136.4,177.6 137.2,173.5 138.0,176.6 138.8,175.9 139.6,174.7 140.4,173.0 141.2,173.2 142.0,175.2 142.8,176.4 143.6,187.5 144.4,188.1 145.2,184.9 146.0,188.1 146.7,193.9 147.5,192.9 148.3,192.4 149.1,189.0 149.9,193.0 150.7,196.5 151.5,195.4 152.3,192.7 153.1,197.9 153.9,195.0 154.7,189.4 155.5,190.4 156.3,192.7 157.1,193.5 157.9,191.9 158.7,200.2 159.5,201.2 160.3,198.0 161.1,202.0 161.9,202.5 162.7,196.5 163.5,189.4 164.3,188.9 165.1,195.1 165.9,199.9 166.6,194.2 167.4,197.0 168.2,204.6 169.0,207.9 169.8,210.8 170.6,213.6 171.4,210.4 172.2,215.7 173.0,212.2 173.8,218.1 174.6,209.5 175.4,208.2 176.2,212.4 177.0,206.3 177.8,194.5 178.6,197.1 179.4,202.5 180.2,207.9 181.0,212.7 181.8,210.8 182.6,214.2 183.4,192.2 184.2,192.1 185.0,198.5 185.8,199.4 186.5,196.4 187.3,199.6 188.1,196.1 188.9,193.3 189.7,196.4 190.5,198.8 191.3,195.4 192.1,196.5 192.9,177.5 193.7,178.2 194.5,181.0 195.3,183.1 196.1,183.1 196.9,183.0 197.7,183.6 198.5,183.7 199.3,170.6 200.1,159.6 200.9,165.7 201.7,168.3 202.5,170.6 203.3,174.0 204.1,173.2 204.9,171.4 205.7,170.0 206.4,162.5 207.2,156.0 208.0,154.5 208.8,155.8 209.6,165.4 210.4,164.7 211.2,167.3 212.0,167.1 212.8,173.7 213.6,172.7 214.4,175.9 215.2,175.3 216.0,182.8 216.8,193.6 217.6,196.8 218.4,192.9 219.2,187.7 220.0,184.5 220.8,189.0 221.6,186.0 222.4,189.5 223.2,190.9 224.0,200.5 224.8,206.1 225.6,198.2 226.3,199.4 227.1,202.0 227.9,203.2 228.7,206.7 229.5,204.1 230.3,202.3 231.1,200.0 231.9,206.6 232.7,202.2 233.5,192.4 234.3,196.1 235.1,198.3 235.9,195.1 236.7,199.1 237.5,199.4 238.3,202.0 239.1,201.5 239.9,202.5 240.7,194.5 241.5,189.4 242.3,194.4 243.1,198.6 243.9,201.4 244.7,201.2 245.5,197.0 246.2,200.8 247.0,202.6 247.8,202.3 248.6,204.9 249.4,201.8 250.2,198.3 251.0,195.6 251.8,184.8 252.6,183.1 253.4,187.1 254.2,190.4 255.0,191.9 255.8,188.9 256.6,185.8 257.4,187.4 258.2,192.9 259.0,189.2 259.8,191.3 260.6,190.4 261.4,190.4 262.2,184.5 263.0,193.9 263.8,194.5 264.6,197.4 265.4,202.8 266.1,206.9 266.9,205.4 267.7,205.0 268.5,202.2 269.3,199.1 270.1,199.3 270.9,201.7 271.7,204.0 272.5,204.1 273.3,198.0 274.1,201.5 274.9,198.2 275.7,194.4 276.5,190.3 277.3,190.1 278.1,182.8 278.9,185.2 279.7,178.7 280.5,182.6 281.3,179.6 282.1,175.2 282.9,171.6 283.7,177.8 284.5,177.3 285.3,180.8 286.0,183.0 286.8,185.2 287.6,188.6 288.4,186.8 289.2,189.8 290.0,194.1 290.8,187.2 291.6,186.6 292.4,185.4 293.2,184.0 294.0,183.7 294.8,184.9 295.6,186.9 296.4,190.4 297.2,188.9 298.0,185.5 298.8,189.2 299.6,190.0 300.4,198.0 301.2,198.6 302.0,197.6 302.8,203.2 303.6,200.0 304.4,202.3 305.2,203.2 306.0,202.2 306.7,199.0 307.5,210.1 308.3,209.3 309.1,208.7 309.9,208.2 310.7,208.9 311.5,211.6 312.3,208.9 313.1,192.4 313.9,191.6 314.7,187.7 315.5,185.7 316.3,184.9 317.1,190.3 317.9,189.2 318.7,188.6 319.5,181.6 320.3,184.9 321.1,182.2 321.9,175.9 322.7,179.9 323.5,178.4 324.3,177.8 325.1,182.0 325.9,187.7 326.6,199.6 327.4,197.7 328.2,195.8 329.0,190.0 329.8,192.6 330.6,192.1 331.4,186.9 332.2,187.7 333.0,184.3 333.8,186.9 334.6,185.5 335.4,190.1 336.2,186.8 337.0,188.6 337.8,174.4 338.6,174.1 339.4,176.6 340.2,176.6 341.0,175.6 341.8,178.5 342.6,180.5 343.4,181.9 344.2,182.5 345.0,184.5 345.8,187.4 346.5,186.2 347.3,185.4 348.1,183.3 348.9,177.9 349.7,171.1 350.5,167.9 351.3,167.1 352.1,163.4 352.9,170.5 353.7,172.3 354.5,171.8 355.3,173.0 356.1,172.7 356.9,172.4 357.7,171.8 358.5,176.4 359.3,178.1 360.1,182.3 360.9,184.6 361.7,184.6 362.5,184.3 363.3,184.8 364.1,183.7 364.9,181.9 365.7,182.8 366.4,181.7 367.2,177.6 368.0,181.6 368.8,182.2 369.6,185.8 370.4,184.3 371.2,184.2 372.0,186.3 372.8,187.5 373.6,184.5 374.4,185.4 375.2,186.2 376.0,188.6 376.8,196.8 377.6,199.0 378.4,199.6 379.2,198.8 380.0,199.7 380.8,195.9 381.6,194.8 382.4,204.0 383.2,205.7 384.0,207.3 384.8,206.3 385.6,211.9 386.3,210.5 387.1,212.4 387.9,211.9 388.7,211.9 389.5,213.0 390.3,215.4 391.1,210.8 391.9,211.3 392.7,211.0 393.5,213.7 394.3,211.1 395.1,214.8 395.9,215.1 396.7,217.4 397.5,223.3 398.3,223.2 399.1,226.4 399.9,226.4 400.7,225.6 401.5,228.2 402.3,235.2 403.1,237.2 403.9,240.9 404.7,239.2 405.5,239.2 406.2,237.5 407.0,241.0 407.8,240.5 408.6,234.5 409.4,237.8 410.2,240.5 411.0,242.7 411.8,245.4 412.6,248.6 413.4,253.8 414.2,252.0 415.0,248.8 415.8,246.9 416.6,245.0 417.4,245.1 418.2,245.4 419.0,249.1 419.8,249.4 420.6,247.3 421.4,242.1 422.2,247.7 423.0,250.8 423.8,247.1 424.6,247.3 425.4,249.7 426.1,252.7 426.9,253.0 427.7,246.9 428.5,254.1 429.3,257.3 430.1,259.9 430.9,252.9 431.7,247.7 432.5,248.8 433.3,247.9 434.1,249.1 434.9,249.8 435.7,247.9 436.5,243.3 437.3,239.2 438.1,244.2 438.9,243.0 439.7,241.8 440.5,248.5 441.3,247.1 442.1,247.3 442.9,245.6 443.7,243.7 444.5,243.9 445.3,244.1 446.0,252.0 446.8,259.4 447.6,261.1 448.4,258.1 449.2,257.3 450.0,260.5 450.8,258.1 451.6,257.6 452.4,255.3 453.2,258.7 454.0,259.0 454.8,256.4 455.6,260.5 456.4,253.0 457.2,261.1 458.0,261.7 458.8,264.2 459.6,268.1 460.4,278.2 461.2,283.8 462.0,278.6 462.8,285.0 463.6,283.2 464.4,281.5 465.2,285.0 466.0,287.3 466.7,284.0 467.5,285.2 468.3,282.1 469.1,283.2 469.9,283.2 470.7,282.9 471.5,282.5 472.3,280.1 473.1,280.0 473.9,278.8 474.7,277.1 475.5,283.5 476.3,288.1 477.1,284.4 477.9,282.9 478.7,283.2 479.5,282.3 480.3,284.3 481.1,284.9 481.9,286.1 482.7,286.9 483.5,285.0 484.3,282.3 485.1,287.9 485.9,287.9 486.6,290.1 487.4,287.9 488.2,289.3 489.0,286.1 489.8,286.3 490.6,283.8 491.4,272.2 492.2,273.9 493.0,272.9 493.8,271.5 494.6,268.7 495.4,263.4 496.2,268.7 497.0,266.3 497.8,270.3 498.6,266.9 499.4,266.5 500.2,267.2 501.0,265.1 501.8,263.3 502.6,261.3 503.4,262.8 504.2,258.8 505.0,265.2 505.8,263.7 506.5,260.7 507.3,262.9 508.1,262.8 508.9,265.2 509.7,262.2 510.5,260.7 511.3,257.8 512.1,259.0 512.9,258.8 513.7,265.2 514.5,264.2 515.3,263.3 516.1,264.2 516.9,264.0 517.7,261.4 518.5,262.0 519.3,264.2 520.1,264.6 520.9,267.4 521.7,267.4 522.5,271.9 523.3,273.2 524.1,271.6 524.9,272.7 525.7,271.9 526.4,272.2 527.2,273.6 528.0,272.1 528.8,272.2 529.6,264.8 530.4,260.4 531.2,259.3 532.0,258.8 532.8,259.1 533.6,257.0 534.4,257.9 535.2,259.3 536.0,252.7 536.8,252.7 537.6,254.0 538.4,253.8 539.2,252.4 540.0,250.3 540.8,253.7 541.6,253.7 542.4,252.0 543.2,249.8 544.0,249.5 544.8,248.5 545.6,249.2 546.3,246.6 547.1,247.9 547.9,247.4 548.7,245.3 549.5,248.9 550.3,247.3 551.1,256.1 551.9,255.2 552.7,252.0 553.5,251.5 554.3,252.3 555.1,253.5 555.9,256.5 556.7,257.3 557.5,256.9 558.3,258.1 559.1,258.2 559.9,259.6 560.7,261.0 561.5,262.5 562.3,264.8 563.1,268.6 563.9,268.3 564.7,266.1 565.5,266.6 566.2,268.0 567.0,269.3 567.8,268.0 568.6,267.5 569.4,265.4 570.2,263.4 571.0,261.3 571.8,263.7 572.6,266.8 573.4,269.0 574.2,270.4 575.0,271.2 575.8,270.0 576.6,271.8 577.4,270.4 578.2,275.9 579.0,272.9 579.8,269.7 580.6,265.2 581.4,264.3 582.2,265.8 583.0,270.3 583.8,270.3 584.6,268.6 585.4,270.1 586.1,272.1 586.9,267.8 587.7,266.1 588.5,265.5 589.3,262.8 590.1,260.8 590.9,263.4 591.7,263.6 592.5,262.6 593.3,264.6 594.1,266.5 594.9,266.3 595.7,267.5 596.5,266.1 597.3,266.9 598.1,266.1 598.9,267.8 599.7,268.7 600.5,269.2 601.3,264.0 602.1,265.4 602.9,266.8 603.7,269.8 604.5,267.7 605.3,262.8 606.0,260.5 606.8,258.4 607.6,257.3 608.4,259.0 609.2,258.4 610.0,256.9 610.8,258.4 611.6,257.9 612.4,254.0 613.2,248.3 614.0,248.8 614.8,245.9 615.6,243.7 616.4,246.5 617.2,248.2 618.0,246.0 618.8,246.2 619.6,257.6 620.4,260.1 621.2,261.7 622.0,265.1 622.8,261.9 623.6,263.6 624.4,265.5 625.2,264.0 626.0,260.5 626.7,262.5 627.5,261.9 628.3,261.0 629.1,260.2 629.9,260.7 630.7,263.3 631.5,259.0 632.3,256.4 633.1,254.9 633.9,255.0 634.7,250.8 635.5,250.3 636.3,250.9 637.1,249.4 637.9,246.9 638.7,245.3 639.5,247.7 640.3,252.3 641.1,250.3 641.9,251.5 642.7,255.3 643.5,260.4 644.3,261.1 645.1,259.1 645.9,260.8 646.6,261.1 647.4,259.9 648.2,257.8 649.0,259.0 649.8,259.1 650.6,264.5 651.4,261.3 652.2,263.3 653.0,265.1 653.8,266.0 654.6,270.7 655.4,270.4 656.2,267.4 657.0,267.8 657.8,259.3 658.6,259.9 659.4,261.1 660.2,259.4 661.0,257.5 661.8,256.1 662.6,256.9 663.4,254.4 664.2,253.2 665.0,256.7 665.8,252.7 666.5,254.7 667.3,254.6 668.1,257.2 668.9,255.6 669.7,256.2 670.5,254.9 671.3,254.4 672.1,256.1 672.9,252.1 673.7,254.1 674.5,257.2 675.3,252.1 676.1,248.5 676.9,248.1 677.7,249.7 678.5,249.4 679.3,250.6 680.1,251.1 680.9,252.3 681.7,255.0 682.5,253.5 683.3,253.2 684.1,252.4 684.9,252.4 685.7,251.5 686.4,249.2 687.2,248.5 688.0,247.9 688.8,247.4 689.6,247.4 690.4,247.6 691.2,247.6 692.0,245.6 692.8,245.5 693.6,246.9 694.4,244.5 695.2,246.0 696.0,243.6"/>
  <polyline fill="none" stroke="#16a34a" stroke-width="2" points="56.0,78.0 56.8,84.8 57.6,65.9 58.4,117.7 59.2,103.9 60.0,106.9 60.8,121.7 61.6,112.6 62.4,112.1 63.2,114.5 64.0,123.5 64.8,130.2 65.6,140.9 66.3,123.7 67.1,122.9 67.9,121.4 68.7,125.2 69.5,124.7 70.3,121.7 71.1,132.1 71.9,140.0 72.7,136.9 73.5,136.8 74.3,143.6 75.1,146.7 75.9,144.7 76.7,138.3 77.5,131.5 78.3,129.8 79.1,130.2 79.9,128.1 80.7,128.1 81.5,128.1 82.3,125.7 83.1,134.3 83.9,131.3 84.7,132.4 85.5,134.5 86.2,134.0 87.0,138.8 87.8,149.7 88.6,157.0 89.4,153.7 90.2,148.4 91.0,146.5 91.8,145.2 92.6,137.4 93.4,153.7 94.2,152.0 95.0,144.2 95.8,146.7 96.6,150.6 97.4,153.7 98.2,160.2 99.0,166.2 99.8,167.1 100.6,168.9 101.4,170.2 102.2,171.1 103.0,176.1 103.8,179.4 104.6,171.8 105.4,170.0 106.1,168.6 106.9,164.1 107.7,159.2 108.5,153.1 109.3,152.6 110.1,155.4 110.9,150.6 111.7,149.6 112.5,145.3 113.3,142.9 114.1,143.9 114.9,152.6 115.7,160.6 116.5,158.0 117.3,152.6 118.1,154.2 118.9,153.2 119.7,149.7 120.5,146.4 121.3,142.4 122.1,146.4 122.9,145.8 123.7,145.2 124.5,149.3 125.3,156.5 126.0,153.5 126.8,156.3 127.6,154.3 128.4,173.5 129.2,175.5 130.0,173.0 130.8,174.6 131.6,177.0 132.4,177.8 133.2,180.8 134.0,181.4 134.8,181.3 135.6,179.3 136.4,177.6 137.2,173.5 138.0,176.6 138.8,175.9 139.6,174.7 140.4,173.0 141.2,173.2 142.0,175.2 142.8,176.4 143.6,187.5 144.4,188.1 145.2,184.9 146.0,188.1 146.7,193.9 147.5,192.9 148.3,192.4 149.1,189.0 149.9,193.0 150.7,196.5 151.5,195.4 152.3,192.7 153.1,197.9 153.9,195.0 154.7,189.4 155.5,190.4 156.3,192.7 157.1,193.5 157.9,191.9 158.7,200.2 159.5,201.2 160.3,198.0 161.1,202.0 161.9,202.5 162.7,196.5 163.5,189.4 164.3,188.9 165.1,195.1 165.9,199.9 166.6,194.2 167.4,197.0 168.2,204.6 169.0,207.9 169.8,210.8 170.6,213.6 171.4,210.4 172.2,215.7 173.0,212.2 173.8,218.1 174.6,209.5 175.4,208.2 176.2,212.4 177.0,206.3 177.8,194.5 178.6,197.1 179.4,202.5 180.2,207.9 181.0,212.7 181.8,210.8 182.6,214.2 183.4,192.2 184.2,192.1 185.0,198.5 185.8,199.4 186.5,196.4 187.3,199.6 188.1,196.1 188.9,193.3 189.7,196.4 190.5,198.8 191.3,195.4 192.1,196.5 192.9,177.5 193.7,178.2 194.5,181.0 195.3,183.1 196.1,183.1 196.9,183.0 197.7,183.6 198.5,183.7 199.3,170.6 200.1,159.6 200.9,165.7 201.7,168.3 202.5,170.6 203.3,174.0 204.1,173.2 204.9,171.4 205.7,170.0 206.4,162.5 207.2,156.0 208.0,154.5 208.8,155.8 209.6,165.4 210.4,164.7 211.2,167.3 212.0,167.1 212.8,173.7 213.6,172.7 214.4,175.9 215.2,175.3 216.0,182.8 216.8,193.6 217.6,196.8 218.4,192.9 219.2,187.7 220.0,184.5 220.8,189.0 221.6,186.0 222.4,189.5 223.2,190.9 224.0,200.5 224.8,206.1 225.6,198.2 226.3,199.4 227.1,202.0 227.9,203.2 228.7,206.7 229.5,204.1 230.3,202.3 231.1,200.0 231.9,206.6 232.7,202.2 233.5,192.4 234.3,196.1 235.1,198.3 235.9,195.1 236.7,199.1 237.5,199.4 238.3,202.0 239.1,201.5 239.9,202.5 240.7,194.5 241.5,189.4 242.3,194.4 243.1,198.6 243.9,201.4 244.7,201.2 245.5,197.0 246.2,200.8 247.0,202.6 247.8,202.3 248.6,204.9 249.4,201.8 250.2,198.3 251.0,195.6 251.8,184.8 252.6,183.1 253.4,187.1 254.2,190.4 255.0,191.9 255.8,188.9 256.6,185.8 257.4,187.4 258.2,192.9 259.0,189.2 259.8,191.3 260.6,190.4 261.4,190.4 262.2,184.5 263.0,193.9 263.8,194.5 264.6,197.4 265.4,202.8 266.1,206.9 266.9,205.4 267.7,205.0 268.5,202.2 269.3,199.1 270.1,199.3 270.9,201.7 271.7,204.0 272.5,204.1 273.3,198.0 274.1,201.5 274.9,198.2 275.7,194.4 276.5,190.3 277.3,190.1 278.1,182.8 278.9,185.2 279.7,178.7 280.5,182.6 281.3,179.6 282.1,175.2 282.9,171.6 283.7,177.8 284.5,177.3 285.3,180.8 286.0,183.0 286.8,185.2 287.6,188.6 288.4,186.8 289.2,189.8 290.0,194.1 290.8,187.2 291.6,186.6 292.4,185.4 293.2,184.0 294.0,183.7 294.8,184.9 295.6,186.9 296.4,190.4 297.2,188.9 298.0,185.5 298.8,189.2 299.6,190.0 300.4,198.0 301.2,198.6 302.0,197.6 302.8,203.2 303.6,200.0 304.4,202.3 305.2,203.2 306.0,202.2 306.7,199.0 307.5,210.1 308.3,209.3 309.1,208.7 309.9,208.2 310.7,208.9 311.5,211.6 312.3,208.9 313.1,192.4 313.9,191.6 314.7,187.7 315.5,185.7 316.3,184.9 317.1,190.3 317.9,189.2 318.7,188.6 319.5,181.6 320.3,184.9 321.1,182.2 321.9,175.9 322.7,179.9 323.5,178.4 324.3,177.8 325.1,182.0 325.9,187.7 326.6,199.6 327.4,197.7 328.2,195.8 329.0,190.0 329.8,192.6 330.6,192.1 331.4,186.9 332.2,187.7 333.0,184.3 333.8,186.9 334.6,185.5 335.4,190.1 336.2,186.8 337.0,188.6 337.8,174.4 338.6,174.1 339.4,176.6 340.2,176.6 341.0,175.6 341.8,178.5 342.6,180.5 343.4,181.9 344.2,182.5 345.0,184.5 345.8,187.4 346.5,186.2 347.3,185.4 348.1,183.3 348.9,177.9 349.7,171.1 350.5,167.9 351.3,167.1 352.1,163.4 352.9,170.5 353.7,172.3 354.5,171.8 355.3,173.0 356.1,172.7 356.9,172.4 357.7,171.8 358.5,176.4 359.3,178.1 360.1,182.3 360.9,184.6 361.7,184.6 362.5,184.3 363.3,184.8 364.1,183.7 364.9,181.9 365.7,182.8 366.4,181.7 367.2,177.6 368.0,181.6 368.8,182.2 369.6,185.8 370.4,184.3 371.2,184.2 372.0,186.3 372.8,187.5 373.6,184.5 374.4,185.4 375.2,186.2 376.0,188.6 376.8,196.8 377.6,199.0 378.4,199.6 379.2,198.8 380.0,199.7 380.8,195.9 381.6,194.8 382.4,204.0 383.2,205.7 384.0,207.3 384.8,206.3 385.6,211.9 386.3,210.5 387.1,212.4 387.9,211.9 388.7,211.9 389.5,213.0 390.3,215.4 391.1,210.8 391.9,211.3 392.7,211.0 393.5,213.7 394.3,211.1 395.1,214.8 395.9,215.1 396.7,217.4 397.5,223.3 398.3,223.2 399.1,226.4 399.9,226.4 400.7,225.6 401.5,228.2 402.3,235.2 403.1,237.2 403.9,240.9 404.7,239.2 405.5,239.2 406.2,237.5 407.0,241.0 407.8,240.5 408.6,234.5 409.4,237.8 410.2,240.5 411.0,242.7 411.8,245.4 412.6,248.6 413.4,253.8 414.2,252.0 415.0,248.8 415.8,246.9 416.6,245.0 417.4,245.1 418.2,245.4 419.0,249.1 419.8,249.4 420.6,247.3 421.4,242.1 422.2,247.7 423.0,250.8 423.8,247.1 424.6,247.3 425.4,249.7 426.1,252.7 426.9,253.0 427.7,246.9 428.5,254.1 429.3,257.3 430.1,259.9 430.9,252.9 431.7,247.7 432.5,248.8 433.3,247.9 434.1,249.1 434.9,249.8 435.7,247.9 436.5,243.3 437.3,239.2 438.1,244.2 438.9,243.0 439.7,241.8 440.5,248.5 441.3,247.1 442.1,247.3 442.9,245.6 443.7,243.7 444.5,243.9 445.3,244.1 446.0,252.0 446.8,259.4 447.6,261.1 448.4,258.1 449.2,257.3 450.0,260.5 450.8,258.1 451.6,257.6 452.4,255.3 453.2,258.7 454.0,259.0 454.8,256.4 455.6,260.5 456.4,253.0 457.2,261.1 458.0,261.7 458.8,264.2 459.6,268.1 460.4,278.2 461.2,283.8 462.0,278.6 462.8,285.0 463.6,283.2 464.4,281.5 465.2,285.0 466.0,287.3 466.7,284.0 467.5,285.2 468.3,282.1 469.1,283.2 469.9,283.2 470.7,282.9 471.5,282.5 472.3,280.1 473.1,280.0 473.9,278.8 474.7,277.1 475.5,283.5 476.3,288.1 477.1,284.4 477.9,282.9 478.7,283.2 479.5,282.3 480.3,284.3 481.1,284.9 481.9,286.1 482.7,286.9 483.5,285.0 484.3,282.3 485.1,287.9 485.9,287.9 486.6,290.1 487.4,287.9 488.2,289.3 489.0,286.1 489.8,286.3 490.6,283.8 491.4,272.2 492.2,273.9 493.0,272.9 493.8,271.5 494.6,268.7 495.4,263.4 496.2,268.7 497.0,266.3 497.8,270.3 498.6,266.9 499.4,266.5 500.2,267.2 501.0,265.1 501.8,263.3 502.6,261.3 503.4,262.8 504.2,258.8 505.0,265.2 505.8,263.7 506.5,260.7 507.3,262.9 508.1,262.8 508.9,265.2 509.7,262.2 510.5,260.7 511.3,257.8 512.1,259.0 512.9,258.8 513.7,265.2 514.5,264.2 515.3,263.3 516.1,264.2 516.9,264.0 517.7,261.4 518.5,262.0 519.3,264.2 520.1,264.6 520.9,267.4 521.7,267.4 522.5,271.9 523.3,273.2 524.1,271.6 524.9,272.7 525.7,271.9 526.4,272.2 527.2,273.6 528.0,272.1 528.8,272.2 529.6,264.8 530.4,260.4 531.2,259.3 532.0,258.8 532.8,259.1 533.6,257.0 534.4,257.9 535.2,259.3 536.0,252.7 536.8,252.7 537.6,254.0 538.4,253.8 539.2,252.4 540.0,250.3 540.8,253.7 541.6,253.7 542.4,252.0 543.2,249.8 544.0,249.5 544.8,248.5 545.6,249.2 546.3,246.6 547.1,247.9 547.9,247.4 548.7,245.3 549.5,248.9 550.3,247.3 551.1,256.1 551.9,255.2 552.7,252.0 553.5,251.5 554.3,252.3 555.1,253.5 555.9,256.5 556.7,257.3 557.5,256.9 558.3,258.1 559.1,258.2 559.9,259.6 560.7,261.0 561.5,262.5 562.3,264.8 563.1,268.6 563.9,268.3 564.7,266.1 565.5,266.6 566.2,268.0 567.0,269.3 567.8,268.0 568.6,267.5 569.4,265.4 570.2,263.4 571.0,261.3 571.8,263.7 572.6,266.8 573.4,269.0 574.2,270.4 575.0,271.2 575.8,270.0 576.6,271.8 577.4,270.4 578.2,275.9 579.0,272.9 579.8,269.7 580.6,265.2 581.4,264.3 582.2,265.8 583.0,270.3 583.8,270.3 584.6,268.6 585.4,270.1 586.1,272.1 586.9,267.8 587.7,266.1 588.5,265.5 589.3,262.8 590.1,260.8 590.9,263.4 591.7,263.6 592.5,262.6 593.3,264.6 594.1,266.5 594.9,266.3 595.7,267.5 596.5,266.1 597.3,266.9 598.1,266.1 598.9,267.8 599.7,268.7 600.5,269.2 601.3,264.0 602.1,265.4 602.9,266.8 603.7,269.8 604.5,267.7 605.3,262.8 606.0,260.5 606.8,258.4 607.6,257.3 608.4,259.0 609.2,258.4 610.0,256.9 610.8,258.4 611.6,257.9 612.4,254.0 613.2,248.3 614.0,248.8 614.8,245.9 615.6,243.7 616.4,246.5 617.2,248.2 618.0,246.0 618.8,246.2 619.6,257.6 620.4,260.1 621.2,261.7 622.0,265.1 622.8,261.9 623.6,263.6 624.4,265.5 625.2,264.0 626.0,260.5 626.7,262.5 627.5,261.9 628.3,261.0 629.1,260.2 629.9,260.7 630.7,263.3 631.5,259.0 632.3,256.4 633.1,254.9 633.9,255.0 634.7,250.8 635.5,250.3 636.3,250.9 637.1,249.4 637.9,246.9 638.7,245.3 639.5,247.7 640.3,252.3 641.1,250.3 641.9,251.5 642.7,255.3 643.5,260.4 644.3,261.1 645.1,259.1 645.9,260.8 646.6,261.1 647.4,259.9 648.2,257.8 649.0,259.0 649.8,259.1 650.6,264.5 651.4,261.3 652.2,263.3 653.0,265.1 653.8,266.0 654.6,270.7 655.4,270.4 656.2,267.4 657.0,267.8 657.8,259.3 658.6,259.9 659.4,261.1 660.2,259.4 661.0,257.5 661.8,256.1 662.6,256.9 663.4,254.4 664.2,253.2 665.0,256.7 665.8,252.7 666.5,254.7 667.3,254.6 668.1,257.2 668.9,255.6 669.7,256.2 670.5,254.9 671.3,254.4 672.1,256.1 672.9,252.1 673.7,254.1 674.5,257.2 675.3,252.1 676.1,248.5 676.9,248.1 677.7,249.7 678.5,249.4 679.3,250.6 680.1,251.1 680.9,252.3 681.7,255.0 682.5,253.5 683.3,253.2 684.1,252.4 684.9,252.4 685.7,251.5 686.4,249.2 687.2,248.5 688.0,247.9 688.8,247.4 689.6,247.4 690.4,247.6 691.2,247.6 692.0,245.6 692.8,245.5 693.6,246.9 694.4,244.5 695.2,246.0 696.0,243.6"/>
  <text x="60" y="62" font-size="11" fill="#2563eb">Price index</text>
  <text x="146" y="62" font-size="11" fill="#16a34a">Total return (price + distributions)</text>
  <text x="56" y="348" font-size="11" text-anchor="middle" fill="#444">2023-03</text><text x="216" y="348" font-size="11" text-anchor="middle" fill="#444">2024-01</text><text x="376" y="348" font-size="11" text-anchor="middle" fill="#444">2024-10</text><text x="536" y="348" font-size="11" text-anchor="middle" fill="#444">2025-08</text><text x="696" y="348" font-size="11" text-anchor="middle" fill="#444">2026-06</text>
</svg>
