<svg xmlns="http://www.w3.org/2000/svg" width="720" height="360" viewBox="0 0 720 360">
  <rect width="720" height="360" fill="#fafafa"/>
  <text x="56" y="22" font-size="13" font-family="sans-serif" fill="#222">STHO total return (rebased 100) · cumulative distributions $0.00/sh · market cap $110.5M</text>
  <line x1="56" y1="308" x2="696" y2="308" stroke="#ccc"/>
  <line x1="56" y1="48" x2="56" y2="308" stroke="#ccc"/>
  <polyline fill="none" stroke="#2563eb" stroke-width="2" points="56.0,78.0 56.8,84.8 57.6,65.9 58.4,117.7 59.2,103.9 60.0,106.9 60.8,121.7 61.6,112.6 62.4,112.1 63.2,114.5 64.0,123.5 64.7,130.2 65.5,140.9 66.3,123.7 67.1,122.9 67.9,121.4 68.7,125.2 69.5,124.7 70.3,121.7 71.1,132.1 71.9,140.0 72.7,136.9 73.5,136.8 74.3,143.6 75.1,146.7 75.9,144.7 76.7,138.3 77.5,131.5 78.3,129.8 79.1,130.2 79.9,128.1 80.6,128.1 81.4,128.1 82.2,125.7 83.0,134.3 83.8,131.3 84.6,132.4 85.4,134.5 86.2,134.0 87.0,138.8 87.8,149.7 88.6,157.0 89.4,153.7 90.2,148.4 91.0,146.5 91.8,145.2 92.6,137.4 93.4,153.7 94.2,152.0 95.0,144.2 95.8,146.7 96.5,150.6 97.3,153.7 98.1,160.2 98.9,166.2 99.7,167.1 100.5,168.9 101.3,170.2 102.1,171.1 102.9,176.1 103.7,179.4 104.5,171.8 105.3,170.0 106.1,168.6 106.9,164.1 107.7,159.2 108.5,153.1 109.3,152.6 110.1,155.4 110.9,150.6 111.7,149.6 112.4,145.3 113.2,142.9 114.0,143.9 114.8,152.6 115.6,160.6 116.4,158.0 117.2,152.6 118.0,154.2 118.8,153.2 119.6,149.7 120.4,146.4 121.2,142.4 122.0,146.4 122.8,145.8 123.6,145.2 124.4,149.3 125.2,156.5 126.0,153.5 126.8,156.3 127.6,154.3 128.3,173.5 129.1,175.5 129.9,173.0 130.7,174.6 131.5,177.0 132.3,177.8 133.1,180.8 133.9,181.4 134.7,181.3 135.5,179.3 136.3,177.6 137.1,173.5 137.9,176.6 138.7,175.9 139.5,174.7 140.3,173.0 141.1,173.2 141.9,175.2 142.7,176.4 143.5,187.5 144.2,188.1 145.0,184.9 145.8,188.1 146.6,193.9 147.4,192.9 148.2,192.4 149.0,189.0 149.8,193.0 150.6,196.5 151.4,195.4 152.2,192.7 153.0,197.9 153.8,195.0 154.6,189.4 155.4,190.4 156.2,192.7 157.0,193.5 157.8,191.9 158.6,200.2 159.4,201.2 160.1,198.0 160.9,202.0 161.7,202.5 162.5,196.5 163.3,189.4 164.1,188.9 164.9,195.1 165.7,199.9 166.5,194.2 167.3,197.0 168.1,204.6 168.9,207.9 169.7,210.8 170.5,213.6 171.3,210.4 172.1,215.7 172.9,212.2 173.7,218.1 174.5,209.5 175.3,208.2 176.0,212.4 176.8,206.3 177.6,194.5 178.4,197.1 179.2,202.5 180.0,207.9 180.8,212.7 181.6,210.8 182.4,214.2 183.2,192.2 184.0,192.1 184.8,198.5 185.6,199.4 186.4,196.4 187.2,199.6 188.0,196.1 188.8,193.3 189.6,196.4 190.4,198.8 191.2,195.4 192.0,196.5 192.7,177.5 193.5,178.2 194.3,181.0 195.1,183.1 195.9,183.1 196.7,183.0 197.5,183.6 198.3,183.7 199.1,170.6 199.9,159.6 200.7,165.7 201.5,168.3 202.3,170.6 203.1,174.0 203.9,173.2 204.7,171.4 205.5,170.0 206.3,162.5 207.1,156.0 207.9,154.5 208.6,155.8 209.4,165.4 210.2,164.7 211.0,167.3 211.8,167.1 212.6,173.7 213.4,172.7 214.2,175.9 215.0,175.3 215.8,182.8 216.6,193.6 217.4,196.8 218.2,192.9 219.0,187.7 219.8,184.5 220.6,189.0 221.4,186.0 222.2,189.5 223.0,190.9 223.8,200.5 224.5,206.1 225.3,198.2 226.1,199.4 226.9,202.0 227.7,203.2 228.5,206.7 229.3,204.1 230.1,202.3 230.9,200.0 231.7,206.6 232.5,202.2 233.3,192.4 234.1,196.1 234.9,198.3 235.7,195.1 236.5,199.1 237.3,199.4 238.1,202.0 238.9,201.5 239.7,202.5 240.4,194.5 241.2,189.4 242.0,194.4 242.8,198.6 243.6,201.4 244.4,201.2 245.2,197.0 246.0,200.8 246.8,202.6 247.6,202.3 248.4,204.9 249.2,201.8 250.0,198.3 250.8,195.6 251.6,184.8 252.4,183.1 253.2,187.1 254.0,190.4 254.8,191.9 255.6,188.9 256.3,185.8 257.1,187.4 257.9,192.9 258.7,189.2 259.5,191.3 260.3,190.4 261.1,190.4 261.9,184.5 262.7,193.9 263.5,194.5 264.3,197.4 265.1,202.8 265.9,206.9 266.7,205.4 267.5,205.0 268.3,202.2 269.1,199.1 269.9,199.3 270.7,201.7 271.5,204.0 272.2,204.1 273.0,198.0 273.8,201.5 274.6,198.2 275.4,194.4 276.2,190.3 277.0,190.1 277.8,182.8 278.6,185.2 279.4,178.7 280.2,182.6 281.0,179.6 281.8,175.2 282.6,171.6 283.4,177.8 284.2,177.3 285.0,180.8 285.8,183.0 286.6,185.2 287.4,188.6 288.1,186.8 288.9,189.8 289.7,194.1 290.5,187.2 291.3,186.6 292.1,185.4 292.9,184.0 293.7,183.7 294.5,184.9 295.3,186.9 296.1,190.4 296.9,188.9 297.7,185.5 298.5,189.2 299.3,190.0 300.1,198.0 300.9,198.6 301.7,197.6 302.5,203.2 303.3,200.0 304.0,202.3 304.8,203.2 305.6,202.2 306.4,199.0 307.2,210.1 308.0,209.3 308.8,208.7 309.6,208.2 310.4,208.9 311.2,211.6 312.0,208.9 312.8,192.4 313.6,191.6 314.4,187.7 315.2,185.7 316.0,184.9 316.8,190.3 317.6,189.2 318.4,188.6 319.2,181.6 320.0,184.9 320.7,182.2 321.5,175.9 322.3,179.9 323.1,178.4 323.9,177.8 324.7,182.0 325.5,187.7 326.3,199.6 327.1,197.7 327.9,195.8 328.7,190.0 329.5,192.6 330.3,192.1 331.1,186.9 331.9,187.7 332.7,184.3 333.5,186.9 334.3,185.5 335.1,190.1 335.9,186.8 336.6,188.6 337.4,174.4 338.2,174.1 339.0,176.6 339.8,176.6 340.6,175.6 341.4,178.5 342.2,180.5 343.0,181.9 343.8,182.5 344.6,184.5 345.4,187.4 346.2,186.2 347.0,185.4 347.8,183.3 348.6,177.9 349.4,171.1 350.2,167.9 351.0,167.1 351.8,163.4 352.5,170.5 353.3,172.3 354.1,171.8 354.9,173.0 355.7,172.7 356.5,172.4 357.3,171.8 358.1,176.4 358.9,178.1 359.7,182.3 360.5,184.6 361.3,184.6 362.1,184.3 362.9,184.8 363.7,183.7 364.5,181.9 365.3,182.8 366.1,181.7 366.9,177.6 367.7,181.6 368.4,182.2 369.2,185.8 370.0,184.3 370.8,184.2 371.6,186.3 372.4,187.5 373.2,184.5 374.0,185.4 374.8,186.2 375.6,188.6 376.4,196.8 377.2,199.0 378.0,199.6 378.8,198.8 379.6,199.7 380.4,195.9 381.2,194.8 382.0,204.0 382.8,205.7 383.6,207.3 384.3,206.3 385.1,211.9 385.9,210.5 386.7,212.4 387.5,211.9 388.3,211.9 389.1,213.0 389.9,215.4 390.7,210.8 391.5,211.3 392.3,211.0 393.1,213.7 393.9,211.1 394.7,214.8 395.5,215.1 396.3,217.4 397.1,223.3 397.9,223.2 398.7,226.4 399.5,226.4 400.2,225.6 401.0,228.2 401.8,235.2 402.6,237.2 403.4,240.9 404.2,239.2 405.0,239.2 405.8,237.5 406.6,241.0 407.4,240.5 408.2,234.5 409.0,237.8 409.8,240.5 410.6,242.7 411.4,245.4 412.2,248.6 413.0,253.8 413.8,252.0 414.6,248.8 415.4,246.9 416.1,245.0 416.9,245.1 417.7,245.4 418.5,249.1 419.3,249.4 420.1,247.3 420.9,242.1 421.7,247.7 422.5,250.8 423.3,247.1 424.1,247.3 424.9,249.7 425.7,252.7 426.5,253.0 427.3,246.9 428.1,254.1 428.9,257.3 429.7,259.9 430.5,252.9 431.3,247.7 432.0,248.8 432.8,247.9 433.6,249.1 434.4,249.8 435.2,247.9 436.0,243.3 436.8,239.2 437.6,244.2 438.4,243.0 439.2,241.8 440.0,248.5 440.8,247.1 441.6,247.3 442.4,245.6 443.2,243.7 444.0,243.9 444.8,244.1 445.6,252.0 446.4,259.4 447.2,261.1 448.0,258.1 448.7,257.3 449.5,260.5 450.3,258.1 451.1,257.6 451.9,255.3 452.7,258.7 453.5,259.0 454.3,256.4 455.1,260.5 455.9,253.0 456.7,261.1 457.5,261.7 458.3,264.2 459.1,268.1 459.9,278.2 460.7,283.8 461.5,278.6 462.3,285.0 463.1,283.2 463.9,281.5 464.6,285.0 465.4,287.3 466.2,284.0 467.0,285.2 467.8,282.1 468.6,283.2 469.4,283.2 470.2,282.9 471.0,282.5 471.8,280.1 472.6,280.0 473.4,278.8 474.2,277.1 475.0,283.5 475.8,288.1 476.6,284.4 477.4,282.9 478.2,283.2 479.0,282.3 479.8,284.3 480.5,284.9 481.3,286.1 482.1,286.9 482.9,285.0 483.7,282.3 484.5,287.9 485.3,287.9 486.1,290.1 486.9,287.9 487.7,289.3 488.5,286.1 489.3,286.3 490.1,283.8 490.9,272.2 491.7,273.9 492.5,272.9 493.3,271.5 494.1,268.7 494.9,263.4 495.7,268.7 496.4,266.3 497.2,270.3 498.0,266.9 498.8,266.5 499.6,267.2 500.4,265.1 501.2,263.3 502.0,261.3 502.8,262.8 503.6,258.8 504.4,265.2 505.2,263.7 506.0,260.7 506.8,262.9 507.6,262.8 508.4,265.2 509.2,262.2 510.0,260.7 510.8,257.8 511.6,259.0 512.3,258.8 513.1,265.2 513.9,264.2 514.7,263.3 515.5,264.2 516.3,264.0 517.1,261.4 517.9,262.0 518.7,264.2 519.5,264.6 520.3,267.4 521.1,267.4 521.9,271.9 522.7,273.2 523.5,271.6 524.3,272.7 525.1,271.9 525.9,272.2 526.7,273.6 527.5,272.1 528.2,272.2 529.0,264.8 529.8,260.4 530.6,259.3 531.4,258.8 532.2,259.1 533.0,257.0 533.8,257.9 534.6,259.3 535.4,252.7 536.2,252.7 537.0,254.0 537.8,253.8 538.6,252.4 539.4,250.3 540.2,253.7 541.0,253.7 541.8,252.0 542.6,249.8 543.4,249.5 544.1,248.5 544.9,249.2 545.7,246.6 546.5,247.9 547.3,247.4 548.1,245.3 548.9,248.9 549.7,247.3 550.5,256.1 551.3,255.2 552.1,252.0 552.9,251.5 553.7,252.3 554.5,253.5 555.3,256.5 556.1,257.3 556.9,256.9 557.7,258.1 558.5,258.2 559.3,259.6 560.0,261.0 560.8,262.5 561.6,264.8 562.4,268.6 563.2,268.3 564.0,266.1 564.8,266.6 565.6,268.0 566.4,269.3 567.2,268.0 568.0,267.5 568.8,265.4 569.6,263.4 570.4,261.3 571.2,263.7 572.0,266.8 572.8,269.0 573.6,270.4 574.4,271.2 575.2,270.0 576.0,271.8 576.7,270.4 577.5,275.9 578.3,272.9 579.1,269.7 579.9,265.2 580.7,264.3 581.5,265.8 582.3,270.3 583.1,270.3 583.9,268.6 584.7,270.1 585.5,272.1 586.3,267.8 587.1,266.1 587.9,265.5 588.7,262.8 589.5,260.8 590.3,263.4 591.1,263.6 591.9,262.6 592.6,264.6 593.4,266.5 594.2,266.3 595.0,267.5 595.8,266.1 596.6,266.9 597.4,266.1 598.2,267.8 599.0,268.7 599.8,269.2 600.6,264.0 601.4,265.4 602.2,266.8 603.0,269.8 603.8,267.7 604.6,262.8 605.4,260.5 606.2,258.4 607.0,257.3 607.8,259.0 608.5,258.4 609.3,256.9 610.1,258.4 610.9,257.9 611.7,254.0 612.5,248.3 613.3,248.8 614.1,245.9 614.9,243.7 615.7,246.5 616.5,248.2 617.3,246.0 618.1,246.2 618.9,257.6 619.7,260.1 620.5,261.7 621.3,265.1 622.1,261.9 622.9,263.6 623.7,265.5 624.4,264.0 625.2,260.5 626.0,262.5 626.8,261.9 627.6,261.0 628.4,260.2 629.2,260.7 630.0,263.3 630.8,259.0 631.6,256.4 632.4,254.9 633.2,255.0 634.0,250.8 634.8,250.3 635.6,250.9 636.4,249.4 637.2,246.9 638.0,245.3 638.8,247.7 639.6,252.3 640.3,250.3 641.1,251.5 641.9,255.3 642.7,260.4 643.5,261.1 644.3,259.1 645.1,260.8 645.9,261.1 646.7,259.9 647.5,257.8 648.3,259.0 649.1,259.1 649.9,264.5 650.7,261.3 651.5,263.3 652.3,265.1 653.1,266.0 653.9,270.7 654.7,270.4 655.5,267.4 656.2,267.8 657.0,259.3 657.8,259.9 658.6,261.1 659.4,259.4 660.2,257.5 661.0,256.1 661.8,256.9 662.6,254.4 663.4,253.2 664.2,256.7 665.0,252.7 665.8,254.7 666.6,254.6 667.4,257.2 668.2,255.6 669.0,256.2 669.8,254.9 670.6,254.4 671.4,256.1 672.1,252.1 672.9,254.1 673.7,257.2 674.5,252.1 675.3,248.5 676.1,248.1 676.9,249.7 677.7,249.4 678.5,250.6 679.3,251.1 680.1,252.3 680.9,255.0 681.7,253.5 682.5,253.2 683.3,252.4 684.1,252.4 684.9,251.5 685.7,249.2 686.5,248.5 687.3,247.9 688.0,247.4 688.8,247.4 689.6,247.6 690.4,247.6 691.2,245.6 692.0,245.5 692.8,246.9 693.6,244.5 694.4,246.0 695.2,243.6 696.0,243.3"/>
  <polyline fill="none" stroke="#16a34a" stroke-width="2" points="56.0,78.0 56.8,84.8 57.6,65.9 58.4,117.7 59.2,103.9 60.0,106.9 60.8,121.7 61.6,112.6 62.4,112.1 63.2,114.5 64.0,123.5 64.7,130.2 65.5,140.9 66.3,123.7 67.1,122.9 67.9,121.4 68.7,125.2 69.5,124.7 70.3,121.7 71.1,132.1 71.9,140.0 72.7,136.9 73.5,136.8 74.3,143.6 75.1,146.7 75.9,144.7 76.7,138.3 77.5,131.5 78.3,129.8 79.1,130.2 79.9,128.1 80.6,128.1 81.4,128.1 82.2,125.7 83.0,134.3 83.8,131.3 84.6,132.4 85.4,134.5 86.2,134.0 87.0,138.8 87.8,149.7 88.6,157.0 89.4,153.7 90.2,148.4 91.0,146.5 91.8,145.2 92.6,137.4 93.4,153.7 94.2,152.0 95.0,144.2 95.8,146.7 96.5,150.6 97.3,153.7 98.1,160.2 98.9,166.2 99.7,167.1 100.5,168.9 101.3,170.2 102.1,171.1 102.9,176.1 103.7,179.4 104.5,171.8 105.3,170.0 106.1,168.6 106.9,164.1 107.7,159.2 108.5,153.1 109.3,152.6 110.1,155.4 110.9,150.6 111.7,149.6 112.4,145.3 113.2,142.9 114.0,143.9 114.8,152.6 115.6,160.6 116.4,158.0 117.2,152.6 118.0,154.2 118.8,153.2 119.6,149.7 120.4,146.4 121.2,142.4 122.0,146.4 122.8,145.8 123.6,145.2 124.4,149.3 125.2,156.5 126.0,153.5 126.8,156.3 127.6,154.3 128.3,173.5 129.1,175.5 129.9,173.0 130.7,174.6 131.5,177.0 132.3,177.8 133.1,180.8 133.9,181.4 134.7,181.3 135.5,179.3 136.3,177.6 137.1,173.5 137.9,176.6 138.7,175.9 139.5,174.7 140.3,173.0 141.1,173.2 141.9,175.2 142.7,176.4 143.5,187.5 144.2,188.1 145.0,184.9 145.8,188.1 146.6,193.9 147.4,192.9 148.2,192.4 149.0,189.0 149.8,193.0 150.6,196.5 151.4,195.4 152.2,192.7 153.0,197.9 153.8,195.0 154.6,189.4 155.4,190.4 156.2,192.7 157.0,193.5 157.8,191.9 158.6,200.2 159.4,201.2 160.1,198.0 160.9,202.0 161.7,202.5 162.5,196.5 163.3,189.4 164.1,188.9 164.9,195.1 165.7,199.9 166.5,194.2 167.3,197.0 168.1,204.6 168.9,207.9 169.7,210.8 170.5,213.6 171.3,210.4 172.1,215.7 172.9,212.2 173.7,218.1 174.5,209.5 175.3,208.2 176.0,212.4 176.8,206.3 177.6,194.5 178.4,197.1 179.2,202.5 180.0,207.9 180.8,212.7 181.6,210.8 182.4,214.2 183.2,192.2 184.0,192.1 184.8,198.5 185.6,199.4 186.4,196.4 187.2,199.6 188.0,196.1 188.8,193.3 189.6,196.4 190.4,198.8 191.2,195.4 192.0,196.5 192.7,177.5 193.5,178.2 194.3,181.0 195.1,183.1 195.9,183.1 196.7,183.0 197.5,183.6 198.3,183.7 199.1,170.6 199.9,159.6 200.7,165.7 201.5,168.3 202.3,170.6 203.1,174.0 203.9,173.2 204.7,171.4 205.5,170.0 206.3,162.5 207.1,156.0 207.9,154.5 208.6,155.8 209.4,165.4 210.2,164.7 211.0,167.3 211.8,167.1 212.6,173.7 213.4,172.7 214.2,175.9 215.0,175.3 215.8,182.8 216.6,193.6 217.4,196.8 218.2,192.9 219.0,187.7 219.8,184.5 220.6,189.0 221.4,186.0 222.2,189.5 223.0,190.9 223.8,200.5 224.5,206.1 225.3,198.2 226.1,199.4 226.9,202.0 227.7,203.2 228.5,206.7 229.3,204.1 230.1,202.3 230.9,200.0 231.7,206.6 232.5,202.2 233.3,192.4 234.1,196.1 234.9,198.3 235.7,195.1 236.5,199.1 237.3,199.4 238.1,202.0 238.9,201.5 239.7,202.5 240.4,194.5 241.2,189.4 242.0,194.4 242.8,198.6 243.6,201.4 244.4,201.2 245.2,197.0 246.0,200.8 246.8,202.6 247.6,202.3 248.4,204.9 249.2,201.8 250.0,198.3 250.8,195.6 251.6,184.8 252.4,183.1 253.2,187.1 254.0,190.4 254.8,191.9 255.6,188.9 256.3,185.8 257.1,187.4 257.9,192.9 258.7,189.2 259.5,191.3 260.3,190.4 261.1,190.4 261.9,184.5 262.7,193.9 263.5,194.5 264.3,197.4 265.1,202.8 265.9,206.9 266.7,205.4 267.5,205.0 268.3,202.2 269.1,199.1 269.9,199.3 270.7,201.7 271.5,204.0 272.2,204.1 273.0,198.0 273.8,201.5 274.6,198.2 275.4,194.4 276.2,190.3 277.0,190.1 277.8,182.8 278.6,185.2 279.4,178.7 280.2,182.6 281.0,179.6 281.8,175.2 282.6,171.6 283.4,177.8 284.2,177.3 285.0,180.8 285.8,183.0 286.6,185.2 287.4,188.6 288.1,186.8 288.9,189.8 289.7,194.1 290.5,187.2 291.3,186.6 292.1,185.4 292.9,184.0 293.7,183.7 294.5,184.9 295.3,186.9 296.1,190.4 296.9,188.9 297.7,185.5 298.5,189.2 299.3,190.0 300.1,198.0 300.9,198.6 301.7,197.6 302.5,203.2 303.3,200.0 304.0,202.3 304.8,203.2 305.6,202.2 306.4,199.0 307.2,210.1 308.0,209.3 308.8,208.7 309.6,208.2 310.4,208.9 311.2,211.6 312.0,208.9 312.8,192.4 313.6,191.6 314.4,187.7 315.2,185.7 316.0,184.9 316.8,190.3 317.6,189.2 318.4,188.6 319.2,181.6 320.0,184.9 320.7,182.2 321.5,175.9 322.3,179.9 323.1,178.4 323.9,177.8 324.7,182.0 325.5,187.7 326.3,199.6 327.1,197.7 327.9,195.8 328.7,190.0 329.5,192.6 330.3,192.1 331.1,186.9 331.9,187.7 332.7,184.3 333.5,186.9 334.3,185.5 335.1,190.1 335.9,186.8 336.6,188.6 337.4,174.4 338.2,174.1 339.0,176.6 339.8,176.6 340.6,175.6 341.4,178.5 342.2,180.5 343.0,181.9 343.8,182.5 344.6,184.5 345.4,187.4 346.2,186.2 347.0,185.4 347.8,183.3 348.6,177.9 349.4,171.1 350.2,167.9 351.0,167.1 351.8,163.4 352.5,170.5 353.3,172.3 354.1,171.8 354.9,173.0 355.7,172.7 356.5,172.4 357.3,171.8 358.1,176.4 358.9,178.1 359.7,182.3 360.5,184.6 361.3,184.6 362.1,184.3 362.9,184.8 363.7,183.7 364.5,181.9 365.3,182.8 366.1,181.7 366.9,177.6 367.7,181.6 368.4,182.2 369.2,185.8 370.0,184.3 370.8,184.2 371.6,186.3 372.4,187.5 373.2,184.5 374.0,185.4 374.8,186.2 375.6,188.6 376.4,196.8 377.2,199.0 378.0,199.6 378.8,198.8 379.6,199.7 380.4,195.9 381.2,194.8 382.0,204.0 382.8,205.7 383.6,207.3 384.3,206.3 385.1,211.9 385.9,210.5 386.7,212.4 387.5,211.9 388.3,211.9 389.1,213.0 389.9,215.4 390.7,210.8 391.5,211.3 392.3,211.0 393.1,213.7 393.9,211.1 394.7,214.8 395.5,215.1 396.3,217.4 397.1,223.3 397.9,223.2 398.7,226.4 399.5,226.4 400.2,225.6 401.0,228.2 401.8,235.2 402.6,237.2 403.4,240.9 404.2,239.2 405.0,239.2 405.8,237.5 406.6,241.0 407.4,240.5 408.2,234.5 409.0,237.8 409.8,240.5 410.6,242.7 411.4,245.4 412.2,248.6 413.0,253.8 413.8,252.0 414.6,248.8 415.4,246.9 416.1,245.0 416.9,245.1 417.7,245.4 418.5,249.1 419.3,249.4 420.1,247.3 420.9,242.1 421.7,247.7 422.5,250.8 423.3,247.1 424.1,247.3 424.9,249.7 425.7,252.7 426.5,253.0 427.3,246.9 428.1,254.1 428.9,257.3 429.7,259.9 430.5,252.9 431.3,247.7 432.0,248.8 432.8,247.9 433.6,249.1 434.4,249.8 435.2,247.9 436.0,243.3 436.8,239.2 437.6,244.2 438.4,243.0 439.2,241.8 440.0,248.5 440.8,247.1 441.6,247.3 442.4,245.6 443.2,243.7 444.0,243.9 444.8,244.1 445.6,252.0 446.4,259.4 447.2,261.1 448.0,258.1 448.7,257.3 449.5,260.5 450.3,258.1 451.1,257.6 451.9,255.3 452.7,258.7 453.5,259.0 454.3,256.4 455.1,260.5 455.9,253.0 456.7,261.1 457.5,261.7 458.3,264.2 459.1,268.1 459.9,278.2 460.7,283.8 461.5,278.6 462.3,285.0 463.1,283.2 463.9,281.5 464.6,285.0 465.4,287.3 466.2,284.0 467.0,285.2 467.8,282.1 468.6,283.2 469.4,283.2 470.2,282.9 471.0,282.5 471.8,280.1 472.6,280.0 473.4,278.8 474.2,277.1 475.0,283.5 475.8,288.1 476.6,284.4 477.4,282.9 478.2,283.2 479.0,282.3 479.8,284.3 480.5,284.9 481.3,286.1 482.1,286.9 482.9,285.0 483.7,282.3 484.5,287.9 485.3,287.9 486.1,290.1 486.9,287.9 487.7,289.3 488.5,286.1 489.3,286.3 490.1,283.8 490.9,272.2 491.7,273.9 492.5,272.9 493.3,271.5 494.1,268.7 494.9,263.4 495.7,268.7 496.4,266.3 497.2,270.3 498.0,266.9 498.8,266.5 499.6,267.2 500.4,265.1 501.2,263.3 502.0,261.3 502.8,262.8 503.6,258.8 504.4,265.2 505.2,263.7 506.0,260.7 506.8,262.9 507.6,262.8 508.4,265.2 509.2,262.2 510.0,260.7 510.8,257.8 511.6,259.0 512.3,258.8 513.1,265.2 513.9,264.2 514.7,263.3 515.5,264.2 516.3,264.0 517.1,261.4 517.9,262.0 518.7,264.2 519.5,264.6 520.3,267.4 521.1,267.4 521.9,271.9 522.7,273.2 523.5,271.6 524.3,272.7 525.1,271.9 525.9,272.2 526.7,273.6 527.5,272.1 528.2,272.2 529.0,264.8 529.8,260.4 530.6,259.3 531.4,258.8 532.2,259.1 533.0,257.0 533.8,257.9 534.6,259.3 535.4,252.7 536.2,252.7 537.0,254.0 537.8,253.8 538.6,252.4 539.4,250.3 540.2,253.7 541.0,253.7 541.8,252.0 542.6,249.8 543.4,249.5 544.1,248.5 544.9,249.2 545.7,246.6 546.5,247.9 547.3,247.4 548.1,245.3 548.9,248.9 549.7,247.3 550.5,256.1 551.3,255.2 552.1,252.0 552.9,251.5 553.7,252.3 554.5,253.5 555.3,256.5 556.1,257.3 556.9,256.9 557.7,258.1 558.5,258.2 559.3,259.6 560.0,261.0 560.8,262.5 561.6,264.8 562.4,268.6 563.2,268.3 564.0,266.1 564.8,266.6 565.6,268.0 566.4,269.3 567.2,268.0 568.0,267.5 568.8,265.4 569.6,263.4 570.4,261.3 571.2,263.7 572.0,266.8 572.8,269.0 573.6,270.4 574.4,271.2 575.2,270.0 576.0,271.8 576.7,270.4 577.5,275.9 578.3,272.9 579.1,269.7 579.9,265.2 580.7,264.3 581.5,265.8 582.3,270.3 583.1,270.3 583.9,268.6 584.7,270.1 585.5,272.1 586.3,267.8 587.1,266.1 587.9,265.5 588.7,262.8 589.5,260.8 590.3,263.4 591.1,263.6 591.9,262.6 592.6,264.6 593.4,266.5 594.2,266.3 595.0,267.5 595.8,266.1 596.6,266.9 597.4,266.1 598.2,267.8 599.0,268.7 599.8,269.2 600.6,264.0 601.4,265.4 602.2,266.8 603.0,269.8 603.8,267.7 604.6,262.8 605.4,260.5 606.2,258.4 607.0,257.3 607.8,259.0 608.5,258.4 609.3,256.9 610.1,258.4 610.9,257.9 611.7,254.0 612.5,248.3 613.3,248.8 614.1,245.9 614.9,243.7 615.7,246.5 616.5,248.2 617.3,246.0 618.1,246.2 618.9,257.6 619.7,260.1 620.5,261.7 621.3,265.1 622.1,261.9 622.9,263.6 623.7,265.5 624.4,264.0 625.2,260.5 626.0,262.5 626.8,261.9 627.6,261.0 628.4,260.2 629.2,260.7 630.0,263.3 630.8,259.0 631.6,256.4 632.4,254.9 633.2,255.0 634.0,250.8 634.8,250.3 635.6,250.9 636.4,249.4 637.2,246.9 638.0,245.3 638.8,247.7 639.6,252.3 640.3,250.3 641.1,251.5 641.9,255.3 642.7,260.4 643.5,261.1 644.3,259.1 645.1,260.8 645.9,261.1 646.7,259.9 647.5,257.8 648.3,259.0 649.1,259.1 649.9,264.5 650.7,261.3 651.5,263.3 652.3,265.1 653.1,266.0 653.9,270.7 654.7,270.4 655.5,267.4 656.2,267.8 657.0,259.3 657.8,259.9 658.6,261.1 659.4,259.4 660.2,257.5 661.0,256.1 661.8,256.9 662.6,254.4 663.4,253.2 664.2,256.7 665.0,252.7 665.8,254.7 666.6,254.6 667.4,257.2 668.2,255.6 669.0,256.2 669.8,254.9 670.6,254.4 671.4,256.1 672.1,252.1 672.9,254.1 673.7,257.2 674.5,252.1 675.3,248.5 676.1,248.1 676.9,249.7 677.7,249.4 678.5,250.6 679.3,251.1 680.1,252.3 680.9,255.0 681.7,253.5 682.5,253.2 683.3,252.4 684.1,252.4 684.9,251.5 685.7,249.2 686.5,248.5 687.3,247.9 688.0,247.4 688.8,247.4 689.6,247.6 690.4,247.6 691.2,245.6 692.0,245.5 692.8,246.9 693.6,244.5 694.4,246.0 695.2,243.6 696.0,243.3"/>
  <text x="60" y="62" font-size="11" fill="#2563eb">Price index</text>
  <text x="146" y="62" font-size="11" fill="#16a34a">Total return (price + distributions)</text>
  <text x="56" y="348" font-size="11" text-anchor="middle" fill="#444">2023-03</text><text x="216" y="348" font-size="11" text-anchor="middle" fill="#444">2024-01</text><text x="376" y="348" font-size="11" text-anchor="middle" fill="#444">2024-11</text><text x="536" y="348" font-size="11" text-anchor="middle" fill="#444">2025-08</text><text x="696" y="348" font-size="11" text-anchor="middle" fill="#444">2026-06</text>
</svg>
