<svg xmlns="http://www.w3.org/2000/svg" width="820" height="410" viewBox="0 0 820 410">
<rect width="820" height="410" fill="#fafafa"/><text x="78" y="22" font-size="14" font-family="sans-serif" fill="#0f172a">STHO cumulative return since 2023-03-28 | dividends reinvested</text>
<text x="78" y="40" font-size="11" font-family="sans-serif" fill="#334155">Total return -53.0% | Price-only -53.0% | logarithmic scale</text>
<text x="78" y="54" font-size="9" font-family="sans-serif" fill="#64748b">Regular $0.00 | Special $0.00 | Other $0.00 per initial share path</text>
<line x1="78" y1="332.0" x2="796" y2="332.0" stroke="#e2e8f0"/><text x="70" y="336.0" font-size="10" text-anchor="end" fill="#64748b">-71.8%</text><line x1="78" y1="287.0" x2="796" y2="287.0" stroke="#e2e8f0"/><text x="70" y="291.0" font-size="10" text-anchor="end" fill="#64748b">-64.5%</text><line x1="78" y1="242.0" x2="796" y2="242.0" stroke="#e2e8f0"/><text x="70" y="246.0" font-size="10" text-anchor="end" fill="#64748b">-55.3%</text><line x1="78" y1="197.0" x2="796" y2="197.0" stroke="#e2e8f0"/><text x="70" y="201.0" font-size="10" text-anchor="end" fill="#64748b">-43.8%</text><line x1="78" y1="152.0" x2="796" y2="152.0" stroke="#e2e8f0"/><text x="70" y="156.0" font-size="10" text-anchor="end" fill="#64748b">-29.3%</text><line x1="78" y1="107.0" x2="796" y2="107.0" stroke="#e2e8f0"/><text x="70" y="111.0" font-size="10" text-anchor="end" fill="#64748b">-11.0%</text><line x1="78" y1="84.1" x2="796" y2="84.1" stroke="#e2e8f0"/><text x="70" y="88.1" font-size="10" text-anchor="end" fill="#64748b">0%</text><line x1="78" y1="62.0" x2="796" y2="62.0" stroke="#e2e8f0"/><text x="70" y="66.0" font-size="10" text-anchor="end" fill="#64748b">+11.9%</text>
<line x1="78" y1="332" x2="796" y2="332" stroke="#cbd5e1"/>
<polyline fill="none" stroke="#2563eb" stroke-width="2" points="78.0,84.1 78.9,88.5 79.7,76.5 80.6,111.5 81.5,101.5 82.3,103.6 83.2,114.4 84.1,107.7 84.9,107.4 85.8,109.1 86.7,115.8 87.5,121.0 88.4,129.4 89.3,115.9 90.1,115.4 91.0,114.2 91.9,117.1 92.7,116.7 93.6,114.4 94.5,122.4 95.3,128.7 96.2,126.2 97.1,126.1 97.9,131.7 98.8,134.2 99.7,132.5 100.5,127.3 101.4,121.9 102.3,120.6 103.1,121.0 104.0,119.3 104.8,119.3 105.7,119.3 106.6,117.4 107.4,124.2 108.3,121.8 109.2,122.6 110.0,124.3 110.9,123.9 111.8,127.7 112.6,136.7 113.5,143.0 114.4,140.1 115.2,135.6 116.1,134.0 117.0,132.9 117.8,126.6 118.7,140.1 119.6,138.6 120.4,132.2 121.3,134.2 122.2,137.5 123.0,140.1 123.9,145.8 124.8,151.1 125.6,151.9 126.5,153.6 127.4,154.7 128.2,155.5 129.1,160.3 130.0,163.5 130.8,156.3 131.7,154.6 132.6,153.3 133.4,149.2 134.3,144.8 135.2,139.6 136.0,139.2 136.9,141.5 137.8,137.5 138.6,136.6 139.5,133.0 140.4,131.0 141.2,131.9 142.1,139.2 143.0,146.0 143.8,143.8 144.7,139.2 145.6,140.5 146.4,139.7 147.3,136.7 148.2,133.9 149.0,130.7 149.9,133.9 150.8,133.4 151.6,132.9 152.5,136.3 153.4,142.5 154.2,139.9 155.1,142.3 155.9,140.6 156.8,157.8 157.7,159.7 158.5,157.4 159.4,158.8 160.3,161.1 161.1,161.9 162.0,164.8 162.9,165.4 163.7,165.2 164.6,163.3 165.5,161.7 166.3,157.8 167.2,160.7 168.1,160.1 168.9,159.0 169.8,157.4 170.7,157.5 171.5,159.4 172.4,160.5 173.3,171.4 174.1,172.0 175.0,168.8 175.9,172.0 176.7,178.0 177.6,176.8 178.5,176.4 179.3,173.0 180.2,177.0 181.1,180.7 181.9,179.5 182.8,176.7 183.7,182.1 184.5,179.1 185.4,173.3 186.3,174.3 187.1,176.7 188.0,177.5 188.9,175.9 189.7,184.5 190.6,185.7 191.5,182.3 192.3,186.5 193.2,187.0 194.1,180.7 194.9,173.3 195.8,172.8 196.7,179.2 197.5,184.2 198.4,178.3 199.3,181.1 200.1,189.4 201.0,193.1 201.9,196.4 202.7,199.5 203.6,195.8 204.5,202.0 205.3,197.9 206.2,204.9 207.0,194.8 207.9,193.4 208.8,198.1 209.6,191.2 210.5,178.5 211.4,181.3 212.2,187.0 213.1,193.1 214.0,198.5 214.8,196.4 215.7,200.2 216.6,176.2 217.4,176.1 218.3,182.8 219.2,183.7 220.0,180.5 220.9,183.9 221.8,180.2 222.6,177.3 223.5,180.5 224.4,183.1 225.2,179.5 226.1,180.7 227.0,161.6 227.8,162.3 228.7,164.9 229.6,167.0 230.4,167.0 231.3,166.9 232.2,167.5 233.0,167.6 233.9,155.1 234.8,145.2 235.6,150.7 236.5,153.0 237.4,155.1 238.2,158.2 239.1,157.5 240.0,155.8 240.8,154.6 241.7,147.8 242.6,142.0 243.4,140.7 244.3,141.9 245.2,150.4 246.0,149.7 246.9,152.0 247.8,151.9 248.6,158.0 249.5,157.1 250.4,160.1 251.2,159.5 252.1,166.7 253.0,177.6 253.8,181.0 254.7,176.8 255.6,171.6 256.4,168.4 257.3,173.0 258.1,169.9 259.0,173.4 259.9,174.8 260.7,184.9 261.6,191.0 262.5,182.4 263.3,183.7 264.2,186.5 265.1,187.9 265.9,191.7 266.8,188.9 267.7,186.9 268.5,184.4 269.4,191.5 270.3,186.7 271.1,176.4 272.0,180.2 272.9,182.6 273.7,179.2 274.6,183.4 275.5,183.7 276.3,186.5 277.2,186.0 278.1,187.0 278.9,178.6 279.8,173.3 280.7,178.4 281.5,182.9 282.4,185.9 283.3,185.7 284.1,181.1 285.0,185.2 285.9,187.2 286.7,186.9 287.6,189.7 288.5,186.4 289.3,182.6 290.2,179.7 291.1,168.7 291.9,167.0 292.8,171.0 293.7,174.3 294.5,175.9 295.4,172.8 296.3,169.7 297.1,171.3 298.0,176.8 298.9,173.1 299.7,175.3 300.6,174.3 301.5,174.3 302.3,168.4 303.2,178.0 304.1,178.6 304.9,181.6 305.8,187.4 306.7,191.9 307.5,190.2 308.4,189.9 309.2,186.7 310.1,183.4 311.0,183.6 311.8,186.2 312.7,188.7 313.6,188.9 314.4,182.3 315.3,186.0 316.2,182.4 317.0,178.4 317.9,174.2 318.8,174.0 319.6,166.7 320.5,169.1 321.4,162.7 322.2,166.6 323.1,163.6 324.0,159.4 324.8,156.0 325.7,161.9 326.6,161.4 327.4,164.8 328.3,166.9 329.2,169.1 330.0,172.5 330.9,170.7 331.8,173.7 332.6,178.1 333.5,171.1 334.4,170.5 335.2,169.3 336.1,167.9 337.0,167.6 337.8,168.8 338.7,170.8 339.6,174.3 340.4,172.8 341.3,169.4 342.2,173.1 343.0,173.9 343.9,182.3 344.8,182.9 345.6,181.8 346.5,187.9 347.4,184.4 348.2,186.9 349.1,187.9 350.0,186.7 350.8,183.2 351.7,195.5 352.6,194.6 353.4,193.9 354.3,193.4 355.2,194.1 356.0,197.2 356.9,194.1 357.8,176.4 358.6,175.6 359.5,171.6 360.3,169.6 361.2,168.8 362.1,174.2 362.9,173.1 363.8,172.5 364.7,165.5 365.5,168.8 366.4,166.1 367.3,160.1 368.1,163.9 369.0,162.4 369.9,161.9 370.7,166.0 371.6,171.6 372.5,183.9 373.3,181.9 374.2,179.9 375.1,173.9 375.9,176.5 376.8,176.1 377.7,170.8 378.5,171.6 379.4,168.2 380.3,170.8 381.1,169.4 382.0,174.0 382.9,170.7 383.7,172.5 384.6,158.7 385.5,158.4 386.3,160.7 387.2,160.7 388.1,159.8 388.9,162.6 389.8,164.5 390.7,165.8 391.5,166.4 392.4,168.4 393.3,171.3 394.1,170.0 395.0,169.3 395.9,167.2 396.7,162.0 397.6,155.5 398.5,152.6 399.3,151.9 400.2,148.6 401.1,155.0 401.9,156.7 402.8,156.3 403.7,157.4 404.5,157.1 405.4,156.8 406.3,156.3 407.1,160.5 408.0,162.1 408.9,166.3 409.7,168.5 410.6,168.5 411.4,168.2 412.3,168.7 413.2,167.6 414.0,165.8 414.9,166.7 415.8,165.7 416.6,161.7 417.5,165.5 418.4,166.1 419.2,169.7 420.1,168.2 421.0,168.1 421.8,170.2 422.7,171.4 423.6,168.4 424.4,169.3 425.3,170.0 426.2,172.5 427.0,181.0 427.9,183.2 428.8,183.9 429.6,183.1 430.5,184.1 431.4,180.0 432.2,178.9 433.1,188.7 434.0,190.5 434.8,192.4 435.7,191.2 436.6,197.6 437.4,196.0 438.3,198.1 439.2,197.6 440.0,197.6 440.9,198.8 441.8,201.6 442.6,196.4 443.5,196.9 444.4,196.5 445.2,199.7 446.1,196.7 447.0,200.9 447.8,201.3 448.7,204.0 449.6,211.2 450.4,211.0 451.3,214.9 452.2,214.9 453.0,214.0 453.9,217.2 454.8,226.3 455.6,229.0 456.5,234.0 457.4,231.7 458.2,231.7 459.1,229.4 460.0,234.2 460.8,233.6 461.7,225.3 462.6,229.8 463.4,233.6 464.3,236.5 465.1,240.4 466.0,245.0 466.9,252.8 467.7,250.0 468.6,245.3 469.5,242.6 470.3,239.8 471.2,240.0 472.1,240.4 472.9,245.7 473.8,246.2 474.7,243.0 475.5,235.7 476.4,243.7 477.3,248.2 478.1,242.8 479.0,243.0 479.9,246.6 480.7,251.1 481.6,251.6 482.5,242.6 483.3,253.2 484.2,258.2 485.1,262.3 485.9,251.4 486.8,243.7 487.7,245.3 488.5,243.9 489.4,245.7 490.3,246.8 491.1,243.9 492.0,237.4 492.9,231.7 493.7,238.7 494.6,237.0 495.5,235.3 496.3,244.8 497.2,242.8 498.1,243.0 498.9,240.6 499.8,238.0 500.7,238.2 501.5,238.5 502.4,250.0 503.3,261.5 504.1,264.2 505.0,259.4 505.9,258.2 506.7,263.2 507.6,259.4 508.5,258.6 509.3,255.1 510.2,260.3 511.1,260.8 511.9,256.7 512.8,263.2 513.7,251.6 514.5,264.2 515.4,265.2 516.2,269.2 517.1,275.9 518.0,293.9 518.8,304.7 519.7,294.7 520.6,307.2 521.4,303.5 522.3,300.3 523.2,307.2 524.0,311.8 524.9,305.0 525.8,307.5 526.6,301.4 527.5,303.5 528.4,303.5 529.2,302.9 530.1,302.0 531.0,297.5 531.8,297.3 532.7,295.0 533.6,291.9 534.4,304.1 535.3,313.4 536.2,306.0 537.0,302.9 537.9,303.5 538.8,301.7 539.6,305.6 540.5,306.9 541.4,309.3 542.2,310.9 543.1,307.2 544.0,301.7 544.8,313.1 545.7,313.1 546.6,317.5 547.4,313.1 548.3,315.9 549.2,309.3 550.0,309.6 550.9,304.7 551.8,283.0 552.6,286.0 553.5,284.1 554.4,281.7 555.2,276.9 556.1,267.9 557.0,276.9 557.8,272.8 558.7,279.5 559.6,273.8 560.4,273.0 561.3,274.3 562.2,270.7 563.0,267.7 563.9,264.5 564.8,266.9 565.6,260.6 566.5,271.0 567.3,268.4 568.2,263.5 569.1,267.2 569.9,266.9 570.8,271.0 571.7,265.9 572.5,263.5 573.4,258.9 574.3,260.8 575.1,260.6 576.0,271.0 576.9,269.2 577.7,267.7 578.6,269.2 579.5,268.9 580.3,264.7 581.2,265.7 582.1,269.2 582.9,269.9 583.8,274.6 584.7,274.6 585.5,282.5 586.4,284.7 587.3,281.9 588.1,283.8 589.0,282.5 589.9,282.9 590.7,285.5 591.6,282.8 592.5,283.0 593.3,270.2 594.2,263.0 595.1,261.3 595.9,260.6 596.8,261.0 597.7,257.7 598.5,259.1 599.4,261.3 600.3,251.1 601.1,251.1 602.0,253.0 602.9,252.8 603.7,250.7 604.6,247.5 605.5,252.5 606.3,252.5 607.2,250.0 608.1,246.8 608.9,246.4 609.8,244.8 610.7,245.9 611.5,242.2 612.4,243.9 613.3,243.3 614.1,240.2 615.0,245.5 615.9,243.2 616.7,256.3 617.6,254.9 618.4,250.0 619.3,249.3 620.2,250.5 621.0,252.3 621.9,257.0 622.8,258.2 623.6,257.5 624.5,259.4 625.4,259.6 626.2,261.8 627.1,264.0 628.0,266.4 628.8,270.2 629.7,276.6 630.6,276.1 631.4,272.5 632.3,273.3 633.2,275.6 634.0,278.0 634.9,275.6 635.8,274.8 636.6,271.2 637.5,267.9 638.4,264.5 639.2,268.4 640.1,273.5 641.0,277.4 641.8,279.8 642.7,281.1 643.6,279.0 644.4,282.2 645.3,279.8 646.2,289.6 647.0,284.1 647.9,278.5 648.8,271.0 649.6,269.4 650.5,272.0 651.4,279.5 652.2,279.5 653.1,276.6 654.0,279.3 654.8,282.8 655.7,275.3 656.6,272.5 657.4,271.5 658.3,266.9 659.2,263.7 660.0,267.9 660.9,268.2 661.8,266.7 662.6,269.9 663.5,273.0 664.4,272.8 665.2,274.8 666.1,272.5 667.0,273.8 667.8,272.5 668.7,275.3 669.5,276.9 670.4,277.7 671.3,268.9 672.1,271.2 673.0,273.5 673.9,278.7 674.7,275.1 675.6,266.9 676.5,263.2 677.3,259.8 678.2,258.2 679.1,260.8 679.9,259.8 680.8,257.5 681.7,259.8 682.5,259.1 683.4,253.0 684.3,244.6 685.1,245.3 686.0,241.1 686.9,238.0 687.7,241.9 688.6,244.4 689.5,241.3 690.3,241.5 691.2,258.6 692.1,262.5 692.9,265.2 693.8,270.7 694.7,265.4 695.5,268.2 696.4,271.5 697.3,268.9 698.1,263.2 699.0,266.4 699.9,265.4 700.7,264.0 701.6,262.7 702.5,263.5 703.3,267.7 704.2,260.8 705.1,256.7 705.9,254.4 706.8,254.6 707.7,248.2 708.5,247.5 709.4,248.4 710.3,246.2 711.1,242.6 712.0,240.2 712.9,243.7 713.7,250.5 714.6,247.5 715.5,249.3 716.3,255.1 717.2,263.0 718.1,264.2 718.9,261.0 719.8,263.7 720.6,264.2 721.5,262.3 722.4,258.9 723.2,260.8 724.1,261.0 725.0,269.7 725.8,264.5 726.7,267.7 727.6,270.7 728.4,272.2 729.3,280.3 730.2,279.8 731.0,274.6 731.9,275.3 732.8,261.3 733.6,262.3 734.5,264.2 735.4,261.5 736.2,258.4 737.1,256.3 738.0,257.5 738.8,253.7 739.7,251.8 740.6,257.2 741.4,251.1 742.3,254.2 743.2,253.9 744.0,258.0 744.9,255.6 745.8,256.5 746.6,254.4 747.5,253.7 748.4,256.3 749.2,250.2 750.1,253.2 751.0,257.9 751.8,250.2 752.7,244.8 753.6,244.3 754.4,246.6 755.3,246.2 756.2,248.0 757.0,248.6 757.9,250.5 758.8,254.6 759.6,252.3 760.5,251.8 761.4,250.7 762.2,250.7 763.1,249.3 764.0,245.9 764.8,244.8 765.7,243.9 766.6,243.3 767.4,243.3 768.3,243.5 769.2,243.5 770.0,240.6 770.9,240.5 771.7,242.6 772.6,239.1 773.5,241.3 774.3,237.8 775.2,235.9 776.1,238.0 776.9,238.5 777.8,243.0 778.7,241.3 779.5,244.8 780.4,242.6 781.3,240.6 782.1,240.6 783.0,236.7 783.9,239.8 784.7,237.8 785.6,238.0 786.5,235.7 787.3,237.0 788.2,239.1 789.1,242.6 789.9,240.2 790.8,239.3 791.7,237.6 792.5,238.7 793.4,236.7 794.3,231.3 795.1,231.9 796.0,232.1"/><polyline fill="none" stroke="#16a34a" stroke-width="3" points="78.0,84.1 78.9,88.5 79.7,76.5 80.6,111.5 81.5,101.5 82.3,103.6 83.2,114.4 84.1,107.7 84.9,107.4 85.8,109.1 86.7,115.8 87.5,121.0 88.4,129.4 89.3,115.9 90.1,115.4 91.0,114.2 91.9,117.1 92.7,116.7 93.6,114.4 94.5,122.4 95.3,128.7 96.2,126.2 97.1,126.1 97.9,131.7 98.8,134.2 99.7,132.5 100.5,127.3 101.4,121.9 102.3,120.6 103.1,121.0 104.0,119.3 104.8,119.3 105.7,119.3 106.6,117.4 107.4,124.2 108.3,121.8 109.2,122.6 110.0,124.3 110.9,123.9 111.8,127.7 112.6,136.7 113.5,143.0 114.4,140.1 115.2,135.6 116.1,134.0 117.0,132.9 117.8,126.6 118.7,140.1 119.6,138.6 120.4,132.2 121.3,134.2 122.2,137.5 123.0,140.1 123.9,145.8 124.8,151.1 125.6,151.9 126.5,153.6 127.4,154.7 128.2,155.5 129.1,160.3 130.0,163.5 130.8,156.3 131.7,154.6 132.6,153.3 133.4,149.2 134.3,144.8 135.2,139.6 136.0,139.2 136.9,141.5 137.8,137.5 138.6,136.6 139.5,133.0 140.4,131.0 141.2,131.9 142.1,139.2 143.0,146.0 143.8,143.8 144.7,139.2 145.6,140.5 146.4,139.7 147.3,136.7 148.2,133.9 149.0,130.7 149.9,133.9 150.8,133.4 151.6,132.9 152.5,136.3 153.4,142.5 154.2,139.9 155.1,142.3 155.9,140.6 156.8,157.8 157.7,159.7 158.5,157.4 159.4,158.8 160.3,161.1 161.1,161.9 162.0,164.8 162.9,165.4 163.7,165.2 164.6,163.3 165.5,161.7 166.3,157.8 167.2,160.7 168.1,160.1 168.9,159.0 169.8,157.4 170.7,157.5 171.5,159.4 172.4,160.5 173.3,171.4 174.1,172.0 175.0,168.8 175.9,172.0 176.7,178.0 177.6,176.8 178.5,176.4 179.3,173.0 180.2,177.0 181.1,180.7 181.9,179.5 182.8,176.7 183.7,182.1 184.5,179.1 185.4,173.3 186.3,174.3 187.1,176.7 188.0,177.5 188.9,175.9 189.7,184.5 190.6,185.7 191.5,182.3 192.3,186.5 193.2,187.0 194.1,180.7 194.9,173.3 195.8,172.8 196.7,179.2 197.5,184.2 198.4,178.3 199.3,181.1 200.1,189.4 201.0,193.1 201.9,196.4 202.7,199.5 203.6,195.8 204.5,202.0 205.3,197.9 206.2,204.9 207.0,194.8 207.9,193.4 208.8,198.1 209.6,191.2 210.5,178.5 211.4,181.3 212.2,187.0 213.1,193.1 214.0,198.5 214.8,196.4 215.7,200.2 216.6,176.2 217.4,176.1 218.3,182.8 219.2,183.7 220.0,180.5 220.9,183.9 221.8,180.2 222.6,177.3 223.5,180.5 224.4,183.1 225.2,179.5 226.1,180.7 227.0,161.6 227.8,162.3 228.7,164.9 229.6,167.0 230.4,167.0 231.3,166.9 232.2,167.5 233.0,167.6 233.9,155.1 234.8,145.2 235.6,150.7 236.5,153.0 237.4,155.1 238.2,158.2 239.1,157.5 240.0,155.8 240.8,154.6 241.7,147.8 242.6,142.0 243.4,140.7 244.3,141.9 245.2,150.4 246.0,149.7 246.9,152.0 247.8,151.9 248.6,158.0 249.5,157.1 250.4,160.1 251.2,159.5 252.1,166.7 253.0,177.6 253.8,181.0 254.7,176.8 255.6,171.6 256.4,168.4 257.3,173.0 258.1,169.9 259.0,173.4 259.9,174.8 260.7,184.9 261.6,191.0 262.5,182.4 263.3,183.7 264.2,186.5 265.1,187.9 265.9,191.7 266.8,188.9 267.7,186.9 268.5,184.4 269.4,191.5 270.3,186.7 271.1,176.4 272.0,180.2 272.9,182.6 273.7,179.2 274.6,183.4 275.5,183.7 276.3,186.5 277.2,186.0 278.1,187.0 278.9,178.6 279.8,173.3 280.7,178.4 281.5,182.9 282.4,185.9 283.3,185.7 284.1,181.1 285.0,185.2 285.9,187.2 286.7,186.9 287.6,189.7 288.5,186.4 289.3,182.6 290.2,179.7 291.1,168.7 291.9,167.0 292.8,171.0 293.7,174.3 294.5,175.9 295.4,172.8 296.3,169.7 297.1,171.3 298.0,176.8 298.9,173.1 299.7,175.3 300.6,174.3 301.5,174.3 302.3,168.4 303.2,178.0 304.1,178.6 304.9,181.6 305.8,187.4 306.7,191.9 307.5,190.2 308.4,189.9 309.2,186.7 310.1,183.4 311.0,183.6 311.8,186.2 312.7,188.7 313.6,188.9 314.4,182.3 315.3,186.0 316.2,182.4 317.0,178.4 317.9,174.2 318.8,174.0 319.6,166.7 320.5,169.1 321.4,162.7 322.2,166.6 323.1,163.6 324.0,159.4 324.8,156.0 325.7,161.9 326.6,161.4 327.4,164.8 328.3,166.9 329.2,169.1 330.0,172.5 330.9,170.7 331.8,173.7 332.6,178.1 333.5,171.1 334.4,170.5 335.2,169.3 336.1,167.9 337.0,167.6 337.8,168.8 338.7,170.8 339.6,174.3 340.4,172.8 341.3,169.4 342.2,173.1 343.0,173.9 343.9,182.3 344.8,182.9 345.6,181.8 346.5,187.9 347.4,184.4 348.2,186.9 349.1,187.9 350.0,186.7 350.8,183.2 351.7,195.5 352.6,194.6 353.4,193.9 354.3,193.4 355.2,194.1 356.0,197.2 356.9,194.1 357.8,176.4 358.6,175.6 359.5,171.6 360.3,169.6 361.2,168.8 362.1,174.2 362.9,173.1 363.8,172.5 364.7,165.5 365.5,168.8 366.4,166.1 367.3,160.1 368.1,163.9 369.0,162.4 369.9,161.9 370.7,166.0 371.6,171.6 372.5,183.9 373.3,181.9 374.2,179.9 375.1,173.9 375.9,176.5 376.8,176.1 377.7,170.8 378.5,171.6 379.4,168.2 380.3,170.8 381.1,169.4 382.0,174.0 382.9,170.7 383.7,172.5 384.6,158.7 385.5,158.4 386.3,160.7 387.2,160.7 388.1,159.8 388.9,162.6 389.8,164.5 390.7,165.8 391.5,166.4 392.4,168.4 393.3,171.3 394.1,170.0 395.0,169.3 395.9,167.2 396.7,162.0 397.6,155.5 398.5,152.6 399.3,151.9 400.2,148.6 401.1,155.0 401.9,156.7 402.8,156.3 403.7,157.4 404.5,157.1 405.4,156.8 406.3,156.3 407.1,160.5 408.0,162.1 408.9,166.3 409.7,168.5 410.6,168.5 411.4,168.2 412.3,168.7 413.2,167.6 414.0,165.8 414.9,166.7 415.8,165.7 416.6,161.7 417.5,165.5 418.4,166.1 419.2,169.7 420.1,168.2 421.0,168.1 421.8,170.2 422.7,171.4 423.6,168.4 424.4,169.3 425.3,170.0 426.2,172.5 427.0,181.0 427.9,183.2 428.8,183.9 429.6,183.1 430.5,184.1 431.4,180.0 432.2,178.9 433.1,188.7 434.0,190.5 434.8,192.4 435.7,191.2 436.6,197.6 437.4,196.0 438.3,198.1 439.2,197.6 440.0,197.6 440.9,198.8 441.8,201.6 442.6,196.4 443.5,196.9 444.4,196.5 445.2,199.7 446.1,196.7 447.0,200.9 447.8,201.3 448.7,204.0 449.6,211.2 450.4,211.0 451.3,214.9 452.2,214.9 453.0,214.0 453.9,217.2 454.8,226.3 455.6,229.0 456.5,234.0 457.4,231.7 458.2,231.7 459.1,229.4 460.0,234.2 460.8,233.6 461.7,225.3 462.6,229.8 463.4,233.6 464.3,236.5 465.1,240.4 466.0,245.0 466.9,252.8 467.7,250.0 468.6,245.3 469.5,242.6 470.3,239.8 471.2,240.0 472.1,240.4 472.9,245.7 473.8,246.2 474.7,243.0 475.5,235.7 476.4,243.7 477.3,248.2 478.1,242.8 479.0,243.0 479.9,246.6 480.7,251.1 481.6,251.6 482.5,242.6 483.3,253.2 484.2,258.2 485.1,262.3 485.9,251.4 486.8,243.7 487.7,245.3 488.5,243.9 489.4,245.7 490.3,246.8 491.1,243.9 492.0,237.4 492.9,231.7 493.7,238.7 494.6,237.0 495.5,235.3 496.3,244.8 497.2,242.8 498.1,243.0 498.9,240.6 499.8,238.0 500.7,238.2 501.5,238.5 502.4,250.0 503.3,261.5 504.1,264.2 505.0,259.4 505.9,258.2 506.7,263.2 507.6,259.4 508.5,258.6 509.3,255.1 510.2,260.3 511.1,260.8 511.9,256.7 512.8,263.2 513.7,251.6 514.5,264.2 515.4,265.2 516.2,269.2 517.1,275.9 518.0,293.9 518.8,304.7 519.7,294.7 520.6,307.2 521.4,303.5 522.3,300.3 523.2,307.2 524.0,311.8 524.9,305.0 525.8,307.5 526.6,301.4 527.5,303.5 528.4,303.5 529.2,302.9 530.1,302.0 531.0,297.5 531.8,297.3 532.7,295.0 533.6,291.9 534.4,304.1 535.3,313.4 536.2,306.0 537.0,302.9 537.9,303.5 538.8,301.7 539.6,305.6 540.5,306.9 541.4,309.3 542.2,310.9 543.1,307.2 544.0,301.7 544.8,313.1 545.7,313.1 546.6,317.5 547.4,313.1 548.3,315.9 549.2,309.3 550.0,309.6 550.9,304.7 551.8,283.0 552.6,286.0 553.5,284.1 554.4,281.7 555.2,276.9 556.1,267.9 557.0,276.9 557.8,272.8 558.7,279.5 559.6,273.8 560.4,273.0 561.3,274.3 562.2,270.7 563.0,267.7 563.9,264.5 564.8,266.9 565.6,260.6 566.5,271.0 567.3,268.4 568.2,263.5 569.1,267.2 569.9,266.9 570.8,271.0 571.7,265.9 572.5,263.5 573.4,258.9 574.3,260.8 575.1,260.6 576.0,271.0 576.9,269.2 577.7,267.7 578.6,269.2 579.5,268.9 580.3,264.7 581.2,265.7 582.1,269.2 582.9,269.9 583.8,274.6 584.7,274.6 585.5,282.5 586.4,284.7 587.3,281.9 588.1,283.8 589.0,282.5 589.9,282.9 590.7,285.5 591.6,282.8 592.5,283.0 593.3,270.2 594.2,263.0 595.1,261.3 595.9,260.6 596.8,261.0 597.7,257.7 598.5,259.1 599.4,261.3 600.3,251.1 601.1,251.1 602.0,253.0 602.9,252.8 603.7,250.7 604.6,247.5 605.5,252.5 606.3,252.5 607.2,250.0 608.1,246.8 608.9,246.4 609.8,244.8 610.7,245.9 611.5,242.2 612.4,243.9 613.3,243.3 614.1,240.2 615.0,245.5 615.9,243.2 616.7,256.3 617.6,254.9 618.4,250.0 619.3,249.3 620.2,250.5 621.0,252.3 621.9,257.0 622.8,258.2 623.6,257.5 624.5,259.4 625.4,259.6 626.2,261.8 627.1,264.0 628.0,266.4 628.8,270.2 629.7,276.6 630.6,276.1 631.4,272.5 632.3,273.3 633.2,275.6 634.0,278.0 634.9,275.6 635.8,274.8 636.6,271.2 637.5,267.9 638.4,264.5 639.2,268.4 640.1,273.5 641.0,277.4 641.8,279.8 642.7,281.1 643.6,279.0 644.4,282.2 645.3,279.8 646.2,289.6 647.0,284.1 647.9,278.5 648.8,271.0 649.6,269.4 650.5,272.0 651.4,279.5 652.2,279.5 653.1,276.6 654.0,279.3 654.8,282.8 655.7,275.3 656.6,272.5 657.4,271.5 658.3,266.9 659.2,263.7 660.0,267.9 660.9,268.2 661.8,266.7 662.6,269.9 663.5,273.0 664.4,272.8 665.2,274.8 666.1,272.5 667.0,273.8 667.8,272.5 668.7,275.3 669.5,276.9 670.4,277.7 671.3,268.9 672.1,271.2 673.0,273.5 673.9,278.7 674.7,275.1 675.6,266.9 676.5,263.2 677.3,259.8 678.2,258.2 679.1,260.8 679.9,259.8 680.8,257.5 681.7,259.8 682.5,259.1 683.4,253.0 684.3,244.6 685.1,245.3 686.0,241.1 686.9,238.0 687.7,241.9 688.6,244.4 689.5,241.3 690.3,241.5 691.2,258.6 692.1,262.5 692.9,265.2 693.8,270.7 694.7,265.4 695.5,268.2 696.4,271.5 697.3,268.9 698.1,263.2 699.0,266.4 699.9,265.4 700.7,264.0 701.6,262.7 702.5,263.5 703.3,267.7 704.2,260.8 705.1,256.7 705.9,254.4 706.8,254.6 707.7,248.2 708.5,247.5 709.4,248.4 710.3,246.2 711.1,242.6 712.0,240.2 712.9,243.7 713.7,250.5 714.6,247.5 715.5,249.3 716.3,255.1 717.2,263.0 718.1,264.2 718.9,261.0 719.8,263.7 720.6,264.2 721.5,262.3 722.4,258.9 723.2,260.8 724.1,261.0 725.0,269.7 725.8,264.5 726.7,267.7 727.6,270.7 728.4,272.2 729.3,280.3 730.2,279.8 731.0,274.6 731.9,275.3 732.8,261.3 733.6,262.3 734.5,264.2 735.4,261.5 736.2,258.4 737.1,256.3 738.0,257.5 738.8,253.7 739.7,251.8 740.6,257.2 741.4,251.1 742.3,254.2 743.2,253.9 744.0,258.0 744.9,255.6 745.8,256.5 746.6,254.4 747.5,253.7 748.4,256.3 749.2,250.2 750.1,253.2 751.0,257.9 751.8,250.2 752.7,244.8 753.6,244.3 754.4,246.6 755.3,246.2 756.2,248.0 757.0,248.6 757.9,250.5 758.8,254.6 759.6,252.3 760.5,251.8 761.4,250.7 762.2,250.7 763.1,249.3 764.0,245.9 764.8,244.8 765.7,243.9 766.6,243.3 767.4,243.3 768.3,243.5 769.2,243.5 770.0,240.6 770.9,240.5 771.7,242.6 772.6,239.1 773.5,241.3 774.3,237.8 775.2,235.9 776.1,238.0 776.9,238.5 777.8,243.0 778.7,241.3 779.5,244.8 780.4,242.6 781.3,240.6 782.1,240.6 783.0,236.7 783.9,239.8 784.7,237.8 785.6,238.0 786.5,235.7 787.3,237.0 788.2,239.1 789.1,242.6 789.9,240.2 790.8,239.3 791.7,237.6 792.5,238.7 793.4,236.7 794.3,231.3 795.1,231.9 796.0,232.1"/>
<text x="78" y="392" font-size="11" fill="#16a34a">Total return -53.0%</text><text x="268" y="392" font-size="11" fill="#2563eb">Price-only -53.0%</text><text x="78" y="362" font-size="11" text-anchor="middle" fill="#64748b">2023-03</text><text x="257" y="362" font-size="11" text-anchor="middle" fill="#64748b">2024-01</text><text x="437" y="362" font-size="11" text-anchor="middle" fill="#64748b">2024-11</text><text x="617" y="362" font-size="11" text-anchor="middle" fill="#64748b">2025-09</text><text x="796" y="362" font-size="11" text-anchor="middle" fill="#64748b">2026-07</text></svg>