<svg xmlns="http://www.w3.org/2000/svg" width="820" height="410" viewBox="0 0 820 410">
<rect width="820" height="410" fill="#fafafa"/><text x="78" y="22" font-size="14" font-family="sans-serif" fill="#0f172a">ABNB cumulative return since 2020-12-10 | dividends reinvested</text>
<text x="78" y="40" font-size="11" font-family="sans-serif" fill="#334155">Total return +2.5% | Price-only +2.5% | logarithmic scale</text>
<text x="78" y="54" font-size="9" font-family="sans-serif" fill="#64748b">Regular $0.00 | Special $0.00 | Other $0.00 per initial share path</text>
<line x1="78" y1="332.0" x2="796" y2="332.0" stroke="#e2e8f0"/><text x="70" y="336.0" font-size="10" text-anchor="end" fill="#64748b">-46.2%</text><line x1="78" y1="287.0" x2="796" y2="287.0" stroke="#e2e8f0"/><text x="70" y="291.0" font-size="10" text-anchor="end" fill="#64748b">-35.6%</text><line x1="78" y1="242.0" x2="796" y2="242.0" stroke="#e2e8f0"/><text x="70" y="246.0" font-size="10" text-anchor="end" fill="#64748b">-22.8%</text><line x1="78" y1="197.0" x2="796" y2="197.0" stroke="#e2e8f0"/><text x="70" y="201.0" font-size="10" text-anchor="end" fill="#64748b">-7.6%</text><line x1="78" y1="177.3" x2="796" y2="177.3" stroke="#e2e8f0"/><text x="70" y="181.3" font-size="10" text-anchor="end" fill="#64748b">0%</text><line x1="78" y1="152.0" x2="796" y2="152.0" stroke="#e2e8f0"/><text x="70" y="156.0" font-size="10" text-anchor="end" fill="#64748b">+10.7%</text><line x1="78" y1="107.0" x2="796" y2="107.0" stroke="#e2e8f0"/><text x="70" y="111.0" font-size="10" text-anchor="end" fill="#64748b">+32.6%</text><line x1="78" y1="62.0" x2="796" y2="62.0" stroke="#e2e8f0"/><text x="70" y="66.0" font-size="10" text-anchor="end" fill="#64748b">+58.8%</text>
<line x1="78" y1="332" x2="796" y2="332" stroke="#cbd5e1"/>
<polyline fill="none" stroke="#2563eb" stroke-width="2" points="78.0,177.3 78.5,186.9 79.0,204.1 79.5,214.3 80.0,189.2 80.6,173.3 81.1,156.5 81.6,147.6 82.1,147.4 82.6,155.4 83.1,160.5 83.6,170.1 84.1,168.4 84.7,171.0 85.2,173.8 85.7,187.1 86.2,171.2 86.7,180.7 87.2,166.3 87.7,168.8 88.2,171.5 88.8,151.0 89.3,137.2 89.8,122.2 90.3,138.2 90.8,131.8 91.3,149.5 91.8,122.4 92.3,120.3 92.9,126.4 93.4,105.9 93.9,95.1 94.4,112.9 94.9,117.9 95.4,122.3 95.9,124.1 96.4,115.1 96.9,101.9 97.5,102.5 98.0,96.1 98.5,96.8 99.0,82.5 99.5,76.5 100.0,81.3 100.5,84.6 101.0,94.2 101.6,99.1 102.1,95.3 102.6,102.5 103.1,112.6 103.6,96.4 104.1,120.1 104.6,88.8 105.1,101.1 105.7,109.6 106.2,122.4 106.7,122.6 107.2,123.2 107.7,121.8 108.2,118.6 108.7,117.7 109.2,99.3 109.8,88.4 110.3,84.5 110.8,96.6 111.3,94.9 111.8,107.5 112.3,103.7 112.8,102.9 113.3,113.2 113.8,124.5 114.4,128.3 114.9,130.8 115.4,119.5 115.9,118.6 116.4,112.1 116.9,111.7 117.4,113.8 117.9,109.4 118.5,123.0 119.0,122.7 119.5,123.6 120.0,127.8 120.5,125.8 121.0,127.9 121.5,129.4 122.0,124.7 122.6,130.5 123.1,137.8 123.6,141.5 124.1,136.1 124.6,131.0 125.1,130.1 125.6,125.8 126.1,122.9 126.7,126.1 127.2,133.2 127.7,140.0 128.2,138.8 128.7,148.7 129.2,162.4 129.7,166.4 130.2,173.9 130.7,180.8 131.3,185.1 131.8,193.3 132.3,183.5 132.8,199.3 133.3,194.6 133.8,188.8 134.3,192.5 134.8,195.2 135.4,193.0 135.9,196.5 136.4,195.1 136.9,180.0 137.4,184.9 137.9,178.0 138.4,166.7 138.9,178.2 139.5,167.2 140.0,170.1 140.5,173.4 141.0,177.1 141.5,174.9 142.0,171.0 142.5,169.7 143.0,165.4 143.6,169.8 144.1,167.2 144.6,164.2 145.1,168.9 145.6,168.9 146.1,165.8 146.6,167.2 147.1,168.9 147.6,168.5 148.2,175.0 148.7,163.2 149.2,163.3 149.7,168.0 150.2,171.1 150.7,179.1 151.2,181.1 151.7,169.0 152.3,174.0 152.8,179.6 153.3,187.2 153.8,190.1 154.3,195.9 154.8,200.5 155.3,192.7 155.8,186.9 156.4,186.5 156.9,187.9 157.4,182.1 157.9,182.8 158.4,179.8 158.9,179.5 159.4,178.6 159.9,176.0 160.5,175.7 161.0,172.7 161.5,167.9 162.0,168.4 162.5,169.3 163.0,171.8 163.5,171.5 164.0,166.5 164.5,163.8 165.1,170.8 165.6,178.7 166.1,173.9 166.6,180.9 167.1,179.1 167.6,173.8 168.1,150.1 168.6,151.7 169.2,163.9 169.7,161.5 170.2,158.6 170.7,160.2 171.2,157.7 171.7,156.7 172.2,155.4 172.7,144.6 173.3,146.2 173.8,143.1 174.3,144.3 174.8,151.8 175.3,147.2 175.8,142.6 176.3,139.9 176.8,142.2 177.4,149.7 177.9,138.2 178.4,137.2 178.9,129.8 179.4,128.7 179.9,131.0 180.4,139.3 180.9,140.0 181.4,140.5 182.0,132.8 182.5,145.4 183.0,145.0 183.5,141.2 184.0,137.8 184.5,137.2 185.0,142.1 185.5,133.2 186.1,132.0 186.6,136.4 187.1,138.4 187.6,133.8 188.1,136.1 188.6,137.5 189.1,136.4 189.6,142.1 190.2,138.3 190.7,135.5 191.2,138.5 191.7,134.7 192.2,136.2 192.7,130.5 193.2,133.0 193.7,133.0 194.3,125.1 194.8,94.6 195.3,96.2 195.8,103.4 196.3,106.5 196.8,107.3 197.3,88.6 197.8,87.8 198.3,88.0 198.9,97.7 199.4,91.3 199.9,101.1 200.4,120.5 200.9,125.3 201.4,123.1 201.9,131.6 202.4,122.8 203.0,133.5 203.5,147.5 204.0,137.8 204.5,142.0 205.0,121.7 205.5,118.6 206.0,114.1 206.5,120.9 207.1,122.3 207.6,135.6 208.1,140.2 208.6,139.9 209.1,158.0 209.6,155.6 210.1,156.6 210.6,143.6 211.2,138.2 211.7,135.3 212.2,134.7 212.7,137.6 213.2,141.0 213.7,139.0 214.2,142.4 214.7,133.3 215.2,136.0 215.8,148.8 216.3,152.7 216.8,143.0 217.3,151.2 217.8,139.2 218.3,137.8 218.8,143.1 219.3,146.1 219.9,160.7 220.4,160.9 220.9,155.4 221.4,157.4 221.9,171.9 222.4,177.6 222.9,181.8 223.4,188.4 224.0,180.7 224.5,161.9 225.0,157.1 225.5,165.5 226.0,169.1 226.5,159.3 227.0,155.6 227.5,148.8 228.1,137.9 228.6,134.3 229.1,142.3 229.6,137.7 230.1,122.8 230.6,113.9 231.1,118.0 231.6,130.1 232.1,144.3 232.7,168.3 233.2,155.0 233.7,160.1 234.2,165.9 234.7,166.7 235.2,156.2 235.7,165.6 236.2,180.8 236.8,201.0 237.3,181.8 237.8,171.2 238.3,165.4 238.8,176.6 239.3,188.3 239.8,178.7 240.3,159.0 240.9,156.1 241.4,141.6 241.9,149.5 242.4,142.4 242.9,145.9 243.4,136.0 243.9,141.3 244.4,140.6 245.0,129.2 245.5,131.9 246.0,134.6 246.5,132.7 247.0,127.1 247.5,135.4 248.0,145.1 248.5,143.2 249.0,148.3 249.6,151.9 250.1,152.1 250.6,134.5 251.1,136.1 251.6,143.5 252.1,137.0 252.6,145.3 253.1,155.6 253.7,158.5 254.2,154.8 254.7,163.4 255.2,164.7 255.7,152.7 256.2,163.1 256.7,163.8 257.2,176.8 257.8,158.3 258.3,180.1 258.8,193.1 259.3,225.4 259.8,232.2 260.3,232.2 260.8,232.6 261.3,221.0 261.9,235.9 262.4,229.3 262.9,250.3 263.4,236.5 263.9,240.0 264.4,238.4 264.9,254.4 265.4,244.8 266.0,236.2 266.5,223.0 267.0,222.2 267.5,231.0 268.0,221.4 268.5,224.4 269.0,219.9 269.5,218.1 270.0,216.3 270.6,233.1 271.1,248.2 271.6,272.2 272.1,272.4 272.6,265.9 273.1,286.9 273.6,270.8 274.1,263.9 274.7,270.7 275.2,280.4 275.7,260.9 276.2,265.8 276.7,275.8 277.2,285.1 277.7,298.4 278.2,291.9 278.8,279.9 279.3,287.9 279.8,275.8 280.3,276.2 280.8,282.1 281.3,278.3 281.8,280.6 282.3,292.9 282.9,283.2 283.4,275.4 283.9,264.1 284.4,250.9 284.9,250.0 285.4,259.8 285.9,257.5 286.4,264.8 286.9,251.8 287.5,248.4 288.0,243.5 288.5,243.0 289.0,231.8 289.5,234.6 290.0,225.7 290.5,230.1 291.0,232.9 291.6,235.9 292.1,226.7 292.6,220.9 293.1,214.8 293.6,211.8 294.1,215.5 294.6,220.2 295.1,221.4 295.7,235.2 296.2,242.6 296.7,242.1 297.2,235.7 297.7,230.3 298.2,239.4 298.7,237.8 299.2,240.0 299.8,238.8 300.3,238.2 300.8,237.6 301.3,237.5 301.8,232.4 302.3,227.0 302.8,216.9 303.3,214.3 303.8,220.9 304.4,210.3 304.9,213.8 305.4,226.7 305.9,226.6 306.4,231.0 306.9,236.8 307.4,260.4 307.9,265.2 308.5,261.6 309.0,254.1 309.5,244.2 310.0,253.4 310.5,257.3 311.0,257.4 311.5,243.9 312.0,241.8 312.6,242.2 313.1,249.1 313.6,243.5 314.1,253.1 314.6,240.5 315.1,239.8 315.6,247.7 316.1,231.4 316.7,228.4 317.2,230.6 317.7,230.4 318.2,224.1 318.7,231.7 319.2,227.3 319.7,234.0 320.2,241.1 320.7,234.2 321.3,252.9 321.8,247.9 322.3,283.9 322.8,290.3 323.3,279.5 323.8,281.1 324.3,272.3 324.8,280.3 325.4,263.6 325.9,246.7 326.4,257.0 326.9,252.6 327.4,258.7 327.9,271.3 328.4,275.1 328.9,280.5 329.5,281.6 330.0,278.1 330.5,275.4 331.0,281.5 331.5,281.3 332.0,264.2 332.5,266.4 333.0,267.0 333.6,273.3 334.1,287.3 334.6,291.7 335.1,282.8 335.6,283.1 336.1,280.8 336.6,286.7 337.1,285.1 337.6,294.1 338.2,297.0 338.7,307.3 339.2,302.5 339.7,304.1 340.2,310.4 340.7,309.3 341.2,314.5 341.7,317.5 342.3,309.4 342.8,308.6 343.3,310.4 343.8,299.4 344.3,302.2 344.8,299.9 345.3,297.9 345.8,299.9 346.4,283.8 346.9,273.3 347.4,268.6 347.9,266.4 348.4,266.8 348.9,271.8 349.4,266.3 349.9,256.8 350.5,259.4 351.0,258.7 351.5,247.1 352.0,232.6 352.5,246.9 353.0,243.2 353.5,236.9 354.0,227.1 354.5,226.8 355.1,227.5 355.6,224.7 356.1,231.7 356.6,234.8 357.1,248.3 357.6,231.6 358.1,222.2 358.6,191.0 359.2,186.6 359.7,201.0 360.2,206.4 360.7,209.5 361.2,212.8 361.7,218.3 362.2,216.8 362.7,217.3 363.3,222.3 363.8,219.1 364.3,212.4 364.8,211.2 365.3,210.0 365.8,213.9 366.3,224.4 366.8,227.6 367.4,232.6 367.9,231.7 368.4,237.8 368.9,224.1 369.4,227.9 369.9,227.4 370.4,216.5 370.9,221.6 371.4,223.4 372.0,230.5 372.5,228.4 373.0,231.2 373.5,226.6 374.0,219.4 374.5,215.1 375.0,221.0 375.5,227.3 376.1,233.9 376.6,246.5 377.1,239.9 377.6,236.3 378.1,240.3 378.6,236.9 379.1,235.4 379.6,232.1 380.2,225.7 380.7,223.8 381.2,227.4 381.7,233.6 382.2,232.2 382.7,240.1 383.2,237.5 383.7,234.1 384.3,224.7 384.8,221.1 385.3,222.8 385.8,226.4 386.3,229.0 386.8,224.3 387.3,212.6 387.8,209.8 388.3,238.6 388.9,243.0 389.4,256.7 389.9,255.5 390.4,256.4 390.9,249.6 391.4,241.5 391.9,251.8 392.4,245.9 393.0,254.4 393.5,255.7 394.0,258.7 394.5,253.1 395.0,252.2 395.5,246.3 396.0,240.9 396.5,228.1 397.1,233.2 397.6,229.7 398.1,231.3 398.6,233.6 399.1,228.5 399.6,214.7 400.1,214.1 400.6,213.6 401.2,208.2 401.7,206.6 402.2,211.0 402.7,209.0 403.2,208.0 403.7,214.4 404.2,217.6 404.7,208.2 405.2,208.7 405.8,213.7 406.3,207.6 406.8,199.6 407.3,200.9 407.8,207.6 408.3,203.5 408.8,200.8 409.3,190.0 409.9,191.0 410.4,185.4 410.9,179.7 411.4,176.2 411.9,174.2 412.4,175.9 412.9,176.4 413.4,170.4 414.0,172.4 414.5,170.6 415.0,168.1 415.5,170.9 416.0,162.9 416.5,164.8 417.0,170.2 417.5,177.6 418.1,184.0 418.6,185.3 419.1,180.0 419.6,186.4 420.1,189.4 420.6,192.9 421.1,197.1 421.6,197.9 422.1,204.4 422.7,206.3 423.2,208.0 423.7,213.7 424.2,215.9 424.7,209.7 425.2,207.7 425.7,214.4 426.2,212.3 426.8,211.6 427.3,199.8 427.8,202.9 428.3,201.1 428.8,199.0 429.3,181.5 429.8,182.5 430.3,179.8 430.9,175.4 431.4,172.9 431.9,172.6 432.4,177.3 432.9,178.4 433.4,180.7 433.9,181.1 434.4,182.3 435.0,189.2 435.5,198.9 436.0,199.9 436.5,196.3 437.0,199.7 437.5,196.5 438.0,192.0 438.5,190.6 439.0,191.8 439.6,208.5 440.1,209.1 440.6,213.9 441.1,211.2 441.6,208.4 442.1,201.0 442.6,204.1 443.1,211.9 443.7,215.7 444.2,213.5 444.7,212.4 445.2,219.6 445.7,224.1 446.2,231.4 446.7,223.2 447.2,219.9 447.8,227.2 448.3,233.6 448.8,236.6 449.3,230.5 449.8,227.6 450.3,225.1 450.8,233.6 451.3,218.6 451.9,227.9 452.4,221.8 452.9,229.0 453.4,233.5 453.9,227.9 454.4,225.8 454.9,210.5 455.4,207.3 455.9,211.3 456.5,209.6 457.0,204.7 457.5,210.3 458.0,205.9 458.5,207.2 459.0,206.0 459.5,208.8 460.0,210.9 460.6,211.2 461.1,194.6 461.6,197.1 462.1,197.1 462.6,194.1 463.1,185.9 463.6,184.4 464.1,180.5 464.7,184.6 465.2,177.7 465.7,173.0 466.2,174.1 466.7,172.6 467.2,173.6 467.7,183.7 468.2,181.9 468.8,184.2 469.3,187.9 469.8,191.8 470.3,191.0 470.8,192.6 471.3,195.6 471.8,197.6 472.3,197.0 472.8,192.9 473.4,185.5 473.9,186.4 474.4,186.0 474.9,186.6 475.4,190.7 475.9,194.6 476.4,194.7 476.9,190.9 477.5,185.7 478.0,182.0 478.5,181.5 479.0,183.5 479.5,181.9 480.0,169.0 480.5,163.9 481.0,169.3 481.6,178.3 482.1,174.3 482.6,174.2 483.1,177.2 483.6,177.7 484.1,172.5 484.6,167.5 485.1,172.4 485.7,162.1 486.2,167.0 486.7,171.4 487.2,155.9 487.7,164.2 488.2,171.5 488.7,169.7 489.2,159.8 489.7,164.0 490.3,169.6 490.8,165.0 491.3,162.7 491.8,156.3 492.3,152.7 492.8,155.3 493.3,153.3 493.8,146.3 494.4,146.8 494.9,144.7 495.4,147.7 495.9,142.1 496.4,145.0 496.9,142.4 497.4,151.3 497.9,149.4 498.5,149.5 499.0,145.1 499.5,139.9 500.0,140.3 500.5,140.1 501.0,141.0 501.5,142.5 502.0,144.7 502.6,147.1 503.1,152.1 503.6,153.3 504.1,154.1 504.6,149.5 505.1,151.9 505.6,148.2 506.1,151.9 506.6,144.0 507.2,153.3 507.7,159.2 508.2,157.6 508.7,154.8 509.2,152.1 509.7,160.2 510.2,157.6 510.7,150.8 511.3,147.9 511.8,147.6 512.3,145.8 512.8,148.8 513.3,154.5 513.8,158.3 514.3,154.9 514.8,152.7 515.4,149.2 515.9,152.6 516.4,155.6 516.9,173.3 517.4,174.6 517.9,169.8 518.4,173.9 518.9,175.5 519.5,173.1 520.0,175.7 520.5,174.5 521.0,178.4 521.5,180.8 522.0,183.7 522.5,177.8 523.0,173.4 523.5,174.1 524.1,175.9 524.6,177.0 525.1,174.7 525.6,173.3 526.1,175.5 526.6,173.4 527.1,174.0 527.6,171.6 528.2,172.2 528.7,169.5 529.2,175.0 529.7,175.2 530.2,169.2 530.7,172.9 531.2,171.9 531.7,169.1 532.3,171.1 532.8,166.9 533.3,168.4 533.8,165.7 534.3,165.7 534.8,165.7 535.3,161.3 535.8,163.9 536.4,164.3 536.9,165.1 537.4,164.3 537.9,165.3 538.4,175.1 538.9,173.8 539.4,173.1 539.9,166.3 540.4,171.7 541.0,173.6 541.5,171.8 542.0,168.1 542.5,170.5 543.0,178.2 543.5,185.5 544.0,185.4 544.5,185.1 545.1,187.4 545.6,186.4 546.1,194.5 546.6,207.5 547.1,213.2 547.6,203.2 548.1,239.0 548.6,235.4 549.2,234.5 549.7,237.7 550.2,230.6 550.7,232.0 551.2,226.4 551.7,231.8 552.2,225.8 552.7,229.6 553.3,228.9 553.8,233.7 554.3,230.7 554.8,233.1 555.3,230.9 555.8,229.2 556.3,231.2 556.8,229.7 557.3,234.7 557.9,234.2 558.4,232.2 558.9,236.2 559.4,231.7 559.9,234.4 560.4,232.6 560.9,229.6 561.4,228.8 562.0,229.2 562.5,219.7 563.0,219.1 563.5,206.5 564.0,201.8 564.5,205.9 565.0,201.3 565.5,202.7 566.1,205.5 566.6,207.5 567.1,210.3 567.6,212.9 568.1,211.5 568.6,213.3 569.1,204.4 569.6,203.6 570.2,199.3 570.7,193.8 571.2,198.7 571.7,195.8 572.2,195.1 572.7,197.9 573.2,194.4 573.7,192.8 574.2,192.0 574.8,190.7 575.3,193.6 575.8,200.4 576.3,198.9 576.8,195.4 577.3,193.2 577.8,189.6 578.3,191.9 578.9,195.1 579.4,192.0 579.9,191.2 580.4,189.5 580.9,184.0 581.4,172.8 581.9,195.4 582.4,190.3 583.0,198.0 583.5,198.8 584.0,195.5 584.5,199.3 585.0,199.9 585.5,201.3 586.0,194.2 586.5,197.9 587.1,190.4 587.6,183.9 588.1,186.2 588.6,188.7 589.1,192.6 589.6,190.1 590.1,190.2 590.6,187.3 591.1,192.2 591.7,191.1 592.2,190.5 592.7,188.6 593.2,187.7 593.7,190.1 594.2,202.3 594.7,199.9 595.2,199.8 595.8,208.8 596.3,205.3 596.8,196.1 597.3,195.6 597.8,194.7 598.3,194.1 598.8,197.7 599.3,200.6 599.9,201.4 600.4,201.3 600.9,193.4 601.4,194.3 601.9,201.6 602.4,202.5 602.9,204.8 603.4,206.3 604.0,208.7 604.5,199.3 605.0,200.0 605.5,194.4 606.0,198.3 606.5,199.3 607.0,197.9 607.5,209.7 608.0,206.1 608.6,202.1 609.1,199.2 609.6,200.7 610.1,201.8 610.6,204.5 611.1,202.7 611.6,204.8 612.1,199.2 612.7,194.7 613.2,194.2 613.7,195.6 614.2,184.7 614.7,183.7 615.2,150.1 615.7,151.4 616.2,155.5 616.8,159.7 617.3,175.0 617.8,177.2 618.3,182.8 618.8,178.5 619.3,186.6 619.8,187.6 620.3,183.9 620.9,183.1 621.4,181.0 621.9,195.1 622.4,195.8 622.9,200.0 623.4,213.0 623.9,210.8 624.4,225.3 625.0,218.2 625.5,210.0 626.0,214.7 626.5,211.9 627.0,211.6 627.5,206.4 628.0,204.4 628.5,204.3 629.0,206.7 629.6,212.6 630.1,222.6 630.6,225.2 631.1,221.6 631.6,218.3 632.1,236.9 632.6,253.4 633.1,254.3 633.7,255.7 634.2,221.3 634.7,237.0 635.2,235.7 635.7,238.6 636.2,235.4 636.7,239.8 637.2,239.7 637.8,242.1 638.3,234.9 638.8,227.6 639.3,220.5 639.8,218.9 640.3,217.3 640.8,212.9 641.3,220.1 641.9,215.8 642.4,213.3 642.9,214.1 643.4,220.6 643.9,217.6 644.4,211.1 644.9,209.8 645.4,196.1 645.9,189.1 646.5,190.2 647.0,191.4 647.5,189.2 648.0,191.7 648.5,200.0 649.0,208.9 649.5,208.6 650.0,210.5 650.6,205.2 651.1,206.6 651.6,207.2 652.1,206.0 652.6,204.8 653.1,198.6 653.6,197.4 654.1,190.5 654.7,184.5 655.2,187.4 655.7,188.2 656.2,189.1 656.7,187.7 657.2,193.7 657.7,190.6 658.2,197.7 658.8,200.0 659.3,200.8 659.8,203.1 660.3,200.0 660.8,204.7 661.3,197.0 661.8,195.6 662.3,199.6 662.8,193.9 663.4,193.9 663.9,191.9 664.4,191.0 664.9,191.0 665.4,191.3 665.9,191.0 666.4,194.0 666.9,188.2 667.5,191.8 668.0,191.5 668.5,186.8 669.0,186.8 669.5,189.1 670.0,186.6 670.5,185.9 671.0,182.7 671.6,183.3 672.1,181.8 672.6,191.3 673.1,195.1 673.6,199.5 674.1,207.9 674.6,202.2 675.1,204.2 675.7,203.1 676.2,224.0 676.7,221.9 677.2,227.6 677.7,220.7 678.2,214.8 678.7,214.6 679.2,213.7 679.7,212.9 680.3,211.9 680.8,213.9 681.3,211.0 681.8,204.2 682.3,207.7 682.8,210.1 683.3,204.4 683.8,203.2 684.4,203.1 684.9,208.7 685.4,214.1 685.9,213.1 686.4,216.2 686.9,214.6 687.4,216.2 687.9,217.1 688.5,217.8 689.0,218.8 689.5,223.3 690.0,220.6 690.5,217.5 691.0,212.9 691.5,209.8 692.0,213.0 692.6,216.9 693.1,217.7 693.6,220.4 694.1,216.5 694.6,218.0 695.1,221.1 695.6,219.3 696.1,221.0 696.6,223.6 697.2,223.3 697.7,224.4 698.2,224.1 698.7,223.7 699.2,227.8 699.7,226.4 700.2,218.1 700.7,215.3 701.3,218.1 701.8,212.1 702.3,209.5 702.8,206.9 703.3,208.9 703.8,209.2 704.3,208.0 704.8,205.9 705.4,207.9 705.9,210.9 706.4,211.2 706.9,210.8 707.4,210.3 707.9,219.2 708.4,218.9 708.9,222.9 709.5,222.2 710.0,223.6 710.5,218.8 711.0,220.6 711.5,221.6 712.0,219.9 712.5,229.1 713.0,233.8 713.5,235.9 714.1,242.3 714.6,236.3 715.1,235.9 715.6,227.1 716.1,230.9 716.6,230.4 717.1,226.6 717.6,227.2 718.2,223.8 718.7,222.3 719.2,215.2 719.7,219.9 720.2,213.1 720.7,208.8 721.2,207.9 721.7,207.2 722.3,200.6 722.8,200.3 723.3,196.9 723.8,196.5 724.3,194.1 724.8,191.1 725.3,191.9 725.8,191.4 726.4,191.3 726.9,191.7 727.4,191.2 727.9,193.3 728.4,198.4 728.9,193.1 729.4,189.1 729.9,190.9 730.4,188.0 731.0,186.9 731.5,188.3 732.0,185.5 732.5,198.8 733.0,199.1 733.5,202.8 734.0,202.7 734.5,197.3 735.1,196.9 735.6,200.0 736.1,197.7 736.6,199.9 737.1,201.1 737.6,200.7 738.1,205.3 738.6,201.6 739.2,219.8 739.7,214.6 740.2,221.4 740.7,219.6 741.2,221.3 741.7,223.4 742.2,225.0 742.7,232.6 743.3,221.3 743.8,215.4 744.3,215.3 744.8,212.3 745.3,208.2 745.8,218.0 746.3,212.5 746.8,200.2 747.3,191.1 747.9,194.5 748.4,197.9 748.9,198.3 749.4,193.7 749.9,193.1 750.4,198.0 750.9,196.5 751.4,199.4 752.0,197.7 752.5,208.5 753.0,211.3 753.5,207.3 754.0,200.4 754.5,201.9 755.0,202.6 755.5,206.9 756.1,199.2 756.6,204.1 757.1,200.6 757.6,202.1 758.1,218.1 758.6,217.7 759.1,211.3 759.6,213.5 760.2,214.0 760.7,210.3 761.2,213.9 761.7,201.4 762.2,205.7 762.7,206.1 763.2,203.5 763.7,196.8 764.2,190.1 764.8,189.5 765.3,182.8 765.8,179.3 766.3,180.9 766.8,178.3 767.3,182.3 767.8,180.6 768.3,183.7 768.9,187.3 769.4,185.1 769.9,185.0 770.4,182.7 770.9,187.6 771.4,186.1 771.9,185.8 772.4,184.8 773.0,183.0 773.5,190.9 774.0,193.8 774.5,198.4 775.0,197.1 775.5,198.7 776.0,196.0 776.5,201.9 777.1,193.7 777.6,196.1 778.1,199.6 778.6,199.0 779.1,200.1 779.6,195.6 780.1,197.8 780.6,189.4 781.1,195.9 781.7,197.3 782.2,197.0 782.7,197.4 783.2,195.7 783.7,201.5 784.2,205.8 784.7,202.4 785.2,199.7 785.8,187.5 786.3,183.5 786.8,184.6 787.3,181.3 787.8,187.0 788.3,187.7 788.8,177.9 789.3,182.3 789.9,175.9 790.4,173.1 790.9,180.1 791.4,172.9 791.9,170.2 792.4,172.3 792.9,170.4 793.4,180.4 794.0,173.6 794.5,170.7 795.0,174.6 795.5,174.2 796.0,171.1"/><polyline fill="none" stroke="#16a34a" stroke-width="3" points="78.0,177.3 78.5,186.9 79.0,204.1 79.5,214.3 80.0,189.2 80.6,173.3 81.1,156.5 81.6,147.6 82.1,147.4 82.6,155.4 83.1,160.5 83.6,170.1 84.1,168.4 84.7,171.0 85.2,173.8 85.7,187.1 86.2,171.2 86.7,180.7 87.2,166.3 87.7,168.8 88.2,171.5 88.8,151.0 89.3,137.2 89.8,122.2 90.3,138.2 90.8,131.8 91.3,149.5 91.8,122.4 92.3,120.3 92.9,126.4 93.4,105.9 93.9,95.1 94.4,112.9 94.9,117.9 95.4,122.3 95.9,124.1 96.4,115.1 96.9,101.9 97.5,102.5 98.0,96.1 98.5,96.8 99.0,82.5 99.5,76.5 100.0,81.3 100.5,84.6 101.0,94.2 101.6,99.1 102.1,95.3 102.6,102.5 103.1,112.6 103.6,96.4 104.1,120.1 104.6,88.8 105.1,101.1 105.7,109.6 106.2,122.4 106.7,122.6 107.2,123.2 107.7,121.8 108.2,118.6 108.7,117.7 109.2,99.3 109.8,88.4 110.3,84.5 110.8,96.6 111.3,94.9 111.8,107.5 112.3,103.7 112.8,102.9 113.3,113.2 113.8,124.5 114.4,128.3 114.9,130.8 115.4,119.5 115.9,118.6 116.4,112.1 116.9,111.7 117.4,113.8 117.9,109.4 118.5,123.0 119.0,122.7 119.5,123.6 120.0,127.8 120.5,125.8 121.0,127.9 121.5,129.4 122.0,124.7 122.6,130.5 123.1,137.8 123.6,141.5 124.1,136.1 124.6,131.0 125.1,130.1 125.6,125.8 126.1,122.9 126.7,126.1 127.2,133.2 127.7,140.0 128.2,138.8 128.7,148.7 129.2,162.4 129.7,166.4 130.2,173.9 130.7,180.8 131.3,185.1 131.8,193.3 132.3,183.5 132.8,199.3 133.3,194.6 133.8,188.8 134.3,192.5 134.8,195.2 135.4,193.0 135.9,196.5 136.4,195.1 136.9,180.0 137.4,184.9 137.9,178.0 138.4,166.7 138.9,178.2 139.5,167.2 140.0,170.1 140.5,173.4 141.0,177.1 141.5,174.9 142.0,171.0 142.5,169.7 143.0,165.4 143.6,169.8 144.1,167.2 144.6,164.2 145.1,168.9 145.6,168.9 146.1,165.8 146.6,167.2 147.1,168.9 147.6,168.5 148.2,175.0 148.7,163.2 149.2,163.3 149.7,168.0 150.2,171.1 150.7,179.1 151.2,181.1 151.7,169.0 152.3,174.0 152.8,179.6 153.3,187.2 153.8,190.1 154.3,195.9 154.8,200.5 155.3,192.7 155.8,186.9 156.4,186.5 156.9,187.9 157.4,182.1 157.9,182.8 158.4,179.8 158.9,179.5 159.4,178.6 159.9,176.0 160.5,175.7 161.0,172.7 161.5,167.9 162.0,168.4 162.5,169.3 163.0,171.8 163.5,171.5 164.0,166.5 164.5,163.8 165.1,170.8 165.6,178.7 166.1,173.9 166.6,180.9 167.1,179.1 167.6,173.8 168.1,150.1 168.6,151.7 169.2,163.9 169.7,161.5 170.2,158.6 170.7,160.2 171.2,157.7 171.7,156.7 172.2,155.4 172.7,144.6 173.3,146.2 173.8,143.1 174.3,144.3 174.8,151.8 175.3,147.2 175.8,142.6 176.3,139.9 176.8,142.2 177.4,149.7 177.9,138.2 178.4,137.2 178.9,129.8 179.4,128.7 179.9,131.0 180.4,139.3 180.9,140.0 181.4,140.5 182.0,132.8 182.5,145.4 183.0,145.0 183.5,141.2 184.0,137.8 184.5,137.2 185.0,142.1 185.5,133.2 186.1,132.0 186.6,136.4 187.1,138.4 187.6,133.8 188.1,136.1 188.6,137.5 189.1,136.4 189.6,142.1 190.2,138.3 190.7,135.5 191.2,138.5 191.7,134.7 192.2,136.2 192.7,130.5 193.2,133.0 193.7,133.0 194.3,125.1 194.8,94.6 195.3,96.2 195.8,103.4 196.3,106.5 196.8,107.3 197.3,88.6 197.8,87.8 198.3,88.0 198.9,97.7 199.4,91.3 199.9,101.1 200.4,120.5 200.9,125.3 201.4,123.1 201.9,131.6 202.4,122.8 203.0,133.5 203.5,147.5 204.0,137.8 204.5,142.0 205.0,121.7 205.5,118.6 206.0,114.1 206.5,120.9 207.1,122.3 207.6,135.6 208.1,140.2 208.6,139.9 209.1,158.0 209.6,155.6 210.1,156.6 210.6,143.6 211.2,138.2 211.7,135.3 212.2,134.7 212.7,137.6 213.2,141.0 213.7,139.0 214.2,142.4 214.7,133.3 215.2,136.0 215.8,148.8 216.3,152.7 216.8,143.0 217.3,151.2 217.8,139.2 218.3,137.8 218.8,143.1 219.3,146.1 219.9,160.7 220.4,160.9 220.9,155.4 221.4,157.4 221.9,171.9 222.4,177.6 222.9,181.8 223.4,188.4 224.0,180.7 224.5,161.9 225.0,157.1 225.5,165.5 226.0,169.1 226.5,159.3 227.0,155.6 227.5,148.8 228.1,137.9 228.6,134.3 229.1,142.3 229.6,137.7 230.1,122.8 230.6,113.9 231.1,118.0 231.6,130.1 232.1,144.3 232.7,168.3 233.2,155.0 233.7,160.1 234.2,165.9 234.7,166.7 235.2,156.2 235.7,165.6 236.2,180.8 236.8,201.0 237.3,181.8 237.8,171.2 238.3,165.4 238.8,176.6 239.3,188.3 239.8,178.7 240.3,159.0 240.9,156.1 241.4,141.6 241.9,149.5 242.4,142.4 242.9,145.9 243.4,136.0 243.9,141.3 244.4,140.6 245.0,129.2 245.5,131.9 246.0,134.6 246.5,132.7 247.0,127.1 247.5,135.4 248.0,145.1 248.5,143.2 249.0,148.3 249.6,151.9 250.1,152.1 250.6,134.5 251.1,136.1 251.6,143.5 252.1,137.0 252.6,145.3 253.1,155.6 253.7,158.5 254.2,154.8 254.7,163.4 255.2,164.7 255.7,152.7 256.2,163.1 256.7,163.8 257.2,176.8 257.8,158.3 258.3,180.1 258.8,193.1 259.3,225.4 259.8,232.2 260.3,232.2 260.8,232.6 261.3,221.0 261.9,235.9 262.4,229.3 262.9,250.3 263.4,236.5 263.9,240.0 264.4,238.4 264.9,254.4 265.4,244.8 266.0,236.2 266.5,223.0 267.0,222.2 267.5,231.0 268.0,221.4 268.5,224.4 269.0,219.9 269.5,218.1 270.0,216.3 270.6,233.1 271.1,248.2 271.6,272.2 272.1,272.4 272.6,265.9 273.1,286.9 273.6,270.8 274.1,263.9 274.7,270.7 275.2,280.4 275.7,260.9 276.2,265.8 276.7,275.8 277.2,285.1 277.7,298.4 278.2,291.9 278.8,279.9 279.3,287.9 279.8,275.8 280.3,276.2 280.8,282.1 281.3,278.3 281.8,280.6 282.3,292.9 282.9,283.2 283.4,275.4 283.9,264.1 284.4,250.9 284.9,250.0 285.4,259.8 285.9,257.5 286.4,264.8 286.9,251.8 287.5,248.4 288.0,243.5 288.5,243.0 289.0,231.8 289.5,234.6 290.0,225.7 290.5,230.1 291.0,232.9 291.6,235.9 292.1,226.7 292.6,220.9 293.1,214.8 293.6,211.8 294.1,215.5 294.6,220.2 295.1,221.4 295.7,235.2 296.2,242.6 296.7,242.1 297.2,235.7 297.7,230.3 298.2,239.4 298.7,237.8 299.2,240.0 299.8,238.8 300.3,238.2 300.8,237.6 301.3,237.5 301.8,232.4 302.3,227.0 302.8,216.9 303.3,214.3 303.8,220.9 304.4,210.3 304.9,213.8 305.4,226.7 305.9,226.6 306.4,231.0 306.9,236.8 307.4,260.4 307.9,265.2 308.5,261.6 309.0,254.1 309.5,244.2 310.0,253.4 310.5,257.3 311.0,257.4 311.5,243.9 312.0,241.8 312.6,242.2 313.1,249.1 313.6,243.5 314.1,253.1 314.6,240.5 315.1,239.8 315.6,247.7 316.1,231.4 316.7,228.4 317.2,230.6 317.7,230.4 318.2,224.1 318.7,231.7 319.2,227.3 319.7,234.0 320.2,241.1 320.7,234.2 321.3,252.9 321.8,247.9 322.3,283.9 322.8,290.3 323.3,279.5 323.8,281.1 324.3,272.3 324.8,280.3 325.4,263.6 325.9,246.7 326.4,257.0 326.9,252.6 327.4,258.7 327.9,271.3 328.4,275.1 328.9,280.5 329.5,281.6 330.0,278.1 330.5,275.4 331.0,281.5 331.5,281.3 332.0,264.2 332.5,266.4 333.0,267.0 333.6,273.3 334.1,287.3 334.6,291.7 335.1,282.8 335.6,283.1 336.1,280.8 336.6,286.7 337.1,285.1 337.6,294.1 338.2,297.0 338.7,307.3 339.2,302.5 339.7,304.1 340.2,310.4 340.7,309.3 341.2,314.5 341.7,317.5 342.3,309.4 342.8,308.6 343.3,310.4 343.8,299.4 344.3,302.2 344.8,299.9 345.3,297.9 345.8,299.9 346.4,283.8 346.9,273.3 347.4,268.6 347.9,266.4 348.4,266.8 348.9,271.8 349.4,266.3 349.9,256.8 350.5,259.4 351.0,258.7 351.5,247.1 352.0,232.6 352.5,246.9 353.0,243.2 353.5,236.9 354.0,227.1 354.5,226.8 355.1,227.5 355.6,224.7 356.1,231.7 356.6,234.8 357.1,248.3 357.6,231.6 358.1,222.2 358.6,191.0 359.2,186.6 359.7,201.0 360.2,206.4 360.7,209.5 361.2,212.8 361.7,218.3 362.2,216.8 362.7,217.3 363.3,222.3 363.8,219.1 364.3,212.4 364.8,211.2 365.3,210.0 365.8,213.9 366.3,224.4 366.8,227.6 367.4,232.6 367.9,231.7 368.4,237.8 368.9,224.1 369.4,227.9 369.9,227.4 370.4,216.5 370.9,221.6 371.4,223.4 372.0,230.5 372.5,228.4 373.0,231.2 373.5,226.6 374.0,219.4 374.5,215.1 375.0,221.0 375.5,227.3 376.1,233.9 376.6,246.5 377.1,239.9 377.6,236.3 378.1,240.3 378.6,236.9 379.1,235.4 379.6,232.1 380.2,225.7 380.7,223.8 381.2,227.4 381.7,233.6 382.2,232.2 382.7,240.1 383.2,237.5 383.7,234.1 384.3,224.7 384.8,221.1 385.3,222.8 385.8,226.4 386.3,229.0 386.8,224.3 387.3,212.6 387.8,209.8 388.3,238.6 388.9,243.0 389.4,256.7 389.9,255.5 390.4,256.4 390.9,249.6 391.4,241.5 391.9,251.8 392.4,245.9 393.0,254.4 393.5,255.7 394.0,258.7 394.5,253.1 395.0,252.2 395.5,246.3 396.0,240.9 396.5,228.1 397.1,233.2 397.6,229.7 398.1,231.3 398.6,233.6 399.1,228.5 399.6,214.7 400.1,214.1 400.6,213.6 401.2,208.2 401.7,206.6 402.2,211.0 402.7,209.0 403.2,208.0 403.7,214.4 404.2,217.6 404.7,208.2 405.2,208.7 405.8,213.7 406.3,207.6 406.8,199.6 407.3,200.9 407.8,207.6 408.3,203.5 408.8,200.8 409.3,190.0 409.9,191.0 410.4,185.4 410.9,179.7 411.4,176.2 411.9,174.2 412.4,175.9 412.9,176.4 413.4,170.4 414.0,172.4 414.5,170.6 415.0,168.1 415.5,170.9 416.0,162.9 416.5,164.8 417.0,170.2 417.5,177.6 418.1,184.0 418.6,185.3 419.1,180.0 419.6,186.4 420.1,189.4 420.6,192.9 421.1,197.1 421.6,197.9 422.1,204.4 422.7,206.3 423.2,208.0 423.7,213.7 424.2,215.9 424.7,209.7 425.2,207.7 425.7,214.4 426.2,212.3 426.8,211.6 427.3,199.8 427.8,202.9 428.3,201.1 428.8,199.0 429.3,181.5 429.8,182.5 430.3,179.8 430.9,175.4 431.4,172.9 431.9,172.6 432.4,177.3 432.9,178.4 433.4,180.7 433.9,181.1 434.4,182.3 435.0,189.2 435.5,198.9 436.0,199.9 436.5,196.3 437.0,199.7 437.5,196.5 438.0,192.0 438.5,190.6 439.0,191.8 439.6,208.5 440.1,209.1 440.6,213.9 441.1,211.2 441.6,208.4 442.1,201.0 442.6,204.1 443.1,211.9 443.7,215.7 444.2,213.5 444.7,212.4 445.2,219.6 445.7,224.1 446.2,231.4 446.7,223.2 447.2,219.9 447.8,227.2 448.3,233.6 448.8,236.6 449.3,230.5 449.8,227.6 450.3,225.1 450.8,233.6 451.3,218.6 451.9,227.9 452.4,221.8 452.9,229.0 453.4,233.5 453.9,227.9 454.4,225.8 454.9,210.5 455.4,207.3 455.9,211.3 456.5,209.6 457.0,204.7 457.5,210.3 458.0,205.9 458.5,207.2 459.0,206.0 459.5,208.8 460.0,210.9 460.6,211.2 461.1,194.6 461.6,197.1 462.1,197.1 462.6,194.1 463.1,185.9 463.6,184.4 464.1,180.5 464.7,184.6 465.2,177.7 465.7,173.0 466.2,174.1 466.7,172.6 467.2,173.6 467.7,183.7 468.2,181.9 468.8,184.2 469.3,187.9 469.8,191.8 470.3,191.0 470.8,192.6 471.3,195.6 471.8,197.6 472.3,197.0 472.8,192.9 473.4,185.5 473.9,186.4 474.4,186.0 474.9,186.6 475.4,190.7 475.9,194.6 476.4,194.7 476.9,190.9 477.5,185.7 478.0,182.0 478.5,181.5 479.0,183.5 479.5,181.9 480.0,169.0 480.5,163.9 481.0,169.3 481.6,178.3 482.1,174.3 482.6,174.2 483.1,177.2 483.6,177.7 484.1,172.5 484.6,167.5 485.1,172.4 485.7,162.1 486.2,167.0 486.7,171.4 487.2,155.9 487.7,164.2 488.2,171.5 488.7,169.7 489.2,159.8 489.7,164.0 490.3,169.6 490.8,165.0 491.3,162.7 491.8,156.3 492.3,152.7 492.8,155.3 493.3,153.3 493.8,146.3 494.4,146.8 494.9,144.7 495.4,147.7 495.9,142.1 496.4,145.0 496.9,142.4 497.4,151.3 497.9,149.4 498.5,149.5 499.0,145.1 499.5,139.9 500.0,140.3 500.5,140.1 501.0,141.0 501.5,142.5 502.0,144.7 502.6,147.1 503.1,152.1 503.6,153.3 504.1,154.1 504.6,149.5 505.1,151.9 505.6,148.2 506.1,151.9 506.6,144.0 507.2,153.3 507.7,159.2 508.2,157.6 508.7,154.8 509.2,152.1 509.7,160.2 510.2,157.6 510.7,150.8 511.3,147.9 511.8,147.6 512.3,145.8 512.8,148.8 513.3,154.5 513.8,158.3 514.3,154.9 514.8,152.7 515.4,149.2 515.9,152.6 516.4,155.6 516.9,173.3 517.4,174.6 517.9,169.8 518.4,173.9 518.9,175.5 519.5,173.1 520.0,175.7 520.5,174.5 521.0,178.4 521.5,180.8 522.0,183.7 522.5,177.8 523.0,173.4 523.5,174.1 524.1,175.9 524.6,177.0 525.1,174.7 525.6,173.3 526.1,175.5 526.6,173.4 527.1,174.0 527.6,171.6 528.2,172.2 528.7,169.5 529.2,175.0 529.7,175.2 530.2,169.2 530.7,172.9 531.2,171.9 531.7,169.1 532.3,171.1 532.8,166.9 533.3,168.4 533.8,165.7 534.3,165.7 534.8,165.7 535.3,161.3 535.8,163.9 536.4,164.3 536.9,165.1 537.4,164.3 537.9,165.3 538.4,175.1 538.9,173.8 539.4,173.1 539.9,166.3 540.4,171.7 541.0,173.6 541.5,171.8 542.0,168.1 542.5,170.5 543.0,178.2 543.5,185.5 544.0,185.4 544.5,185.1 545.1,187.4 545.6,186.4 546.1,194.5 546.6,207.5 547.1,213.2 547.6,203.2 548.1,239.0 548.6,235.4 549.2,234.5 549.7,237.7 550.2,230.6 550.7,232.0 551.2,226.4 551.7,231.8 552.2,225.8 552.7,229.6 553.3,228.9 553.8,233.7 554.3,230.7 554.8,233.1 555.3,230.9 555.8,229.2 556.3,231.2 556.8,229.7 557.3,234.7 557.9,234.2 558.4,232.2 558.9,236.2 559.4,231.7 559.9,234.4 560.4,232.6 560.9,229.6 561.4,228.8 562.0,229.2 562.5,219.7 563.0,219.1 563.5,206.5 564.0,201.8 564.5,205.9 565.0,201.3 565.5,202.7 566.1,205.5 566.6,207.5 567.1,210.3 567.6,212.9 568.1,211.5 568.6,213.3 569.1,204.4 569.6,203.6 570.2,199.3 570.7,193.8 571.2,198.7 571.7,195.8 572.2,195.1 572.7,197.9 573.2,194.4 573.7,192.8 574.2,192.0 574.8,190.7 575.3,193.6 575.8,200.4 576.3,198.9 576.8,195.4 577.3,193.2 577.8,189.6 578.3,191.9 578.9,195.1 579.4,192.0 579.9,191.2 580.4,189.5 580.9,184.0 581.4,172.8 581.9,195.4 582.4,190.3 583.0,198.0 583.5,198.8 584.0,195.5 584.5,199.3 585.0,199.9 585.5,201.3 586.0,194.2 586.5,197.9 587.1,190.4 587.6,183.9 588.1,186.2 588.6,188.7 589.1,192.6 589.6,190.1 590.1,190.2 590.6,187.3 591.1,192.2 591.7,191.1 592.2,190.5 592.7,188.6 593.2,187.7 593.7,190.1 594.2,202.3 594.7,199.9 595.2,199.8 595.8,208.8 596.3,205.3 596.8,196.1 597.3,195.6 597.8,194.7 598.3,194.1 598.8,197.7 599.3,200.6 599.9,201.4 600.4,201.3 600.9,193.4 601.4,194.3 601.9,201.6 602.4,202.5 602.9,204.8 603.4,206.3 604.0,208.7 604.5,199.3 605.0,200.0 605.5,194.4 606.0,198.3 606.5,199.3 607.0,197.9 607.5,209.7 608.0,206.1 608.6,202.1 609.1,199.2 609.6,200.7 610.1,201.8 610.6,204.5 611.1,202.7 611.6,204.8 612.1,199.2 612.7,194.7 613.2,194.2 613.7,195.6 614.2,184.7 614.7,183.7 615.2,150.1 615.7,151.4 616.2,155.5 616.8,159.7 617.3,175.0 617.8,177.2 618.3,182.8 618.8,178.5 619.3,186.6 619.8,187.6 620.3,183.9 620.9,183.1 621.4,181.0 621.9,195.1 622.4,195.8 622.9,200.0 623.4,213.0 623.9,210.8 624.4,225.3 625.0,218.2 625.5,210.0 626.0,214.7 626.5,211.9 627.0,211.6 627.5,206.4 628.0,204.4 628.5,204.3 629.0,206.7 629.6,212.6 630.1,222.6 630.6,225.2 631.1,221.6 631.6,218.3 632.1,236.9 632.6,253.4 633.1,254.3 633.7,255.7 634.2,221.3 634.7,237.0 635.2,235.7 635.7,238.6 636.2,235.4 636.7,239.8 637.2,239.7 637.8,242.1 638.3,234.9 638.8,227.6 639.3,220.5 639.8,218.9 640.3,217.3 640.8,212.9 641.3,220.1 641.9,215.8 642.4,213.3 642.9,214.1 643.4,220.6 643.9,217.6 644.4,211.1 644.9,209.8 645.4,196.1 645.9,189.1 646.5,190.2 647.0,191.4 647.5,189.2 648.0,191.7 648.5,200.0 649.0,208.9 649.5,208.6 650.0,210.5 650.6,205.2 651.1,206.6 651.6,207.2 652.1,206.0 652.6,204.8 653.1,198.6 653.6,197.4 654.1,190.5 654.7,184.5 655.2,187.4 655.7,188.2 656.2,189.1 656.7,187.7 657.2,193.7 657.7,190.6 658.2,197.7 658.8,200.0 659.3,200.8 659.8,203.1 660.3,200.0 660.8,204.7 661.3,197.0 661.8,195.6 662.3,199.6 662.8,193.9 663.4,193.9 663.9,191.9 664.4,191.0 664.9,191.0 665.4,191.3 665.9,191.0 666.4,194.0 666.9,188.2 667.5,191.8 668.0,191.5 668.5,186.8 669.0,186.8 669.5,189.1 670.0,186.6 670.5,185.9 671.0,182.7 671.6,183.3 672.1,181.8 672.6,191.3 673.1,195.1 673.6,199.5 674.1,207.9 674.6,202.2 675.1,204.2 675.7,203.1 676.2,224.0 676.7,221.9 677.2,227.6 677.7,220.7 678.2,214.8 678.7,214.6 679.2,213.7 679.7,212.9 680.3,211.9 680.8,213.9 681.3,211.0 681.8,204.2 682.3,207.7 682.8,210.1 683.3,204.4 683.8,203.2 684.4,203.1 684.9,208.7 685.4,214.1 685.9,213.1 686.4,216.2 686.9,214.6 687.4,216.2 687.9,217.1 688.5,217.8 689.0,218.8 689.5,223.3 690.0,220.6 690.5,217.5 691.0,212.9 691.5,209.8 692.0,213.0 692.6,216.9 693.1,217.7 693.6,220.4 694.1,216.5 694.6,218.0 695.1,221.1 695.6,219.3 696.1,221.0 696.6,223.6 697.2,223.3 697.7,224.4 698.2,224.1 698.7,223.7 699.2,227.8 699.7,226.4 700.2,218.1 700.7,215.3 701.3,218.1 701.8,212.1 702.3,209.5 702.8,206.9 703.3,208.9 703.8,209.2 704.3,208.0 704.8,205.9 705.4,207.9 705.9,210.9 706.4,211.2 706.9,210.8 707.4,210.3 707.9,219.2 708.4,218.9 708.9,222.9 709.5,222.2 710.0,223.6 710.5,218.8 711.0,220.6 711.5,221.6 712.0,219.9 712.5,229.1 713.0,233.8 713.5,235.9 714.1,242.3 714.6,236.3 715.1,235.9 715.6,227.1 716.1,230.9 716.6,230.4 717.1,226.6 717.6,227.2 718.2,223.8 718.7,222.3 719.2,215.2 719.7,219.9 720.2,213.1 720.7,208.8 721.2,207.9 721.7,207.2 722.3,200.6 722.8,200.3 723.3,196.9 723.8,196.5 724.3,194.1 724.8,191.1 725.3,191.9 725.8,191.4 726.4,191.3 726.9,191.7 727.4,191.2 727.9,193.3 728.4,198.4 728.9,193.1 729.4,189.1 729.9,190.9 730.4,188.0 731.0,186.9 731.5,188.3 732.0,185.5 732.5,198.8 733.0,199.1 733.5,202.8 734.0,202.7 734.5,197.3 735.1,196.9 735.6,200.0 736.1,197.7 736.6,199.9 737.1,201.1 737.6,200.7 738.1,205.3 738.6,201.6 739.2,219.8 739.7,214.6 740.2,221.4 740.7,219.6 741.2,221.3 741.7,223.4 742.2,225.0 742.7,232.6 743.3,221.3 743.8,215.4 744.3,215.3 744.8,212.3 745.3,208.2 745.8,218.0 746.3,212.5 746.8,200.2 747.3,191.1 747.9,194.5 748.4,197.9 748.9,198.3 749.4,193.7 749.9,193.1 750.4,198.0 750.9,196.5 751.4,199.4 752.0,197.7 752.5,208.5 753.0,211.3 753.5,207.3 754.0,200.4 754.5,201.9 755.0,202.6 755.5,206.9 756.1,199.2 756.6,204.1 757.1,200.6 757.6,202.1 758.1,218.1 758.6,217.7 759.1,211.3 759.6,213.5 760.2,214.0 760.7,210.3 761.2,213.9 761.7,201.4 762.2,205.7 762.7,206.1 763.2,203.5 763.7,196.8 764.2,190.1 764.8,189.5 765.3,182.8 765.8,179.3 766.3,180.9 766.8,178.3 767.3,182.3 767.8,180.6 768.3,183.7 768.9,187.3 769.4,185.1 769.9,185.0 770.4,182.7 770.9,187.6 771.4,186.1 771.9,185.8 772.4,184.8 773.0,183.0 773.5,190.9 774.0,193.8 774.5,198.4 775.0,197.1 775.5,198.7 776.0,196.0 776.5,201.9 777.1,193.7 777.6,196.1 778.1,199.6 778.6,199.0 779.1,200.1 779.6,195.6 780.1,197.8 780.6,189.4 781.1,195.9 781.7,197.3 782.2,197.0 782.7,197.4 783.2,195.7 783.7,201.5 784.2,205.8 784.7,202.4 785.2,199.7 785.8,187.5 786.3,183.5 786.8,184.6 787.3,181.3 787.8,187.0 788.3,187.7 788.8,177.9 789.3,182.3 789.9,175.9 790.4,173.1 790.9,180.1 791.4,172.9 791.9,170.2 792.4,172.3 792.9,170.4 793.4,180.4 794.0,173.6 794.5,170.7 795.0,174.6 795.5,174.2 796.0,171.1"/>
<text x="78" y="392" font-size="11" fill="#16a34a">Total return +2.5%</text><text x="268" y="392" font-size="11" fill="#2563eb">Price-only +2.5%</text><text x="78" y="362" font-size="11" text-anchor="middle" fill="#64748b">2020-12</text><text x="257" y="362" font-size="11" text-anchor="middle" fill="#64748b">2022-05</text><text x="437" y="362" font-size="11" text-anchor="middle" fill="#64748b">2023-09</text><text x="617" y="362" font-size="11" text-anchor="middle" fill="#64748b">2025-02</text><text x="796" y="362" font-size="11" text-anchor="middle" fill="#64748b">2026-07</text></svg>