<svg xmlns="http://www.w3.org/2000/svg" width="720" height="360" viewBox="0 0 720 360">
  <rect width="720" height="360" fill="#fafafa"/>
  <text x="56" y="22" font-size="13" font-family="sans-serif" fill="#222">ABNB total return (rebased 100) · cumulative distributions $0.00/sh · market cap n/a</text>
  <line x1="56" y1="308" x2="696" y2="308" stroke="#ccc"/>
  <line x1="56" y1="48" x2="56" y2="308" stroke="#ccc"/>
  <polyline fill="none" stroke="#2563eb" stroke-width="2" points="56.0,186.3 56.5,195.4 56.9,210.8 57.4,219.5 57.8,197.5 58.3,182.4 58.7,165.3 59.2,155.7 59.7,155.4 60.1,164.1 60.6,169.4 61.0,179.1 61.5,177.4 62.0,180.1 62.4,182.8 62.9,195.5 63.3,180.3 63.8,189.5 64.2,175.3 64.7,177.8 65.2,180.6 65.6,159.4 66.1,144.1 66.5,126.6 67.0,145.3 67.4,137.9 67.9,157.7 68.4,126.7 68.8,124.3 69.3,131.5 69.7,106.1 70.2,91.9 70.6,115.1 71.1,121.3 71.6,126.7 72.0,128.8 72.5,117.8 72.9,101.0 73.4,101.8 73.9,93.3 74.3,94.2 74.8,74.6 75.2,65.9 75.7,72.9 76.1,77.6 76.6,90.8 77.1,97.3 77.5,92.2 78.0,101.8 78.4,114.7 78.9,93.7 79.3,124.0 79.8,83.4 80.3,100.0 80.7,110.9 81.2,126.7 81.6,127.0 82.1,127.7 82.6,126.0 83.0,122.2 83.5,121.1 83.9,97.6 84.4,82.8 84.8,77.4 85.3,94.0 85.8,91.8 86.2,108.3 86.7,103.4 87.1,102.4 87.6,115.5 88.0,129.3 88.5,133.8 89.0,136.7 89.4,123.2 89.9,122.2 90.3,114.1 90.8,113.6 91.3,116.2 91.7,110.7 92.2,127.5 92.6,127.1 93.1,128.2 93.5,133.2 94.0,130.8 94.5,133.3 94.9,135.1 95.4,129.6 95.8,136.4 96.3,144.8 96.7,149.0 97.2,142.9 97.7,137.0 98.1,135.9 98.6,130.8 99.0,127.4 99.5,131.3 99.9,139.6 100.4,147.2 100.9,145.9 101.3,156.9 101.8,171.4 102.2,175.4 102.7,182.9 103.2,189.6 103.6,193.7 104.1,201.2 104.5,192.1 105.0,206.6 105.4,202.4 105.9,197.1 106.4,200.5 106.8,202.9 107.3,200.9 107.7,204.2 108.2,202.9 108.6,188.8 109.1,193.5 109.6,186.9 110.0,175.8 110.5,187.1 110.9,176.2 111.4,179.2 111.9,182.4 112.3,186.0 112.8,183.9 113.2,180.0 113.7,178.8 114.1,174.5 114.6,178.9 115.1,176.3 115.5,173.2 116.0,177.9 116.4,178.0 116.9,174.8 117.3,176.2 117.8,178.0 118.3,177.5 118.7,184.0 119.2,172.2 119.6,172.3 120.1,177.1 120.5,180.2 121.0,187.9 121.5,189.9 121.9,178.0 122.4,183.0 122.8,188.4 123.3,195.6 123.8,198.3 124.2,203.6 124.7,207.7 125.1,200.6 125.6,195.4 126.0,195.0 126.5,196.2 127.0,190.8 127.4,191.5 127.9,188.6 128.3,188.3 128.8,187.4 129.2,185.0 129.7,184.7 130.2,181.8 130.6,176.9 131.1,177.5 131.5,178.4 132.0,180.9 132.5,180.5 132.9,175.5 133.4,172.8 133.8,179.8 134.3,187.6 134.7,182.9 135.2,189.7 135.7,188.0 136.1,182.8 136.6,158.4 137.0,160.2 137.5,172.9 137.9,170.5 138.4,167.4 138.9,169.1 139.3,166.4 139.8,165.4 140.2,164.1 140.7,152.4 141.2,154.2 141.6,150.7 142.1,152.1 142.5,160.2 143.0,155.3 143.4,150.1 143.9,147.2 144.4,149.8 144.8,158.0 145.3,145.3 145.7,144.1 146.2,135.5 146.6,134.3 147.1,137.0 147.6,146.4 148.0,147.3 148.5,147.8 148.9,139.1 149.4,153.3 149.8,152.9 150.3,148.7 150.8,144.7 151.2,144.1 151.7,149.6 152.1,139.5 152.6,138.1 153.1,143.2 153.5,145.4 154.0,140.2 154.4,142.8 154.9,144.5 155.3,143.2 155.8,149.7 156.3,145.3 156.7,142.2 157.2,145.6 157.6,141.2 158.1,143.0 158.5,136.4 159.0,139.3 159.5,139.3 159.9,130.0 160.4,91.3 160.8,93.5 161.3,102.9 161.8,107.0 162.2,108.0 162.7,83.1 163.1,82.0 163.6,82.3 164.0,95.5 164.5,86.8 165.0,100.0 165.4,124.5 165.9,130.3 166.3,127.6 166.8,137.6 167.2,127.3 167.7,139.8 168.2,155.6 168.6,144.7 169.1,149.5 169.5,126.0 170.0,122.2 170.4,116.6 170.9,125.0 171.4,126.7 171.8,142.3 172.3,147.5 172.7,147.2 173.2,166.8 173.7,164.2 174.1,165.4 174.6,151.3 175.0,145.3 175.5,141.9 175.9,141.3 176.4,144.6 176.9,148.3 177.3,146.1 177.8,149.9 178.2,139.6 178.7,142.7 179.1,157.0 179.6,161.2 180.1,150.7 180.5,159.6 181.0,146.4 181.4,144.8 181.9,150.7 182.4,154.1 182.8,169.6 183.3,169.8 183.7,164.1 184.2,166.2 184.6,180.9 185.1,186.5 185.6,190.6 186.0,196.8 186.5,189.5 186.9,170.8 187.4,165.9 187.8,174.5 188.3,178.2 188.8,168.2 189.2,164.2 189.7,157.0 190.1,144.9 190.6,140.8 191.1,149.9 191.5,144.6 192.0,127.3 192.4,116.3 192.9,121.4 193.3,135.9 193.8,152.0 194.3,177.4 194.7,163.7 195.2,168.9 195.6,175.0 196.1,175.8 196.5,164.9 197.0,174.6 197.5,189.6 197.9,208.2 198.4,190.6 198.8,180.3 199.3,174.4 199.7,185.5 200.2,196.6 200.7,187.5 201.1,167.8 201.6,164.8 202.0,149.1 202.5,157.8 203.0,150.0 203.4,153.8 203.9,142.7 204.3,148.7 204.8,148.0 205.2,134.9 205.7,138.0 206.2,141.1 206.6,139.0 207.1,132.4 207.5,142.1 208.0,153.0 208.4,150.9 208.9,156.5 209.4,160.3 209.8,160.6 210.3,141.0 210.7,142.9 211.2,151.2 211.7,143.9 212.1,153.2 212.6,164.2 213.0,167.3 213.5,163.4 213.9,172.4 214.4,173.7 214.9,161.2 215.3,172.1 215.8,172.8 216.2,185.8 216.7,167.1 217.1,189.0 217.6,201.1 218.1,228.5 218.5,233.9 219.0,233.9 219.4,234.3 219.9,225.1 220.3,236.8 220.8,231.7 221.3,247.5 221.7,237.2 222.2,239.9 222.6,238.7 223.1,250.4 223.6,243.5 224.0,237.0 224.5,226.7 224.9,226.0 225.4,233.0 225.8,225.4 226.3,227.8 226.8,224.1 227.2,222.7 227.7,221.2 228.1,234.6 228.6,246.0 229.0,262.6 229.5,262.7 230.0,258.4 230.4,272.1 230.9,261.7 231.3,257.1 231.8,261.6 232.3,268.0 232.7,255.0 233.2,258.4 233.6,265.0 234.1,271.0 234.5,279.1 235.0,275.2 235.5,267.6 235.9,272.7 236.4,265.0 236.8,265.3 237.3,269.0 237.7,266.6 238.2,268.1 238.7,275.8 239.1,269.8 239.6,264.7 240.0,257.2 240.5,248.0 240.9,247.3 241.4,254.2 241.9,252.6 242.3,257.7 242.8,248.6 243.2,246.1 243.7,242.5 244.2,242.2 244.6,233.6 245.1,235.8 245.5,228.8 246.0,232.3 246.4,234.5 246.9,236.8 247.4,229.6 247.8,225.0 248.3,220.0 248.7,217.4 249.2,220.5 249.6,224.4 250.1,225.4 250.6,236.2 251.0,241.9 251.5,241.5 251.9,236.6 252.4,232.4 252.9,239.5 253.3,238.3 253.8,239.9 254.2,239.0 254.7,238.5 255.1,238.1 255.6,238.0 256.1,234.0 256.5,229.9 257.0,221.7 257.4,219.5 257.9,224.9 258.3,216.1 258.8,219.1 259.3,229.6 259.7,229.5 260.2,233.0 260.6,237.5 261.1,254.7 261.6,257.9 262.0,255.5 262.5,250.2 262.9,243.0 263.4,249.7 263.8,252.4 264.3,252.5 264.8,242.8 265.2,241.2 265.7,241.5 266.1,246.6 266.6,242.5 267.0,249.5 267.5,240.3 268.0,239.8 268.4,245.6 268.9,233.3 269.3,230.9 269.8,232.7 270.2,232.5 270.7,227.6 271.2,233.5 271.6,230.1 272.1,235.3 272.5,240.7 273.0,235.5 273.5,249.3 273.9,245.8 274.4,270.2 274.8,274.2 275.3,267.4 275.7,268.4 276.2,262.7 276.7,267.9 277.1,256.9 277.6,244.9 278.0,252.2 278.5,249.2 278.9,253.5 279.4,262.0 279.9,264.6 280.3,268.0 280.8,268.7 281.2,266.5 281.7,264.7 282.2,268.7 282.6,268.6 283.1,257.3 283.5,258.7 284.0,259.2 284.4,263.3 284.9,272.3 285.4,275.0 285.8,269.5 286.3,269.7 286.7,268.2 287.2,272.0 287.6,271.0 288.1,276.5 288.6,278.3 289.0,284.3 289.5,281.5 289.9,282.4 290.4,286.1 290.8,285.5 291.3,288.4 291.8,290.1 292.2,285.5 292.7,285.0 293.1,286.0 293.6,279.7 294.1,281.4 294.5,280.0 295.0,278.8 295.4,280.0 295.9,270.1 296.3,263.4 296.8,260.2 297.3,258.7 297.7,259.0 298.2,262.4 298.6,258.7 299.1,252.1 299.5,254.0 300.0,253.4 300.5,245.1 300.9,234.3 301.4,245.0 301.8,242.3 302.3,237.5 302.8,230.0 303.2,229.7 303.7,230.2 304.1,228.0 304.6,233.6 305.0,235.9 305.5,246.1 306.0,233.5 306.4,226.0 306.9,199.1 307.3,195.1 307.8,208.1 308.2,212.8 308.7,215.5 309.2,218.3 309.6,222.9 310.1,221.6 310.5,222.0 311.0,226.1 311.5,223.5 311.9,217.9 312.4,216.9 312.8,215.9 313.3,219.1 313.7,227.8 314.2,230.3 314.7,234.2 315.1,233.6 315.6,238.2 316.0,227.5 316.5,230.6 316.9,230.2 317.4,221.3 317.9,225.5 318.3,227.0 318.8,232.6 319.2,231.0 319.7,233.1 320.1,229.5 320.6,223.7 321.1,220.1 321.5,225.1 322.0,230.1 322.4,235.3 322.9,244.7 323.4,239.8 323.8,237.1 324.3,240.1 324.7,237.6 325.2,236.4 325.6,233.9 326.1,228.8 326.6,227.3 327.0,230.2 327.5,235.0 327.9,234.0 328.4,240.0 328.8,238.0 329.3,235.4 329.8,228.0 330.2,225.1 330.7,226.5 331.1,229.4 331.6,231.4 332.1,227.7 332.5,218.1 333.0,215.7 333.4,238.9 333.9,242.2 334.3,252.1 334.8,251.2 335.3,251.8 335.7,247.0 336.2,241.1 336.6,248.5 337.1,244.3 337.5,250.4 338.0,251.3 338.5,253.5 338.9,249.5 339.4,248.9 339.8,244.6 340.3,240.6 340.7,230.7 341.2,234.7 341.7,232.0 342.1,233.2 342.6,235.0 343.0,231.1 343.5,219.8 344.0,219.3 344.4,218.9 344.9,214.4 345.3,213.0 345.8,216.7 346.2,215.0 346.7,214.2 347.2,219.6 347.6,222.3 348.1,214.3 348.5,214.8 349.0,219.0 349.4,213.9 349.9,206.9 350.4,208.0 350.8,213.9 351.3,210.3 351.7,208.0 352.2,198.2 352.7,199.1 353.1,194.0 353.6,188.6 354.0,185.2 354.5,183.2 354.9,184.9 355.4,185.3 355.9,179.5 356.3,181.4 356.8,179.7 357.2,177.2 357.7,179.9 358.1,171.9 358.6,173.8 359.1,179.3 359.5,186.5 360.0,192.7 360.4,193.8 360.9,188.8 361.4,194.9 361.8,197.7 362.3,200.8 362.7,204.7 363.2,205.4 363.6,211.1 364.1,212.8 364.6,214.2 365.0,219.0 365.5,220.8 365.9,215.7 366.4,213.9 366.8,219.6 367.3,217.8 367.8,217.2 368.2,207.1 368.7,209.8 369.1,208.2 369.6,206.3 370.0,190.3 370.5,191.2 371.0,188.7 371.4,184.4 371.9,181.9 372.3,181.6 372.8,186.3 373.3,187.3 373.7,189.5 374.2,189.9 374.6,191.0 375.1,197.4 375.5,206.2 376.0,207.1 376.5,203.9 376.9,207.0 377.4,204.1 377.8,200.0 378.3,198.8 378.7,199.9 379.2,214.6 379.7,215.1 380.1,219.2 380.6,216.9 381.0,214.5 381.5,208.2 382.0,210.8 382.4,217.5 382.9,220.7 383.3,218.8 383.8,218.0 384.2,223.9 384.7,227.5 385.2,233.3 385.6,226.8 386.1,224.1 386.5,230.0 387.0,235.0 387.4,237.4 387.9,232.6 388.4,230.3 388.8,228.4 389.3,235.0 389.7,223.1 390.2,230.5 390.6,225.7 391.1,231.4 391.6,235.0 392.0,230.6 392.5,228.9 392.9,216.3 393.4,213.6 393.9,217.0 394.3,215.6 394.8,211.3 395.2,216.1 395.7,212.4 396.1,213.5 396.6,212.5 397.1,214.9 397.5,216.7 398.0,216.9 398.4,202.4 398.9,204.6 399.3,204.6 399.8,201.9 400.3,194.4 400.7,193.0 401.2,189.3 401.6,193.2 402.1,186.6 402.6,182.0 403.0,183.1 403.5,181.6 403.9,182.6 404.4,192.3 404.8,190.6 405.3,192.8 405.8,196.3 406.2,199.9 406.7,199.1 407.1,200.6 407.6,203.3 408.0,205.1 408.5,204.6 409.0,200.8 409.4,194.0 409.9,194.9 410.3,194.5 410.8,195.0 411.3,198.9 411.7,202.4 412.2,202.5 412.6,199.1 413.1,194.2 413.5,190.8 414.0,190.3 414.5,192.1 414.9,190.6 415.4,178.1 415.8,172.9 416.3,178.4 416.7,187.2 417.2,183.3 417.7,183.2 418.1,186.1 418.6,186.6 419.0,181.5 419.5,176.5 419.9,181.5 420.4,171.1 420.9,176.1 421.3,180.4 421.8,164.6 422.2,173.3 422.7,180.5 423.2,178.7 423.6,168.7 424.1,173.0 424.5,178.7 425.0,174.0 425.4,171.7 425.9,165.0 426.4,161.2 426.8,163.9 427.3,161.9 427.7,154.3 428.2,154.9 428.6,152.6 429.1,155.8 429.6,149.6 430.0,152.8 430.5,150.0 430.9,159.7 431.4,157.7 431.9,157.8 432.3,152.9 432.8,147.1 433.2,147.6 433.7,147.4 434.1,148.4 434.6,150.1 435.1,152.5 435.5,155.1 436.0,160.6 436.4,161.9 436.9,162.7 437.3,157.8 437.8,160.3 438.3,156.3 438.7,160.3 439.2,151.7 439.6,161.8 440.1,168.1 440.5,166.3 441.0,163.5 441.5,160.6 441.9,169.1 442.4,166.4 442.8,159.2 443.3,156.0 443.8,155.7 444.2,153.7 444.7,157.0 445.1,163.1 445.6,167.2 446.0,163.5 446.5,161.2 447.0,157.4 447.4,161.1 447.9,164.3 448.3,182.4 448.8,183.6 449.2,178.9 449.7,182.9 450.2,184.4 450.6,182.1 451.1,184.7 451.5,183.5 452.0,187.3 452.5,189.6 452.9,192.4 453.4,186.7 453.8,182.4 454.3,183.1 454.7,184.9 455.2,185.9 455.7,183.7 456.1,182.3 456.6,184.5 457.0,182.4 457.5,183.0 457.9,180.7 458.4,181.2 458.9,178.6 459.3,183.9 459.8,184.2 460.2,178.3 460.7,182.0 461.2,181.0 461.6,178.2 462.1,180.1 462.5,175.9 463.0,177.4 463.4,174.8 463.9,174.7 464.4,174.7 464.8,170.2 465.3,172.9 465.7,173.3 466.2,174.2 466.6,173.4 467.1,174.4 467.6,184.1 468.0,182.8 468.5,182.1 468.9,175.3 469.4,180.8 469.8,182.6 470.3,180.8 470.8,177.1 471.2,179.5 471.7,187.1 472.1,194.1 472.6,194.0 473.1,193.6 473.5,195.8 474.0,194.9 474.4,202.3 474.9,213.8 475.3,218.6 475.8,210.0 476.3,239.2 476.7,236.4 477.2,235.7 477.6,238.1 478.1,232.7 478.5,233.8 479.0,229.4 479.5,233.6 479.9,228.9 480.4,231.9 480.8,231.4 481.3,235.1 481.8,232.7 482.2,234.6 482.7,232.9 483.1,231.6 483.6,233.2 484.0,232.0 484.5,235.9 485.0,235.5 485.4,233.9 485.9,237.0 486.3,233.6 486.8,235.6 487.2,234.2 487.7,231.9 488.2,231.2 488.6,231.6 489.1,224.0 489.5,223.5 490.0,212.9 490.4,208.8 490.9,212.4 491.4,208.3 491.8,209.6 492.3,212.1 492.7,213.7 493.2,216.1 493.7,218.4 494.1,217.2 494.6,218.7 495.0,211.1 495.5,210.4 495.9,206.6 496.4,201.6 496.9,206.1 497.3,203.5 497.8,202.8 498.2,205.4 498.7,202.2 499.1,200.8 499.6,200.0 500.1,198.8 500.5,201.5 501.0,207.6 501.4,206.2 501.9,203.2 502.4,201.2 502.8,197.8 503.3,200.0 503.7,202.8 504.2,200.0 504.6,199.3 505.1,197.8 505.6,192.6 506.0,181.8 506.5,203.1 506.9,198.5 507.4,205.5 507.8,206.2 508.3,203.2 508.8,206.6 509.2,207.2 509.7,208.4 510.1,202.0 510.6,205.4 511.1,198.6 511.5,192.6 512.0,194.7 512.4,197.0 512.9,200.6 513.3,198.3 513.8,198.4 514.3,195.7 514.7,200.3 515.2,199.3 515.6,198.7 516.1,197.0 516.5,196.1 517.0,198.3 517.5,209.2 517.9,207.1 518.4,207.1 518.8,214.9 519.3,211.9 519.7,203.8 520.2,203.3 520.7,202.5 521.1,201.9 521.6,205.2 522.0,207.8 522.5,208.5 523.0,208.3 523.4,201.3 523.9,202.1 524.3,208.7 524.8,209.5 525.2,211.4 525.7,212.7 526.2,214.8 526.6,206.6 527.1,207.2 527.5,202.3 528.0,205.7 528.4,206.6 528.9,205.4 529.4,215.7 529.8,212.5 530.3,209.1 530.7,206.5 531.2,207.8 531.7,208.9 532.1,211.2 532.6,209.6 533.0,211.5 533.5,206.5 533.9,202.5 534.4,202.1 534.9,203.3 535.3,193.3 535.8,192.4 536.2,158.4 536.7,159.8 537.1,164.1 537.6,168.6 538.1,184.0 538.5,186.1 539.0,191.5 539.4,187.4 539.9,195.0 540.3,196.0 540.8,192.5 541.3,191.8 541.7,189.8 542.2,202.8 542.6,203.5 543.1,207.2 543.6,218.4 544.0,216.6 544.5,228.5 544.9,222.7 545.4,215.9 545.8,219.9 546.3,217.5 546.8,217.2 547.2,212.8 547.7,211.1 548.1,211.0 548.6,213.1 549.0,218.1 549.5,226.3 550.0,228.4 550.4,225.5 550.9,222.8 551.3,237.6 551.8,249.7 552.3,250.3 552.7,251.4 553.2,225.3 553.6,237.7 554.1,236.6 554.5,238.8 555.0,236.4 555.5,239.8 555.9,239.7 556.4,241.5 556.8,236.0 557.3,230.4 557.7,224.6 558.2,223.3 558.7,222.0 559.1,218.3 559.6,224.3 560.0,220.8 560.5,218.7 560.9,219.3 561.4,224.7 561.9,222.3 562.3,216.8 562.8,215.7 563.2,203.8 563.7,197.4 564.2,198.4 564.6,199.5 565.1,197.5 565.5,199.8 566.0,207.3 566.4,214.9 566.9,214.7 567.4,216.3 567.8,211.8 568.3,213.0 568.7,213.5 569.2,212.5 569.6,211.4 570.1,206.0 570.6,205.0 571.0,198.6 571.5,193.1 571.9,195.8 572.4,196.5 572.9,197.4 573.3,196.1 573.8,201.6 574.2,198.8 574.7,205.2 575.1,207.2 575.6,207.9 576.1,209.9 576.5,207.2 577.0,211.4 577.4,204.6 577.9,203.3 578.3,206.9 578.8,201.8 579.3,201.8 579.7,200.0 580.2,199.1 580.6,199.1 581.1,199.4 581.6,199.1 582.0,201.9 582.5,196.5 582.9,199.9 583.4,199.6 583.8,195.3 584.3,195.2 584.8,197.3 585.2,195.1 585.7,194.4 586.1,191.4 586.6,191.9 587.0,190.5 587.5,199.4 588.0,202.9 588.4,206.8 588.9,214.1 589.3,209.2 589.8,210.9 590.2,210.0 590.7,227.4 591.2,225.8 591.6,230.3 592.1,224.8 592.5,219.9 593.0,219.7 593.5,219.0 593.9,218.3 594.4,217.5 594.8,219.2 595.3,216.8 595.7,210.9 596.2,213.9 596.7,216.0 597.1,211.1 597.6,210.0 598.0,209.9 598.5,214.8 598.9,219.3 599.4,218.5 599.9,221.1 600.3,219.8 600.8,221.1 601.2,221.8 601.7,222.4 602.2,223.2 602.6,226.9 603.1,224.7 603.5,222.2 604.0,218.4 604.4,215.7 604.9,218.4 605.4,221.7 605.8,222.4 606.3,224.6 606.7,221.3 607.2,222.6 607.6,225.1 608.1,223.6 608.6,225.0 609.0,227.1 609.5,226.9 609.9,227.7 610.4,227.5 610.8,227.2 611.3,230.5 611.8,229.4 612.2,222.7 612.7,220.4 613.1,222.7 613.6,217.6 614.1,215.5 614.5,213.2 615.0,215.0 615.4,215.2 615.9,214.2 616.3,212.4 616.8,214.1 617.3,216.7 617.7,216.9 618.2,216.6 618.6,216.1 619.1,223.6 619.5,223.3 620.0,226.6 620.5,226.0 620.9,227.2 621.4,223.3 621.8,224.7 622.3,225.5 622.8,224.1 623.2,231.5 623.7,235.1 624.1,236.8 624.6,241.6 625.0,237.1 625.5,236.8 626.0,229.9 626.4,232.9 626.9,232.5 627.3,229.5 627.8,230.0 628.2,227.3 628.7,226.1 629.2,220.3 629.6,224.1 630.1,218.5 630.5,214.9 631.0,214.1 631.5,213.5 631.9,207.8 632.4,207.5 632.8,204.5 633.3,204.2 633.7,202.0 634.2,199.2 634.7,200.0 635.1,199.5 635.6,199.4 636.0,199.8 636.5,199.3 636.9,201.3 637.4,205.8 637.9,201.0 638.3,197.4 638.8,199.1 639.2,196.4 639.7,195.3 640.1,196.6 640.6,194.0 641.1,206.2 641.5,206.5 642.0,209.7 642.4,209.6 642.9,204.8 643.4,204.5 643.8,207.2 644.3,205.2 644.7,207.1 645.2,208.2 645.6,207.9 646.1,211.9 646.6,208.6 647.0,224.0 647.5,219.8 647.9,225.4 648.4,223.9 648.8,225.3 649.3,227.0 649.8,228.2 650.2,234.2 650.7,225.2 651.1,220.4 651.6,220.4 652.1,217.8 652.5,214.3 653.0,222.6 653.4,218.0 653.9,207.4 654.3,199.2 654.8,202.3 655.3,205.4 655.7,205.7 656.2,201.6 656.6,201.0 657.1,205.4 657.5,204.1 658.0,206.7 658.5,205.2 658.9,214.6 659.4,217.0 659.8,213.6 660.3,207.6 660.7,208.9 661.2,209.5 661.7,213.3 662.1,206.5 662.6,210.8 663.0,207.8 663.5,209.0 664.0,222.7 664.4,222.3 664.9,217.0 665.3,218.8 665.8,219.2 666.2,216.1 666.7,219.2 667.2,208.5 667.6,212.2 668.1,212.5 668.5,210.3 669.0,204.4 669.4,198.3 669.9,197.8 670.4,191.5 670.8,188.1 671.3,189.7 671.7,187.2 672.2,191.0 672.7,189.4 673.1,192.4 673.6,195.7 674.0,193.7 674.5,193.5 674.9,191.4 675.4,196.0 675.9,194.6 676.3,194.3 676.8,193.4 677.2,191.6 677.7,199.0 678.1,201.7 678.6,205.9 679.1,204.7 679.5,206.1 680.0,203.6 680.4,208.9 680.9,201.5 681.4,203.7 681.8,206.9 682.3,206.3 682.7,207.3 683.2,203.3 683.6,205.3 684.1,197.7 684.6,203.6 685.0,204.8 685.5,204.6 685.9,204.9 686.4,203.4 686.8,208.6 687.3,212.3 687.8,209.4 688.2,207.0 688.7,195.9 689.1,192.1 689.6,193.2 690.0,190.1 690.5,195.5 691.0,196.0 691.4,186.8 691.9,191.0 692.3,184.8 692.8,182.2 693.3,189.0 693.7,181.9 694.2,179.2 694.6,181.4 695.1,179.4 695.5,189.2 696.0,182.6"/>
  <polyline fill="none" stroke="#16a34a" stroke-width="2" points="56.0,186.3 56.5,195.4 56.9,210.8 57.4,219.5 57.8,197.5 58.3,182.4 58.7,165.3 59.2,155.7 59.7,155.4 60.1,164.1 60.6,169.4 61.0,179.1 61.5,177.4 62.0,180.1 62.4,182.8 62.9,195.5 63.3,180.3 63.8,189.5 64.2,175.3 64.7,177.8 65.2,180.6 65.6,159.4 66.1,144.1 66.5,126.6 67.0,145.3 67.4,137.9 67.9,157.7 68.4,126.7 68.8,124.3 69.3,131.5 69.7,106.1 70.2,91.9 70.6,115.1 71.1,121.3 71.6,126.7 72.0,128.8 72.5,117.8 72.9,101.0 73.4,101.8 73.9,93.3 74.3,94.2 74.8,74.6 75.2,65.9 75.7,72.9 76.1,77.6 76.6,90.8 77.1,97.3 77.5,92.2 78.0,101.8 78.4,114.7 78.9,93.7 79.3,124.0 79.8,83.4 80.3,100.0 80.7,110.9 81.2,126.7 81.6,127.0 82.1,127.7 82.6,126.0 83.0,122.2 83.5,121.1 83.9,97.6 84.4,82.8 84.8,77.4 85.3,94.0 85.8,91.8 86.2,108.3 86.7,103.4 87.1,102.4 87.6,115.5 88.0,129.3 88.5,133.8 89.0,136.7 89.4,123.2 89.9,122.2 90.3,114.1 90.8,113.6 91.3,116.2 91.7,110.7 92.2,127.5 92.6,127.1 93.1,128.2 93.5,133.2 94.0,130.8 94.5,133.3 94.9,135.1 95.4,129.6 95.8,136.4 96.3,144.8 96.7,149.0 97.2,142.9 97.7,137.0 98.1,135.9 98.6,130.8 99.0,127.4 99.5,131.3 99.9,139.6 100.4,147.2 100.9,145.9 101.3,156.9 101.8,171.4 102.2,175.4 102.7,182.9 103.2,189.6 103.6,193.7 104.1,201.2 104.5,192.1 105.0,206.6 105.4,202.4 105.9,197.1 106.4,200.5 106.8,202.9 107.3,200.9 107.7,204.2 108.2,202.9 108.6,188.8 109.1,193.5 109.6,186.9 110.0,175.8 110.5,187.1 110.9,176.2 111.4,179.2 111.9,182.4 112.3,186.0 112.8,183.9 113.2,180.0 113.7,178.8 114.1,174.5 114.6,178.9 115.1,176.3 115.5,173.2 116.0,177.9 116.4,178.0 116.9,174.8 117.3,176.2 117.8,178.0 118.3,177.5 118.7,184.0 119.2,172.2 119.6,172.3 120.1,177.1 120.5,180.2 121.0,187.9 121.5,189.9 121.9,178.0 122.4,183.0 122.8,188.4 123.3,195.6 123.8,198.3 124.2,203.6 124.7,207.7 125.1,200.6 125.6,195.4 126.0,195.0 126.5,196.2 127.0,190.8 127.4,191.5 127.9,188.6 128.3,188.3 128.8,187.4 129.2,185.0 129.7,184.7 130.2,181.8 130.6,176.9 131.1,177.5 131.5,178.4 132.0,180.9 132.5,180.5 132.9,175.5 133.4,172.8 133.8,179.8 134.3,187.6 134.7,182.9 135.2,189.7 135.7,188.0 136.1,182.8 136.6,158.4 137.0,160.2 137.5,172.9 137.9,170.5 138.4,167.4 138.9,169.1 139.3,166.4 139.8,165.4 140.2,164.1 140.7,152.4 141.2,154.2 141.6,150.7 142.1,152.1 142.5,160.2 143.0,155.3 143.4,150.1 143.9,147.2 144.4,149.8 144.8,158.0 145.3,145.3 145.7,144.1 146.2,135.5 146.6,134.3 147.1,137.0 147.6,146.4 148.0,147.3 148.5,147.8 148.9,139.1 149.4,153.3 149.8,152.9 150.3,148.7 150.8,144.7 151.2,144.1 151.7,149.6 152.1,139.5 152.6,138.1 153.1,143.2 153.5,145.4 154.0,140.2 154.4,142.8 154.9,144.5 155.3,143.2 155.8,149.7 156.3,145.3 156.7,142.2 157.2,145.6 157.6,141.2 158.1,143.0 158.5,136.4 159.0,139.3 159.5,139.3 159.9,130.0 160.4,91.3 160.8,93.5 161.3,102.9 161.8,107.0 162.2,108.0 162.7,83.1 163.1,82.0 163.6,82.3 164.0,95.5 164.5,86.8 165.0,100.0 165.4,124.5 165.9,130.3 166.3,127.6 166.8,137.6 167.2,127.3 167.7,139.8 168.2,155.6 168.6,144.7 169.1,149.5 169.5,126.0 170.0,122.2 170.4,116.6 170.9,125.0 171.4,126.7 171.8,142.3 172.3,147.5 172.7,147.2 173.2,166.8 173.7,164.2 174.1,165.4 174.6,151.3 175.0,145.3 175.5,141.9 175.9,141.3 176.4,144.6 176.9,148.3 177.3,146.1 177.8,149.9 178.2,139.6 178.7,142.7 179.1,157.0 179.6,161.2 180.1,150.7 180.5,159.6 181.0,146.4 181.4,144.8 181.9,150.7 182.4,154.1 182.8,169.6 183.3,169.8 183.7,164.1 184.2,166.2 184.6,180.9 185.1,186.5 185.6,190.6 186.0,196.8 186.5,189.5 186.9,170.8 187.4,165.9 187.8,174.5 188.3,178.2 188.8,168.2 189.2,164.2 189.7,157.0 190.1,144.9 190.6,140.8 191.1,149.9 191.5,144.6 192.0,127.3 192.4,116.3 192.9,121.4 193.3,135.9 193.8,152.0 194.3,177.4 194.7,163.7 195.2,168.9 195.6,175.0 196.1,175.8 196.5,164.9 197.0,174.6 197.5,189.6 197.9,208.2 198.4,190.6 198.8,180.3 199.3,174.4 199.7,185.5 200.2,196.6 200.7,187.5 201.1,167.8 201.6,164.8 202.0,149.1 202.5,157.8 203.0,150.0 203.4,153.8 203.9,142.7 204.3,148.7 204.8,148.0 205.2,134.9 205.7,138.0 206.2,141.1 206.6,139.0 207.1,132.4 207.5,142.1 208.0,153.0 208.4,150.9 208.9,156.5 209.4,160.3 209.8,160.6 210.3,141.0 210.7,142.9 211.2,151.2 211.7,143.9 212.1,153.2 212.6,164.2 213.0,167.3 213.5,163.4 213.9,172.4 214.4,173.7 214.9,161.2 215.3,172.1 215.8,172.8 216.2,185.8 216.7,167.1 217.1,189.0 217.6,201.1 218.1,228.5 218.5,233.9 219.0,233.9 219.4,234.3 219.9,225.1 220.3,236.8 220.8,231.7 221.3,247.5 221.7,237.2 222.2,239.9 222.6,238.7 223.1,250.4 223.6,243.5 224.0,237.0 224.5,226.7 224.9,226.0 225.4,233.0 225.8,225.4 226.3,227.8 226.8,224.1 227.2,222.7 227.7,221.2 228.1,234.6 228.6,246.0 229.0,262.6 229.5,262.7 230.0,258.4 230.4,272.1 230.9,261.7 231.3,257.1 231.8,261.6 232.3,268.0 232.7,255.0 233.2,258.4 233.6,265.0 234.1,271.0 234.5,279.1 235.0,275.2 235.5,267.6 235.9,272.7 236.4,265.0 236.8,265.3 237.3,269.0 237.7,266.6 238.2,268.1 238.7,275.8 239.1,269.8 239.6,264.7 240.0,257.2 240.5,248.0 240.9,247.3 241.4,254.2 241.9,252.6 242.3,257.7 242.8,248.6 243.2,246.1 243.7,242.5 244.2,242.2 244.6,233.6 245.1,235.8 245.5,228.8 246.0,232.3 246.4,234.5 246.9,236.8 247.4,229.6 247.8,225.0 248.3,220.0 248.7,217.4 249.2,220.5 249.6,224.4 250.1,225.4 250.6,236.2 251.0,241.9 251.5,241.5 251.9,236.6 252.4,232.4 252.9,239.5 253.3,238.3 253.8,239.9 254.2,239.0 254.7,238.5 255.1,238.1 255.6,238.0 256.1,234.0 256.5,229.9 257.0,221.7 257.4,219.5 257.9,224.9 258.3,216.1 258.8,219.1 259.3,229.6 259.7,229.5 260.2,233.0 260.6,237.5 261.1,254.7 261.6,257.9 262.0,255.5 262.5,250.2 262.9,243.0 263.4,249.7 263.8,252.4 264.3,252.5 264.8,242.8 265.2,241.2 265.7,241.5 266.1,246.6 266.6,242.5 267.0,249.5 267.5,240.3 268.0,239.8 268.4,245.6 268.9,233.3 269.3,230.9 269.8,232.7 270.2,232.5 270.7,227.6 271.2,233.5 271.6,230.1 272.1,235.3 272.5,240.7 273.0,235.5 273.5,249.3 273.9,245.8 274.4,270.2 274.8,274.2 275.3,267.4 275.7,268.4 276.2,262.7 276.7,267.9 277.1,256.9 277.6,244.9 278.0,252.2 278.5,249.2 278.9,253.5 279.4,262.0 279.9,264.6 280.3,268.0 280.8,268.7 281.2,266.5 281.7,264.7 282.2,268.7 282.6,268.6 283.1,257.3 283.5,258.7 284.0,259.2 284.4,263.3 284.9,272.3 285.4,275.0 285.8,269.5 286.3,269.7 286.7,268.2 287.2,272.0 287.6,271.0 288.1,276.5 288.6,278.3 289.0,284.3 289.5,281.5 289.9,282.4 290.4,286.1 290.8,285.5 291.3,288.4 291.8,290.1 292.2,285.5 292.7,285.0 293.1,286.0 293.6,279.7 294.1,281.4 294.5,280.0 295.0,278.8 295.4,280.0 295.9,270.1 296.3,263.4 296.8,260.2 297.3,258.7 297.7,259.0 298.2,262.4 298.6,258.7 299.1,252.1 299.5,254.0 300.0,253.4 300.5,245.1 300.9,234.3 301.4,245.0 301.8,242.3 302.3,237.5 302.8,230.0 303.2,229.7 303.7,230.2 304.1,228.0 304.6,233.6 305.0,235.9 305.5,246.1 306.0,233.5 306.4,226.0 306.9,199.1 307.3,195.1 307.8,208.1 308.2,212.8 308.7,215.5 309.2,218.3 309.6,222.9 310.1,221.6 310.5,222.0 311.0,226.1 311.5,223.5 311.9,217.9 312.4,216.9 312.8,215.9 313.3,219.1 313.7,227.8 314.2,230.3 314.7,234.2 315.1,233.6 315.6,238.2 316.0,227.5 316.5,230.6 316.9,230.2 317.4,221.3 317.9,225.5 318.3,227.0 318.8,232.6 319.2,231.0 319.7,233.1 320.1,229.5 320.6,223.7 321.1,220.1 321.5,225.1 322.0,230.1 322.4,235.3 322.9,244.7 323.4,239.8 323.8,237.1 324.3,240.1 324.7,237.6 325.2,236.4 325.6,233.9 326.1,228.8 326.6,227.3 327.0,230.2 327.5,235.0 327.9,234.0 328.4,240.0 328.8,238.0 329.3,235.4 329.8,228.0 330.2,225.1 330.7,226.5 331.1,229.4 331.6,231.4 332.1,227.7 332.5,218.1 333.0,215.7 333.4,238.9 333.9,242.2 334.3,252.1 334.8,251.2 335.3,251.8 335.7,247.0 336.2,241.1 336.6,248.5 337.1,244.3 337.5,250.4 338.0,251.3 338.5,253.5 338.9,249.5 339.4,248.9 339.8,244.6 340.3,240.6 340.7,230.7 341.2,234.7 341.7,232.0 342.1,233.2 342.6,235.0 343.0,231.1 343.5,219.8 344.0,219.3 344.4,218.9 344.9,214.4 345.3,213.0 345.8,216.7 346.2,215.0 346.7,214.2 347.2,219.6 347.6,222.3 348.1,214.3 348.5,214.8 349.0,219.0 349.4,213.9 349.9,206.9 350.4,208.0 350.8,213.9 351.3,210.3 351.7,208.0 352.2,198.2 352.7,199.1 353.1,194.0 353.6,188.6 354.0,185.2 354.5,183.2 354.9,184.9 355.4,185.3 355.9,179.5 356.3,181.4 356.8,179.7 357.2,177.2 357.7,179.9 358.1,171.9 358.6,173.8 359.1,179.3 359.5,186.5 360.0,192.7 360.4,193.8 360.9,188.8 361.4,194.9 361.8,197.7 362.3,200.8 362.7,204.7 363.2,205.4 363.6,211.1 364.1,212.8 364.6,214.2 365.0,219.0 365.5,220.8 365.9,215.7 366.4,213.9 366.8,219.6 367.3,217.8 367.8,217.2 368.2,207.1 368.7,209.8 369.1,208.2 369.6,206.3 370.0,190.3 370.5,191.2 371.0,188.7 371.4,184.4 371.9,181.9 372.3,181.6 372.8,186.3 373.3,187.3 373.7,189.5 374.2,189.9 374.6,191.0 375.1,197.4 375.5,206.2 376.0,207.1 376.5,203.9 376.9,207.0 377.4,204.1 377.8,200.0 378.3,198.8 378.7,199.9 379.2,214.6 379.7,215.1 380.1,219.2 380.6,216.9 381.0,214.5 381.5,208.2 382.0,210.8 382.4,217.5 382.9,220.7 383.3,218.8 383.8,218.0 384.2,223.9 384.7,227.5 385.2,233.3 385.6,226.8 386.1,224.1 386.5,230.0 387.0,235.0 387.4,237.4 387.9,232.6 388.4,230.3 388.8,228.4 389.3,235.0 389.7,223.1 390.2,230.5 390.6,225.7 391.1,231.4 391.6,235.0 392.0,230.6 392.5,228.9 392.9,216.3 393.4,213.6 393.9,217.0 394.3,215.6 394.8,211.3 395.2,216.1 395.7,212.4 396.1,213.5 396.6,212.5 397.1,214.9 397.5,216.7 398.0,216.9 398.4,202.4 398.9,204.6 399.3,204.6 399.8,201.9 400.3,194.4 400.7,193.0 401.2,189.3 401.6,193.2 402.1,186.6 402.6,182.0 403.0,183.1 403.5,181.6 403.9,182.6 404.4,192.3 404.8,190.6 405.3,192.8 405.8,196.3 406.2,199.9 406.7,199.1 407.1,200.6 407.6,203.3 408.0,205.1 408.5,204.6 409.0,200.8 409.4,194.0 409.9,194.9 410.3,194.5 410.8,195.0 411.3,198.9 411.7,202.4 412.2,202.5 412.6,199.1 413.1,194.2 413.5,190.8 414.0,190.3 414.5,192.1 414.9,190.6 415.4,178.1 415.8,172.9 416.3,178.4 416.7,187.2 417.2,183.3 417.7,183.2 418.1,186.1 418.6,186.6 419.0,181.5 419.5,176.5 419.9,181.5 420.4,171.1 420.9,176.1 421.3,180.4 421.8,164.6 422.2,173.3 422.7,180.5 423.2,178.7 423.6,168.7 424.1,173.0 424.5,178.7 425.0,174.0 425.4,171.7 425.9,165.0 426.4,161.2 426.8,163.9 427.3,161.9 427.7,154.3 428.2,154.9 428.6,152.6 429.1,155.8 429.6,149.6 430.0,152.8 430.5,150.0 430.9,159.7 431.4,157.7 431.9,157.8 432.3,152.9 432.8,147.1 433.2,147.6 433.7,147.4 434.1,148.4 434.6,150.1 435.1,152.5 435.5,155.1 436.0,160.6 436.4,161.9 436.9,162.7 437.3,157.8 437.8,160.3 438.3,156.3 438.7,160.3 439.2,151.7 439.6,161.8 440.1,168.1 440.5,166.3 441.0,163.5 441.5,160.6 441.9,169.1 442.4,166.4 442.8,159.2 443.3,156.0 443.8,155.7 444.2,153.7 444.7,157.0 445.1,163.1 445.6,167.2 446.0,163.5 446.5,161.2 447.0,157.4 447.4,161.1 447.9,164.3 448.3,182.4 448.8,183.6 449.2,178.9 449.7,182.9 450.2,184.4 450.6,182.1 451.1,184.7 451.5,183.5 452.0,187.3 452.5,189.6 452.9,192.4 453.4,186.7 453.8,182.4 454.3,183.1 454.7,184.9 455.2,185.9 455.7,183.7 456.1,182.3 456.6,184.5 457.0,182.4 457.5,183.0 457.9,180.7 458.4,181.2 458.9,178.6 459.3,183.9 459.8,184.2 460.2,178.3 460.7,182.0 461.2,181.0 461.6,178.2 462.1,180.1 462.5,175.9 463.0,177.4 463.4,174.8 463.9,174.7 464.4,174.7 464.8,170.2 465.3,172.9 465.7,173.3 466.2,174.2 466.6,173.4 467.1,174.4 467.6,184.1 468.0,182.8 468.5,182.1 468.9,175.3 469.4,180.8 469.8,182.6 470.3,180.8 470.8,177.1 471.2,179.5 471.7,187.1 472.1,194.1 472.6,194.0 473.1,193.6 473.5,195.8 474.0,194.9 474.4,202.3 474.9,213.8 475.3,218.6 475.8,210.0 476.3,239.2 476.7,236.4 477.2,235.7 477.6,238.1 478.1,232.7 478.5,233.8 479.0,229.4 479.5,233.6 479.9,228.9 480.4,231.9 480.8,231.4 481.3,235.1 481.8,232.7 482.2,234.6 482.7,232.9 483.1,231.6 483.6,233.2 484.0,232.0 484.5,235.9 485.0,235.5 485.4,233.9 485.9,237.0 486.3,233.6 486.8,235.6 487.2,234.2 487.7,231.9 488.2,231.2 488.6,231.6 489.1,224.0 489.5,223.5 490.0,212.9 490.4,208.8 490.9,212.4 491.4,208.3 491.8,209.6 492.3,212.1 492.7,213.7 493.2,216.1 493.7,218.4 494.1,217.2 494.6,218.7 495.0,211.1 495.5,210.4 495.9,206.6 496.4,201.6 496.9,206.1 497.3,203.5 497.8,202.8 498.2,205.4 498.7,202.2 499.1,200.8 499.6,200.0 500.1,198.8 500.5,201.5 501.0,207.6 501.4,206.2 501.9,203.2 502.4,201.2 502.8,197.8 503.3,200.0 503.7,202.8 504.2,200.0 504.6,199.3 505.1,197.8 505.6,192.6 506.0,181.8 506.5,203.1 506.9,198.5 507.4,205.5 507.8,206.2 508.3,203.2 508.8,206.6 509.2,207.2 509.7,208.4 510.1,202.0 510.6,205.4 511.1,198.6 511.5,192.6 512.0,194.7 512.4,197.0 512.9,200.6 513.3,198.3 513.8,198.4 514.3,195.7 514.7,200.3 515.2,199.3 515.6,198.7 516.1,197.0 516.5,196.1 517.0,198.3 517.5,209.2 517.9,207.1 518.4,207.1 518.8,214.9 519.3,211.9 519.7,203.8 520.2,203.3 520.7,202.5 521.1,201.9 521.6,205.2 522.0,207.8 522.5,208.5 523.0,208.3 523.4,201.3 523.9,202.1 524.3,208.7 524.8,209.5 525.2,211.4 525.7,212.7 526.2,214.8 526.6,206.6 527.1,207.2 527.5,202.3 528.0,205.7 528.4,206.6 528.9,205.4 529.4,215.7 529.8,212.5 530.3,209.1 530.7,206.5 531.2,207.8 531.7,208.9 532.1,211.2 532.6,209.6 533.0,211.5 533.5,206.5 533.9,202.5 534.4,202.1 534.9,203.3 535.3,193.3 535.8,192.4 536.2,158.4 536.7,159.8 537.1,164.1 537.6,168.6 538.1,184.0 538.5,186.1 539.0,191.5 539.4,187.4 539.9,195.0 540.3,196.0 540.8,192.5 541.3,191.8 541.7,189.8 542.2,202.8 542.6,203.5 543.1,207.2 543.6,218.4 544.0,216.6 544.5,228.5 544.9,222.7 545.4,215.9 545.8,219.9 546.3,217.5 546.8,217.2 547.2,212.8 547.7,211.1 548.1,211.0 548.6,213.1 549.0,218.1 549.5,226.3 550.0,228.4 550.4,225.5 550.9,222.8 551.3,237.6 551.8,249.7 552.3,250.3 552.7,251.4 553.2,225.3 553.6,237.7 554.1,236.6 554.5,238.8 555.0,236.4 555.5,239.8 555.9,239.7 556.4,241.5 556.8,236.0 557.3,230.4 557.7,224.6 558.2,223.3 558.7,222.0 559.1,218.3 559.6,224.3 560.0,220.8 560.5,218.7 560.9,219.3 561.4,224.7 561.9,222.3 562.3,216.8 562.8,215.7 563.2,203.8 563.7,197.4 564.2,198.4 564.6,199.5 565.1,197.5 565.5,199.8 566.0,207.3 566.4,214.9 566.9,214.7 567.4,216.3 567.8,211.8 568.3,213.0 568.7,213.5 569.2,212.5 569.6,211.4 570.1,206.0 570.6,205.0 571.0,198.6 571.5,193.1 571.9,195.8 572.4,196.5 572.9,197.4 573.3,196.1 573.8,201.6 574.2,198.8 574.7,205.2 575.1,207.2 575.6,207.9 576.1,209.9 576.5,207.2 577.0,211.4 577.4,204.6 577.9,203.3 578.3,206.9 578.8,201.8 579.3,201.8 579.7,200.0 580.2,199.1 580.6,199.1 581.1,199.4 581.6,199.1 582.0,201.9 582.5,196.5 582.9,199.9 583.4,199.6 583.8,195.3 584.3,195.2 584.8,197.3 585.2,195.1 585.7,194.4 586.1,191.4 586.6,191.9 587.0,190.5 587.5,199.4 588.0,202.9 588.4,206.8 588.9,214.1 589.3,209.2 589.8,210.9 590.2,210.0 590.7,227.4 591.2,225.8 591.6,230.3 592.1,224.8 592.5,219.9 593.0,219.7 593.5,219.0 593.9,218.3 594.4,217.5 594.8,219.2 595.3,216.8 595.7,210.9 596.2,213.9 596.7,216.0 597.1,211.1 597.6,210.0 598.0,209.9 598.5,214.8 598.9,219.3 599.4,218.5 599.9,221.1 600.3,219.8 600.8,221.1 601.2,221.8 601.7,222.4 602.2,223.2 602.6,226.9 603.1,224.7 603.5,222.2 604.0,218.4 604.4,215.7 604.9,218.4 605.4,221.7 605.8,222.4 606.3,224.6 606.7,221.3 607.2,222.6 607.6,225.1 608.1,223.6 608.6,225.0 609.0,227.1 609.5,226.9 609.9,227.7 610.4,227.5 610.8,227.2 611.3,230.5 611.8,229.4 612.2,222.7 612.7,220.4 613.1,222.7 613.6,217.6 614.1,215.5 614.5,213.2 615.0,215.0 615.4,215.2 615.9,214.2 616.3,212.4 616.8,214.1 617.3,216.7 617.7,216.9 618.2,216.6 618.6,216.1 619.1,223.6 619.5,223.3 620.0,226.6 620.5,226.0 620.9,227.2 621.4,223.3 621.8,224.7 622.3,225.5 622.8,224.1 623.2,231.5 623.7,235.1 624.1,236.8 624.6,241.6 625.0,237.1 625.5,236.8 626.0,229.9 626.4,232.9 626.9,232.5 627.3,229.5 627.8,230.0 628.2,227.3 628.7,226.1 629.2,220.3 629.6,224.1 630.1,218.5 630.5,214.9 631.0,214.1 631.5,213.5 631.9,207.8 632.4,207.5 632.8,204.5 633.3,204.2 633.7,202.0 634.2,199.2 634.7,200.0 635.1,199.5 635.6,199.4 636.0,199.8 636.5,199.3 636.9,201.3 637.4,205.8 637.9,201.0 638.3,197.4 638.8,199.1 639.2,196.4 639.7,195.3 640.1,196.6 640.6,194.0 641.1,206.2 641.5,206.5 642.0,209.7 642.4,209.6 642.9,204.8 643.4,204.5 643.8,207.2 644.3,205.2 644.7,207.1 645.2,208.2 645.6,207.9 646.1,211.9 646.6,208.6 647.0,224.0 647.5,219.8 647.9,225.4 648.4,223.9 648.8,225.3 649.3,227.0 649.8,228.2 650.2,234.2 650.7,225.2 651.1,220.4 651.6,220.4 652.1,217.8 652.5,214.3 653.0,222.6 653.4,218.0 653.9,207.4 654.3,199.2 654.8,202.3 655.3,205.4 655.7,205.7 656.2,201.6 656.6,201.0 657.1,205.4 657.5,204.1 658.0,206.7 658.5,205.2 658.9,214.6 659.4,217.0 659.8,213.6 660.3,207.6 660.7,208.9 661.2,209.5 661.7,213.3 662.1,206.5 662.6,210.8 663.0,207.8 663.5,209.0 664.0,222.7 664.4,222.3 664.9,217.0 665.3,218.8 665.8,219.2 666.2,216.1 666.7,219.2 667.2,208.5 667.6,212.2 668.1,212.5 668.5,210.3 669.0,204.4 669.4,198.3 669.9,197.8 670.4,191.5 670.8,188.1 671.3,189.7 671.7,187.2 672.2,191.0 672.7,189.4 673.1,192.4 673.6,195.7 674.0,193.7 674.5,193.5 674.9,191.4 675.4,196.0 675.9,194.6 676.3,194.3 676.8,193.4 677.2,191.6 677.7,199.0 678.1,201.7 678.6,205.9 679.1,204.7 679.5,206.1 680.0,203.6 680.4,208.9 680.9,201.5 681.4,203.7 681.8,206.9 682.3,206.3 682.7,207.3 683.2,203.3 683.6,205.3 684.1,197.7 684.6,203.6 685.0,204.8 685.5,204.6 685.9,204.9 686.4,203.4 686.8,208.6 687.3,212.3 687.8,209.4 688.2,207.0 688.7,195.9 689.1,192.1 689.6,193.2 690.0,190.1 690.5,195.5 691.0,196.0 691.4,186.8 691.9,191.0 692.3,184.8 692.8,182.2 693.3,189.0 693.7,181.9 694.2,179.2 694.6,181.4 695.1,179.4 695.5,189.2 696.0,182.6"/>
  <text x="60" y="62" font-size="11" fill="#2563eb">Price index</text>
  <text x="146" y="62" font-size="11" fill="#16a34a">Total return (price + distributions)</text>
  <text x="56" y="348" font-size="11" text-anchor="middle" fill="#444">2020-12</text><text x="216" y="348" font-size="11" text-anchor="middle" fill="#444">2022-05</text><text x="376" y="348" font-size="11" text-anchor="middle" fill="#444">2023-09</text><text x="536" y="348" font-size="11" text-anchor="middle" fill="#444">2025-02</text><text x="696" y="348" font-size="11" text-anchor="middle" fill="#444">2026-07</text>
</svg>
