<svg xmlns="http://www.w3.org/2000/svg" width="820" height="410" viewBox="0 0 820 410">
<rect width="820" height="410" fill="#fafafa"/><text x="78" y="22" font-size="14" font-family="sans-serif" fill="#0f172a">ABNB cumulative return since 2020-12-10 | dividends reinvested</text>
<text x="78" y="40" font-size="11" font-family="sans-serif" fill="#334155">Total return +0.2% | Price-only +0.2% | logarithmic scale</text>
<text x="78" y="54" font-size="9" font-family="sans-serif" fill="#64748b">Regular $0.00 | Special $0.00 | Other $0.00 per initial share path</text>
<line x1="78" y1="332.0" x2="796" y2="332.0" stroke="#e2e8f0"/><text x="70" y="336.0" font-size="10" text-anchor="end" fill="#64748b">-46.2%</text><line x1="78" y1="287.0" x2="796" y2="287.0" stroke="#e2e8f0"/><text x="70" y="291.0" font-size="10" text-anchor="end" fill="#64748b">-35.6%</text><line x1="78" y1="242.0" x2="796" y2="242.0" stroke="#e2e8f0"/><text x="70" y="246.0" font-size="10" text-anchor="end" fill="#64748b">-22.8%</text><line x1="78" y1="197.0" x2="796" y2="197.0" stroke="#e2e8f0"/><text x="70" y="201.0" font-size="10" text-anchor="end" fill="#64748b">-7.6%</text><line x1="78" y1="177.3" x2="796" y2="177.3" stroke="#e2e8f0"/><text x="70" y="181.3" font-size="10" text-anchor="end" fill="#64748b">0%</text><line x1="78" y1="152.0" x2="796" y2="152.0" stroke="#e2e8f0"/><text x="70" y="156.0" font-size="10" text-anchor="end" fill="#64748b">+10.7%</text><line x1="78" y1="107.0" x2="796" y2="107.0" stroke="#e2e8f0"/><text x="70" y="111.0" font-size="10" text-anchor="end" fill="#64748b">+32.6%</text><line x1="78" y1="62.0" x2="796" y2="62.0" stroke="#e2e8f0"/><text x="70" y="66.0" font-size="10" text-anchor="end" fill="#64748b">+58.8%</text>
<line x1="78" y1="332" x2="796" y2="332" stroke="#cbd5e1"/>
<polyline fill="none" stroke="#2563eb" stroke-width="2" points="78.0,177.3 78.5,186.9 79.0,204.1 79.5,214.3 80.0,189.2 80.6,173.3 81.1,156.5 81.6,147.6 82.1,147.4 82.6,155.4 83.1,160.5 83.6,170.1 84.1,168.4 84.6,171.0 85.2,173.8 85.7,187.1 86.2,171.2 86.7,180.7 87.2,166.3 87.7,168.8 88.2,171.5 88.7,151.0 89.2,137.2 89.8,122.2 90.3,138.2 90.8,131.8 91.3,149.5 91.8,122.4 92.3,120.3 92.8,126.4 93.3,105.9 93.8,95.1 94.4,112.9 94.9,117.9 95.4,122.3 95.9,124.1 96.4,115.1 96.9,101.9 97.4,102.5 97.9,96.1 98.4,96.8 99.0,82.5 99.5,76.5 100.0,81.3 100.5,84.6 101.0,94.2 101.5,99.1 102.0,95.3 102.5,102.5 103.0,112.6 103.6,96.4 104.1,120.1 104.6,88.8 105.1,101.1 105.6,109.6 106.1,122.4 106.6,122.6 107.1,123.2 107.6,121.8 108.2,118.6 108.7,117.7 109.2,99.3 109.7,88.4 110.2,84.5 110.7,96.6 111.2,94.9 111.7,107.5 112.2,103.7 112.8,102.9 113.3,113.2 113.8,124.5 114.3,128.3 114.8,130.8 115.3,119.5 115.8,118.6 116.3,112.1 116.8,111.7 117.3,113.8 117.9,109.4 118.4,123.0 118.9,122.7 119.4,123.6 119.9,127.8 120.4,125.8 120.9,127.9 121.4,129.4 121.9,124.7 122.5,130.5 123.0,137.8 123.5,141.5 124.0,136.1 124.5,131.0 125.0,130.1 125.5,125.8 126.0,122.9 126.5,126.1 127.1,133.2 127.6,140.0 128.1,138.8 128.6,148.7 129.1,162.4 129.6,166.4 130.1,173.9 130.6,180.8 131.1,185.1 131.7,193.3 132.2,183.5 132.7,199.3 133.2,194.6 133.7,188.8 134.2,192.5 134.7,195.2 135.2,193.0 135.7,196.5 136.3,195.1 136.8,180.0 137.3,184.9 137.8,178.0 138.3,166.7 138.8,178.2 139.3,167.2 139.8,170.1 140.3,173.4 140.9,177.1 141.4,174.9 141.9,171.0 142.4,169.7 142.9,165.4 143.4,169.8 143.9,167.2 144.4,164.2 144.9,168.9 145.5,168.9 146.0,165.8 146.5,167.2 147.0,168.9 147.5,168.5 148.0,175.0 148.5,163.2 149.0,163.3 149.5,168.0 150.1,171.1 150.6,179.1 151.1,181.1 151.6,169.0 152.1,174.0 152.6,179.6 153.1,187.2 153.6,190.1 154.1,195.9 154.7,200.5 155.2,192.7 155.7,186.9 156.2,186.5 156.7,187.9 157.2,182.1 157.7,182.8 158.2,179.8 158.7,179.5 159.3,178.6 159.8,176.0 160.3,175.7 160.8,172.7 161.3,167.9 161.8,168.4 162.3,169.3 162.8,171.8 163.3,171.5 163.9,166.5 164.4,163.8 164.9,170.8 165.4,178.7 165.9,173.9 166.4,180.9 166.9,179.1 167.4,173.8 167.9,150.1 168.5,151.7 169.0,163.9 169.5,161.5 170.0,158.6 170.5,160.2 171.0,157.7 171.5,156.7 172.0,155.4 172.5,144.6 173.1,146.2 173.6,143.1 174.1,144.3 174.6,151.8 175.1,147.2 175.6,142.6 176.1,139.9 176.6,142.2 177.1,149.7 177.7,138.2 178.2,137.2 178.7,129.8 179.2,128.7 179.7,131.0 180.2,139.3 180.7,140.0 181.2,140.5 181.7,132.8 182.3,145.4 182.8,145.0 183.3,141.2 183.8,137.8 184.3,137.2 184.8,142.1 185.3,133.2 185.8,132.0 186.3,136.4 186.8,138.4 187.4,133.8 187.9,136.1 188.4,137.5 188.9,136.4 189.4,142.1 189.9,138.3 190.4,135.5 190.9,138.5 191.4,134.7 192.0,136.2 192.5,130.5 193.0,133.0 193.5,133.0 194.0,125.1 194.5,94.6 195.0,96.2 195.5,103.4 196.0,106.5 196.6,107.3 197.1,88.6 197.6,87.8 198.1,88.0 198.6,97.7 199.1,91.3 199.6,101.1 200.1,120.5 200.6,125.3 201.2,123.1 201.7,131.6 202.2,122.8 202.7,133.5 203.2,147.5 203.7,137.8 204.2,142.0 204.7,121.7 205.2,118.6 205.8,114.1 206.3,120.9 206.8,122.3 207.3,135.6 207.8,140.2 208.3,139.9 208.8,158.0 209.3,155.6 209.8,156.6 210.4,143.6 210.9,138.2 211.4,135.3 211.9,134.7 212.4,137.6 212.9,141.0 213.4,139.0 213.9,142.4 214.4,133.3 215.0,136.0 215.5,148.8 216.0,152.7 216.5,143.0 217.0,151.2 217.5,139.2 218.0,137.8 218.5,143.1 219.0,146.1 219.6,160.7 220.1,160.9 220.6,155.4 221.1,157.4 221.6,171.9 222.1,177.6 222.6,181.8 223.1,188.4 223.6,180.7 224.2,161.9 224.7,157.1 225.2,165.5 225.7,169.1 226.2,159.3 226.7,155.6 227.2,148.8 227.7,137.9 228.2,134.3 228.8,142.3 229.3,137.7 229.8,122.8 230.3,113.9 230.8,118.0 231.3,130.1 231.8,144.3 232.3,168.3 232.8,155.0 233.4,160.1 233.9,165.9 234.4,166.7 234.9,156.2 235.4,165.6 235.9,180.8 236.4,201.0 236.9,181.8 237.4,171.2 238.0,165.4 238.5,176.6 239.0,188.3 239.5,178.7 240.0,159.0 240.5,156.1 241.0,141.6 241.5,149.5 242.0,142.4 242.6,145.9 243.1,136.0 243.6,141.3 244.1,140.6 244.6,129.2 245.1,131.9 245.6,134.6 246.1,132.7 246.6,127.1 247.2,135.4 247.7,145.1 248.2,143.2 248.7,148.3 249.2,151.9 249.7,152.1 250.2,134.5 250.7,136.1 251.2,143.5 251.8,137.0 252.3,145.3 252.8,155.6 253.3,158.5 253.8,154.8 254.3,163.4 254.8,164.7 255.3,152.7 255.8,163.1 256.4,163.8 256.9,176.8 257.4,158.3 257.9,180.1 258.4,193.1 258.9,225.4 259.4,232.2 259.9,232.2 260.4,232.6 260.9,221.0 261.5,235.9 262.0,229.3 262.5,250.3 263.0,236.5 263.5,240.0 264.0,238.4 264.5,254.4 265.0,244.8 265.5,236.2 266.1,223.0 266.6,222.2 267.1,231.0 267.6,221.4 268.1,224.4 268.6,219.9 269.1,218.1 269.6,216.3 270.1,233.1 270.7,248.2 271.2,272.2 271.7,272.4 272.2,265.9 272.7,286.9 273.2,270.8 273.7,263.9 274.2,270.7 274.7,280.4 275.3,260.9 275.8,265.8 276.3,275.8 276.8,285.1 277.3,298.4 277.8,291.9 278.3,279.9 278.8,287.9 279.3,275.8 279.9,276.2 280.4,282.1 280.9,278.3 281.4,280.6 281.9,292.9 282.4,283.2 282.9,275.4 283.4,264.1 283.9,250.9 284.5,250.0 285.0,259.8 285.5,257.5 286.0,264.8 286.5,251.8 287.0,248.4 287.5,243.5 288.0,243.0 288.5,231.8 289.1,234.6 289.6,225.7 290.1,230.1 290.6,232.9 291.1,235.9 291.6,226.7 292.1,220.9 292.6,214.8 293.1,211.8 293.7,215.5 294.2,220.2 294.7,221.4 295.2,235.2 295.7,242.6 296.2,242.1 296.7,235.7 297.2,230.3 297.7,239.4 298.3,237.8 298.8,240.0 299.3,238.8 299.8,238.2 300.3,237.6 300.8,237.5 301.3,232.4 301.8,227.0 302.3,216.9 302.9,214.3 303.4,220.9 303.9,210.3 304.4,213.8 304.9,226.7 305.4,226.6 305.9,231.0 306.4,236.8 306.9,260.4 307.5,265.2 308.0,261.6 308.5,254.1 309.0,244.2 309.5,253.4 310.0,257.3 310.5,257.4 311.0,243.9 311.5,241.8 312.1,242.2 312.6,249.1 313.1,243.5 313.6,253.1 314.1,240.5 314.6,239.8 315.1,247.7 315.6,231.4 316.1,228.4 316.7,230.6 317.2,230.4 317.7,224.1 318.2,231.7 318.7,227.3 319.2,234.0 319.7,241.1 320.2,234.2 320.7,252.9 321.3,247.9 321.8,283.9 322.3,290.3 322.8,279.5 323.3,281.1 323.8,272.3 324.3,280.3 324.8,263.6 325.3,246.7 325.9,257.0 326.4,252.6 326.9,258.7 327.4,271.3 327.9,275.1 328.4,280.5 328.9,281.6 329.4,278.1 329.9,275.4 330.4,281.5 331.0,281.3 331.5,264.2 332.0,266.4 332.5,267.0 333.0,273.3 333.5,287.3 334.0,291.7 334.5,282.8 335.0,283.1 335.6,280.8 336.1,286.7 336.6,285.1 337.1,294.1 337.6,297.0 338.1,307.3 338.6,302.5 339.1,304.1 339.6,310.4 340.2,309.3 340.7,314.5 341.2,317.5 341.7,309.4 342.2,308.6 342.7,310.4 343.2,299.4 343.7,302.2 344.2,299.9 344.8,297.9 345.3,299.9 345.8,283.8 346.3,273.3 346.8,268.6 347.3,266.4 347.8,266.8 348.3,271.8 348.8,266.3 349.4,256.8 349.9,259.4 350.4,258.7 350.9,247.1 351.4,232.6 351.9,246.9 352.4,243.2 352.9,236.9 353.4,227.1 354.0,226.8 354.5,227.5 355.0,224.7 355.5,231.7 356.0,234.8 356.5,248.3 357.0,231.6 357.5,222.2 358.0,191.0 358.6,186.6 359.1,201.0 359.6,206.4 360.1,209.5 360.6,212.8 361.1,218.3 361.6,216.8 362.1,217.3 362.6,222.3 363.2,219.1 363.7,212.4 364.2,211.2 364.7,210.0 365.2,213.9 365.7,224.4 366.2,227.6 366.7,232.6 367.2,231.7 367.8,237.8 368.3,224.1 368.8,227.9 369.3,227.4 369.8,216.5 370.3,221.6 370.8,223.4 371.3,230.5 371.8,228.4 372.4,231.2 372.9,226.6 373.4,219.4 373.9,215.1 374.4,221.0 374.9,227.3 375.4,233.9 375.9,246.5 376.4,239.9 377.0,236.3 377.5,240.3 378.0,236.9 378.5,235.4 379.0,232.1 379.5,225.7 380.0,223.8 380.5,227.4 381.0,233.6 381.6,232.2 382.1,240.1 382.6,237.5 383.1,234.1 383.6,224.7 384.1,221.1 384.6,222.8 385.1,226.4 385.6,229.0 386.2,224.3 386.7,212.6 387.2,209.8 387.7,238.6 388.2,243.0 388.7,256.7 389.2,255.5 389.7,256.4 390.2,249.6 390.8,241.5 391.3,251.8 391.8,245.9 392.3,254.4 392.8,255.7 393.3,258.7 393.8,253.1 394.3,252.2 394.8,246.3 395.4,240.9 395.9,228.1 396.4,233.2 396.9,229.7 397.4,231.3 397.9,233.6 398.4,228.5 398.9,214.7 399.4,214.1 400.0,213.6 400.5,208.2 401.0,206.6 401.5,211.0 402.0,209.0 402.5,208.0 403.0,214.4 403.5,217.6 404.0,208.2 404.5,208.7 405.1,213.7 405.6,207.6 406.1,199.6 406.6,200.9 407.1,207.6 407.6,203.5 408.1,200.8 408.6,190.0 409.1,191.0 409.7,185.4 410.2,179.7 410.7,176.2 411.2,174.2 411.7,175.9 412.2,176.4 412.7,170.4 413.2,172.4 413.7,170.6 414.3,168.1 414.8,170.9 415.3,162.9 415.8,164.8 416.3,170.2 416.8,177.6 417.3,184.0 417.8,185.3 418.3,180.0 418.9,186.4 419.4,189.4 419.9,192.9 420.4,197.1 420.9,197.9 421.4,204.4 421.9,206.3 422.4,208.0 422.9,213.7 423.5,215.9 424.0,209.7 424.5,207.7 425.0,214.4 425.5,212.3 426.0,211.6 426.5,199.8 427.0,202.9 427.5,201.1 428.1,199.0 428.6,181.5 429.1,182.5 429.6,179.8 430.1,175.4 430.6,172.9 431.1,172.6 431.6,177.3 432.1,178.4 432.7,180.7 433.2,181.1 433.7,182.3 434.2,189.2 434.7,198.9 435.2,199.9 435.7,196.3 436.2,199.7 436.7,196.5 437.3,192.0 437.8,190.6 438.3,191.8 438.8,208.5 439.3,209.1 439.8,213.9 440.3,211.2 440.8,208.4 441.3,201.0 441.9,204.1 442.4,211.9 442.9,215.7 443.4,213.5 443.9,212.4 444.4,219.6 444.9,224.1 445.4,231.4 445.9,223.2 446.5,219.9 447.0,227.2 447.5,233.6 448.0,236.6 448.5,230.5 449.0,227.6 449.5,225.1 450.0,233.6 450.5,218.6 451.1,227.9 451.6,221.8 452.1,229.0 452.6,233.5 453.1,227.9 453.6,225.8 454.1,210.5 454.6,207.3 455.1,211.3 455.7,209.6 456.2,204.7 456.7,210.3 457.2,205.9 457.7,207.2 458.2,206.0 458.7,208.8 459.2,210.9 459.7,211.2 460.3,194.6 460.8,197.1 461.3,197.1 461.8,194.1 462.3,185.9 462.8,184.4 463.3,180.5 463.8,184.6 464.3,177.7 464.9,173.0 465.4,174.1 465.9,172.6 466.4,173.6 466.9,183.7 467.4,181.9 467.9,184.2 468.4,187.9 468.9,191.8 469.5,191.0 470.0,192.6 470.5,195.6 471.0,197.6 471.5,197.0 472.0,192.9 472.5,185.5 473.0,186.4 473.5,186.0 474.0,186.6 474.6,190.7 475.1,194.6 475.6,194.7 476.1,190.9 476.6,185.7 477.1,182.0 477.6,181.5 478.1,183.5 478.6,181.9 479.2,169.0 479.7,163.9 480.2,169.3 480.7,178.3 481.2,174.3 481.7,174.2 482.2,177.2 482.7,177.7 483.2,172.5 483.8,167.5 484.3,172.4 484.8,162.1 485.3,167.0 485.8,171.4 486.3,155.9 486.8,164.2 487.3,171.5 487.8,169.7 488.4,159.8 488.9,164.0 489.4,169.6 489.9,165.0 490.4,162.7 490.9,156.3 491.4,152.7 491.9,155.3 492.4,153.3 493.0,146.3 493.5,146.8 494.0,144.7 494.5,147.7 495.0,142.1 495.5,145.0 496.0,142.4 496.5,151.3 497.0,149.4 497.6,149.5 498.1,145.1 498.6,139.9 499.1,140.3 499.6,140.1 500.1,141.0 500.6,142.5 501.1,144.7 501.6,147.1 502.2,152.1 502.7,153.3 503.2,154.1 503.7,149.5 504.2,151.9 504.7,148.2 505.2,151.9 505.7,144.0 506.2,153.3 506.8,159.2 507.3,157.6 507.8,154.8 508.3,152.1 508.8,160.2 509.3,157.6 509.8,150.8 510.3,147.9 510.8,147.6 511.4,145.8 511.9,148.8 512.4,154.5 512.9,158.3 513.4,154.9 513.9,152.7 514.4,149.2 514.9,152.6 515.4,155.6 516.0,173.3 516.5,174.6 517.0,169.8 517.5,173.9 518.0,175.5 518.5,173.1 519.0,175.7 519.5,174.5 520.0,178.4 520.6,180.8 521.1,183.7 521.6,177.8 522.1,173.4 522.6,174.1 523.1,175.9 523.6,177.0 524.1,174.7 524.6,173.3 525.2,175.5 525.7,173.4 526.2,174.0 526.7,171.6 527.2,172.2 527.7,169.5 528.2,175.0 528.7,175.2 529.2,169.2 529.8,172.9 530.3,171.9 530.8,169.1 531.3,171.1 531.8,166.9 532.3,168.4 532.8,165.7 533.3,165.7 533.8,165.7 534.4,161.3 534.9,163.9 535.4,164.3 535.9,165.1 536.4,164.3 536.9,165.3 537.4,175.1 537.9,173.8 538.4,173.1 539.0,166.3 539.5,171.7 540.0,173.6 540.5,171.8 541.0,168.1 541.5,170.5 542.0,178.2 542.5,185.5 543.0,185.4 543.6,185.1 544.1,187.4 544.6,186.4 545.1,194.5 545.6,207.5 546.1,213.2 546.6,203.2 547.1,239.0 547.6,235.4 548.1,234.5 548.7,237.7 549.2,230.6 549.7,232.0 550.2,226.4 550.7,231.8 551.2,225.8 551.7,229.6 552.2,228.9 552.7,233.7 553.3,230.7 553.8,233.1 554.3,230.9 554.8,229.2 555.3,231.2 555.8,229.7 556.3,234.7 556.8,234.2 557.3,232.2 557.9,236.2 558.4,231.7 558.9,234.4 559.4,232.6 559.9,229.6 560.4,228.8 560.9,229.2 561.4,219.7 561.9,219.1 562.5,206.5 563.0,201.8 563.5,205.9 564.0,201.3 564.5,202.7 565.0,205.5 565.5,207.5 566.0,210.3 566.5,212.9 567.1,211.5 567.6,213.3 568.1,204.4 568.6,203.6 569.1,199.3 569.6,193.8 570.1,198.7 570.6,195.8 571.1,195.1 571.7,197.9 572.2,194.4 572.7,192.8 573.2,192.0 573.7,190.7 574.2,193.6 574.7,200.4 575.2,198.9 575.7,195.4 576.3,193.2 576.8,189.6 577.3,191.9 577.8,195.1 578.3,192.0 578.8,191.2 579.3,189.5 579.8,184.0 580.3,172.8 580.9,195.4 581.4,190.3 581.9,198.0 582.4,198.8 582.9,195.5 583.4,199.3 583.9,199.9 584.4,201.3 584.9,194.2 585.5,197.9 586.0,190.4 586.5,183.9 587.0,186.2 587.5,188.7 588.0,192.6 588.5,190.1 589.0,190.2 589.5,187.3 590.1,192.2 590.6,191.1 591.1,190.5 591.6,188.6 592.1,187.7 592.6,190.1 593.1,202.3 593.6,199.9 594.1,199.8 594.7,208.8 595.2,205.3 595.7,196.1 596.2,195.6 596.7,194.7 597.2,194.1 597.7,197.7 598.2,200.6 598.7,201.4 599.3,201.3 599.8,193.4 600.3,194.3 600.8,201.6 601.3,202.5 601.8,204.8 602.3,206.3 602.8,208.7 603.3,199.3 603.9,200.0 604.4,194.4 604.9,198.3 605.4,199.3 605.9,197.9 606.4,209.7 606.9,206.1 607.4,202.1 607.9,199.2 608.5,200.7 609.0,201.8 609.5,204.5 610.0,202.7 610.5,204.8 611.0,199.2 611.5,194.7 612.0,194.2 612.5,195.6 613.1,184.7 613.6,183.7 614.1,150.1 614.6,151.4 615.1,155.5 615.6,159.7 616.1,175.0 616.6,177.2 617.1,182.8 617.6,178.5 618.2,186.6 618.7,187.6 619.2,183.9 619.7,183.1 620.2,181.0 620.7,195.1 621.2,195.8 621.7,200.0 622.2,213.0 622.8,210.8 623.3,225.3 623.8,218.2 624.3,210.0 624.8,214.7 625.3,211.9 625.8,211.6 626.3,206.4 626.8,204.4 627.4,204.3 627.9,206.7 628.4,212.6 628.9,222.6 629.4,225.2 629.9,221.6 630.4,218.3 630.9,236.9 631.4,253.4 632.0,254.3 632.5,255.7 633.0,221.3 633.5,237.0 634.0,235.7 634.5,238.6 635.0,235.4 635.5,239.8 636.0,239.7 636.6,242.1 637.1,234.9 637.6,227.6 638.1,220.5 638.6,218.9 639.1,217.3 639.6,212.9 640.1,220.1 640.6,215.8 641.2,213.3 641.7,214.1 642.2,220.6 642.7,217.6 643.2,211.1 643.7,209.8 644.2,196.1 644.7,189.1 645.2,190.2 645.8,191.4 646.3,189.2 646.8,191.7 647.3,200.0 647.8,208.9 648.3,208.6 648.8,210.5 649.3,205.2 649.8,206.6 650.4,207.2 650.9,206.0 651.4,204.8 651.9,198.6 652.4,197.4 652.9,190.5 653.4,184.5 653.9,187.4 654.4,188.2 655.0,189.1 655.5,187.7 656.0,193.7 656.5,190.6 657.0,197.7 657.5,200.0 658.0,200.8 658.5,203.1 659.0,200.0 659.6,204.7 660.1,197.0 660.6,195.6 661.1,199.6 661.6,193.9 662.1,193.9 662.6,191.9 663.1,191.0 663.6,191.0 664.2,191.3 664.7,191.0 665.2,194.0 665.7,188.2 666.2,191.8 666.7,191.5 667.2,186.8 667.7,186.8 668.2,189.1 668.8,186.6 669.3,185.9 669.8,182.7 670.3,183.3 670.8,181.8 671.3,191.3 671.8,195.1 672.3,199.5 672.8,207.9 673.4,202.2 673.9,204.2 674.4,203.1 674.9,224.0 675.4,221.9 675.9,227.6 676.4,220.7 676.9,214.8 677.4,214.6 678.0,213.7 678.5,212.9 679.0,211.9 679.5,213.9 680.0,211.0 680.5,204.2 681.0,207.7 681.5,210.1 682.0,204.4 682.6,203.2 683.1,203.1 683.6,208.7 684.1,214.1 684.6,213.1 685.1,216.2 685.6,214.6 686.1,216.2 686.6,217.1 687.2,217.8 687.7,218.8 688.2,223.3 688.7,220.6 689.2,217.5 689.7,212.9 690.2,209.8 690.7,213.0 691.2,216.9 691.7,217.7 692.3,220.4 692.8,216.5 693.3,218.0 693.8,221.1 694.3,219.3 694.8,221.0 695.3,223.6 695.8,223.3 696.3,224.4 696.9,224.1 697.4,223.7 697.9,227.8 698.4,226.4 698.9,218.1 699.4,215.3 699.9,218.1 700.4,212.1 700.9,209.5 701.5,206.9 702.0,208.9 702.5,209.2 703.0,208.0 703.5,205.9 704.0,207.9 704.5,210.9 705.0,211.2 705.5,210.8 706.1,210.3 706.6,219.2 707.1,218.9 707.6,222.9 708.1,222.2 708.6,223.6 709.1,218.8 709.6,220.6 710.1,221.6 710.7,219.9 711.2,229.1 711.7,233.8 712.2,235.9 712.7,242.3 713.2,236.3 713.7,235.9 714.2,227.1 714.7,230.9 715.3,230.4 715.8,226.6 716.3,227.2 716.8,223.8 717.3,222.3 717.8,215.2 718.3,219.9 718.8,213.1 719.3,208.8 719.9,207.9 720.4,207.2 720.9,200.6 721.4,200.3 721.9,196.9 722.4,196.5 722.9,194.1 723.4,191.1 723.9,191.9 724.5,191.4 725.0,191.3 725.5,191.7 726.0,191.2 726.5,193.3 727.0,198.4 727.5,193.1 728.0,189.1 728.5,190.9 729.1,188.0 729.6,186.9 730.1,188.3 730.6,185.5 731.1,198.8 731.6,199.1 732.1,202.8 732.6,202.7 733.1,197.3 733.7,196.9 734.2,200.0 734.7,197.7 735.2,199.9 735.7,201.1 736.2,200.7 736.7,205.3 737.2,201.6 737.7,219.8 738.3,214.6 738.8,221.4 739.3,219.6 739.8,221.3 740.3,223.4 740.8,225.0 741.3,232.6 741.8,221.3 742.3,215.4 742.9,215.3 743.4,212.3 743.9,208.2 744.4,218.0 744.9,212.5 745.4,200.2 745.9,191.1 746.4,194.5 746.9,197.9 747.5,198.3 748.0,193.7 748.5,193.1 749.0,198.0 749.5,196.5 750.0,199.4 750.5,197.7 751.0,208.5 751.5,211.3 752.1,207.3 752.6,200.4 753.1,201.9 753.6,202.6 754.1,206.9 754.6,199.2 755.1,204.1 755.6,200.6 756.1,202.1 756.7,218.1 757.2,217.7 757.7,211.3 758.2,213.5 758.7,214.0 759.2,210.3 759.7,213.9 760.2,201.4 760.7,205.7 761.2,206.1 761.8,203.5 762.3,196.8 762.8,190.1 763.3,189.5 763.8,182.8 764.3,179.3 764.8,180.9 765.3,178.3 765.8,182.3 766.4,180.6 766.9,183.7 767.4,187.3 767.9,185.1 768.4,185.0 768.9,182.7 769.4,187.6 769.9,186.1 770.4,185.8 771.0,184.8 771.5,183.0 772.0,190.9 772.5,193.8 773.0,198.4 773.5,197.1 774.0,198.7 774.5,196.0 775.0,201.9 775.6,193.7 776.1,196.1 776.6,199.6 777.1,199.0 777.6,200.1 778.1,195.6 778.6,197.8 779.1,189.4 779.6,195.9 780.2,197.3 780.7,197.0 781.2,197.4 781.7,195.7 782.2,201.5 782.7,205.8 783.2,202.4 783.7,199.7 784.2,187.5 784.8,183.5 785.3,184.6 785.8,181.3 786.3,187.0 786.8,187.7 787.3,177.9 787.8,182.3 788.3,175.9 788.8,173.1 789.4,180.1 789.9,172.9 790.4,170.2 790.9,172.3 791.4,170.4 791.9,180.4 792.4,173.6 792.9,170.7 793.4,174.6 794.0,174.2 794.5,171.1 795.0,172.1 795.5,175.2 796.0,176.9"/><polyline fill="none" stroke="#16a34a" stroke-width="3" points="78.0,177.3 78.5,186.9 79.0,204.1 79.5,214.3 80.0,189.2 80.6,173.3 81.1,156.5 81.6,147.6 82.1,147.4 82.6,155.4 83.1,160.5 83.6,170.1 84.1,168.4 84.6,171.0 85.2,173.8 85.7,187.1 86.2,171.2 86.7,180.7 87.2,166.3 87.7,168.8 88.2,171.5 88.7,151.0 89.2,137.2 89.8,122.2 90.3,138.2 90.8,131.8 91.3,149.5 91.8,122.4 92.3,120.3 92.8,126.4 93.3,105.9 93.8,95.1 94.4,112.9 94.9,117.9 95.4,122.3 95.9,124.1 96.4,115.1 96.9,101.9 97.4,102.5 97.9,96.1 98.4,96.8 99.0,82.5 99.5,76.5 100.0,81.3 100.5,84.6 101.0,94.2 101.5,99.1 102.0,95.3 102.5,102.5 103.0,112.6 103.6,96.4 104.1,120.1 104.6,88.8 105.1,101.1 105.6,109.6 106.1,122.4 106.6,122.6 107.1,123.2 107.6,121.8 108.2,118.6 108.7,117.7 109.2,99.3 109.7,88.4 110.2,84.5 110.7,96.6 111.2,94.9 111.7,107.5 112.2,103.7 112.8,102.9 113.3,113.2 113.8,124.5 114.3,128.3 114.8,130.8 115.3,119.5 115.8,118.6 116.3,112.1 116.8,111.7 117.3,113.8 117.9,109.4 118.4,123.0 118.9,122.7 119.4,123.6 119.9,127.8 120.4,125.8 120.9,127.9 121.4,129.4 121.9,124.7 122.5,130.5 123.0,137.8 123.5,141.5 124.0,136.1 124.5,131.0 125.0,130.1 125.5,125.8 126.0,122.9 126.5,126.1 127.1,133.2 127.6,140.0 128.1,138.8 128.6,148.7 129.1,162.4 129.6,166.4 130.1,173.9 130.6,180.8 131.1,185.1 131.7,193.3 132.2,183.5 132.7,199.3 133.2,194.6 133.7,188.8 134.2,192.5 134.7,195.2 135.2,193.0 135.7,196.5 136.3,195.1 136.8,180.0 137.3,184.9 137.8,178.0 138.3,166.7 138.8,178.2 139.3,167.2 139.8,170.1 140.3,173.4 140.9,177.1 141.4,174.9 141.9,171.0 142.4,169.7 142.9,165.4 143.4,169.8 143.9,167.2 144.4,164.2 144.9,168.9 145.5,168.9 146.0,165.8 146.5,167.2 147.0,168.9 147.5,168.5 148.0,175.0 148.5,163.2 149.0,163.3 149.5,168.0 150.1,171.1 150.6,179.1 151.1,181.1 151.6,169.0 152.1,174.0 152.6,179.6 153.1,187.2 153.6,190.1 154.1,195.9 154.7,200.5 155.2,192.7 155.7,186.9 156.2,186.5 156.7,187.9 157.2,182.1 157.7,182.8 158.2,179.8 158.7,179.5 159.3,178.6 159.8,176.0 160.3,175.7 160.8,172.7 161.3,167.9 161.8,168.4 162.3,169.3 162.8,171.8 163.3,171.5 163.9,166.5 164.4,163.8 164.9,170.8 165.4,178.7 165.9,173.9 166.4,180.9 166.9,179.1 167.4,173.8 167.9,150.1 168.5,151.7 169.0,163.9 169.5,161.5 170.0,158.6 170.5,160.2 171.0,157.7 171.5,156.7 172.0,155.4 172.5,144.6 173.1,146.2 173.6,143.1 174.1,144.3 174.6,151.8 175.1,147.2 175.6,142.6 176.1,139.9 176.6,142.2 177.1,149.7 177.7,138.2 178.2,137.2 178.7,129.8 179.2,128.7 179.7,131.0 180.2,139.3 180.7,140.0 181.2,140.5 181.7,132.8 182.3,145.4 182.8,145.0 183.3,141.2 183.8,137.8 184.3,137.2 184.8,142.1 185.3,133.2 185.8,132.0 186.3,136.4 186.8,138.4 187.4,133.8 187.9,136.1 188.4,137.5 188.9,136.4 189.4,142.1 189.9,138.3 190.4,135.5 190.9,138.5 191.4,134.7 192.0,136.2 192.5,130.5 193.0,133.0 193.5,133.0 194.0,125.1 194.5,94.6 195.0,96.2 195.5,103.4 196.0,106.5 196.6,107.3 197.1,88.6 197.6,87.8 198.1,88.0 198.6,97.7 199.1,91.3 199.6,101.1 200.1,120.5 200.6,125.3 201.2,123.1 201.7,131.6 202.2,122.8 202.7,133.5 203.2,147.5 203.7,137.8 204.2,142.0 204.7,121.7 205.2,118.6 205.8,114.1 206.3,120.9 206.8,122.3 207.3,135.6 207.8,140.2 208.3,139.9 208.8,158.0 209.3,155.6 209.8,156.6 210.4,143.6 210.9,138.2 211.4,135.3 211.9,134.7 212.4,137.6 212.9,141.0 213.4,139.0 213.9,142.4 214.4,133.3 215.0,136.0 215.5,148.8 216.0,152.7 216.5,143.0 217.0,151.2 217.5,139.2 218.0,137.8 218.5,143.1 219.0,146.1 219.6,160.7 220.1,160.9 220.6,155.4 221.1,157.4 221.6,171.9 222.1,177.6 222.6,181.8 223.1,188.4 223.6,180.7 224.2,161.9 224.7,157.1 225.2,165.5 225.7,169.1 226.2,159.3 226.7,155.6 227.2,148.8 227.7,137.9 228.2,134.3 228.8,142.3 229.3,137.7 229.8,122.8 230.3,113.9 230.8,118.0 231.3,130.1 231.8,144.3 232.3,168.3 232.8,155.0 233.4,160.1 233.9,165.9 234.4,166.7 234.9,156.2 235.4,165.6 235.9,180.8 236.4,201.0 236.9,181.8 237.4,171.2 238.0,165.4 238.5,176.6 239.0,188.3 239.5,178.7 240.0,159.0 240.5,156.1 241.0,141.6 241.5,149.5 242.0,142.4 242.6,145.9 243.1,136.0 243.6,141.3 244.1,140.6 244.6,129.2 245.1,131.9 245.6,134.6 246.1,132.7 246.6,127.1 247.2,135.4 247.7,145.1 248.2,143.2 248.7,148.3 249.2,151.9 249.7,152.1 250.2,134.5 250.7,136.1 251.2,143.5 251.8,137.0 252.3,145.3 252.8,155.6 253.3,158.5 253.8,154.8 254.3,163.4 254.8,164.7 255.3,152.7 255.8,163.1 256.4,163.8 256.9,176.8 257.4,158.3 257.9,180.1 258.4,193.1 258.9,225.4 259.4,232.2 259.9,232.2 260.4,232.6 260.9,221.0 261.5,235.9 262.0,229.3 262.5,250.3 263.0,236.5 263.5,240.0 264.0,238.4 264.5,254.4 265.0,244.8 265.5,236.2 266.1,223.0 266.6,222.2 267.1,231.0 267.6,221.4 268.1,224.4 268.6,219.9 269.1,218.1 269.6,216.3 270.1,233.1 270.7,248.2 271.2,272.2 271.7,272.4 272.2,265.9 272.7,286.9 273.2,270.8 273.7,263.9 274.2,270.7 274.7,280.4 275.3,260.9 275.8,265.8 276.3,275.8 276.8,285.1 277.3,298.4 277.8,291.9 278.3,279.9 278.8,287.9 279.3,275.8 279.9,276.2 280.4,282.1 280.9,278.3 281.4,280.6 281.9,292.9 282.4,283.2 282.9,275.4 283.4,264.1 283.9,250.9 284.5,250.0 285.0,259.8 285.5,257.5 286.0,264.8 286.5,251.8 287.0,248.4 287.5,243.5 288.0,243.0 288.5,231.8 289.1,234.6 289.6,225.7 290.1,230.1 290.6,232.9 291.1,235.9 291.6,226.7 292.1,220.9 292.6,214.8 293.1,211.8 293.7,215.5 294.2,220.2 294.7,221.4 295.2,235.2 295.7,242.6 296.2,242.1 296.7,235.7 297.2,230.3 297.7,239.4 298.3,237.8 298.8,240.0 299.3,238.8 299.8,238.2 300.3,237.6 300.8,237.5 301.3,232.4 301.8,227.0 302.3,216.9 302.9,214.3 303.4,220.9 303.9,210.3 304.4,213.8 304.9,226.7 305.4,226.6 305.9,231.0 306.4,236.8 306.9,260.4 307.5,265.2 308.0,261.6 308.5,254.1 309.0,244.2 309.5,253.4 310.0,257.3 310.5,257.4 311.0,243.9 311.5,241.8 312.1,242.2 312.6,249.1 313.1,243.5 313.6,253.1 314.1,240.5 314.6,239.8 315.1,247.7 315.6,231.4 316.1,228.4 316.7,230.6 317.2,230.4 317.7,224.1 318.2,231.7 318.7,227.3 319.2,234.0 319.7,241.1 320.2,234.2 320.7,252.9 321.3,247.9 321.8,283.9 322.3,290.3 322.8,279.5 323.3,281.1 323.8,272.3 324.3,280.3 324.8,263.6 325.3,246.7 325.9,257.0 326.4,252.6 326.9,258.7 327.4,271.3 327.9,275.1 328.4,280.5 328.9,281.6 329.4,278.1 329.9,275.4 330.4,281.5 331.0,281.3 331.5,264.2 332.0,266.4 332.5,267.0 333.0,273.3 333.5,287.3 334.0,291.7 334.5,282.8 335.0,283.1 335.6,280.8 336.1,286.7 336.6,285.1 337.1,294.1 337.6,297.0 338.1,307.3 338.6,302.5 339.1,304.1 339.6,310.4 340.2,309.3 340.7,314.5 341.2,317.5 341.7,309.4 342.2,308.6 342.7,310.4 343.2,299.4 343.7,302.2 344.2,299.9 344.8,297.9 345.3,299.9 345.8,283.8 346.3,273.3 346.8,268.6 347.3,266.4 347.8,266.8 348.3,271.8 348.8,266.3 349.4,256.8 349.9,259.4 350.4,258.7 350.9,247.1 351.4,232.6 351.9,246.9 352.4,243.2 352.9,236.9 353.4,227.1 354.0,226.8 354.5,227.5 355.0,224.7 355.5,231.7 356.0,234.8 356.5,248.3 357.0,231.6 357.5,222.2 358.0,191.0 358.6,186.6 359.1,201.0 359.6,206.4 360.1,209.5 360.6,212.8 361.1,218.3 361.6,216.8 362.1,217.3 362.6,222.3 363.2,219.1 363.7,212.4 364.2,211.2 364.7,210.0 365.2,213.9 365.7,224.4 366.2,227.6 366.7,232.6 367.2,231.7 367.8,237.8 368.3,224.1 368.8,227.9 369.3,227.4 369.8,216.5 370.3,221.6 370.8,223.4 371.3,230.5 371.8,228.4 372.4,231.2 372.9,226.6 373.4,219.4 373.9,215.1 374.4,221.0 374.9,227.3 375.4,233.9 375.9,246.5 376.4,239.9 377.0,236.3 377.5,240.3 378.0,236.9 378.5,235.4 379.0,232.1 379.5,225.7 380.0,223.8 380.5,227.4 381.0,233.6 381.6,232.2 382.1,240.1 382.6,237.5 383.1,234.1 383.6,224.7 384.1,221.1 384.6,222.8 385.1,226.4 385.6,229.0 386.2,224.3 386.7,212.6 387.2,209.8 387.7,238.6 388.2,243.0 388.7,256.7 389.2,255.5 389.7,256.4 390.2,249.6 390.8,241.5 391.3,251.8 391.8,245.9 392.3,254.4 392.8,255.7 393.3,258.7 393.8,253.1 394.3,252.2 394.8,246.3 395.4,240.9 395.9,228.1 396.4,233.2 396.9,229.7 397.4,231.3 397.9,233.6 398.4,228.5 398.9,214.7 399.4,214.1 400.0,213.6 400.5,208.2 401.0,206.6 401.5,211.0 402.0,209.0 402.5,208.0 403.0,214.4 403.5,217.6 404.0,208.2 404.5,208.7 405.1,213.7 405.6,207.6 406.1,199.6 406.6,200.9 407.1,207.6 407.6,203.5 408.1,200.8 408.6,190.0 409.1,191.0 409.7,185.4 410.2,179.7 410.7,176.2 411.2,174.2 411.7,175.9 412.2,176.4 412.7,170.4 413.2,172.4 413.7,170.6 414.3,168.1 414.8,170.9 415.3,162.9 415.8,164.8 416.3,170.2 416.8,177.6 417.3,184.0 417.8,185.3 418.3,180.0 418.9,186.4 419.4,189.4 419.9,192.9 420.4,197.1 420.9,197.9 421.4,204.4 421.9,206.3 422.4,208.0 422.9,213.7 423.5,215.9 424.0,209.7 424.5,207.7 425.0,214.4 425.5,212.3 426.0,211.6 426.5,199.8 427.0,202.9 427.5,201.1 428.1,199.0 428.6,181.5 429.1,182.5 429.6,179.8 430.1,175.4 430.6,172.9 431.1,172.6 431.6,177.3 432.1,178.4 432.7,180.7 433.2,181.1 433.7,182.3 434.2,189.2 434.7,198.9 435.2,199.9 435.7,196.3 436.2,199.7 436.7,196.5 437.3,192.0 437.8,190.6 438.3,191.8 438.8,208.5 439.3,209.1 439.8,213.9 440.3,211.2 440.8,208.4 441.3,201.0 441.9,204.1 442.4,211.9 442.9,215.7 443.4,213.5 443.9,212.4 444.4,219.6 444.9,224.1 445.4,231.4 445.9,223.2 446.5,219.9 447.0,227.2 447.5,233.6 448.0,236.6 448.5,230.5 449.0,227.6 449.5,225.1 450.0,233.6 450.5,218.6 451.1,227.9 451.6,221.8 452.1,229.0 452.6,233.5 453.1,227.9 453.6,225.8 454.1,210.5 454.6,207.3 455.1,211.3 455.7,209.6 456.2,204.7 456.7,210.3 457.2,205.9 457.7,207.2 458.2,206.0 458.7,208.8 459.2,210.9 459.7,211.2 460.3,194.6 460.8,197.1 461.3,197.1 461.8,194.1 462.3,185.9 462.8,184.4 463.3,180.5 463.8,184.6 464.3,177.7 464.9,173.0 465.4,174.1 465.9,172.6 466.4,173.6 466.9,183.7 467.4,181.9 467.9,184.2 468.4,187.9 468.9,191.8 469.5,191.0 470.0,192.6 470.5,195.6 471.0,197.6 471.5,197.0 472.0,192.9 472.5,185.5 473.0,186.4 473.5,186.0 474.0,186.6 474.6,190.7 475.1,194.6 475.6,194.7 476.1,190.9 476.6,185.7 477.1,182.0 477.6,181.5 478.1,183.5 478.6,181.9 479.2,169.0 479.7,163.9 480.2,169.3 480.7,178.3 481.2,174.3 481.7,174.2 482.2,177.2 482.7,177.7 483.2,172.5 483.8,167.5 484.3,172.4 484.8,162.1 485.3,167.0 485.8,171.4 486.3,155.9 486.8,164.2 487.3,171.5 487.8,169.7 488.4,159.8 488.9,164.0 489.4,169.6 489.9,165.0 490.4,162.7 490.9,156.3 491.4,152.7 491.9,155.3 492.4,153.3 493.0,146.3 493.5,146.8 494.0,144.7 494.5,147.7 495.0,142.1 495.5,145.0 496.0,142.4 496.5,151.3 497.0,149.4 497.6,149.5 498.1,145.1 498.6,139.9 499.1,140.3 499.6,140.1 500.1,141.0 500.6,142.5 501.1,144.7 501.6,147.1 502.2,152.1 502.7,153.3 503.2,154.1 503.7,149.5 504.2,151.9 504.7,148.2 505.2,151.9 505.7,144.0 506.2,153.3 506.8,159.2 507.3,157.6 507.8,154.8 508.3,152.1 508.8,160.2 509.3,157.6 509.8,150.8 510.3,147.9 510.8,147.6 511.4,145.8 511.9,148.8 512.4,154.5 512.9,158.3 513.4,154.9 513.9,152.7 514.4,149.2 514.9,152.6 515.4,155.6 516.0,173.3 516.5,174.6 517.0,169.8 517.5,173.9 518.0,175.5 518.5,173.1 519.0,175.7 519.5,174.5 520.0,178.4 520.6,180.8 521.1,183.7 521.6,177.8 522.1,173.4 522.6,174.1 523.1,175.9 523.6,177.0 524.1,174.7 524.6,173.3 525.2,175.5 525.7,173.4 526.2,174.0 526.7,171.6 527.2,172.2 527.7,169.5 528.2,175.0 528.7,175.2 529.2,169.2 529.8,172.9 530.3,171.9 530.8,169.1 531.3,171.1 531.8,166.9 532.3,168.4 532.8,165.7 533.3,165.7 533.8,165.7 534.4,161.3 534.9,163.9 535.4,164.3 535.9,165.1 536.4,164.3 536.9,165.3 537.4,175.1 537.9,173.8 538.4,173.1 539.0,166.3 539.5,171.7 540.0,173.6 540.5,171.8 541.0,168.1 541.5,170.5 542.0,178.2 542.5,185.5 543.0,185.4 543.6,185.1 544.1,187.4 544.6,186.4 545.1,194.5 545.6,207.5 546.1,213.2 546.6,203.2 547.1,239.0 547.6,235.4 548.1,234.5 548.7,237.7 549.2,230.6 549.7,232.0 550.2,226.4 550.7,231.8 551.2,225.8 551.7,229.6 552.2,228.9 552.7,233.7 553.3,230.7 553.8,233.1 554.3,230.9 554.8,229.2 555.3,231.2 555.8,229.7 556.3,234.7 556.8,234.2 557.3,232.2 557.9,236.2 558.4,231.7 558.9,234.4 559.4,232.6 559.9,229.6 560.4,228.8 560.9,229.2 561.4,219.7 561.9,219.1 562.5,206.5 563.0,201.8 563.5,205.9 564.0,201.3 564.5,202.7 565.0,205.5 565.5,207.5 566.0,210.3 566.5,212.9 567.1,211.5 567.6,213.3 568.1,204.4 568.6,203.6 569.1,199.3 569.6,193.8 570.1,198.7 570.6,195.8 571.1,195.1 571.7,197.9 572.2,194.4 572.7,192.8 573.2,192.0 573.7,190.7 574.2,193.6 574.7,200.4 575.2,198.9 575.7,195.4 576.3,193.2 576.8,189.6 577.3,191.9 577.8,195.1 578.3,192.0 578.8,191.2 579.3,189.5 579.8,184.0 580.3,172.8 580.9,195.4 581.4,190.3 581.9,198.0 582.4,198.8 582.9,195.5 583.4,199.3 583.9,199.9 584.4,201.3 584.9,194.2 585.5,197.9 586.0,190.4 586.5,183.9 587.0,186.2 587.5,188.7 588.0,192.6 588.5,190.1 589.0,190.2 589.5,187.3 590.1,192.2 590.6,191.1 591.1,190.5 591.6,188.6 592.1,187.7 592.6,190.1 593.1,202.3 593.6,199.9 594.1,199.8 594.7,208.8 595.2,205.3 595.7,196.1 596.2,195.6 596.7,194.7 597.2,194.1 597.7,197.7 598.2,200.6 598.7,201.4 599.3,201.3 599.8,193.4 600.3,194.3 600.8,201.6 601.3,202.5 601.8,204.8 602.3,206.3 602.8,208.7 603.3,199.3 603.9,200.0 604.4,194.4 604.9,198.3 605.4,199.3 605.9,197.9 606.4,209.7 606.9,206.1 607.4,202.1 607.9,199.2 608.5,200.7 609.0,201.8 609.5,204.5 610.0,202.7 610.5,204.8 611.0,199.2 611.5,194.7 612.0,194.2 612.5,195.6 613.1,184.7 613.6,183.7 614.1,150.1 614.6,151.4 615.1,155.5 615.6,159.7 616.1,175.0 616.6,177.2 617.1,182.8 617.6,178.5 618.2,186.6 618.7,187.6 619.2,183.9 619.7,183.1 620.2,181.0 620.7,195.1 621.2,195.8 621.7,200.0 622.2,213.0 622.8,210.8 623.3,225.3 623.8,218.2 624.3,210.0 624.8,214.7 625.3,211.9 625.8,211.6 626.3,206.4 626.8,204.4 627.4,204.3 627.9,206.7 628.4,212.6 628.9,222.6 629.4,225.2 629.9,221.6 630.4,218.3 630.9,236.9 631.4,253.4 632.0,254.3 632.5,255.7 633.0,221.3 633.5,237.0 634.0,235.7 634.5,238.6 635.0,235.4 635.5,239.8 636.0,239.7 636.6,242.1 637.1,234.9 637.6,227.6 638.1,220.5 638.6,218.9 639.1,217.3 639.6,212.9 640.1,220.1 640.6,215.8 641.2,213.3 641.7,214.1 642.2,220.6 642.7,217.6 643.2,211.1 643.7,209.8 644.2,196.1 644.7,189.1 645.2,190.2 645.8,191.4 646.3,189.2 646.8,191.7 647.3,200.0 647.8,208.9 648.3,208.6 648.8,210.5 649.3,205.2 649.8,206.6 650.4,207.2 650.9,206.0 651.4,204.8 651.9,198.6 652.4,197.4 652.9,190.5 653.4,184.5 653.9,187.4 654.4,188.2 655.0,189.1 655.5,187.7 656.0,193.7 656.5,190.6 657.0,197.7 657.5,200.0 658.0,200.8 658.5,203.1 659.0,200.0 659.6,204.7 660.1,197.0 660.6,195.6 661.1,199.6 661.6,193.9 662.1,193.9 662.6,191.9 663.1,191.0 663.6,191.0 664.2,191.3 664.7,191.0 665.2,194.0 665.7,188.2 666.2,191.8 666.7,191.5 667.2,186.8 667.7,186.8 668.2,189.1 668.8,186.6 669.3,185.9 669.8,182.7 670.3,183.3 670.8,181.8 671.3,191.3 671.8,195.1 672.3,199.5 672.8,207.9 673.4,202.2 673.9,204.2 674.4,203.1 674.9,224.0 675.4,221.9 675.9,227.6 676.4,220.7 676.9,214.8 677.4,214.6 678.0,213.7 678.5,212.9 679.0,211.9 679.5,213.9 680.0,211.0 680.5,204.2 681.0,207.7 681.5,210.1 682.0,204.4 682.6,203.2 683.1,203.1 683.6,208.7 684.1,214.1 684.6,213.1 685.1,216.2 685.6,214.6 686.1,216.2 686.6,217.1 687.2,217.8 687.7,218.8 688.2,223.3 688.7,220.6 689.2,217.5 689.7,212.9 690.2,209.8 690.7,213.0 691.2,216.9 691.7,217.7 692.3,220.4 692.8,216.5 693.3,218.0 693.8,221.1 694.3,219.3 694.8,221.0 695.3,223.6 695.8,223.3 696.3,224.4 696.9,224.1 697.4,223.7 697.9,227.8 698.4,226.4 698.9,218.1 699.4,215.3 699.9,218.1 700.4,212.1 700.9,209.5 701.5,206.9 702.0,208.9 702.5,209.2 703.0,208.0 703.5,205.9 704.0,207.9 704.5,210.9 705.0,211.2 705.5,210.8 706.1,210.3 706.6,219.2 707.1,218.9 707.6,222.9 708.1,222.2 708.6,223.6 709.1,218.8 709.6,220.6 710.1,221.6 710.7,219.9 711.2,229.1 711.7,233.8 712.2,235.9 712.7,242.3 713.2,236.3 713.7,235.9 714.2,227.1 714.7,230.9 715.3,230.4 715.8,226.6 716.3,227.2 716.8,223.8 717.3,222.3 717.8,215.2 718.3,219.9 718.8,213.1 719.3,208.8 719.9,207.9 720.4,207.2 720.9,200.6 721.4,200.3 721.9,196.9 722.4,196.5 722.9,194.1 723.4,191.1 723.9,191.9 724.5,191.4 725.0,191.3 725.5,191.7 726.0,191.2 726.5,193.3 727.0,198.4 727.5,193.1 728.0,189.1 728.5,190.9 729.1,188.0 729.6,186.9 730.1,188.3 730.6,185.5 731.1,198.8 731.6,199.1 732.1,202.8 732.6,202.7 733.1,197.3 733.7,196.9 734.2,200.0 734.7,197.7 735.2,199.9 735.7,201.1 736.2,200.7 736.7,205.3 737.2,201.6 737.7,219.8 738.3,214.6 738.8,221.4 739.3,219.6 739.8,221.3 740.3,223.4 740.8,225.0 741.3,232.6 741.8,221.3 742.3,215.4 742.9,215.3 743.4,212.3 743.9,208.2 744.4,218.0 744.9,212.5 745.4,200.2 745.9,191.1 746.4,194.5 746.9,197.9 747.5,198.3 748.0,193.7 748.5,193.1 749.0,198.0 749.5,196.5 750.0,199.4 750.5,197.7 751.0,208.5 751.5,211.3 752.1,207.3 752.6,200.4 753.1,201.9 753.6,202.6 754.1,206.9 754.6,199.2 755.1,204.1 755.6,200.6 756.1,202.1 756.7,218.1 757.2,217.7 757.7,211.3 758.2,213.5 758.7,214.0 759.2,210.3 759.7,213.9 760.2,201.4 760.7,205.7 761.2,206.1 761.8,203.5 762.3,196.8 762.8,190.1 763.3,189.5 763.8,182.8 764.3,179.3 764.8,180.9 765.3,178.3 765.8,182.3 766.4,180.6 766.9,183.7 767.4,187.3 767.9,185.1 768.4,185.0 768.9,182.7 769.4,187.6 769.9,186.1 770.4,185.8 771.0,184.8 771.5,183.0 772.0,190.9 772.5,193.8 773.0,198.4 773.5,197.1 774.0,198.7 774.5,196.0 775.0,201.9 775.6,193.7 776.1,196.1 776.6,199.6 777.1,199.0 777.6,200.1 778.1,195.6 778.6,197.8 779.1,189.4 779.6,195.9 780.2,197.3 780.7,197.0 781.2,197.4 781.7,195.7 782.2,201.5 782.7,205.8 783.2,202.4 783.7,199.7 784.2,187.5 784.8,183.5 785.3,184.6 785.8,181.3 786.3,187.0 786.8,187.7 787.3,177.9 787.8,182.3 788.3,175.9 788.8,173.1 789.4,180.1 789.9,172.9 790.4,170.2 790.9,172.3 791.4,170.4 791.9,180.4 792.4,173.6 792.9,170.7 793.4,174.6 794.0,174.2 794.5,171.1 795.0,172.1 795.5,175.2 796.0,176.9"/>
<text x="78" y="392" font-size="11" fill="#16a34a">Total return +0.2%</text><text x="268" y="392" font-size="11" fill="#2563eb">Price-only +0.2%</text><text x="78" y="362" font-size="11" text-anchor="middle" fill="#64748b">2020-12</text><text x="257" y="362" font-size="11" text-anchor="middle" fill="#64748b">2022-05</text><text x="437" y="362" font-size="11" text-anchor="middle" fill="#64748b">2023-09</text><text x="617" y="362" font-size="11" text-anchor="middle" fill="#64748b">2025-02</text><text x="796" y="362" font-size="11" text-anchor="middle" fill="#64748b">2026-07</text></svg>