<svg xmlns="http://www.w3.org/2000/svg" width="720" height="360" viewBox="0 0 720 360">
  <rect width="720" height="360" fill="#fafafa"/>
  <text x="56" y="22" font-size="13" font-family="sans-serif" fill="#222">LMNR total return (rebased 100) · cumulative distributions $0.00/sh · market cap $211.0M</text>
  <line x1="56" y1="308" x2="696" y2="308" stroke="#ccc"/>
  <line x1="56" y1="48" x2="56" y2="308" stroke="#ccc"/>
  <polyline fill="none" stroke="#2563eb" stroke-width="2" points="56.0,195.7 58.7,217.0 61.4,225.0 64.0,208.5 66.7,183.0 69.4,135.1 72.1,163.8 74.7,140.4 77.4,145.7 80.1,65.9 82.8,111.7 85.5,118.1 88.1,87.2 90.8,65.9 93.5,97.8 96.2,115.7 98.8,117.0 101.5,179.8 104.2,182.9 106.9,182.9 109.6,182.9 112.2,151.0 114.9,118.1 117.6,124.4 120.3,145.7 122.9,124.4 125.6,161.7 128.3,232.9 131.0,262.8 133.7,278.7 136.3,246.8 139.0,279.0 141.7,268.0 144.4,276.6 147.0,268.0 149.7,268.0 152.4,257.4 155.1,273.4 157.8,271.2 160.4,268.0 163.1,268.0 165.8,262.7 168.5,271.2 171.1,272.0 173.8,236.1 176.5,235.6 179.2,201.6 181.9,185.5 184.5,222.9 187.2,242.3 189.9,202.7 192.6,201.7 195.2,185.0 197.9,111.7 200.6,177.6 203.3,172.2 206.0,164.9 208.6,182.8 211.3,201.0 214.0,176.7 216.7,196.5 219.3,230.3 222.0,265.1 224.7,232.4 227.4,236.3 230.1,237.1 232.7,225.7 235.4,221.9 238.1,237.3 240.8,238.2 243.4,253.3 246.1,244.4 248.8,226.6 251.5,228.4 254.2,220.9 256.8,177.9 259.5,210.4 262.2,210.7 264.9,185.6 267.5,207.3 270.2,211.5 272.9,218.8 275.6,210.3 278.3,196.5 280.9,178.3 283.6,186.1 286.3,143.8 289.0,136.8 291.6,136.7 294.3,134.1 297.0,196.0 299.7,192.9 302.4,175.7 305.0,172.6 307.7,168.1 310.4,183.3 313.1,182.4 315.7,159.2 318.4,165.0 321.1,144.0 323.8,144.1 326.5,151.2 329.1,195.7 331.8,194.6 334.5,185.1 337.2,172.9 339.8,186.8 342.5,180.5 345.2,197.9 347.9,215.1 350.6,239.0 353.2,248.3 355.9,235.8 358.6,258.0 361.3,283.2 363.9,268.5 366.6,255.3 369.3,226.7 372.0,242.0 374.7,229.5 377.3,228.8 380.0,240.3 382.7,215.9 385.4,207.5 388.1,226.1 390.7,188.2 393.4,236.1 396.1,221.6 398.8,194.5 401.4,197.0 404.1,220.9 406.8,165.6 409.5,174.9 412.2,178.7 414.8,170.5 417.5,168.6 420.2,147.2 422.9,178.7 425.5,187.7 428.2,189.2 430.9,164.5 433.6,169.3 436.3,159.3 438.9,155.2 441.6,127.0 444.3,88.8 447.0,139.2 449.6,154.8 452.3,160.2 455.0,209.0 457.7,182.6 460.4,168.1 463.0,166.7 465.7,174.0 468.4,215.4 471.1,204.9 473.7,206.5 476.4,223.8 479.1,221.7 481.8,215.7 484.5,206.9 487.1,212.4 489.8,209.3 492.5,239.3 495.2,277.6 497.8,275.0 500.5,274.9 503.2,262.8 505.9,273.6 508.6,263.0 511.2,264.9 513.9,269.9 516.6,261.3 519.3,239.9 521.9,247.1 524.6,253.9 527.3,230.8 530.0,224.9 532.7,217.1 535.3,230.3 538.0,226.5 540.7,242.0 543.4,245.0 546.0,245.4 548.7,261.5 551.4,257.4 554.1,258.9 556.8,261.7 559.4,260.8 562.1,290.0 564.8,290.1 567.5,267.1 570.1,282.2 572.8,286.6 575.5,276.8 578.2,290.1 580.9,280.4 583.5,287.1 586.2,277.3 588.9,249.6 591.6,239.8 594.2,239.2 596.9,245.9 599.6,251.5 602.3,251.9 605.0,253.0 607.6,254.0 610.3,265.0 613.0,255.3 615.7,197.5 618.3,224.0 621.0,220.6 623.7,208.9 626.4,206.6 629.1,204.0 631.7,195.6 634.4,182.5 637.1,150.2 639.8,135.1 642.4,144.2 645.1,121.2 647.8,156.8 650.5,171.7 653.2,182.5 655.8,228.5 658.5,257.1 661.2,249.0 663.9,250.5 666.5,260.8 669.2,249.3 671.9,259.0 674.6,266.7 677.3,269.2 679.9,282.6 682.6,263.8 685.3,267.1 688.0,274.2 690.6,281.6 693.3,281.7 696.0,279.8"/>
  <polyline fill="none" stroke="#16a34a" stroke-width="2" points="56.0,195.7 58.7,217.0 61.4,225.0 64.0,208.5 66.7,183.0 69.4,135.1 72.1,163.8 74.7,140.4 77.4,145.7 80.1,65.9 82.8,111.7 85.5,118.1 88.1,87.2 90.8,65.9 93.5,97.8 96.2,115.7 98.8,117.0 101.5,179.8 104.2,182.9 106.9,182.9 109.6,182.9 112.2,151.0 114.9,118.1 117.6,124.4 120.3,145.7 122.9,124.4 125.6,161.7 128.3,232.9 131.0,262.8 133.7,278.7 136.3,246.8 139.0,279.0 141.7,268.0 144.4,276.6 147.0,268.0 149.7,268.0 152.4,257.4 155.1,273.4 157.8,271.2 160.4,268.0 163.1,268.0 165.8,262.7 168.5,271.2 171.1,272.0 173.8,236.1 176.5,235.6 179.2,201.6 181.9,185.5 184.5,222.9 187.2,242.3 189.9,202.7 192.6,201.7 195.2,185.0 197.9,111.7 200.6,177.6 203.3,172.2 206.0,164.9 208.6,182.8 211.3,201.0 214.0,176.7 216.7,196.5 219.3,230.3 222.0,265.1 224.7,232.4 227.4,236.3 230.1,237.1 232.7,225.7 235.4,221.9 238.1,237.3 240.8,238.2 243.4,253.3 246.1,244.4 248.8,226.6 251.5,228.4 254.2,220.9 256.8,177.9 259.5,210.4 262.2,210.7 264.9,185.6 267.5,207.3 270.2,211.5 272.9,218.8 275.6,210.3 278.3,196.5 280.9,178.3 283.6,186.1 286.3,143.8 289.0,136.8 291.6,136.7 294.3,134.1 297.0,196.0 299.7,192.9 302.4,175.7 305.0,172.6 307.7,168.1 310.4,183.3 313.1,182.4 315.7,159.2 318.4,165.0 321.1,144.0 323.8,144.1 326.5,151.2 329.1,195.7 331.8,194.6 334.5,185.1 337.2,172.9 339.8,186.8 342.5,180.5 345.2,197.9 347.9,215.1 350.6,239.0 353.2,248.3 355.9,235.8 358.6,258.0 361.3,283.2 363.9,268.5 366.6,255.3 369.3,226.7 372.0,242.0 374.7,229.5 377.3,228.8 380.0,240.3 382.7,215.9 385.4,207.5 388.1,226.1 390.7,188.2 393.4,236.1 396.1,221.6 398.8,194.5 401.4,197.0 404.1,220.9 406.8,165.6 409.5,174.9 412.2,178.7 414.8,170.5 417.5,168.6 420.2,147.2 422.9,178.7 425.5,187.7 428.2,189.2 430.9,164.5 433.6,169.3 436.3,159.3 438.9,155.2 441.6,127.0 444.3,88.8 447.0,139.2 449.6,154.8 452.3,160.2 455.0,209.0 457.7,182.6 460.4,168.1 463.0,166.7 465.7,174.0 468.4,215.4 471.1,204.9 473.7,206.5 476.4,223.8 479.1,221.7 481.8,215.7 484.5,206.9 487.1,212.4 489.8,209.3 492.5,239.3 495.2,277.6 497.8,275.0 500.5,274.9 503.2,262.8 505.9,273.6 508.6,263.0 511.2,264.9 513.9,269.9 516.6,261.3 519.3,239.9 521.9,247.1 524.6,253.9 527.3,230.8 530.0,224.9 532.7,217.1 535.3,230.3 538.0,226.5 540.7,242.0 543.4,245.0 546.0,245.4 548.7,261.5 551.4,257.4 554.1,258.9 556.8,261.7 559.4,260.8 562.1,290.0 564.8,290.1 567.5,267.1 570.1,282.2 572.8,286.6 575.5,276.8 578.2,290.1 580.9,280.4 583.5,287.1 586.2,277.3 588.9,249.6 591.6,239.8 594.2,239.2 596.9,245.9 599.6,251.5 602.3,251.9 605.0,253.0 607.6,254.0 610.3,265.0 613.0,255.3 615.7,197.5 618.3,224.0 621.0,220.6 623.7,208.9 626.4,206.6 629.1,204.0 631.7,195.6 634.4,182.5 637.1,150.2 639.8,135.1 642.4,144.2 645.1,121.2 647.8,156.8 650.5,171.7 653.2,182.5 655.8,228.5 658.5,257.1 661.2,249.0 663.9,250.5 666.5,260.8 669.2,249.3 671.9,259.0 674.6,266.7 677.3,269.2 679.9,282.6 682.6,263.8 685.3,267.1 688.0,274.2 690.6,281.6 693.3,281.7 696.0,279.8"/>
  <text x="60" y="62" font-size="11" fill="#2563eb">Price index</text>
  <text x="146" y="62" font-size="11" fill="#16a34a">Total return (price + distributions)</text>
  <text x="56" y="348" font-size="11" text-anchor="middle" fill="#444">2006-07</text><text x="217" y="348" font-size="11" text-anchor="middle" fill="#444">2011-07</text><text x="377" y="348" font-size="11" text-anchor="middle" fill="#444">2016-07</text><text x="538" y="348" font-size="11" text-anchor="middle" fill="#444">2021-07</text><text x="696" y="348" font-size="11" text-anchor="middle" fill="#444">2026-06</text>
</svg>
