<svg xmlns="http://www.w3.org/2000/svg" width="820" height="410" viewBox="0 0 820 410">
<rect width="820" height="410" fill="#fafafa"/><text x="78" y="22" font-size="14" font-family="sans-serif" fill="#0f172a">SOC cumulative return since 2021-04-19 | dividends reinvested</text>
<text x="78" y="40" font-size="11" font-family="sans-serif" fill="#334155">Total return -57.1% | Price-only -57.1% | logarithmic scale</text>
<text x="78" y="54" font-size="9" font-family="sans-serif" fill="#64748b">Regular $0.00 | Special $0.00 | Other $0.00 per initial share path</text>
<line x1="78" y1="332.0" x2="796" y2="332.0" stroke="#e2e8f0"/><text x="70" y="336.0" font-size="10" text-anchor="end" fill="#64748b">-72.5%</text><line x1="78" y1="287.0" x2="796" y2="287.0" stroke="#e2e8f0"/><text x="70" y="291.0" font-size="10" text-anchor="end" fill="#64748b">-57.1%</text><line x1="78" y1="242.0" x2="796" y2="242.0" stroke="#e2e8f0"/><text x="70" y="246.0" font-size="10" text-anchor="end" fill="#64748b">-33.2%</text><line x1="78" y1="201.0" x2="796" y2="201.0" stroke="#e2e8f0"/><text x="70" y="205.0" font-size="10" text-anchor="end" fill="#64748b">0%</text><line x1="78" y1="197.0" x2="796" y2="197.0" stroke="#e2e8f0"/><text x="70" y="201.0" font-size="10" text-anchor="end" fill="#64748b">+4.0%</text><line x1="78" y1="152.0" x2="796" y2="152.0" stroke="#e2e8f0"/><text x="70" y="156.0" font-size="10" text-anchor="end" fill="#64748b">+61.9%</text><line x1="78" y1="107.0" x2="796" y2="107.0" stroke="#e2e8f0"/><text x="70" y="111.0" font-size="10" text-anchor="end" fill="#64748b">+152.1%</text><line x1="78" y1="62.0" x2="796" y2="62.0" stroke="#e2e8f0"/><text x="70" y="66.0" font-size="10" text-anchor="end" fill="#64748b">+292.5%</text>
<line x1="78" y1="332" x2="796" y2="332" stroke="#cbd5e1"/>
<polyline fill="none" stroke="#2563eb" stroke-width="2" points="78.0,201.0 78.5,201.0 79.1,201.3 79.6,201.0 80.2,201.0 80.7,200.7 81.3,200.7 81.8,200.7 82.4,201.0 82.9,201.0 83.5,201.2 84.0,201.2 84.6,201.0 85.1,201.0 85.6,201.2 86.2,201.2 86.7,201.2 87.3,201.4 87.8,201.3 88.4,201.0 88.9,201.9 89.5,201.5 90.0,201.6 90.6,201.6 91.1,201.8 91.7,197.7 92.2,201.9 92.7,201.6 93.3,201.5 93.8,201.4 94.4,201.4 94.9,201.1 95.5,201.7 96.0,201.5 96.6,201.5 97.1,201.4 97.7,201.3 98.2,201.5 98.7,201.6 99.3,201.6 99.8,201.5 100.4,201.5 100.9,201.3 101.5,201.3 102.0,201.6 102.6,201.5 103.1,201.5 103.7,201.7 104.2,201.5 104.8,201.7 105.3,201.3 105.8,201.4 106.4,201.5 106.9,201.0 107.5,200.6 108.0,201.0 108.6,201.0 109.1,200.8 109.7,201.0 110.2,201.2 110.8,201.0 111.3,201.1 111.9,201.5 112.4,202.2 112.9,202.0 113.5,202.0 114.0,201.8 114.6,201.8 115.1,201.7 115.7,201.8 116.2,201.8 116.8,201.7 117.3,201.3 117.9,201.0 118.4,201.0 119.0,201.1 119.5,201.1 120.0,201.1 120.6,200.8 121.1,201.1 121.7,201.0 122.2,200.6 122.8,200.7 123.3,201.7 123.9,201.7 124.4,201.7 125.0,201.8 125.5,201.7 126.0,201.7 126.6,201.7 127.1,201.6 127.7,201.7 128.2,201.8 128.8,201.6 129.3,201.1 129.9,201.7 130.4,201.3 131.0,201.2 131.5,201.4 132.1,201.1 132.6,201.2 133.1,201.3 133.7,201.3 134.2,201.0 134.8,200.7 135.3,200.6 135.9,200.2 136.4,200.2 137.0,200.2 137.5,201.0 138.1,201.2 138.6,201.2 139.2,201.1 139.7,200.8 140.2,200.8 140.8,200.7 141.3,200.5 141.9,200.6 142.4,200.6 143.0,200.6 143.5,200.5 144.1,200.7 144.6,200.7 145.2,201.0 145.7,200.8 146.3,200.8 146.8,200.6 147.3,200.8 147.9,200.5 148.4,200.6 149.0,200.6 149.5,200.6 150.1,200.3 150.6,200.5 151.2,200.1 151.7,200.4 152.3,200.2 152.8,200.4 153.3,200.4 153.9,200.2 154.4,200.1 155.0,200.1 155.5,200.1 156.1,200.2 156.6,200.3 157.2,200.2 157.7,200.2 158.3,200.2 158.8,200.3 159.4,200.2 159.9,200.3 160.4,200.1 161.0,200.3 161.5,200.3 162.1,200.5 162.6,200.3 163.2,200.5 163.7,200.4 164.3,200.3 164.8,200.4 165.4,200.5 165.9,200.4 166.5,200.4 167.0,200.4 167.5,200.5 168.1,200.7 168.6,200.7 169.2,200.4 169.7,200.7 170.3,200.6 170.8,200.7 171.4,200.8 171.9,201.0 172.5,200.7 173.0,200.7 173.6,200.9 174.1,200.8 174.6,200.8 175.2,200.7 175.7,200.7 176.3,200.5 176.8,200.7 177.4,200.6 177.9,200.4 178.5,200.7 179.0,200.5 179.6,200.6 180.1,200.7 180.6,200.6 181.2,200.6 181.7,200.7 182.3,200.6 182.8,200.7 183.4,200.7 183.9,201.4 184.5,201.3 185.0,201.2 185.6,201.3 186.1,201.3 186.7,201.2 187.2,200.8 187.7,201.1 188.3,201.0 188.8,201.0 189.4,200.6 189.9,200.8 190.5,200.6 191.0,200.5 191.6,201.1 192.1,200.8 192.7,201.0 193.2,200.7 193.8,200.7 194.3,200.6 194.8,200.6 195.4,200.5 195.9,200.7 196.5,200.6 197.0,200.7 197.6,200.5 198.1,200.2 198.7,200.3 199.2,200.4 199.8,200.4 200.3,200.3 200.9,200.2 201.4,200.4 201.9,200.2 202.5,200.1 203.0,200.0 203.6,200.4 204.1,200.5 204.7,200.4 205.2,200.6 205.8,200.6 206.3,200.5 206.9,200.5 207.4,200.5 207.9,200.5 208.5,200.4 209.0,200.2 209.6,200.4 210.1,200.3 210.7,200.2 211.2,200.2 211.8,200.2 212.3,200.0 212.9,200.2 213.4,200.3 214.0,200.2 214.5,200.2 215.0,200.2 215.6,200.0 216.1,199.9 216.7,199.8 217.2,199.9 217.8,199.8 218.3,199.7 218.9,200.0 219.4,200.0 220.0,199.8 220.5,200.0 221.1,200.0 221.6,200.0 222.1,199.7 222.7,199.7 223.2,199.6 223.8,199.8 224.3,200.1 224.9,200.1 225.4,200.1 226.0,200.3 226.5,200.2 227.1,200.2 227.6,200.3 228.2,200.1 228.7,200.1 229.2,200.1 229.8,200.1 230.3,200.2 230.9,200.2 231.4,200.0 232.0,200.3 232.5,200.2 233.1,200.0 233.6,200.0 234.2,200.0 234.7,200.1 235.3,199.9 235.8,199.9 236.3,200.0 236.9,199.9 237.4,200.2 238.0,199.9 238.5,200.1 239.1,200.0 239.6,200.0 240.2,200.0 240.7,200.1 241.3,199.9 241.8,200.0 242.3,200.0 242.9,200.0 243.4,200.0 244.0,200.0 244.5,200.1 245.1,199.8 245.6,199.8 246.2,200.0 246.7,199.9 247.3,199.9 247.8,199.9 248.4,199.9 248.9,199.9 249.4,199.9 250.0,199.8 250.5,199.8 251.1,199.8 251.6,199.6 252.2,199.7 252.7,199.5 253.3,199.5 253.8,199.6 254.4,199.6 254.9,199.6 255.5,199.6 256.0,199.5 256.5,199.6 257.1,199.5 257.6,199.5 258.2,199.6 258.7,199.5 259.3,199.5 259.8,199.5 260.4,199.4 260.9,199.4 261.5,199.6 262.0,199.5 262.6,199.5 263.1,199.6 263.6,199.5 264.2,199.6 264.7,199.6 265.3,199.6 265.8,199.7 266.4,199.6 266.9,199.6 267.5,200.0 268.0,199.7 268.6,199.7 269.1,199.7 269.6,199.7 270.2,199.8 270.7,199.8 271.3,199.6 271.8,199.6 272.4,199.6 272.9,199.6 273.5,199.7 274.0,199.7 274.6,199.7 275.1,199.7 275.7,199.8 276.2,199.7 276.7,199.7 277.3,199.7 277.8,199.7 278.4,199.6 278.9,199.6 279.5,199.5 280.0,199.4 280.6,199.3 281.1,199.3 281.7,199.2 282.2,199.2 282.8,199.1 283.3,199.0 283.8,199.1 284.4,199.0 284.9,198.8 285.5,198.9 286.0,198.8 286.6,198.8 287.1,198.9 287.7,199.0 288.2,198.5 288.8,198.3 289.3,198.3 289.9,198.4 290.4,198.4 290.9,198.5 291.5,198.4 292.0,198.3 292.6,198.4 293.1,198.2 293.7,197.8 294.2,197.9 294.8,197.6 295.3,197.6 295.9,197.6 296.4,197.6 296.9,197.6 297.5,197.6 298.0,197.5 298.6,197.5 299.1,197.4 299.7,197.3 300.2,197.4 300.8,196.5 301.3,196.7 301.9,196.8 302.4,196.8 303.0,196.8 303.5,196.9 304.0,196.7 304.6,197.0 305.1,198.8 305.7,198.0 306.2,197.6 306.8,197.4 307.3,197.9 307.9,197.9 308.4,197.5 309.0,197.9 309.5,197.9 310.1,197.5 310.6,197.6 311.1,197.6 311.7,197.7 312.2,197.6 312.8,197.4 313.3,197.0 313.9,197.4 314.4,197.3 315.0,197.3 315.5,197.4 316.1,197.1 316.6,197.1 317.2,196.8 317.7,196.8 318.2,196.7 318.8,196.6 319.3,196.7 319.9,196.7 320.4,196.6 321.0,196.5 321.5,196.3 322.1,196.4 322.6,196.4 323.2,196.5 323.7,196.4 324.2,196.5 324.8,196.4 325.3,196.6 325.9,196.6 326.4,196.2 327.0,196.6 327.5,196.6 328.1,196.5 328.6,196.6 329.2,196.5 329.7,196.7 330.3,196.6 330.8,196.4 331.3,196.5 331.9,197.4 332.4,197.4 333.0,196.9 333.5,195.8 334.1,194.9 334.6,195.1 335.2,195.8 335.7,195.2 336.3,194.9 336.8,194.2 337.4,196.4 337.9,196.6 338.4,196.6 339.0,196.6 339.5,196.8 340.1,196.3 340.6,196.4 341.2,196.3 341.7,196.5 342.3,196.3 342.8,196.3 343.4,196.7 343.9,196.3 344.5,196.3 345.0,196.4 345.5,196.3 346.1,196.5 346.6,196.5 347.2,196.4 347.7,196.4 348.3,196.4 348.8,196.5 349.4,196.5 349.9,196.5 350.5,196.5 351.0,196.3 351.5,196.5 352.1,196.5 352.6,196.5 353.2,196.4 353.7,196.4 354.3,196.4 354.8,196.3 355.4,196.2 355.9,196.2 356.5,196.5 357.0,196.0 357.6,196.0 358.1,196.0 358.6,196.4 359.2,196.4 359.7,196.3 360.3,196.3 360.8,196.3 361.4,196.3 361.9,196.3 362.5,196.3 363.0,196.0 363.6,196.0 364.1,196.2 364.7,196.2 365.2,196.2 365.7,196.2 366.3,196.1 366.8,196.0 367.4,196.1 367.9,196.2 368.5,196.1 369.0,195.9 369.6,195.9 370.1,195.9 370.7,195.9 371.2,196.0 371.8,195.9 372.3,195.9 372.8,195.8 373.4,195.9 373.9,195.7 374.5,195.7 375.0,195.6 375.6,195.7 376.1,195.7 376.7,195.5 377.2,195.3 377.8,195.3 378.3,195.3 378.9,195.2 379.4,195.1 379.9,195.1 380.5,195.1 381.0,195.1 381.6,195.1 382.1,195.1 382.7,195.1 383.2,195.1 383.8,195.1 384.3,195.1 384.9,195.1 385.4,195.1 385.9,195.1 386.5,195.1 387.0,194.9 387.6,194.9 388.1,194.8 388.7,194.8 389.2,194.8 389.8,194.8 390.3,194.8 390.9,195.1 391.4,195.0 392.0,195.0 392.5,195.0 393.0,195.1 393.6,195.1 394.1,194.9 394.7,194.3 395.2,194.2 395.8,194.3 396.3,194.2 396.9,194.4 397.4,194.4 398.0,194.1 398.5,194.1 399.1,194.1 399.6,194.2 400.1,194.1 400.7,194.4 401.2,194.4 401.8,194.8 402.3,194.2 402.9,193.9 403.4,194.0 404.0,194.0 404.5,194.9 405.1,194.6 405.6,194.4 406.2,194.0 406.7,193.0 407.2,194.5 407.8,193.6 408.3,193.8 408.9,194.5 409.4,194.5 410.0,194.1 410.5,193.2 411.1,193.9 411.6,193.9 412.2,193.8 412.7,193.7 413.2,193.7 413.8,193.7 414.3,193.0 414.9,193.3 415.4,193.3 416.0,193.3 416.5,192.9 417.1,192.9 417.6,192.9 418.2,192.9 418.7,193.4 419.3,193.0 419.8,193.0 420.3,192.2 420.9,192.5 421.4,192.6 422.0,192.0 422.5,192.4 423.1,192.7 423.6,192.7 424.2,192.7 424.7,193.1 425.3,193.1 425.8,193.1 426.4,193.1 426.9,193.1 427.4,193.1 428.0,192.0 428.5,192.0 429.1,192.0 429.6,193.1 430.2,193.1 430.7,192.8 431.3,192.8 431.8,192.8 432.4,191.9 432.9,191.9 433.5,191.9 434.0,193.1 434.5,192.6 435.1,192.6 435.6,192.9 436.2,192.9 436.7,192.9 437.3,192.6 437.8,191.9 438.4,191.9 438.9,192.9 439.5,191.9 440.0,191.9 440.5,192.5 441.1,190.5 441.6,190.0 442.2,189.8 442.7,189.1 443.3,188.8 443.8,189.0 444.4,187.6 444.9,186.4 445.5,185.0 446.0,184.1 446.6,184.1 447.1,181.6 447.6,180.4 448.2,183.7 448.7,184.4 449.3,184.6 449.8,180.7 450.4,180.3 450.9,180.1 451.5,180.4 452.0,185.8 452.6,182.9 453.1,182.3 453.7,183.5 454.2,184.0 454.7,183.7 455.3,180.5 455.8,179.6 456.4,179.5 456.9,178.3 457.5,178.1 458.0,178.5 458.6,178.6 459.1,178.0 459.7,178.9 460.2,177.6 460.8,176.3 461.3,174.2 461.8,176.0 462.4,178.8 462.9,181.0 463.5,184.5 464.0,191.3 464.6,187.6 465.1,187.3 465.7,179.3 466.2,178.5 466.8,175.9 467.3,178.7 467.8,179.3 468.4,179.3 468.9,179.3 469.5,180.3 470.0,179.6 470.6,176.2 471.1,177.6 471.7,177.5 472.2,177.6 472.8,177.6 473.3,176.9 473.9,177.6 474.4,178.2 474.9,179.3 475.5,178.5 476.0,179.4 476.6,180.3 477.1,181.5 477.7,182.1 478.2,184.5 478.8,190.0 479.3,188.4 479.9,186.5 480.4,186.8 481.0,186.2 481.5,186.8 482.0,187.1 482.6,188.5 483.1,188.6 483.7,188.6 484.2,188.6 484.8,188.4 485.3,188.8 485.9,188.4 486.4,188.2 487.0,188.6 487.5,188.6 488.1,188.5 488.6,189.4 489.1,189.0 489.7,194.5 490.2,195.2 490.8,194.0 491.3,192.5 491.9,191.7 492.4,193.1 493.0,193.2 493.5,192.0 494.1,193.0 494.6,193.9 495.1,194.1 495.7,193.1 496.2,190.6 496.8,190.1 497.3,191.3 497.9,192.3 498.4,187.7 499.0,185.3 499.5,188.0 500.1,181.9 500.6,176.5 501.2,163.5 501.7,165.4 502.2,166.5 502.8,170.1 503.3,173.2 503.9,168.4 504.4,159.2 505.0,156.7 505.5,156.4 506.1,156.7 506.6,154.0 507.2,160.3 507.7,160.0 508.3,158.8 508.8,157.5 509.3,157.9 509.9,155.3 510.4,157.6 511.0,157.9 511.5,157.7 512.1,158.2 512.6,156.5 513.2,154.2 513.7,160.2 514.3,160.5 514.8,157.9 515.4,161.9 515.9,160.4 516.4,159.3 517.0,156.2 517.5,154.0 518.1,152.2 518.6,151.4 519.2,152.7 519.7,150.5 520.3,155.4 520.8,153.9 521.4,152.8 521.9,150.1 522.5,147.2 523.0,152.5 523.5,149.7 524.1,150.5 524.6,149.1 525.2,149.7 525.7,147.2 526.3,149.6 526.8,147.6 527.4,146.5 527.9,146.8 528.5,145.4 529.0,145.0 529.5,150.9 530.1,155.0 530.6,159.9 531.2,163.7 531.7,163.8 532.3,163.7 532.8,163.2 533.4,162.3 533.9,159.4 534.5,153.2 535.0,157.0 535.6,153.7 536.1,154.4 536.6,155.4 537.2,156.0 537.7,156.3 538.3,153.4 538.8,154.1 539.4,151.3 539.9,151.9 540.5,147.1 541.0,144.9 541.6,111.3 542.1,116.0 542.7,119.5 543.2,118.6 543.7,116.2 544.3,124.3 544.8,124.2 545.4,121.7 545.9,115.3 546.5,104.5 547.0,101.2 547.6,101.7 548.1,92.1 548.7,116.8 549.2,111.6 549.8,105.8 550.3,109.7 550.8,110.7 551.4,108.5 551.9,110.5 552.5,106.9 553.0,104.8 553.6,103.2 554.1,106.9 554.7,114.8 555.2,123.5 555.8,130.4 556.3,128.2 556.8,124.8 557.4,124.1 557.9,128.3 558.5,127.4 559.0,127.9 559.6,126.2 560.1,133.0 560.7,129.1 561.2,130.3 561.8,124.5 562.3,124.0 562.9,120.5 563.4,120.1 563.9,122.2 564.5,116.1 565.0,117.2 565.6,113.8 566.1,114.8 566.7,108.6 567.2,110.4 567.8,113.2 568.3,109.8 568.9,111.9 569.4,114.1 570.0,115.5 570.5,124.2 571.0,119.6 571.6,119.2 572.1,117.3 572.7,113.1 573.2,108.6 573.8,107.6 574.3,107.6 574.9,109.3 575.4,111.1 576.0,120.3 576.5,121.3 577.1,125.0 577.6,132.4 578.1,129.1 578.7,124.8 579.2,126.0 579.8,119.3 580.3,127.7 580.9,123.0 581.4,118.5 582.0,120.9 582.5,129.3 583.1,116.5 583.6,116.5 584.1,115.4 584.7,113.9 585.2,109.8 585.8,109.5 586.3,109.7 586.9,113.7 587.4,112.0 588.0,105.1 588.5,109.8 589.1,111.0 589.6,114.3 590.2,114.3 590.7,118.4 591.2,113.9 591.8,107.0 592.3,106.1 592.9,106.8 593.4,100.1 594.0,92.3 594.5,92.3 595.1,93.8 595.6,99.7 596.2,103.6 596.7,101.8 597.3,104.9 597.8,105.0 598.3,105.6 598.9,103.0 599.4,113.2 600.0,115.0 600.5,118.0 601.1,112.6 601.6,105.4 602.2,106.9 602.7,84.1 603.3,84.4 603.8,81.9 604.4,84.1 604.9,88.3 605.4,91.5 606.0,88.5 606.5,89.1 607.1,89.4 607.6,94.1 608.2,91.9 608.7,100.3 609.3,102.9 609.8,111.5 610.4,112.8 610.9,108.3 611.4,114.9 612.0,113.0 612.5,107.2 613.1,110.3 613.6,105.3 614.2,103.3 614.7,102.3 615.3,100.9 615.8,100.9 616.4,104.3 616.9,101.2 617.5,99.4 618.0,100.1 618.5,100.2 619.1,101.1 619.6,103.2 620.2,102.3 620.7,99.9 621.3,119.2 621.8,135.7 622.4,136.9 622.9,146.3 623.5,128.6 624.0,141.4 624.6,135.1 625.1,130.9 625.6,128.6 626.2,129.4 626.7,126.6 627.3,130.6 627.8,134.2 628.4,135.1 628.9,129.4 629.5,128.3 630.0,125.9 630.6,129.8 631.1,134.5 631.7,127.4 632.2,125.1 632.7,128.5 633.3,128.1 633.8,125.9 634.4,122.6 634.9,113.2 635.5,99.1 636.0,93.0 636.6,91.4 637.1,93.0 637.7,90.1 638.2,76.5 638.7,77.3 639.3,78.5 639.8,78.7 640.4,79.3 640.9,76.7 641.5,93.6 642.0,95.0 642.6,90.4 643.1,89.0 643.7,108.7 644.2,112.8 644.8,112.3 645.3,106.8 645.8,107.7 646.4,113.6 646.9,113.3 647.5,113.4 648.0,114.2 648.6,113.1 649.1,114.8 649.7,115.4 650.2,117.0 650.8,121.5 651.3,118.2 651.9,118.4 652.4,116.4 652.9,113.6 653.5,117.8 654.0,120.1 654.6,113.3 655.1,112.1 655.7,114.4 656.2,111.7 656.8,117.7 657.3,118.7 657.9,115.8 658.4,114.3 659.0,116.5 659.5,117.4 660.0,92.0 660.6,80.6 661.1,87.1 661.7,85.6 662.2,92.8 662.8,90.9 663.3,90.9 663.9,86.8 664.4,89.5 665.0,85.6 665.5,84.0 666.1,87.5 666.6,86.6 667.1,84.8 667.7,85.8 668.2,89.6 668.8,90.3 669.3,89.3 669.9,91.5 670.4,90.1 671.0,87.0 671.5,94.9 672.1,90.4 672.6,94.2 673.1,96.6 673.7,96.2 674.2,90.4 674.8,93.1 675.3,91.8 675.9,91.9 676.4,93.1 677.0,97.0 677.5,112.9 678.1,114.3 678.6,113.3 679.2,114.1 679.7,117.4 680.2,127.1 680.8,106.4 681.3,112.6 681.9,112.9 682.4,117.7 683.0,115.8 683.5,106.8 684.1,108.6 684.6,110.8 685.2,110.7 685.7,106.8 686.3,118.8 686.8,126.7 687.3,128.7 687.9,135.2 688.4,141.2 689.0,127.1 689.5,129.7 690.1,132.1 690.6,135.0 691.2,131.1 691.7,127.8 692.3,129.2 692.8,135.9 693.4,134.7 693.9,139.9 694.4,162.7 695.0,170.3 695.5,181.0 696.1,172.8 696.6,176.0 697.2,180.9 697.7,163.5 698.3,168.4 698.8,172.4 699.4,171.0 699.9,169.2 700.4,172.5 701.0,193.3 701.5,230.3 702.1,251.5 702.6,255.3 703.2,271.6 703.7,261.6 704.3,249.8 704.8,230.8 705.4,243.2 705.9,251.7 706.5,286.3 707.0,282.0 707.5,276.8 708.1,276.3 708.6,284.6 709.2,279.7 709.7,273.1 710.3,279.9 710.8,288.0 711.4,282.0 711.9,272.7 712.5,278.8 713.0,263.9 713.6,266.3 714.1,256.1 714.6,256.6 715.2,254.6 715.7,261.8 716.3,256.1 716.8,247.1 717.4,256.8 717.9,259.9 718.5,262.8 719.0,217.4 719.6,223.4 720.1,225.7 720.7,194.3 721.2,199.3 721.7,214.0 722.3,211.7 722.8,211.4 723.4,208.3 723.9,181.6 724.5,192.1 725.0,196.7 725.6,213.1 726.1,204.9 726.7,199.7 727.2,191.3 727.7,196.9 728.3,185.7 728.8,182.9 729.4,182.6 729.9,188.0 730.5,182.9 731.0,176.0 731.6,193.6 732.1,195.3 732.7,199.2 733.2,196.3 733.8,197.9 734.3,201.2 734.8,208.5 735.4,219.4 735.9,217.2 736.5,229.4 737.0,221.3 737.6,214.1 738.1,218.6 738.7,215.2 739.2,217.5 739.8,209.8 740.3,212.1 740.9,212.9 741.4,209.4 741.9,209.1 742.5,209.6 743.0,204.7 743.6,207.1 744.1,221.7 744.7,217.4 745.2,213.2 745.8,204.8 746.3,196.9 746.9,164.8 747.4,161.0 748.0,162.4 748.5,160.7 749.0,146.5 749.6,141.3 750.1,145.0 750.7,149.3 751.2,142.6 751.8,144.8 752.3,143.1 752.9,148.3 753.4,151.3 754.0,145.1 754.5,139.9 755.0,138.6 755.6,135.6 756.1,139.0 756.7,146.8 757.2,158.7 757.8,154.2 758.3,162.4 758.9,161.2 759.4,165.7 760.0,171.0 760.5,170.1 761.1,171.4 761.6,173.1 762.1,171.7 762.7,161.0 763.2,170.3 763.8,166.7 764.3,163.1 764.9,158.9 765.4,161.8 766.0,166.8 766.5,167.7 767.1,170.1 767.6,164.1 768.2,161.2 768.7,162.9 769.2,160.1 769.8,161.8 770.3,168.0 770.9,172.5 771.4,172.4 772.0,169.3 772.5,163.7 773.1,170.3 773.6,165.5 774.2,155.8 774.7,155.1 775.3,155.0 775.8,156.3 776.3,159.6 776.9,158.4 777.4,165.5 778.0,170.2 778.5,158.8 779.1,159.1 779.6,171.0 780.2,166.8 780.7,169.3 781.3,167.1 781.8,177.2 782.3,170.3 782.9,180.8 783.4,180.4 784.0,181.7 784.5,189.3 785.1,191.9 785.6,198.0 786.2,195.3 786.7,196.6 787.3,204.5 787.8,209.2 788.4,221.4 788.9,225.9 789.4,229.0 790.0,234.5 790.5,317.5 791.1,281.3 791.6,284.8 792.2,292.3 792.7,285.3 793.3,288.0 793.8,287.5 794.4,293.0 794.9,280.6 795.5,281.5 796.0,287.0"/><polyline fill="none" stroke="#16a34a" stroke-width="3" points="78.0,201.0 78.5,201.0 79.1,201.3 79.6,201.0 80.2,201.0 80.7,200.7 81.3,200.7 81.8,200.7 82.4,201.0 82.9,201.0 83.5,201.2 84.0,201.2 84.6,201.0 85.1,201.0 85.6,201.2 86.2,201.2 86.7,201.2 87.3,201.4 87.8,201.3 88.4,201.0 88.9,201.9 89.5,201.5 90.0,201.6 90.6,201.6 91.1,201.8 91.7,197.7 92.2,201.9 92.7,201.6 93.3,201.5 93.8,201.4 94.4,201.4 94.9,201.1 95.5,201.7 96.0,201.5 96.6,201.5 97.1,201.4 97.7,201.3 98.2,201.5 98.7,201.6 99.3,201.6 99.8,201.5 100.4,201.5 100.9,201.3 101.5,201.3 102.0,201.6 102.6,201.5 103.1,201.5 103.7,201.7 104.2,201.5 104.8,201.7 105.3,201.3 105.8,201.4 106.4,201.5 106.9,201.0 107.5,200.6 108.0,201.0 108.6,201.0 109.1,200.8 109.7,201.0 110.2,201.2 110.8,201.0 111.3,201.1 111.9,201.5 112.4,202.2 112.9,202.0 113.5,202.0 114.0,201.8 114.6,201.8 115.1,201.7 115.7,201.8 116.2,201.8 116.8,201.7 117.3,201.3 117.9,201.0 118.4,201.0 119.0,201.1 119.5,201.1 120.0,201.1 120.6,200.8 121.1,201.1 121.7,201.0 122.2,200.6 122.8,200.7 123.3,201.7 123.9,201.7 124.4,201.7 125.0,201.8 125.5,201.7 126.0,201.7 126.6,201.7 127.1,201.6 127.7,201.7 128.2,201.8 128.8,201.6 129.3,201.1 129.9,201.7 130.4,201.3 131.0,201.2 131.5,201.4 132.1,201.1 132.6,201.2 133.1,201.3 133.7,201.3 134.2,201.0 134.8,200.7 135.3,200.6 135.9,200.2 136.4,200.2 137.0,200.2 137.5,201.0 138.1,201.2 138.6,201.2 139.2,201.1 139.7,200.8 140.2,200.8 140.8,200.7 141.3,200.5 141.9,200.6 142.4,200.6 143.0,200.6 143.5,200.5 144.1,200.7 144.6,200.7 145.2,201.0 145.7,200.8 146.3,200.8 146.8,200.6 147.3,200.8 147.9,200.5 148.4,200.6 149.0,200.6 149.5,200.6 150.1,200.3 150.6,200.5 151.2,200.1 151.7,200.4 152.3,200.2 152.8,200.4 153.3,200.4 153.9,200.2 154.4,200.1 155.0,200.1 155.5,200.1 156.1,200.2 156.6,200.3 157.2,200.2 157.7,200.2 158.3,200.2 158.8,200.3 159.4,200.2 159.9,200.3 160.4,200.1 161.0,200.3 161.5,200.3 162.1,200.5 162.6,200.3 163.2,200.5 163.7,200.4 164.3,200.3 164.8,200.4 165.4,200.5 165.9,200.4 166.5,200.4 167.0,200.4 167.5,200.5 168.1,200.7 168.6,200.7 169.2,200.4 169.7,200.7 170.3,200.6 170.8,200.7 171.4,200.8 171.9,201.0 172.5,200.7 173.0,200.7 173.6,200.9 174.1,200.8 174.6,200.8 175.2,200.7 175.7,200.7 176.3,200.5 176.8,200.7 177.4,200.6 177.9,200.4 178.5,200.7 179.0,200.5 179.6,200.6 180.1,200.7 180.6,200.6 181.2,200.6 181.7,200.7 182.3,200.6 182.8,200.7 183.4,200.7 183.9,201.4 184.5,201.3 185.0,201.2 185.6,201.3 186.1,201.3 186.7,201.2 187.2,200.8 187.7,201.1 188.3,201.0 188.8,201.0 189.4,200.6 189.9,200.8 190.5,200.6 191.0,200.5 191.6,201.1 192.1,200.8 192.7,201.0 193.2,200.7 193.8,200.7 194.3,200.6 194.8,200.6 195.4,200.5 195.9,200.7 196.5,200.6 197.0,200.7 197.6,200.5 198.1,200.2 198.7,200.3 199.2,200.4 199.8,200.4 200.3,200.3 200.9,200.2 201.4,200.4 201.9,200.2 202.5,200.1 203.0,200.0 203.6,200.4 204.1,200.5 204.7,200.4 205.2,200.6 205.8,200.6 206.3,200.5 206.9,200.5 207.4,200.5 207.9,200.5 208.5,200.4 209.0,200.2 209.6,200.4 210.1,200.3 210.7,200.2 211.2,200.2 211.8,200.2 212.3,200.0 212.9,200.2 213.4,200.3 214.0,200.2 214.5,200.2 215.0,200.2 215.6,200.0 216.1,199.9 216.7,199.8 217.2,199.9 217.8,199.8 218.3,199.7 218.9,200.0 219.4,200.0 220.0,199.8 220.5,200.0 221.1,200.0 221.6,200.0 222.1,199.7 222.7,199.7 223.2,199.6 223.8,199.8 224.3,200.1 224.9,200.1 225.4,200.1 226.0,200.3 226.5,200.2 227.1,200.2 227.6,200.3 228.2,200.1 228.7,200.1 229.2,200.1 229.8,200.1 230.3,200.2 230.9,200.2 231.4,200.0 232.0,200.3 232.5,200.2 233.1,200.0 233.6,200.0 234.2,200.0 234.7,200.1 235.3,199.9 235.8,199.9 236.3,200.0 236.9,199.9 237.4,200.2 238.0,199.9 238.5,200.1 239.1,200.0 239.6,200.0 240.2,200.0 240.7,200.1 241.3,199.9 241.8,200.0 242.3,200.0 242.9,200.0 243.4,200.0 244.0,200.0 244.5,200.1 245.1,199.8 245.6,199.8 246.2,200.0 246.7,199.9 247.3,199.9 247.8,199.9 248.4,199.9 248.9,199.9 249.4,199.9 250.0,199.8 250.5,199.8 251.1,199.8 251.6,199.6 252.2,199.7 252.7,199.5 253.3,199.5 253.8,199.6 254.4,199.6 254.9,199.6 255.5,199.6 256.0,199.5 256.5,199.6 257.1,199.5 257.6,199.5 258.2,199.6 258.7,199.5 259.3,199.5 259.8,199.5 260.4,199.4 260.9,199.4 261.5,199.6 262.0,199.5 262.6,199.5 263.1,199.6 263.6,199.5 264.2,199.6 264.7,199.6 265.3,199.6 265.8,199.7 266.4,199.6 266.9,199.6 267.5,200.0 268.0,199.7 268.6,199.7 269.1,199.7 269.6,199.7 270.2,199.8 270.7,199.8 271.3,199.6 271.8,199.6 272.4,199.6 272.9,199.6 273.5,199.7 274.0,199.7 274.6,199.7 275.1,199.7 275.7,199.8 276.2,199.7 276.7,199.7 277.3,199.7 277.8,199.7 278.4,199.6 278.9,199.6 279.5,199.5 280.0,199.4 280.6,199.3 281.1,199.3 281.7,199.2 282.2,199.2 282.8,199.1 283.3,199.0 283.8,199.1 284.4,199.0 284.9,198.8 285.5,198.9 286.0,198.8 286.6,198.8 287.1,198.9 287.7,199.0 288.2,198.5 288.8,198.3 289.3,198.3 289.9,198.4 290.4,198.4 290.9,198.5 291.5,198.4 292.0,198.3 292.6,198.4 293.1,198.2 293.7,197.8 294.2,197.9 294.8,197.6 295.3,197.6 295.9,197.6 296.4,197.6 296.9,197.6 297.5,197.6 298.0,197.5 298.6,197.5 299.1,197.4 299.7,197.3 300.2,197.4 300.8,196.5 301.3,196.7 301.9,196.8 302.4,196.8 303.0,196.8 303.5,196.9 304.0,196.7 304.6,197.0 305.1,198.8 305.7,198.0 306.2,197.6 306.8,197.4 307.3,197.9 307.9,197.9 308.4,197.5 309.0,197.9 309.5,197.9 310.1,197.5 310.6,197.6 311.1,197.6 311.7,197.7 312.2,197.6 312.8,197.4 313.3,197.0 313.9,197.4 314.4,197.3 315.0,197.3 315.5,197.4 316.1,197.1 316.6,197.1 317.2,196.8 317.7,196.8 318.2,196.7 318.8,196.6 319.3,196.7 319.9,196.7 320.4,196.6 321.0,196.5 321.5,196.3 322.1,196.4 322.6,196.4 323.2,196.5 323.7,196.4 324.2,196.5 324.8,196.4 325.3,196.6 325.9,196.6 326.4,196.2 327.0,196.6 327.5,196.6 328.1,196.5 328.6,196.6 329.2,196.5 329.7,196.7 330.3,196.6 330.8,196.4 331.3,196.5 331.9,197.4 332.4,197.4 333.0,196.9 333.5,195.8 334.1,194.9 334.6,195.1 335.2,195.8 335.7,195.2 336.3,194.9 336.8,194.2 337.4,196.4 337.9,196.6 338.4,196.6 339.0,196.6 339.5,196.8 340.1,196.3 340.6,196.4 341.2,196.3 341.7,196.5 342.3,196.3 342.8,196.3 343.4,196.7 343.9,196.3 344.5,196.3 345.0,196.4 345.5,196.3 346.1,196.5 346.6,196.5 347.2,196.4 347.7,196.4 348.3,196.4 348.8,196.5 349.4,196.5 349.9,196.5 350.5,196.5 351.0,196.3 351.5,196.5 352.1,196.5 352.6,196.5 353.2,196.4 353.7,196.4 354.3,196.4 354.8,196.3 355.4,196.2 355.9,196.2 356.5,196.5 357.0,196.0 357.6,196.0 358.1,196.0 358.6,196.4 359.2,196.4 359.7,196.3 360.3,196.3 360.8,196.3 361.4,196.3 361.9,196.3 362.5,196.3 363.0,196.0 363.6,196.0 364.1,196.2 364.7,196.2 365.2,196.2 365.7,196.2 366.3,196.1 366.8,196.0 367.4,196.1 367.9,196.2 368.5,196.1 369.0,195.9 369.6,195.9 370.1,195.9 370.7,195.9 371.2,196.0 371.8,195.9 372.3,195.9 372.8,195.8 373.4,195.9 373.9,195.7 374.5,195.7 375.0,195.6 375.6,195.7 376.1,195.7 376.7,195.5 377.2,195.3 377.8,195.3 378.3,195.3 378.9,195.2 379.4,195.1 379.9,195.1 380.5,195.1 381.0,195.1 381.6,195.1 382.1,195.1 382.7,195.1 383.2,195.1 383.8,195.1 384.3,195.1 384.9,195.1 385.4,195.1 385.9,195.1 386.5,195.1 387.0,194.9 387.6,194.9 388.1,194.8 388.7,194.8 389.2,194.8 389.8,194.8 390.3,194.8 390.9,195.1 391.4,195.0 392.0,195.0 392.5,195.0 393.0,195.1 393.6,195.1 394.1,194.9 394.7,194.3 395.2,194.2 395.8,194.3 396.3,194.2 396.9,194.4 397.4,194.4 398.0,194.1 398.5,194.1 399.1,194.1 399.6,194.2 400.1,194.1 400.7,194.4 401.2,194.4 401.8,194.8 402.3,194.2 402.9,193.9 403.4,194.0 404.0,194.0 404.5,194.9 405.1,194.6 405.6,194.4 406.2,194.0 406.7,193.0 407.2,194.5 407.8,193.6 408.3,193.8 408.9,194.5 409.4,194.5 410.0,194.1 410.5,193.2 411.1,193.9 411.6,193.9 412.2,193.8 412.7,193.7 413.2,193.7 413.8,193.7 414.3,193.0 414.9,193.3 415.4,193.3 416.0,193.3 416.5,192.9 417.1,192.9 417.6,192.9 418.2,192.9 418.7,193.4 419.3,193.0 419.8,193.0 420.3,192.2 420.9,192.5 421.4,192.6 422.0,192.0 422.5,192.4 423.1,192.7 423.6,192.7 424.2,192.7 424.7,193.1 425.3,193.1 425.8,193.1 426.4,193.1 426.9,193.1 427.4,193.1 428.0,192.0 428.5,192.0 429.1,192.0 429.6,193.1 430.2,193.1 430.7,192.8 431.3,192.8 431.8,192.8 432.4,191.9 432.9,191.9 433.5,191.9 434.0,193.1 434.5,192.6 435.1,192.6 435.6,192.9 436.2,192.9 436.7,192.9 437.3,192.6 437.8,191.9 438.4,191.9 438.9,192.9 439.5,191.9 440.0,191.9 440.5,192.5 441.1,190.5 441.6,190.0 442.2,189.8 442.7,189.1 443.3,188.8 443.8,189.0 444.4,187.6 444.9,186.4 445.5,185.0 446.0,184.1 446.6,184.1 447.1,181.6 447.6,180.4 448.2,183.7 448.7,184.4 449.3,184.6 449.8,180.7 450.4,180.3 450.9,180.1 451.5,180.4 452.0,185.8 452.6,182.9 453.1,182.3 453.7,183.5 454.2,184.0 454.7,183.7 455.3,180.5 455.8,179.6 456.4,179.5 456.9,178.3 457.5,178.1 458.0,178.5 458.6,178.6 459.1,178.0 459.7,178.9 460.2,177.6 460.8,176.3 461.3,174.2 461.8,176.0 462.4,178.8 462.9,181.0 463.5,184.5 464.0,191.3 464.6,187.6 465.1,187.3 465.7,179.3 466.2,178.5 466.8,175.9 467.3,178.7 467.8,179.3 468.4,179.3 468.9,179.3 469.5,180.3 470.0,179.6 470.6,176.2 471.1,177.6 471.7,177.5 472.2,177.6 472.8,177.6 473.3,176.9 473.9,177.6 474.4,178.2 474.9,179.3 475.5,178.5 476.0,179.4 476.6,180.3 477.1,181.5 477.7,182.1 478.2,184.5 478.8,190.0 479.3,188.4 479.9,186.5 480.4,186.8 481.0,186.2 481.5,186.8 482.0,187.1 482.6,188.5 483.1,188.6 483.7,188.6 484.2,188.6 484.8,188.4 485.3,188.8 485.9,188.4 486.4,188.2 487.0,188.6 487.5,188.6 488.1,188.5 488.6,189.4 489.1,189.0 489.7,194.5 490.2,195.2 490.8,194.0 491.3,192.5 491.9,191.7 492.4,193.1 493.0,193.2 493.5,192.0 494.1,193.0 494.6,193.9 495.1,194.1 495.7,193.1 496.2,190.6 496.8,190.1 497.3,191.3 497.9,192.3 498.4,187.7 499.0,185.3 499.5,188.0 500.1,181.9 500.6,176.5 501.2,163.5 501.7,165.4 502.2,166.5 502.8,170.1 503.3,173.2 503.9,168.4 504.4,159.2 505.0,156.7 505.5,156.4 506.1,156.7 506.6,154.0 507.2,160.3 507.7,160.0 508.3,158.8 508.8,157.5 509.3,157.9 509.9,155.3 510.4,157.6 511.0,157.9 511.5,157.7 512.1,158.2 512.6,156.5 513.2,154.2 513.7,160.2 514.3,160.5 514.8,157.9 515.4,161.9 515.9,160.4 516.4,159.3 517.0,156.2 517.5,154.0 518.1,152.2 518.6,151.4 519.2,152.7 519.7,150.5 520.3,155.4 520.8,153.9 521.4,152.8 521.9,150.1 522.5,147.2 523.0,152.5 523.5,149.7 524.1,150.5 524.6,149.1 525.2,149.7 525.7,147.2 526.3,149.6 526.8,147.6 527.4,146.5 527.9,146.8 528.5,145.4 529.0,145.0 529.5,150.9 530.1,155.0 530.6,159.9 531.2,163.7 531.7,163.8 532.3,163.7 532.8,163.2 533.4,162.3 533.9,159.4 534.5,153.2 535.0,157.0 535.6,153.7 536.1,154.4 536.6,155.4 537.2,156.0 537.7,156.3 538.3,153.4 538.8,154.1 539.4,151.3 539.9,151.9 540.5,147.1 541.0,144.9 541.6,111.3 542.1,116.0 542.7,119.5 543.2,118.6 543.7,116.2 544.3,124.3 544.8,124.2 545.4,121.7 545.9,115.3 546.5,104.5 547.0,101.2 547.6,101.7 548.1,92.1 548.7,116.8 549.2,111.6 549.8,105.8 550.3,109.7 550.8,110.7 551.4,108.5 551.9,110.5 552.5,106.9 553.0,104.8 553.6,103.2 554.1,106.9 554.7,114.8 555.2,123.5 555.8,130.4 556.3,128.2 556.8,124.8 557.4,124.1 557.9,128.3 558.5,127.4 559.0,127.9 559.6,126.2 560.1,133.0 560.7,129.1 561.2,130.3 561.8,124.5 562.3,124.0 562.9,120.5 563.4,120.1 563.9,122.2 564.5,116.1 565.0,117.2 565.6,113.8 566.1,114.8 566.7,108.6 567.2,110.4 567.8,113.2 568.3,109.8 568.9,111.9 569.4,114.1 570.0,115.5 570.5,124.2 571.0,119.6 571.6,119.2 572.1,117.3 572.7,113.1 573.2,108.6 573.8,107.6 574.3,107.6 574.9,109.3 575.4,111.1 576.0,120.3 576.5,121.3 577.1,125.0 577.6,132.4 578.1,129.1 578.7,124.8 579.2,126.0 579.8,119.3 580.3,127.7 580.9,123.0 581.4,118.5 582.0,120.9 582.5,129.3 583.1,116.5 583.6,116.5 584.1,115.4 584.7,113.9 585.2,109.8 585.8,109.5 586.3,109.7 586.9,113.7 587.4,112.0 588.0,105.1 588.5,109.8 589.1,111.0 589.6,114.3 590.2,114.3 590.7,118.4 591.2,113.9 591.8,107.0 592.3,106.1 592.9,106.8 593.4,100.1 594.0,92.3 594.5,92.3 595.1,93.8 595.6,99.7 596.2,103.6 596.7,101.8 597.3,104.9 597.8,105.0 598.3,105.6 598.9,103.0 599.4,113.2 600.0,115.0 600.5,118.0 601.1,112.6 601.6,105.4 602.2,106.9 602.7,84.1 603.3,84.4 603.8,81.9 604.4,84.1 604.9,88.3 605.4,91.5 606.0,88.5 606.5,89.1 607.1,89.4 607.6,94.1 608.2,91.9 608.7,100.3 609.3,102.9 609.8,111.5 610.4,112.8 610.9,108.3 611.4,114.9 612.0,113.0 612.5,107.2 613.1,110.3 613.6,105.3 614.2,103.3 614.7,102.3 615.3,100.9 615.8,100.9 616.4,104.3 616.9,101.2 617.5,99.4 618.0,100.1 618.5,100.2 619.1,101.1 619.6,103.2 620.2,102.3 620.7,99.9 621.3,119.2 621.8,135.7 622.4,136.9 622.9,146.3 623.5,128.6 624.0,141.4 624.6,135.1 625.1,130.9 625.6,128.6 626.2,129.4 626.7,126.6 627.3,130.6 627.8,134.2 628.4,135.1 628.9,129.4 629.5,128.3 630.0,125.9 630.6,129.8 631.1,134.5 631.7,127.4 632.2,125.1 632.7,128.5 633.3,128.1 633.8,125.9 634.4,122.6 634.9,113.2 635.5,99.1 636.0,93.0 636.6,91.4 637.1,93.0 637.7,90.1 638.2,76.5 638.7,77.3 639.3,78.5 639.8,78.7 640.4,79.3 640.9,76.7 641.5,93.6 642.0,95.0 642.6,90.4 643.1,89.0 643.7,108.7 644.2,112.8 644.8,112.3 645.3,106.8 645.8,107.7 646.4,113.6 646.9,113.3 647.5,113.4 648.0,114.2 648.6,113.1 649.1,114.8 649.7,115.4 650.2,117.0 650.8,121.5 651.3,118.2 651.9,118.4 652.4,116.4 652.9,113.6 653.5,117.8 654.0,120.1 654.6,113.3 655.1,112.1 655.7,114.4 656.2,111.7 656.8,117.7 657.3,118.7 657.9,115.8 658.4,114.3 659.0,116.5 659.5,117.4 660.0,92.0 660.6,80.6 661.1,87.1 661.7,85.6 662.2,92.8 662.8,90.9 663.3,90.9 663.9,86.8 664.4,89.5 665.0,85.6 665.5,84.0 666.1,87.5 666.6,86.6 667.1,84.8 667.7,85.8 668.2,89.6 668.8,90.3 669.3,89.3 669.9,91.5 670.4,90.1 671.0,87.0 671.5,94.9 672.1,90.4 672.6,94.2 673.1,96.6 673.7,96.2 674.2,90.4 674.8,93.1 675.3,91.8 675.9,91.9 676.4,93.1 677.0,97.0 677.5,112.9 678.1,114.3 678.6,113.3 679.2,114.1 679.7,117.4 680.2,127.1 680.8,106.4 681.3,112.6 681.9,112.9 682.4,117.7 683.0,115.8 683.5,106.8 684.1,108.6 684.6,110.8 685.2,110.7 685.7,106.8 686.3,118.8 686.8,126.7 687.3,128.7 687.9,135.2 688.4,141.2 689.0,127.1 689.5,129.7 690.1,132.1 690.6,135.0 691.2,131.1 691.7,127.8 692.3,129.2 692.8,135.9 693.4,134.7 693.9,139.9 694.4,162.7 695.0,170.3 695.5,181.0 696.1,172.8 696.6,176.0 697.2,180.9 697.7,163.5 698.3,168.4 698.8,172.4 699.4,171.0 699.9,169.2 700.4,172.5 701.0,193.3 701.5,230.3 702.1,251.5 702.6,255.3 703.2,271.6 703.7,261.6 704.3,249.8 704.8,230.8 705.4,243.2 705.9,251.7 706.5,286.3 707.0,282.0 707.5,276.8 708.1,276.3 708.6,284.6 709.2,279.7 709.7,273.1 710.3,279.9 710.8,288.0 711.4,282.0 711.9,272.7 712.5,278.8 713.0,263.9 713.6,266.3 714.1,256.1 714.6,256.6 715.2,254.6 715.7,261.8 716.3,256.1 716.8,247.1 717.4,256.8 717.9,259.9 718.5,262.8 719.0,217.4 719.6,223.4 720.1,225.7 720.7,194.3 721.2,199.3 721.7,214.0 722.3,211.7 722.8,211.4 723.4,208.3 723.9,181.6 724.5,192.1 725.0,196.7 725.6,213.1 726.1,204.9 726.7,199.7 727.2,191.3 727.7,196.9 728.3,185.7 728.8,182.9 729.4,182.6 729.9,188.0 730.5,182.9 731.0,176.0 731.6,193.6 732.1,195.3 732.7,199.2 733.2,196.3 733.8,197.9 734.3,201.2 734.8,208.5 735.4,219.4 735.9,217.2 736.5,229.4 737.0,221.3 737.6,214.1 738.1,218.6 738.7,215.2 739.2,217.5 739.8,209.8 740.3,212.1 740.9,212.9 741.4,209.4 741.9,209.1 742.5,209.6 743.0,204.7 743.6,207.1 744.1,221.7 744.7,217.4 745.2,213.2 745.8,204.8 746.3,196.9 746.9,164.8 747.4,161.0 748.0,162.4 748.5,160.7 749.0,146.5 749.6,141.3 750.1,145.0 750.7,149.3 751.2,142.6 751.8,144.8 752.3,143.1 752.9,148.3 753.4,151.3 754.0,145.1 754.5,139.9 755.0,138.6 755.6,135.6 756.1,139.0 756.7,146.8 757.2,158.7 757.8,154.2 758.3,162.4 758.9,161.2 759.4,165.7 760.0,171.0 760.5,170.1 761.1,171.4 761.6,173.1 762.1,171.7 762.7,161.0 763.2,170.3 763.8,166.7 764.3,163.1 764.9,158.9 765.4,161.8 766.0,166.8 766.5,167.7 767.1,170.1 767.6,164.1 768.2,161.2 768.7,162.9 769.2,160.1 769.8,161.8 770.3,168.0 770.9,172.5 771.4,172.4 772.0,169.3 772.5,163.7 773.1,170.3 773.6,165.5 774.2,155.8 774.7,155.1 775.3,155.0 775.8,156.3 776.3,159.6 776.9,158.4 777.4,165.5 778.0,170.2 778.5,158.8 779.1,159.1 779.6,171.0 780.2,166.8 780.7,169.3 781.3,167.1 781.8,177.2 782.3,170.3 782.9,180.8 783.4,180.4 784.0,181.7 784.5,189.3 785.1,191.9 785.6,198.0 786.2,195.3 786.7,196.6 787.3,204.5 787.8,209.2 788.4,221.4 788.9,225.9 789.4,229.0 790.0,234.5 790.5,317.5 791.1,281.3 791.6,284.8 792.2,292.3 792.7,285.3 793.3,288.0 793.8,287.5 794.4,293.0 794.9,280.6 795.5,281.5 796.0,287.0"/>
<text x="78" y="392" font-size="11" fill="#16a34a">Total return -57.1%</text><text x="268" y="392" font-size="11" fill="#2563eb">Price-only -57.1%</text><text x="78" y="362" font-size="11" text-anchor="middle" fill="#64748b">2021-04</text><text x="258" y="362" font-size="11" text-anchor="middle" fill="#64748b">2022-08</text><text x="437" y="362" font-size="11" text-anchor="middle" fill="#64748b">2023-11</text><text x="617" y="362" font-size="11" text-anchor="middle" fill="#64748b">2025-03</text><text x="796" y="362" font-size="11" text-anchor="middle" fill="#64748b">2026-07</text></svg>