<svg xmlns="http://www.w3.org/2000/svg" width="720" height="360" viewBox="0 0 720 360">
  <rect width="720" height="360" fill="#fafafa"/>
  <text x="56" y="22" font-size="13" font-family="sans-serif" fill="#222">FRMI total return (rebased 100) · cumulative distributions $0.00/sh · market cap n/a</text>
  <line x1="56" y1="308" x2="696" y2="308" stroke="#ccc"/>
  <line x1="56" y1="48" x2="56" y2="308" stroke="#ccc"/>
  <polyline fill="none" stroke="#2563eb" stroke-width="2" points="56.0,65.9 59.6,96.2 63.2,97.7 66.8,115.9 70.5,101.2 74.1,111.9 77.7,112.5 81.3,93.8 84.9,86.3 88.5,89.7 92.2,98.5 95.8,89.1 99.4,110.6 103.0,123.6 106.6,153.4 110.2,168.1 113.9,168.5 117.5,138.6 121.1,136.3 124.7,87.5 128.3,96.8 131.9,107.5 135.5,117.0 139.2,103.0 142.8,113.7 146.4,115.1 150.0,121.6 153.6,132.0 157.2,124.3 160.9,151.8 164.5,153.0 168.1,187.4 171.7,181.0 175.3,180.5 178.9,180.5 182.6,192.2 186.2,204.3 189.8,213.0 193.4,212.0 197.0,214.9 200.6,201.1 204.2,195.6 207.9,195.9 211.5,205.8 215.1,210.4 218.7,200.3 222.3,206.3 225.9,202.1 229.6,198.2 233.2,204.6 236.8,205.6 240.4,247.3 244.0,259.4 247.6,250.1 251.3,255.6 254.9,262.4 258.5,260.6 262.1,257.1 265.7,262.2 269.3,264.9 272.9,267.3 276.6,268.1 280.2,263.5 283.8,264.2 287.4,257.6 291.0,258.7 294.6,252.1 298.3,259.8 301.9,257.5 305.5,254.7 309.1,245.0 312.7,245.5 316.3,250.4 320.0,250.5 323.6,247.0 327.2,254.3 330.8,255.8 334.4,254.5 338.0,249.7 341.6,254.4 345.3,251.4 348.9,248.4 352.5,250.5 356.1,258.4 359.7,262.3 363.3,260.0 367.0,262.7 370.6,270.7 374.2,264.2 377.8,258.6 381.4,252.9 385.0,251.9 388.7,254.0 392.3,245.7 395.9,251.2 399.5,253.2 403.1,251.6 406.7,255.2 410.4,256.3 414.0,247.6 417.6,233.6 421.2,241.2 424.8,248.3 428.4,246.3 432.0,253.9 435.7,255.8 439.3,259.5 442.9,264.1 446.5,264.4 450.1,263.8 453.7,258.7 457.4,263.4 461.0,264.5 464.6,263.5 468.2,265.3 471.8,268.6 475.4,265.3 479.1,270.7 482.7,270.4 486.3,268.6 489.9,275.0 493.5,279.7 497.1,278.9 500.7,285.5 504.4,281.7 508.0,285.5 511.6,285.6 515.2,287.4 518.8,288.9 522.4,290.1 526.1,289.9 529.7,289.5 533.3,287.5 536.9,286.2 540.5,281.7 544.1,275.0 547.8,275.9 551.4,285.2 555.0,288.0 558.6,281.5 562.2,281.0 565.8,285.2 569.4,284.7 573.1,286.1 576.7,288.2 580.3,287.4 583.9,287.1 587.5,287.9 591.1,288.9 594.8,283.9 598.4,287.5 602.0,286.6 605.6,285.5 609.2,284.7 612.8,280.4 616.5,269.3 620.1,276.2 623.7,275.9 627.3,281.4 630.9,279.7 634.5,279.9 638.1,280.5 641.8,276.9 645.4,275.7 649.0,274.1 652.6,272.4 656.2,275.5 659.8,275.5 663.5,279.6 667.1,278.9 670.7,282.1 674.3,282.8 677.9,283.4 681.5,273.2 685.2,272.7 688.8,271.2 692.4,268.4 696.0,265.2"/>
  <polyline fill="none" stroke="#16a34a" stroke-width="2" points="56.0,65.9 59.6,96.2 63.2,97.7 66.8,115.9 70.5,101.2 74.1,111.9 77.7,112.5 81.3,93.8 84.9,86.3 88.5,89.7 92.2,98.5 95.8,89.1 99.4,110.6 103.0,123.6 106.6,153.4 110.2,168.1 113.9,168.5 117.5,138.6 121.1,136.3 124.7,87.5 128.3,96.8 131.9,107.5 135.5,117.0 139.2,103.0 142.8,113.7 146.4,115.1 150.0,121.6 153.6,132.0 157.2,124.3 160.9,151.8 164.5,153.0 168.1,187.4 171.7,181.0 175.3,180.5 178.9,180.5 182.6,192.2 186.2,204.3 189.8,213.0 193.4,212.0 197.0,214.9 200.6,201.1 204.2,195.6 207.9,195.9 211.5,205.8 215.1,210.4 218.7,200.3 222.3,206.3 225.9,202.1 229.6,198.2 233.2,204.6 236.8,205.6 240.4,247.3 244.0,259.4 247.6,250.1 251.3,255.6 254.9,262.4 258.5,260.6 262.1,257.1 265.7,262.2 269.3,264.9 272.9,267.3 276.6,268.1 280.2,263.5 283.8,264.2 287.4,257.6 291.0,258.7 294.6,252.1 298.3,259.8 301.9,257.5 305.5,254.7 309.1,245.0 312.7,245.5 316.3,250.4 320.0,250.5 323.6,247.0 327.2,254.3 330.8,255.8 334.4,254.5 338.0,249.7 341.6,254.4 345.3,251.4 348.9,248.4 352.5,250.5 356.1,258.4 359.7,262.3 363.3,260.0 367.0,262.7 370.6,270.7 374.2,264.2 377.8,258.6 381.4,252.9 385.0,251.9 388.7,254.0 392.3,245.7 395.9,251.2 399.5,253.2 403.1,251.6 406.7,255.2 410.4,256.3 414.0,247.6 417.6,233.6 421.2,241.2 424.8,248.3 428.4,246.3 432.0,253.9 435.7,255.8 439.3,259.5 442.9,264.1 446.5,264.4 450.1,263.8 453.7,258.7 457.4,263.4 461.0,264.5 464.6,263.5 468.2,265.3 471.8,268.6 475.4,265.3 479.1,270.7 482.7,270.4 486.3,268.6 489.9,275.0 493.5,279.7 497.1,278.9 500.7,285.5 504.4,281.7 508.0,285.5 511.6,285.6 515.2,287.4 518.8,288.9 522.4,290.1 526.1,289.9 529.7,289.5 533.3,287.5 536.9,286.2 540.5,281.7 544.1,275.0 547.8,275.9 551.4,285.2 555.0,288.0 558.6,281.5 562.2,281.0 565.8,285.2 569.4,284.7 573.1,286.1 576.7,288.2 580.3,287.4 583.9,287.1 587.5,287.9 591.1,288.9 594.8,283.9 598.4,287.5 602.0,286.6 605.6,285.5 609.2,284.7 612.8,280.4 616.5,269.3 620.1,276.2 623.7,275.9 627.3,281.4 630.9,279.7 634.5,279.9 638.1,280.5 641.8,276.9 645.4,275.7 649.0,274.1 652.6,272.4 656.2,275.5 659.8,275.5 663.5,279.6 667.1,278.9 670.7,282.1 674.3,282.8 677.9,283.4 681.5,273.2 685.2,272.7 688.8,271.2 692.4,268.4 696.0,265.2"/>
  <text x="60" y="62" font-size="11" fill="#2563eb">Price index</text>
  <text x="146" y="62" font-size="11" fill="#16a34a">Total return (price + distributions)</text>
  <text x="56" y="348" font-size="11" text-anchor="middle" fill="#444">2025-10</text><text x="215" y="348" font-size="11" text-anchor="middle" fill="#444">2025-12</text><text x="378" y="348" font-size="11" text-anchor="middle" fill="#444">2026-02</text><text x="537" y="348" font-size="11" text-anchor="middle" fill="#444">2026-04</text><text x="696" y="348" font-size="11" text-anchor="middle" fill="#444">2026-06</text>
</svg>
