<svg xmlns="http://www.w3.org/2000/svg" width="720" height="360" viewBox="0 0 720 360">
  <rect width="720" height="360" fill="#fafafa"/>
  <text x="56" y="22" font-size="13" font-family="sans-serif" fill="#222">XTIA total return (rebased 100) · cumulative distributions $0.00/sh · market cap n/a</text>
  <line x1="56" y1="308" x2="696" y2="308" stroke="#ccc"/>
  <line x1="56" y1="48" x2="56" y2="308" stroke="#ccc"/>
  <polyline fill="none" stroke="#2563eb" stroke-width="2" points="56.0,275.6 56.2,275.6 56.4,284.9 56.5,284.9 56.7,274.6 56.9,274.6 57.1,274.6 57.3,284.9 57.5,284.9 57.6,272.5 57.8,272.5 58.0,272.5 58.2,272.5 58.4,272.5 58.6,272.5 58.7,272.5 58.9,272.5 59.1,272.5 59.3,272.5 59.5,272.5 59.7,272.5 59.8,272.5 60.0,272.5 60.2,272.5 60.4,272.5 60.6,272.5 60.8,272.5 60.9,272.5 61.1,272.5 61.3,272.5 61.5,272.5 61.7,272.5 61.9,272.5 62.0,272.5 62.2,272.5 62.4,272.5 62.6,272.5 62.8,272.5 63.0,272.5 63.1,272.5 63.3,272.5 63.5,272.5 63.7,255.2 63.9,255.2 64.1,255.2 64.2,255.2 64.4,255.2 64.6,272.5 64.8,272.5 65.0,272.5 65.2,272.5 65.3,272.5 65.5,272.5 65.7,272.5 65.9,272.5 66.1,272.5 66.2,272.5 66.4,272.5 66.6,272.5 66.8,272.5 67.0,272.5 67.2,272.5 67.3,272.5 67.5,283.2 67.7,283.2 67.9,283.2 68.1,283.2 68.3,283.2 68.4,283.2 68.6,281.6 68.8,281.6 69.0,281.6 69.2,281.6 69.4,281.6 69.5,281.6 69.7,281.6 69.9,281.4 70.1,281.4 70.3,281.4 70.5,281.4 70.6,281.4 70.8,281.4 71.0,281.4 71.2,281.4 71.4,284.6 71.6,284.6 71.7,284.6 71.9,284.6 72.1,284.6 72.3,284.6 72.5,284.6 72.7,284.6 72.8,284.6 73.0,285.2 73.2,285.2 73.4,283.2 73.6,283.2 73.8,283.2 73.9,283.2 74.1,283.2 74.3,283.2 74.5,283.2 74.7,283.2 74.9,283.2 75.0,283.2 75.2,283.2 75.4,283.2 75.6,284.2 75.8,284.2 75.9,284.2 76.1,284.2 76.3,284.2 76.5,284.2 76.7,284.2 76.9,284.2 77.0,284.2 77.2,284.2 77.4,284.2 77.6,284.2 77.8,284.2 78.0,284.2 78.1,284.2 78.3,284.2 78.5,284.2 78.7,284.2 78.9,284.2 79.1,284.2 79.2,284.2 79.4,284.2 79.6,271.1 79.8,271.1 80.0,271.1 80.2,271.1 80.3,271.1 80.5,271.1 80.7,271.1 80.9,271.4 81.1,271.4 81.3,271.4 81.4,271.4 81.6,271.4 81.8,262.5 82.0,265.9 82.2,265.9 82.4,265.9 82.5,262.5 82.7,272.8 82.9,265.9 83.1,265.9 83.3,265.9 83.5,272.8 83.6,271.1 83.8,271.1 84.0,274.6 84.2,274.6 84.4,276.3 84.6,271.1 84.7,267.7 84.9,267.7 85.1,269.4 85.3,269.4 85.5,269.4 85.6,269.4 85.8,272.5 86.0,272.5 86.2,272.5 86.4,272.5 86.6,268.3 86.7,268.3 86.9,268.3 87.1,268.3 87.3,264.2 87.5,264.2 87.7,264.2 87.8,264.2 88.0,264.2 88.2,264.2 88.4,264.2 88.6,264.2 88.8,272.5 88.9,271.1 89.1,272.5 89.3,272.8 89.5,272.8 89.7,272.8 89.9,272.5 90.0,264.2 90.2,264.2 90.4,264.2 90.6,272.8 90.8,272.8 91.0,267.7 91.1,267.7 91.3,267.7 91.5,267.7 91.7,267.7 91.9,267.7 92.1,267.7 92.2,267.7 92.4,267.7 92.6,267.7 92.8,267.7 93.0,267.7 93.2,267.7 93.3,264.2 93.5,264.2 93.7,264.2 93.9,264.2 94.1,266.3 94.2,266.3 94.4,266.3 94.6,266.3 94.8,266.3 95.0,266.3 95.2,266.6 95.3,267.0 95.5,267.0 95.7,267.0 95.9,267.0 96.1,267.0 96.3,267.0 96.4,267.0 96.6,267.0 96.8,260.8 97.0,265.9 97.2,265.9 97.4,267.7 97.5,265.9 97.7,265.9 97.9,265.9 98.1,265.9 98.3,265.9 98.5,265.9 98.6,265.9 98.8,265.9 99.0,267.7 99.2,267.7 99.4,267.7 99.6,267.7 99.7,267.7 99.9,267.7 100.1,260.8 100.3,252.1 100.5,250.4 100.7,240.1 100.8,240.1 101.0,243.5 101.2,241.8 101.4,241.8 101.6,241.8 101.8,241.8 101.9,241.8 102.1,233.2 102.3,234.2 102.5,238.3 102.7,238.3 102.9,241.8 103.0,243.5 103.2,240.1 103.4,240.1 103.6,240.1 103.8,241.8 103.9,241.8 104.1,248.7 104.3,245.2 104.5,248.7 104.7,248.7 104.9,248.7 105.0,248.7 105.2,245.2 105.4,245.2 105.6,245.2 105.8,245.2 106.0,245.2 106.1,245.2 106.3,245.2 106.5,245.2 106.7,248.7 106.9,236.6 107.1,236.6 107.2,236.6 107.4,236.6 107.6,236.6 107.8,236.6 108.0,238.0 108.2,238.0 108.3,231.4 108.5,232.1 108.7,233.2 108.9,233.2 109.1,238.3 109.3,233.2 109.4,233.2 109.6,233.2 109.8,233.2 110.0,233.2 110.2,239.0 110.4,241.8 110.5,247.0 110.7,247.0 110.9,243.9 111.1,240.8 111.3,240.1 111.5,238.7 111.6,234.9 111.8,234.9 112.0,234.9 112.2,224.6 112.4,224.6 112.6,224.6 112.7,224.6 112.9,224.6 113.1,234.9 113.3,234.9 113.5,243.5 113.6,241.8 113.8,228.7 114.0,228.7 114.2,234.9 114.4,238.3 114.6,238.3 114.7,238.3 114.9,238.3 115.1,240.1 115.3,245.9 115.5,218.3 115.7,203.9 115.8,203.9 116.0,203.9 116.2,203.9 116.4,203.9 116.6,190.1 116.8,186.6 116.9,172.8 117.1,172.8 117.3,171.1 117.5,178.0 117.7,178.0 117.9,190.1 118.0,187.0 118.2,203.9 118.4,203.9 118.6,195.2 118.8,221.1 119.0,221.1 119.1,226.3 119.3,221.1 119.5,221.1 119.7,224.6 119.9,221.1 120.1,214.9 120.2,210.1 120.4,207.3 120.6,207.3 120.8,199.0 121.0,197.7 121.2,193.5 121.3,193.5 121.5,186.6 121.7,186.6 121.9,190.1 122.1,191.8 122.3,201.8 122.4,186.6 122.6,184.2 122.8,185.2 123.0,183.5 123.2,203.2 123.3,185.2 123.5,203.5 123.7,208.3 123.9,212.5 124.1,184.9 124.3,184.9 124.4,191.8 124.6,203.9 124.8,190.1 125.0,190.1 125.2,203.9 125.4,193.2 125.5,202.1 125.7,202.1 125.9,191.8 126.1,179.7 126.3,179.7 126.5,197.7 126.6,193.5 126.8,193.5 127.0,190.1 127.2,190.1 127.4,190.1 127.6,190.1 127.7,184.9 127.9,179.7 128.1,179.7 128.3,171.1 128.5,169.4 128.7,155.6 128.8,157.3 129.0,129.0 129.2,78.0 129.4,97.0 129.6,83.2 129.8,65.9 129.9,83.2 130.1,65.9 130.3,69.7 130.5,83.2 130.7,79.7 130.9,65.9 131.0,88.3 131.2,86.6 131.4,93.5 131.6,86.6 131.8,83.2 132.0,100.4 132.1,100.4 132.3,91.8 132.5,91.8 132.7,134.9 132.9,159.0 133.0,159.0 133.2,188.7 133.4,188.3 133.6,194.0 133.8,194.4 134.0,195.8 134.1,192.7 134.3,197.8 134.5,199.6 134.7,201.3 134.9,195.8 135.1,196.4 135.2,199.6 135.4,198.7 135.6,198.5 135.8,198.7 136.0,196.3 136.2,199.6 136.3,201.6 136.5,200.6 136.7,206.4 136.9,222.8 137.1,220.2 137.3,208.2 137.4,209.0 137.6,209.9 137.8,215.4 138.0,214.4 138.2,215.2 138.4,213.1 138.5,215.9 138.7,218.3 138.9,221.1 139.1,225.2 139.3,228.0 139.5,228.0 139.6,228.2 139.8,229.2 140.0,213.2 140.2,214.7 140.4,207.1 140.6,201.3 140.7,199.9 140.9,198.7 141.1,192.0 141.3,191.3 141.5,190.6 141.7,191.1 141.8,192.0 142.0,199.2 142.2,225.2 142.4,220.2 142.6,219.9 142.7,220.6 142.9,221.6 143.1,224.2 143.3,223.2 143.5,224.6 143.7,224.4 143.8,224.7 144.0,224.9 144.2,227.1 144.4,226.6 144.6,226.3 144.8,228.0 144.9,226.6 145.1,224.0 145.3,222.7 145.5,221.6 145.7,223.7 145.9,223.7 146.0,223.2 146.2,223.7 146.4,221.4 146.6,220.6 146.8,223.2 147.0,222.8 147.1,221.6 147.3,224.2 147.5,224.6 147.7,222.1 147.9,222.7 148.1,225.1 148.2,226.3 148.4,223.9 148.6,222.0 148.8,221.3 149.0,223.0 149.2,219.6 149.3,221.8 149.5,220.1 149.7,219.4 149.9,223.3 150.1,226.3 150.3,226.1 150.4,227.5 150.6,227.1 150.8,227.1 151.0,226.4 151.2,225.9 151.4,232.0 151.5,230.9 151.7,236.3 151.9,236.4 152.1,236.2 152.3,238.9 152.4,239.2 152.6,240.2 152.8,240.1 153.0,241.6 153.2,236.6 153.4,229.2 153.5,224.0 153.7,218.2 153.9,218.3 154.1,218.0 154.3,220.2 154.5,222.7 154.6,221.1 154.8,222.8 155.0,219.6 155.2,221.1 155.4,221.3 155.6,221.6 155.7,230.8 155.9,232.0 156.1,232.8 156.3,235.8 156.5,236.6 156.7,236.4 156.8,236.3 157.0,234.9 157.2,238.3 157.4,235.4 157.6,238.2 157.8,238.3 157.9,240.6 158.1,238.9 158.3,243.5 158.5,244.9 158.7,249.6 158.9,247.1 159.0,249.7 159.2,250.4 159.4,254.7 159.6,253.7 159.8,253.0 160.0,249.9 160.1,247.7 160.3,247.0 160.5,247.8 160.7,250.1 160.9,250.4 161.1,265.4 161.2,267.5 161.4,267.7 161.6,268.2 161.8,268.5 162.0,268.5 162.1,268.2 162.3,269.0 162.5,268.7 162.7,268.7 162.9,269.2 163.1,269.0 163.2,269.2 163.4,270.1 163.6,269.0 163.8,269.4 164.0,270.1 164.2,272.3 164.3,271.1 164.5,271.1 164.7,271.8 164.9,272.5 165.1,271.6 165.3,271.4 165.4,272.0 165.6,272.0 165.8,272.3 166.0,270.4 166.2,267.1 166.4,253.5 166.5,253.5 166.7,254.9 166.9,254.9 167.1,258.3 167.3,255.9 167.5,255.2 167.6,253.2 167.8,254.4 168.0,254.7 168.2,255.2 168.4,258.0 168.6,259.0 168.7,258.3 168.9,258.3 169.1,257.8 169.3,257.8 169.5,260.6 169.7,265.6 169.8,262.5 170.0,263.9 170.2,265.6 170.4,264.2 170.6,264.4 170.7,264.9 170.9,265.9 171.1,267.3 171.3,268.3 171.5,267.1 171.7,263.2 171.8,263.2 172.0,263.2 172.2,264.2 172.4,264.9 172.6,266.4 172.8,263.3 172.9,263.9 173.1,262.8 173.3,262.5 173.5,261.8 173.7,264.2 173.9,266.6 174.0,265.8 174.2,266.3 174.4,266.6 174.6,266.1 174.8,266.1 175.0,267.7 175.1,267.0 175.3,268.0 175.5,268.5 175.7,269.4 175.9,269.4 176.1,269.6 176.2,265.8 176.4,269.4 176.6,268.9 176.8,268.3 177.0,269.4 177.2,269.7 177.3,270.4 177.5,270.8 177.7,270.4 177.9,270.9 178.1,270.2 178.3,269.4 178.4,269.2 178.6,258.2 178.8,261.8 179.0,263.3 179.2,263.9 179.4,249.2 179.5,250.4 179.7,250.6 179.9,250.4 180.1,250.1 180.3,250.6 180.4,253.2 180.6,254.0 180.8,249.7 181.0,251.3 181.2,251.8 181.4,252.1 181.5,254.0 181.7,249.7 181.9,251.6 182.1,252.7 182.3,254.9 182.5,253.3 182.6,252.7 182.8,258.0 183.0,257.7 183.2,257.1 183.4,255.1 183.6,254.7 183.7,257.6 183.9,256.8 184.1,256.6 184.3,258.4 184.5,257.3 184.7,256.1 184.8,257.5 185.0,257.8 185.2,258.7 185.4,259.9 185.6,258.7 185.8,258.2 185.9,259.7 186.1,260.1 186.3,260.1 186.5,259.7 186.7,259.7 186.9,257.5 187.0,258.7 187.2,259.7 187.4,259.4 187.6,258.7 187.8,260.1 188.0,259.6 188.1,260.2 188.3,260.2 188.5,260.6 188.7,261.3 188.9,261.6 189.1,260.8 189.2,263.2 189.4,263.3 189.6,263.3 189.8,263.2 190.0,262.1 190.1,262.0 190.3,263.2 190.5,262.1 190.7,261.6 190.9,258.5 191.1,257.8 191.2,256.3 191.4,255.8 191.6,257.7 191.8,258.0 192.0,258.0 192.2,257.5 192.3,258.9 192.5,259.0 192.7,260.4 192.9,260.8 193.1,261.1 193.3,260.1 193.4,260.4 193.6,261.4 193.8,259.9 194.0,259.9 194.2,262.1 194.4,260.8 194.5,261.6 194.7,263.5 194.9,265.1 195.1,262.8 195.3,265.2 195.5,264.7 195.6,263.7 195.8,265.6 196.0,266.4 196.2,267.0 196.4,269.7 196.6,265.9 196.7,264.5 196.9,263.5 197.1,263.3 197.3,262.2 197.5,263.7 197.7,263.9 197.8,263.3 198.0,263.9 198.2,264.0 198.4,262.8 198.6,262.8 198.8,262.3 198.9,262.5 199.1,261.3 199.3,260.8 199.5,257.7 199.7,260.4 199.8,261.6 200.0,262.0 200.2,260.4 200.4,262.5 200.6,271.4 200.8,272.3 200.9,272.8 201.1,272.7 201.3,272.8 201.5,272.8 201.7,272.8 201.9,271.8 202.0,272.3 202.2,271.6 202.4,272.3 202.6,272.0 202.8,272.3 203.0,272.8 203.1,272.5 203.3,272.3 203.5,273.1 203.7,273.5 203.9,274.0 204.1,274.0 204.2,274.0 204.4,274.0 204.6,274.4 204.8,274.1 205.0,274.0 205.2,274.6 205.3,274.0 205.5,273.9 205.7,273.7 205.9,275.6 206.1,275.9 206.3,276.3 206.4,277.8 206.6,278.0 206.8,278.9 207.0,278.1 207.2,278.5 207.4,278.3 207.5,279.0 207.7,279.3 207.9,279.9 208.1,279.6 208.3,279.7 208.5,279.7 208.6,277.2 208.8,275.3 209.0,276.1 209.2,277.1 209.4,277.1 209.5,278.0 209.7,279.0 209.9,278.7 210.1,279.5 210.3,279.0 210.5,279.6 210.6,279.0 210.8,279.7 211.0,279.7 211.2,279.9 211.4,279.7 211.6,280.1 211.7,280.6 211.9,280.1 212.1,280.2 212.3,280.1 212.5,279.9 212.7,280.3 212.8,280.2 213.0,279.9 213.2,279.6 213.4,279.2 213.6,279.0 213.8,279.3 213.9,278.8 214.1,279.2 214.3,279.6 214.5,279.7 214.7,279.7 214.9,280.4 215.0,281.0 215.2,280.9 215.4,280.6 215.6,280.5 215.8,281.0 216.0,280.9 216.1,281.0 216.3,281.1 216.5,281.1 216.7,281.1 216.9,280.6 217.1,280.6 217.2,281.1 217.4,281.1 217.6,281.1 217.8,281.1 218.0,280.9 218.2,281.3 218.3,281.3 218.5,280.9 218.7,281.2 218.9,281.1 219.1,280.8 219.2,280.8 219.4,281.1 219.6,281.1 219.8,280.6 220.0,280.6 220.2,280.6 220.3,280.6 220.5,279.7 220.7,279.7 220.9,279.6 221.1,279.7 221.3,279.4 221.4,279.0 221.6,279.8 221.8,279.9 222.0,279.4 222.2,279.9 222.4,280.1 222.5,280.4 222.7,280.4 222.9,280.2 223.1,279.7 223.3,279.7 223.5,279.4 223.6,279.7 223.8,279.0 224.0,279.7 224.2,279.6 224.4,279.4 224.6,279.6 224.7,279.8 224.9,279.7 225.1,279.7 225.3,279.8 225.5,279.8 225.7,280.1 225.8,279.9 226.0,280.4 226.2,280.6 226.4,280.8 226.6,280.9 226.8,280.9 226.9,281.1 227.1,281.0 227.3,281.4 227.5,281.4 227.7,281.3 227.9,281.3 228.0,281.5 228.2,282.7 228.4,283.0 228.6,283.3 228.8,283.6 228.9,283.3 229.1,283.2 229.3,283.3 229.5,283.3 229.7,283.7 229.9,284.4 230.0,284.7 230.2,283.3 230.4,281.9 230.6,282.9 230.8,282.5 231.0,282.8 231.1,283.0 231.3,282.7 231.5,282.8 231.7,282.1 231.9,282.0 232.1,282.2 232.2,282.4 232.4,281.4 232.6,280.8 232.8,281.2 233.0,280.9 233.2,281.1 233.3,281.8 233.5,281.4 233.7,280.9 233.9,280.6 234.1,280.4 234.3,280.2 234.4,280.6 234.6,280.9 234.8,281.3 235.0,281.2 235.2,281.6 235.4,281.3 235.5,280.9 235.7,281.0 235.9,280.8 236.1,282.3 236.3,281.4 236.5,281.6 236.6,281.3 236.8,281.1 237.0,281.1 237.2,281.7 237.4,281.1 237.5,281.7 237.7,281.6 237.9,281.3 238.1,282.0 238.3,281.9 238.5,282.1 238.6,281.6 238.8,282.0 239.0,282.1 239.2,282.0 239.4,282.1 239.6,281.8 239.7,281.6 239.9,282.1 240.1,282.1 240.3,281.5 240.5,281.6 240.7,281.6 240.8,281.4 241.0,281.3 241.2,282.1 241.4,282.5 241.6,282.7 241.8,283.0 241.9,282.7 242.1,282.8 242.3,282.5 242.5,282.3 242.7,282.1 242.9,282.1 243.0,282.3 243.2,282.2 243.4,282.7 243.6,282.8 243.8,282.3 244.0,283.2 244.1,283.5 244.3,283.4 244.5,283.3 244.7,283.7 244.9,283.3 245.1,283.9 245.2,283.9 245.4,283.8 245.6,283.9 245.8,283.9 246.0,283.7 246.2,283.9 246.3,283.8 246.5,283.3 246.7,283.5 246.9,283.6 247.1,283.9 247.2,283.7 247.4,283.9 247.6,284.0 247.8,284.4 248.0,284.8 248.2,284.4 248.3,284.8 248.5,284.8 248.7,284.6 248.9,284.6 249.1,284.8 249.3,285.3 249.4,285.3 249.6,285.8 249.8,286.6 250.0,286.6 250.2,286.4 250.4,286.3 250.5,286.4 250.7,286.8 250.9,286.7 251.1,286.8 251.3,287.0 251.5,287.0 251.6,286.8 251.8,287.1 252.0,287.1 252.2,286.8 252.4,287.1 252.6,286.4 252.7,286.9 252.9,287.2 253.1,287.0 253.3,287.1 253.5,287.2 253.7,287.0 253.8,286.9 254.0,286.7 254.2,286.9 254.4,286.8 254.6,287.0 254.8,284.7 254.9,284.9 255.1,285.8 255.3,285.7 255.5,285.1 255.7,285.6 255.9,286.3 256.0,286.4 256.2,285.1 256.4,282.7 256.6,285.2 256.8,285.6 256.9,285.9 257.1,286.0 257.3,286.1 257.5,286.2 257.7,286.4 257.9,285.1 258.0,285.5 258.2,286.1 258.4,285.4 258.6,285.5 258.8,285.3 259.0,285.9 259.1,285.9 259.3,285.9 259.5,285.8 259.7,285.9 259.9,285.8 260.1,285.8 260.2,285.3 260.4,285.1 260.6,285.4 260.8,285.4 261.0,285.7 261.2,285.2 261.3,285.4 261.5,285.6 261.7,285.6 261.9,285.3 262.1,285.3 262.3,285.6 262.4,285.3 262.6,285.6 262.8,285.5 263.0,285.6 263.2,285.6 263.4,285.6 263.5,285.7 263.7,285.7 263.9,285.8 264.1,285.8 264.3,286.1 264.5,285.8 264.6,285.8 264.8,286.0 265.0,286.1 265.2,286.3 265.4,286.4 265.6,286.3 265.7,286.2 265.9,286.1 266.1,286.0 266.3,285.6 266.5,285.9 266.6,286.0 266.8,286.4 267.0,286.6 267.2,285.9 267.4,285.9 267.6,286.2 267.7,286.1 267.9,286.3 268.1,286.3 268.3,286.6 268.5,286.7 268.7,286.7 268.8,287.0 269.0,287.0 269.2,287.1 269.4,286.7 269.6,286.1 269.8,286.4 269.9,286.3 270.1,286.4 270.3,286.5 270.5,286.5 270.7,286.5 270.9,286.6 271.0,286.7 271.2,286.8 271.4,286.8 271.6,286.9 271.8,286.9 272.0,286.8 272.1,286.3 272.3,286.6 272.5,286.6 272.7,286.6 272.9,286.8 273.1,286.9 273.2,287.2 273.4,287.2 273.6,287.2 273.8,287.4 274.0,287.5 274.2,287.8 274.3,287.7 274.5,287.9 274.7,288.0 274.9,285.0 275.1,286.7 275.3,286.3 275.4,286.4 275.6,287.2 275.8,287.3 276.0,287.6 276.2,287.6 276.3,287.5 276.5,287.6 276.7,287.6 276.9,287.7 277.1,287.9 277.3,287.7 277.4,287.7 277.6,287.8 277.8,287.8 278.0,287.9 278.2,287.9 278.4,287.9 278.5,288.0 278.7,288.1 278.9,288.3 279.1,288.4 279.3,288.4 279.5,288.3 279.6,288.2 279.8,288.2 280.0,288.3 280.2,288.4 280.4,288.5 280.6,288.5 280.7,288.4 280.9,288.4 281.1,288.5 281.3,288.5 281.5,288.5 281.7,289.3 281.8,289.3 282.0,289.3 282.2,289.4 282.4,289.4 282.6,289.3 282.8,289.3 282.9,289.3 283.1,289.2 283.3,289.1 283.5,289.2 283.7,289.0 283.9,289.1 284.0,289.2 284.2,289.2 284.4,289.3 284.6,289.3 284.8,289.4 285.0,289.3 285.1,289.3 285.3,289.4 285.5,289.4 285.7,289.4 285.9,289.4 286.0,289.5 286.2,289.5 286.4,289.4 286.6,289.5 286.8,289.6 287.0,289.7 287.1,289.7 287.3,289.7 287.5,289.8 287.7,289.7 287.9,289.7 288.1,289.7 288.2,289.7 288.4,289.7 288.6,289.8 288.8,289.8 289.0,289.8 289.2,289.8 289.3,289.8 289.5,289.8 289.7,289.8 289.9,289.8 290.1,289.8 290.3,289.8 290.4,289.8 290.6,289.8 290.8,289.8 291.0,289.8 291.2,289.8 291.4,289.8 291.5,289.8 291.7,289.8 291.9,289.8 292.1,289.8 292.3,289.8 292.5,289.8 292.6,289.6 292.8,289.5 293.0,289.6 293.2,289.7 293.4,289.7 293.6,289.7 293.7,289.7 293.9,289.5 294.1,289.6 294.3,289.6 294.5,289.6 294.7,289.7 294.8,289.6 295.0,289.6 295.2,289.6 295.4,289.6 295.6,289.6 295.7,289.6 295.9,289.5 296.1,289.5 296.3,289.5 296.5,289.6 296.7,289.5 296.8,289.6 297.0,289.6 297.2,289.6 297.4,289.6 297.6,289.6 297.8,289.6 297.9,289.6 298.1,289.6 298.3,289.7 298.5,289.7 298.7,289.6 298.9,289.7 299.0,289.7 299.2,289.6 299.4,289.6 299.6,289.6 299.8,289.6 300.0,289.6 300.1,289.7 300.3,289.7 300.5,289.7 300.7,289.6 300.9,289.6 301.1,289.6 301.2,289.6 301.4,289.7 301.6,289.7 301.8,289.7 302.0,289.7 302.2,289.7 302.3,289.7 302.5,289.6 302.7,289.7 302.9,289.7 303.1,289.7 303.3,289.8 303.4,289.8 303.6,289.8 303.8,289.8 304.0,289.8 304.2,289.8 304.4,289.8 304.5,289.8 304.7,289.8 304.9,289.8 305.1,289.8 305.3,289.8 305.4,289.8 305.6,289.8 305.8,289.8 306.0,289.7 306.2,289.7 306.4,289.8 306.5,289.7 306.7,289.5 306.9,289.6 307.1,289.6 307.3,289.6 307.5,289.6 307.6,289.7 307.8,289.7 308.0,289.7 308.2,289.7 308.4,289.7 308.6,289.7 308.7,289.7 308.9,289.7 309.1,289.7 309.3,289.8 309.5,289.9 309.7,289.9 309.8,290.0 310.0,289.9 310.2,289.9 310.4,289.9 310.6,289.9 310.8,290.0 310.9,290.0 311.1,290.0 311.3,290.0 311.5,290.0 311.7,290.0 311.9,290.0 312.0,290.0 312.2,290.0 312.4,290.0 312.6,290.0 312.8,290.0 313.0,290.0 313.1,290.0 313.3,290.0 313.5,290.0 313.7,290.0 313.9,290.0 314.0,290.0 314.2,290.0 314.4,290.0 314.6,290.0 314.8,290.0 315.0,290.0 315.1,290.0 315.3,290.0 315.5,290.0 315.7,290.0 315.9,290.0 316.1,290.0 316.2,290.0 316.4,290.0 316.6,290.0 316.8,290.0 317.0,290.0 317.2,290.0 317.3,290.0 317.5,290.0 317.7,290.0 317.9,290.0 318.1,290.0 318.3,290.0 318.4,290.0 318.6,290.0 318.8,290.1 319.0,290.1 319.2,290.1 319.4,290.1 319.5,290.1 319.7,290.1 319.9,290.1 320.1,290.1 320.3,290.1 320.5,290.1 320.6,290.1 320.8,290.1 321.0,290.1 321.2,290.1 321.4,290.1 321.6,290.1 321.7,290.1 321.9,290.1 322.1,290.1 322.3,290.1 322.5,290.1 322.7,290.1 322.8,290.1 323.0,290.1 323.2,290.1 323.4,290.1 323.6,290.1 323.7,290.1 323.9,290.1 324.1,290.1 324.3,290.1 324.5,290.1 324.7,290.1 324.8,290.1 325.0,290.1 325.2,290.1 325.4,290.1 325.6,290.1 325.8,290.1 325.9,290.1 326.1,290.1 326.3,290.1 326.5,290.1 326.7,290.1 326.9,290.1 327.0,290.1 327.2,290.1 327.4,290.1 327.6,290.1 327.8,290.1 328.0,290.1 328.1,290.1 328.3,290.1 328.5,290.1 328.7,290.1 328.9,290.1 329.1,290.1 329.2,290.1 329.4,290.1 329.6,290.1 329.8,290.1 330.0,290.1 330.2,290.1 330.3,290.1 330.5,290.1 330.7,290.1 330.9,290.1 331.1,290.1 331.3,290.1 331.4,290.1 331.6,290.1 331.8,290.1 332.0,290.1 332.2,290.1 332.4,290.1 332.5,290.1 332.7,290.1 332.9,290.1 333.1,290.1 333.3,290.1 333.4,290.1 333.6,290.1 333.8,290.1 334.0,290.1 334.2,290.1 334.4,290.1 334.5,290.1 334.7,290.1 334.9,290.1 335.1,290.1 335.3,290.1 335.5,290.1 335.6,290.1 335.8,290.1 336.0,290.1 336.2,290.1 336.4,290.1 336.6,290.1 336.7,290.1 336.9,290.1 337.1,290.1 337.3,290.1 337.5,290.1 337.7,290.1 337.8,290.1 338.0,290.1 338.2,290.1 338.4,290.1 338.6,290.1 338.8,290.1 338.9,290.1 339.1,290.1 339.3,290.1 339.5,290.1 339.7,290.1 339.9,290.1 340.0,290.1 340.2,290.1 340.4,290.1 340.6,290.1 340.8,290.1 341.0,290.1 341.1,290.1 341.3,290.1 341.5,290.1 341.7,290.1 341.9,290.1 342.1,290.1 342.2,290.1 342.4,290.1 342.6,290.1 342.8,290.1 343.0,290.1 343.1,290.1 343.3,290.1 343.5,290.1 343.7,290.1 343.9,290.1 344.1,290.1 344.2,290.1 344.4,290.1 344.6,290.1 344.8,290.1 345.0,290.1 345.2,290.1 345.3,290.1 345.5,290.1 345.7,290.1 345.9,290.1 346.1,290.1 346.3,290.1 346.4,290.1 346.6,290.1 346.8,290.1 347.0,290.1 347.2,290.1 347.4,290.1 347.5,290.1 347.7,290.1 347.9,290.1 348.1,290.1 348.3,290.1 348.5,290.1 348.6,290.1 348.8,290.1 349.0,290.1 349.2,290.1 349.4,290.1 349.6,290.1 349.7,290.1 349.9,290.1 350.1,290.1 350.3,290.1 350.5,290.1 350.7,290.1 350.8,290.1 351.0,290.1 351.2,290.1 351.4,290.1 351.6,290.1 351.8,290.1 351.9,290.1 352.1,290.1 352.3,290.1 352.5,290.1 352.7,290.1 352.8,290.1 353.0,290.1 353.2,290.1 353.4,290.1 353.6,290.1 353.8,290.1 353.9,290.1 354.1,290.1 354.3,290.1 354.5,290.1 354.7,290.1 354.9,290.1 355.0,290.1 355.2,290.1 355.4,290.1 355.6,290.1 355.8,290.1 356.0,290.1 356.1,290.1 356.3,290.1 356.5,290.1 356.7,290.1 356.9,290.1 357.1,290.1 357.2,290.1 357.4,290.1 357.6,290.1 357.8,290.1 358.0,290.1 358.2,290.1 358.3,290.1 358.5,290.1 358.7,290.1 358.9,290.1 359.1,290.1 359.3,290.1 359.4,290.1 359.6,290.1 359.8,290.1 360.0,290.1 360.2,290.1 360.4,290.1 360.5,290.1 360.7,290.1 360.9,290.1 361.1,290.1 361.3,290.1 361.5,290.1 361.6,290.1 361.8,290.1 362.0,290.1 362.2,290.1 362.4,290.1 362.5,290.1 362.7,290.1 362.9,290.1 363.1,290.1 363.3,290.1 363.5,290.1 363.6,290.1 363.8,290.1 364.0,290.1 364.2,290.1 364.4,290.1 364.6,290.1 364.7,290.1 364.9,290.1 365.1,290.1 365.3,290.1 365.5,290.1 365.7,290.1 365.8,290.1 366.0,290.1 366.2,290.1 366.4,290.1 366.6,290.1 366.8,290.1 366.9,290.1 367.1,290.1 367.3,290.1 367.5,290.1 367.7,290.1 367.9,290.1 368.0,290.1 368.2,290.1 368.4,290.1 368.6,290.1 368.8,290.1 369.0,290.1 369.1,290.1 369.3,290.1 369.5,290.1 369.7,290.1 369.9,290.1 370.1,290.1 370.2,290.1 370.4,290.1 370.6,290.1 370.8,290.1 371.0,290.1 371.2,290.1 371.3,290.1 371.5,290.1 371.7,290.1 371.9,290.1 372.1,290.1 372.2,290.1 372.4,290.1 372.6,290.1 372.8,290.1 373.0,290.1 373.2,290.1 373.3,290.1 373.5,290.1 373.7,290.1 373.9,290.1 374.1,290.1 374.3,290.1 374.4,290.1 374.6,290.1 374.8,290.1 375.0,290.1 375.2,290.1 375.4,290.1 375.5,290.1 375.7,290.1 375.9,290.1 376.1,290.1 376.3,290.1 376.5,290.1 376.6,290.1 376.8,290.1 377.0,290.1 377.2,290.1 377.4,290.1 377.6,290.1 377.7,290.1 377.9,290.1 378.1,290.1 378.3,290.1 378.5,290.1 378.7,290.1 378.8,290.1 379.0,290.1 379.2,290.1 379.4,290.1 379.6,290.1 379.8,290.1 379.9,290.1 380.1,290.1 380.3,290.1 380.5,290.1 380.7,290.1 380.8,290.1 381.0,290.1 381.2,290.1 381.4,290.1 381.6,290.1 381.8,290.1 381.9,290.1 382.1,290.1 382.3,290.1 382.5,290.1 382.7,290.1 382.9,290.1 383.0,290.1 383.2,290.1 383.4,290.1 383.6,290.1 383.8,290.1 384.0,290.1 384.1,290.1 384.3,290.1 384.5,290.1 384.7,290.1 384.9,290.1 385.1,290.1 385.2,290.1 385.4,290.1 385.6,290.1 385.8,290.1 386.0,290.1 386.2,290.1 386.3,290.1 386.5,290.1 386.7,290.1 386.9,290.1 387.1,290.1 387.3,290.1 387.4,290.1 387.6,290.1 387.8,290.1 388.0,290.1 388.2,290.1 388.4,290.1 388.5,290.1 388.7,290.1 388.9,290.1 389.1,290.1 389.3,290.1 389.5,290.1 389.6,290.1 389.8,290.1 390.0,290.1 390.2,290.1 390.4,290.1 390.5,290.1 390.7,290.1 390.9,290.1 391.1,290.1 391.3,290.1 391.5,290.1 391.6,290.1 391.8,290.1 392.0,290.1 392.2,290.1 392.4,290.1 392.6,290.1 392.7,290.1 392.9,290.1 393.1,290.1 393.3,290.1 393.5,290.1 393.7,290.1 393.8,290.1 394.0,290.1 394.2,290.1 394.4,290.1 394.6,290.1 394.8,290.1 394.9,290.1 395.1,290.1 395.3,290.1 395.5,290.1 395.7,290.1 395.9,290.1 396.0,290.1 396.2,290.1 396.4,290.1 396.6,290.1 396.8,290.1 397.0,290.1 397.1,290.1 397.3,290.1 397.5,290.1 397.7,290.1 397.9,290.1 398.1,290.1 398.2,290.1 398.4,290.1 398.6,290.1 398.8,290.1 399.0,290.1 399.2,290.1 399.3,290.1 399.5,290.1 399.7,290.1 399.9,290.1 400.1,290.1 400.2,290.1 400.4,290.1 400.6,290.1 400.8,290.1 401.0,290.1 401.2,290.1 401.3,290.1 401.5,290.1 401.7,290.1 401.9,290.1 402.1,290.1 402.3,290.1 402.4,290.1 402.6,290.1 402.8,290.1 403.0,290.1 403.2,290.1 403.4,290.1 403.5,290.1 403.7,290.1 403.9,290.1 404.1,290.1 404.3,290.1 404.5,290.1 404.6,290.1 404.8,290.1 405.0,290.1 405.2,290.1 405.4,290.1 405.6,290.1 405.7,290.1 405.9,290.1 406.1,290.1 406.3,290.1 406.5,290.1 406.7,290.1 406.8,290.1 407.0,290.1 407.2,290.1 407.4,290.1 407.6,290.1 407.8,290.1 407.9,290.1 408.1,290.1 408.3,290.1 408.5,290.1 408.7,290.1 408.9,290.1 409.0,290.1 409.2,290.1 409.4,290.1 409.6,290.1 409.8,290.1 409.9,290.1 410.1,290.1 410.3,290.1 410.5,290.1 410.7,290.1 410.9,290.1 411.0,290.1 411.2,290.1 411.4,290.1 411.6,290.1 411.8,290.1 412.0,290.1 412.1,290.1 412.3,290.1 412.5,290.1 412.7,290.1 412.9,290.1 413.1,290.1 413.2,290.1 413.4,290.1 413.6,290.1 413.8,290.1 414.0,290.1 414.2,290.1 414.3,290.1 414.5,290.1 414.7,290.1 414.9,290.1 415.1,290.1 415.3,290.1 415.4,290.1 415.6,290.1 415.8,290.1 416.0,290.1 416.2,290.1 416.4,290.1 416.5,290.1 416.7,290.1 416.9,290.1 417.1,290.1 417.3,290.1 417.5,290.1 417.6,290.1 417.8,290.1 418.0,290.1 418.2,290.1 418.4,290.1 418.6,290.1 418.7,290.1 418.9,290.1 419.1,290.1 419.3,290.1 419.5,290.1 419.6,290.1 419.8,290.1 420.0,290.1 420.2,290.1 420.4,290.1 420.6,290.1 420.7,290.1 420.9,290.1 421.1,290.1 421.3,290.1 421.5,290.1 421.7,290.1 421.8,290.1 422.0,290.1 422.2,290.1 422.4,290.1 422.6,290.1 422.8,290.1 422.9,290.1 423.1,290.1 423.3,290.1 423.5,290.1 423.7,290.1 423.9,290.1 424.0,290.1 424.2,290.1 424.4,290.1 424.6,290.1 424.8,290.1 425.0,290.1 425.1,290.1 425.3,290.1 425.5,290.1 425.7,290.1 425.9,290.1 426.1,290.1 426.2,290.1 426.4,290.1 426.6,290.1 426.8,290.1 427.0,290.1 427.2,290.1 427.3,290.1 427.5,290.1 427.7,290.1 427.9,290.1 428.1,290.1 428.3,290.1 428.4,290.1 428.6,290.1 428.8,290.1 429.0,290.1 429.2,290.1 429.3,290.1 429.5,290.1 429.7,290.1 429.9,290.1 430.1,290.1 430.3,290.1 430.4,290.1 430.6,290.1 430.8,290.1 431.0,290.1 431.2,290.1 431.4,290.1 431.5,290.1 431.7,290.1 431.9,290.1 432.1,290.1 432.3,290.1 432.5,290.1 432.6,290.1 432.8,290.1 433.0,290.1 433.2,290.1 433.4,290.1 433.6,290.1 433.7,290.1 433.9,290.1 434.1,290.1 434.3,290.1 434.5,290.1 434.7,290.1 434.8,290.1 435.0,290.1 435.2,290.1 435.4,290.1 435.6,290.1 435.8,290.1 435.9,290.1 436.1,290.1 436.3,290.1 436.5,290.1 436.7,290.1 436.9,290.1 437.0,290.1 437.2,290.1 437.4,290.1 437.6,290.1 437.8,290.1 438.0,290.1 438.1,290.1 438.3,290.1 438.5,290.1 438.7,290.1 438.9,290.1 439.0,290.1 439.2,290.1 439.4,290.1 439.6,290.1 439.8,290.1 440.0,290.1 440.1,290.1 440.3,290.1 440.5,290.1 440.7,290.1 440.9,290.1 441.1,290.1 441.2,290.1 441.4,290.1 441.6,290.1 441.8,290.1 442.0,290.1 442.2,290.1 442.3,290.1 442.5,290.1 442.7,290.1 442.9,290.1 443.1,290.1 443.3,290.1 443.4,290.1 443.6,290.1 443.8,290.1 444.0,290.1 444.2,290.1 444.4,290.1 444.5,290.1 444.7,290.1 444.9,290.1 445.1,290.1 445.3,290.1 445.5,290.1 445.6,290.1 445.8,290.1 446.0,290.1 446.2,290.1 446.4,290.1 446.6,290.1 446.7,290.1 446.9,290.1 447.1,290.1 447.3,290.1 447.5,290.1 447.6,290.1 447.8,290.1 448.0,290.1 448.2,290.1 448.4,290.1 448.6,290.1 448.7,290.1 448.9,290.1 449.1,290.1 449.3,290.1 449.5,290.1 449.7,290.1 449.8,290.1 450.0,290.1 450.2,290.1 450.4,290.1 450.6,290.1 450.8,290.1 450.9,290.1 451.1,290.1 451.3,290.1 451.5,290.1 451.7,290.1 451.9,290.1 452.0,290.1 452.2,290.1 452.4,290.1 452.6,290.1 452.8,290.1 453.0,290.1 453.1,290.1 453.3,290.1 453.5,290.1 453.7,290.1 453.9,290.1 454.1,290.1 454.2,290.1 454.4,290.1 454.6,290.1 454.8,290.1 455.0,290.1 455.2,290.1 455.3,290.1 455.5,290.1 455.7,290.1 455.9,290.1 456.1,290.1 456.3,290.1 456.4,290.1 456.6,290.1 456.8,290.1 457.0,290.1 457.2,290.1 457.3,290.1 457.5,290.1 457.7,290.1 457.9,290.1 458.1,290.1 458.3,290.1 458.4,290.1 458.6,290.1 458.8,290.1 459.0,290.1 459.2,290.1 459.4,290.1 459.5,290.1 459.7,290.1 459.9,290.1 460.1,290.1 460.3,290.1 460.5,290.1 460.6,290.1 460.8,290.1 461.0,290.1 461.2,290.1 461.4,290.1 461.6,290.1 461.7,290.1 461.9,290.1 462.1,290.1 462.3,290.1 462.5,290.1 462.7,290.1 462.8,290.1 463.0,290.1 463.2,290.1 463.4,290.1 463.6,290.1 463.8,290.1 463.9,290.1 464.1,290.1 464.3,290.1 464.5,290.1 464.7,290.1 464.9,290.1 465.0,290.1 465.2,290.1 465.4,290.1 465.6,290.1 465.8,290.1 466.0,290.1 466.1,290.1 466.3,290.1 466.5,290.1 466.7,290.1 466.9,290.1 467.0,290.1 467.2,290.1 467.4,290.1 467.6,290.1 467.8,290.1 468.0,290.1 468.1,290.1 468.3,290.1 468.5,290.1 468.7,290.1 468.9,290.1 469.1,290.1 469.2,290.1 469.4,290.1 469.6,290.1 469.8,290.1 470.0,290.1 470.2,290.1 470.3,290.1 470.5,290.1 470.7,290.1 470.9,290.1 471.1,290.1 471.3,290.1 471.4,290.1 471.6,290.1 471.8,290.1 472.0,290.1 472.2,290.1 472.4,290.1 472.5,290.1 472.7,290.1 472.9,290.1 473.1,290.1 473.3,290.1 473.5,290.1 473.6,290.1 473.8,290.1 474.0,290.1 474.2,290.1 474.4,290.1 474.6,290.1 474.7,290.1 474.9,290.1 475.1,290.1 475.3,290.1 475.5,290.1 475.7,290.1 475.8,290.1 476.0,290.1 476.2,290.1 476.4,290.1 476.6,290.1 476.7,290.1 476.9,290.1 477.1,290.1 477.3,290.1 477.5,290.1 477.7,290.1 477.8,290.1 478.0,290.1 478.2,290.1 478.4,290.1 478.6,290.1 478.8,290.1 478.9,290.1 479.1,290.1 479.3,290.1 479.5,290.1 479.7,290.1 479.9,290.1 480.0,290.1 480.2,290.1 480.4,290.1 480.6,290.1 480.8,290.1 481.0,290.1 481.1,290.1 481.3,290.1 481.5,290.1 481.7,290.1 481.9,290.1 482.1,290.1 482.2,290.1 482.4,290.1 482.6,290.1 482.8,290.1 483.0,290.1 483.2,290.1 483.3,290.1 483.5,290.1 483.7,290.1 483.9,290.1 484.1,290.1 484.3,290.1 484.4,290.1 484.6,290.1 484.8,290.1 485.0,290.1 485.2,290.1 485.4,290.1 485.5,290.1 485.7,290.1 485.9,290.1 486.1,290.1 486.3,290.1 486.4,290.1 486.6,290.1 486.8,290.1 487.0,290.1 487.2,290.1 487.4,290.1 487.5,290.1 487.7,290.1 487.9,290.1 488.1,290.1 488.3,290.1 488.5,290.1 488.6,290.1 488.8,290.1 489.0,290.1 489.2,290.1 489.4,290.1 489.6,290.1 489.7,290.1 489.9,290.1 490.1,290.1 490.3,290.1 490.5,290.1 490.7,290.1 490.8,290.1 491.0,290.1 491.2,290.1 491.4,290.1 491.6,290.1 491.8,290.1 491.9,290.1 492.1,290.1 492.3,290.1 492.5,290.1 492.7,290.1 492.9,290.1 493.0,290.1 493.2,290.1 493.4,290.1 493.6,290.1 493.8,290.1 494.0,290.1 494.1,290.1 494.3,290.1 494.5,290.1 494.7,290.1 494.9,290.1 495.1,290.1 495.2,290.1 495.4,290.1 495.6,290.1 495.8,290.1 496.0,290.1 496.1,290.1 496.3,290.1 496.5,290.1 496.7,290.1 496.9,290.1 497.1,290.1 497.2,290.1 497.4,290.1 497.6,290.1 497.8,290.1 498.0,290.1 498.2,290.1 498.3,290.1 498.5,290.1 498.7,290.1 498.9,290.1 499.1,290.1 499.3,290.1 499.4,290.1 499.6,290.1 499.8,290.1 500.0,290.1 500.2,290.1 500.4,290.1 500.5,290.1 500.7,290.1 500.9,290.1 501.1,290.1 501.3,290.1 501.5,290.1 501.6,290.1 501.8,290.1 502.0,290.1 502.2,290.1 502.4,290.1 502.6,290.1 502.7,290.1 502.9,290.1 503.1,290.1 503.3,290.1 503.5,290.1 503.7,290.1 503.8,290.1 504.0,290.1 504.2,290.1 504.4,290.1 504.6,290.1 504.8,290.1 504.9,290.1 505.1,290.1 505.3,290.1 505.5,290.1 505.7,290.1 505.8,290.1 506.0,290.1 506.2,290.1 506.4,290.1 506.6,290.1 506.8,290.1 506.9,290.1 507.1,290.1 507.3,290.1 507.5,290.1 507.7,290.1 507.9,290.1 508.0,290.1 508.2,290.1 508.4,290.1 508.6,290.1 508.8,290.1 509.0,290.1 509.1,290.1 509.3,290.1 509.5,290.1 509.7,290.1 509.9,290.1 510.1,290.1 510.2,290.1 510.4,290.1 510.6,290.1 510.8,290.1 511.0,290.1 511.2,290.1 511.3,290.1 511.5,290.1 511.7,290.1 511.9,290.1 512.1,290.1 512.3,290.1 512.4,290.1 512.6,290.1 512.8,290.1 513.0,290.1 513.2,290.1 513.4,290.1 513.5,290.1 513.7,290.1 513.9,290.1 514.1,290.1 514.3,290.1 514.5,290.1 514.6,290.1 514.8,290.1 515.0,290.1 515.2,290.1 515.4,290.1 515.5,290.1 515.7,290.1 515.9,290.1 516.1,290.1 516.3,290.1 516.5,290.1 516.6,290.1 516.8,290.1 517.0,290.1 517.2,290.1 517.4,290.1 517.6,290.1 517.7,290.1 517.9,290.1 518.1,290.1 518.3,290.1 518.5,290.1 518.7,290.1 518.8,290.1 519.0,290.1 519.2,290.1 519.4,290.1 519.6,290.1 519.8,290.1 519.9,290.1 520.1,290.1 520.3,290.1 520.5,290.1 520.7,290.1 520.9,290.1 521.0,290.1 521.2,290.1 521.4,290.1 521.6,290.1 521.8,290.1 522.0,290.1 522.1,290.1 522.3,290.1 522.5,290.1 522.7,290.1 522.9,290.1 523.1,290.1 523.2,290.1 523.4,290.1 523.6,290.1 523.8,290.1 524.0,290.1 524.1,290.1 524.3,290.1 524.5,290.1 524.7,290.1 524.9,290.1 525.1,290.1 525.2,290.1 525.4,290.1 525.6,290.1 525.8,290.1 526.0,290.1 526.2,290.1 526.3,290.1 526.5,290.1 526.7,290.1 526.9,290.1 527.1,290.1 527.3,290.1 527.4,290.1 527.6,290.1 527.8,290.1 528.0,290.1 528.2,290.1 528.4,290.1 528.5,290.1 528.7,290.1 528.9,290.1 529.1,290.1 529.3,290.1 529.5,290.1 529.6,290.1 529.8,290.1 530.0,290.1 530.2,290.1 530.4,290.1 530.6,290.1 530.7,290.1 530.9,290.1 531.1,290.1 531.3,290.1 531.5,290.1 531.7,290.1 531.8,290.1 532.0,290.1 532.2,290.1 532.4,290.1 532.6,290.1 532.8,290.1 532.9,290.1 533.1,290.1 533.3,290.1 533.5,290.1 533.7,290.1 533.8,290.1 534.0,290.1 534.2,290.1 534.4,290.1 534.6,290.1 534.8,290.1 534.9,290.1 535.1,290.1 535.3,290.1 535.5,290.1 535.7,290.1 535.9,290.1 536.0,290.1 536.2,290.1 536.4,290.1 536.6,290.1 536.8,290.1 537.0,290.1 537.1,290.1 537.3,290.1 537.5,290.1 537.7,290.1 537.9,290.1 538.1,290.1 538.2,290.1 538.4,290.1 538.6,290.1 538.8,290.1 539.0,290.1 539.2,290.1 539.3,290.1 539.5,290.1 539.7,290.1 539.9,290.1 540.1,290.1 540.3,290.1 540.4,290.1 540.6,290.1 540.8,290.1 541.0,290.1 541.2,290.1 541.4,290.1 541.5,290.1 541.7,290.1 541.9,290.1 542.1,290.1 542.3,290.1 542.5,290.1 542.6,290.1 542.8,290.1 543.0,290.1 543.2,290.1 543.4,290.1 543.5,290.1 543.7,290.1 543.9,290.1 544.1,290.1 544.3,290.1 544.5,290.1 544.6,290.1 544.8,290.1 545.0,290.1 545.2,290.1 545.4,290.1 545.6,290.1 545.7,290.1 545.9,290.1 546.1,290.1 546.3,290.1 546.5,290.1 546.7,290.1 546.8,290.1 547.0,290.1 547.2,290.1 547.4,290.1 547.6,290.1 547.8,290.1 547.9,290.1 548.1,290.1 548.3,290.1 548.5,290.1 548.7,290.1 548.9,290.1 549.0,290.1 549.2,290.1 549.4,290.1 549.6,290.1 549.8,290.1 550.0,290.1 550.1,290.1 550.3,290.1 550.5,290.1 550.7,290.1 550.9,290.1 551.1,290.1 551.2,290.1 551.4,290.1 551.6,290.1 551.8,290.1 552.0,290.1 552.2,290.1 552.3,290.1 552.5,290.1 552.7,290.1 552.9,290.1 553.1,290.1 553.2,290.1 553.4,290.1 553.6,290.1 553.8,290.1 554.0,290.1 554.2,290.1 554.3,290.1 554.5,290.1 554.7,290.1 554.9,290.1 555.1,290.1 555.3,290.1 555.4,290.1 555.6,290.1 555.8,290.1 556.0,290.1 556.2,290.1 556.4,290.1 556.5,290.1 556.7,290.1 556.9,290.1 557.1,290.1 557.3,290.1 557.5,290.1 557.6,290.1 557.8,290.1 558.0,290.1 558.2,290.1 558.4,290.1 558.6,290.1 558.7,290.1 558.9,290.1 559.1,290.1 559.3,290.1 559.5,290.1 559.7,290.1 559.8,290.1 560.0,290.1 560.2,290.1 560.4,290.1 560.6,290.1 560.8,290.1 560.9,290.1 561.1,290.1 561.3,290.1 561.5,290.1 561.7,290.1 561.9,290.1 562.0,290.1 562.2,290.1 562.4,290.1 562.6,290.1 562.8,290.1 562.9,290.1 563.1,290.1 563.3,290.1 563.5,290.1 563.7,290.1 563.9,290.1 564.0,290.1 564.2,290.1 564.4,290.1 564.6,290.1 564.8,290.1 565.0,290.1 565.1,290.1 565.3,290.1 565.5,290.1 565.7,290.1 565.9,290.1 566.1,290.1 566.2,290.1 566.4,290.1 566.6,290.1 566.8,290.1 567.0,290.1 567.2,290.1 567.3,290.1 567.5,290.1 567.7,290.1 567.9,290.1 568.1,290.1 568.3,290.1 568.4,290.1 568.6,290.1 568.8,290.1 569.0,290.1 569.2,290.1 569.4,290.1 569.5,290.1 569.7,290.1 569.9,290.1 570.1,290.1 570.3,290.1 570.5,290.1 570.6,290.1 570.8,290.1 571.0,290.1 571.2,290.1 571.4,290.1 571.6,290.1 571.7,290.1 571.9,290.1 572.1,290.1 572.3,290.1 572.5,290.1 572.6,290.1 572.8,290.1 573.0,290.1 573.2,290.1 573.4,290.1 573.6,290.1 573.7,290.1 573.9,290.1 574.1,290.1 574.3,290.1 574.5,290.1 574.7,290.1 574.8,290.1 575.0,290.1 575.2,290.1 575.4,290.1 575.6,290.1 575.8,290.1 575.9,290.1 576.1,290.1 576.3,290.1 576.5,290.1 576.7,290.1 576.9,290.1 577.0,290.1 577.2,290.1 577.4,290.1 577.6,290.1 577.8,290.1 578.0,290.1 578.1,290.1 578.3,290.1 578.5,290.1 578.7,290.1 578.9,290.1 579.1,290.1 579.2,290.1 579.4,290.1 579.6,290.1 579.8,290.1 580.0,290.1 580.2,290.1 580.3,290.1 580.5,290.1 580.7,290.1 580.9,290.1 581.1,290.1 581.3,290.1 581.4,290.1 581.6,290.1 581.8,290.1 582.0,290.1 582.2,290.1 582.3,290.1 582.5,290.1 582.7,290.1 582.9,290.1 583.1,290.1 583.3,290.1 583.4,290.1 583.6,290.1 583.8,290.1 584.0,290.1 584.2,290.1 584.4,290.1 584.5,290.1 584.7,290.1 584.9,290.1 585.1,290.1 585.3,290.1 585.5,290.1 585.6,290.1 585.8,290.1 586.0,290.1 586.2,290.1 586.4,290.1 586.6,290.1 586.7,290.1 586.9,290.1 587.1,290.1 587.3,290.1 587.5,290.1 587.7,290.1 587.8,290.1 588.0,290.1 588.2,290.1 588.4,290.1 588.6,290.1 588.8,290.1 588.9,290.1 589.1,290.1 589.3,290.1 589.5,290.1 589.7,290.1 589.9,290.1 590.0,290.1 590.2,290.1 590.4,290.1 590.6,290.1 590.8,290.1 590.9,290.1 591.1,290.1 591.3,290.1 591.5,290.1 591.7,290.1 591.9,290.1 592.0,290.1 592.2,290.1 592.4,290.1 592.6,290.1 592.8,290.1 593.0,290.1 593.1,290.1 593.3,290.1 593.5,290.1 593.7,290.1 593.9,290.1 594.1,290.1 594.2,290.1 594.4,290.1 594.6,290.1 594.8,290.1 595.0,290.1 595.2,290.1 595.3,290.1 595.5,290.1 595.7,290.1 595.9,290.1 596.1,290.1 596.3,290.1 596.4,290.1 596.6,290.1 596.8,290.1 597.0,290.1 597.2,290.1 597.4,290.1 597.5,290.1 597.7,290.1 597.9,290.1 598.1,290.1 598.3,290.1 598.5,290.1 598.6,290.1 598.8,290.1 599.0,290.1 599.2,290.1 599.4,290.1 599.6,290.1 599.7,290.1 599.9,290.1 600.1,290.1 600.3,290.1 600.5,290.1 600.6,290.1 600.8,290.1 601.0,290.1 601.2,290.1 601.4,290.1 601.6,290.1 601.7,290.1 601.9,290.1 602.1,290.1 602.3,290.1 602.5,290.1 602.7,290.1 602.8,290.1 603.0,290.1 603.2,290.1 603.4,290.1 603.6,290.1 603.8,290.1 603.9,290.1 604.1,290.1 604.3,290.1 604.5,290.1 604.7,290.1 604.9,290.1 605.0,290.1 605.2,290.1 605.4,290.1 605.6,290.1 605.8,290.1 606.0,290.1 606.1,290.1 606.3,290.1 606.5,290.1 606.7,290.1 606.9,290.1 607.1,290.1 607.2,290.1 607.4,290.1 607.6,290.1 607.8,290.1 608.0,290.1 608.2,290.1 608.3,290.1 608.5,290.1 608.7,290.1 608.9,290.1 609.1,290.1 609.3,290.1 609.4,290.1 609.6,290.1 609.8,290.1 610.0,290.1 610.2,290.1 610.3,290.1 610.5,290.1 610.7,290.1 610.9,290.1 611.1,290.1 611.3,290.1 611.4,290.1 611.6,290.1 611.8,290.1 612.0,290.1 612.2,290.1 612.4,290.1 612.5,290.1 612.7,290.1 612.9,290.1 613.1,290.1 613.3,290.1 613.5,290.1 613.6,290.1 613.8,290.1 614.0,290.1 614.2,290.1 614.4,290.1 614.6,290.1 614.7,290.1 614.9,290.1 615.1,290.1 615.3,290.1 615.5,290.1 615.7,290.1 615.8,290.1 616.0,290.1 616.2,290.1 616.4,290.1 616.6,290.1 616.8,290.1 616.9,290.1 617.1,290.1 617.3,290.1 617.5,290.1 617.7,290.1 617.9,290.1 618.0,290.1 618.2,290.1 618.4,290.1 618.6,290.1 618.8,290.1 619.0,290.1 619.1,290.1 619.3,290.1 619.5,290.1 619.7,290.1 619.9,290.1 620.0,290.1 620.2,290.1 620.4,290.1 620.6,290.1 620.8,290.1 621.0,290.1 621.1,290.1 621.3,290.1 621.5,290.1 621.7,290.1 621.9,290.1 622.1,290.1 622.2,290.1 622.4,290.1 622.6,290.1 622.8,290.1 623.0,290.1 623.2,290.1 623.3,290.1 623.5,290.1 623.7,290.1 623.9,290.1 624.1,290.1 624.3,290.1 624.4,290.1 624.6,290.1 624.8,290.1 625.0,290.1 625.2,290.1 625.4,290.1 625.5,290.1 625.7,290.1 625.9,290.1 626.1,290.1 626.3,290.1 626.5,290.1 626.6,290.1 626.8,290.1 627.0,290.1 627.2,290.1 627.4,290.1 627.6,290.1 627.7,290.1 627.9,290.1 628.1,290.1 628.3,290.1 628.5,290.1 628.7,290.1 628.8,290.1 629.0,290.1 629.2,290.1 629.4,290.1 629.6,290.1 629.7,290.1 629.9,290.1 630.1,290.1 630.3,290.1 630.5,290.1 630.7,290.1 630.8,290.1 631.0,290.1 631.2,290.1 631.4,290.1 631.6,290.1 631.8,290.1 631.9,290.1 632.1,290.1 632.3,290.1 632.5,290.1 632.7,290.1 632.9,290.1 633.0,290.1 633.2,290.1 633.4,290.1 633.6,290.1 633.8,290.1 634.0,290.1 634.1,290.1 634.3,290.1 634.5,290.1 634.7,290.1 634.9,290.1 635.1,290.1 635.2,290.1 635.4,290.1 635.6,290.1 635.8,290.1 636.0,290.1 636.2,290.1 636.3,290.1 636.5,290.1 636.7,290.1 636.9,290.1 637.1,290.1 637.3,290.1 637.4,290.1 637.6,290.1 637.8,290.1 638.0,290.1 638.2,290.1 638.4,290.1 638.5,290.1 638.7,290.1 638.9,290.1 639.1,290.1 639.3,290.1 639.4,290.1 639.6,290.1 639.8,290.1 640.0,290.1 640.2,290.1 640.4,290.1 640.5,290.1 640.7,290.1 640.9,290.1 641.1,290.1 641.3,290.1 641.5,290.1 641.6,290.1 641.8,290.1 642.0,290.1 642.2,290.1 642.4,290.1 642.6,290.1 642.7,290.1 642.9,290.1 643.1,290.1 643.3,290.1 643.5,290.1 643.7,290.1 643.8,290.1 644.0,290.1 644.2,290.1 644.4,290.1 644.6,290.1 644.8,290.1 644.9,290.1 645.1,290.1 645.3,290.1 645.5,290.1 645.7,290.1 645.9,290.1 646.0,290.1 646.2,290.1 646.4,290.1 646.6,290.1 646.8,290.1 647.0,290.1 647.1,290.1 647.3,290.1 647.5,290.1 647.7,290.1 647.9,290.1 648.1,290.1 648.2,290.1 648.4,290.1 648.6,290.1 648.8,290.1 649.0,290.1 649.1,290.1 649.3,290.1 649.5,290.1 649.7,290.1 649.9,290.1 650.1,290.1 650.2,290.1 650.4,290.1 650.6,290.1 650.8,290.1 651.0,290.1 651.2,290.1 651.3,290.1 651.5,290.1 651.7,290.1 651.9,290.1 652.1,290.1 652.3,290.1 652.4,290.1 652.6,290.1 652.8,290.1 653.0,290.1 653.2,290.1 653.4,290.1 653.5,290.1 653.7,290.1 653.9,290.1 654.1,290.1 654.3,290.1 654.5,290.1 654.6,290.1 654.8,290.1 655.0,290.1 655.2,290.1 655.4,290.1 655.6,290.1 655.7,290.1 655.9,290.1 656.1,290.1 656.3,290.1 656.5,290.1 656.7,290.1 656.8,290.1 657.0,290.1 657.2,290.1 657.4,290.1 657.6,290.1 657.8,290.1 657.9,290.1 658.1,290.1 658.3,290.1 658.5,290.1 658.7,290.1 658.8,290.1 659.0,290.1 659.2,290.1 659.4,290.1 659.6,290.1 659.8,290.1 659.9,290.1 660.1,290.1 660.3,290.1 660.5,290.1 660.7,290.1 660.9,290.1 661.0,290.1 661.2,290.1 661.4,290.1 661.6,290.1 661.8,290.1 662.0,290.1 662.1,290.1 662.3,290.1 662.5,290.1 662.7,290.1 662.9,290.1 663.1,290.1 663.2,290.1 663.4,290.1 663.6,290.1 663.8,290.1 664.0,290.1 664.2,290.1 664.3,290.1 664.5,290.1 664.7,290.1 664.9,290.1 665.1,290.1 665.3,290.1 665.4,290.1 665.6,290.1 665.8,290.1 666.0,290.1 666.2,290.1 666.4,290.1 666.5,290.1 666.7,290.1 666.9,290.1 667.1,290.1 667.3,290.1 667.4,290.1 667.6,290.1 667.8,290.1 668.0,290.1 668.2,290.1 668.4,290.1 668.5,290.1 668.7,290.1 668.9,290.1 669.1,290.1 669.3,290.1 669.5,290.1 669.6,290.1 669.8,290.1 670.0,290.1 670.2,290.1 670.4,290.1 670.6,290.1 670.7,290.1 670.9,290.1 671.1,290.1 671.3,290.1 671.5,290.1 671.7,290.1 671.8,290.1 672.0,290.1 672.2,290.1 672.4,290.1 672.6,290.1 672.8,290.1 672.9,290.1 673.1,290.1 673.3,290.1 673.5,290.1 673.7,290.1 673.9,290.1 674.0,290.1 674.2,290.1 674.4,290.1 674.6,290.1 674.8,290.1 675.0,290.1 675.1,290.1 675.3,290.1 675.5,290.1 675.7,290.1 675.9,290.1 676.1,290.1 676.2,290.1 676.4,290.1 676.6,290.1 676.8,290.1 677.0,290.1 677.1,290.1 677.3,290.1 677.5,290.1 677.7,290.1 677.9,290.1 678.1,290.1 678.2,290.1 678.4,290.1 678.6,290.1 678.8,290.1 679.0,290.1 679.2,290.1 679.3,290.1 679.5,290.1 679.7,290.1 679.9,290.1 680.1,290.1 680.3,290.1 680.4,290.1 680.6,290.1 680.8,290.1 681.0,290.1 681.2,290.1 681.4,290.1 681.5,290.1 681.7,290.1 681.9,290.1 682.1,290.1 682.3,290.1 682.5,290.1 682.6,290.1 682.8,290.1 683.0,290.1 683.2,290.1 683.4,290.1 683.6,290.1 683.7,290.1 683.9,290.1 684.1,290.1 684.3,290.1 684.5,290.1 684.7,290.1 684.8,290.1 685.0,290.1 685.2,290.1 685.4,290.1 685.6,290.1 685.8,290.1 685.9,290.1 686.1,290.1 686.3,290.1 686.5,290.1 686.7,290.1 686.8,290.1 687.0,290.1 687.2,290.1 687.4,290.1 687.6,290.1 687.8,290.1 687.9,290.1 688.1,290.1 688.3,290.1 688.5,290.1 688.7,290.1 688.9,290.1 689.0,290.1 689.2,290.1 689.4,290.1 689.6,290.1 689.8,290.1 690.0,290.1 690.1,290.1 690.3,290.1 690.5,290.1 690.7,290.1 690.9,290.1 691.1,290.1 691.2,290.1 691.4,290.1 691.6,290.1 691.8,290.1 692.0,290.1 692.2,290.1 692.3,290.1 692.5,290.1 692.7,290.1 692.9,290.1 693.1,290.1 693.3,290.1 693.4,290.1 693.6,290.1 693.8,290.1 694.0,290.1 694.2,290.1 694.4,290.1 694.5,290.1 694.7,290.1 694.9,290.1 695.1,290.1 695.3,290.1 695.5,290.1 695.6,290.1 695.8,290.1 696.0,290.1"/>
  <polyline fill="none" stroke="#16a34a" stroke-width="2" points="56.0,275.6 56.2,275.6 56.4,284.9 56.5,284.9 56.7,274.6 56.9,274.6 57.1,274.6 57.3,284.9 57.5,284.9 57.6,272.5 57.8,272.5 58.0,272.5 58.2,272.5 58.4,272.5 58.6,272.5 58.7,272.5 58.9,272.5 59.1,272.5 59.3,272.5 59.5,272.5 59.7,272.5 59.8,272.5 60.0,272.5 60.2,272.5 60.4,272.5 60.6,272.5 60.8,272.5 60.9,272.5 61.1,272.5 61.3,272.5 61.5,272.5 61.7,272.5 61.9,272.5 62.0,272.5 62.2,272.5 62.4,272.5 62.6,272.5 62.8,272.5 63.0,272.5 63.1,272.5 63.3,272.5 63.5,272.5 63.7,255.2 63.9,255.2 64.1,255.2 64.2,255.2 64.4,255.2 64.6,272.5 64.8,272.5 65.0,272.5 65.2,272.5 65.3,272.5 65.5,272.5 65.7,272.5 65.9,272.5 66.1,272.5 66.2,272.5 66.4,272.5 66.6,272.5 66.8,272.5 67.0,272.5 67.2,272.5 67.3,272.5 67.5,283.2 67.7,283.2 67.9,283.2 68.1,283.2 68.3,283.2 68.4,283.2 68.6,281.6 68.8,281.6 69.0,281.6 69.2,281.6 69.4,281.6 69.5,281.6 69.7,281.6 69.9,281.4 70.1,281.4 70.3,281.4 70.5,281.4 70.6,281.4 70.8,281.4 71.0,281.4 71.2,281.4 71.4,284.6 71.6,284.6 71.7,284.6 71.9,284.6 72.1,284.6 72.3,284.6 72.5,284.6 72.7,284.6 72.8,284.6 73.0,285.2 73.2,285.2 73.4,283.2 73.6,283.2 73.8,283.2 73.9,283.2 74.1,283.2 74.3,283.2 74.5,283.2 74.7,283.2 74.9,283.2 75.0,283.2 75.2,283.2 75.4,283.2 75.6,284.2 75.8,284.2 75.9,284.2 76.1,284.2 76.3,284.2 76.5,284.2 76.7,284.2 76.9,284.2 77.0,284.2 77.2,284.2 77.4,284.2 77.6,284.2 77.8,284.2 78.0,284.2 78.1,284.2 78.3,284.2 78.5,284.2 78.7,284.2 78.9,284.2 79.1,284.2 79.2,284.2 79.4,284.2 79.6,271.1 79.8,271.1 80.0,271.1 80.2,271.1 80.3,271.1 80.5,271.1 80.7,271.1 80.9,271.4 81.1,271.4 81.3,271.4 81.4,271.4 81.6,271.4 81.8,262.5 82.0,265.9 82.2,265.9 82.4,265.9 82.5,262.5 82.7,272.8 82.9,265.9 83.1,265.9 83.3,265.9 83.5,272.8 83.6,271.1 83.8,271.1 84.0,274.6 84.2,274.6 84.4,276.3 84.6,271.1 84.7,267.7 84.9,267.7 85.1,269.4 85.3,269.4 85.5,269.4 85.6,269.4 85.8,272.5 86.0,272.5 86.2,272.5 86.4,272.5 86.6,268.3 86.7,268.3 86.9,268.3 87.1,268.3 87.3,264.2 87.5,264.2 87.7,264.2 87.8,264.2 88.0,264.2 88.2,264.2 88.4,264.2 88.6,264.2 88.8,272.5 88.9,271.1 89.1,272.5 89.3,272.8 89.5,272.8 89.7,272.8 89.9,272.5 90.0,264.2 90.2,264.2 90.4,264.2 90.6,272.8 90.8,272.8 91.0,267.7 91.1,267.7 91.3,267.7 91.5,267.7 91.7,267.7 91.9,267.7 92.1,267.7 92.2,267.7 92.4,267.7 92.6,267.7 92.8,267.7 93.0,267.7 93.2,267.7 93.3,264.2 93.5,264.2 93.7,264.2 93.9,264.2 94.1,266.3 94.2,266.3 94.4,266.3 94.6,266.3 94.8,266.3 95.0,266.3 95.2,266.6 95.3,267.0 95.5,267.0 95.7,267.0 95.9,267.0 96.1,267.0 96.3,267.0 96.4,267.0 96.6,267.0 96.8,260.8 97.0,265.9 97.2,265.9 97.4,267.7 97.5,265.9 97.7,265.9 97.9,265.9 98.1,265.9 98.3,265.9 98.5,265.9 98.6,265.9 98.8,265.9 99.0,267.7 99.2,267.7 99.4,267.7 99.6,267.7 99.7,267.7 99.9,267.7 100.1,260.8 100.3,252.1 100.5,250.4 100.7,240.1 100.8,240.1 101.0,243.5 101.2,241.8 101.4,241.8 101.6,241.8 101.8,241.8 101.9,241.8 102.1,233.2 102.3,234.2 102.5,238.3 102.7,238.3 102.9,241.8 103.0,243.5 103.2,240.1 103.4,240.1 103.6,240.1 103.8,241.8 103.9,241.8 104.1,248.7 104.3,245.2 104.5,248.7 104.7,248.7 104.9,248.7 105.0,248.7 105.2,245.2 105.4,245.2 105.6,245.2 105.8,245.2 106.0,245.2 106.1,245.2 106.3,245.2 106.5,245.2 106.7,248.7 106.9,236.6 107.1,236.6 107.2,236.6 107.4,236.6 107.6,236.6 107.8,236.6 108.0,238.0 108.2,238.0 108.3,231.4 108.5,232.1 108.7,233.2 108.9,233.2 109.1,238.3 109.3,233.2 109.4,233.2 109.6,233.2 109.8,233.2 110.0,233.2 110.2,239.0 110.4,241.8 110.5,247.0 110.7,247.0 110.9,243.9 111.1,240.8 111.3,240.1 111.5,238.7 111.6,234.9 111.8,234.9 112.0,234.9 112.2,224.6 112.4,224.6 112.6,224.6 112.7,224.6 112.9,224.6 113.1,234.9 113.3,234.9 113.5,243.5 113.6,241.8 113.8,228.7 114.0,228.7 114.2,234.9 114.4,238.3 114.6,238.3 114.7,238.3 114.9,238.3 115.1,240.1 115.3,245.9 115.5,218.3 115.7,203.9 115.8,203.9 116.0,203.9 116.2,203.9 116.4,203.9 116.6,190.1 116.8,186.6 116.9,172.8 117.1,172.8 117.3,171.1 117.5,178.0 117.7,178.0 117.9,190.1 118.0,187.0 118.2,203.9 118.4,203.9 118.6,195.2 118.8,221.1 119.0,221.1 119.1,226.3 119.3,221.1 119.5,221.1 119.7,224.6 119.9,221.1 120.1,214.9 120.2,210.1 120.4,207.3 120.6,207.3 120.8,199.0 121.0,197.7 121.2,193.5 121.3,193.5 121.5,186.6 121.7,186.6 121.9,190.1 122.1,191.8 122.3,201.8 122.4,186.6 122.6,184.2 122.8,185.2 123.0,183.5 123.2,203.2 123.3,185.2 123.5,203.5 123.7,208.3 123.9,212.5 124.1,184.9 124.3,184.9 124.4,191.8 124.6,203.9 124.8,190.1 125.0,190.1 125.2,203.9 125.4,193.2 125.5,202.1 125.7,202.1 125.9,191.8 126.1,179.7 126.3,179.7 126.5,197.7 126.6,193.5 126.8,193.5 127.0,190.1 127.2,190.1 127.4,190.1 127.6,190.1 127.7,184.9 127.9,179.7 128.1,179.7 128.3,171.1 128.5,169.4 128.7,155.6 128.8,157.3 129.0,129.0 129.2,78.0 129.4,97.0 129.6,83.2 129.8,65.9 129.9,83.2 130.1,65.9 130.3,69.7 130.5,83.2 130.7,79.7 130.9,65.9 131.0,88.3 131.2,86.6 131.4,93.5 131.6,86.6 131.8,83.2 132.0,100.4 132.1,100.4 132.3,91.8 132.5,91.8 132.7,134.9 132.9,159.0 133.0,159.0 133.2,188.7 133.4,188.3 133.6,194.0 133.8,194.4 134.0,195.8 134.1,192.7 134.3,197.8 134.5,199.6 134.7,201.3 134.9,195.8 135.1,196.4 135.2,199.6 135.4,198.7 135.6,198.5 135.8,198.7 136.0,196.3 136.2,199.6 136.3,201.6 136.5,200.6 136.7,206.4 136.9,222.8 137.1,220.2 137.3,208.2 137.4,209.0 137.6,209.9 137.8,215.4 138.0,214.4 138.2,215.2 138.4,213.1 138.5,215.9 138.7,218.3 138.9,221.1 139.1,225.2 139.3,228.0 139.5,228.0 139.6,228.2 139.8,229.2 140.0,213.2 140.2,214.7 140.4,207.1 140.6,201.3 140.7,199.9 140.9,198.7 141.1,192.0 141.3,191.3 141.5,190.6 141.7,191.1 141.8,192.0 142.0,199.2 142.2,225.2 142.4,220.2 142.6,219.9 142.7,220.6 142.9,221.6 143.1,224.2 143.3,223.2 143.5,224.6 143.7,224.4 143.8,224.7 144.0,224.9 144.2,227.1 144.4,226.6 144.6,226.3 144.8,228.0 144.9,226.6 145.1,224.0 145.3,222.7 145.5,221.6 145.7,223.7 145.9,223.7 146.0,223.2 146.2,223.7 146.4,221.4 146.6,220.6 146.8,223.2 147.0,222.8 147.1,221.6 147.3,224.2 147.5,224.6 147.7,222.1 147.9,222.7 148.1,225.1 148.2,226.3 148.4,223.9 148.6,222.0 148.8,221.3 149.0,223.0 149.2,219.6 149.3,221.8 149.5,220.1 149.7,219.4 149.9,223.3 150.1,226.3 150.3,226.1 150.4,227.5 150.6,227.1 150.8,227.1 151.0,226.4 151.2,225.9 151.4,232.0 151.5,230.9 151.7,236.3 151.9,236.4 152.1,236.2 152.3,238.9 152.4,239.2 152.6,240.2 152.8,240.1 153.0,241.6 153.2,236.6 153.4,229.2 153.5,224.0 153.7,218.2 153.9,218.3 154.1,218.0 154.3,220.2 154.5,222.7 154.6,221.1 154.8,222.8 155.0,219.6 155.2,221.1 155.4,221.3 155.6,221.6 155.7,230.8 155.9,232.0 156.1,232.8 156.3,235.8 156.5,236.6 156.7,236.4 156.8,236.3 157.0,234.9 157.2,238.3 157.4,235.4 157.6,238.2 157.8,238.3 157.9,240.6 158.1,238.9 158.3,243.5 158.5,244.9 158.7,249.6 158.9,247.1 159.0,249.7 159.2,250.4 159.4,254.7 159.6,253.7 159.8,253.0 160.0,249.9 160.1,247.7 160.3,247.0 160.5,247.8 160.7,250.1 160.9,250.4 161.1,265.4 161.2,267.5 161.4,267.7 161.6,268.2 161.8,268.5 162.0,268.5 162.1,268.2 162.3,269.0 162.5,268.7 162.7,268.7 162.9,269.2 163.1,269.0 163.2,269.2 163.4,270.1 163.6,269.0 163.8,269.4 164.0,270.1 164.2,272.3 164.3,271.1 164.5,271.1 164.7,271.8 164.9,272.5 165.1,271.6 165.3,271.4 165.4,272.0 165.6,272.0 165.8,272.3 166.0,270.4 166.2,267.1 166.4,253.5 166.5,253.5 166.7,254.9 166.9,254.9 167.1,258.3 167.3,255.9 167.5,255.2 167.6,253.2 167.8,254.4 168.0,254.7 168.2,255.2 168.4,258.0 168.6,259.0 168.7,258.3 168.9,258.3 169.1,257.8 169.3,257.8 169.5,260.6 169.7,265.6 169.8,262.5 170.0,263.9 170.2,265.6 170.4,264.2 170.6,264.4 170.7,264.9 170.9,265.9 171.1,267.3 171.3,268.3 171.5,267.1 171.7,263.2 171.8,263.2 172.0,263.2 172.2,264.2 172.4,264.9 172.6,266.4 172.8,263.3 172.9,263.9 173.1,262.8 173.3,262.5 173.5,261.8 173.7,264.2 173.9,266.6 174.0,265.8 174.2,266.3 174.4,266.6 174.6,266.1 174.8,266.1 175.0,267.7 175.1,267.0 175.3,268.0 175.5,268.5 175.7,269.4 175.9,269.4 176.1,269.6 176.2,265.8 176.4,269.4 176.6,268.9 176.8,268.3 177.0,269.4 177.2,269.7 177.3,270.4 177.5,270.8 177.7,270.4 177.9,270.9 178.1,270.2 178.3,269.4 178.4,269.2 178.6,258.2 178.8,261.8 179.0,263.3 179.2,263.9 179.4,249.2 179.5,250.4 179.7,250.6 179.9,250.4 180.1,250.1 180.3,250.6 180.4,253.2 180.6,254.0 180.8,249.7 181.0,251.3 181.2,251.8 181.4,252.1 181.5,254.0 181.7,249.7 181.9,251.6 182.1,252.7 182.3,254.9 182.5,253.3 182.6,252.7 182.8,258.0 183.0,257.7 183.2,257.1 183.4,255.1 183.6,254.7 183.7,257.6 183.9,256.8 184.1,256.6 184.3,258.4 184.5,257.3 184.7,256.1 184.8,257.5 185.0,257.8 185.2,258.7 185.4,259.9 185.6,258.7 185.8,258.2 185.9,259.7 186.1,260.1 186.3,260.1 186.5,259.7 186.7,259.7 186.9,257.5 187.0,258.7 187.2,259.7 187.4,259.4 187.6,258.7 187.8,260.1 188.0,259.6 188.1,260.2 188.3,260.2 188.5,260.6 188.7,261.3 188.9,261.6 189.1,260.8 189.2,263.2 189.4,263.3 189.6,263.3 189.8,263.2 190.0,262.1 190.1,262.0 190.3,263.2 190.5,262.1 190.7,261.6 190.9,258.5 191.1,257.8 191.2,256.3 191.4,255.8 191.6,257.7 191.8,258.0 192.0,258.0 192.2,257.5 192.3,258.9 192.5,259.0 192.7,260.4 192.9,260.8 193.1,261.1 193.3,260.1 193.4,260.4 193.6,261.4 193.8,259.9 194.0,259.9 194.2,262.1 194.4,260.8 194.5,261.6 194.7,263.5 194.9,265.1 195.1,262.8 195.3,265.2 195.5,264.7 195.6,263.7 195.8,265.6 196.0,266.4 196.2,267.0 196.4,269.7 196.6,265.9 196.7,264.5 196.9,263.5 197.1,263.3 197.3,262.2 197.5,263.7 197.7,263.9 197.8,263.3 198.0,263.9 198.2,264.0 198.4,262.8 198.6,262.8 198.8,262.3 198.9,262.5 199.1,261.3 199.3,260.8 199.5,257.7 199.7,260.4 199.8,261.6 200.0,262.0 200.2,260.4 200.4,262.5 200.6,271.4 200.8,272.3 200.9,272.8 201.1,272.7 201.3,272.8 201.5,272.8 201.7,272.8 201.9,271.8 202.0,272.3 202.2,271.6 202.4,272.3 202.6,272.0 202.8,272.3 203.0,272.8 203.1,272.5 203.3,272.3 203.5,273.1 203.7,273.5 203.9,274.0 204.1,274.0 204.2,274.0 204.4,274.0 204.6,274.4 204.8,274.1 205.0,274.0 205.2,274.6 205.3,274.0 205.5,273.9 205.7,273.7 205.9,275.6 206.1,275.9 206.3,276.3 206.4,277.8 206.6,278.0 206.8,278.9 207.0,278.1 207.2,278.5 207.4,278.3 207.5,279.0 207.7,279.3 207.9,279.9 208.1,279.6 208.3,279.7 208.5,279.7 208.6,277.2 208.8,275.3 209.0,276.1 209.2,277.1 209.4,277.1 209.5,278.0 209.7,279.0 209.9,278.7 210.1,279.5 210.3,279.0 210.5,279.6 210.6,279.0 210.8,279.7 211.0,279.7 211.2,279.9 211.4,279.7 211.6,280.1 211.7,280.6 211.9,280.1 212.1,280.2 212.3,280.1 212.5,279.9 212.7,280.3 212.8,280.2 213.0,279.9 213.2,279.6 213.4,279.2 213.6,279.0 213.8,279.3 213.9,278.8 214.1,279.2 214.3,279.6 214.5,279.7 214.7,279.7 214.9,280.4 215.0,281.0 215.2,280.9 215.4,280.6 215.6,280.5 215.8,281.0 216.0,280.9 216.1,281.0 216.3,281.1 216.5,281.1 216.7,281.1 216.9,280.6 217.1,280.6 217.2,281.1 217.4,281.1 217.6,281.1 217.8,281.1 218.0,280.9 218.2,281.3 218.3,281.3 218.5,280.9 218.7,281.2 218.9,281.1 219.1,280.8 219.2,280.8 219.4,281.1 219.6,281.1 219.8,280.6 220.0,280.6 220.2,280.6 220.3,280.6 220.5,279.7 220.7,279.7 220.9,279.6 221.1,279.7 221.3,279.4 221.4,279.0 221.6,279.8 221.8,279.9 222.0,279.4 222.2,279.9 222.4,280.1 222.5,280.4 222.7,280.4 222.9,280.2 223.1,279.7 223.3,279.7 223.5,279.4 223.6,279.7 223.8,279.0 224.0,279.7 224.2,279.6 224.4,279.4 224.6,279.6 224.7,279.8 224.9,279.7 225.1,279.7 225.3,279.8 225.5,279.8 225.7,280.1 225.8,279.9 226.0,280.4 226.2,280.6 226.4,280.8 226.6,280.9 226.8,280.9 226.9,281.1 227.1,281.0 227.3,281.4 227.5,281.4 227.7,281.3 227.9,281.3 228.0,281.5 228.2,282.7 228.4,283.0 228.6,283.3 228.8,283.6 228.9,283.3 229.1,283.2 229.3,283.3 229.5,283.3 229.7,283.7 229.9,284.4 230.0,284.7 230.2,283.3 230.4,281.9 230.6,282.9 230.8,282.5 231.0,282.8 231.1,283.0 231.3,282.7 231.5,282.8 231.7,282.1 231.9,282.0 232.1,282.2 232.2,282.4 232.4,281.4 232.6,280.8 232.8,281.2 233.0,280.9 233.2,281.1 233.3,281.8 233.5,281.4 233.7,280.9 233.9,280.6 234.1,280.4 234.3,280.2 234.4,280.6 234.6,280.9 234.8,281.3 235.0,281.2 235.2,281.6 235.4,281.3 235.5,280.9 235.7,281.0 235.9,280.8 236.1,282.3 236.3,281.4 236.5,281.6 236.6,281.3 236.8,281.1 237.0,281.1 237.2,281.7 237.4,281.1 237.5,281.7 237.7,281.6 237.9,281.3 238.1,282.0 238.3,281.9 238.5,282.1 238.6,281.6 238.8,282.0 239.0,282.1 239.2,282.0 239.4,282.1 239.6,281.8 239.7,281.6 239.9,282.1 240.1,282.1 240.3,281.5 240.5,281.6 240.7,281.6 240.8,281.4 241.0,281.3 241.2,282.1 241.4,282.5 241.6,282.7 241.8,283.0 241.9,282.7 242.1,282.8 242.3,282.5 242.5,282.3 242.7,282.1 242.9,282.1 243.0,282.3 243.2,282.2 243.4,282.7 243.6,282.8 243.8,282.3 244.0,283.2 244.1,283.5 244.3,283.4 244.5,283.3 244.7,283.7 244.9,283.3 245.1,283.9 245.2,283.9 245.4,283.8 245.6,283.9 245.8,283.9 246.0,283.7 246.2,283.9 246.3,283.8 246.5,283.3 246.7,283.5 246.9,283.6 247.1,283.9 247.2,283.7 247.4,283.9 247.6,284.0 247.8,284.4 248.0,284.8 248.2,284.4 248.3,284.8 248.5,284.8 248.7,284.6 248.9,284.6 249.1,284.8 249.3,285.3 249.4,285.3 249.6,285.8 249.8,286.6 250.0,286.6 250.2,286.4 250.4,286.3 250.5,286.4 250.7,286.8 250.9,286.7 251.1,286.8 251.3,287.0 251.5,287.0 251.6,286.8 251.8,287.1 252.0,287.1 252.2,286.8 252.4,287.1 252.6,286.4 252.7,286.9 252.9,287.2 253.1,287.0 253.3,287.1 253.5,287.2 253.7,287.0 253.8,286.9 254.0,286.7 254.2,286.9 254.4,286.8 254.6,287.0 254.8,284.7 254.9,284.9 255.1,285.8 255.3,285.7 255.5,285.1 255.7,285.6 255.9,286.3 256.0,286.4 256.2,285.1 256.4,282.7 256.6,285.2 256.8,285.6 256.9,285.9 257.1,286.0 257.3,286.1 257.5,286.2 257.7,286.4 257.9,285.1 258.0,285.5 258.2,286.1 258.4,285.4 258.6,285.5 258.8,285.3 259.0,285.9 259.1,285.9 259.3,285.9 259.5,285.8 259.7,285.9 259.9,285.8 260.1,285.8 260.2,285.3 260.4,285.1 260.6,285.4 260.8,285.4 261.0,285.7 261.2,285.2 261.3,285.4 261.5,285.6 261.7,285.6 261.9,285.3 262.1,285.3 262.3,285.6 262.4,285.3 262.6,285.6 262.8,285.5 263.0,285.6 263.2,285.6 263.4,285.6 263.5,285.7 263.7,285.7 263.9,285.8 264.1,285.8 264.3,286.1 264.5,285.8 264.6,285.8 264.8,286.0 265.0,286.1 265.2,286.3 265.4,286.4 265.6,286.3 265.7,286.2 265.9,286.1 266.1,286.0 266.3,285.6 266.5,285.9 266.6,286.0 266.8,286.4 267.0,286.6 267.2,285.9 267.4,285.9 267.6,286.2 267.7,286.1 267.9,286.3 268.1,286.3 268.3,286.6 268.5,286.7 268.7,286.7 268.8,287.0 269.0,287.0 269.2,287.1 269.4,286.7 269.6,286.1 269.8,286.4 269.9,286.3 270.1,286.4 270.3,286.5 270.5,286.5 270.7,286.5 270.9,286.6 271.0,286.7 271.2,286.8 271.4,286.8 271.6,286.9 271.8,286.9 272.0,286.8 272.1,286.3 272.3,286.6 272.5,286.6 272.7,286.6 272.9,286.8 273.1,286.9 273.2,287.2 273.4,287.2 273.6,287.2 273.8,287.4 274.0,287.5 274.2,287.8 274.3,287.7 274.5,287.9 274.7,288.0 274.9,285.0 275.1,286.7 275.3,286.3 275.4,286.4 275.6,287.2 275.8,287.3 276.0,287.6 276.2,287.6 276.3,287.5 276.5,287.6 276.7,287.6 276.9,287.7 277.1,287.9 277.3,287.7 277.4,287.7 277.6,287.8 277.8,287.8 278.0,287.9 278.2,287.9 278.4,287.9 278.5,288.0 278.7,288.1 278.9,288.3 279.1,288.4 279.3,288.4 279.5,288.3 279.6,288.2 279.8,288.2 280.0,288.3 280.2,288.4 280.4,288.5 280.6,288.5 280.7,288.4 280.9,288.4 281.1,288.5 281.3,288.5 281.5,288.5 281.7,289.3 281.8,289.3 282.0,289.3 282.2,289.4 282.4,289.4 282.6,289.3 282.8,289.3 282.9,289.3 283.1,289.2 283.3,289.1 283.5,289.2 283.7,289.0 283.9,289.1 284.0,289.2 284.2,289.2 284.4,289.3 284.6,289.3 284.8,289.4 285.0,289.3 285.1,289.3 285.3,289.4 285.5,289.4 285.7,289.4 285.9,289.4 286.0,289.5 286.2,289.5 286.4,289.4 286.6,289.5 286.8,289.6 287.0,289.7 287.1,289.7 287.3,289.7 287.5,289.8 287.7,289.7 287.9,289.7 288.1,289.7 288.2,289.7 288.4,289.7 288.6,289.8 288.8,289.8 289.0,289.8 289.2,289.8 289.3,289.8 289.5,289.8 289.7,289.8 289.9,289.8 290.1,289.8 290.3,289.8 290.4,289.8 290.6,289.8 290.8,289.8 291.0,289.8 291.2,289.8 291.4,289.8 291.5,289.8 291.7,289.8 291.9,289.8 292.1,289.8 292.3,289.8 292.5,289.8 292.6,289.6 292.8,289.5 293.0,289.6 293.2,289.7 293.4,289.7 293.6,289.7 293.7,289.7 293.9,289.5 294.1,289.6 294.3,289.6 294.5,289.6 294.7,289.7 294.8,289.6 295.0,289.6 295.2,289.6 295.4,289.6 295.6,289.6 295.7,289.6 295.9,289.5 296.1,289.5 296.3,289.5 296.5,289.6 296.7,289.5 296.8,289.6 297.0,289.6 297.2,289.6 297.4,289.6 297.6,289.6 297.8,289.6 297.9,289.6 298.1,289.6 298.3,289.7 298.5,289.7 298.7,289.6 298.9,289.7 299.0,289.7 299.2,289.6 299.4,289.6 299.6,289.6 299.8,289.6 300.0,289.6 300.1,289.7 300.3,289.7 300.5,289.7 300.7,289.6 300.9,289.6 301.1,289.6 301.2,289.6 301.4,289.7 301.6,289.7 301.8,289.7 302.0,289.7 302.2,289.7 302.3,289.7 302.5,289.6 302.7,289.7 302.9,289.7 303.1,289.7 303.3,289.8 303.4,289.8 303.6,289.8 303.8,289.8 304.0,289.8 304.2,289.8 304.4,289.8 304.5,289.8 304.7,289.8 304.9,289.8 305.1,289.8 305.3,289.8 305.4,289.8 305.6,289.8 305.8,289.8 306.0,289.7 306.2,289.7 306.4,289.8 306.5,289.7 306.7,289.5 306.9,289.6 307.1,289.6 307.3,289.6 307.5,289.6 307.6,289.7 307.8,289.7 308.0,289.7 308.2,289.7 308.4,289.7 308.6,289.7 308.7,289.7 308.9,289.7 309.1,289.7 309.3,289.8 309.5,289.9 309.7,289.9 309.8,290.0 310.0,289.9 310.2,289.9 310.4,289.9 310.6,289.9 310.8,290.0 310.9,290.0 311.1,290.0 311.3,290.0 311.5,290.0 311.7,290.0 311.9,290.0 312.0,290.0 312.2,290.0 312.4,290.0 312.6,290.0 312.8,290.0 313.0,290.0 313.1,290.0 313.3,290.0 313.5,290.0 313.7,290.0 313.9,290.0 314.0,290.0 314.2,290.0 314.4,290.0 314.6,290.0 314.8,290.0 315.0,290.0 315.1,290.0 315.3,290.0 315.5,290.0 315.7,290.0 315.9,290.0 316.1,290.0 316.2,290.0 316.4,290.0 316.6,290.0 316.8,290.0 317.0,290.0 317.2,290.0 317.3,290.0 317.5,290.0 317.7,290.0 317.9,290.0 318.1,290.0 318.3,290.0 318.4,290.0 318.6,290.0 318.8,290.1 319.0,290.1 319.2,290.1 319.4,290.1 319.5,290.1 319.7,290.1 319.9,290.1 320.1,290.1 320.3,290.1 320.5,290.1 320.6,290.1 320.8,290.1 321.0,290.1 321.2,290.1 321.4,290.1 321.6,290.1 321.7,290.1 321.9,290.1 322.1,290.1 322.3,290.1 322.5,290.1 322.7,290.1 322.8,290.1 323.0,290.1 323.2,290.1 323.4,290.1 323.6,290.1 323.7,290.1 323.9,290.1 324.1,290.1 324.3,290.1 324.5,290.1 324.7,290.1 324.8,290.1 325.0,290.1 325.2,290.1 325.4,290.1 325.6,290.1 325.8,290.1 325.9,290.1 326.1,290.1 326.3,290.1 326.5,290.1 326.7,290.1 326.9,290.1 327.0,290.1 327.2,290.1 327.4,290.1 327.6,290.1 327.8,290.1 328.0,290.1 328.1,290.1 328.3,290.1 328.5,290.1 328.7,290.1 328.9,290.1 329.1,290.1 329.2,290.1 329.4,290.1 329.6,290.1 329.8,290.1 330.0,290.1 330.2,290.1 330.3,290.1 330.5,290.1 330.7,290.1 330.9,290.1 331.1,290.1 331.3,290.1 331.4,290.1 331.6,290.1 331.8,290.1 332.0,290.1 332.2,290.1 332.4,290.1 332.5,290.1 332.7,290.1 332.9,290.1 333.1,290.1 333.3,290.1 333.4,290.1 333.6,290.1 333.8,290.1 334.0,290.1 334.2,290.1 334.4,290.1 334.5,290.1 334.7,290.1 334.9,290.1 335.1,290.1 335.3,290.1 335.5,290.1 335.6,290.1 335.8,290.1 336.0,290.1 336.2,290.1 336.4,290.1 336.6,290.1 336.7,290.1 336.9,290.1 337.1,290.1 337.3,290.1 337.5,290.1 337.7,290.1 337.8,290.1 338.0,290.1 338.2,290.1 338.4,290.1 338.6,290.1 338.8,290.1 338.9,290.1 339.1,290.1 339.3,290.1 339.5,290.1 339.7,290.1 339.9,290.1 340.0,290.1 340.2,290.1 340.4,290.1 340.6,290.1 340.8,290.1 341.0,290.1 341.1,290.1 341.3,290.1 341.5,290.1 341.7,290.1 341.9,290.1 342.1,290.1 342.2,290.1 342.4,290.1 342.6,290.1 342.8,290.1 343.0,290.1 343.1,290.1 343.3,290.1 343.5,290.1 343.7,290.1 343.9,290.1 344.1,290.1 344.2,290.1 344.4,290.1 344.6,290.1 344.8,290.1 345.0,290.1 345.2,290.1 345.3,290.1 345.5,290.1 345.7,290.1 345.9,290.1 346.1,290.1 346.3,290.1 346.4,290.1 346.6,290.1 346.8,290.1 347.0,290.1 347.2,290.1 347.4,290.1 347.5,290.1 347.7,290.1 347.9,290.1 348.1,290.1 348.3,290.1 348.5,290.1 348.6,290.1 348.8,290.1 349.0,290.1 349.2,290.1 349.4,290.1 349.6,290.1 349.7,290.1 349.9,290.1 350.1,290.1 350.3,290.1 350.5,290.1 350.7,290.1 350.8,290.1 351.0,290.1 351.2,290.1 351.4,290.1 351.6,290.1 351.8,290.1 351.9,290.1 352.1,290.1 352.3,290.1 352.5,290.1 352.7,290.1 352.8,290.1 353.0,290.1 353.2,290.1 353.4,290.1 353.6,290.1 353.8,290.1 353.9,290.1 354.1,290.1 354.3,290.1 354.5,290.1 354.7,290.1 354.9,290.1 355.0,290.1 355.2,290.1 355.4,290.1 355.6,290.1 355.8,290.1 356.0,290.1 356.1,290.1 356.3,290.1 356.5,290.1 356.7,290.1 356.9,290.1 357.1,290.1 357.2,290.1 357.4,290.1 357.6,290.1 357.8,290.1 358.0,290.1 358.2,290.1 358.3,290.1 358.5,290.1 358.7,290.1 358.9,290.1 359.1,290.1 359.3,290.1 359.4,290.1 359.6,290.1 359.8,290.1 360.0,290.1 360.2,290.1 360.4,290.1 360.5,290.1 360.7,290.1 360.9,290.1 361.1,290.1 361.3,290.1 361.5,290.1 361.6,290.1 361.8,290.1 362.0,290.1 362.2,290.1 362.4,290.1 362.5,290.1 362.7,290.1 362.9,290.1 363.1,290.1 363.3,290.1 363.5,290.1 363.6,290.1 363.8,290.1 364.0,290.1 364.2,290.1 364.4,290.1 364.6,290.1 364.7,290.1 364.9,290.1 365.1,290.1 365.3,290.1 365.5,290.1 365.7,290.1 365.8,290.1 366.0,290.1 366.2,290.1 366.4,290.1 366.6,290.1 366.8,290.1 366.9,290.1 367.1,290.1 367.3,290.1 367.5,290.1 367.7,290.1 367.9,290.1 368.0,290.1 368.2,290.1 368.4,290.1 368.6,290.1 368.8,290.1 369.0,290.1 369.1,290.1 369.3,290.1 369.5,290.1 369.7,290.1 369.9,290.1 370.1,290.1 370.2,290.1 370.4,290.1 370.6,290.1 370.8,290.1 371.0,290.1 371.2,290.1 371.3,290.1 371.5,290.1 371.7,290.1 371.9,290.1 372.1,290.1 372.2,290.1 372.4,290.1 372.6,290.1 372.8,290.1 373.0,290.1 373.2,290.1 373.3,290.1 373.5,290.1 373.7,290.1 373.9,290.1 374.1,290.1 374.3,290.1 374.4,290.1 374.6,290.1 374.8,290.1 375.0,290.1 375.2,290.1 375.4,290.1 375.5,290.1 375.7,290.1 375.9,290.1 376.1,290.1 376.3,290.1 376.5,290.1 376.6,290.1 376.8,290.1 377.0,290.1 377.2,290.1 377.4,290.1 377.6,290.1 377.7,290.1 377.9,290.1 378.1,290.1 378.3,290.1 378.5,290.1 378.7,290.1 378.8,290.1 379.0,290.1 379.2,290.1 379.4,290.1 379.6,290.1 379.8,290.1 379.9,290.1 380.1,290.1 380.3,290.1 380.5,290.1 380.7,290.1 380.8,290.1 381.0,290.1 381.2,290.1 381.4,290.1 381.6,290.1 381.8,290.1 381.9,290.1 382.1,290.1 382.3,290.1 382.5,290.1 382.7,290.1 382.9,290.1 383.0,290.1 383.2,290.1 383.4,290.1 383.6,290.1 383.8,290.1 384.0,290.1 384.1,290.1 384.3,290.1 384.5,290.1 384.7,290.1 384.9,290.1 385.1,290.1 385.2,290.1 385.4,290.1 385.6,290.1 385.8,290.1 386.0,290.1 386.2,290.1 386.3,290.1 386.5,290.1 386.7,290.1 386.9,290.1 387.1,290.1 387.3,290.1 387.4,290.1 387.6,290.1 387.8,290.1 388.0,290.1 388.2,290.1 388.4,290.1 388.5,290.1 388.7,290.1 388.9,290.1 389.1,290.1 389.3,290.1 389.5,290.1 389.6,290.1 389.8,290.1 390.0,290.1 390.2,290.1 390.4,290.1 390.5,290.1 390.7,290.1 390.9,290.1 391.1,290.1 391.3,290.1 391.5,290.1 391.6,290.1 391.8,290.1 392.0,290.1 392.2,290.1 392.4,290.1 392.6,290.1 392.7,290.1 392.9,290.1 393.1,290.1 393.3,290.1 393.5,290.1 393.7,290.1 393.8,290.1 394.0,290.1 394.2,290.1 394.4,290.1 394.6,290.1 394.8,290.1 394.9,290.1 395.1,290.1 395.3,290.1 395.5,290.1 395.7,290.1 395.9,290.1 396.0,290.1 396.2,290.1 396.4,290.1 396.6,290.1 396.8,290.1 397.0,290.1 397.1,290.1 397.3,290.1 397.5,290.1 397.7,290.1 397.9,290.1 398.1,290.1 398.2,290.1 398.4,290.1 398.6,290.1 398.8,290.1 399.0,290.1 399.2,290.1 399.3,290.1 399.5,290.1 399.7,290.1 399.9,290.1 400.1,290.1 400.2,290.1 400.4,290.1 400.6,290.1 400.8,290.1 401.0,290.1 401.2,290.1 401.3,290.1 401.5,290.1 401.7,290.1 401.9,290.1 402.1,290.1 402.3,290.1 402.4,290.1 402.6,290.1 402.8,290.1 403.0,290.1 403.2,290.1 403.4,290.1 403.5,290.1 403.7,290.1 403.9,290.1 404.1,290.1 404.3,290.1 404.5,290.1 404.6,290.1 404.8,290.1 405.0,290.1 405.2,290.1 405.4,290.1 405.6,290.1 405.7,290.1 405.9,290.1 406.1,290.1 406.3,290.1 406.5,290.1 406.7,290.1 406.8,290.1 407.0,290.1 407.2,290.1 407.4,290.1 407.6,290.1 407.8,290.1 407.9,290.1 408.1,290.1 408.3,290.1 408.5,290.1 408.7,290.1 408.9,290.1 409.0,290.1 409.2,290.1 409.4,290.1 409.6,290.1 409.8,290.1 409.9,290.1 410.1,290.1 410.3,290.1 410.5,290.1 410.7,290.1 410.9,290.1 411.0,290.1 411.2,290.1 411.4,290.1 411.6,290.1 411.8,290.1 412.0,290.1 412.1,290.1 412.3,290.1 412.5,290.1 412.7,290.1 412.9,290.1 413.1,290.1 413.2,290.1 413.4,290.1 413.6,290.1 413.8,290.1 414.0,290.1 414.2,290.1 414.3,290.1 414.5,290.1 414.7,290.1 414.9,290.1 415.1,290.1 415.3,290.1 415.4,290.1 415.6,290.1 415.8,290.1 416.0,290.1 416.2,290.1 416.4,290.1 416.5,290.1 416.7,290.1 416.9,290.1 417.1,290.1 417.3,290.1 417.5,290.1 417.6,290.1 417.8,290.1 418.0,290.1 418.2,290.1 418.4,290.1 418.6,290.1 418.7,290.1 418.9,290.1 419.1,290.1 419.3,290.1 419.5,290.1 419.6,290.1 419.8,290.1 420.0,290.1 420.2,290.1 420.4,290.1 420.6,290.1 420.7,290.1 420.9,290.1 421.1,290.1 421.3,290.1 421.5,290.1 421.7,290.1 421.8,290.1 422.0,290.1 422.2,290.1 422.4,290.1 422.6,290.1 422.8,290.1 422.9,290.1 423.1,290.1 423.3,290.1 423.5,290.1 423.7,290.1 423.9,290.1 424.0,290.1 424.2,290.1 424.4,290.1 424.6,290.1 424.8,290.1 425.0,290.1 425.1,290.1 425.3,290.1 425.5,290.1 425.7,290.1 425.9,290.1 426.1,290.1 426.2,290.1 426.4,290.1 426.6,290.1 426.8,290.1 427.0,290.1 427.2,290.1 427.3,290.1 427.5,290.1 427.7,290.1 427.9,290.1 428.1,290.1 428.3,290.1 428.4,290.1 428.6,290.1 428.8,290.1 429.0,290.1 429.2,290.1 429.3,290.1 429.5,290.1 429.7,290.1 429.9,290.1 430.1,290.1 430.3,290.1 430.4,290.1 430.6,290.1 430.8,290.1 431.0,290.1 431.2,290.1 431.4,290.1 431.5,290.1 431.7,290.1 431.9,290.1 432.1,290.1 432.3,290.1 432.5,290.1 432.6,290.1 432.8,290.1 433.0,290.1 433.2,290.1 433.4,290.1 433.6,290.1 433.7,290.1 433.9,290.1 434.1,290.1 434.3,290.1 434.5,290.1 434.7,290.1 434.8,290.1 435.0,290.1 435.2,290.1 435.4,290.1 435.6,290.1 435.8,290.1 435.9,290.1 436.1,290.1 436.3,290.1 436.5,290.1 436.7,290.1 436.9,290.1 437.0,290.1 437.2,290.1 437.4,290.1 437.6,290.1 437.8,290.1 438.0,290.1 438.1,290.1 438.3,290.1 438.5,290.1 438.7,290.1 438.9,290.1 439.0,290.1 439.2,290.1 439.4,290.1 439.6,290.1 439.8,290.1 440.0,290.1 440.1,290.1 440.3,290.1 440.5,290.1 440.7,290.1 440.9,290.1 441.1,290.1 441.2,290.1 441.4,290.1 441.6,290.1 441.8,290.1 442.0,290.1 442.2,290.1 442.3,290.1 442.5,290.1 442.7,290.1 442.9,290.1 443.1,290.1 443.3,290.1 443.4,290.1 443.6,290.1 443.8,290.1 444.0,290.1 444.2,290.1 444.4,290.1 444.5,290.1 444.7,290.1 444.9,290.1 445.1,290.1 445.3,290.1 445.5,290.1 445.6,290.1 445.8,290.1 446.0,290.1 446.2,290.1 446.4,290.1 446.6,290.1 446.7,290.1 446.9,290.1 447.1,290.1 447.3,290.1 447.5,290.1 447.6,290.1 447.8,290.1 448.0,290.1 448.2,290.1 448.4,290.1 448.6,290.1 448.7,290.1 448.9,290.1 449.1,290.1 449.3,290.1 449.5,290.1 449.7,290.1 449.8,290.1 450.0,290.1 450.2,290.1 450.4,290.1 450.6,290.1 450.8,290.1 450.9,290.1 451.1,290.1 451.3,290.1 451.5,290.1 451.7,290.1 451.9,290.1 452.0,290.1 452.2,290.1 452.4,290.1 452.6,290.1 452.8,290.1 453.0,290.1 453.1,290.1 453.3,290.1 453.5,290.1 453.7,290.1 453.9,290.1 454.1,290.1 454.2,290.1 454.4,290.1 454.6,290.1 454.8,290.1 455.0,290.1 455.2,290.1 455.3,290.1 455.5,290.1 455.7,290.1 455.9,290.1 456.1,290.1 456.3,290.1 456.4,290.1 456.6,290.1 456.8,290.1 457.0,290.1 457.2,290.1 457.3,290.1 457.5,290.1 457.7,290.1 457.9,290.1 458.1,290.1 458.3,290.1 458.4,290.1 458.6,290.1 458.8,290.1 459.0,290.1 459.2,290.1 459.4,290.1 459.5,290.1 459.7,290.1 459.9,290.1 460.1,290.1 460.3,290.1 460.5,290.1 460.6,290.1 460.8,290.1 461.0,290.1 461.2,290.1 461.4,290.1 461.6,290.1 461.7,290.1 461.9,290.1 462.1,290.1 462.3,290.1 462.5,290.1 462.7,290.1 462.8,290.1 463.0,290.1 463.2,290.1 463.4,290.1 463.6,290.1 463.8,290.1 463.9,290.1 464.1,290.1 464.3,290.1 464.5,290.1 464.7,290.1 464.9,290.1 465.0,290.1 465.2,290.1 465.4,290.1 465.6,290.1 465.8,290.1 466.0,290.1 466.1,290.1 466.3,290.1 466.5,290.1 466.7,290.1 466.9,290.1 467.0,290.1 467.2,290.1 467.4,290.1 467.6,290.1 467.8,290.1 468.0,290.1 468.1,290.1 468.3,290.1 468.5,290.1 468.7,290.1 468.9,290.1 469.1,290.1 469.2,290.1 469.4,290.1 469.6,290.1 469.8,290.1 470.0,290.1 470.2,290.1 470.3,290.1 470.5,290.1 470.7,290.1 470.9,290.1 471.1,290.1 471.3,290.1 471.4,290.1 471.6,290.1 471.8,290.1 472.0,290.1 472.2,290.1 472.4,290.1 472.5,290.1 472.7,290.1 472.9,290.1 473.1,290.1 473.3,290.1 473.5,290.1 473.6,290.1 473.8,290.1 474.0,290.1 474.2,290.1 474.4,290.1 474.6,290.1 474.7,290.1 474.9,290.1 475.1,290.1 475.3,290.1 475.5,290.1 475.7,290.1 475.8,290.1 476.0,290.1 476.2,290.1 476.4,290.1 476.6,290.1 476.7,290.1 476.9,290.1 477.1,290.1 477.3,290.1 477.5,290.1 477.7,290.1 477.8,290.1 478.0,290.1 478.2,290.1 478.4,290.1 478.6,290.1 478.8,290.1 478.9,290.1 479.1,290.1 479.3,290.1 479.5,290.1 479.7,290.1 479.9,290.1 480.0,290.1 480.2,290.1 480.4,290.1 480.6,290.1 480.8,290.1 481.0,290.1 481.1,290.1 481.3,290.1 481.5,290.1 481.7,290.1 481.9,290.1 482.1,290.1 482.2,290.1 482.4,290.1 482.6,290.1 482.8,290.1 483.0,290.1 483.2,290.1 483.3,290.1 483.5,290.1 483.7,290.1 483.9,290.1 484.1,290.1 484.3,290.1 484.4,290.1 484.6,290.1 484.8,290.1 485.0,290.1 485.2,290.1 485.4,290.1 485.5,290.1 485.7,290.1 485.9,290.1 486.1,290.1 486.3,290.1 486.4,290.1 486.6,290.1 486.8,290.1 487.0,290.1 487.2,290.1 487.4,290.1 487.5,290.1 487.7,290.1 487.9,290.1 488.1,290.1 488.3,290.1 488.5,290.1 488.6,290.1 488.8,290.1 489.0,290.1 489.2,290.1 489.4,290.1 489.6,290.1 489.7,290.1 489.9,290.1 490.1,290.1 490.3,290.1 490.5,290.1 490.7,290.1 490.8,290.1 491.0,290.1 491.2,290.1 491.4,290.1 491.6,290.1 491.8,290.1 491.9,290.1 492.1,290.1 492.3,290.1 492.5,290.1 492.7,290.1 492.9,290.1 493.0,290.1 493.2,290.1 493.4,290.1 493.6,290.1 493.8,290.1 494.0,290.1 494.1,290.1 494.3,290.1 494.5,290.1 494.7,290.1 494.9,290.1 495.1,290.1 495.2,290.1 495.4,290.1 495.6,290.1 495.8,290.1 496.0,290.1 496.1,290.1 496.3,290.1 496.5,290.1 496.7,290.1 496.9,290.1 497.1,290.1 497.2,290.1 497.4,290.1 497.6,290.1 497.8,290.1 498.0,290.1 498.2,290.1 498.3,290.1 498.5,290.1 498.7,290.1 498.9,290.1 499.1,290.1 499.3,290.1 499.4,290.1 499.6,290.1 499.8,290.1 500.0,290.1 500.2,290.1 500.4,290.1 500.5,290.1 500.7,290.1 500.9,290.1 501.1,290.1 501.3,290.1 501.5,290.1 501.6,290.1 501.8,290.1 502.0,290.1 502.2,290.1 502.4,290.1 502.6,290.1 502.7,290.1 502.9,290.1 503.1,290.1 503.3,290.1 503.5,290.1 503.7,290.1 503.8,290.1 504.0,290.1 504.2,290.1 504.4,290.1 504.6,290.1 504.8,290.1 504.9,290.1 505.1,290.1 505.3,290.1 505.5,290.1 505.7,290.1 505.8,290.1 506.0,290.1 506.2,290.1 506.4,290.1 506.6,290.1 506.8,290.1 506.9,290.1 507.1,290.1 507.3,290.1 507.5,290.1 507.7,290.1 507.9,290.1 508.0,290.1 508.2,290.1 508.4,290.1 508.6,290.1 508.8,290.1 509.0,290.1 509.1,290.1 509.3,290.1 509.5,290.1 509.7,290.1 509.9,290.1 510.1,290.1 510.2,290.1 510.4,290.1 510.6,290.1 510.8,290.1 511.0,290.1 511.2,290.1 511.3,290.1 511.5,290.1 511.7,290.1 511.9,290.1 512.1,290.1 512.3,290.1 512.4,290.1 512.6,290.1 512.8,290.1 513.0,290.1 513.2,290.1 513.4,290.1 513.5,290.1 513.7,290.1 513.9,290.1 514.1,290.1 514.3,290.1 514.5,290.1 514.6,290.1 514.8,290.1 515.0,290.1 515.2,290.1 515.4,290.1 515.5,290.1 515.7,290.1 515.9,290.1 516.1,290.1 516.3,290.1 516.5,290.1 516.6,290.1 516.8,290.1 517.0,290.1 517.2,290.1 517.4,290.1 517.6,290.1 517.7,290.1 517.9,290.1 518.1,290.1 518.3,290.1 518.5,290.1 518.7,290.1 518.8,290.1 519.0,290.1 519.2,290.1 519.4,290.1 519.6,290.1 519.8,290.1 519.9,290.1 520.1,290.1 520.3,290.1 520.5,290.1 520.7,290.1 520.9,290.1 521.0,290.1 521.2,290.1 521.4,290.1 521.6,290.1 521.8,290.1 522.0,290.1 522.1,290.1 522.3,290.1 522.5,290.1 522.7,290.1 522.9,290.1 523.1,290.1 523.2,290.1 523.4,290.1 523.6,290.1 523.8,290.1 524.0,290.1 524.1,290.1 524.3,290.1 524.5,290.1 524.7,290.1 524.9,290.1 525.1,290.1 525.2,290.1 525.4,290.1 525.6,290.1 525.8,290.1 526.0,290.1 526.2,290.1 526.3,290.1 526.5,290.1 526.7,290.1 526.9,290.1 527.1,290.1 527.3,290.1 527.4,290.1 527.6,290.1 527.8,290.1 528.0,290.1 528.2,290.1 528.4,290.1 528.5,290.1 528.7,290.1 528.9,290.1 529.1,290.1 529.3,290.1 529.5,290.1 529.6,290.1 529.8,290.1 530.0,290.1 530.2,290.1 530.4,290.1 530.6,290.1 530.7,290.1 530.9,290.1 531.1,290.1 531.3,290.1 531.5,290.1 531.7,290.1 531.8,290.1 532.0,290.1 532.2,290.1 532.4,290.1 532.6,290.1 532.8,290.1 532.9,290.1 533.1,290.1 533.3,290.1 533.5,290.1 533.7,290.1 533.8,290.1 534.0,290.1 534.2,290.1 534.4,290.1 534.6,290.1 534.8,290.1 534.9,290.1 535.1,290.1 535.3,290.1 535.5,290.1 535.7,290.1 535.9,290.1 536.0,290.1 536.2,290.1 536.4,290.1 536.6,290.1 536.8,290.1 537.0,290.1 537.1,290.1 537.3,290.1 537.5,290.1 537.7,290.1 537.9,290.1 538.1,290.1 538.2,290.1 538.4,290.1 538.6,290.1 538.8,290.1 539.0,290.1 539.2,290.1 539.3,290.1 539.5,290.1 539.7,290.1 539.9,290.1 540.1,290.1 540.3,290.1 540.4,290.1 540.6,290.1 540.8,290.1 541.0,290.1 541.2,290.1 541.4,290.1 541.5,290.1 541.7,290.1 541.9,290.1 542.1,290.1 542.3,290.1 542.5,290.1 542.6,290.1 542.8,290.1 543.0,290.1 543.2,290.1 543.4,290.1 543.5,290.1 543.7,290.1 543.9,290.1 544.1,290.1 544.3,290.1 544.5,290.1 544.6,290.1 544.8,290.1 545.0,290.1 545.2,290.1 545.4,290.1 545.6,290.1 545.7,290.1 545.9,290.1 546.1,290.1 546.3,290.1 546.5,290.1 546.7,290.1 546.8,290.1 547.0,290.1 547.2,290.1 547.4,290.1 547.6,290.1 547.8,290.1 547.9,290.1 548.1,290.1 548.3,290.1 548.5,290.1 548.7,290.1 548.9,290.1 549.0,290.1 549.2,290.1 549.4,290.1 549.6,290.1 549.8,290.1 550.0,290.1 550.1,290.1 550.3,290.1 550.5,290.1 550.7,290.1 550.9,290.1 551.1,290.1 551.2,290.1 551.4,290.1 551.6,290.1 551.8,290.1 552.0,290.1 552.2,290.1 552.3,290.1 552.5,290.1 552.7,290.1 552.9,290.1 553.1,290.1 553.2,290.1 553.4,290.1 553.6,290.1 553.8,290.1 554.0,290.1 554.2,290.1 554.3,290.1 554.5,290.1 554.7,290.1 554.9,290.1 555.1,290.1 555.3,290.1 555.4,290.1 555.6,290.1 555.8,290.1 556.0,290.1 556.2,290.1 556.4,290.1 556.5,290.1 556.7,290.1 556.9,290.1 557.1,290.1 557.3,290.1 557.5,290.1 557.6,290.1 557.8,290.1 558.0,290.1 558.2,290.1 558.4,290.1 558.6,290.1 558.7,290.1 558.9,290.1 559.1,290.1 559.3,290.1 559.5,290.1 559.7,290.1 559.8,290.1 560.0,290.1 560.2,290.1 560.4,290.1 560.6,290.1 560.8,290.1 560.9,290.1 561.1,290.1 561.3,290.1 561.5,290.1 561.7,290.1 561.9,290.1 562.0,290.1 562.2,290.1 562.4,290.1 562.6,290.1 562.8,290.1 562.9,290.1 563.1,290.1 563.3,290.1 563.5,290.1 563.7,290.1 563.9,290.1 564.0,290.1 564.2,290.1 564.4,290.1 564.6,290.1 564.8,290.1 565.0,290.1 565.1,290.1 565.3,290.1 565.5,290.1 565.7,290.1 565.9,290.1 566.1,290.1 566.2,290.1 566.4,290.1 566.6,290.1 566.8,290.1 567.0,290.1 567.2,290.1 567.3,290.1 567.5,290.1 567.7,290.1 567.9,290.1 568.1,290.1 568.3,290.1 568.4,290.1 568.6,290.1 568.8,290.1 569.0,290.1 569.2,290.1 569.4,290.1 569.5,290.1 569.7,290.1 569.9,290.1 570.1,290.1 570.3,290.1 570.5,290.1 570.6,290.1 570.8,290.1 571.0,290.1 571.2,290.1 571.4,290.1 571.6,290.1 571.7,290.1 571.9,290.1 572.1,290.1 572.3,290.1 572.5,290.1 572.6,290.1 572.8,290.1 573.0,290.1 573.2,290.1 573.4,290.1 573.6,290.1 573.7,290.1 573.9,290.1 574.1,290.1 574.3,290.1 574.5,290.1 574.7,290.1 574.8,290.1 575.0,290.1 575.2,290.1 575.4,290.1 575.6,290.1 575.8,290.1 575.9,290.1 576.1,290.1 576.3,290.1 576.5,290.1 576.7,290.1 576.9,290.1 577.0,290.1 577.2,290.1 577.4,290.1 577.6,290.1 577.8,290.1 578.0,290.1 578.1,290.1 578.3,290.1 578.5,290.1 578.7,290.1 578.9,290.1 579.1,290.1 579.2,290.1 579.4,290.1 579.6,290.1 579.8,290.1 580.0,290.1 580.2,290.1 580.3,290.1 580.5,290.1 580.7,290.1 580.9,290.1 581.1,290.1 581.3,290.1 581.4,290.1 581.6,290.1 581.8,290.1 582.0,290.1 582.2,290.1 582.3,290.1 582.5,290.1 582.7,290.1 582.9,290.1 583.1,290.1 583.3,290.1 583.4,290.1 583.6,290.1 583.8,290.1 584.0,290.1 584.2,290.1 584.4,290.1 584.5,290.1 584.7,290.1 584.9,290.1 585.1,290.1 585.3,290.1 585.5,290.1 585.6,290.1 585.8,290.1 586.0,290.1 586.2,290.1 586.4,290.1 586.6,290.1 586.7,290.1 586.9,290.1 587.1,290.1 587.3,290.1 587.5,290.1 587.7,290.1 587.8,290.1 588.0,290.1 588.2,290.1 588.4,290.1 588.6,290.1 588.8,290.1 588.9,290.1 589.1,290.1 589.3,290.1 589.5,290.1 589.7,290.1 589.9,290.1 590.0,290.1 590.2,290.1 590.4,290.1 590.6,290.1 590.8,290.1 590.9,290.1 591.1,290.1 591.3,290.1 591.5,290.1 591.7,290.1 591.9,290.1 592.0,290.1 592.2,290.1 592.4,290.1 592.6,290.1 592.8,290.1 593.0,290.1 593.1,290.1 593.3,290.1 593.5,290.1 593.7,290.1 593.9,290.1 594.1,290.1 594.2,290.1 594.4,290.1 594.6,290.1 594.8,290.1 595.0,290.1 595.2,290.1 595.3,290.1 595.5,290.1 595.7,290.1 595.9,290.1 596.1,290.1 596.3,290.1 596.4,290.1 596.6,290.1 596.8,290.1 597.0,290.1 597.2,290.1 597.4,290.1 597.5,290.1 597.7,290.1 597.9,290.1 598.1,290.1 598.3,290.1 598.5,290.1 598.6,290.1 598.8,290.1 599.0,290.1 599.2,290.1 599.4,290.1 599.6,290.1 599.7,290.1 599.9,290.1 600.1,290.1 600.3,290.1 600.5,290.1 600.6,290.1 600.8,290.1 601.0,290.1 601.2,290.1 601.4,290.1 601.6,290.1 601.7,290.1 601.9,290.1 602.1,290.1 602.3,290.1 602.5,290.1 602.7,290.1 602.8,290.1 603.0,290.1 603.2,290.1 603.4,290.1 603.6,290.1 603.8,290.1 603.9,290.1 604.1,290.1 604.3,290.1 604.5,290.1 604.7,290.1 604.9,290.1 605.0,290.1 605.2,290.1 605.4,290.1 605.6,290.1 605.8,290.1 606.0,290.1 606.1,290.1 606.3,290.1 606.5,290.1 606.7,290.1 606.9,290.1 607.1,290.1 607.2,290.1 607.4,290.1 607.6,290.1 607.8,290.1 608.0,290.1 608.2,290.1 608.3,290.1 608.5,290.1 608.7,290.1 608.9,290.1 609.1,290.1 609.3,290.1 609.4,290.1 609.6,290.1 609.8,290.1 610.0,290.1 610.2,290.1 610.3,290.1 610.5,290.1 610.7,290.1 610.9,290.1 611.1,290.1 611.3,290.1 611.4,290.1 611.6,290.1 611.8,290.1 612.0,290.1 612.2,290.1 612.4,290.1 612.5,290.1 612.7,290.1 612.9,290.1 613.1,290.1 613.3,290.1 613.5,290.1 613.6,290.1 613.8,290.1 614.0,290.1 614.2,290.1 614.4,290.1 614.6,290.1 614.7,290.1 614.9,290.1 615.1,290.1 615.3,290.1 615.5,290.1 615.7,290.1 615.8,290.1 616.0,290.1 616.2,290.1 616.4,290.1 616.6,290.1 616.8,290.1 616.9,290.1 617.1,290.1 617.3,290.1 617.5,290.1 617.7,290.1 617.9,290.1 618.0,290.1 618.2,290.1 618.4,290.1 618.6,290.1 618.8,290.1 619.0,290.1 619.1,290.1 619.3,290.1 619.5,290.1 619.7,290.1 619.9,290.1 620.0,290.1 620.2,290.1 620.4,290.1 620.6,290.1 620.8,290.1 621.0,290.1 621.1,290.1 621.3,290.1 621.5,290.1 621.7,290.1 621.9,290.1 622.1,290.1 622.2,290.1 622.4,290.1 622.6,290.1 622.8,290.1 623.0,290.1 623.2,290.1 623.3,290.1 623.5,290.1 623.7,290.1 623.9,290.1 624.1,290.1 624.3,290.1 624.4,290.1 624.6,290.1 624.8,290.1 625.0,290.1 625.2,290.1 625.4,290.1 625.5,290.1 625.7,290.1 625.9,290.1 626.1,290.1 626.3,290.1 626.5,290.1 626.6,290.1 626.8,290.1 627.0,290.1 627.2,290.1 627.4,290.1 627.6,290.1 627.7,290.1 627.9,290.1 628.1,290.1 628.3,290.1 628.5,290.1 628.7,290.1 628.8,290.1 629.0,290.1 629.2,290.1 629.4,290.1 629.6,290.1 629.7,290.1 629.9,290.1 630.1,290.1 630.3,290.1 630.5,290.1 630.7,290.1 630.8,290.1 631.0,290.1 631.2,290.1 631.4,290.1 631.6,290.1 631.8,290.1 631.9,290.1 632.1,290.1 632.3,290.1 632.5,290.1 632.7,290.1 632.9,290.1 633.0,290.1 633.2,290.1 633.4,290.1 633.6,290.1 633.8,290.1 634.0,290.1 634.1,290.1 634.3,290.1 634.5,290.1 634.7,290.1 634.9,290.1 635.1,290.1 635.2,290.1 635.4,290.1 635.6,290.1 635.8,290.1 636.0,290.1 636.2,290.1 636.3,290.1 636.5,290.1 636.7,290.1 636.9,290.1 637.1,290.1 637.3,290.1 637.4,290.1 637.6,290.1 637.8,290.1 638.0,290.1 638.2,290.1 638.4,290.1 638.5,290.1 638.7,290.1 638.9,290.1 639.1,290.1 639.3,290.1 639.4,290.1 639.6,290.1 639.8,290.1 640.0,290.1 640.2,290.1 640.4,290.1 640.5,290.1 640.7,290.1 640.9,290.1 641.1,290.1 641.3,290.1 641.5,290.1 641.6,290.1 641.8,290.1 642.0,290.1 642.2,290.1 642.4,290.1 642.6,290.1 642.7,290.1 642.9,290.1 643.1,290.1 643.3,290.1 643.5,290.1 643.7,290.1 643.8,290.1 644.0,290.1 644.2,290.1 644.4,290.1 644.6,290.1 644.8,290.1 644.9,290.1 645.1,290.1 645.3,290.1 645.5,290.1 645.7,290.1 645.9,290.1 646.0,290.1 646.2,290.1 646.4,290.1 646.6,290.1 646.8,290.1 647.0,290.1 647.1,290.1 647.3,290.1 647.5,290.1 647.7,290.1 647.9,290.1 648.1,290.1 648.2,290.1 648.4,290.1 648.6,290.1 648.8,290.1 649.0,290.1 649.1,290.1 649.3,290.1 649.5,290.1 649.7,290.1 649.9,290.1 650.1,290.1 650.2,290.1 650.4,290.1 650.6,290.1 650.8,290.1 651.0,290.1 651.2,290.1 651.3,290.1 651.5,290.1 651.7,290.1 651.9,290.1 652.1,290.1 652.3,290.1 652.4,290.1 652.6,290.1 652.8,290.1 653.0,290.1 653.2,290.1 653.4,290.1 653.5,290.1 653.7,290.1 653.9,290.1 654.1,290.1 654.3,290.1 654.5,290.1 654.6,290.1 654.8,290.1 655.0,290.1 655.2,290.1 655.4,290.1 655.6,290.1 655.7,290.1 655.9,290.1 656.1,290.1 656.3,290.1 656.5,290.1 656.7,290.1 656.8,290.1 657.0,290.1 657.2,290.1 657.4,290.1 657.6,290.1 657.8,290.1 657.9,290.1 658.1,290.1 658.3,290.1 658.5,290.1 658.7,290.1 658.8,290.1 659.0,290.1 659.2,290.1 659.4,290.1 659.6,290.1 659.8,290.1 659.9,290.1 660.1,290.1 660.3,290.1 660.5,290.1 660.7,290.1 660.9,290.1 661.0,290.1 661.2,290.1 661.4,290.1 661.6,290.1 661.8,290.1 662.0,290.1 662.1,290.1 662.3,290.1 662.5,290.1 662.7,290.1 662.9,290.1 663.1,290.1 663.2,290.1 663.4,290.1 663.6,290.1 663.8,290.1 664.0,290.1 664.2,290.1 664.3,290.1 664.5,290.1 664.7,290.1 664.9,290.1 665.1,290.1 665.3,290.1 665.4,290.1 665.6,290.1 665.8,290.1 666.0,290.1 666.2,290.1 666.4,290.1 666.5,290.1 666.7,290.1 666.9,290.1 667.1,290.1 667.3,290.1 667.4,290.1 667.6,290.1 667.8,290.1 668.0,290.1 668.2,290.1 668.4,290.1 668.5,290.1 668.7,290.1 668.9,290.1 669.1,290.1 669.3,290.1 669.5,290.1 669.6,290.1 669.8,290.1 670.0,290.1 670.2,290.1 670.4,290.1 670.6,290.1 670.7,290.1 670.9,290.1 671.1,290.1 671.3,290.1 671.5,290.1 671.7,290.1 671.8,290.1 672.0,290.1 672.2,290.1 672.4,290.1 672.6,290.1 672.8,290.1 672.9,290.1 673.1,290.1 673.3,290.1 673.5,290.1 673.7,290.1 673.9,290.1 674.0,290.1 674.2,290.1 674.4,290.1 674.6,290.1 674.8,290.1 675.0,290.1 675.1,290.1 675.3,290.1 675.5,290.1 675.7,290.1 675.9,290.1 676.1,290.1 676.2,290.1 676.4,290.1 676.6,290.1 676.8,290.1 677.0,290.1 677.1,290.1 677.3,290.1 677.5,290.1 677.7,290.1 677.9,290.1 678.1,290.1 678.2,290.1 678.4,290.1 678.6,290.1 678.8,290.1 679.0,290.1 679.2,290.1 679.3,290.1 679.5,290.1 679.7,290.1 679.9,290.1 680.1,290.1 680.3,290.1 680.4,290.1 680.6,290.1 680.8,290.1 681.0,290.1 681.2,290.1 681.4,290.1 681.5,290.1 681.7,290.1 681.9,290.1 682.1,290.1 682.3,290.1 682.5,290.1 682.6,290.1 682.8,290.1 683.0,290.1 683.2,290.1 683.4,290.1 683.6,290.1 683.7,290.1 683.9,290.1 684.1,290.1 684.3,290.1 684.5,290.1 684.7,290.1 684.8,290.1 685.0,290.1 685.2,290.1 685.4,290.1 685.6,290.1 685.8,290.1 685.9,290.1 686.1,290.1 686.3,290.1 686.5,290.1 686.7,290.1 686.8,290.1 687.0,290.1 687.2,290.1 687.4,290.1 687.6,290.1 687.8,290.1 687.9,290.1 688.1,290.1 688.3,290.1 688.5,290.1 688.7,290.1 688.9,290.1 689.0,290.1 689.2,290.1 689.4,290.1 689.6,290.1 689.8,290.1 690.0,290.1 690.1,290.1 690.3,290.1 690.5,290.1 690.7,290.1 690.9,290.1 691.1,290.1 691.2,290.1 691.4,290.1 691.6,290.1 691.8,290.1 692.0,290.1 692.2,290.1 692.3,290.1 692.5,290.1 692.7,290.1 692.9,290.1 693.1,290.1 693.3,290.1 693.4,290.1 693.6,290.1 693.8,290.1 694.0,290.1 694.2,290.1 694.4,290.1 694.5,290.1 694.7,290.1 694.9,290.1 695.1,290.1 695.3,290.1 695.5,290.1 695.6,290.1 695.8,290.1 696.0,290.1"/>
  <text x="60" y="62" font-size="11" fill="#2563eb">Price index</text>
  <text x="146" y="62" font-size="11" fill="#16a34a">Total return (price + distributions)</text>
  <text x="56" y="348" font-size="11" text-anchor="middle" fill="#444">2012-08</text><text x="216" y="348" font-size="11" text-anchor="middle" fill="#444">2016-01</text><text x="376" y="348" font-size="11" text-anchor="middle" fill="#444">2019-07</text><text x="536" y="348" font-size="11" text-anchor="middle" fill="#444">2023-01</text><text x="696" y="348" font-size="11" text-anchor="middle" fill="#444">2026-07</text>
</svg>
