<svg xmlns="http://www.w3.org/2000/svg" width="820" height="410" viewBox="0 0 820 410">
<rect width="820" height="410" fill="#fafafa"/><text x="78" y="22" font-size="14" font-family="sans-serif" fill="#0f172a">BMNR cumulative return since 2025-06-05 | dividends reinvested</text>
<text x="78" y="40" font-size="11" font-family="sans-serif" fill="#334155">Total return +102.5% | Price-only +102.5% | logarithmic scale</text>
<text x="78" y="54" font-size="9" font-family="sans-serif" fill="#64748b">Regular $0.01 | Special $0.00 | Other $0.00 per initial share path</text>
<line x1="78" y1="332.0" x2="796" y2="332.0" stroke="#e2e8f0"/><text x="70" y="336.0" font-size="10" text-anchor="end" fill="#64748b">-55.3%</text><line x1="78" y1="287.0" x2="796" y2="287.0" stroke="#e2e8f0"/><text x="70" y="291.0" font-size="10" text-anchor="end" fill="#64748b">-14.8%</text><line x1="78" y1="275.9" x2="796" y2="275.9" stroke="#e2e8f0"/><text x="70" y="279.9" font-size="10" text-anchor="end" fill="#64748b">0%</text><line x1="78" y1="242.0" x2="796" y2="242.0" stroke="#e2e8f0"/><text x="70" y="246.0" font-size="10" text-anchor="end" fill="#64748b">+62.5%</text><line x1="78" y1="197.0" x2="796" y2="197.0" stroke="#e2e8f0"/><text x="70" y="201.0" font-size="10" text-anchor="end" fill="#64748b">+209.6%</text><line x1="78" y1="152.0" x2="796" y2="152.0" stroke="#e2e8f0"/><text x="70" y="156.0" font-size="10" text-anchor="end" fill="#64748b">+490.1%</text><line x1="78" y1="107.0" x2="796" y2="107.0" stroke="#e2e8f0"/><text x="70" y="111.0" font-size="10" text-anchor="end" fill="#64748b">+1,025%</text><line x1="78" y1="62.0" x2="796" y2="62.0" stroke="#e2e8f0"/><text x="70" y="66.0" font-size="10" text-anchor="end" fill="#64748b">+2,043%</text>
<line x1="78" y1="332" x2="796" y2="332" stroke="#cbd5e1"/>
<polyline fill="none" stroke="#2563eb" stroke-width="2" points="78.0,275.9 80.6,277.7 83.1,284.1 85.7,285.5 88.3,290.3 90.9,298.4 93.4,307.0 96.0,310.0 98.6,309.0 101.2,310.8 103.7,312.1 106.3,315.4 108.9,315.0 111.5,315.8 114.0,315.0 116.6,317.5 119.2,172.9 121.7,151.6 124.3,134.8 126.9,76.5 129.5,92.4 132.0,89.8 134.6,125.6 137.2,151.6 139.8,160.3 142.3,159.6 144.9,161.4 147.5,153.4 150.1,158.1 152.6,157.4 155.2,162.1 157.8,160.8 160.4,162.2 162.9,158.4 165.5,161.7 168.1,170.4 170.6,176.9 173.2,171.9 175.8,171.4 178.4,177.6 180.9,178.8 183.5,174.1 186.1,164.1 188.7,159.1 191.2,143.8 193.8,134.2 196.4,130.3 199.0,131.2 201.5,132.5 204.1,135.6 206.7,139.3 209.2,146.1 211.8,143.0 214.4,149.0 217.0,141.1 219.5,146.3 222.1,145.8 224.7,151.5 227.3,152.2 229.8,155.3 232.4,157.1 235.0,153.3 237.6,157.6 240.1,157.9 242.7,155.0 245.3,153.7 247.8,152.2 250.4,148.9 253.0,139.0 255.6,141.6 258.1,138.0 260.7,136.5 263.3,133.1 265.9,131.6 268.4,139.0 271.0,139.8 273.6,143.1 276.2,146.4 278.7,145.1 281.3,141.4 283.9,143.1 286.5,142.6 289.0,137.2 291.6,137.1 294.2,129.4 296.7,134.0 299.3,133.0 301.9,134.1 304.5,142.4 307.0,136.8 309.6,141.8 312.2,140.7 314.8,144.3 317.3,146.0 319.9,140.7 322.5,143.2 325.1,148.6 327.6,146.9 330.2,145.2 332.8,140.8 335.3,142.3 337.9,146.1 340.5,153.8 343.1,150.6 345.6,156.5 348.2,162.3 350.8,158.9 353.4,166.1 355.9,160.9 358.5,159.4 361.1,162.1 363.7,160.4 366.2,167.6 368.8,171.9 371.4,179.2 373.9,176.3 376.5,183.3 379.1,191.3 381.7,191.4 384.2,178.9 386.8,184.0 389.4,177.5 392.0,174.5 394.5,183.9 397.1,177.1 399.7,173.4 402.3,168.1 404.8,172.6 407.4,169.0 410.0,162.7 412.6,160.6 415.1,164.2 417.7,170.9 420.3,179.2 422.8,178.3 425.4,183.0 428.0,185.2 430.6,178.3 433.1,178.9 435.7,181.9 438.3,182.9 440.9,185.5 443.4,184.9 446.0,186.9 448.6,188.4 451.2,178.7 453.7,174.0 456.3,176.2 458.9,180.6 461.4,178.5 464.0,181.3 466.6,178.8 469.2,178.6 471.7,175.5 474.3,179.4 476.9,178.8 479.5,185.6 482.0,182.9 484.6,184.0 487.2,184.3 489.8,186.7 492.3,183.0 494.9,182.3 497.5,189.5 500.1,193.9 502.6,200.6 505.2,202.0 507.8,208.7 510.3,219.4 512.9,208.1 515.5,204.8 518.1,209.9 520.6,211.6 523.2,210.6 525.8,206.4 528.4,209.2 530.9,210.3 533.5,209.8 536.1,209.3 538.7,212.5 541.2,211.7 543.8,204.7 546.4,208.2 548.9,213.4 551.5,208.3 554.1,211.2 556.7,205.9 559.2,208.5 561.8,213.7 564.4,207.3 567.0,207.2 569.5,206.1 572.1,207.8 574.7,207.8 577.3,198.8 579.8,199.3 582.4,205.0 585.0,205.8 587.5,206.5 590.1,205.4 592.7,207.0 595.3,205.5 597.8,211.6 600.4,215.6 603.0,215.9 605.6,210.5 608.1,210.8 610.7,211.7 613.3,207.6 615.9,209.1 618.4,204.6 621.0,206.0 623.6,205.4 626.2,204.6 628.7,204.7 631.3,202.0 633.9,201.7 636.4,200.1 639.0,201.4 641.6,204.0 644.2,199.0 646.7,203.1 649.3,202.6 651.9,204.5 654.5,204.7 657.0,207.4 659.6,205.0 662.2,203.4 664.8,200.6 667.3,199.7 669.9,200.2 672.5,203.1 675.0,202.5 677.6,199.9 680.2,204.1 682.8,205.7 685.3,203.1 687.9,210.2 690.5,214.3 693.1,214.7 695.6,211.9 698.2,211.1 700.8,213.7 703.4,212.6 705.9,214.0 708.5,212.4 711.1,212.3 713.6,213.8 716.2,217.2 718.8,221.5 721.4,217.5 723.9,225.7 726.5,221.7 729.1,224.4 731.7,226.9 734.2,223.0 736.8,224.8 739.4,220.6 742.0,224.4 744.5,226.6 747.1,224.7 749.7,225.9 752.3,229.2 754.8,234.5 757.4,238.1 760.0,236.8 762.5,235.6 765.1,238.1 767.7,233.9 770.3,232.8 772.8,227.3 775.4,230.7 778.0,230.4 780.6,231.2 783.1,229.9 785.7,231.6 788.3,224.0 790.9,226.2 793.4,227.8 796.0,226.6"/><polyline fill="none" stroke="#16a34a" stroke-width="3" points="78.0,275.9 80.6,277.7 83.1,284.1 85.7,285.5 88.3,290.3 90.9,298.4 93.4,307.0 96.0,310.0 98.6,309.0 101.2,310.8 103.7,312.1 106.3,315.4 108.9,315.0 111.5,315.8 114.0,315.0 116.6,317.5 119.2,172.9 121.7,151.6 124.3,134.8 126.9,76.5 129.5,92.4 132.0,89.8 134.6,125.6 137.2,151.6 139.8,160.3 142.3,159.6 144.9,161.4 147.5,153.4 150.1,158.1 152.6,157.4 155.2,162.1 157.8,160.8 160.4,162.2 162.9,158.4 165.5,161.7 168.1,170.4 170.6,176.9 173.2,171.9 175.8,171.4 178.4,177.6 180.9,178.8 183.5,174.1 186.1,164.1 188.7,159.1 191.2,143.8 193.8,134.2 196.4,130.3 199.0,131.2 201.5,132.5 204.1,135.6 206.7,139.3 209.2,146.1 211.8,143.0 214.4,149.0 217.0,141.1 219.5,146.3 222.1,145.8 224.7,151.5 227.3,152.2 229.8,155.3 232.4,157.1 235.0,153.3 237.6,157.6 240.1,157.9 242.7,155.0 245.3,153.7 247.8,152.2 250.4,148.9 253.0,139.0 255.6,141.6 258.1,138.0 260.7,136.5 263.3,133.1 265.9,131.6 268.4,139.0 271.0,139.8 273.6,143.1 276.2,146.4 278.7,145.1 281.3,141.4 283.9,143.1 286.5,142.6 289.0,137.2 291.6,137.1 294.2,129.4 296.7,134.0 299.3,133.0 301.9,134.1 304.5,142.4 307.0,136.8 309.6,141.8 312.2,140.7 314.8,144.3 317.3,146.0 319.9,140.7 322.5,143.2 325.1,148.6 327.6,146.9 330.2,145.2 332.8,140.8 335.3,142.3 337.9,146.1 340.5,153.8 343.1,150.6 345.6,156.5 348.2,162.3 350.8,158.9 353.4,166.1 355.9,160.9 358.5,159.4 361.1,162.1 363.7,160.4 366.2,167.6 368.8,171.9 371.4,179.2 373.9,176.3 376.5,183.3 379.1,191.3 381.7,191.4 384.2,178.9 386.8,184.0 389.4,177.5 392.0,174.5 394.5,183.9 397.1,177.1 399.7,173.4 402.3,168.1 404.8,172.6 407.4,169.0 410.0,162.7 412.6,160.6 415.1,164.2 417.7,170.9 420.3,179.2 422.8,178.2 425.4,183.0 428.0,185.1 430.6,178.3 433.1,178.9 435.7,181.9 438.3,182.9 440.9,185.4 443.4,184.9 446.0,186.9 448.6,188.4 451.2,178.7 453.7,174.0 456.3,176.2 458.9,180.6 461.4,178.5 464.0,181.3 466.6,178.8 469.2,178.6 471.7,175.5 474.3,179.4 476.9,178.7 479.5,185.6 482.0,182.9 484.6,184.0 487.2,184.2 489.8,186.7 492.3,183.0 494.9,182.3 497.5,189.5 500.1,193.8 502.6,200.5 505.2,201.9 507.8,208.7 510.3,219.4 512.9,208.1 515.5,204.8 518.1,209.9 520.6,211.6 523.2,210.6 525.8,206.4 528.4,209.2 530.9,210.3 533.5,209.8 536.1,209.2 538.7,212.5 541.2,211.7 543.8,204.6 546.4,208.2 548.9,213.3 551.5,208.3 554.1,211.2 556.7,205.9 559.2,208.5 561.8,213.7 564.4,207.3 567.0,207.2 569.5,206.1 572.1,207.8 574.7,207.8 577.3,198.8 579.8,199.2 582.4,204.9 585.0,205.8 587.5,206.5 590.1,205.4 592.7,207.0 595.3,205.5 597.8,211.6 600.4,215.5 603.0,215.9 605.6,210.5 608.1,210.8 610.7,211.6 613.3,207.6 615.9,209.1 618.4,204.6 621.0,206.0 623.6,205.4 626.2,204.6 628.7,204.7 631.3,202.0 633.9,201.7 636.4,200.1 639.0,201.4 641.6,204.0 644.2,199.0 646.7,203.0 649.3,202.6 651.9,204.5 654.5,204.7 657.0,207.4 659.6,205.0 662.2,203.4 664.8,200.6 667.3,199.6 669.9,200.2 672.5,203.0 675.0,202.5 677.6,199.9 680.2,204.1 682.8,205.7 685.3,203.0 687.9,210.1 690.5,214.3 693.1,214.6 695.6,211.9 698.2,211.1 700.8,213.7 703.4,212.5 705.9,213.9 708.5,212.4 711.1,212.3 713.6,213.8 716.2,217.2 718.8,221.4 721.4,217.5 723.9,225.7 726.5,221.6 729.1,224.4 731.7,226.8 734.2,223.0 736.8,224.8 739.4,220.6 742.0,224.3 744.5,226.6 747.1,224.7 749.7,225.9 752.3,229.2 754.8,234.5 757.4,238.1 760.0,236.8 762.5,235.6 765.1,238.1 767.7,233.8 770.3,232.8 772.8,227.3 775.4,230.7 778.0,230.4 780.6,231.2 783.1,229.9 785.7,231.6 788.3,224.0 790.9,226.2 793.4,227.7 796.0,226.6"/>
<text x="78" y="392" font-size="11" fill="#16a34a">Total return +102.5%</text><text x="268" y="392" font-size="11" fill="#2563eb">Price-only +102.5%</text><text x="78" y="362" font-size="11" text-anchor="middle" fill="#64748b">2025-06</text><text x="258" y="362" font-size="11" text-anchor="middle" fill="#64748b">2025-09</text><text x="438" y="362" font-size="11" text-anchor="middle" fill="#64748b">2025-12</text><text x="618" y="362" font-size="11" text-anchor="middle" fill="#64748b">2026-04</text><text x="796" y="362" font-size="11" text-anchor="middle" fill="#64748b">2026-07</text></svg>