<svg xmlns="http://www.w3.org/2000/svg" width="720" height="360" viewBox="0 0 720 360">
  <rect width="720" height="360" fill="#fafafa"/>
  <text x="56" y="22" font-size="13" font-family="sans-serif" fill="#222">OTCM total return (rebased 100) · cumulative distributions $0.00/sh · market cap n/a</text>
  <line x1="56" y1="308" x2="696" y2="308" stroke="#ccc"/>
  <line x1="56" y1="48" x2="56" y2="308" stroke="#ccc"/>
  <polyline fill="none" stroke="#2563eb" stroke-width="2" points="56.0,285.5 56.2,285.5 56.3,285.5 56.5,285.5 56.7,285.5 56.8,285.1 57.0,284.7 57.1,284.7 57.3,284.7 57.5,284.7 57.6,284.7 57.8,286.0 58.0,286.0 58.1,286.0 58.3,286.0 58.4,286.0 58.6,286.0 58.8,286.0 58.9,286.0 59.1,286.0 59.3,286.0 59.4,286.0 59.6,286.0 59.7,286.0 59.9,286.0 60.1,286.0 60.2,286.0 60.4,285.1 60.6,285.1 60.7,285.1 60.9,285.1 61.0,285.1 61.2,285.1 61.4,285.1 61.5,285.7 61.7,285.7 61.9,285.8 62.0,286.0 62.2,286.0 62.3,286.0 62.5,284.9 62.7,284.9 62.8,286.4 63.0,286.4 63.2,286.4 63.3,286.4 63.5,286.0 63.6,285.8 63.8,285.8 64.0,285.8 64.1,285.8 64.3,286.0 64.5,286.0 64.6,286.1 64.8,286.1 64.9,286.1 65.1,286.1 65.3,286.1 65.4,286.1 65.6,286.1 65.8,285.2 65.9,285.2 66.1,285.7 66.2,285.7 66.4,285.7 66.6,285.7 66.7,285.7 66.9,286.0 67.1,286.2 67.2,286.0 67.4,286.0 67.5,286.0 67.7,286.0 67.9,286.0 68.0,286.0 68.2,286.0 68.4,286.0 68.5,286.6 68.7,286.6 68.8,286.9 69.0,286.9 69.2,287.0 69.3,286.9 69.5,286.4 69.7,286.4 69.8,286.4 70.0,286.8 70.1,286.0 70.3,286.0 70.5,286.0 70.6,286.0 70.8,286.0 71.0,286.4 71.1,286.4 71.3,286.4 71.5,286.4 71.6,286.4 71.8,286.4 71.9,286.4 72.1,286.4 72.3,286.4 72.4,286.4 72.6,286.4 72.8,285.8 72.9,286.8 73.1,286.6 73.2,285.8 73.4,285.8 73.6,285.8 73.7,285.8 73.9,285.8 74.1,285.8 74.2,285.8 74.4,285.8 74.5,285.8 74.7,285.8 74.9,286.9 75.0,286.9 75.2,287.9 75.4,286.2 75.5,286.2 75.7,286.4 75.8,286.4 76.0,286.4 76.2,286.4 76.3,286.2 76.5,286.2 76.7,286.2 76.8,286.6 77.0,286.4 77.1,287.1 77.3,287.1 77.5,287.1 77.6,287.1 77.8,287.1 78.0,287.1 78.1,287.1 78.3,287.1 78.4,287.1 78.6,287.1 78.8,286.6 78.9,286.8 79.1,286.8 79.3,286.8 79.4,287.2 79.6,287.2 79.7,287.8 79.9,287.8 80.1,287.8 80.2,287.1 80.4,286.9 80.6,286.9 80.7,286.9 80.9,286.9 81.0,286.9 81.2,286.9 81.4,286.9 81.5,287.1 81.7,287.1 81.9,287.1 82.0,287.1 82.2,287.1 82.3,287.1 82.5,287.1 82.7,287.1 82.8,287.1 83.0,287.1 83.2,287.1 83.3,287.7 83.5,287.7 83.6,287.7 83.8,285.7 84.0,286.9 84.1,286.9 84.3,286.9 84.5,286.9 84.6,286.8 84.8,286.8 85.0,286.8 85.1,286.9 85.3,286.9 85.4,285.7 85.6,285.7 85.8,286.9 85.9,286.9 86.1,286.9 86.3,287.5 86.4,287.5 86.6,287.5 86.7,287.5 86.9,287.5 87.1,287.5 87.2,286.9 87.4,287.7 87.6,287.8 87.7,287.1 87.9,287.1 88.0,287.9 88.2,287.9 88.4,287.9 88.5,287.9 88.7,288.2 88.9,288.3 89.0,289.0 89.2,289.0 89.3,289.0 89.5,289.0 89.7,289.0 89.8,289.0 90.0,289.0 90.2,286.4 90.3,286.4 90.5,288.6 90.6,288.4 90.8,288.4 91.0,288.4 91.1,288.4 91.3,288.0 91.5,288.0 91.6,288.0 91.8,288.0 91.9,288.0 92.1,289.3 92.3,289.3 92.4,289.3 92.6,289.3 92.8,289.3 92.9,289.5 93.1,289.5 93.2,289.5 93.4,289.5 93.6,289.5 93.7,289.5 93.9,289.5 94.1,289.5 94.2,289.2 94.4,289.2 94.5,289.2 94.7,289.2 94.9,289.2 95.0,290.1 95.2,290.1 95.4,290.0 95.5,290.0 95.7,290.0 95.8,290.0 96.0,290.0 96.2,290.0 96.3,290.0 96.5,289.7 96.7,289.7 96.8,289.7 97.0,289.7 97.1,289.7 97.3,289.7 97.5,289.7 97.6,289.7 97.8,289.7 98.0,289.7 98.1,289.7 98.3,289.2 98.4,289.2 98.6,289.2 98.8,289.2 98.9,289.3 99.1,289.4 99.3,289.7 99.4,289.7 99.6,289.7 99.8,289.7 99.9,289.7 100.1,289.3 100.2,289.3 100.4,289.6 100.6,289.7 100.7,289.7 100.9,289.7 101.1,289.7 101.2,289.3 101.4,289.3 101.5,289.3 101.7,289.3 101.9,289.3 102.0,289.3 102.2,289.0 102.4,289.0 102.5,289.0 102.7,289.0 102.8,289.0 103.0,289.0 103.2,289.0 103.3,289.0 103.5,289.0 103.7,289.0 103.8,289.0 104.0,289.0 104.1,289.0 104.3,289.0 104.5,288.6 104.6,289.0 104.8,289.0 105.0,289.0 105.1,289.0 105.3,289.1 105.4,288.4 105.6,288.4 105.8,288.6 105.9,288.6 106.1,287.8 106.3,287.8 106.4,287.8 106.6,287.8 106.7,287.8 106.9,287.8 107.1,287.8 107.2,287.8 107.4,287.8 107.6,287.8 107.7,286.0 107.9,286.4 108.0,286.4 108.2,286.8 108.4,286.8 108.5,286.8 108.7,286.8 108.9,286.8 109.0,286.8 109.2,286.9 109.3,286.9 109.5,286.9 109.7,286.9 109.8,286.2 110.0,286.2 110.2,286.1 110.3,284.9 110.5,285.1 110.6,284.2 110.8,284.2 111.0,284.2 111.1,284.9 111.3,284.9 111.5,285.3 111.6,284.2 111.8,285.1 111.9,285.1 112.1,285.1 112.3,285.1 112.4,285.1 112.6,285.1 112.8,285.3 112.9,285.3 113.1,285.3 113.3,285.3 113.4,284.7 113.6,285.0 113.7,284.9 113.9,284.9 114.1,284.7 114.2,284.7 114.4,284.6 114.6,284.6 114.7,284.6 114.9,284.9 115.0,284.2 115.2,284.2 115.4,283.3 115.5,283.3 115.7,283.1 115.9,283.1 116.0,283.5 116.2,283.5 116.3,283.5 116.5,283.5 116.7,283.5 116.8,283.5 117.0,283.5 117.2,284.2 117.3,284.2 117.5,284.2 117.6,284.2 117.8,284.2 118.0,284.2 118.1,284.0 118.3,283.8 118.5,283.8 118.6,283.8 118.8,283.8 118.9,283.8 119.1,283.8 119.3,283.8 119.4,283.8 119.6,283.8 119.8,282.9 119.9,282.9 120.1,282.9 120.2,282.9 120.4,282.9 120.6,283.5 120.7,283.3 120.9,283.3 121.1,283.5 121.2,283.5 121.4,282.9 121.5,282.7 121.7,282.5 121.9,282.5 122.0,282.4 122.2,284.7 122.4,284.7 122.5,284.7 122.7,284.2 122.8,284.4 123.0,284.4 123.2,284.4 123.3,284.2 123.5,284.2 123.7,284.2 123.8,284.4 124.0,284.4 124.1,284.4 124.3,284.4 124.5,284.4 124.6,284.4 124.8,284.4 125.0,284.4 125.1,284.4 125.3,284.4 125.4,284.4 125.6,284.2 125.8,282.9 125.9,282.9 126.1,282.9 126.3,282.9 126.4,283.1 126.6,282.9 126.7,282.4 126.9,282.4 127.1,283.1 127.2,283.1 127.4,282.4 127.6,282.4 127.7,282.4 127.9,282.4 128.1,282.4 128.2,282.4 128.4,282.4 128.5,282.4 128.7,282.4 128.9,282.4 129.0,282.3 129.2,282.3 129.4,282.3 129.5,282.3 129.7,284.2 129.8,284.2 130.0,281.2 130.2,281.2 130.3,281.2 130.5,281.2 130.7,281.2 130.8,281.4 131.0,281.4 131.1,281.1 131.3,281.8 131.5,282.0 131.6,282.0 131.8,282.0 132.0,282.0 132.1,282.4 132.3,282.4 132.4,282.4 132.6,282.4 132.8,282.4 132.9,282.0 133.1,282.0 133.3,282.0 133.4,282.0 133.6,282.0 133.7,282.0 133.9,282.0 134.1,282.0 134.2,282.4 134.4,282.4 134.6,282.4 134.7,281.4 134.9,281.1 135.0,281.1 135.2,281.0 135.4,281.1 135.5,281.1 135.7,281.1 135.9,281.1 136.0,281.1 136.2,281.1 136.3,281.1 136.5,280.5 136.7,280.5 136.8,280.5 137.0,279.6 137.2,279.0 137.3,279.2 137.5,279.2 137.6,279.2 137.8,279.0 138.0,279.0 138.1,279.0 138.3,279.2 138.5,279.2 138.6,279.4 138.8,279.0 138.9,279.0 139.1,279.0 139.3,279.2 139.4,279.2 139.6,279.2 139.8,279.2 139.9,279.2 140.1,280.8 140.2,280.8 140.4,280.8 140.6,280.8 140.7,279.2 140.9,279.0 141.1,281.8 141.2,280.9 141.4,280.9 141.6,280.8 141.7,280.7 141.9,280.7 142.0,281.2 142.2,281.2 142.4,281.2 142.5,281.2 142.7,281.2 142.9,281.2 143.0,281.2 143.2,280.7 143.3,280.7 143.5,280.7 143.7,281.1 143.8,281.1 144.0,281.1 144.2,281.1 144.3,281.1 144.5,281.1 144.6,281.1 144.8,281.1 145.0,281.1 145.1,281.1 145.3,279.0 145.5,279.9 145.6,279.9 145.8,280.5 145.9,280.5 146.1,280.5 146.3,280.3 146.4,280.3 146.6,280.3 146.8,280.3 146.9,280.3 147.1,280.3 147.2,280.3 147.4,279.7 147.6,279.7 147.7,279.9 147.9,279.9 148.1,279.9 148.2,279.8 148.4,279.8 148.5,279.9 148.7,279.8 148.9,279.4 149.0,279.6 149.2,279.1 149.4,279.1 149.5,279.0 149.7,279.3 149.8,278.9 150.0,278.9 150.2,279.0 150.3,279.0 150.5,279.0 150.7,279.0 150.8,279.0 151.0,279.0 151.1,278.9 151.3,278.9 151.5,278.7 151.6,278.7 151.8,278.7 152.0,278.3 152.1,278.3 152.3,278.3 152.4,278.3 152.6,278.3 152.8,278.3 152.9,278.3 153.1,278.5 153.3,278.3 153.4,278.3 153.6,278.3 153.7,278.3 153.9,278.3 154.1,278.3 154.2,278.3 154.4,278.3 154.6,278.7 154.7,279.6 154.9,279.2 155.0,278.7 155.2,278.7 155.4,278.7 155.5,278.7 155.7,278.7 155.9,278.7 156.0,278.3 156.2,278.7 156.4,278.7 156.5,279.4 156.7,278.6 156.8,278.7 157.0,278.7 157.2,278.7 157.3,278.7 157.5,278.7 157.7,278.7 157.8,278.7 158.0,278.7 158.1,278.7 158.3,278.7 158.5,278.7 158.6,278.7 158.8,278.7 159.0,278.7 159.1,278.1 159.3,278.1 159.4,278.1 159.6,278.1 159.8,278.5 159.9,278.5 160.1,278.5 160.3,277.8 160.4,277.9 160.6,277.9 160.7,277.9 160.9,277.0 161.1,277.9 161.2,278.3 161.4,278.5 161.6,277.0 161.7,277.0 161.9,277.0 162.0,277.9 162.2,277.8 162.4,278.1 162.5,278.1 162.7,278.1 162.9,277.8 163.0,277.9 163.2,277.9 163.3,277.9 163.5,278.1 163.7,278.1 163.8,278.1 164.0,278.1 164.2,278.1 164.3,278.1 164.5,278.1 164.6,278.1 164.8,278.1 165.0,278.3 165.1,278.3 165.3,278.3 165.5,278.3 165.6,277.9 165.8,278.7 165.9,278.7 166.1,278.3 166.3,278.3 166.4,278.3 166.6,278.3 166.8,278.3 166.9,278.3 167.1,278.3 167.2,278.3 167.4,278.3 167.6,278.3 167.7,278.7 167.9,278.7 168.1,278.7 168.2,278.7 168.4,278.7 168.5,278.7 168.7,278.7 168.9,278.7 169.0,278.7 169.2,278.7 169.4,278.7 169.5,277.2 169.7,277.2 169.9,277.2 170.0,277.9 170.2,277.9 170.3,277.9 170.5,278.1 170.7,278.1 170.8,278.1 171.0,278.7 171.2,278.7 171.3,278.7 171.5,278.7 171.6,278.7 171.8,278.7 172.0,278.9 172.1,278.7 172.3,278.9 172.5,278.9 172.6,279.0 172.8,279.0 172.9,279.7 173.1,279.6 173.3,279.6 173.4,279.6 173.6,279.6 173.8,279.6 173.9,279.6 174.1,279.6 174.2,279.6 174.4,279.6 174.6,279.6 174.7,279.6 174.9,279.8 175.1,279.9 175.2,279.7 175.4,280.0 175.5,279.7 175.7,279.4 175.9,279.4 176.0,279.4 176.2,279.3 176.4,279.6 176.5,279.6 176.7,279.6 176.8,279.6 177.0,280.0 177.2,279.8 177.3,280.0 177.5,279.4 177.7,279.4 177.8,280.0 178.0,280.0 178.1,280.1 178.3,280.1 178.5,280.1 178.6,280.1 178.8,280.0 179.0,280.1 179.1,280.1 179.3,279.9 179.4,279.9 179.6,279.9 179.8,279.9 179.9,280.1 180.1,280.1 180.3,280.1 180.4,280.1 180.6,280.1 180.7,280.1 180.9,279.4 181.1,279.4 181.2,279.4 181.4,279.6 181.6,279.6 181.7,279.6 181.9,279.7 182.0,279.8 182.2,279.8 182.4,279.4 182.5,279.4 182.7,279.7 182.9,278.3 183.0,278.3 183.2,279.7 183.3,279.7 183.5,279.6 183.7,279.6 183.8,279.6 184.0,279.6 184.2,279.4 184.3,279.6 184.5,279.6 184.7,279.6 184.8,279.6 185.0,279.6 185.1,279.6 185.3,279.6 185.5,279.6 185.6,279.6 185.8,279.7 186.0,279.7 186.1,279.7 186.3,279.7 186.4,279.7 186.6,279.7 186.8,279.7 186.9,278.7 187.1,279.6 187.3,279.6 187.4,279.6 187.6,279.6 187.7,279.4 187.9,279.4 188.1,279.8 188.2,279.8 188.4,279.6 188.6,279.6 188.7,279.6 188.9,278.7 189.0,278.7 189.2,279.0 189.4,279.0 189.5,279.0 189.7,279.0 189.9,279.6 190.0,279.8 190.2,279.6 190.3,279.6 190.5,280.1 190.7,280.1 190.8,280.0 191.0,280.1 191.2,280.0 191.3,280.1 191.5,280.1 191.6,279.6 191.8,279.8 192.0,279.2 192.1,279.6 192.3,279.8 192.5,277.2 192.6,278.7 192.8,278.7 192.9,277.2 193.1,278.1 193.3,277.9 193.4,277.9 193.6,277.9 193.8,277.9 193.9,277.9 194.1,277.9 194.2,277.7 194.4,277.8 194.6,277.8 194.7,277.7 194.9,277.7 195.1,277.6 195.2,277.8 195.4,277.6 195.5,277.6 195.7,277.6 195.9,277.6 196.0,277.8 196.2,277.7 196.4,277.5 196.5,277.5 196.7,277.5 196.8,277.5 197.0,277.0 197.2,276.8 197.3,276.8 197.5,276.8 197.7,276.8 197.8,276.8 198.0,276.8 198.1,276.8 198.3,276.2 198.5,276.2 198.6,276.2 198.8,276.2 199.0,276.3 199.1,276.3 199.3,276.3 199.5,276.3 199.6,276.3 199.8,276.3 199.9,276.3 200.1,276.3 200.3,276.3 200.4,276.3 200.6,276.3 200.8,276.3 200.9,276.3 201.1,276.3 201.2,276.3 201.4,275.7 201.6,275.7 201.7,275.9 201.9,275.9 202.1,275.9 202.2,275.9 202.4,275.9 202.5,276.3 202.7,276.3 202.9,275.6 203.0,273.7 203.2,273.7 203.4,273.7 203.5,272.4 203.7,272.4 203.8,273.7 204.0,271.9 204.2,273.7 204.3,270.7 204.5,270.7 204.7,270.4 204.8,270.4 205.0,270.4 205.1,270.4 205.3,270.4 205.5,270.2 205.6,270.2 205.8,270.2 206.0,270.2 206.1,270.2 206.3,270.2 206.4,270.2 206.6,270.2 206.8,269.1 206.9,269.5 207.1,267.7 207.3,266.7 207.4,266.9 207.6,266.7 207.7,265.8 207.9,267.4 208.1,267.4 208.2,267.4 208.4,266.5 208.6,261.2 208.7,262.3 208.9,261.3 209.0,262.1 209.2,261.3 209.4,261.3 209.5,261.3 209.7,264.0 209.9,264.0 210.0,264.0 210.2,263.5 210.3,263.5 210.5,264.0 210.7,263.4 210.8,264.0 211.0,264.0 211.2,263.2 211.3,263.2 211.5,263.2 211.6,263.2 211.8,263.1 212.0,263.2 212.1,263.1 212.3,263.1 212.5,263.6 212.6,263.4 212.8,263.4 213.0,264.2 213.1,263.1 213.3,263.1 213.4,263.1 213.6,263.1 213.8,263.1 213.9,262.1 214.1,262.1 214.3,261.0 214.4,261.6 214.6,261.0 214.7,261.0 214.9,261.0 215.1,261.0 215.2,261.6 215.4,262.1 215.6,261.2 215.7,261.2 215.9,261.2 216.0,261.6 216.2,261.6 216.4,260.7 216.5,260.7 216.7,260.7 216.9,260.7 217.0,260.9 217.2,260.7 217.3,260.7 217.5,260.7 217.7,260.7 217.8,260.7 218.0,260.7 218.2,260.3 218.3,260.3 218.5,260.3 218.6,260.1 218.8,258.8 219.0,257.9 219.1,257.9 219.3,257.0 219.5,255.2 219.6,256.6 219.8,255.7 219.9,260.3 220.1,256.2 220.3,255.7 220.4,255.9 220.6,255.5 220.8,255.7 220.9,255.5 221.1,255.5 221.2,255.5 221.4,255.4 221.6,254.8 221.7,254.8 221.9,254.8 222.1,254.8 222.2,254.8 222.4,254.4 222.5,255.2 222.7,255.2 222.9,255.1 223.0,254.1 223.2,256.4 223.4,256.4 223.5,256.4 223.7,255.3 223.8,255.3 224.0,255.3 224.2,255.2 224.3,255.2 224.5,255.2 224.7,254.8 224.8,254.8 225.0,254.8 225.1,254.8 225.3,254.8 225.5,254.8 225.6,254.8 225.8,255.2 226.0,255.2 226.1,255.2 226.3,255.2 226.4,255.2 226.6,255.2 226.8,254.8 226.9,253.4 227.1,253.7 227.3,253.7 227.4,253.4 227.6,253.4 227.8,253.4 227.9,253.4 228.1,255.1 228.2,255.3 228.4,255.3 228.6,255.7 228.7,257.5 228.9,257.4 229.1,256.6 229.2,256.4 229.4,257.4 229.5,257.4 229.7,256.7 229.9,257.4 230.0,257.4 230.2,257.7 230.4,257.7 230.5,257.4 230.7,257.3 230.8,256.3 231.0,256.3 231.2,256.3 231.3,256.6 231.5,255.5 231.7,256.6 231.8,255.5 232.0,256.6 232.1,255.2 232.3,256.6 232.5,251.7 232.6,254.6 232.8,253.9 233.0,253.7 233.1,251.7 233.3,253.0 233.4,253.0 233.6,253.0 233.8,251.8 233.9,251.7 234.1,251.7 234.3,251.7 234.4,251.3 234.6,251.8 234.7,251.1 234.9,251.5 235.1,252.0 235.2,251.3 235.4,251.2 235.6,250.7 235.7,250.7 235.9,249.1 236.0,249.1 236.2,249.1 236.4,246.9 236.5,246.9 236.7,246.9 236.9,246.9 237.0,246.9 237.2,247.4 237.3,247.4 237.5,247.4 237.7,247.4 237.8,247.4 238.0,247.8 238.2,247.6 238.3,248.9 238.5,248.2 238.6,248.2 238.8,248.2 239.0,249.3 239.1,250.3 239.3,250.2 239.5,250.0 239.6,250.4 239.8,250.4 239.9,250.4 240.1,251.1 240.3,250.7 240.4,251.1 240.6,250.4 240.8,249.3 240.9,249.3 241.1,249.3 241.3,249.3 241.4,250.0 241.6,249.3 241.7,248.9 241.9,248.9 242.1,249.3 242.2,249.3 242.4,250.2 242.6,250.2 242.7,250.2 242.9,251.1 243.0,251.3 243.2,251.3 243.4,249.5 243.5,251.1 243.7,250.2 243.9,250.2 244.0,247.4 244.2,247.4 244.3,247.4 244.5,247.4 244.7,247.4 244.8,248.4 245.0,248.7 245.2,248.5 245.3,248.5 245.5,248.5 245.6,248.5 245.8,248.5 246.0,248.5 246.1,248.4 246.3,248.4 246.5,248.4 246.6,248.4 246.8,249.3 246.9,249.3 247.1,249.3 247.3,249.3 247.4,249.3 247.6,249.3 247.8,248.4 247.9,250.2 248.1,251.4 248.2,253.0 248.4,253.3 248.6,253.3 248.7,253.3 248.9,250.2 249.1,249.8 249.2,253.9 249.4,254.2 249.5,254.4 249.7,255.9 249.9,255.2 250.0,255.2 250.2,255.2 250.4,255.2 250.5,253.7 250.7,255.2 250.8,254.8 251.0,254.8 251.2,254.6 251.3,255.9 251.5,254.6 251.7,254.8 251.8,255.2 252.0,255.7 252.1,255.5 252.3,255.9 252.5,255.7 252.6,256.0 252.8,254.8 253.0,253.9 253.1,253.9 253.3,253.9 253.4,254.3 253.6,254.1 253.8,254.1 253.9,254.8 254.1,254.8 254.3,255.0 254.4,255.2 254.6,257.0 254.7,256.0 254.9,256.0 255.1,255.5 255.2,255.8 255.4,255.9 255.6,255.9 255.7,256.6 255.9,256.4 256.1,256.4 256.2,256.2 256.4,256.6 256.5,256.6 256.7,256.6 256.9,256.5 257.0,256.6 257.2,256.4 257.4,256.6 257.5,256.6 257.7,256.4 257.8,256.4 258.0,256.4 258.2,256.6 258.3,256.6 258.5,256.6 258.7,256.5 258.8,256.3 259.0,256.6 259.1,256.6 259.3,256.3 259.5,256.6 259.6,256.1 259.8,256.5 260.0,256.6 260.1,256.3 260.3,256.4 260.4,256.4 260.6,256.4 260.8,256.3 260.9,256.4 261.1,256.3 261.3,256.3 261.4,256.1 261.6,256.3 261.7,256.4 261.9,256.4 262.1,257.0 262.2,257.4 262.4,257.4 262.6,257.6 262.7,257.4 262.9,257.8 263.0,258.3 263.2,258.3 263.4,258.5 263.5,259.6 263.7,259.0 263.9,254.8 264.0,256.6 264.2,253.9 264.3,253.1 264.5,252.8 264.7,252.6 264.8,252.4 265.0,252.0 265.2,249.5 265.3,248.7 265.5,248.7 265.6,248.5 265.8,247.6 266.0,247.8 266.1,248.0 266.3,248.2 266.5,248.0 266.6,249.3 266.8,249.3 266.9,248.0 267.1,249.3 267.3,249.3 267.4,249.3 267.6,248.4 267.8,248.4 267.9,249.3 268.1,249.8 268.2,250.4 268.4,251.5 268.6,251.5 268.7,249.3 268.9,249.5 269.1,249.3 269.2,248.2 269.4,248.4 269.6,248.4 269.7,248.4 269.9,248.9 270.0,248.7 270.2,248.7 270.4,249.3 270.5,249.3 270.7,249.3 270.9,251.5 271.0,251.3 271.2,252.4 271.3,252.4 271.5,252.0 271.7,249.7 271.8,249.7 272.0,250.9 272.2,248.9 272.3,249.3 272.5,249.3 272.6,249.3 272.8,249.3 273.0,250.9 273.1,251.5 273.3,252.0 273.5,253.0 273.6,253.0 273.8,253.0 273.9,253.0 274.1,253.2 274.3,254.8 274.4,254.7 274.6,254.1 274.8,254.4 274.9,250.7 275.1,250.7 275.2,250.8 275.4,250.7 275.6,250.7 275.7,250.7 275.9,250.2 276.1,248.9 276.2,248.7 276.4,248.7 276.5,249.3 276.7,250.0 276.9,250.0 277.0,247.5 277.2,247.9 277.4,247.9 277.5,248.4 277.7,248.4 277.8,246.7 278.0,247.4 278.2,247.4 278.3,247.8 278.5,248.1 278.7,246.5 278.8,246.5 279.0,246.5 279.1,246.2 279.3,245.6 279.5,244.8 279.6,245.6 279.8,245.2 280.0,244.8 280.1,244.8 280.3,245.2 280.4,244.7 280.6,244.7 280.8,244.9 280.9,245.2 281.1,245.2 281.3,245.3 281.4,245.4 281.6,246.3 281.7,246.9 281.9,245.6 282.1,245.7 282.2,245.8 282.4,245.8 282.6,246.0 282.7,246.0 282.9,246.7 283.0,246.3 283.2,246.2 283.4,245.6 283.5,246.0 283.7,246.3 283.9,246.3 284.0,246.3 284.2,245.6 284.4,246.5 284.5,247.1 284.7,247.1 284.8,247.5 285.0,246.7 285.2,246.7 285.3,246.5 285.5,246.5 285.7,246.5 285.8,246.6 286.0,246.6 286.1,246.6 286.3,246.6 286.5,246.5 286.6,246.6 286.8,247.1 287.0,246.5 287.1,246.7 287.3,246.7 287.4,246.9 287.6,246.7 287.8,246.7 287.9,246.8 288.1,246.7 288.3,246.7 288.4,244.9 288.6,244.9 288.7,245.6 288.9,246.7 289.1,248.4 289.2,248.4 289.4,247.6 289.6,247.4 289.7,245.8 289.9,245.8 290.0,246.2 290.2,246.6 290.4,246.7 290.5,246.5 290.7,246.2 290.9,246.5 291.0,246.5 291.2,246.5 291.3,245.8 291.5,245.8 291.7,246.5 291.8,246.0 292.0,246.0 292.2,246.0 292.3,246.8 292.5,247.4 292.6,246.5 292.8,246.9 293.0,246.0 293.1,246.9 293.3,246.2 293.5,246.2 293.6,246.0 293.8,246.0 293.9,246.0 294.1,246.0 294.3,246.2 294.4,246.0 294.6,246.5 294.8,246.5 294.9,246.7 295.1,246.9 295.2,246.9 295.4,246.0 295.6,246.0 295.7,246.5 295.9,246.5 296.1,246.3 296.2,246.3 296.4,246.0 296.5,245.4 296.7,244.7 296.9,244.7 297.0,243.8 297.2,243.8 297.4,243.8 297.5,242.8 297.7,241.9 297.9,242.5 298.0,242.5 298.2,241.6 298.3,241.6 298.5,241.5 298.7,241.5 298.8,241.7 299.0,241.7 299.2,241.6 299.3,241.9 299.5,241.2 299.6,241.2 299.8,241.2 300.0,240.8 300.1,241.1 300.3,241.1 300.5,241.1 300.6,241.1 300.8,241.1 300.9,239.9 301.1,239.9 301.3,239.2 301.4,239.2 301.6,239.0 301.8,239.0 301.9,239.0 302.1,239.0 302.2,238.3 302.4,238.3 302.6,238.3 302.7,238.3 302.9,237.3 303.1,238.3 303.2,238.2 303.4,238.3 303.5,238.2 303.7,238.2 303.9,240.1 304.0,240.1 304.2,242.8 304.4,238.3 304.5,238.3 304.7,238.3 304.8,238.6 305.0,238.3 305.2,238.3 305.3,238.3 305.5,238.3 305.7,238.3 305.8,237.3 306.0,237.3 306.1,237.3 306.3,234.6 306.5,234.6 306.6,234.6 306.8,234.6 307.0,234.6 307.1,230.9 307.3,230.0 307.4,230.0 307.6,230.7 307.8,230.0 307.9,230.0 308.1,229.6 308.3,229.4 308.4,228.7 308.6,228.7 308.7,229.4 308.9,227.2 309.1,227.2 309.2,227.2 309.4,228.9 309.6,229.1 309.7,229.1 309.9,226.2 310.0,226.3 310.2,223.6 310.4,227.2 310.5,227.6 310.7,228.0 310.9,228.0 311.0,228.0 311.2,227.9 311.3,227.9 311.5,228.5 311.7,228.1 311.8,228.1 312.0,228.1 312.2,228.1 312.3,228.1 312.5,228.9 312.7,229.0 312.8,230.9 313.0,229.1 313.1,230.4 313.3,230.5 313.5,230.4 313.6,229.8 313.8,229.8 314.0,232.6 314.1,234.5 314.3,235.7 314.4,234.2 314.6,236.0 314.8,234.6 314.9,237.8 315.1,238.1 315.3,237.8 315.4,237.5 315.6,234.0 315.7,236.4 315.9,235.5 316.1,235.5 316.2,234.6 316.4,232.7 316.6,232.7 316.7,231.8 316.9,235.3 317.0,234.2 317.2,234.6 317.4,234.2 317.5,232.7 317.7,231.5 317.9,231.5 318.0,229.1 318.2,228.1 318.3,228.1 318.5,229.1 318.7,230.9 318.8,230.9 319.0,230.9 319.2,229.1 319.3,230.9 319.5,230.9 319.6,230.9 319.8,230.9 320.0,229.1 320.1,229.1 320.3,229.1 320.5,229.1 320.6,227.2 320.8,227.2 320.9,230.9 321.1,230.0 321.3,229.1 321.4,230.9 321.6,230.0 321.8,230.7 321.9,229.1 322.1,229.1 322.2,229.1 322.4,228.6 322.6,229.1 322.7,227.4 322.9,230.0 323.1,229.1 323.2,229.1 323.4,229.1 323.5,229.1 323.7,229.1 323.9,229.1 324.0,227.2 324.2,229.1 324.4,229.1 324.5,229.1 324.7,229.1 324.8,229.0 325.0,227.2 325.2,227.2 325.3,227.2 325.5,227.2 325.7,227.2 325.8,227.2 326.0,227.2 326.1,227.2 326.3,225.4 326.5,225.4 326.6,223.6 326.8,225.4 327.0,225.4 327.1,225.4 327.3,224.5 327.5,225.4 327.6,223.6 327.8,222.6 327.9,222.6 328.1,223.6 328.3,225.4 328.4,225.4 328.6,222.1 328.8,221.7 328.9,218.0 329.1,217.7 329.2,217.7 329.4,221.7 329.6,221.7 329.7,221.7 329.9,212.5 330.1,216.2 330.2,216.2 330.4,220.8 330.5,216.2 330.7,212.7 330.9,216.2 331.0,216.2 331.2,216.2 331.4,218.2 331.5,218.2 331.7,219.0 331.8,217.9 332.0,217.9 332.2,216.2 332.3,216.2 332.5,212.6 332.7,218.0 332.8,218.0 333.0,216.9 333.1,214.4 333.3,213.4 333.5,219.8 333.6,219.8 333.8,217.9 334.0,217.5 334.1,216.2 334.3,218.0 334.4,216.2 334.6,212.5 334.8,214.4 334.9,212.5 335.1,218.0 335.3,216.3 335.4,217.1 335.6,216.2 335.7,216.2 335.9,216.2 336.1,217.1 336.2,217.1 336.4,218.0 336.6,217.5 336.7,219.9 336.9,223.6 337.0,207.7 337.2,205.2 337.4,200.4 337.5,201.0 337.7,202.4 337.9,201.9 338.0,203.3 338.2,199.7 338.3,199.3 338.5,194.2 338.7,192.5 338.8,190.5 339.0,197.5 339.2,202.2 339.3,196.0 339.5,195.3 339.6,197.6 339.8,195.3 340.0,195.3 340.1,199.6 340.3,194.9 340.5,198.2 340.6,198.6 340.8,199.7 341.0,197.5 341.1,197.1 341.3,197.3 341.4,197.6 341.6,197.6 341.8,196.7 341.9,197.1 342.1,197.8 342.3,196.9 342.4,197.8 342.6,199.7 342.7,199.7 342.9,199.3 343.1,199.3 343.2,207.7 343.4,212.1 343.6,214.7 343.7,216.9 343.9,219.3 344.0,216.2 344.2,218.0 344.4,217.7 344.5,217.3 344.7,217.3 344.9,213.4 345.0,213.4 345.2,213.4 345.3,209.6 345.5,212.5 345.7,212.5 345.8,216.2 346.0,218.0 346.2,216.8 346.3,216.2 346.5,217.1 346.6,214.5 346.8,216.6 347.0,214.4 347.1,214.4 347.3,214.7 347.5,216.0 347.6,216.2 347.8,211.8 347.9,207.2 348.1,206.1 348.3,206.1 348.4,206.3 348.6,205.2 348.8,205.0 348.9,203.3 349.1,201.5 349.2,199.7 349.4,200.8 349.6,200.0 349.7,198.3 349.9,198.3 350.1,198.3 350.2,201.5 350.4,199.7 350.5,198.7 350.7,198.7 350.9,198.3 351.0,201.3 351.2,198.9 351.4,198.9 351.5,198.4 351.7,199.6 351.8,200.8 352.0,199.0 352.2,203.2 352.3,201.5 352.5,204.3 352.7,205.4 352.8,208.4 353.0,207.0 353.1,210.7 353.3,210.7 353.5,213.0 353.6,213.3 353.8,213.8 354.0,212.6 354.1,211.4 354.3,212.0 354.4,211.8 354.6,213.2 354.8,214.0 354.9,214.7 355.1,213.4 355.3,212.5 355.4,215.1 355.6,212.5 355.8,215.5 355.9,213.4 356.1,212.6 356.2,215.1 356.4,215.3 356.6,215.7 356.7,216.0 356.9,216.8 357.1,217.9 357.2,217.9 357.4,219.3 357.5,220.6 357.7,211.1 357.9,210.0 358.0,207.9 358.2,208.9 358.4,208.9 358.5,207.0 358.7,204.3 358.8,204.1 359.0,203.3 359.2,204.6 359.3,205.5 359.5,206.6 359.7,207.7 359.8,207.4 360.0,206.1 360.1,207.0 360.3,212.1 360.5,212.5 360.6,212.5 360.8,212.2 361.0,209.6 361.1,212.0 361.3,212.1 361.4,210.7 361.6,205.2 361.8,205.5 361.9,209.6 362.1,209.4 362.3,209.2 362.4,208.5 362.6,208.7 362.7,207.9 362.9,207.9 363.1,210.7 363.2,207.9 363.4,210.2 363.6,212.1 363.7,207.0 363.9,206.8 364.0,206.8 364.2,206.8 364.4,202.3 364.5,202.3 364.7,202.3 364.9,209.0 365.0,208.1 365.2,208.1 365.3,205.9 365.5,207.7 365.7,208.9 365.8,208.9 366.0,208.9 366.2,210.0 366.3,207.1 366.5,205.2 366.6,205.9 366.8,205.2 367.0,206.1 367.1,208.9 367.3,210.7 367.5,211.5 367.6,205.2 367.8,208.9 367.9,207.9 368.1,207.6 368.3,209.8 368.4,209.0 368.6,209.0 368.8,208.9 368.9,201.9 369.1,206.1 369.3,205.3 369.4,206.1 369.6,209.0 369.7,205.4 369.9,207.0 370.1,203.3 370.2,200.8 370.4,202.3 370.6,205.9 370.7,205.9 370.9,203.2 371.0,203.3 371.2,203.3 371.4,201.9 371.5,203.3 371.7,203.3 371.9,200.6 372.0,200.6 372.2,201.3 372.3,199.7 372.5,200.4 372.7,200.6 372.8,199.7 373.0,200.1 373.2,200.0 373.3,200.0 373.5,200.0 373.6,200.8 373.8,200.8 374.0,200.8 374.1,196.1 374.3,196.8 374.5,196.9 374.6,197.9 374.8,198.4 374.9,197.8 375.1,197.8 375.3,198.6 375.4,196.9 375.6,197.8 375.8,196.8 375.9,199.7 376.1,199.7 376.2,201.5 376.4,200.8 376.6,200.4 376.7,200.4 376.9,201.5 377.1,204.6 377.2,201.6 377.4,201.6 377.5,201.5 377.7,201.5 377.9,201.5 378.0,201.5 378.2,201.5 378.4,201.9 378.5,201.9 378.7,202.4 378.8,202.4 379.0,203.9 379.2,203.9 379.3,201.7 379.5,202.5 379.7,202.4 379.8,202.5 380.0,202.4 380.1,206.1 380.3,202.6 380.5,202.6 380.6,202.4 380.8,204.4 381.0,205.2 381.1,205.2 381.3,205.2 381.4,203.3 381.6,202.4 381.8,198.3 381.9,202.2 382.1,203.0 382.3,202.6 382.4,202.6 382.6,202.1 382.7,207.0 382.9,208.8 383.1,207.0 383.2,196.9 383.4,189.7 383.6,189.0 383.7,186.9 383.9,188.6 384.1,191.2 384.2,192.2 384.4,193.6 384.5,197.6 384.7,197.5 384.9,197.8 385.0,196.9 385.2,197.8 385.4,197.6 385.5,197.1 385.7,195.1 385.8,190.5 386.0,189.6 386.2,190.5 386.3,190.1 386.5,187.9 386.7,190.8 386.8,190.5 387.0,190.6 387.1,191.4 387.3,191.8 387.5,192.3 387.6,198.2 387.8,193.2 388.0,198.3 388.1,198.4 388.3,198.4 388.4,197.9 388.6,196.1 388.8,196.6 388.9,197.1 389.1,197.8 389.3,197.8 389.4,200.8 389.6,198.6 389.7,199.1 389.9,200.6 390.1,200.6 390.2,201.0 390.4,203.2 390.6,203.5 390.7,205.2 390.9,207.0 391.0,206.7 391.2,205.9 391.4,205.3 391.5,205.2 391.7,201.5 391.9,201.4 392.0,201.1 392.2,201.5 392.3,200.6 392.5,198.4 392.7,197.8 392.8,197.6 393.0,196.0 393.2,194.2 393.3,193.4 393.5,192.9 393.6,192.9 393.8,194.2 394.0,199.4 394.1,197.9 394.3,198.0 394.5,196.9 394.6,196.9 394.8,198.7 394.9,198.6 395.1,198.0 395.3,193.7 395.4,190.7 395.6,186.6 395.8,176.2 395.9,175.8 396.1,171.2 396.2,172.1 396.4,170.6 396.6,172.1 396.7,174.9 396.9,172.1 397.1,173.8 397.2,170.3 397.4,169.9 397.6,172.1 397.7,172.5 397.9,172.1 398.0,171.0 398.2,171.0 398.4,172.1 398.5,170.8 398.7,161.3 398.9,172.1 399.0,168.4 399.2,168.4 399.3,169.3 399.5,173.9 399.7,177.6 399.8,180.4 400.0,187.9 400.2,184.2 400.3,183.6 400.5,179.5 400.6,179.5 400.8,181.1 401.0,184.6 401.1,184.7 401.3,185.0 401.5,188.2 401.6,189.8 401.8,184.2 401.9,189.6 402.1,186.8 402.3,188.7 402.4,187.7 402.6,188.6 402.8,192.1 402.9,192.7 403.1,192.2 403.2,192.7 403.4,190.5 403.6,194.2 403.7,192.3 403.9,187.7 404.1,185.0 404.2,179.5 404.4,182.2 404.5,181.3 404.7,183.1 404.9,175.8 405.0,179.5 405.2,177.6 405.4,176.0 405.5,177.8 405.7,172.2 405.8,173.9 406.0,179.8 406.2,181.3 406.3,183.7 406.5,185.0 406.7,194.2 406.8,193.6 407.0,196.0 407.1,195.7 407.3,196.0 407.5,195.1 407.6,196.0 407.8,197.3 408.0,198.6 408.1,198.4 408.3,198.3 408.4,193.8 408.6,196.0 408.8,199.5 408.9,197.8 409.1,197.5 409.3,197.9 409.4,197.8 409.6,197.8 409.7,198.6 409.9,198.6 410.1,198.6 410.2,194.2 410.4,193.6 410.6,192.3 410.7,189.4 410.9,182.2 411.0,191.6 411.2,188.6 411.4,185.0 411.5,180.0 411.7,191.0 411.9,190.0 412.0,190.8 412.2,190.8 412.4,190.5 412.5,190.5 412.7,188.5 412.8,189.7 413.0,189.9 413.2,189.7 413.3,189.0 413.5,190.5 413.7,190.5 413.8,190.1 414.0,186.8 414.1,186.1 414.3,186.1 414.5,185.5 414.6,182.0 414.8,193.7 415.0,184.0 415.1,186.8 415.3,186.8 415.4,183.1 415.6,180.3 415.8,175.8 415.9,172.1 416.1,171.2 416.3,168.6 416.4,172.7 416.6,173.8 416.7,176.7 416.9,183.1 417.1,190.0 417.2,190.2 417.4,190.0 417.6,190.0 417.7,192.3 417.9,186.9 418.0,186.9 418.2,189.4 418.4,188.6 418.5,185.0 418.7,185.0 418.9,185.0 419.0,184.0 419.2,182.2 419.3,183.0 419.5,183.1 419.7,179.5 419.8,179.6 420.0,177.8 420.2,179.3 420.3,180.7 420.5,180.2 420.6,178.6 420.8,184.4 421.0,177.6 421.1,175.8 421.3,177.6 421.5,175.8 421.6,173.9 421.8,175.7 421.9,176.2 422.1,172.2 422.3,177.4 422.4,174.9 422.6,172.1 422.8,176.0 422.9,182.6 423.1,182.4 423.2,177.6 423.4,172.5 423.6,175.7 423.7,177.6 423.9,177.4 424.1,176.8 424.2,181.3 424.4,178.4 424.5,181.8 424.7,182.2 424.9,182.8 425.0,180.6 425.2,184.4 425.4,183.9 425.5,183.3 425.7,183.2 425.9,181.4 426.0,181.3 426.2,181.7 426.3,184.6 426.5,184.2 426.7,186.8 426.8,187.9 427.0,190.3 427.2,183.1 427.3,182.8 427.5,181.7 427.6,182.1 427.8,181.8 428.0,182.2 428.1,183.1 428.3,183.8 428.5,183.5 428.6,183.5 428.8,183.1 428.9,183.1 429.1,183.1 429.3,182.6 429.4,182.6 429.6,183.1 429.8,186.8 429.9,184.0 430.1,181.3 430.2,181.3 430.4,179.8 430.6,181.5 430.7,181.3 430.9,181.3 431.1,180.6 431.2,180.6 431.4,179.5 431.5,181.4 431.7,181.3 431.9,181.6 432.0,181.1 432.2,181.1 432.4,181.6 432.5,181.6 432.7,181.4 432.8,179.5 433.0,180.4 433.2,181.6 433.3,183.1 433.5,183.2 433.7,183.5 433.8,183.2 434.0,183.9 434.1,182.9 434.3,183.9 434.5,183.1 434.6,182.3 434.8,181.3 435.0,183.1 435.1,181.3 435.3,181.5 435.4,182.0 435.6,181.3 435.8,182.4 435.9,181.5 436.1,181.3 436.3,181.3 436.4,181.3 436.6,181.3 436.7,181.3 436.9,181.3 437.1,181.1 437.2,182.8 437.4,181.3 437.6,181.2 437.7,182.4 437.9,181.3 438.0,181.9 438.2,182.2 438.4,181.5 438.5,181.3 438.7,185.0 438.9,184.0 439.0,184.0 439.2,186.8 439.3,186.9 439.5,190.5 439.7,189.0 439.8,187.6 440.0,193.9 440.2,192.3 440.3,200.7 440.5,199.7 440.7,201.1 440.8,210.0 441.0,210.1 441.1,214.2 441.3,214.4 441.5,216.2 441.6,218.0 441.8,218.0 442.0,223.6 442.1,218.0 442.3,213.6 442.4,210.1 442.6,215.1 442.8,212.5 442.9,206.6 443.1,208.9 443.3,208.7 443.4,207.6 443.6,210.2 443.7,210.7 443.9,205.5 444.1,207.9 444.2,207.7 444.4,210.1 444.6,207.0 444.7,208.7 444.9,205.2 445.0,209.6 445.2,210.0 445.4,210.7 445.5,210.5 445.7,210.7 445.9,210.5 446.0,208.9 446.2,207.1 446.3,198.5 446.5,196.9 446.7,203.4 446.8,204.3 447.0,205.2 447.2,206.6 447.3,205.1 447.5,207.0 447.6,206.6 447.8,207.9 448.0,207.0 448.1,207.0 448.3,205.2 448.5,203.3 448.6,200.4 448.8,200.2 448.9,201.3 449.1,200.1 449.3,199.7 449.4,200.6 449.6,199.0 449.8,199.9 449.9,201.0 450.1,198.9 450.2,199.4 450.4,197.8 450.6,199.3 450.7,198.3 450.9,197.8 451.1,193.7 451.2,191.6 451.4,191.6 451.5,187.5 451.7,194.5 451.9,195.3 452.0,194.2 452.2,196.4 452.4,196.2 452.5,194.9 452.7,197.8 452.8,196.0 453.0,194.1 453.2,197.8 453.3,196.2 453.5,196.9 453.7,197.1 453.8,197.5 454.0,196.1 454.1,199.3 454.3,199.1 454.5,199.7 454.6,199.8 454.8,200.2 455.0,200.3 455.1,198.9 455.3,199.8 455.5,200.6 455.6,199.4 455.8,199.4 455.9,199.1 456.1,199.3 456.3,198.6 456.4,201.1 456.6,197.8 456.8,197.8 456.9,201.4 457.1,200.1 457.2,200.8 457.4,200.4 457.6,197.8 457.7,198.5 457.9,197.8 458.1,197.8 458.2,192.3 458.4,190.5 458.5,193.4 458.7,193.8 458.9,196.0 459.0,198.7 459.2,194.9 459.4,192.3 459.5,192.3 459.7,192.3 459.8,191.9 460.0,192.3 460.2,190.5 460.3,192.3 460.5,192.3 460.7,194.2 460.8,194.2 461.0,196.7 461.1,195.6 461.3,196.0 461.5,197.7 461.6,197.6 461.8,197.6 462.0,197.7 462.1,197.7 462.3,195.9 462.4,197.8 462.6,197.8 462.8,198.9 462.9,196.9 463.1,198.4 463.3,197.5 463.4,198.7 463.6,198.7 463.7,198.9 463.9,199.7 464.1,199.6 464.2,199.6 464.4,199.7 464.6,198.6 464.7,196.9 464.9,197.5 465.0,195.8 465.2,199.3 465.4,198.6 465.5,199.7 465.7,197.8 465.9,197.3 466.0,194.2 466.2,194.0 466.3,194.0 466.5,194.0 466.7,196.0 466.8,197.2 467.0,197.8 467.2,199.1 467.3,198.6 467.5,198.4 467.6,196.0 467.8,190.5 468.0,188.1 468.1,188.1 468.3,185.9 468.5,185.9 468.6,183.1 468.8,184.9 469.0,181.3 469.1,184.6 469.3,184.6 469.4,184.0 469.6,184.6 469.8,180.7 469.9,179.6 470.1,180.4 470.3,180.4 470.4,179.5 470.6,181.5 470.7,179.5 470.9,180.0 471.1,180.0 471.2,179.5 471.4,181.3 471.6,179.5 471.7,179.5 471.9,179.5 472.0,181.8 472.2,179.8 472.4,179.5 472.5,179.5 472.7,175.8 472.9,177.6 473.0,179.5 473.2,179.5 473.3,180.4 473.5,184.9 473.7,182.6 473.8,182.1 474.0,183.1 474.2,179.5 474.3,176.9 474.5,175.8 474.6,177.6 474.8,179.4 475.0,178.9 475.1,181.4 475.3,179.5 475.5,176.5 475.6,179.5 475.8,179.5 475.9,180.4 476.1,180.4 476.3,182.0 476.4,183.1 476.6,180.4 476.8,179.5 476.9,183.1 477.1,183.2 477.2,175.8 477.4,176.7 477.6,176.7 477.7,177.6 477.9,180.5 478.1,179.1 478.2,179.8 478.4,168.4 478.5,168.4 478.7,168.4 478.9,169.2 479.0,166.6 479.2,168.4 479.4,168.4 479.5,164.2 479.7,167.5 479.8,167.7 480.0,168.4 480.2,168.4 480.3,162.0 480.5,161.1 480.7,157.4 480.8,163.6 481.0,166.6 481.1,157.4 481.3,159.2 481.5,164.8 481.6,155.6 481.8,162.4 482.0,161.1 482.1,154.6 482.3,154.6 482.4,161.3 482.6,161.1 482.8,161.1 482.9,162.0 483.1,160.7 483.3,166.6 483.4,160.9 483.6,161.1 483.8,164.8 483.9,162.0 484.1,159.7 484.2,161.1 484.4,161.1 484.6,161.1 484.7,160.9 484.9,161.1 485.1,158.4 485.2,157.4 485.4,161.1 485.5,160.2 485.7,161.1 485.9,162.9 486.0,162.9 486.2,161.1 486.4,159.8 486.5,160.2 486.7,154.8 486.8,158.4 487.0,160.2 487.2,160.2 487.3,157.4 487.5,160.2 487.7,157.4 487.8,153.7 488.0,153.7 488.1,153.7 488.3,156.5 488.5,156.4 488.6,153.7 488.8,155.6 489.0,153.0 489.1,151.2 489.3,146.4 489.4,150.1 489.6,150.1 489.8,133.5 489.9,148.5 490.1,135.0 490.3,133.5 490.4,140.9 490.6,142.3 490.7,138.3 490.9,133.6 491.1,134.2 491.2,134.2 491.4,139.0 491.6,135.4 491.7,132.6 491.9,128.0 492.0,117.0 492.2,125.2 492.4,125.2 492.5,125.2 492.7,128.0 492.9,129.8 493.0,128.0 493.2,133.3 493.3,127.1 493.5,138.4 493.7,129.1 493.8,128.0 494.0,128.4 494.2,114.4 494.3,128.1 494.5,133.5 494.6,126.3 494.8,135.4 495.0,139.0 495.1,141.8 495.3,139.0 495.5,129.8 495.6,136.3 495.8,131.7 495.9,128.0 496.1,128.0 496.3,136.5 496.4,137.2 496.6,137.2 496.8,139.0 496.9,142.7 497.1,146.4 497.3,152.3 497.4,147.3 497.6,151.9 497.7,148.3 497.9,148.5 498.1,148.0 498.2,142.7 498.4,140.9 498.6,140.9 498.7,141.8 498.9,143.6 499.0,143.6 499.2,141.0 499.4,143.5 499.5,142.7 499.7,140.9 499.9,143.4 500.0,142.9 500.2,142.7 500.3,142.7 500.5,142.9 500.7,142.8 500.8,142.8 501.0,142.7 501.2,142.7 501.3,139.9 501.5,140.9 501.6,140.9 501.8,117.2 502.0,124.3 502.1,135.4 502.3,138.1 502.5,137.7 502.6,135.4 502.8,137.7 502.9,137.6 503.1,138.1 503.3,140.9 503.4,140.9 503.6,139.9 503.8,136.1 503.9,135.4 504.1,133.5 504.2,117.3 504.4,126.2 504.6,128.0 504.7,126.4 504.9,136.0 505.1,131.7 505.2,131.7 505.4,128.0 505.5,129.8 505.7,130.6 505.9,131.0 506.0,128.0 506.2,122.5 506.4,128.8 506.5,129.8 506.7,124.3 506.8,124.1 507.0,124.3 507.2,123.4 507.3,130.9 507.5,120.5 507.7,122.6 507.8,122.6 508.0,122.5 508.1,124.3 508.3,119.8 508.5,122.7 508.6,124.3 508.8,116.4 509.0,114.9 509.1,109.6 509.3,102.3 509.4,91.3 509.6,87.6 509.8,94.0 509.9,96.7 510.1,96.6 510.3,96.6 510.4,92.2 510.6,92.2 510.7,92.2 510.9,93.1 511.1,94.9 511.2,91.3 511.4,91.3 511.6,92.3 511.7,92.3 511.9,92.3 512.1,92.3 512.2,96.8 512.4,99.0 512.5,96.8 512.7,92.9 512.9,91.3 513.0,93.1 513.2,92.2 513.4,93.1 513.5,90.3 513.7,90.3 513.8,96.6 514.0,94.9 514.2,94.9 514.3,94.6 514.5,94.6 514.7,94.6 514.8,94.6 515.0,90.8 515.1,87.6 515.3,87.6 515.5,87.6 515.6,94.2 515.8,87.6 516.0,84.6 516.1,87.6 516.3,88.9 516.4,87.6 516.6,84.5 516.8,87.4 516.9,87.2 517.1,81.7 517.3,80.4 517.4,86.5 517.6,83.0 517.7,82.1 517.9,82.1 518.1,82.1 518.2,82.1 518.4,80.2 518.6,78.2 518.7,74.8 518.9,76.6 519.0,76.6 519.2,80.1 519.4,80.0 519.5,80.9 519.7,82.1 519.9,86.1 520.0,85.6 520.2,85.6 520.3,87.7 520.5,87.6 520.7,88.4 520.8,92.3 521.0,95.9 521.2,94.9 521.3,98.6 521.5,115.7 521.6,102.3 521.8,111.4 522.0,109.6 522.1,113.3 522.3,115.0 522.5,111.5 522.6,104.1 522.8,94.9 522.9,94.9 523.1,87.8 523.3,93.1 523.4,65.9 523.6,83.7 523.8,76.6 523.9,76.6 524.1,72.9 524.2,72.9 524.4,73.1 524.6,69.1 524.7,71.0 524.9,78.4 525.1,80.2 525.2,86.7 525.4,91.3 525.6,91.3 525.7,89.4 525.9,86.5 526.0,84.7 526.2,80.2 526.4,83.9 526.5,92.2 526.7,91.3 526.9,87.9 527.0,91.2 527.2,87.6 527.3,91.3 527.5,96.8 527.7,95.3 527.8,98.4 528.0,101.4 528.2,98.4 528.3,105.0 528.5,105.0 528.6,105.7 528.8,95.0 529.0,101.5 529.1,102.4 529.3,105.8 529.5,106.9 529.6,107.0 529.8,106.9 529.9,106.9 530.1,105.5 530.3,103.7 530.4,104.1 530.6,105.8 530.8,105.8 530.9,105.2 531.1,105.6 531.2,105.8 531.4,103.0 531.6,99.3 531.7,96.8 531.9,72.9 532.1,83.9 532.2,91.3 532.4,93.1 532.5,90.3 532.7,98.6 532.9,93.5 533.0,94.2 533.2,94.2 533.4,94.9 533.5,96.8 533.7,104.5 533.8,104.1 534.0,103.7 534.2,103.6 534.3,106.0 534.5,106.9 534.7,105.8 534.8,103.1 535.0,99.3 535.1,98.6 535.3,97.7 535.5,97.7 535.6,98.6 535.8,102.2 536.0,100.5 536.1,102.3 536.3,102.3 536.4,102.3 536.6,102.3 536.8,102.3 536.9,109.3 537.1,108.8 537.3,104.1 537.4,104.1 537.6,104.1 537.7,109.1 537.9,109.1 538.1,105.0 538.2,106.9 538.4,106.0 538.6,106.9 538.7,106.0 538.9,106.0 539.0,106.0 539.2,106.0 539.4,104.6 539.5,106.0 539.7,106.0 539.9,102.3 540.0,104.1 540.2,103.0 540.4,105.0 540.5,104.5 540.7,106.0 540.8,105.4 541.0,106.0 541.2,102.3 541.3,102.3 541.5,105.0 541.7,106.0 541.8,108.7 542.0,115.9 542.1,113.3 542.3,113.5 542.5,112.8 542.6,109.3 542.8,107.3 543.0,111.0 543.1,107.8 543.3,107.8 543.4,106.7 543.6,106.0 543.8,103.0 543.9,102.3 544.1,102.3 544.3,105.7 544.4,102.4 544.6,102.3 544.7,101.7 544.9,105.8 545.1,105.8 545.2,105.4 545.4,105.0 545.6,105.8 545.7,105.0 545.9,104.5 546.0,104.2 546.2,104.5 546.4,103.0 546.5,102.3 546.7,102.3 546.9,101.9 547.0,103.7 547.2,104.1 547.3,105.7 547.5,105.8 547.7,102.3 547.8,102.3 548.0,105.8 548.2,105.6 548.3,105.8 548.5,102.3 548.6,102.3 548.8,102.3 549.0,102.3 549.1,96.8 549.3,96.8 549.5,96.8 549.6,98.4 549.8,96.8 549.9,97.7 550.1,96.8 550.3,90.9 550.4,89.5 550.6,87.6 550.8,87.9 550.9,87.1 551.1,90.0 551.2,89.8 551.4,89.6 551.6,94.9 551.7,93.1 551.9,93.1 552.1,93.1 552.2,93.7 552.4,96.8 552.5,104.5 552.7,106.0 552.9,100.8 553.0,100.8 553.2,98.6 553.4,100.4 553.5,100.1 553.7,96.8 553.9,100.1 554.0,98.6 554.2,98.6 554.3,98.6 554.5,95.3 554.7,96.8 554.8,100.4 555.0,102.3 555.2,100.4 555.3,96.8 555.5,98.7 555.6,97.7 555.8,99.0 556.0,100.4 556.1,97.7 556.3,98.6 556.5,97.7 556.6,97.5 556.8,97.9 556.9,96.8 557.1,98.1 557.3,98.1 557.4,102.0 557.6,97.5 557.8,98.7 557.9,98.5 558.1,97.7 558.2,97.5 558.4,96.8 558.6,95.8 558.7,94.9 558.9,94.9 559.1,95.1 559.2,95.0 559.4,93.4 559.5,92.9 559.7,83.9 559.9,83.9 560.0,87.6 560.2,83.9 560.4,88.2 560.5,88.2 560.7,89.5 560.8,89.8 561.0,89.4 561.2,90.9 561.3,92.2 561.5,92.2 561.7,94.2 561.8,91.8 562.0,91.6 562.1,91.3 562.3,91.3 562.5,93.1 562.6,92.5 562.8,95.8 563.0,95.0 563.1,99.0 563.3,105.8 563.4,105.8 563.6,109.6 563.8,103.7 563.9,102.5 564.1,103.6 564.3,104.7 564.4,102.7 564.6,101.1 564.7,100.4 564.9,100.4 565.1,100.1 565.2,98.6 565.4,98.6 565.6,98.8 565.7,102.2 565.9,100.4 566.0,99.7 566.2,100.4 566.4,104.0 566.5,102.6 566.7,104.1 566.9,104.2 567.0,105.7 567.2,105.0 567.3,105.2 567.5,104.9 567.7,94.9 567.8,104.8 568.0,103.0 568.2,94.9 568.3,94.9 568.5,102.1 568.7,98.6 568.8,95.1 569.0,92.2 569.1,91.3 569.3,94.9 569.5,89.4 569.6,90.3 569.8,89.4 570.0,80.2 570.1,83.9 570.3,91.3 570.4,91.6 570.6,91.3 570.8,92.0 570.9,94.9 571.1,98.2 571.3,98.4 571.4,100.4 571.6,98.6 571.7,99.5 571.9,101.8 572.1,101.5 572.2,103.5 572.4,102.3 572.6,101.9 572.7,103.2 572.9,100.2 573.0,100.8 573.2,101.4 573.4,98.6 573.5,102.2 573.7,99.5 573.9,103.2 574.0,101.9 574.2,101.5 574.3,103.5 574.5,105.0 574.7,104.1 574.8,105.0 575.0,103.7 575.2,102.3 575.3,93.1 575.5,96.8 575.6,96.8 575.8,96.8 576.0,96.4 576.1,96.8 576.3,96.8 576.5,98.6 576.6,98.6 576.8,97.9 576.9,97.9 577.1,97.7 577.3,87.6 577.4,83.9 577.6,85.6 577.8,83.9 577.9,82.4 578.1,90.3 578.2,92.6 578.4,92.7 578.6,96.6 578.7,97.9 578.9,95.3 579.1,92.2 579.2,93.5 579.4,93.4 579.5,93.1 579.7,94.9 579.9,94.9 580.0,98.6 580.2,99.9 580.4,100.0 580.5,98.6 580.7,99.5 580.8,101.2 581.0,100.5 581.2,100.8 581.3,100.4 581.5,101.2 581.7,99.0 581.8,91.3 582.0,97.6 582.1,97.3 582.3,97.7 582.5,98.1 582.6,99.0 582.8,102.2 583.0,101.9 583.1,100.1 583.3,102.1 583.5,104.8 583.6,104.5 583.8,105.7 583.9,105.7 584.1,105.7 584.3,105.7 584.4,105.7 584.6,105.7 584.8,106.0 584.9,109.3 585.1,111.5 585.2,114.0 585.4,116.6 585.6,120.3 585.7,120.5 585.9,123.0 586.1,120.7 586.2,111.8 586.4,119.4 586.5,119.2 586.7,120.7 586.9,118.8 587.0,123.9 587.2,122.5 587.4,119.2 587.5,119.5 587.7,119.5 587.8,122.0 588.0,115.1 588.2,114.4 588.3,116.1 588.5,116.2 588.7,109.6 588.8,108.9 589.0,110.0 589.1,111.5 589.3,113.3 589.5,113.3 589.6,113.9 589.8,113.3 590.0,114.1 590.1,113.7 590.3,112.8 590.4,96.8 590.6,94.9 590.8,96.7 590.9,98.6 591.1,100.3 591.3,97.7 591.4,91.2 591.6,87.6 591.7,87.6 591.9,87.6 592.1,88.6 592.2,89.4 592.4,88.3 592.6,88.5 592.7,89.6 592.9,98.6 593.0,99.9 593.2,91.3 593.4,92.2 593.5,97.5 593.7,96.9 593.9,98.6 594.0,100.3 594.2,101.4 594.3,101.4 594.5,103.0 594.7,105.1 594.8,101.9 595.0,99.6 595.2,94.6 595.3,93.3 595.5,94.9 595.6,103.0 595.8,103.7 596.0,106.0 596.1,103.2 596.3,100.4 596.5,102.6 596.6,104.5 596.8,96.8 597.0,94.9 597.1,95.1 597.3,93.8 597.4,93.5 597.6,93.4 597.8,93.3 597.9,90.5 598.1,87.9 598.3,89.5 598.4,87.9 598.6,87.6 598.7,93.1 598.9,94.0 599.1,95.7 599.2,96.8 599.4,96.5 599.6,94.9 599.7,94.9 599.9,95.3 600.0,95.3 600.2,94.9 600.4,94.2 600.5,98.6 600.7,98.6 600.9,96.0 601.0,89.4 601.2,88.5 601.3,89.6 601.5,89.0 601.7,87.6 601.8,91.7 602.0,96.4 602.2,94.1 602.3,94.2 602.5,97.7 602.6,98.0 602.8,97.9 603.0,101.5 603.1,104.5 603.3,100.1 603.5,97.1 603.6,96.8 603.8,101.0 603.9,96.8 604.1,99.0 604.3,99.3 604.4,102.2 604.6,104.4 604.8,108.7 604.9,115.9 605.1,108.8 605.2,109.3 605.4,111.5 605.6,109.6 605.7,106.0 605.9,107.1 606.1,106.0 606.2,106.0 606.4,105.0 606.5,105.0 606.7,107.6 606.9,107.8 607.0,109.6 607.2,110.8 607.4,113.3 607.5,112.6 607.7,110.1 607.8,115.1 608.0,109.8 608.2,115.0 608.3,114.8 608.5,115.0 608.7,115.0 608.8,117.0 609.0,117.0 609.1,117.0 609.3,114.0 609.5,114.1 609.6,115.1 609.8,115.9 610.0,115.1 610.1,115.7 610.3,116.3 610.4,116.3 610.6,119.2 610.8,118.5 610.9,118.1 611.1,117.9 611.3,117.0 611.4,117.0 611.6,117.7 611.8,116.9 611.9,117.5 612.1,116.5 612.2,117.3 612.4,117.3 612.6,117.7 612.7,118.7 612.9,120.1 613.1,118.6 613.2,118.6 613.4,118.6 613.5,119.5 613.7,118.8 613.9,120.1 614.0,119.7 614.2,122.7 614.4,123.9 614.5,123.4 614.7,124.1 614.8,124.6 615.0,124.8 615.2,125.8 615.3,129.4 615.5,127.0 615.7,128.6 615.8,128.0 616.0,128.0 616.1,128.0 616.3,127.8 616.5,127.8 616.6,128.4 616.8,127.5 617.0,126.3 617.1,126.2 617.3,128.0 617.4,126.4 617.6,127.1 617.8,128.0 617.9,129.1 618.1,129.8 618.3,131.5 618.4,129.9 618.6,129.8 618.7,128.7 618.9,128.7 619.1,130.4 619.2,125.2 619.4,128.5 619.6,128.0 619.7,127.9 619.9,125.3 620.0,127.6 620.2,127.6 620.4,125.4 620.5,130.2 620.7,128.0 620.9,128.0 621.0,129.4 621.2,131.7 621.3,135.5 621.5,138.1 621.7,142.7 621.8,135.4 622.0,135.4 622.2,136.9 622.3,126.3 622.5,127.3 622.6,126.2 622.8,131.0 623.0,136.3 623.1,138.3 623.3,136.8 623.5,135.8 623.6,125.8 623.8,134.2 623.9,127.1 624.1,126.2 624.3,126.2 624.4,129.7 624.6,134.5 624.8,135.5 624.9,135.4 625.1,134.5 625.3,135.7 625.4,135.4 625.6,135.4 625.7,135.4 625.9,134.8 626.1,133.3 626.2,134.5 626.4,136.2 626.6,135.4 626.7,135.4 626.9,134.6 627.0,129.7 627.2,132.0 627.4,133.3 627.5,134.1 627.7,134.8 627.9,132.6 628.0,131.7 628.2,131.8 628.3,129.8 628.5,129.9 628.7,128.1 628.8,126.5 629.0,127.5 629.2,124.8 629.3,126.2 629.5,124.7 629.6,123.0 629.8,120.7 630.0,120.7 630.1,122.4 630.3,127.3 630.5,126.1 630.6,119.4 630.8,117.0 630.9,116.5 631.1,116.9 631.3,115.2 631.4,109.7 631.6,117.9 631.8,117.0 631.9,119.4 632.1,120.7 632.2,123.9 632.4,117.9 632.6,116.4 632.7,110.9 632.9,111.8 633.1,110.7 633.2,111.5 633.4,111.2 633.5,111.5 633.7,119.6 633.9,117.0 634.0,113.9 634.2,113.3 634.4,118.8 634.5,113.6 634.7,109.6 634.8,113.3 635.0,113.3 635.2,113.3 635.3,112.9 635.5,113.3 635.7,111.5 635.8,111.8 636.0,112.9 636.1,112.4 636.3,114.8 636.5,115.3 636.6,117.0 636.8,116.1 637.0,118.7 637.1,118.7 637.3,118.8 637.4,119.9 637.6,120.1 637.8,122.6 637.9,121.0 638.1,117.2 638.3,116.8 638.4,113.3 638.6,113.3 638.7,113.4 638.9,113.2 639.1,109.7 639.2,112.6 639.4,112.4 639.6,110.1 639.7,112.4 639.9,113.3 640.1,112.2 640.2,113.8 640.4,114.4 640.5,114.1 640.7,116.0 640.9,115.1 641.0,115.5 641.2,115.5 641.4,115.1 641.5,115.9 641.7,116.6 641.8,120.7 642.0,122.5 642.2,125.0 642.3,125.1 642.5,118.3 642.7,118.0 642.8,121.6 643.0,120.8 643.1,124.3 643.3,117.9 643.5,119.8 643.6,120.9 643.8,121.0 644.0,121.6 644.1,127.9 644.3,125.8 644.4,124.3 644.6,126.0 644.8,124.9 644.9,126.1 645.1,129.6 645.3,136.2 645.4,135.4 645.6,135.4 645.7,136.5 645.9,135.4 646.1,135.2 646.2,136.3 646.4,135.7 646.6,134.8 646.7,136.5 646.9,132.8 647.0,134.9 647.2,133.7 647.4,135.4 647.5,135.6 647.7,136.3 647.9,137.1 648.0,137.9 648.2,137.1 648.3,137.2 648.5,142.3 648.7,140.5 648.8,141.8 649.0,140.0 649.2,139.1 649.3,141.3 649.5,139.3 649.6,138.3 649.8,137.2 650.0,137.2 650.1,135.6 650.3,134.6 650.5,135.2 650.6,137.1 650.8,133.0 650.9,124.5 651.1,132.8 651.3,125.3 651.4,125.8 651.6,125.2 651.8,125.1 651.9,125.2 652.1,130.8 652.2,129.9 652.4,125.6 652.6,126.2 652.7,126.2 652.9,125.4 653.1,129.8 653.2,129.5 653.4,124.3 653.6,122.5 653.7,122.5 653.9,122.5 654.0,124.3 654.2,122.9 654.4,123.8 654.5,122.9 654.7,122.9 654.9,120.7 655.0,121.4 655.2,121.8 655.3,121.7 655.5,120.7 655.7,120.1 655.8,120.7 656.0,115.1 656.2,113.7 656.3,114.0 656.5,118.7 656.6,115.1 656.8,109.8 657.0,109.2 657.1,106.0 657.3,98.6 657.5,104.1 657.6,101.5 657.8,98.6 657.9,85.7 658.1,86.8 658.3,90.3 658.4,98.6 658.6,97.1 658.8,97.2 658.9,97.9 659.1,98.6 659.2,96.8 659.4,94.9 659.6,94.9 659.7,96.0 659.9,94.9 660.1,93.1 660.2,94.9 660.4,94.9 660.5,94.9 660.7,94.2 660.9,94.9 661.0,95.5 661.2,95.0 661.4,100.4 661.5,102.1 661.7,106.0 661.8,106.0 662.0,108.3 662.2,107.8 662.3,108.0 662.5,106.0 662.7,106.0 662.8,107.8 663.0,114.4 663.1,117.3 663.3,117.0 663.5,117.0 663.6,113.7 663.8,113.9 664.0,114.6 664.1,117.9 664.3,122.9 664.4,114.7 664.6,113.3 664.8,113.7 664.9,121.8 665.1,123.2 665.3,124.3 665.4,124.5 665.6,124.1 665.7,120.7 665.9,123.6 666.1,122.9 666.2,122.5 666.4,123.9 666.6,117.0 666.7,120.7 666.9,115.7 667.0,109.6 667.2,112.9 667.4,101.9 667.5,106.0 667.7,113.3 667.9,117.0 668.0,120.7 668.2,120.7 668.4,122.4 668.5,121.6 668.7,120.7 668.8,121.8 669.0,124.7 669.2,123.1 669.3,120.7 669.5,120.7 669.7,124.1 669.8,123.4 670.0,122.5 670.1,121.0 670.3,122.0 670.5,121.9 670.6,120.7 670.8,117.0 671.0,120.6 671.1,119.5 671.3,113.7 671.4,108.2 671.6,103.7 671.8,104.1 671.9,120.5 672.1,120.7 672.3,99.5 672.4,116.0 672.6,111.9 672.7,112.5 672.9,107.8 673.1,108.5 673.2,112.0 673.4,111.0 673.6,113.3 673.7,113.3 673.9,112.6 674.0,112.2 674.2,117.1 674.4,118.4 674.5,117.8 674.7,115.3 674.9,119.9 675.0,119.7 675.2,121.2 675.3,124.0 675.5,122.4 675.7,119.5 675.8,120.7 676.0,119.0 676.2,121.8 676.3,118.8 676.5,121.4 676.6,121.0 676.8,119.0 677.0,119.4 677.1,115.5 677.3,120.1 677.5,110.5 677.6,114.8 677.8,117.0 677.9,117.3 678.1,119.5 678.3,119.7 678.4,117.9 678.6,114.6 678.8,111.5 678.9,111.7 679.1,112.1 679.2,109.6 679.4,107.6 679.6,109.6 679.7,109.7 679.9,110.4 680.1,110.3 680.2,107.2 680.4,101.4 680.5,106.7 680.7,108.2 680.9,105.0 681.0,104.2 681.2,107.1 681.4,110.3 681.5,107.1 681.7,107.9 681.9,110.4 682.0,112.4 682.2,109.3 682.3,113.1 682.5,107.8 682.7,107.2 682.8,111.5 683.0,109.6 683.2,109.6 683.3,108.9 683.5,109.6 683.6,110.0 683.8,109.6 684.0,111.5 684.1,116.6 684.3,113.3 684.5,115.7 684.6,115.0 684.8,116.9 684.9,115.1 685.1,102.8 685.3,108.7 685.4,111.0 685.6,106.7 685.8,108.3 685.9,113.3 686.1,112.4 686.2,115.0 686.4,113.3 686.6,114.1 686.7,116.1 686.9,113.5 687.1,111.1 687.2,115.8 687.4,115.4 687.5,113.3 687.7,115.1 687.9,116.4 688.0,111.4 688.2,115.9 688.4,109.7 688.5,109.0 688.7,110.5 688.8,109.6 689.0,109.6 689.2,110.4 689.3,111.1 689.5,108.9 689.7,110.2 689.8,111.5 690.0,106.1 690.1,106.0 690.3,107.1 690.5,108.7 690.6,102.3 690.8,104.1 691.0,107.8 691.1,110.0 691.3,109.5 691.4,112.0 691.6,106.3 691.8,106.0 691.9,102.3 692.1,105.6 692.3,102.3 692.4,108.7 692.6,107.2 692.7,110.7 692.9,113.1 693.1,117.0 693.2,113.3 693.4,113.1 693.6,117.0 693.7,117.0 693.9,117.3 694.0,117.0 694.2,117.2 694.4,115.1 694.5,117.0 694.7,111.5 694.9,115.7 695.0,117.0 695.2,117.5 695.3,117.9 695.5,117.9 695.7,117.2 695.8,118.4 696.0,119.5"/>
  <polyline fill="none" stroke="#16a34a" stroke-width="2" points="56.0,285.5 56.2,285.5 56.3,285.5 56.5,285.5 56.7,285.5 56.8,285.1 57.0,284.7 57.1,284.7 57.3,284.7 57.5,284.7 57.6,284.7 57.8,286.0 58.0,286.0 58.1,286.0 58.3,286.0 58.4,286.0 58.6,286.0 58.8,286.0 58.9,286.0 59.1,286.0 59.3,286.0 59.4,286.0 59.6,286.0 59.7,286.0 59.9,286.0 60.1,286.0 60.2,286.0 60.4,285.1 60.6,285.1 60.7,285.1 60.9,285.1 61.0,285.1 61.2,285.1 61.4,285.1 61.5,285.7 61.7,285.7 61.9,285.8 62.0,286.0 62.2,286.0 62.3,286.0 62.5,284.9 62.7,284.9 62.8,286.4 63.0,286.4 63.2,286.4 63.3,286.4 63.5,286.0 63.6,285.8 63.8,285.8 64.0,285.8 64.1,285.8 64.3,286.0 64.5,286.0 64.6,286.1 64.8,286.1 64.9,286.1 65.1,286.1 65.3,286.1 65.4,286.1 65.6,286.1 65.8,285.2 65.9,285.2 66.1,285.7 66.2,285.7 66.4,285.7 66.6,285.7 66.7,285.7 66.9,286.0 67.1,286.2 67.2,286.0 67.4,286.0 67.5,286.0 67.7,286.0 67.9,286.0 68.0,286.0 68.2,286.0 68.4,286.0 68.5,286.6 68.7,286.6 68.8,286.9 69.0,286.9 69.2,287.0 69.3,286.9 69.5,286.4 69.7,286.4 69.8,286.4 70.0,286.8 70.1,286.0 70.3,286.0 70.5,286.0 70.6,286.0 70.8,286.0 71.0,286.4 71.1,286.4 71.3,286.4 71.5,286.4 71.6,286.4 71.8,286.4 71.9,286.4 72.1,286.4 72.3,286.4 72.4,286.4 72.6,286.4 72.8,285.8 72.9,286.8 73.1,286.6 73.2,285.8 73.4,285.8 73.6,285.8 73.7,285.8 73.9,285.8 74.1,285.8 74.2,285.8 74.4,285.8 74.5,285.8 74.7,285.8 74.9,286.9 75.0,286.9 75.2,287.9 75.4,286.2 75.5,286.2 75.7,286.4 75.8,286.4 76.0,286.4 76.2,286.4 76.3,286.2 76.5,286.2 76.7,286.2 76.8,286.6 77.0,286.4 77.1,287.1 77.3,287.1 77.5,287.1 77.6,287.1 77.8,287.1 78.0,287.1 78.1,287.1 78.3,287.1 78.4,287.1 78.6,287.1 78.8,286.6 78.9,286.8 79.1,286.8 79.3,286.8 79.4,287.2 79.6,287.2 79.7,287.8 79.9,287.8 80.1,287.8 80.2,287.1 80.4,286.9 80.6,286.9 80.7,286.9 80.9,286.9 81.0,286.9 81.2,286.9 81.4,286.9 81.5,287.1 81.7,287.1 81.9,287.1 82.0,287.1 82.2,287.1 82.3,287.1 82.5,287.1 82.7,287.1 82.8,287.1 83.0,287.1 83.2,287.1 83.3,287.7 83.5,287.7 83.6,287.7 83.8,285.7 84.0,286.9 84.1,286.9 84.3,286.9 84.5,286.9 84.6,286.8 84.8,286.8 85.0,286.8 85.1,286.9 85.3,286.9 85.4,285.7 85.6,285.7 85.8,286.9 85.9,286.9 86.1,286.9 86.3,287.5 86.4,287.5 86.6,287.5 86.7,287.5 86.9,287.5 87.1,287.5 87.2,286.9 87.4,287.7 87.6,287.8 87.7,287.1 87.9,287.1 88.0,287.9 88.2,287.9 88.4,287.9 88.5,287.9 88.7,288.2 88.9,288.3 89.0,289.0 89.2,289.0 89.3,289.0 89.5,289.0 89.7,289.0 89.8,289.0 90.0,289.0 90.2,286.4 90.3,286.4 90.5,288.6 90.6,288.4 90.8,288.4 91.0,288.4 91.1,288.4 91.3,288.0 91.5,288.0 91.6,288.0 91.8,288.0 91.9,288.0 92.1,289.3 92.3,289.3 92.4,289.3 92.6,289.3 92.8,289.3 92.9,289.5 93.1,289.5 93.2,289.5 93.4,289.5 93.6,289.5 93.7,289.5 93.9,289.5 94.1,289.5 94.2,289.2 94.4,289.2 94.5,289.2 94.7,289.2 94.9,289.2 95.0,290.1 95.2,290.1 95.4,290.0 95.5,290.0 95.7,290.0 95.8,290.0 96.0,290.0 96.2,290.0 96.3,290.0 96.5,289.7 96.7,289.7 96.8,289.7 97.0,289.7 97.1,289.7 97.3,289.7 97.5,289.7 97.6,289.7 97.8,289.7 98.0,289.7 98.1,289.7 98.3,289.2 98.4,289.2 98.6,289.2 98.8,289.2 98.9,289.3 99.1,289.4 99.3,289.7 99.4,289.7 99.6,289.7 99.8,289.7 99.9,289.7 100.1,289.3 100.2,289.3 100.4,289.6 100.6,289.7 100.7,289.7 100.9,289.7 101.1,289.7 101.2,289.3 101.4,289.3 101.5,289.3 101.7,289.3 101.9,289.3 102.0,289.3 102.2,289.0 102.4,289.0 102.5,289.0 102.7,289.0 102.8,289.0 103.0,289.0 103.2,289.0 103.3,289.0 103.5,289.0 103.7,289.0 103.8,289.0 104.0,289.0 104.1,289.0 104.3,289.0 104.5,288.6 104.6,289.0 104.8,289.0 105.0,289.0 105.1,289.0 105.3,289.1 105.4,288.4 105.6,288.4 105.8,288.6 105.9,288.6 106.1,287.8 106.3,287.8 106.4,287.8 106.6,287.8 106.7,287.8 106.9,287.8 107.1,287.8 107.2,287.8 107.4,287.8 107.6,287.8 107.7,286.0 107.9,286.4 108.0,286.4 108.2,286.8 108.4,286.8 108.5,286.8 108.7,286.8 108.9,286.8 109.0,286.8 109.2,286.9 109.3,286.9 109.5,286.9 109.7,286.9 109.8,286.2 110.0,286.2 110.2,286.1 110.3,284.9 110.5,285.1 110.6,284.2 110.8,284.2 111.0,284.2 111.1,284.9 111.3,284.9 111.5,285.3 111.6,284.2 111.8,285.1 111.9,285.1 112.1,285.1 112.3,285.1 112.4,285.1 112.6,285.1 112.8,285.3 112.9,285.3 113.1,285.3 113.3,285.3 113.4,284.7 113.6,285.0 113.7,284.9 113.9,284.9 114.1,284.7 114.2,284.7 114.4,284.6 114.6,284.6 114.7,284.6 114.9,284.9 115.0,284.2 115.2,284.2 115.4,283.3 115.5,283.3 115.7,283.1 115.9,283.1 116.0,283.5 116.2,283.5 116.3,283.5 116.5,283.5 116.7,283.5 116.8,283.5 117.0,283.5 117.2,284.2 117.3,284.2 117.5,284.2 117.6,284.2 117.8,284.2 118.0,284.2 118.1,284.0 118.3,283.8 118.5,283.8 118.6,283.8 118.8,283.8 118.9,283.8 119.1,283.8 119.3,283.8 119.4,283.8 119.6,283.8 119.8,282.9 119.9,282.9 120.1,282.9 120.2,282.9 120.4,282.9 120.6,283.5 120.7,283.3 120.9,283.3 121.1,283.5 121.2,283.5 121.4,282.9 121.5,282.7 121.7,282.5 121.9,282.5 122.0,282.4 122.2,284.7 122.4,284.7 122.5,284.7 122.7,284.2 122.8,284.4 123.0,284.4 123.2,284.4 123.3,284.2 123.5,284.2 123.7,284.2 123.8,284.4 124.0,284.4 124.1,284.4 124.3,284.4 124.5,284.4 124.6,284.4 124.8,284.4 125.0,284.4 125.1,284.4 125.3,284.4 125.4,284.4 125.6,284.2 125.8,282.9 125.9,282.9 126.1,282.9 126.3,282.9 126.4,283.1 126.6,282.9 126.7,282.4 126.9,282.4 127.1,283.1 127.2,283.1 127.4,282.4 127.6,282.4 127.7,282.4 127.9,282.4 128.1,282.4 128.2,282.4 128.4,282.4 128.5,282.4 128.7,282.4 128.9,282.4 129.0,282.3 129.2,282.3 129.4,282.3 129.5,282.3 129.7,284.2 129.8,284.2 130.0,281.2 130.2,281.2 130.3,281.2 130.5,281.2 130.7,281.2 130.8,281.4 131.0,281.4 131.1,281.1 131.3,281.8 131.5,282.0 131.6,282.0 131.8,282.0 132.0,282.0 132.1,282.4 132.3,282.4 132.4,282.4 132.6,282.4 132.8,282.4 132.9,282.0 133.1,282.0 133.3,282.0 133.4,282.0 133.6,282.0 133.7,282.0 133.9,282.0 134.1,282.0 134.2,282.4 134.4,282.4 134.6,282.4 134.7,281.4 134.9,281.1 135.0,281.1 135.2,281.0 135.4,281.1 135.5,281.1 135.7,281.1 135.9,281.1 136.0,281.1 136.2,281.1 136.3,281.1 136.5,280.5 136.7,280.5 136.8,280.5 137.0,279.6 137.2,279.0 137.3,279.2 137.5,279.2 137.6,279.2 137.8,279.0 138.0,279.0 138.1,279.0 138.3,279.2 138.5,279.2 138.6,279.4 138.8,279.0 138.9,279.0 139.1,279.0 139.3,279.2 139.4,279.2 139.6,279.2 139.8,279.2 139.9,279.2 140.1,280.8 140.2,280.8 140.4,280.8 140.6,280.8 140.7,279.2 140.9,279.0 141.1,281.8 141.2,280.9 141.4,280.9 141.6,280.8 141.7,280.7 141.9,280.7 142.0,281.2 142.2,281.2 142.4,281.2 142.5,281.2 142.7,281.2 142.9,281.2 143.0,281.2 143.2,280.7 143.3,280.7 143.5,280.7 143.7,281.1 143.8,281.1 144.0,281.1 144.2,281.1 144.3,281.1 144.5,281.1 144.6,281.1 144.8,281.1 145.0,281.1 145.1,281.1 145.3,279.0 145.5,279.9 145.6,279.9 145.8,280.5 145.9,280.5 146.1,280.5 146.3,280.3 146.4,280.3 146.6,280.3 146.8,280.3 146.9,280.3 147.1,280.3 147.2,280.3 147.4,279.7 147.6,279.7 147.7,279.9 147.9,279.9 148.1,279.9 148.2,279.8 148.4,279.8 148.5,279.9 148.7,279.8 148.9,279.4 149.0,279.6 149.2,279.1 149.4,279.1 149.5,279.0 149.7,279.3 149.8,278.9 150.0,278.9 150.2,279.0 150.3,279.0 150.5,279.0 150.7,279.0 150.8,279.0 151.0,279.0 151.1,278.9 151.3,278.9 151.5,278.7 151.6,278.7 151.8,278.7 152.0,278.3 152.1,278.3 152.3,278.3 152.4,278.3 152.6,278.3 152.8,278.3 152.9,278.3 153.1,278.5 153.3,278.3 153.4,278.3 153.6,278.3 153.7,278.3 153.9,278.3 154.1,278.3 154.2,278.3 154.4,278.3 154.6,278.7 154.7,279.6 154.9,279.2 155.0,278.7 155.2,278.7 155.4,278.7 155.5,278.7 155.7,278.7 155.9,278.7 156.0,278.3 156.2,278.7 156.4,278.7 156.5,279.4 156.7,278.6 156.8,278.7 157.0,278.7 157.2,278.7 157.3,278.7 157.5,278.7 157.7,278.7 157.8,278.7 158.0,278.7 158.1,278.7 158.3,278.7 158.5,278.7 158.6,278.7 158.8,278.7 159.0,278.7 159.1,278.1 159.3,278.1 159.4,278.1 159.6,278.1 159.8,278.5 159.9,278.5 160.1,278.5 160.3,277.8 160.4,277.9 160.6,277.9 160.7,277.9 160.9,277.0 161.1,277.9 161.2,278.3 161.4,278.5 161.6,277.0 161.7,277.0 161.9,277.0 162.0,277.9 162.2,277.8 162.4,278.1 162.5,278.1 162.7,278.1 162.9,277.8 163.0,277.9 163.2,277.9 163.3,277.9 163.5,278.1 163.7,278.1 163.8,278.1 164.0,278.1 164.2,278.1 164.3,278.1 164.5,278.1 164.6,278.1 164.8,278.1 165.0,278.3 165.1,278.3 165.3,278.3 165.5,278.3 165.6,277.9 165.8,278.7 165.9,278.7 166.1,278.3 166.3,278.3 166.4,278.3 166.6,278.3 166.8,278.3 166.9,278.3 167.1,278.3 167.2,278.3 167.4,278.3 167.6,278.3 167.7,278.7 167.9,278.7 168.1,278.7 168.2,278.7 168.4,278.7 168.5,278.7 168.7,278.7 168.9,278.7 169.0,278.7 169.2,278.7 169.4,278.7 169.5,277.2 169.7,277.2 169.9,277.2 170.0,277.9 170.2,277.9 170.3,277.9 170.5,278.1 170.7,278.1 170.8,278.1 171.0,278.7 171.2,278.7 171.3,278.7 171.5,278.7 171.6,278.7 171.8,278.7 172.0,278.9 172.1,278.7 172.3,278.9 172.5,278.9 172.6,279.0 172.8,279.0 172.9,279.7 173.1,279.6 173.3,279.6 173.4,279.6 173.6,279.6 173.8,279.6 173.9,279.6 174.1,279.6 174.2,279.6 174.4,279.6 174.6,279.6 174.7,279.6 174.9,279.8 175.1,279.9 175.2,279.7 175.4,280.0 175.5,279.7 175.7,279.4 175.9,279.4 176.0,279.4 176.2,279.3 176.4,279.6 176.5,279.6 176.7,279.6 176.8,279.6 177.0,280.0 177.2,279.8 177.3,280.0 177.5,279.4 177.7,279.4 177.8,280.0 178.0,280.0 178.1,280.1 178.3,280.1 178.5,280.1 178.6,280.1 178.8,280.0 179.0,280.1 179.1,280.1 179.3,279.9 179.4,279.9 179.6,279.9 179.8,279.9 179.9,280.1 180.1,280.1 180.3,280.1 180.4,280.1 180.6,280.1 180.7,280.1 180.9,279.4 181.1,279.4 181.2,279.4 181.4,279.6 181.6,279.6 181.7,279.6 181.9,279.7 182.0,279.8 182.2,279.8 182.4,279.4 182.5,279.4 182.7,279.7 182.9,278.3 183.0,278.3 183.2,279.7 183.3,279.7 183.5,279.6 183.7,279.6 183.8,279.6 184.0,279.6 184.2,279.4 184.3,279.6 184.5,279.6 184.7,279.6 184.8,279.6 185.0,279.6 185.1,279.6 185.3,279.6 185.5,279.6 185.6,279.6 185.8,279.7 186.0,279.7 186.1,279.7 186.3,279.7 186.4,279.7 186.6,279.7 186.8,279.7 186.9,278.7 187.1,279.6 187.3,279.6 187.4,279.6 187.6,279.6 187.7,279.4 187.9,279.4 188.1,279.8 188.2,279.8 188.4,279.6 188.6,279.6 188.7,279.6 188.9,278.7 189.0,278.7 189.2,279.0 189.4,279.0 189.5,279.0 189.7,279.0 189.9,279.6 190.0,279.8 190.2,279.6 190.3,279.6 190.5,280.1 190.7,280.1 190.8,280.0 191.0,280.1 191.2,280.0 191.3,280.1 191.5,280.1 191.6,279.6 191.8,279.8 192.0,279.2 192.1,279.6 192.3,279.8 192.5,277.2 192.6,278.7 192.8,278.7 192.9,277.2 193.1,278.1 193.3,277.9 193.4,277.9 193.6,277.9 193.8,277.9 193.9,277.9 194.1,277.9 194.2,277.7 194.4,277.8 194.6,277.8 194.7,277.7 194.9,277.7 195.1,277.6 195.2,277.8 195.4,277.6 195.5,277.6 195.7,277.6 195.9,277.6 196.0,277.8 196.2,277.7 196.4,277.5 196.5,277.5 196.7,277.5 196.8,277.5 197.0,277.0 197.2,276.8 197.3,276.8 197.5,276.8 197.7,276.8 197.8,276.8 198.0,276.8 198.1,276.8 198.3,276.2 198.5,276.2 198.6,276.2 198.8,276.2 199.0,276.3 199.1,276.3 199.3,276.3 199.5,276.3 199.6,276.3 199.8,276.3 199.9,276.3 200.1,276.3 200.3,276.3 200.4,276.3 200.6,276.3 200.8,276.3 200.9,276.3 201.1,276.3 201.2,276.3 201.4,275.7 201.6,275.7 201.7,275.9 201.9,275.9 202.1,275.9 202.2,275.9 202.4,275.9 202.5,276.3 202.7,276.3 202.9,275.6 203.0,273.7 203.2,273.7 203.4,273.7 203.5,272.4 203.7,272.4 203.8,273.7 204.0,271.9 204.2,273.7 204.3,270.7 204.5,270.7 204.7,270.4 204.8,270.4 205.0,270.4 205.1,270.4 205.3,270.4 205.5,270.2 205.6,270.2 205.8,270.2 206.0,270.2 206.1,270.2 206.3,270.2 206.4,270.2 206.6,270.2 206.8,269.1 206.9,269.5 207.1,267.7 207.3,266.7 207.4,266.9 207.6,266.7 207.7,265.8 207.9,267.4 208.1,267.4 208.2,267.4 208.4,266.5 208.6,261.2 208.7,262.3 208.9,261.3 209.0,262.1 209.2,261.3 209.4,261.3 209.5,261.3 209.7,264.0 209.9,264.0 210.0,264.0 210.2,263.5 210.3,263.5 210.5,264.0 210.7,263.4 210.8,264.0 211.0,264.0 211.2,263.2 211.3,263.2 211.5,263.2 211.6,263.2 211.8,263.1 212.0,263.2 212.1,263.1 212.3,263.1 212.5,263.6 212.6,263.4 212.8,263.4 213.0,264.2 213.1,263.1 213.3,263.1 213.4,263.1 213.6,263.1 213.8,263.1 213.9,262.1 214.1,262.1 214.3,261.0 214.4,261.6 214.6,261.0 214.7,261.0 214.9,261.0 215.1,261.0 215.2,261.6 215.4,262.1 215.6,261.2 215.7,261.2 215.9,261.2 216.0,261.6 216.2,261.6 216.4,260.7 216.5,260.7 216.7,260.7 216.9,260.7 217.0,260.9 217.2,260.7 217.3,260.7 217.5,260.7 217.7,260.7 217.8,260.7 218.0,260.7 218.2,260.3 218.3,260.3 218.5,260.3 218.6,260.1 218.8,258.8 219.0,257.9 219.1,257.9 219.3,257.0 219.5,255.2 219.6,256.6 219.8,255.7 219.9,260.3 220.1,256.2 220.3,255.7 220.4,255.9 220.6,255.5 220.8,255.7 220.9,255.5 221.1,255.5 221.2,255.5 221.4,255.4 221.6,254.8 221.7,254.8 221.9,254.8 222.1,254.8 222.2,254.8 222.4,254.4 222.5,255.2 222.7,255.2 222.9,255.1 223.0,254.1 223.2,256.4 223.4,256.4 223.5,256.4 223.7,255.3 223.8,255.3 224.0,255.3 224.2,255.2 224.3,255.2 224.5,255.2 224.7,254.8 224.8,254.8 225.0,254.8 225.1,254.8 225.3,254.8 225.5,254.8 225.6,254.8 225.8,255.2 226.0,255.2 226.1,255.2 226.3,255.2 226.4,255.2 226.6,255.2 226.8,254.8 226.9,253.4 227.1,253.7 227.3,253.7 227.4,253.4 227.6,253.4 227.8,253.4 227.9,253.4 228.1,255.1 228.2,255.3 228.4,255.3 228.6,255.7 228.7,257.5 228.9,257.4 229.1,256.6 229.2,256.4 229.4,257.4 229.5,257.4 229.7,256.7 229.9,257.4 230.0,257.4 230.2,257.7 230.4,257.7 230.5,257.4 230.7,257.3 230.8,256.3 231.0,256.3 231.2,256.3 231.3,256.6 231.5,255.5 231.7,256.6 231.8,255.5 232.0,256.6 232.1,255.2 232.3,256.6 232.5,251.7 232.6,254.6 232.8,253.9 233.0,253.7 233.1,251.7 233.3,253.0 233.4,253.0 233.6,253.0 233.8,251.8 233.9,251.7 234.1,251.7 234.3,251.7 234.4,251.3 234.6,251.8 234.7,251.1 234.9,251.5 235.1,252.0 235.2,251.3 235.4,251.2 235.6,250.7 235.7,250.7 235.9,249.1 236.0,249.1 236.2,249.1 236.4,246.9 236.5,246.9 236.7,246.9 236.9,246.9 237.0,246.9 237.2,247.4 237.3,247.4 237.5,247.4 237.7,247.4 237.8,247.4 238.0,247.8 238.2,247.6 238.3,248.9 238.5,248.2 238.6,248.2 238.8,248.2 239.0,249.3 239.1,250.3 239.3,250.2 239.5,250.0 239.6,250.4 239.8,250.4 239.9,250.4 240.1,251.1 240.3,250.7 240.4,251.1 240.6,250.4 240.8,249.3 240.9,249.3 241.1,249.3 241.3,249.3 241.4,250.0 241.6,249.3 241.7,248.9 241.9,248.9 242.1,249.3 242.2,249.3 242.4,250.2 242.6,250.2 242.7,250.2 242.9,251.1 243.0,251.3 243.2,251.3 243.4,249.5 243.5,251.1 243.7,250.2 243.9,250.2 244.0,247.4 244.2,247.4 244.3,247.4 244.5,247.4 244.7,247.4 244.8,248.4 245.0,248.7 245.2,248.5 245.3,248.5 245.5,248.5 245.6,248.5 245.8,248.5 246.0,248.5 246.1,248.4 246.3,248.4 246.5,248.4 246.6,248.4 246.8,249.3 246.9,249.3 247.1,249.3 247.3,249.3 247.4,249.3 247.6,249.3 247.8,248.4 247.9,250.2 248.1,251.4 248.2,253.0 248.4,253.3 248.6,253.3 248.7,253.3 248.9,250.2 249.1,249.8 249.2,253.9 249.4,254.2 249.5,254.4 249.7,255.9 249.9,255.2 250.0,255.2 250.2,255.2 250.4,255.2 250.5,253.7 250.7,255.2 250.8,254.8 251.0,254.8 251.2,254.6 251.3,255.9 251.5,254.6 251.7,254.8 251.8,255.2 252.0,255.7 252.1,255.5 252.3,255.9 252.5,255.7 252.6,256.0 252.8,254.8 253.0,253.9 253.1,253.9 253.3,253.9 253.4,254.3 253.6,254.1 253.8,254.1 253.9,254.8 254.1,254.8 254.3,255.0 254.4,255.2 254.6,257.0 254.7,256.0 254.9,256.0 255.1,255.5 255.2,255.8 255.4,255.9 255.6,255.9 255.7,256.6 255.9,256.4 256.1,256.4 256.2,256.2 256.4,256.6 256.5,256.6 256.7,256.6 256.9,256.5 257.0,256.6 257.2,256.4 257.4,256.6 257.5,256.6 257.7,256.4 257.8,256.4 258.0,256.4 258.2,256.6 258.3,256.6 258.5,256.6 258.7,256.5 258.8,256.3 259.0,256.6 259.1,256.6 259.3,256.3 259.5,256.6 259.6,256.1 259.8,256.5 260.0,256.6 260.1,256.3 260.3,256.4 260.4,256.4 260.6,256.4 260.8,256.3 260.9,256.4 261.1,256.3 261.3,256.3 261.4,256.1 261.6,256.3 261.7,256.4 261.9,256.4 262.1,257.0 262.2,257.4 262.4,257.4 262.6,257.6 262.7,257.4 262.9,257.8 263.0,258.3 263.2,258.3 263.4,258.5 263.5,259.6 263.7,259.0 263.9,254.8 264.0,256.6 264.2,253.9 264.3,253.1 264.5,252.8 264.7,252.6 264.8,252.4 265.0,252.0 265.2,249.5 265.3,248.7 265.5,248.7 265.6,248.5 265.8,247.6 266.0,247.8 266.1,248.0 266.3,248.2 266.5,248.0 266.6,249.3 266.8,249.3 266.9,248.0 267.1,249.3 267.3,249.3 267.4,249.3 267.6,248.4 267.8,248.4 267.9,249.3 268.1,249.8 268.2,250.4 268.4,251.5 268.6,251.5 268.7,249.3 268.9,249.5 269.1,249.3 269.2,248.2 269.4,248.4 269.6,248.4 269.7,248.4 269.9,248.9 270.0,248.7 270.2,248.7 270.4,249.3 270.5,249.3 270.7,249.3 270.9,251.5 271.0,251.3 271.2,252.4 271.3,252.4 271.5,252.0 271.7,249.7 271.8,249.7 272.0,250.9 272.2,248.9 272.3,249.3 272.5,249.3 272.6,249.3 272.8,249.3 273.0,250.9 273.1,251.5 273.3,252.0 273.5,253.0 273.6,253.0 273.8,253.0 273.9,253.0 274.1,253.2 274.3,254.8 274.4,254.7 274.6,254.1 274.8,254.4 274.9,250.7 275.1,250.7 275.2,250.8 275.4,250.7 275.6,250.7 275.7,250.7 275.9,250.2 276.1,248.9 276.2,248.7 276.4,248.7 276.5,249.3 276.7,250.0 276.9,250.0 277.0,247.5 277.2,247.9 277.4,247.9 277.5,248.4 277.7,248.4 277.8,246.7 278.0,247.4 278.2,247.4 278.3,247.8 278.5,248.1 278.7,246.5 278.8,246.5 279.0,246.5 279.1,246.2 279.3,245.6 279.5,244.8 279.6,245.6 279.8,245.2 280.0,244.8 280.1,244.8 280.3,245.2 280.4,244.7 280.6,244.7 280.8,244.9 280.9,245.2 281.1,245.2 281.3,245.3 281.4,245.4 281.6,246.3 281.7,246.9 281.9,245.6 282.1,245.7 282.2,245.8 282.4,245.8 282.6,246.0 282.7,246.0 282.9,246.7 283.0,246.3 283.2,246.2 283.4,245.6 283.5,246.0 283.7,246.3 283.9,246.3 284.0,246.3 284.2,245.6 284.4,246.5 284.5,247.1 284.7,247.1 284.8,247.5 285.0,246.7 285.2,246.7 285.3,246.5 285.5,246.5 285.7,246.5 285.8,246.6 286.0,246.6 286.1,246.6 286.3,246.6 286.5,246.5 286.6,246.6 286.8,247.1 287.0,246.5 287.1,246.7 287.3,246.7 287.4,246.9 287.6,246.7 287.8,246.7 287.9,246.8 288.1,246.7 288.3,246.7 288.4,244.9 288.6,244.9 288.7,245.6 288.9,246.7 289.1,248.4 289.2,248.4 289.4,247.6 289.6,247.4 289.7,245.8 289.9,245.8 290.0,246.2 290.2,246.6 290.4,246.7 290.5,246.5 290.7,246.2 290.9,246.5 291.0,246.5 291.2,246.5 291.3,245.8 291.5,245.8 291.7,246.5 291.8,246.0 292.0,246.0 292.2,246.0 292.3,246.8 292.5,247.4 292.6,246.5 292.8,246.9 293.0,246.0 293.1,246.9 293.3,246.2 293.5,246.2 293.6,246.0 293.8,246.0 293.9,246.0 294.1,246.0 294.3,246.2 294.4,246.0 294.6,246.5 294.8,246.5 294.9,246.7 295.1,246.9 295.2,246.9 295.4,246.0 295.6,246.0 295.7,246.5 295.9,246.5 296.1,246.3 296.2,246.3 296.4,246.0 296.5,245.4 296.7,244.7 296.9,244.7 297.0,243.8 297.2,243.8 297.4,243.8 297.5,242.8 297.7,241.9 297.9,242.5 298.0,242.5 298.2,241.6 298.3,241.6 298.5,241.5 298.7,241.5 298.8,241.7 299.0,241.7 299.2,241.6 299.3,241.9 299.5,241.2 299.6,241.2 299.8,241.2 300.0,240.8 300.1,241.1 300.3,241.1 300.5,241.1 300.6,241.1 300.8,241.1 300.9,239.9 301.1,239.9 301.3,239.2 301.4,239.2 301.6,239.0 301.8,239.0 301.9,239.0 302.1,239.0 302.2,238.3 302.4,238.3 302.6,238.3 302.7,238.3 302.9,237.3 303.1,238.3 303.2,238.2 303.4,238.3 303.5,238.2 303.7,238.2 303.9,240.1 304.0,240.1 304.2,242.8 304.4,238.3 304.5,238.3 304.7,238.3 304.8,238.6 305.0,238.3 305.2,238.3 305.3,238.3 305.5,238.3 305.7,238.3 305.8,237.3 306.0,237.3 306.1,237.3 306.3,234.6 306.5,234.6 306.6,234.6 306.8,234.6 307.0,234.6 307.1,230.9 307.3,230.0 307.4,230.0 307.6,230.7 307.8,230.0 307.9,230.0 308.1,229.6 308.3,229.4 308.4,228.7 308.6,228.7 308.7,229.4 308.9,227.2 309.1,227.2 309.2,227.2 309.4,228.9 309.6,229.1 309.7,229.1 309.9,226.2 310.0,226.3 310.2,223.6 310.4,227.2 310.5,227.6 310.7,228.0 310.9,228.0 311.0,228.0 311.2,227.9 311.3,227.9 311.5,228.5 311.7,228.1 311.8,228.1 312.0,228.1 312.2,228.1 312.3,228.1 312.5,228.9 312.7,229.0 312.8,230.9 313.0,229.1 313.1,230.4 313.3,230.5 313.5,230.4 313.6,229.8 313.8,229.8 314.0,232.6 314.1,234.5 314.3,235.7 314.4,234.2 314.6,236.0 314.8,234.6 314.9,237.8 315.1,238.1 315.3,237.8 315.4,237.5 315.6,234.0 315.7,236.4 315.9,235.5 316.1,235.5 316.2,234.6 316.4,232.7 316.6,232.7 316.7,231.8 316.9,235.3 317.0,234.2 317.2,234.6 317.4,234.2 317.5,232.7 317.7,231.5 317.9,231.5 318.0,229.1 318.2,228.1 318.3,228.1 318.5,229.1 318.7,230.9 318.8,230.9 319.0,230.9 319.2,229.1 319.3,230.9 319.5,230.9 319.6,230.9 319.8,230.9 320.0,229.1 320.1,229.1 320.3,229.1 320.5,229.1 320.6,227.2 320.8,227.2 320.9,230.9 321.1,230.0 321.3,229.1 321.4,230.9 321.6,230.0 321.8,230.7 321.9,229.1 322.1,229.1 322.2,229.1 322.4,228.6 322.6,229.1 322.7,227.4 322.9,230.0 323.1,229.1 323.2,229.1 323.4,229.1 323.5,229.1 323.7,229.1 323.9,229.1 324.0,227.2 324.2,229.1 324.4,229.1 324.5,229.1 324.7,229.1 324.8,229.0 325.0,227.2 325.2,227.2 325.3,227.2 325.5,227.2 325.7,227.2 325.8,227.2 326.0,227.2 326.1,227.2 326.3,225.4 326.5,225.4 326.6,223.6 326.8,225.4 327.0,225.4 327.1,225.4 327.3,224.5 327.5,225.4 327.6,223.6 327.8,222.6 327.9,222.6 328.1,223.6 328.3,225.4 328.4,225.4 328.6,222.1 328.8,221.7 328.9,218.0 329.1,217.7 329.2,217.7 329.4,221.7 329.6,221.7 329.7,221.7 329.9,212.5 330.1,216.2 330.2,216.2 330.4,220.8 330.5,216.2 330.7,212.7 330.9,216.2 331.0,216.2 331.2,216.2 331.4,218.2 331.5,218.2 331.7,219.0 331.8,217.9 332.0,217.9 332.2,216.2 332.3,216.2 332.5,212.6 332.7,218.0 332.8,218.0 333.0,216.9 333.1,214.4 333.3,213.4 333.5,219.8 333.6,219.8 333.8,217.9 334.0,217.5 334.1,216.2 334.3,218.0 334.4,216.2 334.6,212.5 334.8,214.4 334.9,212.5 335.1,218.0 335.3,216.3 335.4,217.1 335.6,216.2 335.7,216.2 335.9,216.2 336.1,217.1 336.2,217.1 336.4,218.0 336.6,217.5 336.7,219.9 336.9,223.6 337.0,207.7 337.2,205.2 337.4,200.4 337.5,201.0 337.7,202.4 337.9,201.9 338.0,203.3 338.2,199.7 338.3,199.3 338.5,194.2 338.7,192.5 338.8,190.5 339.0,197.5 339.2,202.2 339.3,196.0 339.5,195.3 339.6,197.6 339.8,195.3 340.0,195.3 340.1,199.6 340.3,194.9 340.5,198.2 340.6,198.6 340.8,199.7 341.0,197.5 341.1,197.1 341.3,197.3 341.4,197.6 341.6,197.6 341.8,196.7 341.9,197.1 342.1,197.8 342.3,196.9 342.4,197.8 342.6,199.7 342.7,199.7 342.9,199.3 343.1,199.3 343.2,207.7 343.4,212.1 343.6,214.7 343.7,216.9 343.9,219.3 344.0,216.2 344.2,218.0 344.4,217.7 344.5,217.3 344.7,217.3 344.9,213.4 345.0,213.4 345.2,213.4 345.3,209.6 345.5,212.5 345.7,212.5 345.8,216.2 346.0,218.0 346.2,216.8 346.3,216.2 346.5,217.1 346.6,214.5 346.8,216.6 347.0,214.4 347.1,214.4 347.3,214.7 347.5,216.0 347.6,216.2 347.8,211.8 347.9,207.2 348.1,206.1 348.3,206.1 348.4,206.3 348.6,205.2 348.8,205.0 348.9,203.3 349.1,201.5 349.2,199.7 349.4,200.8 349.6,200.0 349.7,198.3 349.9,198.3 350.1,198.3 350.2,201.5 350.4,199.7 350.5,198.7 350.7,198.7 350.9,198.3 351.0,201.3 351.2,198.9 351.4,198.9 351.5,198.4 351.7,199.6 351.8,200.8 352.0,199.0 352.2,203.2 352.3,201.5 352.5,204.3 352.7,205.4 352.8,208.4 353.0,207.0 353.1,210.7 353.3,210.7 353.5,213.0 353.6,213.3 353.8,213.8 354.0,212.6 354.1,211.4 354.3,212.0 354.4,211.8 354.6,213.2 354.8,214.0 354.9,214.7 355.1,213.4 355.3,212.5 355.4,215.1 355.6,212.5 355.8,215.5 355.9,213.4 356.1,212.6 356.2,215.1 356.4,215.3 356.6,215.7 356.7,216.0 356.9,216.8 357.1,217.9 357.2,217.9 357.4,219.3 357.5,220.6 357.7,211.1 357.9,210.0 358.0,207.9 358.2,208.9 358.4,208.9 358.5,207.0 358.7,204.3 358.8,204.1 359.0,203.3 359.2,204.6 359.3,205.5 359.5,206.6 359.7,207.7 359.8,207.4 360.0,206.1 360.1,207.0 360.3,212.1 360.5,212.5 360.6,212.5 360.8,212.2 361.0,209.6 361.1,212.0 361.3,212.1 361.4,210.7 361.6,205.2 361.8,205.5 361.9,209.6 362.1,209.4 362.3,209.2 362.4,208.5 362.6,208.7 362.7,207.9 362.9,207.9 363.1,210.7 363.2,207.9 363.4,210.2 363.6,212.1 363.7,207.0 363.9,206.8 364.0,206.8 364.2,206.8 364.4,202.3 364.5,202.3 364.7,202.3 364.9,209.0 365.0,208.1 365.2,208.1 365.3,205.9 365.5,207.7 365.7,208.9 365.8,208.9 366.0,208.9 366.2,210.0 366.3,207.1 366.5,205.2 366.6,205.9 366.8,205.2 367.0,206.1 367.1,208.9 367.3,210.7 367.5,211.5 367.6,205.2 367.8,208.9 367.9,207.9 368.1,207.6 368.3,209.8 368.4,209.0 368.6,209.0 368.8,208.9 368.9,201.9 369.1,206.1 369.3,205.3 369.4,206.1 369.6,209.0 369.7,205.4 369.9,207.0 370.1,203.3 370.2,200.8 370.4,202.3 370.6,205.9 370.7,205.9 370.9,203.2 371.0,203.3 371.2,203.3 371.4,201.9 371.5,203.3 371.7,203.3 371.9,200.6 372.0,200.6 372.2,201.3 372.3,199.7 372.5,200.4 372.7,200.6 372.8,199.7 373.0,200.1 373.2,200.0 373.3,200.0 373.5,200.0 373.6,200.8 373.8,200.8 374.0,200.8 374.1,196.1 374.3,196.8 374.5,196.9 374.6,197.9 374.8,198.4 374.9,197.8 375.1,197.8 375.3,198.6 375.4,196.9 375.6,197.8 375.8,196.8 375.9,199.7 376.1,199.7 376.2,201.5 376.4,200.8 376.6,200.4 376.7,200.4 376.9,201.5 377.1,204.6 377.2,201.6 377.4,201.6 377.5,201.5 377.7,201.5 377.9,201.5 378.0,201.5 378.2,201.5 378.4,201.9 378.5,201.9 378.7,202.4 378.8,202.4 379.0,203.9 379.2,203.9 379.3,201.7 379.5,202.5 379.7,202.4 379.8,202.5 380.0,202.4 380.1,206.1 380.3,202.6 380.5,202.6 380.6,202.4 380.8,204.4 381.0,205.2 381.1,205.2 381.3,205.2 381.4,203.3 381.6,202.4 381.8,198.3 381.9,202.2 382.1,203.0 382.3,202.6 382.4,202.6 382.6,202.1 382.7,207.0 382.9,208.8 383.1,207.0 383.2,196.9 383.4,189.7 383.6,189.0 383.7,186.9 383.9,188.6 384.1,191.2 384.2,192.2 384.4,193.6 384.5,197.6 384.7,197.5 384.9,197.8 385.0,196.9 385.2,197.8 385.4,197.6 385.5,197.1 385.7,195.1 385.8,190.5 386.0,189.6 386.2,190.5 386.3,190.1 386.5,187.9 386.7,190.8 386.8,190.5 387.0,190.6 387.1,191.4 387.3,191.8 387.5,192.3 387.6,198.2 387.8,193.2 388.0,198.3 388.1,198.4 388.3,198.4 388.4,197.9 388.6,196.1 388.8,196.6 388.9,197.1 389.1,197.8 389.3,197.8 389.4,200.8 389.6,198.6 389.7,199.1 389.9,200.6 390.1,200.6 390.2,201.0 390.4,203.2 390.6,203.5 390.7,205.2 390.9,207.0 391.0,206.7 391.2,205.9 391.4,205.3 391.5,205.2 391.7,201.5 391.9,201.4 392.0,201.1 392.2,201.5 392.3,200.6 392.5,198.4 392.7,197.8 392.8,197.6 393.0,196.0 393.2,194.2 393.3,193.4 393.5,192.9 393.6,192.9 393.8,194.2 394.0,199.4 394.1,197.9 394.3,198.0 394.5,196.9 394.6,196.9 394.8,198.7 394.9,198.6 395.1,198.0 395.3,193.7 395.4,190.7 395.6,186.6 395.8,176.2 395.9,175.8 396.1,171.2 396.2,172.1 396.4,170.6 396.6,172.1 396.7,174.9 396.9,172.1 397.1,173.8 397.2,170.3 397.4,169.9 397.6,172.1 397.7,172.5 397.9,172.1 398.0,171.0 398.2,171.0 398.4,172.1 398.5,170.8 398.7,161.3 398.9,172.1 399.0,168.4 399.2,168.4 399.3,169.3 399.5,173.9 399.7,177.6 399.8,180.4 400.0,187.9 400.2,184.2 400.3,183.6 400.5,179.5 400.6,179.5 400.8,181.1 401.0,184.6 401.1,184.7 401.3,185.0 401.5,188.2 401.6,189.8 401.8,184.2 401.9,189.6 402.1,186.8 402.3,188.7 402.4,187.7 402.6,188.6 402.8,192.1 402.9,192.7 403.1,192.2 403.2,192.7 403.4,190.5 403.6,194.2 403.7,192.3 403.9,187.7 404.1,185.0 404.2,179.5 404.4,182.2 404.5,181.3 404.7,183.1 404.9,175.8 405.0,179.5 405.2,177.6 405.4,176.0 405.5,177.8 405.7,172.2 405.8,173.9 406.0,179.8 406.2,181.3 406.3,183.7 406.5,185.0 406.7,194.2 406.8,193.6 407.0,196.0 407.1,195.7 407.3,196.0 407.5,195.1 407.6,196.0 407.8,197.3 408.0,198.6 408.1,198.4 408.3,198.3 408.4,193.8 408.6,196.0 408.8,199.5 408.9,197.8 409.1,197.5 409.3,197.9 409.4,197.8 409.6,197.8 409.7,198.6 409.9,198.6 410.1,198.6 410.2,194.2 410.4,193.6 410.6,192.3 410.7,189.4 410.9,182.2 411.0,191.6 411.2,188.6 411.4,185.0 411.5,180.0 411.7,191.0 411.9,190.0 412.0,190.8 412.2,190.8 412.4,190.5 412.5,190.5 412.7,188.5 412.8,189.7 413.0,189.9 413.2,189.7 413.3,189.0 413.5,190.5 413.7,190.5 413.8,190.1 414.0,186.8 414.1,186.1 414.3,186.1 414.5,185.5 414.6,182.0 414.8,193.7 415.0,184.0 415.1,186.8 415.3,186.8 415.4,183.1 415.6,180.3 415.8,175.8 415.9,172.1 416.1,171.2 416.3,168.6 416.4,172.7 416.6,173.8 416.7,176.7 416.9,183.1 417.1,190.0 417.2,190.2 417.4,190.0 417.6,190.0 417.7,192.3 417.9,186.9 418.0,186.9 418.2,189.4 418.4,188.6 418.5,185.0 418.7,185.0 418.9,185.0 419.0,184.0 419.2,182.2 419.3,183.0 419.5,183.1 419.7,179.5 419.8,179.6 420.0,177.8 420.2,179.3 420.3,180.7 420.5,180.2 420.6,178.6 420.8,184.4 421.0,177.6 421.1,175.8 421.3,177.6 421.5,175.8 421.6,173.9 421.8,175.7 421.9,176.2 422.1,172.2 422.3,177.4 422.4,174.9 422.6,172.1 422.8,176.0 422.9,182.6 423.1,182.4 423.2,177.6 423.4,172.5 423.6,175.7 423.7,177.6 423.9,177.4 424.1,176.8 424.2,181.3 424.4,178.4 424.5,181.8 424.7,182.2 424.9,182.8 425.0,180.6 425.2,184.4 425.4,183.9 425.5,183.3 425.7,183.2 425.9,181.4 426.0,181.3 426.2,181.7 426.3,184.6 426.5,184.2 426.7,186.8 426.8,187.9 427.0,190.3 427.2,183.1 427.3,182.8 427.5,181.7 427.6,182.1 427.8,181.8 428.0,182.2 428.1,183.1 428.3,183.8 428.5,183.5 428.6,183.5 428.8,183.1 428.9,183.1 429.1,183.1 429.3,182.6 429.4,182.6 429.6,183.1 429.8,186.8 429.9,184.0 430.1,181.3 430.2,181.3 430.4,179.8 430.6,181.5 430.7,181.3 430.9,181.3 431.1,180.6 431.2,180.6 431.4,179.5 431.5,181.4 431.7,181.3 431.9,181.6 432.0,181.1 432.2,181.1 432.4,181.6 432.5,181.6 432.7,181.4 432.8,179.5 433.0,180.4 433.2,181.6 433.3,183.1 433.5,183.2 433.7,183.5 433.8,183.2 434.0,183.9 434.1,182.9 434.3,183.9 434.5,183.1 434.6,182.3 434.8,181.3 435.0,183.1 435.1,181.3 435.3,181.5 435.4,182.0 435.6,181.3 435.8,182.4 435.9,181.5 436.1,181.3 436.3,181.3 436.4,181.3 436.6,181.3 436.7,181.3 436.9,181.3 437.1,181.1 437.2,182.8 437.4,181.3 437.6,181.2 437.7,182.4 437.9,181.3 438.0,181.9 438.2,182.2 438.4,181.5 438.5,181.3 438.7,185.0 438.9,184.0 439.0,184.0 439.2,186.8 439.3,186.9 439.5,190.5 439.7,189.0 439.8,187.6 440.0,193.9 440.2,192.3 440.3,200.7 440.5,199.7 440.7,201.1 440.8,210.0 441.0,210.1 441.1,214.2 441.3,214.4 441.5,216.2 441.6,218.0 441.8,218.0 442.0,223.6 442.1,218.0 442.3,213.6 442.4,210.1 442.6,215.1 442.8,212.5 442.9,206.6 443.1,208.9 443.3,208.7 443.4,207.6 443.6,210.2 443.7,210.7 443.9,205.5 444.1,207.9 444.2,207.7 444.4,210.1 444.6,207.0 444.7,208.7 444.9,205.2 445.0,209.6 445.2,210.0 445.4,210.7 445.5,210.5 445.7,210.7 445.9,210.5 446.0,208.9 446.2,207.1 446.3,198.5 446.5,196.9 446.7,203.4 446.8,204.3 447.0,205.2 447.2,206.6 447.3,205.1 447.5,207.0 447.6,206.6 447.8,207.9 448.0,207.0 448.1,207.0 448.3,205.2 448.5,203.3 448.6,200.4 448.8,200.2 448.9,201.3 449.1,200.1 449.3,199.7 449.4,200.6 449.6,199.0 449.8,199.9 449.9,201.0 450.1,198.9 450.2,199.4 450.4,197.8 450.6,199.3 450.7,198.3 450.9,197.8 451.1,193.7 451.2,191.6 451.4,191.6 451.5,187.5 451.7,194.5 451.9,195.3 452.0,194.2 452.2,196.4 452.4,196.2 452.5,194.9 452.7,197.8 452.8,196.0 453.0,194.1 453.2,197.8 453.3,196.2 453.5,196.9 453.7,197.1 453.8,197.5 454.0,196.1 454.1,199.3 454.3,199.1 454.5,199.7 454.6,199.8 454.8,200.2 455.0,200.3 455.1,198.9 455.3,199.8 455.5,200.6 455.6,199.4 455.8,199.4 455.9,199.1 456.1,199.3 456.3,198.6 456.4,201.1 456.6,197.8 456.8,197.8 456.9,201.4 457.1,200.1 457.2,200.8 457.4,200.4 457.6,197.8 457.7,198.5 457.9,197.8 458.1,197.8 458.2,192.3 458.4,190.5 458.5,193.4 458.7,193.8 458.9,196.0 459.0,198.7 459.2,194.9 459.4,192.3 459.5,192.3 459.7,192.3 459.8,191.9 460.0,192.3 460.2,190.5 460.3,192.3 460.5,192.3 460.7,194.2 460.8,194.2 461.0,196.7 461.1,195.6 461.3,196.0 461.5,197.7 461.6,197.6 461.8,197.6 462.0,197.7 462.1,197.7 462.3,195.9 462.4,197.8 462.6,197.8 462.8,198.9 462.9,196.9 463.1,198.4 463.3,197.5 463.4,198.7 463.6,198.7 463.7,198.9 463.9,199.7 464.1,199.6 464.2,199.6 464.4,199.7 464.6,198.6 464.7,196.9 464.9,197.5 465.0,195.8 465.2,199.3 465.4,198.6 465.5,199.7 465.7,197.8 465.9,197.3 466.0,194.2 466.2,194.0 466.3,194.0 466.5,194.0 466.7,196.0 466.8,197.2 467.0,197.8 467.2,199.1 467.3,198.6 467.5,198.4 467.6,196.0 467.8,190.5 468.0,188.1 468.1,188.1 468.3,185.9 468.5,185.9 468.6,183.1 468.8,184.9 469.0,181.3 469.1,184.6 469.3,184.6 469.4,184.0 469.6,184.6 469.8,180.7 469.9,179.6 470.1,180.4 470.3,180.4 470.4,179.5 470.6,181.5 470.7,179.5 470.9,180.0 471.1,180.0 471.2,179.5 471.4,181.3 471.6,179.5 471.7,179.5 471.9,179.5 472.0,181.8 472.2,179.8 472.4,179.5 472.5,179.5 472.7,175.8 472.9,177.6 473.0,179.5 473.2,179.5 473.3,180.4 473.5,184.9 473.7,182.6 473.8,182.1 474.0,183.1 474.2,179.5 474.3,176.9 474.5,175.8 474.6,177.6 474.8,179.4 475.0,178.9 475.1,181.4 475.3,179.5 475.5,176.5 475.6,179.5 475.8,179.5 475.9,180.4 476.1,180.4 476.3,182.0 476.4,183.1 476.6,180.4 476.8,179.5 476.9,183.1 477.1,183.2 477.2,175.8 477.4,176.7 477.6,176.7 477.7,177.6 477.9,180.5 478.1,179.1 478.2,179.8 478.4,168.4 478.5,168.4 478.7,168.4 478.9,169.2 479.0,166.6 479.2,168.4 479.4,168.4 479.5,164.2 479.7,167.5 479.8,167.7 480.0,168.4 480.2,168.4 480.3,162.0 480.5,161.1 480.7,157.4 480.8,163.6 481.0,166.6 481.1,157.4 481.3,159.2 481.5,164.8 481.6,155.6 481.8,162.4 482.0,161.1 482.1,154.6 482.3,154.6 482.4,161.3 482.6,161.1 482.8,161.1 482.9,162.0 483.1,160.7 483.3,166.6 483.4,160.9 483.6,161.1 483.8,164.8 483.9,162.0 484.1,159.7 484.2,161.1 484.4,161.1 484.6,161.1 484.7,160.9 484.9,161.1 485.1,158.4 485.2,157.4 485.4,161.1 485.5,160.2 485.7,161.1 485.9,162.9 486.0,162.9 486.2,161.1 486.4,159.8 486.5,160.2 486.7,154.8 486.8,158.4 487.0,160.2 487.2,160.2 487.3,157.4 487.5,160.2 487.7,157.4 487.8,153.7 488.0,153.7 488.1,153.7 488.3,156.5 488.5,156.4 488.6,153.7 488.8,155.6 489.0,153.0 489.1,151.2 489.3,146.4 489.4,150.1 489.6,150.1 489.8,133.5 489.9,148.5 490.1,135.0 490.3,133.5 490.4,140.9 490.6,142.3 490.7,138.3 490.9,133.6 491.1,134.2 491.2,134.2 491.4,139.0 491.6,135.4 491.7,132.6 491.9,128.0 492.0,117.0 492.2,125.2 492.4,125.2 492.5,125.2 492.7,128.0 492.9,129.8 493.0,128.0 493.2,133.3 493.3,127.1 493.5,138.4 493.7,129.1 493.8,128.0 494.0,128.4 494.2,114.4 494.3,128.1 494.5,133.5 494.6,126.3 494.8,135.4 495.0,139.0 495.1,141.8 495.3,139.0 495.5,129.8 495.6,136.3 495.8,131.7 495.9,128.0 496.1,128.0 496.3,136.5 496.4,137.2 496.6,137.2 496.8,139.0 496.9,142.7 497.1,146.4 497.3,152.3 497.4,147.3 497.6,151.9 497.7,148.3 497.9,148.5 498.1,148.0 498.2,142.7 498.4,140.9 498.6,140.9 498.7,141.8 498.9,143.6 499.0,143.6 499.2,141.0 499.4,143.5 499.5,142.7 499.7,140.9 499.9,143.4 500.0,142.9 500.2,142.7 500.3,142.7 500.5,142.9 500.7,142.8 500.8,142.8 501.0,142.7 501.2,142.7 501.3,139.9 501.5,140.9 501.6,140.9 501.8,117.2 502.0,124.3 502.1,135.4 502.3,138.1 502.5,137.7 502.6,135.4 502.8,137.7 502.9,137.6 503.1,138.1 503.3,140.9 503.4,140.9 503.6,139.9 503.8,136.1 503.9,135.4 504.1,133.5 504.2,117.3 504.4,126.2 504.6,128.0 504.7,126.4 504.9,136.0 505.1,131.7 505.2,131.7 505.4,128.0 505.5,129.8 505.7,130.6 505.9,131.0 506.0,128.0 506.2,122.5 506.4,128.8 506.5,129.8 506.7,124.3 506.8,124.1 507.0,124.3 507.2,123.4 507.3,130.9 507.5,120.5 507.7,122.6 507.8,122.6 508.0,122.5 508.1,124.3 508.3,119.8 508.5,122.7 508.6,124.3 508.8,116.4 509.0,114.9 509.1,109.6 509.3,102.3 509.4,91.3 509.6,87.6 509.8,94.0 509.9,96.7 510.1,96.6 510.3,96.6 510.4,92.2 510.6,92.2 510.7,92.2 510.9,93.1 511.1,94.9 511.2,91.3 511.4,91.3 511.6,92.3 511.7,92.3 511.9,92.3 512.1,92.3 512.2,96.8 512.4,99.0 512.5,96.8 512.7,92.9 512.9,91.3 513.0,93.1 513.2,92.2 513.4,93.1 513.5,90.3 513.7,90.3 513.8,96.6 514.0,94.9 514.2,94.9 514.3,94.6 514.5,94.6 514.7,94.6 514.8,94.6 515.0,90.8 515.1,87.6 515.3,87.6 515.5,87.6 515.6,94.2 515.8,87.6 516.0,84.6 516.1,87.6 516.3,88.9 516.4,87.6 516.6,84.5 516.8,87.4 516.9,87.2 517.1,81.7 517.3,80.4 517.4,86.5 517.6,83.0 517.7,82.1 517.9,82.1 518.1,82.1 518.2,82.1 518.4,80.2 518.6,78.2 518.7,74.8 518.9,76.6 519.0,76.6 519.2,80.1 519.4,80.0 519.5,80.9 519.7,82.1 519.9,86.1 520.0,85.6 520.2,85.6 520.3,87.7 520.5,87.6 520.7,88.4 520.8,92.3 521.0,95.9 521.2,94.9 521.3,98.6 521.5,115.7 521.6,102.3 521.8,111.4 522.0,109.6 522.1,113.3 522.3,115.0 522.5,111.5 522.6,104.1 522.8,94.9 522.9,94.9 523.1,87.8 523.3,93.1 523.4,65.9 523.6,83.7 523.8,76.6 523.9,76.6 524.1,72.9 524.2,72.9 524.4,73.1 524.6,69.1 524.7,71.0 524.9,78.4 525.1,80.2 525.2,86.7 525.4,91.3 525.6,91.3 525.7,89.4 525.9,86.5 526.0,84.7 526.2,80.2 526.4,83.9 526.5,92.2 526.7,91.3 526.9,87.9 527.0,91.2 527.2,87.6 527.3,91.3 527.5,96.8 527.7,95.3 527.8,98.4 528.0,101.4 528.2,98.4 528.3,105.0 528.5,105.0 528.6,105.7 528.8,95.0 529.0,101.5 529.1,102.4 529.3,105.8 529.5,106.9 529.6,107.0 529.8,106.9 529.9,106.9 530.1,105.5 530.3,103.7 530.4,104.1 530.6,105.8 530.8,105.8 530.9,105.2 531.1,105.6 531.2,105.8 531.4,103.0 531.6,99.3 531.7,96.8 531.9,72.9 532.1,83.9 532.2,91.3 532.4,93.1 532.5,90.3 532.7,98.6 532.9,93.5 533.0,94.2 533.2,94.2 533.4,94.9 533.5,96.8 533.7,104.5 533.8,104.1 534.0,103.7 534.2,103.6 534.3,106.0 534.5,106.9 534.7,105.8 534.8,103.1 535.0,99.3 535.1,98.6 535.3,97.7 535.5,97.7 535.6,98.6 535.8,102.2 536.0,100.5 536.1,102.3 536.3,102.3 536.4,102.3 536.6,102.3 536.8,102.3 536.9,109.3 537.1,108.8 537.3,104.1 537.4,104.1 537.6,104.1 537.7,109.1 537.9,109.1 538.1,105.0 538.2,106.9 538.4,106.0 538.6,106.9 538.7,106.0 538.9,106.0 539.0,106.0 539.2,106.0 539.4,104.6 539.5,106.0 539.7,106.0 539.9,102.3 540.0,104.1 540.2,103.0 540.4,105.0 540.5,104.5 540.7,106.0 540.8,105.4 541.0,106.0 541.2,102.3 541.3,102.3 541.5,105.0 541.7,106.0 541.8,108.7 542.0,115.9 542.1,113.3 542.3,113.5 542.5,112.8 542.6,109.3 542.8,107.3 543.0,111.0 543.1,107.8 543.3,107.8 543.4,106.7 543.6,106.0 543.8,103.0 543.9,102.3 544.1,102.3 544.3,105.7 544.4,102.4 544.6,102.3 544.7,101.7 544.9,105.8 545.1,105.8 545.2,105.4 545.4,105.0 545.6,105.8 545.7,105.0 545.9,104.5 546.0,104.2 546.2,104.5 546.4,103.0 546.5,102.3 546.7,102.3 546.9,101.9 547.0,103.7 547.2,104.1 547.3,105.7 547.5,105.8 547.7,102.3 547.8,102.3 548.0,105.8 548.2,105.6 548.3,105.8 548.5,102.3 548.6,102.3 548.8,102.3 549.0,102.3 549.1,96.8 549.3,96.8 549.5,96.8 549.6,98.4 549.8,96.8 549.9,97.7 550.1,96.8 550.3,90.9 550.4,89.5 550.6,87.6 550.8,87.9 550.9,87.1 551.1,90.0 551.2,89.8 551.4,89.6 551.6,94.9 551.7,93.1 551.9,93.1 552.1,93.1 552.2,93.7 552.4,96.8 552.5,104.5 552.7,106.0 552.9,100.8 553.0,100.8 553.2,98.6 553.4,100.4 553.5,100.1 553.7,96.8 553.9,100.1 554.0,98.6 554.2,98.6 554.3,98.6 554.5,95.3 554.7,96.8 554.8,100.4 555.0,102.3 555.2,100.4 555.3,96.8 555.5,98.7 555.6,97.7 555.8,99.0 556.0,100.4 556.1,97.7 556.3,98.6 556.5,97.7 556.6,97.5 556.8,97.9 556.9,96.8 557.1,98.1 557.3,98.1 557.4,102.0 557.6,97.5 557.8,98.7 557.9,98.5 558.1,97.7 558.2,97.5 558.4,96.8 558.6,95.8 558.7,94.9 558.9,94.9 559.1,95.1 559.2,95.0 559.4,93.4 559.5,92.9 559.7,83.9 559.9,83.9 560.0,87.6 560.2,83.9 560.4,88.2 560.5,88.2 560.7,89.5 560.8,89.8 561.0,89.4 561.2,90.9 561.3,92.2 561.5,92.2 561.7,94.2 561.8,91.8 562.0,91.6 562.1,91.3 562.3,91.3 562.5,93.1 562.6,92.5 562.8,95.8 563.0,95.0 563.1,99.0 563.3,105.8 563.4,105.8 563.6,109.6 563.8,103.7 563.9,102.5 564.1,103.6 564.3,104.7 564.4,102.7 564.6,101.1 564.7,100.4 564.9,100.4 565.1,100.1 565.2,98.6 565.4,98.6 565.6,98.8 565.7,102.2 565.9,100.4 566.0,99.7 566.2,100.4 566.4,104.0 566.5,102.6 566.7,104.1 566.9,104.2 567.0,105.7 567.2,105.0 567.3,105.2 567.5,104.9 567.7,94.9 567.8,104.8 568.0,103.0 568.2,94.9 568.3,94.9 568.5,102.1 568.7,98.6 568.8,95.1 569.0,92.2 569.1,91.3 569.3,94.9 569.5,89.4 569.6,90.3 569.8,89.4 570.0,80.2 570.1,83.9 570.3,91.3 570.4,91.6 570.6,91.3 570.8,92.0 570.9,94.9 571.1,98.2 571.3,98.4 571.4,100.4 571.6,98.6 571.7,99.5 571.9,101.8 572.1,101.5 572.2,103.5 572.4,102.3 572.6,101.9 572.7,103.2 572.9,100.2 573.0,100.8 573.2,101.4 573.4,98.6 573.5,102.2 573.7,99.5 573.9,103.2 574.0,101.9 574.2,101.5 574.3,103.5 574.5,105.0 574.7,104.1 574.8,105.0 575.0,103.7 575.2,102.3 575.3,93.1 575.5,96.8 575.6,96.8 575.8,96.8 576.0,96.4 576.1,96.8 576.3,96.8 576.5,98.6 576.6,98.6 576.8,97.9 576.9,97.9 577.1,97.7 577.3,87.6 577.4,83.9 577.6,85.6 577.8,83.9 577.9,82.4 578.1,90.3 578.2,92.6 578.4,92.7 578.6,96.6 578.7,97.9 578.9,95.3 579.1,92.2 579.2,93.5 579.4,93.4 579.5,93.1 579.7,94.9 579.9,94.9 580.0,98.6 580.2,99.9 580.4,100.0 580.5,98.6 580.7,99.5 580.8,101.2 581.0,100.5 581.2,100.8 581.3,100.4 581.5,101.2 581.7,99.0 581.8,91.3 582.0,97.6 582.1,97.3 582.3,97.7 582.5,98.1 582.6,99.0 582.8,102.2 583.0,101.9 583.1,100.1 583.3,102.1 583.5,104.8 583.6,104.5 583.8,105.7 583.9,105.7 584.1,105.7 584.3,105.7 584.4,105.7 584.6,105.7 584.8,106.0 584.9,109.3 585.1,111.5 585.2,114.0 585.4,116.6 585.6,120.3 585.7,120.5 585.9,123.0 586.1,120.7 586.2,111.8 586.4,119.4 586.5,119.2 586.7,120.7 586.9,118.8 587.0,123.9 587.2,122.5 587.4,119.2 587.5,119.5 587.7,119.5 587.8,122.0 588.0,115.1 588.2,114.4 588.3,116.1 588.5,116.2 588.7,109.6 588.8,108.9 589.0,110.0 589.1,111.5 589.3,113.3 589.5,113.3 589.6,113.9 589.8,113.3 590.0,114.1 590.1,113.7 590.3,112.8 590.4,96.8 590.6,94.9 590.8,96.7 590.9,98.6 591.1,100.3 591.3,97.7 591.4,91.2 591.6,87.6 591.7,87.6 591.9,87.6 592.1,88.6 592.2,89.4 592.4,88.3 592.6,88.5 592.7,89.6 592.9,98.6 593.0,99.9 593.2,91.3 593.4,92.2 593.5,97.5 593.7,96.9 593.9,98.6 594.0,100.3 594.2,101.4 594.3,101.4 594.5,103.0 594.7,105.1 594.8,101.9 595.0,99.6 595.2,94.6 595.3,93.3 595.5,94.9 595.6,103.0 595.8,103.7 596.0,106.0 596.1,103.2 596.3,100.4 596.5,102.6 596.6,104.5 596.8,96.8 597.0,94.9 597.1,95.1 597.3,93.8 597.4,93.5 597.6,93.4 597.8,93.3 597.9,90.5 598.1,87.9 598.3,89.5 598.4,87.9 598.6,87.6 598.7,93.1 598.9,94.0 599.1,95.7 599.2,96.8 599.4,96.5 599.6,94.9 599.7,94.9 599.9,95.3 600.0,95.3 600.2,94.9 600.4,94.2 600.5,98.6 600.7,98.6 600.9,96.0 601.0,89.4 601.2,88.5 601.3,89.6 601.5,89.0 601.7,87.6 601.8,91.7 602.0,96.4 602.2,94.1 602.3,94.2 602.5,97.7 602.6,98.0 602.8,97.9 603.0,101.5 603.1,104.5 603.3,100.1 603.5,97.1 603.6,96.8 603.8,101.0 603.9,96.8 604.1,99.0 604.3,99.3 604.4,102.2 604.6,104.4 604.8,108.7 604.9,115.9 605.1,108.8 605.2,109.3 605.4,111.5 605.6,109.6 605.7,106.0 605.9,107.1 606.1,106.0 606.2,106.0 606.4,105.0 606.5,105.0 606.7,107.6 606.9,107.8 607.0,109.6 607.2,110.8 607.4,113.3 607.5,112.6 607.7,110.1 607.8,115.1 608.0,109.8 608.2,115.0 608.3,114.8 608.5,115.0 608.7,115.0 608.8,117.0 609.0,117.0 609.1,117.0 609.3,114.0 609.5,114.1 609.6,115.1 609.8,115.9 610.0,115.1 610.1,115.7 610.3,116.3 610.4,116.3 610.6,119.2 610.8,118.5 610.9,118.1 611.1,117.9 611.3,117.0 611.4,117.0 611.6,117.7 611.8,116.9 611.9,117.5 612.1,116.5 612.2,117.3 612.4,117.3 612.6,117.7 612.7,118.7 612.9,120.1 613.1,118.6 613.2,118.6 613.4,118.6 613.5,119.5 613.7,118.8 613.9,120.1 614.0,119.7 614.2,122.7 614.4,123.9 614.5,123.4 614.7,124.1 614.8,124.6 615.0,124.8 615.2,125.8 615.3,129.4 615.5,127.0 615.7,128.6 615.8,128.0 616.0,128.0 616.1,128.0 616.3,127.8 616.5,127.8 616.6,128.4 616.8,127.5 617.0,126.3 617.1,126.2 617.3,128.0 617.4,126.4 617.6,127.1 617.8,128.0 617.9,129.1 618.1,129.8 618.3,131.5 618.4,129.9 618.6,129.8 618.7,128.7 618.9,128.7 619.1,130.4 619.2,125.2 619.4,128.5 619.6,128.0 619.7,127.9 619.9,125.3 620.0,127.6 620.2,127.6 620.4,125.4 620.5,130.2 620.7,128.0 620.9,128.0 621.0,129.4 621.2,131.7 621.3,135.5 621.5,138.1 621.7,142.7 621.8,135.4 622.0,135.4 622.2,136.9 622.3,126.3 622.5,127.3 622.6,126.2 622.8,131.0 623.0,136.3 623.1,138.3 623.3,136.8 623.5,135.8 623.6,125.8 623.8,134.2 623.9,127.1 624.1,126.2 624.3,126.2 624.4,129.7 624.6,134.5 624.8,135.5 624.9,135.4 625.1,134.5 625.3,135.7 625.4,135.4 625.6,135.4 625.7,135.4 625.9,134.8 626.1,133.3 626.2,134.5 626.4,136.2 626.6,135.4 626.7,135.4 626.9,134.6 627.0,129.7 627.2,132.0 627.4,133.3 627.5,134.1 627.7,134.8 627.9,132.6 628.0,131.7 628.2,131.8 628.3,129.8 628.5,129.9 628.7,128.1 628.8,126.5 629.0,127.5 629.2,124.8 629.3,126.2 629.5,124.7 629.6,123.0 629.8,120.7 630.0,120.7 630.1,122.4 630.3,127.3 630.5,126.1 630.6,119.4 630.8,117.0 630.9,116.5 631.1,116.9 631.3,115.2 631.4,109.7 631.6,117.9 631.8,117.0 631.9,119.4 632.1,120.7 632.2,123.9 632.4,117.9 632.6,116.4 632.7,110.9 632.9,111.8 633.1,110.7 633.2,111.5 633.4,111.2 633.5,111.5 633.7,119.6 633.9,117.0 634.0,113.9 634.2,113.3 634.4,118.8 634.5,113.6 634.7,109.6 634.8,113.3 635.0,113.3 635.2,113.3 635.3,112.9 635.5,113.3 635.7,111.5 635.8,111.8 636.0,112.9 636.1,112.4 636.3,114.8 636.5,115.3 636.6,117.0 636.8,116.1 637.0,118.7 637.1,118.7 637.3,118.8 637.4,119.9 637.6,120.1 637.8,122.6 637.9,121.0 638.1,117.2 638.3,116.8 638.4,113.3 638.6,113.3 638.7,113.4 638.9,113.2 639.1,109.7 639.2,112.6 639.4,112.4 639.6,110.1 639.7,112.4 639.9,113.3 640.1,112.2 640.2,113.8 640.4,114.4 640.5,114.1 640.7,116.0 640.9,115.1 641.0,115.5 641.2,115.5 641.4,115.1 641.5,115.9 641.7,116.6 641.8,120.7 642.0,122.5 642.2,125.0 642.3,125.1 642.5,118.3 642.7,118.0 642.8,121.6 643.0,120.8 643.1,124.3 643.3,117.9 643.5,119.8 643.6,120.9 643.8,121.0 644.0,121.6 644.1,127.9 644.3,125.8 644.4,124.3 644.6,126.0 644.8,124.9 644.9,126.1 645.1,129.6 645.3,136.2 645.4,135.4 645.6,135.4 645.7,136.5 645.9,135.4 646.1,135.2 646.2,136.3 646.4,135.7 646.6,134.8 646.7,136.5 646.9,132.8 647.0,134.9 647.2,133.7 647.4,135.4 647.5,135.6 647.7,136.3 647.9,137.1 648.0,137.9 648.2,137.1 648.3,137.2 648.5,142.3 648.7,140.5 648.8,141.8 649.0,140.0 649.2,139.1 649.3,141.3 649.5,139.3 649.6,138.3 649.8,137.2 650.0,137.2 650.1,135.6 650.3,134.6 650.5,135.2 650.6,137.1 650.8,133.0 650.9,124.5 651.1,132.8 651.3,125.3 651.4,125.8 651.6,125.2 651.8,125.1 651.9,125.2 652.1,130.8 652.2,129.9 652.4,125.6 652.6,126.2 652.7,126.2 652.9,125.4 653.1,129.8 653.2,129.5 653.4,124.3 653.6,122.5 653.7,122.5 653.9,122.5 654.0,124.3 654.2,122.9 654.4,123.8 654.5,122.9 654.7,122.9 654.9,120.7 655.0,121.4 655.2,121.8 655.3,121.7 655.5,120.7 655.7,120.1 655.8,120.7 656.0,115.1 656.2,113.7 656.3,114.0 656.5,118.7 656.6,115.1 656.8,109.8 657.0,109.2 657.1,106.0 657.3,98.6 657.5,104.1 657.6,101.5 657.8,98.6 657.9,85.7 658.1,86.8 658.3,90.3 658.4,98.6 658.6,97.1 658.8,97.2 658.9,97.9 659.1,98.6 659.2,96.8 659.4,94.9 659.6,94.9 659.7,96.0 659.9,94.9 660.1,93.1 660.2,94.9 660.4,94.9 660.5,94.9 660.7,94.2 660.9,94.9 661.0,95.5 661.2,95.0 661.4,100.4 661.5,102.1 661.7,106.0 661.8,106.0 662.0,108.3 662.2,107.8 662.3,108.0 662.5,106.0 662.7,106.0 662.8,107.8 663.0,114.4 663.1,117.3 663.3,117.0 663.5,117.0 663.6,113.7 663.8,113.9 664.0,114.6 664.1,117.9 664.3,122.9 664.4,114.7 664.6,113.3 664.8,113.7 664.9,121.8 665.1,123.2 665.3,124.3 665.4,124.5 665.6,124.1 665.7,120.7 665.9,123.6 666.1,122.9 666.2,122.5 666.4,123.9 666.6,117.0 666.7,120.7 666.9,115.7 667.0,109.6 667.2,112.9 667.4,101.9 667.5,106.0 667.7,113.3 667.9,117.0 668.0,120.7 668.2,120.7 668.4,122.4 668.5,121.6 668.7,120.7 668.8,121.8 669.0,124.7 669.2,123.1 669.3,120.7 669.5,120.7 669.7,124.1 669.8,123.4 670.0,122.5 670.1,121.0 670.3,122.0 670.5,121.9 670.6,120.7 670.8,117.0 671.0,120.6 671.1,119.5 671.3,113.7 671.4,108.2 671.6,103.7 671.8,104.1 671.9,120.5 672.1,120.7 672.3,99.5 672.4,116.0 672.6,111.9 672.7,112.5 672.9,107.8 673.1,108.5 673.2,112.0 673.4,111.0 673.6,113.3 673.7,113.3 673.9,112.6 674.0,112.2 674.2,117.1 674.4,118.4 674.5,117.8 674.7,115.3 674.9,119.9 675.0,119.7 675.2,121.2 675.3,124.0 675.5,122.4 675.7,119.5 675.8,120.7 676.0,119.0 676.2,121.8 676.3,118.8 676.5,121.4 676.6,121.0 676.8,119.0 677.0,119.4 677.1,115.5 677.3,120.1 677.5,110.5 677.6,114.8 677.8,117.0 677.9,117.3 678.1,119.5 678.3,119.7 678.4,117.9 678.6,114.6 678.8,111.5 678.9,111.7 679.1,112.1 679.2,109.6 679.4,107.6 679.6,109.6 679.7,109.7 679.9,110.4 680.1,110.3 680.2,107.2 680.4,101.4 680.5,106.7 680.7,108.2 680.9,105.0 681.0,104.2 681.2,107.1 681.4,110.3 681.5,107.1 681.7,107.9 681.9,110.4 682.0,112.4 682.2,109.3 682.3,113.1 682.5,107.8 682.7,107.2 682.8,111.5 683.0,109.6 683.2,109.6 683.3,108.9 683.5,109.6 683.6,110.0 683.8,109.6 684.0,111.5 684.1,116.6 684.3,113.3 684.5,115.7 684.6,115.0 684.8,116.9 684.9,115.1 685.1,102.8 685.3,108.7 685.4,111.0 685.6,106.7 685.8,108.3 685.9,113.3 686.1,112.4 686.2,115.0 686.4,113.3 686.6,114.1 686.7,116.1 686.9,113.5 687.1,111.1 687.2,115.8 687.4,115.4 687.5,113.3 687.7,115.1 687.9,116.4 688.0,111.4 688.2,115.9 688.4,109.7 688.5,109.0 688.7,110.5 688.8,109.6 689.0,109.6 689.2,110.4 689.3,111.1 689.5,108.9 689.7,110.2 689.8,111.5 690.0,106.1 690.1,106.0 690.3,107.1 690.5,108.7 690.6,102.3 690.8,104.1 691.0,107.8 691.1,110.0 691.3,109.5 691.4,112.0 691.6,106.3 691.8,106.0 691.9,102.3 692.1,105.6 692.3,102.3 692.4,108.7 692.6,107.2 692.7,110.7 692.9,113.1 693.1,117.0 693.2,113.3 693.4,113.1 693.6,117.0 693.7,117.0 693.9,117.3 694.0,117.0 694.2,117.2 694.4,115.1 694.5,117.0 694.7,111.5 694.9,115.7 695.0,117.0 695.2,117.5 695.3,117.9 695.5,117.9 695.7,117.2 695.8,118.4 696.0,119.5"/>
  <text x="60" y="62" font-size="11" fill="#2563eb">Price index</text>
  <text x="146" y="62" font-size="11" fill="#16a34a">Total return (price + distributions)</text>
  <text x="56" y="348" font-size="11" text-anchor="middle" fill="#444">2010-10</text><text x="216" y="348" font-size="11" text-anchor="middle" fill="#444">2014-09</text><text x="376" y="348" font-size="11" text-anchor="middle" fill="#444">2018-08</text><text x="536" y="348" font-size="11" text-anchor="middle" fill="#444">2022-07</text><text x="696" y="348" font-size="11" text-anchor="middle" fill="#444">2026-06</text>
</svg>
