<svg xmlns="http://www.w3.org/2000/svg" width="820" height="410" viewBox="0 0 820 410">
<rect width="820" height="410" fill="#fafafa"/><text x="78" y="22" font-size="14" font-family="sans-serif" fill="#0f172a">OTCM cumulative return since 2010-10-15 | dividends reinvested</text>
<text x="78" y="40" font-size="11" font-family="sans-serif" fill="#334155">Total return +1,607% | Price-only +746.9% | logarithmic scale</text>
<text x="78" y="54" font-size="9" font-family="sans-serif" fill="#64748b">Regular $33.45 | Special $0.00 | Other $0.00 per initial share path</text>
<line x1="78" y1="332.0" x2="796" y2="332.0" stroke="#e2e8f0"/><text x="70" y="336.0" font-size="10" text-anchor="end" fill="#64748b">-34.0%</text><line x1="78" y1="300.3" x2="796" y2="300.3" stroke="#e2e8f0"/><text x="70" y="304.3" font-size="10" text-anchor="end" fill="#64748b">0%</text><line x1="78" y1="287.0" x2="796" y2="287.0" stroke="#e2e8f0"/><text x="70" y="291.0" font-size="10" text-anchor="end" fill="#64748b">+19.1%</text><line x1="78" y1="242.0" x2="796" y2="242.0" stroke="#e2e8f0"/><text x="70" y="246.0" font-size="10" text-anchor="end" fill="#64748b">+115.0%</text><line x1="78" y1="197.0" x2="796" y2="197.0" stroke="#e2e8f0"/><text x="70" y="201.0" font-size="10" text-anchor="end" fill="#64748b">+288.2%</text><line x1="78" y1="152.0" x2="796" y2="152.0" stroke="#e2e8f0"/><text x="70" y="156.0" font-size="10" text-anchor="end" fill="#64748b">+600.6%</text><line x1="78" y1="107.0" x2="796" y2="107.0" stroke="#e2e8f0"/><text x="70" y="111.0" font-size="10" text-anchor="end" fill="#64748b">+1,165%</text><line x1="78" y1="62.0" x2="796" y2="62.0" stroke="#e2e8f0"/><text x="70" y="66.0" font-size="10" text-anchor="end" fill="#64748b">+2,183%</text>
<line x1="78" y1="332" x2="796" y2="332" stroke="#cbd5e1"/>
<polyline fill="none" stroke="#2563eb" stroke-width="2" points="78.0,300.3 78.2,300.3 78.4,300.3 78.5,300.3 78.7,300.3 78.9,299.0 79.1,297.8 79.3,297.8 79.5,297.8 79.6,297.8 79.8,297.8 80.0,302.1 80.2,302.1 80.4,302.1 80.5,302.1 80.7,302.1 80.9,302.1 81.1,302.1 81.3,302.1 81.4,302.1 81.6,302.1 81.8,302.1 82.0,302.1 82.2,302.1 82.4,302.1 82.5,302.1 82.7,302.1 82.9,299.0 83.1,299.0 83.3,299.0 83.4,299.0 83.6,299.0 83.8,299.0 84.0,299.0 84.2,300.8 84.3,300.8 84.5,301.5 84.7,302.1 84.9,302.1 85.1,302.1 85.3,298.4 85.4,298.4 85.6,303.3 85.8,303.3 86.0,303.3 86.2,303.3 86.3,302.1 86.5,301.5 86.7,301.5 86.9,301.5 87.1,301.2 87.3,301.8 87.4,301.8 87.6,302.4 87.8,302.4 88.0,302.4 88.2,302.4 88.3,302.4 88.5,302.4 88.7,302.4 88.9,299.4 89.1,299.4 89.2,301.1 89.4,301.1 89.6,301.1 89.8,301.1 90.0,301.1 90.2,302.1 90.3,302.6 90.5,302.1 90.7,302.1 90.9,302.1 91.1,302.1 91.2,302.1 91.4,302.1 91.6,302.1 91.8,302.1 92.0,304.0 92.1,304.0 92.3,305.3 92.5,305.3 92.7,305.5 92.9,305.3 93.1,303.4 93.2,303.4 93.4,303.4 93.6,304.7 93.8,302.1 94.0,302.1 94.1,302.1 94.3,302.1 94.5,302.1 94.7,303.4 94.9,303.4 95.1,303.4 95.2,303.4 95.4,303.4 95.6,303.4 95.8,303.4 96.0,303.4 96.1,303.4 96.3,303.4 96.5,303.4 96.7,301.5 96.9,304.7 97.0,304.0 97.2,301.5 97.4,301.5 97.6,301.5 97.8,301.5 98.0,301.5 98.1,301.5 98.3,301.5 98.5,301.5 98.7,301.5 98.9,301.5 99.0,305.2 99.2,305.2 99.4,308.7 99.6,302.7 99.8,302.7 99.9,303.4 100.1,303.4 100.3,303.4 100.5,303.4 100.7,302.7 100.9,302.7 101.0,302.7 101.2,304.0 101.4,303.4 101.6,306.0 101.8,306.0 101.9,305.9 102.1,305.9 102.3,305.9 102.5,305.9 102.7,305.9 102.9,305.9 103.0,305.9 103.2,305.9 103.4,304.0 103.6,304.7 103.8,304.7 103.9,304.7 104.1,306.3 104.3,306.3 104.5,308.5 104.7,308.6 104.8,308.6 105.0,306.0 105.2,305.3 105.4,305.3 105.6,305.3 105.8,305.3 105.9,305.3 106.1,305.3 106.3,305.3 106.5,306.0 106.7,306.0 106.8,306.0 107.0,306.0 107.2,306.0 107.4,306.0 107.6,306.0 107.8,306.0 107.9,306.0 108.1,306.0 108.3,306.0 108.5,308.0 108.7,308.0 108.8,308.0 109.0,301.0 109.2,305.3 109.4,305.3 109.6,305.2 109.7,305.2 109.9,304.7 110.1,304.7 110.3,304.7 110.5,305.3 110.7,305.3 110.8,301.0 111.0,301.0 111.2,305.3 111.4,305.3 111.6,305.3 111.7,307.4 111.9,307.4 112.1,307.4 112.3,307.4 112.5,307.4 112.6,307.4 112.8,305.3 113.0,308.0 113.2,308.6 113.4,306.0 113.6,306.0 113.7,308.7 113.9,309.0 114.1,309.0 114.3,309.0 114.5,309.9 114.6,310.4 114.8,313.0 115.0,313.0 115.2,313.0 115.4,313.0 115.6,313.0 115.7,313.0 115.9,313.0 116.1,303.4 116.3,303.4 116.5,311.6 116.6,310.8 116.8,310.8 117.0,310.8 117.2,310.8 117.4,309.4 117.5,309.4 117.7,309.4 117.9,309.4 118.1,309.4 118.3,314.5 118.5,314.2 118.6,314.2 118.8,314.2 119.0,314.2 119.2,315.1 119.4,315.1 119.5,315.2 119.7,315.2 119.9,315.2 120.1,315.2 120.3,315.2 120.4,315.2 120.6,313.7 120.8,313.7 121.0,313.7 121.2,313.7 121.4,313.7 121.5,317.5 121.7,317.5 121.9,317.4 122.1,317.4 122.3,317.4 122.4,317.4 122.6,317.4 122.8,317.4 123.0,317.4 123.2,316.0 123.4,316.0 123.5,316.0 123.7,316.0 123.9,316.0 124.1,316.0 124.3,316.0 124.4,316.0 124.6,315.8 124.8,315.8 125.0,316.0 125.2,313.7 125.3,313.7 125.5,313.7 125.7,313.7 125.9,314.5 126.1,314.6 126.3,316.0 126.4,316.0 126.6,316.0 126.8,316.0 127.0,316.0 127.2,314.5 127.3,314.5 127.5,315.5 127.7,316.0 127.9,316.0 128.1,316.0 128.2,316.0 128.4,314.5 128.6,314.5 128.8,314.5 129.0,314.5 129.2,314.5 129.3,314.5 129.5,313.0 129.7,313.0 129.9,313.0 130.1,313.0 130.2,313.0 130.4,313.0 130.6,313.0 130.8,313.0 131.0,313.0 131.2,313.0 131.3,313.0 131.5,313.0 131.7,313.0 131.9,313.0 132.1,311.6 132.2,313.0 132.4,313.0 132.6,313.0 132.8,313.0 133.0,313.6 133.1,310.8 133.3,310.8 133.5,311.6 133.7,311.6 133.9,308.3 134.1,308.3 134.2,308.3 134.4,308.3 134.6,308.3 134.8,308.3 135.0,308.3 135.1,308.3 135.3,308.3 135.5,308.3 135.7,302.1 135.9,303.4 136.0,303.4 136.2,304.7 136.4,304.7 136.6,304.7 136.8,304.7 137.0,304.7 137.1,304.7 137.3,305.2 137.5,305.2 137.7,305.2 137.9,305.2 138.0,302.7 138.2,302.7 138.4,302.2 138.6,298.4 138.8,298.9 139.0,296.1 139.1,296.0 139.3,296.0 139.5,298.4 139.7,298.4 139.9,299.6 140.0,296.0 140.2,299.0 140.4,299.0 140.6,299.0 140.8,299.0 140.9,299.0 141.1,299.0 141.3,299.6 141.5,299.6 141.7,299.6 141.9,299.6 142.0,297.8 142.2,298.6 142.4,298.1 142.6,298.1 142.8,297.8 142.9,297.8 143.1,297.2 143.3,297.2 143.5,297.2 143.7,298.4 143.8,296.0 144.0,296.0 144.2,293.1 144.4,293.1 144.6,292.6 144.8,292.6 144.9,293.7 145.1,293.7 145.3,293.7 145.5,293.7 145.7,293.7 145.8,293.7 146.0,293.7 146.2,296.0 146.4,296.0 146.6,296.0 146.8,295.9 146.9,295.9 147.1,295.9 147.3,295.4 147.5,294.8 147.7,294.8 147.8,294.8 148.0,294.8 148.2,294.8 148.4,294.8 148.6,294.8 148.7,294.8 148.9,294.8 149.1,292.0 149.3,292.0 149.5,292.0 149.7,292.0 149.8,292.0 150.0,293.7 150.2,293.1 150.4,293.1 150.6,293.7 150.7,293.7 150.9,292.0 151.1,291.5 151.3,290.9 151.5,290.9 151.7,290.6 151.8,297.7 152.0,297.7 152.2,297.7 152.4,296.0 152.6,296.6 152.7,296.6 152.9,296.6 153.1,296.0 153.3,296.0 153.5,296.0 153.6,296.6 153.8,296.6 154.0,296.6 154.2,296.6 154.4,296.6 154.6,296.6 154.7,296.6 154.9,296.6 155.1,296.6 155.3,296.6 155.5,296.6 155.6,296.0 155.8,292.1 156.0,292.1 156.2,292.1 156.4,292.1 156.5,292.6 156.7,292.1 156.9,290.6 157.1,290.6 157.3,292.6 157.5,292.6 157.6,290.6 157.8,290.6 158.0,290.6 158.2,290.4 158.4,290.4 158.5,290.4 158.7,290.4 158.9,290.4 159.1,290.4 159.3,290.4 159.5,290.1 159.6,290.1 159.8,290.1 160.0,290.1 160.2,296.0 160.4,296.0 160.5,287.2 160.7,287.2 160.9,287.2 161.1,287.2 161.3,287.2 161.4,287.7 161.6,287.7 161.8,286.8 162.0,288.7 162.2,289.3 162.4,289.3 162.5,289.3 162.7,289.3 162.9,290.4 163.1,290.4 163.3,290.4 163.4,290.4 163.6,290.4 163.8,289.4 164.0,289.4 164.2,289.4 164.3,289.4 164.5,289.4 164.7,289.4 164.9,289.4 165.1,289.4 165.3,290.4 165.4,290.4 165.6,290.4 165.8,287.7 166.0,286.6 166.2,286.6 166.3,286.3 166.5,286.6 166.7,286.8 166.9,286.6 167.1,286.6 167.3,286.6 167.4,286.6 167.6,286.6 167.8,285.1 168.0,285.1 168.2,285.1 168.3,282.6 168.5,281.1 168.7,281.6 168.9,281.6 169.1,281.6 169.2,281.1 169.4,281.1 169.6,281.1 169.8,281.6 170.0,281.6 170.2,282.1 170.3,281.1 170.5,281.1 170.7,281.1 170.9,281.6 171.1,281.6 171.2,281.6 171.4,281.6 171.6,281.6 171.8,286.0 172.0,286.0 172.1,286.0 172.3,286.0 172.5,281.6 172.7,281.1 172.9,288.6 173.1,286.1 173.2,286.1 173.4,286.0 173.6,285.5 173.8,285.5 174.0,287.2 174.1,287.2 174.3,287.2 174.5,287.2 174.7,287.2 174.9,287.2 175.1,287.2 175.2,285.6 175.4,285.6 175.6,285.6 175.8,286.6 176.0,286.6 176.1,286.6 176.3,286.6 176.5,286.6 176.7,286.6 176.9,286.6 177.0,286.6 177.2,286.6 177.4,286.6 177.6,281.1 177.8,283.5 178.0,283.5 178.1,285.0 178.3,285.0 178.5,285.0 178.7,284.6 178.9,284.6 179.0,284.6 179.2,284.6 179.4,284.6 179.6,284.6 179.8,284.6 179.9,283.0 180.1,283.0 180.3,283.3 180.5,283.3 180.7,283.3 180.9,283.1 181.0,283.1 181.2,283.3 181.4,283.1 181.6,282.1 181.8,282.6 181.9,281.3 182.1,281.3 182.3,281.1 182.5,281.8 182.7,280.7 182.9,280.7 183.0,281.1 183.2,281.1 183.4,281.1 183.6,281.1 183.8,281.1 183.9,281.1 184.1,280.8 184.3,280.8 184.5,280.4 184.7,280.2 184.8,280.2 185.0,279.3 185.2,279.3 185.4,279.3 185.6,279.3 185.8,279.3 185.9,279.3 186.1,279.3 186.3,279.7 186.5,279.3 186.7,279.2 186.8,279.2 187.0,279.2 187.2,279.2 187.4,279.2 187.6,279.2 187.7,279.2 187.9,280.2 188.1,282.7 188.3,281.6 188.5,280.2 188.7,280.2 188.8,280.2 189.0,280.2 189.2,280.2 189.4,280.2 189.6,279.2 189.7,280.2 189.9,280.2 190.1,282.1 190.3,280.1 190.5,280.2 190.7,280.2 190.8,280.2 191.0,280.2 191.2,280.2 191.4,280.2 191.6,280.2 191.7,280.2 191.9,280.2 192.1,280.2 192.3,280.2 192.5,280.2 192.6,280.2 192.8,280.2 193.0,278.8 193.2,278.8 193.4,278.8 193.6,278.8 193.7,279.7 193.9,279.7 194.1,279.7 194.3,277.8 194.5,278.3 194.6,278.3 194.8,278.3 195.0,276.0 195.2,278.3 195.4,279.2 195.6,279.7 195.7,276.0 195.9,276.0 196.1,276.0 196.3,278.3 196.5,277.8 196.6,278.7 196.8,278.8 197.0,278.8 197.2,277.8 197.4,278.3 197.5,278.3 197.7,278.3 197.9,278.8 198.1,278.8 198.3,278.8 198.5,278.8 198.6,278.8 198.8,278.8 199.0,278.8 199.2,278.8 199.4,278.8 199.5,279.2 199.7,279.2 199.9,279.2 200.1,279.3 200.3,278.3 200.4,280.2 200.6,280.2 200.8,279.2 201.0,279.2 201.2,279.2 201.4,279.3 201.5,279.3 201.7,279.3 201.9,279.3 202.1,279.3 202.3,279.3 202.4,279.3 202.6,280.2 202.8,280.2 203.0,280.2 203.2,280.2 203.4,280.2 203.5,280.2 203.7,280.2 203.9,280.2 204.1,280.2 204.3,280.2 204.4,280.2 204.6,276.6 204.8,276.6 205.0,276.6 205.2,278.3 205.3,278.3 205.5,278.3 205.7,278.8 205.9,278.8 206.1,278.8 206.3,280.2 206.4,280.2 206.6,280.2 206.8,280.2 207.0,280.2 207.2,280.2 207.3,280.7 207.5,280.2 207.7,280.7 207.9,280.7 208.1,281.1 208.2,281.1 208.4,282.9 208.6,282.6 208.8,282.6 209.0,282.6 209.2,282.6 209.3,282.6 209.5,282.6 209.7,282.7 209.9,282.7 210.1,282.7 210.2,282.7 210.4,282.7 210.6,283.1 210.8,283.3 211.0,282.8 211.2,283.7 211.3,282.8 211.5,282.1 211.7,282.0 211.9,282.0 212.1,281.9 212.2,282.6 212.4,282.6 212.6,282.6 212.8,282.6 213.0,283.6 213.1,283.1 213.3,283.6 213.5,282.1 213.7,282.1 213.9,283.6 214.1,283.6 214.2,284.1 214.4,284.0 214.6,284.0 214.8,284.0 215.0,283.6 215.1,284.0 215.3,284.0 215.5,283.5 215.7,283.5 215.9,283.5 216.0,283.5 216.2,284.0 216.4,284.0 216.6,284.0 216.8,284.0 217.0,284.0 217.1,284.0 217.3,282.1 217.5,282.1 217.7,282.1 217.9,282.6 218.0,282.6 218.2,282.6 218.4,283.0 218.6,283.1 218.8,283.1 219.0,282.2 219.1,282.2 219.3,282.9 219.5,279.2 219.7,279.2 219.9,283.0 220.0,283.0 220.2,282.6 220.4,282.6 220.6,282.6 220.8,282.6 220.9,282.1 221.1,282.5 221.3,282.6 221.5,282.6 221.7,282.6 221.9,282.6 222.0,282.6 222.2,282.6 222.4,282.6 222.6,282.6 222.8,283.0 222.9,283.0 223.1,283.0 223.3,283.0 223.5,283.0 223.7,283.0 223.8,283.0 224.0,280.2 224.2,282.6 224.4,282.6 224.6,282.6 224.8,282.6 224.9,282.0 225.1,282.0 225.3,283.1 225.5,283.1 225.7,282.6 225.8,282.6 226.0,282.5 226.2,280.2 226.4,280.2 226.6,281.1 226.8,281.1 226.9,281.1 227.1,281.1 227.3,282.6 227.5,283.2 227.7,282.6 227.8,282.6 228.0,284.0 228.2,284.0 228.4,283.6 228.6,284.1 228.7,283.6 228.9,284.0 229.1,284.0 229.3,282.6 229.5,283.1 229.7,281.6 229.8,282.7 230.0,283.1 230.2,276.6 230.4,280.2 230.6,280.2 230.7,276.5 230.9,278.8 231.1,278.3 231.3,278.3 231.5,278.3 231.6,278.3 231.8,278.3 232.0,278.3 232.2,277.7 232.4,277.8 232.6,277.8 232.7,277.7 232.9,277.7 233.1,277.4 233.3,277.8 233.5,277.4 233.6,277.4 233.8,277.4 234.0,277.4 234.2,277.8 234.4,277.7 234.6,277.3 234.7,277.3 234.9,277.3 235.1,277.3 235.3,276.0 235.5,275.6 235.6,275.6 235.8,275.6 236.0,275.4 236.2,275.6 236.4,275.6 236.5,275.6 236.7,274.1 236.9,274.1 237.1,274.1 237.3,274.0 237.5,274.2 237.6,274.2 237.8,274.2 238.0,274.2 238.2,274.2 238.4,274.2 238.5,274.2 238.7,274.2 238.9,274.2 239.1,274.2 239.3,274.2 239.5,274.2 239.6,274.2 239.8,274.2 240.0,274.2 240.2,272.9 240.4,272.9 240.5,273.4 240.7,273.4 240.9,273.4 241.1,273.4 241.3,273.4 241.4,274.2 241.6,274.2 241.8,272.5 242.0,268.3 242.2,268.3 242.4,268.3 242.5,265.5 242.7,265.5 242.9,268.3 243.1,264.3 243.3,268.2 243.4,262.0 243.6,262.0 243.8,261.3 244.0,261.3 244.2,261.3 244.3,261.3 244.5,261.3 244.7,260.9 244.9,260.9 245.1,260.9 245.3,260.9 245.4,260.9 245.6,260.9 245.8,260.9 246.0,260.9 246.2,258.7 246.3,259.5 246.5,255.9 246.7,254.2 246.9,254.5 247.1,254.2 247.3,252.5 247.4,255.4 247.6,255.4 247.8,255.4 248.0,253.9 248.2,244.7 248.3,246.5 248.5,244.7 248.7,246.2 248.9,244.7 249.1,244.7 249.2,244.7 249.4,249.3 249.6,249.3 249.8,249.3 250.0,248.5 250.2,248.5 250.3,249.3 250.5,248.3 250.7,249.3 250.9,249.3 251.1,248.0 251.2,248.0 251.4,248.0 251.6,248.0 251.8,247.7 252.0,248.0 252.1,247.7 252.3,247.7 252.5,248.7 252.7,248.3 252.9,248.3 253.1,249.6 253.2,247.7 253.4,247.7 253.6,247.7 253.8,247.7 254.0,247.7 254.1,246.2 254.3,246.1 254.5,244.4 254.7,245.3 254.9,244.4 255.1,244.4 255.2,244.4 255.4,244.4 255.6,245.3 255.8,246.2 256.0,244.7 256.1,244.7 256.3,244.7 256.5,245.3 256.7,245.3 256.9,243.8 257.0,243.8 257.2,243.8 257.4,243.8 257.6,244.1 257.8,243.8 258.0,243.8 258.1,243.8 258.3,243.8 258.5,243.8 258.7,243.8 258.9,243.2 259.0,243.1 259.2,243.1 259.4,242.9 259.6,240.9 259.8,239.5 259.9,239.5 260.1,238.1 260.3,235.4 260.5,237.5 260.7,236.2 260.9,243.2 261.0,236.9 261.2,236.2 261.4,236.4 261.6,235.9 261.8,236.2 261.9,235.9 262.1,235.9 262.3,235.9 262.5,235.7 262.7,234.9 262.9,234.9 263.0,234.9 263.2,234.9 263.4,234.9 263.6,234.3 263.8,235.4 263.9,235.4 264.1,235.3 264.3,233.8 264.5,237.3 264.7,237.2 264.8,237.3 265.0,235.7 265.2,235.7 265.4,235.7 265.6,235.4 265.8,235.4 265.9,235.4 266.1,234.9 266.3,234.9 266.5,234.9 266.7,234.9 266.8,234.9 267.0,234.9 267.2,234.9 267.4,235.4 267.6,235.4 267.7,235.4 267.9,235.4 268.1,235.4 268.3,235.4 268.5,234.9 268.7,232.8 268.8,233.3 269.0,233.3 269.2,232.8 269.4,232.8 269.6,232.8 269.7,232.8 269.9,235.3 270.1,235.6 270.3,235.6 270.5,236.2 270.7,238.9 270.8,238.6 271.0,237.5 271.2,237.3 271.4,238.6 271.6,238.6 271.7,237.6 271.9,238.6 272.1,238.6 272.3,239.2 272.5,239.2 272.6,238.6 272.8,238.5 273.0,237.0 273.2,237.0 273.4,237.0 273.6,237.5 273.7,235.9 273.9,237.5 274.1,235.9 274.3,237.5 274.5,235.4 274.6,237.5 274.8,230.5 275.0,234.6 275.2,233.6 275.4,233.3 275.5,230.5 275.7,232.3 275.9,232.3 276.1,232.3 276.3,230.8 276.5,230.5 276.6,230.6 276.8,230.6 277.0,230.0 277.2,230.8 277.4,229.8 277.5,230.3 277.7,231.0 277.9,230.0 278.1,229.8 278.3,229.3 278.5,229.3 278.6,227.1 278.8,227.1 279.0,227.1 279.2,224.3 279.4,224.3 279.5,224.3 279.7,224.3 279.9,224.3 280.1,225.0 280.3,225.0 280.4,225.0 280.6,225.0 280.8,225.0 281.0,225.5 281.2,225.3 281.4,226.9 281.5,225.9 281.7,225.9 281.9,225.9 282.1,227.4 282.3,228.8 282.4,228.6 282.6,228.3 282.8,228.8 283.0,228.8 283.2,228.8 283.4,229.8 283.5,229.3 283.7,229.7 283.9,228.8 284.1,227.4 284.3,227.4 284.4,227.4 284.6,227.4 284.8,228.3 285.0,227.4 285.2,226.9 285.3,226.9 285.5,227.4 285.7,227.4 285.9,228.5 286.1,228.6 286.3,228.6 286.4,229.8 286.6,230.0 286.8,230.0 287.0,227.6 287.2,229.8 287.3,228.6 287.5,228.6 287.7,225.0 287.9,225.0 288.1,225.0 288.2,225.0 288.4,225.0 288.6,226.2 288.8,226.7 289.0,226.4 289.2,226.4 289.3,226.4 289.5,226.4 289.7,226.4 289.9,226.4 290.1,226.2 290.2,226.2 290.4,226.2 290.6,226.2 290.8,227.4 291.0,227.4 291.2,227.4 291.3,227.4 291.5,227.4 291.7,227.4 291.9,226.2 292.1,228.6 292.2,230.2 292.4,232.3 292.6,232.8 292.8,232.8 293.0,232.8 293.1,228.6 293.3,228.1 293.5,233.6 293.7,234.1 293.9,234.3 294.1,236.5 294.2,235.4 294.4,235.4 294.6,235.4 294.8,235.4 295.0,233.3 295.1,235.4 295.3,234.9 295.5,234.9 295.7,234.6 295.9,236.5 296.0,234.6 296.2,234.9 296.4,235.4 296.6,236.2 296.8,235.9 297.0,236.5 297.1,236.2 297.3,236.6 297.5,234.9 297.7,233.6 297.9,233.6 298.0,233.6 298.2,234.2 298.4,233.8 298.6,233.8 298.8,234.8 299.0,234.9 299.1,235.1 299.3,235.4 299.5,238.1 299.7,236.7 299.9,236.7 300.0,235.9 300.2,236.4 300.4,236.4 300.6,236.4 300.8,237.5 300.9,237.3 301.1,237.3 301.3,236.9 301.5,237.5 301.7,237.5 301.9,237.5 302.0,237.3 302.2,237.5 302.4,237.3 302.6,237.5 302.8,237.5 302.9,237.3 303.1,237.3 303.3,237.3 303.5,237.5 303.7,237.5 303.8,237.5 304.0,237.4 304.2,237.0 304.4,237.4 304.6,237.5 304.8,237.0 304.9,237.5 305.1,236.7 305.3,237.3 305.5,237.5 305.7,237.0 305.8,237.3 306.0,237.3 306.2,237.3 306.4,237.0 306.6,237.3 306.8,237.0 306.9,237.0 307.1,236.8 307.3,237.0 307.5,237.3 307.7,237.3 307.8,238.1 308.0,238.7 308.2,238.7 308.4,239.0 308.6,238.7 308.7,239.3 308.9,240.1 309.1,240.0 309.3,240.4 309.5,242.0 309.7,241.2 309.8,234.9 310.0,237.5 310.2,233.6 310.4,232.5 310.6,232.0 310.7,231.8 310.9,231.5 311.1,231.0 311.3,227.6 311.5,226.7 311.6,226.7 311.8,226.4 312.0,225.3 312.2,225.5 312.4,225.7 312.6,225.9 312.7,225.7 312.9,227.4 313.1,227.4 313.3,225.7 313.5,227.4 313.6,227.4 313.8,227.4 314.0,226.2 314.2,226.2 314.4,227.4 314.6,228.1 314.7,228.8 314.9,230.3 315.1,230.3 315.3,227.4 315.5,227.7 315.6,227.4 315.8,225.9 316.0,226.2 316.2,226.3 316.4,226.3 316.5,226.9 316.7,226.7 316.9,226.7 317.1,227.4 317.3,227.4 317.5,227.4 317.6,230.3 317.8,230.0 318.0,231.5 318.2,231.5 318.4,231.0 318.5,227.9 318.7,227.9 318.9,229.5 319.1,226.9 319.3,227.4 319.4,227.4 319.6,227.4 319.8,227.4 320.0,229.5 320.2,230.3 320.4,231.0 320.5,232.3 320.7,232.3 320.9,232.3 321.1,232.3 321.3,232.6 321.4,234.9 321.6,234.7 321.8,233.9 322.0,234.3 322.2,229.2 322.4,229.2 322.5,229.4 322.7,229.2 322.9,229.2 323.1,229.2 323.3,228.6 323.4,226.9 323.6,226.7 323.8,226.7 324.0,227.4 324.2,228.3 324.3,228.3 324.5,225.1 324.7,225.6 324.9,225.6 325.1,226.2 325.3,226.2 325.4,224.1 325.6,225.0 325.8,225.0 326.0,225.5 326.2,225.9 326.3,223.9 326.5,223.9 326.7,223.9 326.9,223.4 327.1,222.7 327.3,221.7 327.4,222.7 327.6,222.3 327.8,221.8 328.0,221.8 328.2,222.2 328.3,221.7 328.5,221.6 328.7,221.9 328.9,222.3 329.1,222.3 329.2,222.4 329.4,222.5 329.6,223.6 329.8,224.4 330.0,222.7 330.2,222.9 330.3,223.0 330.5,223.0 330.7,223.3 330.9,223.3 331.1,224.1 331.2,223.6 331.4,223.4 331.6,222.7 331.8,223.2 332.0,223.6 332.1,223.6 332.3,223.6 332.5,222.7 332.7,223.9 332.9,224.6 333.1,224.6 333.2,225.1 333.4,224.1 333.6,224.1 333.8,223.9 334.0,223.9 334.1,223.9 334.3,224.0 334.5,224.0 334.7,223.9 334.9,223.9 335.1,223.9 335.2,223.9 335.4,224.6 335.6,223.9 335.8,224.1 336.0,224.1 336.1,224.3 336.3,224.1 336.5,224.1 336.7,224.2 336.9,224.1 337.0,224.1 337.2,221.9 337.4,221.9 337.6,222.7 337.8,224.1 338.0,226.2 338.1,226.2 338.3,225.3 338.5,225.0 338.7,223.0 338.9,223.0 339.0,223.4 339.2,224.0 339.4,224.1 339.6,223.9 339.8,223.4 339.9,223.9 340.1,223.9 340.3,223.9 340.5,223.0 340.7,223.0 340.9,223.9 341.0,223.2 341.2,223.2 341.4,223.2 341.6,224.2 341.8,225.0 341.9,223.9 342.1,224.3 342.3,223.2 342.5,224.3 342.7,223.5 342.9,223.4 343.0,223.2 343.2,223.2 343.4,223.2 343.6,223.2 343.8,223.4 343.9,223.2 344.1,223.9 344.3,223.9 344.5,224.1 344.7,224.3 344.8,224.3 345.0,223.2 345.2,223.2 345.4,223.9 345.6,223.9 345.8,223.6 345.9,223.6 346.1,223.2 346.3,222.5 346.5,221.6 346.7,221.6 346.8,220.5 347.0,220.5 347.2,220.5 347.4,219.5 347.6,218.4 347.7,219.0 347.9,219.0 348.1,218.0 348.3,218.0 348.5,217.9 348.7,217.9 348.8,218.2 349.0,218.1 349.2,218.0 349.4,218.4 349.6,217.5 349.7,217.5 349.9,217.5 350.1,217.1 350.3,217.5 350.5,217.5 350.7,217.5 350.8,217.5 351.0,217.5 351.2,216.1 351.4,216.1 351.6,215.3 351.7,215.3 351.9,215.1 352.1,215.1 352.3,215.1 352.5,215.1 352.6,214.3 352.8,214.3 353.0,214.3 353.2,214.3 353.4,213.3 353.6,214.3 353.7,214.2 353.9,214.3 354.1,214.2 354.3,214.2 354.5,216.3 354.6,216.3 354.8,219.5 355.0,214.3 355.2,214.3 355.4,214.3 355.5,214.7 355.7,214.3 355.9,214.3 356.1,214.3 356.3,214.3 356.5,214.3 356.6,213.3 356.8,213.3 357.0,213.3 357.2,210.4 357.4,210.4 357.5,210.4 357.7,210.4 357.9,210.4 358.1,206.6 358.3,205.7 358.5,205.7 358.6,206.5 358.8,205.7 359.0,205.7 359.2,205.3 359.4,205.2 359.5,204.5 359.7,204.5 359.9,205.2 360.1,203.1 360.3,203.1 360.4,203.1 360.6,204.7 360.8,204.8 361.0,204.8 361.2,202.2 361.4,202.2 361.5,199.7 361.7,203.1 361.9,203.4 362.1,203.8 362.3,203.8 362.4,203.8 362.6,203.7 362.8,203.8 363.0,204.3 363.2,204.0 363.3,204.0 363.5,204.0 363.7,204.0 363.9,204.0 364.1,204.7 364.3,204.8 364.4,206.6 364.6,204.8 364.8,206.1 365.0,206.3 365.2,206.1 365.3,205.6 365.5,205.6 365.7,208.3 365.9,210.3 366.1,211.5 366.3,210.0 366.4,211.9 366.6,210.4 366.8,213.8 367.0,214.1 367.2,213.8 367.3,213.5 367.5,209.8 367.7,212.3 367.9,211.3 368.1,211.3 368.2,210.4 368.4,208.5 368.6,208.5 368.8,207.6 369.0,211.1 369.2,210.0 369.3,210.4 369.5,210.0 369.7,208.5 369.9,207.2 370.1,207.2 370.2,204.8 370.4,204.0 370.6,204.0 370.8,204.8 371.0,206.6 371.2,206.6 371.3,206.6 371.5,204.8 371.7,206.6 371.9,206.6 372.1,206.6 372.2,206.6 372.4,204.8 372.6,204.8 372.8,204.8 373.0,204.8 373.1,203.1 373.3,203.1 373.5,206.6 373.7,205.7 373.9,204.8 374.1,206.6 374.2,205.7 374.4,206.5 374.6,204.8 374.8,204.8 375.0,204.8 375.1,204.4 375.3,204.8 375.5,203.3 375.7,205.7 375.9,204.8 376.0,204.8 376.2,204.8 376.4,204.8 376.6,204.8 376.8,204.8 377.0,203.1 377.1,204.8 377.3,204.8 377.5,204.8 377.7,204.8 377.9,204.8 378.0,203.1 378.2,203.1 378.4,203.1 378.6,203.1 378.8,203.1 379.0,203.1 379.1,203.1 379.3,203.1 379.5,201.4 379.7,201.4 379.9,199.7 380.0,201.4 380.2,201.4 380.4,201.4 380.6,200.5 380.8,201.4 380.9,199.7 381.1,198.9 381.3,198.9 381.5,199.7 381.7,201.4 381.9,201.4 382.0,198.4 382.2,198.1 382.4,194.9 382.6,194.6 382.8,194.6 382.9,198.1 383.1,198.1 383.3,198.1 383.5,190.4 383.7,193.4 383.8,193.4 384.0,197.3 384.2,193.4 384.4,190.5 384.6,193.4 384.8,193.4 384.9,193.4 385.1,195.0 385.3,195.0 385.5,195.7 385.7,194.7 385.8,194.7 386.0,193.4 386.2,193.4 386.4,190.4 386.6,194.9 386.8,194.9 386.9,194.0 387.1,191.8 387.3,191.1 387.5,196.4 387.7,196.4 387.8,194.7 388.0,194.4 388.2,193.4 388.4,194.9 388.6,193.4 388.7,190.4 388.9,191.8 389.1,190.4 389.3,194.9 389.5,193.4 389.7,194.1 389.8,193.4 390.0,193.4 390.2,193.4 390.4,194.1 390.6,194.1 390.7,194.9 390.9,194.5 391.1,196.5 391.3,199.7 391.5,186.7 391.6,184.7 391.8,181.3 392.0,181.7 392.2,182.7 392.4,182.3 392.6,183.4 392.7,180.7 392.9,180.5 393.1,177.0 393.3,175.9 393.5,174.5 393.6,179.2 393.8,182.6 394.0,178.2 394.2,177.7 394.4,179.3 394.6,177.7 394.7,177.7 394.9,180.7 395.1,177.5 395.3,179.7 395.5,180.0 395.6,180.7 395.8,179.2 396.0,179.0 396.2,179.1 396.4,179.3 396.5,179.3 396.7,178.7 396.9,179.0 397.1,179.5 397.3,178.8 397.5,179.5 397.6,180.7 397.8,180.7 398.0,180.5 398.2,180.5 398.4,186.7 398.5,190.0 398.7,192.1 398.9,194.0 399.1,196.0 399.3,193.3 399.4,194.9 399.6,194.6 399.8,194.2 400.0,194.3 400.2,191.1 400.4,191.1 400.5,191.1 400.7,188.1 400.9,190.4 401.1,190.4 401.3,193.4 401.4,194.9 401.6,193.8 401.8,193.4 402.0,194.1 402.2,192.0 402.4,193.7 402.5,191.8 402.7,191.8 402.9,192.1 403.1,193.2 403.3,193.4 403.4,189.8 403.6,186.2 403.8,185.4 404.0,185.4 404.2,185.5 404.3,184.7 404.5,184.6 404.7,183.4 404.9,182.0 405.1,180.7 405.3,181.6 405.4,181.0 405.6,179.8 405.8,179.8 406.0,179.8 406.2,182.0 406.3,180.7 406.5,180.1 406.7,180.1 406.9,179.8 407.1,181.9 407.2,180.2 407.4,180.2 407.6,179.9 407.8,180.7 408.0,181.5 408.2,180.3 408.3,183.3 408.5,182.0 408.7,184.0 408.9,184.9 409.1,187.2 409.2,186.1 409.4,188.9 409.6,188.9 409.8,190.8 410.0,191.0 410.2,191.4 410.3,190.4 410.5,189.5 410.7,189.9 410.9,189.8 411.1,190.9 411.2,191.5 411.4,192.1 411.6,191.1 411.8,190.4 412.0,192.4 412.1,190.4 412.3,192.7 412.5,191.1 412.7,190.4 412.9,192.4 413.1,192.6 413.2,192.9 413.4,193.2 413.6,193.8 413.8,194.7 414.0,194.8 414.1,196.0 414.3,197.1 414.5,189.2 414.7,188.3 414.9,186.8 415.1,187.5 415.2,187.5 415.4,186.1 415.6,184.0 415.8,184.0 416.0,183.4 416.1,184.3 416.3,185.0 416.5,185.8 416.7,186.7 416.9,186.4 417.0,185.4 417.2,186.1 417.4,190.0 417.6,190.4 417.8,190.4 418.0,190.1 418.1,188.1 418.3,189.9 418.5,190.0 418.7,188.9 418.9,184.7 419.0,185.0 419.2,188.1 419.4,187.9 419.6,187.8 419.8,187.2 419.9,187.4 420.1,186.8 420.3,186.8 420.5,188.9 420.7,186.8 420.9,188.5 421.0,190.0 421.2,186.1 421.4,185.9 421.6,185.9 421.8,185.9 421.9,182.6 422.1,182.6 422.3,182.6 422.5,187.6 422.7,186.9 422.9,186.9 423.0,185.3 423.2,186.7 423.4,187.5 423.6,187.5 423.8,187.5 423.9,188.3 424.1,186.2 424.3,184.7 424.5,185.3 424.7,184.7 424.8,185.4 425.0,187.5 425.2,188.9 425.4,189.6 425.6,184.7 425.8,187.5 425.9,186.8 426.1,186.5 426.3,188.2 426.5,187.6 426.7,187.6 426.8,187.5 427.0,182.4 427.2,185.4 427.4,184.8 427.6,185.4 427.7,187.6 427.9,184.9 428.1,186.1 428.3,183.4 428.5,181.5 428.7,182.7 428.8,185.2 429.0,185.2 429.2,183.2 429.4,183.4 429.6,183.4 429.7,182.3 429.9,183.4 430.1,183.4 430.3,181.4 430.5,181.4 430.7,181.9 430.8,180.7 431.0,181.3 431.2,181.4 431.4,180.7 431.6,181.1 431.7,181.0 431.9,181.0 432.1,181.0 432.3,181.5 432.5,181.5 432.6,181.5 432.8,178.3 433.0,178.8 433.2,178.8 433.4,179.5 433.6,179.8 433.7,179.5 433.9,179.5 434.1,180.0 434.3,178.8 434.5,179.5 434.6,178.8 434.8,180.7 435.0,180.7 435.2,182.0 435.4,181.5 435.5,181.3 435.7,181.3 435.9,182.0 436.1,184.3 436.3,182.1 436.5,182.1 436.6,182.0 436.8,182.0 437.0,182.0 437.2,182.0 437.4,182.0 437.5,182.3 437.7,182.3 437.9,182.7 438.1,182.7 438.3,183.8 438.5,183.8 438.6,182.2 438.8,182.7 439.0,182.7 439.2,182.8 439.4,182.7 439.5,185.4 439.7,182.8 439.9,182.8 440.1,182.7 440.3,184.2 440.4,184.7 440.6,184.7 440.8,184.7 441.0,183.4 441.2,182.7 441.4,179.8 441.5,182.6 441.7,183.1 441.9,182.8 442.1,182.8 442.3,182.4 442.4,186.1 442.6,187.4 442.8,186.1 443.0,178.8 443.2,174.1 443.3,173.6 443.5,172.3 443.7,173.4 443.9,175.0 444.1,175.7 444.3,176.6 444.4,179.3 444.6,179.2 444.8,179.5 445.0,178.8 445.2,179.5 445.3,179.3 445.5,179.0 445.7,177.6 445.9,174.5 446.1,174.0 446.3,174.5 446.4,174.3 446.6,172.9 446.8,174.8 447.0,174.5 447.2,174.6 447.3,175.1 447.5,175.4 447.7,175.7 447.9,179.7 448.1,176.4 448.2,179.8 448.4,179.8 448.6,179.8 448.8,179.5 449.0,178.3 449.2,178.6 449.3,179.0 449.5,179.4 449.7,179.5 449.9,181.5 450.1,180.0 450.2,180.4 450.4,181.4 450.6,181.4 450.8,181.7 451.0,183.2 451.1,183.5 451.3,184.7 451.5,186.1 451.7,185.8 451.9,185.3 452.1,184.8 452.2,184.7 452.4,182.0 452.6,181.9 452.8,181.7 453.0,182.1 453.1,181.4 453.3,179.8 453.5,179.5 453.7,179.3 453.9,178.2 454.1,177.0 454.2,176.5 454.4,176.2 454.6,176.2 454.8,177.0 455.0,180.5 455.1,179.5 455.3,179.6 455.5,178.8 455.7,178.8 455.9,180.1 456.0,180.0 456.2,179.6 456.4,176.7 456.6,174.7 456.8,172.1 457.0,165.8 457.1,165.6 457.3,163.0 457.5,163.5 457.7,162.6 457.9,163.5 458.0,165.0 458.2,163.5 458.4,164.5 458.6,162.5 458.8,162.3 458.9,163.5 459.1,163.7 459.3,163.5 459.5,162.9 459.7,162.9 459.9,163.5 460.0,162.8 460.2,157.6 460.4,163.5 460.6,161.5 460.8,161.5 460.9,162.0 461.1,164.5 461.3,166.6 461.5,168.3 461.7,172.9 461.9,170.6 462.0,170.2 462.2,167.7 462.4,167.7 462.6,168.7 462.8,170.8 462.9,170.9 463.1,171.1 463.3,173.1 463.5,174.1 463.7,170.6 463.8,174.0 464.0,172.2 464.2,173.4 464.4,172.8 464.6,173.4 464.8,175.6 464.9,176.0 465.1,175.7 465.3,176.0 465.5,174.5 465.7,177.0 465.8,175.7 466.0,172.8 466.2,171.1 466.4,167.7 466.6,169.4 466.8,168.8 466.9,169.9 467.1,165.6 467.3,167.7 467.5,166.6 467.7,165.7 467.8,166.7 468.0,163.5 468.2,164.5 468.4,167.9 468.6,168.8 468.7,170.3 468.9,171.1 469.1,177.0 469.3,176.6 469.5,178.2 469.7,178.0 469.8,178.2 470.0,177.6 470.2,178.2 470.4,179.1 470.6,180.0 470.7,179.8 470.9,179.8 471.1,176.7 471.3,178.2 471.5,180.6 471.6,179.5 471.8,179.2 472.0,179.5 472.2,179.5 472.4,179.5 472.6,180.0 472.7,180.0 472.9,180.0 473.1,177.0 473.3,176.6 473.5,175.7 473.6,173.8 473.8,169.4 474.0,175.3 474.2,173.4 474.4,171.1 474.6,168.0 474.7,174.9 474.9,174.2 475.1,174.8 475.3,174.8 475.5,174.6 475.6,174.5 475.8,173.3 476.0,174.1 476.2,174.2 476.4,174.1 476.5,173.6 476.7,174.5 476.9,174.5 477.1,174.3 477.3,172.2 477.5,171.7 477.6,171.7 477.8,171.4 478.0,169.3 478.2,176.7 478.4,170.5 478.5,172.2 478.7,172.2 478.9,169.9 479.1,168.2 479.3,165.6 479.4,163.5 479.6,163.0 479.8,161.6 480.0,163.8 480.2,164.4 480.4,166.1 480.5,169.9 480.7,174.3 480.9,174.4 481.1,174.3 481.3,174.3 481.4,175.7 481.6,172.2 481.8,172.3 482.0,173.8 482.2,173.4 482.4,171.1 482.5,171.1 482.7,171.1 482.9,170.5 483.1,169.4 483.3,169.9 483.4,169.9 483.6,167.7 483.8,167.8 484.0,166.7 484.2,167.6 484.3,168.5 484.5,168.2 484.7,167.2 484.9,170.7 485.1,166.6 485.3,165.6 485.4,166.6 485.6,165.6 485.8,164.5 486.0,165.5 486.2,165.8 486.3,163.5 486.5,166.5 486.7,165.0 486.9,163.5 487.1,165.7 487.2,169.6 487.4,169.5 487.6,166.6 487.8,163.7 488.0,165.5 488.2,166.6 488.3,166.5 488.5,166.2 488.7,168.8 488.9,167.1 489.1,169.1 489.2,169.3 489.4,169.7 489.6,168.4 489.8,170.7 490.0,170.4 490.2,170.0 490.3,169.9 490.5,168.9 490.7,168.8 490.9,169.0 491.1,170.8 491.2,170.6 491.4,172.2 491.6,172.9 491.8,174.5 492.0,169.9 492.1,169.7 492.3,169.0 492.5,169.3 492.7,169.1 492.9,169.4 493.1,169.9 493.2,170.3 493.4,170.2 493.6,170.2 493.8,169.9 494.0,169.9 494.1,169.9 494.3,169.6 494.5,169.6 494.7,169.9 494.9,172.2 495.0,170.5 495.2,168.8 495.4,168.8 495.6,167.9 495.8,169.0 496.0,168.8 496.1,168.8 496.3,168.4 496.5,168.4 496.7,167.7 496.9,168.9 497.0,168.8 497.2,169.0 497.4,168.7 497.6,168.7 497.8,169.0 498.0,169.0 498.1,168.9 498.3,167.7 498.5,168.3 498.7,169.0 498.9,169.9 499.0,169.9 499.2,170.2 499.4,170.0 499.6,170.4 499.8,169.8 499.9,170.4 500.1,169.9 500.3,169.4 500.5,168.8 500.7,169.9 500.9,168.8 501.0,168.9 501.2,169.3 501.4,168.8 501.6,169.5 501.8,168.9 501.9,168.8 502.1,168.8 502.3,168.8 502.5,168.8 502.7,168.8 502.8,168.8 503.0,168.7 503.2,169.7 503.4,168.8 503.6,168.7 503.8,169.5 503.9,168.8 504.1,169.2 504.3,169.4 504.5,168.9 504.7,168.8 504.8,171.1 505.0,170.5 505.2,170.5 505.4,172.2 505.6,172.2 505.8,174.5 505.9,173.6 506.1,172.7 506.3,176.8 506.5,175.7 506.7,181.4 506.8,180.7 507.0,181.8 507.2,188.3 507.4,188.4 507.6,191.7 507.7,191.8 507.9,193.4 508.1,194.9 508.3,194.9 508.5,199.7 508.7,194.9 508.8,191.3 509.0,188.5 509.2,192.4 509.4,190.4 509.6,185.8 509.7,187.5 509.9,187.4 510.1,186.5 510.3,188.6 510.5,188.9 510.7,185.0 510.8,186.8 511.0,186.7 511.2,188.5 511.4,186.1 511.6,187.4 511.7,184.7 511.9,188.1 512.1,188.3 512.3,188.9 512.5,188.8 512.6,188.9 512.8,188.8 513.0,187.5 513.2,186.1 513.4,179.9 513.6,178.9 513.7,183.4 513.9,184.0 514.1,184.7 514.3,185.8 514.5,184.6 514.6,186.1 514.8,185.8 515.0,186.8 515.2,186.1 515.4,186.1 515.5,184.7 515.7,183.4 515.9,181.3 516.1,181.1 516.3,181.9 516.5,181.1 516.6,180.7 516.8,181.4 517.0,180.3 517.2,180.9 517.4,181.7 517.5,180.2 517.7,180.6 517.9,179.5 518.1,180.5 518.3,179.8 518.5,179.5 518.6,176.7 518.8,175.3 519.0,175.3 519.2,172.7 519.4,177.2 519.5,177.7 519.7,177.0 519.9,178.5 520.1,178.3 520.3,177.5 520.4,179.4 520.6,178.2 520.8,176.9 521.0,179.5 521.2,178.3 521.4,178.8 521.5,179.0 521.7,179.3 521.9,178.3 522.1,180.5 522.3,180.4 522.4,180.7 522.6,180.8 522.8,181.1 523.0,181.2 523.2,180.2 523.3,180.9 523.5,181.4 523.7,180.6 523.9,180.6 524.1,180.3 524.3,180.5 524.4,180.0 524.6,181.8 524.8,179.5 525.0,179.5 525.2,182.0 525.3,181.0 525.5,181.5 525.7,181.3 525.9,179.5 526.1,179.9 526.3,179.5 526.4,179.5 526.6,175.7 526.8,174.5 527.0,176.5 527.2,176.7 527.3,178.2 527.5,180.1 527.7,177.5 527.9,175.7 528.1,175.7 528.2,175.7 528.4,175.5 528.6,175.7 528.8,174.5 529.0,175.7 529.2,175.7 529.3,177.0 529.5,177.0 529.7,178.7 529.9,178.0 530.1,178.2 530.2,179.4 530.4,179.3 530.6,179.3 530.8,179.4 531.0,179.4 531.1,178.1 531.3,179.5 531.5,179.5 531.7,180.2 531.9,178.9 532.1,179.9 532.2,179.2 532.4,180.1 532.6,180.1 532.8,180.2 533.0,180.7 533.1,180.7 533.3,180.7 533.5,180.7 533.7,180.0 533.9,178.8 534.1,179.2 534.2,178.1 534.4,180.5 534.6,180.0 534.8,180.7 535.0,179.4 535.1,179.1 535.3,177.0 535.5,176.8 535.7,176.8 535.9,176.8 536.0,178.2 536.2,179.0 536.4,179.5 536.6,180.4 536.8,180.0 537.0,179.9 537.1,178.2 537.3,174.5 537.5,173.0 537.7,173.0 537.9,171.6 538.0,171.6 538.2,169.9 538.4,171.0 538.6,168.8 538.8,170.8 538.9,170.8 539.1,170.5 539.3,170.8 539.5,168.4 539.7,167.8 539.9,168.3 540.0,168.3 540.2,167.7 540.4,168.9 540.6,167.7 540.8,168.0 540.9,168.0 541.1,167.7 541.3,168.8 541.5,167.7 541.7,167.7 541.9,167.7 542.0,169.1 542.2,167.9 542.4,167.7 542.6,167.7 542.8,165.6 542.9,166.6 543.1,167.7 543.3,167.7 543.5,168.3 543.7,171.0 543.8,169.6 544.0,169.3 544.2,169.9 544.4,167.7 544.6,166.2 544.8,165.6 544.9,166.6 545.1,167.7 545.3,167.4 545.5,168.9 545.7,167.7 545.8,166.0 546.0,167.7 546.2,167.7 546.4,168.3 546.6,168.3 546.7,169.2 546.9,169.9 547.1,168.3 547.3,167.7 547.5,169.9 547.7,169.9 547.8,165.6 548.0,166.1 548.2,166.1 548.4,166.6 548.6,168.4 548.7,167.5 548.9,167.9 549.1,161.5 549.3,161.5 549.5,161.5 549.7,161.9 549.8,160.5 550.0,161.5 550.2,161.4 550.4,159.2 550.6,161.0 550.7,161.1 550.9,161.5 551.1,161.5 551.3,158.0 551.5,157.5 551.6,155.7 551.8,158.9 552.0,160.5 552.2,155.7 552.4,156.6 552.6,159.5 552.7,154.7 552.9,158.2 553.1,157.5 553.3,154.3 553.5,154.3 553.6,157.6 553.8,157.5 554.0,157.5 554.2,158.0 554.4,157.4 554.6,160.5 554.7,157.4 554.9,157.5 555.1,159.5 555.3,158.0 555.5,156.8 555.6,157.5 555.8,157.5 556.0,157.5 556.2,157.4 556.4,157.5 556.5,156.1 556.7,155.7 556.9,157.5 557.1,157.1 557.3,157.5 557.5,158.5 557.6,158.5 557.8,157.5 558.0,156.9 558.2,157.1 558.4,154.4 558.5,156.2 558.7,157.1 558.9,157.1 559.1,155.7 559.3,157.1 559.4,155.7 559.6,153.8 559.8,153.8 560.0,153.8 560.2,155.2 560.4,155.2 560.5,153.8 560.7,154.7 560.9,153.5 561.1,152.6 561.3,150.3 561.4,152.0 561.6,152.0 561.8,144.4 562.0,151.3 562.2,145.1 562.4,144.4 562.5,147.7 562.7,148.4 562.9,146.6 563.1,144.5 563.3,144.8 563.4,144.8 563.6,146.9 563.8,145.3 564.0,144.0 564.2,142.1 564.3,137.6 564.5,140.9 564.7,140.9 564.9,140.9 565.1,142.1 565.3,142.9 565.4,142.1 565.6,144.4 565.8,141.7 566.0,146.6 566.2,142.5 566.3,142.1 566.5,142.2 566.7,136.5 566.9,142.1 567.1,144.4 567.2,141.4 567.4,145.3 567.6,146.9 567.8,148.1 568.0,146.9 568.2,142.9 568.3,145.7 568.5,143.7 568.7,142.1 568.9,142.1 569.1,145.7 569.2,146.1 569.4,146.1 569.6,146.9 569.8,148.6 570.0,150.3 570.2,153.1 570.3,150.7 570.5,152.9 570.7,151.2 570.9,151.3 571.1,151.0 571.2,148.6 571.4,147.7 571.6,147.7 571.8,148.1 572.0,149.0 572.1,149.0 572.3,147.8 572.5,148.9 572.7,148.6 572.9,147.7 573.1,148.9 573.2,148.7 573.4,148.6 573.6,148.6 573.8,148.7 574.0,148.6 574.1,148.6 574.3,148.6 574.5,148.6 574.7,147.3 574.9,147.7 575.0,147.7 575.2,137.6 575.4,140.5 575.6,145.3 575.8,146.5 576.0,146.3 576.1,145.3 576.3,146.3 576.5,146.2 576.7,146.5 576.9,147.7 577.0,147.7 577.2,147.3 577.4,145.6 577.6,145.3 577.8,144.4 578.0,137.7 578.1,141.3 578.3,142.1 578.5,141.4 578.7,145.5 578.9,143.6 579.0,143.6 579.2,142.1 579.4,142.9 579.6,143.2 579.8,143.4 579.9,142.1 580.1,139.8 580.3,142.4 580.5,142.8 580.7,140.5 580.9,140.5 581.0,140.5 581.2,140.2 581.4,143.3 581.6,139.0 581.8,139.8 581.9,139.8 582.1,139.8 582.3,140.5 582.5,138.7 582.7,139.9 582.8,140.5 583.0,137.3 583.2,136.7 583.4,134.7 583.6,131.9 583.8,127.9 583.9,126.6 584.1,128.9 584.3,129.9 584.5,129.8 584.7,129.8 584.8,128.3 585.0,128.3 585.2,128.3 585.4,128.6 585.6,129.2 585.8,127.9 585.9,127.9 586.1,128.3 586.3,128.3 586.5,128.3 586.7,128.3 586.8,129.9 587.0,130.7 587.2,129.9 587.4,128.5 587.6,127.9 587.7,128.6 587.9,128.3 588.1,128.6 588.3,127.6 588.5,127.6 588.7,129.8 588.8,129.2 589.0,129.2 589.2,129.1 589.4,129.1 589.6,129.1 589.7,129.1 589.9,127.8 590.1,126.6 590.3,126.7 590.5,126.7 590.6,129.0 590.8,126.6 591.0,125.6 591.2,126.7 591.4,127.1 591.6,126.6 591.7,125.6 591.9,126.6 592.1,126.5 592.3,124.7 592.5,124.2 592.6,126.3 592.8,125.1 593.0,124.8 593.2,124.8 593.4,124.8 593.6,124.8 593.7,124.1 593.9,123.5 594.1,122.4 594.3,122.9 594.5,122.9 594.6,124.1 594.8,124.1 595.0,124.4 595.2,124.8 595.4,126.1 595.5,126.0 595.7,126.0 595.9,126.7 596.1,126.6 596.3,126.9 596.5,128.3 596.6,129.6 596.8,129.2 597.0,130.6 597.2,137.0 597.4,131.9 597.5,135.4 597.7,134.7 597.9,136.1 598.1,136.7 598.3,135.4 598.5,132.6 598.6,129.2 598.8,129.2 599.0,126.7 599.2,128.6 599.4,119.5 599.5,125.3 599.7,122.9 599.9,122.9 600.1,121.7 600.3,121.7 600.4,121.8 600.6,120.5 600.8,121.1 601.0,123.5 601.2,124.1 601.4,126.4 601.5,127.9 601.7,127.9 601.9,127.3 602.1,126.3 602.3,125.7 602.4,124.1 602.6,125.4 602.8,128.3 603.0,127.9 603.2,126.8 603.3,127.9 603.5,126.6 603.7,127.9 603.9,129.9 604.1,129.4 604.3,130.5 604.4,131.6 604.6,130.5 604.8,132.9 605.0,132.9 605.2,133.2 605.3,129.2 605.5,131.6 605.7,131.9 605.9,133.2 606.1,133.6 606.3,133.7 606.4,133.6 606.6,133.6 606.8,133.1 607.0,132.4 607.2,132.6 607.3,133.2 607.5,133.2 607.7,133.0 607.9,133.1 608.1,133.2 608.2,132.2 608.4,130.8 608.6,129.9 608.8,121.7 609.0,125.4 609.2,127.9 609.3,128.6 609.5,127.6 609.7,130.6 609.9,128.7 610.1,129.0 610.2,129.0 610.4,129.2 610.6,129.9 610.8,132.7 611.0,132.6 611.1,132.4 611.3,132.4 611.5,133.3 611.7,133.6 611.9,133.2 612.1,132.2 612.2,130.8 612.4,130.6 612.6,130.2 612.8,130.2 613.0,130.6 613.1,131.9 613.3,131.2 613.5,131.9 613.7,131.9 613.9,131.9 614.1,131.9 614.2,131.9 614.4,134.5 614.6,134.4 614.8,132.6 615.0,132.6 615.1,132.6 615.3,134.5 615.5,134.5 615.7,132.9 615.9,133.6 616.0,133.3 616.2,133.6 616.4,133.3 616.6,133.3 616.8,133.3 617.0,133.3 617.1,132.8 617.3,133.3 617.5,133.3 617.7,131.9 617.9,132.6 618.0,132.2 618.2,132.9 618.4,132.7 618.6,133.3 618.8,133.1 618.9,133.3 619.1,131.9 619.3,131.9 619.5,132.9 619.7,133.3 619.9,134.3 620.0,137.1 620.2,136.1 620.4,136.2 620.6,135.9 620.8,134.6 620.9,133.8 621.1,135.2 621.3,134.0 621.5,134.0 621.7,133.6 621.9,133.3 622.0,132.2 622.2,131.9 622.4,131.9 622.6,133.2 622.8,131.9 622.9,131.9 623.1,131.7 623.3,133.2 623.5,133.2 623.7,133.1 623.8,132.9 624.0,133.2 624.2,132.9 624.4,132.7 624.6,132.6 624.8,132.7 624.9,132.2 625.1,131.9 625.3,131.9 625.5,131.8 625.7,132.4 625.8,132.6 626.0,133.2 626.2,133.2 626.4,131.9 626.6,131.9 626.7,133.2 626.9,133.1 627.1,133.2 627.3,131.9 627.5,131.9 627.7,131.9 627.8,131.9 628.0,129.9 628.2,129.9 628.4,129.9 628.6,130.5 628.7,129.9 628.9,130.2 629.1,129.9 629.3,127.8 629.5,127.3 629.7,126.6 629.8,126.8 630.0,126.5 630.2,127.5 630.4,127.4 630.6,127.3 630.7,129.2 630.9,128.6 631.1,128.6 631.3,128.6 631.5,128.8 631.6,129.9 631.8,132.7 632.0,133.3 632.2,131.4 632.4,131.4 632.6,130.6 632.7,131.2 632.9,131.1 633.1,129.9 633.3,131.1 633.5,130.6 633.6,130.6 633.8,130.6 634.0,129.4 634.2,129.9 634.4,131.2 634.5,131.9 634.7,131.2 634.9,129.9 635.1,130.6 635.3,130.2 635.5,130.7 635.6,131.2 635.8,130.2 636.0,130.6 636.2,130.2 636.4,130.2 636.5,130.3 636.7,129.9 636.9,130.4 637.1,130.4 637.3,131.8 637.5,130.2 637.6,130.6 637.8,130.5 638.0,130.2 638.2,130.2 638.4,129.9 638.5,129.6 638.7,129.2 638.9,129.2 639.1,129.3 639.3,129.3 639.4,128.7 639.6,128.5 639.8,125.4 640.0,125.4 640.2,126.6 640.4,125.4 640.5,126.8 640.7,126.8 640.9,127.3 641.1,127.4 641.3,127.3 641.4,127.8 641.6,128.3 641.8,128.3 642.0,129.0 642.2,128.1 642.4,128.1 642.5,127.9 642.7,127.9 642.9,128.6 643.1,128.4 643.3,129.6 643.4,129.2 643.6,130.7 643.8,133.2 644.0,133.2 644.2,134.7 644.3,132.4 644.5,132.0 644.7,132.4 644.9,132.8 645.1,132.1 645.3,131.5 645.4,131.2 645.6,131.2 645.8,131.1 646.0,130.6 646.2,130.6 646.3,130.6 646.5,131.9 646.7,131.2 646.9,130.9 647.1,131.2 647.2,132.5 647.4,132.0 647.6,132.6 647.8,132.6 648.0,133.2 648.2,132.9 648.3,133.0 648.5,132.9 648.7,129.2 648.9,132.9 649.1,132.2 649.2,129.2 649.4,129.2 649.6,131.8 649.8,130.6 650.0,129.3 650.2,128.3 650.3,127.9 650.5,129.2 650.7,127.3 650.9,127.6 651.1,127.3 651.2,124.1 651.4,125.4 651.6,127.9 651.8,128.1 652.0,127.9 652.1,128.2 652.3,129.2 652.5,130.4 652.7,130.5 652.9,131.2 653.1,130.6 653.2,130.9 653.4,131.7 653.6,131.6 653.8,132.3 654.0,131.9 654.1,131.8 654.3,132.2 654.5,131.1 654.7,131.4 654.9,131.6 655.0,130.6 655.2,131.9 655.4,130.9 655.6,132.2 655.8,131.8 656.0,131.6 656.1,132.4 656.3,132.9 656.5,132.6 656.7,132.9 656.9,132.4 657.0,131.9 657.2,128.6 657.4,129.9 657.6,129.9 657.8,129.9 658.0,129.8 658.1,129.9 658.3,129.9 658.5,130.6 658.7,130.6 658.9,130.3 659.0,130.3 659.2,130.2 659.4,126.6 659.6,125.4 659.8,126.0 659.9,125.4 660.1,124.9 660.3,127.6 660.5,128.4 660.7,128.4 660.9,129.8 661.0,130.3 661.2,129.3 661.4,128.3 661.6,128.7 661.8,128.7 661.9,128.6 662.1,129.2 662.3,129.2 662.5,130.6 662.7,131.0 662.8,131.1 663.0,130.6 663.2,130.9 663.4,131.5 663.6,131.3 663.8,131.4 663.9,131.2 664.1,131.5 664.3,130.7 664.5,127.9 664.7,130.2 664.8,130.1 665.0,130.2 665.2,130.4 665.4,130.7 665.6,131.9 665.8,131.8 665.9,131.1 666.1,131.8 666.3,132.9 666.5,132.7 666.7,133.2 666.8,133.2 667.0,133.2 667.2,133.2 667.4,133.2 667.6,133.2 667.7,133.3 667.9,134.5 668.1,135.4 668.3,136.4 668.5,137.4 668.7,138.9 668.8,139.0 669.0,140.0 669.2,139.0 669.4,135.5 669.6,138.5 669.7,138.4 669.9,139.0 670.1,138.3 670.3,140.4 670.5,139.8 670.6,138.4 670.8,138.6 671.0,138.6 671.2,139.6 671.4,136.8 671.6,136.5 671.7,137.2 671.9,137.3 672.1,134.7 672.3,134.4 672.5,134.8 672.6,135.4 672.8,136.1 673.0,136.1 673.2,136.3 673.4,136.1 673.6,136.4 673.7,136.2 673.9,135.9 674.1,129.9 674.3,129.2 674.5,129.9 674.6,130.6 674.8,131.2 675.0,130.2 675.2,127.9 675.4,126.6 675.5,126.6 675.7,126.6 675.9,127.0 676.1,127.3 676.3,126.9 676.5,127.0 676.6,127.3 676.8,130.6 677.0,131.0 677.2,127.9 677.4,128.3 677.5,130.2 677.7,130.0 677.9,130.6 678.1,131.2 678.3,131.6 678.4,131.6 678.6,132.2 678.8,132.9 679.0,131.8 679.2,130.9 679.4,129.1 679.5,128.6 679.7,129.2 679.9,132.2 680.1,132.4 680.3,133.3 680.4,132.3 680.6,131.2 680.8,132.0 681.0,132.7 681.2,129.9 681.4,129.2 681.5,129.3 681.7,128.8 681.9,128.7 682.1,128.7 682.3,128.6 682.4,127.7 682.6,126.7 682.8,127.3 683.0,126.7 683.2,126.6 683.3,128.6 683.5,128.9 683.7,129.5 683.9,129.9 684.1,129.8 684.3,129.2 684.4,129.2 684.6,129.3 684.8,129.3 685.0,129.2 685.2,129.0 685.3,130.6 685.5,130.6 685.7,129.6 685.9,127.3 686.1,127.0 686.3,127.3 686.4,127.2 686.6,126.7 686.8,128.1 687.0,129.7 687.2,128.9 687.3,129.0 687.5,130.2 687.7,130.3 687.9,130.3 688.1,131.6 688.2,132.7 688.4,131.1 688.6,130.0 688.8,129.9 689.0,131.4 689.2,129.9 689.3,130.7 689.5,130.8 689.7,131.9 689.9,132.7 690.1,134.3 690.2,137.1 690.4,134.4 690.6,134.5 690.8,135.4 691.0,134.7 691.1,133.3 691.3,133.7 691.5,133.3 691.7,133.3 691.9,132.9 692.1,132.9 692.2,133.9 692.4,134.0 692.6,134.7 692.8,135.1 693.0,136.1 693.1,135.8 693.3,134.9 693.5,136.8 693.7,134.7 693.9,136.8 694.1,136.7 694.2,136.7 694.4,136.7 694.6,137.6 694.8,137.6 695.0,137.6 695.1,136.4 695.3,136.4 695.5,136.8 695.7,137.1 695.9,136.8 696.0,137.0 696.2,137.3 696.4,137.3 696.6,138.4 696.8,138.2 697.0,138.0 697.1,137.9 697.3,137.6 697.5,137.6 697.7,137.8 697.9,137.5 698.0,137.8 698.2,137.3 698.4,137.7 698.6,137.7 698.8,137.8 698.9,138.3 699.1,138.8 699.3,138.2 699.5,138.2 699.7,138.2 699.9,138.6 700.0,138.3 700.2,138.8 700.4,138.7 700.6,139.9 700.8,140.4 700.9,140.2 701.1,140.4 701.3,140.6 701.5,140.7 701.7,141.2 701.9,142.7 702.0,141.7 702.2,142.3 702.4,142.1 702.6,142.1 702.8,142.1 702.9,142.0 703.1,142.0 703.3,142.2 703.5,141.9 703.7,141.4 703.8,141.3 704.0,142.1 704.2,141.4 704.4,141.7 704.6,142.1 704.8,142.5 704.9,142.9 705.1,143.6 705.3,142.9 705.5,142.9 705.7,142.4 705.8,142.4 706.0,143.1 706.2,140.9 706.4,142.3 706.6,142.1 706.7,142.0 706.9,140.9 707.1,141.9 707.3,141.9 707.5,141.0 707.7,143.0 707.8,142.1 708.0,142.1 708.2,142.7 708.4,143.6 708.6,145.3 708.7,146.5 708.9,148.6 709.1,145.3 709.3,145.3 709.5,146.0 709.7,141.4 709.8,141.8 710.0,141.3 710.2,143.4 710.4,145.7 710.6,146.5 710.7,145.9 710.9,145.4 711.1,141.2 711.3,144.8 711.5,141.7 711.6,141.3 711.8,141.3 712.0,142.8 712.2,144.9 712.4,145.3 712.6,145.3 712.7,144.9 712.9,145.4 713.1,145.3 713.3,145.3 713.5,145.3 713.6,145.0 713.8,144.4 714.0,144.9 714.2,145.6 714.4,145.3 714.5,145.3 714.7,144.9 714.9,142.8 715.1,143.8 715.3,144.4 715.5,144.7 715.6,145.0 715.8,144.0 716.0,143.6 716.2,143.7 716.4,142.9 716.5,142.9 716.7,142.1 716.9,141.5 717.1,141.8 717.3,140.7 717.5,141.3 717.6,140.7 717.8,140.0 718.0,139.0 718.2,139.0 718.4,139.7 718.5,141.8 718.7,141.3 718.9,138.5 719.1,137.6 719.3,137.4 719.4,137.5 719.6,136.8 719.8,134.7 720.0,137.9 720.2,137.6 720.4,138.5 720.5,139.0 720.7,140.4 720.9,137.9 721.1,137.3 721.3,135.2 721.4,135.5 721.6,135.1 721.8,135.4 722.0,135.3 722.2,135.4 722.3,138.6 722.5,137.6 722.7,136.3 722.9,136.1 723.1,138.3 723.3,136.2 723.4,134.7 723.6,136.1 723.8,136.1 724.0,136.1 724.2,136.0 724.3,136.1 724.5,135.4 724.7,135.5 724.9,135.9 725.1,135.7 725.3,136.7 725.4,136.9 725.6,137.6 725.8,137.2 726.0,138.2 726.2,138.2 726.3,138.3 726.5,138.7 726.7,138.8 726.9,139.8 727.1,139.2 727.2,137.6 727.4,137.5 727.6,136.1 727.8,136.1 728.0,136.1 728.2,136.1 728.3,134.7 728.5,135.8 728.7,135.7 728.9,134.9 729.1,135.7 729.2,136.1 729.4,135.7 729.6,136.3 729.8,136.5 730.0,136.4 730.2,137.2 730.3,136.8 730.5,137.0 730.7,137.0 730.9,136.8 731.1,137.1 731.2,137.4 731.4,139.0 731.6,139.8 731.8,140.8 732.0,140.8 732.1,138.1 732.3,137.9 732.5,139.4 732.7,139.1 732.9,140.5 733.1,137.9 733.2,138.7 733.4,139.1 733.6,139.2 733.8,139.4 734.0,142.0 734.1,141.1 734.3,140.5 734.5,141.2 734.7,140.8 734.9,141.3 735.0,142.8 735.2,145.6 735.4,145.3 735.6,145.3 735.8,145.7 736.0,145.3 736.1,145.2 736.3,145.7 736.5,145.4 736.7,145.0 736.9,145.7 737.0,144.1 737.2,145.1 737.4,144.5 737.6,145.3 737.8,145.4 738.0,145.7 738.1,146.0 738.3,146.4 738.5,146.0 738.7,146.1 738.9,148.4 739.0,147.6 739.2,148.1 739.4,147.3 739.6,146.9 739.8,147.9 739.9,147.0 740.1,146.5 740.3,146.1 740.5,146.1 740.7,145.4 740.9,144.9 741.0,145.2 741.2,146.0 741.4,144.2 741.6,140.6 741.8,144.1 741.9,140.9 742.1,141.2 742.3,140.9 742.5,140.9 742.7,140.9 742.8,143.3 743.0,142.9 743.2,141.1 743.4,141.3 743.6,141.3 743.8,141.0 743.9,142.9 744.1,142.7 744.3,140.5 744.5,139.8 744.7,139.8 744.8,139.8 745.0,140.5 745.2,139.9 745.4,140.3 745.6,139.9 745.8,139.9 745.9,139.0 746.1,139.3 746.3,139.5 746.5,139.4 746.7,139.0 746.8,138.8 747.0,139.0 747.2,136.8 747.4,136.3 747.6,136.4 747.7,138.3 747.9,136.8 748.1,134.7 748.3,134.5 748.5,133.3 748.7,130.6 748.8,132.6 749.0,131.6 749.2,130.6 749.4,126.0 749.6,126.4 749.7,127.6 749.9,130.6 750.1,130.0 750.3,130.0 750.5,130.3 750.6,130.6 750.8,129.9 751.0,129.2 751.2,129.2 751.4,129.6 751.6,129.2 751.7,128.6 751.9,129.2 752.1,129.2 752.3,129.2 752.5,129.0 752.6,129.2 752.8,129.4 753.0,129.2 753.2,131.2 753.4,131.8 753.6,133.3 753.7,133.3 753.9,134.2 754.1,134.0 754.3,134.0 754.5,133.3 754.6,133.3 754.8,134.0 755.0,136.5 755.2,137.7 755.4,137.6 755.5,137.6 755.7,136.3 755.9,136.3 756.1,136.6 756.3,137.9 756.5,140.0 756.6,136.7 756.8,136.1 757.0,136.3 757.2,139.5 757.4,140.1 757.5,140.5 757.7,140.6 757.9,140.4 758.1,139.0 758.3,140.2 758.4,139.9 758.6,139.8 758.8,140.4 759.0,137.6 759.2,139.0 759.4,137.1 759.5,134.7 759.7,135.9 759.9,131.8 760.1,133.3 760.3,136.1 760.4,137.6 760.6,139.0 760.8,139.0 761.0,139.8 761.2,139.4 761.4,139.0 761.5,139.5 761.7,140.7 761.9,140.0 762.1,139.0 762.3,139.0 762.4,140.5 762.6,140.2 762.8,139.8 763.0,139.2 763.2,139.6 763.3,139.6 763.5,139.0 763.7,137.6 763.9,139.0 764.1,138.6 764.3,136.3 764.4,134.1 764.6,132.4 764.8,132.6 765.0,139.0 765.2,139.0 765.3,130.9 765.5,137.2 765.7,135.6 765.9,135.8 766.1,134.0 766.2,134.3 766.4,135.6 766.6,135.2 766.8,136.1 767.0,136.1 767.2,135.8 767.3,135.7 767.5,137.6 767.7,138.1 767.9,137.9 768.1,136.9 768.2,138.7 768.4,138.7 768.6,139.2 768.8,140.4 769.0,139.7 769.2,138.6 769.3,139.0 769.5,138.4 769.7,139.5 769.9,138.3 770.1,139.3 770.2,139.2 770.4,138.4 770.6,138.5 770.8,137.0 771.0,138.8 771.1,135.0 771.3,136.7 771.5,137.6 771.7,137.7 771.9,138.6 772.1,138.7 772.2,137.9 772.4,136.6 772.6,135.4 772.8,135.5 773.0,135.6 773.1,134.7 773.3,133.9 773.5,134.7 773.7,134.7 773.9,135.0 774.1,134.9 774.2,133.8 774.4,131.6 774.6,133.6 774.8,134.1 775.0,132.9 775.1,132.6 775.3,133.7 775.5,134.9 775.7,133.7 775.9,134.0 776.0,135.0 776.2,135.7 776.4,134.5 776.6,136.0 776.8,134.0 777.0,133.8 777.1,135.4 777.3,134.7 777.5,134.6 777.7,134.4 777.9,134.7 778.0,134.8 778.2,134.7 778.4,135.4 778.6,137.4 778.8,136.1 778.9,137.0 779.1,136.7 779.3,137.5 779.5,136.8 779.7,132.1 779.9,134.3 780.0,135.2 780.2,133.6 780.4,134.2 780.6,136.1 780.8,135.7 780.9,136.7 781.1,136.1 781.3,136.4 781.5,137.2 781.7,136.2 781.9,135.3 782.0,137.1 782.2,136.9 782.4,136.1 782.6,136.8 782.8,137.3 782.9,135.3 783.1,137.1 783.3,134.7 783.5,134.4 783.7,135.0 783.8,134.7 784.0,134.7 784.2,135.0 784.4,135.2 784.6,134.4 784.8,134.9 784.9,135.4 785.1,133.3 785.3,133.3 785.5,133.7 785.7,134.3 785.8,131.9 786.0,132.6 786.2,134.0 786.4,134.8 786.6,134.6 786.7,135.6 786.9,133.4 787.1,133.3 787.3,131.9 787.5,133.1 787.7,131.9 787.8,134.3 788.0,133.7 788.2,135.1 788.4,136.0 788.6,137.6 788.7,136.1 788.9,136.0 789.1,137.6 789.3,137.6 789.5,137.7 789.7,137.6 789.8,137.6 790.0,136.8 790.2,137.6 790.4,135.4 790.6,137.0 790.7,137.6 790.9,137.8 791.1,137.9 791.3,137.9 791.5,137.6 791.6,138.1 791.8,138.6 792.0,138.6 792.2,138.0 792.4,137.6 792.6,138.4 792.7,137.9 792.9,138.9 793.1,139.0 793.3,138.3 793.5,139.0 793.6,138.9 793.8,139.0 794.0,138.7 794.2,138.3 794.4,138.9 794.5,138.4 794.7,138.4 794.9,138.7 795.1,139.0 795.3,135.1 795.5,135.6 795.6,136.5 795.8,137.4 796.0,137.6"/><polyline fill="none" stroke="#16a34a" stroke-width="3" points="78.0,300.3 78.2,300.3 78.4,300.3 78.5,300.3 78.7,300.3 78.9,299.0 79.1,297.8 79.3,297.8 79.5,297.8 79.6,297.8 79.8,297.8 80.0,302.1 80.2,302.1 80.4,302.1 80.5,302.1 80.7,302.1 80.9,302.1 81.1,302.1 81.3,302.1 81.4,302.1 81.6,302.1 81.8,302.1 82.0,302.1 82.2,302.1 82.4,302.1 82.5,302.1 82.7,302.1 82.9,299.0 83.1,299.0 83.3,299.0 83.4,299.0 83.6,299.0 83.8,299.0 84.0,299.0 84.2,300.8 84.3,300.8 84.5,301.5 84.7,302.1 84.9,302.1 85.1,302.1 85.3,298.4 85.4,298.4 85.6,303.3 85.8,303.3 86.0,302.7 86.2,302.7 86.3,301.6 86.5,301.0 86.7,301.0 86.9,301.0 87.1,300.7 87.3,301.3 87.4,301.3 87.6,301.8 87.8,301.8 88.0,301.8 88.2,301.8 88.3,301.8 88.5,301.8 88.7,301.8 88.9,298.8 89.1,298.8 89.2,300.6 89.4,300.6 89.6,300.6 89.8,300.6 90.0,300.6 90.2,301.6 90.3,302.1 90.5,301.6 90.7,301.6 90.9,301.6 91.1,301.6 91.2,301.6 91.4,301.6 91.6,301.6 91.8,301.6 92.0,303.5 92.1,303.5 92.3,304.8 92.5,304.8 92.7,305.0 92.9,304.8 93.1,302.9 93.2,302.9 93.4,302.9 93.6,304.2 93.8,301.6 94.0,301.6 94.1,301.6 94.3,301.6 94.5,301.6 94.7,302.9 94.9,302.9 95.1,302.9 95.2,302.9 95.4,302.9 95.6,302.9 95.8,302.9 96.0,302.9 96.1,302.9 96.3,302.9 96.5,302.9 96.7,301.0 96.9,304.2 97.0,303.0 97.2,300.4 97.4,300.4 97.6,300.4 97.8,300.4 98.0,300.4 98.1,300.4 98.3,300.4 98.5,300.4 98.7,300.4 98.9,300.4 99.0,304.2 99.2,304.2 99.4,307.7 99.6,301.7 99.8,301.7 99.9,302.4 100.1,302.4 100.3,302.4 100.5,302.4 100.7,301.7 100.9,301.7 101.0,301.7 101.2,303.0 101.4,302.4 101.6,305.0 101.8,305.0 101.9,304.8 102.1,304.8 102.3,304.8 102.5,304.8 102.7,304.8 102.9,304.8 103.0,304.8 103.2,304.8 103.4,303.0 103.6,303.7 103.8,303.7 103.9,303.7 104.1,305.2 104.3,305.2 104.5,307.4 104.7,307.6 104.8,307.6 105.0,305.0 105.2,304.3 105.4,304.3 105.6,304.3 105.8,304.3 105.9,304.3 106.1,304.3 106.3,304.3 106.5,305.0 106.7,305.0 106.8,305.0 107.0,305.0 107.2,305.0 107.4,305.0 107.6,305.0 107.8,305.0 107.9,305.0 108.1,305.0 108.3,305.0 108.5,307.0 108.7,306.5 108.8,306.5 109.0,299.4 109.2,303.8 109.4,303.8 109.6,303.6 109.7,303.6 109.9,303.1 110.1,303.1 110.3,303.1 110.5,303.8 110.7,303.8 110.8,299.4 111.0,299.4 111.2,303.8 111.4,303.8 111.6,303.8 111.7,305.8 111.9,305.8 112.1,305.8 112.3,305.8 112.5,305.8 112.6,305.8 112.8,303.8 113.0,306.5 113.2,307.0 113.4,304.4 113.6,304.4 113.7,307.2 113.9,307.4 114.1,307.4 114.3,307.4 114.5,308.3 114.6,308.8 114.8,311.4 115.0,311.4 115.2,311.4 115.4,311.4 115.6,311.4 115.7,311.4 115.9,311.4 116.1,301.8 116.3,301.8 116.5,310.0 116.6,309.3 116.8,309.3 117.0,309.3 117.2,309.3 117.4,307.8 117.5,307.8 117.7,307.8 117.9,307.8 118.1,307.8 118.3,312.9 118.5,312.6 118.6,312.6 118.8,312.6 119.0,312.6 119.2,313.5 119.4,313.5 119.5,313.7 119.7,313.7 119.9,313.7 120.1,313.1 120.3,313.1 120.4,313.1 120.6,311.6 120.8,311.6 121.0,311.6 121.2,311.6 121.4,311.6 121.5,315.4 121.7,315.4 121.9,315.2 122.1,315.2 122.3,315.2 122.4,315.2 122.6,315.2 122.8,315.2 123.0,315.2 123.2,313.8 123.4,313.8 123.5,313.8 123.7,313.8 123.9,313.8 124.1,313.8 124.3,313.8 124.4,313.8 124.6,313.7 124.8,313.7 125.0,313.8 125.2,311.6 125.3,311.6 125.5,311.6 125.7,311.6 125.9,312.3 126.1,312.5 126.3,313.8 126.4,313.8 126.6,313.8 126.8,313.8 127.0,313.8 127.2,312.3 127.3,312.3 127.5,313.4 127.7,313.8 127.9,313.8 128.1,313.8 128.2,313.8 128.4,312.3 128.6,312.3 128.8,312.3 129.0,312.3 129.2,312.3 129.3,312.3 129.5,310.8 129.7,310.8 129.9,310.8 130.1,310.8 130.2,310.8 130.4,310.8 130.6,310.8 130.8,310.8 131.0,310.8 131.2,310.8 131.3,310.8 131.5,310.8 131.7,310.2 131.9,310.2 132.1,308.8 132.2,310.2 132.4,310.2 132.6,310.2 132.8,310.2 133.0,310.8 133.1,308.1 133.3,308.1 133.5,308.8 133.7,308.8 133.9,305.6 134.1,305.6 134.2,305.6 134.4,305.6 134.6,305.6 134.8,305.6 135.0,305.6 135.1,305.6 135.3,305.6 135.5,305.6 135.7,299.3 135.9,300.6 136.0,300.6 136.2,301.9 136.4,301.9 136.6,301.9 136.8,301.9 137.0,301.9 137.1,301.9 137.3,302.4 137.5,302.4 137.7,302.4 137.9,302.4 138.0,300.0 138.2,300.0 138.4,299.5 138.6,295.6 138.8,296.1 139.0,293.4 139.1,293.2 139.3,293.2 139.5,295.6 139.7,295.6 139.9,296.8 140.0,293.2 140.2,296.2 140.4,296.2 140.6,296.2 140.8,296.2 140.9,296.2 141.1,296.2 141.3,296.8 141.5,296.8 141.7,296.8 141.9,296.8 142.0,295.0 142.2,295.9 142.4,295.4 142.6,295.4 142.8,294.4 142.9,294.4 143.1,293.8 143.3,293.8 143.5,293.8 143.7,295.0 143.8,292.6 144.0,292.6 144.2,289.8 144.4,289.8 144.6,289.2 144.8,289.2 144.9,290.3 145.1,290.3 145.3,290.3 145.5,290.3 145.7,290.3 145.8,290.3 146.0,290.3 146.2,292.6 146.4,292.6 146.6,292.6 146.8,292.5 146.9,292.5 147.1,292.5 147.3,292.1 147.5,291.5 147.7,291.5 147.8,291.5 148.0,291.5 148.2,291.5 148.4,291.5 148.6,291.5 148.7,291.5 148.9,291.5 149.1,288.6 149.3,288.6 149.5,288.6 149.7,288.6 149.8,288.6 150.0,290.3 150.2,289.8 150.4,289.8 150.6,290.3 150.7,290.3 150.9,288.6 151.1,288.1 151.3,287.5 151.5,287.5 151.7,287.2 151.8,294.3 152.0,294.3 152.2,294.3 152.4,292.6 152.6,293.2 152.7,293.2 152.9,293.2 153.1,292.6 153.3,292.6 153.5,292.6 153.6,293.2 153.8,293.2 154.0,293.2 154.2,292.6 154.4,292.6 154.6,292.6 154.7,292.6 154.9,292.6 155.1,292.6 155.3,292.6 155.5,292.6 155.6,292.1 155.8,288.2 156.0,288.2 156.2,288.2 156.4,288.2 156.5,288.6 156.7,288.2 156.9,286.6 157.1,286.6 157.3,288.6 157.5,288.6 157.6,286.6 157.8,286.6 158.0,286.6 158.2,286.4 158.4,286.4 158.5,286.4 158.7,286.4 158.9,286.4 159.1,286.4 159.3,286.4 159.5,286.2 159.6,286.2 159.8,286.2 160.0,286.2 160.2,292.1 160.4,292.1 160.5,283.2 160.7,283.2 160.9,283.2 161.1,283.2 161.3,283.2 161.4,283.7 161.6,283.7 161.8,282.9 162.0,284.8 162.2,285.3 162.4,285.3 162.5,285.3 162.7,285.3 162.9,286.4 163.1,286.4 163.3,286.4 163.4,286.4 163.6,286.4 163.8,285.4 164.0,285.4 164.2,285.4 164.3,285.4 164.5,285.4 164.7,285.4 164.9,285.4 165.1,285.4 165.3,286.4 165.4,286.4 165.6,285.9 165.8,283.2 166.0,282.1 166.2,282.1 166.3,281.8 166.5,282.1 166.7,282.4 166.9,282.1 167.1,282.1 167.3,282.1 167.4,282.1 167.6,282.1 167.8,280.6 168.0,280.6 168.2,280.6 168.3,278.1 168.5,276.6 168.7,277.1 168.9,277.1 169.1,277.1 169.2,276.6 169.4,276.6 169.6,276.6 169.8,277.1 170.0,277.1 170.2,277.6 170.3,276.6 170.5,276.6 170.7,276.6 170.9,277.1 171.1,277.1 171.2,277.1 171.4,277.1 171.6,277.1 171.8,281.5 172.0,281.5 172.1,281.5 172.3,281.5 172.5,277.1 172.7,276.6 172.9,284.1 173.1,281.6 173.2,281.6 173.4,281.5 173.6,281.0 173.8,278.5 174.0,280.2 174.1,280.2 174.3,280.2 174.5,280.2 174.7,280.2 174.9,280.2 175.1,280.2 175.2,278.6 175.4,278.1 175.6,278.1 175.8,279.1 176.0,279.1 176.1,279.1 176.3,279.1 176.5,279.1 176.7,279.1 176.9,279.1 177.0,279.1 177.2,279.1 177.4,279.1 177.6,273.6 177.8,276.0 178.0,276.0 178.1,277.5 178.3,277.5 178.5,277.5 178.7,277.1 178.9,277.1 179.0,277.1 179.2,277.1 179.4,277.1 179.6,277.1 179.8,277.1 179.9,275.5 180.1,275.5 180.3,275.8 180.5,275.8 180.7,275.8 180.9,275.6 181.0,275.6 181.2,275.8 181.4,275.6 181.6,274.6 181.8,275.1 181.9,273.8 182.1,273.8 182.3,273.6 182.5,274.3 182.7,273.1 182.9,273.1 183.0,273.6 183.2,273.6 183.4,273.6 183.6,273.6 183.8,273.6 183.9,273.6 184.1,273.2 184.3,273.2 184.5,272.9 184.7,272.7 184.8,272.7 185.0,271.8 185.2,271.8 185.4,271.8 185.6,271.8 185.8,271.8 185.9,271.8 186.1,271.8 186.3,272.2 186.5,271.8 186.7,271.7 186.8,271.7 187.0,271.7 187.2,271.7 187.4,271.7 187.6,271.2 187.7,271.2 187.9,272.1 188.1,274.6 188.3,273.5 188.5,272.1 188.7,272.1 188.8,272.1 189.0,272.1 189.2,272.1 189.4,272.1 189.6,271.2 189.7,272.1 189.9,272.1 190.1,274.0 190.3,272.0 190.5,272.1 190.7,272.1 190.8,272.1 191.0,272.1 191.2,272.1 191.4,272.1 191.6,272.1 191.7,272.1 191.9,272.1 192.1,272.1 192.3,272.1 192.5,272.1 192.6,272.1 192.8,272.1 193.0,270.7 193.2,270.7 193.4,270.7 193.6,270.7 193.7,271.6 193.9,271.6 194.1,271.6 194.3,269.8 194.5,270.2 194.6,270.2 194.8,270.2 195.0,267.9 195.2,270.2 195.4,271.2 195.6,271.6 195.7,267.9 195.9,267.9 196.1,267.9 196.3,270.2 196.5,269.8 196.6,270.6 196.8,270.7 197.0,270.7 197.2,269.8 197.4,270.2 197.5,270.2 197.7,270.2 197.9,270.7 198.1,270.7 198.3,270.7 198.5,270.7 198.6,270.7 198.8,270.1 199.0,270.1 199.2,270.1 199.4,270.1 199.5,270.6 199.7,270.6 199.9,270.6 200.1,270.7 200.3,269.7 200.4,271.5 200.6,271.5 200.8,270.6 201.0,270.6 201.2,270.6 201.4,270.7 201.5,270.7 201.7,270.7 201.9,270.7 202.1,270.7 202.3,270.7 202.4,270.7 202.6,271.5 202.8,271.5 203.0,271.5 203.2,271.5 203.4,271.5 203.5,271.5 203.7,271.5 203.9,271.5 204.1,271.5 204.3,271.5 204.4,271.5 204.6,267.9 204.8,267.9 205.0,267.9 205.2,269.7 205.3,269.7 205.5,269.7 205.7,270.1 205.9,270.1 206.1,270.1 206.3,271.5 206.4,271.5 206.6,271.5 206.8,271.5 207.0,271.5 207.2,271.5 207.3,272.0 207.5,271.5 207.7,272.0 207.9,272.0 208.1,272.5 208.2,272.5 208.4,274.3 208.6,274.0 208.8,274.0 209.0,274.0 209.2,274.0 209.3,274.0 209.5,274.0 209.7,274.1 209.9,274.1 210.1,274.1 210.2,273.5 210.4,273.5 210.6,273.9 210.8,274.1 211.0,273.6 211.2,274.5 211.3,273.6 211.5,272.9 211.7,272.8 211.9,272.8 212.1,272.7 212.2,273.4 212.4,273.4 212.6,273.4 212.8,273.4 213.0,274.4 213.1,273.9 213.3,274.4 213.5,272.9 213.7,272.9 213.9,274.4 214.1,274.4 214.2,274.9 214.4,274.8 214.6,274.8 214.8,274.8 215.0,274.4 215.1,274.8 215.3,274.8 215.5,274.3 215.7,274.3 215.9,274.3 216.0,274.3 216.2,274.8 216.4,274.8 216.6,274.8 216.8,274.8 217.0,274.8 217.1,274.8 217.3,272.9 217.5,272.9 217.7,272.9 217.9,273.4 218.0,273.4 218.2,273.4 218.4,273.8 218.6,273.9 218.8,273.9 219.0,273.0 219.1,273.0 219.3,273.7 219.5,270.0 219.7,270.0 219.9,273.8 220.0,273.8 220.2,273.4 220.4,273.4 220.6,273.4 220.8,273.4 220.9,272.9 221.1,273.3 221.3,273.4 221.5,273.4 221.7,273.4 221.9,272.8 222.0,272.8 222.2,272.8 222.4,272.8 222.6,272.8 222.8,273.2 222.9,273.2 223.1,273.2 223.3,273.2 223.5,273.2 223.7,273.2 223.8,273.2 224.0,270.4 224.2,272.8 224.4,272.8 224.6,272.8 224.8,272.8 224.9,272.2 225.1,272.2 225.3,273.3 225.5,273.3 225.7,272.8 225.8,272.8 226.0,272.7 226.2,270.4 226.4,270.4 226.6,271.3 226.8,271.3 226.9,271.3 227.1,271.3 227.3,272.8 227.5,273.4 227.7,272.8 227.8,272.8 228.0,274.2 228.2,274.2 228.4,273.8 228.6,274.3 228.7,273.8 228.9,274.2 229.1,274.2 229.3,272.8 229.5,273.3 229.7,271.8 229.8,272.9 230.0,273.3 230.2,266.7 230.4,270.4 230.6,270.4 230.7,266.7 230.9,269.0 231.1,268.5 231.3,268.5 231.5,268.5 231.6,268.5 231.8,268.5 232.0,268.5 232.2,267.9 232.4,268.0 232.6,268.0 232.7,267.9 232.9,267.4 233.1,267.0 233.3,267.5 233.5,267.0 233.6,267.0 233.8,267.0 234.0,267.0 234.2,267.5 234.4,267.3 234.6,266.9 234.7,266.9 234.9,266.9 235.1,266.9 235.3,265.6 235.5,265.2 235.6,265.2 235.8,265.2 236.0,265.0 236.2,265.2 236.4,265.2 236.5,265.2 236.7,263.7 236.9,263.7 237.1,263.7 237.3,263.6 237.5,263.9 237.6,263.9 237.8,263.9 238.0,263.9 238.2,263.9 238.4,263.9 238.5,263.9 238.7,263.9 238.9,263.9 239.1,263.9 239.3,263.9 239.5,263.9 239.6,263.9 239.8,263.9 240.0,263.9 240.2,262.6 240.4,262.6 240.5,263.0 240.7,263.0 240.9,263.0 241.1,263.0 241.3,263.0 241.4,263.9 241.6,263.9 241.8,262.1 242.0,257.9 242.2,257.9 242.4,257.9 242.5,255.1 242.7,255.1 242.9,257.9 243.1,254.0 243.3,257.9 243.4,251.6 243.6,251.6 243.8,250.9 244.0,250.5 244.2,250.5 244.3,250.5 244.5,250.5 244.7,250.1 244.9,250.1 245.1,250.1 245.3,250.1 245.4,250.1 245.6,250.1 245.8,250.1 246.0,250.1 246.2,247.9 246.3,248.7 246.5,245.1 246.7,243.4 246.9,243.7 247.1,243.4 247.3,241.7 247.4,244.6 247.6,244.6 247.8,244.6 248.0,243.1 248.2,233.9 248.3,235.7 248.5,233.9 248.7,235.4 248.9,233.9 249.1,233.9 249.2,233.9 249.4,238.5 249.6,238.5 249.8,238.5 250.0,237.7 250.2,237.7 250.3,238.5 250.5,237.5 250.7,238.5 250.9,238.5 251.1,237.2 251.2,237.2 251.4,237.2 251.6,237.2 251.8,236.9 252.0,237.2 252.1,236.9 252.3,236.9 252.5,237.8 252.7,237.5 252.9,237.5 253.1,238.8 253.2,236.9 253.4,236.9 253.6,236.9 253.8,236.9 254.0,236.9 254.1,235.4 254.3,235.2 254.5,233.6 254.7,234.5 254.9,233.6 255.1,233.6 255.2,233.6 255.4,233.6 255.6,234.5 255.8,234.8 256.0,233.2 256.1,233.2 256.3,233.2 256.5,233.8 256.7,233.8 256.9,232.4 257.0,232.4 257.2,232.4 257.4,232.4 257.6,232.7 257.8,232.4 258.0,232.4 258.1,232.4 258.3,232.4 258.5,232.4 258.7,232.4 258.9,231.8 259.0,231.7 259.2,231.7 259.4,231.5 259.6,229.5 259.8,228.1 259.9,228.1 260.1,226.7 260.3,224.0 260.5,226.1 260.7,224.8 260.9,231.8 261.0,225.5 261.2,224.8 261.4,225.0 261.6,224.5 261.8,224.8 261.9,224.5 262.1,224.5 262.3,224.5 262.5,224.3 262.7,223.4 262.9,223.4 263.0,223.4 263.2,223.4 263.4,223.4 263.6,222.9 263.8,224.0 263.9,224.0 264.1,223.9 264.3,222.4 264.5,225.9 264.7,225.7 264.8,225.9 265.0,224.2 265.2,221.6 265.4,221.6 265.6,221.4 265.8,221.4 265.9,221.4 266.1,220.8 266.3,220.8 266.5,220.8 266.7,220.8 266.8,220.8 267.0,220.3 267.2,220.3 267.4,220.8 267.6,220.8 267.7,220.8 267.9,220.8 268.1,220.8 268.3,220.8 268.5,220.3 268.7,218.3 268.8,218.8 269.0,218.8 269.2,218.3 269.4,218.3 269.6,218.3 269.7,218.3 269.9,220.8 270.1,221.1 270.3,221.1 270.5,221.6 270.7,224.4 270.8,224.1 271.0,223.0 271.2,222.7 271.4,224.1 271.6,224.1 271.7,223.0 271.9,224.1 272.1,224.1 272.3,224.6 272.5,224.6 272.6,224.1 272.8,224.0 273.0,222.4 273.2,222.4 273.4,222.4 273.6,223.0 273.7,221.4 273.9,223.0 274.1,221.4 274.3,223.0 274.5,220.8 274.6,223.0 274.8,216.0 275.0,220.1 275.2,219.0 275.4,218.8 275.5,216.0 275.7,217.7 275.9,217.7 276.1,217.7 276.3,216.2 276.5,216.0 276.6,216.0 276.8,216.0 277.0,215.4 277.2,216.2 277.4,215.2 277.5,215.7 277.7,216.5 277.9,215.5 278.1,215.3 278.3,214.7 278.5,214.7 278.6,212.6 278.8,212.6 279.0,212.1 279.2,209.3 279.4,209.3 279.5,209.3 279.7,209.3 279.9,209.3 280.1,210.0 280.3,210.0 280.4,210.0 280.6,210.0 280.8,210.0 281.0,210.5 281.2,210.2 281.4,211.9 281.5,210.9 281.7,210.9 281.9,210.9 282.1,212.3 282.3,213.7 282.4,213.5 282.6,213.3 282.8,213.8 283.0,213.8 283.2,213.8 283.4,214.8 283.5,214.3 283.7,214.7 283.9,213.8 284.1,212.3 284.3,212.3 284.4,212.3 284.6,212.3 284.8,213.3 285.0,212.3 285.2,211.9 285.3,211.9 285.5,212.3 285.7,212.3 285.9,213.5 286.1,213.5 286.3,213.5 286.4,214.8 286.6,215.0 286.8,215.0 287.0,212.6 287.2,214.8 287.3,213.5 287.5,213.5 287.7,210.0 287.9,210.0 288.1,210.0 288.2,210.0 288.4,210.0 288.6,211.2 288.8,211.6 289.0,211.4 289.2,211.4 289.3,211.4 289.5,210.9 289.7,210.9 289.9,210.9 290.1,210.7 290.2,210.7 290.4,210.7 290.6,210.7 290.8,211.9 291.0,211.9 291.2,211.9 291.3,211.9 291.5,211.9 291.7,211.9 291.9,210.7 292.1,213.1 292.2,214.7 292.4,216.8 292.6,217.3 292.8,217.3 293.0,217.3 293.1,213.1 293.3,212.6 293.5,218.1 293.7,218.6 293.9,218.8 294.1,221.0 294.2,220.0 294.4,219.9 294.6,219.9 294.8,219.9 295.0,217.8 295.1,219.9 295.3,219.4 295.5,219.4 295.7,219.1 295.9,221.0 296.0,219.1 296.2,219.4 296.4,219.9 296.6,220.7 296.8,220.4 297.0,221.0 297.1,220.7 297.3,221.1 297.5,219.4 297.7,218.1 297.9,218.1 298.0,218.1 298.2,218.7 298.4,218.3 298.6,218.3 298.8,219.3 299.0,219.4 299.1,219.6 299.3,219.9 299.5,222.6 299.7,221.2 299.9,221.2 300.0,220.4 300.2,220.9 300.4,220.9 300.6,220.9 300.8,222.0 300.9,221.0 301.1,221.0 301.3,220.7 301.5,221.3 301.7,221.3 301.9,221.3 302.0,221.1 302.2,221.3 302.4,221.0 302.6,221.3 302.8,221.3 302.9,221.0 303.1,221.0 303.3,221.0 303.5,221.3 303.7,221.3 303.8,221.3 304.0,221.1 304.2,220.7 304.4,221.2 304.6,221.3 304.8,220.7 304.9,221.3 305.1,220.5 305.3,221.1 305.5,221.3 305.7,220.7 305.8,221.0 306.0,221.0 306.2,221.0 306.4,220.7 306.6,221.0 306.8,220.7 306.9,220.7 307.1,220.6 307.3,220.7 307.5,221.0 307.7,221.0 307.8,221.9 308.0,222.5 308.2,222.4 308.4,222.7 308.6,222.5 308.7,223.1 308.9,223.8 309.1,223.8 309.3,224.1 309.5,225.8 309.7,224.9 309.8,218.6 310.0,221.3 310.2,217.3 310.4,216.3 310.6,215.8 310.7,212.6 310.9,212.3 311.1,211.8 311.3,208.4 311.5,207.4 311.6,207.4 311.8,207.2 312.0,206.0 312.2,206.3 312.4,206.5 312.6,206.1 312.7,205.8 312.9,207.5 313.1,207.5 313.3,205.8 313.5,207.5 313.6,207.5 313.8,207.5 314.0,206.3 314.2,206.3 314.4,207.5 314.6,208.2 314.7,208.9 314.9,210.4 315.1,210.4 315.3,207.5 315.5,207.8 315.6,207.5 315.8,206.1 316.0,206.3 316.2,206.4 316.4,206.4 316.5,207.0 316.7,206.8 316.9,206.8 317.1,207.5 317.3,207.5 317.5,207.5 317.6,210.4 317.8,210.2 318.0,211.7 318.2,211.7 318.4,211.2 318.5,208.1 318.7,208.1 318.9,209.7 319.1,207.0 319.3,207.5 319.4,207.5 319.6,207.5 319.8,207.5 320.0,209.7 320.2,210.4 320.4,211.2 320.5,212.4 320.7,212.4 320.9,212.4 321.1,212.4 321.3,212.7 321.4,215.0 321.6,214.8 321.8,214.1 322.0,214.5 322.2,209.4 322.4,209.4 322.5,209.5 322.7,209.4 322.9,209.4 323.1,209.4 323.3,208.7 323.4,207.0 323.6,206.8 323.8,206.8 324.0,207.5 324.2,208.5 324.3,208.5 324.5,204.6 324.7,205.1 324.9,205.1 325.1,205.7 325.3,205.7 325.4,203.6 325.6,204.5 325.8,204.5 326.0,205.0 326.2,205.4 326.3,203.4 326.5,203.4 326.7,203.4 326.9,202.9 327.1,202.2 327.3,201.2 327.4,202.2 327.6,201.8 327.8,201.3 328.0,201.3 328.2,201.7 328.3,201.2 328.5,201.1 328.7,201.3 328.9,201.8 329.1,201.8 329.2,201.9 329.4,202.0 329.6,203.1 329.8,203.9 330.0,202.2 330.2,202.4 330.3,202.5 330.5,202.5 330.7,202.8 330.9,202.8 331.1,203.6 331.2,203.1 331.4,202.9 331.6,202.2 331.8,202.7 332.0,203.1 332.1,203.0 332.3,203.1 332.5,202.2 332.7,203.4 332.9,204.0 333.1,204.0 333.2,204.6 333.4,203.6 333.6,203.6 333.8,203.4 334.0,203.4 334.1,203.4 334.3,203.5 334.5,203.5 334.7,203.4 334.9,203.4 335.1,203.4 335.2,203.4 335.4,203.4 335.6,202.7 335.8,202.9 336.0,202.9 336.1,203.1 336.3,202.9 336.5,202.9 336.7,203.1 336.9,202.9 337.0,202.9 337.2,200.7 337.4,200.7 337.6,201.6 337.8,202.9 338.0,205.0 338.1,205.0 338.3,204.1 338.5,203.9 338.7,201.8 338.9,201.8 339.0,202.3 339.2,202.9 339.4,202.9 339.6,202.7 339.8,202.3 339.9,202.7 340.1,202.7 340.3,202.7 340.5,201.9 340.7,201.9 340.9,202.7 341.0,202.0 341.2,202.0 341.4,202.0 341.6,203.0 341.8,203.9 341.9,202.7 342.1,203.2 342.3,202.1 342.5,203.2 342.7,202.3 342.9,202.3 343.0,202.0 343.2,202.0 343.4,202.0 343.6,202.0 343.8,202.3 343.9,202.0 344.1,202.7 344.3,202.7 344.5,202.9 344.7,203.1 344.8,203.1 345.0,202.0 345.2,202.0 345.4,202.7 345.6,202.7 345.8,202.5 345.9,202.5 346.1,202.0 346.3,201.4 346.5,200.5 346.7,200.5 346.8,198.8 347.0,198.8 347.2,198.8 347.4,197.7 347.6,196.6 347.7,197.3 347.9,197.3 348.1,196.2 348.3,196.2 348.5,196.1 348.7,196.1 348.8,196.4 349.0,196.4 349.2,196.2 349.4,196.6 349.6,195.8 349.7,195.8 349.9,195.8 350.1,195.4 350.3,195.7 350.5,195.7 350.7,195.7 350.8,195.7 351.0,195.7 351.2,194.3 351.4,194.3 351.6,193.5 351.7,193.5 351.9,193.3 352.1,193.3 352.3,193.3 352.5,193.3 352.6,192.5 352.8,192.5 353.0,192.5 353.2,192.5 353.4,191.5 353.6,192.5 353.7,192.4 353.9,192.5 354.1,192.5 354.3,192.5 354.5,194.5 354.6,194.5 354.8,197.7 355.0,192.5 355.2,192.5 355.4,192.5 355.5,192.9 355.7,192.5 355.9,192.5 356.1,192.5 356.3,192.5 356.5,190.1 356.6,189.1 356.8,189.1 357.0,189.1 357.2,186.2 357.4,186.2 357.5,186.2 357.7,186.2 357.9,186.2 358.1,182.5 358.3,181.1 358.5,181.1 358.6,181.8 358.8,181.1 359.0,181.1 359.2,180.7 359.4,180.6 359.5,179.9 359.7,179.9 359.9,180.5 360.1,178.5 360.3,178.5 360.4,178.5 360.6,180.0 360.8,180.2 361.0,180.2 361.2,177.5 361.4,177.6 361.5,175.1 361.7,178.5 361.9,178.8 362.1,179.2 362.3,179.2 362.4,179.2 362.6,179.1 362.8,179.1 363.0,179.7 363.2,179.3 363.3,179.3 363.5,179.3 363.7,179.3 363.9,179.3 364.1,180.0 364.3,180.1 364.4,182.0 364.6,180.2 364.8,181.5 365.0,181.7 365.2,181.5 365.3,180.9 365.5,180.9 365.7,183.7 365.9,185.7 366.1,186.9 366.3,185.4 366.4,187.3 366.6,185.7 366.8,189.2 367.0,189.4 367.2,189.2 367.3,188.8 367.5,185.2 367.7,187.7 367.9,186.7 368.1,186.7 368.2,185.7 368.4,183.8 368.6,183.8 368.8,182.9 369.0,186.5 369.2,185.4 369.3,185.7 369.5,185.4 369.7,183.8 369.9,182.6 370.1,182.6 370.2,180.2 370.4,178.9 370.6,178.9 370.8,179.7 371.0,181.5 371.2,181.5 371.3,181.5 371.5,179.7 371.7,181.5 371.9,181.5 372.1,181.5 372.2,181.5 372.4,179.7 372.6,179.7 372.8,179.7 373.0,179.7 373.1,178.0 373.3,178.0 373.5,181.5 373.7,180.6 373.9,179.7 374.1,181.5 374.2,180.6 374.4,181.3 374.6,179.7 374.8,179.7 375.0,179.7 375.1,179.3 375.3,179.7 375.5,178.2 375.7,180.6 375.9,179.7 376.0,179.7 376.2,179.7 376.4,179.7 376.6,179.7 376.8,179.7 377.0,178.0 377.1,179.7 377.3,179.7 377.5,179.7 377.7,179.7 377.9,179.7 378.0,178.0 378.2,178.0 378.4,178.0 378.6,178.0 378.8,178.0 379.0,178.0 379.1,178.0 379.3,178.0 379.5,176.3 379.7,176.3 379.9,174.6 380.0,176.3 380.2,176.3 380.4,176.3 380.6,175.4 380.8,176.3 380.9,174.6 381.1,173.8 381.3,173.8 381.5,174.6 381.7,176.3 381.9,175.8 382.0,172.8 382.2,172.5 382.4,169.3 382.6,169.0 382.8,169.0 382.9,172.5 383.1,172.5 383.3,172.5 383.5,164.8 383.7,167.8 383.8,167.8 384.0,171.7 384.2,167.8 384.4,164.9 384.6,167.8 384.8,167.8 384.9,167.8 385.1,169.4 385.3,169.4 385.5,170.1 385.7,169.1 385.8,169.1 386.0,167.8 386.2,167.8 386.4,164.8 386.6,169.3 386.8,169.3 386.9,168.4 387.1,166.3 387.3,165.5 387.5,170.8 387.7,170.8 387.8,169.1 388.0,168.8 388.2,167.8 388.4,169.3 388.6,167.8 388.7,164.8 388.9,166.3 389.1,164.8 389.3,169.3 389.5,167.8 389.7,168.5 389.8,167.8 390.0,167.8 390.2,167.8 390.4,168.5 390.6,168.5 390.7,169.3 390.9,168.9 391.1,170.9 391.3,174.1 391.5,161.1 391.6,159.1 391.8,155.7 392.0,156.1 392.2,157.1 392.4,156.7 392.6,157.4 392.7,154.8 392.9,154.5 393.1,151.0 393.3,149.9 393.5,148.6 393.6,153.2 393.8,156.6 394.0,152.2 394.2,151.7 394.4,153.4 394.6,151.7 394.7,151.7 394.9,154.8 395.1,151.5 395.3,153.8 395.5,154.0 395.6,154.8 395.8,153.2 396.0,153.0 396.2,153.1 396.4,153.4 396.5,153.4 396.7,152.7 396.9,153.0 397.1,153.5 397.3,152.9 397.5,153.5 397.6,154.8 397.8,154.8 398.0,154.5 398.2,154.5 398.4,160.7 398.5,164.1 398.7,166.2 398.9,168.0 399.1,170.0 399.3,167.4 399.4,168.9 399.6,168.6 399.8,168.3 400.0,168.3 400.2,165.1 400.4,165.1 400.5,165.1 400.7,162.1 400.9,164.4 401.1,164.4 401.3,167.4 401.4,168.9 401.6,167.9 401.8,167.4 402.0,168.2 402.2,166.0 402.4,165.9 402.5,164.1 402.7,164.1 402.9,164.4 403.1,165.4 403.3,165.6 403.4,162.0 403.6,158.5 403.8,157.6 404.0,157.6 404.2,157.4 404.3,156.6 404.5,156.4 404.7,155.2 404.9,153.9 405.1,152.6 405.3,153.4 405.4,152.8 405.6,151.6 405.8,151.7 406.0,151.6 406.2,153.9 406.3,152.6 406.5,151.9 406.7,151.9 406.9,151.6 407.1,153.8 407.2,152.1 407.4,152.1 407.6,151.7 407.8,152.6 408.0,153.4 408.2,152.1 408.3,155.1 408.5,153.9 408.7,155.9 408.9,156.7 409.1,159.0 409.2,157.9 409.4,160.8 409.6,160.8 409.8,162.6 410.0,162.8 410.2,163.2 410.3,162.3 410.5,161.3 410.7,161.8 410.9,161.6 411.1,162.7 411.2,163.4 411.4,164.0 411.6,162.9 411.8,162.2 412.0,164.3 412.1,162.2 412.3,164.6 412.5,162.9 412.7,162.3 412.9,164.3 413.1,164.4 413.2,164.8 413.4,165.0 413.6,165.7 413.8,166.6 414.0,166.6 414.1,167.8 414.3,168.9 414.5,161.0 414.7,160.2 414.9,158.6 415.1,159.3 415.2,159.3 415.4,157.9 415.6,155.9 415.8,155.8 416.0,155.2 416.1,156.2 416.3,156.8 416.5,157.7 416.7,158.1 416.9,157.8 417.0,156.9 417.2,157.5 417.4,161.5 417.6,161.8 417.8,161.8 418.0,161.5 418.1,159.5 418.3,161.4 418.5,161.5 418.7,160.4 418.9,156.2 419.0,156.4 419.2,159.5 419.4,159.4 419.6,159.2 419.8,158.7 419.9,158.8 420.1,158.2 420.3,158.2 420.5,160.4 420.7,158.2 420.9,160.0 421.0,161.5 421.2,157.5 421.4,157.4 421.6,157.4 421.8,157.4 421.9,154.0 422.1,154.0 422.3,154.0 422.5,159.0 422.7,158.4 422.9,158.4 423.0,156.7 423.2,158.1 423.4,158.9 423.6,158.9 423.8,158.9 423.9,159.8 424.1,157.6 424.3,156.2 424.5,156.7 424.7,156.2 424.8,156.9 425.0,158.9 425.2,160.4 425.4,161.0 425.6,156.2 425.8,158.9 425.9,158.2 426.1,158.0 426.3,159.6 426.5,159.1 426.7,159.1 426.8,159.0 427.0,153.8 427.2,156.9 427.4,156.3 427.6,156.5 427.7,158.7 427.9,156.0 428.1,157.2 428.3,154.4 428.5,152.6 428.7,153.7 428.8,156.3 429.0,156.3 429.2,154.3 429.4,154.4 429.6,154.4 429.7,153.4 429.9,154.4 430.1,154.4 430.3,152.5 430.5,152.5 430.7,153.0 430.8,151.8 431.0,152.3 431.2,152.5 431.4,151.8 431.6,152.1 431.7,152.1 431.9,152.1 432.1,152.1 432.3,152.6 432.5,152.6 432.6,152.6 432.8,149.3 433.0,149.8 433.2,149.9 433.4,150.6 433.6,150.9 433.7,150.5 433.9,150.5 434.1,151.0 434.3,149.9 434.5,150.5 434.6,149.8 434.8,151.8 435.0,151.8 435.2,153.1 435.4,152.6 435.5,152.3 435.7,152.3 435.9,153.1 436.1,155.4 436.3,153.2 436.5,153.2 436.6,153.1 436.8,153.1 437.0,153.1 437.2,153.1 437.4,153.1 437.5,153.4 437.7,153.4 437.9,153.8 438.1,153.8 438.3,154.8 438.5,154.8 438.6,153.3 438.8,153.4 439.0,153.4 439.2,153.5 439.4,153.4 439.5,156.1 439.7,153.5 439.9,153.5 440.1,153.4 440.3,154.8 440.4,155.4 440.6,155.4 440.8,155.4 441.0,154.0 441.2,153.4 441.4,150.5 441.5,153.2 441.7,153.8 441.9,153.5 442.1,153.5 442.3,153.1 442.4,156.8 442.6,158.1 442.8,156.8 443.0,149.5 443.2,144.7 443.3,144.2 443.5,142.9 443.7,144.0 443.9,145.7 444.1,146.4 444.3,147.3 444.4,150.0 444.6,149.9 444.8,150.1 445.0,149.5 445.2,150.1 445.3,150.0 445.5,149.6 445.7,148.2 445.9,145.2 446.1,144.6 446.3,145.2 446.4,145.0 446.6,143.6 446.8,145.5 447.0,145.2 447.2,145.3 447.3,145.8 447.5,146.1 447.7,146.4 447.9,148.7 448.1,145.4 448.2,148.8 448.4,148.9 448.6,148.9 448.8,148.5 449.0,147.3 449.2,147.6 449.3,148.0 449.5,148.4 449.7,148.1 449.9,150.2 450.1,148.7 450.2,149.0 450.4,150.0 450.6,150.0 450.8,150.3 451.0,151.9 451.1,152.2 451.3,153.4 451.5,154.7 451.7,154.5 451.9,153.9 452.1,153.4 452.2,153.4 452.4,150.7 452.6,150.6 452.8,150.4 453.0,150.7 453.1,150.0 453.3,148.5 453.5,148.1 453.7,147.9 453.9,146.9 454.1,145.6 454.2,145.1 454.4,144.8 454.6,144.8 454.8,145.6 455.0,149.2 455.1,148.2 455.3,148.3 455.5,147.5 455.7,147.5 455.9,148.7 456.0,148.6 456.2,148.2 456.4,145.3 456.6,143.3 456.8,140.7 457.0,134.5 457.1,134.2 457.3,131.6 457.5,132.1 457.7,131.3 457.9,132.1 458.0,133.7 458.2,132.1 458.4,133.1 458.6,131.1 458.8,130.9 458.9,132.2 459.1,132.3 459.3,132.1 459.5,131.5 459.7,131.5 459.9,132.1 460.0,131.4 460.2,126.3 460.4,132.1 460.6,130.1 460.8,130.1 460.9,130.6 461.1,133.2 461.3,135.3 461.5,136.9 461.7,141.5 461.9,138.9 462.0,138.5 462.2,136.0 462.4,136.0 462.6,137.0 462.8,139.1 462.9,139.2 463.1,139.4 463.3,141.4 463.5,142.4 463.7,138.9 463.8,142.3 464.0,140.5 464.2,141.7 464.4,141.1 464.6,141.7 464.8,143.9 464.9,144.3 465.1,144.0 465.3,144.3 465.5,142.9 465.7,145.3 465.8,144.1 466.0,141.1 466.2,139.4 466.4,136.0 466.6,137.7 466.8,137.1 466.9,138.2 467.1,133.9 467.3,136.0 467.5,134.9 467.7,134.0 467.8,135.0 468.0,131.8 468.2,132.8 468.4,136.2 468.6,137.1 468.7,138.6 468.9,139.4 469.1,145.3 469.3,144.9 469.5,146.5 469.7,146.3 469.8,146.5 470.0,145.9 470.2,146.5 470.4,147.4 470.6,148.3 470.7,148.2 470.9,148.1 471.1,145.0 471.3,146.5 471.5,148.9 471.6,147.8 471.8,147.5 472.0,147.8 472.2,147.8 472.4,147.8 472.6,148.3 472.7,148.3 472.9,147.9 473.1,144.9 473.3,144.5 473.5,143.7 473.6,141.8 473.8,137.3 474.0,143.2 474.2,141.3 474.4,139.0 474.6,136.0 474.7,142.8 474.9,142.2 475.1,142.7 475.3,142.7 475.5,142.5 475.6,142.5 475.8,141.2 476.0,142.0 476.2,142.1 476.4,142.0 476.5,141.5 476.7,142.5 476.9,142.5 477.1,142.2 477.3,140.1 477.5,139.7 477.6,139.7 477.8,139.3 478.0,137.2 478.2,144.6 478.4,138.4 478.5,140.1 478.7,140.1 478.9,137.9 479.1,136.1 479.3,133.5 479.4,131.4 479.6,130.9 479.8,129.5 480.0,131.7 480.2,132.3 480.4,134.0 480.5,137.9 480.7,142.2 480.9,142.3 481.1,142.2 481.3,142.2 481.4,143.7 481.6,140.2 481.8,140.2 482.0,141.8 482.2,141.3 482.4,139.0 482.5,139.0 482.7,139.0 482.9,138.4 483.1,137.3 483.3,137.8 483.4,137.9 483.6,135.6 483.8,135.7 484.0,134.6 484.2,135.6 484.3,136.1 484.5,135.8 484.7,134.8 484.9,138.3 485.1,134.2 485.3,133.2 485.4,134.2 485.6,133.2 485.8,132.1 486.0,133.1 486.2,133.4 486.3,131.1 486.5,134.1 486.7,132.6 486.9,131.1 487.1,133.3 487.2,137.2 487.4,137.1 487.6,134.2 487.8,131.3 488.0,133.1 488.2,134.2 488.3,134.1 488.5,133.8 488.7,136.4 488.9,134.7 489.1,136.7 489.2,136.9 489.4,137.3 489.6,136.0 489.8,138.3 490.0,138.0 490.2,137.6 490.3,137.5 490.5,136.5 490.7,136.4 490.9,136.6 491.1,138.4 491.2,138.2 491.4,139.8 491.6,140.5 491.8,142.0 492.0,137.5 492.1,137.3 492.3,136.6 492.5,136.9 492.7,136.7 492.9,137.0 493.1,137.5 493.2,136.5 493.4,136.3 493.6,136.3 493.8,136.1 494.0,136.1 494.1,136.1 494.3,135.8 494.5,135.8 494.7,136.1 494.9,138.3 495.0,136.3 495.2,134.6 495.4,134.6 495.6,133.7 495.8,134.8 496.0,134.6 496.1,134.6 496.3,134.2 496.5,134.2 496.7,133.5 496.9,134.7 497.0,134.6 497.2,134.8 497.4,134.5 497.6,134.5 497.8,134.8 498.0,134.8 498.1,134.7 498.3,133.5 498.5,134.1 498.7,134.8 498.9,135.7 499.0,135.8 499.2,136.0 499.4,135.8 499.6,136.2 499.8,135.6 499.9,136.2 500.1,135.7 500.3,135.2 500.5,134.6 500.7,135.7 500.9,134.6 501.0,134.7 501.2,135.1 501.4,134.6 501.6,135.3 501.8,134.7 501.9,134.6 502.1,134.6 502.3,134.6 502.5,134.6 502.7,134.6 502.8,134.6 503.0,134.5 503.2,135.5 503.4,134.6 503.6,134.6 503.8,135.3 503.9,134.6 504.1,135.0 504.3,135.2 504.5,134.7 504.7,134.6 504.8,136.9 505.0,136.3 505.2,136.3 505.4,138.0 505.6,138.1 505.8,140.4 505.9,139.4 506.1,138.5 506.3,142.6 506.5,141.6 506.7,147.3 506.8,146.6 507.0,147.6 507.2,154.2 507.4,154.2 507.6,157.1 507.7,157.2 507.9,158.7 508.1,160.3 508.3,160.2 508.5,165.1 508.7,160.3 508.8,156.6 509.0,153.9 509.2,157.8 509.4,155.7 509.6,151.2 509.7,152.9 509.9,152.8 510.1,151.9 510.3,153.9 510.5,154.3 510.7,150.4 510.8,152.2 511.0,152.0 511.2,153.9 511.4,151.5 511.6,152.8 511.7,150.1 511.9,153.4 512.1,153.7 512.3,154.3 512.5,154.2 512.6,154.3 512.8,154.2 513.0,152.9 513.2,151.5 513.4,145.3 513.6,144.2 513.7,148.8 513.9,149.4 514.1,150.1 514.3,151.2 514.5,150.0 514.6,151.5 514.8,151.2 515.0,152.2 515.2,151.5 515.4,151.5 515.5,150.1 515.7,148.7 515.9,146.6 516.1,146.5 516.3,147.3 516.5,146.4 516.6,146.1 516.8,146.8 517.0,145.6 517.2,146.3 517.4,147.0 517.5,145.6 517.7,146.0 517.9,144.8 518.1,145.8 518.3,145.1 518.5,144.4 518.6,141.7 518.8,140.2 519.0,140.2 519.2,137.6 519.4,142.2 519.5,142.7 519.7,141.9 519.9,143.4 520.1,143.3 520.3,142.5 520.4,144.4 520.6,143.2 520.8,141.9 521.0,144.4 521.2,143.3 521.4,143.8 521.5,143.9 521.7,144.2 521.9,143.3 522.1,145.4 522.3,145.3 522.4,145.7 522.6,145.8 522.8,146.1 523.0,146.2 523.2,145.2 523.3,145.9 523.5,146.4 523.7,145.6 523.9,145.6 524.1,145.3 524.3,145.5 524.4,145.0 524.6,146.7 524.8,144.4 525.0,144.4 525.2,147.0 525.3,146.0 525.5,146.5 525.7,146.2 525.9,144.4 526.1,144.9 526.3,144.4 526.4,144.4 526.6,140.7 526.8,139.5 527.0,141.5 527.2,141.7 527.3,143.2 527.5,145.1 527.7,142.4 527.9,140.7 528.1,140.7 528.2,140.7 528.4,140.5 528.6,140.7 528.8,139.5 529.0,140.7 529.2,140.7 529.3,141.9 529.5,142.0 529.7,143.7 529.9,142.9 530.1,142.8 530.2,144.0 530.4,143.9 530.6,143.9 530.8,144.0 531.0,144.0 531.1,142.7 531.3,144.1 531.5,144.1 531.7,144.8 531.9,143.5 532.1,144.5 532.2,143.8 532.4,144.7 532.6,144.7 532.8,144.8 533.0,145.4 533.1,145.3 533.3,145.3 533.5,145.4 533.7,144.6 533.9,143.4 534.1,143.8 534.2,142.7 534.4,145.1 534.6,144.6 534.8,145.4 535.0,144.0 535.1,143.7 535.3,141.6 535.5,141.5 535.7,141.5 535.9,141.5 536.0,142.8 536.2,143.6 536.4,144.1 536.6,145.0 536.8,144.6 537.0,144.5 537.1,142.8 537.3,139.2 537.5,137.6 537.7,137.6 537.9,136.2 538.0,136.2 538.2,134.5 538.4,135.6 538.6,133.4 538.8,135.4 538.9,135.4 539.1,135.1 539.3,135.4 539.5,133.0 539.7,131.0 539.9,131.5 540.0,131.5 540.2,130.9 540.4,132.1 540.6,130.9 540.8,131.3 540.9,131.3 541.1,130.9 541.3,131.7 541.5,130.6 541.7,130.6 541.9,130.6 542.0,132.0 542.2,130.8 542.4,130.6 542.6,130.6 542.8,128.4 542.9,129.5 543.1,130.6 543.3,130.6 543.5,131.1 543.7,133.9 543.8,132.5 544.0,132.2 544.2,132.8 544.4,130.6 544.6,129.1 544.8,128.4 544.9,129.5 545.1,130.6 545.3,130.3 545.5,131.8 545.7,130.6 545.8,128.9 546.0,130.6 546.2,130.6 546.4,131.2 546.6,131.1 546.7,132.1 546.9,132.8 547.1,131.1 547.3,130.6 547.5,132.8 547.7,132.8 547.8,128.4 548.0,129.0 548.2,129.0 548.4,129.5 548.6,131.2 548.7,130.4 548.9,130.8 549.1,124.3 549.3,124.3 549.5,124.3 549.7,124.7 549.8,123.3 550.0,124.3 550.2,124.3 550.4,122.1 550.6,123.8 550.7,123.9 550.9,124.3 551.1,124.3 551.3,120.9 551.5,120.4 551.6,118.5 551.8,121.8 552.0,123.3 552.2,118.5 552.4,119.5 552.6,122.3 552.7,117.6 552.9,121.1 553.1,120.4 553.3,117.2 553.5,117.2 553.6,120.5 553.8,120.4 554.0,120.1 554.2,120.6 554.4,119.9 554.6,123.0 554.7,120.0 554.9,120.1 555.1,122.1 555.3,120.6 555.5,119.4 555.6,120.1 555.8,120.1 556.0,120.1 556.2,120.0 556.4,120.1 556.5,118.7 556.7,118.3 556.9,120.1 557.1,119.7 557.3,120.1 557.5,121.1 557.6,121.1 557.8,120.1 558.0,119.5 558.2,119.7 558.4,117.0 558.5,118.8 558.7,119.7 558.9,119.7 559.1,118.3 559.3,119.7 559.4,118.3 559.6,116.4 559.8,116.4 560.0,116.4 560.2,117.8 560.4,117.8 560.5,116.4 560.7,117.3 560.9,116.1 561.1,115.2 561.3,112.9 561.4,114.6 561.6,114.6 561.8,107.0 562.0,113.9 562.2,107.7 562.4,107.0 562.5,110.3 562.7,111.0 562.9,109.2 563.1,107.1 563.3,107.4 563.4,107.4 563.6,109.5 563.8,107.8 564.0,106.6 564.2,104.4 564.3,99.9 564.5,103.3 564.7,103.3 564.9,103.3 565.1,104.4 565.3,105.2 565.4,104.4 565.6,106.7 565.8,104.1 566.0,109.0 566.2,104.9 566.3,104.4 566.5,104.6 566.7,98.9 566.9,104.5 567.1,106.8 567.2,103.7 567.4,107.6 567.6,109.2 567.8,110.5 568.0,109.2 568.2,105.2 568.3,108.0 568.5,106.0 568.7,104.5 568.9,104.5 569.1,108.1 569.2,108.4 569.4,108.4 569.6,109.2 569.8,110.9 570.0,112.6 570.2,115.5 570.3,113.1 570.5,115.3 570.7,113.5 570.9,113.7 571.1,113.4 571.2,110.9 571.4,110.1 571.6,110.1 571.8,110.5 572.0,111.3 572.1,111.3 572.3,110.2 572.5,111.3 572.7,110.9 572.9,110.1 573.1,111.3 573.2,111.0 573.4,110.9 573.6,110.9 573.8,111.0 574.0,111.0 574.1,111.0 574.3,110.9 574.5,110.9 574.7,109.7 574.9,110.1 575.0,110.1 575.2,99.7 575.4,102.6 575.6,107.3 575.8,108.6 576.0,108.4 576.1,107.3 576.3,108.4 576.5,108.3 576.7,108.6 576.9,109.8 577.0,109.8 577.2,109.4 577.4,107.7 577.6,107.3 577.8,106.5 578.0,99.8 578.1,103.4 578.3,104.2 578.5,103.5 578.7,107.6 578.9,105.7 579.0,105.7 579.2,104.2 579.4,105.0 579.6,105.3 579.8,105.5 579.9,104.2 580.1,101.9 580.3,104.5 580.5,104.9 580.7,102.6 580.9,102.6 581.0,102.6 581.2,102.3 581.4,105.4 581.6,101.0 581.8,101.9 581.9,101.9 582.1,101.9 582.3,102.6 582.5,100.8 582.7,101.9 582.8,102.6 583.0,99.4 583.2,98.8 583.4,96.8 583.6,94.0 583.8,90.0 583.9,88.7 584.1,91.0 584.3,92.0 584.5,91.9 584.7,91.9 584.8,90.3 585.0,90.3 585.2,88.4 585.4,88.7 585.6,89.4 585.8,88.1 585.9,88.1 586.1,88.5 586.3,88.5 586.5,88.5 586.7,88.5 586.8,90.1 587.0,90.6 587.2,89.8 587.4,88.5 587.6,87.9 587.7,88.5 587.9,88.2 588.1,88.5 588.3,87.5 588.5,87.5 588.7,89.8 588.8,89.2 589.0,89.2 589.2,89.0 589.4,89.0 589.6,89.0 589.7,89.0 589.9,87.7 590.1,86.6 590.3,86.6 590.5,86.6 590.6,88.9 590.8,86.6 591.0,85.6 591.2,86.6 591.4,87.0 591.6,86.6 591.7,85.5 591.9,86.5 592.1,86.5 592.3,84.6 592.5,84.1 592.6,86.2 592.8,85.0 593.0,84.7 593.2,84.7 593.4,84.7 593.6,84.7 593.7,84.1 593.9,83.4 594.1,82.3 594.3,82.9 594.5,82.9 594.6,84.0 594.8,84.0 595.0,84.3 595.2,84.7 595.4,86.1 595.5,85.9 595.7,85.9 595.9,86.6 596.1,86.6 596.3,86.9 596.5,88.2 596.6,89.5 596.8,89.2 597.0,90.5 597.2,97.0 597.4,91.8 597.5,95.3 597.7,94.6 597.9,96.0 598.1,96.7 598.3,95.3 598.5,92.5 598.6,89.2 598.8,89.2 599.0,86.6 599.2,88.5 599.4,79.4 599.5,85.3 599.7,82.9 599.9,82.6 600.1,81.4 600.3,81.4 600.4,81.5 600.6,80.2 600.8,80.8 601.0,83.2 601.2,83.9 601.4,86.1 601.5,87.6 601.7,87.7 601.9,87.0 602.1,86.0 602.3,85.4 602.4,83.9 602.6,85.1 602.8,88.0 603.0,87.6 603.2,86.5 603.3,87.6 603.5,86.4 603.7,87.6 603.9,89.6 604.1,89.1 604.3,90.2 604.4,91.3 604.6,90.2 604.8,92.6 605.0,92.6 605.2,92.9 605.3,89.0 605.5,91.3 605.7,91.6 605.9,92.9 606.1,93.3 606.3,93.4 606.4,93.3 606.6,93.3 606.8,92.8 607.0,92.2 607.2,92.3 607.3,92.9 607.5,92.9 607.7,92.7 607.9,92.9 608.1,92.9 608.2,91.9 608.4,90.5 608.6,89.6 608.8,81.4 609.0,85.1 609.2,87.6 609.3,88.3 609.5,87.3 609.7,90.0 609.9,88.2 610.1,88.4 610.2,88.4 610.4,88.7 610.6,89.4 610.8,92.2 611.0,92.1 611.1,91.9 611.3,91.9 611.5,92.7 611.7,93.1 611.9,92.7 612.1,91.7 612.2,90.3 612.4,90.0 612.6,89.7 612.8,89.7 613.0,90.0 613.1,91.3 613.3,90.7 613.5,91.4 613.7,91.4 613.9,91.4 614.1,91.4 614.2,91.4 614.4,94.0 614.6,93.8 614.8,92.1 615.0,92.1 615.1,92.1 615.3,93.9 615.5,93.9 615.7,92.4 615.9,93.1 616.0,92.7 616.2,93.1 616.4,92.7 616.6,92.7 616.8,92.7 617.0,92.7 617.1,92.2 617.3,92.7 617.5,92.7 617.7,91.4 617.9,92.1 618.0,91.6 618.2,92.4 618.4,92.2 618.6,92.7 618.8,92.5 618.9,92.7 619.1,91.4 619.3,91.4 619.5,92.4 619.7,92.7 619.9,93.8 620.0,96.6 620.2,95.6 620.4,95.6 620.6,95.4 620.8,94.0 620.9,93.0 621.1,94.4 621.3,93.2 621.5,93.2 621.7,92.8 621.9,92.5 622.0,91.4 622.2,91.1 622.4,91.1 622.6,92.4 622.8,91.2 622.9,91.1 623.1,90.9 623.3,92.4 623.5,92.4 623.7,92.3 623.8,92.2 624.0,92.4 624.2,92.2 624.4,91.9 624.6,91.8 624.8,91.9 624.9,91.4 625.1,91.1 625.3,91.1 625.5,91.0 625.7,91.6 625.8,91.8 626.0,92.4 626.2,92.4 626.4,91.1 626.6,91.1 626.7,92.4 626.9,92.4 627.1,92.4 627.3,91.1 627.5,91.1 627.7,91.1 627.8,91.1 628.0,89.1 628.2,89.1 628.4,89.1 628.6,89.7 628.7,89.1 628.9,89.4 629.1,89.1 629.3,87.0 629.5,86.5 629.7,85.9 629.8,86.0 630.0,85.7 630.2,86.7 630.4,86.6 630.6,86.6 630.7,86.5 630.9,85.8 631.1,85.8 631.3,85.9 631.5,86.1 631.6,87.2 631.8,90.0 632.0,90.6 632.2,88.6 632.4,88.6 632.6,87.6 632.7,88.3 632.9,88.1 633.1,86.9 633.3,88.1 633.5,87.6 633.6,87.6 633.8,87.6 634.0,86.4 634.2,86.9 634.4,88.3 634.5,88.9 634.7,88.3 634.9,86.9 635.1,87.6 635.3,87.3 635.5,87.7 635.6,88.3 635.8,87.3 636.0,87.6 636.2,87.3 636.4,87.2 636.5,87.3 636.7,86.9 636.9,87.4 637.1,87.4 637.3,88.8 637.5,87.2 637.6,87.6 637.8,87.5 638.0,87.3 638.2,87.2 638.4,86.9 638.5,86.6 638.7,86.3 638.9,86.3 639.1,86.3 639.3,86.3 639.4,85.7 639.6,85.5 639.8,82.4 640.0,82.4 640.2,83.7 640.4,82.4 640.5,83.9 640.7,83.9 640.9,84.3 641.1,84.4 641.3,84.3 641.4,84.8 641.6,85.3 641.8,85.3 642.0,86.0 642.2,85.2 642.4,85.1 642.5,85.0 642.7,85.0 642.9,85.6 643.1,85.4 643.3,86.6 643.4,86.3 643.6,87.7 643.8,90.2 644.0,90.2 644.2,91.7 644.3,89.5 644.5,89.0 644.7,89.4 644.9,89.9 645.1,89.1 645.3,88.5 645.4,88.0 645.6,88.0 645.8,87.9 646.0,87.3 646.2,87.3 646.3,87.4 646.5,88.7 646.7,88.0 646.9,87.7 647.1,88.0 647.2,89.3 647.4,88.8 647.6,89.4 647.8,89.4 648.0,90.0 648.2,89.7 648.3,89.8 648.5,89.7 648.7,86.0 648.9,89.7 649.1,89.0 649.2,86.0 649.4,86.0 649.6,88.6 649.8,87.3 650.0,86.1 650.2,85.0 650.3,84.7 650.5,86.0 650.7,84.1 650.9,84.4 651.1,84.1 651.2,80.9 651.4,82.2 651.6,84.7 651.8,84.9 652.0,84.7 652.1,85.0 652.3,86.0 652.5,87.2 652.7,87.3 652.9,88.0 653.1,87.3 653.2,87.7 653.4,88.5 653.6,88.4 653.8,89.1 654.0,88.7 654.1,88.6 654.3,89.0 654.5,87.9 654.7,88.2 654.9,88.4 655.0,87.1 655.2,88.4 655.4,87.4 655.6,88.8 655.8,88.3 656.0,88.2 656.1,88.9 656.3,89.5 656.5,89.1 656.7,89.5 656.9,89.0 657.0,88.5 657.2,85.1 657.4,86.4 657.6,86.5 657.8,86.4 658.0,86.3 658.1,86.4 658.3,86.4 658.5,87.1 658.7,87.1 658.9,86.8 659.0,86.8 659.2,86.8 659.4,83.2 659.6,81.9 659.8,82.5 659.9,81.9 660.1,81.4 660.3,84.2 660.5,85.0 660.7,85.0 660.9,86.4 661.0,86.9 661.2,85.9 661.4,84.8 661.6,85.3 661.8,85.2 661.9,85.1 662.1,85.8 662.3,85.8 662.5,87.1 662.7,87.6 662.8,87.6 663.0,87.1 663.2,87.4 663.4,88.1 663.6,87.8 663.8,87.9 663.9,87.8 664.1,88.1 664.3,87.2 664.5,84.5 664.7,86.7 664.8,86.6 665.0,86.8 665.2,86.9 665.4,87.3 665.6,88.4 665.8,88.3 665.9,87.6 666.1,88.4 666.3,89.2 666.5,89.0 666.7,89.5 666.8,89.5 667.0,89.5 667.2,89.5 667.4,89.5 667.6,89.5 667.7,89.6 667.9,90.8 668.1,91.7 668.3,92.7 668.5,93.7 668.7,95.2 668.8,95.3 669.0,96.3 669.2,95.3 669.4,91.8 669.6,94.8 669.7,94.7 669.9,95.3 670.1,94.6 670.3,96.7 670.5,96.1 670.6,94.7 670.8,94.9 671.0,94.9 671.2,95.9 671.4,93.1 671.6,92.8 671.7,93.5 671.9,93.6 672.1,91.0 672.3,90.7 672.5,91.1 672.6,91.7 672.8,92.4 673.0,92.4 673.2,92.6 673.4,92.4 673.6,92.7 673.7,92.5 673.9,92.2 674.1,86.2 674.3,85.5 674.5,86.2 674.6,86.9 674.8,87.5 675.0,86.5 675.2,84.2 675.4,83.0 675.5,83.0 675.7,83.0 675.9,81.4 676.1,81.7 676.3,81.3 676.5,81.4 676.6,81.8 676.8,85.0 677.0,85.4 677.2,82.3 677.4,82.7 677.5,84.6 677.7,84.4 677.9,84.7 678.1,85.3 678.3,85.7 678.4,85.7 678.6,86.4 678.8,87.1 679.0,85.9 679.2,85.1 679.4,83.3 679.5,82.8 679.7,83.4 679.9,86.4 680.1,86.6 680.3,87.5 680.4,86.4 680.6,85.4 680.8,86.2 681.0,86.9 681.2,84.1 681.4,83.4 681.5,83.5 681.7,83.0 681.9,82.9 682.1,82.9 682.3,82.8 682.4,81.8 682.6,80.9 682.8,81.5 683.0,80.9 683.2,80.8 683.3,82.8 683.5,83.1 683.7,83.7 683.9,84.1 684.1,84.0 684.3,83.4 684.4,83.4 684.6,83.5 684.8,83.5 685.0,83.4 685.2,83.1 685.3,84.7 685.5,84.7 685.7,83.8 685.9,81.5 686.1,81.1 686.3,81.5 686.4,81.3 686.6,80.8 686.8,82.2 687.0,83.9 687.2,83.1 687.3,83.1 687.5,84.4 687.7,84.5 687.9,84.5 688.1,85.8 688.2,86.9 688.4,85.3 688.6,84.2 688.8,84.1 689.0,85.6 689.2,84.1 689.3,84.9 689.5,85.0 689.7,86.1 689.9,86.9 690.1,88.5 690.2,91.3 690.4,88.5 690.6,88.7 690.8,89.6 691.0,88.6 691.1,87.2 691.3,87.6 691.5,87.2 691.7,87.2 691.9,86.9 692.1,86.9 692.2,87.8 692.4,87.9 692.6,88.6 692.8,89.0 693.0,90.0 693.1,89.7 693.3,88.8 693.5,90.7 693.7,88.7 693.9,90.7 694.1,90.6 694.2,90.7 694.4,90.7 694.6,91.5 694.8,91.5 695.0,91.5 695.1,90.3 695.3,90.3 695.5,90.7 695.7,91.0 695.9,90.7 696.0,91.0 696.2,91.2 696.4,91.2 696.6,92.4 696.8,92.1 697.0,91.9 697.1,91.8 697.3,91.5 697.5,91.5 697.7,91.8 697.9,91.5 698.0,91.7 698.2,91.3 698.4,91.6 698.6,91.6 698.8,91.8 698.9,92.2 699.1,92.7 699.3,92.1 699.5,92.1 699.7,92.1 699.9,92.5 700.0,92.2 700.2,92.7 700.4,92.6 700.6,93.5 700.8,94.0 700.9,93.8 701.1,94.1 701.3,94.3 701.5,94.4 701.7,94.8 701.9,96.3 702.0,95.3 702.2,96.0 702.4,95.7 702.6,95.7 702.8,95.7 702.9,95.7 703.1,95.7 703.3,95.9 703.5,95.5 703.7,95.0 703.8,95.0 704.0,95.7 704.2,95.0 704.4,95.3 704.6,95.7 704.8,96.2 704.9,96.5 705.1,97.2 705.3,96.5 705.5,96.5 705.7,96.0 705.8,96.0 706.0,96.8 706.2,94.6 706.4,95.9 706.6,95.7 706.7,95.7 706.9,94.6 707.1,95.6 707.3,95.6 707.5,94.6 707.7,96.7 707.8,95.7 708.0,95.7 708.2,96.3 708.4,97.3 708.6,99.0 708.7,100.1 708.9,102.2 709.1,98.9 709.3,98.9 709.5,99.6 709.7,95.0 709.8,95.4 710.0,95.0 710.2,97.0 710.4,99.3 710.6,100.2 710.7,99.6 710.9,99.1 711.1,94.8 711.3,98.4 711.5,95.3 711.6,95.0 711.8,94.7 712.0,96.2 712.2,98.3 712.4,98.7 712.6,98.6 712.7,98.3 712.9,98.8 713.1,98.6 713.3,98.6 713.5,98.6 713.6,98.4 713.8,97.7 714.0,98.3 714.2,99.0 714.4,98.6 714.5,98.6 714.7,98.3 714.9,96.2 715.1,97.2 715.3,97.7 715.5,98.1 715.6,98.4 715.8,97.4 716.0,97.0 716.2,97.1 716.4,96.2 716.5,96.3 716.7,95.5 716.9,94.8 717.1,95.2 717.3,94.1 717.5,94.7 717.6,94.1 717.8,93.4 718.0,92.4 718.2,92.4 718.4,93.1 718.5,95.1 718.7,94.7 718.9,91.9 719.1,90.9 719.3,90.7 719.4,90.9 719.6,90.2 719.8,88.1 720.0,91.3 720.2,90.9 720.4,91.9 720.5,92.4 720.7,93.7 720.9,91.3 721.1,90.7 721.3,88.5 721.4,88.9 721.6,88.5 721.8,86.7 722.0,86.6 722.2,86.7 722.3,89.9 722.5,88.8 722.7,87.6 722.9,87.4 723.1,89.6 723.3,87.5 723.4,85.7 723.6,87.1 723.8,87.1 724.0,87.1 724.2,87.0 724.3,87.1 724.5,86.4 724.7,86.5 724.9,86.9 725.1,86.8 725.3,87.7 725.4,87.9 725.6,88.6 725.8,88.2 726.0,89.2 726.2,89.3 726.3,89.3 726.5,89.7 726.7,89.8 726.9,90.9 727.1,90.2 727.2,88.7 727.4,88.5 727.6,87.1 727.8,87.1 728.0,87.1 728.2,87.1 728.3,85.7 728.5,86.8 728.7,86.8 728.9,85.9 729.1,86.8 729.2,87.1 729.4,86.7 729.6,87.3 729.8,87.5 730.0,87.4 730.2,88.2 730.3,87.8 730.5,88.0 730.7,88.0 730.9,87.8 731.1,88.1 731.2,88.4 731.4,90.0 731.6,90.8 731.8,91.8 732.0,91.9 732.1,89.1 732.3,89.0 732.5,90.4 732.7,90.1 732.9,91.6 733.1,88.9 733.2,89.7 733.4,90.1 733.6,90.2 733.8,90.4 734.0,93.0 734.1,92.1 734.3,91.6 734.5,92.3 734.7,91.8 734.9,92.3 735.0,93.8 735.2,96.6 735.4,96.3 735.6,96.3 735.8,96.8 736.0,96.3 736.1,96.2 736.3,96.7 736.5,96.1 736.7,95.7 736.9,96.5 737.0,94.8 737.2,95.8 737.4,95.3 737.6,96.0 737.8,96.1 738.0,96.4 738.1,96.7 738.3,97.1 738.5,96.7 738.7,96.8 738.9,99.1 739.0,98.3 739.2,98.9 739.4,98.0 739.6,97.6 739.8,98.7 739.9,97.7 740.1,97.3 740.3,96.8 740.5,96.8 740.7,96.1 740.9,95.7 741.0,95.9 741.2,96.7 741.4,94.9 741.6,91.4 741.8,94.8 741.9,91.7 742.1,91.9 742.3,91.6 742.5,91.6 742.7,91.6 742.8,94.0 743.0,93.6 743.2,91.8 743.4,92.0 743.6,92.0 743.8,91.7 743.9,93.6 744.1,93.5 744.3,91.3 744.5,90.5 744.7,90.5 744.8,90.5 745.0,91.3 745.2,90.7 745.4,91.1 745.6,90.4 745.8,90.4 745.9,89.5 746.1,89.8 746.3,89.9 746.5,89.9 746.7,89.5 746.8,89.3 747.0,89.5 747.2,87.3 747.4,86.7 747.6,86.8 747.7,88.7 747.9,87.3 748.1,85.2 748.3,85.0 748.5,83.7 748.7,81.0 748.8,83.0 749.0,82.1 749.2,81.0 749.4,76.5 749.6,76.8 749.7,78.1 749.9,81.0 750.1,80.5 750.3,80.5 750.5,80.7 750.6,81.0 750.8,80.3 751.0,79.7 751.2,79.7 751.4,80.1 751.6,79.7 751.7,79.0 751.9,79.7 752.1,79.7 752.3,79.7 752.5,79.4 752.6,79.7 752.8,79.9 753.0,79.7 753.2,81.7 753.4,82.3 753.6,83.7 753.7,83.7 753.9,84.6 754.1,84.4 754.3,84.5 754.5,83.7 754.6,83.7 754.8,84.4 755.0,87.0 755.2,88.1 755.4,88.0 755.5,88.0 755.7,86.7 755.9,86.8 756.1,87.1 756.3,88.4 756.5,90.4 756.6,87.1 756.8,86.5 757.0,86.4 757.2,89.7 757.4,90.3 757.5,90.7 757.7,90.8 757.9,90.6 758.1,89.2 758.3,90.4 758.4,90.1 758.6,90.0 758.8,90.5 759.0,87.7 759.2,89.2 759.4,87.2 759.5,84.9 759.7,86.1 759.9,82.0 760.1,83.5 760.3,86.3 760.4,87.7 760.6,89.2 760.8,89.2 761.0,89.9 761.2,89.6 761.4,89.2 761.5,89.7 761.7,90.9 761.9,90.2 762.1,89.2 762.3,89.2 762.4,90.7 762.6,90.4 762.8,90.0 763.0,89.4 763.2,89.8 763.3,89.7 763.5,89.2 763.7,87.7 763.9,89.2 764.1,88.8 764.3,86.5 764.4,84.3 764.6,82.6 764.8,82.8 765.0,89.1 765.2,89.2 765.3,81.1 765.5,87.4 765.7,85.8 765.9,86.0 766.1,84.2 766.2,84.4 766.4,85.8 766.6,85.4 766.8,86.3 767.0,86.3 767.2,86.0 767.3,83.4 767.5,85.3 767.7,85.8 767.9,85.6 768.1,84.6 768.2,86.5 768.4,86.4 768.6,86.7 768.8,87.9 769.0,87.2 769.2,86.0 769.3,86.5 769.5,85.8 769.7,86.9 769.9,85.7 770.1,86.8 770.2,86.6 770.4,85.8 770.6,86.0 770.8,84.4 771.0,86.3 771.1,82.5 771.3,84.1 771.5,85.0 771.7,85.2 771.9,86.0 772.1,86.1 772.2,85.4 772.4,84.1 772.6,82.8 772.8,82.9 773.0,83.1 773.1,82.1 773.3,81.4 773.5,82.1 773.7,82.1 773.9,82.4 774.1,82.4 774.2,81.2 774.4,79.0 774.6,81.0 774.8,81.6 775.0,80.4 775.1,80.1 775.3,81.2 775.5,82.4 775.7,81.2 775.9,81.5 776.0,82.4 776.2,83.2 776.4,82.0 776.6,83.5 776.8,81.4 777.0,81.2 777.1,82.8 777.3,82.1 777.5,82.1 777.7,81.8 777.9,82.1 778.0,82.3 778.2,82.1 778.4,82.9 778.6,84.9 778.8,83.6 778.9,84.5 779.1,84.2 779.3,85.0 779.5,84.3 779.7,79.6 779.9,81.8 780.0,82.7 780.2,81.0 780.4,81.6 780.6,83.6 780.8,83.2 780.9,84.2 781.1,83.6 781.3,83.9 781.5,84.2 781.7,83.2 781.9,82.3 782.0,84.1 782.2,83.9 782.4,83.1 782.6,83.8 782.8,84.3 782.9,82.4 783.1,84.1 783.3,81.7 783.5,81.4 783.7,82.0 783.8,81.7 784.0,81.7 784.2,82.0 784.4,82.3 784.6,81.4 784.8,81.9 784.9,82.4 785.1,80.4 785.3,80.3 785.5,80.7 785.7,81.3 785.8,78.9 786.0,79.6 786.2,81.0 786.4,81.8 786.6,81.7 786.7,82.6 786.9,80.4 787.1,80.3 787.3,78.9 787.5,80.2 787.7,78.9 787.8,81.3 788.0,80.8 788.2,82.1 788.4,83.1 788.6,84.6 788.7,83.1 788.9,83.1 789.1,84.6 789.3,84.6 789.5,84.7 789.7,84.6 789.8,84.6 790.0,83.8 790.2,84.6 790.4,82.4 790.6,84.1 790.7,84.6 790.9,84.8 791.1,84.5 791.3,84.5 791.5,84.2 791.6,84.7 791.8,85.1 792.0,85.1 792.2,84.6 792.4,84.1 792.6,85.0 792.7,84.5 792.9,85.4 793.1,85.5 793.3,84.9 793.5,85.6 793.6,85.5 793.8,85.6 794.0,85.3 794.2,84.9 794.4,85.5 794.5,84.9 794.7,85.0 794.9,85.2 795.1,85.6 795.3,81.7 795.5,82.2 795.6,83.0 795.8,84.0 796.0,84.1"/>
<text x="78" y="392" font-size="11" fill="#16a34a">Total return +1,607%</text><text x="268" y="392" font-size="11" fill="#2563eb">Price-only +746.9%</text><text x="78" y="362" font-size="11" text-anchor="middle" fill="#64748b">2010-10</text><text x="257" y="362" font-size="11" text-anchor="middle" fill="#64748b">2014-09</text><text x="437" y="362" font-size="11" text-anchor="middle" fill="#64748b">2018-08</text><text x="617" y="362" font-size="11" text-anchor="middle" fill="#64748b">2022-08</text><text x="796" y="362" font-size="11" text-anchor="middle" fill="#64748b">2026-07</text></svg>