<svg xmlns="http://www.w3.org/2000/svg" width="820" height="410" viewBox="0 0 820 410">
<rect width="820" height="410" fill="#fafafa"/><text x="78" y="22" font-size="14" font-family="sans-serif" fill="#0f172a">BE cumulative return since 2018-07-25 | dividends reinvested</text>
<text x="78" y="40" font-size="11" font-family="sans-serif" fill="#334155">Total return +792.2% | Price-only +792.2% | logarithmic scale</text>
<text x="78" y="54" font-size="9" font-family="sans-serif" fill="#64748b">Regular $0.00 | Special $0.00 | Other $0.00 per initial share path</text>
<line x1="78" y1="332.0" x2="796" y2="332.0" stroke="#e2e8f0"/><text x="70" y="336.0" font-size="10" text-anchor="end" fill="#64748b">-92.0%</text><line x1="78" y1="287.0" x2="796" y2="287.0" stroke="#e2e8f0"/><text x="70" y="291.0" font-size="10" text-anchor="end" fill="#64748b">-80.2%</text><line x1="78" y1="242.0" x2="796" y2="242.0" stroke="#e2e8f0"/><text x="70" y="246.0" font-size="10" text-anchor="end" fill="#64748b">-51.0%</text><line x1="78" y1="206.7" x2="796" y2="206.7" stroke="#e2e8f0"/><text x="70" y="210.7" font-size="10" text-anchor="end" fill="#64748b">0%</text><line x1="78" y1="197.0" x2="796" y2="197.0" stroke="#e2e8f0"/><text x="70" y="201.0" font-size="10" text-anchor="end" fill="#64748b">+21.6%</text><line x1="78" y1="152.0" x2="796" y2="152.0" stroke="#e2e8f0"/><text x="70" y="156.0" font-size="10" text-anchor="end" fill="#64748b">+201.3%</text><line x1="78" y1="107.0" x2="796" y2="107.0" stroke="#e2e8f0"/><text x="70" y="111.0" font-size="10" text-anchor="end" fill="#64748b">+647.1%</text><line x1="78" y1="62.0" x2="796" y2="62.0" stroke="#e2e8f0"/><text x="70" y="66.0" font-size="10" text-anchor="end" fill="#64748b">+1,752%</text>
<line x1="78" y1="332" x2="796" y2="332" stroke="#cbd5e1"/>
<polyline fill="none" stroke="#2563eb" stroke-width="2" points="78.0,206.7 78.4,215.3 78.7,211.7 79.1,209.0 79.4,210.7 79.8,209.7 80.1,207.7 80.5,203.2 80.9,201.2 81.2,202.0 81.6,200.8 81.9,203.4 82.3,201.7 82.7,207.2 83.0,205.7 83.4,211.0 83.7,210.5 84.1,212.6 84.4,212.1 84.8,206.1 85.2,202.9 85.5,198.8 85.9,196.2 86.2,199.8 86.6,198.4 87.0,199.1 87.3,199.7 87.7,197.7 88.0,200.2 88.4,200.7 88.7,199.8 89.1,196.7 89.5,199.2 89.8,198.9 90.2,194.6 90.5,194.9 90.9,198.3 91.3,199.3 91.6,197.8 92.0,198.9 92.3,197.6 92.7,196.1 93.0,194.1 93.4,191.3 93.8,188.9 94.1,192.0 94.5,191.3 94.8,194.0 95.2,197.3 95.6,197.2 95.9,200.5 96.3,202.2 96.6,202.7 97.0,204.5 97.3,201.9 97.7,202.2 98.1,203.4 98.4,203.6 98.8,202.5 99.1,202.3 99.5,205.6 99.9,205.7 100.2,208.4 100.6,209.1 100.9,208.9 101.3,209.9 101.6,212.6 102.0,212.9 102.4,210.8 102.7,209.2 103.1,209.2 103.4,210.9 103.8,210.8 104.2,225.1 104.5,222.9 104.9,222.7 105.2,219.1 105.6,218.5 105.9,221.6 106.3,224.9 106.7,230.5 107.0,228.7 107.4,233.7 107.7,233.5 108.1,233.1 108.5,232.0 108.8,233.0 109.2,233.7 109.5,230.5 109.9,225.0 110.2,227.4 110.6,227.3 111.0,230.7 111.3,230.0 111.7,229.2 112.0,225.3 112.4,229.9 112.8,230.6 113.1,234.0 113.5,235.0 113.8,240.0 114.2,243.1 114.5,246.7 114.9,251.0 115.3,251.7 115.6,252.6 116.0,248.4 116.3,247.5 116.7,248.1 117.1,252.2 117.4,251.5 117.8,249.8 118.1,243.8 118.5,241.4 118.8,240.1 119.2,242.5 119.6,243.0 119.9,242.1 120.3,242.4 120.6,240.7 121.0,239.8 121.4,238.7 121.7,240.4 122.1,243.0 122.4,243.1 122.8,244.8 123.1,245.0 123.5,248.7 123.9,252.7 124.2,256.2 124.6,254.9 124.9,251.0 125.3,248.5 125.7,248.8 126.0,251.3 126.4,250.4 126.7,251.8 127.1,255.1 127.4,254.1 127.8,247.4 128.2,244.3 128.5,246.0 128.9,246.8 129.2,241.6 129.6,239.4 130.0,235.3 130.3,235.5 130.7,233.0 131.0,236.1 131.4,233.8 131.7,227.9 132.1,231.6 132.5,231.1 132.8,235.0 133.2,234.4 133.5,237.2 133.9,234.4 134.3,235.9 134.6,238.1 135.0,240.9 135.3,239.5 135.7,239.4 136.0,239.4 136.4,240.4 136.8,240.8 137.1,243.9 137.5,243.9 137.8,243.1 138.2,241.9 138.5,242.4 138.9,239.4 139.3,239.6 139.6,239.2 140.0,238.0 140.3,240.3 140.7,240.4 141.1,241.5 141.4,241.7 141.8,243.1 142.1,241.0 142.5,241.5 142.8,243.5 143.2,241.3 143.6,239.3 143.9,239.2 144.3,239.2 144.6,239.6 145.0,239.4 145.4,241.7 145.7,241.8 146.1,238.5 146.4,236.8 146.8,234.3 147.1,235.0 147.5,231.1 147.9,232.9 148.2,234.8 148.6,237.8 148.9,236.5 149.3,237.7 149.7,238.3 150.0,236.6 150.4,237.8 150.7,239.1 151.1,243.5 151.4,244.2 151.8,241.9 152.2,243.1 152.5,244.6 152.9,246.6 153.2,246.2 153.6,246.8 154.0,248.0 154.3,248.3 154.7,248.7 155.0,248.3 155.4,248.5 155.7,251.6 156.1,251.0 156.5,250.0 156.8,249.8 157.2,249.7 157.5,246.1 157.9,246.9 158.3,243.9 158.6,242.8 159.0,242.4 159.3,241.3 159.7,244.2 160.0,244.9 160.4,245.0 160.8,243.8 161.1,244.6 161.5,241.9 161.8,241.0 162.2,240.5 162.6,241.4 162.9,239.8 163.3,239.4 163.6,239.2 164.0,238.9 164.3,240.1 164.7,238.9 165.1,241.8 165.4,243.1 165.8,244.7 166.1,245.5 166.5,247.4 166.9,248.9 167.2,249.7 167.6,247.8 167.9,249.1 168.3,249.0 168.6,250.5 169.0,251.3 169.4,249.9 169.7,251.1 170.1,250.9 170.4,254.0 170.8,256.1 171.2,256.5 171.5,257.8 171.9,259.8 172.2,263.1 172.6,290.6 172.9,287.3 173.3,286.9 173.7,285.3 174.0,282.6 174.4,281.8 174.7,283.6 175.1,286.7 175.5,290.0 175.8,289.8 176.2,292.8 176.5,294.3 176.9,295.3 177.2,291.9 177.6,292.2 178.0,291.8 178.3,290.3 178.7,288.7 179.0,289.8 179.4,291.0 179.8,287.5 180.1,290.4 180.5,292.3 180.8,295.2 181.2,306.9 181.5,306.4 181.9,303.4 182.3,306.7 182.6,305.1 183.0,307.9 183.3,304.5 183.7,304.3 184.1,304.7 184.4,307.8 184.8,309.2 185.1,310.1 185.5,308.7 185.8,308.4 186.2,307.9 186.6,310.5 186.9,310.6 187.3,306.0 187.6,309.0 188.0,313.3 188.4,312.3 188.7,312.6 189.1,314.0 189.4,313.4 189.8,312.8 190.1,316.4 190.5,316.4 190.9,317.5 191.2,316.6 191.6,314.7 191.9,317.0 192.3,312.4 192.7,310.8 193.0,306.4 193.4,300.8 193.7,301.2 194.1,301.5 194.4,293.9 194.8,284.8 195.2,281.7 195.5,281.2 195.9,283.8 196.2,278.2 196.6,273.2 197.0,272.5 197.3,274.4 197.7,273.6 198.0,276.3 198.4,275.4 198.7,275.2 199.1,275.0 199.5,275.0 199.8,273.3 200.2,275.2 200.5,277.6 200.9,281.3 201.2,282.0 201.6,283.7 202.0,283.3 202.3,284.6 202.7,280.5 203.0,275.7 203.4,271.3 203.8,272.1 204.1,272.5 204.5,268.2 204.8,274.9 205.2,272.9 205.5,273.2 205.9,272.6 206.3,273.4 206.6,274.4 207.0,268.4 207.3,266.5 207.7,263.9 208.1,263.0 208.4,262.7 208.8,262.0 209.1,260.3 209.5,259.2 209.8,256.6 210.2,257.0 210.6,254.8 210.9,253.3 211.3,255.8 211.6,253.5 212.0,256.5 212.4,255.8 212.7,256.4 213.1,256.9 213.4,261.4 213.8,259.4 214.1,260.7 214.5,261.9 214.9,263.9 215.2,259.3 215.6,255.4 215.9,254.9 216.3,254.2 216.7,252.8 217.0,252.0 217.4,251.6 217.7,249.9 218.1,253.9 218.4,248.7 218.8,244.3 219.2,235.1 219.5,240.2 219.9,244.0 220.2,244.1 220.6,248.5 221.0,248.5 221.3,256.4 221.7,256.9 222.0,258.0 222.4,255.7 222.7,251.6 223.1,251.1 223.5,256.4 223.8,260.1 224.2,257.5 224.5,265.4 224.9,273.5 225.3,276.4 225.6,283.5 226.0,296.5 226.3,310.6 226.7,293.1 227.0,296.5 227.4,298.9 227.8,280.6 228.1,283.3 228.5,281.0 228.8,284.4 229.2,283.3 229.6,284.2 229.9,292.1 230.3,286.8 230.6,288.6 231.0,284.1 231.3,285.6 231.7,278.6 232.1,276.3 232.4,277.9 232.8,267.7 233.1,273.1 233.5,273.6 233.9,271.0 234.2,271.2 234.6,271.4 234.9,263.5 235.3,263.6 235.6,261.4 236.0,260.3 236.4,264.9 236.7,263.3 237.1,265.2 237.4,267.3 237.8,268.3 238.2,267.4 238.5,263.9 238.9,264.1 239.2,261.3 239.6,260.8 239.9,259.7 240.3,264.1 240.7,263.0 241.0,263.0 241.4,261.1 241.7,261.5 242.1,263.1 242.5,263.6 242.8,263.6 243.2,262.2 243.5,261.1 243.9,262.7 244.2,263.0 244.6,260.7 245.0,263.3 245.3,264.6 245.7,263.1 246.0,262.3 246.4,259.7 246.8,260.7 247.1,250.8 247.5,259.0 247.8,258.5 248.2,257.0 248.5,256.7 248.9,258.4 249.3,256.8 249.6,255.0 250.0,256.9 250.3,257.2 250.7,257.3 251.1,260.4 251.4,264.5 251.8,261.8 252.1,247.9 252.5,249.8 252.8,250.4 253.2,243.8 253.6,245.8 253.9,240.9 254.3,239.0 254.6,236.4 255.0,242.6 255.4,238.7 255.7,223.9 256.1,225.6 256.4,225.8 256.8,226.9 257.1,225.5 257.5,221.0 257.9,224.2 258.2,226.1 258.6,228.1 258.9,232.0 259.3,239.6 259.6,240.7 260.0,242.4 260.4,236.6 260.7,235.0 261.1,235.4 261.4,239.2 261.8,240.9 262.2,239.0 262.5,239.9 262.9,238.3 263.2,234.0 263.6,234.8 263.9,234.5 264.3,225.8 264.7,226.1 265.0,227.7 265.4,225.6 265.7,227.8 266.1,227.9 266.5,228.1 266.8,227.5 267.2,227.8 267.5,229.9 267.9,227.4 268.2,227.3 268.6,229.7 269.0,234.0 269.3,237.1 269.7,233.7 270.0,236.2 270.4,237.3 270.8,233.2 271.1,233.8 271.5,232.3 271.8,233.5 272.2,225.1 272.5,223.2 272.9,226.1 273.3,231.2 273.6,233.3 274.0,231.4 274.3,226.1 274.7,226.1 275.1,223.0 275.4,225.0 275.8,228.9 276.1,223.8 276.5,218.9 276.8,213.8 277.2,216.2 277.6,211.0 277.9,213.2 278.3,214.9 278.6,216.0 279.0,220.1 279.4,220.6 279.7,222.1 280.1,222.5 280.4,227.6 280.8,226.9 281.1,227.5 281.5,229.8 281.9,230.6 282.2,233.3 282.6,232.9 282.9,240.5 283.3,239.1 283.7,233.6 284.0,236.1 284.4,230.7 284.7,233.2 285.1,230.3 285.4,230.1 285.8,225.5 286.2,225.5 286.5,222.8 286.9,219.9 287.2,219.6 287.6,221.6 288.0,220.9 288.3,221.1 288.7,212.8 289.0,206.6 289.4,202.0 289.7,205.4 290.1,207.6 290.5,207.4 290.8,208.2 291.2,208.3 291.5,201.2 291.9,201.7 292.3,196.7 292.6,206.7 293.0,205.2 293.3,207.3 293.7,208.0 294.0,203.9 294.4,205.0 294.8,204.1 295.1,204.1 295.5,201.9 295.8,197.1 296.2,196.7 296.6,196.8 296.9,200.7 297.3,201.4 297.6,200.3 298.0,199.9 298.3,202.3 298.7,200.4 299.1,196.9 299.4,192.1 299.8,190.3 300.1,190.6 300.5,189.1 300.9,185.0 301.2,184.8 301.6,188.0 301.9,183.5 302.3,185.2 302.6,186.4 303.0,183.2 303.4,185.3 303.7,181.6 304.1,184.2 304.4,188.1 304.8,190.1 305.2,186.9 305.5,185.5 305.9,182.2 306.2,181.3 306.6,180.5 306.9,180.2 307.3,181.2 307.7,181.7 308.0,183.3 308.4,182.8 308.7,189.5 309.1,192.9 309.5,196.8 309.8,194.4 310.2,200.0 310.5,200.5 310.9,197.5 311.2,202.3 311.6,200.1 312.0,197.0 312.3,199.9 312.7,203.6 313.0,203.6 313.4,205.5 313.8,206.0 314.1,202.5 314.5,201.6 314.8,197.8 315.2,198.4 315.5,198.0 315.9,201.1 316.3,200.2 316.6,205.4 317.0,202.7 317.3,201.8 317.7,203.6 318.0,207.8 318.4,205.5 318.8,204.1 319.1,210.0 319.5,206.2 319.8,202.8 320.2,204.1 320.6,204.3 320.9,205.3 321.3,207.3 321.6,205.6 322.0,207.0 322.3,208.5 322.7,208.4 323.1,208.6 323.4,210.6 323.8,207.2 324.1,212.4 324.5,211.7 324.9,209.2 325.2,208.4 325.6,205.4 325.9,202.0 326.3,201.8 326.6,201.5 327.0,203.7 327.4,204.8 327.7,207.0 328.1,210.5 328.4,213.8 328.8,212.5 329.2,210.3 329.5,217.5 329.9,215.9 330.2,219.5 330.6,220.8 330.9,217.0 331.3,218.7 331.7,216.7 332.0,215.6 332.4,213.2 332.7,212.4 333.1,213.3 333.5,214.0 333.8,210.7 334.2,209.1 334.5,208.3 334.9,207.8 335.2,207.4 335.6,207.2 336.0,207.5 336.3,205.4 336.7,203.9 337.0,206.0 337.4,206.4 337.8,205.6 338.1,206.1 338.5,208.1 338.8,208.2 339.2,206.9 339.5,207.4 339.9,205.8 340.3,203.7 340.6,201.3 341.0,202.1 341.3,202.2 341.7,200.4 342.1,202.6 342.4,203.1 342.8,203.6 343.1,204.1 343.5,204.7 343.8,209.7 344.2,210.4 344.6,210.6 344.9,211.2 345.3,212.9 345.6,215.1 346.0,216.2 346.4,217.1 346.7,217.1 347.1,215.6 347.4,211.8 347.8,213.4 348.1,214.2 348.5,214.9 348.9,215.9 349.2,212.8 349.6,213.8 349.9,213.5 350.3,214.5 350.7,214.3 351.0,216.2 351.4,214.5 351.7,213.7 352.1,210.6 352.4,210.6 352.8,213.1 353.2,212.3 353.5,214.8 353.9,217.1 354.2,217.0 354.6,216.6 355.0,218.8 355.3,217.7 355.7,215.8 356.0,214.8 356.4,214.7 356.7,215.2 357.1,214.3 357.5,214.2 357.8,214.3 358.2,213.2 358.5,213.0 358.9,213.3 359.3,214.1 359.6,216.5 360.0,217.0 360.3,218.7 360.7,217.2 361.0,218.6 361.4,219.4 361.8,220.3 362.1,218.8 362.5,221.0 362.8,221.5 363.2,219.5 363.6,218.6 363.9,220.2 364.3,217.5 364.6,221.4 365.0,221.5 365.3,221.0 365.7,221.7 366.1,226.1 366.4,221.8 366.8,221.1 367.1,219.9 367.5,219.9 367.9,218.1 368.2,215.8 368.6,212.8 368.9,213.4 369.3,215.0 369.6,214.7 370.0,213.8 370.4,215.5 370.7,214.8 371.1,217.3 371.4,201.6 371.8,200.3 372.2,201.8 372.5,198.9 372.9,195.6 373.2,193.9 373.6,194.2 373.9,194.5 374.3,197.4 374.7,194.4 375.0,189.2 375.4,191.0 375.7,192.9 376.1,191.6 376.5,191.2 376.8,197.0 377.2,196.1 377.5,195.5 377.9,197.9 378.2,197.7 378.6,199.7 379.0,200.1 379.3,200.5 379.7,202.3 380.0,202.1 380.4,202.0 380.7,205.4 381.1,204.3 381.5,207.2 381.8,207.8 382.2,205.3 382.5,206.1 382.9,208.5 383.3,209.4 383.6,211.0 384.0,214.2 384.3,213.0 384.7,214.5 385.0,213.7 385.4,217.4 385.8,213.8 386.1,213.9 386.5,213.0 386.8,213.0 387.2,214.3 387.6,214.9 387.9,213.3 388.3,213.2 388.6,212.7 389.0,214.0 389.3,217.2 389.7,219.1 390.1,219.6 390.4,219.9 390.8,218.6 391.1,219.8 391.5,222.1 391.9,222.6 392.2,225.7 392.6,226.3 392.9,226.8 393.3,230.1 393.6,230.0 394.0,231.3 394.4,233.7 394.7,238.3 395.1,236.9 395.4,231.7 395.8,231.3 396.2,232.3 396.5,235.1 396.9,234.5 397.2,234.0 397.6,232.5 397.9,228.7 398.3,230.4 398.7,226.1 399.0,224.3 399.4,217.9 399.7,218.3 400.1,220.5 400.5,222.0 400.8,224.3 401.2,224.4 401.5,218.0 401.9,216.9 402.2,212.6 402.6,211.8 403.0,212.1 403.3,213.7 403.7,215.1 404.0,214.6 404.4,209.4 404.8,208.9 405.1,209.9 405.5,211.1 405.8,216.1 406.2,214.8 406.5,212.2 406.9,209.8 407.3,208.8 407.6,210.6 408.0,209.2 408.3,208.7 408.7,206.8 409.1,208.3 409.4,208.4 409.8,205.7 410.1,207.6 410.5,208.4 410.8,207.6 411.2,204.3 411.6,206.5 411.9,208.8 412.3,210.5 412.6,211.8 413.0,210.9 413.4,212.2 413.7,210.2 414.1,212.0 414.4,212.8 414.8,210.2 415.1,212.0 415.5,218.2 415.9,220.1 416.2,218.6 416.6,219.2 416.9,219.0 417.3,219.0 417.7,221.4 418.0,220.9 418.4,220.4 418.7,217.0 419.1,220.4 419.4,231.6 419.8,236.9 420.2,238.0 420.5,242.5 420.9,241.6 421.2,235.8 421.6,235.2 422.0,232.6 422.3,235.0 422.7,230.1 423.0,229.9 423.4,228.6 423.7,232.0 424.1,230.0 424.5,227.1 424.8,222.2 425.2,224.3 425.5,225.8 425.9,221.5 426.3,222.4 426.6,220.6 427.0,219.8 427.3,221.1 427.7,223.4 428.0,225.6 428.4,230.0 428.8,229.9 429.1,226.8 429.5,228.8 429.8,225.8 430.2,225.0 430.6,226.2 430.9,222.7 431.3,222.7 431.6,222.3 432.0,225.5 432.3,227.8 432.7,227.3 433.1,226.1 433.4,225.2 433.8,224.9 434.1,221.9 434.5,220.5 434.9,223.3 435.2,224.4 435.6,224.0 435.9,225.6 436.3,228.6 436.6,226.3 437.0,224.5 437.4,222.8 437.7,224.0 438.1,227.2 438.4,225.6 438.8,227.4 439.1,225.2 439.5,217.3 439.9,217.2 440.2,216.8 440.6,214.4 440.9,214.2 441.3,211.1 441.7,208.5 442.0,206.4 442.4,207.2 442.7,198.8 443.1,199.0 443.4,196.9 443.8,197.0 444.2,203.2 444.5,203.6 444.9,203.7 445.2,205.6 445.6,207.3 446.0,208.5 446.3,205.4 446.7,202.2 447.0,204.3 447.4,205.2 447.7,205.9 448.1,205.9 448.5,207.4 448.8,209.4 449.2,208.6 449.5,205.8 449.9,205.2 450.3,204.5 450.6,204.3 451.0,206.2 451.3,203.4 451.7,205.0 452.0,206.3 452.4,206.0 452.8,208.9 453.1,208.6 453.5,211.1 453.8,214.5 454.2,215.9 454.6,214.8 454.9,213.8 455.3,217.3 455.6,217.8 456.0,215.9 456.3,213.2 456.7,216.4 457.1,220.1 457.4,223.1 457.8,224.4 458.1,224.4 458.5,226.8 458.9,225.9 459.2,227.5 459.6,226.4 459.9,225.3 460.3,227.2 460.6,228.0 461.0,226.7 461.4,227.0 461.7,223.0 462.1,221.8 462.4,221.4 462.8,221.5 463.2,221.0 463.5,222.2 463.9,224.8 464.2,225.1 464.6,219.7 464.9,219.2 465.3,219.0 465.7,222.2 466.0,213.8 466.4,213.4 466.7,214.0 467.1,213.0 467.5,214.7 467.8,215.0 468.2,215.2 468.5,215.7 468.9,214.2 469.2,212.3 469.6,212.8 470.0,215.2 470.3,216.1 470.7,214.6 471.0,214.1 471.4,213.1 471.8,215.3 472.1,217.4 472.5,217.6 472.8,216.4 473.2,216.6 473.5,213.4 473.9,213.1 474.3,210.2 474.6,212.0 475.0,212.9 475.3,215.8 475.7,216.4 476.1,216.6 476.4,218.9 476.8,221.5 477.1,224.0 477.5,223.5 477.8,221.1 478.2,220.0 478.6,219.8 478.9,217.4 479.3,219.9 479.6,220.2 480.0,218.0 480.4,213.0 480.7,210.7 481.1,209.5 481.4,210.4 481.8,208.9 482.1,209.1 482.5,211.5 482.9,208.6 483.2,206.0 483.6,206.7 483.9,206.1 484.3,207.1 484.7,206.7 485.0,208.3 485.4,206.8 485.7,205.8 486.1,205.4 486.4,207.3 486.8,208.4 487.2,208.1 487.5,208.9 487.9,209.4 488.2,208.6 488.6,210.2 489.0,210.4 489.3,207.9 489.7,210.0 490.0,209.8 490.4,212.2 490.7,212.1 491.1,212.2 491.5,214.6 491.8,213.9 492.2,213.7 492.5,213.2 492.9,213.7 493.3,211.5 493.6,211.3 494.0,211.4 494.3,212.2 494.7,214.8 495.0,217.4 495.4,217.9 495.8,217.4 496.1,220.5 496.5,222.9 496.8,225.4 497.2,225.2 497.5,222.1 497.9,223.6 498.3,222.1 498.6,222.2 499.0,222.9 499.3,222.7 499.7,220.3 500.1,218.9 500.4,217.9 500.8,217.3 501.1,220.1 501.5,222.2 501.8,223.6 502.2,221.8 502.6,220.4 502.9,221.7 503.3,221.7 503.6,222.3 504.0,221.2 504.4,222.1 504.7,221.8 505.1,222.6 505.4,223.4 505.8,223.3 506.1,225.7 506.5,227.4 506.9,226.7 507.2,226.8 507.6,227.2 507.9,228.9 508.3,227.3 508.7,228.4 509.0,225.8 509.4,225.9 509.7,226.9 510.1,231.3 510.4,238.2 510.8,240.2 511.2,238.6 511.5,238.6 511.9,236.2 512.2,236.7 512.6,235.6 513.0,232.7 513.3,232.6 513.7,236.1 514.0,237.0 514.4,235.4 514.7,235.6 515.1,236.4 515.5,235.6 515.8,233.9 516.2,234.8 516.5,231.6 516.9,229.5 517.3,231.3 517.6,231.5 518.0,226.2 518.3,223.9 518.7,226.2 519.0,224.8 519.4,225.3 519.8,226.2 520.1,227.3 520.5,228.1 520.8,230.6 521.2,230.3 521.6,228.8 521.9,228.2 522.3,228.0 522.6,227.7 523.0,227.8 523.3,228.0 523.7,230.2 524.1,226.7 524.4,224.7 524.8,223.9 525.1,224.1 525.5,223.1 525.9,224.1 526.2,221.8 526.6,222.4 526.9,223.6 527.3,224.7 527.6,224.2 528.0,223.5 528.4,224.5 528.7,223.3 529.1,225.0 529.4,224.7 529.8,223.3 530.2,223.9 530.5,226.5 530.9,227.1 531.2,229.2 531.6,229.7 531.9,229.5 532.3,230.1 532.7,232.1 533.0,231.8 533.4,230.5 533.7,232.6 534.1,233.3 534.5,233.8 534.8,233.7 535.2,233.9 535.5,234.5 535.9,233.1 536.2,234.2 536.6,233.8 537.0,232.4 537.3,230.5 537.7,231.5 538.0,232.0 538.4,231.5 538.8,231.7 539.1,231.7 539.5,231.8 539.8,233.0 540.2,231.7 540.5,230.7 540.9,231.9 541.3,230.2 541.6,231.6 542.0,233.8 542.3,233.1 542.7,234.0 543.1,236.2 543.4,237.0 543.8,236.4 544.1,237.8 544.5,237.5 544.8,238.2 545.2,238.1 545.6,242.3 545.9,245.0 546.3,245.7 546.6,248.5 547.0,246.8 547.4,249.4 547.7,245.3 548.1,243.7 548.4,245.5 548.8,245.5 549.1,241.5 549.5,241.3 549.9,243.0 550.2,243.3 550.6,246.0 550.9,246.2 551.3,244.1 551.7,245.8 552.0,248.0 552.4,253.2 552.7,252.0 553.1,250.1 553.4,252.0 553.8,248.5 554.2,248.3 554.5,251.6 554.9,252.4 555.2,251.9 555.6,248.0 556.0,249.5 556.3,249.2 556.7,241.6 557.0,240.9 557.4,241.3 557.7,240.8 558.1,239.6 558.5,239.8 558.8,238.6 559.2,238.3 559.5,239.0 559.9,237.0 560.2,234.3 560.6,233.9 561.0,230.8 561.3,230.3 561.7,232.3 562.0,234.7 562.4,235.8 562.8,235.7 563.1,237.2 563.5,239.6 563.8,237.0 564.2,234.0 564.5,234.7 564.9,236.4 565.3,234.3 565.6,236.0 566.0,232.8 566.3,232.4 566.7,231.7 567.1,231.2 567.4,231.2 567.8,232.7 568.1,232.8 568.5,235.3 568.8,235.7 569.2,236.2 569.6,235.8 569.9,237.9 570.3,237.3 570.6,239.2 571.0,240.1 571.4,243.7 571.7,246.2 572.1,246.2 572.4,245.6 572.8,242.8 573.1,243.3 573.5,243.6 573.9,241.1 574.2,241.1 574.6,243.5 574.9,245.8 575.3,245.9 575.7,243.0 576.0,244.7 576.4,247.2 576.7,246.0 577.1,246.0 577.4,245.1 577.8,245.0 578.2,241.7 578.5,246.2 578.9,244.3 579.2,243.2 579.6,252.7 580.0,257.8 580.3,257.5 580.7,259.6 581.0,259.7 581.4,259.0 581.7,255.6 582.1,257.4 582.5,258.6 582.8,256.9 583.2,257.1 583.5,256.7 583.9,254.4 584.3,250.0 584.6,250.6 585.0,249.9 585.3,250.6 585.7,251.9 586.0,257.1 586.4,255.9 586.8,253.2 587.1,254.8 587.5,254.2 587.8,253.0 588.2,252.7 588.6,251.9 588.9,248.3 589.3,247.2 589.6,246.3 590.0,244.2 590.3,244.1 590.7,244.3 591.1,243.9 591.4,244.3 591.8,244.4 592.1,243.5 592.5,245.5 592.9,245.7 593.2,248.5 593.6,250.9 593.9,252.7 594.3,253.1 594.6,253.3 595.0,254.0 595.4,255.6 595.7,252.9 596.1,253.9 596.4,254.4 596.8,249.2 597.2,247.4 597.5,246.8 597.9,246.0 598.2,245.4 598.6,243.9 598.9,242.2 599.3,244.0 599.7,243.9 600.0,244.1 600.4,246.6 600.7,244.9 601.1,241.1 601.5,239.6 601.8,242.1 602.2,241.7 602.5,239.4 602.9,231.6 603.2,225.8 603.6,229.6 604.0,227.9 604.3,227.2 604.7,230.3 605.0,226.8 605.4,227.8 605.8,229.6 606.1,231.9 606.5,229.8 606.8,230.8 607.2,232.5 607.5,231.6 607.9,232.8 608.3,231.0 608.6,231.7 609.0,234.3 609.3,235.6 609.7,236.7 610.1,235.4 610.4,239.8 610.8,238.2 611.1,237.9 611.5,240.6 611.8,238.9 612.2,242.1 612.6,245.7 612.9,248.2 613.3,243.7 613.6,242.4 614.0,241.4 614.4,242.0 614.7,239.9 615.1,237.7 615.4,235.5 615.8,233.5 616.1,231.7 616.5,231.1 616.9,233.2 617.2,234.8 617.6,234.5 617.9,231.6 618.3,233.7 618.6,233.7 619.0,233.6 619.4,236.2 619.7,238.8 620.1,237.1 620.4,241.0 620.8,243.9 621.2,247.8 621.5,249.0 621.9,252.6 622.2,249.5 622.6,245.2 622.9,246.7 623.3,243.6 623.7,245.5 624.0,243.1 624.4,244.7 624.7,243.9 625.1,245.1 625.5,244.8 625.8,246.3 626.2,243.6 626.5,243.6 626.9,244.0 627.2,245.9 627.6,243.5 628.0,243.4 628.3,247.3 628.7,246.6 629.0,247.2 629.4,252.3 629.8,253.3 630.1,251.3 630.5,249.0 630.8,250.2 631.2,251.1 631.5,253.2 631.9,251.6 632.3,251.4 632.6,250.9 633.0,247.8 633.3,248.0 633.7,249.5 634.1,251.2 634.4,250.1 634.8,248.7 635.1,249.4 635.5,251.1 635.8,248.6 636.2,249.0 636.6,248.1 636.9,250.3 637.3,250.9 637.6,249.4 638.0,251.0 638.4,248.5 638.7,249.9 639.1,249.9 639.4,250.1 639.8,251.3 640.1,251.3 640.5,252.7 640.9,253.4 641.2,257.1 641.6,256.3 641.9,254.6 642.3,251.3 642.7,251.4 643.0,251.6 643.4,254.1 643.7,252.4 644.1,248.2 644.4,245.6 644.8,247.5 645.2,248.9 645.5,238.4 645.9,236.8 646.2,237.1 646.6,236.8 647.0,238.0 647.3,215.0 647.7,211.2 648.0,209.2 648.4,207.1 648.7,208.8 649.1,205.2 649.5,204.8 649.8,204.4 650.2,202.5 650.5,202.0 650.9,203.0 651.3,204.5 651.6,204.2 652.0,204.8 652.3,202.7 652.7,203.6 653.0,209.8 653.4,209.5 653.8,207.1 654.1,205.5 654.5,204.4 654.8,207.1 655.2,209.8 655.6,211.1 655.9,208.4 656.3,208.3 656.6,208.0 657.0,208.0 657.3,211.0 657.7,211.9 658.1,212.5 658.4,210.0 658.8,208.0 659.1,205.7 659.5,206.6 659.9,207.9 660.2,209.6 660.6,210.7 660.9,212.3 661.3,211.6 661.6,209.6 662.0,208.9 662.4,205.2 662.7,205.6 663.1,201.6 663.4,198.0 663.8,212.1 664.2,216.8 664.5,212.2 664.9,209.7 665.2,209.6 665.6,209.6 665.9,210.6 666.3,208.2 666.7,207.1 667.0,207.1 667.4,205.9 667.7,208.6 668.1,209.8 668.5,207.3 668.8,205.9 669.2,204.7 669.5,203.8 669.9,204.7 670.2,208.3 670.6,211.5 671.0,213.1 671.3,210.0 671.7,210.7 672.0,208.7 672.4,209.9 672.8,211.5 673.1,208.4 673.5,212.1 673.8,210.6 674.2,211.6 674.5,206.7 674.9,207.6 675.3,208.8 675.6,207.7 676.0,208.3 676.3,209.1 676.7,208.1 677.0,205.9 677.4,208.8 677.8,210.7 678.1,210.6 678.5,212.4 678.8,213.0 679.2,216.9 679.6,218.6 679.9,214.8 680.3,215.0 680.6,219.4 681.0,227.0 681.3,225.1 681.7,225.7 682.1,223.3 682.4,226.2 682.8,224.0 683.1,223.2 683.5,222.1 683.9,223.4 684.2,225.8 684.6,227.6 684.9,226.1 685.3,225.0 685.6,222.6 686.0,220.5 686.4,219.7 686.7,220.5 687.1,222.1 687.4,226.3 687.8,227.4 688.2,227.8 688.5,227.8 688.9,227.2 689.2,225.1 689.6,224.0 689.9,220.5 690.3,219.9 690.7,217.1 691.0,218.2 691.4,217.5 691.7,219.7 692.1,220.0 692.5,222.4 692.8,221.9 693.2,219.0 693.5,218.3 693.9,218.8 694.2,221.4 694.6,221.7 695.0,222.2 695.3,216.7 695.7,217.1 696.0,216.6 696.4,213.5 696.8,214.3 697.1,213.8 697.5,211.8 697.8,212.4 698.2,213.1 698.5,211.0 698.9,214.5 699.3,214.1 699.6,213.6 700.0,211.8 700.3,210.9 700.7,213.9 701.1,212.3 701.4,212.6 701.8,208.9 702.1,212.7 702.5,211.8 702.8,208.2 703.2,208.0 703.6,208.1 703.9,199.8 704.3,205.0 704.6,205.9 705.0,204.8 705.4,206.1 705.7,207.3 706.1,208.1 706.4,206.7 706.8,206.0 707.1,204.9 707.5,203.1 707.9,192.8 708.2,190.9 708.6,190.3 708.9,190.4 709.3,186.4 709.7,186.7 710.0,187.6 710.4,188.5 710.7,186.4 711.1,184.8 711.4,187.5 711.8,187.5 712.2,186.4 712.5,181.9 712.9,178.6 713.2,177.4 713.6,177.2 714.0,175.9 714.3,179.7 714.7,178.1 715.0,177.7 715.4,173.8 715.7,173.0 716.1,172.4 716.5,171.5 716.8,167.8 717.2,169.5 717.5,171.0 717.9,169.9 718.3,167.7 718.6,165.8 719.0,169.0 719.3,167.6 719.7,160.9 720.0,157.6 720.4,157.6 720.8,157.8 721.1,153.4 721.5,149.2 721.8,148.4 722.2,146.1 722.6,145.3 722.9,150.7 723.3,156.2 723.6,156.6 724.0,155.4 724.3,153.2 724.7,146.3 725.1,143.1 725.4,144.3 725.8,143.0 726.1,144.9 726.5,145.4 726.9,144.5 727.2,145.1 727.6,144.9 727.9,133.3 728.3,131.4 728.6,130.4 729.0,131.0 729.4,132.6 729.7,133.7 730.1,135.8 730.4,140.8 730.8,137.3 731.2,133.1 731.5,133.9 731.9,131.8 732.2,123.6 732.6,125.8 732.9,124.1 733.3,120.5 733.7,125.3 734.0,120.8 734.4,122.4 734.7,123.0 735.1,121.6 735.5,126.1 735.8,126.2 736.2,136.2 736.5,132.4 736.9,134.6 737.2,135.6 737.6,133.7 738.0,141.4 738.3,143.2 738.7,140.2 739.0,140.9 739.4,137.4 739.7,133.6 740.1,138.5 740.5,135.5 740.8,136.7 741.2,129.7 741.5,129.3 741.9,132.4 742.3,133.5 742.6,137.3 743.0,133.7 743.3,140.5 743.7,143.4 744.0,144.5 744.4,150.9 744.8,148.9 745.1,143.8 745.5,142.0 745.8,142.4 746.2,142.2 746.6,143.1 746.9,144.1 747.3,144.7 747.6,144.9 748.0,138.6 748.3,136.1 748.7,136.5 749.1,134.1 749.4,128.2 749.8,123.4 750.1,122.4 750.5,121.4 750.9,123.7 751.2,121.6 751.6,118.0 751.9,117.3 752.3,117.7 752.6,119.3 753.0,119.6 753.4,121.4 753.7,117.1 754.1,113.0 754.4,115.8 754.8,117.4 755.2,115.9 755.5,112.0 755.9,118.8 756.2,122.5 756.6,120.2 756.9,116.2 757.3,118.3 757.7,116.1 758.0,121.6 758.4,121.4 758.7,119.4 759.1,115.5 759.5,115.0 759.8,118.7 760.2,114.6 760.5,112.8 760.9,110.3 761.2,112.1 761.6,116.0 762.0,112.8 762.3,116.9 762.7,113.2 763.0,114.7 763.4,123.0 763.8,117.4 764.1,116.6 764.5,114.9 764.8,115.6 765.2,116.4 765.5,116.7 765.9,114.7 766.3,115.7 766.6,112.6 767.0,117.8 767.3,120.8 767.7,119.2 768.1,117.8 768.4,123.6 768.8,123.7 769.1,129.1 769.5,122.9 769.8,124.0 770.2,122.9 770.6,123.1 770.9,122.8 771.3,118.9 771.6,114.6 772.0,112.6 772.4,109.8 772.7,99.1 773.1,100.3 773.4,101.2 773.8,101.7 774.1,99.3 774.5,98.7 774.9,96.7 775.2,95.1 775.6,96.4 775.9,95.7 776.3,97.5 776.7,85.5 777.0,86.3 777.4,85.1 777.7,85.4 778.1,84.3 778.4,86.0 778.8,90.9 779.2,90.4 779.5,86.2 779.9,86.8 780.2,85.2 780.6,83.0 781.0,87.7 781.3,90.9 781.7,90.4 782.0,86.5 782.4,82.2 782.7,83.1 783.1,83.1 783.5,84.5 783.8,85.2 784.2,86.1 784.5,88.1 784.9,83.0 785.3,85.7 785.6,85.0 786.0,89.9 786.3,91.8 786.7,90.7 787.0,95.8 787.4,92.8 787.8,90.6 788.1,87.9 788.5,86.8 788.8,86.1 789.2,79.0 789.6,76.5 789.9,80.0 790.3,79.4 790.6,82.0 791.0,92.2 791.3,87.8 791.7,83.1 792.1,85.3 792.4,88.6 792.8,84.3 793.1,88.8 793.5,91.7 793.9,91.2 794.2,93.6 794.6,95.9 794.9,93.9 795.3,94.7 795.6,102.0 796.0,98.2"/><polyline fill="none" stroke="#16a34a" stroke-width="3" points="78.0,206.7 78.4,215.3 78.7,211.7 79.1,209.0 79.4,210.7 79.8,209.7 80.1,207.7 80.5,203.2 80.9,201.2 81.2,202.0 81.6,200.8 81.9,203.4 82.3,201.7 82.7,207.2 83.0,205.7 83.4,211.0 83.7,210.5 84.1,212.6 84.4,212.1 84.8,206.1 85.2,202.9 85.5,198.8 85.9,196.2 86.2,199.8 86.6,198.4 87.0,199.1 87.3,199.7 87.7,197.7 88.0,200.2 88.4,200.7 88.7,199.8 89.1,196.7 89.5,199.2 89.8,198.9 90.2,194.6 90.5,194.9 90.9,198.3 91.3,199.3 91.6,197.8 92.0,198.9 92.3,197.6 92.7,196.1 93.0,194.1 93.4,191.3 93.8,188.9 94.1,192.0 94.5,191.3 94.8,194.0 95.2,197.3 95.6,197.2 95.9,200.5 96.3,202.2 96.6,202.7 97.0,204.5 97.3,201.9 97.7,202.2 98.1,203.4 98.4,203.6 98.8,202.5 99.1,202.3 99.5,205.6 99.9,205.7 100.2,208.4 100.6,209.1 100.9,208.9 101.3,209.9 101.6,212.6 102.0,212.9 102.4,210.8 102.7,209.2 103.1,209.2 103.4,210.9 103.8,210.8 104.2,225.1 104.5,222.9 104.9,222.7 105.2,219.1 105.6,218.5 105.9,221.6 106.3,224.9 106.7,230.5 107.0,228.7 107.4,233.7 107.7,233.5 108.1,233.1 108.5,232.0 108.8,233.0 109.2,233.7 109.5,230.5 109.9,225.0 110.2,227.4 110.6,227.3 111.0,230.7 111.3,230.0 111.7,229.2 112.0,225.3 112.4,229.9 112.8,230.6 113.1,234.0 113.5,235.0 113.8,240.0 114.2,243.1 114.5,246.7 114.9,251.0 115.3,251.7 115.6,252.6 116.0,248.4 116.3,247.5 116.7,248.1 117.1,252.2 117.4,251.5 117.8,249.8 118.1,243.8 118.5,241.4 118.8,240.1 119.2,242.5 119.6,243.0 119.9,242.1 120.3,242.4 120.6,240.7 121.0,239.8 121.4,238.7 121.7,240.4 122.1,243.0 122.4,243.1 122.8,244.8 123.1,245.0 123.5,248.7 123.9,252.7 124.2,256.2 124.6,254.9 124.9,251.0 125.3,248.5 125.7,248.8 126.0,251.3 126.4,250.4 126.7,251.8 127.1,255.1 127.4,254.1 127.8,247.4 128.2,244.3 128.5,246.0 128.9,246.8 129.2,241.6 129.6,239.4 130.0,235.3 130.3,235.5 130.7,233.0 131.0,236.1 131.4,233.8 131.7,227.9 132.1,231.6 132.5,231.1 132.8,235.0 133.2,234.4 133.5,237.2 133.9,234.4 134.3,235.9 134.6,238.1 135.0,240.9 135.3,239.5 135.7,239.4 136.0,239.4 136.4,240.4 136.8,240.8 137.1,243.9 137.5,243.9 137.8,243.1 138.2,241.9 138.5,242.4 138.9,239.4 139.3,239.6 139.6,239.2 140.0,238.0 140.3,240.3 140.7,240.4 141.1,241.5 141.4,241.7 141.8,243.1 142.1,241.0 142.5,241.5 142.8,243.5 143.2,241.3 143.6,239.3 143.9,239.2 144.3,239.2 144.6,239.6 145.0,239.4 145.4,241.7 145.7,241.8 146.1,238.5 146.4,236.8 146.8,234.3 147.1,235.0 147.5,231.1 147.9,232.9 148.2,234.8 148.6,237.8 148.9,236.5 149.3,237.7 149.7,238.3 150.0,236.6 150.4,237.8 150.7,239.1 151.1,243.5 151.4,244.2 151.8,241.9 152.2,243.1 152.5,244.6 152.9,246.6 153.2,246.2 153.6,246.8 154.0,248.0 154.3,248.3 154.7,248.7 155.0,248.3 155.4,248.5 155.7,251.6 156.1,251.0 156.5,250.0 156.8,249.8 157.2,249.7 157.5,246.1 157.9,246.9 158.3,243.9 158.6,242.8 159.0,242.4 159.3,241.3 159.7,244.2 160.0,244.9 160.4,245.0 160.8,243.8 161.1,244.6 161.5,241.9 161.8,241.0 162.2,240.5 162.6,241.4 162.9,239.8 163.3,239.4 163.6,239.2 164.0,238.9 164.3,240.1 164.7,238.9 165.1,241.8 165.4,243.1 165.8,244.7 166.1,245.5 166.5,247.4 166.9,248.9 167.2,249.7 167.6,247.8 167.9,249.1 168.3,249.0 168.6,250.5 169.0,251.3 169.4,249.9 169.7,251.1 170.1,250.9 170.4,254.0 170.8,256.1 171.2,256.5 171.5,257.8 171.9,259.8 172.2,263.1 172.6,290.6 172.9,287.3 173.3,286.9 173.7,285.3 174.0,282.6 174.4,281.8 174.7,283.6 175.1,286.7 175.5,290.0 175.8,289.8 176.2,292.8 176.5,294.3 176.9,295.3 177.2,291.9 177.6,292.2 178.0,291.8 178.3,290.3 178.7,288.7 179.0,289.8 179.4,291.0 179.8,287.5 180.1,290.4 180.5,292.3 180.8,295.2 181.2,306.9 181.5,306.4 181.9,303.4 182.3,306.7 182.6,305.1 183.0,307.9 183.3,304.5 183.7,304.3 184.1,304.7 184.4,307.8 184.8,309.2 185.1,310.1 185.5,308.7 185.8,308.4 186.2,307.9 186.6,310.5 186.9,310.6 187.3,306.0 187.6,309.0 188.0,313.3 188.4,312.3 188.7,312.6 189.1,314.0 189.4,313.4 189.8,312.8 190.1,316.4 190.5,316.4 190.9,317.5 191.2,316.6 191.6,314.7 191.9,317.0 192.3,312.4 192.7,310.8 193.0,306.4 193.4,300.8 193.7,301.2 194.1,301.5 194.4,293.9 194.8,284.8 195.2,281.7 195.5,281.2 195.9,283.8 196.2,278.2 196.6,273.2 197.0,272.5 197.3,274.4 197.7,273.6 198.0,276.3 198.4,275.4 198.7,275.2 199.1,275.0 199.5,275.0 199.8,273.3 200.2,275.2 200.5,277.6 200.9,281.3 201.2,282.0 201.6,283.7 202.0,283.3 202.3,284.6 202.7,280.5 203.0,275.7 203.4,271.3 203.8,272.1 204.1,272.5 204.5,268.2 204.8,274.9 205.2,272.9 205.5,273.2 205.9,272.6 206.3,273.4 206.6,274.4 207.0,268.4 207.3,266.5 207.7,263.9 208.1,263.0 208.4,262.7 208.8,262.0 209.1,260.3 209.5,259.2 209.8,256.6 210.2,257.0 210.6,254.8 210.9,253.3 211.3,255.8 211.6,253.5 212.0,256.5 212.4,255.8 212.7,256.4 213.1,256.9 213.4,261.4 213.8,259.4 214.1,260.7 214.5,261.9 214.9,263.9 215.2,259.3 215.6,255.4 215.9,254.9 216.3,254.2 216.7,252.8 217.0,252.0 217.4,251.6 217.7,249.9 218.1,253.9 218.4,248.7 218.8,244.3 219.2,235.1 219.5,240.2 219.9,244.0 220.2,244.1 220.6,248.5 221.0,248.5 221.3,256.4 221.7,256.9 222.0,258.0 222.4,255.7 222.7,251.6 223.1,251.1 223.5,256.4 223.8,260.1 224.2,257.5 224.5,265.4 224.9,273.5 225.3,276.4 225.6,283.5 226.0,296.5 226.3,310.6 226.7,293.1 227.0,296.5 227.4,298.9 227.8,280.6 228.1,283.3 228.5,281.0 228.8,284.4 229.2,283.3 229.6,284.2 229.9,292.1 230.3,286.8 230.6,288.6 231.0,284.1 231.3,285.6 231.7,278.6 232.1,276.3 232.4,277.9 232.8,267.7 233.1,273.1 233.5,273.6 233.9,271.0 234.2,271.2 234.6,271.4 234.9,263.5 235.3,263.6 235.6,261.4 236.0,260.3 236.4,264.9 236.7,263.3 237.1,265.2 237.4,267.3 237.8,268.3 238.2,267.4 238.5,263.9 238.9,264.1 239.2,261.3 239.6,260.8 239.9,259.7 240.3,264.1 240.7,263.0 241.0,263.0 241.4,261.1 241.7,261.5 242.1,263.1 242.5,263.6 242.8,263.6 243.2,262.2 243.5,261.1 243.9,262.7 244.2,263.0 244.6,260.7 245.0,263.3 245.3,264.6 245.7,263.1 246.0,262.3 246.4,259.7 246.8,260.7 247.1,250.8 247.5,259.0 247.8,258.5 248.2,257.0 248.5,256.7 248.9,258.4 249.3,256.8 249.6,255.0 250.0,256.9 250.3,257.2 250.7,257.3 251.1,260.4 251.4,264.5 251.8,261.8 252.1,247.9 252.5,249.8 252.8,250.4 253.2,243.8 253.6,245.8 253.9,240.9 254.3,239.0 254.6,236.4 255.0,242.6 255.4,238.7 255.7,223.9 256.1,225.6 256.4,225.8 256.8,226.9 257.1,225.5 257.5,221.0 257.9,224.2 258.2,226.1 258.6,228.1 258.9,232.0 259.3,239.6 259.6,240.7 260.0,242.4 260.4,236.6 260.7,235.0 261.1,235.4 261.4,239.2 261.8,240.9 262.2,239.0 262.5,239.9 262.9,238.3 263.2,234.0 263.6,234.8 263.9,234.5 264.3,225.8 264.7,226.1 265.0,227.7 265.4,225.6 265.7,227.8 266.1,227.9 266.5,228.1 266.8,227.5 267.2,227.8 267.5,229.9 267.9,227.4 268.2,227.3 268.6,229.7 269.0,234.0 269.3,237.1 269.7,233.7 270.0,236.2 270.4,237.3 270.8,233.2 271.1,233.8 271.5,232.3 271.8,233.5 272.2,225.1 272.5,223.2 272.9,226.1 273.3,231.2 273.6,233.3 274.0,231.4 274.3,226.1 274.7,226.1 275.1,223.0 275.4,225.0 275.8,228.9 276.1,223.8 276.5,218.9 276.8,213.8 277.2,216.2 277.6,211.0 277.9,213.2 278.3,214.9 278.6,216.0 279.0,220.1 279.4,220.6 279.7,222.1 280.1,222.5 280.4,227.6 280.8,226.9 281.1,227.5 281.5,229.8 281.9,230.6 282.2,233.3 282.6,232.9 282.9,240.5 283.3,239.1 283.7,233.6 284.0,236.1 284.4,230.7 284.7,233.2 285.1,230.3 285.4,230.1 285.8,225.5 286.2,225.5 286.5,222.8 286.9,219.9 287.2,219.6 287.6,221.6 288.0,220.9 288.3,221.1 288.7,212.8 289.0,206.6 289.4,202.0 289.7,205.4 290.1,207.6 290.5,207.4 290.8,208.2 291.2,208.3 291.5,201.2 291.9,201.7 292.3,196.7 292.6,206.7 293.0,205.2 293.3,207.3 293.7,208.0 294.0,203.9 294.4,205.0 294.8,204.1 295.1,204.1 295.5,201.9 295.8,197.1 296.2,196.7 296.6,196.8 296.9,200.7 297.3,201.4 297.6,200.3 298.0,199.9 298.3,202.3 298.7,200.4 299.1,196.9 299.4,192.1 299.8,190.3 300.1,190.6 300.5,189.1 300.9,185.0 301.2,184.8 301.6,188.0 301.9,183.5 302.3,185.2 302.6,186.4 303.0,183.2 303.4,185.3 303.7,181.6 304.1,184.2 304.4,188.1 304.8,190.1 305.2,186.9 305.5,185.5 305.9,182.2 306.2,181.3 306.6,180.5 306.9,180.2 307.3,181.2 307.7,181.7 308.0,183.3 308.4,182.8 308.7,189.5 309.1,192.9 309.5,196.8 309.8,194.4 310.2,200.0 310.5,200.5 310.9,197.5 311.2,202.3 311.6,200.1 312.0,197.0 312.3,199.9 312.7,203.6 313.0,203.6 313.4,205.5 313.8,206.0 314.1,202.5 314.5,201.6 314.8,197.8 315.2,198.4 315.5,198.0 315.9,201.1 316.3,200.2 316.6,205.4 317.0,202.7 317.3,201.8 317.7,203.6 318.0,207.8 318.4,205.5 318.8,204.1 319.1,210.0 319.5,206.2 319.8,202.8 320.2,204.1 320.6,204.3 320.9,205.3 321.3,207.3 321.6,205.6 322.0,207.0 322.3,208.5 322.7,208.4 323.1,208.6 323.4,210.6 323.8,207.2 324.1,212.4 324.5,211.7 324.9,209.2 325.2,208.4 325.6,205.4 325.9,202.0 326.3,201.8 326.6,201.5 327.0,203.7 327.4,204.8 327.7,207.0 328.1,210.5 328.4,213.8 328.8,212.5 329.2,210.3 329.5,217.5 329.9,215.9 330.2,219.5 330.6,220.8 330.9,217.0 331.3,218.7 331.7,216.7 332.0,215.6 332.4,213.2 332.7,212.4 333.1,213.3 333.5,214.0 333.8,210.7 334.2,209.1 334.5,208.3 334.9,207.8 335.2,207.4 335.6,207.2 336.0,207.5 336.3,205.4 336.7,203.9 337.0,206.0 337.4,206.4 337.8,205.6 338.1,206.1 338.5,208.1 338.8,208.2 339.2,206.9 339.5,207.4 339.9,205.8 340.3,203.7 340.6,201.3 341.0,202.1 341.3,202.2 341.7,200.4 342.1,202.6 342.4,203.1 342.8,203.6 343.1,204.1 343.5,204.7 343.8,209.7 344.2,210.4 344.6,210.6 344.9,211.2 345.3,212.9 345.6,215.1 346.0,216.2 346.4,217.1 346.7,217.1 347.1,215.6 347.4,211.8 347.8,213.4 348.1,214.2 348.5,214.9 348.9,215.9 349.2,212.8 349.6,213.8 349.9,213.5 350.3,214.5 350.7,214.3 351.0,216.2 351.4,214.5 351.7,213.7 352.1,210.6 352.4,210.6 352.8,213.1 353.2,212.3 353.5,214.8 353.9,217.1 354.2,217.0 354.6,216.6 355.0,218.8 355.3,217.7 355.7,215.8 356.0,214.8 356.4,214.7 356.7,215.2 357.1,214.3 357.5,214.2 357.8,214.3 358.2,213.2 358.5,213.0 358.9,213.3 359.3,214.1 359.6,216.5 360.0,217.0 360.3,218.7 360.7,217.2 361.0,218.6 361.4,219.4 361.8,220.3 362.1,218.8 362.5,221.0 362.8,221.5 363.2,219.5 363.6,218.6 363.9,220.2 364.3,217.5 364.6,221.4 365.0,221.5 365.3,221.0 365.7,221.7 366.1,226.1 366.4,221.8 366.8,221.1 367.1,219.9 367.5,219.9 367.9,218.1 368.2,215.8 368.6,212.8 368.9,213.4 369.3,215.0 369.6,214.7 370.0,213.8 370.4,215.5 370.7,214.8 371.1,217.3 371.4,201.6 371.8,200.3 372.2,201.8 372.5,198.9 372.9,195.6 373.2,193.9 373.6,194.2 373.9,194.5 374.3,197.4 374.7,194.4 375.0,189.2 375.4,191.0 375.7,192.9 376.1,191.6 376.5,191.2 376.8,197.0 377.2,196.1 377.5,195.5 377.9,197.9 378.2,197.7 378.6,199.7 379.0,200.1 379.3,200.5 379.7,202.3 380.0,202.1 380.4,202.0 380.7,205.4 381.1,204.3 381.5,207.2 381.8,207.8 382.2,205.3 382.5,206.1 382.9,208.5 383.3,209.4 383.6,211.0 384.0,214.2 384.3,213.0 384.7,214.5 385.0,213.7 385.4,217.4 385.8,213.8 386.1,213.9 386.5,213.0 386.8,213.0 387.2,214.3 387.6,214.9 387.9,213.3 388.3,213.2 388.6,212.7 389.0,214.0 389.3,217.2 389.7,219.1 390.1,219.6 390.4,219.9 390.8,218.6 391.1,219.8 391.5,222.1 391.9,222.6 392.2,225.7 392.6,226.3 392.9,226.8 393.3,230.1 393.6,230.0 394.0,231.3 394.4,233.7 394.7,238.3 395.1,236.9 395.4,231.7 395.8,231.3 396.2,232.3 396.5,235.1 396.9,234.5 397.2,234.0 397.6,232.5 397.9,228.7 398.3,230.4 398.7,226.1 399.0,224.3 399.4,217.9 399.7,218.3 400.1,220.5 400.5,222.0 400.8,224.3 401.2,224.4 401.5,218.0 401.9,216.9 402.2,212.6 402.6,211.8 403.0,212.1 403.3,213.7 403.7,215.1 404.0,214.6 404.4,209.4 404.8,208.9 405.1,209.9 405.5,211.1 405.8,216.1 406.2,214.8 406.5,212.2 406.9,209.8 407.3,208.8 407.6,210.6 408.0,209.2 408.3,208.7 408.7,206.8 409.1,208.3 409.4,208.4 409.8,205.7 410.1,207.6 410.5,208.4 410.8,207.6 411.2,204.3 411.6,206.5 411.9,208.8 412.3,210.5 412.6,211.8 413.0,210.9 413.4,212.2 413.7,210.2 414.1,212.0 414.4,212.8 414.8,210.2 415.1,212.0 415.5,218.2 415.9,220.1 416.2,218.6 416.6,219.2 416.9,219.0 417.3,219.0 417.7,221.4 418.0,220.9 418.4,220.4 418.7,217.0 419.1,220.4 419.4,231.6 419.8,236.9 420.2,238.0 420.5,242.5 420.9,241.6 421.2,235.8 421.6,235.2 422.0,232.6 422.3,235.0 422.7,230.1 423.0,229.9 423.4,228.6 423.7,232.0 424.1,230.0 424.5,227.1 424.8,222.2 425.2,224.3 425.5,225.8 425.9,221.5 426.3,222.4 426.6,220.6 427.0,219.8 427.3,221.1 427.7,223.4 428.0,225.6 428.4,230.0 428.8,229.9 429.1,226.8 429.5,228.8 429.8,225.8 430.2,225.0 430.6,226.2 430.9,222.7 431.3,222.7 431.6,222.3 432.0,225.5 432.3,227.8 432.7,227.3 433.1,226.1 433.4,225.2 433.8,224.9 434.1,221.9 434.5,220.5 434.9,223.3 435.2,224.4 435.6,224.0 435.9,225.6 436.3,228.6 436.6,226.3 437.0,224.5 437.4,222.8 437.7,224.0 438.1,227.2 438.4,225.6 438.8,227.4 439.1,225.2 439.5,217.3 439.9,217.2 440.2,216.8 440.6,214.4 440.9,214.2 441.3,211.1 441.7,208.5 442.0,206.4 442.4,207.2 442.7,198.8 443.1,199.0 443.4,196.9 443.8,197.0 444.2,203.2 444.5,203.6 444.9,203.7 445.2,205.6 445.6,207.3 446.0,208.5 446.3,205.4 446.7,202.2 447.0,204.3 447.4,205.2 447.7,205.9 448.1,205.9 448.5,207.4 448.8,209.4 449.2,208.6 449.5,205.8 449.9,205.2 450.3,204.5 450.6,204.3 451.0,206.2 451.3,203.4 451.7,205.0 452.0,206.3 452.4,206.0 452.8,208.9 453.1,208.6 453.5,211.1 453.8,214.5 454.2,215.9 454.6,214.8 454.9,213.8 455.3,217.3 455.6,217.8 456.0,215.9 456.3,213.2 456.7,216.4 457.1,220.1 457.4,223.1 457.8,224.4 458.1,224.4 458.5,226.8 458.9,225.9 459.2,227.5 459.6,226.4 459.9,225.3 460.3,227.2 460.6,228.0 461.0,226.7 461.4,227.0 461.7,223.0 462.1,221.8 462.4,221.4 462.8,221.5 463.2,221.0 463.5,222.2 463.9,224.8 464.2,225.1 464.6,219.7 464.9,219.2 465.3,219.0 465.7,222.2 466.0,213.8 466.4,213.4 466.7,214.0 467.1,213.0 467.5,214.7 467.8,215.0 468.2,215.2 468.5,215.7 468.9,214.2 469.2,212.3 469.6,212.8 470.0,215.2 470.3,216.1 470.7,214.6 471.0,214.1 471.4,213.1 471.8,215.3 472.1,217.4 472.5,217.6 472.8,216.4 473.2,216.6 473.5,213.4 473.9,213.1 474.3,210.2 474.6,212.0 475.0,212.9 475.3,215.8 475.7,216.4 476.1,216.6 476.4,218.9 476.8,221.5 477.1,224.0 477.5,223.5 477.8,221.1 478.2,220.0 478.6,219.8 478.9,217.4 479.3,219.9 479.6,220.2 480.0,218.0 480.4,213.0 480.7,210.7 481.1,209.5 481.4,210.4 481.8,208.9 482.1,209.1 482.5,211.5 482.9,208.6 483.2,206.0 483.6,206.7 483.9,206.1 484.3,207.1 484.7,206.7 485.0,208.3 485.4,206.8 485.7,205.8 486.1,205.4 486.4,207.3 486.8,208.4 487.2,208.1 487.5,208.9 487.9,209.4 488.2,208.6 488.6,210.2 489.0,210.4 489.3,207.9 489.7,210.0 490.0,209.8 490.4,212.2 490.7,212.1 491.1,212.2 491.5,214.6 491.8,213.9 492.2,213.7 492.5,213.2 492.9,213.7 493.3,211.5 493.6,211.3 494.0,211.4 494.3,212.2 494.7,214.8 495.0,217.4 495.4,217.9 495.8,217.4 496.1,220.5 496.5,222.9 496.8,225.4 497.2,225.2 497.5,222.1 497.9,223.6 498.3,222.1 498.6,222.2 499.0,222.9 499.3,222.7 499.7,220.3 500.1,218.9 500.4,217.9 500.8,217.3 501.1,220.1 501.5,222.2 501.8,223.6 502.2,221.8 502.6,220.4 502.9,221.7 503.3,221.7 503.6,222.3 504.0,221.2 504.4,222.1 504.7,221.8 505.1,222.6 505.4,223.4 505.8,223.3 506.1,225.7 506.5,227.4 506.9,226.7 507.2,226.8 507.6,227.2 507.9,228.9 508.3,227.3 508.7,228.4 509.0,225.8 509.4,225.9 509.7,226.9 510.1,231.3 510.4,238.2 510.8,240.2 511.2,238.6 511.5,238.6 511.9,236.2 512.2,236.7 512.6,235.6 513.0,232.7 513.3,232.6 513.7,236.1 514.0,237.0 514.4,235.4 514.7,235.6 515.1,236.4 515.5,235.6 515.8,233.9 516.2,234.8 516.5,231.6 516.9,229.5 517.3,231.3 517.6,231.5 518.0,226.2 518.3,223.9 518.7,226.2 519.0,224.8 519.4,225.3 519.8,226.2 520.1,227.3 520.5,228.1 520.8,230.6 521.2,230.3 521.6,228.8 521.9,228.2 522.3,228.0 522.6,227.7 523.0,227.8 523.3,228.0 523.7,230.2 524.1,226.7 524.4,224.7 524.8,223.9 525.1,224.1 525.5,223.1 525.9,224.1 526.2,221.8 526.6,222.4 526.9,223.6 527.3,224.7 527.6,224.2 528.0,223.5 528.4,224.5 528.7,223.3 529.1,225.0 529.4,224.7 529.8,223.3 530.2,223.9 530.5,226.5 530.9,227.1 531.2,229.2 531.6,229.7 531.9,229.5 532.3,230.1 532.7,232.1 533.0,231.8 533.4,230.5 533.7,232.6 534.1,233.3 534.5,233.8 534.8,233.7 535.2,233.9 535.5,234.5 535.9,233.1 536.2,234.2 536.6,233.8 537.0,232.4 537.3,230.5 537.7,231.5 538.0,232.0 538.4,231.5 538.8,231.7 539.1,231.7 539.5,231.8 539.8,233.0 540.2,231.7 540.5,230.7 540.9,231.9 541.3,230.2 541.6,231.6 542.0,233.8 542.3,233.1 542.7,234.0 543.1,236.2 543.4,237.0 543.8,236.4 544.1,237.8 544.5,237.5 544.8,238.2 545.2,238.1 545.6,242.3 545.9,245.0 546.3,245.7 546.6,248.5 547.0,246.8 547.4,249.4 547.7,245.3 548.1,243.7 548.4,245.5 548.8,245.5 549.1,241.5 549.5,241.3 549.9,243.0 550.2,243.3 550.6,246.0 550.9,246.2 551.3,244.1 551.7,245.8 552.0,248.0 552.4,253.2 552.7,252.0 553.1,250.1 553.4,252.0 553.8,248.5 554.2,248.3 554.5,251.6 554.9,252.4 555.2,251.9 555.6,248.0 556.0,249.5 556.3,249.2 556.7,241.6 557.0,240.9 557.4,241.3 557.7,240.8 558.1,239.6 558.5,239.8 558.8,238.6 559.2,238.3 559.5,239.0 559.9,237.0 560.2,234.3 560.6,233.9 561.0,230.8 561.3,230.3 561.7,232.3 562.0,234.7 562.4,235.8 562.8,235.7 563.1,237.2 563.5,239.6 563.8,237.0 564.2,234.0 564.5,234.7 564.9,236.4 565.3,234.3 565.6,236.0 566.0,232.8 566.3,232.4 566.7,231.7 567.1,231.2 567.4,231.2 567.8,232.7 568.1,232.8 568.5,235.3 568.8,235.7 569.2,236.2 569.6,235.8 569.9,237.9 570.3,237.3 570.6,239.2 571.0,240.1 571.4,243.7 571.7,246.2 572.1,246.2 572.4,245.6 572.8,242.8 573.1,243.3 573.5,243.6 573.9,241.1 574.2,241.1 574.6,243.5 574.9,245.8 575.3,245.9 575.7,243.0 576.0,244.7 576.4,247.2 576.7,246.0 577.1,246.0 577.4,245.1 577.8,245.0 578.2,241.7 578.5,246.2 578.9,244.3 579.2,243.2 579.6,252.7 580.0,257.8 580.3,257.5 580.7,259.6 581.0,259.7 581.4,259.0 581.7,255.6 582.1,257.4 582.5,258.6 582.8,256.9 583.2,257.1 583.5,256.7 583.9,254.4 584.3,250.0 584.6,250.6 585.0,249.9 585.3,250.6 585.7,251.9 586.0,257.1 586.4,255.9 586.8,253.2 587.1,254.8 587.5,254.2 587.8,253.0 588.2,252.7 588.6,251.9 588.9,248.3 589.3,247.2 589.6,246.3 590.0,244.2 590.3,244.1 590.7,244.3 591.1,243.9 591.4,244.3 591.8,244.4 592.1,243.5 592.5,245.5 592.9,245.7 593.2,248.5 593.6,250.9 593.9,252.7 594.3,253.1 594.6,253.3 595.0,254.0 595.4,255.6 595.7,252.9 596.1,253.9 596.4,254.4 596.8,249.2 597.2,247.4 597.5,246.8 597.9,246.0 598.2,245.4 598.6,243.9 598.9,242.2 599.3,244.0 599.7,243.9 600.0,244.1 600.4,246.6 600.7,244.9 601.1,241.1 601.5,239.6 601.8,242.1 602.2,241.7 602.5,239.4 602.9,231.6 603.2,225.8 603.6,229.6 604.0,227.9 604.3,227.2 604.7,230.3 605.0,226.8 605.4,227.8 605.8,229.6 606.1,231.9 606.5,229.8 606.8,230.8 607.2,232.5 607.5,231.6 607.9,232.8 608.3,231.0 608.6,231.7 609.0,234.3 609.3,235.6 609.7,236.7 610.1,235.4 610.4,239.8 610.8,238.2 611.1,237.9 611.5,240.6 611.8,238.9 612.2,242.1 612.6,245.7 612.9,248.2 613.3,243.7 613.6,242.4 614.0,241.4 614.4,242.0 614.7,239.9 615.1,237.7 615.4,235.5 615.8,233.5 616.1,231.7 616.5,231.1 616.9,233.2 617.2,234.8 617.6,234.5 617.9,231.6 618.3,233.7 618.6,233.7 619.0,233.6 619.4,236.2 619.7,238.8 620.1,237.1 620.4,241.0 620.8,243.9 621.2,247.8 621.5,249.0 621.9,252.6 622.2,249.5 622.6,245.2 622.9,246.7 623.3,243.6 623.7,245.5 624.0,243.1 624.4,244.7 624.7,243.9 625.1,245.1 625.5,244.8 625.8,246.3 626.2,243.6 626.5,243.6 626.9,244.0 627.2,245.9 627.6,243.5 628.0,243.4 628.3,247.3 628.7,246.6 629.0,247.2 629.4,252.3 629.8,253.3 630.1,251.3 630.5,249.0 630.8,250.2 631.2,251.1 631.5,253.2 631.9,251.6 632.3,251.4 632.6,250.9 633.0,247.8 633.3,248.0 633.7,249.5 634.1,251.2 634.4,250.1 634.8,248.7 635.1,249.4 635.5,251.1 635.8,248.6 636.2,249.0 636.6,248.1 636.9,250.3 637.3,250.9 637.6,249.4 638.0,251.0 638.4,248.5 638.7,249.9 639.1,249.9 639.4,250.1 639.8,251.3 640.1,251.3 640.5,252.7 640.9,253.4 641.2,257.1 641.6,256.3 641.9,254.6 642.3,251.3 642.7,251.4 643.0,251.6 643.4,254.1 643.7,252.4 644.1,248.2 644.4,245.6 644.8,247.5 645.2,248.9 645.5,238.4 645.9,236.8 646.2,237.1 646.6,236.8 647.0,238.0 647.3,215.0 647.7,211.2 648.0,209.2 648.4,207.1 648.7,208.8 649.1,205.2 649.5,204.8 649.8,204.4 650.2,202.5 650.5,202.0 650.9,203.0 651.3,204.5 651.6,204.2 652.0,204.8 652.3,202.7 652.7,203.6 653.0,209.8 653.4,209.5 653.8,207.1 654.1,205.5 654.5,204.4 654.8,207.1 655.2,209.8 655.6,211.1 655.9,208.4 656.3,208.3 656.6,208.0 657.0,208.0 657.3,211.0 657.7,211.9 658.1,212.5 658.4,210.0 658.8,208.0 659.1,205.7 659.5,206.6 659.9,207.9 660.2,209.6 660.6,210.7 660.9,212.3 661.3,211.6 661.6,209.6 662.0,208.9 662.4,205.2 662.7,205.6 663.1,201.6 663.4,198.0 663.8,212.1 664.2,216.8 664.5,212.2 664.9,209.7 665.2,209.6 665.6,209.6 665.9,210.6 666.3,208.2 666.7,207.1 667.0,207.1 667.4,205.9 667.7,208.6 668.1,209.8 668.5,207.3 668.8,205.9 669.2,204.7 669.5,203.8 669.9,204.7 670.2,208.3 670.6,211.5 671.0,213.1 671.3,210.0 671.7,210.7 672.0,208.7 672.4,209.9 672.8,211.5 673.1,208.4 673.5,212.1 673.8,210.6 674.2,211.6 674.5,206.7 674.9,207.6 675.3,208.8 675.6,207.7 676.0,208.3 676.3,209.1 676.7,208.1 677.0,205.9 677.4,208.8 677.8,210.7 678.1,210.6 678.5,212.4 678.8,213.0 679.2,216.9 679.6,218.6 679.9,214.8 680.3,215.0 680.6,219.4 681.0,227.0 681.3,225.1 681.7,225.7 682.1,223.3 682.4,226.2 682.8,224.0 683.1,223.2 683.5,222.1 683.9,223.4 684.2,225.8 684.6,227.6 684.9,226.1 685.3,225.0 685.6,222.6 686.0,220.5 686.4,219.7 686.7,220.5 687.1,222.1 687.4,226.3 687.8,227.4 688.2,227.8 688.5,227.8 688.9,227.2 689.2,225.1 689.6,224.0 689.9,220.5 690.3,219.9 690.7,217.1 691.0,218.2 691.4,217.5 691.7,219.7 692.1,220.0 692.5,222.4 692.8,221.9 693.2,219.0 693.5,218.3 693.9,218.8 694.2,221.4 694.6,221.7 695.0,222.2 695.3,216.7 695.7,217.1 696.0,216.6 696.4,213.5 696.8,214.3 697.1,213.8 697.5,211.8 697.8,212.4 698.2,213.1 698.5,211.0 698.9,214.5 699.3,214.1 699.6,213.6 700.0,211.8 700.3,210.9 700.7,213.9 701.1,212.3 701.4,212.6 701.8,208.9 702.1,212.7 702.5,211.8 702.8,208.2 703.2,208.0 703.6,208.1 703.9,199.8 704.3,205.0 704.6,205.9 705.0,204.8 705.4,206.1 705.7,207.3 706.1,208.1 706.4,206.7 706.8,206.0 707.1,204.9 707.5,203.1 707.9,192.8 708.2,190.9 708.6,190.3 708.9,190.4 709.3,186.4 709.7,186.7 710.0,187.6 710.4,188.5 710.7,186.4 711.1,184.8 711.4,187.5 711.8,187.5 712.2,186.4 712.5,181.9 712.9,178.6 713.2,177.4 713.6,177.2 714.0,175.9 714.3,179.7 714.7,178.1 715.0,177.7 715.4,173.8 715.7,173.0 716.1,172.4 716.5,171.5 716.8,167.8 717.2,169.5 717.5,171.0 717.9,169.9 718.3,167.7 718.6,165.8 719.0,169.0 719.3,167.6 719.7,160.9 720.0,157.6 720.4,157.6 720.8,157.8 721.1,153.4 721.5,149.2 721.8,148.4 722.2,146.1 722.6,145.3 722.9,150.7 723.3,156.2 723.6,156.6 724.0,155.4 724.3,153.2 724.7,146.3 725.1,143.1 725.4,144.3 725.8,143.0 726.1,144.9 726.5,145.4 726.9,144.5 727.2,145.1 727.6,144.9 727.9,133.3 728.3,131.4 728.6,130.4 729.0,131.0 729.4,132.6 729.7,133.7 730.1,135.8 730.4,140.8 730.8,137.3 731.2,133.1 731.5,133.9 731.9,131.8 732.2,123.6 732.6,125.8 732.9,124.1 733.3,120.5 733.7,125.3 734.0,120.8 734.4,122.4 734.7,123.0 735.1,121.6 735.5,126.1 735.8,126.2 736.2,136.2 736.5,132.4 736.9,134.6 737.2,135.6 737.6,133.7 738.0,141.4 738.3,143.2 738.7,140.2 739.0,140.9 739.4,137.4 739.7,133.6 740.1,138.5 740.5,135.5 740.8,136.7 741.2,129.7 741.5,129.3 741.9,132.4 742.3,133.5 742.6,137.3 743.0,133.7 743.3,140.5 743.7,143.4 744.0,144.5 744.4,150.9 744.8,148.9 745.1,143.8 745.5,142.0 745.8,142.4 746.2,142.2 746.6,143.1 746.9,144.1 747.3,144.7 747.6,144.9 748.0,138.6 748.3,136.1 748.7,136.5 749.1,134.1 749.4,128.2 749.8,123.4 750.1,122.4 750.5,121.4 750.9,123.7 751.2,121.6 751.6,118.0 751.9,117.3 752.3,117.7 752.6,119.3 753.0,119.6 753.4,121.4 753.7,117.1 754.1,113.0 754.4,115.8 754.8,117.4 755.2,115.9 755.5,112.0 755.9,118.8 756.2,122.5 756.6,120.2 756.9,116.2 757.3,118.3 757.7,116.1 758.0,121.6 758.4,121.4 758.7,119.4 759.1,115.5 759.5,115.0 759.8,118.7 760.2,114.6 760.5,112.8 760.9,110.3 761.2,112.1 761.6,116.0 762.0,112.8 762.3,116.9 762.7,113.2 763.0,114.7 763.4,123.0 763.8,117.4 764.1,116.6 764.5,114.9 764.8,115.6 765.2,116.4 765.5,116.7 765.9,114.7 766.3,115.7 766.6,112.6 767.0,117.8 767.3,120.8 767.7,119.2 768.1,117.8 768.4,123.6 768.8,123.7 769.1,129.1 769.5,122.9 769.8,124.0 770.2,122.9 770.6,123.1 770.9,122.8 771.3,118.9 771.6,114.6 772.0,112.6 772.4,109.8 772.7,99.1 773.1,100.3 773.4,101.2 773.8,101.7 774.1,99.3 774.5,98.7 774.9,96.7 775.2,95.1 775.6,96.4 775.9,95.7 776.3,97.5 776.7,85.5 777.0,86.3 777.4,85.1 777.7,85.4 778.1,84.3 778.4,86.0 778.8,90.9 779.2,90.4 779.5,86.2 779.9,86.8 780.2,85.2 780.6,83.0 781.0,87.7 781.3,90.9 781.7,90.4 782.0,86.5 782.4,82.2 782.7,83.1 783.1,83.1 783.5,84.5 783.8,85.2 784.2,86.1 784.5,88.1 784.9,83.0 785.3,85.7 785.6,85.0 786.0,89.9 786.3,91.8 786.7,90.7 787.0,95.8 787.4,92.8 787.8,90.6 788.1,87.9 788.5,86.8 788.8,86.1 789.2,79.0 789.6,76.5 789.9,80.0 790.3,79.4 790.6,82.0 791.0,92.2 791.3,87.8 791.7,83.1 792.1,85.3 792.4,88.6 792.8,84.3 793.1,88.8 793.5,91.7 793.9,91.2 794.2,93.6 794.6,95.9 794.9,93.9 795.3,94.7 795.6,102.0 796.0,98.2"/>
<text x="78" y="392" font-size="11" fill="#16a34a">Total return +792.2%</text><text x="268" y="392" font-size="11" fill="#2563eb">Price-only +792.2%</text><text x="78" y="362" font-size="11" text-anchor="middle" fill="#64748b">2018-07</text><text x="258" y="362" font-size="11" text-anchor="middle" fill="#64748b">2020-07</text><text x="437" y="362" font-size="11" text-anchor="middle" fill="#64748b">2022-07</text><text x="616" y="362" font-size="11" text-anchor="middle" fill="#64748b">2024-07</text><text x="796" y="362" font-size="11" text-anchor="middle" fill="#64748b">2026-07</text></svg>