<svg xmlns="http://www.w3.org/2000/svg" width="720" height="360" viewBox="0 0 720 360">
  <rect width="720" height="360" fill="#fafafa"/>
  <text x="56" y="22" font-size="13" font-family="sans-serif" fill="#222">PSK.TO total return (rebased 100) · cumulative distributions $0.00/sh · market cap n/a</text>
  <line x1="56" y1="308" x2="696" y2="308" stroke="#ccc"/>
  <line x1="56" y1="48" x2="56" y2="308" stroke="#ccc"/>
  <polyline fill="none" stroke="#2563eb" stroke-width="2" points="56.0,99.7 56.2,104.4 56.4,105.7 56.6,104.1 56.8,103.1 57.1,104.0 57.3,103.3 57.5,93.4 57.7,84.9 57.9,81.5 58.1,80.9 58.3,85.3 58.5,84.4 58.8,86.5 59.0,90.0 59.2,89.3 59.4,88.6 59.6,90.0 59.8,91.9 60.0,92.2 60.2,92.1 60.5,89.9 60.7,88.4 60.9,87.2 61.1,81.5 61.3,75.7 61.5,81.8 61.7,85.7 61.9,85.7 62.1,88.2 62.4,88.2 62.6,85.6 62.8,87.2 63.0,88.2 63.2,92.6 63.4,92.4 63.6,92.3 63.8,80.7 64.1,80.0 64.3,72.0 64.5,65.9 64.7,66.6 64.9,75.4 65.1,76.2 65.3,84.7 65.5,75.3 65.7,79.1 66.0,80.4 66.2,80.5 66.4,80.9 66.6,78.1 66.8,81.5 67.0,81.8 67.2,83.4 67.4,85.0 67.7,85.4 67.9,83.2 68.1,83.4 68.3,80.8 68.5,82.6 68.7,81.2 68.9,80.9 69.1,80.3 69.4,84.5 69.6,84.0 69.8,87.3 70.0,86.3 70.2,89.2 70.4,89.0 70.6,92.9 70.8,103.5 71.0,107.0 71.3,105.5 71.5,106.3 71.7,108.5 71.9,107.2 72.1,107.9 72.3,106.2 72.5,105.7 72.7,113.6 73.0,112.7 73.2,115.1 73.4,115.4 73.6,114.4 73.8,111.4 74.0,110.7 74.2,115.1 74.4,114.6 74.6,113.6 74.9,112.7 75.1,114.2 75.3,115.5 75.5,119.1 75.7,123.8 75.9,132.3 76.1,132.7 76.3,123.5 76.6,122.3 76.8,121.2 77.0,115.4 77.2,116.7 77.4,111.6 77.6,111.3 77.8,115.9 78.0,112.0 78.3,111.0 78.5,113.0 78.7,114.1 78.9,114.6 79.1,119.7 79.3,108.9 79.5,105.0 79.7,104.4 79.9,106.0 80.2,104.4 80.4,103.3 80.6,110.0 80.8,108.0 81.0,106.9 81.2,109.4 81.4,110.0 81.6,103.5 81.9,100.6 82.1,102.8 82.3,97.4 82.5,102.8 82.7,112.9 82.9,115.9 83.1,121.4 83.3,118.5 83.5,110.0 83.8,114.7 84.0,115.4 84.2,132.2 84.4,131.0 84.6,143.8 84.8,143.3 85.0,148.6 85.2,146.1 85.5,142.4 85.7,130.4 85.9,124.8 86.1,128.8 86.3,133.7 86.5,126.3 86.7,127.0 86.9,125.7 87.2,133.6 87.4,139.8 87.6,141.1 87.8,144.3 88.0,147.1 88.2,146.1 88.4,146.5 88.6,148.3 88.8,167.0 89.1,168.2 89.3,167.4 89.5,176.5 89.7,168.3 89.9,168.1 90.1,179.9 90.3,179.7 90.5,178.3 90.8,171.6 91.0,166.5 91.2,165.5 91.4,171.5 91.6,168.7 91.8,160.0 92.0,157.5 92.2,135.5 92.5,142.6 92.7,143.6 92.9,149.8 93.1,153.2 93.3,160.1 93.5,154.7 93.7,152.7 93.9,143.2 94.1,144.5 94.4,149.0 94.6,142.9 94.8,145.4 95.0,149.4 95.2,138.6 95.4,135.5 95.6,139.7 95.8,133.4 96.1,138.1 96.3,134.4 96.5,133.6 96.7,135.6 96.9,141.3 97.1,144.8 97.3,149.8 97.5,147.1 97.7,153.3 98.0,154.3 98.2,152.1 98.4,148.3 98.6,141.2 98.8,147.7 99.0,145.8 99.2,145.3 99.4,145.8 99.7,145.4 99.9,145.4 100.1,144.9 100.3,146.2 100.5,144.3 100.7,138.7 100.9,134.2 101.1,126.6 101.4,126.0 101.6,129.8 101.8,130.2 102.0,126.1 102.2,121.6 102.4,118.6 102.6,120.0 102.8,123.5 103.0,124.2 103.3,125.0 103.5,130.8 103.7,130.5 103.9,129.7 104.1,133.0 104.3,135.6 104.5,135.4 104.7,126.8 105.0,124.0 105.2,126.1 105.4,126.4 105.6,129.9 105.8,124.3 106.0,126.0 106.2,122.5 106.4,121.6 106.6,121.3 106.9,123.8 107.1,128.3 107.3,125.8 107.5,128.1 107.7,127.3 107.9,125.8 108.1,125.3 108.3,125.0 108.6,126.2 108.8,126.8 109.0,129.2 109.2,122.3 109.4,121.0 109.6,122.2 109.8,125.4 110.0,131.7 110.3,130.0 110.5,130.0 110.7,130.5 110.9,126.5 111.1,130.7 111.3,134.2 111.5,131.0 111.7,133.0 111.9,130.7 112.2,132.8 112.4,133.6 112.6,130.3 112.8,130.2 113.0,128.2 113.2,131.4 113.4,133.5 113.6,136.4 113.9,134.1 114.1,137.9 114.3,137.9 114.5,142.1 114.7,140.4 114.9,143.6 115.1,145.1 115.3,148.1 115.5,148.5 115.8,144.6 116.0,149.0 116.2,149.3 116.4,150.7 116.6,156.0 116.8,154.7 117.0,154.5 117.2,156.5 117.5,159.5 117.7,167.6 117.9,164.4 118.1,159.3 118.3,159.5 118.5,163.3 118.7,167.0 118.9,166.8 119.2,165.8 119.4,167.3 119.6,161.8 119.8,162.1 120.0,160.2 120.2,165.5 120.4,167.3 120.6,171.5 120.8,171.5 121.1,178.3 121.3,179.5 121.5,181.0 121.7,186.3 121.9,183.9 122.1,179.1 122.3,170.1 122.5,163.1 122.8,158.9 123.0,165.5 123.2,173.1 123.4,169.4 123.6,169.4 123.8,168.6 124.0,176.8 124.2,174.3 124.5,181.0 124.7,179.2 124.9,175.3 125.1,167.9 125.3,163.0 125.5,169.9 125.7,166.4 125.9,166.4 126.1,167.7 126.4,169.2 126.6,168.3 126.8,179.3 127.0,174.7 127.2,172.6 127.4,172.7 127.6,169.1 127.8,159.6 128.1,155.6 128.3,150.5 128.5,150.0 128.7,156.0 128.9,158.7 129.1,156.5 129.3,154.8 129.5,162.6 129.7,168.4 130.0,169.6 130.2,172.6 130.4,167.4 130.6,169.4 130.8,173.0 131.0,178.5 131.2,173.6 131.4,173.8 131.7,170.3 131.9,169.2 132.1,166.8 132.3,166.8 132.5,166.1 132.7,168.6 132.9,167.9 133.1,168.1 133.4,170.8 133.6,173.8 133.8,174.3 134.0,167.3 134.2,171.9 134.4,169.7 134.6,167.9 134.8,170.6 135.0,170.0 135.3,169.3 135.5,170.0 135.7,170.0 135.9,172.0 136.1,170.8 136.3,169.9 136.5,174.5 136.7,178.8 137.0,184.2 137.2,192.1 137.4,187.3 137.6,187.6 137.8,185.9 138.0,191.8 138.2,196.2 138.4,192.7 138.6,192.3 138.9,197.4 139.1,197.1 139.3,193.6 139.5,196.0 139.7,187.1 139.9,188.4 140.1,190.3 140.3,193.9 140.6,194.2 140.8,191.6 141.0,190.8 141.2,197.8 141.4,207.3 141.6,206.7 141.8,211.1 142.0,212.5 142.3,208.9 142.5,204.4 142.7,206.2 142.9,207.4 143.1,209.3 143.3,217.8 143.5,216.9 143.7,214.9 143.9,218.6 144.2,215.3 144.4,216.8 144.6,210.8 144.8,206.6 145.0,213.4 145.2,214.9 145.4,210.1 145.6,206.3 145.9,209.6 146.1,210.1 146.3,211.2 146.5,211.9 146.7,211.9 146.9,210.9 147.1,208.8 147.3,201.7 147.5,205.3 147.8,206.9 148.0,203.0 148.2,205.0 148.4,203.8 148.6,202.5 148.8,197.6 149.0,193.5 149.2,191.9 149.5,186.4 149.7,181.8 149.9,177.3 150.1,170.0 150.3,180.0 150.5,180.1 150.7,178.8 150.9,176.4 151.2,179.2 151.4,178.5 151.6,177.7 151.8,173.8 152.0,168.9 152.2,169.3 152.4,172.2 152.6,177.3 152.8,174.5 153.1,177.6 153.3,178.6 153.5,179.2 153.7,177.2 153.9,180.8 154.1,187.1 154.3,187.4 154.5,185.6 154.8,189.3 155.0,186.3 155.2,187.9 155.4,180.8 155.6,180.6 155.8,179.9 156.0,181.8 156.2,182.5 156.5,174.7 156.7,168.5 156.9,170.1 157.1,172.3 157.3,174.0 157.5,173.9 157.7,165.9 157.9,165.3 158.1,166.0 158.4,173.4 158.6,175.8 158.8,178.8 159.0,177.2 159.2,176.3 159.4,182.3 159.6,179.2 159.8,177.7 160.1,179.1 160.3,181.2 160.5,175.5 160.7,171.5 160.9,174.1 161.1,173.7 161.3,173.6 161.5,171.8 161.7,169.2 162.0,170.8 162.2,173.1 162.4,174.5 162.6,172.5 162.8,176.1 163.0,176.7 163.2,178.3 163.4,175.4 163.7,171.0 163.9,172.0 164.1,172.9 164.3,178.2 164.5,181.7 164.7,182.0 164.9,184.2 165.1,184.5 165.4,183.4 165.6,179.3 165.8,178.4 166.0,180.2 166.2,176.6 166.4,181.7 166.6,183.3 166.8,182.1 167.0,178.3 167.3,177.9 167.5,176.2 167.7,177.5 167.9,177.0 168.1,178.3 168.3,176.6 168.5,176.5 168.7,172.1 169.0,170.7 169.2,171.6 169.4,175.2 169.6,176.3 169.8,175.2 170.0,171.6 170.2,171.8 170.4,170.1 170.6,173.2 170.9,169.3 171.1,175.1 171.3,174.3 171.5,172.3 171.7,174.0 171.9,169.6 172.1,168.8 172.3,167.8 172.6,164.3 172.8,165.6 173.0,166.9 173.2,163.6 173.4,162.6 173.6,159.0 173.8,160.2 174.0,162.9 174.3,162.5 174.5,162.7 174.7,164.9 174.9,163.4 175.1,166.4 175.3,166.8 175.5,165.9 175.7,167.3 175.9,169.6 176.2,170.5 176.4,169.4 176.6,169.0 176.8,168.1 177.0,164.6 177.2,162.0 177.4,161.2 177.6,160.5 177.9,163.1 178.1,167.0 178.3,164.2 178.5,167.1 178.7,167.1 178.9,166.8 179.1,165.4 179.3,164.5 179.5,165.7 179.8,166.6 180.0,168.6 180.2,165.0 180.4,163.4 180.6,163.9 180.8,158.3 181.0,157.9 181.2,154.0 181.5,153.0 181.7,152.3 181.9,151.6 182.1,153.0 182.3,153.0 182.5,151.1 182.7,151.1 182.9,149.7 183.2,145.6 183.4,143.3 183.6,141.8 183.8,144.2 184.0,143.6 184.2,147.1 184.4,146.3 184.6,147.0 184.8,148.8 185.1,143.2 185.3,147.2 185.5,150.1 185.7,151.3 185.9,148.9 186.1,150.4 186.3,151.3 186.5,152.3 186.8,156.0 187.0,154.1 187.2,145.8 187.4,148.3 187.6,145.9 187.8,147.1 188.0,136.4 188.2,134.9 188.5,135.4 188.7,135.6 188.9,139.0 189.1,138.1 189.3,140.7 189.5,126.1 189.7,119.4 189.9,127.2 190.1,124.5 190.4,123.6 190.6,123.2 190.8,123.5 191.0,124.1 191.2,122.2 191.4,123.8 191.6,128.5 191.8,133.9 192.1,133.7 192.3,131.3 192.5,128.7 192.7,129.1 192.9,131.0 193.1,131.8 193.3,130.0 193.5,130.8 193.7,131.4 194.0,133.2 194.2,130.2 194.4,130.0 194.6,128.6 194.8,128.3 195.0,126.1 195.2,126.6 195.4,123.6 195.7,125.0 195.9,126.8 196.1,125.8 196.3,132.3 196.5,133.4 196.7,133.3 196.9,138.6 197.1,134.3 197.4,135.5 197.6,137.7 197.8,138.7 198.0,142.5 198.2,140.4 198.4,140.2 198.6,140.4 198.8,143.0 199.0,146.7 199.3,148.3 199.5,145.9 199.7,143.0 199.9,141.8 200.1,146.1 200.3,146.6 200.5,147.8 200.7,142.8 201.0,144.2 201.2,142.1 201.4,146.5 201.6,144.6 201.8,144.2 202.0,139.4 202.2,136.9 202.4,141.9 202.6,142.8 202.9,144.6 203.1,144.8 203.3,146.2 203.5,154.1 203.7,153.6 203.9,152.2 204.1,149.3 204.3,153.5 204.6,149.8 204.8,150.5 205.0,153.5 205.2,154.5 205.4,157.2 205.6,158.7 205.8,158.2 206.0,159.4 206.3,158.6 206.5,155.0 206.7,149.2 206.9,156.3 207.1,155.7 207.3,154.0 207.5,150.5 207.7,149.8 207.9,146.9 208.2,148.7 208.4,147.0 208.6,147.8 208.8,149.5 209.0,150.3 209.2,148.3 209.4,149.8 209.6,149.5 209.9,150.4 210.1,149.3 210.3,150.4 210.5,146.6 210.7,147.3 210.9,147.5 211.1,145.1 211.3,146.1 211.5,148.3 211.8,148.9 212.0,153.2 212.2,149.0 212.4,148.2 212.6,150.2 212.8,146.3 213.0,147.1 213.2,147.2 213.5,146.5 213.7,146.9 213.9,149.6 214.1,150.5 214.3,144.3 214.5,145.3 214.7,144.2 214.9,146.1 215.2,144.0 215.4,142.3 215.6,143.0 215.8,149.0 216.0,150.5 216.2,151.7 216.4,150.6 216.6,146.9 216.8,151.8 217.1,148.1 217.3,146.1 217.5,148.3 217.7,146.7 217.9,151.2 218.1,151.6 218.3,147.1 218.5,148.4 218.8,155.0 219.0,156.7 219.2,154.0 219.4,150.9 219.6,147.9 219.8,148.4 220.0,147.5 220.2,147.3 220.5,146.5 220.7,146.3 220.9,149.6 221.1,150.6 221.3,156.7 221.5,156.5 221.7,155.5 221.9,154.0 222.1,154.3 222.4,155.4 222.6,155.5 222.8,155.2 223.0,149.4 223.2,151.7 223.4,151.3 223.6,151.1 223.8,139.4 224.1,139.9 224.3,136.5 224.5,137.8 224.7,137.6 224.9,136.2 225.1,137.4 225.3,137.1 225.5,138.6 225.7,143.8 226.0,146.3 226.2,147.3 226.4,150.1 226.6,153.2 226.8,154.8 227.0,155.0 227.2,156.2 227.4,157.6 227.7,157.4 227.9,151.7 228.1,150.1 228.3,148.9 228.5,150.7 228.7,153.8 228.9,152.8 229.1,150.8 229.4,147.7 229.6,148.6 229.8,147.5 230.0,145.6 230.2,145.8 230.4,145.9 230.6,142.4 230.8,141.9 231.0,135.5 231.3,132.3 231.5,133.6 231.7,131.3 231.9,132.4 232.1,129.3 232.3,128.8 232.5,128.5 232.7,124.2 233.0,126.2 233.2,128.7 233.4,130.2 233.6,131.5 233.8,132.0 234.0,131.6 234.2,132.6 234.4,129.3 234.6,132.9 234.9,132.1 235.1,130.9 235.3,135.7 235.5,133.7 235.7,131.8 235.9,131.0 236.1,131.0 236.3,131.9 236.6,132.5 236.8,132.4 237.0,132.4 237.2,134.6 237.4,133.4 237.6,119.1 237.8,113.5 238.0,116.4 238.3,116.2 238.5,118.3 238.7,113.6 238.9,108.0 239.1,109.5 239.3,113.2 239.5,112.6 239.7,115.0 239.9,116.6 240.2,126.8 240.4,127.0 240.6,128.0 240.8,126.0 241.0,130.1 241.2,129.7 241.4,127.8 241.6,127.3 241.9,126.3 242.1,127.8 242.3,127.5 242.5,128.7 242.7,120.0 242.9,119.8 243.1,120.4 243.3,119.6 243.5,124.0 243.8,128.8 244.0,130.2 244.2,132.9 244.4,132.0 244.6,131.0 244.8,132.4 245.0,133.7 245.2,133.6 245.5,133.9 245.7,134.9 245.9,134.0 246.1,132.9 246.3,130.1 246.5,129.4 246.7,130.7 246.9,126.3 247.2,124.9 247.4,129.2 247.6,132.4 247.8,133.9 248.0,133.1 248.2,130.8 248.4,126.0 248.6,128.2 248.8,129.5 249.1,131.3 249.3,130.9 249.5,129.5 249.7,132.0 249.9,133.1 250.1,135.0 250.3,135.6 250.5,136.1 250.8,136.2 251.0,136.3 251.2,137.0 251.4,140.7 251.6,142.4 251.8,141.9 252.0,144.6 252.2,145.4 252.5,147.5 252.7,151.0 252.9,152.0 253.1,148.9 253.3,149.9 253.5,149.3 253.7,149.4 253.9,147.5 254.1,149.6 254.4,149.5 254.6,147.8 254.8,146.8 255.0,146.8 255.2,149.7 255.4,153.2 255.6,155.8 255.8,155.7 256.1,154.1 256.3,154.5 256.5,156.7 256.7,157.1 256.9,156.9 257.1,160.7 257.3,163.9 257.5,164.7 257.7,164.6 258.0,163.0 258.2,163.6 258.4,159.0 258.6,155.2 258.8,154.1 259.0,156.7 259.2,154.5 259.4,157.2 259.7,158.2 259.9,155.0 260.1,156.5 260.3,156.3 260.5,156.9 260.7,151.1 260.9,153.0 261.1,153.8 261.4,148.9 261.6,146.7 261.8,145.7 262.0,144.7 262.2,145.9 262.4,146.2 262.6,140.6 262.8,140.3 263.0,138.1 263.3,132.4 263.5,147.3 263.7,150.5 263.9,151.6 264.1,152.3 264.3,153.2 264.5,154.8 264.7,155.2 265.0,157.4 265.2,157.9 265.4,156.4 265.6,160.7 265.8,161.1 266.0,162.7 266.2,163.2 266.4,162.6 266.6,161.2 266.9,159.5 267.1,154.1 267.3,153.6 267.5,155.3 267.7,157.9 267.9,164.7 268.1,168.3 268.3,168.4 268.6,166.8 268.8,166.8 269.0,164.1 269.2,164.9 269.4,163.7 269.6,163.0 269.8,163.2 270.0,161.0 270.3,165.4 270.5,166.9 270.7,167.2 270.9,167.6 271.1,167.1 271.3,166.8 271.5,164.2 271.7,165.2 271.9,165.9 272.2,170.5 272.4,169.1 272.6,172.0 272.8,171.1 273.0,166.4 273.2,166.8 273.4,168.9 273.6,168.9 273.9,169.6 274.1,173.6 274.3,172.5 274.5,173.1 274.7,174.1 274.9,177.2 275.1,177.9 275.3,173.5 275.5,176.2 275.8,175.5 276.0,176.0 276.2,174.3 276.4,174.0 276.6,170.3 276.8,181.2 277.0,179.3 277.2,178.0 277.5,180.2 277.7,179.6 277.9,176.9 278.1,179.8 278.3,181.0 278.5,180.9 278.7,183.5 278.9,185.0 279.2,183.3 279.4,184.0 279.6,183.0 279.8,183.0 280.0,184.5 280.2,183.6 280.4,183.7 280.6,185.3 280.8,181.7 281.1,178.1 281.3,177.4 281.5,177.7 281.7,179.5 281.9,181.2 282.1,180.9 282.3,179.9 282.5,181.2 282.8,183.2 283.0,184.5 283.2,184.3 283.4,176.8 283.6,180.5 283.8,182.9 284.0,182.5 284.2,182.2 284.5,182.5 284.7,187.1 284.9,184.7 285.1,186.2 285.3,188.4 285.5,188.0 285.7,183.7 285.9,184.4 286.1,187.3 286.4,188.1 286.6,189.4 286.8,185.9 287.0,187.1 287.2,180.7 287.4,183.2 287.6,186.1 287.8,185.7 288.1,192.5 288.3,195.3 288.5,197.1 288.7,197.7 288.9,194.4 289.1,194.1 289.3,194.7 289.5,193.5 289.7,193.7 290.0,195.1 290.2,200.3 290.4,200.0 290.6,195.9 290.8,200.0 291.0,204.9 291.2,206.2 291.4,203.7 291.7,203.7 291.9,208.4 292.1,207.0 292.3,206.9 292.5,208.7 292.7,210.3 292.9,211.8 293.1,216.7 293.4,218.3 293.6,217.3 293.8,217.3 294.0,214.2 294.2,213.7 294.4,210.1 294.6,212.2 294.8,216.3 295.0,216.6 295.3,219.5 295.5,219.3 295.7,220.5 295.9,217.8 296.1,219.0 296.3,220.0 296.5,219.4 296.7,226.1 297.0,226.2 297.2,229.0 297.4,230.2 297.6,229.1 297.8,223.3 298.0,227.8 298.2,227.5 298.4,224.2 298.6,222.2 298.9,224.1 299.1,223.4 299.3,227.8 299.5,226.4 299.7,222.2 299.9,220.8 300.1,216.9 300.3,218.4 300.6,215.5 300.8,214.4 301.0,219.5 301.2,217.8 301.4,213.4 301.6,214.0 301.8,214.6 302.0,211.6 302.3,208.9 302.5,208.0 302.7,208.6 302.9,208.0 303.1,212.0 303.3,212.7 303.5,211.2 303.7,211.1 303.9,212.1 304.2,210.4 304.4,211.2 304.6,212.6 304.8,211.8 305.0,210.3 305.2,209.2 305.4,210.6 305.6,212.6 305.9,214.3 306.1,214.7 306.3,217.1 306.5,216.5 306.7,215.3 306.9,215.1 307.1,211.6 307.3,207.4 307.5,207.3 307.8,206.2 308.0,204.0 308.2,208.0 308.4,211.0 308.6,211.4 308.8,208.2 309.0,207.5 309.2,208.5 309.5,210.4 309.7,211.3 309.9,214.6 310.1,212.2 310.3,212.3 310.5,208.4 310.7,210.2 310.9,210.9 311.2,211.2 311.4,212.9 311.6,212.1 311.8,212.2 312.0,215.4 312.2,216.1 312.4,215.2 312.6,215.4 312.8,216.8 313.1,218.8 313.3,217.0 313.5,216.8 313.7,216.4 313.9,215.7 314.1,213.0 314.3,212.4 314.5,213.4 314.8,211.9 315.0,212.1 315.2,211.1 315.4,211.2 315.6,210.9 315.8,211.0 316.0,212.3 316.2,210.4 316.5,205.1 316.7,203.7 316.9,204.3 317.1,209.4 317.3,210.0 317.5,210.6 317.7,212.7 317.9,215.4 318.1,214.9 318.4,214.1 318.6,215.3 318.8,214.2 319.0,214.2 319.2,215.2 319.4,217.1 319.6,214.4 319.8,213.7 320.1,213.4 320.3,214.6 320.5,214.0 320.7,217.7 320.9,220.9 321.1,220.5 321.3,218.9 321.5,218.7 321.7,217.9 322.0,219.4 322.2,219.8 322.4,220.2 322.6,219.3 322.8,220.0 323.0,221.4 323.2,221.3 323.4,220.6 323.7,220.4 323.9,221.5 324.1,222.3 324.3,223.0 324.5,220.1 324.7,217.9 324.9,218.6 325.1,215.3 325.4,216.8 325.6,216.7 325.8,216.6 326.0,213.6 326.2,215.0 326.4,216.3 326.6,217.8 326.8,216.8 327.0,216.6 327.3,216.2 327.5,215.9 327.7,215.5 327.9,213.3 328.1,212.5 328.3,211.7 328.5,211.3 328.7,214.3 329.0,216.3 329.2,217.4 329.4,217.4 329.6,218.4 329.8,218.2 330.0,218.3 330.2,222.0 330.4,225.5 330.6,226.7 330.9,223.1 331.1,220.8 331.3,220.8 331.5,221.8 331.7,226.7 331.9,227.6 332.1,226.8 332.3,225.9 332.6,227.3 332.8,227.5 333.0,230.6 333.2,232.2 333.4,229.0 333.6,226.4 333.8,227.5 334.0,226.5 334.3,227.5 334.5,229.4 334.7,229.6 334.9,229.7 335.1,226.2 335.3,225.1 335.5,225.8 335.7,225.5 335.9,224.8 336.2,222.3 336.4,221.6 336.6,218.7 336.8,216.4 337.0,215.5 337.2,216.6 337.4,215.7 337.6,210.7 337.9,212.1 338.1,212.7 338.3,213.2 338.5,213.4 338.7,213.6 338.9,215.4 339.1,215.4 339.3,214.9 339.5,216.3 339.8,215.8 340.0,219.1 340.2,222.1 340.4,224.1 340.6,223.9 340.8,224.5 341.0,227.5 341.2,228.2 341.5,228.2 341.7,227.5 341.9,229.6 342.1,230.1 342.3,232.2 342.5,235.6 342.7,235.8 342.9,236.9 343.2,236.4 343.4,238.7 343.6,237.7 343.8,239.2 344.0,249.5 344.2,252.2 344.4,251.0 344.6,249.9 344.8,247.0 345.1,246.3 345.3,247.3 345.5,249.1 345.7,247.8 345.9,246.3 346.1,247.5 346.3,247.2 346.5,247.6 346.8,245.3 347.0,245.5 347.2,246.6 347.4,245.4 347.6,244.6 347.8,244.0 348.0,244.3 348.2,244.6 348.5,243.7 348.7,244.4 348.9,245.7 349.1,247.2 349.3,247.9 349.5,246.6 349.7,245.1 349.9,241.6 350.1,241.6 350.4,241.8 350.6,242.3 350.8,239.8 351.0,239.8 351.2,238.6 351.4,236.3 351.6,236.0 351.8,235.5 352.1,236.5 352.3,237.3 352.5,236.1 352.7,237.3 352.9,236.1 353.1,236.1 353.3,237.4 353.5,235.0 353.7,230.7 354.0,229.9 354.2,231.7 354.4,231.8 354.6,234.4 354.8,236.5 355.0,236.2 355.2,237.0 355.4,234.5 355.7,233.9 355.9,233.5 356.1,233.7 356.3,235.9 356.5,237.3 356.7,238.3 356.9,242.1 357.1,240.6 357.4,238.8 357.6,238.7 357.8,240.6 358.0,240.6 358.2,239.2 358.4,235.9 358.6,234.8 358.8,237.9 359.0,237.7 359.3,237.9 359.5,239.9 359.7,240.9 359.9,241.0 360.1,241.2 360.3,239.4 360.5,239.4 360.7,241.4 361.0,245.2 361.2,249.4 361.4,252.3 361.6,253.6 361.8,253.5 362.0,251.8 362.2,253.5 362.4,252.9 362.6,252.8 362.9,256.1 363.1,271.5 363.3,273.9 363.5,278.7 363.7,284.8 363.9,281.3 364.1,281.4 364.3,285.6 364.6,288.6 364.8,285.2 365.0,285.3 365.2,290.1 365.4,285.2 365.6,282.4 365.8,282.8 366.0,288.8 366.3,287.3 366.5,285.0 366.7,284.9 366.9,283.4 367.1,282.3 367.3,280.5 367.5,280.1 367.7,275.5 367.9,275.2 368.2,275.5 368.4,277.2 368.6,280.5 368.8,283.4 369.0,280.3 369.2,278.9 369.4,278.9 369.6,274.6 369.9,272.3 370.1,274.7 370.3,274.5 370.5,273.7 370.7,268.1 370.9,267.8 371.1,270.6 371.3,269.1 371.5,269.8 371.8,272.1 372.0,271.5 372.2,271.5 372.4,272.3 372.6,269.4 372.8,273.1 373.0,273.9 373.2,272.1 373.5,271.5 373.7,266.3 373.9,269.2 374.1,272.1 374.3,275.0 374.5,273.9 374.7,273.9 374.9,273.8 375.2,274.7 375.4,273.7 375.6,271.0 375.8,270.7 376.0,269.0 376.2,266.8 376.4,263.3 376.6,265.9 376.8,268.6 377.1,272.6 377.3,271.3 377.5,272.3 377.7,271.9 377.9,275.5 378.1,274.4 378.3,274.1 378.5,274.7 378.8,274.8 379.0,277.7 379.2,278.0 379.4,279.7 379.6,278.4 379.8,277.8 380.0,278.0 380.2,278.7 380.5,277.6 380.7,279.0 380.9,280.2 381.1,281.4 381.3,278.2 381.5,279.9 381.7,279.4 381.9,278.5 382.1,278.7 382.4,278.5 382.6,279.7 382.8,276.8 383.0,279.0 383.2,280.2 383.4,278.7 383.6,279.0 383.8,278.9 384.1,277.3 384.3,278.2 384.5,278.9 384.7,275.8 384.9,276.2 385.1,274.4 385.3,273.8 385.5,271.5 385.7,272.6 386.0,270.4 386.2,271.3 386.4,270.7 386.6,270.7 386.8,271.5 387.0,270.6 387.2,272.1 387.4,273.2 387.7,271.8 387.9,271.4 388.1,271.9 388.3,271.8 388.5,271.9 388.7,272.4 388.9,272.3 389.1,274.3 389.4,274.5 389.6,273.2 389.8,278.7 390.0,277.9 390.2,278.5 390.4,278.0 390.6,278.5 390.8,278.7 391.0,276.3 391.3,275.7 391.5,277.0 391.7,277.7 391.9,277.4 392.1,279.4 392.3,278.3 392.5,278.7 392.7,277.5 393.0,279.3 393.2,279.5 393.4,280.3 393.6,279.6 393.8,278.4 394.0,279.2 394.2,278.3 394.4,276.1 394.6,276.0 394.9,276.8 395.1,277.5 395.3,277.1 395.5,277.0 395.7,278.3 395.9,277.5 396.1,278.4 396.3,276.2 396.6,277.2 396.8,279.4 397.0,279.6 397.2,280.6 397.4,280.9 397.6,280.4 397.8,278.8 398.0,277.8 398.3,278.1 398.5,277.9 398.7,277.7 398.9,273.0 399.1,272.3 399.3,272.0 399.5,274.3 399.7,272.5 399.9,270.2 400.2,270.5 400.4,271.0 400.6,269.8 400.8,270.1 401.0,265.1 401.2,260.7 401.4,263.1 401.6,263.3 401.9,262.4 402.1,266.9 402.3,267.6 402.5,266.4 402.7,267.6 402.9,263.6 403.1,264.4 403.3,264.8 403.5,264.9 403.8,260.7 404.0,262.2 404.2,263.4 404.4,262.7 404.6,265.6 404.8,266.1 405.0,265.3 405.2,267.9 405.5,269.1 405.7,266.8 405.9,267.8 406.1,268.3 406.3,267.6 406.5,268.3 406.7,268.3 406.9,263.8 407.2,264.4 407.4,263.8 407.6,263.9 407.8,264.6 408.0,261.7 408.2,262.7 408.4,259.6 408.6,263.3 408.8,263.9 409.1,260.6 409.3,260.7 409.5,262.8 409.7,265.2 409.9,264.4 410.1,266.9 410.3,266.2 410.5,265.1 410.8,265.4 411.0,262.4 411.2,263.3 411.4,262.8 411.6,260.2 411.8,261.2 412.0,257.7 412.2,260.4 412.5,258.6 412.7,259.7 412.9,253.8 413.1,251.4 413.3,251.3 413.5,252.8 413.7,254.3 413.9,251.0 414.1,250.2 414.4,248.3 414.6,249.4 414.8,250.7 415.0,250.8 415.2,251.1 415.4,248.4 415.6,247.1 415.8,246.0 416.1,245.4 416.3,244.6 416.5,242.3 416.7,240.7 416.9,241.8 417.1,242.9 417.3,243.8 417.5,244.2 417.7,246.0 418.0,244.5 418.2,244.6 418.4,246.1 418.6,246.1 418.8,246.6 419.0,245.4 419.2,246.1 419.4,246.3 419.7,246.6 419.9,244.1 420.1,245.0 420.3,244.4 420.5,244.5 420.7,244.4 420.9,244.8 421.1,244.6 421.4,244.8 421.6,243.0 421.8,242.1 422.0,244.3 422.2,244.5 422.4,250.0 422.6,250.6 422.8,252.1 423.0,252.7 423.3,251.0 423.5,250.4 423.7,248.1 423.9,248.7 424.1,249.0 424.3,247.3 424.5,246.8 424.7,247.6 425.0,247.2 425.2,246.1 425.4,246.3 425.6,246.8 425.8,246.1 426.0,247.3 426.2,245.6 426.4,242.9 426.6,245.3 426.9,247.3 427.1,247.8 427.3,247.5 427.5,248.7 427.7,247.3 427.9,247.6 428.1,247.3 428.3,248.3 428.6,243.8 428.8,244.3 429.0,244.1 429.2,245.1 429.4,247.0 429.6,247.5 429.8,247.5 430.0,247.3 430.3,246.9 430.5,245.5 430.7,240.6 430.9,241.9 431.1,245.6 431.3,245.7 431.5,241.3 431.7,239.7 431.9,236.2 432.2,233.7 432.4,233.3 432.6,235.7 432.8,237.6 433.0,237.5 433.2,237.6 433.4,236.7 433.6,238.6 433.9,240.4 434.1,240.5 434.3,240.2 434.5,239.9 434.7,240.9 434.9,243.8 435.1,244.5 435.3,246.1 435.5,248.0 435.8,245.6 436.0,244.0 436.2,244.0 436.4,243.9 436.6,244.5 436.8,245.8 437.0,245.0 437.2,243.4 437.5,244.0 437.7,243.4 437.9,247.1 438.1,246.5 438.3,246.3 438.5,247.1 438.7,242.8 438.9,242.0 439.2,242.6 439.4,244.8 439.6,246.4 439.8,246.8 440.0,246.7 440.2,249.0 440.4,248.5 440.6,245.8 440.8,244.5 441.1,245.2 441.3,244.7 441.5,244.5 441.7,245.0 441.9,244.8 442.1,245.7 442.3,243.7 442.5,245.5 442.8,246.3 443.0,247.7 443.2,249.3 443.4,247.8 443.6,246.6 443.8,246.6 444.0,244.0 444.2,243.1 444.5,245.3 444.7,248.1 444.9,248.7 445.1,247.0 445.3,246.5 445.5,245.4 445.7,242.9 445.9,245.6 446.1,245.5 446.4,246.9 446.6,245.6 446.8,243.6 447.0,241.3 447.2,241.9 447.4,237.4 447.6,236.7 447.8,237.1 448.1,238.4 448.3,235.5 448.5,234.8 448.7,235.2 448.9,235.1 449.1,233.1 449.3,234.6 449.5,232.4 449.7,231.0 450.0,230.6 450.2,233.4 450.4,233.9 450.6,236.1 450.8,234.6 451.0,236.3 451.2,237.2 451.4,237.4 451.7,236.6 451.9,233.8 452.1,233.0 452.3,235.4 452.5,234.6 452.7,234.9 452.9,234.4 453.1,232.7 453.4,235.8 453.6,238.1 453.8,241.3 454.0,241.3 454.2,239.5 454.4,237.9 454.6,237.8 454.8,244.0 455.0,244.1 455.3,244.1 455.5,246.6 455.7,246.9 455.9,246.2 456.1,245.3 456.3,243.8 456.5,244.0 456.7,244.0 457.0,244.0 457.2,246.3 457.4,247.8 457.6,248.8 457.8,247.6 458.0,249.2 458.2,249.0 458.4,247.1 458.6,246.3 458.9,247.5 459.1,247.5 459.3,246.8 459.5,246.6 459.7,246.1 459.9,244.0 460.1,245.1 460.3,242.1 460.6,243.8 460.8,244.0 461.0,242.4 461.2,239.9 461.4,240.5 461.6,239.6 461.8,238.1 462.0,238.3 462.3,239.9 462.5,241.1 462.7,242.3 462.9,242.7 463.1,239.6 463.3,237.6 463.5,235.6 463.7,231.7 463.9,229.0 464.2,226.5 464.4,226.2 464.6,225.4 464.8,224.0 465.0,223.2 465.2,225.1 465.4,224.2 465.6,224.1 465.9,223.3 466.1,224.2 466.3,224.4 466.5,225.8 466.7,226.4 466.9,227.3 467.1,228.3 467.3,228.5 467.5,228.7 467.8,228.5 468.0,224.1 468.2,223.7 468.4,223.9 468.6,225.2 468.8,222.5 469.0,221.9 469.2,221.9 469.5,222.6 469.7,222.2 469.9,222.1 470.1,225.6 470.3,224.7 470.5,222.9 470.7,222.0 470.9,224.4 471.2,222.1 471.4,223.0 471.6,222.1 471.8,222.1 472.0,219.9 472.2,220.7 472.4,221.5 472.6,222.0 472.8,223.2 473.1,221.5 473.3,220.7 473.5,221.6 473.7,221.6 473.9,221.6 474.1,219.8 474.3,219.8 474.5,218.8 474.8,217.6 475.0,216.5 475.2,211.2 475.4,213.8 475.6,216.6 475.8,223.3 476.0,223.9 476.2,224.3 476.5,221.4 476.7,221.6 476.9,220.0 477.1,221.1 477.3,223.6 477.5,221.1 477.7,212.8 477.9,213.1 478.1,212.2 478.4,219.7 478.6,222.8 478.8,221.8 479.0,224.3 479.2,218.2 479.4,216.4 479.6,217.9 479.8,217.8 480.1,216.9 480.3,218.1 480.5,218.1 480.7,213.8 480.9,214.9 481.1,212.2 481.3,211.8 481.5,212.9 481.7,210.9 482.0,212.4 482.2,212.1 482.4,212.7 482.6,209.4 482.8,206.4 483.0,209.0 483.2,211.4 483.4,212.9 483.7,213.9 483.9,213.6 484.1,219.3 484.3,226.5 484.5,226.3 484.7,224.7 484.9,227.8 485.1,232.2 485.4,231.8 485.6,228.8 485.8,225.8 486.0,228.4 486.2,230.0 486.4,229.0 486.6,232.3 486.8,235.6 487.0,229.9 487.3,231.0 487.5,233.0 487.7,234.1 487.9,232.0 488.1,232.1 488.3,228.6 488.5,221.9 488.7,216.7 489.0,217.1 489.2,217.6 489.4,220.2 489.6,218.1 489.8,217.6 490.0,215.2 490.2,214.6 490.4,213.8 490.6,217.9 490.9,221.5 491.1,224.3 491.3,223.9 491.5,223.6 491.7,224.4 491.9,224.3 492.1,223.6 492.3,223.9 492.6,223.8 492.8,224.2 493.0,223.9 493.2,222.6 493.4,224.5 493.6,220.6 493.8,219.5 494.0,218.0 494.3,217.9 494.5,218.6 494.7,215.1 494.9,217.7 495.1,219.4 495.3,220.7 495.5,219.5 495.7,219.4 495.9,220.8 496.2,219.1 496.4,217.4 496.6,214.4 496.8,215.2 497.0,212.4 497.2,213.1 497.4,214.0 497.6,213.2 497.9,212.7 498.1,214.4 498.3,215.8 498.5,222.5 498.7,223.5 498.9,220.5 499.1,219.2 499.3,220.3 499.5,220.0 499.8,214.4 500.0,209.2 500.2,208.2 500.4,207.2 500.6,207.6 500.8,208.3 501.0,208.2 501.2,205.2 501.5,207.7 501.7,206.3 501.9,208.4 502.1,205.7 502.3,207.2 502.5,206.3 502.7,203.1 502.9,199.3 503.2,200.3 503.4,199.6 503.6,198.2 503.8,199.0 504.0,198.9 504.2,198.3 504.4,197.1 504.6,197.5 504.8,197.0 505.1,196.3 505.3,203.0 505.5,198.9 505.7,196.6 505.9,197.8 506.1,195.3 506.3,196.9 506.5,197.0 506.8,198.0 507.0,199.1 507.2,195.1 507.4,196.2 507.6,196.6 507.8,195.4 508.0,195.8 508.2,193.6 508.5,193.3 508.7,194.0 508.9,194.4 509.1,197.9 509.3,202.2 509.5,199.5 509.7,199.3 509.9,199.2 510.1,196.3 510.4,194.1 510.6,194.8 510.8,193.5 511.0,199.6 511.2,199.4 511.4,197.6 511.6,195.2 511.8,197.5 512.1,194.2 512.3,197.4 512.5,196.4 512.7,195.6 512.9,202.3 513.1,202.0 513.3,203.8 513.5,200.4 513.7,200.3 514.0,197.8 514.2,196.3 514.4,192.9 514.6,188.9 514.8,187.0 515.0,186.9 515.2,188.6 515.4,187.6 515.7,186.4 515.9,185.7 516.1,187.2 516.3,190.6 516.5,190.3 516.7,188.6 516.9,188.7 517.1,188.3 517.4,191.8 517.6,192.9 517.8,189.7 518.0,190.8 518.2,189.2 518.4,186.3 518.6,188.3 518.8,187.9 519.0,187.9 519.3,185.9 519.5,188.4 519.7,188.2 519.9,191.9 520.1,194.4 520.3,193.3 520.5,193.4 520.7,193.4 521.0,195.0 521.2,197.3 521.4,194.3 521.6,192.2 521.8,192.4 522.0,194.9 522.2,197.3 522.4,196.8 522.6,199.0 522.9,201.4 523.1,204.3 523.3,204.5 523.5,205.0 523.7,203.7 523.9,202.6 524.1,200.1 524.3,196.8 524.6,198.8 524.8,200.1 525.0,200.3 525.2,199.1 525.4,198.3 525.6,197.2 525.8,199.1 526.0,197.5 526.3,194.3 526.5,194.8 526.7,194.4 526.9,194.6 527.1,195.1 527.3,194.6 527.5,193.4 527.7,193.7 527.9,192.6 528.2,195.1 528.4,199.7 528.6,201.5 528.8,201.1 529.0,200.8 529.2,200.0 529.4,200.7 529.6,200.2 529.9,199.5 530.1,197.6 530.3,197.6 530.5,199.9 530.7,199.6 530.9,198.6 531.1,192.4 531.3,191.1 531.5,189.6 531.8,191.5 532.0,191.8 532.2,191.2 532.4,187.6 532.6,189.1 532.8,188.3 533.0,188.3 533.2,186.6 533.5,184.0 533.7,185.9 533.9,187.6 534.1,187.4 534.3,186.0 534.5,188.1 534.7,188.8 534.9,185.6 535.2,180.6 535.4,180.2 535.6,177.3 535.8,180.2 536.0,182.0 536.2,181.9 536.4,185.4 536.6,183.4 536.8,184.6 537.1,183.7 537.3,182.6 537.5,182.4 537.7,184.2 537.9,184.2 538.1,186.6 538.3,186.8 538.5,186.9 538.8,185.6 539.0,185.6 539.2,186.3 539.4,186.4 539.6,185.2 539.8,182.0 540.0,182.3 540.2,179.0 540.5,175.7 540.7,175.8 540.9,175.7 541.1,172.0 541.3,174.5 541.5,171.6 541.7,165.2 541.9,166.3 542.1,163.9 542.4,168.5 542.6,169.9 542.8,169.2 543.0,169.1 543.2,171.2 543.4,167.5 543.6,167.3 543.8,167.1 544.1,167.3 544.3,167.4 544.5,166.8 544.7,166.2 544.9,167.5 545.1,167.1 545.3,166.1 545.5,166.6 545.7,169.3 546.0,166.8 546.2,165.6 546.4,164.7 546.6,165.9 546.8,167.6 547.0,168.1 547.2,169.0 547.4,167.4 547.7,167.6 547.9,167.7 548.1,167.5 548.3,169.6 548.5,167.6 548.7,169.6 548.9,171.6 549.1,170.6 549.4,170.5 549.6,173.6 549.8,172.8 550.0,174.2 550.2,174.1 550.4,172.6 550.6,171.1 550.8,173.4 551.0,174.0 551.3,175.1 551.5,174.0 551.7,172.1 551.9,173.9 552.1,173.3 552.3,174.4 552.5,175.1 552.7,177.3 553.0,179.3 553.2,180.3 553.4,180.2 553.6,178.5 553.8,175.1 554.0,174.8 554.2,175.7 554.4,174.1 554.6,174.3 554.9,174.8 555.1,177.4 555.3,178.8 555.5,179.9 555.7,178.5 555.9,178.3 556.1,175.5 556.3,179.2 556.6,180.5 556.8,180.6 557.0,179.0 557.2,176.4 557.4,174.8 557.6,176.5 557.8,176.6 558.0,178.5 558.3,179.6 558.5,180.4 558.7,179.5 558.9,178.6 559.1,178.6 559.3,179.8 559.5,182.6 559.7,183.3 559.9,182.9 560.2,180.0 560.4,179.9 560.6,178.0 560.8,177.8 561.0,180.9 561.2,179.6 561.4,176.0 561.6,175.3 561.9,174.1 562.1,176.8 562.3,176.3 562.5,180.2 562.7,179.7 562.9,178.3 563.1,183.1 563.3,185.7 563.5,183.7 563.8,182.3 564.0,183.5 564.2,182.2 564.4,181.6 564.6,184.6 564.8,183.0 565.0,183.1 565.2,183.9 565.5,187.6 565.7,186.2 565.9,186.1 566.1,184.5 566.3,185.1 566.5,185.6 566.7,185.7 566.9,182.6 567.2,186.5 567.4,185.3 567.6,184.4 567.8,182.9 568.0,187.6 568.2,191.9 568.4,194.0 568.6,194.8 568.8,192.4 569.1,190.6 569.3,189.9 569.5,188.4 569.7,188.2 569.9,190.7 570.1,190.9 570.3,192.6 570.5,192.9 570.8,196.8 571.0,198.0 571.2,197.8 571.4,195.2 571.6,192.7 571.8,193.4 572.0,190.2 572.2,191.7 572.5,190.9 572.7,186.6 572.9,185.2 573.1,186.3 573.3,182.3 573.5,181.1 573.7,180.0 573.9,179.8 574.1,179.5 574.4,179.7 574.6,179.7 574.8,177.4 575.0,178.8 575.2,177.1 575.4,175.7 575.6,178.6 575.8,179.0 576.1,176.2 576.3,172.6 576.5,170.8 576.7,172.8 576.9,170.5 577.1,171.3 577.3,170.0 577.5,170.1 577.7,170.8 578.0,170.8 578.2,168.2 578.4,170.4 578.6,168.6 578.8,165.3 579.0,161.2 579.2,161.2 579.4,159.0 579.7,157.8 579.9,157.0 580.1,156.7 580.3,156.9 580.5,155.2 580.7,156.0 580.9,158.3 581.1,159.7 581.4,158.2 581.6,159.0 581.8,160.0 582.0,157.8 582.2,159.5 582.4,162.1 582.6,161.8 582.8,163.3 583.0,162.6 583.3,160.6 583.5,167.2 583.7,170.3 583.9,169.9 584.1,170.7 584.3,169.9 584.5,169.8 584.7,167.8 585.0,167.7 585.2,169.7 585.4,168.3 585.6,169.0 585.8,168.6 586.0,169.7 586.2,170.2 586.4,168.6 586.6,169.4 586.9,170.4 587.1,169.6 587.3,168.0 587.5,165.6 587.7,165.9 587.9,163.4 588.1,157.9 588.3,166.1 588.6,168.3 588.8,170.0 589.0,167.9 589.2,168.9 589.4,164.9 589.6,163.4 589.8,163.5 590.0,166.8 590.3,168.2 590.5,165.9 590.7,163.6 590.9,161.2 591.1,161.4 591.3,169.3 591.5,164.7 591.7,165.5 591.9,167.7 592.2,166.5 592.4,168.6 592.6,166.8 592.8,165.9 593.0,163.6 593.2,165.3 593.4,164.8 593.6,167.4 593.9,164.4 594.1,158.9 594.3,156.4 594.5,153.0 594.7,157.0 594.9,155.6 595.1,155.3 595.3,155.5 595.5,158.0 595.8,159.2 596.0,160.3 596.2,160.1 596.4,157.4 596.6,158.4 596.8,156.4 597.0,157.7 597.2,161.1 597.5,165.8 597.7,166.1 597.9,166.2 598.1,165.1 598.3,164.0 598.5,161.7 598.7,163.7 598.9,161.2 599.2,161.1 599.4,162.3 599.6,160.6 599.8,162.7 600.0,161.7 600.2,162.0 600.4,161.4 600.6,159.7 600.8,161.8 601.1,160.2 601.3,157.0 601.5,156.6 601.7,157.5 601.9,162.8 602.1,163.9 602.3,167.4 602.5,167.7 602.8,166.7 603.0,166.3 603.2,166.6 603.4,165.5 603.6,163.6 603.8,159.1 604.0,159.2 604.2,156.6 604.5,155.3 604.7,156.2 604.9,156.2 605.1,157.1 605.3,161.4 605.5,159.8 605.7,159.3 605.9,156.7 606.1,155.8 606.4,155.3 606.6,154.2 606.8,150.7 607.0,154.8 607.2,155.1 607.4,155.3 607.6,154.4 607.8,156.4 608.1,155.7 608.3,155.8 608.5,157.0 608.7,155.7 608.9,154.7 609.1,158.7 609.3,155.4 609.5,155.8 609.7,157.8 610.0,155.4 610.2,152.7 610.4,157.0 610.6,161.0 610.8,158.9 611.0,157.0 611.2,151.7 611.4,149.7 611.7,150.5 611.9,151.8 612.1,150.3 612.3,148.8 612.5,145.4 612.7,148.4 612.9,146.1 613.1,147.5 613.4,145.9 613.6,141.7 613.8,139.8 614.0,142.0 614.2,146.6 614.4,145.3 614.6,145.1 614.8,145.3 615.0,145.1 615.3,144.3 615.5,146.3 615.7,147.3 615.9,148.7 616.1,148.2 616.3,151.7 616.5,150.5 616.7,151.1 617.0,149.9 617.2,153.2 617.4,155.8 617.6,159.1 617.8,162.0 618.0,162.8 618.2,157.5 618.4,155.7 618.6,157.7 618.9,156.4 619.1,155.9 619.3,154.5 619.5,153.7 619.7,151.8 619.9,150.8 620.1,153.8 620.3,153.0 620.6,153.9 620.8,159.9 621.0,158.6 621.2,154.8 621.4,158.1 621.6,158.6 621.8,155.6 622.0,157.0 622.3,157.0 622.5,158.8 622.7,161.6 622.9,160.2 623.1,160.6 623.3,158.5 623.5,158.9 623.7,162.0 623.9,161.2 624.2,159.4 624.4,160.2 624.6,161.4 624.8,160.9 625.0,160.2 625.2,157.5 625.4,160.4 625.6,160.0 625.9,161.7 626.1,159.4 626.3,159.7 626.5,157.3 626.7,162.2 626.9,163.1 627.1,165.9 627.3,168.4 627.5,166.7 627.8,164.9 628.0,167.6 628.2,169.6 628.4,170.3 628.6,169.9 628.8,169.1 629.0,170.4 629.2,169.3 629.5,167.8 629.7,170.4 629.9,169.6 630.1,168.8 630.3,167.9 630.5,166.3 630.7,165.5 630.9,166.8 631.2,166.5 631.4,167.3 631.6,166.3 631.8,166.6 632.0,167.6 632.2,168.9 632.4,165.4 632.6,162.6 632.8,169.9 633.1,182.0 633.3,186.7 633.5,191.2 633.7,179.5 633.9,189.7 634.1,189.2 634.3,187.7 634.5,183.7 634.8,182.9 635.0,184.4 635.2,184.4 635.4,184.0 635.6,183.4 635.8,183.4 636.0,182.9 636.2,182.1 636.5,183.4 636.7,186.1 636.9,188.1 637.1,185.9 637.3,187.4 637.5,187.2 637.7,186.7 637.9,187.6 638.1,186.6 638.4,183.3 638.6,182.5 638.8,181.6 639.0,183.7 639.2,183.8 639.4,182.7 639.6,186.2 639.8,187.5 640.1,186.9 640.3,187.4 640.5,187.8 640.7,188.7 640.9,189.0 641.1,186.6 641.3,186.4 641.5,186.1 641.7,187.1 642.0,188.6 642.2,187.2 642.4,185.9 642.6,183.2 642.8,181.6 643.0,183.0 643.2,179.3 643.4,181.5 643.7,179.3 643.9,179.7 644.1,178.1 644.3,180.3 644.5,183.4 644.7,184.5 644.9,184.1 645.1,181.7 645.4,184.4 645.6,183.5 645.8,182.7 646.0,183.2 646.2,183.7 646.4,184.0 646.6,183.5 646.8,183.7 647.0,184.9 647.3,185.3 647.5,183.9 647.7,180.3 647.9,180.9 648.1,181.2 648.3,180.0 648.5,181.0 648.7,180.6 649.0,181.0 649.2,180.7 649.4,181.5 649.6,180.6 649.8,179.4 650.0,179.7 650.2,182.2 650.4,184.9 650.6,182.5 650.9,184.4 651.1,182.4 651.3,182.3 651.5,182.2 651.7,181.7 651.9,183.4 652.1,182.5 652.3,183.0 652.6,182.7 652.8,184.4 653.0,182.3 653.2,179.8 653.4,180.0 653.6,182.2 653.8,181.6 654.0,179.7 654.3,181.4 654.5,180.7 654.7,177.6 654.9,178.8 655.1,177.6 655.3,179.5 655.5,180.5 655.7,179.3 655.9,177.2 656.2,178.2 656.4,177.5 656.6,177.3 656.8,173.0 657.0,174.8 657.2,174.3 657.4,174.6 657.6,174.2 657.9,172.3 658.1,167.9 658.3,166.0 658.5,165.4 658.7,170.4 658.9,169.8 659.1,168.5 659.3,171.5 659.5,169.3 659.8,167.7 660.0,167.2 660.2,168.0 660.4,172.6 660.6,175.7 660.8,175.5 661.0,175.3 661.2,177.4 661.5,176.2 661.7,174.5 661.9,173.5 662.1,173.1 662.3,172.5 662.5,174.6 662.7,173.3 662.9,174.0 663.2,174.8 663.4,173.9 663.6,173.8 663.8,174.3 664.0,175.8 664.2,171.3 664.4,170.3 664.6,169.4 664.8,165.0 665.1,161.4 665.3,162.4 665.5,164.0 665.7,164.3 665.9,165.2 666.1,162.5 666.3,163.1 666.5,164.2 666.8,165.1 667.0,164.4 667.2,166.8 667.4,163.6 667.6,164.0 667.8,163.4 668.0,162.2 668.2,164.9 668.5,160.2 668.7,155.7 668.9,157.1 669.1,157.7 669.3,162.2 669.5,158.3 669.7,159.5 669.9,159.1 670.1,160.2 670.4,164.8 670.6,161.4 670.8,163.1 671.0,163.9 671.2,160.7 671.4,160.0 671.6,161.1 671.8,161.6 672.1,160.4 672.3,162.2 672.5,162.0 672.7,167.9 672.9,169.3 673.1,168.7 673.3,167.8 673.5,164.9 673.7,164.1 674.0,162.5 674.2,163.8 674.4,162.5 674.6,157.7 674.8,157.7 675.0,161.1 675.2,155.3 675.4,157.9 675.7,156.5 675.9,154.5 676.1,152.3 676.3,150.5 676.5,146.1 676.7,145.8 676.9,149.5 677.1,145.8 677.4,142.6 677.6,145.9 677.8,142.2 678.0,141.6 678.2,146.8 678.4,143.1 678.6,144.8 678.8,144.7 679.0,144.5 679.3,142.8 679.5,140.1 679.7,140.9 679.9,141.1 680.1,138.1 680.3,141.1 680.5,138.7 680.7,136.4 681.0,132.4 681.2,137.9 681.4,137.3 681.6,135.0 681.8,137.0 682.0,135.7 682.2,134.1 682.4,133.9 682.6,132.9 682.9,133.6 683.1,131.6 683.3,130.6 683.5,129.2 683.7,128.5 683.9,124.6 684.1,129.3 684.3,128.7 684.6,128.3 684.8,129.8 685.0,123.5 685.2,128.5 685.4,129.8 685.6,134.0 685.8,130.5 686.0,129.5 686.3,126.3 686.5,131.4 686.7,134.8 686.9,130.9 687.1,129.3 687.3,133.2 687.5,134.3 687.7,134.4 687.9,138.2 688.2,136.6 688.4,133.2 688.6,131.3 688.8,126.1 689.0,126.6 689.2,126.9 689.4,124.7 689.6,119.1 689.9,116.6 690.1,116.3 690.3,116.6 690.5,115.6 690.7,122.6 690.9,122.3 691.1,123.9 691.3,121.8 691.5,117.5 691.8,120.9 692.0,117.3 692.2,113.1 692.4,111.5 692.6,114.2 692.8,114.2 693.0,113.9 693.2,118.8 693.5,118.4 693.7,121.0 693.9,120.7 694.1,125.2 694.3,119.6 694.5,115.8 694.7,115.6 694.9,113.6 695.2,117.6 695.4,114.7 695.6,117.3 695.8,116.9 696.0,112.7"/>
  <polyline fill="none" stroke="#16a34a" stroke-width="2" points="56.0,99.7 56.2,104.4 56.4,105.7 56.6,104.1 56.8,103.1 57.1,104.0 57.3,103.3 57.5,93.4 57.7,84.9 57.9,81.5 58.1,80.9 58.3,85.3 58.5,84.4 58.8,86.5 59.0,90.0 59.2,89.3 59.4,88.6 59.6,90.0 59.8,91.9 60.0,92.2 60.2,92.1 60.5,89.9 60.7,88.4 60.9,87.2 61.1,81.5 61.3,75.7 61.5,81.8 61.7,85.7 61.9,85.7 62.1,88.2 62.4,88.2 62.6,85.6 62.8,87.2 63.0,88.2 63.2,92.6 63.4,92.4 63.6,92.3 63.8,80.7 64.1,80.0 64.3,72.0 64.5,65.9 64.7,66.6 64.9,75.4 65.1,76.2 65.3,84.7 65.5,75.3 65.7,79.1 66.0,80.4 66.2,80.5 66.4,80.9 66.6,78.1 66.8,81.5 67.0,81.8 67.2,83.4 67.4,85.0 67.7,85.4 67.9,83.2 68.1,83.4 68.3,80.8 68.5,82.6 68.7,81.2 68.9,80.9 69.1,80.3 69.4,84.5 69.6,84.0 69.8,87.3 70.0,86.3 70.2,89.2 70.4,89.0 70.6,92.9 70.8,103.5 71.0,107.0 71.3,105.5 71.5,106.3 71.7,108.5 71.9,107.2 72.1,107.9 72.3,106.2 72.5,105.7 72.7,113.6 73.0,112.7 73.2,115.1 73.4,115.4 73.6,114.4 73.8,111.4 74.0,110.7 74.2,115.1 74.4,114.6 74.6,113.6 74.9,112.7 75.1,114.2 75.3,115.5 75.5,119.1 75.7,123.8 75.9,132.3 76.1,132.7 76.3,123.5 76.6,122.3 76.8,121.2 77.0,115.4 77.2,116.7 77.4,111.6 77.6,111.3 77.8,115.9 78.0,112.0 78.3,111.0 78.5,113.0 78.7,114.1 78.9,114.6 79.1,119.7 79.3,108.9 79.5,105.0 79.7,104.4 79.9,106.0 80.2,104.4 80.4,103.3 80.6,110.0 80.8,108.0 81.0,106.9 81.2,109.4 81.4,110.0 81.6,103.5 81.9,100.6 82.1,102.8 82.3,97.4 82.5,102.8 82.7,112.9 82.9,115.9 83.1,121.4 83.3,118.5 83.5,110.0 83.8,114.7 84.0,115.4 84.2,132.2 84.4,131.0 84.6,143.8 84.8,143.3 85.0,148.6 85.2,146.1 85.5,142.4 85.7,130.4 85.9,124.8 86.1,128.8 86.3,133.7 86.5,126.3 86.7,127.0 86.9,125.7 87.2,133.6 87.4,139.8 87.6,141.1 87.8,144.3 88.0,147.1 88.2,146.1 88.4,146.5 88.6,148.3 88.8,167.0 89.1,168.2 89.3,167.4 89.5,176.5 89.7,168.3 89.9,168.1 90.1,179.9 90.3,179.7 90.5,178.3 90.8,171.6 91.0,166.5 91.2,165.5 91.4,171.5 91.6,168.7 91.8,160.0 92.0,157.5 92.2,135.5 92.5,142.6 92.7,143.6 92.9,149.8 93.1,153.2 93.3,160.1 93.5,154.7 93.7,152.7 93.9,143.2 94.1,144.5 94.4,149.0 94.6,142.9 94.8,145.4 95.0,149.4 95.2,138.6 95.4,135.5 95.6,139.7 95.8,133.4 96.1,138.1 96.3,134.4 96.5,133.6 96.7,135.6 96.9,141.3 97.1,144.8 97.3,149.8 97.5,147.1 97.7,153.3 98.0,154.3 98.2,152.1 98.4,148.3 98.6,141.2 98.8,147.7 99.0,145.8 99.2,145.3 99.4,145.8 99.7,145.4 99.9,145.4 100.1,144.9 100.3,146.2 100.5,144.3 100.7,138.7 100.9,134.2 101.1,126.6 101.4,126.0 101.6,129.8 101.8,130.2 102.0,126.1 102.2,121.6 102.4,118.6 102.6,120.0 102.8,123.5 103.0,124.2 103.3,125.0 103.5,130.8 103.7,130.5 103.9,129.7 104.1,133.0 104.3,135.6 104.5,135.4 104.7,126.8 105.0,124.0 105.2,126.1 105.4,126.4 105.6,129.9 105.8,124.3 106.0,126.0 106.2,122.5 106.4,121.6 106.6,121.3 106.9,123.8 107.1,128.3 107.3,125.8 107.5,128.1 107.7,127.3 107.9,125.8 108.1,125.3 108.3,125.0 108.6,126.2 108.8,126.8 109.0,129.2 109.2,122.3 109.4,121.0 109.6,122.2 109.8,125.4 110.0,131.7 110.3,130.0 110.5,130.0 110.7,130.5 110.9,126.5 111.1,130.7 111.3,134.2 111.5,131.0 111.7,133.0 111.9,130.7 112.2,132.8 112.4,133.6 112.6,130.3 112.8,130.2 113.0,128.2 113.2,131.4 113.4,133.5 113.6,136.4 113.9,134.1 114.1,137.9 114.3,137.9 114.5,142.1 114.7,140.4 114.9,143.6 115.1,145.1 115.3,148.1 115.5,148.5 115.8,144.6 116.0,149.0 116.2,149.3 116.4,150.7 116.6,156.0 116.8,154.7 117.0,154.5 117.2,156.5 117.5,159.5 117.7,167.6 117.9,164.4 118.1,159.3 118.3,159.5 118.5,163.3 118.7,167.0 118.9,166.8 119.2,165.8 119.4,167.3 119.6,161.8 119.8,162.1 120.0,160.2 120.2,165.5 120.4,167.3 120.6,171.5 120.8,171.5 121.1,178.3 121.3,179.5 121.5,181.0 121.7,186.3 121.9,183.9 122.1,179.1 122.3,170.1 122.5,163.1 122.8,158.9 123.0,165.5 123.2,173.1 123.4,169.4 123.6,169.4 123.8,168.6 124.0,176.8 124.2,174.3 124.5,181.0 124.7,179.2 124.9,175.3 125.1,167.9 125.3,163.0 125.5,169.9 125.7,166.4 125.9,166.4 126.1,167.7 126.4,169.2 126.6,168.3 126.8,179.3 127.0,174.7 127.2,172.6 127.4,172.7 127.6,169.1 127.8,159.6 128.1,155.6 128.3,150.5 128.5,150.0 128.7,156.0 128.9,158.7 129.1,156.5 129.3,154.8 129.5,162.6 129.7,168.4 130.0,169.6 130.2,172.6 130.4,167.4 130.6,169.4 130.8,173.0 131.0,178.5 131.2,173.6 131.4,173.8 131.7,170.3 131.9,169.2 132.1,166.8 132.3,166.8 132.5,166.1 132.7,168.6 132.9,167.9 133.1,168.1 133.4,170.8 133.6,173.8 133.8,174.3 134.0,167.3 134.2,171.9 134.4,169.7 134.6,167.9 134.8,170.6 135.0,170.0 135.3,169.3 135.5,170.0 135.7,170.0 135.9,172.0 136.1,170.8 136.3,169.9 136.5,174.5 136.7,178.8 137.0,184.2 137.2,192.1 137.4,187.3 137.6,187.6 137.8,185.9 138.0,191.8 138.2,196.2 138.4,192.7 138.6,192.3 138.9,197.4 139.1,197.1 139.3,193.6 139.5,196.0 139.7,187.1 139.9,188.4 140.1,190.3 140.3,193.9 140.6,194.2 140.8,191.6 141.0,190.8 141.2,197.8 141.4,207.3 141.6,206.7 141.8,211.1 142.0,212.5 142.3,208.9 142.5,204.4 142.7,206.2 142.9,207.4 143.1,209.3 143.3,217.8 143.5,216.9 143.7,214.9 143.9,218.6 144.2,215.3 144.4,216.8 144.6,210.8 144.8,206.6 145.0,213.4 145.2,214.9 145.4,210.1 145.6,206.3 145.9,209.6 146.1,210.1 146.3,211.2 146.5,211.9 146.7,211.9 146.9,210.9 147.1,208.8 147.3,201.7 147.5,205.3 147.8,206.9 148.0,203.0 148.2,205.0 148.4,203.8 148.6,202.5 148.8,197.6 149.0,193.5 149.2,191.9 149.5,186.4 149.7,181.8 149.9,177.3 150.1,170.0 150.3,180.0 150.5,180.1 150.7,178.8 150.9,176.4 151.2,179.2 151.4,178.5 151.6,177.7 151.8,173.8 152.0,168.9 152.2,169.3 152.4,172.2 152.6,177.3 152.8,174.5 153.1,177.6 153.3,178.6 153.5,179.2 153.7,177.2 153.9,180.8 154.1,187.1 154.3,187.4 154.5,185.6 154.8,189.3 155.0,186.3 155.2,187.9 155.4,180.8 155.6,180.6 155.8,179.9 156.0,181.8 156.2,182.5 156.5,174.7 156.7,168.5 156.9,170.1 157.1,172.3 157.3,174.0 157.5,173.9 157.7,165.9 157.9,165.3 158.1,166.0 158.4,173.4 158.6,175.8 158.8,178.8 159.0,177.2 159.2,176.3 159.4,182.3 159.6,179.2 159.8,177.7 160.1,179.1 160.3,181.2 160.5,175.5 160.7,171.5 160.9,174.1 161.1,173.7 161.3,173.6 161.5,171.8 161.7,169.2 162.0,170.8 162.2,173.1 162.4,174.5 162.6,172.5 162.8,176.1 163.0,176.7 163.2,178.3 163.4,175.4 163.7,171.0 163.9,172.0 164.1,172.9 164.3,178.2 164.5,181.7 164.7,182.0 164.9,184.2 165.1,184.5 165.4,183.4 165.6,179.3 165.8,178.4 166.0,180.2 166.2,176.6 166.4,181.7 166.6,183.3 166.8,182.1 167.0,178.3 167.3,177.9 167.5,176.2 167.7,177.5 167.9,177.0 168.1,178.3 168.3,176.6 168.5,176.5 168.7,172.1 169.0,170.7 169.2,171.6 169.4,175.2 169.6,176.3 169.8,175.2 170.0,171.6 170.2,171.8 170.4,170.1 170.6,173.2 170.9,169.3 171.1,175.1 171.3,174.3 171.5,172.3 171.7,174.0 171.9,169.6 172.1,168.8 172.3,167.8 172.6,164.3 172.8,165.6 173.0,166.9 173.2,163.6 173.4,162.6 173.6,159.0 173.8,160.2 174.0,162.9 174.3,162.5 174.5,162.7 174.7,164.9 174.9,163.4 175.1,166.4 175.3,166.8 175.5,165.9 175.7,167.3 175.9,169.6 176.2,170.5 176.4,169.4 176.6,169.0 176.8,168.1 177.0,164.6 177.2,162.0 177.4,161.2 177.6,160.5 177.9,163.1 178.1,167.0 178.3,164.2 178.5,167.1 178.7,167.1 178.9,166.8 179.1,165.4 179.3,164.5 179.5,165.7 179.8,166.6 180.0,168.6 180.2,165.0 180.4,163.4 180.6,163.9 180.8,158.3 181.0,157.9 181.2,154.0 181.5,153.0 181.7,152.3 181.9,151.6 182.1,153.0 182.3,153.0 182.5,151.1 182.7,151.1 182.9,149.7 183.2,145.6 183.4,143.3 183.6,141.8 183.8,144.2 184.0,143.6 184.2,147.1 184.4,146.3 184.6,147.0 184.8,148.8 185.1,143.2 185.3,147.2 185.5,150.1 185.7,151.3 185.9,148.9 186.1,150.4 186.3,151.3 186.5,152.3 186.8,156.0 187.0,154.1 187.2,145.8 187.4,148.3 187.6,145.9 187.8,147.1 188.0,136.4 188.2,134.9 188.5,135.4 188.7,135.6 188.9,139.0 189.1,138.1 189.3,140.7 189.5,126.1 189.7,119.4 189.9,127.2 190.1,124.5 190.4,123.6 190.6,123.2 190.8,123.5 191.0,124.1 191.2,122.2 191.4,123.8 191.6,128.5 191.8,133.9 192.1,133.7 192.3,131.3 192.5,128.7 192.7,129.1 192.9,131.0 193.1,131.8 193.3,130.0 193.5,130.8 193.7,131.4 194.0,133.2 194.2,130.2 194.4,130.0 194.6,128.6 194.8,128.3 195.0,126.1 195.2,126.6 195.4,123.6 195.7,125.0 195.9,126.8 196.1,125.8 196.3,132.3 196.5,133.4 196.7,133.3 196.9,138.6 197.1,134.3 197.4,135.5 197.6,137.7 197.8,138.7 198.0,142.5 198.2,140.4 198.4,140.2 198.6,140.4 198.8,143.0 199.0,146.7 199.3,148.3 199.5,145.9 199.7,143.0 199.9,141.8 200.1,146.1 200.3,146.6 200.5,147.8 200.7,142.8 201.0,144.2 201.2,142.1 201.4,146.5 201.6,144.6 201.8,144.2 202.0,139.4 202.2,136.9 202.4,141.9 202.6,142.8 202.9,144.6 203.1,144.8 203.3,146.2 203.5,154.1 203.7,153.6 203.9,152.2 204.1,149.3 204.3,153.5 204.6,149.8 204.8,150.5 205.0,153.5 205.2,154.5 205.4,157.2 205.6,158.7 205.8,158.2 206.0,159.4 206.3,158.6 206.5,155.0 206.7,149.2 206.9,156.3 207.1,155.7 207.3,154.0 207.5,150.5 207.7,149.8 207.9,146.9 208.2,148.7 208.4,147.0 208.6,147.8 208.8,149.5 209.0,150.3 209.2,148.3 209.4,149.8 209.6,149.5 209.9,150.4 210.1,149.3 210.3,150.4 210.5,146.6 210.7,147.3 210.9,147.5 211.1,145.1 211.3,146.1 211.5,148.3 211.8,148.9 212.0,153.2 212.2,149.0 212.4,148.2 212.6,150.2 212.8,146.3 213.0,147.1 213.2,147.2 213.5,146.5 213.7,146.9 213.9,149.6 214.1,150.5 214.3,144.3 214.5,145.3 214.7,144.2 214.9,146.1 215.2,144.0 215.4,142.3 215.6,143.0 215.8,149.0 216.0,150.5 216.2,151.7 216.4,150.6 216.6,146.9 216.8,151.8 217.1,148.1 217.3,146.1 217.5,148.3 217.7,146.7 217.9,151.2 218.1,151.6 218.3,147.1 218.5,148.4 218.8,155.0 219.0,156.7 219.2,154.0 219.4,150.9 219.6,147.9 219.8,148.4 220.0,147.5 220.2,147.3 220.5,146.5 220.7,146.3 220.9,149.6 221.1,150.6 221.3,156.7 221.5,156.5 221.7,155.5 221.9,154.0 222.1,154.3 222.4,155.4 222.6,155.5 222.8,155.2 223.0,149.4 223.2,151.7 223.4,151.3 223.6,151.1 223.8,139.4 224.1,139.9 224.3,136.5 224.5,137.8 224.7,137.6 224.9,136.2 225.1,137.4 225.3,137.1 225.5,138.6 225.7,143.8 226.0,146.3 226.2,147.3 226.4,150.1 226.6,153.2 226.8,154.8 227.0,155.0 227.2,156.2 227.4,157.6 227.7,157.4 227.9,151.7 228.1,150.1 228.3,148.9 228.5,150.7 228.7,153.8 228.9,152.8 229.1,150.8 229.4,147.7 229.6,148.6 229.8,147.5 230.0,145.6 230.2,145.8 230.4,145.9 230.6,142.4 230.8,141.9 231.0,135.5 231.3,132.3 231.5,133.6 231.7,131.3 231.9,132.4 232.1,129.3 232.3,128.8 232.5,128.5 232.7,124.2 233.0,126.2 233.2,128.7 233.4,130.2 233.6,131.5 233.8,132.0 234.0,131.6 234.2,132.6 234.4,129.3 234.6,132.9 234.9,132.1 235.1,130.9 235.3,135.7 235.5,133.7 235.7,131.8 235.9,131.0 236.1,131.0 236.3,131.9 236.6,132.5 236.8,132.4 237.0,132.4 237.2,134.6 237.4,133.4 237.6,119.1 237.8,113.5 238.0,116.4 238.3,116.2 238.5,118.3 238.7,113.6 238.9,108.0 239.1,109.5 239.3,113.2 239.5,112.6 239.7,115.0 239.9,116.6 240.2,126.8 240.4,127.0 240.6,128.0 240.8,126.0 241.0,130.1 241.2,129.7 241.4,127.8 241.6,127.3 241.9,126.3 242.1,127.8 242.3,127.5 242.5,128.7 242.7,120.0 242.9,119.8 243.1,120.4 243.3,119.6 243.5,124.0 243.8,128.8 244.0,130.2 244.2,132.9 244.4,132.0 244.6,131.0 244.8,132.4 245.0,133.7 245.2,133.6 245.5,133.9 245.7,134.9 245.9,134.0 246.1,132.9 246.3,130.1 246.5,129.4 246.7,130.7 246.9,126.3 247.2,124.9 247.4,129.2 247.6,132.4 247.8,133.9 248.0,133.1 248.2,130.8 248.4,126.0 248.6,128.2 248.8,129.5 249.1,131.3 249.3,130.9 249.5,129.5 249.7,132.0 249.9,133.1 250.1,135.0 250.3,135.6 250.5,136.1 250.8,136.2 251.0,136.3 251.2,137.0 251.4,140.7 251.6,142.4 251.8,141.9 252.0,144.6 252.2,145.4 252.5,147.5 252.7,151.0 252.9,152.0 253.1,148.9 253.3,149.9 253.5,149.3 253.7,149.4 253.9,147.5 254.1,149.6 254.4,149.5 254.6,147.8 254.8,146.8 255.0,146.8 255.2,149.7 255.4,153.2 255.6,155.8 255.8,155.7 256.1,154.1 256.3,154.5 256.5,156.7 256.7,157.1 256.9,156.9 257.1,160.7 257.3,163.9 257.5,164.7 257.7,164.6 258.0,163.0 258.2,163.6 258.4,159.0 258.6,155.2 258.8,154.1 259.0,156.7 259.2,154.5 259.4,157.2 259.7,158.2 259.9,155.0 260.1,156.5 260.3,156.3 260.5,156.9 260.7,151.1 260.9,153.0 261.1,153.8 261.4,148.9 261.6,146.7 261.8,145.7 262.0,144.7 262.2,145.9 262.4,146.2 262.6,140.6 262.8,140.3 263.0,138.1 263.3,132.4 263.5,147.3 263.7,150.5 263.9,151.6 264.1,152.3 264.3,153.2 264.5,154.8 264.7,155.2 265.0,157.4 265.2,157.9 265.4,156.4 265.6,160.7 265.8,161.1 266.0,162.7 266.2,163.2 266.4,162.6 266.6,161.2 266.9,159.5 267.1,154.1 267.3,153.6 267.5,155.3 267.7,157.9 267.9,164.7 268.1,168.3 268.3,168.4 268.6,166.8 268.8,166.8 269.0,164.1 269.2,164.9 269.4,163.7 269.6,163.0 269.8,163.2 270.0,161.0 270.3,165.4 270.5,166.9 270.7,167.2 270.9,167.6 271.1,167.1 271.3,166.8 271.5,164.2 271.7,165.2 271.9,165.9 272.2,170.5 272.4,169.1 272.6,172.0 272.8,171.1 273.0,166.4 273.2,166.8 273.4,168.9 273.6,168.9 273.9,169.6 274.1,173.6 274.3,172.5 274.5,173.1 274.7,174.1 274.9,177.2 275.1,177.9 275.3,173.5 275.5,176.2 275.8,175.5 276.0,176.0 276.2,174.3 276.4,174.0 276.6,170.3 276.8,181.2 277.0,179.3 277.2,178.0 277.5,180.2 277.7,179.6 277.9,176.9 278.1,179.8 278.3,181.0 278.5,180.9 278.7,183.5 278.9,185.0 279.2,183.3 279.4,184.0 279.6,183.0 279.8,183.0 280.0,184.5 280.2,183.6 280.4,183.7 280.6,185.3 280.8,181.7 281.1,178.1 281.3,177.4 281.5,177.7 281.7,179.5 281.9,181.2 282.1,180.9 282.3,179.9 282.5,181.2 282.8,183.2 283.0,184.5 283.2,184.3 283.4,176.8 283.6,180.5 283.8,182.9 284.0,182.5 284.2,182.2 284.5,182.5 284.7,187.1 284.9,184.7 285.1,186.2 285.3,188.4 285.5,188.0 285.7,183.7 285.9,184.4 286.1,187.3 286.4,188.1 286.6,189.4 286.8,185.9 287.0,187.1 287.2,180.7 287.4,183.2 287.6,186.1 287.8,185.7 288.1,192.5 288.3,195.3 288.5,197.1 288.7,197.7 288.9,194.4 289.1,194.1 289.3,194.7 289.5,193.5 289.7,193.7 290.0,195.1 290.2,200.3 290.4,200.0 290.6,195.9 290.8,200.0 291.0,204.9 291.2,206.2 291.4,203.7 291.7,203.7 291.9,208.4 292.1,207.0 292.3,206.9 292.5,208.7 292.7,210.3 292.9,211.8 293.1,216.7 293.4,218.3 293.6,217.3 293.8,217.3 294.0,214.2 294.2,213.7 294.4,210.1 294.6,212.2 294.8,216.3 295.0,216.6 295.3,219.5 295.5,219.3 295.7,220.5 295.9,217.8 296.1,219.0 296.3,220.0 296.5,219.4 296.7,226.1 297.0,226.2 297.2,229.0 297.4,230.2 297.6,229.1 297.8,223.3 298.0,227.8 298.2,227.5 298.4,224.2 298.6,222.2 298.9,224.1 299.1,223.4 299.3,227.8 299.5,226.4 299.7,222.2 299.9,220.8 300.1,216.9 300.3,218.4 300.6,215.5 300.8,214.4 301.0,219.5 301.2,217.8 301.4,213.4 301.6,214.0 301.8,214.6 302.0,211.6 302.3,208.9 302.5,208.0 302.7,208.6 302.9,208.0 303.1,212.0 303.3,212.7 303.5,211.2 303.7,211.1 303.9,212.1 304.2,210.4 304.4,211.2 304.6,212.6 304.8,211.8 305.0,210.3 305.2,209.2 305.4,210.6 305.6,212.6 305.9,214.3 306.1,214.7 306.3,217.1 306.5,216.5 306.7,215.3 306.9,215.1 307.1,211.6 307.3,207.4 307.5,207.3 307.8,206.2 308.0,204.0 308.2,208.0 308.4,211.0 308.6,211.4 308.8,208.2 309.0,207.5 309.2,208.5 309.5,210.4 309.7,211.3 309.9,214.6 310.1,212.2 310.3,212.3 310.5,208.4 310.7,210.2 310.9,210.9 311.2,211.2 311.4,212.9 311.6,212.1 311.8,212.2 312.0,215.4 312.2,216.1 312.4,215.2 312.6,215.4 312.8,216.8 313.1,218.8 313.3,217.0 313.5,216.8 313.7,216.4 313.9,215.7 314.1,213.0 314.3,212.4 314.5,213.4 314.8,211.9 315.0,212.1 315.2,211.1 315.4,211.2 315.6,210.9 315.8,211.0 316.0,212.3 316.2,210.4 316.5,205.1 316.7,203.7 316.9,204.3 317.1,209.4 317.3,210.0 317.5,210.6 317.7,212.7 317.9,215.4 318.1,214.9 318.4,214.1 318.6,215.3 318.8,214.2 319.0,214.2 319.2,215.2 319.4,217.1 319.6,214.4 319.8,213.7 320.1,213.4 320.3,214.6 320.5,214.0 320.7,217.7 320.9,220.9 321.1,220.5 321.3,218.9 321.5,218.7 321.7,217.9 322.0,219.4 322.2,219.8 322.4,220.2 322.6,219.3 322.8,220.0 323.0,221.4 323.2,221.3 323.4,220.6 323.7,220.4 323.9,221.5 324.1,222.3 324.3,223.0 324.5,220.1 324.7,217.9 324.9,218.6 325.1,215.3 325.4,216.8 325.6,216.7 325.8,216.6 326.0,213.6 326.2,215.0 326.4,216.3 326.6,217.8 326.8,216.8 327.0,216.6 327.3,216.2 327.5,215.9 327.7,215.5 327.9,213.3 328.1,212.5 328.3,211.7 328.5,211.3 328.7,214.3 329.0,216.3 329.2,217.4 329.4,217.4 329.6,218.4 329.8,218.2 330.0,218.3 330.2,222.0 330.4,225.5 330.6,226.7 330.9,223.1 331.1,220.8 331.3,220.8 331.5,221.8 331.7,226.7 331.9,227.6 332.1,226.8 332.3,225.9 332.6,227.3 332.8,227.5 333.0,230.6 333.2,232.2 333.4,229.0 333.6,226.4 333.8,227.5 334.0,226.5 334.3,227.5 334.5,229.4 334.7,229.6 334.9,229.7 335.1,226.2 335.3,225.1 335.5,225.8 335.7,225.5 335.9,224.8 336.2,222.3 336.4,221.6 336.6,218.7 336.8,216.4 337.0,215.5 337.2,216.6 337.4,215.7 337.6,210.7 337.9,212.1 338.1,212.7 338.3,213.2 338.5,213.4 338.7,213.6 338.9,215.4 339.1,215.4 339.3,214.9 339.5,216.3 339.8,215.8 340.0,219.1 340.2,222.1 340.4,224.1 340.6,223.9 340.8,224.5 341.0,227.5 341.2,228.2 341.5,228.2 341.7,227.5 341.9,229.6 342.1,230.1 342.3,232.2 342.5,235.6 342.7,235.8 342.9,236.9 343.2,236.4 343.4,238.7 343.6,237.7 343.8,239.2 344.0,249.5 344.2,252.2 344.4,251.0 344.6,249.9 344.8,247.0 345.1,246.3 345.3,247.3 345.5,249.1 345.7,247.8 345.9,246.3 346.1,247.5 346.3,247.2 346.5,247.6 346.8,245.3 347.0,245.5 347.2,246.6 347.4,245.4 347.6,244.6 347.8,244.0 348.0,244.3 348.2,244.6 348.5,243.7 348.7,244.4 348.9,245.7 349.1,247.2 349.3,247.9 349.5,246.6 349.7,245.1 349.9,241.6 350.1,241.6 350.4,241.8 350.6,242.3 350.8,239.8 351.0,239.8 351.2,238.6 351.4,236.3 351.6,236.0 351.8,235.5 352.1,236.5 352.3,237.3 352.5,236.1 352.7,237.3 352.9,236.1 353.1,236.1 353.3,237.4 353.5,235.0 353.7,230.7 354.0,229.9 354.2,231.7 354.4,231.8 354.6,234.4 354.8,236.5 355.0,236.2 355.2,237.0 355.4,234.5 355.7,233.9 355.9,233.5 356.1,233.7 356.3,235.9 356.5,237.3 356.7,238.3 356.9,242.1 357.1,240.6 357.4,238.8 357.6,238.7 357.8,240.6 358.0,240.6 358.2,239.2 358.4,235.9 358.6,234.8 358.8,237.9 359.0,237.7 359.3,237.9 359.5,239.9 359.7,240.9 359.9,241.0 360.1,241.2 360.3,239.4 360.5,239.4 360.7,241.4 361.0,245.2 361.2,249.4 361.4,252.3 361.6,253.6 361.8,253.5 362.0,251.8 362.2,253.5 362.4,252.9 362.6,252.8 362.9,256.1 363.1,271.5 363.3,273.9 363.5,278.7 363.7,284.8 363.9,281.3 364.1,281.4 364.3,285.6 364.6,288.6 364.8,285.2 365.0,285.3 365.2,290.1 365.4,285.2 365.6,282.4 365.8,282.8 366.0,288.8 366.3,287.3 366.5,285.0 366.7,284.9 366.9,283.4 367.1,282.3 367.3,280.5 367.5,280.1 367.7,275.5 367.9,275.2 368.2,275.5 368.4,277.2 368.6,280.5 368.8,283.4 369.0,280.3 369.2,278.9 369.4,278.9 369.6,274.6 369.9,272.3 370.1,274.7 370.3,274.5 370.5,273.7 370.7,268.1 370.9,267.8 371.1,270.6 371.3,269.1 371.5,269.8 371.8,272.1 372.0,271.5 372.2,271.5 372.4,272.3 372.6,269.4 372.8,273.1 373.0,273.9 373.2,272.1 373.5,271.5 373.7,266.3 373.9,269.2 374.1,272.1 374.3,275.0 374.5,273.9 374.7,273.9 374.9,273.8 375.2,274.7 375.4,273.7 375.6,271.0 375.8,270.7 376.0,269.0 376.2,266.8 376.4,263.3 376.6,265.9 376.8,268.6 377.1,272.6 377.3,271.3 377.5,272.3 377.7,271.9 377.9,275.5 378.1,274.4 378.3,274.1 378.5,274.7 378.8,274.8 379.0,277.7 379.2,278.0 379.4,279.7 379.6,278.4 379.8,277.8 380.0,278.0 380.2,278.7 380.5,277.6 380.7,279.0 380.9,280.2 381.1,281.4 381.3,278.2 381.5,279.9 381.7,279.4 381.9,278.5 382.1,278.7 382.4,278.5 382.6,279.7 382.8,276.8 383.0,279.0 383.2,280.2 383.4,278.7 383.6,279.0 383.8,278.9 384.1,277.3 384.3,278.2 384.5,278.9 384.7,275.8 384.9,276.2 385.1,274.4 385.3,273.8 385.5,271.5 385.7,272.6 386.0,270.4 386.2,271.3 386.4,270.7 386.6,270.7 386.8,271.5 387.0,270.6 387.2,272.1 387.4,273.2 387.7,271.8 387.9,271.4 388.1,271.9 388.3,271.8 388.5,271.9 388.7,272.4 388.9,272.3 389.1,274.3 389.4,274.5 389.6,273.2 389.8,278.7 390.0,277.9 390.2,278.5 390.4,278.0 390.6,278.5 390.8,278.7 391.0,276.3 391.3,275.7 391.5,277.0 391.7,277.7 391.9,277.4 392.1,279.4 392.3,278.3 392.5,278.7 392.7,277.5 393.0,279.3 393.2,279.5 393.4,280.3 393.6,279.6 393.8,278.4 394.0,279.2 394.2,278.3 394.4,276.1 394.6,276.0 394.9,276.8 395.1,277.5 395.3,277.1 395.5,277.0 395.7,278.3 395.9,277.5 396.1,278.4 396.3,276.2 396.6,277.2 396.8,279.4 397.0,279.6 397.2,280.6 397.4,280.9 397.6,280.4 397.8,278.8 398.0,277.8 398.3,278.1 398.5,277.9 398.7,277.7 398.9,273.0 399.1,272.3 399.3,272.0 399.5,274.3 399.7,272.5 399.9,270.2 400.2,270.5 400.4,271.0 400.6,269.8 400.8,270.1 401.0,265.1 401.2,260.7 401.4,263.1 401.6,263.3 401.9,262.4 402.1,266.9 402.3,267.6 402.5,266.4 402.7,267.6 402.9,263.6 403.1,264.4 403.3,264.8 403.5,264.9 403.8,260.7 404.0,262.2 404.2,263.4 404.4,262.7 404.6,265.6 404.8,266.1 405.0,265.3 405.2,267.9 405.5,269.1 405.7,266.8 405.9,267.8 406.1,268.3 406.3,267.6 406.5,268.3 406.7,268.3 406.9,263.8 407.2,264.4 407.4,263.8 407.6,263.9 407.8,264.6 408.0,261.7 408.2,262.7 408.4,259.6 408.6,263.3 408.8,263.9 409.1,260.6 409.3,260.7 409.5,262.8 409.7,265.2 409.9,264.4 410.1,266.9 410.3,266.2 410.5,265.1 410.8,265.4 411.0,262.4 411.2,263.3 411.4,262.8 411.6,260.2 411.8,261.2 412.0,257.7 412.2,260.4 412.5,258.6 412.7,259.7 412.9,253.8 413.1,251.4 413.3,251.3 413.5,252.8 413.7,254.3 413.9,251.0 414.1,250.2 414.4,248.3 414.6,249.4 414.8,250.7 415.0,250.8 415.2,251.1 415.4,248.4 415.6,247.1 415.8,246.0 416.1,245.4 416.3,244.6 416.5,242.3 416.7,240.7 416.9,241.8 417.1,242.9 417.3,243.8 417.5,244.2 417.7,246.0 418.0,244.5 418.2,244.6 418.4,246.1 418.6,246.1 418.8,246.6 419.0,245.4 419.2,246.1 419.4,246.3 419.7,246.6 419.9,244.1 420.1,245.0 420.3,244.4 420.5,244.5 420.7,244.4 420.9,244.8 421.1,244.6 421.4,244.8 421.6,243.0 421.8,242.1 422.0,244.3 422.2,244.5 422.4,250.0 422.6,250.6 422.8,252.1 423.0,252.7 423.3,251.0 423.5,250.4 423.7,248.1 423.9,248.7 424.1,249.0 424.3,247.3 424.5,246.8 424.7,247.6 425.0,247.2 425.2,246.1 425.4,246.3 425.6,246.8 425.8,246.1 426.0,247.3 426.2,245.6 426.4,242.9 426.6,245.3 426.9,247.3 427.1,247.8 427.3,247.5 427.5,248.7 427.7,247.3 427.9,247.6 428.1,247.3 428.3,248.3 428.6,243.8 428.8,244.3 429.0,244.1 429.2,245.1 429.4,247.0 429.6,247.5 429.8,247.5 430.0,247.3 430.3,246.9 430.5,245.5 430.7,240.6 430.9,241.9 431.1,245.6 431.3,245.7 431.5,241.3 431.7,239.7 431.9,236.2 432.2,233.7 432.4,233.3 432.6,235.7 432.8,237.6 433.0,237.5 433.2,237.6 433.4,236.7 433.6,238.6 433.9,240.4 434.1,240.5 434.3,240.2 434.5,239.9 434.7,240.9 434.9,243.8 435.1,244.5 435.3,246.1 435.5,248.0 435.8,245.6 436.0,244.0 436.2,244.0 436.4,243.9 436.6,244.5 436.8,245.8 437.0,245.0 437.2,243.4 437.5,244.0 437.7,243.4 437.9,247.1 438.1,246.5 438.3,246.3 438.5,247.1 438.7,242.8 438.9,242.0 439.2,242.6 439.4,244.8 439.6,246.4 439.8,246.8 440.0,246.7 440.2,249.0 440.4,248.5 440.6,245.8 440.8,244.5 441.1,245.2 441.3,244.7 441.5,244.5 441.7,245.0 441.9,244.8 442.1,245.7 442.3,243.7 442.5,245.5 442.8,246.3 443.0,247.7 443.2,249.3 443.4,247.8 443.6,246.6 443.8,246.6 444.0,244.0 444.2,243.1 444.5,245.3 444.7,248.1 444.9,248.7 445.1,247.0 445.3,246.5 445.5,245.4 445.7,242.9 445.9,245.6 446.1,245.5 446.4,246.9 446.6,245.6 446.8,243.6 447.0,241.3 447.2,241.9 447.4,237.4 447.6,236.7 447.8,237.1 448.1,238.4 448.3,235.5 448.5,234.8 448.7,235.2 448.9,235.1 449.1,233.1 449.3,234.6 449.5,232.4 449.7,231.0 450.0,230.6 450.2,233.4 450.4,233.9 450.6,236.1 450.8,234.6 451.0,236.3 451.2,237.2 451.4,237.4 451.7,236.6 451.9,233.8 452.1,233.0 452.3,235.4 452.5,234.6 452.7,234.9 452.9,234.4 453.1,232.7 453.4,235.8 453.6,238.1 453.8,241.3 454.0,241.3 454.2,239.5 454.4,237.9 454.6,237.8 454.8,244.0 455.0,244.1 455.3,244.1 455.5,246.6 455.7,246.9 455.9,246.2 456.1,245.3 456.3,243.8 456.5,244.0 456.7,244.0 457.0,244.0 457.2,246.3 457.4,247.8 457.6,248.8 457.8,247.6 458.0,249.2 458.2,249.0 458.4,247.1 458.6,246.3 458.9,247.5 459.1,247.5 459.3,246.8 459.5,246.6 459.7,246.1 459.9,244.0 460.1,245.1 460.3,242.1 460.6,243.8 460.8,244.0 461.0,242.4 461.2,239.9 461.4,240.5 461.6,239.6 461.8,238.1 462.0,238.3 462.3,239.9 462.5,241.1 462.7,242.3 462.9,242.7 463.1,239.6 463.3,237.6 463.5,235.6 463.7,231.7 463.9,229.0 464.2,226.5 464.4,226.2 464.6,225.4 464.8,224.0 465.0,223.2 465.2,225.1 465.4,224.2 465.6,224.1 465.9,223.3 466.1,224.2 466.3,224.4 466.5,225.8 466.7,226.4 466.9,227.3 467.1,228.3 467.3,228.5 467.5,228.7 467.8,228.5 468.0,224.1 468.2,223.7 468.4,223.9 468.6,225.2 468.8,222.5 469.0,221.9 469.2,221.9 469.5,222.6 469.7,222.2 469.9,222.1 470.1,225.6 470.3,224.7 470.5,222.9 470.7,222.0 470.9,224.4 471.2,222.1 471.4,223.0 471.6,222.1 471.8,222.1 472.0,219.9 472.2,220.7 472.4,221.5 472.6,222.0 472.8,223.2 473.1,221.5 473.3,220.7 473.5,221.6 473.7,221.6 473.9,221.6 474.1,219.8 474.3,219.8 474.5,218.8 474.8,217.6 475.0,216.5 475.2,211.2 475.4,213.8 475.6,216.6 475.8,223.3 476.0,223.9 476.2,224.3 476.5,221.4 476.7,221.6 476.9,220.0 477.1,221.1 477.3,223.6 477.5,221.1 477.7,212.8 477.9,213.1 478.1,212.2 478.4,219.7 478.6,222.8 478.8,221.8 479.0,224.3 479.2,218.2 479.4,216.4 479.6,217.9 479.8,217.8 480.1,216.9 480.3,218.1 480.5,218.1 480.7,213.8 480.9,214.9 481.1,212.2 481.3,211.8 481.5,212.9 481.7,210.9 482.0,212.4 482.2,212.1 482.4,212.7 482.6,209.4 482.8,206.4 483.0,209.0 483.2,211.4 483.4,212.9 483.7,213.9 483.9,213.6 484.1,219.3 484.3,226.5 484.5,226.3 484.7,224.7 484.9,227.8 485.1,232.2 485.4,231.8 485.6,228.8 485.8,225.8 486.0,228.4 486.2,230.0 486.4,229.0 486.6,232.3 486.8,235.6 487.0,229.9 487.3,231.0 487.5,233.0 487.7,234.1 487.9,232.0 488.1,232.1 488.3,228.6 488.5,221.9 488.7,216.7 489.0,217.1 489.2,217.6 489.4,220.2 489.6,218.1 489.8,217.6 490.0,215.2 490.2,214.6 490.4,213.8 490.6,217.9 490.9,221.5 491.1,224.3 491.3,223.9 491.5,223.6 491.7,224.4 491.9,224.3 492.1,223.6 492.3,223.9 492.6,223.8 492.8,224.2 493.0,223.9 493.2,222.6 493.4,224.5 493.6,220.6 493.8,219.5 494.0,218.0 494.3,217.9 494.5,218.6 494.7,215.1 494.9,217.7 495.1,219.4 495.3,220.7 495.5,219.5 495.7,219.4 495.9,220.8 496.2,219.1 496.4,217.4 496.6,214.4 496.8,215.2 497.0,212.4 497.2,213.1 497.4,214.0 497.6,213.2 497.9,212.7 498.1,214.4 498.3,215.8 498.5,222.5 498.7,223.5 498.9,220.5 499.1,219.2 499.3,220.3 499.5,220.0 499.8,214.4 500.0,209.2 500.2,208.2 500.4,207.2 500.6,207.6 500.8,208.3 501.0,208.2 501.2,205.2 501.5,207.7 501.7,206.3 501.9,208.4 502.1,205.7 502.3,207.2 502.5,206.3 502.7,203.1 502.9,199.3 503.2,200.3 503.4,199.6 503.6,198.2 503.8,199.0 504.0,198.9 504.2,198.3 504.4,197.1 504.6,197.5 504.8,197.0 505.1,196.3 505.3,203.0 505.5,198.9 505.7,196.6 505.9,197.8 506.1,195.3 506.3,196.9 506.5,197.0 506.8,198.0 507.0,199.1 507.2,195.1 507.4,196.2 507.6,196.6 507.8,195.4 508.0,195.8 508.2,193.6 508.5,193.3 508.7,194.0 508.9,194.4 509.1,197.9 509.3,202.2 509.5,199.5 509.7,199.3 509.9,199.2 510.1,196.3 510.4,194.1 510.6,194.8 510.8,193.5 511.0,199.6 511.2,199.4 511.4,197.6 511.6,195.2 511.8,197.5 512.1,194.2 512.3,197.4 512.5,196.4 512.7,195.6 512.9,202.3 513.1,202.0 513.3,203.8 513.5,200.4 513.7,200.3 514.0,197.8 514.2,196.3 514.4,192.9 514.6,188.9 514.8,187.0 515.0,186.9 515.2,188.6 515.4,187.6 515.7,186.4 515.9,185.7 516.1,187.2 516.3,190.6 516.5,190.3 516.7,188.6 516.9,188.7 517.1,188.3 517.4,191.8 517.6,192.9 517.8,189.7 518.0,190.8 518.2,189.2 518.4,186.3 518.6,188.3 518.8,187.9 519.0,187.9 519.3,185.9 519.5,188.4 519.7,188.2 519.9,191.9 520.1,194.4 520.3,193.3 520.5,193.4 520.7,193.4 521.0,195.0 521.2,197.3 521.4,194.3 521.6,192.2 521.8,192.4 522.0,194.9 522.2,197.3 522.4,196.8 522.6,199.0 522.9,201.4 523.1,204.3 523.3,204.5 523.5,205.0 523.7,203.7 523.9,202.6 524.1,200.1 524.3,196.8 524.6,198.8 524.8,200.1 525.0,200.3 525.2,199.1 525.4,198.3 525.6,197.2 525.8,199.1 526.0,197.5 526.3,194.3 526.5,194.8 526.7,194.4 526.9,194.6 527.1,195.1 527.3,194.6 527.5,193.4 527.7,193.7 527.9,192.6 528.2,195.1 528.4,199.7 528.6,201.5 528.8,201.1 529.0,200.8 529.2,200.0 529.4,200.7 529.6,200.2 529.9,199.5 530.1,197.6 530.3,197.6 530.5,199.9 530.7,199.6 530.9,198.6 531.1,192.4 531.3,191.1 531.5,189.6 531.8,191.5 532.0,191.8 532.2,191.2 532.4,187.6 532.6,189.1 532.8,188.3 533.0,188.3 533.2,186.6 533.5,184.0 533.7,185.9 533.9,187.6 534.1,187.4 534.3,186.0 534.5,188.1 534.7,188.8 534.9,185.6 535.2,180.6 535.4,180.2 535.6,177.3 535.8,180.2 536.0,182.0 536.2,181.9 536.4,185.4 536.6,183.4 536.8,184.6 537.1,183.7 537.3,182.6 537.5,182.4 537.7,184.2 537.9,184.2 538.1,186.6 538.3,186.8 538.5,186.9 538.8,185.6 539.0,185.6 539.2,186.3 539.4,186.4 539.6,185.2 539.8,182.0 540.0,182.3 540.2,179.0 540.5,175.7 540.7,175.8 540.9,175.7 541.1,172.0 541.3,174.5 541.5,171.6 541.7,165.2 541.9,166.3 542.1,163.9 542.4,168.5 542.6,169.9 542.8,169.2 543.0,169.1 543.2,171.2 543.4,167.5 543.6,167.3 543.8,167.1 544.1,167.3 544.3,167.4 544.5,166.8 544.7,166.2 544.9,167.5 545.1,167.1 545.3,166.1 545.5,166.6 545.7,169.3 546.0,166.8 546.2,165.6 546.4,164.7 546.6,165.9 546.8,167.6 547.0,168.1 547.2,169.0 547.4,167.4 547.7,167.6 547.9,167.7 548.1,167.5 548.3,169.6 548.5,167.6 548.7,169.6 548.9,171.6 549.1,170.6 549.4,170.5 549.6,173.6 549.8,172.8 550.0,174.2 550.2,174.1 550.4,172.6 550.6,171.1 550.8,173.4 551.0,174.0 551.3,175.1 551.5,174.0 551.7,172.1 551.9,173.9 552.1,173.3 552.3,174.4 552.5,175.1 552.7,177.3 553.0,179.3 553.2,180.3 553.4,180.2 553.6,178.5 553.8,175.1 554.0,174.8 554.2,175.7 554.4,174.1 554.6,174.3 554.9,174.8 555.1,177.4 555.3,178.8 555.5,179.9 555.7,178.5 555.9,178.3 556.1,175.5 556.3,179.2 556.6,180.5 556.8,180.6 557.0,179.0 557.2,176.4 557.4,174.8 557.6,176.5 557.8,176.6 558.0,178.5 558.3,179.6 558.5,180.4 558.7,179.5 558.9,178.6 559.1,178.6 559.3,179.8 559.5,182.6 559.7,183.3 559.9,182.9 560.2,180.0 560.4,179.9 560.6,178.0 560.8,177.8 561.0,180.9 561.2,179.6 561.4,176.0 561.6,175.3 561.9,174.1 562.1,176.8 562.3,176.3 562.5,180.2 562.7,179.7 562.9,178.3 563.1,183.1 563.3,185.7 563.5,183.7 563.8,182.3 564.0,183.5 564.2,182.2 564.4,181.6 564.6,184.6 564.8,183.0 565.0,183.1 565.2,183.9 565.5,187.6 565.7,186.2 565.9,186.1 566.1,184.5 566.3,185.1 566.5,185.6 566.7,185.7 566.9,182.6 567.2,186.5 567.4,185.3 567.6,184.4 567.8,182.9 568.0,187.6 568.2,191.9 568.4,194.0 568.6,194.8 568.8,192.4 569.1,190.6 569.3,189.9 569.5,188.4 569.7,188.2 569.9,190.7 570.1,190.9 570.3,192.6 570.5,192.9 570.8,196.8 571.0,198.0 571.2,197.8 571.4,195.2 571.6,192.7 571.8,193.4 572.0,190.2 572.2,191.7 572.5,190.9 572.7,186.6 572.9,185.2 573.1,186.3 573.3,182.3 573.5,181.1 573.7,180.0 573.9,179.8 574.1,179.5 574.4,179.7 574.6,179.7 574.8,177.4 575.0,178.8 575.2,177.1 575.4,175.7 575.6,178.6 575.8,179.0 576.1,176.2 576.3,172.6 576.5,170.8 576.7,172.8 576.9,170.5 577.1,171.3 577.3,170.0 577.5,170.1 577.7,170.8 578.0,170.8 578.2,168.2 578.4,170.4 578.6,168.6 578.8,165.3 579.0,161.2 579.2,161.2 579.4,159.0 579.7,157.8 579.9,157.0 580.1,156.7 580.3,156.9 580.5,155.2 580.7,156.0 580.9,158.3 581.1,159.7 581.4,158.2 581.6,159.0 581.8,160.0 582.0,157.8 582.2,159.5 582.4,162.1 582.6,161.8 582.8,163.3 583.0,162.6 583.3,160.6 583.5,167.2 583.7,170.3 583.9,169.9 584.1,170.7 584.3,169.9 584.5,169.8 584.7,167.8 585.0,167.7 585.2,169.7 585.4,168.3 585.6,169.0 585.8,168.6 586.0,169.7 586.2,170.2 586.4,168.6 586.6,169.4 586.9,170.4 587.1,169.6 587.3,168.0 587.5,165.6 587.7,165.9 587.9,163.4 588.1,157.9 588.3,166.1 588.6,168.3 588.8,170.0 589.0,167.9 589.2,168.9 589.4,164.9 589.6,163.4 589.8,163.5 590.0,166.8 590.3,168.2 590.5,165.9 590.7,163.6 590.9,161.2 591.1,161.4 591.3,169.3 591.5,164.7 591.7,165.5 591.9,167.7 592.2,166.5 592.4,168.6 592.6,166.8 592.8,165.9 593.0,163.6 593.2,165.3 593.4,164.8 593.6,167.4 593.9,164.4 594.1,158.9 594.3,156.4 594.5,153.0 594.7,157.0 594.9,155.6 595.1,155.3 595.3,155.5 595.5,158.0 595.8,159.2 596.0,160.3 596.2,160.1 596.4,157.4 596.6,158.4 596.8,156.4 597.0,157.7 597.2,161.1 597.5,165.8 597.7,166.1 597.9,166.2 598.1,165.1 598.3,164.0 598.5,161.7 598.7,163.7 598.9,161.2 599.2,161.1 599.4,162.3 599.6,160.6 599.8,162.7 600.0,161.7 600.2,162.0 600.4,161.4 600.6,159.7 600.8,161.8 601.1,160.2 601.3,157.0 601.5,156.6 601.7,157.5 601.9,162.8 602.1,163.9 602.3,167.4 602.5,167.7 602.8,166.7 603.0,166.3 603.2,166.6 603.4,165.5 603.6,163.6 603.8,159.1 604.0,159.2 604.2,156.6 604.5,155.3 604.7,156.2 604.9,156.2 605.1,157.1 605.3,161.4 605.5,159.8 605.7,159.3 605.9,156.7 606.1,155.8 606.4,155.3 606.6,154.2 606.8,150.7 607.0,154.8 607.2,155.1 607.4,155.3 607.6,154.4 607.8,156.4 608.1,155.7 608.3,155.8 608.5,157.0 608.7,155.7 608.9,154.7 609.1,158.7 609.3,155.4 609.5,155.8 609.7,157.8 610.0,155.4 610.2,152.7 610.4,157.0 610.6,161.0 610.8,158.9 611.0,157.0 611.2,151.7 611.4,149.7 611.7,150.5 611.9,151.8 612.1,150.3 612.3,148.8 612.5,145.4 612.7,148.4 612.9,146.1 613.1,147.5 613.4,145.9 613.6,141.7 613.8,139.8 614.0,142.0 614.2,146.6 614.4,145.3 614.6,145.1 614.8,145.3 615.0,145.1 615.3,144.3 615.5,146.3 615.7,147.3 615.9,148.7 616.1,148.2 616.3,151.7 616.5,150.5 616.7,151.1 617.0,149.9 617.2,153.2 617.4,155.8 617.6,159.1 617.8,162.0 618.0,162.8 618.2,157.5 618.4,155.7 618.6,157.7 618.9,156.4 619.1,155.9 619.3,154.5 619.5,153.7 619.7,151.8 619.9,150.8 620.1,153.8 620.3,153.0 620.6,153.9 620.8,159.9 621.0,158.6 621.2,154.8 621.4,158.1 621.6,158.6 621.8,155.6 622.0,157.0 622.3,157.0 622.5,158.8 622.7,161.6 622.9,160.2 623.1,160.6 623.3,158.5 623.5,158.9 623.7,162.0 623.9,161.2 624.2,159.4 624.4,160.2 624.6,161.4 624.8,160.9 625.0,160.2 625.2,157.5 625.4,160.4 625.6,160.0 625.9,161.7 626.1,159.4 626.3,159.7 626.5,157.3 626.7,162.2 626.9,163.1 627.1,165.9 627.3,168.4 627.5,166.7 627.8,164.9 628.0,167.6 628.2,169.6 628.4,170.3 628.6,169.9 628.8,169.1 629.0,170.4 629.2,169.3 629.5,167.8 629.7,170.4 629.9,169.6 630.1,168.8 630.3,167.9 630.5,166.3 630.7,165.5 630.9,166.8 631.2,166.5 631.4,167.3 631.6,166.3 631.8,166.6 632.0,167.6 632.2,168.9 632.4,165.4 632.6,162.6 632.8,169.9 633.1,182.0 633.3,186.7 633.5,191.2 633.7,179.5 633.9,189.7 634.1,189.2 634.3,187.7 634.5,183.7 634.8,182.9 635.0,184.4 635.2,184.4 635.4,184.0 635.6,183.4 635.8,183.4 636.0,182.9 636.2,182.1 636.5,183.4 636.7,186.1 636.9,188.1 637.1,185.9 637.3,187.4 637.5,187.2 637.7,186.7 637.9,187.6 638.1,186.6 638.4,183.3 638.6,182.5 638.8,181.6 639.0,183.7 639.2,183.8 639.4,182.7 639.6,186.2 639.8,187.5 640.1,186.9 640.3,187.4 640.5,187.8 640.7,188.7 640.9,189.0 641.1,186.6 641.3,186.4 641.5,186.1 641.7,187.1 642.0,188.6 642.2,187.2 642.4,185.9 642.6,183.2 642.8,181.6 643.0,183.0 643.2,179.3 643.4,181.5 643.7,179.3 643.9,179.7 644.1,178.1 644.3,180.3 644.5,183.4 644.7,184.5 644.9,184.1 645.1,181.7 645.4,184.4 645.6,183.5 645.8,182.7 646.0,183.2 646.2,183.7 646.4,184.0 646.6,183.5 646.8,183.7 647.0,184.9 647.3,185.3 647.5,183.9 647.7,180.3 647.9,180.9 648.1,181.2 648.3,180.0 648.5,181.0 648.7,180.6 649.0,181.0 649.2,180.7 649.4,181.5 649.6,180.6 649.8,179.4 650.0,179.7 650.2,182.2 650.4,184.9 650.6,182.5 650.9,184.4 651.1,182.4 651.3,182.3 651.5,182.2 651.7,181.7 651.9,183.4 652.1,182.5 652.3,183.0 652.6,182.7 652.8,184.4 653.0,182.3 653.2,179.8 653.4,180.0 653.6,182.2 653.8,181.6 654.0,179.7 654.3,181.4 654.5,180.7 654.7,177.6 654.9,178.8 655.1,177.6 655.3,179.5 655.5,180.5 655.7,179.3 655.9,177.2 656.2,178.2 656.4,177.5 656.6,177.3 656.8,173.0 657.0,174.8 657.2,174.3 657.4,174.6 657.6,174.2 657.9,172.3 658.1,167.9 658.3,166.0 658.5,165.4 658.7,170.4 658.9,169.8 659.1,168.5 659.3,171.5 659.5,169.3 659.8,167.7 660.0,167.2 660.2,168.0 660.4,172.6 660.6,175.7 660.8,175.5 661.0,175.3 661.2,177.4 661.5,176.2 661.7,174.5 661.9,173.5 662.1,173.1 662.3,172.5 662.5,174.6 662.7,173.3 662.9,174.0 663.2,174.8 663.4,173.9 663.6,173.8 663.8,174.3 664.0,175.8 664.2,171.3 664.4,170.3 664.6,169.4 664.8,165.0 665.1,161.4 665.3,162.4 665.5,164.0 665.7,164.3 665.9,165.2 666.1,162.5 666.3,163.1 666.5,164.2 666.8,165.1 667.0,164.4 667.2,166.8 667.4,163.6 667.6,164.0 667.8,163.4 668.0,162.2 668.2,164.9 668.5,160.2 668.7,155.7 668.9,157.1 669.1,157.7 669.3,162.2 669.5,158.3 669.7,159.5 669.9,159.1 670.1,160.2 670.4,164.8 670.6,161.4 670.8,163.1 671.0,163.9 671.2,160.7 671.4,160.0 671.6,161.1 671.8,161.6 672.1,160.4 672.3,162.2 672.5,162.0 672.7,167.9 672.9,169.3 673.1,168.7 673.3,167.8 673.5,164.9 673.7,164.1 674.0,162.5 674.2,163.8 674.4,162.5 674.6,157.7 674.8,157.7 675.0,161.1 675.2,155.3 675.4,157.9 675.7,156.5 675.9,154.5 676.1,152.3 676.3,150.5 676.5,146.1 676.7,145.8 676.9,149.5 677.1,145.8 677.4,142.6 677.6,145.9 677.8,142.2 678.0,141.6 678.2,146.8 678.4,143.1 678.6,144.8 678.8,144.7 679.0,144.5 679.3,142.8 679.5,140.1 679.7,140.9 679.9,141.1 680.1,138.1 680.3,141.1 680.5,138.7 680.7,136.4 681.0,132.4 681.2,137.9 681.4,137.3 681.6,135.0 681.8,137.0 682.0,135.7 682.2,134.1 682.4,133.9 682.6,132.9 682.9,133.6 683.1,131.6 683.3,130.6 683.5,129.2 683.7,128.5 683.9,124.6 684.1,129.3 684.3,128.7 684.6,128.3 684.8,129.8 685.0,123.5 685.2,128.5 685.4,129.8 685.6,134.0 685.8,130.5 686.0,129.5 686.3,126.3 686.5,131.4 686.7,134.8 686.9,130.9 687.1,129.3 687.3,133.2 687.5,134.3 687.7,134.4 687.9,138.2 688.2,136.6 688.4,133.2 688.6,131.3 688.8,126.1 689.0,126.6 689.2,126.9 689.4,124.7 689.6,119.1 689.9,116.6 690.1,116.3 690.3,116.6 690.5,115.6 690.7,122.6 690.9,122.3 691.1,123.9 691.3,121.8 691.5,117.5 691.8,120.9 692.0,117.3 692.2,113.1 692.4,111.5 692.6,114.2 692.8,114.2 693.0,113.9 693.2,118.8 693.5,118.4 693.7,121.0 693.9,120.7 694.1,125.2 694.3,119.6 694.5,115.8 694.7,115.6 694.9,113.6 695.2,117.6 695.4,114.7 695.6,117.3 695.8,116.9 696.0,112.7"/>
  <text x="60" y="62" font-size="11" fill="#2563eb">Price index</text>
  <text x="146" y="62" font-size="11" fill="#16a34a">Total return (price + distributions)</text>
  <text x="56" y="348" font-size="11" text-anchor="middle" fill="#444">2014-05</text><text x="216" y="348" font-size="11" text-anchor="middle" fill="#444">2017-06</text><text x="376" y="348" font-size="11" text-anchor="middle" fill="#444">2020-06</text><text x="536" y="348" font-size="11" text-anchor="middle" fill="#444">2023-06</text><text x="696" y="348" font-size="11" text-anchor="middle" fill="#444">2026-06</text>
</svg>
