<svg xmlns="http://www.w3.org/2000/svg" width="820" height="410" viewBox="0 0 820 410">
<rect width="820" height="410" fill="#fafafa"/><text x="78" y="22" font-size="14" font-family="sans-serif" fill="#0f172a">PSK.TO cumulative return since 2014-05-29 | dividends reinvested</text>
<text x="78" y="40" font-size="11" font-family="sans-serif" fill="#334155">Total return +43.7% | Price-only -6.8% | logarithmic scale</text>
<text x="78" y="54" font-size="9" font-family="sans-serif" fill="#64748b">Regular $12.38 | Special $0.00 | Other $0.00 per initial share path</text>
<line x1="78" y1="332.0" x2="796" y2="332.0" stroke="#e2e8f0"/><text x="70" y="336.0" font-size="10" text-anchor="end" fill="#64748b">-84.2%</text><line x1="78" y1="287.0" x2="796" y2="287.0" stroke="#e2e8f0"/><text x="70" y="291.0" font-size="10" text-anchor="end" fill="#64748b">-76.7%</text><line x1="78" y1="242.0" x2="796" y2="242.0" stroke="#e2e8f0"/><text x="70" y="246.0" font-size="10" text-anchor="end" fill="#64748b">-65.5%</text><line x1="78" y1="197.0" x2="796" y2="197.0" stroke="#e2e8f0"/><text x="70" y="201.0" font-size="10" text-anchor="end" fill="#64748b">-49.1%</text><line x1="78" y1="152.0" x2="796" y2="152.0" stroke="#e2e8f0"/><text x="70" y="156.0" font-size="10" text-anchor="end" fill="#64748b">-24.7%</text><line x1="78" y1="119.3" x2="796" y2="119.3" stroke="#e2e8f0"/><text x="70" y="123.3" font-size="10" text-anchor="end" fill="#64748b">0%</text><line x1="78" y1="107.0" x2="796" y2="107.0" stroke="#e2e8f0"/><text x="70" y="111.0" font-size="10" text-anchor="end" fill="#64748b">+11.3%</text><line x1="78" y1="62.0" x2="796" y2="62.0" stroke="#e2e8f0"/><text x="70" y="66.0" font-size="10" text-anchor="end" fill="#64748b">+64.4%</text>
<line x1="78" y1="332" x2="796" y2="332" stroke="#cbd5e1"/>
<polyline fill="none" stroke="#2563eb" stroke-width="2" points="78.0,119.3 78.2,121.7 78.5,122.3 78.7,121.5 78.9,121.0 79.2,121.5 79.4,121.1 79.7,116.2 79.9,112.1 80.1,110.6 80.4,110.3 80.6,112.3 80.8,111.9 81.1,112.9 81.3,114.6 81.5,114.2 81.8,113.9 82.0,114.6 82.2,115.5 82.5,115.6 82.7,115.6 83.0,114.5 83.2,113.8 83.4,113.2 83.7,110.6 83.9,107.9 84.1,110.7 84.4,112.5 84.6,112.6 84.8,113.7 85.1,113.7 85.3,112.5 85.5,113.2 85.8,113.7 86.0,115.8 86.3,115.7 86.5,115.7 86.7,110.2 87.0,109.9 87.2,106.3 87.4,103.6 87.7,103.9 87.9,107.8 88.1,108.2 88.4,112.1 88.6,107.8 88.8,109.5 89.1,110.1 89.3,110.1 89.6,110.3 89.8,109.0 90.0,110.6 90.3,110.7 90.5,111.4 90.7,112.2 91.0,112.4 91.2,111.4 91.4,111.5 91.7,110.3 91.9,111.1 92.1,110.5 92.4,110.3 92.6,110.0 92.9,112.0 93.1,111.8 93.3,113.3 93.6,112.8 93.8,114.2 94.0,114.1 94.3,116.0 94.5,121.2 94.7,123.0 95.0,122.2 95.2,122.6 95.4,123.7 95.7,123.1 95.9,123.4 96.2,122.5 96.4,122.3 96.6,126.4 96.9,125.9 97.1,127.2 97.3,127.4 97.6,126.9 97.8,125.2 98.0,124.9 98.3,127.2 98.5,126.9 98.7,126.4 99.0,126.0 99.2,126.8 99.5,127.4 99.7,129.4 99.9,131.9 100.2,136.7 100.4,137.0 100.6,131.7 100.9,131.1 101.1,130.5 101.3,127.4 101.6,128.1 101.8,125.4 102.0,125.2 102.3,127.7 102.5,125.6 102.8,125.0 103.0,126.1 103.2,126.7 103.5,126.9 103.7,129.7 103.9,123.9 104.2,121.9 104.4,121.7 104.6,122.5 104.9,121.7 105.1,121.1 105.3,124.6 105.6,123.5 105.8,122.9 106.1,124.2 106.3,124.5 106.5,121.2 106.8,119.8 107.0,120.8 107.2,118.2 107.5,120.9 107.7,126.0 107.9,127.6 108.2,130.6 108.4,129.0 108.6,124.5 108.9,127.0 109.1,127.4 109.4,136.7 109.6,136.0 109.8,143.6 110.1,143.3 110.3,146.6 110.5,145.0 110.8,142.8 111.0,135.7 111.2,132.5 111.5,134.8 111.7,137.6 111.9,133.3 112.2,133.7 112.4,133.0 112.7,137.5 112.9,141.2 113.1,141.9 113.4,143.9 113.6,145.6 113.8,145.0 114.1,145.3 114.3,146.4 114.5,158.8 114.8,159.6 115.0,159.1 115.2,165.6 115.5,159.7 115.7,159.6 116.0,168.2 116.2,168.1 116.4,167.0 116.7,162.0 116.9,158.4 117.1,157.7 117.4,162.0 117.6,160.0 117.8,154.0 118.1,152.3 118.3,138.6 118.5,142.9 118.8,143.5 119.0,147.4 119.3,149.5 119.5,154.1 119.7,150.5 120.0,149.2 120.2,143.2 120.4,144.0 120.7,146.8 120.9,143.1 121.1,144.6 121.4,147.1 121.6,140.4 121.8,138.6 122.1,141.1 122.3,137.4 122.6,140.1 122.8,137.9 123.0,137.5 123.3,138.7 123.5,142.1 123.7,144.2 124.0,147.4 124.2,145.6 124.4,149.6 124.7,150.2 124.9,148.8 125.1,146.4 125.4,142.0 125.6,146.0 125.9,144.8 126.1,144.5 126.3,144.8 126.6,144.6 126.8,144.6 127.0,144.3 127.3,145.1 127.5,143.9 127.7,140.5 128.0,137.8 128.2,133.5 128.4,133.2 128.7,135.3 128.9,135.6 129.2,133.2 129.4,130.7 129.6,129.1 129.9,129.9 130.1,131.8 130.3,132.2 130.6,132.6 130.8,135.9 131.0,135.7 131.3,135.2 131.5,137.2 131.7,138.7 132.0,138.6 132.2,133.6 132.5,132.0 132.7,133.2 132.9,133.4 133.2,135.4 133.4,132.2 133.6,133.1 133.9,131.2 134.1,130.7 134.3,130.5 134.6,131.9 134.8,134.5 135.0,133.0 135.3,134.3 135.5,133.9 135.8,133.1 136.0,132.8 136.2,132.6 136.5,133.3 136.7,133.6 136.9,134.9 137.2,131.1 137.4,130.4 137.6,131.1 137.9,132.8 138.1,136.4 138.3,135.4 138.6,135.4 138.8,135.7 139.1,133.5 139.3,135.8 139.5,137.8 139.8,136.0 140.0,137.1 140.2,135.8 140.5,137.0 140.7,137.5 140.9,135.6 141.2,135.6 141.4,134.4 141.6,136.2 141.9,137.5 142.1,139.1 142.4,137.8 142.6,140.1 142.8,140.1 143.1,142.6 143.3,141.6 143.5,143.5 143.8,144.4 144.0,146.3 144.2,146.5 144.5,144.1 144.7,146.8 144.9,147.0 145.2,147.9 145.4,151.3 145.7,150.5 145.9,150.3 146.1,151.7 146.4,153.6 146.6,159.2 146.8,157.0 147.1,153.5 147.3,153.6 147.5,156.2 147.8,158.8 148.0,158.7 148.2,158.0 148.5,159.0 148.7,155.2 149.0,155.4 149.2,154.2 149.4,157.7 149.7,159.0 149.9,162.0 150.1,162.0 150.4,167.0 150.6,167.9 150.8,169.0 151.1,173.2 151.3,171.2 151.5,167.6 151.8,161.0 152.0,156.1 152.3,153.2 152.5,157.7 152.7,163.1 153.0,160.5 153.2,160.5 153.4,159.9 153.7,165.9 153.9,164.0 154.1,169.0 154.4,167.7 154.6,164.8 154.8,159.5 155.1,156.0 155.3,160.9 155.6,158.4 155.8,158.4 156.0,159.3 156.3,160.3 156.5,159.7 156.7,167.8 157.0,164.3 157.2,162.8 157.4,162.9 157.7,160.3 157.9,153.7 158.1,151.1 158.4,147.8 158.6,147.4 158.9,151.4 159.1,153.1 159.3,151.7 159.6,150.6 159.8,155.7 160.0,159.8 160.3,160.6 160.5,162.8 160.7,159.1 161.0,160.5 161.2,163.1 161.4,167.1 161.7,163.5 161.9,163.7 162.2,161.1 162.4,160.3 162.6,158.6 162.9,158.6 163.1,158.2 163.3,159.9 163.6,159.4 163.8,159.6 164.0,161.5 164.3,163.6 164.5,164.0 164.7,159.0 165.0,162.3 165.2,160.7 165.5,159.5 165.7,161.4 165.9,160.9 166.2,160.4 166.4,160.9 166.6,160.9 166.9,162.4 167.1,161.5 167.3,160.8 167.6,164.2 167.8,167.4 168.0,171.5 168.3,177.9 168.5,174.0 168.8,174.2 169.0,172.9 169.2,177.6 169.5,181.3 169.7,178.4 169.9,178.0 170.2,182.3 170.4,182.1 170.6,179.1 170.9,181.1 171.1,173.8 171.3,174.9 171.6,176.3 171.8,179.3 172.1,179.6 172.3,177.5 172.5,176.8 172.8,182.6 173.0,191.1 173.2,190.6 173.5,194.7 173.7,196.1 173.9,192.7 174.2,188.5 174.4,190.2 174.6,191.3 174.9,193.0 175.1,201.3 175.4,200.4 175.6,198.5 175.8,202.1 176.1,198.8 176.3,200.3 176.5,194.4 176.8,190.5 177.0,196.9 177.2,198.4 177.5,193.7 177.7,190.2 177.9,193.3 178.2,193.7 178.4,194.9 178.7,195.5 178.9,195.5 179.1,194.5 179.4,192.6 179.6,186.0 179.8,189.3 180.1,190.7 180.3,187.2 180.5,189.0 180.8,187.9 181.0,186.8 181.2,182.5 181.5,179.0 181.7,177.7 182.0,173.2 182.2,169.6 182.4,166.2 182.7,160.9 182.9,168.3 183.1,168.3 183.4,167.4 183.6,165.6 183.8,167.6 184.1,167.1 184.3,166.6 184.5,163.7 184.8,160.1 185.0,160.4 185.3,162.5 185.5,166.3 185.7,164.2 186.0,166.5 186.2,167.2 186.4,167.6 186.7,166.1 186.9,168.9 187.1,173.8 187.4,174.0 187.6,172.6 187.8,175.6 188.1,173.2 188.3,174.5 188.6,168.9 188.8,168.7 189.0,168.2 189.3,169.6 189.5,170.2 189.7,164.3 190.0,159.9 190.2,161.0 190.4,162.6 190.7,163.8 190.9,163.7 191.1,158.1 191.4,157.6 191.6,158.1 191.9,163.4 192.1,165.1 192.3,167.4 192.6,166.2 192.8,165.5 193.0,170.0 193.3,167.6 193.5,166.6 193.7,167.6 194.0,169.2 194.2,164.9 194.4,162.0 194.7,163.9 194.9,163.6 195.2,163.5 195.4,162.2 195.6,160.3 195.9,161.5 196.1,163.1 196.3,164.2 196.6,162.7 196.8,165.3 197.0,165.8 197.3,167.0 197.5,164.8 197.7,161.6 198.0,162.3 198.2,163.0 198.5,166.9 198.7,169.6 198.9,169.8 199.2,171.5 199.4,171.8 199.6,170.9 199.9,167.7 200.1,167.1 200.3,168.4 200.6,165.7 200.8,169.5 201.0,170.8 201.3,169.9 201.5,167.0 201.8,166.7 202.0,165.4 202.2,166.4 202.5,166.0 202.7,167.0 202.9,165.7 203.2,165.6 203.4,162.5 203.6,161.4 203.9,162.0 204.1,164.7 204.3,165.5 204.6,164.7 204.8,162.0 205.1,162.2 205.3,161.0 205.5,163.2 205.8,160.4 206.0,164.6 206.2,164.0 206.5,162.6 206.7,163.8 206.9,160.6 207.2,160.0 207.4,159.3 207.6,156.9 207.9,157.8 208.1,158.7 208.4,156.4 208.6,155.8 208.8,153.3 209.1,154.2 209.3,156.0 209.5,155.7 209.8,155.8 210.0,157.3 210.2,156.3 210.5,158.4 210.7,158.7 210.9,158.0 211.2,159.0 211.4,160.6 211.7,161.3 211.9,160.5 212.1,160.2 212.4,159.6 212.6,157.1 212.8,155.3 213.1,154.8 213.3,154.3 213.5,156.1 213.8,158.8 214.0,156.8 214.2,158.9 214.5,158.8 214.7,158.7 215.0,157.7 215.2,157.1 215.4,157.9 215.7,158.5 215.9,159.9 216.1,157.4 216.4,156.3 216.6,156.7 216.8,152.9 217.1,152.6 217.3,150.1 217.5,149.4 217.8,149.0 218.0,148.5 218.3,149.4 218.5,149.4 218.7,148.2 219.0,148.2 219.2,147.3 219.4,144.7 219.7,143.3 219.9,142.4 220.1,143.8 220.4,143.5 220.6,145.7 220.8,145.2 221.1,145.6 221.3,146.7 221.6,143.2 221.8,145.7 222.0,147.6 222.3,148.3 222.5,146.8 222.7,147.7 223.0,148.3 223.2,149.0 223.4,151.3 223.7,150.1 223.9,144.8 224.1,146.4 224.4,144.9 224.6,145.6 224.9,139.1 225.1,138.3 225.3,138.5 225.6,138.7 225.8,140.7 226.0,140.1 226.3,141.7 226.5,133.2 226.7,129.5 227.0,133.8 227.2,132.3 227.4,131.8 227.7,131.6 227.9,131.7 228.2,132.1 228.4,131.1 228.6,131.9 228.9,134.6 229.1,137.7 229.3,137.6 229.6,136.2 229.8,134.7 230.0,134.9 230.3,136.0 230.5,136.5 230.7,135.4 231.0,135.9 231.2,136.2 231.5,137.3 231.7,135.6 231.9,135.4 232.2,134.6 232.4,134.5 232.6,133.2 232.9,133.5 233.1,131.9 233.3,132.6 233.6,133.6 233.8,133.0 234.0,136.7 234.3,137.4 234.5,137.3 234.8,140.4 235.0,137.9 235.2,138.6 235.5,139.9 235.7,140.5 235.9,142.8 236.2,141.6 236.4,141.4 236.6,141.6 236.9,143.1 237.1,145.4 237.3,146.4 237.6,144.9 237.8,143.1 238.1,142.4 238.3,145.0 238.5,145.3 238.8,146.1 239.0,143.0 239.2,143.8 239.5,142.6 239.7,145.3 239.9,144.1 240.2,143.8 240.4,140.9 240.6,139.5 240.9,142.4 241.1,143.0 241.4,144.1 241.6,144.2 241.8,145.1 242.1,150.1 242.3,149.8 242.5,148.9 242.8,147.0 243.0,149.7 243.2,147.4 243.5,147.8 243.7,149.7 243.9,150.4 244.2,152.1 244.4,153.1 244.7,152.8 244.9,153.6 245.1,153.1 245.4,150.7 245.6,147.0 245.8,151.5 246.1,151.2 246.3,150.1 246.5,147.8 246.8,147.3 247.0,145.5 247.2,146.6 247.5,145.5 247.7,146.1 248.0,147.1 248.2,147.6 248.4,146.4 248.7,147.4 248.9,147.1 249.1,147.7 249.4,147.0 249.6,147.7 249.8,145.3 250.1,145.8 250.3,145.9 250.5,144.4 250.8,145.0 251.0,146.4 251.3,146.8 251.5,149.5 251.7,146.8 252.0,146.3 252.2,147.6 252.4,145.2 252.7,145.6 252.9,145.7 253.1,145.3 253.4,145.5 253.6,147.2 253.8,147.8 254.1,143.9 254.3,144.5 254.6,143.8 254.8,145.0 255.0,143.7 255.3,142.7 255.5,143.1 255.7,146.8 256.0,147.8 256.2,148.5 256.4,147.9 256.7,145.5 256.9,148.6 257.1,146.3 257.4,145.0 257.6,146.4 257.9,145.4 258.1,148.2 258.3,148.5 258.6,145.6 258.8,146.5 259.0,150.7 259.3,151.8 259.5,150.0 259.7,148.0 260.0,146.1 260.2,146.5 260.4,145.9 260.7,145.7 260.9,145.3 261.2,145.2 261.4,147.2 261.6,147.9 261.9,151.8 262.1,151.7 262.3,151.0 262.6,150.1 262.8,150.3 263.0,151.0 263.3,151.0 263.5,150.8 263.7,147.1 264.0,148.6 264.2,148.3 264.5,148.2 264.7,140.9 264.9,141.2 265.2,139.2 265.4,140.0 265.6,139.8 265.9,139.0 266.1,139.8 266.3,139.5 266.6,140.5 266.8,143.6 267.0,145.1 267.3,145.8 267.5,147.5 267.8,149.5 268.0,150.6 268.2,150.7 268.5,151.4 268.7,152.4 268.9,152.3 269.2,148.6 269.4,147.6 269.6,146.8 269.9,147.9 270.1,149.9 270.3,149.3 270.6,148.0 270.8,146.0 271.1,146.6 271.3,145.9 271.5,144.7 271.8,144.8 272.0,144.9 272.2,142.7 272.5,142.5 272.7,138.6 272.9,136.7 273.2,137.5 273.4,136.2 273.6,136.8 273.9,135.1 274.1,134.7 274.4,134.6 274.6,132.2 274.8,133.3 275.1,134.7 275.3,135.5 275.5,136.3 275.8,136.6 276.0,136.3 276.2,136.9 276.5,135.0 276.7,137.1 276.9,136.6 277.2,135.9 277.4,138.7 277.7,137.6 277.9,136.5 278.1,136.0 278.4,136.0 278.6,136.5 278.8,136.9 279.1,136.8 279.3,136.8 279.5,138.1 279.8,137.4 280.0,129.4 280.2,126.4 280.5,127.9 280.7,127.8 281.0,128.9 281.2,126.4 281.4,123.5 281.7,124.3 281.9,126.2 282.1,125.9 282.4,127.2 282.6,128.0 282.8,133.6 283.1,133.7 283.3,134.3 283.5,133.2 283.8,135.5 284.0,135.2 284.3,134.2 284.5,133.9 284.7,133.4 285.0,134.2 285.2,134.0 285.4,134.7 285.7,129.9 285.9,129.8 286.1,130.1 286.4,129.6 286.6,132.1 286.8,134.8 287.1,135.5 287.3,137.1 287.6,136.6 287.8,136.0 288.0,136.8 288.3,137.5 288.5,137.5 288.7,137.7 289.0,138.2 289.2,137.7 289.4,137.1 289.7,135.5 289.9,135.1 290.1,135.8 290.4,133.4 290.6,132.5 290.9,135.0 291.1,136.8 291.3,137.7 291.6,137.2 291.8,135.9 292.0,133.1 292.3,134.4 292.5,135.2 292.7,136.2 293.0,135.9 293.2,135.2 293.4,136.6 293.7,137.2 293.9,138.3 294.2,138.7 294.4,139.0 294.6,139.0 294.9,139.1 295.1,139.5 295.3,141.7 295.6,142.7 295.8,142.4 296.0,144.1 296.3,144.6 296.5,145.9 296.7,148.1 297.0,148.8 297.2,146.8 297.5,147.4 297.7,147.0 297.9,147.1 298.2,145.9 298.4,147.2 298.6,147.2 298.9,146.1 299.1,145.4 299.3,145.4 299.6,147.3 299.8,149.5 300.0,151.2 300.3,151.2 300.5,150.1 300.8,150.3 301.0,151.8 301.2,152.1 301.5,151.9 301.7,154.5 301.9,156.6 302.2,157.2 302.4,157.1 302.6,156.0 302.9,156.4 303.1,153.4 303.3,150.8 303.6,150.1 303.8,151.8 304.1,150.4 304.3,152.1 304.5,152.8 304.8,150.7 305.0,151.7 305.2,151.5 305.5,151.9 305.7,148.2 305.9,149.4 306.2,149.9 306.4,146.8 306.6,145.4 306.9,144.8 307.1,144.1 307.4,144.9 307.6,145.1 307.8,141.7 308.1,141.5 308.3,140.1 308.5,136.8 308.8,145.7 309.0,147.8 309.2,148.5 309.5,149.0 309.7,149.5 309.9,150.6 310.2,150.8 310.4,152.2 310.7,152.6 310.9,151.6 311.1,154.4 311.4,154.7 311.6,155.8 311.8,156.2 312.1,155.7 312.3,154.8 312.5,153.6 312.8,150.1 313.0,149.8 313.2,150.9 313.5,152.6 313.7,157.2 314.0,159.7 314.2,159.8 314.4,158.7 314.7,158.7 314.9,156.8 315.1,157.4 315.4,156.5 315.6,156.0 315.8,156.2 316.1,154.7 316.3,157.7 316.5,158.7 316.8,158.9 317.0,159.2 317.3,158.9 317.5,158.6 317.7,156.8 318.0,157.5 318.2,158.1 318.4,161.3 318.7,160.3 318.9,162.4 319.1,161.7 319.4,158.4 319.6,158.6 319.8,160.2 320.1,160.1 320.3,160.7 320.6,163.5 320.8,162.7 321.0,163.2 321.3,163.9 321.5,166.2 321.7,166.7 322.0,163.5 322.2,165.4 322.4,164.9 322.7,165.3 322.9,164.0 323.1,163.8 323.4,161.1 323.6,169.2 323.9,167.8 324.1,166.7 324.3,168.4 324.6,168.0 324.8,165.9 325.0,168.2 325.3,169.1 325.5,169.0 325.7,171.0 326.0,172.1 326.2,170.8 326.4,171.3 326.7,170.6 326.9,170.6 327.2,171.7 327.4,171.1 327.6,171.1 327.9,172.4 328.1,169.6 328.3,166.8 328.6,166.3 328.8,166.5 329.0,167.9 329.3,169.2 329.5,169.0 329.7,168.2 330.0,169.2 330.2,170.8 330.5,171.7 330.7,171.6 330.9,165.9 331.2,168.6 331.4,170.5 331.6,170.2 331.9,170.0 332.1,170.2 332.3,173.8 332.6,171.9 332.8,173.1 333.0,174.8 333.3,174.5 333.5,171.1 333.8,171.6 334.0,174.0 334.2,174.6 334.5,175.6 334.7,172.9 334.9,173.8 335.2,168.8 335.4,170.7 335.6,173.0 335.9,172.7 336.1,178.2 336.3,180.5 336.6,182.0 336.8,182.6 337.1,179.8 337.3,179.6 337.5,180.0 337.8,179.0 338.0,179.2 338.2,180.3 338.5,184.9 338.7,184.6 338.9,181.0 339.2,184.5 339.4,188.9 339.6,190.2 339.9,187.8 340.1,187.8 340.4,192.1 340.6,190.9 340.8,190.7 341.1,192.4 341.3,194.0 341.5,195.4 341.8,200.2 342.0,201.8 342.2,200.8 342.5,200.8 342.7,197.8 342.9,197.2 343.2,193.7 343.4,195.8 343.7,199.8 343.9,200.1 344.1,203.1 344.4,202.8 344.6,204.1 344.8,201.3 345.1,202.6 345.3,203.6 345.5,202.9 345.8,210.0 346.0,210.2 346.2,213.2 346.5,214.7 346.7,213.4 347.0,207.0 347.2,211.9 347.4,211.6 347.7,208.0 347.9,205.9 348.1,207.9 348.4,207.1 348.6,212.0 348.8,210.4 349.1,205.9 349.3,204.4 349.5,200.5 349.8,202.0 350.0,199.0 350.3,198.0 350.5,203.1 350.7,201.3 351.0,197.0 351.2,197.5 351.4,198.2 351.7,195.2 351.9,192.7 352.1,191.8 352.4,192.4 352.6,191.8 352.8,195.6 353.1,196.3 353.3,194.9 353.6,194.7 353.8,195.7 354.0,194.1 354.3,194.9 354.5,196.2 354.7,195.4 355.0,194.0 355.2,193.0 355.4,194.3 355.7,196.1 355.9,197.8 356.1,198.2 356.4,200.6 356.6,200.0 356.9,198.8 357.1,198.7 357.3,195.2 357.6,191.2 357.8,191.1 358.0,190.1 358.3,188.2 358.5,191.8 358.7,194.6 359.0,195.0 359.2,192.0 359.4,191.4 359.7,192.3 359.9,194.1 360.2,194.9 360.4,198.1 360.6,195.8 360.9,195.9 361.1,192.2 361.3,193.9 361.6,194.6 361.8,194.9 362.0,196.4 362.3,195.7 362.5,195.8 362.7,198.9 363.0,199.6 363.2,198.7 363.5,198.9 363.7,200.3 363.9,202.3 364.2,200.5 364.4,200.3 364.6,199.9 364.9,199.2 365.1,196.6 365.3,196.0 365.6,197.0 365.8,195.5 366.0,195.7 366.3,194.7 366.5,194.9 366.8,194.5 367.0,194.6 367.2,195.9 367.5,194.1 367.7,189.1 367.9,187.9 368.2,188.4 368.4,193.1 368.6,193.7 368.9,194.2 369.1,196.3 369.3,199.0 369.6,198.5 369.8,197.6 370.1,198.8 370.3,197.8 370.5,197.8 370.8,198.7 371.0,200.6 371.2,198.0 371.5,197.3 371.7,197.0 371.9,198.1 372.2,197.5 372.4,201.2 372.6,204.5 372.9,204.1 373.1,202.4 373.4,202.2 373.6,201.4 373.8,202.9 374.1,203.3 374.3,203.8 374.5,202.9 374.8,203.6 375.0,205.0 375.2,205.0 375.5,204.2 375.7,204.0 375.9,205.2 376.2,206.0 376.4,206.7 376.7,203.7 376.9,201.5 377.1,202.2 377.4,198.8 377.6,200.3 377.8,200.2 378.1,200.1 378.3,197.1 378.5,198.5 378.8,199.8 379.0,201.3 379.2,200.3 379.5,200.1 379.7,199.7 380.0,199.4 380.2,199.0 380.4,196.9 380.7,196.1 380.9,195.3 381.1,194.9 381.4,197.8 381.6,199.8 381.8,201.0 382.1,200.9 382.3,201.9 382.5,201.7 382.8,201.9 383.0,205.6 383.3,209.4 383.5,210.7 383.7,206.8 384.0,204.4 384.2,204.4 384.4,205.5 384.7,210.7 384.9,211.7 385.1,210.9 385.4,209.8 385.6,211.4 385.8,211.6 386.1,215.1 386.3,217.0 386.6,213.2 386.8,210.4 387.0,211.6 387.3,210.5 387.5,211.6 387.7,213.7 388.0,213.9 388.2,214.1 388.4,210.2 388.7,209.0 388.9,209.8 389.1,209.4 389.4,208.6 389.6,205.9 389.9,205.3 390.1,202.2 390.3,199.9 390.6,199.0 390.8,200.1 391.0,199.2 391.3,194.3 391.5,195.7 391.7,196.3 392.0,196.8 392.2,196.9 392.4,197.1 392.7,199.0 392.9,199.0 393.2,198.4 393.4,199.8 393.6,199.3 393.9,202.6 394.1,205.8 394.3,207.9 394.6,207.7 394.8,208.3 395.0,211.6 395.3,212.3 395.5,212.4 395.7,211.6 396.0,213.9 396.2,214.5 396.5,217.0 396.7,220.9 396.9,221.2 397.2,222.5 397.4,221.9 397.6,224.7 397.9,223.5 398.1,225.3 398.3,238.9 398.6,242.8 398.8,241.0 399.0,239.5 399.3,235.5 399.5,234.6 399.8,235.9 400.0,238.4 400.2,236.6 400.5,234.6 400.7,236.2 400.9,235.8 401.2,236.3 401.4,233.2 401.6,233.4 401.9,234.9 402.1,233.3 402.3,232.3 402.6,231.4 402.8,231.9 403.1,232.3 403.3,231.1 403.5,232.0 403.8,233.8 404.0,235.8 404.2,236.7 404.5,235.0 404.7,232.9 404.9,228.3 405.2,228.4 405.4,228.7 405.6,229.3 405.9,226.0 406.1,226.0 406.4,224.5 406.6,221.8 406.8,221.4 407.1,220.8 407.3,222.0 407.5,223.0 407.8,221.5 408.0,223.0 408.2,221.6 408.5,221.6 408.7,223.2 408.9,220.2 409.2,215.2 409.4,214.2 409.7,216.4 409.9,216.4 410.1,219.5 410.4,222.0 410.6,221.6 410.8,222.6 411.1,219.6 411.3,218.9 411.5,218.5 411.8,218.6 412.0,221.3 412.2,223.0 412.5,224.2 412.7,229.1 413.0,227.1 413.2,224.9 413.4,224.8 413.7,227.1 413.9,227.1 414.1,225.3 414.4,221.3 414.6,220.0 414.8,223.8 415.1,223.5 415.3,223.7 415.5,226.3 415.8,227.5 416.0,227.6 416.3,227.8 416.5,225.6 416.7,225.6 417.0,228.2 417.2,233.1 417.4,238.8 417.7,242.9 417.9,244.9 418.1,244.8 418.4,242.2 418.6,244.8 418.8,243.9 419.1,243.7 419.3,248.6 419.6,275.0 419.8,279.6 420.0,289.7 420.3,303.8 420.5,295.4 420.7,295.6 421.0,305.8 421.2,313.6 421.4,304.7 421.7,305.0 421.9,317.5 422.1,304.9 422.4,297.9 422.6,298.9 422.9,313.9 423.1,310.1 423.3,304.2 423.6,304.1 423.8,300.3 424.0,297.8 424.3,293.6 424.5,292.7 424.7,282.8 425.0,282.3 425.2,282.9 425.4,286.5 425.7,293.7 425.9,300.3 426.2,293.2 426.4,290.1 426.6,290.0 426.9,281.0 427.1,276.5 427.3,281.1 427.6,280.9 427.8,279.1 428.0,268.5 428.3,268.0 428.5,273.2 428.7,270.5 429.0,271.8 429.2,276.2 429.5,275.0 429.7,274.8 429.9,276.4 430.2,270.9 430.4,278.0 430.6,279.6 430.9,276.2 431.1,275.0 431.3,265.4 431.6,270.6 431.8,276.2 432.0,281.8 432.3,279.6 432.5,279.6 432.8,279.4 433.0,281.1 433.2,279.2 433.5,273.9 433.7,273.4 433.9,270.1 434.2,266.3 434.4,260.2 434.6,264.7 434.9,269.6 435.1,277.0 435.3,274.5 435.6,276.5 435.8,275.7 436.1,282.8 436.3,280.6 436.5,280.0 436.8,281.1 437.0,281.5 437.2,287.4 437.5,288.1 437.7,291.9 437.9,289.0 438.2,287.7 438.4,288.1 438.7,289.6 438.9,287.3 439.1,290.2 439.4,293.0 439.6,295.6 439.8,288.5 440.1,292.3 440.3,291.2 440.5,289.3 440.8,289.7 441.0,289.3 441.2,291.9 441.5,285.5 441.7,290.2 442.0,292.9 442.2,289.7 442.4,290.4 442.7,290.0 442.9,286.7 443.1,288.6 443.4,290.0 443.6,283.6 443.8,284.4 444.1,280.6 444.3,279.5 444.5,275.0 444.8,277.1 445.0,272.8 445.3,274.6 445.5,273.4 445.7,273.4 446.0,274.8 446.2,273.3 446.4,276.2 446.7,278.1 446.9,275.4 447.1,274.7 447.4,275.7 447.6,275.6 447.8,275.7 448.1,276.7 448.3,276.5 448.6,280.5 448.8,280.9 449.0,278.3 449.3,289.7 449.5,287.9 449.7,289.3 450.0,288.1 450.2,289.1 450.4,289.6 450.7,284.5 450.9,283.2 451.1,285.9 451.4,287.5 451.6,286.9 451.9,291.2 452.1,288.7 452.3,289.7 452.6,287.0 452.8,290.9 453.0,291.3 453.3,293.2 453.5,291.6 453.7,289.0 454.0,290.8 454.2,288.7 454.4,284.1 454.7,284.0 454.9,285.7 455.2,287.1 455.4,286.2 455.6,286.1 455.9,288.7 456.1,287.0 456.3,289.0 456.6,284.4 456.8,286.5 457.0,291.2 457.3,291.6 457.5,293.9 457.7,294.6 458.0,293.3 458.2,289.8 458.5,287.7 458.7,288.3 458.9,287.9 459.2,287.5 459.4,277.9 459.6,276.4 459.9,275.9 460.1,280.5 460.3,276.9 460.6,272.5 460.8,272.9 461.0,273.9 461.3,271.6 461.5,272.2 461.8,263.3 462.0,255.8 462.2,259.9 462.5,260.1 462.7,258.6 462.9,266.5 463.2,267.7 463.4,265.5 463.6,267.7 463.9,260.7 464.1,262.0 464.3,262.7 464.6,262.9 464.8,255.9 465.1,258.4 465.3,260.4 465.5,259.2 465.8,264.2 466.0,265.1 466.2,263.5 466.5,268.3 466.7,270.4 466.9,266.2 467.2,268.0 467.4,268.9 467.6,267.7 467.9,269.0 468.1,269.0 468.4,260.9 468.6,262.0 468.8,260.9 469.1,261.2 469.3,262.4 469.5,257.5 469.8,259.1 470.0,254.1 470.2,260.1 470.5,261.3 470.7,255.6 470.9,255.8 471.2,259.4 471.4,263.4 471.7,262.0 471.9,266.4 472.1,265.2 472.4,263.3 472.6,263.7 472.8,258.6 473.1,260.2 473.3,259.4 473.5,255.0 473.8,256.8 474.0,251.1 474.2,255.3 474.5,252.5 474.7,254.2 475.0,245.1 475.2,241.7 475.4,241.6 475.7,243.8 475.9,245.9 476.1,241.1 476.4,239.9 476.6,237.3 476.8,238.8 477.1,240.7 477.3,240.8 477.5,241.2 477.8,237.4 478.0,235.6 478.3,234.1 478.5,233.3 478.7,232.3 479.0,229.2 479.2,227.2 479.4,228.6 479.7,230.1 479.9,231.3 480.1,231.7 480.4,234.2 480.6,232.1 480.8,232.2 481.1,234.3 481.3,234.3 481.6,234.9 481.8,233.3 482.0,234.3 482.3,234.6 482.5,235.0 482.7,231.7 483.0,232.7 483.2,232.0 483.4,232.2 483.7,232.0 483.9,232.6 484.1,232.2 484.4,232.5 484.6,230.2 484.9,229.1 485.1,231.9 485.3,232.2 485.6,239.7 485.8,240.5 486.0,242.7 486.3,243.6 486.5,241.0 486.7,240.2 487.0,237.0 487.2,237.8 487.4,238.2 487.7,236.0 487.9,235.3 488.2,236.3 488.4,235.8 488.6,234.3 488.9,234.5 489.1,235.2 489.3,234.3 489.6,236.0 489.8,233.7 490.0,230.0 490.3,233.2 490.5,236.0 490.7,236.6 491.0,236.1 491.2,237.8 491.5,236.0 491.7,236.3 491.9,235.9 492.2,237.3 492.4,231.3 492.6,231.8 492.9,231.7 493.1,233.0 493.3,235.5 493.6,236.1 493.8,236.1 494.0,235.9 494.3,235.4 494.5,233.4 494.8,227.1 495.0,228.7 495.2,233.7 495.5,233.8 495.7,227.9 495.9,225.9 496.2,221.7 496.4,218.6 496.6,218.2 496.9,221.0 497.1,223.3 497.3,223.2 497.6,223.3 497.8,222.3 498.1,224.5 498.3,226.8 498.5,227.0 498.8,226.6 499.0,226.3 499.2,227.5 499.5,231.2 499.7,232.1 499.9,234.3 500.2,236.9 500.4,233.7 500.6,231.4 500.9,231.5 501.1,231.3 501.4,232.2 501.6,233.8 501.8,232.8 502.1,230.8 502.3,231.4 502.5,230.7 502.8,235.6 503.0,234.8 503.2,234.5 503.5,235.7 503.7,229.9 503.9,228.9 504.2,229.7 504.4,232.6 504.7,234.7 504.9,235.3 505.1,235.1 505.4,238.2 505.6,237.6 505.8,233.8 506.1,232.2 506.3,233.1 506.5,232.4 506.8,232.1 507.0,232.7 507.2,232.6 507.5,233.8 507.7,231.1 508.0,233.5 508.2,234.5 508.4,236.5 508.7,238.6 508.9,236.6 509.1,235.0 509.4,234.9 509.6,231.4 509.8,230.4 510.1,233.2 510.3,237.1 510.5,237.9 510.8,235.5 511.0,234.8 511.3,233.3 511.5,230.1 511.7,233.7 512.0,233.5 512.2,235.4 512.4,233.6 512.7,231.0 512.9,228.0 513.1,228.7 513.4,223.2 513.6,222.2 513.8,222.8 514.1,224.3 514.3,220.8 514.6,220.0 514.8,220.5 515.0,220.3 515.3,218.0 515.5,219.7 515.7,217.2 516.0,215.5 516.2,215.1 516.4,218.3 516.7,218.9 516.9,221.6 517.1,219.8 517.4,221.8 517.6,222.9 517.9,223.2 518.1,222.2 518.3,218.8 518.6,217.8 518.8,220.7 519.0,219.8 519.3,220.1 519.5,219.5 519.7,217.5 520.0,221.2 520.2,223.9 520.4,227.9 520.7,228.0 520.9,225.7 521.2,223.8 521.4,223.6 521.6,231.4 521.9,231.7 522.1,231.6 522.3,234.9 522.6,235.4 522.8,234.4 523.0,233.2 523.3,231.2 523.5,231.5 523.7,231.4 524.0,231.4 524.2,234.5 524.5,236.6 524.7,238.0 524.9,236.4 525.2,238.6 525.4,238.3 525.6,235.7 525.9,234.5 526.1,236.1 526.3,236.2 526.6,235.3 526.8,235.0 527.0,234.3 527.3,231.4 527.5,233.0 527.8,229.0 528.0,231.2 528.2,231.4 528.5,229.4 528.7,226.2 528.9,227.0 529.2,225.8 529.4,224.0 529.6,224.2 529.9,226.2 530.1,227.8 530.3,229.2 530.6,229.8 530.8,225.9 531.1,223.3 531.3,220.9 531.5,216.4 531.8,213.3 532.0,210.5 532.2,210.2 532.5,209.3 532.7,207.8 532.9,206.9 533.2,209.0 533.4,208.0 533.6,207.9 533.9,207.0 534.1,208.0 534.4,208.2 534.6,209.8 534.8,210.4 535.1,211.4 535.3,212.5 535.5,212.7 535.8,213.0 536.0,212.7 536.2,207.9 536.5,207.5 536.7,207.7 536.9,209.0 537.2,206.2 537.4,205.5 537.7,205.5 537.9,206.3 538.1,205.9 538.4,205.8 538.6,209.5 538.8,208.6 539.1,206.6 539.3,205.6 539.5,208.2 539.8,205.8 540.0,206.7 540.2,205.7 540.5,205.8 540.7,203.5 541.0,204.3 541.2,205.1 541.4,205.6 541.7,206.9 541.9,205.1 542.1,204.3 542.4,205.3 542.6,205.3 542.8,205.2 543.1,203.3 543.3,203.3 543.5,202.4 543.8,201.2 544.0,200.0 544.3,194.9 544.5,197.4 544.7,200.1 545.0,207.0 545.2,207.7 545.4,208.1 545.7,205.0 545.9,205.2 546.1,203.6 546.4,204.7 546.6,207.3 546.8,204.8 547.1,196.4 547.3,196.7 547.6,195.8 547.8,203.3 548.0,206.5 548.3,205.5 548.5,208.1 548.7,201.7 549.0,200.0 549.2,201.4 549.4,201.3 549.7,200.4 549.9,201.7 550.1,201.6 550.4,197.4 550.6,198.4 550.9,195.8 551.1,195.4 551.3,196.4 551.6,194.6 551.8,196.0 552.0,195.7 552.3,196.3 552.5,193.1 552.7,190.3 553.0,192.8 553.2,195.0 553.4,196.4 553.7,197.4 553.9,197.2 554.2,202.8 554.4,210.5 554.6,210.3 554.9,208.6 555.1,212.0 555.3,217.0 555.6,216.4 555.8,213.0 556.0,209.8 556.3,212.6 556.5,214.4 556.7,213.3 557.0,217.0 557.2,221.0 557.5,214.3 557.7,215.6 557.9,217.9 558.2,219.2 558.4,216.7 558.6,216.8 558.9,212.8 559.1,205.5 559.3,200.2 559.6,200.6 559.8,201.2 560.0,203.8 560.3,201.7 560.5,201.1 560.8,198.7 561.0,198.1 561.2,197.4 561.5,201.5 561.7,205.2 561.9,208.1 562.2,207.7 562.4,207.4 562.6,208.2 562.9,208.1 563.1,207.3 563.3,207.7 563.6,207.5 563.8,208.0 564.1,207.7 564.3,206.3 564.5,208.3 564.8,204.2 565.0,203.0 565.2,201.5 565.5,201.5 565.7,202.1 565.9,198.6 566.2,201.2 566.4,202.9 566.6,204.3 566.9,203.0 567.1,202.9 567.4,204.4 567.6,202.6 567.8,200.9 568.1,197.9 568.3,198.7 568.5,196.0 568.8,196.7 569.0,197.5 569.2,196.7 569.5,196.3 569.7,198.0 569.9,199.3 570.2,206.2 570.4,207.3 570.7,204.1 570.9,202.8 571.1,203.9 571.4,203.5 571.6,198.0 571.8,192.9 572.1,192.0 572.3,191.0 572.5,191.4 572.8,192.1 573.0,192.0 573.2,189.2 573.5,191.6 573.7,190.2 574.0,192.2 574.2,189.7 574.4,191.0 574.7,190.2 574.9,187.3 575.1,184.0 575.4,184.8 575.6,184.3 575.8,183.0 576.1,183.7 576.3,183.6 576.5,183.1 576.8,182.0 577.0,182.4 577.3,182.0 577.5,181.4 577.7,187.2 578.0,183.6 578.2,181.7 578.4,182.7 578.7,180.6 578.9,181.9 579.1,182.0 579.4,182.8 579.6,183.8 579.8,180.3 580.1,181.3 580.3,181.7 580.6,180.6 580.8,180.9 581.0,179.1 581.3,178.9 581.5,179.4 581.7,179.8 582.0,182.7 582.2,186.5 582.4,184.1 582.7,183.9 582.9,183.9 583.1,181.4 583.4,179.6 583.6,180.1 583.9,179.0 584.1,184.3 584.3,184.1 584.6,182.5 584.8,180.5 585.0,182.4 585.3,179.6 585.5,182.3 585.7,181.5 586.0,180.8 586.2,186.6 586.4,186.3 586.7,188.0 586.9,184.9 587.2,184.9 587.4,182.6 587.6,181.4 587.9,178.5 588.1,175.2 588.3,173.7 588.6,173.7 588.8,175.0 589.0,174.2 589.3,173.3 589.5,172.7 589.7,173.9 590.0,176.6 590.2,176.3 590.5,175.0 590.7,175.1 590.9,174.8 591.2,177.6 591.4,178.5 591.6,175.9 591.9,176.8 592.1,175.5 592.3,173.2 592.6,174.8 592.8,174.5 593.0,174.5 593.3,172.8 593.5,174.8 593.8,174.7 594.0,177.7 594.2,179.8 594.5,178.9 594.7,178.9 594.9,179.0 595.2,180.3 595.4,182.2 595.6,179.7 595.9,177.9 596.1,178.1 596.3,180.2 596.6,182.2 596.8,181.8 597.1,183.7 597.3,185.8 597.5,188.5 597.8,188.6 598.0,189.0 598.2,187.8 598.5,186.9 598.7,184.7 598.9,181.8 599.2,183.5 599.4,184.7 599.6,184.8 599.9,183.8 600.1,183.1 600.4,182.2 600.6,183.8 600.8,182.4 601.1,179.7 601.3,180.1 601.5,179.8 601.8,180.0 602.0,180.4 602.2,180.0 602.5,178.9 602.7,179.2 602.9,178.2 603.2,180.4 603.4,184.3 603.7,185.9 603.9,185.5 604.1,185.3 604.4,184.5 604.6,185.2 604.8,184.7 605.1,184.2 605.3,182.5 605.5,182.5 605.8,184.5 606.0,184.3 606.2,183.4 606.5,178.1 606.7,177.0 607.0,175.8 607.2,177.4 607.4,177.6 607.7,177.1 607.9,174.2 608.1,175.4 608.4,174.8 608.6,174.8 608.8,173.4 609.1,171.3 609.3,172.8 609.5,174.2 609.8,174.0 610.0,172.9 610.3,174.6 610.5,175.2 610.7,172.6 611.0,168.7 611.2,168.4 611.4,166.2 611.7,168.4 611.9,169.8 612.1,169.7 612.4,172.4 612.6,170.9 612.8,171.8 613.1,171.1 613.3,170.3 613.6,170.1 613.8,171.5 614.0,171.5 614.3,173.4 614.5,173.6 614.7,173.6 615.0,172.6 615.2,172.6 615.4,173.2 615.7,173.3 615.9,172.3 616.1,169.8 616.4,170.0 616.6,167.5 616.9,165.0 617.1,165.1 617.3,165.0 617.6,162.4 617.8,164.1 618.0,162.0 618.3,157.6 618.5,158.3 618.7,156.6 619.0,159.9 619.2,160.8 619.4,160.3 619.7,160.3 619.9,161.8 620.2,159.1 620.4,159.0 620.6,158.9 620.9,159.0 621.1,159.1 621.3,158.7 621.6,158.2 621.8,159.1 622.0,158.8 622.3,158.1 622.5,158.5 622.7,160.4 623.0,158.6 623.2,157.8 623.5,157.2 623.7,158.1 623.9,159.2 624.2,159.5 624.4,160.2 624.6,159.1 624.9,159.2 625.1,159.3 625.3,159.1 625.6,160.6 625.8,159.2 626.0,160.6 626.3,162.1 626.5,161.4 626.8,161.3 627.0,163.5 627.2,162.9 627.5,164.0 627.7,163.9 627.9,162.8 628.2,161.7 628.4,163.4 628.6,163.8 628.9,164.6 629.1,163.8 629.3,162.4 629.6,163.7 629.8,163.3 630.1,164.1 630.3,164.6 630.5,166.3 630.8,167.8 631.0,168.5 631.2,168.4 631.5,167.1 631.7,164.6 631.9,164.4 632.2,165.0 632.4,163.9 632.6,164.0 632.9,164.4 633.1,166.3 633.4,167.4 633.6,168.2 633.8,167.1 634.1,167.0 634.3,164.9 634.5,167.7 634.8,168.7 635.0,168.7 635.2,167.5 635.5,165.6 635.7,164.4 635.9,165.6 636.2,165.7 636.4,167.1 636.7,168.0 636.9,168.6 637.1,167.9 637.4,167.2 637.6,167.2 637.8,168.1 638.1,170.3 638.3,170.8 638.5,170.5 638.8,168.3 639.0,168.2 639.2,166.7 639.5,166.6 639.7,168.9 640.0,168.0 640.2,165.3 640.4,164.8 640.7,163.9 640.9,165.9 641.1,165.5 641.4,168.4 641.6,168.1 641.8,167.0 642.1,170.7 642.3,172.7 642.5,171.1 642.8,170.0 643.0,171.0 643.3,170.0 643.5,169.5 643.7,171.8 644.0,170.6 644.2,170.7 644.4,171.2 644.7,174.2 644.9,173.1 645.1,173.0 645.4,171.8 645.6,172.2 645.8,172.6 646.1,172.7 646.3,170.3 646.6,173.3 646.8,172.4 647.0,171.6 647.3,170.5 647.5,174.2 647.7,177.7 648.0,179.4 648.2,180.1 648.4,178.1 648.7,176.6 648.9,176.0 649.1,174.9 649.4,174.7 649.6,176.7 649.9,176.9 650.1,178.2 650.3,178.5 650.6,181.8 650.8,182.9 651.0,182.6 651.3,180.5 651.5,178.4 651.7,178.9 652.0,176.3 652.2,177.5 652.4,176.9 652.7,173.4 652.9,172.3 653.2,173.2 653.4,170.0 653.6,169.1 653.9,168.3 654.1,168.2 654.3,167.9 654.6,168.0 654.8,168.1 655.0,166.3 655.3,167.4 655.5,166.1 655.7,165.1 656.0,167.2 656.2,167.5 656.5,165.4 656.7,162.8 656.9,161.5 657.2,162.9 657.4,161.3 657.6,161.9 657.9,160.9 658.1,161.0 658.3,161.5 658.6,161.5 658.8,159.6 659.0,161.2 659.3,159.9 659.5,157.6 659.8,154.8 660.0,154.8 660.2,153.3 660.5,152.5 660.7,152.0 660.9,151.8 661.2,151.9 661.4,150.8 661.6,151.4 661.9,152.9 662.1,153.8 662.3,152.8 662.6,153.3 662.8,154.0 663.1,152.5 663.3,153.7 663.5,155.4 663.8,155.2 664.0,156.2 664.2,155.7 664.5,154.4 664.7,158.9 664.9,161.1 665.2,160.9 665.4,161.4 665.6,160.8 665.9,160.7 666.1,159.3 666.4,159.3 666.6,160.7 666.8,159.7 667.1,160.2 667.3,159.9 667.5,160.7 667.8,161.1 668.0,159.9 668.2,160.5 668.5,161.2 668.7,160.6 668.9,159.5 669.2,157.8 669.4,158.1 669.7,156.3 669.9,152.6 670.1,158.2 670.4,159.7 670.6,160.9 670.8,159.4 671.1,160.1 671.3,157.4 671.5,156.3 671.8,156.4 672.0,158.7 672.2,159.6 672.5,158.1 672.7,156.5 673.0,154.8 673.2,154.9 673.4,160.4 673.7,157.2 673.9,157.7 674.1,159.3 674.4,158.4 674.6,159.9 674.8,158.7 675.1,158.1 675.3,156.4 675.5,157.6 675.8,157.3 676.0,159.1 676.3,157.0 676.5,153.3 676.7,151.6 677.0,149.4 677.2,152.0 677.4,151.1 677.7,150.9 677.9,151.0 678.1,152.7 678.4,153.4 678.6,154.2 678.8,154.1 679.1,152.2 679.3,152.9 679.6,151.6 679.8,152.4 680.0,154.7 680.3,158.0 680.5,158.2 680.7,158.2 681.0,157.5 681.2,156.7 681.4,155.2 681.7,156.5 681.9,154.8 682.1,154.7 682.4,155.6 682.6,154.4 682.9,155.8 683.1,155.1 683.3,155.3 683.6,154.9 683.8,153.8 684.0,155.2 684.3,154.1 684.5,152.0 684.7,151.7 685.0,152.3 685.2,155.9 685.4,156.7 685.7,159.1 685.9,159.3 686.2,158.6 686.4,158.3 686.6,158.5 686.9,157.7 687.1,156.5 687.3,153.4 687.6,153.5 687.8,151.7 688.0,150.9 688.3,151.5 688.5,151.4 688.7,152.1 689.0,154.9 689.2,153.9 689.5,153.5 689.7,151.8 689.9,151.2 690.2,150.9 690.4,150.2 690.6,147.9 690.9,150.6 691.1,150.7 691.3,150.9 691.6,150.3 691.8,151.6 692.0,151.2 692.3,151.2 692.5,152.0 692.8,151.2 693.0,150.5 693.2,153.1 693.5,151.0 693.7,151.2 693.9,152.5 694.2,151.0 694.4,149.2 694.6,152.0 694.9,154.7 695.1,153.3 695.3,152.0 695.6,148.5 695.8,147.3 696.1,147.8 696.3,148.6 696.5,147.6 696.8,146.7 697.0,144.6 697.2,146.5 697.5,145.0 697.7,145.9 697.9,144.9 698.2,142.3 698.4,141.2 698.6,142.5 698.9,145.3 699.1,144.5 699.4,144.4 699.6,144.5 699.8,144.4 700.1,143.9 700.3,145.2 700.5,145.7 700.8,146.6 701.0,146.3 701.2,148.6 701.5,147.8 701.7,148.2 701.9,147.4 702.2,149.5 702.4,151.2 702.7,153.4 702.9,155.3 703.1,155.9 703.4,152.4 703.6,151.1 703.8,152.4 704.1,151.6 704.3,151.3 704.5,150.3 704.8,149.8 705.0,148.6 705.2,148.0 705.5,149.9 705.7,149.4 706.0,150.0 706.2,153.9 706.4,153.1 706.7,150.5 706.9,152.7 707.1,153.1 707.4,151.1 707.6,152.0 707.8,152.0 708.1,153.2 708.3,155.0 708.5,154.2 708.8,154.4 709.0,153.0 709.3,153.3 709.5,155.3 709.7,154.8 710.0,153.6 710.2,154.1 710.4,155.0 710.7,154.6 710.9,154.1 711.1,152.3 711.4,154.2 711.6,154.0 711.8,155.2 712.1,153.6 712.3,153.8 712.6,152.2 712.8,155.5 713.0,156.1 713.3,158.0 713.5,159.8 713.7,158.6 714.0,157.3 714.2,159.2 714.4,160.6 714.7,161.1 714.9,160.9 715.1,160.3 715.4,161.2 715.6,160.4 715.9,159.3 716.1,161.2 716.3,160.7 716.6,160.0 716.8,159.5 717.0,158.3 717.3,157.7 717.5,158.6 717.7,158.4 718.0,159.0 718.2,158.3 718.4,158.5 718.7,159.2 718.9,160.2 719.2,157.7 719.4,155.8 719.6,160.9 719.9,169.8 720.1,173.5 720.3,177.1 720.6,167.9 720.8,175.9 721.0,175.5 721.3,174.3 721.5,171.1 721.7,170.5 722.0,171.6 722.2,171.6 722.5,171.3 722.7,170.9 722.9,170.9 723.2,170.5 723.4,169.9 723.6,170.9 723.9,173.0 724.1,174.6 724.3,172.8 724.6,174.1 724.8,173.9 725.0,173.5 725.3,174.2 725.5,173.4 725.8,170.8 726.0,170.2 726.2,169.5 726.5,171.1 726.7,171.2 726.9,170.4 727.2,173.1 727.4,174.1 727.6,173.7 727.9,174.1 728.1,174.4 728.3,175.1 728.6,175.3 728.8,173.4 729.1,173.3 729.3,173.0 729.5,173.8 729.8,175.0 730.0,173.9 730.2,172.8 730.5,170.7 730.7,169.5 730.9,170.6 731.2,167.8 731.4,169.4 731.6,167.8 731.9,168.1 732.1,166.8 732.4,168.5 732.6,170.9 732.8,171.8 733.1,171.4 733.3,169.6 733.5,171.6 733.8,171.0 734.0,170.3 734.2,170.8 734.5,171.1 734.7,171.4 734.9,171.0 735.2,171.1 735.4,172.1 735.7,172.4 735.9,171.2 736.1,168.5 736.4,169.0 736.6,169.2 736.8,168.3 737.1,169.1 737.3,168.7 737.5,169.1 737.8,168.8 738.0,169.5 738.2,168.7 738.5,167.8 738.7,168.0 739.0,170.0 739.2,172.0 739.4,170.2 739.7,171.7 739.9,170.1 740.1,170.0 740.4,169.9 740.6,169.5 740.8,170.9 741.1,170.2 741.3,170.6 741.5,170.4 741.8,171.6 742.0,170.0 742.3,168.1 742.5,168.3 742.7,169.9 743.0,169.5 743.2,168.0 743.4,169.3 743.7,168.8 743.9,166.5 744.1,167.4 744.4,166.5 744.6,167.9 744.8,168.7 745.1,167.8 745.3,166.1 745.6,166.9 745.8,166.4 746.0,166.2 746.3,163.0 746.5,164.4 746.7,164.0 747.0,164.3 747.2,164.0 747.4,162.6 747.7,159.5 747.9,158.1 748.1,157.7 748.4,161.2 748.6,160.7 748.9,159.9 749.1,162.0 749.3,160.4 749.6,159.3 749.8,158.9 750.0,159.5 750.3,162.8 750.5,165.1 750.7,164.9 751.0,164.7 751.2,166.3 751.4,165.4 751.7,164.1 751.9,163.4 752.2,163.1 752.4,162.7 752.6,164.3 752.9,163.3 753.1,163.8 753.3,164.4 753.6,163.7 753.8,163.6 754.0,164.0 754.3,165.2 754.5,161.8 754.7,161.1 755.0,160.5 755.2,157.4 755.5,155.0 755.7,155.6 755.9,156.7 756.2,156.9 756.4,157.5 756.6,155.7 756.9,156.1 757.1,156.8 757.3,157.5 757.6,157.0 757.8,158.6 758.0,156.5 758.3,156.7 758.5,156.3 758.8,155.5 759.0,157.3 759.2,154.2 759.5,151.2 759.7,152.1 759.9,152.5 760.2,155.5 760.4,152.9 760.6,153.6 760.9,153.4 761.1,154.1 761.3,157.3 761.6,154.9 761.8,156.1 762.1,156.6 762.3,154.5 762.5,154.0 762.8,154.7 763.0,155.1 763.2,154.3 763.5,155.5 763.7,155.3 763.9,159.5 764.2,160.4 764.4,160.0 764.6,159.3 764.9,157.4 765.1,156.8 765.4,155.7 765.6,156.6 765.8,155.7 766.1,152.4 766.3,152.4 766.5,154.7 766.8,150.9 767.0,152.6 767.2,151.7 767.5,150.3 767.7,148.9 767.9,147.8 768.2,145.0 768.4,144.8 768.7,147.2 768.9,144.8 769.1,142.9 769.4,144.9 769.6,142.6 769.8,142.3 770.1,145.5 770.3,143.1 770.5,144.2 770.8,144.1 771.0,144.0 771.2,143.0 771.5,141.3 771.7,141.9 772.0,142.0 772.2,140.1 772.4,142.0 772.7,140.5 772.9,139.2 773.1,136.8 773.4,140.1 773.6,139.7 773.8,138.3 774.1,139.5 774.3,138.8 774.5,137.8 774.8,137.7 775.0,137.1 775.3,137.5 775.5,136.3 775.7,135.8 776.0,134.9 776.2,134.6 776.4,132.4 776.7,135.0 776.9,134.7 777.1,134.5 777.4,135.3 777.6,131.7 777.8,134.6 778.1,135.3 778.3,137.8 778.6,135.7 778.8,135.1 779.0,133.3 779.3,136.2 779.5,138.2 779.7,135.9 780.0,135.0 780.2,137.3 780.4,137.9 780.7,138.0 780.9,140.2 781.1,139.3 781.4,137.3 781.6,136.2 781.9,133.2 782.1,133.5 782.3,133.7 782.6,132.4 782.8,129.4 783.0,128.0 783.3,127.9 783.5,128.0 783.7,127.5 784.0,131.3 784.2,131.1 784.4,132.0 784.7,130.8 784.9,128.5 785.2,130.3 785.4,128.4 785.6,126.1 785.9,125.3 786.1,126.7 786.3,126.7 786.6,126.6 786.8,129.2 787.0,129.0 787.3,130.4 787.5,130.2 787.7,132.7 788.0,129.6 788.2,127.6 788.5,127.5 788.7,126.4 788.9,128.6 789.2,127.0 789.4,128.4 789.6,128.2 789.9,127.7 790.1,129.0 790.3,131.6 790.6,133.6 790.8,134.2 791.0,137.0 791.3,136.3 791.5,135.6 791.8,135.4 792.0,136.1 792.2,135.3 792.5,135.6 792.7,136.8 792.9,137.0 793.2,136.8 793.4,136.2 793.6,138.5 793.9,136.5 794.1,133.1 794.3,134.8 794.6,134.7 794.8,131.7 795.1,131.3 795.3,130.3 795.5,128.0 795.8,126.7 796.0,127.4"/><polyline fill="none" stroke="#16a34a" stroke-width="3" points="78.0,119.3 78.2,121.7 78.5,122.3 78.7,121.5 78.9,121.0 79.2,121.5 79.4,121.1 79.7,116.2 79.9,112.1 80.1,110.6 80.4,110.3 80.6,112.3 80.8,111.9 81.1,112.9 81.3,114.6 81.5,114.2 81.8,113.9 82.0,114.6 82.2,115.5 82.5,115.6 82.7,115.2 83.0,114.2 83.2,113.5 83.4,112.9 83.7,110.3 83.9,107.6 84.1,110.4 84.4,112.2 84.6,112.2 84.8,113.4 85.1,113.4 85.3,112.2 85.5,112.9 85.8,113.4 86.0,115.5 86.3,115.4 86.5,115.4 86.7,109.9 87.0,109.6 87.2,106.0 87.4,103.3 87.7,103.6 87.9,107.2 88.1,107.6 88.4,111.4 88.6,107.1 88.8,108.9 89.1,109.5 89.3,109.5 89.6,109.7 89.8,108.4 90.0,110.0 90.3,110.1 90.5,110.8 90.7,111.6 91.0,111.8 91.2,110.7 91.4,110.9 91.7,109.7 91.9,110.5 92.1,109.8 92.4,109.7 92.6,109.1 92.9,111.0 93.1,110.8 93.3,112.4 93.6,111.9 93.8,113.3 94.0,113.2 94.3,115.0 94.5,120.3 94.7,122.1 95.0,121.3 95.2,121.7 95.4,122.8 95.7,122.1 95.9,122.5 96.2,121.6 96.4,121.4 96.6,125.5 96.9,125.0 97.1,126.3 97.3,126.4 97.6,125.6 97.8,124.0 98.0,123.6 98.3,125.9 98.5,125.6 98.7,125.2 99.0,124.7 99.2,125.5 99.5,126.1 99.7,128.1 99.9,130.6 100.2,135.5 100.4,135.7 100.6,130.5 100.9,129.8 101.1,129.2 101.3,126.1 101.6,126.8 101.8,124.1 102.0,123.9 102.3,126.4 102.5,124.3 102.8,123.4 103.0,124.5 103.2,125.1 103.5,125.3 103.7,128.1 103.9,122.3 104.2,120.3 104.4,120.0 104.6,120.9 104.9,120.0 105.1,119.5 105.3,122.9 105.6,121.9 105.8,121.3 106.1,122.6 106.3,122.9 106.5,119.6 106.8,118.1 107.0,119.2 107.2,116.6 107.5,118.9 107.7,124.1 107.9,125.7 108.2,128.7 108.4,127.1 108.6,122.6 108.9,125.1 109.1,125.4 109.4,134.8 109.6,134.1 109.8,141.7 110.1,141.3 110.3,144.6 110.5,143.0 110.8,140.8 111.0,133.7 111.2,130.5 111.5,132.8 111.7,135.6 111.9,131.4 112.2,131.8 112.4,130.7 112.7,135.2 112.9,138.9 113.1,139.6 113.4,141.6 113.6,143.3 113.8,142.7 114.1,143.0 114.3,144.0 114.5,156.5 114.8,157.3 115.0,156.7 115.2,163.3 115.5,157.4 115.7,157.3 116.0,165.9 116.2,165.7 116.4,164.7 116.7,159.7 116.9,156.1 117.1,155.4 117.4,159.1 117.6,157.2 117.8,151.2 118.1,149.5 118.3,135.8 118.5,140.1 118.8,140.6 119.0,144.6 119.3,146.7 119.5,151.3 119.7,147.7 120.0,146.4 120.2,140.4 120.4,141.2 120.7,144.0 120.9,140.3 121.1,141.8 121.4,144.3 121.6,137.6 121.8,135.4 122.1,137.9 122.3,134.2 122.6,136.9 122.8,134.7 123.0,134.3 123.3,135.5 123.5,138.9 123.7,141.0 124.0,144.2 124.2,142.4 124.4,146.4 124.7,147.0 124.9,145.6 125.1,143.2 125.4,138.8 125.6,142.8 125.9,141.6 126.1,141.3 126.3,141.6 126.6,141.4 126.8,141.4 127.0,140.7 127.3,141.5 127.5,140.3 127.7,136.9 128.0,134.2 128.2,129.9 128.4,129.6 128.7,131.7 128.9,131.9 129.2,129.6 129.4,127.1 129.6,125.4 129.9,126.2 130.1,128.2 130.3,128.5 130.6,129.0 130.8,132.3 131.0,132.1 131.3,131.6 131.5,133.6 131.7,135.1 132.0,134.5 132.2,129.6 132.5,128.0 132.7,129.2 132.9,129.4 133.2,131.4 133.4,128.2 133.6,129.1 133.9,127.2 134.1,126.7 134.3,126.5 134.6,127.9 134.8,130.5 135.0,129.0 135.3,130.3 135.5,129.9 135.8,129.1 136.0,128.8 136.2,128.6 136.5,129.3 136.7,129.2 136.9,130.5 137.2,126.7 137.4,126.0 137.6,126.7 137.9,128.4 138.1,132.0 138.3,131.0 138.6,131.0 138.8,131.3 139.1,129.1 139.3,131.4 139.5,133.4 139.8,131.6 140.0,132.7 140.2,131.4 140.5,132.6 140.7,133.1 140.9,131.2 141.2,131.2 141.4,130.0 141.6,131.8 141.9,132.7 142.1,134.3 142.4,133.0 142.6,135.3 142.8,135.3 143.1,137.8 143.3,136.8 143.5,138.7 143.8,139.6 144.0,141.5 144.2,141.7 144.5,139.3 144.7,142.0 144.9,142.2 145.2,143.1 145.4,146.5 145.7,145.7 145.9,145.5 146.1,146.9 146.4,148.9 146.6,154.4 146.8,152.2 147.1,148.3 147.3,148.4 147.5,151.0 147.8,153.5 148.0,153.4 148.2,152.7 148.5,153.8 148.7,150.0 149.0,150.2 149.2,148.9 149.4,152.5 149.7,153.8 149.9,156.8 150.1,156.7 150.4,161.8 150.6,162.7 150.8,163.8 151.1,167.9 151.3,166.0 151.5,162.3 151.8,155.3 152.0,150.3 152.3,147.5 152.5,152.0 152.7,157.4 153.0,154.8 153.2,154.8 153.4,154.2 153.7,160.2 153.9,158.3 154.1,163.3 154.4,162.0 154.6,159.1 154.8,153.7 155.1,150.3 155.3,155.1 155.6,152.7 155.8,152.7 156.0,153.6 156.3,154.6 156.5,154.0 156.7,161.5 157.0,158.1 157.2,156.6 157.4,156.6 157.7,154.0 157.9,147.5 158.1,144.8 158.4,141.5 158.6,141.2 158.9,145.1 159.1,146.9 159.3,145.5 159.6,144.3 159.8,149.5 160.0,153.6 160.3,154.4 160.5,156.6 160.7,152.8 161.0,154.3 161.2,156.8 161.4,160.9 161.7,156.8 161.9,156.9 162.2,154.4 162.4,153.6 162.6,151.9 162.9,151.9 163.1,151.5 163.3,153.2 163.6,152.7 163.8,152.9 164.0,154.7 164.3,156.9 164.5,157.3 164.7,152.3 165.0,155.5 165.2,154.0 165.5,152.7 165.7,154.6 165.9,154.2 166.2,153.7 166.4,154.2 166.6,153.7 166.9,155.1 167.1,154.3 167.3,153.6 167.6,157.0 167.8,160.1 168.0,164.3 168.3,170.7 168.5,166.8 168.8,167.0 169.0,165.7 169.2,170.4 169.5,174.1 169.7,171.1 169.9,170.8 170.2,175.1 170.4,174.9 170.6,171.9 170.9,173.9 171.1,166.6 171.3,167.7 171.6,168.6 171.8,171.6 172.1,171.8 172.3,169.7 172.5,169.0 172.8,174.9 173.0,183.4 173.2,182.9 173.5,187.0 173.7,188.3 173.9,184.9 174.2,180.7 174.4,182.4 174.6,183.5 174.9,185.3 175.1,193.6 175.4,192.6 175.6,190.7 175.8,194.3 176.1,191.0 176.3,191.8 176.5,186.0 176.8,182.1 177.0,188.5 177.2,190.0 177.5,185.3 177.7,181.8 177.9,184.9 178.2,185.3 178.4,186.4 178.7,187.1 178.9,187.0 179.1,186.1 179.4,184.1 179.6,177.6 179.8,180.9 180.1,182.3 180.3,178.8 180.5,180.6 180.8,179.5 181.0,177.7 181.2,173.5 181.5,170.0 181.7,168.6 182.0,164.2 182.2,160.6 182.4,157.2 182.7,151.9 182.9,159.2 183.1,159.3 183.4,158.3 183.6,156.5 183.8,158.6 184.1,158.1 184.3,157.5 184.5,154.6 184.8,151.1 185.0,151.3 185.3,153.5 185.5,157.2 185.7,155.1 186.0,157.4 186.2,157.9 186.4,158.3 186.7,156.8 186.9,159.5 187.1,164.5 187.4,164.7 187.6,163.3 187.8,166.3 188.1,163.8 188.3,165.1 188.6,159.5 188.8,159.4 189.0,158.9 189.3,160.3 189.5,160.9 189.7,155.0 190.0,150.5 190.2,151.6 190.4,153.3 190.7,154.5 190.9,154.4 191.1,148.5 191.4,148.0 191.6,148.5 191.9,153.8 192.1,155.5 192.3,157.8 192.6,156.6 192.8,155.9 193.0,160.4 193.3,158.0 193.5,157.0 193.7,158.0 194.0,159.6 194.2,155.3 194.4,152.4 194.7,154.3 194.9,154.0 195.2,154.0 195.4,152.6 195.6,150.8 195.9,151.9 196.1,153.3 196.3,154.3 196.6,152.9 196.8,155.5 197.0,155.9 197.3,157.2 197.5,155.0 197.7,151.7 198.0,152.5 198.2,153.1 198.5,157.1 198.7,159.7 198.9,159.9 199.2,161.6 199.4,161.9 199.6,161.0 199.9,157.9 200.1,157.2 200.3,158.6 200.6,155.9 200.8,159.7 201.0,160.9 201.3,159.7 201.5,156.8 201.8,156.5 202.0,155.3 202.2,156.3 202.5,155.8 202.7,156.9 202.9,155.6 203.2,155.5 203.4,152.3 203.6,151.3 203.9,151.9 204.1,154.5 204.3,155.4 204.6,154.5 204.8,151.9 205.1,152.1 205.3,150.9 205.5,153.1 205.8,150.2 206.0,154.2 206.2,153.6 206.5,152.2 206.7,153.3 206.9,150.2 207.2,149.6 207.4,148.9 207.6,146.5 207.9,147.4 208.1,148.3 208.4,146.0 208.6,145.3 208.8,142.9 209.1,143.7 209.3,145.6 209.5,145.3 209.8,145.4 210.0,146.9 210.2,145.9 210.5,148.0 210.7,148.2 210.9,147.6 211.2,148.3 211.4,149.9 211.7,150.6 211.9,149.8 212.1,149.5 212.4,148.9 212.6,146.4 212.8,144.6 213.1,144.1 213.3,143.6 213.5,145.4 213.8,148.1 214.0,146.1 214.2,148.2 214.5,148.1 214.7,148.0 215.0,147.0 215.2,146.4 215.4,147.2 215.7,147.8 215.9,149.2 216.1,146.5 216.4,145.3 216.6,145.7 216.8,141.9 217.1,141.7 217.3,139.1 217.5,138.5 217.8,138.0 218.0,137.5 218.3,138.4 218.5,138.5 218.7,137.2 219.0,137.2 219.2,136.3 219.4,133.7 219.7,132.4 219.9,131.4 220.1,132.9 220.4,132.5 220.6,134.7 220.8,134.0 221.1,134.4 221.3,135.5 221.6,132.0 221.8,134.5 222.0,136.4 222.3,137.1 222.5,135.6 222.7,136.5 223.0,137.1 223.2,137.8 223.4,140.1 223.7,138.9 223.9,133.7 224.1,135.2 224.4,133.7 224.6,134.4 224.9,127.9 225.1,127.1 225.3,127.3 225.6,127.5 225.8,129.5 226.0,128.7 226.3,130.3 226.5,121.8 226.7,118.1 227.0,122.4 227.2,120.9 227.4,120.4 227.7,120.2 227.9,120.3 228.2,120.7 228.4,119.6 228.6,120.5 228.9,123.2 229.1,126.2 229.3,126.2 229.6,124.8 229.8,123.3 230.0,123.5 230.3,124.6 230.5,125.0 230.7,123.8 231.0,124.3 231.2,124.6 231.5,125.6 231.7,123.9 231.9,123.8 232.2,123.0 232.4,122.9 232.6,121.6 232.9,121.9 233.1,120.2 233.3,121.0 233.6,122.0 233.8,121.4 234.0,125.1 234.3,125.7 234.5,125.7 234.8,128.8 235.0,126.3 235.2,127.0 235.5,128.3 235.7,128.7 235.9,131.0 236.2,129.7 236.4,129.6 236.6,129.7 236.9,131.3 237.1,133.5 237.3,134.6 237.6,133.0 237.8,131.3 238.1,130.5 238.3,133.2 238.5,133.5 238.8,134.3 239.0,131.2 239.2,132.0 239.5,130.7 239.7,133.4 239.9,132.2 240.2,131.8 240.4,128.9 240.6,127.4 240.9,130.3 241.1,130.9 241.4,132.0 241.6,132.2 241.8,133.0 242.1,138.0 242.3,137.7 242.5,136.8 242.8,135.0 243.0,137.7 243.2,135.3 243.5,135.7 243.7,137.7 243.9,138.3 244.2,140.0 244.4,141.1 244.7,140.7 244.9,141.5 245.1,141.0 245.4,138.6 245.6,134.6 245.8,139.2 246.1,138.8 246.3,137.7 246.5,135.4 246.8,135.0 247.0,133.2 247.2,134.3 247.5,133.2 247.7,133.7 248.0,134.8 248.2,135.3 248.4,134.1 248.7,135.0 248.9,134.8 249.1,135.4 249.4,134.7 249.6,135.4 249.8,133.0 250.1,133.2 250.3,133.3 250.5,131.8 250.8,132.4 251.0,133.8 251.3,134.2 251.5,137.0 251.7,134.2 252.0,133.8 252.2,135.0 252.4,132.6 252.7,133.1 252.9,133.1 253.1,132.7 253.4,132.9 253.6,134.6 253.8,135.2 254.1,131.3 254.3,131.9 254.6,131.3 254.8,132.5 255.0,131.2 255.3,129.9 255.5,130.3 255.7,134.0 256.0,135.0 256.2,135.7 256.4,135.1 256.7,132.7 256.9,135.8 257.1,133.5 257.4,132.2 257.6,133.6 257.9,132.6 258.1,135.4 258.3,135.7 258.6,132.8 258.8,133.6 259.0,137.9 259.3,139.0 259.5,137.2 259.7,135.2 260.0,133.3 260.2,133.6 260.4,132.8 260.7,132.7 260.9,132.2 261.2,132.1 261.4,134.2 261.6,134.8 261.9,138.8 262.1,138.6 262.3,138.0 262.6,137.0 262.8,137.2 263.0,137.9 263.3,137.9 263.5,137.8 263.7,134.0 264.0,135.5 264.2,135.3 264.5,135.1 264.7,127.9 264.9,128.2 265.2,125.9 265.4,126.7 265.6,126.5 265.9,125.7 266.1,126.5 266.3,126.2 266.6,127.2 266.8,130.3 267.0,131.8 267.3,132.5 267.5,134.2 267.8,136.2 268.0,137.3 268.2,137.4 268.5,138.2 268.7,139.1 268.9,139.0 269.2,135.3 269.4,134.3 269.6,133.5 269.9,134.6 270.1,136.6 270.3,135.7 270.6,134.4 270.8,132.5 271.1,133.1 271.3,132.3 271.5,131.2 271.8,131.3 272.0,131.3 272.2,129.2 272.5,128.9 272.7,125.1 272.9,123.2 273.2,124.0 273.4,122.6 273.6,123.2 273.9,121.5 274.1,121.2 274.4,121.0 274.6,118.6 274.8,119.7 275.1,121.2 275.3,121.7 275.5,122.5 275.8,122.8 276.0,122.6 276.2,123.2 276.5,121.2 276.7,123.3 276.9,122.9 277.2,122.2 277.4,124.9 277.7,123.8 277.9,122.7 278.1,122.2 278.4,122.2 278.6,122.7 278.8,123.1 279.1,123.0 279.3,123.0 279.5,124.3 279.8,123.6 280.0,115.6 280.2,112.4 280.5,113.9 280.7,113.8 281.0,114.9 281.2,112.4 281.4,109.5 281.7,110.3 281.9,112.2 282.1,111.9 282.4,113.2 282.6,114.0 282.8,119.7 283.1,119.8 283.3,120.3 283.5,119.2 283.8,121.5 284.0,121.3 284.3,120.2 284.5,119.9 284.7,119.4 285.0,120.2 285.2,120.0 285.4,120.5 285.7,115.6 285.9,115.5 286.1,115.9 286.4,115.4 286.6,117.9 286.8,120.6 287.1,121.3 287.3,122.9 287.6,122.4 287.8,121.8 288.0,122.6 288.3,123.3 288.5,123.3 288.7,123.5 289.0,124.0 289.2,123.5 289.4,122.9 289.7,121.3 289.9,120.7 290.1,121.4 290.4,118.9 290.6,118.1 290.9,120.6 291.1,122.4 291.3,123.2 291.6,122.8 291.8,121.5 292.0,118.7 292.3,119.9 292.5,120.7 292.7,121.7 293.0,121.5 293.2,120.7 293.4,122.1 293.7,122.8 293.9,123.9 294.2,124.3 294.4,124.5 294.6,124.6 294.9,124.7 295.1,124.8 295.3,127.0 295.6,128.1 295.8,127.8 296.0,129.4 296.3,130.0 296.5,131.2 296.7,133.4 297.0,134.1 297.2,132.1 297.5,132.7 297.7,132.4 297.9,132.4 298.2,131.2 298.4,132.5 298.6,132.5 298.9,131.4 299.1,130.8 299.3,130.8 299.6,132.4 299.8,134.6 300.0,136.3 300.3,136.2 300.5,135.2 300.8,135.4 301.0,136.9 301.2,137.2 301.5,137.0 301.7,139.6 301.9,141.7 302.2,142.3 302.4,142.2 302.6,141.1 302.9,141.5 303.1,138.4 303.3,135.9 303.6,135.2 303.8,136.9 304.1,135.5 304.3,137.2 304.5,137.6 304.8,135.5 305.0,136.5 305.2,136.3 305.5,136.7 305.7,133.0 305.9,134.2 306.2,134.7 306.4,131.6 306.6,130.2 306.9,129.6 307.1,129.0 307.4,129.7 307.6,129.9 307.8,126.5 308.1,126.3 308.3,124.9 308.5,121.6 308.8,130.6 309.0,132.6 309.2,133.3 309.5,133.5 309.7,134.0 309.9,135.1 310.2,135.3 310.4,136.8 310.7,137.1 310.9,136.1 311.1,139.0 311.4,139.3 311.6,140.4 311.8,140.7 312.1,140.3 312.3,139.3 312.5,138.2 312.8,134.7 313.0,134.3 313.2,135.4 313.5,137.2 313.7,141.8 314.0,144.2 314.2,144.4 314.4,143.2 314.7,142.9 314.9,141.0 315.1,141.6 315.4,140.8 315.6,140.3 315.8,140.5 316.1,138.9 316.3,142.0 316.5,143.0 316.8,143.2 317.0,143.5 317.3,143.2 317.5,142.9 317.7,141.1 318.0,141.8 318.2,142.3 318.4,145.5 318.7,144.5 318.9,146.6 319.1,146.0 319.4,142.7 319.6,142.6 319.8,144.2 320.1,144.1 320.3,144.6 320.6,147.5 320.8,146.7 321.0,147.2 321.3,147.8 321.5,150.2 321.7,150.7 322.0,147.4 322.2,149.4 322.4,148.9 322.7,149.3 322.9,148.0 323.1,147.8 323.4,145.1 323.6,153.1 323.9,151.8 324.1,150.7 324.3,152.4 324.6,151.6 324.8,149.6 325.0,151.8 325.3,152.7 325.5,152.6 325.7,154.7 326.0,155.8 326.2,154.5 326.4,155.0 326.7,154.3 326.9,154.2 327.2,155.4 327.4,154.7 327.6,154.8 327.9,156.1 328.1,153.3 328.3,150.5 328.6,150.0 328.8,150.2 329.0,151.6 329.3,152.8 329.5,152.6 329.7,151.6 330.0,152.5 330.2,154.1 330.5,155.1 330.7,155.0 330.9,149.3 331.2,152.0 331.4,153.9 331.6,153.5 331.9,153.4 332.1,153.5 332.3,157.2 332.6,155.3 332.8,156.5 333.0,158.2 333.3,157.9 333.5,154.5 333.8,155.0 334.0,157.3 334.2,157.6 334.5,158.7 334.7,155.9 334.9,156.9 335.2,151.8 335.4,153.8 335.6,156.0 335.9,155.7 336.1,161.2 336.3,163.5 336.6,165.1 336.8,165.6 337.1,162.9 337.3,162.6 337.5,163.1 337.8,162.1 338.0,162.2 338.2,163.4 338.5,167.9 338.7,167.6 338.9,164.1 339.2,167.6 339.4,171.6 339.6,172.8 339.9,170.5 340.1,170.5 340.4,174.8 340.6,173.6 340.8,173.4 341.1,175.1 341.3,176.6 341.5,178.1 341.8,182.9 342.0,184.5 342.2,183.5 342.5,183.5 342.7,180.5 342.9,179.9 343.2,176.4 343.4,178.5 343.7,182.4 343.9,182.8 344.1,185.7 344.4,185.5 344.6,186.4 344.8,183.5 345.1,184.8 345.3,185.8 345.5,185.2 345.8,192.3 346.0,192.4 346.2,195.5 346.5,196.9 346.7,195.6 347.0,189.3 347.2,194.2 347.4,193.9 347.7,190.3 347.9,188.1 348.1,190.1 348.4,189.4 348.6,194.2 348.8,192.6 349.1,187.7 349.3,186.3 349.5,182.3 349.8,183.8 350.0,180.8 350.3,179.8 350.5,184.9 350.7,183.1 351.0,178.8 351.2,179.4 351.4,180.0 351.7,177.0 351.9,174.5 352.1,173.6 352.4,174.2 352.6,173.6 352.8,177.4 353.1,178.1 353.3,176.7 353.6,176.5 353.8,177.5 354.0,175.9 354.3,176.3 354.5,177.6 354.7,176.8 355.0,175.4 355.2,174.4 355.4,175.7 355.7,177.6 355.9,179.3 356.1,179.7 356.4,182.0 356.6,181.5 356.9,180.2 357.1,180.1 357.3,176.6 357.6,172.6 357.8,172.6 358.0,171.5 358.3,169.6 358.5,173.2 358.7,175.7 359.0,176.1 359.2,173.1 359.4,172.4 359.7,173.3 359.9,175.1 360.2,176.0 360.4,179.1 360.6,176.8 360.9,176.9 361.1,173.2 361.3,175.0 361.6,175.6 361.8,175.9 362.0,177.5 362.3,176.7 362.5,176.8 362.7,179.9 363.0,180.6 363.2,179.8 363.5,179.9 363.7,181.0 363.9,182.9 364.2,181.2 364.4,181.0 364.6,180.5 364.9,179.8 365.1,177.2 365.3,176.7 365.6,177.6 365.8,176.1 366.0,176.3 366.3,175.3 366.5,175.5 366.8,175.1 367.0,175.3 367.2,176.5 367.5,174.7 367.7,169.8 367.9,168.5 368.2,169.0 368.4,173.7 368.6,173.9 368.9,174.5 369.1,176.6 369.3,179.2 369.6,178.7 369.8,177.9 370.1,179.1 370.3,178.0 370.5,178.0 370.8,179.0 371.0,180.8 371.2,178.2 371.5,177.5 371.7,177.2 371.9,178.3 372.2,177.8 372.4,181.5 372.6,184.8 372.9,184.4 373.1,182.7 373.4,182.5 373.6,181.7 373.8,182.8 374.1,183.2 374.3,183.6 374.5,182.7 374.8,183.4 375.0,184.9 375.2,184.8 375.5,184.1 375.7,183.8 375.9,185.0 376.2,185.8 376.4,186.6 376.7,183.6 376.9,181.3 377.1,182.0 377.4,178.7 377.6,180.1 377.8,180.0 378.1,180.0 378.3,176.9 378.5,178.0 378.8,179.2 379.0,180.7 379.2,179.7 379.5,179.6 379.7,179.1 380.0,178.8 380.2,178.5 380.4,176.3 380.7,175.5 380.9,174.7 381.1,174.4 381.4,177.3 381.6,179.3 381.8,180.4 382.1,180.3 382.3,181.4 382.5,181.2 382.8,181.3 383.0,185.0 383.3,188.8 383.5,190.1 383.7,185.8 384.0,183.4 384.2,183.4 384.4,184.5 384.7,189.7 384.9,190.7 385.1,189.9 385.4,188.8 385.6,190.4 385.8,190.6 386.1,194.1 386.3,196.0 386.6,192.2 386.8,189.4 387.0,190.6 387.3,189.5 387.5,190.6 387.7,192.7 388.0,192.9 388.2,193.1 388.4,189.2 388.7,187.5 388.9,188.3 389.1,188.0 389.4,187.2 389.6,184.5 389.9,183.8 390.1,180.8 390.3,178.5 390.6,177.6 390.8,178.7 391.0,177.8 391.3,172.9 391.5,174.3 391.7,174.9 392.0,175.4 392.2,175.5 392.4,175.7 392.7,177.5 392.9,177.5 393.2,177.0 393.4,177.9 393.6,177.4 393.9,180.8 394.1,184.0 394.3,186.0 394.6,185.8 394.8,186.4 395.0,189.8 395.3,190.5 395.5,190.6 395.7,189.8 396.0,192.1 396.2,192.7 396.5,195.1 396.7,199.0 396.9,199.3 397.2,200.7 397.4,200.1 397.6,202.9 397.9,201.6 398.1,203.5 398.3,217.1 398.6,220.3 398.8,218.6 399.0,217.1 399.3,213.1 399.5,212.2 399.8,213.4 400.0,215.9 400.2,214.2 400.5,212.2 400.7,213.8 400.9,213.4 401.2,213.9 401.4,210.8 401.6,211.0 401.9,212.5 402.1,210.9 402.3,209.9 402.6,209.0 402.8,209.5 403.1,209.9 403.3,208.7 403.5,209.0 403.8,210.8 404.0,212.8 404.2,213.8 404.5,212.0 404.7,209.9 404.9,205.4 405.2,205.4 405.4,205.7 405.6,206.3 405.9,203.1 406.1,203.1 406.4,201.6 406.6,198.8 406.8,198.4 407.1,197.8 407.3,199.0 407.5,200.0 407.8,198.5 408.0,200.0 408.2,198.1 408.5,198.1 408.7,199.7 408.9,196.7 409.2,191.7 409.4,190.8 409.7,192.9 409.9,193.0 410.1,196.1 410.4,198.5 410.6,198.2 410.8,199.2 411.1,196.1 411.3,195.5 411.5,195.0 411.8,195.2 412.0,197.9 412.2,199.5 412.5,200.8 412.7,205.6 413.0,203.6 413.2,201.4 413.4,200.8 413.7,203.2 413.9,203.1 414.1,201.4 414.4,197.4 414.6,196.0 414.8,199.8 415.1,199.6 415.3,199.7 415.5,202.3 415.8,203.6 416.0,203.6 416.3,203.9 416.5,201.6 416.7,201.7 417.0,204.2 417.2,209.1 417.4,214.9 417.7,219.0 417.9,220.3 418.1,220.2 418.4,217.6 418.6,220.2 418.8,219.3 419.1,219.1 419.3,224.1 419.6,250.4 419.8,255.1 420.0,265.1 420.3,279.2 420.5,270.9 420.7,271.0 421.0,281.2 421.2,289.0 421.4,280.1 421.7,280.4 421.9,293.0 422.1,280.3 422.4,273.3 422.6,274.4 422.9,289.4 423.1,284.5 423.3,278.6 423.6,278.5 423.8,274.7 424.0,272.1 424.3,268.0 424.5,267.1 424.7,257.2 425.0,256.7 425.2,257.3 425.4,260.8 425.7,268.1 425.9,274.7 426.2,267.5 426.4,264.5 426.6,264.3 426.9,255.4 427.1,250.9 427.3,255.5 427.6,255.3 427.8,253.5 428.0,242.9 428.3,242.3 428.5,247.5 428.7,244.9 429.0,246.1 429.2,250.5 429.5,249.3 429.7,249.2 429.9,250.8 430.2,245.3 430.4,252.4 430.6,254.0 430.9,250.5 431.1,249.3 431.3,239.8 431.6,245.0 431.8,250.5 432.0,256.1 432.3,254.0 432.5,254.0 432.8,253.7 433.0,255.5 433.2,253.6 433.5,248.3 433.7,247.8 433.9,244.5 434.2,240.7 434.4,234.6 434.6,239.1 434.9,243.9 435.1,251.4 435.3,248.9 435.6,250.9 435.8,250.1 436.1,257.2 436.3,255.0 436.5,254.4 436.8,255.5 437.0,255.9 437.2,261.8 437.5,262.4 437.7,266.3 437.9,262.6 438.2,261.2 438.4,261.6 438.7,263.1 438.9,260.8 439.1,263.8 439.4,266.6 439.6,269.1 439.8,262.0 440.1,265.9 440.3,264.8 440.5,262.8 440.8,263.3 441.0,262.8 441.2,265.5 441.5,259.1 441.7,263.8 442.0,266.4 442.2,263.3 442.4,263.9 442.7,263.5 442.9,260.3 443.1,262.2 443.4,263.5 443.6,257.1 443.8,257.9 444.1,254.2 444.3,253.1 444.5,248.5 444.8,250.7 445.0,246.4 445.3,248.2 445.5,247.0 445.7,247.0 446.0,248.4 446.2,246.9 446.4,249.7 446.7,251.7 446.9,249.0 447.1,248.3 447.4,249.2 447.6,249.1 447.8,249.2 448.1,250.2 448.3,250.1 448.6,254.1 448.8,254.4 449.0,251.8 449.3,263.3 449.5,261.5 449.7,262.8 450.0,261.6 450.2,262.7 450.4,263.1 450.7,258.0 450.9,256.7 451.1,259.5 451.4,261.1 451.6,260.4 451.9,264.8 452.1,262.3 452.3,263.3 452.6,260.6 452.8,263.7 453.0,264.1 453.3,265.9 453.5,264.4 453.7,261.7 454.0,263.5 454.2,261.5 454.4,256.8 454.7,256.7 454.9,258.4 455.2,259.9 455.4,258.9 455.6,258.8 455.9,261.5 456.1,259.7 456.3,261.7 456.6,257.1 456.8,259.2 457.0,263.9 457.3,264.4 457.5,266.6 457.7,267.3 458.0,266.0 458.2,262.6 458.5,260.4 458.7,261.1 458.9,260.7 459.2,260.3 459.4,250.6 459.6,249.2 459.9,248.7 460.1,253.2 460.3,249.6 460.6,245.2 460.8,245.7 461.0,246.6 461.3,244.4 461.5,245.0 461.8,236.0 462.0,228.6 462.2,232.6 462.5,232.8 462.7,231.4 462.9,239.2 463.2,240.5 463.4,238.2 463.6,240.5 463.9,233.5 464.1,234.7 464.3,235.4 464.6,235.6 464.8,228.7 465.1,231.1 465.3,233.1 465.5,232.0 465.8,236.9 466.0,237.8 466.2,236.3 466.5,241.0 466.7,243.1 466.9,238.9 467.2,240.7 467.4,241.6 467.6,239.8 467.9,241.0 468.1,241.0 468.4,233.0 468.6,234.1 468.8,233.0 469.1,233.2 469.3,234.5 469.5,229.5 469.8,231.2 470.0,226.2 470.2,232.2 470.5,233.3 470.7,227.7 470.9,227.9 471.2,231.4 471.4,235.5 471.7,234.1 471.9,238.5 472.1,237.2 472.4,235.4 472.6,235.8 472.8,230.7 473.1,232.3 473.3,231.4 473.5,227.1 473.8,228.8 474.0,223.2 474.2,227.4 474.5,224.6 474.7,226.3 475.0,217.2 475.2,213.7 475.4,213.6 475.7,215.8 475.9,218.0 476.1,213.2 476.4,211.9 476.6,209.4 476.8,210.9 477.1,212.7 477.3,212.8 477.5,213.3 477.8,209.5 478.0,207.7 478.3,206.1 478.5,205.4 478.7,204.4 479.0,201.3 479.2,199.3 479.4,200.6 479.7,202.2 479.9,203.3 480.1,203.8 480.4,206.2 480.6,204.1 480.8,204.3 481.1,206.3 481.3,206.3 481.6,207.0 481.8,205.4 482.0,206.3 482.3,206.1 482.5,206.5 482.7,203.2 483.0,204.3 483.2,203.5 483.4,203.7 483.7,203.5 483.9,204.1 484.1,203.8 484.4,204.0 484.6,201.7 484.9,200.6 485.1,203.4 485.3,203.7 485.6,211.2 485.8,212.0 486.0,214.2 486.3,215.1 486.5,212.6 486.7,211.7 487.0,208.5 487.2,209.3 487.4,209.7 487.7,207.5 487.9,206.8 488.2,207.8 488.4,207.3 488.6,205.9 488.9,206.0 489.1,206.7 489.3,205.8 489.6,207.5 489.8,205.2 490.0,201.5 490.3,204.7 490.5,207.5 490.7,208.2 491.0,207.6 491.2,209.3 491.5,207.5 491.7,207.8 491.9,207.4 492.2,208.9 492.4,202.8 492.6,203.3 492.9,203.2 493.1,204.5 493.3,207.0 493.6,207.6 493.8,207.6 494.0,207.4 494.3,206.9 494.5,204.9 494.8,198.6 495.0,200.2 495.2,205.2 495.5,205.3 495.7,199.4 495.9,197.5 496.2,193.2 496.4,190.2 496.6,189.7 496.9,192.5 497.1,194.3 497.3,194.2 497.6,194.3 497.8,193.3 498.1,195.6 498.3,197.8 498.5,198.0 498.8,197.6 499.0,197.3 499.2,198.5 499.5,202.2 499.7,203.1 499.9,205.3 500.2,207.9 500.4,204.7 500.6,202.4 500.9,202.5 501.1,202.4 501.4,203.2 501.6,204.8 501.8,203.8 502.1,201.8 502.3,202.4 502.5,201.7 502.8,206.6 503.0,205.8 503.2,205.5 503.5,206.7 503.7,200.9 503.9,199.9 504.2,200.7 504.4,203.6 504.7,205.7 504.9,206.3 505.1,206.1 505.4,209.2 505.6,208.6 505.8,204.8 506.1,203.2 506.3,204.1 506.5,203.4 506.8,203.1 507.0,203.8 507.2,203.6 507.5,204.8 507.7,202.1 508.0,204.5 508.2,205.5 508.4,207.5 508.7,209.7 508.9,207.7 509.1,206.0 509.4,205.9 509.6,202.4 509.8,201.4 510.1,204.2 510.3,208.1 510.5,208.9 510.8,206.5 511.0,205.8 511.3,204.3 511.5,201.1 511.7,203.9 512.0,203.8 512.2,205.6 512.4,203.8 512.7,201.3 512.9,198.3 513.1,199.0 513.4,193.4 513.6,192.5 513.8,193.0 514.1,194.6 514.3,191.1 514.6,190.2 514.8,190.8 515.0,190.5 515.3,188.2 515.5,189.9 515.7,187.4 516.0,185.8 516.2,185.3 516.4,188.6 516.7,189.1 516.9,191.8 517.1,190.0 517.4,192.0 517.6,193.2 517.9,193.4 518.1,192.4 518.3,189.1 518.6,188.1 518.8,190.9 519.0,190.0 519.3,190.4 519.5,189.7 519.7,187.8 520.0,191.4 520.2,194.2 520.4,198.2 520.7,198.3 520.9,196.0 521.2,194.0 521.4,193.9 521.6,201.7 521.9,201.9 522.1,201.8 522.3,205.2 522.6,205.6 522.8,204.7 523.0,203.5 523.3,201.4 523.5,201.8 523.7,201.7 524.0,201.7 524.2,204.8 524.5,206.8 524.7,208.3 524.9,206.6 525.2,208.8 525.4,208.6 525.6,206.0 525.9,204.8 526.1,206.4 526.3,206.5 526.6,205.5 526.8,204.5 527.0,203.8 527.3,200.9 527.5,202.5 527.8,198.5 528.0,200.7 528.2,200.9 528.5,198.9 528.7,195.7 528.9,196.5 529.2,195.3 529.4,193.5 529.6,193.7 529.9,195.7 530.1,197.3 530.3,198.7 530.6,199.3 530.8,195.4 531.1,192.8 531.3,190.4 531.5,185.9 531.8,182.8 532.0,180.0 532.2,179.7 532.5,178.8 532.7,177.3 532.9,176.4 533.2,178.5 533.4,177.5 533.6,177.4 533.9,176.5 534.1,177.5 534.4,177.7 534.6,179.3 534.8,179.9 535.1,180.9 535.3,182.0 535.5,182.2 535.8,182.5 536.0,182.2 536.2,177.4 536.5,177.0 536.7,177.2 536.9,178.5 537.2,175.7 537.4,175.0 537.7,175.0 537.9,175.8 538.1,175.4 538.4,175.3 538.6,179.0 538.8,178.0 539.1,176.1 539.3,175.1 539.5,177.7 539.8,175.3 540.0,176.2 540.2,175.2 540.5,175.3 540.7,173.0 541.0,173.8 541.2,174.6 541.4,174.3 541.7,175.7 541.9,173.8 542.1,173.0 542.4,174.0 542.6,174.0 542.8,173.9 543.1,172.0 543.3,172.0 543.5,171.1 543.8,169.9 544.0,168.7 544.3,163.6 544.5,166.1 544.7,168.8 545.0,175.7 545.2,176.4 545.4,176.8 545.7,173.7 545.9,173.9 546.1,172.3 546.4,173.4 546.6,176.1 546.8,173.5 547.1,165.1 547.3,165.4 547.6,164.5 547.8,172.0 548.0,175.2 548.3,174.2 548.5,176.9 548.7,170.4 549.0,168.7 549.2,170.1 549.4,170.1 549.7,169.1 549.9,170.4 550.1,170.3 550.4,166.1 550.6,167.1 550.9,164.5 551.1,164.1 551.3,165.2 551.6,163.3 551.8,164.7 552.0,164.4 552.3,165.0 552.5,161.8 552.7,159.0 553.0,161.5 553.2,163.8 553.4,165.2 553.7,166.1 553.9,165.9 554.2,171.5 554.4,179.2 554.6,179.0 554.9,177.3 555.1,180.7 555.3,185.7 555.6,185.2 555.8,181.7 556.0,178.5 556.3,180.5 556.5,182.2 556.7,181.2 557.0,184.9 557.2,188.8 557.5,182.2 557.7,183.5 557.9,185.8 558.2,187.0 558.4,184.6 558.6,184.7 558.9,180.7 559.1,173.4 559.3,168.1 559.6,168.5 559.8,169.0 560.0,171.7 560.3,169.5 560.5,169.0 560.8,166.6 561.0,166.0 561.2,165.2 561.5,169.3 561.7,173.0 561.9,176.0 562.2,175.5 562.4,175.3 562.6,176.1 562.9,176.0 563.1,175.2 563.3,175.5 563.6,175.4 563.8,175.9 564.1,175.5 564.3,174.2 564.5,176.2 564.8,172.1 565.0,170.9 565.2,169.4 565.5,169.3 565.7,170.0 565.9,166.5 566.2,169.1 566.4,170.8 566.6,172.2 566.9,170.9 567.1,170.8 567.4,172.3 567.6,170.5 567.8,168.8 568.1,165.8 568.3,166.6 568.5,163.9 568.8,164.6 569.0,165.4 569.2,164.6 569.5,164.2 569.7,165.8 569.9,167.1 570.2,174.1 570.4,175.1 570.7,172.0 570.9,169.9 571.1,171.0 571.4,170.6 571.6,165.1 571.8,160.0 572.1,159.1 572.3,158.1 572.5,158.5 572.8,159.2 573.0,159.1 573.2,156.4 573.5,158.7 573.7,157.3 574.0,159.3 574.2,156.8 574.4,158.1 574.7,157.3 574.9,154.4 575.1,151.1 575.4,151.9 575.6,151.4 575.8,150.1 576.1,150.8 576.3,150.7 576.5,150.2 576.8,149.2 577.0,149.5 577.3,149.1 577.5,148.5 577.7,154.3 578.0,150.7 578.2,148.8 578.4,149.8 578.7,147.7 578.9,149.0 579.1,149.1 579.4,149.9 579.6,150.9 579.8,147.5 580.1,148.4 580.3,148.8 580.6,147.7 580.8,148.0 581.0,146.2 581.3,146.0 581.5,146.6 581.7,146.9 582.0,149.9 582.2,153.6 582.4,151.2 582.7,151.0 582.9,151.0 583.1,148.5 583.4,146.7 583.6,147.2 583.9,146.1 584.1,151.4 584.3,151.2 584.6,149.6 584.8,147.6 585.0,149.5 585.3,146.7 585.5,149.4 585.7,147.3 586.0,146.6 586.2,152.5 586.4,152.1 586.7,153.8 586.9,150.8 587.2,150.7 587.4,148.5 587.6,147.2 587.9,144.3 588.1,141.1 588.3,139.5 588.6,139.5 588.8,140.9 589.0,140.0 589.3,139.1 589.5,138.5 589.7,139.7 590.0,142.4 590.2,142.2 590.5,140.8 590.7,141.0 590.9,140.6 591.2,143.5 591.4,144.3 591.6,141.8 591.9,142.6 592.1,141.4 592.3,139.0 592.6,140.6 592.8,140.3 593.0,140.3 593.3,138.7 593.5,140.7 593.8,140.5 594.0,143.6 594.2,145.6 594.5,144.7 594.7,144.8 594.9,144.8 595.2,146.1 595.4,148.0 595.6,145.5 595.9,143.8 596.1,143.9 596.3,146.1 596.6,148.0 596.8,147.7 597.1,149.6 597.3,151.6 597.5,154.3 597.8,154.4 598.0,154.9 598.2,153.7 598.5,152.7 598.7,150.5 598.9,147.7 599.2,149.3 599.4,150.5 599.6,150.7 599.9,149.7 600.1,148.9 600.4,148.0 600.6,148.4 600.8,146.9 601.1,144.2 601.3,144.6 601.5,144.3 601.8,144.5 602.0,144.9 602.2,144.5 602.5,143.5 602.7,143.7 602.9,142.8 603.2,144.9 603.4,148.9 603.7,150.5 603.9,150.1 604.1,149.8 604.4,149.1 604.6,149.7 604.8,149.2 605.1,148.7 605.3,147.0 605.5,147.0 605.8,149.0 606.0,148.8 606.2,147.9 606.5,142.7 606.7,141.5 607.0,140.4 607.2,141.9 607.4,142.2 607.7,141.6 607.9,138.7 608.1,140.0 608.4,139.3 608.6,139.3 608.8,137.9 609.1,135.9 609.3,137.4 609.5,138.7 609.8,138.5 610.0,137.4 610.3,139.1 610.5,139.7 610.7,137.2 611.0,133.3 611.2,133.0 611.4,130.8 611.7,132.9 611.9,134.4 612.1,134.2 612.4,137.0 612.6,135.4 612.8,136.4 613.1,135.6 613.3,134.8 613.6,134.6 613.8,136.0 614.0,136.0 614.3,137.9 614.5,138.1 614.7,138.1 615.0,137.2 615.2,137.1 615.4,136.5 615.7,136.6 615.9,135.7 616.1,133.2 616.4,133.4 616.6,130.8 616.9,128.4 617.1,128.5 617.3,128.4 617.6,125.7 617.8,127.5 618.0,125.4 618.3,120.9 618.5,121.7 618.7,120.0 619.0,123.2 619.2,124.2 619.4,123.7 619.7,123.6 619.9,125.1 620.2,122.5 620.4,122.4 620.6,122.2 620.9,122.3 621.1,122.4 621.3,122.0 621.6,121.6 621.8,122.5 622.0,122.2 622.3,121.5 622.5,121.8 622.7,123.7 623.0,122.0 623.2,121.1 623.5,120.5 623.7,121.4 623.9,122.6 624.2,122.9 624.4,123.6 624.6,122.4 624.9,122.6 625.1,122.6 625.3,122.5 625.6,124.0 625.8,122.6 626.0,124.0 626.3,125.4 626.5,124.7 626.8,124.6 627.0,126.9 627.2,126.2 627.5,127.3 627.7,127.2 627.9,126.2 628.2,125.0 628.4,126.7 628.6,127.1 628.9,128.0 629.1,127.1 629.3,125.7 629.6,127.1 629.8,126.6 630.1,126.3 630.3,126.9 630.5,128.5 630.8,130.0 631.0,130.8 631.2,130.6 631.5,129.4 631.7,126.9 631.9,126.7 632.2,127.3 632.4,126.2 632.6,126.2 632.9,126.6 633.1,128.6 633.4,129.6 633.6,130.5 633.8,129.4 634.1,129.3 634.3,127.1 634.5,129.9 634.8,130.9 635.0,131.0 635.2,129.7 635.5,127.8 635.7,126.7 635.9,127.9 636.2,128.0 636.4,129.4 636.7,130.2 636.9,130.8 637.1,130.1 637.4,129.5 637.6,129.5 637.8,130.4 638.1,132.5 638.3,133.1 638.5,132.7 638.8,130.5 639.0,130.5 639.2,129.0 639.5,128.8 639.7,131.2 640.0,130.2 640.2,127.5 640.4,127.0 640.7,126.1 640.9,128.1 641.1,127.8 641.4,130.6 641.6,130.3 641.8,129.3 642.1,132.9 642.3,134.9 642.5,133.3 642.8,132.3 643.0,133.2 643.3,132.2 643.5,131.7 643.7,134.1 644.0,132.9 644.2,132.9 644.4,133.5 644.7,135.3 644.9,134.1 645.1,134.1 645.4,132.8 645.6,133.3 645.8,133.7 646.1,133.7 646.3,131.3 646.6,134.4 646.8,133.4 647.0,132.7 647.3,131.6 647.5,135.2 647.7,138.7 648.0,140.5 648.2,141.2 648.4,139.2 648.7,137.6 648.9,137.1 649.1,135.9 649.4,135.7 649.6,137.7 649.9,138.0 650.1,139.3 650.3,139.6 650.6,142.9 650.8,143.9 651.0,143.7 651.3,141.5 651.5,139.4 651.7,140.0 652.0,137.3 652.2,138.6 652.4,137.9 652.7,134.5 652.9,133.4 653.2,134.2 653.4,131.1 653.6,130.2 653.9,129.3 654.1,129.2 654.3,128.9 654.6,129.1 654.8,129.1 655.0,127.4 655.3,128.4 655.5,127.1 655.7,126.1 656.0,128.3 656.2,128.5 656.5,126.5 656.7,123.8 656.9,122.6 657.2,124.0 657.4,122.3 657.6,122.9 657.9,122.0 658.1,122.1 658.3,122.6 658.6,122.6 658.8,120.7 659.0,122.3 659.3,119.8 659.5,117.6 659.8,114.7 660.0,114.8 660.2,113.3 660.5,112.5 660.7,112.0 660.9,111.8 661.2,111.8 661.4,110.7 661.6,111.3 661.9,112.8 662.1,113.7 662.3,112.7 662.6,113.3 662.8,113.9 663.1,112.5 663.3,113.6 663.5,115.4 663.8,115.2 664.0,116.2 664.2,115.7 664.5,114.4 664.7,118.9 664.9,121.0 665.2,120.8 665.4,121.4 665.6,120.8 665.9,120.7 666.1,119.3 666.4,119.2 666.6,120.6 666.8,119.6 667.1,120.2 667.3,119.8 667.5,120.6 667.8,121.0 668.0,119.9 668.2,120.4 668.5,121.2 668.7,120.6 668.9,119.4 669.2,117.7 669.4,118.0 669.7,116.3 669.9,112.6 670.1,118.1 670.4,119.7 670.6,120.9 670.8,119.4 671.1,120.1 671.3,117.3 671.5,116.2 671.8,116.3 672.0,118.6 672.2,119.6 672.5,118.0 672.7,116.4 673.0,114.7 673.2,114.9 673.4,120.4 673.7,117.1 673.9,117.7 674.1,119.2 674.4,118.4 674.6,118.8 674.8,117.5 675.1,116.9 675.3,115.3 675.5,116.5 675.8,116.1 676.0,117.9 676.3,115.8 676.5,112.1 676.7,110.5 677.0,108.2 677.2,110.9 677.4,109.9 677.7,109.7 677.9,109.8 678.1,111.5 678.4,112.3 678.6,113.0 678.8,112.9 679.1,111.1 679.3,111.8 679.6,110.4 679.8,111.3 680.0,113.5 680.3,116.8 680.5,117.0 680.7,117.1 681.0,116.3 681.2,115.6 681.4,114.0 681.7,115.3 681.9,113.7 682.1,113.5 682.4,114.4 682.6,113.2 682.9,114.7 683.1,114.0 683.3,114.2 683.6,113.8 683.8,112.7 684.0,114.1 684.3,113.0 684.5,110.9 684.7,110.6 685.0,111.2 685.2,114.7 685.4,115.5 685.7,117.9 685.9,118.1 686.2,117.4 686.4,117.2 686.6,117.3 686.9,116.6 687.1,115.3 687.3,112.2 687.6,112.3 687.8,110.6 688.0,109.8 688.3,110.3 688.5,110.3 688.7,110.9 689.0,113.8 689.2,111.7 689.5,111.3 689.7,109.6 689.9,109.0 690.2,108.7 690.4,108.0 690.6,105.7 690.9,108.4 691.1,108.5 691.3,108.7 691.6,108.1 691.8,109.4 692.0,109.0 692.3,109.0 692.5,109.8 692.8,109.0 693.0,108.3 693.2,110.9 693.5,108.8 693.7,109.0 693.9,110.3 694.2,108.8 694.4,107.0 694.6,109.8 694.9,112.5 695.1,111.1 695.3,109.8 695.6,106.3 695.8,105.1 696.1,105.6 696.3,106.4 696.5,105.4 696.8,104.5 697.0,102.4 697.2,104.3 697.5,102.8 697.7,103.7 697.9,102.7 698.2,100.1 698.4,99.0 698.6,100.3 698.9,103.1 699.1,102.3 699.4,102.2 699.6,102.3 699.8,102.2 700.1,101.7 700.3,103.0 700.5,103.5 700.8,104.4 701.0,104.1 701.2,106.4 701.5,105.6 701.7,106.0 701.9,105.2 702.2,107.3 702.4,109.0 702.7,111.2 702.9,113.1 703.1,113.7 703.4,110.2 703.6,108.9 703.8,110.2 704.1,109.4 704.3,108.1 704.5,107.1 704.8,106.6 705.0,105.4 705.2,104.8 705.5,106.7 705.7,106.2 706.0,106.7 706.2,110.7 706.4,109.8 706.7,107.3 706.9,109.5 707.1,109.8 707.4,107.9 707.6,108.8 707.8,108.8 708.1,110.0 708.3,111.8 708.5,110.9 708.8,111.2 709.0,109.8 709.3,110.0 709.5,112.1 709.7,111.6 710.0,110.4 710.2,110.9 710.4,111.7 710.7,111.4 710.9,110.9 711.1,109.1 711.4,111.0 711.6,110.8 711.8,111.9 712.1,110.4 712.3,110.5 712.6,109.0 712.8,112.2 713.0,112.8 713.3,114.8 713.5,116.5 713.7,115.4 714.0,114.1 714.2,116.0 714.4,117.4 714.7,117.9 714.9,117.7 715.1,117.0 715.4,118.0 715.6,117.2 715.9,116.1 716.1,118.0 716.3,117.4 716.6,116.8 716.8,116.2 717.0,115.1 717.3,114.5 717.5,115.4 717.7,115.2 718.0,115.8 718.2,115.1 718.4,115.3 718.7,116.0 718.9,115.8 719.2,113.3 719.4,111.4 719.6,116.5 719.9,125.5 720.1,129.1 720.3,132.7 720.6,123.5 720.8,131.6 721.0,131.2 721.3,129.9 721.5,126.7 721.7,126.1 722.0,127.3 722.2,127.3 722.5,127.0 722.7,126.5 722.9,126.5 723.2,126.1 723.4,125.5 723.6,126.5 723.9,128.6 724.1,130.2 724.3,128.4 724.6,129.7 724.8,129.5 725.0,129.1 725.3,129.8 725.5,129.0 725.8,126.4 726.0,125.9 726.2,125.1 726.5,126.7 726.7,126.8 726.9,126.0 727.2,128.7 727.4,129.7 727.6,129.3 727.9,129.7 728.1,130.0 728.3,130.7 728.6,131.0 728.8,129.0 729.1,128.9 729.3,128.6 729.5,129.4 729.8,130.6 730.0,129.5 730.2,128.4 730.5,126.3 730.7,125.1 730.9,126.2 731.2,123.4 731.4,125.0 731.6,123.4 731.9,123.7 732.1,122.5 732.4,124.2 732.6,126.5 732.8,127.4 733.1,127.1 733.3,125.2 733.5,127.3 733.8,125.4 734.0,124.7 734.2,125.1 734.5,125.5 734.7,125.8 734.9,125.3 735.2,125.5 735.4,126.4 735.7,126.7 735.9,125.6 736.1,122.9 736.4,123.3 736.6,123.6 736.8,122.6 737.1,123.4 737.3,123.1 737.5,123.4 737.8,123.2 738.0,123.8 738.2,123.1 738.5,122.2 738.7,122.4 739.0,124.3 739.2,126.4 739.4,124.5 739.7,126.1 739.9,124.4 740.1,124.4 740.4,124.3 740.6,123.9 740.8,125.2 741.1,124.6 741.3,124.9 741.5,124.7 741.8,126.0 742.0,124.4 742.3,122.5 742.5,122.6 742.7,124.3 743.0,123.9 743.2,122.4 743.4,123.7 743.7,123.2 743.9,120.8 744.1,121.8 744.4,120.8 744.6,122.2 744.8,123.0 745.1,122.1 745.3,120.5 745.6,121.2 745.8,120.7 746.0,120.6 746.3,117.4 746.5,118.7 746.7,118.4 747.0,118.6 747.2,118.3 747.4,117.0 747.7,113.8 747.9,112.5 748.1,112.1 748.4,114.4 748.6,113.9 748.9,113.1 749.1,115.2 749.3,113.6 749.6,112.5 749.8,112.1 750.0,112.7 750.3,116.0 750.5,118.3 750.7,118.1 751.0,117.9 751.2,119.5 751.4,118.6 751.7,117.3 751.9,116.6 752.2,116.3 752.4,115.9 752.6,117.5 752.9,116.5 753.1,117.0 753.3,117.6 753.6,116.9 753.8,116.8 754.0,117.2 754.3,118.4 754.5,115.0 754.7,114.3 755.0,113.7 755.2,110.6 755.5,108.2 755.7,108.8 755.9,109.9 756.2,110.1 756.4,110.7 756.6,108.9 756.9,109.3 757.1,110.0 757.3,110.7 757.6,110.2 757.8,111.8 758.0,109.7 758.3,109.9 758.5,109.5 758.8,108.7 759.0,110.5 759.2,107.4 759.5,104.4 759.7,105.3 759.9,105.7 760.2,108.7 760.4,106.1 760.6,106.9 760.9,106.6 761.1,107.3 761.3,110.5 761.6,108.1 761.8,109.3 762.1,109.8 762.3,107.7 762.5,107.2 762.8,108.0 763.0,108.3 763.2,107.5 763.5,107.6 763.7,107.4 763.9,111.6 764.2,112.5 764.4,112.1 764.6,111.4 764.9,109.5 765.1,108.9 765.4,107.8 765.6,108.7 765.8,107.8 766.1,104.5 766.3,104.5 766.5,106.8 766.8,103.0 767.0,104.7 767.2,103.8 767.5,102.4 767.7,101.0 767.9,99.9 768.2,97.1 768.4,97.0 768.7,99.3 768.9,96.9 769.1,95.0 769.4,97.0 769.6,94.7 769.8,94.4 770.1,97.6 770.3,95.3 770.5,96.3 770.8,96.3 771.0,96.1 771.2,95.1 771.5,93.4 771.7,94.0 772.0,94.1 772.2,92.2 772.4,94.1 772.7,92.6 772.9,91.3 773.1,88.9 773.4,92.2 773.6,91.8 773.8,90.4 774.1,91.6 774.3,90.9 774.5,89.9 774.8,89.8 775.0,89.2 775.3,89.6 775.5,88.5 775.7,87.9 776.0,87.1 776.2,86.7 776.4,84.5 776.7,87.1 776.9,86.8 777.1,86.6 777.4,87.4 777.6,83.9 777.8,86.7 778.1,86.5 778.3,88.9 778.6,86.9 778.8,86.3 779.0,84.5 779.3,87.4 779.5,89.4 779.7,87.1 780.0,86.2 780.2,88.4 780.4,89.1 780.7,89.1 780.9,91.4 781.1,90.4 781.4,88.4 781.6,87.4 781.9,84.4 782.1,84.7 782.3,84.8 782.6,83.6 782.8,80.5 783.0,79.2 783.3,79.0 783.5,79.2 783.7,78.6 784.0,82.5 784.2,82.3 784.4,83.1 784.7,82.0 784.9,79.7 785.2,81.5 785.4,79.6 785.6,77.3 785.9,76.5 786.1,77.9 786.3,77.9 786.6,77.7 786.8,80.3 787.0,80.1 787.3,81.6 787.5,81.4 787.7,83.9 788.0,80.8 788.2,78.8 788.5,78.6 788.7,77.6 788.9,79.7 789.2,78.1 789.4,79.5 789.6,79.3 789.9,78.8 790.1,80.2 790.3,82.8 790.6,84.8 790.8,85.4 791.0,88.2 791.3,87.4 791.5,86.8 791.8,86.6 792.0,87.2 792.2,86.4 792.5,86.8 792.7,87.9 792.9,87.2 793.2,87.0 793.4,86.4 793.6,88.7 793.9,86.7 794.1,83.3 794.3,85.0 794.6,84.9 794.8,81.9 795.1,81.5 795.3,80.5 795.5,78.2 795.8,76.9 796.0,77.6"/>
<text x="78" y="392" font-size="11" fill="#16a34a">Total return +43.7%</text><text x="268" y="392" font-size="11" fill="#2563eb">Price-only -6.8%</text><text x="78" y="362" font-size="11" text-anchor="middle" fill="#64748b">2014-05</text><text x="257" y="362" font-size="11" text-anchor="middle" fill="#64748b">2017-06</text><text x="437" y="362" font-size="11" text-anchor="middle" fill="#64748b">2020-06</text><text x="617" y="362" font-size="11" text-anchor="middle" fill="#64748b">2023-07</text><text x="796" y="362" font-size="11" text-anchor="middle" fill="#64748b">2026-07</text></svg>