<svg xmlns="http://www.w3.org/2000/svg" width="720" height="360" viewBox="0 0 720 360">
  <rect width="720" height="360" fill="#fafafa"/>
  <text x="56" y="22" font-size="13" font-family="sans-serif" fill="#222">MSTR total return (rebased 100) · cumulative distributions $0.00/sh · market cap n/a</text>
  <line x1="56" y1="308" x2="696" y2="308" stroke="#ccc"/>
  <line x1="56" y1="48" x2="56" y2="308" stroke="#ccc"/>
  <polyline fill="none" stroke="#2563eb" stroke-width="2" points="56.0,287.4 58.7,286.9 61.4,286.3 64.0,285.3 66.7,285.4 69.4,285.6 72.1,285.2 74.7,284.9 77.4,284.9 80.1,285.6 82.8,286.2 85.5,286.7 88.1,287.9 90.8,288.1 93.5,287.5 96.2,286.5 98.8,286.3 101.5,286.7 104.2,287.9 106.9,288.3 109.6,287.8 112.2,287.0 114.9,287.5 117.6,288.4 120.3,288.6 122.9,288.4 125.6,288.7 128.3,289.8 131.0,290.0 133.7,289.9 136.3,289.8 139.0,289.9 141.7,290.1 144.4,289.8 147.0,289.4 149.7,289.2 152.4,288.6 155.1,288.5 157.8,288.0 160.4,287.1 163.1,287.1 165.8,286.7 168.5,286.7 171.1,287.0 173.8,287.2 176.5,287.7 179.2,287.7 181.9,287.8 184.5,287.3 187.2,287.6 189.9,287.1 192.6,286.9 195.2,287.1 197.9,287.2 200.6,286.0 203.3,285.3 206.0,284.5 208.6,284.1 211.3,283.8 214.0,282.9 216.7,283.1 219.3,285.1 222.0,285.6 224.7,284.6 227.4,285.1 230.1,285.9 232.7,285.5 235.4,284.4 238.1,284.2 240.8,284.2 243.4,285.2 246.1,284.7 248.8,285.5 251.5,285.0 254.2,284.5 256.8,286.7 259.5,287.0 262.2,286.8 264.9,286.4 267.5,286.3 270.2,286.3 272.9,286.9 275.6,286.9 278.3,287.1 280.9,286.7 283.6,286.8 286.3,286.2 289.0,285.2 291.6,284.7 294.3,285.0 297.0,285.0 299.7,284.8 302.4,285.5 305.0,285.2 307.7,284.1 310.4,284.1 313.1,284.0 315.7,284.2 318.4,284.7 321.1,283.0 323.8,282.4 326.5,282.9 329.1,282.9 331.8,282.0 334.5,282.5 337.2,281.8 339.8,282.1 342.5,282.5 345.2,280.6 347.9,280.9 350.6,281.0 353.2,282.4 355.9,282.3 358.6,282.0 361.3,282.3 363.9,283.0 366.6,281.9 369.3,282.0 372.0,281.5 374.7,282.2 377.3,282.2 380.0,282.7 382.7,282.6 385.4,281.1 388.1,281.1 390.7,280.9 393.4,280.7 396.1,281.3 398.8,281.5 401.4,281.3 404.1,281.8 406.8,281.3 409.5,284.5 412.2,284.8 414.8,284.8 417.5,284.6 420.2,284.3 422.9,284.6 425.5,284.3 428.2,284.8 430.9,284.8 433.6,284.9 436.3,284.7 438.9,284.8 441.6,284.7 444.3,283.6 447.0,284.1 449.6,284.9 452.3,284.7 455.0,284.8 457.7,284.9 460.4,284.1 463.0,283.9 465.7,283.6 468.4,284.5 471.1,284.0 473.7,284.3 476.4,284.0 479.1,283.7 481.8,283.4 484.5,283.6 487.1,284.0 489.8,283.5 492.5,284.4 495.2,285.4 497.8,284.9 500.5,285.0 503.2,285.4 505.9,285.1 508.6,283.9 511.2,283.6 513.9,282.6 516.6,272.8 519.3,270.3 521.9,257.5 524.6,250.0 527.3,254.0 530.0,255.2 532.7,265.7 535.3,254.8 538.0,257.0 540.7,253.2 543.4,259.6 546.0,252.0 548.7,251.6 551.4,261.5 554.1,271.4 556.8,267.2 559.4,264.8 562.1,272.2 564.8,277.2 567.5,282.8 570.1,276.0 572.8,279.0 575.5,280.1 578.2,277.0 580.9,280.9 583.5,284.1 586.2,277.9 588.9,277.3 591.6,275.6 594.2,273.6 596.9,275.1 599.6,272.8 602.3,267.5 605.0,272.0 607.6,273.6 610.3,268.3 613.0,264.1 615.7,256.7 618.3,264.0 621.0,234.8 623.7,196.7 626.4,232.4 629.1,206.7 631.7,215.0 634.4,201.7 637.1,217.9 639.8,197.7 642.4,155.3 645.1,75.3 647.8,130.0 650.5,104.8 653.2,149.1 655.8,130.8 658.5,79.4 661.2,85.6 663.9,65.9 666.5,67.3 669.2,105.0 671.9,111.8 674.6,141.3 677.3,192.9 679.9,207.0 682.6,208.3 685.3,219.6 688.0,222.2 690.6,199.5 693.3,203.0 696.0,227.2"/>
  <polyline fill="none" stroke="#16a34a" stroke-width="2" points="56.0,287.4 58.7,286.9 61.4,286.3 64.0,285.3 66.7,285.4 69.4,285.6 72.1,285.2 74.7,284.9 77.4,284.9 80.1,285.6 82.8,286.2 85.5,286.7 88.1,287.9 90.8,288.1 93.5,287.5 96.2,286.5 98.8,286.3 101.5,286.7 104.2,287.9 106.9,288.3 109.6,287.8 112.2,287.0 114.9,287.5 117.6,288.4 120.3,288.6 122.9,288.4 125.6,288.7 128.3,289.8 131.0,290.0 133.7,289.9 136.3,289.8 139.0,289.9 141.7,290.1 144.4,289.8 147.0,289.4 149.7,289.2 152.4,288.6 155.1,288.5 157.8,288.0 160.4,287.1 163.1,287.1 165.8,286.7 168.5,286.7 171.1,287.0 173.8,287.2 176.5,287.7 179.2,287.7 181.9,287.8 184.5,287.3 187.2,287.6 189.9,287.1 192.6,286.9 195.2,287.1 197.9,287.2 200.6,286.0 203.3,285.3 206.0,284.5 208.6,284.1 211.3,283.8 214.0,282.9 216.7,283.1 219.3,285.1 222.0,285.6 224.7,284.6 227.4,285.1 230.1,285.9 232.7,285.5 235.4,284.4 238.1,284.2 240.8,284.2 243.4,285.2 246.1,284.7 248.8,285.5 251.5,285.0 254.2,284.5 256.8,286.7 259.5,287.0 262.2,286.8 264.9,286.4 267.5,286.3 270.2,286.3 272.9,286.9 275.6,286.9 278.3,287.1 280.9,286.7 283.6,286.8 286.3,286.2 289.0,285.2 291.6,284.7 294.3,285.0 297.0,285.0 299.7,284.8 302.4,285.5 305.0,285.2 307.7,284.1 310.4,284.1 313.1,284.0 315.7,284.2 318.4,284.7 321.1,283.0 323.8,282.4 326.5,282.9 329.1,282.9 331.8,282.0 334.5,282.5 337.2,281.8 339.8,282.1 342.5,282.5 345.2,280.6 347.9,280.9 350.6,281.0 353.2,282.4 355.9,282.3 358.6,282.0 361.3,282.3 363.9,283.0 366.6,281.9 369.3,282.0 372.0,281.5 374.7,282.2 377.3,282.2 380.0,282.7 382.7,282.6 385.4,281.1 388.1,281.1 390.7,280.9 393.4,280.7 396.1,281.3 398.8,281.5 401.4,281.3 404.1,281.8 406.8,281.3 409.5,284.5 412.2,284.8 414.8,284.8 417.5,284.6 420.2,284.3 422.9,284.6 425.5,284.3 428.2,284.8 430.9,284.8 433.6,284.9 436.3,284.7 438.9,284.8 441.6,284.7 444.3,283.6 447.0,284.1 449.6,284.9 452.3,284.7 455.0,284.8 457.7,284.9 460.4,284.1 463.0,283.9 465.7,283.6 468.4,284.5 471.1,284.0 473.7,284.3 476.4,284.0 479.1,283.7 481.8,283.4 484.5,283.6 487.1,284.0 489.8,283.5 492.5,284.4 495.2,285.4 497.8,284.9 500.5,285.0 503.2,285.4 505.9,285.1 508.6,283.9 511.2,283.6 513.9,282.6 516.6,272.8 519.3,270.3 521.9,257.5 524.6,250.0 527.3,254.0 530.0,255.2 532.7,265.7 535.3,254.8 538.0,257.0 540.7,253.2 543.4,259.6 546.0,252.0 548.7,251.6 551.4,261.5 554.1,271.4 556.8,267.2 559.4,264.8 562.1,272.2 564.8,277.2 567.5,282.8 570.1,276.0 572.8,279.0 575.5,280.1 578.2,277.0 580.9,280.9 583.5,284.1 586.2,277.9 588.9,277.3 591.6,275.6 594.2,273.6 596.9,275.1 599.6,272.8 602.3,267.5 605.0,272.0 607.6,273.6 610.3,268.3 613.0,264.1 615.7,256.7 618.3,264.0 621.0,234.8 623.7,196.7 626.4,232.4 629.1,206.7 631.7,215.0 634.4,201.7 637.1,217.9 639.8,197.7 642.4,155.3 645.1,75.3 647.8,130.0 650.5,104.8 653.2,149.1 655.8,130.8 658.5,79.4 661.2,85.6 663.9,65.9 666.5,67.3 669.2,105.0 671.9,111.8 674.6,141.3 677.3,192.9 679.9,207.0 682.6,208.3 685.3,219.6 688.0,222.2 690.6,199.5 693.3,203.0 696.0,227.2"/>
  <text x="60" y="62" font-size="11" fill="#2563eb">Price index</text>
  <text x="146" y="62" font-size="11" fill="#16a34a">Total return (price + distributions)</text>
  <text x="56" y="348" font-size="11" text-anchor="middle" fill="#444">2006-07</text><text x="217" y="348" font-size="11" text-anchor="middle" fill="#444">2011-07</text><text x="377" y="348" font-size="11" text-anchor="middle" fill="#444">2016-07</text><text x="538" y="348" font-size="11" text-anchor="middle" fill="#444">2021-07</text><text x="696" y="348" font-size="11" text-anchor="middle" fill="#444">2026-06</text>
</svg>
