<svg xmlns="http://www.w3.org/2000/svg" width="720" height="360" viewBox="0 0 720 360">
  <rect width="720" height="360" fill="#fafafa"/>
  <text x="56" y="22" font-size="13" font-family="sans-serif" fill="#222">DRR.AX total return (rebased 100) · cumulative distributions $0.00/sh · market cap n/a</text>
  <line x1="56" y1="308" x2="696" y2="308" stroke="#ccc"/>
  <line x1="56" y1="48" x2="56" y2="308" stroke="#ccc"/>
  <polyline fill="none" stroke="#2563eb" stroke-width="2" points="56.0,174.0 65.4,151.0 74.8,207.3 84.2,179.7 93.6,252.1 103.1,200.4 112.5,220.0 121.9,185.5 131.3,165.9 140.7,202.7 150.1,267.1 159.5,256.7 168.9,228.0 178.4,208.5 187.8,210.8 197.2,190.1 206.6,147.5 216.0,144.1 225.4,186.6 234.8,215.4 244.2,206.2 253.6,221.1 263.1,242.9 272.5,232.6 281.9,171.7 291.3,176.3 300.7,140.6 310.1,188.9 319.5,151.0 328.9,174.0 338.4,186.6 347.8,174.0 357.2,162.5 366.6,191.2 376.0,152.1 385.4,162.5 394.8,132.6 404.2,97.0 413.6,65.9 423.1,132.6 432.5,136.0 441.9,133.7 451.3,170.5 460.7,244.1 470.1,244.1 479.5,279.7 488.9,238.3 498.4,277.4 507.8,271.7 517.2,275.1 526.6,234.9 536.0,290.1 545.4,288.9 554.8,283.2 564.2,265.9 573.6,270.5 583.1,225.7 592.5,221.1 601.9,245.2 611.3,233.7 620.7,237.2 630.1,234.9 639.5,216.5 648.9,206.2 658.4,240.6 667.8,229.1 677.2,185.5 686.6,202.7 696.0,202.7"/>
  <polyline fill="none" stroke="#16a34a" stroke-width="2" points="56.0,174.0 65.4,151.0 74.8,207.3 84.2,179.7 93.6,252.1 103.1,200.4 112.5,220.0 121.9,185.5 131.3,165.9 140.7,202.7 150.1,267.1 159.5,256.7 168.9,228.0 178.4,208.5 187.8,210.8 197.2,190.1 206.6,147.5 216.0,144.1 225.4,186.6 234.8,215.4 244.2,206.2 253.6,221.1 263.1,242.9 272.5,232.6 281.9,171.7 291.3,176.3 300.7,140.6 310.1,188.9 319.5,151.0 328.9,174.0 338.4,186.6 347.8,174.0 357.2,162.5 366.6,191.2 376.0,152.1 385.4,162.5 394.8,132.6 404.2,97.0 413.6,65.9 423.1,132.6 432.5,136.0 441.9,133.7 451.3,170.5 460.7,244.1 470.1,244.1 479.5,279.7 488.9,238.3 498.4,277.4 507.8,271.7 517.2,275.1 526.6,234.9 536.0,290.1 545.4,288.9 554.8,283.2 564.2,265.9 573.6,270.5 583.1,225.7 592.5,221.1 601.9,245.2 611.3,233.7 620.7,237.2 630.1,234.9 639.5,216.5 648.9,206.2 658.4,240.6 667.8,229.1 677.2,185.5 686.6,202.7 696.0,202.7"/>
  <text x="60" y="62" font-size="11" fill="#2563eb">Price index</text>
  <text x="146" y="62" font-size="11" fill="#16a34a">Total return (price + distributions)</text>
  <text x="56" y="348" font-size="11" text-anchor="middle" fill="#444">2020-10</text><text x="216" y="348" font-size="11" text-anchor="middle" fill="#444">2022-03</text><text x="376" y="348" font-size="11" text-anchor="middle" fill="#444">2023-08</text><text x="536" y="348" font-size="11" text-anchor="middle" fill="#444">2025-01</text><text x="696" y="348" font-size="11" text-anchor="middle" fill="#444">2026-06</text>
</svg>
