<svg xmlns="http://www.w3.org/2000/svg" width="720" height="360" viewBox="0 0 720 360">
  <rect width="720" height="360" fill="#fafafa"/>
  <text x="56" y="22" font-size="13" font-family="sans-serif" fill="#222">DRR.AX total return (rebased 100) · cumulative distributions $0.00/sh · market cap n/a</text>
  <line x1="56" y1="308" x2="696" y2="308" stroke="#ccc"/>
  <line x1="56" y1="48" x2="56" y2="308" stroke="#ccc"/>
  <polyline fill="none" stroke="#2563eb" stroke-width="2" points="56.0,159.6 56.5,189.5 56.9,213.4 57.4,204.4 57.8,218.3 58.3,226.3 58.7,213.4 59.2,224.3 59.6,215.4 60.1,194.4 60.5,187.5 61.0,179.5 61.4,189.5 61.9,191.4 62.3,183.5 62.8,198.4 63.2,192.4 63.7,197.4 64.1,201.4 64.6,195.4 65.0,193.4 65.5,183.5 65.9,167.5 66.4,171.5 66.8,169.5 67.3,154.6 67.7,159.6 68.2,159.6 68.6,143.6 69.1,121.7 69.5,106.8 70.0,94.8 70.4,107.8 70.9,111.8 71.3,122.7 71.8,119.7 72.2,138.7 72.7,158.6 73.1,162.6 73.6,154.6 74.0,145.6 74.5,125.7 74.9,136.7 75.4,139.6 75.8,136.7 76.3,136.7 76.7,137.7 77.2,139.6 77.6,134.7 78.1,131.7 78.5,143.6 79.0,132.7 79.4,151.6 79.9,155.6 80.3,158.6 80.8,161.6 81.2,166.5 81.7,177.5 82.1,180.5 82.6,165.5 83.0,172.5 83.5,158.6 83.9,155.6 84.4,146.6 84.8,169.5 85.3,177.5 85.7,188.5 86.2,185.5 86.6,180.5 87.1,176.5 87.5,178.5 88.0,175.5 88.4,172.5 88.9,164.6 89.3,165.5 89.8,166.5 90.2,169.5 90.7,163.6 91.1,155.6 91.6,162.6 92.0,149.6 92.5,158.6 92.9,149.6 93.4,139.6 93.8,155.6 94.3,168.5 94.7,164.6 95.2,171.5 95.6,170.5 96.1,186.5 96.5,196.4 97.0,199.4 97.4,194.4 97.9,204.4 98.3,205.4 98.8,206.4 99.2,203.4 99.7,204.4 100.1,204.4 100.6,214.4 101.0,219.3 101.5,226.3 101.9,232.3 102.4,230.3 102.8,229.3 103.3,227.3 103.7,227.3 104.2,221.3 104.6,223.3 105.1,227.3 105.5,219.3 106.0,217.3 106.4,219.3 106.9,202.4 107.3,208.4 107.8,213.4 108.2,209.4 108.7,206.4 109.1,202.4 109.6,208.4 110.0,208.4 110.5,209.4 110.9,201.4 111.4,183.5 111.8,184.5 112.3,191.4 112.7,176.5 113.2,178.5 113.6,179.5 114.1,182.5 114.5,184.5 115.0,181.5 115.4,179.5 115.9,184.5 116.3,179.5 116.8,170.5 117.2,173.5 117.7,173.5 118.1,171.5 118.6,176.5 119.0,177.5 119.5,168.5 119.9,183.5 120.4,178.5 120.8,184.5 121.3,199.4 121.7,199.4 122.2,205.4 122.6,208.4 123.1,200.4 123.5,199.4 124.0,193.4 124.4,178.5 124.9,166.5 125.3,187.5 125.8,191.4 126.2,185.5 126.7,189.5 127.1,182.5 127.6,167.5 128.0,162.6 128.5,163.6 128.9,165.5 129.4,162.6 129.8,176.5 130.3,179.5 130.7,177.5 131.2,177.5 131.6,169.5 132.1,167.5 132.5,171.5 133.0,169.5 133.4,176.5 133.9,179.5 134.3,189.5 134.8,195.4 135.2,197.4 135.7,190.5 136.1,188.5 136.6,180.5 137.0,185.5 137.5,186.5 137.9,187.5 138.4,179.5 138.8,164.6 139.3,167.5 139.7,154.6 140.2,142.6 140.6,141.6 141.1,133.7 141.5,149.6 142.0,154.6 142.4,153.6 142.9,152.6 143.3,161.6 143.8,165.5 144.2,166.5 144.7,171.5 145.1,167.5 145.6,167.5 146.0,174.5 146.5,168.5 146.9,162.6 147.4,164.6 147.8,182.5 148.3,188.5 148.7,178.5 149.2,202.4 149.6,199.4 150.1,207.4 150.5,198.4 151.0,178.5 151.4,186.5 151.9,191.4 152.3,187.5 152.8,184.5 153.2,192.4 153.7,207.4 154.1,197.4 154.6,208.4 155.0,215.4 155.5,216.4 155.9,225.3 156.4,219.3 156.8,225.3 157.3,228.3 157.7,233.3 158.2,233.3 158.6,244.2 159.1,249.2 159.5,247.2 160.0,231.3 160.4,227.3 160.9,238.3 161.3,239.3 161.8,251.2 162.2,254.2 162.7,240.3 163.1,254.2 163.6,253.2 164.0,257.2 164.5,261.2 164.9,255.2 165.4,242.3 165.8,244.2 166.3,244.2 166.7,242.3 167.2,239.3 167.6,230.3 168.1,223.3 168.5,226.3 169.0,230.3 169.4,222.3 169.9,222.3 170.3,218.3 170.8,222.3 171.2,233.3 171.7,230.3 172.1,231.3 172.6,223.3 173.0,234.3 173.5,240.3 173.9,239.3 174.4,237.3 174.8,221.3 175.3,212.4 175.7,225.3 176.2,222.3 176.6,215.4 177.1,217.3 177.5,214.4 178.0,214.4 178.4,216.4 178.9,210.4 179.3,207.4 179.8,204.4 180.2,204.4 180.7,197.4 181.1,204.4 181.6,206.4 182.0,206.4 182.5,205.4 182.9,208.4 183.4,207.4 183.8,210.4 184.3,204.4 184.7,203.4 185.2,206.4 185.6,206.4 186.1,202.4 186.5,197.4 187.0,201.4 187.4,202.4 187.9,199.4 188.3,199.4 188.8,186.5 189.2,200.4 189.7,186.5 190.1,189.5 190.6,185.5 191.0,184.5 191.5,189.5 191.9,183.5 192.4,182.5 192.8,189.5 193.3,183.5 193.7,177.5 194.2,180.5 194.6,176.5 195.1,174.5 195.5,176.5 196.0,179.5 196.4,176.5 196.9,174.5 197.3,161.6 197.8,180.5 198.2,183.5 198.7,194.4 199.1,202.4 199.6,192.4 200.0,191.4 200.5,173.5 200.9,169.5 201.4,164.6 201.8,160.6 202.3,156.6 202.7,163.6 203.2,167.5 203.6,159.6 204.1,162.6 204.5,159.6 205.0,163.6 205.4,165.5 205.9,168.5 206.3,172.5 206.8,170.5 207.2,176.5 207.7,176.5 208.1,186.5 208.6,187.5 209.0,173.5 209.5,171.5 209.9,164.6 210.4,163.6 210.8,168.5 211.3,178.5 211.7,191.4 212.2,190.5 212.6,191.4 213.1,209.4 213.5,197.4 214.0,199.4 214.4,183.5 214.9,176.5 215.3,175.5 215.8,169.5 216.2,161.6 216.7,166.5 217.1,163.6 217.6,152.6 218.0,153.6 218.5,143.6 218.9,136.7 219.4,136.7 219.8,139.6 220.3,131.7 220.7,133.7 221.2,139.6 221.6,141.6 222.1,141.6 222.5,139.6 223.0,147.6 223.4,142.6 223.9,134.7 224.3,139.6 224.8,140.6 225.2,133.7 225.7,136.7 226.1,155.6 226.6,153.6 227.0,141.6 227.5,133.7 227.9,132.7 228.4,142.6 228.8,144.6 229.3,132.7 229.7,143.6 230.2,156.6 230.6,171.5 231.1,178.5 231.5,183.5 232.0,176.5 232.4,174.5 232.9,171.5 233.3,161.6 233.8,174.5 234.2,169.5 234.7,163.6 235.1,169.5 235.6,171.5 236.0,179.5 236.5,171.5 236.9,168.5 237.4,170.5 237.8,176.5 238.3,179.5 238.7,169.5 239.2,163.6 239.6,159.6 240.1,147.6 240.5,148.6 241.0,169.5 241.4,182.5 241.9,192.4 242.3,192.4 242.8,196.4 243.2,217.3 243.7,206.4 244.1,192.4 244.6,195.4 245.0,191.4 245.5,186.5 245.9,176.5 246.4,182.5 246.8,195.4 247.3,192.4 247.7,194.4 248.2,197.4 248.6,214.4 249.1,211.4 249.5,200.4 250.0,210.4 250.4,217.3 250.9,220.3 251.3,208.4 251.8,217.3 252.2,211.4 252.7,208.4 253.1,202.4 253.6,192.4 254.0,198.4 254.5,194.4 254.9,184.5 255.4,194.4 255.8,182.5 256.3,187.5 256.7,174.5 257.2,173.5 257.6,170.5 258.1,173.5 258.5,162.6 259.0,164.6 259.4,157.6 259.9,161.6 260.3,156.6 260.8,162.6 261.2,156.6 261.7,161.6 262.1,160.6 262.6,161.6 263.0,157.6 263.5,160.6 263.9,168.5 264.4,163.6 264.8,195.4 265.3,184.5 265.7,194.4 266.2,194.4 266.6,200.4 267.1,212.4 267.5,214.4 268.0,209.4 268.4,211.4 268.9,208.4 269.3,199.4 269.8,187.5 270.2,188.5 270.7,178.5 271.1,185.5 271.6,195.4 272.0,195.4 272.5,201.4 272.9,197.4 273.4,202.4 273.8,213.4 274.3,218.3 274.7,219.3 275.2,227.3 275.6,222.3 276.1,219.3 276.5,219.3 277.0,210.4 277.4,212.4 277.9,209.4 278.3,210.4 278.8,213.4 279.2,207.4 279.7,210.4 280.1,201.4 280.6,193.4 281.0,200.4 281.5,197.4 281.9,192.4 282.4,197.4 282.8,198.4 283.3,193.4 283.7,186.5 284.2,184.5 284.6,179.5 285.1,202.4 285.5,210.4 286.0,204.4 286.4,201.4 286.9,211.4 287.3,209.4 287.8,202.4 288.2,202.4 288.7,196.4 289.1,205.4 289.6,188.5 290.0,169.5 290.5,171.5 290.9,174.5 291.4,183.5 291.8,177.5 292.3,179.5 292.7,173.5 293.2,168.5 293.6,171.5 294.1,172.5 294.5,169.5 295.0,161.6 295.4,157.6 295.9,144.6 296.3,156.6 296.8,143.6 297.2,148.6 297.7,145.6 298.1,152.6 298.6,140.6 299.0,150.6 299.5,163.6 299.9,153.6 300.4,159.6 300.8,159.6 301.3,159.6 301.7,165.5 302.2,160.6 302.6,151.6 303.1,154.6 303.5,156.6 304.0,155.6 304.4,161.6 304.9,158.6 305.3,158.6 305.8,154.6 306.2,144.6 306.7,147.6 307.1,149.6 307.6,145.6 308.0,140.6 308.5,146.6 308.9,142.6 309.4,149.6 309.8,141.6 310.3,139.6 310.7,137.7 311.2,138.7 311.6,131.7 312.1,131.7 312.5,128.7 313.0,135.7 313.4,130.7 313.9,128.7 314.3,134.7 314.8,130.7 315.2,124.7 315.7,127.7 316.1,128.7 316.6,123.7 317.0,132.7 317.5,138.7 317.9,135.7 318.4,135.7 318.8,132.7 319.3,140.6 319.7,150.6 320.2,143.6 320.6,156.6 321.1,153.6 321.5,164.6 322.0,178.5 322.4,172.5 322.9,166.5 323.3,155.6 323.8,150.6 324.2,154.6 324.7,155.6 325.1,155.6 325.6,154.6 326.0,164.6 326.5,163.6 326.9,170.5 327.4,167.5 327.8,175.5 328.3,173.5 328.7,182.5 329.2,178.5 329.6,175.5 330.1,180.5 330.5,176.5 331.0,173.5 331.4,167.5 331.9,143.6 332.3,139.6 332.8,139.6 333.2,140.6 333.7,133.7 334.1,145.6 334.6,157.6 335.0,142.6 335.5,135.7 335.9,136.7 336.4,143.6 336.8,139.6 337.3,141.6 337.7,143.6 338.2,142.6 338.6,153.6 339.1,155.6 339.5,163.6 340.0,160.6 340.4,159.6 340.9,152.6 341.3,155.6 341.8,162.6 342.2,155.6 342.7,157.6 343.1,157.6 343.6,159.6 344.0,162.6 344.5,169.5 344.9,173.5 345.4,165.5 345.8,163.6 346.3,167.5 346.7,165.5 347.2,165.5 347.6,169.5 348.1,173.5 348.5,181.5 349.0,184.5 349.4,176.5 349.9,176.5 350.3,173.5 350.8,170.5 351.2,182.5 351.7,180.5 352.1,173.5 352.6,179.5 353.0,175.5 353.5,171.5 353.9,163.6 354.4,165.5 354.8,164.6 355.3,157.6 355.7,160.6 356.2,157.6 356.6,152.6 357.1,158.6 357.5,169.5 358.0,175.5 358.4,169.5 358.9,166.5 359.3,163.6 359.8,163.6 360.2,159.6 360.7,164.6 361.1,158.6 361.6,159.6 362.0,162.6 362.5,166.5 362.9,172.5 363.4,166.5 363.8,163.6 364.3,157.6 364.7,150.6 365.2,150.6 365.6,147.6 366.1,146.6 366.5,150.6 367.0,156.6 367.4,158.6 367.9,150.6 368.3,141.6 368.8,143.6 369.2,150.6 369.7,149.6 370.1,142.6 370.6,161.6 371.0,164.6 371.5,161.6 371.9,164.6 372.4,168.5 372.8,169.5 373.3,170.5 373.7,170.5 374.2,172.5 374.6,162.6 375.1,169.5 375.5,171.5 376.0,168.5 376.5,161.6 376.9,183.5 377.4,182.5 377.8,181.5 378.3,189.5 378.7,193.4 379.2,194.4 379.6,186.5 380.1,174.5 380.5,167.5 381.0,149.6 381.4,145.6 381.9,146.6 382.3,153.6 382.8,156.6 383.2,152.6 383.7,149.6 384.1,158.6 384.6,142.6 385.0,134.7 385.5,132.7 385.9,133.7 386.4,137.7 386.8,127.7 387.3,128.7 387.7,132.7 388.2,140.6 388.6,142.6 389.1,145.6 389.5,140.6 390.0,141.6 390.4,151.6 390.9,149.6 391.3,150.6 391.8,145.6 392.2,149.6 392.7,144.6 393.1,138.7 393.6,131.7 394.0,128.7 394.5,125.7 394.9,118.7 395.4,119.7 395.8,125.7 396.3,131.7 396.7,145.6 397.2,142.6 397.6,140.6 398.1,149.6 398.5,147.6 399.0,147.6 399.4,149.6 399.9,150.6 400.3,143.6 400.8,145.6 401.2,151.6 401.7,143.6 402.1,147.6 402.6,140.6 403.0,134.7 403.5,133.7 403.9,123.7 404.4,113.7 404.8,112.8 405.3,110.8 405.7,113.7 406.2,106.8 406.6,110.8 407.1,119.7 407.5,116.7 408.0,119.7 408.4,118.7 408.9,119.7 409.3,123.7 409.8,120.7 410.2,119.7 410.7,125.7 411.1,122.7 411.6,119.7 412.0,108.8 412.5,109.8 412.9,107.8 413.4,109.8 413.8,105.8 414.3,101.8 414.7,98.8 415.2,92.8 415.6,95.8 416.1,94.8 416.5,95.8 417.0,91.8 417.4,89.8 417.9,92.8 418.3,91.8 418.8,99.8 419.2,95.8 419.7,104.8 420.1,107.8 420.6,100.8 421.0,110.8 421.5,117.7 421.9,122.7 422.4,125.2 422.8,134.7 423.3,115.7 423.7,111.8 424.2,100.8 424.6,91.8 425.1,90.8 425.5,87.8 426.0,81.9 426.4,81.9 426.9,74.9 427.3,65.9 427.8,84.9 428.2,78.9 428.7,86.9 429.1,92.8 429.6,93.8 430.0,90.8 430.5,99.8 430.9,101.8 431.4,105.8 431.8,108.8 432.3,113.7 432.7,104.8 433.2,102.8 433.6,110.8 434.1,111.8 434.5,124.7 435.0,114.7 435.4,121.7 435.9,125.7 436.3,122.7 436.8,123.7 437.2,113.7 437.7,121.7 438.1,127.7 438.6,128.7 439.0,118.7 439.5,117.7 439.9,137.7 440.4,139.6 440.8,137.7 441.3,126.7 441.7,124.7 442.2,139.6 442.6,140.6 443.1,131.7 443.5,132.7 444.0,143.6 444.4,139.6 444.9,149.6 445.3,145.6 445.8,126.7 446.2,122.7 446.7,127.7 447.1,128.7 447.6,144.6 448.0,146.6 448.5,143.6 448.9,138.7 449.4,144.6 449.8,146.6 450.3,135.7 450.7,138.7 451.2,138.7 451.6,132.7 452.1,137.7 452.5,127.7 453.0,122.7 453.4,122.7 453.9,130.7 454.3,119.7 454.8,124.7 455.2,132.7 455.7,129.7 456.1,129.7 456.6,132.7 457.0,120.7 457.5,119.7 457.9,118.7 458.4,126.7 458.8,129.7 459.3,132.7 459.7,134.7 460.2,140.6 460.6,135.7 461.1,134.7 461.5,136.7 462.0,136.7 462.4,141.6 462.9,140.6 463.3,142.6 463.8,143.6 464.2,153.6 464.7,165.5 465.1,156.6 465.6,149.6 466.0,150.6 466.5,161.6 466.9,164.6 467.4,161.6 467.8,171.5 468.3,175.5 468.7,173.5 469.2,204.4 469.6,213.4 470.1,207.4 470.5,206.4 471.0,208.4 471.4,213.4 471.9,224.3 472.3,219.3 472.8,217.3 473.2,218.3 473.7,220.3 474.1,218.3 474.6,217.3 475.0,211.4 475.5,202.4 475.9,205.4 476.4,211.4 476.8,213.4 477.3,223.3 477.7,214.4 478.2,213.4 478.6,214.4 479.1,220.3 479.5,219.3 480.0,227.3 480.4,231.3 480.9,233.3 481.3,231.3 481.8,227.3 482.2,231.3 482.7,223.3 483.1,229.3 483.6,235.3 484.0,220.3 484.5,220.3 484.9,221.3 485.4,233.3 485.8,240.3 486.3,240.3 486.7,242.3 487.2,234.3 487.6,237.3 488.1,236.3 488.5,250.2 489.0,249.2 489.4,244.2 489.9,251.2 490.3,242.3 490.8,234.3 491.2,234.3 491.7,231.3 492.1,226.3 492.6,249.2 493.0,252.2 493.5,252.2 493.9,251.2 494.4,254.2 494.8,259.2 495.3,279.1 495.7,279.1 496.2,283.1 496.6,276.1 497.1,275.1 497.5,268.2 498.0,261.2 498.4,251.2 498.9,251.2 499.3,252.2 499.8,253.2 500.2,245.2 500.7,250.2 501.1,251.2 501.6,242.3 502.0,234.3 502.5,224.3 502.9,219.3 503.4,215.4 503.8,211.4 504.3,219.3 504.7,225.3 505.2,227.3 505.6,224.3 506.1,230.3 506.5,241.3 507.0,231.3 507.4,235.3 507.9,231.3 508.3,223.3 508.8,227.3 509.2,230.3 509.7,235.3 510.1,237.3 510.6,241.3 511.0,240.3 511.5,244.2 511.9,245.2 512.4,242.3 512.8,242.3 513.3,244.2 513.7,249.2 514.2,242.3 514.6,246.2 515.1,249.2 515.5,250.2 516.0,248.2 516.4,247.2 516.9,263.2 517.3,258.2 517.8,260.2 518.2,261.2 518.7,259.2 519.1,252.2 519.6,252.2 520.0,255.2 520.5,255.2 520.9,255.2 521.4,253.2 521.8,254.2 522.3,250.2 522.7,247.2 523.2,244.2 523.6,242.3 524.1,233.3 524.5,230.3 525.0,228.3 525.4,230.3 525.9,234.3 526.3,219.3 526.8,225.3 527.2,228.3 527.7,230.3 528.1,234.3 528.6,233.3 529.0,238.3 529.5,246.2 529.9,245.2 530.4,239.3 530.8,236.3 531.3,233.3 531.7,238.3 532.2,247.2 532.6,240.3 533.1,242.3 533.5,246.2 534.0,251.2 534.4,243.2 534.9,238.3 535.3,227.3 535.8,229.3 536.2,225.3 536.7,217.3 537.1,212.4 537.6,212.4 538.0,210.4 538.5,211.4 538.9,216.4 539.4,221.3 539.8,218.3 540.3,218.3 540.7,217.3 541.2,219.3 541.6,212.4 542.1,213.4 542.5,213.4 543.0,207.4 543.4,202.4 543.9,201.4 544.3,207.4 544.8,209.4 545.2,211.4 545.7,198.4 546.1,197.4 546.6,194.4 547.0,205.4 547.5,217.3 547.9,234.3 548.4,234.3 548.8,235.3 549.3,259.2 549.7,264.2 550.2,261.2 550.6,260.2 551.1,256.2 551.5,256.2 552.0,261.2 552.4,259.2 552.9,263.2 553.3,263.2 553.8,269.1 554.2,274.1 554.7,273.1 555.1,262.2 555.6,253.2 556.0,253.2 556.5,258.2 556.9,261.2 557.4,262.2 557.8,258.2 558.3,251.2 558.7,245.2 559.2,246.2 559.6,245.2 560.1,259.2 560.5,248.2 561.0,257.2 561.4,264.2 561.9,267.2 562.3,276.1 562.8,266.2 563.2,290.1 563.7,266.2 564.1,268.2 564.6,267.2 565.0,272.1 565.5,281.1 565.9,268.2 566.4,271.1 566.8,268.2 567.3,268.2 567.7,262.2 568.2,250.2 568.6,254.2 569.1,249.2 569.5,245.2 570.0,253.2 570.4,260.2 570.9,255.2 571.3,254.2 571.8,249.2 572.2,247.2 572.7,244.2 573.1,246.2 573.6,251.2 574.0,244.2 574.5,249.2 574.9,247.2 575.4,246.2 575.8,247.2 576.3,244.2 576.7,242.3 577.2,244.2 577.6,243.2 578.1,241.3 578.5,239.3 579.0,241.3 579.4,240.3 579.9,237.3 580.3,233.3 580.8,234.3 581.2,234.3 581.7,230.3 582.1,239.3 582.6,238.3 583.0,240.3 583.5,241.3 583.9,245.2 584.4,251.2 584.8,253.2 585.3,259.2 585.7,254.2 586.2,253.2 586.6,252.2 587.1,241.3 587.5,243.2 588.0,243.2 588.4,234.3 588.9,234.3 589.3,233.3 589.8,233.3 590.2,231.3 590.7,226.3 591.1,222.3 591.6,212.4 592.0,207.4 592.5,208.4 592.9,213.4 593.4,210.4 593.8,211.4 594.3,207.4 594.7,201.4 595.2,195.4 595.6,193.4 596.1,201.4 596.5,206.4 597.0,206.4 597.4,201.4 597.9,204.4 598.3,200.4 598.8,194.4 599.2,188.5 599.7,189.5 600.1,185.5 600.6,182.5 601.0,174.5 601.5,174.5 601.9,177.5 602.4,183.5 602.8,177.5 603.3,177.5 603.7,174.5 604.2,196.4 604.6,193.4 605.1,198.4 605.5,181.5 606.0,210.4 606.4,200.4 606.9,201.4 607.3,200.4 607.8,201.4 608.2,206.4 608.7,209.4 609.1,204.4 609.6,201.4 610.0,199.4 610.5,199.4 610.9,211.4 611.4,203.4 611.8,204.4 612.3,203.4 612.7,204.4 613.2,207.4 613.6,205.4 614.1,206.4 614.5,195.4 615.0,209.4 615.4,200.4 615.9,222.3 616.3,219.3 616.8,220.3 617.2,221.3 617.7,221.3 618.1,212.4 618.6,200.4 619.0,197.4 619.5,203.4 619.9,201.4 620.4,201.4 620.8,208.4 621.3,209.4 621.7,205.4 622.2,201.4 622.6,203.4 623.1,203.4 623.5,202.4 624.0,203.4 624.4,205.4 624.9,201.4 625.3,208.4 625.8,206.4 626.2,211.4 626.7,210.4 627.1,207.4 627.6,211.4 628.0,215.4 628.5,226.3 628.9,233.3 629.4,227.3 629.8,228.3 630.3,228.3 630.7,233.3 631.2,228.3 631.6,223.3 632.1,227.3 632.5,226.3 633.0,238.3 633.4,237.3 633.9,230.3 634.3,238.3 634.8,233.3 635.2,223.3 635.7,221.3 636.1,215.4 636.6,214.4 637.0,215.4 637.5,215.4 637.9,199.4 638.4,207.4 638.8,206.4 639.3,202.4 639.7,203.4 640.2,207.4 640.6,205.4 641.1,208.4 641.5,211.4 642.0,217.3 642.4,208.4 642.9,199.4 643.3,207.4 643.8,197.4 644.2,194.4 644.7,203.4 645.1,200.4 645.6,200.4 646.0,212.4 646.5,206.4 646.9,201.4 647.4,196.4 647.8,197.4 648.3,187.5 648.7,196.4 649.2,193.4 649.6,178.5 650.1,174.5 650.5,174.5 651.0,173.5 651.4,168.5 651.9,165.5 652.3,161.6 652.8,165.5 653.2,166.5 653.7,163.6 654.1,168.5 654.6,179.5 655.0,196.4 655.5,203.4 655.9,204.4 656.4,193.4 656.8,202.4 657.3,208.4 657.7,191.4 658.2,190.5 658.6,187.5 659.1,191.4 659.5,197.4 660.0,204.4 660.4,188.5 660.9,186.5 661.3,184.5 661.8,191.4 662.2,182.5 662.7,185.5 663.1,186.5 663.6,183.5 664.0,187.5 664.5,175.5 664.9,183.5 665.4,204.4 665.8,206.4 666.3,216.4 666.7,237.3 667.2,230.3 667.6,221.3 668.1,224.3 668.5,221.3 669.0,228.3 669.4,223.3 669.9,220.3 670.3,230.3 670.8,246.2 671.2,244.2 671.7,237.3 672.1,232.3 672.6,234.3 673.0,221.3 673.5,217.3 673.9,217.3 674.4,205.4 674.8,216.4 675.3,209.4 675.7,202.4 676.2,193.4 676.6,201.4 677.1,207.4 677.5,201.4 678.0,207.4 678.4,202.4 678.9,202.4 679.3,202.4 679.8,204.4 680.2,204.4 680.7,210.4 681.1,215.4 681.6,215.4 682.0,212.4 682.5,205.4 682.9,207.4 683.4,197.4 683.8,194.4 684.3,194.4 684.7,191.4 685.2,186.5 685.6,181.5 686.1,177.5 686.5,174.5 687.0,169.5 687.4,168.5 687.9,169.5 688.3,176.5 688.8,176.5 689.2,173.5 689.7,167.5 690.1,165.5 690.6,155.6 691.0,151.6 691.5,153.6 691.9,163.6 692.4,169.5 692.8,170.5 693.3,176.5 693.7,171.5 694.2,176.5 694.6,179.5 695.1,186.5 695.5,184.5 696.0,184.5"/>
  <polyline fill="none" stroke="#16a34a" stroke-width="2" points="56.0,159.6 56.5,189.5 56.9,213.4 57.4,204.4 57.8,218.3 58.3,226.3 58.7,213.4 59.2,224.3 59.6,215.4 60.1,194.4 60.5,187.5 61.0,179.5 61.4,189.5 61.9,191.4 62.3,183.5 62.8,198.4 63.2,192.4 63.7,197.4 64.1,201.4 64.6,195.4 65.0,193.4 65.5,183.5 65.9,167.5 66.4,171.5 66.8,169.5 67.3,154.6 67.7,159.6 68.2,159.6 68.6,143.6 69.1,121.7 69.5,106.8 70.0,94.8 70.4,107.8 70.9,111.8 71.3,122.7 71.8,119.7 72.2,138.7 72.7,158.6 73.1,162.6 73.6,154.6 74.0,145.6 74.5,125.7 74.9,136.7 75.4,139.6 75.8,136.7 76.3,136.7 76.7,137.7 77.2,139.6 77.6,134.7 78.1,131.7 78.5,143.6 79.0,132.7 79.4,151.6 79.9,155.6 80.3,158.6 80.8,161.6 81.2,166.5 81.7,177.5 82.1,180.5 82.6,165.5 83.0,172.5 83.5,158.6 83.9,155.6 84.4,146.6 84.8,169.5 85.3,177.5 85.7,188.5 86.2,185.5 86.6,180.5 87.1,176.5 87.5,178.5 88.0,175.5 88.4,172.5 88.9,164.6 89.3,165.5 89.8,166.5 90.2,169.5 90.7,163.6 91.1,155.6 91.6,162.6 92.0,149.6 92.5,158.6 92.9,149.6 93.4,139.6 93.8,155.6 94.3,168.5 94.7,164.6 95.2,171.5 95.6,170.5 96.1,186.5 96.5,196.4 97.0,199.4 97.4,194.4 97.9,204.4 98.3,205.4 98.8,206.4 99.2,203.4 99.7,204.4 100.1,204.4 100.6,214.4 101.0,219.3 101.5,226.3 101.9,232.3 102.4,230.3 102.8,229.3 103.3,227.3 103.7,227.3 104.2,221.3 104.6,223.3 105.1,227.3 105.5,219.3 106.0,217.3 106.4,219.3 106.9,202.4 107.3,208.4 107.8,213.4 108.2,209.4 108.7,206.4 109.1,202.4 109.6,208.4 110.0,208.4 110.5,209.4 110.9,201.4 111.4,183.5 111.8,184.5 112.3,191.4 112.7,176.5 113.2,178.5 113.6,179.5 114.1,182.5 114.5,184.5 115.0,181.5 115.4,179.5 115.9,184.5 116.3,179.5 116.8,170.5 117.2,173.5 117.7,173.5 118.1,171.5 118.6,176.5 119.0,177.5 119.5,168.5 119.9,183.5 120.4,178.5 120.8,184.5 121.3,199.4 121.7,199.4 122.2,205.4 122.6,208.4 123.1,200.4 123.5,199.4 124.0,193.4 124.4,178.5 124.9,166.5 125.3,187.5 125.8,191.4 126.2,185.5 126.7,189.5 127.1,182.5 127.6,167.5 128.0,162.6 128.5,163.6 128.9,165.5 129.4,162.6 129.8,176.5 130.3,179.5 130.7,177.5 131.2,177.5 131.6,169.5 132.1,167.5 132.5,171.5 133.0,169.5 133.4,176.5 133.9,179.5 134.3,189.5 134.8,195.4 135.2,197.4 135.7,190.5 136.1,188.5 136.6,180.5 137.0,185.5 137.5,186.5 137.9,187.5 138.4,179.5 138.8,164.6 139.3,167.5 139.7,154.6 140.2,142.6 140.6,141.6 141.1,133.7 141.5,149.6 142.0,154.6 142.4,153.6 142.9,152.6 143.3,161.6 143.8,165.5 144.2,166.5 144.7,171.5 145.1,167.5 145.6,167.5 146.0,174.5 146.5,168.5 146.9,162.6 147.4,164.6 147.8,182.5 148.3,188.5 148.7,178.5 149.2,202.4 149.6,199.4 150.1,207.4 150.5,198.4 151.0,178.5 151.4,186.5 151.9,191.4 152.3,187.5 152.8,184.5 153.2,192.4 153.7,207.4 154.1,197.4 154.6,208.4 155.0,215.4 155.5,216.4 155.9,225.3 156.4,219.3 156.8,225.3 157.3,228.3 157.7,233.3 158.2,233.3 158.6,244.2 159.1,249.2 159.5,247.2 160.0,231.3 160.4,227.3 160.9,238.3 161.3,239.3 161.8,251.2 162.2,254.2 162.7,240.3 163.1,254.2 163.6,253.2 164.0,257.2 164.5,261.2 164.9,255.2 165.4,242.3 165.8,244.2 166.3,244.2 166.7,242.3 167.2,239.3 167.6,230.3 168.1,223.3 168.5,226.3 169.0,230.3 169.4,222.3 169.9,222.3 170.3,218.3 170.8,222.3 171.2,233.3 171.7,230.3 172.1,231.3 172.6,223.3 173.0,234.3 173.5,240.3 173.9,239.3 174.4,237.3 174.8,221.3 175.3,212.4 175.7,225.3 176.2,222.3 176.6,215.4 177.1,217.3 177.5,214.4 178.0,214.4 178.4,216.4 178.9,210.4 179.3,207.4 179.8,204.4 180.2,204.4 180.7,197.4 181.1,204.4 181.6,206.4 182.0,206.4 182.5,205.4 182.9,208.4 183.4,207.4 183.8,210.4 184.3,204.4 184.7,203.4 185.2,206.4 185.6,206.4 186.1,202.4 186.5,197.4 187.0,201.4 187.4,202.4 187.9,199.4 188.3,199.4 188.8,186.5 189.2,200.4 189.7,186.5 190.1,189.5 190.6,185.5 191.0,184.5 191.5,189.5 191.9,183.5 192.4,182.5 192.8,189.5 193.3,183.5 193.7,177.5 194.2,180.5 194.6,176.5 195.1,174.5 195.5,176.5 196.0,179.5 196.4,176.5 196.9,174.5 197.3,161.6 197.8,180.5 198.2,183.5 198.7,194.4 199.1,202.4 199.6,192.4 200.0,191.4 200.5,173.5 200.9,169.5 201.4,164.6 201.8,160.6 202.3,156.6 202.7,163.6 203.2,167.5 203.6,159.6 204.1,162.6 204.5,159.6 205.0,163.6 205.4,165.5 205.9,168.5 206.3,172.5 206.8,170.5 207.2,176.5 207.7,176.5 208.1,186.5 208.6,187.5 209.0,173.5 209.5,171.5 209.9,164.6 210.4,163.6 210.8,168.5 211.3,178.5 211.7,191.4 212.2,190.5 212.6,191.4 213.1,209.4 213.5,197.4 214.0,199.4 214.4,183.5 214.9,176.5 215.3,175.5 215.8,169.5 216.2,161.6 216.7,166.5 217.1,163.6 217.6,152.6 218.0,153.6 218.5,143.6 218.9,136.7 219.4,136.7 219.8,139.6 220.3,131.7 220.7,133.7 221.2,139.6 221.6,141.6 222.1,141.6 222.5,139.6 223.0,147.6 223.4,142.6 223.9,134.7 224.3,139.6 224.8,140.6 225.2,133.7 225.7,136.7 226.1,155.6 226.6,153.6 227.0,141.6 227.5,133.7 227.9,132.7 228.4,142.6 228.8,144.6 229.3,132.7 229.7,143.6 230.2,156.6 230.6,171.5 231.1,178.5 231.5,183.5 232.0,176.5 232.4,174.5 232.9,171.5 233.3,161.6 233.8,174.5 234.2,169.5 234.7,163.6 235.1,169.5 235.6,171.5 236.0,179.5 236.5,171.5 236.9,168.5 237.4,170.5 237.8,176.5 238.3,179.5 238.7,169.5 239.2,163.6 239.6,159.6 240.1,147.6 240.5,148.6 241.0,169.5 241.4,182.5 241.9,192.4 242.3,192.4 242.8,196.4 243.2,217.3 243.7,206.4 244.1,192.4 244.6,195.4 245.0,191.4 245.5,186.5 245.9,176.5 246.4,182.5 246.8,195.4 247.3,192.4 247.7,194.4 248.2,197.4 248.6,214.4 249.1,211.4 249.5,200.4 250.0,210.4 250.4,217.3 250.9,220.3 251.3,208.4 251.8,217.3 252.2,211.4 252.7,208.4 253.1,202.4 253.6,192.4 254.0,198.4 254.5,194.4 254.9,184.5 255.4,194.4 255.8,182.5 256.3,187.5 256.7,174.5 257.2,173.5 257.6,170.5 258.1,173.5 258.5,162.6 259.0,164.6 259.4,157.6 259.9,161.6 260.3,156.6 260.8,162.6 261.2,156.6 261.7,161.6 262.1,160.6 262.6,161.6 263.0,157.6 263.5,160.6 263.9,168.5 264.4,163.6 264.8,195.4 265.3,184.5 265.7,194.4 266.2,194.4 266.6,200.4 267.1,212.4 267.5,214.4 268.0,209.4 268.4,211.4 268.9,208.4 269.3,199.4 269.8,187.5 270.2,188.5 270.7,178.5 271.1,185.5 271.6,195.4 272.0,195.4 272.5,201.4 272.9,197.4 273.4,202.4 273.8,213.4 274.3,218.3 274.7,219.3 275.2,227.3 275.6,222.3 276.1,219.3 276.5,219.3 277.0,210.4 277.4,212.4 277.9,209.4 278.3,210.4 278.8,213.4 279.2,207.4 279.7,210.4 280.1,201.4 280.6,193.4 281.0,200.4 281.5,197.4 281.9,192.4 282.4,197.4 282.8,198.4 283.3,193.4 283.7,186.5 284.2,184.5 284.6,179.5 285.1,202.4 285.5,210.4 286.0,204.4 286.4,201.4 286.9,211.4 287.3,209.4 287.8,202.4 288.2,202.4 288.7,196.4 289.1,205.4 289.6,188.5 290.0,169.5 290.5,171.5 290.9,174.5 291.4,183.5 291.8,177.5 292.3,179.5 292.7,173.5 293.2,168.5 293.6,171.5 294.1,172.5 294.5,169.5 295.0,161.6 295.4,157.6 295.9,144.6 296.3,156.6 296.8,143.6 297.2,148.6 297.7,145.6 298.1,152.6 298.6,140.6 299.0,150.6 299.5,163.6 299.9,153.6 300.4,159.6 300.8,159.6 301.3,159.6 301.7,165.5 302.2,160.6 302.6,151.6 303.1,154.6 303.5,156.6 304.0,155.6 304.4,161.6 304.9,158.6 305.3,158.6 305.8,154.6 306.2,144.6 306.7,147.6 307.1,149.6 307.6,145.6 308.0,140.6 308.5,146.6 308.9,142.6 309.4,149.6 309.8,141.6 310.3,139.6 310.7,137.7 311.2,138.7 311.6,131.7 312.1,131.7 312.5,128.7 313.0,135.7 313.4,130.7 313.9,128.7 314.3,134.7 314.8,130.7 315.2,124.7 315.7,127.7 316.1,128.7 316.6,123.7 317.0,132.7 317.5,138.7 317.9,135.7 318.4,135.7 318.8,132.7 319.3,140.6 319.7,150.6 320.2,143.6 320.6,156.6 321.1,153.6 321.5,164.6 322.0,178.5 322.4,172.5 322.9,166.5 323.3,155.6 323.8,150.6 324.2,154.6 324.7,155.6 325.1,155.6 325.6,154.6 326.0,164.6 326.5,163.6 326.9,170.5 327.4,167.5 327.8,175.5 328.3,173.5 328.7,182.5 329.2,178.5 329.6,175.5 330.1,180.5 330.5,176.5 331.0,173.5 331.4,167.5 331.9,143.6 332.3,139.6 332.8,139.6 333.2,140.6 333.7,133.7 334.1,145.6 334.6,157.6 335.0,142.6 335.5,135.7 335.9,136.7 336.4,143.6 336.8,139.6 337.3,141.6 337.7,143.6 338.2,142.6 338.6,153.6 339.1,155.6 339.5,163.6 340.0,160.6 340.4,159.6 340.9,152.6 341.3,155.6 341.8,162.6 342.2,155.6 342.7,157.6 343.1,157.6 343.6,159.6 344.0,162.6 344.5,169.5 344.9,173.5 345.4,165.5 345.8,163.6 346.3,167.5 346.7,165.5 347.2,165.5 347.6,169.5 348.1,173.5 348.5,181.5 349.0,184.5 349.4,176.5 349.9,176.5 350.3,173.5 350.8,170.5 351.2,182.5 351.7,180.5 352.1,173.5 352.6,179.5 353.0,175.5 353.5,171.5 353.9,163.6 354.4,165.5 354.8,164.6 355.3,157.6 355.7,160.6 356.2,157.6 356.6,152.6 357.1,158.6 357.5,169.5 358.0,175.5 358.4,169.5 358.9,166.5 359.3,163.6 359.8,163.6 360.2,159.6 360.7,164.6 361.1,158.6 361.6,159.6 362.0,162.6 362.5,166.5 362.9,172.5 363.4,166.5 363.8,163.6 364.3,157.6 364.7,150.6 365.2,150.6 365.6,147.6 366.1,146.6 366.5,150.6 367.0,156.6 367.4,158.6 367.9,150.6 368.3,141.6 368.8,143.6 369.2,150.6 369.7,149.6 370.1,142.6 370.6,161.6 371.0,164.6 371.5,161.6 371.9,164.6 372.4,168.5 372.8,169.5 373.3,170.5 373.7,170.5 374.2,172.5 374.6,162.6 375.1,169.5 375.5,171.5 376.0,168.5 376.5,161.6 376.9,183.5 377.4,182.5 377.8,181.5 378.3,189.5 378.7,193.4 379.2,194.4 379.6,186.5 380.1,174.5 380.5,167.5 381.0,149.6 381.4,145.6 381.9,146.6 382.3,153.6 382.8,156.6 383.2,152.6 383.7,149.6 384.1,158.6 384.6,142.6 385.0,134.7 385.5,132.7 385.9,133.7 386.4,137.7 386.8,127.7 387.3,128.7 387.7,132.7 388.2,140.6 388.6,142.6 389.1,145.6 389.5,140.6 390.0,141.6 390.4,151.6 390.9,149.6 391.3,150.6 391.8,145.6 392.2,149.6 392.7,144.6 393.1,138.7 393.6,131.7 394.0,128.7 394.5,125.7 394.9,118.7 395.4,119.7 395.8,125.7 396.3,131.7 396.7,145.6 397.2,142.6 397.6,140.6 398.1,149.6 398.5,147.6 399.0,147.6 399.4,149.6 399.9,150.6 400.3,143.6 400.8,145.6 401.2,151.6 401.7,143.6 402.1,147.6 402.6,140.6 403.0,134.7 403.5,133.7 403.9,123.7 404.4,113.7 404.8,112.8 405.3,110.8 405.7,113.7 406.2,106.8 406.6,110.8 407.1,119.7 407.5,116.7 408.0,119.7 408.4,118.7 408.9,119.7 409.3,123.7 409.8,120.7 410.2,119.7 410.7,125.7 411.1,122.7 411.6,119.7 412.0,108.8 412.5,109.8 412.9,107.8 413.4,109.8 413.8,105.8 414.3,101.8 414.7,98.8 415.2,92.8 415.6,95.8 416.1,94.8 416.5,95.8 417.0,91.8 417.4,89.8 417.9,92.8 418.3,91.8 418.8,99.8 419.2,95.8 419.7,104.8 420.1,107.8 420.6,100.8 421.0,110.8 421.5,117.7 421.9,122.7 422.4,125.2 422.8,134.7 423.3,115.7 423.7,111.8 424.2,100.8 424.6,91.8 425.1,90.8 425.5,87.8 426.0,81.9 426.4,81.9 426.9,74.9 427.3,65.9 427.8,84.9 428.2,78.9 428.7,86.9 429.1,92.8 429.6,93.8 430.0,90.8 430.5,99.8 430.9,101.8 431.4,105.8 431.8,108.8 432.3,113.7 432.7,104.8 433.2,102.8 433.6,110.8 434.1,111.8 434.5,124.7 435.0,114.7 435.4,121.7 435.9,125.7 436.3,122.7 436.8,123.7 437.2,113.7 437.7,121.7 438.1,127.7 438.6,128.7 439.0,118.7 439.5,117.7 439.9,137.7 440.4,139.6 440.8,137.7 441.3,126.7 441.7,124.7 442.2,139.6 442.6,140.6 443.1,131.7 443.5,132.7 444.0,143.6 444.4,139.6 444.9,149.6 445.3,145.6 445.8,126.7 446.2,122.7 446.7,127.7 447.1,128.7 447.6,144.6 448.0,146.6 448.5,143.6 448.9,138.7 449.4,144.6 449.8,146.6 450.3,135.7 450.7,138.7 451.2,138.7 451.6,132.7 452.1,137.7 452.5,127.7 453.0,122.7 453.4,122.7 453.9,130.7 454.3,119.7 454.8,124.7 455.2,132.7 455.7,129.7 456.1,129.7 456.6,132.7 457.0,120.7 457.5,119.7 457.9,118.7 458.4,126.7 458.8,129.7 459.3,132.7 459.7,134.7 460.2,140.6 460.6,135.7 461.1,134.7 461.5,136.7 462.0,136.7 462.4,141.6 462.9,140.6 463.3,142.6 463.8,143.6 464.2,153.6 464.7,165.5 465.1,156.6 465.6,149.6 466.0,150.6 466.5,161.6 466.9,164.6 467.4,161.6 467.8,171.5 468.3,175.5 468.7,173.5 469.2,204.4 469.6,213.4 470.1,207.4 470.5,206.4 471.0,208.4 471.4,213.4 471.9,224.3 472.3,219.3 472.8,217.3 473.2,218.3 473.7,220.3 474.1,218.3 474.6,217.3 475.0,211.4 475.5,202.4 475.9,205.4 476.4,211.4 476.8,213.4 477.3,223.3 477.7,214.4 478.2,213.4 478.6,214.4 479.1,220.3 479.5,219.3 480.0,227.3 480.4,231.3 480.9,233.3 481.3,231.3 481.8,227.3 482.2,231.3 482.7,223.3 483.1,229.3 483.6,235.3 484.0,220.3 484.5,220.3 484.9,221.3 485.4,233.3 485.8,240.3 486.3,240.3 486.7,242.3 487.2,234.3 487.6,237.3 488.1,236.3 488.5,250.2 489.0,249.2 489.4,244.2 489.9,251.2 490.3,242.3 490.8,234.3 491.2,234.3 491.7,231.3 492.1,226.3 492.6,249.2 493.0,252.2 493.5,252.2 493.9,251.2 494.4,254.2 494.8,259.2 495.3,279.1 495.7,279.1 496.2,283.1 496.6,276.1 497.1,275.1 497.5,268.2 498.0,261.2 498.4,251.2 498.9,251.2 499.3,252.2 499.8,253.2 500.2,245.2 500.7,250.2 501.1,251.2 501.6,242.3 502.0,234.3 502.5,224.3 502.9,219.3 503.4,215.4 503.8,211.4 504.3,219.3 504.7,225.3 505.2,227.3 505.6,224.3 506.1,230.3 506.5,241.3 507.0,231.3 507.4,235.3 507.9,231.3 508.3,223.3 508.8,227.3 509.2,230.3 509.7,235.3 510.1,237.3 510.6,241.3 511.0,240.3 511.5,244.2 511.9,245.2 512.4,242.3 512.8,242.3 513.3,244.2 513.7,249.2 514.2,242.3 514.6,246.2 515.1,249.2 515.5,250.2 516.0,248.2 516.4,247.2 516.9,263.2 517.3,258.2 517.8,260.2 518.2,261.2 518.7,259.2 519.1,252.2 519.6,252.2 520.0,255.2 520.5,255.2 520.9,255.2 521.4,253.2 521.8,254.2 522.3,250.2 522.7,247.2 523.2,244.2 523.6,242.3 524.1,233.3 524.5,230.3 525.0,228.3 525.4,230.3 525.9,234.3 526.3,219.3 526.8,225.3 527.2,228.3 527.7,230.3 528.1,234.3 528.6,233.3 529.0,238.3 529.5,246.2 529.9,245.2 530.4,239.3 530.8,236.3 531.3,233.3 531.7,238.3 532.2,247.2 532.6,240.3 533.1,242.3 533.5,246.2 534.0,251.2 534.4,243.2 534.9,238.3 535.3,227.3 535.8,229.3 536.2,225.3 536.7,217.3 537.1,212.4 537.6,212.4 538.0,210.4 538.5,211.4 538.9,216.4 539.4,221.3 539.8,218.3 540.3,218.3 540.7,217.3 541.2,219.3 541.6,212.4 542.1,213.4 542.5,213.4 543.0,207.4 543.4,202.4 543.9,201.4 544.3,207.4 544.8,209.4 545.2,211.4 545.7,198.4 546.1,197.4 546.6,194.4 547.0,205.4 547.5,217.3 547.9,234.3 548.4,234.3 548.8,235.3 549.3,259.2 549.7,264.2 550.2,261.2 550.6,260.2 551.1,256.2 551.5,256.2 552.0,261.2 552.4,259.2 552.9,263.2 553.3,263.2 553.8,269.1 554.2,274.1 554.7,273.1 555.1,262.2 555.6,253.2 556.0,253.2 556.5,258.2 556.9,261.2 557.4,262.2 557.8,258.2 558.3,251.2 558.7,245.2 559.2,246.2 559.6,245.2 560.1,259.2 560.5,248.2 561.0,257.2 561.4,264.2 561.9,267.2 562.3,276.1 562.8,266.2 563.2,290.1 563.7,266.2 564.1,268.2 564.6,267.2 565.0,272.1 565.5,281.1 565.9,268.2 566.4,271.1 566.8,268.2 567.3,268.2 567.7,262.2 568.2,250.2 568.6,254.2 569.1,249.2 569.5,245.2 570.0,253.2 570.4,260.2 570.9,255.2 571.3,254.2 571.8,249.2 572.2,247.2 572.7,244.2 573.1,246.2 573.6,251.2 574.0,244.2 574.5,249.2 574.9,247.2 575.4,246.2 575.8,247.2 576.3,244.2 576.7,242.3 577.2,244.2 577.6,243.2 578.1,241.3 578.5,239.3 579.0,241.3 579.4,240.3 579.9,237.3 580.3,233.3 580.8,234.3 581.2,234.3 581.7,230.3 582.1,239.3 582.6,238.3 583.0,240.3 583.5,241.3 583.9,245.2 584.4,251.2 584.8,253.2 585.3,259.2 585.7,254.2 586.2,253.2 586.6,252.2 587.1,241.3 587.5,243.2 588.0,243.2 588.4,234.3 588.9,234.3 589.3,233.3 589.8,233.3 590.2,231.3 590.7,226.3 591.1,222.3 591.6,212.4 592.0,207.4 592.5,208.4 592.9,213.4 593.4,210.4 593.8,211.4 594.3,207.4 594.7,201.4 595.2,195.4 595.6,193.4 596.1,201.4 596.5,206.4 597.0,206.4 597.4,201.4 597.9,204.4 598.3,200.4 598.8,194.4 599.2,188.5 599.7,189.5 600.1,185.5 600.6,182.5 601.0,174.5 601.5,174.5 601.9,177.5 602.4,183.5 602.8,177.5 603.3,177.5 603.7,174.5 604.2,196.4 604.6,193.4 605.1,198.4 605.5,181.5 606.0,210.4 606.4,200.4 606.9,201.4 607.3,200.4 607.8,201.4 608.2,206.4 608.7,209.4 609.1,204.4 609.6,201.4 610.0,199.4 610.5,199.4 610.9,211.4 611.4,203.4 611.8,204.4 612.3,203.4 612.7,204.4 613.2,207.4 613.6,205.4 614.1,206.4 614.5,195.4 615.0,209.4 615.4,200.4 615.9,222.3 616.3,219.3 616.8,220.3 617.2,221.3 617.7,221.3 618.1,212.4 618.6,200.4 619.0,197.4 619.5,203.4 619.9,201.4 620.4,201.4 620.8,208.4 621.3,209.4 621.7,205.4 622.2,201.4 622.6,203.4 623.1,203.4 623.5,202.4 624.0,203.4 624.4,205.4 624.9,201.4 625.3,208.4 625.8,206.4 626.2,211.4 626.7,210.4 627.1,207.4 627.6,211.4 628.0,215.4 628.5,226.3 628.9,233.3 629.4,227.3 629.8,228.3 630.3,228.3 630.7,233.3 631.2,228.3 631.6,223.3 632.1,227.3 632.5,226.3 633.0,238.3 633.4,237.3 633.9,230.3 634.3,238.3 634.8,233.3 635.2,223.3 635.7,221.3 636.1,215.4 636.6,214.4 637.0,215.4 637.5,215.4 637.9,199.4 638.4,207.4 638.8,206.4 639.3,202.4 639.7,203.4 640.2,207.4 640.6,205.4 641.1,208.4 641.5,211.4 642.0,217.3 642.4,208.4 642.9,199.4 643.3,207.4 643.8,197.4 644.2,194.4 644.7,203.4 645.1,200.4 645.6,200.4 646.0,212.4 646.5,206.4 646.9,201.4 647.4,196.4 647.8,197.4 648.3,187.5 648.7,196.4 649.2,193.4 649.6,178.5 650.1,174.5 650.5,174.5 651.0,173.5 651.4,168.5 651.9,165.5 652.3,161.6 652.8,165.5 653.2,166.5 653.7,163.6 654.1,168.5 654.6,179.5 655.0,196.4 655.5,203.4 655.9,204.4 656.4,193.4 656.8,202.4 657.3,208.4 657.7,191.4 658.2,190.5 658.6,187.5 659.1,191.4 659.5,197.4 660.0,204.4 660.4,188.5 660.9,186.5 661.3,184.5 661.8,191.4 662.2,182.5 662.7,185.5 663.1,186.5 663.6,183.5 664.0,187.5 664.5,175.5 664.9,183.5 665.4,204.4 665.8,206.4 666.3,216.4 666.7,237.3 667.2,230.3 667.6,221.3 668.1,224.3 668.5,221.3 669.0,228.3 669.4,223.3 669.9,220.3 670.3,230.3 670.8,246.2 671.2,244.2 671.7,237.3 672.1,232.3 672.6,234.3 673.0,221.3 673.5,217.3 673.9,217.3 674.4,205.4 674.8,216.4 675.3,209.4 675.7,202.4 676.2,193.4 676.6,201.4 677.1,207.4 677.5,201.4 678.0,207.4 678.4,202.4 678.9,202.4 679.3,202.4 679.8,204.4 680.2,204.4 680.7,210.4 681.1,215.4 681.6,215.4 682.0,212.4 682.5,205.4 682.9,207.4 683.4,197.4 683.8,194.4 684.3,194.4 684.7,191.4 685.2,186.5 685.6,181.5 686.1,177.5 686.5,174.5 687.0,169.5 687.4,168.5 687.9,169.5 688.3,176.5 688.8,176.5 689.2,173.5 689.7,167.5 690.1,165.5 690.6,155.6 691.0,151.6 691.5,153.6 691.9,163.6 692.4,169.5 692.8,170.5 693.3,176.5 693.7,171.5 694.2,176.5 694.6,179.5 695.1,186.5 695.5,184.5 696.0,184.5"/>
  <text x="60" y="62" font-size="11" fill="#2563eb">Price index</text>
  <text x="146" y="62" font-size="11" fill="#16a34a">Total return (price + distributions)</text>
  <text x="56" y="348" font-size="11" text-anchor="middle" fill="#444">2020-10</text><text x="216" y="348" font-size="11" text-anchor="middle" fill="#444">2022-03</text><text x="376" y="348" font-size="11" text-anchor="middle" fill="#444">2023-08</text><text x="536" y="348" font-size="11" text-anchor="middle" fill="#444">2025-01</text><text x="696" y="348" font-size="11" text-anchor="middle" fill="#444">2026-06</text>
</svg>
