<svg xmlns="http://www.w3.org/2000/svg" width="720" height="360" viewBox="0 0 720 360">
  <rect width="720" height="360" fill="#fafafa"/>
  <text x="56" y="22" font-size="13" font-family="sans-serif" fill="#222">WRLC total return (rebased 100) · cumulative distributions $22.00/sh · market cap $48.5M</text>
  <line x1="56" y1="308" x2="696" y2="308" stroke="#ccc"/>
  <line x1="56" y1="48" x2="56" y2="308" stroke="#ccc"/>
  <polyline fill="none" stroke="#2563eb" stroke-width="2" points="56.0,255.8 58.8,255.8 61.6,255.8 64.4,244.1 67.2,248.5 70.0,248.5 72.8,248.5 75.6,248.5 78.4,248.5 81.2,243.3 83.9,219.3 86.7,182.7 89.5,138.9 92.3,179.1 95.1,201.0 97.9,219.3 100.7,175.4 103.5,211.9 106.3,222.9 109.1,233.9 111.9,233.9 114.7,255.8 117.5,264.5 120.3,263.1 123.1,261.6 125.9,263.1 128.7,263.1 131.5,263.1 134.3,270.4 137.0,266.7 139.8,271.8 142.6,274.0 145.4,263.1 148.2,261.2 151.0,252.1 153.8,241.2 156.6,247.4 159.4,255.8 162.2,244.8 165.0,245.5 167.8,252.1 170.6,248.5 173.4,258.7 176.2,208.3 179.0,230.2 181.8,219.3 184.6,182.7 187.4,193.7 190.1,187.1 192.9,209.8 195.7,188.6 198.5,210.5 201.3,219.3 204.1,186.4 206.9,195.2 209.7,195.2 212.5,195.2 215.3,177.1 218.1,186.4 220.9,179.1 223.7,190.0 226.5,222.0 229.3,204.6 232.1,204.6 234.9,255.8 237.7,258.7 240.5,258.7 243.2,266.0 246.0,255.8 248.8,240.4 251.6,244.8 254.4,244.1 257.2,241.2 260.0,241.2 262.8,243.2 265.6,239.7 268.4,238.2 271.2,244.8 274.0,244.8 276.8,239.7 279.6,242.6 282.4,247.0 285.2,235.3 288.0,219.3 290.8,252.1 293.6,252.1 296.3,237.5 299.1,226.6 301.9,222.9 304.7,237.5 307.5,237.5 310.3,237.5 313.1,237.5 315.9,255.8 318.7,255.8 321.5,248.5 324.3,244.8 327.1,241.2 329.9,241.2 332.7,244.8 335.5,257.9 338.3,255.8 341.1,248.5 343.9,273.3 346.7,281.3 349.4,277.7 352.2,277.7 355.0,255.8 357.8,255.8 360.6,244.8 363.4,254.3 366.2,255.4 369.0,281.3 371.8,274.1 374.6,256.5 377.4,219.3 380.2,248.5 383.0,263.1 385.8,262.3 388.6,266.7 391.4,261.2 394.2,252.1 397.0,266.0 399.8,277.6 402.6,241.2 405.3,244.8 408.1,251.4 410.9,249.9 413.7,230.2 416.5,259.4 419.3,248.5 422.1,231.7 424.9,230.2 427.7,219.3 430.5,197.3 433.3,215.6 436.1,216.3 438.9,211.9 441.7,222.9 444.5,211.9 447.3,211.9 450.1,219.3 452.9,215.6 455.7,252.1 458.4,260.1 461.2,268.1 464.0,266.7 466.8,263.1 469.6,260.1 472.4,260.9 475.2,268.9 478.0,285.0 480.8,268.9 483.6,288.8 486.4,283.5 489.2,290.1 492.0,270.4 494.8,271.1 497.6,269.6 500.4,277.7 503.2,277.7 506.0,285.0 508.8,255.8 511.5,241.2 514.3,241.9 517.1,219.3 519.9,234.5 522.7,168.1 525.5,149.9 528.3,166.0 531.1,146.2 533.9,152.1 536.7,179.1 539.5,168.1 542.3,142.6 545.1,138.9 547.9,87.8 550.7,109.7 553.5,80.5 556.3,65.9 559.1,87.8 561.9,84.2 564.6,80.5 567.4,84.2 570.2,84.2 573.0,101.9 575.8,124.3 578.6,121.4 581.4,124.3 584.2,128.0 587.0,117.4 589.8,117.0 592.6,73.2 595.4,84.4 598.2,101.2 601.0,95.1 603.8,98.8 606.6,91.5 609.4,106.1 612.2,106.1 615.0,105.5 617.7,91.6 620.5,91.5 623.3,182.0 626.1,95.1 628.9,108.8 631.7,131.6 634.5,137.5 637.3,153.2 640.1,153.5 642.9,146.2 645.7,193.7 648.5,175.4 651.3,158.1 654.1,168.1 656.9,219.3 659.7,210.5 662.5,179.1 665.3,186.4 668.1,179.1 670.8,186.4 673.6,182.8 676.4,182.8 679.2,190.0 682.0,182.8 684.8,179.1 687.6,170.7 690.4,146.2 693.2,124.3 696.0,114.1"/>
  <polyline fill="none" stroke="#16a34a" stroke-width="2" points="56.0,255.8 58.8,255.8 61.6,255.8 64.4,244.1 67.2,248.5 70.0,248.5 72.8,248.5 75.6,248.5 78.4,248.5 81.2,243.3 83.9,219.3 86.7,182.7 89.5,138.9 92.3,179.1 95.1,201.0 97.9,219.3 100.7,175.4 103.5,211.9 106.3,222.9 109.1,233.9 111.9,233.9 114.7,255.8 117.5,264.5 120.3,263.1 123.1,261.6 125.9,263.1 128.7,263.1 131.5,263.1 134.3,270.4 137.0,266.7 139.8,271.8 142.6,274.0 145.4,263.1 148.2,261.2 151.0,252.1 153.8,241.2 156.6,247.4 159.4,255.8 162.2,244.8 165.0,245.5 167.8,252.1 170.6,248.5 173.4,258.7 176.2,208.3 179.0,230.2 181.8,219.3 184.6,182.7 187.4,193.7 190.1,187.1 192.9,209.8 195.7,188.6 198.5,210.5 201.3,219.3 204.1,186.4 206.9,195.2 209.7,195.2 212.5,195.2 215.3,177.1 218.1,186.4 220.9,179.1 223.7,190.0 226.5,222.0 229.3,204.6 232.1,204.6 234.9,255.8 237.7,258.7 240.5,258.7 243.2,266.0 246.0,255.8 248.8,240.4 251.6,244.8 254.4,244.1 257.2,241.2 260.0,241.2 262.8,243.2 265.6,239.7 268.4,238.2 271.2,244.8 274.0,244.8 276.8,239.7 279.6,242.6 282.4,247.0 285.2,235.3 288.0,219.3 290.8,252.1 293.6,252.1 296.3,237.5 299.1,226.6 301.9,222.9 304.7,237.5 307.5,237.5 310.3,237.5 313.1,237.5 315.9,255.8 318.7,255.8 321.5,248.5 324.3,244.8 327.1,241.2 329.9,241.2 332.7,244.8 335.5,257.9 338.3,255.8 341.1,248.5 343.9,273.3 346.7,281.3 349.4,277.7 352.2,277.7 355.0,255.8 357.8,255.8 360.6,244.8 363.4,254.3 366.2,255.4 369.0,281.3 371.8,274.1 374.6,256.5 377.4,219.3 380.2,248.5 383.0,263.1 385.8,262.3 388.6,266.7 391.4,261.2 394.2,252.1 397.0,266.0 399.8,277.6 402.6,241.2 405.3,244.8 408.1,251.4 410.9,249.9 413.7,230.2 416.5,259.4 419.3,248.5 422.1,231.7 424.9,230.2 427.7,219.3 430.5,197.3 433.3,215.6 436.1,216.3 438.9,211.9 441.7,222.9 444.5,211.9 447.3,211.9 450.1,219.3 452.9,215.6 455.7,252.1 458.4,260.1 461.2,268.1 464.0,266.7 466.8,263.1 469.6,260.1 472.4,260.9 475.2,268.9 478.0,285.0 480.8,268.9 483.6,288.8 486.4,283.5 489.2,290.1 492.0,270.4 494.8,271.1 497.6,269.6 500.4,277.7 503.2,277.7 506.0,285.0 508.8,255.8 511.5,241.2 514.3,241.9 517.1,219.3 519.9,234.5 522.7,168.1 525.5,149.9 528.3,166.0 531.1,146.2 533.9,152.1 536.7,179.1 539.5,168.1 542.3,142.6 545.1,138.9 547.9,87.8 550.7,109.7 553.5,80.5 556.3,65.9 559.1,87.8 561.9,84.2 564.6,80.5 567.4,84.2 570.2,84.2 573.0,101.9 575.8,124.3 578.6,121.4 581.4,124.3 584.2,128.0 587.0,117.4 589.8,117.0 592.6,73.2 595.4,84.4 598.2,101.2 601.0,95.1 603.8,98.8 606.6,91.5 609.4,106.1 612.2,106.1 615.0,105.5 617.7,91.6 620.5,91.5 623.3,182.0 626.1,95.1 628.9,108.8 631.7,131.6 634.5,137.5 637.3,153.2 640.1,153.5 642.9,146.2 645.7,193.7 648.5,175.4 651.3,158.1 654.1,168.1 656.9,219.3 659.7,210.5 662.5,179.1 665.3,186.4 668.1,179.1 670.8,186.4 673.6,182.8 676.4,182.8 679.2,190.0 682.0,182.8 684.8,179.1 687.6,170.7 690.4,146.2 693.2,124.3 696.0,114.1"/>
  <text x="60" y="62" font-size="11" fill="#2563eb">Price index</text>
  <text x="146" y="62" font-size="11" fill="#16a34a">Total return (price + distributions)</text>
  <text x="56" y="348" font-size="11" text-anchor="middle" fill="#444">2007-05</text><text x="215" y="348" font-size="11" text-anchor="middle" fill="#444">2012-02</text><text x="377" y="348" font-size="11" text-anchor="middle" fill="#444">2016-12</text><text x="537" y="348" font-size="11" text-anchor="middle" fill="#444">2021-09</text><text x="696" y="348" font-size="11" text-anchor="middle" fill="#444">2026-06</text>
</svg>
