<svg xmlns="http://www.w3.org/2000/svg" width="720" height="360" viewBox="0 0 720 360">
  <rect width="720" height="360" fill="#fafafa"/>
  <text x="56" y="22" font-size="13" font-family="sans-serif" fill="#222">GCCO total return (rebased 100) · cumulative distributions $40.00/sh · market cap $44.8M</text>
  <line x1="56" y1="308" x2="696" y2="308" stroke="#ccc"/>
  <line x1="56" y1="48" x2="56" y2="308" stroke="#ccc"/>
  <polyline fill="none" stroke="#2563eb" stroke-width="2" points="56.0,217.0 56.2,217.0 56.4,217.0 56.6,217.0 56.7,217.0 56.9,217.0 57.1,217.0 57.3,217.0 57.5,217.0 57.7,217.0 57.9,217.0 58.1,217.0 58.2,217.0 58.4,217.0 58.6,217.0 58.8,217.0 59.0,217.0 59.2,217.0 59.4,217.0 59.6,217.0 59.7,217.0 59.9,217.0 60.1,217.0 60.3,217.0 60.5,217.0 60.7,217.0 60.9,217.0 61.1,217.0 61.2,213.5 61.4,213.5 61.6,192.4 61.8,192.4 62.0,192.4 62.2,192.4 62.4,192.4 62.6,192.4 62.7,192.4 62.9,192.4 63.1,192.4 63.3,192.4 63.5,192.4 63.7,192.4 63.9,192.4 64.1,192.4 64.2,192.4 64.4,192.4 64.6,192.4 64.8,192.4 65.0,202.9 65.2,202.9 65.4,199.4 65.6,171.3 65.7,171.3 65.9,171.3 66.1,181.2 66.3,181.2 66.5,185.4 66.7,185.4 66.9,185.4 67.1,192.4 67.2,192.4 67.4,192.4 67.6,192.4 67.8,192.4 68.0,192.4 68.2,192.4 68.4,192.4 68.6,192.4 68.7,192.4 68.9,192.4 69.1,192.4 69.3,192.4 69.5,192.4 69.7,192.4 69.9,192.4 70.1,192.4 70.2,192.4 70.4,192.4 70.6,192.4 70.8,192.4 71.0,192.4 71.2,192.4 71.4,192.4 71.6,192.4 71.7,192.4 71.9,192.4 72.1,192.4 72.3,192.4 72.5,192.4 72.7,192.4 72.9,192.4 73.1,192.4 73.2,192.4 73.4,192.4 73.6,192.4 73.8,192.4 74.0,192.4 74.2,192.4 74.4,192.4 74.6,192.4 74.7,192.4 74.9,192.4 75.1,192.4 75.3,192.4 75.5,192.4 75.7,192.4 75.9,192.4 76.1,192.4 76.2,192.4 76.4,192.4 76.6,192.4 76.8,192.4 77.0,192.4 77.2,192.4 77.4,192.4 77.6,192.4 77.7,192.4 77.9,192.4 78.1,192.4 78.3,192.4 78.5,192.4 78.7,192.4 78.9,192.4 79.1,192.4 79.2,192.4 79.4,192.4 79.6,192.4 79.8,192.4 80.0,192.4 80.2,192.4 80.4,192.4 80.6,192.4 80.7,192.4 80.9,192.4 81.1,192.4 81.3,192.4 81.5,192.4 81.7,192.4 81.9,192.4 82.0,192.4 82.2,192.4 82.4,192.4 82.6,192.4 82.8,192.4 83.0,192.4 83.2,192.4 83.4,192.4 83.5,192.4 83.7,192.4 83.9,192.4 84.1,192.4 84.3,192.4 84.5,192.4 84.7,192.4 84.9,192.4 85.0,192.4 85.2,192.4 85.4,192.4 85.6,192.4 85.8,192.4 86.0,192.4 86.2,192.4 86.4,192.4 86.5,192.4 86.7,192.4 86.9,192.4 87.1,192.4 87.3,192.4 87.5,192.4 87.7,192.4 87.9,192.4 88.0,192.4 88.2,192.4 88.4,192.4 88.6,192.4 88.8,192.4 89.0,192.4 89.2,192.4 89.4,192.4 89.5,192.4 89.7,192.4 89.9,192.4 90.1,192.4 90.3,192.4 90.5,192.4 90.7,192.4 90.9,192.4 91.0,192.4 91.2,192.4 91.4,192.4 91.6,192.4 91.8,192.4 92.0,192.4 92.2,192.4 92.4,192.4 92.5,192.4 92.7,192.4 92.9,192.4 93.1,192.4 93.3,192.4 93.5,192.4 93.7,192.4 93.9,192.4 94.0,192.4 94.2,192.4 94.4,192.4 94.6,192.4 94.8,192.4 95.0,192.4 95.2,192.4 95.4,192.4 95.5,192.4 95.7,192.4 95.9,192.4 96.1,192.4 96.3,192.4 96.5,192.4 96.7,192.4 96.9,192.4 97.0,192.4 97.2,192.4 97.4,192.4 97.6,192.4 97.8,192.4 98.0,192.4 98.2,192.4 98.4,192.4 98.5,192.4 98.7,192.4 98.9,192.4 99.1,192.4 99.3,192.4 99.5,192.4 99.7,192.4 99.9,192.4 100.0,192.4 100.2,192.4 100.4,192.4 100.6,192.4 100.8,192.4 101.0,192.4 101.2,192.4 101.4,192.4 101.5,192.4 101.7,192.4 101.9,192.4 102.1,192.4 102.3,192.4 102.5,192.4 102.7,192.4 102.9,192.4 103.0,192.4 103.2,192.4 103.4,192.4 103.6,192.4 103.8,192.4 104.0,192.4 104.2,192.4 104.4,192.4 104.5,192.4 104.7,192.4 104.9,192.4 105.1,192.4 105.3,192.4 105.5,192.4 105.7,192.4 105.9,192.4 106.0,192.4 106.2,192.4 106.4,192.4 106.6,192.4 106.8,192.4 107.0,192.4 107.2,192.4 107.3,192.4 107.5,192.4 107.7,192.4 107.9,192.4 108.1,192.4 108.3,192.4 108.5,192.4 108.7,192.4 108.8,192.4 109.0,192.4 109.2,192.4 109.4,192.4 109.6,192.4 109.8,192.4 110.0,192.4 110.2,192.4 110.3,192.4 110.5,192.4 110.7,192.4 110.9,192.4 111.1,192.4 111.3,192.4 111.5,192.4 111.7,192.4 111.8,192.4 112.0,192.4 112.2,192.4 112.4,192.4 112.6,192.4 112.8,192.4 113.0,192.4 113.2,192.4 113.3,192.4 113.5,192.4 113.7,192.4 113.9,192.4 114.1,192.4 114.3,192.4 114.5,192.4 114.7,192.4 114.8,192.4 115.0,192.4 115.2,192.4 115.4,192.4 115.6,192.4 115.8,192.4 116.0,192.4 116.2,192.4 116.3,192.4 116.5,192.4 116.7,192.4 116.9,192.4 117.1,192.4 117.3,192.4 117.5,192.4 117.7,192.4 117.8,192.4 118.0,192.4 118.2,192.4 118.4,192.4 118.6,191.3 118.8,191.3 119.0,191.3 119.2,188.2 119.3,188.2 119.5,184.0 119.7,184.0 119.9,184.0 120.1,184.0 120.3,184.0 120.5,184.0 120.7,184.0 120.8,184.0 121.0,184.0 121.2,184.0 121.4,184.0 121.6,184.0 121.8,184.0 122.0,184.0 122.2,184.0 122.3,184.0 122.5,184.0 122.7,184.0 122.9,184.0 123.1,184.0 123.3,184.0 123.5,184.0 123.7,184.0 123.8,184.0 124.0,184.0 124.2,184.0 124.4,184.0 124.6,184.0 124.8,184.0 125.0,184.0 125.2,184.0 125.3,184.0 125.5,184.0 125.7,184.0 125.9,178.4 126.1,178.4 126.3,178.4 126.5,178.4 126.7,178.4 126.8,178.4 127.0,178.4 127.2,178.4 127.4,178.4 127.6,178.4 127.8,178.4 128.0,178.4 128.2,178.4 128.3,178.4 128.5,178.4 128.7,178.4 128.9,178.4 129.1,178.4 129.3,178.4 129.5,178.4 129.7,178.4 129.8,178.4 130.0,178.4 130.2,178.4 130.4,192.4 130.6,192.4 130.8,192.4 131.0,192.4 131.2,192.4 131.3,192.4 131.5,192.4 131.7,192.4 131.9,192.4 132.1,192.4 132.3,192.4 132.5,192.4 132.7,192.4 132.8,192.4 133.0,192.4 133.2,192.4 133.4,192.4 133.6,192.4 133.8,192.4 134.0,192.4 134.1,192.4 134.3,192.4 134.5,192.4 134.7,192.4 134.9,192.4 135.1,192.4 135.3,192.4 135.5,192.4 135.6,192.4 135.8,192.4 136.0,192.4 136.2,192.4 136.4,192.4 136.6,192.4 136.8,192.4 137.0,192.4 137.1,192.4 137.3,192.4 137.5,192.4 137.7,192.4 137.9,192.4 138.1,188.9 138.3,188.9 138.5,188.9 138.6,188.9 138.8,188.9 139.0,188.9 139.2,188.9 139.4,188.9 139.6,188.9 139.8,188.9 140.0,188.9 140.1,188.9 140.3,191.4 140.5,191.4 140.7,191.4 140.9,191.4 141.1,191.4 141.3,191.4 141.5,191.0 141.6,191.0 141.8,191.0 142.0,191.0 142.2,191.0 142.4,191.0 142.6,191.0 142.8,191.0 143.0,191.0 143.1,191.0 143.3,191.0 143.5,191.0 143.7,191.0 143.9,191.0 144.1,191.0 144.3,191.0 144.5,191.0 144.6,191.0 144.8,191.0 145.0,191.0 145.2,191.0 145.4,191.0 145.6,191.0 145.8,191.0 146.0,191.0 146.1,191.0 146.3,191.0 146.5,191.0 146.7,191.0 146.9,191.0 147.1,191.0 147.3,191.0 147.5,191.0 147.6,191.0 147.8,191.0 148.0,191.0 148.2,191.0 148.4,191.0 148.6,191.0 148.8,191.0 149.0,191.0 149.1,191.0 149.3,191.0 149.5,191.0 149.7,191.0 149.9,191.0 150.1,191.0 150.3,191.0 150.5,191.0 150.6,191.0 150.8,191.0 151.0,191.0 151.2,191.0 151.4,191.0 151.6,191.0 151.8,191.0 152.0,191.0 152.1,191.0 152.3,191.0 152.5,191.0 152.7,191.0 152.9,191.0 153.1,189.3 153.3,189.3 153.5,189.3 153.6,189.3 153.8,189.3 154.0,189.3 154.2,189.3 154.4,189.3 154.6,189.3 154.8,189.3 155.0,189.3 155.1,189.3 155.3,189.3 155.5,189.3 155.7,189.3 155.9,189.3 156.1,189.3 156.3,189.3 156.5,189.3 156.6,189.3 156.8,189.3 157.0,189.3 157.2,189.3 157.4,189.3 157.6,189.3 157.8,186.1 158.0,186.1 158.1,186.1 158.3,186.1 158.5,186.1 158.7,186.1 158.9,186.1 159.1,186.1 159.3,186.1 159.4,186.1 159.6,186.1 159.8,186.1 160.0,186.1 160.2,186.1 160.4,186.1 160.6,186.1 160.8,186.1 160.9,186.1 161.1,186.1 161.3,186.1 161.5,186.1 161.7,186.1 161.9,186.1 162.1,186.1 162.3,186.1 162.4,186.1 162.6,186.1 162.8,186.1 163.0,186.1 163.2,186.1 163.4,186.1 163.6,186.1 163.8,186.1 163.9,186.1 164.1,186.1 164.3,186.1 164.5,186.1 164.7,186.1 164.9,186.1 165.1,186.1 165.3,186.1 165.4,186.1 165.6,186.1 165.8,186.1 166.0,186.1 166.2,186.1 166.4,186.1 166.6,186.1 166.8,186.1 166.9,186.1 167.1,186.1 167.3,186.1 167.5,186.1 167.7,186.1 167.9,186.1 168.1,186.1 168.3,186.1 168.4,186.1 168.6,186.1 168.8,186.1 169.0,186.1 169.2,186.1 169.4,186.1 169.6,186.1 169.8,186.1 169.9,186.1 170.1,186.1 170.3,186.1 170.5,186.1 170.7,186.1 170.9,186.1 171.1,186.1 171.3,186.1 171.4,186.1 171.6,186.1 171.8,186.1 172.0,186.1 172.2,186.1 172.4,186.1 172.6,186.1 172.8,186.1 172.9,186.1 173.1,186.1 173.3,186.1 173.5,186.1 173.7,186.1 173.9,186.1 174.1,186.1 174.3,186.1 174.4,186.1 174.6,186.1 174.8,186.1 175.0,186.1 175.2,186.1 175.4,186.1 175.6,186.1 175.8,186.1 175.9,186.1 176.1,186.1 176.3,186.1 176.5,186.1 176.7,186.1 176.9,186.1 177.1,186.1 177.3,186.1 177.4,186.1 177.6,186.1 177.8,186.1 178.0,186.1 178.2,186.1 178.4,186.1 178.6,186.1 178.8,186.1 178.9,186.1 179.1,186.1 179.3,186.1 179.5,186.1 179.7,186.1 179.9,186.1 180.1,186.1 180.3,186.1 180.4,186.1 180.6,186.1 180.8,186.1 181.0,186.1 181.2,186.1 181.4,186.1 181.6,186.1 181.8,186.1 181.9,186.1 182.1,186.1 182.3,186.1 182.5,186.1 182.7,186.1 182.9,186.1 183.1,186.1 183.3,186.1 183.4,186.1 183.6,186.1 183.8,186.1 184.0,186.1 184.2,186.1 184.4,186.1 184.6,186.1 184.7,186.1 184.9,186.1 185.1,186.1 185.3,186.1 185.5,186.1 185.7,186.1 185.9,186.1 186.1,186.1 186.2,186.1 186.4,186.1 186.6,186.1 186.8,186.1 187.0,186.1 187.2,186.1 187.4,186.1 187.6,186.1 187.7,186.1 187.9,186.1 188.1,186.1 188.3,186.1 188.5,186.1 188.7,186.1 188.9,186.1 189.1,186.1 189.2,186.1 189.4,186.1 189.6,186.1 189.8,186.1 190.0,186.1 190.2,186.1 190.4,186.1 190.6,186.1 190.7,186.1 190.9,186.1 191.1,186.1 191.3,186.1 191.5,186.1 191.7,186.1 191.9,186.1 192.1,186.1 192.2,186.1 192.4,186.1 192.6,186.1 192.8,186.1 193.0,186.1 193.2,186.1 193.4,186.1 193.6,186.1 193.7,186.1 193.9,186.1 194.1,186.1 194.3,186.1 194.5,186.1 194.7,186.1 194.9,186.1 195.1,186.1 195.2,186.1 195.4,186.1 195.6,186.1 195.8,186.1 196.0,186.1 196.2,186.1 196.4,186.1 196.6,186.1 196.7,186.1 196.9,186.1 197.1,186.1 197.3,186.1 197.5,186.1 197.7,186.1 197.9,186.1 198.1,186.1 198.2,186.1 198.4,186.1 198.6,186.1 198.8,186.1 199.0,186.1 199.2,186.1 199.4,186.1 199.6,186.1 199.7,186.1 199.9,186.1 200.1,186.1 200.3,186.1 200.5,186.1 200.7,186.1 200.9,186.1 201.1,186.1 201.2,186.1 201.4,186.1 201.6,186.1 201.8,186.1 202.0,186.1 202.2,171.3 202.4,171.3 202.6,171.3 202.7,171.3 202.9,171.3 203.1,171.3 203.3,171.3 203.5,171.3 203.7,171.3 203.9,171.3 204.1,171.3 204.2,171.3 204.4,171.3 204.6,171.3 204.8,171.3 205.0,171.3 205.2,171.3 205.4,171.3 205.6,171.3 205.7,171.3 205.9,171.3 206.1,171.3 206.3,171.3 206.5,171.3 206.7,171.3 206.9,171.3 207.1,171.3 207.2,171.3 207.4,171.3 207.6,171.3 207.8,171.3 208.0,186.8 208.2,186.8 208.4,186.8 208.6,186.8 208.7,186.8 208.9,186.8 209.1,186.8 209.3,186.8 209.5,185.4 209.7,185.4 209.9,185.4 210.0,185.4 210.2,185.4 210.4,185.4 210.6,185.4 210.8,185.4 211.0,185.4 211.2,185.4 211.4,185.4 211.5,185.4 211.7,185.4 211.9,185.4 212.1,185.4 212.3,185.4 212.5,184.7 212.7,184.7 212.9,184.7 213.0,184.7 213.2,184.7 213.4,184.7 213.6,184.7 213.8,184.7 214.0,184.7 214.2,184.7 214.4,184.0 214.5,184.0 214.7,184.0 214.9,184.0 215.1,184.0 215.3,184.0 215.5,184.0 215.7,184.0 215.9,184.0 216.0,184.0 216.2,184.0 216.4,184.0 216.6,184.0 216.8,184.0 217.0,184.0 217.2,184.0 217.4,184.0 217.5,184.0 217.7,184.0 217.9,184.0 218.1,184.0 218.3,184.0 218.5,184.0 218.7,184.0 218.9,184.0 219.0,184.0 219.2,184.0 219.4,184.0 219.6,184.0 219.8,184.0 220.0,184.0 220.2,184.0 220.4,184.0 220.5,184.0 220.7,184.0 220.9,184.0 221.1,184.0 221.3,184.0 221.5,184.0 221.7,184.0 221.9,184.0 222.0,184.0 222.2,184.0 222.4,184.0 222.6,184.0 222.8,184.0 223.0,184.0 223.2,184.0 223.4,184.0 223.5,184.0 223.7,184.0 223.9,184.0 224.1,184.0 224.3,184.0 224.5,184.0 224.7,184.0 224.9,184.0 225.0,184.0 225.2,184.0 225.4,184.0 225.6,184.0 225.8,184.0 226.0,184.0 226.2,184.0 226.4,184.0 226.5,184.0 226.7,184.0 226.9,184.0 227.1,184.0 227.3,184.0 227.5,184.0 227.7,184.0 227.9,184.0 228.0,184.0 228.2,184.0 228.4,179.6 228.6,179.6 228.8,179.6 229.0,181.2 229.2,181.2 229.4,181.2 229.5,181.2 229.7,181.2 229.9,181.2 230.1,179.8 230.3,179.8 230.5,179.8 230.7,179.8 230.9,179.8 231.0,179.8 231.2,179.8 231.4,179.8 231.6,179.8 231.8,179.8 232.0,179.8 232.2,179.8 232.4,179.8 232.5,179.8 232.7,179.8 232.9,179.8 233.1,179.8 233.3,179.8 233.5,179.8 233.7,179.8 233.9,179.8 234.0,179.8 234.2,179.8 234.4,179.8 234.6,179.8 234.8,179.8 235.0,179.8 235.2,179.8 235.3,179.8 235.5,179.8 235.7,179.8 235.9,179.8 236.1,179.8 236.3,179.8 236.5,179.8 236.7,179.8 236.8,179.8 237.0,179.8 237.2,179.8 237.4,179.8 237.6,179.8 237.8,179.8 238.0,179.8 238.2,179.8 238.3,179.8 238.5,179.8 238.7,179.8 238.9,179.8 239.1,179.8 239.3,179.8 239.5,179.8 239.7,179.8 239.8,179.8 240.0,179.8 240.2,179.8 240.4,179.8 240.6,179.8 240.8,179.8 241.0,179.8 241.2,179.8 241.3,179.8 241.5,179.8 241.7,179.8 241.9,179.8 242.1,179.8 242.3,179.8 242.5,179.8 242.7,179.8 242.8,179.8 243.0,179.8 243.2,179.8 243.4,179.8 243.6,179.8 243.8,179.8 244.0,179.8 244.2,179.8 244.3,179.8 244.5,179.8 244.7,179.8 244.9,179.8 245.1,179.8 245.3,179.8 245.5,179.8 245.7,179.8 245.8,179.8 246.0,179.8 246.2,189.6 246.4,189.6 246.6,188.9 246.8,188.9 247.0,188.9 247.2,188.9 247.3,188.9 247.5,188.9 247.7,188.9 247.9,188.9 248.1,188.9 248.3,188.9 248.5,188.9 248.7,188.9 248.8,188.9 249.0,188.9 249.2,188.9 249.4,188.9 249.6,188.9 249.8,188.9 250.0,188.9 250.2,188.9 250.3,188.9 250.5,188.9 250.7,188.9 250.9,188.9 251.1,188.9 251.3,188.9 251.5,188.9 251.7,188.9 251.8,188.9 252.0,188.9 252.2,188.9 252.4,188.9 252.6,188.9 252.8,188.9 253.0,188.9 253.2,188.9 253.3,188.9 253.5,188.9 253.7,188.9 253.9,188.9 254.1,188.9 254.3,188.9 254.5,188.9 254.7,188.9 254.8,188.9 255.0,188.9 255.2,188.9 255.4,188.9 255.6,188.9 255.8,188.9 256.0,188.9 256.2,188.9 256.3,188.9 256.5,188.9 256.7,188.9 256.9,188.9 257.1,188.9 257.3,188.9 257.5,188.9 257.7,188.9 257.8,188.9 258.0,188.9 258.2,188.9 258.4,188.9 258.6,188.9 258.8,188.9 259.0,188.9 259.2,188.9 259.3,188.9 259.5,188.9 259.7,188.9 259.9,188.9 260.1,188.9 260.3,188.9 260.5,188.9 260.7,207.2 260.8,207.7 261.0,207.7 261.2,207.7 261.4,207.7 261.6,207.7 261.8,207.7 262.0,207.7 262.1,207.7 262.3,207.7 262.5,220.5 262.7,220.5 262.9,220.5 263.1,220.5 263.3,221.9 263.5,223.3 263.6,224.0 263.8,224.0 264.0,224.0 264.2,224.0 264.4,224.0 264.6,224.0 264.8,224.0 265.0,224.0 265.1,224.0 265.3,224.0 265.5,224.0 265.7,224.0 265.9,224.0 266.1,224.0 266.3,224.0 266.5,224.0 266.6,224.0 266.8,224.0 267.0,224.0 267.2,224.0 267.4,224.0 267.6,224.0 267.8,224.0 268.0,224.0 268.1,224.0 268.3,224.0 268.5,224.0 268.7,224.0 268.9,224.0 269.1,224.0 269.3,224.0 269.5,224.0 269.6,224.0 269.8,224.0 270.0,233.2 270.2,233.2 270.4,233.2 270.6,236.0 270.8,236.0 271.0,236.0 271.1,236.0 271.3,236.0 271.5,236.0 271.7,236.0 271.9,236.0 272.1,236.0 272.3,236.0 272.5,236.0 272.6,236.0 272.8,236.0 273.0,236.0 273.2,236.0 273.4,236.0 273.6,236.0 273.8,236.0 274.0,236.0 274.1,236.0 274.3,236.0 274.5,236.0 274.7,236.0 274.9,236.0 275.1,236.0 275.3,236.0 275.5,236.0 275.6,236.0 275.8,236.0 276.0,236.0 276.2,236.0 276.4,237.4 276.6,237.4 276.8,237.4 277.0,237.4 277.1,237.4 277.3,237.4 277.5,237.4 277.7,237.4 277.9,237.4 278.1,246.5 278.3,246.5 278.5,246.5 278.6,246.5 278.8,246.5 279.0,246.5 279.2,246.5 279.4,246.5 279.6,246.5 279.8,246.5 280.0,246.5 280.1,246.5 280.3,246.5 280.5,246.5 280.7,246.5 280.9,246.5 281.1,246.5 281.3,246.5 281.5,246.5 281.6,250.7 281.8,250.7 282.0,250.7 282.2,250.7 282.4,250.7 282.6,250.7 282.8,250.7 283.0,250.7 283.1,250.7 283.3,250.7 283.5,250.7 283.7,250.7 283.9,250.7 284.1,245.8 284.3,245.8 284.5,245.8 284.6,245.8 284.8,245.8 285.0,245.8 285.2,252.2 285.4,252.2 285.6,252.2 285.8,283.7 286.0,283.7 286.1,283.7 286.3,283.7 286.5,262.0 286.7,262.0 286.9,262.0 287.1,262.0 287.3,252.8 287.4,252.8 287.6,262.0 287.8,255.6 288.0,255.6 288.2,255.6 288.4,255.6 288.6,255.6 288.8,255.6 288.9,255.6 289.1,255.6 289.3,262.0 289.5,262.0 289.7,262.0 289.9,262.0 290.1,262.7 290.3,262.7 290.4,262.7 290.6,262.7 290.8,262.7 291.0,262.7 291.2,262.7 291.4,262.7 291.6,262.7 291.8,262.7 291.9,262.7 292.1,262.7 292.3,262.7 292.5,262.7 292.7,262.7 292.9,262.7 293.1,262.7 293.3,262.7 293.4,262.7 293.6,262.7 293.8,262.7 294.0,262.7 294.2,262.7 294.4,262.7 294.6,262.7 294.8,262.7 294.9,262.7 295.1,262.7 295.3,262.7 295.5,262.7 295.7,262.7 295.9,262.7 296.1,262.7 296.3,262.7 296.4,262.7 296.6,262.7 296.8,262.7 297.0,262.7 297.2,262.7 297.4,262.7 297.6,262.7 297.8,262.7 297.9,262.7 298.1,278.1 298.3,278.1 298.5,278.1 298.7,278.1 298.9,278.1 299.1,278.1 299.3,278.1 299.4,278.1 299.6,278.1 299.8,278.1 300.0,278.1 300.2,278.1 300.4,278.1 300.6,278.1 300.8,278.1 300.9,278.1 301.1,278.1 301.3,278.1 301.5,278.1 301.7,277.4 301.9,277.4 302.1,278.1 302.3,278.1 302.4,278.1 302.6,277.3 302.8,277.3 303.0,277.3 303.2,277.3 303.4,277.3 303.6,277.3 303.8,277.3 303.9,277.3 304.1,277.3 304.3,277.3 304.5,277.3 304.7,277.3 304.9,277.3 305.1,277.3 305.3,277.3 305.4,277.3 305.6,277.3 305.8,277.3 306.0,277.3 306.2,277.3 306.4,277.3 306.6,277.3 306.8,277.3 306.9,277.3 307.1,277.3 307.3,277.3 307.5,277.3 307.7,277.3 307.9,277.3 308.1,277.3 308.3,276.7 308.4,276.7 308.6,276.7 308.8,276.7 309.0,284.4 309.2,284.4 309.4,284.4 309.6,284.4 309.8,284.4 309.9,284.4 310.1,284.4 310.3,286.6 310.5,290.1 310.7,290.1 310.9,289.1 311.1,289.1 311.3,289.1 311.4,289.1 311.6,287.1 311.8,287.1 312.0,287.1 312.2,287.1 312.4,287.1 312.6,287.1 312.7,287.1 312.9,287.1 313.1,287.1 313.3,287.1 313.5,287.1 313.7,287.1 313.9,287.1 314.1,287.1 314.2,287.1 314.4,287.1 314.6,287.1 314.8,287.1 315.0,287.1 315.2,287.1 315.4,287.1 315.6,287.1 315.7,287.1 315.9,287.1 316.1,287.1 316.3,287.1 316.5,287.1 316.7,287.1 316.9,287.1 317.1,287.3 317.2,287.3 317.4,287.3 317.6,287.3 317.8,287.3 318.0,287.3 318.2,287.3 318.4,287.3 318.6,287.3 318.7,287.3 318.9,287.3 319.1,287.3 319.3,287.3 319.5,287.3 319.7,287.3 319.9,287.3 320.1,287.3 320.2,287.3 320.4,287.3 320.6,287.3 320.8,287.3 321.0,287.3 321.2,287.3 321.4,287.3 321.6,287.3 321.7,287.3 321.9,287.3 322.1,287.3 322.3,287.3 322.5,287.3 322.7,287.3 322.9,287.3 323.1,287.3 323.2,287.3 323.4,287.3 323.6,287.3 323.8,287.3 324.0,287.3 324.2,287.3 324.4,287.3 324.6,287.3 324.7,287.3 324.9,287.3 325.1,273.9 325.3,273.9 325.5,273.9 325.7,273.9 325.9,273.9 326.1,273.9 326.2,273.9 326.4,273.9 326.6,273.9 326.8,273.9 327.0,273.9 327.2,273.9 327.4,273.9 327.6,273.9 327.7,273.9 327.9,276.7 328.1,276.7 328.3,276.7 328.5,276.7 328.7,276.7 328.9,276.7 329.1,276.7 329.2,276.7 329.4,276.7 329.6,276.7 329.8,276.7 330.0,276.7 330.2,276.7 330.4,276.7 330.6,276.7 330.7,276.7 330.9,276.7 331.1,276.7 331.3,276.7 331.5,276.7 331.7,276.7 331.9,276.7 332.1,276.7 332.2,276.7 332.4,276.7 332.6,276.7 332.8,276.7 333.0,276.7 333.2,276.7 333.4,276.7 333.6,276.7 333.7,276.7 333.9,276.7 334.1,276.7 334.3,276.7 334.5,276.7 334.7,276.7 334.9,276.7 335.1,276.7 335.2,276.7 335.4,276.7 335.6,276.7 335.8,276.7 336.0,276.7 336.2,276.7 336.4,276.7 336.6,276.7 336.7,276.7 336.9,276.7 337.1,276.7 337.3,276.7 337.5,276.7 337.7,276.7 337.9,276.7 338.0,276.7 338.2,276.7 338.4,276.7 338.6,276.7 338.8,276.7 339.0,276.7 339.2,276.7 339.4,276.7 339.5,276.7 339.7,262.7 339.9,262.7 340.1,262.7 340.3,262.7 340.5,262.7 340.7,262.7 340.9,262.7 341.0,262.7 341.2,262.7 341.4,262.7 341.6,262.7 341.8,262.7 342.0,262.7 342.2,262.7 342.4,262.7 342.5,262.7 342.7,262.7 342.9,262.7 343.1,262.7 343.3,262.7 343.5,262.7 343.7,262.7 343.9,262.7 344.0,262.7 344.2,262.7 344.4,262.7 344.6,262.7 344.8,262.7 345.0,262.7 345.2,262.7 345.4,262.7 345.5,262.7 345.7,262.7 345.9,262.7 346.1,262.7 346.3,262.7 346.5,262.7 346.7,262.7 346.9,262.7 347.0,262.7 347.2,262.7 347.4,262.7 347.6,262.7 347.8,262.7 348.0,262.7 348.2,262.7 348.4,262.7 348.5,262.7 348.7,262.7 348.9,262.7 349.1,262.7 349.3,262.7 349.5,262.7 349.7,262.7 349.9,276.7 350.0,276.7 350.2,276.7 350.4,276.7 350.6,276.7 350.8,276.7 351.0,276.7 351.2,276.7 351.4,276.7 351.5,276.7 351.7,276.7 351.9,276.7 352.1,276.7 352.3,276.7 352.5,276.7 352.7,276.7 352.9,276.7 353.0,276.7 353.2,276.7 353.4,276.7 353.6,276.7 353.8,276.7 354.0,276.7 354.2,276.7 354.4,276.7 354.5,276.7 354.7,276.7 354.9,276.7 355.1,276.7 355.3,276.7 355.5,276.7 355.7,276.7 355.9,276.7 356.0,276.7 356.2,276.7 356.4,276.7 356.6,276.7 356.8,276.7 357.0,276.7 357.2,276.7 357.4,276.7 357.5,276.7 357.7,276.7 357.9,276.7 358.1,276.7 358.3,276.7 358.5,276.7 358.7,276.7 358.9,276.7 359.0,276.7 359.2,276.7 359.4,276.7 359.6,276.7 359.8,276.7 360.0,276.7 360.2,276.7 360.4,276.7 360.5,276.7 360.7,276.7 360.9,276.7 361.1,276.7 361.3,276.7 361.5,276.7 361.7,276.7 361.9,276.7 362.0,276.7 362.2,276.7 362.4,276.7 362.6,276.7 362.8,276.7 363.0,276.7 363.2,276.7 363.3,276.7 363.5,276.7 363.7,276.7 363.9,276.7 364.1,276.7 364.3,276.7 364.5,276.7 364.7,276.7 364.8,276.7 365.0,276.7 365.2,276.7 365.4,276.7 365.6,276.7 365.8,276.7 366.0,276.7 366.2,276.7 366.3,276.7 366.5,276.7 366.7,276.7 366.9,276.7 367.1,276.7 367.3,276.7 367.5,276.7 367.7,276.7 367.8,245.1 368.0,245.1 368.2,245.1 368.4,245.1 368.6,245.1 368.8,245.1 369.0,245.1 369.2,245.1 369.3,245.1 369.5,245.1 369.7,245.1 369.9,245.1 370.1,245.1 370.3,245.1 370.5,245.1 370.7,245.1 370.8,245.1 371.0,245.1 371.2,245.1 371.4,245.1 371.6,245.1 371.8,245.1 372.0,245.1 372.2,245.1 372.3,245.1 372.5,245.1 372.7,245.1 372.9,245.1 373.1,245.1 373.3,245.1 373.5,245.1 373.7,245.1 373.8,245.1 374.0,245.1 374.2,245.1 374.4,245.1 374.6,245.1 374.8,245.1 375.0,248.6 375.2,245.1 375.3,248.6 375.5,248.6 375.7,248.6 375.9,248.6 376.1,248.6 376.3,248.6 376.5,248.6 376.7,248.6 376.8,248.6 377.0,248.6 377.2,248.6 377.4,248.6 377.6,248.6 377.8,248.6 378.0,248.6 378.2,248.6 378.3,248.6 378.5,249.3 378.7,249.3 378.9,249.3 379.1,249.3 379.3,249.3 379.5,249.3 379.7,249.3 379.8,248.6 380.0,248.6 380.2,248.6 380.4,248.6 380.6,248.6 380.8,248.6 381.0,248.6 381.2,248.6 381.3,248.6 381.5,248.6 381.7,248.6 381.9,248.6 382.1,248.6 382.3,248.6 382.5,248.6 382.7,248.6 382.8,248.6 383.0,248.6 383.2,248.6 383.4,248.6 383.6,248.6 383.8,248.6 384.0,248.6 384.2,248.6 384.3,276.4 384.5,276.4 384.7,276.4 384.9,276.4 385.1,276.4 385.3,276.4 385.5,276.4 385.7,276.4 385.8,276.4 386.0,276.4 386.2,276.4 386.4,276.4 386.6,276.4 386.8,276.4 387.0,276.4 387.2,276.4 387.3,276.4 387.5,276.4 387.7,276.4 387.9,276.4 388.1,276.4 388.3,276.4 388.5,276.4 388.7,276.4 388.8,276.4 389.0,276.4 389.2,276.4 389.4,276.4 389.6,276.4 389.8,276.4 390.0,276.4 390.1,276.4 390.3,276.4 390.5,276.4 390.7,276.4 390.9,276.4 391.1,276.4 391.3,234.6 391.5,234.6 391.6,234.6 391.8,234.6 392.0,234.6 392.2,234.6 392.4,234.6 392.6,234.6 392.8,234.6 393.0,234.6 393.1,234.6 393.3,234.6 393.5,234.6 393.7,234.6 393.9,234.6 394.1,234.6 394.3,234.6 394.5,234.6 394.6,234.6 394.8,234.6 395.0,234.6 395.2,234.6 395.4,234.6 395.6,234.6 395.8,234.6 396.0,234.6 396.1,234.6 396.3,234.6 396.5,234.6 396.7,234.6 396.9,248.6 397.1,248.6 397.3,248.6 397.5,248.6 397.6,248.6 397.8,248.6 398.0,248.6 398.2,248.6 398.4,248.6 398.6,248.6 398.8,248.6 399.0,248.6 399.1,248.6 399.3,248.6 399.5,248.6 399.7,248.6 399.9,248.6 400.1,248.6 400.3,248.6 400.5,248.6 400.6,248.6 400.8,248.6 401.0,248.6 401.2,248.6 401.4,248.6 401.6,248.6 401.8,248.6 402.0,248.6 402.1,248.6 402.3,248.6 402.5,248.6 402.7,262.7 402.9,262.7 403.1,262.7 403.3,262.7 403.5,262.7 403.6,262.7 403.8,262.7 404.0,262.7 404.2,262.7 404.4,262.7 404.6,262.7 404.8,262.7 405.0,262.7 405.1,262.7 405.3,262.7 405.5,262.7 405.7,262.7 405.9,262.7 406.1,262.7 406.3,262.7 406.5,262.7 406.6,262.7 406.8,262.7 407.0,262.7 407.2,262.7 407.4,262.7 407.6,262.7 407.8,262.7 408.0,262.7 408.1,262.7 408.3,262.7 408.5,262.7 408.7,262.7 408.9,262.7 409.1,262.7 409.3,262.7 409.5,262.7 409.6,262.7 409.8,262.7 410.0,262.7 410.2,262.7 410.4,262.7 410.6,262.7 410.8,262.7 411.0,262.7 411.1,262.7 411.3,262.7 411.5,262.7 411.7,262.7 411.9,262.7 412.1,262.7 412.3,262.7 412.5,262.7 412.6,262.7 412.8,262.7 413.0,262.7 413.2,262.7 413.4,262.7 413.6,262.7 413.8,262.7 414.0,262.7 414.1,262.7 414.3,262.7 414.5,262.7 414.7,262.7 414.9,262.7 415.1,262.7 415.3,262.7 415.4,262.7 415.6,262.7 415.8,262.7 416.0,262.7 416.2,262.7 416.4,262.7 416.6,262.7 416.8,262.7 416.9,262.7 417.1,262.7 417.3,262.7 417.5,262.7 417.7,262.7 417.9,262.7 418.1,262.7 418.3,262.7 418.4,262.7 418.6,262.7 418.8,262.7 419.0,262.7 419.2,262.7 419.4,262.7 419.6,262.7 419.8,262.7 419.9,262.7 420.1,262.7 420.3,262.7 420.5,262.7 420.7,262.7 420.9,262.7 421.1,262.7 421.3,262.7 421.4,262.7 421.6,262.7 421.8,262.7 422.0,262.7 422.2,262.7 422.4,262.7 422.6,262.7 422.8,262.7 422.9,262.7 423.1,262.7 423.3,262.7 423.5,262.7 423.7,262.7 423.9,262.7 424.1,262.7 424.3,262.7 424.4,262.7 424.6,262.7 424.8,248.6 425.0,283.7 425.2,283.7 425.4,283.7 425.6,283.7 425.8,283.7 425.9,283.7 426.1,283.7 426.3,283.7 426.5,283.7 426.7,283.7 426.9,283.7 427.1,283.7 427.3,262.7 427.4,262.7 427.6,262.7 427.8,262.7 428.0,262.7 428.2,262.7 428.4,262.7 428.6,262.7 428.8,262.7 428.9,262.7 429.1,262.7 429.3,262.7 429.5,262.7 429.7,262.7 429.9,262.7 430.1,262.7 430.3,262.7 430.4,262.7 430.6,262.7 430.8,262.7 431.0,262.7 431.2,262.7 431.4,262.7 431.6,262.7 431.8,262.7 431.9,262.7 432.1,260.6 432.3,260.6 432.5,260.6 432.7,260.6 432.9,260.6 433.1,260.6 433.3,260.6 433.4,260.6 433.6,260.6 433.8,260.6 434.0,260.6 434.2,260.6 434.4,260.6 434.6,260.6 434.8,260.6 434.9,260.6 435.1,260.6 435.3,260.6 435.5,260.6 435.7,260.6 435.9,260.6 436.1,260.6 436.3,260.6 436.4,260.6 436.6,260.6 436.8,260.6 437.0,260.6 437.2,260.6 437.4,260.6 437.6,260.6 437.8,260.6 437.9,260.6 438.1,260.6 438.3,260.6 438.5,260.6 438.7,260.6 438.9,260.6 439.1,260.6 439.3,260.6 439.4,260.6 439.6,259.2 439.8,259.2 440.0,259.2 440.2,259.2 440.4,259.2 440.6,259.2 440.7,259.2 440.9,259.2 441.1,259.2 441.3,259.2 441.5,259.2 441.7,259.2 441.9,259.2 442.1,259.2 442.2,259.2 442.4,259.2 442.6,259.2 442.8,259.2 443.0,259.2 443.2,259.2 443.4,259.2 443.6,259.2 443.7,259.2 443.9,259.2 444.1,259.2 444.3,259.2 444.5,259.2 444.7,259.2 444.9,259.2 445.1,259.2 445.2,259.2 445.4,259.2 445.6,259.2 445.8,259.2 446.0,259.2 446.2,259.2 446.4,259.2 446.6,259.2 446.7,259.2 446.9,259.2 447.1,259.2 447.3,259.2 447.5,259.2 447.7,259.2 447.9,259.2 448.1,259.2 448.2,259.2 448.4,259.2 448.6,259.2 448.8,259.2 449.0,259.2 449.2,259.2 449.4,259.2 449.6,259.2 449.7,259.2 449.9,259.2 450.1,259.2 450.3,259.2 450.5,259.2 450.7,259.2 450.9,259.2 451.1,259.2 451.2,259.2 451.4,259.2 451.6,259.2 451.8,259.2 452.0,259.2 452.2,259.2 452.4,259.2 452.6,259.2 452.7,259.2 452.9,259.2 453.1,259.2 453.3,259.2 453.5,259.2 453.7,259.2 453.9,259.2 454.1,259.2 454.2,259.2 454.4,259.2 454.6,259.2 454.8,259.2 455.0,259.2 455.2,259.2 455.4,252.1 455.6,252.1 455.7,252.1 455.9,252.1 456.1,250.0 456.3,250.0 456.5,250.0 456.7,250.0 456.9,250.0 457.1,250.0 457.2,250.0 457.4,250.0 457.6,255.6 457.8,255.6 458.0,255.6 458.2,255.6 458.4,255.6 458.6,255.6 458.7,255.6 458.9,250.0 459.1,250.0 459.3,250.0 459.5,250.0 459.7,250.7 459.9,250.7 460.1,250.7 460.2,250.7 460.4,250.7 460.6,250.7 460.8,248.6 461.0,248.6 461.2,248.6 461.4,248.6 461.6,248.6 461.7,248.6 461.9,248.6 462.1,248.6 462.3,248.6 462.5,248.6 462.7,248.6 462.9,248.6 463.1,248.6 463.2,248.6 463.4,248.6 463.6,248.6 463.8,248.6 464.0,248.6 464.2,248.6 464.4,248.6 464.6,248.6 464.7,248.6 464.9,248.6 465.1,248.6 465.3,248.6 465.5,248.6 465.7,250.7 465.9,250.7 466.0,250.7 466.2,250.7 466.4,248.6 466.6,248.6 466.8,248.6 467.0,266.9 467.2,266.9 467.4,266.9 467.5,266.9 467.7,266.9 467.9,266.9 468.1,266.9 468.3,266.9 468.5,266.9 468.7,266.9 468.9,266.9 469.0,266.9 469.2,266.9 469.4,266.9 469.6,266.9 469.8,266.9 470.0,266.9 470.2,252.8 470.4,252.1 470.5,252.1 470.7,252.1 470.9,252.1 471.1,252.1 471.3,252.1 471.5,252.1 471.7,252.1 471.9,252.1 472.0,252.1 472.2,252.1 472.4,252.1 472.6,252.1 472.8,252.1 473.0,252.1 473.2,261.5 473.4,261.5 473.5,255.6 473.7,255.6 473.9,255.6 474.1,258.3 474.3,258.3 474.5,258.3 474.7,258.3 474.9,258.3 475.0,227.5 475.2,227.5 475.4,227.5 475.6,241.6 475.8,241.6 476.0,241.6 476.2,241.4 476.4,241.4 476.5,241.4 476.7,241.4 476.9,241.4 477.1,241.4 477.3,241.4 477.5,241.4 477.7,241.4 477.9,241.4 478.0,241.4 478.2,241.4 478.4,241.4 478.6,241.4 478.8,241.4 479.0,241.4 479.2,241.4 479.4,241.4 479.5,221.9 479.7,206.5 479.9,206.5 480.1,206.5 480.3,206.5 480.5,206.5 480.7,206.5 480.9,206.5 481.0,206.5 481.2,206.5 481.4,206.5 481.6,206.5 481.8,206.5 482.0,206.5 482.2,206.5 482.4,206.5 482.5,206.5 482.7,206.5 482.9,220.5 483.1,220.5 483.3,220.5 483.5,220.5 483.7,220.5 483.9,220.5 484.0,220.5 484.2,220.5 484.4,220.5 484.6,220.5 484.8,220.5 485.0,220.5 485.2,220.5 485.4,220.5 485.5,220.5 485.7,220.5 485.9,220.5 486.1,220.5 486.3,220.5 486.5,220.5 486.7,220.5 486.9,220.5 487.0,220.5 487.2,220.5 487.4,220.5 487.6,220.5 487.8,220.5 488.0,220.5 488.2,220.5 488.4,220.5 488.5,220.5 488.7,220.5 488.9,220.5 489.1,220.5 489.3,220.5 489.5,220.5 489.7,220.5 489.9,220.5 490.0,220.5 490.2,220.5 490.4,220.5 490.6,220.5 490.8,220.5 491.0,220.5 491.2,220.5 491.3,220.5 491.5,227.5 491.7,227.5 491.9,227.5 492.1,227.5 492.3,227.5 492.5,227.5 492.7,227.5 492.8,227.5 493.0,227.5 493.2,227.5 493.4,227.5 493.6,227.5 493.8,227.5 494.0,227.5 494.2,227.5 494.3,227.5 494.5,227.5 494.7,227.5 494.9,227.5 495.1,227.5 495.3,227.5 495.5,227.5 495.7,227.5 495.8,227.5 496.0,227.5 496.2,227.5 496.4,227.5 496.6,227.5 496.8,227.5 497.0,227.5 497.2,227.5 497.3,227.5 497.5,227.5 497.7,227.5 497.9,227.5 498.1,227.5 498.3,227.5 498.5,227.5 498.7,227.5 498.8,227.5 499.0,227.5 499.2,227.5 499.4,227.5 499.6,227.5 499.8,227.5 500.0,227.5 500.2,227.5 500.3,227.5 500.5,227.5 500.7,227.5 500.9,227.5 501.1,227.5 501.3,227.5 501.5,227.5 501.7,227.5 501.8,227.5 502.0,227.5 502.2,227.5 502.4,227.5 502.6,227.5 502.8,227.5 503.0,227.5 503.2,227.5 503.3,220.5 503.5,220.5 503.7,220.5 503.9,220.5 504.1,220.5 504.3,220.5 504.5,220.5 504.7,220.5 504.8,220.5 505.0,220.5 505.2,220.5 505.4,220.5 505.6,220.5 505.8,220.5 506.0,220.5 506.2,220.5 506.3,220.5 506.5,220.5 506.7,220.5 506.9,220.5 507.1,220.5 507.3,220.5 507.5,220.5 507.7,220.5 507.8,220.5 508.0,220.5 508.2,220.5 508.4,220.5 508.6,220.5 508.8,220.5 509.0,220.5 509.2,220.5 509.3,220.5 509.5,220.5 509.7,220.5 509.9,220.5 510.1,220.5 510.3,220.5 510.5,220.5 510.7,220.5 510.8,220.5 511.0,220.5 511.2,220.5 511.4,220.5 511.6,220.5 511.8,220.5 512.0,220.5 512.2,220.5 512.3,220.5 512.5,220.5 512.7,220.5 512.9,220.5 513.1,220.5 513.3,220.5 513.5,220.5 513.7,220.5 513.8,220.5 514.0,220.5 514.2,220.5 514.4,220.5 514.6,206.3 514.8,206.3 515.0,206.3 515.2,206.3 515.3,206.3 515.5,206.3 515.7,206.3 515.9,206.3 516.1,206.3 516.3,206.3 516.5,206.3 516.7,206.3 516.8,206.3 517.0,206.3 517.2,206.3 517.4,206.3 517.6,206.3 517.8,206.3 518.0,206.3 518.1,206.3 518.3,206.3 518.5,206.3 518.7,206.3 518.9,206.3 519.1,206.3 519.3,205.6 519.5,205.6 519.6,205.6 519.8,205.6 520.0,205.6 520.2,205.6 520.4,205.6 520.6,205.6 520.8,205.6 521.0,205.6 521.1,205.6 521.3,205.0 521.5,205.0 521.7,205.0 521.9,205.0 522.1,205.0 522.3,205.0 522.5,205.0 522.6,205.0 522.8,205.0 523.0,205.0 523.2,205.0 523.4,205.8 523.6,205.8 523.8,205.8 524.0,205.8 524.1,205.8 524.3,205.8 524.5,205.8 524.7,205.8 524.9,205.8 525.1,205.8 525.3,205.8 525.5,205.8 525.6,205.8 525.8,205.8 526.0,205.8 526.2,205.8 526.4,205.8 526.6,205.8 526.8,205.8 527.0,205.8 527.1,205.8 527.3,203.6 527.5,203.6 527.7,203.6 527.9,203.6 528.1,203.6 528.3,203.6 528.5,203.6 528.6,203.6 528.8,203.6 529.0,203.6 529.2,203.6 529.4,203.6 529.6,203.6 529.8,203.6 530.0,203.6 530.1,203.6 530.3,203.6 530.5,65.9 530.7,65.9 530.9,65.9 531.1,65.9 531.3,65.9 531.5,65.9 531.6,65.9 531.8,65.9 532.0,65.9 532.2,65.9 532.4,65.9 532.6,65.9 532.8,211.1 533.0,211.1 533.1,211.1 533.3,209.1 533.5,209.1 533.7,209.1 533.9,209.1 534.1,209.1 534.3,209.1 534.5,209.1 534.6,209.1 534.8,209.1 535.0,209.1 535.2,209.1 535.4,209.1 535.6,209.1 535.8,209.1 536.0,209.1 536.1,209.1 536.3,209.1 536.5,209.1 536.7,209.1 536.9,209.1 537.1,209.1 537.3,209.1 537.5,209.1 537.6,209.1 537.8,209.1 538.0,209.1 538.2,209.1 538.4,209.1 538.6,209.1 538.8,178.4 539.0,171.3 539.1,171.3 539.3,171.3 539.5,171.3 539.7,171.3 539.9,171.3 540.1,171.3 540.3,171.3 540.5,171.3 540.6,171.3 540.8,171.3 541.0,178.4 541.2,178.4 541.4,178.4 541.6,178.4 541.8,178.4 542.0,171.3 542.1,171.3 542.3,171.3 542.5,171.3 542.7,171.3 542.9,171.3 543.1,171.3 543.3,171.3 543.4,171.3 543.6,171.3 543.8,171.3 544.0,171.3 544.2,171.3 544.4,171.3 544.6,171.3 544.8,171.3 544.9,171.3 545.1,171.3 545.3,171.3 545.5,171.3 545.7,171.3 545.9,167.1 546.1,167.1 546.3,164.3 546.4,164.3 546.6,164.3 546.8,206.3 547.0,206.3 547.2,206.3 547.4,206.3 547.6,206.3 547.8,206.3 547.9,220.5 548.1,220.5 548.3,220.5 548.5,220.5 548.7,192.4 548.9,192.4 549.1,192.4 549.3,192.4 549.4,192.4 549.6,192.4 549.8,205.3 550.0,205.3 550.2,205.3 550.4,205.3 550.6,205.3 550.8,205.3 550.9,205.3 551.1,205.3 551.3,205.3 551.5,205.3 551.7,205.3 551.9,205.3 552.1,205.3 552.3,205.3 552.4,205.3 552.6,205.3 552.8,205.3 553.0,205.3 553.2,205.3 553.4,205.3 553.6,205.3 553.8,205.3 553.9,205.3 554.1,205.3 554.3,205.3 554.5,205.3 554.7,205.3 554.9,205.3 555.1,205.3 555.3,205.3 555.4,205.3 555.6,205.3 555.8,205.3 556.0,205.3 556.2,205.3 556.4,205.3 556.6,205.3 556.8,205.3 556.9,205.3 557.1,205.3 557.3,205.3 557.5,205.3 557.7,205.3 557.9,205.3 558.1,205.3 558.3,205.3 558.4,205.3 558.6,205.3 558.8,205.3 559.0,205.3 559.2,205.3 559.4,205.3 559.6,205.3 559.8,205.3 559.9,205.3 560.1,205.3 560.3,205.3 560.5,205.3 560.7,205.3 560.9,205.3 561.1,205.3 561.3,205.3 561.4,205.3 561.6,205.3 561.8,205.3 562.0,205.3 562.2,205.3 562.4,205.3 562.6,205.3 562.8,205.3 562.9,205.3 563.1,205.3 563.3,205.3 563.5,205.3 563.7,205.3 563.9,205.3 564.1,205.3 564.3,205.3 564.4,205.3 564.6,205.3 564.8,205.3 565.0,205.3 565.2,205.3 565.4,205.3 565.6,205.3 565.8,205.3 565.9,205.3 566.1,205.3 566.3,192.4 566.5,192.4 566.7,192.4 566.9,192.4 567.1,192.4 567.3,192.4 567.4,192.4 567.6,192.4 567.8,192.4 568.0,192.4 568.2,192.4 568.4,192.4 568.6,192.4 568.7,192.4 568.9,192.4 569.1,192.4 569.3,192.4 569.5,192.4 569.7,192.4 569.9,192.4 570.1,192.4 570.2,192.4 570.4,192.4 570.6,192.4 570.8,192.4 571.0,192.4 571.2,192.4 571.4,192.4 571.6,192.4 571.7,192.4 571.9,192.4 572.1,192.4 572.3,192.4 572.5,192.4 572.7,192.4 572.9,192.4 573.1,192.4 573.2,192.4 573.4,192.4 573.6,192.4 573.8,192.4 574.0,192.4 574.2,192.4 574.4,192.4 574.6,192.4 574.7,192.4 574.9,192.4 575.1,192.4 575.3,192.4 575.5,192.4 575.7,192.4 575.9,192.4 576.1,192.4 576.2,174.1 576.4,174.1 576.6,174.1 576.8,174.1 577.0,174.1 577.2,174.1 577.4,174.1 577.6,174.1 577.7,174.1 577.9,174.1 578.1,174.1 578.3,174.1 578.5,174.1 578.7,174.1 578.9,174.1 579.1,174.1 579.2,174.1 579.4,174.1 579.6,174.1 579.8,174.1 580.0,174.1 580.2,174.1 580.4,174.1 580.6,174.1 580.7,174.1 580.9,174.1 581.1,174.1 581.3,174.1 581.5,174.1 581.7,174.1 581.9,174.1 582.1,174.1 582.2,174.1 582.4,174.1 582.6,174.1 582.8,174.1 583.0,174.1 583.2,174.1 583.4,174.1 583.6,174.1 583.7,174.1 583.9,174.1 584.1,174.1 584.3,174.1 584.5,174.1 584.7,174.1 584.9,174.1 585.1,174.1 585.2,174.1 585.4,174.1 585.6,174.1 585.8,174.1 586.0,174.1 586.2,174.1 586.4,174.1 586.6,174.1 586.7,174.1 586.9,174.1 587.1,174.1 587.3,174.1 587.5,174.1 587.7,174.1 587.9,174.1 588.1,174.1 588.2,174.1 588.4,174.1 588.6,174.1 588.8,174.1 589.0,174.1 589.2,174.1 589.4,174.1 589.6,174.1 589.7,174.1 589.9,174.1 590.1,174.1 590.3,174.1 590.5,174.1 590.7,174.1 590.9,174.1 591.1,174.1 591.2,174.1 591.4,174.1 591.6,174.1 591.8,174.1 592.0,174.1 592.2,174.1 592.4,174.1 592.6,174.1 592.7,174.1 592.9,174.1 593.1,174.1 593.3,174.1 593.5,174.1 593.7,174.1 593.9,174.1 594.0,174.1 594.2,174.1 594.4,174.1 594.6,174.1 594.8,174.1 595.0,174.1 595.2,178.3 595.4,178.3 595.5,178.3 595.7,178.3 595.9,178.3 596.1,178.3 596.3,178.3 596.5,178.3 596.7,178.3 596.9,178.3 597.0,178.3 597.2,178.3 597.4,178.3 597.6,178.3 597.8,178.3 598.0,178.3 598.2,178.3 598.4,178.3 598.5,178.3 598.7,178.3 598.9,178.3 599.1,178.3 599.3,178.3 599.5,178.3 599.7,178.3 599.9,178.3 600.0,178.3 600.2,178.3 600.4,178.3 600.6,178.3 600.8,178.3 601.0,178.3 601.2,178.3 601.4,178.3 601.5,178.3 601.7,178.3 601.9,178.3 602.1,178.3 602.3,178.3 602.5,178.3 602.7,178.3 602.9,178.3 603.0,178.3 603.2,178.3 603.4,178.3 603.6,178.3 603.8,178.3 604.0,178.3 604.2,178.3 604.4,178.3 604.5,178.3 604.7,178.3 604.9,178.3 605.1,178.3 605.3,178.3 605.5,178.3 605.7,178.3 605.9,178.3 606.0,178.3 606.2,178.3 606.4,178.3 606.6,178.3 606.8,178.3 607.0,178.3 607.2,178.3 607.4,178.3 607.5,178.3 607.7,178.3 607.9,178.3 608.1,178.3 608.3,178.3 608.5,178.3 608.7,178.3 608.9,178.3 609.0,178.3 609.2,178.3 609.4,178.3 609.6,178.3 609.8,178.3 610.0,178.3 610.2,178.3 610.4,178.3 610.5,178.3 610.7,178.3 610.9,178.3 611.1,178.3 611.3,178.3 611.5,178.3 611.7,178.3 611.9,178.3 612.0,178.3 612.2,178.3 612.4,178.3 612.6,178.3 612.8,178.3 613.0,178.3 613.2,178.3 613.4,178.3 613.5,178.3 613.7,178.3 613.9,178.3 614.1,178.3 614.3,178.3 614.5,178.3 614.7,178.3 614.9,178.3 615.0,178.3 615.2,178.3 615.4,178.3 615.6,178.3 615.8,178.3 616.0,178.3 616.2,178.3 616.4,178.3 616.5,178.3 616.7,178.3 616.9,178.3 617.1,178.3 617.3,178.3 617.5,178.3 617.7,178.3 617.9,178.3 618.0,178.3 618.2,178.3 618.4,178.3 618.6,178.3 618.8,178.3 619.0,178.3 619.2,178.3 619.3,178.3 619.5,178.3 619.7,178.3 619.9,178.3 620.1,178.3 620.3,178.3 620.5,178.3 620.7,178.3 620.8,178.3 621.0,178.3 621.2,178.3 621.4,178.3 621.6,178.3 621.8,178.3 622.0,178.3 622.2,178.3 622.3,178.3 622.5,178.3 622.7,167.8 622.9,167.8 623.1,167.8 623.3,167.8 623.5,167.8 623.7,167.8 623.8,167.8 624.0,167.8 624.2,167.8 624.4,167.8 624.6,167.8 624.8,167.8 625.0,167.8 625.2,167.8 625.3,167.8 625.5,167.8 625.7,167.8 625.9,167.8 626.1,167.8 626.3,167.8 626.5,167.8 626.7,167.8 626.8,167.8 627.0,167.8 627.2,167.8 627.4,167.8 627.6,167.8 627.8,167.8 628.0,167.8 628.2,167.8 628.3,167.8 628.5,167.8 628.7,167.8 628.9,167.8 629.1,167.8 629.3,167.8 629.5,167.8 629.7,167.8 629.8,167.8 630.0,167.8 630.2,167.8 630.4,167.8 630.6,167.8 630.8,167.8 631.0,167.8 631.2,167.8 631.3,167.8 631.5,167.8 631.7,167.8 631.9,167.8 632.1,167.8 632.3,167.8 632.5,167.8 632.7,167.8 632.8,167.8 633.0,167.8 633.2,167.8 633.4,167.8 633.6,167.8 633.8,167.8 634.0,167.8 634.2,167.8 634.3,167.8 634.5,167.8 634.7,167.8 634.9,167.8 635.1,167.8 635.3,167.8 635.5,167.8 635.7,167.8 635.8,167.8 636.0,167.8 636.2,167.8 636.4,167.8 636.6,167.8 636.8,167.8 637.0,167.8 637.2,167.8 637.3,190.0 637.5,191.3 637.7,191.3 637.9,191.3 638.1,178.4 638.3,178.4 638.5,178.4 638.7,178.4 638.8,178.4 639.0,178.4 639.2,178.4 639.4,178.4 639.6,185.4 639.8,185.4 640.0,185.4 640.2,185.4 640.3,185.4 640.5,185.4 640.7,185.1 640.9,185.1 641.1,185.1 641.3,185.1 641.5,185.1 641.7,185.1 641.8,185.1 642.0,185.1 642.2,185.1 642.4,185.1 642.6,185.1 642.8,185.1 643.0,185.1 643.2,185.1 643.3,186.1 643.5,186.1 643.7,186.1 643.9,178.4 644.1,178.4 644.3,185.4 644.5,185.4 644.7,185.4 644.8,185.4 645.0,185.4 645.2,185.4 645.4,185.4 645.6,178.4 645.8,178.4 646.0,185.4 646.1,185.4 646.3,185.4 646.5,185.4 646.7,185.4 646.9,185.4 647.1,185.4 647.3,185.4 647.5,185.4 647.6,185.4 647.8,185.4 648.0,185.4 648.2,185.4 648.4,185.4 648.6,185.4 648.8,185.4 649.0,185.4 649.1,185.4 649.3,185.4 649.5,185.4 649.7,185.4 649.9,185.4 650.1,185.4 650.3,185.4 650.5,185.4 650.6,185.4 650.8,185.4 651.0,185.4 651.2,185.4 651.4,185.4 651.6,185.4 651.8,185.4 652.0,185.4 652.1,185.4 652.3,185.4 652.5,185.4 652.7,185.4 652.9,185.4 653.1,185.4 653.3,185.4 653.5,185.4 653.6,185.4 653.8,185.4 654.0,185.4 654.2,185.4 654.4,185.4 654.6,185.4 654.8,185.4 655.0,185.4 655.1,185.4 655.3,185.4 655.5,185.4 655.7,185.4 655.9,185.4 656.1,185.4 656.3,185.4 656.5,178.4 656.6,178.4 656.8,178.4 657.0,178.4 657.2,178.4 657.4,178.4 657.6,178.4 657.8,178.4 658.0,178.4 658.1,178.4 658.3,178.4 658.5,178.4 658.7,178.4 658.9,178.4 659.1,178.4 659.3,178.4 659.5,178.4 659.6,178.4 659.8,178.4 660.0,178.4 660.2,178.4 660.4,178.4 660.6,178.4 660.8,178.4 661.0,178.4 661.1,178.4 661.3,178.4 661.5,178.4 661.7,178.4 661.9,178.4 662.1,178.4 662.3,178.4 662.5,178.4 662.6,178.4 662.8,178.4 663.0,178.4 663.2,178.4 663.4,178.4 663.6,178.4 663.8,178.4 664.0,178.4 664.1,178.4 664.3,178.4 664.5,178.4 664.7,178.4 664.9,178.4 665.1,178.4 665.3,178.4 665.5,178.4 665.6,178.4 665.8,178.4 666.0,178.4 666.2,178.4 666.4,178.4 666.6,178.4 666.8,178.4 667.0,178.4 667.1,178.4 667.3,178.4 667.5,178.4 667.7,178.4 667.9,178.4 668.1,178.4 668.3,178.4 668.5,178.4 668.6,178.4 668.8,178.4 669.0,178.4 669.2,178.4 669.4,178.4 669.6,178.4 669.8,178.4 670.0,178.4 670.1,178.4 670.3,178.4 670.5,178.4 670.7,178.4 670.9,178.4 671.1,178.4 671.3,178.4 671.4,178.4 671.6,178.4 671.8,178.4 672.0,178.4 672.2,178.4 672.4,178.4 672.6,178.4 672.8,178.4 672.9,178.4 673.1,178.4 673.3,178.4 673.5,178.4 673.7,178.4 673.9,178.4 674.1,178.4 674.3,164.3 674.4,164.3 674.6,164.3 674.8,164.3 675.0,164.3 675.2,164.3 675.4,164.3 675.6,164.3 675.8,164.3 675.9,164.3 676.1,164.3 676.3,164.3 676.5,164.3 676.7,164.3 676.9,164.3 677.1,164.3 677.3,164.3 677.4,164.3 677.6,164.3 677.8,164.3 678.0,164.3 678.2,164.3 678.4,164.3 678.6,164.3 678.8,164.3 678.9,164.3 679.1,164.3 679.3,164.3 679.5,164.3 679.7,164.3 679.9,164.3 680.1,164.3 680.3,164.3 680.4,164.3 680.6,164.3 680.8,164.3 681.0,164.3 681.2,164.3 681.4,164.3 681.6,164.3 681.8,164.3 681.9,164.3 682.1,164.3 682.3,164.3 682.5,164.3 682.7,164.3 682.9,164.3 683.1,164.3 683.3,164.3 683.4,164.3 683.6,164.3 683.8,164.3 684.0,164.3 684.2,164.3 684.4,164.3 684.6,164.3 684.8,164.3 684.9,164.3 685.1,164.3 685.3,164.3 685.5,164.3 685.7,164.3 685.9,164.3 686.1,164.3 686.3,164.3 686.4,164.3 686.6,164.3 686.8,164.3 687.0,164.3 687.2,164.3 687.4,164.3 687.6,164.3 687.8,164.3 687.9,164.3 688.1,164.3 688.3,164.3 688.5,164.3 688.7,157.3 688.9,157.3 689.1,157.3 689.3,157.3 689.4,157.3 689.6,157.3 689.8,157.3 690.0,157.3 690.2,157.3 690.4,157.3 690.6,157.3 690.8,157.3 690.9,160.8 691.1,160.8 691.3,160.8 691.5,160.8 691.7,160.8 691.9,160.8 692.1,160.8 692.3,160.8 692.4,160.8 692.6,160.8 692.8,160.8 693.0,160.8 693.2,160.8 693.4,160.8 693.6,160.8 693.8,160.8 693.9,160.8 694.1,160.8 694.3,160.8 694.5,160.8 694.7,160.8 694.9,160.8 695.1,167.8 695.3,167.8 695.4,167.8 695.6,167.8 695.8,167.8 696.0,167.8"/>
  <polyline fill="none" stroke="#16a34a" stroke-width="2" points="56.0,217.0 56.2,217.0 56.4,217.0 56.6,217.0 56.7,217.0 56.9,217.0 57.1,217.0 57.3,217.0 57.5,217.0 57.7,217.0 57.9,217.0 58.1,217.0 58.2,217.0 58.4,217.0 58.6,217.0 58.8,217.0 59.0,217.0 59.2,217.0 59.4,217.0 59.6,217.0 59.7,217.0 59.9,217.0 60.1,217.0 60.3,217.0 60.5,217.0 60.7,217.0 60.9,217.0 61.1,217.0 61.2,213.5 61.4,213.5 61.6,192.4 61.8,192.4 62.0,192.4 62.2,192.4 62.4,192.4 62.6,192.4 62.7,192.4 62.9,192.4 63.1,192.4 63.3,192.4 63.5,192.4 63.7,192.4 63.9,192.4 64.1,192.4 64.2,192.4 64.4,192.4 64.6,192.4 64.8,192.4 65.0,202.9 65.2,202.9 65.4,199.4 65.6,171.3 65.7,171.3 65.9,171.3 66.1,181.2 66.3,181.2 66.5,185.4 66.7,185.4 66.9,185.4 67.1,192.4 67.2,192.4 67.4,192.4 67.6,192.4 67.8,192.4 68.0,192.4 68.2,192.4 68.4,192.4 68.6,192.4 68.7,192.4 68.9,192.4 69.1,192.4 69.3,192.4 69.5,192.4 69.7,192.4 69.9,192.4 70.1,192.4 70.2,192.4 70.4,192.4 70.6,192.4 70.8,192.4 71.0,192.4 71.2,192.4 71.4,192.4 71.6,192.4 71.7,192.4 71.9,192.4 72.1,192.4 72.3,192.4 72.5,192.4 72.7,192.4 72.9,192.4 73.1,192.4 73.2,192.4 73.4,192.4 73.6,192.4 73.8,192.4 74.0,192.4 74.2,192.4 74.4,192.4 74.6,192.4 74.7,192.4 74.9,192.4 75.1,192.4 75.3,192.4 75.5,192.4 75.7,192.4 75.9,192.4 76.1,192.4 76.2,192.4 76.4,192.4 76.6,192.4 76.8,192.4 77.0,192.4 77.2,192.4 77.4,192.4 77.6,192.4 77.7,192.4 77.9,192.4 78.1,192.4 78.3,192.4 78.5,192.4 78.7,192.4 78.9,192.4 79.1,192.4 79.2,192.4 79.4,192.4 79.6,192.4 79.8,192.4 80.0,192.4 80.2,192.4 80.4,192.4 80.6,192.4 80.7,192.4 80.9,192.4 81.1,192.4 81.3,192.4 81.5,192.4 81.7,192.4 81.9,192.4 82.0,192.4 82.2,192.4 82.4,192.4 82.6,192.4 82.8,192.4 83.0,192.4 83.2,192.4 83.4,192.4 83.5,192.4 83.7,192.4 83.9,192.4 84.1,192.4 84.3,192.4 84.5,192.4 84.7,192.4 84.9,192.4 85.0,192.4 85.2,192.4 85.4,192.4 85.6,192.4 85.8,192.4 86.0,192.4 86.2,192.4 86.4,192.4 86.5,192.4 86.7,192.4 86.9,192.4 87.1,192.4 87.3,192.4 87.5,192.4 87.7,192.4 87.9,192.4 88.0,192.4 88.2,192.4 88.4,192.4 88.6,192.4 88.8,192.4 89.0,192.4 89.2,192.4 89.4,192.4 89.5,192.4 89.7,192.4 89.9,192.4 90.1,192.4 90.3,192.4 90.5,192.4 90.7,192.4 90.9,192.4 91.0,192.4 91.2,192.4 91.4,192.4 91.6,192.4 91.8,192.4 92.0,192.4 92.2,192.4 92.4,192.4 92.5,192.4 92.7,192.4 92.9,192.4 93.1,192.4 93.3,192.4 93.5,192.4 93.7,192.4 93.9,192.4 94.0,192.4 94.2,192.4 94.4,192.4 94.6,192.4 94.8,192.4 95.0,192.4 95.2,192.4 95.4,192.4 95.5,192.4 95.7,192.4 95.9,192.4 96.1,192.4 96.3,192.4 96.5,192.4 96.7,192.4 96.9,192.4 97.0,192.4 97.2,192.4 97.4,192.4 97.6,192.4 97.8,192.4 98.0,192.4 98.2,192.4 98.4,192.4 98.5,192.4 98.7,192.4 98.9,192.4 99.1,192.4 99.3,192.4 99.5,192.4 99.7,192.4 99.9,192.4 100.0,192.4 100.2,192.4 100.4,192.4 100.6,192.4 100.8,192.4 101.0,192.4 101.2,192.4 101.4,192.4 101.5,192.4 101.7,192.4 101.9,192.4 102.1,192.4 102.3,192.4 102.5,192.4 102.7,192.4 102.9,192.4 103.0,192.4 103.2,192.4 103.4,192.4 103.6,192.4 103.8,192.4 104.0,192.4 104.2,192.4 104.4,192.4 104.5,192.4 104.7,192.4 104.9,192.4 105.1,192.4 105.3,192.4 105.5,192.4 105.7,192.4 105.9,192.4 106.0,192.4 106.2,192.4 106.4,192.4 106.6,192.4 106.8,192.4 107.0,192.4 107.2,192.4 107.3,192.4 107.5,192.4 107.7,192.4 107.9,192.4 108.1,192.4 108.3,192.4 108.5,192.4 108.7,192.4 108.8,192.4 109.0,192.4 109.2,192.4 109.4,192.4 109.6,192.4 109.8,192.4 110.0,192.4 110.2,192.4 110.3,192.4 110.5,192.4 110.7,192.4 110.9,192.4 111.1,192.4 111.3,192.4 111.5,192.4 111.7,192.4 111.8,192.4 112.0,192.4 112.2,192.4 112.4,192.4 112.6,192.4 112.8,192.4 113.0,192.4 113.2,192.4 113.3,192.4 113.5,192.4 113.7,192.4 113.9,192.4 114.1,192.4 114.3,192.4 114.5,192.4 114.7,192.4 114.8,192.4 115.0,192.4 115.2,192.4 115.4,192.4 115.6,192.4 115.8,192.4 116.0,192.4 116.2,192.4 116.3,192.4 116.5,192.4 116.7,192.4 116.9,192.4 117.1,192.4 117.3,192.4 117.5,192.4 117.7,192.4 117.8,192.4 118.0,192.4 118.2,192.4 118.4,192.4 118.6,191.3 118.8,191.3 119.0,191.3 119.2,188.2 119.3,188.2 119.5,184.0 119.7,184.0 119.9,184.0 120.1,184.0 120.3,184.0 120.5,184.0 120.7,184.0 120.8,184.0 121.0,184.0 121.2,184.0 121.4,184.0 121.6,184.0 121.8,184.0 122.0,184.0 122.2,184.0 122.3,184.0 122.5,184.0 122.7,184.0 122.9,184.0 123.1,184.0 123.3,184.0 123.5,184.0 123.7,184.0 123.8,184.0 124.0,184.0 124.2,184.0 124.4,184.0 124.6,184.0 124.8,184.0 125.0,184.0 125.2,184.0 125.3,184.0 125.5,184.0 125.7,184.0 125.9,178.4 126.1,178.4 126.3,178.4 126.5,178.4 126.7,178.4 126.8,178.4 127.0,178.4 127.2,178.4 127.4,178.4 127.6,178.4 127.8,178.4 128.0,178.4 128.2,178.4 128.3,178.4 128.5,178.4 128.7,178.4 128.9,178.4 129.1,178.4 129.3,178.4 129.5,178.4 129.7,178.4 129.8,178.4 130.0,178.4 130.2,178.4 130.4,192.4 130.6,192.4 130.8,192.4 131.0,192.4 131.2,192.4 131.3,192.4 131.5,192.4 131.7,192.4 131.9,192.4 132.1,192.4 132.3,192.4 132.5,192.4 132.7,192.4 132.8,192.4 133.0,192.4 133.2,192.4 133.4,192.4 133.6,192.4 133.8,192.4 134.0,192.4 134.1,192.4 134.3,192.4 134.5,192.4 134.7,192.4 134.9,192.4 135.1,192.4 135.3,192.4 135.5,192.4 135.6,192.4 135.8,192.4 136.0,192.4 136.2,192.4 136.4,192.4 136.6,192.4 136.8,192.4 137.0,192.4 137.1,192.4 137.3,192.4 137.5,192.4 137.7,192.4 137.9,192.4 138.1,188.9 138.3,188.9 138.5,188.9 138.6,188.9 138.8,188.9 139.0,188.9 139.2,188.9 139.4,188.9 139.6,188.9 139.8,188.9 140.0,188.9 140.1,188.9 140.3,191.4 140.5,191.4 140.7,191.4 140.9,191.4 141.1,191.4 141.3,191.4 141.5,191.0 141.6,191.0 141.8,191.0 142.0,191.0 142.2,191.0 142.4,191.0 142.6,191.0 142.8,191.0 143.0,191.0 143.1,191.0 143.3,191.0 143.5,191.0 143.7,191.0 143.9,191.0 144.1,191.0 144.3,191.0 144.5,191.0 144.6,191.0 144.8,191.0 145.0,191.0 145.2,191.0 145.4,191.0 145.6,191.0 145.8,191.0 146.0,191.0 146.1,191.0 146.3,191.0 146.5,191.0 146.7,191.0 146.9,191.0 147.1,191.0 147.3,191.0 147.5,191.0 147.6,191.0 147.8,191.0 148.0,191.0 148.2,191.0 148.4,191.0 148.6,191.0 148.8,191.0 149.0,191.0 149.1,191.0 149.3,191.0 149.5,191.0 149.7,191.0 149.9,191.0 150.1,191.0 150.3,191.0 150.5,191.0 150.6,191.0 150.8,191.0 151.0,191.0 151.2,191.0 151.4,191.0 151.6,191.0 151.8,191.0 152.0,191.0 152.1,191.0 152.3,191.0 152.5,191.0 152.7,191.0 152.9,191.0 153.1,189.3 153.3,189.3 153.5,189.3 153.6,189.3 153.8,189.3 154.0,189.3 154.2,189.3 154.4,189.3 154.6,189.3 154.8,189.3 155.0,189.3 155.1,189.3 155.3,189.3 155.5,189.3 155.7,189.3 155.9,189.3 156.1,189.3 156.3,189.3 156.5,189.3 156.6,189.3 156.8,189.3 157.0,189.3 157.2,189.3 157.4,189.3 157.6,189.3 157.8,186.1 158.0,186.1 158.1,186.1 158.3,186.1 158.5,186.1 158.7,186.1 158.9,186.1 159.1,186.1 159.3,186.1 159.4,186.1 159.6,186.1 159.8,186.1 160.0,186.1 160.2,186.1 160.4,186.1 160.6,186.1 160.8,186.1 160.9,186.1 161.1,186.1 161.3,186.1 161.5,186.1 161.7,186.1 161.9,186.1 162.1,186.1 162.3,186.1 162.4,186.1 162.6,186.1 162.8,186.1 163.0,186.1 163.2,186.1 163.4,186.1 163.6,186.1 163.8,186.1 163.9,186.1 164.1,186.1 164.3,186.1 164.5,186.1 164.7,186.1 164.9,186.1 165.1,186.1 165.3,186.1 165.4,186.1 165.6,186.1 165.8,186.1 166.0,186.1 166.2,186.1 166.4,186.1 166.6,186.1 166.8,186.1 166.9,186.1 167.1,186.1 167.3,186.1 167.5,186.1 167.7,186.1 167.9,186.1 168.1,186.1 168.3,186.1 168.4,186.1 168.6,186.1 168.8,186.1 169.0,186.1 169.2,186.1 169.4,186.1 169.6,186.1 169.8,186.1 169.9,186.1 170.1,186.1 170.3,186.1 170.5,186.1 170.7,186.1 170.9,186.1 171.1,186.1 171.3,186.1 171.4,186.1 171.6,186.1 171.8,186.1 172.0,186.1 172.2,186.1 172.4,186.1 172.6,186.1 172.8,186.1 172.9,186.1 173.1,186.1 173.3,186.1 173.5,186.1 173.7,186.1 173.9,186.1 174.1,186.1 174.3,186.1 174.4,186.1 174.6,186.1 174.8,186.1 175.0,186.1 175.2,186.1 175.4,186.1 175.6,186.1 175.8,186.1 175.9,186.1 176.1,186.1 176.3,186.1 176.5,186.1 176.7,186.1 176.9,186.1 177.1,186.1 177.3,186.1 177.4,186.1 177.6,186.1 177.8,186.1 178.0,186.1 178.2,186.1 178.4,186.1 178.6,186.1 178.8,186.1 178.9,186.1 179.1,186.1 179.3,186.1 179.5,186.1 179.7,186.1 179.9,186.1 180.1,186.1 180.3,186.1 180.4,186.1 180.6,186.1 180.8,186.1 181.0,186.1 181.2,186.1 181.4,186.1 181.6,186.1 181.8,186.1 181.9,186.1 182.1,186.1 182.3,186.1 182.5,186.1 182.7,186.1 182.9,186.1 183.1,186.1 183.3,186.1 183.4,186.1 183.6,186.1 183.8,186.1 184.0,186.1 184.2,186.1 184.4,186.1 184.6,186.1 184.7,186.1 184.9,186.1 185.1,186.1 185.3,186.1 185.5,186.1 185.7,186.1 185.9,186.1 186.1,186.1 186.2,186.1 186.4,186.1 186.6,186.1 186.8,186.1 187.0,186.1 187.2,186.1 187.4,186.1 187.6,186.1 187.7,186.1 187.9,186.1 188.1,186.1 188.3,186.1 188.5,186.1 188.7,186.1 188.9,186.1 189.1,186.1 189.2,186.1 189.4,186.1 189.6,186.1 189.8,186.1 190.0,186.1 190.2,186.1 190.4,186.1 190.6,186.1 190.7,186.1 190.9,186.1 191.1,186.1 191.3,186.1 191.5,186.1 191.7,186.1 191.9,186.1 192.1,186.1 192.2,186.1 192.4,186.1 192.6,186.1 192.8,186.1 193.0,186.1 193.2,186.1 193.4,186.1 193.6,186.1 193.7,186.1 193.9,186.1 194.1,186.1 194.3,186.1 194.5,186.1 194.7,186.1 194.9,186.1 195.1,186.1 195.2,186.1 195.4,186.1 195.6,186.1 195.8,186.1 196.0,186.1 196.2,186.1 196.4,186.1 196.6,186.1 196.7,186.1 196.9,186.1 197.1,186.1 197.3,186.1 197.5,186.1 197.7,186.1 197.9,186.1 198.1,186.1 198.2,186.1 198.4,186.1 198.6,186.1 198.8,186.1 199.0,186.1 199.2,186.1 199.4,186.1 199.6,186.1 199.7,186.1 199.9,186.1 200.1,186.1 200.3,186.1 200.5,186.1 200.7,186.1 200.9,186.1 201.1,186.1 201.2,186.1 201.4,186.1 201.6,186.1 201.8,186.1 202.0,186.1 202.2,171.3 202.4,171.3 202.6,171.3 202.7,171.3 202.9,171.3 203.1,171.3 203.3,171.3 203.5,171.3 203.7,171.3 203.9,171.3 204.1,171.3 204.2,171.3 204.4,171.3 204.6,171.3 204.8,171.3 205.0,171.3 205.2,171.3 205.4,171.3 205.6,171.3 205.7,171.3 205.9,171.3 206.1,171.3 206.3,171.3 206.5,171.3 206.7,171.3 206.9,171.3 207.1,171.3 207.2,171.3 207.4,171.3 207.6,171.3 207.8,171.3 208.0,186.8 208.2,186.8 208.4,186.8 208.6,186.8 208.7,186.8 208.9,186.8 209.1,186.8 209.3,186.8 209.5,185.4 209.7,185.4 209.9,185.4 210.0,185.4 210.2,185.4 210.4,185.4 210.6,185.4 210.8,185.4 211.0,185.4 211.2,185.4 211.4,185.4 211.5,185.4 211.7,185.4 211.9,185.4 212.1,185.4 212.3,185.4 212.5,184.7 212.7,184.7 212.9,184.7 213.0,184.7 213.2,184.7 213.4,184.7 213.6,184.7 213.8,184.7 214.0,184.7 214.2,184.7 214.4,184.0 214.5,184.0 214.7,184.0 214.9,184.0 215.1,184.0 215.3,184.0 215.5,184.0 215.7,184.0 215.9,184.0 216.0,184.0 216.2,184.0 216.4,184.0 216.6,184.0 216.8,184.0 217.0,184.0 217.2,184.0 217.4,184.0 217.5,184.0 217.7,184.0 217.9,184.0 218.1,184.0 218.3,184.0 218.5,184.0 218.7,184.0 218.9,184.0 219.0,184.0 219.2,184.0 219.4,184.0 219.6,184.0 219.8,184.0 220.0,184.0 220.2,184.0 220.4,184.0 220.5,184.0 220.7,184.0 220.9,184.0 221.1,184.0 221.3,184.0 221.5,184.0 221.7,184.0 221.9,184.0 222.0,184.0 222.2,184.0 222.4,184.0 222.6,184.0 222.8,184.0 223.0,184.0 223.2,184.0 223.4,184.0 223.5,184.0 223.7,184.0 223.9,184.0 224.1,184.0 224.3,184.0 224.5,184.0 224.7,184.0 224.9,184.0 225.0,184.0 225.2,184.0 225.4,184.0 225.6,184.0 225.8,184.0 226.0,184.0 226.2,184.0 226.4,184.0 226.5,184.0 226.7,184.0 226.9,184.0 227.1,184.0 227.3,184.0 227.5,184.0 227.7,184.0 227.9,184.0 228.0,184.0 228.2,184.0 228.4,179.6 228.6,179.6 228.8,179.6 229.0,181.2 229.2,181.2 229.4,181.2 229.5,181.2 229.7,181.2 229.9,181.2 230.1,179.8 230.3,179.8 230.5,179.8 230.7,179.8 230.9,179.8 231.0,179.8 231.2,179.8 231.4,179.8 231.6,179.8 231.8,179.8 232.0,179.8 232.2,179.8 232.4,179.8 232.5,179.8 232.7,179.8 232.9,179.8 233.1,179.8 233.3,179.8 233.5,179.8 233.7,179.8 233.9,179.8 234.0,179.8 234.2,179.8 234.4,179.8 234.6,179.8 234.8,179.8 235.0,179.8 235.2,179.8 235.3,179.8 235.5,179.8 235.7,179.8 235.9,179.8 236.1,179.8 236.3,179.8 236.5,179.8 236.7,179.8 236.8,179.8 237.0,179.8 237.2,179.8 237.4,179.8 237.6,179.8 237.8,179.8 238.0,179.8 238.2,179.8 238.3,179.8 238.5,179.8 238.7,179.8 238.9,179.8 239.1,179.8 239.3,179.8 239.5,179.8 239.7,179.8 239.8,179.8 240.0,179.8 240.2,179.8 240.4,179.8 240.6,179.8 240.8,179.8 241.0,179.8 241.2,179.8 241.3,179.8 241.5,179.8 241.7,179.8 241.9,179.8 242.1,179.8 242.3,179.8 242.5,179.8 242.7,179.8 242.8,179.8 243.0,179.8 243.2,179.8 243.4,179.8 243.6,179.8 243.8,179.8 244.0,179.8 244.2,179.8 244.3,179.8 244.5,179.8 244.7,179.8 244.9,179.8 245.1,179.8 245.3,179.8 245.5,179.8 245.7,179.8 245.8,179.8 246.0,179.8 246.2,189.6 246.4,189.6 246.6,188.9 246.8,188.9 247.0,188.9 247.2,188.9 247.3,188.9 247.5,188.9 247.7,188.9 247.9,188.9 248.1,188.9 248.3,188.9 248.5,188.9 248.7,188.9 248.8,188.9 249.0,188.9 249.2,188.9 249.4,188.9 249.6,188.9 249.8,188.9 250.0,188.9 250.2,188.9 250.3,188.9 250.5,188.9 250.7,188.9 250.9,188.9 251.1,188.9 251.3,188.9 251.5,188.9 251.7,188.9 251.8,188.9 252.0,188.9 252.2,188.9 252.4,188.9 252.6,188.9 252.8,188.9 253.0,188.9 253.2,188.9 253.3,188.9 253.5,188.9 253.7,188.9 253.9,188.9 254.1,188.9 254.3,188.9 254.5,188.9 254.7,188.9 254.8,188.9 255.0,188.9 255.2,188.9 255.4,188.9 255.6,188.9 255.8,188.9 256.0,188.9 256.2,188.9 256.3,188.9 256.5,188.9 256.7,188.9 256.9,188.9 257.1,188.9 257.3,188.9 257.5,188.9 257.7,188.9 257.8,188.9 258.0,188.9 258.2,188.9 258.4,188.9 258.6,188.9 258.8,188.9 259.0,188.9 259.2,188.9 259.3,188.9 259.5,188.9 259.7,188.9 259.9,188.9 260.1,188.9 260.3,188.9 260.5,188.9 260.7,207.2 260.8,207.7 261.0,207.7 261.2,207.7 261.4,207.7 261.6,207.7 261.8,207.7 262.0,207.7 262.1,207.7 262.3,207.7 262.5,220.5 262.7,220.5 262.9,220.5 263.1,220.5 263.3,221.9 263.5,223.3 263.6,224.0 263.8,224.0 264.0,224.0 264.2,224.0 264.4,224.0 264.6,224.0 264.8,224.0 265.0,224.0 265.1,224.0 265.3,224.0 265.5,224.0 265.7,224.0 265.9,224.0 266.1,224.0 266.3,224.0 266.5,224.0 266.6,224.0 266.8,224.0 267.0,224.0 267.2,224.0 267.4,224.0 267.6,224.0 267.8,224.0 268.0,224.0 268.1,224.0 268.3,224.0 268.5,224.0 268.7,224.0 268.9,224.0 269.1,224.0 269.3,224.0 269.5,224.0 269.6,224.0 269.8,224.0 270.0,233.2 270.2,233.2 270.4,233.2 270.6,236.0 270.8,236.0 271.0,236.0 271.1,236.0 271.3,236.0 271.5,236.0 271.7,236.0 271.9,236.0 272.1,236.0 272.3,236.0 272.5,236.0 272.6,236.0 272.8,236.0 273.0,236.0 273.2,236.0 273.4,236.0 273.6,236.0 273.8,236.0 274.0,236.0 274.1,236.0 274.3,236.0 274.5,236.0 274.7,236.0 274.9,236.0 275.1,236.0 275.3,236.0 275.5,236.0 275.6,236.0 275.8,236.0 276.0,236.0 276.2,236.0 276.4,237.4 276.6,237.4 276.8,237.4 277.0,237.4 277.1,237.4 277.3,237.4 277.5,237.4 277.7,237.4 277.9,237.4 278.1,246.5 278.3,246.5 278.5,246.5 278.6,246.5 278.8,246.5 279.0,246.5 279.2,246.5 279.4,246.5 279.6,246.5 279.8,246.5 280.0,246.5 280.1,246.5 280.3,246.5 280.5,246.5 280.7,246.5 280.9,246.5 281.1,246.5 281.3,246.5 281.5,246.5 281.6,250.7 281.8,250.7 282.0,250.7 282.2,250.7 282.4,250.7 282.6,250.7 282.8,250.7 283.0,250.7 283.1,250.7 283.3,250.7 283.5,250.7 283.7,250.7 283.9,250.7 284.1,245.8 284.3,245.8 284.5,245.8 284.6,245.8 284.8,245.8 285.0,245.8 285.2,252.2 285.4,252.2 285.6,252.2 285.8,283.7 286.0,283.7 286.1,283.7 286.3,283.7 286.5,262.0 286.7,262.0 286.9,262.0 287.1,262.0 287.3,252.8 287.4,252.8 287.6,262.0 287.8,255.6 288.0,255.6 288.2,255.6 288.4,255.6 288.6,255.6 288.8,255.6 288.9,255.6 289.1,255.6 289.3,262.0 289.5,262.0 289.7,262.0 289.9,262.0 290.1,262.7 290.3,262.7 290.4,262.7 290.6,262.7 290.8,262.7 291.0,262.7 291.2,262.7 291.4,262.7 291.6,262.7 291.8,262.7 291.9,262.7 292.1,262.7 292.3,262.7 292.5,262.7 292.7,262.7 292.9,262.7 293.1,262.7 293.3,262.7 293.4,262.7 293.6,262.7 293.8,262.7 294.0,262.7 294.2,262.7 294.4,262.7 294.6,262.7 294.8,262.7 294.9,262.7 295.1,262.7 295.3,262.7 295.5,262.7 295.7,262.7 295.9,262.7 296.1,262.7 296.3,262.7 296.4,262.7 296.6,262.7 296.8,262.7 297.0,262.7 297.2,262.7 297.4,262.7 297.6,262.7 297.8,262.7 297.9,262.7 298.1,278.1 298.3,278.1 298.5,278.1 298.7,278.1 298.9,278.1 299.1,278.1 299.3,278.1 299.4,278.1 299.6,278.1 299.8,278.1 300.0,278.1 300.2,278.1 300.4,278.1 300.6,278.1 300.8,278.1 300.9,278.1 301.1,278.1 301.3,278.1 301.5,278.1 301.7,277.4 301.9,277.4 302.1,278.1 302.3,278.1 302.4,278.1 302.6,277.3 302.8,277.3 303.0,277.3 303.2,277.3 303.4,277.3 303.6,277.3 303.8,277.3 303.9,277.3 304.1,277.3 304.3,277.3 304.5,277.3 304.7,277.3 304.9,277.3 305.1,277.3 305.3,277.3 305.4,277.3 305.6,277.3 305.8,277.3 306.0,277.3 306.2,277.3 306.4,277.3 306.6,277.3 306.8,277.3 306.9,277.3 307.1,277.3 307.3,277.3 307.5,277.3 307.7,277.3 307.9,277.3 308.1,277.3 308.3,276.7 308.4,276.7 308.6,276.7 308.8,276.7 309.0,284.4 309.2,284.4 309.4,284.4 309.6,284.4 309.8,284.4 309.9,284.4 310.1,284.4 310.3,286.6 310.5,290.1 310.7,290.1 310.9,289.1 311.1,289.1 311.3,289.1 311.4,289.1 311.6,287.1 311.8,287.1 312.0,287.1 312.2,287.1 312.4,287.1 312.6,287.1 312.7,287.1 312.9,287.1 313.1,287.1 313.3,287.1 313.5,287.1 313.7,287.1 313.9,287.1 314.1,287.1 314.2,287.1 314.4,287.1 314.6,287.1 314.8,287.1 315.0,287.1 315.2,287.1 315.4,287.1 315.6,287.1 315.7,287.1 315.9,287.1 316.1,287.1 316.3,287.1 316.5,287.1 316.7,287.1 316.9,287.1 317.1,287.3 317.2,287.3 317.4,287.3 317.6,287.3 317.8,287.3 318.0,287.3 318.2,287.3 318.4,287.3 318.6,287.3 318.7,287.3 318.9,287.3 319.1,287.3 319.3,287.3 319.5,287.3 319.7,287.3 319.9,287.3 320.1,287.3 320.2,287.3 320.4,287.3 320.6,287.3 320.8,287.3 321.0,287.3 321.2,287.3 321.4,287.3 321.6,287.3 321.7,287.3 321.9,287.3 322.1,287.3 322.3,287.3 322.5,287.3 322.7,287.3 322.9,287.3 323.1,287.3 323.2,287.3 323.4,287.3 323.6,287.3 323.8,287.3 324.0,287.3 324.2,287.3 324.4,287.3 324.6,287.3 324.7,287.3 324.9,287.3 325.1,273.9 325.3,273.9 325.5,273.9 325.7,273.9 325.9,273.9 326.1,273.9 326.2,273.9 326.4,273.9 326.6,273.9 326.8,273.9 327.0,273.9 327.2,273.9 327.4,273.9 327.6,273.9 327.7,273.9 327.9,276.7 328.1,276.7 328.3,276.7 328.5,276.7 328.7,276.7 328.9,276.7 329.1,276.7 329.2,276.7 329.4,276.7 329.6,276.7 329.8,276.7 330.0,276.7 330.2,276.7 330.4,276.7 330.6,276.7 330.7,276.7 330.9,276.7 331.1,276.7 331.3,276.7 331.5,276.7 331.7,276.7 331.9,276.7 332.1,276.7 332.2,276.7 332.4,276.7 332.6,276.7 332.8,276.7 333.0,276.7 333.2,276.7 333.4,276.7 333.6,276.7 333.7,276.7 333.9,276.7 334.1,276.7 334.3,276.7 334.5,276.7 334.7,276.7 334.9,276.7 335.1,276.7 335.2,276.7 335.4,276.7 335.6,276.7 335.8,276.7 336.0,276.7 336.2,276.7 336.4,276.7 336.6,276.7 336.7,276.7 336.9,276.7 337.1,276.7 337.3,276.7 337.5,276.7 337.7,276.7 337.9,276.7 338.0,276.7 338.2,276.7 338.4,276.7 338.6,276.7 338.8,276.7 339.0,276.7 339.2,276.7 339.4,276.7 339.5,276.7 339.7,262.7 339.9,262.7 340.1,262.7 340.3,262.7 340.5,262.7 340.7,262.7 340.9,262.7 341.0,262.7 341.2,262.7 341.4,262.7 341.6,262.7 341.8,262.7 342.0,262.7 342.2,262.7 342.4,262.7 342.5,262.7 342.7,262.7 342.9,262.7 343.1,262.7 343.3,262.7 343.5,262.7 343.7,262.7 343.9,262.7 344.0,262.7 344.2,262.7 344.4,262.7 344.6,262.7 344.8,262.7 345.0,262.7 345.2,262.7 345.4,262.7 345.5,262.7 345.7,262.7 345.9,262.7 346.1,262.7 346.3,262.7 346.5,262.7 346.7,262.7 346.9,262.7 347.0,262.7 347.2,262.7 347.4,262.7 347.6,262.7 347.8,262.7 348.0,262.7 348.2,262.7 348.4,262.7 348.5,262.7 348.7,262.7 348.9,262.7 349.1,262.7 349.3,262.7 349.5,262.7 349.7,262.7 349.9,276.7 350.0,276.7 350.2,276.7 350.4,276.7 350.6,276.7 350.8,276.7 351.0,276.7 351.2,276.7 351.4,276.7 351.5,276.7 351.7,276.7 351.9,276.7 352.1,276.7 352.3,276.7 352.5,276.7 352.7,276.7 352.9,276.7 353.0,276.7 353.2,276.7 353.4,276.7 353.6,276.7 353.8,276.7 354.0,276.7 354.2,276.7 354.4,276.7 354.5,276.7 354.7,276.7 354.9,276.7 355.1,276.7 355.3,276.7 355.5,276.7 355.7,276.7 355.9,276.7 356.0,276.7 356.2,276.7 356.4,276.7 356.6,276.7 356.8,276.7 357.0,276.7 357.2,276.7 357.4,276.7 357.5,276.7 357.7,276.7 357.9,276.7 358.1,276.7 358.3,276.7 358.5,276.7 358.7,276.7 358.9,276.7 359.0,276.7 359.2,276.7 359.4,276.7 359.6,276.7 359.8,276.7 360.0,276.7 360.2,276.7 360.4,276.7 360.5,276.7 360.7,276.7 360.9,276.7 361.1,276.7 361.3,276.7 361.5,276.7 361.7,276.7 361.9,276.7 362.0,276.7 362.2,276.7 362.4,276.7 362.6,276.7 362.8,276.7 363.0,276.7 363.2,276.7 363.3,276.7 363.5,276.7 363.7,276.7 363.9,276.7 364.1,276.7 364.3,276.7 364.5,276.7 364.7,276.7 364.8,276.7 365.0,276.7 365.2,276.7 365.4,276.7 365.6,276.7 365.8,276.7 366.0,276.7 366.2,276.7 366.3,276.7 366.5,276.7 366.7,276.7 366.9,276.7 367.1,276.7 367.3,276.7 367.5,276.7 367.7,276.7 367.8,245.1 368.0,245.1 368.2,245.1 368.4,245.1 368.6,245.1 368.8,245.1 369.0,245.1 369.2,245.1 369.3,245.1 369.5,245.1 369.7,245.1 369.9,245.1 370.1,245.1 370.3,245.1 370.5,245.1 370.7,245.1 370.8,245.1 371.0,245.1 371.2,245.1 371.4,245.1 371.6,245.1 371.8,245.1 372.0,245.1 372.2,245.1 372.3,245.1 372.5,245.1 372.7,245.1 372.9,245.1 373.1,245.1 373.3,245.1 373.5,245.1 373.7,245.1 373.8,245.1 374.0,245.1 374.2,245.1 374.4,245.1 374.6,245.1 374.8,245.1 375.0,248.6 375.2,245.1 375.3,248.6 375.5,248.6 375.7,248.6 375.9,248.6 376.1,248.6 376.3,248.6 376.5,248.6 376.7,248.6 376.8,248.6 377.0,248.6 377.2,248.6 377.4,248.6 377.6,248.6 377.8,248.6 378.0,248.6 378.2,248.6 378.3,248.6 378.5,249.3 378.7,249.3 378.9,249.3 379.1,249.3 379.3,249.3 379.5,249.3 379.7,249.3 379.8,248.6 380.0,248.6 380.2,248.6 380.4,248.6 380.6,248.6 380.8,248.6 381.0,248.6 381.2,248.6 381.3,248.6 381.5,248.6 381.7,248.6 381.9,248.6 382.1,248.6 382.3,248.6 382.5,248.6 382.7,248.6 382.8,248.6 383.0,248.6 383.2,248.6 383.4,248.6 383.6,248.6 383.8,248.6 384.0,248.6 384.2,248.6 384.3,276.4 384.5,276.4 384.7,276.4 384.9,276.4 385.1,276.4 385.3,276.4 385.5,276.4 385.7,276.4 385.8,276.4 386.0,276.4 386.2,276.4 386.4,276.4 386.6,276.4 386.8,276.4 387.0,276.4 387.2,276.4 387.3,276.4 387.5,276.4 387.7,276.4 387.9,276.4 388.1,276.4 388.3,276.4 388.5,276.4 388.7,276.4 388.8,276.4 389.0,276.4 389.2,276.4 389.4,276.4 389.6,276.4 389.8,276.4 390.0,276.4 390.1,276.4 390.3,276.4 390.5,276.4 390.7,276.4 390.9,276.4 391.1,276.4 391.3,234.6 391.5,234.6 391.6,234.6 391.8,234.6 392.0,234.6 392.2,234.6 392.4,234.6 392.6,234.6 392.8,234.6 393.0,234.6 393.1,234.6 393.3,234.6 393.5,234.6 393.7,234.6 393.9,234.6 394.1,234.6 394.3,234.6 394.5,234.6 394.6,234.6 394.8,234.6 395.0,234.6 395.2,234.6 395.4,234.6 395.6,234.6 395.8,234.6 396.0,234.6 396.1,234.6 396.3,234.6 396.5,234.6 396.7,234.6 396.9,248.6 397.1,248.6 397.3,248.6 397.5,248.6 397.6,248.6 397.8,248.6 398.0,248.6 398.2,248.6 398.4,248.6 398.6,248.6 398.8,248.6 399.0,248.6 399.1,248.6 399.3,248.6 399.5,248.6 399.7,248.6 399.9,248.6 400.1,248.6 400.3,248.6 400.5,248.6 400.6,248.6 400.8,248.6 401.0,248.6 401.2,248.6 401.4,248.6 401.6,248.6 401.8,248.6 402.0,248.6 402.1,248.6 402.3,248.6 402.5,248.6 402.7,262.7 402.9,262.7 403.1,262.7 403.3,262.7 403.5,262.7 403.6,262.7 403.8,262.7 404.0,262.7 404.2,262.7 404.4,262.7 404.6,262.7 404.8,262.7 405.0,262.7 405.1,262.7 405.3,262.7 405.5,262.7 405.7,262.7 405.9,262.7 406.1,262.7 406.3,262.7 406.5,262.7 406.6,262.7 406.8,262.7 407.0,262.7 407.2,262.7 407.4,262.7 407.6,262.7 407.8,262.7 408.0,262.7 408.1,262.7 408.3,262.7 408.5,262.7 408.7,262.7 408.9,262.7 409.1,262.7 409.3,262.7 409.5,262.7 409.6,262.7 409.8,262.7 410.0,262.7 410.2,262.7 410.4,262.7 410.6,262.7 410.8,262.7 411.0,262.7 411.1,262.7 411.3,262.7 411.5,262.7 411.7,262.7 411.9,262.7 412.1,262.7 412.3,262.7 412.5,262.7 412.6,262.7 412.8,262.7 413.0,262.7 413.2,262.7 413.4,262.7 413.6,262.7 413.8,262.7 414.0,262.7 414.1,262.7 414.3,262.7 414.5,262.7 414.7,262.7 414.9,262.7 415.1,262.7 415.3,262.7 415.4,262.7 415.6,262.7 415.8,262.7 416.0,262.7 416.2,262.7 416.4,262.7 416.6,262.7 416.8,262.7 416.9,262.7 417.1,262.7 417.3,262.7 417.5,262.7 417.7,262.7 417.9,262.7 418.1,262.7 418.3,262.7 418.4,262.7 418.6,262.7 418.8,262.7 419.0,262.7 419.2,262.7 419.4,262.7 419.6,262.7 419.8,262.7 419.9,262.7 420.1,262.7 420.3,262.7 420.5,262.7 420.7,262.7 420.9,262.7 421.1,262.7 421.3,262.7 421.4,262.7 421.6,262.7 421.8,262.7 422.0,262.7 422.2,262.7 422.4,262.7 422.6,262.7 422.8,262.7 422.9,262.7 423.1,262.7 423.3,262.7 423.5,262.7 423.7,262.7 423.9,262.7 424.1,262.7 424.3,262.7 424.4,262.7 424.6,262.7 424.8,248.6 425.0,283.7 425.2,283.7 425.4,283.7 425.6,283.7 425.8,283.7 425.9,283.7 426.1,283.7 426.3,283.7 426.5,283.7 426.7,283.7 426.9,283.7 427.1,283.7 427.3,262.7 427.4,262.7 427.6,262.7 427.8,262.7 428.0,262.7 428.2,262.7 428.4,262.7 428.6,262.7 428.8,262.7 428.9,262.7 429.1,262.7 429.3,262.7 429.5,262.7 429.7,262.7 429.9,262.7 430.1,262.7 430.3,262.7 430.4,262.7 430.6,262.7 430.8,262.7 431.0,262.7 431.2,262.7 431.4,262.7 431.6,262.7 431.8,262.7 431.9,262.7 432.1,260.6 432.3,260.6 432.5,260.6 432.7,260.6 432.9,260.6 433.1,260.6 433.3,260.6 433.4,260.6 433.6,260.6 433.8,260.6 434.0,260.6 434.2,260.6 434.4,260.6 434.6,260.6 434.8,260.6 434.9,260.6 435.1,260.6 435.3,260.6 435.5,260.6 435.7,260.6 435.9,260.6 436.1,260.6 436.3,260.6 436.4,260.6 436.6,260.6 436.8,260.6 437.0,260.6 437.2,260.6 437.4,260.6 437.6,260.6 437.8,260.6 437.9,260.6 438.1,260.6 438.3,260.6 438.5,260.6 438.7,260.6 438.9,260.6 439.1,260.6 439.3,260.6 439.4,260.6 439.6,259.2 439.8,259.2 440.0,259.2 440.2,259.2 440.4,259.2 440.6,259.2 440.7,259.2 440.9,259.2 441.1,259.2 441.3,259.2 441.5,259.2 441.7,259.2 441.9,259.2 442.1,259.2 442.2,259.2 442.4,259.2 442.6,259.2 442.8,259.2 443.0,259.2 443.2,259.2 443.4,259.2 443.6,259.2 443.7,259.2 443.9,259.2 444.1,259.2 444.3,259.2 444.5,259.2 444.7,259.2 444.9,259.2 445.1,259.2 445.2,259.2 445.4,259.2 445.6,259.2 445.8,259.2 446.0,259.2 446.2,259.2 446.4,259.2 446.6,259.2 446.7,259.2 446.9,259.2 447.1,259.2 447.3,259.2 447.5,259.2 447.7,259.2 447.9,259.2 448.1,259.2 448.2,259.2 448.4,259.2 448.6,259.2 448.8,259.2 449.0,259.2 449.2,259.2 449.4,259.2 449.6,259.2 449.7,259.2 449.9,259.2 450.1,259.2 450.3,259.2 450.5,259.2 450.7,259.2 450.9,259.2 451.1,259.2 451.2,259.2 451.4,259.2 451.6,259.2 451.8,259.2 452.0,259.2 452.2,259.2 452.4,259.2 452.6,259.2 452.7,259.2 452.9,259.2 453.1,259.2 453.3,259.2 453.5,259.2 453.7,259.2 453.9,259.2 454.1,259.2 454.2,259.2 454.4,259.2 454.6,259.2 454.8,259.2 455.0,259.2 455.2,259.2 455.4,252.1 455.6,252.1 455.7,252.1 455.9,252.1 456.1,250.0 456.3,250.0 456.5,250.0 456.7,250.0 456.9,250.0 457.1,250.0 457.2,250.0 457.4,250.0 457.6,255.6 457.8,255.6 458.0,255.6 458.2,255.6 458.4,255.6 458.6,255.6 458.7,255.6 458.9,250.0 459.1,250.0 459.3,250.0 459.5,250.0 459.7,250.7 459.9,250.7 460.1,250.7 460.2,250.7 460.4,250.7 460.6,250.7 460.8,248.6 461.0,248.6 461.2,248.6 461.4,248.6 461.6,248.6 461.7,248.6 461.9,248.6 462.1,248.6 462.3,248.6 462.5,248.6 462.7,248.6 462.9,248.6 463.1,248.6 463.2,248.6 463.4,248.6 463.6,248.6 463.8,248.6 464.0,248.6 464.2,248.6 464.4,248.6 464.6,248.6 464.7,248.6 464.9,248.6 465.1,248.6 465.3,248.6 465.5,248.6 465.7,250.7 465.9,250.7 466.0,250.7 466.2,250.7 466.4,248.6 466.6,248.6 466.8,248.6 467.0,266.9 467.2,266.9 467.4,266.9 467.5,266.9 467.7,266.9 467.9,266.9 468.1,266.9 468.3,266.9 468.5,266.9 468.7,266.9 468.9,266.9 469.0,266.9 469.2,266.9 469.4,266.9 469.6,266.9 469.8,266.9 470.0,266.9 470.2,252.8 470.4,252.1 470.5,252.1 470.7,252.1 470.9,252.1 471.1,252.1 471.3,252.1 471.5,252.1 471.7,252.1 471.9,252.1 472.0,252.1 472.2,252.1 472.4,252.1 472.6,252.1 472.8,252.1 473.0,252.1 473.2,261.5 473.4,261.5 473.5,255.6 473.7,255.6 473.9,255.6 474.1,258.3 474.3,258.3 474.5,258.3 474.7,258.3 474.9,258.3 475.0,227.5 475.2,227.5 475.4,227.5 475.6,241.6 475.8,241.6 476.0,241.6 476.2,241.4 476.4,241.4 476.5,241.4 476.7,241.4 476.9,241.4 477.1,241.4 477.3,241.4 477.5,241.4 477.7,241.4 477.9,241.4 478.0,241.4 478.2,241.4 478.4,241.4 478.6,241.4 478.8,241.4 479.0,241.4 479.2,241.4 479.4,241.4 479.5,221.9 479.7,206.5 479.9,206.5 480.1,206.5 480.3,206.5 480.5,206.5 480.7,206.5 480.9,206.5 481.0,206.5 481.2,206.5 481.4,206.5 481.6,206.5 481.8,206.5 482.0,206.5 482.2,206.5 482.4,206.5 482.5,206.5 482.7,206.5 482.9,220.5 483.1,220.5 483.3,220.5 483.5,220.5 483.7,220.5 483.9,220.5 484.0,220.5 484.2,220.5 484.4,220.5 484.6,220.5 484.8,220.5 485.0,220.5 485.2,220.5 485.4,220.5 485.5,220.5 485.7,220.5 485.9,220.5 486.1,220.5 486.3,220.5 486.5,220.5 486.7,220.5 486.9,220.5 487.0,220.5 487.2,220.5 487.4,220.5 487.6,220.5 487.8,220.5 488.0,220.5 488.2,220.5 488.4,220.5 488.5,220.5 488.7,220.5 488.9,220.5 489.1,220.5 489.3,220.5 489.5,220.5 489.7,220.5 489.9,220.5 490.0,220.5 490.2,220.5 490.4,220.5 490.6,220.5 490.8,220.5 491.0,220.5 491.2,220.5 491.3,220.5 491.5,227.5 491.7,227.5 491.9,227.5 492.1,227.5 492.3,227.5 492.5,227.5 492.7,227.5 492.8,227.5 493.0,227.5 493.2,227.5 493.4,227.5 493.6,227.5 493.8,227.5 494.0,227.5 494.2,227.5 494.3,227.5 494.5,227.5 494.7,227.5 494.9,227.5 495.1,227.5 495.3,227.5 495.5,227.5 495.7,227.5 495.8,227.5 496.0,227.5 496.2,227.5 496.4,227.5 496.6,227.5 496.8,227.5 497.0,227.5 497.2,227.5 497.3,227.5 497.5,227.5 497.7,227.5 497.9,227.5 498.1,227.5 498.3,227.5 498.5,227.5 498.7,227.5 498.8,227.5 499.0,227.5 499.2,227.5 499.4,227.5 499.6,227.5 499.8,227.5 500.0,227.5 500.2,227.5 500.3,227.5 500.5,227.5 500.7,227.5 500.9,227.5 501.1,227.5 501.3,227.5 501.5,227.5 501.7,227.5 501.8,227.5 502.0,227.5 502.2,227.5 502.4,227.5 502.6,227.5 502.8,227.5 503.0,227.5 503.2,227.5 503.3,220.5 503.5,220.5 503.7,220.5 503.9,220.5 504.1,220.5 504.3,220.5 504.5,220.5 504.7,220.5 504.8,220.5 505.0,220.5 505.2,220.5 505.4,220.5 505.6,220.5 505.8,220.5 506.0,220.5 506.2,220.5 506.3,220.5 506.5,220.5 506.7,220.5 506.9,220.5 507.1,220.5 507.3,220.5 507.5,220.5 507.7,220.5 507.8,220.5 508.0,220.5 508.2,220.5 508.4,220.5 508.6,220.5 508.8,220.5 509.0,220.5 509.2,220.5 509.3,220.5 509.5,220.5 509.7,220.5 509.9,220.5 510.1,220.5 510.3,220.5 510.5,220.5 510.7,220.5 510.8,220.5 511.0,220.5 511.2,220.5 511.4,220.5 511.6,220.5 511.8,220.5 512.0,220.5 512.2,220.5 512.3,220.5 512.5,220.5 512.7,220.5 512.9,220.5 513.1,220.5 513.3,220.5 513.5,220.5 513.7,220.5 513.8,220.5 514.0,220.5 514.2,220.5 514.4,220.5 514.6,206.3 514.8,206.3 515.0,206.3 515.2,206.3 515.3,206.3 515.5,206.3 515.7,206.3 515.9,206.3 516.1,206.3 516.3,206.3 516.5,206.3 516.7,206.3 516.8,206.3 517.0,206.3 517.2,206.3 517.4,206.3 517.6,206.3 517.8,206.3 518.0,206.3 518.1,206.3 518.3,206.3 518.5,206.3 518.7,206.3 518.9,206.3 519.1,206.3 519.3,205.6 519.5,205.6 519.6,205.6 519.8,205.6 520.0,205.6 520.2,205.6 520.4,205.6 520.6,205.6 520.8,205.6 521.0,205.6 521.1,205.6 521.3,205.0 521.5,205.0 521.7,205.0 521.9,205.0 522.1,205.0 522.3,205.0 522.5,205.0 522.6,205.0 522.8,205.0 523.0,205.0 523.2,205.0 523.4,205.8 523.6,205.8 523.8,205.8 524.0,205.8 524.1,205.8 524.3,205.8 524.5,205.8 524.7,205.8 524.9,205.8 525.1,205.8 525.3,205.8 525.5,205.8 525.6,205.8 525.8,205.8 526.0,205.8 526.2,205.8 526.4,205.8 526.6,205.8 526.8,205.8 527.0,205.8 527.1,205.8 527.3,203.6 527.5,203.6 527.7,203.6 527.9,203.6 528.1,203.6 528.3,203.6 528.5,203.6 528.6,203.6 528.8,203.6 529.0,203.6 529.2,203.6 529.4,203.6 529.6,203.6 529.8,203.6 530.0,203.6 530.1,203.6 530.3,203.6 530.5,65.9 530.7,65.9 530.9,65.9 531.1,65.9 531.3,65.9 531.5,65.9 531.6,65.9 531.8,65.9 532.0,65.9 532.2,65.9 532.4,65.9 532.6,65.9 532.8,211.1 533.0,211.1 533.1,211.1 533.3,209.1 533.5,209.1 533.7,209.1 533.9,209.1 534.1,209.1 534.3,209.1 534.5,209.1 534.6,209.1 534.8,209.1 535.0,209.1 535.2,209.1 535.4,209.1 535.6,209.1 535.8,209.1 536.0,209.1 536.1,209.1 536.3,209.1 536.5,209.1 536.7,209.1 536.9,209.1 537.1,209.1 537.3,209.1 537.5,209.1 537.6,209.1 537.8,209.1 538.0,209.1 538.2,209.1 538.4,209.1 538.6,209.1 538.8,178.4 539.0,171.3 539.1,171.3 539.3,171.3 539.5,171.3 539.7,171.3 539.9,171.3 540.1,171.3 540.3,171.3 540.5,171.3 540.6,171.3 540.8,171.3 541.0,178.4 541.2,178.4 541.4,178.4 541.6,178.4 541.8,178.4 542.0,171.3 542.1,171.3 542.3,171.3 542.5,171.3 542.7,171.3 542.9,171.3 543.1,171.3 543.3,171.3 543.4,171.3 543.6,171.3 543.8,171.3 544.0,171.3 544.2,171.3 544.4,171.3 544.6,171.3 544.8,171.3 544.9,171.3 545.1,171.3 545.3,171.3 545.5,171.3 545.7,171.3 545.9,167.1 546.1,167.1 546.3,164.3 546.4,164.3 546.6,164.3 546.8,206.3 547.0,206.3 547.2,206.3 547.4,206.3 547.6,206.3 547.8,206.3 547.9,220.5 548.1,220.5 548.3,220.5 548.5,220.5 548.7,192.4 548.9,192.4 549.1,192.4 549.3,192.4 549.4,192.4 549.6,192.4 549.8,205.3 550.0,205.3 550.2,205.3 550.4,205.3 550.6,205.3 550.8,205.3 550.9,205.3 551.1,205.3 551.3,205.3 551.5,205.3 551.7,205.3 551.9,205.3 552.1,205.3 552.3,205.3 552.4,205.3 552.6,205.3 552.8,205.3 553.0,205.3 553.2,205.3 553.4,205.3 553.6,205.3 553.8,205.3 553.9,205.3 554.1,205.3 554.3,205.3 554.5,205.3 554.7,205.3 554.9,205.3 555.1,205.3 555.3,205.3 555.4,205.3 555.6,205.3 555.8,205.3 556.0,205.3 556.2,205.3 556.4,205.3 556.6,205.3 556.8,205.3 556.9,205.3 557.1,205.3 557.3,205.3 557.5,205.3 557.7,205.3 557.9,205.3 558.1,205.3 558.3,205.3 558.4,205.3 558.6,205.3 558.8,205.3 559.0,205.3 559.2,205.3 559.4,205.3 559.6,205.3 559.8,205.3 559.9,205.3 560.1,205.3 560.3,205.3 560.5,205.3 560.7,205.3 560.9,205.3 561.1,205.3 561.3,205.3 561.4,205.3 561.6,205.3 561.8,205.3 562.0,205.3 562.2,205.3 562.4,205.3 562.6,205.3 562.8,205.3 562.9,205.3 563.1,205.3 563.3,205.3 563.5,205.3 563.7,205.3 563.9,205.3 564.1,205.3 564.3,205.3 564.4,205.3 564.6,205.3 564.8,205.3 565.0,205.3 565.2,205.3 565.4,205.3 565.6,205.3 565.8,205.3 565.9,205.3 566.1,205.3 566.3,192.4 566.5,192.4 566.7,192.4 566.9,192.4 567.1,192.4 567.3,192.4 567.4,192.4 567.6,192.4 567.8,192.4 568.0,192.4 568.2,192.4 568.4,192.4 568.6,192.4 568.7,192.4 568.9,192.4 569.1,192.4 569.3,192.4 569.5,192.4 569.7,192.4 569.9,192.4 570.1,192.4 570.2,192.4 570.4,192.4 570.6,192.4 570.8,192.4 571.0,192.4 571.2,192.4 571.4,192.4 571.6,192.4 571.7,192.4 571.9,192.4 572.1,192.4 572.3,192.4 572.5,192.4 572.7,192.4 572.9,192.4 573.1,192.4 573.2,192.4 573.4,192.4 573.6,192.4 573.8,192.4 574.0,192.4 574.2,192.4 574.4,192.4 574.6,192.4 574.7,192.4 574.9,192.4 575.1,192.4 575.3,192.4 575.5,192.4 575.7,192.4 575.9,192.4 576.1,192.4 576.2,174.1 576.4,174.1 576.6,174.1 576.8,174.1 577.0,174.1 577.2,174.1 577.4,174.1 577.6,174.1 577.7,174.1 577.9,174.1 578.1,174.1 578.3,174.1 578.5,174.1 578.7,174.1 578.9,174.1 579.1,174.1 579.2,174.1 579.4,174.1 579.6,174.1 579.8,174.1 580.0,174.1 580.2,174.1 580.4,174.1 580.6,174.1 580.7,174.1 580.9,174.1 581.1,174.1 581.3,174.1 581.5,174.1 581.7,174.1 581.9,174.1 582.1,174.1 582.2,174.1 582.4,174.1 582.6,174.1 582.8,174.1 583.0,174.1 583.2,174.1 583.4,174.1 583.6,174.1 583.7,174.1 583.9,174.1 584.1,174.1 584.3,174.1 584.5,174.1 584.7,174.1 584.9,174.1 585.1,174.1 585.2,174.1 585.4,174.1 585.6,174.1 585.8,174.1 586.0,174.1 586.2,174.1 586.4,174.1 586.6,174.1 586.7,174.1 586.9,174.1 587.1,174.1 587.3,174.1 587.5,174.1 587.7,174.1 587.9,174.1 588.1,174.1 588.2,174.1 588.4,174.1 588.6,174.1 588.8,174.1 589.0,174.1 589.2,174.1 589.4,174.1 589.6,174.1 589.7,174.1 589.9,174.1 590.1,174.1 590.3,174.1 590.5,174.1 590.7,174.1 590.9,174.1 591.1,174.1 591.2,174.1 591.4,174.1 591.6,174.1 591.8,174.1 592.0,174.1 592.2,174.1 592.4,174.1 592.6,174.1 592.7,174.1 592.9,174.1 593.1,174.1 593.3,174.1 593.5,174.1 593.7,174.1 593.9,174.1 594.0,174.1 594.2,174.1 594.4,174.1 594.6,174.1 594.8,174.1 595.0,174.1 595.2,178.3 595.4,178.3 595.5,178.3 595.7,178.3 595.9,178.3 596.1,178.3 596.3,178.3 596.5,178.3 596.7,178.3 596.9,178.3 597.0,178.3 597.2,178.3 597.4,178.3 597.6,178.3 597.8,178.3 598.0,178.3 598.2,178.3 598.4,178.3 598.5,178.3 598.7,178.3 598.9,178.3 599.1,178.3 599.3,178.3 599.5,178.3 599.7,178.3 599.9,178.3 600.0,178.3 600.2,178.3 600.4,178.3 600.6,178.3 600.8,178.3 601.0,178.3 601.2,178.3 601.4,178.3 601.5,178.3 601.7,178.3 601.9,178.3 602.1,178.3 602.3,178.3 602.5,178.3 602.7,178.3 602.9,178.3 603.0,178.3 603.2,178.3 603.4,178.3 603.6,178.3 603.8,178.3 604.0,178.3 604.2,178.3 604.4,178.3 604.5,178.3 604.7,178.3 604.9,178.3 605.1,178.3 605.3,178.3 605.5,178.3 605.7,178.3 605.9,178.3 606.0,178.3 606.2,178.3 606.4,178.3 606.6,178.3 606.8,178.3 607.0,178.3 607.2,178.3 607.4,178.3 607.5,178.3 607.7,178.3 607.9,178.3 608.1,178.3 608.3,178.3 608.5,178.3 608.7,178.3 608.9,178.3 609.0,178.3 609.2,178.3 609.4,178.3 609.6,178.3 609.8,178.3 610.0,178.3 610.2,178.3 610.4,178.3 610.5,178.3 610.7,178.3 610.9,178.3 611.1,178.3 611.3,178.3 611.5,178.3 611.7,178.3 611.9,178.3 612.0,178.3 612.2,178.3 612.4,178.3 612.6,178.3 612.8,178.3 613.0,178.3 613.2,178.3 613.4,178.3 613.5,178.3 613.7,178.3 613.9,178.3 614.1,178.3 614.3,178.3 614.5,178.3 614.7,178.3 614.9,178.3 615.0,178.3 615.2,178.3 615.4,178.3 615.6,178.3 615.8,178.3 616.0,178.3 616.2,178.3 616.4,178.3 616.5,178.3 616.7,178.3 616.9,178.3 617.1,178.3 617.3,178.3 617.5,178.3 617.7,178.3 617.9,178.3 618.0,178.3 618.2,178.3 618.4,178.3 618.6,178.3 618.8,178.3 619.0,178.3 619.2,178.3 619.3,178.3 619.5,178.3 619.7,178.3 619.9,178.3 620.1,178.3 620.3,178.3 620.5,178.3 620.7,178.3 620.8,178.3 621.0,178.3 621.2,178.3 621.4,178.3 621.6,178.3 621.8,178.3 622.0,178.3 622.2,178.3 622.3,178.3 622.5,178.3 622.7,167.8 622.9,167.8 623.1,167.8 623.3,167.8 623.5,167.8 623.7,167.8 623.8,167.8 624.0,167.8 624.2,167.8 624.4,167.8 624.6,167.8 624.8,167.8 625.0,167.8 625.2,167.8 625.3,167.8 625.5,167.8 625.7,167.8 625.9,167.8 626.1,167.8 626.3,167.8 626.5,167.8 626.7,167.8 626.8,167.8 627.0,167.8 627.2,167.8 627.4,167.8 627.6,167.8 627.8,167.8 628.0,167.8 628.2,167.8 628.3,167.8 628.5,167.8 628.7,167.8 628.9,167.8 629.1,167.8 629.3,167.8 629.5,167.8 629.7,167.8 629.8,167.8 630.0,167.8 630.2,167.8 630.4,167.8 630.6,167.8 630.8,167.8 631.0,167.8 631.2,167.8 631.3,167.8 631.5,167.8 631.7,167.8 631.9,167.8 632.1,167.8 632.3,167.8 632.5,167.8 632.7,167.8 632.8,167.8 633.0,167.8 633.2,167.8 633.4,167.8 633.6,167.8 633.8,167.8 634.0,167.8 634.2,167.8 634.3,167.8 634.5,167.8 634.7,167.8 634.9,167.8 635.1,167.8 635.3,167.8 635.5,167.8 635.7,167.8 635.8,167.8 636.0,167.8 636.2,167.8 636.4,167.8 636.6,167.8 636.8,167.8 637.0,167.8 637.2,167.8 637.3,190.0 637.5,191.3 637.7,191.3 637.9,191.3 638.1,178.4 638.3,178.4 638.5,178.4 638.7,178.4 638.8,178.4 639.0,178.4 639.2,178.4 639.4,178.4 639.6,185.4 639.8,185.4 640.0,185.4 640.2,185.4 640.3,185.4 640.5,185.4 640.7,185.1 640.9,185.1 641.1,185.1 641.3,185.1 641.5,185.1 641.7,185.1 641.8,185.1 642.0,185.1 642.2,185.1 642.4,185.1 642.6,185.1 642.8,185.1 643.0,185.1 643.2,185.1 643.3,186.1 643.5,186.1 643.7,186.1 643.9,178.4 644.1,178.4 644.3,185.4 644.5,185.4 644.7,185.4 644.8,185.4 645.0,185.4 645.2,185.4 645.4,185.4 645.6,178.4 645.8,178.4 646.0,185.4 646.1,185.4 646.3,185.4 646.5,185.4 646.7,185.4 646.9,185.4 647.1,185.4 647.3,185.4 647.5,185.4 647.6,185.4 647.8,185.4 648.0,185.4 648.2,185.4 648.4,185.4 648.6,185.4 648.8,185.4 649.0,185.4 649.1,185.4 649.3,185.4 649.5,185.4 649.7,185.4 649.9,185.4 650.1,185.4 650.3,185.4 650.5,185.4 650.6,185.4 650.8,185.4 651.0,185.4 651.2,185.4 651.4,185.4 651.6,185.4 651.8,185.4 652.0,185.4 652.1,185.4 652.3,185.4 652.5,185.4 652.7,185.4 652.9,185.4 653.1,185.4 653.3,185.4 653.5,185.4 653.6,185.4 653.8,185.4 654.0,185.4 654.2,185.4 654.4,185.4 654.6,185.4 654.8,185.4 655.0,185.4 655.1,185.4 655.3,185.4 655.5,185.4 655.7,185.4 655.9,185.4 656.1,185.4 656.3,185.4 656.5,178.4 656.6,178.4 656.8,178.4 657.0,178.4 657.2,178.4 657.4,178.4 657.6,178.4 657.8,178.4 658.0,178.4 658.1,178.4 658.3,178.4 658.5,178.4 658.7,178.4 658.9,178.4 659.1,178.4 659.3,178.4 659.5,178.4 659.6,178.4 659.8,178.4 660.0,178.4 660.2,178.4 660.4,178.4 660.6,178.4 660.8,178.4 661.0,178.4 661.1,178.4 661.3,178.4 661.5,178.4 661.7,178.4 661.9,178.4 662.1,178.4 662.3,178.4 662.5,178.4 662.6,178.4 662.8,178.4 663.0,178.4 663.2,178.4 663.4,178.4 663.6,178.4 663.8,178.4 664.0,178.4 664.1,178.4 664.3,178.4 664.5,178.4 664.7,178.4 664.9,178.4 665.1,178.4 665.3,178.4 665.5,178.4 665.6,178.4 665.8,178.4 666.0,178.4 666.2,178.4 666.4,178.4 666.6,178.4 666.8,178.4 667.0,178.4 667.1,178.4 667.3,178.4 667.5,178.4 667.7,178.4 667.9,178.4 668.1,178.4 668.3,178.4 668.5,178.4 668.6,178.4 668.8,178.4 669.0,178.4 669.2,178.4 669.4,178.4 669.6,178.4 669.8,178.4 670.0,178.4 670.1,178.4 670.3,178.4 670.5,178.4 670.7,178.4 670.9,178.4 671.1,178.4 671.3,178.4 671.4,178.4 671.6,178.4 671.8,178.4 672.0,178.4 672.2,178.4 672.4,178.4 672.6,178.4 672.8,178.4 672.9,178.4 673.1,178.4 673.3,178.4 673.5,178.4 673.7,178.4 673.9,178.4 674.1,178.4 674.3,164.3 674.4,164.3 674.6,164.3 674.8,164.3 675.0,164.3 675.2,164.3 675.4,164.3 675.6,164.3 675.8,164.3 675.9,164.3 676.1,164.3 676.3,164.3 676.5,164.3 676.7,164.3 676.9,164.3 677.1,164.3 677.3,164.3 677.4,164.3 677.6,164.3 677.8,164.3 678.0,164.3 678.2,164.3 678.4,164.3 678.6,164.3 678.8,164.3 678.9,164.3 679.1,164.3 679.3,164.3 679.5,164.3 679.7,164.3 679.9,164.3 680.1,164.3 680.3,164.3 680.4,164.3 680.6,164.3 680.8,164.3 681.0,164.3 681.2,164.3 681.4,164.3 681.6,164.3 681.8,164.3 681.9,164.3 682.1,164.3 682.3,164.3 682.5,164.3 682.7,164.3 682.9,164.3 683.1,164.3 683.3,164.3 683.4,164.3 683.6,164.3 683.8,164.3 684.0,164.3 684.2,164.3 684.4,164.3 684.6,164.3 684.8,164.3 684.9,164.3 685.1,164.3 685.3,164.3 685.5,164.3 685.7,164.3 685.9,164.3 686.1,164.3 686.3,164.3 686.4,164.3 686.6,164.3 686.8,164.3 687.0,164.3 687.2,164.3 687.4,164.3 687.6,164.3 687.8,164.3 687.9,164.3 688.1,164.3 688.3,164.3 688.5,164.3 688.7,157.3 688.9,157.3 689.1,157.3 689.3,157.3 689.4,157.3 689.6,157.3 689.8,157.3 690.0,157.3 690.2,157.3 690.4,157.3 690.6,157.3 690.8,157.3 690.9,160.8 691.1,160.8 691.3,160.8 691.5,160.8 691.7,160.8 691.9,160.8 692.1,160.8 692.3,160.8 692.4,160.8 692.6,160.8 692.8,160.8 693.0,160.8 693.2,160.8 693.4,160.8 693.6,160.8 693.8,160.8 693.9,160.8 694.1,160.8 694.3,160.8 694.5,160.8 694.7,160.8 694.9,160.8 695.1,167.8 695.3,167.8 695.4,167.8 695.6,167.8 695.8,167.8 696.0,162.2"/>
  <text x="60" y="62" font-size="11" fill="#2563eb">Price index</text>
  <text x="146" y="62" font-size="11" fill="#16a34a">Total return (price + distributions)</text>
  <text x="56" y="348" font-size="11" text-anchor="middle" fill="#444">2012-11</text><text x="216" y="348" font-size="11" text-anchor="middle" fill="#444">2016-04</text><text x="376" y="348" font-size="11" text-anchor="middle" fill="#444">2019-08</text><text x="536" y="348" font-size="11" text-anchor="middle" fill="#444">2023-01</text><text x="696" y="348" font-size="11" text-anchor="middle" fill="#444">2026-06</text>
</svg>
