<svg xmlns="http://www.w3.org/2000/svg" width="720" height="360" viewBox="0 0 720 360">
  <rect width="720" height="360" fill="#fafafa"/>
  <text x="56" y="22" font-size="13" font-family="sans-serif" fill="#222">GCCO total return (rebased 100) · cumulative distributions $40.00/sh · market cap $44.8M</text>
  <line x1="56" y1="308" x2="696" y2="308" stroke="#ccc"/>
  <line x1="56" y1="48" x2="56" y2="308" stroke="#ccc"/>
  <polyline fill="none" stroke="#2563eb" stroke-width="2" points="56.0,218.9 59.9,194.0 63.9,186.9 67.8,194.0 71.7,194.0 75.6,194.0 79.6,194.0 83.5,194.0 87.4,194.0 91.3,194.0 95.3,194.0 99.2,194.0 103.1,194.0 107.0,194.0 111.0,194.0 114.9,194.0 118.8,185.5 122.7,185.5 126.7,179.8 130.6,194.0 134.5,194.0 138.5,193.0 142.4,192.6 146.3,192.6 150.2,192.6 154.2,190.9 158.1,187.6 162.0,187.6 165.9,187.6 169.9,187.6 173.8,187.6 177.7,187.6 181.6,187.6 185.6,187.6 189.5,187.6 193.4,187.6 197.3,187.6 201.3,172.7 205.2,172.7 209.1,186.9 213.1,185.5 217.0,185.5 220.9,185.5 224.8,185.5 228.8,181.2 232.7,181.2 236.6,181.2 240.5,181.2 244.5,190.5 248.4,190.5 252.3,190.5 256.2,190.5 260.2,222.5 264.1,226.0 268.0,238.1 272.0,238.1 275.9,248.8 279.8,253.1 283.7,264.5 287.7,265.2 291.6,265.2 295.5,280.8 299.4,280.8 303.4,280.0 307.3,287.2 311.2,289.9 315.1,290.1 319.1,290.1 323.0,276.6 326.9,279.4 330.8,279.4 334.8,279.4 338.7,265.2 342.6,265.2 346.6,265.2 350.5,279.4 354.4,279.4 358.3,279.4 362.3,279.4 366.2,247.4 370.1,247.4 374.0,250.9 378.0,250.9 381.9,279.1 385.8,279.1 389.7,236.7 393.7,236.7 397.6,250.9 401.5,265.2 405.4,265.2 409.4,265.2 413.3,265.2 417.2,265.2 421.2,265.2 425.1,265.2 429.0,263.0 432.9,263.0 436.9,261.6 440.8,261.6 444.7,261.6 448.6,261.6 452.6,254.5 456.5,252.4 460.4,250.9 464.3,269.4 468.3,254.5 472.2,229.6 476.1,243.7 480.0,222.5 484.0,222.5 487.9,222.5 491.8,229.6 495.8,229.6 499.7,229.6 503.6,222.5 507.5,222.5 511.5,222.5 515.4,208.1 519.3,206.8 523.2,207.5 527.2,65.9 531.1,210.9 535.0,210.9 538.9,179.8 542.9,168.4 546.8,194.0 550.7,207.1 554.7,207.1 558.6,207.1 562.5,207.1 566.4,194.0 570.4,194.0 574.3,175.5 578.2,175.5 582.1,175.5 586.1,175.5 590.0,175.5 593.9,179.8 597.8,179.8 601.8,179.8 605.7,179.8 609.6,179.8 613.5,179.8 617.5,179.8 621.4,169.1 625.3,169.1 629.3,169.1 633.2,169.1 637.1,186.9 641.0,187.6 645.0,186.9 648.9,186.9 652.8,186.9 656.7,179.8 660.7,179.8 664.6,179.8 668.5,179.8 672.4,165.5 676.4,165.5 680.3,165.5 684.2,165.5 688.1,158.4 692.1,162.0 696.0,169.1"/>
  <polyline fill="none" stroke="#16a34a" stroke-width="2" points="56.0,218.9 59.9,194.0 63.9,186.9 67.8,194.0 71.7,194.0 75.6,194.0 79.6,194.0 83.5,194.0 87.4,194.0 91.3,194.0 95.3,194.0 99.2,194.0 103.1,194.0 107.0,194.0 111.0,194.0 114.9,194.0 118.8,185.5 122.7,185.5 126.7,179.8 130.6,194.0 134.5,194.0 138.5,193.0 142.4,192.6 146.3,192.6 150.2,192.6 154.2,190.9 158.1,187.6 162.0,187.6 165.9,187.6 169.9,187.6 173.8,187.6 177.7,187.6 181.6,187.6 185.6,187.6 189.5,187.6 193.4,187.6 197.3,187.6 201.3,172.7 205.2,172.7 209.1,186.9 213.1,185.5 217.0,185.5 220.9,185.5 224.8,185.5 228.8,181.2 232.7,181.2 236.6,181.2 240.5,181.2 244.5,190.5 248.4,190.5 252.3,190.5 256.2,190.5 260.2,222.5 264.1,226.0 268.0,238.1 272.0,238.1 275.9,248.8 279.8,253.1 283.7,264.5 287.7,265.2 291.6,265.2 295.5,280.8 299.4,280.8 303.4,280.0 307.3,287.2 311.2,289.9 315.1,290.1 319.1,290.1 323.0,276.6 326.9,279.4 330.8,279.4 334.8,279.4 338.7,265.2 342.6,265.2 346.6,265.2 350.5,279.4 354.4,279.4 358.3,279.4 362.3,279.4 366.2,247.4 370.1,247.4 374.0,250.9 378.0,250.9 381.9,279.1 385.8,279.1 389.7,236.7 393.7,236.7 397.6,250.9 401.5,265.2 405.4,265.2 409.4,265.2 413.3,265.2 417.2,265.2 421.2,265.2 425.1,265.2 429.0,263.0 432.9,263.0 436.9,261.6 440.8,261.6 444.7,261.6 448.6,261.6 452.6,254.5 456.5,252.4 460.4,250.9 464.3,269.4 468.3,254.5 472.2,229.6 476.1,243.7 480.0,222.5 484.0,222.5 487.9,222.5 491.8,229.6 495.8,229.6 499.7,229.6 503.6,222.5 507.5,222.5 511.5,222.5 515.4,208.1 519.3,206.8 523.2,207.5 527.2,65.9 531.1,210.9 535.0,210.9 538.9,179.8 542.9,168.4 546.8,194.0 550.7,207.1 554.7,207.1 558.6,207.1 562.5,207.1 566.4,194.0 570.4,194.0 574.3,175.5 578.2,175.5 582.1,175.5 586.1,175.5 590.0,175.5 593.9,179.8 597.8,179.8 601.8,179.8 605.7,179.8 609.6,179.8 613.5,179.8 617.5,179.8 621.4,169.1 625.3,169.1 629.3,169.1 633.2,169.1 637.1,186.9 641.0,187.6 645.0,186.9 648.9,186.9 652.8,186.9 656.7,179.8 660.7,179.8 664.6,179.8 668.5,179.8 672.4,165.5 676.4,165.5 680.3,165.5 684.2,165.5 688.1,158.4 692.1,162.0 696.0,169.1"/>
  <text x="60" y="62" font-size="11" fill="#2563eb">Price index</text>
  <text x="146" y="62" font-size="11" fill="#16a34a">Total return (price + distributions)</text>
  <text x="56" y="348" font-size="11" text-anchor="middle" fill="#444">2012-11</text><text x="217" y="348" font-size="11" text-anchor="middle" fill="#444">2016-04</text><text x="378" y="348" font-size="11" text-anchor="middle" fill="#444">2019-09</text><text x="539" y="348" font-size="11" text-anchor="middle" fill="#444">2023-02</text><text x="696" y="348" font-size="11" text-anchor="middle" fill="#444">2026-06</text>
</svg>
