<svg xmlns="http://www.w3.org/2000/svg" width="720" height="360" viewBox="0 0 720 360">
  <rect width="720" height="360" fill="#fafafa"/>
  <text x="56" y="22" font-size="13" font-family="sans-serif" fill="#222">APTV total return (rebased 100) · cumulative distributions $0.00/sh · market cap n/a</text>
  <line x1="56" y1="308" x2="696" y2="308" stroke="#ccc"/>
  <line x1="56" y1="48" x2="56" y2="308" stroke="#ccc"/>
  <polyline fill="none" stroke="#2563eb" stroke-width="2" points="56.0,288.1 56.2,288.5 56.3,289.3 56.5,289.8 56.7,290.1 56.9,290.0 57.0,289.6 57.2,289.7 57.4,288.7 57.6,288.7 57.7,288.0 57.9,287.6 58.1,287.2 58.3,287.3 58.4,287.7 58.6,287.6 58.8,287.9 59.0,288.1 59.1,288.9 59.3,288.5 59.5,288.5 59.7,288.5 59.8,287.9 60.0,288.0 60.2,287.6 60.4,287.4 60.5,287.7 60.7,288.3 60.9,288.0 61.0,287.8 61.2,287.0 61.4,286.7 61.6,287.2 61.7,286.7 61.9,286.5 62.1,285.2 62.3,285.0 62.4,284.2 62.6,284.1 62.8,284.6 63.0,284.4 63.1,283.7 63.3,283.7 63.5,283.3 63.7,282.9 63.8,282.9 64.0,282.7 64.2,281.3 64.4,281.4 64.5,281.7 64.7,279.7 64.9,279.2 65.0,277.1 65.2,277.4 65.4,277.9 65.6,278.1 65.7,278.3 65.9,278.0 66.1,278.0 66.3,279.1 66.4,278.7 66.6,277.6 66.8,276.5 67.0,276.9 67.1,276.8 67.3,276.9 67.5,276.4 67.7,276.5 67.8,275.8 68.0,275.7 68.2,275.7 68.4,275.3 68.5,276.1 68.7,278.0 68.9,278.0 69.1,276.0 69.2,275.9 69.4,275.8 69.6,275.8 69.7,275.9 69.9,276.0 70.1,275.7 70.3,276.2 70.4,276.7 70.6,276.6 70.8,276.9 71.0,276.9 71.1,275.7 71.3,275.8 71.5,276.2 71.7,276.0 71.8,276.2 72.0,276.2 72.2,276.5 72.4,276.1 72.5,276.0 72.7,276.5 72.9,277.0 73.1,276.3 73.2,276.0 73.4,275.9 73.6,275.7 73.7,275.6 73.9,275.5 74.1,275.9 74.3,275.8 74.4,276.3 74.6,277.8 74.8,277.0 75.0,277.3 75.1,276.7 75.3,277.2 75.5,277.0 75.7,277.2 75.8,277.5 76.0,278.7 76.2,278.4 76.4,279.8 76.5,279.7 76.7,279.4 76.9,279.5 77.1,280.3 77.2,280.8 77.4,280.4 77.6,280.9 77.8,281.2 77.9,280.3 78.1,280.1 78.3,280.3 78.4,280.7 78.6,279.8 78.8,278.2 79.0,279.4 79.1,279.1 79.3,280.1 79.5,280.7 79.7,280.0 79.8,279.2 80.0,279.7 80.2,279.5 80.4,279.8 80.5,279.3 80.7,279.6 80.9,279.8 81.1,279.7 81.2,279.3 81.4,279.1 81.6,279.7 81.8,280.8 81.9,281.5 82.1,283.0 82.3,282.8 82.4,283.0 82.6,283.3 82.8,283.2 83.0,283.5 83.1,282.3 83.3,281.7 83.5,282.2 83.7,281.9 83.8,282.1 84.0,282.5 84.2,282.4 84.4,281.7 84.5,281.9 84.7,281.5 84.9,281.3 85.1,281.3 85.2,281.5 85.4,281.6 85.6,282.1 85.8,281.8 85.9,281.6 86.1,280.6 86.3,280.4 86.5,279.9 86.6,280.4 86.8,280.9 87.0,280.0 87.1,279.2 87.3,279.1 87.5,279.5 87.7,279.2 87.8,279.7 88.0,279.5 88.2,279.6 88.4,279.8 88.5,278.7 88.7,278.6 88.9,278.7 89.1,278.8 89.2,278.9 89.4,279.0 89.6,279.0 89.8,278.5 89.9,277.4 90.1,277.8 90.3,278.3 90.5,277.7 90.6,278.0 90.8,278.0 91.0,277.0 91.1,276.7 91.3,277.0 91.5,276.7 91.7,276.9 91.8,277.1 92.0,275.9 92.2,276.1 92.4,276.0 92.5,275.7 92.7,275.7 92.9,275.9 93.1,276.1 93.2,276.4 93.4,276.5 93.6,276.6 93.8,276.9 93.9,276.5 94.1,276.2 94.3,276.2 94.5,275.5 94.6,275.1 94.8,275.4 95.0,275.8 95.2,276.3 95.3,275.7 95.5,275.6 95.7,275.1 95.8,274.8 96.0,275.1 96.2,275.2 96.4,275.8 96.5,275.3 96.7,276.4 96.9,276.5 97.1,276.4 97.2,277.4 97.4,276.3 97.6,275.0 97.8,274.7 97.9,275.5 98.1,274.7 98.3,275.6 98.5,276.1 98.6,275.4 98.8,275.2 99.0,275.5 99.2,275.8 99.3,276.1 99.5,275.5 99.7,274.1 99.8,274.1 100.0,273.8 100.2,273.3 100.4,274.1 100.5,274.0 100.7,273.8 100.9,273.4 101.1,273.4 101.2,274.0 101.4,273.5 101.6,273.5 101.8,273.5 101.9,273.4 102.1,273.3 102.3,273.1 102.5,272.9 102.6,273.0 102.8,273.1 103.0,272.9 103.2,272.8 103.3,271.5 103.5,271.0 103.7,270.9 103.9,270.7 104.0,269.6 104.2,268.6 104.4,269.0 104.5,268.4 104.7,267.7 104.9,268.3 105.1,268.1 105.2,268.5 105.4,268.5 105.6,268.2 105.8,267.8 105.9,268.6 106.1,269.2 106.3,268.4 106.5,268.3 106.6,267.6 106.8,267.8 107.0,267.7 107.2,268.0 107.3,267.7 107.5,267.2 107.7,266.6 107.9,266.9 108.0,267.7 108.2,268.0 108.4,267.3 108.6,267.8 108.7,267.2 108.9,268.0 109.1,268.4 109.2,268.1 109.4,267.3 109.6,266.6 109.8,266.5 109.9,266.4 110.1,266.4 110.3,266.7 110.5,267.8 110.6,268.8 110.8,268.3 111.0,268.6 111.2,266.7 111.3,264.3 111.5,264.2 111.7,263.8 111.9,263.8 112.0,263.5 112.2,263.7 112.4,263.2 112.6,262.9 112.7,262.7 112.9,262.9 113.1,262.7 113.2,262.6 113.4,262.6 113.6,263.2 113.8,262.8 113.9,262.5 114.1,262.5 114.3,262.7 114.5,263.0 114.6,261.2 114.8,261.1 115.0,261.3 115.2,261.7 115.3,261.6 115.5,262.5 115.7,262.6 115.9,263.2 116.0,263.5 116.2,263.5 116.4,262.2 116.6,261.5 116.7,260.7 116.9,263.7 117.1,262.3 117.3,264.2 117.4,265.3 117.6,264.3 117.8,263.8 117.9,263.0 118.1,262.0 118.3,261.0 118.5,260.9 118.6,260.2 118.8,259.2 119.0,260.0 119.2,260.0 119.3,259.7 119.5,259.1 119.7,259.1 119.9,259.3 120.0,260.3 120.2,260.1 120.4,259.9 120.6,259.0 120.7,258.8 120.9,258.3 121.1,256.5 121.3,256.2 121.4,255.9 121.6,256.2 121.8,256.7 121.9,257.0 122.1,255.0 122.3,255.3 122.5,255.6 122.6,256.2 122.8,256.1 123.0,256.2 123.2,257.0 123.3,255.5 123.5,254.3 123.7,254.0 123.9,254.9 124.0,254.8 124.2,253.5 124.4,253.4 124.6,253.4 124.7,252.5 124.9,252.3 125.1,254.5 125.3,255.1 125.4,256.9 125.6,255.9 125.8,254.1 126.0,253.6 126.1,254.0 126.3,252.5 126.5,252.5 126.6,252.9 126.8,252.0 127.0,250.6 127.2,250.4 127.3,250.4 127.5,249.2 127.7,249.0 127.9,249.0 128.0,250.1 128.2,249.6 128.4,248.9 128.6,249.0 128.7,248.8 128.9,249.4 129.1,248.4 129.3,248.3 129.4,248.1 129.6,248.7 129.8,248.6 130.0,250.5 130.1,248.5 130.3,248.0 130.5,247.9 130.6,248.2 130.8,249.1 131.0,248.3 131.2,248.3 131.3,248.2 131.5,246.9 131.7,248.3 131.9,249.9 132.0,249.0 132.2,249.3 132.4,249.3 132.6,249.6 132.7,249.3 132.9,248.3 133.1,248.2 133.3,250.2 133.4,248.6 133.6,248.4 133.8,248.9 134.0,247.8 134.1,247.0 134.3,246.1 134.5,247.2 134.7,247.2 134.8,246.2 135.0,245.9 135.2,247.2 135.3,246.8 135.5,246.6 135.7,246.5 135.9,246.2 136.0,245.3 136.2,245.5 136.4,246.3 136.6,245.5 136.7,245.9 136.9,245.0 137.1,245.0 137.3,245.0 137.4,244.5 137.6,245.2 137.8,246.0 138.0,245.5 138.1,245.7 138.3,247.9 138.5,247.9 138.7,245.8 138.8,246.3 139.0,246.2 139.2,246.8 139.3,244.2 139.5,243.1 139.7,243.2 139.9,243.7 140.0,243.8 140.2,245.6 140.4,245.2 140.6,245.4 140.7,246.6 140.9,247.1 141.1,247.1 141.3,246.4 141.4,246.0 141.6,245.5 141.8,249.0 142.0,248.0 142.1,250.1 142.3,248.5 142.5,249.2 142.7,248.8 142.8,248.0 143.0,246.7 143.2,245.4 143.4,245.9 143.5,247.6 143.7,246.8 143.9,245.6 144.0,245.6 144.2,245.9 144.4,245.8 144.6,245.4 144.7,244.8 144.9,245.7 145.1,246.4 145.3,246.1 145.4,246.1 145.6,245.0 145.8,245.2 146.0,244.2 146.1,245.9 146.3,245.6 146.5,244.8 146.7,243.6 146.8,243.4 147.0,243.0 147.2,244.4 147.4,245.1 147.5,243.8 147.7,243.2 147.9,243.1 148.1,243.4 148.2,243.3 148.4,243.0 148.6,243.8 148.7,244.0 148.9,244.0 149.1,242.8 149.3,242.3 149.4,242.4 149.6,241.4 149.8,242.9 150.0,240.9 150.1,240.4 150.3,240.6 150.5,240.0 150.7,239.7 150.8,239.4 151.0,240.5 151.2,243.2 151.4,243.6 151.5,243.1 151.7,243.4 151.9,242.0 152.1,242.1 152.2,244.2 152.4,243.1 152.6,242.0 152.7,241.4 152.9,240.4 153.1,240.2 153.3,239.7 153.4,238.4 153.6,238.3 153.8,238.4 154.0,237.4 154.1,237.2 154.3,236.5 154.5,236.3 154.7,235.6 154.8,235.7 155.0,235.2 155.2,235.5 155.4,235.5 155.5,235.9 155.7,235.2 155.9,236.4 156.1,235.1 156.2,235.4 156.4,235.2 156.6,234.1 156.8,234.8 156.9,236.5 157.1,237.4 157.3,235.6 157.4,234.4 157.6,234.8 157.8,234.4 158.0,235.4 158.1,235.9 158.3,236.8 158.5,236.9 158.7,236.6 158.8,235.3 159.0,234.0 159.2,232.1 159.4,231.4 159.5,231.8 159.7,234.1 159.9,236.3 160.1,236.1 160.2,233.5 160.4,235.4 160.6,237.5 160.8,236.6 160.9,236.6 161.1,236.3 161.3,234.8 161.4,234.0 161.6,232.9 161.8,233.0 162.0,233.5 162.1,235.6 162.3,236.4 162.5,235.9 162.7,235.2 162.8,234.9 163.0,234.0 163.2,233.9 163.4,234.7 163.5,234.4 163.7,235.4 163.9,235.2 164.1,234.6 164.2,234.5 164.4,235.1 164.6,236.2 164.8,236.2 164.9,235.3 165.1,235.2 165.3,234.4 165.5,234.0 165.6,231.5 165.8,231.1 166.0,232.2 166.1,232.5 166.3,232.6 166.5,232.9 166.7,231.9 166.8,231.5 167.0,230.9 167.2,230.7 167.4,231.3 167.5,231.6 167.7,232.4 167.9,234.6 168.1,233.9 168.2,234.2 168.4,234.3 168.6,233.9 168.8,234.6 168.9,234.6 169.1,235.2 169.3,234.4 169.5,233.9 169.6,233.7 169.8,233.3 170.0,233.0 170.1,231.7 170.3,231.7 170.5,231.3 170.7,232.0 170.8,232.2 171.0,231.8 171.2,232.1 171.4,232.0 171.5,231.8 171.7,232.1 171.9,232.6 172.1,233.7 172.2,233.1 172.4,233.5 172.6,232.8 172.8,233.0 172.9,233.1 173.1,232.9 173.3,232.7 173.5,233.9 173.6,234.3 173.8,235.3 174.0,235.2 174.2,234.1 174.3,233.3 174.5,233.8 174.7,234.7 174.8,233.3 175.0,233.8 175.2,234.1 175.4,233.6 175.5,232.7 175.7,233.1 175.9,232.3 176.1,231.8 176.2,230.8 176.4,230.8 176.6,230.8 176.8,230.7 176.9,231.5 177.1,232.1 177.3,232.3 177.5,232.0 177.6,231.2 177.8,231.5 178.0,231.2 178.2,231.0 178.3,229.9 178.5,230.1 178.7,230.5 178.8,231.0 179.0,231.3 179.2,232.6 179.4,234.7 179.5,235.5 179.7,236.3 179.9,236.8 180.1,237.3 180.2,238.1 180.4,237.9 180.6,238.2 180.8,238.4 180.9,239.9 181.1,241.6 181.3,241.8 181.5,240.2 181.6,239.4 181.8,239.1 182.0,240.0 182.2,239.6 182.3,241.1 182.5,242.7 182.7,245.1 182.9,241.4 183.0,241.3 183.2,240.4 183.4,239.6 183.5,239.1 183.7,237.4 183.9,238.0 184.1,236.5 184.2,235.3 184.4,235.2 184.6,232.9 184.8,234.2 184.9,234.2 185.1,232.7 185.3,232.6 185.5,233.3 185.6,231.6 185.8,231.0 186.0,232.0 186.2,231.7 186.3,231.3 186.5,231.0 186.7,230.7 186.9,230.7 187.0,230.5 187.2,229.5 187.4,230.3 187.5,230.2 187.7,229.4 187.9,228.3 188.1,229.3 188.2,229.5 188.4,228.1 188.6,228.2 188.8,227.8 188.9,226.7 189.1,227.6 189.3,227.6 189.5,228.3 189.6,228.2 189.8,230.5 190.0,230.2 190.2,231.8 190.3,231.4 190.5,232.1 190.7,230.4 190.9,228.6 191.0,227.5 191.2,227.2 191.4,227.0 191.6,227.5 191.7,227.3 191.9,227.1 192.1,227.7 192.2,228.4 192.4,228.5 192.6,232.2 192.8,232.7 192.9,232.1 193.1,230.1 193.3,231.3 193.5,232.8 193.6,234.3 193.8,234.9 194.0,234.9 194.2,235.5 194.3,234.5 194.5,233.1 194.7,232.4 194.9,231.9 195.0,232.0 195.2,231.8 195.4,233.7 195.6,232.5 195.7,233.0 195.9,230.6 196.1,228.3 196.3,228.3 196.4,224.7 196.6,223.2 196.8,223.2 196.9,221.5 197.1,222.3 197.3,222.2 197.5,221.4 197.6,221.7 197.8,221.7 198.0,220.6 198.2,220.8 198.3,220.8 198.5,221.3 198.7,220.1 198.9,221.0 199.0,221.3 199.2,219.7 199.4,219.9 199.6,219.0 199.7,219.8 199.9,221.0 200.1,221.1 200.3,222.7 200.4,223.5 200.6,222.3 200.8,223.6 200.9,221.9 201.1,222.0 201.3,220.9 201.5,220.9 201.6,220.0 201.8,220.1 202.0,220.8 202.2,222.9 202.3,223.5 202.5,222.8 202.7,220.8 202.9,220.2 203.0,221.2 203.2,218.5 203.4,215.5 203.6,216.6 203.7,216.2 203.9,215.0 204.1,214.4 204.3,215.3 204.4,215.1 204.6,215.6 204.8,215.2 205.0,216.1 205.1,216.0 205.3,216.4 205.5,216.6 205.6,216.2 205.8,215.8 206.0,216.7 206.2,216.8 206.3,217.7 206.5,216.4 206.7,214.9 206.9,212.9 207.0,215.1 207.2,214.7 207.4,215.4 207.6,213.7 207.7,214.3 207.9,213.4 208.1,213.7 208.3,212.3 208.4,211.5 208.6,211.5 208.8,211.6 209.0,212.0 209.1,211.4 209.3,211.8 209.5,212.7 209.6,211.6 209.8,211.1 210.0,211.8 210.2,212.0 210.3,211.2 210.5,210.2 210.7,211.7 210.9,211.4 211.0,212.0 211.2,212.3 211.4,210.3 211.6,210.9 211.7,211.1 211.9,211.4 212.1,211.0 212.3,209.6 212.4,209.4 212.6,209.3 212.8,209.6 213.0,210.0 213.1,210.7 213.3,209.8 213.5,209.9 213.7,214.6 213.8,214.0 214.0,212.9 214.2,212.9 214.3,214.3 214.5,215.2 214.7,222.0 214.9,222.3 215.0,220.8 215.2,219.9 215.4,219.7 215.6,219.1 215.7,223.6 215.9,222.3 216.1,222.2 216.3,221.8 216.4,222.8 216.6,222.4 216.8,223.0 217.0,225.3 217.1,223.0 217.3,221.8 217.5,222.8 217.7,222.1 217.8,223.2 218.0,222.4 218.2,222.8 218.3,223.0 218.5,220.9 218.7,218.6 218.9,222.6 219.0,224.2 219.2,223.4 219.4,224.3 219.6,222.6 219.7,222.4 219.9,223.4 220.1,226.2 220.3,229.1 220.4,230.9 220.6,231.3 220.8,227.5 221.0,225.7 221.1,225.3 221.3,225.1 221.5,229.2 221.7,228.3 221.8,227.7 222.0,229.2 222.2,225.1 222.4,224.9 222.5,225.4 222.7,224.1 222.9,224.2 223.0,223.2 223.2,220.3 223.4,220.8 223.6,222.6 223.7,223.1 223.9,226.4 224.1,226.8 224.3,228.2 224.4,227.7 224.6,231.1 224.8,228.1 225.0,224.5 225.1,222.9 225.3,222.3 225.5,221.5 225.7,222.2 225.8,220.2 226.0,218.9 226.2,217.7 226.4,217.8 226.5,220.1 226.7,219.7 226.9,219.0 227.0,218.6 227.2,218.1 227.4,217.3 227.6,217.7 227.7,214.6 227.9,214.0 228.1,214.1 228.3,214.9 228.4,212.8 228.6,219.9 228.8,216.2 229.0,214.8 229.1,215.9 229.3,216.6 229.5,216.1 229.7,216.1 229.8,217.2 230.0,216.4 230.2,215.4 230.4,216.8 230.5,219.6 230.7,218.6 230.9,219.1 231.1,217.5 231.2,215.3 231.4,212.7 231.6,212.5 231.7,211.8 231.9,210.9 232.1,211.1 232.3,210.8 232.4,209.9 232.6,212.2 232.8,213.1 233.0,210.8 233.1,212.3 233.3,213.5 233.5,214.8 233.7,214.8 233.8,217.6 234.0,217.4 234.2,215.6 234.4,213.2 234.5,215.9 234.7,215.8 234.9,215.2 235.1,214.4 235.2,211.6 235.4,212.0 235.6,211.6 235.7,211.0 235.9,212.3 236.1,213.3 236.3,215.3 236.4,218.0 236.6,220.5 236.8,225.7 237.0,227.4 237.1,224.7 237.3,225.8 237.5,231.4 237.7,232.2 237.8,234.5 238.0,234.6 238.2,236.5 238.4,237.2 238.5,237.3 238.7,238.2 238.9,235.8 239.1,235.9 239.2,238.3 239.4,237.4 239.6,235.7 239.8,238.5 239.9,240.2 240.1,240.6 240.3,243.8 240.4,246.6 240.6,245.9 240.8,244.4 241.0,244.7 241.1,241.7 241.3,239.5 241.5,236.2 241.7,236.9 241.8,237.2 242.0,236.1 242.2,238.0 242.4,238.9 242.5,235.4 242.7,235.3 242.9,235.4 243.1,232.8 243.2,232.8 243.4,230.6 243.6,229.8 243.8,230.8 243.9,232.8 244.1,232.6 244.3,233.4 244.5,231.2 244.6,231.5 244.8,230.4 245.0,229.0 245.1,227.9 245.3,228.5 245.5,228.8 245.7,227.7 245.8,228.6 246.0,228.8 246.2,228.9 246.4,227.0 246.5,225.8 246.7,225.7 246.9,227.2 247.1,230.6 247.2,230.4 247.4,229.6 247.6,230.1 247.8,229.7 247.9,228.5 248.1,228.8 248.3,224.1 248.5,223.2 248.6,224.3 248.8,224.0 249.0,223.7 249.1,223.8 249.3,224.6 249.5,224.9 249.7,224.5 249.8,222.4 250.0,223.4 250.2,225.7 250.4,227.3 250.5,227.2 250.7,227.8 250.9,231.4 251.1,232.3 251.2,231.0 251.4,231.5 251.6,230.0 251.8,231.2 251.9,231.9 252.1,233.3 252.3,233.2 252.5,234.9 252.6,234.7 252.8,236.3 253.0,235.3 253.2,235.9 253.3,233.8 253.5,233.9 253.7,234.8 253.8,234.1 254.0,233.9 254.2,234.9 254.4,233.5 254.5,234.9 254.7,234.4 254.9,233.5 255.1,232.6 255.2,232.8 255.4,234.6 255.6,236.3 255.8,237.2 255.9,236.4 256.1,235.9 256.3,235.6 256.5,231.9 256.6,232.5 256.8,232.7 257.0,230.7 257.2,240.7 257.3,244.2 257.5,242.3 257.7,240.0 257.8,240.1 258.0,238.9 258.2,242.9 258.4,242.1 258.5,240.0 258.7,237.5 258.9,237.1 259.1,235.4 259.2,235.0 259.4,234.8 259.6,234.9 259.8,234.9 259.9,235.3 260.1,233.6 260.3,233.0 260.5,233.4 260.6,233.5 260.8,232.2 261.0,232.4 261.2,234.2 261.3,234.1 261.5,234.1 261.7,237.0 261.9,238.4 262.0,239.1 262.2,235.9 262.4,236.6 262.5,236.7 262.7,237.1 262.9,236.9 263.1,238.5 263.2,237.6 263.4,237.9 263.6,237.4 263.8,237.3 263.9,237.0 264.1,237.3 264.3,234.0 264.5,233.1 264.6,233.1 264.8,232.0 265.0,230.6 265.2,231.1 265.3,230.8 265.5,231.2 265.7,231.3 265.9,231.0 266.0,231.2 266.2,230.8 266.4,233.8 266.5,232.7 266.7,233.6 266.9,233.3 267.1,232.6 267.2,231.8 267.4,232.0 267.6,232.9 267.8,232.1 267.9,231.3 268.1,232.1 268.3,233.0 268.5,233.4 268.6,230.8 268.8,231.9 269.0,230.0 269.2,230.1 269.3,230.7 269.5,229.5 269.7,230.3 269.9,231.4 270.0,231.6 270.2,234.1 270.4,234.2 270.6,236.3 270.7,236.2 270.9,235.7 271.1,238.4 271.2,237.2 271.4,238.0 271.6,238.6 271.8,238.2 271.9,239.4 272.1,238.2 272.3,238.0 272.5,237.7 272.6,237.3 272.8,237.1 273.0,235.4 273.2,235.8 273.3,235.3 273.5,232.5 273.7,231.4 273.9,236.7 274.0,235.6 274.2,237.1 274.4,235.5 274.6,235.3 274.7,235.6 274.9,233.8 275.1,233.6 275.2,233.1 275.4,235.0 275.6,234.9 275.8,234.4 275.9,235.8 276.1,239.2 276.3,238.5 276.5,236.6 276.6,238.8 276.8,238.8 277.0,236.3 277.2,231.1 277.3,230.0 277.5,229.8 277.7,232.3 277.9,231.5 278.0,232.9 278.2,232.6 278.4,233.7 278.6,234.2 278.7,234.7 278.9,232.5 279.1,234.7 279.3,234.1 279.4,233.8 279.6,234.7 279.8,234.6 279.9,234.6 280.1,234.4 280.3,231.5 280.5,232.0 280.6,232.5 280.8,233.8 281.0,231.0 281.2,229.7 281.3,230.3 281.5,229.6 281.7,229.6 281.9,229.8 282.0,229.2 282.2,230.8 282.4,231.5 282.6,229.8 282.7,227.6 282.9,229.4 283.1,230.4 283.3,231.9 283.4,231.5 283.6,230.4 283.8,227.5 283.9,227.2 284.1,227.2 284.3,226.8 284.5,227.0 284.6,227.2 284.8,226.5 285.0,224.6 285.2,224.6 285.3,224.3 285.5,225.5 285.7,225.2 285.9,224.7 286.0,224.4 286.2,224.6 286.4,223.8 286.6,223.2 286.7,224.4 286.9,223.7 287.1,222.9 287.3,223.2 287.4,224.7 287.6,224.6 287.8,223.8 288.0,224.2 288.1,223.3 288.3,219.7 288.5,218.7 288.6,217.2 288.8,217.3 289.0,217.8 289.2,218.6 289.3,222.0 289.5,221.4 289.7,221.5 289.9,221.2 290.0,220.5 290.2,219.5 290.4,219.3 290.6,218.7 290.7,219.3 290.9,221.9 291.1,224.6 291.3,225.6 291.4,225.6 291.6,225.6 291.8,225.1 292.0,225.8 292.1,226.6 292.3,227.2 292.5,226.1 292.7,226.5 292.8,225.3 293.0,222.4 293.2,223.9 293.3,220.8 293.5,220.6 293.7,220.8 293.9,220.0 294.0,219.4 294.2,219.9 294.4,221.7 294.6,211.8 294.7,210.5 294.9,211.0 295.1,211.3 295.3,210.3 295.4,210.9 295.6,211.9 295.8,212.1 296.0,212.1 296.1,211.7 296.3,213.9 296.5,213.9 296.7,213.1 296.8,211.7 297.0,212.5 297.2,212.3 297.3,212.2 297.5,211.2 297.7,212.2 297.9,210.6 298.0,209.2 298.2,209.4 298.4,210.5 298.6,209.6 298.7,210.4 298.9,212.9 299.1,213.3 299.3,213.9 299.4,212.2 299.6,213.0 299.8,213.0 300.0,214.1 300.1,212.4 300.3,214.9 300.5,213.2 300.7,213.2 300.8,212.9 301.0,212.3 301.2,212.4 301.4,211.8 301.5,212.4 301.7,211.0 301.9,210.8 302.0,210.7 302.2,212.1 302.4,209.3 302.6,207.2 302.7,206.2 302.9,205.3 303.1,206.2 303.3,206.6 303.4,206.0 303.6,206.4 303.8,204.9 304.0,204.7 304.1,207.2 304.3,207.7 304.5,207.2 304.7,207.5 304.8,207.7 305.0,208.3 305.2,207.8 305.4,208.5 305.5,207.1 305.7,205.0 305.9,204.6 306.0,204.3 306.2,203.7 306.4,205.0 306.6,207.0 306.7,205.6 306.9,204.2 307.1,204.4 307.3,203.5 307.4,205.5 307.6,205.7 307.8,204.9 308.0,203.4 308.1,203.4 308.3,203.0 308.5,203.3 308.7,203.1 308.8,203.3 309.0,202.4 309.2,200.9 309.4,199.4 309.5,200.6 309.7,200.5 309.9,200.3 310.1,200.5 310.2,199.6 310.4,199.2 310.6,199.0 310.7,199.1 310.9,196.4 311.1,196.0 311.3,195.6 311.4,195.3 311.6,195.5 311.8,193.4 312.0,192.7 312.1,193.1 312.3,198.1 312.5,199.3 312.7,198.5 312.8,196.7 313.0,197.1 313.2,194.0 313.4,194.0 313.5,196.1 313.7,196.5 313.9,198.3 314.1,197.5 314.2,198.9 314.4,199.6 314.6,199.0 314.7,199.9 314.9,199.3 315.1,199.4 315.3,200.3 315.4,199.3 315.6,198.7 315.8,199.7 316.0,197.7 316.1,198.1 316.3,198.7 316.5,197.4 316.7,197.4 316.8,197.5 317.0,200.3 317.2,199.8 317.4,199.9 317.5,200.9 317.7,201.8 317.9,202.1 318.1,201.8 318.2,196.3 318.4,198.8 318.6,197.6 318.8,198.2 318.9,194.2 319.1,194.3 319.3,195.8 319.4,195.7 319.6,195.8 319.8,194.7 320.0,194.3 320.1,191.2 320.3,192.6 320.5,191.7 320.7,189.8 320.8,194.5 321.0,195.9 321.2,194.7 321.4,193.8 321.5,194.1 321.7,197.0 321.9,197.7 322.1,195.9 322.2,196.1 322.4,194.2 322.6,193.8 322.8,195.1 322.9,195.3 323.1,195.2 323.3,195.4 323.4,194.3 323.6,195.3 323.8,193.5 324.0,191.5 324.1,189.6 324.3,185.9 324.5,185.4 324.7,184.3 324.8,187.5 325.0,185.2 325.2,184.1 325.4,184.6 325.5,183.2 325.7,183.8 325.9,183.2 326.1,183.2 326.2,184.2 326.4,183.2 326.6,184.7 326.8,181.9 326.9,181.3 327.1,181.7 327.3,181.3 327.5,179.8 327.6,182.3 327.8,186.5 328.0,184.5 328.1,183.0 328.3,189.1 328.5,190.1 328.7,186.1 328.8,187.0 329.0,184.4 329.2,183.5 329.4,184.8 329.5,184.9 329.7,184.6 329.9,184.0 330.1,183.9 330.2,181.6 330.4,184.5 330.6,186.3 330.8,191.2 330.9,190.0 331.1,189.7 331.3,188.2 331.5,188.9 331.6,188.5 331.8,185.0 332.0,186.1 332.2,186.9 332.3,189.1 332.5,189.5 332.7,189.0 332.8,191.0 333.0,191.1 333.2,190.7 333.4,196.7 333.5,200.3 333.7,195.0 333.9,196.0 334.1,198.1 334.2,195.1 334.4,199.8 334.6,198.4 334.8,196.1 334.9,193.8 335.1,196.7 335.3,196.9 335.5,193.6 335.6,194.5 335.8,193.8 336.0,194.3 336.2,192.4 336.3,190.7 336.5,191.3 336.7,193.6 336.8,193.2 337.0,192.9 337.2,193.9 337.4,194.7 337.5,191.7 337.7,193.6 337.9,195.6 338.1,195.7 338.2,188.1 338.4,186.6 338.6,184.5 338.8,183.6 338.9,183.1 339.1,182.0 339.3,179.7 339.5,179.5 339.6,180.2 339.8,179.8 340.0,177.2 340.2,176.7 340.3,177.9 340.5,176.8 340.7,176.8 340.9,177.2 341.0,177.5 341.2,177.5 341.4,179.5 341.5,179.1 341.7,177.7 341.9,175.5 342.1,175.0 342.2,174.1 342.4,172.9 342.6,173.3 342.8,173.1 342.9,171.7 343.1,171.5 343.3,172.0 343.5,170.6 343.6,170.5 343.8,170.2 344.0,173.5 344.2,174.8 344.3,178.0 344.5,179.5 344.7,181.0 344.9,181.3 345.0,183.6 345.2,185.4 345.4,185.8 345.5,185.1 345.7,186.8 345.9,183.8 346.1,182.2 346.2,180.4 346.4,179.3 346.6,183.9 346.8,183.8 346.9,183.1 347.1,183.2 347.3,179.3 347.5,178.7 347.6,181.2 347.8,184.0 348.0,184.3 348.2,183.6 348.3,180.9 348.5,183.6 348.7,183.1 348.9,184.6 349.0,176.9 349.2,179.9 349.4,178.7 349.6,176.4 349.7,177.0 349.9,176.4 350.1,176.9 350.2,178.8 350.4,181.8 350.6,184.3 350.8,182.5 350.9,186.7 351.1,185.6 351.3,184.3 351.5,181.9 351.6,182.9 351.8,187.0 352.0,189.4 352.2,190.2 352.3,185.3 352.5,185.2 352.7,187.0 352.9,189.6 353.0,190.9 353.2,192.2 353.4,194.7 353.6,195.3 353.7,196.0 353.9,194.3 354.1,195.1 354.2,195.2 354.4,193.6 354.6,192.4 354.8,194.4 354.9,193.6 355.1,191.8 355.3,188.4 355.5,187.7 355.6,190.9 355.8,195.3 356.0,195.5 356.2,196.2 356.3,196.6 356.5,196.3 356.7,195.1 356.9,194.9 357.0,198.0 357.2,203.3 357.4,202.4 357.6,206.7 357.7,208.0 357.9,210.4 358.1,210.3 358.3,210.8 358.4,209.9 358.6,210.3 358.8,210.0 358.9,209.9 359.1,209.9 359.3,207.1 359.5,211.8 359.6,210.1 359.8,210.7 360.0,207.2 360.2,210.1 360.3,206.4 360.5,205.5 360.7,202.7 360.9,207.4 361.0,207.0 361.2,204.3 361.4,205.2 361.6,208.0 361.7,209.6 361.9,208.9 362.1,208.9 362.3,208.7 362.4,210.0 362.6,212.7 362.8,214.4 362.9,211.3 363.1,211.7 363.3,209.7 363.5,214.3 363.6,212.3 363.8,213.8 364.0,213.2 364.2,209.3 364.3,213.6 364.5,216.0 364.7,219.9 364.9,222.3 365.0,220.3 365.2,219.5 365.4,220.4 365.6,221.4 365.7,223.5 365.9,225.0 366.1,226.9 366.3,226.4 366.4,227.7 366.6,229.6 366.8,227.3 367.0,227.0 367.1,227.8 367.3,227.5 367.5,228.1 367.6,229.1 367.8,226.1 368.0,224.7 368.2,220.0 368.3,216.5 368.5,215.5 368.7,216.6 368.9,215.3 369.0,216.1 369.2,215.3 369.4,214.3 369.6,211.8 369.7,213.4 369.9,215.5 370.1,213.3 370.3,211.7 370.4,211.6 370.6,212.5 370.8,210.6 371.0,203.2 371.1,204.7 371.3,203.9 371.5,203.8 371.6,204.4 371.8,207.2 372.0,207.9 372.2,207.4 372.3,205.9 372.5,202.6 372.7,202.5 372.9,200.7 373.0,200.2 373.2,199.6 373.4,200.4 373.6,198.7 373.7,197.7 373.9,198.1 374.1,197.4 374.3,197.7 374.4,196.0 374.6,196.5 374.8,196.4 375.0,198.6 375.1,199.0 375.3,199.5 375.5,198.4 375.7,198.5 375.8,198.7 376.0,200.4 376.2,199.3 376.3,200.6 376.5,198.1 376.7,201.4 376.9,200.7 377.0,205.3 377.2,204.7 377.4,203.4 377.6,205.1 377.7,203.6 377.9,202.7 378.1,198.4 378.3,197.9 378.4,195.1 378.6,193.0 378.8,192.3 379.0,190.2 379.1,191.6 379.3,190.1 379.5,189.4 379.7,187.0 379.8,188.5 380.0,187.9 380.2,187.1 380.4,187.6 380.5,188.5 380.7,188.8 380.9,189.6 381.0,194.4 381.2,192.9 381.4,193.9 381.6,194.1 381.7,196.9 381.9,202.3 382.1,201.7 382.3,202.4 382.4,202.8 382.6,202.4 382.8,204.9 383.0,205.8 383.1,211.2 383.3,209.3 383.5,208.8 383.7,210.7 383.8,210.8 384.0,212.0 384.2,212.5 384.4,216.7 384.5,219.0 384.7,218.9 384.9,217.1 385.0,217.8 385.2,217.7 385.4,224.1 385.6,220.2 385.7,215.1 385.9,212.4 386.1,211.8 386.3,211.1 386.4,207.9 386.6,207.3 386.8,209.1 387.0,207.4 387.1,208.4 387.3,207.7 387.5,206.4 387.7,206.3 387.8,204.1 388.0,204.2 388.2,204.3 388.4,204.6 388.5,203.5 388.7,200.5 388.9,200.8 389.1,201.0 389.2,202.5 389.4,202.9 389.6,203.1 389.7,206.4 389.9,207.4 390.1,205.4 390.3,205.1 390.4,201.7 390.6,200.9 390.8,202.0 391.0,204.2 391.1,203.8 391.3,201.8 391.5,201.8 391.7,198.9 391.8,196.9 392.0,199.3 392.2,198.6 392.4,198.9 392.5,199.8 392.7,191.4 392.9,196.9 393.1,197.5 393.2,200.6 393.4,197.5 393.6,197.1 393.7,194.4 393.9,197.1 394.1,198.4 394.3,197.0 394.4,202.6 394.6,203.1 394.8,199.4 395.0,197.0 395.1,198.9 395.3,197.2 395.5,197.1 395.7,202.1 395.8,200.8 396.0,200.6 396.2,198.3 396.4,197.4 396.5,197.6 396.7,199.8 396.9,196.2 397.1,190.6 397.2,189.8 397.4,187.7 397.6,187.0 397.8,186.6 397.9,186.5 398.1,187.9 398.3,188.7 398.4,188.6 398.6,188.8 398.8,188.8 399.0,192.2 399.1,190.9 399.3,192.7 399.5,190.8 399.7,191.3 399.8,192.4 400.0,191.7 400.2,194.9 400.4,198.9 400.5,198.4 400.7,197.2 400.9,196.4 401.1,201.2 401.2,199.4 401.4,197.6 401.6,193.3 401.8,192.8 401.9,190.8 402.1,189.3 402.3,189.4 402.4,189.5 402.6,189.0 402.8,187.6 403.0,189.0 403.1,189.5 403.3,188.7 403.5,188.0 403.7,187.6 403.8,184.7 404.0,188.7 404.2,184.8 404.4,180.3 404.5,180.9 404.7,180.4 404.9,179.1 405.1,178.6 405.2,179.7 405.4,180.9 405.6,185.8 405.8,185.0 405.9,184.9 406.1,184.9 406.3,186.5 406.5,188.8 406.6,189.5 406.8,186.1 407.0,182.5 407.1,181.4 407.3,181.6 407.5,182.7 407.7,181.9 407.8,185.6 408.0,184.8 408.2,183.4 408.4,182.9 408.5,184.0 408.7,184.3 408.9,184.0 409.1,180.0 409.2,183.2 409.4,181.2 409.6,180.0 409.8,177.2 409.9,177.2 410.1,179.3 410.3,180.4 410.5,181.3 410.6,180.2 410.8,179.4 411.0,180.8 411.1,181.2 411.3,179.4 411.5,182.4 411.7,184.8 411.8,186.5 412.0,183.8 412.2,185.7 412.4,188.8 412.5,189.7 412.7,189.5 412.9,191.0 413.1,186.4 413.2,186.0 413.4,186.7 413.6,186.5 413.8,184.9 413.9,186.0 414.1,190.0 414.3,188.6 414.5,188.3 414.6,191.3 414.8,195.3 415.0,192.7 415.2,187.4 415.3,187.4 415.5,190.5 415.7,192.1 415.8,191.8 416.0,187.0 416.2,186.0 416.4,187.4 416.5,190.4 416.7,190.8 416.9,187.1 417.1,186.6 417.2,188.0 417.4,196.4 417.6,200.4 417.8,200.4 417.9,204.8 418.1,204.6 418.3,199.0 418.5,201.2 418.6,197.7 418.8,204.0 419.0,207.1 419.2,217.3 419.3,211.9 419.5,219.7 419.7,230.5 419.8,220.7 420.0,242.0 420.2,245.9 420.4,266.4 420.5,256.6 420.7,250.3 420.9,248.4 421.1,244.2 421.2,242.5 421.4,236.2 421.6,241.8 421.8,243.7 421.9,244.6 422.1,249.2 422.3,249.7 422.5,252.9 422.6,243.7 422.8,238.7 423.0,229.4 423.2,226.6 423.3,228.7 423.5,225.8 423.7,228.5 423.9,230.6 424.0,224.3 424.2,230.3 424.4,232.0 424.5,229.0 424.7,228.7 424.9,225.9 425.1,222.1 425.2,220.4 425.4,213.5 425.6,216.5 425.8,221.7 425.9,223.8 426.1,221.9 426.3,222.5 426.5,222.4 426.6,218.4 426.8,220.4 427.0,223.5 427.2,228.6 427.3,225.3 427.5,224.1 427.7,215.6 427.9,215.8 428.0,213.5 428.2,213.7 428.4,213.2 428.6,208.0 428.7,205.3 428.9,210.8 429.1,208.4 429.2,206.6 429.4,202.4 429.6,197.4 429.8,196.9 429.9,193.9 430.1,191.6 430.3,207.6 430.5,198.6 430.6,211.7 430.8,208.0 431.0,208.1 431.2,207.3 431.3,207.4 431.5,206.7 431.7,205.1 431.9,204.0 432.0,203.7 432.2,209.4 432.4,206.6 432.6,210.1 432.7,208.0 432.9,204.9 433.1,208.3 433.2,206.4 433.4,204.1 433.6,206.0 433.8,206.5 433.9,208.4 434.1,207.1 434.3,206.6 434.5,204.5 434.6,199.5 434.8,198.8 435.0,199.5 435.2,199.3 435.3,199.4 435.5,198.2 435.7,198.7 435.9,198.8 436.0,197.0 436.2,199.0 436.4,196.9 436.6,201.3 436.7,205.1 436.9,202.4 437.1,200.6 437.3,196.6 437.4,195.7 437.6,196.6 437.8,193.0 437.9,189.7 438.1,188.8 438.3,190.0 438.5,190.4 438.6,190.7 438.8,191.9 439.0,194.5 439.2,195.7 439.3,196.6 439.5,194.3 439.7,194.5 439.9,194.4 440.0,194.6 440.2,191.9 440.4,193.5 440.6,192.2 440.7,188.1 440.9,192.6 441.1,193.4 441.3,195.5 441.4,194.1 441.6,196.3 441.8,195.7 441.9,193.8 442.1,193.6 442.3,195.1 442.5,197.4 442.6,189.6 442.8,195.6 443.0,195.7 443.2,196.5 443.3,196.0 443.5,193.1 443.7,188.1 443.9,185.4 444.0,185.8 444.2,182.6 444.4,183.2 444.6,178.1 444.7,181.9 444.9,175.4 445.1,177.1 445.3,176.9 445.4,176.7 445.6,179.7 445.8,180.1 446.0,177.5 446.1,176.7 446.3,175.1 446.5,174.0 446.6,175.1 446.8,174.0 447.0,173.8 447.2,176.7 447.3,179.4 447.5,183.2 447.7,176.6 447.9,179.1 448.0,177.2 448.2,171.8 448.4,175.3 448.6,167.6 448.7,168.0 448.9,165.0 449.1,162.0 449.3,158.9 449.4,162.0 449.6,160.5 449.8,154.2 450.0,154.2 450.1,153.4 450.3,152.9 450.5,154.4 450.6,151.2 450.8,144.2 451.0,148.6 451.2,143.9 451.3,148.3 451.5,143.4 451.7,145.1 451.9,144.9 452.0,141.9 452.2,141.7 452.4,142.3 452.6,141.3 452.7,140.8 452.9,143.4 453.1,144.2 453.3,142.9 453.4,142.6 453.6,139.7 453.8,140.5 454.0,141.9 454.1,139.5 454.3,134.9 454.5,134.8 454.7,135.2 454.8,135.3 455.0,131.6 455.2,132.2 455.3,133.3 455.5,127.9 455.7,121.4 455.9,112.1 456.0,111.1 456.2,111.7 456.4,103.4 456.6,110.4 456.7,112.9 456.9,115.0 457.1,115.2 457.3,111.7 457.4,113.4 457.6,119.5 457.8,120.2 458.0,124.7 458.1,135.5 458.3,127.9 458.5,127.7 458.7,120.5 458.8,117.0 459.0,114.4 459.2,115.8 459.3,108.9 459.5,106.6 459.7,107.3 459.9,105.1 460.0,99.4 460.2,96.2 460.4,97.9 460.6,95.8 460.7,105.8 460.9,99.6 461.1,95.2 461.3,102.6 461.4,97.7 461.6,108.5 461.8,105.1 462.0,98.3 462.1,99.1 462.3,97.2 462.5,109.9 462.7,110.2 462.8,112.4 463.0,113.9 463.2,106.7 463.4,101.4 463.5,103.7 463.7,101.0 463.9,108.6 464.0,100.4 464.2,106.4 464.4,110.5 464.6,111.8 464.7,119.5 464.9,119.0 465.1,115.1 465.3,117.9 465.4,125.6 465.6,122.5 465.8,121.7 466.0,117.8 466.1,116.0 466.3,112.8 466.5,117.8 466.7,118.6 466.8,115.4 467.0,114.4 467.2,117.1 467.4,115.7 467.5,116.2 467.7,117.3 467.9,118.3 468.1,125.7 468.2,119.9 468.4,120.3 468.6,112.0 468.7,111.6 468.9,109.5 469.1,109.2 469.3,112.5 469.4,113.4 469.6,114.0 469.8,119.1 470.0,114.7 470.1,116.8 470.3,106.6 470.5,113.5 470.7,117.9 470.8,126.6 471.0,123.0 471.2,119.9 471.4,120.1 471.5,122.5 471.7,123.1 471.9,122.5 472.1,118.1 472.2,116.8 472.4,116.2 472.6,114.1 472.7,103.7 472.9,104.3 473.1,98.1 473.3,98.0 473.4,96.6 473.6,91.4 473.8,94.9 474.0,92.1 474.1,93.4 474.3,97.2 474.5,95.5 474.7,94.6 474.8,95.2 475.0,98.9 475.2,103.0 475.4,108.7 475.5,104.3 475.7,102.6 475.9,101.1 476.1,97.8 476.2,96.9 476.4,98.4 476.6,93.4 476.8,94.8 476.9,92.8 477.1,91.2 477.3,94.4 477.4,99.4 477.6,103.1 477.8,97.1 478.0,93.1 478.1,94.5 478.3,96.9 478.5,99.9 478.7,105.3 478.8,108.8 479.0,100.6 479.2,96.5 479.4,98.7 479.5,94.7 479.7,91.4 479.9,92.6 480.1,87.8 480.2,80.4 480.4,81.6 480.6,80.4 480.8,78.4 480.9,83.1 481.1,91.5 481.3,86.7 481.4,83.7 481.6,77.5 481.8,79.8 482.0,82.0 482.1,84.2 482.3,85.2 482.5,93.5 482.7,95.8 482.8,100.9 483.0,98.5 483.2,97.7 483.4,94.3 483.5,94.6 483.7,99.1 483.9,96.0 484.1,100.6 484.2,101.9 484.4,103.0 484.6,103.4 484.8,105.0 484.9,104.1 485.1,107.6 485.3,106.4 485.5,109.9 485.6,107.3 485.8,105.2 486.0,99.0 486.1,106.1 486.3,109.9 486.5,114.0 486.7,115.6 486.8,111.6 487.0,101.1 487.2,103.5 487.4,99.1 487.5,99.1 487.7,104.0 487.9,106.3 488.1,101.2 488.2,94.3 488.4,93.7 488.6,94.2 488.8,84.4 488.9,84.0 489.1,90.8 489.3,86.9 489.5,84.3 489.6,80.9 489.8,78.9 490.0,80.2 490.1,81.9 490.3,78.6 490.5,77.9 490.7,79.4 490.8,76.8 491.0,78.3 491.2,78.3 491.4,74.3 491.5,73.2 491.7,69.2 491.9,70.8 492.1,65.9 492.2,66.8 492.4,70.2 492.6,72.7 492.8,73.8 492.9,75.2 493.1,78.6 493.3,76.5 493.5,74.2 493.6,70.8 493.8,68.2 494.0,68.5 494.2,68.8 494.3,69.6 494.5,76.8 494.7,77.8 494.8,86.3 495.0,83.4 495.2,90.6 495.4,91.1 495.5,83.1 495.7,87.8 495.9,84.9 496.1,80.5 496.2,76.7 496.4,81.6 496.6,78.6 496.8,86.9 496.9,89.9 497.1,84.9 497.3,88.1 497.5,93.2 497.6,100.3 497.8,93.8 498.0,89.9 498.2,87.7 498.3,86.3 498.5,87.4 498.7,86.6 498.8,86.7 499.0,84.2 499.2,82.7 499.4,74.1 499.5,79.6 499.7,71.5 499.9,77.9 500.1,84.0 500.2,91.5 500.4,91.3 500.6,93.0 500.8,101.3 500.9,105.5 501.1,110.6 501.3,116.0 501.5,118.5 501.6,118.9 501.8,124.4 502.0,125.4 502.2,129.9 502.3,131.3 502.5,123.5 502.7,118.8 502.9,119.1 503.0,130.1 503.2,129.6 503.4,131.5 503.5,126.8 503.7,119.8 503.9,124.4 504.1,127.1 504.2,123.5 504.4,113.8 504.6,110.1 504.8,114.4 504.9,117.2 505.1,122.2 505.3,128.1 505.5,126.8 505.6,124.3 505.8,133.4 506.0,149.2 506.2,144.1 506.3,150.8 506.5,166.1 506.7,177.5 506.9,174.0 507.0,167.8 507.2,166.4 507.4,165.7 507.5,168.0 507.7,163.1 507.9,151.1 508.1,152.5 508.2,148.3 508.4,151.8 508.6,148.9 508.8,149.4 508.9,148.2 509.1,149.0 509.3,148.1 509.5,138.0 509.6,143.5 509.8,146.9 510.0,147.8 510.2,148.3 510.3,156.5 510.5,158.4 510.7,160.1 510.9,162.6 511.0,162.9 511.2,159.2 511.4,161.9 511.6,163.8 511.7,166.2 511.9,159.7 512.1,158.9 512.2,161.1 512.4,165.3 512.6,163.7 512.8,170.8 512.9,169.1 513.1,163.4 513.3,165.4 513.5,162.2 513.6,163.7 513.8,159.8 514.0,167.8 514.2,171.7 514.3,180.9 514.5,179.9 514.7,187.1 514.9,186.0 515.0,176.8 515.2,181.0 515.4,175.4 515.6,182.3 515.7,181.3 515.9,183.1 516.1,182.6 516.3,186.6 516.4,183.3 516.6,171.8 516.8,168.2 516.9,165.6 517.1,163.8 517.3,159.1 517.5,165.5 517.6,160.5 517.8,160.8 518.0,160.7 518.2,164.2 518.3,172.4 518.5,180.8 518.7,181.3 518.9,180.5 519.0,193.4 519.2,192.5 519.4,187.1 519.6,186.8 519.7,185.1 519.9,178.3 520.1,177.7 520.3,180.3 520.4,184.3 520.6,189.4 520.8,186.1 520.9,187.2 521.1,191.5 521.3,184.4 521.5,184.7 521.6,191.6 521.8,188.2 522.0,188.6 522.2,191.5 522.3,186.1 522.5,187.0 522.7,178.2 522.9,176.5 523.0,173.7 523.2,177.5 523.4,177.2 523.6,179.5 523.7,173.8 523.9,169.3 524.1,167.5 524.3,165.4 524.4,162.5 524.6,160.7 524.8,175.5 525.0,176.4 525.1,170.8 525.3,175.0 525.5,166.8 525.6,162.3 525.8,158.4 526.0,162.1 526.2,163.1 526.3,165.8 526.5,164.9 526.7,169.0 526.9,179.6 527.0,179.7 527.2,177.7 527.4,174.4 527.6,181.8 527.7,181.7 527.9,182.1 528.1,183.3 528.3,183.2 528.4,186.3 528.6,189.6 528.8,185.2 529.0,183.4 529.1,178.8 529.3,174.6 529.5,178.4 529.6,177.5 529.8,178.7 530.0,183.6 530.2,179.5 530.3,183.9 530.5,186.9 530.7,192.4 530.9,197.0 531.0,196.9 531.2,197.8 531.4,193.7 531.6,201.3 531.7,204.4 531.9,197.8 532.1,190.7 532.3,192.1 532.4,190.4 532.6,194.8 532.8,197.3 533.0,199.3 533.1,199.5 533.3,197.2 533.5,200.0 533.7,194.6 533.8,190.7 534.0,193.7 534.2,195.5 534.3,192.2 534.5,190.1 534.7,187.7 534.9,188.9 535.0,190.2 535.2,187.4 535.4,186.6 535.6,185.9 535.7,190.9 535.9,185.9 536.1,177.5 536.3,175.4 536.4,172.7 536.6,177.7 536.8,161.3 537.0,158.0 537.1,160.9 537.3,158.8 537.5,161.9 537.7,164.9 537.8,163.1 538.0,166.1 538.2,164.4 538.3,164.7 538.5,166.1 538.7,171.4 538.9,171.6 539.0,165.0 539.2,167.0 539.4,169.1 539.6,172.0 539.7,174.6 539.9,177.3 540.1,183.3 540.3,183.6 540.4,179.6 540.6,177.6 540.8,179.0 541.0,179.8 541.1,183.3 541.3,183.8 541.5,183.0 541.7,182.4 541.8,186.7 542.0,186.4 542.2,186.0 542.4,187.7 542.5,182.8 542.7,183.8 542.9,184.0 543.0,180.0 543.2,180.0 543.4,176.6 543.6,177.0 543.7,174.7 543.9,175.2 544.1,171.9 544.3,172.1 544.4,170.7 544.6,170.6 544.8,172.7 545.0,168.6 545.1,164.0 545.3,165.9 545.5,166.2 545.7,164.8 545.8,159.6 546.0,160.6 546.2,156.1 546.4,153.8 546.5,148.3 546.7,152.4 546.9,153.5 547.0,152.2 547.2,152.3 547.4,152.0 547.6,156.5 547.7,156.5 547.9,145.0 548.1,142.3 548.3,145.5 548.4,147.0 548.6,151.6 548.8,151.9 549.0,151.4 549.1,153.5 549.3,151.7 549.5,151.7 549.7,149.1 549.8,150.8 550.0,147.5 550.2,148.7 550.4,151.3 550.5,150.8 550.7,155.6 550.9,158.9 551.1,160.0 551.2,156.2 551.4,162.1 551.6,157.4 551.7,164.3 551.9,162.0 552.1,159.0 552.3,163.5 552.4,163.6 552.6,164.3 552.8,163.0 553.0,163.2 553.1,161.0 553.3,160.5 553.5,157.3 553.7,159.7 553.8,164.2 554.0,168.0 554.2,170.1 554.4,168.2 554.5,167.3 554.7,168.4 554.9,165.9 555.1,164.4 555.2,163.7 555.4,163.8 555.6,164.0 555.7,165.8 555.9,166.9 556.1,166.5 556.3,171.0 556.4,170.3 556.6,172.0 556.8,170.3 557.0,171.2 557.1,172.5 557.3,174.5 557.5,185.3 557.7,183.4 557.8,182.6 558.0,183.4 558.2,181.3 558.4,182.2 558.5,184.4 558.7,184.0 558.9,186.9 559.1,182.8 559.2,181.4 559.4,182.0 559.6,182.0 559.8,184.7 559.9,187.4 560.1,188.5 560.3,185.2 560.4,186.4 560.6,190.8 560.8,187.8 561.0,183.0 561.1,185.0 561.3,180.5 561.5,179.7 561.7,177.8 561.8,177.0 562.0,173.9 562.2,172.6 562.4,172.8 562.5,172.5 562.7,172.2 562.9,174.0 563.1,174.6 563.2,176.2 563.4,177.8 563.6,177.2 563.8,173.5 563.9,172.6 564.1,173.0 564.3,171.3 564.5,170.0 564.6,169.4 564.8,167.5 565.0,163.8 565.1,162.2 565.3,159.8 565.5,157.0 565.7,157.1 565.8,159.0 566.0,161.4 566.2,161.8 566.4,159.8 566.5,162.3 566.7,161.4 566.9,161.2 567.1,160.5 567.2,159.8 567.4,161.4 567.6,161.5 567.8,161.1 567.9,161.1 568.1,165.5 568.3,161.0 568.5,164.8 568.6,164.3 568.8,165.5 569.0,168.2 569.1,169.8 569.3,176.0 569.5,175.0 569.7,178.0 569.8,180.3 570.0,179.7 570.2,180.0 570.4,179.0 570.5,179.6 570.7,176.9 570.9,179.3 571.1,177.6 571.2,175.8 571.4,173.1 571.6,172.0 571.8,172.2 571.9,168.0 572.1,169.9 572.3,171.0 572.5,173.3 572.6,173.6 572.8,174.6 573.0,170.5 573.2,172.5 573.3,171.1 573.5,170.8 573.7,172.3 573.8,170.7 574.0,171.7 574.2,177.2 574.4,177.1 574.5,175.5 574.7,179.2 574.9,180.0 575.1,175.4 575.2,176.2 575.4,178.1 575.6,181.8 575.8,179.1 575.9,182.5 576.1,178.4 576.3,178.6 576.5,176.8 576.6,175.7 576.8,178.4 577.0,181.2 577.2,178.9 577.3,179.0 577.5,185.3 577.7,187.8 577.8,185.3 578.0,188.6 578.2,187.0 578.4,189.0 578.5,188.9 578.7,193.6 578.9,193.1 579.1,192.0 579.2,193.5 579.4,205.8 579.6,205.4 579.8,209.7 579.9,207.9 580.1,210.3 580.3,211.9 580.5,207.6 580.6,208.3 580.8,202.8 581.0,201.6 581.2,203.1 581.3,200.3 581.5,199.9 581.7,200.8 581.9,199.7 582.0,197.7 582.2,199.5 582.4,199.3 582.5,198.8 582.7,198.0 582.9,196.4 583.1,198.0 583.2,200.8 583.4,200.7 583.6,200.8 583.8,202.2 583.9,201.1 584.1,201.4 584.3,199.8 584.5,189.7 584.6,192.0 584.8,191.8 585.0,189.7 585.2,192.8 585.3,189.4 585.5,189.5 585.7,188.9 585.9,188.6 586.0,187.5 586.2,188.5 586.4,187.9 586.5,195.7 586.7,197.0 586.9,197.1 587.1,195.6 587.2,198.8 587.4,197.9 587.6,197.0 587.8,200.7 587.9,200.9 588.1,203.5 588.3,203.3 588.5,203.4 588.6,202.0 588.8,199.7 589.0,197.7 589.2,195.7 589.3,193.6 589.5,191.7 589.7,192.7 589.9,200.1 590.0,197.1 590.2,197.1 590.4,198.9 590.6,196.2 590.7,199.2 590.9,200.2 591.1,199.2 591.2,196.7 591.4,203.2 591.6,203.2 591.8,202.8 591.9,203.4 592.1,205.1 592.3,205.3 592.5,205.0 592.6,205.8 592.8,205.4 593.0,203.6 593.2,203.7 593.3,202.7 593.5,203.3 593.7,204.1 593.9,202.8 594.0,204.6 594.2,203.7 594.4,204.5 594.6,204.0 594.7,203.8 594.9,202.4 595.1,207.2 595.2,205.8 595.4,205.0 595.6,204.9 595.8,203.3 595.9,201.2 596.1,203.7 596.3,203.2 596.5,206.7 596.6,203.9 596.8,202.5 597.0,203.6 597.2,205.9 597.3,205.3 597.5,208.5 597.7,209.3 597.9,207.4 598.0,203.5 598.2,209.0 598.4,207.8 598.6,210.0 598.7,211.7 598.9,213.1 599.1,216.7 599.3,216.8 599.4,216.3 599.6,215.7 599.8,215.5 599.9,213.9 600.1,215.7 600.3,214.2 600.5,212.5 600.6,214.4 600.8,216.2 601.0,205.0 601.2,200.8 601.3,195.9 601.5,197.8 601.7,197.5 601.9,196.9 602.0,198.1 602.2,198.2 602.4,198.0 602.6,199.6 602.7,198.8 602.9,199.0 603.1,199.3 603.3,198.8 603.4,199.6 603.6,201.6 603.8,198.4 603.9,197.6 604.1,199.9 604.3,199.3 604.5,197.4 604.6,195.5 604.8,196.7 605.0,199.8 605.2,200.2 605.3,200.0 605.5,202.4 605.7,207.1 605.9,208.5 606.0,209.6 606.2,215.4 606.4,214.5 606.6,215.0 606.7,211.3 606.9,208.6 607.1,207.4 607.3,211.2 607.4,219.2 607.6,217.2 607.8,215.2 608.0,218.0 608.1,216.6 608.3,216.1 608.5,215.6 608.6,216.3 608.8,217.1 609.0,216.4 609.2,213.4 609.3,212.1 609.5,212.7 609.7,211.1 609.9,212.5 610.0,213.5 610.2,217.4 610.4,215.9 610.6,217.8 610.7,219.9 610.9,218.8 611.1,217.6 611.3,217.4 611.4,219.1 611.6,216.7 611.8,211.5 612.0,216.3 612.1,217.1 612.3,217.1 612.5,218.7 612.7,217.3 612.8,219.1 613.0,219.6 613.2,218.6 613.3,220.0 613.5,217.6 613.7,217.3 613.9,214.5 614.0,216.0 614.2,214.6 614.4,215.7 614.6,212.7 614.7,212.9 614.9,214.7 615.1,215.8 615.3,214.6 615.4,213.7 615.6,215.7 615.8,216.6 616.0,214.5 616.1,217.9 616.3,217.1 616.5,222.2 616.7,222.1 616.8,220.0 617.0,217.3 617.2,217.5 617.3,215.5 617.5,216.3 617.7,215.1 617.9,216.1 618.0,213.7 618.2,212.9 618.4,215.1 618.6,212.6 618.7,210.0 618.9,213.0 619.1,215.1 619.3,215.8 619.4,217.3 619.6,215.4 619.8,215.2 620.0,216.4 620.1,213.9 620.3,214.8 620.5,214.0 620.7,214.3 620.8,215.8 621.0,215.3 621.2,216.0 621.4,213.4 621.5,215.7 621.7,216.3 621.9,216.5 622.0,218.2 622.2,216.8 622.4,215.3 622.6,217.0 622.7,217.1 622.9,234.1 623.1,234.7 623.3,235.3 623.4,236.3 623.6,238.3 623.8,235.7 624.0,234.9 624.1,235.3 624.3,234.7 624.5,235.0 624.7,238.0 624.8,239.5 625.0,239.8 625.2,240.6 625.4,240.0 625.5,238.9 625.7,237.5 625.9,233.7 626.0,236.2 626.2,235.9 626.4,235.9 626.6,235.1 626.7,235.6 626.9,234.7 627.1,234.0 627.3,234.3 627.4,233.3 627.6,231.9 627.8,231.2 628.0,231.7 628.1,232.5 628.3,232.5 628.5,232.7 628.7,234.3 628.8,233.8 629.0,231.3 629.2,230.4 629.4,229.8 629.5,229.6 629.7,229.2 629.9,229.5 630.1,229.0 630.2,229.3 630.4,229.0 630.6,227.8 630.7,227.2 630.9,228.6 631.1,230.6 631.3,228.9 631.4,227.7 631.6,228.5 631.8,227.9 632.0,228.1 632.1,227.2 632.3,225.9 632.5,224.3 632.7,224.9 632.8,223.9 633.0,225.8 633.2,226.0 633.4,225.7 633.5,226.3 633.7,228.8 633.9,227.8 634.1,227.9 634.2,224.9 634.4,224.0 634.6,224.2 634.7,223.2 634.9,222.1 635.1,220.8 635.3,220.0 635.4,220.2 635.6,220.5 635.8,219.1 636.0,220.4 636.1,220.3 636.3,220.5 636.5,221.1 636.7,222.3 636.8,222.6 637.0,224.1 637.2,225.8 637.4,222.6 637.5,222.6 637.7,220.2 637.9,223.7 638.1,225.3 638.2,224.5 638.4,226.7 638.6,225.2 638.8,226.0 638.9,225.8 639.1,225.9 639.3,226.3 639.4,226.3 639.6,224.3 639.8,223.5 640.0,221.7 640.1,226.6 640.3,228.9 640.5,230.4 640.7,230.9 640.8,228.6 641.0,236.1 641.2,239.4 641.4,240.8 641.5,244.4 641.7,237.4 641.9,244.4 642.1,246.4 642.2,243.4 642.4,242.5 642.6,242.6 642.8,241.2 642.9,242.2 643.1,240.4 643.3,239.0 643.4,236.5 643.6,235.3 643.8,234.9 644.0,233.0 644.1,233.8 644.3,233.9 644.5,231.1 644.7,231.4 644.8,232.2 645.0,231.2 645.2,228.2 645.4,227.0 645.5,220.1 645.7,217.5 645.9,216.6 646.1,218.5 646.2,218.2 646.4,219.5 646.6,219.3 646.8,220.0 646.9,220.0 647.1,221.3 647.3,218.0 647.5,219.0 647.6,218.5 647.8,220.3 648.0,222.3 648.1,220.1 648.3,221.5 648.5,222.1 648.7,220.5 648.8,219.7 649.0,215.3 649.2,215.6 649.4,216.3 649.5,219.6 649.7,217.0 649.9,219.2 650.1,219.1 650.2,219.9 650.4,220.7 650.6,218.0 650.8,219.4 650.9,218.7 651.1,217.5 651.3,218.3 651.5,213.5 651.6,212.8 651.8,212.3 652.0,213.0 652.2,213.8 652.3,214.6 652.5,215.0 652.7,216.8 652.8,215.2 653.0,216.8 653.2,215.7 653.4,215.5 653.5,218.3 653.7,217.2 653.9,215.9 654.1,213.2 654.2,215.2 654.4,214.6 654.6,216.0 654.8,218.3 654.9,220.4 655.1,217.7 655.3,221.9 655.5,223.0 655.6,223.1 655.8,222.6 656.0,221.7 656.2,220.1 656.3,220.3 656.5,213.5 656.7,209.3 656.8,209.9 657.0,210.0 657.2,207.9 657.4,207.3 657.5,208.7 657.7,209.8 657.9,204.1 658.1,203.6 658.2,202.1 658.4,202.0 658.6,201.6 658.8,202.6 658.9,204.2 659.1,202.5 659.3,201.3 659.5,201.4 659.6,198.8 659.8,199.0 660.0,199.7 660.2,196.8 660.3,198.1 660.5,198.1 660.7,197.6 660.9,198.0 661.0,194.5 661.2,194.6 661.4,194.5 661.5,194.4 661.7,195.0 661.9,195.4 662.1,193.3 662.2,194.0 662.4,193.3 662.6,192.1 662.8,191.8 662.9,190.9 663.1,191.4 663.3,194.7 663.5,195.8 663.6,198.2 663.8,201.0 664.0,199.6 664.2,198.2 664.3,196.9 664.5,197.1 664.7,198.1 664.9,197.3 665.0,194.2 665.2,195.8 665.4,195.1 665.5,193.4 665.7,193.5 665.9,192.8 666.1,194.0 666.2,199.0 666.4,200.4 666.6,199.5 666.8,200.8 666.9,197.0 667.1,199.1 667.3,196.9 667.5,198.4 667.6,199.7 667.8,198.2 668.0,200.5 668.2,203.5 668.3,206.3 668.5,207.8 668.7,212.6 668.9,215.4 669.0,210.1 669.2,209.1 669.4,207.0 669.6,206.4 669.7,205.4 669.9,206.2 670.1,205.5 670.2,204.6 670.4,206.9 670.6,207.0 670.8,206.0 670.9,207.0 671.1,204.0 671.3,202.1 671.5,203.7 671.6,205.6 671.8,205.5 672.0,206.5 672.2,205.3 672.3,204.3 672.5,205.8 672.7,207.0 672.9,206.4 673.0,206.3 673.2,206.4 673.4,206.3 673.6,207.4 673.7,204.1 673.9,201.2 674.1,198.3 674.2,199.0 674.4,193.0 674.6,189.9 674.8,192.5 674.9,190.5 675.1,197.9 675.3,198.3 675.5,203.9 675.6,205.9 675.8,201.6 676.0,205.4 676.2,206.9 676.3,206.1 676.5,204.7 676.7,205.0 676.9,203.6 677.0,207.9 677.2,204.8 677.4,204.5 677.6,200.6 677.7,202.4 677.9,198.7 678.1,197.3 678.3,194.8 678.4,196.8 678.6,197.8 678.8,194.8 678.9,198.1 679.1,196.7 679.3,201.3 679.5,202.6 679.6,206.3 679.8,205.2 680.0,206.9 680.2,206.1 680.3,210.9 680.5,212.4 680.7,213.9 680.9,211.1 681.0,212.8 681.2,212.1 681.4,211.9 681.6,213.0 681.7,215.4 681.9,215.7 682.1,215.1 682.3,213.7 682.4,213.0 682.6,215.7 682.8,217.0 682.9,218.5 683.1,214.5 683.3,214.6 683.5,214.6 683.6,214.5 683.8,219.9 684.0,220.5 684.2,216.6 684.3,226.8 684.5,228.3 684.7,229.2 684.9,232.2 685.0,228.7 685.2,229.5 685.4,230.2 685.6,230.6 685.7,231.0 685.9,231.8 686.1,233.1 686.3,230.2 686.4,228.5 686.6,228.6 686.8,228.5 687.0,229.1 687.1,229.6 687.3,229.6 687.5,230.9 687.6,232.0 687.8,229.3 688.0,229.0 688.2,230.3 688.3,236.9 688.5,234.1 688.7,233.7 688.9,232.6 689.0,236.1 689.2,236.7 689.4,237.7 689.6,233.1 689.7,237.5 689.9,239.4 690.1,240.0 690.3,237.2 690.4,235.4 690.6,233.4 690.8,231.4 691.0,227.1 691.1,224.6 691.3,218.7 691.5,217.8 691.6,210.5 691.8,206.4 692.0,211.8 692.2,217.8 692.3,216.8 692.5,217.9 692.7,222.5 692.9,218.7 693.0,218.5 693.2,220.5 693.4,221.8 693.6,225.7 693.7,224.6 693.9,224.7 694.1,227.7 694.3,229.1 694.4,227.0 694.6,229.3 694.8,230.8 695.0,227.8 695.1,229.3 695.3,231.2 695.5,230.1 695.7,231.3 695.8,231.7 696.0,229.9"/>
  <polyline fill="none" stroke="#16a34a" stroke-width="2" points="56.0,288.1 56.2,288.5 56.3,289.3 56.5,289.8 56.7,290.1 56.9,290.0 57.0,289.6 57.2,289.7 57.4,288.7 57.6,288.7 57.7,288.0 57.9,287.6 58.1,287.2 58.3,287.3 58.4,287.7 58.6,287.6 58.8,287.9 59.0,288.1 59.1,288.9 59.3,288.5 59.5,288.5 59.7,288.5 59.8,287.9 60.0,288.0 60.2,287.6 60.4,287.4 60.5,287.7 60.7,288.3 60.9,288.0 61.0,287.8 61.2,287.0 61.4,286.7 61.6,287.2 61.7,286.7 61.9,286.5 62.1,285.2 62.3,285.0 62.4,284.2 62.6,284.1 62.8,284.6 63.0,284.4 63.1,283.7 63.3,283.7 63.5,283.3 63.7,282.9 63.8,282.9 64.0,282.7 64.2,281.3 64.4,281.4 64.5,281.7 64.7,279.7 64.9,279.2 65.0,277.1 65.2,277.4 65.4,277.9 65.6,278.1 65.7,278.3 65.9,278.0 66.1,278.0 66.3,279.1 66.4,278.7 66.6,277.6 66.8,276.5 67.0,276.9 67.1,276.8 67.3,276.9 67.5,276.4 67.7,276.5 67.8,275.8 68.0,275.7 68.2,275.7 68.4,275.3 68.5,276.1 68.7,278.0 68.9,278.0 69.1,276.0 69.2,275.9 69.4,275.8 69.6,275.8 69.7,275.9 69.9,276.0 70.1,275.7 70.3,276.2 70.4,276.7 70.6,276.6 70.8,276.9 71.0,276.9 71.1,275.7 71.3,275.8 71.5,276.2 71.7,276.0 71.8,276.2 72.0,276.2 72.2,276.5 72.4,276.1 72.5,276.0 72.7,276.5 72.9,277.0 73.1,276.3 73.2,276.0 73.4,275.9 73.6,275.7 73.7,275.6 73.9,275.5 74.1,275.9 74.3,275.8 74.4,276.3 74.6,277.8 74.8,277.0 75.0,277.3 75.1,276.7 75.3,277.2 75.5,277.0 75.7,277.2 75.8,277.5 76.0,278.7 76.2,278.4 76.4,279.8 76.5,279.7 76.7,279.4 76.9,279.5 77.1,280.3 77.2,280.8 77.4,280.4 77.6,280.9 77.8,281.2 77.9,280.3 78.1,280.1 78.3,280.3 78.4,280.7 78.6,279.8 78.8,278.2 79.0,279.4 79.1,279.1 79.3,280.1 79.5,280.7 79.7,280.0 79.8,279.2 80.0,279.7 80.2,279.5 80.4,279.8 80.5,279.3 80.7,279.6 80.9,279.8 81.1,279.7 81.2,279.3 81.4,279.1 81.6,279.7 81.8,280.8 81.9,281.5 82.1,283.0 82.3,282.8 82.4,283.0 82.6,283.3 82.8,283.2 83.0,283.5 83.1,282.3 83.3,281.7 83.5,282.2 83.7,281.9 83.8,282.1 84.0,282.5 84.2,282.4 84.4,281.7 84.5,281.9 84.7,281.5 84.9,281.3 85.1,281.3 85.2,281.5 85.4,281.6 85.6,282.1 85.8,281.8 85.9,281.6 86.1,280.6 86.3,280.4 86.5,279.9 86.6,280.4 86.8,280.9 87.0,280.0 87.1,279.2 87.3,279.1 87.5,279.5 87.7,279.2 87.8,279.7 88.0,279.5 88.2,279.6 88.4,279.8 88.5,278.7 88.7,278.6 88.9,278.7 89.1,278.8 89.2,278.9 89.4,279.0 89.6,279.0 89.8,278.5 89.9,277.4 90.1,277.8 90.3,278.3 90.5,277.7 90.6,278.0 90.8,278.0 91.0,277.0 91.1,276.7 91.3,277.0 91.5,276.7 91.7,276.9 91.8,277.1 92.0,275.9 92.2,276.1 92.4,276.0 92.5,275.7 92.7,275.7 92.9,275.9 93.1,276.1 93.2,276.4 93.4,276.5 93.6,276.6 93.8,276.9 93.9,276.5 94.1,276.2 94.3,276.2 94.5,275.5 94.6,275.1 94.8,275.4 95.0,275.8 95.2,276.3 95.3,275.7 95.5,275.6 95.7,275.1 95.8,274.8 96.0,275.1 96.2,275.2 96.4,275.8 96.5,275.3 96.7,276.4 96.9,276.5 97.1,276.4 97.2,277.4 97.4,276.3 97.6,275.0 97.8,274.7 97.9,275.5 98.1,274.7 98.3,275.6 98.5,276.1 98.6,275.4 98.8,275.2 99.0,275.5 99.2,275.8 99.3,276.1 99.5,275.5 99.7,274.1 99.8,274.1 100.0,273.8 100.2,273.3 100.4,274.1 100.5,274.0 100.7,273.8 100.9,273.4 101.1,273.4 101.2,274.0 101.4,273.5 101.6,273.5 101.8,273.5 101.9,273.4 102.1,273.3 102.3,273.1 102.5,272.9 102.6,273.0 102.8,273.1 103.0,272.9 103.2,272.8 103.3,271.5 103.5,271.0 103.7,270.9 103.9,270.7 104.0,269.6 104.2,268.6 104.4,269.0 104.5,268.4 104.7,267.7 104.9,268.3 105.1,268.1 105.2,268.5 105.4,268.5 105.6,268.2 105.8,267.8 105.9,268.6 106.1,269.2 106.3,268.4 106.5,268.3 106.6,267.6 106.8,267.8 107.0,267.7 107.2,268.0 107.3,267.7 107.5,267.2 107.7,266.6 107.9,266.9 108.0,267.7 108.2,268.0 108.4,267.3 108.6,267.8 108.7,267.2 108.9,268.0 109.1,268.4 109.2,268.1 109.4,267.3 109.6,266.6 109.8,266.5 109.9,266.4 110.1,266.4 110.3,266.7 110.5,267.8 110.6,268.8 110.8,268.3 111.0,268.6 111.2,266.7 111.3,264.3 111.5,264.2 111.7,263.8 111.9,263.8 112.0,263.5 112.2,263.7 112.4,263.2 112.6,262.9 112.7,262.7 112.9,262.9 113.1,262.7 113.2,262.6 113.4,262.6 113.6,263.2 113.8,262.8 113.9,262.5 114.1,262.5 114.3,262.7 114.5,263.0 114.6,261.2 114.8,261.1 115.0,261.3 115.2,261.7 115.3,261.6 115.5,262.5 115.7,262.6 115.9,263.2 116.0,263.5 116.2,263.5 116.4,262.2 116.6,261.5 116.7,260.7 116.9,263.7 117.1,262.3 117.3,264.2 117.4,265.3 117.6,264.3 117.8,263.8 117.9,263.0 118.1,262.0 118.3,261.0 118.5,260.9 118.6,260.2 118.8,259.2 119.0,260.0 119.2,260.0 119.3,259.7 119.5,259.1 119.7,259.1 119.9,259.3 120.0,260.3 120.2,260.1 120.4,259.9 120.6,259.0 120.7,258.8 120.9,258.3 121.1,256.5 121.3,256.2 121.4,255.9 121.6,256.2 121.8,256.7 121.9,257.0 122.1,255.0 122.3,255.3 122.5,255.6 122.6,256.2 122.8,256.1 123.0,256.2 123.2,257.0 123.3,255.5 123.5,254.3 123.7,254.0 123.9,254.9 124.0,254.8 124.2,253.5 124.4,253.4 124.6,253.4 124.7,252.5 124.9,252.3 125.1,254.5 125.3,255.1 125.4,256.9 125.6,255.9 125.8,254.1 126.0,253.6 126.1,254.0 126.3,252.5 126.5,252.5 126.6,252.9 126.8,252.0 127.0,250.6 127.2,250.4 127.3,250.4 127.5,249.2 127.7,249.0 127.9,249.0 128.0,250.1 128.2,249.6 128.4,248.9 128.6,249.0 128.7,248.8 128.9,249.4 129.1,248.4 129.3,248.3 129.4,248.1 129.6,248.7 129.8,248.6 130.0,250.5 130.1,248.5 130.3,248.0 130.5,247.9 130.6,248.2 130.8,249.1 131.0,248.3 131.2,248.3 131.3,248.2 131.5,246.9 131.7,248.3 131.9,249.9 132.0,249.0 132.2,249.3 132.4,249.3 132.6,249.6 132.7,249.3 132.9,248.3 133.1,248.2 133.3,250.2 133.4,248.6 133.6,248.4 133.8,248.9 134.0,247.8 134.1,247.0 134.3,246.1 134.5,247.2 134.7,247.2 134.8,246.2 135.0,245.9 135.2,247.2 135.3,246.8 135.5,246.6 135.7,246.5 135.9,246.2 136.0,245.3 136.2,245.5 136.4,246.3 136.6,245.5 136.7,245.9 136.9,245.0 137.1,245.0 137.3,245.0 137.4,244.5 137.6,245.2 137.8,246.0 138.0,245.5 138.1,245.7 138.3,247.9 138.5,247.9 138.7,245.8 138.8,246.3 139.0,246.2 139.2,246.8 139.3,244.2 139.5,243.1 139.7,243.2 139.9,243.7 140.0,243.8 140.2,245.6 140.4,245.2 140.6,245.4 140.7,246.6 140.9,247.1 141.1,247.1 141.3,246.4 141.4,246.0 141.6,245.5 141.8,249.0 142.0,248.0 142.1,250.1 142.3,248.5 142.5,249.2 142.7,248.8 142.8,248.0 143.0,246.7 143.2,245.4 143.4,245.9 143.5,247.6 143.7,246.8 143.9,245.6 144.0,245.6 144.2,245.9 144.4,245.8 144.6,245.4 144.7,244.8 144.9,245.7 145.1,246.4 145.3,246.1 145.4,246.1 145.6,245.0 145.8,245.2 146.0,244.2 146.1,245.9 146.3,245.6 146.5,244.8 146.7,243.6 146.8,243.4 147.0,243.0 147.2,244.4 147.4,245.1 147.5,243.8 147.7,243.2 147.9,243.1 148.1,243.4 148.2,243.3 148.4,243.0 148.6,243.8 148.7,244.0 148.9,244.0 149.1,242.8 149.3,242.3 149.4,242.4 149.6,241.4 149.8,242.9 150.0,240.9 150.1,240.4 150.3,240.6 150.5,240.0 150.7,239.7 150.8,239.4 151.0,240.5 151.2,243.2 151.4,243.6 151.5,243.1 151.7,243.4 151.9,242.0 152.1,242.1 152.2,244.2 152.4,243.1 152.6,242.0 152.7,241.4 152.9,240.4 153.1,240.2 153.3,239.7 153.4,238.4 153.6,238.3 153.8,238.4 154.0,237.4 154.1,237.2 154.3,236.5 154.5,236.3 154.7,235.6 154.8,235.7 155.0,235.2 155.2,235.5 155.4,235.5 155.5,235.9 155.7,235.2 155.9,236.4 156.1,235.1 156.2,235.4 156.4,235.2 156.6,234.1 156.8,234.8 156.9,236.5 157.1,237.4 157.3,235.6 157.4,234.4 157.6,234.8 157.8,234.4 158.0,235.4 158.1,235.9 158.3,236.8 158.5,236.9 158.7,236.6 158.8,235.3 159.0,234.0 159.2,232.1 159.4,231.4 159.5,231.8 159.7,234.1 159.9,236.3 160.1,236.1 160.2,233.5 160.4,235.4 160.6,237.5 160.8,236.6 160.9,236.6 161.1,236.3 161.3,234.8 161.4,234.0 161.6,232.9 161.8,233.0 162.0,233.5 162.1,235.6 162.3,236.4 162.5,235.9 162.7,235.2 162.8,234.9 163.0,234.0 163.2,233.9 163.4,234.7 163.5,234.4 163.7,235.4 163.9,235.2 164.1,234.6 164.2,234.5 164.4,235.1 164.6,236.2 164.8,236.2 164.9,235.3 165.1,235.2 165.3,234.4 165.5,234.0 165.6,231.5 165.8,231.1 166.0,232.2 166.1,232.5 166.3,232.6 166.5,232.9 166.7,231.9 166.8,231.5 167.0,230.9 167.2,230.7 167.4,231.3 167.5,231.6 167.7,232.4 167.9,234.6 168.1,233.9 168.2,234.2 168.4,234.3 168.6,233.9 168.8,234.6 168.9,234.6 169.1,235.2 169.3,234.4 169.5,233.9 169.6,233.7 169.8,233.3 170.0,233.0 170.1,231.7 170.3,231.7 170.5,231.3 170.7,232.0 170.8,232.2 171.0,231.8 171.2,232.1 171.4,232.0 171.5,231.8 171.7,232.1 171.9,232.6 172.1,233.7 172.2,233.1 172.4,233.5 172.6,232.8 172.8,233.0 172.9,233.1 173.1,232.9 173.3,232.7 173.5,233.9 173.6,234.3 173.8,235.3 174.0,235.2 174.2,234.1 174.3,233.3 174.5,233.8 174.7,234.7 174.8,233.3 175.0,233.8 175.2,234.1 175.4,233.6 175.5,232.7 175.7,233.1 175.9,232.3 176.1,231.8 176.2,230.8 176.4,230.8 176.6,230.8 176.8,230.7 176.9,231.5 177.1,232.1 177.3,232.3 177.5,232.0 177.6,231.2 177.8,231.5 178.0,231.2 178.2,231.0 178.3,229.9 178.5,230.1 178.7,230.5 178.8,231.0 179.0,231.3 179.2,232.6 179.4,234.7 179.5,235.5 179.7,236.3 179.9,236.8 180.1,237.3 180.2,238.1 180.4,237.9 180.6,238.2 180.8,238.4 180.9,239.9 181.1,241.6 181.3,241.8 181.5,240.2 181.6,239.4 181.8,239.1 182.0,240.0 182.2,239.6 182.3,241.1 182.5,242.7 182.7,245.1 182.9,241.4 183.0,241.3 183.2,240.4 183.4,239.6 183.5,239.1 183.7,237.4 183.9,238.0 184.1,236.5 184.2,235.3 184.4,235.2 184.6,232.9 184.8,234.2 184.9,234.2 185.1,232.7 185.3,232.6 185.5,233.3 185.6,231.6 185.8,231.0 186.0,232.0 186.2,231.7 186.3,231.3 186.5,231.0 186.7,230.7 186.9,230.7 187.0,230.5 187.2,229.5 187.4,230.3 187.5,230.2 187.7,229.4 187.9,228.3 188.1,229.3 188.2,229.5 188.4,228.1 188.6,228.2 188.8,227.8 188.9,226.7 189.1,227.6 189.3,227.6 189.5,228.3 189.6,228.2 189.8,230.5 190.0,230.2 190.2,231.8 190.3,231.4 190.5,232.1 190.7,230.4 190.9,228.6 191.0,227.5 191.2,227.2 191.4,227.0 191.6,227.5 191.7,227.3 191.9,227.1 192.1,227.7 192.2,228.4 192.4,228.5 192.6,232.2 192.8,232.7 192.9,232.1 193.1,230.1 193.3,231.3 193.5,232.8 193.6,234.3 193.8,234.9 194.0,234.9 194.2,235.5 194.3,234.5 194.5,233.1 194.7,232.4 194.9,231.9 195.0,232.0 195.2,231.8 195.4,233.7 195.6,232.5 195.7,233.0 195.9,230.6 196.1,228.3 196.3,228.3 196.4,224.7 196.6,223.2 196.8,223.2 196.9,221.5 197.1,222.3 197.3,222.2 197.5,221.4 197.6,221.7 197.8,221.7 198.0,220.6 198.2,220.8 198.3,220.8 198.5,221.3 198.7,220.1 198.9,221.0 199.0,221.3 199.2,219.7 199.4,219.9 199.6,219.0 199.7,219.8 199.9,221.0 200.1,221.1 200.3,222.7 200.4,223.5 200.6,222.3 200.8,223.6 200.9,221.9 201.1,222.0 201.3,220.9 201.5,220.9 201.6,220.0 201.8,220.1 202.0,220.8 202.2,222.9 202.3,223.5 202.5,222.8 202.7,220.8 202.9,220.2 203.0,221.2 203.2,218.5 203.4,215.5 203.6,216.6 203.7,216.2 203.9,215.0 204.1,214.4 204.3,215.3 204.4,215.1 204.6,215.6 204.8,215.2 205.0,216.1 205.1,216.0 205.3,216.4 205.5,216.6 205.6,216.2 205.8,215.8 206.0,216.7 206.2,216.8 206.3,217.7 206.5,216.4 206.7,214.9 206.9,212.9 207.0,215.1 207.2,214.7 207.4,215.4 207.6,213.7 207.7,214.3 207.9,213.4 208.1,213.7 208.3,212.3 208.4,211.5 208.6,211.5 208.8,211.6 209.0,212.0 209.1,211.4 209.3,211.8 209.5,212.7 209.6,211.6 209.8,211.1 210.0,211.8 210.2,212.0 210.3,211.2 210.5,210.2 210.7,211.7 210.9,211.4 211.0,212.0 211.2,212.3 211.4,210.3 211.6,210.9 211.7,211.1 211.9,211.4 212.1,211.0 212.3,209.6 212.4,209.4 212.6,209.3 212.8,209.6 213.0,210.0 213.1,210.7 213.3,209.8 213.5,209.9 213.7,214.6 213.8,214.0 214.0,212.9 214.2,212.9 214.3,214.3 214.5,215.2 214.7,222.0 214.9,222.3 215.0,220.8 215.2,219.9 215.4,219.7 215.6,219.1 215.7,223.6 215.9,222.3 216.1,222.2 216.3,221.8 216.4,222.8 216.6,222.4 216.8,223.0 217.0,225.3 217.1,223.0 217.3,221.8 217.5,222.8 217.7,222.1 217.8,223.2 218.0,222.4 218.2,222.8 218.3,223.0 218.5,220.9 218.7,218.6 218.9,222.6 219.0,224.2 219.2,223.4 219.4,224.3 219.6,222.6 219.7,222.4 219.9,223.4 220.1,226.2 220.3,229.1 220.4,230.9 220.6,231.3 220.8,227.5 221.0,225.7 221.1,225.3 221.3,225.1 221.5,229.2 221.7,228.3 221.8,227.7 222.0,229.2 222.2,225.1 222.4,224.9 222.5,225.4 222.7,224.1 222.9,224.2 223.0,223.2 223.2,220.3 223.4,220.8 223.6,222.6 223.7,223.1 223.9,226.4 224.1,226.8 224.3,228.2 224.4,227.7 224.6,231.1 224.8,228.1 225.0,224.5 225.1,222.9 225.3,222.3 225.5,221.5 225.7,222.2 225.8,220.2 226.0,218.9 226.2,217.7 226.4,217.8 226.5,220.1 226.7,219.7 226.9,219.0 227.0,218.6 227.2,218.1 227.4,217.3 227.6,217.7 227.7,214.6 227.9,214.0 228.1,214.1 228.3,214.9 228.4,212.8 228.6,219.9 228.8,216.2 229.0,214.8 229.1,215.9 229.3,216.6 229.5,216.1 229.7,216.1 229.8,217.2 230.0,216.4 230.2,215.4 230.4,216.8 230.5,219.6 230.7,218.6 230.9,219.1 231.1,217.5 231.2,215.3 231.4,212.7 231.6,212.5 231.7,211.8 231.9,210.9 232.1,211.1 232.3,210.8 232.4,209.9 232.6,212.2 232.8,213.1 233.0,210.8 233.1,212.3 233.3,213.5 233.5,214.8 233.7,214.8 233.8,217.6 234.0,217.4 234.2,215.6 234.4,213.2 234.5,215.9 234.7,215.8 234.9,215.2 235.1,214.4 235.2,211.6 235.4,212.0 235.6,211.6 235.7,211.0 235.9,212.3 236.1,213.3 236.3,215.3 236.4,218.0 236.6,220.5 236.8,225.7 237.0,227.4 237.1,224.7 237.3,225.8 237.5,231.4 237.7,232.2 237.8,234.5 238.0,234.6 238.2,236.5 238.4,237.2 238.5,237.3 238.7,238.2 238.9,235.8 239.1,235.9 239.2,238.3 239.4,237.4 239.6,235.7 239.8,238.5 239.9,240.2 240.1,240.6 240.3,243.8 240.4,246.6 240.6,245.9 240.8,244.4 241.0,244.7 241.1,241.7 241.3,239.5 241.5,236.2 241.7,236.9 241.8,237.2 242.0,236.1 242.2,238.0 242.4,238.9 242.5,235.4 242.7,235.3 242.9,235.4 243.1,232.8 243.2,232.8 243.4,230.6 243.6,229.8 243.8,230.8 243.9,232.8 244.1,232.6 244.3,233.4 244.5,231.2 244.6,231.5 244.8,230.4 245.0,229.0 245.1,227.9 245.3,228.5 245.5,228.8 245.7,227.7 245.8,228.6 246.0,228.8 246.2,228.9 246.4,227.0 246.5,225.8 246.7,225.7 246.9,227.2 247.1,230.6 247.2,230.4 247.4,229.6 247.6,230.1 247.8,229.7 247.9,228.5 248.1,228.8 248.3,224.1 248.5,223.2 248.6,224.3 248.8,224.0 249.0,223.7 249.1,223.8 249.3,224.6 249.5,224.9 249.7,224.5 249.8,222.4 250.0,223.4 250.2,225.7 250.4,227.3 250.5,227.2 250.7,227.8 250.9,231.4 251.1,232.3 251.2,231.0 251.4,231.5 251.6,230.0 251.8,231.2 251.9,231.9 252.1,233.3 252.3,233.2 252.5,234.9 252.6,234.7 252.8,236.3 253.0,235.3 253.2,235.9 253.3,233.8 253.5,233.9 253.7,234.8 253.8,234.1 254.0,233.9 254.2,234.9 254.4,233.5 254.5,234.9 254.7,234.4 254.9,233.5 255.1,232.6 255.2,232.8 255.4,234.6 255.6,236.3 255.8,237.2 255.9,236.4 256.1,235.9 256.3,235.6 256.5,231.9 256.6,232.5 256.8,232.7 257.0,230.7 257.2,240.7 257.3,244.2 257.5,242.3 257.7,240.0 257.8,240.1 258.0,238.9 258.2,242.9 258.4,242.1 258.5,240.0 258.7,237.5 258.9,237.1 259.1,235.4 259.2,235.0 259.4,234.8 259.6,234.9 259.8,234.9 259.9,235.3 260.1,233.6 260.3,233.0 260.5,233.4 260.6,233.5 260.8,232.2 261.0,232.4 261.2,234.2 261.3,234.1 261.5,234.1 261.7,237.0 261.9,238.4 262.0,239.1 262.2,235.9 262.4,236.6 262.5,236.7 262.7,237.1 262.9,236.9 263.1,238.5 263.2,237.6 263.4,237.9 263.6,237.4 263.8,237.3 263.9,237.0 264.1,237.3 264.3,234.0 264.5,233.1 264.6,233.1 264.8,232.0 265.0,230.6 265.2,231.1 265.3,230.8 265.5,231.2 265.7,231.3 265.9,231.0 266.0,231.2 266.2,230.8 266.4,233.8 266.5,232.7 266.7,233.6 266.9,233.3 267.1,232.6 267.2,231.8 267.4,232.0 267.6,232.9 267.8,232.1 267.9,231.3 268.1,232.1 268.3,233.0 268.5,233.4 268.6,230.8 268.8,231.9 269.0,230.0 269.2,230.1 269.3,230.7 269.5,229.5 269.7,230.3 269.9,231.4 270.0,231.6 270.2,234.1 270.4,234.2 270.6,236.3 270.7,236.2 270.9,235.7 271.1,238.4 271.2,237.2 271.4,238.0 271.6,238.6 271.8,238.2 271.9,239.4 272.1,238.2 272.3,238.0 272.5,237.7 272.6,237.3 272.8,237.1 273.0,235.4 273.2,235.8 273.3,235.3 273.5,232.5 273.7,231.4 273.9,236.7 274.0,235.6 274.2,237.1 274.4,235.5 274.6,235.3 274.7,235.6 274.9,233.8 275.1,233.6 275.2,233.1 275.4,235.0 275.6,234.9 275.8,234.4 275.9,235.8 276.1,239.2 276.3,238.5 276.5,236.6 276.6,238.8 276.8,238.8 277.0,236.3 277.2,231.1 277.3,230.0 277.5,229.8 277.7,232.3 277.9,231.5 278.0,232.9 278.2,232.6 278.4,233.7 278.6,234.2 278.7,234.7 278.9,232.5 279.1,234.7 279.3,234.1 279.4,233.8 279.6,234.7 279.8,234.6 279.9,234.6 280.1,234.4 280.3,231.5 280.5,232.0 280.6,232.5 280.8,233.8 281.0,231.0 281.2,229.7 281.3,230.3 281.5,229.6 281.7,229.6 281.9,229.8 282.0,229.2 282.2,230.8 282.4,231.5 282.6,229.8 282.7,227.6 282.9,229.4 283.1,230.4 283.3,231.9 283.4,231.5 283.6,230.4 283.8,227.5 283.9,227.2 284.1,227.2 284.3,226.8 284.5,227.0 284.6,227.2 284.8,226.5 285.0,224.6 285.2,224.6 285.3,224.3 285.5,225.5 285.7,225.2 285.9,224.7 286.0,224.4 286.2,224.6 286.4,223.8 286.6,223.2 286.7,224.4 286.9,223.7 287.1,222.9 287.3,223.2 287.4,224.7 287.6,224.6 287.8,223.8 288.0,224.2 288.1,223.3 288.3,219.7 288.5,218.7 288.6,217.2 288.8,217.3 289.0,217.8 289.2,218.6 289.3,222.0 289.5,221.4 289.7,221.5 289.9,221.2 290.0,220.5 290.2,219.5 290.4,219.3 290.6,218.7 290.7,219.3 290.9,221.9 291.1,224.6 291.3,225.6 291.4,225.6 291.6,225.6 291.8,225.1 292.0,225.8 292.1,226.6 292.3,227.2 292.5,226.1 292.7,226.5 292.8,225.3 293.0,222.4 293.2,223.9 293.3,220.8 293.5,220.6 293.7,220.8 293.9,220.0 294.0,219.4 294.2,219.9 294.4,221.7 294.6,211.8 294.7,210.5 294.9,211.0 295.1,211.3 295.3,210.3 295.4,210.9 295.6,211.9 295.8,212.1 296.0,212.1 296.1,211.7 296.3,213.9 296.5,213.9 296.7,213.1 296.8,211.7 297.0,212.5 297.2,212.3 297.3,212.2 297.5,211.2 297.7,212.2 297.9,210.6 298.0,209.2 298.2,209.4 298.4,210.5 298.6,209.6 298.7,210.4 298.9,212.9 299.1,213.3 299.3,213.9 299.4,212.2 299.6,213.0 299.8,213.0 300.0,214.1 300.1,212.4 300.3,214.9 300.5,213.2 300.7,213.2 300.8,212.9 301.0,212.3 301.2,212.4 301.4,211.8 301.5,212.4 301.7,211.0 301.9,210.8 302.0,210.7 302.2,212.1 302.4,209.3 302.6,207.2 302.7,206.2 302.9,205.3 303.1,206.2 303.3,206.6 303.4,206.0 303.6,206.4 303.8,204.9 304.0,204.7 304.1,207.2 304.3,207.7 304.5,207.2 304.7,207.5 304.8,207.7 305.0,208.3 305.2,207.8 305.4,208.5 305.5,207.1 305.7,205.0 305.9,204.6 306.0,204.3 306.2,203.7 306.4,205.0 306.6,207.0 306.7,205.6 306.9,204.2 307.1,204.4 307.3,203.5 307.4,205.5 307.6,205.7 307.8,204.9 308.0,203.4 308.1,203.4 308.3,203.0 308.5,203.3 308.7,203.1 308.8,203.3 309.0,202.4 309.2,200.9 309.4,199.4 309.5,200.6 309.7,200.5 309.9,200.3 310.1,200.5 310.2,199.6 310.4,199.2 310.6,199.0 310.7,199.1 310.9,196.4 311.1,196.0 311.3,195.6 311.4,195.3 311.6,195.5 311.8,193.4 312.0,192.7 312.1,193.1 312.3,198.1 312.5,199.3 312.7,198.5 312.8,196.7 313.0,197.1 313.2,194.0 313.4,194.0 313.5,196.1 313.7,196.5 313.9,198.3 314.1,197.5 314.2,198.9 314.4,199.6 314.6,199.0 314.7,199.9 314.9,199.3 315.1,199.4 315.3,200.3 315.4,199.3 315.6,198.7 315.8,199.7 316.0,197.7 316.1,198.1 316.3,198.7 316.5,197.4 316.7,197.4 316.8,197.5 317.0,200.3 317.2,199.8 317.4,199.9 317.5,200.9 317.7,201.8 317.9,202.1 318.1,201.8 318.2,196.3 318.4,198.8 318.6,197.6 318.8,198.2 318.9,194.2 319.1,194.3 319.3,195.8 319.4,195.7 319.6,195.8 319.8,194.7 320.0,194.3 320.1,191.2 320.3,192.6 320.5,191.7 320.7,189.8 320.8,194.5 321.0,195.9 321.2,194.7 321.4,193.8 321.5,194.1 321.7,197.0 321.9,197.7 322.1,195.9 322.2,196.1 322.4,194.2 322.6,193.8 322.8,195.1 322.9,195.3 323.1,195.2 323.3,195.4 323.4,194.3 323.6,195.3 323.8,193.5 324.0,191.5 324.1,189.6 324.3,185.9 324.5,185.4 324.7,184.3 324.8,187.5 325.0,185.2 325.2,184.1 325.4,184.6 325.5,183.2 325.7,183.8 325.9,183.2 326.1,183.2 326.2,184.2 326.4,183.2 326.6,184.7 326.8,181.9 326.9,181.3 327.1,181.7 327.3,181.3 327.5,179.8 327.6,182.3 327.8,186.5 328.0,184.5 328.1,183.0 328.3,189.1 328.5,190.1 328.7,186.1 328.8,187.0 329.0,184.4 329.2,183.5 329.4,184.8 329.5,184.9 329.7,184.6 329.9,184.0 330.1,183.9 330.2,181.6 330.4,184.5 330.6,186.3 330.8,191.2 330.9,190.0 331.1,189.7 331.3,188.2 331.5,188.9 331.6,188.5 331.8,185.0 332.0,186.1 332.2,186.9 332.3,189.1 332.5,189.5 332.7,189.0 332.8,191.0 333.0,191.1 333.2,190.7 333.4,196.7 333.5,200.3 333.7,195.0 333.9,196.0 334.1,198.1 334.2,195.1 334.4,199.8 334.6,198.4 334.8,196.1 334.9,193.8 335.1,196.7 335.3,196.9 335.5,193.6 335.6,194.5 335.8,193.8 336.0,194.3 336.2,192.4 336.3,190.7 336.5,191.3 336.7,193.6 336.8,193.2 337.0,192.9 337.2,193.9 337.4,194.7 337.5,191.7 337.7,193.6 337.9,195.6 338.1,195.7 338.2,188.1 338.4,186.6 338.6,184.5 338.8,183.6 338.9,183.1 339.1,182.0 339.3,179.7 339.5,179.5 339.6,180.2 339.8,179.8 340.0,177.2 340.2,176.7 340.3,177.9 340.5,176.8 340.7,176.8 340.9,177.2 341.0,177.5 341.2,177.5 341.4,179.5 341.5,179.1 341.7,177.7 341.9,175.5 342.1,175.0 342.2,174.1 342.4,172.9 342.6,173.3 342.8,173.1 342.9,171.7 343.1,171.5 343.3,172.0 343.5,170.6 343.6,170.5 343.8,170.2 344.0,173.5 344.2,174.8 344.3,178.0 344.5,179.5 344.7,181.0 344.9,181.3 345.0,183.6 345.2,185.4 345.4,185.8 345.5,185.1 345.7,186.8 345.9,183.8 346.1,182.2 346.2,180.4 346.4,179.3 346.6,183.9 346.8,183.8 346.9,183.1 347.1,183.2 347.3,179.3 347.5,178.7 347.6,181.2 347.8,184.0 348.0,184.3 348.2,183.6 348.3,180.9 348.5,183.6 348.7,183.1 348.9,184.6 349.0,176.9 349.2,179.9 349.4,178.7 349.6,176.4 349.7,177.0 349.9,176.4 350.1,176.9 350.2,178.8 350.4,181.8 350.6,184.3 350.8,182.5 350.9,186.7 351.1,185.6 351.3,184.3 351.5,181.9 351.6,182.9 351.8,187.0 352.0,189.4 352.2,190.2 352.3,185.3 352.5,185.2 352.7,187.0 352.9,189.6 353.0,190.9 353.2,192.2 353.4,194.7 353.6,195.3 353.7,196.0 353.9,194.3 354.1,195.1 354.2,195.2 354.4,193.6 354.6,192.4 354.8,194.4 354.9,193.6 355.1,191.8 355.3,188.4 355.5,187.7 355.6,190.9 355.8,195.3 356.0,195.5 356.2,196.2 356.3,196.6 356.5,196.3 356.7,195.1 356.9,194.9 357.0,198.0 357.2,203.3 357.4,202.4 357.6,206.7 357.7,208.0 357.9,210.4 358.1,210.3 358.3,210.8 358.4,209.9 358.6,210.3 358.8,210.0 358.9,209.9 359.1,209.9 359.3,207.1 359.5,211.8 359.6,210.1 359.8,210.7 360.0,207.2 360.2,210.1 360.3,206.4 360.5,205.5 360.7,202.7 360.9,207.4 361.0,207.0 361.2,204.3 361.4,205.2 361.6,208.0 361.7,209.6 361.9,208.9 362.1,208.9 362.3,208.7 362.4,210.0 362.6,212.7 362.8,214.4 362.9,211.3 363.1,211.7 363.3,209.7 363.5,214.3 363.6,212.3 363.8,213.8 364.0,213.2 364.2,209.3 364.3,213.6 364.5,216.0 364.7,219.9 364.9,222.3 365.0,220.3 365.2,219.5 365.4,220.4 365.6,221.4 365.7,223.5 365.9,225.0 366.1,226.9 366.3,226.4 366.4,227.7 366.6,229.6 366.8,227.3 367.0,227.0 367.1,227.8 367.3,227.5 367.5,228.1 367.6,229.1 367.8,226.1 368.0,224.7 368.2,220.0 368.3,216.5 368.5,215.5 368.7,216.6 368.9,215.3 369.0,216.1 369.2,215.3 369.4,214.3 369.6,211.8 369.7,213.4 369.9,215.5 370.1,213.3 370.3,211.7 370.4,211.6 370.6,212.5 370.8,210.6 371.0,203.2 371.1,204.7 371.3,203.9 371.5,203.8 371.6,204.4 371.8,207.2 372.0,207.9 372.2,207.4 372.3,205.9 372.5,202.6 372.7,202.5 372.9,200.7 373.0,200.2 373.2,199.6 373.4,200.4 373.6,198.7 373.7,197.7 373.9,198.1 374.1,197.4 374.3,197.7 374.4,196.0 374.6,196.5 374.8,196.4 375.0,198.6 375.1,199.0 375.3,199.5 375.5,198.4 375.7,198.5 375.8,198.7 376.0,200.4 376.2,199.3 376.3,200.6 376.5,198.1 376.7,201.4 376.9,200.7 377.0,205.3 377.2,204.7 377.4,203.4 377.6,205.1 377.7,203.6 377.9,202.7 378.1,198.4 378.3,197.9 378.4,195.1 378.6,193.0 378.8,192.3 379.0,190.2 379.1,191.6 379.3,190.1 379.5,189.4 379.7,187.0 379.8,188.5 380.0,187.9 380.2,187.1 380.4,187.6 380.5,188.5 380.7,188.8 380.9,189.6 381.0,194.4 381.2,192.9 381.4,193.9 381.6,194.1 381.7,196.9 381.9,202.3 382.1,201.7 382.3,202.4 382.4,202.8 382.6,202.4 382.8,204.9 383.0,205.8 383.1,211.2 383.3,209.3 383.5,208.8 383.7,210.7 383.8,210.8 384.0,212.0 384.2,212.5 384.4,216.7 384.5,219.0 384.7,218.9 384.9,217.1 385.0,217.8 385.2,217.7 385.4,224.1 385.6,220.2 385.7,215.1 385.9,212.4 386.1,211.8 386.3,211.1 386.4,207.9 386.6,207.3 386.8,209.1 387.0,207.4 387.1,208.4 387.3,207.7 387.5,206.4 387.7,206.3 387.8,204.1 388.0,204.2 388.2,204.3 388.4,204.6 388.5,203.5 388.7,200.5 388.9,200.8 389.1,201.0 389.2,202.5 389.4,202.9 389.6,203.1 389.7,206.4 389.9,207.4 390.1,205.4 390.3,205.1 390.4,201.7 390.6,200.9 390.8,202.0 391.0,204.2 391.1,203.8 391.3,201.8 391.5,201.8 391.7,198.9 391.8,196.9 392.0,199.3 392.2,198.6 392.4,198.9 392.5,199.8 392.7,191.4 392.9,196.9 393.1,197.5 393.2,200.6 393.4,197.5 393.6,197.1 393.7,194.4 393.9,197.1 394.1,198.4 394.3,197.0 394.4,202.6 394.6,203.1 394.8,199.4 395.0,197.0 395.1,198.9 395.3,197.2 395.5,197.1 395.7,202.1 395.8,200.8 396.0,200.6 396.2,198.3 396.4,197.4 396.5,197.6 396.7,199.8 396.9,196.2 397.1,190.6 397.2,189.8 397.4,187.7 397.6,187.0 397.8,186.6 397.9,186.5 398.1,187.9 398.3,188.7 398.4,188.6 398.6,188.8 398.8,188.8 399.0,192.2 399.1,190.9 399.3,192.7 399.5,190.8 399.7,191.3 399.8,192.4 400.0,191.7 400.2,194.9 400.4,198.9 400.5,198.4 400.7,197.2 400.9,196.4 401.1,201.2 401.2,199.4 401.4,197.6 401.6,193.3 401.8,192.8 401.9,190.8 402.1,189.3 402.3,189.4 402.4,189.5 402.6,189.0 402.8,187.6 403.0,189.0 403.1,189.5 403.3,188.7 403.5,188.0 403.7,187.6 403.8,184.7 404.0,188.7 404.2,184.8 404.4,180.3 404.5,180.9 404.7,180.4 404.9,179.1 405.1,178.6 405.2,179.7 405.4,180.9 405.6,185.8 405.8,185.0 405.9,184.9 406.1,184.9 406.3,186.5 406.5,188.8 406.6,189.5 406.8,186.1 407.0,182.5 407.1,181.4 407.3,181.6 407.5,182.7 407.7,181.9 407.8,185.6 408.0,184.8 408.2,183.4 408.4,182.9 408.5,184.0 408.7,184.3 408.9,184.0 409.1,180.0 409.2,183.2 409.4,181.2 409.6,180.0 409.8,177.2 409.9,177.2 410.1,179.3 410.3,180.4 410.5,181.3 410.6,180.2 410.8,179.4 411.0,180.8 411.1,181.2 411.3,179.4 411.5,182.4 411.7,184.8 411.8,186.5 412.0,183.8 412.2,185.7 412.4,188.8 412.5,189.7 412.7,189.5 412.9,191.0 413.1,186.4 413.2,186.0 413.4,186.7 413.6,186.5 413.8,184.9 413.9,186.0 414.1,190.0 414.3,188.6 414.5,188.3 414.6,191.3 414.8,195.3 415.0,192.7 415.2,187.4 415.3,187.4 415.5,190.5 415.7,192.1 415.8,191.8 416.0,187.0 416.2,186.0 416.4,187.4 416.5,190.4 416.7,190.8 416.9,187.1 417.1,186.6 417.2,188.0 417.4,196.4 417.6,200.4 417.8,200.4 417.9,204.8 418.1,204.6 418.3,199.0 418.5,201.2 418.6,197.7 418.8,204.0 419.0,207.1 419.2,217.3 419.3,211.9 419.5,219.7 419.7,230.5 419.8,220.7 420.0,242.0 420.2,245.9 420.4,266.4 420.5,256.6 420.7,250.3 420.9,248.4 421.1,244.2 421.2,242.5 421.4,236.2 421.6,241.8 421.8,243.7 421.9,244.6 422.1,249.2 422.3,249.7 422.5,252.9 422.6,243.7 422.8,238.7 423.0,229.4 423.2,226.6 423.3,228.7 423.5,225.8 423.7,228.5 423.9,230.6 424.0,224.3 424.2,230.3 424.4,232.0 424.5,229.0 424.7,228.7 424.9,225.9 425.1,222.1 425.2,220.4 425.4,213.5 425.6,216.5 425.8,221.7 425.9,223.8 426.1,221.9 426.3,222.5 426.5,222.4 426.6,218.4 426.8,220.4 427.0,223.5 427.2,228.6 427.3,225.3 427.5,224.1 427.7,215.6 427.9,215.8 428.0,213.5 428.2,213.7 428.4,213.2 428.6,208.0 428.7,205.3 428.9,210.8 429.1,208.4 429.2,206.6 429.4,202.4 429.6,197.4 429.8,196.9 429.9,193.9 430.1,191.6 430.3,207.6 430.5,198.6 430.6,211.7 430.8,208.0 431.0,208.1 431.2,207.3 431.3,207.4 431.5,206.7 431.7,205.1 431.9,204.0 432.0,203.7 432.2,209.4 432.4,206.6 432.6,210.1 432.7,208.0 432.9,204.9 433.1,208.3 433.2,206.4 433.4,204.1 433.6,206.0 433.8,206.5 433.9,208.4 434.1,207.1 434.3,206.6 434.5,204.5 434.6,199.5 434.8,198.8 435.0,199.5 435.2,199.3 435.3,199.4 435.5,198.2 435.7,198.7 435.9,198.8 436.0,197.0 436.2,199.0 436.4,196.9 436.6,201.3 436.7,205.1 436.9,202.4 437.1,200.6 437.3,196.6 437.4,195.7 437.6,196.6 437.8,193.0 437.9,189.7 438.1,188.8 438.3,190.0 438.5,190.4 438.6,190.7 438.8,191.9 439.0,194.5 439.2,195.7 439.3,196.6 439.5,194.3 439.7,194.5 439.9,194.4 440.0,194.6 440.2,191.9 440.4,193.5 440.6,192.2 440.7,188.1 440.9,192.6 441.1,193.4 441.3,195.5 441.4,194.1 441.6,196.3 441.8,195.7 441.9,193.8 442.1,193.6 442.3,195.1 442.5,197.4 442.6,189.6 442.8,195.6 443.0,195.7 443.2,196.5 443.3,196.0 443.5,193.1 443.7,188.1 443.9,185.4 444.0,185.8 444.2,182.6 444.4,183.2 444.6,178.1 444.7,181.9 444.9,175.4 445.1,177.1 445.3,176.9 445.4,176.7 445.6,179.7 445.8,180.1 446.0,177.5 446.1,176.7 446.3,175.1 446.5,174.0 446.6,175.1 446.8,174.0 447.0,173.8 447.2,176.7 447.3,179.4 447.5,183.2 447.7,176.6 447.9,179.1 448.0,177.2 448.2,171.8 448.4,175.3 448.6,167.6 448.7,168.0 448.9,165.0 449.1,162.0 449.3,158.9 449.4,162.0 449.6,160.5 449.8,154.2 450.0,154.2 450.1,153.4 450.3,152.9 450.5,154.4 450.6,151.2 450.8,144.2 451.0,148.6 451.2,143.9 451.3,148.3 451.5,143.4 451.7,145.1 451.9,144.9 452.0,141.9 452.2,141.7 452.4,142.3 452.6,141.3 452.7,140.8 452.9,143.4 453.1,144.2 453.3,142.9 453.4,142.6 453.6,139.7 453.8,140.5 454.0,141.9 454.1,139.5 454.3,134.9 454.5,134.8 454.7,135.2 454.8,135.3 455.0,131.6 455.2,132.2 455.3,133.3 455.5,127.9 455.7,121.4 455.9,112.1 456.0,111.1 456.2,111.7 456.4,103.4 456.6,110.4 456.7,112.9 456.9,115.0 457.1,115.2 457.3,111.7 457.4,113.4 457.6,119.5 457.8,120.2 458.0,124.7 458.1,135.5 458.3,127.9 458.5,127.7 458.7,120.5 458.8,117.0 459.0,114.4 459.2,115.8 459.3,108.9 459.5,106.6 459.7,107.3 459.9,105.1 460.0,99.4 460.2,96.2 460.4,97.9 460.6,95.8 460.7,105.8 460.9,99.6 461.1,95.2 461.3,102.6 461.4,97.7 461.6,108.5 461.8,105.1 462.0,98.3 462.1,99.1 462.3,97.2 462.5,109.9 462.7,110.2 462.8,112.4 463.0,113.9 463.2,106.7 463.4,101.4 463.5,103.7 463.7,101.0 463.9,108.6 464.0,100.4 464.2,106.4 464.4,110.5 464.6,111.8 464.7,119.5 464.9,119.0 465.1,115.1 465.3,117.9 465.4,125.6 465.6,122.5 465.8,121.7 466.0,117.8 466.1,116.0 466.3,112.8 466.5,117.8 466.7,118.6 466.8,115.4 467.0,114.4 467.2,117.1 467.4,115.7 467.5,116.2 467.7,117.3 467.9,118.3 468.1,125.7 468.2,119.9 468.4,120.3 468.6,112.0 468.7,111.6 468.9,109.5 469.1,109.2 469.3,112.5 469.4,113.4 469.6,114.0 469.8,119.1 470.0,114.7 470.1,116.8 470.3,106.6 470.5,113.5 470.7,117.9 470.8,126.6 471.0,123.0 471.2,119.9 471.4,120.1 471.5,122.5 471.7,123.1 471.9,122.5 472.1,118.1 472.2,116.8 472.4,116.2 472.6,114.1 472.7,103.7 472.9,104.3 473.1,98.1 473.3,98.0 473.4,96.6 473.6,91.4 473.8,94.9 474.0,92.1 474.1,93.4 474.3,97.2 474.5,95.5 474.7,94.6 474.8,95.2 475.0,98.9 475.2,103.0 475.4,108.7 475.5,104.3 475.7,102.6 475.9,101.1 476.1,97.8 476.2,96.9 476.4,98.4 476.6,93.4 476.8,94.8 476.9,92.8 477.1,91.2 477.3,94.4 477.4,99.4 477.6,103.1 477.8,97.1 478.0,93.1 478.1,94.5 478.3,96.9 478.5,99.9 478.7,105.3 478.8,108.8 479.0,100.6 479.2,96.5 479.4,98.7 479.5,94.7 479.7,91.4 479.9,92.6 480.1,87.8 480.2,80.4 480.4,81.6 480.6,80.4 480.8,78.4 480.9,83.1 481.1,91.5 481.3,86.7 481.4,83.7 481.6,77.5 481.8,79.8 482.0,82.0 482.1,84.2 482.3,85.2 482.5,93.5 482.7,95.8 482.8,100.9 483.0,98.5 483.2,97.7 483.4,94.3 483.5,94.6 483.7,99.1 483.9,96.0 484.1,100.6 484.2,101.9 484.4,103.0 484.6,103.4 484.8,105.0 484.9,104.1 485.1,107.6 485.3,106.4 485.5,109.9 485.6,107.3 485.8,105.2 486.0,99.0 486.1,106.1 486.3,109.9 486.5,114.0 486.7,115.6 486.8,111.6 487.0,101.1 487.2,103.5 487.4,99.1 487.5,99.1 487.7,104.0 487.9,106.3 488.1,101.2 488.2,94.3 488.4,93.7 488.6,94.2 488.8,84.4 488.9,84.0 489.1,90.8 489.3,86.9 489.5,84.3 489.6,80.9 489.8,78.9 490.0,80.2 490.1,81.9 490.3,78.6 490.5,77.9 490.7,79.4 490.8,76.8 491.0,78.3 491.2,78.3 491.4,74.3 491.5,73.2 491.7,69.2 491.9,70.8 492.1,65.9 492.2,66.8 492.4,70.2 492.6,72.7 492.8,73.8 492.9,75.2 493.1,78.6 493.3,76.5 493.5,74.2 493.6,70.8 493.8,68.2 494.0,68.5 494.2,68.8 494.3,69.6 494.5,76.8 494.7,77.8 494.8,86.3 495.0,83.4 495.2,90.6 495.4,91.1 495.5,83.1 495.7,87.8 495.9,84.9 496.1,80.5 496.2,76.7 496.4,81.6 496.6,78.6 496.8,86.9 496.9,89.9 497.1,84.9 497.3,88.1 497.5,93.2 497.6,100.3 497.8,93.8 498.0,89.9 498.2,87.7 498.3,86.3 498.5,87.4 498.7,86.6 498.8,86.7 499.0,84.2 499.2,82.7 499.4,74.1 499.5,79.6 499.7,71.5 499.9,77.9 500.1,84.0 500.2,91.5 500.4,91.3 500.6,93.0 500.8,101.3 500.9,105.5 501.1,110.6 501.3,116.0 501.5,118.5 501.6,118.9 501.8,124.4 502.0,125.4 502.2,129.9 502.3,131.3 502.5,123.5 502.7,118.8 502.9,119.1 503.0,130.1 503.2,129.6 503.4,131.5 503.5,126.8 503.7,119.8 503.9,124.4 504.1,127.1 504.2,123.5 504.4,113.8 504.6,110.1 504.8,114.4 504.9,117.2 505.1,122.2 505.3,128.1 505.5,126.8 505.6,124.3 505.8,133.4 506.0,149.2 506.2,144.1 506.3,150.8 506.5,166.1 506.7,177.5 506.9,174.0 507.0,167.8 507.2,166.4 507.4,165.7 507.5,168.0 507.7,163.1 507.9,151.1 508.1,152.5 508.2,148.3 508.4,151.8 508.6,148.9 508.8,149.4 508.9,148.2 509.1,149.0 509.3,148.1 509.5,138.0 509.6,143.5 509.8,146.9 510.0,147.8 510.2,148.3 510.3,156.5 510.5,158.4 510.7,160.1 510.9,162.6 511.0,162.9 511.2,159.2 511.4,161.9 511.6,163.8 511.7,166.2 511.9,159.7 512.1,158.9 512.2,161.1 512.4,165.3 512.6,163.7 512.8,170.8 512.9,169.1 513.1,163.4 513.3,165.4 513.5,162.2 513.6,163.7 513.8,159.8 514.0,167.8 514.2,171.7 514.3,180.9 514.5,179.9 514.7,187.1 514.9,186.0 515.0,176.8 515.2,181.0 515.4,175.4 515.6,182.3 515.7,181.3 515.9,183.1 516.1,182.6 516.3,186.6 516.4,183.3 516.6,171.8 516.8,168.2 516.9,165.6 517.1,163.8 517.3,159.1 517.5,165.5 517.6,160.5 517.8,160.8 518.0,160.7 518.2,164.2 518.3,172.4 518.5,180.8 518.7,181.3 518.9,180.5 519.0,193.4 519.2,192.5 519.4,187.1 519.6,186.8 519.7,185.1 519.9,178.3 520.1,177.7 520.3,180.3 520.4,184.3 520.6,189.4 520.8,186.1 520.9,187.2 521.1,191.5 521.3,184.4 521.5,184.7 521.6,191.6 521.8,188.2 522.0,188.6 522.2,191.5 522.3,186.1 522.5,187.0 522.7,178.2 522.9,176.5 523.0,173.7 523.2,177.5 523.4,177.2 523.6,179.5 523.7,173.8 523.9,169.3 524.1,167.5 524.3,165.4 524.4,162.5 524.6,160.7 524.8,175.5 525.0,176.4 525.1,170.8 525.3,175.0 525.5,166.8 525.6,162.3 525.8,158.4 526.0,162.1 526.2,163.1 526.3,165.8 526.5,164.9 526.7,169.0 526.9,179.6 527.0,179.7 527.2,177.7 527.4,174.4 527.6,181.8 527.7,181.7 527.9,182.1 528.1,183.3 528.3,183.2 528.4,186.3 528.6,189.6 528.8,185.2 529.0,183.4 529.1,178.8 529.3,174.6 529.5,178.4 529.6,177.5 529.8,178.7 530.0,183.6 530.2,179.5 530.3,183.9 530.5,186.9 530.7,192.4 530.9,197.0 531.0,196.9 531.2,197.8 531.4,193.7 531.6,201.3 531.7,204.4 531.9,197.8 532.1,190.7 532.3,192.1 532.4,190.4 532.6,194.8 532.8,197.3 533.0,199.3 533.1,199.5 533.3,197.2 533.5,200.0 533.7,194.6 533.8,190.7 534.0,193.7 534.2,195.5 534.3,192.2 534.5,190.1 534.7,187.7 534.9,188.9 535.0,190.2 535.2,187.4 535.4,186.6 535.6,185.9 535.7,190.9 535.9,185.9 536.1,177.5 536.3,175.4 536.4,172.7 536.6,177.7 536.8,161.3 537.0,158.0 537.1,160.9 537.3,158.8 537.5,161.9 537.7,164.9 537.8,163.1 538.0,166.1 538.2,164.4 538.3,164.7 538.5,166.1 538.7,171.4 538.9,171.6 539.0,165.0 539.2,167.0 539.4,169.1 539.6,172.0 539.7,174.6 539.9,177.3 540.1,183.3 540.3,183.6 540.4,179.6 540.6,177.6 540.8,179.0 541.0,179.8 541.1,183.3 541.3,183.8 541.5,183.0 541.7,182.4 541.8,186.7 542.0,186.4 542.2,186.0 542.4,187.7 542.5,182.8 542.7,183.8 542.9,184.0 543.0,180.0 543.2,180.0 543.4,176.6 543.6,177.0 543.7,174.7 543.9,175.2 544.1,171.9 544.3,172.1 544.4,170.7 544.6,170.6 544.8,172.7 545.0,168.6 545.1,164.0 545.3,165.9 545.5,166.2 545.7,164.8 545.8,159.6 546.0,160.6 546.2,156.1 546.4,153.8 546.5,148.3 546.7,152.4 546.9,153.5 547.0,152.2 547.2,152.3 547.4,152.0 547.6,156.5 547.7,156.5 547.9,145.0 548.1,142.3 548.3,145.5 548.4,147.0 548.6,151.6 548.8,151.9 549.0,151.4 549.1,153.5 549.3,151.7 549.5,151.7 549.7,149.1 549.8,150.8 550.0,147.5 550.2,148.7 550.4,151.3 550.5,150.8 550.7,155.6 550.9,158.9 551.1,160.0 551.2,156.2 551.4,162.1 551.6,157.4 551.7,164.3 551.9,162.0 552.1,159.0 552.3,163.5 552.4,163.6 552.6,164.3 552.8,163.0 553.0,163.2 553.1,161.0 553.3,160.5 553.5,157.3 553.7,159.7 553.8,164.2 554.0,168.0 554.2,170.1 554.4,168.2 554.5,167.3 554.7,168.4 554.9,165.9 555.1,164.4 555.2,163.7 555.4,163.8 555.6,164.0 555.7,165.8 555.9,166.9 556.1,166.5 556.3,171.0 556.4,170.3 556.6,172.0 556.8,170.3 557.0,171.2 557.1,172.5 557.3,174.5 557.5,185.3 557.7,183.4 557.8,182.6 558.0,183.4 558.2,181.3 558.4,182.2 558.5,184.4 558.7,184.0 558.9,186.9 559.1,182.8 559.2,181.4 559.4,182.0 559.6,182.0 559.8,184.7 559.9,187.4 560.1,188.5 560.3,185.2 560.4,186.4 560.6,190.8 560.8,187.8 561.0,183.0 561.1,185.0 561.3,180.5 561.5,179.7 561.7,177.8 561.8,177.0 562.0,173.9 562.2,172.6 562.4,172.8 562.5,172.5 562.7,172.2 562.9,174.0 563.1,174.6 563.2,176.2 563.4,177.8 563.6,177.2 563.8,173.5 563.9,172.6 564.1,173.0 564.3,171.3 564.5,170.0 564.6,169.4 564.8,167.5 565.0,163.8 565.1,162.2 565.3,159.8 565.5,157.0 565.7,157.1 565.8,159.0 566.0,161.4 566.2,161.8 566.4,159.8 566.5,162.3 566.7,161.4 566.9,161.2 567.1,160.5 567.2,159.8 567.4,161.4 567.6,161.5 567.8,161.1 567.9,161.1 568.1,165.5 568.3,161.0 568.5,164.8 568.6,164.3 568.8,165.5 569.0,168.2 569.1,169.8 569.3,176.0 569.5,175.0 569.7,178.0 569.8,180.3 570.0,179.7 570.2,180.0 570.4,179.0 570.5,179.6 570.7,176.9 570.9,179.3 571.1,177.6 571.2,175.8 571.4,173.1 571.6,172.0 571.8,172.2 571.9,168.0 572.1,169.9 572.3,171.0 572.5,173.3 572.6,173.6 572.8,174.6 573.0,170.5 573.2,172.5 573.3,171.1 573.5,170.8 573.7,172.3 573.8,170.7 574.0,171.7 574.2,177.2 574.4,177.1 574.5,175.5 574.7,179.2 574.9,180.0 575.1,175.4 575.2,176.2 575.4,178.1 575.6,181.8 575.8,179.1 575.9,182.5 576.1,178.4 576.3,178.6 576.5,176.8 576.6,175.7 576.8,178.4 577.0,181.2 577.2,178.9 577.3,179.0 577.5,185.3 577.7,187.8 577.8,185.3 578.0,188.6 578.2,187.0 578.4,189.0 578.5,188.9 578.7,193.6 578.9,193.1 579.1,192.0 579.2,193.5 579.4,205.8 579.6,205.4 579.8,209.7 579.9,207.9 580.1,210.3 580.3,211.9 580.5,207.6 580.6,208.3 580.8,202.8 581.0,201.6 581.2,203.1 581.3,200.3 581.5,199.9 581.7,200.8 581.9,199.7 582.0,197.7 582.2,199.5 582.4,199.3 582.5,198.8 582.7,198.0 582.9,196.4 583.1,198.0 583.2,200.8 583.4,200.7 583.6,200.8 583.8,202.2 583.9,201.1 584.1,201.4 584.3,199.8 584.5,189.7 584.6,192.0 584.8,191.8 585.0,189.7 585.2,192.8 585.3,189.4 585.5,189.5 585.7,188.9 585.9,188.6 586.0,187.5 586.2,188.5 586.4,187.9 586.5,195.7 586.7,197.0 586.9,197.1 587.1,195.6 587.2,198.8 587.4,197.9 587.6,197.0 587.8,200.7 587.9,200.9 588.1,203.5 588.3,203.3 588.5,203.4 588.6,202.0 588.8,199.7 589.0,197.7 589.2,195.7 589.3,193.6 589.5,191.7 589.7,192.7 589.9,200.1 590.0,197.1 590.2,197.1 590.4,198.9 590.6,196.2 590.7,199.2 590.9,200.2 591.1,199.2 591.2,196.7 591.4,203.2 591.6,203.2 591.8,202.8 591.9,203.4 592.1,205.1 592.3,205.3 592.5,205.0 592.6,205.8 592.8,205.4 593.0,203.6 593.2,203.7 593.3,202.7 593.5,203.3 593.7,204.1 593.9,202.8 594.0,204.6 594.2,203.7 594.4,204.5 594.6,204.0 594.7,203.8 594.9,202.4 595.1,207.2 595.2,205.8 595.4,205.0 595.6,204.9 595.8,203.3 595.9,201.2 596.1,203.7 596.3,203.2 596.5,206.7 596.6,203.9 596.8,202.5 597.0,203.6 597.2,205.9 597.3,205.3 597.5,208.5 597.7,209.3 597.9,207.4 598.0,203.5 598.2,209.0 598.4,207.8 598.6,210.0 598.7,211.7 598.9,213.1 599.1,216.7 599.3,216.8 599.4,216.3 599.6,215.7 599.8,215.5 599.9,213.9 600.1,215.7 600.3,214.2 600.5,212.5 600.6,214.4 600.8,216.2 601.0,205.0 601.2,200.8 601.3,195.9 601.5,197.8 601.7,197.5 601.9,196.9 602.0,198.1 602.2,198.2 602.4,198.0 602.6,199.6 602.7,198.8 602.9,199.0 603.1,199.3 603.3,198.8 603.4,199.6 603.6,201.6 603.8,198.4 603.9,197.6 604.1,199.9 604.3,199.3 604.5,197.4 604.6,195.5 604.8,196.7 605.0,199.8 605.2,200.2 605.3,200.0 605.5,202.4 605.7,207.1 605.9,208.5 606.0,209.6 606.2,215.4 606.4,214.5 606.6,215.0 606.7,211.3 606.9,208.6 607.1,207.4 607.3,211.2 607.4,219.2 607.6,217.2 607.8,215.2 608.0,218.0 608.1,216.6 608.3,216.1 608.5,215.6 608.6,216.3 608.8,217.1 609.0,216.4 609.2,213.4 609.3,212.1 609.5,212.7 609.7,211.1 609.9,212.5 610.0,213.5 610.2,217.4 610.4,215.9 610.6,217.8 610.7,219.9 610.9,218.8 611.1,217.6 611.3,217.4 611.4,219.1 611.6,216.7 611.8,211.5 612.0,216.3 612.1,217.1 612.3,217.1 612.5,218.7 612.7,217.3 612.8,219.1 613.0,219.6 613.2,218.6 613.3,220.0 613.5,217.6 613.7,217.3 613.9,214.5 614.0,216.0 614.2,214.6 614.4,215.7 614.6,212.7 614.7,212.9 614.9,214.7 615.1,215.8 615.3,214.6 615.4,213.7 615.6,215.7 615.8,216.6 616.0,214.5 616.1,217.9 616.3,217.1 616.5,222.2 616.7,222.1 616.8,220.0 617.0,217.3 617.2,217.5 617.3,215.5 617.5,216.3 617.7,215.1 617.9,216.1 618.0,213.7 618.2,212.9 618.4,215.1 618.6,212.6 618.7,210.0 618.9,213.0 619.1,215.1 619.3,215.8 619.4,217.3 619.6,215.4 619.8,215.2 620.0,216.4 620.1,213.9 620.3,214.8 620.5,214.0 620.7,214.3 620.8,215.8 621.0,215.3 621.2,216.0 621.4,213.4 621.5,215.7 621.7,216.3 621.9,216.5 622.0,218.2 622.2,216.8 622.4,215.3 622.6,217.0 622.7,217.1 622.9,234.1 623.1,234.7 623.3,235.3 623.4,236.3 623.6,238.3 623.8,235.7 624.0,234.9 624.1,235.3 624.3,234.7 624.5,235.0 624.7,238.0 624.8,239.5 625.0,239.8 625.2,240.6 625.4,240.0 625.5,238.9 625.7,237.5 625.9,233.7 626.0,236.2 626.2,235.9 626.4,235.9 626.6,235.1 626.7,235.6 626.9,234.7 627.1,234.0 627.3,234.3 627.4,233.3 627.6,231.9 627.8,231.2 628.0,231.7 628.1,232.5 628.3,232.5 628.5,232.7 628.7,234.3 628.8,233.8 629.0,231.3 629.2,230.4 629.4,229.8 629.5,229.6 629.7,229.2 629.9,229.5 630.1,229.0 630.2,229.3 630.4,229.0 630.6,227.8 630.7,227.2 630.9,228.6 631.1,230.6 631.3,228.9 631.4,227.7 631.6,228.5 631.8,227.9 632.0,228.1 632.1,227.2 632.3,225.9 632.5,224.3 632.7,224.9 632.8,223.9 633.0,225.8 633.2,226.0 633.4,225.7 633.5,226.3 633.7,228.8 633.9,227.8 634.1,227.9 634.2,224.9 634.4,224.0 634.6,224.2 634.7,223.2 634.9,222.1 635.1,220.8 635.3,220.0 635.4,220.2 635.6,220.5 635.8,219.1 636.0,220.4 636.1,220.3 636.3,220.5 636.5,221.1 636.7,222.3 636.8,222.6 637.0,224.1 637.2,225.8 637.4,222.6 637.5,222.6 637.7,220.2 637.9,223.7 638.1,225.3 638.2,224.5 638.4,226.7 638.6,225.2 638.8,226.0 638.9,225.8 639.1,225.9 639.3,226.3 639.4,226.3 639.6,224.3 639.8,223.5 640.0,221.7 640.1,226.6 640.3,228.9 640.5,230.4 640.7,230.9 640.8,228.6 641.0,236.1 641.2,239.4 641.4,240.8 641.5,244.4 641.7,237.4 641.9,244.4 642.1,246.4 642.2,243.4 642.4,242.5 642.6,242.6 642.8,241.2 642.9,242.2 643.1,240.4 643.3,239.0 643.4,236.5 643.6,235.3 643.8,234.9 644.0,233.0 644.1,233.8 644.3,233.9 644.5,231.1 644.7,231.4 644.8,232.2 645.0,231.2 645.2,228.2 645.4,227.0 645.5,220.1 645.7,217.5 645.9,216.6 646.1,218.5 646.2,218.2 646.4,219.5 646.6,219.3 646.8,220.0 646.9,220.0 647.1,221.3 647.3,218.0 647.5,219.0 647.6,218.5 647.8,220.3 648.0,222.3 648.1,220.1 648.3,221.5 648.5,222.1 648.7,220.5 648.8,219.7 649.0,215.3 649.2,215.6 649.4,216.3 649.5,219.6 649.7,217.0 649.9,219.2 650.1,219.1 650.2,219.9 650.4,220.7 650.6,218.0 650.8,219.4 650.9,218.7 651.1,217.5 651.3,218.3 651.5,213.5 651.6,212.8 651.8,212.3 652.0,213.0 652.2,213.8 652.3,214.6 652.5,215.0 652.7,216.8 652.8,215.2 653.0,216.8 653.2,215.7 653.4,215.5 653.5,218.3 653.7,217.2 653.9,215.9 654.1,213.2 654.2,215.2 654.4,214.6 654.6,216.0 654.8,218.3 654.9,220.4 655.1,217.7 655.3,221.9 655.5,223.0 655.6,223.1 655.8,222.6 656.0,221.7 656.2,220.1 656.3,220.3 656.5,213.5 656.7,209.3 656.8,209.9 657.0,210.0 657.2,207.9 657.4,207.3 657.5,208.7 657.7,209.8 657.9,204.1 658.1,203.6 658.2,202.1 658.4,202.0 658.6,201.6 658.8,202.6 658.9,204.2 659.1,202.5 659.3,201.3 659.5,201.4 659.6,198.8 659.8,199.0 660.0,199.7 660.2,196.8 660.3,198.1 660.5,198.1 660.7,197.6 660.9,198.0 661.0,194.5 661.2,194.6 661.4,194.5 661.5,194.4 661.7,195.0 661.9,195.4 662.1,193.3 662.2,194.0 662.4,193.3 662.6,192.1 662.8,191.8 662.9,190.9 663.1,191.4 663.3,194.7 663.5,195.8 663.6,198.2 663.8,201.0 664.0,199.6 664.2,198.2 664.3,196.9 664.5,197.1 664.7,198.1 664.9,197.3 665.0,194.2 665.2,195.8 665.4,195.1 665.5,193.4 665.7,193.5 665.9,192.8 666.1,194.0 666.2,199.0 666.4,200.4 666.6,199.5 666.8,200.8 666.9,197.0 667.1,199.1 667.3,196.9 667.5,198.4 667.6,199.7 667.8,198.2 668.0,200.5 668.2,203.5 668.3,206.3 668.5,207.8 668.7,212.6 668.9,215.4 669.0,210.1 669.2,209.1 669.4,207.0 669.6,206.4 669.7,205.4 669.9,206.2 670.1,205.5 670.2,204.6 670.4,206.9 670.6,207.0 670.8,206.0 670.9,207.0 671.1,204.0 671.3,202.1 671.5,203.7 671.6,205.6 671.8,205.5 672.0,206.5 672.2,205.3 672.3,204.3 672.5,205.8 672.7,207.0 672.9,206.4 673.0,206.3 673.2,206.4 673.4,206.3 673.6,207.4 673.7,204.1 673.9,201.2 674.1,198.3 674.2,199.0 674.4,193.0 674.6,189.9 674.8,192.5 674.9,190.5 675.1,197.9 675.3,198.3 675.5,203.9 675.6,205.9 675.8,201.6 676.0,205.4 676.2,206.9 676.3,206.1 676.5,204.7 676.7,205.0 676.9,203.6 677.0,207.9 677.2,204.8 677.4,204.5 677.6,200.6 677.7,202.4 677.9,198.7 678.1,197.3 678.3,194.8 678.4,196.8 678.6,197.8 678.8,194.8 678.9,198.1 679.1,196.7 679.3,201.3 679.5,202.6 679.6,206.3 679.8,205.2 680.0,206.9 680.2,206.1 680.3,210.9 680.5,212.4 680.7,213.9 680.9,211.1 681.0,212.8 681.2,212.1 681.4,211.9 681.6,213.0 681.7,215.4 681.9,215.7 682.1,215.1 682.3,213.7 682.4,213.0 682.6,215.7 682.8,217.0 682.9,218.5 683.1,214.5 683.3,214.6 683.5,214.6 683.6,214.5 683.8,219.9 684.0,220.5 684.2,216.6 684.3,226.8 684.5,228.3 684.7,229.2 684.9,232.2 685.0,228.7 685.2,229.5 685.4,230.2 685.6,230.6 685.7,231.0 685.9,231.8 686.1,233.1 686.3,230.2 686.4,228.5 686.6,228.6 686.8,228.5 687.0,229.1 687.1,229.6 687.3,229.6 687.5,230.9 687.6,232.0 687.8,229.3 688.0,229.0 688.2,230.3 688.3,236.9 688.5,234.1 688.7,233.7 688.9,232.6 689.0,236.1 689.2,236.7 689.4,237.7 689.6,233.1 689.7,237.5 689.9,239.4 690.1,240.0 690.3,237.2 690.4,235.4 690.6,233.4 690.8,231.4 691.0,227.1 691.1,224.6 691.3,218.7 691.5,217.8 691.6,210.5 691.8,206.4 692.0,211.8 692.2,217.8 692.3,216.8 692.5,217.9 692.7,222.5 692.9,218.7 693.0,218.5 693.2,220.5 693.4,221.8 693.6,225.7 693.7,224.6 693.9,224.7 694.1,227.7 694.3,229.1 694.4,227.0 694.6,229.3 694.8,230.8 695.0,227.8 695.1,229.3 695.3,231.2 695.5,230.1 695.7,231.3 695.8,231.7 696.0,229.9"/>
  <text x="60" y="62" font-size="11" fill="#2563eb">Price index</text>
  <text x="146" y="62" font-size="11" fill="#16a34a">Total return (price + distributions)</text>
  <text x="56" y="348" font-size="11" text-anchor="middle" fill="#444">2011-11</text><text x="216" y="348" font-size="11" text-anchor="middle" fill="#444">2015-07</text><text x="376" y="348" font-size="11" text-anchor="middle" fill="#444">2019-03</text><text x="536" y="348" font-size="11" text-anchor="middle" fill="#444">2022-11</text><text x="696" y="348" font-size="11" text-anchor="middle" fill="#444">2026-07</text>
</svg>
