<svg xmlns="http://www.w3.org/2000/svg" width="720" height="360" viewBox="0 0 720 360">
  <rect width="720" height="360" fill="#fafafa"/>
  <text x="56" y="22" font-size="13" font-family="sans-serif" fill="#222">IDA.AX total return (rebased 100) · cumulative distributions $0.00/sh · market cap $17.4M</text>
  <line x1="56" y1="308" x2="696" y2="308" stroke="#ccc"/>
  <line x1="56" y1="48" x2="56" y2="308" stroke="#ccc"/>
  <polyline fill="none" stroke="#2563eb" stroke-width="2" points="56.0,107.4 58.7,135.9 61.3,160.2 64.0,141.6 66.7,125.9 69.3,100.2 72.0,93.1 74.7,113.1 77.3,118.8 80.0,105.9 82.7,121.6 85.3,115.9 88.0,101.6 90.7,155.9 93.3,147.4 96.0,143.1 98.7,101.6 101.3,87.4 104.0,128.8 106.7,124.5 109.3,147.4 112.0,137.4 114.7,121.6 117.3,127.4 120.0,164.5 122.7,155.9 125.3,187.4 128.0,204.5 130.7,217.4 133.3,233.1 136.0,241.6 138.7,230.2 141.3,227.4 144.0,214.5 146.7,224.5 149.3,223.1 152.0,204.5 154.7,213.1 157.3,210.2 160.0,203.1 162.7,185.9 165.3,177.4 168.0,161.6 170.7,158.8 173.3,175.9 176.0,144.5 178.7,167.4 181.3,174.5 184.0,165.9 186.7,170.2 189.3,165.9 192.0,161.6 194.7,141.6 197.3,95.9 200.0,65.9 202.7,103.1 205.3,114.5 208.0,130.2 210.7,147.4 213.3,170.2 216.0,150.2 218.7,165.9 221.3,187.4 224.0,183.1 226.7,207.4 229.3,201.6 232.0,208.8 234.7,207.4 237.3,191.6 240.0,204.5 242.7,218.8 245.3,238.8 248.0,233.1 250.7,250.2 253.3,250.2 256.0,248.8 258.7,258.8 261.3,243.1 264.0,251.6 266.7,254.5 269.3,258.8 272.0,267.4 274.7,270.2 277.3,273.1 280.0,267.1 282.7,268.2 285.3,267.4 288.0,273.6 290.7,275.4 293.3,275.4 296.0,274.8 298.7,275.9 301.3,280.2 304.0,278.8 306.7,275.1 309.3,283.9 312.0,280.2 314.7,282.2 317.3,283.9 320.0,283.6 322.7,286.8 325.3,286.8 328.0,287.1 330.7,286.8 333.3,287.1 336.0,287.1 338.7,287.1 341.3,286.8 344.0,286.8 346.7,286.5 349.3,288.2 352.0,288.2 354.7,287.9 357.3,289.1 360.0,289.1 362.7,289.1 365.3,289.1 368.0,289.1 370.7,289.1 373.3,289.6 376.0,289.5 378.7,289.4 381.3,289.5 384.0,289.6 386.7,289.7 389.3,289.8 392.0,289.7 394.7,289.7 397.3,289.4 400.0,289.6 402.7,289.7 405.3,289.7 408.0,289.8 410.7,289.9 413.3,289.9 416.0,289.7 418.7,289.8 421.3,289.8 424.0,289.9 426.7,289.8 429.3,289.9 432.0,289.9 434.7,289.8 437.3,289.8 440.0,289.9 442.7,289.9 445.3,289.9 448.0,289.9 450.7,289.9 453.3,289.9 456.0,289.9 458.7,289.9 461.3,289.9 464.0,290.0 466.7,290.0 469.3,290.0 472.0,290.0 474.7,290.1 477.3,290.0 480.0,290.1 482.7,290.0 485.3,290.0 488.0,290.0 490.7,290.1 493.3,290.1 496.0,290.0 498.7,290.0 501.3,290.0 504.0,290.0 506.7,290.0 509.3,289.9 512.0,289.8 514.7,289.8 517.3,289.8 520.0,289.8 522.7,289.6 525.3,289.7 528.0,289.7 530.7,289.7 533.3,289.7 536.0,289.8 538.7,289.8 541.3,289.8 544.0,289.8 546.7,289.8 549.3,289.8 552.0,289.8 554.7,289.8 557.3,289.8 560.0,289.8 562.7,289.8 565.3,289.9 568.0,289.9 570.7,289.8 573.3,289.8 576.0,289.8 578.7,289.9 581.3,289.9 584.0,289.8 586.7,289.9 589.3,289.9 592.0,290.0 594.7,289.9 597.3,289.9 600.0,289.8 602.7,289.8 605.3,289.8 608.0,289.9 610.7,289.8 613.3,289.7 616.0,289.7 618.7,289.7 621.3,289.7 624.0,289.7 626.7,289.7 629.3,289.7 632.0,289.7 634.7,289.6 637.3,289.6 640.0,289.5 642.7,289.5 645.3,289.8 648.0,289.7 650.7,289.7 653.3,289.7 656.0,289.7 658.7,289.7 661.3,289.7 664.0,289.6 666.7,289.9 669.3,289.9 672.0,289.9 674.7,290.0 677.3,289.9 680.0,289.9 682.7,289.9 685.3,290.0 688.0,290.0 690.7,290.0 693.3,290.0 696.0,290.0"/>
  <polyline fill="none" stroke="#16a34a" stroke-width="2" points="56.0,107.4 58.7,135.9 61.3,160.2 64.0,141.6 66.7,125.9 69.3,100.2 72.0,93.1 74.7,113.1 77.3,118.8 80.0,105.9 82.7,121.6 85.3,115.9 88.0,101.6 90.7,155.9 93.3,147.4 96.0,143.1 98.7,101.6 101.3,87.4 104.0,128.8 106.7,124.5 109.3,147.4 112.0,137.4 114.7,121.6 117.3,127.4 120.0,164.5 122.7,155.9 125.3,187.4 128.0,204.5 130.7,217.4 133.3,233.1 136.0,241.6 138.7,230.2 141.3,227.4 144.0,214.5 146.7,224.5 149.3,223.1 152.0,204.5 154.7,213.1 157.3,210.2 160.0,203.1 162.7,185.9 165.3,177.4 168.0,161.6 170.7,158.8 173.3,175.9 176.0,144.5 178.7,167.4 181.3,174.5 184.0,165.9 186.7,170.2 189.3,165.9 192.0,161.6 194.7,141.6 197.3,95.9 200.0,65.9 202.7,103.1 205.3,114.5 208.0,130.2 210.7,147.4 213.3,170.2 216.0,150.2 218.7,165.9 221.3,187.4 224.0,183.1 226.7,207.4 229.3,201.6 232.0,208.8 234.7,207.4 237.3,191.6 240.0,204.5 242.7,218.8 245.3,238.8 248.0,233.1 250.7,250.2 253.3,250.2 256.0,248.8 258.7,258.8 261.3,243.1 264.0,251.6 266.7,254.5 269.3,258.8 272.0,267.4 274.7,270.2 277.3,273.1 280.0,267.1 282.7,268.2 285.3,267.4 288.0,273.6 290.7,275.4 293.3,275.4 296.0,274.8 298.7,275.9 301.3,280.2 304.0,278.8 306.7,275.1 309.3,283.9 312.0,280.2 314.7,282.2 317.3,283.9 320.0,283.6 322.7,286.8 325.3,286.8 328.0,287.1 330.7,286.8 333.3,287.1 336.0,287.1 338.7,287.1 341.3,286.8 344.0,286.8 346.7,286.5 349.3,288.2 352.0,288.2 354.7,287.9 357.3,289.1 360.0,289.1 362.7,289.1 365.3,289.1 368.0,289.1 370.7,289.1 373.3,289.6 376.0,289.5 378.7,289.4 381.3,289.5 384.0,289.6 386.7,289.7 389.3,289.8 392.0,289.7 394.7,289.7 397.3,289.4 400.0,289.6 402.7,289.7 405.3,289.7 408.0,289.8 410.7,289.9 413.3,289.9 416.0,289.7 418.7,289.8 421.3,289.8 424.0,289.9 426.7,289.8 429.3,289.9 432.0,289.9 434.7,289.8 437.3,289.8 440.0,289.9 442.7,289.9 445.3,289.9 448.0,289.9 450.7,289.9 453.3,289.9 456.0,289.9 458.7,289.9 461.3,289.9 464.0,290.0 466.7,290.0 469.3,290.0 472.0,290.0 474.7,290.1 477.3,290.0 480.0,290.1 482.7,290.0 485.3,290.0 488.0,290.0 490.7,290.1 493.3,290.1 496.0,290.0 498.7,290.0 501.3,290.0 504.0,290.0 506.7,290.0 509.3,289.9 512.0,289.8 514.7,289.8 517.3,289.8 520.0,289.8 522.7,289.6 525.3,289.7 528.0,289.7 530.7,289.7 533.3,289.7 536.0,289.8 538.7,289.8 541.3,289.8 544.0,289.8 546.7,289.8 549.3,289.8 552.0,289.8 554.7,289.8 557.3,289.8 560.0,289.8 562.7,289.8 565.3,289.9 568.0,289.9 570.7,289.8 573.3,289.8 576.0,289.8 578.7,289.9 581.3,289.9 584.0,289.8 586.7,289.9 589.3,289.9 592.0,290.0 594.7,289.9 597.3,289.9 600.0,289.8 602.7,289.8 605.3,289.8 608.0,289.9 610.7,289.8 613.3,289.7 616.0,289.7 618.7,289.7 621.3,289.7 624.0,289.7 626.7,289.7 629.3,289.7 632.0,289.7 634.7,289.6 637.3,289.6 640.0,289.5 642.7,289.5 645.3,289.8 648.0,289.7 650.7,289.7 653.3,289.7 656.0,289.7 658.7,289.7 661.3,289.7 664.0,289.6 666.7,289.9 669.3,289.9 672.0,289.9 674.7,290.0 677.3,289.9 680.0,289.9 682.7,289.9 685.3,290.0 688.0,290.0 690.7,290.0 693.3,290.0 696.0,290.0"/>
  <text x="60" y="62" font-size="11" fill="#2563eb">Price index</text>
  <text x="146" y="62" font-size="11" fill="#16a34a">Total return (price + distributions)</text>
  <text x="56" y="348" font-size="11" text-anchor="middle" fill="#444">2006-06</text><text x="216" y="348" font-size="11" text-anchor="middle" fill="#444">2011-06</text><text x="376" y="348" font-size="11" text-anchor="middle" fill="#444">2016-06</text><text x="536" y="348" font-size="11" text-anchor="middle" fill="#444">2021-06</text><text x="696" y="348" font-size="11" text-anchor="middle" fill="#444">2026-06</text>
</svg>
