<svg xmlns="http://www.w3.org/2000/svg" width="720" height="360" viewBox="0 0 720 360">
  <rect width="720" height="360" fill="#fafafa"/>
  <text x="56" y="22" font-size="13" font-family="sans-serif" fill="#222">TRC total return (rebased 100) · cumulative distributions $0.00/sh · market cap $507.1M</text>
  <line x1="56" y1="308" x2="696" y2="308" stroke="#ccc"/>
  <line x1="56" y1="48" x2="56" y2="308" stroke="#ccc"/>
  <polyline fill="none" stroke="#2563eb" stroke-width="2" points="56.0,147.5 58.7,133.5 61.4,138.7 64.0,105.8 66.7,93.5 69.4,65.9 72.1,75.8 74.7,111.6 77.4,112.3 80.1,98.6 82.8,101.6 85.5,129.1 88.1,153.7 90.8,144.4 93.5,144.3 96.2,151.5 98.8,159.2 101.5,147.3 104.2,165.2 106.9,176.9 109.6,166.5 112.2,139.6 114.9,152.4 117.6,173.3 120.3,204.3 122.9,183.3 125.6,167.4 128.3,211.3 131.0,227.3 133.7,234.7 136.3,250.4 139.0,255.3 141.7,256.8 144.4,243.1 147.0,229.6 149.7,225.2 152.4,225.5 155.1,230.2 157.8,229.6 160.4,227.6 163.1,224.6 165.8,210.4 168.5,202.9 171.1,193.2 173.8,203.4 176.5,212.9 179.2,236.1 181.9,243.8 184.5,244.0 187.2,253.7 189.9,251.4 192.6,248.2 195.2,237.7 197.9,219.5 200.6,226.2 203.3,226.2 206.0,169.6 208.6,175.6 211.3,169.0 214.0,183.9 216.7,194.9 219.3,221.4 222.0,239.5 224.7,228.0 227.4,235.1 230.1,236.2 232.7,214.3 235.4,210.4 238.1,213.6 240.8,207.0 243.4,224.4 246.1,213.7 248.8,228.0 251.5,217.3 254.2,206.0 256.8,206.5 259.5,217.6 262.2,216.6 264.9,203.2 267.5,210.0 270.2,207.4 272.9,210.6 275.6,205.3 278.3,214.4 280.9,185.6 283.6,202.8 286.3,196.4 289.0,161.9 291.6,169.4 294.3,163.3 297.0,178.1 299.7,170.6 302.4,179.7 305.0,195.5 307.7,198.6 310.4,188.9 313.1,209.0 315.7,211.7 318.4,212.1 321.1,200.1 323.8,210.3 326.5,204.2 329.1,231.3 331.8,231.5 334.5,221.0 337.2,230.8 339.8,229.2 342.5,225.2 345.2,230.1 347.9,236.8 350.6,247.0 353.2,243.0 355.9,250.8 358.6,261.9 361.3,259.6 363.9,270.5 366.6,253.9 369.3,243.0 372.0,238.5 374.7,236.7 377.3,222.0 380.0,236.2 382.7,232.9 385.4,244.0 388.1,222.2 390.7,226.7 393.4,236.8 396.1,240.0 398.8,246.5 401.4,240.9 404.1,257.0 406.8,253.5 409.5,251.6 412.2,257.2 414.8,251.0 417.5,260.4 420.2,239.6 422.9,249.4 425.5,243.3 428.2,241.4 430.9,235.8 433.6,228.8 436.3,227.2 438.9,229.0 441.6,234.2 444.3,240.9 447.0,243.9 449.6,259.5 452.3,264.9 455.0,273.5 457.7,260.6 460.4,262.5 463.0,267.6 465.7,269.6 468.4,275.7 471.1,273.4 473.7,262.2 476.4,272.5 479.1,271.2 481.8,276.3 484.5,274.3 487.1,276.9 489.8,276.2 492.5,282.1 495.2,288.0 497.8,290.1 500.5,286.4 503.2,286.0 505.9,286.3 508.6,286.6 511.2,287.5 513.9,290.0 516.6,286.4 519.3,285.7 521.9,277.2 524.6,275.0 527.3,272.5 530.0,277.8 532.7,282.8 535.3,281.4 538.0,264.0 540.7,258.2 543.4,266.7 546.0,264.1 548.7,263.6 551.4,259.1 554.1,268.7 556.8,271.2 559.4,263.8 562.1,263.5 564.8,271.1 567.5,279.6 570.1,273.8 572.8,278.2 575.5,286.0 578.2,271.4 580.9,256.1 583.5,260.4 586.2,253.6 588.9,258.3 591.6,263.7 594.2,269.4 596.9,271.6 599.6,269.8 602.3,267.5 605.0,272.9 607.6,275.5 610.3,279.6 613.0,278.0 615.7,269.9 618.3,278.1 621.0,273.2 623.7,280.2 626.4,272.3 629.1,264.0 631.7,270.7 634.4,259.5 637.1,265.9 639.8,267.9 642.4,277.3 645.1,276.1 647.8,277.4 650.5,275.5 653.2,280.5 655.8,277.7 658.5,271.5 661.2,272.8 663.9,271.3 666.5,265.5 669.2,268.7 671.9,276.9 674.6,277.8 677.3,275.5 679.9,278.1 682.6,276.3 685.3,267.5 688.0,260.4 690.6,256.2 693.3,257.6 696.0,257.0"/>
  <polyline fill="none" stroke="#16a34a" stroke-width="2" points="56.0,147.5 58.7,133.5 61.4,138.7 64.0,105.8 66.7,93.5 69.4,65.9 72.1,75.8 74.7,111.6 77.4,112.3 80.1,98.6 82.8,101.6 85.5,129.1 88.1,153.7 90.8,144.4 93.5,144.3 96.2,151.5 98.8,159.2 101.5,147.3 104.2,165.2 106.9,176.9 109.6,166.5 112.2,139.6 114.9,152.4 117.6,173.3 120.3,204.3 122.9,183.3 125.6,167.4 128.3,211.3 131.0,227.3 133.7,234.7 136.3,250.4 139.0,255.3 141.7,256.8 144.4,243.1 147.0,229.6 149.7,225.2 152.4,225.5 155.1,230.2 157.8,229.6 160.4,227.6 163.1,224.6 165.8,210.4 168.5,202.9 171.1,193.2 173.8,203.4 176.5,212.9 179.2,236.1 181.9,243.8 184.5,244.0 187.2,253.7 189.9,251.4 192.6,248.2 195.2,237.7 197.9,219.5 200.6,226.2 203.3,226.2 206.0,169.6 208.6,175.6 211.3,169.0 214.0,183.9 216.7,194.9 219.3,221.4 222.0,239.5 224.7,228.0 227.4,235.1 230.1,236.2 232.7,214.3 235.4,210.4 238.1,213.6 240.8,207.0 243.4,224.4 246.1,213.7 248.8,228.0 251.5,217.3 254.2,206.0 256.8,206.5 259.5,217.6 262.2,216.6 264.9,203.2 267.5,210.0 270.2,207.4 272.9,210.6 275.6,205.3 278.3,214.4 280.9,185.6 283.6,202.8 286.3,196.4 289.0,161.9 291.6,169.4 294.3,163.3 297.0,178.1 299.7,170.6 302.4,179.7 305.0,195.5 307.7,198.6 310.4,188.9 313.1,209.0 315.7,211.7 318.4,212.1 321.1,200.1 323.8,210.3 326.5,204.2 329.1,231.3 331.8,231.5 334.5,221.0 337.2,230.8 339.8,229.2 342.5,225.2 345.2,230.1 347.9,236.8 350.6,247.0 353.2,243.0 355.9,250.8 358.6,261.9 361.3,259.6 363.9,270.5 366.6,253.9 369.3,243.0 372.0,238.5 374.7,236.7 377.3,222.0 380.0,236.2 382.7,232.9 385.4,244.0 388.1,222.2 390.7,226.7 393.4,236.8 396.1,240.0 398.8,246.5 401.4,240.9 404.1,257.0 406.8,253.5 409.5,251.6 412.2,257.2 414.8,251.0 417.5,260.4 420.2,239.6 422.9,249.4 425.5,243.3 428.2,241.4 430.9,235.8 433.6,228.8 436.3,227.2 438.9,229.0 441.6,234.2 444.3,240.9 447.0,243.9 449.6,259.5 452.3,264.9 455.0,273.5 457.7,260.6 460.4,262.5 463.0,267.6 465.7,269.6 468.4,275.7 471.1,273.4 473.7,262.2 476.4,272.5 479.1,271.2 481.8,276.3 484.5,274.3 487.1,276.9 489.8,276.2 492.5,282.1 495.2,288.0 497.8,290.1 500.5,286.4 503.2,286.0 505.9,286.3 508.6,286.6 511.2,287.5 513.9,290.0 516.6,286.4 519.3,285.7 521.9,277.2 524.6,275.0 527.3,272.5 530.0,277.8 532.7,282.8 535.3,281.4 538.0,264.0 540.7,258.2 543.4,266.7 546.0,264.1 548.7,263.6 551.4,259.1 554.1,268.7 556.8,271.2 559.4,263.8 562.1,263.5 564.8,271.1 567.5,279.6 570.1,273.8 572.8,278.2 575.5,286.0 578.2,271.4 580.9,256.1 583.5,260.4 586.2,253.6 588.9,258.3 591.6,263.7 594.2,269.4 596.9,271.6 599.6,269.8 602.3,267.5 605.0,272.9 607.6,275.5 610.3,279.6 613.0,278.0 615.7,269.9 618.3,278.1 621.0,273.2 623.7,280.2 626.4,272.3 629.1,264.0 631.7,270.7 634.4,259.5 637.1,265.9 639.8,267.9 642.4,277.3 645.1,276.1 647.8,277.4 650.5,275.5 653.2,280.5 655.8,277.7 658.5,271.5 661.2,272.8 663.9,271.3 666.5,265.5 669.2,268.7 671.9,276.9 674.6,277.8 677.3,275.5 679.9,278.1 682.6,276.3 685.3,267.5 688.0,260.4 690.6,256.2 693.3,257.6 696.0,257.0"/>
  <text x="60" y="62" font-size="11" fill="#2563eb">Price index</text>
  <text x="146" y="62" font-size="11" fill="#16a34a">Total return (price + distributions)</text>
  <text x="56" y="348" font-size="11" text-anchor="middle" fill="#444">2006-07</text><text x="217" y="348" font-size="11" text-anchor="middle" fill="#444">2011-07</text><text x="377" y="348" font-size="11" text-anchor="middle" fill="#444">2016-07</text><text x="538" y="348" font-size="11" text-anchor="middle" fill="#444">2021-07</text><text x="696" y="348" font-size="11" text-anchor="middle" fill="#444">2026-06</text>
</svg>
