<svg xmlns="http://www.w3.org/2000/svg" width="720" height="360" viewBox="0 0 720 360">
  <rect width="720" height="360" fill="#fafafa"/>
  <text x="56" y="22" font-size="13" font-family="sans-serif" fill="#222">KEWL total return (rebased 100) · cumulative distributions $0.00/sh · market cap $62.0M</text>
  <line x1="56" y1="308" x2="696" y2="308" stroke="#ccc"/>
  <line x1="56" y1="48" x2="56" y2="308" stroke="#ccc"/>
  <polyline fill="none" stroke="#2563eb" stroke-width="2" points="56.0,184.8 58.7,162.0 61.4,167.4 64.0,166.5 66.7,164.7 69.4,158.3 72.1,165.2 74.7,157.4 77.4,157.4 80.1,139.1 82.8,138.3 85.5,119.9 88.1,125.8 90.8,140.0 93.5,134.5 96.2,138.2 98.8,136.3 101.5,121.7 104.2,93.4 106.9,93.4 109.6,97.9 112.2,65.9 114.9,70.5 117.6,110.7 120.3,116.2 122.9,114.4 125.6,134.5 128.3,134.5 131.0,129.9 133.7,157.4 136.3,163.8 139.0,175.7 141.7,184.8 144.4,140.0 147.0,151.9 149.7,142.3 152.4,148.2 155.1,159.7 157.8,172.2 160.4,166.5 163.1,164.7 165.8,163.8 168.5,164.7 171.1,148.2 173.8,148.2 176.5,151.0 179.2,159.2 181.9,158.3 184.5,157.4 187.2,152.8 189.9,157.4 192.6,157.6 195.2,152.8 197.9,152.3 200.6,154.6 203.3,148.2 206.0,150.5 208.6,151.9 211.3,157.4 214.0,153.7 216.7,150.5 219.3,157.4 222.0,157.4 224.7,170.2 227.4,169.3 230.1,182.1 232.7,173.8 235.4,179.3 238.1,184.8 240.8,184.8 243.4,184.8 246.1,184.8 248.8,184.8 251.5,169.4 254.2,175.9 256.8,175.7 259.5,183.0 262.2,184.7 264.9,181.2 267.5,185.0 270.2,193.9 272.9,184.8 275.6,172.4 278.3,172.0 280.9,156.6 283.6,157.5 286.3,151.9 289.0,157.4 291.6,155.1 294.3,162.9 297.0,169.1 299.7,162.9 302.4,174.3 305.0,166.5 307.7,161.1 310.4,151.9 313.1,149.6 315.7,131.8 318.4,120.8 321.1,139.1 323.8,125.4 326.5,140.9 329.1,139.1 331.8,119.0 334.5,122.6 337.2,122.6 339.8,130.0 342.5,146.4 345.2,155.4 347.9,171.1 350.6,172.0 353.2,172.0 355.9,169.7 358.6,173.8 361.3,181.2 363.9,175.7 366.6,164.7 369.3,159.2 372.0,159.2 374.7,157.4 377.3,160.1 380.0,157.4 382.7,158.3 385.4,164.7 388.1,162.0 390.7,141.8 393.4,138.2 396.1,136.3 398.8,135.4 401.4,135.4 404.1,134.5 406.8,129.9 409.5,131.8 412.2,138.2 414.8,135.4 417.5,140.9 420.2,142.7 422.9,140.9 425.5,135.4 428.2,135.4 430.9,137.7 433.6,125.4 436.3,126.3 438.9,136.3 441.6,134.8 444.3,145.5 447.0,151.9 449.6,170.2 452.3,175.7 455.0,197.6 457.7,176.6 460.4,172.0 463.0,176.6 465.7,175.7 468.4,189.4 471.1,192.1 473.7,194.9 476.4,199.5 479.1,194.0 481.8,197.6 484.5,194.4 487.1,197.6 489.8,194.5 492.5,194.9 495.2,216.8 497.8,208.8 500.5,215.9 503.2,210.1 505.9,194.2 508.6,195.8 511.2,204.0 513.9,199.4 516.6,197.7 519.3,189.6 521.9,191.2 524.6,179.3 527.3,168.4 530.0,175.7 532.7,170.2 535.3,172.5 538.0,176.9 540.7,179.3 543.4,178.0 546.0,188.4 548.7,128.1 551.4,126.7 554.1,288.3 556.8,281.2 559.4,282.9 562.1,280.6 564.8,277.4 567.5,282.7 570.1,288.1 572.8,287.1 575.5,289.7 578.2,290.1 580.9,287.2 583.5,284.9 586.2,272.0 588.9,268.6 591.6,281.5 594.2,282.6 596.9,282.2 599.6,283.1 602.3,279.9 605.0,274.9 607.6,280.8 610.3,284.1 613.0,288.5 615.7,278.1 618.3,278.5 621.0,284.0 623.7,279.8 626.4,270.7 629.1,268.9 631.7,266.4 634.4,256.1 637.1,246.4 639.8,262.5 642.4,252.5 645.1,253.4 647.8,258.0 650.5,255.0 653.2,261.6 655.8,256.1 658.5,263.5 661.2,262.5 663.9,265.5 666.5,258.0 669.2,259.4 671.9,252.5 674.6,258.6 677.3,265.9 679.9,262.5 682.6,237.9 685.3,234.2 688.0,231.0 690.6,220.9 693.3,222.8 696.0,225.3"/>
  <polyline fill="none" stroke="#16a34a" stroke-width="2" points="56.0,184.8 58.7,162.0 61.4,167.4 64.0,166.5 66.7,164.7 69.4,158.3 72.1,165.2 74.7,157.4 77.4,157.4 80.1,139.1 82.8,138.3 85.5,119.9 88.1,125.8 90.8,140.0 93.5,134.5 96.2,138.2 98.8,136.3 101.5,121.7 104.2,93.4 106.9,93.4 109.6,97.9 112.2,65.9 114.9,70.5 117.6,110.7 120.3,116.2 122.9,114.4 125.6,134.5 128.3,134.5 131.0,129.9 133.7,157.4 136.3,163.8 139.0,175.7 141.7,184.8 144.4,140.0 147.0,151.9 149.7,142.3 152.4,148.2 155.1,159.7 157.8,172.2 160.4,166.5 163.1,164.7 165.8,163.8 168.5,164.7 171.1,148.2 173.8,148.2 176.5,151.0 179.2,159.2 181.9,158.3 184.5,157.4 187.2,152.8 189.9,157.4 192.6,157.6 195.2,152.8 197.9,152.3 200.6,154.6 203.3,148.2 206.0,150.5 208.6,151.9 211.3,157.4 214.0,153.7 216.7,150.5 219.3,157.4 222.0,157.4 224.7,170.2 227.4,169.3 230.1,182.1 232.7,173.8 235.4,179.3 238.1,184.8 240.8,184.8 243.4,184.8 246.1,184.8 248.8,184.8 251.5,169.4 254.2,175.9 256.8,175.7 259.5,183.0 262.2,184.7 264.9,181.2 267.5,185.0 270.2,193.9 272.9,184.8 275.6,172.4 278.3,172.0 280.9,156.6 283.6,157.5 286.3,151.9 289.0,157.4 291.6,155.1 294.3,162.9 297.0,169.1 299.7,162.9 302.4,174.3 305.0,166.5 307.7,161.1 310.4,151.9 313.1,149.6 315.7,131.8 318.4,120.8 321.1,139.1 323.8,125.4 326.5,140.9 329.1,139.1 331.8,119.0 334.5,122.6 337.2,122.6 339.8,130.0 342.5,146.4 345.2,155.4 347.9,171.1 350.6,172.0 353.2,172.0 355.9,169.7 358.6,173.8 361.3,181.2 363.9,175.7 366.6,164.7 369.3,159.2 372.0,159.2 374.7,157.4 377.3,160.1 380.0,157.4 382.7,158.3 385.4,164.7 388.1,162.0 390.7,141.8 393.4,138.2 396.1,136.3 398.8,135.4 401.4,135.4 404.1,134.5 406.8,129.9 409.5,131.8 412.2,138.2 414.8,135.4 417.5,140.9 420.2,142.7 422.9,140.9 425.5,135.4 428.2,135.4 430.9,137.7 433.6,125.4 436.3,126.3 438.9,136.3 441.6,134.8 444.3,145.5 447.0,151.9 449.6,170.2 452.3,175.7 455.0,197.6 457.7,176.6 460.4,172.0 463.0,176.6 465.7,175.7 468.4,189.4 471.1,192.1 473.7,194.9 476.4,199.5 479.1,194.0 481.8,197.6 484.5,194.4 487.1,197.6 489.8,194.5 492.5,194.9 495.2,216.8 497.8,208.8 500.5,215.9 503.2,210.1 505.9,194.2 508.6,195.8 511.2,204.0 513.9,199.4 516.6,197.7 519.3,189.6 521.9,191.2 524.6,179.3 527.3,168.4 530.0,175.7 532.7,170.2 535.3,172.5 538.0,176.9 540.7,179.3 543.4,178.0 546.0,188.4 548.7,128.1 551.4,126.7 554.1,288.3 556.8,281.2 559.4,282.9 562.1,280.6 564.8,277.4 567.5,282.7 570.1,288.1 572.8,287.1 575.5,289.7 578.2,290.1 580.9,287.2 583.5,284.9 586.2,272.0 588.9,268.6 591.6,281.5 594.2,282.6 596.9,282.2 599.6,283.1 602.3,279.9 605.0,274.9 607.6,280.8 610.3,284.1 613.0,288.5 615.7,278.1 618.3,278.5 621.0,284.0 623.7,279.8 626.4,270.7 629.1,268.9 631.7,266.4 634.4,256.1 637.1,246.4 639.8,262.5 642.4,252.5 645.1,253.4 647.8,258.0 650.5,255.0 653.2,261.6 655.8,256.1 658.5,263.5 661.2,262.5 663.9,265.5 666.5,258.0 669.2,259.4 671.9,252.5 674.6,258.6 677.3,265.9 679.9,262.5 682.6,237.9 685.3,234.2 688.0,231.0 690.6,220.9 693.3,222.8 696.0,225.3"/>
  <text x="60" y="62" font-size="11" fill="#2563eb">Price index</text>
  <text x="146" y="62" font-size="11" fill="#16a34a">Total return (price + distributions)</text>
  <text x="56" y="348" font-size="11" text-anchor="middle" fill="#444">2006-07</text><text x="217" y="348" font-size="11" text-anchor="middle" fill="#444">2011-07</text><text x="377" y="348" font-size="11" text-anchor="middle" fill="#444">2016-07</text><text x="538" y="348" font-size="11" text-anchor="middle" fill="#444">2021-07</text><text x="696" y="348" font-size="11" text-anchor="middle" fill="#444">2026-06</text>
</svg>
