<svg xmlns="http://www.w3.org/2000/svg" width="720" height="360" viewBox="0 0 720 360">
  <rect width="720" height="360" fill="#fafafa"/>
  <text x="56" y="22" font-size="13" font-family="sans-serif" fill="#222">IEX.NS total return (rebased 100) · cumulative distributions $0.00/sh · market cap n/a</text>
  <line x1="56" y1="308" x2="696" y2="308" stroke="#ccc"/>
  <line x1="56" y1="48" x2="56" y2="308" stroke="#ccc"/>
  <polyline fill="none" stroke="#2563eb" stroke-width="2" points="56.0,277.0 56.3,277.7 56.6,278.9 56.9,278.9 57.2,278.9 57.5,278.8 57.8,279.2 58.1,279.0 58.4,278.9 58.7,278.1 59.0,277.8 59.3,277.6 59.6,278.3 59.9,277.8 60.2,277.9 60.5,278.6 60.8,279.5 61.1,280.4 61.4,280.5 61.7,280.4 62.0,280.6 62.3,280.3 62.6,279.1 62.9,279.1 63.2,279.3 63.5,279.2 63.8,279.4 64.1,280.0 64.4,279.8 64.7,279.9 65.0,280.6 65.3,280.6 65.6,280.4 65.9,280.0 66.2,279.3 66.5,279.1 66.8,277.6 67.1,277.7 67.4,278.2 67.7,278.6 68.0,278.1 68.3,278.4 68.6,278.2 68.9,278.2 69.2,277.7 69.5,277.8 69.8,278.3 70.1,277.3 70.4,277.6 70.7,277.6 71.0,277.6 71.3,277.9 71.6,277.5 71.9,277.7 72.2,277.7 72.5,277.4 72.8,277.0 73.1,277.7 73.4,276.8 73.7,277.4 74.0,277.4 74.3,277.7 74.6,277.4 74.9,277.2 75.2,277.3 75.5,277.8 75.8,277.8 76.1,277.7 76.4,277.7 76.7,278.0 77.0,277.8 77.3,277.6 77.6,277.9 77.9,278.4 78.2,279.6 78.5,279.7 78.8,279.0 79.1,279.4 79.4,278.9 79.7,279.1 80.0,279.4 80.3,279.7 80.6,280.2 80.9,280.3 81.2,280.5 81.5,281.1 81.8,282.2 82.1,282.0 82.4,282.3 82.7,282.0 83.0,282.0 83.3,282.2 83.6,282.3 83.9,283.4 84.2,282.7 84.5,282.5 84.8,282.5 85.1,281.7 85.4,281.7 85.7,281.4 86.0,280.9 86.3,281.8 86.6,281.9 86.9,281.8 87.2,281.9 87.5,282.1 87.8,280.3 88.1,279.5 88.4,277.8 88.7,278.2 89.0,278.2 89.3,279.6 89.6,278.2 89.9,277.8 90.2,276.9 90.5,277.1 90.8,277.9 91.1,277.8 91.4,277.6 91.7,277.0 92.0,277.0 92.3,276.7 92.6,276.4 92.9,276.7 93.2,276.9 93.5,276.4 93.8,275.8 94.1,276.0 94.4,276.9 94.7,277.4 95.0,278.7 95.3,278.5 95.6,278.5 95.9,278.0 96.2,277.4 96.5,276.9 96.8,276.6 97.1,277.3 97.4,277.4 97.7,277.1 98.0,276.9 98.3,276.6 98.6,277.2 98.9,277.4 99.2,276.8 99.5,278.1 99.8,277.9 100.1,277.0 100.4,277.0 100.7,277.9 101.0,278.1 101.3,278.5 101.6,278.6 101.9,278.4 102.2,279.3 102.5,278.0 102.8,278.0 103.1,277.7 103.4,276.9 103.7,277.3 104.0,276.9 104.3,277.0 104.6,277.3 104.9,277.9 105.2,278.0 105.5,277.8 105.8,277.8 106.1,277.8 106.4,277.4 106.7,277.5 107.0,277.7 107.3,278.2 107.6,276.1 107.9,275.9 108.2,276.8 108.5,277.1 108.8,277.1 109.1,276.9 109.4,277.0 109.7,276.6 110.0,276.7 110.3,277.1 110.6,277.3 110.9,277.5 111.2,277.8 111.5,277.9 111.8,278.2 112.1,278.0 112.4,278.4 112.7,277.9 113.0,278.2 113.3,277.9 113.6,278.2 113.9,278.2 114.2,277.9 114.5,277.8 114.8,277.7 115.1,277.8 115.4,277.8 115.7,277.8 116.0,278.0 116.3,277.7 116.6,277.1 116.9,276.6 117.2,277.3 117.5,276.8 117.8,276.2 118.1,275.9 118.4,276.1 118.7,276.0 119.0,276.4 119.3,274.6 119.6,275.3 119.9,275.8 120.2,275.8 120.5,273.7 120.8,273.8 121.1,274.3 121.4,273.5 121.7,273.8 122.0,274.5 122.3,273.6 122.6,274.4 122.9,275.0 123.2,274.6 123.5,274.9 123.8,275.0 124.1,274.0 124.4,275.0 124.7,274.9 125.0,274.0 125.3,273.6 125.6,274.9 125.9,277.7 126.2,277.6 126.5,277.8 126.8,276.6 127.1,276.7 127.4,276.9 127.7,277.1 128.0,276.8 128.3,277.1 128.6,276.6 128.9,276.5 129.2,276.3 129.5,276.3 129.8,276.7 130.1,277.4 130.4,279.6 130.7,277.6 131.0,277.8 131.3,277.8 131.6,279.7 131.9,275.1 132.2,278.2 132.5,279.0 132.8,278.8 133.1,279.1 133.4,279.0 133.7,278.3 134.0,277.7 134.3,278.4 134.6,277.5 134.9,278.0 135.2,278.7 135.5,279.0 135.8,278.9 136.1,279.2 136.4,277.4 136.7,279.1 137.0,278.5 137.3,278.4 137.6,278.1 137.9,278.2 138.2,277.1 138.5,277.4 138.8,278.4 139.1,278.5 139.4,279.5 139.7,279.2 140.0,279.3 140.3,279.0 140.6,278.6 140.9,278.8 141.2,276.8 141.5,276.5 141.8,276.6 142.1,276.0 142.4,275.7 142.7,275.0 143.0,275.2 143.3,275.9 143.6,276.3 143.9,276.6 144.2,276.2 144.5,276.1 144.8,276.5 145.1,277.0 145.4,277.4 145.7,278.4 146.0,276.3 146.3,276.4 146.6,277.8 146.9,277.5 147.2,277.3 147.5,276.2 147.8,277.0 148.1,276.6 148.4,277.3 148.7,277.6 149.0,277.8 149.3,278.1 149.6,277.8 149.9,277.9 150.2,278.0 150.5,278.3 150.8,277.7 151.1,278.2 151.4,277.7 151.7,277.5 152.0,277.3 152.3,276.8 152.6,276.4 152.9,276.1 153.2,276.4 153.5,275.6 153.8,277.4 154.1,277.3 154.4,277.7 154.7,276.4 155.0,276.9 155.3,277.8 155.6,278.2 155.9,278.6 156.2,278.9 156.5,279.9 156.8,279.8 157.1,278.4 157.4,278.1 157.7,278.5 158.0,277.6 158.3,278.5 158.6,277.6 158.9,277.4 159.2,276.4 159.5,276.4 159.8,276.9 160.1,277.3 160.4,277.4 160.7,277.3 161.0,277.6 161.3,277.9 161.6,277.8 161.9,278.2 162.2,276.9 162.5,277.4 162.8,277.3 163.1,277.3 163.4,277.1 163.7,276.9 164.0,277.1 164.3,278.3 164.6,278.7 164.9,279.1 165.2,279.2 165.5,279.1 165.8,278.6 166.1,278.1 166.4,278.5 166.7,277.9 167.0,278.1 167.3,278.4 167.6,278.0 167.9,278.1 168.2,278.0 168.5,277.9 168.8,278.3 169.1,278.8 169.4,279.2 169.7,279.6 170.0,279.2 170.3,279.3 170.6,279.0 170.9,279.1 171.2,279.4 171.5,282.0 171.8,281.4 172.1,281.6 172.4,282.5 172.7,282.0 173.0,280.9 173.3,279.9 173.6,278.3 173.9,279.8 174.2,279.4 174.5,278.9 174.8,279.3 175.1,279.4 175.4,280.2 175.7,280.9 176.0,281.5 176.3,281.3 176.6,280.9 176.9,280.9 177.2,281.2 177.5,281.3 177.8,282.2 178.1,283.4 178.4,282.7 178.7,283.3 179.0,282.8 179.3,282.6 179.6,282.4 179.9,282.5 180.2,282.5 180.5,283.0 180.8,282.7 181.1,284.0 181.4,283.7 181.7,283.6 182.0,283.5 182.3,283.8 182.6,283.0 182.9,282.5 183.2,282.2 183.5,282.2 183.8,282.2 184.1,282.2 184.4,282.2 184.7,282.9 185.0,282.8 185.3,282.9 185.6,282.5 185.9,282.6 186.2,282.9 186.5,283.5 186.8,283.3 187.1,283.3 187.4,282.7 187.7,282.8 188.0,282.6 188.3,282.5 188.6,282.2 188.9,282.2 189.2,280.9 189.5,282.9 189.8,281.8 190.1,282.7 190.4,282.5 190.7,283.3 191.0,286.2 191.3,285.3 191.6,285.4 191.9,285.1 192.2,285.1 192.5,286.1 192.8,286.1 193.1,285.3 193.4,285.4 193.7,285.3 194.0,285.1 194.3,285.4 194.6,285.4 194.9,286.6 195.2,286.4 195.5,290.1 195.8,289.5 196.1,290.0 196.4,289.3 196.7,289.4 197.0,287.5 197.3,285.2 197.6,286.3 197.9,287.4 198.2,289.3 198.5,289.0 198.8,289.3 199.1,289.3 199.4,288.7 199.7,289.1 200.0,289.0 200.3,288.3 200.6,288.2 200.9,288.1 201.2,289.1 201.5,289.0 201.8,288.2 202.1,285.0 202.4,281.7 202.7,281.8 203.0,282.3 203.3,283.6 203.6,284.2 203.9,284.2 204.2,283.1 204.5,283.0 204.8,282.2 205.1,282.3 205.4,282.7 205.7,282.2 206.0,282.3 206.3,282.2 206.6,282.7 206.9,282.6 207.2,283.1 207.5,282.6 207.8,282.8 208.1,282.8 208.4,282.7 208.7,282.8 209.0,282.3 209.3,282.1 209.6,282.4 209.9,283.4 210.2,283.1 210.5,282.2 210.8,283.7 211.1,284.0 211.4,283.1 211.7,282.8 212.0,283.6 212.3,283.6 212.6,283.6 212.9,283.7 213.2,284.0 213.5,283.5 213.8,283.7 214.1,283.5 214.4,283.1 214.7,283.7 215.0,283.3 215.3,283.1 215.6,282.8 215.9,283.0 216.1,283.1 216.4,283.0 216.7,283.0 217.0,282.9 217.3,282.8 217.6,280.6 217.9,277.9 218.2,275.5 218.5,276.2 218.8,276.0 219.1,275.0 219.4,272.7 219.7,273.0 220.0,272.2 220.3,270.4 220.6,267.2 220.9,270.6 221.2,271.1 221.5,270.6 221.8,271.9 222.1,272.8 222.4,272.8 222.7,274.3 223.0,275.0 223.3,275.9 223.6,277.5 223.9,276.5 224.2,279.4 224.5,275.4 224.8,272.1 225.1,272.3 225.4,272.1 225.7,271.2 226.0,269.4 226.3,269.0 226.6,269.3 226.9,269.1 227.2,269.1 227.5,270.3 227.8,270.2 228.1,270.5 228.4,268.1 228.7,269.2 229.0,270.5 229.3,269.2 229.6,273.1 229.9,270.5 230.2,270.5 230.5,270.1 230.8,270.2 231.1,272.3 231.4,274.7 231.7,274.9 232.0,280.8 232.3,282.4 232.6,281.9 232.9,282.2 233.2,284.0 233.5,285.2 233.8,284.8 234.1,286.6 234.4,286.6 234.7,289.4 235.0,288.9 235.3,286.4 235.6,286.7 235.9,287.2 236.2,286.7 236.5,285.1 236.8,282.2 237.1,284.5 237.4,282.2 237.7,282.7 238.0,281.4 238.3,280.0 238.6,279.2 238.9,277.0 239.2,279.2 239.5,279.0 239.8,278.7 240.1,278.9 240.4,279.1 240.7,279.0 241.0,279.1 241.3,280.8 241.6,282.4 241.9,283.2 242.2,282.0 242.5,282.3 242.8,282.5 243.1,282.2 243.4,282.4 243.7,279.4 244.0,279.3 244.3,277.8 244.6,278.1 244.9,276.9 245.2,276.7 245.5,276.7 245.8,276.5 246.1,276.5 246.4,276.6 246.7,276.5 247.0,276.7 247.3,274.0 247.6,275.1 247.9,273.8 248.2,272.1 248.5,273.4 248.8,275.6 249.1,276.6 249.4,274.0 249.7,273.8 250.0,274.4 250.3,272.3 250.6,270.5 250.9,271.2 251.2,271.9 251.5,269.3 251.8,269.2 252.1,270.0 252.4,270.6 252.7,270.6 253.0,270.2 253.3,271.1 253.6,272.1 253.9,272.1 254.2,270.9 254.5,269.7 254.8,268.8 255.1,269.5 255.4,269.8 255.7,270.2 256.0,270.5 256.3,270.3 256.6,269.7 256.9,269.8 257.2,270.4 257.5,270.1 257.8,273.2 258.1,274.1 258.4,273.6 258.7,274.0 259.0,273.5 259.3,274.0 259.6,273.4 259.9,271.7 260.2,272.0 260.5,272.2 260.8,273.3 261.1,272.3 261.4,271.2 261.7,270.0 262.0,271.0 262.3,267.8 262.6,268.7 262.9,268.4 263.2,269.1 263.5,270.4 263.8,270.4 264.1,270.5 264.4,269.1 264.7,269.2 265.0,269.5 265.3,268.7 265.6,268.4 265.9,268.8 266.2,268.7 266.5,268.3 266.8,268.3 267.1,268.5 267.4,268.2 267.7,267.6 268.0,268.8 268.3,269.1 268.6,268.5 268.9,269.5 269.2,268.4 269.5,269.0 269.8,264.3 270.1,264.8 270.4,263.0 270.7,264.0 271.0,264.2 271.3,267.5 271.6,268.5 271.9,269.1 272.2,268.9 272.5,269.0 272.8,266.2 273.1,263.4 273.4,263.9 273.7,264.4 274.0,261.6 274.3,262.1 274.6,264.9 274.9,267.2 275.2,268.0 275.5,269.1 275.8,267.4 276.1,267.1 276.4,268.0 276.7,267.6 277.0,265.9 277.3,266.5 277.6,267.8 277.9,267.3 278.2,267.7 278.5,268.3 278.8,267.9 279.1,268.1 279.4,268.1 279.7,268.7 280.0,270.4 280.3,270.3 280.6,271.6 280.9,270.0 281.2,267.8 281.5,267.1 281.8,265.7 282.1,264.9 282.4,263.6 282.7,264.1 283.0,264.2 283.3,263.8 283.6,263.7 283.9,264.6 284.2,264.7 284.5,264.2 284.8,262.6 285.1,262.7 285.4,262.5 285.7,261.0 286.0,260.9 286.3,261.3 286.6,261.8 286.9,261.6 287.2,262.0 287.5,262.0 287.8,260.8 288.1,260.0 288.4,261.1 288.7,262.3 289.0,260.6 289.3,260.4 289.6,260.5 289.9,261.1 290.2,264.5 290.5,262.3 290.8,262.1 291.1,262.3 291.4,261.8 291.7,261.0 292.0,259.5 292.3,258.0 292.6,260.3 292.9,257.7 293.2,260.3 293.5,259.7 293.8,259.7 294.1,259.4 294.4,258.8 294.7,258.6 295.0,259.4 295.3,257.4 295.6,256.1 295.9,254.5 296.2,253.5 296.5,252.9 296.8,254.3 297.1,256.5 297.4,256.8 297.7,253.6 298.0,252.1 298.3,252.7 298.6,252.3 298.9,251.2 299.2,250.9 299.5,249.4 299.8,248.7 300.1,249.7 300.4,245.0 300.7,245.5 301.0,236.8 301.3,237.5 301.6,239.5 301.9,243.6 302.2,241.7 302.5,237.6 302.8,238.4 303.1,238.4 303.4,237.6 303.7,234.5 304.0,236.5 304.3,238.9 304.6,236.7 304.9,236.2 305.2,237.7 305.5,233.9 305.8,235.1 306.1,234.9 306.4,236.5 306.7,234.6 307.0,228.7 307.3,224.1 307.6,225.4 307.9,224.2 308.2,220.2 308.5,216.3 308.8,220.5 309.1,219.4 309.4,222.4 309.7,227.4 310.0,225.5 310.3,224.9 310.6,227.4 310.9,223.2 311.2,224.8 311.5,221.4 311.8,221.0 312.1,221.9 312.4,222.3 312.7,225.9 313.0,226.2 313.3,226.4 313.6,223.7 313.9,221.7 314.2,221.6 314.5,219.5 314.8,220.1 315.1,214.8 315.4,214.7 315.7,216.5 316.0,214.9 316.3,216.4 316.6,213.9 316.9,213.0 317.2,211.7 317.5,209.2 317.8,210.8 318.1,210.9 318.4,207.3 318.7,208.4 319.0,215.6 319.3,216.1 319.6,214.5 319.9,213.1 320.2,219.1 320.5,215.9 320.8,217.3 321.1,219.4 321.4,220.5 321.7,221.6 322.0,219.1 322.3,220.2 322.6,221.8 322.9,221.0 323.2,220.3 323.5,220.9 323.8,217.9 324.1,216.3 324.4,219.6 324.7,218.5 325.0,218.1 325.3,217.7 325.6,215.0 325.9,215.2 326.2,215.6 326.5,214.1 326.8,214.9 327.1,216.7 327.4,216.2 327.7,215.2 328.0,214.8 328.3,212.4 328.6,213.9 328.9,215.0 329.2,213.5 329.5,213.0 329.8,210.5 330.1,209.8 330.4,208.9 330.7,209.1 331.0,208.7 331.3,209.3 331.6,205.1 331.9,203.7 332.2,205.0 332.5,204.2 332.8,197.3 333.1,199.9 333.4,194.4 333.7,195.0 334.0,196.2 334.3,199.3 334.6,202.3 334.9,197.9 335.2,198.7 335.5,198.3 335.8,199.3 336.1,201.4 336.4,202.3 336.7,202.0 337.0,203.1 337.3,205.3 337.6,208.2 337.9,206.1 338.2,205.0 338.5,205.8 338.8,205.9 339.1,206.6 339.4,207.3 339.7,203.0 340.0,198.8 340.3,199.3 340.6,195.9 340.9,197.9 341.2,184.4 341.5,177.2 341.8,161.0 342.1,159.1 342.4,167.1 342.7,160.7 343.0,157.8 343.3,152.0 343.6,149.7 343.9,151.5 344.2,153.4 344.5,149.6 344.8,146.7 345.1,149.7 345.4,154.5 345.7,154.1 346.0,149.2 346.3,149.0 346.6,151.9 346.9,152.6 347.2,150.4 347.5,138.5 347.8,136.0 348.1,143.4 348.4,139.9 348.7,139.9 349.0,141.3 349.3,137.6 349.6,121.4 349.9,96.5 350.2,93.7 350.5,92.8 350.8,93.0 351.1,91.9 351.4,77.7 351.7,94.1 352.0,103.2 352.3,101.3 352.6,120.5 352.9,110.8 353.2,109.4 353.5,117.1 353.8,117.7 354.1,110.2 354.4,107.0 354.7,112.0 355.0,109.3 355.3,96.7 355.6,96.2 355.9,96.9 356.2,94.2 356.5,93.0 356.8,87.3 357.1,88.2 357.4,86.1 357.7,95.1 358.0,99.9 358.3,93.5 358.6,96.4 358.9,97.8 359.2,104.7 359.5,111.1 359.8,107.2 360.1,111.4 360.4,111.5 360.7,100.5 361.0,104.3 361.3,101.2 361.6,95.0 361.9,88.2 362.2,65.9 362.5,75.0 362.8,80.2 363.1,95.4 363.4,91.6 363.7,100.2 364.0,115.6 364.3,110.3 364.6,102.0 364.9,100.8 365.2,104.9 365.5,103.2 365.8,101.0 366.1,103.2 366.4,107.6 366.7,103.1 367.0,98.4 367.3,95.4 367.6,96.2 367.9,95.8 368.2,96.1 368.5,96.1 368.8,97.4 369.1,97.0 369.4,91.6 369.7,90.8 370.0,91.5 370.3,102.9 370.6,96.8 370.9,97.0 371.2,104.1 371.5,114.3 371.8,115.5 372.1,122.7 372.4,120.5 372.7,118.3 373.0,119.8 373.3,114.5 373.6,118.2 373.9,120.6 374.2,126.9 374.5,129.4 374.8,130.1 375.1,127.2 375.4,132.3 375.7,140.0 376.0,131.0 376.3,132.4 376.6,134.6 376.9,134.0 377.2,140.4 377.5,144.8 377.8,141.7 378.1,155.1 378.4,145.7 378.7,144.2 379.0,137.1 379.3,137.3 379.6,139.6 379.9,142.4 380.2,136.9 380.5,129.4 380.8,127.9 381.1,127.3 381.4,132.3 381.7,133.1 382.0,129.4 382.3,129.1 382.6,131.0 382.9,130.1 383.2,124.1 383.5,119.8 383.8,124.1 384.1,122.7 384.4,127.2 384.7,127.8 385.0,127.7 385.3,122.3 385.6,115.2 385.9,109.5 386.2,108.8 386.5,115.4 386.8,113.4 387.1,117.9 387.4,119.0 387.7,118.3 388.0,122.2 388.3,124.6 388.6,121.3 388.9,119.4 389.2,122.9 389.5,133.2 389.8,126.5 390.1,132.9 390.4,136.6 390.7,136.6 391.0,140.3 391.3,146.7 391.6,149.4 391.9,148.8 392.2,145.5 392.5,151.9 392.8,156.7 393.1,163.9 393.4,160.8 393.7,160.2 394.0,153.5 394.3,153.7 394.6,154.4 394.9,154.5 395.2,154.8 395.5,156.5 395.8,162.2 396.1,166.7 396.4,163.3 396.7,156.1 397.0,154.1 397.3,157.6 397.6,159.8 397.9,164.9 398.2,171.1 398.5,168.6 398.8,170.5 399.1,162.7 399.4,165.0 399.7,169.2 400.0,170.7 400.3,171.4 400.6,176.8 400.9,173.2 401.2,176.6 401.5,172.1 401.8,175.9 402.1,174.8 402.4,172.1 402.7,171.4 403.0,178.1 403.3,183.3 403.6,185.5 403.9,184.6 404.2,185.5 404.5,189.2 404.8,184.7 405.1,181.2 405.4,181.0 405.7,181.4 406.0,181.8 406.3,181.3 406.6,182.5 406.9,181.7 407.2,178.7 407.5,179.8 407.8,180.4 408.1,181.4 408.4,183.6 408.7,185.7 409.0,189.5 409.3,189.0 409.6,188.8 409.9,184.8 410.2,178.5 410.5,179.0 410.8,178.8 411.1,181.5 411.4,179.6 411.7,179.2 412.0,180.0 412.3,181.1 412.6,179.9 412.9,174.0 413.2,173.4 413.5,178.8 413.8,181.1 414.1,186.9 414.4,186.2 414.7,184.5 415.0,185.2 415.3,184.9 415.6,186.1 415.9,183.5 416.2,184.2 416.5,186.2 416.8,183.8 417.1,184.9 417.4,185.5 417.7,184.4 418.0,184.9 418.3,181.7 418.6,181.7 418.9,181.6 419.2,182.1 419.5,187.2 419.8,190.6 420.1,190.3 420.4,192.2 420.7,191.5 421.0,195.7 421.3,199.5 421.6,200.4 421.9,201.4 422.2,202.1 422.5,200.1 422.8,202.0 423.1,198.9 423.4,196.8 423.7,196.6 424.0,199.2 424.3,201.1 424.6,200.2 424.9,201.7 425.2,202.0 425.5,202.8 425.8,202.2 426.1,201.1 426.4,201.3 426.7,206.7 427.0,205.0 427.3,202.6 427.6,202.5 427.9,203.4 428.2,202.0 428.5,201.4 428.8,199.1 429.1,198.5 429.4,200.3 429.7,198.4 430.0,199.7 430.3,201.8 430.6,197.8 430.9,196.8 431.2,197.2 431.5,200.6 431.8,202.8 432.1,203.3 432.4,197.3 432.7,200.5 433.0,200.3 433.3,195.8 433.6,192.9 433.9,194.9 434.2,194.6 434.5,195.1 434.8,194.9 435.1,193.0 435.4,192.3 435.7,194.6 436.0,196.5 436.3,194.7 436.6,197.5 436.9,198.2 437.2,195.9 437.5,194.7 437.8,195.0 438.1,197.7 438.4,197.7 438.7,198.5 439.0,201.0 439.3,203.3 439.6,210.5 439.9,204.9 440.2,203.2 440.5,202.3 440.8,202.3 441.1,201.9 441.4,200.0 441.7,199.6 442.0,201.5 442.3,201.5 442.6,202.7 442.9,200.7 443.2,200.4 443.5,200.3 443.8,200.7 444.1,200.5 444.4,201.3 444.7,202.0 445.0,202.4 445.3,203.2 445.6,205.7 445.9,203.1 446.2,203.0 446.5,204.6 446.8,207.0 447.1,206.0 447.4,203.2 447.7,204.8 448.0,203.0 448.3,203.5 448.6,202.3 448.9,203.6 449.2,203.6 449.5,205.7 449.8,206.4 450.1,207.3 450.4,207.7 450.7,206.9 451.0,205.3 451.3,205.9 451.6,203.5 451.9,198.4 452.2,197.1 452.5,200.1 452.8,198.6 453.1,199.3 453.4,197.9 453.7,195.4 454.0,195.1 454.3,197.3 454.6,196.1 454.9,194.3 455.2,194.8 455.5,194.1 455.8,199.1 456.1,197.3 456.4,191.9 456.7,191.2 457.0,191.9 457.3,192.8 457.6,193.0 457.9,193.3 458.2,195.0 458.5,199.3 458.8,207.1 459.1,212.5 459.4,211.9 459.7,212.5 460.0,207.3 460.3,205.0 460.6,192.4 460.9,191.0 461.2,188.0 461.5,188.2 461.8,189.0 462.1,189.6 462.4,189.8 462.7,190.7 463.0,189.8 463.3,189.9 463.6,190.7 463.9,191.2 464.2,191.2 464.5,191.2 464.8,187.4 465.1,188.6 465.4,188.4 465.7,188.0 466.0,185.9 466.3,184.4 466.6,184.1 466.9,182.8 467.2,182.2 467.5,186.0 467.8,188.1 468.1,185.1 468.4,185.0 468.7,185.2 469.0,185.3 469.3,188.2 469.6,187.3 469.9,188.1 470.2,188.4 470.5,188.1 470.8,188.7 471.1,189.9 471.4,190.5 471.7,190.1 472.0,190.8 472.3,190.4 472.6,195.6 472.9,194.3 473.2,205.0 473.5,217.2 473.8,216.3 474.1,214.9 474.4,216.5 474.7,215.2 475.0,214.4 475.3,211.8 475.6,210.1 475.9,212.1 476.2,213.6 476.5,213.1 476.8,211.2 477.1,212.4 477.4,213.8 477.7,213.2 478.0,213.5 478.3,215.4 478.6,214.2 478.9,213.6 479.2,214.7 479.5,216.2 479.8,216.0 480.1,216.3 480.4,218.0 480.7,216.2 481.0,215.5 481.3,216.7 481.6,215.2 481.9,215.9 482.2,216.3 482.5,216.4 482.8,216.5 483.1,215.6 483.4,219.5 483.7,217.2 484.0,217.1 484.3,213.0 484.6,213.4 484.9,214.1 485.2,213.3 485.5,213.4 485.8,211.5 486.1,210.2 486.4,211.5 486.7,212.0 487.0,214.0 487.3,214.9 487.6,213.9 487.9,216.0 488.2,215.6 488.5,215.5 488.8,215.0 489.1,215.2 489.4,215.8 489.7,215.2 490.0,214.6 490.3,214.1 490.6,214.0 490.9,209.2 491.2,204.5 491.5,203.6 491.8,204.6 492.1,203.7 492.4,200.2 492.7,201.8 493.0,208.4 493.3,206.9 493.6,206.4 493.9,206.9 494.2,208.1 494.5,208.1 494.8,209.3 495.1,210.0 495.4,209.7 495.7,209.2 496.0,208.8 496.3,209.8 496.6,208.8 496.9,208.1 497.2,211.0 497.5,207.9 497.8,207.4 498.1,209.4 498.4,207.2 498.7,207.9 499.0,206.4 499.3,206.7 499.6,206.2 499.9,205.4 500.2,207.5 500.5,207.4 500.8,209.7 501.1,213.9 501.4,215.6 501.7,216.4 502.0,215.1 502.3,214.8 502.6,214.3 502.9,215.2 503.2,213.6 503.5,212.8 503.8,207.7 504.1,208.1 504.4,208.6 504.7,209.7 505.0,209.4 505.3,208.5 505.6,205.9 505.9,205.3 506.2,203.6 506.5,203.7 506.8,200.3 507.1,198.8 507.4,197.5 507.7,200.1 508.0,198.0 508.3,198.6 508.6,198.6 508.9,199.6 509.2,197.6 509.5,198.6 509.8,195.1 510.1,186.4 510.4,190.8 510.7,190.0 511.0,192.0 511.3,190.5 511.6,190.9 511.9,192.3 512.2,190.5 512.5,189.5 512.8,198.5 513.1,195.7 513.4,190.9 513.7,187.6 514.0,189.0 514.3,183.1 514.6,177.4 514.9,177.4 515.2,179.2 515.5,181.6 515.8,179.2 516.1,180.7 516.4,183.6 516.7,181.9 517.0,180.9 517.3,178.4 517.6,180.6 517.9,181.2 518.2,180.8 518.5,195.6 518.8,204.4 519.1,201.9 519.4,205.0 519.7,204.7 520.0,205.7 520.3,201.5 520.6,197.5 520.9,195.3 521.2,196.4 521.5,196.6 521.8,196.2 522.1,190.7 522.4,197.5 522.7,198.0 523.0,198.6 523.3,201.9 523.6,198.0 523.9,198.5 524.2,197.9 524.5,197.0 524.8,196.9 525.1,196.3 525.4,198.2 525.7,197.7 526.0,195.8 526.3,195.8 526.6,197.4 526.9,201.1 527.2,200.0 527.5,198.1 527.8,190.1 528.1,193.4 528.4,195.3 528.7,195.1 529.0,198.8 529.3,201.1 529.6,208.0 529.9,204.4 530.2,204.7 530.5,205.0 530.8,206.7 531.1,207.4 531.4,205.5 531.7,205.6 532.0,207.1 532.3,207.6 532.6,206.9 532.9,201.7 533.2,199.8 533.5,198.6 533.8,197.7 534.1,197.2 534.4,197.1 534.7,195.0 535.0,192.8 535.3,191.5 535.6,196.2 535.9,194.7 536.1,197.6 536.4,195.2 536.7,194.1 537.0,190.5 537.3,189.8 537.6,185.0 537.9,185.4 538.2,188.5 538.5,187.7 538.8,187.7 539.1,186.6 539.4,190.6 539.7,194.3 540.0,195.4 540.3,199.5 540.6,197.5 540.9,197.5 541.2,197.7 541.5,197.1 541.8,194.9 542.1,191.9 542.4,184.0 542.7,189.2 543.0,188.1 543.3,186.4 543.6,183.7 543.9,186.9 544.2,187.2 544.5,189.4 544.8,190.4 545.1,186.3 545.4,197.4 545.7,187.1 546.0,182.2 546.3,181.3 546.6,179.7 546.9,176.8 547.2,172.5 547.5,168.4 547.8,167.2 548.1,161.7 548.4,165.8 548.7,166.0 549.0,165.3 549.3,164.5 549.6,167.4 549.9,168.0 550.2,167.0 550.5,166.4 550.8,158.7 551.1,162.5 551.4,162.3 551.7,163.7 552.0,163.1 552.3,165.4 552.6,163.9 552.9,170.3 553.2,169.5 553.5,169.4 553.8,168.4 554.1,169.2 554.4,172.5 554.7,176.5 555.0,174.3 555.3,177.2 555.6,171.8 555.9,170.3 556.2,169.8 556.5,160.7 556.8,159.1 557.1,156.3 557.4,157.8 557.7,153.5 558.0,159.6 558.3,158.2 558.6,151.2 558.9,155.0 559.2,155.8 559.5,154.2 559.8,159.9 560.1,161.8 560.4,153.9 560.7,152.6 561.0,153.5 561.3,152.7 561.6,153.3 561.9,159.0 562.2,159.0 562.5,153.3 562.8,146.3 563.1,144.4 563.4,146.2 563.7,146.4 564.0,144.2 564.3,143.4 564.6,141.2 564.9,142.4 565.2,137.5 565.5,136.6 565.8,139.0 566.1,134.9 566.4,132.7 566.7,131.0 567.0,130.2 567.3,124.8 567.6,127.1 567.9,121.9 568.2,114.9 568.5,139.2 568.8,147.2 569.1,141.8 569.4,143.9 569.7,145.6 570.0,142.1 570.3,141.5 570.6,142.4 570.9,150.3 571.2,145.3 571.5,146.3 571.8,147.3 572.1,145.3 572.4,152.7 572.7,156.7 573.0,154.1 573.3,157.1 573.6,157.3 573.9,160.7 574.2,167.6 574.5,164.4 574.8,163.0 575.1,166.2 575.4,164.8 575.7,167.0 576.0,170.1 576.3,168.9 576.6,167.5 576.9,173.0 577.2,172.9 577.5,169.2 577.8,172.1 578.1,174.7 578.4,176.2 578.7,179.0 579.0,182.0 579.3,183.1 579.6,183.3 579.9,182.2 580.2,183.2 580.5,181.7 580.8,178.8 581.1,179.0 581.4,174.2 581.7,171.4 582.0,170.2 582.3,168.5 582.6,168.6 582.9,168.5 583.2,168.5 583.5,162.5 583.8,163.3 584.1,161.5 584.4,157.9 584.7,159.3 585.0,158.6 585.3,158.4 585.6,161.8 585.9,164.1 586.2,162.6 586.5,169.1 586.8,169.4 587.1,169.4 587.4,166.7 587.7,166.3 588.0,167.9 588.3,165.3 588.6,166.7 588.9,165.8 589.2,169.5 589.5,172.5 589.8,172.4 590.1,172.3 590.4,173.0 590.7,177.2 591.0,183.6 591.3,178.4 591.6,177.6 591.9,174.8 592.2,173.3 592.5,173.0 592.8,175.5 593.1,177.2 593.4,177.9 593.7,176.2 594.0,181.4 594.3,178.1 594.6,167.7 594.9,171.0 595.2,171.6 595.5,177.1 595.8,175.9 596.1,172.6 596.4,167.2 596.7,164.4 597.0,164.9 597.3,169.7 597.6,174.4 597.9,174.1 598.2,176.0 598.5,181.0 598.8,178.1 599.1,180.4 599.4,176.1 599.7,175.9 600.0,176.6 600.3,180.7 600.6,178.9 600.9,187.1 601.2,188.0 601.5,189.1 601.8,190.7 602.1,185.9 602.4,181.5 602.7,181.0 603.0,185.2 603.3,186.2 603.6,187.5 603.9,190.1 604.2,182.1 604.5,182.1 604.8,177.4 605.1,177.8 605.4,173.3 605.7,168.6 606.0,170.4 606.3,169.4 606.6,168.3 606.9,170.6 607.2,169.8 607.5,168.7 607.8,165.1 608.1,168.2 608.4,172.3 608.7,169.6 609.0,169.2 609.3,167.7 609.6,163.4 609.9,161.1 610.2,160.2 610.5,158.2 610.8,158.4 611.1,157.0 611.4,157.4 611.7,157.7 612.0,153.6 612.3,155.7 612.6,157.8 612.9,157.7 613.2,153.6 613.5,157.3 613.8,152.5 614.1,158.2 614.4,158.7 614.7,153.8 615.0,153.9 615.3,151.8 615.6,151.6 615.9,149.5 616.2,151.4 616.5,151.6 616.8,150.1 617.1,153.9 617.4,153.7 617.7,154.2 618.0,149.9 618.3,151.3 618.6,149.5 618.9,148.9 619.2,148.8 619.5,148.3 619.8,147.6 620.1,150.0 620.4,147.5 620.7,141.2 621.0,140.6 621.3,154.9 621.6,157.9 621.9,160.6 622.2,158.0 622.5,161.0 622.8,164.0 623.1,167.9 623.4,164.7 623.7,164.6 624.0,160.1 624.3,159.0 624.6,158.0 624.9,158.8 625.2,155.4 625.5,155.4 625.8,153.5 626.1,151.3 626.4,151.4 626.7,150.0 627.0,148.5 627.3,142.4 627.6,143.8 627.9,143.7 628.2,143.1 628.5,141.5 628.8,142.1 629.1,144.3 629.4,146.6 629.7,152.9 630.0,155.9 630.3,160.0 630.6,208.7 630.9,197.5 631.2,202.7 631.5,206.6 631.8,205.4 632.1,206.0 632.4,208.9 632.7,207.2 633.0,207.6 633.3,208.8 633.6,207.7 633.9,203.6 634.2,203.8 634.5,203.6 634.8,200.9 635.1,201.7 635.4,201.0 635.7,200.5 636.0,199.2 636.3,197.9 636.6,198.5 636.9,198.5 637.2,200.8 637.5,202.1 637.8,202.1 638.1,200.0 638.4,200.9 638.7,200.1 639.0,199.6 639.3,200.2 639.6,199.9 639.9,199.4 640.2,197.8 640.5,198.9 640.8,197.7 641.1,195.6 641.4,195.5 641.7,194.5 642.0,194.4 642.3,194.0 642.6,196.6 642.9,198.5 643.2,201.6 643.5,202.1 643.8,203.9 644.1,202.2 644.4,202.6 644.7,200.9 645.0,198.8 645.3,199.7 645.6,200.5 645.9,202.6 646.2,201.6 646.5,202.0 646.8,204.5 647.1,205.4 647.4,206.0 647.7,206.5 648.0,207.0 648.3,203.4 648.6,202.7 648.9,198.0 649.2,195.8 649.5,195.7 649.8,195.3 650.1,194.3 650.4,198.8 650.7,202.8 651.0,201.9 651.3,204.0 651.6,203.6 651.9,202.8 652.2,202.3 652.5,202.5 652.8,202.4 653.1,203.3 653.4,204.1 653.7,204.1 654.0,204.9 654.3,204.5 654.6,199.2 654.9,200.9 655.2,201.7 655.5,201.7 655.8,200.4 656.1,201.1 656.4,202.6 656.7,196.1 657.0,194.4 657.3,194.1 657.6,195.0 657.9,197.3 658.2,200.3 658.5,200.9 658.8,202.4 659.1,199.8 659.4,199.1 659.7,199.9 660.0,201.6 660.3,201.7 660.6,202.1 660.9,200.7 661.2,201.1 661.5,200.1 661.8,202.7 662.1,206.0 662.4,207.4 662.7,208.9 663.0,207.0 663.3,207.7 663.6,206.9 663.9,206.9 664.2,194.3 664.5,189.0 664.8,193.1 665.1,203.4 665.4,200.2 665.7,200.8 666.0,202.5 666.3,202.5 666.6,202.6 666.9,204.6 667.2,210.4 667.5,212.1 667.8,209.8 668.1,212.9 668.4,212.8 668.7,211.8 669.0,212.8 669.3,213.5 669.6,217.2 669.9,214.0 670.2,212.7 670.5,215.2 670.8,218.6 671.1,214.8 671.4,214.1 671.7,213.2 672.0,214.3 672.3,216.0 672.6,215.1 672.9,214.0 673.2,214.1 673.5,216.1 673.8,214.7 674.1,214.4 674.4,214.5 674.7,212.7 675.0,212.9 675.3,214.5 675.6,218.1 675.9,220.7 676.2,218.0 676.5,217.9 676.8,219.2 677.1,218.5 677.4,217.0 677.7,217.0 678.0,219.2 678.3,220.5 678.6,219.6 678.9,216.8 679.2,221.0 679.5,219.0 679.8,223.5 680.1,219.8 680.4,218.0 680.7,220.5 681.0,224.0 681.3,219.5 681.6,220.0 681.9,214.1 682.2,213.3 682.5,211.2 682.8,211.0 683.1,210.7 683.4,211.4 683.7,208.2 684.0,206.8 684.3,205.6 684.6,215.1 684.9,214.1 685.2,214.4 685.5,213.4 685.8,216.6 686.1,213.8 686.4,214.2 686.7,214.1 687.0,214.9 687.3,214.9 687.6,213.3 687.9,212.8 688.2,210.9 688.5,207.4 688.8,207.1 689.1,210.1 689.4,213.1 689.7,212.9 690.0,212.1 690.3,214.8 690.6,216.4 690.9,214.6 691.2,214.5 691.5,213.3 691.8,213.3 692.1,212.8 692.4,212.9 692.7,213.7 693.0,213.7 693.3,212.2 693.6,214.7 693.9,214.9 694.2,216.6 694.5,215.9 694.8,217.4 695.1,220.4 695.4,219.4 695.7,220.5 696.0,222.0"/>
  <polyline fill="none" stroke="#16a34a" stroke-width="2" points="56.0,277.0 56.3,277.7 56.6,278.9 56.9,278.9 57.2,278.9 57.5,278.8 57.8,279.2 58.1,279.0 58.4,278.9 58.7,278.1 59.0,277.8 59.3,277.6 59.6,278.3 59.9,277.8 60.2,277.9 60.5,278.6 60.8,279.5 61.1,280.4 61.4,280.5 61.7,280.4 62.0,280.6 62.3,280.3 62.6,279.1 62.9,279.1 63.2,279.3 63.5,279.2 63.8,279.4 64.1,280.0 64.4,279.8 64.7,279.9 65.0,280.6 65.3,280.6 65.6,280.4 65.9,280.0 66.2,279.3 66.5,279.1 66.8,277.6 67.1,277.7 67.4,278.2 67.7,278.6 68.0,278.1 68.3,278.4 68.6,278.2 68.9,278.2 69.2,277.7 69.5,277.8 69.8,278.3 70.1,277.3 70.4,277.6 70.7,277.6 71.0,277.6 71.3,277.9 71.6,277.5 71.9,277.7 72.2,277.7 72.5,277.4 72.8,277.0 73.1,277.7 73.4,276.8 73.7,277.4 74.0,277.4 74.3,277.7 74.6,277.4 74.9,277.2 75.2,277.3 75.5,277.8 75.8,277.8 76.1,277.7 76.4,277.7 76.7,278.0 77.0,277.8 77.3,277.6 77.6,277.9 77.9,278.4 78.2,279.6 78.5,279.7 78.8,279.0 79.1,279.4 79.4,278.9 79.7,279.1 80.0,279.4 80.3,279.7 80.6,280.2 80.9,280.3 81.2,280.5 81.5,281.1 81.8,282.2 82.1,282.0 82.4,282.3 82.7,282.0 83.0,282.0 83.3,282.2 83.6,282.3 83.9,283.4 84.2,282.7 84.5,282.5 84.8,282.5 85.1,281.7 85.4,281.7 85.7,281.4 86.0,280.9 86.3,281.8 86.6,281.9 86.9,281.8 87.2,281.9 87.5,282.1 87.8,280.3 88.1,279.5 88.4,277.8 88.7,278.2 89.0,278.2 89.3,279.6 89.6,278.2 89.9,277.8 90.2,276.9 90.5,277.1 90.8,277.9 91.1,277.8 91.4,277.6 91.7,277.0 92.0,277.0 92.3,276.7 92.6,276.4 92.9,276.7 93.2,276.9 93.5,276.4 93.8,275.8 94.1,276.0 94.4,276.9 94.7,277.4 95.0,278.7 95.3,278.5 95.6,278.5 95.9,278.0 96.2,277.4 96.5,276.9 96.8,276.6 97.1,277.3 97.4,277.4 97.7,277.1 98.0,276.9 98.3,276.6 98.6,277.2 98.9,277.4 99.2,276.8 99.5,278.1 99.8,277.9 100.1,277.0 100.4,277.0 100.7,277.9 101.0,278.1 101.3,278.5 101.6,278.6 101.9,278.4 102.2,279.3 102.5,278.0 102.8,278.0 103.1,277.7 103.4,276.9 103.7,277.3 104.0,276.9 104.3,277.0 104.6,277.3 104.9,277.9 105.2,278.0 105.5,277.8 105.8,277.8 106.1,277.8 106.4,277.4 106.7,277.5 107.0,277.7 107.3,278.2 107.6,276.1 107.9,275.9 108.2,276.8 108.5,277.1 108.8,277.1 109.1,276.9 109.4,277.0 109.7,276.6 110.0,276.7 110.3,277.1 110.6,277.3 110.9,277.5 111.2,277.8 111.5,277.9 111.8,278.2 112.1,278.0 112.4,278.4 112.7,277.9 113.0,278.2 113.3,277.9 113.6,278.2 113.9,278.2 114.2,277.9 114.5,277.8 114.8,277.7 115.1,277.8 115.4,277.8 115.7,277.8 116.0,278.0 116.3,277.7 116.6,277.1 116.9,276.6 117.2,277.3 117.5,276.8 117.8,276.2 118.1,275.9 118.4,276.1 118.7,276.0 119.0,276.4 119.3,274.6 119.6,275.3 119.9,275.8 120.2,275.8 120.5,273.7 120.8,273.8 121.1,274.3 121.4,273.5 121.7,273.8 122.0,274.5 122.3,273.6 122.6,274.4 122.9,275.0 123.2,274.6 123.5,274.9 123.8,275.0 124.1,274.0 124.4,275.0 124.7,274.9 125.0,274.0 125.3,273.6 125.6,274.9 125.9,277.7 126.2,277.6 126.5,277.8 126.8,276.6 127.1,276.7 127.4,276.9 127.7,277.1 128.0,276.8 128.3,277.1 128.6,276.6 128.9,276.5 129.2,276.3 129.5,276.3 129.8,276.7 130.1,277.4 130.4,279.6 130.7,277.6 131.0,277.8 131.3,277.8 131.6,279.7 131.9,275.1 132.2,278.2 132.5,279.0 132.8,278.8 133.1,279.1 133.4,279.0 133.7,278.3 134.0,277.7 134.3,278.4 134.6,277.5 134.9,278.0 135.2,278.7 135.5,279.0 135.8,278.9 136.1,279.2 136.4,277.4 136.7,279.1 137.0,278.5 137.3,278.4 137.6,278.1 137.9,278.2 138.2,277.1 138.5,277.4 138.8,278.4 139.1,278.5 139.4,279.5 139.7,279.2 140.0,279.3 140.3,279.0 140.6,278.6 140.9,278.8 141.2,276.8 141.5,276.5 141.8,276.6 142.1,276.0 142.4,275.7 142.7,275.0 143.0,275.2 143.3,275.9 143.6,276.3 143.9,276.6 144.2,276.2 144.5,276.1 144.8,276.5 145.1,277.0 145.4,277.4 145.7,278.4 146.0,276.3 146.3,276.4 146.6,277.8 146.9,277.5 147.2,277.3 147.5,276.2 147.8,277.0 148.1,276.6 148.4,277.3 148.7,277.6 149.0,277.8 149.3,278.1 149.6,277.8 149.9,277.9 150.2,278.0 150.5,278.3 150.8,277.7 151.1,278.2 151.4,277.7 151.7,277.5 152.0,277.3 152.3,276.8 152.6,276.4 152.9,276.1 153.2,276.4 153.5,275.6 153.8,277.4 154.1,277.3 154.4,277.7 154.7,276.4 155.0,276.9 155.3,277.8 155.6,278.2 155.9,278.6 156.2,278.9 156.5,279.9 156.8,279.8 157.1,278.4 157.4,278.1 157.7,278.5 158.0,277.6 158.3,278.5 158.6,277.6 158.9,277.4 159.2,276.4 159.5,276.4 159.8,276.9 160.1,277.3 160.4,277.4 160.7,277.3 161.0,277.6 161.3,277.9 161.6,277.8 161.9,278.2 162.2,276.9 162.5,277.4 162.8,277.3 163.1,277.3 163.4,277.1 163.7,276.9 164.0,277.1 164.3,278.3 164.6,278.7 164.9,279.1 165.2,279.2 165.5,279.1 165.8,278.6 166.1,278.1 166.4,278.5 166.7,277.9 167.0,278.1 167.3,278.4 167.6,278.0 167.9,278.1 168.2,278.0 168.5,277.9 168.8,278.3 169.1,278.8 169.4,279.2 169.7,279.6 170.0,279.2 170.3,279.3 170.6,279.0 170.9,279.1 171.2,279.4 171.5,282.0 171.8,281.4 172.1,281.6 172.4,282.5 172.7,282.0 173.0,280.9 173.3,279.9 173.6,278.3 173.9,279.8 174.2,279.4 174.5,278.9 174.8,279.3 175.1,279.4 175.4,280.2 175.7,280.9 176.0,281.5 176.3,281.3 176.6,280.9 176.9,280.9 177.2,281.2 177.5,281.3 177.8,282.2 178.1,283.4 178.4,282.7 178.7,283.3 179.0,282.8 179.3,282.6 179.6,282.4 179.9,282.5 180.2,282.5 180.5,283.0 180.8,282.7 181.1,284.0 181.4,283.7 181.7,283.6 182.0,283.5 182.3,283.8 182.6,283.0 182.9,282.5 183.2,282.2 183.5,282.2 183.8,282.2 184.1,282.2 184.4,282.2 184.7,282.9 185.0,282.8 185.3,282.9 185.6,282.5 185.9,282.6 186.2,282.9 186.5,283.5 186.8,283.3 187.1,283.3 187.4,282.7 187.7,282.8 188.0,282.6 188.3,282.5 188.6,282.2 188.9,282.2 189.2,280.9 189.5,282.9 189.8,281.8 190.1,282.7 190.4,282.5 190.7,283.3 191.0,286.2 191.3,285.3 191.6,285.4 191.9,285.1 192.2,285.1 192.5,286.1 192.8,286.1 193.1,285.3 193.4,285.4 193.7,285.3 194.0,285.1 194.3,285.4 194.6,285.4 194.9,286.6 195.2,286.4 195.5,290.1 195.8,289.5 196.1,290.0 196.4,289.3 196.7,289.4 197.0,287.5 197.3,285.2 197.6,286.3 197.9,287.4 198.2,289.3 198.5,289.0 198.8,289.3 199.1,289.3 199.4,288.7 199.7,289.1 200.0,289.0 200.3,288.3 200.6,288.2 200.9,288.1 201.2,289.1 201.5,289.0 201.8,288.2 202.1,285.0 202.4,281.7 202.7,281.8 203.0,282.3 203.3,283.6 203.6,284.2 203.9,284.2 204.2,283.1 204.5,283.0 204.8,282.2 205.1,282.3 205.4,282.7 205.7,282.2 206.0,282.3 206.3,282.2 206.6,282.7 206.9,282.6 207.2,283.1 207.5,282.6 207.8,282.8 208.1,282.8 208.4,282.7 208.7,282.8 209.0,282.3 209.3,282.1 209.6,282.4 209.9,283.4 210.2,283.1 210.5,282.2 210.8,283.7 211.1,284.0 211.4,283.1 211.7,282.8 212.0,283.6 212.3,283.6 212.6,283.6 212.9,283.7 213.2,284.0 213.5,283.5 213.8,283.7 214.1,283.5 214.4,283.1 214.7,283.7 215.0,283.3 215.3,283.1 215.6,282.8 215.9,283.0 216.1,283.1 216.4,283.0 216.7,283.0 217.0,282.9 217.3,282.8 217.6,280.6 217.9,277.9 218.2,275.5 218.5,276.2 218.8,276.0 219.1,275.0 219.4,272.7 219.7,273.0 220.0,272.2 220.3,270.4 220.6,267.2 220.9,270.6 221.2,271.1 221.5,270.6 221.8,271.9 222.1,272.8 222.4,272.8 222.7,274.3 223.0,275.0 223.3,275.9 223.6,277.5 223.9,276.5 224.2,279.4 224.5,275.4 224.8,272.1 225.1,272.3 225.4,272.1 225.7,271.2 226.0,269.4 226.3,269.0 226.6,269.3 226.9,269.1 227.2,269.1 227.5,270.3 227.8,270.2 228.1,270.5 228.4,268.1 228.7,269.2 229.0,270.5 229.3,269.2 229.6,273.1 229.9,270.5 230.2,270.5 230.5,270.1 230.8,270.2 231.1,272.3 231.4,274.7 231.7,274.9 232.0,280.8 232.3,282.4 232.6,281.9 232.9,282.2 233.2,284.0 233.5,285.2 233.8,284.8 234.1,286.6 234.4,286.6 234.7,289.4 235.0,288.9 235.3,286.4 235.6,286.7 235.9,287.2 236.2,286.7 236.5,285.1 236.8,282.2 237.1,284.5 237.4,282.2 237.7,282.7 238.0,281.4 238.3,280.0 238.6,279.2 238.9,277.0 239.2,279.2 239.5,279.0 239.8,278.7 240.1,278.9 240.4,279.1 240.7,279.0 241.0,279.1 241.3,280.8 241.6,282.4 241.9,283.2 242.2,282.0 242.5,282.3 242.8,282.5 243.1,282.2 243.4,282.4 243.7,279.4 244.0,279.3 244.3,277.8 244.6,278.1 244.9,276.9 245.2,276.7 245.5,276.7 245.8,276.5 246.1,276.5 246.4,276.6 246.7,276.5 247.0,276.7 247.3,274.0 247.6,275.1 247.9,273.8 248.2,272.1 248.5,273.4 248.8,275.6 249.1,276.6 249.4,274.0 249.7,273.8 250.0,274.4 250.3,272.3 250.6,270.5 250.9,271.2 251.2,271.9 251.5,269.3 251.8,269.2 252.1,270.0 252.4,270.6 252.7,270.6 253.0,270.2 253.3,271.1 253.6,272.1 253.9,272.1 254.2,270.9 254.5,269.7 254.8,268.8 255.1,269.5 255.4,269.8 255.7,270.2 256.0,270.5 256.3,270.3 256.6,269.7 256.9,269.8 257.2,270.4 257.5,270.1 257.8,273.2 258.1,274.1 258.4,273.6 258.7,274.0 259.0,273.5 259.3,274.0 259.6,273.4 259.9,271.7 260.2,272.0 260.5,272.2 260.8,273.3 261.1,272.3 261.4,271.2 261.7,270.0 262.0,271.0 262.3,267.8 262.6,268.7 262.9,268.4 263.2,269.1 263.5,270.4 263.8,270.4 264.1,270.5 264.4,269.1 264.7,269.2 265.0,269.5 265.3,268.7 265.6,268.4 265.9,268.8 266.2,268.7 266.5,268.3 266.8,268.3 267.1,268.5 267.4,268.2 267.7,267.6 268.0,268.8 268.3,269.1 268.6,268.5 268.9,269.5 269.2,268.4 269.5,269.0 269.8,264.3 270.1,264.8 270.4,263.0 270.7,264.0 271.0,264.2 271.3,267.5 271.6,268.5 271.9,269.1 272.2,268.9 272.5,269.0 272.8,266.2 273.1,263.4 273.4,263.9 273.7,264.4 274.0,261.6 274.3,262.1 274.6,264.9 274.9,267.2 275.2,268.0 275.5,269.1 275.8,267.4 276.1,267.1 276.4,268.0 276.7,267.6 277.0,265.9 277.3,266.5 277.6,267.8 277.9,267.3 278.2,267.7 278.5,268.3 278.8,267.9 279.1,268.1 279.4,268.1 279.7,268.7 280.0,270.4 280.3,270.3 280.6,271.6 280.9,270.0 281.2,267.8 281.5,267.1 281.8,265.7 282.1,264.9 282.4,263.6 282.7,264.1 283.0,264.2 283.3,263.8 283.6,263.7 283.9,264.6 284.2,264.7 284.5,264.2 284.8,262.6 285.1,262.7 285.4,262.5 285.7,261.0 286.0,260.9 286.3,261.3 286.6,261.8 286.9,261.6 287.2,262.0 287.5,262.0 287.8,260.8 288.1,260.0 288.4,261.1 288.7,262.3 289.0,260.6 289.3,260.4 289.6,260.5 289.9,261.1 290.2,264.5 290.5,262.3 290.8,262.1 291.1,262.3 291.4,261.8 291.7,261.0 292.0,259.5 292.3,258.0 292.6,260.3 292.9,257.7 293.2,260.3 293.5,259.7 293.8,259.7 294.1,259.4 294.4,258.8 294.7,258.6 295.0,259.4 295.3,257.4 295.6,256.1 295.9,254.5 296.2,253.5 296.5,252.9 296.8,254.3 297.1,256.5 297.4,256.8 297.7,253.6 298.0,252.1 298.3,252.7 298.6,252.3 298.9,251.2 299.2,250.9 299.5,249.4 299.8,248.7 300.1,249.7 300.4,245.0 300.7,245.5 301.0,236.8 301.3,237.5 301.6,239.5 301.9,243.6 302.2,241.7 302.5,237.6 302.8,238.4 303.1,238.4 303.4,237.6 303.7,234.5 304.0,236.5 304.3,238.9 304.6,236.7 304.9,236.2 305.2,237.7 305.5,233.9 305.8,235.1 306.1,234.9 306.4,236.5 306.7,234.6 307.0,228.7 307.3,224.1 307.6,225.4 307.9,224.2 308.2,220.2 308.5,216.3 308.8,220.5 309.1,219.4 309.4,222.4 309.7,227.4 310.0,225.5 310.3,224.9 310.6,227.4 310.9,223.2 311.2,224.8 311.5,221.4 311.8,221.0 312.1,221.9 312.4,222.3 312.7,225.9 313.0,226.2 313.3,226.4 313.6,223.7 313.9,221.7 314.2,221.6 314.5,219.5 314.8,220.1 315.1,214.8 315.4,214.7 315.7,216.5 316.0,214.9 316.3,216.4 316.6,213.9 316.9,213.0 317.2,211.7 317.5,209.2 317.8,210.8 318.1,210.9 318.4,207.3 318.7,208.4 319.0,215.6 319.3,216.1 319.6,214.5 319.9,213.1 320.2,219.1 320.5,215.9 320.8,217.3 321.1,219.4 321.4,220.5 321.7,221.6 322.0,219.1 322.3,220.2 322.6,221.8 322.9,221.0 323.2,220.3 323.5,220.9 323.8,217.9 324.1,216.3 324.4,219.6 324.7,218.5 325.0,218.1 325.3,217.7 325.6,215.0 325.9,215.2 326.2,215.6 326.5,214.1 326.8,214.9 327.1,216.7 327.4,216.2 327.7,215.2 328.0,214.8 328.3,212.4 328.6,213.9 328.9,215.0 329.2,213.5 329.5,213.0 329.8,210.5 330.1,209.8 330.4,208.9 330.7,209.1 331.0,208.7 331.3,209.3 331.6,205.1 331.9,203.7 332.2,205.0 332.5,204.2 332.8,197.3 333.1,199.9 333.4,194.4 333.7,195.0 334.0,196.2 334.3,199.3 334.6,202.3 334.9,197.9 335.2,198.7 335.5,198.3 335.8,199.3 336.1,201.4 336.4,202.3 336.7,202.0 337.0,203.1 337.3,205.3 337.6,208.2 337.9,206.1 338.2,205.0 338.5,205.8 338.8,205.9 339.1,206.6 339.4,207.3 339.7,203.0 340.0,198.8 340.3,199.3 340.6,195.9 340.9,197.9 341.2,184.4 341.5,177.2 341.8,161.0 342.1,159.1 342.4,167.1 342.7,160.7 343.0,157.8 343.3,152.0 343.6,149.7 343.9,151.5 344.2,153.4 344.5,149.6 344.8,146.7 345.1,149.7 345.4,154.5 345.7,154.1 346.0,149.2 346.3,149.0 346.6,151.9 346.9,152.6 347.2,150.4 347.5,138.5 347.8,136.0 348.1,143.4 348.4,139.9 348.7,139.9 349.0,141.3 349.3,137.6 349.6,121.4 349.9,96.5 350.2,93.7 350.5,92.8 350.8,93.0 351.1,91.9 351.4,77.7 351.7,94.1 352.0,103.2 352.3,101.3 352.6,120.5 352.9,110.8 353.2,109.4 353.5,117.1 353.8,117.7 354.1,110.2 354.4,107.0 354.7,112.0 355.0,109.3 355.3,96.7 355.6,96.2 355.9,96.9 356.2,94.2 356.5,93.0 356.8,87.3 357.1,88.2 357.4,86.1 357.7,95.1 358.0,99.9 358.3,93.5 358.6,96.4 358.9,97.8 359.2,104.7 359.5,111.1 359.8,107.2 360.1,111.4 360.4,111.5 360.7,100.5 361.0,104.3 361.3,101.2 361.6,95.0 361.9,88.2 362.2,65.9 362.5,75.0 362.8,80.2 363.1,95.4 363.4,91.6 363.7,100.2 364.0,115.6 364.3,110.3 364.6,102.0 364.9,100.8 365.2,104.9 365.5,103.2 365.8,101.0 366.1,103.2 366.4,107.6 366.7,103.1 367.0,98.4 367.3,95.4 367.6,96.2 367.9,95.8 368.2,96.1 368.5,96.1 368.8,97.4 369.1,97.0 369.4,91.6 369.7,90.8 370.0,91.5 370.3,102.9 370.6,96.8 370.9,97.0 371.2,104.1 371.5,114.3 371.8,115.5 372.1,122.7 372.4,120.5 372.7,118.3 373.0,119.8 373.3,114.5 373.6,118.2 373.9,120.6 374.2,126.9 374.5,129.4 374.8,130.1 375.1,127.2 375.4,132.3 375.7,140.0 376.0,131.0 376.3,132.4 376.6,134.6 376.9,134.0 377.2,140.4 377.5,144.8 377.8,141.7 378.1,155.1 378.4,145.7 378.7,144.2 379.0,137.1 379.3,137.3 379.6,139.6 379.9,142.4 380.2,136.9 380.5,129.4 380.8,127.9 381.1,127.3 381.4,132.3 381.7,133.1 382.0,129.4 382.3,129.1 382.6,131.0 382.9,130.1 383.2,124.1 383.5,119.8 383.8,124.1 384.1,122.7 384.4,127.2 384.7,127.8 385.0,127.7 385.3,122.3 385.6,115.2 385.9,109.5 386.2,108.8 386.5,115.4 386.8,113.4 387.1,117.9 387.4,119.0 387.7,118.3 388.0,122.2 388.3,124.6 388.6,121.3 388.9,119.4 389.2,122.9 389.5,133.2 389.8,126.5 390.1,132.9 390.4,136.6 390.7,136.6 391.0,140.3 391.3,146.7 391.6,149.4 391.9,148.8 392.2,145.5 392.5,151.9 392.8,156.7 393.1,163.9 393.4,160.8 393.7,160.2 394.0,153.5 394.3,153.7 394.6,154.4 394.9,154.5 395.2,154.8 395.5,156.5 395.8,162.2 396.1,166.7 396.4,163.3 396.7,156.1 397.0,154.1 397.3,157.6 397.6,159.8 397.9,164.9 398.2,171.1 398.5,168.6 398.8,170.5 399.1,162.7 399.4,165.0 399.7,169.2 400.0,170.7 400.3,171.4 400.6,176.8 400.9,173.2 401.2,176.6 401.5,172.1 401.8,175.9 402.1,174.8 402.4,172.1 402.7,171.4 403.0,178.1 403.3,183.3 403.6,185.5 403.9,184.6 404.2,185.5 404.5,189.2 404.8,184.7 405.1,181.2 405.4,181.0 405.7,181.4 406.0,181.8 406.3,181.3 406.6,182.5 406.9,181.7 407.2,178.7 407.5,179.8 407.8,180.4 408.1,181.4 408.4,183.6 408.7,185.7 409.0,189.5 409.3,189.0 409.6,188.8 409.9,184.8 410.2,178.5 410.5,179.0 410.8,178.8 411.1,181.5 411.4,179.6 411.7,179.2 412.0,180.0 412.3,181.1 412.6,179.9 412.9,174.0 413.2,173.4 413.5,178.8 413.8,181.1 414.1,186.9 414.4,186.2 414.7,184.5 415.0,185.2 415.3,184.9 415.6,186.1 415.9,183.5 416.2,184.2 416.5,186.2 416.8,183.8 417.1,184.9 417.4,185.5 417.7,184.4 418.0,184.9 418.3,181.7 418.6,181.7 418.9,181.6 419.2,182.1 419.5,187.2 419.8,190.6 420.1,190.3 420.4,192.2 420.7,191.5 421.0,195.7 421.3,199.5 421.6,200.4 421.9,201.4 422.2,202.1 422.5,200.1 422.8,202.0 423.1,198.9 423.4,196.8 423.7,196.6 424.0,199.2 424.3,201.1 424.6,200.2 424.9,201.7 425.2,202.0 425.5,202.8 425.8,202.2 426.1,201.1 426.4,201.3 426.7,206.7 427.0,205.0 427.3,202.6 427.6,202.5 427.9,203.4 428.2,202.0 428.5,201.4 428.8,199.1 429.1,198.5 429.4,200.3 429.7,198.4 430.0,199.7 430.3,201.8 430.6,197.8 430.9,196.8 431.2,197.2 431.5,200.6 431.8,202.8 432.1,203.3 432.4,197.3 432.7,200.5 433.0,200.3 433.3,195.8 433.6,192.9 433.9,194.9 434.2,194.6 434.5,195.1 434.8,194.9 435.1,193.0 435.4,192.3 435.7,194.6 436.0,196.5 436.3,194.7 436.6,197.5 436.9,198.2 437.2,195.9 437.5,194.7 437.8,195.0 438.1,197.7 438.4,197.7 438.7,198.5 439.0,201.0 439.3,203.3 439.6,210.5 439.9,204.9 440.2,203.2 440.5,202.3 440.8,202.3 441.1,201.9 441.4,200.0 441.7,199.6 442.0,201.5 442.3,201.5 442.6,202.7 442.9,200.7 443.2,200.4 443.5,200.3 443.8,200.7 444.1,200.5 444.4,201.3 444.7,202.0 445.0,202.4 445.3,203.2 445.6,205.7 445.9,203.1 446.2,203.0 446.5,204.6 446.8,207.0 447.1,206.0 447.4,203.2 447.7,204.8 448.0,203.0 448.3,203.5 448.6,202.3 448.9,203.6 449.2,203.6 449.5,205.7 449.8,206.4 450.1,207.3 450.4,207.7 450.7,206.9 451.0,205.3 451.3,205.9 451.6,203.5 451.9,198.4 452.2,197.1 452.5,200.1 452.8,198.6 453.1,199.3 453.4,197.9 453.7,195.4 454.0,195.1 454.3,197.3 454.6,196.1 454.9,194.3 455.2,194.8 455.5,194.1 455.8,199.1 456.1,197.3 456.4,191.9 456.7,191.2 457.0,191.9 457.3,192.8 457.6,193.0 457.9,193.3 458.2,195.0 458.5,199.3 458.8,207.1 459.1,212.5 459.4,211.9 459.7,212.5 460.0,207.3 460.3,205.0 460.6,192.4 460.9,191.0 461.2,188.0 461.5,188.2 461.8,189.0 462.1,189.6 462.4,189.8 462.7,190.7 463.0,189.8 463.3,189.9 463.6,190.7 463.9,191.2 464.2,191.2 464.5,191.2 464.8,187.4 465.1,188.6 465.4,188.4 465.7,188.0 466.0,185.9 466.3,184.4 466.6,184.1 466.9,182.8 467.2,182.2 467.5,186.0 467.8,188.1 468.1,185.1 468.4,185.0 468.7,185.2 469.0,185.3 469.3,188.2 469.6,187.3 469.9,188.1 470.2,188.4 470.5,188.1 470.8,188.7 471.1,189.9 471.4,190.5 471.7,190.1 472.0,190.8 472.3,190.4 472.6,195.6 472.9,194.3 473.2,205.0 473.5,217.2 473.8,216.3 474.1,214.9 474.4,216.5 474.7,215.2 475.0,214.4 475.3,211.8 475.6,210.1 475.9,212.1 476.2,213.6 476.5,213.1 476.8,211.2 477.1,212.4 477.4,213.8 477.7,213.2 478.0,213.5 478.3,215.4 478.6,214.2 478.9,213.6 479.2,214.7 479.5,216.2 479.8,216.0 480.1,216.3 480.4,218.0 480.7,216.2 481.0,215.5 481.3,216.7 481.6,215.2 481.9,215.9 482.2,216.3 482.5,216.4 482.8,216.5 483.1,215.6 483.4,219.5 483.7,217.2 484.0,217.1 484.3,213.0 484.6,213.4 484.9,214.1 485.2,213.3 485.5,213.4 485.8,211.5 486.1,210.2 486.4,211.5 486.7,212.0 487.0,214.0 487.3,214.9 487.6,213.9 487.9,216.0 488.2,215.6 488.5,215.5 488.8,215.0 489.1,215.2 489.4,215.8 489.7,215.2 490.0,214.6 490.3,214.1 490.6,214.0 490.9,209.2 491.2,204.5 491.5,203.6 491.8,204.6 492.1,203.7 492.4,200.2 492.7,201.8 493.0,208.4 493.3,206.9 493.6,206.4 493.9,206.9 494.2,208.1 494.5,208.1 494.8,209.3 495.1,210.0 495.4,209.7 495.7,209.2 496.0,208.8 496.3,209.8 496.6,208.8 496.9,208.1 497.2,211.0 497.5,207.9 497.8,207.4 498.1,209.4 498.4,207.2 498.7,207.9 499.0,206.4 499.3,206.7 499.6,206.2 499.9,205.4 500.2,207.5 500.5,207.4 500.8,209.7 501.1,213.9 501.4,215.6 501.7,216.4 502.0,215.1 502.3,214.8 502.6,214.3 502.9,215.2 503.2,213.6 503.5,212.8 503.8,207.7 504.1,208.1 504.4,208.6 504.7,209.7 505.0,209.4 505.3,208.5 505.6,205.9 505.9,205.3 506.2,203.6 506.5,203.7 506.8,200.3 507.1,198.8 507.4,197.5 507.7,200.1 508.0,198.0 508.3,198.6 508.6,198.6 508.9,199.6 509.2,197.6 509.5,198.6 509.8,195.1 510.1,186.4 510.4,190.8 510.7,190.0 511.0,192.0 511.3,190.5 511.6,190.9 511.9,192.3 512.2,190.5 512.5,189.5 512.8,198.5 513.1,195.7 513.4,190.9 513.7,187.6 514.0,189.0 514.3,183.1 514.6,177.4 514.9,177.4 515.2,179.2 515.5,181.6 515.8,179.2 516.1,180.7 516.4,183.6 516.7,181.9 517.0,180.9 517.3,178.4 517.6,180.6 517.9,181.2 518.2,180.8 518.5,195.6 518.8,204.4 519.1,201.9 519.4,205.0 519.7,204.7 520.0,205.7 520.3,201.5 520.6,197.5 520.9,195.3 521.2,196.4 521.5,196.6 521.8,196.2 522.1,190.7 522.4,197.5 522.7,198.0 523.0,198.6 523.3,201.9 523.6,198.0 523.9,198.5 524.2,197.9 524.5,197.0 524.8,196.9 525.1,196.3 525.4,198.2 525.7,197.7 526.0,195.8 526.3,195.8 526.6,197.4 526.9,201.1 527.2,200.0 527.5,198.1 527.8,190.1 528.1,193.4 528.4,195.3 528.7,195.1 529.0,198.8 529.3,201.1 529.6,208.0 529.9,204.4 530.2,204.7 530.5,205.0 530.8,206.7 531.1,207.4 531.4,205.5 531.7,205.6 532.0,207.1 532.3,207.6 532.6,206.9 532.9,201.7 533.2,199.8 533.5,198.6 533.8,197.7 534.1,197.2 534.4,197.1 534.7,195.0 535.0,192.8 535.3,191.5 535.6,196.2 535.9,194.7 536.1,197.6 536.4,195.2 536.7,194.1 537.0,190.5 537.3,189.8 537.6,185.0 537.9,185.4 538.2,188.5 538.5,187.7 538.8,187.7 539.1,186.6 539.4,190.6 539.7,194.3 540.0,195.4 540.3,199.5 540.6,197.5 540.9,197.5 541.2,197.7 541.5,197.1 541.8,194.9 542.1,191.9 542.4,184.0 542.7,189.2 543.0,188.1 543.3,186.4 543.6,183.7 543.9,186.9 544.2,187.2 544.5,189.4 544.8,190.4 545.1,186.3 545.4,197.4 545.7,187.1 546.0,182.2 546.3,181.3 546.6,179.7 546.9,176.8 547.2,172.5 547.5,168.4 547.8,167.2 548.1,161.7 548.4,165.8 548.7,166.0 549.0,165.3 549.3,164.5 549.6,167.4 549.9,168.0 550.2,167.0 550.5,166.4 550.8,158.7 551.1,162.5 551.4,162.3 551.7,163.7 552.0,163.1 552.3,165.4 552.6,163.9 552.9,170.3 553.2,169.5 553.5,169.4 553.8,168.4 554.1,169.2 554.4,172.5 554.7,176.5 555.0,174.3 555.3,177.2 555.6,171.8 555.9,170.3 556.2,169.8 556.5,160.7 556.8,159.1 557.1,156.3 557.4,157.8 557.7,153.5 558.0,159.6 558.3,158.2 558.6,151.2 558.9,155.0 559.2,155.8 559.5,154.2 559.8,159.9 560.1,161.8 560.4,153.9 560.7,152.6 561.0,153.5 561.3,152.7 561.6,153.3 561.9,159.0 562.2,159.0 562.5,153.3 562.8,146.3 563.1,144.4 563.4,146.2 563.7,146.4 564.0,144.2 564.3,143.4 564.6,141.2 564.9,142.4 565.2,137.5 565.5,136.6 565.8,139.0 566.1,134.9 566.4,132.7 566.7,131.0 567.0,130.2 567.3,124.8 567.6,127.1 567.9,121.9 568.2,114.9 568.5,139.2 568.8,147.2 569.1,141.8 569.4,143.9 569.7,145.6 570.0,142.1 570.3,141.5 570.6,142.4 570.9,150.3 571.2,145.3 571.5,146.3 571.8,147.3 572.1,145.3 572.4,152.7 572.7,156.7 573.0,154.1 573.3,157.1 573.6,157.3 573.9,160.7 574.2,167.6 574.5,164.4 574.8,163.0 575.1,166.2 575.4,164.8 575.7,167.0 576.0,170.1 576.3,168.9 576.6,167.5 576.9,173.0 577.2,172.9 577.5,169.2 577.8,172.1 578.1,174.7 578.4,176.2 578.7,179.0 579.0,182.0 579.3,183.1 579.6,183.3 579.9,182.2 580.2,183.2 580.5,181.7 580.8,178.8 581.1,179.0 581.4,174.2 581.7,171.4 582.0,170.2 582.3,168.5 582.6,168.6 582.9,168.5 583.2,168.5 583.5,162.5 583.8,163.3 584.1,161.5 584.4,157.9 584.7,159.3 585.0,158.6 585.3,158.4 585.6,161.8 585.9,164.1 586.2,162.6 586.5,169.1 586.8,169.4 587.1,169.4 587.4,166.7 587.7,166.3 588.0,167.9 588.3,165.3 588.6,166.7 588.9,165.8 589.2,169.5 589.5,172.5 589.8,172.4 590.1,172.3 590.4,173.0 590.7,177.2 591.0,183.6 591.3,178.4 591.6,177.6 591.9,174.8 592.2,173.3 592.5,173.0 592.8,175.5 593.1,177.2 593.4,177.9 593.7,176.2 594.0,181.4 594.3,178.1 594.6,167.7 594.9,171.0 595.2,171.6 595.5,177.1 595.8,175.9 596.1,172.6 596.4,167.2 596.7,164.4 597.0,164.9 597.3,169.7 597.6,174.4 597.9,174.1 598.2,176.0 598.5,181.0 598.8,178.1 599.1,180.4 599.4,176.1 599.7,175.9 600.0,176.6 600.3,180.7 600.6,178.9 600.9,187.1 601.2,188.0 601.5,189.1 601.8,190.7 602.1,185.9 602.4,181.5 602.7,181.0 603.0,185.2 603.3,186.2 603.6,187.5 603.9,190.1 604.2,182.1 604.5,182.1 604.8,177.4 605.1,177.8 605.4,173.3 605.7,168.6 606.0,170.4 606.3,169.4 606.6,168.3 606.9,170.6 607.2,169.8 607.5,168.7 607.8,165.1 608.1,168.2 608.4,172.3 608.7,169.6 609.0,169.2 609.3,167.7 609.6,163.4 609.9,161.1 610.2,160.2 610.5,158.2 610.8,158.4 611.1,157.0 611.4,157.4 611.7,157.7 612.0,153.6 612.3,155.7 612.6,157.8 612.9,157.7 613.2,153.6 613.5,157.3 613.8,152.5 614.1,158.2 614.4,158.7 614.7,153.8 615.0,153.9 615.3,151.8 615.6,151.6 615.9,149.5 616.2,151.4 616.5,151.6 616.8,150.1 617.1,153.9 617.4,153.7 617.7,154.2 618.0,149.9 618.3,151.3 618.6,149.5 618.9,148.9 619.2,148.8 619.5,148.3 619.8,147.6 620.1,150.0 620.4,147.5 620.7,141.2 621.0,140.6 621.3,154.9 621.6,157.9 621.9,160.6 622.2,158.0 622.5,161.0 622.8,164.0 623.1,167.9 623.4,164.7 623.7,164.6 624.0,160.1 624.3,159.0 624.6,158.0 624.9,158.8 625.2,155.4 625.5,155.4 625.8,153.5 626.1,151.3 626.4,151.4 626.7,150.0 627.0,148.5 627.3,142.4 627.6,143.8 627.9,143.7 628.2,143.1 628.5,141.5 628.8,142.1 629.1,144.3 629.4,146.6 629.7,152.9 630.0,155.9 630.3,160.0 630.6,208.7 630.9,197.5 631.2,202.7 631.5,206.6 631.8,205.4 632.1,206.0 632.4,208.9 632.7,207.2 633.0,207.6 633.3,208.8 633.6,207.7 633.9,203.6 634.2,203.8 634.5,203.6 634.8,200.9 635.1,201.7 635.4,201.0 635.7,200.5 636.0,199.2 636.3,197.9 636.6,198.5 636.9,198.5 637.2,200.8 637.5,202.1 637.8,202.1 638.1,200.0 638.4,200.9 638.7,200.1 639.0,199.6 639.3,200.2 639.6,199.9 639.9,199.4 640.2,197.8 640.5,198.9 640.8,197.7 641.1,195.6 641.4,195.5 641.7,194.5 642.0,194.4 642.3,194.0 642.6,196.6 642.9,198.5 643.2,201.6 643.5,202.1 643.8,203.9 644.1,202.2 644.4,202.6 644.7,200.9 645.0,198.8 645.3,199.7 645.6,200.5 645.9,202.6 646.2,201.6 646.5,202.0 646.8,204.5 647.1,205.4 647.4,206.0 647.7,206.5 648.0,207.0 648.3,203.4 648.6,202.7 648.9,198.0 649.2,195.8 649.5,195.7 649.8,195.3 650.1,194.3 650.4,198.8 650.7,202.8 651.0,201.9 651.3,204.0 651.6,203.6 651.9,202.8 652.2,202.3 652.5,202.5 652.8,202.4 653.1,203.3 653.4,204.1 653.7,204.1 654.0,204.9 654.3,204.5 654.6,199.2 654.9,200.9 655.2,201.7 655.5,201.7 655.8,200.4 656.1,201.1 656.4,202.6 656.7,196.1 657.0,194.4 657.3,194.1 657.6,195.0 657.9,197.3 658.2,200.3 658.5,200.9 658.8,202.4 659.1,199.8 659.4,199.1 659.7,199.9 660.0,201.6 660.3,201.7 660.6,202.1 660.9,200.7 661.2,201.1 661.5,200.1 661.8,202.7 662.1,206.0 662.4,207.4 662.7,208.9 663.0,207.0 663.3,207.7 663.6,206.9 663.9,206.9 664.2,194.3 664.5,189.0 664.8,193.1 665.1,203.4 665.4,200.2 665.7,200.8 666.0,202.5 666.3,202.5 666.6,202.6 666.9,204.6 667.2,210.4 667.5,212.1 667.8,209.8 668.1,212.9 668.4,212.8 668.7,211.8 669.0,212.8 669.3,213.5 669.6,217.2 669.9,214.0 670.2,212.7 670.5,215.2 670.8,218.6 671.1,214.8 671.4,214.1 671.7,213.2 672.0,214.3 672.3,216.0 672.6,215.1 672.9,214.0 673.2,214.1 673.5,216.1 673.8,214.7 674.1,214.4 674.4,214.5 674.7,212.7 675.0,212.9 675.3,214.5 675.6,218.1 675.9,220.7 676.2,218.0 676.5,217.9 676.8,219.2 677.1,218.5 677.4,217.0 677.7,217.0 678.0,219.2 678.3,220.5 678.6,219.6 678.9,216.8 679.2,221.0 679.5,219.0 679.8,223.5 680.1,219.8 680.4,218.0 680.7,220.5 681.0,224.0 681.3,219.5 681.6,220.0 681.9,214.1 682.2,213.3 682.5,211.2 682.8,211.0 683.1,210.7 683.4,211.4 683.7,208.2 684.0,206.8 684.3,205.6 684.6,215.1 684.9,214.1 685.2,214.4 685.5,213.4 685.8,216.6 686.1,213.8 686.4,214.2 686.7,214.1 687.0,214.9 687.3,214.9 687.6,213.3 687.9,212.8 688.2,210.9 688.5,207.4 688.8,207.1 689.1,210.1 689.4,213.1 689.7,212.9 690.0,212.1 690.3,214.8 690.6,216.4 690.9,214.6 691.2,214.5 691.5,213.3 691.8,213.3 692.1,212.8 692.4,212.9 692.7,213.7 693.0,213.7 693.3,212.2 693.6,214.7 693.9,214.9 694.2,216.6 694.5,215.9 694.8,217.4 695.1,220.4 695.4,219.4 695.7,220.5 696.0,222.0"/>
  <text x="60" y="62" font-size="11" fill="#2563eb">Price index</text>
  <text x="146" y="62" font-size="11" fill="#16a34a">Total return (price + distributions)</text>
  <text x="56" y="348" font-size="11" text-anchor="middle" fill="#444">2017-10</text><text x="216" y="348" font-size="11" text-anchor="middle" fill="#444">2019-12</text><text x="376" y="348" font-size="11" text-anchor="middle" fill="#444">2022-02</text><text x="536" y="348" font-size="11" text-anchor="middle" fill="#444">2024-04</text><text x="696" y="348" font-size="11" text-anchor="middle" fill="#444">2026-06</text>
</svg>
