<svg xmlns="http://www.w3.org/2000/svg" width="720" height="360" viewBox="0 0 720 360">
  <rect width="720" height="360" fill="#fafafa"/>
  <text x="56" y="22" font-size="13" font-family="sans-serif" fill="#222">BVERS total return (rebased 100) · cumulative distributions $1,516.17/sh · market cap $59.7M</text>
  <line x1="56" y1="308" x2="696" y2="308" stroke="#ccc"/>
  <line x1="56" y1="48" x2="56" y2="308" stroke="#ccc"/>
  <polyline fill="none" stroke="#2563eb" stroke-width="2" points="56.0,260.0 59.2,260.0 62.4,260.0 65.6,262.0 68.8,260.0 72.0,262.2 75.2,261.5 78.4,262.0 81.6,262.6 84.8,260.0 88.0,260.0 91.2,260.0 94.4,260.9 97.6,257.8 100.8,262.5 104.0,262.7 107.2,261.1 110.4,263.3 113.6,265.8 116.8,265.7 120.0,265.5 123.2,264.8 126.4,265.9 129.6,266.4 132.8,266.4 136.0,268.1 139.2,269.9 142.4,270.0 145.6,269.9 148.8,267.9 152.0,268.8 155.2,262.2 158.4,267.3 161.6,268.7 164.8,272.5 168.0,271.0 171.2,271.0 174.4,271.0 177.6,273.1 180.8,271.0 184.0,271.0 187.2,271.0 190.4,271.0 193.6,271.0 196.8,271.0 200.0,265.5 203.2,264.4 206.4,264.4 209.6,264.4 212.8,247.2 216.0,247.2 219.2,262.1 222.4,258.9 225.6,257.8 228.8,257.8 232.0,258.4 235.2,260.1 238.4,261.5 241.6,261.7 244.8,261.7 248.0,272.1 251.2,266.6 254.4,266.6 257.6,261.1 260.8,257.8 264.0,261.1 267.2,261.1 270.4,263.3 273.6,263.3 276.8,268.8 280.0,274.3 283.2,274.3 286.4,276.5 289.6,276.7 292.8,279.3 296.0,284.0 299.2,284.9 302.4,289.4 305.6,289.4 308.8,289.2 312.0,290.1 315.2,290.0 318.4,287.5 321.6,286.4 324.8,286.4 328.0,239.8 331.2,282.4 334.4,275.4 337.6,275.4 340.8,285.3 344.0,289.5 347.2,283.3 350.4,279.8 353.6,288.1 356.8,284.3 360.0,284.1 363.2,275.4 366.4,281.7 369.6,273.2 372.8,271.0 376.0,269.9 379.2,269.5 382.4,269.9 385.6,270.3 388.8,268.8 392.0,268.8 395.2,268.4 398.4,268.2 401.6,268.8 404.8,268.1 408.0,271.0 411.2,266.8 414.4,264.6 417.6,259.5 420.8,260.0 424.0,260.0 427.2,267.7 430.4,265.5 433.6,265.3 436.8,261.3 440.0,256.1 443.2,258.4 446.4,254.2 449.6,261.1 452.8,261.1 456.0,269.3 459.2,269.3 462.4,266.6 465.6,260.0 468.8,257.8 472.0,257.8 475.2,260.6 478.4,262.6 481.6,262.4 484.8,258.9 488.0,258.3 491.2,256.0 494.4,251.4 497.6,253.4 500.8,251.2 504.0,247.4 507.2,251.2 510.4,247.2 513.6,253.4 516.8,242.4 520.0,231.4 523.2,236.9 526.4,222.5 529.6,213.7 532.8,209.3 536.0,196.1 539.2,196.1 542.4,187.8 545.6,196.1 548.8,191.7 552.0,188.4 555.2,200.5 558.4,202.7 561.6,191.7 564.8,169.3 568.0,176.3 571.2,195.4 574.4,198.3 577.6,195.1 580.8,195.0 584.0,196.1 587.2,197.2 590.4,195.7 593.6,188.4 596.8,182.9 600.0,182.9 603.2,185.6 606.4,169.7 609.6,176.3 612.8,197.8 616.0,180.7 619.2,165.3 622.4,185.1 625.6,185.1 628.8,185.1 632.0,185.1 635.2,174.1 638.4,169.7 641.6,176.3 644.8,170.4 648.0,157.1 651.2,160.9 654.4,168.2 657.6,167.5 660.8,184.1 664.0,176.5 667.2,191.5 670.4,189.5 673.6,193.9 676.8,204.3 680.0,197.4 683.2,193.9 686.4,218.1 689.6,215.9 692.8,202.7 696.0,202.7"/>
  <polyline fill="none" stroke="#16a34a" stroke-width="2" points="56.0,260.0 59.2,260.0 62.4,260.0 65.6,262.0 68.8,260.0 72.0,262.2 75.2,261.5 78.4,262.0 81.6,262.6 84.8,260.0 88.0,260.0 91.2,260.0 94.4,260.9 97.6,257.8 100.8,262.5 104.0,262.7 107.2,261.1 110.4,263.3 113.6,265.8 116.8,265.7 120.0,265.5 123.2,264.8 126.4,265.9 129.6,266.4 132.8,266.4 136.0,268.1 139.2,269.9 142.4,270.0 145.6,269.9 148.8,267.9 152.0,268.8 155.2,262.2 158.4,267.3 161.6,268.7 164.8,272.5 168.0,271.0 171.2,271.0 174.4,271.0 177.6,273.1 180.8,271.0 184.0,271.0 187.2,271.0 190.4,271.0 193.6,271.0 196.8,271.0 200.0,265.5 203.2,264.4 206.4,264.4 209.6,264.4 212.8,247.2 216.0,247.2 219.2,262.1 222.4,258.9 225.6,257.8 228.8,257.8 232.0,258.4 235.2,260.1 238.4,261.5 241.6,261.7 244.8,261.7 248.0,272.1 251.2,266.6 254.4,266.6 257.6,261.1 260.8,257.8 264.0,261.1 267.2,261.1 270.4,263.3 273.6,263.3 276.8,268.8 280.0,274.3 283.2,274.3 286.4,276.5 289.6,276.7 292.8,279.3 296.0,284.0 299.2,284.9 302.4,289.4 305.6,289.4 308.8,289.2 312.0,290.1 315.2,290.0 318.4,287.5 321.6,286.4 324.8,286.4 328.0,239.8 331.2,282.4 334.4,275.4 337.6,275.4 340.8,285.3 344.0,289.5 347.2,283.3 350.4,279.8 353.6,288.1 356.8,284.3 360.0,284.1 363.2,275.4 366.4,281.7 369.6,273.2 372.8,271.0 376.0,269.9 379.2,269.5 382.4,269.9 385.6,270.3 388.8,268.8 392.0,268.8 395.2,268.4 398.4,268.2 401.6,268.8 404.8,268.1 408.0,271.0 411.2,266.8 414.4,264.6 417.6,259.5 420.8,260.0 424.0,260.0 427.2,267.7 430.4,265.5 433.6,265.3 436.8,261.3 440.0,256.1 443.2,258.4 446.4,254.2 449.6,261.1 452.8,261.1 456.0,269.3 459.2,269.3 462.4,266.6 465.6,260.0 468.8,257.8 472.0,257.8 475.2,260.6 478.4,262.6 481.6,262.4 484.8,258.9 488.0,258.3 491.2,256.0 494.4,251.4 497.6,253.4 500.8,251.2 504.0,247.4 507.2,251.2 510.4,247.2 513.6,253.4 516.8,242.4 520.0,231.4 523.2,226.5 526.4,210.4 529.6,200.5 532.8,195.5 536.0,180.7 539.2,180.7 542.4,171.2 545.6,180.7 548.8,175.7 552.0,172.0 555.2,185.6 558.4,188.1 561.6,155.9 564.8,127.1 568.0,136.1 571.2,160.6 574.4,164.3 577.6,160.2 580.8,160.1 584.0,161.5 587.2,162.9 590.4,160.9 593.6,151.7 596.8,144.6 600.0,123.7 603.2,127.5 606.4,104.9 609.6,114.3 612.8,145.1 616.0,120.6 619.2,98.5 622.4,126.9 625.6,126.9 628.8,126.9 632.0,126.9 635.2,111.1 638.4,85.5 641.6,95.9 644.8,86.6 648.0,65.9 651.2,71.8 654.4,83.2 657.6,82.1 660.8,108.0 664.0,96.2 667.2,119.6 670.4,116.5 673.6,123.4 676.8,125.4 680.0,113.9 683.2,107.9 686.4,148.7 689.6,145.0 692.8,122.8 696.0,122.7"/>
  <text x="60" y="62" font-size="11" fill="#2563eb">Price index</text>
  <text x="146" y="62" font-size="11" fill="#16a34a">Total return (price + distributions)</text>
  <text x="56" y="348" font-size="11" text-anchor="middle" fill="#444">2009-10</text><text x="216" y="348" font-size="11" text-anchor="middle" fill="#444">2013-12</text><text x="376" y="348" font-size="11" text-anchor="middle" fill="#444">2018-02</text><text x="536" y="348" font-size="11" text-anchor="middle" fill="#444">2022-04</text><text x="696" y="348" font-size="11" text-anchor="middle" fill="#444">2026-06</text>
</svg>
