<svg xmlns="http://www.w3.org/2000/svg" width="720" height="360" viewBox="0 0 720 360">
  <rect width="720" height="360" fill="#fafafa"/>
  <text x="56" y="22" font-size="13" font-family="sans-serif" fill="#222">PBT total return (rebased 100) · cumulative distributions $0.00/sh · market cap n/a</text>
  <line x1="56" y1="308" x2="696" y2="308" stroke="#ccc"/>
  <line x1="56" y1="48" x2="56" y2="308" stroke="#ccc"/>
  <polyline fill="none" stroke="#2563eb" stroke-width="2" points="56.0,168.1 58.7,171.3 61.4,174.6 64.0,172.4 66.7,170.6 69.4,174.4 72.1,175.8 74.7,185.3 77.4,185.4 80.1,190.1 82.8,193.9 85.5,197.5 88.1,188.5 90.8,193.6 93.5,181.7 96.2,177.0 98.8,182.0 101.5,175.1 104.2,166.6 106.9,149.5 109.6,123.4 112.2,118.5 114.9,117.1 117.6,87.7 120.3,121.9 122.9,104.1 125.6,114.2 128.3,133.1 131.0,162.4 133.7,194.3 136.3,198.2 139.0,228.2 141.7,225.3 144.4,235.2 147.0,213.4 149.7,218.0 152.4,222.8 155.1,207.7 157.8,202.1 160.4,201.2 163.1,194.7 165.8,188.1 168.5,191.1 171.1,165.8 173.8,161.7 176.5,144.9 179.2,159.5 181.9,155.8 184.5,148.7 187.2,156.4 189.9,143.8 192.6,133.1 195.2,124.1 197.9,119.1 200.6,127.0 203.3,126.2 206.0,126.2 208.6,124.6 211.3,132.5 214.0,127.7 216.7,124.8 219.3,122.1 222.0,137.6 224.7,143.5 227.4,139.5 230.1,138.3 232.7,140.2 235.4,123.6 238.1,117.4 240.8,133.8 243.4,161.2 246.1,160.4 248.8,156.2 251.5,178.6 254.2,180.5 256.8,191.2 259.5,195.1 262.2,206.4 264.9,194.3 267.5,197.7 270.2,204.8 272.9,202.7 275.6,200.1 278.3,197.7 280.9,197.1 283.6,195.5 286.3,189.7 289.0,186.0 291.6,192.7 294.3,201.3 297.0,202.8 299.7,198.1 302.4,198.5 305.0,196.7 307.7,192.3 310.4,189.7 313.1,195.0 315.7,188.7 318.4,195.3 321.1,208.9 323.8,217.3 326.5,229.1 329.1,229.4 331.8,226.8 334.5,241.3 337.2,227.7 339.8,239.7 342.5,241.6 345.2,253.2 347.9,245.8 350.6,257.9 353.2,253.7 355.9,255.1 358.6,266.7 361.3,263.0 363.9,262.7 366.6,257.5 369.3,252.1 372.0,249.9 374.7,247.7 377.3,253.6 380.0,251.3 382.7,250.7 385.4,251.3 388.1,249.1 390.7,244.5 393.4,234.5 396.1,231.7 398.8,230.8 401.4,229.4 404.1,228.5 406.8,236.2 409.5,233.3 412.2,241.1 414.8,236.1 417.5,231.9 420.2,230.3 422.9,234.8 425.5,232.0 428.2,232.4 430.9,228.2 433.6,225.5 436.3,226.6 438.9,230.9 441.6,231.8 444.3,235.0 447.0,242.4 449.6,247.0 452.3,252.3 455.0,259.7 457.7,251.9 460.4,241.3 463.0,246.0 465.7,254.4 468.4,260.9 471.1,258.1 473.7,264.9 476.4,267.5 479.1,265.7 481.8,275.2 484.5,278.5 487.1,276.8 489.8,277.2 492.5,277.8 495.2,285.5 497.8,282.8 500.5,278.4 503.2,281.5 505.9,280.5 508.6,284.0 511.2,288.4 513.9,290.1 516.6,285.4 519.3,281.4 521.9,280.5 524.6,275.2 527.3,275.8 530.0,277.7 532.7,273.2 535.3,262.1 538.0,263.9 540.7,265.3 543.4,261.1 546.0,241.6 548.7,233.0 551.4,224.5 554.1,203.2 556.8,196.9 559.4,204.3 562.1,199.1 564.8,161.6 567.5,170.4 570.1,141.4 572.8,162.5 575.5,172.2 578.2,135.7 580.9,138.4 583.5,97.8 586.2,111.7 588.9,99.7 591.6,104.5 594.2,108.4 596.9,102.5 599.6,100.1 602.3,106.6 605.0,137.3 607.6,130.9 610.3,142.7 613.0,167.9 615.7,192.1 618.3,189.3 621.0,195.4 623.7,207.7 626.4,212.7 629.1,206.9 631.7,214.7 634.4,214.1 637.1,215.7 639.8,209.5 642.4,218.9 645.1,195.8 647.8,216.3 650.5,217.8 653.2,220.0 655.8,226.1 658.5,226.9 661.2,216.1 663.9,204.7 666.5,196.9 669.2,168.6 671.9,156.1 674.6,154.3 677.3,159.5 679.9,166.8 682.6,156.1 685.3,143.2 688.0,128.7 690.6,120.9 693.3,74.4 696.0,65.9"/>
  <polyline fill="none" stroke="#16a34a" stroke-width="2" points="56.0,168.1 58.7,171.3 61.4,174.6 64.0,172.4 66.7,170.6 69.4,174.4 72.1,175.8 74.7,185.3 77.4,185.4 80.1,190.1 82.8,193.9 85.5,197.5 88.1,188.5 90.8,193.6 93.5,181.7 96.2,177.0 98.8,182.0 101.5,175.1 104.2,166.6 106.9,149.5 109.6,123.4 112.2,118.5 114.9,117.1 117.6,87.7 120.3,121.9 122.9,104.1 125.6,114.2 128.3,133.1 131.0,162.4 133.7,194.3 136.3,198.2 139.0,228.2 141.7,225.3 144.4,235.2 147.0,213.4 149.7,218.0 152.4,222.8 155.1,207.7 157.8,202.1 160.4,201.2 163.1,194.7 165.8,188.1 168.5,191.1 171.1,165.8 173.8,161.7 176.5,144.9 179.2,159.5 181.9,155.8 184.5,148.7 187.2,156.4 189.9,143.8 192.6,133.1 195.2,124.1 197.9,119.1 200.6,127.0 203.3,126.2 206.0,126.2 208.6,124.6 211.3,132.5 214.0,127.7 216.7,124.8 219.3,122.1 222.0,137.6 224.7,143.5 227.4,139.5 230.1,138.3 232.7,140.2 235.4,123.6 238.1,117.4 240.8,133.8 243.4,161.2 246.1,160.4 248.8,156.2 251.5,178.6 254.2,180.5 256.8,191.2 259.5,195.1 262.2,206.4 264.9,194.3 267.5,197.7 270.2,204.8 272.9,202.7 275.6,200.1 278.3,197.7 280.9,197.1 283.6,195.5 286.3,189.7 289.0,186.0 291.6,192.7 294.3,201.3 297.0,202.8 299.7,198.1 302.4,198.5 305.0,196.7 307.7,192.3 310.4,189.7 313.1,195.0 315.7,188.7 318.4,195.3 321.1,208.9 323.8,217.3 326.5,229.1 329.1,229.4 331.8,226.8 334.5,241.3 337.2,227.7 339.8,239.7 342.5,241.6 345.2,253.2 347.9,245.8 350.6,257.9 353.2,253.7 355.9,255.1 358.6,266.7 361.3,263.0 363.9,262.7 366.6,257.5 369.3,252.1 372.0,249.9 374.7,247.7 377.3,253.6 380.0,251.3 382.7,250.7 385.4,251.3 388.1,249.1 390.7,244.5 393.4,234.5 396.1,231.7 398.8,230.8 401.4,229.4 404.1,228.5 406.8,236.2 409.5,233.3 412.2,241.1 414.8,236.1 417.5,231.9 420.2,230.3 422.9,234.8 425.5,232.0 428.2,232.4 430.9,228.2 433.6,225.5 436.3,226.6 438.9,230.9 441.6,231.8 444.3,235.0 447.0,242.4 449.6,247.0 452.3,252.3 455.0,259.7 457.7,251.9 460.4,241.3 463.0,246.0 465.7,254.4 468.4,260.9 471.1,258.1 473.7,264.9 476.4,267.5 479.1,265.7 481.8,275.2 484.5,278.5 487.1,276.8 489.8,277.2 492.5,277.8 495.2,285.5 497.8,282.8 500.5,278.4 503.2,281.5 505.9,280.5 508.6,284.0 511.2,288.4 513.9,290.1 516.6,285.4 519.3,281.4 521.9,280.5 524.6,275.2 527.3,275.8 530.0,277.7 532.7,273.2 535.3,262.1 538.0,263.9 540.7,265.3 543.4,261.1 546.0,241.6 548.7,233.0 551.4,224.5 554.1,203.2 556.8,196.9 559.4,204.3 562.1,199.1 564.8,161.6 567.5,170.4 570.1,141.4 572.8,162.5 575.5,172.2 578.2,135.7 580.9,138.4 583.5,97.8 586.2,111.7 588.9,99.7 591.6,104.5 594.2,108.4 596.9,102.5 599.6,100.1 602.3,106.6 605.0,137.3 607.6,130.9 610.3,142.7 613.0,167.9 615.7,192.1 618.3,189.3 621.0,195.4 623.7,207.7 626.4,212.7 629.1,206.9 631.7,214.7 634.4,214.1 637.1,215.7 639.8,209.5 642.4,218.9 645.1,195.8 647.8,216.3 650.5,217.8 653.2,220.0 655.8,226.1 658.5,226.9 661.2,216.1 663.9,204.7 666.5,196.9 669.2,168.6 671.9,156.1 674.6,154.3 677.3,159.5 679.9,166.8 682.6,156.1 685.3,143.2 688.0,128.7 690.6,120.9 693.3,74.4 696.0,65.9"/>
  <text x="60" y="62" font-size="11" fill="#2563eb">Price index</text>
  <text x="146" y="62" font-size="11" fill="#16a34a">Total return (price + distributions)</text>
  <text x="56" y="348" font-size="11" text-anchor="middle" fill="#444">2006-07</text><text x="217" y="348" font-size="11" text-anchor="middle" fill="#444">2011-07</text><text x="377" y="348" font-size="11" text-anchor="middle" fill="#444">2016-07</text><text x="538" y="348" font-size="11" text-anchor="middle" fill="#444">2021-07</text><text x="696" y="348" font-size="11" text-anchor="middle" fill="#444">2026-06</text>
</svg>
