<svg xmlns="http://www.w3.org/2000/svg" width="820" height="410" viewBox="0 0 820 410">
<rect width="820" height="410" fill="#fafafa"/><text x="78" y="22" font-size="14" font-family="sans-serif" fill="#0f172a">LB cumulative return since 2024-06-28 | dividends reinvested</text>
<text x="78" y="40" font-size="11" font-family="sans-serif" fill="#334155">Total return +229.8% | Price-only +226.1% | logarithmic scale</text>
<text x="78" y="54" font-size="9" font-family="sans-serif" fill="#64748b">Regular $0.74 | Special $0.00 | Other $0.00 per initial share path</text>
<line x1="78" y1="332.0" x2="796" y2="332.0" stroke="#e2e8f0"/><text x="70" y="336.0" font-size="10" text-anchor="end" fill="#64748b">-8.4%</text><line x1="78" y1="316.0" x2="796" y2="316.0" stroke="#e2e8f0"/><text x="70" y="320.0" font-size="10" text-anchor="end" fill="#64748b">0%</text><line x1="78" y1="287.0" x2="796" y2="287.0" stroke="#e2e8f0"/><text x="70" y="291.0" font-size="10" text-anchor="end" fill="#64748b">+17.3%</text><line x1="78" y1="242.0" x2="796" y2="242.0" stroke="#e2e8f0"/><text x="70" y="246.0" font-size="10" text-anchor="end" fill="#64748b">+50.1%</text><line x1="78" y1="197.0" x2="796" y2="197.0" stroke="#e2e8f0"/><text x="70" y="201.0" font-size="10" text-anchor="end" fill="#64748b">+92.1%</text><line x1="78" y1="152.0" x2="796" y2="152.0" stroke="#e2e8f0"/><text x="70" y="156.0" font-size="10" text-anchor="end" fill="#64748b">+145.8%</text><line x1="78" y1="107.0" x2="796" y2="107.0" stroke="#e2e8f0"/><text x="70" y="111.0" font-size="10" text-anchor="end" fill="#64748b">+214.6%</text><line x1="78" y1="62.0" x2="796" y2="62.0" stroke="#e2e8f0"/><text x="70" y="66.0" font-size="10" text-anchor="end" fill="#64748b">+302.6%</text>
<line x1="78" y1="332" x2="796" y2="332" stroke="#cbd5e1"/>
<polyline fill="none" stroke="#2563eb" stroke-width="2" points="78.0,316.0 79.4,317.5 80.8,306.4 82.2,309.5 83.6,278.1 85.0,289.5 86.4,285.8 87.8,281.7 89.2,269.4 90.6,264.1 92.0,261.8 93.4,274.9 94.8,287.0 96.2,278.4 97.6,275.9 99.0,271.5 100.4,279.9 101.7,271.9 103.1,271.5 104.5,268.0 105.9,257.0 107.3,261.7 108.7,251.5 110.1,256.5 111.5,257.8 112.9,268.7 114.3,259.3 115.7,255.4 117.1,256.4 118.5,253.6 119.9,247.0 121.3,249.7 122.7,247.4 124.1,246.7 125.5,236.4 126.9,235.2 128.3,229.8 129.7,227.4 131.1,216.1 132.5,207.2 133.9,223.2 135.3,231.4 136.7,228.5 138.1,231.5 139.5,230.3 140.9,244.4 142.3,242.4 143.7,240.5 145.1,242.0 146.4,239.3 147.8,250.9 149.2,242.9 150.6,232.7 152.0,225.7 153.4,228.1 154.8,224.2 156.2,226.4 157.6,221.3 159.0,222.4 160.4,211.2 161.8,205.1 163.2,210.8 164.6,216.9 166.0,217.2 167.4,220.3 168.8,198.4 170.2,200.6 171.6,200.0 173.0,192.2 174.4,191.5 175.8,191.7 177.2,185.4 178.6,186.9 180.0,179.2 181.4,170.0 182.8,170.6 184.2,171.0 185.6,165.8 187.0,159.3 188.4,161.4 189.8,168.4 191.1,166.0 192.5,161.7 193.9,167.6 195.3,163.3 196.7,162.1 198.1,157.5 199.5,154.6 200.9,154.0 202.3,154.3 203.7,140.6 205.1,137.7 206.5,117.7 207.9,100.4 209.3,121.7 210.7,114.1 212.1,112.6 213.5,126.1 214.9,117.2 216.3,123.0 217.7,131.7 219.1,124.7 220.5,121.0 221.9,95.7 223.3,105.3 224.7,99.5 226.1,91.9 227.5,99.2 228.9,107.0 230.3,102.0 231.7,112.9 233.1,117.8 234.5,130.2 235.8,135.5 237.2,133.3 238.6,134.3 240.0,142.0 241.4,141.6 242.8,144.9 244.2,149.8 245.6,163.3 247.0,159.0 248.4,147.6 249.8,146.9 251.2,139.4 252.6,131.4 254.0,128.3 255.4,127.1 256.8,128.8 258.2,128.3 259.6,114.2 261.0,105.8 262.4,107.9 263.8,109.1 265.2,104.8 266.6,113.5 268.0,107.2 269.4,103.3 270.8,101.0 272.2,102.2 273.6,83.8 275.0,89.7 276.4,88.8 277.8,95.2 279.2,130.0 280.5,130.5 281.9,119.2 283.3,127.1 284.7,128.1 286.1,127.8 287.5,127.4 288.9,114.9 290.3,123.1 291.7,126.5 293.1,105.4 294.5,111.2 295.9,114.5 297.3,115.5 298.7,114.2 300.1,108.1 301.5,105.8 302.9,108.1 304.3,127.1 305.7,126.7 307.1,138.2 308.5,128.5 309.9,128.0 311.3,116.4 312.7,130.6 314.1,127.1 315.5,126.3 316.9,137.8 318.3,120.2 319.7,120.3 321.1,118.9 322.5,116.3 323.9,121.0 325.2,107.6 326.6,104.9 328.0,108.2 329.4,89.4 330.8,90.6 332.2,96.7 333.6,86.3 335.0,91.7 336.4,93.3 337.8,98.6 339.2,115.0 340.6,109.2 342.0,107.5 343.4,102.7 344.8,123.9 346.2,143.4 347.6,136.6 349.0,140.8 350.4,119.5 351.8,133.9 353.2,125.8 354.6,119.7 356.0,122.1 357.4,120.4 358.8,116.7 360.2,126.6 361.6,118.7 363.0,114.3 364.4,109.5 365.8,109.1 367.2,103.7 368.6,103.4 369.9,107.9 371.3,101.7 372.7,93.4 374.1,97.5 375.5,94.3 376.9,94.5 378.3,116.5 379.7,113.8 381.1,107.0 382.5,92.3 383.9,93.4 385.3,89.1 386.7,79.9 388.1,80.1 389.5,81.8 390.9,88.6 392.3,94.3 393.7,93.5 395.1,99.0 396.5,98.9 397.9,103.7 399.3,110.5 400.7,106.8 402.1,107.4 403.5,108.3 404.9,109.3 406.3,105.6 407.7,106.6 409.1,105.9 410.5,112.1 411.9,106.4 413.3,107.8 414.6,112.6 416.0,113.1 417.4,111.6 418.8,117.3 420.2,122.1 421.6,116.5 423.0,124.4 424.4,120.8 425.8,120.6 427.2,120.6 428.6,123.9 430.0,121.7 431.4,122.6 432.8,129.7 434.2,132.3 435.6,137.3 437.0,134.6 438.4,143.3 439.8,144.9 441.2,151.7 442.6,155.2 444.0,155.2 445.4,155.6 446.8,160.1 448.2,167.2 449.6,165.7 451.0,162.4 452.4,153.5 453.8,158.6 455.2,148.9 456.6,149.1 458.0,152.7 459.4,156.9 460.7,148.7 462.1,145.2 463.5,144.3 464.9,172.5 466.3,170.0 467.7,171.3 469.1,167.4 470.5,168.0 471.9,162.8 473.3,170.2 474.7,166.7 476.1,162.4 477.5,162.7 478.9,164.8 480.3,161.2 481.7,168.1 483.1,166.3 484.5,169.0 485.9,166.6 487.3,164.4 488.7,157.9 490.1,164.5 491.5,161.0 492.9,168.2 494.3,171.2 495.7,172.1 497.1,167.0 498.5,169.3 499.9,163.6 501.3,170.0 502.7,168.0 504.1,168.8 505.4,166.5 506.8,170.7 508.2,167.8 509.6,150.9 511.0,160.0 512.4,160.3 513.8,159.7 515.2,165.4 516.6,163.8 518.0,156.3 519.4,152.9 520.8,152.7 522.2,151.4 523.6,160.2 525.0,161.3 526.4,164.6 527.8,179.8 529.2,169.1 530.6,170.1 532.0,164.5 533.4,163.9 534.8,161.4 536.2,155.5 537.6,153.0 539.0,152.4 540.4,143.0 541.8,143.8 543.2,143.5 544.6,142.3 546.0,141.9 547.4,144.6 548.8,144.9 550.1,139.5 551.5,145.4 552.9,138.6 554.3,124.3 555.7,116.4 557.1,101.6 558.5,77.6 559.9,86.4 561.3,106.3 562.7,102.7 564.1,136.7 565.5,136.3 566.9,128.7 568.3,143.1 569.7,150.4 571.1,152.7 572.5,154.6 573.9,152.3 575.3,151.8 576.7,155.7 578.1,157.6 579.5,140.8 580.9,144.3 582.3,143.6 583.7,149.8 585.1,152.5 586.5,152.9 587.9,153.3 589.3,157.5 590.7,167.3 592.1,173.9 593.5,164.6 594.8,166.3 596.2,166.7 597.6,163.2 599.0,165.1 600.4,164.6 601.8,168.6 603.2,170.4 604.6,174.8 606.0,179.3 607.4,181.3 608.8,188.2 610.2,192.6 611.6,198.1 613.0,186.4 614.4,173.8 615.8,168.5 617.2,156.9 618.6,147.6 620.0,143.1 621.4,140.2 622.8,151.0 624.2,146.9 625.6,143.1 627.0,140.8 628.4,151.6 629.8,153.5 631.2,146.8 632.6,143.2 634.0,150.2 635.4,160.5 636.8,161.1 638.2,156.6 639.5,159.6 640.9,152.6 642.3,151.7 643.7,147.8 645.1,136.6 646.5,143.3 647.9,127.0 649.3,130.8 650.7,134.2 652.1,122.5 653.5,118.1 654.9,123.7 656.3,124.9 657.7,126.4 659.1,103.0 660.5,102.8 661.9,104.1 663.3,105.7 664.7,102.8 666.1,102.7 667.5,108.1 668.9,105.9 670.3,112.3 671.7,112.4 673.1,107.3 674.5,102.1 675.9,111.3 677.3,95.9 678.7,95.3 680.1,111.5 681.5,111.7 682.9,108.3 684.2,108.1 685.6,109.0 687.0,107.1 688.4,109.0 689.8,119.4 691.2,116.7 692.6,124.5 694.0,116.2 695.4,118.6 696.8,110.7 698.2,117.7 699.6,130.9 701.0,119.5 702.4,120.9 703.8,124.7 705.2,120.5 706.6,115.7 708.0,121.6 709.4,120.2 710.8,122.9 712.2,119.9 713.6,115.1 715.0,118.7 716.4,116.5 717.8,119.7 719.2,117.6 720.6,117.5 722.0,124.7 723.4,127.5 724.8,124.6 726.2,124.9 727.6,130.6 728.9,127.8 730.3,121.5 731.7,119.5 733.1,121.2 734.5,120.8 735.9,115.0 737.3,108.3 738.7,100.0 740.1,99.7 741.5,99.0 742.9,93.0 744.3,104.3 745.7,108.4 747.1,101.0 748.5,113.7 749.9,113.3 751.3,106.1 752.7,99.4 754.1,103.4 755.5,113.5 756.9,115.1 758.3,119.5 759.7,125.3 761.1,121.0 762.5,116.1 763.9,122.1 765.3,126.6 766.7,132.0 768.1,130.7 769.5,135.4 770.9,130.8 772.3,138.1 773.6,139.6 775.0,127.4 776.4,114.6 777.8,91.6 779.2,108.3 780.6,104.7 782.0,101.9 783.4,95.8 784.8,94.6 786.2,93.6 787.6,97.6 789.0,93.2 790.4,92.7 791.8,94.3 793.2,96.8 794.6,95.2 796.0,100.4"/><polyline fill="none" stroke="#16a34a" stroke-width="3" points="78.0,316.0 79.4,317.5 80.8,306.4 82.2,309.5 83.6,278.1 85.0,289.5 86.4,285.8 87.8,281.7 89.2,269.4 90.6,264.1 92.0,261.8 93.4,274.9 94.8,287.0 96.2,278.4 97.6,275.9 99.0,271.5 100.4,279.9 101.7,271.9 103.1,271.5 104.5,268.0 105.9,257.0 107.3,261.7 108.7,251.5 110.1,256.5 111.5,257.8 112.9,268.7 114.3,259.3 115.7,255.4 117.1,256.4 118.5,253.6 119.9,247.0 121.3,249.7 122.7,247.4 124.1,246.7 125.5,236.4 126.9,235.2 128.3,229.8 129.7,227.4 131.1,216.1 132.5,207.2 133.9,223.2 135.3,231.4 136.7,228.5 138.1,231.5 139.5,230.3 140.9,244.4 142.3,242.4 143.7,240.5 145.1,242.0 146.4,239.3 147.8,250.9 149.2,242.9 150.6,232.7 152.0,225.7 153.4,228.1 154.8,224.2 156.2,226.4 157.6,221.3 159.0,222.4 160.4,211.2 161.8,205.1 163.2,210.8 164.6,216.9 166.0,217.2 167.4,220.3 168.8,198.4 170.2,200.6 171.6,200.0 173.0,192.2 174.4,191.5 175.8,191.7 177.2,185.4 178.6,186.9 180.0,179.2 181.4,170.0 182.8,170.6 184.2,171.0 185.6,165.8 187.0,159.3 188.4,161.4 189.8,168.4 191.1,166.0 192.5,161.7 193.9,167.6 195.3,163.3 196.7,162.1 198.1,157.5 199.5,154.6 200.9,154.0 202.3,154.3 203.7,140.6 205.1,137.7 206.5,117.7 207.9,100.4 209.3,121.7 210.7,114.1 212.1,112.6 213.5,126.1 214.9,117.2 216.3,123.0 217.7,131.7 219.1,124.7 220.5,121.0 221.9,95.7 223.3,105.3 224.7,99.5 226.1,91.9 227.5,99.2 228.9,107.0 230.3,102.0 231.7,112.9 233.1,117.5 234.5,130.0 235.8,135.2 237.2,133.1 238.6,134.0 240.0,141.7 241.4,141.4 242.8,144.6 244.2,149.5 245.6,163.0 247.0,158.7 248.4,147.3 249.8,146.6 251.2,139.2 252.6,131.1 254.0,128.0 255.4,126.9 256.8,128.6 258.2,128.0 259.6,113.9 261.0,105.6 262.4,107.6 263.8,108.9 265.2,104.5 266.6,113.2 268.0,107.0 269.4,103.0 270.8,100.7 272.2,102.0 273.6,83.5 275.0,89.4 276.4,88.5 277.8,94.9 279.2,129.7 280.5,130.2 281.9,119.0 283.3,126.8 284.7,127.8 286.1,127.5 287.5,127.1 288.9,114.6 290.3,122.8 291.7,126.3 293.1,105.2 294.5,110.9 295.9,114.2 297.3,115.3 298.7,113.9 300.1,107.8 301.5,105.6 302.9,107.8 304.3,126.9 305.7,126.4 307.1,137.9 308.5,128.2 309.9,127.8 311.3,116.1 312.7,130.4 314.1,126.8 315.5,126.1 316.9,137.2 318.3,119.7 319.7,119.7 321.1,118.3 322.5,115.7 323.9,120.4 325.2,107.1 326.6,104.3 328.0,107.6 329.4,88.8 330.8,90.0 332.2,96.1 333.6,85.7 335.0,91.2 336.4,92.7 337.8,98.0 339.2,114.5 340.6,108.7 342.0,106.9 343.4,102.2 344.8,123.4 346.2,142.9 347.6,136.0 349.0,140.3 350.4,119.0 351.8,133.3 353.2,125.2 354.6,119.1 356.0,121.5 357.4,119.9 358.8,116.1 360.2,126.0 361.6,118.1 363.0,113.7 364.4,109.0 365.8,108.5 367.2,103.1 368.6,102.8 369.9,107.4 371.3,101.2 372.7,92.9 374.1,96.9 375.5,93.7 376.9,93.9 378.3,116.0 379.7,113.2 381.1,106.4 382.5,91.7 383.9,92.9 385.3,88.6 386.7,79.3 388.1,79.5 389.5,81.3 390.9,88.0 392.3,93.7 393.7,92.9 395.1,98.4 396.5,98.3 397.9,103.1 399.3,109.9 400.7,106.3 402.1,106.8 403.5,107.7 404.9,108.5 406.3,104.8 407.7,105.7 409.1,105.1 410.5,111.3 411.9,105.5 413.3,107.0 414.6,111.8 416.0,112.3 417.4,110.8 418.8,116.5 420.2,121.3 421.6,115.7 423.0,123.6 424.4,119.9 425.8,119.8 427.2,119.8 428.6,123.1 430.0,120.9 431.4,121.7 432.8,128.9 434.2,131.5 435.6,136.5 437.0,133.7 438.4,142.5 439.8,144.1 441.2,150.9 442.6,154.4 444.0,154.4 445.4,154.8 446.8,159.3 448.2,166.4 449.6,164.9 451.0,161.6 452.4,152.7 453.8,157.8 455.2,148.1 456.6,148.3 458.0,151.9 459.4,156.1 460.7,147.9 462.1,144.4 463.5,143.5 464.9,171.7 466.3,169.2 467.7,170.4 469.1,166.6 470.5,167.2 471.9,162.0 473.3,169.3 474.7,165.9 476.1,161.6 477.5,161.8 478.9,164.0 480.3,160.4 481.7,167.3 483.1,165.4 484.5,168.1 485.9,165.8 487.3,163.6 488.7,157.1 490.1,163.7 491.5,159.9 492.9,167.0 494.3,170.0 495.7,170.9 497.1,165.9 498.5,168.1 499.9,162.4 501.3,168.8 502.7,166.8 504.1,167.7 505.4,165.4 506.8,169.6 508.2,166.6 509.6,149.7 511.0,158.8 512.4,159.1 513.8,158.5 515.2,164.3 516.6,162.6 518.0,155.2 519.4,151.8 520.8,151.6 522.2,150.3 523.6,159.0 525.0,160.1 526.4,163.4 527.8,178.6 529.2,168.0 530.6,168.9 532.0,163.4 533.4,162.7 534.8,160.3 536.2,154.4 537.6,151.8 539.0,151.2 540.4,141.8 541.8,142.6 543.2,142.3 544.6,141.2 546.0,140.7 547.4,143.4 548.8,143.7 550.1,138.3 551.5,144.2 552.9,137.4 554.3,123.2 555.7,115.3 557.1,100.5 558.5,76.5 559.9,85.3 561.3,105.1 562.7,101.6 564.1,135.5 565.5,135.2 566.9,127.6 568.3,142.0 569.7,149.2 571.1,151.6 572.5,153.4 573.9,151.1 575.3,150.7 576.7,154.5 578.1,156.4 579.5,139.7 580.9,142.9 582.3,142.1 583.7,148.4 585.1,151.0 586.5,151.4 587.9,151.8 589.3,156.0 590.7,165.8 592.1,172.5 593.5,163.2 594.8,164.9 596.2,165.3 597.6,161.7 599.0,163.6 600.4,163.1 601.8,167.1 603.2,168.9 604.6,173.3 606.0,177.8 607.4,179.8 608.8,186.7 610.2,191.1 611.6,196.6 613.0,184.9 614.4,172.4 615.8,167.0 617.2,155.5 618.6,146.2 620.0,141.6 621.4,138.7 622.8,149.6 624.2,145.5 625.6,141.6 627.0,139.4 628.4,150.1 629.8,152.1 631.2,145.3 632.6,141.7 634.0,148.8 635.4,159.1 636.8,159.7 638.2,155.2 639.5,158.1 640.9,151.1 642.3,150.2 643.7,146.3 645.1,135.1 646.5,141.8 647.9,125.6 649.3,129.3 650.7,132.7 652.1,121.0 653.5,116.6 654.9,122.2 656.3,123.5 657.7,125.0 659.1,101.5 660.5,101.4 661.9,102.6 663.3,104.3 664.7,101.4 666.1,101.0 667.5,106.3 668.9,104.1 670.3,110.6 671.7,110.6 673.1,105.5 674.5,100.4 675.9,109.5 677.3,94.1 678.7,93.5 680.1,109.7 681.5,110.0 682.9,106.5 684.2,106.4 685.6,107.3 687.0,105.4 688.4,107.3 689.8,117.7 691.2,114.9 692.6,122.7 694.0,114.5 695.4,116.8 696.8,108.9 698.2,116.0 699.6,129.1 701.0,117.7 702.4,119.2 703.8,123.0 705.2,118.8 706.6,113.9 708.0,119.8 709.4,118.4 710.8,121.2 712.2,118.2 713.6,113.3 715.0,117.0 716.4,114.8 717.8,117.9 719.2,115.9 720.6,115.8 722.0,123.0 723.4,125.8 724.8,122.8 726.2,123.2 727.6,128.9 728.9,126.0 730.3,119.8 731.7,117.7 733.1,119.5 734.5,119.1 735.9,113.2 737.3,106.6 738.7,98.2 740.1,97.9 741.5,97.3 742.9,91.2 744.3,102.5 745.7,106.7 747.1,99.3 748.5,112.0 749.9,111.5 751.3,104.3 752.7,97.6 754.1,101.4 755.5,111.4 756.9,113.0 758.3,117.5 759.7,123.3 761.1,119.0 762.5,114.0 763.9,120.1 765.3,124.6 766.7,129.9 768.1,128.6 769.5,133.4 770.9,128.7 772.3,136.0 773.6,137.5 775.0,125.3 776.4,112.6 777.8,89.5 779.2,106.3 780.6,102.6 782.0,99.8 783.4,93.7 784.8,92.5 786.2,91.5 787.6,95.5 789.0,91.2 790.4,90.7 791.8,92.3 793.2,94.7 794.6,93.2 796.0,98.4"/>
<text x="78" y="392" font-size="11" fill="#16a34a">Total return +229.8%</text><text x="268" y="392" font-size="11" fill="#2563eb">Price-only +226.1%</text><text x="78" y="362" font-size="11" text-anchor="middle" fill="#64748b">2024-06</text><text x="257" y="362" font-size="11" text-anchor="middle" fill="#64748b">2024-12</text><text x="437" y="362" font-size="11" text-anchor="middle" fill="#64748b">2025-07</text><text x="617" y="362" font-size="11" text-anchor="middle" fill="#64748b">2026-01</text><text x="796" y="362" font-size="11" text-anchor="middle" fill="#64748b">2026-07</text></svg>