<svg xmlns="http://www.w3.org/2000/svg" width="820" height="410" viewBox="0 0 820 410">
<rect width="820" height="410" fill="#fafafa"/><text x="78" y="22" font-size="14" font-family="sans-serif" fill="#0f172a">LB cumulative return since 2024-06-28 | dividends reinvested</text>
<text x="78" y="40" font-size="11" font-family="sans-serif" fill="#334155">Total return +235.1% | Price-only +231.4% | logarithmic scale</text>
<text x="78" y="54" font-size="9" font-family="sans-serif" fill="#64748b">Regular $0.74 | Special $0.00 | Other $0.00 per initial share path</text>
<line x1="78" y1="332.0" x2="796" y2="332.0" stroke="#e2e8f0"/><text x="70" y="336.0" font-size="10" text-anchor="end" fill="#64748b">-8.4%</text><line x1="78" y1="316.0" x2="796" y2="316.0" stroke="#e2e8f0"/><text x="70" y="320.0" font-size="10" text-anchor="end" fill="#64748b">0%</text><line x1="78" y1="287.0" x2="796" y2="287.0" stroke="#e2e8f0"/><text x="70" y="291.0" font-size="10" text-anchor="end" fill="#64748b">+17.3%</text><line x1="78" y1="242.0" x2="796" y2="242.0" stroke="#e2e8f0"/><text x="70" y="246.0" font-size="10" text-anchor="end" fill="#64748b">+50.1%</text><line x1="78" y1="197.0" x2="796" y2="197.0" stroke="#e2e8f0"/><text x="70" y="201.0" font-size="10" text-anchor="end" fill="#64748b">+92.1%</text><line x1="78" y1="152.0" x2="796" y2="152.0" stroke="#e2e8f0"/><text x="70" y="156.0" font-size="10" text-anchor="end" fill="#64748b">+145.8%</text><line x1="78" y1="107.0" x2="796" y2="107.0" stroke="#e2e8f0"/><text x="70" y="111.0" font-size="10" text-anchor="end" fill="#64748b">+214.6%</text><line x1="78" y1="62.0" x2="796" y2="62.0" stroke="#e2e8f0"/><text x="70" y="66.0" font-size="10" text-anchor="end" fill="#64748b">+302.6%</text>
<line x1="78" y1="332" x2="796" y2="332" stroke="#cbd5e1"/>
<polyline fill="none" stroke="#2563eb" stroke-width="2" points="78.0,316.0 79.4,317.5 80.8,306.4 82.2,309.5 83.6,278.1 84.9,289.5 86.3,285.8 87.7,281.7 89.1,269.4 90.5,264.1 91.9,261.8 93.3,274.9 94.7,287.0 96.1,278.4 97.4,275.9 98.8,271.5 100.2,279.9 101.6,271.9 103.0,271.5 104.4,268.0 105.8,257.0 107.2,261.7 108.6,251.5 109.9,256.5 111.3,257.8 112.7,268.7 114.1,259.3 115.5,255.4 116.9,256.4 118.3,253.6 119.7,247.0 121.1,249.7 122.4,247.4 123.8,246.7 125.2,236.4 126.6,235.2 128.0,229.8 129.4,227.4 130.8,216.1 132.2,207.2 133.6,223.2 134.9,231.4 136.3,228.5 137.7,231.5 139.1,230.3 140.5,244.4 141.9,242.4 143.3,240.5 144.7,242.0 146.1,239.3 147.4,250.9 148.8,242.9 150.2,232.7 151.6,225.7 153.0,228.1 154.4,224.2 155.8,226.4 157.2,221.3 158.5,222.4 159.9,211.2 161.3,205.1 162.7,210.8 164.1,216.9 165.5,217.2 166.9,220.3 168.3,198.4 169.7,200.6 171.0,200.0 172.4,192.2 173.8,191.5 175.2,191.7 176.6,185.4 178.0,186.9 179.4,179.2 180.8,170.0 182.2,170.6 183.5,171.0 184.9,165.8 186.3,159.3 187.7,161.4 189.1,168.4 190.5,166.0 191.9,161.7 193.3,167.6 194.7,163.3 196.0,162.1 197.4,157.5 198.8,154.6 200.2,154.0 201.6,154.3 203.0,140.6 204.4,137.7 205.8,117.7 207.2,100.4 208.5,121.7 209.9,114.1 211.3,112.6 212.7,126.1 214.1,117.2 215.5,123.0 216.9,131.7 218.3,124.7 219.7,121.0 221.0,95.7 222.4,105.3 223.8,99.5 225.2,91.9 226.6,99.2 228.0,107.0 229.4,102.0 230.8,112.9 232.2,117.8 233.5,130.2 234.9,135.5 236.3,133.3 237.7,134.3 239.1,142.0 240.5,141.6 241.9,144.9 243.3,149.8 244.7,163.3 246.0,159.0 247.4,147.6 248.8,146.9 250.2,139.4 251.6,131.4 253.0,128.3 254.4,127.1 255.8,128.8 257.2,128.3 258.5,114.2 259.9,105.8 261.3,107.9 262.7,109.1 264.1,104.8 265.5,113.5 266.9,107.2 268.3,103.3 269.7,101.0 271.0,102.2 272.4,83.8 273.8,89.7 275.2,88.8 276.6,95.2 278.0,130.0 279.4,130.5 280.8,119.2 282.2,127.1 283.5,128.1 284.9,127.8 286.3,127.4 287.7,114.9 289.1,123.1 290.5,126.5 291.9,105.4 293.3,111.2 294.6,114.5 296.0,115.5 297.4,114.2 298.8,108.1 300.2,105.8 301.6,108.1 303.0,127.1 304.4,126.7 305.8,138.2 307.1,128.5 308.5,128.0 309.9,116.4 311.3,130.6 312.7,127.1 314.1,126.3 315.5,137.8 316.9,120.2 318.3,120.3 319.6,118.9 321.0,116.3 322.4,121.0 323.8,107.6 325.2,104.9 326.6,108.2 328.0,89.4 329.4,90.6 330.8,96.7 332.1,86.3 333.5,91.7 334.9,93.3 336.3,98.6 337.7,115.0 339.1,109.2 340.5,107.5 341.9,102.7 343.3,123.9 344.6,143.4 346.0,136.6 347.4,140.8 348.8,119.5 350.2,133.9 351.6,125.8 353.0,119.7 354.4,122.1 355.8,120.4 357.1,116.7 358.5,126.6 359.9,118.7 361.3,114.3 362.7,109.5 364.1,109.1 365.5,103.7 366.9,103.4 368.3,107.9 369.6,101.7 371.0,93.4 372.4,97.5 373.8,94.3 375.2,94.5 376.6,116.5 378.0,113.8 379.4,107.0 380.8,92.3 382.1,93.4 383.5,89.1 384.9,79.9 386.3,80.1 387.7,81.8 389.1,88.6 390.5,94.3 391.9,93.5 393.3,99.0 394.6,98.9 396.0,103.7 397.4,110.5 398.8,106.8 400.2,107.4 401.6,108.3 403.0,109.3 404.4,105.6 405.8,106.6 407.1,105.9 408.5,112.1 409.9,106.4 411.3,107.8 412.7,112.6 414.1,113.1 415.5,111.6 416.9,117.3 418.3,122.1 419.6,116.5 421.0,124.4 422.4,120.8 423.8,120.6 425.2,120.6 426.6,123.9 428.0,121.7 429.4,122.6 430.8,129.7 432.1,132.3 433.5,137.3 434.9,134.6 436.3,143.3 437.7,144.9 439.1,151.7 440.5,155.2 441.9,155.2 443.2,155.6 444.6,160.1 446.0,167.2 447.4,165.7 448.8,162.4 450.2,153.5 451.6,158.6 453.0,148.9 454.4,149.1 455.7,152.7 457.1,156.9 458.5,148.7 459.9,145.2 461.3,144.3 462.7,172.5 464.1,170.0 465.5,171.3 466.9,167.4 468.2,168.0 469.6,162.8 471.0,170.2 472.4,166.7 473.8,162.4 475.2,162.7 476.6,164.8 478.0,161.2 479.4,168.1 480.7,166.3 482.1,169.0 483.5,166.6 484.9,164.4 486.3,157.9 487.7,164.5 489.1,161.0 490.5,168.2 491.9,171.2 493.2,172.1 494.6,167.0 496.0,169.3 497.4,163.6 498.8,170.0 500.2,168.0 501.6,168.8 503.0,166.5 504.4,170.7 505.7,167.8 507.1,150.9 508.5,160.0 509.9,160.3 511.3,159.7 512.7,165.4 514.1,163.8 515.5,156.3 516.9,152.9 518.2,152.7 519.6,151.4 521.0,160.2 522.4,161.3 523.8,164.6 525.2,179.8 526.6,169.1 528.0,170.1 529.4,164.5 530.7,163.9 532.1,161.4 533.5,155.5 534.9,153.0 536.3,152.4 537.7,143.0 539.1,143.8 540.5,143.5 541.9,142.3 543.2,141.9 544.6,144.6 546.0,144.9 547.4,139.5 548.8,145.4 550.2,138.6 551.6,124.3 553.0,116.4 554.4,101.6 555.7,77.6 557.1,86.4 558.5,106.3 559.9,102.7 561.3,136.7 562.7,136.3 564.1,128.7 565.5,143.1 566.9,150.4 568.2,152.7 569.6,154.6 571.0,152.3 572.4,151.8 573.8,155.7 575.2,157.6 576.6,140.8 578.0,144.3 579.4,143.6 580.7,149.8 582.1,152.5 583.5,152.9 584.9,153.3 586.3,157.5 587.7,167.3 589.1,173.9 590.5,164.6 591.8,166.3 593.2,166.7 594.6,163.2 596.0,165.1 597.4,164.6 598.8,168.6 600.2,170.4 601.6,174.8 603.0,179.3 604.3,181.3 605.7,188.2 607.1,192.6 608.5,198.1 609.9,186.4 611.3,173.8 612.7,168.5 614.1,156.9 615.5,147.6 616.8,143.1 618.2,140.2 619.6,151.0 621.0,146.9 622.4,143.1 623.8,140.8 625.2,151.6 626.6,153.5 628.0,146.8 629.3,143.2 630.7,150.2 632.1,160.5 633.5,161.1 634.9,156.6 636.3,159.6 637.7,152.6 639.1,151.7 640.5,147.8 641.8,136.6 643.2,143.3 644.6,127.0 646.0,130.8 647.4,134.2 648.8,122.5 650.2,118.1 651.6,123.7 653.0,124.9 654.3,126.4 655.7,103.0 657.1,102.8 658.5,104.1 659.9,105.7 661.3,102.8 662.7,102.7 664.1,108.1 665.5,105.9 666.8,112.3 668.2,112.4 669.6,107.3 671.0,102.1 672.4,111.3 673.8,95.9 675.2,95.3 676.6,111.5 678.0,111.7 679.3,108.3 680.7,108.1 682.1,109.0 683.5,107.1 684.9,109.0 686.3,119.4 687.7,116.7 689.1,124.5 690.5,116.2 691.8,118.6 693.2,110.7 694.6,117.7 696.0,130.9 697.4,119.5 698.8,120.9 700.2,124.7 701.6,120.5 703.0,115.7 704.3,121.6 705.7,120.2 707.1,122.9 708.5,119.9 709.9,115.1 711.3,118.7 712.7,116.5 714.1,119.7 715.5,117.6 716.8,117.5 718.2,124.7 719.6,127.5 721.0,124.6 722.4,124.9 723.8,130.6 725.2,127.8 726.6,121.5 727.9,119.5 729.3,121.2 730.7,120.8 732.1,115.0 733.5,108.3 734.9,100.0 736.3,99.7 737.7,99.0 739.1,93.0 740.4,104.3 741.8,108.4 743.2,101.0 744.6,113.7 746.0,113.3 747.4,106.1 748.8,99.4 750.2,103.4 751.6,113.5 752.9,115.1 754.3,119.5 755.7,125.3 757.1,121.0 758.5,116.1 759.9,122.1 761.3,126.6 762.7,132.0 764.1,130.7 765.4,135.4 766.8,130.8 768.2,138.1 769.6,139.6 771.0,127.4 772.4,114.6 773.8,91.6 775.2,108.3 776.6,104.7 777.9,101.9 779.3,95.8 780.7,94.6 782.1,93.6 783.5,97.6 784.9,93.2 786.3,92.7 787.7,94.3 789.1,96.8 790.4,95.2 791.8,100.4 793.2,97.8 794.6,95.0 796.0,97.5"/><polyline fill="none" stroke="#16a34a" stroke-width="3" points="78.0,316.0 79.4,317.5 80.8,306.4 82.2,309.5 83.6,278.1 84.9,289.5 86.3,285.8 87.7,281.7 89.1,269.4 90.5,264.1 91.9,261.8 93.3,274.9 94.7,287.0 96.1,278.4 97.4,275.9 98.8,271.5 100.2,279.9 101.6,271.9 103.0,271.5 104.4,268.0 105.8,257.0 107.2,261.7 108.6,251.5 109.9,256.5 111.3,257.8 112.7,268.7 114.1,259.3 115.5,255.4 116.9,256.4 118.3,253.6 119.7,247.0 121.1,249.7 122.4,247.4 123.8,246.7 125.2,236.4 126.6,235.2 128.0,229.8 129.4,227.4 130.8,216.1 132.2,207.2 133.6,223.2 134.9,231.4 136.3,228.5 137.7,231.5 139.1,230.3 140.5,244.4 141.9,242.4 143.3,240.5 144.7,242.0 146.1,239.3 147.4,250.9 148.8,242.9 150.2,232.7 151.6,225.7 153.0,228.1 154.4,224.2 155.8,226.4 157.2,221.3 158.5,222.4 159.9,211.2 161.3,205.1 162.7,210.8 164.1,216.9 165.5,217.2 166.9,220.3 168.3,198.4 169.7,200.6 171.0,200.0 172.4,192.2 173.8,191.5 175.2,191.7 176.6,185.4 178.0,186.9 179.4,179.2 180.8,170.0 182.2,170.6 183.5,171.0 184.9,165.8 186.3,159.3 187.7,161.4 189.1,168.4 190.5,166.0 191.9,161.7 193.3,167.6 194.7,163.3 196.0,162.1 197.4,157.5 198.8,154.6 200.2,154.0 201.6,154.3 203.0,140.6 204.4,137.7 205.8,117.7 207.2,100.4 208.5,121.7 209.9,114.1 211.3,112.6 212.7,126.1 214.1,117.2 215.5,123.0 216.9,131.7 218.3,124.7 219.7,121.0 221.0,95.7 222.4,105.3 223.8,99.5 225.2,91.9 226.6,99.2 228.0,107.0 229.4,102.0 230.8,112.9 232.2,117.5 233.5,130.0 234.9,135.2 236.3,133.1 237.7,134.0 239.1,141.7 240.5,141.4 241.9,144.6 243.3,149.5 244.7,163.0 246.0,158.7 247.4,147.3 248.8,146.6 250.2,139.2 251.6,131.1 253.0,128.0 254.4,126.9 255.8,128.6 257.2,128.0 258.5,113.9 259.9,105.6 261.3,107.6 262.7,108.9 264.1,104.5 265.5,113.2 266.9,107.0 268.3,103.0 269.7,100.7 271.0,102.0 272.4,83.5 273.8,89.4 275.2,88.5 276.6,94.9 278.0,129.7 279.4,130.2 280.8,119.0 282.2,126.8 283.5,127.8 284.9,127.5 286.3,127.1 287.7,114.6 289.1,122.8 290.5,126.3 291.9,105.2 293.3,110.9 294.6,114.2 296.0,115.3 297.4,113.9 298.8,107.8 300.2,105.6 301.6,107.8 303.0,126.9 304.4,126.4 305.8,137.9 307.1,128.2 308.5,127.8 309.9,116.1 311.3,130.4 312.7,126.8 314.1,126.1 315.5,137.2 316.9,119.7 318.3,119.7 319.6,118.3 321.0,115.7 322.4,120.4 323.8,107.1 325.2,104.3 326.6,107.6 328.0,88.8 329.4,90.0 330.8,96.1 332.1,85.7 333.5,91.2 334.9,92.7 336.3,98.0 337.7,114.5 339.1,108.7 340.5,106.9 341.9,102.2 343.3,123.4 344.6,142.9 346.0,136.0 347.4,140.3 348.8,119.0 350.2,133.3 351.6,125.2 353.0,119.1 354.4,121.5 355.8,119.9 357.1,116.1 358.5,126.0 359.9,118.1 361.3,113.7 362.7,109.0 364.1,108.5 365.5,103.1 366.9,102.8 368.3,107.4 369.6,101.2 371.0,92.9 372.4,96.9 373.8,93.7 375.2,93.9 376.6,116.0 378.0,113.2 379.4,106.4 380.8,91.7 382.1,92.9 383.5,88.6 384.9,79.3 386.3,79.5 387.7,81.3 389.1,88.0 390.5,93.7 391.9,92.9 393.3,98.4 394.6,98.3 396.0,103.1 397.4,109.9 398.8,106.3 400.2,106.8 401.6,107.7 403.0,108.5 404.4,104.8 405.8,105.7 407.1,105.1 408.5,111.3 409.9,105.5 411.3,107.0 412.7,111.8 414.1,112.3 415.5,110.8 416.9,116.5 418.3,121.3 419.6,115.7 421.0,123.6 422.4,119.9 423.8,119.8 425.2,119.8 426.6,123.1 428.0,120.9 429.4,121.7 430.8,128.9 432.1,131.5 433.5,136.5 434.9,133.7 436.3,142.5 437.7,144.1 439.1,150.9 440.5,154.4 441.9,154.4 443.2,154.8 444.6,159.3 446.0,166.4 447.4,164.9 448.8,161.6 450.2,152.7 451.6,157.8 453.0,148.1 454.4,148.3 455.7,151.9 457.1,156.1 458.5,147.9 459.9,144.4 461.3,143.5 462.7,171.7 464.1,169.2 465.5,170.4 466.9,166.6 468.2,167.2 469.6,162.0 471.0,169.3 472.4,165.9 473.8,161.6 475.2,161.8 476.6,164.0 478.0,160.4 479.4,167.3 480.7,165.4 482.1,168.1 483.5,165.8 484.9,163.6 486.3,157.1 487.7,163.7 489.1,159.9 490.5,167.0 491.9,170.0 493.2,170.9 494.6,165.9 496.0,168.1 497.4,162.4 498.8,168.8 500.2,166.8 501.6,167.7 503.0,165.4 504.4,169.6 505.7,166.6 507.1,149.7 508.5,158.8 509.9,159.1 511.3,158.5 512.7,164.3 514.1,162.6 515.5,155.2 516.9,151.8 518.2,151.6 519.6,150.3 521.0,159.0 522.4,160.1 523.8,163.4 525.2,178.6 526.6,168.0 528.0,168.9 529.4,163.4 530.7,162.7 532.1,160.3 533.5,154.4 534.9,151.8 536.3,151.2 537.7,141.8 539.1,142.6 540.5,142.3 541.9,141.2 543.2,140.7 544.6,143.4 546.0,143.7 547.4,138.3 548.8,144.2 550.2,137.4 551.6,123.2 553.0,115.3 554.4,100.5 555.7,76.5 557.1,85.3 558.5,105.1 559.9,101.6 561.3,135.5 562.7,135.2 564.1,127.6 565.5,142.0 566.9,149.2 568.2,151.6 569.6,153.4 571.0,151.1 572.4,150.7 573.8,154.5 575.2,156.4 576.6,139.7 578.0,142.9 579.4,142.1 580.7,148.4 582.1,151.0 583.5,151.4 584.9,151.8 586.3,156.0 587.7,165.8 589.1,172.5 590.5,163.2 591.8,164.9 593.2,165.3 594.6,161.7 596.0,163.6 597.4,163.1 598.8,167.1 600.2,168.9 601.6,173.3 603.0,177.8 604.3,179.8 605.7,186.7 607.1,191.1 608.5,196.6 609.9,184.9 611.3,172.4 612.7,167.0 614.1,155.5 615.5,146.2 616.8,141.6 618.2,138.7 619.6,149.6 621.0,145.5 622.4,141.6 623.8,139.4 625.2,150.1 626.6,152.1 628.0,145.3 629.3,141.7 630.7,148.8 632.1,159.1 633.5,159.7 634.9,155.2 636.3,158.1 637.7,151.1 639.1,150.2 640.5,146.3 641.8,135.1 643.2,141.8 644.6,125.6 646.0,129.3 647.4,132.7 648.8,121.0 650.2,116.6 651.6,122.2 653.0,123.5 654.3,125.0 655.7,101.5 657.1,101.4 658.5,102.6 659.9,104.3 661.3,101.4 662.7,101.0 664.1,106.3 665.5,104.1 666.8,110.6 668.2,110.6 669.6,105.5 671.0,100.4 672.4,109.5 673.8,94.1 675.2,93.5 676.6,109.7 678.0,110.0 679.3,106.5 680.7,106.4 682.1,107.3 683.5,105.4 684.9,107.3 686.3,117.7 687.7,114.9 689.1,122.7 690.5,114.5 691.8,116.8 693.2,108.9 694.6,116.0 696.0,129.1 697.4,117.7 698.8,119.2 700.2,123.0 701.6,118.8 703.0,113.9 704.3,119.8 705.7,118.4 707.1,121.2 708.5,118.2 709.9,113.3 711.3,117.0 712.7,114.8 714.1,117.9 715.5,115.9 716.8,115.8 718.2,123.0 719.6,125.8 721.0,122.8 722.4,123.2 723.8,128.9 725.2,126.0 726.6,119.8 727.9,117.7 729.3,119.5 730.7,119.1 732.1,113.2 733.5,106.6 734.9,98.2 736.3,97.9 737.7,97.3 739.1,91.2 740.4,102.5 741.8,106.7 743.2,99.3 744.6,112.0 746.0,111.5 747.4,104.3 748.8,97.6 750.2,101.4 751.6,111.4 752.9,113.0 754.3,117.5 755.7,123.3 757.1,119.0 758.5,114.0 759.9,120.1 761.3,124.6 762.7,129.9 764.1,128.6 765.4,133.4 766.8,128.7 768.2,136.0 769.6,137.5 771.0,125.3 772.4,112.6 773.8,89.5 775.2,106.3 776.6,102.6 777.9,99.8 779.3,93.7 780.7,92.5 782.1,91.5 783.5,95.5 784.9,91.2 786.3,90.7 787.7,92.3 789.1,94.7 790.4,93.2 791.8,98.4 793.2,95.8 794.6,92.9 796.0,95.4"/>
<text x="78" y="392" font-size="11" fill="#16a34a">Total return +235.1%</text><text x="268" y="392" font-size="11" fill="#2563eb">Price-only +231.4%</text><text x="78" y="362" font-size="11" text-anchor="middle" fill="#64748b">2024-06</text><text x="257" y="362" font-size="11" text-anchor="middle" fill="#64748b">2025-01</text><text x="438" y="362" font-size="11" text-anchor="middle" fill="#64748b">2025-07</text><text x="617" y="362" font-size="11" text-anchor="middle" fill="#64748b">2026-01</text><text x="796" y="362" font-size="11" text-anchor="middle" fill="#64748b">2026-07</text></svg>