<svg xmlns="http://www.w3.org/2000/svg" width="820" height="410" viewBox="0 0 820 410">
<rect width="820" height="410" fill="#fafafa"/><text x="60" y="24" font-size="14" font-family="sans-serif" fill="#0f172a">LB wealth index · dividends reinvested on ex-date</text>
<text x="60" y="42" font-size="10" font-family="sans-serif" fill="#64748b">Regular $0.74 · Special $0.00 · Other $0.00 per initial share path</text>
<line x1="60" y1="332" x2="796" y2="332" stroke="#cbd5e1"/>
<polyline fill="none" stroke="#2563eb" stroke-width="2" points="60.0,306.1 61.4,306.8 62.9,301.4 64.3,302.9 65.8,286.3 67.2,292.7 68.6,290.6 70.1,288.3 71.5,281.1 73.0,277.8 74.4,276.4 75.8,284.4 77.3,291.3 78.7,286.4 80.2,285.0 81.6,282.4 83.0,287.3 84.5,282.6 85.9,282.4 87.4,280.2 88.8,273.3 90.2,276.3 91.7,269.7 93.1,273.0 94.6,273.8 96.0,280.7 97.4,274.8 98.9,272.3 100.3,272.9 101.8,271.1 103.2,266.6 104.6,268.5 106.1,266.9 107.5,266.5 109.0,259.1 110.4,258.3 111.9,254.3 113.3,252.5 114.7,243.6 116.2,236.2 117.6,249.2 119.1,255.5 120.5,253.3 121.9,255.6 123.4,254.7 124.8,264.8 126.3,263.5 127.7,262.1 129.1,263.2 130.6,261.2 132.0,269.3 133.5,263.8 134.9,256.4 136.3,251.1 137.8,253.0 139.2,250.0 140.7,251.7 142.1,247.7 143.5,248.6 145.0,239.6 146.4,234.4 147.9,239.2 149.3,244.2 150.7,244.4 152.2,247.0 153.6,228.4 155.1,230.5 156.5,229.9 157.9,222.8 159.4,222.2 160.8,222.3 162.3,216.4 163.7,217.8 165.1,210.3 166.6,201.0 168.0,201.6 169.5,202.0 170.9,196.5 172.3,189.4 173.8,191.8 175.2,199.3 176.7,196.8 178.1,192.1 179.5,198.5 181.0,193.8 182.4,192.5 183.9,187.5 185.3,184.1 186.7,183.4 188.2,183.8 189.6,167.6 191.1,164.0 192.5,137.7 193.9,112.4 195.4,143.1 196.8,132.5 198.3,130.5 199.7,149.0 201.2,136.9 202.6,144.9 204.0,156.4 205.5,147.2 206.9,142.1 208.4,105.1 209.8,119.7 211.2,111.0 212.7,99.0 214.1,110.5 215.6,122.3 217.0,114.8 218.4,130.8 219.9,137.7 221.3,154.5 222.8,161.2 224.2,158.5 225.6,159.7 227.1,169.3 228.5,168.9 230.0,172.8 231.4,178.6 232.8,193.8 234.3,189.1 235.7,176.0 237.2,175.2 238.6,166.2 240.0,156.0 241.5,152.0 242.9,150.4 244.4,152.7 245.8,152.0 247.2,132.7 248.7,120.5 250.1,123.5 251.6,125.4 253.0,119.0 254.4,131.7 255.9,122.6 257.3,116.8 258.8,113.2 260.2,115.1 261.6,85.7 263.1,95.5 264.5,94.0 266.0,104.3 267.4,154.2 268.8,154.8 270.3,139.7 271.7,150.4 273.2,151.7 274.6,151.2 276.0,150.8 277.5,133.7 278.9,145.0 280.4,149.7 281.8,119.9 283.2,128.3 284.7,133.1 286.1,134.6 287.6,132.7 289.0,123.8 290.5,120.5 291.9,123.8 293.3,150.4 294.8,149.8 296.2,164.6 297.7,152.2 299.1,151.6 300.5,135.7 302.0,155.0 303.4,150.4 304.9,149.4 306.3,164.1 307.7,141.1 309.2,141.2 310.6,139.3 312.1,135.6 313.5,142.2 314.9,123.2 316.4,119.2 317.8,124.0 319.3,95.0 320.7,96.9 322.1,106.6 323.6,89.9 325.0,98.7 326.5,101.2 327.9,109.5 329.3,133.9 330.8,125.5 332.2,123.0 333.7,115.9 335.1,146.1 336.5,171.0 338.0,162.6 339.4,167.9 340.9,140.1 342.3,159.2 343.7,148.7 345.2,140.4 346.6,143.7 348.1,141.4 349.5,136.2 350.9,149.7 352.4,139.0 353.8,132.8 355.3,126.0 356.7,125.3 358.1,117.3 359.6,116.9 361.0,123.6 362.5,114.4 363.9,101.5 365.3,107.9 366.8,102.8 368.2,103.1 369.7,136.0 371.1,132.1 372.5,122.2 374.0,99.6 375.4,101.5 376.9,94.5 378.3,79.1 379.7,79.5 381.2,82.4 382.6,93.7 384.1,102.9 385.5,101.6 387.0,110.2 388.4,110.0 389.8,117.4 391.3,127.3 392.7,122.0 394.2,122.9 395.6,124.1 397.0,125.7 398.5,120.2 399.9,121.6 401.4,120.6 402.8,129.8 404.2,121.3 405.7,123.5 407.1,130.4 408.6,131.2 410.0,129.0 411.4,137.0 412.9,143.7 414.3,135.9 415.8,146.8 417.2,141.8 418.6,141.7 420.1,141.7 421.5,146.1 423.0,143.1 424.4,144.3 425.8,153.8 427.3,157.1 428.7,163.6 430.2,160.1 431.6,170.9 433.0,172.8 434.5,180.9 435.9,184.8 437.4,184.8 438.8,185.3 440.2,190.4 441.7,198.0 443.1,196.4 444.6,192.9 446.0,183.0 447.4,188.7 448.9,177.6 450.3,177.8 451.8,182.0 453.2,186.8 454.6,177.4 456.1,173.2 457.5,172.1 459.0,203.6 460.4,200.9 461.8,202.3 463.3,198.2 464.7,198.8 466.2,193.3 467.6,201.1 469.0,197.5 470.5,192.8 471.9,193.1 473.4,195.4 474.8,191.6 476.3,198.9 477.7,197.0 479.1,199.9 480.6,197.3 482.0,195.1 483.5,187.9 484.9,195.1 486.3,191.3 487.8,199.1 489.2,202.2 490.7,203.1 492.1,197.8 493.5,200.2 495.0,194.1 496.4,200.9 497.9,198.8 499.3,199.7 500.7,197.3 502.2,201.7 503.6,198.6 505.1,179.9 506.5,190.2 507.9,190.5 509.4,189.9 510.8,196.1 512.3,194.3 513.7,186.1 515.1,182.3 516.6,182.0 518.0,180.5 519.5,190.4 520.9,191.6 522.3,195.2 523.8,210.9 525.2,200.0 526.7,201.0 528.1,195.1 529.5,194.4 531.0,191.8 532.4,185.2 533.9,182.3 535.3,181.6 536.7,170.5 538.2,171.4 539.6,171.1 541.1,169.7 542.5,169.2 543.9,172.4 545.4,172.8 546.8,166.2 548.3,173.4 549.7,165.1 551.1,146.7 552.6,135.8 554.0,114.2 555.5,75.2 556.9,90.1 558.3,121.2 559.8,115.9 561.2,162.8 562.7,162.3 564.1,152.5 565.5,170.7 567.0,179.3 568.4,182.0 569.9,184.1 571.3,181.5 572.8,181.0 574.2,185.4 575.6,187.5 577.1,167.9 578.5,172.1 580.0,171.3 581.4,178.7 582.8,181.7 584.3,182.2 585.7,182.7 587.2,187.4 588.6,198.1 590.0,205.0 591.5,195.3 592.9,197.1 594.4,197.5 595.8,193.7 597.2,195.8 598.7,195.2 600.1,199.5 601.6,201.3 603.0,205.9 604.4,210.4 605.9,212.4 607.3,219.1 608.8,223.2 610.2,228.2 611.6,217.4 613.1,204.9 614.5,199.4 616.0,186.8 617.4,176.1 618.8,170.6 620.3,167.1 621.7,180.0 623.2,175.3 624.6,170.6 626.0,167.9 627.5,180.7 628.9,183.0 630.4,175.0 631.8,170.8 633.2,179.1 634.7,190.8 636.1,191.5 637.6,186.4 639.0,189.8 640.4,181.8 641.9,180.8 643.3,176.2 644.8,162.6 646.2,170.9 647.6,150.3 649.1,155.2 650.5,159.6 652.0,144.2 653.4,138.2 654.8,145.8 656.3,147.5 657.7,149.5 659.2,116.3 660.6,116.1 662.1,117.9 663.5,120.4 664.9,116.1 666.4,115.9 667.8,123.9 669.3,120.6 670.7,130.0 672.1,130.1 673.6,122.6 675.0,115.0 676.5,128.5 677.9,105.3 679.3,104.4 680.8,128.8 682.2,129.2 683.7,124.2 685.1,123.9 686.5,125.2 688.0,122.5 689.4,125.2 690.9,140.0 692.3,136.2 693.7,146.9 695.2,135.6 696.6,138.8 698.1,127.7 699.5,137.6 700.9,155.4 702.4,140.1 703.8,142.1 705.3,147.2 706.7,141.6 708.1,134.8 709.6,143.0 711.0,141.1 712.5,144.8 713.9,140.7 715.3,134.0 716.8,139.0 718.2,136.0 719.7,140.4 721.1,137.5 722.5,137.4 724.0,147.3 725.4,151.0 726.9,147.0 728.3,147.5 729.7,155.0 731.2,151.3 732.6,142.9 734.1,140.1 735.5,142.5 736.9,142.0 738.4,133.8 739.8,124.2 741.3,111.7 742.7,111.3 744.1,110.2 745.6,100.8 747.0,118.2 748.5,124.4 749.9,113.3 751.4,132.0 752.8,131.4 754.2,120.9 755.7,110.8 757.1,116.9 758.6,131.7 760.0,134.0 761.4,140.2 762.9,148.0 764.3,142.2 765.8,135.3 767.2,143.7 768.6,149.8 770.1,156.8 771.5,155.1 773.0,161.1 774.4,155.2 775.8,164.5 777.3,166.3 778.7,150.8 780.2,133.3 781.6,98.5 783.0,124.2 784.5,118.8 785.9,114.6 787.4,105.2 788.8,103.3 790.2,101.7 791.7,108.0 793.1,101.2 794.6,100.4 796.0,102.9"/><polyline fill="none" stroke="#16a34a" stroke-width="3" points="60.0,306.1 61.4,306.8 62.9,301.4 64.3,302.9 65.8,286.3 67.2,292.7 68.6,290.6 70.1,288.3 71.5,281.1 73.0,277.8 74.4,276.4 75.8,284.4 77.3,291.3 78.7,286.4 80.2,285.0 81.6,282.4 83.0,287.3 84.5,282.6 85.9,282.4 87.4,280.2 88.8,273.3 90.2,276.3 91.7,269.7 93.1,273.0 94.6,273.8 96.0,280.7 97.4,274.8 98.9,272.3 100.3,272.9 101.8,271.1 103.2,266.6 104.6,268.5 106.1,266.9 107.5,266.5 109.0,259.1 110.4,258.3 111.9,254.3 113.3,252.5 114.7,243.6 116.2,236.2 117.6,249.2 119.1,255.5 120.5,253.3 121.9,255.6 123.4,254.7 124.8,264.8 126.3,263.5 127.7,262.1 129.1,263.2 130.6,261.2 132.0,269.3 133.5,263.8 134.9,256.4 136.3,251.1 137.8,253.0 139.2,250.0 140.7,251.7 142.1,247.7 143.5,248.6 145.0,239.6 146.4,234.4 147.9,239.2 149.3,244.2 150.7,244.4 152.2,247.0 153.6,228.4 155.1,230.5 156.5,229.9 157.9,222.8 159.4,222.2 160.8,222.3 162.3,216.4 163.7,217.8 165.1,210.3 166.6,201.0 168.0,201.6 169.5,202.0 170.9,196.5 172.3,189.4 173.8,191.8 175.2,199.3 176.7,196.8 178.1,192.1 179.5,198.5 181.0,193.8 182.4,192.5 183.9,187.5 185.3,184.1 186.7,183.4 188.2,183.8 189.6,167.6 191.1,164.0 192.5,137.7 193.9,112.4 195.4,143.1 196.8,132.5 198.3,130.5 199.7,149.0 201.2,136.9 202.6,144.9 204.0,156.4 205.5,147.2 206.9,142.1 208.4,105.1 209.8,119.7 211.2,111.0 212.7,99.0 214.1,110.5 215.6,122.3 217.0,114.8 218.4,130.8 219.9,137.3 221.3,154.2 222.8,160.9 224.2,158.2 225.6,159.3 227.1,169.0 228.5,168.5 230.0,172.5 231.4,178.3 232.8,193.5 234.3,188.8 235.7,175.7 237.2,174.9 238.6,165.8 240.0,155.7 241.5,151.6 242.9,150.1 244.4,152.3 245.8,151.6 247.2,132.3 248.7,120.1 250.1,123.1 251.6,125.0 253.0,118.6 254.4,131.3 255.9,122.2 257.3,116.4 258.8,112.8 260.2,114.7 261.6,85.3 263.1,95.1 264.5,93.5 266.0,103.8 267.4,153.9 268.8,154.5 270.3,139.4 271.7,150.0 273.2,151.3 274.6,150.9 276.0,150.5 277.5,133.3 278.9,144.7 280.4,149.3 281.8,119.6 283.2,128.0 284.7,132.7 286.1,134.2 287.6,132.3 289.0,123.4 290.5,120.1 291.9,123.4 293.3,150.1 294.8,149.5 296.2,164.3 297.7,151.8 299.1,151.3 300.5,135.4 302.0,154.7 303.4,150.0 304.9,149.0 306.3,163.4 307.7,140.4 309.2,140.4 310.6,138.5 312.1,134.8 313.5,141.4 314.9,122.4 316.4,118.3 317.8,123.2 319.3,94.1 320.7,96.0 322.1,105.7 323.6,88.9 325.0,97.8 326.5,100.3 327.9,108.7 329.3,133.1 330.8,124.7 332.2,122.2 333.7,115.1 335.1,145.4 336.5,170.4 338.0,161.9 339.4,167.2 340.9,139.4 342.3,158.4 343.7,147.9 345.2,139.6 346.6,142.9 348.1,140.6 349.5,135.4 350.9,148.9 352.4,138.2 353.8,132.0 355.3,125.2 356.7,124.5 358.1,116.4 359.6,116.1 361.0,122.8 362.5,113.5 363.9,100.6 365.3,107.0 366.8,101.9 368.2,102.3 369.7,135.2 371.1,131.3 372.5,121.4 374.0,98.7 375.4,100.6 376.9,93.6 378.3,78.1 379.7,78.5 381.2,81.5 382.6,92.8 384.1,102.0 385.5,100.7 387.0,109.3 388.4,109.1 389.8,116.5 391.3,126.5 392.7,121.2 394.2,122.0 395.6,123.3 397.0,124.5 398.5,119.0 399.9,120.4 401.4,119.4 402.8,128.6 404.2,120.1 405.7,122.3 407.1,129.2 408.6,130.0 410.0,127.9 411.4,135.9 412.9,142.6 414.3,134.8 415.8,145.7 417.2,140.7 418.6,140.5 420.1,140.5 421.5,145.0 423.0,142.0 424.4,143.2 425.8,152.7 427.3,156.1 428.7,162.5 430.2,159.0 431.6,169.9 433.0,171.8 434.5,179.9 435.9,183.9 437.4,183.9 438.8,184.4 440.2,189.5 441.7,197.1 443.1,195.5 444.6,192.0 446.0,182.0 447.4,187.8 448.9,176.6 450.3,176.9 451.8,181.1 453.2,185.8 454.6,176.4 456.1,172.2 457.5,171.1 459.0,202.8 460.4,200.1 461.8,201.4 463.3,197.3 464.7,198.0 466.2,192.4 467.6,200.3 469.0,196.6 470.5,191.9 471.9,192.2 473.4,194.5 474.8,190.7 476.3,198.1 477.7,196.1 479.1,199.0 480.6,196.5 482.0,194.2 483.5,187.0 484.9,194.2 486.3,190.0 487.8,197.8 489.2,201.0 490.7,201.9 492.1,196.6 493.5,199.0 495.0,192.9 496.4,199.7 497.9,197.6 499.3,198.5 500.7,196.0 502.2,200.5 503.6,197.4 505.1,178.5 506.5,188.9 507.9,189.2 509.4,188.6 510.8,194.9 512.3,193.1 513.7,184.8 515.1,180.9 516.6,180.7 518.0,179.2 519.5,189.1 520.9,190.3 522.3,194.0 523.8,209.8 525.2,198.8 526.7,199.8 528.1,193.9 529.5,193.2 531.0,190.5 532.4,183.9 533.9,181.0 535.3,180.3 536.7,169.1 538.2,170.1 539.6,169.7 541.1,168.3 542.5,167.8 543.9,171.1 545.4,171.4 546.8,164.8 548.3,172.0 549.7,163.7 551.1,145.1 552.6,134.2 554.0,112.5 555.5,73.2 556.9,88.2 558.3,119.5 559.8,114.2 561.2,161.3 562.7,160.8 564.1,151.0 565.5,169.3 567.0,177.9 568.4,180.7 569.9,182.8 571.3,180.2 572.8,179.7 574.2,184.1 575.6,186.2 577.1,166.4 578.5,170.4 580.0,169.5 581.4,177.0 582.8,180.0 584.3,180.5 585.7,181.0 587.2,185.8 588.6,196.5 590.0,203.5 591.5,193.7 592.9,195.5 594.4,195.9 595.8,192.1 597.2,194.2 598.7,193.7 600.1,197.9 601.6,199.8 603.0,204.4 604.4,209.0 605.9,211.0 607.3,217.7 608.8,221.8 610.2,226.9 611.6,216.0 613.1,203.4 614.5,197.8 616.0,185.2 617.4,174.3 618.8,168.8 620.3,165.3 621.7,178.3 623.2,173.5 624.6,168.9 626.0,166.1 627.5,179.0 628.9,181.3 630.4,173.3 631.8,169.0 633.2,177.4 634.7,189.2 636.1,189.9 637.6,184.8 639.0,188.1 640.4,180.2 641.9,179.1 643.3,174.5 644.8,160.8 646.2,169.1 647.6,148.3 649.1,153.3 650.5,157.7 652.0,142.2 653.4,136.2 654.8,143.8 656.3,145.5 657.7,147.5 659.2,114.1 660.6,113.8 662.1,115.7 663.5,118.2 664.9,113.8 666.4,113.3 667.8,121.3 669.3,118.0 670.7,127.5 672.1,127.6 673.6,120.0 675.0,112.3 676.5,126.0 677.9,102.5 679.3,101.6 680.8,126.3 682.2,126.7 683.7,121.6 685.1,121.3 686.5,122.7 688.0,119.9 689.4,122.7 690.9,137.6 692.3,133.8 693.7,144.5 695.2,133.1 696.6,136.4 698.1,125.1 699.5,135.2 700.9,153.1 702.4,137.6 703.8,139.7 705.3,144.9 706.7,139.1 708.1,132.3 709.6,140.6 711.0,138.7 712.5,142.4 713.9,138.3 715.3,131.5 716.8,136.6 718.2,133.5 719.7,137.9 721.1,135.1 722.5,135.0 724.0,144.9 725.4,148.6 726.9,144.6 728.3,145.2 729.7,152.7 731.2,149.0 732.6,140.5 734.1,137.7 735.5,140.1 736.9,139.5 738.4,131.3 739.8,121.6 741.3,109.0 742.7,108.5 744.1,107.5 745.6,98.0 747.0,115.6 748.5,121.8 749.9,110.6 751.4,129.5 752.8,128.9 754.2,118.3 755.7,108.1 757.1,113.8 758.6,128.7 760.0,131.1 761.4,137.3 762.9,145.3 764.3,139.4 765.8,132.4 767.2,140.9 768.6,147.0 770.1,154.1 771.5,152.4 773.0,158.5 774.4,152.5 775.8,161.9 777.3,163.8 778.7,148.0 780.2,130.3 781.6,95.2 783.0,121.2 784.5,115.8 785.9,111.5 787.4,102.0 788.8,100.0 790.2,98.4 791.7,104.8 793.1,97.9 794.6,97.1 796.0,99.6"/><polyline fill="none" stroke="#94a3b8" stroke-width="2" points="60.0,306.1 61.4,305.9 62.9,305.3 64.3,304.9 65.8,304.4 67.2,304.3 68.6,304.2 70.1,303.4 71.5,304.1 73.0,303.6 74.4,303.3 75.8,302.8 77.3,304.0 78.7,304.7 80.2,305.3 81.6,304.4 83.0,304.5 84.5,306.5 85.9,307.0 87.4,306.0 88.8,306.0 90.2,306.4 91.7,305.0 93.1,306.2 94.6,307.8 96.0,310.3 97.4,309.5 98.9,310.1 100.3,308.2 101.8,307.8 103.2,307.8 104.6,306.4 106.1,306.1 107.5,304.7 109.0,304.5 110.4,303.6 111.9,303.8 113.3,303.5 114.7,304.2 116.2,303.2 117.6,303.4 119.1,303.3 120.5,303.8 121.9,303.8 123.4,303.0 124.8,304.8 126.3,305.0 127.7,305.2 129.1,306.7 130.6,305.7 132.0,305.3 133.5,304.4 134.9,303.7 136.3,303.3 137.8,303.1 139.2,303.1 140.7,303.3 142.1,301.8 143.5,302.0 145.0,301.8 146.4,301.5 147.9,301.7 149.3,301.4 150.7,301.5 152.2,301.1 153.6,301.9 155.1,301.9 156.5,302.1 157.9,301.2 159.4,302.1 160.8,301.2 162.3,300.6 163.7,300.8 165.1,300.2 166.6,299.5 168.0,300.2 169.5,299.8 170.9,299.8 172.3,299.4 173.8,299.6 175.2,299.6 176.7,300.5 178.1,300.3 179.5,300.3 181.0,300.0 182.4,299.9 183.9,300.1 185.3,301.9 186.7,301.6 188.2,301.7 189.6,300.7 191.1,298.4 192.5,297.7 193.9,297.3 195.4,297.2 196.8,297.5 198.3,297.4 199.7,298.0 201.2,299.2 202.6,298.9 204.0,298.5 205.5,298.5 206.9,298.0 208.4,297.7 209.8,297.4 211.2,296.9 212.7,297.2 214.1,296.6 215.6,296.4 217.0,296.4 218.4,295.8 219.9,295.9 221.3,295.7 222.8,296.2 224.2,296.5 225.6,295.8 227.1,296.3 228.5,296.3 230.0,295.9 231.4,296.3 232.8,299.1 234.3,299.2 235.7,298.1 237.2,297.5 238.6,296.5 240.0,296.5 241.5,297.5 242.9,298.5 244.4,298.9 245.8,299.1 247.2,297.9 248.7,297.4 250.1,298.5 251.6,298.3 253.0,299.8 254.4,299.6 255.9,299.5 257.3,297.8 258.8,298.0 260.2,297.1 261.6,296.2 263.1,295.6 264.5,295.1 266.0,295.4 267.4,296.8 268.8,296.0 270.3,296.4 271.7,295.9 273.2,296.4 274.6,297.0 276.0,296.4 277.5,296.0 278.9,295.7 280.4,296.5 281.8,295.9 283.2,295.8 284.7,296.1 286.1,295.1 287.6,295.1 289.0,294.8 290.5,294.6 291.9,295.0 293.3,296.7 294.8,297.1 296.2,297.6 297.7,297.5 299.1,299.0 300.5,297.6 302.0,299.2 303.4,300.3 304.9,299.4 306.3,301.0 307.7,300.5 309.2,302.9 310.6,303.6 312.1,303.2 313.5,304.4 314.9,302.6 316.4,301.9 317.8,302.8 319.3,301.9 320.7,302.1 322.1,302.1 323.6,300.5 325.0,300.3 326.5,301.4 327.9,301.6 329.3,303.4 330.8,302.8 332.2,302.6 333.7,302.0 335.1,306.4 336.5,311.4 338.0,311.6 339.4,312.8 340.9,304.5 342.3,308.4 343.7,306.9 345.2,306.1 346.6,306.3 348.1,308.2 349.5,308.1 350.9,310.1 352.4,307.9 353.8,306.6 355.3,304.9 356.7,304.2 358.1,304.2 359.6,303.6 361.0,303.6 362.5,303.0 363.9,301.7 365.3,302.2 366.8,302.9 368.2,302.6 369.7,301.9 371.1,302.0 372.5,299.1 374.0,298.5 375.4,298.4 376.9,297.9 378.3,297.3 379.7,297.2 381.2,297.5 382.6,299.1 384.1,299.1 385.5,299.7 387.0,297.8 388.4,298.3 389.8,298.0 391.3,298.1 392.7,297.5 394.2,297.0 395.6,297.0 397.0,297.5 398.5,296.5 399.9,296.4 401.4,295.9 402.8,296.2 404.2,295.8 405.7,296.9 407.1,296.0 408.6,296.8 410.0,296.8 411.4,297.0 412.9,296.1 414.3,295.0 415.8,295.0 417.2,294.2 418.6,293.7 420.1,293.3 421.5,293.3 423.0,292.8 424.4,292.1 425.8,292.8 427.3,292.9 428.7,292.3 430.2,292.0 431.6,292.3 433.0,292.1 434.5,292.6 435.9,292.2 437.4,291.6 438.8,291.7 440.2,291.5 441.7,291.5 443.1,290.6 444.6,290.6 446.0,290.2 447.4,290.2 448.9,290.5 450.3,290.6 451.8,291.0 453.2,292.6 454.6,291.1 456.1,291.6 457.5,290.9 459.0,291.0 460.4,290.2 461.8,290.4 463.3,289.3 464.7,288.9 466.2,288.9 467.6,289.2 469.0,289.2 470.5,289.8 471.9,290.0 473.4,290.4 474.8,288.9 476.3,289.3 477.7,288.9 479.1,288.7 480.6,288.3 482.0,288.9 483.5,289.7 484.9,289.1 486.3,288.3 487.8,288.6 489.2,288.3 490.7,288.1 492.1,287.8 493.5,286.9 495.0,287.0 496.4,286.4 497.9,286.5 499.3,286.7 500.7,286.2 502.2,285.7 503.6,285.2 505.1,285.7 506.5,286.1 507.9,286.6 509.4,286.0 510.8,285.7 512.3,285.3 513.7,284.9 515.1,284.8 516.6,284.8 518.0,284.4 519.5,284.8 520.9,284.2 522.3,284.5 523.8,287.4 525.2,285.8 526.7,285.9 528.1,285.4 529.5,286.1 531.0,285.5 532.4,284.4 533.9,284.4 535.3,285.0 536.7,284.4 538.2,283.5 539.6,282.2 541.1,281.9 542.5,281.9 543.9,283.1 545.4,282.7 546.8,282.5 548.3,283.8 549.7,283.4 551.1,284.6 552.6,284.5 554.0,282.8 555.5,282.6 556.9,282.5 558.3,284.3 559.8,284.3 561.2,285.3 562.7,286.2 564.1,285.8 565.5,287.4 567.0,286.4 568.4,284.9 569.9,283.8 571.3,283.1 572.8,282.5 574.2,283.0 575.6,282.8 577.1,282.4 578.5,282.4 580.0,282.1 581.4,282.5 582.8,282.6 584.3,281.8 585.7,281.6 587.2,282.8 588.6,282.9 590.0,283.2 591.5,284.4 592.9,283.6 594.4,282.6 595.8,282.0 597.2,281.5 598.7,281.1 600.1,281.1 601.6,281.5 603.0,281.6 604.4,282.4 605.9,282.2 607.3,281.5 608.8,280.8 610.2,281.2 611.6,281.2 613.1,280.5 614.5,280.3 616.0,280.5 617.4,281.1 618.8,280.8 620.3,280.9 621.7,283.1 623.2,281.9 624.6,281.3 626.0,281.3 627.5,280.7 628.9,280.3 630.4,280.3 631.8,280.5 633.2,280.8 634.7,280.3 636.1,281.2 637.6,281.7 639.0,283.1 640.4,281.0 641.9,280.5 643.3,280.8 644.8,280.8 646.2,282.5 647.6,282.5 649.1,282.3 650.5,281.7 652.0,282.0 653.4,281.2 654.8,282.4 656.3,281.6 657.7,280.6 659.2,281.2 660.6,281.8 662.1,281.7 663.5,282.7 664.9,281.9 666.4,282.5 667.8,284.0 669.3,283.0 670.7,283.2 672.1,283.3 673.6,285.0 675.0,285.6 676.5,284.5 677.9,284.2 679.3,285.7 680.8,286.0 682.2,287.5 683.7,286.4 685.1,286.7 686.5,286.2 688.0,288.0 689.4,289.8 690.9,290.2 692.3,287.2 693.7,286.4 695.2,286.3 696.6,285.8 698.1,285.8 699.5,283.1 700.9,282.4 702.4,282.5 703.8,281.5 705.3,280.1 706.7,279.2 708.1,279.0 709.6,277.6 711.0,277.8 712.5,278.6 713.9,277.4 715.3,277.9 716.8,277.0 718.2,276.8 719.7,277.3 721.1,277.4 722.5,276.2 724.0,275.9 725.4,276.3 726.9,275.4 728.3,273.8 729.7,274.1 731.2,273.2 732.6,272.9 734.1,273.1 735.5,272.4 736.9,271.5 738.4,272.9 739.8,273.0 741.3,273.8 742.7,272.6 744.1,272.4 745.6,271.9 747.0,271.1 748.5,271.1 749.9,270.4 751.4,270.1 752.8,269.8 754.2,269.6 755.7,270.5 757.1,270.0 758.6,273.2 760.0,272.9 761.4,273.3 762.9,275.1 764.3,273.2 765.8,272.5 767.2,270.4 768.6,271.1 770.1,272.6 771.5,271.4 773.0,271.8 774.4,273.5 775.8,273.6 777.3,273.4 778.7,274.3 780.2,272.3 781.6,271.4 783.0,271.6 784.5,271.7 785.9,270.7 787.4,271.2 788.8,271.6 790.2,270.6 791.7,270.1 793.1,271.0 794.6,270.6 796.0,270.1"/>
<text x="60" y="392" font-size="11" fill="#2563eb">Price + splits</text><text x="160" y="392" font-size="11" fill="#16a34a">Total return</text><text x="250" y="392" font-size="11" fill="#64748b">SPY total return</text><text x="60" y="362" font-size="11" text-anchor="middle" fill="#64748b">2024-06</text><text x="244" y="362" font-size="11" text-anchor="middle" fill="#64748b">2024-12</text><text x="429" y="362" font-size="11" text-anchor="middle" fill="#64748b">2025-07</text><text x="613" y="362" font-size="11" text-anchor="middle" fill="#64748b">2026-01</text><text x="796" y="362" font-size="11" text-anchor="middle" fill="#64748b">2026-07</text></svg>