<svg xmlns="http://www.w3.org/2000/svg" width="720" height="360" viewBox="0 0 720 360">
  <rect width="720" height="360" fill="#fafafa"/>
  <text x="56" y="22" font-size="13" font-family="sans-serif" fill="#222">LB total return (rebased 100) · cumulative distributions $0.48/sh · market cap $2037.5M</text>
  <line x1="56" y1="308" x2="696" y2="308" stroke="#ccc"/>
  <line x1="56" y1="48" x2="56" y2="308" stroke="#ccc"/>
  <polyline fill="none" stroke="#2563eb" stroke-width="2" points="56.0,289.4 57.3,290.1 58.6,284.9 59.9,286.3 61.2,270.2 62.5,276.4 63.9,274.5 65.2,272.2 66.5,265.2 67.8,262.1 69.1,260.7 70.4,268.4 71.7,275.1 73.0,270.4 74.3,269.0 75.6,266.5 76.9,271.2 78.2,266.7 79.6,266.5 80.9,264.4 82.2,257.7 83.5,260.6 84.8,254.2 86.1,257.4 87.4,258.2 88.7,264.8 90.0,259.2 91.3,256.7 92.6,257.3 94.0,255.5 95.3,251.3 96.6,253.0 97.9,251.5 99.2,251.1 100.5,244.0 101.8,243.2 103.1,239.3 104.4,237.5 105.7,228.9 107.0,221.7 108.4,234.3 109.7,240.4 111.0,238.3 112.3,240.5 113.6,239.6 114.9,249.5 116.2,248.2 117.5,246.8 118.8,247.9 120.1,246.0 121.4,253.8 122.7,248.5 124.1,241.4 125.4,236.2 126.7,238.1 128.0,235.1 129.3,236.8 130.6,233.0 131.9,233.8 133.2,225.0 134.5,220.0 135.8,224.7 137.1,229.5 138.5,229.8 139.8,232.2 141.1,214.3 142.4,216.2 143.7,215.7 145.0,208.8 146.3,208.2 147.6,208.3 148.9,202.6 150.2,204.0 151.5,196.7 152.9,187.7 154.2,188.3 155.5,188.7 156.8,183.4 158.1,176.5 159.4,178.8 160.7,186.1 162.0,183.6 163.3,179.1 164.6,185.3 165.9,180.7 167.2,179.5 168.6,174.6 169.9,171.4 171.2,170.7 172.5,171.1 173.8,155.4 175.1,151.9 176.4,126.4 177.7,101.9 179.0,131.7 180.3,121.4 181.6,119.4 183.0,137.4 184.3,125.7 185.6,133.4 186.9,144.5 188.2,135.6 189.5,130.7 190.8,94.9 192.1,109.0 193.4,100.6 194.7,89.0 196.0,100.1 197.3,111.6 198.7,104.3 200.0,119.8 201.3,126.5 202.6,142.7 203.9,149.2 205.2,146.6 206.5,147.7 207.8,157.0 209.1,156.6 210.4,160.4 211.7,166.0 213.1,180.8 214.4,176.2 215.7,163.6 217.0,162.7 218.3,154.0 219.6,144.2 220.9,140.2 222.2,138.8 223.5,141.0 224.8,140.2 226.1,121.6 227.5,109.8 228.8,112.7 230.1,114.6 231.4,108.4 232.7,120.6 234.0,111.8 235.3,106.2 236.6,102.7 237.9,104.6 239.2,76.1 240.5,85.6 241.8,84.1 243.2,94.1 244.5,142.4 245.8,143.0 247.1,128.4 248.4,138.7 249.7,140.0 251.0,139.6 252.3,139.1 253.6,122.6 254.9,133.5 256.2,138.0 257.6,109.3 258.9,117.4 260.2,122.0 261.5,123.4 262.8,121.6 264.1,113.0 265.4,109.8 266.7,113.0 268.0,138.8 269.3,138.2 270.6,152.5 272.0,140.5 273.3,139.9 274.6,124.6 275.9,143.2 277.2,138.7 278.5,137.7 279.8,152.0 281.1,129.8 282.4,129.9 283.7,128.0 285.0,124.4 286.3,130.8 287.7,112.4 289.0,108.5 290.3,113.2 291.6,85.1 292.9,87.0 294.2,96.4 295.5,80.1 296.8,88.7 298.1,91.1 299.4,99.2 300.7,122.7 302.1,114.7 303.4,112.2 304.7,105.4 306.0,134.6 307.3,158.7 308.6,150.6 309.9,155.7 311.2,128.8 312.5,147.2 313.8,137.1 315.1,129.1 316.4,132.2 317.8,130.0 319.1,125.0 320.4,138.1 321.7,127.7 323.0,121.7 324.3,115.1 325.6,114.5 326.9,106.7 328.2,106.3 329.5,112.8 330.8,103.9 332.2,91.4 333.5,97.6 334.8,92.7 336.1,93.0 337.4,124.8 338.7,121.0 340.0,111.4 341.3,89.6 342.6,91.4 343.9,84.7 345.2,69.7 346.6,70.1 347.9,72.9 349.2,83.8 350.5,92.7 351.8,91.5 353.1,99.8 354.4,99.6 355.7,106.8 357.0,116.4 358.3,111.3 359.6,112.1 360.9,113.3 362.3,114.8 363.6,109.5 364.9,110.9 366.2,109.9 367.5,118.8 368.8,110.6 370.1,112.7 371.4,119.4 372.7,120.1 374.0,118.1 375.3,125.8 376.7,132.3 378.0,124.7 379.3,135.2 380.6,130.5 381.9,130.3 383.2,130.3 384.5,134.6 385.8,131.7 387.1,132.8 388.4,142.0 389.7,145.3 391.1,151.5 392.4,148.1 393.7,158.5 395.0,160.4 396.3,168.2 397.6,172.1 398.9,172.1 400.2,172.5 401.5,177.4 402.8,184.8 404.1,183.2 405.4,179.8 406.8,170.2 408.1,175.8 409.4,165.1 410.7,165.3 412.0,169.3 413.3,173.9 414.6,164.8 415.9,160.8 417.2,159.8 418.5,190.2 419.8,187.7 421.2,188.9 422.5,185.0 423.8,185.6 425.1,180.2 426.4,187.8 427.7,184.3 429.0,179.8 430.3,180.1 431.6,182.3 432.9,178.6 434.2,185.7 435.6,183.9 436.9,186.6 438.2,184.2 439.5,182.0 440.8,175.0 442.1,182.0 443.4,178.3 444.7,185.8 446.0,188.9 447.3,189.8 448.6,184.6 449.9,186.9 451.3,181.1 452.6,187.7 453.9,185.6 455.2,186.5 456.5,184.1 457.8,188.4 459.1,185.4 460.4,167.3 461.7,177.3 463.0,177.6 464.3,176.9 465.7,183.0 467.0,181.2 468.3,173.3 469.6,169.6 470.9,169.4 472.2,167.9 473.5,177.4 474.8,178.6 476.1,182.1 477.4,197.3 478.7,186.8 480.0,187.8 481.4,182.0 482.7,181.3 484.0,178.8 485.3,172.4 486.6,169.6 487.9,169.0 489.2,158.2 490.5,159.1 491.8,158.8 493.1,157.4 494.4,156.9 495.8,160.1 497.1,160.4 498.4,154.0 499.7,161.0 501.0,153.0 502.3,135.1 503.6,124.6 504.9,103.7 506.2,65.9 507.5,80.4 508.8,110.5 510.2,105.4 511.5,150.7 512.8,150.2 514.1,140.8 515.4,158.4 516.7,166.7 518.0,169.3 519.3,171.4 520.6,168.9 521.9,168.3 523.2,172.6 524.5,174.7 525.9,155.6 527.2,159.8 528.5,158.9 529.8,166.1 531.1,169.1 532.4,169.5 533.7,170.0 535.0,174.6 536.3,184.9 537.6,191.6 538.9,182.2 540.3,183.9 541.6,184.3 542.9,180.7 544.2,182.6 545.5,182.1 546.8,186.2 548.1,188.0 549.4,192.4 550.7,196.9 552.0,198.8 553.3,205.2 554.7,209.2 556.0,214.0 557.3,203.6 558.6,191.5 559.9,186.1 561.2,174.0 562.5,163.6 563.8,158.3 565.1,154.9 566.4,167.4 567.7,162.8 569.0,158.3 570.4,155.7 571.7,168.0 573.0,170.2 574.3,162.6 575.6,158.5 576.9,166.5 578.2,177.8 579.5,178.5 580.8,173.6 582.1,176.8 583.4,169.2 584.8,168.2 586.1,163.7 587.4,150.6 588.7,158.6 590.0,138.6 591.3,143.4 592.6,147.6 593.9,132.7 595.2,126.9 596.5,134.3 597.8,135.9 599.1,137.8 600.5,105.7 601.8,105.5 603.1,107.3 604.4,109.7 605.7,105.5 607.0,105.4 608.3,113.1 609.6,109.9 610.9,119.0 612.2,119.1 613.5,111.9 614.9,104.5 616.2,117.5 617.5,95.1 618.8,94.2 620.1,117.9 621.4,118.2 622.7,113.3 624.0,113.1 625.3,114.4 626.6,111.7 627.9,114.4 629.3,128.7 630.6,125.0 631.9,135.3 633.2,124.4 634.5,127.5 635.8,116.7 637.1,126.4 638.4,143.5 639.7,128.7 641.0,130.7 642.3,135.7 643.6,130.2 645.0,123.6 646.3,131.5 647.6,129.7 648.9,133.3 650.2,129.4 651.5,122.8 652.8,127.7 654.1,124.8 655.4,129.0 656.7,126.3 658.0,126.2 659.4,135.7 660.7,139.3 662.0,135.4 663.3,135.9 664.6,143.2 665.9,139.6 667.2,131.5 668.5,128.8 669.8,131.1 671.1,130.6 672.4,122.7 673.8,113.4 675.1,101.3 676.4,100.8 677.7,99.8 679.0,90.7 680.3,107.6 681.6,113.6 682.9,102.9 684.2,121.0 685.5,120.3 686.8,110.2 688.1,100.4 689.5,106.3 690.8,120.6 692.1,122.8 693.4,128.9 694.7,136.4 696.0,132.6"/>
  <polyline fill="none" stroke="#16a34a" stroke-width="2" points="56.0,289.4 57.3,290.1 58.6,284.9 59.9,286.3 61.2,270.2 62.5,276.4 63.9,274.5 65.2,272.2 66.5,265.2 67.8,262.1 69.1,260.7 70.4,268.4 71.7,275.1 73.0,270.4 74.3,269.0 75.6,266.5 76.9,271.2 78.2,266.7 79.6,266.5 80.9,264.4 82.2,257.7 83.5,260.6 84.8,254.2 86.1,257.4 87.4,258.2 88.7,264.8 90.0,259.2 91.3,256.7 92.6,257.3 94.0,255.5 95.3,251.3 96.6,253.0 97.9,251.5 99.2,251.1 100.5,244.0 101.8,243.2 103.1,239.3 104.4,237.5 105.7,228.9 107.0,221.7 108.4,234.3 109.7,240.4 111.0,238.3 112.3,240.5 113.6,239.6 114.9,249.5 116.2,248.2 117.5,246.8 118.8,247.9 120.1,246.0 121.4,253.8 122.7,248.5 124.1,241.4 125.4,236.2 126.7,238.1 128.0,235.1 129.3,236.8 130.6,233.0 131.9,233.8 133.2,225.0 134.5,220.0 135.8,224.7 137.1,229.5 138.5,229.8 139.8,232.2 141.1,214.3 142.4,216.2 143.7,215.7 145.0,208.8 146.3,208.2 147.6,208.3 148.9,202.6 150.2,204.0 151.5,196.7 152.9,187.7 154.2,188.3 155.5,188.7 156.8,183.4 158.1,176.5 159.4,178.8 160.7,186.1 162.0,183.6 163.3,179.1 164.6,185.3 165.9,180.7 167.2,179.5 168.6,174.6 169.9,171.4 171.2,170.7 172.5,171.1 173.8,155.4 175.1,151.9 176.4,126.4 177.7,101.9 179.0,131.7 180.3,121.4 181.6,119.4 183.0,137.4 184.3,125.7 185.6,133.4 186.9,144.5 188.2,135.6 189.5,130.7 190.8,94.9 192.1,109.0 193.4,100.6 194.7,89.0 196.0,100.1 197.3,111.6 198.7,104.3 200.0,119.8 201.3,126.5 202.6,142.7 203.9,149.2 205.2,146.6 206.5,147.7 207.8,157.0 209.1,156.6 210.4,160.4 211.7,166.0 213.1,180.8 214.4,176.2 215.7,163.6 217.0,162.7 218.3,154.0 219.6,144.2 220.9,140.2 222.2,138.8 223.5,141.0 224.8,140.2 226.1,121.6 227.5,109.8 228.8,112.7 230.1,114.6 231.4,108.4 232.7,120.6 234.0,111.8 235.3,106.2 236.6,102.7 237.9,104.6 239.2,76.1 240.5,85.6 241.8,84.1 243.2,94.1 244.5,142.4 245.8,143.0 247.1,128.4 248.4,138.7 249.7,140.0 251.0,139.6 252.3,139.1 253.6,122.6 254.9,133.5 256.2,138.0 257.6,109.3 258.9,117.4 260.2,122.0 261.5,123.4 262.8,121.6 264.1,113.0 265.4,109.8 266.7,113.0 268.0,138.8 269.3,138.2 270.6,152.5 272.0,140.5 273.3,139.9 274.6,124.6 275.9,143.2 277.2,138.7 278.5,137.7 279.8,152.0 281.1,129.8 282.4,129.9 283.7,128.0 285.0,124.4 286.3,130.8 287.7,112.4 289.0,108.5 290.3,113.2 291.6,85.1 292.9,87.0 294.2,96.4 295.5,80.1 296.8,88.7 298.1,91.1 299.4,99.2 300.7,122.7 302.1,114.7 303.4,112.2 304.7,105.4 306.0,134.6 307.3,158.7 308.6,150.6 309.9,155.7 311.2,128.8 312.5,147.2 313.8,137.1 315.1,129.1 316.4,132.2 317.8,130.0 319.1,125.0 320.4,138.1 321.7,127.7 323.0,121.7 324.3,115.1 325.6,114.5 326.9,106.7 328.2,106.3 329.5,112.8 330.8,103.9 332.2,91.4 333.5,97.6 334.8,92.7 336.1,93.0 337.4,124.8 338.7,121.0 340.0,111.4 341.3,89.6 342.6,91.4 343.9,84.7 345.2,69.7 346.6,70.1 347.9,72.9 349.2,83.8 350.5,92.7 351.8,91.5 353.1,99.8 354.4,99.6 355.7,106.8 357.0,116.4 358.3,111.3 359.6,112.1 360.9,113.3 362.3,114.8 363.6,109.5 364.9,110.9 366.2,109.9 367.5,118.8 368.8,110.6 370.1,112.7 371.4,119.4 372.7,120.1 374.0,118.1 375.3,125.8 376.7,132.3 378.0,124.7 379.3,135.2 380.6,130.5 381.9,130.3 383.2,130.3 384.5,134.6 385.8,131.7 387.1,132.8 388.4,142.0 389.7,145.3 391.1,151.5 392.4,148.1 393.7,158.5 395.0,160.4 396.3,168.2 397.6,172.1 398.9,172.1 400.2,172.5 401.5,177.4 402.8,184.8 404.1,183.2 405.4,179.8 406.8,170.2 408.1,175.8 409.4,165.1 410.7,165.3 412.0,169.3 413.3,173.9 414.6,164.8 415.9,160.8 417.2,159.8 418.5,190.2 419.8,187.7 421.2,188.9 422.5,185.0 423.8,185.6 425.1,180.2 426.4,187.8 427.7,184.3 429.0,179.8 430.3,180.1 431.6,182.3 432.9,178.6 434.2,185.7 435.6,183.9 436.9,186.6 438.2,184.2 439.5,182.0 440.8,175.0 442.1,182.0 443.4,178.3 444.7,185.8 446.0,188.9 447.3,189.8 448.6,184.6 449.9,186.9 451.3,181.1 452.6,187.7 453.9,185.6 455.2,186.5 456.5,184.1 457.8,188.4 459.1,185.4 460.4,167.3 461.7,177.3 463.0,177.6 464.3,176.9 465.7,183.0 467.0,181.2 468.3,173.3 469.6,169.6 470.9,169.4 472.2,167.9 473.5,177.4 474.8,178.6 476.1,182.1 477.4,197.3 478.7,186.8 480.0,187.8 481.4,182.0 482.7,181.3 484.0,178.8 485.3,172.4 486.6,169.6 487.9,169.0 489.2,158.2 490.5,159.1 491.8,158.8 493.1,157.4 494.4,156.9 495.8,160.1 497.1,160.4 498.4,154.0 499.7,161.0 501.0,153.0 502.3,135.1 503.6,124.6 504.9,103.7 506.2,65.9 507.5,80.4 508.8,110.5 510.2,105.4 511.5,150.7 512.8,150.2 514.1,140.8 515.4,158.4 516.7,166.7 518.0,169.3 519.3,171.4 520.6,168.9 521.9,168.3 523.2,172.6 524.5,174.7 525.9,155.6 527.2,159.8 528.5,158.9 529.8,166.1 531.1,169.1 532.4,169.5 533.7,170.0 535.0,174.6 536.3,184.9 537.6,191.6 538.9,182.2 540.3,183.9 541.6,184.3 542.9,180.7 544.2,182.6 545.5,182.1 546.8,186.2 548.1,188.0 549.4,192.4 550.7,196.9 552.0,198.8 553.3,205.2 554.7,209.2 556.0,214.0 557.3,203.6 558.6,191.5 559.9,186.1 561.2,174.0 562.5,163.6 563.8,158.3 565.1,154.9 566.4,167.4 567.7,162.8 569.0,158.3 570.4,155.7 571.7,168.0 573.0,170.2 574.3,162.6 575.6,158.5 576.9,166.5 578.2,177.8 579.5,178.5 580.8,173.6 582.1,176.8 583.4,169.2 584.8,168.2 586.1,163.7 587.4,150.6 588.7,158.6 590.0,138.6 591.3,143.4 592.6,147.6 593.9,132.7 595.2,126.9 596.5,134.3 597.8,135.9 599.1,137.8 600.5,105.7 601.8,105.5 603.1,107.3 604.4,109.7 605.7,105.5 607.0,105.4 608.3,113.1 609.6,109.9 610.9,119.0 612.2,119.1 613.5,111.9 614.9,104.5 616.2,117.5 617.5,95.1 618.8,94.2 620.1,117.9 621.4,118.2 622.7,113.3 624.0,113.1 625.3,114.4 626.6,111.7 627.9,114.4 629.3,128.7 630.6,125.0 631.9,135.3 633.2,124.4 634.5,127.5 635.8,116.7 637.1,126.4 638.4,143.5 639.7,128.7 641.0,130.7 642.3,135.7 643.6,130.2 645.0,123.6 646.3,131.5 647.6,129.7 648.9,133.3 650.2,129.4 651.5,122.8 652.8,127.7 654.1,124.8 655.4,129.0 656.7,126.3 658.0,126.2 659.4,135.7 660.7,139.3 662.0,135.4 663.3,135.9 664.6,143.2 665.9,139.6 667.2,131.5 668.5,128.8 669.8,131.1 671.1,130.6 672.4,122.7 673.8,113.4 675.1,101.3 676.4,100.8 677.7,99.8 679.0,90.7 680.3,107.6 681.6,113.6 682.9,102.9 684.2,121.0 685.5,120.3 686.8,110.2 688.1,100.4 689.5,106.3 690.8,120.6 692.1,122.8 693.4,128.9 694.7,136.4 696.0,130.9"/>
  <text x="60" y="62" font-size="11" fill="#2563eb">Price index</text>
  <text x="146" y="62" font-size="11" fill="#16a34a">Total return (price + distributions)</text>
  <text x="56" y="348" font-size="11" text-anchor="middle" fill="#444">2024-06</text><text x="216" y="348" font-size="11" text-anchor="middle" fill="#444">2024-12</text><text x="377" y="348" font-size="11" text-anchor="middle" fill="#444">2025-06</text><text x="536" y="348" font-size="11" text-anchor="middle" fill="#444">2025-12</text><text x="696" y="348" font-size="11" text-anchor="middle" fill="#444">2026-06</text>
</svg>
