<svg xmlns="http://www.w3.org/2000/svg" width="720" height="360" viewBox="0 0 720 360">
  <rect width="720" height="360" fill="#fafafa"/>
  <text x="56" y="22" font-size="13" font-family="sans-serif" fill="#222">ICE total return (rebased 100) · cumulative distributions $0.00/sh · market cap n/a</text>
  <line x1="56" y1="308" x2="696" y2="308" stroke="#ccc"/>
  <line x1="56" y1="48" x2="56" y2="308" stroke="#ccc"/>
  <polyline fill="none" stroke="#2563eb" stroke-width="2" points="56.0,289.3 58.7,288.4 61.4,285.3 64.0,282.9 66.7,279.4 69.4,276.9 72.1,271.0 74.7,265.8 77.4,273.2 80.1,271.9 82.8,267.3 85.5,266.5 88.1,265.7 90.8,267.0 93.5,265.5 96.2,258.7 98.8,261.6 101.5,255.0 104.2,268.8 106.9,271.1 109.6,271.0 112.2,264.6 114.9,269.0 117.6,275.3 120.3,278.9 122.9,282.0 125.6,283.9 128.3,282.6 131.0,285.7 133.7,283.4 136.3,290.0 139.0,290.1 141.7,285.5 144.4,282.1 147.0,276.9 149.7,275.2 152.4,280.4 155.1,280.5 157.8,279.6 160.4,278.8 163.1,277.1 165.8,275.7 168.5,280.1 171.1,277.0 173.8,275.8 176.5,274.6 179.2,274.7 181.9,275.5 184.5,277.4 187.2,280.0 189.9,277.7 192.6,275.1 195.2,275.6 197.9,273.9 200.6,273.6 203.3,271.6 206.0,272.8 208.6,273.6 211.3,273.6 214.0,272.5 216.7,272.9 219.3,274.3 222.0,274.2 224.7,271.2 227.4,273.3 230.1,273.6 232.7,275.2 235.4,269.1 238.1,269.2 240.8,270.4 243.4,273.1 246.1,269.6 248.8,270.8 251.5,269.4 254.2,270.3 256.8,270.9 259.5,270.6 262.2,272.7 264.9,268.9 267.5,264.7 270.2,262.6 272.9,262.6 275.6,260.5 278.3,258.8 280.9,257.6 283.6,258.3 286.3,257.9 289.0,254.9 291.6,249.6 294.3,246.6 297.0,250.8 299.7,250.8 302.4,253.6 305.0,251.9 307.7,254.0 310.4,255.9 313.1,255.1 315.7,255.9 318.4,254.3 321.1,250.9 323.8,246.3 326.5,248.1 329.1,251.6 331.8,243.9 334.5,244.5 337.2,246.7 339.8,243.6 342.5,247.0 345.2,245.8 347.9,245.7 350.6,244.0 353.2,239.5 355.9,237.6 358.6,238.5 361.3,236.6 363.9,243.1 366.6,244.0 369.3,242.7 372.0,234.7 374.7,238.6 377.3,236.5 380.0,231.9 382.7,235.1 385.4,234.9 388.1,233.2 390.7,231.8 393.4,229.3 396.1,230.9 398.8,227.4 401.4,227.0 404.1,227.0 406.8,219.6 409.5,218.5 412.2,221.2 414.8,216.0 417.5,219.3 420.2,212.4 422.9,213.6 425.5,209.3 428.2,210.3 430.9,211.0 433.6,211.1 436.3,213.1 438.9,209.7 441.6,209.2 444.3,206.2 447.0,208.0 449.6,205.2 452.3,199.2 455.0,207.4 457.7,205.6 460.4,205.1 463.0,206.4 465.7,199.6 468.4,198.5 471.1,193.7 473.7,191.2 476.4,184.0 479.1,185.5 481.8,182.9 484.5,183.1 487.1,185.2 489.8,175.9 492.5,189.5 495.2,200.4 497.8,189.2 500.5,179.1 503.2,186.4 505.9,179.7 508.6,167.5 511.2,175.5 513.9,182.8 516.6,168.4 519.3,155.8 521.9,162.2 524.6,162.2 527.3,160.4 530.0,152.7 532.7,158.9 535.3,151.4 538.0,149.9 540.7,150.3 543.4,156.4 546.0,125.8 548.7,135.8 551.4,128.0 554.1,141.1 556.8,139.2 559.4,134.0 562.1,155.1 564.8,172.4 567.5,183.2 570.1,173.0 572.8,174.4 575.5,188.0 578.2,181.3 580.9,164.8 583.5,172.2 586.2,165.8 588.9,173.2 591.6,170.0 594.2,164.0 596.9,167.8 599.6,158.6 602.3,156.4 605.0,152.3 607.6,162.6 610.3,165.9 613.0,157.7 615.7,138.8 618.3,140.2 621.0,125.9 623.7,127.2 626.4,138.4 629.1,131.7 631.7,127.9 634.4,108.9 637.1,96.0 639.8,97.2 642.4,103.3 645.1,96.8 647.8,112.2 650.5,98.2 653.2,80.9 655.8,81.9 658.5,87.7 661.2,72.4 663.9,67.7 666.5,65.9 669.2,76.6 671.9,87.1 674.6,115.7 677.3,101.5 679.9,95.5 682.6,80.2 685.3,92.7 688.0,101.5 690.6,100.5 693.3,113.7 696.0,124.3"/>
  <polyline fill="none" stroke="#16a34a" stroke-width="2" points="56.0,289.3 58.7,288.4 61.4,285.3 64.0,282.9 66.7,279.4 69.4,276.9 72.1,271.0 74.7,265.8 77.4,273.2 80.1,271.9 82.8,267.3 85.5,266.5 88.1,265.7 90.8,267.0 93.5,265.5 96.2,258.7 98.8,261.6 101.5,255.0 104.2,268.8 106.9,271.1 109.6,271.0 112.2,264.6 114.9,269.0 117.6,275.3 120.3,278.9 122.9,282.0 125.6,283.9 128.3,282.6 131.0,285.7 133.7,283.4 136.3,290.0 139.0,290.1 141.7,285.5 144.4,282.1 147.0,276.9 149.7,275.2 152.4,280.4 155.1,280.5 157.8,279.6 160.4,278.8 163.1,277.1 165.8,275.7 168.5,280.1 171.1,277.0 173.8,275.8 176.5,274.6 179.2,274.7 181.9,275.5 184.5,277.4 187.2,280.0 189.9,277.7 192.6,275.1 195.2,275.6 197.9,273.9 200.6,273.6 203.3,271.6 206.0,272.8 208.6,273.6 211.3,273.6 214.0,272.5 216.7,272.9 219.3,274.3 222.0,274.2 224.7,271.2 227.4,273.3 230.1,273.6 232.7,275.2 235.4,269.1 238.1,269.2 240.8,270.4 243.4,273.1 246.1,269.6 248.8,270.8 251.5,269.4 254.2,270.3 256.8,270.9 259.5,270.6 262.2,272.7 264.9,268.9 267.5,264.7 270.2,262.6 272.9,262.6 275.6,260.5 278.3,258.8 280.9,257.6 283.6,258.3 286.3,257.9 289.0,254.9 291.6,249.6 294.3,246.6 297.0,250.8 299.7,250.8 302.4,253.6 305.0,251.9 307.7,254.0 310.4,255.9 313.1,255.1 315.7,255.9 318.4,254.3 321.1,250.9 323.8,246.3 326.5,248.1 329.1,251.6 331.8,243.9 334.5,244.5 337.2,246.7 339.8,243.6 342.5,247.0 345.2,245.8 347.9,245.7 350.6,244.0 353.2,239.5 355.9,237.6 358.6,238.5 361.3,236.6 363.9,243.1 366.6,244.0 369.3,242.7 372.0,234.7 374.7,238.6 377.3,236.5 380.0,231.9 382.7,235.1 385.4,234.9 388.1,233.2 390.7,231.8 393.4,229.3 396.1,230.9 398.8,227.4 401.4,227.0 404.1,227.0 406.8,219.6 409.5,218.5 412.2,221.2 414.8,216.0 417.5,219.3 420.2,212.4 422.9,213.6 425.5,209.3 428.2,210.3 430.9,211.0 433.6,211.1 436.3,213.1 438.9,209.7 441.6,209.2 444.3,206.2 447.0,208.0 449.6,205.2 452.3,199.2 455.0,207.4 457.7,205.6 460.4,205.1 463.0,206.4 465.7,199.6 468.4,198.5 471.1,193.7 473.7,191.2 476.4,184.0 479.1,185.5 481.8,182.9 484.5,183.1 487.1,185.2 489.8,175.9 492.5,189.5 495.2,200.4 497.8,189.2 500.5,179.1 503.2,186.4 505.9,179.7 508.6,167.5 511.2,175.5 513.9,182.8 516.6,168.4 519.3,155.8 521.9,162.2 524.6,162.2 527.3,160.4 530.0,152.7 532.7,158.9 535.3,151.4 538.0,149.9 540.7,150.3 543.4,156.4 546.0,125.8 548.7,135.8 551.4,128.0 554.1,141.1 556.8,139.2 559.4,134.0 562.1,155.1 564.8,172.4 567.5,183.2 570.1,173.0 572.8,174.4 575.5,188.0 578.2,181.3 580.9,164.8 583.5,172.2 586.2,165.8 588.9,173.2 591.6,170.0 594.2,164.0 596.9,167.8 599.6,158.6 602.3,156.4 605.0,152.3 607.6,162.6 610.3,165.9 613.0,157.7 615.7,138.8 618.3,140.2 621.0,125.9 623.7,127.2 626.4,138.4 629.1,131.7 631.7,127.9 634.4,108.9 637.1,96.0 639.8,97.2 642.4,103.3 645.1,96.8 647.8,112.2 650.5,98.2 653.2,80.9 655.8,81.9 658.5,87.7 661.2,72.4 663.9,67.7 666.5,65.9 669.2,76.6 671.9,87.1 674.6,115.7 677.3,101.5 679.9,95.5 682.6,80.2 685.3,92.7 688.0,101.5 690.6,100.5 693.3,113.7 696.0,124.3"/>
  <text x="60" y="62" font-size="11" fill="#2563eb">Price index</text>
  <text x="146" y="62" font-size="11" fill="#16a34a">Total return (price + distributions)</text>
  <text x="56" y="348" font-size="11" text-anchor="middle" fill="#444">2006-07</text><text x="217" y="348" font-size="11" text-anchor="middle" fill="#444">2011-07</text><text x="377" y="348" font-size="11" text-anchor="middle" fill="#444">2016-07</text><text x="538" y="348" font-size="11" text-anchor="middle" fill="#444">2021-07</text><text x="696" y="348" font-size="11" text-anchor="middle" fill="#444">2026-06</text>
</svg>
