<svg xmlns="http://www.w3.org/2000/svg" width="720" height="360" viewBox="0 0 720 360">
  <rect width="720" height="360" fill="#fafafa"/>
  <text x="56" y="22" font-size="13" font-family="sans-serif" fill="#222">HNFSA total return (rebased 100) · cumulative distributions $1.10/sh · market cap $66.5M</text>
  <line x1="56" y1="308" x2="696" y2="308" stroke="#ccc"/>
  <line x1="56" y1="48" x2="56" y2="308" stroke="#ccc"/>
  <polyline fill="none" stroke="#2563eb" stroke-width="2" points="56.0,148.0 58.7,133.0 61.4,138.0 64.0,148.0 66.7,145.5 69.4,140.5 72.1,135.5 74.7,128.0 77.4,125.5 80.1,125.5 82.8,124.9 85.5,120.5 88.1,123.6 90.8,123.0 93.5,124.3 96.2,130.5 98.8,131.1 101.5,131.1 104.2,135.5 106.9,147.6 109.6,162.9 112.2,150.5 114.9,150.5 117.6,168.5 120.3,154.2 122.9,162.0 125.6,166.0 128.3,177.9 131.0,188.3 133.7,197.7 136.3,185.4 139.0,195.3 141.7,204.7 144.4,180.4 147.0,177.9 149.7,175.4 152.4,162.9 155.1,155.4 157.8,152.9 160.4,145.5 163.1,152.9 165.8,140.5 168.5,140.5 171.1,135.5 173.8,135.5 176.5,131.8 179.2,135.9 181.9,142.5 184.5,145.5 187.2,143.0 189.9,145.5 192.6,152.9 195.2,168.5 197.9,171.6 200.6,172.9 203.3,172.9 206.0,165.4 208.6,177.9 211.3,175.4 214.0,179.7 216.7,184.1 219.3,197.2 222.0,185.4 224.7,172.9 227.4,210.3 230.1,210.3 232.7,195.3 235.4,195.3 238.1,195.3 240.8,192.8 243.4,192.8 246.1,182.9 248.8,182.9 251.5,172.9 254.2,146.7 256.8,139.2 259.5,152.9 262.2,162.9 264.9,160.4 267.5,157.9 270.2,161.3 272.9,167.7 275.6,168.0 278.3,165.4 280.9,159.2 283.6,165.4 286.3,170.4 289.0,148.0 291.6,125.5 294.3,120.5 297.0,108.1 299.7,110.5 302.4,90.6 305.0,93.1 307.7,65.9 310.4,89.4 313.1,90.6 315.7,108.1 318.4,118.0 321.1,98.1 323.8,108.1 326.5,128.0 329.1,138.0 331.8,131.9 334.5,128.0 337.2,134.2 339.8,123.0 342.5,137.7 345.2,143.0 347.9,154.2 350.6,153.9 353.2,162.9 355.9,173.4 358.6,176.0 361.3,187.8 363.9,183.5 366.6,182.9 369.3,185.4 372.0,185.3 374.7,184.7 377.3,180.4 380.0,183.2 382.7,194.2 385.4,174.3 388.1,165.4 390.7,160.4 393.4,159.2 396.1,155.4 398.8,152.9 401.4,150.5 404.1,158.6 406.8,157.3 409.5,162.9 412.2,152.9 414.8,165.4 417.5,170.4 420.2,171.5 422.9,155.4 425.5,162.9 428.2,177.8 430.9,177.3 433.6,177.3 436.3,180.2 438.9,180.2 441.6,180.4 444.3,179.1 447.0,177.9 449.6,182.6 452.3,182.9 455.0,190.3 457.7,194.1 460.4,194.0 463.0,192.8 465.7,194.0 468.4,194.0 471.1,192.8 473.7,196.6 476.4,202.8 479.1,210.0 481.8,214.9 484.5,210.8 487.1,230.2 489.8,235.0 492.5,235.0 495.2,260.2 497.8,222.8 500.5,242.7 503.2,232.7 505.9,222.8 508.6,205.3 511.2,197.8 513.9,200.3 516.6,212.8 519.3,207.1 521.9,205.3 524.6,192.8 527.3,197.3 530.0,201.5 532.7,202.8 535.3,202.8 538.0,207.8 540.7,207.8 543.4,242.7 546.0,250.0 548.7,253.9 551.4,255.2 554.1,258.3 556.8,260.2 559.4,260.2 562.1,280.1 564.8,290.1 567.5,285.1 570.1,272.6 572.8,272.6 575.5,270.1 578.2,272.6 580.9,273.3 583.5,273.3 586.2,273.3 588.9,274.0 591.6,274.0 594.2,274.5 596.9,280.8 599.6,280.8 602.3,272.6 605.0,280.1 607.6,281.5 610.3,270.1 613.0,242.7 615.7,235.2 618.3,235.2 621.0,235.9 623.7,235.2 626.4,235.2 629.1,235.9 631.7,240.2 634.4,240.2 637.1,240.2 639.8,240.2 642.4,240.2 645.1,240.2 647.8,251.6 650.5,251.6 653.2,284.8 655.8,222.8 658.5,222.8 661.2,247.7 663.9,277.6 666.5,285.1 669.2,285.1 671.9,285.1 674.6,282.6 677.3,285.1 679.9,285.1 682.6,267.6 685.3,267.6 688.0,272.6 690.6,280.1 693.3,272.6 696.0,272.6"/>
  <polyline fill="none" stroke="#16a34a" stroke-width="2" points="56.0,148.0 58.7,133.0 61.4,138.0 64.0,148.0 66.7,145.5 69.4,140.5 72.1,135.5 74.7,128.0 77.4,125.5 80.1,125.5 82.8,124.9 85.5,120.5 88.1,123.6 90.8,123.0 93.5,124.3 96.2,130.5 98.8,131.1 101.5,131.1 104.2,135.5 106.9,147.6 109.6,162.9 112.2,150.5 114.9,150.5 117.6,168.5 120.3,154.2 122.9,162.0 125.6,166.0 128.3,177.9 131.0,188.3 133.7,197.7 136.3,185.4 139.0,195.3 141.7,204.7 144.4,180.4 147.0,177.9 149.7,175.4 152.4,162.9 155.1,155.4 157.8,152.9 160.4,145.5 163.1,152.9 165.8,140.5 168.5,140.5 171.1,135.5 173.8,135.5 176.5,131.8 179.2,135.9 181.9,142.5 184.5,145.5 187.2,143.0 189.9,145.5 192.6,152.9 195.2,168.5 197.9,171.6 200.6,172.9 203.3,172.9 206.0,165.4 208.6,177.9 211.3,175.4 214.0,179.7 216.7,184.1 219.3,197.2 222.0,185.4 224.7,172.9 227.4,210.3 230.1,210.3 232.7,195.3 235.4,195.3 238.1,195.3 240.8,192.8 243.4,192.8 246.1,182.9 248.8,182.9 251.5,172.9 254.2,146.7 256.8,139.2 259.5,152.9 262.2,162.9 264.9,160.4 267.5,157.9 270.2,161.3 272.9,167.7 275.6,168.0 278.3,165.4 280.9,159.2 283.6,165.4 286.3,170.4 289.0,148.0 291.6,125.5 294.3,120.5 297.0,108.1 299.7,110.5 302.4,90.6 305.0,93.1 307.7,65.9 310.4,89.4 313.1,90.6 315.7,108.1 318.4,118.0 321.1,98.1 323.8,108.1 326.5,128.0 329.1,138.0 331.8,131.9 334.5,128.0 337.2,134.2 339.8,123.0 342.5,137.7 345.2,143.0 347.9,154.2 350.6,153.9 353.2,162.9 355.9,173.4 358.6,176.0 361.3,187.8 363.9,183.5 366.6,182.9 369.3,185.4 372.0,185.3 374.7,184.7 377.3,180.4 380.0,183.2 382.7,194.2 385.4,174.3 388.1,165.4 390.7,160.4 393.4,159.2 396.1,155.4 398.8,152.9 401.4,150.5 404.1,158.6 406.8,157.3 409.5,162.9 412.2,152.9 414.8,165.4 417.5,170.4 420.2,171.5 422.9,155.4 425.5,162.9 428.2,177.8 430.9,177.3 433.6,177.3 436.3,180.2 438.9,180.2 441.6,180.4 444.3,179.1 447.0,177.9 449.6,182.6 452.3,182.9 455.0,190.3 457.7,194.1 460.4,194.0 463.0,192.8 465.7,194.0 468.4,194.0 471.1,192.8 473.7,196.6 476.4,202.8 479.1,210.0 481.8,214.9 484.5,210.8 487.1,230.2 489.8,235.0 492.5,235.0 495.2,260.2 497.8,222.8 500.5,242.7 503.2,232.7 505.9,222.8 508.6,205.3 511.2,197.8 513.9,200.3 516.6,212.8 519.3,207.1 521.9,205.3 524.6,192.8 527.3,197.3 530.0,201.5 532.7,202.8 535.3,202.8 538.0,207.8 540.7,207.8 543.4,242.7 546.0,250.0 548.7,253.9 551.4,255.2 554.1,258.3 556.8,260.2 559.4,260.2 562.1,280.1 564.8,290.1 567.5,285.1 570.1,272.6 572.8,272.6 575.5,270.1 578.2,272.6 580.9,273.3 583.5,273.3 586.2,273.3 588.9,274.0 591.6,274.0 594.2,274.5 596.9,280.8 599.6,280.8 602.3,272.6 605.0,280.1 607.6,281.5 610.3,270.1 613.0,242.7 615.7,235.2 618.3,235.2 621.0,235.9 623.7,235.2 626.4,235.2 629.1,235.9 631.7,240.2 634.4,240.2 637.1,240.2 639.8,240.2 642.4,240.2 645.1,240.2 647.8,251.6 650.5,251.6 653.2,284.8 655.8,222.8 658.5,222.8 661.2,247.7 663.9,277.6 666.5,285.1 669.2,285.1 671.9,285.1 674.6,282.6 677.3,285.1 679.9,285.1 682.6,267.6 685.3,267.6 688.0,272.6 690.6,280.1 693.3,272.6 696.0,272.6"/>
  <text x="60" y="62" font-size="11" fill="#2563eb">Price index</text>
  <text x="146" y="62" font-size="11" fill="#16a34a">Total return (price + distributions)</text>
  <text x="56" y="348" font-size="11" text-anchor="middle" fill="#444">2006-07</text><text x="217" y="348" font-size="11" text-anchor="middle" fill="#444">2011-07</text><text x="377" y="348" font-size="11" text-anchor="middle" fill="#444">2016-07</text><text x="538" y="348" font-size="11" text-anchor="middle" fill="#444">2021-07</text><text x="696" y="348" font-size="11" text-anchor="middle" fill="#444">2026-06</text>
</svg>
