<svg xmlns="http://www.w3.org/2000/svg" width="820" height="410" viewBox="0 0 820 410">
<rect width="820" height="410" fill="#fafafa"/><text x="78" y="22" font-size="14" font-family="sans-serif" fill="#0f172a">CRML cumulative return since 2022-02-07 | dividends reinvested</text>
<text x="78" y="40" font-size="11" font-family="sans-serif" fill="#334155">Total return -38.7% | Price-only -38.7% | logarithmic scale</text>
<text x="78" y="54" font-size="9" font-family="sans-serif" fill="#64748b">Regular $0.00 | Special $0.00 | Other $0.00 per initial share path</text>
<line x1="78" y1="332.0" x2="796" y2="332.0" stroke="#e2e8f0"/><text x="70" y="336.0" font-size="10" text-anchor="end" fill="#64748b">-88.5%</text><line x1="78" y1="287.0" x2="796" y2="287.0" stroke="#e2e8f0"/><text x="70" y="291.0" font-size="10" text-anchor="end" fill="#64748b">-79.6%</text><line x1="78" y1="242.0" x2="796" y2="242.0" stroke="#e2e8f0"/><text x="70" y="246.0" font-size="10" text-anchor="end" fill="#64748b">-63.8%</text><line x1="78" y1="197.0" x2="796" y2="197.0" stroke="#e2e8f0"/><text x="70" y="201.0" font-size="10" text-anchor="end" fill="#64748b">-35.5%</text><line x1="78" y1="162.7" x2="796" y2="162.7" stroke="#e2e8f0"/><text x="70" y="166.7" font-size="10" text-anchor="end" fill="#64748b">0%</text><line x1="78" y1="152.0" x2="796" y2="152.0" stroke="#e2e8f0"/><text x="70" y="156.0" font-size="10" text-anchor="end" fill="#64748b">+14.7%</text><line x1="78" y1="107.0" x2="796" y2="107.0" stroke="#e2e8f0"/><text x="70" y="111.0" font-size="10" text-anchor="end" fill="#64748b">+104.0%</text><line x1="78" y1="62.0" x2="796" y2="62.0" stroke="#e2e8f0"/><text x="70" y="66.0" font-size="10" text-anchor="end" fill="#64748b">+262.9%</text>
<line x1="78" y1="332" x2="796" y2="332" stroke="#cbd5e1"/>
<polyline fill="none" stroke="#2563eb" stroke-width="2" points="78.0,162.7 78.6,162.8 79.3,162.9 79.9,162.9 80.6,162.6 81.2,162.6 81.9,162.6 82.5,162.6 83.1,162.9 83.8,162.9 84.4,162.8 85.1,162.8 85.7,162.8 86.4,162.9 87.0,162.6 87.6,162.6 88.3,162.5 88.9,162.5 89.6,162.5 90.2,162.5 90.9,162.5 91.5,162.5 92.1,162.5 92.8,162.7 93.4,162.6 94.1,162.6 94.7,162.6 95.4,162.6 96.0,162.5 96.6,162.5 97.3,162.5 97.9,162.5 98.6,162.5 99.2,162.6 99.9,162.6 100.5,162.6 101.1,162.6 101.8,162.6 102.4,162.6 103.1,162.5 103.7,162.5 104.4,162.5 105.0,162.5 105.6,162.4 106.3,162.3 106.9,162.4 107.6,162.1 108.2,162.0 108.9,162.0 109.5,162.1 110.1,162.0 110.8,162.0 111.4,162.0 112.1,162.0 112.7,162.0 113.4,162.0 114.0,162.2 114.6,162.1 115.3,162.2 115.9,161.9 116.6,162.1 117.2,162.1 117.9,162.1 118.5,162.2 119.1,162.2 119.8,162.2 120.4,162.4 121.1,162.5 121.7,162.5 122.4,162.5 123.0,162.5 123.6,162.5 124.3,162.5 124.9,162.4 125.6,162.5 126.2,162.5 126.9,162.5 127.5,162.5 128.1,162.4 128.8,162.4 129.4,162.4 130.1,162.4 130.7,162.4 131.4,162.1 132.0,162.3 132.6,162.3 133.3,162.2 133.9,162.2 134.6,162.2 135.2,162.2 135.9,162.3 136.5,162.2 137.1,162.2 137.8,162.2 138.4,162.2 139.1,162.2 139.7,162.2 140.4,162.2 141.0,162.2 141.6,162.3 142.3,162.3 142.9,162.2 143.6,162.2 144.2,162.2 144.9,162.2 145.5,162.2 146.1,162.2 146.8,162.2 147.4,162.2 148.1,162.1 148.7,162.1 149.4,162.1 150.0,162.1 150.6,162.1 151.3,162.1 151.9,162.1 152.6,161.8 153.2,161.8 153.8,161.8 154.5,161.9 155.1,161.9 155.8,161.9 156.4,161.8 157.1,161.8 157.7,161.8 158.3,161.8 159.0,161.8 159.6,161.8 160.3,161.8 160.9,161.8 161.6,161.8 162.2,161.7 162.8,161.8 163.5,161.7 164.1,161.8 164.8,161.7 165.4,161.7 166.1,161.8 166.7,162.1 167.3,162.1 168.0,161.8 168.6,162.1 169.3,161.8 169.9,161.8 170.6,161.8 171.2,161.8 171.8,161.8 172.5,161.8 173.1,161.8 173.8,161.8 174.4,161.7 175.1,161.7 175.7,161.8 176.3,161.8 177.0,161.8 177.6,161.8 178.3,161.7 178.9,161.7 179.6,161.7 180.2,161.7 180.8,161.7 181.5,161.7 182.1,161.7 182.8,161.7 183.4,161.6 184.1,161.6 184.7,161.6 185.3,161.5 186.0,161.6 186.6,161.6 187.3,161.5 187.9,161.5 188.6,161.5 189.2,161.5 189.8,161.4 190.5,161.4 191.1,161.3 191.8,161.3 192.4,161.3 193.1,161.2 193.7,161.3 194.3,161.2 195.0,161.2 195.6,161.2 196.3,161.1 196.9,161.1 197.6,161.1 198.2,161.1 198.8,161.3 199.5,161.2 200.1,161.1 200.8,161.2 201.4,161.1 202.1,161.1 202.7,161.1 203.3,161.2 204.0,161.4 204.6,161.3 205.3,161.3 205.9,161.2 206.6,160.7 207.2,160.7 207.8,160.7 208.5,160.8 209.1,160.8 209.8,160.6 210.4,160.7 211.1,160.3 211.7,160.1 212.3,160.1 213.0,160.1 213.6,160.1 214.3,160.2 214.9,160.4 215.6,160.4 216.2,160.5 216.8,160.3 217.5,160.1 218.1,160.8 218.8,160.3 219.4,160.7 220.1,160.7 220.7,160.7 221.3,160.7 222.0,160.7 222.6,160.7 223.3,160.5 223.9,160.3 224.6,160.3 225.2,160.1 225.8,160.0 226.5,160.0 227.1,160.0 227.8,160.0 228.4,159.9 229.1,159.9 229.7,159.9 230.3,159.9 231.0,159.9 231.6,159.8 232.3,159.7 232.9,159.7 233.6,159.7 234.2,159.5 234.8,159.5 235.5,159.5 236.1,159.3 236.8,159.6 237.4,159.4 238.1,159.4 238.7,159.4 239.3,159.4 240.0,159.3 240.6,159.3 241.3,159.5 241.9,159.2 242.6,159.2 243.2,159.2 243.8,159.2 244.5,159.5 245.1,159.5 245.8,159.4 246.4,159.3 247.1,159.4 247.7,159.3 248.3,159.3 249.0,159.3 249.6,159.1 250.3,159.1 250.9,159.3 251.6,159.3 252.2,159.3 252.8,159.3 253.5,159.3 254.1,159.3 254.8,159.3 255.4,159.3 256.1,159.3 256.7,159.2 257.3,159.2 258.0,159.2 258.6,159.2 259.3,159.1 259.9,159.1 260.6,158.9 261.2,158.8 261.8,158.8 262.5,158.8 263.1,158.6 263.8,158.5 264.4,158.8 265.1,158.6 265.7,158.5 266.3,158.5 267.0,158.5 267.6,158.5 268.3,158.5 268.9,158.5 269.6,158.5 270.2,158.5 270.8,158.5 271.5,158.5 272.1,158.5 272.8,158.5 273.4,158.5 274.1,158.5 274.7,158.4 275.3,158.4 276.0,158.5 276.6,158.3 277.3,158.3 277.9,158.3 278.6,158.3 279.2,158.3 279.8,158.3 280.5,158.1 281.1,158.0 281.8,157.8 282.4,157.8 283.1,158.0 283.7,157.7 284.3,157.7 285.0,157.2 285.6,157.2 286.3,157.2 286.9,157.2 287.6,157.2 288.2,157.2 288.8,157.5 289.5,157.6 290.1,157.3 290.8,157.3 291.4,157.3 292.1,157.2 292.7,157.2 293.3,157.2 294.0,157.2 294.6,157.2 295.3,157.2 295.9,157.2 296.5,157.2 297.2,157.2 297.8,157.2 298.5,157.2 299.1,157.2 299.8,157.1 300.4,157.1 301.0,157.1 301.7,157.0 302.3,157.1 303.0,157.0 303.6,157.0 304.3,157.0 304.9,157.0 305.5,156.8 306.2,156.8 306.8,156.8 307.5,156.8 308.1,156.7 308.8,156.6 309.4,156.6 310.0,156.3 310.7,156.3 311.3,156.3 312.0,155.8 312.6,156.0 313.3,156.0 313.9,156.1 314.5,156.2 315.2,156.2 315.8,156.2 316.5,156.2 317.1,156.2 317.8,156.1 318.4,156.5 319.0,156.2 319.7,156.4 320.3,156.4 321.0,156.4 321.6,156.4 322.3,156.4 322.9,156.4 323.5,156.2 324.2,156.4 324.8,156.3 325.5,156.4 326.1,156.4 326.8,156.3 327.4,156.3 328.0,156.0 328.7,156.1 329.3,156.1 330.0,156.1 330.6,156.1 331.3,156.1 331.9,156.1 332.5,156.0 333.2,156.0 333.8,155.9 334.5,155.9 335.1,155.9 335.8,155.9 336.4,155.5 337.0,155.6 337.7,155.6 338.3,155.6 339.0,155.6 339.6,155.9 340.3,155.9 340.9,155.9 341.5,155.9 342.2,155.9 342.8,155.9 343.5,155.9 344.1,155.9 344.8,155.9 345.4,155.9 346.0,155.9 346.7,155.8 347.3,155.8 348.0,155.8 348.6,155.8 349.3,155.8 349.9,155.8 350.5,155.8 351.2,155.8 351.8,155.8 352.5,155.7 353.1,155.7 353.8,155.7 354.4,155.7 355.0,155.7 355.7,155.7 356.3,155.7 357.0,155.7 357.6,155.6 358.3,155.6 358.9,155.5 359.5,155.5 360.2,155.5 360.8,155.6 361.5,155.6 362.1,155.3 362.8,155.3 363.4,155.4 364.0,155.3 364.7,155.3 365.3,155.1 366.0,155.1 366.6,155.1 367.3,155.2 367.9,155.2 368.5,155.2 369.2,155.1 369.8,155.1 370.5,155.1 371.1,155.1 371.8,155.1 372.4,155.1 373.0,154.9 373.7,155.0 374.3,155.0 375.0,155.1 375.6,155.1 376.3,155.1 376.9,155.1 377.5,155.0 378.2,155.1 378.8,155.4 379.5,155.4 380.1,155.4 380.8,155.4 381.4,155.3 382.0,155.1 382.7,155.1 383.3,154.8 384.0,154.7 384.6,154.7 385.3,154.7 385.9,154.6 386.5,154.6 387.2,154.6 387.8,154.4 388.5,154.4 389.1,154.6 389.8,154.6 390.4,154.6 391.0,154.7 391.7,154.6 392.3,154.8 393.0,154.6 393.6,154.4 394.3,154.4 394.9,154.5 395.5,166.2 396.2,154.6 396.8,153.9 397.5,154.6 398.1,153.5 398.8,154.6 399.4,155.3 400.0,154.1 400.7,154.0 401.3,154.1 402.0,154.1 402.6,155.9 403.3,154.8 403.9,154.1 404.5,186.3 405.2,197.2 405.8,188.0 406.5,148.8 407.1,153.6 407.8,163.0 408.4,160.7 409.0,98.9 409.7,128.0 410.3,145.5 411.0,162.2 411.6,150.7 412.3,153.1 412.9,149.6 413.5,154.8 414.2,178.5 414.8,172.4 415.5,180.9 416.1,186.1 416.8,176.9 417.4,180.5 418.0,181.0 418.7,159.9 419.3,141.5 420.0,147.6 420.6,139.4 421.3,139.8 421.9,143.9 422.5,152.0 423.2,154.8 423.8,148.6 424.5,135.9 425.1,146.0 425.8,142.8 426.4,151.9 427.0,148.2 427.7,147.6 428.3,149.8 429.0,149.0 429.6,154.1 430.3,162.2 430.9,169.6 431.5,184.7 432.2,175.8 432.8,178.7 433.5,170.3 434.1,160.8 434.8,158.5 435.4,153.4 436.0,148.0 436.7,150.0 437.3,158.4 438.0,181.5 438.6,168.2 439.2,162.5 439.9,162.2 440.5,162.2 441.2,171.4 441.8,172.2 442.5,175.9 443.1,173.3 443.7,178.7 444.4,169.6 445.0,168.1 445.7,154.3 446.3,154.7 447.0,148.7 447.6,153.8 448.2,178.6 448.9,162.7 449.5,162.2 450.2,155.1 450.8,154.3 451.5,156.6 452.1,152.8 452.7,157.2 453.4,160.1 454.0,155.7 454.7,160.1 455.3,156.1 456.0,163.0 456.6,160.7 457.2,152.1 457.9,151.1 458.5,152.7 459.2,152.7 459.8,150.6 460.5,151.3 461.1,151.4 461.7,151.3 462.4,151.3 463.0,151.3 463.7,152.9 464.3,159.2 465.0,163.7 465.6,165.2 466.2,164.8 466.9,164.2 467.5,159.4 468.2,154.4 468.8,156.3 469.5,155.5 470.1,159.2 470.7,157.8 471.4,155.6 472.0,159.8 472.7,162.4 473.3,160.8 474.0,162.5 474.6,162.7 475.2,163.9 475.9,161.1 476.5,162.7 477.2,163.9 477.8,161.6 478.5,164.6 479.1,167.2 479.7,172.1 480.4,165.5 481.0,168.5 481.7,162.3 482.3,165.2 483.0,168.4 483.6,167.1 484.2,169.9 484.9,162.5 485.5,162.0 486.2,162.5 486.8,163.4 487.5,164.8 488.1,166.0 488.7,168.7 489.4,172.2 490.0,173.1 490.7,176.6 491.3,173.6 492.0,176.0 492.6,179.2 493.2,180.1 493.9,182.0 494.5,186.3 495.2,193.7 495.8,196.0 496.5,195.6 497.1,189.0 497.7,184.0 498.4,185.2 499.0,185.0 499.7,188.5 500.3,182.5 501.0,190.1 501.6,189.0 502.2,188.7 502.9,195.4 503.5,190.3 504.2,186.9 504.8,185.3 505.5,191.0 506.1,192.4 506.7,193.5 507.4,190.5 508.0,193.2 508.7,191.1 509.3,192.2 510.0,193.5 510.6,191.9 511.2,193.4 511.9,191.7 512.5,189.8 513.2,189.9 513.8,190.1 514.5,192.9 515.1,195.9 515.7,196.6 516.4,195.6 517.0,198.8 517.7,199.2 518.3,198.3 519.0,196.2 519.6,199.8 520.2,198.3 520.9,198.9 521.5,196.4 522.2,190.3 522.8,192.1 523.5,190.5 524.1,190.2 524.7,196.2 525.4,198.7 526.0,201.7 526.7,203.5 527.3,203.3 528.0,201.6 528.6,205.7 529.2,204.0 529.9,199.6 530.5,196.2 531.2,196.4 531.8,193.4 532.5,192.2 533.1,194.3 533.7,182.4 534.4,178.7 535.0,184.0 535.7,184.9 536.3,181.3 537.0,182.8 537.6,185.9 538.2,191.1 538.9,197.7 539.5,196.4 540.2,193.6 540.8,196.4 541.5,200.1 542.1,194.5 542.7,189.2 543.4,192.4 544.0,191.9 544.7,195.0 545.3,192.1 546.0,192.5 546.6,195.3 547.2,192.6 547.9,194.6 548.5,193.5 549.2,193.5 549.8,181.9 550.5,177.3 551.1,177.0 551.7,181.1 552.4,183.9 553.0,174.9 553.7,180.1 554.3,184.1 555.0,186.3 555.6,188.9 556.2,189.4 556.9,179.0 557.5,179.6 558.2,182.1 558.8,182.4 559.5,182.2 560.1,175.4 560.7,172.9 561.4,205.5 562.0,202.8 562.7,197.7 563.3,208.4 564.0,214.4 564.6,223.1 565.2,239.3 565.9,263.1 566.5,245.8 567.2,255.0 567.8,265.4 568.5,267.5 569.1,276.7 569.7,273.7 570.4,283.8 571.0,291.6 571.7,302.1 572.3,277.7 573.0,274.7 573.6,280.5 574.2,287.6 574.9,295.3 575.5,290.4 576.2,282.7 576.8,282.7 577.5,288.8 578.1,294.5 578.7,292.0 579.4,293.6 580.0,294.9 580.7,304.9 581.3,308.7 581.9,314.7 582.6,317.0 583.2,317.0 583.9,315.8 584.5,316.4 585.2,314.7 585.8,302.1 586.4,306.9 587.1,311.5 587.7,304.0 588.4,309.4 589.0,305.9 589.7,308.4 590.3,282.0 590.9,269.0 591.6,282.3 592.2,278.8 592.9,270.9 593.5,277.4 594.2,291.2 594.8,304.9 595.4,301.6 596.1,307.4 596.7,317.5 597.4,313.1 598.0,304.9 598.7,307.9 599.3,301.6 599.9,296.2 600.6,303.5 601.2,306.9 601.9,307.9 602.5,299.8 603.2,306.9 603.8,308.9 604.4,315.8 605.1,312.0 605.7,315.3 606.4,313.1 607.0,315.3 607.7,311.0 608.3,307.4 608.9,308.9 609.6,310.5 610.2,314.7 610.9,316.4 611.5,317.0 612.2,314.7 612.8,315.3 613.4,313.1 614.1,314.7 614.7,317.5 615.4,313.1 616.0,312.6 616.7,315.3 617.3,304.9 617.9,286.8 618.6,255.5 619.2,264.2 619.9,281.2 620.5,270.9 621.2,273.1 621.8,269.3 622.4,262.5 623.1,240.8 623.7,253.2 624.4,242.5 625.0,249.6 625.7,241.6 626.3,244.7 626.9,250.8 627.6,254.7 628.2,260.9 628.9,255.3 629.5,256.3 630.2,256.8 630.8,234.0 631.4,231.9 632.1,227.1 632.7,225.0 633.4,235.6 634.0,233.0 634.7,223.9 635.3,229.4 635.9,227.4 636.6,232.7 637.2,247.0 637.9,247.0 638.5,238.4 639.2,237.6 639.8,238.9 640.4,230.0 641.1,235.2 641.7,229.4 642.4,222.4 643.0,217.6 643.7,218.9 644.3,216.7 644.9,204.1 645.6,204.2 646.2,200.3 646.9,206.1 647.5,204.8 648.2,203.8 648.8,195.3 649.4,198.3 650.1,191.6 650.7,195.8 651.4,196.4 652.0,199.6 652.7,204.6 653.3,204.1 653.9,205.7 654.6,204.7 655.2,200.0 655.9,203.8 656.5,206.0 657.2,199.2 657.8,199.3 658.4,193.6 659.1,195.9 659.7,197.5 660.4,192.0 661.0,188.1 661.7,191.1 662.3,193.5 662.9,193.5 663.6,189.9 664.2,196.0 664.9,195.9 665.5,199.3 666.2,189.1 666.8,178.7 667.4,179.9 668.1,150.7 668.7,162.1 669.4,149.4 670.0,132.1 670.7,130.6 671.3,96.2 671.9,76.5 672.6,98.1 673.2,110.4 673.9,104.8 674.5,109.7 675.2,124.2 675.8,130.3 676.4,138.0 677.1,130.4 677.7,141.9 678.4,148.0 679.0,150.7 679.7,142.4 680.3,142.1 680.9,155.2 681.6,154.8 682.2,157.9 682.9,161.7 683.5,156.4 684.2,159.8 684.8,164.0 685.4,164.5 686.1,171.7 686.7,169.6 687.4,176.8 688.0,177.0 688.7,179.2 689.3,187.6 689.9,188.7 690.6,185.6 691.2,186.5 691.9,185.0 692.5,177.4 693.2,185.1 693.8,177.7 694.4,177.0 695.1,162.7 695.7,161.4 696.4,164.2 697.0,159.7 697.7,170.2 698.3,167.1 698.9,168.9 699.6,178.0 700.2,180.6 700.9,187.2 701.5,188.1 702.2,184.4 702.8,179.3 703.4,179.0 704.1,177.2 704.7,182.2 705.4,187.2 706.0,191.1 706.7,190.8 707.3,178.5 707.9,167.1 708.6,149.2 709.2,137.3 709.9,138.9 710.5,130.7 711.2,131.8 711.8,138.7 712.4,116.6 713.1,119.6 713.7,117.8 714.4,120.0 715.0,129.2 715.7,114.3 716.3,105.7 716.9,115.0 717.6,115.1 718.2,120.5 718.9,135.9 719.5,140.7 720.2,144.2 720.8,129.8 721.4,141.5 722.1,157.2 722.7,154.6 723.4,148.2 724.0,154.8 724.6,156.7 725.3,163.6 725.9,168.4 726.6,167.6 727.2,167.9 727.9,167.1 728.5,169.9 729.1,159.8 729.8,156.7 730.4,156.5 731.1,155.6 731.7,161.1 732.4,156.1 733.0,163.8 733.6,162.1 734.3,165.2 734.9,172.2 735.6,171.0 736.2,161.5 736.9,164.6 737.5,167.7 738.1,170.0 738.8,169.3 739.4,169.0 740.1,172.9 740.7,175.8 741.4,182.4 742.0,177.2 742.6,179.8 743.3,180.4 743.9,185.4 744.6,189.6 745.2,193.9 745.9,180.2 746.5,176.7 747.1,175.8 747.8,178.7 748.4,181.8 749.1,173.9 749.7,172.5 750.4,171.6 751.0,170.4 751.6,172.3 752.3,171.4 752.9,168.1 753.6,144.4 754.2,148.4 754.9,159.6 755.5,148.9 756.1,157.4 756.8,151.2 757.4,133.5 758.1,148.9 758.7,152.1 759.4,143.4 760.0,145.2 760.6,142.3 761.3,139.9 761.9,136.3 762.6,142.6 763.2,144.6 763.9,147.4 764.5,149.1 765.1,151.6 765.8,150.6 766.4,153.5 767.1,158.3 767.7,163.8 768.4,156.6 769.0,153.8 769.6,154.9 770.3,149.7 770.9,150.8 771.6,150.6 772.2,153.4 772.9,146.9 773.5,147.9 774.1,154.7 774.8,155.0 775.4,164.3 776.1,161.4 776.7,167.0 777.4,169.0 778.0,164.3 778.6,163.0 779.3,158.6 779.9,165.7 780.6,161.7 781.2,161.1 781.9,158.8 782.5,164.5 783.1,167.5 783.8,168.2 784.4,162.3 785.1,160.1 785.7,160.3 786.4,163.4 787.0,165.7 787.6,168.2 788.3,172.7 788.9,175.4 789.6,175.2 790.2,180.1 790.9,185.2 791.5,180.3 792.1,185.0 792.8,193.4 793.4,197.1 794.1,199.4 794.7,197.7 795.4,195.6 796.0,200.9"/><polyline fill="none" stroke="#16a34a" stroke-width="3" points="78.0,162.7 78.6,162.8 79.3,162.9 79.9,162.9 80.6,162.6 81.2,162.6 81.9,162.6 82.5,162.6 83.1,162.9 83.8,162.9 84.4,162.8 85.1,162.8 85.7,162.8 86.4,162.9 87.0,162.6 87.6,162.6 88.3,162.5 88.9,162.5 89.6,162.5 90.2,162.5 90.9,162.5 91.5,162.5 92.1,162.5 92.8,162.7 93.4,162.6 94.1,162.6 94.7,162.6 95.4,162.6 96.0,162.5 96.6,162.5 97.3,162.5 97.9,162.5 98.6,162.5 99.2,162.6 99.9,162.6 100.5,162.6 101.1,162.6 101.8,162.6 102.4,162.6 103.1,162.5 103.7,162.5 104.4,162.5 105.0,162.5 105.6,162.4 106.3,162.3 106.9,162.4 107.6,162.1 108.2,162.0 108.9,162.0 109.5,162.1 110.1,162.0 110.8,162.0 111.4,162.0 112.1,162.0 112.7,162.0 113.4,162.0 114.0,162.2 114.6,162.1 115.3,162.2 115.9,161.9 116.6,162.1 117.2,162.1 117.9,162.1 118.5,162.2 119.1,162.2 119.8,162.2 120.4,162.4 121.1,162.5 121.7,162.5 122.4,162.5 123.0,162.5 123.6,162.5 124.3,162.5 124.9,162.4 125.6,162.5 126.2,162.5 126.9,162.5 127.5,162.5 128.1,162.4 128.8,162.4 129.4,162.4 130.1,162.4 130.7,162.4 131.4,162.1 132.0,162.3 132.6,162.3 133.3,162.2 133.9,162.2 134.6,162.2 135.2,162.2 135.9,162.3 136.5,162.2 137.1,162.2 137.8,162.2 138.4,162.2 139.1,162.2 139.7,162.2 140.4,162.2 141.0,162.2 141.6,162.3 142.3,162.3 142.9,162.2 143.6,162.2 144.2,162.2 144.9,162.2 145.5,162.2 146.1,162.2 146.8,162.2 147.4,162.2 148.1,162.1 148.7,162.1 149.4,162.1 150.0,162.1 150.6,162.1 151.3,162.1 151.9,162.1 152.6,161.8 153.2,161.8 153.8,161.8 154.5,161.9 155.1,161.9 155.8,161.9 156.4,161.8 157.1,161.8 157.7,161.8 158.3,161.8 159.0,161.8 159.6,161.8 160.3,161.8 160.9,161.8 161.6,161.8 162.2,161.7 162.8,161.8 163.5,161.7 164.1,161.8 164.8,161.7 165.4,161.7 166.1,161.8 166.7,162.1 167.3,162.1 168.0,161.8 168.6,162.1 169.3,161.8 169.9,161.8 170.6,161.8 171.2,161.8 171.8,161.8 172.5,161.8 173.1,161.8 173.8,161.8 174.4,161.7 175.1,161.7 175.7,161.8 176.3,161.8 177.0,161.8 177.6,161.8 178.3,161.7 178.9,161.7 179.6,161.7 180.2,161.7 180.8,161.7 181.5,161.7 182.1,161.7 182.8,161.7 183.4,161.6 184.1,161.6 184.7,161.6 185.3,161.5 186.0,161.6 186.6,161.6 187.3,161.5 187.9,161.5 188.6,161.5 189.2,161.5 189.8,161.4 190.5,161.4 191.1,161.3 191.8,161.3 192.4,161.3 193.1,161.2 193.7,161.3 194.3,161.2 195.0,161.2 195.6,161.2 196.3,161.1 196.9,161.1 197.6,161.1 198.2,161.1 198.8,161.3 199.5,161.2 200.1,161.1 200.8,161.2 201.4,161.1 202.1,161.1 202.7,161.1 203.3,161.2 204.0,161.4 204.6,161.3 205.3,161.3 205.9,161.2 206.6,160.7 207.2,160.7 207.8,160.7 208.5,160.8 209.1,160.8 209.8,160.6 210.4,160.7 211.1,160.3 211.7,160.1 212.3,160.1 213.0,160.1 213.6,160.1 214.3,160.2 214.9,160.4 215.6,160.4 216.2,160.5 216.8,160.3 217.5,160.1 218.1,160.8 218.8,160.3 219.4,160.7 220.1,160.7 220.7,160.7 221.3,160.7 222.0,160.7 222.6,160.7 223.3,160.5 223.9,160.3 224.6,160.3 225.2,160.1 225.8,160.0 226.5,160.0 227.1,160.0 227.8,160.0 228.4,159.9 229.1,159.9 229.7,159.9 230.3,159.9 231.0,159.9 231.6,159.8 232.3,159.7 232.9,159.7 233.6,159.7 234.2,159.5 234.8,159.5 235.5,159.5 236.1,159.3 236.8,159.6 237.4,159.4 238.1,159.4 238.7,159.4 239.3,159.4 240.0,159.3 240.6,159.3 241.3,159.5 241.9,159.2 242.6,159.2 243.2,159.2 243.8,159.2 244.5,159.5 245.1,159.5 245.8,159.4 246.4,159.3 247.1,159.4 247.7,159.3 248.3,159.3 249.0,159.3 249.6,159.1 250.3,159.1 250.9,159.3 251.6,159.3 252.2,159.3 252.8,159.3 253.5,159.3 254.1,159.3 254.8,159.3 255.4,159.3 256.1,159.3 256.7,159.2 257.3,159.2 258.0,159.2 258.6,159.2 259.3,159.1 259.9,159.1 260.6,158.9 261.2,158.8 261.8,158.8 262.5,158.8 263.1,158.6 263.8,158.5 264.4,158.8 265.1,158.6 265.7,158.5 266.3,158.5 267.0,158.5 267.6,158.5 268.3,158.5 268.9,158.5 269.6,158.5 270.2,158.5 270.8,158.5 271.5,158.5 272.1,158.5 272.8,158.5 273.4,158.5 274.1,158.5 274.7,158.4 275.3,158.4 276.0,158.5 276.6,158.3 277.3,158.3 277.9,158.3 278.6,158.3 279.2,158.3 279.8,158.3 280.5,158.1 281.1,158.0 281.8,157.8 282.4,157.8 283.1,158.0 283.7,157.7 284.3,157.7 285.0,157.2 285.6,157.2 286.3,157.2 286.9,157.2 287.6,157.2 288.2,157.2 288.8,157.5 289.5,157.6 290.1,157.3 290.8,157.3 291.4,157.3 292.1,157.2 292.7,157.2 293.3,157.2 294.0,157.2 294.6,157.2 295.3,157.2 295.9,157.2 296.5,157.2 297.2,157.2 297.8,157.2 298.5,157.2 299.1,157.2 299.8,157.1 300.4,157.1 301.0,157.1 301.7,157.0 302.3,157.1 303.0,157.0 303.6,157.0 304.3,157.0 304.9,157.0 305.5,156.8 306.2,156.8 306.8,156.8 307.5,156.8 308.1,156.7 308.8,156.6 309.4,156.6 310.0,156.3 310.7,156.3 311.3,156.3 312.0,155.8 312.6,156.0 313.3,156.0 313.9,156.1 314.5,156.2 315.2,156.2 315.8,156.2 316.5,156.2 317.1,156.2 317.8,156.1 318.4,156.5 319.0,156.2 319.7,156.4 320.3,156.4 321.0,156.4 321.6,156.4 322.3,156.4 322.9,156.4 323.5,156.2 324.2,156.4 324.8,156.3 325.5,156.4 326.1,156.4 326.8,156.3 327.4,156.3 328.0,156.0 328.7,156.1 329.3,156.1 330.0,156.1 330.6,156.1 331.3,156.1 331.9,156.1 332.5,156.0 333.2,156.0 333.8,155.9 334.5,155.9 335.1,155.9 335.8,155.9 336.4,155.5 337.0,155.6 337.7,155.6 338.3,155.6 339.0,155.6 339.6,155.9 340.3,155.9 340.9,155.9 341.5,155.9 342.2,155.9 342.8,155.9 343.5,155.9 344.1,155.9 344.8,155.9 345.4,155.9 346.0,155.9 346.7,155.8 347.3,155.8 348.0,155.8 348.6,155.8 349.3,155.8 349.9,155.8 350.5,155.8 351.2,155.8 351.8,155.8 352.5,155.7 353.1,155.7 353.8,155.7 354.4,155.7 355.0,155.7 355.7,155.7 356.3,155.7 357.0,155.7 357.6,155.6 358.3,155.6 358.9,155.5 359.5,155.5 360.2,155.5 360.8,155.6 361.5,155.6 362.1,155.3 362.8,155.3 363.4,155.4 364.0,155.3 364.7,155.3 365.3,155.1 366.0,155.1 366.6,155.1 367.3,155.2 367.9,155.2 368.5,155.2 369.2,155.1 369.8,155.1 370.5,155.1 371.1,155.1 371.8,155.1 372.4,155.1 373.0,154.9 373.7,155.0 374.3,155.0 375.0,155.1 375.6,155.1 376.3,155.1 376.9,155.1 377.5,155.0 378.2,155.1 378.8,155.4 379.5,155.4 380.1,155.4 380.8,155.4 381.4,155.3 382.0,155.1 382.7,155.1 383.3,154.8 384.0,154.7 384.6,154.7 385.3,154.7 385.9,154.6 386.5,154.6 387.2,154.6 387.8,154.4 388.5,154.4 389.1,154.6 389.8,154.6 390.4,154.6 391.0,154.7 391.7,154.6 392.3,154.8 393.0,154.6 393.6,154.4 394.3,154.4 394.9,154.5 395.5,166.2 396.2,154.6 396.8,153.9 397.5,154.6 398.1,153.5 398.8,154.6 399.4,155.3 400.0,154.1 400.7,154.0 401.3,154.1 402.0,154.1 402.6,155.9 403.3,154.8 403.9,154.1 404.5,186.3 405.2,197.2 405.8,188.0 406.5,148.8 407.1,153.6 407.8,163.0 408.4,160.7 409.0,98.9 409.7,128.0 410.3,145.5 411.0,162.2 411.6,150.7 412.3,153.1 412.9,149.6 413.5,154.8 414.2,178.5 414.8,172.4 415.5,180.9 416.1,186.1 416.8,176.9 417.4,180.5 418.0,181.0 418.7,159.9 419.3,141.5 420.0,147.6 420.6,139.4 421.3,139.8 421.9,143.9 422.5,152.0 423.2,154.8 423.8,148.6 424.5,135.9 425.1,146.0 425.8,142.8 426.4,151.9 427.0,148.2 427.7,147.6 428.3,149.8 429.0,149.0 429.6,154.1 430.3,162.2 430.9,169.6 431.5,184.7 432.2,175.8 432.8,178.7 433.5,170.3 434.1,160.8 434.8,158.5 435.4,153.4 436.0,148.0 436.7,150.0 437.3,158.4 438.0,181.5 438.6,168.2 439.2,162.5 439.9,162.2 440.5,162.2 441.2,171.4 441.8,172.2 442.5,175.9 443.1,173.3 443.7,178.7 444.4,169.6 445.0,168.1 445.7,154.3 446.3,154.7 447.0,148.7 447.6,153.8 448.2,178.6 448.9,162.7 449.5,162.2 450.2,155.1 450.8,154.3 451.5,156.6 452.1,152.8 452.7,157.2 453.4,160.1 454.0,155.7 454.7,160.1 455.3,156.1 456.0,163.0 456.6,160.7 457.2,152.1 457.9,151.1 458.5,152.7 459.2,152.7 459.8,150.6 460.5,151.3 461.1,151.4 461.7,151.3 462.4,151.3 463.0,151.3 463.7,152.9 464.3,159.2 465.0,163.7 465.6,165.2 466.2,164.8 466.9,164.2 467.5,159.4 468.2,154.4 468.8,156.3 469.5,155.5 470.1,159.2 470.7,157.8 471.4,155.6 472.0,159.8 472.7,162.4 473.3,160.8 474.0,162.5 474.6,162.7 475.2,163.9 475.9,161.1 476.5,162.7 477.2,163.9 477.8,161.6 478.5,164.6 479.1,167.2 479.7,172.1 480.4,165.5 481.0,168.5 481.7,162.3 482.3,165.2 483.0,168.4 483.6,167.1 484.2,169.9 484.9,162.5 485.5,162.0 486.2,162.5 486.8,163.4 487.5,164.8 488.1,166.0 488.7,168.7 489.4,172.2 490.0,173.1 490.7,176.6 491.3,173.6 492.0,176.0 492.6,179.2 493.2,180.1 493.9,182.0 494.5,186.3 495.2,193.7 495.8,196.0 496.5,195.6 497.1,189.0 497.7,184.0 498.4,185.2 499.0,185.0 499.7,188.5 500.3,182.5 501.0,190.1 501.6,189.0 502.2,188.7 502.9,195.4 503.5,190.3 504.2,186.9 504.8,185.3 505.5,191.0 506.1,192.4 506.7,193.5 507.4,190.5 508.0,193.2 508.7,191.1 509.3,192.2 510.0,193.5 510.6,191.9 511.2,193.4 511.9,191.7 512.5,189.8 513.2,189.9 513.8,190.1 514.5,192.9 515.1,195.9 515.7,196.6 516.4,195.6 517.0,198.8 517.7,199.2 518.3,198.3 519.0,196.2 519.6,199.8 520.2,198.3 520.9,198.9 521.5,196.4 522.2,190.3 522.8,192.1 523.5,190.5 524.1,190.2 524.7,196.2 525.4,198.7 526.0,201.7 526.7,203.5 527.3,203.3 528.0,201.6 528.6,205.7 529.2,204.0 529.9,199.6 530.5,196.2 531.2,196.4 531.8,193.4 532.5,192.2 533.1,194.3 533.7,182.4 534.4,178.7 535.0,184.0 535.7,184.9 536.3,181.3 537.0,182.8 537.6,185.9 538.2,191.1 538.9,197.7 539.5,196.4 540.2,193.6 540.8,196.4 541.5,200.1 542.1,194.5 542.7,189.2 543.4,192.4 544.0,191.9 544.7,195.0 545.3,192.1 546.0,192.5 546.6,195.3 547.2,192.6 547.9,194.6 548.5,193.5 549.2,193.5 549.8,181.9 550.5,177.3 551.1,177.0 551.7,181.1 552.4,183.9 553.0,174.9 553.7,180.1 554.3,184.1 555.0,186.3 555.6,188.9 556.2,189.4 556.9,179.0 557.5,179.6 558.2,182.1 558.8,182.4 559.5,182.2 560.1,175.4 560.7,172.9 561.4,205.5 562.0,202.8 562.7,197.7 563.3,208.4 564.0,214.4 564.6,223.1 565.2,239.3 565.9,263.1 566.5,245.8 567.2,255.0 567.8,265.4 568.5,267.5 569.1,276.7 569.7,273.7 570.4,283.8 571.0,291.6 571.7,302.1 572.3,277.7 573.0,274.7 573.6,280.5 574.2,287.6 574.9,295.3 575.5,290.4 576.2,282.7 576.8,282.7 577.5,288.8 578.1,294.5 578.7,292.0 579.4,293.6 580.0,294.9 580.7,304.9 581.3,308.7 581.9,314.7 582.6,317.0 583.2,317.0 583.9,315.8 584.5,316.4 585.2,314.7 585.8,302.1 586.4,306.9 587.1,311.5 587.7,304.0 588.4,309.4 589.0,305.9 589.7,308.4 590.3,282.0 590.9,269.0 591.6,282.3 592.2,278.8 592.9,270.9 593.5,277.4 594.2,291.2 594.8,304.9 595.4,301.6 596.1,307.4 596.7,317.5 597.4,313.1 598.0,304.9 598.7,307.9 599.3,301.6 599.9,296.2 600.6,303.5 601.2,306.9 601.9,307.9 602.5,299.8 603.2,306.9 603.8,308.9 604.4,315.8 605.1,312.0 605.7,315.3 606.4,313.1 607.0,315.3 607.7,311.0 608.3,307.4 608.9,308.9 609.6,310.5 610.2,314.7 610.9,316.4 611.5,317.0 612.2,314.7 612.8,315.3 613.4,313.1 614.1,314.7 614.7,317.5 615.4,313.1 616.0,312.6 616.7,315.3 617.3,304.9 617.9,286.8 618.6,255.5 619.2,264.2 619.9,281.2 620.5,270.9 621.2,273.1 621.8,269.3 622.4,262.5 623.1,240.8 623.7,253.2 624.4,242.5 625.0,249.6 625.7,241.6 626.3,244.7 626.9,250.8 627.6,254.7 628.2,260.9 628.9,255.3 629.5,256.3 630.2,256.8 630.8,234.0 631.4,231.9 632.1,227.1 632.7,225.0 633.4,235.6 634.0,233.0 634.7,223.9 635.3,229.4 635.9,227.4 636.6,232.7 637.2,247.0 637.9,247.0 638.5,238.4 639.2,237.6 639.8,238.9 640.4,230.0 641.1,235.2 641.7,229.4 642.4,222.4 643.0,217.6 643.7,218.9 644.3,216.7 644.9,204.1 645.6,204.2 646.2,200.3 646.9,206.1 647.5,204.8 648.2,203.8 648.8,195.3 649.4,198.3 650.1,191.6 650.7,195.8 651.4,196.4 652.0,199.6 652.7,204.6 653.3,204.1 653.9,205.7 654.6,204.7 655.2,200.0 655.9,203.8 656.5,206.0 657.2,199.2 657.8,199.3 658.4,193.6 659.1,195.9 659.7,197.5 660.4,192.0 661.0,188.1 661.7,191.1 662.3,193.5 662.9,193.5 663.6,189.9 664.2,196.0 664.9,195.9 665.5,199.3 666.2,189.1 666.8,178.7 667.4,179.9 668.1,150.7 668.7,162.1 669.4,149.4 670.0,132.1 670.7,130.6 671.3,96.2 671.9,76.5 672.6,98.1 673.2,110.4 673.9,104.8 674.5,109.7 675.2,124.2 675.8,130.3 676.4,138.0 677.1,130.4 677.7,141.9 678.4,148.0 679.0,150.7 679.7,142.4 680.3,142.1 680.9,155.2 681.6,154.8 682.2,157.9 682.9,161.7 683.5,156.4 684.2,159.8 684.8,164.0 685.4,164.5 686.1,171.7 686.7,169.6 687.4,176.8 688.0,177.0 688.7,179.2 689.3,187.6 689.9,188.7 690.6,185.6 691.2,186.5 691.9,185.0 692.5,177.4 693.2,185.1 693.8,177.7 694.4,177.0 695.1,162.7 695.7,161.4 696.4,164.2 697.0,159.7 697.7,170.2 698.3,167.1 698.9,168.9 699.6,178.0 700.2,180.6 700.9,187.2 701.5,188.1 702.2,184.4 702.8,179.3 703.4,179.0 704.1,177.2 704.7,182.2 705.4,187.2 706.0,191.1 706.7,190.8 707.3,178.5 707.9,167.1 708.6,149.2 709.2,137.3 709.9,138.9 710.5,130.7 711.2,131.8 711.8,138.7 712.4,116.6 713.1,119.6 713.7,117.8 714.4,120.0 715.0,129.2 715.7,114.3 716.3,105.7 716.9,115.0 717.6,115.1 718.2,120.5 718.9,135.9 719.5,140.7 720.2,144.2 720.8,129.8 721.4,141.5 722.1,157.2 722.7,154.6 723.4,148.2 724.0,154.8 724.6,156.7 725.3,163.6 725.9,168.4 726.6,167.6 727.2,167.9 727.9,167.1 728.5,169.9 729.1,159.8 729.8,156.7 730.4,156.5 731.1,155.6 731.7,161.1 732.4,156.1 733.0,163.8 733.6,162.1 734.3,165.2 734.9,172.2 735.6,171.0 736.2,161.5 736.9,164.6 737.5,167.7 738.1,170.0 738.8,169.3 739.4,169.0 740.1,172.9 740.7,175.8 741.4,182.4 742.0,177.2 742.6,179.8 743.3,180.4 743.9,185.4 744.6,189.6 745.2,193.9 745.9,180.2 746.5,176.7 747.1,175.8 747.8,178.7 748.4,181.8 749.1,173.9 749.7,172.5 750.4,171.6 751.0,170.4 751.6,172.3 752.3,171.4 752.9,168.1 753.6,144.4 754.2,148.4 754.9,159.6 755.5,148.9 756.1,157.4 756.8,151.2 757.4,133.5 758.1,148.9 758.7,152.1 759.4,143.4 760.0,145.2 760.6,142.3 761.3,139.9 761.9,136.3 762.6,142.6 763.2,144.6 763.9,147.4 764.5,149.1 765.1,151.6 765.8,150.6 766.4,153.5 767.1,158.3 767.7,163.8 768.4,156.6 769.0,153.8 769.6,154.9 770.3,149.7 770.9,150.8 771.6,150.6 772.2,153.4 772.9,146.9 773.5,147.9 774.1,154.7 774.8,155.0 775.4,164.3 776.1,161.4 776.7,167.0 777.4,169.0 778.0,164.3 778.6,163.0 779.3,158.6 779.9,165.7 780.6,161.7 781.2,161.1 781.9,158.8 782.5,164.5 783.1,167.5 783.8,168.2 784.4,162.3 785.1,160.1 785.7,160.3 786.4,163.4 787.0,165.7 787.6,168.2 788.3,172.7 788.9,175.4 789.6,175.2 790.2,180.1 790.9,185.2 791.5,180.3 792.1,185.0 792.8,193.4 793.4,197.1 794.1,199.4 794.7,197.7 795.4,195.6 796.0,200.9"/>
<text x="78" y="392" font-size="11" fill="#16a34a">Total return -38.7%</text><text x="268" y="392" font-size="11" fill="#2563eb">Price-only -38.7%</text><text x="78" y="362" font-size="11" text-anchor="middle" fill="#64748b">2022-02</text><text x="257" y="362" font-size="11" text-anchor="middle" fill="#64748b">2023-03</text><text x="437" y="362" font-size="11" text-anchor="middle" fill="#64748b">2024-04</text><text x="617" y="362" font-size="11" text-anchor="middle" fill="#64748b">2025-06</text><text x="796" y="362" font-size="11" text-anchor="middle" fill="#64748b">2026-07</text></svg>