<svg xmlns="http://www.w3.org/2000/svg" width="820" height="410" viewBox="0 0 820 410">
<rect width="820" height="410" fill="#fafafa"/><text x="78" y="22" font-size="14" font-family="sans-serif" fill="#0f172a">CRML cumulative return since 2022-02-07 | dividends reinvested</text>
<text x="78" y="40" font-size="11" font-family="sans-serif" fill="#334155">Total return -35.6% | Price-only -35.6% | logarithmic scale</text>
<text x="78" y="54" font-size="9" font-family="sans-serif" fill="#64748b">Regular $0.00 | Special $0.00 | Other $0.00 per initial share path</text>
<line x1="78" y1="332.0" x2="796" y2="332.0" stroke="#e2e8f0"/><text x="70" y="336.0" font-size="10" text-anchor="end" fill="#64748b">-88.5%</text><line x1="78" y1="287.0" x2="796" y2="287.0" stroke="#e2e8f0"/><text x="70" y="291.0" font-size="10" text-anchor="end" fill="#64748b">-79.6%</text><line x1="78" y1="242.0" x2="796" y2="242.0" stroke="#e2e8f0"/><text x="70" y="246.0" font-size="10" text-anchor="end" fill="#64748b">-63.8%</text><line x1="78" y1="197.0" x2="796" y2="197.0" stroke="#e2e8f0"/><text x="70" y="201.0" font-size="10" text-anchor="end" fill="#64748b">-35.5%</text><line x1="78" y1="162.7" x2="796" y2="162.7" stroke="#e2e8f0"/><text x="70" y="166.7" font-size="10" text-anchor="end" fill="#64748b">0%</text><line x1="78" y1="152.0" x2="796" y2="152.0" stroke="#e2e8f0"/><text x="70" y="156.0" font-size="10" text-anchor="end" fill="#64748b">+14.7%</text><line x1="78" y1="107.0" x2="796" y2="107.0" stroke="#e2e8f0"/><text x="70" y="111.0" font-size="10" text-anchor="end" fill="#64748b">+104.0%</text><line x1="78" y1="62.0" x2="796" y2="62.0" stroke="#e2e8f0"/><text x="70" y="66.0" font-size="10" text-anchor="end" fill="#64748b">+262.9%</text>
<line x1="78" y1="332" x2="796" y2="332" stroke="#cbd5e1"/>
<polyline fill="none" stroke="#2563eb" stroke-width="2" points="78.0,162.7 78.6,162.8 79.3,162.9 79.9,162.9 80.6,162.6 81.2,162.6 81.9,162.6 82.5,162.6 83.2,162.9 83.8,162.9 84.5,162.8 85.1,162.8 85.7,162.8 86.4,162.9 87.0,162.6 87.7,162.6 88.3,162.5 89.0,162.5 89.6,162.5 90.3,162.5 90.9,162.5 91.5,162.5 92.2,162.5 92.8,162.7 93.5,162.6 94.1,162.6 94.8,162.6 95.4,162.6 96.1,162.5 96.7,162.5 97.4,162.5 98.0,162.5 98.6,162.5 99.3,162.6 99.9,162.6 100.6,162.6 101.2,162.6 101.9,162.6 102.5,162.6 103.2,162.5 103.8,162.5 104.4,162.5 105.1,162.5 105.7,162.4 106.4,162.3 107.0,162.4 107.7,162.1 108.3,162.0 109.0,162.0 109.6,162.1 110.3,162.0 110.9,162.0 111.5,162.0 112.2,162.0 112.8,162.0 113.5,162.0 114.1,162.2 114.8,162.1 115.4,162.2 116.1,161.9 116.7,162.1 117.4,162.1 118.0,162.1 118.6,162.2 119.3,162.2 119.9,162.2 120.6,162.4 121.2,162.5 121.9,162.5 122.5,162.5 123.2,162.5 123.8,162.5 124.4,162.5 125.1,162.4 125.7,162.5 126.4,162.5 127.0,162.5 127.7,162.5 128.3,162.4 129.0,162.4 129.6,162.4 130.3,162.4 130.9,162.4 131.5,162.1 132.2,162.3 132.8,162.3 133.5,162.2 134.1,162.2 134.8,162.2 135.4,162.2 136.1,162.3 136.7,162.2 137.3,162.2 138.0,162.2 138.6,162.2 139.3,162.2 139.9,162.2 140.6,162.2 141.2,162.2 141.9,162.3 142.5,162.3 143.2,162.2 143.8,162.2 144.4,162.2 145.1,162.2 145.7,162.2 146.4,162.2 147.0,162.2 147.7,162.2 148.3,162.1 149.0,162.1 149.6,162.1 150.3,162.1 150.9,162.1 151.5,162.1 152.2,162.1 152.8,161.8 153.5,161.8 154.1,161.8 154.8,161.9 155.4,161.9 156.1,161.9 156.7,161.8 157.3,161.8 158.0,161.8 158.6,161.8 159.3,161.8 159.9,161.8 160.6,161.8 161.2,161.8 161.9,161.8 162.5,161.7 163.2,161.8 163.8,161.7 164.4,161.8 165.1,161.7 165.7,161.7 166.4,161.8 167.0,162.1 167.7,162.1 168.3,161.8 169.0,162.1 169.6,161.8 170.2,161.8 170.9,161.8 171.5,161.8 172.2,161.8 172.8,161.8 173.5,161.8 174.1,161.8 174.8,161.7 175.4,161.7 176.1,161.8 176.7,161.8 177.3,161.8 178.0,161.8 178.6,161.7 179.3,161.7 179.9,161.7 180.6,161.7 181.2,161.7 181.9,161.7 182.5,161.7 183.2,161.7 183.8,161.6 184.4,161.6 185.1,161.6 185.7,161.5 186.4,161.6 187.0,161.6 187.7,161.5 188.3,161.5 189.0,161.5 189.6,161.5 190.2,161.4 190.9,161.4 191.5,161.3 192.2,161.3 192.8,161.3 193.5,161.2 194.1,161.3 194.8,161.2 195.4,161.2 196.1,161.2 196.7,161.1 197.3,161.1 198.0,161.1 198.6,161.1 199.3,161.3 199.9,161.2 200.6,161.1 201.2,161.2 201.9,161.1 202.5,161.1 203.2,161.1 203.8,161.2 204.4,161.4 205.1,161.3 205.7,161.3 206.4,161.2 207.0,160.7 207.7,160.7 208.3,160.7 209.0,160.8 209.6,160.8 210.2,160.6 210.9,160.7 211.5,160.3 212.2,160.1 212.8,160.1 213.5,160.1 214.1,160.1 214.8,160.2 215.4,160.4 216.1,160.4 216.7,160.5 217.3,160.3 218.0,160.1 218.6,160.8 219.3,160.3 219.9,160.7 220.6,160.7 221.2,160.7 221.9,160.7 222.5,160.7 223.1,160.7 223.8,160.5 224.4,160.3 225.1,160.3 225.7,160.1 226.4,160.0 227.0,160.0 227.7,160.0 228.3,160.0 229.0,159.9 229.6,159.9 230.2,159.9 230.9,159.9 231.5,159.9 232.2,159.8 232.8,159.7 233.5,159.7 234.1,159.7 234.8,159.5 235.4,159.5 236.1,159.5 236.7,159.3 237.3,159.6 238.0,159.4 238.6,159.4 239.3,159.4 239.9,159.4 240.6,159.3 241.2,159.3 241.9,159.5 242.5,159.2 243.1,159.2 243.8,159.2 244.4,159.2 245.1,159.5 245.7,159.5 246.4,159.4 247.0,159.3 247.7,159.4 248.3,159.3 249.0,159.3 249.6,159.3 250.2,159.1 250.9,159.1 251.5,159.3 252.2,159.3 252.8,159.3 253.5,159.3 254.1,159.3 254.8,159.3 255.4,159.3 256.0,159.3 256.7,159.3 257.3,159.2 258.0,159.2 258.6,159.2 259.3,159.2 259.9,159.1 260.6,159.1 261.2,158.9 261.9,158.8 262.5,158.8 263.1,158.8 263.8,158.6 264.4,158.5 265.1,158.8 265.7,158.6 266.4,158.5 267.0,158.5 267.7,158.5 268.3,158.5 269.0,158.5 269.6,158.5 270.2,158.5 270.9,158.5 271.5,158.5 272.2,158.5 272.8,158.5 273.5,158.5 274.1,158.5 274.8,158.5 275.4,158.4 276.0,158.4 276.7,158.5 277.3,158.3 278.0,158.3 278.6,158.3 279.3,158.3 279.9,158.3 280.6,158.3 281.2,158.1 281.9,158.0 282.5,157.8 283.1,157.8 283.8,158.0 284.4,157.7 285.1,157.7 285.7,157.2 286.4,157.2 287.0,157.2 287.7,157.2 288.3,157.2 288.9,157.2 289.6,157.5 290.2,157.6 290.9,157.3 291.5,157.3 292.2,157.3 292.8,157.2 293.5,157.2 294.1,157.2 294.8,157.2 295.4,157.2 296.0,157.2 296.7,157.2 297.3,157.2 298.0,157.2 298.6,157.2 299.3,157.2 299.9,157.2 300.6,157.1 301.2,157.1 301.9,157.1 302.5,157.0 303.1,157.1 303.8,157.0 304.4,157.0 305.1,157.0 305.7,157.0 306.4,156.8 307.0,156.8 307.7,156.8 308.3,156.8 308.9,156.7 309.6,156.6 310.2,156.6 310.9,156.3 311.5,156.3 312.2,156.3 312.8,155.8 313.5,156.0 314.1,156.0 314.8,156.1 315.4,156.2 316.0,156.2 316.7,156.2 317.3,156.2 318.0,156.2 318.6,156.1 319.3,156.5 319.9,156.2 320.6,156.4 321.2,156.4 321.8,156.4 322.5,156.4 323.1,156.4 323.8,156.4 324.4,156.2 325.1,156.4 325.7,156.3 326.4,156.4 327.0,156.4 327.7,156.3 328.3,156.3 328.9,156.0 329.6,156.1 330.2,156.1 330.9,156.1 331.5,156.1 332.2,156.1 332.8,156.1 333.5,156.0 334.1,156.0 334.8,155.9 335.4,155.9 336.0,155.9 336.7,155.9 337.3,155.5 338.0,155.6 338.6,155.6 339.3,155.6 339.9,155.6 340.6,155.9 341.2,155.9 341.8,155.9 342.5,155.9 343.1,155.9 343.8,155.9 344.4,155.9 345.1,155.9 345.7,155.9 346.4,155.9 347.0,155.9 347.7,155.8 348.3,155.8 348.9,155.8 349.6,155.8 350.2,155.8 350.9,155.8 351.5,155.8 352.2,155.8 352.8,155.8 353.5,155.7 354.1,155.7 354.7,155.7 355.4,155.7 356.0,155.7 356.7,155.7 357.3,155.7 358.0,155.7 358.6,155.6 359.3,155.6 359.9,155.5 360.6,155.5 361.2,155.5 361.8,155.6 362.5,155.6 363.1,155.3 363.8,155.3 364.4,155.4 365.1,155.3 365.7,155.3 366.4,155.1 367.0,155.1 367.7,155.1 368.3,155.2 368.9,155.2 369.6,155.2 370.2,155.1 370.9,155.1 371.5,155.1 372.2,155.1 372.8,155.1 373.5,155.1 374.1,154.9 374.7,155.0 375.4,155.0 376.0,155.1 376.7,155.1 377.3,155.1 378.0,155.1 378.6,155.0 379.3,155.1 379.9,155.4 380.6,155.4 381.2,155.4 381.8,155.4 382.5,155.3 383.1,155.1 383.8,155.1 384.4,154.8 385.1,154.7 385.7,154.7 386.4,154.7 387.0,154.6 387.6,154.6 388.3,154.6 388.9,154.4 389.6,154.4 390.2,154.6 390.9,154.6 391.5,154.6 392.2,154.7 392.8,154.6 393.5,154.8 394.1,154.6 394.7,154.4 395.4,154.4 396.0,154.5 396.7,166.2 397.3,154.6 398.0,153.9 398.6,154.6 399.3,153.5 399.9,154.6 400.6,155.3 401.2,154.1 401.8,154.0 402.5,154.1 403.1,154.1 403.8,155.9 404.4,154.8 405.1,154.1 405.7,186.3 406.4,197.2 407.0,188.0 407.6,148.8 408.3,153.6 408.9,163.0 409.6,160.7 410.2,98.9 410.9,128.0 411.5,145.5 412.2,162.2 412.8,150.7 413.5,153.1 414.1,149.6 414.7,154.8 415.4,178.5 416.0,172.4 416.7,180.9 417.3,186.1 418.0,176.9 418.6,180.5 419.3,181.0 419.9,159.9 420.5,141.5 421.2,147.6 421.8,139.4 422.5,139.8 423.1,143.9 423.8,152.0 424.4,154.8 425.1,148.6 425.7,135.9 426.4,146.0 427.0,142.8 427.6,151.9 428.3,148.2 428.9,147.6 429.6,149.8 430.2,149.0 430.9,154.1 431.5,162.2 432.2,169.6 432.8,184.7 433.5,175.8 434.1,178.7 434.7,170.3 435.4,160.8 436.0,158.5 436.7,153.4 437.3,148.0 438.0,150.0 438.6,158.4 439.3,181.5 439.9,168.2 440.5,162.5 441.2,162.2 441.8,162.2 442.5,171.4 443.1,172.2 443.8,175.9 444.4,173.3 445.1,178.7 445.7,169.6 446.4,168.1 447.0,154.3 447.6,154.7 448.3,148.7 448.9,153.8 449.6,178.6 450.2,162.7 450.9,162.2 451.5,155.1 452.2,154.3 452.8,156.6 453.5,152.8 454.1,157.2 454.7,160.1 455.4,155.7 456.0,160.1 456.7,156.1 457.3,163.0 458.0,160.7 458.6,152.1 459.3,151.1 459.9,152.7 460.5,152.7 461.2,150.6 461.8,151.3 462.5,151.4 463.1,151.3 463.8,151.3 464.4,151.3 465.1,152.9 465.7,159.2 466.4,163.7 467.0,165.2 467.6,164.8 468.3,164.2 468.9,159.4 469.6,154.4 470.2,156.3 470.9,155.5 471.5,159.2 472.2,157.8 472.8,155.6 473.4,159.8 474.1,162.4 474.7,160.8 475.4,162.5 476.0,162.7 476.7,163.9 477.3,161.1 478.0,162.7 478.6,163.9 479.3,161.6 479.9,164.6 480.5,167.2 481.2,172.1 481.8,165.5 482.5,168.5 483.1,162.3 483.8,165.2 484.4,168.4 485.1,167.1 485.7,169.9 486.4,162.5 487.0,162.0 487.6,162.5 488.3,163.4 488.9,164.8 489.6,166.0 490.2,168.7 490.9,172.2 491.5,173.1 492.2,176.6 492.8,173.6 493.4,176.0 494.1,179.2 494.7,180.1 495.4,182.0 496.0,186.3 496.7,193.7 497.3,196.0 498.0,195.6 498.6,189.0 499.3,184.0 499.9,185.2 500.5,185.0 501.2,188.5 501.8,182.5 502.5,190.1 503.1,189.0 503.8,188.7 504.4,195.4 505.1,190.3 505.7,186.9 506.3,185.3 507.0,191.0 507.6,192.4 508.3,193.5 508.9,190.5 509.6,193.2 510.2,191.1 510.9,192.2 511.5,193.5 512.2,191.9 512.8,193.4 513.4,191.7 514.1,189.8 514.7,189.9 515.4,190.1 516.0,192.9 516.7,195.9 517.3,196.6 518.0,195.6 518.6,198.8 519.3,199.2 519.9,198.3 520.5,196.2 521.2,199.8 521.8,198.3 522.5,198.9 523.1,196.4 523.8,190.3 524.4,192.1 525.1,190.5 525.7,190.2 526.3,196.2 527.0,198.7 527.6,201.7 528.3,203.5 528.9,203.3 529.6,201.6 530.2,205.7 530.9,204.0 531.5,199.6 532.2,196.2 532.8,196.4 533.4,193.4 534.1,192.2 534.7,194.3 535.4,182.4 536.0,178.7 536.7,184.0 537.3,184.9 538.0,181.3 538.6,182.8 539.2,185.9 539.9,191.1 540.5,197.7 541.2,196.4 541.8,193.6 542.5,196.4 543.1,200.1 543.8,194.5 544.4,189.2 545.1,192.4 545.7,191.9 546.3,195.0 547.0,192.1 547.6,192.5 548.3,195.3 548.9,192.6 549.6,194.6 550.2,193.5 550.9,193.5 551.5,181.9 552.2,177.3 552.8,177.0 553.4,181.1 554.1,183.9 554.7,174.9 555.4,180.1 556.0,184.1 556.7,186.3 557.3,188.9 558.0,189.4 558.6,179.0 559.2,179.6 559.9,182.1 560.5,182.4 561.2,182.2 561.8,175.4 562.5,172.9 563.1,205.5 563.8,202.8 564.4,197.7 565.1,208.4 565.7,214.4 566.3,223.1 567.0,239.3 567.6,263.1 568.3,245.8 568.9,255.0 569.6,265.4 570.2,267.5 570.9,276.7 571.5,273.7 572.1,283.8 572.8,291.6 573.4,302.1 574.1,277.7 574.7,274.7 575.4,280.5 576.0,287.6 576.7,295.3 577.3,290.4 578.0,282.7 578.6,282.7 579.2,288.8 579.9,294.5 580.5,292.0 581.2,293.6 581.8,294.9 582.5,304.9 583.1,308.7 583.8,314.7 584.4,317.0 585.1,317.0 585.7,315.8 586.3,316.4 587.0,314.7 587.6,302.1 588.3,306.9 588.9,311.5 589.6,304.0 590.2,309.4 590.9,305.9 591.5,308.4 592.1,282.0 592.8,269.0 593.4,282.3 594.1,278.8 594.7,270.9 595.4,277.4 596.0,291.2 596.7,304.9 597.3,301.6 598.0,307.4 598.6,317.5 599.2,313.1 599.9,304.9 600.5,307.9 601.2,301.6 601.8,296.2 602.5,303.5 603.1,306.9 603.8,307.9 604.4,299.8 605.0,306.9 605.7,308.9 606.3,315.8 607.0,312.0 607.6,315.3 608.3,313.1 608.9,315.3 609.6,311.0 610.2,307.4 610.9,308.9 611.5,310.5 612.1,314.7 612.8,316.4 613.4,317.0 614.1,314.7 614.7,315.3 615.4,313.1 616.0,314.7 616.7,317.5 617.3,313.1 618.0,312.6 618.6,315.3 619.2,304.9 619.9,286.8 620.5,255.5 621.2,264.2 621.8,281.2 622.5,270.9 623.1,273.1 623.8,269.3 624.4,262.5 625.0,240.8 625.7,253.2 626.3,242.5 627.0,249.6 627.6,241.6 628.3,244.7 628.9,250.8 629.6,254.7 630.2,260.9 630.9,255.3 631.5,256.3 632.1,256.8 632.8,234.0 633.4,231.9 634.1,227.1 634.7,225.0 635.4,235.6 636.0,233.0 636.7,223.9 637.3,229.4 637.9,227.4 638.6,232.7 639.2,247.0 639.9,247.0 640.5,238.4 641.2,237.6 641.8,238.9 642.5,230.0 643.1,235.2 643.8,229.4 644.4,222.4 645.0,217.6 645.7,218.9 646.3,216.7 647.0,204.1 647.6,204.2 648.3,200.3 648.9,206.1 649.6,204.8 650.2,203.8 650.9,195.3 651.5,198.3 652.1,191.6 652.8,195.8 653.4,196.4 654.1,199.6 654.7,204.6 655.4,204.1 656.0,205.7 656.7,204.7 657.3,200.0 657.9,203.8 658.6,206.0 659.2,199.2 659.9,199.3 660.5,193.6 661.2,195.9 661.8,197.5 662.5,192.0 663.1,188.1 663.8,191.1 664.4,193.5 665.0,193.5 665.7,189.9 666.3,196.0 667.0,195.9 667.6,199.3 668.3,189.1 668.9,178.7 669.6,179.9 670.2,150.7 670.8,162.1 671.5,149.4 672.1,132.1 672.8,130.6 673.4,96.2 674.1,76.5 674.7,98.1 675.4,110.4 676.0,104.8 676.7,109.7 677.3,124.2 677.9,130.3 678.6,138.0 679.2,130.4 679.9,141.9 680.5,148.0 681.2,150.7 681.8,142.4 682.5,142.1 683.1,155.2 683.8,154.8 684.4,157.9 685.0,161.7 685.7,156.4 686.3,159.8 687.0,164.0 687.6,164.5 688.3,171.7 688.9,169.6 689.6,176.8 690.2,177.0 690.8,179.2 691.5,187.6 692.1,188.7 692.8,185.6 693.4,186.5 694.1,185.0 694.7,177.4 695.4,185.1 696.0,177.7 696.7,177.0 697.3,162.7 697.9,161.4 698.6,164.2 699.2,159.7 699.9,170.2 700.5,167.1 701.2,168.9 701.8,178.0 702.5,180.6 703.1,187.2 703.8,188.1 704.4,184.4 705.0,179.3 705.7,179.0 706.3,177.2 707.0,182.2 707.6,187.2 708.3,191.1 708.9,190.8 709.6,178.5 710.2,167.1 710.8,149.2 711.5,137.3 712.1,138.9 712.8,130.7 713.4,131.8 714.1,138.7 714.7,116.6 715.4,119.6 716.0,117.8 716.7,120.0 717.3,129.2 717.9,114.3 718.6,105.7 719.2,115.0 719.9,115.1 720.5,120.5 721.2,135.9 721.8,140.7 722.5,144.2 723.1,129.8 723.7,141.5 724.4,157.2 725.0,154.6 725.7,148.2 726.3,154.8 727.0,156.7 727.6,163.6 728.3,168.4 728.9,167.6 729.6,167.9 730.2,167.1 730.8,169.9 731.5,159.8 732.1,156.7 732.8,156.5 733.4,155.6 734.1,161.1 734.7,156.1 735.4,163.8 736.0,162.1 736.7,165.2 737.3,172.2 737.9,171.0 738.6,161.5 739.2,164.6 739.9,167.7 740.5,170.0 741.2,169.3 741.8,169.0 742.5,172.9 743.1,175.8 743.7,182.4 744.4,177.2 745.0,179.8 745.7,180.4 746.3,185.4 747.0,189.6 747.6,193.9 748.3,180.2 748.9,176.7 749.6,175.8 750.2,178.7 750.8,181.8 751.5,173.9 752.1,172.5 752.8,171.6 753.4,170.4 754.1,172.3 754.7,171.4 755.4,168.1 756.0,144.4 756.6,148.4 757.3,159.6 757.9,148.9 758.6,157.4 759.2,151.2 759.9,133.5 760.5,148.9 761.2,152.1 761.8,143.4 762.5,145.2 763.1,142.3 763.7,139.9 764.4,136.3 765.0,142.6 765.7,144.6 766.3,147.4 767.0,149.1 767.6,151.6 768.3,150.6 768.9,153.5 769.6,158.3 770.2,163.8 770.8,156.6 771.5,153.8 772.1,154.9 772.8,149.7 773.4,150.8 774.1,150.6 774.7,153.4 775.4,146.9 776.0,147.9 776.6,154.7 777.3,155.0 777.9,164.3 778.6,161.4 779.2,167.0 779.9,169.0 780.5,164.3 781.2,163.0 781.8,158.6 782.5,165.7 783.1,161.7 783.7,161.1 784.4,158.8 785.0,164.5 785.7,167.5 786.3,168.2 787.0,162.3 787.6,160.1 788.3,160.3 788.9,163.4 789.5,165.7 790.2,168.2 790.8,172.7 791.5,175.4 792.1,175.2 792.8,180.1 793.4,185.2 794.1,180.3 794.7,185.0 795.4,193.4 796.0,197.1"/><polyline fill="none" stroke="#16a34a" stroke-width="3" points="78.0,162.7 78.6,162.8 79.3,162.9 79.9,162.9 80.6,162.6 81.2,162.6 81.9,162.6 82.5,162.6 83.2,162.9 83.8,162.9 84.5,162.8 85.1,162.8 85.7,162.8 86.4,162.9 87.0,162.6 87.7,162.6 88.3,162.5 89.0,162.5 89.6,162.5 90.3,162.5 90.9,162.5 91.5,162.5 92.2,162.5 92.8,162.7 93.5,162.6 94.1,162.6 94.8,162.6 95.4,162.6 96.1,162.5 96.7,162.5 97.4,162.5 98.0,162.5 98.6,162.5 99.3,162.6 99.9,162.6 100.6,162.6 101.2,162.6 101.9,162.6 102.5,162.6 103.2,162.5 103.8,162.5 104.4,162.5 105.1,162.5 105.7,162.4 106.4,162.3 107.0,162.4 107.7,162.1 108.3,162.0 109.0,162.0 109.6,162.1 110.3,162.0 110.9,162.0 111.5,162.0 112.2,162.0 112.8,162.0 113.5,162.0 114.1,162.2 114.8,162.1 115.4,162.2 116.1,161.9 116.7,162.1 117.4,162.1 118.0,162.1 118.6,162.2 119.3,162.2 119.9,162.2 120.6,162.4 121.2,162.5 121.9,162.5 122.5,162.5 123.2,162.5 123.8,162.5 124.4,162.5 125.1,162.4 125.7,162.5 126.4,162.5 127.0,162.5 127.7,162.5 128.3,162.4 129.0,162.4 129.6,162.4 130.3,162.4 130.9,162.4 131.5,162.1 132.2,162.3 132.8,162.3 133.5,162.2 134.1,162.2 134.8,162.2 135.4,162.2 136.1,162.3 136.7,162.2 137.3,162.2 138.0,162.2 138.6,162.2 139.3,162.2 139.9,162.2 140.6,162.2 141.2,162.2 141.9,162.3 142.5,162.3 143.2,162.2 143.8,162.2 144.4,162.2 145.1,162.2 145.7,162.2 146.4,162.2 147.0,162.2 147.7,162.2 148.3,162.1 149.0,162.1 149.6,162.1 150.3,162.1 150.9,162.1 151.5,162.1 152.2,162.1 152.8,161.8 153.5,161.8 154.1,161.8 154.8,161.9 155.4,161.9 156.1,161.9 156.7,161.8 157.3,161.8 158.0,161.8 158.6,161.8 159.3,161.8 159.9,161.8 160.6,161.8 161.2,161.8 161.9,161.8 162.5,161.7 163.2,161.8 163.8,161.7 164.4,161.8 165.1,161.7 165.7,161.7 166.4,161.8 167.0,162.1 167.7,162.1 168.3,161.8 169.0,162.1 169.6,161.8 170.2,161.8 170.9,161.8 171.5,161.8 172.2,161.8 172.8,161.8 173.5,161.8 174.1,161.8 174.8,161.7 175.4,161.7 176.1,161.8 176.7,161.8 177.3,161.8 178.0,161.8 178.6,161.7 179.3,161.7 179.9,161.7 180.6,161.7 181.2,161.7 181.9,161.7 182.5,161.7 183.2,161.7 183.8,161.6 184.4,161.6 185.1,161.6 185.7,161.5 186.4,161.6 187.0,161.6 187.7,161.5 188.3,161.5 189.0,161.5 189.6,161.5 190.2,161.4 190.9,161.4 191.5,161.3 192.2,161.3 192.8,161.3 193.5,161.2 194.1,161.3 194.8,161.2 195.4,161.2 196.1,161.2 196.7,161.1 197.3,161.1 198.0,161.1 198.6,161.1 199.3,161.3 199.9,161.2 200.6,161.1 201.2,161.2 201.9,161.1 202.5,161.1 203.2,161.1 203.8,161.2 204.4,161.4 205.1,161.3 205.7,161.3 206.4,161.2 207.0,160.7 207.7,160.7 208.3,160.7 209.0,160.8 209.6,160.8 210.2,160.6 210.9,160.7 211.5,160.3 212.2,160.1 212.8,160.1 213.5,160.1 214.1,160.1 214.8,160.2 215.4,160.4 216.1,160.4 216.7,160.5 217.3,160.3 218.0,160.1 218.6,160.8 219.3,160.3 219.9,160.7 220.6,160.7 221.2,160.7 221.9,160.7 222.5,160.7 223.1,160.7 223.8,160.5 224.4,160.3 225.1,160.3 225.7,160.1 226.4,160.0 227.0,160.0 227.7,160.0 228.3,160.0 229.0,159.9 229.6,159.9 230.2,159.9 230.9,159.9 231.5,159.9 232.2,159.8 232.8,159.7 233.5,159.7 234.1,159.7 234.8,159.5 235.4,159.5 236.1,159.5 236.7,159.3 237.3,159.6 238.0,159.4 238.6,159.4 239.3,159.4 239.9,159.4 240.6,159.3 241.2,159.3 241.9,159.5 242.5,159.2 243.1,159.2 243.8,159.2 244.4,159.2 245.1,159.5 245.7,159.5 246.4,159.4 247.0,159.3 247.7,159.4 248.3,159.3 249.0,159.3 249.6,159.3 250.2,159.1 250.9,159.1 251.5,159.3 252.2,159.3 252.8,159.3 253.5,159.3 254.1,159.3 254.8,159.3 255.4,159.3 256.0,159.3 256.7,159.3 257.3,159.2 258.0,159.2 258.6,159.2 259.3,159.2 259.9,159.1 260.6,159.1 261.2,158.9 261.9,158.8 262.5,158.8 263.1,158.8 263.8,158.6 264.4,158.5 265.1,158.8 265.7,158.6 266.4,158.5 267.0,158.5 267.7,158.5 268.3,158.5 269.0,158.5 269.6,158.5 270.2,158.5 270.9,158.5 271.5,158.5 272.2,158.5 272.8,158.5 273.5,158.5 274.1,158.5 274.8,158.5 275.4,158.4 276.0,158.4 276.7,158.5 277.3,158.3 278.0,158.3 278.6,158.3 279.3,158.3 279.9,158.3 280.6,158.3 281.2,158.1 281.9,158.0 282.5,157.8 283.1,157.8 283.8,158.0 284.4,157.7 285.1,157.7 285.7,157.2 286.4,157.2 287.0,157.2 287.7,157.2 288.3,157.2 288.9,157.2 289.6,157.5 290.2,157.6 290.9,157.3 291.5,157.3 292.2,157.3 292.8,157.2 293.5,157.2 294.1,157.2 294.8,157.2 295.4,157.2 296.0,157.2 296.7,157.2 297.3,157.2 298.0,157.2 298.6,157.2 299.3,157.2 299.9,157.2 300.6,157.1 301.2,157.1 301.9,157.1 302.5,157.0 303.1,157.1 303.8,157.0 304.4,157.0 305.1,157.0 305.7,157.0 306.4,156.8 307.0,156.8 307.7,156.8 308.3,156.8 308.9,156.7 309.6,156.6 310.2,156.6 310.9,156.3 311.5,156.3 312.2,156.3 312.8,155.8 313.5,156.0 314.1,156.0 314.8,156.1 315.4,156.2 316.0,156.2 316.7,156.2 317.3,156.2 318.0,156.2 318.6,156.1 319.3,156.5 319.9,156.2 320.6,156.4 321.2,156.4 321.8,156.4 322.5,156.4 323.1,156.4 323.8,156.4 324.4,156.2 325.1,156.4 325.7,156.3 326.4,156.4 327.0,156.4 327.7,156.3 328.3,156.3 328.9,156.0 329.6,156.1 330.2,156.1 330.9,156.1 331.5,156.1 332.2,156.1 332.8,156.1 333.5,156.0 334.1,156.0 334.8,155.9 335.4,155.9 336.0,155.9 336.7,155.9 337.3,155.5 338.0,155.6 338.6,155.6 339.3,155.6 339.9,155.6 340.6,155.9 341.2,155.9 341.8,155.9 342.5,155.9 343.1,155.9 343.8,155.9 344.4,155.9 345.1,155.9 345.7,155.9 346.4,155.9 347.0,155.9 347.7,155.8 348.3,155.8 348.9,155.8 349.6,155.8 350.2,155.8 350.9,155.8 351.5,155.8 352.2,155.8 352.8,155.8 353.5,155.7 354.1,155.7 354.7,155.7 355.4,155.7 356.0,155.7 356.7,155.7 357.3,155.7 358.0,155.7 358.6,155.6 359.3,155.6 359.9,155.5 360.6,155.5 361.2,155.5 361.8,155.6 362.5,155.6 363.1,155.3 363.8,155.3 364.4,155.4 365.1,155.3 365.7,155.3 366.4,155.1 367.0,155.1 367.7,155.1 368.3,155.2 368.9,155.2 369.6,155.2 370.2,155.1 370.9,155.1 371.5,155.1 372.2,155.1 372.8,155.1 373.5,155.1 374.1,154.9 374.7,155.0 375.4,155.0 376.0,155.1 376.7,155.1 377.3,155.1 378.0,155.1 378.6,155.0 379.3,155.1 379.9,155.4 380.6,155.4 381.2,155.4 381.8,155.4 382.5,155.3 383.1,155.1 383.8,155.1 384.4,154.8 385.1,154.7 385.7,154.7 386.4,154.7 387.0,154.6 387.6,154.6 388.3,154.6 388.9,154.4 389.6,154.4 390.2,154.6 390.9,154.6 391.5,154.6 392.2,154.7 392.8,154.6 393.5,154.8 394.1,154.6 394.7,154.4 395.4,154.4 396.0,154.5 396.7,166.2 397.3,154.6 398.0,153.9 398.6,154.6 399.3,153.5 399.9,154.6 400.6,155.3 401.2,154.1 401.8,154.0 402.5,154.1 403.1,154.1 403.8,155.9 404.4,154.8 405.1,154.1 405.7,186.3 406.4,197.2 407.0,188.0 407.6,148.8 408.3,153.6 408.9,163.0 409.6,160.7 410.2,98.9 410.9,128.0 411.5,145.5 412.2,162.2 412.8,150.7 413.5,153.1 414.1,149.6 414.7,154.8 415.4,178.5 416.0,172.4 416.7,180.9 417.3,186.1 418.0,176.9 418.6,180.5 419.3,181.0 419.9,159.9 420.5,141.5 421.2,147.6 421.8,139.4 422.5,139.8 423.1,143.9 423.8,152.0 424.4,154.8 425.1,148.6 425.7,135.9 426.4,146.0 427.0,142.8 427.6,151.9 428.3,148.2 428.9,147.6 429.6,149.8 430.2,149.0 430.9,154.1 431.5,162.2 432.2,169.6 432.8,184.7 433.5,175.8 434.1,178.7 434.7,170.3 435.4,160.8 436.0,158.5 436.7,153.4 437.3,148.0 438.0,150.0 438.6,158.4 439.3,181.5 439.9,168.2 440.5,162.5 441.2,162.2 441.8,162.2 442.5,171.4 443.1,172.2 443.8,175.9 444.4,173.3 445.1,178.7 445.7,169.6 446.4,168.1 447.0,154.3 447.6,154.7 448.3,148.7 448.9,153.8 449.6,178.6 450.2,162.7 450.9,162.2 451.5,155.1 452.2,154.3 452.8,156.6 453.5,152.8 454.1,157.2 454.7,160.1 455.4,155.7 456.0,160.1 456.7,156.1 457.3,163.0 458.0,160.7 458.6,152.1 459.3,151.1 459.9,152.7 460.5,152.7 461.2,150.6 461.8,151.3 462.5,151.4 463.1,151.3 463.8,151.3 464.4,151.3 465.1,152.9 465.7,159.2 466.4,163.7 467.0,165.2 467.6,164.8 468.3,164.2 468.9,159.4 469.6,154.4 470.2,156.3 470.9,155.5 471.5,159.2 472.2,157.8 472.8,155.6 473.4,159.8 474.1,162.4 474.7,160.8 475.4,162.5 476.0,162.7 476.7,163.9 477.3,161.1 478.0,162.7 478.6,163.9 479.3,161.6 479.9,164.6 480.5,167.2 481.2,172.1 481.8,165.5 482.5,168.5 483.1,162.3 483.8,165.2 484.4,168.4 485.1,167.1 485.7,169.9 486.4,162.5 487.0,162.0 487.6,162.5 488.3,163.4 488.9,164.8 489.6,166.0 490.2,168.7 490.9,172.2 491.5,173.1 492.2,176.6 492.8,173.6 493.4,176.0 494.1,179.2 494.7,180.1 495.4,182.0 496.0,186.3 496.7,193.7 497.3,196.0 498.0,195.6 498.6,189.0 499.3,184.0 499.9,185.2 500.5,185.0 501.2,188.5 501.8,182.5 502.5,190.1 503.1,189.0 503.8,188.7 504.4,195.4 505.1,190.3 505.7,186.9 506.3,185.3 507.0,191.0 507.6,192.4 508.3,193.5 508.9,190.5 509.6,193.2 510.2,191.1 510.9,192.2 511.5,193.5 512.2,191.9 512.8,193.4 513.4,191.7 514.1,189.8 514.7,189.9 515.4,190.1 516.0,192.9 516.7,195.9 517.3,196.6 518.0,195.6 518.6,198.8 519.3,199.2 519.9,198.3 520.5,196.2 521.2,199.8 521.8,198.3 522.5,198.9 523.1,196.4 523.8,190.3 524.4,192.1 525.1,190.5 525.7,190.2 526.3,196.2 527.0,198.7 527.6,201.7 528.3,203.5 528.9,203.3 529.6,201.6 530.2,205.7 530.9,204.0 531.5,199.6 532.2,196.2 532.8,196.4 533.4,193.4 534.1,192.2 534.7,194.3 535.4,182.4 536.0,178.7 536.7,184.0 537.3,184.9 538.0,181.3 538.6,182.8 539.2,185.9 539.9,191.1 540.5,197.7 541.2,196.4 541.8,193.6 542.5,196.4 543.1,200.1 543.8,194.5 544.4,189.2 545.1,192.4 545.7,191.9 546.3,195.0 547.0,192.1 547.6,192.5 548.3,195.3 548.9,192.6 549.6,194.6 550.2,193.5 550.9,193.5 551.5,181.9 552.2,177.3 552.8,177.0 553.4,181.1 554.1,183.9 554.7,174.9 555.4,180.1 556.0,184.1 556.7,186.3 557.3,188.9 558.0,189.4 558.6,179.0 559.2,179.6 559.9,182.1 560.5,182.4 561.2,182.2 561.8,175.4 562.5,172.9 563.1,205.5 563.8,202.8 564.4,197.7 565.1,208.4 565.7,214.4 566.3,223.1 567.0,239.3 567.6,263.1 568.3,245.8 568.9,255.0 569.6,265.4 570.2,267.5 570.9,276.7 571.5,273.7 572.1,283.8 572.8,291.6 573.4,302.1 574.1,277.7 574.7,274.7 575.4,280.5 576.0,287.6 576.7,295.3 577.3,290.4 578.0,282.7 578.6,282.7 579.2,288.8 579.9,294.5 580.5,292.0 581.2,293.6 581.8,294.9 582.5,304.9 583.1,308.7 583.8,314.7 584.4,317.0 585.1,317.0 585.7,315.8 586.3,316.4 587.0,314.7 587.6,302.1 588.3,306.9 588.9,311.5 589.6,304.0 590.2,309.4 590.9,305.9 591.5,308.4 592.1,282.0 592.8,269.0 593.4,282.3 594.1,278.8 594.7,270.9 595.4,277.4 596.0,291.2 596.7,304.9 597.3,301.6 598.0,307.4 598.6,317.5 599.2,313.1 599.9,304.9 600.5,307.9 601.2,301.6 601.8,296.2 602.5,303.5 603.1,306.9 603.8,307.9 604.4,299.8 605.0,306.9 605.7,308.9 606.3,315.8 607.0,312.0 607.6,315.3 608.3,313.1 608.9,315.3 609.6,311.0 610.2,307.4 610.9,308.9 611.5,310.5 612.1,314.7 612.8,316.4 613.4,317.0 614.1,314.7 614.7,315.3 615.4,313.1 616.0,314.7 616.7,317.5 617.3,313.1 618.0,312.6 618.6,315.3 619.2,304.9 619.9,286.8 620.5,255.5 621.2,264.2 621.8,281.2 622.5,270.9 623.1,273.1 623.8,269.3 624.4,262.5 625.0,240.8 625.7,253.2 626.3,242.5 627.0,249.6 627.6,241.6 628.3,244.7 628.9,250.8 629.6,254.7 630.2,260.9 630.9,255.3 631.5,256.3 632.1,256.8 632.8,234.0 633.4,231.9 634.1,227.1 634.7,225.0 635.4,235.6 636.0,233.0 636.7,223.9 637.3,229.4 637.9,227.4 638.6,232.7 639.2,247.0 639.9,247.0 640.5,238.4 641.2,237.6 641.8,238.9 642.5,230.0 643.1,235.2 643.8,229.4 644.4,222.4 645.0,217.6 645.7,218.9 646.3,216.7 647.0,204.1 647.6,204.2 648.3,200.3 648.9,206.1 649.6,204.8 650.2,203.8 650.9,195.3 651.5,198.3 652.1,191.6 652.8,195.8 653.4,196.4 654.1,199.6 654.7,204.6 655.4,204.1 656.0,205.7 656.7,204.7 657.3,200.0 657.9,203.8 658.6,206.0 659.2,199.2 659.9,199.3 660.5,193.6 661.2,195.9 661.8,197.5 662.5,192.0 663.1,188.1 663.8,191.1 664.4,193.5 665.0,193.5 665.7,189.9 666.3,196.0 667.0,195.9 667.6,199.3 668.3,189.1 668.9,178.7 669.6,179.9 670.2,150.7 670.8,162.1 671.5,149.4 672.1,132.1 672.8,130.6 673.4,96.2 674.1,76.5 674.7,98.1 675.4,110.4 676.0,104.8 676.7,109.7 677.3,124.2 677.9,130.3 678.6,138.0 679.2,130.4 679.9,141.9 680.5,148.0 681.2,150.7 681.8,142.4 682.5,142.1 683.1,155.2 683.8,154.8 684.4,157.9 685.0,161.7 685.7,156.4 686.3,159.8 687.0,164.0 687.6,164.5 688.3,171.7 688.9,169.6 689.6,176.8 690.2,177.0 690.8,179.2 691.5,187.6 692.1,188.7 692.8,185.6 693.4,186.5 694.1,185.0 694.7,177.4 695.4,185.1 696.0,177.7 696.7,177.0 697.3,162.7 697.9,161.4 698.6,164.2 699.2,159.7 699.9,170.2 700.5,167.1 701.2,168.9 701.8,178.0 702.5,180.6 703.1,187.2 703.8,188.1 704.4,184.4 705.0,179.3 705.7,179.0 706.3,177.2 707.0,182.2 707.6,187.2 708.3,191.1 708.9,190.8 709.6,178.5 710.2,167.1 710.8,149.2 711.5,137.3 712.1,138.9 712.8,130.7 713.4,131.8 714.1,138.7 714.7,116.6 715.4,119.6 716.0,117.8 716.7,120.0 717.3,129.2 717.9,114.3 718.6,105.7 719.2,115.0 719.9,115.1 720.5,120.5 721.2,135.9 721.8,140.7 722.5,144.2 723.1,129.8 723.7,141.5 724.4,157.2 725.0,154.6 725.7,148.2 726.3,154.8 727.0,156.7 727.6,163.6 728.3,168.4 728.9,167.6 729.6,167.9 730.2,167.1 730.8,169.9 731.5,159.8 732.1,156.7 732.8,156.5 733.4,155.6 734.1,161.1 734.7,156.1 735.4,163.8 736.0,162.1 736.7,165.2 737.3,172.2 737.9,171.0 738.6,161.5 739.2,164.6 739.9,167.7 740.5,170.0 741.2,169.3 741.8,169.0 742.5,172.9 743.1,175.8 743.7,182.4 744.4,177.2 745.0,179.8 745.7,180.4 746.3,185.4 747.0,189.6 747.6,193.9 748.3,180.2 748.9,176.7 749.6,175.8 750.2,178.7 750.8,181.8 751.5,173.9 752.1,172.5 752.8,171.6 753.4,170.4 754.1,172.3 754.7,171.4 755.4,168.1 756.0,144.4 756.6,148.4 757.3,159.6 757.9,148.9 758.6,157.4 759.2,151.2 759.9,133.5 760.5,148.9 761.2,152.1 761.8,143.4 762.5,145.2 763.1,142.3 763.7,139.9 764.4,136.3 765.0,142.6 765.7,144.6 766.3,147.4 767.0,149.1 767.6,151.6 768.3,150.6 768.9,153.5 769.6,158.3 770.2,163.8 770.8,156.6 771.5,153.8 772.1,154.9 772.8,149.7 773.4,150.8 774.1,150.6 774.7,153.4 775.4,146.9 776.0,147.9 776.6,154.7 777.3,155.0 777.9,164.3 778.6,161.4 779.2,167.0 779.9,169.0 780.5,164.3 781.2,163.0 781.8,158.6 782.5,165.7 783.1,161.7 783.7,161.1 784.4,158.8 785.0,164.5 785.7,167.5 786.3,168.2 787.0,162.3 787.6,160.1 788.3,160.3 788.9,163.4 789.5,165.7 790.2,168.2 790.8,172.7 791.5,175.4 792.1,175.2 792.8,180.1 793.4,185.2 794.1,180.3 794.7,185.0 795.4,193.4 796.0,197.1"/>
<text x="78" y="392" font-size="11" fill="#16a34a">Total return -35.6%</text><text x="268" y="392" font-size="11" fill="#2563eb">Price-only -35.6%</text><text x="78" y="362" font-size="11" text-anchor="middle" fill="#64748b">2022-02</text><text x="257" y="362" font-size="11" text-anchor="middle" fill="#64748b">2023-03</text><text x="437" y="362" font-size="11" text-anchor="middle" fill="#64748b">2024-04</text><text x="617" y="362" font-size="11" text-anchor="middle" fill="#64748b">2025-06</text><text x="796" y="362" font-size="11" text-anchor="middle" fill="#64748b">2026-07</text></svg>