<svg xmlns="http://www.w3.org/2000/svg" width="820" height="410" viewBox="0 0 820 410">
<rect width="820" height="410" fill="#fafafa"/><text x="78" y="22" font-size="14" font-family="sans-serif" fill="#0f172a">ASTS cumulative return since 2019-11-01 | dividends reinvested</text>
<text x="78" y="40" font-size="11" font-family="sans-serif" fill="#334155">Total return +489.7% | Price-only +489.7% | logarithmic scale</text>
<text x="78" y="54" font-size="9" font-family="sans-serif" fill="#64748b">Regular $0.00 | Special $0.00 | Other $0.00 per initial share path</text>
<line x1="78" y1="332.0" x2="796" y2="332.0" stroke="#e2e8f0"/><text x="70" y="336.0" font-size="10" text-anchor="end" fill="#64748b">-84.0%</text><line x1="78" y1="287.0" x2="796" y2="287.0" stroke="#e2e8f0"/><text x="70" y="291.0" font-size="10" text-anchor="end" fill="#64748b">-65.0%</text><line x1="78" y1="242.0" x2="796" y2="242.0" stroke="#e2e8f0"/><text x="70" y="246.0" font-size="10" text-anchor="end" fill="#64748b">-23.5%</text><line x1="78" y1="226.6" x2="796" y2="226.6" stroke="#e2e8f0"/><text x="70" y="230.6" font-size="10" text-anchor="end" fill="#64748b">0%</text><line x1="78" y1="197.0" x2="796" y2="197.0" stroke="#e2e8f0"/><text x="70" y="201.0" font-size="10" text-anchor="end" fill="#64748b">+67.4%</text><line x1="78" y1="152.0" x2="796" y2="152.0" stroke="#e2e8f0"/><text x="70" y="156.0" font-size="10" text-anchor="end" fill="#64748b">+266.2%</text><line x1="78" y1="107.0" x2="796" y2="107.0" stroke="#e2e8f0"/><text x="70" y="111.0" font-size="10" text-anchor="end" fill="#64748b">+700.9%</text><line x1="78" y1="62.0" x2="796" y2="62.0" stroke="#e2e8f0"/><text x="70" y="66.0" font-size="10" text-anchor="end" fill="#64748b">+1,652%</text>
<line x1="78" y1="332" x2="796" y2="332" stroke="#cbd5e1"/>
<polyline fill="none" stroke="#2563eb" stroke-width="2" points="78.0,226.6 78.4,226.6 78.9,226.6 79.3,226.6 79.7,226.6 80.1,226.6 80.6,226.6 81.0,224.6 81.4,224.6 81.8,224.6 82.3,224.5 82.7,224.4 83.1,226.4 83.5,226.3 84.0,226.3 84.4,226.3 84.8,226.3 85.3,226.3 85.7,226.3 86.1,226.3 86.5,226.3 87.0,226.3 87.4,226.2 87.8,226.2 88.2,226.2 88.7,226.3 89.1,226.3 89.5,226.3 89.9,226.2 90.4,226.2 90.8,226.2 91.2,226.1 91.7,226.2 92.1,226.0 92.5,226.0 92.9,226.0 93.4,226.0 93.8,226.0 94.2,226.0 94.6,226.0 95.1,226.0 95.5,226.0 95.9,225.9 96.3,225.9 96.8,225.7 97.2,225.7 97.6,225.7 98.1,225.9 98.5,225.9 98.9,225.6 99.3,225.6 99.8,225.6 100.2,225.6 100.6,225.4 101.0,225.3 101.5,225.3 101.9,225.3 102.3,225.3 102.7,225.1 103.2,225.2 103.6,225.2 104.0,225.3 104.5,225.2 104.9,225.3 105.3,225.3 105.7,225.3 106.2,225.3 106.6,225.2 107.0,225.3 107.4,225.3 107.9,225.2 108.3,225.3 108.7,225.2 109.1,225.2 109.6,225.2 110.0,225.2 110.4,225.2 110.8,225.3 111.3,225.2 111.7,225.4 112.1,225.4 112.6,225.4 113.0,225.4 113.4,225.4 113.8,225.5 114.3,225.4 114.7,225.6 115.1,225.8 115.5,225.8 116.0,226.5 116.4,226.4 116.8,227.6 117.2,227.6 117.7,228.1 118.1,228.2 118.5,228.2 119.0,228.2 119.4,227.5 119.8,227.1 120.2,226.9 120.7,226.4 121.1,226.4 121.5,226.6 121.9,224.7 122.4,225.6 122.8,226.2 123.2,226.3 123.6,226.3 124.1,226.0 124.5,226.4 124.9,226.2 125.4,226.0 125.8,226.0 126.2,226.0 126.6,226.2 127.1,226.2 127.5,226.2 127.9,226.2 128.3,225.9 128.8,225.7 129.2,225.7 129.6,225.7 130.0,226.0 130.5,226.0 130.9,225.7 131.3,225.7 131.8,225.7 132.2,225.8 132.6,225.8 133.0,225.9 133.5,225.9 133.9,225.9 134.3,225.9 134.7,225.9 135.2,225.9 135.6,225.9 136.0,225.9 136.4,225.9 136.9,225.9 137.3,225.9 137.7,225.9 138.2,225.9 138.6,225.9 139.0,226.0 139.4,225.7 139.9,225.7 140.3,225.7 140.7,225.7 141.1,225.7 141.6,225.5 142.0,225.7 142.4,225.7 142.8,225.7 143.3,225.7 143.7,225.7 144.1,225.5 144.6,225.5 145.0,225.5 145.4,225.2 145.8,225.0 146.3,224.8 146.7,225.1 147.1,225.1 147.5,225.1 148.0,224.4 148.4,224.8 148.8,224.4 149.2,224.0 149.7,224.1 150.1,224.3 150.5,224.7 151.0,224.6 151.4,224.7 151.8,224.6 152.2,224.6 152.7,224.3 153.1,224.3 153.5,224.5 153.9,224.1 154.4,223.8 154.8,223.6 155.2,223.6 155.6,224.1 156.1,224.1 156.5,223.6 156.9,224.1 157.4,224.3 157.8,224.3 158.2,224.2 158.6,224.1 159.1,224.1 159.5,224.1 159.9,224.4 160.3,224.8 160.8,224.9 161.2,224.9 161.6,224.7 162.0,224.9 162.5,225.1 162.9,225.1 163.3,224.9 163.8,225.1 164.2,225.2 164.6,225.0 165.0,225.1 165.5,225.0 165.9,224.9 166.3,224.8 166.7,224.7 167.2,224.7 167.6,224.4 168.0,225.0 168.4,225.0 168.9,224.7 169.3,224.4 169.7,224.3 170.1,224.7 170.6,224.8 171.0,224.8 171.4,224.1 171.9,224.4 172.3,224.4 172.7,224.6 173.1,224.4 173.6,224.3 174.0,224.7 174.4,224.7 174.8,224.7 175.3,224.7 175.7,224.9 176.1,224.9 176.5,224.7 177.0,224.4 177.4,224.8 177.8,224.7 178.3,224.7 178.7,224.7 179.1,224.7 179.5,224.6 180.0,224.7 180.4,224.7 180.8,224.8 181.2,224.2 181.7,224.2 182.1,224.4 182.5,224.6 182.9,224.5 183.4,224.7 183.8,224.7 184.2,224.1 184.7,225.0 185.1,225.0 185.5,225.0 185.9,225.4 186.4,225.4 186.8,225.4 187.2,225.2 187.6,225.1 188.1,224.9 188.5,224.9 188.9,224.7 189.3,224.7 189.8,224.8 190.2,224.8 190.6,224.4 191.1,224.7 191.5,224.4 191.9,224.6 192.3,224.7 192.8,224.6 193.2,224.6 193.6,224.6 194.0,224.1 194.5,224.1 194.9,224.1 195.3,224.1 195.7,224.0 196.2,223.8 196.6,223.8 197.0,223.1 197.5,223.5 197.9,223.5 198.3,223.5 198.7,217.3 199.2,219.8 199.6,219.8 200.0,217.0 200.4,214.6 200.9,211.8 201.3,208.4 201.7,204.5 202.1,205.9 202.6,208.9 203.0,207.7 203.4,210.4 203.9,209.8 204.3,210.5 204.7,211.2 205.1,211.6 205.6,212.4 206.0,211.5 206.4,208.7 206.8,204.1 207.3,203.9 207.7,197.5 208.1,198.1 208.5,197.6 209.0,198.7 209.4,202.6 209.8,205.2 210.3,210.1 210.7,205.8 211.1,208.0 211.5,204.1 212.0,204.4 212.4,201.9 212.8,196.5 213.2,198.1 213.7,189.6 214.1,178.7 214.5,181.9 214.9,182.9 215.4,185.2 215.8,183.9 216.2,187.2 216.7,188.5 217.1,187.3 217.5,193.0 217.9,196.8 218.4,200.1 218.8,206.1 219.2,206.6 219.6,201.1 220.1,208.9 220.5,212.4 220.9,212.5 221.3,210.7 221.8,216.0 222.2,215.0 222.6,215.1 223.1,208.9 223.5,206.8 223.9,207.6 224.3,210.5 224.8,210.2 225.2,213.2 225.6,212.5 226.0,207.4 226.5,210.7 226.9,214.8 227.3,214.7 227.7,213.0 228.2,216.2 228.6,217.5 229.0,216.4 229.4,217.8 229.9,211.9 230.3,216.8 230.7,215.7 231.2,221.0 231.6,225.3 232.0,227.1 232.4,232.9 232.9,234.4 233.3,235.0 233.7,239.5 234.1,244.6 234.6,238.0 235.0,237.6 235.4,233.0 235.8,228.3 236.3,228.0 236.7,230.3 237.1,230.8 237.6,232.2 238.0,232.8 238.4,236.9 238.8,236.6 239.3,240.5 239.7,239.7 240.1,236.1 240.5,240.2 241.0,240.5 241.4,243.0 241.8,243.0 242.2,242.0 242.7,243.7 243.1,241.1 243.5,241.1 244.0,241.3 244.4,241.2 244.8,241.5 245.2,243.2 245.7,243.0 246.1,243.1 246.5,244.0 246.9,245.1 247.4,242.6 247.8,237.5 248.2,236.5 248.6,238.0 249.1,214.1 249.5,221.8 249.9,226.7 250.4,224.4 250.8,226.4 251.2,223.2 251.6,219.7 252.1,219.9 252.5,222.4 252.9,227.2 253.3,227.0 253.8,227.8 254.2,227.1 254.6,222.5 255.0,223.6 255.5,224.1 255.9,210.5 256.3,210.4 256.8,209.6 257.2,207.9 257.6,212.2 258.0,212.6 258.5,211.3 258.9,208.9 259.3,212.6 259.7,215.8 260.2,221.7 260.6,219.8 261.0,221.1 261.4,217.8 261.9,216.7 262.3,216.2 262.7,213.9 263.2,216.1 263.6,219.3 264.0,220.5 264.4,221.5 264.9,221.0 265.3,218.4 265.7,221.2 266.1,219.7 266.6,219.8 267.0,221.8 267.4,222.5 267.8,222.9 268.3,225.3 268.7,227.1 269.1,228.0 269.6,230.8 270.0,236.2 270.4,234.4 270.8,237.2 271.3,235.2 271.7,229.7 272.1,228.6 272.5,228.6 273.0,219.4 273.4,219.9 273.8,213.1 274.2,213.2 274.7,213.6 275.1,213.0 275.5,213.1 276.0,216.1 276.4,215.4 276.8,215.4 277.2,216.4 277.7,214.9 278.1,218.1 278.5,219.1 278.9,216.4 279.4,210.4 279.8,217.0 280.2,217.9 280.6,218.4 281.1,215.1 281.5,216.4 281.9,214.2 282.4,217.9 282.8,219.5 283.2,220.8 283.6,222.3 284.1,223.0 284.5,222.9 284.9,224.1 285.3,223.1 285.8,224.9 286.2,224.8 286.6,221.0 287.0,220.5 287.5,221.7 287.9,224.1 288.3,223.3 288.7,223.4 289.2,222.5 289.6,222.8 290.0,224.0 290.5,220.9 290.9,219.5 291.3,220.9 291.7,218.8 292.2,218.8 292.6,216.1 293.0,215.5 293.4,214.5 293.9,212.6 294.3,213.9 294.7,215.8 295.1,212.5 295.6,215.1 296.0,212.5 296.4,210.9 296.9,212.4 297.3,212.6 297.7,214.4 298.1,215.5 298.6,216.2 299.0,217.2 299.4,221.6 299.8,220.4 300.3,220.4 300.7,223.1 301.1,225.5 301.5,228.3 302.0,228.6 302.4,229.8 302.8,235.2 303.3,229.5 303.7,228.3 304.1,231.2 304.5,233.2 305.0,234.6 305.4,235.9 305.8,235.2 306.2,236.8 306.7,235.2 307.1,237.4 307.5,235.4 307.9,234.9 308.4,233.2 308.8,235.9 309.2,238.0 309.7,239.8 310.1,237.1 310.5,238.5 310.9,236.6 311.4,238.5 311.8,243.9 312.2,242.5 312.6,242.1 313.1,245.4 313.5,243.8 313.9,246.5 314.3,249.9 314.8,249.9 315.2,253.4 315.6,254.1 316.1,253.8 316.5,258.6 316.9,259.2 317.3,261.6 317.8,262.7 318.2,263.7 318.6,262.1 319.0,257.1 319.5,254.8 319.9,256.4 320.3,260.2 320.7,257.4 321.2,257.3 321.6,258.3 322.0,252.3 322.5,255.7 322.9,257.3 323.3,255.3 323.7,249.2 324.2,246.9 324.6,251.1 325.0,248.6 325.4,251.9 325.9,251.7 326.3,247.5 326.7,246.1 327.1,245.1 327.6,245.0 328.0,245.4 328.4,245.3 328.9,247.2 329.3,251.9 329.7,247.9 330.1,226.6 330.6,227.8 331.0,228.2 331.4,233.2 331.8,235.8 332.3,230.1 332.7,228.7 333.1,225.1 333.5,225.9 334.0,224.0 334.4,226.4 334.8,222.6 335.3,223.3 335.7,221.2 336.1,220.0 336.5,223.6 337.0,225.4 337.4,222.0 337.8,222.7 338.2,223.7 338.7,222.9 339.1,223.6 339.5,225.2 339.9,225.7 340.4,226.8 340.8,227.0 341.2,230.4 341.7,237.0 342.1,236.4 342.5,237.5 342.9,239.4 343.4,242.4 343.8,240.1 344.2,243.3 344.6,244.3 345.1,238.8 345.5,241.6 345.9,238.4 346.3,234.6 346.8,231.9 347.2,234.8 347.6,233.0 348.0,240.8 348.5,246.1 348.9,245.6 349.3,241.0 349.8,240.5 350.2,245.7 350.6,242.2 351.0,243.5 351.5,244.9 351.9,240.1 352.3,239.7 352.7,244.7 353.2,243.1 353.6,241.3 354.0,236.2 354.4,235.9 354.9,236.2 355.3,233.0 355.7,234.8 356.2,240.3 356.6,240.4 357.0,242.8 357.4,245.0 357.9,250.9 358.3,249.8 358.7,253.1 359.1,251.5 359.6,253.6 360.0,251.0 360.4,249.7 360.8,249.2 361.3,247.5 361.7,248.2 362.1,250.2 362.6,251.5 363.0,250.9 363.4,252.0 363.8,251.6 364.3,250.1 364.7,252.6 365.1,249.2 365.5,249.8 366.0,247.6 366.4,249.5 366.8,252.6 367.2,251.4 367.7,250.7 368.1,251.9 368.5,249.3 369.0,248.7 369.4,248.7 369.8,251.2 370.2,251.3 370.7,254.1 371.1,251.2 371.5,244.7 371.9,245.5 372.4,246.5 372.8,248.5 373.2,243.3 373.6,239.4 374.1,238.8 374.5,241.4 374.9,236.1 375.4,230.3 375.8,220.5 376.2,216.6 376.6,211.3 377.1,206.2 377.5,208.7 377.9,214.0 378.3,213.4 378.8,217.6 379.2,212.7 379.6,213.1 380.0,218.7 380.5,215.4 380.9,213.9 381.3,214.9 381.8,214.7 382.2,217.6 382.6,220.1 383.0,219.9 383.5,223.9 383.9,225.2 384.3,221.1 384.7,220.6 385.2,225.9 385.6,224.5 386.0,231.3 386.4,234.5 386.9,233.0 387.3,234.8 387.7,236.0 388.2,239.3 388.6,244.9 389.0,245.1 389.4,246.5 389.9,242.5 390.3,245.1 390.7,244.0 391.1,244.5 391.6,242.0 392.0,244.7 392.4,241.8 392.8,244.3 393.3,243.3 393.7,244.7 394.1,245.3 394.6,243.5 395.0,243.5 395.4,241.4 395.8,244.3 396.3,247.1 396.7,248.9 397.1,251.3 397.5,254.8 398.0,251.8 398.4,253.3 398.8,255.5 399.2,249.9 399.7,243.9 400.1,246.9 400.5,251.6 401.0,252.7 401.4,248.2 401.8,242.4 402.2,243.6 402.7,248.9 403.1,242.3 403.5,232.4 403.9,238.2 404.4,241.8 404.8,248.3 405.2,247.8 405.6,249.2 406.1,250.0 406.5,250.2 406.9,248.7 407.3,249.0 407.8,251.4 408.2,251.5 408.6,256.9 409.1,257.1 409.5,256.4 409.9,258.8 410.3,266.7 410.8,270.7 411.2,271.5 411.6,274.2 412.0,272.8 412.5,278.5 412.9,278.5 413.3,280.3 413.7,280.0 414.2,280.8 414.6,282.8 415.0,281.4 415.5,281.1 415.9,278.4 416.3,283.2 416.7,281.5 417.2,273.4 417.6,267.2 418.0,271.7 418.4,269.9 418.9,270.7 419.3,268.1 419.7,267.7 420.1,266.5 420.6,264.9 421.0,261.5 421.4,263.0 421.9,259.7 422.3,264.0 422.7,264.9 423.1,263.4 423.6,261.6 424.0,263.2 424.4,262.7 424.8,264.1 425.3,261.3 425.7,263.9 426.1,260.9 426.5,258.9 427.0,255.9 427.4,253.8 427.8,254.3 428.3,254.2 428.7,255.5 429.1,255.1 429.5,255.9 430.0,254.8 430.4,252.8 430.8,250.1 431.2,252.2 431.7,250.3 432.1,255.8 432.5,253.7 432.9,254.0 433.4,255.0 433.8,251.5 434.2,250.6 434.7,254.8 435.1,255.8 435.5,252.4 435.9,246.0 436.4,247.5 436.8,246.6 437.2,250.9 437.6,254.6 438.1,255.2 438.5,253.1 438.9,254.2 439.3,251.9 439.8,253.4 440.2,254.3 440.6,252.8 441.1,255.5 441.5,256.5 441.9,255.2 442.3,256.2 442.8,258.4 443.2,251.4 443.6,250.8 444.0,264.2 444.5,267.1 444.9,271.3 445.3,274.5 445.7,273.0 446.2,271.5 446.6,271.5 447.0,272.9 447.5,277.0 447.9,279.9 448.3,273.8 448.7,272.0 449.2,270.8 449.6,272.1 450.0,273.9 450.4,273.0 450.9,272.0 451.3,263.4 451.7,263.2 452.1,261.7 452.6,268.7 453.0,269.4 453.4,268.2 453.9,267.7 454.3,264.5 454.7,264.6 455.1,263.3 455.6,263.6 456.0,263.7 456.4,263.6 456.8,265.5 457.3,266.0 457.7,262.2 458.1,262.2 458.5,262.0 459.0,257.6 459.4,260.2 459.8,262.3 460.3,263.4 460.7,260.0 461.1,260.3 461.5,260.5 462.0,258.6 462.4,258.4 462.8,257.9 463.2,256.3 463.7,256.7 464.1,256.6 464.5,257.1 464.9,255.9 465.4,255.2 465.8,255.4 466.2,257.0 466.7,255.4 467.1,253.5 467.5,251.9 467.9,247.2 468.4,247.0 468.8,248.1 469.2,251.2 469.6,269.4 470.1,268.9 470.5,268.7 470.9,269.2 471.3,272.9 471.8,275.2 472.2,275.9 472.6,272.5 473.0,271.8 473.5,272.6 473.9,272.1 474.3,274.6 474.8,277.5 475.2,276.0 475.6,276.6 476.0,277.8 476.5,278.4 476.9,279.4 477.3,280.5 477.7,278.8 478.2,279.1 478.6,274.6 479.0,273.9 479.4,274.5 479.9,275.6 480.3,274.3 480.7,274.6 481.2,272.6 481.6,269.6 482.0,272.0 482.4,274.1 482.9,274.5 483.3,272.9 483.7,282.7 484.1,283.6 484.6,279.4 485.0,280.2 485.4,279.4 485.8,281.4 486.3,281.4 486.7,282.6 487.1,281.7 487.6,278.0 488.0,277.5 488.4,278.5 488.8,279.1 489.3,278.1 489.7,279.7 490.1,279.4 490.5,280.9 491.0,280.3 491.4,279.6 491.8,277.3 492.2,277.7 492.7,280.3 493.1,280.3 493.5,280.8 494.0,276.0 494.4,277.4 494.8,280.8 495.2,279.1 495.7,281.4 496.1,283.4 496.5,282.5 496.9,282.3 497.4,280.9 497.8,282.1 498.2,283.4 498.6,281.2 499.1,281.7 499.5,282.1 499.9,289.6 500.4,283.9 500.8,286.6 501.2,289.9 501.6,293.4 502.1,291.3 502.5,288.7 502.9,292.8 503.3,294.7 503.8,295.9 504.2,299.7 504.6,297.1 505.0,296.1 505.5,289.9 505.9,293.6 506.3,290.1 506.8,288.9 507.2,286.1 507.6,281.4 508.0,276.0 508.5,277.8 508.9,278.4 509.3,276.7 509.7,276.1 510.2,273.7 510.6,278.0 511.0,281.4 511.4,269.2 511.9,270.3 512.3,267.1 512.7,267.7 513.2,273.7 513.6,273.1 514.0,267.0 514.4,268.0 514.9,270.2 515.3,264.9 515.7,266.9 516.1,263.1 516.6,265.7 517.0,267.1 517.4,264.0 517.8,263.9 518.3,259.9 518.7,262.4 519.1,263.6 519.6,262.4 520.0,259.8 520.4,260.3 520.8,261.6 521.3,259.0 521.7,263.2 522.1,256.5 522.5,254.0 523.0,252.9 523.4,251.3 523.8,253.0 524.2,254.4 524.7,266.9 525.1,266.0 525.5,267.2 526.0,265.0 526.4,265.8 526.8,266.4 527.2,265.7 527.7,274.2 528.1,275.6 528.5,276.1 528.9,274.1 529.4,275.7 529.8,292.8 530.2,292.6 530.6,292.3 531.1,293.0 531.5,295.5 531.9,298.7 532.3,293.2 532.8,296.1 533.2,297.1 533.6,296.5 534.1,297.7 534.5,299.1 534.9,296.9 535.3,302.6 535.8,291.2 536.2,286.8 536.6,285.3 537.0,291.3 537.5,288.7 537.9,287.1 538.3,286.8 538.7,288.7 539.2,291.5 539.6,292.8 540.0,295.5 540.5,290.8 540.9,287.7 541.3,291.0 541.7,291.3 542.2,290.6 542.6,292.3 543.0,294.3 543.4,292.6 543.9,295.5 544.3,294.3 544.7,293.6 545.1,294.9 545.6,292.6 546.0,293.7 546.4,291.9 546.9,295.1 547.3,297.3 547.7,295.5 548.1,298.9 548.6,299.3 549.0,297.7 549.4,298.3 549.8,297.3 550.3,296.5 550.7,302.1 551.1,317.5 551.5,309.3 552.0,311.1 552.4,312.2 552.8,310.5 553.3,309.5 553.7,313.9 554.1,314.7 554.5,314.2 555.0,315.6 555.4,317.3 555.8,316.4 556.2,313.9 556.7,315.3 557.1,313.4 557.5,313.7 557.9,313.9 558.4,312.6 558.8,311.6 559.2,309.0 559.7,312.1 560.1,310.8 560.5,309.8 560.9,306.2 561.4,305.5 561.8,309.3 562.2,309.8 562.6,308.3 563.1,310.8 563.5,311.3 563.9,304.8 564.3,307.6 564.8,277.5 565.2,270.7 565.6,262.0 566.1,268.6 566.5,269.3 566.9,276.0 567.3,268.2 567.8,261.5 568.2,231.2 568.6,235.2 569.0,236.2 569.5,235.4 569.9,233.5 570.3,232.7 570.7,229.3 571.2,233.8 571.6,234.8 572.0,226.0 572.5,226.7 572.9,225.4 573.3,224.0 573.7,216.0 574.2,217.8 574.6,218.7 575.0,224.8 575.4,223.4 575.9,219.9 576.3,218.6 576.7,217.5 577.1,216.7 577.6,220.6 578.0,221.3 578.4,217.9 578.9,212.9 579.3,214.3 579.7,214.1 580.1,215.4 580.6,215.3 581.0,210.2 581.4,208.1 581.8,207.1 582.3,208.5 582.7,213.0 583.1,210.9 583.5,211.1 584.0,206.6 584.4,208.6 584.8,196.0 585.3,188.9 585.7,188.8 586.1,193.0 586.5,183.5 587.0,184.2 587.4,189.9 587.8,189.6 588.2,186.8 588.7,186.5 589.1,179.1 589.5,182.1 589.9,186.2 590.4,182.7 590.8,183.2 591.2,159.6 591.6,160.2 592.1,147.6 592.5,154.4 592.9,150.9 593.4,154.7 593.8,156.9 594.2,155.3 594.6,160.0 595.1,166.4 595.5,163.6 595.9,164.0 596.3,163.3 596.8,156.5 597.2,165.2 597.6,170.1 598.0,170.5 598.5,170.1 598.9,166.3 599.3,168.6 599.8,162.4 600.2,162.4 600.6,166.1 601.0,165.5 601.5,164.9 601.9,169.3 602.3,169.0 602.7,170.7 603.2,174.0 603.6,175.4 604.0,171.9 604.4,170.0 604.9,174.7 605.3,175.3 605.7,176.9 606.2,170.1 606.6,172.8 607.0,174.5 607.4,178.4 607.9,177.2 608.3,174.5 608.7,172.3 609.1,174.4 609.6,165.6 610.0,165.1 610.4,165.8 610.8,166.8 611.3,166.3 611.7,169.8 612.1,172.4 612.6,171.2 613.0,168.8 613.4,168.2 613.8,172.3 614.3,175.4 614.7,175.3 615.1,175.1 615.5,174.6 616.0,178.6 616.4,181.4 616.8,180.0 617.2,173.2 617.7,174.3 618.1,166.3 618.5,168.6 619.0,174.4 619.4,170.8 619.8,170.0 620.2,176.0 620.7,174.6 621.1,174.7 621.5,174.5 621.9,176.4 622.4,176.7 622.8,175.4 623.2,176.9 623.6,177.6 624.1,178.3 624.5,178.6 624.9,171.9 625.4,170.4 625.8,174.1 626.2,176.0 626.6,176.6 627.1,176.2 627.5,174.2 627.9,173.1 628.3,176.5 628.8,177.4 629.2,177.7 629.6,176.8 630.0,176.2 630.5,173.3 630.9,177.6 631.3,180.5 631.8,182.4 632.2,180.9 632.6,175.0 633.0,174.6 633.5,177.4 633.9,178.6 634.3,179.0 634.7,182.4 635.2,184.1 635.6,181.2 636.0,182.6 636.4,183.2 636.9,177.1 637.3,178.7 637.7,186.0 638.2,184.4 638.6,187.9 639.0,185.0 639.4,192.4 639.9,190.8 640.3,184.7 640.7,181.4 641.1,177.2 641.6,173.3 642.0,167.9 642.4,169.2 642.8,160.0 643.3,165.3 643.7,166.9 644.1,162.0 644.6,158.2 645.0,160.4 645.4,159.9 645.8,159.1 646.3,164.8 646.7,164.9 647.1,170.0 647.5,167.7 648.0,170.2 648.4,167.9 648.8,171.2 649.2,164.9 649.7,155.3 650.1,158.1 650.5,155.9 650.9,163.8 651.4,164.7 651.8,167.0 652.2,170.1 652.7,165.8 653.1,166.0 653.5,169.8 653.9,171.1 654.4,173.3 654.8,171.0 655.2,163.5 655.6,165.0 656.1,167.6 656.5,170.8 656.9,174.8 657.3,178.1 657.8,180.3 658.2,178.9 658.6,181.1 659.1,185.2 659.5,181.7 659.9,184.6 660.3,174.6 660.8,177.1 661.2,176.7 661.6,177.6 662.0,177.6 662.5,178.9 662.9,176.4 663.3,183.3 663.7,181.8 664.2,178.9 664.6,174.8 665.0,175.5 665.5,174.4 665.9,175.2 666.3,176.9 666.7,177.3 667.2,169.4 667.6,173.2 668.0,172.4 668.4,171.9 668.9,172.0 669.3,170.9 669.7,167.8 670.1,169.1 670.6,169.8 671.0,169.8 671.4,168.9 671.9,173.5 672.3,172.5 672.7,175.4 673.1,174.0 673.6,174.7 674.0,173.0 674.4,173.1 674.8,176.0 675.3,177.2 675.7,174.6 676.1,172.2 676.5,164.7 677.0,160.5 677.4,159.9 677.8,153.6 678.3,152.1 678.7,150.9 679.1,150.2 679.5,148.0 680.0,142.9 680.4,145.4 680.8,139.6 681.2,137.6 681.7,132.5 682.1,129.2 682.5,132.8 682.9,132.0 683.4,133.5 683.8,136.6 684.2,138.7 684.7,137.9 685.1,138.0 685.5,137.9 685.9,138.2 686.4,142.1 686.8,140.1 687.2,138.1 687.6,135.3 688.1,131.5 688.5,129.8 688.9,124.8 689.3,124.2 689.8,125.6 690.2,125.1 690.6,123.3 691.1,122.2 691.5,128.0 691.9,128.1 692.3,129.3 692.8,128.0 693.2,129.2 693.6,130.0 694.0,131.2 694.5,129.9 694.9,130.7 695.3,135.4 695.7,136.8 696.2,137.6 696.6,133.0 697.0,132.7 697.5,134.5 697.9,135.0 698.3,134.9 698.7,138.9 699.2,138.7 699.6,138.8 700.0,136.2 700.4,132.7 700.9,132.3 701.3,134.8 701.7,134.0 702.1,134.0 702.6,134.2 703.0,138.5 703.4,143.0 703.9,142.2 704.3,144.5 704.7,150.2 705.1,149.2 705.6,148.0 706.0,147.5 706.4,144.2 706.8,145.0 707.3,143.9 707.7,143.5 708.1,138.7 708.5,134.1 709.0,127.5 709.4,127.8 709.8,133.5 710.2,133.8 710.7,134.1 711.1,133.8 711.5,125.3 712.0,116.7 712.4,115.3 712.8,111.1 713.2,109.6 713.7,104.9 714.1,101.0 714.5,104.3 714.9,98.6 715.4,96.2 715.8,95.4 716.2,99.3 716.6,103.3 717.1,103.7 717.5,106.7 717.9,112.3 718.4,112.0 718.8,110.4 719.2,106.1 719.6,107.4 720.1,105.7 720.5,108.2 720.9,105.5 721.3,112.5 721.8,113.4 722.2,113.1 722.6,117.4 723.0,114.1 723.5,114.5 723.9,115.2 724.3,118.1 724.8,120.9 725.2,120.9 725.6,125.6 726.0,124.0 726.5,124.2 726.9,132.0 727.3,131.2 727.7,127.3 728.2,126.7 728.6,126.7 729.0,126.0 729.4,129.8 729.9,125.3 730.3,120.9 730.7,111.3 731.2,110.3 731.6,110.2 732.0,111.1 732.4,106.4 732.9,102.4 733.3,108.2 733.7,115.2 734.1,114.8 734.6,120.5 735.0,116.9 735.4,108.8 735.8,101.3 736.3,101.8 736.7,107.1 737.1,111.8 737.6,112.2 738.0,109.7 738.4,111.3 738.8,103.3 739.3,98.4 739.7,94.4 740.1,101.8 740.5,98.6 741.0,94.3 741.4,93.8 741.8,97.2 742.2,95.7 742.7,92.2 743.1,84.5 743.5,86.2 744.0,90.9 744.4,84.2 744.8,85.6 745.2,90.2 745.7,86.7 746.1,81.8 746.5,81.4 746.9,86.8 747.4,90.3 747.8,84.5 748.2,90.9 748.6,96.9 749.1,91.9 749.5,91.7 749.9,95.1 750.4,94.7 750.8,104.2 751.2,104.0 751.6,103.6 752.1,102.6 752.5,101.3 752.9,105.6 753.3,103.0 753.8,101.7 754.2,104.1 754.6,101.7 755.0,106.3 755.5,101.0 755.9,97.3 756.3,90.2 756.8,96.5 757.2,99.3 757.6,99.1 758.0,100.6 758.5,100.1 758.9,100.8 759.3,101.3 759.7,99.5 760.2,95.4 760.6,98.5 761.0,96.4 761.4,99.0 761.9,100.0 762.3,100.9 762.7,95.2 763.2,100.3 763.6,106.7 764.0,110.4 764.4,103.7 764.9,102.9 765.3,97.3 765.7,96.0 766.1,97.3 766.6,95.0 767.0,97.9 767.4,95.9 767.8,93.5 768.3,99.9 768.7,101.0 769.1,98.4 769.5,101.9 770.0,105.0 770.4,105.7 770.8,102.5 771.3,106.6 771.7,108.4 772.1,107.8 772.5,111.9 773.0,113.5 773.4,110.3 773.8,112.7 774.2,114.7 774.7,118.7 775.1,112.9 775.5,117.4 775.9,109.4 776.4,103.9 776.8,111.0 777.2,109.6 777.7,103.6 778.1,103.2 778.5,101.0 778.9,100.2 779.4,99.2 779.8,95.1 780.2,89.6 780.6,82.6 781.1,78.0 781.5,76.5 781.9,85.7 782.3,89.7 782.8,83.3 783.2,88.6 783.6,88.9 784.1,96.7 784.5,97.7 784.9,99.8 785.3,100.7 785.8,94.3 786.2,104.0 786.6,100.5 787.0,104.1 787.5,102.0 787.9,105.3 788.3,110.8 788.7,111.1 789.2,115.1 789.6,117.1 790.0,112.2 790.5,101.1 790.9,99.7 791.3,101.5 791.7,102.2 792.2,105.3 792.6,110.0 793.0,109.5 793.4,110.3 793.9,110.7 794.3,115.4 794.7,114.4 795.1,116.5 795.6,127.3 796.0,124.6"/><polyline fill="none" stroke="#16a34a" stroke-width="3" points="78.0,226.6 78.4,226.6 78.9,226.6 79.3,226.6 79.7,226.6 80.1,226.6 80.6,226.6 81.0,224.6 81.4,224.6 81.8,224.6 82.3,224.5 82.7,224.4 83.1,226.4 83.5,226.3 84.0,226.3 84.4,226.3 84.8,226.3 85.3,226.3 85.7,226.3 86.1,226.3 86.5,226.3 87.0,226.3 87.4,226.2 87.8,226.2 88.2,226.2 88.7,226.3 89.1,226.3 89.5,226.3 89.9,226.2 90.4,226.2 90.8,226.2 91.2,226.1 91.7,226.2 92.1,226.0 92.5,226.0 92.9,226.0 93.4,226.0 93.8,226.0 94.2,226.0 94.6,226.0 95.1,226.0 95.5,226.0 95.9,225.9 96.3,225.9 96.8,225.7 97.2,225.7 97.6,225.7 98.1,225.9 98.5,225.9 98.9,225.6 99.3,225.6 99.8,225.6 100.2,225.6 100.6,225.4 101.0,225.3 101.5,225.3 101.9,225.3 102.3,225.3 102.7,225.1 103.2,225.2 103.6,225.2 104.0,225.3 104.5,225.2 104.9,225.3 105.3,225.3 105.7,225.3 106.2,225.3 106.6,225.2 107.0,225.3 107.4,225.3 107.9,225.2 108.3,225.3 108.7,225.2 109.1,225.2 109.6,225.2 110.0,225.2 110.4,225.2 110.8,225.3 111.3,225.2 111.7,225.4 112.1,225.4 112.6,225.4 113.0,225.4 113.4,225.4 113.8,225.5 114.3,225.4 114.7,225.6 115.1,225.8 115.5,225.8 116.0,226.5 116.4,226.4 116.8,227.6 117.2,227.6 117.7,228.1 118.1,228.2 118.5,228.2 119.0,228.2 119.4,227.5 119.8,227.1 120.2,226.9 120.7,226.4 121.1,226.4 121.5,226.6 121.9,224.7 122.4,225.6 122.8,226.2 123.2,226.3 123.6,226.3 124.1,226.0 124.5,226.4 124.9,226.2 125.4,226.0 125.8,226.0 126.2,226.0 126.6,226.2 127.1,226.2 127.5,226.2 127.9,226.2 128.3,225.9 128.8,225.7 129.2,225.7 129.6,225.7 130.0,226.0 130.5,226.0 130.9,225.7 131.3,225.7 131.8,225.7 132.2,225.8 132.6,225.8 133.0,225.9 133.5,225.9 133.9,225.9 134.3,225.9 134.7,225.9 135.2,225.9 135.6,225.9 136.0,225.9 136.4,225.9 136.9,225.9 137.3,225.9 137.7,225.9 138.2,225.9 138.6,225.9 139.0,226.0 139.4,225.7 139.9,225.7 140.3,225.7 140.7,225.7 141.1,225.7 141.6,225.5 142.0,225.7 142.4,225.7 142.8,225.7 143.3,225.7 143.7,225.7 144.1,225.5 144.6,225.5 145.0,225.5 145.4,225.2 145.8,225.0 146.3,224.8 146.7,225.1 147.1,225.1 147.5,225.1 148.0,224.4 148.4,224.8 148.8,224.4 149.2,224.0 149.7,224.1 150.1,224.3 150.5,224.7 151.0,224.6 151.4,224.7 151.8,224.6 152.2,224.6 152.7,224.3 153.1,224.3 153.5,224.5 153.9,224.1 154.4,223.8 154.8,223.6 155.2,223.6 155.6,224.1 156.1,224.1 156.5,223.6 156.9,224.1 157.4,224.3 157.8,224.3 158.2,224.2 158.6,224.1 159.1,224.1 159.5,224.1 159.9,224.4 160.3,224.8 160.8,224.9 161.2,224.9 161.6,224.7 162.0,224.9 162.5,225.1 162.9,225.1 163.3,224.9 163.8,225.1 164.2,225.2 164.6,225.0 165.0,225.1 165.5,225.0 165.9,224.9 166.3,224.8 166.7,224.7 167.2,224.7 167.6,224.4 168.0,225.0 168.4,225.0 168.9,224.7 169.3,224.4 169.7,224.3 170.1,224.7 170.6,224.8 171.0,224.8 171.4,224.1 171.9,224.4 172.3,224.4 172.7,224.6 173.1,224.4 173.6,224.3 174.0,224.7 174.4,224.7 174.8,224.7 175.3,224.7 175.7,224.9 176.1,224.9 176.5,224.7 177.0,224.4 177.4,224.8 177.8,224.7 178.3,224.7 178.7,224.7 179.1,224.7 179.5,224.6 180.0,224.7 180.4,224.7 180.8,224.8 181.2,224.2 181.7,224.2 182.1,224.4 182.5,224.6 182.9,224.5 183.4,224.7 183.8,224.7 184.2,224.1 184.7,225.0 185.1,225.0 185.5,225.0 185.9,225.4 186.4,225.4 186.8,225.4 187.2,225.2 187.6,225.1 188.1,224.9 188.5,224.9 188.9,224.7 189.3,224.7 189.8,224.8 190.2,224.8 190.6,224.4 191.1,224.7 191.5,224.4 191.9,224.6 192.3,224.7 192.8,224.6 193.2,224.6 193.6,224.6 194.0,224.1 194.5,224.1 194.9,224.1 195.3,224.1 195.7,224.0 196.2,223.8 196.6,223.8 197.0,223.1 197.5,223.5 197.9,223.5 198.3,223.5 198.7,217.3 199.2,219.8 199.6,219.8 200.0,217.0 200.4,214.6 200.9,211.8 201.3,208.4 201.7,204.5 202.1,205.9 202.6,208.9 203.0,207.7 203.4,210.4 203.9,209.8 204.3,210.5 204.7,211.2 205.1,211.6 205.6,212.4 206.0,211.5 206.4,208.7 206.8,204.1 207.3,203.9 207.7,197.5 208.1,198.1 208.5,197.6 209.0,198.7 209.4,202.6 209.8,205.2 210.3,210.1 210.7,205.8 211.1,208.0 211.5,204.1 212.0,204.4 212.4,201.9 212.8,196.5 213.2,198.1 213.7,189.6 214.1,178.7 214.5,181.9 214.9,182.9 215.4,185.2 215.8,183.9 216.2,187.2 216.7,188.5 217.1,187.3 217.5,193.0 217.9,196.8 218.4,200.1 218.8,206.1 219.2,206.6 219.6,201.1 220.1,208.9 220.5,212.4 220.9,212.5 221.3,210.7 221.8,216.0 222.2,215.0 222.6,215.1 223.1,208.9 223.5,206.8 223.9,207.6 224.3,210.5 224.8,210.2 225.2,213.2 225.6,212.5 226.0,207.4 226.5,210.7 226.9,214.8 227.3,214.7 227.7,213.0 228.2,216.2 228.6,217.5 229.0,216.4 229.4,217.8 229.9,211.9 230.3,216.8 230.7,215.7 231.2,221.0 231.6,225.3 232.0,227.1 232.4,232.9 232.9,234.4 233.3,235.0 233.7,239.5 234.1,244.6 234.6,238.0 235.0,237.6 235.4,233.0 235.8,228.3 236.3,228.0 236.7,230.3 237.1,230.8 237.6,232.2 238.0,232.8 238.4,236.9 238.8,236.6 239.3,240.5 239.7,239.7 240.1,236.1 240.5,240.2 241.0,240.5 241.4,243.0 241.8,243.0 242.2,242.0 242.7,243.7 243.1,241.1 243.5,241.1 244.0,241.3 244.4,241.2 244.8,241.5 245.2,243.2 245.7,243.0 246.1,243.1 246.5,244.0 246.9,245.1 247.4,242.6 247.8,237.5 248.2,236.5 248.6,238.0 249.1,214.1 249.5,221.8 249.9,226.7 250.4,224.4 250.8,226.4 251.2,223.2 251.6,219.7 252.1,219.9 252.5,222.4 252.9,227.2 253.3,227.0 253.8,227.8 254.2,227.1 254.6,222.5 255.0,223.6 255.5,224.1 255.9,210.5 256.3,210.4 256.8,209.6 257.2,207.9 257.6,212.2 258.0,212.6 258.5,211.3 258.9,208.9 259.3,212.6 259.7,215.8 260.2,221.7 260.6,219.8 261.0,221.1 261.4,217.8 261.9,216.7 262.3,216.2 262.7,213.9 263.2,216.1 263.6,219.3 264.0,220.5 264.4,221.5 264.9,221.0 265.3,218.4 265.7,221.2 266.1,219.7 266.6,219.8 267.0,221.8 267.4,222.5 267.8,222.9 268.3,225.3 268.7,227.1 269.1,228.0 269.6,230.8 270.0,236.2 270.4,234.4 270.8,237.2 271.3,235.2 271.7,229.7 272.1,228.6 272.5,228.6 273.0,219.4 273.4,219.9 273.8,213.1 274.2,213.2 274.7,213.6 275.1,213.0 275.5,213.1 276.0,216.1 276.4,215.4 276.8,215.4 277.2,216.4 277.7,214.9 278.1,218.1 278.5,219.1 278.9,216.4 279.4,210.4 279.8,217.0 280.2,217.9 280.6,218.4 281.1,215.1 281.5,216.4 281.9,214.2 282.4,217.9 282.8,219.5 283.2,220.8 283.6,222.3 284.1,223.0 284.5,222.9 284.9,224.1 285.3,223.1 285.8,224.9 286.2,224.8 286.6,221.0 287.0,220.5 287.5,221.7 287.9,224.1 288.3,223.3 288.7,223.4 289.2,222.5 289.6,222.8 290.0,224.0 290.5,220.9 290.9,219.5 291.3,220.9 291.7,218.8 292.2,218.8 292.6,216.1 293.0,215.5 293.4,214.5 293.9,212.6 294.3,213.9 294.7,215.8 295.1,212.5 295.6,215.1 296.0,212.5 296.4,210.9 296.9,212.4 297.3,212.6 297.7,214.4 298.1,215.5 298.6,216.2 299.0,217.2 299.4,221.6 299.8,220.4 300.3,220.4 300.7,223.1 301.1,225.5 301.5,228.3 302.0,228.6 302.4,229.8 302.8,235.2 303.3,229.5 303.7,228.3 304.1,231.2 304.5,233.2 305.0,234.6 305.4,235.9 305.8,235.2 306.2,236.8 306.7,235.2 307.1,237.4 307.5,235.4 307.9,234.9 308.4,233.2 308.8,235.9 309.2,238.0 309.7,239.8 310.1,237.1 310.5,238.5 310.9,236.6 311.4,238.5 311.8,243.9 312.2,242.5 312.6,242.1 313.1,245.4 313.5,243.8 313.9,246.5 314.3,249.9 314.8,249.9 315.2,253.4 315.6,254.1 316.1,253.8 316.5,258.6 316.9,259.2 317.3,261.6 317.8,262.7 318.2,263.7 318.6,262.1 319.0,257.1 319.5,254.8 319.9,256.4 320.3,260.2 320.7,257.4 321.2,257.3 321.6,258.3 322.0,252.3 322.5,255.7 322.9,257.3 323.3,255.3 323.7,249.2 324.2,246.9 324.6,251.1 325.0,248.6 325.4,251.9 325.9,251.7 326.3,247.5 326.7,246.1 327.1,245.1 327.6,245.0 328.0,245.4 328.4,245.3 328.9,247.2 329.3,251.9 329.7,247.9 330.1,226.6 330.6,227.8 331.0,228.2 331.4,233.2 331.8,235.8 332.3,230.1 332.7,228.7 333.1,225.1 333.5,225.9 334.0,224.0 334.4,226.4 334.8,222.6 335.3,223.3 335.7,221.2 336.1,220.0 336.5,223.6 337.0,225.4 337.4,222.0 337.8,222.7 338.2,223.7 338.7,222.9 339.1,223.6 339.5,225.2 339.9,225.7 340.4,226.8 340.8,227.0 341.2,230.4 341.7,237.0 342.1,236.4 342.5,237.5 342.9,239.4 343.4,242.4 343.8,240.1 344.2,243.3 344.6,244.3 345.1,238.8 345.5,241.6 345.9,238.4 346.3,234.6 346.8,231.9 347.2,234.8 347.6,233.0 348.0,240.8 348.5,246.1 348.9,245.6 349.3,241.0 349.8,240.5 350.2,245.7 350.6,242.2 351.0,243.5 351.5,244.9 351.9,240.1 352.3,239.7 352.7,244.7 353.2,243.1 353.6,241.3 354.0,236.2 354.4,235.9 354.9,236.2 355.3,233.0 355.7,234.8 356.2,240.3 356.6,240.4 357.0,242.8 357.4,245.0 357.9,250.9 358.3,249.8 358.7,253.1 359.1,251.5 359.6,253.6 360.0,251.0 360.4,249.7 360.8,249.2 361.3,247.5 361.7,248.2 362.1,250.2 362.6,251.5 363.0,250.9 363.4,252.0 363.8,251.6 364.3,250.1 364.7,252.6 365.1,249.2 365.5,249.8 366.0,247.6 366.4,249.5 366.8,252.6 367.2,251.4 367.7,250.7 368.1,251.9 368.5,249.3 369.0,248.7 369.4,248.7 369.8,251.2 370.2,251.3 370.7,254.1 371.1,251.2 371.5,244.7 371.9,245.5 372.4,246.5 372.8,248.5 373.2,243.3 373.6,239.4 374.1,238.8 374.5,241.4 374.9,236.1 375.4,230.3 375.8,220.5 376.2,216.6 376.6,211.3 377.1,206.2 377.5,208.7 377.9,214.0 378.3,213.4 378.8,217.6 379.2,212.7 379.6,213.1 380.0,218.7 380.5,215.4 380.9,213.9 381.3,214.9 381.8,214.7 382.2,217.6 382.6,220.1 383.0,219.9 383.5,223.9 383.9,225.2 384.3,221.1 384.7,220.6 385.2,225.9 385.6,224.5 386.0,231.3 386.4,234.5 386.9,233.0 387.3,234.8 387.7,236.0 388.2,239.3 388.6,244.9 389.0,245.1 389.4,246.5 389.9,242.5 390.3,245.1 390.7,244.0 391.1,244.5 391.6,242.0 392.0,244.7 392.4,241.8 392.8,244.3 393.3,243.3 393.7,244.7 394.1,245.3 394.6,243.5 395.0,243.5 395.4,241.4 395.8,244.3 396.3,247.1 396.7,248.9 397.1,251.3 397.5,254.8 398.0,251.8 398.4,253.3 398.8,255.5 399.2,249.9 399.7,243.9 400.1,246.9 400.5,251.6 401.0,252.7 401.4,248.2 401.8,242.4 402.2,243.6 402.7,248.9 403.1,242.3 403.5,232.4 403.9,238.2 404.4,241.8 404.8,248.3 405.2,247.8 405.6,249.2 406.1,250.0 406.5,250.2 406.9,248.7 407.3,249.0 407.8,251.4 408.2,251.5 408.6,256.9 409.1,257.1 409.5,256.4 409.9,258.8 410.3,266.7 410.8,270.7 411.2,271.5 411.6,274.2 412.0,272.8 412.5,278.5 412.9,278.5 413.3,280.3 413.7,280.0 414.2,280.8 414.6,282.8 415.0,281.4 415.5,281.1 415.9,278.4 416.3,283.2 416.7,281.5 417.2,273.4 417.6,267.2 418.0,271.7 418.4,269.9 418.9,270.7 419.3,268.1 419.7,267.7 420.1,266.5 420.6,264.9 421.0,261.5 421.4,263.0 421.9,259.7 422.3,264.0 422.7,264.9 423.1,263.4 423.6,261.6 424.0,263.2 424.4,262.7 424.8,264.1 425.3,261.3 425.7,263.9 426.1,260.9 426.5,258.9 427.0,255.9 427.4,253.8 427.8,254.3 428.3,254.2 428.7,255.5 429.1,255.1 429.5,255.9 430.0,254.8 430.4,252.8 430.8,250.1 431.2,252.2 431.7,250.3 432.1,255.8 432.5,253.7 432.9,254.0 433.4,255.0 433.8,251.5 434.2,250.6 434.7,254.8 435.1,255.8 435.5,252.4 435.9,246.0 436.4,247.5 436.8,246.6 437.2,250.9 437.6,254.6 438.1,255.2 438.5,253.1 438.9,254.2 439.3,251.9 439.8,253.4 440.2,254.3 440.6,252.8 441.1,255.5 441.5,256.5 441.9,255.2 442.3,256.2 442.8,258.4 443.2,251.4 443.6,250.8 444.0,264.2 444.5,267.1 444.9,271.3 445.3,274.5 445.7,273.0 446.2,271.5 446.6,271.5 447.0,272.9 447.5,277.0 447.9,279.9 448.3,273.8 448.7,272.0 449.2,270.8 449.6,272.1 450.0,273.9 450.4,273.0 450.9,272.0 451.3,263.4 451.7,263.2 452.1,261.7 452.6,268.7 453.0,269.4 453.4,268.2 453.9,267.7 454.3,264.5 454.7,264.6 455.1,263.3 455.6,263.6 456.0,263.7 456.4,263.6 456.8,265.5 457.3,266.0 457.7,262.2 458.1,262.2 458.5,262.0 459.0,257.6 459.4,260.2 459.8,262.3 460.3,263.4 460.7,260.0 461.1,260.3 461.5,260.5 462.0,258.6 462.4,258.4 462.8,257.9 463.2,256.3 463.7,256.7 464.1,256.6 464.5,257.1 464.9,255.9 465.4,255.2 465.8,255.4 466.2,257.0 466.7,255.4 467.1,253.5 467.5,251.9 467.9,247.2 468.4,247.0 468.8,248.1 469.2,251.2 469.6,269.4 470.1,268.9 470.5,268.7 470.9,269.2 471.3,272.9 471.8,275.2 472.2,275.9 472.6,272.5 473.0,271.8 473.5,272.6 473.9,272.1 474.3,274.6 474.8,277.5 475.2,276.0 475.6,276.6 476.0,277.8 476.5,278.4 476.9,279.4 477.3,280.5 477.7,278.8 478.2,279.1 478.6,274.6 479.0,273.9 479.4,274.5 479.9,275.6 480.3,274.3 480.7,274.6 481.2,272.6 481.6,269.6 482.0,272.0 482.4,274.1 482.9,274.5 483.3,272.9 483.7,282.7 484.1,283.6 484.6,279.4 485.0,280.2 485.4,279.4 485.8,281.4 486.3,281.4 486.7,282.6 487.1,281.7 487.6,278.0 488.0,277.5 488.4,278.5 488.8,279.1 489.3,278.1 489.7,279.7 490.1,279.4 490.5,280.9 491.0,280.3 491.4,279.6 491.8,277.3 492.2,277.7 492.7,280.3 493.1,280.3 493.5,280.8 494.0,276.0 494.4,277.4 494.8,280.8 495.2,279.1 495.7,281.4 496.1,283.4 496.5,282.5 496.9,282.3 497.4,280.9 497.8,282.1 498.2,283.4 498.6,281.2 499.1,281.7 499.5,282.1 499.9,289.6 500.4,283.9 500.8,286.6 501.2,289.9 501.6,293.4 502.1,291.3 502.5,288.7 502.9,292.8 503.3,294.7 503.8,295.9 504.2,299.7 504.6,297.1 505.0,296.1 505.5,289.9 505.9,293.6 506.3,290.1 506.8,288.9 507.2,286.1 507.6,281.4 508.0,276.0 508.5,277.8 508.9,278.4 509.3,276.7 509.7,276.1 510.2,273.7 510.6,278.0 511.0,281.4 511.4,269.2 511.9,270.3 512.3,267.1 512.7,267.7 513.2,273.7 513.6,273.1 514.0,267.0 514.4,268.0 514.9,270.2 515.3,264.9 515.7,266.9 516.1,263.1 516.6,265.7 517.0,267.1 517.4,264.0 517.8,263.9 518.3,259.9 518.7,262.4 519.1,263.6 519.6,262.4 520.0,259.8 520.4,260.3 520.8,261.6 521.3,259.0 521.7,263.2 522.1,256.5 522.5,254.0 523.0,252.9 523.4,251.3 523.8,253.0 524.2,254.4 524.7,266.9 525.1,266.0 525.5,267.2 526.0,265.0 526.4,265.8 526.8,266.4 527.2,265.7 527.7,274.2 528.1,275.6 528.5,276.1 528.9,274.1 529.4,275.7 529.8,292.8 530.2,292.6 530.6,292.3 531.1,293.0 531.5,295.5 531.9,298.7 532.3,293.2 532.8,296.1 533.2,297.1 533.6,296.5 534.1,297.7 534.5,299.1 534.9,296.9 535.3,302.6 535.8,291.2 536.2,286.8 536.6,285.3 537.0,291.3 537.5,288.7 537.9,287.1 538.3,286.8 538.7,288.7 539.2,291.5 539.6,292.8 540.0,295.5 540.5,290.8 540.9,287.7 541.3,291.0 541.7,291.3 542.2,290.6 542.6,292.3 543.0,294.3 543.4,292.6 543.9,295.5 544.3,294.3 544.7,293.6 545.1,294.9 545.6,292.6 546.0,293.7 546.4,291.9 546.9,295.1 547.3,297.3 547.7,295.5 548.1,298.9 548.6,299.3 549.0,297.7 549.4,298.3 549.8,297.3 550.3,296.5 550.7,302.1 551.1,317.5 551.5,309.3 552.0,311.1 552.4,312.2 552.8,310.5 553.3,309.5 553.7,313.9 554.1,314.7 554.5,314.2 555.0,315.6 555.4,317.3 555.8,316.4 556.2,313.9 556.7,315.3 557.1,313.4 557.5,313.7 557.9,313.9 558.4,312.6 558.8,311.6 559.2,309.0 559.7,312.1 560.1,310.8 560.5,309.8 560.9,306.2 561.4,305.5 561.8,309.3 562.2,309.8 562.6,308.3 563.1,310.8 563.5,311.3 563.9,304.8 564.3,307.6 564.8,277.5 565.2,270.7 565.6,262.0 566.1,268.6 566.5,269.3 566.9,276.0 567.3,268.2 567.8,261.5 568.2,231.2 568.6,235.2 569.0,236.2 569.5,235.4 569.9,233.5 570.3,232.7 570.7,229.3 571.2,233.8 571.6,234.8 572.0,226.0 572.5,226.7 572.9,225.4 573.3,224.0 573.7,216.0 574.2,217.8 574.6,218.7 575.0,224.8 575.4,223.4 575.9,219.9 576.3,218.6 576.7,217.5 577.1,216.7 577.6,220.6 578.0,221.3 578.4,217.9 578.9,212.9 579.3,214.3 579.7,214.1 580.1,215.4 580.6,215.3 581.0,210.2 581.4,208.1 581.8,207.1 582.3,208.5 582.7,213.0 583.1,210.9 583.5,211.1 584.0,206.6 584.4,208.6 584.8,196.0 585.3,188.9 585.7,188.8 586.1,193.0 586.5,183.5 587.0,184.2 587.4,189.9 587.8,189.6 588.2,186.8 588.7,186.5 589.1,179.1 589.5,182.1 589.9,186.2 590.4,182.7 590.8,183.2 591.2,159.6 591.6,160.2 592.1,147.6 592.5,154.4 592.9,150.9 593.4,154.7 593.8,156.9 594.2,155.3 594.6,160.0 595.1,166.4 595.5,163.6 595.9,164.0 596.3,163.3 596.8,156.5 597.2,165.2 597.6,170.1 598.0,170.5 598.5,170.1 598.9,166.3 599.3,168.6 599.8,162.4 600.2,162.4 600.6,166.1 601.0,165.5 601.5,164.9 601.9,169.3 602.3,169.0 602.7,170.7 603.2,174.0 603.6,175.4 604.0,171.9 604.4,170.0 604.9,174.7 605.3,175.3 605.7,176.9 606.2,170.1 606.6,172.8 607.0,174.5 607.4,178.4 607.9,177.2 608.3,174.5 608.7,172.3 609.1,174.4 609.6,165.6 610.0,165.1 610.4,165.8 610.8,166.8 611.3,166.3 611.7,169.8 612.1,172.4 612.6,171.2 613.0,168.8 613.4,168.2 613.8,172.3 614.3,175.4 614.7,175.3 615.1,175.1 615.5,174.6 616.0,178.6 616.4,181.4 616.8,180.0 617.2,173.2 617.7,174.3 618.1,166.3 618.5,168.6 619.0,174.4 619.4,170.8 619.8,170.0 620.2,176.0 620.7,174.6 621.1,174.7 621.5,174.5 621.9,176.4 622.4,176.7 622.8,175.4 623.2,176.9 623.6,177.6 624.1,178.3 624.5,178.6 624.9,171.9 625.4,170.4 625.8,174.1 626.2,176.0 626.6,176.6 627.1,176.2 627.5,174.2 627.9,173.1 628.3,176.5 628.8,177.4 629.2,177.7 629.6,176.8 630.0,176.2 630.5,173.3 630.9,177.6 631.3,180.5 631.8,182.4 632.2,180.9 632.6,175.0 633.0,174.6 633.5,177.4 633.9,178.6 634.3,179.0 634.7,182.4 635.2,184.1 635.6,181.2 636.0,182.6 636.4,183.2 636.9,177.1 637.3,178.7 637.7,186.0 638.2,184.4 638.6,187.9 639.0,185.0 639.4,192.4 639.9,190.8 640.3,184.7 640.7,181.4 641.1,177.2 641.6,173.3 642.0,167.9 642.4,169.2 642.8,160.0 643.3,165.3 643.7,166.9 644.1,162.0 644.6,158.2 645.0,160.4 645.4,159.9 645.8,159.1 646.3,164.8 646.7,164.9 647.1,170.0 647.5,167.7 648.0,170.2 648.4,167.9 648.8,171.2 649.2,164.9 649.7,155.3 650.1,158.1 650.5,155.9 650.9,163.8 651.4,164.7 651.8,167.0 652.2,170.1 652.7,165.8 653.1,166.0 653.5,169.8 653.9,171.1 654.4,173.3 654.8,171.0 655.2,163.5 655.6,165.0 656.1,167.6 656.5,170.8 656.9,174.8 657.3,178.1 657.8,180.3 658.2,178.9 658.6,181.1 659.1,185.2 659.5,181.7 659.9,184.6 660.3,174.6 660.8,177.1 661.2,176.7 661.6,177.6 662.0,177.6 662.5,178.9 662.9,176.4 663.3,183.3 663.7,181.8 664.2,178.9 664.6,174.8 665.0,175.5 665.5,174.4 665.9,175.2 666.3,176.9 666.7,177.3 667.2,169.4 667.6,173.2 668.0,172.4 668.4,171.9 668.9,172.0 669.3,170.9 669.7,167.8 670.1,169.1 670.6,169.8 671.0,169.8 671.4,168.9 671.9,173.5 672.3,172.5 672.7,175.4 673.1,174.0 673.6,174.7 674.0,173.0 674.4,173.1 674.8,176.0 675.3,177.2 675.7,174.6 676.1,172.2 676.5,164.7 677.0,160.5 677.4,159.9 677.8,153.6 678.3,152.1 678.7,150.9 679.1,150.2 679.5,148.0 680.0,142.9 680.4,145.4 680.8,139.6 681.2,137.6 681.7,132.5 682.1,129.2 682.5,132.8 682.9,132.0 683.4,133.5 683.8,136.6 684.2,138.7 684.7,137.9 685.1,138.0 685.5,137.9 685.9,138.2 686.4,142.1 686.8,140.1 687.2,138.1 687.6,135.3 688.1,131.5 688.5,129.8 688.9,124.8 689.3,124.2 689.8,125.6 690.2,125.1 690.6,123.3 691.1,122.2 691.5,128.0 691.9,128.1 692.3,129.3 692.8,128.0 693.2,129.2 693.6,130.0 694.0,131.2 694.5,129.9 694.9,130.7 695.3,135.4 695.7,136.8 696.2,137.6 696.6,133.0 697.0,132.7 697.5,134.5 697.9,135.0 698.3,134.9 698.7,138.9 699.2,138.7 699.6,138.8 700.0,136.2 700.4,132.7 700.9,132.3 701.3,134.8 701.7,134.0 702.1,134.0 702.6,134.2 703.0,138.5 703.4,143.0 703.9,142.2 704.3,144.5 704.7,150.2 705.1,149.2 705.6,148.0 706.0,147.5 706.4,144.2 706.8,145.0 707.3,143.9 707.7,143.5 708.1,138.7 708.5,134.1 709.0,127.5 709.4,127.8 709.8,133.5 710.2,133.8 710.7,134.1 711.1,133.8 711.5,125.3 712.0,116.7 712.4,115.3 712.8,111.1 713.2,109.6 713.7,104.9 714.1,101.0 714.5,104.3 714.9,98.6 715.4,96.2 715.8,95.4 716.2,99.3 716.6,103.3 717.1,103.7 717.5,106.7 717.9,112.3 718.4,112.0 718.8,110.4 719.2,106.1 719.6,107.4 720.1,105.7 720.5,108.2 720.9,105.5 721.3,112.5 721.8,113.4 722.2,113.1 722.6,117.4 723.0,114.1 723.5,114.5 723.9,115.2 724.3,118.1 724.8,120.9 725.2,120.9 725.6,125.6 726.0,124.0 726.5,124.2 726.9,132.0 727.3,131.2 727.7,127.3 728.2,126.7 728.6,126.7 729.0,126.0 729.4,129.8 729.9,125.3 730.3,120.9 730.7,111.3 731.2,110.3 731.6,110.2 732.0,111.1 732.4,106.4 732.9,102.4 733.3,108.2 733.7,115.2 734.1,114.8 734.6,120.5 735.0,116.9 735.4,108.8 735.8,101.3 736.3,101.8 736.7,107.1 737.1,111.8 737.6,112.2 738.0,109.7 738.4,111.3 738.8,103.3 739.3,98.4 739.7,94.4 740.1,101.8 740.5,98.6 741.0,94.3 741.4,93.8 741.8,97.2 742.2,95.7 742.7,92.2 743.1,84.5 743.5,86.2 744.0,90.9 744.4,84.2 744.8,85.6 745.2,90.2 745.7,86.7 746.1,81.8 746.5,81.4 746.9,86.8 747.4,90.3 747.8,84.5 748.2,90.9 748.6,96.9 749.1,91.9 749.5,91.7 749.9,95.1 750.4,94.7 750.8,104.2 751.2,104.0 751.6,103.6 752.1,102.6 752.5,101.3 752.9,105.6 753.3,103.0 753.8,101.7 754.2,104.1 754.6,101.7 755.0,106.3 755.5,101.0 755.9,97.3 756.3,90.2 756.8,96.5 757.2,99.3 757.6,99.1 758.0,100.6 758.5,100.1 758.9,100.8 759.3,101.3 759.7,99.5 760.2,95.4 760.6,98.5 761.0,96.4 761.4,99.0 761.9,100.0 762.3,100.9 762.7,95.2 763.2,100.3 763.6,106.7 764.0,110.4 764.4,103.7 764.9,102.9 765.3,97.3 765.7,96.0 766.1,97.3 766.6,95.0 767.0,97.9 767.4,95.9 767.8,93.5 768.3,99.9 768.7,101.0 769.1,98.4 769.5,101.9 770.0,105.0 770.4,105.7 770.8,102.5 771.3,106.6 771.7,108.4 772.1,107.8 772.5,111.9 773.0,113.5 773.4,110.3 773.8,112.7 774.2,114.7 774.7,118.7 775.1,112.9 775.5,117.4 775.9,109.4 776.4,103.9 776.8,111.0 777.2,109.6 777.7,103.6 778.1,103.2 778.5,101.0 778.9,100.2 779.4,99.2 779.8,95.1 780.2,89.6 780.6,82.6 781.1,78.0 781.5,76.5 781.9,85.7 782.3,89.7 782.8,83.3 783.2,88.6 783.6,88.9 784.1,96.7 784.5,97.7 784.9,99.8 785.3,100.7 785.8,94.3 786.2,104.0 786.6,100.5 787.0,104.1 787.5,102.0 787.9,105.3 788.3,110.8 788.7,111.1 789.2,115.1 789.6,117.1 790.0,112.2 790.5,101.1 790.9,99.7 791.3,101.5 791.7,102.2 792.2,105.3 792.6,110.0 793.0,109.5 793.4,110.3 793.9,110.7 794.3,115.4 794.7,114.4 795.1,116.5 795.6,127.3 796.0,124.6"/>
<text x="78" y="392" font-size="11" fill="#16a34a">Total return +489.7%</text><text x="268" y="392" font-size="11" fill="#2563eb">Price-only +489.7%</text><text x="78" y="362" font-size="11" text-anchor="middle" fill="#64748b">2019-11</text><text x="258" y="362" font-size="11" text-anchor="middle" fill="#64748b">2021-07</text><text x="437" y="362" font-size="11" text-anchor="middle" fill="#64748b">2023-03</text><text x="617" y="362" font-size="11" text-anchor="middle" fill="#64748b">2024-11</text><text x="796" y="362" font-size="11" text-anchor="middle" fill="#64748b">2026-07</text></svg>