<svg xmlns="http://www.w3.org/2000/svg" width="820" height="410" viewBox="0 0 820 410">
<rect width="820" height="410" fill="#fafafa"/><text x="78" y="22" font-size="14" font-family="sans-serif" fill="#0f172a">ACMR cumulative return since 2017-11-02 | dividends reinvested</text>
<text x="78" y="40" font-size="11" font-family="sans-serif" fill="#334155">Total return +4,321% | Price-only +4,321% | logarithmic scale</text>
<text x="78" y="54" font-size="9" font-family="sans-serif" fill="#64748b">Regular $0.00 | Special $0.00 | Other $0.00 per initial share path</text>
<line x1="78" y1="332.0" x2="796" y2="332.0" stroke="#e2e8f0"/><text x="70" y="336.0" font-size="10" text-anchor="end" fill="#64748b">-34.8%</text><line x1="78" y1="308.5" x2="796" y2="308.5" stroke="#e2e8f0"/><text x="70" y="312.5" font-size="10" text-anchor="end" fill="#64748b">0%</text><line x1="78" y1="287.0" x2="796" y2="287.0" stroke="#e2e8f0"/><text x="70" y="291.0" font-size="10" text-anchor="end" fill="#64748b">+47.8%</text><line x1="78" y1="242.0" x2="796" y2="242.0" stroke="#e2e8f0"/><text x="70" y="246.0" font-size="10" text-anchor="end" fill="#64748b">+235.0%</text><line x1="78" y1="197.0" x2="796" y2="197.0" stroke="#e2e8f0"/><text x="70" y="201.0" font-size="10" text-anchor="end" fill="#64748b">+659.3%</text><line x1="78" y1="152.0" x2="796" y2="152.0" stroke="#e2e8f0"/><text x="70" y="156.0" font-size="10" text-anchor="end" fill="#64748b">+1,621%</text><line x1="78" y1="107.0" x2="796" y2="107.0" stroke="#e2e8f0"/><text x="70" y="111.0" font-size="10" text-anchor="end" fill="#64748b">+3,801%</text><line x1="78" y1="62.0" x2="796" y2="62.0" stroke="#e2e8f0"/><text x="70" y="66.0" font-size="10" text-anchor="end" fill="#64748b">+8,743%</text>
<line x1="78" y1="332" x2="796" y2="332" stroke="#cbd5e1"/>
<polyline fill="none" stroke="#2563eb" stroke-width="2" points="78.0,308.5 78.3,304.2 78.7,308.5 79.0,308.5 79.3,308.5 79.6,308.5 80.0,307.3 80.3,305.0 80.6,305.0 81.0,302.5 81.3,300.1 81.6,297.1 81.9,293.6 82.3,293.0 82.6,296.6 82.9,297.2 83.3,297.0 83.6,297.8 83.9,298.0 84.2,298.2 84.6,297.9 84.9,300.6 85.2,304.9 85.6,305.7 85.9,305.6 86.2,304.2 86.5,305.1 86.9,306.2 87.2,309.2 87.5,309.1 87.9,314.7 88.2,313.2 88.5,314.5 88.8,316.7 89.2,313.0 89.5,315.3 89.8,314.6 90.2,315.6 90.5,314.2 90.8,312.0 91.1,308.3 91.5,311.5 91.8,311.4 92.1,309.4 92.5,312.1 92.8,312.1 93.1,312.7 93.4,312.1 93.8,312.9 94.1,315.4 94.4,314.7 94.8,315.2 95.1,314.8 95.4,317.5 95.7,307.9 96.1,310.2 96.4,311.4 96.7,311.5 97.1,310.1 97.4,313.5 97.7,310.8 98.0,304.7 98.4,303.7 98.7,298.2 99.0,297.6 99.3,298.0 99.7,300.8 100.0,300.3 100.3,299.6 100.7,300.1 101.0,302.5 101.3,301.1 101.6,300.5 102.0,299.8 102.3,297.4 102.6,296.1 103.0,295.0 103.3,296.3 103.6,295.5 103.9,297.8 104.3,298.5 104.6,294.4 104.9,289.9 105.3,271.4 105.6,266.6 105.9,260.3 106.2,261.6 106.6,259.3 106.9,257.2 107.2,254.5 107.6,258.0 107.9,264.6 108.2,269.2 108.5,261.5 108.9,265.4 109.2,264.3 109.5,262.6 109.9,263.1 110.2,262.6 110.5,264.9 110.8,265.2 111.2,265.2 111.5,265.2 111.8,265.2 112.2,266.6 112.5,267.5 112.8,266.6 113.1,264.3 113.5,263.3 113.8,258.5 114.1,259.7 114.5,263.5 114.8,265.2 115.1,266.4 115.4,266.6 115.8,267.3 116.1,269.4 116.4,273.9 116.8,273.3 117.1,275.1 117.4,276.1 117.7,276.1 118.1,275.9 118.4,275.7 118.7,275.0 119.1,272.3 119.4,264.3 119.7,268.7 120.0,267.7 120.4,266.4 120.7,266.2 121.0,267.1 121.4,267.1 121.7,267.7 122.0,269.4 122.3,269.8 122.7,270.2 123.0,270.1 123.3,271.3 123.7,267.9 124.0,270.2 124.3,268.7 124.6,264.2 125.0,263.4 125.3,257.9 125.6,260.2 126.0,263.9 126.3,263.8 126.6,265.6 126.9,266.3 127.3,263.2 127.6,260.3 127.9,260.7 128.3,260.5 128.6,258.2 128.9,259.8 129.2,263.4 129.6,262.3 129.9,266.8 130.2,264.2 130.6,266.8 130.9,266.9 131.2,271.1 131.5,271.9 131.9,272.5 132.2,276.5 132.5,271.4 132.9,273.3 133.2,272.1 133.5,270.1 133.8,269.5 134.2,271.9 134.5,264.6 134.8,263.8 135.2,265.0 135.5,264.7 135.8,264.9 136.1,264.5 136.5,263.5 136.8,260.4 137.1,259.6 137.5,260.2 137.8,259.4 138.1,261.2 138.4,263.1 138.8,262.3 139.1,258.7 139.4,257.0 139.7,255.3 140.1,255.5 140.4,259.1 140.7,256.0 141.1,255.7 141.4,255.2 141.7,259.1 142.0,260.7 142.4,262.9 142.7,262.3 143.0,263.2 143.4,262.9 143.7,260.1 144.0,261.8 144.3,261.7 144.7,260.1 145.0,259.1 145.3,258.3 145.7,258.7 146.0,258.1 146.3,257.7 146.6,259.4 147.0,259.5 147.3,260.9 147.6,260.2 148.0,263.3 148.3,264.3 148.6,269.6 148.9,266.0 149.3,268.0 149.6,266.5 149.9,267.1 150.3,267.9 150.6,265.4 150.9,267.0 151.2,268.2 151.6,269.9 151.9,270.9 152.2,272.1 152.6,271.0 152.9,269.8 153.2,271.2 153.5,270.5 153.9,271.7 154.2,274.7 154.5,272.8 154.9,270.9 155.2,274.9 155.5,276.8 155.8,275.1 156.2,272.9 156.5,274.7 156.8,275.1 157.2,276.2 157.5,275.3 157.8,276.2 158.1,277.6 158.5,278.8 158.8,278.6 159.1,279.7 159.5,279.6 159.8,279.6 160.1,279.1 160.4,276.6 160.8,276.5 161.1,276.7 161.4,276.6 161.8,275.0 162.1,266.6 162.4,267.8 162.7,269.9 163.1,269.1 163.4,269.6 163.7,268.8 164.1,270.2 164.4,271.7 164.7,274.2 165.0,271.4 165.4,272.1 165.7,270.8 166.0,272.6 166.4,271.2 166.7,271.4 167.0,270.6 167.3,271.2 167.7,274.1 168.0,272.5 168.3,274.1 168.7,274.5 169.0,273.2 169.3,272.5 169.6,273.3 170.0,274.4 170.3,275.1 170.6,275.4 171.0,275.8 171.3,275.2 171.6,275.2 171.9,276.3 172.3,274.3 172.6,274.1 172.9,274.1 173.3,272.0 173.6,272.0 173.9,274.6 174.2,272.9 174.6,272.6 174.9,272.7 175.2,273.5 175.6,273.9 175.9,273.9 176.2,275.2 176.5,274.3 176.9,274.2 177.2,275.1 177.5,277.9 177.8,280.3 178.2,280.8 178.5,278.0 178.8,276.5 179.2,278.2 179.5,278.8 179.8,279.5 180.1,280.5 180.5,280.6 180.8,280.5 181.1,279.9 181.5,280.1 181.8,280.8 182.1,280.5 182.4,280.5 182.8,279.5 183.1,280.4 183.4,279.8 183.8,279.4 184.1,276.8 184.4,268.9 184.7,270.7 185.1,268.5 185.4,267.7 185.7,269.2 186.1,269.5 186.4,269.6 186.7,268.4 187.0,264.6 187.4,260.7 187.7,263.5 188.0,270.9 188.4,268.2 188.7,267.2 189.0,267.1 189.3,263.6 189.7,258.9 190.0,259.5 190.3,254.8 190.7,250.9 191.0,251.0 191.3,249.3 191.6,256.2 192.0,253.7 192.3,251.4 192.6,254.0 193.0,253.8 193.3,252.7 193.6,252.6 193.9,253.3 194.3,251.8 194.6,251.3 194.9,251.4 195.3,252.4 195.6,253.8 195.9,253.0 196.2,252.9 196.6,252.3 196.9,252.7 197.2,249.4 197.6,245.8 197.9,243.1 198.2,249.5 198.5,248.0 198.9,248.2 199.2,250.8 199.5,249.8 199.9,246.8 200.2,246.7 200.5,246.2 200.8,244.4 201.2,243.4 201.5,243.3 201.8,242.0 202.2,243.0 202.5,242.7 202.8,241.2 203.1,242.1 203.5,238.9 203.8,234.9 204.1,241.5 204.5,240.6 204.8,245.1 205.1,243.5 205.4,245.9 205.8,245.4 206.1,244.0 206.4,242.3 206.8,241.3 207.1,241.4 207.4,240.6 207.7,242.9 208.1,242.2 208.4,243.8 208.7,242.6 209.1,242.9 209.4,241.6 209.7,243.4 210.0,243.6 210.4,245.9 210.7,246.6 211.0,248.3 211.4,245.1 211.7,245.9 212.0,247.6 212.3,250.1 212.7,249.8 213.0,252.7 213.3,252.0 213.7,252.7 214.0,252.1 214.3,245.0 214.6,246.2 215.0,246.5 215.3,249.1 215.6,247.8 216.0,247.9 216.3,248.0 216.6,249.0 216.9,249.0 217.3,249.0 217.6,248.0 217.9,246.4 218.2,241.2 218.6,243.5 218.9,243.3 219.2,243.8 219.6,243.5 219.9,245.3 220.2,244.9 220.5,244.1 220.9,245.9 221.2,246.0 221.5,250.8 221.9,250.8 222.2,251.7 222.5,251.3 222.8,250.4 223.2,244.8 223.5,246.8 223.8,244.9 224.2,243.3 224.5,256.1 224.8,258.2 225.1,258.2 225.5,257.9 225.8,257.2 226.1,257.1 226.5,255.3 226.8,257.7 227.1,258.3 227.4,258.6 227.8,258.4 228.1,257.1 228.4,256.9 228.8,255.4 229.1,251.8 229.4,254.3 229.7,256.8 230.1,256.8 230.4,255.9 230.7,256.9 231.1,257.0 231.4,255.4 231.7,255.6 232.0,256.0 232.4,255.5 232.7,257.1 233.0,256.6 233.4,254.8 233.7,257.4 234.0,255.9 234.3,257.7 234.7,259.0 235.0,258.6 235.3,260.0 235.7,258.8 236.0,258.3 236.3,258.5 236.6,260.1 237.0,261.7 237.3,260.7 237.6,261.2 238.0,261.2 238.3,263.0 238.6,261.4 238.9,262.9 239.3,261.2 239.6,263.6 239.9,261.5 240.3,261.7 240.6,263.0 240.9,260.1 241.2,260.5 241.6,259.9 241.9,262.3 242.2,262.2 242.6,263.9 242.9,262.9 243.2,259.5 243.5,257.1 243.9,256.5 244.2,252.0 244.5,256.5 244.9,256.6 245.2,254.5 245.5,256.1 245.8,256.7 246.2,256.5 246.5,257.5 246.8,258.2 247.2,255.7 247.5,256.9 247.8,258.6 248.1,256.9 248.5,257.7 248.8,258.9 249.1,258.8 249.5,258.4 249.8,258.1 250.1,257.7 250.4,255.5 250.8,252.8 251.1,255.5 251.4,254.0 251.8,251.7 252.1,251.1 252.4,247.8 252.7,243.7 253.1,242.2 253.4,243.0 253.7,243.5 254.1,242.9 254.4,239.5 254.7,240.4 255.0,241.3 255.4,243.1 255.7,243.8 256.0,242.9 256.4,241.5 256.7,241.0 257.0,235.8 257.3,227.3 257.7,226.7 258.0,229.7 258.3,229.3 258.6,223.5 259.0,213.3 259.3,207.5 259.6,205.7 260.0,206.0 260.3,196.8 260.6,189.7 260.9,200.0 261.3,206.6 261.6,203.8 261.9,203.1 262.3,204.6 262.6,206.1 262.9,208.1 263.2,206.9 263.6,202.7 263.9,207.2 264.2,204.7 264.6,206.1 264.9,198.2 265.2,201.3 265.5,199.3 265.9,202.2 266.2,201.6 266.5,197.9 266.9,200.5 267.2,196.8 267.5,202.2 267.8,202.8 268.2,203.9 268.5,204.1 268.8,207.5 269.2,207.8 269.5,205.1 269.8,206.8 270.1,206.6 270.5,207.3 270.8,212.6 271.1,222.0 271.5,222.4 271.8,224.9 272.1,229.8 272.4,231.1 272.8,235.8 273.1,228.4 273.4,246.6 273.8,237.1 274.1,233.1 274.4,223.6 274.7,219.5 275.1,220.6 275.4,216.4 275.7,219.2 276.1,216.2 276.4,216.9 276.7,221.3 277.0,220.9 277.4,221.6 277.7,211.7 278.0,210.5 278.4,207.9 278.7,210.8 279.0,210.5 279.3,208.4 279.7,210.1 280.0,206.6 280.3,206.1 280.7,206.1 281.0,210.4 281.3,204.5 281.6,206.4 282.0,205.4 282.3,203.2 282.6,202.8 283.0,198.4 283.3,200.5 283.6,206.6 283.9,206.5 284.3,203.6 284.6,201.3 284.9,194.9 285.3,191.9 285.6,184.0 285.9,181.8 286.2,187.8 286.6,178.0 286.9,179.3 287.2,174.9 287.6,173.1 287.9,182.8 288.2,183.4 288.5,185.0 288.9,178.8 289.2,178.8 289.5,179.3 289.9,178.3 290.2,174.6 290.5,177.2 290.8,173.6 291.2,173.6 291.5,175.9 291.8,181.1 292.2,180.4 292.5,179.6 292.8,182.5 293.1,181.5 293.5,179.5 293.8,178.7 294.1,176.8 294.5,177.0 294.8,177.7 295.1,180.3 295.4,176.4 295.8,174.9 296.1,175.2 296.4,177.5 296.8,179.9 297.1,175.9 297.4,177.5 297.7,172.9 298.1,161.7 298.4,166.9 298.7,160.9 299.0,158.2 299.4,161.1 299.7,159.9 300.0,155.3 300.4,159.6 300.7,164.6 301.0,162.9 301.3,158.1 301.7,157.2 302.0,156.4 302.3,157.2 302.7,158.9 303.0,159.4 303.3,158.7 303.6,156.2 304.0,154.4 304.3,152.3 304.6,146.0 305.0,145.9 305.3,145.8 305.6,143.6 305.9,148.9 306.3,149.9 306.6,150.9 306.9,147.1 307.3,147.4 307.6,147.5 307.9,146.4 308.2,147.4 308.6,150.2 308.9,151.4 309.2,152.1 309.6,152.6 309.9,151.1 310.2,152.2 310.5,155.3 310.9,154.6 311.2,156.5 311.5,155.5 311.9,152.7 312.2,159.6 312.5,160.8 312.8,179.0 313.2,178.0 313.5,177.5 313.8,172.5 314.2,169.0 314.5,168.5 314.8,168.7 315.1,169.3 315.5,167.4 315.8,167.9 316.1,169.7 316.5,171.3 316.8,170.4 317.1,169.7 317.4,170.9 317.8,169.6 318.1,170.3 318.4,165.5 318.8,167.3 319.1,165.1 319.4,169.4 319.7,168.1 320.1,169.0 320.4,165.5 320.7,163.8 321.1,163.7 321.4,166.4 321.7,165.5 322.0,165.4 322.4,167.9 322.7,167.0 323.0,169.8 323.4,172.0 323.7,171.2 324.0,170.7 324.3,170.1 324.7,167.4 325.0,165.4 325.3,169.3 325.7,165.7 326.0,162.3 326.3,155.2 326.6,153.4 327.0,154.9 327.3,154.7 327.6,159.9 328.0,155.5 328.3,157.8 328.6,159.3 328.9,161.0 329.3,163.8 329.6,166.0 329.9,165.1 330.3,165.6 330.6,166.1 330.9,166.7 331.2,164.3 331.6,159.7 331.9,160.5 332.2,159.6 332.6,161.2 332.9,161.5 333.2,163.8 333.5,159.5 333.9,161.3 334.2,166.7 334.5,167.1 334.9,168.1 335.2,166.7 335.5,165.7 335.8,166.2 336.2,166.3 336.5,166.2 336.8,165.8 337.2,167.2 337.5,169.6 337.8,169.8 338.1,170.8 338.5,171.9 338.8,161.7 339.1,161.4 339.4,156.1 339.8,155.8 340.1,149.9 340.4,149.8 340.8,147.9 341.1,148.4 341.4,150.0 341.7,151.7 342.1,149.0 342.4,153.0 342.7,147.4 343.1,147.5 343.4,150.4 343.7,151.3 344.0,149.7 344.4,153.3 344.7,155.0 345.0,154.7 345.4,155.8 345.7,152.3 346.0,150.6 346.3,150.7 346.7,150.5 347.0,151.0 347.3,146.6 347.7,145.6 348.0,145.1 348.3,140.2 348.6,133.4 349.0,131.5 349.3,132.9 349.6,140.4 350.0,138.3 350.3,143.8 350.6,146.0 350.9,136.3 351.3,145.1 351.6,151.6 351.9,145.9 352.3,152.9 352.6,154.2 352.9,157.8 353.2,156.9 353.6,161.4 353.9,155.6 354.2,157.5 354.6,151.6 354.9,154.8 355.2,153.3 355.5,153.9 355.9,152.5 356.2,156.1 356.5,155.3 356.9,153.7 357.2,155.5 357.5,159.8 357.8,159.6 358.2,160.0 358.5,163.4 358.8,162.9 359.2,161.7 359.5,155.7 359.8,156.0 360.1,156.4 360.5,156.9 360.8,156.4 361.1,157.1 361.5,161.3 361.8,161.8 362.1,161.1 362.4,161.2 362.8,163.5 363.1,165.7 363.4,166.9 363.8,162.8 364.1,160.5 364.4,160.6 364.7,159.0 365.1,158.9 365.4,159.5 365.7,162.2 366.1,163.0 366.4,163.7 366.7,166.1 367.0,166.0 367.4,165.6 367.7,165.0 368.0,171.9 368.4,172.2 368.7,174.3 369.0,174.0 369.3,173.8 369.7,174.2 370.0,174.0 370.3,174.3 370.7,171.2 371.0,172.7 371.3,170.7 371.6,171.2 372.0,170.0 372.3,164.2 372.6,165.1 373.0,163.2 373.3,162.6 373.6,163.8 373.9,159.6 374.3,161.6 374.6,161.7 374.9,161.6 375.3,159.4 375.6,156.5 375.9,152.0 376.2,152.0 376.6,153.3 376.9,146.4 377.2,149.0 377.5,151.6 377.9,148.6 378.2,147.5 378.5,148.8 378.9,148.0 379.2,146.4 379.5,146.9 379.8,148.8 380.2,148.9 380.5,149.6 380.8,151.2 381.2,159.4 381.5,162.7 381.8,160.4 382.1,154.5 382.5,161.4 382.8,163.4 383.1,163.8 383.5,165.6 383.8,164.1 384.1,164.7 384.4,158.6 384.8,156.6 385.1,157.3 385.4,157.5 385.8,161.4 386.1,158.1 386.4,156.6 386.7,154.0 387.1,154.0 387.4,155.1 387.7,155.6 388.1,154.5 388.4,156.9 388.7,154.8 389.0,155.7 389.4,158.3 389.7,159.1 390.0,160.0 390.4,160.0 390.7,161.6 391.0,160.1 391.3,159.6 391.7,160.3 392.0,159.0 392.3,156.4 392.7,155.7 393.0,155.3 393.3,157.2 393.6,156.9 394.0,156.3 394.3,156.4 394.6,154.0 395.0,153.0 395.3,146.6 395.6,146.9 395.9,146.7 396.3,146.2 396.6,147.8 396.9,148.4 397.3,149.5 397.6,149.0 397.9,148.7 398.2,150.9 398.6,150.0 398.9,148.7 399.2,147.3 399.6,150.4 399.9,145.4 400.2,147.6 400.5,147.9 400.9,144.7 401.2,146.0 401.5,147.6 401.9,141.0 402.2,142.3 402.5,142.4 402.8,143.2 403.2,147.7 403.5,147.8 403.8,147.5 404.2,147.8 404.5,147.1 404.8,147.1 405.1,143.6 405.5,146.5 405.8,146.9 406.1,146.6 406.5,146.3 406.8,146.5 407.1,149.8 407.4,146.8 407.8,146.7 408.1,144.1 408.4,145.3 408.8,145.8 409.1,145.4 409.4,148.5 409.7,146.6 410.1,146.5 410.4,149.1 410.7,147.2 411.1,147.0 411.4,144.6 411.7,146.5 412.0,149.6 412.4,152.3 412.7,152.1 413.0,153.5 413.4,156.4 413.7,156.5 414.0,157.2 414.3,157.9 414.7,157.4 415.0,159.3 415.3,161.2 415.7,163.2 416.0,164.7 416.3,163.6 416.6,162.4 417.0,164.2 417.3,164.4 417.6,166.5 417.9,167.4 418.3,167.1 418.6,168.8 418.9,166.2 419.3,169.3 419.6,165.9 419.9,165.3 420.2,163.9 420.6,162.7 420.9,163.3 421.2,161.8 421.6,158.8 421.9,158.7 422.2,156.1 422.5,159.2 422.9,162.3 423.2,159.8 423.5,160.9 423.9,160.4 424.2,159.8 424.5,159.1 424.8,159.8 425.2,156.6 425.5,161.2 425.8,161.1 426.2,163.0 426.5,166.8 426.8,166.2 427.1,167.7 427.5,166.1 427.8,168.8 428.1,166.5 428.5,162.5 428.8,160.9 429.1,161.8 429.4,164.0 429.8,162.3 430.1,162.1 430.4,161.1 430.8,158.3 431.1,159.4 431.4,161.8 431.7,162.1 432.1,159.0 432.4,158.4 432.7,160.5 433.1,163.0 433.4,163.9 433.7,166.1 434.0,162.1 434.4,160.8 434.7,160.6 435.0,161.3 435.4,160.6 435.7,162.4 436.0,164.8 436.3,165.2 436.7,162.0 437.0,161.0 437.3,174.7 437.7,181.5 438.0,192.6 438.3,191.1 438.6,178.3 439.0,178.6 439.3,176.4 439.6,178.4 440.0,173.6 440.3,172.6 440.6,173.3 440.9,173.5 441.3,174.0 441.6,170.3 441.9,174.2 442.3,176.2 442.6,176.0 442.9,172.7 443.2,176.6 443.6,177.4 443.9,180.7 444.2,184.2 444.6,185.6 444.9,186.5 445.2,186.6 445.5,188.2 445.9,188.0 446.2,186.9 446.5,187.7 446.9,189.3 447.2,191.2 447.5,190.2 447.8,193.7 448.2,195.0 448.5,192.8 448.8,193.5 449.2,190.6 449.5,189.7 449.8,187.3 450.1,190.2 450.5,194.3 450.8,202.2 451.1,204.4 451.5,207.9 451.8,204.2 452.1,199.1 452.4,200.7 452.8,198.1 453.1,200.5 453.4,199.0 453.8,198.4 454.1,198.2 454.4,203.1 454.7,200.8 455.1,196.8 455.4,194.1 455.7,193.3 456.1,195.4 456.4,193.8 456.7,195.7 457.0,193.0 457.4,193.5 457.7,193.0 458.0,193.6 458.3,194.4 458.7,200.0 459.0,198.9 459.3,195.9 459.7,199.0 460.0,198.0 460.3,195.0 460.6,195.2 461.0,192.4 461.3,192.4 461.6,190.1 462.0,192.0 462.3,193.9 462.6,187.6 462.9,191.9 463.3,191.4 463.6,189.5 463.9,188.8 464.3,187.2 464.6,190.7 464.9,192.3 465.2,191.8 465.6,193.1 465.9,191.4 466.2,189.7 466.6,188.4 466.9,188.8 467.2,187.2 467.5,190.7 467.9,192.4 468.2,192.5 468.5,190.8 468.9,188.0 469.2,187.4 469.5,187.8 469.8,187.7 470.2,186.0 470.5,183.8 470.8,180.5 471.2,181.2 471.5,182.5 471.8,179.1 472.1,180.4 472.5,179.5 472.8,179.1 473.1,181.4 473.5,185.0 473.8,185.0 474.1,188.4 474.4,190.2 474.8,189.1 475.1,187.8 475.4,183.9 475.8,186.1 476.1,186.5 476.4,187.7 476.7,187.4 477.1,190.5 477.4,190.4 477.7,192.4 478.1,191.6 478.4,191.4 478.7,187.9 479.0,187.5 479.4,190.2 479.7,190.4 480.0,191.4 480.4,193.1 480.7,193.6 481.0,193.7 481.3,194.6 481.7,197.1 482.0,198.5 482.3,207.4 482.7,203.7 483.0,201.6 483.3,202.4 483.6,204.1 484.0,201.5 484.3,200.1 484.6,201.1 485.0,200.7 485.3,204.8 485.6,221.7 485.9,228.7 486.3,227.8 486.6,219.1 486.9,228.6 487.3,227.6 487.6,232.8 487.9,242.2 488.2,241.6 488.6,241.7 488.9,244.6 489.2,240.0 489.6,241.8 489.9,240.7 490.2,237.2 490.5,240.7 490.9,240.4 491.2,243.8 491.5,242.3 491.9,238.9 492.2,225.5 492.5,225.5 492.8,225.1 493.2,221.8 493.5,218.9 493.8,222.0 494.2,217.9 494.5,223.9 494.8,222.3 495.1,221.3 495.5,224.3 495.8,223.6 496.1,224.0 496.5,224.3 496.8,226.8 497.1,225.3 497.4,221.6 497.8,223.5 498.1,222.0 498.4,221.0 498.7,224.1 499.1,224.6 499.4,222.0 499.7,223.5 500.1,223.7 500.4,216.1 500.7,218.5 501.0,221.1 501.4,222.3 501.7,224.7 502.0,226.3 502.4,225.1 502.7,231.4 503.0,231.9 503.3,234.2 503.7,235.2 504.0,231.4 504.3,230.5 504.7,218.4 505.0,217.5 505.3,219.1 505.6,218.7 506.0,216.3 506.3,217.1 506.6,214.5 507.0,212.6 507.3,211.8 507.6,212.4 507.9,212.4 508.3,214.0 508.6,211.8 508.9,207.3 509.3,207.9 509.6,208.1 509.9,203.7 510.2,204.0 510.6,206.4 510.9,204.0 511.2,204.1 511.6,204.6 511.9,205.9 512.2,205.8 512.5,204.5 512.9,207.1 513.2,203.5 513.5,204.1 513.9,201.1 514.2,198.1 514.5,197.0 514.8,201.5 515.2,203.6 515.5,205.7 515.8,208.1 516.2,208.0 516.5,208.4 516.8,213.6 517.1,214.1 517.5,213.2 517.8,214.9 518.1,212.5 518.5,206.8 518.8,206.9 519.1,204.0 519.4,205.6 519.8,207.4 520.1,207.0 520.4,203.3 520.8,205.0 521.1,204.9 521.4,206.6 521.7,206.8 522.1,206.7 522.4,210.2 522.7,208.6 523.1,210.1 523.4,210.1 523.7,210.9 524.0,207.5 524.4,207.3 524.7,207.5 525.0,205.2 525.4,210.0 525.7,212.6 526.0,210.4 526.3,210.9 526.7,212.2 527.0,213.2 527.3,214.7 527.7,213.2 528.0,212.8 528.3,214.1 528.6,213.6 529.0,211.5 529.3,213.8 529.6,214.8 530.0,218.4 530.3,218.7 530.6,219.9 530.9,219.9 531.3,219.9 531.6,220.8 531.9,221.1 532.3,222.7 532.6,213.7 532.9,215.8 533.2,216.5 533.6,219.3 533.9,217.7 534.2,221.1 534.6,217.9 534.9,217.9 535.2,216.4 535.5,217.6 535.9,217.7 536.2,217.1 536.5,218.2 536.8,220.6 537.2,216.8 537.5,212.4 537.8,215.0 538.2,215.6 538.5,216.1 538.8,216.4 539.1,217.7 539.5,214.4 539.8,211.4 540.1,213.0 540.5,212.5 540.8,213.3 541.1,211.1 541.4,208.9 541.8,208.9 542.1,207.8 542.4,207.3 542.8,207.1 543.1,203.9 543.4,207.2 543.7,206.5 544.1,202.7 544.4,202.4 544.7,200.2 545.1,201.4 545.4,194.5 545.7,198.2 546.0,199.5 546.4,200.1 546.7,201.0 547.0,201.5 547.4,201.0 547.7,198.1 548.0,200.4 548.3,199.6 548.7,199.7 549.0,200.9 549.3,202.3 549.7,201.9 550.0,202.7 550.3,202.9 550.6,204.8 551.0,204.4 551.3,202.8 551.6,201.3 552.0,202.9 552.3,206.2 552.6,206.3 552.9,203.7 553.3,199.6 553.6,199.3 553.9,200.7 554.3,198.1 554.6,199.6 554.9,198.5 555.2,199.9 555.6,201.8 555.9,201.4 556.2,201.7 556.6,198.8 556.9,195.3 557.2,189.1 557.5,192.6 557.9,192.0 558.2,192.8 558.5,189.7 558.9,186.3 559.2,185.2 559.5,182.6 559.8,179.1 560.2,179.9 560.5,181.7 560.8,181.7 561.2,182.2 561.5,184.5 561.8,185.1 562.1,187.9 562.5,192.0 562.8,191.3 563.1,190.5 563.5,191.1 563.8,192.0 564.1,191.5 564.4,188.2 564.8,187.9 565.1,185.0 565.4,183.0 565.8,183.5 566.1,182.0 566.4,186.5 566.7,183.9 567.1,186.0 567.4,182.0 567.7,183.2 568.1,179.0 568.4,177.9 568.7,178.6 569.0,180.9 569.4,182.0 569.7,178.8 570.0,180.2 570.4,185.5 570.7,184.3 571.0,183.6 571.3,181.6 571.7,183.2 572.0,185.2 572.3,198.8 572.7,202.6 573.0,199.3 573.3,199.4 573.6,195.6 574.0,193.5 574.3,193.9 574.6,191.0 575.0,184.8 575.3,189.3 575.6,186.9 575.9,186.3 576.3,184.4 576.6,183.1 576.9,184.1 577.2,184.8 577.6,181.9 577.9,185.4 578.2,185.0 578.6,186.0 578.9,184.9 579.2,186.4 579.5,188.0 579.9,188.2 580.2,187.5 580.5,188.2 580.9,190.2 581.2,190.8 581.5,189.9 581.8,190.3 582.2,186.2 582.5,187.0 582.8,184.9 583.2,184.2 583.5,184.2 583.8,183.0 584.1,181.9 584.5,184.5 584.8,182.2 585.1,182.3 585.5,178.4 585.8,178.6 586.1,178.2 586.4,179.3 586.8,181.9 587.1,184.9 587.4,187.0 587.8,187.1 588.1,186.9 588.4,179.7 588.7,175.0 589.1,176.7 589.4,173.3 589.7,176.5 590.1,178.4 590.4,178.3 590.7,176.8 591.0,173.7 591.4,175.4 591.7,176.4 592.0,177.4 592.4,180.9 592.7,181.5 593.0,183.8 593.3,186.3 593.7,187.0 594.0,189.5 594.3,190.9 594.7,188.7 595.0,189.3 595.3,187.1 595.6,182.9 596.0,180.2 596.3,182.7 596.6,178.7 597.0,178.1 597.3,179.2 597.6,182.8 597.9,180.5 598.3,176.5 598.6,176.7 598.9,173.8 599.3,173.4 599.6,154.5 599.9,154.1 600.2,149.0 600.6,152.4 600.9,157.2 601.2,154.9 601.6,155.0 601.9,155.5 602.2,158.9 602.5,157.0 602.9,158.1 603.2,160.6 603.5,161.3 603.9,158.3 604.2,160.5 604.5,157.2 604.8,155.4 605.2,154.3 605.5,155.5 605.8,156.4 606.2,158.2 606.5,157.4 606.8,155.2 607.1,154.9 607.5,153.6 607.8,154.7 608.1,152.2 608.5,153.6 608.8,156.2 609.1,158.4 609.4,155.7 609.8,158.4 610.1,159.2 610.4,157.9 610.8,159.7 611.1,160.7 611.4,165.8 611.7,164.2 612.1,160.8 612.4,159.3 612.7,159.0 613.1,161.5 613.4,162.1 613.7,164.7 614.0,166.0 614.4,162.6 614.7,161.6 615.0,160.1 615.4,160.9 615.7,164.6 616.0,165.2 616.3,170.1 616.7,170.3 617.0,170.0 617.3,168.3 617.6,166.9 618.0,168.5 618.3,169.6 618.6,169.8 619.0,171.3 619.3,172.1 619.6,171.4 619.9,169.0 620.3,171.3 620.6,172.0 620.9,173.8 621.3,174.7 621.6,176.4 621.9,170.5 622.2,171.0 622.6,171.8 622.9,169.7 623.2,170.7 623.6,166.8 623.9,164.8 624.2,169.1 624.5,168.8 624.9,167.8 625.2,170.3 625.5,171.1 625.9,171.3 626.2,173.2 626.5,173.1 626.8,171.9 627.2,170.2 627.5,169.9 627.8,170.9 628.2,168.3 628.5,168.2 628.8,169.1 629.1,171.5 629.5,168.3 629.8,168.3 630.1,166.9 630.5,164.7 630.8,168.2 631.1,172.0 631.4,175.0 631.8,177.8 632.1,174.1 632.4,175.4 632.8,180.0 633.1,181.8 633.4,181.6 633.7,182.8 634.1,185.9 634.4,184.0 634.7,189.4 635.1,191.6 635.4,193.8 635.7,193.4 636.0,185.1 636.4,179.5 636.7,180.6 637.0,181.2 637.4,179.8 637.7,179.0 638.0,177.2 638.3,178.0 638.7,177.3 639.0,178.4 639.3,178.2 639.7,180.3 640.0,179.5 640.3,182.1 640.6,182.6 641.0,184.3 641.3,184.5 641.6,183.7 642.0,188.0 642.3,188.7 642.6,188.5 642.9,191.6 643.3,191.7 643.6,190.8 643.9,188.2 644.3,189.5 644.6,187.7 644.9,189.1 645.2,187.7 645.6,188.5 645.9,185.5 646.2,186.9 646.6,186.8 646.9,183.3 647.2,184.7 647.5,180.0 647.9,179.5 648.2,177.2 648.5,180.8 648.9,180.6 649.2,181.2 649.5,172.7 649.8,169.0 650.2,173.3 650.5,172.7 650.8,176.0 651.2,174.6 651.5,174.5 651.8,179.3 652.1,179.6 652.5,180.9 652.8,180.3 653.1,180.5 653.5,179.7 653.8,180.7 654.1,180.2 654.4,179.4 654.8,178.9 655.1,178.2 655.4,178.0 655.8,181.5 656.1,182.2 656.4,182.2 656.7,183.3 657.1,181.0 657.4,176.4 657.7,180.3 658.0,180.6 658.4,181.9 658.7,182.1 659.0,181.7 659.4,182.9 659.7,182.5 660.0,182.7 660.3,181.8 660.7,180.4 661.0,181.5 661.3,182.5 661.7,185.8 662.0,186.1 662.3,186.4 662.6,191.5 663.0,189.7 663.3,188.4 663.6,197.3 664.0,194.3 664.3,190.3 664.6,191.1 664.9,191.7 665.3,192.9 665.6,191.8 665.9,193.0 666.3,192.8 666.6,193.3 666.9,193.1 667.2,194.2 667.6,192.8 667.9,192.5 668.2,191.5 668.6,193.2 668.9,193.6 669.2,193.5 669.5,191.8 669.9,192.1 670.2,190.8 670.5,189.8 670.9,192.4 671.2,191.7 671.5,192.1 671.8,184.3 672.2,184.2 672.5,184.8 672.8,185.0 673.2,182.1 673.5,181.8 673.8,182.6 674.1,182.1 674.5,186.3 674.8,187.3 675.1,185.5 675.5,176.6 675.8,176.6 676.1,178.3 676.4,176.2 676.8,175.8 677.1,170.4 677.4,171.0 677.8,169.5 678.1,170.3 678.4,170.6 678.7,169.9 679.1,168.5 679.4,167.9 679.7,162.7 680.1,162.0 680.4,163.6 680.7,169.2 681.0,170.5 681.4,160.2 681.7,163.4 682.0,163.8 682.4,167.3 682.7,164.6 683.0,162.3 683.3,162.7 683.7,161.4 684.0,163.5 684.3,161.5 684.7,160.6 685.0,160.7 685.3,157.3 685.6,155.8 686.0,156.1 686.3,157.2 686.6,160.6 687.0,161.8 687.3,160.1 687.6,158.5 687.9,159.9 688.3,161.7 688.6,166.7 688.9,169.6 689.3,168.2 689.6,169.5 689.9,172.0 690.2,177.2 690.6,180.5 690.9,182.9 691.2,177.7 691.6,182.6 691.9,180.2 692.2,177.6 692.5,176.7 692.9,178.8 693.2,179.9 693.5,182.7 693.9,182.5 694.2,178.8 694.5,175.7 694.8,174.8 695.2,175.9 695.5,182.3 695.8,179.5 696.2,182.1 696.5,178.3 696.8,178.9 697.1,179.2 697.5,178.0 697.8,171.8 698.1,172.4 698.4,166.6 698.8,165.5 699.1,165.5 699.4,167.3 699.8,168.7 700.1,169.5 700.4,167.4 700.7,170.3 701.1,171.5 701.4,171.8 701.7,169.7 702.1,171.1 702.4,170.4 702.7,171.5 703.0,171.0 703.4,169.5 703.7,170.1 704.0,168.9 704.4,166.5 704.7,165.8 705.0,165.0 705.3,164.0 705.7,164.2 706.0,167.2 706.3,164.9 706.7,165.4 707.0,165.4 707.3,167.1 707.6,166.5 708.0,163.3 708.3,163.5 708.6,162.6 709.0,164.1 709.3,163.9 709.6,162.5 709.9,160.5 710.3,159.9 710.6,159.6 710.9,158.5 711.3,157.4 711.6,157.3 711.9,158.5 712.2,157.8 712.6,156.8 712.9,156.4 713.2,155.4 713.6,155.6 713.9,155.0 714.2,156.5 714.5,155.4 714.9,156.1 715.2,155.9 715.5,152.3 715.9,152.8 716.2,152.1 716.5,155.1 716.8,156.7 717.2,154.4 717.5,156.4 717.8,165.6 718.2,167.4 718.5,168.2 718.8,168.2 719.1,165.9 719.5,164.8 719.8,164.7 720.1,165.8 720.5,165.4 720.8,165.6 721.1,165.4 721.4,164.5 721.8,154.8 722.1,158.0 722.4,155.9 722.8,158.4 723.1,157.1 723.4,159.1 723.7,160.4 724.1,161.9 724.4,161.6 724.7,160.7 725.1,161.6 725.4,159.7 725.7,159.4 726.0,155.6 726.4,156.0 726.7,156.1 727.0,154.1 727.4,149.3 727.7,145.6 728.0,145.9 728.3,144.7 728.7,141.4 729.0,141.8 729.3,142.8 729.7,143.1 730.0,141.9 730.3,141.2 730.6,135.0 731.0,135.6 731.3,137.8 731.6,137.6 732.0,139.3 732.3,137.3 732.6,138.5 732.9,144.8 733.3,141.9 733.6,142.6 733.9,140.9 734.3,140.4 734.6,142.7 734.9,140.2 735.2,141.4 735.6,143.3 735.9,139.6 736.2,137.6 736.5,136.7 736.9,139.3 737.2,137.0 737.5,138.3 737.9,138.0 738.2,138.1 738.5,141.5 738.8,153.7 739.2,154.1 739.5,153.8 739.8,150.6 740.2,151.1 740.5,149.2 740.8,151.1 741.1,153.1 741.5,153.1 741.8,154.4 742.1,153.1 742.5,156.4 742.8,155.7 743.1,152.2 743.4,150.4 743.8,150.7 744.1,149.8 744.4,150.0 744.8,150.7 745.1,149.0 745.4,147.9 745.7,147.1 746.1,144.9 746.4,144.2 746.7,140.7 747.1,140.0 747.4,141.6 747.7,143.2 748.0,144.0 748.4,143.7 748.7,143.0 749.0,140.3 749.4,138.8 749.7,140.1 750.0,139.8 750.3,139.1 750.7,140.0 751.0,139.7 751.3,140.7 751.7,133.6 752.0,133.5 752.3,131.2 752.6,130.4 753.0,128.6 753.3,124.2 753.6,124.1 754.0,126.3 754.3,127.1 754.6,125.3 754.9,123.8 755.3,126.4 755.6,124.0 755.9,125.9 756.3,127.8 756.6,126.4 756.9,123.5 757.2,121.7 757.6,122.8 757.9,119.4 758.2,116.6 758.6,116.5 758.9,120.9 759.2,123.0 759.5,115.4 759.9,115.3 760.2,115.0 760.5,108.6 760.9,114.0 761.2,113.4 761.5,113.1 761.8,113.6 762.2,113.0 762.5,111.9 762.8,113.1 763.2,111.0 763.5,110.4 763.8,120.4 764.1,121.8 764.5,120.4 764.8,126.0 765.1,125.7 765.5,129.6 765.8,133.6 766.1,131.4 766.4,129.9 766.8,130.1 767.1,133.1 767.4,131.8 767.8,131.2 768.1,130.7 768.4,131.6 768.7,131.6 769.1,135.3 769.4,133.7 769.7,132.4 770.1,132.7 770.4,138.3 770.7,139.9 771.0,142.9 771.4,140.8 771.7,139.3 772.0,139.2 772.4,137.7 772.7,137.4 773.0,132.1 773.3,131.1 773.7,129.8 774.0,128.1 774.3,126.9 774.7,127.9 775.0,130.0 775.3,127.0 775.6,128.0 776.0,126.4 776.3,122.9 776.6,123.5 776.9,121.3 777.3,124.2 777.6,128.2 777.9,129.2 778.3,125.8 778.6,125.4 778.9,126.3 779.2,124.7 779.6,122.1 779.9,118.4 780.2,117.8 780.6,113.5 780.9,115.0 781.2,113.5 781.5,114.8 781.9,114.4 782.2,114.8 782.5,112.0 782.9,107.9 783.2,107.9 783.5,106.6 783.8,97.6 784.2,96.2 784.5,93.6 784.8,97.5 785.2,100.4 785.5,94.2 785.8,96.1 786.1,95.2 786.5,104.4 786.8,101.4 787.1,100.9 787.5,101.9 787.8,94.3 788.1,93.0 788.4,92.3 788.8,94.6 789.1,91.7 789.4,84.4 789.8,87.8 790.1,90.0 790.4,88.7 790.7,85.9 791.1,87.1 791.4,80.1 791.7,76.5 792.1,80.9 792.4,90.8 792.7,90.4 793.0,92.6 793.4,90.6 793.7,86.3 794.0,87.9 794.4,92.9 794.7,90.2 795.0,94.2 795.3,99.1 795.7,99.2 796.0,100.1"/><polyline fill="none" stroke="#16a34a" stroke-width="3" points="78.0,308.5 78.3,304.2 78.7,308.5 79.0,308.5 79.3,308.5 79.6,308.5 80.0,307.3 80.3,305.0 80.6,305.0 81.0,302.5 81.3,300.1 81.6,297.1 81.9,293.6 82.3,293.0 82.6,296.6 82.9,297.2 83.3,297.0 83.6,297.8 83.9,298.0 84.2,298.2 84.6,297.9 84.9,300.6 85.2,304.9 85.6,305.7 85.9,305.6 86.2,304.2 86.5,305.1 86.9,306.2 87.2,309.2 87.5,309.1 87.9,314.7 88.2,313.2 88.5,314.5 88.8,316.7 89.2,313.0 89.5,315.3 89.8,314.6 90.2,315.6 90.5,314.2 90.8,312.0 91.1,308.3 91.5,311.5 91.8,311.4 92.1,309.4 92.5,312.1 92.8,312.1 93.1,312.7 93.4,312.1 93.8,312.9 94.1,315.4 94.4,314.7 94.8,315.2 95.1,314.8 95.4,317.5 95.7,307.9 96.1,310.2 96.4,311.4 96.7,311.5 97.1,310.1 97.4,313.5 97.7,310.8 98.0,304.7 98.4,303.7 98.7,298.2 99.0,297.6 99.3,298.0 99.7,300.8 100.0,300.3 100.3,299.6 100.7,300.1 101.0,302.5 101.3,301.1 101.6,300.5 102.0,299.8 102.3,297.4 102.6,296.1 103.0,295.0 103.3,296.3 103.6,295.5 103.9,297.8 104.3,298.5 104.6,294.4 104.9,289.9 105.3,271.4 105.6,266.6 105.9,260.3 106.2,261.6 106.6,259.3 106.9,257.2 107.2,254.5 107.6,258.0 107.9,264.6 108.2,269.2 108.5,261.5 108.9,265.4 109.2,264.3 109.5,262.6 109.9,263.1 110.2,262.6 110.5,264.9 110.8,265.2 111.2,265.2 111.5,265.2 111.8,265.2 112.2,266.6 112.5,267.5 112.8,266.6 113.1,264.3 113.5,263.3 113.8,258.5 114.1,259.7 114.5,263.5 114.8,265.2 115.1,266.4 115.4,266.6 115.8,267.3 116.1,269.4 116.4,273.9 116.8,273.3 117.1,275.1 117.4,276.1 117.7,276.1 118.1,275.9 118.4,275.7 118.7,275.0 119.1,272.3 119.4,264.3 119.7,268.7 120.0,267.7 120.4,266.4 120.7,266.2 121.0,267.1 121.4,267.1 121.7,267.7 122.0,269.4 122.3,269.8 122.7,270.2 123.0,270.1 123.3,271.3 123.7,267.9 124.0,270.2 124.3,268.7 124.6,264.2 125.0,263.4 125.3,257.9 125.6,260.2 126.0,263.9 126.3,263.8 126.6,265.6 126.9,266.3 127.3,263.2 127.6,260.3 127.9,260.7 128.3,260.5 128.6,258.2 128.9,259.8 129.2,263.4 129.6,262.3 129.9,266.8 130.2,264.2 130.6,266.8 130.9,266.9 131.2,271.1 131.5,271.9 131.9,272.5 132.2,276.5 132.5,271.4 132.9,273.3 133.2,272.1 133.5,270.1 133.8,269.5 134.2,271.9 134.5,264.6 134.8,263.8 135.2,265.0 135.5,264.7 135.8,264.9 136.1,264.5 136.5,263.5 136.8,260.4 137.1,259.6 137.5,260.2 137.8,259.4 138.1,261.2 138.4,263.1 138.8,262.3 139.1,258.7 139.4,257.0 139.7,255.3 140.1,255.5 140.4,259.1 140.7,256.0 141.1,255.7 141.4,255.2 141.7,259.1 142.0,260.7 142.4,262.9 142.7,262.3 143.0,263.2 143.4,262.9 143.7,260.1 144.0,261.8 144.3,261.7 144.7,260.1 145.0,259.1 145.3,258.3 145.7,258.7 146.0,258.1 146.3,257.7 146.6,259.4 147.0,259.5 147.3,260.9 147.6,260.2 148.0,263.3 148.3,264.3 148.6,269.6 148.9,266.0 149.3,268.0 149.6,266.5 149.9,267.1 150.3,267.9 150.6,265.4 150.9,267.0 151.2,268.2 151.6,269.9 151.9,270.9 152.2,272.1 152.6,271.0 152.9,269.8 153.2,271.2 153.5,270.5 153.9,271.7 154.2,274.7 154.5,272.8 154.9,270.9 155.2,274.9 155.5,276.8 155.8,275.1 156.2,272.9 156.5,274.7 156.8,275.1 157.2,276.2 157.5,275.3 157.8,276.2 158.1,277.6 158.5,278.8 158.8,278.6 159.1,279.7 159.5,279.6 159.8,279.6 160.1,279.1 160.4,276.6 160.8,276.5 161.1,276.7 161.4,276.6 161.8,275.0 162.1,266.6 162.4,267.8 162.7,269.9 163.1,269.1 163.4,269.6 163.7,268.8 164.1,270.2 164.4,271.7 164.7,274.2 165.0,271.4 165.4,272.1 165.7,270.8 166.0,272.6 166.4,271.2 166.7,271.4 167.0,270.6 167.3,271.2 167.7,274.1 168.0,272.5 168.3,274.1 168.7,274.5 169.0,273.2 169.3,272.5 169.6,273.3 170.0,274.4 170.3,275.1 170.6,275.4 171.0,275.8 171.3,275.2 171.6,275.2 171.9,276.3 172.3,274.3 172.6,274.1 172.9,274.1 173.3,272.0 173.6,272.0 173.9,274.6 174.2,272.9 174.6,272.6 174.9,272.7 175.2,273.5 175.6,273.9 175.9,273.9 176.2,275.2 176.5,274.3 176.9,274.2 177.2,275.1 177.5,277.9 177.8,280.3 178.2,280.8 178.5,278.0 178.8,276.5 179.2,278.2 179.5,278.8 179.8,279.5 180.1,280.5 180.5,280.6 180.8,280.5 181.1,279.9 181.5,280.1 181.8,280.8 182.1,280.5 182.4,280.5 182.8,279.5 183.1,280.4 183.4,279.8 183.8,279.4 184.1,276.8 184.4,268.9 184.7,270.7 185.1,268.5 185.4,267.7 185.7,269.2 186.1,269.5 186.4,269.6 186.7,268.4 187.0,264.6 187.4,260.7 187.7,263.5 188.0,270.9 188.4,268.2 188.7,267.2 189.0,267.1 189.3,263.6 189.7,258.9 190.0,259.5 190.3,254.8 190.7,250.9 191.0,251.0 191.3,249.3 191.6,256.2 192.0,253.7 192.3,251.4 192.6,254.0 193.0,253.8 193.3,252.7 193.6,252.6 193.9,253.3 194.3,251.8 194.6,251.3 194.9,251.4 195.3,252.4 195.6,253.8 195.9,253.0 196.2,252.9 196.6,252.3 196.9,252.7 197.2,249.4 197.6,245.8 197.9,243.1 198.2,249.5 198.5,248.0 198.9,248.2 199.2,250.8 199.5,249.8 199.9,246.8 200.2,246.7 200.5,246.2 200.8,244.4 201.2,243.4 201.5,243.3 201.8,242.0 202.2,243.0 202.5,242.7 202.8,241.2 203.1,242.1 203.5,238.9 203.8,234.9 204.1,241.5 204.5,240.6 204.8,245.1 205.1,243.5 205.4,245.9 205.8,245.4 206.1,244.0 206.4,242.3 206.8,241.3 207.1,241.4 207.4,240.6 207.7,242.9 208.1,242.2 208.4,243.8 208.7,242.6 209.1,242.9 209.4,241.6 209.7,243.4 210.0,243.6 210.4,245.9 210.7,246.6 211.0,248.3 211.4,245.1 211.7,245.9 212.0,247.6 212.3,250.1 212.7,249.8 213.0,252.7 213.3,252.0 213.7,252.7 214.0,252.1 214.3,245.0 214.6,246.2 215.0,246.5 215.3,249.1 215.6,247.8 216.0,247.9 216.3,248.0 216.6,249.0 216.9,249.0 217.3,249.0 217.6,248.0 217.9,246.4 218.2,241.2 218.6,243.5 218.9,243.3 219.2,243.8 219.6,243.5 219.9,245.3 220.2,244.9 220.5,244.1 220.9,245.9 221.2,246.0 221.5,250.8 221.9,250.8 222.2,251.7 222.5,251.3 222.8,250.4 223.2,244.8 223.5,246.8 223.8,244.9 224.2,243.3 224.5,256.1 224.8,258.2 225.1,258.2 225.5,257.9 225.8,257.2 226.1,257.1 226.5,255.3 226.8,257.7 227.1,258.3 227.4,258.6 227.8,258.4 228.1,257.1 228.4,256.9 228.8,255.4 229.1,251.8 229.4,254.3 229.7,256.8 230.1,256.8 230.4,255.9 230.7,256.9 231.1,257.0 231.4,255.4 231.7,255.6 232.0,256.0 232.4,255.5 232.7,257.1 233.0,256.6 233.4,254.8 233.7,257.4 234.0,255.9 234.3,257.7 234.7,259.0 235.0,258.6 235.3,260.0 235.7,258.8 236.0,258.3 236.3,258.5 236.6,260.1 237.0,261.7 237.3,260.7 237.6,261.2 238.0,261.2 238.3,263.0 238.6,261.4 238.9,262.9 239.3,261.2 239.6,263.6 239.9,261.5 240.3,261.7 240.6,263.0 240.9,260.1 241.2,260.5 241.6,259.9 241.9,262.3 242.2,262.2 242.6,263.9 242.9,262.9 243.2,259.5 243.5,257.1 243.9,256.5 244.2,252.0 244.5,256.5 244.9,256.6 245.2,254.5 245.5,256.1 245.8,256.7 246.2,256.5 246.5,257.5 246.8,258.2 247.2,255.7 247.5,256.9 247.8,258.6 248.1,256.9 248.5,257.7 248.8,258.9 249.1,258.8 249.5,258.4 249.8,258.1 250.1,257.7 250.4,255.5 250.8,252.8 251.1,255.5 251.4,254.0 251.8,251.7 252.1,251.1 252.4,247.8 252.7,243.7 253.1,242.2 253.4,243.0 253.7,243.5 254.1,242.9 254.4,239.5 254.7,240.4 255.0,241.3 255.4,243.1 255.7,243.8 256.0,242.9 256.4,241.5 256.7,241.0 257.0,235.8 257.3,227.3 257.7,226.7 258.0,229.7 258.3,229.3 258.6,223.5 259.0,213.3 259.3,207.5 259.6,205.7 260.0,206.0 260.3,196.8 260.6,189.7 260.9,200.0 261.3,206.6 261.6,203.8 261.9,203.1 262.3,204.6 262.6,206.1 262.9,208.1 263.2,206.9 263.6,202.7 263.9,207.2 264.2,204.7 264.6,206.1 264.9,198.2 265.2,201.3 265.5,199.3 265.9,202.2 266.2,201.6 266.5,197.9 266.9,200.5 267.2,196.8 267.5,202.2 267.8,202.8 268.2,203.9 268.5,204.1 268.8,207.5 269.2,207.8 269.5,205.1 269.8,206.8 270.1,206.6 270.5,207.3 270.8,212.6 271.1,222.0 271.5,222.4 271.8,224.9 272.1,229.8 272.4,231.1 272.8,235.8 273.1,228.4 273.4,246.6 273.8,237.1 274.1,233.1 274.4,223.6 274.7,219.5 275.1,220.6 275.4,216.4 275.7,219.2 276.1,216.2 276.4,216.9 276.7,221.3 277.0,220.9 277.4,221.6 277.7,211.7 278.0,210.5 278.4,207.9 278.7,210.8 279.0,210.5 279.3,208.4 279.7,210.1 280.0,206.6 280.3,206.1 280.7,206.1 281.0,210.4 281.3,204.5 281.6,206.4 282.0,205.4 282.3,203.2 282.6,202.8 283.0,198.4 283.3,200.5 283.6,206.6 283.9,206.5 284.3,203.6 284.6,201.3 284.9,194.9 285.3,191.9 285.6,184.0 285.9,181.8 286.2,187.8 286.6,178.0 286.9,179.3 287.2,174.9 287.6,173.1 287.9,182.8 288.2,183.4 288.5,185.0 288.9,178.8 289.2,178.8 289.5,179.3 289.9,178.3 290.2,174.6 290.5,177.2 290.8,173.6 291.2,173.6 291.5,175.9 291.8,181.1 292.2,180.4 292.5,179.6 292.8,182.5 293.1,181.5 293.5,179.5 293.8,178.7 294.1,176.8 294.5,177.0 294.8,177.7 295.1,180.3 295.4,176.4 295.8,174.9 296.1,175.2 296.4,177.5 296.8,179.9 297.1,175.9 297.4,177.5 297.7,172.9 298.1,161.7 298.4,166.9 298.7,160.9 299.0,158.2 299.4,161.1 299.7,159.9 300.0,155.3 300.4,159.6 300.7,164.6 301.0,162.9 301.3,158.1 301.7,157.2 302.0,156.4 302.3,157.2 302.7,158.9 303.0,159.4 303.3,158.7 303.6,156.2 304.0,154.4 304.3,152.3 304.6,146.0 305.0,145.9 305.3,145.8 305.6,143.6 305.9,148.9 306.3,149.9 306.6,150.9 306.9,147.1 307.3,147.4 307.6,147.5 307.9,146.4 308.2,147.4 308.6,150.2 308.9,151.4 309.2,152.1 309.6,152.6 309.9,151.1 310.2,152.2 310.5,155.3 310.9,154.6 311.2,156.5 311.5,155.5 311.9,152.7 312.2,159.6 312.5,160.8 312.8,179.0 313.2,178.0 313.5,177.5 313.8,172.5 314.2,169.0 314.5,168.5 314.8,168.7 315.1,169.3 315.5,167.4 315.8,167.9 316.1,169.7 316.5,171.3 316.8,170.4 317.1,169.7 317.4,170.9 317.8,169.6 318.1,170.3 318.4,165.5 318.8,167.3 319.1,165.1 319.4,169.4 319.7,168.1 320.1,169.0 320.4,165.5 320.7,163.8 321.1,163.7 321.4,166.4 321.7,165.5 322.0,165.4 322.4,167.9 322.7,167.0 323.0,169.8 323.4,172.0 323.7,171.2 324.0,170.7 324.3,170.1 324.7,167.4 325.0,165.4 325.3,169.3 325.7,165.7 326.0,162.3 326.3,155.2 326.6,153.4 327.0,154.9 327.3,154.7 327.6,159.9 328.0,155.5 328.3,157.8 328.6,159.3 328.9,161.0 329.3,163.8 329.6,166.0 329.9,165.1 330.3,165.6 330.6,166.1 330.9,166.7 331.2,164.3 331.6,159.7 331.9,160.5 332.2,159.6 332.6,161.2 332.9,161.5 333.2,163.8 333.5,159.5 333.9,161.3 334.2,166.7 334.5,167.1 334.9,168.1 335.2,166.7 335.5,165.7 335.8,166.2 336.2,166.3 336.5,166.2 336.8,165.8 337.2,167.2 337.5,169.6 337.8,169.8 338.1,170.8 338.5,171.9 338.8,161.7 339.1,161.4 339.4,156.1 339.8,155.8 340.1,149.9 340.4,149.8 340.8,147.9 341.1,148.4 341.4,150.0 341.7,151.7 342.1,149.0 342.4,153.0 342.7,147.4 343.1,147.5 343.4,150.4 343.7,151.3 344.0,149.7 344.4,153.3 344.7,155.0 345.0,154.7 345.4,155.8 345.7,152.3 346.0,150.6 346.3,150.7 346.7,150.5 347.0,151.0 347.3,146.6 347.7,145.6 348.0,145.1 348.3,140.2 348.6,133.4 349.0,131.5 349.3,132.9 349.6,140.4 350.0,138.3 350.3,143.8 350.6,146.0 350.9,136.3 351.3,145.1 351.6,151.6 351.9,145.9 352.3,152.9 352.6,154.2 352.9,157.8 353.2,156.9 353.6,161.4 353.9,155.6 354.2,157.5 354.6,151.6 354.9,154.8 355.2,153.3 355.5,153.9 355.9,152.5 356.2,156.1 356.5,155.3 356.9,153.7 357.2,155.5 357.5,159.8 357.8,159.6 358.2,160.0 358.5,163.4 358.8,162.9 359.2,161.7 359.5,155.7 359.8,156.0 360.1,156.4 360.5,156.9 360.8,156.4 361.1,157.1 361.5,161.3 361.8,161.8 362.1,161.1 362.4,161.2 362.8,163.5 363.1,165.7 363.4,166.9 363.8,162.8 364.1,160.5 364.4,160.6 364.7,159.0 365.1,158.9 365.4,159.5 365.7,162.2 366.1,163.0 366.4,163.7 366.7,166.1 367.0,166.0 367.4,165.6 367.7,165.0 368.0,171.9 368.4,172.2 368.7,174.3 369.0,174.0 369.3,173.8 369.7,174.2 370.0,174.0 370.3,174.3 370.7,171.2 371.0,172.7 371.3,170.7 371.6,171.2 372.0,170.0 372.3,164.2 372.6,165.1 373.0,163.2 373.3,162.6 373.6,163.8 373.9,159.6 374.3,161.6 374.6,161.7 374.9,161.6 375.3,159.4 375.6,156.5 375.9,152.0 376.2,152.0 376.6,153.3 376.9,146.4 377.2,149.0 377.5,151.6 377.9,148.6 378.2,147.5 378.5,148.8 378.9,148.0 379.2,146.4 379.5,146.9 379.8,148.8 380.2,148.9 380.5,149.6 380.8,151.2 381.2,159.4 381.5,162.7 381.8,160.4 382.1,154.5 382.5,161.4 382.8,163.4 383.1,163.8 383.5,165.6 383.8,164.1 384.1,164.7 384.4,158.6 384.8,156.6 385.1,157.3 385.4,157.5 385.8,161.4 386.1,158.1 386.4,156.6 386.7,154.0 387.1,154.0 387.4,155.1 387.7,155.6 388.1,154.5 388.4,156.9 388.7,154.8 389.0,155.7 389.4,158.3 389.7,159.1 390.0,160.0 390.4,160.0 390.7,161.6 391.0,160.1 391.3,159.6 391.7,160.3 392.0,159.0 392.3,156.4 392.7,155.7 393.0,155.3 393.3,157.2 393.6,156.9 394.0,156.3 394.3,156.4 394.6,154.0 395.0,153.0 395.3,146.6 395.6,146.9 395.9,146.7 396.3,146.2 396.6,147.8 396.9,148.4 397.3,149.5 397.6,149.0 397.9,148.7 398.2,150.9 398.6,150.0 398.9,148.7 399.2,147.3 399.6,150.4 399.9,145.4 400.2,147.6 400.5,147.9 400.9,144.7 401.2,146.0 401.5,147.6 401.9,141.0 402.2,142.3 402.5,142.4 402.8,143.2 403.2,147.7 403.5,147.8 403.8,147.5 404.2,147.8 404.5,147.1 404.8,147.1 405.1,143.6 405.5,146.5 405.8,146.9 406.1,146.6 406.5,146.3 406.8,146.5 407.1,149.8 407.4,146.8 407.8,146.7 408.1,144.1 408.4,145.3 408.8,145.8 409.1,145.4 409.4,148.5 409.7,146.6 410.1,146.5 410.4,149.1 410.7,147.2 411.1,147.0 411.4,144.6 411.7,146.5 412.0,149.6 412.4,152.3 412.7,152.1 413.0,153.5 413.4,156.4 413.7,156.5 414.0,157.2 414.3,157.9 414.7,157.4 415.0,159.3 415.3,161.2 415.7,163.2 416.0,164.7 416.3,163.6 416.6,162.4 417.0,164.2 417.3,164.4 417.6,166.5 417.9,167.4 418.3,167.1 418.6,168.8 418.9,166.2 419.3,169.3 419.6,165.9 419.9,165.3 420.2,163.9 420.6,162.7 420.9,163.3 421.2,161.8 421.6,158.8 421.9,158.7 422.2,156.1 422.5,159.2 422.9,162.3 423.2,159.8 423.5,160.9 423.9,160.4 424.2,159.8 424.5,159.1 424.8,159.8 425.2,156.6 425.5,161.2 425.8,161.1 426.2,163.0 426.5,166.8 426.8,166.2 427.1,167.7 427.5,166.1 427.8,168.8 428.1,166.5 428.5,162.5 428.8,160.9 429.1,161.8 429.4,164.0 429.8,162.3 430.1,162.1 430.4,161.1 430.8,158.3 431.1,159.4 431.4,161.8 431.7,162.1 432.1,159.0 432.4,158.4 432.7,160.5 433.1,163.0 433.4,163.9 433.7,166.1 434.0,162.1 434.4,160.8 434.7,160.6 435.0,161.3 435.4,160.6 435.7,162.4 436.0,164.8 436.3,165.2 436.7,162.0 437.0,161.0 437.3,174.7 437.7,181.5 438.0,192.6 438.3,191.1 438.6,178.3 439.0,178.6 439.3,176.4 439.6,178.4 440.0,173.6 440.3,172.6 440.6,173.3 440.9,173.5 441.3,174.0 441.6,170.3 441.9,174.2 442.3,176.2 442.6,176.0 442.9,172.7 443.2,176.6 443.6,177.4 443.9,180.7 444.2,184.2 444.6,185.6 444.9,186.5 445.2,186.6 445.5,188.2 445.9,188.0 446.2,186.9 446.5,187.7 446.9,189.3 447.2,191.2 447.5,190.2 447.8,193.7 448.2,195.0 448.5,192.8 448.8,193.5 449.2,190.6 449.5,189.7 449.8,187.3 450.1,190.2 450.5,194.3 450.8,202.2 451.1,204.4 451.5,207.9 451.8,204.2 452.1,199.1 452.4,200.7 452.8,198.1 453.1,200.5 453.4,199.0 453.8,198.4 454.1,198.2 454.4,203.1 454.7,200.8 455.1,196.8 455.4,194.1 455.7,193.3 456.1,195.4 456.4,193.8 456.7,195.7 457.0,193.0 457.4,193.5 457.7,193.0 458.0,193.6 458.3,194.4 458.7,200.0 459.0,198.9 459.3,195.9 459.7,199.0 460.0,198.0 460.3,195.0 460.6,195.2 461.0,192.4 461.3,192.4 461.6,190.1 462.0,192.0 462.3,193.9 462.6,187.6 462.9,191.9 463.3,191.4 463.6,189.5 463.9,188.8 464.3,187.2 464.6,190.7 464.9,192.3 465.2,191.8 465.6,193.1 465.9,191.4 466.2,189.7 466.6,188.4 466.9,188.8 467.2,187.2 467.5,190.7 467.9,192.4 468.2,192.5 468.5,190.8 468.9,188.0 469.2,187.4 469.5,187.8 469.8,187.7 470.2,186.0 470.5,183.8 470.8,180.5 471.2,181.2 471.5,182.5 471.8,179.1 472.1,180.4 472.5,179.5 472.8,179.1 473.1,181.4 473.5,185.0 473.8,185.0 474.1,188.4 474.4,190.2 474.8,189.1 475.1,187.8 475.4,183.9 475.8,186.1 476.1,186.5 476.4,187.7 476.7,187.4 477.1,190.5 477.4,190.4 477.7,192.4 478.1,191.6 478.4,191.4 478.7,187.9 479.0,187.5 479.4,190.2 479.7,190.4 480.0,191.4 480.4,193.1 480.7,193.6 481.0,193.7 481.3,194.6 481.7,197.1 482.0,198.5 482.3,207.4 482.7,203.7 483.0,201.6 483.3,202.4 483.6,204.1 484.0,201.5 484.3,200.1 484.6,201.1 485.0,200.7 485.3,204.8 485.6,221.7 485.9,228.7 486.3,227.8 486.6,219.1 486.9,228.6 487.3,227.6 487.6,232.8 487.9,242.2 488.2,241.6 488.6,241.7 488.9,244.6 489.2,240.0 489.6,241.8 489.9,240.7 490.2,237.2 490.5,240.7 490.9,240.4 491.2,243.8 491.5,242.3 491.9,238.9 492.2,225.5 492.5,225.5 492.8,225.1 493.2,221.8 493.5,218.9 493.8,222.0 494.2,217.9 494.5,223.9 494.8,222.3 495.1,221.3 495.5,224.3 495.8,223.6 496.1,224.0 496.5,224.3 496.8,226.8 497.1,225.3 497.4,221.6 497.8,223.5 498.1,222.0 498.4,221.0 498.7,224.1 499.1,224.6 499.4,222.0 499.7,223.5 500.1,223.7 500.4,216.1 500.7,218.5 501.0,221.1 501.4,222.3 501.7,224.7 502.0,226.3 502.4,225.1 502.7,231.4 503.0,231.9 503.3,234.2 503.7,235.2 504.0,231.4 504.3,230.5 504.7,218.4 505.0,217.5 505.3,219.1 505.6,218.7 506.0,216.3 506.3,217.1 506.6,214.5 507.0,212.6 507.3,211.8 507.6,212.4 507.9,212.4 508.3,214.0 508.6,211.8 508.9,207.3 509.3,207.9 509.6,208.1 509.9,203.7 510.2,204.0 510.6,206.4 510.9,204.0 511.2,204.1 511.6,204.6 511.9,205.9 512.2,205.8 512.5,204.5 512.9,207.1 513.2,203.5 513.5,204.1 513.9,201.1 514.2,198.1 514.5,197.0 514.8,201.5 515.2,203.6 515.5,205.7 515.8,208.1 516.2,208.0 516.5,208.4 516.8,213.6 517.1,214.1 517.5,213.2 517.8,214.9 518.1,212.5 518.5,206.8 518.8,206.9 519.1,204.0 519.4,205.6 519.8,207.4 520.1,207.0 520.4,203.3 520.8,205.0 521.1,204.9 521.4,206.6 521.7,206.8 522.1,206.7 522.4,210.2 522.7,208.6 523.1,210.1 523.4,210.1 523.7,210.9 524.0,207.5 524.4,207.3 524.7,207.5 525.0,205.2 525.4,210.0 525.7,212.6 526.0,210.4 526.3,210.9 526.7,212.2 527.0,213.2 527.3,214.7 527.7,213.2 528.0,212.8 528.3,214.1 528.6,213.6 529.0,211.5 529.3,213.8 529.6,214.8 530.0,218.4 530.3,218.7 530.6,219.9 530.9,219.9 531.3,219.9 531.6,220.8 531.9,221.1 532.3,222.7 532.6,213.7 532.9,215.8 533.2,216.5 533.6,219.3 533.9,217.7 534.2,221.1 534.6,217.9 534.9,217.9 535.2,216.4 535.5,217.6 535.9,217.7 536.2,217.1 536.5,218.2 536.8,220.6 537.2,216.8 537.5,212.4 537.8,215.0 538.2,215.6 538.5,216.1 538.8,216.4 539.1,217.7 539.5,214.4 539.8,211.4 540.1,213.0 540.5,212.5 540.8,213.3 541.1,211.1 541.4,208.9 541.8,208.9 542.1,207.8 542.4,207.3 542.8,207.1 543.1,203.9 543.4,207.2 543.7,206.5 544.1,202.7 544.4,202.4 544.7,200.2 545.1,201.4 545.4,194.5 545.7,198.2 546.0,199.5 546.4,200.1 546.7,201.0 547.0,201.5 547.4,201.0 547.7,198.1 548.0,200.4 548.3,199.6 548.7,199.7 549.0,200.9 549.3,202.3 549.7,201.9 550.0,202.7 550.3,202.9 550.6,204.8 551.0,204.4 551.3,202.8 551.6,201.3 552.0,202.9 552.3,206.2 552.6,206.3 552.9,203.7 553.3,199.6 553.6,199.3 553.9,200.7 554.3,198.1 554.6,199.6 554.9,198.5 555.2,199.9 555.6,201.8 555.9,201.4 556.2,201.7 556.6,198.8 556.9,195.3 557.2,189.1 557.5,192.6 557.9,192.0 558.2,192.8 558.5,189.7 558.9,186.3 559.2,185.2 559.5,182.6 559.8,179.1 560.2,179.9 560.5,181.7 560.8,181.7 561.2,182.2 561.5,184.5 561.8,185.1 562.1,187.9 562.5,192.0 562.8,191.3 563.1,190.5 563.5,191.1 563.8,192.0 564.1,191.5 564.4,188.2 564.8,187.9 565.1,185.0 565.4,183.0 565.8,183.5 566.1,182.0 566.4,186.5 566.7,183.9 567.1,186.0 567.4,182.0 567.7,183.2 568.1,179.0 568.4,177.9 568.7,178.6 569.0,180.9 569.4,182.0 569.7,178.8 570.0,180.2 570.4,185.5 570.7,184.3 571.0,183.6 571.3,181.6 571.7,183.2 572.0,185.2 572.3,198.8 572.7,202.6 573.0,199.3 573.3,199.4 573.6,195.6 574.0,193.5 574.3,193.9 574.6,191.0 575.0,184.8 575.3,189.3 575.6,186.9 575.9,186.3 576.3,184.4 576.6,183.1 576.9,184.1 577.2,184.8 577.6,181.9 577.9,185.4 578.2,185.0 578.6,186.0 578.9,184.9 579.2,186.4 579.5,188.0 579.9,188.2 580.2,187.5 580.5,188.2 580.9,190.2 581.2,190.8 581.5,189.9 581.8,190.3 582.2,186.2 582.5,187.0 582.8,184.9 583.2,184.2 583.5,184.2 583.8,183.0 584.1,181.9 584.5,184.5 584.8,182.2 585.1,182.3 585.5,178.4 585.8,178.6 586.1,178.2 586.4,179.3 586.8,181.9 587.1,184.9 587.4,187.0 587.8,187.1 588.1,186.9 588.4,179.7 588.7,175.0 589.1,176.7 589.4,173.3 589.7,176.5 590.1,178.4 590.4,178.3 590.7,176.8 591.0,173.7 591.4,175.4 591.7,176.4 592.0,177.4 592.4,180.9 592.7,181.5 593.0,183.8 593.3,186.3 593.7,187.0 594.0,189.5 594.3,190.9 594.7,188.7 595.0,189.3 595.3,187.1 595.6,182.9 596.0,180.2 596.3,182.7 596.6,178.7 597.0,178.1 597.3,179.2 597.6,182.8 597.9,180.5 598.3,176.5 598.6,176.7 598.9,173.8 599.3,173.4 599.6,154.5 599.9,154.1 600.2,149.0 600.6,152.4 600.9,157.2 601.2,154.9 601.6,155.0 601.9,155.5 602.2,158.9 602.5,157.0 602.9,158.1 603.2,160.6 603.5,161.3 603.9,158.3 604.2,160.5 604.5,157.2 604.8,155.4 605.2,154.3 605.5,155.5 605.8,156.4 606.2,158.2 606.5,157.4 606.8,155.2 607.1,154.9 607.5,153.6 607.8,154.7 608.1,152.2 608.5,153.6 608.8,156.2 609.1,158.4 609.4,155.7 609.8,158.4 610.1,159.2 610.4,157.9 610.8,159.7 611.1,160.7 611.4,165.8 611.7,164.2 612.1,160.8 612.4,159.3 612.7,159.0 613.1,161.5 613.4,162.1 613.7,164.7 614.0,166.0 614.4,162.6 614.7,161.6 615.0,160.1 615.4,160.9 615.7,164.6 616.0,165.2 616.3,170.1 616.7,170.3 617.0,170.0 617.3,168.3 617.6,166.9 618.0,168.5 618.3,169.6 618.6,169.8 619.0,171.3 619.3,172.1 619.6,171.4 619.9,169.0 620.3,171.3 620.6,172.0 620.9,173.8 621.3,174.7 621.6,176.4 621.9,170.5 622.2,171.0 622.6,171.8 622.9,169.7 623.2,170.7 623.6,166.8 623.9,164.8 624.2,169.1 624.5,168.8 624.9,167.8 625.2,170.3 625.5,171.1 625.9,171.3 626.2,173.2 626.5,173.1 626.8,171.9 627.2,170.2 627.5,169.9 627.8,170.9 628.2,168.3 628.5,168.2 628.8,169.1 629.1,171.5 629.5,168.3 629.8,168.3 630.1,166.9 630.5,164.7 630.8,168.2 631.1,172.0 631.4,175.0 631.8,177.8 632.1,174.1 632.4,175.4 632.8,180.0 633.1,181.8 633.4,181.6 633.7,182.8 634.1,185.9 634.4,184.0 634.7,189.4 635.1,191.6 635.4,193.8 635.7,193.4 636.0,185.1 636.4,179.5 636.7,180.6 637.0,181.2 637.4,179.8 637.7,179.0 638.0,177.2 638.3,178.0 638.7,177.3 639.0,178.4 639.3,178.2 639.7,180.3 640.0,179.5 640.3,182.1 640.6,182.6 641.0,184.3 641.3,184.5 641.6,183.7 642.0,188.0 642.3,188.7 642.6,188.5 642.9,191.6 643.3,191.7 643.6,190.8 643.9,188.2 644.3,189.5 644.6,187.7 644.9,189.1 645.2,187.7 645.6,188.5 645.9,185.5 646.2,186.9 646.6,186.8 646.9,183.3 647.2,184.7 647.5,180.0 647.9,179.5 648.2,177.2 648.5,180.8 648.9,180.6 649.2,181.2 649.5,172.7 649.8,169.0 650.2,173.3 650.5,172.7 650.8,176.0 651.2,174.6 651.5,174.5 651.8,179.3 652.1,179.6 652.5,180.9 652.8,180.3 653.1,180.5 653.5,179.7 653.8,180.7 654.1,180.2 654.4,179.4 654.8,178.9 655.1,178.2 655.4,178.0 655.8,181.5 656.1,182.2 656.4,182.2 656.7,183.3 657.1,181.0 657.4,176.4 657.7,180.3 658.0,180.6 658.4,181.9 658.7,182.1 659.0,181.7 659.4,182.9 659.7,182.5 660.0,182.7 660.3,181.8 660.7,180.4 661.0,181.5 661.3,182.5 661.7,185.8 662.0,186.1 662.3,186.4 662.6,191.5 663.0,189.7 663.3,188.4 663.6,197.3 664.0,194.3 664.3,190.3 664.6,191.1 664.9,191.7 665.3,192.9 665.6,191.8 665.9,193.0 666.3,192.8 666.6,193.3 666.9,193.1 667.2,194.2 667.6,192.8 667.9,192.5 668.2,191.5 668.6,193.2 668.9,193.6 669.2,193.5 669.5,191.8 669.9,192.1 670.2,190.8 670.5,189.8 670.9,192.4 671.2,191.7 671.5,192.1 671.8,184.3 672.2,184.2 672.5,184.8 672.8,185.0 673.2,182.1 673.5,181.8 673.8,182.6 674.1,182.1 674.5,186.3 674.8,187.3 675.1,185.5 675.5,176.6 675.8,176.6 676.1,178.3 676.4,176.2 676.8,175.8 677.1,170.4 677.4,171.0 677.8,169.5 678.1,170.3 678.4,170.6 678.7,169.9 679.1,168.5 679.4,167.9 679.7,162.7 680.1,162.0 680.4,163.6 680.7,169.2 681.0,170.5 681.4,160.2 681.7,163.4 682.0,163.8 682.4,167.3 682.7,164.6 683.0,162.3 683.3,162.7 683.7,161.4 684.0,163.5 684.3,161.5 684.7,160.6 685.0,160.7 685.3,157.3 685.6,155.8 686.0,156.1 686.3,157.2 686.6,160.6 687.0,161.8 687.3,160.1 687.6,158.5 687.9,159.9 688.3,161.7 688.6,166.7 688.9,169.6 689.3,168.2 689.6,169.5 689.9,172.0 690.2,177.2 690.6,180.5 690.9,182.9 691.2,177.7 691.6,182.6 691.9,180.2 692.2,177.6 692.5,176.7 692.9,178.8 693.2,179.9 693.5,182.7 693.9,182.5 694.2,178.8 694.5,175.7 694.8,174.8 695.2,175.9 695.5,182.3 695.8,179.5 696.2,182.1 696.5,178.3 696.8,178.9 697.1,179.2 697.5,178.0 697.8,171.8 698.1,172.4 698.4,166.6 698.8,165.5 699.1,165.5 699.4,167.3 699.8,168.7 700.1,169.5 700.4,167.4 700.7,170.3 701.1,171.5 701.4,171.8 701.7,169.7 702.1,171.1 702.4,170.4 702.7,171.5 703.0,171.0 703.4,169.5 703.7,170.1 704.0,168.9 704.4,166.5 704.7,165.8 705.0,165.0 705.3,164.0 705.7,164.2 706.0,167.2 706.3,164.9 706.7,165.4 707.0,165.4 707.3,167.1 707.6,166.5 708.0,163.3 708.3,163.5 708.6,162.6 709.0,164.1 709.3,163.9 709.6,162.5 709.9,160.5 710.3,159.9 710.6,159.6 710.9,158.5 711.3,157.4 711.6,157.3 711.9,158.5 712.2,157.8 712.6,156.8 712.9,156.4 713.2,155.4 713.6,155.6 713.9,155.0 714.2,156.5 714.5,155.4 714.9,156.1 715.2,155.9 715.5,152.3 715.9,152.8 716.2,152.1 716.5,155.1 716.8,156.7 717.2,154.4 717.5,156.4 717.8,165.6 718.2,167.4 718.5,168.2 718.8,168.2 719.1,165.9 719.5,164.8 719.8,164.7 720.1,165.8 720.5,165.4 720.8,165.6 721.1,165.4 721.4,164.5 721.8,154.8 722.1,158.0 722.4,155.9 722.8,158.4 723.1,157.1 723.4,159.1 723.7,160.4 724.1,161.9 724.4,161.6 724.7,160.7 725.1,161.6 725.4,159.7 725.7,159.4 726.0,155.6 726.4,156.0 726.7,156.1 727.0,154.1 727.4,149.3 727.7,145.6 728.0,145.9 728.3,144.7 728.7,141.4 729.0,141.8 729.3,142.8 729.7,143.1 730.0,141.9 730.3,141.2 730.6,135.0 731.0,135.6 731.3,137.8 731.6,137.6 732.0,139.3 732.3,137.3 732.6,138.5 732.9,144.8 733.3,141.9 733.6,142.6 733.9,140.9 734.3,140.4 734.6,142.7 734.9,140.2 735.2,141.4 735.6,143.3 735.9,139.6 736.2,137.6 736.5,136.7 736.9,139.3 737.2,137.0 737.5,138.3 737.9,138.0 738.2,138.1 738.5,141.5 738.8,153.7 739.2,154.1 739.5,153.8 739.8,150.6 740.2,151.1 740.5,149.2 740.8,151.1 741.1,153.1 741.5,153.1 741.8,154.4 742.1,153.1 742.5,156.4 742.8,155.7 743.1,152.2 743.4,150.4 743.8,150.7 744.1,149.8 744.4,150.0 744.8,150.7 745.1,149.0 745.4,147.9 745.7,147.1 746.1,144.9 746.4,144.2 746.7,140.7 747.1,140.0 747.4,141.6 747.7,143.2 748.0,144.0 748.4,143.7 748.7,143.0 749.0,140.3 749.4,138.8 749.7,140.1 750.0,139.8 750.3,139.1 750.7,140.0 751.0,139.7 751.3,140.7 751.7,133.6 752.0,133.5 752.3,131.2 752.6,130.4 753.0,128.6 753.3,124.2 753.6,124.1 754.0,126.3 754.3,127.1 754.6,125.3 754.9,123.8 755.3,126.4 755.6,124.0 755.9,125.9 756.3,127.8 756.6,126.4 756.9,123.5 757.2,121.7 757.6,122.8 757.9,119.4 758.2,116.6 758.6,116.5 758.9,120.9 759.2,123.0 759.5,115.4 759.9,115.3 760.2,115.0 760.5,108.6 760.9,114.0 761.2,113.4 761.5,113.1 761.8,113.6 762.2,113.0 762.5,111.9 762.8,113.1 763.2,111.0 763.5,110.4 763.8,120.4 764.1,121.8 764.5,120.4 764.8,126.0 765.1,125.7 765.5,129.6 765.8,133.6 766.1,131.4 766.4,129.9 766.8,130.1 767.1,133.1 767.4,131.8 767.8,131.2 768.1,130.7 768.4,131.6 768.7,131.6 769.1,135.3 769.4,133.7 769.7,132.4 770.1,132.7 770.4,138.3 770.7,139.9 771.0,142.9 771.4,140.8 771.7,139.3 772.0,139.2 772.4,137.7 772.7,137.4 773.0,132.1 773.3,131.1 773.7,129.8 774.0,128.1 774.3,126.9 774.7,127.9 775.0,130.0 775.3,127.0 775.6,128.0 776.0,126.4 776.3,122.9 776.6,123.5 776.9,121.3 777.3,124.2 777.6,128.2 777.9,129.2 778.3,125.8 778.6,125.4 778.9,126.3 779.2,124.7 779.6,122.1 779.9,118.4 780.2,117.8 780.6,113.5 780.9,115.0 781.2,113.5 781.5,114.8 781.9,114.4 782.2,114.8 782.5,112.0 782.9,107.9 783.2,107.9 783.5,106.6 783.8,97.6 784.2,96.2 784.5,93.6 784.8,97.5 785.2,100.4 785.5,94.2 785.8,96.1 786.1,95.2 786.5,104.4 786.8,101.4 787.1,100.9 787.5,101.9 787.8,94.3 788.1,93.0 788.4,92.3 788.8,94.6 789.1,91.7 789.4,84.4 789.8,87.8 790.1,90.0 790.4,88.7 790.7,85.9 791.1,87.1 791.4,80.1 791.7,76.5 792.1,80.9 792.4,90.8 792.7,90.4 793.0,92.6 793.4,90.6 793.7,86.3 794.0,87.9 794.4,92.9 794.7,90.2 795.0,94.2 795.3,99.1 795.7,99.2 796.0,100.1"/>
<text x="78" y="392" font-size="11" fill="#16a34a">Total return +4,321%</text><text x="268" y="392" font-size="11" fill="#2563eb">Price-only +4,321%</text><text x="78" y="362" font-size="11" text-anchor="middle" fill="#64748b">2017-11</text><text x="257" y="362" font-size="11" text-anchor="middle" fill="#64748b">2020-01</text><text x="437" y="362" font-size="11" text-anchor="middle" fill="#64748b">2022-03</text><text x="617" y="362" font-size="11" text-anchor="middle" fill="#64748b">2024-05</text><text x="796" y="362" font-size="11" text-anchor="middle" fill="#64748b">2026-07</text></svg>