<svg xmlns="http://www.w3.org/2000/svg" width="720" height="360" viewBox="0 0 720 360">
  <rect width="720" height="360" fill="#fafafa"/>
  <text x="56" y="22" font-size="13" font-family="sans-serif" fill="#222">RPRX total return (rebased 100) · cumulative distributions $0.00/sh · market cap n/a</text>
  <line x1="56" y1="308" x2="696" y2="308" stroke="#ccc"/>
  <line x1="56" y1="48" x2="56" y2="308" stroke="#ccc"/>
  <polyline fill="none" stroke="#2563eb" stroke-width="2" points="56.0,119.4 64.9,160.1 73.8,172.5 82.7,167.4 91.6,207.2 100.4,163.4 109.3,108.2 118.2,130.8 127.1,134.0 136.0,155.9 144.9,153.1 153.8,181.8 162.7,175.4 171.6,196.0 180.4,192.7 189.3,211.3 198.2,186.2 207.1,184.4 216.0,183.8 224.9,182.6 233.8,188.2 242.7,190.4 251.6,163.6 260.4,174.3 269.3,167.6 278.2,156.8 287.1,169.3 296.0,181.4 304.9,165.5 313.8,153.3 322.7,186.3 331.6,188.7 340.4,213.5 349.3,212.1 358.2,218.6 367.1,236.5 376.0,251.3 384.9,246.6 393.8,258.1 402.7,278.0 411.6,280.0 420.4,278.5 429.3,271.0 438.2,268.7 447.1,254.3 456.0,254.1 464.9,273.8 473.8,276.0 482.7,283.7 491.6,270.4 500.4,264.0 509.3,269.5 518.2,279.0 527.1,281.5 536.0,290.1 544.9,245.1 553.8,229.8 562.7,248.4 571.6,235.9 580.4,235.5 589.3,212.1 598.2,206.4 607.1,212.5 616.0,217.7 624.9,200.9 633.8,182.6 642.7,192.8 651.6,170.3 660.4,136.7 669.3,123.7 678.2,107.9 687.1,65.9 696.0,71.8"/>
  <polyline fill="none" stroke="#16a34a" stroke-width="2" points="56.0,119.4 64.9,160.1 73.8,172.5 82.7,167.4 91.6,207.2 100.4,163.4 109.3,108.2 118.2,130.8 127.1,134.0 136.0,155.9 144.9,153.1 153.8,181.8 162.7,175.4 171.6,196.0 180.4,192.7 189.3,211.3 198.2,186.2 207.1,184.4 216.0,183.8 224.9,182.6 233.8,188.2 242.7,190.4 251.6,163.6 260.4,174.3 269.3,167.6 278.2,156.8 287.1,169.3 296.0,181.4 304.9,165.5 313.8,153.3 322.7,186.3 331.6,188.7 340.4,213.5 349.3,212.1 358.2,218.6 367.1,236.5 376.0,251.3 384.9,246.6 393.8,258.1 402.7,278.0 411.6,280.0 420.4,278.5 429.3,271.0 438.2,268.7 447.1,254.3 456.0,254.1 464.9,273.8 473.8,276.0 482.7,283.7 491.6,270.4 500.4,264.0 509.3,269.5 518.2,279.0 527.1,281.5 536.0,290.1 544.9,245.1 553.8,229.8 562.7,248.4 571.6,235.9 580.4,235.5 589.3,212.1 598.2,206.4 607.1,212.5 616.0,217.7 624.9,200.9 633.8,182.6 642.7,192.8 651.6,170.3 660.4,136.7 669.3,123.7 678.2,107.9 687.1,65.9 696.0,71.8"/>
  <text x="60" y="62" font-size="11" fill="#2563eb">Price index</text>
  <text x="146" y="62" font-size="11" fill="#16a34a">Total return (price + distributions)</text>
  <text x="56" y="348" font-size="11" text-anchor="middle" fill="#444">2020-06</text><text x="216" y="348" font-size="11" text-anchor="middle" fill="#444">2021-12</text><text x="376" y="348" font-size="11" text-anchor="middle" fill="#444">2023-06</text><text x="536" y="348" font-size="11" text-anchor="middle" fill="#444">2024-12</text><text x="696" y="348" font-size="11" text-anchor="middle" fill="#444">2026-06</text>
</svg>
