<svg xmlns="http://www.w3.org/2000/svg" width="820" height="410" viewBox="0 0 820 410">
<rect width="820" height="410" fill="#fafafa"/><text x="78" y="22" font-size="14" font-family="sans-serif" fill="#0f172a">RPRX cumulative return since 2020-06-16 | dividends reinvested</text>
<text x="78" y="40" font-size="11" font-family="sans-serif" fill="#334155">Total return +44.4% | Price-only +26.5% | logarithmic scale</text>
<text x="78" y="54" font-size="9" font-family="sans-serif" fill="#64748b">Regular $5.04 | Special $0.00 | Other $0.00 per initial share path</text>
<line x1="78" y1="332.0" x2="796" y2="332.0" stroke="#e2e8f0"/><text x="70" y="336.0" font-size="10" text-anchor="end" fill="#64748b">-48.6%</text><line x1="78" y1="287.0" x2="796" y2="287.0" stroke="#e2e8f0"/><text x="70" y="291.0" font-size="10" text-anchor="end" fill="#64748b">-38.0%</text><line x1="78" y1="242.0" x2="796" y2="242.0" stroke="#e2e8f0"/><text x="70" y="246.0" font-size="10" text-anchor="end" fill="#64748b">-25.1%</text><line x1="78" y1="197.0" x2="796" y2="197.0" stroke="#e2e8f0"/><text x="70" y="201.0" font-size="10" text-anchor="end" fill="#64748b">-9.6%</text><line x1="78" y1="172.8" x2="796" y2="172.8" stroke="#e2e8f0"/><text x="70" y="176.8" font-size="10" text-anchor="end" fill="#64748b">0%</text><line x1="78" y1="152.0" x2="796" y2="152.0" stroke="#e2e8f0"/><text x="70" y="156.0" font-size="10" text-anchor="end" fill="#64748b">+9.1%</text><line x1="78" y1="107.0" x2="796" y2="107.0" stroke="#e2e8f0"/><text x="70" y="111.0" font-size="10" text-anchor="end" fill="#64748b">+31.7%</text><line x1="78" y1="62.0" x2="796" y2="62.0" stroke="#e2e8f0"/><text x="70" y="66.0" font-size="10" text-anchor="end" fill="#64748b">+59.0%</text>
<line x1="78" y1="332" x2="796" y2="332" stroke="#cbd5e1"/>
<polyline fill="none" stroke="#2563eb" stroke-width="2" points="78.0,172.8 78.5,151.7 78.9,140.7 79.4,149.8 79.9,138.9 80.4,140.5 80.8,143.8 81.3,135.1 81.8,147.0 82.2,151.1 82.7,152.0 83.2,162.5 83.6,166.3 84.1,164.3 84.6,159.5 85.1,154.6 85.5,153.0 86.0,156.5 86.5,175.2 86.9,178.1 87.4,181.0 87.9,185.5 88.4,174.5 88.8,165.6 89.3,180.6 89.8,180.6 90.2,181.6 90.7,187.1 91.2,179.8 91.6,187.0 92.1,180.7 92.6,182.2 93.1,180.7 93.5,174.9 94.0,179.9 94.5,187.0 94.9,176.1 95.4,176.8 95.9,166.2 96.3,166.1 96.8,170.2 97.3,167.6 97.8,168.0 98.2,165.2 98.7,172.2 99.2,176.1 99.6,179.6 100.1,186.8 100.6,182.5 101.1,187.9 101.5,187.0 102.0,192.4 102.5,186.2 102.9,190.2 103.4,188.9 103.9,188.1 104.3,193.9 104.8,199.6 105.3,204.1 105.8,205.3 106.2,201.7 106.7,207.0 107.2,199.4 107.6,194.1 108.1,194.7 108.6,190.8 109.1,186.7 109.5,194.8 110.0,188.2 110.5,187.9 110.9,196.9 111.4,197.9 111.9,191.2 112.3,186.6 112.8,186.2 113.3,183.3 113.8,184.0 114.2,178.8 114.7,176.6 115.2,172.3 115.6,175.0 116.1,175.1 116.6,173.3 117.1,171.2 117.5,182.2 118.0,183.9 118.5,187.7 118.9,196.7 119.4,197.8 119.9,204.3 120.3,203.1 120.8,204.3 121.3,205.8 121.8,211.4 122.2,222.7 122.7,221.2 123.2,218.9 123.6,213.2 124.1,209.8 124.6,196.6 125.1,197.5 125.5,196.9 126.0,192.6 126.5,194.7 126.9,196.4 127.4,194.4 127.9,186.0 128.3,187.6 128.8,185.6 129.3,194.0 129.8,189.6 130.2,196.1 130.7,197.1 131.2,200.8 131.6,192.6 132.1,188.9 132.6,183.2 133.0,182.2 133.5,187.9 134.0,185.0 134.5,181.2 134.9,182.4 135.4,175.3 135.9,171.8 136.3,169.1 136.8,184.3 137.3,180.3 137.8,176.3 138.2,178.8 138.7,174.5 139.2,173.4 139.6,165.0 140.1,153.2 140.6,151.7 141.0,150.3 141.5,148.6 142.0,147.0 142.5,147.7 142.9,144.8 143.4,160.6 143.9,150.1 144.3,155.7 144.8,148.2 145.3,139.0 145.8,138.8 146.2,147.7 146.7,145.1 147.2,139.1 147.6,135.9 148.1,136.3 148.6,143.3 149.0,143.0 149.5,139.5 150.0,137.9 150.5,131.9 150.9,143.5 151.4,151.5 151.9,159.7 152.3,161.1 152.8,161.6 153.3,154.2 153.8,159.2 154.2,159.6 154.7,153.0 155.2,151.1 155.6,155.7 156.1,158.2 156.6,154.8 157.0,157.2 157.5,157.8 158.0,162.4 158.5,157.2 158.9,154.6 159.4,160.2 159.9,158.8 160.3,159.7 160.8,162.0 161.3,154.6 161.8,160.0 162.2,177.9 162.7,184.7 163.2,183.6 163.6,171.0 164.1,164.7 164.6,163.7 165.0,158.8 165.5,160.2 166.0,160.6 166.5,160.3 166.9,151.7 167.4,162.3 167.9,160.8 168.3,165.2 168.8,176.6 169.3,179.1 169.7,182.0 170.2,182.4 170.7,180.1 171.2,177.5 171.6,177.6 172.1,181.0 172.6,182.7 173.0,183.8 173.5,189.1 174.0,187.0 174.5,184.9 174.9,191.1 175.4,189.9 175.9,186.0 176.3,188.6 176.8,187.4 177.3,187.9 177.7,189.8 178.2,182.2 178.7,179.9 179.2,177.7 179.6,170.5 180.1,171.9 180.6,169.7 181.0,173.9 181.5,175.5 182.0,176.4 182.5,184.0 182.9,187.7 183.4,192.1 183.9,192.6 184.3,189.6 184.8,188.5 185.3,194.9 185.7,197.2 186.2,194.0 186.7,189.5 187.2,189.3 187.6,198.2 188.1,194.7 188.6,194.1 189.0,194.0 189.5,197.0 190.0,199.2 190.5,197.3 190.9,197.6 191.4,196.6 191.9,181.2 192.3,177.3 192.8,169.0 193.3,162.5 193.7,162.6 194.2,165.0 194.7,161.7 195.2,170.7 195.6,172.2 196.1,175.4 196.6,177.7 197.0,174.8 197.5,175.4 198.0,180.6 198.5,178.0 198.9,185.6 199.4,180.8 199.9,183.4 200.3,187.2 200.8,191.6 201.3,192.4 201.7,185.4 202.2,185.3 202.7,189.0 203.2,187.1 203.6,190.2 204.1,187.9 204.6,188.3 205.0,187.9 205.5,192.4 206.0,197.8 206.4,195.0 206.9,199.2 207.4,191.1 207.9,190.6 208.3,196.1 208.8,196.3 209.3,200.1 209.7,203.1 210.2,207.2 210.7,209.0 211.2,209.3 211.6,215.6 212.1,212.6 212.6,218.6 213.0,215.3 213.5,217.0 214.0,218.3 214.4,220.6 214.9,218.9 215.4,214.3 215.9,206.0 216.3,209.0 216.8,203.8 217.3,206.1 217.7,205.1 218.2,204.3 218.7,206.5 219.2,203.9 219.6,203.8 220.1,205.0 220.6,203.2 221.0,204.3 221.5,206.5 222.0,205.0 222.4,202.4 222.9,202.4 223.4,204.5 223.9,206.1 224.3,208.7 224.8,207.5 225.3,207.4 225.7,200.3 226.2,210.7 226.7,208.2 227.2,207.4 227.6,218.0 228.1,219.3 228.6,221.5 229.0,216.1 229.5,216.3 230.0,215.9 230.4,219.4 230.9,219.0 231.4,222.5 231.9,221.9 232.3,229.0 232.8,228.0 233.3,225.9 233.7,226.7 234.2,226.9 234.7,222.6 235.2,223.0 235.6,224.6 236.1,216.5 236.6,208.1 237.0,216.8 237.5,212.4 238.0,214.4 238.4,213.7 238.9,213.7 239.4,212.6 239.9,212.2 240.3,218.1 240.8,209.3 241.3,201.1 241.7,199.9 242.2,209.9 242.7,201.3 243.1,200.9 243.6,201.2 244.1,199.2 244.6,200.7 245.0,189.0 245.5,197.2 246.0,187.1 246.4,188.3 246.9,186.7 247.4,183.9 247.9,186.7 248.3,189.2 248.8,187.3 249.3,187.5 249.7,186.2 250.2,187.3 250.7,190.4 251.1,199.7 251.6,205.8 252.1,205.1 252.6,212.8 253.0,211.2 253.5,207.1 254.0,203.4 254.4,209.5 254.9,212.0 255.4,211.4 255.9,213.4 256.3,213.6 256.8,209.0 257.3,207.2 257.7,207.9 258.2,203.0 258.7,200.9 259.1,196.8 259.6,197.5 260.1,196.3 260.6,198.6 261.0,197.8 261.5,199.2 262.0,202.5 262.4,203.5 262.9,210.0 263.4,205.6 263.9,196.7 264.3,184.1 264.8,188.9 265.3,193.3 265.7,197.2 266.2,200.3 266.7,196.4 267.1,198.5 267.6,202.4 268.1,203.5 268.6,201.5 269.0,203.5 269.5,204.8 270.0,206.3 270.4,201.5 270.9,198.2 271.4,195.0 271.9,192.4 272.3,198.1 272.8,198.5 273.3,197.2 273.7,198.4 274.2,197.0 274.7,201.5 275.1,199.1 275.6,203.7 276.1,196.3 276.6,195.3 277.0,200.2 277.5,201.8 278.0,207.2 278.4,214.0 278.9,211.3 279.4,207.6 279.8,202.8 280.3,205.6 280.8,203.2 281.3,207.4 281.7,207.9 282.2,210.6 282.7,212.6 283.1,208.2 283.6,207.4 284.1,208.9 284.6,210.7 285.0,208.9 285.5,204.3 286.0,199.6 286.4,202.4 286.9,204.6 287.4,205.5 287.8,207.2 288.3,207.3 288.8,208.2 289.3,210.6 289.7,205.9 290.2,204.3 290.7,204.6 291.1,202.1 291.6,199.8 292.1,199.2 292.6,196.0 293.0,193.4 293.5,190.0 294.0,189.5 294.4,187.7 294.9,184.1 295.4,175.0 295.8,175.0 296.3,174.4 296.8,174.3 297.3,177.8 297.7,182.8 298.2,184.9 298.7,187.6 299.1,181.1 299.6,178.0 300.1,183.4 300.6,184.7 301.0,182.7 301.5,179.9 302.0,193.7 302.4,200.0 302.9,213.5 303.4,212.5 303.8,208.6 304.3,204.6 304.8,198.6 305.3,196.7 305.7,190.3 306.2,195.3 306.7,199.6 307.1,201.2 307.6,198.0 308.1,199.8 308.6,197.0 309.0,198.2 309.5,190.8 310.0,191.6 310.4,194.2 310.9,195.0 311.4,195.2 311.8,195.9 312.3,190.5 312.8,189.6 313.3,191.9 313.7,195.4 314.2,207.7 314.7,209.3 315.1,207.2 315.6,208.5 316.1,202.2 316.5,197.6 317.0,199.2 317.5,191.9 318.0,179.9 318.4,182.0 318.9,183.5 319.4,186.1 319.8,186.4 320.3,182.5 320.8,180.2 321.3,180.5 321.7,180.8 322.2,181.2 322.7,182.4 323.1,183.5 323.6,184.4 324.1,180.0 324.5,175.9 325.0,177.1 325.5,177.3 326.0,181.0 326.4,182.5 326.9,179.7 327.4,181.2 327.8,181.0 328.3,177.4 328.8,177.7 329.3,178.3 329.7,182.3 330.2,184.0 330.7,181.8 331.1,183.8 331.6,184.1 332.1,180.3 332.5,177.3 333.0,176.0 333.5,177.2 334.0,174.4 334.4,175.9 334.9,173.6 335.4,172.0 335.8,174.6 336.3,175.0 336.8,177.7 337.3,178.5 337.7,178.5 338.2,177.4 338.7,180.7 339.1,184.8 339.6,187.5 340.1,187.7 340.5,186.8 341.0,186.2 341.5,187.2 342.0,182.6 342.4,181.1 342.9,177.5 343.4,177.5 343.8,183.2 344.3,184.1 344.8,185.7 345.3,186.9 345.7,188.6 346.2,192.3 346.7,194.1 347.1,192.0 347.6,196.3 348.1,199.0 348.5,196.9 349.0,190.9 349.5,196.3 350.0,197.2 350.4,197.2 350.9,188.5 351.4,188.2 351.8,192.0 352.3,193.2 352.8,195.9 353.2,190.8 353.7,191.9 354.2,188.6 354.7,190.0 355.1,187.9 355.6,186.5 356.1,192.2 356.5,193.2 357.0,192.3 357.5,190.8 358.0,190.0 358.4,186.5 358.9,186.4 359.4,182.4 359.8,184.8 360.3,185.4 360.8,185.1 361.2,184.9 361.7,187.0 362.2,184.5 362.7,182.7 363.1,180.8 363.6,175.6 364.1,176.0 364.5,183.8 365.0,186.2 365.5,183.5 366.0,184.8 366.4,181.7 366.9,181.5 367.4,179.0 367.8,181.4 368.3,181.1 368.8,181.7 369.2,180.6 369.7,175.7 370.2,175.3 370.7,176.3 371.1,181.0 371.6,187.0 372.1,185.9 372.5,184.8 373.0,188.1 373.5,185.6 374.0,187.7 374.4,189.7 374.9,193.6 375.4,197.0 375.8,200.9 376.3,200.1 376.8,200.7 377.2,203.2 377.7,201.7 378.2,202.9 378.7,203.3 379.1,201.1 379.6,201.2 380.1,201.9 380.5,203.4 381.0,206.6 381.5,210.0 382.0,203.1 382.4,202.8 382.9,202.4 383.4,203.1 383.8,202.1 384.3,204.8 384.8,207.4 385.2,209.4 385.7,208.5 386.2,208.4 386.7,208.9 387.1,206.1 387.6,206.1 388.1,205.0 388.5,206.6 389.0,203.2 389.5,205.0 389.9,205.0 390.4,204.6 390.9,208.9 391.4,206.3 391.8,210.3 392.3,210.9 392.8,209.9 393.2,210.5 393.7,210.5 394.2,212.5 394.7,215.4 395.1,211.5 395.6,215.0 396.1,216.0 396.5,216.0 397.0,220.9 397.5,222.8 397.9,224.5 398.4,226.0 398.9,228.1 399.4,225.9 399.8,229.2 400.3,234.4 400.8,234.6 401.2,240.5 401.7,243.5 402.2,245.9 402.7,242.7 403.1,233.6 403.6,231.5 404.1,232.7 404.5,227.6 405.0,228.9 405.5,231.1 405.9,231.6 406.4,227.3 406.9,214.4 407.4,216.5 407.8,219.8 408.3,221.5 408.8,223.3 409.2,224.3 409.7,225.9 410.2,221.7 410.7,220.9 411.1,221.4 411.6,220.0 412.1,222.7 412.5,220.0 413.0,221.7 413.5,219.8 413.9,224.2 414.4,221.9 414.9,222.7 415.4,222.8 415.8,224.6 416.3,226.1 416.8,229.6 417.2,227.9 417.7,229.2 418.2,227.9 418.7,229.8 419.1,227.9 419.6,230.9 420.1,229.5 420.5,226.7 421.0,237.2 421.5,238.1 421.9,233.6 422.4,233.3 422.9,234.8 423.4,242.6 423.8,244.6 424.3,239.7 424.8,239.2 425.2,241.5 425.7,243.7 426.2,250.0 426.6,249.8 427.1,248.8 427.6,247.8 428.1,246.1 428.5,243.0 429.0,241.2 429.5,242.0 429.9,238.2 430.4,238.6 430.9,233.4 431.4,244.9 431.8,245.6 432.3,248.7 432.8,250.5 433.2,250.1 433.7,252.3 434.2,256.0 434.6,259.3 435.1,259.1 435.6,259.6 436.1,266.7 436.5,268.3 437.0,270.2 437.5,262.4 437.9,261.2 438.4,261.4 438.9,264.0 439.4,263.1 439.8,266.9 440.3,266.6 440.8,261.4 441.2,257.0 441.7,261.4 442.2,261.3 442.6,261.9 443.1,259.8 443.6,258.7 444.1,257.9 444.5,257.7 445.0,259.2 445.5,257.6 445.9,257.5 446.4,259.2 446.9,257.4 447.4,256.3 447.8,259.9 448.3,261.9 448.8,262.4 449.2,262.3 449.7,260.6 450.2,262.7 450.6,262.7 451.1,262.5 451.6,263.3 452.1,266.1 452.5,268.6 453.0,269.5 453.5,272.9 453.9,272.3 454.4,269.9 454.9,270.1 455.3,269.6 455.8,270.5 456.3,265.3 456.8,263.9 457.2,261.3 457.7,264.1 458.2,268.4 458.6,264.9 459.1,271.0 459.6,274.5 460.1,276.3 460.5,273.5 461.0,274.9 461.5,273.9 461.9,277.0 462.4,277.1 462.9,282.4 463.3,283.7 463.8,288.5 464.3,288.2 464.8,298.8 465.2,298.2 465.7,295.6 466.2,294.5 466.6,294.8 467.1,294.1 467.6,290.9 468.1,293.9 468.5,292.2 469.0,295.3 469.5,295.8 469.9,292.2 470.4,294.2 470.9,292.8 471.3,290.9 471.8,291.3 472.3,284.9 472.8,283.8 473.2,279.4 473.7,288.1 474.2,282.5 474.6,286.6 475.1,288.8 475.6,286.6 476.1,289.5 476.5,290.0 477.0,299.3 477.5,294.8 477.9,293.3 478.4,290.1 478.9,288.0 479.3,283.9 479.8,285.4 480.3,287.4 480.8,286.7 481.2,288.6 481.7,290.2 482.2,291.2 482.6,287.6 483.1,292.0 483.6,296.4 484.1,295.7 484.5,292.8 485.0,292.2 485.5,290.6 485.9,291.6 486.4,290.9 486.9,291.4 487.3,293.1 487.8,291.6 488.3,289.1 488.8,280.8 489.2,279.7 489.7,277.1 490.2,277.0 490.6,278.7 491.1,277.7 491.6,279.2 492.0,273.3 492.5,278.2 493.0,288.9 493.5,289.1 493.9,285.4 494.4,291.6 494.9,288.8 495.3,287.4 495.8,290.1 496.3,283.4 496.8,283.8 497.2,282.7 497.7,281.2 498.2,285.7 498.6,285.2 499.1,288.1 499.6,283.8 500.0,280.7 500.5,276.9 501.0,278.3 501.5,280.3 501.9,280.0 502.4,280.7 502.9,283.1 503.3,274.5 503.8,273.1 504.3,272.0 504.8,274.4 505.2,274.2 505.7,274.2 506.2,274.7 506.6,277.8 507.1,280.2 507.6,277.8 508.0,282.6 508.5,286.0 509.0,265.5 509.5,272.4 509.9,277.6 510.4,273.0 510.9,274.7 511.3,272.6 511.8,272.6 512.3,266.8 512.8,267.6 513.2,264.6 513.7,257.4 514.2,259.0 514.6,258.9 515.1,256.6 515.6,256.9 516.0,262.2 516.5,264.3 517.0,267.6 517.5,267.9 517.9,271.6 518.4,269.1 518.9,266.7 519.3,264.1 519.8,266.4 520.3,264.2 520.8,268.0 521.2,268.2 521.7,266.3 522.2,266.6 522.6,265.6 523.1,263.8 523.6,263.6 524.0,264.9 524.5,264.8 525.0,265.2 525.5,263.4 525.9,264.1 526.4,267.8 526.9,271.5 527.3,276.8 527.8,277.4 528.3,273.5 528.7,273.1 529.2,269.2 529.7,271.4 530.2,274.7 530.6,281.6 531.1,281.4 531.6,288.1 532.0,286.8 532.5,284.4 533.0,282.1 533.5,285.0 533.9,285.0 534.4,283.7 534.9,282.5 535.3,283.5 535.8,282.5 536.3,286.1 536.7,282.9 537.2,277.1 537.7,280.0 538.2,279.3 538.6,281.1 539.1,283.6 539.6,283.7 540.0,282.7 540.5,280.3 541.0,282.9 541.5,281.7 541.9,284.5 542.4,289.8 542.9,288.0 543.3,290.7 543.8,289.3 544.3,293.5 544.7,295.6 545.2,295.4 545.7,297.6 546.2,297.6 546.6,288.6 547.1,293.6 547.6,292.0 548.0,292.2 548.5,291.4 549.0,288.1 549.5,288.7 549.9,288.5 550.4,290.4 550.9,290.4 551.3,292.9 551.8,295.6 552.3,298.8 552.7,295.5 553.2,293.0 553.7,291.2 554.2,293.1 554.6,295.9 555.1,295.1 555.6,297.8 556.0,299.4 556.5,302.3 557.0,301.9 557.5,304.2 557.9,303.9 558.4,304.6 558.9,303.7 559.3,294.6 559.8,294.2 560.3,295.3 560.7,286.1 561.2,282.6 561.7,280.7 562.2,282.3 562.6,279.5 563.1,279.3 563.6,277.8 564.0,277.8 564.5,276.8 565.0,277.6 565.4,278.9 565.9,282.0 566.4,279.3 566.9,279.0 567.3,288.1 567.8,291.3 568.3,290.0 568.7,299.8 569.2,298.8 569.7,297.2 570.2,293.4 570.6,295.3 571.1,288.6 571.6,290.7 572.0,287.9 572.5,289.9 573.0,286.9 573.4,285.8 573.9,281.9 574.4,280.0 574.9,279.1 575.3,276.7 575.8,274.0 576.3,274.9 576.7,276.1 577.2,272.9 577.7,274.5 578.2,277.6 578.6,282.5 579.1,283.0 579.6,285.4 580.0,287.4 580.5,285.9 581.0,281.3 581.4,281.4 581.9,281.7 582.4,283.6 582.9,287.4 583.3,286.0 583.8,286.0 584.3,286.5 584.7,281.9 585.2,281.7 585.7,281.0 586.2,280.3 586.6,281.4 587.1,285.6 587.6,285.6 588.0,287.2 588.5,289.0 589.0,287.1 589.4,287.9 589.9,283.3 590.4,284.6 590.9,284.9 591.3,281.6 591.8,283.1 592.3,283.7 592.7,285.6 593.2,288.9 593.7,289.0 594.2,289.7 594.6,292.6 595.1,289.9 595.6,290.8 596.0,290.5 596.5,292.2 597.0,291.3 597.4,290.4 597.9,287.4 598.4,295.4 598.9,296.5 599.3,299.3 599.8,297.9 600.3,301.2 600.7,302.6 601.2,305.1 601.7,304.0 602.1,303.0 602.6,301.1 603.1,299.2 603.6,297.5 604.0,297.3 604.5,296.9 605.0,298.5 605.4,295.7 605.9,295.2 606.4,297.3 606.9,298.1 607.3,300.3 607.8,297.6 608.3,302.0 608.7,301.1 609.2,305.0 609.7,308.7 610.1,308.6 610.6,312.1 611.1,310.6 611.6,309.4 612.0,315.7 612.5,317.5 613.0,311.3 613.4,308.2 613.9,308.4 614.4,306.8 614.9,305.5 615.3,307.5 615.8,305.7 616.3,303.1 616.7,302.7 617.2,303.5 617.7,300.8 618.1,299.4 618.6,271.1 619.1,267.1 619.6,266.8 620.0,261.2 620.5,259.6 621.0,261.1 621.4,264.6 621.9,266.4 622.4,262.1 622.9,258.7 623.3,253.7 623.8,252.0 624.3,252.0 624.7,254.7 625.2,254.7 625.7,256.6 626.1,257.2 626.6,255.7 627.1,256.1 627.6,253.6 628.0,253.7 628.5,249.7 629.0,249.1 629.4,248.2 629.9,248.9 630.4,245.3 630.9,247.2 631.3,241.9 631.8,241.2 632.3,238.5 632.7,239.3 633.2,241.5 633.7,241.6 634.1,239.7 634.6,238.1 635.1,241.9 635.6,238.7 636.0,242.2 636.5,244.2 637.0,246.1 637.4,248.2 637.9,245.3 638.4,246.6 638.8,245.9 639.3,244.1 639.8,241.3 640.3,241.3 640.7,240.6 641.2,239.2 641.7,238.9 642.1,238.8 642.6,254.9 643.1,254.2 643.6,256.3 644.0,258.2 644.5,257.9 645.0,257.0 645.4,253.2 645.9,258.3 646.4,258.9 646.8,260.3 647.3,249.6 647.8,257.6 648.3,252.0 648.7,249.4 649.2,248.3 649.7,250.2 650.1,247.2 650.6,250.2 651.1,250.2 651.6,253.9 652.0,251.4 652.5,250.1 653.0,247.6 653.4,246.3 653.9,245.5 654.4,248.0 654.8,245.0 655.3,244.2 655.8,250.8 656.3,246.1 656.7,243.5 657.2,243.2 657.7,241.7 658.1,245.5 658.6,249.4 659.1,243.4 659.6,237.0 660.0,235.4 660.5,243.6 661.0,245.5 661.4,249.3 661.9,248.3 662.4,246.5 662.8,246.9 663.3,246.9 663.8,245.1 664.3,242.4 664.7,242.2 665.2,241.1 665.7,238.9 666.1,238.7 666.6,241.4 667.1,240.1 667.6,236.8 668.0,228.3 668.5,231.3 669.0,229.5 669.4,233.2 669.9,230.8 670.4,231.1 670.8,227.5 671.3,222.5 671.8,224.1 672.3,228.3 672.7,224.3 673.2,223.3 673.7,224.3 674.1,222.2 674.6,221.0 675.1,226.2 675.5,226.7 676.0,224.3 676.5,222.7 677.0,224.5 677.4,221.9 677.9,220.1 678.4,226.1 678.8,227.0 679.3,226.2 679.8,225.8 680.3,222.8 680.7,223.4 681.2,219.6 681.7,219.1 682.1,216.5 682.6,215.2 683.1,216.1 683.5,218.2 684.0,216.2 684.5,211.3 685.0,211.1 685.4,216.1 685.9,216.8 686.4,213.2 686.8,222.2 687.3,224.4 687.8,220.4 688.3,220.2 688.7,221.1 689.2,224.0 689.7,223.5 690.1,217.7 690.6,221.4 691.1,221.3 691.5,223.5 692.0,223.6 692.5,223.1 693.0,226.0 693.4,223.6 693.9,222.3 694.4,219.1 694.8,217.6 695.3,223.0 695.8,224.8 696.3,220.2 696.7,222.3 697.2,218.9 697.7,221.1 698.1,229.2 698.6,227.3 699.1,225.9 699.5,225.3 700.0,221.9 700.5,224.4 701.0,221.9 701.4,225.0 701.9,230.9 702.4,229.9 702.8,228.5 703.3,228.3 703.8,221.3 704.3,220.2 704.7,223.0 705.2,222.6 705.7,222.8 706.1,223.3 706.6,222.5 707.1,223.4 707.5,227.2 708.0,223.5 708.5,222.3 709.0,221.2 709.4,216.8 709.9,219.3 710.4,213.8 710.8,217.9 711.3,217.9 711.8,215.2 712.2,215.2 712.7,220.8 713.2,219.1 713.7,217.3 714.1,213.5 714.6,215.0 715.1,211.5 715.5,195.8 716.0,193.7 716.5,207.0 717.0,207.2 717.4,204.6 717.9,200.8 718.4,199.9 718.8,203.4 719.3,203.4 719.8,201.5 720.2,206.5 720.7,208.1 721.2,204.8 721.7,199.8 722.1,201.1 722.6,199.2 723.1,198.2 723.5,198.9 724.0,201.1 724.5,200.7 725.0,203.4 725.4,199.9 725.9,206.4 726.4,210.0 726.8,208.9 727.3,205.5 727.8,208.1 728.2,207.2 728.7,208.2 729.2,208.6 729.7,207.9 730.1,206.8 730.6,205.2 731.1,202.0 731.5,202.8 732.0,203.0 732.5,203.8 733.0,204.4 733.4,206.6 733.9,205.2 734.4,200.4 734.8,194.4 735.3,190.1 735.8,196.7 736.2,197.3 736.7,196.7 737.2,196.1 737.7,197.0 738.1,200.0 738.6,201.0 739.1,203.8 739.5,200.0 740.0,197.6 740.5,195.9 741.0,195.5 741.4,193.9 741.9,195.9 742.4,193.2 742.8,188.5 743.3,184.6 743.8,181.2 744.2,177.3 744.7,175.0 745.2,172.0 745.7,175.3 746.1,174.4 746.6,174.2 747.1,171.2 747.5,169.1 748.0,168.0 748.5,168.4 748.9,169.6 749.4,169.5 749.9,167.7 750.4,168.0 750.8,169.4 751.3,168.3 751.8,163.8 752.2,157.4 752.7,157.3 753.2,157.6 753.7,166.6 754.1,168.0 754.6,165.7 755.1,165.1 755.5,161.3 756.0,165.6 756.5,166.7 756.9,164.4 757.4,164.3 757.9,166.0 758.4,167.4 758.8,168.3 759.3,166.9 759.8,167.1 760.2,159.6 760.7,160.1 761.2,163.1 761.7,163.0 762.1,154.9 762.6,152.3 763.1,151.9 763.5,158.1 764.0,160.4 764.5,155.2 764.9,153.3 765.4,155.2 765.9,152.6 766.4,150.7 766.8,151.3 767.3,152.4 767.8,145.0 768.2,148.4 768.7,147.5 769.2,146.3 769.7,146.7 770.1,148.0 770.6,146.7 771.1,147.2 771.5,147.4 772.0,144.6 772.5,147.5 772.9,144.0 773.4,142.9 773.9,141.6 774.4,144.0 774.8,141.2 775.3,137.2 775.8,137.0 776.2,129.9 776.7,129.3 777.2,131.7 777.7,135.3 778.1,133.7 778.6,130.8 779.1,128.6 779.5,124.4 780.0,127.2 780.5,126.7 780.9,124.5 781.4,118.9 781.9,121.4 782.4,126.6 782.8,122.4 783.3,122.1 783.8,118.5 784.2,122.8 784.7,119.5 785.2,124.3 785.6,121.0 786.1,122.8 786.6,125.4 787.1,125.7 787.5,127.9 788.0,131.3 788.5,128.5 788.9,120.7 789.4,125.4 789.9,123.6 790.4,116.9 790.8,113.3 791.3,117.6 791.8,118.9 792.2,110.5 792.7,114.0 793.2,110.4 793.6,108.0 794.1,109.7 794.6,116.1 795.1,116.0 795.5,119.3 796.0,116.6"/><polyline fill="none" stroke="#16a34a" stroke-width="3" points="78.0,172.8 78.5,151.7 78.9,140.7 79.4,149.8 79.9,138.9 80.4,140.5 80.8,143.8 81.3,135.1 81.8,147.0 82.2,151.1 82.7,152.0 83.2,162.5 83.6,166.3 84.1,164.3 84.6,159.5 85.1,154.6 85.5,153.0 86.0,156.5 86.5,175.2 86.9,178.1 87.4,181.0 87.9,185.5 88.4,174.5 88.8,165.6 89.3,180.6 89.8,180.6 90.2,181.6 90.7,187.1 91.2,179.8 91.6,187.0 92.1,180.7 92.6,182.2 93.1,180.7 93.5,174.9 94.0,179.9 94.5,187.0 94.9,176.1 95.4,176.8 95.9,166.2 96.3,166.1 96.8,170.2 97.3,167.6 97.8,168.0 98.2,165.2 98.7,172.2 99.2,176.1 99.6,179.6 100.1,186.8 100.6,182.5 101.1,187.9 101.5,187.0 102.0,192.4 102.5,186.2 102.9,190.2 103.4,188.9 103.9,188.1 104.3,193.9 104.8,199.6 105.3,204.1 105.8,205.3 106.2,201.7 106.7,207.0 107.2,198.5 107.6,193.2 108.1,193.8 108.6,189.9 109.1,185.9 109.5,193.9 110.0,187.3 110.5,187.0 110.9,196.0 111.4,197.0 111.9,190.3 112.3,185.7 112.8,185.3 113.3,182.4 113.8,183.1 114.2,177.9 114.7,175.7 115.2,171.4 115.6,174.1 116.1,174.2 116.6,172.4 117.1,170.3 117.5,181.3 118.0,183.0 118.5,186.8 118.9,195.8 119.4,196.9 119.9,203.4 120.3,202.2 120.8,203.4 121.3,204.9 121.8,210.5 122.2,221.8 122.7,220.3 123.2,218.0 123.6,212.3 124.1,208.9 124.6,195.7 125.1,196.6 125.5,196.0 126.0,191.7 126.5,193.8 126.9,195.5 127.4,193.5 127.9,185.1 128.3,186.7 128.8,184.7 129.3,193.1 129.8,187.9 130.2,194.3 130.7,195.3 131.2,199.1 131.6,190.8 132.1,187.2 132.6,181.5 133.0,180.5 133.5,186.1 134.0,183.2 134.5,179.4 134.9,180.6 135.4,173.5 135.9,170.0 136.3,167.3 136.8,182.6 137.3,178.6 137.8,174.6 138.2,177.0 138.7,172.8 139.2,171.6 139.6,163.2 140.1,151.4 140.6,150.0 141.0,148.5 141.5,146.9 142.0,145.2 142.5,146.0 142.9,143.0 143.4,158.9 143.9,148.3 144.3,153.9 144.8,146.4 145.3,137.2 145.8,137.0 146.2,145.9 146.7,143.4 147.2,137.3 147.6,134.1 148.1,134.6 148.6,141.6 149.0,141.2 149.5,137.8 150.0,136.2 150.5,130.1 150.9,141.8 151.4,149.7 151.9,158.0 152.3,159.4 152.8,159.8 153.3,152.4 153.8,157.5 154.2,157.8 154.7,151.2 155.2,149.3 155.6,153.9 156.1,156.4 156.6,153.1 157.0,155.4 157.5,156.1 158.0,159.7 158.5,154.6 158.9,152.0 159.4,157.5 159.9,156.1 160.3,157.0 160.8,159.3 161.3,152.0 161.8,157.4 162.2,175.2 162.7,182.1 163.2,181.0 163.6,168.3 164.1,162.1 164.6,161.0 165.0,156.1 165.5,157.5 166.0,158.0 166.5,157.6 166.9,149.0 167.4,159.7 167.9,158.2 168.3,162.6 168.8,173.9 169.3,176.4 169.7,179.3 170.2,179.7 170.7,177.5 171.2,174.9 171.6,175.0 172.1,178.3 172.6,180.1 173.0,181.1 173.5,186.5 174.0,184.3 174.5,182.2 174.9,188.4 175.4,187.3 175.9,183.3 176.3,186.0 176.8,184.7 177.3,185.3 177.7,187.2 178.2,179.6 178.7,177.2 179.2,175.0 179.6,167.8 180.1,169.3 180.6,167.0 181.0,171.3 181.5,172.9 182.0,173.8 182.5,181.4 182.9,185.1 183.4,189.5 183.9,189.9 184.3,186.9 184.8,185.8 185.3,192.2 185.7,194.6 186.2,191.3 186.7,186.9 187.2,186.7 187.6,194.6 188.1,191.1 188.6,190.5 189.0,190.4 189.5,193.3 190.0,195.5 190.5,193.6 190.9,193.9 191.4,193.0 191.9,177.5 192.3,173.6 192.8,165.4 193.3,158.9 193.7,159.0 194.2,161.3 194.7,158.0 195.2,167.0 195.6,168.5 196.1,171.8 196.6,174.0 197.0,171.2 197.5,171.8 198.0,176.9 198.5,174.3 198.9,181.9 199.4,177.2 199.9,179.7 200.3,183.6 200.8,188.0 201.3,188.8 201.7,181.7 202.2,181.6 202.7,185.4 203.2,183.5 203.6,186.5 204.1,184.3 204.6,184.6 205.0,184.3 205.5,188.7 206.0,194.2 206.4,191.4 206.9,195.6 207.4,187.4 207.9,186.9 208.3,192.5 208.8,192.7 209.3,196.4 209.7,199.5 210.2,203.6 210.7,205.3 211.2,205.6 211.6,211.9 212.1,208.9 212.6,215.0 213.0,211.7 213.5,213.3 214.0,214.7 214.4,217.0 214.9,215.3 215.4,210.7 215.9,202.4 216.3,205.3 216.8,200.1 217.3,202.4 217.7,200.4 218.2,199.7 218.7,201.8 219.2,199.2 219.6,199.2 220.1,200.3 220.6,198.5 221.0,199.7 221.5,201.8 222.0,200.3 222.4,197.8 222.9,197.8 223.4,199.8 223.9,201.4 224.3,204.0 224.8,202.9 225.3,202.7 225.7,195.6 226.2,206.0 226.7,203.5 227.2,202.7 227.6,213.3 228.1,214.6 228.6,216.9 229.0,211.4 229.5,211.6 230.0,211.3 230.4,214.7 230.9,214.3 231.4,217.8 231.9,217.2 232.3,224.3 232.8,223.3 233.3,221.2 233.7,222.0 234.2,222.2 234.7,217.9 235.2,218.3 235.6,219.9 236.1,211.8 236.6,203.4 237.0,212.1 237.5,207.7 238.0,209.7 238.4,209.0 238.9,209.0 239.4,207.9 239.9,207.5 240.3,213.5 240.8,204.6 241.3,196.4 241.7,195.2 242.2,205.2 242.7,196.6 243.1,196.2 243.6,196.5 244.1,194.5 244.6,196.0 245.0,184.3 245.5,192.5 246.0,182.4 246.4,183.7 246.9,182.0 247.4,179.2 247.9,181.1 248.3,183.5 248.8,181.7 249.3,181.8 249.7,180.5 250.2,181.6 250.7,184.8 251.1,194.0 251.6,200.1 252.1,199.4 252.6,207.1 253.0,205.6 253.5,201.5 254.0,197.7 254.4,203.8 254.9,206.3 255.4,205.7 255.9,207.7 256.3,207.9 256.8,203.4 257.3,201.5 257.7,202.3 258.2,197.3 258.7,195.2 259.1,191.1 259.6,191.9 260.1,190.7 260.6,192.9 261.0,192.2 261.5,193.5 262.0,196.9 262.4,197.8 262.9,204.3 263.4,199.9 263.9,191.1 264.3,178.5 264.8,183.3 265.3,187.7 265.7,191.6 266.2,194.7 266.7,190.7 267.1,192.8 267.6,196.8 268.1,197.8 268.6,195.8 269.0,197.9 269.5,199.1 270.0,200.7 270.4,195.9 270.9,192.6 271.4,189.3 271.9,186.7 272.3,192.5 272.8,192.8 273.3,191.5 273.7,192.8 274.2,191.3 274.7,195.9 275.1,193.5 275.6,198.0 276.1,190.6 276.6,189.7 277.0,193.4 277.5,195.0 278.0,200.4 278.4,207.2 278.9,204.5 279.4,200.8 279.8,196.0 280.3,198.8 280.8,196.4 281.3,200.6 281.7,201.1 282.2,203.8 282.7,205.8 283.1,201.4 283.6,200.6 284.1,202.1 284.6,203.9 285.0,202.1 285.5,197.5 286.0,192.8 286.4,195.6 286.9,197.8 287.4,198.7 287.8,200.4 288.3,200.5 288.8,201.4 289.3,203.8 289.7,199.1 290.2,197.5 290.7,197.8 291.1,195.3 291.6,193.1 292.1,192.5 292.6,189.2 293.0,186.6 293.5,183.2 294.0,182.7 294.4,180.9 294.9,177.4 295.4,168.2 295.8,168.2 296.3,167.6 296.8,167.5 297.3,171.0 297.7,176.0 298.2,178.1 298.7,180.8 299.1,174.3 299.6,171.2 300.1,176.6 300.6,177.9 301.0,175.9 301.5,173.1 302.0,186.9 302.4,193.2 302.9,206.7 303.4,205.7 303.8,201.8 304.3,197.9 304.8,191.9 305.3,189.9 305.7,183.5 306.2,188.5 306.7,191.7 307.1,193.2 307.6,190.1 308.1,191.9 308.6,189.1 309.0,190.3 309.5,182.9 310.0,183.6 310.4,186.3 310.9,187.0 311.4,187.3 311.8,187.9 312.3,182.6 312.8,181.6 313.3,184.0 313.7,187.5 314.2,199.7 314.7,201.4 315.1,199.3 315.6,200.6 316.1,194.3 316.5,189.7 317.0,191.3 317.5,184.0 318.0,172.0 318.4,174.0 318.9,175.5 319.4,178.2 319.8,178.5 320.3,174.5 320.8,172.3 321.3,172.6 321.7,172.9 322.2,173.3 322.7,174.4 323.1,175.5 323.6,176.5 324.1,172.1 324.5,168.0 325.0,169.2 325.5,169.4 326.0,173.0 326.4,174.5 326.9,171.8 327.4,173.3 327.8,173.1 328.3,169.5 328.8,169.8 329.3,170.4 329.7,174.4 330.2,176.0 330.7,173.9 331.1,175.8 331.6,176.2 332.1,172.4 332.5,169.4 333.0,168.0 333.5,169.2 334.0,166.5 334.4,168.0 334.9,165.7 335.4,164.1 335.8,165.6 336.3,166.0 336.8,168.7 337.3,169.6 337.7,169.6 338.2,168.4 338.7,171.8 339.1,175.9 339.6,178.5 340.1,178.8 340.5,177.8 341.0,177.3 341.5,178.2 342.0,173.7 342.4,172.1 342.9,168.6 343.4,168.5 343.8,174.2 344.3,175.2 344.8,176.7 345.3,178.0 345.7,179.7 346.2,183.3 346.7,185.2 347.1,183.1 347.6,187.4 348.1,190.1 348.5,188.0 349.0,181.9 349.5,187.4 350.0,188.3 350.4,188.2 350.9,179.6 351.4,179.2 351.8,183.1 352.3,184.3 352.8,187.0 353.2,181.9 353.7,182.9 354.2,179.7 354.7,181.1 355.1,178.9 355.6,177.6 356.1,183.2 356.5,184.3 357.0,183.3 357.5,181.9 358.0,181.0 358.4,177.6 358.9,177.5 359.4,173.4 359.8,175.9 360.3,176.4 360.8,176.1 361.2,176.0 361.7,178.0 362.2,175.6 362.7,173.8 363.1,171.9 363.6,166.6 364.1,167.0 364.5,174.9 365.0,177.2 365.5,174.6 366.0,174.7 366.4,171.7 366.9,171.4 367.4,168.9 367.8,171.4 368.3,171.1 368.8,171.7 369.2,170.6 369.7,165.7 370.2,165.3 370.7,166.3 371.1,170.9 371.6,177.0 372.1,175.9 372.5,174.7 373.0,178.0 373.5,175.6 374.0,177.6 374.4,179.7 374.9,183.6 375.4,187.0 375.8,190.8 376.3,190.1 376.8,190.7 377.2,193.1 377.7,191.6 378.2,192.8 378.7,193.3 379.1,191.0 379.6,191.1 380.1,191.9 380.5,193.4 381.0,196.5 381.5,200.0 382.0,193.1 382.4,192.7 382.9,192.4 383.4,193.0 383.8,192.1 384.3,194.8 384.8,197.4 385.2,199.4 385.7,198.4 386.2,198.3 386.7,198.9 387.1,196.0 387.6,196.1 388.1,194.9 388.5,196.5 389.0,193.1 389.5,194.9 389.9,194.9 390.4,194.6 390.9,198.8 391.4,196.3 391.8,200.3 392.3,200.9 392.8,199.9 393.2,200.5 393.7,200.5 394.2,201.2 394.7,204.1 395.1,200.3 395.6,203.8 396.1,204.7 396.5,204.7 397.0,209.7 397.5,211.5 397.9,213.2 398.4,214.7 398.9,216.8 399.4,214.6 399.8,217.9 400.3,223.1 400.8,223.3 401.2,229.2 401.7,232.2 402.2,234.6 402.7,231.4 403.1,222.3 403.6,220.2 404.1,221.4 404.5,216.3 405.0,217.6 405.5,219.9 405.9,220.3 406.4,216.0 406.9,203.1 407.4,205.2 407.8,208.5 408.3,210.2 408.8,212.0 409.2,213.0 409.7,214.6 410.2,210.4 410.7,209.7 411.1,210.1 411.6,208.7 412.1,211.4 412.5,208.7 413.0,210.4 413.5,208.5 413.9,212.9 414.4,210.6 414.9,211.4 415.4,211.5 415.8,213.3 416.3,214.8 416.8,218.3 417.2,216.6 417.7,217.9 418.2,216.7 418.7,218.5 419.1,216.6 419.6,219.6 420.1,218.2 420.5,215.4 421.0,225.9 421.5,226.8 421.9,222.3 422.4,222.0 422.9,223.5 423.4,231.3 423.8,233.3 424.3,227.0 424.8,226.4 425.2,228.8 425.7,231.0 426.2,237.2 426.6,237.1 427.1,236.1 427.6,235.1 428.1,233.4 428.5,230.3 429.0,228.5 429.5,229.3 429.9,225.5 430.4,225.9 430.9,220.7 431.4,232.2 431.8,232.9 432.3,236.0 432.8,237.8 433.2,237.4 433.7,239.6 434.2,243.3 434.6,246.6 435.1,246.4 435.6,246.9 436.1,254.0 436.5,255.6 437.0,257.5 437.5,249.7 437.9,248.5 438.4,248.7 438.9,251.3 439.4,250.4 439.8,254.2 440.3,253.9 440.8,248.7 441.2,244.3 441.7,248.7 442.2,248.6 442.6,249.2 443.1,247.1 443.6,246.0 444.1,245.2 444.5,245.0 445.0,246.5 445.5,244.9 445.9,244.8 446.4,246.5 446.9,244.7 447.4,243.6 447.8,247.2 448.3,249.2 448.8,249.6 449.2,249.6 449.7,247.9 450.2,250.0 450.6,250.0 451.1,249.8 451.6,250.6 452.1,253.4 452.5,255.9 453.0,256.8 453.5,258.6 453.9,258.0 454.4,255.6 454.9,255.7 455.3,255.2 455.8,256.2 456.3,251.0 456.8,249.6 457.2,246.9 457.7,249.7 458.2,254.1 458.6,250.5 459.1,256.7 459.6,260.2 460.1,261.9 460.5,259.2 461.0,260.6 461.5,259.5 461.9,262.7 462.4,262.8 462.9,268.0 463.3,269.3 463.8,274.2 464.3,273.9 464.8,284.5 465.2,283.8 465.7,281.3 466.2,280.2 466.6,280.5 467.1,279.8 467.6,276.6 468.1,279.5 468.5,277.8 469.0,281.0 469.5,281.5 469.9,277.8 470.4,279.9 470.9,278.5 471.3,276.6 471.8,277.0 472.3,270.5 472.8,269.5 473.2,265.1 473.7,273.8 474.2,268.2 474.6,272.2 475.1,274.5 475.6,272.2 476.1,275.2 476.5,275.6 477.0,284.9 477.5,280.5 477.9,279.0 478.4,275.8 478.9,273.6 479.3,269.6 479.8,271.0 480.3,273.0 480.8,272.4 481.2,274.2 481.7,275.9 482.2,276.9 482.6,273.3 483.1,277.7 483.6,280.2 484.1,279.6 484.5,276.7 485.0,276.0 485.5,274.5 485.9,275.5 486.4,274.8 486.9,275.3 487.3,276.9 487.8,275.4 488.3,273.0 488.8,264.6 489.2,263.5 489.7,261.0 490.2,260.9 490.6,262.5 491.1,261.5 491.6,263.0 492.0,257.2 492.5,262.0 493.0,272.8 493.5,273.0 493.9,269.2 494.4,275.4 494.9,272.7 495.3,271.2 495.8,273.9 496.3,267.3 496.8,267.7 497.2,266.6 497.7,265.1 498.2,269.6 498.6,269.1 499.1,272.0 499.6,267.7 500.0,264.6 500.5,260.8 501.0,262.2 501.5,264.1 501.9,263.9 502.4,264.6 502.9,267.0 503.3,258.4 503.8,257.0 504.3,255.9 504.8,258.3 505.2,258.1 505.7,258.1 506.2,258.6 506.6,261.6 507.1,264.1 507.6,261.6 508.0,266.5 508.5,269.8 509.0,249.4 509.5,256.3 509.9,261.5 510.4,256.8 510.9,258.6 511.3,256.4 511.8,256.5 512.3,249.0 512.8,249.9 513.2,246.8 513.7,239.6 514.2,241.2 514.6,241.2 515.1,238.9 515.6,239.1 516.0,244.4 516.5,246.5 517.0,249.8 517.5,250.1 517.9,253.8 518.4,251.3 518.9,248.9 519.3,246.3 519.8,248.6 520.3,246.4 520.8,250.2 521.2,250.4 521.7,248.5 522.2,248.8 522.6,247.8 523.1,246.0 523.6,245.8 524.0,247.1 524.5,247.0 525.0,247.4 525.5,245.7 525.9,246.3 526.4,250.0 526.9,253.7 527.3,259.0 527.8,259.6 528.3,255.8 528.7,255.3 529.2,251.5 529.7,253.6 530.2,256.9 530.6,263.8 531.1,263.6 531.6,270.3 532.0,269.0 532.5,266.6 533.0,264.3 533.5,267.2 533.9,267.2 534.4,265.9 534.9,264.8 535.3,265.7 535.8,264.7 536.3,268.3 536.7,265.1 537.2,259.3 537.7,262.2 538.2,261.5 538.6,263.3 539.1,265.8 539.6,265.9 540.0,264.9 540.5,262.5 541.0,265.1 541.5,263.9 541.9,264.9 542.4,270.2 542.9,268.4 543.3,271.1 543.8,269.7 544.3,273.9 544.7,276.0 545.2,275.8 545.7,278.0 546.2,278.0 546.6,269.0 547.1,274.0 547.6,272.4 548.0,272.6 548.5,271.8 549.0,268.6 549.5,269.2 549.9,268.9 550.4,270.8 550.9,270.8 551.3,273.3 551.8,276.1 552.3,279.2 552.7,275.9 553.2,273.4 553.7,271.6 554.2,273.5 554.6,276.3 555.1,275.5 555.6,278.2 556.0,279.9 556.5,282.7 557.0,282.3 557.5,284.7 557.9,284.3 558.4,285.0 558.9,284.1 559.3,275.0 559.8,274.6 560.3,275.7 560.7,266.6 561.2,263.0 561.7,261.1 562.2,262.7 562.6,259.9 563.1,259.8 563.6,258.3 564.0,258.2 564.5,257.3 565.0,258.0 565.4,259.3 565.9,262.5 566.4,259.8 566.9,259.4 567.3,268.6 567.8,271.7 568.3,270.4 568.7,280.2 569.2,279.2 569.7,277.6 570.2,273.8 570.6,275.7 571.1,269.0 571.6,269.2 572.0,266.5 572.5,268.5 573.0,265.5 573.4,264.4 573.9,260.4 574.4,258.6 574.9,257.7 575.3,255.3 575.8,252.6 576.3,253.4 576.7,254.7 577.2,251.5 577.7,253.1 578.2,256.2 578.6,261.1 579.1,261.6 579.6,263.9 580.0,265.9 580.5,264.5 581.0,259.9 581.4,260.0 581.9,260.3 582.4,262.1 582.9,266.0 583.3,264.5 583.8,264.5 584.3,265.1 584.7,260.4 585.2,260.3 585.7,259.6 586.2,258.8 586.6,260.0 587.1,264.2 587.6,264.2 588.0,265.8 588.5,267.6 589.0,265.7 589.4,266.5 589.9,261.9 590.4,263.2 590.9,263.4 591.3,260.2 591.8,261.6 592.3,262.2 592.7,264.2 593.2,267.5 593.7,267.6 594.2,268.3 594.6,271.2 595.1,268.5 595.6,269.4 596.0,269.1 596.5,270.7 597.0,269.9 597.4,269.0 597.9,266.0 598.4,274.0 598.9,275.0 599.3,277.8 599.8,276.5 600.3,279.8 600.7,281.1 601.2,283.7 601.7,280.6 602.1,279.7 602.6,277.7 603.1,275.8 603.6,274.2 604.0,273.9 604.5,273.5 605.0,275.2 605.4,272.4 605.9,271.8 606.4,273.9 606.9,274.7 607.3,276.9 607.8,274.3 608.3,278.6 608.7,277.7 609.2,281.6 609.7,285.3 610.1,285.2 610.6,288.7 611.1,287.2 611.6,286.0 612.0,292.3 612.5,294.2 613.0,288.0 613.4,284.8 613.9,285.0 614.4,283.4 614.9,282.1 615.3,284.2 615.8,282.4 616.3,279.8 616.7,279.3 617.2,280.1 617.7,277.5 618.1,276.0 618.6,247.7 619.1,243.7 619.6,243.4 620.0,237.8 620.5,236.2 621.0,237.7 621.4,241.3 621.9,243.0 622.4,238.8 622.9,235.3 623.3,230.3 623.8,228.7 624.3,228.6 624.7,231.3 625.2,231.4 625.7,233.3 626.1,233.8 626.6,232.4 627.1,232.7 627.6,230.2 628.0,230.3 628.5,226.4 629.0,225.7 629.4,224.8 629.9,225.6 630.4,222.0 630.9,223.9 631.3,218.5 631.8,216.3 632.3,213.6 632.7,214.4 633.2,216.6 633.7,216.6 634.1,214.7 634.6,213.2 635.1,217.0 635.6,213.8 636.0,217.3 636.5,219.2 637.0,221.1 637.4,223.2 637.9,220.4 638.4,221.6 638.8,221.0 639.3,219.2 639.8,216.4 640.3,216.4 640.7,215.7 641.2,214.3 641.7,213.9 642.1,213.9 642.6,230.0 643.1,229.3 643.6,231.4 644.0,233.2 644.5,232.9 645.0,232.1 645.4,228.2 645.9,233.4 646.4,234.0 646.8,235.4 647.3,224.6 647.8,232.6 648.3,227.0 648.7,224.5 649.2,223.3 649.7,225.2 650.1,222.2 650.6,225.2 651.1,225.2 651.6,229.0 652.0,226.4 652.5,225.2 653.0,222.7 653.4,221.4 653.9,220.6 654.4,223.1 654.8,220.1 655.3,219.3 655.8,225.8 656.3,221.1 656.7,218.6 657.2,218.2 657.7,216.8 658.1,220.6 658.6,224.5 659.1,218.4 659.6,210.5 660.0,208.9 660.5,217.1 661.0,219.0 661.4,222.8 661.9,221.8 662.4,220.0 662.8,220.5 663.3,220.4 663.8,218.6 664.3,215.9 664.7,215.7 665.2,214.6 665.7,212.4 666.1,212.2 666.6,215.0 667.1,213.6 667.6,210.3 668.0,201.9 668.5,204.8 669.0,203.0 669.4,206.7 669.9,204.3 670.4,204.7 670.8,201.0 671.3,196.1 671.8,197.6 672.3,201.9 672.7,197.8 673.2,196.8 673.7,197.8 674.1,195.7 674.6,194.5 675.1,199.7 675.5,200.3 676.0,197.8 676.5,196.2 677.0,198.0 677.4,195.4 677.9,193.6 678.4,199.7 678.8,200.5 679.3,199.7 679.8,199.3 680.3,196.3 680.7,196.9 681.2,193.1 681.7,192.6 682.1,190.1 682.6,188.7 683.1,189.7 683.5,191.7 684.0,189.7 684.5,184.8 685.0,184.6 685.4,189.7 685.9,190.4 686.4,186.7 686.8,195.7 687.3,197.9 687.8,193.9 688.3,193.7 688.7,193.2 689.2,196.1 689.7,195.5 690.1,189.8 690.6,193.5 691.1,193.4 691.5,195.6 692.0,195.7 692.5,195.1 693.0,198.1 693.4,195.7 693.9,194.4 694.4,191.2 694.8,189.6 695.3,195.1 695.8,196.9 696.3,192.2 696.7,194.3 697.2,190.9 697.7,193.2 698.1,201.2 698.6,199.4 699.1,197.9 699.5,197.3 700.0,194.0 700.5,196.5 701.0,194.0 701.4,197.1 701.9,203.0 702.4,202.0 702.8,200.6 703.3,200.4 703.8,193.4 704.3,192.3 704.7,195.1 705.2,194.7 705.7,194.9 706.1,195.4 706.6,194.6 707.1,195.5 707.5,199.3 708.0,195.5 708.5,194.3 709.0,193.3 709.4,188.9 709.9,191.4 710.4,185.9 710.8,190.0 711.3,190.0 711.8,187.3 712.2,187.3 712.7,192.8 713.2,191.1 713.7,189.4 714.1,185.5 714.6,187.1 715.1,183.6 715.5,167.9 716.0,165.8 716.5,179.1 717.0,179.3 717.4,176.7 717.9,172.8 718.4,172.0 718.8,174.1 719.3,174.1 719.8,172.3 720.2,177.2 720.7,178.8 721.2,175.6 721.7,170.5 722.1,171.8 722.6,170.0 723.1,168.9 723.5,169.6 724.0,171.9 724.5,171.4 725.0,174.2 725.4,170.7 725.9,177.1 726.4,180.7 726.8,179.7 727.3,176.2 727.8,178.8 728.2,178.0 728.7,178.9 729.2,179.3 729.7,178.6 730.1,177.5 730.6,175.9 731.1,172.7 731.5,173.6 732.0,173.7 732.5,174.6 733.0,175.1 733.4,177.3 733.9,175.9 734.4,171.1 734.8,165.2 735.3,160.9 735.8,167.5 736.2,168.0 736.7,167.5 737.2,166.9 737.7,167.8 738.1,170.7 738.6,171.7 739.1,174.5 739.5,170.7 740.0,168.4 740.5,166.7 741.0,166.2 741.4,164.7 741.9,166.6 742.4,164.0 742.8,159.2 743.3,155.3 743.8,151.9 744.2,148.0 744.7,145.7 745.2,142.8 745.7,146.0 746.1,145.1 746.6,144.9 747.1,142.0 747.5,139.9 748.0,138.7 748.5,139.1 748.9,140.3 749.4,139.0 749.9,137.2 750.4,137.5 750.8,138.9 751.3,137.8 751.8,133.3 752.2,126.9 752.7,126.8 753.2,127.1 753.7,136.1 754.1,137.5 754.6,135.2 755.1,134.6 755.5,130.9 756.0,135.1 756.5,136.2 756.9,133.9 757.4,133.8 757.9,135.5 758.4,136.9 758.8,137.8 759.3,136.4 759.8,136.7 760.2,129.1 760.7,129.6 761.2,132.6 761.7,132.5 762.1,124.4 762.6,121.8 763.1,121.4 763.5,127.7 764.0,129.9 764.5,124.7 764.9,122.8 765.4,124.7 765.9,122.1 766.4,120.2 766.8,120.8 767.3,121.9 767.8,114.5 768.2,117.9 768.7,117.0 769.2,115.8 769.7,116.2 770.1,117.5 770.6,116.2 771.1,116.7 771.5,116.9 772.0,114.1 772.5,117.0 772.9,113.5 773.4,112.4 773.9,111.1 774.4,113.5 774.8,110.8 775.3,106.7 775.8,106.5 776.2,99.5 776.7,98.8 777.2,100.2 777.7,103.7 778.1,102.2 778.6,99.2 779.1,97.1 779.5,92.9 780.0,95.7 780.5,95.2 780.9,92.9 781.4,87.4 781.9,89.9 782.4,95.0 782.8,90.8 783.3,90.6 783.8,86.9 784.2,91.3 784.7,87.9 785.2,92.8 785.6,89.4 786.1,91.2 786.6,93.9 787.1,94.1 787.5,96.4 788.0,99.7 788.5,97.0 788.9,89.2 789.4,93.8 789.9,92.0 790.4,85.4 790.8,81.8 791.3,86.1 791.8,87.3 792.2,78.9 792.7,82.5 793.2,78.8 793.6,76.5 794.1,78.1 794.6,84.5 795.1,84.5 795.5,87.8 796.0,85.0"/>
<text x="78" y="392" font-size="11" fill="#16a34a">Total return +44.4%</text><text x="268" y="392" font-size="11" fill="#2563eb">Price-only +26.5%</text><text x="78" y="362" font-size="11" text-anchor="middle" fill="#64748b">2020-06</text><text x="257" y="362" font-size="11" text-anchor="middle" fill="#64748b">2021-12</text><text x="437" y="362" font-size="11" text-anchor="middle" fill="#64748b">2023-06</text><text x="617" y="362" font-size="11" text-anchor="middle" fill="#64748b">2025-01</text><text x="796" y="362" font-size="11" text-anchor="middle" fill="#64748b">2026-07</text></svg>