<svg xmlns="http://www.w3.org/2000/svg" width="720" height="360" viewBox="0 0 720 360">
  <rect width="720" height="360" fill="#fafafa"/>
  <text x="56" y="22" font-size="13" font-family="sans-serif" fill="#222">AZLCZ total return (rebased 100) · cumulative distributions $0.00/sh · market cap $324.0M</text>
  <line x1="56" y1="308" x2="696" y2="308" stroke="#ccc"/>
  <line x1="56" y1="48" x2="56" y2="308" stroke="#ccc"/>
  <polyline fill="none" stroke="#2563eb" stroke-width="2" points="56.0,289.7 59.9,290.1 63.8,289.8 67.6,289.8 71.5,289.7 75.4,288.7 79.3,289.2 83.2,289.2 87.0,289.2 90.9,289.2 94.8,289.1 98.7,286.0 102.5,289.2 106.4,289.2 110.3,288.1 114.2,288.1 118.1,288.1 121.9,289.0 125.8,288.1 129.7,286.7 133.6,286.3 137.5,285.6 141.3,284.9 145.2,281.9 149.1,283.0 153.0,284.9 156.8,284.9 160.7,282.8 164.6,284.8 168.5,286.0 172.4,285.4 176.2,285.4 180.1,284.9 184.0,284.9 187.9,284.9 191.8,284.6 195.6,285.4 199.5,286.0 203.4,285.4 207.3,285.9 211.2,285.9 215.0,285.4 218.9,282.8 222.8,282.2 226.7,283.8 230.5,284.7 234.4,284.7 238.3,283.3 242.2,283.9 246.1,283.3 249.9,284.2 253.8,284.4 257.7,286.4 261.6,283.8 265.5,284.1 269.3,282.2 273.2,282.2 277.1,282.2 281.0,280.8 284.8,281.4 288.7,280.5 292.6,280.4 296.5,280.6 300.4,281.9 304.2,280.1 308.1,280.0 312.0,280.2 315.9,278.1 319.8,278.7 323.6,279.4 327.5,279.1 331.4,279.5 335.3,279.0 339.2,281.8 343.0,281.7 346.9,279.8 350.8,279.0 354.7,281.7 358.5,281.6 362.4,282.2 366.3,282.2 370.2,282.5 374.1,282.4 377.9,282.5 381.8,284.4 385.7,284.9 389.6,284.6 393.5,282.8 397.3,280.1 401.2,280.1 405.1,282.2 409.0,280.1 412.8,280.1 416.7,280.1 420.6,276.9 424.5,276.9 428.4,278.2 432.2,279.0 436.1,280.1 440.0,275.8 443.9,277.0 447.8,274.2 451.6,265.7 455.5,266.4 459.4,270.5 463.3,267.9 467.2,272.2 471.0,273.6 474.9,280.3 478.8,279.6 482.7,273.9 486.5,270.2 490.4,270.3 494.3,265.7 498.2,269.9 502.1,269.8 505.9,270.1 509.8,270.6 513.7,269.1 517.6,269.4 521.5,271.2 525.3,266.3 529.2,266.2 533.1,265.7 537.0,250.2 540.8,250.2 544.7,247.5 548.6,246.4 552.5,248.0 556.4,248.0 560.2,248.0 564.1,248.6 568.0,248.6 571.9,249.6 575.8,247.1 579.6,230.4 583.5,231.0 587.4,231.5 591.3,237.9 595.2,239.8 599.0,239.5 602.9,244.3 606.8,241.6 610.7,236.8 614.5,236.3 618.4,220.3 622.3,220.8 626.2,214.9 630.1,202.1 633.9,195.7 637.8,178.1 641.7,192.4 645.6,193.6 649.5,192.5 653.3,193.2 657.2,178.1 661.1,183.4 665.0,165.7 668.8,152.4 672.7,130.6 676.6,92.6 680.5,95.3 684.4,92.6 688.2,74.5 692.1,65.9 696.0,85.2"/>
  <polyline fill="none" stroke="#16a34a" stroke-width="2" points="56.0,289.7 59.9,290.1 63.8,289.8 67.6,289.8 71.5,289.7 75.4,288.7 79.3,289.2 83.2,289.2 87.0,289.2 90.9,289.2 94.8,289.1 98.7,286.0 102.5,289.2 106.4,289.2 110.3,288.1 114.2,288.1 118.1,288.1 121.9,289.0 125.8,288.1 129.7,286.7 133.6,286.3 137.5,285.6 141.3,284.9 145.2,281.9 149.1,283.0 153.0,284.9 156.8,284.9 160.7,282.8 164.6,284.8 168.5,286.0 172.4,285.4 176.2,285.4 180.1,284.9 184.0,284.9 187.9,284.9 191.8,284.6 195.6,285.4 199.5,286.0 203.4,285.4 207.3,285.9 211.2,285.9 215.0,285.4 218.9,282.8 222.8,282.2 226.7,283.8 230.5,284.7 234.4,284.7 238.3,283.3 242.2,283.9 246.1,283.3 249.9,284.2 253.8,284.4 257.7,286.4 261.6,283.8 265.5,284.1 269.3,282.2 273.2,282.2 277.1,282.2 281.0,280.8 284.8,281.4 288.7,280.5 292.6,280.4 296.5,280.6 300.4,281.9 304.2,280.1 308.1,280.0 312.0,280.2 315.9,278.1 319.8,278.7 323.6,279.4 327.5,279.1 331.4,279.5 335.3,279.0 339.2,281.8 343.0,281.7 346.9,279.8 350.8,279.0 354.7,281.7 358.5,281.6 362.4,282.2 366.3,282.2 370.2,282.5 374.1,282.4 377.9,282.5 381.8,284.4 385.7,284.9 389.6,284.6 393.5,282.8 397.3,280.1 401.2,280.1 405.1,282.2 409.0,280.1 412.8,280.1 416.7,280.1 420.6,276.9 424.5,276.9 428.4,278.2 432.2,279.0 436.1,280.1 440.0,275.8 443.9,277.0 447.8,274.2 451.6,265.7 455.5,266.4 459.4,270.5 463.3,267.9 467.2,272.2 471.0,273.6 474.9,280.3 478.8,279.6 482.7,273.9 486.5,270.2 490.4,270.3 494.3,265.7 498.2,269.9 502.1,269.8 505.9,270.1 509.8,270.6 513.7,269.1 517.6,269.4 521.5,271.2 525.3,266.3 529.2,266.2 533.1,265.7 537.0,250.2 540.8,250.2 544.7,247.5 548.6,246.4 552.5,248.0 556.4,248.0 560.2,248.0 564.1,248.6 568.0,248.6 571.9,249.6 575.8,247.1 579.6,230.4 583.5,231.0 587.4,231.5 591.3,237.9 595.2,239.8 599.0,239.5 602.9,244.3 606.8,241.6 610.7,236.8 614.5,236.3 618.4,220.3 622.3,220.8 626.2,214.9 630.1,202.1 633.9,195.7 637.8,178.1 641.7,192.4 645.6,193.6 649.5,192.5 653.3,193.2 657.2,178.1 661.1,183.4 665.0,165.7 668.8,152.4 672.7,130.6 676.6,92.6 680.5,95.3 684.4,92.6 688.2,74.5 692.1,65.9 696.0,85.2"/>
  <text x="60" y="62" font-size="11" fill="#2563eb">Price index</text>
  <text x="146" y="62" font-size="11" fill="#16a34a">Total return (price + distributions)</text>
  <text x="56" y="348" font-size="11" text-anchor="middle" fill="#444">2012-09</text><text x="215" y="348" font-size="11" text-anchor="middle" fill="#444">2016-02</text><text x="378" y="348" font-size="11" text-anchor="middle" fill="#444">2019-08</text><text x="537" y="348" font-size="11" text-anchor="middle" fill="#444">2023-01</text><text x="696" y="348" font-size="11" text-anchor="middle" fill="#444">2026-06</text>
</svg>
