<svg xmlns="http://www.w3.org/2000/svg" width="820" height="410" viewBox="0 0 820 410">
<rect width="820" height="410" fill="#fafafa"/><text x="78" y="22" font-size="14" font-family="sans-serif" fill="#0f172a">AZLCZ cumulative return since 2012-09-25 | dividends reinvested</text>
<text x="78" y="40" font-size="11" font-family="sans-serif" fill="#334155">Total return +1,765% | Price-only +1,746% | logarithmic scale</text>
<text x="78" y="54" font-size="9" font-family="sans-serif" fill="#64748b">Regular $12.04 | Special $0.00 | Other $0.00 per initial share path</text>
<line x1="78" y1="332.0" x2="796" y2="332.0" stroke="#e2e8f0"/><text x="70" y="336.0" font-size="10" text-anchor="end" fill="#64748b">-21.0%</text><line x1="78" y1="313.1" x2="796" y2="313.1" stroke="#e2e8f0"/><text x="70" y="317.1" font-size="10" text-anchor="end" fill="#64748b">0%</text><line x1="78" y1="287.0" x2="796" y2="287.0" stroke="#e2e8f0"/><text x="70" y="291.0" font-size="10" text-anchor="end" fill="#64748b">+38.3%</text><line x1="78" y1="242.0" x2="796" y2="242.0" stroke="#e2e8f0"/><text x="70" y="246.0" font-size="10" text-anchor="end" fill="#64748b">+142.1%</text><line x1="78" y1="197.0" x2="796" y2="197.0" stroke="#e2e8f0"/><text x="70" y="201.0" font-size="10" text-anchor="end" fill="#64748b">+323.7%</text><line x1="78" y1="152.0" x2="796" y2="152.0" stroke="#e2e8f0"/><text x="70" y="156.0" font-size="10" text-anchor="end" fill="#64748b">+641.5%</text><line x1="78" y1="107.0" x2="796" y2="107.0" stroke="#e2e8f0"/><text x="70" y="111.0" font-size="10" text-anchor="end" fill="#64748b">+1,198%</text><line x1="78" y1="62.0" x2="796" y2="62.0" stroke="#e2e8f0"/><text x="70" y="66.0" font-size="10" text-anchor="end" fill="#64748b">+2,171%</text>
<line x1="78" y1="332" x2="796" y2="332" stroke="#cbd5e1"/>
<polyline fill="none" stroke="#2563eb" stroke-width="2" points="78.0,313.1 78.2,313.1 78.4,313.1 78.6,313.1 78.8,313.1 79.0,313.1 79.2,313.1 79.4,313.1 79.7,313.1 79.9,313.1 80.1,313.1 80.3,313.1 80.5,313.1 80.7,313.1 80.9,313.1 81.1,313.1 81.3,313.1 81.5,313.1 81.7,313.1 81.9,313.1 82.1,315.3 82.3,315.3 82.6,315.3 82.8,315.3 83.0,315.3 83.2,315.3 83.4,315.3 83.6,315.3 83.8,317.5 84.0,317.5 84.2,317.5 84.4,316.6 84.6,316.6 84.8,316.6 85.0,316.6 85.2,317.4 85.5,317.4 85.7,315.3 85.9,315.3 86.1,315.3 86.3,315.3 86.5,315.3 86.7,315.3 86.9,315.3 87.1,315.3 87.3,313.7 87.5,313.7 87.7,316.2 87.9,316.2 88.1,316.2 88.4,313.7 88.6,313.7 88.8,313.7 89.0,313.7 89.2,313.7 89.4,313.7 89.6,313.7 89.8,313.7 90.0,313.7 90.2,316.9 90.4,316.9 90.6,316.9 90.8,316.9 91.0,316.9 91.3,313.1 91.5,313.7 91.7,313.7 91.9,313.7 92.1,313.7 92.3,313.7 92.5,311.3 92.7,311.3 92.9,311.3 93.1,311.3 93.3,313.1 93.5,313.1 93.7,308.9 93.9,308.9 94.1,308.9 94.4,313.1 94.6,313.1 94.8,313.1 95.0,313.1 95.2,313.1 95.4,313.1 95.6,313.1 95.8,313.1 96.0,313.1 96.2,313.1 96.4,313.1 96.6,313.1 96.8,311.3 97.0,311.3 97.3,311.3 97.5,311.3 97.7,311.3 97.9,311.3 98.1,307.7 98.3,307.7 98.5,307.7 98.7,307.7 98.9,307.7 99.1,307.7 99.3,307.7 99.5,307.7 99.7,307.7 99.9,307.7 100.2,307.7 100.4,307.7 100.6,307.7 100.8,307.7 101.0,307.7 101.2,307.7 101.4,307.7 101.6,307.7 101.8,307.7 102.0,307.7 102.2,307.7 102.4,314.3 102.6,314.3 102.8,312.5 103.1,312.5 103.3,312.5 103.5,312.5 103.7,312.5 103.9,310.1 104.1,310.1 104.3,310.1 104.5,310.1 104.7,310.1 104.9,310.1 105.1,310.1 105.3,310.1 105.5,310.1 105.7,310.1 105.9,310.1 106.2,310.1 106.4,310.1 106.6,310.1 106.8,310.1 107.0,310.1 107.2,310.1 107.4,310.1 107.6,310.1 107.8,310.1 108.0,310.1 108.2,310.1 108.4,310.1 108.6,310.1 108.8,310.1 109.1,310.1 109.3,310.1 109.5,310.1 109.7,310.1 109.9,310.1 110.1,310.1 110.3,310.1 110.5,310.1 110.7,310.1 110.9,310.1 111.1,310.1 111.3,310.1 111.5,310.1 111.7,310.1 112.0,310.1 112.2,310.1 112.4,310.1 112.6,310.1 112.8,310.1 113.0,310.1 113.2,310.1 113.4,310.1 113.6,310.1 113.8,310.1 114.0,310.1 114.2,310.1 114.4,310.1 114.6,310.1 114.9,310.1 115.1,310.1 115.3,310.1 115.5,310.1 115.7,310.1 115.9,310.1 116.1,310.1 116.3,310.1 116.5,310.1 116.7,310.1 116.9,310.1 117.1,310.1 117.3,310.1 117.5,310.1 117.8,310.1 118.0,310.1 118.2,310.1 118.4,310.1 118.6,310.1 118.8,311.3 119.0,311.3 119.2,311.3 119.4,310.1 119.6,310.1 119.8,310.1 120.0,310.1 120.2,310.1 120.4,310.1 120.6,310.1 120.9,310.1 121.1,310.1 121.3,310.1 121.5,310.1 121.7,309.5 121.9,309.5 122.1,310.8 122.3,310.8 122.5,310.8 122.7,310.8 122.9,310.8 123.1,310.8 123.3,310.8 123.5,310.8 123.8,310.8 124.0,310.8 124.2,310.8 124.4,310.8 124.6,310.8 124.8,310.8 125.0,310.8 125.2,310.0 125.4,293.9 125.6,293.9 125.8,293.9 126.0,293.9 126.2,293.9 126.4,293.9 126.7,310.0 126.9,310.0 127.1,310.0 127.3,310.0 127.5,310.0 127.7,310.0 127.9,310.0 128.1,310.0 128.3,310.0 128.5,310.0 128.7,310.0 128.9,310.0 129.1,310.0 129.3,310.0 129.6,310.0 129.8,310.0 130.0,310.0 130.2,310.0 130.4,310.0 130.6,310.0 130.8,310.0 131.0,310.0 131.2,310.0 131.4,310.0 131.6,310.0 131.8,310.0 132.0,310.0 132.2,310.0 132.5,310.0 132.7,310.0 132.9,310.0 133.1,310.0 133.3,310.0 133.5,310.0 133.7,310.0 133.9,310.0 134.1,310.0 134.3,310.0 134.5,310.0 134.7,310.0 134.9,310.0 135.1,310.0 135.3,310.0 135.6,310.0 135.8,310.0 136.0,310.0 136.2,310.0 136.4,310.0 136.6,310.0 136.8,310.0 137.0,310.0 137.2,310.0 137.4,310.0 137.6,310.0 137.8,310.0 138.0,310.0 138.2,304.3 138.5,304.3 138.7,304.3 138.9,304.3 139.1,304.3 139.3,304.3 139.5,304.3 139.7,304.3 139.9,304.3 140.1,304.3 140.3,304.3 140.5,304.3 140.7,304.3 140.9,304.3 141.1,304.3 141.4,304.3 141.6,304.3 141.8,304.3 142.0,304.3 142.2,304.3 142.4,304.3 142.6,304.3 142.8,304.3 143.0,304.3 143.2,304.3 143.4,304.3 143.6,304.3 143.8,304.3 144.0,304.3 144.3,304.3 144.5,304.3 144.7,304.3 144.9,304.3 145.1,304.3 145.3,304.3 145.5,304.3 145.7,304.3 145.9,304.3 146.1,304.3 146.3,304.3 146.5,304.3 146.7,304.3 146.9,304.3 147.1,304.3 147.4,304.3 147.6,304.3 147.8,304.3 148.0,304.3 148.2,289.2 148.4,289.2 148.6,289.2 148.8,289.2 149.0,289.2 149.2,289.2 149.4,289.2 149.6,289.2 149.8,289.2 150.0,289.2 150.3,289.2 150.5,289.2 150.7,289.2 150.9,289.2 151.1,289.2 151.3,309.4 151.5,309.4 151.7,309.4 151.9,309.4 152.1,309.4 152.3,309.4 152.5,309.4 152.7,309.4 152.9,309.4 153.2,309.4 153.4,309.4 153.6,307.1 153.8,307.1 154.0,307.1 154.2,307.1 154.4,293.9 154.6,293.9 154.8,293.9 155.0,301.6 155.2,301.6 155.4,301.6 155.6,301.6 155.8,296.4 156.1,296.4 156.3,304.3 156.5,304.3 156.7,304.3 156.9,304.3 157.1,304.3 157.3,301.6 157.5,301.6 157.7,297.9 157.9,297.4 158.1,297.4 158.3,297.4 158.5,297.4 158.7,297.4 159.0,297.4 159.2,297.4 159.4,297.4 159.6,297.4 159.8,297.4 160.0,297.4 160.2,297.4 160.4,297.4 160.6,297.4 160.8,297.4 161.0,297.4 161.2,297.4 161.4,297.4 161.6,297.4 161.8,294.9 162.1,294.9 162.3,294.9 162.5,294.9 162.7,294.9 162.9,294.9 163.1,294.9 163.3,294.9 163.5,294.9 163.7,294.9 163.9,294.9 164.1,296.9 164.3,296.9 164.5,295.4 164.7,295.4 165.0,295.4 165.2,295.4 165.4,295.4 165.6,295.4 165.8,295.4 166.0,295.4 166.2,295.4 166.4,295.4 166.6,295.4 166.8,296.4 167.0,296.4 167.2,296.4 167.4,296.4 167.6,296.4 167.9,296.4 168.1,296.4 168.3,296.4 168.5,296.4 168.7,292.5 168.9,292.5 169.1,292.5 169.3,292.5 169.5,292.5 169.7,292.5 169.9,292.5 170.1,292.5 170.3,292.5 170.5,292.5 170.8,292.5 171.0,292.5 171.2,289.2 171.4,289.2 171.6,289.2 171.8,289.2 172.0,289.2 172.2,289.2 172.4,289.2 172.6,289.2 172.8,289.2 173.0,289.2 173.2,289.2 173.4,289.2 173.7,289.2 173.9,289.2 174.1,289.2 174.3,289.2 174.5,289.2 174.7,289.2 174.9,289.2 175.1,289.2 175.3,289.2 175.5,289.2 175.7,289.2 175.9,289.2 176.1,276.5 176.3,276.5 176.5,276.5 176.8,276.5 177.0,276.5 177.2,276.5 177.4,276.5 177.6,276.5 177.8,276.5 178.0,276.5 178.2,277.3 178.4,277.6 178.6,277.6 178.8,277.6 179.0,278.4 179.2,277.3 179.4,277.3 179.7,277.3 179.9,278.4 180.1,278.0 180.3,278.0 180.5,278.0 180.7,278.0 180.9,278.0 181.1,278.0 181.3,281.3 181.5,281.3 181.7,281.3 181.9,281.3 182.1,281.3 182.3,281.3 182.6,281.3 182.8,281.3 183.0,281.3 183.2,281.3 183.4,281.3 183.6,281.3 183.8,281.3 184.0,281.3 184.2,281.3 184.4,281.3 184.6,281.3 184.8,281.3 185.0,289.2 185.2,289.2 185.5,289.2 185.7,289.2 185.9,289.2 186.1,289.2 186.3,289.2 186.5,289.2 186.7,289.2 186.9,289.2 187.1,289.2 187.3,289.2 187.5,289.2 187.7,289.2 187.9,289.2 188.1,289.2 188.4,289.2 188.6,289.2 188.8,289.2 189.0,289.2 189.2,289.2 189.4,289.2 189.6,289.2 189.8,289.2 190.0,289.2 190.2,289.2 190.4,289.2 190.6,289.2 190.8,289.2 191.0,289.2 191.2,289.2 191.5,289.2 191.7,289.2 191.9,289.2 192.1,289.2 192.3,289.2 192.5,284.7 192.7,284.7 192.9,284.7 193.1,284.7 193.3,284.7 193.5,280.5 193.7,280.5 193.9,280.5 194.1,280.5 194.4,280.5 194.6,280.7 194.8,280.7 195.0,280.5 195.2,280.5 195.4,280.5 195.6,280.5 195.8,280.5 196.0,280.5 196.2,280.5 196.4,280.5 196.6,280.5 196.8,280.5 197.0,280.5 197.3,280.5 197.5,280.5 197.7,280.5 197.9,280.5 198.1,280.5 198.3,280.5 198.5,281.7 198.7,281.7 198.9,281.7 199.1,281.7 199.3,284.7 199.5,288.7 199.7,288.7 199.9,288.7 200.2,288.7 200.4,281.7 200.6,304.3 200.8,289.2 201.0,289.2 201.2,289.2 201.4,289.2 201.6,288.7 201.8,289.2 202.0,289.2 202.2,289.2 202.4,289.2 202.6,289.2 202.8,289.2 203.0,293.9 203.3,293.9 203.5,293.9 203.7,293.9 203.9,293.9 204.1,293.9 204.3,293.9 204.5,293.9 204.7,293.9 204.9,293.9 205.1,293.9 205.3,293.9 205.5,291.5 205.7,291.5 205.9,291.5 206.2,291.5 206.4,291.5 206.6,291.5 206.8,291.5 207.0,291.5 207.2,291.5 207.4,291.5 207.6,291.5 207.8,291.0 208.0,291.0 208.2,291.0 208.4,291.5 208.6,291.5 208.8,291.5 209.1,291.5 209.3,291.5 209.5,291.5 209.7,291.5 209.9,291.5 210.1,291.5 210.3,291.5 210.5,291.5 210.7,291.5 210.9,291.5 211.1,291.5 211.3,291.5 211.5,291.5 211.7,291.5 212.0,291.5 212.2,291.5 212.4,291.5 212.6,291.5 212.8,291.5 213.0,291.5 213.2,291.5 213.4,291.5 213.6,291.5 213.8,291.5 214.0,291.5 214.2,291.5 214.4,291.5 214.6,291.5 214.9,291.5 215.1,291.5 215.3,291.5 215.5,282.6 215.7,282.6 215.9,282.6 216.1,278.9 216.3,278.9 216.5,289.2 216.7,289.2 216.9,289.2 217.1,289.2 217.3,289.2 217.5,289.2 217.7,289.2 218.0,289.2 218.2,289.2 218.4,289.2 218.6,289.2 218.8,289.2 219.0,289.2 219.2,289.2 219.4,289.2 219.6,289.2 219.8,289.2 220.0,289.2 220.2,289.2 220.4,289.2 220.6,289.2 220.9,289.2 221.1,289.2 221.3,289.2 221.5,289.2 221.7,289.2 221.9,289.2 222.1,289.2 222.3,289.2 222.5,289.2 222.7,289.2 222.9,289.2 223.1,289.2 223.3,289.2 223.5,289.2 223.8,289.2 224.0,289.2 224.2,289.2 224.4,289.2 224.6,289.2 224.8,289.2 225.0,289.2 225.2,289.2 225.4,289.2 225.6,289.2 225.8,289.2 226.0,289.2 226.2,289.2 226.4,289.2 226.7,289.2 226.9,289.2 227.1,289.2 227.3,286.9 227.5,286.9 227.7,287.8 227.9,287.8 228.1,287.8 228.3,287.8 228.5,287.8 228.7,287.8 228.9,287.8 229.1,287.8 229.3,287.8 229.6,287.8 229.8,287.8 230.0,287.8 230.2,287.8 230.4,287.8 230.6,287.4 230.8,291.5 231.0,291.5 231.2,291.5 231.4,291.5 231.6,291.5 231.8,291.5 232.0,291.5 232.2,291.5 232.4,291.5 232.7,291.5 232.9,291.5 233.1,291.5 233.3,291.5 233.5,291.5 233.7,291.5 233.9,291.5 234.1,291.5 234.3,291.5 234.5,291.5 234.7,291.5 234.9,289.2 235.1,289.2 235.3,289.2 235.6,291.5 235.8,291.5 236.0,291.5 236.2,292.0 236.4,291.5 236.6,291.5 236.8,291.5 237.0,293.9 237.2,293.9 237.4,293.9 237.6,293.9 237.8,293.9 238.0,293.9 238.2,293.9 238.5,293.9 238.7,293.9 238.9,293.9 239.1,293.9 239.3,293.9 239.5,291.5 239.7,291.5 239.9,294.9 240.1,294.9 240.3,294.9 240.5,294.9 240.7,294.9 240.9,294.9 241.1,291.5 241.4,291.5 241.6,291.5 241.8,291.5 242.0,291.5 242.2,291.5 242.4,291.5 242.6,291.5 242.8,291.5 243.0,291.5 243.2,291.5 243.4,291.5 243.6,296.4 243.8,296.4 244.0,296.4 244.2,296.4 244.5,296.4 244.7,296.4 244.9,296.4 245.1,296.4 245.3,296.4 245.5,296.4 245.7,296.4 245.9,296.4 246.1,296.4 246.3,296.4 246.5,296.4 246.7,293.4 246.9,293.4 247.1,293.4 247.4,293.4 247.6,293.4 247.8,293.4 248.0,293.4 248.2,293.4 248.4,293.4 248.6,293.4 248.8,293.4 249.0,293.4 249.2,293.4 249.4,293.4 249.6,293.4 249.8,293.4 250.0,293.4 250.3,293.4 250.5,293.4 250.7,293.4 250.9,293.4 251.1,293.4 251.3,293.4 251.5,293.4 251.7,293.4 251.9,293.4 252.1,293.4 252.3,293.4 252.5,293.4 252.7,293.4 252.9,293.4 253.2,293.4 253.4,293.4 253.6,304.3 253.8,304.3 254.0,304.3 254.2,304.3 254.4,304.3 254.6,304.3 254.8,300.0 255.0,300.0 255.2,294.4 255.4,291.5 255.6,291.5 255.8,291.5 256.1,291.5 256.3,291.5 256.5,291.5 256.7,291.5 256.9,291.5 257.1,291.5 257.3,291.5 257.5,291.5 257.7,283.9 257.9,283.9 258.1,283.0 258.3,283.0 258.5,282.6 258.7,282.6 258.9,282.6 259.2,281.3 259.4,281.3 259.6,281.3 259.8,281.3 260.0,281.3 260.2,278.9 260.4,280.5 260.6,280.5 260.8,283.0 261.0,283.0 261.2,283.0 261.4,283.0 261.6,283.0 261.8,283.0 262.1,283.0 262.3,283.0 262.5,283.0 262.7,283.0 262.9,283.0 263.1,283.0 263.3,278.4 263.5,278.4 263.7,278.4 263.9,278.4 264.1,278.4 264.3,278.4 264.5,278.4 264.7,278.4 265.0,278.4 265.2,278.4 265.4,278.4 265.6,278.4 265.8,278.4 266.0,278.4 266.2,278.4 266.4,278.4 266.6,278.4 266.8,278.4 267.0,284.7 267.2,284.7 267.4,284.7 267.6,284.7 267.9,284.7 268.1,284.7 268.3,284.7 268.5,284.7 268.7,284.7 268.9,284.7 269.1,284.7 269.3,284.7 269.5,284.7 269.7,284.7 269.9,284.7 270.1,284.7 270.3,284.7 270.5,284.7 270.8,284.7 271.0,284.7 271.2,284.7 271.4,284.7 271.6,284.7 271.8,284.7 272.0,284.7 272.2,284.7 272.4,284.7 272.6,284.7 272.8,284.7 273.0,284.7 273.2,288.3 273.4,288.3 273.6,288.3 273.9,288.3 274.1,288.3 274.3,288.3 274.5,288.3 274.7,288.3 274.9,288.3 275.1,288.3 275.3,288.3 275.5,288.3 275.7,288.3 275.9,288.3 276.1,288.3 276.3,288.3 276.5,288.3 276.8,288.3 277.0,288.3 277.2,288.3 277.4,288.3 277.6,288.3 277.8,288.3 278.0,288.3 278.2,288.3 278.4,288.3 278.6,288.3 278.8,288.3 279.0,288.3 279.2,288.3 279.4,288.3 279.7,288.3 279.9,288.3 280.1,288.3 280.3,288.3 280.5,288.3 280.7,288.3 280.9,278.4 281.1,278.4 281.3,278.4 281.5,278.4 281.7,278.4 281.9,278.4 282.1,278.4 282.3,282.6 282.6,282.6 282.8,282.6 283.0,282.6 283.2,282.6 283.4,286.0 283.6,286.0 283.8,286.0 284.0,285.2 284.2,285.2 284.4,285.2 284.6,285.2 284.8,285.2 285.0,285.2 285.2,285.2 285.4,285.2 285.7,285.2 285.9,285.2 286.1,285.2 286.3,285.2 286.5,285.2 286.7,285.2 286.9,285.2 287.1,285.2 287.3,285.2 287.5,285.2 287.7,285.2 287.9,285.2 288.1,285.2 288.3,280.5 288.6,280.5 288.8,280.5 289.0,280.5 289.2,278.4 289.4,278.4 289.6,282.6 289.8,282.6 290.0,282.6 290.2,282.6 290.4,282.6 290.6,282.6 290.8,282.6 291.0,282.6 291.2,282.6 291.5,282.6 291.7,282.6 291.9,282.6 292.1,282.6 292.3,282.6 292.5,282.6 292.7,282.6 292.9,282.6 293.1,282.6 293.3,282.6 293.5,282.6 293.7,282.6 293.9,282.6 294.1,282.6 294.4,289.2 294.6,286.3 294.8,286.3 295.0,286.3 295.2,286.3 295.4,286.3 295.6,286.3 295.8,286.3 296.0,286.3 296.2,286.3 296.4,286.3 296.6,286.3 296.8,286.3 297.0,286.3 297.3,280.5 297.5,280.5 297.7,280.5 297.9,280.5 298.1,280.5 298.3,280.5 298.5,289.2 298.7,289.2 298.9,289.2 299.1,286.9 299.3,289.2 299.5,289.2 299.7,289.2 299.9,289.2 300.1,286.9 300.4,286.9 300.6,286.9 300.8,286.9 301.0,286.9 301.2,288.7 301.4,289.2 301.6,289.2 301.8,296.4 302.0,296.4 302.2,291.5 302.4,291.5 302.6,291.5 302.8,295.9 303.0,295.9 303.3,295.9 303.5,295.9 303.7,295.9 303.9,295.9 304.1,295.9 304.3,295.9 304.5,295.9 304.7,295.9 304.9,293.9 305.1,293.9 305.3,293.9 305.5,293.9 305.7,293.9 305.9,293.9 306.2,287.8 306.4,287.8 306.6,287.8 306.8,287.8 307.0,287.8 307.2,287.8 307.4,284.7 307.6,284.7 307.8,284.7 308.0,284.7 308.2,284.7 308.4,284.7 308.6,284.7 308.8,284.7 309.1,284.7 309.3,284.7 309.5,286.9 309.7,286.0 309.9,286.0 310.1,286.0 310.3,286.0 310.5,286.0 310.7,286.0 310.9,286.0 311.1,286.0 311.3,286.0 311.5,286.0 311.7,286.0 312.0,286.0 312.2,286.0 312.4,286.0 312.6,286.0 312.8,286.0 313.0,286.0 313.2,286.0 313.4,286.0 313.6,286.0 313.8,286.0 314.0,286.0 314.2,278.4 314.4,278.4 314.6,279.3 314.8,279.3 315.1,279.3 315.3,272.6 315.5,272.6 315.7,278.4 315.9,278.4 316.1,278.4 316.3,278.4 316.5,278.4 316.7,278.4 316.9,278.4 317.1,278.4 317.3,278.4 317.5,278.4 317.7,278.4 318.0,278.4 318.2,278.4 318.4,278.4 318.6,278.4 318.8,278.4 319.0,278.4 319.2,278.4 319.4,278.5 319.6,278.5 319.8,278.5 320.0,278.5 320.2,278.5 320.4,278.5 320.6,278.4 320.9,278.4 321.1,278.4 321.3,278.4 321.5,278.4 321.7,272.6 321.9,272.6 322.1,272.6 322.3,272.6 322.5,272.6 322.7,272.6 322.9,272.6 323.1,278.4 323.3,278.4 323.5,278.4 323.8,278.4 324.0,278.4 324.2,278.4 324.4,278.4 324.6,278.4 324.8,278.4 325.0,278.4 325.2,278.4 325.4,278.4 325.6,278.4 325.8,278.4 326.0,278.4 326.2,278.4 326.4,278.4 326.6,278.4 326.9,278.4 327.1,278.4 327.3,278.4 327.5,278.4 327.7,278.4 327.9,278.4 328.1,278.4 328.3,278.4 328.5,278.4 328.7,273.4 328.9,273.4 329.1,273.4 329.3,273.4 329.5,273.4 329.8,273.4 330.0,273.4 330.2,273.4 330.4,273.4 330.6,273.4 330.8,273.4 331.0,276.1 331.2,276.1 331.4,276.1 331.6,276.1 331.8,276.1 332.0,276.1 332.2,276.1 332.4,276.1 332.7,276.1 332.9,276.1 333.1,276.1 333.3,276.1 333.5,276.1 333.7,276.1 333.9,276.1 334.1,276.1 334.3,274.5 334.5,275.3 334.7,275.3 334.9,275.3 335.1,275.3 335.3,275.3 335.6,271.5 335.8,271.5 336.0,271.5 336.2,271.5 336.4,271.5 336.6,274.5 336.8,274.5 337.0,274.5 337.2,274.5 337.4,274.5 337.6,274.5 337.8,272.3 338.0,272.3 338.2,272.3 338.5,272.3 338.7,272.3 338.9,272.3 339.1,272.3 339.3,272.3 339.5,274.9 339.7,274.9 339.9,274.9 340.1,274.9 340.3,274.9 340.5,274.9 340.7,271.9 340.9,271.9 341.1,271.9 341.3,271.9 341.6,271.9 341.8,271.9 342.0,271.9 342.2,271.9 342.4,271.9 342.6,271.9 342.8,271.9 343.0,271.9 343.2,271.9 343.4,271.9 343.6,271.9 343.8,271.9 344.0,271.9 344.2,271.9 344.5,271.9 344.7,271.9 344.9,271.9 345.1,271.9 345.3,271.9 345.5,270.8 345.7,270.8 345.9,270.8 346.1,270.8 346.3,270.8 346.5,270.8 346.7,270.8 346.9,270.8 347.1,270.8 347.4,270.8 347.6,270.8 347.8,270.8 348.0,272.6 348.2,272.6 348.4,272.6 348.6,272.6 348.8,272.6 349.0,272.6 349.2,272.6 349.4,272.6 349.6,272.6 349.8,272.6 350.0,274.1 350.3,274.1 350.5,274.1 350.7,274.1 350.9,274.1 351.1,274.1 351.3,274.1 351.5,274.1 351.7,277.3 351.9,277.3 352.1,277.3 352.3,277.3 352.5,277.3 352.7,277.3 352.9,277.3 353.2,277.3 353.4,273.8 353.6,273.8 353.8,273.8 354.0,273.4 354.2,273.4 354.4,273.4 354.6,270.8 354.8,270.8 355.0,270.8 355.2,270.8 355.4,270.8 355.6,270.8 355.8,270.8 356.0,270.8 356.3,270.8 356.5,270.8 356.7,270.8 356.9,270.8 357.1,270.8 357.3,271.9 357.5,271.9 357.7,271.9 357.9,271.9 358.1,271.9 358.3,271.9 358.5,271.9 358.7,271.9 358.9,271.9 359.2,271.9 359.4,271.9 359.6,271.9 359.8,271.9 360.0,271.9 360.2,270.4 360.4,270.4 360.6,270.4 360.8,270.4 361.0,270.4 361.2,270.4 361.4,270.4 361.6,270.4 361.8,270.4 362.1,270.4 362.3,270.4 362.5,270.4 362.7,270.4 362.9,270.4 363.1,270.4 363.3,267.2 363.5,267.2 363.7,267.2 363.9,267.2 364.1,271.2 364.3,271.2 364.5,271.2 364.7,271.2 365.0,271.2 365.2,271.2 365.4,271.2 365.6,271.2 365.8,271.2 366.0,271.2 366.2,271.2 366.4,271.2 366.6,271.2 366.8,271.2 367.0,271.2 367.2,271.2 367.4,271.2 367.6,271.2 367.9,271.2 368.1,271.2 368.3,271.2 368.5,271.2 368.7,271.2 368.9,264.1 369.1,264.1 369.3,266.2 369.5,266.2 369.7,266.2 369.9,266.2 370.1,266.2 370.3,266.2 370.5,266.2 370.7,269.7 371.0,269.7 371.2,266.2 371.4,266.2 371.6,266.2 371.8,266.2 372.0,266.2 372.2,266.2 372.4,266.2 372.6,266.2 372.8,266.2 373.0,266.2 373.2,266.2 373.4,266.2 373.6,266.2 373.9,266.2 374.1,267.2 374.3,267.2 374.5,267.2 374.7,267.2 374.9,267.2 375.1,268.6 375.3,268.6 375.5,268.6 375.7,268.6 375.9,268.6 376.1,268.6 376.3,268.6 376.5,268.6 376.8,268.6 377.0,268.6 377.2,268.6 377.4,268.6 377.6,268.6 377.8,268.6 378.0,268.6 378.2,268.6 378.4,268.6 378.6,268.6 378.8,266.5 379.0,266.9 379.2,266.9 379.4,266.9 379.7,266.9 379.9,266.9 380.1,266.9 380.3,266.9 380.5,267.2 380.7,267.2 380.9,269.0 381.1,267.2 381.3,267.2 381.5,267.7 381.7,267.7 381.9,267.7 382.1,267.7 382.3,267.7 382.5,267.7 382.8,267.7 383.0,267.7 383.2,269.0 383.4,269.0 383.6,269.0 383.8,269.0 384.0,269.0 384.2,269.0 384.4,269.0 384.6,269.0 384.8,269.0 385.0,269.0 385.2,269.0 385.4,269.0 385.7,269.0 385.9,269.0 386.1,269.0 386.3,269.0 386.5,269.0 386.7,269.0 386.9,269.0 387.1,269.0 387.3,269.0 387.5,269.0 387.7,269.0 387.9,269.0 388.1,266.2 388.3,266.2 388.6,266.2 388.8,266.2 389.0,267.2 389.2,267.2 389.4,267.2 389.6,267.2 389.8,267.2 390.0,267.2 390.2,267.2 390.4,267.2 390.6,267.2 390.8,267.2 391.0,267.2 391.2,267.2 391.5,267.2 391.7,267.2 391.9,267.2 392.1,267.2 392.3,267.2 392.5,267.2 392.7,267.2 392.9,267.2 393.1,276.9 393.3,276.9 393.5,276.9 393.7,276.9 393.9,276.9 394.1,276.9 394.4,276.9 394.6,276.9 394.8,276.9 395.0,276.9 395.2,276.9 395.4,276.9 395.6,276.9 395.8,276.9 396.0,276.9 396.2,276.9 396.4,276.9 396.6,276.9 396.8,276.9 397.0,276.9 397.2,276.9 397.5,276.9 397.7,276.9 397.9,276.9 398.1,276.9 398.3,276.9 398.5,276.9 398.7,276.9 398.9,276.9 399.1,272.6 399.3,283.4 399.5,283.4 399.7,277.3 399.9,277.3 400.1,276.5 400.4,276.5 400.6,276.5 400.8,276.5 401.0,276.5 401.2,276.5 401.4,276.5 401.6,276.5 401.8,276.5 402.0,276.5 402.2,274.5 402.4,274.5 402.6,274.5 402.8,274.5 403.0,274.5 403.3,274.5 403.5,274.5 403.7,274.5 403.9,274.5 404.1,269.7 404.3,269.7 404.5,269.7 404.7,269.7 404.9,269.7 405.1,270.4 405.3,263.8 405.5,263.8 405.7,263.8 405.9,263.7 406.2,263.7 406.4,263.7 406.6,263.7 406.8,263.7 407.0,263.7 407.2,267.2 407.4,267.2 407.6,267.2 407.8,267.2 408.0,267.2 408.2,267.2 408.4,267.2 408.6,267.2 408.8,267.2 409.1,267.2 409.3,267.2 409.5,267.2 409.7,267.2 409.9,267.2 410.1,267.2 410.3,267.2 410.5,267.2 410.7,267.2 410.9,269.3 411.1,269.3 411.3,269.3 411.5,269.3 411.7,278.4 411.9,276.9 412.2,276.5 412.4,276.5 412.6,276.5 412.8,276.5 413.0,276.5 413.2,270.8 413.4,277.6 413.6,277.6 413.8,276.1 414.0,276.1 414.2,276.1 414.4,276.1 414.6,276.1 414.8,276.1 415.1,276.1 415.3,276.1 415.5,276.1 415.7,276.1 415.9,276.1 416.1,276.1 416.3,276.1 416.5,276.1 416.7,276.1 416.9,276.1 417.1,276.1 417.3,272.6 417.5,272.6 417.7,272.6 418.0,272.6 418.2,272.6 418.4,272.6 418.6,272.6 418.8,272.6 419.0,277.3 419.2,278.4 419.4,278.4 419.6,278.4 419.8,278.4 420.0,278.4 420.2,278.4 420.4,278.4 420.6,278.4 420.9,278.4 421.1,278.4 421.3,278.4 421.5,278.4 421.7,278.4 421.9,278.4 422.1,278.4 422.3,278.4 422.5,278.4 422.7,278.4 422.9,278.4 423.1,278.4 423.3,281.3 423.5,284.7 423.7,278.7 424.0,280.5 424.2,280.5 424.4,280.5 424.6,280.5 424.8,278.4 425.0,278.4 425.2,279.3 425.4,273.8 425.6,278.4 425.8,280.1 426.0,280.1 426.2,280.1 426.4,280.1 426.6,280.1 426.9,280.1 427.1,281.7 427.3,281.7 427.5,280.1 427.7,280.1 427.9,280.1 428.1,280.1 428.3,280.1 428.5,279.7 428.7,279.7 428.9,279.7 429.1,279.7 429.3,279.7 429.5,279.7 429.8,279.7 430.0,279.7 430.2,279.7 430.4,279.1 430.6,279.1 430.8,279.1 431.0,279.1 431.2,279.1 431.4,278.4 431.6,279.3 431.8,279.3 432.0,279.3 432.2,278.4 432.4,278.4 432.7,278.4 432.9,278.4 433.1,278.4 433.3,278.4 433.5,278.4 433.7,278.4 433.9,278.4 434.1,279.3 434.3,279.3 434.5,279.3 434.7,279.1 434.9,279.3 435.1,279.3 435.3,279.3 435.6,279.3 435.8,279.3 436.0,279.3 436.2,279.3 436.4,279.3 436.6,279.3 436.8,279.3 437.0,279.3 437.2,279.3 437.4,279.3 437.6,279.3 437.8,279.3 438.0,279.3 438.2,279.3 438.4,279.3 438.7,279.3 438.9,279.7 439.1,280.5 439.3,283.9 439.5,284.7 439.7,284.7 439.9,284.7 440.1,284.7 440.3,284.7 440.5,284.7 440.7,284.7 440.9,286.0 441.1,286.0 441.3,290.1 441.6,290.1 441.8,290.1 442.0,284.7 442.2,284.7 442.4,289.6 442.6,288.7 442.8,291.0 443.0,286.9 443.2,286.9 443.4,286.9 443.6,286.9 443.8,286.9 444.0,286.9 444.2,286.9 444.5,286.9 444.7,286.9 444.9,286.9 445.1,289.2 445.3,289.2 445.5,289.2 445.7,289.2 445.9,287.8 446.1,289.2 446.3,289.2 446.5,289.2 446.7,289.2 446.9,287.8 447.1,286.9 447.4,289.2 447.6,289.2 447.8,289.2 448.0,289.2 448.2,289.2 448.4,288.7 448.6,288.7 448.8,288.7 449.0,288.7 449.2,289.0 449.4,289.0 449.6,289.0 449.8,288.7 450.0,288.7 450.3,288.7 450.5,288.0 450.7,288.0 450.9,288.0 451.1,288.0 451.3,288.0 451.5,288.0 451.7,288.0 451.9,288.0 452.1,287.4 452.3,287.4 452.5,287.4 452.7,287.4 452.9,287.4 453.1,287.4 453.4,286.9 453.6,286.9 453.8,286.9 454.0,291.0 454.2,291.0 454.4,291.0 454.6,291.0 454.8,291.0 455.0,291.0 455.2,288.7 455.4,288.7 455.6,286.9 455.8,286.9 456.0,286.9 456.3,280.5 456.5,280.1 456.7,280.1 456.9,279.3 457.1,279.3 457.3,278.4 457.5,278.4 457.7,274.1 457.9,273.0 458.1,273.0 458.3,272.6 458.5,272.4 458.7,273.0 458.9,273.0 459.2,273.0 459.4,278.4 459.6,278.4 459.8,278.4 460.0,277.0 460.2,277.0 460.4,270.8 460.6,270.8 460.8,271.4 461.0,271.9 461.2,271.9 461.4,271.9 461.6,271.9 461.8,270.8 462.1,270.8 462.3,271.5 462.5,271.5 462.7,271.5 462.9,271.5 463.1,271.5 463.3,271.5 463.5,272.1 463.7,272.1 463.9,272.1 464.1,272.1 464.3,272.3 464.5,270.8 464.7,272.3 464.9,272.3 465.2,272.3 465.4,270.8 465.6,270.8 465.8,270.8 466.0,275.3 466.2,276.1 466.4,278.4 466.6,282.6 466.8,285.2 467.0,285.6 467.2,286.9 467.4,286.9 467.6,285.6 467.8,286.9 468.1,286.9 468.3,278.4 468.5,278.4 468.7,278.4 468.9,278.4 469.1,278.4 469.3,278.4 469.5,278.4 469.7,278.4 469.9,278.4 470.1,278.4 470.3,286.5 470.5,286.5 470.7,280.5 471.0,278.4 471.2,278.4 471.4,278.4 471.6,278.4 471.8,278.4 472.0,277.0 472.2,277.0 472.4,270.8 472.6,270.8 472.8,270.8 473.0,270.8 473.2,270.8 473.4,270.8 473.6,270.8 473.9,270.8 474.1,270.8 474.3,274.5 474.5,274.5 474.7,274.5 474.9,274.5 475.1,274.5 475.3,274.5 475.5,274.5 475.7,270.8 475.9,270.8 476.1,270.8 476.3,270.8 476.5,270.8 476.8,270.8 477.0,270.8 477.2,270.8 477.4,270.8 477.6,270.8 477.8,270.8 478.0,270.8 478.2,270.8 478.4,270.8 478.6,270.8 478.8,270.8 479.0,272.6 479.2,270.8 479.4,270.8 479.6,270.8 479.9,270.8 480.1,270.8 480.3,270.8 480.5,270.8 480.7,270.8 480.9,270.8 481.1,270.8 481.3,270.8 481.5,267.2 481.7,270.8 481.9,270.8 482.1,270.8 482.3,270.8 482.5,270.8 482.8,270.8 483.0,270.8 483.2,260.5 483.4,260.5 483.6,260.5 483.8,270.8 484.0,270.8 484.2,270.8 484.4,270.8 484.6,270.8 484.8,270.8 485.0,270.8 485.2,270.8 485.4,270.8 485.7,270.8 485.9,270.8 486.1,270.8 486.3,270.8 486.5,270.8 486.7,260.5 486.9,260.5 487.1,260.5 487.3,264.5 487.5,264.5 487.7,264.5 487.9,264.5 488.1,270.8 488.3,270.8 488.6,270.8 488.8,269.3 489.0,269.3 489.2,267.2 489.4,267.2 489.6,265.5 489.8,265.5 490.0,265.5 490.2,260.5 490.4,260.5 490.6,260.5 490.8,260.5 491.0,260.5 491.2,265.5 491.5,265.5 491.7,265.5 491.9,265.5 492.1,265.5 492.3,260.5 492.5,260.5 492.7,260.5 492.9,260.5 493.1,260.5 493.3,260.5 493.5,270.8 493.7,269.0 493.9,263.8 494.1,263.8 494.3,263.8 494.6,263.8 494.8,263.8 495.0,263.8 495.2,262.1 495.4,264.5 495.6,265.1 495.8,265.1 496.0,263.8 496.2,263.8 496.4,263.8 496.6,263.8 496.8,263.8 497.0,262.1 497.2,265.5 497.5,265.5 497.7,266.5 497.9,266.5 498.1,266.5 498.3,270.8 498.5,270.8 498.7,270.8 498.9,270.8 499.1,270.8 499.3,270.8 499.5,270.8 499.7,270.8 499.9,267.2 500.1,267.2 500.4,267.2 500.6,267.2 500.8,267.2 501.0,267.2 501.2,267.2 501.4,267.2 501.6,267.2 501.8,267.2 502.0,270.8 502.2,270.8 502.4,270.8 502.6,270.8 502.8,270.8 503.0,270.8 503.3,270.8 503.5,270.8 503.7,270.8 503.9,270.8 504.1,270.8 504.3,270.8 504.5,270.8 504.7,270.8 504.9,270.8 505.1,270.8 505.3,270.8 505.5,270.8 505.7,270.8 505.9,272.3 506.1,272.3 506.4,272.3 506.6,272.3 506.8,272.3 507.0,272.3 507.2,272.3 507.4,272.3 507.6,272.3 507.8,272.3 508.0,272.3 508.2,272.3 508.4,272.3 508.6,257.4 508.8,257.7 509.0,255.9 509.3,255.9 509.5,255.9 509.7,255.9 509.9,255.9 510.1,255.8 510.3,255.8 510.5,255.8 510.7,255.8 510.9,255.8 511.1,255.8 511.3,260.8 511.5,260.8 511.7,260.8 511.9,260.8 512.2,260.8 512.4,260.8 512.6,260.8 512.8,260.8 513.0,260.8 513.2,265.1 513.4,265.1 513.6,265.1 513.8,255.8 514.0,255.8 514.2,255.8 514.4,255.8 514.6,255.8 514.8,255.8 515.1,255.8 515.3,252.8 515.5,252.8 515.7,252.8 515.9,252.8 516.1,252.8 516.3,252.8 516.5,252.8 516.7,252.8 516.9,252.8 517.1,252.8 517.3,252.8 517.5,252.8 517.7,252.8 518.0,252.8 518.2,252.8 518.4,252.8 518.6,252.8 518.8,252.8 519.0,252.8 519.2,252.8 519.4,252.8 519.6,227.9 519.8,227.5 520.0,232.3 520.2,232.3 520.4,232.3 520.6,232.3 520.8,232.3 521.1,232.3 521.3,232.3 521.5,233.9 521.7,233.9 521.9,233.9 522.1,233.9 522.3,233.9 522.5,233.9 522.7,233.9 522.9,233.9 523.1,233.9 523.3,233.9 523.5,233.9 523.7,233.9 524.0,233.9 524.2,233.9 524.4,233.9 524.6,233.9 524.8,233.9 525.0,233.9 525.2,233.9 525.4,233.9 525.6,233.9 525.8,233.9 526.0,245.8 526.2,245.8 526.4,245.8 526.6,233.9 526.9,233.9 527.1,233.9 527.3,233.9 527.5,233.9 527.7,233.9 527.9,233.9 528.1,233.9 528.3,233.9 528.5,233.9 528.7,233.9 528.9,239.3 529.1,239.3 529.3,243.2 529.5,243.2 529.8,243.2 530.0,243.2 530.2,243.2 530.4,243.2 530.6,250.0 530.8,245.8 531.0,239.4 531.2,239.7 531.4,239.7 531.6,240.2 531.8,240.0 532.0,240.0 532.2,240.0 532.4,240.0 532.7,240.0 532.9,239.7 533.1,239.7 533.3,240.7 533.5,240.7 533.7,240.7 533.9,237.2 534.1,237.2 534.3,237.2 534.5,237.2 534.7,237.5 534.9,237.5 535.1,240.6 535.3,240.6 535.5,240.6 535.8,240.6 536.0,240.6 536.2,242.8 536.4,245.3 536.6,251.4 536.8,251.4 537.0,257.4 537.2,257.4 537.4,263.8 537.6,269.0 537.8,269.0 538.0,260.5 538.2,253.1 538.4,247.5 538.7,247.5 538.9,247.5 539.1,247.5 539.3,247.5 539.5,247.5 539.7,247.5 539.9,247.5 540.1,247.5 540.3,247.5 540.5,247.5 540.7,247.5 540.9,247.5 541.1,247.5 541.3,247.5 541.6,247.5 541.8,247.5 542.0,247.5 542.2,247.5 542.4,247.5 542.6,247.5 542.8,247.5 543.0,247.5 543.2,251.1 543.4,251.1 543.6,251.1 543.8,251.1 544.0,251.1 544.2,251.1 544.5,251.1 544.7,255.8 544.9,254.3 545.1,254.3 545.3,269.0 545.5,267.2 545.7,265.6 545.9,267.2 546.1,269.0 546.3,268.3 546.5,274.5 546.7,274.5 546.9,272.6 547.1,272.6 547.4,272.6 547.6,271.5 547.8,269.0 548.0,269.0 548.2,274.5 548.4,270.8 548.6,270.4 548.8,270.4 549.0,270.4 549.2,270.4 549.4,270.4 549.6,269.0 549.8,270.8 550.0,270.8 550.2,270.8 550.5,270.8 550.7,270.8 550.9,270.8 551.1,270.8 551.3,270.8 551.5,270.8 551.7,269.2 551.9,269.2 552.1,260.5 552.3,260.5 552.5,260.5 552.7,257.4 552.9,251.4 553.1,251.4 553.4,251.4 553.6,254.9 553.8,255.5 554.0,255.5 554.2,255.5 554.4,255.5 554.6,255.8 554.8,255.8 555.0,255.8 555.2,255.8 555.4,255.8 555.6,252.0 555.8,252.0 556.0,252.0 556.3,252.0 556.5,252.0 556.7,245.8 556.9,247.2 557.1,247.2 557.3,247.2 557.5,246.9 557.7,246.9 557.9,244.5 558.1,241.9 558.3,243.2 558.5,244.0 558.7,244.0 558.9,243.7 559.2,243.7 559.4,243.2 559.6,243.6 559.8,243.6 560.0,243.6 560.2,242.6 560.4,242.6 560.6,242.6 560.8,242.6 561.0,241.2 561.2,242.4 561.4,238.2 561.6,238.2 561.8,241.9 562.0,242.4 562.3,242.7 562.5,242.7 562.7,242.7 562.9,242.7 563.1,242.7 563.3,242.7 563.5,242.7 563.7,242.7 563.9,242.7 564.1,242.7 564.3,242.7 564.5,242.7 564.7,242.7 564.9,242.7 565.2,237.0 565.4,237.0 565.6,222.7 565.8,222.7 566.0,222.7 566.2,227.9 566.4,227.9 566.6,227.9 566.8,227.9 567.0,227.9 567.2,227.9 567.4,227.9 567.6,227.9 567.8,227.9 568.1,237.0 568.3,237.0 568.5,237.0 568.7,242.4 568.9,232.3 569.1,237.0 569.3,235.2 569.5,235.2 569.7,235.2 569.9,235.8 570.1,235.8 570.3,235.8 570.5,235.8 570.7,235.8 571.0,235.8 571.2,235.8 571.4,235.8 571.6,235.8 571.8,235.8 572.0,235.8 572.2,235.8 572.4,235.8 572.6,227.9 572.8,227.9 573.0,226.8 573.2,241.9 573.4,241.9 573.6,241.9 573.9,241.2 574.1,241.2 574.3,241.2 574.5,241.2 574.7,241.2 574.9,240.4 575.1,240.6 575.3,240.6 575.5,240.6 575.7,239.4 575.9,239.4 576.1,240.7 576.3,239.4 576.5,239.4 576.7,239.4 577.0,240.2 577.2,239.4 577.4,241.7 577.6,241.7 577.8,241.7 578.0,241.7 578.2,240.7 578.4,240.7 578.6,240.7 578.8,240.7 579.0,240.7 579.2,238.4 579.4,241.6 579.6,241.6 579.9,241.6 580.1,239.4 580.3,239.4 580.5,239.4 580.7,241.9 580.9,241.9 581.1,241.9 581.3,241.9 581.5,242.2 581.7,242.4 581.9,242.4 582.1,242.4 582.3,242.4 582.5,241.9 582.8,241.9 583.0,241.9 583.2,239.4 583.4,238.2 583.6,239.7 583.8,242.7 584.0,243.5 584.2,242.7 584.4,243.5 584.6,243.5 584.8,243.5 585.0,243.5 585.2,243.5 585.4,243.5 585.7,243.5 585.9,243.5 586.1,243.5 586.3,243.5 586.5,243.5 586.7,243.5 586.9,243.5 587.1,243.5 587.3,243.5 587.5,243.5 587.7,243.5 587.9,243.5 588.1,243.5 588.3,243.5 588.6,243.5 588.8,243.5 589.0,243.5 589.2,243.5 589.4,239.9 589.6,239.9 589.8,239.9 590.0,239.9 590.2,239.9 590.4,239.9 590.6,239.9 590.8,239.9 591.0,239.9 591.2,239.9 591.4,239.9 591.7,239.9 591.9,239.9 592.1,239.9 592.3,239.9 592.5,239.9 592.7,239.9 592.9,240.7 593.1,240.7 593.3,240.7 593.5,240.7 593.7,240.7 593.9,240.7 594.1,240.7 594.3,240.7 594.6,240.7 594.8,240.7 595.0,240.7 595.2,240.7 595.4,240.7 595.6,240.7 595.8,239.4 596.0,240.7 596.2,240.7 596.4,240.7 596.6,240.7 596.8,240.7 597.0,240.7 597.2,240.7 597.5,240.7 597.7,240.7 597.9,240.7 598.1,240.7 598.3,240.7 598.5,240.7 598.7,240.7 598.9,244.0 599.1,244.0 599.3,245.0 599.5,245.0 599.7,245.0 599.9,245.0 600.1,245.0 600.4,245.0 600.6,239.4 600.8,239.4 601.0,239.4 601.2,239.4 601.4,234.6 601.6,234.6 601.8,234.6 602.0,234.6 602.2,234.6 602.4,234.6 602.6,234.6 602.8,233.7 603.0,233.7 603.2,233.7 603.5,233.7 603.7,233.7 603.9,233.7 604.1,233.7 604.3,233.7 604.5,233.7 604.7,233.7 604.9,233.7 605.1,233.7 605.3,233.7 605.5,235.8 605.7,235.8 605.9,235.5 606.1,235.5 606.4,235.5 606.6,233.5 606.8,233.5 607.0,233.5 607.2,233.5 607.4,233.5 607.6,233.5 607.8,233.5 608.0,233.5 608.2,233.5 608.4,233.5 608.6,233.5 608.8,233.5 609.0,233.5 609.3,233.5 609.5,233.5 609.7,233.5 609.9,233.5 610.1,233.5 610.3,233.5 610.5,233.5 610.7,233.5 610.9,233.5 611.1,233.5 611.3,233.5 611.5,233.5 611.7,233.5 611.9,233.5 612.2,233.5 612.4,233.5 612.6,232.3 612.8,232.3 613.0,235.1 613.2,235.1 613.4,235.1 613.6,235.1 613.8,235.1 614.0,235.1 614.2,233.5 614.4,229.4 614.6,229.0 614.8,229.0 615.1,229.0 615.3,229.0 615.5,228.3 615.7,227.9 615.9,218.8 616.1,218.8 616.3,213.2 616.5,212.4 616.7,204.8 616.9,204.8 617.1,210.6 617.3,222.7 617.5,222.7 617.7,204.8 617.9,204.8 618.2,204.8 618.4,204.8 618.6,205.6 618.8,205.6 619.0,205.6 619.2,204.8 619.4,204.0 619.6,204.0 619.8,204.0 620.0,204.0 620.2,204.8 620.4,204.8 620.6,204.8 620.8,204.8 621.1,204.8 621.3,197.9 621.5,204.8 621.7,204.8 621.9,197.1 622.1,197.1 622.3,197.1 622.5,200.9 622.7,200.9 622.9,200.9 623.1,200.9 623.3,204.8 623.5,204.8 623.7,204.8 624.0,204.8 624.2,198.6 624.4,197.8 624.6,197.8 624.8,197.8 625.0,197.8 625.2,200.1 625.4,200.9 625.6,200.9 625.8,200.9 626.0,200.9 626.2,199.3 626.4,199.3 626.6,202.4 626.9,199.3 627.1,199.3 627.3,199.3 627.5,199.3 627.7,199.3 627.9,199.3 628.1,199.3 628.3,199.3 628.5,199.5 628.7,201.6 628.9,201.6 629.1,201.6 629.3,201.6 629.5,199.3 629.8,199.3 630.0,199.3 630.2,199.3 630.4,199.3 630.6,199.3 630.8,199.3 631.0,201.6 631.2,201.6 631.4,201.6 631.6,201.6 631.8,201.6 632.0,200.5 632.2,200.5 632.4,200.5 632.6,200.5 632.9,200.5 633.1,201.6 633.3,201.6 633.5,201.6 633.7,201.6 633.9,201.6 634.1,201.6 634.3,201.6 634.5,201.6 634.7,204.8 634.9,204.8 635.1,202.4 635.3,202.4 635.5,202.4 635.8,202.4 636.0,202.4 636.2,202.2 636.4,202.4 636.6,201.8 636.8,201.8 637.0,201.8 637.2,201.6 637.4,201.9 637.6,201.7 637.8,202.1 638.0,202.1 638.2,202.1 638.4,201.6 638.7,201.6 638.9,201.6 639.1,201.6 639.3,201.6 639.5,201.6 639.7,202.1 639.9,202.0 640.1,201.6 640.3,202.1 640.5,202.1 640.7,202.1 640.9,202.1 641.1,202.1 641.3,202.1 641.6,201.6 641.8,201.6 642.0,201.6 642.2,201.6 642.4,201.6 642.6,201.6 642.8,201.6 643.0,202.2 643.2,202.2 643.4,202.2 643.6,202.2 643.8,202.4 644.0,202.4 644.2,202.4 644.4,202.4 644.7,201.6 644.9,200.1 645.1,200.1 645.3,200.1 645.5,202.4 645.7,202.4 645.9,202.4 646.1,200.5 646.3,200.3 646.5,200.9 646.7,202.4 646.9,202.4 647.1,202.4 647.3,202.4 647.6,201.8 647.8,201.6 648.0,200.1 648.2,200.1 648.4,200.1 648.6,200.1 648.8,200.1 649.0,200.1 649.2,200.9 649.4,200.9 649.6,201.6 649.8,201.6 650.0,201.6 650.2,201.6 650.5,202.4 650.7,202.4 650.9,202.4 651.1,202.4 651.3,202.4 651.5,202.4 651.7,202.4 651.9,202.4 652.1,202.4 652.3,202.4 652.5,202.4 652.7,200.9 652.9,202.4 653.1,202.4 653.4,202.4 653.6,202.4 653.8,203.2 654.0,203.2 654.2,204.8 654.4,202.4 654.6,202.4 654.8,202.4 655.0,204.0 655.2,204.0 655.4,204.0 655.6,204.0 655.8,204.0 656.0,204.0 656.3,204.0 656.5,204.0 656.7,204.0 656.9,204.0 657.1,204.0 657.3,204.0 657.5,201.6 657.7,201.6 657.9,201.6 658.1,201.6 658.3,201.6 658.5,201.6 658.7,201.6 658.9,200.2 659.1,200.2 659.4,200.2 659.6,200.2 659.8,200.2 660.0,200.2 660.2,200.2 660.4,200.2 660.6,200.2 660.8,200.2 661.0,193.5 661.2,193.5 661.4,197.7 661.6,199.0 661.8,199.0 662.0,199.0 662.3,199.0 662.5,192.4 662.7,192.4 662.9,192.4 663.1,192.4 663.3,190.1 663.5,190.1 663.7,179.5 663.9,179.5 664.1,180.6 664.3,179.5 664.5,179.5 664.7,179.5 664.9,179.5 665.2,179.5 665.4,179.5 665.6,179.5 665.8,179.5 666.0,178.3 666.2,178.3 666.4,179.5 666.6,185.6 666.8,185.6 667.0,185.6 667.2,185.6 667.4,180.6 667.6,180.6 667.8,180.6 668.1,180.6 668.3,180.6 668.5,180.1 668.7,180.1 668.9,180.1 669.1,180.1 669.3,180.3 669.5,182.2 669.7,182.2 669.9,180.4 670.1,180.4 670.3,180.4 670.5,180.4 670.7,180.4 671.0,180.4 671.2,180.4 671.4,180.4 671.6,180.6 671.8,180.6 672.0,180.6 672.2,180.6 672.4,180.6 672.6,180.6 672.8,180.6 673.0,180.6 673.2,180.6 673.4,180.6 673.6,180.6 673.8,180.6 674.1,180.6 674.3,180.6 674.5,180.6 674.7,182.0 674.9,182.0 675.1,182.0 675.3,182.0 675.5,182.0 675.7,182.0 675.9,190.1 676.1,193.5 676.3,193.5 676.5,190.1 676.7,190.1 677.0,190.1 677.2,188.1 677.4,190.0 677.6,190.2 677.8,190.2 678.0,190.2 678.2,190.1 678.4,190.1 678.6,190.1 678.8,190.5 679.0,190.5 679.2,190.5 679.4,192.2 679.6,192.8 679.9,192.8 680.1,192.8 680.3,192.8 680.5,192.8 680.7,192.8 680.9,190.1 681.1,190.1 681.3,190.1 681.5,190.5 681.7,190.5 681.9,190.5 682.1,190.5 682.3,191.5 682.5,192.5 682.8,192.4 683.0,192.4 683.2,192.4 683.4,191.0 683.6,192.0 683.8,191.7 684.0,191.6 684.2,190.1 684.4,190.3 684.6,190.3 684.8,190.3 685.0,190.3 685.2,190.3 685.4,190.8 685.6,190.3 685.9,190.1 686.1,190.1 686.3,190.1 686.5,190.1 686.7,190.1 686.9,190.1 687.1,191.7 687.3,191.7 687.5,192.2 687.7,193.5 687.9,192.8 688.1,193.0 688.3,193.0 688.5,194.2 688.8,196.3 689.0,194.2 689.2,195.7 689.4,195.7 689.6,195.7 689.8,195.7 690.0,196.3 690.2,196.4 690.4,196.2 690.6,196.4 690.8,196.4 691.0,196.4 691.2,194.8 691.4,193.5 691.7,193.5 691.9,193.5 692.1,193.5 692.3,193.5 692.5,192.9 692.7,192.9 692.9,192.2 693.1,192.2 693.3,192.2 693.5,192.2 693.7,195.0 693.9,195.0 694.1,195.0 694.3,195.0 694.6,192.8 694.8,192.8 695.0,192.8 695.2,194.9 695.4,195.7 695.6,195.7 695.8,194.6 696.0,194.6 696.2,194.6 696.4,194.6 696.6,194.2 696.8,192.8 697.0,192.8 697.2,192.8 697.5,192.8 697.7,192.8 697.9,192.8 698.1,192.8 698.3,192.8 698.5,192.8 698.7,192.8 698.9,192.8 699.1,187.0 699.3,186.8 699.5,186.8 699.7,187.5 699.9,186.8 700.1,186.8 700.3,187.5 700.6,187.5 700.8,190.1 701.0,190.1 701.2,189.1 701.4,189.5 701.6,189.5 701.8,189.5 702.0,187.5 702.2,187.5 702.4,187.5 702.6,187.5 702.8,184.9 703.0,184.9 703.2,186.3 703.5,186.2 703.7,186.2 703.9,186.2 704.1,186.2 704.3,186.2 704.5,183.7 704.7,181.7 704.9,178.3 705.1,178.3 705.3,178.3 705.5,178.6 705.7,178.6 705.9,172.2 706.1,167.0 706.4,167.0 706.6,167.0 706.8,169.0 707.0,169.0 707.2,169.0 707.4,169.0 707.6,169.0 707.8,169.0 708.0,169.0 708.2,169.0 708.4,169.0 708.6,169.0 708.8,164.5 709.0,164.5 709.3,164.5 709.5,164.5 709.7,164.5 709.9,164.5 710.1,168.2 710.3,167.0 710.5,169.5 710.7,169.5 710.9,169.5 711.1,169.5 711.3,169.5 711.5,169.5 711.7,169.5 711.9,169.5 712.2,169.5 712.4,169.5 712.6,169.5 712.8,169.5 713.0,169.5 713.2,164.5 713.4,167.0 713.6,167.0 713.8,166.4 714.0,166.4 714.2,167.0 714.4,164.5 714.6,164.5 714.8,162.6 715.0,158.0 715.3,158.0 715.5,158.0 715.7,167.0 715.9,167.0 716.1,167.0 716.3,167.0 716.5,167.0 716.7,164.0 716.9,164.0 717.1,164.0 717.3,163.1 717.5,163.1 717.7,161.6 717.9,161.6 718.2,157.5 718.4,155.8 718.6,154.0 718.8,154.0 719.0,154.6 719.2,154.6 719.4,154.9 719.6,154.9 719.8,154.9 720.0,154.0 720.2,153.2 720.4,153.2 720.6,153.2 720.8,153.2 721.1,154.0 721.3,154.0 721.5,154.0 721.7,153.2 721.9,153.2 722.1,149.0 722.3,152.9 722.5,152.9 722.7,153.2 722.9,152.9 723.1,149.1 723.3,149.1 723.5,153.2 723.7,153.2 724.0,154.4 724.2,154.4 724.4,154.4 724.6,148.2 724.8,148.2 725.0,145.1 725.2,145.1 725.4,145.1 725.6,145.1 725.8,145.1 726.0,145.1 726.2,145.1 726.4,149.0 726.6,149.0 726.9,149.0 727.1,152.5 727.3,145.1 727.5,141.4 727.7,141.4 727.9,141.4 728.1,145.9 728.3,141.4 728.5,141.4 728.7,136.1 728.9,136.1 729.1,136.1 729.3,136.1 729.5,137.5 729.7,136.1 730.0,136.1 730.2,141.4 730.4,136.1 730.6,136.1 730.8,137.8 731.0,137.8 731.2,145.1 731.4,141.4 731.6,142.9 731.8,143.2 732.0,144.5 732.2,144.5 732.4,149.0 732.6,145.6 732.9,145.6 733.1,145.8 733.3,145.8 733.5,145.8 733.7,140.7 733.9,137.8 734.1,137.5 734.3,138.8 734.5,138.2 734.7,138.1 734.9,138.1 735.1,137.8 735.3,141.4 735.5,137.8 735.8,137.8 736.0,137.8 736.2,144.0 736.4,144.0 736.6,144.0 736.8,144.0 737.0,146.7 737.2,146.3 737.4,145.1 737.6,146.7 737.8,146.7 738.0,146.7 738.2,146.9 738.4,145.5 738.7,145.9 738.9,141.4 739.1,141.4 739.3,141.4 739.5,139.2 739.7,141.4 739.9,144.7 740.1,144.7 740.3,146.7 740.5,146.7 740.7,145.1 740.9,145.1 741.1,145.1 741.3,145.1 741.5,145.9 741.8,145.9 742.0,145.9 742.2,145.9 742.4,145.5 742.6,145.5 742.8,149.0 743.0,149.0 743.2,149.0 743.4,149.0 743.6,145.1 743.8,144.4 744.0,144.4 744.2,144.4 744.4,144.4 744.7,144.4 744.9,145.6 745.1,144.4 745.3,144.4 745.5,144.4 745.7,141.4 745.9,143.2 746.1,140.7 746.3,141.4 746.5,146.4 746.7,144.7 746.9,143.6 747.1,143.6 747.3,143.6 747.6,143.6 747.8,141.4 748.0,141.4 748.2,140.7 748.4,140.7 748.6,141.9 748.8,141.4 749.0,140.7 749.2,141.4 749.4,142.0 749.6,142.0 749.8,140.7 750.0,142.9 750.2,142.9 750.5,140.7 750.7,136.1 750.9,136.1 751.1,136.1 751.3,137.8 751.5,137.8 751.7,137.8 751.9,138.9 752.1,138.4 752.3,138.4 752.5,138.4 752.7,139.9 752.9,139.6 753.1,139.6 753.4,139.6 753.6,139.6 753.8,139.6 754.0,139.6 754.2,139.6 754.4,137.8 754.6,137.8 754.8,137.8 755.0,137.8 755.2,139.6 755.4,133.0 755.6,131.8 755.8,128.0 756.0,128.0 756.2,128.0 756.5,128.0 756.7,128.0 756.9,128.0 757.1,127.0 757.3,127.0 757.5,128.0 757.7,127.0 757.9,130.5 758.1,127.0 758.3,128.0 758.5,128.0 758.7,128.6 758.9,135.8 759.1,128.0 759.4,128.0 759.6,128.0 759.8,127.0 760.0,128.5 760.2,128.0 760.4,128.0 760.6,128.0 760.8,127.3 761.0,127.3 761.2,127.3 761.4,127.3 761.6,129.5 761.8,126.4 762.0,126.4 762.3,129.5 762.5,128.0 762.7,128.0 762.9,128.0 763.1,128.0 763.3,122.0 763.5,120.6 763.7,120.6 763.9,121.1 764.1,121.4 764.3,121.7 764.5,122.0 764.7,122.0 764.9,121.1 765.2,121.1 765.4,121.1 765.6,121.1 765.8,120.6 766.0,113.8 766.2,120.6 766.4,111.3 766.6,111.3 766.8,111.3 767.0,109.8 767.2,108.8 767.4,108.8 767.6,110.3 767.8,110.3 768.1,110.3 768.3,110.3 768.5,110.3 768.7,110.4 768.9,110.8 769.1,110.8 769.3,108.8 769.5,110.0 769.7,108.8 769.9,107.6 770.1,106.4 770.3,105.2 770.5,104.1 770.7,104.1 770.9,102.9 771.2,97.4 771.4,96.4 771.6,95.4 771.8,95.4 772.0,93.3 772.2,93.7 772.4,92.1 772.6,94.3 772.8,95.1 773.0,92.9 773.2,97.4 773.4,97.4 773.6,97.4 773.8,99.6 774.1,97.4 774.3,101.8 774.5,95.6 774.7,96.4 774.9,95.6 775.1,95.6 775.3,95.6 775.5,99.6 775.7,99.6 775.9,96.6 776.1,97.4 776.3,94.7 776.5,95.4 776.7,95.4 777.0,93.0 777.2,92.9 777.4,92.1 777.6,91.3 777.8,92.1 778.0,91.3 778.2,91.3 778.4,91.3 778.6,92.9 778.8,91.3 779.0,91.3 779.2,91.3 779.4,92.1 779.6,91.3 779.9,93.3 780.1,92.1 780.3,92.3 780.5,91.3 780.7,90.9 780.9,90.9 781.1,94.3 781.3,93.3 781.5,89.4 781.7,89.4 781.9,89.4 782.1,89.4 782.3,89.6 782.5,88.4 782.7,93.3 783.0,93.3 783.2,91.9 783.4,93.3 783.6,91.9 783.8,92.5 784.0,93.3 784.2,91.3 784.4,91.7 784.6,93.3 784.8,91.7 785.0,91.7 785.2,91.3 785.4,87.7 785.6,87.7 785.9,91.5 786.1,89.2 786.3,89.4 786.5,89.4 786.7,88.4 786.9,87.9 787.1,87.9 787.3,88.6 787.5,87.5 787.7,88.3 787.9,87.5 788.1,90.4 788.3,87.9 788.5,87.9 788.8,87.5 789.0,85.7 789.2,85.7 789.4,85.7 789.6,84.7 789.8,85.7 790.0,85.7 790.2,85.7 790.4,82.5 790.6,82.1 790.8,84.7 791.0,87.6 791.2,91.5 791.4,86.6 791.7,82.1 791.9,82.1 792.1,81.2 792.3,80.3 792.5,80.3 792.7,80.3 792.9,80.7 793.1,80.3 793.3,79.5 793.5,79.5 793.7,78.7 793.9,77.8 794.1,77.3 794.3,77.3 794.6,77.3 794.8,77.8 795.0,78.0 795.2,78.0 795.4,80.2 795.6,78.9 795.8,78.7 796.0,78.7"/><polyline fill="none" stroke="#16a34a" stroke-width="3" points="78.0,313.1 78.2,313.1 78.4,313.1 78.6,313.1 78.8,313.1 79.0,313.1 79.2,313.1 79.4,313.1 79.7,313.1 79.9,313.1 80.1,313.1 80.3,313.1 80.5,313.1 80.7,313.1 80.9,313.1 81.1,313.1 81.3,313.1 81.5,313.1 81.7,313.1 81.9,313.1 82.1,315.3 82.3,315.3 82.6,315.3 82.8,315.3 83.0,315.3 83.2,315.3 83.4,315.3 83.6,315.3 83.8,317.5 84.0,317.5 84.2,317.5 84.4,316.6 84.6,316.6 84.8,316.6 85.0,316.6 85.2,317.4 85.5,317.4 85.7,315.3 85.9,315.3 86.1,315.3 86.3,315.3 86.5,315.3 86.7,315.3 86.9,315.3 87.1,315.3 87.3,313.7 87.5,313.7 87.7,316.2 87.9,316.2 88.1,316.2 88.4,313.7 88.6,313.7 88.8,313.7 89.0,313.7 89.2,313.7 89.4,313.7 89.6,313.7 89.8,313.7 90.0,313.7 90.2,316.9 90.4,316.9 90.6,316.9 90.8,316.9 91.0,316.9 91.3,313.1 91.5,313.7 91.7,313.7 91.9,313.7 92.1,313.7 92.3,313.7 92.5,311.3 92.7,311.3 92.9,311.3 93.1,311.3 93.3,313.1 93.5,313.1 93.7,308.9 93.9,308.9 94.1,308.9 94.4,313.1 94.6,313.1 94.8,313.1 95.0,313.1 95.2,313.1 95.4,313.1 95.6,313.1 95.8,313.1 96.0,313.1 96.2,313.1 96.4,313.1 96.6,313.1 96.8,311.3 97.0,311.3 97.3,311.3 97.5,311.3 97.7,311.3 97.9,311.3 98.1,307.7 98.3,307.7 98.5,307.7 98.7,307.7 98.9,307.7 99.1,307.7 99.3,307.7 99.5,307.7 99.7,307.7 99.9,307.7 100.2,307.7 100.4,307.7 100.6,307.7 100.8,307.7 101.0,307.7 101.2,307.7 101.4,307.7 101.6,307.7 101.8,307.7 102.0,307.7 102.2,307.7 102.4,314.3 102.6,314.3 102.8,312.5 103.1,312.5 103.3,312.5 103.5,312.5 103.7,312.5 103.9,310.1 104.1,310.1 104.3,310.1 104.5,310.1 104.7,310.1 104.9,310.1 105.1,310.1 105.3,310.1 105.5,310.1 105.7,310.1 105.9,310.1 106.2,310.1 106.4,310.1 106.6,310.1 106.8,310.1 107.0,310.1 107.2,310.1 107.4,310.1 107.6,310.1 107.8,310.1 108.0,310.1 108.2,310.1 108.4,310.1 108.6,310.1 108.8,310.1 109.1,310.1 109.3,310.1 109.5,310.1 109.7,310.1 109.9,310.1 110.1,310.1 110.3,310.1 110.5,310.1 110.7,310.1 110.9,310.1 111.1,310.1 111.3,310.1 111.5,310.1 111.7,310.1 112.0,310.1 112.2,310.1 112.4,310.1 112.6,310.1 112.8,310.1 113.0,310.1 113.2,310.1 113.4,310.1 113.6,310.1 113.8,310.1 114.0,310.1 114.2,310.1 114.4,310.1 114.6,310.1 114.9,310.1 115.1,310.1 115.3,310.1 115.5,310.1 115.7,310.1 115.9,310.1 116.1,310.1 116.3,310.1 116.5,310.1 116.7,310.1 116.9,310.1 117.1,310.1 117.3,310.1 117.5,310.1 117.8,310.1 118.0,310.1 118.2,310.1 118.4,310.1 118.6,310.1 118.8,311.3 119.0,311.3 119.2,311.3 119.4,310.1 119.6,310.1 119.8,310.1 120.0,310.1 120.2,310.1 120.4,310.1 120.6,310.1 120.9,310.1 121.1,310.1 121.3,310.1 121.5,310.1 121.7,309.5 121.9,309.5 122.1,310.8 122.3,310.8 122.5,310.8 122.7,310.8 122.9,310.8 123.1,310.8 123.3,310.8 123.5,310.8 123.8,310.8 124.0,310.8 124.2,310.8 124.4,310.8 124.6,310.8 124.8,310.8 125.0,310.8 125.2,310.0 125.4,293.9 125.6,293.9 125.8,293.9 126.0,293.9 126.2,293.9 126.4,293.9 126.7,310.0 126.9,310.0 127.1,310.0 127.3,310.0 127.5,310.0 127.7,310.0 127.9,310.0 128.1,310.0 128.3,310.0 128.5,310.0 128.7,310.0 128.9,310.0 129.1,310.0 129.3,310.0 129.6,310.0 129.8,310.0 130.0,310.0 130.2,310.0 130.4,310.0 130.6,310.0 130.8,310.0 131.0,310.0 131.2,310.0 131.4,310.0 131.6,310.0 131.8,310.0 132.0,310.0 132.2,310.0 132.5,310.0 132.7,310.0 132.9,310.0 133.1,310.0 133.3,310.0 133.5,310.0 133.7,310.0 133.9,310.0 134.1,310.0 134.3,310.0 134.5,310.0 134.7,310.0 134.9,310.0 135.1,310.0 135.3,310.0 135.6,310.0 135.8,310.0 136.0,310.0 136.2,310.0 136.4,310.0 136.6,310.0 136.8,310.0 137.0,310.0 137.2,310.0 137.4,310.0 137.6,310.0 137.8,310.0 138.0,310.0 138.2,304.3 138.5,304.3 138.7,304.3 138.9,304.3 139.1,304.3 139.3,304.3 139.5,304.3 139.7,304.3 139.9,304.3 140.1,304.3 140.3,304.3 140.5,304.3 140.7,304.3 140.9,304.3 141.1,304.3 141.4,304.3 141.6,304.3 141.8,304.3 142.0,304.3 142.2,304.3 142.4,304.3 142.6,304.3 142.8,304.3 143.0,304.3 143.2,304.3 143.4,304.3 143.6,304.3 143.8,304.3 144.0,304.3 144.3,304.3 144.5,304.3 144.7,304.3 144.9,304.3 145.1,304.3 145.3,304.3 145.5,304.3 145.7,304.3 145.9,304.3 146.1,304.3 146.3,304.3 146.5,304.3 146.7,304.3 146.9,304.3 147.1,304.3 147.4,304.3 147.6,304.3 147.8,304.3 148.0,304.3 148.2,289.2 148.4,289.2 148.6,289.2 148.8,289.2 149.0,289.2 149.2,289.2 149.4,289.2 149.6,289.2 149.8,289.2 150.0,289.2 150.3,289.2 150.5,289.2 150.7,289.2 150.9,289.2 151.1,289.2 151.3,309.4 151.5,309.4 151.7,309.4 151.9,309.4 152.1,309.4 152.3,309.4 152.5,309.4 152.7,309.4 152.9,309.4 153.2,309.4 153.4,309.4 153.6,307.1 153.8,307.1 154.0,307.1 154.2,307.1 154.4,293.9 154.6,293.9 154.8,293.9 155.0,301.6 155.2,301.6 155.4,301.6 155.6,301.6 155.8,296.4 156.1,296.4 156.3,304.3 156.5,304.3 156.7,304.3 156.9,304.3 157.1,304.3 157.3,301.6 157.5,301.6 157.7,297.9 157.9,297.4 158.1,297.4 158.3,297.4 158.5,297.4 158.7,297.4 159.0,297.4 159.2,297.4 159.4,297.4 159.6,297.4 159.8,297.4 160.0,297.4 160.2,297.4 160.4,297.4 160.6,297.4 160.8,297.4 161.0,297.4 161.2,297.4 161.4,297.4 161.6,297.4 161.8,294.9 162.1,294.9 162.3,294.9 162.5,294.9 162.7,294.9 162.9,294.9 163.1,294.9 163.3,294.9 163.5,294.9 163.7,294.9 163.9,294.9 164.1,296.9 164.3,296.9 164.5,295.4 164.7,295.4 165.0,295.4 165.2,295.4 165.4,295.4 165.6,295.4 165.8,295.4 166.0,295.4 166.2,295.4 166.4,295.4 166.6,295.4 166.8,296.4 167.0,296.4 167.2,296.4 167.4,296.4 167.6,296.4 167.9,296.4 168.1,296.4 168.3,296.4 168.5,296.4 168.7,292.5 168.9,292.5 169.1,292.5 169.3,292.5 169.5,292.5 169.7,292.5 169.9,292.5 170.1,292.5 170.3,292.5 170.5,292.5 170.8,292.5 171.0,292.5 171.2,289.2 171.4,289.2 171.6,289.2 171.8,289.2 172.0,289.2 172.2,289.2 172.4,289.2 172.6,289.2 172.8,289.2 173.0,289.2 173.2,289.2 173.4,289.2 173.7,289.2 173.9,289.2 174.1,289.2 174.3,289.2 174.5,289.2 174.7,289.2 174.9,289.2 175.1,289.2 175.3,289.2 175.5,289.2 175.7,289.2 175.9,289.2 176.1,276.5 176.3,276.5 176.5,276.5 176.8,276.5 177.0,276.5 177.2,276.5 177.4,276.5 177.6,276.5 177.8,276.5 178.0,276.5 178.2,277.3 178.4,277.6 178.6,277.6 178.8,277.6 179.0,278.4 179.2,277.3 179.4,277.3 179.7,277.3 179.9,278.4 180.1,278.0 180.3,278.0 180.5,278.0 180.7,278.0 180.9,278.0 181.1,278.0 181.3,281.3 181.5,281.3 181.7,281.3 181.9,281.3 182.1,281.3 182.3,281.3 182.6,281.3 182.8,281.3 183.0,281.3 183.2,281.3 183.4,281.3 183.6,281.3 183.8,281.3 184.0,281.3 184.2,281.3 184.4,281.3 184.6,281.3 184.8,281.3 185.0,289.2 185.2,289.2 185.5,289.2 185.7,289.2 185.9,289.2 186.1,289.2 186.3,289.2 186.5,289.2 186.7,289.2 186.9,289.2 187.1,289.2 187.3,289.2 187.5,289.2 187.7,289.2 187.9,289.2 188.1,289.2 188.4,289.2 188.6,289.2 188.8,289.2 189.0,289.2 189.2,289.2 189.4,289.2 189.6,289.2 189.8,289.2 190.0,289.2 190.2,289.2 190.4,289.2 190.6,289.2 190.8,289.2 191.0,289.2 191.2,289.2 191.5,289.2 191.7,289.2 191.9,289.2 192.1,289.2 192.3,289.2 192.5,284.7 192.7,284.7 192.9,284.7 193.1,284.7 193.3,284.7 193.5,280.5 193.7,280.5 193.9,280.5 194.1,280.5 194.4,280.5 194.6,280.7 194.8,280.7 195.0,280.5 195.2,280.5 195.4,280.5 195.6,280.5 195.8,280.5 196.0,280.5 196.2,280.5 196.4,280.5 196.6,280.5 196.8,280.5 197.0,280.5 197.3,280.5 197.5,280.5 197.7,280.5 197.9,280.5 198.1,280.5 198.3,280.5 198.5,281.7 198.7,281.7 198.9,281.7 199.1,281.7 199.3,284.7 199.5,288.7 199.7,288.7 199.9,288.7 200.2,288.7 200.4,281.7 200.6,304.3 200.8,289.2 201.0,289.2 201.2,289.2 201.4,289.2 201.6,288.7 201.8,289.2 202.0,289.2 202.2,289.2 202.4,289.2 202.6,289.2 202.8,289.2 203.0,293.9 203.3,293.9 203.5,293.9 203.7,293.9 203.9,293.9 204.1,293.9 204.3,293.9 204.5,293.9 204.7,293.9 204.9,293.9 205.1,293.9 205.3,293.9 205.5,291.5 205.7,291.5 205.9,291.5 206.2,291.5 206.4,291.5 206.6,291.5 206.8,291.5 207.0,291.5 207.2,291.5 207.4,291.5 207.6,291.5 207.8,291.0 208.0,291.0 208.2,291.0 208.4,291.5 208.6,291.5 208.8,291.5 209.1,291.5 209.3,291.5 209.5,291.5 209.7,291.5 209.9,291.5 210.1,291.5 210.3,291.5 210.5,291.5 210.7,291.5 210.9,291.5 211.1,291.5 211.3,291.5 211.5,291.5 211.7,291.5 212.0,291.5 212.2,291.5 212.4,291.5 212.6,291.5 212.8,291.5 213.0,291.5 213.2,291.5 213.4,291.5 213.6,291.5 213.8,291.5 214.0,291.5 214.2,291.5 214.4,291.5 214.6,291.5 214.9,291.5 215.1,291.5 215.3,291.5 215.5,282.6 215.7,282.6 215.9,282.6 216.1,278.9 216.3,278.9 216.5,289.2 216.7,289.2 216.9,289.2 217.1,289.2 217.3,289.2 217.5,289.2 217.7,289.2 218.0,289.2 218.2,289.2 218.4,289.2 218.6,289.2 218.8,289.2 219.0,289.2 219.2,289.2 219.4,289.2 219.6,289.2 219.8,289.2 220.0,289.2 220.2,289.2 220.4,289.2 220.6,289.2 220.9,289.2 221.1,289.2 221.3,289.2 221.5,289.2 221.7,289.2 221.9,289.2 222.1,289.2 222.3,289.2 222.5,289.2 222.7,289.2 222.9,289.2 223.1,289.2 223.3,289.2 223.5,289.2 223.8,289.2 224.0,289.2 224.2,289.2 224.4,289.2 224.6,289.2 224.8,289.2 225.0,289.2 225.2,289.2 225.4,289.2 225.6,289.2 225.8,289.2 226.0,289.2 226.2,289.2 226.4,289.2 226.7,289.2 226.9,289.2 227.1,289.2 227.3,286.9 227.5,286.9 227.7,287.8 227.9,287.8 228.1,287.8 228.3,287.8 228.5,287.8 228.7,287.8 228.9,287.8 229.1,287.8 229.3,287.8 229.6,287.8 229.8,287.8 230.0,287.8 230.2,287.8 230.4,287.8 230.6,287.4 230.8,291.5 231.0,291.5 231.2,291.5 231.4,291.5 231.6,291.5 231.8,291.5 232.0,291.5 232.2,291.5 232.4,291.5 232.7,291.5 232.9,291.5 233.1,291.5 233.3,291.5 233.5,291.5 233.7,291.5 233.9,291.5 234.1,291.5 234.3,291.5 234.5,291.5 234.7,291.5 234.9,289.2 235.1,289.2 235.3,289.2 235.6,291.5 235.8,291.5 236.0,291.5 236.2,292.0 236.4,291.5 236.6,291.5 236.8,291.5 237.0,293.9 237.2,293.9 237.4,293.9 237.6,293.9 237.8,293.9 238.0,293.9 238.2,293.9 238.5,293.9 238.7,293.9 238.9,293.9 239.1,293.9 239.3,293.9 239.5,291.5 239.7,291.5 239.9,294.9 240.1,294.9 240.3,294.9 240.5,294.9 240.7,294.9 240.9,294.9 241.1,291.5 241.4,291.5 241.6,291.5 241.8,291.5 242.0,291.5 242.2,291.5 242.4,291.5 242.6,291.5 242.8,291.5 243.0,291.5 243.2,291.5 243.4,291.5 243.6,296.4 243.8,296.4 244.0,296.4 244.2,296.4 244.5,296.4 244.7,296.4 244.9,296.4 245.1,296.4 245.3,296.4 245.5,296.4 245.7,296.4 245.9,296.4 246.1,296.4 246.3,296.4 246.5,296.4 246.7,293.4 246.9,293.4 247.1,293.4 247.4,293.4 247.6,293.4 247.8,293.4 248.0,293.4 248.2,293.4 248.4,293.4 248.6,293.4 248.8,293.4 249.0,293.4 249.2,293.4 249.4,293.4 249.6,293.4 249.8,293.4 250.0,293.4 250.3,293.4 250.5,293.4 250.7,293.4 250.9,293.4 251.1,293.4 251.3,293.4 251.5,293.4 251.7,293.4 251.9,293.4 252.1,293.4 252.3,293.4 252.5,293.4 252.7,293.4 252.9,293.4 253.2,293.4 253.4,293.4 253.6,304.3 253.8,304.3 254.0,304.3 254.2,304.3 254.4,304.3 254.6,304.3 254.8,300.0 255.0,300.0 255.2,294.4 255.4,291.5 255.6,291.5 255.8,291.5 256.1,291.5 256.3,291.5 256.5,291.5 256.7,291.5 256.9,291.5 257.1,291.5 257.3,291.5 257.5,291.5 257.7,283.9 257.9,283.9 258.1,283.0 258.3,283.0 258.5,282.6 258.7,282.6 258.9,282.6 259.2,281.3 259.4,281.3 259.6,281.3 259.8,281.3 260.0,281.3 260.2,278.9 260.4,280.5 260.6,280.5 260.8,283.0 261.0,283.0 261.2,283.0 261.4,283.0 261.6,283.0 261.8,283.0 262.1,283.0 262.3,283.0 262.5,283.0 262.7,283.0 262.9,283.0 263.1,283.0 263.3,278.4 263.5,278.4 263.7,278.4 263.9,278.4 264.1,278.4 264.3,278.4 264.5,278.4 264.7,278.4 265.0,278.4 265.2,278.4 265.4,278.4 265.6,278.4 265.8,278.4 266.0,278.4 266.2,278.4 266.4,278.4 266.6,278.4 266.8,278.4 267.0,284.7 267.2,284.7 267.4,284.7 267.6,284.7 267.9,284.7 268.1,284.7 268.3,284.7 268.5,284.7 268.7,284.7 268.9,284.7 269.1,284.7 269.3,284.7 269.5,284.7 269.7,284.7 269.9,284.7 270.1,284.7 270.3,284.7 270.5,284.7 270.8,284.7 271.0,284.7 271.2,284.7 271.4,284.7 271.6,284.7 271.8,284.7 272.0,284.7 272.2,284.7 272.4,284.7 272.6,284.7 272.8,284.7 273.0,284.7 273.2,288.3 273.4,288.3 273.6,288.3 273.9,288.3 274.1,288.3 274.3,288.3 274.5,288.3 274.7,288.3 274.9,288.3 275.1,288.3 275.3,288.3 275.5,288.3 275.7,288.3 275.9,288.3 276.1,288.3 276.3,288.3 276.5,288.3 276.8,288.3 277.0,288.3 277.2,288.3 277.4,288.3 277.6,288.3 277.8,288.3 278.0,288.3 278.2,288.3 278.4,288.3 278.6,288.3 278.8,288.3 279.0,288.3 279.2,288.3 279.4,288.3 279.7,288.3 279.9,288.3 280.1,288.3 280.3,288.3 280.5,288.3 280.7,288.3 280.9,278.4 281.1,278.4 281.3,278.4 281.5,278.4 281.7,278.4 281.9,278.4 282.1,278.4 282.3,282.6 282.6,282.6 282.8,282.6 283.0,282.6 283.2,282.6 283.4,286.0 283.6,286.0 283.8,286.0 284.0,285.2 284.2,285.2 284.4,285.2 284.6,285.2 284.8,285.2 285.0,285.2 285.2,285.2 285.4,285.2 285.7,285.2 285.9,285.2 286.1,285.2 286.3,285.2 286.5,285.2 286.7,285.2 286.9,285.2 287.1,285.2 287.3,285.2 287.5,285.2 287.7,285.2 287.9,285.2 288.1,285.2 288.3,280.5 288.6,280.5 288.8,280.5 289.0,280.5 289.2,278.4 289.4,278.4 289.6,282.6 289.8,282.6 290.0,282.6 290.2,282.6 290.4,282.6 290.6,282.6 290.8,282.6 291.0,282.6 291.2,282.6 291.5,282.6 291.7,282.6 291.9,282.6 292.1,282.6 292.3,282.6 292.5,282.6 292.7,282.6 292.9,282.6 293.1,282.6 293.3,282.6 293.5,282.6 293.7,282.6 293.9,282.6 294.1,282.6 294.4,289.2 294.6,286.3 294.8,286.3 295.0,286.3 295.2,286.3 295.4,286.3 295.6,286.3 295.8,286.3 296.0,286.3 296.2,286.3 296.4,286.3 296.6,286.3 296.8,286.3 297.0,286.3 297.3,280.5 297.5,280.5 297.7,280.5 297.9,280.5 298.1,280.5 298.3,280.5 298.5,289.2 298.7,289.2 298.9,289.2 299.1,286.9 299.3,289.2 299.5,289.2 299.7,289.2 299.9,289.2 300.1,286.9 300.4,286.9 300.6,286.9 300.8,286.9 301.0,286.9 301.2,288.7 301.4,289.2 301.6,289.2 301.8,296.4 302.0,296.4 302.2,291.5 302.4,291.5 302.6,291.5 302.8,295.9 303.0,295.9 303.3,295.9 303.5,295.9 303.7,295.9 303.9,295.9 304.1,295.9 304.3,295.9 304.5,295.9 304.7,295.9 304.9,293.9 305.1,293.9 305.3,293.9 305.5,293.9 305.7,293.9 305.9,293.9 306.2,287.8 306.4,287.8 306.6,287.8 306.8,287.8 307.0,287.8 307.2,287.8 307.4,284.7 307.6,284.7 307.8,284.7 308.0,284.7 308.2,284.7 308.4,284.7 308.6,284.7 308.8,284.7 309.1,284.7 309.3,284.7 309.5,286.9 309.7,286.0 309.9,286.0 310.1,286.0 310.3,286.0 310.5,286.0 310.7,286.0 310.9,286.0 311.1,286.0 311.3,286.0 311.5,286.0 311.7,286.0 312.0,286.0 312.2,286.0 312.4,286.0 312.6,286.0 312.8,286.0 313.0,286.0 313.2,286.0 313.4,286.0 313.6,286.0 313.8,286.0 314.0,286.0 314.2,278.4 314.4,278.4 314.6,279.3 314.8,279.3 315.1,279.3 315.3,272.6 315.5,272.6 315.7,278.4 315.9,278.4 316.1,278.4 316.3,278.4 316.5,278.4 316.7,278.4 316.9,278.4 317.1,278.4 317.3,278.4 317.5,278.4 317.7,278.4 318.0,278.4 318.2,278.4 318.4,278.4 318.6,278.4 318.8,278.4 319.0,278.4 319.2,278.4 319.4,278.5 319.6,278.5 319.8,278.5 320.0,278.5 320.2,278.5 320.4,278.5 320.6,278.4 320.9,278.4 321.1,278.4 321.3,278.4 321.5,278.4 321.7,272.6 321.9,272.6 322.1,272.6 322.3,272.6 322.5,272.6 322.7,272.6 322.9,272.6 323.1,278.4 323.3,278.4 323.5,278.4 323.8,278.4 324.0,278.4 324.2,278.4 324.4,278.4 324.6,278.4 324.8,278.4 325.0,278.4 325.2,278.4 325.4,278.4 325.6,278.4 325.8,278.4 326.0,278.4 326.2,278.4 326.4,278.4 326.6,278.4 326.9,278.4 327.1,278.4 327.3,278.4 327.5,278.4 327.7,278.4 327.9,278.4 328.1,278.4 328.3,278.4 328.5,278.4 328.7,273.4 328.9,273.4 329.1,273.4 329.3,273.4 329.5,273.4 329.8,273.4 330.0,273.4 330.2,273.4 330.4,273.4 330.6,273.4 330.8,273.4 331.0,276.1 331.2,276.1 331.4,276.1 331.6,276.1 331.8,276.1 332.0,276.1 332.2,276.1 332.4,276.1 332.7,276.1 332.9,276.1 333.1,276.1 333.3,276.1 333.5,276.1 333.7,276.1 333.9,276.1 334.1,276.1 334.3,274.5 334.5,275.3 334.7,275.3 334.9,275.3 335.1,275.3 335.3,275.3 335.6,271.5 335.8,271.5 336.0,271.5 336.2,271.5 336.4,271.5 336.6,274.5 336.8,274.5 337.0,274.5 337.2,274.5 337.4,274.5 337.6,274.5 337.8,272.3 338.0,272.3 338.2,272.3 338.5,272.3 338.7,272.3 338.9,272.3 339.1,272.3 339.3,272.3 339.5,274.9 339.7,274.9 339.9,274.9 340.1,274.9 340.3,274.9 340.5,274.9 340.7,271.9 340.9,271.9 341.1,271.9 341.3,271.9 341.6,271.9 341.8,271.9 342.0,271.9 342.2,271.9 342.4,271.9 342.6,271.9 342.8,271.9 343.0,271.9 343.2,271.9 343.4,271.9 343.6,271.9 343.8,271.9 344.0,271.9 344.2,271.9 344.5,271.9 344.7,271.9 344.9,271.9 345.1,271.9 345.3,271.9 345.5,270.8 345.7,270.8 345.9,270.8 346.1,270.8 346.3,270.8 346.5,270.8 346.7,270.8 346.9,270.8 347.1,270.8 347.4,270.8 347.6,270.8 347.8,270.8 348.0,272.6 348.2,272.6 348.4,272.6 348.6,272.6 348.8,272.6 349.0,272.6 349.2,272.6 349.4,272.6 349.6,272.6 349.8,272.6 350.0,274.1 350.3,274.1 350.5,274.1 350.7,274.1 350.9,274.1 351.1,274.1 351.3,274.1 351.5,274.1 351.7,277.3 351.9,277.3 352.1,277.3 352.3,277.3 352.5,277.3 352.7,277.3 352.9,277.3 353.2,277.3 353.4,273.8 353.6,273.8 353.8,273.8 354.0,273.4 354.2,273.4 354.4,273.4 354.6,270.8 354.8,270.8 355.0,270.8 355.2,270.8 355.4,270.8 355.6,270.8 355.8,270.8 356.0,270.8 356.3,270.8 356.5,270.8 356.7,270.8 356.9,270.8 357.1,270.8 357.3,271.9 357.5,271.9 357.7,271.9 357.9,271.9 358.1,271.9 358.3,271.9 358.5,271.9 358.7,271.9 358.9,271.9 359.2,271.9 359.4,271.9 359.6,271.9 359.8,271.9 360.0,271.9 360.2,270.4 360.4,270.4 360.6,270.4 360.8,270.4 361.0,270.4 361.2,270.4 361.4,270.4 361.6,270.4 361.8,270.4 362.1,270.4 362.3,270.4 362.5,270.4 362.7,270.4 362.9,270.4 363.1,270.4 363.3,267.2 363.5,267.2 363.7,267.2 363.9,267.2 364.1,271.2 364.3,271.2 364.5,271.2 364.7,271.2 365.0,271.2 365.2,271.2 365.4,271.2 365.6,271.2 365.8,271.2 366.0,271.2 366.2,271.2 366.4,271.2 366.6,271.2 366.8,271.2 367.0,271.2 367.2,271.2 367.4,271.2 367.6,271.2 367.9,271.2 368.1,271.2 368.3,271.2 368.5,271.2 368.7,271.2 368.9,264.1 369.1,264.1 369.3,266.2 369.5,266.2 369.7,266.2 369.9,266.2 370.1,266.2 370.3,266.2 370.5,266.2 370.7,269.7 371.0,269.7 371.2,266.2 371.4,266.2 371.6,266.2 371.8,266.2 372.0,266.2 372.2,266.2 372.4,266.2 372.6,266.2 372.8,266.2 373.0,266.2 373.2,266.2 373.4,266.2 373.6,266.2 373.9,266.2 374.1,267.2 374.3,267.2 374.5,267.2 374.7,267.2 374.9,267.2 375.1,268.6 375.3,268.6 375.5,268.6 375.7,268.6 375.9,268.6 376.1,268.6 376.3,268.6 376.5,268.6 376.8,268.6 377.0,268.6 377.2,268.6 377.4,268.6 377.6,268.6 377.8,268.6 378.0,268.6 378.2,268.6 378.4,268.6 378.6,268.6 378.8,266.5 379.0,266.9 379.2,266.9 379.4,266.9 379.7,266.9 379.9,266.9 380.1,266.9 380.3,266.9 380.5,267.2 380.7,267.2 380.9,269.0 381.1,267.2 381.3,267.2 381.5,267.7 381.7,267.7 381.9,267.7 382.1,267.7 382.3,267.7 382.5,267.7 382.8,267.7 383.0,267.7 383.2,269.0 383.4,269.0 383.6,269.0 383.8,269.0 384.0,269.0 384.2,269.0 384.4,269.0 384.6,269.0 384.8,269.0 385.0,269.0 385.2,269.0 385.4,269.0 385.7,269.0 385.9,269.0 386.1,269.0 386.3,269.0 386.5,269.0 386.7,269.0 386.9,269.0 387.1,269.0 387.3,269.0 387.5,269.0 387.7,269.0 387.9,269.0 388.1,266.2 388.3,266.2 388.6,266.2 388.8,266.2 389.0,267.2 389.2,267.2 389.4,267.2 389.6,267.2 389.8,267.2 390.0,267.2 390.2,267.2 390.4,267.2 390.6,267.2 390.8,267.2 391.0,267.2 391.2,267.2 391.5,267.2 391.7,267.2 391.9,267.2 392.1,267.2 392.3,267.2 392.5,267.2 392.7,267.2 392.9,267.2 393.1,276.9 393.3,276.9 393.5,276.9 393.7,276.9 393.9,276.9 394.1,276.9 394.4,276.9 394.6,276.9 394.8,276.9 395.0,276.9 395.2,276.9 395.4,276.9 395.6,276.9 395.8,276.9 396.0,276.9 396.2,276.9 396.4,276.9 396.6,276.9 396.8,276.9 397.0,276.9 397.2,276.9 397.5,276.9 397.7,276.9 397.9,276.9 398.1,276.9 398.3,276.9 398.5,276.9 398.7,276.9 398.9,276.9 399.1,272.6 399.3,283.4 399.5,283.4 399.7,277.3 399.9,277.3 400.1,276.5 400.4,276.5 400.6,276.5 400.8,276.5 401.0,276.5 401.2,276.5 401.4,276.5 401.6,276.5 401.8,276.5 402.0,276.5 402.2,274.5 402.4,274.5 402.6,274.5 402.8,274.5 403.0,274.5 403.3,274.5 403.5,274.5 403.7,274.5 403.9,274.5 404.1,269.7 404.3,269.7 404.5,269.7 404.7,269.7 404.9,269.7 405.1,270.4 405.3,263.8 405.5,263.8 405.7,263.8 405.9,263.7 406.2,263.7 406.4,263.7 406.6,263.7 406.8,263.7 407.0,263.7 407.2,267.2 407.4,267.2 407.6,267.2 407.8,267.2 408.0,267.2 408.2,267.2 408.4,267.2 408.6,267.2 408.8,267.2 409.1,267.2 409.3,267.2 409.5,267.2 409.7,267.2 409.9,267.2 410.1,267.2 410.3,267.2 410.5,267.2 410.7,267.2 410.9,269.3 411.1,269.3 411.3,269.3 411.5,269.3 411.7,278.4 411.9,276.9 412.2,276.5 412.4,276.5 412.6,276.5 412.8,276.5 413.0,276.5 413.2,270.8 413.4,277.6 413.6,277.6 413.8,276.1 414.0,276.1 414.2,276.1 414.4,276.1 414.6,276.1 414.8,276.1 415.1,276.1 415.3,276.1 415.5,276.1 415.7,276.1 415.9,276.1 416.1,276.1 416.3,276.1 416.5,276.1 416.7,276.1 416.9,276.1 417.1,276.1 417.3,272.6 417.5,272.6 417.7,272.6 418.0,272.6 418.2,272.6 418.4,272.6 418.6,272.6 418.8,272.6 419.0,277.3 419.2,278.4 419.4,278.4 419.6,278.4 419.8,278.4 420.0,278.4 420.2,278.4 420.4,278.4 420.6,278.4 420.9,278.4 421.1,278.4 421.3,278.4 421.5,278.4 421.7,278.4 421.9,278.4 422.1,278.4 422.3,278.4 422.5,278.4 422.7,278.4 422.9,278.4 423.1,278.4 423.3,281.3 423.5,284.7 423.7,278.7 424.0,280.5 424.2,280.5 424.4,280.5 424.6,280.5 424.8,278.4 425.0,278.4 425.2,279.3 425.4,273.8 425.6,278.4 425.8,280.1 426.0,280.1 426.2,280.1 426.4,280.1 426.6,280.1 426.9,280.1 427.1,281.7 427.3,281.7 427.5,280.1 427.7,280.1 427.9,280.1 428.1,280.1 428.3,280.1 428.5,279.7 428.7,279.7 428.9,279.7 429.1,279.7 429.3,279.7 429.5,279.7 429.8,279.7 430.0,279.7 430.2,279.7 430.4,279.1 430.6,279.1 430.8,279.1 431.0,279.1 431.2,279.1 431.4,278.4 431.6,279.3 431.8,279.3 432.0,279.3 432.2,278.4 432.4,278.4 432.7,278.4 432.9,278.4 433.1,278.4 433.3,278.4 433.5,278.4 433.7,278.4 433.9,278.4 434.1,279.3 434.3,279.3 434.5,279.3 434.7,279.1 434.9,279.3 435.1,279.3 435.3,279.3 435.6,279.3 435.8,279.3 436.0,279.3 436.2,279.3 436.4,279.3 436.6,279.3 436.8,279.3 437.0,279.3 437.2,279.3 437.4,279.3 437.6,279.3 437.8,279.3 438.0,279.3 438.2,279.3 438.4,279.3 438.7,279.3 438.9,279.7 439.1,280.5 439.3,283.9 439.5,284.7 439.7,284.7 439.9,284.7 440.1,284.7 440.3,284.7 440.5,284.7 440.7,284.7 440.9,286.0 441.1,286.0 441.3,290.1 441.6,290.1 441.8,290.1 442.0,284.7 442.2,284.7 442.4,289.6 442.6,288.7 442.8,291.0 443.0,286.9 443.2,286.9 443.4,286.9 443.6,286.9 443.8,286.9 444.0,286.9 444.2,286.9 444.5,286.9 444.7,286.9 444.9,286.9 445.1,289.2 445.3,289.2 445.5,289.2 445.7,289.2 445.9,287.8 446.1,289.2 446.3,289.2 446.5,289.2 446.7,289.2 446.9,287.8 447.1,286.9 447.4,289.2 447.6,289.2 447.8,289.2 448.0,289.2 448.2,289.2 448.4,288.7 448.6,288.7 448.8,288.7 449.0,288.7 449.2,289.0 449.4,289.0 449.6,289.0 449.8,288.7 450.0,288.7 450.3,288.7 450.5,288.0 450.7,288.0 450.9,288.0 451.1,288.0 451.3,288.0 451.5,288.0 451.7,288.0 451.9,288.0 452.1,287.4 452.3,287.4 452.5,287.4 452.7,287.4 452.9,287.4 453.1,287.4 453.4,286.9 453.6,286.9 453.8,286.9 454.0,291.0 454.2,291.0 454.4,291.0 454.6,291.0 454.8,291.0 455.0,291.0 455.2,288.7 455.4,288.7 455.6,286.9 455.8,286.9 456.0,286.9 456.3,280.5 456.5,280.1 456.7,280.1 456.9,279.3 457.1,279.3 457.3,278.4 457.5,278.4 457.7,274.1 457.9,273.0 458.1,273.0 458.3,272.6 458.5,272.4 458.7,273.0 458.9,273.0 459.2,273.0 459.4,278.4 459.6,278.4 459.8,278.4 460.0,277.0 460.2,277.0 460.4,270.8 460.6,270.8 460.8,271.4 461.0,271.9 461.2,271.9 461.4,271.9 461.6,271.9 461.8,270.8 462.1,270.8 462.3,271.5 462.5,271.5 462.7,271.5 462.9,271.5 463.1,271.5 463.3,271.5 463.5,272.1 463.7,272.1 463.9,272.1 464.1,272.1 464.3,272.3 464.5,270.8 464.7,272.3 464.9,272.3 465.2,272.3 465.4,270.8 465.6,270.8 465.8,270.8 466.0,275.3 466.2,276.1 466.4,278.4 466.6,282.6 466.8,285.2 467.0,285.6 467.2,286.9 467.4,286.9 467.6,285.6 467.8,286.9 468.1,286.9 468.3,278.4 468.5,278.4 468.7,278.4 468.9,278.4 469.1,278.4 469.3,278.4 469.5,278.4 469.7,278.4 469.9,278.4 470.1,278.4 470.3,286.5 470.5,286.5 470.7,280.5 471.0,278.4 471.2,278.4 471.4,278.4 471.6,278.4 471.8,278.4 472.0,277.0 472.2,277.0 472.4,270.8 472.6,270.8 472.8,270.8 473.0,270.8 473.2,270.8 473.4,270.8 473.6,270.8 473.9,270.8 474.1,270.8 474.3,274.5 474.5,274.5 474.7,274.5 474.9,274.5 475.1,274.5 475.3,274.5 475.5,274.5 475.7,270.8 475.9,270.8 476.1,270.8 476.3,270.8 476.5,270.8 476.8,270.8 477.0,270.8 477.2,270.8 477.4,270.8 477.6,270.8 477.8,270.8 478.0,270.8 478.2,270.8 478.4,270.8 478.6,270.8 478.8,270.8 479.0,272.6 479.2,270.8 479.4,270.8 479.6,270.8 479.9,270.8 480.1,270.8 480.3,270.8 480.5,270.8 480.7,270.8 480.9,270.8 481.1,270.8 481.3,270.8 481.5,267.2 481.7,270.8 481.9,270.8 482.1,270.8 482.3,270.8 482.5,270.8 482.8,270.8 483.0,270.8 483.2,260.5 483.4,260.5 483.6,260.5 483.8,270.8 484.0,270.8 484.2,270.8 484.4,270.8 484.6,270.8 484.8,270.8 485.0,270.8 485.2,270.8 485.4,270.8 485.7,270.8 485.9,270.8 486.1,270.8 486.3,270.8 486.5,270.8 486.7,260.5 486.9,260.5 487.1,260.5 487.3,264.5 487.5,264.5 487.7,264.5 487.9,264.5 488.1,270.8 488.3,270.8 488.6,270.8 488.8,269.3 489.0,269.3 489.2,267.2 489.4,267.2 489.6,265.5 489.8,265.5 490.0,265.5 490.2,260.5 490.4,260.5 490.6,260.5 490.8,260.5 491.0,260.5 491.2,265.5 491.5,265.5 491.7,265.5 491.9,265.5 492.1,265.5 492.3,260.5 492.5,260.5 492.7,260.5 492.9,260.5 493.1,260.5 493.3,260.5 493.5,270.8 493.7,269.0 493.9,263.8 494.1,263.8 494.3,263.8 494.6,263.8 494.8,263.8 495.0,263.8 495.2,262.1 495.4,264.5 495.6,265.1 495.8,265.1 496.0,263.8 496.2,263.8 496.4,263.8 496.6,263.8 496.8,263.8 497.0,262.1 497.2,265.5 497.5,265.5 497.7,266.5 497.9,266.5 498.1,266.5 498.3,270.8 498.5,270.8 498.7,270.8 498.9,270.8 499.1,270.8 499.3,270.8 499.5,270.8 499.7,270.8 499.9,267.2 500.1,267.2 500.4,267.2 500.6,267.2 500.8,267.2 501.0,267.2 501.2,267.2 501.4,267.2 501.6,267.2 501.8,267.2 502.0,270.8 502.2,270.8 502.4,270.8 502.6,270.8 502.8,270.8 503.0,270.8 503.3,270.8 503.5,270.8 503.7,270.8 503.9,270.8 504.1,270.8 504.3,270.8 504.5,270.8 504.7,270.8 504.9,270.8 505.1,270.8 505.3,270.8 505.5,270.8 505.7,270.8 505.9,272.3 506.1,272.3 506.4,272.3 506.6,272.3 506.8,272.3 507.0,272.3 507.2,272.3 507.4,272.3 507.6,272.3 507.8,272.3 508.0,272.3 508.2,272.3 508.4,272.3 508.6,257.4 508.8,257.7 509.0,255.9 509.3,255.9 509.5,255.9 509.7,255.9 509.9,255.9 510.1,255.8 510.3,255.8 510.5,255.8 510.7,255.8 510.9,255.8 511.1,255.8 511.3,260.8 511.5,260.8 511.7,260.8 511.9,260.8 512.2,260.8 512.4,260.8 512.6,260.8 512.8,260.8 513.0,260.8 513.2,265.1 513.4,265.1 513.6,265.1 513.8,255.8 514.0,255.8 514.2,255.8 514.4,255.8 514.6,255.8 514.8,255.8 515.1,255.8 515.3,252.8 515.5,252.8 515.7,252.8 515.9,252.8 516.1,252.8 516.3,252.8 516.5,252.8 516.7,252.8 516.9,252.8 517.1,252.8 517.3,252.8 517.5,252.8 517.7,252.8 518.0,252.8 518.2,252.8 518.4,252.8 518.6,252.8 518.8,252.8 519.0,252.8 519.2,252.8 519.4,252.8 519.6,227.9 519.8,227.5 520.0,232.3 520.2,232.3 520.4,232.3 520.6,232.3 520.8,232.3 521.1,232.3 521.3,232.3 521.5,233.9 521.7,233.9 521.9,233.9 522.1,233.9 522.3,233.9 522.5,233.9 522.7,233.9 522.9,233.9 523.1,233.9 523.3,233.9 523.5,233.9 523.7,233.9 524.0,233.9 524.2,233.9 524.4,233.9 524.6,233.9 524.8,233.9 525.0,233.9 525.2,233.9 525.4,233.9 525.6,233.9 525.8,233.9 526.0,245.8 526.2,245.8 526.4,245.8 526.6,233.9 526.9,233.9 527.1,233.9 527.3,233.9 527.5,233.9 527.7,233.9 527.9,233.9 528.1,233.9 528.3,233.9 528.5,233.9 528.7,233.9 528.9,239.3 529.1,239.3 529.3,243.2 529.5,243.2 529.8,243.2 530.0,243.2 530.2,243.2 530.4,243.2 530.6,250.0 530.8,245.8 531.0,239.4 531.2,239.7 531.4,239.7 531.6,240.2 531.8,240.0 532.0,240.0 532.2,240.0 532.4,240.0 532.7,240.0 532.9,239.7 533.1,239.7 533.3,240.7 533.5,240.7 533.7,240.7 533.9,237.2 534.1,237.2 534.3,237.2 534.5,237.2 534.7,237.5 534.9,237.5 535.1,240.6 535.3,240.6 535.5,240.6 535.8,240.6 536.0,240.6 536.2,242.8 536.4,245.3 536.6,251.4 536.8,251.4 537.0,257.4 537.2,257.4 537.4,263.8 537.6,269.0 537.8,269.0 538.0,260.5 538.2,253.1 538.4,247.5 538.7,247.5 538.9,247.5 539.1,247.5 539.3,247.5 539.5,247.5 539.7,247.5 539.9,247.5 540.1,247.5 540.3,247.5 540.5,247.5 540.7,247.5 540.9,247.5 541.1,247.5 541.3,247.5 541.6,247.5 541.8,247.5 542.0,247.5 542.2,247.5 542.4,247.5 542.6,247.5 542.8,247.5 543.0,247.5 543.2,251.1 543.4,251.1 543.6,251.1 543.8,251.1 544.0,251.1 544.2,251.1 544.5,251.1 544.7,255.8 544.9,254.3 545.1,254.3 545.3,269.0 545.5,267.2 545.7,265.6 545.9,267.2 546.1,269.0 546.3,268.3 546.5,274.5 546.7,274.5 546.9,272.6 547.1,272.6 547.4,272.6 547.6,271.5 547.8,269.0 548.0,269.0 548.2,274.5 548.4,270.8 548.6,270.4 548.8,270.4 549.0,270.4 549.2,270.4 549.4,270.4 549.6,269.0 549.8,270.8 550.0,270.8 550.2,270.8 550.5,270.8 550.7,270.8 550.9,270.8 551.1,270.8 551.3,270.8 551.5,270.8 551.7,269.2 551.9,269.2 552.1,260.5 552.3,260.5 552.5,260.5 552.7,257.4 552.9,251.4 553.1,251.4 553.4,251.4 553.6,254.9 553.8,255.5 554.0,255.5 554.2,255.5 554.4,255.5 554.6,255.8 554.8,255.8 555.0,255.8 555.2,255.8 555.4,255.8 555.6,252.0 555.8,252.0 556.0,252.0 556.3,252.0 556.5,252.0 556.7,245.8 556.9,247.2 557.1,247.2 557.3,247.2 557.5,246.9 557.7,246.9 557.9,244.5 558.1,241.9 558.3,243.2 558.5,244.0 558.7,244.0 558.9,243.7 559.2,243.7 559.4,243.2 559.6,243.6 559.8,243.6 560.0,243.6 560.2,242.6 560.4,242.6 560.6,242.6 560.8,242.6 561.0,241.2 561.2,242.4 561.4,238.2 561.6,238.2 561.8,241.9 562.0,242.4 562.3,242.7 562.5,242.7 562.7,242.7 562.9,242.7 563.1,242.7 563.3,242.7 563.5,242.7 563.7,242.7 563.9,242.7 564.1,242.7 564.3,242.7 564.5,242.7 564.7,242.7 564.9,242.7 565.2,237.0 565.4,237.0 565.6,222.7 565.8,222.7 566.0,222.7 566.2,227.9 566.4,227.9 566.6,227.9 566.8,227.9 567.0,227.9 567.2,227.9 567.4,227.9 567.6,227.9 567.8,227.9 568.1,237.0 568.3,237.0 568.5,237.0 568.7,242.4 568.9,232.3 569.1,237.0 569.3,235.2 569.5,235.2 569.7,235.2 569.9,235.8 570.1,235.8 570.3,235.8 570.5,235.8 570.7,235.8 571.0,235.8 571.2,235.8 571.4,235.8 571.6,235.8 571.8,235.8 572.0,235.8 572.2,235.8 572.4,235.8 572.6,227.9 572.8,227.9 573.0,226.8 573.2,241.9 573.4,241.9 573.6,241.9 573.9,241.2 574.1,241.2 574.3,241.2 574.5,241.2 574.7,241.2 574.9,240.4 575.1,240.6 575.3,240.6 575.5,240.6 575.7,239.4 575.9,239.4 576.1,240.7 576.3,239.4 576.5,239.4 576.7,239.4 577.0,240.2 577.2,239.4 577.4,241.7 577.6,241.7 577.8,241.7 578.0,241.7 578.2,240.7 578.4,240.7 578.6,240.7 578.8,240.7 579.0,240.7 579.2,238.4 579.4,241.6 579.6,241.6 579.9,241.6 580.1,239.4 580.3,239.4 580.5,239.4 580.7,241.9 580.9,241.9 581.1,241.9 581.3,241.9 581.5,242.2 581.7,242.4 581.9,242.4 582.1,242.4 582.3,242.4 582.5,241.9 582.8,241.9 583.0,241.9 583.2,239.4 583.4,238.2 583.6,239.7 583.8,242.7 584.0,243.5 584.2,242.7 584.4,243.5 584.6,243.5 584.8,243.5 585.0,243.5 585.2,243.5 585.4,243.5 585.7,243.5 585.9,243.5 586.1,243.5 586.3,243.5 586.5,243.5 586.7,243.5 586.9,243.5 587.1,243.5 587.3,243.5 587.5,243.5 587.7,243.5 587.9,243.5 588.1,243.5 588.3,243.5 588.6,243.5 588.8,243.5 589.0,243.5 589.2,243.5 589.4,239.9 589.6,239.9 589.8,239.9 590.0,239.9 590.2,239.9 590.4,239.9 590.6,239.9 590.8,239.9 591.0,239.9 591.2,239.9 591.4,239.9 591.7,239.9 591.9,239.9 592.1,239.9 592.3,239.9 592.5,239.9 592.7,239.9 592.9,240.7 593.1,240.7 593.3,240.7 593.5,240.7 593.7,240.7 593.9,240.7 594.1,240.7 594.3,240.7 594.6,240.7 594.8,240.7 595.0,240.7 595.2,240.7 595.4,240.7 595.6,240.7 595.8,239.4 596.0,240.7 596.2,240.7 596.4,240.7 596.6,240.7 596.8,240.7 597.0,240.7 597.2,240.7 597.5,240.7 597.7,240.7 597.9,240.7 598.1,240.7 598.3,240.7 598.5,240.7 598.7,240.7 598.9,244.0 599.1,244.0 599.3,245.0 599.5,245.0 599.7,245.0 599.9,245.0 600.1,245.0 600.4,245.0 600.6,239.4 600.8,239.4 601.0,239.4 601.2,239.4 601.4,234.6 601.6,234.6 601.8,234.6 602.0,234.6 602.2,234.6 602.4,234.6 602.6,234.6 602.8,233.7 603.0,233.7 603.2,233.7 603.5,233.7 603.7,233.7 603.9,233.7 604.1,233.7 604.3,233.7 604.5,233.7 604.7,233.7 604.9,233.7 605.1,233.7 605.3,233.7 605.5,235.8 605.7,235.8 605.9,235.5 606.1,235.5 606.4,235.5 606.6,233.5 606.8,233.5 607.0,233.5 607.2,233.5 607.4,233.5 607.6,233.5 607.8,233.5 608.0,233.5 608.2,233.5 608.4,233.5 608.6,233.5 608.8,233.5 609.0,233.5 609.3,233.5 609.5,233.5 609.7,233.5 609.9,233.5 610.1,233.5 610.3,233.5 610.5,233.5 610.7,233.5 610.9,233.5 611.1,233.5 611.3,233.5 611.5,233.5 611.7,233.5 611.9,233.5 612.2,233.5 612.4,233.5 612.6,232.3 612.8,232.3 613.0,235.1 613.2,235.1 613.4,235.1 613.6,235.1 613.8,235.1 614.0,235.1 614.2,233.5 614.4,229.4 614.6,229.0 614.8,229.0 615.1,229.0 615.3,229.0 615.5,228.3 615.7,227.9 615.9,218.8 616.1,218.8 616.3,213.2 616.5,212.4 616.7,204.8 616.9,204.8 617.1,210.6 617.3,222.7 617.5,222.7 617.7,204.8 617.9,204.8 618.2,204.8 618.4,204.8 618.6,205.6 618.8,205.6 619.0,205.6 619.2,204.8 619.4,204.0 619.6,204.0 619.8,204.0 620.0,204.0 620.2,204.8 620.4,204.8 620.6,204.8 620.8,204.8 621.1,204.8 621.3,197.9 621.5,204.8 621.7,204.8 621.9,197.1 622.1,197.1 622.3,197.1 622.5,200.9 622.7,200.9 622.9,200.9 623.1,200.9 623.3,204.8 623.5,204.8 623.7,204.8 624.0,204.8 624.2,198.6 624.4,197.8 624.6,197.8 624.8,197.8 625.0,197.8 625.2,200.1 625.4,200.9 625.6,200.9 625.8,200.9 626.0,200.9 626.2,199.3 626.4,199.3 626.6,202.4 626.9,199.3 627.1,199.3 627.3,199.3 627.5,199.3 627.7,199.3 627.9,199.3 628.1,199.3 628.3,199.3 628.5,199.5 628.7,201.6 628.9,201.6 629.1,201.6 629.3,201.6 629.5,199.3 629.8,199.3 630.0,199.3 630.2,199.3 630.4,199.3 630.6,199.3 630.8,199.3 631.0,201.6 631.2,201.6 631.4,201.6 631.6,201.6 631.8,201.6 632.0,200.5 632.2,200.5 632.4,200.5 632.6,200.5 632.9,200.5 633.1,201.6 633.3,201.6 633.5,201.6 633.7,201.6 633.9,201.6 634.1,201.6 634.3,201.6 634.5,201.6 634.7,204.8 634.9,204.8 635.1,202.4 635.3,202.4 635.5,202.4 635.8,202.4 636.0,202.4 636.2,202.2 636.4,202.4 636.6,201.8 636.8,201.8 637.0,201.8 637.2,201.6 637.4,201.9 637.6,201.7 637.8,202.1 638.0,202.1 638.2,202.1 638.4,201.6 638.7,201.6 638.9,201.6 639.1,201.6 639.3,201.6 639.5,201.6 639.7,202.1 639.9,202.0 640.1,201.6 640.3,202.1 640.5,202.1 640.7,202.1 640.9,202.1 641.1,202.1 641.3,202.1 641.6,201.6 641.8,201.6 642.0,201.6 642.2,201.6 642.4,201.6 642.6,201.6 642.8,201.6 643.0,202.2 643.2,202.2 643.4,202.2 643.6,202.2 643.8,202.4 644.0,202.4 644.2,202.4 644.4,202.4 644.7,201.6 644.9,200.1 645.1,200.1 645.3,200.1 645.5,202.4 645.7,202.4 645.9,202.4 646.1,200.5 646.3,200.3 646.5,200.9 646.7,202.4 646.9,202.4 647.1,202.4 647.3,202.4 647.6,201.8 647.8,201.6 648.0,200.1 648.2,200.1 648.4,200.1 648.6,200.1 648.8,200.1 649.0,200.1 649.2,200.9 649.4,200.9 649.6,201.6 649.8,201.6 650.0,201.6 650.2,201.6 650.5,202.4 650.7,202.4 650.9,202.4 651.1,202.4 651.3,202.4 651.5,202.4 651.7,202.4 651.9,202.4 652.1,202.4 652.3,202.4 652.5,202.4 652.7,200.9 652.9,202.4 653.1,202.4 653.4,202.4 653.6,202.4 653.8,203.2 654.0,203.2 654.2,204.8 654.4,202.4 654.6,202.4 654.8,202.4 655.0,204.0 655.2,204.0 655.4,204.0 655.6,204.0 655.8,204.0 656.0,204.0 656.3,204.0 656.5,204.0 656.7,204.0 656.9,204.0 657.1,204.0 657.3,204.0 657.5,201.6 657.7,201.6 657.9,201.6 658.1,201.6 658.3,201.6 658.5,201.6 658.7,201.6 658.9,200.2 659.1,200.2 659.4,200.2 659.6,200.2 659.8,200.2 660.0,200.2 660.2,200.2 660.4,200.2 660.6,200.2 660.8,200.2 661.0,193.5 661.2,193.5 661.4,197.7 661.6,199.0 661.8,199.0 662.0,199.0 662.3,199.0 662.5,192.4 662.7,192.4 662.9,192.4 663.1,192.4 663.3,190.1 663.5,190.1 663.7,179.5 663.9,179.5 664.1,180.6 664.3,179.5 664.5,179.5 664.7,179.5 664.9,179.5 665.2,179.5 665.4,179.5 665.6,179.5 665.8,179.5 666.0,178.3 666.2,178.3 666.4,179.5 666.6,185.6 666.8,185.6 667.0,185.6 667.2,185.6 667.4,180.6 667.6,180.6 667.8,180.6 668.1,180.6 668.3,180.6 668.5,180.1 668.7,180.1 668.9,180.1 669.1,180.1 669.3,180.3 669.5,182.2 669.7,182.2 669.9,180.4 670.1,180.4 670.3,180.4 670.5,180.4 670.7,180.4 671.0,180.4 671.2,180.4 671.4,180.4 671.6,180.6 671.8,180.6 672.0,180.6 672.2,180.6 672.4,180.6 672.6,180.6 672.8,180.6 673.0,180.6 673.2,180.6 673.4,180.6 673.6,180.6 673.8,180.6 674.1,180.6 674.3,180.6 674.5,180.6 674.7,182.0 674.9,182.0 675.1,182.0 675.3,182.0 675.5,182.0 675.7,182.0 675.9,190.1 676.1,193.5 676.3,193.5 676.5,190.1 676.7,190.1 677.0,190.1 677.2,188.1 677.4,190.0 677.6,190.2 677.8,190.2 678.0,190.2 678.2,190.1 678.4,190.1 678.6,190.1 678.8,190.5 679.0,190.5 679.2,190.5 679.4,192.2 679.6,192.8 679.9,192.8 680.1,192.8 680.3,192.8 680.5,192.8 680.7,192.8 680.9,190.1 681.1,190.1 681.3,190.1 681.5,190.5 681.7,190.5 681.9,190.5 682.1,190.5 682.3,191.5 682.5,192.5 682.8,192.4 683.0,192.4 683.2,192.4 683.4,191.0 683.6,192.0 683.8,191.7 684.0,191.6 684.2,190.1 684.4,190.3 684.6,190.3 684.8,190.3 685.0,190.3 685.2,190.3 685.4,190.8 685.6,190.3 685.9,190.1 686.1,190.1 686.3,190.1 686.5,190.1 686.7,190.1 686.9,190.1 687.1,191.7 687.3,191.7 687.5,192.2 687.7,193.5 687.9,192.8 688.1,193.0 688.3,193.0 688.5,194.2 688.8,196.3 689.0,194.2 689.2,195.7 689.4,195.7 689.6,195.7 689.8,195.7 690.0,196.3 690.2,196.4 690.4,196.2 690.6,196.4 690.8,196.4 691.0,196.4 691.2,194.8 691.4,193.5 691.7,193.5 691.9,193.5 692.1,193.5 692.3,193.5 692.5,192.9 692.7,192.9 692.9,192.2 693.1,192.2 693.3,192.2 693.5,192.2 693.7,195.0 693.9,195.0 694.1,195.0 694.3,195.0 694.6,192.8 694.8,192.8 695.0,192.8 695.2,194.9 695.4,195.7 695.6,195.7 695.8,194.6 696.0,194.6 696.2,194.6 696.4,194.6 696.6,194.2 696.8,192.8 697.0,192.8 697.2,192.8 697.5,192.8 697.7,192.8 697.9,192.8 698.1,192.8 698.3,192.8 698.5,192.8 698.7,192.8 698.9,192.8 699.1,187.0 699.3,186.8 699.5,186.8 699.7,187.5 699.9,186.8 700.1,186.8 700.3,187.5 700.6,187.5 700.8,190.1 701.0,190.1 701.2,189.1 701.4,189.5 701.6,189.5 701.8,189.5 702.0,187.5 702.2,187.5 702.4,187.5 702.6,187.5 702.8,184.9 703.0,184.9 703.2,186.3 703.5,186.2 703.7,186.2 703.9,186.2 704.1,186.2 704.3,186.2 704.5,183.7 704.7,181.7 704.9,178.3 705.1,178.3 705.3,178.3 705.5,178.6 705.7,178.6 705.9,172.2 706.1,167.0 706.4,167.0 706.6,167.0 706.8,169.0 707.0,169.0 707.2,169.0 707.4,169.0 707.6,169.0 707.8,169.0 708.0,169.0 708.2,169.0 708.4,169.0 708.6,169.0 708.8,164.5 709.0,164.5 709.3,164.5 709.5,164.5 709.7,164.5 709.9,164.5 710.1,168.2 710.3,167.0 710.5,169.5 710.7,169.5 710.9,169.5 711.1,169.5 711.3,169.5 711.5,169.5 711.7,169.5 711.9,169.5 712.2,169.5 712.4,169.5 712.6,169.5 712.8,169.5 713.0,169.5 713.2,164.5 713.4,167.0 713.6,167.0 713.8,166.4 714.0,166.4 714.2,167.0 714.4,164.5 714.6,164.5 714.8,162.6 715.0,158.0 715.3,158.0 715.5,158.0 715.7,167.0 715.9,167.0 716.1,167.0 716.3,167.0 716.5,166.6 716.7,163.6 716.9,163.6 717.1,163.6 717.3,162.7 717.5,162.7 717.7,161.2 717.9,161.2 718.2,157.1 718.4,155.4 718.6,153.6 718.8,153.6 719.0,154.2 719.2,154.2 719.4,154.5 719.6,154.5 719.8,154.5 720.0,153.6 720.2,152.8 720.4,152.8 720.6,152.8 720.8,152.8 721.1,153.6 721.3,153.6 721.5,153.6 721.7,152.8 721.9,152.8 722.1,148.6 722.3,152.5 722.5,152.5 722.7,152.8 722.9,152.5 723.1,148.7 723.3,148.7 723.5,152.8 723.7,152.8 724.0,154.0 724.2,154.0 724.4,154.0 724.6,147.8 724.8,147.8 725.0,144.7 725.2,144.7 725.4,144.7 725.6,144.7 725.8,144.7 726.0,144.7 726.2,144.7 726.4,148.6 726.6,148.6 726.9,148.6 727.1,152.1 727.3,144.7 727.5,141.0 727.7,141.0 727.9,141.0 728.1,145.5 728.3,141.0 728.5,141.0 728.7,135.7 728.9,135.7 729.1,135.7 729.3,135.7 729.5,137.1 729.7,135.7 730.0,135.7 730.2,141.0 730.4,135.7 730.6,135.7 730.8,137.4 731.0,137.4 731.2,144.7 731.4,141.0 731.6,142.5 731.8,142.8 732.0,144.1 732.2,144.1 732.4,148.6 732.6,145.2 732.9,145.2 733.1,145.4 733.3,145.4 733.5,145.4 733.7,140.3 733.9,137.4 734.1,137.1 734.3,138.4 734.5,137.8 734.7,137.7 734.9,137.7 735.1,137.4 735.3,141.0 735.5,137.4 735.8,137.4 736.0,137.4 736.2,143.6 736.4,143.6 736.6,143.6 736.8,143.6 737.0,146.3 737.2,145.9 737.4,144.7 737.6,146.3 737.8,146.3 738.0,146.3 738.2,146.5 738.4,145.1 738.7,145.5 738.9,141.0 739.1,141.0 739.3,141.0 739.5,138.8 739.7,141.0 739.9,144.3 740.1,144.3 740.3,146.3 740.5,146.3 740.7,144.7 740.9,144.7 741.1,144.7 741.3,144.7 741.5,145.5 741.8,145.5 742.0,145.5 742.2,145.5 742.4,145.1 742.6,145.1 742.8,148.6 743.0,148.6 743.2,148.6 743.4,148.6 743.6,144.7 743.8,144.0 744.0,144.0 744.2,144.0 744.4,144.0 744.7,144.0 744.9,145.2 745.1,144.0 745.3,144.0 745.5,144.0 745.7,141.0 745.9,142.8 746.1,140.3 746.3,141.0 746.5,146.0 746.7,144.3 746.9,143.2 747.1,143.2 747.3,143.2 747.6,143.2 747.8,141.0 748.0,141.0 748.2,140.3 748.4,140.3 748.6,141.5 748.8,141.0 749.0,140.3 749.2,141.0 749.4,141.6 749.6,141.6 749.8,140.3 750.0,142.5 750.2,142.5 750.5,140.3 750.7,135.7 750.9,135.7 751.1,135.7 751.3,137.4 751.5,137.4 751.7,137.4 751.9,138.5 752.1,138.0 752.3,138.0 752.5,138.0 752.7,139.5 752.9,139.2 753.1,139.2 753.4,139.2 753.6,139.2 753.8,139.2 754.0,139.2 754.2,139.2 754.4,137.4 754.6,137.4 754.8,137.4 755.0,137.4 755.2,139.2 755.4,132.6 755.6,131.3 755.8,127.6 756.0,127.6 756.2,127.6 756.5,127.6 756.7,127.6 756.9,127.6 757.1,126.6 757.3,126.6 757.5,127.6 757.7,126.6 757.9,130.1 758.1,126.6 758.3,127.6 758.5,127.6 758.7,128.2 758.9,135.4 759.1,127.6 759.4,127.6 759.6,127.6 759.8,126.6 760.0,128.1 760.2,127.6 760.4,127.6 760.6,127.6 760.8,126.9 761.0,126.9 761.2,126.9 761.4,126.9 761.6,129.1 761.8,126.0 762.0,126.0 762.3,129.1 762.5,127.6 762.7,127.6 762.9,127.6 763.1,127.6 763.3,121.6 763.5,120.2 763.7,120.2 763.9,120.7 764.1,121.0 764.3,121.3 764.5,121.6 764.7,121.6 764.9,120.7 765.2,120.7 765.4,120.7 765.6,120.7 765.8,120.2 766.0,113.4 766.2,120.2 766.4,110.9 766.6,110.9 766.8,110.9 767.0,109.4 767.2,108.4 767.4,108.4 767.6,109.9 767.8,109.9 768.1,109.9 768.3,109.5 768.5,109.5 768.7,109.6 768.9,110.0 769.1,110.0 769.3,108.0 769.5,109.2 769.7,108.0 769.9,106.8 770.1,105.6 770.3,104.4 770.5,103.3 770.7,103.3 770.9,102.1 771.2,96.6 771.4,95.6 771.6,94.6 771.8,94.6 772.0,92.5 772.2,92.9 772.4,91.3 772.6,93.5 772.8,94.3 773.0,92.1 773.2,96.6 773.4,96.6 773.6,96.6 773.8,98.8 774.1,96.6 774.3,101.0 774.5,94.8 774.7,95.6 774.9,94.8 775.1,94.8 775.3,94.8 775.5,98.8 775.7,98.8 775.9,95.8 776.1,96.6 776.3,93.9 776.5,94.6 776.7,94.6 777.0,92.2 777.2,92.1 777.4,91.3 777.6,90.5 777.8,91.3 778.0,90.5 778.2,90.5 778.4,90.5 778.6,92.1 778.8,90.5 779.0,90.5 779.2,90.5 779.4,91.3 779.6,90.5 779.9,92.5 780.1,91.3 780.3,91.5 780.5,90.5 780.7,90.1 780.9,90.1 781.1,93.5 781.3,92.5 781.5,88.6 781.7,88.6 781.9,88.6 782.1,88.6 782.3,88.8 782.5,87.6 782.7,92.5 783.0,92.5 783.2,91.1 783.4,92.5 783.6,91.1 783.8,91.7 784.0,92.5 784.2,90.5 784.4,90.9 784.6,92.5 784.8,90.9 785.0,90.9 785.2,90.5 785.4,86.9 785.6,86.9 785.9,90.7 786.1,88.4 786.3,88.6 786.5,88.6 786.7,87.6 786.9,87.1 787.1,87.1 787.3,87.8 787.5,86.7 787.7,87.5 787.9,86.7 788.1,89.6 788.3,87.1 788.5,87.1 788.8,86.7 789.0,84.9 789.2,84.9 789.4,84.9 789.6,83.9 789.8,84.9 790.0,84.9 790.2,84.9 790.4,81.7 790.6,81.3 790.8,83.9 791.0,86.8 791.2,90.7 791.4,85.8 791.7,81.3 791.9,81.3 792.1,80.4 792.3,79.6 792.5,79.6 792.7,79.6 792.9,79.9 793.1,79.6 793.3,78.7 793.5,78.7 793.7,77.9 793.9,77.0 794.1,76.5 794.3,76.5 794.6,76.5 794.8,77.0 795.0,77.2 795.2,77.2 795.4,79.4 795.6,78.1 795.8,77.9 796.0,77.9"/>
<text x="78" y="392" font-size="11" fill="#16a34a">Total return +1,765%</text><text x="268" y="392" font-size="11" fill="#2563eb">Price-only +1,746%</text><text x="78" y="362" font-size="11" text-anchor="middle" fill="#64748b">2012-09</text><text x="258" y="362" font-size="11" text-anchor="middle" fill="#64748b">2016-03</text><text x="437" y="362" font-size="11" text-anchor="middle" fill="#64748b">2019-08</text><text x="616" y="362" font-size="11" text-anchor="middle" fill="#64748b">2023-01</text><text x="796" y="362" font-size="11" text-anchor="middle" fill="#64748b">2026-07</text></svg>