<svg xmlns="http://www.w3.org/2000/svg" width="720" height="360" viewBox="0 0 720 360">
  <rect width="720" height="360" fill="#fafafa"/>
  <text x="56" y="22" font-size="13" font-family="sans-serif" fill="#222">AZLCZ total return (rebased 100) · cumulative distributions $0.00/sh · market cap $324.0M</text>
  <line x1="56" y1="308" x2="696" y2="308" stroke="#ccc"/>
  <line x1="56" y1="48" x2="56" y2="308" stroke="#ccc"/>
  <polyline fill="none" stroke="#2563eb" stroke-width="2" points="56.0,289.3 56.2,289.3 56.4,289.3 56.6,289.3 56.7,289.3 56.9,289.3 57.1,289.3 57.3,289.3 57.5,289.3 57.7,289.3 57.9,289.3 58.0,289.3 58.2,289.3 58.4,289.3 58.6,289.3 58.8,289.3 59.0,289.3 59.2,289.3 59.3,289.3 59.5,289.3 59.7,289.7 59.9,289.7 60.1,289.7 60.3,289.7 60.5,289.7 60.6,289.7 60.8,289.7 61.0,289.7 61.2,290.1 61.4,290.1 61.6,290.1 61.8,289.9 61.9,289.9 62.1,289.9 62.3,289.9 62.5,290.0 62.7,290.0 62.9,289.7 63.1,289.7 63.2,289.7 63.4,289.7 63.6,289.7 63.8,289.7 64.0,289.7 64.2,289.7 64.4,289.5 64.5,289.5 64.7,289.9 64.9,289.9 65.1,289.9 65.3,289.5 65.5,289.5 65.7,289.5 65.8,289.5 66.0,289.5 66.2,289.5 66.4,289.5 66.6,289.5 66.8,289.5 67.0,290.0 67.1,290.0 67.3,290.0 67.5,290.0 67.7,290.0 67.9,289.3 68.1,289.5 68.3,289.5 68.4,289.5 68.6,289.5 68.8,289.5 69.0,289.0 69.2,289.0 69.4,289.0 69.6,289.0 69.7,289.3 69.9,289.3 70.1,288.6 70.3,288.6 70.5,288.6 70.7,289.3 70.9,289.3 71.0,289.3 71.2,289.3 71.4,289.3 71.6,289.3 71.8,289.3 72.0,289.3 72.2,289.3 72.3,289.3 72.5,289.3 72.7,289.3 72.9,289.0 73.1,289.0 73.3,289.0 73.5,289.0 73.6,289.0 73.8,289.0 74.0,288.4 74.2,288.4 74.4,288.4 74.6,288.4 74.8,288.4 74.9,288.4 75.1,288.4 75.3,288.4 75.5,288.4 75.7,288.4 75.9,288.4 76.1,288.4 76.2,288.4 76.4,288.4 76.6,288.4 76.8,288.4 77.0,288.4 77.2,288.4 77.4,288.4 77.6,288.4 77.7,288.4 77.9,289.6 78.1,289.6 78.3,289.2 78.5,289.2 78.7,289.2 78.9,289.2 79.0,289.2 79.2,288.8 79.4,288.8 79.6,288.8 79.8,288.8 80.0,288.8 80.2,288.8 80.3,288.8 80.5,288.8 80.7,288.8 80.9,288.8 81.1,288.8 81.3,288.8 81.5,288.8 81.6,288.8 81.8,288.8 82.0,288.8 82.2,288.8 82.4,288.8 82.6,288.8 82.8,288.8 82.9,288.8 83.1,288.8 83.3,288.8 83.5,288.8 83.7,288.8 83.9,288.8 84.1,288.8 84.2,288.8 84.4,288.8 84.6,288.8 84.8,288.8 85.0,288.8 85.2,288.8 85.4,288.8 85.5,288.8 85.7,288.8 85.9,288.8 86.1,288.8 86.3,288.8 86.5,288.8 86.7,288.8 86.8,288.8 87.0,288.8 87.2,288.8 87.4,288.8 87.6,288.8 87.8,288.8 88.0,288.8 88.1,288.8 88.3,288.8 88.5,288.8 88.7,288.8 88.9,288.8 89.1,288.8 89.3,288.8 89.4,288.8 89.6,288.8 89.8,288.8 90.0,288.8 90.2,288.8 90.4,288.8 90.6,288.8 90.7,288.8 90.9,288.8 91.1,288.8 91.3,288.8 91.5,288.8 91.7,288.8 91.9,288.8 92.0,288.8 92.2,288.8 92.4,288.8 92.6,289.0 92.8,289.0 93.0,289.0 93.2,288.8 93.3,288.8 93.5,288.8 93.7,288.8 93.9,288.8 94.1,288.8 94.3,288.8 94.5,288.8 94.6,288.8 94.8,288.8 95.0,288.8 95.2,288.7 95.4,288.7 95.6,289.0 95.8,289.0 95.9,289.0 96.1,289.0 96.3,289.0 96.5,289.0 96.7,289.0 96.9,289.0 97.1,289.0 97.2,289.0 97.4,289.0 97.6,289.0 97.8,289.0 98.0,289.0 98.2,289.0 98.4,288.8 98.5,285.7 98.7,285.7 98.9,285.7 99.1,285.7 99.3,285.7 99.5,285.7 99.7,288.8 99.8,288.8 100.0,288.8 100.2,288.8 100.4,288.8 100.6,288.8 100.8,288.8 101.0,288.8 101.1,288.8 101.3,288.8 101.5,288.8 101.7,288.8 101.9,288.8 102.1,288.8 102.3,288.8 102.4,288.8 102.6,288.8 102.8,288.8 103.0,288.8 103.2,288.8 103.4,288.8 103.6,288.8 103.7,288.8 103.9,288.8 104.1,288.8 104.3,288.8 104.5,288.8 104.7,288.8 104.9,288.8 105.0,288.8 105.2,288.8 105.4,288.8 105.6,288.8 105.8,288.8 106.0,288.8 106.2,288.8 106.3,288.8 106.5,288.8 106.7,288.8 106.9,288.8 107.1,288.8 107.3,288.8 107.5,288.8 107.6,288.8 107.8,288.8 108.0,288.8 108.2,288.8 108.4,288.8 108.6,288.8 108.8,288.8 108.9,288.8 109.1,288.8 109.3,288.8 109.5,288.8 109.7,288.8 109.9,288.8 110.1,287.8 110.2,287.8 110.4,287.8 110.6,287.8 110.8,287.8 111.0,287.8 111.2,287.8 111.4,287.8 111.5,287.8 111.7,287.8 111.9,287.8 112.1,287.8 112.3,287.8 112.5,287.8 112.7,287.8 112.8,287.8 113.0,287.8 113.2,287.8 113.4,287.8 113.6,287.8 113.8,287.8 114.0,287.8 114.1,287.8 114.3,287.8 114.5,287.8 114.7,287.8 114.9,287.8 115.1,287.8 115.3,287.8 115.4,287.8 115.6,287.8 115.8,287.8 116.0,287.8 116.2,287.8 116.4,287.8 116.6,287.8 116.7,287.8 116.9,287.8 117.1,287.8 117.3,287.8 117.5,287.8 117.7,287.8 117.9,287.8 118.0,287.8 118.2,287.8 118.4,287.8 118.6,287.8 118.8,287.8 119.0,284.7 119.2,284.7 119.3,284.7 119.5,284.7 119.7,284.7 119.9,284.7 120.1,284.7 120.3,284.7 120.5,284.7 120.7,284.7 120.8,284.7 121.0,284.7 121.2,284.7 121.4,284.7 121.6,284.7 121.8,288.7 122.0,288.7 122.1,288.7 122.3,288.7 122.5,288.7 122.7,288.7 122.9,288.7 123.1,288.7 123.3,288.7 123.4,288.7 123.6,288.7 123.8,288.3 124.0,288.3 124.2,288.3 124.4,288.3 124.6,285.7 124.7,285.7 124.9,285.7 125.1,287.3 125.3,287.3 125.5,287.3 125.7,287.3 125.9,286.3 126.0,286.3 126.2,287.8 126.4,287.8 126.6,287.8 126.8,287.8 127.0,287.8 127.2,287.3 127.3,287.3 127.5,286.6 127.7,286.5 127.9,286.5 128.1,286.5 128.3,286.5 128.5,286.5 128.6,286.5 128.8,286.5 129.0,286.5 129.2,286.5 129.4,286.5 129.6,286.5 129.8,286.5 129.9,286.5 130.1,286.5 130.3,286.5 130.5,286.5 130.7,286.5 130.9,286.5 131.1,286.5 131.2,285.9 131.4,285.9 131.6,285.9 131.8,285.9 132.0,285.9 132.2,285.9 132.4,285.9 132.5,285.9 132.7,285.9 132.9,285.9 133.1,285.9 133.3,286.4 133.5,286.4 133.7,286.1 133.8,286.1 134.0,286.1 134.2,286.1 134.4,286.1 134.6,286.1 134.8,286.1 135.0,286.1 135.1,286.1 135.3,286.1 135.5,286.1 135.7,286.3 135.9,286.3 136.1,286.3 136.3,286.3 136.4,286.3 136.6,286.3 136.8,286.3 137.0,286.3 137.2,286.3 137.4,285.4 137.6,285.4 137.7,285.4 137.9,285.4 138.1,285.4 138.3,285.4 138.5,285.4 138.7,285.4 138.9,285.4 139.0,285.4 139.2,285.4 139.4,285.4 139.6,284.7 139.8,284.7 140.0,284.7 140.2,284.7 140.3,284.7 140.5,284.7 140.7,284.7 140.9,284.7 141.1,284.7 141.3,284.7 141.5,284.7 141.6,284.7 141.8,284.7 142.0,284.7 142.2,284.7 142.4,284.7 142.6,284.7 142.8,284.7 142.9,284.7 143.1,284.7 143.3,284.7 143.5,284.7 143.7,284.7 143.9,284.7 144.1,281.6 144.2,281.6 144.4,281.6 144.6,281.6 144.8,281.6 145.0,281.6 145.2,281.6 145.4,281.6 145.5,281.6 145.7,281.6 145.9,281.8 146.1,281.9 146.3,281.9 146.5,281.9 146.7,282.1 146.8,281.8 147.0,281.8 147.2,281.8 147.4,282.1 147.6,282.0 147.8,282.0 148.0,282.0 148.1,282.0 148.3,282.0 148.5,282.0 148.7,282.9 148.9,282.9 149.1,282.9 149.3,282.9 149.4,282.9 149.6,282.9 149.8,282.9 150.0,282.9 150.2,282.9 150.4,282.9 150.6,282.9 150.7,282.9 150.9,282.9 151.1,282.9 151.3,282.9 151.5,282.9 151.7,282.9 151.9,282.9 152.0,284.7 152.2,284.7 152.4,284.7 152.6,284.7 152.8,284.7 153.0,284.7 153.2,284.7 153.3,284.7 153.5,284.7 153.7,284.7 153.9,284.7 154.1,284.7 154.3,284.7 154.5,284.7 154.6,284.7 154.8,284.7 155.0,284.7 155.2,284.7 155.4,284.7 155.6,284.7 155.8,284.7 155.9,284.7 156.1,284.7 156.3,284.7 156.5,284.7 156.7,284.7 156.9,284.7 157.1,284.7 157.2,284.7 157.4,284.7 157.6,284.7 157.8,284.7 158.0,284.7 158.2,284.7 158.4,284.7 158.5,284.7 158.7,283.7 158.9,283.7 159.1,283.7 159.3,283.7 159.5,283.7 159.7,282.7 159.8,282.7 160.0,282.7 160.2,282.7 160.4,282.7 160.6,282.7 160.8,282.7 161.0,282.7 161.1,282.7 161.3,282.7 161.5,282.7 161.7,282.7 161.9,282.7 162.1,282.7 162.3,282.7 162.4,282.7 162.6,282.7 162.8,282.7 163.0,282.7 163.2,282.7 163.4,282.7 163.6,282.7 163.8,282.7 163.9,282.7 164.1,283.0 164.3,283.0 164.5,283.0 164.7,283.0 164.9,283.7 165.1,284.6 165.2,284.6 165.4,284.6 165.6,284.6 165.8,283.0 166.0,287.8 166.2,284.7 166.4,284.7 166.5,284.7 166.7,284.7 166.9,284.6 167.1,284.7 167.3,284.7 167.5,284.7 167.7,284.7 167.8,284.7 168.0,284.7 168.2,285.7 168.4,285.7 168.6,285.7 168.8,285.7 169.0,285.7 169.1,285.7 169.3,285.7 169.5,285.7 169.7,285.7 169.9,285.7 170.1,285.7 170.3,285.7 170.4,285.2 170.6,285.2 170.8,285.2 171.0,285.2 171.2,285.2 171.4,285.2 171.6,285.2 171.7,285.2 171.9,285.2 172.1,285.2 172.3,285.2 172.5,285.1 172.7,285.1 172.9,285.1 173.0,285.2 173.2,285.2 173.4,285.2 173.6,285.2 173.8,285.2 174.0,285.2 174.2,285.2 174.3,285.2 174.5,285.2 174.7,285.2 174.9,285.2 175.1,285.2 175.3,285.2 175.5,285.2 175.6,285.2 175.8,285.2 176.0,285.2 176.2,285.2 176.4,285.2 176.6,285.2 176.8,285.2 176.9,285.2 177.1,285.2 177.3,285.2 177.5,285.2 177.7,285.2 177.9,285.2 178.1,285.2 178.2,285.2 178.4,285.2 178.6,285.2 178.8,285.2 179.0,285.2 179.2,285.2 179.4,283.2 179.5,283.2 179.7,283.2 179.9,282.2 180.1,282.2 180.3,284.7 180.5,284.7 180.7,284.7 180.8,284.7 181.0,284.7 181.2,284.7 181.4,284.7 181.6,284.7 181.8,284.7 182.0,284.7 182.1,284.7 182.3,284.7 182.5,284.7 182.7,284.7 182.9,284.7 183.1,284.7 183.3,284.7 183.4,284.7 183.6,284.7 183.8,284.7 184.0,284.7 184.2,284.7 184.4,284.7 184.6,284.7 184.7,284.7 184.9,284.7 185.1,284.7 185.3,284.7 185.5,284.7 185.7,284.7 185.9,284.7 186.0,284.7 186.2,284.7 186.4,284.7 186.6,284.7 186.8,284.7 187.0,284.7 187.2,284.7 187.3,284.7 187.5,284.7 187.7,284.7 187.9,284.7 188.1,284.7 188.3,284.7 188.5,284.7 188.6,284.7 188.8,284.7 189.0,284.7 189.2,284.7 189.4,284.7 189.6,284.7 189.8,284.7 189.9,284.2 190.1,284.2 190.3,284.4 190.5,284.4 190.7,284.4 190.9,284.4 191.1,284.4 191.2,284.4 191.4,284.4 191.6,284.4 191.8,284.4 192.0,284.4 192.2,284.4 192.4,284.4 192.5,284.4 192.7,284.4 192.9,284.3 193.1,285.2 193.3,285.2 193.5,285.2 193.7,285.2 193.8,285.2 194.0,285.2 194.2,285.2 194.4,285.2 194.6,285.2 194.8,285.2 195.0,285.2 195.1,285.2 195.3,285.2 195.5,285.2 195.7,285.2 195.9,285.2 196.1,285.2 196.3,285.2 196.4,285.2 196.6,285.2 196.8,284.7 197.0,284.7 197.2,284.7 197.4,285.2 197.6,285.2 197.7,285.2 197.9,285.3 198.1,285.2 198.3,285.2 198.5,285.2 198.7,285.7 198.9,285.7 199.0,285.7 199.2,285.7 199.4,285.7 199.6,285.7 199.8,285.7 200.0,285.7 200.2,285.7 200.3,285.7 200.5,285.7 200.7,285.7 200.9,285.2 201.1,285.2 201.3,285.9 201.5,285.9 201.6,285.9 201.8,285.9 202.0,285.9 202.2,285.9 202.4,285.2 202.6,285.2 202.8,285.2 202.9,285.2 203.1,285.2 203.3,285.2 203.5,285.2 203.7,285.2 203.9,285.2 204.1,285.2 204.2,285.2 204.4,285.2 204.6,286.3 204.8,286.3 205.0,286.3 205.2,286.3 205.4,286.3 205.6,286.3 205.7,286.3 205.9,286.3 206.1,286.3 206.3,286.3 206.5,286.3 206.7,286.3 206.9,286.3 207.0,286.3 207.2,286.3 207.4,285.6 207.6,285.6 207.8,285.6 208.0,285.6 208.2,285.6 208.3,285.6 208.5,285.6 208.7,285.6 208.9,285.6 209.1,285.6 209.3,285.6 209.5,285.6 209.6,285.6 209.8,285.6 210.0,285.6 210.2,285.6 210.4,285.6 210.6,285.6 210.8,285.6 210.9,285.6 211.1,285.6 211.3,285.6 211.5,285.6 211.7,285.6 211.9,285.6 212.1,285.6 212.2,285.6 212.4,285.6 212.6,285.6 212.8,285.6 213.0,285.6 213.2,285.6 213.4,285.6 213.5,287.8 213.7,287.8 213.9,287.8 214.1,287.8 214.3,287.8 214.5,287.8 214.7,287.0 214.8,287.0 215.0,285.8 215.2,285.2 215.4,285.2 215.6,285.2 215.8,285.2 216.0,285.2 216.1,285.2 216.3,285.2 216.5,285.2 216.7,285.2 216.9,285.2 217.1,285.2 217.3,283.5 217.4,283.5 217.6,283.3 217.8,283.3 218.0,283.2 218.2,283.2 218.4,283.2 218.6,282.9 218.7,282.9 218.9,282.9 219.1,282.9 219.3,282.9 219.5,282.2 219.7,282.7 219.9,282.7 220.0,283.3 220.2,283.3 220.4,283.3 220.6,283.3 220.8,283.3 221.0,283.3 221.2,283.3 221.3,283.3 221.5,283.3 221.7,283.3 221.9,283.3 222.1,283.3 222.3,282.1 222.5,282.1 222.6,282.1 222.8,282.1 223.0,282.1 223.2,282.1 223.4,282.1 223.6,282.1 223.8,282.1 223.9,282.1 224.1,282.1 224.3,282.1 224.5,282.1 224.7,282.1 224.9,282.1 225.1,282.1 225.2,282.1 225.4,282.1 225.6,283.7 225.8,283.7 226.0,283.7 226.2,283.7 226.4,283.7 226.5,283.7 226.7,283.7 226.9,283.7 227.1,283.7 227.3,283.7 227.5,283.7 227.7,283.7 227.8,283.7 228.0,283.7 228.2,283.7 228.4,283.7 228.6,283.7 228.8,283.7 229.0,283.7 229.1,283.7 229.3,283.7 229.5,283.7 229.7,283.7 229.9,283.7 230.1,283.7 230.3,283.7 230.4,283.7 230.6,283.7 230.8,283.7 231.0,283.7 231.2,284.5 231.4,284.5 231.6,284.5 231.7,284.5 231.9,284.5 232.1,284.5 232.3,284.5 232.5,284.5 232.7,284.5 232.9,284.5 233.0,284.5 233.2,284.5 233.4,284.5 233.6,284.5 233.8,284.5 234.0,284.5 234.2,284.5 234.3,284.5 234.5,284.5 234.7,284.5 234.9,284.5 235.1,284.5 235.3,284.5 235.5,284.5 235.6,284.5 235.8,284.5 236.0,284.5 236.2,284.5 236.4,284.5 236.6,284.5 236.8,284.5 236.9,284.5 237.1,284.5 237.3,284.5 237.5,284.5 237.7,284.5 237.9,284.5 238.1,282.1 238.2,282.1 238.4,282.1 238.6,282.1 238.8,282.1 239.0,282.1 239.2,282.1 239.4,283.2 239.5,283.2 239.7,283.2 239.9,283.2 240.1,283.2 240.3,284.0 240.5,284.0 240.7,284.0 240.8,283.8 241.0,283.8 241.2,283.8 241.4,283.8 241.6,283.8 241.8,283.8 242.0,283.8 242.1,283.8 242.3,283.8 242.5,283.8 242.7,283.8 242.9,283.8 243.1,283.8 243.3,283.8 243.4,283.8 243.6,283.8 243.8,283.8 244.0,283.8 244.2,283.8 244.4,283.8 244.6,283.8 244.7,282.7 244.9,282.7 245.1,282.7 245.3,282.7 245.5,282.1 245.7,282.1 245.9,283.2 246.0,283.2 246.2,283.2 246.4,283.2 246.6,283.2 246.8,283.2 247.0,283.2 247.2,283.2 247.3,283.2 247.5,283.2 247.7,283.2 247.9,283.2 248.1,283.2 248.3,283.2 248.5,283.2 248.7,283.2 248.8,283.2 249.0,283.2 249.2,283.2 249.4,283.2 249.6,283.2 249.8,283.2 250.0,283.2 250.1,284.7 250.3,284.0 250.5,284.0 250.7,284.0 250.9,284.0 251.1,284.0 251.3,284.0 251.4,284.0 251.6,284.0 251.8,284.0 252.0,284.0 252.2,284.0 252.4,284.0 252.6,284.0 252.7,282.7 252.9,282.7 253.1,282.7 253.3,282.7 253.5,282.7 253.7,282.7 253.9,284.7 254.0,284.7 254.2,284.7 254.4,284.2 254.6,284.7 254.8,284.7 255.0,284.7 255.2,284.7 255.3,284.2 255.5,284.2 255.7,284.2 255.9,284.2 256.1,284.2 256.3,284.6 256.5,284.7 256.6,284.7 256.8,286.3 257.0,286.3 257.2,285.2 257.4,285.2 257.6,285.2 257.8,286.2 257.9,286.2 258.1,286.2 258.3,286.2 258.5,286.2 258.7,286.2 258.9,286.2 259.1,286.2 259.2,286.2 259.4,286.2 259.6,285.7 259.8,285.7 260.0,285.7 260.2,285.7 260.4,285.7 260.5,285.7 260.7,284.4 260.9,284.4 261.1,284.4 261.3,284.4 261.5,284.4 261.7,284.4 261.8,283.7 262.0,283.7 262.2,283.7 262.4,283.7 262.6,283.7 262.8,283.7 263.0,283.7 263.1,283.7 263.3,283.7 263.5,283.7 263.7,284.2 263.9,284.0 264.1,284.0 264.3,284.0 264.4,284.0 264.6,284.0 264.8,284.0 265.0,284.0 265.2,284.0 265.4,284.0 265.6,284.0 265.7,284.0 265.9,284.0 266.1,284.0 266.3,284.0 266.5,284.0 266.7,284.0 266.9,284.0 267.0,284.0 267.2,284.0 267.4,284.0 267.6,284.0 267.8,284.0 268.0,282.1 268.2,282.1 268.3,282.3 268.5,282.3 268.7,282.3 268.9,280.6 269.1,280.6 269.3,282.1 269.5,282.1 269.6,282.1 269.8,282.1 270.0,282.1 270.2,282.1 270.4,282.1 270.6,282.1 270.8,282.1 270.9,282.1 271.1,282.1 271.3,282.1 271.5,282.1 271.7,282.1 271.9,282.1 272.1,282.1 272.2,282.1 272.4,282.1 272.6,282.1 272.8,282.1 273.0,282.1 273.2,282.1 273.4,282.1 273.5,282.1 273.7,282.1 273.9,282.1 274.1,282.1 274.3,282.1 274.5,282.1 274.7,280.6 274.8,280.6 275.0,280.6 275.2,280.6 275.4,280.6 275.6,280.6 275.8,280.6 276.0,282.1 276.1,282.1 276.3,282.1 276.5,282.1 276.7,282.1 276.9,282.1 277.1,282.1 277.3,282.1 277.4,282.1 277.6,282.1 277.8,282.1 278.0,282.1 278.2,282.1 278.4,282.1 278.6,282.1 278.7,282.1 278.9,282.1 279.1,282.1 279.3,282.1 279.5,282.1 279.7,282.1 279.9,282.1 280.0,282.1 280.2,282.1 280.4,282.1 280.6,282.1 280.8,282.1 281.0,280.8 281.2,280.8 281.3,280.8 281.5,280.8 281.7,280.8 281.9,280.8 282.1,280.8 282.3,280.8 282.5,280.8 282.6,280.8 282.8,280.8 283.0,281.5 283.2,281.5 283.4,281.5 283.6,281.5 283.8,281.5 283.9,281.5 284.1,281.5 284.3,281.5 284.5,281.5 284.7,281.5 284.9,281.5 285.1,281.5 285.2,281.5 285.4,281.5 285.6,281.5 285.8,281.5 286.0,281.1 286.2,281.3 286.4,281.3 286.5,281.3 286.7,281.3 286.9,281.3 287.1,280.3 287.3,280.3 287.5,280.3 287.7,280.3 287.8,280.3 288.0,281.1 288.2,281.1 288.4,281.1 288.6,281.1 288.8,281.1 289.0,281.1 289.1,280.5 289.3,280.5 289.5,280.5 289.7,280.5 289.9,280.5 290.1,280.5 290.3,280.5 290.4,280.5 290.6,281.2 290.8,281.2 291.0,281.2 291.2,281.2 291.4,281.2 291.6,281.2 291.8,280.4 291.9,280.4 292.1,280.4 292.3,280.4 292.5,280.4 292.7,280.4 292.9,280.4 293.1,280.4 293.2,280.4 293.4,280.4 293.6,280.4 293.8,280.4 294.0,280.4 294.2,280.4 294.4,280.4 294.5,280.4 294.7,280.4 294.9,280.4 295.1,280.4 295.3,280.4 295.5,280.4 295.7,280.4 295.8,280.4 296.0,280.1 296.2,280.1 296.4,280.1 296.6,280.1 296.8,280.1 297.0,280.1 297.1,280.1 297.3,280.1 297.5,280.1 297.7,280.1 297.9,280.1 298.1,280.1 298.3,280.6 298.4,280.6 298.6,280.6 298.8,280.6 299.0,280.6 299.2,280.6 299.4,280.6 299.6,280.6 299.7,280.6 299.9,280.6 300.1,281.0 300.3,281.0 300.5,281.0 300.7,281.0 300.9,281.0 301.0,281.0 301.2,281.0 301.4,281.0 301.6,281.8 301.8,281.8 302.0,281.8 302.2,281.8 302.3,281.8 302.5,281.8 302.7,281.8 302.9,281.8 303.1,280.9 303.3,280.9 303.5,280.9 303.6,280.8 303.8,280.8 304.0,280.8 304.2,280.1 304.4,280.1 304.6,280.1 304.8,280.1 304.9,280.1 305.1,280.1 305.3,280.1 305.5,280.1 305.7,280.1 305.9,280.1 306.1,280.1 306.2,280.1 306.4,280.1 306.6,280.4 306.8,280.4 307.0,280.4 307.2,280.4 307.4,280.4 307.5,280.4 307.7,280.4 307.9,280.4 308.1,280.4 308.3,280.4 308.5,280.4 308.7,280.4 308.8,280.4 309.0,280.4 309.2,280.0 309.4,280.0 309.6,280.0 309.8,280.0 310.0,280.0 310.1,280.0 310.3,280.0 310.5,280.0 310.7,280.0 310.9,280.0 311.1,280.0 311.3,280.0 311.4,280.0 311.6,280.0 311.8,280.0 312.0,279.0 312.2,279.0 312.4,279.0 312.6,279.0 312.7,280.2 312.9,280.2 313.1,280.2 313.3,280.2 313.5,280.2 313.7,280.2 313.9,280.2 314.0,280.2 314.2,280.2 314.4,280.2 314.6,280.2 314.8,280.2 315.0,280.2 315.2,280.2 315.3,280.2 315.5,280.2 315.7,280.2 315.9,280.2 316.1,280.2 316.3,280.2 316.5,280.2 316.6,280.2 316.8,280.2 317.0,278.1 317.2,278.1 317.4,278.7 317.6,278.7 317.8,278.7 317.9,278.7 318.1,278.7 318.3,278.7 318.5,278.7 318.7,279.8 318.9,279.8 319.1,278.7 319.2,278.7 319.4,278.7 319.6,278.7 319.8,278.7 320.0,278.7 320.2,278.7 320.4,278.7 320.5,278.7 320.7,278.7 320.9,278.7 321.1,278.7 321.3,278.7 321.5,278.7 321.7,279.0 321.8,279.0 322.0,279.0 322.2,279.0 322.4,279.0 322.6,279.5 322.8,279.5 323.0,279.5 323.1,279.5 323.3,279.5 323.5,279.5 323.7,279.5 323.9,279.5 324.1,279.5 324.3,279.5 324.4,279.5 324.6,279.5 324.8,279.5 325.0,279.5 325.2,279.5 325.4,279.5 325.6,279.5 325.7,279.5 325.9,278.8 326.1,278.9 326.3,278.9 326.5,278.9 326.7,278.9 326.9,278.9 327.0,278.9 327.2,278.9 327.4,279.0 327.6,279.0 327.8,279.6 328.0,279.0 328.2,279.0 328.3,279.2 328.5,279.2 328.7,279.2 328.9,279.2 329.1,279.2 329.3,279.2 329.5,279.2 329.6,279.2 329.8,279.6 330.0,279.6 330.2,279.6 330.4,279.6 330.6,279.6 330.8,279.6 330.9,279.6 331.1,279.6 331.3,279.6 331.5,279.6 331.7,279.6 331.9,279.6 332.1,279.6 332.2,279.6 332.4,279.6 332.6,279.6 332.8,279.6 333.0,279.6 333.2,279.6 333.4,279.6 333.6,279.6 333.7,279.6 333.9,279.6 334.1,279.6 334.3,278.7 334.5,278.7 334.7,278.7 334.9,278.7 335.0,279.1 335.2,279.1 335.4,279.1 335.6,279.1 335.8,279.1 336.0,279.1 336.2,279.1 336.3,279.1 336.5,279.1 336.7,279.1 336.9,279.1 337.1,279.1 337.3,279.1 337.5,279.1 337.6,279.1 337.8,279.1 338.0,279.1 338.2,279.1 338.4,279.1 338.6,279.1 338.8,281.7 338.9,281.7 339.1,281.7 339.3,281.7 339.5,281.7 339.7,281.7 339.9,281.7 340.1,281.7 340.2,281.7 340.4,281.7 340.6,281.7 340.8,281.7 341.0,281.7 341.2,281.7 341.4,281.7 341.5,281.7 341.7,281.7 341.9,281.7 342.1,281.7 342.3,281.7 342.5,281.7 342.7,281.7 342.8,281.7 343.0,281.7 343.2,281.7 343.4,281.7 343.6,281.7 343.8,281.7 344.0,281.7 344.1,280.6 344.3,283.4 344.5,283.4 344.7,281.8 344.9,281.8 345.1,281.6 345.3,281.6 345.4,281.6 345.6,281.6 345.8,281.6 346.0,281.6 346.2,281.6 346.4,281.6 346.6,281.6 346.7,281.6 346.9,281.1 347.1,281.1 347.3,281.1 347.5,281.1 347.7,281.1 347.9,281.1 348.0,281.1 348.2,281.1 348.4,281.1 348.6,279.8 348.8,279.8 349.0,279.8 349.2,279.8 349.3,279.8 349.5,280.0 349.7,278.0 349.9,278.0 350.1,278.0 350.3,278.0 350.5,278.0 350.6,278.0 350.8,278.0 351.0,278.0 351.2,278.0 351.4,279.0 351.6,279.0 351.8,279.0 351.9,279.0 352.1,279.0 352.3,279.0 352.5,279.0 352.7,279.0 352.9,279.0 353.1,279.0 353.2,279.0 353.4,279.0 353.6,279.0 353.8,279.0 354.0,279.0 354.2,279.0 354.4,279.0 354.5,279.0 354.7,279.7 354.9,279.7 355.1,279.7 355.3,279.7 355.5,282.1 355.7,281.7 355.8,281.6 356.0,281.6 356.2,281.6 356.4,281.6 356.6,281.6 356.8,280.1 357.0,281.9 357.1,281.9 357.3,281.5 357.5,281.5 357.7,281.5 357.9,281.5 358.1,281.5 358.3,281.5 358.4,281.5 358.6,281.5 358.8,281.5 359.0,281.5 359.2,281.5 359.4,281.5 359.6,281.5 359.7,281.5 359.9,281.5 360.1,281.5 360.3,281.5 360.5,280.6 360.7,280.6 360.9,280.6 361.0,280.6 361.2,280.6 361.4,280.6 361.6,280.6 361.8,280.6 362.0,281.8 362.2,282.1 362.3,282.1 362.5,282.1 362.7,282.1 362.9,282.1 363.1,282.1 363.3,282.1 363.5,282.1 363.6,282.1 363.8,282.1 364.0,282.1 364.2,282.1 364.4,282.1 364.6,282.1 364.8,282.1 364.9,282.1 365.1,282.1 365.3,282.1 365.5,282.1 365.7,282.1 365.9,282.9 366.1,283.7 366.2,282.2 366.4,282.7 366.6,282.7 366.8,282.7 367.0,282.7 367.2,282.1 367.4,282.1 367.5,282.3 367.7,280.9 367.9,282.1 368.1,282.6 368.3,282.6 368.5,282.6 368.7,282.6 368.8,282.6 369.0,282.6 369.2,283.0 369.4,283.0 369.6,282.6 369.8,282.6 370.0,282.6 370.1,282.6 370.3,282.6 370.5,282.4 370.7,282.4 370.9,282.4 371.1,282.4 371.3,282.4 371.4,282.4 371.6,282.4 371.8,282.4 372.0,282.4 372.2,282.3 372.4,282.3 372.6,282.3 372.7,282.3 372.9,282.3 373.1,282.1 373.3,282.3 373.5,282.3 373.7,282.3 373.9,282.1 374.0,282.1 374.2,282.1 374.4,282.1 374.6,282.1 374.8,282.1 375.0,282.1 375.2,282.1 375.3,282.1 375.5,282.3 375.7,282.3 375.9,282.3 376.1,282.3 376.3,282.3 376.5,282.3 376.7,282.3 376.8,282.3 377.0,282.3 377.2,282.3 377.4,282.3 377.6,282.3 377.8,282.3 378.0,282.3 378.1,282.3 378.3,282.3 378.5,282.3 378.7,282.3 378.9,282.3 379.1,282.3 379.3,282.3 379.4,282.3 379.6,282.3 379.8,282.4 380.0,282.7 380.2,283.5 380.4,283.7 380.6,283.7 380.7,283.7 380.9,283.7 381.1,283.7 381.3,283.7 381.5,283.7 381.7,284.0 381.9,284.0 382.0,284.9 382.2,284.9 382.4,284.9 382.6,283.7 382.8,283.7 383.0,284.8 383.2,284.6 383.3,285.1 383.5,284.2 383.7,284.2 383.9,284.2 384.1,284.2 384.3,284.2 384.5,284.2 384.6,284.2 384.8,284.2 385.0,284.2 385.2,284.2 385.4,284.7 385.6,284.7 385.8,284.7 385.9,284.7 386.1,284.4 386.3,284.7 386.5,284.7 386.7,284.7 386.9,284.7 387.1,284.4 387.2,284.2 387.4,284.7 387.6,284.7 387.8,284.7 388.0,284.7 388.2,284.7 388.4,284.6 388.5,284.6 388.7,284.6 388.9,284.6 389.1,284.7 389.3,284.7 389.5,284.7 389.7,284.6 389.8,284.6 390.0,284.6 390.2,284.5 390.4,284.5 390.6,284.5 390.8,284.5 391.0,284.5 391.1,284.5 391.3,284.5 391.5,284.5 391.7,284.3 391.9,284.3 392.1,284.3 392.3,284.3 392.4,284.3 392.6,284.3 392.8,284.2 393.0,284.2 393.2,284.2 393.4,285.1 393.6,285.1 393.7,285.1 393.9,285.1 394.1,285.1 394.3,285.1 394.5,284.6 394.7,284.6 394.9,284.2 395.0,284.2 395.2,284.2 395.4,282.7 395.6,282.5 395.8,282.5 396.0,282.3 396.2,282.3 396.3,282.1 396.5,282.1 396.7,281.0 396.9,280.7 397.1,280.7 397.3,280.6 397.5,280.5 397.6,280.7 397.8,280.7 398.0,280.7 398.2,282.1 398.4,282.1 398.6,282.1 398.8,281.8 398.9,281.8 399.1,280.1 399.3,280.1 399.5,280.3 399.7,280.4 399.9,280.4 400.1,280.4 400.2,280.4 400.4,280.1 400.6,280.1 400.8,280.3 401.0,280.3 401.2,280.3 401.4,280.3 401.5,280.3 401.7,280.3 401.9,280.5 402.1,280.5 402.3,280.5 402.5,280.5 402.7,280.5 402.8,280.1 403.0,280.5 403.2,280.5 403.4,280.5 403.6,280.1 403.8,280.1 404.0,280.1 404.1,281.3 404.3,281.5 404.5,282.1 404.7,283.2 404.9,283.8 405.1,283.9 405.3,284.2 405.4,284.2 405.6,283.9 405.8,284.2 406.0,284.2 406.2,282.1 406.4,282.1 406.6,282.1 406.7,282.1 406.9,282.1 407.1,282.1 407.3,282.1 407.5,282.1 407.7,282.1 407.9,282.1 408.0,284.1 408.2,284.1 408.4,282.7 408.6,282.1 408.8,282.1 409.0,282.1 409.2,282.1 409.3,282.1 409.5,281.8 409.7,281.8 409.9,280.1 410.1,280.1 410.3,280.1 410.5,280.1 410.6,280.1 410.8,280.1 411.0,280.1 411.2,280.1 411.4,280.1 411.6,281.1 411.8,281.1 411.9,281.1 412.1,281.1 412.3,281.1 412.5,281.1 412.7,281.1 412.9,280.1 413.1,280.1 413.2,280.1 413.4,280.1 413.6,280.1 413.8,280.1 414.0,280.1 414.2,280.1 414.4,280.1 414.5,280.1 414.7,280.1 414.9,280.1 415.1,280.1 415.3,280.1 415.5,280.1 415.7,280.1 415.8,280.6 416.0,280.1 416.2,280.1 416.4,280.1 416.6,280.1 416.8,280.1 417.0,280.1 417.1,280.1 417.3,280.1 417.5,280.1 417.7,280.1 417.9,280.1 418.1,279.0 418.3,280.1 418.4,280.1 418.6,280.1 418.8,280.1 419.0,280.1 419.2,280.1 419.4,280.1 419.6,277.0 419.8,277.0 419.9,277.0 420.1,280.1 420.3,280.1 420.5,280.1 420.7,280.1 420.9,280.1 421.1,280.1 421.2,280.1 421.4,280.1 421.6,280.1 421.8,280.1 422.0,280.1 422.2,280.1 422.4,280.1 422.5,280.1 422.7,277.0 422.9,277.0 423.1,277.0 423.3,278.2 423.5,278.2 423.7,278.2 423.8,278.2 424.0,280.1 424.2,280.1 424.4,280.1 424.6,279.7 424.8,279.7 425.0,279.0 425.1,279.0 425.3,278.5 425.5,278.5 425.7,278.5 425.9,277.0 426.1,277.0 426.3,277.0 426.4,277.0 426.6,277.0 426.8,278.5 427.0,278.5 427.2,278.5 427.4,278.5 427.6,278.5 427.7,277.0 427.9,277.0 428.1,277.0 428.3,277.0 428.5,277.0 428.7,277.0 428.9,280.1 429.0,279.6 429.2,278.0 429.4,278.0 429.6,278.0 429.8,278.0 430.0,278.0 430.2,278.0 430.3,277.5 430.5,278.2 430.7,278.4 430.9,278.4 431.1,278.0 431.3,278.0 431.5,278.0 431.6,278.0 431.8,278.0 432.0,277.5 432.2,278.5 432.4,278.5 432.6,278.8 432.8,278.8 432.9,278.8 433.1,280.1 433.3,280.1 433.5,280.1 433.7,280.1 433.9,280.1 434.1,280.1 434.2,280.1 434.4,280.1 434.6,279.0 434.8,279.0 435.0,279.0 435.2,279.0 435.4,279.0 435.5,279.0 435.7,279.0 435.9,279.0 436.1,279.0 436.3,279.0 436.5,280.1 436.7,280.1 436.8,280.1 437.0,280.1 437.2,280.1 437.4,280.1 437.6,280.1 437.8,280.1 438.0,280.1 438.1,280.1 438.3,280.1 438.5,280.1 438.7,280.1 438.9,280.1 439.1,280.1 439.3,280.1 439.4,280.1 439.6,280.1 439.8,280.1 440.0,280.5 440.2,280.5 440.4,280.5 440.6,280.5 440.7,280.5 440.9,280.5 441.1,280.5 441.3,280.5 441.5,280.5 441.7,280.5 441.9,280.5 442.0,280.5 442.2,280.5 442.4,276.0 442.6,276.1 442.8,275.5 443.0,275.5 443.2,275.5 443.3,275.5 443.5,275.5 443.7,275.4 443.9,275.4 444.1,275.4 444.3,275.4 444.5,275.4 444.6,275.4 444.8,277.1 445.0,277.1 445.2,277.1 445.4,277.1 445.6,277.1 445.8,277.1 445.9,277.1 446.1,277.1 446.3,277.1 446.5,278.4 446.7,278.4 446.9,278.4 447.1,275.4 447.2,275.4 447.4,275.4 447.6,275.4 447.8,275.4 448.0,275.4 448.2,275.4 448.4,274.4 448.5,274.4 448.7,274.4 448.9,274.4 449.1,274.4 449.3,274.4 449.5,274.4 449.7,274.4 449.8,274.4 450.0,274.4 450.2,274.4 450.4,274.4 450.6,274.4 450.8,274.4 451.0,274.4 451.1,274.4 451.3,274.4 451.5,274.4 451.7,274.4 451.9,274.4 452.1,274.4 452.3,264.1 452.4,263.9 452.6,266.2 452.8,266.2 453.0,266.2 453.2,266.2 453.4,266.2 453.6,266.2 453.7,266.2 453.9,266.9 454.1,266.9 454.3,266.9 454.5,266.9 454.7,266.9 454.9,266.9 455.0,266.9 455.2,266.9 455.4,266.9 455.6,266.9 455.8,266.9 456.0,266.9 456.2,266.9 456.3,266.9 456.5,266.9 456.7,266.9 456.9,266.9 457.1,266.9 457.3,266.9 457.5,266.9 457.6,266.9 457.8,266.9 458.0,271.8 458.2,271.8 458.4,271.8 458.6,266.9 458.8,266.9 458.9,266.9 459.1,266.9 459.3,266.9 459.5,266.9 459.7,266.9 459.9,266.9 460.1,266.9 460.2,266.9 460.4,266.9 460.6,269.2 460.8,269.2 461.0,270.8 461.2,270.8 461.4,270.8 461.6,270.8 461.7,270.8 461.9,270.8 462.1,273.4 462.3,271.8 462.5,269.3 462.7,269.4 462.9,269.4 463.0,269.6 463.2,269.5 463.4,269.5 463.6,269.5 463.8,269.5 464.0,269.5 464.2,269.4 464.3,269.4 464.5,269.8 464.7,269.8 464.9,269.8 465.1,268.3 465.3,268.3 465.5,268.3 465.6,268.3 465.8,268.4 466.0,268.4 466.2,269.8 466.4,269.8 466.6,269.8 466.8,269.8 466.9,269.8 467.1,270.6 467.3,271.6 467.5,273.9 467.7,273.9 467.9,276.0 468.1,276.0 468.2,278.0 468.4,279.6 468.6,279.6 468.8,277.0 469.0,274.5 469.2,272.5 469.4,272.5 469.5,272.5 469.7,272.5 469.9,272.5 470.1,272.5 470.3,272.5 470.5,272.5 470.7,272.5 470.8,272.5 471.0,272.5 471.2,272.5 471.4,272.5 471.6,272.5 471.8,272.5 472.0,272.5 472.1,272.5 472.3,272.5 472.5,272.5 472.7,272.5 472.9,272.5 473.1,272.5 473.3,272.5 473.4,273.8 473.6,273.8 473.8,273.8 474.0,273.8 474.2,273.8 474.4,273.8 474.6,273.8 474.7,275.4 474.9,274.9 475.1,274.9 475.3,279.6 475.5,279.0 475.7,278.6 475.9,279.0 476.0,279.6 476.2,279.4 476.4,281.1 476.6,281.1 476.8,280.6 477.0,280.6 477.2,280.6 477.3,280.3 477.5,279.6 477.7,279.6 477.9,281.1 478.1,280.1 478.3,280.0 478.5,280.0 478.6,280.0 478.8,280.0 479.0,280.0 479.2,279.6 479.4,280.1 479.6,280.1 479.8,280.1 479.9,280.1 480.1,280.1 480.3,280.1 480.5,280.1 480.7,280.1 480.9,280.1 481.1,279.6 481.2,279.6 481.4,277.0 481.6,277.0 481.8,277.0 482.0,276.0 482.2,273.9 482.4,273.9 482.5,273.9 482.7,275.1 482.9,275.3 483.1,275.3 483.3,275.3 483.5,275.3 483.7,275.4 483.8,275.4 484.0,275.4 484.2,275.4 484.4,275.4 484.6,274.1 484.8,274.1 485.0,274.1 485.1,274.1 485.3,274.1 485.5,271.8 485.7,272.4 485.9,272.4 486.1,272.4 486.3,272.3 486.4,272.3 486.6,271.3 486.8,270.3 487.0,270.8 487.2,271.1 487.4,271.1 487.6,271.0 487.7,271.0 487.9,270.8 488.1,271.0 488.3,271.0 488.5,271.0 488.7,270.6 488.9,270.6 489.0,270.6 489.2,270.6 489.4,270.0 489.6,270.5 489.8,268.8 490.0,268.8 490.2,270.3 490.3,270.5 490.5,270.6 490.7,270.6 490.9,270.6 491.1,270.6 491.3,270.6 491.5,270.6 491.6,270.6 491.8,270.6 492.0,270.6 492.2,270.6 492.4,270.6 492.6,270.6 492.8,270.6 492.9,270.6 493.1,268.2 493.3,268.2 493.5,261.5 493.7,261.5 493.9,261.5 494.1,264.1 494.2,264.1 494.4,264.1 494.6,264.1 494.8,264.1 495.0,264.1 495.2,264.1 495.4,264.1 495.5,264.1 495.7,268.2 495.9,268.2 496.1,268.2 496.3,270.5 496.5,266.2 496.7,268.2 496.8,267.5 497.0,267.5 497.2,267.5 497.4,267.7 497.6,267.7 497.8,267.7 498.0,267.7 498.1,267.7 498.3,267.7 498.5,267.7 498.7,267.7 498.9,267.7 499.1,267.7 499.3,267.7 499.4,267.7 499.6,267.7 499.8,264.1 500.0,264.1 500.2,263.6 500.4,270.3 500.6,270.3 500.7,270.3 500.9,270.0 501.1,270.0 501.3,270.0 501.5,270.0 501.7,270.0 501.9,269.7 502.0,269.8 502.2,269.8 502.4,269.8 502.6,269.3 502.8,269.3 503.0,269.8 503.2,269.3 503.3,269.3 503.5,269.3 503.7,269.6 503.9,269.3 504.1,270.2 504.3,270.2 504.5,270.2 504.7,270.2 504.8,269.8 505.0,269.8 505.2,269.8 505.4,269.8 505.6,269.8 505.8,268.9 506.0,270.2 506.1,270.2 506.3,270.2 506.5,269.3 506.7,269.3 506.9,269.3 507.1,270.3 507.3,270.3 507.4,270.3 507.6,270.3 507.8,270.4 508.0,270.5 508.2,270.5 508.4,270.5 508.6,270.5 508.7,270.3 508.9,270.3 509.1,270.3 509.3,269.3 509.5,268.8 509.7,269.4 509.9,270.6 510.0,270.9 510.2,270.6 510.4,270.9 510.6,270.9 510.8,270.9 511.0,270.9 511.2,270.9 511.3,270.9 511.5,270.9 511.7,270.9 511.9,270.9 512.1,270.9 512.3,270.9 512.5,270.9 512.6,270.9 512.8,270.9 513.0,270.9 513.2,270.9 513.4,270.9 513.6,270.9 513.8,270.9 513.9,270.9 514.1,270.9 514.3,270.9 514.5,270.9 514.7,270.9 514.9,269.5 515.1,269.5 515.2,269.5 515.4,269.5 515.6,269.5 515.8,269.5 516.0,269.5 516.2,269.5 516.4,269.5 516.5,269.5 516.7,269.5 516.9,269.5 517.1,269.5 517.3,269.5 517.5,269.5 517.7,269.5 517.8,269.5 518.0,269.8 518.2,269.8 518.4,269.8 518.6,269.8 518.8,269.8 519.0,269.8 519.1,269.8 519.3,269.8 519.5,269.8 519.7,269.8 519.9,269.8 520.1,269.8 520.3,269.8 520.4,269.8 520.6,269.3 520.8,269.8 521.0,269.8 521.2,269.8 521.4,269.8 521.6,269.8 521.7,269.8 521.9,269.8 522.1,269.8 522.3,269.8 522.5,269.8 522.7,269.8 522.9,269.8 523.0,269.8 523.2,269.8 523.4,271.1 523.6,271.1 523.8,271.5 524.0,271.5 524.2,271.5 524.3,271.5 524.5,271.5 524.7,271.5 524.9,269.3 525.1,269.3 525.3,269.3 525.5,269.3 525.6,267.2 525.8,267.2 526.0,267.2 526.2,267.2 526.4,267.2 526.6,267.2 526.8,267.2 526.9,266.8 527.1,266.8 527.3,266.8 527.5,266.8 527.7,266.8 527.9,266.8 528.1,266.8 528.2,266.8 528.4,266.8 528.6,266.8 528.8,266.8 529.0,266.8 529.2,266.8 529.4,267.7 529.5,267.7 529.7,267.6 529.9,267.6 530.1,267.6 530.3,266.7 530.5,266.7 530.7,266.7 530.8,266.7 531.0,266.7 531.2,266.7 531.4,266.7 531.6,266.7 531.8,266.7 532.0,266.7 532.1,266.7 532.3,266.7 532.5,266.7 532.7,266.7 532.9,266.7 533.1,266.7 533.3,266.7 533.4,266.7 533.6,266.7 533.8,266.7 534.0,266.7 534.2,266.7 534.4,266.7 534.6,266.7 534.7,266.7 534.9,266.7 535.1,266.7 535.3,266.7 535.5,266.7 535.7,266.2 535.9,266.2 536.0,267.4 536.2,267.4 536.4,267.4 536.6,267.4 536.8,267.4 537.0,267.4 537.2,266.7 537.3,264.8 537.5,264.6 537.7,264.6 537.9,264.6 538.1,264.6 538.3,264.3 538.5,264.1 538.6,259.5 538.8,259.5 539.0,256.4 539.2,255.9 539.4,251.2 539.6,251.2 539.8,254.8 539.9,261.5 540.1,261.5 540.3,251.2 540.5,251.2 540.7,251.2 540.9,251.2 541.1,251.8 541.2,251.8 541.4,251.8 541.6,251.2 541.8,250.7 542.0,250.7 542.2,250.7 542.4,250.7 542.5,251.2 542.7,251.2 542.9,251.2 543.1,251.2 543.3,251.2 543.5,246.6 543.7,251.2 543.8,251.2 544.0,246.1 544.2,246.1 544.4,246.1 544.6,248.7 544.8,248.7 545.0,248.7 545.1,248.7 545.3,251.2 545.5,251.2 545.7,251.2 545.9,251.2 546.1,247.1 546.3,246.6 546.4,246.6 546.6,246.6 546.8,246.6 547.0,248.2 547.2,248.7 547.4,248.7 547.6,248.7 547.8,248.7 547.9,247.6 548.1,247.6 548.3,249.7 548.5,247.6 548.7,247.6 548.9,247.6 549.1,247.6 549.2,247.6 549.4,247.6 549.6,247.6 549.8,247.6 550.0,247.7 550.2,249.2 550.4,249.2 550.5,249.2 550.7,249.2 550.9,247.6 551.1,247.6 551.3,247.6 551.5,247.6 551.7,247.6 551.8,247.6 552.0,247.6 552.2,249.2 552.4,249.2 552.6,249.2 552.8,249.2 553.0,249.2 553.1,248.4 553.3,248.4 553.5,248.4 553.7,248.4 553.9,248.4 554.1,249.2 554.3,249.2 554.4,249.2 554.6,249.2 554.8,249.2 555.0,249.2 555.2,249.2 555.4,249.2 555.6,251.2 555.7,251.2 555.9,249.7 556.1,249.7 556.3,249.7 556.5,249.7 556.7,249.7 556.9,249.5 557.0,249.7 557.2,249.3 557.4,249.3 557.6,249.3 557.8,249.2 558.0,249.4 558.2,249.3 558.3,249.5 558.5,249.5 558.7,249.5 558.9,249.2 559.1,249.2 559.3,249.2 559.5,249.2 559.6,249.2 559.8,249.2 560.0,249.5 560.2,249.5 560.4,249.2 560.6,249.5 560.8,249.5 560.9,249.5 561.1,249.5 561.3,249.5 561.5,249.5 561.7,249.2 561.9,249.2 562.1,249.2 562.2,249.2 562.4,249.2 562.6,249.2 562.8,249.2 563.0,249.6 563.2,249.6 563.4,249.6 563.5,249.6 563.7,249.7 563.9,249.7 564.1,249.7 564.3,249.7 564.5,249.2 564.7,248.2 564.8,248.2 565.0,248.2 565.2,249.7 565.4,249.7 565.6,249.7 565.8,248.5 566.0,248.3 566.1,248.7 566.3,249.7 566.5,249.7 566.7,249.7 566.9,249.7 567.1,249.3 567.3,249.2 567.4,248.2 567.6,248.2 567.8,248.2 568.0,248.2 568.2,248.2 568.4,248.2 568.6,248.7 568.7,248.7 568.9,249.2 569.1,249.2 569.3,249.2 569.5,249.2 569.7,249.7 569.9,249.7 570.0,249.7 570.2,249.7 570.4,249.7 570.6,249.7 570.8,249.7 571.0,249.7 571.2,249.7 571.3,249.7 571.5,249.7 571.7,248.7 571.9,249.7 572.1,249.7 572.3,249.7 572.5,249.7 572.6,250.2 572.8,250.2 573.0,251.2 573.2,249.7 573.4,249.7 573.6,249.7 573.8,250.7 573.9,250.7 574.1,250.7 574.3,250.7 574.5,250.7 574.7,250.7 574.9,250.7 575.1,250.7 575.2,250.7 575.4,250.7 575.6,250.7 575.8,250.7 576.0,249.2 576.2,249.2 576.4,249.2 576.5,249.2 576.7,249.2 576.9,249.2 577.1,249.2 577.3,248.3 577.5,248.3 577.7,248.3 577.8,248.3 578.0,248.3 578.2,248.3 578.4,248.3 578.6,248.3 578.8,248.3 579.0,248.3 579.1,243.5 579.3,243.5 579.5,246.5 579.7,247.4 579.9,247.4 580.1,247.4 580.3,247.4 580.4,242.7 580.6,242.7 580.8,242.7 581.0,242.7 581.2,240.9 581.4,240.9 581.6,232.2 581.7,232.2 581.9,233.2 582.1,232.2 582.3,232.2 582.5,232.2 582.7,232.2 582.9,232.2 583.0,232.2 583.2,232.2 583.4,232.2 583.6,231.2 583.8,231.2 584.0,232.2 584.2,237.3 584.3,237.3 584.5,237.3 584.7,237.3 584.9,233.2 585.1,233.2 585.3,233.2 585.5,233.2 585.6,233.2 585.8,232.7 586.0,232.7 586.2,232.7 586.4,232.7 586.6,233.0 586.8,234.6 586.9,234.6 587.1,233.0 587.3,233.0 587.5,233.0 587.7,233.0 587.9,233.0 588.1,233.0 588.2,233.0 588.4,233.0 588.6,233.2 588.8,233.2 589.0,233.2 589.2,233.2 589.4,233.2 589.6,233.2 589.7,233.2 589.9,233.2 590.1,233.2 590.3,233.2 590.5,233.2 590.7,233.2 590.9,233.2 591.0,233.2 591.2,233.2 591.4,234.4 591.6,234.4 591.8,234.4 592.0,234.4 592.2,234.4 592.3,234.4 592.5,240.9 592.7,243.5 592.9,243.5 593.1,240.9 593.3,240.9 593.5,240.9 593.6,239.4 593.8,240.8 594.0,241.0 594.2,241.0 594.4,241.0 594.6,240.9 594.8,240.9 594.9,240.9 595.1,241.3 595.3,241.3 595.5,241.3 595.7,242.5 595.9,243.0 596.1,243.0 596.2,243.0 596.4,243.0 596.6,243.0 596.8,243.0 597.0,240.9 597.2,240.9 597.4,240.9 597.5,241.2 597.7,241.2 597.9,241.2 598.1,241.2 598.3,242.0 598.5,242.7 598.7,242.7 598.8,242.7 599.0,242.7 599.2,241.6 599.4,242.4 599.6,242.2 599.8,242.1 600.0,240.9 600.1,241.1 600.3,241.1 600.5,241.1 600.7,241.1 600.9,241.1 601.1,241.5 601.3,241.1 601.4,240.9 601.6,240.9 601.8,240.9 602.0,240.9 602.2,240.9 602.4,240.9 602.6,242.2 602.7,242.2 602.9,242.5 603.1,243.5 603.3,243.0 603.5,243.1 603.7,243.1 603.9,244.0 604.0,245.5 604.2,244.0 604.4,245.1 604.6,245.1 604.8,245.1 605.0,245.1 605.2,245.5 605.3,245.6 605.5,245.5 605.7,245.6 605.9,245.6 606.1,245.6 606.3,244.4 606.5,243.5 606.6,243.5 606.8,243.5 607.0,243.5 607.2,243.5 607.4,243.0 607.6,243.0 607.8,242.5 607.9,242.5 608.1,242.5 608.3,242.5 608.5,244.5 608.7,244.5 608.9,244.5 609.1,244.5 609.2,243.0 609.4,243.0 609.6,243.0 609.8,244.5 610.0,245.1 610.2,245.1 610.4,244.3 610.5,244.3 610.7,244.3 610.9,244.3 611.1,244.0 611.3,243.0 611.5,243.0 611.7,243.0 611.8,243.0 612.0,243.0 612.2,243.0 612.4,243.0 612.6,243.0 612.8,243.0 613.0,243.0 613.1,243.0 613.3,238.5 613.5,238.4 613.7,238.4 613.9,238.9 614.1,238.4 614.3,238.4 614.4,238.9 614.6,238.9 614.8,240.9 615.0,240.9 615.2,240.2 615.4,240.4 615.6,240.4 615.7,240.4 615.9,238.9 616.1,238.9 616.3,238.9 616.5,238.9 616.7,236.8 616.9,236.8 617.0,238.0 617.2,237.9 617.4,237.9 617.6,237.9 617.8,237.9 618.0,237.9 618.2,235.8 618.3,234.1 618.5,231.2 618.7,231.2 618.9,231.2 619.1,231.4 619.3,231.4 619.5,225.5 619.6,220.3 619.8,220.3 620.0,220.3 620.2,222.4 620.4,222.4 620.6,222.4 620.8,222.4 620.9,222.4 621.1,222.4 621.3,222.4 621.5,222.4 621.7,222.4 621.9,222.4 622.1,217.8 622.2,217.8 622.4,217.8 622.6,217.8 622.8,217.8 623.0,217.8 623.2,221.6 623.4,220.3 623.5,222.9 623.7,222.9 623.9,222.9 624.1,222.9 624.3,222.9 624.5,222.9 624.7,222.9 624.8,222.9 625.0,222.9 625.2,222.9 625.4,222.9 625.6,222.9 625.8,222.9 626.0,217.8 626.1,220.3 626.3,220.3 626.5,219.7 626.7,219.7 626.9,220.3 627.1,217.8 627.3,217.8 627.4,215.7 627.6,210.6 627.8,210.6 628.0,210.6 628.2,220.3 628.4,220.3 628.6,220.3 628.7,220.3 628.9,220.3 629.1,217.3 629.3,217.3 629.5,217.3 629.7,216.2 629.9,216.2 630.0,214.7 630.2,214.7 630.4,210.0 630.6,208.1 630.8,205.9 631.0,205.9 631.2,206.7 631.3,206.7 631.5,207.0 631.7,207.0 631.9,207.0 632.1,205.9 632.3,204.9 632.5,204.9 632.7,204.9 632.8,204.9 633.0,205.9 633.2,205.9 633.4,205.9 633.6,204.9 633.8,204.9 634.0,199.7 634.1,204.6 634.3,204.6 634.5,204.9 634.7,204.6 634.9,199.9 635.1,199.9 635.3,204.9 635.4,204.9 635.6,206.3 635.8,206.3 636.0,206.3 636.2,198.7 636.4,198.7 636.6,194.6 636.7,194.6 636.9,194.6 637.1,194.6 637.3,194.6 637.5,194.6 637.7,194.6 637.9,199.7 638.0,199.7 638.2,199.7 638.4,204.1 638.6,194.6 638.8,189.5 639.0,189.5 639.2,189.5 639.3,195.6 639.5,189.5 639.7,189.5 639.9,181.7 640.1,181.7 640.3,181.7 640.5,181.7 640.6,183.8 640.8,181.7 641.0,181.7 641.2,189.5 641.4,181.7 641.6,181.7 641.8,184.3 641.9,184.3 642.1,194.6 642.3,189.5 642.5,191.5 642.7,192.0 642.9,193.7 643.1,193.7 643.2,199.7 643.4,195.2 643.6,195.2 643.8,195.5 644.0,195.5 644.2,195.5 644.4,188.5 644.5,184.3 644.7,183.8 644.9,185.7 645.1,184.8 645.3,184.8 645.5,184.8 645.7,184.3 645.8,189.5 646.0,184.3 646.2,184.3 646.4,184.3 646.6,193.1 646.8,193.1 647.0,193.1 647.1,193.1 647.3,196.7 647.5,196.1 647.7,194.6 647.9,196.7 648.1,196.7 648.3,196.7 648.4,197.0 648.6,195.1 648.8,195.6 649.0,189.5 649.2,189.5 649.4,189.5 649.6,186.4 649.7,189.5 649.9,194.1 650.1,194.1 650.3,196.7 650.5,196.7 650.7,194.6 650.9,194.6 651.0,194.6 651.2,194.6 651.4,195.6 651.6,195.6 651.8,195.6 652.0,195.6 652.2,195.1 652.3,195.1 652.5,199.7 652.7,199.7 652.9,199.7 653.1,199.7 653.3,194.6 653.5,193.6 653.6,193.6 653.8,193.6 654.0,193.6 654.2,193.6 654.4,195.2 654.6,193.6 654.8,193.6 654.9,193.6 655.1,189.5 655.3,192.0 655.5,188.4 655.7,189.5 655.9,196.3 656.1,194.1 656.2,192.5 656.4,192.5 656.6,192.5 656.8,192.5 657.0,189.5 657.2,189.5 657.4,188.4 657.5,188.4 657.7,190.2 657.9,189.5 658.1,188.4 658.3,189.5 658.5,190.4 658.7,190.4 658.8,188.4 659.0,191.5 659.2,191.5 659.4,188.4 659.6,181.7 659.8,181.7 660.0,181.7 660.1,184.3 660.3,184.3 660.5,184.3 660.7,185.8 660.9,185.2 661.1,185.2 661.3,185.2 661.4,187.4 661.6,186.9 661.8,186.9 662.0,186.9 662.2,186.9 662.4,186.9 662.6,186.9 662.7,186.9 662.9,184.3 663.1,184.3 663.3,184.3 663.5,184.3 663.7,186.9 663.9,177.0 664.0,175.0 664.2,168.9 664.4,168.9 664.6,168.9 664.8,168.9 665.0,168.9 665.2,168.9 665.3,167.3 665.5,167.3 665.7,168.9 665.9,167.3 666.1,173.0 666.3,167.3 666.5,168.9 666.6,168.9 666.8,169.9 667.0,181.3 667.2,168.9 667.4,168.9 667.6,168.9 667.8,167.3 667.9,169.8 668.1,168.9 668.3,168.9 668.5,168.9 668.7,167.8 668.9,167.8 669.1,167.8 669.2,167.8 669.4,171.4 669.6,166.3 669.8,166.3 670.0,171.4 670.2,168.9 670.4,168.9 670.5,168.9 670.7,168.9 670.9,158.6 671.1,156.0 671.3,156.0 671.5,157.0 671.7,157.5 671.8,158.0 672.0,158.6 672.2,158.6 672.4,157.0 672.6,157.0 672.8,157.0 673.0,157.0 673.1,156.0 673.3,143.1 673.5,156.0 673.7,138.0 673.9,138.0 674.1,138.0 674.3,134.9 674.4,132.8 674.6,132.8 674.8,135.9 675.0,135.9 675.2,135.9 675.4,135.9 675.6,135.9 675.8,136.3 675.9,136.9 676.1,136.9 676.3,132.8 676.5,135.4 676.7,132.8 676.9,130.2 677.1,127.7 677.2,125.1 677.4,122.5 677.6,122.5 677.8,119.9 678.0,107.1 678.2,104.5 678.4,101.9 678.5,101.9 678.7,96.8 678.9,97.8 679.1,93.7 679.3,99.3 679.5,101.4 679.7,95.7 679.8,107.1 680.0,107.1 680.2,107.1 680.4,112.2 680.6,107.1 680.8,117.4 681.0,102.4 681.1,104.5 681.3,102.4 681.5,102.4 681.7,102.4 681.9,112.2 682.1,112.2 682.3,105.0 682.4,107.1 682.6,100.4 682.8,101.9 683.0,101.9 683.2,95.8 683.4,95.7 683.6,93.7 683.7,91.6 683.9,93.7 684.1,91.6 684.3,91.6 684.5,91.6 684.7,95.6 684.9,91.6 685.0,91.6 685.2,91.6 685.4,93.7 685.6,91.6 685.8,96.8 686.0,93.7 686.2,94.2 686.3,91.6 686.5,90.6 686.7,90.6 686.9,99.3 687.1,96.8 687.3,86.5 687.5,86.5 687.6,86.5 687.8,86.5 688.0,87.0 688.2,83.9 688.4,96.8 688.6,96.8 688.8,93.1 688.9,96.8 689.1,93.1 689.3,94.7 689.5,96.8 689.7,91.6 689.9,92.6 690.1,96.8 690.2,92.6 690.4,92.6 690.6,91.6 690.8,81.8 691.0,81.8 691.2,92.1 691.4,85.9 691.5,86.5 691.7,86.5 691.9,83.9 692.1,82.3 692.3,82.3 692.5,84.4 692.7,81.3 692.8,83.6 693.0,81.3 693.2,89.0 693.4,82.3 693.6,82.3 693.8,81.3 694.0,76.2 694.1,76.2 694.3,76.2 694.5,73.6 694.7,76.2 694.9,76.2 695.1,76.2 695.3,67.2 695.4,65.9 695.6,73.5 695.8,81.6 696.0,92.1"/>
  <polyline fill="none" stroke="#16a34a" stroke-width="2" points="56.0,289.3 56.2,289.3 56.4,289.3 56.6,289.3 56.7,289.3 56.9,289.3 57.1,289.3 57.3,289.3 57.5,289.3 57.7,289.3 57.9,289.3 58.0,289.3 58.2,289.3 58.4,289.3 58.6,289.3 58.8,289.3 59.0,289.3 59.2,289.3 59.3,289.3 59.5,289.3 59.7,289.7 59.9,289.7 60.1,289.7 60.3,289.7 60.5,289.7 60.6,289.7 60.8,289.7 61.0,289.7 61.2,290.1 61.4,290.1 61.6,290.1 61.8,289.9 61.9,289.9 62.1,289.9 62.3,289.9 62.5,290.0 62.7,290.0 62.9,289.7 63.1,289.7 63.2,289.7 63.4,289.7 63.6,289.7 63.8,289.7 64.0,289.7 64.2,289.7 64.4,289.5 64.5,289.5 64.7,289.9 64.9,289.9 65.1,289.9 65.3,289.5 65.5,289.5 65.7,289.5 65.8,289.5 66.0,289.5 66.2,289.5 66.4,289.5 66.6,289.5 66.8,289.5 67.0,290.0 67.1,290.0 67.3,290.0 67.5,290.0 67.7,290.0 67.9,289.3 68.1,289.5 68.3,289.5 68.4,289.5 68.6,289.5 68.8,289.5 69.0,289.0 69.2,289.0 69.4,289.0 69.6,289.0 69.7,289.3 69.9,289.3 70.1,288.6 70.3,288.6 70.5,288.6 70.7,289.3 70.9,289.3 71.0,289.3 71.2,289.3 71.4,289.3 71.6,289.3 71.8,289.3 72.0,289.3 72.2,289.3 72.3,289.3 72.5,289.3 72.7,289.3 72.9,289.0 73.1,289.0 73.3,289.0 73.5,289.0 73.6,289.0 73.8,289.0 74.0,288.4 74.2,288.4 74.4,288.4 74.6,288.4 74.8,288.4 74.9,288.4 75.1,288.4 75.3,288.4 75.5,288.4 75.7,288.4 75.9,288.4 76.1,288.4 76.2,288.4 76.4,288.4 76.6,288.4 76.8,288.4 77.0,288.4 77.2,288.4 77.4,288.4 77.6,288.4 77.7,288.4 77.9,289.6 78.1,289.6 78.3,289.2 78.5,289.2 78.7,289.2 78.9,289.2 79.0,289.2 79.2,288.8 79.4,288.8 79.6,288.8 79.8,288.8 80.0,288.8 80.2,288.8 80.3,288.8 80.5,288.8 80.7,288.8 80.9,288.8 81.1,288.8 81.3,288.8 81.5,288.8 81.6,288.8 81.8,288.8 82.0,288.8 82.2,288.8 82.4,288.8 82.6,288.8 82.8,288.8 82.9,288.8 83.1,288.8 83.3,288.8 83.5,288.8 83.7,288.8 83.9,288.8 84.1,288.8 84.2,288.8 84.4,288.8 84.6,288.8 84.8,288.8 85.0,288.8 85.2,288.8 85.4,288.8 85.5,288.8 85.7,288.8 85.9,288.8 86.1,288.8 86.3,288.8 86.5,288.8 86.7,288.8 86.8,288.8 87.0,288.8 87.2,288.8 87.4,288.8 87.6,288.8 87.8,288.8 88.0,288.8 88.1,288.8 88.3,288.8 88.5,288.8 88.7,288.8 88.9,288.8 89.1,288.8 89.3,288.8 89.4,288.8 89.6,288.8 89.8,288.8 90.0,288.8 90.2,288.8 90.4,288.8 90.6,288.8 90.7,288.8 90.9,288.8 91.1,288.8 91.3,288.8 91.5,288.8 91.7,288.8 91.9,288.8 92.0,288.8 92.2,288.8 92.4,288.8 92.6,289.0 92.8,289.0 93.0,289.0 93.2,288.8 93.3,288.8 93.5,288.8 93.7,288.8 93.9,288.8 94.1,288.8 94.3,288.8 94.5,288.8 94.6,288.8 94.8,288.8 95.0,288.8 95.2,288.7 95.4,288.7 95.6,289.0 95.8,289.0 95.9,289.0 96.1,289.0 96.3,289.0 96.5,289.0 96.7,289.0 96.9,289.0 97.1,289.0 97.2,289.0 97.4,289.0 97.6,289.0 97.8,289.0 98.0,289.0 98.2,289.0 98.4,288.8 98.5,285.7 98.7,285.7 98.9,285.7 99.1,285.7 99.3,285.7 99.5,285.7 99.7,288.8 99.8,288.8 100.0,288.8 100.2,288.8 100.4,288.8 100.6,288.8 100.8,288.8 101.0,288.8 101.1,288.8 101.3,288.8 101.5,288.8 101.7,288.8 101.9,288.8 102.1,288.8 102.3,288.8 102.4,288.8 102.6,288.8 102.8,288.8 103.0,288.8 103.2,288.8 103.4,288.8 103.6,288.8 103.7,288.8 103.9,288.8 104.1,288.8 104.3,288.8 104.5,288.8 104.7,288.8 104.9,288.8 105.0,288.8 105.2,288.8 105.4,288.8 105.6,288.8 105.8,288.8 106.0,288.8 106.2,288.8 106.3,288.8 106.5,288.8 106.7,288.8 106.9,288.8 107.1,288.8 107.3,288.8 107.5,288.8 107.6,288.8 107.8,288.8 108.0,288.8 108.2,288.8 108.4,288.8 108.6,288.8 108.8,288.8 108.9,288.8 109.1,288.8 109.3,288.8 109.5,288.8 109.7,288.8 109.9,288.8 110.1,287.8 110.2,287.8 110.4,287.8 110.6,287.8 110.8,287.8 111.0,287.8 111.2,287.8 111.4,287.8 111.5,287.8 111.7,287.8 111.9,287.8 112.1,287.8 112.3,287.8 112.5,287.8 112.7,287.8 112.8,287.8 113.0,287.8 113.2,287.8 113.4,287.8 113.6,287.8 113.8,287.8 114.0,287.8 114.1,287.8 114.3,287.8 114.5,287.8 114.7,287.8 114.9,287.8 115.1,287.8 115.3,287.8 115.4,287.8 115.6,287.8 115.8,287.8 116.0,287.8 116.2,287.8 116.4,287.8 116.6,287.8 116.7,287.8 116.9,287.8 117.1,287.8 117.3,287.8 117.5,287.8 117.7,287.8 117.9,287.8 118.0,287.8 118.2,287.8 118.4,287.8 118.6,287.8 118.8,287.8 119.0,284.7 119.2,284.7 119.3,284.7 119.5,284.7 119.7,284.7 119.9,284.7 120.1,284.7 120.3,284.7 120.5,284.7 120.7,284.7 120.8,284.7 121.0,284.7 121.2,284.7 121.4,284.7 121.6,284.7 121.8,288.7 122.0,288.7 122.1,288.7 122.3,288.7 122.5,288.7 122.7,288.7 122.9,288.7 123.1,288.7 123.3,288.7 123.4,288.7 123.6,288.7 123.8,288.3 124.0,288.3 124.2,288.3 124.4,288.3 124.6,285.7 124.7,285.7 124.9,285.7 125.1,287.3 125.3,287.3 125.5,287.3 125.7,287.3 125.9,286.3 126.0,286.3 126.2,287.8 126.4,287.8 126.6,287.8 126.8,287.8 127.0,287.8 127.2,287.3 127.3,287.3 127.5,286.6 127.7,286.5 127.9,286.5 128.1,286.5 128.3,286.5 128.5,286.5 128.6,286.5 128.8,286.5 129.0,286.5 129.2,286.5 129.4,286.5 129.6,286.5 129.8,286.5 129.9,286.5 130.1,286.5 130.3,286.5 130.5,286.5 130.7,286.5 130.9,286.5 131.1,286.5 131.2,285.9 131.4,285.9 131.6,285.9 131.8,285.9 132.0,285.9 132.2,285.9 132.4,285.9 132.5,285.9 132.7,285.9 132.9,285.9 133.1,285.9 133.3,286.4 133.5,286.4 133.7,286.1 133.8,286.1 134.0,286.1 134.2,286.1 134.4,286.1 134.6,286.1 134.8,286.1 135.0,286.1 135.1,286.1 135.3,286.1 135.5,286.1 135.7,286.3 135.9,286.3 136.1,286.3 136.3,286.3 136.4,286.3 136.6,286.3 136.8,286.3 137.0,286.3 137.2,286.3 137.4,285.4 137.6,285.4 137.7,285.4 137.9,285.4 138.1,285.4 138.3,285.4 138.5,285.4 138.7,285.4 138.9,285.4 139.0,285.4 139.2,285.4 139.4,285.4 139.6,284.7 139.8,284.7 140.0,284.7 140.2,284.7 140.3,284.7 140.5,284.7 140.7,284.7 140.9,284.7 141.1,284.7 141.3,284.7 141.5,284.7 141.6,284.7 141.8,284.7 142.0,284.7 142.2,284.7 142.4,284.7 142.6,284.7 142.8,284.7 142.9,284.7 143.1,284.7 143.3,284.7 143.5,284.7 143.7,284.7 143.9,284.7 144.1,281.6 144.2,281.6 144.4,281.6 144.6,281.6 144.8,281.6 145.0,281.6 145.2,281.6 145.4,281.6 145.5,281.6 145.7,281.6 145.9,281.8 146.1,281.9 146.3,281.9 146.5,281.9 146.7,282.1 146.8,281.8 147.0,281.8 147.2,281.8 147.4,282.1 147.6,282.0 147.8,282.0 148.0,282.0 148.1,282.0 148.3,282.0 148.5,282.0 148.7,282.9 148.9,282.9 149.1,282.9 149.3,282.9 149.4,282.9 149.6,282.9 149.8,282.9 150.0,282.9 150.2,282.9 150.4,282.9 150.6,282.9 150.7,282.9 150.9,282.9 151.1,282.9 151.3,282.9 151.5,282.9 151.7,282.9 151.9,282.9 152.0,284.7 152.2,284.7 152.4,284.7 152.6,284.7 152.8,284.7 153.0,284.7 153.2,284.7 153.3,284.7 153.5,284.7 153.7,284.7 153.9,284.7 154.1,284.7 154.3,284.7 154.5,284.7 154.6,284.7 154.8,284.7 155.0,284.7 155.2,284.7 155.4,284.7 155.6,284.7 155.8,284.7 155.9,284.7 156.1,284.7 156.3,284.7 156.5,284.7 156.7,284.7 156.9,284.7 157.1,284.7 157.2,284.7 157.4,284.7 157.6,284.7 157.8,284.7 158.0,284.7 158.2,284.7 158.4,284.7 158.5,284.7 158.7,283.7 158.9,283.7 159.1,283.7 159.3,283.7 159.5,283.7 159.7,282.7 159.8,282.7 160.0,282.7 160.2,282.7 160.4,282.7 160.6,282.7 160.8,282.7 161.0,282.7 161.1,282.7 161.3,282.7 161.5,282.7 161.7,282.7 161.9,282.7 162.1,282.7 162.3,282.7 162.4,282.7 162.6,282.7 162.8,282.7 163.0,282.7 163.2,282.7 163.4,282.7 163.6,282.7 163.8,282.7 163.9,282.7 164.1,283.0 164.3,283.0 164.5,283.0 164.7,283.0 164.9,283.7 165.1,284.6 165.2,284.6 165.4,284.6 165.6,284.6 165.8,283.0 166.0,287.8 166.2,284.7 166.4,284.7 166.5,284.7 166.7,284.7 166.9,284.6 167.1,284.7 167.3,284.7 167.5,284.7 167.7,284.7 167.8,284.7 168.0,284.7 168.2,285.7 168.4,285.7 168.6,285.7 168.8,285.7 169.0,285.7 169.1,285.7 169.3,285.7 169.5,285.7 169.7,285.7 169.9,285.7 170.1,285.7 170.3,285.7 170.4,285.2 170.6,285.2 170.8,285.2 171.0,285.2 171.2,285.2 171.4,285.2 171.6,285.2 171.7,285.2 171.9,285.2 172.1,285.2 172.3,285.2 172.5,285.1 172.7,285.1 172.9,285.1 173.0,285.2 173.2,285.2 173.4,285.2 173.6,285.2 173.8,285.2 174.0,285.2 174.2,285.2 174.3,285.2 174.5,285.2 174.7,285.2 174.9,285.2 175.1,285.2 175.3,285.2 175.5,285.2 175.6,285.2 175.8,285.2 176.0,285.2 176.2,285.2 176.4,285.2 176.6,285.2 176.8,285.2 176.9,285.2 177.1,285.2 177.3,285.2 177.5,285.2 177.7,285.2 177.9,285.2 178.1,285.2 178.2,285.2 178.4,285.2 178.6,285.2 178.8,285.2 179.0,285.2 179.2,285.2 179.4,283.2 179.5,283.2 179.7,283.2 179.9,282.2 180.1,282.2 180.3,284.7 180.5,284.7 180.7,284.7 180.8,284.7 181.0,284.7 181.2,284.7 181.4,284.7 181.6,284.7 181.8,284.7 182.0,284.7 182.1,284.7 182.3,284.7 182.5,284.7 182.7,284.7 182.9,284.7 183.1,284.7 183.3,284.7 183.4,284.7 183.6,284.7 183.8,284.7 184.0,284.7 184.2,284.7 184.4,284.7 184.6,284.7 184.7,284.7 184.9,284.7 185.1,284.7 185.3,284.7 185.5,284.7 185.7,284.7 185.9,284.7 186.0,284.7 186.2,284.7 186.4,284.7 186.6,284.7 186.8,284.7 187.0,284.7 187.2,284.7 187.3,284.7 187.5,284.7 187.7,284.7 187.9,284.7 188.1,284.7 188.3,284.7 188.5,284.7 188.6,284.7 188.8,284.7 189.0,284.7 189.2,284.7 189.4,284.7 189.6,284.7 189.8,284.7 189.9,284.2 190.1,284.2 190.3,284.4 190.5,284.4 190.7,284.4 190.9,284.4 191.1,284.4 191.2,284.4 191.4,284.4 191.6,284.4 191.8,284.4 192.0,284.4 192.2,284.4 192.4,284.4 192.5,284.4 192.7,284.4 192.9,284.3 193.1,285.2 193.3,285.2 193.5,285.2 193.7,285.2 193.8,285.2 194.0,285.2 194.2,285.2 194.4,285.2 194.6,285.2 194.8,285.2 195.0,285.2 195.1,285.2 195.3,285.2 195.5,285.2 195.7,285.2 195.9,285.2 196.1,285.2 196.3,285.2 196.4,285.2 196.6,285.2 196.8,284.7 197.0,284.7 197.2,284.7 197.4,285.2 197.6,285.2 197.7,285.2 197.9,285.3 198.1,285.2 198.3,285.2 198.5,285.2 198.7,285.7 198.9,285.7 199.0,285.7 199.2,285.7 199.4,285.7 199.6,285.7 199.8,285.7 200.0,285.7 200.2,285.7 200.3,285.7 200.5,285.7 200.7,285.7 200.9,285.2 201.1,285.2 201.3,285.9 201.5,285.9 201.6,285.9 201.8,285.9 202.0,285.9 202.2,285.9 202.4,285.2 202.6,285.2 202.8,285.2 202.9,285.2 203.1,285.2 203.3,285.2 203.5,285.2 203.7,285.2 203.9,285.2 204.1,285.2 204.2,285.2 204.4,285.2 204.6,286.3 204.8,286.3 205.0,286.3 205.2,286.3 205.4,286.3 205.6,286.3 205.7,286.3 205.9,286.3 206.1,286.3 206.3,286.3 206.5,286.3 206.7,286.3 206.9,286.3 207.0,286.3 207.2,286.3 207.4,285.6 207.6,285.6 207.8,285.6 208.0,285.6 208.2,285.6 208.3,285.6 208.5,285.6 208.7,285.6 208.9,285.6 209.1,285.6 209.3,285.6 209.5,285.6 209.6,285.6 209.8,285.6 210.0,285.6 210.2,285.6 210.4,285.6 210.6,285.6 210.8,285.6 210.9,285.6 211.1,285.6 211.3,285.6 211.5,285.6 211.7,285.6 211.9,285.6 212.1,285.6 212.2,285.6 212.4,285.6 212.6,285.6 212.8,285.6 213.0,285.6 213.2,285.6 213.4,285.6 213.5,287.8 213.7,287.8 213.9,287.8 214.1,287.8 214.3,287.8 214.5,287.8 214.7,287.0 214.8,287.0 215.0,285.8 215.2,285.2 215.4,285.2 215.6,285.2 215.8,285.2 216.0,285.2 216.1,285.2 216.3,285.2 216.5,285.2 216.7,285.2 216.9,285.2 217.1,285.2 217.3,283.5 217.4,283.5 217.6,283.3 217.8,283.3 218.0,283.2 218.2,283.2 218.4,283.2 218.6,282.9 218.7,282.9 218.9,282.9 219.1,282.9 219.3,282.9 219.5,282.2 219.7,282.7 219.9,282.7 220.0,283.3 220.2,283.3 220.4,283.3 220.6,283.3 220.8,283.3 221.0,283.3 221.2,283.3 221.3,283.3 221.5,283.3 221.7,283.3 221.9,283.3 222.1,283.3 222.3,282.1 222.5,282.1 222.6,282.1 222.8,282.1 223.0,282.1 223.2,282.1 223.4,282.1 223.6,282.1 223.8,282.1 223.9,282.1 224.1,282.1 224.3,282.1 224.5,282.1 224.7,282.1 224.9,282.1 225.1,282.1 225.2,282.1 225.4,282.1 225.6,283.7 225.8,283.7 226.0,283.7 226.2,283.7 226.4,283.7 226.5,283.7 226.7,283.7 226.9,283.7 227.1,283.7 227.3,283.7 227.5,283.7 227.7,283.7 227.8,283.7 228.0,283.7 228.2,283.7 228.4,283.7 228.6,283.7 228.8,283.7 229.0,283.7 229.1,283.7 229.3,283.7 229.5,283.7 229.7,283.7 229.9,283.7 230.1,283.7 230.3,283.7 230.4,283.7 230.6,283.7 230.8,283.7 231.0,283.7 231.2,284.5 231.4,284.5 231.6,284.5 231.7,284.5 231.9,284.5 232.1,284.5 232.3,284.5 232.5,284.5 232.7,284.5 232.9,284.5 233.0,284.5 233.2,284.5 233.4,284.5 233.6,284.5 233.8,284.5 234.0,284.5 234.2,284.5 234.3,284.5 234.5,284.5 234.7,284.5 234.9,284.5 235.1,284.5 235.3,284.5 235.5,284.5 235.6,284.5 235.8,284.5 236.0,284.5 236.2,284.5 236.4,284.5 236.6,284.5 236.8,284.5 236.9,284.5 237.1,284.5 237.3,284.5 237.5,284.5 237.7,284.5 237.9,284.5 238.1,282.1 238.2,282.1 238.4,282.1 238.6,282.1 238.8,282.1 239.0,282.1 239.2,282.1 239.4,283.2 239.5,283.2 239.7,283.2 239.9,283.2 240.1,283.2 240.3,284.0 240.5,284.0 240.7,284.0 240.8,283.8 241.0,283.8 241.2,283.8 241.4,283.8 241.6,283.8 241.8,283.8 242.0,283.8 242.1,283.8 242.3,283.8 242.5,283.8 242.7,283.8 242.9,283.8 243.1,283.8 243.3,283.8 243.4,283.8 243.6,283.8 243.8,283.8 244.0,283.8 244.2,283.8 244.4,283.8 244.6,283.8 244.7,282.7 244.9,282.7 245.1,282.7 245.3,282.7 245.5,282.1 245.7,282.1 245.9,283.2 246.0,283.2 246.2,283.2 246.4,283.2 246.6,283.2 246.8,283.2 247.0,283.2 247.2,283.2 247.3,283.2 247.5,283.2 247.7,283.2 247.9,283.2 248.1,283.2 248.3,283.2 248.5,283.2 248.7,283.2 248.8,283.2 249.0,283.2 249.2,283.2 249.4,283.2 249.6,283.2 249.8,283.2 250.0,283.2 250.1,284.7 250.3,284.0 250.5,284.0 250.7,284.0 250.9,284.0 251.1,284.0 251.3,284.0 251.4,284.0 251.6,284.0 251.8,284.0 252.0,284.0 252.2,284.0 252.4,284.0 252.6,284.0 252.7,282.7 252.9,282.7 253.1,282.7 253.3,282.7 253.5,282.7 253.7,282.7 253.9,284.7 254.0,284.7 254.2,284.7 254.4,284.2 254.6,284.7 254.8,284.7 255.0,284.7 255.2,284.7 255.3,284.2 255.5,284.2 255.7,284.2 255.9,284.2 256.1,284.2 256.3,284.6 256.5,284.7 256.6,284.7 256.8,286.3 257.0,286.3 257.2,285.2 257.4,285.2 257.6,285.2 257.8,286.2 257.9,286.2 258.1,286.2 258.3,286.2 258.5,286.2 258.7,286.2 258.9,286.2 259.1,286.2 259.2,286.2 259.4,286.2 259.6,285.7 259.8,285.7 260.0,285.7 260.2,285.7 260.4,285.7 260.5,285.7 260.7,284.4 260.9,284.4 261.1,284.4 261.3,284.4 261.5,284.4 261.7,284.4 261.8,283.7 262.0,283.7 262.2,283.7 262.4,283.7 262.6,283.7 262.8,283.7 263.0,283.7 263.1,283.7 263.3,283.7 263.5,283.7 263.7,284.2 263.9,284.0 264.1,284.0 264.3,284.0 264.4,284.0 264.6,284.0 264.8,284.0 265.0,284.0 265.2,284.0 265.4,284.0 265.6,284.0 265.7,284.0 265.9,284.0 266.1,284.0 266.3,284.0 266.5,284.0 266.7,284.0 266.9,284.0 267.0,284.0 267.2,284.0 267.4,284.0 267.6,284.0 267.8,284.0 268.0,282.1 268.2,282.1 268.3,282.3 268.5,282.3 268.7,282.3 268.9,280.6 269.1,280.6 269.3,282.1 269.5,282.1 269.6,282.1 269.8,282.1 270.0,282.1 270.2,282.1 270.4,282.1 270.6,282.1 270.8,282.1 270.9,282.1 271.1,282.1 271.3,282.1 271.5,282.1 271.7,282.1 271.9,282.1 272.1,282.1 272.2,282.1 272.4,282.1 272.6,282.1 272.8,282.1 273.0,282.1 273.2,282.1 273.4,282.1 273.5,282.1 273.7,282.1 273.9,282.1 274.1,282.1 274.3,282.1 274.5,282.1 274.7,280.6 274.8,280.6 275.0,280.6 275.2,280.6 275.4,280.6 275.6,280.6 275.8,280.6 276.0,282.1 276.1,282.1 276.3,282.1 276.5,282.1 276.7,282.1 276.9,282.1 277.1,282.1 277.3,282.1 277.4,282.1 277.6,282.1 277.8,282.1 278.0,282.1 278.2,282.1 278.4,282.1 278.6,282.1 278.7,282.1 278.9,282.1 279.1,282.1 279.3,282.1 279.5,282.1 279.7,282.1 279.9,282.1 280.0,282.1 280.2,282.1 280.4,282.1 280.6,282.1 280.8,282.1 281.0,280.8 281.2,280.8 281.3,280.8 281.5,280.8 281.7,280.8 281.9,280.8 282.1,280.8 282.3,280.8 282.5,280.8 282.6,280.8 282.8,280.8 283.0,281.5 283.2,281.5 283.4,281.5 283.6,281.5 283.8,281.5 283.9,281.5 284.1,281.5 284.3,281.5 284.5,281.5 284.7,281.5 284.9,281.5 285.1,281.5 285.2,281.5 285.4,281.5 285.6,281.5 285.8,281.5 286.0,281.1 286.2,281.3 286.4,281.3 286.5,281.3 286.7,281.3 286.9,281.3 287.1,280.3 287.3,280.3 287.5,280.3 287.7,280.3 287.8,280.3 288.0,281.1 288.2,281.1 288.4,281.1 288.6,281.1 288.8,281.1 289.0,281.1 289.1,280.5 289.3,280.5 289.5,280.5 289.7,280.5 289.9,280.5 290.1,280.5 290.3,280.5 290.4,280.5 290.6,281.2 290.8,281.2 291.0,281.2 291.2,281.2 291.4,281.2 291.6,281.2 291.8,280.4 291.9,280.4 292.1,280.4 292.3,280.4 292.5,280.4 292.7,280.4 292.9,280.4 293.1,280.4 293.2,280.4 293.4,280.4 293.6,280.4 293.8,280.4 294.0,280.4 294.2,280.4 294.4,280.4 294.5,280.4 294.7,280.4 294.9,280.4 295.1,280.4 295.3,280.4 295.5,280.4 295.7,280.4 295.8,280.4 296.0,280.1 296.2,280.1 296.4,280.1 296.6,280.1 296.8,280.1 297.0,280.1 297.1,280.1 297.3,280.1 297.5,280.1 297.7,280.1 297.9,280.1 298.1,280.1 298.3,280.6 298.4,280.6 298.6,280.6 298.8,280.6 299.0,280.6 299.2,280.6 299.4,280.6 299.6,280.6 299.7,280.6 299.9,280.6 300.1,281.0 300.3,281.0 300.5,281.0 300.7,281.0 300.9,281.0 301.0,281.0 301.2,281.0 301.4,281.0 301.6,281.8 301.8,281.8 302.0,281.8 302.2,281.8 302.3,281.8 302.5,281.8 302.7,281.8 302.9,281.8 303.1,280.9 303.3,280.9 303.5,280.9 303.6,280.8 303.8,280.8 304.0,280.8 304.2,280.1 304.4,280.1 304.6,280.1 304.8,280.1 304.9,280.1 305.1,280.1 305.3,280.1 305.5,280.1 305.7,280.1 305.9,280.1 306.1,280.1 306.2,280.1 306.4,280.1 306.6,280.4 306.8,280.4 307.0,280.4 307.2,280.4 307.4,280.4 307.5,280.4 307.7,280.4 307.9,280.4 308.1,280.4 308.3,280.4 308.5,280.4 308.7,280.4 308.8,280.4 309.0,280.4 309.2,280.0 309.4,280.0 309.6,280.0 309.8,280.0 310.0,280.0 310.1,280.0 310.3,280.0 310.5,280.0 310.7,280.0 310.9,280.0 311.1,280.0 311.3,280.0 311.4,280.0 311.6,280.0 311.8,280.0 312.0,279.0 312.2,279.0 312.4,279.0 312.6,279.0 312.7,280.2 312.9,280.2 313.1,280.2 313.3,280.2 313.5,280.2 313.7,280.2 313.9,280.2 314.0,280.2 314.2,280.2 314.4,280.2 314.6,280.2 314.8,280.2 315.0,280.2 315.2,280.2 315.3,280.2 315.5,280.2 315.7,280.2 315.9,280.2 316.1,280.2 316.3,280.2 316.5,280.2 316.6,280.2 316.8,280.2 317.0,278.1 317.2,278.1 317.4,278.7 317.6,278.7 317.8,278.7 317.9,278.7 318.1,278.7 318.3,278.7 318.5,278.7 318.7,279.8 318.9,279.8 319.1,278.7 319.2,278.7 319.4,278.7 319.6,278.7 319.8,278.7 320.0,278.7 320.2,278.7 320.4,278.7 320.5,278.7 320.7,278.7 320.9,278.7 321.1,278.7 321.3,278.7 321.5,278.7 321.7,279.0 321.8,279.0 322.0,279.0 322.2,279.0 322.4,279.0 322.6,279.5 322.8,279.5 323.0,279.5 323.1,279.5 323.3,279.5 323.5,279.5 323.7,279.5 323.9,279.5 324.1,279.5 324.3,279.5 324.4,279.5 324.6,279.5 324.8,279.5 325.0,279.5 325.2,279.5 325.4,279.5 325.6,279.5 325.7,279.5 325.9,278.8 326.1,278.9 326.3,278.9 326.5,278.9 326.7,278.9 326.9,278.9 327.0,278.9 327.2,278.9 327.4,279.0 327.6,279.0 327.8,279.6 328.0,279.0 328.2,279.0 328.3,279.2 328.5,279.2 328.7,279.2 328.9,279.2 329.1,279.2 329.3,279.2 329.5,279.2 329.6,279.2 329.8,279.6 330.0,279.6 330.2,279.6 330.4,279.6 330.6,279.6 330.8,279.6 330.9,279.6 331.1,279.6 331.3,279.6 331.5,279.6 331.7,279.6 331.9,279.6 332.1,279.6 332.2,279.6 332.4,279.6 332.6,279.6 332.8,279.6 333.0,279.6 333.2,279.6 333.4,279.6 333.6,279.6 333.7,279.6 333.9,279.6 334.1,279.6 334.3,278.7 334.5,278.7 334.7,278.7 334.9,278.7 335.0,279.1 335.2,279.1 335.4,279.1 335.6,279.1 335.8,279.1 336.0,279.1 336.2,279.1 336.3,279.1 336.5,279.1 336.7,279.1 336.9,279.1 337.1,279.1 337.3,279.1 337.5,279.1 337.6,279.1 337.8,279.1 338.0,279.1 338.2,279.1 338.4,279.1 338.6,279.1 338.8,281.7 338.9,281.7 339.1,281.7 339.3,281.7 339.5,281.7 339.7,281.7 339.9,281.7 340.1,281.7 340.2,281.7 340.4,281.7 340.6,281.7 340.8,281.7 341.0,281.7 341.2,281.7 341.4,281.7 341.5,281.7 341.7,281.7 341.9,281.7 342.1,281.7 342.3,281.7 342.5,281.7 342.7,281.7 342.8,281.7 343.0,281.7 343.2,281.7 343.4,281.7 343.6,281.7 343.8,281.7 344.0,281.7 344.1,280.6 344.3,283.4 344.5,283.4 344.7,281.8 344.9,281.8 345.1,281.6 345.3,281.6 345.4,281.6 345.6,281.6 345.8,281.6 346.0,281.6 346.2,281.6 346.4,281.6 346.6,281.6 346.7,281.6 346.9,281.1 347.1,281.1 347.3,281.1 347.5,281.1 347.7,281.1 347.9,281.1 348.0,281.1 348.2,281.1 348.4,281.1 348.6,279.8 348.8,279.8 349.0,279.8 349.2,279.8 349.3,279.8 349.5,280.0 349.7,278.0 349.9,278.0 350.1,278.0 350.3,278.0 350.5,278.0 350.6,278.0 350.8,278.0 351.0,278.0 351.2,278.0 351.4,279.0 351.6,279.0 351.8,279.0 351.9,279.0 352.1,279.0 352.3,279.0 352.5,279.0 352.7,279.0 352.9,279.0 353.1,279.0 353.2,279.0 353.4,279.0 353.6,279.0 353.8,279.0 354.0,279.0 354.2,279.0 354.4,279.0 354.5,279.0 354.7,279.7 354.9,279.7 355.1,279.7 355.3,279.7 355.5,282.1 355.7,281.7 355.8,281.6 356.0,281.6 356.2,281.6 356.4,281.6 356.6,281.6 356.8,280.1 357.0,281.9 357.1,281.9 357.3,281.5 357.5,281.5 357.7,281.5 357.9,281.5 358.1,281.5 358.3,281.5 358.4,281.5 358.6,281.5 358.8,281.5 359.0,281.5 359.2,281.5 359.4,281.5 359.6,281.5 359.7,281.5 359.9,281.5 360.1,281.5 360.3,281.5 360.5,280.6 360.7,280.6 360.9,280.6 361.0,280.6 361.2,280.6 361.4,280.6 361.6,280.6 361.8,280.6 362.0,281.8 362.2,282.1 362.3,282.1 362.5,282.1 362.7,282.1 362.9,282.1 363.1,282.1 363.3,282.1 363.5,282.1 363.6,282.1 363.8,282.1 364.0,282.1 364.2,282.1 364.4,282.1 364.6,282.1 364.8,282.1 364.9,282.1 365.1,282.1 365.3,282.1 365.5,282.1 365.7,282.1 365.9,282.9 366.1,283.7 366.2,282.2 366.4,282.7 366.6,282.7 366.8,282.7 367.0,282.7 367.2,282.1 367.4,282.1 367.5,282.3 367.7,280.9 367.9,282.1 368.1,282.6 368.3,282.6 368.5,282.6 368.7,282.6 368.8,282.6 369.0,282.6 369.2,283.0 369.4,283.0 369.6,282.6 369.8,282.6 370.0,282.6 370.1,282.6 370.3,282.6 370.5,282.4 370.7,282.4 370.9,282.4 371.1,282.4 371.3,282.4 371.4,282.4 371.6,282.4 371.8,282.4 372.0,282.4 372.2,282.3 372.4,282.3 372.6,282.3 372.7,282.3 372.9,282.3 373.1,282.1 373.3,282.3 373.5,282.3 373.7,282.3 373.9,282.1 374.0,282.1 374.2,282.1 374.4,282.1 374.6,282.1 374.8,282.1 375.0,282.1 375.2,282.1 375.3,282.1 375.5,282.3 375.7,282.3 375.9,282.3 376.1,282.3 376.3,282.3 376.5,282.3 376.7,282.3 376.8,282.3 377.0,282.3 377.2,282.3 377.4,282.3 377.6,282.3 377.8,282.3 378.0,282.3 378.1,282.3 378.3,282.3 378.5,282.3 378.7,282.3 378.9,282.3 379.1,282.3 379.3,282.3 379.4,282.3 379.6,282.3 379.8,282.4 380.0,282.7 380.2,283.5 380.4,283.7 380.6,283.7 380.7,283.7 380.9,283.7 381.1,283.7 381.3,283.7 381.5,283.7 381.7,284.0 381.9,284.0 382.0,284.9 382.2,284.9 382.4,284.9 382.6,283.7 382.8,283.7 383.0,284.8 383.2,284.6 383.3,285.1 383.5,284.2 383.7,284.2 383.9,284.2 384.1,284.2 384.3,284.2 384.5,284.2 384.6,284.2 384.8,284.2 385.0,284.2 385.2,284.2 385.4,284.7 385.6,284.7 385.8,284.7 385.9,284.7 386.1,284.4 386.3,284.7 386.5,284.7 386.7,284.7 386.9,284.7 387.1,284.4 387.2,284.2 387.4,284.7 387.6,284.7 387.8,284.7 388.0,284.7 388.2,284.7 388.4,284.6 388.5,284.6 388.7,284.6 388.9,284.6 389.1,284.7 389.3,284.7 389.5,284.7 389.7,284.6 389.8,284.6 390.0,284.6 390.2,284.5 390.4,284.5 390.6,284.5 390.8,284.5 391.0,284.5 391.1,284.5 391.3,284.5 391.5,284.5 391.7,284.3 391.9,284.3 392.1,284.3 392.3,284.3 392.4,284.3 392.6,284.3 392.8,284.2 393.0,284.2 393.2,284.2 393.4,285.1 393.6,285.1 393.7,285.1 393.9,285.1 394.1,285.1 394.3,285.1 394.5,284.6 394.7,284.6 394.9,284.2 395.0,284.2 395.2,284.2 395.4,282.7 395.6,282.5 395.8,282.5 396.0,282.3 396.2,282.3 396.3,282.1 396.5,282.1 396.7,281.0 396.9,280.7 397.1,280.7 397.3,280.6 397.5,280.5 397.6,280.7 397.8,280.7 398.0,280.7 398.2,282.1 398.4,282.1 398.6,282.1 398.8,281.8 398.9,281.8 399.1,280.1 399.3,280.1 399.5,280.3 399.7,280.4 399.9,280.4 400.1,280.4 400.2,280.4 400.4,280.1 400.6,280.1 400.8,280.3 401.0,280.3 401.2,280.3 401.4,280.3 401.5,280.3 401.7,280.3 401.9,280.5 402.1,280.5 402.3,280.5 402.5,280.5 402.7,280.5 402.8,280.1 403.0,280.5 403.2,280.5 403.4,280.5 403.6,280.1 403.8,280.1 404.0,280.1 404.1,281.3 404.3,281.5 404.5,282.1 404.7,283.2 404.9,283.8 405.1,283.9 405.3,284.2 405.4,284.2 405.6,283.9 405.8,284.2 406.0,284.2 406.2,282.1 406.4,282.1 406.6,282.1 406.7,282.1 406.9,282.1 407.1,282.1 407.3,282.1 407.5,282.1 407.7,282.1 407.9,282.1 408.0,284.1 408.2,284.1 408.4,282.7 408.6,282.1 408.8,282.1 409.0,282.1 409.2,282.1 409.3,282.1 409.5,281.8 409.7,281.8 409.9,280.1 410.1,280.1 410.3,280.1 410.5,280.1 410.6,280.1 410.8,280.1 411.0,280.1 411.2,280.1 411.4,280.1 411.6,281.1 411.8,281.1 411.9,281.1 412.1,281.1 412.3,281.1 412.5,281.1 412.7,281.1 412.9,280.1 413.1,280.1 413.2,280.1 413.4,280.1 413.6,280.1 413.8,280.1 414.0,280.1 414.2,280.1 414.4,280.1 414.5,280.1 414.7,280.1 414.9,280.1 415.1,280.1 415.3,280.1 415.5,280.1 415.7,280.1 415.8,280.6 416.0,280.1 416.2,280.1 416.4,280.1 416.6,280.1 416.8,280.1 417.0,280.1 417.1,280.1 417.3,280.1 417.5,280.1 417.7,280.1 417.9,280.1 418.1,279.0 418.3,280.1 418.4,280.1 418.6,280.1 418.8,280.1 419.0,280.1 419.2,280.1 419.4,280.1 419.6,277.0 419.8,277.0 419.9,277.0 420.1,280.1 420.3,280.1 420.5,280.1 420.7,280.1 420.9,280.1 421.1,280.1 421.2,280.1 421.4,280.1 421.6,280.1 421.8,280.1 422.0,280.1 422.2,280.1 422.4,280.1 422.5,280.1 422.7,277.0 422.9,277.0 423.1,277.0 423.3,278.2 423.5,278.2 423.7,278.2 423.8,278.2 424.0,280.1 424.2,280.1 424.4,280.1 424.6,279.7 424.8,279.7 425.0,279.0 425.1,279.0 425.3,278.5 425.5,278.5 425.7,278.5 425.9,277.0 426.1,277.0 426.3,277.0 426.4,277.0 426.6,277.0 426.8,278.5 427.0,278.5 427.2,278.5 427.4,278.5 427.6,278.5 427.7,277.0 427.9,277.0 428.1,277.0 428.3,277.0 428.5,277.0 428.7,277.0 428.9,280.1 429.0,279.6 429.2,278.0 429.4,278.0 429.6,278.0 429.8,278.0 430.0,278.0 430.2,278.0 430.3,277.5 430.5,278.2 430.7,278.4 430.9,278.4 431.1,278.0 431.3,278.0 431.5,278.0 431.6,278.0 431.8,278.0 432.0,277.5 432.2,278.5 432.4,278.5 432.6,278.8 432.8,278.8 432.9,278.8 433.1,280.1 433.3,280.1 433.5,280.1 433.7,280.1 433.9,280.1 434.1,280.1 434.2,280.1 434.4,280.1 434.6,279.0 434.8,279.0 435.0,279.0 435.2,279.0 435.4,279.0 435.5,279.0 435.7,279.0 435.9,279.0 436.1,279.0 436.3,279.0 436.5,280.1 436.7,280.1 436.8,280.1 437.0,280.1 437.2,280.1 437.4,280.1 437.6,280.1 437.8,280.1 438.0,280.1 438.1,280.1 438.3,280.1 438.5,280.1 438.7,280.1 438.9,280.1 439.1,280.1 439.3,280.1 439.4,280.1 439.6,280.1 439.8,280.1 440.0,280.5 440.2,280.5 440.4,280.5 440.6,280.5 440.7,280.5 440.9,280.5 441.1,280.5 441.3,280.5 441.5,280.5 441.7,280.5 441.9,280.5 442.0,280.5 442.2,280.5 442.4,276.0 442.6,276.1 442.8,275.5 443.0,275.5 443.2,275.5 443.3,275.5 443.5,275.5 443.7,275.4 443.9,275.4 444.1,275.4 444.3,275.4 444.5,275.4 444.6,275.4 444.8,277.1 445.0,277.1 445.2,277.1 445.4,277.1 445.6,277.1 445.8,277.1 445.9,277.1 446.1,277.1 446.3,277.1 446.5,278.4 446.7,278.4 446.9,278.4 447.1,275.4 447.2,275.4 447.4,275.4 447.6,275.4 447.8,275.4 448.0,275.4 448.2,275.4 448.4,274.4 448.5,274.4 448.7,274.4 448.9,274.4 449.1,274.4 449.3,274.4 449.5,274.4 449.7,274.4 449.8,274.4 450.0,274.4 450.2,274.4 450.4,274.4 450.6,274.4 450.8,274.4 451.0,274.4 451.1,274.4 451.3,274.4 451.5,274.4 451.7,274.4 451.9,274.4 452.1,274.4 452.3,264.1 452.4,263.9 452.6,266.2 452.8,266.2 453.0,266.2 453.2,266.2 453.4,266.2 453.6,266.2 453.7,266.2 453.9,266.9 454.1,266.9 454.3,266.9 454.5,266.9 454.7,266.9 454.9,266.9 455.0,266.9 455.2,266.9 455.4,266.9 455.6,266.9 455.8,266.9 456.0,266.9 456.2,266.9 456.3,266.9 456.5,266.9 456.7,266.9 456.9,266.9 457.1,266.9 457.3,266.9 457.5,266.9 457.6,266.9 457.8,266.9 458.0,271.8 458.2,271.8 458.4,271.8 458.6,266.9 458.8,266.9 458.9,266.9 459.1,266.9 459.3,266.9 459.5,266.9 459.7,266.9 459.9,266.9 460.1,266.9 460.2,266.9 460.4,266.9 460.6,269.2 460.8,269.2 461.0,270.8 461.2,270.8 461.4,270.8 461.6,270.8 461.7,270.8 461.9,270.8 462.1,273.4 462.3,271.8 462.5,269.3 462.7,269.4 462.9,269.4 463.0,269.6 463.2,269.5 463.4,269.5 463.6,269.5 463.8,269.5 464.0,269.5 464.2,269.4 464.3,269.4 464.5,269.8 464.7,269.8 464.9,269.8 465.1,268.3 465.3,268.3 465.5,268.3 465.6,268.3 465.8,268.4 466.0,268.4 466.2,269.8 466.4,269.8 466.6,269.8 466.8,269.8 466.9,269.8 467.1,270.6 467.3,271.6 467.5,273.9 467.7,273.9 467.9,276.0 468.1,276.0 468.2,278.0 468.4,279.6 468.6,279.6 468.8,277.0 469.0,274.5 469.2,272.5 469.4,272.5 469.5,272.5 469.7,272.5 469.9,272.5 470.1,272.5 470.3,272.5 470.5,272.5 470.7,272.5 470.8,272.5 471.0,272.5 471.2,272.5 471.4,272.5 471.6,272.5 471.8,272.5 472.0,272.5 472.1,272.5 472.3,272.5 472.5,272.5 472.7,272.5 472.9,272.5 473.1,272.5 473.3,272.5 473.4,273.8 473.6,273.8 473.8,273.8 474.0,273.8 474.2,273.8 474.4,273.8 474.6,273.8 474.7,275.4 474.9,274.9 475.1,274.9 475.3,279.6 475.5,279.0 475.7,278.6 475.9,279.0 476.0,279.6 476.2,279.4 476.4,281.1 476.6,281.1 476.8,280.6 477.0,280.6 477.2,280.6 477.3,280.3 477.5,279.6 477.7,279.6 477.9,281.1 478.1,280.1 478.3,280.0 478.5,280.0 478.6,280.0 478.8,280.0 479.0,280.0 479.2,279.6 479.4,280.1 479.6,280.1 479.8,280.1 479.9,280.1 480.1,280.1 480.3,280.1 480.5,280.1 480.7,280.1 480.9,280.1 481.1,279.6 481.2,279.6 481.4,277.0 481.6,277.0 481.8,277.0 482.0,276.0 482.2,273.9 482.4,273.9 482.5,273.9 482.7,275.1 482.9,275.3 483.1,275.3 483.3,275.3 483.5,275.3 483.7,275.4 483.8,275.4 484.0,275.4 484.2,275.4 484.4,275.4 484.6,274.1 484.8,274.1 485.0,274.1 485.1,274.1 485.3,274.1 485.5,271.8 485.7,272.4 485.9,272.4 486.1,272.4 486.3,272.3 486.4,272.3 486.6,271.3 486.8,270.3 487.0,270.8 487.2,271.1 487.4,271.1 487.6,271.0 487.7,271.0 487.9,270.8 488.1,271.0 488.3,271.0 488.5,271.0 488.7,270.6 488.9,270.6 489.0,270.6 489.2,270.6 489.4,270.0 489.6,270.5 489.8,268.8 490.0,268.8 490.2,270.3 490.3,270.5 490.5,270.6 490.7,270.6 490.9,270.6 491.1,270.6 491.3,270.6 491.5,270.6 491.6,270.6 491.8,270.6 492.0,270.6 492.2,270.6 492.4,270.6 492.6,270.6 492.8,270.6 492.9,270.6 493.1,268.2 493.3,268.2 493.5,261.5 493.7,261.5 493.9,261.5 494.1,264.1 494.2,264.1 494.4,264.1 494.6,264.1 494.8,264.1 495.0,264.1 495.2,264.1 495.4,264.1 495.5,264.1 495.7,268.2 495.9,268.2 496.1,268.2 496.3,270.5 496.5,266.2 496.7,268.2 496.8,267.5 497.0,267.5 497.2,267.5 497.4,267.7 497.6,267.7 497.8,267.7 498.0,267.7 498.1,267.7 498.3,267.7 498.5,267.7 498.7,267.7 498.9,267.7 499.1,267.7 499.3,267.7 499.4,267.7 499.6,267.7 499.8,264.1 500.0,264.1 500.2,263.6 500.4,270.3 500.6,270.3 500.7,270.3 500.9,270.0 501.1,270.0 501.3,270.0 501.5,270.0 501.7,270.0 501.9,269.7 502.0,269.8 502.2,269.8 502.4,269.8 502.6,269.3 502.8,269.3 503.0,269.8 503.2,269.3 503.3,269.3 503.5,269.3 503.7,269.6 503.9,269.3 504.1,270.2 504.3,270.2 504.5,270.2 504.7,270.2 504.8,269.8 505.0,269.8 505.2,269.8 505.4,269.8 505.6,269.8 505.8,268.9 506.0,270.2 506.1,270.2 506.3,270.2 506.5,269.3 506.7,269.3 506.9,269.3 507.1,270.3 507.3,270.3 507.4,270.3 507.6,270.3 507.8,270.4 508.0,270.5 508.2,270.5 508.4,270.5 508.6,270.5 508.7,270.3 508.9,270.3 509.1,270.3 509.3,269.3 509.5,268.8 509.7,269.4 509.9,270.6 510.0,270.9 510.2,270.6 510.4,270.9 510.6,270.9 510.8,270.9 511.0,270.9 511.2,270.9 511.3,270.9 511.5,270.9 511.7,270.9 511.9,270.9 512.1,270.9 512.3,270.9 512.5,270.9 512.6,270.9 512.8,270.9 513.0,270.9 513.2,270.9 513.4,270.9 513.6,270.9 513.8,270.9 513.9,270.9 514.1,270.9 514.3,270.9 514.5,270.9 514.7,270.9 514.9,269.5 515.1,269.5 515.2,269.5 515.4,269.5 515.6,269.5 515.8,269.5 516.0,269.5 516.2,269.5 516.4,269.5 516.5,269.5 516.7,269.5 516.9,269.5 517.1,269.5 517.3,269.5 517.5,269.5 517.7,269.5 517.8,269.5 518.0,269.8 518.2,269.8 518.4,269.8 518.6,269.8 518.8,269.8 519.0,269.8 519.1,269.8 519.3,269.8 519.5,269.8 519.7,269.8 519.9,269.8 520.1,269.8 520.3,269.8 520.4,269.8 520.6,269.3 520.8,269.8 521.0,269.8 521.2,269.8 521.4,269.8 521.6,269.8 521.7,269.8 521.9,269.8 522.1,269.8 522.3,269.8 522.5,269.8 522.7,269.8 522.9,269.8 523.0,269.8 523.2,269.8 523.4,271.1 523.6,271.1 523.8,271.5 524.0,271.5 524.2,271.5 524.3,271.5 524.5,271.5 524.7,271.5 524.9,269.3 525.1,269.3 525.3,269.3 525.5,269.3 525.6,267.2 525.8,267.2 526.0,267.2 526.2,267.2 526.4,267.2 526.6,267.2 526.8,267.2 526.9,266.8 527.1,266.8 527.3,266.8 527.5,266.8 527.7,266.8 527.9,266.8 528.1,266.8 528.2,266.8 528.4,266.8 528.6,266.8 528.8,266.8 529.0,266.8 529.2,266.8 529.4,267.7 529.5,267.7 529.7,267.6 529.9,267.6 530.1,267.6 530.3,266.7 530.5,266.7 530.7,266.7 530.8,266.7 531.0,266.7 531.2,266.7 531.4,266.7 531.6,266.7 531.8,266.7 532.0,266.7 532.1,266.7 532.3,266.7 532.5,266.7 532.7,266.7 532.9,266.7 533.1,266.7 533.3,266.7 533.4,266.7 533.6,266.7 533.8,266.7 534.0,266.7 534.2,266.7 534.4,266.7 534.6,266.7 534.7,266.7 534.9,266.7 535.1,266.7 535.3,266.7 535.5,266.7 535.7,266.2 535.9,266.2 536.0,267.4 536.2,267.4 536.4,267.4 536.6,267.4 536.8,267.4 537.0,267.4 537.2,266.7 537.3,264.8 537.5,264.6 537.7,264.6 537.9,264.6 538.1,264.6 538.3,264.3 538.5,264.1 538.6,259.5 538.8,259.5 539.0,256.4 539.2,255.9 539.4,251.2 539.6,251.2 539.8,254.8 539.9,261.5 540.1,261.5 540.3,251.2 540.5,251.2 540.7,251.2 540.9,251.2 541.1,251.8 541.2,251.8 541.4,251.8 541.6,251.2 541.8,250.7 542.0,250.7 542.2,250.7 542.4,250.7 542.5,251.2 542.7,251.2 542.9,251.2 543.1,251.2 543.3,251.2 543.5,246.6 543.7,251.2 543.8,251.2 544.0,246.1 544.2,246.1 544.4,246.1 544.6,248.7 544.8,248.7 545.0,248.7 545.1,248.7 545.3,251.2 545.5,251.2 545.7,251.2 545.9,251.2 546.1,247.1 546.3,246.6 546.4,246.6 546.6,246.6 546.8,246.6 547.0,248.2 547.2,248.7 547.4,248.7 547.6,248.7 547.8,248.7 547.9,247.6 548.1,247.6 548.3,249.7 548.5,247.6 548.7,247.6 548.9,247.6 549.1,247.6 549.2,247.6 549.4,247.6 549.6,247.6 549.8,247.6 550.0,247.7 550.2,249.2 550.4,249.2 550.5,249.2 550.7,249.2 550.9,247.6 551.1,247.6 551.3,247.6 551.5,247.6 551.7,247.6 551.8,247.6 552.0,247.6 552.2,249.2 552.4,249.2 552.6,249.2 552.8,249.2 553.0,249.2 553.1,248.4 553.3,248.4 553.5,248.4 553.7,248.4 553.9,248.4 554.1,249.2 554.3,249.2 554.4,249.2 554.6,249.2 554.8,249.2 555.0,249.2 555.2,249.2 555.4,249.2 555.6,251.2 555.7,251.2 555.9,249.7 556.1,249.7 556.3,249.7 556.5,249.7 556.7,249.7 556.9,249.5 557.0,249.7 557.2,249.3 557.4,249.3 557.6,249.3 557.8,249.2 558.0,249.4 558.2,249.3 558.3,249.5 558.5,249.5 558.7,249.5 558.9,249.2 559.1,249.2 559.3,249.2 559.5,249.2 559.6,249.2 559.8,249.2 560.0,249.5 560.2,249.5 560.4,249.2 560.6,249.5 560.8,249.5 560.9,249.5 561.1,249.5 561.3,249.5 561.5,249.5 561.7,249.2 561.9,249.2 562.1,249.2 562.2,249.2 562.4,249.2 562.6,249.2 562.8,249.2 563.0,249.6 563.2,249.6 563.4,249.6 563.5,249.6 563.7,249.7 563.9,249.7 564.1,249.7 564.3,249.7 564.5,249.2 564.7,248.2 564.8,248.2 565.0,248.2 565.2,249.7 565.4,249.7 565.6,249.7 565.8,248.5 566.0,248.3 566.1,248.7 566.3,249.7 566.5,249.7 566.7,249.7 566.9,249.7 567.1,249.3 567.3,249.2 567.4,248.2 567.6,248.2 567.8,248.2 568.0,248.2 568.2,248.2 568.4,248.2 568.6,248.7 568.7,248.7 568.9,249.2 569.1,249.2 569.3,249.2 569.5,249.2 569.7,249.7 569.9,249.7 570.0,249.7 570.2,249.7 570.4,249.7 570.6,249.7 570.8,249.7 571.0,249.7 571.2,249.7 571.3,249.7 571.5,249.7 571.7,248.7 571.9,249.7 572.1,249.7 572.3,249.7 572.5,249.7 572.6,250.2 572.8,250.2 573.0,251.2 573.2,249.7 573.4,249.7 573.6,249.7 573.8,250.7 573.9,250.7 574.1,250.7 574.3,250.7 574.5,250.7 574.7,250.7 574.9,250.7 575.1,250.7 575.2,250.7 575.4,250.7 575.6,250.7 575.8,250.7 576.0,249.2 576.2,249.2 576.4,249.2 576.5,249.2 576.7,249.2 576.9,249.2 577.1,249.2 577.3,248.3 577.5,248.3 577.7,248.3 577.8,248.3 578.0,248.3 578.2,248.3 578.4,248.3 578.6,248.3 578.8,248.3 579.0,248.3 579.1,243.5 579.3,243.5 579.5,246.5 579.7,247.4 579.9,247.4 580.1,247.4 580.3,247.4 580.4,242.7 580.6,242.7 580.8,242.7 581.0,242.7 581.2,240.9 581.4,240.9 581.6,232.2 581.7,232.2 581.9,233.2 582.1,232.2 582.3,232.2 582.5,232.2 582.7,232.2 582.9,232.2 583.0,232.2 583.2,232.2 583.4,232.2 583.6,231.2 583.8,231.2 584.0,232.2 584.2,237.3 584.3,237.3 584.5,237.3 584.7,237.3 584.9,233.2 585.1,233.2 585.3,233.2 585.5,233.2 585.6,233.2 585.8,232.7 586.0,232.7 586.2,232.7 586.4,232.7 586.6,233.0 586.8,234.6 586.9,234.6 587.1,233.0 587.3,233.0 587.5,233.0 587.7,233.0 587.9,233.0 588.1,233.0 588.2,233.0 588.4,233.0 588.6,233.2 588.8,233.2 589.0,233.2 589.2,233.2 589.4,233.2 589.6,233.2 589.7,233.2 589.9,233.2 590.1,233.2 590.3,233.2 590.5,233.2 590.7,233.2 590.9,233.2 591.0,233.2 591.2,233.2 591.4,234.4 591.6,234.4 591.8,234.4 592.0,234.4 592.2,234.4 592.3,234.4 592.5,240.9 592.7,243.5 592.9,243.5 593.1,240.9 593.3,240.9 593.5,240.9 593.6,239.4 593.8,240.8 594.0,241.0 594.2,241.0 594.4,241.0 594.6,240.9 594.8,240.9 594.9,240.9 595.1,241.3 595.3,241.3 595.5,241.3 595.7,242.5 595.9,243.0 596.1,243.0 596.2,243.0 596.4,243.0 596.6,243.0 596.8,243.0 597.0,240.9 597.2,240.9 597.4,240.9 597.5,241.2 597.7,241.2 597.9,241.2 598.1,241.2 598.3,242.0 598.5,242.7 598.7,242.7 598.8,242.7 599.0,242.7 599.2,241.6 599.4,242.4 599.6,242.2 599.8,242.1 600.0,240.9 600.1,241.1 600.3,241.1 600.5,241.1 600.7,241.1 600.9,241.1 601.1,241.5 601.3,241.1 601.4,240.9 601.6,240.9 601.8,240.9 602.0,240.9 602.2,240.9 602.4,240.9 602.6,242.2 602.7,242.2 602.9,242.5 603.1,243.5 603.3,243.0 603.5,243.1 603.7,243.1 603.9,244.0 604.0,245.5 604.2,244.0 604.4,245.1 604.6,245.1 604.8,245.1 605.0,245.1 605.2,245.5 605.3,245.6 605.5,245.5 605.7,245.6 605.9,245.6 606.1,245.6 606.3,244.4 606.5,243.5 606.6,243.5 606.8,243.5 607.0,243.5 607.2,243.5 607.4,243.0 607.6,243.0 607.8,242.5 607.9,242.5 608.1,242.5 608.3,242.5 608.5,244.5 608.7,244.5 608.9,244.5 609.1,244.5 609.2,243.0 609.4,243.0 609.6,243.0 609.8,244.5 610.0,245.1 610.2,245.1 610.4,244.3 610.5,244.3 610.7,244.3 610.9,244.3 611.1,244.0 611.3,243.0 611.5,243.0 611.7,243.0 611.8,243.0 612.0,243.0 612.2,243.0 612.4,243.0 612.6,243.0 612.8,243.0 613.0,243.0 613.1,243.0 613.3,238.5 613.5,238.4 613.7,238.4 613.9,238.9 614.1,238.4 614.3,238.4 614.4,238.9 614.6,238.9 614.8,240.9 615.0,240.9 615.2,240.2 615.4,240.4 615.6,240.4 615.7,240.4 615.9,238.9 616.1,238.9 616.3,238.9 616.5,238.9 616.7,236.8 616.9,236.8 617.0,238.0 617.2,237.9 617.4,237.9 617.6,237.9 617.8,237.9 618.0,237.9 618.2,235.8 618.3,234.1 618.5,231.2 618.7,231.2 618.9,231.2 619.1,231.4 619.3,231.4 619.5,225.5 619.6,220.3 619.8,220.3 620.0,220.3 620.2,222.4 620.4,222.4 620.6,222.4 620.8,222.4 620.9,222.4 621.1,222.4 621.3,222.4 621.5,222.4 621.7,222.4 621.9,222.4 622.1,217.8 622.2,217.8 622.4,217.8 622.6,217.8 622.8,217.8 623.0,217.8 623.2,221.6 623.4,220.3 623.5,222.9 623.7,222.9 623.9,222.9 624.1,222.9 624.3,222.9 624.5,222.9 624.7,222.9 624.8,222.9 625.0,222.9 625.2,222.9 625.4,222.9 625.6,222.9 625.8,222.9 626.0,217.8 626.1,220.3 626.3,220.3 626.5,219.7 626.7,219.7 626.9,220.3 627.1,217.8 627.3,217.8 627.4,215.7 627.6,210.6 627.8,210.6 628.0,210.6 628.2,220.3 628.4,220.3 628.6,220.3 628.7,220.3 628.9,220.3 629.1,217.3 629.3,217.3 629.5,217.3 629.7,216.2 629.9,216.2 630.0,214.7 630.2,214.7 630.4,210.0 630.6,208.1 630.8,205.9 631.0,205.9 631.2,206.7 631.3,206.7 631.5,207.0 631.7,207.0 631.9,207.0 632.1,205.9 632.3,204.9 632.5,204.9 632.7,204.9 632.8,204.9 633.0,205.9 633.2,205.9 633.4,205.9 633.6,204.9 633.8,204.9 634.0,199.7 634.1,204.6 634.3,204.6 634.5,204.9 634.7,204.6 634.9,199.9 635.1,199.9 635.3,204.9 635.4,204.9 635.6,206.3 635.8,206.3 636.0,206.3 636.2,198.7 636.4,198.7 636.6,194.6 636.7,194.6 636.9,194.6 637.1,194.6 637.3,194.6 637.5,194.6 637.7,194.6 637.9,199.7 638.0,199.7 638.2,199.7 638.4,204.1 638.6,194.6 638.8,189.5 639.0,189.5 639.2,189.5 639.3,195.6 639.5,189.5 639.7,189.5 639.9,181.7 640.1,181.7 640.3,181.7 640.5,181.7 640.6,183.8 640.8,181.7 641.0,181.7 641.2,189.5 641.4,181.7 641.6,181.7 641.8,184.3 641.9,184.3 642.1,194.6 642.3,189.5 642.5,191.5 642.7,192.0 642.9,193.7 643.1,193.7 643.2,199.7 643.4,195.2 643.6,195.2 643.8,195.5 644.0,195.5 644.2,195.5 644.4,188.5 644.5,184.3 644.7,183.8 644.9,185.7 645.1,184.8 645.3,184.8 645.5,184.8 645.7,184.3 645.8,189.5 646.0,184.3 646.2,184.3 646.4,184.3 646.6,193.1 646.8,193.1 647.0,193.1 647.1,193.1 647.3,196.7 647.5,196.1 647.7,194.6 647.9,196.7 648.1,196.7 648.3,196.7 648.4,197.0 648.6,195.1 648.8,195.6 649.0,189.5 649.2,189.5 649.4,189.5 649.6,186.4 649.7,189.5 649.9,194.1 650.1,194.1 650.3,196.7 650.5,196.7 650.7,194.6 650.9,194.6 651.0,194.6 651.2,194.6 651.4,195.6 651.6,195.6 651.8,195.6 652.0,195.6 652.2,195.1 652.3,195.1 652.5,199.7 652.7,199.7 652.9,199.7 653.1,199.7 653.3,194.6 653.5,193.6 653.6,193.6 653.8,193.6 654.0,193.6 654.2,193.6 654.4,195.2 654.6,193.6 654.8,193.6 654.9,193.6 655.1,189.5 655.3,192.0 655.5,188.4 655.7,189.5 655.9,196.3 656.1,194.1 656.2,192.5 656.4,192.5 656.6,192.5 656.8,192.5 657.0,189.5 657.2,189.5 657.4,188.4 657.5,188.4 657.7,190.2 657.9,189.5 658.1,188.4 658.3,189.5 658.5,190.4 658.7,190.4 658.8,188.4 659.0,191.5 659.2,191.5 659.4,188.4 659.6,181.7 659.8,181.7 660.0,181.7 660.1,184.3 660.3,184.3 660.5,184.3 660.7,185.8 660.9,185.2 661.1,185.2 661.3,185.2 661.4,187.4 661.6,186.9 661.8,186.9 662.0,186.9 662.2,186.9 662.4,186.9 662.6,186.9 662.7,186.9 662.9,184.3 663.1,184.3 663.3,184.3 663.5,184.3 663.7,186.9 663.9,177.0 664.0,175.0 664.2,168.9 664.4,168.9 664.6,168.9 664.8,168.9 665.0,168.9 665.2,168.9 665.3,167.3 665.5,167.3 665.7,168.9 665.9,167.3 666.1,173.0 666.3,167.3 666.5,168.9 666.6,168.9 666.8,169.9 667.0,181.3 667.2,168.9 667.4,168.9 667.6,168.9 667.8,167.3 667.9,169.8 668.1,168.9 668.3,168.9 668.5,168.9 668.7,167.8 668.9,167.8 669.1,167.8 669.2,167.8 669.4,171.4 669.6,166.3 669.8,166.3 670.0,171.4 670.2,168.9 670.4,168.9 670.5,168.9 670.7,168.9 670.9,158.6 671.1,156.0 671.3,156.0 671.5,157.0 671.7,157.5 671.8,158.0 672.0,158.6 672.2,158.6 672.4,157.0 672.6,157.0 672.8,157.0 673.0,157.0 673.1,156.0 673.3,143.1 673.5,156.0 673.7,138.0 673.9,138.0 674.1,138.0 674.3,134.9 674.4,132.8 674.6,132.8 674.8,135.9 675.0,135.9 675.2,135.9 675.4,135.9 675.6,135.9 675.8,136.3 675.9,136.9 676.1,136.9 676.3,132.8 676.5,135.4 676.7,132.8 676.9,130.2 677.1,127.7 677.2,125.1 677.4,122.5 677.6,122.5 677.8,119.9 678.0,107.1 678.2,104.5 678.4,101.9 678.5,101.9 678.7,96.8 678.9,97.8 679.1,93.7 679.3,99.3 679.5,101.4 679.7,95.7 679.8,107.1 680.0,107.1 680.2,107.1 680.4,112.2 680.6,107.1 680.8,117.4 681.0,102.4 681.1,104.5 681.3,102.4 681.5,102.4 681.7,102.4 681.9,112.2 682.1,112.2 682.3,105.0 682.4,107.1 682.6,100.4 682.8,101.9 683.0,101.9 683.2,95.8 683.4,95.7 683.6,93.7 683.7,91.6 683.9,93.7 684.1,91.6 684.3,91.6 684.5,91.6 684.7,95.6 684.9,91.6 685.0,91.6 685.2,91.6 685.4,93.7 685.6,91.6 685.8,96.8 686.0,93.7 686.2,94.2 686.3,91.6 686.5,90.6 686.7,90.6 686.9,99.3 687.1,96.8 687.3,86.5 687.5,86.5 687.6,86.5 687.8,86.5 688.0,87.0 688.2,83.9 688.4,96.8 688.6,96.8 688.8,93.1 688.9,96.8 689.1,93.1 689.3,94.7 689.5,96.8 689.7,91.6 689.9,92.6 690.1,96.8 690.2,92.6 690.4,92.6 690.6,91.6 690.8,81.8 691.0,81.8 691.2,92.1 691.4,85.9 691.5,86.5 691.7,86.5 691.9,83.9 692.1,82.3 692.3,82.3 692.5,84.4 692.7,81.3 692.8,83.6 693.0,81.3 693.2,89.0 693.4,82.3 693.6,82.3 693.8,81.3 694.0,76.2 694.1,76.2 694.3,76.2 694.5,73.6 694.7,76.2 694.9,76.2 695.1,76.2 695.3,67.2 695.4,65.9 695.6,73.5 695.8,81.6 696.0,92.1"/>
  <text x="60" y="62" font-size="11" fill="#2563eb">Price index</text>
  <text x="146" y="62" font-size="11" fill="#16a34a">Total return (price + distributions)</text>
  <text x="56" y="348" font-size="11" text-anchor="middle" fill="#444">2012-09</text><text x="216" y="348" font-size="11" text-anchor="middle" fill="#444">2016-03</text><text x="376" y="348" font-size="11" text-anchor="middle" fill="#444">2019-08</text><text x="536" y="348" font-size="11" text-anchor="middle" fill="#444">2023-01</text><text x="696" y="348" font-size="11" text-anchor="middle" fill="#444">2026-06</text>
</svg>
