<svg xmlns="http://www.w3.org/2000/svg" width="820" height="410" viewBox="0 0 820 410">
<rect width="820" height="410" fill="#fafafa"/><text x="78" y="22" font-size="14" font-family="sans-serif" fill="#0f172a">WEST cumulative return since 2021-10-20 | dividends reinvested</text>
<text x="78" y="40" font-size="11" font-family="sans-serif" fill="#334155">Total return -25.8% | Price-only -25.8% | logarithmic scale</text>
<text x="78" y="54" font-size="9" font-family="sans-serif" fill="#64748b">Regular $0.00 | Special $0.00 | Other $0.00 per initial share path</text>
<line x1="78" y1="332.0" x2="796" y2="332.0" stroke="#e2e8f0"/><text x="70" y="336.0" font-size="10" text-anchor="end" fill="#64748b">-64.7%</text><line x1="78" y1="287.0" x2="796" y2="287.0" stroke="#e2e8f0"/><text x="70" y="291.0" font-size="10" text-anchor="end" fill="#64748b">-54.5%</text><line x1="78" y1="242.0" x2="796" y2="242.0" stroke="#e2e8f0"/><text x="70" y="246.0" font-size="10" text-anchor="end" fill="#64748b">-41.3%</text><line x1="78" y1="197.0" x2="796" y2="197.0" stroke="#e2e8f0"/><text x="70" y="201.0" font-size="10" text-anchor="end" fill="#64748b">-24.2%</text><line x1="78" y1="152.0" x2="796" y2="152.0" stroke="#e2e8f0"/><text x="70" y="156.0" font-size="10" text-anchor="end" fill="#64748b">-2.2%</text><line x1="78" y1="148.0" x2="796" y2="148.0" stroke="#e2e8f0"/><text x="70" y="152.0" font-size="10" text-anchor="end" fill="#64748b">0%</text><line x1="78" y1="107.0" x2="796" y2="107.0" stroke="#e2e8f0"/><text x="70" y="111.0" font-size="10" text-anchor="end" fill="#64748b">+26.1%</text><line x1="78" y1="62.0" x2="796" y2="62.0" stroke="#e2e8f0"/><text x="70" y="66.0" font-size="10" text-anchor="end" fill="#64748b">+62.7%</text>
<line x1="78" y1="332" x2="796" y2="332" stroke="#cbd5e1"/>
<polyline fill="none" stroke="#2563eb" stroke-width="2" points="78.0,148.0 78.6,148.0 79.2,148.0 79.8,147.8 80.4,147.8 81.0,147.8 81.6,147.8 82.2,147.5 82.8,147.5 83.4,147.1 84.1,147.1 84.7,147.1 85.3,147.3 85.9,147.5 86.5,147.5 87.1,147.5 87.7,147.6 88.3,147.5 88.9,147.3 89.5,147.4 90.1,147.1 90.7,147.1 91.3,146.9 91.9,147.5 92.5,147.3 93.1,147.3 93.7,146.9 94.3,146.9 95.0,147.1 95.6,147.1 96.2,147.1 96.8,147.3 97.4,147.3 98.0,147.5 98.6,147.1 99.2,147.1 99.8,147.3 100.4,147.3 101.0,147.5 101.6,147.5 102.2,147.5 102.8,147.3 103.4,147.3 104.0,147.3 104.6,147.1 105.2,146.9 105.8,147.1 106.5,147.1 107.1,147.1 107.7,147.1 108.3,147.1 108.9,138.3 109.5,146.6 110.1,146.6 110.7,147.1 111.3,145.8 111.9,147.1 112.5,147.5 113.1,146.9 113.7,146.9 114.3,146.9 114.9,146.9 115.5,146.9 116.1,146.9 116.7,146.9 117.4,146.9 118.0,147.5 118.6,147.5 119.2,148.0 119.8,148.0 120.4,147.8 121.0,146.6 121.6,146.7 122.2,147.3 122.8,147.3 123.4,147.3 124.0,147.3 124.6,147.3 125.2,146.8 125.8,146.8 126.4,146.8 127.0,146.8 127.6,146.7 128.2,146.4 128.9,146.6 129.5,146.6 130.1,146.4 130.7,146.4 131.3,146.4 131.9,147.3 132.5,147.1 133.1,147.1 133.7,147.1 134.3,147.1 134.9,147.1 135.5,146.7 136.1,147.1 136.7,147.1 137.3,146.0 137.9,146.0 138.5,146.0 139.1,146.6 139.8,146.6 140.4,146.6 141.0,146.4 141.6,146.4 142.2,146.4 142.8,146.9 143.4,146.7 144.0,146.7 144.6,146.6 145.2,146.6 145.8,146.4 146.4,146.2 147.0,144.7 147.6,144.6 148.2,144.2 148.8,144.4 149.4,143.9 150.0,144.2 150.6,144.0 151.3,143.3 151.9,142.6 152.5,142.3 153.1,142.3 153.7,142.4 154.3,143.0 154.9,143.7 155.5,144.0 156.1,143.9 156.7,143.5 157.3,142.1 157.9,143.8 158.5,143.3 159.1,143.0 159.7,143.3 160.3,143.1 160.9,143.7 161.5,145.1 162.2,144.4 162.8,144.6 163.4,145.4 164.0,144.8 164.6,144.4 165.2,144.7 165.8,144.4 166.4,144.5 167.0,143.9 167.6,144.0 168.2,144.0 168.8,144.0 169.4,144.4 170.0,143.9 170.6,144.2 171.2,144.6 171.8,144.2 172.4,143.9 173.0,143.4 173.7,144.0 174.3,143.4 174.9,143.7 175.5,144.8 176.1,144.2 176.7,144.4 177.3,143.9 177.9,144.6 178.5,144.5 179.1,145.1 179.7,144.7 180.3,144.4 180.9,143.5 181.5,143.5 182.1,143.1 182.7,143.7 183.3,143.8 183.9,143.5 184.5,143.3 185.2,142.6 185.8,142.8 186.4,143.0 187.0,142.8 187.6,143.3 188.2,143.7 188.8,143.5 189.4,143.7 190.0,143.5 190.6,143.7 191.2,143.9 191.8,143.7 192.4,143.7 193.0,143.7 193.6,143.5 194.2,143.1 194.8,143.0 195.4,143.0 196.1,141.7 196.7,142.3 197.3,142.3 197.9,142.3 198.5,142.3 199.1,142.4 199.7,142.4 200.3,142.3 200.9,142.4 201.5,142.1 202.1,142.1 202.7,141.9 203.3,141.7 203.9,142.3 204.5,142.1 205.1,141.9 205.7,137.7 206.3,84.9 206.9,118.4 207.6,123.2 208.2,117.6 208.8,106.6 209.4,125.8 210.0,128.0 210.6,126.9 211.2,118.8 211.8,120.9 212.4,123.2 213.0,129.0 213.6,135.0 214.2,137.6 214.8,142.8 215.4,141.4 216.0,141.9 216.6,138.4 217.2,139.8 217.8,140.5 218.5,139.8 219.1,139.5 219.7,146.7 220.3,133.8 220.9,133.8 221.5,129.8 222.1,136.7 222.7,136.0 223.3,143.0 223.9,144.6 224.5,146.4 225.1,145.8 225.7,142.3 226.3,149.7 226.9,149.1 227.5,150.8 228.1,145.3 228.7,141.0 229.3,140.9 230.0,134.0 230.6,135.5 231.2,137.6 231.8,137.4 232.4,131.0 233.0,136.5 233.6,131.7 234.2,126.7 234.8,126.4 235.4,132.5 236.0,132.8 236.6,128.5 237.2,118.7 237.8,123.1 238.4,121.8 239.0,117.1 239.6,114.0 240.2,97.6 240.9,100.9 241.5,93.0 242.1,98.9 242.7,99.1 243.3,95.2 243.9,97.5 244.5,98.2 245.1,89.6 245.7,85.7 246.3,103.9 246.9,106.7 247.5,103.2 248.1,100.0 248.7,89.2 249.3,84.3 249.9,82.5 250.5,76.5 251.1,82.1 251.7,84.2 252.4,86.2 253.0,78.8 253.6,79.4 254.2,81.5 254.8,86.1 255.4,101.1 256.0,108.3 256.6,91.4 257.2,112.2 257.8,99.1 258.4,99.3 259.0,95.4 259.6,90.8 260.2,91.3 260.8,89.8 261.4,86.0 262.0,86.0 262.6,85.6 263.3,88.1 263.9,95.6 264.5,92.7 265.1,90.1 265.7,88.7 266.3,88.9 266.9,96.8 267.5,97.2 268.1,96.5 268.7,97.1 269.3,98.2 269.9,96.0 270.5,97.2 271.1,98.7 271.7,97.3 272.3,94.9 272.9,95.0 273.5,93.0 274.1,92.1 274.8,89.6 275.4,91.8 276.0,96.1 276.6,95.6 277.2,101.5 277.8,109.1 278.4,111.0 279.0,111.7 279.6,110.2 280.2,114.4 280.8,122.0 281.4,124.3 282.0,123.9 282.6,124.2 283.2,119.6 283.8,122.7 284.4,123.9 285.0,120.9 285.7,119.9 286.3,128.9 286.9,126.6 287.5,124.3 288.1,125.5 288.7,122.4 289.3,121.6 289.9,116.2 290.5,122.1 291.1,117.5 291.7,111.9 292.3,110.2 292.9,111.6 293.5,107.3 294.1,110.2 294.7,107.5 295.3,108.1 295.9,110.2 296.5,108.1 297.2,108.5 297.8,106.7 298.4,107.5 299.0,106.9 299.6,108.1 300.2,103.9 300.8,102.3 301.4,100.5 302.0,104.7 302.6,102.8 303.2,104.3 303.8,102.6 304.4,107.5 305.0,109.7 305.6,104.3 306.2,102.2 306.8,103.9 307.4,110.4 308.1,105.5 308.7,107.6 309.3,106.9 309.9,108.8 310.5,112.9 311.1,112.8 311.7,115.0 312.3,115.5 312.9,114.9 313.5,115.9 314.1,115.5 314.7,116.2 315.3,127.1 315.9,121.6 316.5,130.7 317.1,128.2 317.7,132.2 318.3,130.3 318.9,122.9 319.6,122.4 320.2,126.1 320.8,123.2 321.4,123.1 322.0,124.7 322.6,125.1 323.2,120.4 323.8,120.1 324.4,119.5 325.0,122.4 325.6,125.9 326.2,123.5 326.8,120.9 327.4,120.7 328.0,123.1 328.6,118.8 329.2,114.1 329.8,114.4 330.5,117.8 331.1,121.6 331.7,123.2 332.3,122.4 332.9,128.2 333.5,129.2 334.1,128.5 334.7,123.2 335.3,127.7 335.9,125.8 336.5,129.5 337.1,132.8 337.7,129.8 338.3,131.7 338.9,134.3 339.5,131.6 340.1,128.2 340.7,126.1 341.3,125.0 342.0,118.8 342.6,118.7 343.2,117.5 343.8,120.4 344.4,128.2 345.0,127.4 345.6,122.9 346.2,125.0 346.8,122.7 347.4,124.1 348.0,123.1 348.6,124.3 349.2,127.9 349.8,128.2 350.4,128.7 351.0,129.8 351.6,127.2 352.2,136.5 352.8,128.0 353.5,129.8 354.1,131.5 354.7,130.7 355.3,129.3 355.9,129.3 356.5,128.4 357.1,133.3 357.7,138.8 358.3,138.9 358.9,141.6 359.5,141.7 360.1,141.4 360.7,141.2 361.3,141.7 361.9,142.6 362.5,139.8 363.1,138.4 363.7,138.9 364.4,139.5 365.0,140.0 365.6,142.2 366.2,142.1 366.8,141.6 367.4,140.7 368.0,141.7 368.6,146.4 369.2,153.2 369.8,155.3 370.4,158.3 371.0,159.8 371.6,166.8 372.2,166.2 372.8,163.2 373.4,163.8 374.0,164.4 374.6,165.0 375.2,162.8 375.9,164.0 376.5,168.1 377.1,169.1 377.7,164.2 378.3,171.6 378.9,178.2 379.5,177.1 380.1,168.9 380.7,165.8 381.3,167.1 381.9,167.2 382.5,169.9 383.1,169.1 383.7,165.3 384.3,165.0 384.9,170.5 385.5,171.8 386.1,172.8 386.8,176.6 387.4,182.1 388.0,175.8 388.6,173.0 389.2,168.7 389.8,166.4 390.4,167.6 391.0,173.0 391.6,194.8 392.2,198.6 392.8,183.0 393.4,169.7 394.0,171.6 394.6,169.7 395.2,174.7 395.8,169.5 396.4,161.8 397.0,160.7 397.6,160.7 398.3,154.9 398.9,156.2 399.5,157.2 400.1,158.3 400.7,158.0 401.3,160.3 401.9,153.6 402.5,155.4 403.1,152.6 403.7,148.0 404.3,146.7 404.9,140.5 405.5,142.3 406.1,148.0 406.7,146.9 407.3,144.9 407.9,145.1 408.5,143.7 409.2,143.5 409.8,139.8 410.4,138.8 411.0,136.2 411.6,138.8 412.2,139.8 412.8,140.0 413.4,144.9 414.0,146.9 414.6,143.9 415.2,145.3 415.8,141.4 416.4,141.4 417.0,141.9 417.6,144.9 418.2,144.8 418.8,139.6 419.4,139.6 420.0,133.5 420.7,134.7 421.3,133.7 421.9,133.2 422.5,134.6 423.1,129.2 423.7,129.3 424.3,136.2 424.9,134.5 425.5,132.5 426.1,139.1 426.7,137.4 427.3,140.0 427.9,140.9 428.5,137.2 429.1,132.8 429.7,136.2 430.3,130.5 430.9,123.5 431.6,127.1 432.2,135.7 432.8,140.2 433.4,141.4 434.0,142.4 434.6,151.6 435.2,145.3 435.8,145.6 436.4,140.3 437.0,144.0 437.6,145.1 438.2,149.5 438.8,152.1 439.4,155.1 440.0,153.0 440.6,160.1 441.2,158.3 441.8,134.8 442.4,144.6 443.1,149.7 443.7,146.9 444.3,145.5 444.9,141.4 445.5,140.9 446.1,143.3 446.7,143.7 447.3,144.0 447.9,138.3 448.5,136.7 449.1,137.1 449.7,138.6 450.3,138.8 450.9,140.9 451.5,140.2 452.1,136.7 452.7,136.0 453.3,141.2 454.0,142.1 454.6,142.6 455.2,142.8 455.8,142.1 456.4,141.5 457.0,141.6 457.6,138.4 458.2,140.7 458.8,142.8 459.4,142.6 460.0,143.7 460.6,141.9 461.2,138.1 461.8,140.0 462.4,135.0 463.0,134.2 463.6,133.5 464.2,132.3 464.8,131.8 465.5,132.3 466.1,131.0 466.7,133.8 467.3,131.0 467.9,129.7 468.5,129.8 469.1,131.3 469.7,132.3 470.3,132.3 470.9,131.3 471.5,133.5 472.1,132.8 472.7,130.4 473.3,134.5 473.9,137.1 474.5,137.4 475.1,135.9 475.7,135.3 476.4,135.3 477.0,133.8 477.6,133.8 478.2,136.5 478.8,140.2 479.4,141.4 480.0,144.2 480.6,147.3 481.2,144.2 481.8,143.0 482.4,144.6 483.0,143.0 483.6,141.2 484.2,141.6 484.8,140.7 485.4,135.7 486.0,137.6 486.6,138.4 487.2,142.4 487.9,140.0 488.5,141.4 489.1,142.4 489.7,142.1 490.3,149.8 490.9,146.2 491.5,143.0 492.1,143.1 492.7,141.9 493.3,140.2 493.9,141.0 494.5,142.8 495.1,143.0 495.7,141.0 496.3,141.6 496.9,142.8 497.5,141.7 498.1,140.7 498.8,140.3 499.4,144.0 500.0,144.2 500.6,147.8 501.2,150.6 501.8,155.4 502.4,150.9 503.0,150.4 503.6,154.5 504.2,156.0 504.8,160.1 505.4,158.3 506.0,158.3 506.6,159.1 507.2,164.4 507.8,165.2 508.4,172.2 509.0,167.8 509.6,168.1 510.3,169.9 510.9,170.6 511.5,170.9 512.1,167.6 512.7,166.6 513.3,182.0 513.9,186.3 514.5,181.0 515.1,174.3 515.7,178.6 516.3,179.4 516.9,184.7 517.5,196.1 518.1,198.5 518.7,204.4 519.3,210.2 519.9,200.5 520.5,200.2 521.2,199.0 521.8,212.9 522.4,203.2 523.0,208.1 523.6,215.3 524.2,212.1 524.8,214.0 525.4,218.5 526.0,225.4 526.6,226.3 527.2,228.4 527.8,234.1 528.4,241.4 529.0,241.9 529.6,238.6 530.2,247.4 530.8,240.5 531.4,222.4 532.0,216.6 532.7,206.9 533.3,210.5 533.9,209.3 534.5,204.9 535.1,205.9 535.7,205.7 536.3,209.8 536.9,210.5 537.5,205.9 538.1,215.5 538.7,215.3 539.3,214.7 539.9,212.4 540.5,208.2 541.1,201.7 541.7,195.1 542.3,198.0 542.9,200.2 543.5,190.7 544.2,203.7 544.8,212.1 545.4,210.8 546.0,214.2 546.6,212.6 547.2,210.5 547.8,208.1 548.4,196.8 549.0,184.3 549.6,179.0 550.2,184.5 550.8,180.3 551.4,181.2 552.0,176.2 552.6,187.0 553.2,188.4 553.8,194.4 554.4,207.5 555.1,196.3 555.7,200.0 556.3,203.4 556.9,205.4 557.5,206.2 558.1,203.2 558.7,205.4 559.3,220.1 559.9,221.2 560.5,224.6 561.1,225.4 561.7,215.3 562.3,210.9 562.9,216.4 563.5,225.4 564.1,220.7 564.7,222.6 565.3,216.1 565.9,230.9 566.6,225.4 567.2,225.2 567.8,229.1 568.4,225.7 569.0,224.6 569.6,232.6 570.2,225.2 570.8,223.5 571.4,218.0 572.0,221.0 572.6,214.1 573.2,208.7 573.8,204.9 574.4,208.0 575.0,207.7 575.6,201.9 576.2,206.4 576.8,210.8 577.5,211.6 578.1,220.7 578.7,215.5 579.3,219.6 579.9,214.5 580.5,214.7 581.1,216.9 581.7,213.4 582.3,221.5 582.9,219.9 583.5,220.4 584.1,225.4 584.7,222.6 585.3,229.1 585.9,232.1 586.5,231.2 587.1,228.9 587.7,221.8 588.3,227.7 589.0,223.2 589.6,210.8 590.2,212.9 590.8,200.0 591.4,220.4 592.0,216.1 592.6,236.5 593.2,247.7 593.8,208.5 594.4,206.2 595.0,217.2 595.6,216.1 596.2,218.0 596.8,208.2 597.4,203.9 598.0,203.4 598.6,201.9 599.2,199.2 599.9,203.4 600.5,200.0 601.1,205.7 601.7,205.2 602.3,210.0 602.9,222.9 603.5,229.1 604.1,246.4 604.7,224.9 605.3,233.2 605.9,234.7 606.5,235.6 607.1,242.3 607.7,246.1 608.3,247.7 608.9,244.5 609.5,235.9 610.1,235.9 610.7,240.8 611.4,241.4 612.0,242.3 612.6,241.1 613.2,238.6 613.8,235.0 614.4,223.8 615.0,225.2 615.6,231.8 616.2,229.7 616.8,228.3 617.4,199.0 618.0,196.7 618.6,193.2 619.2,195.9 619.8,194.4 620.4,185.4 621.0,192.8 621.6,191.1 622.3,199.0 622.9,197.1 623.5,205.4 624.1,205.9 624.7,206.2 625.3,203.7 625.9,208.5 626.5,211.3 627.1,213.2 627.7,213.2 628.3,214.5 628.9,211.8 629.5,209.5 630.1,208.0 630.7,208.5 631.3,210.0 631.9,215.8 632.5,214.7 633.1,215.5 633.8,223.8 634.4,233.8 635.0,234.4 635.6,236.8 636.2,239.9 636.8,234.1 637.4,234.1 638.0,240.8 638.6,234.4 639.2,228.3 639.8,221.0 640.4,224.0 641.0,224.6 641.6,225.2 642.2,222.6 642.8,224.6 643.4,232.1 644.0,232.6 644.7,230.9 645.3,222.6 645.9,217.7 646.5,211.3 647.1,209.3 647.7,203.9 648.3,206.2 648.9,202.9 649.5,201.4 650.1,204.7 650.7,212.1 651.3,214.5 651.9,217.4 652.5,212.1 653.1,211.6 653.7,205.7 654.3,214.2 654.9,205.7 655.5,212.9 656.2,215.8 656.8,218.5 657.4,219.3 658.0,221.5 658.6,222.4 659.2,223.8 659.8,226.0 660.4,226.9 661.0,218.2 661.6,223.5 662.2,234.7 662.8,241.1 663.4,247.7 664.0,250.9 664.6,251.9 665.2,253.6 665.8,250.6 666.4,255.9 667.1,261.0 667.7,251.9 668.3,263.1 668.9,248.7 669.5,252.6 670.1,257.6 670.7,255.9 671.3,253.2 671.9,262.7 672.5,262.0 673.1,263.1 673.7,264.1 674.3,266.6 674.9,273.9 675.5,276.9 676.1,273.5 676.7,269.9 677.3,273.5 677.9,268.8 678.6,269.9 679.2,276.1 679.8,283.1 680.4,282.3 681.0,283.1 681.6,285.4 682.2,284.6 682.8,283.8 683.4,273.5 684.0,272.4 684.6,273.5 685.2,258.3 685.8,259.6 686.4,264.1 687.0,265.2 687.6,258.3 688.2,262.7 688.8,264.5 689.5,273.2 690.1,287.4 690.7,287.0 691.3,285.4 691.9,295.6 692.5,293.1 693.1,307.8 693.7,310.1 694.3,296.5 694.9,296.1 695.5,307.8 696.1,290.2 696.7,302.5 697.3,297.3 697.9,293.1 698.5,296.9 699.1,296.5 699.7,299.5 700.3,303.4 701.0,295.6 701.6,292.7 702.2,289.4 702.8,292.3 703.4,295.6 704.0,297.7 704.6,298.2 705.2,302.9 705.8,303.8 706.4,302.5 707.0,296.5 707.6,296.1 708.2,278.8 708.8,293.1 709.4,299.0 710.0,295.6 710.6,293.5 711.2,296.1 711.8,299.5 712.5,301.2 713.1,298.6 713.7,297.7 714.3,302.9 714.9,303.8 715.5,301.2 716.1,301.2 716.7,304.7 717.3,316.1 717.9,317.5 718.5,296.5 719.1,292.7 719.7,288.6 720.3,287.0 720.9,284.6 721.5,281.5 722.1,281.1 722.7,283.1 723.4,275.8 724.0,277.7 724.6,276.5 725.2,277.3 725.8,279.6 726.4,279.2 727.0,275.0 727.6,270.9 728.2,267.3 728.8,267.7 729.4,262.7 730.0,269.9 730.6,264.8 731.2,259.6 731.8,261.7 732.4,260.0 733.0,262.7 733.6,264.5 734.2,267.0 734.9,269.9 735.5,268.0 736.1,267.3 736.7,268.4 737.3,269.1 737.9,265.2 738.5,276.5 739.1,286.6 739.7,291.5 740.3,299.0 740.9,301.6 741.5,307.8 742.1,308.7 742.7,309.6 743.3,302.5 743.9,309.6 744.5,310.5 745.1,293.1 745.8,282.7 746.4,281.9 747.0,286.2 747.6,290.2 748.2,294.0 748.8,299.0 749.4,307.8 750.0,310.5 750.6,309.6 751.2,308.3 751.8,302.1 752.4,293.5 753.0,292.7 753.6,287.4 754.2,275.8 754.8,272.4 755.4,264.8 756.0,267.7 756.6,266.6 757.3,272.4 757.9,265.9 758.5,261.0 759.1,257.6 759.7,248.0 760.3,234.1 760.9,247.4 761.5,249.3 762.1,253.2 762.7,247.1 763.3,244.5 763.9,243.9 764.5,242.6 765.1,235.9 765.7,235.6 766.3,240.5 766.9,238.0 767.5,230.6 768.2,235.6 768.8,176.4 769.4,166.0 770.0,168.1 770.6,173.7 771.2,174.1 771.8,172.2 772.4,174.7 773.0,180.3 773.6,172.0 774.2,169.5 774.8,174.3 775.4,183.4 776.0,183.8 776.6,181.6 777.2,181.2 777.8,171.1 778.4,182.5 779.0,184.1 779.7,193.0 780.3,192.3 780.9,192.3 781.5,182.3 782.1,162.4 782.7,151.7 783.3,151.5 783.9,164.8 784.5,157.4 785.1,166.4 785.7,160.5 786.3,160.1 786.9,159.5 787.5,148.2 788.1,147.3 788.7,153.6 789.3,177.7 789.9,179.4 790.6,192.3 791.2,203.9 791.8,205.7 792.4,200.2 793.0,201.4 793.6,201.4 794.2,194.9 794.8,194.9 795.4,201.7 796.0,200.7"/><polyline fill="none" stroke="#16a34a" stroke-width="3" points="78.0,148.0 78.6,148.0 79.2,148.0 79.8,147.8 80.4,147.8 81.0,147.8 81.6,147.8 82.2,147.5 82.8,147.5 83.4,147.1 84.1,147.1 84.7,147.1 85.3,147.3 85.9,147.5 86.5,147.5 87.1,147.5 87.7,147.6 88.3,147.5 88.9,147.3 89.5,147.4 90.1,147.1 90.7,147.1 91.3,146.9 91.9,147.5 92.5,147.3 93.1,147.3 93.7,146.9 94.3,146.9 95.0,147.1 95.6,147.1 96.2,147.1 96.8,147.3 97.4,147.3 98.0,147.5 98.6,147.1 99.2,147.1 99.8,147.3 100.4,147.3 101.0,147.5 101.6,147.5 102.2,147.5 102.8,147.3 103.4,147.3 104.0,147.3 104.6,147.1 105.2,146.9 105.8,147.1 106.5,147.1 107.1,147.1 107.7,147.1 108.3,147.1 108.9,138.3 109.5,146.6 110.1,146.6 110.7,147.1 111.3,145.8 111.9,147.1 112.5,147.5 113.1,146.9 113.7,146.9 114.3,146.9 114.9,146.9 115.5,146.9 116.1,146.9 116.7,146.9 117.4,146.9 118.0,147.5 118.6,147.5 119.2,148.0 119.8,148.0 120.4,147.8 121.0,146.6 121.6,146.7 122.2,147.3 122.8,147.3 123.4,147.3 124.0,147.3 124.6,147.3 125.2,146.8 125.8,146.8 126.4,146.8 127.0,146.8 127.6,146.7 128.2,146.4 128.9,146.6 129.5,146.6 130.1,146.4 130.7,146.4 131.3,146.4 131.9,147.3 132.5,147.1 133.1,147.1 133.7,147.1 134.3,147.1 134.9,147.1 135.5,146.7 136.1,147.1 136.7,147.1 137.3,146.0 137.9,146.0 138.5,146.0 139.1,146.6 139.8,146.6 140.4,146.6 141.0,146.4 141.6,146.4 142.2,146.4 142.8,146.9 143.4,146.7 144.0,146.7 144.6,146.6 145.2,146.6 145.8,146.4 146.4,146.2 147.0,144.7 147.6,144.6 148.2,144.2 148.8,144.4 149.4,143.9 150.0,144.2 150.6,144.0 151.3,143.3 151.9,142.6 152.5,142.3 153.1,142.3 153.7,142.4 154.3,143.0 154.9,143.7 155.5,144.0 156.1,143.9 156.7,143.5 157.3,142.1 157.9,143.8 158.5,143.3 159.1,143.0 159.7,143.3 160.3,143.1 160.9,143.7 161.5,145.1 162.2,144.4 162.8,144.6 163.4,145.4 164.0,144.8 164.6,144.4 165.2,144.7 165.8,144.4 166.4,144.5 167.0,143.9 167.6,144.0 168.2,144.0 168.8,144.0 169.4,144.4 170.0,143.9 170.6,144.2 171.2,144.6 171.8,144.2 172.4,143.9 173.0,143.4 173.7,144.0 174.3,143.4 174.9,143.7 175.5,144.8 176.1,144.2 176.7,144.4 177.3,143.9 177.9,144.6 178.5,144.5 179.1,145.1 179.7,144.7 180.3,144.4 180.9,143.5 181.5,143.5 182.1,143.1 182.7,143.7 183.3,143.8 183.9,143.5 184.5,143.3 185.2,142.6 185.8,142.8 186.4,143.0 187.0,142.8 187.6,143.3 188.2,143.7 188.8,143.5 189.4,143.7 190.0,143.5 190.6,143.7 191.2,143.9 191.8,143.7 192.4,143.7 193.0,143.7 193.6,143.5 194.2,143.1 194.8,143.0 195.4,143.0 196.1,141.7 196.7,142.3 197.3,142.3 197.9,142.3 198.5,142.3 199.1,142.4 199.7,142.4 200.3,142.3 200.9,142.4 201.5,142.1 202.1,142.1 202.7,141.9 203.3,141.7 203.9,142.3 204.5,142.1 205.1,141.9 205.7,137.7 206.3,84.9 206.9,118.4 207.6,123.2 208.2,117.6 208.8,106.6 209.4,125.8 210.0,128.0 210.6,126.9 211.2,118.8 211.8,120.9 212.4,123.2 213.0,129.0 213.6,135.0 214.2,137.6 214.8,142.8 215.4,141.4 216.0,141.9 216.6,138.4 217.2,139.8 217.8,140.5 218.5,139.8 219.1,139.5 219.7,146.7 220.3,133.8 220.9,133.8 221.5,129.8 222.1,136.7 222.7,136.0 223.3,143.0 223.9,144.6 224.5,146.4 225.1,145.8 225.7,142.3 226.3,149.7 226.9,149.1 227.5,150.8 228.1,145.3 228.7,141.0 229.3,140.9 230.0,134.0 230.6,135.5 231.2,137.6 231.8,137.4 232.4,131.0 233.0,136.5 233.6,131.7 234.2,126.7 234.8,126.4 235.4,132.5 236.0,132.8 236.6,128.5 237.2,118.7 237.8,123.1 238.4,121.8 239.0,117.1 239.6,114.0 240.2,97.6 240.9,100.9 241.5,93.0 242.1,98.9 242.7,99.1 243.3,95.2 243.9,97.5 244.5,98.2 245.1,89.6 245.7,85.7 246.3,103.9 246.9,106.7 247.5,103.2 248.1,100.0 248.7,89.2 249.3,84.3 249.9,82.5 250.5,76.5 251.1,82.1 251.7,84.2 252.4,86.2 253.0,78.8 253.6,79.4 254.2,81.5 254.8,86.1 255.4,101.1 256.0,108.3 256.6,91.4 257.2,112.2 257.8,99.1 258.4,99.3 259.0,95.4 259.6,90.8 260.2,91.3 260.8,89.8 261.4,86.0 262.0,86.0 262.6,85.6 263.3,88.1 263.9,95.6 264.5,92.7 265.1,90.1 265.7,88.7 266.3,88.9 266.9,96.8 267.5,97.2 268.1,96.5 268.7,97.1 269.3,98.2 269.9,96.0 270.5,97.2 271.1,98.7 271.7,97.3 272.3,94.9 272.9,95.0 273.5,93.0 274.1,92.1 274.8,89.6 275.4,91.8 276.0,96.1 276.6,95.6 277.2,101.5 277.8,109.1 278.4,111.0 279.0,111.7 279.6,110.2 280.2,114.4 280.8,122.0 281.4,124.3 282.0,123.9 282.6,124.2 283.2,119.6 283.8,122.7 284.4,123.9 285.0,120.9 285.7,119.9 286.3,128.9 286.9,126.6 287.5,124.3 288.1,125.5 288.7,122.4 289.3,121.6 289.9,116.2 290.5,122.1 291.1,117.5 291.7,111.9 292.3,110.2 292.9,111.6 293.5,107.3 294.1,110.2 294.7,107.5 295.3,108.1 295.9,110.2 296.5,108.1 297.2,108.5 297.8,106.7 298.4,107.5 299.0,106.9 299.6,108.1 300.2,103.9 300.8,102.3 301.4,100.5 302.0,104.7 302.6,102.8 303.2,104.3 303.8,102.6 304.4,107.5 305.0,109.7 305.6,104.3 306.2,102.2 306.8,103.9 307.4,110.4 308.1,105.5 308.7,107.6 309.3,106.9 309.9,108.8 310.5,112.9 311.1,112.8 311.7,115.0 312.3,115.5 312.9,114.9 313.5,115.9 314.1,115.5 314.7,116.2 315.3,127.1 315.9,121.6 316.5,130.7 317.1,128.2 317.7,132.2 318.3,130.3 318.9,122.9 319.6,122.4 320.2,126.1 320.8,123.2 321.4,123.1 322.0,124.7 322.6,125.1 323.2,120.4 323.8,120.1 324.4,119.5 325.0,122.4 325.6,125.9 326.2,123.5 326.8,120.9 327.4,120.7 328.0,123.1 328.6,118.8 329.2,114.1 329.8,114.4 330.5,117.8 331.1,121.6 331.7,123.2 332.3,122.4 332.9,128.2 333.5,129.2 334.1,128.5 334.7,123.2 335.3,127.7 335.9,125.8 336.5,129.5 337.1,132.8 337.7,129.8 338.3,131.7 338.9,134.3 339.5,131.6 340.1,128.2 340.7,126.1 341.3,125.0 342.0,118.8 342.6,118.7 343.2,117.5 343.8,120.4 344.4,128.2 345.0,127.4 345.6,122.9 346.2,125.0 346.8,122.7 347.4,124.1 348.0,123.1 348.6,124.3 349.2,127.9 349.8,128.2 350.4,128.7 351.0,129.8 351.6,127.2 352.2,136.5 352.8,128.0 353.5,129.8 354.1,131.5 354.7,130.7 355.3,129.3 355.9,129.3 356.5,128.4 357.1,133.3 357.7,138.8 358.3,138.9 358.9,141.6 359.5,141.7 360.1,141.4 360.7,141.2 361.3,141.7 361.9,142.6 362.5,139.8 363.1,138.4 363.7,138.9 364.4,139.5 365.0,140.0 365.6,142.2 366.2,142.1 366.8,141.6 367.4,140.7 368.0,141.7 368.6,146.4 369.2,153.2 369.8,155.3 370.4,158.3 371.0,159.8 371.6,166.8 372.2,166.2 372.8,163.2 373.4,163.8 374.0,164.4 374.6,165.0 375.2,162.8 375.9,164.0 376.5,168.1 377.1,169.1 377.7,164.2 378.3,171.6 378.9,178.2 379.5,177.1 380.1,168.9 380.7,165.8 381.3,167.1 381.9,167.2 382.5,169.9 383.1,169.1 383.7,165.3 384.3,165.0 384.9,170.5 385.5,171.8 386.1,172.8 386.8,176.6 387.4,182.1 388.0,175.8 388.6,173.0 389.2,168.7 389.8,166.4 390.4,167.6 391.0,173.0 391.6,194.8 392.2,198.6 392.8,183.0 393.4,169.7 394.0,171.6 394.6,169.7 395.2,174.7 395.8,169.5 396.4,161.8 397.0,160.7 397.6,160.7 398.3,154.9 398.9,156.2 399.5,157.2 400.1,158.3 400.7,158.0 401.3,160.3 401.9,153.6 402.5,155.4 403.1,152.6 403.7,148.0 404.3,146.7 404.9,140.5 405.5,142.3 406.1,148.0 406.7,146.9 407.3,144.9 407.9,145.1 408.5,143.7 409.2,143.5 409.8,139.8 410.4,138.8 411.0,136.2 411.6,138.8 412.2,139.8 412.8,140.0 413.4,144.9 414.0,146.9 414.6,143.9 415.2,145.3 415.8,141.4 416.4,141.4 417.0,141.9 417.6,144.9 418.2,144.8 418.8,139.6 419.4,139.6 420.0,133.5 420.7,134.7 421.3,133.7 421.9,133.2 422.5,134.6 423.1,129.2 423.7,129.3 424.3,136.2 424.9,134.5 425.5,132.5 426.1,139.1 426.7,137.4 427.3,140.0 427.9,140.9 428.5,137.2 429.1,132.8 429.7,136.2 430.3,130.5 430.9,123.5 431.6,127.1 432.2,135.7 432.8,140.2 433.4,141.4 434.0,142.4 434.6,151.6 435.2,145.3 435.8,145.6 436.4,140.3 437.0,144.0 437.6,145.1 438.2,149.5 438.8,152.1 439.4,155.1 440.0,153.0 440.6,160.1 441.2,158.3 441.8,134.8 442.4,144.6 443.1,149.7 443.7,146.9 444.3,145.5 444.9,141.4 445.5,140.9 446.1,143.3 446.7,143.7 447.3,144.0 447.9,138.3 448.5,136.7 449.1,137.1 449.7,138.6 450.3,138.8 450.9,140.9 451.5,140.2 452.1,136.7 452.7,136.0 453.3,141.2 454.0,142.1 454.6,142.6 455.2,142.8 455.8,142.1 456.4,141.5 457.0,141.6 457.6,138.4 458.2,140.7 458.8,142.8 459.4,142.6 460.0,143.7 460.6,141.9 461.2,138.1 461.8,140.0 462.4,135.0 463.0,134.2 463.6,133.5 464.2,132.3 464.8,131.8 465.5,132.3 466.1,131.0 466.7,133.8 467.3,131.0 467.9,129.7 468.5,129.8 469.1,131.3 469.7,132.3 470.3,132.3 470.9,131.3 471.5,133.5 472.1,132.8 472.7,130.4 473.3,134.5 473.9,137.1 474.5,137.4 475.1,135.9 475.7,135.3 476.4,135.3 477.0,133.8 477.6,133.8 478.2,136.5 478.8,140.2 479.4,141.4 480.0,144.2 480.6,147.3 481.2,144.2 481.8,143.0 482.4,144.6 483.0,143.0 483.6,141.2 484.2,141.6 484.8,140.7 485.4,135.7 486.0,137.6 486.6,138.4 487.2,142.4 487.9,140.0 488.5,141.4 489.1,142.4 489.7,142.1 490.3,149.8 490.9,146.2 491.5,143.0 492.1,143.1 492.7,141.9 493.3,140.2 493.9,141.0 494.5,142.8 495.1,143.0 495.7,141.0 496.3,141.6 496.9,142.8 497.5,141.7 498.1,140.7 498.8,140.3 499.4,144.0 500.0,144.2 500.6,147.8 501.2,150.6 501.8,155.4 502.4,150.9 503.0,150.4 503.6,154.5 504.2,156.0 504.8,160.1 505.4,158.3 506.0,158.3 506.6,159.1 507.2,164.4 507.8,165.2 508.4,172.2 509.0,167.8 509.6,168.1 510.3,169.9 510.9,170.6 511.5,170.9 512.1,167.6 512.7,166.6 513.3,182.0 513.9,186.3 514.5,181.0 515.1,174.3 515.7,178.6 516.3,179.4 516.9,184.7 517.5,196.1 518.1,198.5 518.7,204.4 519.3,210.2 519.9,200.5 520.5,200.2 521.2,199.0 521.8,212.9 522.4,203.2 523.0,208.1 523.6,215.3 524.2,212.1 524.8,214.0 525.4,218.5 526.0,225.4 526.6,226.3 527.2,228.4 527.8,234.1 528.4,241.4 529.0,241.9 529.6,238.6 530.2,247.4 530.8,240.5 531.4,222.4 532.0,216.6 532.7,206.9 533.3,210.5 533.9,209.3 534.5,204.9 535.1,205.9 535.7,205.7 536.3,209.8 536.9,210.5 537.5,205.9 538.1,215.5 538.7,215.3 539.3,214.7 539.9,212.4 540.5,208.2 541.1,201.7 541.7,195.1 542.3,198.0 542.9,200.2 543.5,190.7 544.2,203.7 544.8,212.1 545.4,210.8 546.0,214.2 546.6,212.6 547.2,210.5 547.8,208.1 548.4,196.8 549.0,184.3 549.6,179.0 550.2,184.5 550.8,180.3 551.4,181.2 552.0,176.2 552.6,187.0 553.2,188.4 553.8,194.4 554.4,207.5 555.1,196.3 555.7,200.0 556.3,203.4 556.9,205.4 557.5,206.2 558.1,203.2 558.7,205.4 559.3,220.1 559.9,221.2 560.5,224.6 561.1,225.4 561.7,215.3 562.3,210.9 562.9,216.4 563.5,225.4 564.1,220.7 564.7,222.6 565.3,216.1 565.9,230.9 566.6,225.4 567.2,225.2 567.8,229.1 568.4,225.7 569.0,224.6 569.6,232.6 570.2,225.2 570.8,223.5 571.4,218.0 572.0,221.0 572.6,214.1 573.2,208.7 573.8,204.9 574.4,208.0 575.0,207.7 575.6,201.9 576.2,206.4 576.8,210.8 577.5,211.6 578.1,220.7 578.7,215.5 579.3,219.6 579.9,214.5 580.5,214.7 581.1,216.9 581.7,213.4 582.3,221.5 582.9,219.9 583.5,220.4 584.1,225.4 584.7,222.6 585.3,229.1 585.9,232.1 586.5,231.2 587.1,228.9 587.7,221.8 588.3,227.7 589.0,223.2 589.6,210.8 590.2,212.9 590.8,200.0 591.4,220.4 592.0,216.1 592.6,236.5 593.2,247.7 593.8,208.5 594.4,206.2 595.0,217.2 595.6,216.1 596.2,218.0 596.8,208.2 597.4,203.9 598.0,203.4 598.6,201.9 599.2,199.2 599.9,203.4 600.5,200.0 601.1,205.7 601.7,205.2 602.3,210.0 602.9,222.9 603.5,229.1 604.1,246.4 604.7,224.9 605.3,233.2 605.9,234.7 606.5,235.6 607.1,242.3 607.7,246.1 608.3,247.7 608.9,244.5 609.5,235.9 610.1,235.9 610.7,240.8 611.4,241.4 612.0,242.3 612.6,241.1 613.2,238.6 613.8,235.0 614.4,223.8 615.0,225.2 615.6,231.8 616.2,229.7 616.8,228.3 617.4,199.0 618.0,196.7 618.6,193.2 619.2,195.9 619.8,194.4 620.4,185.4 621.0,192.8 621.6,191.1 622.3,199.0 622.9,197.1 623.5,205.4 624.1,205.9 624.7,206.2 625.3,203.7 625.9,208.5 626.5,211.3 627.1,213.2 627.7,213.2 628.3,214.5 628.9,211.8 629.5,209.5 630.1,208.0 630.7,208.5 631.3,210.0 631.9,215.8 632.5,214.7 633.1,215.5 633.8,223.8 634.4,233.8 635.0,234.4 635.6,236.8 636.2,239.9 636.8,234.1 637.4,234.1 638.0,240.8 638.6,234.4 639.2,228.3 639.8,221.0 640.4,224.0 641.0,224.6 641.6,225.2 642.2,222.6 642.8,224.6 643.4,232.1 644.0,232.6 644.7,230.9 645.3,222.6 645.9,217.7 646.5,211.3 647.1,209.3 647.7,203.9 648.3,206.2 648.9,202.9 649.5,201.4 650.1,204.7 650.7,212.1 651.3,214.5 651.9,217.4 652.5,212.1 653.1,211.6 653.7,205.7 654.3,214.2 654.9,205.7 655.5,212.9 656.2,215.8 656.8,218.5 657.4,219.3 658.0,221.5 658.6,222.4 659.2,223.8 659.8,226.0 660.4,226.9 661.0,218.2 661.6,223.5 662.2,234.7 662.8,241.1 663.4,247.7 664.0,250.9 664.6,251.9 665.2,253.6 665.8,250.6 666.4,255.9 667.1,261.0 667.7,251.9 668.3,263.1 668.9,248.7 669.5,252.6 670.1,257.6 670.7,255.9 671.3,253.2 671.9,262.7 672.5,262.0 673.1,263.1 673.7,264.1 674.3,266.6 674.9,273.9 675.5,276.9 676.1,273.5 676.7,269.9 677.3,273.5 677.9,268.8 678.6,269.9 679.2,276.1 679.8,283.1 680.4,282.3 681.0,283.1 681.6,285.4 682.2,284.6 682.8,283.8 683.4,273.5 684.0,272.4 684.6,273.5 685.2,258.3 685.8,259.6 686.4,264.1 687.0,265.2 687.6,258.3 688.2,262.7 688.8,264.5 689.5,273.2 690.1,287.4 690.7,287.0 691.3,285.4 691.9,295.6 692.5,293.1 693.1,307.8 693.7,310.1 694.3,296.5 694.9,296.1 695.5,307.8 696.1,290.2 696.7,302.5 697.3,297.3 697.9,293.1 698.5,296.9 699.1,296.5 699.7,299.5 700.3,303.4 701.0,295.6 701.6,292.7 702.2,289.4 702.8,292.3 703.4,295.6 704.0,297.7 704.6,298.2 705.2,302.9 705.8,303.8 706.4,302.5 707.0,296.5 707.6,296.1 708.2,278.8 708.8,293.1 709.4,299.0 710.0,295.6 710.6,293.5 711.2,296.1 711.8,299.5 712.5,301.2 713.1,298.6 713.7,297.7 714.3,302.9 714.9,303.8 715.5,301.2 716.1,301.2 716.7,304.7 717.3,316.1 717.9,317.5 718.5,296.5 719.1,292.7 719.7,288.6 720.3,287.0 720.9,284.6 721.5,281.5 722.1,281.1 722.7,283.1 723.4,275.8 724.0,277.7 724.6,276.5 725.2,277.3 725.8,279.6 726.4,279.2 727.0,275.0 727.6,270.9 728.2,267.3 728.8,267.7 729.4,262.7 730.0,269.9 730.6,264.8 731.2,259.6 731.8,261.7 732.4,260.0 733.0,262.7 733.6,264.5 734.2,267.0 734.9,269.9 735.5,268.0 736.1,267.3 736.7,268.4 737.3,269.1 737.9,265.2 738.5,276.5 739.1,286.6 739.7,291.5 740.3,299.0 740.9,301.6 741.5,307.8 742.1,308.7 742.7,309.6 743.3,302.5 743.9,309.6 744.5,310.5 745.1,293.1 745.8,282.7 746.4,281.9 747.0,286.2 747.6,290.2 748.2,294.0 748.8,299.0 749.4,307.8 750.0,310.5 750.6,309.6 751.2,308.3 751.8,302.1 752.4,293.5 753.0,292.7 753.6,287.4 754.2,275.8 754.8,272.4 755.4,264.8 756.0,267.7 756.6,266.6 757.3,272.4 757.9,265.9 758.5,261.0 759.1,257.6 759.7,248.0 760.3,234.1 760.9,247.4 761.5,249.3 762.1,253.2 762.7,247.1 763.3,244.5 763.9,243.9 764.5,242.6 765.1,235.9 765.7,235.6 766.3,240.5 766.9,238.0 767.5,230.6 768.2,235.6 768.8,176.4 769.4,166.0 770.0,168.1 770.6,173.7 771.2,174.1 771.8,172.2 772.4,174.7 773.0,180.3 773.6,172.0 774.2,169.5 774.8,174.3 775.4,183.4 776.0,183.8 776.6,181.6 777.2,181.2 777.8,171.1 778.4,182.5 779.0,184.1 779.7,193.0 780.3,192.3 780.9,192.3 781.5,182.3 782.1,162.4 782.7,151.7 783.3,151.5 783.9,164.8 784.5,157.4 785.1,166.4 785.7,160.5 786.3,160.1 786.9,159.5 787.5,148.2 788.1,147.3 788.7,153.6 789.3,177.7 789.9,179.4 790.6,192.3 791.2,203.9 791.8,205.7 792.4,200.2 793.0,201.4 793.6,201.4 794.2,194.9 794.8,194.9 795.4,201.7 796.0,200.7"/>
<text x="78" y="392" font-size="11" fill="#16a34a">Total return -25.8%</text><text x="268" y="392" font-size="11" fill="#2563eb">Price-only -25.8%</text><text x="78" y="362" font-size="11" text-anchor="middle" fill="#64748b">2021-10</text><text x="257" y="362" font-size="11" text-anchor="middle" fill="#64748b">2022-12</text><text x="437" y="362" font-size="11" text-anchor="middle" fill="#64748b">2024-03</text><text x="617" y="362" font-size="11" text-anchor="middle" fill="#64748b">2025-05</text><text x="796" y="362" font-size="11" text-anchor="middle" fill="#64748b">2026-07</text></svg>