<svg xmlns="http://www.w3.org/2000/svg" width="820" height="410" viewBox="0 0 820 410">
<rect width="820" height="410" fill="#fafafa"/><text x="78" y="22" font-size="14" font-family="sans-serif" fill="#0f172a">APP cumulative return since 2021-04-15 | dividends reinvested</text>
<text x="78" y="40" font-size="11" font-family="sans-serif" fill="#334155">Total return +594.4% | Price-only +594.4% | logarithmic scale</text>
<text x="78" y="54" font-size="9" font-family="sans-serif" fill="#64748b">Regular $0.00 | Special $0.00 | Other $0.00 per initial share path</text>
<line x1="78" y1="332.0" x2="796" y2="332.0" stroke="#e2e8f0"/><text x="70" y="336.0" font-size="10" text-anchor="end" fill="#64748b">-89.0%</text><line x1="78" y1="287.0" x2="796" y2="287.0" stroke="#e2e8f0"/><text x="70" y="291.0" font-size="10" text-anchor="end" fill="#64748b">-75.2%</text><line x1="78" y1="242.0" x2="796" y2="242.0" stroke="#e2e8f0"/><text x="70" y="246.0" font-size="10" text-anchor="end" fill="#64748b">-43.9%</text><line x1="78" y1="210.1" x2="796" y2="210.1" stroke="#e2e8f0"/><text x="70" y="214.1" font-size="10" text-anchor="end" fill="#64748b">0%</text><line x1="78" y1="197.0" x2="796" y2="197.0" stroke="#e2e8f0"/><text x="70" y="201.0" font-size="10" text-anchor="end" fill="#64748b">+26.7%</text><line x1="78" y1="152.0" x2="796" y2="152.0" stroke="#e2e8f0"/><text x="70" y="156.0" font-size="10" text-anchor="end" fill="#64748b">+186.3%</text><line x1="78" y1="107.0" x2="796" y2="107.0" stroke="#e2e8f0"/><text x="70" y="111.0" font-size="10" text-anchor="end" fill="#64748b">+547.0%</text><line x1="78" y1="62.0" x2="796" y2="62.0" stroke="#e2e8f0"/><text x="70" y="66.0" font-size="10" text-anchor="end" fill="#64748b">+1,362%</text><line x1="78" y1="62.0" x2="796" y2="62.0" stroke="#e2e8f0"/><text x="70" y="66.0" font-size="10" text-anchor="end" fill="#64748b">+1,362%</text>
<line x1="78" y1="332" x2="796" y2="332" stroke="#cbd5e1"/>
<polyline fill="none" stroke="#2563eb" stroke-width="2" points="78.0,210.1 78.5,213.7 79.1,215.7 79.6,214.5 80.2,213.0 80.7,212.7 81.3,216.0 81.8,214.8 82.4,215.7 82.9,215.8 83.5,215.4 84.0,216.5 84.5,214.6 85.1,216.0 85.6,216.3 86.2,217.5 86.7,217.2 87.3,218.9 87.8,221.0 88.4,222.3 88.9,224.8 89.4,217.2 90.0,212.4 90.5,210.8 91.1,210.6 91.6,207.8 92.2,207.5 92.7,205.9 93.3,206.2 93.8,207.2 94.4,206.4 94.9,202.8 95.4,207.0 96.0,206.1 96.5,205.8 97.1,202.8 97.6,200.7 98.2,199.1 98.7,198.6 99.3,197.5 99.8,197.1 100.4,197.5 100.9,197.6 101.4,194.9 102.0,193.4 102.5,193.4 103.1,196.1 103.6,198.6 104.2,197.7 104.7,195.7 105.3,195.5 105.8,197.3 106.3,196.5 106.9,202.2 107.4,205.4 108.0,204.5 108.5,207.7 109.1,209.1 109.6,209.5 110.2,209.2 110.7,208.4 111.3,206.9 111.8,210.1 112.3,211.6 112.9,214.0 113.4,214.2 114.0,213.9 114.5,214.8 115.1,212.2 115.6,211.6 116.2,212.3 116.7,212.3 117.3,210.0 117.8,210.0 118.3,213.3 118.9,211.7 119.4,212.0 120.0,211.8 120.5,211.7 121.1,215.9 121.6,216.9 122.2,217.3 122.7,216.0 123.2,217.5 123.8,218.0 124.3,218.6 124.9,212.3 125.4,211.3 126.0,208.5 126.5,206.2 127.1,204.9 127.6,202.7 128.2,201.2 128.7,203.4 129.2,202.9 129.8,203.6 130.3,205.8 130.9,202.8 131.4,199.8 132.0,200.2 132.5,203.0 133.1,207.7 133.6,205.3 134.2,200.6 134.7,202.4 135.2,201.9 135.8,203.4 136.3,204.9 136.9,204.0 137.4,205.9 138.0,203.0 138.5,203.8 139.1,200.3 139.6,199.1 140.2,201.1 140.7,204.0 141.2,202.9 141.8,204.3 142.3,202.5 142.9,204.7 143.4,203.3 144.0,200.9 144.5,195.5 145.1,194.6 145.6,193.9 146.1,194.0 146.7,193.5 147.2,191.8 147.8,191.1 148.3,190.9 148.9,188.9 149.4,190.3 150.0,188.5 150.5,189.7 151.1,190.1 151.6,189.9 152.1,189.3 152.7,187.6 153.2,187.4 153.8,186.7 154.3,187.1 154.9,187.4 155.4,187.3 156.0,187.3 156.5,186.6 157.1,184.5 157.6,188.9 158.1,178.8 158.7,180.0 159.2,184.9 159.8,181.7 160.3,183.5 160.9,186.6 161.4,186.6 162.0,189.0 162.5,190.5 163.0,189.7 163.6,191.8 164.1,192.1 164.7,191.6 165.2,194.7 165.8,192.1 166.3,190.1 166.9,192.4 167.4,188.4 168.0,188.7 168.5,191.8 169.0,191.9 169.6,193.0 170.1,193.8 170.7,193.2 171.2,196.2 171.8,193.4 172.3,193.9 172.9,191.6 173.4,190.0 174.0,190.0 174.5,188.8 175.0,190.3 175.6,191.5 176.1,189.9 176.7,189.7 177.2,189.6 177.8,193.1 178.3,197.4 178.9,197.3 179.4,198.5 179.9,196.8 180.5,196.1 181.0,195.9 181.6,199.1 182.1,199.5 182.7,204.2 183.2,206.0 183.8,205.4 184.3,207.3 184.9,206.5 185.4,210.6 185.9,211.9 186.5,214.8 187.0,213.8 187.6,210.7 188.1,208.0 188.7,210.0 189.2,213.4 189.8,207.0 190.3,207.4 190.9,205.5 191.4,202.5 191.9,204.4 192.5,205.9 193.0,205.4 193.6,202.0 194.1,207.2 194.7,211.0 195.2,211.3 195.8,217.2 196.3,218.2 196.8,217.4 197.4,217.3 197.9,216.4 198.5,214.3 199.0,216.7 199.6,219.3 200.1,224.4 200.7,227.7 201.2,229.6 201.8,226.3 202.3,228.8 202.8,231.1 203.4,231.7 203.9,229.4 204.5,224.7 205.0,222.0 205.6,220.0 206.1,221.1 206.7,219.2 207.2,219.5 207.8,219.2 208.3,221.0 208.8,221.0 209.4,218.5 209.9,219.1 210.5,219.4 211.0,221.2 211.6,216.7 212.1,219.5 212.7,222.1 213.2,222.7 213.7,223.3 214.3,224.8 214.8,225.2 215.4,222.6 215.9,225.9 216.5,228.4 217.0,225.2 217.6,228.9 218.1,232.9 218.7,235.4 219.2,235.5 219.7,239.0 220.3,240.3 220.8,238.2 221.4,239.6 221.9,237.6 222.5,237.3 223.0,236.6 223.6,242.1 224.1,246.8 224.7,252.5 225.2,254.8 225.7,258.1 226.3,241.7 226.8,237.8 227.4,240.8 227.9,239.7 228.5,242.1 229.0,237.8 229.6,237.0 230.1,239.9 230.6,247.4 231.2,243.3 231.7,242.2 232.3,236.6 232.8,239.7 233.4,239.4 233.9,235.7 234.5,237.8 235.0,233.6 235.6,232.4 236.1,232.1 236.6,236.6 237.2,242.7 237.7,246.3 238.3,248.7 238.8,245.9 239.4,251.7 239.9,246.8 240.5,244.3 241.0,242.9 241.6,239.6 242.1,237.5 242.6,239.4 243.2,242.5 243.7,243.5 244.3,245.3 244.8,244.4 245.4,243.8 245.9,243.0 246.5,240.4 247.0,240.7 247.6,244.5 248.1,245.3 248.6,247.7 249.2,251.4 249.7,248.3 250.3,245.5 250.8,244.1 251.4,240.4 251.9,239.7 252.5,242.6 253.0,244.1 253.5,247.0 254.1,243.9 254.6,243.8 255.2,243.5 255.7,245.7 256.3,245.2 256.8,243.1 257.4,242.8 257.9,242.1 258.5,236.8 259.0,242.8 259.5,236.4 260.1,245.2 260.6,242.3 261.2,246.7 261.7,248.3 262.3,252.6 262.8,254.8 263.4,258.9 263.9,261.8 264.5,260.7 265.0,260.0 265.5,258.6 266.1,261.3 266.6,263.1 267.2,264.1 267.7,263.8 268.3,262.8 268.8,265.0 269.4,264.0 269.9,262.2 270.4,260.9 271.0,257.2 271.5,255.7 272.1,259.4 272.6,262.2 273.2,264.3 273.7,267.2 274.3,268.0 274.8,270.6 275.4,272.2 275.9,275.6 276.4,274.7 277.0,274.4 277.5,274.2 278.1,271.6 278.6,276.2 279.2,276.7 279.7,274.1 280.3,272.0 280.8,273.2 281.4,273.8 281.9,277.5 282.4,279.6 283.0,281.8 283.5,280.8 284.1,280.1 284.6,281.6 285.2,279.8 285.7,279.2 286.3,282.8 286.8,281.7 287.3,282.6 287.9,282.1 288.4,278.7 289.0,281.1 289.5,282.4 290.1,283.0 290.6,284.4 291.2,283.9 291.7,287.3 292.3,290.1 292.8,291.7 293.3,291.4 293.9,290.5 294.4,296.0 295.0,286.6 295.5,284.4 296.1,289.8 296.6,289.3 297.2,292.8 297.7,293.6 298.3,295.2 298.8,297.8 299.3,295.1 299.9,294.6 300.4,294.9 301.0,297.0 301.5,297.2 302.1,293.4 302.6,293.8 303.2,293.9 303.7,299.8 304.2,307.8 304.8,309.3 305.3,311.3 305.9,311.6 306.4,309.8 307.0,310.5 307.5,310.7 308.1,314.9 308.6,314.5 309.2,316.5 309.7,314.5 310.2,312.4 310.8,314.4 311.3,314.4 311.9,317.5 312.4,316.9 313.0,311.2 313.5,310.7 314.1,309.6 314.6,308.8 315.2,314.4 315.7,315.1 316.2,312.5 316.8,311.5 317.3,309.5 317.9,309.9 318.4,309.2 319.0,308.8 319.5,309.8 320.1,312.5 320.6,308.6 321.1,303.6 321.7,303.9 322.2,304.3 322.8,303.9 323.3,300.8 323.9,302.5 324.4,300.3 325.0,297.5 325.5,294.2 326.1,298.1 326.6,300.8 327.1,299.7 327.7,300.4 328.2,287.2 328.8,290.1 329.3,288.1 329.9,287.7 330.4,284.7 331.0,289.0 331.5,291.2 332.1,294.2 332.6,290.5 333.1,293.1 333.7,294.1 334.2,297.3 334.8,297.0 335.3,297.5 335.9,296.2 336.4,295.2 337.0,296.5 337.5,297.2 338.1,297.8 338.6,300.0 339.1,302.1 339.7,301.6 340.2,300.0 340.8,296.6 341.3,295.9 341.9,296.9 342.4,296.6 343.0,294.0 343.5,295.7 344.0,294.2 344.6,294.3 345.1,294.4 345.7,295.1 346.2,291.2 346.8,291.2 347.3,288.5 347.9,288.2 348.4,286.2 349.0,288.6 349.5,288.6 350.0,288.1 350.6,287.7 351.1,287.0 351.7,286.4 352.2,286.0 352.8,286.4 353.3,285.6 353.9,285.0 354.4,285.9 355.0,286.1 355.5,288.1 356.0,289.6 356.6,287.8 357.1,284.1 357.7,284.2 358.2,284.7 358.8,286.7 359.3,286.1 359.9,285.5 360.4,283.7 360.9,282.3 361.5,283.2 362.0,281.7 362.6,270.0 363.1,271.3 363.7,268.5 364.2,267.9 364.8,264.3 365.3,262.8 365.9,262.7 366.4,262.8 366.9,263.4 367.5,264.2 368.0,265.1 368.6,265.1 369.1,264.7 369.7,262.9 370.2,263.3 370.8,263.4 371.3,261.7 371.9,266.8 372.4,271.2 372.9,268.8 373.5,268.4 374.0,269.1 374.6,268.7 375.1,268.8 375.7,267.1 376.2,265.3 376.8,266.2 377.3,266.7 377.8,265.9 378.4,266.6 378.9,264.8 379.5,260.7 380.0,261.4 380.6,261.7 381.1,261.4 381.7,261.0 382.2,259.6 382.8,261.8 383.3,260.8 383.8,258.5 384.4,256.5 384.9,256.1 385.5,254.8 386.0,256.4 386.6,255.8 387.1,256.1 387.7,255.6 388.2,256.6 388.8,256.5 389.3,256.4 389.8,255.5 390.4,253.0 390.9,252.9 391.5,250.6 392.0,250.4 392.6,250.3 393.1,250.8 393.7,251.8 394.2,250.5 394.7,251.5 395.3,252.8 395.8,254.0 396.4,241.0 396.9,238.6 397.5,237.4 398.0,237.5 398.6,238.3 399.1,240.1 399.7,239.5 400.2,238.4 400.7,237.7 401.3,236.8 401.8,238.0 402.4,237.4 402.9,236.1 403.5,235.4 404.0,233.1 404.6,232.7 405.1,232.8 405.7,233.6 406.2,234.0 406.7,233.7 407.3,234.2 407.8,233.8 408.4,234.7 408.9,235.9 409.5,233.5 410.0,233.3 410.6,231.7 411.1,237.4 411.6,238.0 412.2,239.2 412.7,240.2 413.3,239.6 413.8,239.0 414.4,237.6 414.9,237.4 415.5,237.1 416.0,235.9 416.6,238.2 417.1,236.6 417.6,237.4 418.2,236.5 418.7,235.9 419.3,236.3 419.8,236.6 420.4,237.4 420.9,239.1 421.5,238.6 422.0,237.5 422.6,238.5 423.1,239.1 423.6,240.5 424.2,240.4 424.7,239.2 425.3,242.6 425.8,242.3 426.4,242.5 426.9,241.7 427.5,242.2 428.0,241.8 428.5,240.8 429.1,238.0 429.6,237.8 430.2,235.8 430.7,236.9 431.3,237.5 431.8,232.0 432.4,235.1 432.9,233.3 433.5,236.4 434.0,238.5 434.5,238.3 435.1,237.7 435.6,238.7 436.2,238.1 436.7,237.7 437.3,237.9 437.8,239.3 438.4,238.4 438.9,240.6 439.5,239.5 440.0,240.8 440.5,241.2 441.1,241.9 441.6,241.6 442.2,240.8 442.7,241.7 443.3,242.4 443.8,240.0 444.4,238.9 444.9,237.1 445.5,235.8 446.0,232.3 446.5,232.9 447.1,233.0 447.6,235.4 448.2,236.5 448.7,236.1 449.3,236.0 449.8,237.2 450.4,238.7 450.9,239.5 451.4,239.7 452.0,239.7 452.5,238.0 453.1,238.2 453.6,236.3 454.2,235.1 454.7,234.7 455.3,236.0 455.8,235.4 456.4,232.9 456.9,235.5 457.4,232.6 458.0,230.9 458.5,232.6 459.1,231.7 459.6,231.4 460.2,228.6 460.7,233.7 461.3,235.5 461.8,235.7 462.4,229.5 462.9,229.9 463.4,229.3 464.0,227.3 464.5,228.6 465.1,228.9 465.6,228.0 466.2,229.5 466.7,228.3 467.3,216.0 467.8,214.8 468.3,217.2 468.9,219.0 469.4,216.7 470.0,217.1 470.5,215.6 471.1,214.1 471.6,216.5 472.2,214.9 472.7,212.6 473.3,212.9 473.8,213.8 474.3,212.3 474.9,211.8 475.4,211.6 476.0,214.6 476.5,213.6 477.1,211.9 477.6,211.8 478.2,211.8 478.7,207.6 479.3,208.0 479.8,205.7 480.3,204.6 480.9,205.2 481.4,204.1 482.0,205.3 482.5,207.0 483.1,206.8 483.6,206.8 484.2,206.4 484.7,203.9 485.2,204.0 485.8,202.5 486.3,200.1 486.9,201.2 487.4,201.3 488.0,200.0 488.5,201.9 489.1,205.0 489.6,204.3 490.2,205.4 490.7,207.0 491.2,208.7 491.8,207.9 492.3,205.2 492.9,206.4 493.4,206.8 494.0,203.2 494.5,203.8 495.1,205.7 495.6,206.3 496.2,204.2 496.7,202.3 497.2,201.0 497.8,200.8 498.3,203.1 498.9,195.6 499.4,194.5 500.0,194.5 500.5,196.4 501.1,196.0 501.6,196.6 502.1,197.1 502.7,195.7 503.2,196.1 503.8,198.8 504.3,199.3 504.9,197.3 505.4,196.6 506.0,196.1 506.5,197.1 507.1,197.8 507.6,196.9 508.1,197.6 508.7,196.3 509.2,196.6 509.8,197.5 510.3,198.5 510.9,200.6 511.4,201.2 512.0,201.8 512.5,200.5 513.1,199.8 513.6,198.2 514.1,200.7 514.7,199.8 515.2,200.1 515.8,197.9 516.3,198.4 516.9,196.7 517.4,196.6 518.0,195.5 518.5,196.3 519.0,194.2 519.6,194.3 520.1,195.3 520.7,195.6 521.2,195.8 521.8,197.4 522.3,195.5 522.9,193.5 523.4,194.4 524.0,198.6 524.5,198.1 525.0,197.5 525.6,196.6 526.1,196.2 526.7,199.7 527.2,201.5 527.8,200.5 528.3,201.0 528.9,202.5 529.4,200.8 530.0,202.3 530.5,207.2 531.0,208.4 531.6,206.9 532.1,208.4 532.7,201.1 533.2,200.6 533.8,202.5 534.3,198.9 534.9,195.7 535.4,195.0 535.9,194.5 536.5,194.9 537.0,194.4 537.6,191.7 538.1,192.9 538.7,192.1 539.2,192.3 539.8,192.1 540.3,193.5 540.9,191.3 541.4,190.5 541.9,193.4 542.5,193.6 543.0,193.4 543.6,195.7 544.1,194.6 544.7,194.6 545.2,187.8 545.8,183.4 546.3,179.9 546.9,178.1 547.4,174.7 547.9,175.0 548.5,174.6 549.0,173.7 549.6,173.6 550.1,172.4 550.7,171.7 551.2,172.8 551.8,172.9 552.3,171.7 552.9,171.7 553.4,171.4 553.9,169.8 554.5,168.0 555.0,167.9 555.6,166.5 556.1,166.6 556.7,166.0 557.2,165.2 557.8,165.8 558.3,166.4 558.8,166.0 559.4,166.7 559.9,165.9 560.5,160.9 561.0,160.9 561.6,160.7 562.1,160.9 562.7,159.9 563.2,158.4 563.8,156.4 564.3,156.6 564.8,157.4 565.4,159.3 565.9,160.8 566.5,158.8 567.0,157.6 567.6,136.6 568.1,127.7 568.7,128.4 569.2,127.9 569.8,128.8 570.3,128.7 570.8,127.5 571.4,126.2 571.9,122.0 572.5,121.4 573.0,122.6 573.6,120.0 574.1,122.3 574.7,120.6 575.2,120.8 575.7,119.4 576.3,118.8 576.8,114.8 577.4,113.7 577.9,112.9 578.5,109.7 579.0,118.5 579.6,122.1 580.1,119.2 580.7,121.2 581.2,121.5 581.7,118.3 582.3,119.3 582.8,123.5 583.4,122.5 583.9,118.7 584.5,118.1 585.0,118.6 585.6,117.8 586.1,119.7 586.7,119.7 587.2,121.6 587.7,118.6 588.3,117.2 588.8,116.5 589.4,120.6 589.9,120.7 590.5,122.5 591.0,123.0 591.6,122.1 592.1,119.7 592.6,120.2 593.2,118.5 593.7,119.2 594.3,115.5 594.8,115.4 595.4,115.3 595.9,118.4 596.5,115.6 597.0,114.8 597.6,114.9 598.1,114.3 598.6,114.9 599.2,112.7 599.7,114.5 600.3,112.7 600.8,113.4 601.4,112.1 601.9,113.5 602.5,112.7 603.0,100.8 603.6,96.5 604.1,98.1 604.6,98.3 605.2,103.4 605.7,107.9 606.3,108.5 606.8,113.2 607.4,120.4 607.9,122.2 608.5,121.3 609.0,119.3 609.5,121.0 610.1,122.6 610.6,133.8 611.2,131.5 611.7,138.6 612.3,134.2 612.8,131.1 613.4,131.2 613.9,127.1 614.5,124.6 615.0,129.9 615.5,126.4 616.1,124.6 616.6,123.3 617.2,119.0 617.7,117.9 618.3,121.0 618.8,133.4 619.4,131.1 619.9,132.7 620.5,129.1 621.0,127.6 621.5,133.3 622.1,143.1 622.6,139.9 623.2,139.2 623.7,130.6 624.3,132.9 624.8,135.9 625.4,139.0 625.9,136.9 626.4,140.5 627.0,138.5 627.5,140.9 628.1,138.7 628.6,135.4 629.2,132.1 629.7,130.3 630.3,128.6 630.8,127.9 631.4,131.8 631.9,129.7 632.4,124.4 633.0,125.5 633.5,125.0 634.1,125.2 634.6,119.0 635.2,120.8 635.7,117.6 636.3,114.2 636.8,113.3 637.4,114.7 637.9,115.4 638.4,114.1 639.0,115.3 639.5,116.0 640.1,117.1 640.6,116.6 641.2,112.6 641.7,111.3 642.3,112.2 642.8,110.9 643.4,109.7 643.9,110.1 644.4,107.7 645.0,108.0 645.5,107.5 646.1,112.2 646.6,112.2 647.2,112.3 647.7,112.7 648.3,115.1 648.8,114.1 649.3,115.7 649.9,118.2 650.4,121.4 651.0,119.7 651.5,117.4 652.1,119.1 652.6,117.7 653.2,119.9 653.7,117.3 654.3,119.4 654.8,119.6 655.3,118.6 655.9,118.1 656.4,118.1 657.0,116.9 657.5,117.9 658.1,119.7 658.6,116.4 659.2,116.8 659.7,116.4 660.3,115.2 660.8,115.1 661.3,114.8 661.9,117.3 662.4,115.4 663.0,115.8 663.5,115.1 664.1,114.1 664.6,115.5 665.2,115.2 665.7,111.2 666.2,112.9 666.8,110.6 667.3,113.1 667.9,111.3 668.4,105.0 669.0,102.7 669.5,101.6 670.1,101.4 670.6,103.9 671.2,105.5 671.7,104.8 672.2,104.9 672.8,108.2 673.3,108.3 673.9,107.4 674.4,104.5 675.0,103.4 675.5,101.1 676.1,101.9 676.6,99.4 677.2,100.0 677.7,99.7 678.2,99.0 678.8,97.6 679.3,98.7 679.9,92.7 680.4,91.5 681.0,90.7 681.5,90.3 682.1,89.2 682.6,88.2 683.1,87.2 683.7,87.0 684.2,85.6 684.8,83.2 685.3,83.7 685.9,83.0 686.4,83.8 687.0,84.0 687.5,81.5 688.1,78.1 688.6,77.6 689.1,78.7 689.7,80.4 690.2,80.4 690.8,88.8 691.3,84.7 691.9,84.9 692.4,87.5 693.0,90.4 693.5,88.5 694.1,88.5 694.6,87.3 695.1,87.0 695.7,87.6 696.2,90.8 696.8,92.1 697.3,90.9 697.9,88.5 698.4,85.7 699.0,83.7 699.5,85.1 700.0,84.8 700.6,85.7 701.1,84.2 701.7,84.7 702.2,86.8 702.8,86.0 703.3,85.6 703.9,85.8 704.4,83.0 705.0,88.0 705.5,89.0 706.0,91.7 706.6,91.6 707.1,93.4 707.7,94.8 708.2,94.4 708.8,95.4 709.3,95.4 709.9,91.4 710.4,91.8 711.0,88.8 711.5,87.6 712.0,85.4 712.6,82.9 713.1,82.1 713.7,80.3 714.2,79.7 714.8,79.9 715.3,77.1 715.9,78.8 716.4,77.7 716.9,81.4 717.5,81.0 718.0,80.9 718.6,82.5 719.1,79.5 719.7,77.4 720.2,76.5 720.8,76.9 721.3,76.9 721.9,77.9 722.4,79.1 722.9,79.6 723.5,81.2 724.0,85.9 724.6,84.6 725.1,86.0 725.7,84.6 726.2,86.1 726.8,83.3 727.3,82.4 727.9,81.6 728.4,85.9 728.9,86.9 729.5,90.5 730.0,90.8 730.6,94.1 731.1,95.3 731.7,95.0 732.2,93.8 732.8,93.0 733.3,93.1 733.8,90.5 734.4,100.7 734.9,99.5 735.5,102.0 736.0,111.7 736.6,113.5 737.1,109.0 737.7,102.2 738.2,100.7 738.8,102.6 739.3,114.7 739.8,111.3 740.4,113.3 740.9,109.3 741.5,108.3 742.0,107.4 742.6,112.7 743.1,110.9 743.7,107.0 744.2,104.1 744.8,105.3 745.3,105.6 745.8,104.8 746.4,99.6 746.9,96.7 747.5,97.4 748.0,95.8 748.6,100.2 749.1,102.1 749.7,103.5 750.2,102.4 750.8,103.0 751.3,102.3 751.8,104.4 752.4,104.7 752.9,104.4 753.5,102.4 754.0,105.2 754.6,105.1 755.1,111.2 755.7,112.6 756.2,113.9 756.7,110.2 757.3,111.6 757.8,111.9 758.4,108.2 758.9,108.5 759.5,111.2 760.0,112.9 760.6,111.1 761.1,107.6 761.7,105.5 762.2,101.7 762.7,101.5 763.3,100.2 763.8,98.6 764.4,100.7 764.9,99.5 765.5,102.9 766.0,103.6 766.6,102.2 767.1,103.6 767.7,104.2 768.2,103.9 768.7,102.2 769.3,100.5 769.8,100.1 770.4,101.2 770.9,97.7 771.5,101.2 772.0,100.1 772.6,98.7 773.1,103.0 773.6,99.3 774.2,97.5 774.7,98.5 775.3,100.2 775.8,99.6 776.4,99.2 776.9,99.7 777.5,96.1 778.0,90.6 778.6,87.6 779.1,86.4 779.6,86.3 780.2,87.0 780.7,90.3 781.3,91.5 781.8,91.6 782.4,91.0 782.9,95.4 783.5,98.4 784.0,100.0 784.6,98.0 785.1,95.4 785.6,96.0 786.2,99.9 786.7,101.1 787.3,101.1 787.8,101.4 788.4,101.6 788.9,103.9 789.5,100.2 790.0,97.8 790.5,96.0 791.1,90.9 791.6,94.7 792.2,93.0 792.7,94.6 793.3,95.2 793.8,95.4 794.4,96.9 794.9,104.3 795.5,103.6 796.0,103.1"/><polyline fill="none" stroke="#16a34a" stroke-width="3" points="78.0,210.1 78.5,213.7 79.1,215.7 79.6,214.5 80.2,213.0 80.7,212.7 81.3,216.0 81.8,214.8 82.4,215.7 82.9,215.8 83.5,215.4 84.0,216.5 84.5,214.6 85.1,216.0 85.6,216.3 86.2,217.5 86.7,217.2 87.3,218.9 87.8,221.0 88.4,222.3 88.9,224.8 89.4,217.2 90.0,212.4 90.5,210.8 91.1,210.6 91.6,207.8 92.2,207.5 92.7,205.9 93.3,206.2 93.8,207.2 94.4,206.4 94.9,202.8 95.4,207.0 96.0,206.1 96.5,205.8 97.1,202.8 97.6,200.7 98.2,199.1 98.7,198.6 99.3,197.5 99.8,197.1 100.4,197.5 100.9,197.6 101.4,194.9 102.0,193.4 102.5,193.4 103.1,196.1 103.6,198.6 104.2,197.7 104.7,195.7 105.3,195.5 105.8,197.3 106.3,196.5 106.9,202.2 107.4,205.4 108.0,204.5 108.5,207.7 109.1,209.1 109.6,209.5 110.2,209.2 110.7,208.4 111.3,206.9 111.8,210.1 112.3,211.6 112.9,214.0 113.4,214.2 114.0,213.9 114.5,214.8 115.1,212.2 115.6,211.6 116.2,212.3 116.7,212.3 117.3,210.0 117.8,210.0 118.3,213.3 118.9,211.7 119.4,212.0 120.0,211.8 120.5,211.7 121.1,215.9 121.6,216.9 122.2,217.3 122.7,216.0 123.2,217.5 123.8,218.0 124.3,218.6 124.9,212.3 125.4,211.3 126.0,208.5 126.5,206.2 127.1,204.9 127.6,202.7 128.2,201.2 128.7,203.4 129.2,202.9 129.8,203.6 130.3,205.8 130.9,202.8 131.4,199.8 132.0,200.2 132.5,203.0 133.1,207.7 133.6,205.3 134.2,200.6 134.7,202.4 135.2,201.9 135.8,203.4 136.3,204.9 136.9,204.0 137.4,205.9 138.0,203.0 138.5,203.8 139.1,200.3 139.6,199.1 140.2,201.1 140.7,204.0 141.2,202.9 141.8,204.3 142.3,202.5 142.9,204.7 143.4,203.3 144.0,200.9 144.5,195.5 145.1,194.6 145.6,193.9 146.1,194.0 146.7,193.5 147.2,191.8 147.8,191.1 148.3,190.9 148.9,188.9 149.4,190.3 150.0,188.5 150.5,189.7 151.1,190.1 151.6,189.9 152.1,189.3 152.7,187.6 153.2,187.4 153.8,186.7 154.3,187.1 154.9,187.4 155.4,187.3 156.0,187.3 156.5,186.6 157.1,184.5 157.6,188.9 158.1,178.8 158.7,180.0 159.2,184.9 159.8,181.7 160.3,183.5 160.9,186.6 161.4,186.6 162.0,189.0 162.5,190.5 163.0,189.7 163.6,191.8 164.1,192.1 164.7,191.6 165.2,194.7 165.8,192.1 166.3,190.1 166.9,192.4 167.4,188.4 168.0,188.7 168.5,191.8 169.0,191.9 169.6,193.0 170.1,193.8 170.7,193.2 171.2,196.2 171.8,193.4 172.3,193.9 172.9,191.6 173.4,190.0 174.0,190.0 174.5,188.8 175.0,190.3 175.6,191.5 176.1,189.9 176.7,189.7 177.2,189.6 177.8,193.1 178.3,197.4 178.9,197.3 179.4,198.5 179.9,196.8 180.5,196.1 181.0,195.9 181.6,199.1 182.1,199.5 182.7,204.2 183.2,206.0 183.8,205.4 184.3,207.3 184.9,206.5 185.4,210.6 185.9,211.9 186.5,214.8 187.0,213.8 187.6,210.7 188.1,208.0 188.7,210.0 189.2,213.4 189.8,207.0 190.3,207.4 190.9,205.5 191.4,202.5 191.9,204.4 192.5,205.9 193.0,205.4 193.6,202.0 194.1,207.2 194.7,211.0 195.2,211.3 195.8,217.2 196.3,218.2 196.8,217.4 197.4,217.3 197.9,216.4 198.5,214.3 199.0,216.7 199.6,219.3 200.1,224.4 200.7,227.7 201.2,229.6 201.8,226.3 202.3,228.8 202.8,231.1 203.4,231.7 203.9,229.4 204.5,224.7 205.0,222.0 205.6,220.0 206.1,221.1 206.7,219.2 207.2,219.5 207.8,219.2 208.3,221.0 208.8,221.0 209.4,218.5 209.9,219.1 210.5,219.4 211.0,221.2 211.6,216.7 212.1,219.5 212.7,222.1 213.2,222.7 213.7,223.3 214.3,224.8 214.8,225.2 215.4,222.6 215.9,225.9 216.5,228.4 217.0,225.2 217.6,228.9 218.1,232.9 218.7,235.4 219.2,235.5 219.7,239.0 220.3,240.3 220.8,238.2 221.4,239.6 221.9,237.6 222.5,237.3 223.0,236.6 223.6,242.1 224.1,246.8 224.7,252.5 225.2,254.8 225.7,258.1 226.3,241.7 226.8,237.8 227.4,240.8 227.9,239.7 228.5,242.1 229.0,237.8 229.6,237.0 230.1,239.9 230.6,247.4 231.2,243.3 231.7,242.2 232.3,236.6 232.8,239.7 233.4,239.4 233.9,235.7 234.5,237.8 235.0,233.6 235.6,232.4 236.1,232.1 236.6,236.6 237.2,242.7 237.7,246.3 238.3,248.7 238.8,245.9 239.4,251.7 239.9,246.8 240.5,244.3 241.0,242.9 241.6,239.6 242.1,237.5 242.6,239.4 243.2,242.5 243.7,243.5 244.3,245.3 244.8,244.4 245.4,243.8 245.9,243.0 246.5,240.4 247.0,240.7 247.6,244.5 248.1,245.3 248.6,247.7 249.2,251.4 249.7,248.3 250.3,245.5 250.8,244.1 251.4,240.4 251.9,239.7 252.5,242.6 253.0,244.1 253.5,247.0 254.1,243.9 254.6,243.8 255.2,243.5 255.7,245.7 256.3,245.2 256.8,243.1 257.4,242.8 257.9,242.1 258.5,236.8 259.0,242.8 259.5,236.4 260.1,245.2 260.6,242.3 261.2,246.7 261.7,248.3 262.3,252.6 262.8,254.8 263.4,258.9 263.9,261.8 264.5,260.7 265.0,260.0 265.5,258.6 266.1,261.3 266.6,263.1 267.2,264.1 267.7,263.8 268.3,262.8 268.8,265.0 269.4,264.0 269.9,262.2 270.4,260.9 271.0,257.2 271.5,255.7 272.1,259.4 272.6,262.2 273.2,264.3 273.7,267.2 274.3,268.0 274.8,270.6 275.4,272.2 275.9,275.6 276.4,274.7 277.0,274.4 277.5,274.2 278.1,271.6 278.6,276.2 279.2,276.7 279.7,274.1 280.3,272.0 280.8,273.2 281.4,273.8 281.9,277.5 282.4,279.6 283.0,281.8 283.5,280.8 284.1,280.1 284.6,281.6 285.2,279.8 285.7,279.2 286.3,282.8 286.8,281.7 287.3,282.6 287.9,282.1 288.4,278.7 289.0,281.1 289.5,282.4 290.1,283.0 290.6,284.4 291.2,283.9 291.7,287.3 292.3,290.1 292.8,291.7 293.3,291.4 293.9,290.5 294.4,296.0 295.0,286.6 295.5,284.4 296.1,289.8 296.6,289.3 297.2,292.8 297.7,293.6 298.3,295.2 298.8,297.8 299.3,295.1 299.9,294.6 300.4,294.9 301.0,297.0 301.5,297.2 302.1,293.4 302.6,293.8 303.2,293.9 303.7,299.8 304.2,307.8 304.8,309.3 305.3,311.3 305.9,311.6 306.4,309.8 307.0,310.5 307.5,310.7 308.1,314.9 308.6,314.5 309.2,316.5 309.7,314.5 310.2,312.4 310.8,314.4 311.3,314.4 311.9,317.5 312.4,316.9 313.0,311.2 313.5,310.7 314.1,309.6 314.6,308.8 315.2,314.4 315.7,315.1 316.2,312.5 316.8,311.5 317.3,309.5 317.9,309.9 318.4,309.2 319.0,308.8 319.5,309.8 320.1,312.5 320.6,308.6 321.1,303.6 321.7,303.9 322.2,304.3 322.8,303.9 323.3,300.8 323.9,302.5 324.4,300.3 325.0,297.5 325.5,294.2 326.1,298.1 326.6,300.8 327.1,299.7 327.7,300.4 328.2,287.2 328.8,290.1 329.3,288.1 329.9,287.7 330.4,284.7 331.0,289.0 331.5,291.2 332.1,294.2 332.6,290.5 333.1,293.1 333.7,294.1 334.2,297.3 334.8,297.0 335.3,297.5 335.9,296.2 336.4,295.2 337.0,296.5 337.5,297.2 338.1,297.8 338.6,300.0 339.1,302.1 339.7,301.6 340.2,300.0 340.8,296.6 341.3,295.9 341.9,296.9 342.4,296.6 343.0,294.0 343.5,295.7 344.0,294.2 344.6,294.3 345.1,294.4 345.7,295.1 346.2,291.2 346.8,291.2 347.3,288.5 347.9,288.2 348.4,286.2 349.0,288.6 349.5,288.6 350.0,288.1 350.6,287.7 351.1,287.0 351.7,286.4 352.2,286.0 352.8,286.4 353.3,285.6 353.9,285.0 354.4,285.9 355.0,286.1 355.5,288.1 356.0,289.6 356.6,287.8 357.1,284.1 357.7,284.2 358.2,284.7 358.8,286.7 359.3,286.1 359.9,285.5 360.4,283.7 360.9,282.3 361.5,283.2 362.0,281.7 362.6,270.0 363.1,271.3 363.7,268.5 364.2,267.9 364.8,264.3 365.3,262.8 365.9,262.7 366.4,262.8 366.9,263.4 367.5,264.2 368.0,265.1 368.6,265.1 369.1,264.7 369.7,262.9 370.2,263.3 370.8,263.4 371.3,261.7 371.9,266.8 372.4,271.2 372.9,268.8 373.5,268.4 374.0,269.1 374.6,268.7 375.1,268.8 375.7,267.1 376.2,265.3 376.8,266.2 377.3,266.7 377.8,265.9 378.4,266.6 378.9,264.8 379.5,260.7 380.0,261.4 380.6,261.7 381.1,261.4 381.7,261.0 382.2,259.6 382.8,261.8 383.3,260.8 383.8,258.5 384.4,256.5 384.9,256.1 385.5,254.8 386.0,256.4 386.6,255.8 387.1,256.1 387.7,255.6 388.2,256.6 388.8,256.5 389.3,256.4 389.8,255.5 390.4,253.0 390.9,252.9 391.5,250.6 392.0,250.4 392.6,250.3 393.1,250.8 393.7,251.8 394.2,250.5 394.7,251.5 395.3,252.8 395.8,254.0 396.4,241.0 396.9,238.6 397.5,237.4 398.0,237.5 398.6,238.3 399.1,240.1 399.7,239.5 400.2,238.4 400.7,237.7 401.3,236.8 401.8,238.0 402.4,237.4 402.9,236.1 403.5,235.4 404.0,233.1 404.6,232.7 405.1,232.8 405.7,233.6 406.2,234.0 406.7,233.7 407.3,234.2 407.8,233.8 408.4,234.7 408.9,235.9 409.5,233.5 410.0,233.3 410.6,231.7 411.1,237.4 411.6,238.0 412.2,239.2 412.7,240.2 413.3,239.6 413.8,239.0 414.4,237.6 414.9,237.4 415.5,237.1 416.0,235.9 416.6,238.2 417.1,236.6 417.6,237.4 418.2,236.5 418.7,235.9 419.3,236.3 419.8,236.6 420.4,237.4 420.9,239.1 421.5,238.6 422.0,237.5 422.6,238.5 423.1,239.1 423.6,240.5 424.2,240.4 424.7,239.2 425.3,242.6 425.8,242.3 426.4,242.5 426.9,241.7 427.5,242.2 428.0,241.8 428.5,240.8 429.1,238.0 429.6,237.8 430.2,235.8 430.7,236.9 431.3,237.5 431.8,232.0 432.4,235.1 432.9,233.3 433.5,236.4 434.0,238.5 434.5,238.3 435.1,237.7 435.6,238.7 436.2,238.1 436.7,237.7 437.3,237.9 437.8,239.3 438.4,238.4 438.9,240.6 439.5,239.5 440.0,240.8 440.5,241.2 441.1,241.9 441.6,241.6 442.2,240.8 442.7,241.7 443.3,242.4 443.8,240.0 444.4,238.9 444.9,237.1 445.5,235.8 446.0,232.3 446.5,232.9 447.1,233.0 447.6,235.4 448.2,236.5 448.7,236.1 449.3,236.0 449.8,237.2 450.4,238.7 450.9,239.5 451.4,239.7 452.0,239.7 452.5,238.0 453.1,238.2 453.6,236.3 454.2,235.1 454.7,234.7 455.3,236.0 455.8,235.4 456.4,232.9 456.9,235.5 457.4,232.6 458.0,230.9 458.5,232.6 459.1,231.7 459.6,231.4 460.2,228.6 460.7,233.7 461.3,235.5 461.8,235.7 462.4,229.5 462.9,229.9 463.4,229.3 464.0,227.3 464.5,228.6 465.1,228.9 465.6,228.0 466.2,229.5 466.7,228.3 467.3,216.0 467.8,214.8 468.3,217.2 468.9,219.0 469.4,216.7 470.0,217.1 470.5,215.6 471.1,214.1 471.6,216.5 472.2,214.9 472.7,212.6 473.3,212.9 473.8,213.8 474.3,212.3 474.9,211.8 475.4,211.6 476.0,214.6 476.5,213.6 477.1,211.9 477.6,211.8 478.2,211.8 478.7,207.6 479.3,208.0 479.8,205.7 480.3,204.6 480.9,205.2 481.4,204.1 482.0,205.3 482.5,207.0 483.1,206.8 483.6,206.8 484.2,206.4 484.7,203.9 485.2,204.0 485.8,202.5 486.3,200.1 486.9,201.2 487.4,201.3 488.0,200.0 488.5,201.9 489.1,205.0 489.6,204.3 490.2,205.4 490.7,207.0 491.2,208.7 491.8,207.9 492.3,205.2 492.9,206.4 493.4,206.8 494.0,203.2 494.5,203.8 495.1,205.7 495.6,206.3 496.2,204.2 496.7,202.3 497.2,201.0 497.8,200.8 498.3,203.1 498.9,195.6 499.4,194.5 500.0,194.5 500.5,196.4 501.1,196.0 501.6,196.6 502.1,197.1 502.7,195.7 503.2,196.1 503.8,198.8 504.3,199.3 504.9,197.3 505.4,196.6 506.0,196.1 506.5,197.1 507.1,197.8 507.6,196.9 508.1,197.6 508.7,196.3 509.2,196.6 509.8,197.5 510.3,198.5 510.9,200.6 511.4,201.2 512.0,201.8 512.5,200.5 513.1,199.8 513.6,198.2 514.1,200.7 514.7,199.8 515.2,200.1 515.8,197.9 516.3,198.4 516.9,196.7 517.4,196.6 518.0,195.5 518.5,196.3 519.0,194.2 519.6,194.3 520.1,195.3 520.7,195.6 521.2,195.8 521.8,197.4 522.3,195.5 522.9,193.5 523.4,194.4 524.0,198.6 524.5,198.1 525.0,197.5 525.6,196.6 526.1,196.2 526.7,199.7 527.2,201.5 527.8,200.5 528.3,201.0 528.9,202.5 529.4,200.8 530.0,202.3 530.5,207.2 531.0,208.4 531.6,206.9 532.1,208.4 532.7,201.1 533.2,200.6 533.8,202.5 534.3,198.9 534.9,195.7 535.4,195.0 535.9,194.5 536.5,194.9 537.0,194.4 537.6,191.7 538.1,192.9 538.7,192.1 539.2,192.3 539.8,192.1 540.3,193.5 540.9,191.3 541.4,190.5 541.9,193.4 542.5,193.6 543.0,193.4 543.6,195.7 544.1,194.6 544.7,194.6 545.2,187.8 545.8,183.4 546.3,179.9 546.9,178.1 547.4,174.7 547.9,175.0 548.5,174.6 549.0,173.7 549.6,173.6 550.1,172.4 550.7,171.7 551.2,172.8 551.8,172.9 552.3,171.7 552.9,171.7 553.4,171.4 553.9,169.8 554.5,168.0 555.0,167.9 555.6,166.5 556.1,166.6 556.7,166.0 557.2,165.2 557.8,165.8 558.3,166.4 558.8,166.0 559.4,166.7 559.9,165.9 560.5,160.9 561.0,160.9 561.6,160.7 562.1,160.9 562.7,159.9 563.2,158.4 563.8,156.4 564.3,156.6 564.8,157.4 565.4,159.3 565.9,160.8 566.5,158.8 567.0,157.6 567.6,136.6 568.1,127.7 568.7,128.4 569.2,127.9 569.8,128.8 570.3,128.7 570.8,127.5 571.4,126.2 571.9,122.0 572.5,121.4 573.0,122.6 573.6,120.0 574.1,122.3 574.7,120.6 575.2,120.8 575.7,119.4 576.3,118.8 576.8,114.8 577.4,113.7 577.9,112.9 578.5,109.7 579.0,118.5 579.6,122.1 580.1,119.2 580.7,121.2 581.2,121.5 581.7,118.3 582.3,119.3 582.8,123.5 583.4,122.5 583.9,118.7 584.5,118.1 585.0,118.6 585.6,117.8 586.1,119.7 586.7,119.7 587.2,121.6 587.7,118.6 588.3,117.2 588.8,116.5 589.4,120.6 589.9,120.7 590.5,122.5 591.0,123.0 591.6,122.1 592.1,119.7 592.6,120.2 593.2,118.5 593.7,119.2 594.3,115.5 594.8,115.4 595.4,115.3 595.9,118.4 596.5,115.6 597.0,114.8 597.6,114.9 598.1,114.3 598.6,114.9 599.2,112.7 599.7,114.5 600.3,112.7 600.8,113.4 601.4,112.1 601.9,113.5 602.5,112.7 603.0,100.8 603.6,96.5 604.1,98.1 604.6,98.3 605.2,103.4 605.7,107.9 606.3,108.5 606.8,113.2 607.4,120.4 607.9,122.2 608.5,121.3 609.0,119.3 609.5,121.0 610.1,122.6 610.6,133.8 611.2,131.5 611.7,138.6 612.3,134.2 612.8,131.1 613.4,131.2 613.9,127.1 614.5,124.6 615.0,129.9 615.5,126.4 616.1,124.6 616.6,123.3 617.2,119.0 617.7,117.9 618.3,121.0 618.8,133.4 619.4,131.1 619.9,132.7 620.5,129.1 621.0,127.6 621.5,133.3 622.1,143.1 622.6,139.9 623.2,139.2 623.7,130.6 624.3,132.9 624.8,135.9 625.4,139.0 625.9,136.9 626.4,140.5 627.0,138.5 627.5,140.9 628.1,138.7 628.6,135.4 629.2,132.1 629.7,130.3 630.3,128.6 630.8,127.9 631.4,131.8 631.9,129.7 632.4,124.4 633.0,125.5 633.5,125.0 634.1,125.2 634.6,119.0 635.2,120.8 635.7,117.6 636.3,114.2 636.8,113.3 637.4,114.7 637.9,115.4 638.4,114.1 639.0,115.3 639.5,116.0 640.1,117.1 640.6,116.6 641.2,112.6 641.7,111.3 642.3,112.2 642.8,110.9 643.4,109.7 643.9,110.1 644.4,107.7 645.0,108.0 645.5,107.5 646.1,112.2 646.6,112.2 647.2,112.3 647.7,112.7 648.3,115.1 648.8,114.1 649.3,115.7 649.9,118.2 650.4,121.4 651.0,119.7 651.5,117.4 652.1,119.1 652.6,117.7 653.2,119.9 653.7,117.3 654.3,119.4 654.8,119.6 655.3,118.6 655.9,118.1 656.4,118.1 657.0,116.9 657.5,117.9 658.1,119.7 658.6,116.4 659.2,116.8 659.7,116.4 660.3,115.2 660.8,115.1 661.3,114.8 661.9,117.3 662.4,115.4 663.0,115.8 663.5,115.1 664.1,114.1 664.6,115.5 665.2,115.2 665.7,111.2 666.2,112.9 666.8,110.6 667.3,113.1 667.9,111.3 668.4,105.0 669.0,102.7 669.5,101.6 670.1,101.4 670.6,103.9 671.2,105.5 671.7,104.8 672.2,104.9 672.8,108.2 673.3,108.3 673.9,107.4 674.4,104.5 675.0,103.4 675.5,101.1 676.1,101.9 676.6,99.4 677.2,100.0 677.7,99.7 678.2,99.0 678.8,97.6 679.3,98.7 679.9,92.7 680.4,91.5 681.0,90.7 681.5,90.3 682.1,89.2 682.6,88.2 683.1,87.2 683.7,87.0 684.2,85.6 684.8,83.2 685.3,83.7 685.9,83.0 686.4,83.8 687.0,84.0 687.5,81.5 688.1,78.1 688.6,77.6 689.1,78.7 689.7,80.4 690.2,80.4 690.8,88.8 691.3,84.7 691.9,84.9 692.4,87.5 693.0,90.4 693.5,88.5 694.1,88.5 694.6,87.3 695.1,87.0 695.7,87.6 696.2,90.8 696.8,92.1 697.3,90.9 697.9,88.5 698.4,85.7 699.0,83.7 699.5,85.1 700.0,84.8 700.6,85.7 701.1,84.2 701.7,84.7 702.2,86.8 702.8,86.0 703.3,85.6 703.9,85.8 704.4,83.0 705.0,88.0 705.5,89.0 706.0,91.7 706.6,91.6 707.1,93.4 707.7,94.8 708.2,94.4 708.8,95.4 709.3,95.4 709.9,91.4 710.4,91.8 711.0,88.8 711.5,87.6 712.0,85.4 712.6,82.9 713.1,82.1 713.7,80.3 714.2,79.7 714.8,79.9 715.3,77.1 715.9,78.8 716.4,77.7 716.9,81.4 717.5,81.0 718.0,80.9 718.6,82.5 719.1,79.5 719.7,77.4 720.2,76.5 720.8,76.9 721.3,76.9 721.9,77.9 722.4,79.1 722.9,79.6 723.5,81.2 724.0,85.9 724.6,84.6 725.1,86.0 725.7,84.6 726.2,86.1 726.8,83.3 727.3,82.4 727.9,81.6 728.4,85.9 728.9,86.9 729.5,90.5 730.0,90.8 730.6,94.1 731.1,95.3 731.7,95.0 732.2,93.8 732.8,93.0 733.3,93.1 733.8,90.5 734.4,100.7 734.9,99.5 735.5,102.0 736.0,111.7 736.6,113.5 737.1,109.0 737.7,102.2 738.2,100.7 738.8,102.6 739.3,114.7 739.8,111.3 740.4,113.3 740.9,109.3 741.5,108.3 742.0,107.4 742.6,112.7 743.1,110.9 743.7,107.0 744.2,104.1 744.8,105.3 745.3,105.6 745.8,104.8 746.4,99.6 746.9,96.7 747.5,97.4 748.0,95.8 748.6,100.2 749.1,102.1 749.7,103.5 750.2,102.4 750.8,103.0 751.3,102.3 751.8,104.4 752.4,104.7 752.9,104.4 753.5,102.4 754.0,105.2 754.6,105.1 755.1,111.2 755.7,112.6 756.2,113.9 756.7,110.2 757.3,111.6 757.8,111.9 758.4,108.2 758.9,108.5 759.5,111.2 760.0,112.9 760.6,111.1 761.1,107.6 761.7,105.5 762.2,101.7 762.7,101.5 763.3,100.2 763.8,98.6 764.4,100.7 764.9,99.5 765.5,102.9 766.0,103.6 766.6,102.2 767.1,103.6 767.7,104.2 768.2,103.9 768.7,102.2 769.3,100.5 769.8,100.1 770.4,101.2 770.9,97.7 771.5,101.2 772.0,100.1 772.6,98.7 773.1,103.0 773.6,99.3 774.2,97.5 774.7,98.5 775.3,100.2 775.8,99.6 776.4,99.2 776.9,99.7 777.5,96.1 778.0,90.6 778.6,87.6 779.1,86.4 779.6,86.3 780.2,87.0 780.7,90.3 781.3,91.5 781.8,91.6 782.4,91.0 782.9,95.4 783.5,98.4 784.0,100.0 784.6,98.0 785.1,95.4 785.6,96.0 786.2,99.9 786.7,101.1 787.3,101.1 787.8,101.4 788.4,101.6 788.9,103.9 789.5,100.2 790.0,97.8 790.5,96.0 791.1,90.9 791.6,94.7 792.2,93.0 792.7,94.6 793.3,95.2 793.8,95.4 794.4,96.9 794.9,104.3 795.5,103.6 796.0,103.1"/>
<text x="78" y="392" font-size="11" fill="#16a34a">Total return +594.4%</text><text x="268" y="392" font-size="11" fill="#2563eb">Price-only +594.4%</text><text x="78" y="362" font-size="11" text-anchor="middle" fill="#64748b">2021-04</text><text x="257" y="362" font-size="11" text-anchor="middle" fill="#64748b">2022-08</text><text x="437" y="362" font-size="11" text-anchor="middle" fill="#64748b">2023-11</text><text x="617" y="362" font-size="11" text-anchor="middle" fill="#64748b">2025-03</text><text x="796" y="362" font-size="11" text-anchor="middle" fill="#64748b">2026-07</text></svg>