<svg xmlns="http://www.w3.org/2000/svg" width="720" height="360" viewBox="0 0 720 360">
  <rect width="720" height="360" fill="#fafafa"/>
  <text x="56" y="22" font-size="13" font-family="sans-serif" fill="#222">CRCL total return (rebased 100) · cumulative distributions $0.00/sh · market cap n/a</text>
  <line x1="56" y1="308" x2="696" y2="308" stroke="#ccc"/>
  <line x1="56" y1="48" x2="56" y2="308" stroke="#ccc"/>
  <polyline fill="none" stroke="#2563eb" stroke-width="2" points="56.0,255.4 58.5,229.7 61.0,221.7 63.5,231.5 66.0,219.7 68.5,230.9 71.1,202.5 73.6,184.1 76.1,186.1 78.6,133.1 81.1,90.3 83.6,65.9 86.1,108.8 88.6,134.1 91.1,118.3 93.6,153.2 96.2,152.3 98.7,140.5 101.2,155.8 103.7,144.4 106.2,124.8 108.7,127.6 111.2,131.9 113.7,129.6 116.2,145.9 118.7,127.7 121.3,137.5 123.8,97.7 126.3,95.8 128.8,107.6 131.3,115.7 133.8,134.4 136.3,130.1 138.8,139.9 141.3,140.1 143.8,148.0 146.4,151.9 148.9,142.6 151.4,150.0 153.9,166.2 156.4,169.6 158.9,181.1 161.4,172.9 163.9,182.1 166.4,175.7 168.9,173.4 171.5,171.3 174.0,181.9 176.5,196.5 179.0,186.0 181.5,194.0 184.0,200.7 186.5,198.0 189.0,204.3 191.5,200.9 194.0,211.2 196.5,207.2 199.1,208.9 201.6,205.2 204.1,204.1 206.6,216.6 209.1,218.3 211.6,219.4 214.1,222.4 216.6,224.7 219.1,218.8 221.6,223.4 224.2,202.3 226.7,211.1 229.2,202.0 231.7,201.2 234.2,205.1 236.7,195.3 239.2,191.4 241.7,198.2 244.2,205.2 246.7,204.6 249.3,211.8 251.8,209.4 254.3,202.4 256.8,203.5 259.3,207.2 261.8,185.5 264.3,189.6 266.8,186.8 269.3,186.5 271.8,184.7 274.4,184.7 276.9,203.1 279.4,198.4 281.9,201.5 284.4,201.5 286.9,207.8 289.4,209.9 291.9,205.4 294.4,206.4 296.9,211.7 299.5,206.4 302.0,193.5 304.5,192.2 307.0,199.8 309.5,204.4 312.0,213.9 314.5,209.4 317.0,219.0 319.5,225.9 322.0,224.1 324.5,237.7 327.1,234.4 329.6,233.4 332.1,239.5 334.6,252.2 337.1,256.3 339.6,256.8 342.1,262.4 344.6,262.3 347.1,269.6 349.6,272.5 352.2,267.9 354.7,266.4 357.2,269.2 359.7,266.5 362.2,258.8 364.7,263.0 367.2,261.5 369.7,252.2 372.2,250.9 374.7,252.9 377.3,254.6 379.8,249.4 382.3,249.9 384.8,249.8 387.3,255.1 389.8,263.5 392.3,255.6 394.8,259.6 397.3,257.7 399.8,252.3 402.4,251.4 404.9,255.9 407.4,256.0 409.9,257.4 412.4,258.2 414.9,258.9 417.4,259.5 419.9,255.1 422.4,253.7 424.9,253.7 427.5,258.2 430.0,256.9 432.5,255.7 435.0,255.7 437.5,255.1 440.0,253.7 442.5,262.3 445.0,260.2 447.5,266.4 450.0,266.5 452.5,267.9 455.1,267.9 457.6,268.3 460.1,269.3 462.6,266.3 465.1,271.9 467.6,275.7 470.1,281.0 472.6,283.8 475.1,285.0 477.6,290.1 480.2,282.9 482.7,279.7 485.2,280.1 487.7,282.0 490.2,283.3 492.7,279.8 495.2,278.1 497.7,276.5 500.2,277.8 502.7,276.6 505.3,278.6 507.8,278.4 510.3,255.5 512.8,251.2 515.3,255.2 517.8,241.8 520.3,238.1 522.8,232.2 525.3,231.7 527.8,235.7 530.4,225.3 532.9,218.7 535.4,224.3 537.9,222.8 540.4,221.6 542.9,210.6 545.4,203.8 547.9,203.2 550.4,208.0 552.9,210.4 555.5,209.7 558.0,236.5 560.5,233.7 563.0,239.6 565.5,244.4 568.0,248.4 570.5,242.6 573.0,247.5 575.5,248.0 578.0,246.0 580.5,243.9 583.1,243.6 585.6,253.4 588.1,250.3 590.6,239.1 593.1,232.0 595.6,231.9 598.1,229.9 600.6,231.5 603.1,231.1 605.6,241.9 608.2,233.2 610.7,237.7 613.2,238.1 615.7,242.5 618.2,243.7 620.7,242.4 623.2,247.3 625.7,238.1 628.2,217.2 630.7,222.8 633.3,214.8 635.8,223.8 638.3,223.4 640.8,204.4 643.3,212.9 645.8,209.8 648.3,212.6 650.8,223.0 653.3,225.8 655.8,226.2 658.4,225.5 660.9,222.1 663.4,224.0 665.9,233.4 668.4,235.0 670.9,229.1 673.4,224.1 675.9,232.5 678.4,236.9 680.9,248.1 683.5,247.7 686.0,258.5 688.5,256.1 691.0,257.6 693.5,259.9 696.0,256.6"/>
  <polyline fill="none" stroke="#16a34a" stroke-width="2" points="56.0,255.4 58.5,229.7 61.0,221.7 63.5,231.5 66.0,219.7 68.5,230.9 71.1,202.5 73.6,184.1 76.1,186.1 78.6,133.1 81.1,90.3 83.6,65.9 86.1,108.8 88.6,134.1 91.1,118.3 93.6,153.2 96.2,152.3 98.7,140.5 101.2,155.8 103.7,144.4 106.2,124.8 108.7,127.6 111.2,131.9 113.7,129.6 116.2,145.9 118.7,127.7 121.3,137.5 123.8,97.7 126.3,95.8 128.8,107.6 131.3,115.7 133.8,134.4 136.3,130.1 138.8,139.9 141.3,140.1 143.8,148.0 146.4,151.9 148.9,142.6 151.4,150.0 153.9,166.2 156.4,169.6 158.9,181.1 161.4,172.9 163.9,182.1 166.4,175.7 168.9,173.4 171.5,171.3 174.0,181.9 176.5,196.5 179.0,186.0 181.5,194.0 184.0,200.7 186.5,198.0 189.0,204.3 191.5,200.9 194.0,211.2 196.5,207.2 199.1,208.9 201.6,205.2 204.1,204.1 206.6,216.6 209.1,218.3 211.6,219.4 214.1,222.4 216.6,224.7 219.1,218.8 221.6,223.4 224.2,202.3 226.7,211.1 229.2,202.0 231.7,201.2 234.2,205.1 236.7,195.3 239.2,191.4 241.7,198.2 244.2,205.2 246.7,204.6 249.3,211.8 251.8,209.4 254.3,202.4 256.8,203.5 259.3,207.2 261.8,185.5 264.3,189.6 266.8,186.8 269.3,186.5 271.8,184.7 274.4,184.7 276.9,203.1 279.4,198.4 281.9,201.5 284.4,201.5 286.9,207.8 289.4,209.9 291.9,205.4 294.4,206.4 296.9,211.7 299.5,206.4 302.0,193.5 304.5,192.2 307.0,199.8 309.5,204.4 312.0,213.9 314.5,209.4 317.0,219.0 319.5,225.9 322.0,224.1 324.5,237.7 327.1,234.4 329.6,233.4 332.1,239.5 334.6,252.2 337.1,256.3 339.6,256.8 342.1,262.4 344.6,262.3 347.1,269.6 349.6,272.5 352.2,267.9 354.7,266.4 357.2,269.2 359.7,266.5 362.2,258.8 364.7,263.0 367.2,261.5 369.7,252.2 372.2,250.9 374.7,252.9 377.3,254.6 379.8,249.4 382.3,249.9 384.8,249.8 387.3,255.1 389.8,263.5 392.3,255.6 394.8,259.6 397.3,257.7 399.8,252.3 402.4,251.4 404.9,255.9 407.4,256.0 409.9,257.4 412.4,258.2 414.9,258.9 417.4,259.5 419.9,255.1 422.4,253.7 424.9,253.7 427.5,258.2 430.0,256.9 432.5,255.7 435.0,255.7 437.5,255.1 440.0,253.7 442.5,262.3 445.0,260.2 447.5,266.4 450.0,266.5 452.5,267.9 455.1,267.9 457.6,268.3 460.1,269.3 462.6,266.3 465.1,271.9 467.6,275.7 470.1,281.0 472.6,283.8 475.1,285.0 477.6,290.1 480.2,282.9 482.7,279.7 485.2,280.1 487.7,282.0 490.2,283.3 492.7,279.8 495.2,278.1 497.7,276.5 500.2,277.8 502.7,276.6 505.3,278.6 507.8,278.4 510.3,255.5 512.8,251.2 515.3,255.2 517.8,241.8 520.3,238.1 522.8,232.2 525.3,231.7 527.8,235.7 530.4,225.3 532.9,218.7 535.4,224.3 537.9,222.8 540.4,221.6 542.9,210.6 545.4,203.8 547.9,203.2 550.4,208.0 552.9,210.4 555.5,209.7 558.0,236.5 560.5,233.7 563.0,239.6 565.5,244.4 568.0,248.4 570.5,242.6 573.0,247.5 575.5,248.0 578.0,246.0 580.5,243.9 583.1,243.6 585.6,253.4 588.1,250.3 590.6,239.1 593.1,232.0 595.6,231.9 598.1,229.9 600.6,231.5 603.1,231.1 605.6,241.9 608.2,233.2 610.7,237.7 613.2,238.1 615.7,242.5 618.2,243.7 620.7,242.4 623.2,247.3 625.7,238.1 628.2,217.2 630.7,222.8 633.3,214.8 635.8,223.8 638.3,223.4 640.8,204.4 643.3,212.9 645.8,209.8 648.3,212.6 650.8,223.0 653.3,225.8 655.8,226.2 658.4,225.5 660.9,222.1 663.4,224.0 665.9,233.4 668.4,235.0 670.9,229.1 673.4,224.1 675.9,232.5 678.4,236.9 680.9,248.1 683.5,247.7 686.0,258.5 688.5,256.1 691.0,257.6 693.5,259.9 696.0,256.6"/>
  <text x="60" y="62" font-size="11" fill="#2563eb">Price index</text>
  <text x="146" y="62" font-size="11" fill="#16a34a">Total return (price + distributions)</text>
  <text x="56" y="348" font-size="11" text-anchor="middle" fill="#444">2025-06</text><text x="217" y="348" font-size="11" text-anchor="middle" fill="#444">2025-09</text><text x="377" y="348" font-size="11" text-anchor="middle" fill="#444">2025-12</text><text x="538" y="348" font-size="11" text-anchor="middle" fill="#444">2026-03</text><text x="696" y="348" font-size="11" text-anchor="middle" fill="#444">2026-06</text>
</svg>
