<svg xmlns="http://www.w3.org/2000/svg" width="820" height="410" viewBox="0 0 820 410">
<rect width="820" height="410" fill="#fafafa"/><text x="78" y="22" font-size="14" font-family="sans-serif" fill="#0f172a">CRCL cumulative return since 2025-06-05 | dividends reinvested</text>
<text x="78" y="40" font-size="11" font-family="sans-serif" fill="#334155">Total return -21.1% | Price-only -21.1% | logarithmic scale</text>
<text x="78" y="54" font-size="9" font-family="sans-serif" fill="#64748b">Regular $0.00 | Special $0.00 | Other $0.00 per initial share path</text>
<line x1="78" y1="332.0" x2="796" y2="332.0" stroke="#e2e8f0"/><text x="70" y="336.0" font-size="10" text-anchor="end" fill="#64748b">-45.4%</text><line x1="78" y1="287.0" x2="796" y2="287.0" stroke="#e2e8f0"/><text x="70" y="291.0" font-size="10" text-anchor="end" fill="#64748b">-25.6%</text><line x1="78" y1="244.1" x2="796" y2="244.1" stroke="#e2e8f0"/><text x="70" y="248.1" font-size="10" text-anchor="end" fill="#64748b">0%</text><line x1="78" y1="242.0" x2="796" y2="242.0" stroke="#e2e8f0"/><text x="70" y="246.0" font-size="10" text-anchor="end" fill="#64748b">+1.4%</text><line x1="78" y1="197.0" x2="796" y2="197.0" stroke="#e2e8f0"/><text x="70" y="201.0" font-size="10" text-anchor="end" fill="#64748b">+38.2%</text><line x1="78" y1="152.0" x2="796" y2="152.0" stroke="#e2e8f0"/><text x="70" y="156.0" font-size="10" text-anchor="end" fill="#64748b">+88.3%</text><line x1="78" y1="107.0" x2="796" y2="107.0" stroke="#e2e8f0"/><text x="70" y="111.0" font-size="10" text-anchor="end" fill="#64748b">+156.6%</text><line x1="78" y1="62.0" x2="796" y2="62.0" stroke="#e2e8f0"/><text x="70" y="66.0" font-size="10" text-anchor="end" fill="#64748b">+249.6%</text>
<line x1="78" y1="332" x2="796" y2="332" stroke="#cbd5e1"/>
<polyline fill="none" stroke="#2563eb" stroke-width="2" points="78.0,244.1 80.6,206.6 83.2,196.7 85.8,209.0 88.4,194.3 91.0,208.2 93.6,175.3 96.1,157.4 98.7,159.2 101.3,116.8 103.9,89.9 106.5,76.5 109.1,100.9 111.7,117.6 114.3,107.0 116.9,131.5 119.5,130.8 122.1,122.1 124.7,133.5 127.2,125.0 129.8,111.2 132.4,113.1 135.0,116.1 137.6,114.5 140.2,126.1 142.8,113.2 145.4,120.0 148.0,94.2 150.6,93.0 153.2,100.2 155.8,105.3 158.4,117.8 160.9,114.8 163.5,121.7 166.1,121.8 168.7,127.6 171.3,130.6 173.9,123.6 176.5,129.1 179.1,141.8 181.7,144.7 184.3,154.6 186.9,147.5 189.5,155.6 192.1,149.9 194.6,147.9 197.2,146.1 199.8,155.4 202.4,169.2 205.0,159.1 207.6,166.8 210.2,173.5 212.8,170.7 215.4,177.2 218.0,173.7 220.6,184.6 223.2,180.3 225.7,182.1 228.3,178.2 230.9,177.0 233.5,190.7 236.1,192.7 238.7,193.9 241.3,197.6 243.9,200.3 246.5,193.3 249.1,198.7 251.7,175.1 254.3,184.5 256.9,174.7 259.4,173.9 262.0,178.1 264.6,168.0 267.2,164.2 269.8,170.9 272.4,178.1 275.0,177.5 277.6,185.3 280.2,182.6 282.8,175.2 285.4,176.4 288.0,180.3 290.5,158.7 293.1,162.5 295.7,159.8 298.3,159.6 300.9,157.9 303.5,157.9 306.1,176.0 308.7,171.1 311.3,174.3 313.9,174.3 316.5,180.9 319.1,183.2 321.7,178.3 324.2,179.4 326.8,185.2 329.4,179.4 332.0,166.3 334.6,165.1 337.2,172.5 339.8,177.3 342.4,187.6 345.0,182.6 347.6,193.5 350.2,201.9 352.8,199.6 355.4,217.4 357.9,212.9 360.5,211.5 363.1,219.9 365.7,238.8 368.3,245.6 370.9,246.4 373.5,256.2 376.1,256.2 378.7,269.8 381.3,275.8 383.9,266.5 386.5,263.7 389.0,269.0 391.6,263.9 394.2,250.0 396.8,257.4 399.4,254.6 402.0,238.8 404.6,236.9 407.2,240.0 409.8,242.8 412.4,234.5 415.0,235.3 417.6,235.0 420.2,243.7 422.7,258.3 425.3,244.5 427.9,251.3 430.5,248.0 433.1,239.1 435.7,237.6 438.3,245.0 440.9,245.1 443.5,247.5 446.1,248.9 448.7,250.0 451.3,251.1 453.8,243.7 456.4,241.4 459.0,241.3 461.6,248.8 464.2,246.6 466.8,244.7 469.4,244.7 472.0,243.7 474.6,241.4 477.2,256.2 479.8,252.4 482.4,263.8 485.0,263.9 487.5,266.5 490.1,266.5 492.7,267.4 495.3,269.3 497.9,263.5 500.5,274.4 503.1,282.5 505.7,294.5 508.3,301.3 510.9,304.2 513.5,317.5 516.1,299.0 518.6,291.4 521.2,292.3 523.8,297.0 526.4,300.1 529.0,291.6 531.6,287.8 534.2,284.2 536.8,287.1 539.4,284.5 542.0,288.9 544.6,288.4 547.2,244.2 549.8,237.3 552.3,243.7 554.9,223.1 557.5,217.9 560.1,209.9 562.7,209.3 565.3,214.6 567.9,201.1 570.5,193.2 573.1,199.8 575.7,198.1 578.3,196.6 580.9,184.0 583.5,176.6 586.0,176.1 588.6,181.1 591.2,183.7 593.8,183.0 596.4,215.7 599.0,211.9 601.6,219.9 604.2,226.9 606.8,232.8 609.4,224.2 612.0,231.5 614.6,232.3 617.1,229.3 619.7,226.2 622.3,225.7 624.9,240.8 627.5,235.9 630.1,219.3 632.7,209.6 635.3,209.6 637.9,206.9 640.5,209.0 643.1,208.4 645.7,223.3 648.3,211.2 650.8,217.4 653.4,217.9 656.0,224.2 658.6,225.8 661.2,224.0 663.8,231.3 666.4,217.8 669.0,191.4 671.6,198.1 674.2,188.7 676.8,199.3 679.4,198.7 681.9,177.3 684.5,186.5 687.1,183.1 689.7,186.2 692.3,198.3 694.9,201.7 697.5,202.2 700.1,201.4 702.7,197.2 705.3,199.4 707.9,211.4 710.5,213.6 713.1,205.9 715.6,199.6 718.2,210.3 720.8,216.1 723.4,232.5 726.0,231.8 728.6,249.3 731.2,245.3 733.8,247.8 736.4,251.8 739.0,245.1 741.6,253.8 744.2,243.8 746.8,250.3 749.3,248.8 751.9,249.4 754.5,249.9 757.1,257.9 759.7,267.2 762.3,271.8 764.9,262.0 767.5,257.4 770.1,285.4 772.7,287.0 775.3,280.9 777.9,272.1 780.4,279.7 783.0,282.1 785.6,284.6 788.2,277.5 790.8,284.6 793.4,284.1 796.0,278.5"/><polyline fill="none" stroke="#16a34a" stroke-width="3" points="78.0,244.1 80.6,206.6 83.2,196.7 85.8,209.0 88.4,194.3 91.0,208.2 93.6,175.3 96.1,157.4 98.7,159.2 101.3,116.8 103.9,89.9 106.5,76.5 109.1,100.9 111.7,117.6 114.3,107.0 116.9,131.5 119.5,130.8 122.1,122.1 124.7,133.5 127.2,125.0 129.8,111.2 132.4,113.1 135.0,116.1 137.6,114.5 140.2,126.1 142.8,113.2 145.4,120.0 148.0,94.2 150.6,93.0 153.2,100.2 155.8,105.3 158.4,117.8 160.9,114.8 163.5,121.7 166.1,121.8 168.7,127.6 171.3,130.6 173.9,123.6 176.5,129.1 179.1,141.8 181.7,144.7 184.3,154.6 186.9,147.5 189.5,155.6 192.1,149.9 194.6,147.9 197.2,146.1 199.8,155.4 202.4,169.2 205.0,159.1 207.6,166.8 210.2,173.5 212.8,170.7 215.4,177.2 218.0,173.7 220.6,184.6 223.2,180.3 225.7,182.1 228.3,178.2 230.9,177.0 233.5,190.7 236.1,192.7 238.7,193.9 241.3,197.6 243.9,200.3 246.5,193.3 249.1,198.7 251.7,175.1 254.3,184.5 256.9,174.7 259.4,173.9 262.0,178.1 264.6,168.0 267.2,164.2 269.8,170.9 272.4,178.1 275.0,177.5 277.6,185.3 280.2,182.6 282.8,175.2 285.4,176.4 288.0,180.3 290.5,158.7 293.1,162.5 295.7,159.8 298.3,159.6 300.9,157.9 303.5,157.9 306.1,176.0 308.7,171.1 311.3,174.3 313.9,174.3 316.5,180.9 319.1,183.2 321.7,178.3 324.2,179.4 326.8,185.2 329.4,179.4 332.0,166.3 334.6,165.1 337.2,172.5 339.8,177.3 342.4,187.6 345.0,182.6 347.6,193.5 350.2,201.9 352.8,199.6 355.4,217.4 357.9,212.9 360.5,211.5 363.1,219.9 365.7,238.8 368.3,245.6 370.9,246.4 373.5,256.2 376.1,256.2 378.7,269.8 381.3,275.8 383.9,266.5 386.5,263.7 389.0,269.0 391.6,263.9 394.2,250.0 396.8,257.4 399.4,254.6 402.0,238.8 404.6,236.9 407.2,240.0 409.8,242.8 412.4,234.5 415.0,235.3 417.6,235.0 420.2,243.7 422.7,258.3 425.3,244.5 427.9,251.3 430.5,248.0 433.1,239.1 435.7,237.6 438.3,245.0 440.9,245.1 443.5,247.5 446.1,248.9 448.7,250.0 451.3,251.1 453.8,243.7 456.4,241.4 459.0,241.3 461.6,248.8 464.2,246.6 466.8,244.7 469.4,244.7 472.0,243.7 474.6,241.4 477.2,256.2 479.8,252.4 482.4,263.8 485.0,263.9 487.5,266.5 490.1,266.5 492.7,267.4 495.3,269.3 497.9,263.5 500.5,274.4 503.1,282.5 505.7,294.5 508.3,301.3 510.9,304.2 513.5,317.5 516.1,299.0 518.6,291.4 521.2,292.3 523.8,297.0 526.4,300.1 529.0,291.6 531.6,287.8 534.2,284.2 536.8,287.1 539.4,284.5 542.0,288.9 544.6,288.4 547.2,244.2 549.8,237.3 552.3,243.7 554.9,223.1 557.5,217.9 560.1,209.9 562.7,209.3 565.3,214.6 567.9,201.1 570.5,193.2 573.1,199.8 575.7,198.1 578.3,196.6 580.9,184.0 583.5,176.6 586.0,176.1 588.6,181.1 591.2,183.7 593.8,183.0 596.4,215.7 599.0,211.9 601.6,219.9 604.2,226.9 606.8,232.8 609.4,224.2 612.0,231.5 614.6,232.3 617.1,229.3 619.7,226.2 622.3,225.7 624.9,240.8 627.5,235.9 630.1,219.3 632.7,209.6 635.3,209.6 637.9,206.9 640.5,209.0 643.1,208.4 645.7,223.3 648.3,211.2 650.8,217.4 653.4,217.9 656.0,224.2 658.6,225.8 661.2,224.0 663.8,231.3 666.4,217.8 669.0,191.4 671.6,198.1 674.2,188.7 676.8,199.3 679.4,198.7 681.9,177.3 684.5,186.5 687.1,183.1 689.7,186.2 692.3,198.3 694.9,201.7 697.5,202.2 700.1,201.4 702.7,197.2 705.3,199.4 707.9,211.4 710.5,213.6 713.1,205.9 715.6,199.6 718.2,210.3 720.8,216.1 723.4,232.5 726.0,231.8 728.6,249.3 731.2,245.3 733.8,247.8 736.4,251.8 739.0,245.1 741.6,253.8 744.2,243.8 746.8,250.3 749.3,248.8 751.9,249.4 754.5,249.9 757.1,257.9 759.7,267.2 762.3,271.8 764.9,262.0 767.5,257.4 770.1,285.4 772.7,287.0 775.3,280.9 777.9,272.1 780.4,279.7 783.0,282.1 785.6,284.6 788.2,277.5 790.8,284.6 793.4,284.1 796.0,278.5"/>
<text x="78" y="392" font-size="11" fill="#16a34a">Total return -21.1%</text><text x="268" y="392" font-size="11" fill="#2563eb">Price-only -21.1%</text><text x="78" y="362" font-size="11" text-anchor="middle" fill="#64748b">2025-06</text><text x="257" y="362" font-size="11" text-anchor="middle" fill="#64748b">2025-09</text><text x="438" y="362" font-size="11" text-anchor="middle" fill="#64748b">2025-12</text><text x="617" y="362" font-size="11" text-anchor="middle" fill="#64748b">2026-04</text><text x="796" y="362" font-size="11" text-anchor="middle" fill="#64748b">2026-07</text></svg>