<svg xmlns="http://www.w3.org/2000/svg" width="720" height="360" viewBox="0 0 720 360">
  <rect width="720" height="360" fill="#fafafa"/>
  <text x="56" y="22" font-size="13" font-family="sans-serif" fill="#222">LAND total return (rebased 100) · cumulative distributions $0.56/sh · market cap $385.2M</text>
  <line x1="56" y1="308" x2="696" y2="308" stroke="#ccc"/>
  <line x1="56" y1="48" x2="56" y2="308" stroke="#ccc"/>
  <polyline fill="none" stroke="#2563eb" stroke-width="2" points="56.0,234.3 60.0,230.9 64.0,227.5 67.9,219.9 71.9,229.2 75.9,216.6 79.9,224.9 83.8,219.8 87.8,229.5 91.8,222.2 95.8,220.7 99.7,222.2 103.7,243.3 107.7,248.5 111.7,238.1 115.6,253.7 119.6,261.0 123.6,247.0 127.6,253.9 131.5,251.9 135.5,254.6 139.5,260.8 143.5,264.4 147.4,264.7 151.4,266.7 155.4,255.4 159.4,254.3 163.3,253.7 167.3,261.0 171.3,267.5 175.3,269.9 179.2,276.9 183.2,276.5 187.2,276.3 191.2,274.7 195.1,280.6 199.1,290.1 203.1,281.7 207.1,269.6 211.0,267.3 215.0,268.4 219.0,261.9 223.0,258.7 226.9,256.9 230.9,265.6 234.9,266.4 238.9,263.1 242.8,260.5 246.8,254.2 250.8,248.5 254.8,261.6 258.7,261.4 262.7,260.7 266.7,257.2 270.7,254.0 274.6,239.8 278.6,242.1 282.6,245.2 286.6,243.9 290.5,243.6 294.5,249.0 298.5,251.1 302.5,254.1 306.4,250.0 310.4,248.8 314.4,249.5 318.4,255.6 322.3,241.5 326.3,252.0 330.3,250.7 334.3,245.2 338.2,258.7 342.2,254.1 346.2,253.0 350.2,249.6 354.1,249.5 358.1,251.6 362.1,258.3 366.1,258.6 370.0,258.5 374.0,255.5 378.0,255.0 382.0,249.4 385.9,247.2 389.9,245.2 393.9,243.6 397.9,255.8 401.8,243.7 405.8,235.3 409.8,224.8 413.8,223.1 417.7,225.8 421.7,231.3 425.7,240.2 429.7,235.0 433.6,234.3 437.6,225.8 441.6,209.1 445.6,206.0 449.5,185.2 453.5,168.6 457.5,161.5 461.5,167.2 465.4,165.4 469.4,171.4 473.4,176.3 477.4,126.6 481.3,86.5 485.3,111.8 489.3,116.4 493.3,65.9 497.2,66.1 501.2,140.0 505.2,176.1 509.2,137.9 513.1,165.7 517.1,207.5 521.1,190.1 525.1,188.7 529.0,205.6 533.0,196.4 537.0,211.4 541.0,218.7 544.9,222.9 548.9,225.2 552.9,221.7 556.9,218.0 560.8,225.8 564.8,237.4 568.8,241.8 572.8,236.5 576.7,235.7 580.7,238.0 584.7,246.9 588.7,244.3 592.6,249.4 596.6,243.1 600.6,241.6 604.6,232.6 608.5,242.5 612.5,240.0 616.5,246.7 620.5,254.6 624.4,263.6 628.4,263.5 632.4,258.8 636.4,266.1 640.3,270.7 644.3,271.0 648.3,268.8 652.3,276.3 656.2,276.3 660.2,276.6 664.2,277.4 668.2,275.5 672.1,276.7 676.1,261.2 680.1,252.5 684.1,268.6 688.0,273.3 692.0,274.1 696.0,277.6"/>
  <polyline fill="none" stroke="#16a34a" stroke-width="2" points="56.0,234.3 60.0,230.9 64.0,227.5 67.9,219.9 71.9,229.2 75.9,216.6 79.9,224.9 83.8,219.8 87.8,229.5 91.8,222.2 95.8,220.7 99.7,222.2 103.7,243.3 107.7,248.5 111.7,238.1 115.6,253.7 119.6,261.0 123.6,247.0 127.6,253.9 131.5,251.9 135.5,254.6 139.5,260.8 143.5,264.4 147.4,264.7 151.4,266.7 155.4,255.4 159.4,254.3 163.3,253.7 167.3,261.0 171.3,267.5 175.3,269.9 179.2,276.9 183.2,276.5 187.2,276.3 191.2,274.7 195.1,280.6 199.1,290.1 203.1,281.7 207.1,269.6 211.0,267.3 215.0,268.4 219.0,261.9 223.0,258.7 226.9,256.9 230.9,265.6 234.9,266.4 238.9,263.1 242.8,260.5 246.8,254.2 250.8,248.5 254.8,261.6 258.7,261.4 262.7,260.7 266.7,257.2 270.7,254.0 274.6,239.8 278.6,242.1 282.6,245.2 286.6,243.9 290.5,243.6 294.5,249.0 298.5,251.1 302.5,254.1 306.4,250.0 310.4,248.8 314.4,249.5 318.4,255.6 322.3,241.5 326.3,252.0 330.3,250.7 334.3,245.2 338.2,258.7 342.2,254.1 346.2,253.0 350.2,249.6 354.1,249.5 358.1,251.6 362.1,258.3 366.1,258.6 370.0,258.5 374.0,255.5 378.0,255.0 382.0,249.4 385.9,247.2 389.9,245.2 393.9,243.6 397.9,255.8 401.8,243.7 405.8,235.3 409.8,224.8 413.8,223.1 417.7,225.8 421.7,231.3 425.7,240.2 429.7,235.0 433.6,234.3 437.6,225.8 441.6,209.1 445.6,206.0 449.5,185.2 453.5,168.6 457.5,161.5 461.5,167.2 465.4,165.4 469.4,171.4 473.4,176.3 477.4,126.6 481.3,86.5 485.3,111.8 489.3,116.4 493.3,65.9 497.2,66.1 501.2,140.0 505.2,176.1 509.2,137.9 513.1,165.7 517.1,207.5 521.1,190.1 525.1,188.7 529.0,205.6 533.0,196.4 537.0,211.4 541.0,218.7 544.9,222.9 548.9,225.2 552.9,221.7 556.9,218.0 560.8,225.8 564.8,237.4 568.8,241.8 572.8,236.5 576.7,235.7 580.7,238.0 584.7,246.9 588.7,244.3 592.6,249.4 596.6,243.1 600.6,241.6 604.6,232.6 608.5,242.5 612.5,240.0 616.5,246.7 620.5,254.6 624.4,263.6 628.4,263.5 632.4,258.8 636.4,266.1 640.3,270.7 644.3,271.0 648.3,268.8 652.3,276.3 656.2,276.3 660.2,276.6 664.2,277.4 668.2,275.5 672.1,276.7 676.1,261.2 680.1,252.5 684.1,268.6 688.0,273.3 692.0,274.1 696.0,277.6"/>
  <text x="60" y="62" font-size="11" fill="#2563eb">Price index</text>
  <text x="146" y="62" font-size="11" fill="#16a34a">Total return (price + distributions)</text>
  <text x="56" y="348" font-size="11" text-anchor="middle" fill="#444">2013-01</text><text x="215" y="348" font-size="11" text-anchor="middle" fill="#444">2016-05</text><text x="378" y="348" font-size="11" text-anchor="middle" fill="#444">2019-10</text><text x="537" y="348" font-size="11" text-anchor="middle" fill="#444">2023-02</text><text x="696" y="348" font-size="11" text-anchor="middle" fill="#444">2026-06</text>
</svg>
