<svg xmlns="http://www.w3.org/2000/svg" width="820" height="410" viewBox="0 0 820 410">
<rect width="820" height="410" fill="#fafafa"/><text x="78" y="22" font-size="14" font-family="sans-serif" fill="#0f172a">LAND cumulative return since 2013-01-29 | dividends reinvested</text>
<text x="78" y="40" font-size="11" font-family="sans-serif" fill="#334155">Total return +4.5% | Price-only -42.3% | logarithmic scale</text>
<text x="78" y="54" font-size="9" font-family="sans-serif" fill="#64748b">Regular $10.82 | Special $0.00 | Other $0.00 per initial share path</text>
<line x1="78" y1="332.0" x2="796" y2="332.0" stroke="#e2e8f0"/><text x="70" y="336.0" font-size="10" text-anchor="end" fill="#64748b">-59.0%</text><line x1="78" y1="287.0" x2="796" y2="287.0" stroke="#e2e8f0"/><text x="70" y="291.0" font-size="10" text-anchor="end" fill="#64748b">-38.3%</text><line x1="78" y1="242.0" x2="796" y2="242.0" stroke="#e2e8f0"/><text x="70" y="246.0" font-size="10" text-anchor="end" fill="#64748b">-7.0%</text><line x1="78" y1="234.0" x2="796" y2="234.0" stroke="#e2e8f0"/><text x="70" y="238.0" font-size="10" text-anchor="end" fill="#64748b">0%</text><line x1="78" y1="197.0" x2="796" y2="197.0" stroke="#e2e8f0"/><text x="70" y="201.0" font-size="10" text-anchor="end" fill="#64748b">+40.1%</text><line x1="78" y1="152.0" x2="796" y2="152.0" stroke="#e2e8f0"/><text x="70" y="156.0" font-size="10" text-anchor="end" fill="#64748b">+111.0%</text><line x1="78" y1="107.0" x2="796" y2="107.0" stroke="#e2e8f0"/><text x="70" y="111.0" font-size="10" text-anchor="end" fill="#64748b">+217.7%</text><line x1="78" y1="62.0" x2="796" y2="62.0" stroke="#e2e8f0"/><text x="70" y="66.0" font-size="10" text-anchor="end" fill="#64748b">+378.5%</text>
<line x1="78" y1="332" x2="796" y2="332" stroke="#cbd5e1"/>
<polyline fill="none" stroke="#2563eb" stroke-width="2" points="78.0,234.0 78.2,234.8 78.4,236.8 78.6,234.0 78.8,234.0 79.1,234.0 79.3,234.2 79.5,235.9 79.7,233.7 79.9,233.6 80.1,233.5 80.3,233.6 80.5,233.5 80.8,235.6 81.0,233.3 81.2,234.7 81.4,234.8 81.6,233.3 81.8,234.8 82.0,235.1 82.2,235.3 82.5,233.5 82.7,232.2 82.9,234.7 83.1,231.8 83.3,232.6 83.5,231.3 83.7,231.1 83.9,231.3 84.2,231.5 84.4,232.1 84.6,230.8 84.8,232.2 85.0,232.2 85.2,231.8 85.4,231.6 85.6,232.2 85.9,232.0 86.1,231.1 86.3,232.2 86.5,234.0 86.7,230.3 86.9,228.4 87.1,228.0 87.3,228.7 87.5,228.0 87.8,225.7 88.0,226.3 88.2,226.9 88.4,222.7 88.6,222.0 88.8,220.3 89.0,217.3 89.2,216.3 89.5,216.0 89.7,217.2 89.9,221.0 90.1,219.0 90.3,219.4 90.5,221.0 90.7,220.3 90.9,220.5 91.2,225.6 91.4,223.6 91.6,228.0 91.8,226.9 92.0,227.0 92.2,228.7 92.4,227.3 92.6,227.0 92.9,226.9 93.1,225.2 93.3,224.6 93.5,224.2 93.7,222.2 93.9,223.1 94.1,221.6 94.3,221.6 94.5,220.5 94.8,219.1 95.0,220.4 95.2,220.4 95.4,224.5 95.6,227.8 95.8,226.9 96.0,231.9 96.2,228.7 96.5,228.8 96.7,227.6 96.9,227.2 97.1,223.6 97.3,225.0 97.5,226.9 97.7,224.7 97.9,224.0 98.2,222.2 98.4,221.8 98.6,219.7 98.8,221.2 99.0,224.8 99.2,223.6 99.4,223.3 99.6,220.5 99.9,221.8 100.1,223.2 100.3,220.7 100.5,221.6 100.7,223.2 100.9,224.2 101.1,226.2 101.3,224.6 101.6,224.6 101.8,226.2 102.0,226.6 102.2,223.7 102.4,224.0 102.6,224.4 102.8,225.2 103.0,225.6 103.2,226.9 103.5,227.1 103.7,225.7 103.9,224.4 104.1,227.8 104.3,226.2 104.5,227.6 104.7,227.2 104.9,228.0 105.2,228.9 105.4,228.9 105.6,229.5 105.8,228.9 106.0,226.2 106.2,222.9 106.4,225.7 106.6,223.2 106.9,221.9 107.1,220.1 107.3,221.6 107.5,223.6 107.7,222.0 107.9,223.3 108.1,223.3 108.3,222.0 108.6,222.8 108.8,222.8 109.0,222.3 109.2,225.2 109.4,223.4 109.6,223.5 109.8,222.4 110.0,224.2 110.3,222.3 110.5,223.6 110.7,225.6 110.9,223.6 111.1,222.8 111.3,224.0 111.5,225.5 111.7,225.8 111.9,226.9 112.2,226.9 112.4,227.3 112.6,227.8 112.8,227.0 113.0,227.5 113.2,227.3 113.4,227.5 113.6,231.6 113.9,232.1 114.1,227.0 114.3,225.6 114.5,225.4 114.7,226.5 114.9,226.2 115.1,225.9 115.3,226.7 115.6,224.8 115.8,225.5 116.0,224.9 116.2,225.2 116.4,225.5 116.6,224.3 116.8,224.8 117.0,225.0 117.3,225.0 117.5,224.9 117.7,222.6 117.9,223.2 118.1,223.0 118.3,221.2 118.5,221.6 118.7,225.6 118.9,225.7 119.2,225.1 119.4,225.3 119.6,226.9 119.8,226.9 120.0,226.2 120.2,226.5 120.4,227.6 120.6,226.5 120.9,226.2 121.1,225.6 121.3,226.2 121.5,226.0 121.7,225.9 121.9,226.2 122.1,225.8 122.3,225.1 122.6,224.2 122.8,224.3 123.0,224.3 123.2,224.9 123.4,224.7 123.6,224.9 123.8,226.3 124.0,225.6 124.3,223.9 124.5,224.8 124.7,224.8 124.9,225.6 125.1,226.9 125.3,226.3 125.5,225.8 125.7,225.0 126.0,224.4 126.2,220.3 126.4,220.5 126.6,222.1 126.8,222.7 127.0,224.9 127.2,226.2 127.4,225.6 127.6,226.3 127.9,226.5 128.1,226.7 128.3,226.8 128.5,233.9 128.7,236.1 128.9,236.5 129.1,237.7 129.3,237.4 129.6,237.0 129.8,236.3 130.0,235.1 130.2,235.1 130.4,237.4 130.6,238.1 130.8,239.7 131.0,240.8 131.3,241.8 131.5,246.6 131.7,246.3 131.9,245.8 132.1,243.0 132.3,243.9 132.5,246.7 132.7,245.3 133.0,244.0 133.2,243.7 133.4,243.7 133.6,244.4 133.8,244.6 134.0,244.8 134.2,245.0 134.4,245.6 134.7,250.1 134.9,252.8 135.1,259.0 135.3,257.0 135.5,250.1 135.7,251.3 135.9,251.5 136.1,248.5 136.3,250.9 136.6,247.7 136.8,249.7 137.0,247.7 137.2,247.8 137.4,246.8 137.6,249.3 137.8,247.6 138.0,248.0 138.3,248.5 138.5,247.9 138.7,245.9 138.9,242.5 139.1,242.4 139.3,243.6 139.5,241.4 139.7,245.2 140.0,245.0 140.2,245.0 140.4,240.5 140.6,238.9 140.8,237.7 141.0,240.9 141.2,244.6 141.4,247.2 141.7,249.9 141.9,249.3 142.1,249.7 142.3,249.5 142.5,249.8 142.7,249.3 142.9,249.3 143.1,251.0 143.3,252.1 143.6,252.8 143.8,255.7 144.0,256.2 144.2,255.7 144.4,255.9 144.6,256.5 144.8,257.4 145.0,258.3 145.3,254.9 145.5,253.6 145.7,258.0 145.9,259.8 146.1,261.1 146.3,262.8 146.5,262.4 146.7,260.2 147.0,261.3 147.2,262.6 147.4,264.8 147.6,264.5 147.8,266.1 148.0,267.9 148.2,266.0 148.4,261.9 148.7,266.1 148.9,263.0 149.1,264.6 149.3,266.3 149.5,266.5 149.7,266.8 149.9,266.6 150.1,263.6 150.4,266.0 150.6,265.9 150.8,266.0 151.0,265.6 151.2,265.1 151.4,261.6 151.6,259.9 151.8,254.9 152.0,253.4 152.3,253.4 152.5,250.9 152.7,253.0 152.9,250.5 153.1,252.8 153.3,254.1 153.5,252.1 153.7,249.8 154.0,248.2 154.2,247.2 154.4,247.1 154.6,248.1 154.8,249.5 155.0,249.9 155.2,247.4 155.4,249.7 155.7,249.8 155.9,251.5 156.1,253.4 156.3,256.9 156.5,258.5 156.7,259.6 156.9,256.5 157.1,255.2 157.4,256.0 157.6,257.0 157.8,256.5 158.0,255.8 158.2,258.5 158.4,257.6 158.6,256.5 158.8,257.6 159.1,254.0 159.3,253.3 159.5,254.5 159.7,254.6 159.9,253.7 160.1,253.8 160.3,251.5 160.5,253.6 160.7,252.2 161.0,254.8 161.2,254.1 161.4,254.6 161.6,255.2 161.8,256.0 162.0,256.3 162.2,256.2 162.4,255.7 162.7,254.8 162.9,255.3 163.1,253.4 163.3,255.2 163.5,255.1 163.7,255.3 163.9,253.5 164.1,249.3 164.4,249.7 164.6,247.2 164.8,246.7 165.0,248.7 165.2,248.3 165.4,247.2 165.6,246.7 165.8,253.1 166.1,251.9 166.3,251.5 166.5,261.6 166.7,260.5 166.9,259.6 167.1,259.7 167.3,258.5 167.5,259.6 167.8,257.1 168.0,257.6 168.2,259.1 168.4,261.3 168.6,259.3 168.8,261.1 169.0,264.7 169.2,265.1 169.4,262.4 169.7,265.1 169.9,268.8 170.1,268.9 170.3,261.5 170.5,258.5 170.7,258.5 170.9,258.5 171.1,260.2 171.4,258.8 171.6,258.4 171.8,260.1 172.0,258.7 172.2,266.0 172.4,261.4 172.6,264.1 172.8,264.5 173.1,265.2 173.3,268.9 173.5,269.2 173.7,270.0 173.9,269.4 174.1,270.1 174.3,271.2 174.5,271.5 174.8,270.7 175.0,271.7 175.2,272.0 175.4,271.9 175.6,272.5 175.8,271.1 176.0,268.9 176.2,270.7 176.4,272.5 176.7,272.6 176.9,275.3 177.1,275.0 177.3,278.5 177.5,281.1 177.7,283.3 177.9,286.0 178.1,288.7 178.4,289.1 178.6,289.7 178.8,289.4 179.0,286.1 179.2,285.1 179.4,287.5 179.6,278.6 179.8,280.7 180.1,280.6 180.3,270.6 180.5,268.1 180.7,273.1 180.9,271.1 181.1,274.2 181.3,277.5 181.5,276.4 181.8,273.8 182.0,272.3 182.2,273.2 182.4,275.0 182.6,271.7 182.8,269.7 183.0,272.2 183.2,272.1 183.5,272.2 183.7,274.3 183.9,273.5 184.1,272.0 184.3,269.8 184.5,269.2 184.7,270.1 184.9,271.3 185.1,273.7 185.4,272.6 185.6,272.3 185.8,271.3 186.0,272.2 186.2,271.6 186.4,272.2 186.6,272.3 186.8,272.7 187.1,273.2 187.3,271.3 187.5,272.5 187.7,271.9 187.9,272.5 188.1,272.2 188.3,269.5 188.5,269.4 188.8,263.6 189.0,263.4 189.2,259.4 189.4,261.0 189.6,263.1 189.8,266.1 190.0,265.5 190.2,265.9 190.5,265.5 190.7,268.8 190.9,266.7 191.1,266.5 191.3,264.8 191.5,265.1 191.7,264.5 191.9,263.7 192.2,262.7 192.4,260.9 192.6,257.7 192.8,256.7 193.0,259.6 193.2,258.4 193.4,258.7 193.6,258.5 193.8,258.1 194.1,256.8 194.3,257.6 194.5,257.4 194.7,258.0 194.9,257.5 195.1,256.5 195.3,257.1 195.5,257.1 195.8,256.8 196.0,255.9 196.2,256.1 196.4,256.8 196.6,255.8 196.8,255.8 197.0,256.4 197.2,255.8 197.5,256.0 197.7,256.5 197.9,256.7 198.1,256.5 198.3,257.5 198.5,258.0 198.7,257.8 198.9,256.8 199.2,258.7 199.4,260.1 199.6,258.5 199.8,259.6 200.0,260.3 200.2,266.6 200.4,264.5 200.6,265.7 200.8,264.2 201.1,265.1 201.3,268.1 201.5,268.1 201.7,267.5 201.9,268.1 202.1,266.7 202.3,266.7 202.5,266.3 202.8,267.0 203.0,268.1 203.2,266.8 203.4,266.2 203.6,265.3 203.8,266.4 204.0,265.2 204.2,268.0 204.5,268.0 204.7,268.0 204.9,267.2 205.1,268.0 205.3,268.5 205.5,269.1 205.7,269.6 205.9,268.5 206.2,270.1 206.4,270.5 206.6,273.2 206.8,272.4 207.0,275.2 207.2,274.9 207.4,275.0 207.6,273.6 207.9,272.2 208.1,272.6 208.3,273.3 208.5,269.6 208.7,268.2 208.9,268.3 209.1,270.5 209.3,270.9 209.5,270.6 209.8,269.3 210.0,269.4 210.2,269.7 210.4,270.6 210.6,275.0 210.8,278.5 211.0,281.4 211.2,283.9 211.5,282.9 211.7,281.2 211.9,278.2 212.1,278.9 212.3,280.4 212.5,277.9 212.7,279.1 212.9,279.2 213.2,279.3 213.4,279.7 213.6,282.2 213.8,282.5 214.0,282.9 214.2,283.6 214.4,285.4 214.6,286.0 214.9,283.4 215.1,284.2 215.3,290.0 215.5,287.7 215.7,283.6 215.9,286.1 216.1,288.2 216.3,288.6 216.6,289.2 216.8,288.6 217.0,289.7 217.2,289.1 217.4,287.3 217.6,286.3 217.8,288.3 218.0,288.5 218.2,289.8 218.5,289.3 218.7,287.0 218.9,287.6 219.1,284.4 219.3,286.8 219.5,286.4 219.7,286.6 219.9,286.3 220.2,286.7 220.4,289.7 220.6,289.3 220.8,288.0 221.0,286.3 221.2,288.8 221.4,287.4 221.6,288.0 221.9,288.2 222.1,286.8 222.3,286.6 222.5,286.0 222.7,286.1 222.9,286.2 223.1,286.6 223.3,284.3 223.6,284.3 223.8,283.8 224.0,283.9 224.2,283.2 224.4,284.9 224.6,285.4 224.8,286.0 225.0,288.1 225.2,287.7 225.5,287.7 225.7,287.5 225.9,287.0 226.1,285.3 226.3,284.0 226.5,284.8 226.7,288.0 226.9,287.2 227.2,287.3 227.4,286.8 227.6,289.5 227.8,289.3 228.0,289.5 228.2,289.7 228.4,288.6 228.6,288.2 228.9,288.2 229.1,287.6 229.3,287.4 229.5,286.2 229.7,285.3 229.9,286.9 230.1,287.4 230.3,287.1 230.6,287.5 230.8,288.2 231.0,290.2 231.2,288.8 231.4,288.6 231.6,295.7 231.8,296.6 232.0,295.4 232.3,294.8 232.5,297.9 232.7,299.1 232.9,299.7 233.1,298.9 233.3,297.0 233.5,296.9 233.7,295.2 233.9,295.0 234.2,296.2 234.4,294.5 234.6,295.4 234.8,294.4 235.0,295.3 235.2,298.1 235.4,298.8 235.6,300.4 235.9,301.7 236.1,304.6 236.3,305.0 236.5,308.7 236.7,310.6 236.9,315.4 237.1,317.5 237.3,311.1 237.6,310.8 237.8,309.2 238.0,308.0 238.2,309.2 238.4,311.4 238.6,306.6 238.8,306.7 239.0,303.4 239.3,300.9 239.5,300.5 239.7,303.6 239.9,305.5 240.1,307.7 240.3,307.0 240.5,306.0 240.7,305.1 241.0,304.8 241.2,302.4 241.4,298.7 241.6,297.9 241.8,299.8 242.0,296.7 242.2,296.6 242.4,298.1 242.6,296.4 242.9,295.2 243.1,295.0 243.3,294.5 243.5,295.0 243.7,294.0 243.9,293.8 244.1,292.5 244.3,292.4 244.6,291.0 244.8,289.9 245.0,290.0 245.2,287.3 245.4,285.3 245.6,284.6 245.8,282.2 246.0,279.2 246.3,281.2 246.5,280.6 246.7,282.0 246.9,279.8 247.1,280.9 247.3,277.8 247.5,279.3 247.7,280.1 248.0,281.8 248.2,281.5 248.4,278.8 248.6,278.7 248.8,277.7 249.0,278.2 249.2,277.9 249.4,277.5 249.6,278.2 249.9,275.2 250.1,274.9 250.3,276.2 250.5,275.8 250.7,275.3 250.9,275.5 251.1,274.7 251.3,272.5 251.6,273.3 251.8,274.6 252.0,274.5 252.2,276.2 252.4,278.6 252.6,275.4 252.8,272.1 253.0,272.1 253.3,272.7 253.5,272.6 253.7,271.6 253.9,271.3 254.1,269.4 254.3,270.3 254.5,273.6 254.7,277.5 255.0,276.0 255.2,276.0 255.4,276.1 255.6,278.2 255.8,277.4 256.0,277.2 256.2,276.1 256.4,276.3 256.7,276.8 256.9,274.6 257.1,272.8 257.3,273.0 257.5,271.1 257.7,271.6 257.9,269.7 258.1,273.5 258.3,275.2 258.6,275.5 258.8,275.0 259.0,276.2 259.2,274.4 259.4,275.8 259.6,274.4 259.8,273.0 260.0,271.0 260.3,273.3 260.5,271.0 260.7,269.4 260.9,267.5 261.1,265.1 261.3,264.0 261.5,264.7 261.7,265.8 262.0,265.4 262.2,267.1 262.4,267.2 262.6,267.2 262.8,268.0 263.0,267.2 263.2,265.4 263.4,264.5 263.7,265.9 263.9,266.9 264.1,265.9 264.3,265.7 264.5,266.3 264.7,266.8 264.9,266.0 265.1,263.4 265.4,263.6 265.6,264.9 265.8,264.0 266.0,264.6 266.2,264.4 266.4,264.4 266.6,264.0 266.8,265.3 267.0,263.6 267.3,263.5 267.5,265.8 267.7,267.5 267.9,263.5 268.1,265.1 268.3,266.0 268.5,267.3 268.7,265.9 269.0,267.0 269.2,265.3 269.4,266.0 269.6,261.0 269.8,260.6 270.0,261.2 270.2,262.3 270.4,261.0 270.7,259.6 270.9,259.6 271.1,261.0 271.3,265.4 271.5,262.9 271.7,266.0 271.9,266.3 272.1,266.2 272.4,267.0 272.6,265.2 272.8,265.1 273.0,265.6 273.2,265.1 273.4,264.9 273.6,266.8 273.8,268.4 274.0,270.1 274.3,271.9 274.5,272.3 274.7,274.8 274.9,278.6 275.1,279.9 275.3,277.2 275.5,277.3 275.7,274.2 276.0,275.0 276.2,274.4 276.4,274.3 276.6,275.9 276.8,274.7 277.0,271.8 277.2,271.7 277.4,270.4 277.7,268.9 277.9,271.4 278.1,271.5 278.3,273.4 278.5,275.9 278.7,275.0 278.9,273.4 279.1,275.3 279.4,275.3 279.6,275.7 279.8,276.9 280.0,277.2 280.2,281.0 280.4,276.6 280.6,274.8 280.8,274.6 281.1,272.2 281.3,271.7 281.5,268.8 281.7,267.7 281.9,267.9 282.1,268.8 282.3,267.3 282.5,267.4 282.7,266.7 283.0,267.1 283.2,267.7 283.4,269.0 283.6,270.3 283.8,270.9 284.0,270.7 284.2,269.8 284.4,269.5 284.7,269.1 284.9,268.3 285.1,269.1 285.3,270.0 285.5,270.2 285.7,272.9 285.9,269.9 286.1,267.7 286.4,269.4 286.6,269.0 286.8,267.5 287.0,268.7 287.2,268.9 287.4,267.4 287.6,267.1 287.8,265.7 288.1,265.6 288.3,265.2 288.5,267.5 288.7,265.3 288.9,266.5 289.1,266.6 289.3,263.9 289.5,262.7 289.8,259.5 290.0,258.4 290.2,258.3 290.4,258.7 290.6,258.7 290.8,258.7 291.0,259.0 291.2,258.8 291.4,258.3 291.7,259.0 291.9,259.1 292.1,258.0 292.3,256.2 292.5,256.5 292.7,256.5 292.9,256.9 293.1,256.2 293.4,256.5 293.6,253.6 293.8,254.0 294.0,252.8 294.2,252.6 294.4,256.5 294.6,254.1 294.8,256.3 295.1,254.1 295.3,251.9 295.5,252.7 295.7,251.4 295.9,252.7 296.1,251.5 296.3,251.8 296.5,253.4 296.8,256.5 297.0,259.3 297.2,260.9 297.4,268.1 297.6,267.8 297.8,268.1 298.0,268.0 298.2,268.1 298.4,267.6 298.7,266.6 298.9,265.1 299.1,266.1 299.3,267.0 299.5,268.5 299.7,265.5 299.9,266.9 300.1,267.9 300.4,268.9 300.6,267.4 300.8,267.5 301.0,267.1 301.2,266.4 301.4,265.9 301.6,267.5 301.8,266.6 302.1,266.8 302.3,267.0 302.5,266.8 302.7,265.8 302.9,265.4 303.1,265.1 303.3,265.1 303.5,265.2 303.8,266.9 304.0,265.9 304.2,267.8 304.4,266.4 304.6,266.7 304.8,265.5 305.0,266.8 305.2,266.3 305.5,266.6 305.7,267.7 305.9,269.3 306.1,267.2 306.3,268.2 306.5,270.2 306.7,268.7 306.9,267.4 307.1,268.8 307.4,267.3 307.6,267.1 307.8,268.8 308.0,267.4 308.2,266.5 308.4,265.2 308.6,265.5 308.8,265.2 309.1,265.4 309.3,265.9 309.5,265.4 309.7,265.9 309.9,265.4 310.1,265.3 310.3,265.1 310.5,265.4 310.8,265.1 311.0,265.1 311.2,266.6 311.4,264.7 311.6,264.8 311.8,264.8 312.0,264.7 312.2,265.4 312.5,266.2 312.7,265.2 312.9,265.6 313.1,264.4 313.3,264.3 313.5,262.8 313.7,264.1 313.9,265.3 314.2,263.0 314.4,261.6 314.6,260.0 314.8,261.8 315.0,264.4 315.2,262.9 315.4,263.9 315.6,264.0 315.8,263.2 316.1,262.6 316.3,263.0 316.5,261.5 316.7,260.6 316.9,261.1 317.1,261.1 317.3,261.3 317.5,261.0 317.8,261.5 318.0,258.6 318.2,258.5 318.4,258.6 318.6,257.7 318.8,258.1 319.0,258.6 319.2,259.6 319.5,259.5 319.7,251.0 319.9,251.5 320.1,248.4 320.3,247.7 320.5,245.2 320.7,243.1 320.9,244.8 321.2,244.1 321.4,245.8 321.6,244.9 321.8,246.4 322.0,247.0 322.2,246.5 322.4,245.8 322.6,245.6 322.8,244.8 323.1,244.9 323.3,243.1 323.5,242.2 323.7,245.3 323.9,249.2 324.1,249.3 324.3,251.1 324.5,254.9 324.8,251.6 325.0,252.7 325.2,251.9 325.4,251.8 325.6,251.5 325.8,246.9 326.0,245.2 326.2,247.2 326.5,247.7 326.7,246.9 326.9,246.7 327.1,246.3 327.3,245.1 327.5,244.1 327.7,244.6 327.9,244.9 328.2,245.0 328.4,245.0 328.6,244.6 328.8,244.1 329.0,244.7 329.2,244.5 329.4,244.1 329.6,244.0 329.9,243.4 330.1,241.7 330.3,240.9 330.5,240.9 330.7,242.7 330.9,243.9 331.1,243.9 331.3,246.0 331.5,247.7 331.8,247.5 332.0,247.3 332.2,247.0 332.4,247.8 332.6,248.9 332.8,243.6 333.0,244.5 333.2,243.4 333.5,242.2 333.7,244.0 333.9,243.5 334.1,243.9 334.3,243.8 334.5,243.4 334.7,243.4 334.9,243.7 335.2,246.1 335.4,246.6 335.6,245.6 335.8,246.0 336.0,246.3 336.2,244.8 336.4,244.5 336.6,245.9 336.9,246.4 337.1,245.6 337.3,245.8 337.5,246.2 337.7,246.4 337.9,246.4 338.1,245.7 338.3,246.0 338.6,245.0 338.8,247.0 339.0,248.0 339.2,248.8 339.4,249.7 339.6,249.9 339.8,249.2 340.0,248.1 340.2,247.5 340.5,245.4 340.7,246.1 340.9,246.0 341.1,246.2 341.3,244.9 341.5,245.0 341.7,244.9 341.9,245.0 342.2,243.4 342.4,242.4 342.6,243.4 342.8,245.1 343.0,246.5 343.2,246.7 343.4,248.7 343.6,247.9 343.9,249.9 344.1,249.9 344.3,248.8 344.5,246.3 344.7,247.4 344.9,249.2 345.1,250.2 345.3,255.9 345.6,252.1 345.8,255.6 346.0,257.1 346.2,259.6 346.4,258.7 346.6,259.5 346.8,261.0 347.0,257.6 347.2,256.9 347.5,256.8 347.7,256.5 347.9,257.1 348.1,254.0 348.3,255.3 348.5,255.0 348.7,255.9 348.9,251.5 349.2,249.9 349.4,253.3 349.6,254.4 349.8,255.0 350.0,254.3 350.2,254.7 350.4,252.8 350.6,250.6 350.9,248.6 351.1,249.6 351.3,248.8 351.5,248.8 351.7,249.0 351.9,250.1 352.1,250.1 352.3,250.8 352.6,250.9 352.8,249.5 353.0,250.7 353.2,251.6 353.4,252.3 353.6,257.1 353.8,257.8 354.0,257.8 354.3,256.9 354.5,256.2 354.7,255.9 354.9,254.2 355.1,251.6 355.3,250.9 355.5,252.7 355.7,252.6 355.9,254.9 356.2,253.3 356.4,253.9 356.6,251.9 356.8,251.8 357.0,253.8 357.2,254.9 357.4,254.9 357.6,256.4 357.9,256.2 358.1,255.6 358.3,252.6 358.5,253.2 358.7,253.2 358.9,253.7 359.1,254.1 359.3,253.4 359.6,253.4 359.8,252.4 360.0,252.7 360.2,251.6 360.4,251.6 360.6,252.9 360.8,249.0 361.0,252.4 361.3,251.6 361.5,252.1 361.7,251.6 361.9,252.5 362.1,251.7 362.3,252.0 362.5,251.8 362.7,250.3 363.0,250.1 363.2,251.8 363.4,251.8 363.6,251.9 363.8,250.9 364.0,250.9 364.2,251.1 364.4,252.1 364.6,252.5 364.9,251.9 365.1,252.4 365.3,251.9 365.5,252.1 365.7,251.8 365.9,251.7 366.1,251.9 366.3,254.1 366.6,252.1 366.8,252.7 367.0,251.9 367.2,252.5 367.4,252.5 367.6,252.6 367.8,253.8 368.0,252.9 368.3,252.6 368.5,253.2 368.7,254.4 368.9,255.0 369.1,257.1 369.3,257.5 369.5,258.2 369.7,259.6 370.0,260.5 370.2,262.8 370.4,261.5 370.6,263.4 370.8,263.3 371.0,262.2 371.2,261.8 371.4,261.4 371.7,262.4 371.9,261.2 372.1,259.6 372.3,260.3 372.5,259.6 372.7,260.3 372.9,250.6 373.1,250.5 373.3,251.4 373.6,254.9 373.8,253.9 374.0,250.7 374.2,249.4 374.4,250.3 374.6,248.8 374.8,247.9 375.0,248.2 375.3,246.6 375.5,247.8 375.7,247.5 375.9,247.4 376.1,247.2 376.3,246.0 376.5,246.2 376.7,245.2 377.0,244.0 377.2,247.6 377.4,248.4 377.6,248.0 377.8,248.4 378.0,248.9 378.2,249.7 378.4,250.0 378.7,253.2 378.9,253.4 379.1,252.5 379.3,252.3 379.5,254.1 379.7,254.1 379.9,254.5 380.1,255.2 380.3,255.2 380.6,257.0 380.8,255.7 381.0,255.5 381.2,255.7 381.4,256.1 381.6,255.8 381.8,257.2 382.0,258.3 382.3,258.8 382.5,256.5 382.7,257.6 382.9,259.4 383.1,259.1 383.3,258.3 383.5,256.0 383.7,256.3 384.0,257.7 384.2,257.9 384.4,255.2 384.6,255.3 384.8,254.4 385.0,252.2 385.2,254.0 385.4,254.1 385.7,253.1 385.9,254.0 386.1,253.3 386.3,254.8 386.5,253.3 386.7,252.2 386.9,251.3 387.1,249.5 387.4,248.9 387.6,247.4 387.8,247.8 388.0,250.7 388.2,251.5 388.4,250.9 388.6,250.6 388.8,251.4 389.0,251.2 389.3,251.0 389.5,251.5 389.7,251.0 389.9,248.3 390.1,248.6 390.3,247.9 390.5,247.6 390.7,248.3 391.0,247.5 391.2,246.3 391.4,245.6 391.6,247.0 391.8,255.3 392.0,253.6 392.2,253.4 392.4,257.8 392.7,257.4 392.9,257.7 393.1,256.8 393.3,260.0 393.5,262.6 393.7,262.3 393.9,264.8 394.1,263.0 394.4,263.4 394.6,261.3 394.8,261.6 395.0,258.8 395.2,258.1 395.4,256.0 395.6,255.6 395.8,254.3 396.1,253.2 396.3,263.9 396.5,264.9 396.7,263.7 396.9,262.9 397.1,262.3 397.3,261.7 397.5,263.4 397.7,263.7 398.0,263.5 398.2,262.9 398.4,260.1 398.6,257.6 398.8,257.8 399.0,259.6 399.2,258.0 399.4,256.9 399.7,258.3 399.9,258.5 400.1,257.8 400.3,257.3 400.5,257.4 400.7,256.2 400.9,255.5 401.1,254.1 401.4,256.5 401.6,257.6 401.8,257.7 402.0,256.1 402.2,256.1 402.4,257.2 402.6,254.7 402.8,256.5 403.1,257.1 403.3,258.7 403.5,257.7 403.7,259.1 403.9,261.0 404.1,260.1 404.3,258.1 404.5,259.1 404.7,260.4 405.0,258.4 405.2,258.2 405.4,255.4 405.6,255.8 405.8,254.5 406.0,254.2 406.2,257.4 406.4,256.0 406.7,254.9 406.9,254.1 407.1,253.7 407.3,252.7 407.5,252.7 407.7,253.2 407.9,254.0 408.1,255.1 408.4,255.0 408.6,255.0 408.8,257.2 409.0,255.2 409.2,253.9 409.4,253.9 409.6,253.4 409.8,253.4 410.1,253.3 410.3,253.7 410.5,253.7 410.7,252.7 410.9,254.2 411.1,254.9 411.3,254.0 411.5,253.8 411.8,252.6 412.0,253.9 412.2,254.7 412.4,252.7 412.6,253.5 412.8,254.1 413.0,254.0 413.2,254.8 413.4,254.2 413.7,255.5 413.9,252.9 414.1,252.7 414.3,252.5 414.5,252.5 414.7,252.5 414.9,252.5 415.1,252.3 415.4,252.9 415.6,252.4 415.8,254.1 416.0,255.1 416.2,257.0 416.4,254.9 416.6,253.3 416.8,252.9 417.1,254.1 417.3,256.7 417.5,256.4 417.7,256.0 417.9,255.5 418.1,254.6 418.3,255.0 418.5,256.3 418.8,256.6 419.0,259.4 419.2,255.7 419.4,263.0 419.6,262.3 419.8,264.1 420.0,264.2 420.2,264.6 420.5,263.9 420.7,262.9 420.9,263.5 421.1,263.0 421.3,261.4 421.5,262.0 421.7,261.8 421.9,262.4 422.1,261.6 422.4,263.3 422.6,261.7 422.8,261.2 423.0,261.5 423.2,263.6 423.4,262.9 423.6,264.9 423.8,264.1 424.1,263.1 424.3,262.2 424.5,263.7 424.7,263.1 424.9,264.4 425.1,262.7 425.3,263.3 425.5,263.5 425.8,262.6 426.0,263.5 426.2,262.6 426.4,262.8 426.6,261.5 426.8,261.4 427.0,260.9 427.2,261.4 427.5,263.2 427.7,263.0 427.9,261.9 428.1,262.1 428.3,262.8 428.5,261.4 428.7,262.9 428.9,263.3 429.1,262.9 429.4,264.2 429.6,263.4 429.8,263.3 430.0,263.1 430.2,263.0 430.4,262.1 430.6,262.0 430.8,261.2 431.1,258.5 431.3,259.7 431.5,260.0 431.7,258.8 431.9,258.7 432.1,258.5 432.3,258.3 432.5,258.5 432.8,259.0 433.0,258.9 433.2,258.2 433.4,258.8 433.6,258.7 433.8,258.8 434.0,259.6 434.2,259.5 434.5,259.9 434.7,260.6 434.9,260.1 435.1,261.7 435.3,260.4 435.5,258.9 435.7,259.1 435.9,259.6 436.2,259.7 436.4,260.0 436.6,260.0 436.8,260.9 437.0,260.1 437.2,259.6 437.4,259.6 437.6,260.0 437.8,259.3 438.1,259.2 438.3,259.1 438.5,258.9 438.7,260.0 438.9,258.9 439.1,258.9 439.3,258.5 439.5,258.2 439.8,258.0 440.0,258.6 440.2,258.0 440.4,257.6 440.6,257.0 440.8,257.8 441.0,257.4 441.2,257.3 441.5,257.8 441.7,258.9 441.9,256.9 442.1,257.3 442.3,257.5 442.5,257.6 442.7,256.9 442.9,255.2 443.2,253.8 443.4,252.5 443.6,253.4 443.8,252.9 444.0,252.7 444.2,251.7 444.4,249.0 444.6,247.7 444.9,248.7 445.1,250.9 445.3,251.3 445.5,250.9 445.7,250.7 445.9,250.7 446.1,251.4 446.3,252.2 446.5,251.5 446.8,251.5 447.0,250.9 447.2,251.2 447.4,251.1 447.6,250.8 447.8,250.0 448.0,252.1 448.2,250.1 448.5,247.7 448.7,248.2 448.9,249.1 449.1,249.6 449.3,249.2 449.5,248.5 449.7,248.6 449.9,246.7 450.2,246.1 450.4,246.2 450.6,246.3 450.8,247.6 451.0,246.4 451.2,245.5 451.4,244.7 451.6,246.0 451.9,245.7 452.1,245.9 452.3,247.8 452.5,247.2 452.7,247.5 452.9,245.6 453.1,245.4 453.3,245.9 453.5,245.1 453.8,244.5 454.0,243.6 454.2,241.9 454.4,241.6 454.6,242.2 454.8,242.4 455.0,239.0 455.2,238.7 455.5,241.5 455.7,242.9 455.9,240.3 456.1,244.0 456.3,246.2 456.5,242.6 456.7,242.2 456.9,240.1 457.2,240.2 457.4,242.4 457.6,252.1 457.8,248.2 458.0,252.4 458.2,265.4 458.4,265.6 458.6,282.4 458.9,269.0 459.1,279.7 459.3,276.2 459.5,273.1 459.7,272.7 459.9,276.5 460.1,274.1 460.3,266.7 460.6,268.1 460.8,261.3 461.0,259.9 461.2,263.4 461.4,261.0 461.6,262.2 461.8,262.6 462.0,262.0 462.2,256.1 462.5,248.5 462.7,253.1 462.9,261.0 463.1,257.6 463.3,256.1 463.5,252.5 463.7,256.5 463.9,253.2 464.2,252.8 464.4,249.8 464.6,245.4 464.8,244.6 465.0,249.1 465.2,245.7 465.4,246.3 465.6,244.0 465.9,243.9 466.1,243.0 466.3,245.8 466.5,240.7 466.7,238.7 466.9,242.3 467.1,241.9 467.3,248.3 467.6,248.5 467.8,249.7 468.0,241.5 468.2,241.8 468.4,238.7 468.6,241.6 468.8,241.1 469.0,236.3 469.3,235.0 469.5,236.5 469.7,237.7 469.9,233.6 470.1,234.2 470.3,230.6 470.5,232.4 470.7,230.7 470.9,227.7 471.2,229.6 471.4,227.3 471.6,238.1 471.8,231.5 472.0,229.6 472.2,227.1 472.4,230.1 472.6,231.3 472.9,232.4 473.1,231.8 473.3,230.9 473.5,233.1 473.7,231.0 473.9,231.8 474.1,229.3 474.3,227.9 474.6,228.7 474.8,229.4 475.0,229.4 475.2,230.8 475.4,231.3 475.6,233.0 475.8,228.5 476.0,228.7 476.3,227.1 476.5,226.2 476.7,227.8 476.9,226.3 477.1,226.8 477.3,226.7 477.5,226.7 477.7,227.0 477.9,227.7 478.2,227.0 478.4,225.9 478.6,224.5 478.8,224.8 479.0,226.4 479.2,226.6 479.4,225.4 479.6,225.1 479.9,227.3 480.1,223.6 480.3,226.0 480.5,227.3 480.7,227.3 480.9,228.7 481.1,228.3 481.3,227.6 481.6,227.4 481.8,229.1 482.0,228.6 482.2,230.7 482.4,232.2 482.6,231.8 482.8,232.6 483.0,230.8 483.3,229.9 483.5,228.7 483.7,230.5 483.9,230.6 484.1,230.4 484.3,231.8 484.5,231.1 484.7,230.4 485.0,232.3 485.2,234.0 485.4,230.6 485.6,230.1 485.8,229.1 486.0,230.0 486.2,231.4 486.4,233.9 486.6,232.6 486.9,237.7 487.1,236.8 487.3,234.8 487.5,231.8 487.7,233.6 487.9,233.9 488.1,231.8 488.3,230.4 488.6,232.2 488.8,231.2 489.0,233.4 489.2,239.3 489.4,238.4 489.6,238.4 489.8,239.8 490.0,240.4 490.3,239.4 490.5,239.7 490.7,239.6 490.9,237.2 491.1,238.5 491.3,238.8 491.5,238.4 491.7,238.7 492.0,240.4 492.2,243.3 492.4,242.9 492.6,242.6 492.8,241.4 493.0,239.7 493.2,242.3 493.4,240.7 493.7,242.7 493.9,242.5 494.1,239.5 494.3,239.5 494.5,240.7 494.7,239.5 494.9,236.6 495.1,235.9 495.3,235.5 495.6,234.3 495.8,233.8 496.0,235.8 496.2,235.9 496.4,233.9 496.6,234.5 496.8,237.4 497.0,238.5 497.3,238.3 497.5,236.7 497.7,235.0 497.9,236.8 498.1,235.6 498.3,236.8 498.5,236.1 498.7,235.6 499.0,234.5 499.2,233.0 499.4,230.4 499.6,232.9 499.8,235.6 500.0,237.5 500.2,240.1 500.4,239.8 500.7,239.2 500.9,237.8 501.1,238.5 501.3,238.0 501.5,236.7 501.7,239.4 501.9,239.4 502.1,238.8 502.3,237.1 502.6,237.0 502.8,237.7 503.0,235.8 503.2,236.9 503.4,233.4 503.6,230.5 503.8,226.0 504.0,224.9 504.3,224.6 504.5,224.0 504.7,220.7 504.9,223.1 505.1,227.8 505.3,229.8 505.5,228.7 505.7,224.5 506.0,223.9 506.2,223.0 506.4,221.0 506.6,220.5 506.8,217.1 507.0,218.2 507.2,214.8 507.4,214.4 507.7,210.4 507.9,210.7 508.1,208.3 508.3,210.4 508.5,213.0 508.7,213.6 508.9,213.5 509.1,209.3 509.4,211.0 509.6,214.7 509.8,210.9 510.0,210.9 510.2,209.0 510.4,211.2 510.6,212.0 510.8,210.7 511.0,210.9 511.3,209.2 511.5,205.6 511.7,206.3 511.9,207.4 512.1,208.2 512.3,208.3 512.5,211.6 512.7,213.0 513.0,212.4 513.2,214.0 513.4,214.6 513.6,214.2 513.8,212.1 514.0,216.0 514.2,214.8 514.4,212.2 514.7,210.6 514.9,209.9 515.1,210.7 515.3,210.0 515.5,208.0 515.7,208.5 515.9,204.4 516.1,203.7 516.4,202.1 516.6,200.7 516.8,196.5 517.0,196.9 517.2,198.9 517.4,198.2 517.6,197.6 517.8,196.3 518.1,195.4 518.3,196.0 518.5,197.4 518.7,198.6 518.9,197.1 519.1,197.9 519.3,199.2 519.5,199.9 519.7,194.6 520.0,190.5 520.2,188.6 520.4,191.1 520.6,190.9 520.8,187.5 521.0,182.3 521.2,180.0 521.4,179.4 521.7,181.3 521.9,179.7 522.1,180.9 522.3,180.2 522.5,183.4 522.7,186.5 522.9,185.4 523.1,186.4 523.4,183.3 523.6,183.1 523.8,181.1 524.0,182.7 524.2,180.8 524.4,176.6 524.6,176.6 524.8,177.2 525.1,178.6 525.3,179.1 525.5,178.0 525.7,176.7 525.9,178.8 526.1,180.9 526.3,178.8 526.5,178.7 526.8,177.1 527.0,176.7 527.2,177.4 527.4,182.8 527.6,181.9 527.8,182.1 528.0,182.0 528.2,183.4 528.4,184.2 528.7,184.7 528.9,187.0 529.1,185.3 529.3,182.6 529.5,183.8 529.7,183.0 529.9,182.4 530.1,182.6 530.4,184.4 530.6,181.4 530.8,184.3 531.0,184.2 531.2,183.9 531.4,183.4 531.6,184.3 531.8,184.7 532.1,184.6 532.3,185.5 532.5,186.4 532.7,186.8 532.9,188.0 533.1,184.3 533.3,183.4 533.5,183.1 533.8,184.7 534.0,188.0 534.2,184.6 534.4,183.0 534.6,184.3 534.8,184.0 535.0,185.3 535.2,185.1 535.4,185.5 535.7,183.8 535.9,184.7 536.1,185.9 536.3,186.3 536.5,184.7 536.7,184.6 536.9,184.5 537.1,183.5 537.4,184.6 537.6,183.0 537.8,183.0 538.0,183.5 538.2,185.8 538.4,190.3 538.6,188.5 538.8,188.8 539.1,188.2 539.3,186.9 539.5,189.7 539.7,189.8 539.9,192.0 540.1,193.0 540.3,191.1 540.5,191.4 540.8,187.4 541.0,188.0 541.2,186.7 541.4,188.2 541.6,187.8 541.8,186.7 542.0,189.5 542.2,187.3 542.5,187.3 542.7,188.2 542.9,188.2 543.1,184.8 543.3,186.4 543.5,187.4 543.7,186.8 543.9,185.9 544.1,187.6 544.4,186.7 544.6,187.5 544.8,186.6 545.0,186.5 545.2,186.8 545.4,186.6 545.6,186.9 545.8,191.2 546.1,187.1 546.3,187.0 546.5,180.4 546.7,180.8 546.9,175.1 547.1,179.4 547.3,178.2 547.5,175.5 547.8,169.7 548.0,169.7 548.2,167.3 548.4,166.4 548.6,164.5 548.8,164.1 549.0,164.8 549.2,164.7 549.5,164.5 549.7,162.0 549.9,164.9 550.1,162.8 550.3,163.2 550.5,161.3 550.7,156.7 550.9,162.7 551.2,161.4 551.4,158.9 551.6,157.1 551.8,158.6 552.0,155.5 552.2,157.4 552.4,157.9 552.6,154.2 552.8,155.4 553.1,154.9 553.3,155.5 553.5,154.3 553.7,153.3 553.9,152.0 554.1,148.4 554.3,146.5 554.5,144.9 554.8,146.5 555.0,144.9 555.2,145.3 555.4,141.4 555.6,145.5 555.8,148.4 556.0,150.5 556.2,152.6 556.5,151.5 556.7,149.7 556.9,145.6 557.1,147.3 557.3,149.9 557.5,153.1 557.7,157.6 557.9,157.4 558.2,159.1 558.4,154.6 558.6,160.3 558.8,161.2 559.0,159.8 559.2,156.1 559.4,156.5 559.6,153.3 559.8,154.8 560.1,158.3 560.3,158.6 560.5,156.2 560.7,153.9 560.9,154.7 561.1,155.9 561.3,158.0 561.5,157.1 561.8,155.6 562.0,157.7 562.2,159.7 562.4,163.0 562.6,163.1 562.8,160.3 563.0,155.4 563.2,158.3 563.5,158.9 563.7,154.9 563.9,154.1 564.1,150.5 564.3,149.2 564.5,150.9 564.7,151.6 564.9,144.0 565.2,138.3 565.4,138.8 565.6,141.8 565.8,138.6 566.0,134.3 566.2,135.1 566.4,137.0 566.6,136.1 566.9,140.0 567.1,137.9 567.3,137.4 567.5,138.3 567.7,134.9 567.9,133.5 568.1,136.5 568.3,130.9 568.5,134.3 568.8,133.5 569.0,131.5 569.2,134.5 569.4,125.3 569.6,131.2 569.8,130.1 570.0,126.1 570.2,126.9 570.5,124.3 570.7,121.6 570.9,124.2 571.1,127.2 571.3,129.5 571.5,129.1 571.7,131.8 571.9,132.3 572.2,130.6 572.4,136.6 572.6,138.0 572.8,136.1 573.0,134.1 573.2,139.4 573.4,143.5 573.6,152.5 573.9,154.1 574.1,164.1 574.3,171.4 574.5,169.3 574.7,172.4 574.9,174.3 575.1,181.8 575.3,179.9 575.6,186.3 575.8,183.2 576.0,181.1 576.2,179.3 576.4,176.5 576.6,173.4 576.8,170.1 577.0,171.9 577.2,170.3 577.5,174.9 577.7,175.9 577.9,172.5 578.1,175.3 578.3,178.5 578.5,181.1 578.7,190.0 578.9,191.7 579.2,190.8 579.4,194.8 579.6,193.9 579.8,187.4 580.0,187.6 580.2,188.0 580.4,187.4 580.6,186.1 580.9,187.0 581.1,189.4 581.3,191.1 581.5,190.2 581.7,189.0 581.9,188.9 582.1,187.2 582.3,185.0 582.6,185.3 582.8,184.5 583.0,184.7 583.2,187.1 583.4,183.6 583.6,182.5 583.8,180.4 584.0,178.4 584.2,178.3 584.5,180.7 584.7,179.2 584.9,179.4 585.1,177.8 585.3,173.0 585.5,169.0 585.7,170.6 585.9,170.5 586.2,171.6 586.4,174.5 586.6,174.0 586.8,171.8 587.0,173.9 587.2,174.8 587.4,176.9 587.6,173.5 587.9,173.2 588.1,176.1 588.3,179.6 588.5,178.3 588.7,181.6 588.9,182.8 589.1,182.1 589.3,181.7 589.6,178.7 589.8,182.7 590.0,184.6 590.2,187.5 590.4,184.6 590.6,182.9 590.8,187.2 591.0,186.1 591.3,184.7 591.5,186.6 591.7,185.3 591.9,185.7 592.1,190.5 592.3,190.8 592.5,193.4 592.7,197.1 592.9,198.3 593.2,201.5 593.4,202.7 593.6,199.8 593.8,206.2 594.0,213.7 594.2,216.5 594.4,212.0 594.6,216.3 594.9,213.4 595.1,213.1 595.3,209.0 595.5,211.0 595.7,214.5 595.9,213.2 596.1,216.8 596.3,215.0 596.6,213.4 596.8,210.0 597.0,211.2 597.2,208.3 597.4,206.4 597.6,207.0 597.8,208.4 598.0,205.5 598.3,204.7 598.5,201.7 598.7,201.6 598.9,202.2 599.1,199.9 599.3,200.5 599.5,201.9 599.7,203.7 600.0,205.0 600.2,203.0 600.4,203.4 600.6,202.9 600.8,201.0 601.0,192.0 601.2,195.6 601.4,199.4 601.6,197.5 601.9,198.4 602.1,199.2 602.3,198.4 602.5,199.6 602.7,199.8 602.9,199.3 603.1,198.5 603.3,202.7 603.6,201.4 603.8,199.5 604.0,200.3 604.2,198.8 604.4,201.1 604.6,204.2 604.8,205.3 605.0,207.4 605.3,207.5 605.5,207.5 605.7,204.6 605.9,205.4 606.1,208.9 606.3,210.3 606.5,211.3 606.7,210.4 607.0,209.2 607.2,209.2 607.4,209.6 607.6,210.5 607.8,213.7 608.0,212.4 608.2,211.9 608.4,210.9 608.6,207.3 608.9,211.5 609.1,208.7 609.3,208.8 609.5,208.6 609.7,205.8 609.9,204.2 610.1,202.9 610.3,201.9 610.6,203.9 610.8,204.5 611.0,205.0 611.2,205.5 611.4,206.6 611.6,205.3 611.8,205.3 612.0,205.6 612.3,206.9 612.5,205.0 612.7,205.0 612.9,203.5 613.1,205.4 613.3,206.0 613.5,207.2 613.7,206.6 614.0,209.8 614.2,209.6 614.4,209.6 614.6,210.0 614.8,208.7 615.0,209.5 615.2,210.2 615.4,214.2 615.7,212.9 615.9,217.3 616.1,217.9 616.3,217.1 616.5,216.5 616.7,216.6 616.9,215.4 617.1,213.6 617.3,214.3 617.6,218.2 617.8,215.9 618.0,219.6 618.2,224.4 618.4,225.1 618.6,224.0 618.8,222.8 619.0,226.1 619.3,229.4 619.5,228.2 619.7,226.5 619.9,231.2 620.1,233.7 620.3,229.9 620.5,228.5 620.7,227.7 621.0,227.2 621.2,226.3 621.4,222.6 621.6,224.0 621.8,223.1 622.0,223.0 622.2,221.6 622.4,220.2 622.7,220.9 622.9,222.3 623.1,222.1 623.3,223.7 623.5,221.6 623.7,222.4 623.9,222.0 624.1,224.2 624.4,224.1 624.6,224.1 624.8,226.6 625.0,228.4 625.2,227.1 625.4,226.2 625.6,227.1 625.8,231.7 626.0,231.4 626.3,231.0 626.5,227.9 626.7,228.5 626.9,231.6 627.1,232.6 627.3,230.1 627.5,229.9 627.7,231.3 628.0,233.7 628.2,232.4 628.4,231.8 628.6,232.4 628.8,231.2 629.0,229.0 629.2,232.3 629.4,232.9 629.7,231.2 629.9,228.5 630.1,228.2 630.3,227.7 630.5,223.6 630.7,224.0 630.9,220.0 631.1,217.9 631.4,218.1 631.6,219.2 631.8,219.0 632.0,219.8 632.2,219.0 632.4,218.6 632.6,218.7 632.8,223.1 633.0,224.9 633.3,226.2 633.5,227.3 633.7,224.5 633.9,224.0 634.1,226.0 634.3,223.6 634.5,225.1 634.7,223.8 635.0,224.5 635.2,225.4 635.4,225.2 635.6,226.0 635.8,224.3 636.0,223.6 636.2,223.4 636.4,222.8 636.7,220.1 636.9,220.7 637.1,220.0 637.3,219.3 637.5,218.4 637.7,218.9 637.9,218.8 638.1,219.2 638.4,224.4 638.6,224.2 638.8,222.0 639.0,222.2 639.2,223.2 639.4,223.0 639.6,222.7 639.8,221.1 640.1,221.7 640.3,223.4 640.5,225.2 640.7,223.8 640.9,224.7 641.1,227.2 641.3,226.0 641.5,227.5 641.7,230.3 642.0,232.0 642.2,231.3 642.4,227.7 642.6,228.9 642.8,229.0 643.0,227.4 643.2,227.5 643.4,226.9 643.7,228.8 643.9,228.0 644.1,229.4 644.3,230.9 644.5,232.9 644.7,233.3 644.9,233.7 645.1,232.8 645.4,232.5 645.6,230.1 645.8,232.1 646.0,233.7 646.2,234.1 646.4,234.2 646.6,238.9 646.8,238.3 647.1,238.0 647.3,240.7 647.5,242.1 647.7,240.7 647.9,239.8 648.1,242.0 648.3,243.7 648.5,243.0 648.8,242.2 649.0,241.0 649.2,240.0 649.4,240.5 649.6,238.1 649.8,239.1 650.0,240.7 650.2,239.2 650.4,240.0 650.7,241.6 650.9,242.7 651.1,242.6 651.3,242.8 651.5,241.4 651.7,243.8 651.9,244.1 652.1,245.0 652.4,245.0 652.6,244.3 652.8,243.4 653.0,239.0 653.2,234.3 653.4,237.7 653.6,237.6 653.8,243.2 654.1,244.6 654.3,242.9 654.5,240.9 654.7,236.0 654.9,236.6 655.1,237.8 655.3,238.4 655.5,239.0 655.8,238.3 656.0,238.1 656.2,238.0 656.4,238.6 656.6,238.3 656.8,237.7 657.0,238.9 657.2,236.2 657.4,235.2 657.7,237.4 657.9,237.8 658.1,239.0 658.3,240.0 658.5,241.4 658.7,242.6 658.9,238.1 659.1,236.5 659.4,237.4 659.6,241.8 659.8,238.7 660.0,238.5 660.2,237.4 660.4,237.6 660.6,236.7 660.8,235.9 661.1,236.0 661.3,238.1 661.5,238.0 661.7,241.1 661.9,242.0 662.1,243.1 662.3,240.0 662.5,240.7 662.8,241.1 663.0,240.8 663.2,240.6 663.4,239.7 663.6,244.3 663.8,245.4 664.0,244.5 664.2,242.5 664.5,241.8 664.7,243.3 664.9,241.8 665.1,241.0 665.3,239.0 665.5,240.4 665.7,240.4 665.9,239.5 666.1,244.1 666.4,244.8 666.6,245.1 666.8,246.3 667.0,245.5 667.2,245.5 667.4,243.1 667.6,248.4 667.8,247.9 668.1,245.0 668.3,245.7 668.5,245.0 668.7,248.5 668.9,249.7 669.1,249.6 669.3,250.4 669.5,250.9 669.8,251.0 670.0,249.7 670.2,248.7 670.4,248.5 670.6,250.0 670.8,248.4 671.0,248.7 671.2,247.2 671.5,247.2 671.7,248.4 671.9,248.1 672.1,250.3 672.3,249.7 672.5,250.8 672.7,250.5 672.9,248.6 673.2,248.3 673.4,250.7 673.6,249.1 673.8,251.1 674.0,249.2 674.2,246.9 674.4,249.0 674.6,249.1 674.8,248.4 675.1,249.6 675.3,249.7 675.5,250.0 675.7,245.9 675.9,250.9 676.1,250.1 676.3,250.7 676.5,252.9 676.8,254.8 677.0,254.9 677.2,255.0 677.4,252.4 677.6,251.7 677.8,251.9 678.0,252.3 678.2,252.8 678.5,252.5 678.7,252.1 678.9,252.5 679.1,251.8 679.3,249.7 679.5,250.4 679.7,249.9 679.9,249.3 680.2,247.9 680.4,247.1 680.6,246.5 680.8,248.6 681.0,247.0 681.2,246.0 681.4,246.0 681.6,246.2 681.8,247.6 682.1,242.8 682.3,244.3 682.5,247.0 682.7,247.1 682.9,246.8 683.1,249.2 683.3,247.4 683.5,245.6 683.8,246.0 684.0,245.7 684.2,246.6 684.4,245.9 684.6,247.6 684.8,248.1 685.0,246.0 685.2,245.7 685.5,245.2 685.7,246.6 685.9,245.3 686.1,247.2 686.3,248.1 686.5,248.2 686.7,248.0 686.9,248.8 687.2,247.7 687.4,245.4 687.6,244.1 687.8,245.6 688.0,245.6 688.2,245.6 688.4,245.2 688.6,244.0 688.9,244.3 689.1,242.2 689.3,236.7 689.5,237.3 689.7,234.0 689.9,233.5 690.1,232.6 690.3,234.2 690.5,235.6 690.8,234.0 691.0,233.0 691.2,235.6 691.4,235.1 691.6,234.2 691.8,235.2 692.0,234.3 692.2,235.1 692.5,237.6 692.7,238.3 692.9,243.6 693.1,242.0 693.3,243.0 693.5,241.8 693.7,243.3 693.9,244.7 694.2,244.1 694.4,244.8 694.6,244.1 694.8,244.6 695.0,244.1 695.2,243.9 695.4,245.0 695.6,246.6 695.9,244.5 696.1,243.5 696.3,244.6 696.5,246.5 696.7,245.6 696.9,245.0 697.1,245.6 697.3,245.8 697.6,245.8 697.8,246.1 698.0,244.7 698.2,242.2 698.4,242.6 698.6,238.0 698.8,235.4 699.0,237.1 699.2,237.3 699.5,238.3 699.7,238.7 699.9,242.3 700.1,241.5 700.3,240.8 700.5,242.3 700.7,242.9 700.9,242.9 701.2,242.4 701.4,243.3 701.6,242.8 701.8,242.9 702.0,243.2 702.2,244.1 702.4,244.7 702.6,245.1 702.9,245.9 703.1,245.5 703.3,245.7 703.5,245.2 703.7,244.4 703.9,245.3 704.1,245.6 704.3,246.9 704.6,247.5 704.8,246.6 705.0,247.3 705.2,248.1 705.4,247.2 705.6,247.4 705.8,246.9 706.0,249.5 706.2,248.7 706.5,247.6 706.7,244.9 706.9,244.3 707.1,246.6 707.3,250.5 707.5,253.4 707.7,255.5 707.9,256.7 708.2,258.8 708.4,258.6 708.6,259.9 708.8,258.8 709.0,259.9 709.2,260.2 709.4,258.1 709.6,257.8 709.9,259.2 710.1,257.9 710.3,258.5 710.5,259.7 710.7,258.3 710.9,260.0 711.1,260.4 711.3,261.8 711.6,264.2 711.8,262.9 712.0,264.0 712.2,265.6 712.4,266.0 712.6,266.9 712.8,265.6 713.0,268.8 713.3,273.1 713.5,272.8 713.7,273.4 713.9,272.5 714.1,271.5 714.3,271.8 714.5,271.2 714.7,269.6 714.9,270.5 715.2,269.3 715.4,269.2 715.6,272.0 715.8,272.1 716.0,274.3 716.2,274.0 716.4,272.9 716.6,271.8 716.9,269.9 717.1,270.4 717.3,267.5 717.5,273.7 717.7,274.0 717.9,273.0 718.1,269.5 718.3,270.0 718.6,270.3 718.8,269.6 719.0,269.5 719.2,270.7 719.4,268.9 719.6,269.0 719.8,269.6 720.0,270.6 720.3,271.1 720.5,268.4 720.7,262.4 720.9,261.6 721.1,262.1 721.3,261.4 721.5,263.0 721.7,261.6 722.0,267.1 722.2,266.6 722.4,264.0 722.6,264.9 722.8,262.3 723.0,263.6 723.2,264.8 723.4,261.3 723.6,260.0 723.9,261.4 724.1,262.6 724.3,263.3 724.5,266.5 724.7,267.9 724.9,272.5 725.1,269.9 725.3,269.4 725.6,270.0 725.8,271.1 726.0,271.5 726.2,273.7 726.4,273.1 726.6,274.2 726.8,273.7 727.0,274.1 727.3,271.8 727.5,273.0 727.7,274.5 727.9,275.1 728.1,273.1 728.3,278.2 728.5,284.7 728.7,290.8 729.0,286.0 729.2,288.7 729.4,288.0 729.6,285.1 729.8,283.5 730.0,284.4 730.2,283.3 730.4,281.4 730.7,279.9 730.9,280.8 731.1,281.8 731.3,280.7 731.5,279.1 731.7,279.0 731.9,279.3 732.1,280.2 732.3,280.0 732.6,282.6 732.8,285.6 733.0,286.9 733.2,285.8 733.4,282.8 733.6,282.5 733.8,279.6 734.0,283.9 734.3,281.1 734.5,280.8 734.7,281.5 734.9,282.2 735.1,284.7 735.3,284.2 735.5,283.2 735.7,279.5 736.0,281.5 736.2,280.1 736.4,279.8 736.6,280.0 736.8,280.2 737.0,280.8 737.2,282.5 737.4,280.9 737.7,278.5 737.9,275.5 738.1,277.2 738.3,276.2 738.5,277.3 738.7,276.9 738.9,279.0 739.1,277.6 739.3,276.6 739.6,273.6 739.8,274.5 740.0,277.2 740.2,275.3 740.4,275.8 740.6,276.7 740.8,274.9 741.0,271.8 741.3,271.3 741.5,274.5 741.7,274.3 741.9,273.5 742.1,272.5 742.3,271.6 742.5,272.4 742.7,276.2 743.0,275.3 743.2,275.8 743.4,275.2 743.6,275.2 743.8,272.6 744.0,270.1 744.2,270.4 744.4,281.6 744.7,284.2 744.9,283.2 745.1,285.5 745.3,287.7 745.5,288.8 745.7,288.6 745.9,287.4 746.1,288.8 746.4,288.5 746.6,294.0 746.8,294.5 747.0,291.8 747.2,290.4 747.4,292.1 747.6,291.6 747.8,292.1 748.0,290.5 748.3,291.1 748.5,291.3 748.7,288.5 748.9,289.4 749.1,289.1 749.3,288.5 749.5,287.7 749.7,287.7 750.0,290.9 750.2,290.3 750.4,289.8 750.6,290.4 750.8,290.0 751.0,291.4 751.2,291.8 751.4,291.3 751.7,291.9 751.9,291.8 752.1,290.9 752.3,290.2 752.5,285.7 752.7,287.0 752.9,287.9 753.1,286.3 753.4,286.1 753.6,288.5 753.8,288.7 754.0,288.3 754.2,288.2 754.4,286.2 754.6,287.1 754.8,287.4 755.1,288.5 755.3,288.7 755.5,288.3 755.7,288.7 755.9,290.0 756.1,286.9 756.3,287.0 756.5,286.7 756.7,288.1 757.0,289.5 757.2,289.2 757.4,291.1 757.6,289.7 757.8,290.0 758.0,288.2 758.2,287.9 758.4,287.5 758.7,288.8 758.9,290.5 759.1,289.4 759.3,288.2 759.5,288.8 759.7,287.3 759.9,286.2 760.1,285.5 760.4,280.6 760.6,278.7 760.8,279.8 761.0,281.7 761.2,283.1 761.4,285.5 761.6,285.6 761.8,289.8 762.1,290.9 762.3,288.1 762.5,288.9 762.7,287.9 762.9,286.6 763.1,286.4 763.3,287.7 763.5,288.2 763.7,287.5 764.0,287.5 764.2,288.6 764.4,288.7 764.6,288.8 764.8,289.7 765.0,290.0 765.2,290.5 765.4,293.1 765.7,293.5 765.9,292.1 766.1,291.4 766.3,292.7 766.5,292.6 766.7,293.1 766.9,291.8 767.1,292.5 767.4,291.5 767.6,289.1 767.8,288.3 768.0,288.6 768.2,286.6 768.4,284.9 768.6,286.0 768.8,285.5 769.1,285.0 769.3,283.3 769.5,282.3 769.7,281.8 769.9,278.7 770.1,278.2 770.3,280.5 770.5,280.1 770.8,280.6 771.0,282.8 771.2,283.1 771.4,281.0 771.6,281.4 771.8,273.8 772.0,266.6 772.2,270.3 772.4,268.1 772.7,267.4 772.9,266.9 773.1,268.0 773.3,268.8 773.5,268.6 773.7,266.6 773.9,269.8 774.1,266.2 774.4,264.0 774.6,267.7 774.8,268.2 775.0,269.0 775.2,265.1 775.4,263.1 775.6,254.1 775.8,254.8 776.1,256.0 776.3,257.1 776.5,258.4 776.7,258.3 776.9,260.3 777.1,261.0 777.3,260.4 777.5,258.5 777.8,259.0 778.0,260.0 778.2,264.6 778.4,261.7 778.6,260.4 778.8,263.8 779.0,268.2 779.2,272.9 779.5,272.6 779.7,274.3 779.9,275.0 780.1,276.5 780.3,280.0 780.5,277.1 780.7,276.4 780.9,275.8 781.1,274.9 781.4,273.4 781.6,274.6 781.8,275.5 782.0,275.1 782.2,274.4 782.4,274.1 782.6,271.7 782.8,274.4 783.1,275.1 783.3,275.3 783.5,275.8 783.7,278.5 783.9,277.5 784.1,278.2 784.3,279.3 784.5,279.6 784.8,277.9 785.0,282.0 785.2,283.2 785.4,281.0 785.6,283.2 785.8,282.7 786.0,280.9 786.2,281.4 786.5,281.6 786.7,284.9 786.9,284.8 787.1,283.9 787.3,284.9 787.5,285.4 787.7,282.4 787.9,284.9 788.1,284.9 788.4,283.9 788.6,282.7 788.8,284.4 789.0,284.0 789.2,283.2 789.4,284.4 789.6,287.9 789.8,286.3 790.1,287.9 790.3,286.2 790.5,286.9 790.7,288.7 790.9,287.3 791.1,288.8 791.3,290.2 791.5,290.6 791.8,292.0 792.0,292.9 792.2,295.5 792.4,294.4 792.6,295.3 792.8,293.3 793.0,295.2 793.2,296.4 793.5,295.0 793.7,295.0 793.9,296.0 794.1,294.8 794.3,294.5 794.5,295.8 794.7,295.7 794.9,296.6 795.2,295.7 795.4,295.7 795.6,295.2 795.8,294.4 796.0,294.4"/><polyline fill="none" stroke="#16a34a" stroke-width="3" points="78.0,234.0 78.2,234.8 78.4,236.8 78.6,234.0 78.8,234.0 79.1,234.0 79.3,234.2 79.5,235.9 79.7,233.7 79.9,233.6 80.1,233.5 80.3,233.3 80.5,233.2 80.8,235.3 81.0,233.0 81.2,234.4 81.4,234.5 81.6,233.0 81.8,234.5 82.0,234.8 82.2,235.0 82.5,233.2 82.7,231.9 82.9,234.4 83.1,231.6 83.3,232.3 83.5,231.1 83.7,230.8 83.9,231.1 84.2,231.2 84.4,231.5 84.6,230.3 84.8,231.6 85.0,231.6 85.2,231.2 85.4,231.0 85.6,231.6 85.9,231.4 86.1,230.5 86.3,231.6 86.5,233.4 86.7,229.7 86.9,227.8 87.1,227.4 87.3,228.1 87.5,227.4 87.8,225.1 88.0,225.7 88.2,226.4 88.4,222.1 88.6,221.5 88.8,219.7 89.0,216.7 89.2,215.7 89.5,215.4 89.7,215.9 89.9,219.7 90.1,217.7 90.3,218.1 90.5,219.7 90.7,219.0 90.9,219.2 91.2,224.2 91.4,222.2 91.6,226.6 91.8,225.6 92.0,225.7 92.2,227.3 92.4,225.9 92.6,225.7 92.9,225.6 93.1,223.9 93.3,223.3 93.5,222.8 93.7,220.9 93.9,221.0 94.1,219.5 94.3,219.4 94.5,218.3 94.8,217.0 95.0,218.3 95.2,218.3 95.4,222.4 95.6,225.6 95.8,224.8 96.0,229.8 96.2,226.5 96.5,226.7 96.7,225.5 96.9,225.1 97.1,221.4 97.3,222.9 97.5,224.8 97.7,222.6 97.9,221.9 98.2,220.1 98.4,218.9 98.6,216.8 98.8,218.3 99.0,221.9 99.2,220.7 99.4,220.4 99.6,217.6 99.9,218.9 100.1,220.2 100.3,217.8 100.5,218.7 100.7,220.3 100.9,221.2 101.1,223.3 101.3,221.7 101.6,221.6 101.8,223.3 102.0,223.7 102.2,220.8 102.4,221.1 102.6,221.4 102.8,221.5 103.0,221.9 103.2,223.2 103.5,223.4 103.7,222.0 103.9,220.6 104.1,224.1 104.3,222.5 104.5,223.9 104.7,223.5 104.9,224.3 105.2,225.2 105.4,225.2 105.6,225.8 105.8,225.2 106.0,222.5 106.2,219.2 106.4,222.0 106.6,219.5 106.9,218.2 107.1,216.4 107.3,217.9 107.5,219.8 107.7,217.5 107.9,218.8 108.1,218.8 108.3,217.5 108.6,218.3 108.8,218.3 109.0,217.8 109.2,220.7 109.4,218.9 109.6,219.0 109.8,217.9 110.0,219.7 110.3,217.8 110.5,219.1 110.7,221.1 110.9,219.1 111.1,218.3 111.3,219.5 111.5,221.0 111.7,220.5 111.9,221.6 112.2,221.6 112.4,222.0 112.6,222.4 112.8,221.7 113.0,222.2 113.2,222.0 113.4,222.2 113.6,226.2 113.9,226.8 114.1,221.7 114.3,220.3 114.5,220.1 114.7,221.2 114.9,220.9 115.1,220.6 115.3,221.4 115.6,219.5 115.8,220.2 116.0,219.6 116.2,219.8 116.4,220.2 116.6,219.0 116.8,218.7 117.0,218.8 117.3,218.8 117.5,218.8 117.7,216.4 117.9,217.0 118.1,216.9 118.3,215.1 118.5,215.5 118.7,219.4 118.9,219.6 119.2,219.0 119.4,219.2 119.6,220.8 119.8,220.8 120.0,220.1 120.2,220.3 120.4,220.6 120.6,219.6 120.9,219.3 121.1,218.6 121.3,219.3 121.5,219.1 121.7,219.0 121.9,219.3 122.1,218.8 122.3,218.1 122.6,217.2 122.8,217.3 123.0,217.3 123.2,217.9 123.4,217.7 123.6,217.9 123.8,219.4 124.0,218.7 124.3,216.9 124.5,217.9 124.7,217.8 124.9,215.6 125.1,217.0 125.3,216.4 125.5,215.8 125.7,215.1 126.0,214.5 126.2,210.3 126.4,210.6 126.6,212.1 126.8,212.7 127.0,214.9 127.2,216.2 127.4,215.6 127.6,216.4 127.9,216.6 128.1,216.8 128.3,216.8 128.5,223.9 128.7,226.1 128.9,226.6 129.1,227.8 129.3,227.4 129.6,227.0 129.8,226.4 130.0,225.0 130.2,224.9 130.4,227.3 130.6,228.0 130.8,229.5 131.0,230.6 131.3,231.7 131.5,236.4 131.7,236.2 131.9,235.7 132.1,232.8 132.3,233.7 132.5,236.6 132.7,235.1 133.0,233.8 133.2,233.5 133.4,233.5 133.6,234.2 133.8,234.5 134.0,234.4 134.2,234.5 134.4,235.2 134.7,239.7 134.9,242.4 135.1,248.6 135.3,246.6 135.5,239.7 135.7,240.9 135.9,241.0 136.1,238.1 136.3,240.4 136.6,237.3 136.8,239.3 137.0,237.2 137.2,237.4 137.4,236.4 137.6,238.9 137.8,236.9 138.0,237.3 138.3,237.8 138.5,237.2 138.7,235.3 138.9,231.8 139.1,231.7 139.3,232.9 139.5,230.8 139.7,234.5 140.0,234.3 140.2,234.3 140.4,229.8 140.6,228.2 140.8,227.1 141.0,230.2 141.2,234.0 141.4,236.5 141.7,239.2 141.9,238.7 142.1,239.1 142.3,238.8 142.5,239.2 142.7,238.7 142.9,238.4 143.1,240.1 143.3,241.1 143.6,241.9 143.8,244.7 144.0,245.3 144.2,244.7 144.4,245.0 144.6,245.6 144.8,246.4 145.0,247.3 145.3,243.9 145.5,242.7 145.7,247.1 145.9,248.9 146.1,250.2 146.3,251.9 146.5,251.4 146.7,249.3 147.0,250.4 147.2,251.6 147.4,253.5 147.6,253.3 147.8,254.9 148.0,256.7 148.2,254.8 148.4,250.7 148.7,254.9 148.9,251.8 149.1,253.4 149.3,255.1 149.5,255.3 149.7,255.6 149.9,255.4 150.1,252.4 150.4,254.8 150.6,254.7 150.8,254.8 151.0,254.4 151.2,253.9 151.4,250.4 151.6,248.7 151.8,243.4 152.0,242.0 152.3,242.0 152.5,239.4 152.7,241.5 152.9,239.0 153.1,241.4 153.3,242.7 153.5,240.7 153.7,238.4 154.0,236.7 154.2,235.8 154.4,235.6 154.6,236.6 154.8,238.0 155.0,238.4 155.2,235.9 155.4,238.3 155.7,238.4 155.9,240.1 156.1,241.9 156.3,245.4 156.5,247.1 156.7,248.2 156.9,245.0 157.1,243.5 157.4,244.3 157.6,245.3 157.8,244.7 158.0,244.1 158.2,246.8 158.4,245.9 158.6,244.8 158.8,245.9 159.1,242.2 159.3,241.5 159.5,242.8 159.7,242.8 159.9,242.0 160.1,242.1 160.3,239.8 160.5,241.9 160.7,240.5 161.0,242.8 161.2,242.1 161.4,242.6 161.6,243.2 161.8,244.0 162.0,244.3 162.2,244.2 162.4,243.6 162.7,242.8 162.9,243.3 163.1,241.4 163.3,243.2 163.5,243.1 163.7,243.3 163.9,241.5 164.1,237.3 164.4,237.7 164.6,235.2 164.8,234.7 165.0,236.6 165.2,236.3 165.4,234.9 165.6,234.5 165.8,240.8 166.1,239.6 166.3,239.3 166.5,249.4 166.7,248.2 166.9,247.3 167.1,247.5 167.3,246.2 167.5,247.3 167.8,244.8 168.0,245.4 168.2,246.8 168.4,249.1 168.6,247.0 168.8,248.9 169.0,252.4 169.2,252.8 169.4,250.1 169.7,252.8 169.9,256.6 170.1,256.7 170.3,249.0 170.5,246.0 170.7,246.0 170.9,245.9 171.1,247.7 171.4,246.3 171.6,245.8 171.8,247.6 172.0,246.2 172.2,253.5 172.4,248.9 172.6,251.5 172.8,251.9 173.1,252.7 173.3,256.4 173.5,256.7 173.7,257.5 173.9,256.9 174.1,257.3 174.3,258.4 174.5,258.6 174.8,257.9 175.0,258.8 175.2,259.1 175.4,259.0 175.6,259.6 175.8,258.3 176.0,256.1 176.2,257.9 176.4,259.6 176.7,259.7 176.9,262.5 177.1,262.2 177.3,265.6 177.5,268.3 177.7,270.5 177.9,273.1 178.1,275.9 178.4,276.2 178.6,276.8 178.8,276.6 179.0,272.9 179.2,272.0 179.4,274.3 179.6,265.4 179.8,267.5 180.1,267.4 180.3,257.4 180.5,254.9 180.7,259.9 180.9,257.9 181.1,261.0 181.3,264.3 181.5,263.2 181.8,260.7 182.0,259.1 182.2,260.0 182.4,261.8 182.6,258.5 182.8,256.5 183.0,259.0 183.2,258.9 183.5,259.0 183.7,260.7 183.9,260.0 184.1,258.4 184.3,256.3 184.5,255.6 184.7,256.6 184.9,257.8 185.1,260.2 185.4,259.0 185.6,258.7 185.8,257.8 186.0,258.6 186.2,258.0 186.4,258.6 186.6,258.7 186.8,259.1 187.1,259.7 187.3,257.4 187.5,258.6 187.7,257.9 187.9,258.6 188.1,258.3 188.3,255.6 188.5,255.5 188.8,249.7 189.0,249.5 189.2,245.4 189.4,247.0 189.6,249.2 189.8,252.2 190.0,251.6 190.2,252.0 190.5,251.6 190.7,254.9 190.9,252.8 191.1,252.6 191.3,250.8 191.5,251.1 191.7,250.5 191.9,249.4 192.2,248.5 192.4,246.6 192.6,243.5 192.8,242.5 193.0,245.3 193.2,244.1 193.4,244.5 193.6,244.2 193.8,243.8 194.1,242.6 194.3,243.4 194.5,243.1 194.7,243.7 194.9,243.3 195.1,242.2 195.3,242.8 195.5,242.8 195.8,242.6 196.0,241.7 196.2,241.8 196.4,242.5 196.6,241.6 196.8,241.6 197.0,241.8 197.2,241.2 197.5,241.4 197.7,241.9 197.9,242.1 198.1,241.8 198.3,242.8 198.5,243.4 198.7,243.2 198.9,242.2 199.2,244.1 199.4,245.5 199.6,243.9 199.8,244.9 200.0,245.7 200.2,252.0 200.4,249.9 200.6,250.7 200.8,249.2 201.1,250.1 201.3,253.1 201.5,253.1 201.7,252.5 201.9,253.1 202.1,251.7 202.3,251.7 202.5,251.3 202.8,252.0 203.0,253.1 203.2,251.8 203.4,251.2 203.6,250.3 203.8,251.4 204.0,250.2 204.2,253.0 204.5,253.0 204.7,253.0 204.9,252.2 205.1,253.0 205.3,253.1 205.5,253.7 205.7,254.2 205.9,253.1 206.2,254.7 206.4,255.1 206.6,257.8 206.8,257.0 207.0,259.8 207.2,259.5 207.4,259.6 207.6,258.2 207.9,256.8 208.1,257.2 208.3,257.9 208.5,254.2 208.7,252.8 208.9,252.9 209.1,255.1 209.3,255.5 209.5,255.2 209.8,253.9 210.0,254.0 210.2,254.3 210.4,254.8 210.6,259.2 210.8,262.7 211.0,265.5 211.2,268.1 211.5,267.1 211.7,265.4 211.9,262.4 212.1,263.1 212.3,264.5 212.5,262.1 212.7,263.3 212.9,263.4 213.2,263.5 213.4,263.9 213.6,266.3 213.8,266.7 214.0,267.1 214.2,267.8 214.4,269.2 214.6,269.7 214.9,267.1 215.1,267.9 215.3,273.8 215.5,271.5 215.7,267.3 215.9,269.8 216.1,271.9 216.3,272.3 216.6,272.9 216.8,272.3 217.0,273.4 217.2,272.8 217.4,271.0 217.6,270.0 217.8,272.1 218.0,272.2 218.2,273.5 218.5,273.0 218.7,270.7 218.9,270.9 219.1,267.7 219.3,270.0 219.5,269.7 219.7,269.8 219.9,269.6 220.2,269.9 220.4,272.9 220.6,272.5 220.8,271.2 221.0,269.6 221.2,272.1 221.4,270.6 221.6,271.2 221.9,271.5 222.1,270.0 222.3,269.8 222.5,269.2 222.7,269.3 222.9,269.4 223.1,269.8 223.3,267.6 223.6,267.6 223.8,267.1 224.0,267.2 224.2,266.0 224.4,267.7 224.6,268.2 224.8,268.7 225.0,270.9 225.2,270.5 225.5,270.5 225.7,270.3 225.9,269.8 226.1,268.0 226.3,266.8 226.5,267.6 226.7,270.8 226.9,270.0 227.2,270.0 227.4,269.6 227.6,271.8 227.8,271.6 228.0,271.8 228.2,272.0 228.4,270.9 228.6,270.5 228.9,270.5 229.1,269.9 229.3,269.7 229.5,268.5 229.7,267.6 229.9,269.2 230.1,269.7 230.3,269.4 230.6,269.8 230.8,270.5 231.0,272.5 231.2,271.1 231.4,270.9 231.6,278.0 231.8,278.9 232.0,277.7 232.3,276.6 232.5,279.7 232.7,280.8 232.9,281.5 233.1,280.7 233.3,278.7 233.5,278.7 233.7,276.9 233.9,276.8 234.2,278.0 234.4,276.3 234.6,277.2 234.8,276.2 235.0,277.1 235.2,279.9 235.4,280.6 235.6,282.2 235.9,283.5 236.1,286.4 236.3,286.8 236.5,290.5 236.7,292.4 236.9,296.6 237.1,298.7 237.3,292.3 237.6,292.0 237.8,290.3 238.0,289.2 238.2,290.3 238.4,292.5 238.6,287.8 238.8,287.9 239.0,284.6 239.3,282.1 239.5,281.7 239.7,284.8 239.9,286.6 240.1,288.9 240.3,288.2 240.5,287.2 240.7,285.7 241.0,285.4 241.2,283.0 241.4,279.3 241.6,278.5 241.8,280.5 242.0,277.3 242.2,277.2 242.4,278.8 242.6,277.1 242.9,275.8 243.1,275.6 243.3,275.1 243.5,275.6 243.7,274.6 243.9,274.4 244.1,273.1 244.3,273.0 244.6,271.6 244.8,270.5 245.0,270.7 245.2,267.9 245.4,265.4 245.6,264.7 245.8,262.3 246.0,259.4 246.3,261.4 246.5,260.7 246.7,262.2 246.9,259.9 247.1,261.1 247.3,258.0 247.5,259.5 247.7,260.3 248.0,262.0 248.2,261.6 248.4,259.0 248.6,258.8 248.8,257.9 249.0,258.4 249.2,258.1 249.4,257.6 249.6,258.4 249.9,255.4 250.1,255.1 250.3,255.9 250.5,255.5 250.7,255.0 250.9,255.3 251.1,254.4 251.3,252.2 251.6,253.0 251.8,254.3 252.0,254.2 252.2,255.9 252.4,258.3 252.6,255.2 252.8,251.8 253.0,251.8 253.3,252.4 253.5,252.3 253.7,251.3 253.9,251.1 254.1,249.1 254.3,249.6 254.5,252.9 254.7,256.8 255.0,255.3 255.2,255.3 255.4,255.4 255.6,257.5 255.8,256.7 256.0,256.5 256.2,255.4 256.4,255.6 256.7,256.1 256.9,253.9 257.1,252.1 257.3,252.3 257.5,250.4 257.7,250.9 257.9,249.0 258.1,252.8 258.3,254.5 258.6,254.4 258.8,253.9 259.0,255.0 259.2,253.2 259.4,254.6 259.6,253.2 259.8,251.9 260.0,249.9 260.3,252.2 260.5,249.9 260.7,248.3 260.9,246.4 261.1,244.0 261.3,242.8 261.5,243.5 261.7,244.7 262.0,244.3 262.2,246.0 262.4,246.1 262.6,246.1 262.8,246.9 263.0,246.1 263.2,244.3 263.4,243.3 263.7,244.4 263.9,245.4 264.1,244.4 264.3,244.2 264.5,244.8 264.7,245.3 264.9,244.5 265.1,241.9 265.4,242.1 265.6,243.3 265.8,242.4 266.0,243.0 266.2,242.8 266.4,242.8 266.6,242.4 266.8,243.8 267.0,242.1 267.3,242.0 267.5,244.3 267.7,246.0 267.9,242.0 268.1,243.1 268.3,244.1 268.5,245.4 268.7,244.0 269.0,245.1 269.2,243.4 269.4,244.1 269.6,239.0 269.8,238.6 270.0,239.3 270.2,240.3 270.4,239.1 270.7,237.7 270.9,237.6 271.1,239.1 271.3,243.5 271.5,241.0 271.7,244.1 271.9,244.4 272.1,244.3 272.4,245.1 272.6,242.9 272.8,242.8 273.0,243.3 273.2,242.8 273.4,242.5 273.6,244.5 273.8,246.1 274.0,247.8 274.3,249.5 274.5,249.9 274.7,252.5 274.9,256.2 275.1,257.6 275.3,254.8 275.5,254.9 275.7,251.8 276.0,252.7 276.2,252.0 276.4,251.9 276.6,253.5 276.8,252.4 277.0,249.4 277.2,248.9 277.4,247.6 277.7,246.1 277.9,248.6 278.1,248.7 278.3,250.6 278.5,253.1 278.7,252.2 278.9,250.6 279.1,252.6 279.4,252.6 279.6,252.9 279.8,254.2 280.0,254.4 280.2,258.2 280.4,253.8 280.6,252.0 280.8,251.8 281.1,249.4 281.3,248.4 281.5,245.6 281.7,244.5 281.9,244.7 282.1,245.6 282.3,244.1 282.5,244.2 282.7,243.5 283.0,243.9 283.2,244.5 283.4,245.8 283.6,247.1 283.8,247.7 284.0,247.5 284.2,246.6 284.4,246.3 284.7,245.9 284.9,245.1 285.1,245.9 285.3,246.8 285.5,247.0 285.7,249.7 285.9,246.3 286.1,244.0 286.4,245.8 286.6,245.3 286.8,243.8 287.0,245.0 287.2,245.2 287.4,243.7 287.6,243.5 287.8,242.1 288.1,242.0 288.3,241.6 288.5,243.8 288.7,241.7 288.9,242.9 289.1,243.0 289.3,240.2 289.5,239.1 289.8,235.8 290.0,234.7 290.2,234.2 290.4,234.7 290.6,234.7 290.8,234.7 291.0,235.0 291.2,234.8 291.4,234.2 291.7,235.0 291.9,235.0 292.1,233.9 292.3,232.1 292.5,232.4 292.7,232.5 292.9,232.9 293.1,232.2 293.4,232.4 293.6,229.6 293.8,229.9 294.0,228.8 294.2,228.2 294.4,232.1 294.6,229.7 294.8,231.9 295.1,229.7 295.3,227.5 295.5,228.2 295.7,226.9 295.9,228.3 296.1,227.0 296.3,227.4 296.5,228.9 296.8,232.0 297.0,234.9 297.2,236.4 297.4,243.7 297.6,243.4 297.8,243.7 298.0,243.6 298.2,243.7 298.4,243.2 298.7,242.2 298.9,240.6 299.1,241.3 299.3,242.2 299.5,243.7 299.7,240.7 299.9,242.1 300.1,243.1 300.4,244.1 300.6,242.6 300.8,242.7 301.0,242.3 301.2,241.6 301.4,241.1 301.6,242.7 301.8,241.8 302.1,242.0 302.3,242.2 302.5,242.0 302.7,241.0 302.9,240.6 303.1,240.3 303.3,240.3 303.5,240.0 303.8,241.6 304.0,240.7 304.2,242.5 304.4,241.1 304.6,241.4 304.8,240.3 305.0,241.5 305.2,241.1 305.5,241.3 305.7,242.4 305.9,244.0 306.1,241.9 306.3,242.9 306.5,245.0 306.7,243.4 306.9,242.1 307.1,243.5 307.4,242.0 307.6,241.8 307.8,243.1 308.0,241.7 308.2,240.8 308.4,239.5 308.6,239.8 308.8,239.5 309.1,239.7 309.3,240.2 309.5,239.7 309.7,240.2 309.9,239.7 310.1,239.6 310.3,239.3 310.5,239.7 310.8,239.4 311.0,239.3 311.2,240.9 311.4,239.0 311.6,239.0 311.8,239.0 312.0,239.0 312.2,239.7 312.5,240.1 312.7,239.1 312.9,239.5 313.1,238.2 313.3,238.1 313.5,236.6 313.7,237.9 313.9,239.2 314.2,236.9 314.4,235.5 314.6,233.9 314.8,235.7 315.0,238.2 315.2,236.8 315.4,237.7 315.6,237.8 315.8,237.1 316.1,236.4 316.3,236.9 316.5,235.4 316.7,234.4 316.9,234.6 317.1,234.6 317.3,234.8 317.5,234.5 317.8,235.0 318.0,232.1 318.2,231.9 318.4,232.1 318.6,231.2 318.8,231.5 319.0,232.1 319.2,233.1 319.5,232.9 319.7,224.5 319.9,224.9 320.1,221.8 320.3,221.1 320.5,218.6 320.7,216.6 320.9,218.2 321.2,217.6 321.4,218.9 321.6,218.0 321.8,219.5 322.0,220.1 322.2,219.6 322.4,218.9 322.6,218.7 322.8,217.9 323.1,218.0 323.3,216.2 323.5,215.3 323.7,218.4 323.9,222.2 324.1,222.4 324.3,224.2 324.5,228.0 324.8,224.7 325.0,225.8 325.2,225.0 325.4,224.9 325.6,224.6 325.8,220.0 326.0,217.9 326.2,220.0 326.5,220.5 326.7,219.6 326.9,219.5 327.1,219.0 327.3,217.8 327.5,216.8 327.7,217.4 327.9,217.6 328.2,217.8 328.4,217.8 328.6,217.4 328.8,216.8 329.0,217.4 329.2,217.3 329.4,216.9 329.6,216.7 329.9,216.2 330.1,214.4 330.3,213.6 330.5,213.6 330.7,215.1 330.9,216.3 331.1,216.3 331.3,218.4 331.5,220.1 331.8,219.9 332.0,219.7 332.2,219.4 332.4,220.2 332.6,221.3 332.8,216.0 333.0,216.8 333.2,215.8 333.5,214.6 333.7,216.4 333.9,215.9 334.1,216.3 334.3,216.2 334.5,215.8 334.7,215.8 334.9,216.1 335.2,218.1 335.4,218.6 335.6,217.6 335.8,218.0 336.0,218.4 336.2,216.8 336.4,216.5 336.6,218.0 336.9,218.4 337.1,217.6 337.3,217.9 337.5,218.2 337.7,218.4 337.9,218.4 338.1,217.7 338.3,218.0 338.6,217.0 338.8,219.0 339.0,220.0 339.2,220.8 339.4,221.3 339.6,221.6 339.8,220.8 340.0,219.7 340.2,219.1 340.5,217.1 340.7,217.7 340.9,217.7 341.1,217.8 341.3,216.5 341.5,216.6 341.7,216.5 341.9,216.7 342.2,215.1 342.4,214.0 342.6,215.1 342.8,216.8 343.0,218.2 343.2,218.4 343.4,220.4 343.6,219.6 343.9,221.2 344.1,221.2 344.3,220.1 344.5,217.6 344.7,218.7 344.9,220.4 345.1,221.5 345.3,227.2 345.6,223.3 345.8,226.8 346.0,228.4 346.2,230.8 346.4,230.0 346.6,230.7 346.8,232.2 347.0,228.9 347.2,228.2 347.5,228.1 347.7,227.8 347.9,228.0 348.1,224.9 348.3,226.2 348.5,225.9 348.7,226.8 348.9,222.4 349.2,220.8 349.4,224.2 349.6,225.3 349.8,225.9 350.0,225.2 350.2,225.6 350.4,223.7 350.6,221.5 350.9,219.5 351.1,220.5 351.3,219.7 351.5,219.7 351.7,219.9 351.9,221.0 352.1,221.0 352.3,221.3 352.6,221.4 352.8,220.0 353.0,221.2 353.2,222.1 353.4,222.8 353.6,227.6 353.8,228.3 354.0,228.3 354.3,227.4 354.5,226.7 354.7,226.4 354.9,224.7 355.1,222.1 355.3,221.4 355.5,223.2 355.7,223.1 355.9,225.4 356.2,223.8 356.4,224.4 356.6,222.4 356.8,222.3 357.0,223.9 357.2,225.0 357.4,225.1 357.6,226.5 357.9,226.3 358.1,225.7 358.3,222.7 358.5,223.3 358.7,223.3 358.9,223.8 359.1,224.2 359.3,223.5 359.6,223.5 359.8,222.5 360.0,222.9 360.2,221.7 360.4,221.7 360.6,223.0 360.8,219.1 361.0,222.5 361.3,221.7 361.5,222.3 361.7,221.4 361.9,222.2 362.1,221.5 362.3,221.7 362.5,221.5 362.7,220.1 363.0,219.8 363.2,221.5 363.4,221.5 363.6,221.6 363.8,220.6 364.0,220.7 364.2,220.9 364.4,221.9 364.6,222.2 364.9,221.6 365.1,222.1 365.3,221.6 365.5,221.8 365.7,221.5 365.9,221.1 366.1,221.2 366.3,223.5 366.6,221.4 366.8,222.0 367.0,221.2 367.2,221.9 367.4,221.9 367.6,221.9 367.8,223.2 368.0,222.3 368.3,221.9 368.5,222.6 368.7,223.8 368.9,224.4 369.1,226.5 369.3,226.8 369.5,227.6 369.7,228.9 370.0,229.9 370.2,232.2 370.4,230.5 370.6,232.4 370.8,232.3 371.0,231.1 371.2,230.8 371.4,230.4 371.7,231.3 371.9,230.2 372.1,228.6 372.3,229.3 372.5,228.6 372.7,229.3 372.9,219.6 373.1,219.5 373.3,220.3 373.6,223.9 373.8,222.8 374.0,219.6 374.2,218.4 374.4,219.2 374.6,217.8 374.8,216.9 375.0,216.7 375.3,215.2 375.5,216.4 375.7,216.1 375.9,216.0 376.1,215.7 376.3,214.6 376.5,214.8 376.7,213.8 377.0,212.6 377.2,216.2 377.4,217.0 377.6,216.6 377.8,217.0 378.0,217.5 378.2,218.3 378.4,218.6 378.7,221.8 378.9,221.9 379.1,221.1 379.3,220.5 379.5,222.4 379.7,222.3 379.9,222.7 380.1,223.4 380.3,223.4 380.6,225.2 380.8,223.9 381.0,223.7 381.2,223.9 381.4,224.3 381.6,224.0 381.8,225.4 382.0,226.5 382.3,227.0 382.5,224.7 382.7,225.8 382.9,227.6 383.1,227.3 383.3,226.5 383.5,224.2 383.7,224.5 384.0,225.5 384.2,225.7 384.4,223.0 384.6,223.1 384.8,222.2 385.0,220.0 385.2,221.8 385.4,221.9 385.7,220.9 385.9,221.8 386.1,221.1 386.3,222.6 386.5,221.1 386.7,220.0 386.9,219.1 387.1,217.3 387.4,216.7 387.6,215.2 387.8,215.6 388.0,218.5 388.2,219.3 388.4,218.7 388.6,218.0 388.8,218.8 389.0,218.6 389.3,218.5 389.5,219.0 389.7,218.5 389.9,215.8 390.1,216.0 390.3,215.3 390.5,215.0 390.7,215.8 391.0,214.9 391.2,213.8 391.4,213.0 391.6,214.4 391.8,222.7 392.0,221.1 392.2,220.8 392.4,225.2 392.7,224.8 392.9,224.8 393.1,223.9 393.3,227.1 393.5,229.6 393.7,229.3 393.9,231.8 394.1,230.1 394.4,230.4 394.6,228.4 394.8,228.6 395.0,225.9 395.2,225.1 395.4,223.0 395.6,222.6 395.8,221.4 396.1,220.2 396.3,230.9 396.5,231.9 396.7,230.7 396.9,229.6 397.1,228.9 397.3,228.3 397.5,230.0 397.7,230.3 398.0,230.1 398.2,229.6 398.4,226.7 398.6,224.2 398.8,224.4 399.0,226.2 399.2,224.6 399.4,223.5 399.7,224.9 399.9,225.1 400.1,224.4 400.3,223.9 400.5,224.0 400.7,222.8 400.9,222.1 401.1,220.8 401.4,222.8 401.6,223.9 401.8,223.9 402.0,222.3 402.2,222.3 402.4,223.4 402.6,220.9 402.8,222.8 403.1,223.3 403.3,224.9 403.5,223.9 403.7,225.3 403.9,227.2 404.1,226.3 404.3,224.3 404.5,225.3 404.7,226.6 405.0,224.6 405.2,224.4 405.4,221.6 405.6,221.7 405.8,220.3 406.0,220.1 406.2,223.2 406.4,221.8 406.7,220.7 406.9,220.0 407.1,219.5 407.3,218.6 407.5,218.5 407.7,219.0 407.9,219.8 408.1,220.9 408.4,220.9 408.6,220.9 408.8,223.0 409.0,221.0 409.2,219.7 409.4,219.7 409.6,219.3 409.8,219.3 410.1,219.1 410.3,219.2 410.5,219.2 410.7,218.1 410.9,219.7 411.1,220.3 411.3,219.4 411.5,219.2 411.8,218.0 412.0,219.3 412.2,220.1 412.4,218.2 412.6,219.0 412.8,219.5 413.0,219.4 413.2,220.2 413.4,219.7 413.7,220.9 413.9,218.4 414.1,218.1 414.3,217.9 414.5,217.9 414.7,217.9 414.9,217.6 415.1,217.4 415.4,218.0 415.6,217.5 415.8,219.2 416.0,220.2 416.2,222.1 416.4,220.0 416.6,218.3 416.8,218.0 417.1,219.1 417.3,221.8 417.5,221.4 417.7,221.1 417.9,220.5 418.1,219.7 418.3,220.1 418.5,221.3 418.8,221.7 419.0,224.0 419.2,220.3 419.4,227.7 419.6,226.9 419.8,228.7 420.0,228.8 420.2,229.2 420.5,228.6 420.7,227.6 420.9,228.2 421.1,227.7 421.3,226.1 421.5,226.6 421.7,226.5 421.9,227.0 422.1,226.3 422.4,228.0 422.6,226.4 422.8,225.9 423.0,226.2 423.2,228.3 423.4,227.6 423.6,229.1 423.8,228.3 424.1,227.3 424.3,226.4 424.5,227.9 424.7,227.3 424.9,228.6 425.1,227.0 425.3,227.5 425.5,227.7 425.8,226.9 426.0,227.7 426.2,226.8 426.4,227.1 426.6,225.7 426.8,225.6 427.0,225.1 427.2,225.6 427.5,227.4 427.7,227.3 427.9,226.1 428.1,225.9 428.3,226.6 428.5,225.2 428.7,226.7 428.9,227.1 429.1,226.7 429.4,228.0 429.6,227.2 429.8,227.1 430.0,226.9 430.2,226.8 430.4,225.9 430.6,225.8 430.8,225.0 431.1,222.3 431.3,223.5 431.5,223.8 431.7,222.6 431.9,222.5 432.1,221.8 432.3,221.7 432.5,221.9 432.8,222.4 433.0,222.3 433.2,221.6 433.4,222.2 433.6,222.1 433.8,222.2 434.0,222.9 434.2,222.9 434.5,223.3 434.7,224.0 434.9,223.5 435.1,225.0 435.3,223.8 435.5,222.3 435.7,222.5 435.9,223.0 436.2,223.1 436.4,223.4 436.6,223.4 436.8,224.2 437.0,223.5 437.2,222.9 437.4,222.6 437.6,223.0 437.8,222.3 438.1,222.2 438.3,222.1 438.5,221.9 438.7,223.0 438.9,221.9 439.1,221.9 439.3,221.4 439.5,221.2 439.8,221.0 440.0,221.6 440.2,221.0 440.4,220.6 440.6,220.0 440.8,220.8 441.0,220.3 441.2,220.2 441.5,220.7 441.7,221.5 441.9,219.5 442.1,219.8 442.3,220.1 442.5,220.2 442.7,219.5 442.9,217.7 443.2,216.3 443.4,215.0 443.6,216.0 443.8,215.5 444.0,215.2 444.2,214.2 444.4,211.6 444.6,210.2 444.9,211.2 445.1,213.5 445.3,213.8 445.5,213.5 445.7,213.2 445.9,213.3 446.1,213.5 446.3,214.4 446.5,213.6 446.8,213.7 447.0,213.1 447.2,213.4 447.4,213.3 447.6,212.9 447.8,212.2 448.0,214.2 448.2,212.3 448.5,209.9 448.7,210.3 448.9,211.2 449.1,211.8 449.3,211.3 449.5,210.7 449.7,210.8 449.9,208.9 450.2,208.3 450.4,208.3 450.6,208.4 450.8,209.7 451.0,208.2 451.2,207.3 451.4,206.5 451.6,207.8 451.9,207.5 452.1,207.7 452.3,209.6 452.5,209.0 452.7,209.3 452.9,207.4 453.1,207.2 453.3,207.7 453.5,206.9 453.8,206.3 454.0,205.4 454.2,203.7 454.4,203.4 454.6,203.6 454.8,203.8 455.0,200.5 455.2,200.1 455.5,203.0 455.7,204.4 455.9,201.7 456.1,205.4 456.3,207.6 456.5,204.0 456.7,203.7 456.9,201.6 457.2,201.7 457.4,203.8 457.6,213.5 457.8,209.6 458.0,213.9 458.2,226.9 458.4,227.1 458.6,243.8 458.9,230.5 459.1,241.1 459.3,237.2 459.5,234.1 459.7,233.7 459.9,237.5 460.1,235.0 460.3,227.7 460.6,229.1 460.8,222.3 461.0,220.9 461.2,224.4 461.4,222.0 461.6,223.1 461.8,223.5 462.0,223.0 462.2,217.1 462.5,209.5 462.7,214.1 462.9,221.9 463.1,218.6 463.3,217.1 463.5,213.5 463.7,217.5 463.9,214.2 464.2,213.8 464.4,210.4 464.6,206.0 464.8,205.2 465.0,209.7 465.2,206.3 465.4,206.8 465.6,204.6 465.9,204.5 466.1,203.6 466.3,206.4 466.5,201.3 466.7,199.3 466.9,202.9 467.1,202.5 467.3,208.9 467.6,209.1 467.8,210.3 468.0,201.8 468.2,202.0 468.4,198.9 468.6,201.8 468.8,201.3 469.0,196.6 469.3,195.2 469.5,196.7 469.7,198.0 469.9,193.8 470.1,194.4 470.3,190.9 470.5,192.7 470.7,190.9 470.9,187.9 471.2,189.8 471.4,187.5 471.6,198.3 471.8,191.7 472.0,189.9 472.2,187.3 472.4,190.3 472.6,191.3 472.9,192.3 473.1,191.8 473.3,190.8 473.5,193.1 473.7,190.9 473.9,191.7 474.1,189.2 474.3,187.8 474.6,188.6 474.8,189.3 475.0,189.3 475.2,190.7 475.4,191.2 475.6,192.9 475.8,188.4 476.0,188.6 476.3,187.0 476.5,186.1 476.7,187.7 476.9,186.2 477.1,186.7 477.3,186.6 477.5,186.6 477.7,186.6 477.9,187.3 478.2,186.6 478.4,185.5 478.6,184.1 478.8,184.4 479.0,186.0 479.2,186.2 479.4,185.0 479.6,184.7 479.9,187.0 480.1,183.2 480.3,185.6 480.5,186.9 480.7,186.9 480.9,188.3 481.1,187.9 481.3,187.2 481.6,187.0 481.8,188.7 482.0,188.2 482.2,190.0 482.4,191.5 482.6,191.1 482.8,191.9 483.0,190.1 483.3,189.1 483.5,188.0 483.7,189.8 483.9,189.8 484.1,189.7 484.3,191.1 484.5,190.4 484.7,189.6 485.0,191.6 485.2,193.2 485.4,189.9 485.6,189.4 485.8,188.4 486.0,189.3 486.2,190.7 486.4,193.2 486.6,191.6 486.9,196.7 487.1,195.8 487.3,193.7 487.5,190.7 487.7,192.5 487.9,192.8 488.1,190.8 488.3,189.4 488.6,191.2 488.8,190.2 489.0,192.4 489.2,198.2 489.4,197.4 489.6,197.3 489.8,198.8 490.0,199.4 490.3,198.3 490.5,198.6 490.7,198.5 490.9,196.2 491.1,197.5 491.3,197.4 491.5,197.0 491.7,197.4 492.0,199.1 492.2,202.0 492.4,201.5 492.6,201.2 492.8,200.1 493.0,198.3 493.2,200.9 493.4,199.3 493.7,201.3 493.9,201.1 494.1,198.2 494.3,198.1 494.5,199.3 494.7,198.1 494.9,195.2 495.1,194.6 495.3,194.1 495.6,192.6 495.8,192.1 496.0,194.1 496.2,194.2 496.4,192.2 496.6,192.8 496.8,195.7 497.0,196.8 497.3,196.6 497.5,194.9 497.7,193.3 497.9,195.1 498.1,193.9 498.3,195.1 498.5,194.4 498.7,193.9 499.0,192.8 499.2,191.3 499.4,188.6 499.6,191.2 499.8,193.9 500.0,195.8 500.2,198.1 500.4,197.8 500.7,197.1 500.9,195.8 501.1,196.4 501.3,195.9 501.5,194.6 501.7,197.3 501.9,197.4 502.1,196.8 502.3,195.0 502.6,194.9 502.8,195.7 503.0,193.7 503.2,194.8 503.4,191.4 503.6,188.4 503.8,183.9 504.0,182.8 504.3,182.2 504.5,181.6 504.7,178.4 504.9,180.7 505.1,185.5 505.3,187.4 505.5,186.4 505.7,182.1 506.0,181.5 506.2,180.6 506.4,178.6 506.6,178.2 506.8,174.8 507.0,175.8 507.2,172.4 507.4,172.1 507.7,168.0 507.9,168.1 508.1,165.7 508.3,167.8 508.5,170.4 508.7,171.0 508.9,170.9 509.1,166.6 509.4,168.4 509.6,172.0 509.8,168.2 510.0,168.2 510.2,166.3 510.4,168.6 510.6,169.4 510.8,168.1 511.0,168.3 511.3,166.6 511.5,163.0 511.7,163.6 511.9,164.7 512.1,165.5 512.3,165.4 512.5,168.7 512.7,170.1 513.0,169.5 513.2,171.1 513.4,171.7 513.6,171.3 513.8,169.2 514.0,173.1 514.2,172.0 514.4,169.3 514.7,167.7 514.9,167.0 515.1,167.9 515.3,167.1 515.5,165.1 515.7,165.6 515.9,161.5 516.1,160.9 516.4,159.2 516.6,157.8 516.8,153.6 517.0,154.0 517.2,156.0 517.4,155.3 517.6,154.5 517.8,153.2 518.1,152.3 518.3,152.8 518.5,154.2 518.7,155.5 518.9,154.0 519.1,154.8 519.3,156.0 519.5,156.8 519.7,151.5 520.0,147.4 520.2,145.5 520.4,148.0 520.6,147.8 520.8,144.4 521.0,139.2 521.2,136.9 521.4,136.1 521.7,138.0 521.9,136.4 522.1,137.6 522.3,136.8 522.5,140.1 522.7,143.2 522.9,142.1 523.1,143.1 523.4,140.0 523.6,139.8 523.8,137.8 524.0,139.4 524.2,137.5 524.4,133.3 524.6,133.3 524.8,133.9 525.1,135.3 525.3,135.8 525.5,134.7 525.7,133.3 525.9,135.3 526.1,137.4 526.3,135.3 526.5,135.2 526.8,133.6 527.0,133.2 527.2,133.8 527.4,139.3 527.6,138.4 527.8,138.6 528.0,138.5 528.2,139.9 528.4,140.7 528.7,141.2 528.9,143.4 529.1,141.7 529.3,139.0 529.5,140.2 529.7,139.5 529.9,138.9 530.1,139.1 530.4,140.8 530.6,137.9 530.8,140.8 531.0,140.5 531.2,140.1 531.4,139.7 531.6,140.6 531.8,141.0 532.1,140.9 532.3,141.8 532.5,142.7 532.7,143.1 532.9,144.2 533.1,140.5 533.3,139.7 533.5,139.3 533.8,141.0 534.0,144.2 534.2,140.9 534.4,139.3 534.6,140.5 534.8,140.3 535.0,141.5 535.2,141.3 535.4,141.6 535.7,139.8 535.9,140.8 536.1,141.9 536.3,142.4 536.5,140.8 536.7,140.6 536.9,140.5 537.1,139.5 537.4,140.7 537.6,139.1 537.8,139.1 538.0,139.5 538.2,141.8 538.4,146.3 538.6,144.6 538.8,144.9 539.1,144.3 539.3,142.9 539.5,145.7 539.7,145.9 539.9,147.8 540.1,148.8 540.3,146.9 540.5,147.3 540.8,143.2 541.0,143.8 541.2,142.5 541.4,144.0 541.6,143.7 541.8,142.6 542.0,145.3 542.2,143.1 542.5,143.1 542.7,144.0 542.9,144.0 543.1,140.6 543.3,142.3 543.5,143.2 543.7,142.6 543.9,141.7 544.1,143.4 544.4,142.5 544.6,143.1 544.8,142.2 545.0,142.1 545.2,142.4 545.4,142.2 545.6,142.5 545.8,146.9 546.1,142.7 546.3,142.6 546.5,136.0 546.7,136.4 546.9,130.7 547.1,135.0 547.3,133.8 547.5,131.1 547.8,125.3 548.0,125.3 548.2,122.9 548.4,122.0 548.6,120.1 548.8,119.6 549.0,120.3 549.2,120.1 549.5,119.9 549.7,117.5 549.9,120.3 550.1,118.2 550.3,118.7 550.5,116.7 550.7,112.1 550.9,118.2 551.2,116.8 551.4,114.4 551.6,112.5 551.8,114.0 552.0,110.9 552.2,112.8 552.4,113.3 552.6,109.7 552.8,110.9 553.1,110.4 553.3,110.9 553.5,109.7 553.7,108.6 553.9,107.3 554.1,103.7 554.3,101.8 554.5,100.2 554.8,101.8 555.0,100.2 555.2,100.6 555.4,96.7 555.6,100.8 555.8,103.7 556.0,105.8 556.2,107.9 556.5,106.8 556.7,105.0 556.9,100.9 557.1,102.6 557.3,105.2 557.5,108.3 557.7,112.8 557.9,112.5 558.2,114.2 558.4,109.7 558.6,115.4 558.8,116.3 559.0,114.9 559.2,111.2 559.4,111.6 559.6,108.4 559.8,109.9 560.1,113.4 560.3,113.7 560.5,111.3 560.7,109.1 560.9,109.8 561.1,111.0 561.3,113.1 561.5,112.2 561.8,110.7 562.0,112.7 562.2,114.7 562.4,118.0 562.6,118.0 562.8,115.3 563.0,110.4 563.2,113.2 563.5,113.8 563.7,109.8 563.9,109.1 564.1,105.4 564.3,104.1 564.5,105.9 564.7,106.5 564.9,98.9 565.2,93.2 565.4,93.7 565.6,96.8 565.8,93.5 566.0,89.3 566.2,90.1 566.4,92.0 566.6,90.9 566.9,94.8 567.1,92.7 567.3,92.2 567.5,93.1 567.7,89.7 567.9,88.3 568.1,91.4 568.3,85.7 568.5,89.1 568.8,88.4 569.0,86.4 569.2,89.3 569.4,80.1 569.6,86.1 569.8,84.9 570.0,80.9 570.2,81.7 570.5,79.1 570.7,76.5 570.9,79.0 571.1,81.8 571.3,84.2 571.5,83.8 571.7,86.5 571.9,87.0 572.2,85.3 572.4,91.3 572.6,92.7 572.8,90.8 573.0,88.8 573.2,94.1 573.4,98.2 573.6,107.2 573.9,108.8 574.1,118.8 574.3,126.1 574.5,124.0 574.7,127.1 574.9,129.0 575.1,136.5 575.3,134.4 575.6,140.8 575.8,137.7 576.0,135.6 576.2,133.8 576.4,131.0 576.6,127.9 576.8,124.6 577.0,126.4 577.2,124.8 577.5,129.4 577.7,130.4 577.9,127.0 578.1,129.8 578.3,133.0 578.5,135.6 578.7,144.5 578.9,146.2 579.2,145.3 579.4,149.3 579.6,148.4 579.8,141.7 580.0,141.9 580.2,142.2 580.4,141.7 580.6,140.3 580.9,141.3 581.1,143.7 581.3,145.4 581.5,144.5 581.7,143.3 581.9,143.2 582.1,141.5 582.3,139.3 582.6,139.5 582.8,138.8 583.0,139.0 583.2,141.3 583.4,137.9 583.6,136.8 583.8,134.7 584.0,132.7 584.2,132.4 584.5,134.8 584.7,133.3 584.9,133.5 585.1,131.9 585.3,127.0 585.5,123.1 585.7,124.7 585.9,124.5 586.2,125.7 586.4,128.5 586.6,128.1 586.8,125.9 587.0,128.0 587.2,128.9 587.4,131.0 587.6,127.6 587.9,127.2 588.1,130.2 588.3,133.6 588.5,132.4 588.7,135.7 588.9,136.7 589.1,135.9 589.3,135.6 589.6,132.5 589.8,136.5 590.0,138.4 590.2,141.3 590.4,138.5 590.6,136.8 590.8,141.0 591.0,140.0 591.3,138.6 591.5,140.5 591.7,139.2 591.9,139.5 592.1,144.4 592.3,144.7 592.5,147.3 592.7,150.9 592.9,152.2 593.2,155.4 593.4,156.3 593.6,153.4 593.8,159.8 594.0,167.4 594.2,170.1 594.4,165.6 594.6,169.9 594.9,167.0 595.1,166.7 595.3,162.6 595.5,164.6 595.7,168.1 595.9,166.8 596.1,170.4 596.3,168.6 596.6,167.0 596.8,163.6 597.0,164.8 597.2,161.9 597.4,160.0 597.6,160.6 597.8,161.7 598.0,158.8 598.3,158.1 598.5,155.0 598.7,154.9 598.9,155.5 599.1,153.2 599.3,153.8 599.5,155.3 599.7,157.0 600.0,158.4 600.2,156.4 600.4,156.7 600.6,156.2 600.8,154.4 601.0,145.3 601.2,149.0 601.4,152.7 601.6,150.9 601.9,151.7 602.1,152.3 602.3,151.5 602.5,152.7 602.7,152.9 602.9,152.4 603.1,151.6 603.3,155.8 603.6,154.5 603.8,152.6 604.0,153.4 604.2,151.9 604.4,154.2 604.6,157.3 604.8,158.4 605.0,160.5 605.3,160.6 605.5,160.6 605.7,157.7 605.9,158.5 606.1,162.0 606.3,163.4 606.5,164.2 606.7,163.2 607.0,162.0 607.2,162.0 607.4,162.4 607.6,163.3 607.8,166.6 608.0,165.2 608.2,164.7 608.4,163.7 608.6,160.1 608.9,164.3 609.1,161.5 609.3,161.6 609.5,161.5 609.7,158.6 609.9,157.1 610.1,155.7 610.3,154.7 610.6,156.7 610.8,157.0 611.0,157.5 611.2,158.0 611.4,159.2 611.6,157.9 611.8,157.8 612.0,158.2 612.3,159.5 612.5,157.5 612.7,157.5 612.9,156.1 613.1,157.9 613.3,158.6 613.5,159.8 613.7,159.2 614.0,162.4 614.2,162.2 614.4,162.2 614.6,162.6 614.8,161.3 615.0,161.8 615.2,162.4 615.4,166.5 615.7,165.2 615.9,169.6 616.1,170.2 616.3,169.4 616.5,168.8 616.7,168.9 616.9,167.7 617.1,165.9 617.3,166.6 617.6,170.5 617.8,168.2 618.0,171.9 618.2,176.7 618.4,177.4 618.6,176.3 618.8,175.1 619.0,178.1 619.3,181.4 619.5,180.2 619.7,178.4 619.9,183.2 620.1,185.7 620.3,181.9 620.5,180.5 620.7,179.7 621.0,179.2 621.2,178.3 621.4,174.5 621.6,175.9 621.8,175.1 622.0,175.0 622.2,173.6 622.4,172.2 622.7,172.8 622.9,174.3 623.1,174.1 623.3,175.7 623.5,173.6 623.7,174.4 623.9,173.9 624.1,175.8 624.4,175.8 624.6,175.8 624.8,178.3 625.0,180.1 625.2,178.7 625.4,177.9 625.6,178.8 625.8,183.4 626.0,183.1 626.3,182.7 626.5,179.6 626.7,180.2 626.9,183.3 627.1,184.2 627.3,181.7 627.5,181.6 627.7,183.0 628.0,185.4 628.2,184.0 628.4,183.5 628.6,184.1 628.8,182.6 629.0,180.4 629.2,183.6 629.4,184.2 629.7,182.6 629.9,179.9 630.1,179.6 630.3,179.0 630.5,175.0 630.7,175.4 630.9,171.4 631.1,169.3 631.4,169.4 631.6,170.6 631.8,170.4 632.0,171.1 632.2,170.3 632.4,170.0 632.6,170.1 632.8,174.1 633.0,175.9 633.3,177.2 633.5,178.4 633.7,175.5 633.9,175.0 634.1,177.0 634.3,174.6 634.5,176.1 634.7,174.9 635.0,175.5 635.2,176.5 635.4,176.3 635.6,177.1 635.8,175.3 636.0,174.7 636.2,174.5 636.4,173.9 636.7,171.1 636.9,171.8 637.1,171.1 637.3,170.1 637.5,169.2 637.7,169.6 637.9,169.5 638.1,170.0 638.4,175.2 638.6,175.0 638.8,172.7 639.0,173.0 639.2,173.9 639.4,173.8 639.6,173.4 639.8,171.9 640.1,172.5 640.3,174.2 640.5,176.0 640.7,174.6 640.9,175.4 641.1,178.0 641.3,176.7 641.5,178.2 641.7,181.0 642.0,182.7 642.2,181.7 642.4,178.1 642.6,179.3 642.8,179.4 643.0,177.8 643.2,177.9 643.4,177.3 643.7,179.2 643.9,178.4 644.1,179.9 644.3,181.3 644.5,183.3 644.7,183.7 644.9,184.1 645.1,183.2 645.4,182.9 645.6,180.5 645.8,182.6 646.0,184.1 646.2,184.5 646.4,184.3 646.6,189.0 646.8,188.4 647.1,188.1 647.3,190.8 647.5,192.2 647.7,190.8 647.9,189.9 648.1,192.1 648.3,193.7 648.5,193.1 648.8,192.2 649.0,191.1 649.2,190.1 649.4,190.6 649.6,188.2 649.8,189.2 650.0,190.8 650.2,189.3 650.4,190.1 650.7,191.7 650.9,192.4 651.1,192.4 651.3,192.5 651.5,191.2 651.7,193.5 651.9,193.8 652.1,194.8 652.4,194.7 652.6,194.0 652.8,193.1 653.0,188.8 653.2,184.0 653.4,187.5 653.6,187.3 653.8,192.9 654.1,194.3 654.3,192.7 654.5,190.6 654.7,185.7 654.9,186.3 655.1,187.5 655.3,187.8 655.5,188.3 655.8,187.7 656.0,187.4 656.2,187.3 656.4,188.0 656.6,187.7 656.8,187.0 657.0,188.3 657.2,185.5 657.4,184.6 657.7,186.7 657.9,187.2 658.1,188.3 658.3,189.3 658.5,190.8 658.7,191.9 658.9,187.4 659.1,185.9 659.4,186.4 659.6,190.8 659.8,187.7 660.0,187.5 660.2,186.5 660.4,186.6 660.6,185.7 660.8,185.0 661.1,185.0 661.3,187.2 661.5,187.0 661.7,190.1 661.9,191.0 662.1,192.1 662.3,189.1 662.5,189.7 662.8,190.2 663.0,189.8 663.2,189.6 663.4,188.7 663.6,193.3 663.8,194.4 664.0,193.6 664.2,191.1 664.5,190.5 664.7,192.0 664.9,190.5 665.1,189.6 665.3,187.6 665.5,189.0 665.7,189.0 665.9,188.2 666.1,192.8 666.4,193.4 666.6,193.8 666.8,194.9 667.0,194.2 667.2,194.2 667.4,191.8 667.6,197.1 667.8,196.6 668.1,193.6 668.3,194.3 668.5,193.2 668.7,196.8 668.9,197.9 669.1,197.9 669.3,198.7 669.5,199.2 669.8,199.3 670.0,197.9 670.2,196.9 670.4,196.8 670.6,198.3 670.8,196.7 671.0,196.9 671.2,195.5 671.5,195.5 671.7,196.7 671.9,196.3 672.1,198.5 672.3,198.0 672.5,199.0 672.7,198.8 672.9,196.5 673.2,196.2 673.4,198.6 673.6,197.0 673.8,199.0 674.0,197.0 674.2,194.8 674.4,196.9 674.6,197.0 674.8,196.3 675.1,197.5 675.3,197.6 675.5,197.9 675.7,193.8 675.9,198.7 676.1,198.0 676.3,198.6 676.5,200.8 676.8,202.6 677.0,202.8 677.2,202.5 677.4,199.9 677.6,199.2 677.8,199.3 678.0,199.8 678.2,200.3 678.5,200.0 678.7,199.6 678.9,200.0 679.1,199.3 679.3,197.1 679.5,197.9 679.7,197.4 679.9,196.8 680.2,195.4 680.4,194.5 680.6,194.0 680.8,196.0 681.0,194.5 681.2,193.5 681.4,193.1 681.6,193.3 681.8,194.7 682.1,189.9 682.3,191.4 682.5,194.1 682.7,194.2 682.9,193.9 683.1,196.3 683.3,194.5 683.5,192.7 683.8,193.1 684.0,192.8 684.2,193.7 684.4,193.0 684.6,194.7 684.8,195.2 685.0,193.1 685.2,192.8 685.5,192.3 685.7,193.7 685.9,192.4 686.1,193.9 686.3,194.8 686.5,194.9 686.7,194.7 686.9,195.5 687.2,194.4 687.4,192.1 687.6,190.8 687.8,192.3 688.0,192.3 688.2,192.3 688.4,191.9 688.6,190.7 688.9,191.0 689.1,188.8 689.3,183.4 689.5,184.0 689.7,180.7 689.9,180.2 690.1,179.3 690.3,180.9 690.5,182.3 690.8,180.4 691.0,179.4 691.2,181.9 691.4,181.5 691.6,180.5 691.8,181.6 692.0,180.7 692.2,181.5 692.5,183.9 692.7,184.6 692.9,189.9 693.1,188.3 693.3,189.4 693.5,188.2 693.7,189.6 693.9,191.1 694.2,190.5 694.4,191.1 694.6,190.4 694.8,191.0 695.0,190.5 695.2,190.3 695.4,191.0 695.6,192.6 695.9,190.5 696.1,189.5 696.3,190.6 696.5,192.5 696.7,191.6 696.9,191.0 697.1,191.6 697.3,191.8 697.6,191.7 697.8,192.1 698.0,190.7 698.2,188.2 698.4,188.6 698.6,183.9 698.8,181.3 699.0,183.0 699.2,183.3 699.5,184.3 699.7,184.7 699.9,187.9 700.1,187.1 700.3,186.4 700.5,187.9 700.7,188.5 700.9,188.5 701.2,188.0 701.4,188.9 701.6,188.4 701.8,188.5 702.0,188.8 702.2,189.7 702.4,190.3 702.6,190.7 702.9,191.5 703.1,191.1 703.3,191.3 703.5,190.8 703.7,190.0 703.9,190.9 704.1,191.2 704.3,192.5 704.6,192.7 704.8,191.8 705.0,192.5 705.2,193.3 705.4,192.5 705.6,192.6 705.8,192.1 706.0,194.7 706.2,193.9 706.5,192.8 706.7,190.1 706.9,189.5 707.1,191.8 707.3,195.7 707.5,198.7 707.7,200.7 707.9,201.9 708.2,204.0 708.4,203.8 708.6,205.1 708.8,204.0 709.0,204.7 709.2,205.0 709.4,202.9 709.6,202.6 709.9,204.0 710.1,202.7 710.3,203.2 710.5,204.5 710.7,203.0 710.9,204.8 711.1,205.2 711.3,206.6 711.6,209.0 711.8,207.7 712.0,208.8 712.2,210.4 712.4,210.8 712.6,211.7 712.8,210.4 713.0,213.6 713.3,217.9 713.5,217.1 713.7,217.7 713.9,216.8 714.1,215.7 714.3,216.0 714.5,215.5 714.7,213.9 714.9,214.8 715.2,213.6 715.4,213.5 715.6,216.3 715.8,216.4 716.0,218.6 716.2,218.2 716.4,217.2 716.6,216.0 716.9,214.2 717.1,214.7 717.3,211.8 717.5,218.0 717.7,218.2 717.9,216.8 718.1,213.3 718.3,213.8 718.6,214.1 718.8,213.4 719.0,213.3 719.2,214.5 719.4,212.7 719.6,212.8 719.8,213.4 720.0,214.4 720.3,214.9 720.5,212.2 720.7,206.2 720.9,205.4 721.1,205.9 721.3,205.2 721.5,206.4 721.7,205.0 722.0,210.4 722.2,210.0 722.4,207.3 722.6,208.2 722.8,205.6 723.0,207.0 723.2,208.1 723.4,204.7 723.6,203.4 723.9,204.8 724.1,206.0 724.3,206.7 724.5,209.9 724.7,211.2 724.9,215.8 725.1,213.3 725.3,212.8 725.6,213.4 725.8,214.0 726.0,214.3 726.2,216.6 726.4,216.0 726.6,217.0 726.8,216.6 727.0,216.9 727.3,214.6 727.5,215.9 727.7,217.3 727.9,218.0 728.1,216.0 728.3,221.1 728.5,227.5 728.7,233.6 729.0,228.8 729.2,231.6 729.4,230.8 729.6,228.0 729.8,226.4 730.0,227.3 730.2,226.2 730.4,223.8 730.7,222.2 730.9,223.1 731.1,224.2 731.3,223.0 731.5,221.5 731.7,221.4 731.9,221.7 732.1,222.6 732.3,222.3 732.6,224.9 732.8,228.0 733.0,229.2 733.2,228.2 733.4,225.2 733.6,224.8 733.8,221.9 734.0,226.2 734.3,223.5 734.5,223.1 734.7,223.8 734.9,224.5 735.1,226.5 735.3,226.0 735.5,225.0 735.7,221.3 736.0,223.3 736.2,221.9 736.4,221.6 736.6,221.8 736.8,222.0 737.0,222.6 737.2,224.3 737.4,222.7 737.7,220.3 737.9,217.3 738.1,219.0 738.3,218.0 738.5,219.1 738.7,218.7 738.9,220.8 739.1,219.4 739.3,217.9 739.6,214.9 739.8,215.8 740.0,218.4 740.2,216.6 740.4,217.0 740.6,218.0 740.8,216.2 741.0,213.0 741.3,212.6 741.5,215.8 741.7,215.6 741.9,214.8 742.1,213.8 742.3,212.8 742.5,213.7 742.7,217.5 743.0,216.6 743.2,217.0 743.4,216.5 743.6,216.0 743.8,213.4 744.0,210.9 744.2,211.2 744.4,222.4 744.7,225.0 744.9,224.0 745.1,226.3 745.3,228.5 745.5,229.6 745.7,229.4 745.9,228.2 746.1,229.6 746.4,229.2 746.6,234.8 746.8,235.3 747.0,232.5 747.2,231.2 747.4,232.9 747.6,232.4 747.8,232.9 748.0,231.3 748.3,231.3 748.5,231.5 748.7,228.7 748.9,229.6 749.1,229.3 749.3,228.7 749.5,228.0 749.7,228.0 750.0,231.1 750.2,230.5 750.4,230.0 750.6,230.6 750.8,230.2 751.0,231.6 751.2,232.0 751.4,231.5 751.7,232.1 751.9,232.0 752.1,231.1 752.3,230.4 752.5,225.9 752.7,227.2 752.9,227.5 753.1,226.0 753.4,225.7 753.6,228.1 753.8,228.4 754.0,228.0 754.2,227.9 754.4,225.8 754.6,226.8 754.8,227.0 755.1,228.1 755.3,228.4 755.5,228.0 755.7,228.4 755.9,229.7 756.1,226.6 756.3,226.7 756.5,226.3 756.7,227.7 757.0,229.2 757.2,228.8 757.4,230.8 757.6,229.3 757.8,229.7 758.0,227.3 758.2,226.9 758.4,226.6 758.7,227.9 758.9,229.6 759.1,228.5 759.3,227.3 759.5,227.9 759.7,226.4 759.9,225.3 760.1,224.6 760.4,219.7 760.6,217.8 760.8,218.9 761.0,220.8 761.2,222.2 761.4,224.0 761.6,224.2 761.8,228.3 762.1,229.4 762.3,226.6 762.5,227.5 762.7,226.4 762.9,225.1 763.1,225.0 763.3,226.3 763.5,226.8 763.7,226.0 764.0,226.0 764.2,227.1 764.4,227.2 764.6,227.4 764.8,228.2 765.0,228.6 765.2,229.1 765.4,231.7 765.7,232.0 765.9,230.7 766.1,229.9 766.3,231.3 766.5,230.6 766.7,231.1 766.9,229.7 767.1,230.5 767.4,229.5 767.6,227.0 767.8,226.3 768.0,226.5 768.2,224.5 768.4,222.9 768.6,223.9 768.8,223.4 769.1,223.0 769.3,221.2 769.5,220.2 769.7,219.8 769.9,216.6 770.1,216.2 770.3,218.4 770.5,218.1 770.8,218.5 771.0,220.3 771.2,220.5 771.4,218.4 771.6,218.8 771.8,211.3 772.0,204.0 772.2,207.7 772.4,205.5 772.7,204.8 772.9,204.3 773.1,205.4 773.3,206.2 773.5,206.0 773.7,204.0 773.9,207.2 774.1,203.6 774.4,201.4 774.6,204.7 774.8,205.2 775.0,206.0 775.2,202.0 775.4,200.1 775.6,191.0 775.8,191.7 776.1,193.0 776.3,194.0 776.5,195.3 776.7,195.2 776.9,197.2 777.1,198.0 777.3,197.3 777.5,195.4 777.8,196.0 778.0,197.0 778.2,201.5 778.4,198.7 778.6,197.3 778.8,200.7 779.0,205.2 779.2,209.9 779.5,209.1 779.7,210.7 779.9,211.5 780.1,213.0 780.3,216.5 780.5,213.5 780.7,212.9 780.9,212.2 781.1,211.4 781.4,209.9 781.6,211.0 781.8,212.0 782.0,211.6 782.2,210.8 782.4,210.5 782.6,208.1 782.8,210.8 783.1,211.6 783.3,211.8 783.5,212.2 783.7,214.9 783.9,213.9 784.1,214.7 784.3,215.3 784.5,215.5 784.8,213.9 785.0,218.0 785.2,219.1 785.4,217.0 785.6,219.1 785.8,218.7 786.0,216.9 786.2,217.3 786.5,217.5 786.7,220.9 786.9,220.7 787.1,219.8 787.3,220.9 787.5,221.3 787.7,218.3 787.9,220.9 788.1,220.3 788.4,219.3 788.6,218.1 788.8,219.8 789.0,219.4 789.2,218.6 789.4,219.8 789.6,223.3 789.8,221.7 790.1,223.3 790.3,221.6 790.5,222.3 790.7,224.1 790.9,222.7 791.1,224.2 791.3,225.6 791.5,226.0 791.8,227.4 792.0,228.3 792.2,230.9 792.4,229.8 792.6,230.7 792.8,228.1 793.0,230.0 793.2,231.2 793.5,229.8 793.7,229.8 793.9,230.9 794.1,229.6 794.3,229.3 794.5,230.6 794.7,230.5 794.9,231.4 795.2,230.5 795.4,230.5 795.6,230.0 795.8,229.2 796.0,229.2"/>
<text x="78" y="392" font-size="11" fill="#16a34a">Total return +4.5%</text><text x="268" y="392" font-size="11" fill="#2563eb">Price-only -42.3%</text><text x="78" y="362" font-size="11" text-anchor="middle" fill="#64748b">2013-01</text><text x="258" y="362" font-size="11" text-anchor="middle" fill="#64748b">2016-06</text><text x="437" y="362" font-size="11" text-anchor="middle" fill="#64748b">2019-10</text><text x="616" y="362" font-size="11" text-anchor="middle" fill="#64748b">2023-02</text><text x="796" y="362" font-size="11" text-anchor="middle" fill="#64748b">2026-07</text></svg>