<svg xmlns="http://www.w3.org/2000/svg" width="720" height="360" viewBox="0 0 720 360">
  <rect width="720" height="360" fill="#fafafa"/>
  <text x="56" y="22" font-size="13" font-family="sans-serif" fill="#222">SPGI total return (rebased 100) · cumulative distributions $0.00/sh · market cap n/a</text>
  <line x1="56" y1="308" x2="696" y2="308" stroke="#ccc"/>
  <line x1="56" y1="48" x2="56" y2="308" stroke="#ccc"/>
  <polyline fill="none" stroke="#2563eb" stroke-width="2" points="56.0,274.6 58.7,274.8 61.4,273.9 64.0,271.3 66.7,270.3 69.4,269.7 72.1,270.1 74.7,271.2 77.4,271.9 80.1,270.8 82.8,268.7 85.5,269.7 88.1,272.9 90.8,277.1 93.5,276.9 96.2,277.3 98.8,277.7 101.5,279.9 104.2,280.4 106.9,281.1 109.6,282.8 112.2,281.1 114.9,280.9 117.6,281.5 120.3,281.2 122.9,280.3 125.6,285.1 128.3,287.1 131.0,287.8 133.7,288.6 136.3,289.1 139.0,290.1 141.7,288.7 144.4,285.7 147.0,285.7 149.7,285.7 152.4,285.2 155.1,284.2 157.8,287.8 160.4,286.3 163.1,285.8 165.8,284.3 168.5,283.4 171.1,284.0 173.8,283.4 176.5,284.2 179.2,286.7 181.9,286.5 184.5,285.4 187.2,286.7 189.9,284.4 192.6,282.5 195.2,283.8 197.9,283.0 200.6,281.9 203.3,282.1 206.0,281.8 208.6,281.3 211.3,280.5 214.0,280.7 216.7,280.8 219.3,280.6 222.0,281.1 224.7,280.5 227.4,280.4 230.1,279.4 232.7,279.0 235.4,278.8 238.1,277.9 240.8,277.7 243.4,280.1 246.1,279.4 248.8,278.6 251.5,276.8 254.2,275.4 256.8,275.1 259.5,276.0 262.2,275.3 264.9,274.1 267.5,278.8 270.2,276.4 272.9,275.6 275.6,275.4 278.3,276.0 280.9,272.3 283.6,273.8 286.3,270.7 289.0,269.0 291.6,267.0 294.3,265.4 297.0,266.3 299.7,264.8 302.4,266.2 305.0,267.2 307.7,263.9 310.4,263.4 313.1,264.6 315.7,264.2 318.4,262.8 321.1,260.2 323.8,259.0 326.5,260.9 329.1,260.7 331.8,254.9 334.5,254.8 337.2,254.4 339.8,254.6 342.5,256.0 345.2,255.5 347.9,257.5 350.6,261.9 353.2,259.3 355.9,257.7 358.6,256.8 361.3,262.5 363.9,260.5 366.6,256.6 369.3,253.3 372.0,251.2 374.7,253.1 377.3,246.8 380.0,246.3 382.7,245.0 385.4,247.0 388.1,248.2 390.7,253.0 393.4,247.7 396.1,243.8 398.8,243.2 401.4,241.8 404.1,238.2 406.8,236.8 409.5,233.6 412.2,233.3 414.8,232.5 417.5,232.4 420.2,228.6 422.9,226.9 425.5,222.0 428.2,217.5 430.9,217.8 433.6,218.8 436.3,215.1 438.9,212.4 441.6,213.8 444.3,211.1 447.0,216.0 449.6,221.5 452.3,221.3 455.0,226.7 457.7,217.6 460.4,213.9 463.0,209.6 465.7,205.3 468.4,208.2 471.1,202.3 473.7,195.1 476.4,188.6 479.1,195.1 481.8,189.6 484.5,186.8 487.1,183.2 489.8,174.5 492.5,186.2 495.2,195.0 497.8,174.9 500.5,161.3 503.2,159.4 505.9,150.7 508.6,143.8 511.2,146.3 513.9,162.3 516.6,150.0 519.3,159.7 521.9,164.7 524.6,159.5 527.3,149.5 530.0,133.7 532.7,138.3 535.3,125.3 538.0,117.6 540.7,111.2 543.4,119.2 546.0,98.4 548.7,106.2 551.4,99.3 554.1,123.2 556.8,139.9 559.4,125.4 562.1,139.6 564.8,151.0 567.5,156.2 570.1,139.4 572.8,149.8 575.5,169.6 578.2,162.9 580.9,149.6 583.5,157.1 586.2,140.2 588.9,154.5 591.6,153.0 594.2,145.5 596.9,143.4 599.6,129.3 602.3,132.0 605.0,133.5 607.6,144.3 610.3,151.0 613.0,123.0 615.7,112.6 618.3,109.3 621.0,117.7 623.7,118.9 626.4,123.0 629.1,118.1 631.7,110.3 634.4,93.9 637.1,81.9 639.8,80.5 642.4,95.8 645.1,78.0 647.8,88.3 650.5,78.5 653.2,73.3 655.8,84.1 658.5,87.5 661.2,82.1 663.9,76.0 666.5,65.9 669.2,67.1 671.9,93.1 674.6,92.9 677.3,88.0 679.9,78.0 682.6,75.8 685.3,112.0 688.0,119.0 690.6,116.5 693.3,119.5 696.0,124.0"/>
  <polyline fill="none" stroke="#16a34a" stroke-width="2" points="56.0,274.6 58.7,274.8 61.4,273.9 64.0,271.3 66.7,270.3 69.4,269.7 72.1,270.1 74.7,271.2 77.4,271.9 80.1,270.8 82.8,268.7 85.5,269.7 88.1,272.9 90.8,277.1 93.5,276.9 96.2,277.3 98.8,277.7 101.5,279.9 104.2,280.4 106.9,281.1 109.6,282.8 112.2,281.1 114.9,280.9 117.6,281.5 120.3,281.2 122.9,280.3 125.6,285.1 128.3,287.1 131.0,287.8 133.7,288.6 136.3,289.1 139.0,290.1 141.7,288.7 144.4,285.7 147.0,285.7 149.7,285.7 152.4,285.2 155.1,284.2 157.8,287.8 160.4,286.3 163.1,285.8 165.8,284.3 168.5,283.4 171.1,284.0 173.8,283.4 176.5,284.2 179.2,286.7 181.9,286.5 184.5,285.4 187.2,286.7 189.9,284.4 192.6,282.5 195.2,283.8 197.9,283.0 200.6,281.9 203.3,282.1 206.0,281.8 208.6,281.3 211.3,280.5 214.0,280.7 216.7,280.8 219.3,280.6 222.0,281.1 224.7,280.5 227.4,280.4 230.1,279.4 232.7,279.0 235.4,278.8 238.1,277.9 240.8,277.7 243.4,280.1 246.1,279.4 248.8,278.6 251.5,276.8 254.2,275.4 256.8,275.1 259.5,276.0 262.2,275.3 264.9,274.1 267.5,278.8 270.2,276.4 272.9,275.6 275.6,275.4 278.3,276.0 280.9,272.3 283.6,273.8 286.3,270.7 289.0,269.0 291.6,267.0 294.3,265.4 297.0,266.3 299.7,264.8 302.4,266.2 305.0,267.2 307.7,263.9 310.4,263.4 313.1,264.6 315.7,264.2 318.4,262.8 321.1,260.2 323.8,259.0 326.5,260.9 329.1,260.7 331.8,254.9 334.5,254.8 337.2,254.4 339.8,254.6 342.5,256.0 345.2,255.5 347.9,257.5 350.6,261.9 353.2,259.3 355.9,257.7 358.6,256.8 361.3,262.5 363.9,260.5 366.6,256.6 369.3,253.3 372.0,251.2 374.7,253.1 377.3,246.8 380.0,246.3 382.7,245.0 385.4,247.0 388.1,248.2 390.7,253.0 393.4,247.7 396.1,243.8 398.8,243.2 401.4,241.8 404.1,238.2 406.8,236.8 409.5,233.6 412.2,233.3 414.8,232.5 417.5,232.4 420.2,228.6 422.9,226.9 425.5,222.0 428.2,217.5 430.9,217.8 433.6,218.8 436.3,215.1 438.9,212.4 441.6,213.8 444.3,211.1 447.0,216.0 449.6,221.5 452.3,221.3 455.0,226.7 457.7,217.6 460.4,213.9 463.0,209.6 465.7,205.3 468.4,208.2 471.1,202.3 473.7,195.1 476.4,188.6 479.1,195.1 481.8,189.6 484.5,186.8 487.1,183.2 489.8,174.5 492.5,186.2 495.2,195.0 497.8,174.9 500.5,161.3 503.2,159.4 505.9,150.7 508.6,143.8 511.2,146.3 513.9,162.3 516.6,150.0 519.3,159.7 521.9,164.7 524.6,159.5 527.3,149.5 530.0,133.7 532.7,138.3 535.3,125.3 538.0,117.6 540.7,111.2 543.4,119.2 546.0,98.4 548.7,106.2 551.4,99.3 554.1,123.2 556.8,139.9 559.4,125.4 562.1,139.6 564.8,151.0 567.5,156.2 570.1,139.4 572.8,149.8 575.5,169.6 578.2,162.9 580.9,149.6 583.5,157.1 586.2,140.2 588.9,154.5 591.6,153.0 594.2,145.5 596.9,143.4 599.6,129.3 602.3,132.0 605.0,133.5 607.6,144.3 610.3,151.0 613.0,123.0 615.7,112.6 618.3,109.3 621.0,117.7 623.7,118.9 626.4,123.0 629.1,118.1 631.7,110.3 634.4,93.9 637.1,81.9 639.8,80.5 642.4,95.8 645.1,78.0 647.8,88.3 650.5,78.5 653.2,73.3 655.8,84.1 658.5,87.5 661.2,82.1 663.9,76.0 666.5,65.9 669.2,67.1 671.9,93.1 674.6,92.9 677.3,88.0 679.9,78.0 682.6,75.8 685.3,112.0 688.0,119.0 690.6,116.5 693.3,119.5 696.0,124.0"/>
  <text x="60" y="62" font-size="11" fill="#2563eb">Price index</text>
  <text x="146" y="62" font-size="11" fill="#16a34a">Total return (price + distributions)</text>
  <text x="56" y="348" font-size="11" text-anchor="middle" fill="#444">2006-07</text><text x="217" y="348" font-size="11" text-anchor="middle" fill="#444">2011-07</text><text x="377" y="348" font-size="11" text-anchor="middle" fill="#444">2016-07</text><text x="538" y="348" font-size="11" text-anchor="middle" fill="#444">2021-07</text><text x="696" y="348" font-size="11" text-anchor="middle" fill="#444">2026-06</text>
</svg>
