<svg xmlns="http://www.w3.org/2000/svg" width="720" height="360" viewBox="0 0 720 360">
  <rect width="720" height="360" fill="#fafafa"/>
  <text x="56" y="22" font-size="13" font-family="sans-serif" fill="#222">3905.T total return (rebased 100) · cumulative distributions $0.00/sh · market cap n/a</text>
  <line x1="56" y1="308" x2="696" y2="308" stroke="#ccc"/>
  <line x1="56" y1="48" x2="56" y2="308" stroke="#ccc"/>
  <polyline fill="none" stroke="#2563eb" stroke-width="2" points="56.0,259.2 56.2,247.8 56.5,257.9 56.7,259.4 56.9,255.9 57.1,244.5 57.4,237.6 57.6,241.1 57.8,249.5 58.0,249.0 58.3,250.1 58.5,255.0 58.7,258.5 59.0,257.4 59.2,255.0 59.4,253.9 59.6,258.2 59.9,258.2 60.1,259.2 60.3,261.3 60.5,255.6 60.8,256.4 61.0,260.4 61.2,259.8 61.5,258.7 61.7,260.4 61.9,260.9 62.1,262.4 62.4,262.0 62.6,261.1 62.8,259.6 63.0,261.6 63.3,263.0 63.5,265.0 63.7,264.3 63.9,264.8 64.2,265.8 64.4,262.1 64.6,264.8 64.9,264.9 65.1,264.8 65.3,264.9 65.5,263.6 65.8,264.8 66.0,266.2 66.2,266.3 66.4,266.6 66.7,266.8 66.9,269.1 67.1,270.3 67.4,270.1 67.6,269.9 67.8,269.5 68.0,266.9 68.3,269.1 68.5,270.6 68.7,270.2 68.9,268.8 69.2,268.2 69.4,268.6 69.6,268.0 69.9,270.1 70.1,269.7 70.3,270.3 70.5,270.6 70.8,271.7 71.0,271.8 71.2,272.7 71.4,272.4 71.7,272.0 71.9,271.8 72.1,272.3 72.4,272.2 72.6,269.5 72.8,269.4 73.0,268.4 73.3,268.3 73.5,268.4 73.7,270.3 73.9,271.1 74.2,270.9 74.4,270.2 74.6,268.8 74.9,268.3 75.1,269.7 75.3,270.7 75.5,271.3 75.8,271.0 76.0,270.7 76.2,271.3 76.4,271.4 76.7,271.7 76.9,271.7 77.1,270.8 77.3,270.6 77.6,271.1 77.8,271.5 78.0,271.7 78.3,271.7 78.5,271.7 78.7,271.7 78.9,271.7 79.2,271.8 79.4,271.8 79.6,271.8 79.8,271.7 80.1,271.8 80.3,271.2 80.5,271.8 80.8,266.1 81.0,265.6 81.2,268.5 81.4,269.3 81.7,268.0 81.9,269.1 82.1,270.4 82.3,269.3 82.6,270.5 82.8,268.7 83.0,268.5 83.3,267.4 83.5,268.0 83.7,269.1 83.9,269.1 84.2,270.7 84.4,270.7 84.6,268.7 84.8,269.8 85.1,270.2 85.3,271.1 85.5,270.6 85.8,271.9 86.0,272.4 86.2,272.8 86.4,272.5 86.7,271.4 86.9,271.9 87.1,270.1 87.3,268.8 87.6,269.3 87.8,270.0 88.0,270.8 88.2,271.1 88.5,271.5 88.7,271.2 88.9,271.8 89.2,271.6 89.4,272.0 89.6,272.1 89.8,272.6 90.1,272.9 90.3,273.2 90.5,273.4 90.7,273.4 91.0,273.2 91.2,273.3 91.4,274.2 91.7,274.4 91.9,275.2 92.1,274.8 92.3,272.8 92.6,272.6 92.8,273.6 93.0,277.4 93.2,279.0 93.5,276.6 93.7,277.3 93.9,276.9 94.2,276.6 94.4,277.9 94.6,278.4 94.8,278.6 95.1,279.5 95.3,280.2 95.5,280.7 95.7,279.8 96.0,278.8 96.2,278.3 96.4,278.5 96.7,279.1 96.9,279.5 97.1,279.5 97.3,279.4 97.6,279.6 97.8,278.2 98.0,277.7 98.2,278.5 98.5,277.8 98.7,277.9 98.9,277.8 99.2,277.2 99.4,277.7 99.6,277.1 99.8,277.3 100.1,277.0 100.3,276.7 100.5,277.0 100.7,276.6 101.0,276.7 101.2,276.9 101.4,277.7 101.6,277.9 101.9,278.2 102.1,278.1 102.3,277.8 102.6,278.0 102.8,275.3 103.0,274.5 103.2,275.6 103.5,276.9 103.7,277.5 103.9,277.7 104.1,277.9 104.4,277.7 104.6,277.3 104.8,277.2 105.1,276.9 105.3,277.3 105.5,279.0 105.7,278.9 106.0,278.7 106.2,278.8 106.4,278.8 106.6,278.6 106.9,277.5 107.1,277.9 107.3,275.2 107.6,276.9 107.8,277.3 108.0,278.0 108.2,276.1 108.5,275.4 108.7,276.3 108.9,276.5 109.1,276.3 109.4,276.9 109.6,277.0 109.8,277.8 110.1,279.3 110.3,278.8 110.5,278.7 110.7,279.3 111.0,279.5 111.2,280.1 111.4,280.8 111.6,280.8 111.9,279.8 112.1,278.4 112.3,277.3 112.6,276.0 112.8,275.4 113.0,277.0 113.2,277.5 113.5,273.8 113.7,276.2 113.9,276.0 114.1,277.1 114.4,279.1 114.6,279.2 114.8,278.6 115.0,280.5 115.3,281.9 115.5,280.7 115.7,278.8 116.0,279.5 116.2,279.1 116.4,278.9 116.6,279.4 116.9,278.6 117.1,279.2 117.3,280.2 117.5,280.3 117.8,281.3 118.0,281.0 118.2,281.0 118.5,282.4 118.7,284.8 118.9,284.0 119.1,283.6 119.4,283.7 119.6,283.5 119.8,283.6 120.0,283.2 120.3,283.5 120.5,283.9 120.7,280.9 121.0,282.1 121.2,282.1 121.4,282.0 121.6,281.2 121.9,281.0 122.1,280.5 122.3,279.4 122.5,279.5 122.8,279.9 123.0,279.7 123.2,277.8 123.5,274.0 123.7,275.2 123.9,275.5 124.1,276.9 124.4,277.2 124.6,276.1 124.8,275.9 125.0,275.3 125.3,275.4 125.5,275.0 125.7,275.4 126.0,275.9 126.2,276.0 126.4,277.3 126.6,277.5 126.9,279.1 127.1,279.0 127.3,278.1 127.5,276.5 127.8,276.3 128.0,276.9 128.2,274.5 128.4,275.0 128.7,275.2 128.9,275.0 129.1,271.8 129.4,272.2 129.6,270.9 129.8,267.1 130.0,265.2 130.3,269.0 130.5,269.6 130.7,270.7 130.9,268.5 131.2,262.8 131.4,257.1 131.6,258.7 131.9,250.8 132.1,252.8 132.3,256.0 132.5,261.4 132.8,259.6 133.0,265.3 133.2,264.7 133.4,265.1 133.7,261.9 133.9,261.1 134.1,260.9 134.4,263.3 134.6,264.9 134.8,261.0 135.0,261.4 135.3,263.1 135.5,263.3 135.7,262.3 135.9,263.7 136.2,265.0 136.4,265.8 136.6,266.0 136.9,266.2 137.1,268.7 137.3,271.1 137.5,269.9 137.8,271.3 138.0,271.2 138.2,270.2 138.4,270.3 138.7,271.7 138.9,271.3 139.1,274.5 139.3,272.7 139.6,271.3 139.8,270.2 140.0,270.3 140.3,268.3 140.5,268.3 140.7,270.1 140.9,267.5 141.2,268.4 141.4,269.4 141.6,269.4 141.8,268.9 142.1,269.6 142.3,268.9 142.5,269.8 142.8,271.0 143.0,271.3 143.2,271.7 143.4,272.1 143.7,271.8 143.9,272.7 144.1,273.1 144.3,273.9 144.6,273.0 144.8,273.2 145.0,273.3 145.3,275.0 145.5,275.0 145.7,275.3 145.9,275.3 146.2,274.7 146.4,274.7 146.6,273.9 146.8,273.6 147.1,273.3 147.3,273.8 147.5,274.4 147.8,274.5 148.0,274.3 148.2,273.8 148.4,274.0 148.7,274.1 148.9,274.5 149.1,274.1 149.3,274.0 149.6,274.3 149.8,274.0 150.0,273.6 150.3,272.1 150.5,272.1 150.7,271.5 150.9,271.5 151.2,270.5 151.4,271.3 151.6,271.2 151.8,272.7 152.1,272.8 152.3,272.8 152.5,272.9 152.7,272.6 153.0,272.4 153.2,271.9 153.4,271.2 153.7,269.4 153.9,269.2 154.1,269.8 154.3,269.4 154.6,269.4 154.8,268.9 155.0,269.0 155.2,268.2 155.5,269.5 155.7,270.4 155.9,271.1 156.2,271.1 156.4,270.7 156.6,270.2 156.8,269.8 157.1,269.5 157.3,270.2 157.5,270.1 157.7,270.5 158.0,270.3 158.2,270.9 158.4,271.2 158.7,271.5 158.9,271.7 159.1,272.6 159.3,273.7 159.6,273.2 159.8,273.2 160.0,274.8 160.2,274.2 160.5,274.8 160.7,272.7 160.9,272.7 161.2,272.4 161.4,271.9 161.6,272.5 161.8,271.5 162.1,272.3 162.3,272.6 162.5,273.3 162.7,273.1 163.0,273.2 163.2,273.2 163.4,273.4 163.7,273.7 163.9,273.9 164.1,274.0 164.3,273.5 164.6,273.5 164.8,273.2 165.0,273.0 165.2,273.1 165.5,273.2 165.7,273.4 165.9,274.0 166.1,274.2 166.4,274.2 166.6,274.5 166.8,274.5 167.1,273.3 167.3,272.0 167.5,272.6 167.7,272.9 168.0,272.6 168.2,271.7 168.4,269.9 168.6,270.3 168.9,269.8 169.1,270.5 169.3,271.0 169.6,270.4 169.8,270.6 170.0,271.7 170.2,271.4 170.5,271.6 170.7,272.0 170.9,271.5 171.1,271.8 171.4,271.4 171.6,271.3 171.8,269.0 172.1,268.6 172.3,269.1 172.5,268.0 172.7,266.5 173.0,265.7 173.2,266.1 173.4,266.6 173.6,265.2 173.9,266.7 174.1,267.0 174.3,266.4 174.6,268.0 174.8,268.5 175.0,268.3 175.2,267.3 175.5,266.5 175.7,267.2 175.9,264.2 176.1,264.5 176.4,263.2 176.6,264.0 176.8,262.6 177.1,263.4 177.3,263.9 177.5,263.6 177.7,261.8 178.0,262.4 178.2,263.1 178.4,262.0 178.6,262.2 178.9,264.4 179.1,264.4 179.3,266.4 179.5,266.2 179.8,266.4 180.0,264.1 180.2,264.9 180.5,264.9 180.7,265.5 180.9,266.8 181.1,267.1 181.4,265.3 181.6,266.3 181.8,266.0 182.0,267.0 182.3,268.5 182.5,267.9 182.7,269.8 183.0,269.5 183.2,269.1 183.4,270.8 183.6,272.1 183.9,271.4 184.1,271.8 184.3,270.8 184.5,270.8 184.8,270.1 185.0,270.5 185.2,270.7 185.5,270.9 185.7,270.5 185.9,269.3 186.1,269.4 186.4,269.6 186.6,269.7 186.8,269.3 187.0,268.2 187.3,267.4 187.5,267.6 187.7,267.8 188.0,267.2 188.2,268.6 188.4,267.6 188.6,268.3 188.9,268.5 189.1,268.7 189.3,268.1 189.5,267.8 189.8,265.8 190.0,266.3 190.2,266.9 190.4,267.6 190.7,268.2 190.9,268.0 191.1,266.3 191.4,267.3 191.6,267.4 191.8,268.3 192.0,268.5 192.3,268.7 192.5,269.2 192.7,269.6 192.9,269.9 193.2,269.0 193.4,269.7 193.6,269.5 193.9,269.1 194.1,269.3 194.3,269.1 194.5,268.9 194.8,269.4 195.0,268.7 195.2,267.2 195.4,268.2 195.7,266.4 195.9,267.4 196.1,268.3 196.4,269.3 196.6,269.4 196.8,269.8 197.0,269.6 197.3,269.4 197.5,269.2 197.7,269.1 197.9,269.4 198.2,269.6 198.4,269.6 198.6,269.9 198.9,270.4 199.1,270.4 199.3,270.3 199.5,270.4 199.8,269.8 200.0,269.4 200.2,269.8 200.4,270.4 200.7,270.7 200.9,271.8 201.1,271.3 201.4,272.0 201.6,271.6 201.8,271.9 202.0,271.4 202.3,271.7 202.5,272.3 202.7,272.3 202.9,272.6 203.2,272.7 203.4,271.7 203.6,271.7 203.8,272.0 204.1,272.6 204.3,272.7 204.5,272.4 204.8,272.3 205.0,272.5 205.2,272.3 205.4,272.4 205.7,272.6 205.9,272.8 206.1,272.0 206.3,272.4 206.6,273.6 206.8,273.8 207.0,274.8 207.3,275.4 207.5,274.8 207.7,274.1 207.9,274.4 208.2,275.1 208.4,274.7 208.6,274.7 208.8,273.5 209.1,273.1 209.3,273.3 209.5,274.5 209.8,274.5 210.0,274.8 210.2,274.1 210.4,272.4 210.7,272.4 210.9,269.5 211.1,270.2 211.3,270.8 211.6,271.7 211.8,270.9 212.0,270.9 212.3,271.2 212.5,271.3 212.7,271.3 212.9,271.9 213.2,272.0 213.4,271.5 213.6,272.0 213.8,272.1 214.1,271.6 214.3,271.2 214.5,271.5 214.8,271.8 215.0,272.1 215.2,271.9 215.4,271.4 215.7,271.7 215.9,271.8 216.1,271.2 216.3,271.2 216.6,271.9 216.8,272.1 217.0,272.0 217.2,272.6 217.5,272.0 217.7,273.3 217.9,274.1 218.2,274.1 218.4,273.8 218.6,273.7 218.8,273.1 219.1,273.5 219.3,273.4 219.5,273.4 219.7,273.3 220.0,272.6 220.2,272.5 220.4,272.3 220.7,273.0 220.9,273.4 221.1,273.9 221.3,274.5 221.6,274.5 221.8,273.9 222.0,273.3 222.2,272.7 222.5,272.6 222.7,272.8 222.9,273.1 223.2,273.5 223.4,272.9 223.6,271.2 223.8,272.3 224.1,272.8 224.3,272.3 224.5,272.2 224.7,272.3 225.0,271.8 225.2,272.5 225.4,272.5 225.7,272.5 225.9,272.5 226.1,272.5 226.3,272.1 226.6,272.2 226.8,272.2 227.0,272.1 227.2,271.6 227.5,270.7 227.7,271.1 227.9,270.8 228.2,271.4 228.4,271.9 228.6,272.4 228.8,272.7 229.1,272.0 229.3,272.3 229.5,271.9 229.7,272.0 230.0,272.1 230.2,272.3 230.4,272.6 230.6,272.9 230.9,272.8 231.1,272.9 231.3,274.0 231.6,277.0 231.8,277.1 232.0,276.1 232.2,276.4 232.5,276.4 232.7,276.2 232.9,276.9 233.1,275.4 233.4,275.6 233.6,275.2 233.8,275.2 234.1,275.6 234.3,275.8 234.5,275.7 234.7,275.5 235.0,275.3 235.2,275.1 235.4,275.5 235.6,276.0 235.9,276.9 236.1,276.3 236.3,276.3 236.6,276.2 236.8,275.9 237.0,275.8 237.2,275.6 237.5,275.3 237.7,275.3 237.9,275.1 238.1,275.4 238.4,276.1 238.6,276.1 238.8,275.8 239.1,276.9 239.3,277.4 239.5,277.2 239.7,276.3 240.0,276.2 240.2,276.2 240.4,276.0 240.6,275.2 240.9,273.8 241.1,273.9 241.3,273.1 241.6,272.9 241.8,273.7 242.0,274.7 242.2,274.0 242.5,273.0 242.7,274.0 242.9,274.1 243.1,273.2 243.4,273.7 243.6,273.9 243.8,274.1 244.0,274.3 244.3,274.2 244.5,274.4 244.7,275.0 245.0,275.0 245.2,274.9 245.4,275.6 245.6,275.6 245.9,275.6 246.1,275.8 246.3,275.1 246.5,274.8 246.8,274.5 247.0,274.8 247.2,273.7 247.5,274.5 247.7,274.5 247.9,274.0 248.1,274.7 248.4,274.2 248.6,274.1 248.8,273.8 249.0,273.2 249.3,273.5 249.5,273.2 249.7,274.8 250.0,275.1 250.2,275.3 250.4,275.4 250.6,275.5 250.9,275.6 251.1,275.9 251.3,275.5 251.5,275.6 251.8,275.6 252.0,275.2 252.2,275.1 252.5,275.4 252.7,274.7 252.9,274.9 253.1,275.4 253.4,275.4 253.6,275.6 253.8,275.8 254.0,276.3 254.3,276.1 254.5,276.3 254.7,276.7 254.9,276.2 255.2,276.5 255.4,276.6 255.6,276.7 255.9,277.5 256.1,276.8 256.3,273.0 256.5,269.2 256.8,267.2 257.0,266.0 257.2,265.9 257.4,265.9 257.7,266.3 257.9,266.1 258.1,264.9 258.4,262.9 258.6,264.3 258.8,261.4 259.0,261.9 259.3,267.3 259.5,266.5 259.7,267.9 259.9,266.6 260.2,267.7 260.4,266.9 260.6,266.9 260.9,268.2 261.1,268.5 261.3,270.0 261.5,268.6 261.8,269.3 262.0,270.7 262.2,271.4 262.4,271.3 262.7,272.1 262.9,271.3 263.1,269.0 263.4,268.7 263.6,264.9 263.8,264.0 264.0,264.0 264.3,263.2 264.5,263.9 264.7,264.1 264.9,259.9 265.2,258.3 265.4,261.0 265.6,259.8 265.9,258.7 266.1,260.5 266.3,259.8 266.5,256.8 266.8,255.5 267.0,257.6 267.2,258.5 267.4,256.0 267.7,256.0 267.9,257.4 268.1,258.7 268.3,259.3 268.6,258.5 268.8,258.5 269.0,259.0 269.3,254.9 269.5,252.2 269.7,250.0 269.9,251.4 270.2,253.3 270.4,252.8 270.6,253.3 270.8,253.6 271.1,253.6 271.3,254.6 271.5,254.1 271.8,260.5 272.0,257.4 272.2,260.8 272.4,259.9 272.7,258.2 272.9,258.9 273.1,259.5 273.3,258.8 273.6,261.0 273.8,262.0 274.0,264.5 274.3,264.9 274.5,266.1 274.7,263.7 274.9,263.1 275.2,264.0 275.4,261.9 275.6,262.6 275.8,263.8 276.1,262.6 276.3,261.3 276.5,262.3 276.8,268.0 277.0,267.7 277.2,269.1 277.4,268.6 277.7,268.8 277.9,268.1 278.1,269.0 278.3,269.3 278.6,269.3 278.8,269.3 279.0,268.4 279.3,268.8 279.5,267.7 279.7,268.5 279.9,268.7 280.2,268.0 280.4,268.7 280.6,269.0 280.8,270.7 281.1,270.2 281.3,271.5 281.5,271.7 281.7,270.5 282.0,270.7 282.2,272.0 282.4,272.9 282.7,273.9 282.9,273.2 283.1,274.1 283.3,275.1 283.6,275.1 283.8,277.4 284.0,276.4 284.2,275.1 284.5,276.0 284.7,276.0 284.9,275.9 285.2,275.0 285.4,272.4 285.6,272.7 285.8,273.3 286.1,273.3 286.3,272.2 286.5,272.6 286.7,270.7 287.0,271.5 287.2,272.4 287.4,271.3 287.7,271.5 287.9,271.7 288.1,271.5 288.3,272.0 288.6,271.7 288.8,272.7 289.0,271.5 289.2,271.5 289.5,270.4 289.7,271.4 289.9,271.5 290.2,272.0 290.4,273.0 290.6,272.6 290.8,272.0 291.1,272.6 291.3,273.2 291.5,272.5 291.7,272.6 292.0,272.8 292.2,273.1 292.4,272.5 292.7,272.4 292.9,272.6 293.1,271.7 293.3,272.2 293.6,271.3 293.8,271.0 294.0,271.2 294.2,272.1 294.5,272.5 294.7,273.9 294.9,274.2 295.1,273.6 295.4,273.5 295.6,273.5 295.8,273.2 296.1,272.9 296.3,273.4 296.5,273.0 296.7,273.3 297.0,274.2 297.2,274.4 297.4,274.0 297.6,273.3 297.9,273.3 298.1,273.4 298.3,274.0 298.6,273.7 298.8,273.6 299.0,273.7 299.2,273.5 299.5,273.7 299.7,274.0 299.9,274.2 300.1,274.7 300.4,274.2 300.6,274.0 300.8,274.2 301.1,274.7 301.3,275.0 301.5,275.1 301.7,275.4 302.0,274.8 302.2,274.5 302.4,274.4 302.6,274.5 302.9,274.5 303.1,274.8 303.3,274.5 303.6,273.7 303.8,273.7 304.0,273.6 304.2,276.1 304.5,276.0 304.7,275.8 304.9,276.9 305.1,275.6 305.4,276.4 305.6,276.5 305.8,276.4 306.0,275.6 306.3,275.9 306.5,276.1 306.7,276.5 307.0,277.9 307.2,277.8 307.4,276.9 307.6,277.3 307.9,277.0 308.1,276.4 308.3,276.3 308.5,276.5 308.8,276.9 309.0,276.8 309.2,276.5 309.5,276.8 309.7,276.4 309.9,275.5 310.1,276.4 310.4,275.9 310.6,276.2 310.8,276.8 311.0,276.4 311.3,276.4 311.5,275.6 311.7,275.4 312.0,275.6 312.2,275.2 312.4,274.8 312.6,275.3 312.9,275.6 313.1,274.9 313.3,274.7 313.5,275.3 313.8,275.5 314.0,275.7 314.2,276.2 314.5,276.2 314.7,276.3 314.9,275.9 315.1,276.2 315.4,275.9 315.6,275.8 315.8,275.8 316.0,275.7 316.3,275.9 316.5,275.6 316.7,276.0 317.0,276.5 317.2,277.1 317.4,277.0 317.6,276.7 317.9,276.7 318.1,278.9 318.3,278.7 318.5,278.9 318.8,279.2 319.0,278.9 319.2,278.6 319.4,278.5 319.7,279.1 319.9,279.1 320.1,278.8 320.4,279.2 320.6,279.3 320.8,279.9 321.0,279.3 321.3,279.5 321.5,279.6 321.7,279.5 321.9,278.9 322.2,278.5 322.4,277.7 322.6,277.0 322.9,277.3 323.1,277.2 323.3,277.4 323.5,275.7 323.8,277.5 324.0,277.6 324.2,277.7 324.4,277.8 324.7,277.9 324.9,277.6 325.1,278.1 325.4,278.8 325.6,278.6 325.8,278.4 326.0,278.9 326.3,278.8 326.5,278.6 326.7,278.2 326.9,278.4 327.2,278.9 327.4,278.9 327.6,278.6 327.9,278.8 328.1,278.8 328.3,278.7 328.5,278.5 328.8,278.4 329.0,278.0 329.2,277.7 329.4,277.5 329.7,277.6 329.9,277.8 330.1,277.8 330.4,277.6 330.6,277.8 330.8,277.6 331.0,277.2 331.3,277.6 331.5,277.6 331.7,277.5 331.9,277.8 332.2,277.9 332.4,277.2 332.6,276.4 332.8,276.2 333.1,276.2 333.3,276.4 333.5,276.4 333.8,276.0 334.0,275.9 334.2,275.8 334.4,276.1 334.7,276.1 334.9,275.7 335.1,275.5 335.3,275.6 335.6,275.5 335.8,275.1 336.0,275.2 336.3,275.4 336.5,274.4 336.7,274.9 336.9,275.4 337.2,274.9 337.4,274.0 337.6,274.7 337.8,275.1 338.1,274.8 338.3,275.7 338.5,275.3 338.8,275.2 339.0,274.7 339.2,275.0 339.4,275.6 339.7,275.9 339.9,275.7 340.1,276.4 340.3,275.6 340.6,275.6 340.8,275.7 341.0,275.3 341.3,274.2 341.5,274.8 341.7,274.0 341.9,274.5 342.2,274.8 342.4,275.3 342.6,275.6 342.8,276.6 343.1,276.1 343.3,276.7 343.5,277.8 343.8,277.4 344.0,277.6 344.2,277.4 344.4,277.3 344.7,277.3 344.9,277.6 345.1,277.7 345.3,277.5 345.6,276.7 345.8,277.7 346.0,279.2 346.2,279.2 346.5,278.6 346.7,279.0 346.9,279.1 347.2,280.0 347.4,280.2 347.6,280.6 347.8,282.3 348.1,281.6 348.3,281.6 348.5,281.8 348.7,282.1 349.0,283.2 349.2,285.1 349.4,284.5 349.7,285.4 349.9,286.0 350.1,287.7 350.3,287.6 350.6,286.7 350.8,286.9 351.0,287.8 351.2,287.2 351.5,286.2 351.7,285.5 351.9,286.5 352.2,286.5 352.4,286.1 352.6,285.9 352.8,284.6 353.1,283.0 353.3,284.8 353.5,284.5 353.7,283.8 354.0,283.6 354.2,284.0 354.4,284.2 354.7,284.1 354.9,283.4 355.1,283.9 355.3,283.8 355.6,283.7 355.8,282.9 356.0,283.6 356.2,284.3 356.5,283.2 356.7,282.4 356.9,282.2 357.1,280.2 357.4,280.2 357.6,280.6 357.8,280.3 358.1,280.7 358.3,280.2 358.5,279.6 358.7,279.8 359.0,280.4 359.2,280.4 359.4,279.9 359.6,280.0 359.9,279.1 360.1,279.1 360.3,278.8 360.6,277.8 360.8,276.9 361.0,274.6 361.2,275.6 361.5,274.9 361.7,271.1 361.9,271.8 362.1,273.2 362.4,272.3 362.6,273.7 362.8,272.2 363.1,272.3 363.3,271.4 363.5,269.2 363.7,268.2 364.0,271.5 364.2,268.2 364.4,269.6 364.6,268.6 364.9,269.3 365.1,270.0 365.3,270.5 365.6,270.2 365.8,271.8 366.0,273.9 366.2,275.6 366.5,275.1 366.7,275.6 366.9,277.2 367.1,276.9 367.4,275.9 367.6,276.4 367.8,275.6 368.1,276.1 368.3,275.2 368.5,273.9 368.7,275.6 369.0,275.4 369.2,276.4 369.4,277.1 369.6,276.7 369.9,276.5 370.1,276.4 370.3,276.7 370.5,277.1 370.8,278.1 371.0,277.9 371.2,278.8 371.5,277.9 371.7,277.6 371.9,277.3 372.1,277.5 372.4,277.9 372.6,277.8 372.8,277.7 373.0,277.4 373.3,276.9 373.5,274.4 373.7,274.4 374.0,273.1 374.2,274.8 374.4,274.0 374.6,274.3 374.9,274.7 375.1,274.9 375.3,275.5 375.5,276.7 375.8,275.8 376.0,275.4 376.2,275.6 376.5,275.4 376.7,276.0 376.9,276.7 377.1,276.0 377.4,276.2 377.6,276.6 377.8,276.3 378.0,275.9 378.3,275.8 378.5,275.1 378.7,275.8 379.0,275.2 379.2,274.8 379.4,275.1 379.6,275.2 379.9,275.6 380.1,274.8 380.3,277.2 380.5,278.9 380.8,278.3 381.0,277.7 381.2,277.3 381.5,276.9 381.7,276.8 381.9,277.0 382.1,277.0 382.4,277.5 382.6,278.1 382.8,278.3 383.0,278.0 383.3,278.2 383.5,278.2 383.7,279.1 383.9,279.1 384.2,280.2 384.4,279.7 384.6,280.1 384.9,279.7 385.1,280.5 385.3,280.2 385.5,279.7 385.8,279.2 386.0,279.7 386.2,279.5 386.4,279.8 386.7,279.5 386.9,279.1 387.1,279.5 387.4,279.6 387.6,280.5 387.8,280.7 388.0,280.7 388.3,280.4 388.5,279.9 388.7,280.3 388.9,279.9 389.2,279.5 389.4,279.6 389.6,279.1 389.9,279.1 390.1,279.2 390.3,279.5 390.5,280.0 390.8,279.5 391.0,280.0 391.2,280.6 391.4,280.5 391.7,280.5 391.9,281.0 392.1,281.4 392.4,281.7 392.6,282.1 392.8,282.1 393.0,283.1 393.3,282.6 393.5,282.6 393.7,282.8 393.9,283.4 394.2,282.7 394.4,282.4 394.6,282.6 394.9,282.8 395.1,282.4 395.3,282.6 395.5,282.4 395.8,282.5 396.0,282.4 396.2,282.8 396.4,282.9 396.7,281.8 396.9,281.9 397.1,281.8 397.3,281.6 397.6,281.4 397.8,280.5 398.0,281.2 398.3,281.8 398.5,281.8 398.7,282.1 398.9,282.2 399.2,281.8 399.4,281.6 399.6,281.6 399.8,281.4 400.1,281.3 400.3,281.3 400.5,281.3 400.8,281.4 401.0,280.8 401.2,280.4 401.4,279.9 401.7,280.3 401.9,280.8 402.1,280.2 402.3,279.8 402.6,280.1 402.8,280.0 403.0,280.0 403.3,280.6 403.5,280.5 403.7,281.2 403.9,281.4 404.2,281.5 404.4,281.2 404.6,281.4 404.8,281.3 405.1,280.7 405.3,281.0 405.5,281.2 405.8,281.0 406.0,281.3 406.2,281.1 406.4,281.1 406.7,281.4 406.9,282.1 407.1,282.2 407.3,282.0 407.6,282.1 407.8,282.1 408.0,281.7 408.2,281.6 408.5,281.3 408.7,280.8 408.9,280.7 409.2,280.8 409.4,281.1 409.6,280.8 409.8,281.0 410.1,281.4 410.3,281.1 410.5,281.2 410.7,281.4 411.0,281.4 411.2,281.6 411.4,282.2 411.7,281.8 411.9,281.8 412.1,281.8 412.3,281.9 412.6,282.1 412.8,282.2 413.0,282.2 413.2,282.3 413.5,282.3 413.7,282.7 413.9,283.1 414.2,283.3 414.4,283.0 414.6,283.7 414.8,282.5 415.1,282.7 415.3,282.4 415.5,282.4 415.7,282.9 416.0,282.9 416.2,283.0 416.4,283.3 416.7,283.3 416.9,283.4 417.1,283.2 417.3,283.1 417.6,283.3 417.8,283.5 418.0,283.3 418.2,283.2 418.5,282.9 418.7,283.0 418.9,283.2 419.2,283.1 419.4,283.0 419.6,283.2 419.8,283.3 420.1,283.4 420.3,283.7 420.5,283.6 420.7,283.5 421.0,283.6 421.2,283.6 421.4,283.5 421.6,283.5 421.9,283.5 422.1,283.5 422.3,283.5 422.6,283.6 422.8,283.5 423.0,283.5 423.2,283.8 423.5,283.7 423.7,283.7 423.9,283.7 424.1,283.8 424.4,283.9 424.6,283.7 424.8,283.9 425.1,284.0 425.3,284.0 425.5,284.3 425.7,284.2 426.0,284.9 426.2,285.1 426.4,285.4 426.6,285.4 426.9,285.5 427.1,285.4 427.3,285.4 427.6,285.5 427.8,285.3 428.0,284.8 428.2,284.9 428.5,284.7 428.7,285.7 428.9,286.7 429.1,286.0 429.4,286.5 429.6,286.3 429.8,286.3 430.1,285.9 430.3,286.0 430.5,285.9 430.7,285.8 431.0,285.7 431.2,285.4 431.4,284.6 431.6,283.3 431.9,283.7 432.1,284.0 432.3,284.0 432.6,283.1 432.8,283.7 433.0,283.7 433.2,283.9 433.5,283.9 433.7,284.0 433.9,284.5 434.1,284.3 434.4,284.8 434.6,285.0 434.8,284.4 435.0,284.3 435.3,284.1 435.5,284.2 435.7,284.6 436.0,284.8 436.2,285.2 436.4,285.5 436.6,285.6 436.9,285.5 437.1,285.3 437.3,285.2 437.5,285.4 437.8,285.5 438.0,285.4 438.2,285.1 438.5,285.0 438.7,284.9 438.9,285.2 439.1,285.4 439.4,285.7 439.6,285.7 439.8,285.6 440.0,285.8 440.3,285.7 440.5,285.9 440.7,285.9 441.0,285.5 441.2,285.5 441.4,285.7 441.6,285.7 441.9,285.9 442.1,286.1 442.3,286.2 442.5,286.0 442.8,286.0 443.0,285.9 443.2,286.2 443.5,285.9 443.7,286.0 443.9,285.1 444.1,284.9 444.4,284.5 444.6,284.3 444.8,285.3 445.0,285.4 445.3,284.8 445.5,284.6 445.7,284.4 446.0,284.5 446.2,284.7 446.4,284.8 446.6,285.0 446.9,285.3 447.1,285.7 447.3,286.2 447.5,286.2 447.8,285.6 448.0,285.9 448.2,286.1 448.4,286.3 448.7,286.2 448.9,286.2 449.1,286.2 449.4,286.6 449.6,286.6 449.8,286.2 450.0,286.2 450.3,285.9 450.5,286.0 450.7,286.4 450.9,286.3 451.2,286.3 451.4,286.4 451.6,286.4 451.9,286.4 452.1,286.6 452.3,286.6 452.5,286.8 452.8,286.6 453.0,286.3 453.2,286.4 453.4,286.6 453.7,286.5 453.9,286.8 454.1,286.8 454.4,286.8 454.6,286.5 454.8,286.4 455.0,286.9 455.3,287.3 455.5,287.4 455.7,287.5 455.9,287.4 456.2,287.3 456.4,287.4 456.6,287.5 456.9,287.5 457.1,287.5 457.3,287.6 457.5,287.8 457.8,288.1 458.0,288.5 458.2,288.1 458.4,287.8 458.7,287.6 458.9,287.7 459.1,287.7 459.3,287.9 459.6,288.4 459.8,288.4 460.0,288.4 460.3,288.2 460.5,288.2 460.7,288.2 460.9,288.3 461.2,288.2 461.4,287.9 461.6,287.7 461.8,287.7 462.1,287.5 462.3,287.5 462.5,287.4 462.8,287.3 463.0,287.4 463.2,287.4 463.4,287.2 463.7,287.3 463.9,287.1 464.1,286.8 464.3,286.9 464.6,287.2 464.8,287.2 465.0,287.6 465.3,287.6 465.5,287.3 465.7,287.2 465.9,287.4 466.2,287.6 466.4,287.6 466.6,287.2 466.8,287.0 467.1,286.8 467.3,286.8 467.5,287.0 467.8,287.0 468.0,287.1 468.2,287.5 468.4,287.5 468.7,287.4 468.9,287.7 469.1,287.3 469.3,287.8 469.6,287.5 469.8,287.9 470.0,288.2 470.3,288.1 470.5,288.2 470.7,288.1 470.9,288.0 471.2,288.2 471.4,288.1 471.6,288.1 471.8,288.1 472.1,288.0 472.3,287.9 472.5,287.9 472.7,287.9 473.0,288.0 473.2,288.0 473.4,287.9 473.7,287.9 473.9,287.9 474.1,287.9 474.3,288.1 474.6,288.1 474.8,288.2 475.0,288.2 475.2,288.2 475.5,288.3 475.7,288.2 475.9,288.3 476.2,288.3 476.4,288.3 476.6,288.4 476.8,288.3 477.1,288.5 477.3,288.4 477.5,288.5 477.7,288.5 478.0,288.3 478.2,288.5 478.4,288.4 478.7,288.5 478.9,288.5 479.1,288.5 479.3,288.5 479.6,288.5 479.8,288.5 480.0,288.5 480.2,288.3 480.5,288.3 480.7,288.3 480.9,288.3 481.2,288.3 481.4,288.4 481.6,288.4 481.8,288.4 482.1,288.3 482.3,288.4 482.5,288.4 482.7,288.4 483.0,288.4 483.2,288.4 483.4,288.4 483.7,288.4 483.9,288.4 484.1,288.4 484.3,288.4 484.6,288.4 484.8,288.4 485.0,288.2 485.2,288.4 485.5,288.4 485.7,288.2 485.9,288.2 486.1,288.3 486.4,288.4 486.6,288.2 486.8,288.4 487.1,288.4 487.3,288.4 487.5,288.4 487.7,288.2 488.0,288.2 488.2,288.4 488.4,288.4 488.6,288.4 488.9,288.4 489.1,288.4 489.3,288.4 489.6,288.5 489.8,288.5 490.0,288.5 490.2,288.5 490.5,288.6 490.7,288.6 490.9,288.8 491.1,288.8 491.4,288.9 491.6,288.7 491.8,288.9 492.1,288.8 492.3,288.9 492.5,288.9 492.7,288.9 493.0,289.0 493.2,289.0 493.4,289.0 493.6,289.0 493.9,288.7 494.1,288.5 494.3,288.6 494.6,288.6 494.8,288.9 495.0,288.8 495.2,288.7 495.5,288.9 495.7,288.9 495.9,288.9 496.1,288.9 496.4,288.9 496.6,288.8 496.8,288.9 497.1,288.9 497.3,288.9 497.5,288.8 497.7,288.8 498.0,288.9 498.2,289.0 498.4,289.0 498.6,289.0 498.9,288.9 499.1,288.9 499.3,288.9 499.5,288.8 499.8,288.9 500.0,289.0 500.2,289.0 500.5,288.9 500.7,288.9 500.9,289.0 501.1,289.0 501.4,289.1 501.6,289.1 501.8,289.0 502.0,289.0 502.3,289.1 502.5,289.3 502.7,289.3 503.0,289.2 503.2,289.3 503.4,289.4 503.6,289.5 503.9,289.5 504.1,289.5 504.3,289.8 504.5,289.8 504.8,289.8 505.0,290.0 505.2,290.0 505.5,289.9 505.7,290.0 505.9,290.0 506.1,290.0 506.4,290.0 506.6,289.9 506.8,289.9 507.0,290.0 507.3,289.9 507.5,290.1 507.7,290.0 508.0,290.0 508.2,289.9 508.4,289.8 508.6,289.7 508.9,289.7 509.1,289.7 509.3,289.7 509.5,289.6 509.8,289.7 510.0,289.7 510.2,289.6 510.4,289.8 510.7,289.8 510.9,289.7 511.1,289.6 511.4,289.6 511.6,289.6 511.8,289.9 512.0,289.8 512.3,290.0 512.5,290.0 512.7,290.1 512.9,290.0 513.2,290.0 513.4,290.0 513.6,290.0 513.9,290.0 514.1,289.8 514.3,289.7 514.5,289.7 514.8,289.7 515.0,289.6 515.2,289.7 515.4,289.5 515.7,289.5 515.9,289.6 516.1,289.7 516.4,289.8 516.6,289.8 516.8,289.8 517.0,289.8 517.3,289.8 517.5,289.8 517.7,289.8 517.9,289.8 518.2,289.8 518.4,289.2 518.6,289.0 518.9,289.0 519.1,289.2 519.3,289.0 519.5,288.9 519.8,288.9 520.0,289.0 520.2,289.1 520.4,289.2 520.7,289.2 520.9,289.2 521.1,289.2 521.4,289.3 521.6,289.1 521.8,289.0 522.0,289.1 522.3,289.2 522.5,289.2 522.7,289.1 522.9,289.0 523.2,289.1 523.4,288.9 523.6,288.9 523.8,288.7 524.1,288.8 524.3,288.7 524.5,288.8 524.8,288.8 525.0,288.7 525.2,288.7 525.4,288.5 525.7,288.3 525.9,288.3 526.1,288.5 526.3,288.5 526.6,288.4 526.8,288.5 527.0,288.6 527.3,288.4 527.5,288.5 527.7,288.1 527.9,288.1 528.2,288.0 528.4,288.0 528.6,287.2 528.8,287.6 529.1,287.8 529.3,287.9 529.5,287.3 529.8,287.6 530.0,287.6 530.2,287.5 530.4,287.6 530.7,287.8 530.9,287.0 531.1,286.7 531.3,283.7 531.6,283.8 531.8,284.0 532.0,284.5 532.3,285.4 532.5,285.6 532.7,285.6 532.9,284.4 533.2,284.5 533.4,284.4 533.6,284.7 533.8,285.2 534.1,285.6 534.3,285.4 534.5,285.7 534.8,285.5 535.0,286.3 535.2,286.2 535.4,286.3 535.7,286.3 535.9,286.2 536.1,286.0 536.3,286.3 536.6,286.4 536.8,286.5 537.0,286.5 537.2,286.3 537.5,286.5 537.7,286.4 537.9,286.4 538.2,286.7 538.4,286.7 538.6,286.9 538.8,286.8 539.1,286.8 539.3,287.0 539.5,287.1 539.7,287.3 540.0,287.9 540.2,288.1 540.4,288.3 540.7,288.2 540.9,287.9 541.1,287.9 541.3,287.8 541.6,287.7 541.8,287.4 542.0,287.6 542.2,287.2 542.5,287.1 542.7,287.2 542.9,287.1 543.2,287.3 543.4,287.3 543.6,287.4 543.8,287.6 544.1,287.5 544.3,287.3 544.5,287.2 544.7,287.3 545.0,287.4 545.2,287.5 545.4,287.5 545.7,287.6 545.9,287.6 546.1,287.4 546.3,287.4 546.6,287.5 546.8,287.1 547.0,287.1 547.2,287.0 547.5,286.8 547.7,287.5 547.9,287.4 548.2,287.3 548.4,287.3 548.6,287.4 548.8,287.5 549.1,287.7 549.3,287.8 549.5,288.1 549.7,287.8 550.0,287.9 550.2,287.7 550.4,287.9 550.6,288.1 550.9,288.1 551.1,288.2 551.3,288.1 551.6,288.2 551.8,288.3 552.0,288.4 552.2,288.4 552.5,288.3 552.7,288.1 552.9,288.2 553.1,288.4 553.4,288.3 553.6,288.3 553.8,288.1 554.1,288.3 554.3,288.7 554.5,288.5 554.7,288.6 555.0,288.5 555.2,288.4 555.4,288.4 555.6,288.4 555.9,288.5 556.1,288.6 556.3,288.6 556.6,288.8 556.8,288.7 557.0,288.7 557.2,288.9 557.5,289.0 557.7,288.9 557.9,288.9 558.1,289.0 558.4,289.0 558.6,289.0 558.8,289.1 559.1,289.2 559.3,288.7 559.5,289.0 559.7,289.1 560.0,289.3 560.2,289.2 560.4,289.4 560.6,289.5 560.9,287.7 561.1,287.0 561.3,286.0 561.6,285.6 561.8,285.1 562.0,283.4 562.2,283.2 562.5,283.7 562.7,280.7 562.9,277.9 563.1,273.9 563.4,275.4 563.6,273.8 563.8,275.2 564.0,277.3 564.3,277.2 564.5,278.7 564.7,278.4 565.0,277.5 565.2,278.4 565.4,277.2 565.6,277.1 565.9,277.7 566.1,277.9 566.3,274.4 566.5,276.1 566.8,274.8 567.0,274.3 567.2,275.4 567.5,275.9 567.7,275.9 567.9,275.5 568.1,273.2 568.4,269.8 568.6,269.9 568.8,273.1 569.0,273.1 569.3,269.3 569.5,267.0 569.7,267.3 570.0,267.9 570.2,267.4 570.4,261.7 570.6,256.0 570.9,265.4 571.1,265.5 571.3,267.9 571.5,267.8 571.8,264.2 572.0,266.6 572.2,267.5 572.5,267.5 572.7,267.6 572.9,268.7 573.1,270.1 573.4,270.7 573.6,270.8 573.8,270.9 574.0,271.4 574.3,271.3 574.5,271.4 574.7,272.3 574.9,272.1 575.2,271.4 575.4,269.4 575.6,266.5 575.9,261.5 576.1,255.8 576.3,244.4 576.5,233.0 576.8,217.8 577.0,198.8 577.2,179.9 577.4,206.4 577.7,225.4 577.9,221.0 578.1,235.1 578.4,236.7 578.6,233.4 578.8,239.1 579.0,229.9 579.3,214.7 579.5,207.2 579.7,211.0 579.9,211.0 580.2,223.5 580.4,230.4 580.6,235.6 580.9,235.3 581.1,234.4 581.3,233.4 581.5,239.8 581.8,241.6 582.0,226.4 582.2,229.7 582.4,232.3 582.7,231.7 582.9,235.3 583.1,235.5 583.4,237.5 583.6,239.9 583.8,239.9 584.0,239.2 584.3,224.0 584.5,223.6 584.7,230.3 584.9,233.8 585.2,230.2 585.4,222.8 585.6,225.6 585.9,228.2 586.1,225.1 586.3,223.2 586.5,223.9 586.8,226.9 587.0,227.5 587.2,224.2 587.4,226.2 587.7,227.9 587.9,230.6 588.1,232.2 588.3,230.4 588.6,228.4 588.8,229.9 589.0,229.6 589.3,227.5 589.5,229.6 589.7,229.2 589.9,224.4 590.2,226.2 590.4,223.6 590.6,224.7 590.8,228.5 591.1,227.8 591.3,227.7 591.5,230.4 591.8,233.0 592.0,237.2 592.2,237.4 592.4,238.5 592.7,239.9 592.9,242.0 593.1,238.0 593.3,238.9 593.6,234.5 593.8,239.1 594.0,244.2 594.3,255.5 594.5,249.7 594.7,247.6 594.9,248.9 595.2,249.2 595.4,247.8 595.6,247.9 595.8,246.6 596.1,249.5 596.3,252.4 596.5,252.4 596.8,252.4 597.0,244.8 597.2,247.8 597.4,247.3 597.7,250.4 597.9,252.4 598.1,251.6 598.3,249.7 598.6,247.3 598.8,243.1 599.0,247.4 599.3,248.2 599.5,250.8 599.7,252.2 599.9,251.9 600.2,253.9 600.4,250.4 600.6,250.9 600.8,252.8 601.1,254.9 601.3,254.1 601.5,254.1 601.7,249.5 602.0,249.5 602.2,252.7 602.4,246.2 602.7,249.2 602.9,246.1 603.1,245.1 603.3,248.4 603.6,247.3 603.8,251.3 604.0,252.7 604.2,252.4 604.5,254.0 604.7,253.4 604.9,253.4 605.2,254.3 605.4,254.8 605.6,252.9 605.8,252.4 606.1,252.4 606.3,253.9 606.5,255.9 606.7,259.2 607.0,256.7 607.2,253.4 607.4,254.3 607.7,254.6 607.9,257.1 608.1,258.1 608.3,257.8 608.6,257.6 608.8,257.4 609.0,256.9 609.2,257.6 609.5,257.9 609.7,258.3 609.9,262.8 610.2,261.1 610.4,261.4 610.6,261.3 610.8,261.7 611.1,260.0 611.3,261.5 611.5,263.9 611.7,264.5 612.0,264.4 612.2,267.2 612.4,269.1 612.7,268.4 612.9,269.1 613.1,268.7 613.3,268.4 613.6,270.8 613.8,272.8 614.0,273.1 614.2,272.9 614.5,273.2 614.7,274.2 614.9,274.3 615.1,274.0 615.4,275.1 615.6,273.5 615.8,274.1 616.1,272.5 616.3,274.3 616.5,274.0 616.7,272.8 617.0,273.1 617.2,273.6 617.4,272.1 617.6,271.7 617.9,273.1 618.1,272.9 618.3,273.9 618.6,274.2 618.8,274.3 619.0,275.4 619.2,273.7 619.5,274.0 619.7,273.6 619.9,273.5 620.1,271.8 620.4,272.3 620.6,271.0 620.8,270.3 621.1,271.5 621.3,272.1 621.5,272.6 621.7,271.9 622.0,272.4 622.2,272.1 622.4,269.6 622.6,269.4 622.9,268.3 623.1,269.6 623.3,269.4 623.6,273.0 623.8,273.1 624.0,276.2 624.2,275.2 624.5,273.3 624.7,271.2 624.9,269.7 625.1,269.0 625.4,270.4 625.6,264.7 625.8,263.3 626.0,264.0 626.3,259.3 626.5,260.3 626.7,257.9 627.0,257.7 627.2,259.1 627.4,261.4 627.6,260.0 627.9,258.6 628.1,257.4 628.3,259.5 628.5,260.5 628.8,260.1 629.0,259.0 629.2,260.8 629.5,261.2 629.7,262.0 629.9,262.5 630.1,264.6 630.4,266.6 630.6,267.0 630.8,269.1 631.0,273.1 631.3,270.9 631.5,272.9 631.7,270.4 632.0,269.7 632.2,269.1 632.4,268.1 632.6,268.5 632.9,267.7 633.1,267.0 633.3,266.2 633.5,266.3 633.8,263.4 634.0,262.8 634.2,264.2 634.5,264.5 634.7,264.7 634.9,264.5 635.1,265.2 635.4,266.0 635.6,266.3 635.8,266.8 636.0,266.0 636.3,264.5 636.5,263.4 636.7,262.5 637.0,268.2 637.2,268.9 637.4,270.3 637.6,270.1 637.9,270.5 638.1,271.3 638.3,271.0 638.5,270.9 638.8,271.1 639.0,265.4 639.2,259.7 639.4,248.3 639.7,244.4 639.9,233.0 640.1,228.8 640.4,230.3 640.6,215.1 640.8,202.6 641.0,211.0 641.3,205.8 641.5,212.1 641.7,214.9 641.9,201.9 642.2,219.1 642.4,208.3 642.6,211.2 642.9,217.5 643.1,223.0 643.3,229.1 643.5,236.7 643.8,240.6 644.0,238.2 644.2,238.8 644.4,239.1 644.7,238.9 644.9,223.7 645.1,208.5 645.4,189.5 645.6,170.4 645.8,143.8 646.0,170.4 646.3,169.0 646.5,177.6 646.7,174.4 646.9,147.8 647.2,164.3 647.4,156.5 647.6,147.8 647.9,157.6 648.1,163.0 648.3,169.6 648.5,177.6 648.8,167.9 649.0,168.5 649.2,180.2 649.4,190.3 649.7,188.8 649.9,187.8 650.1,182.9 650.4,174.4 650.6,178.0 650.8,204.5 651.0,200.5 651.3,194.4 651.5,181.4 651.7,175.1 651.9,184.4 652.2,181.0 652.4,189.7 652.6,197.6 652.8,199.9 653.1,204.9 653.3,210.9 653.5,214.3 653.8,203.1 654.0,201.2 654.2,191.4 654.4,201.9 654.7,200.9 654.9,199.9 655.1,197.9 655.3,190.2 655.6,209.2 655.8,228.2 656.0,213.0 656.3,218.5 656.5,220.7 656.7,219.0 656.9,208.1 657.2,189.4 657.4,183.5 657.6,194.8 657.8,213.7 658.1,214.3 658.3,219.4 658.5,222.0 658.8,218.8 659.0,215.6 659.2,227.0 659.4,236.8 659.7,241.5 659.9,244.2 660.1,240.0 660.3,241.6 660.6,238.6 660.8,240.1 661.0,243.0 661.3,237.1 661.5,233.5 661.7,234.9 661.9,230.1 662.2,230.0 662.4,233.2 662.6,234.2 662.8,226.4 663.1,225.9 663.3,218.6 663.5,223.5 663.8,226.0 664.0,212.0 664.2,208.6 664.4,196.5 664.7,197.3 664.9,199.0 665.1,204.1 665.3,210.2 665.6,215.9 665.8,212.1 666.0,213.3 666.2,215.7 666.5,221.2 666.7,221.7 666.9,206.1 667.2,208.8 667.4,213.8 667.6,217.6 667.8,215.6 668.1,219.4 668.3,216.9 668.5,218.8 668.7,218.8 669.0,221.2 669.2,220.6 669.4,221.6 669.7,222.3 669.9,223.3 670.1,226.4 670.3,228.3 670.6,226.5 670.8,221.7 671.0,222.6 671.2,221.1 671.5,223.1 671.7,224.9 671.9,223.2 672.2,223.3 672.4,219.0 672.6,217.6 672.8,215.6 673.1,212.1 673.3,215.7 673.5,215.7 673.7,214.6 674.0,212.4 674.2,214.8 674.4,218.4 674.7,219.7 674.9,221.9 675.1,222.1 675.3,222.1 675.6,222.1 675.8,222.1 676.0,222.3 676.2,223.8 676.5,227.9 676.7,228.5 676.9,227.9 677.1,228.2 677.4,230.9 677.6,232.7 677.8,230.5 678.1,225.9 678.3,220.9 678.5,226.6 678.7,223.7 679.0,226.0 679.2,226.6 679.4,225.1 679.6,227.6 679.9,230.3 680.1,229.3 680.3,227.9 680.6,227.1 680.8,230.8 681.0,234.2 681.2,240.8 681.5,239.2 681.7,239.7 681.9,240.4 682.1,236.3 682.4,234.9 682.6,234.7 682.8,237.5 683.1,238.5 683.3,240.9 683.5,240.5 683.7,242.7 684.0,250.0 684.2,248.9 684.4,244.8 684.6,246.1 684.9,246.3 685.1,248.4 685.3,250.9 685.6,247.0 685.8,247.6 686.0,248.3 686.2,249.1 686.5,249.6 686.7,246.6 686.9,246.7 687.1,247.3 687.4,247.3 687.6,244.2 687.8,243.2 688.1,240.4 688.3,238.3 688.5,238.7 688.7,238.8 689.0,241.2 689.2,242.0 689.4,242.9 689.6,243.4 689.9,242.0 690.1,242.6 690.3,243.1 690.5,235.0 690.8,219.8 691.0,209.5 691.2,213.7 691.5,212.6 691.7,217.5 691.9,210.1 692.1,191.1 692.4,172.1 692.6,170.0 692.8,143.4 693.0,116.8 693.3,128.6 693.5,119.9 693.7,130.7 694.0,103.9 694.2,65.9 694.4,97.5 694.6,133.5 694.9,106.9 695.1,83.0 695.3,113.0 695.5,111.5 695.8,124.8 696.0,135.2"/>
  <polyline fill="none" stroke="#16a34a" stroke-width="2" points="56.0,259.2 56.2,247.8 56.5,257.9 56.7,259.4 56.9,255.9 57.1,244.5 57.4,237.6 57.6,241.1 57.8,249.5 58.0,249.0 58.3,250.1 58.5,255.0 58.7,258.5 59.0,257.4 59.2,255.0 59.4,253.9 59.6,258.2 59.9,258.2 60.1,259.2 60.3,261.3 60.5,255.6 60.8,256.4 61.0,260.4 61.2,259.8 61.5,258.7 61.7,260.4 61.9,260.9 62.1,262.4 62.4,262.0 62.6,261.1 62.8,259.6 63.0,261.6 63.3,263.0 63.5,265.0 63.7,264.3 63.9,264.8 64.2,265.8 64.4,262.1 64.6,264.8 64.9,264.9 65.1,264.8 65.3,264.9 65.5,263.6 65.8,264.8 66.0,266.2 66.2,266.3 66.4,266.6 66.7,266.8 66.9,269.1 67.1,270.3 67.4,270.1 67.6,269.9 67.8,269.5 68.0,266.9 68.3,269.1 68.5,270.6 68.7,270.2 68.9,268.8 69.2,268.2 69.4,268.6 69.6,268.0 69.9,270.1 70.1,269.7 70.3,270.3 70.5,270.6 70.8,271.7 71.0,271.8 71.2,272.7 71.4,272.4 71.7,272.0 71.9,271.8 72.1,272.3 72.4,272.2 72.6,269.5 72.8,269.4 73.0,268.4 73.3,268.3 73.5,268.4 73.7,270.3 73.9,271.1 74.2,270.9 74.4,270.2 74.6,268.8 74.9,268.3 75.1,269.7 75.3,270.7 75.5,271.3 75.8,271.0 76.0,270.7 76.2,271.3 76.4,271.4 76.7,271.7 76.9,271.7 77.1,270.8 77.3,270.6 77.6,271.1 77.8,271.5 78.0,271.7 78.3,271.7 78.5,271.7 78.7,271.7 78.9,271.7 79.2,271.8 79.4,271.8 79.6,271.8 79.8,271.7 80.1,271.8 80.3,271.2 80.5,271.8 80.8,266.1 81.0,265.6 81.2,268.5 81.4,269.3 81.7,268.0 81.9,269.1 82.1,270.4 82.3,269.3 82.6,270.5 82.8,268.7 83.0,268.5 83.3,267.4 83.5,268.0 83.7,269.1 83.9,269.1 84.2,270.7 84.4,270.7 84.6,268.7 84.8,269.8 85.1,270.2 85.3,271.1 85.5,270.6 85.8,271.9 86.0,272.4 86.2,272.8 86.4,272.5 86.7,271.4 86.9,271.9 87.1,270.1 87.3,268.8 87.6,269.3 87.8,270.0 88.0,270.8 88.2,271.1 88.5,271.5 88.7,271.2 88.9,271.8 89.2,271.6 89.4,272.0 89.6,272.1 89.8,272.6 90.1,272.9 90.3,273.2 90.5,273.4 90.7,273.4 91.0,273.2 91.2,273.3 91.4,274.2 91.7,274.4 91.9,275.2 92.1,274.8 92.3,272.8 92.6,272.6 92.8,273.6 93.0,277.4 93.2,279.0 93.5,276.6 93.7,277.3 93.9,276.9 94.2,276.6 94.4,277.9 94.6,278.4 94.8,278.6 95.1,279.5 95.3,280.2 95.5,280.7 95.7,279.8 96.0,278.8 96.2,278.3 96.4,278.5 96.7,279.1 96.9,279.5 97.1,279.5 97.3,279.4 97.6,279.6 97.8,278.2 98.0,277.7 98.2,278.5 98.5,277.8 98.7,277.9 98.9,277.8 99.2,277.2 99.4,277.7 99.6,277.1 99.8,277.3 100.1,277.0 100.3,276.7 100.5,277.0 100.7,276.6 101.0,276.7 101.2,276.9 101.4,277.7 101.6,277.9 101.9,278.2 102.1,278.1 102.3,277.8 102.6,278.0 102.8,275.3 103.0,274.5 103.2,275.6 103.5,276.9 103.7,277.5 103.9,277.7 104.1,277.9 104.4,277.7 104.6,277.3 104.8,277.2 105.1,276.9 105.3,277.3 105.5,279.0 105.7,278.9 106.0,278.7 106.2,278.8 106.4,278.8 106.6,278.6 106.9,277.5 107.1,277.9 107.3,275.2 107.6,276.9 107.8,277.3 108.0,278.0 108.2,276.1 108.5,275.4 108.7,276.3 108.9,276.5 109.1,276.3 109.4,276.9 109.6,277.0 109.8,277.8 110.1,279.3 110.3,278.8 110.5,278.7 110.7,279.3 111.0,279.5 111.2,280.1 111.4,280.8 111.6,280.8 111.9,279.8 112.1,278.4 112.3,277.3 112.6,276.0 112.8,275.4 113.0,277.0 113.2,277.5 113.5,273.8 113.7,276.2 113.9,276.0 114.1,277.1 114.4,279.1 114.6,279.2 114.8,278.6 115.0,280.5 115.3,281.9 115.5,280.7 115.7,278.8 116.0,279.5 116.2,279.1 116.4,278.9 116.6,279.4 116.9,278.6 117.1,279.2 117.3,280.2 117.5,280.3 117.8,281.3 118.0,281.0 118.2,281.0 118.5,282.4 118.7,284.8 118.9,284.0 119.1,283.6 119.4,283.7 119.6,283.5 119.8,283.6 120.0,283.2 120.3,283.5 120.5,283.9 120.7,280.9 121.0,282.1 121.2,282.1 121.4,282.0 121.6,281.2 121.9,281.0 122.1,280.5 122.3,279.4 122.5,279.5 122.8,279.9 123.0,279.7 123.2,277.8 123.5,274.0 123.7,275.2 123.9,275.5 124.1,276.9 124.4,277.2 124.6,276.1 124.8,275.9 125.0,275.3 125.3,275.4 125.5,275.0 125.7,275.4 126.0,275.9 126.2,276.0 126.4,277.3 126.6,277.5 126.9,279.1 127.1,279.0 127.3,278.1 127.5,276.5 127.8,276.3 128.0,276.9 128.2,274.5 128.4,275.0 128.7,275.2 128.9,275.0 129.1,271.8 129.4,272.2 129.6,270.9 129.8,267.1 130.0,265.2 130.3,269.0 130.5,269.6 130.7,270.7 130.9,268.5 131.2,262.8 131.4,257.1 131.6,258.7 131.9,250.8 132.1,252.8 132.3,256.0 132.5,261.4 132.8,259.6 133.0,265.3 133.2,264.7 133.4,265.1 133.7,261.9 133.9,261.1 134.1,260.9 134.4,263.3 134.6,264.9 134.8,261.0 135.0,261.4 135.3,263.1 135.5,263.3 135.7,262.3 135.9,263.7 136.2,265.0 136.4,265.8 136.6,266.0 136.9,266.2 137.1,268.7 137.3,271.1 137.5,269.9 137.8,271.3 138.0,271.2 138.2,270.2 138.4,270.3 138.7,271.7 138.9,271.3 139.1,274.5 139.3,272.7 139.6,271.3 139.8,270.2 140.0,270.3 140.3,268.3 140.5,268.3 140.7,270.1 140.9,267.5 141.2,268.4 141.4,269.4 141.6,269.4 141.8,268.9 142.1,269.6 142.3,268.9 142.5,269.8 142.8,271.0 143.0,271.3 143.2,271.7 143.4,272.1 143.7,271.8 143.9,272.7 144.1,273.1 144.3,273.9 144.6,273.0 144.8,273.2 145.0,273.3 145.3,275.0 145.5,275.0 145.7,275.3 145.9,275.3 146.2,274.7 146.4,274.7 146.6,273.9 146.8,273.6 147.1,273.3 147.3,273.8 147.5,274.4 147.8,274.5 148.0,274.3 148.2,273.8 148.4,274.0 148.7,274.1 148.9,274.5 149.1,274.1 149.3,274.0 149.6,274.3 149.8,274.0 150.0,273.6 150.3,272.1 150.5,272.1 150.7,271.5 150.9,271.5 151.2,270.5 151.4,271.3 151.6,271.2 151.8,272.7 152.1,272.8 152.3,272.8 152.5,272.9 152.7,272.6 153.0,272.4 153.2,271.9 153.4,271.2 153.7,269.4 153.9,269.2 154.1,269.8 154.3,269.4 154.6,269.4 154.8,268.9 155.0,269.0 155.2,268.2 155.5,269.5 155.7,270.4 155.9,271.1 156.2,271.1 156.4,270.7 156.6,270.2 156.8,269.8 157.1,269.5 157.3,270.2 157.5,270.1 157.7,270.5 158.0,270.3 158.2,270.9 158.4,271.2 158.7,271.5 158.9,271.7 159.1,272.6 159.3,273.7 159.6,273.2 159.8,273.2 160.0,274.8 160.2,274.2 160.5,274.8 160.7,272.7 160.9,272.7 161.2,272.4 161.4,271.9 161.6,272.5 161.8,271.5 162.1,272.3 162.3,272.6 162.5,273.3 162.7,273.1 163.0,273.2 163.2,273.2 163.4,273.4 163.7,273.7 163.9,273.9 164.1,274.0 164.3,273.5 164.6,273.5 164.8,273.2 165.0,273.0 165.2,273.1 165.5,273.2 165.7,273.4 165.9,274.0 166.1,274.2 166.4,274.2 166.6,274.5 166.8,274.5 167.1,273.3 167.3,272.0 167.5,272.6 167.7,272.9 168.0,272.6 168.2,271.7 168.4,269.9 168.6,270.3 168.9,269.8 169.1,270.5 169.3,271.0 169.6,270.4 169.8,270.6 170.0,271.7 170.2,271.4 170.5,271.6 170.7,272.0 170.9,271.5 171.1,271.8 171.4,271.4 171.6,271.3 171.8,269.0 172.1,268.6 172.3,269.1 172.5,268.0 172.7,266.5 173.0,265.7 173.2,266.1 173.4,266.6 173.6,265.2 173.9,266.7 174.1,267.0 174.3,266.4 174.6,268.0 174.8,268.5 175.0,268.3 175.2,267.3 175.5,266.5 175.7,267.2 175.9,264.2 176.1,264.5 176.4,263.2 176.6,264.0 176.8,262.6 177.1,263.4 177.3,263.9 177.5,263.6 177.7,261.8 178.0,262.4 178.2,263.1 178.4,262.0 178.6,262.2 178.9,264.4 179.1,264.4 179.3,266.4 179.5,266.2 179.8,266.4 180.0,264.1 180.2,264.9 180.5,264.9 180.7,265.5 180.9,266.8 181.1,267.1 181.4,265.3 181.6,266.3 181.8,266.0 182.0,267.0 182.3,268.5 182.5,267.9 182.7,269.8 183.0,269.5 183.2,269.1 183.4,270.8 183.6,272.1 183.9,271.4 184.1,271.8 184.3,270.8 184.5,270.8 184.8,270.1 185.0,270.5 185.2,270.7 185.5,270.9 185.7,270.5 185.9,269.3 186.1,269.4 186.4,269.6 186.6,269.7 186.8,269.3 187.0,268.2 187.3,267.4 187.5,267.6 187.7,267.8 188.0,267.2 188.2,268.6 188.4,267.6 188.6,268.3 188.9,268.5 189.1,268.7 189.3,268.1 189.5,267.8 189.8,265.8 190.0,266.3 190.2,266.9 190.4,267.6 190.7,268.2 190.9,268.0 191.1,266.3 191.4,267.3 191.6,267.4 191.8,268.3 192.0,268.5 192.3,268.7 192.5,269.2 192.7,269.6 192.9,269.9 193.2,269.0 193.4,269.7 193.6,269.5 193.9,269.1 194.1,269.3 194.3,269.1 194.5,268.9 194.8,269.4 195.0,268.7 195.2,267.2 195.4,268.2 195.7,266.4 195.9,267.4 196.1,268.3 196.4,269.3 196.6,269.4 196.8,269.8 197.0,269.6 197.3,269.4 197.5,269.2 197.7,269.1 197.9,269.4 198.2,269.6 198.4,269.6 198.6,269.9 198.9,270.4 199.1,270.4 199.3,270.3 199.5,270.4 199.8,269.8 200.0,269.4 200.2,269.8 200.4,270.4 200.7,270.7 200.9,271.8 201.1,271.3 201.4,272.0 201.6,271.6 201.8,271.9 202.0,271.4 202.3,271.7 202.5,272.3 202.7,272.3 202.9,272.6 203.2,272.7 203.4,271.7 203.6,271.7 203.8,272.0 204.1,272.6 204.3,272.7 204.5,272.4 204.8,272.3 205.0,272.5 205.2,272.3 205.4,272.4 205.7,272.6 205.9,272.8 206.1,272.0 206.3,272.4 206.6,273.6 206.8,273.8 207.0,274.8 207.3,275.4 207.5,274.8 207.7,274.1 207.9,274.4 208.2,275.1 208.4,274.7 208.6,274.7 208.8,273.5 209.1,273.1 209.3,273.3 209.5,274.5 209.8,274.5 210.0,274.8 210.2,274.1 210.4,272.4 210.7,272.4 210.9,269.5 211.1,270.2 211.3,270.8 211.6,271.7 211.8,270.9 212.0,270.9 212.3,271.2 212.5,271.3 212.7,271.3 212.9,271.9 213.2,272.0 213.4,271.5 213.6,272.0 213.8,272.1 214.1,271.6 214.3,271.2 214.5,271.5 214.8,271.8 215.0,272.1 215.2,271.9 215.4,271.4 215.7,271.7 215.9,271.8 216.1,271.2 216.3,271.2 216.6,271.9 216.8,272.1 217.0,272.0 217.2,272.6 217.5,272.0 217.7,273.3 217.9,274.1 218.2,274.1 218.4,273.8 218.6,273.7 218.8,273.1 219.1,273.5 219.3,273.4 219.5,273.4 219.7,273.3 220.0,272.6 220.2,272.5 220.4,272.3 220.7,273.0 220.9,273.4 221.1,273.9 221.3,274.5 221.6,274.5 221.8,273.9 222.0,273.3 222.2,272.7 222.5,272.6 222.7,272.8 222.9,273.1 223.2,273.5 223.4,272.9 223.6,271.2 223.8,272.3 224.1,272.8 224.3,272.3 224.5,272.2 224.7,272.3 225.0,271.8 225.2,272.5 225.4,272.5 225.7,272.5 225.9,272.5 226.1,272.5 226.3,272.1 226.6,272.2 226.8,272.2 227.0,272.1 227.2,271.6 227.5,270.7 227.7,271.1 227.9,270.8 228.2,271.4 228.4,271.9 228.6,272.4 228.8,272.7 229.1,272.0 229.3,272.3 229.5,271.9 229.7,272.0 230.0,272.1 230.2,272.3 230.4,272.6 230.6,272.9 230.9,272.8 231.1,272.9 231.3,274.0 231.6,277.0 231.8,277.1 232.0,276.1 232.2,276.4 232.5,276.4 232.7,276.2 232.9,276.9 233.1,275.4 233.4,275.6 233.6,275.2 233.8,275.2 234.1,275.6 234.3,275.8 234.5,275.7 234.7,275.5 235.0,275.3 235.2,275.1 235.4,275.5 235.6,276.0 235.9,276.9 236.1,276.3 236.3,276.3 236.6,276.2 236.8,275.9 237.0,275.8 237.2,275.6 237.5,275.3 237.7,275.3 237.9,275.1 238.1,275.4 238.4,276.1 238.6,276.1 238.8,275.8 239.1,276.9 239.3,277.4 239.5,277.2 239.7,276.3 240.0,276.2 240.2,276.2 240.4,276.0 240.6,275.2 240.9,273.8 241.1,273.9 241.3,273.1 241.6,272.9 241.8,273.7 242.0,274.7 242.2,274.0 242.5,273.0 242.7,274.0 242.9,274.1 243.1,273.2 243.4,273.7 243.6,273.9 243.8,274.1 244.0,274.3 244.3,274.2 244.5,274.4 244.7,275.0 245.0,275.0 245.2,274.9 245.4,275.6 245.6,275.6 245.9,275.6 246.1,275.8 246.3,275.1 246.5,274.8 246.8,274.5 247.0,274.8 247.2,273.7 247.5,274.5 247.7,274.5 247.9,274.0 248.1,274.7 248.4,274.2 248.6,274.1 248.8,273.8 249.0,273.2 249.3,273.5 249.5,273.2 249.7,274.8 250.0,275.1 250.2,275.3 250.4,275.4 250.6,275.5 250.9,275.6 251.1,275.9 251.3,275.5 251.5,275.6 251.8,275.6 252.0,275.2 252.2,275.1 252.5,275.4 252.7,274.7 252.9,274.9 253.1,275.4 253.4,275.4 253.6,275.6 253.8,275.8 254.0,276.3 254.3,276.1 254.5,276.3 254.7,276.7 254.9,276.2 255.2,276.5 255.4,276.6 255.6,276.7 255.9,277.5 256.1,276.8 256.3,273.0 256.5,269.2 256.8,267.2 257.0,266.0 257.2,265.9 257.4,265.9 257.7,266.3 257.9,266.1 258.1,264.9 258.4,262.9 258.6,264.3 258.8,261.4 259.0,261.9 259.3,267.3 259.5,266.5 259.7,267.9 259.9,266.6 260.2,267.7 260.4,266.9 260.6,266.9 260.9,268.2 261.1,268.5 261.3,270.0 261.5,268.6 261.8,269.3 262.0,270.7 262.2,271.4 262.4,271.3 262.7,272.1 262.9,271.3 263.1,269.0 263.4,268.7 263.6,264.9 263.8,264.0 264.0,264.0 264.3,263.2 264.5,263.9 264.7,264.1 264.9,259.9 265.2,258.3 265.4,261.0 265.6,259.8 265.9,258.7 266.1,260.5 266.3,259.8 266.5,256.8 266.8,255.5 267.0,257.6 267.2,258.5 267.4,256.0 267.7,256.0 267.9,257.4 268.1,258.7 268.3,259.3 268.6,258.5 268.8,258.5 269.0,259.0 269.3,254.9 269.5,252.2 269.7,250.0 269.9,251.4 270.2,253.3 270.4,252.8 270.6,253.3 270.8,253.6 271.1,253.6 271.3,254.6 271.5,254.1 271.8,260.5 272.0,257.4 272.2,260.8 272.4,259.9 272.7,258.2 272.9,258.9 273.1,259.5 273.3,258.8 273.6,261.0 273.8,262.0 274.0,264.5 274.3,264.9 274.5,266.1 274.7,263.7 274.9,263.1 275.2,264.0 275.4,261.9 275.6,262.6 275.8,263.8 276.1,262.6 276.3,261.3 276.5,262.3 276.8,268.0 277.0,267.7 277.2,269.1 277.4,268.6 277.7,268.8 277.9,268.1 278.1,269.0 278.3,269.3 278.6,269.3 278.8,269.3 279.0,268.4 279.3,268.8 279.5,267.7 279.7,268.5 279.9,268.7 280.2,268.0 280.4,268.7 280.6,269.0 280.8,270.7 281.1,270.2 281.3,271.5 281.5,271.7 281.7,270.5 282.0,270.7 282.2,272.0 282.4,272.9 282.7,273.9 282.9,273.2 283.1,274.1 283.3,275.1 283.6,275.1 283.8,277.4 284.0,276.4 284.2,275.1 284.5,276.0 284.7,276.0 284.9,275.9 285.2,275.0 285.4,272.4 285.6,272.7 285.8,273.3 286.1,273.3 286.3,272.2 286.5,272.6 286.7,270.7 287.0,271.5 287.2,272.4 287.4,271.3 287.7,271.5 287.9,271.7 288.1,271.5 288.3,272.0 288.6,271.7 288.8,272.7 289.0,271.5 289.2,271.5 289.5,270.4 289.7,271.4 289.9,271.5 290.2,272.0 290.4,273.0 290.6,272.6 290.8,272.0 291.1,272.6 291.3,273.2 291.5,272.5 291.7,272.6 292.0,272.8 292.2,273.1 292.4,272.5 292.7,272.4 292.9,272.6 293.1,271.7 293.3,272.2 293.6,271.3 293.8,271.0 294.0,271.2 294.2,272.1 294.5,272.5 294.7,273.9 294.9,274.2 295.1,273.6 295.4,273.5 295.6,273.5 295.8,273.2 296.1,272.9 296.3,273.4 296.5,273.0 296.7,273.3 297.0,274.2 297.2,274.4 297.4,274.0 297.6,273.3 297.9,273.3 298.1,273.4 298.3,274.0 298.6,273.7 298.8,273.6 299.0,273.7 299.2,273.5 299.5,273.7 299.7,274.0 299.9,274.2 300.1,274.7 300.4,274.2 300.6,274.0 300.8,274.2 301.1,274.7 301.3,275.0 301.5,275.1 301.7,275.4 302.0,274.8 302.2,274.5 302.4,274.4 302.6,274.5 302.9,274.5 303.1,274.8 303.3,274.5 303.6,273.7 303.8,273.7 304.0,273.6 304.2,276.1 304.5,276.0 304.7,275.8 304.9,276.9 305.1,275.6 305.4,276.4 305.6,276.5 305.8,276.4 306.0,275.6 306.3,275.9 306.5,276.1 306.7,276.5 307.0,277.9 307.2,277.8 307.4,276.9 307.6,277.3 307.9,277.0 308.1,276.4 308.3,276.3 308.5,276.5 308.8,276.9 309.0,276.8 309.2,276.5 309.5,276.8 309.7,276.4 309.9,275.5 310.1,276.4 310.4,275.9 310.6,276.2 310.8,276.8 311.0,276.4 311.3,276.4 311.5,275.6 311.7,275.4 312.0,275.6 312.2,275.2 312.4,274.8 312.6,275.3 312.9,275.6 313.1,274.9 313.3,274.7 313.5,275.3 313.8,275.5 314.0,275.7 314.2,276.2 314.5,276.2 314.7,276.3 314.9,275.9 315.1,276.2 315.4,275.9 315.6,275.8 315.8,275.8 316.0,275.7 316.3,275.9 316.5,275.6 316.7,276.0 317.0,276.5 317.2,277.1 317.4,277.0 317.6,276.7 317.9,276.7 318.1,278.9 318.3,278.7 318.5,278.9 318.8,279.2 319.0,278.9 319.2,278.6 319.4,278.5 319.7,279.1 319.9,279.1 320.1,278.8 320.4,279.2 320.6,279.3 320.8,279.9 321.0,279.3 321.3,279.5 321.5,279.6 321.7,279.5 321.9,278.9 322.2,278.5 322.4,277.7 322.6,277.0 322.9,277.3 323.1,277.2 323.3,277.4 323.5,275.7 323.8,277.5 324.0,277.6 324.2,277.7 324.4,277.8 324.7,277.9 324.9,277.6 325.1,278.1 325.4,278.8 325.6,278.6 325.8,278.4 326.0,278.9 326.3,278.8 326.5,278.6 326.7,278.2 326.9,278.4 327.2,278.9 327.4,278.9 327.6,278.6 327.9,278.8 328.1,278.8 328.3,278.7 328.5,278.5 328.8,278.4 329.0,278.0 329.2,277.7 329.4,277.5 329.7,277.6 329.9,277.8 330.1,277.8 330.4,277.6 330.6,277.8 330.8,277.6 331.0,277.2 331.3,277.6 331.5,277.6 331.7,277.5 331.9,277.8 332.2,277.9 332.4,277.2 332.6,276.4 332.8,276.2 333.1,276.2 333.3,276.4 333.5,276.4 333.8,276.0 334.0,275.9 334.2,275.8 334.4,276.1 334.7,276.1 334.9,275.7 335.1,275.5 335.3,275.6 335.6,275.5 335.8,275.1 336.0,275.2 336.3,275.4 336.5,274.4 336.7,274.9 336.9,275.4 337.2,274.9 337.4,274.0 337.6,274.7 337.8,275.1 338.1,274.8 338.3,275.7 338.5,275.3 338.8,275.2 339.0,274.7 339.2,275.0 339.4,275.6 339.7,275.9 339.9,275.7 340.1,276.4 340.3,275.6 340.6,275.6 340.8,275.7 341.0,275.3 341.3,274.2 341.5,274.8 341.7,274.0 341.9,274.5 342.2,274.8 342.4,275.3 342.6,275.6 342.8,276.6 343.1,276.1 343.3,276.7 343.5,277.8 343.8,277.4 344.0,277.6 344.2,277.4 344.4,277.3 344.7,277.3 344.9,277.6 345.1,277.7 345.3,277.5 345.6,276.7 345.8,277.7 346.0,279.2 346.2,279.2 346.5,278.6 346.7,279.0 346.9,279.1 347.2,280.0 347.4,280.2 347.6,280.6 347.8,282.3 348.1,281.6 348.3,281.6 348.5,281.8 348.7,282.1 349.0,283.2 349.2,285.1 349.4,284.5 349.7,285.4 349.9,286.0 350.1,287.7 350.3,287.6 350.6,286.7 350.8,286.9 351.0,287.8 351.2,287.2 351.5,286.2 351.7,285.5 351.9,286.5 352.2,286.5 352.4,286.1 352.6,285.9 352.8,284.6 353.1,283.0 353.3,284.8 353.5,284.5 353.7,283.8 354.0,283.6 354.2,284.0 354.4,284.2 354.7,284.1 354.9,283.4 355.1,283.9 355.3,283.8 355.6,283.7 355.8,282.9 356.0,283.6 356.2,284.3 356.5,283.2 356.7,282.4 356.9,282.2 357.1,280.2 357.4,280.2 357.6,280.6 357.8,280.3 358.1,280.7 358.3,280.2 358.5,279.6 358.7,279.8 359.0,280.4 359.2,280.4 359.4,279.9 359.6,280.0 359.9,279.1 360.1,279.1 360.3,278.8 360.6,277.8 360.8,276.9 361.0,274.6 361.2,275.6 361.5,274.9 361.7,271.1 361.9,271.8 362.1,273.2 362.4,272.3 362.6,273.7 362.8,272.2 363.1,272.3 363.3,271.4 363.5,269.2 363.7,268.2 364.0,271.5 364.2,268.2 364.4,269.6 364.6,268.6 364.9,269.3 365.1,270.0 365.3,270.5 365.6,270.2 365.8,271.8 366.0,273.9 366.2,275.6 366.5,275.1 366.7,275.6 366.9,277.2 367.1,276.9 367.4,275.9 367.6,276.4 367.8,275.6 368.1,276.1 368.3,275.2 368.5,273.9 368.7,275.6 369.0,275.4 369.2,276.4 369.4,277.1 369.6,276.7 369.9,276.5 370.1,276.4 370.3,276.7 370.5,277.1 370.8,278.1 371.0,277.9 371.2,278.8 371.5,277.9 371.7,277.6 371.9,277.3 372.1,277.5 372.4,277.9 372.6,277.8 372.8,277.7 373.0,277.4 373.3,276.9 373.5,274.4 373.7,274.4 374.0,273.1 374.2,274.8 374.4,274.0 374.6,274.3 374.9,274.7 375.1,274.9 375.3,275.5 375.5,276.7 375.8,275.8 376.0,275.4 376.2,275.6 376.5,275.4 376.7,276.0 376.9,276.7 377.1,276.0 377.4,276.2 377.6,276.6 377.8,276.3 378.0,275.9 378.3,275.8 378.5,275.1 378.7,275.8 379.0,275.2 379.2,274.8 379.4,275.1 379.6,275.2 379.9,275.6 380.1,274.8 380.3,277.2 380.5,278.9 380.8,278.3 381.0,277.7 381.2,277.3 381.5,276.9 381.7,276.8 381.9,277.0 382.1,277.0 382.4,277.5 382.6,278.1 382.8,278.3 383.0,278.0 383.3,278.2 383.5,278.2 383.7,279.1 383.9,279.1 384.2,280.2 384.4,279.7 384.6,280.1 384.9,279.7 385.1,280.5 385.3,280.2 385.5,279.7 385.8,279.2 386.0,279.7 386.2,279.5 386.4,279.8 386.7,279.5 386.9,279.1 387.1,279.5 387.4,279.6 387.6,280.5 387.8,280.7 388.0,280.7 388.3,280.4 388.5,279.9 388.7,280.3 388.9,279.9 389.2,279.5 389.4,279.6 389.6,279.1 389.9,279.1 390.1,279.2 390.3,279.5 390.5,280.0 390.8,279.5 391.0,280.0 391.2,280.6 391.4,280.5 391.7,280.5 391.9,281.0 392.1,281.4 392.4,281.7 392.6,282.1 392.8,282.1 393.0,283.1 393.3,282.6 393.5,282.6 393.7,282.8 393.9,283.4 394.2,282.7 394.4,282.4 394.6,282.6 394.9,282.8 395.1,282.4 395.3,282.6 395.5,282.4 395.8,282.5 396.0,282.4 396.2,282.8 396.4,282.9 396.7,281.8 396.9,281.9 397.1,281.8 397.3,281.6 397.6,281.4 397.8,280.5 398.0,281.2 398.3,281.8 398.5,281.8 398.7,282.1 398.9,282.2 399.2,281.8 399.4,281.6 399.6,281.6 399.8,281.4 400.1,281.3 400.3,281.3 400.5,281.3 400.8,281.4 401.0,280.8 401.2,280.4 401.4,279.9 401.7,280.3 401.9,280.8 402.1,280.2 402.3,279.8 402.6,280.1 402.8,280.0 403.0,280.0 403.3,280.6 403.5,280.5 403.7,281.2 403.9,281.4 404.2,281.5 404.4,281.2 404.6,281.4 404.8,281.3 405.1,280.7 405.3,281.0 405.5,281.2 405.8,281.0 406.0,281.3 406.2,281.1 406.4,281.1 406.7,281.4 406.9,282.1 407.1,282.2 407.3,282.0 407.6,282.1 407.8,282.1 408.0,281.7 408.2,281.6 408.5,281.3 408.7,280.8 408.9,280.7 409.2,280.8 409.4,281.1 409.6,280.8 409.8,281.0 410.1,281.4 410.3,281.1 410.5,281.2 410.7,281.4 411.0,281.4 411.2,281.6 411.4,282.2 411.7,281.8 411.9,281.8 412.1,281.8 412.3,281.9 412.6,282.1 412.8,282.2 413.0,282.2 413.2,282.3 413.5,282.3 413.7,282.7 413.9,283.1 414.2,283.3 414.4,283.0 414.6,283.7 414.8,282.5 415.1,282.7 415.3,282.4 415.5,282.4 415.7,282.9 416.0,282.9 416.2,283.0 416.4,283.3 416.7,283.3 416.9,283.4 417.1,283.2 417.3,283.1 417.6,283.3 417.8,283.5 418.0,283.3 418.2,283.2 418.5,282.9 418.7,283.0 418.9,283.2 419.2,283.1 419.4,283.0 419.6,283.2 419.8,283.3 420.1,283.4 420.3,283.7 420.5,283.6 420.7,283.5 421.0,283.6 421.2,283.6 421.4,283.5 421.6,283.5 421.9,283.5 422.1,283.5 422.3,283.5 422.6,283.6 422.8,283.5 423.0,283.5 423.2,283.8 423.5,283.7 423.7,283.7 423.9,283.7 424.1,283.8 424.4,283.9 424.6,283.7 424.8,283.9 425.1,284.0 425.3,284.0 425.5,284.3 425.7,284.2 426.0,284.9 426.2,285.1 426.4,285.4 426.6,285.4 426.9,285.5 427.1,285.4 427.3,285.4 427.6,285.5 427.8,285.3 428.0,284.8 428.2,284.9 428.5,284.7 428.7,285.7 428.9,286.7 429.1,286.0 429.4,286.5 429.6,286.3 429.8,286.3 430.1,285.9 430.3,286.0 430.5,285.9 430.7,285.8 431.0,285.7 431.2,285.4 431.4,284.6 431.6,283.3 431.9,283.7 432.1,284.0 432.3,284.0 432.6,283.1 432.8,283.7 433.0,283.7 433.2,283.9 433.5,283.9 433.7,284.0 433.9,284.5 434.1,284.3 434.4,284.8 434.6,285.0 434.8,284.4 435.0,284.3 435.3,284.1 435.5,284.2 435.7,284.6 436.0,284.8 436.2,285.2 436.4,285.5 436.6,285.6 436.9,285.5 437.1,285.3 437.3,285.2 437.5,285.4 437.8,285.5 438.0,285.4 438.2,285.1 438.5,285.0 438.7,284.9 438.9,285.2 439.1,285.4 439.4,285.7 439.6,285.7 439.8,285.6 440.0,285.8 440.3,285.7 440.5,285.9 440.7,285.9 441.0,285.5 441.2,285.5 441.4,285.7 441.6,285.7 441.9,285.9 442.1,286.1 442.3,286.2 442.5,286.0 442.8,286.0 443.0,285.9 443.2,286.2 443.5,285.9 443.7,286.0 443.9,285.1 444.1,284.9 444.4,284.5 444.6,284.3 444.8,285.3 445.0,285.4 445.3,284.8 445.5,284.6 445.7,284.4 446.0,284.5 446.2,284.7 446.4,284.8 446.6,285.0 446.9,285.3 447.1,285.7 447.3,286.2 447.5,286.2 447.8,285.6 448.0,285.9 448.2,286.1 448.4,286.3 448.7,286.2 448.9,286.2 449.1,286.2 449.4,286.6 449.6,286.6 449.8,286.2 450.0,286.2 450.3,285.9 450.5,286.0 450.7,286.4 450.9,286.3 451.2,286.3 451.4,286.4 451.6,286.4 451.9,286.4 452.1,286.6 452.3,286.6 452.5,286.8 452.8,286.6 453.0,286.3 453.2,286.4 453.4,286.6 453.7,286.5 453.9,286.8 454.1,286.8 454.4,286.8 454.6,286.5 454.8,286.4 455.0,286.9 455.3,287.3 455.5,287.4 455.7,287.5 455.9,287.4 456.2,287.3 456.4,287.4 456.6,287.5 456.9,287.5 457.1,287.5 457.3,287.6 457.5,287.8 457.8,288.1 458.0,288.5 458.2,288.1 458.4,287.8 458.7,287.6 458.9,287.7 459.1,287.7 459.3,287.9 459.6,288.4 459.8,288.4 460.0,288.4 460.3,288.2 460.5,288.2 460.7,288.2 460.9,288.3 461.2,288.2 461.4,287.9 461.6,287.7 461.8,287.7 462.1,287.5 462.3,287.5 462.5,287.4 462.8,287.3 463.0,287.4 463.2,287.4 463.4,287.2 463.7,287.3 463.9,287.1 464.1,286.8 464.3,286.9 464.6,287.2 464.8,287.2 465.0,287.6 465.3,287.6 465.5,287.3 465.7,287.2 465.9,287.4 466.2,287.6 466.4,287.6 466.6,287.2 466.8,287.0 467.1,286.8 467.3,286.8 467.5,287.0 467.8,287.0 468.0,287.1 468.2,287.5 468.4,287.5 468.7,287.4 468.9,287.7 469.1,287.3 469.3,287.8 469.6,287.5 469.8,287.9 470.0,288.2 470.3,288.1 470.5,288.2 470.7,288.1 470.9,288.0 471.2,288.2 471.4,288.1 471.6,288.1 471.8,288.1 472.1,288.0 472.3,287.9 472.5,287.9 472.7,287.9 473.0,288.0 473.2,288.0 473.4,287.9 473.7,287.9 473.9,287.9 474.1,287.9 474.3,288.1 474.6,288.1 474.8,288.2 475.0,288.2 475.2,288.2 475.5,288.3 475.7,288.2 475.9,288.3 476.2,288.3 476.4,288.3 476.6,288.4 476.8,288.3 477.1,288.5 477.3,288.4 477.5,288.5 477.7,288.5 478.0,288.3 478.2,288.5 478.4,288.4 478.7,288.5 478.9,288.5 479.1,288.5 479.3,288.5 479.6,288.5 479.8,288.5 480.0,288.5 480.2,288.3 480.5,288.3 480.7,288.3 480.9,288.3 481.2,288.3 481.4,288.4 481.6,288.4 481.8,288.4 482.1,288.3 482.3,288.4 482.5,288.4 482.7,288.4 483.0,288.4 483.2,288.4 483.4,288.4 483.7,288.4 483.9,288.4 484.1,288.4 484.3,288.4 484.6,288.4 484.8,288.4 485.0,288.2 485.2,288.4 485.5,288.4 485.7,288.2 485.9,288.2 486.1,288.3 486.4,288.4 486.6,288.2 486.8,288.4 487.1,288.4 487.3,288.4 487.5,288.4 487.7,288.2 488.0,288.2 488.2,288.4 488.4,288.4 488.6,288.4 488.9,288.4 489.1,288.4 489.3,288.4 489.6,288.5 489.8,288.5 490.0,288.5 490.2,288.5 490.5,288.6 490.7,288.6 490.9,288.8 491.1,288.8 491.4,288.9 491.6,288.7 491.8,288.9 492.1,288.8 492.3,288.9 492.5,288.9 492.7,288.9 493.0,289.0 493.2,289.0 493.4,289.0 493.6,289.0 493.9,288.7 494.1,288.5 494.3,288.6 494.6,288.6 494.8,288.9 495.0,288.8 495.2,288.7 495.5,288.9 495.7,288.9 495.9,288.9 496.1,288.9 496.4,288.9 496.6,288.8 496.8,288.9 497.1,288.9 497.3,288.9 497.5,288.8 497.7,288.8 498.0,288.9 498.2,289.0 498.4,289.0 498.6,289.0 498.9,288.9 499.1,288.9 499.3,288.9 499.5,288.8 499.8,288.9 500.0,289.0 500.2,289.0 500.5,288.9 500.7,288.9 500.9,289.0 501.1,289.0 501.4,289.1 501.6,289.1 501.8,289.0 502.0,289.0 502.3,289.1 502.5,289.3 502.7,289.3 503.0,289.2 503.2,289.3 503.4,289.4 503.6,289.5 503.9,289.5 504.1,289.5 504.3,289.8 504.5,289.8 504.8,289.8 505.0,290.0 505.2,290.0 505.5,289.9 505.7,290.0 505.9,290.0 506.1,290.0 506.4,290.0 506.6,289.9 506.8,289.9 507.0,290.0 507.3,289.9 507.5,290.1 507.7,290.0 508.0,290.0 508.2,289.9 508.4,289.8 508.6,289.7 508.9,289.7 509.1,289.7 509.3,289.7 509.5,289.6 509.8,289.7 510.0,289.7 510.2,289.6 510.4,289.8 510.7,289.8 510.9,289.7 511.1,289.6 511.4,289.6 511.6,289.6 511.8,289.9 512.0,289.8 512.3,290.0 512.5,290.0 512.7,290.1 512.9,290.0 513.2,290.0 513.4,290.0 513.6,290.0 513.9,290.0 514.1,289.8 514.3,289.7 514.5,289.7 514.8,289.7 515.0,289.6 515.2,289.7 515.4,289.5 515.7,289.5 515.9,289.6 516.1,289.7 516.4,289.8 516.6,289.8 516.8,289.8 517.0,289.8 517.3,289.8 517.5,289.8 517.7,289.8 517.9,289.8 518.2,289.8 518.4,289.2 518.6,289.0 518.9,289.0 519.1,289.2 519.3,289.0 519.5,288.9 519.8,288.9 520.0,289.0 520.2,289.1 520.4,289.2 520.7,289.2 520.9,289.2 521.1,289.2 521.4,289.3 521.6,289.1 521.8,289.0 522.0,289.1 522.3,289.2 522.5,289.2 522.7,289.1 522.9,289.0 523.2,289.1 523.4,288.9 523.6,288.9 523.8,288.7 524.1,288.8 524.3,288.7 524.5,288.8 524.8,288.8 525.0,288.7 525.2,288.7 525.4,288.5 525.7,288.3 525.9,288.3 526.1,288.5 526.3,288.5 526.6,288.4 526.8,288.5 527.0,288.6 527.3,288.4 527.5,288.5 527.7,288.1 527.9,288.1 528.2,288.0 528.4,288.0 528.6,287.2 528.8,287.6 529.1,287.8 529.3,287.9 529.5,287.3 529.8,287.6 530.0,287.6 530.2,287.5 530.4,287.6 530.7,287.8 530.9,287.0 531.1,286.7 531.3,283.7 531.6,283.8 531.8,284.0 532.0,284.5 532.3,285.4 532.5,285.6 532.7,285.6 532.9,284.4 533.2,284.5 533.4,284.4 533.6,284.7 533.8,285.2 534.1,285.6 534.3,285.4 534.5,285.7 534.8,285.5 535.0,286.3 535.2,286.2 535.4,286.3 535.7,286.3 535.9,286.2 536.1,286.0 536.3,286.3 536.6,286.4 536.8,286.5 537.0,286.5 537.2,286.3 537.5,286.5 537.7,286.4 537.9,286.4 538.2,286.7 538.4,286.7 538.6,286.9 538.8,286.8 539.1,286.8 539.3,287.0 539.5,287.1 539.7,287.3 540.0,287.9 540.2,288.1 540.4,288.3 540.7,288.2 540.9,287.9 541.1,287.9 541.3,287.8 541.6,287.7 541.8,287.4 542.0,287.6 542.2,287.2 542.5,287.1 542.7,287.2 542.9,287.1 543.2,287.3 543.4,287.3 543.6,287.4 543.8,287.6 544.1,287.5 544.3,287.3 544.5,287.2 544.7,287.3 545.0,287.4 545.2,287.5 545.4,287.5 545.7,287.6 545.9,287.6 546.1,287.4 546.3,287.4 546.6,287.5 546.8,287.1 547.0,287.1 547.2,287.0 547.5,286.8 547.7,287.5 547.9,287.4 548.2,287.3 548.4,287.3 548.6,287.4 548.8,287.5 549.1,287.7 549.3,287.8 549.5,288.1 549.7,287.8 550.0,287.9 550.2,287.7 550.4,287.9 550.6,288.1 550.9,288.1 551.1,288.2 551.3,288.1 551.6,288.2 551.8,288.3 552.0,288.4 552.2,288.4 552.5,288.3 552.7,288.1 552.9,288.2 553.1,288.4 553.4,288.3 553.6,288.3 553.8,288.1 554.1,288.3 554.3,288.7 554.5,288.5 554.7,288.6 555.0,288.5 555.2,288.4 555.4,288.4 555.6,288.4 555.9,288.5 556.1,288.6 556.3,288.6 556.6,288.8 556.8,288.7 557.0,288.7 557.2,288.9 557.5,289.0 557.7,288.9 557.9,288.9 558.1,289.0 558.4,289.0 558.6,289.0 558.8,289.1 559.1,289.2 559.3,288.7 559.5,289.0 559.7,289.1 560.0,289.3 560.2,289.2 560.4,289.4 560.6,289.5 560.9,287.7 561.1,287.0 561.3,286.0 561.6,285.6 561.8,285.1 562.0,283.4 562.2,283.2 562.5,283.7 562.7,280.7 562.9,277.9 563.1,273.9 563.4,275.4 563.6,273.8 563.8,275.2 564.0,277.3 564.3,277.2 564.5,278.7 564.7,278.4 565.0,277.5 565.2,278.4 565.4,277.2 565.6,277.1 565.9,277.7 566.1,277.9 566.3,274.4 566.5,276.1 566.8,274.8 567.0,274.3 567.2,275.4 567.5,275.9 567.7,275.9 567.9,275.5 568.1,273.2 568.4,269.8 568.6,269.9 568.8,273.1 569.0,273.1 569.3,269.3 569.5,267.0 569.7,267.3 570.0,267.9 570.2,267.4 570.4,261.7 570.6,256.0 570.9,265.4 571.1,265.5 571.3,267.9 571.5,267.8 571.8,264.2 572.0,266.6 572.2,267.5 572.5,267.5 572.7,267.6 572.9,268.7 573.1,270.1 573.4,270.7 573.6,270.8 573.8,270.9 574.0,271.4 574.3,271.3 574.5,271.4 574.7,272.3 574.9,272.1 575.2,271.4 575.4,269.4 575.6,266.5 575.9,261.5 576.1,255.8 576.3,244.4 576.5,233.0 576.8,217.8 577.0,198.8 577.2,179.9 577.4,206.4 577.7,225.4 577.9,221.0 578.1,235.1 578.4,236.7 578.6,233.4 578.8,239.1 579.0,229.9 579.3,214.7 579.5,207.2 579.7,211.0 579.9,211.0 580.2,223.5 580.4,230.4 580.6,235.6 580.9,235.3 581.1,234.4 581.3,233.4 581.5,239.8 581.8,241.6 582.0,226.4 582.2,229.7 582.4,232.3 582.7,231.7 582.9,235.3 583.1,235.5 583.4,237.5 583.6,239.9 583.8,239.9 584.0,239.2 584.3,224.0 584.5,223.6 584.7,230.3 584.9,233.8 585.2,230.2 585.4,222.8 585.6,225.6 585.9,228.2 586.1,225.1 586.3,223.2 586.5,223.9 586.8,226.9 587.0,227.5 587.2,224.2 587.4,226.2 587.7,227.9 587.9,230.6 588.1,232.2 588.3,230.4 588.6,228.4 588.8,229.9 589.0,229.6 589.3,227.5 589.5,229.6 589.7,229.2 589.9,224.4 590.2,226.2 590.4,223.6 590.6,224.7 590.8,228.5 591.1,227.8 591.3,227.7 591.5,230.4 591.8,233.0 592.0,237.2 592.2,237.4 592.4,238.5 592.7,239.9 592.9,242.0 593.1,238.0 593.3,238.9 593.6,234.5 593.8,239.1 594.0,244.2 594.3,255.5 594.5,249.7 594.7,247.6 594.9,248.9 595.2,249.2 595.4,247.8 595.6,247.9 595.8,246.6 596.1,249.5 596.3,252.4 596.5,252.4 596.8,252.4 597.0,244.8 597.2,247.8 597.4,247.3 597.7,250.4 597.9,252.4 598.1,251.6 598.3,249.7 598.6,247.3 598.8,243.1 599.0,247.4 599.3,248.2 599.5,250.8 599.7,252.2 599.9,251.9 600.2,253.9 600.4,250.4 600.6,250.9 600.8,252.8 601.1,254.9 601.3,254.1 601.5,254.1 601.7,249.5 602.0,249.5 602.2,252.7 602.4,246.2 602.7,249.2 602.9,246.1 603.1,245.1 603.3,248.4 603.6,247.3 603.8,251.3 604.0,252.7 604.2,252.4 604.5,254.0 604.7,253.4 604.9,253.4 605.2,254.3 605.4,254.8 605.6,252.9 605.8,252.4 606.1,252.4 606.3,253.9 606.5,255.9 606.7,259.2 607.0,256.7 607.2,253.4 607.4,254.3 607.7,254.6 607.9,257.1 608.1,258.1 608.3,257.8 608.6,257.6 608.8,257.4 609.0,256.9 609.2,257.6 609.5,257.9 609.7,258.3 609.9,262.8 610.2,261.1 610.4,261.4 610.6,261.3 610.8,261.7 611.1,260.0 611.3,261.5 611.5,263.9 611.7,264.5 612.0,264.4 612.2,267.2 612.4,269.1 612.7,268.4 612.9,269.1 613.1,268.7 613.3,268.4 613.6,270.8 613.8,272.8 614.0,273.1 614.2,272.9 614.5,273.2 614.7,274.2 614.9,274.3 615.1,274.0 615.4,275.1 615.6,273.5 615.8,274.1 616.1,272.5 616.3,274.3 616.5,274.0 616.7,272.8 617.0,273.1 617.2,273.6 617.4,272.1 617.6,271.7 617.9,273.1 618.1,272.9 618.3,273.9 618.6,274.2 618.8,274.3 619.0,275.4 619.2,273.7 619.5,274.0 619.7,273.6 619.9,273.5 620.1,271.8 620.4,272.3 620.6,271.0 620.8,270.3 621.1,271.5 621.3,272.1 621.5,272.6 621.7,271.9 622.0,272.4 622.2,272.1 622.4,269.6 622.6,269.4 622.9,268.3 623.1,269.6 623.3,269.4 623.6,273.0 623.8,273.1 624.0,276.2 624.2,275.2 624.5,273.3 624.7,271.2 624.9,269.7 625.1,269.0 625.4,270.4 625.6,264.7 625.8,263.3 626.0,264.0 626.3,259.3 626.5,260.3 626.7,257.9 627.0,257.7 627.2,259.1 627.4,261.4 627.6,260.0 627.9,258.6 628.1,257.4 628.3,259.5 628.5,260.5 628.8,260.1 629.0,259.0 629.2,260.8 629.5,261.2 629.7,262.0 629.9,262.5 630.1,264.6 630.4,266.6 630.6,267.0 630.8,269.1 631.0,273.1 631.3,270.9 631.5,272.9 631.7,270.4 632.0,269.7 632.2,269.1 632.4,268.1 632.6,268.5 632.9,267.7 633.1,267.0 633.3,266.2 633.5,266.3 633.8,263.4 634.0,262.8 634.2,264.2 634.5,264.5 634.7,264.7 634.9,264.5 635.1,265.2 635.4,266.0 635.6,266.3 635.8,266.8 636.0,266.0 636.3,264.5 636.5,263.4 636.7,262.5 637.0,268.2 637.2,268.9 637.4,270.3 637.6,270.1 637.9,270.5 638.1,271.3 638.3,271.0 638.5,270.9 638.8,271.1 639.0,265.4 639.2,259.7 639.4,248.3 639.7,244.4 639.9,233.0 640.1,228.8 640.4,230.3 640.6,215.1 640.8,202.6 641.0,211.0 641.3,205.8 641.5,212.1 641.7,214.9 641.9,201.9 642.2,219.1 642.4,208.3 642.6,211.2 642.9,217.5 643.1,223.0 643.3,229.1 643.5,236.7 643.8,240.6 644.0,238.2 644.2,238.8 644.4,239.1 644.7,238.9 644.9,223.7 645.1,208.5 645.4,189.5 645.6,170.4 645.8,143.8 646.0,170.4 646.3,169.0 646.5,177.6 646.7,174.4 646.9,147.8 647.2,164.3 647.4,156.5 647.6,147.8 647.9,157.6 648.1,163.0 648.3,169.6 648.5,177.6 648.8,167.9 649.0,168.5 649.2,180.2 649.4,190.3 649.7,188.8 649.9,187.8 650.1,182.9 650.4,174.4 650.6,178.0 650.8,204.5 651.0,200.5 651.3,194.4 651.5,181.4 651.7,175.1 651.9,184.4 652.2,181.0 652.4,189.7 652.6,197.6 652.8,199.9 653.1,204.9 653.3,210.9 653.5,214.3 653.8,203.1 654.0,201.2 654.2,191.4 654.4,201.9 654.7,200.9 654.9,199.9 655.1,197.9 655.3,190.2 655.6,209.2 655.8,228.2 656.0,213.0 656.3,218.5 656.5,220.7 656.7,219.0 656.9,208.1 657.2,189.4 657.4,183.5 657.6,194.8 657.8,213.7 658.1,214.3 658.3,219.4 658.5,222.0 658.8,218.8 659.0,215.6 659.2,227.0 659.4,236.8 659.7,241.5 659.9,244.2 660.1,240.0 660.3,241.6 660.6,238.6 660.8,240.1 661.0,243.0 661.3,237.1 661.5,233.5 661.7,234.9 661.9,230.1 662.2,230.0 662.4,233.2 662.6,234.2 662.8,226.4 663.1,225.9 663.3,218.6 663.5,223.5 663.8,226.0 664.0,212.0 664.2,208.6 664.4,196.5 664.7,197.3 664.9,199.0 665.1,204.1 665.3,210.2 665.6,215.9 665.8,212.1 666.0,213.3 666.2,215.7 666.5,221.2 666.7,221.7 666.9,206.1 667.2,208.8 667.4,213.8 667.6,217.6 667.8,215.6 668.1,219.4 668.3,216.9 668.5,218.8 668.7,218.8 669.0,221.2 669.2,220.6 669.4,221.6 669.7,222.3 669.9,223.3 670.1,226.4 670.3,228.3 670.6,226.5 670.8,221.7 671.0,222.6 671.2,221.1 671.5,223.1 671.7,224.9 671.9,223.2 672.2,223.3 672.4,219.0 672.6,217.6 672.8,215.6 673.1,212.1 673.3,215.7 673.5,215.7 673.7,214.6 674.0,212.4 674.2,214.8 674.4,218.4 674.7,219.7 674.9,221.9 675.1,222.1 675.3,222.1 675.6,222.1 675.8,222.1 676.0,222.3 676.2,223.8 676.5,227.9 676.7,228.5 676.9,227.9 677.1,228.2 677.4,230.9 677.6,232.7 677.8,230.5 678.1,225.9 678.3,220.9 678.5,226.6 678.7,223.7 679.0,226.0 679.2,226.6 679.4,225.1 679.6,227.6 679.9,230.3 680.1,229.3 680.3,227.9 680.6,227.1 680.8,230.8 681.0,234.2 681.2,240.8 681.5,239.2 681.7,239.7 681.9,240.4 682.1,236.3 682.4,234.9 682.6,234.7 682.8,237.5 683.1,238.5 683.3,240.9 683.5,240.5 683.7,242.7 684.0,250.0 684.2,248.9 684.4,244.8 684.6,246.1 684.9,246.3 685.1,248.4 685.3,250.9 685.6,247.0 685.8,247.6 686.0,248.3 686.2,249.1 686.5,249.6 686.7,246.6 686.9,246.7 687.1,247.3 687.4,247.3 687.6,244.2 687.8,243.2 688.1,240.4 688.3,238.3 688.5,238.7 688.7,238.8 689.0,241.2 689.2,242.0 689.4,242.9 689.6,243.4 689.9,242.0 690.1,242.6 690.3,243.1 690.5,235.0 690.8,219.8 691.0,209.5 691.2,213.7 691.5,212.6 691.7,217.5 691.9,210.1 692.1,191.1 692.4,172.1 692.6,170.0 692.8,143.4 693.0,116.8 693.3,128.6 693.5,119.9 693.7,130.7 694.0,103.9 694.2,65.9 694.4,97.5 694.6,133.5 694.9,106.9 695.1,83.0 695.3,113.0 695.5,111.5 695.8,124.8 696.0,135.2"/>
  <text x="60" y="62" font-size="11" fill="#2563eb">Price index</text>
  <text x="146" y="62" font-size="11" fill="#16a34a">Total return (price + distributions)</text>
  <text x="56" y="348" font-size="11" text-anchor="middle" fill="#444">2014-12</text><text x="216" y="348" font-size="11" text-anchor="middle" fill="#444">2017-11</text><text x="376" y="348" font-size="11" text-anchor="middle" fill="#444">2020-09</text><text x="536" y="348" font-size="11" text-anchor="middle" fill="#444">2023-07</text><text x="696" y="348" font-size="11" text-anchor="middle" fill="#444">2026-06</text>
</svg>
