<svg xmlns="http://www.w3.org/2000/svg" width="720" height="360" viewBox="0 0 720 360">
  <rect width="720" height="360" fill="#fafafa"/>
  <text x="56" y="22" font-size="13" font-family="sans-serif" fill="#222">3905.T total return (rebased 100) · cumulative distributions $0.00/sh · market cap n/a</text>
  <line x1="56" y1="308" x2="696" y2="308" stroke="#ccc"/>
  <line x1="56" y1="48" x2="56" y2="308" stroke="#ccc"/>
  <polyline fill="none" stroke="#2563eb" stroke-width="2" points="56.0,256.1 60.6,259.9 65.2,263.8 69.8,270.8 74.4,270.9 79.0,272.0 83.6,270.9 88.2,272.2 92.8,276.8 97.4,278.0 102.0,275.8 106.6,277.1 111.3,277.5 115.9,279.5 120.5,282.2 125.1,276.2 129.7,270.9 134.3,261.5 138.9,270.5 143.5,273.2 148.1,274.4 152.7,270.0 157.3,271.7 161.9,273.4 166.5,272.7 171.1,269.2 175.7,262.8 180.3,266.1 184.9,269.8 189.5,268.2 194.1,267.6 198.7,270.9 203.3,272.9 207.9,272.6 212.5,271.9 217.2,273.2 221.8,272.7 226.4,273.0 231.0,275.3 235.6,276.4 240.2,275.2 244.8,275.5 249.4,276.4 254.0,266.8 258.6,258.4 263.2,250.2 267.8,263.2 272.4,268.9 277.0,276.2 281.6,271.7 286.2,272.4 290.8,273.5 295.4,274.6 300.0,276.7 304.6,276.5 309.2,276.1 313.8,279.5 318.4,278.9 323.1,278.0 327.7,276.2 332.3,275.8 336.9,277.6 341.5,282.5 346.1,286.0 350.7,280.4 355.3,275.1 359.9,275.3 364.5,279.0 369.1,276.0 373.7,277.4 378.3,280.7 382.9,279.8 387.5,282.5 392.1,282.3 396.7,280.1 401.3,281.9 405.9,282.4 410.5,283.6 415.1,283.7 419.7,285.6 424.3,285.5 428.9,284.7 433.6,286.0 438.2,285.5 442.8,286.3 447.4,287.0 452.0,287.9 456.6,287.4 461.2,287.3 465.8,288.1 470.4,288.6 475.0,288.5 479.6,288.5 484.2,289.0 488.8,289.1 493.4,289.1 498.0,290.1 502.6,289.8 507.2,290.0 511.8,289.3 516.4,289.0 521.0,288.2 525.6,284.7 530.2,286.6 534.8,287.4 539.5,287.2 544.1,288.5 548.7,289.0 553.3,286.2 557.9,277.3 562.5,268.1 567.1,271.6 571.7,214.8 576.3,239.3 580.9,228.6 585.5,234.7 590.1,249.9 594.7,249.4 599.3,254.7 603.9,267.4 608.5,273.2 613.1,272.3 617.7,270.6 622.3,262.6 626.9,264.9 631.5,259.9 636.1,238.3 640.7,168.6 645.4,214.4 650.0,214.4 654.6,226.1 659.2,209.0 663.8,223.5 668.4,228.0 673.0,227.2 677.6,251.0 682.2,242.8 686.8,65.9 691.4,135.3 696.0,134.3"/>
  <polyline fill="none" stroke="#16a34a" stroke-width="2" points="56.0,256.1 60.6,259.9 65.2,263.8 69.8,270.8 74.4,270.9 79.0,272.0 83.6,270.9 88.2,272.2 92.8,276.8 97.4,278.0 102.0,275.8 106.6,277.1 111.3,277.5 115.9,279.5 120.5,282.2 125.1,276.2 129.7,270.9 134.3,261.5 138.9,270.5 143.5,273.2 148.1,274.4 152.7,270.0 157.3,271.7 161.9,273.4 166.5,272.7 171.1,269.2 175.7,262.8 180.3,266.1 184.9,269.8 189.5,268.2 194.1,267.6 198.7,270.9 203.3,272.9 207.9,272.6 212.5,271.9 217.2,273.2 221.8,272.7 226.4,273.0 231.0,275.3 235.6,276.4 240.2,275.2 244.8,275.5 249.4,276.4 254.0,266.8 258.6,258.4 263.2,250.2 267.8,263.2 272.4,268.9 277.0,276.2 281.6,271.7 286.2,272.4 290.8,273.5 295.4,274.6 300.0,276.7 304.6,276.5 309.2,276.1 313.8,279.5 318.4,278.9 323.1,278.0 327.7,276.2 332.3,275.8 336.9,277.6 341.5,282.5 346.1,286.0 350.7,280.4 355.3,275.1 359.9,275.3 364.5,279.0 369.1,276.0 373.7,277.4 378.3,280.7 382.9,279.8 387.5,282.5 392.1,282.3 396.7,280.1 401.3,281.9 405.9,282.4 410.5,283.6 415.1,283.7 419.7,285.6 424.3,285.5 428.9,284.7 433.6,286.0 438.2,285.5 442.8,286.3 447.4,287.0 452.0,287.9 456.6,287.4 461.2,287.3 465.8,288.1 470.4,288.6 475.0,288.5 479.6,288.5 484.2,289.0 488.8,289.1 493.4,289.1 498.0,290.1 502.6,289.8 507.2,290.0 511.8,289.3 516.4,289.0 521.0,288.2 525.6,284.7 530.2,286.6 534.8,287.4 539.5,287.2 544.1,288.5 548.7,289.0 553.3,286.2 557.9,277.3 562.5,268.1 567.1,271.6 571.7,214.8 576.3,239.3 580.9,228.6 585.5,234.7 590.1,249.9 594.7,249.4 599.3,254.7 603.9,267.4 608.5,273.2 613.1,272.3 617.7,270.6 622.3,262.6 626.9,264.9 631.5,259.9 636.1,238.3 640.7,168.6 645.4,214.4 650.0,214.4 654.6,226.1 659.2,209.0 663.8,223.5 668.4,228.0 673.0,227.2 677.6,251.0 682.2,242.8 686.8,65.9 691.4,135.3 696.0,134.3"/>
  <text x="60" y="62" font-size="11" fill="#2563eb">Price index</text>
  <text x="146" y="62" font-size="11" fill="#16a34a">Total return (price + distributions)</text>
  <text x="56" y="348" font-size="11" text-anchor="middle" fill="#444">2014-11</text><text x="217" y="348" font-size="11" text-anchor="middle" fill="#444">2017-10</text><text x="378" y="348" font-size="11" text-anchor="middle" fill="#444">2020-09</text><text x="539" y="348" font-size="11" text-anchor="middle" fill="#444">2023-08</text><text x="696" y="348" font-size="11" text-anchor="middle" fill="#444">2026-06</text>
</svg>
