<svg xmlns="http://www.w3.org/2000/svg" width="820" height="410" viewBox="0 0 820 410">
<rect width="820" height="410" fill="#fafafa"/><text x="78" y="22" font-size="14" font-family="sans-serif" fill="#0f172a">3905.T cumulative return since 2014-12-24 | dividends reinvested</text>
<text x="78" y="40" font-size="11" font-family="sans-serif" fill="#334155">Total return +171.0% | Price-only +171.0% | logarithmic scale</text>
<text x="78" y="54" font-size="9" font-family="sans-serif" fill="#64748b">Regular $0.00 | Special $0.00 | Other $0.00 per initial share path</text>
<line x1="78" y1="332.0" x2="796" y2="332.0" stroke="#e2e8f0"/><text x="70" y="336.0" font-size="10" text-anchor="end" fill="#64748b">-81.3%</text><line x1="78" y1="287.0" x2="796" y2="287.0" stroke="#e2e8f0"/><text x="70" y="291.0" font-size="10" text-anchor="end" fill="#64748b">-65.8%</text><line x1="78" y1="242.0" x2="796" y2="242.0" stroke="#e2e8f0"/><text x="70" y="246.0" font-size="10" text-anchor="end" fill="#64748b">-37.2%</text><line x1="78" y1="207.4" x2="796" y2="207.4" stroke="#e2e8f0"/><text x="70" y="211.4" font-size="10" text-anchor="end" fill="#64748b">0%</text><line x1="78" y1="197.0" x2="796" y2="197.0" stroke="#e2e8f0"/><text x="70" y="201.0" font-size="10" text-anchor="end" fill="#64748b">+15.1%</text><line x1="78" y1="152.0" x2="796" y2="152.0" stroke="#e2e8f0"/><text x="70" y="156.0" font-size="10" text-anchor="end" fill="#64748b">+111.2%</text><line x1="78" y1="107.0" x2="796" y2="107.0" stroke="#e2e8f0"/><text x="70" y="111.0" font-size="10" text-anchor="end" fill="#64748b">+287.4%</text><line x1="78" y1="62.0" x2="796" y2="62.0" stroke="#e2e8f0"/><text x="70" y="66.0" font-size="10" text-anchor="end" fill="#64748b">+610.7%</text>
<line x1="78" y1="332" x2="796" y2="332" stroke="#cbd5e1"/>
<polyline fill="none" stroke="#2563eb" stroke-width="2" points="78.0,207.4 78.3,188.8 78.5,205.0 78.8,207.8 79.0,201.5 79.3,184.2 79.5,175.3 79.8,179.7 80.0,191.3 80.3,190.5 80.5,192.2 80.8,199.9 81.0,206.0 81.3,204.1 81.5,200.0 81.8,198.1 82.0,205.5 82.3,205.5 82.5,207.4 82.8,211.4 83.0,201.0 83.3,202.3 83.6,209.7 83.8,208.4 84.1,206.4 84.3,209.6 84.6,210.7 84.8,213.6 85.1,212.9 85.3,211.0 85.6,208.2 85.8,212.0 86.1,214.7 86.3,219.0 86.6,217.6 86.8,218.6 87.1,220.8 87.3,212.9 87.6,218.6 87.8,218.7 88.1,218.6 88.4,218.9 88.6,216.1 88.9,218.6 89.1,221.7 89.4,221.9 89.6,222.6 89.9,223.1 90.1,228.5 90.4,231.5 90.6,231.1 90.9,230.5 91.1,229.5 91.4,223.2 91.6,228.6 91.9,232.3 92.1,231.3 92.4,227.8 92.6,226.3 92.9,227.3 93.1,226.0 93.4,230.9 93.7,230.0 93.9,231.6 94.2,232.4 94.4,235.2 94.7,235.6 94.9,237.9 95.2,237.3 95.4,236.1 95.7,235.6 95.9,236.9 96.2,236.6 96.4,229.6 96.7,229.2 96.9,226.9 97.2,226.5 97.4,226.8 97.7,231.5 97.9,233.6 98.2,233.2 98.4,231.2 98.7,227.7 99.0,226.7 99.2,230.1 99.5,232.6 99.7,234.3 100.0,233.4 100.2,232.7 100.5,234.1 100.7,234.5 101.0,235.2 101.2,235.1 101.5,232.9 101.7,232.3 102.0,233.7 102.2,234.6 102.5,235.2 102.7,235.2 103.0,235.2 103.2,235.2 103.5,235.2 103.8,235.5 104.0,235.5 104.3,235.4 104.5,235.2 104.8,235.4 105.0,233.8 105.3,235.4 105.5,221.4 105.8,220.4 106.0,227.2 106.3,228.9 106.5,225.9 106.8,228.6 107.0,231.7 107.3,228.9 107.5,232.1 107.8,227.6 108.0,227.2 108.3,224.4 108.5,225.9 108.8,228.6 109.1,228.6 109.3,232.6 109.6,232.6 109.8,227.4 110.1,230.2 110.3,231.4 110.6,233.7 110.8,232.3 111.1,235.7 111.3,237.2 111.6,238.2 111.8,237.5 112.1,234.4 112.3,235.7 112.6,230.9 112.8,227.9 113.1,229.0 113.3,230.7 113.6,232.8 113.8,233.7 114.1,234.6 114.4,233.9 114.6,235.4 114.9,235.0 115.1,236.2 115.4,236.3 115.6,237.6 115.9,238.7 116.1,239.5 116.4,240.1 116.6,240.1 116.9,239.5 117.1,239.7 117.4,242.4 117.6,243.0 117.9,245.3 118.1,244.2 118.4,238.3 118.6,237.8 118.9,240.5 119.2,252.5 119.4,258.2 119.7,250.0 119.9,252.2 120.2,250.7 120.4,249.8 120.7,254.3 120.9,256.2 121.2,256.8 121.4,260.3 121.7,262.6 121.9,264.9 122.2,261.3 122.4,257.5 122.7,255.8 122.9,256.5 123.2,258.6 123.4,260.1 123.7,260.1 123.9,259.7 124.2,260.6 124.5,255.3 124.7,253.7 125.0,256.5 125.2,253.9 125.5,254.3 125.7,254.1 126.0,251.9 126.2,253.4 126.5,251.5 126.7,252.4 127.0,251.3 127.2,250.1 127.5,251.3 127.7,250.0 128.0,250.1 128.2,251.0 128.5,253.5 128.7,254.3 129.0,255.4 129.2,255.0 129.5,253.8 129.8,254.7 130.0,245.8 130.3,243.2 130.5,246.6 130.8,250.7 131.0,252.8 131.3,253.4 131.5,254.2 131.8,253.4 132.0,252.1 132.3,252.0 132.5,250.8 132.8,252.1 133.0,258.2 133.3,258.0 133.5,257.0 133.8,257.5 134.0,257.5 134.3,256.8 134.6,253.0 134.8,254.2 135.1,245.5 135.3,250.8 135.6,252.2 135.8,254.5 136.1,248.2 136.3,246.2 136.6,248.8 136.8,249.6 137.1,248.8 137.3,250.7 137.6,251.3 137.8,253.9 138.1,259.4 138.3,257.5 138.6,257.2 138.8,259.4 139.1,260.0 139.3,262.5 139.6,265.4 139.9,265.4 140.1,261.2 140.4,255.9 140.6,252.1 140.9,248.0 141.1,246.2 141.4,251.1 141.6,253.0 141.9,241.1 142.1,248.5 142.4,248.0 142.6,251.5 142.9,258.4 143.1,259.0 143.4,256.8 143.6,263.8 143.9,269.8 144.1,264.7 144.4,257.5 144.6,260.3 144.9,258.7 145.2,258.0 145.4,259.6 145.7,256.9 145.9,259.1 146.2,262.8 146.4,263.2 146.7,267.2 146.9,265.8 147.2,266.0 147.4,272.1 147.7,283.4 147.9,279.2 148.2,277.6 148.4,277.9 148.7,277.0 148.9,277.6 149.2,275.8 149.4,276.8 149.7,279.0 150.0,265.5 150.2,270.8 150.5,270.5 150.7,270.3 151.0,266.9 151.2,265.8 151.5,264.0 151.7,259.7 152.0,260.3 152.2,261.4 152.5,260.7 152.7,254.1 153.0,241.9 153.2,245.3 153.5,246.3 153.7,250.7 154.0,251.7 154.2,248.2 154.5,247.5 154.7,245.6 155.0,246.0 155.3,244.9 155.5,246.0 155.8,247.7 156.0,248.0 156.3,252.1 156.5,252.9 156.8,258.6 157.0,258.3 157.3,255.1 157.5,249.6 157.8,249.0 158.0,251.0 158.3,243.4 158.5,244.6 158.8,245.5 159.0,244.7 159.3,235.4 159.5,236.6 159.8,233.1 160.0,223.8 160.3,219.5 160.6,228.2 160.8,229.7 161.1,232.6 161.3,227.0 161.6,214.3 161.8,203.5 162.1,206.4 162.3,193.2 162.6,196.3 162.8,201.6 163.1,211.7 163.3,208.1 163.6,219.6 163.8,218.5 164.1,219.3 164.3,212.6 164.6,211.1 164.8,210.6 165.1,215.3 165.4,218.9 165.6,210.8 165.9,211.5 166.1,215.1 166.4,215.3 166.6,213.3 166.9,216.3 167.1,219.0 167.4,220.7 167.6,221.2 167.9,221.7 168.1,227.4 168.4,233.6 168.6,230.5 168.9,234.1 169.1,233.8 169.4,231.3 169.6,231.6 169.9,235.1 170.1,234.2 170.4,243.2 170.7,238.1 170.9,234.1 171.2,231.4 171.4,231.5 171.7,226.5 171.9,226.7 172.2,231.0 172.4,224.8 172.7,226.8 172.9,229.4 173.2,229.4 173.4,228.1 173.7,229.8 173.9,228.1 174.2,230.2 174.4,233.5 174.7,234.3 174.9,235.2 175.2,236.5 175.5,235.4 175.7,238.1 176.0,239.0 176.2,241.5 176.5,238.9 176.7,239.6 177.0,239.7 177.2,244.6 177.5,244.6 177.7,245.6 178.0,245.6 178.2,243.9 178.5,243.7 178.7,241.3 179.0,240.7 179.2,239.7 179.5,241.2 179.7,242.9 180.0,243.2 180.2,242.8 180.5,241.2 180.8,241.9 181.0,242.0 181.3,243.4 181.5,242.1 181.8,241.9 182.0,242.6 182.3,241.8 182.5,240.7 182.8,236.3 183.0,236.4 183.3,234.6 183.5,234.7 183.8,232.0 184.0,234.3 184.3,233.9 184.5,237.9 184.8,238.3 185.0,238.4 185.3,238.5 185.5,237.7 185.8,237.3 186.1,235.8 186.3,234.0 186.6,229.3 186.8,228.7 187.1,230.4 187.3,229.3 187.6,229.4 187.8,228.1 188.1,228.2 188.3,226.4 188.6,229.6 188.8,231.9 189.1,233.6 189.3,233.7 189.6,232.7 189.8,231.3 190.1,230.4 190.3,229.6 190.6,231.4 190.9,231.0 191.1,232.2 191.4,231.6 191.6,233.0 191.9,233.9 192.1,234.7 192.4,235.2 192.6,237.8 192.9,240.9 193.1,239.6 193.4,239.5 193.6,244.3 193.9,242.3 194.1,244.1 194.4,237.9 194.6,238.1 194.9,237.3 195.1,235.8 195.4,237.5 195.6,234.8 195.9,236.8 196.2,237.6 196.4,239.8 196.7,239.1 196.9,239.3 197.2,239.6 197.4,240.1 197.7,240.9 197.9,241.3 198.2,241.7 198.4,240.3 198.7,240.3 198.9,239.5 199.2,238.9 199.4,239.2 199.7,239.3 199.9,239.9 200.2,241.7 200.4,242.4 200.7,242.4 200.9,243.1 201.2,243.2 201.5,239.7 201.7,235.9 202.0,237.6 202.2,238.7 202.5,237.6 202.7,235.3 203.0,230.6 203.2,231.5 203.5,230.2 203.7,232.0 204.0,233.4 204.2,231.9 204.5,232.4 204.7,235.2 205.0,234.5 205.2,235.0 205.5,235.9 205.7,234.6 206.0,235.6 206.3,234.4 206.5,234.1 206.8,228.2 207.0,227.3 207.3,228.5 207.5,225.9 207.8,222.3 208.0,220.5 208.3,221.4 208.5,222.5 208.8,219.4 209.0,222.9 209.3,223.5 209.5,222.1 209.8,226.0 210.0,227.2 210.3,226.6 210.5,224.2 210.8,222.3 211.0,224.0 211.3,217.3 211.6,217.9 211.8,215.2 212.1,216.9 212.3,214.1 212.6,215.6 212.8,216.7 213.1,216.0 213.3,212.3 213.6,213.6 213.8,215.0 214.1,212.7 214.3,213.3 214.6,217.7 214.8,217.7 215.1,222.1 215.3,221.7 215.6,222.3 215.8,217.1 216.1,218.8 216.3,218.7 216.6,220.1 216.9,223.0 217.1,223.8 217.4,219.7 217.6,221.9 217.9,221.1 218.1,223.6 218.4,227.2 218.6,225.6 218.9,230.4 219.1,229.5 219.4,228.6 219.6,232.9 219.9,236.5 220.1,234.4 220.4,235.4 220.6,232.9 220.9,232.9 221.1,231.0 221.4,232.1 221.7,232.7 221.9,233.1 222.2,232.1 222.4,229.1 222.7,229.4 222.9,229.9 223.2,230.0 223.4,229.1 223.7,226.3 223.9,224.4 224.2,225.0 224.4,225.3 224.7,224.0 224.9,227.2 225.2,224.9 225.4,226.6 225.7,227.1 225.9,227.5 226.2,226.1 226.4,225.3 226.7,220.7 227.0,221.9 227.2,223.4 227.5,224.9 227.7,226.2 228.0,226.0 228.2,221.8 228.5,224.3 228.7,224.4 229.0,226.6 229.2,227.2 229.5,227.6 229.7,228.8 230.0,229.7 230.2,230.5 230.5,228.3 230.7,230.1 231.0,229.6 231.2,228.6 231.5,228.9 231.7,228.5 232.0,228.1 232.3,229.2 232.5,227.5 232.8,224.0 233.0,226.3 233.3,222.2 233.5,224.4 233.8,226.7 234.0,229.1 234.3,229.2 234.5,230.3 234.8,229.8 235.0,229.2 235.3,228.8 235.5,228.6 235.8,229.3 236.0,229.8 236.3,229.8 236.5,230.5 236.8,231.9 237.1,231.8 237.3,231.6 237.6,231.8 237.8,230.4 238.1,229.4 238.3,230.4 238.6,231.7 238.8,232.7 239.1,235.6 239.3,234.3 239.6,235.9 239.8,234.9 240.1,235.7 240.3,234.5 240.6,235.1 240.8,237.0 241.1,237.0 241.3,237.6 241.6,237.9 241.8,235.1 242.1,235.3 242.4,235.9 242.6,237.8 242.9,238.1 243.1,237.3 243.4,237.0 243.6,237.5 243.9,237.0 244.1,237.2 244.4,237.7 244.6,238.2 244.9,236.1 245.1,237.2 245.4,240.7 245.6,241.1 245.9,244.2 246.1,245.9 246.4,244.3 246.6,242.1 246.9,243.0 247.1,245.0 247.4,243.9 247.7,243.9 247.9,240.2 248.2,239.1 248.4,239.8 248.7,243.2 248.9,243.1 249.2,244.2 249.4,242.0 249.7,237.2 249.9,237.2 250.2,229.6 250.4,231.4 250.7,232.9 250.9,235.2 251.2,233.0 251.4,233.0 251.7,233.8 251.9,234.3 252.2,234.2 252.5,235.7 252.7,236.2 253.0,234.7 253.2,235.9 253.5,236.5 253.7,234.9 254.0,234.0 254.2,234.6 254.5,235.4 254.7,236.4 255.0,235.7 255.2,234.4 255.5,235.2 255.7,235.4 256.0,233.9 256.2,233.9 256.5,235.7 256.7,236.4 257.0,236.2 257.2,237.7 257.5,236.2 257.8,239.7 258.0,242.1 258.3,242.1 258.5,241.2 258.8,240.9 259.0,239.2 259.3,240.2 259.5,240.0 259.8,240.0 260.0,239.7 260.3,237.6 260.5,237.4 260.8,237.0 261.0,238.9 261.3,240.1 261.5,241.4 261.8,243.1 262.0,243.2 262.3,241.4 262.5,239.8 262.8,238.1 263.1,237.7 263.3,238.3 263.6,239.0 263.8,240.3 264.1,238.5 264.3,233.9 264.6,236.9 264.8,238.3 265.1,236.9 265.3,236.6 265.6,236.8 265.8,235.5 266.1,237.5 266.3,237.4 266.6,237.4 266.8,237.4 267.1,237.4 267.3,236.5 267.6,236.6 267.9,236.6 268.1,236.3 268.4,235.0 268.6,232.6 268.9,233.7 269.1,232.9 269.4,234.5 269.6,235.8 269.9,237.3 270.1,237.9 270.4,236.2 270.6,236.8 270.9,235.8 271.1,235.9 271.4,236.5 271.6,237.0 271.9,237.8 272.1,238.5 272.4,238.3 272.6,238.7 272.9,241.8 273.2,251.1 273.4,251.5 273.7,248.1 273.9,249.2 274.2,249.2 274.4,248.7 274.7,250.7 274.9,246.2 275.2,246.5 275.4,245.5 275.7,245.5 275.9,246.6 276.2,247.4 276.4,246.9 276.7,246.4 276.9,245.6 277.2,245.2 277.4,246.3 277.7,248.0 277.9,251.0 278.2,249.0 278.5,248.8 278.7,248.5 279.0,247.5 279.2,247.4 279.5,246.8 279.7,245.7 280.0,245.7 280.2,245.1 280.5,246.0 280.7,248.1 281.0,248.1 281.2,247.4 281.5,250.7 281.7,252.5 282.0,251.7 282.2,249.0 282.5,248.7 282.7,248.7 283.0,247.9 283.3,245.3 283.5,241.1 283.8,241.4 284.0,239.1 284.3,238.6 284.5,241.0 284.8,243.7 285.0,241.8 285.3,238.9 285.5,241.8 285.8,242.0 286.0,239.5 286.3,241.0 286.5,241.4 286.8,242.1 287.0,242.7 287.3,242.4 287.5,243.0 287.8,244.9 288.0,244.9 288.3,244.5 288.6,246.6 288.8,246.6 289.1,246.6 289.3,247.2 289.6,245.1 289.8,244.2 290.1,243.2 290.3,244.1 290.6,241.0 290.8,243.1 291.1,243.4 291.3,241.8 291.6,243.9 291.8,242.3 292.1,242.1 292.3,241.1 292.6,239.6 292.8,240.4 293.1,239.3 293.3,244.2 293.6,245.2 293.9,245.7 294.1,245.9 294.4,246.3 294.6,246.6 294.9,247.6 295.1,246.3 295.4,246.5 295.6,246.5 295.9,245.3 296.1,245.2 296.4,246.0 296.6,243.8 296.9,244.5 297.1,246.0 297.4,246.2 297.6,246.5 297.9,247.2 298.1,249.0 298.4,248.2 298.7,249.0 298.9,250.3 299.2,248.6 299.4,249.6 299.7,250.0 299.9,250.3 300.2,253.0 300.4,250.6 300.7,238.9 300.9,228.8 301.2,224.0 301.4,221.1 301.7,221.0 301.9,221.0 302.2,221.8 302.4,221.4 302.7,218.9 302.9,214.6 303.2,217.6 303.4,211.6 303.7,212.6 304.0,224.3 304.2,222.3 304.5,225.7 304.7,222.7 305.0,225.2 305.2,223.4 305.5,223.3 305.7,226.2 306.0,227.0 306.2,230.8 306.5,227.3 306.7,229.0 307.0,232.6 307.2,234.4 307.5,234.2 307.7,236.5 308.0,234.1 308.2,228.4 308.5,227.6 308.7,218.7 309.0,216.8 309.3,216.8 309.5,215.3 309.8,216.8 310.0,217.1 310.3,208.7 310.5,205.7 310.8,210.8 311.0,208.4 311.3,206.5 311.5,209.8 311.8,208.6 312.0,203.0 312.3,200.9 312.5,204.4 312.8,206.1 313.0,201.7 313.3,201.7 313.5,204.2 313.8,206.5 314.1,207.5 314.3,206.0 314.6,206.0 314.8,207.0 315.1,199.9 315.3,195.4 315.6,192.0 315.8,194.1 316.1,197.2 316.3,196.3 316.6,197.2 316.8,197.6 317.1,197.6 317.3,199.4 317.6,198.5 317.8,209.9 318.1,204.1 318.3,210.4 318.6,208.7 318.8,205.5 319.1,206.8 319.4,207.9 319.6,206.6 319.9,210.8 320.1,212.7 320.4,217.9 320.6,218.7 320.9,221.5 321.1,216.3 321.4,215.0 321.6,216.8 321.9,212.6 322.1,214.0 322.4,216.5 322.6,214.0 322.9,211.4 323.1,213.5 323.4,226.0 323.6,225.2 323.9,228.6 324.1,227.3 324.4,227.9 324.7,226.1 324.9,228.2 325.2,229.0 325.4,229.1 325.7,229.1 325.9,226.8 326.2,227.7 326.4,225.1 326.7,227.2 326.9,227.6 327.2,225.8 327.4,227.5 327.7,228.4 327.9,232.5 328.2,231.3 328.4,234.8 328.7,235.3 328.9,232.1 329.2,232.7 329.5,236.2 329.7,238.7 330.0,241.3 330.2,239.5 330.5,242.0 330.7,245.2 331.0,245.2 331.2,252.5 331.5,249.2 331.7,245.1 332.0,247.9 332.2,247.9 332.5,247.7 332.7,244.7 333.0,237.3 333.2,238.1 333.5,239.8 333.7,239.8 334.0,236.6 334.2,237.8 334.5,232.7 334.8,234.8 335.0,237.3 335.3,234.3 335.5,234.7 335.8,235.1 336.0,234.8 336.3,236.2 336.5,235.3 336.8,237.9 337.0,234.7 337.3,234.7 337.5,231.7 337.8,234.5 338.0,234.7 338.3,236.2 338.5,238.9 338.8,237.8 339.0,235.9 339.3,237.6 339.5,239.3 339.8,237.5 340.1,237.6 340.3,238.3 340.6,239.2 340.8,237.5 341.1,237.3 341.3,237.7 341.6,235.1 341.8,236.7 342.1,234.1 342.3,233.5 342.6,234.0 342.8,236.3 343.1,237.4 343.3,241.4 343.6,242.2 343.8,240.7 344.1,240.4 344.3,240.3 344.6,239.5 344.9,238.7 345.1,239.9 345.4,238.8 345.6,239.7 345.9,242.3 346.1,243.0 346.4,241.7 346.6,239.8 346.9,239.8 347.1,239.9 347.4,241.7 347.6,240.9 347.9,240.7 348.1,240.8 348.4,240.3 348.6,240.9 348.9,241.8 349.1,242.3 349.4,243.7 349.6,242.4 349.9,241.7 350.2,242.3 350.4,243.7 350.7,244.7 350.9,245.2 351.2,245.9 351.4,244.3 351.7,243.1 351.9,242.9 352.2,243.2 352.4,243.4 352.7,244.3 352.9,243.4 353.2,240.8 353.4,240.9 353.7,240.7 353.9,248.3 354.2,247.9 354.4,247.4 354.7,250.7 355.0,246.8 355.2,249.1 355.5,249.6 355.7,249.3 356.0,246.6 356.2,247.6 356.5,248.3 356.7,249.7 357.0,254.3 357.2,253.8 357.5,251.0 357.7,252.4 358.0,251.3 358.2,249.2 358.5,249.0 358.7,249.5 359.0,251.0 359.2,250.5 359.5,249.5 359.7,250.5 360.0,249.2 360.3,246.4 360.5,249.3 360.8,247.6 361.0,248.6 361.3,250.5 361.5,249.2 361.8,249.1 362.0,246.8 362.3,246.0 362.5,246.6 362.8,245.5 363.0,244.3 363.3,245.8 363.5,246.8 363.8,244.5 364.0,243.9 364.3,245.7 364.5,246.3 364.8,246.9 365.0,248.6 365.3,248.5 365.6,249.0 365.8,247.7 366.1,248.6 366.3,247.6 366.6,247.1 366.8,247.4 367.1,246.9 367.3,247.7 367.6,246.6 367.8,248.0 368.1,249.7 368.3,251.6 368.6,251.1 368.8,250.1 369.1,250.1 369.3,257.7 369.6,257.2 369.8,257.9 370.1,258.9 370.4,258.0 370.6,256.8 370.9,256.5 371.1,258.4 371.4,258.7 371.6,257.6 371.9,259.0 372.1,259.3 372.4,261.4 372.6,259.4 372.9,260.0 373.1,260.4 373.4,260.1 373.6,257.9 373.9,256.4 374.1,253.4 374.4,251.2 374.6,252.2 374.9,251.9 375.1,252.6 375.4,247.0 375.7,252.8 375.9,253.2 376.2,253.7 376.4,254.1 376.7,254.3 376.9,253.3 377.2,255.0 377.4,257.3 377.7,256.8 377.9,256.2 378.2,257.7 378.4,257.3 378.7,256.6 378.9,255.4 379.2,256.2 379.4,258.0 379.7,258.0 379.9,256.8 380.2,257.3 380.4,257.5 380.7,257.0 381.0,256.4 381.2,256.1 381.5,254.7 381.7,253.7 382.0,252.9 382.2,253.2 382.5,253.8 382.7,254.1 383.0,253.3 383.2,253.9 383.5,253.3 383.7,252.0 384.0,253.2 384.2,253.2 384.5,253.0 384.7,253.8 385.0,254.3 385.2,252.0 385.5,249.2 385.8,248.7 386.0,248.6 386.3,249.3 386.5,249.2 386.8,247.9 387.0,247.7 387.3,247.1 387.5,248.1 387.8,248.1 388.0,246.9 388.3,246.3 388.5,246.6 388.8,246.4 389.0,245.1 389.3,245.5 389.5,245.9 389.8,243.0 390.0,244.4 390.3,245.9 390.5,244.5 390.8,241.8 391.1,243.7 391.3,245.0 391.6,244.3 391.8,246.9 392.1,245.8 392.3,245.3 392.6,243.8 392.8,244.6 393.1,246.6 393.3,247.7 393.6,247.0 393.8,249.3 394.1,246.5 394.3,246.5 394.6,247.0 394.8,245.8 395.1,242.3 395.3,244.2 395.6,241.8 395.8,243.4 396.1,244.2 396.4,245.8 396.6,246.5 396.9,249.8 397.1,248.2 397.4,250.3 397.6,253.9 397.9,252.6 398.1,253.3 398.4,252.5 398.6,252.4 398.9,252.4 399.1,253.2 399.4,253.5 399.6,252.8 399.9,250.2 400.1,253.5 400.4,259.1 400.6,259.0 400.9,256.9 401.2,258.3 401.4,258.4 401.7,262.0 401.9,262.6 402.2,264.3 402.4,271.6 402.7,268.7 402.9,268.7 403.2,269.5 403.4,270.5 403.7,275.6 403.9,284.8 404.2,281.9 404.4,286.4 404.7,289.8 404.9,300.4 405.2,299.4 405.4,294.0 405.7,295.3 405.9,300.9 406.2,297.2 406.5,291.1 406.7,287.3 407.0,292.6 407.2,292.6 407.5,290.4 407.7,289.1 408.0,282.4 408.2,274.9 408.5,283.6 408.7,282.1 409.0,278.5 409.2,277.4 409.5,279.6 409.7,280.3 410.0,280.1 410.2,276.7 410.5,278.8 410.7,278.5 411.0,277.7 411.2,274.2 411.5,277.4 411.8,280.9 412.0,275.6 412.3,271.8 412.5,271.1 412.8,262.8 413.0,262.8 413.3,264.3 413.5,263.1 413.8,264.9 414.0,262.6 414.3,260.6 414.5,261.2 414.8,263.5 415.0,263.5 415.3,261.7 415.5,262.2 415.8,258.6 416.0,258.7 416.3,257.5 416.6,254.1 416.8,250.7 417.1,243.6 417.3,246.6 417.6,244.4 417.8,233.6 418.1,235.6 418.3,239.3 418.6,237.0 418.8,240.9 419.1,236.6 419.3,237.0 419.6,234.4 419.8,228.7 420.1,226.3 420.3,234.6 420.6,226.3 420.8,229.9 421.1,227.2 421.3,229.0 421.6,230.8 421.9,232.1 422.1,231.2 422.4,235.4 422.6,241.4 422.9,246.8 423.1,245.2 423.4,246.8 423.6,252.0 423.9,251.0 424.1,247.6 424.4,249.3 424.6,246.5 424.9,248.2 425.1,245.3 425.4,241.5 425.6,246.6 425.9,246.2 426.1,249.3 426.4,251.6 426.6,250.2 426.9,249.5 427.2,249.2 427.4,250.2 427.7,251.6 427.9,254.9 428.2,254.3 428.4,257.5 428.7,254.3 428.9,253.2 429.2,252.2 429.4,252.9 429.7,254.3 429.9,254.1 430.2,253.5 430.4,252.5 430.7,250.7 430.9,242.9 431.2,243.0 431.4,239.0 431.7,244.2 432.0,241.7 432.2,242.7 432.5,243.9 432.7,244.5 433.0,246.3 433.2,250.3 433.5,247.4 433.7,246.0 434.0,246.8 434.2,245.9 434.5,248.0 434.7,250.2 435.0,247.9 435.2,248.5 435.5,249.8 435.7,249.0 436.0,247.6 436.2,247.2 436.5,245.0 436.7,247.1 437.0,245.5 437.3,244.2 437.5,245.0 437.8,245.5 438.0,246.6 438.3,244.3 438.5,252.0 438.8,257.9 439.0,255.8 439.3,253.5 439.5,252.2 439.8,250.7 440.0,250.6 440.3,251.2 440.5,251.2 440.8,252.8 441.0,255.1 441.3,255.7 441.5,254.5 441.8,255.3 442.0,255.4 442.3,258.7 442.6,258.4 442.8,262.6 443.1,261.0 443.3,262.3 443.6,261.0 443.8,264.1 444.1,262.8 444.3,260.9 444.6,259.1 444.8,260.9 445.1,260.0 445.3,261.2 445.6,260.0 445.8,258.4 446.1,260.3 446.3,260.6 446.6,263.8 446.8,264.7 447.1,264.6 447.4,263.7 447.6,261.6 447.9,263.1 448.1,261.7 448.4,260.3 448.6,260.6 448.9,258.6 449.1,258.7 449.4,258.9 449.6,260.1 449.9,262.0 450.1,260.1 450.4,262.2 450.6,264.4 450.9,263.8 451.1,263.8 451.4,266.1 451.6,267.9 451.9,269.0 452.1,270.6 452.4,270.8 452.7,275.1 452.9,272.8 453.2,272.8 453.4,273.8 453.7,276.5 453.9,273.5 454.2,271.8 454.4,273.0 454.7,273.7 454.9,272.1 455.2,273.0 455.4,272.1 455.7,272.3 455.9,272.0 456.2,273.7 456.4,274.2 456.7,269.5 456.9,269.6 457.2,269.3 457.4,268.7 457.7,267.7 458.0,264.0 458.2,266.8 458.5,269.3 458.7,269.1 459.0,270.6 459.2,271.3 459.5,269.1 459.7,268.5 460.0,268.5 460.2,267.5 460.5,267.1 460.7,267.1 461.0,267.1 461.2,267.9 461.5,265.0 461.7,263.7 462.0,261.4 462.2,263.4 462.5,265.0 462.8,262.8 463.0,261.3 463.3,262.3 463.5,261.9 463.8,262.2 464.0,264.4 464.3,264.1 464.5,266.9 464.8,267.5 465.0,268.0 465.3,266.9 465.5,267.5 465.8,267.1 466.0,264.9 466.3,265.8 466.5,266.9 466.8,266.1 467.0,267.4 467.3,266.4 467.5,266.4 467.8,267.7 468.1,270.5 468.3,271.3 468.6,270.1 468.8,270.8 469.1,270.6 469.3,268.8 469.6,268.3 469.8,267.1 470.1,265.0 470.3,264.9 470.6,265.0 470.8,266.6 471.1,265.4 471.3,266.1 471.6,267.5 471.8,266.3 472.1,266.9 472.3,267.5 472.6,267.9 472.8,268.7 473.1,271.1 473.4,269.5 473.6,269.5 473.9,269.5 474.1,269.8 474.4,270.6 474.6,271.1 474.9,271.3 475.1,271.5 475.4,271.6 475.6,273.3 475.9,275.2 476.1,275.9 476.4,274.5 476.6,277.7 476.9,272.5 477.1,273.5 477.4,272.0 477.6,272.1 477.9,274.0 478.2,274.0 478.4,274.9 478.7,275.9 478.9,276.3 479.2,276.5 479.4,275.6 479.7,275.2 479.9,276.1 480.2,277.0 480.4,276.1 480.7,275.8 480.9,274.4 481.2,274.7 481.4,275.8 481.7,275.2 481.9,274.9 482.2,275.8 482.4,275.9 482.7,276.5 482.9,277.7 483.2,277.4 483.5,277.0 483.7,277.6 484.0,277.4 484.2,276.8 484.5,277.0 484.7,277.2 485.0,277.2 485.2,277.0 485.5,277.4 485.7,276.8 486.0,277.0 486.2,278.3 486.5,278.1 486.7,278.1 487.0,277.7 487.2,278.5 487.5,278.8 487.7,278.1 488.0,279.0 488.2,279.6 488.5,279.4 488.8,280.7 489.0,280.3 489.3,284.2 489.5,284.8 489.8,286.6 490.0,286.6 490.3,287.0 490.5,286.4 490.8,286.4 491.0,287.0 491.3,286.0 491.5,283.2 491.8,284.2 492.0,283.0 492.3,288.3 492.5,293.7 492.8,290.2 493.0,292.6 493.3,291.7 493.6,291.7 493.8,289.1 494.1,290.0 494.3,289.4 494.6,288.9 494.8,288.3 495.1,286.4 495.3,282.2 495.6,276.1 495.8,278.1 496.1,279.2 496.3,279.4 496.6,275.2 496.8,278.1 497.1,278.1 497.3,279.0 497.6,278.8 497.8,279.6 498.1,281.9 498.3,281.1 498.6,283.6 498.9,284.4 499.1,281.7 499.4,280.9 499.6,280.0 499.9,280.5 500.1,282.2 500.4,283.6 500.6,285.8 500.9,287.5 501.1,287.9 501.4,287.5 501.6,286.2 501.9,285.8 502.1,286.6 502.4,287.0 502.6,286.6 502.9,284.8 503.1,284.4 503.4,283.8 503.6,285.4 503.9,286.6 504.2,288.3 504.4,288.5 504.7,287.9 504.9,288.9 505.2,288.5 505.4,289.1 505.7,289.1 505.9,287.5 506.2,287.0 506.4,288.1 506.7,288.1 506.9,289.4 507.2,290.4 507.4,291.1 507.7,290.0 507.9,290.0 508.2,289.6 508.4,290.9 508.7,289.4 509.0,290.2 509.2,284.8 509.5,284.2 509.7,282.1 510.0,280.7 510.2,286.2 510.5,286.4 510.7,283.2 511.0,282.2 511.2,281.3 511.5,281.9 511.7,283.0 512.0,283.6 512.2,284.6 512.5,286.0 512.7,288.3 513.0,290.9 513.2,291.3 513.5,287.9 513.7,289.6 514.0,290.6 514.3,291.7 514.5,290.9 514.8,291.1 515.0,291.1 515.3,293.5 515.5,293.3 515.8,290.9 516.0,290.9 516.3,289.1 516.5,290.0 516.8,292.4 517.0,292.0 517.3,291.5 517.5,292.2 517.8,292.4 518.0,292.2 518.3,293.5 518.5,293.5 518.8,294.7 519.0,293.3 519.3,291.5 519.6,292.4 519.8,293.5 520.1,293.1 520.3,294.7 520.6,294.9 520.8,294.9 521.1,293.1 521.3,292.4 521.6,295.3 521.8,297.7 522.1,298.4 522.3,298.9 522.6,298.4 522.8,297.7 523.1,298.4 523.3,298.9 523.6,299.1 523.8,299.1 524.1,299.6 524.4,301.1 524.6,303.1 524.9,305.5 525.1,302.6 525.4,300.6 525.6,299.6 525.9,300.4 526.1,300.1 526.4,301.6 526.6,304.7 526.9,305.2 527.1,305.2 527.4,303.4 527.6,303.9 527.9,303.9 528.1,304.2 528.4,303.4 528.6,301.4 528.9,300.4 529.1,300.4 529.4,299.1 529.7,299.1 529.9,298.7 530.2,297.9 530.4,298.2 530.7,298.4 530.9,297.2 531.2,297.5 531.4,296.3 531.7,294.7 531.9,295.3 532.2,297.0 532.4,297.0 532.7,299.4 532.9,299.6 533.2,297.9 533.4,297.0 533.7,298.4 533.9,299.9 534.2,299.4 534.5,297.2 534.7,295.6 535.0,294.4 535.2,294.9 535.5,295.8 535.7,295.8 536.0,296.7 536.2,299.1 536.5,298.9 536.7,298.2 537.0,300.4 537.2,297.9 537.5,301.1 537.7,299.1 538.0,301.4 538.2,303.4 538.5,302.9 538.7,303.9 539.0,302.9 539.2,302.4 539.5,303.7 539.8,302.6 540.0,302.6 540.3,302.6 540.5,302.1 540.8,301.9 541.0,301.9 541.3,301.4 541.5,302.4 541.8,302.1 542.0,301.9 542.3,301.6 542.5,301.9 542.8,301.9 543.0,303.1 543.3,302.6 543.5,303.9 543.8,303.4 544.0,303.9 544.3,304.2 544.5,303.9 544.8,304.4 545.1,304.2 545.3,304.4 545.6,304.7 545.8,304.4 546.1,305.7 546.3,305.2 546.6,306.0 546.8,306.0 547.1,304.4 547.3,305.5 547.6,305.0 547.8,305.5 548.1,305.5 548.3,306.0 548.6,306.0 548.8,305.5 549.1,305.5 549.3,306.0 549.6,304.4 549.9,304.2 550.1,304.4 550.4,304.2 550.6,304.2 550.9,304.7 551.1,305.0 551.4,304.7 551.6,304.2 551.9,305.0 552.1,304.7 552.4,304.7 552.6,304.7 552.9,304.7 553.1,305.0 553.4,304.7 553.6,305.2 553.9,305.2 554.1,304.7 554.4,305.0 554.6,304.7 554.9,303.7 555.2,304.7 555.4,304.7 555.7,303.9 555.9,303.9 556.2,304.4 556.4,304.7 556.7,303.9 556.9,304.7 557.2,305.2 557.4,305.2 557.7,305.2 557.9,303.7 558.2,303.9 558.4,305.0 558.7,304.7 558.9,305.0 559.2,304.7 559.4,305.2 559.7,305.2 559.9,305.5 560.2,306.0 560.5,305.5 560.7,306.0 561.0,306.5 561.2,306.3 561.5,307.6 561.7,307.6 562.0,308.2 562.2,307.4 562.5,308.2 562.7,307.9 563.0,308.5 563.2,308.5 563.5,308.7 563.7,309.0 564.0,309.0 564.2,309.6 564.5,309.6 564.7,307.1 565.0,305.7 565.3,306.3 565.5,306.3 565.8,308.2 566.0,307.9 566.3,307.4 566.5,308.5 566.8,308.7 567.0,308.5 567.3,308.5 567.5,308.5 567.8,307.9 568.0,308.7 568.3,308.2 568.5,308.2 568.8,307.6 569.0,307.9 569.3,308.7 569.5,309.0 569.8,309.0 570.0,309.0 570.3,308.7 570.6,308.5 570.8,308.5 571.1,307.9 571.3,308.2 571.6,309.0 571.8,309.0 572.1,308.7 572.3,308.7 572.6,309.6 572.8,309.6 573.1,309.8 573.3,309.8 573.6,309.3 573.8,309.6 574.1,309.8 574.3,311.6 574.6,311.3 574.8,311.0 575.1,311.8 575.3,312.1 575.6,313.0 575.9,313.3 576.1,313.3 576.4,315.4 576.6,315.4 576.9,315.7 577.1,316.9 577.4,316.6 577.6,316.0 577.9,316.6 578.1,317.2 578.4,317.2 578.6,316.9 578.9,316.3 579.1,316.3 579.4,316.6 579.6,316.3 579.9,317.5 580.1,316.6 580.4,317.2 580.7,316.0 580.9,315.7 581.2,314.8 581.4,314.8 581.7,314.2 581.9,314.8 582.2,313.6 582.4,314.2 582.7,314.8 582.9,313.9 583.2,315.1 583.4,315.1 583.7,314.5 583.9,313.9 584.2,313.6 584.4,313.6 584.7,316.0 584.9,315.4 585.2,317.2 585.4,317.2 585.7,317.5 586.0,317.2 586.2,316.6 586.5,316.9 586.7,316.9 587.0,316.9 587.2,315.4 587.5,314.8 587.7,314.8 588.0,314.5 588.2,313.6 588.5,314.5 588.7,313.3 589.0,313.3 589.2,313.6 589.5,314.2 589.7,315.1 590.0,315.1 590.2,315.4 590.5,315.4 590.7,315.4 591.0,315.4 591.3,315.4 591.5,315.4 591.8,315.1 592.0,311.0 592.3,309.0 592.5,309.0 592.8,310.4 593.0,309.6 593.3,308.5 593.5,308.7 593.8,309.6 594.0,310.1 594.3,310.4 594.5,311.0 594.8,310.7 595.0,311.0 595.3,311.3 595.5,310.1 595.8,309.3 596.1,309.8 596.3,310.4 596.6,310.4 596.8,309.8 597.1,309.3 597.3,309.8 597.6,308.2 597.8,308.2 598.1,307.4 598.3,307.6 598.6,306.8 598.8,307.6 599.1,307.6 599.3,306.8 599.6,306.8 599.8,305.7 600.1,304.2 600.3,304.4 600.6,306.0 600.8,305.5 601.1,305.2 601.4,305.5 601.6,306.3 601.9,305.2 602.1,305.5 602.4,302.9 602.6,302.9 602.9,302.4 603.1,302.4 603.4,297.0 603.6,299.6 603.9,300.6 604.1,301.6 604.4,297.5 604.6,299.9 604.9,299.6 605.1,299.1 605.4,299.4 605.6,301.1 605.9,296.0 606.1,294.0 606.4,277.7 606.7,278.7 606.9,279.2 607.2,282.1 607.4,286.4 607.7,287.9 607.9,287.9 608.2,281.7 608.4,281.9 608.7,281.7 608.9,282.8 609.2,285.6 609.4,287.7 609.7,286.8 609.9,288.5 610.2,287.3 610.4,292.0 610.7,291.1 610.9,291.7 611.2,291.7 611.5,290.9 611.7,290.0 612.0,291.7 612.2,292.4 612.5,292.6 612.7,292.6 613.0,292.0 613.2,292.6 613.5,292.2 613.7,292.4 614.0,294.2 614.2,294.2 614.5,295.1 614.7,294.7 615.0,294.9 615.2,295.6 615.5,296.3 615.7,297.7 616.0,301.6 616.2,303.1 616.5,304.2 616.8,303.4 617.0,301.9 617.3,301.9 617.5,300.6 617.8,300.4 618.0,298.4 618.3,299.6 618.5,297.2 618.8,296.7 619.0,297.2 619.3,296.5 619.5,297.5 619.8,297.7 620.0,298.2 620.3,299.4 620.5,298.9 620.8,297.7 621.0,297.0 621.3,297.5 621.5,298.2 621.8,298.9 622.1,299.1 622.3,299.6 622.6,299.4 622.8,298.4 623.1,298.7 623.3,298.9 623.6,296.5 623.8,296.5 624.1,296.0 624.3,294.4 624.6,299.1 624.8,298.7 625.1,297.9 625.3,297.7 625.6,298.2 625.8,298.9 626.1,300.1 626.3,300.6 626.6,302.6 626.9,300.6 627.1,301.4 627.4,300.4 627.6,301.4 627.9,302.9 628.1,303.1 628.4,303.4 628.6,303.1 628.9,303.7 629.1,304.2 629.4,304.7 629.6,305.0 629.9,304.2 630.1,302.9 630.4,303.4 630.6,305.2 630.9,304.4 631.1,304.2 631.4,302.6 631.6,304.2 631.9,306.8 632.2,305.7 632.4,306.5 632.7,305.5 632.9,305.0 633.2,305.0 633.4,304.7 633.7,305.7 633.9,306.5 634.2,306.3 634.4,307.6 634.7,307.1 634.9,306.8 635.2,308.7 635.4,309.0 635.7,308.5 635.9,308.7 636.2,309.0 636.4,309.6 636.7,309.6 636.9,310.1 637.2,311.0 637.5,307.1 637.7,309.6 638.0,309.8 638.2,311.6 638.5,310.7 638.7,312.4 639.0,313.0 639.2,300.1 639.5,296.0 639.7,290.2 640.0,287.9 640.2,284.8 640.5,276.5 640.7,275.6 641.0,278.1 641.2,264.7 641.5,254.2 641.7,241.3 642.0,245.9 642.3,241.1 642.5,245.5 642.8,252.1 643.0,251.9 643.3,257.0 643.5,256.2 643.8,252.9 644.0,255.9 644.3,252.0 644.5,251.6 644.8,253.5 645.0,254.3 645.3,243.0 645.5,248.1 645.8,244.1 646.0,242.7 646.3,245.9 646.5,247.7 646.8,247.7 647.0,246.3 647.3,239.3 647.6,230.4 647.8,230.5 648.1,239.2 648.3,239.1 648.6,229.0 648.8,223.5 649.1,224.2 649.3,225.6 649.6,224.4 649.8,212.2 650.1,201.7 650.3,219.9 650.6,220.2 650.8,225.7 651.1,225.4 651.3,217.3 651.6,222.7 651.8,224.8 652.1,224.6 652.3,225.0 652.6,227.5 652.9,230.9 653.1,232.7 653.4,232.9 653.6,233.0 653.9,234.5 654.1,234.2 654.4,234.4 654.6,237.0 654.9,236.5 655.1,234.4 655.4,229.3 655.6,222.4 655.9,211.8 656.1,201.3 656.4,184.0 656.6,170.0 656.9,154.6 657.1,139.1 657.4,126.2 657.7,144.9 657.9,161.9 658.2,157.6 658.4,172.4 658.7,174.2 658.9,170.4 659.2,177.2 659.4,166.6 659.7,151.9 659.9,145.5 660.2,148.6 660.4,148.6 660.7,160.0 660.9,167.1 661.2,172.9 661.4,172.6 661.7,171.5 661.9,170.4 662.2,178.0 662.4,180.3 662.7,162.9 663.0,166.3 663.2,169.2 663.5,168.6 663.7,172.6 664.0,172.9 664.2,175.2 664.5,178.1 664.7,178.1 665.0,177.2 665.2,160.5 665.5,160.1 665.7,167.0 666.0,170.8 666.2,166.9 666.5,159.3 666.7,162.1 667.0,164.8 667.2,161.6 667.5,159.7 667.7,160.4 668.0,163.4 668.3,164.0 668.5,160.7 668.8,162.7 669.0,164.4 669.3,167.3 669.5,169.1 669.8,167.1 670.0,165.0 670.3,166.6 670.5,166.3 670.8,164.0 671.0,166.2 671.3,165.8 671.5,160.9 671.8,162.7 672.0,160.1 672.3,161.2 672.5,165.0 672.8,164.4 673.1,164.3 673.3,167.1 673.6,170.0 673.8,174.8 674.1,175.1 674.3,176.4 674.6,178.2 674.8,180.7 675.1,175.7 675.3,176.9 675.6,171.7 675.8,177.1 676.1,183.7 676.3,200.9 676.6,191.5 676.8,188.4 677.1,190.4 677.3,190.8 677.6,188.8 677.8,188.9 678.1,187.0 678.4,191.2 678.6,195.8 678.9,195.7 679.1,195.7 679.4,184.5 679.6,188.8 679.9,188.1 680.1,192.6 680.4,195.8 680.6,194.4 680.9,191.6 681.1,188.0 681.4,182.3 681.6,188.2 681.9,189.4 682.1,193.2 682.4,195.5 682.6,194.9 682.9,198.2 683.1,192.6 683.4,193.3 683.7,196.3 683.9,199.7 684.2,198.5 684.4,198.4 684.7,191.3 684.9,191.3 685.2,196.1 685.4,186.5 685.7,190.9 685.9,186.4 686.2,185.0 686.4,189.6 686.7,188.0 686.9,193.9 687.2,196.3 687.4,195.7 687.7,198.3 687.9,197.3 688.2,197.4 688.5,198.7 688.7,199.5 689.0,196.5 689.2,195.7 689.5,195.7 689.7,198.1 690.0,201.5 690.2,207.3 690.5,202.9 690.7,197.4 691.0,198.7 691.2,199.2 691.5,203.5 691.7,205.4 692.0,204.7 692.2,204.4 692.5,204.1 692.7,203.3 693.0,204.5 693.2,205.0 693.5,205.7 693.8,214.4 694.0,211.0 694.3,211.5 694.5,211.4 694.8,212.2 695.0,208.8 695.3,211.8 695.5,216.7 695.8,218.0 696.0,217.7 696.3,224.1 696.5,228.6 696.8,226.9 697.0,228.6 697.3,227.5 697.5,226.9 697.8,232.9 698.0,238.2 698.3,239.0 698.5,238.5 698.8,239.5 699.1,242.3 699.3,242.8 699.6,241.7 699.8,245.1 700.1,240.2 700.3,242.0 700.6,237.5 700.8,242.8 701.1,241.8 701.3,238.4 701.6,239.0 701.8,240.5 702.1,236.5 702.3,235.2 702.6,239.1 702.8,238.6 703.1,241.5 703.3,242.3 703.6,242.8 703.9,245.9 704.1,240.8 704.4,241.9 704.6,240.5 704.9,240.3 705.1,235.6 705.4,237.0 705.6,233.3 705.9,231.6 706.1,234.7 706.4,236.5 706.6,237.7 706.9,235.8 707.1,237.1 707.4,236.5 707.6,229.8 707.9,229.4 708.1,226.7 708.4,229.8 708.6,229.4 708.9,238.8 709.2,239.1 709.4,248.6 709.7,245.3 709.9,239.7 710.2,234.0 710.4,230.1 710.7,228.4 710.9,231.9 711.2,218.5 711.4,215.3 711.7,216.9 711.9,207.7 712.2,209.4 712.4,204.9 712.7,204.6 712.9,207.2 713.2,211.7 713.4,208.9 713.7,206.3 714.0,204.1 714.2,207.9 714.5,209.8 714.7,209.2 715.0,207.0 715.2,210.5 715.5,211.3 715.7,212.9 716.0,213.7 716.2,218.2 716.5,222.7 716.7,223.5 717.0,228.5 717.2,239.0 717.5,233.2 717.7,238.6 718.0,231.8 718.2,230.1 718.5,228.6 718.7,226.1 719.0,227.2 719.3,225.2 719.5,223.5 719.8,221.7 720.0,221.8 720.3,215.6 720.5,214.5 720.8,217.3 721.0,218.1 721.3,218.4 721.5,218.1 721.8,219.5 722.0,221.3 722.3,221.8 722.5,223.1 722.8,221.3 723.0,218.1 723.3,215.7 723.5,213.8 723.8,226.3 724.0,228.1 724.3,231.6 724.6,230.9 724.8,232.2 725.1,234.3 725.3,233.5 725.6,233.2 725.8,233.6 726.1,219.9 726.3,208.3 726.6,189.5 726.8,184.0 727.1,169.9 727.3,165.4 727.6,167.0 727.8,152.2 728.1,141.9 728.3,148.7 728.6,144.4 728.8,149.6 729.1,152.0 729.4,141.3 729.6,155.8 729.9,146.4 730.1,148.8 730.4,154.3 730.6,159.5 730.9,165.7 731.1,174.2 731.4,179.0 731.6,176.0 731.9,176.8 732.1,177.1 732.4,176.9 732.6,160.2 732.9,146.6 733.1,132.5 733.4,120.5 733.6,106.6 733.9,120.5 734.1,119.8 734.4,124.8 734.7,122.9 734.9,108.5 735.2,117.1 735.4,112.9 735.7,108.5 735.9,113.5 736.2,116.4 736.4,120.1 736.7,124.8 736.9,119.1 737.2,119.4 737.4,126.4 737.7,133.0 737.9,132.0 738.2,131.3 738.4,128.1 738.7,122.9 738.9,125.0 739.2,143.4 739.4,140.3 739.7,135.8 740.0,127.2 740.2,123.3 740.5,129.1 740.7,126.9 741.0,132.6 741.2,138.1 741.5,139.8 741.7,143.7 742.0,148.6 742.2,151.5 742.5,142.3 742.7,140.8 743.0,133.8 743.2,141.3 743.5,140.6 743.7,139.8 744.0,138.3 744.2,132.9 744.5,147.1 744.8,164.7 745.0,150.3 745.3,155.2 745.5,157.3 745.8,155.7 746.0,146.2 746.3,132.4 746.5,128.5 746.8,136.1 747.0,151.0 747.3,151.5 747.5,156.0 747.8,158.6 748.0,155.5 748.3,152.6 748.5,163.5 748.8,174.4 749.0,180.2 749.3,183.7 749.5,178.3 749.8,180.4 750.1,176.5 750.3,178.4 750.6,182.1 750.8,174.6 751.1,170.5 751.3,172.1 751.6,166.8 751.8,166.6 752.1,170.2 752.3,171.3 752.6,162.9 752.8,162.4 753.1,155.3 753.3,160.0 753.6,162.5 753.8,149.5 754.1,146.6 754.3,137.3 754.6,138.0 754.8,139.2 755.1,143.1 755.4,148.0 755.6,152.9 755.9,149.6 756.1,150.6 756.4,152.8 756.6,157.8 756.9,158.3 757.1,144.6 757.4,146.8 757.6,151.1 757.9,154.4 758.1,152.6 758.4,156.1 758.6,153.8 758.9,155.5 759.1,155.5 759.4,157.8 759.6,157.2 759.9,158.2 760.2,158.8 760.4,159.8 760.7,162.9 760.9,164.9 761.2,163.0 761.4,158.3 761.7,159.1 761.9,157.7 762.2,159.6 762.4,161.4 762.7,159.7 762.9,159.8 763.2,155.7 763.4,154.4 763.7,152.6 763.9,149.6 764.2,152.7 764.4,152.7 764.7,151.8 764.9,149.8 765.2,151.9 765.5,155.2 765.7,156.4 766.0,158.5 766.2,158.7 766.5,158.7 766.7,158.7 767.0,158.7 767.2,158.8 767.5,160.3 767.7,164.4 768.0,165.1 768.2,164.5 768.5,164.7 768.7,167.7 769.0,169.6 769.2,167.2 769.5,162.3 769.7,157.5 770.0,163.1 770.2,160.2 770.5,162.5 770.8,163.1 771.0,161.6 771.3,164.1 771.5,166.9 771.8,165.9 772.0,164.5 772.3,163.6 772.5,167.5 772.8,171.3 773.0,179.2 773.3,177.2 773.5,177.8 773.8,178.7 774.0,173.7 774.3,172.1 774.5,171.9 774.8,175.2 775.0,176.4 775.3,179.4 775.6,178.9 775.8,181.7 776.1,192.1 776.3,190.4 776.6,184.5 776.8,186.4 777.1,186.6 777.3,189.7 777.6,193.3 777.8,187.6 778.1,188.5 778.3,189.5 778.6,190.6 778.8,191.4 779.1,187.0 779.3,187.2 779.6,188.0 779.8,188.1 780.1,183.7 780.3,182.3 780.6,178.7 780.9,176.1 781.1,176.7 781.4,176.7 781.6,179.7 781.9,180.8 782.1,182.0 782.4,182.6 782.6,180.8 782.9,181.6 783.1,182.3 783.4,172.2 783.6,156.4 783.9,147.4 784.1,150.9 784.4,150.0 784.6,154.3 784.9,147.9 785.1,133.6 785.4,121.5 785.6,120.3 785.9,106.4 786.2,94.7 786.4,99.7 786.7,96.0 786.9,100.6 787.2,89.6 787.4,76.5 787.7,87.2 787.9,101.9 788.2,90.8 788.4,82.1 788.7,93.2 788.9,92.6 789.2,98.0 789.4,102.6 789.7,102.2 789.9,98.2 790.2,94.0 790.4,88.8 790.7,93.0 791.0,90.1 791.2,87.8 791.5,91.3 791.7,99.2 792.0,97.2 792.2,93.8 792.5,105.0 792.7,116.2 793.0,118.9 793.2,119.9 793.5,127.0 793.7,125.7 794.0,129.6 794.2,134.8 794.5,136.5 794.7,131.5 795.0,132.8 795.2,133.6 795.5,133.5 795.7,129.7 796.0,133.5"/><polyline fill="none" stroke="#16a34a" stroke-width="3" points="78.0,207.4 78.3,188.8 78.5,205.0 78.8,207.8 79.0,201.5 79.3,184.2 79.5,175.3 79.8,179.7 80.0,191.3 80.3,190.5 80.5,192.2 80.8,199.9 81.0,206.0 81.3,204.1 81.5,200.0 81.8,198.1 82.0,205.5 82.3,205.5 82.5,207.4 82.8,211.4 83.0,201.0 83.3,202.3 83.6,209.7 83.8,208.4 84.1,206.4 84.3,209.6 84.6,210.7 84.8,213.6 85.1,212.9 85.3,211.0 85.6,208.2 85.8,212.0 86.1,214.7 86.3,219.0 86.6,217.6 86.8,218.6 87.1,220.8 87.3,212.9 87.6,218.6 87.8,218.7 88.1,218.6 88.4,218.9 88.6,216.1 88.9,218.6 89.1,221.7 89.4,221.9 89.6,222.6 89.9,223.1 90.1,228.5 90.4,231.5 90.6,231.1 90.9,230.5 91.1,229.5 91.4,223.2 91.6,228.6 91.9,232.3 92.1,231.3 92.4,227.8 92.6,226.3 92.9,227.3 93.1,226.0 93.4,230.9 93.7,230.0 93.9,231.6 94.2,232.4 94.4,235.2 94.7,235.6 94.9,237.9 95.2,237.3 95.4,236.1 95.7,235.6 95.9,236.9 96.2,236.6 96.4,229.6 96.7,229.2 96.9,226.9 97.2,226.5 97.4,226.8 97.7,231.5 97.9,233.6 98.2,233.2 98.4,231.2 98.7,227.7 99.0,226.7 99.2,230.1 99.5,232.6 99.7,234.3 100.0,233.4 100.2,232.7 100.5,234.1 100.7,234.5 101.0,235.2 101.2,235.1 101.5,232.9 101.7,232.3 102.0,233.7 102.2,234.6 102.5,235.2 102.7,235.2 103.0,235.2 103.2,235.2 103.5,235.2 103.8,235.5 104.0,235.5 104.3,235.4 104.5,235.2 104.8,235.4 105.0,233.8 105.3,235.4 105.5,221.4 105.8,220.4 106.0,227.2 106.3,228.9 106.5,225.9 106.8,228.6 107.0,231.7 107.3,228.9 107.5,232.1 107.8,227.6 108.0,227.2 108.3,224.4 108.5,225.9 108.8,228.6 109.1,228.6 109.3,232.6 109.6,232.6 109.8,227.4 110.1,230.2 110.3,231.4 110.6,233.7 110.8,232.3 111.1,235.7 111.3,237.2 111.6,238.2 111.8,237.5 112.1,234.4 112.3,235.7 112.6,230.9 112.8,227.9 113.1,229.0 113.3,230.7 113.6,232.8 113.8,233.7 114.1,234.6 114.4,233.9 114.6,235.4 114.9,235.0 115.1,236.2 115.4,236.3 115.6,237.6 115.9,238.7 116.1,239.5 116.4,240.1 116.6,240.1 116.9,239.5 117.1,239.7 117.4,242.4 117.6,243.0 117.9,245.3 118.1,244.2 118.4,238.3 118.6,237.8 118.9,240.5 119.2,252.5 119.4,258.2 119.7,250.0 119.9,252.2 120.2,250.7 120.4,249.8 120.7,254.3 120.9,256.2 121.2,256.8 121.4,260.3 121.7,262.6 121.9,264.9 122.2,261.3 122.4,257.5 122.7,255.8 122.9,256.5 123.2,258.6 123.4,260.1 123.7,260.1 123.9,259.7 124.2,260.6 124.5,255.3 124.7,253.7 125.0,256.5 125.2,253.9 125.5,254.3 125.7,254.1 126.0,251.9 126.2,253.4 126.5,251.5 126.7,252.4 127.0,251.3 127.2,250.1 127.5,251.3 127.7,250.0 128.0,250.1 128.2,251.0 128.5,253.5 128.7,254.3 129.0,255.4 129.2,255.0 129.5,253.8 129.8,254.7 130.0,245.8 130.3,243.2 130.5,246.6 130.8,250.7 131.0,252.8 131.3,253.4 131.5,254.2 131.8,253.4 132.0,252.1 132.3,252.0 132.5,250.8 132.8,252.1 133.0,258.2 133.3,258.0 133.5,257.0 133.8,257.5 134.0,257.5 134.3,256.8 134.6,253.0 134.8,254.2 135.1,245.5 135.3,250.8 135.6,252.2 135.8,254.5 136.1,248.2 136.3,246.2 136.6,248.8 136.8,249.6 137.1,248.8 137.3,250.7 137.6,251.3 137.8,253.9 138.1,259.4 138.3,257.5 138.6,257.2 138.8,259.4 139.1,260.0 139.3,262.5 139.6,265.4 139.9,265.4 140.1,261.2 140.4,255.9 140.6,252.1 140.9,248.0 141.1,246.2 141.4,251.1 141.6,253.0 141.9,241.1 142.1,248.5 142.4,248.0 142.6,251.5 142.9,258.4 143.1,259.0 143.4,256.8 143.6,263.8 143.9,269.8 144.1,264.7 144.4,257.5 144.6,260.3 144.9,258.7 145.2,258.0 145.4,259.6 145.7,256.9 145.9,259.1 146.2,262.8 146.4,263.2 146.7,267.2 146.9,265.8 147.2,266.0 147.4,272.1 147.7,283.4 147.9,279.2 148.2,277.6 148.4,277.9 148.7,277.0 148.9,277.6 149.2,275.8 149.4,276.8 149.7,279.0 150.0,265.5 150.2,270.8 150.5,270.5 150.7,270.3 151.0,266.9 151.2,265.8 151.5,264.0 151.7,259.7 152.0,260.3 152.2,261.4 152.5,260.7 152.7,254.1 153.0,241.9 153.2,245.3 153.5,246.3 153.7,250.7 154.0,251.7 154.2,248.2 154.5,247.5 154.7,245.6 155.0,246.0 155.3,244.9 155.5,246.0 155.8,247.7 156.0,248.0 156.3,252.1 156.5,252.9 156.8,258.6 157.0,258.3 157.3,255.1 157.5,249.6 157.8,249.0 158.0,251.0 158.3,243.4 158.5,244.6 158.8,245.5 159.0,244.7 159.3,235.4 159.5,236.6 159.8,233.1 160.0,223.8 160.3,219.5 160.6,228.2 160.8,229.7 161.1,232.6 161.3,227.0 161.6,214.3 161.8,203.5 162.1,206.4 162.3,193.2 162.6,196.3 162.8,201.6 163.1,211.7 163.3,208.1 163.6,219.6 163.8,218.5 164.1,219.3 164.3,212.6 164.6,211.1 164.8,210.6 165.1,215.3 165.4,218.9 165.6,210.8 165.9,211.5 166.1,215.1 166.4,215.3 166.6,213.3 166.9,216.3 167.1,219.0 167.4,220.7 167.6,221.2 167.9,221.7 168.1,227.4 168.4,233.6 168.6,230.5 168.9,234.1 169.1,233.8 169.4,231.3 169.6,231.6 169.9,235.1 170.1,234.2 170.4,243.2 170.7,238.1 170.9,234.1 171.2,231.4 171.4,231.5 171.7,226.5 171.9,226.7 172.2,231.0 172.4,224.8 172.7,226.8 172.9,229.4 173.2,229.4 173.4,228.1 173.7,229.8 173.9,228.1 174.2,230.2 174.4,233.5 174.7,234.3 174.9,235.2 175.2,236.5 175.5,235.4 175.7,238.1 176.0,239.0 176.2,241.5 176.5,238.9 176.7,239.6 177.0,239.7 177.2,244.6 177.5,244.6 177.7,245.6 178.0,245.6 178.2,243.9 178.5,243.7 178.7,241.3 179.0,240.7 179.2,239.7 179.5,241.2 179.7,242.9 180.0,243.2 180.2,242.8 180.5,241.2 180.8,241.9 181.0,242.0 181.3,243.4 181.5,242.1 181.8,241.9 182.0,242.6 182.3,241.8 182.5,240.7 182.8,236.3 183.0,236.4 183.3,234.6 183.5,234.7 183.8,232.0 184.0,234.3 184.3,233.9 184.5,237.9 184.8,238.3 185.0,238.4 185.3,238.5 185.5,237.7 185.8,237.3 186.1,235.8 186.3,234.0 186.6,229.3 186.8,228.7 187.1,230.4 187.3,229.3 187.6,229.4 187.8,228.1 188.1,228.2 188.3,226.4 188.6,229.6 188.8,231.9 189.1,233.6 189.3,233.7 189.6,232.7 189.8,231.3 190.1,230.4 190.3,229.6 190.6,231.4 190.9,231.0 191.1,232.2 191.4,231.6 191.6,233.0 191.9,233.9 192.1,234.7 192.4,235.2 192.6,237.8 192.9,240.9 193.1,239.6 193.4,239.5 193.6,244.3 193.9,242.3 194.1,244.1 194.4,237.9 194.6,238.1 194.9,237.3 195.1,235.8 195.4,237.5 195.6,234.8 195.9,236.8 196.2,237.6 196.4,239.8 196.7,239.1 196.9,239.3 197.2,239.6 197.4,240.1 197.7,240.9 197.9,241.3 198.2,241.7 198.4,240.3 198.7,240.3 198.9,239.5 199.2,238.9 199.4,239.2 199.7,239.3 199.9,239.9 200.2,241.7 200.4,242.4 200.7,242.4 200.9,243.1 201.2,243.2 201.5,239.7 201.7,235.9 202.0,237.6 202.2,238.7 202.5,237.6 202.7,235.3 203.0,230.6 203.2,231.5 203.5,230.2 203.7,232.0 204.0,233.4 204.2,231.9 204.5,232.4 204.7,235.2 205.0,234.5 205.2,235.0 205.5,235.9 205.7,234.6 206.0,235.6 206.3,234.4 206.5,234.1 206.8,228.2 207.0,227.3 207.3,228.5 207.5,225.9 207.8,222.3 208.0,220.5 208.3,221.4 208.5,222.5 208.8,219.4 209.0,222.9 209.3,223.5 209.5,222.1 209.8,226.0 210.0,227.2 210.3,226.6 210.5,224.2 210.8,222.3 211.0,224.0 211.3,217.3 211.6,217.9 211.8,215.2 212.1,216.9 212.3,214.1 212.6,215.6 212.8,216.7 213.1,216.0 213.3,212.3 213.6,213.6 213.8,215.0 214.1,212.7 214.3,213.3 214.6,217.7 214.8,217.7 215.1,222.1 215.3,221.7 215.6,222.3 215.8,217.1 216.1,218.8 216.3,218.7 216.6,220.1 216.9,223.0 217.1,223.8 217.4,219.7 217.6,221.9 217.9,221.1 218.1,223.6 218.4,227.2 218.6,225.6 218.9,230.4 219.1,229.5 219.4,228.6 219.6,232.9 219.9,236.5 220.1,234.4 220.4,235.4 220.6,232.9 220.9,232.9 221.1,231.0 221.4,232.1 221.7,232.7 221.9,233.1 222.2,232.1 222.4,229.1 222.7,229.4 222.9,229.9 223.2,230.0 223.4,229.1 223.7,226.3 223.9,224.4 224.2,225.0 224.4,225.3 224.7,224.0 224.9,227.2 225.2,224.9 225.4,226.6 225.7,227.1 225.9,227.5 226.2,226.1 226.4,225.3 226.7,220.7 227.0,221.9 227.2,223.4 227.5,224.9 227.7,226.2 228.0,226.0 228.2,221.8 228.5,224.3 228.7,224.4 229.0,226.6 229.2,227.2 229.5,227.6 229.7,228.8 230.0,229.7 230.2,230.5 230.5,228.3 230.7,230.1 231.0,229.6 231.2,228.6 231.5,228.9 231.7,228.5 232.0,228.1 232.3,229.2 232.5,227.5 232.8,224.0 233.0,226.3 233.3,222.2 233.5,224.4 233.8,226.7 234.0,229.1 234.3,229.2 234.5,230.3 234.8,229.8 235.0,229.2 235.3,228.8 235.5,228.6 235.8,229.3 236.0,229.8 236.3,229.8 236.5,230.5 236.8,231.9 237.1,231.8 237.3,231.6 237.6,231.8 237.8,230.4 238.1,229.4 238.3,230.4 238.6,231.7 238.8,232.7 239.1,235.6 239.3,234.3 239.6,235.9 239.8,234.9 240.1,235.7 240.3,234.5 240.6,235.1 240.8,237.0 241.1,237.0 241.3,237.6 241.6,237.9 241.8,235.1 242.1,235.3 242.4,235.9 242.6,237.8 242.9,238.1 243.1,237.3 243.4,237.0 243.6,237.5 243.9,237.0 244.1,237.2 244.4,237.7 244.6,238.2 244.9,236.1 245.1,237.2 245.4,240.7 245.6,241.1 245.9,244.2 246.1,245.9 246.4,244.3 246.6,242.1 246.9,243.0 247.1,245.0 247.4,243.9 247.7,243.9 247.9,240.2 248.2,239.1 248.4,239.8 248.7,243.2 248.9,243.1 249.2,244.2 249.4,242.0 249.7,237.2 249.9,237.2 250.2,229.6 250.4,231.4 250.7,232.9 250.9,235.2 251.2,233.0 251.4,233.0 251.7,233.8 251.9,234.3 252.2,234.2 252.5,235.7 252.7,236.2 253.0,234.7 253.2,235.9 253.5,236.5 253.7,234.9 254.0,234.0 254.2,234.6 254.5,235.4 254.7,236.4 255.0,235.7 255.2,234.4 255.5,235.2 255.7,235.4 256.0,233.9 256.2,233.9 256.5,235.7 256.7,236.4 257.0,236.2 257.2,237.7 257.5,236.2 257.8,239.7 258.0,242.1 258.3,242.1 258.5,241.2 258.8,240.9 259.0,239.2 259.3,240.2 259.5,240.0 259.8,240.0 260.0,239.7 260.3,237.6 260.5,237.4 260.8,237.0 261.0,238.9 261.3,240.1 261.5,241.4 261.8,243.1 262.0,243.2 262.3,241.4 262.5,239.8 262.8,238.1 263.1,237.7 263.3,238.3 263.6,239.0 263.8,240.3 264.1,238.5 264.3,233.9 264.6,236.9 264.8,238.3 265.1,236.9 265.3,236.6 265.6,236.8 265.8,235.5 266.1,237.5 266.3,237.4 266.6,237.4 266.8,237.4 267.1,237.4 267.3,236.5 267.6,236.6 267.9,236.6 268.1,236.3 268.4,235.0 268.6,232.6 268.9,233.7 269.1,232.9 269.4,234.5 269.6,235.8 269.9,237.3 270.1,237.9 270.4,236.2 270.6,236.8 270.9,235.8 271.1,235.9 271.4,236.5 271.6,237.0 271.9,237.8 272.1,238.5 272.4,238.3 272.6,238.7 272.9,241.8 273.2,251.1 273.4,251.5 273.7,248.1 273.9,249.2 274.2,249.2 274.4,248.7 274.7,250.7 274.9,246.2 275.2,246.5 275.4,245.5 275.7,245.5 275.9,246.6 276.2,247.4 276.4,246.9 276.7,246.4 276.9,245.6 277.2,245.2 277.4,246.3 277.7,248.0 277.9,251.0 278.2,249.0 278.5,248.8 278.7,248.5 279.0,247.5 279.2,247.4 279.5,246.8 279.7,245.7 280.0,245.7 280.2,245.1 280.5,246.0 280.7,248.1 281.0,248.1 281.2,247.4 281.5,250.7 281.7,252.5 282.0,251.7 282.2,249.0 282.5,248.7 282.7,248.7 283.0,247.9 283.3,245.3 283.5,241.1 283.8,241.4 284.0,239.1 284.3,238.6 284.5,241.0 284.8,243.7 285.0,241.8 285.3,238.9 285.5,241.8 285.8,242.0 286.0,239.5 286.3,241.0 286.5,241.4 286.8,242.1 287.0,242.7 287.3,242.4 287.5,243.0 287.8,244.9 288.0,244.9 288.3,244.5 288.6,246.6 288.8,246.6 289.1,246.6 289.3,247.2 289.6,245.1 289.8,244.2 290.1,243.2 290.3,244.1 290.6,241.0 290.8,243.1 291.1,243.4 291.3,241.8 291.6,243.9 291.8,242.3 292.1,242.1 292.3,241.1 292.6,239.6 292.8,240.4 293.1,239.3 293.3,244.2 293.6,245.2 293.9,245.7 294.1,245.9 294.4,246.3 294.6,246.6 294.9,247.6 295.1,246.3 295.4,246.5 295.6,246.5 295.9,245.3 296.1,245.2 296.4,246.0 296.6,243.8 296.9,244.5 297.1,246.0 297.4,246.2 297.6,246.5 297.9,247.2 298.1,249.0 298.4,248.2 298.7,249.0 298.9,250.3 299.2,248.6 299.4,249.6 299.7,250.0 299.9,250.3 300.2,253.0 300.4,250.6 300.7,238.9 300.9,228.8 301.2,224.0 301.4,221.1 301.7,221.0 301.9,221.0 302.2,221.8 302.4,221.4 302.7,218.9 302.9,214.6 303.2,217.6 303.4,211.6 303.7,212.6 304.0,224.3 304.2,222.3 304.5,225.7 304.7,222.7 305.0,225.2 305.2,223.4 305.5,223.3 305.7,226.2 306.0,227.0 306.2,230.8 306.5,227.3 306.7,229.0 307.0,232.6 307.2,234.4 307.5,234.2 307.7,236.5 308.0,234.1 308.2,228.4 308.5,227.6 308.7,218.7 309.0,216.8 309.3,216.8 309.5,215.3 309.8,216.8 310.0,217.1 310.3,208.7 310.5,205.7 310.8,210.8 311.0,208.4 311.3,206.5 311.5,209.8 311.8,208.6 312.0,203.0 312.3,200.9 312.5,204.4 312.8,206.1 313.0,201.7 313.3,201.7 313.5,204.2 313.8,206.5 314.1,207.5 314.3,206.0 314.6,206.0 314.8,207.0 315.1,199.9 315.3,195.4 315.6,192.0 315.8,194.1 316.1,197.2 316.3,196.3 316.6,197.2 316.8,197.6 317.1,197.6 317.3,199.4 317.6,198.5 317.8,209.9 318.1,204.1 318.3,210.4 318.6,208.7 318.8,205.5 319.1,206.8 319.4,207.9 319.6,206.6 319.9,210.8 320.1,212.7 320.4,217.9 320.6,218.7 320.9,221.5 321.1,216.3 321.4,215.0 321.6,216.8 321.9,212.6 322.1,214.0 322.4,216.5 322.6,214.0 322.9,211.4 323.1,213.5 323.4,226.0 323.6,225.2 323.9,228.6 324.1,227.3 324.4,227.9 324.7,226.1 324.9,228.2 325.2,229.0 325.4,229.1 325.7,229.1 325.9,226.8 326.2,227.7 326.4,225.1 326.7,227.2 326.9,227.6 327.2,225.8 327.4,227.5 327.7,228.4 327.9,232.5 328.2,231.3 328.4,234.8 328.7,235.3 328.9,232.1 329.2,232.7 329.5,236.2 329.7,238.7 330.0,241.3 330.2,239.5 330.5,242.0 330.7,245.2 331.0,245.2 331.2,252.5 331.5,249.2 331.7,245.1 332.0,247.9 332.2,247.9 332.5,247.7 332.7,244.7 333.0,237.3 333.2,238.1 333.5,239.8 333.7,239.8 334.0,236.6 334.2,237.8 334.5,232.7 334.8,234.8 335.0,237.3 335.3,234.3 335.5,234.7 335.8,235.1 336.0,234.8 336.3,236.2 336.5,235.3 336.8,237.9 337.0,234.7 337.3,234.7 337.5,231.7 337.8,234.5 338.0,234.7 338.3,236.2 338.5,238.9 338.8,237.8 339.0,235.9 339.3,237.6 339.5,239.3 339.8,237.5 340.1,237.6 340.3,238.3 340.6,239.2 340.8,237.5 341.1,237.3 341.3,237.7 341.6,235.1 341.8,236.7 342.1,234.1 342.3,233.5 342.6,234.0 342.8,236.3 343.1,237.4 343.3,241.4 343.6,242.2 343.8,240.7 344.1,240.4 344.3,240.3 344.6,239.5 344.9,238.7 345.1,239.9 345.4,238.8 345.6,239.7 345.9,242.3 346.1,243.0 346.4,241.7 346.6,239.8 346.9,239.8 347.1,239.9 347.4,241.7 347.6,240.9 347.9,240.7 348.1,240.8 348.4,240.3 348.6,240.9 348.9,241.8 349.1,242.3 349.4,243.7 349.6,242.4 349.9,241.7 350.2,242.3 350.4,243.7 350.7,244.7 350.9,245.2 351.2,245.9 351.4,244.3 351.7,243.1 351.9,242.9 352.2,243.2 352.4,243.4 352.7,244.3 352.9,243.4 353.2,240.8 353.4,240.9 353.7,240.7 353.9,248.3 354.2,247.9 354.4,247.4 354.7,250.7 355.0,246.8 355.2,249.1 355.5,249.6 355.7,249.3 356.0,246.6 356.2,247.6 356.5,248.3 356.7,249.7 357.0,254.3 357.2,253.8 357.5,251.0 357.7,252.4 358.0,251.3 358.2,249.2 358.5,249.0 358.7,249.5 359.0,251.0 359.2,250.5 359.5,249.5 359.7,250.5 360.0,249.2 360.3,246.4 360.5,249.3 360.8,247.6 361.0,248.6 361.3,250.5 361.5,249.2 361.8,249.1 362.0,246.8 362.3,246.0 362.5,246.6 362.8,245.5 363.0,244.3 363.3,245.8 363.5,246.8 363.8,244.5 364.0,243.9 364.3,245.7 364.5,246.3 364.8,246.9 365.0,248.6 365.3,248.5 365.6,249.0 365.8,247.7 366.1,248.6 366.3,247.6 366.6,247.1 366.8,247.4 367.1,246.9 367.3,247.7 367.6,246.6 367.8,248.0 368.1,249.7 368.3,251.6 368.6,251.1 368.8,250.1 369.1,250.1 369.3,257.7 369.6,257.2 369.8,257.9 370.1,258.9 370.4,258.0 370.6,256.8 370.9,256.5 371.1,258.4 371.4,258.7 371.6,257.6 371.9,259.0 372.1,259.3 372.4,261.4 372.6,259.4 372.9,260.0 373.1,260.4 373.4,260.1 373.6,257.9 373.9,256.4 374.1,253.4 374.4,251.2 374.6,252.2 374.9,251.9 375.1,252.6 375.4,247.0 375.7,252.8 375.9,253.2 376.2,253.7 376.4,254.1 376.7,254.3 376.9,253.3 377.2,255.0 377.4,257.3 377.7,256.8 377.9,256.2 378.2,257.7 378.4,257.3 378.7,256.6 378.9,255.4 379.2,256.2 379.4,258.0 379.7,258.0 379.9,256.8 380.2,257.3 380.4,257.5 380.7,257.0 381.0,256.4 381.2,256.1 381.5,254.7 381.7,253.7 382.0,252.9 382.2,253.2 382.5,253.8 382.7,254.1 383.0,253.3 383.2,253.9 383.5,253.3 383.7,252.0 384.0,253.2 384.2,253.2 384.5,253.0 384.7,253.8 385.0,254.3 385.2,252.0 385.5,249.2 385.8,248.7 386.0,248.6 386.3,249.3 386.5,249.2 386.8,247.9 387.0,247.7 387.3,247.1 387.5,248.1 387.8,248.1 388.0,246.9 388.3,246.3 388.5,246.6 388.8,246.4 389.0,245.1 389.3,245.5 389.5,245.9 389.8,243.0 390.0,244.4 390.3,245.9 390.5,244.5 390.8,241.8 391.1,243.7 391.3,245.0 391.6,244.3 391.8,246.9 392.1,245.8 392.3,245.3 392.6,243.8 392.8,244.6 393.1,246.6 393.3,247.7 393.6,247.0 393.8,249.3 394.1,246.5 394.3,246.5 394.6,247.0 394.8,245.8 395.1,242.3 395.3,244.2 395.6,241.8 395.8,243.4 396.1,244.2 396.4,245.8 396.6,246.5 396.9,249.8 397.1,248.2 397.4,250.3 397.6,253.9 397.9,252.6 398.1,253.3 398.4,252.5 398.6,252.4 398.9,252.4 399.1,253.2 399.4,253.5 399.6,252.8 399.9,250.2 400.1,253.5 400.4,259.1 400.6,259.0 400.9,256.9 401.2,258.3 401.4,258.4 401.7,262.0 401.9,262.6 402.2,264.3 402.4,271.6 402.7,268.7 402.9,268.7 403.2,269.5 403.4,270.5 403.7,275.6 403.9,284.8 404.2,281.9 404.4,286.4 404.7,289.8 404.9,300.4 405.2,299.4 405.4,294.0 405.7,295.3 405.9,300.9 406.2,297.2 406.5,291.1 406.7,287.3 407.0,292.6 407.2,292.6 407.5,290.4 407.7,289.1 408.0,282.4 408.2,274.9 408.5,283.6 408.7,282.1 409.0,278.5 409.2,277.4 409.5,279.6 409.7,280.3 410.0,280.1 410.2,276.7 410.5,278.8 410.7,278.5 411.0,277.7 411.2,274.2 411.5,277.4 411.8,280.9 412.0,275.6 412.3,271.8 412.5,271.1 412.8,262.8 413.0,262.8 413.3,264.3 413.5,263.1 413.8,264.9 414.0,262.6 414.3,260.6 414.5,261.2 414.8,263.5 415.0,263.5 415.3,261.7 415.5,262.2 415.8,258.6 416.0,258.7 416.3,257.5 416.6,254.1 416.8,250.7 417.1,243.6 417.3,246.6 417.6,244.4 417.8,233.6 418.1,235.6 418.3,239.3 418.6,237.0 418.8,240.9 419.1,236.6 419.3,237.0 419.6,234.4 419.8,228.7 420.1,226.3 420.3,234.6 420.6,226.3 420.8,229.9 421.1,227.2 421.3,229.0 421.6,230.8 421.9,232.1 422.1,231.2 422.4,235.4 422.6,241.4 422.9,246.8 423.1,245.2 423.4,246.8 423.6,252.0 423.9,251.0 424.1,247.6 424.4,249.3 424.6,246.5 424.9,248.2 425.1,245.3 425.4,241.5 425.6,246.6 425.9,246.2 426.1,249.3 426.4,251.6 426.6,250.2 426.9,249.5 427.2,249.2 427.4,250.2 427.7,251.6 427.9,254.9 428.2,254.3 428.4,257.5 428.7,254.3 428.9,253.2 429.2,252.2 429.4,252.9 429.7,254.3 429.9,254.1 430.2,253.5 430.4,252.5 430.7,250.7 430.9,242.9 431.2,243.0 431.4,239.0 431.7,244.2 432.0,241.7 432.2,242.7 432.5,243.9 432.7,244.5 433.0,246.3 433.2,250.3 433.5,247.4 433.7,246.0 434.0,246.8 434.2,245.9 434.5,248.0 434.7,250.2 435.0,247.9 435.2,248.5 435.5,249.8 435.7,249.0 436.0,247.6 436.2,247.2 436.5,245.0 436.7,247.1 437.0,245.5 437.3,244.2 437.5,245.0 437.8,245.5 438.0,246.6 438.3,244.3 438.5,252.0 438.8,257.9 439.0,255.8 439.3,253.5 439.5,252.2 439.8,250.7 440.0,250.6 440.3,251.2 440.5,251.2 440.8,252.8 441.0,255.1 441.3,255.7 441.5,254.5 441.8,255.3 442.0,255.4 442.3,258.7 442.6,258.4 442.8,262.6 443.1,261.0 443.3,262.3 443.6,261.0 443.8,264.1 444.1,262.8 444.3,260.9 444.6,259.1 444.8,260.9 445.1,260.0 445.3,261.2 445.6,260.0 445.8,258.4 446.1,260.3 446.3,260.6 446.6,263.8 446.8,264.7 447.1,264.6 447.4,263.7 447.6,261.6 447.9,263.1 448.1,261.7 448.4,260.3 448.6,260.6 448.9,258.6 449.1,258.7 449.4,258.9 449.6,260.1 449.9,262.0 450.1,260.1 450.4,262.2 450.6,264.4 450.9,263.8 451.1,263.8 451.4,266.1 451.6,267.9 451.9,269.0 452.1,270.6 452.4,270.8 452.7,275.1 452.9,272.8 453.2,272.8 453.4,273.8 453.7,276.5 453.9,273.5 454.2,271.8 454.4,273.0 454.7,273.7 454.9,272.1 455.2,273.0 455.4,272.1 455.7,272.3 455.9,272.0 456.2,273.7 456.4,274.2 456.7,269.5 456.9,269.6 457.2,269.3 457.4,268.7 457.7,267.7 458.0,264.0 458.2,266.8 458.5,269.3 458.7,269.1 459.0,270.6 459.2,271.3 459.5,269.1 459.7,268.5 460.0,268.5 460.2,267.5 460.5,267.1 460.7,267.1 461.0,267.1 461.2,267.9 461.5,265.0 461.7,263.7 462.0,261.4 462.2,263.4 462.5,265.0 462.8,262.8 463.0,261.3 463.3,262.3 463.5,261.9 463.8,262.2 464.0,264.4 464.3,264.1 464.5,266.9 464.8,267.5 465.0,268.0 465.3,266.9 465.5,267.5 465.8,267.1 466.0,264.9 466.3,265.8 466.5,266.9 466.8,266.1 467.0,267.4 467.3,266.4 467.5,266.4 467.8,267.7 468.1,270.5 468.3,271.3 468.6,270.1 468.8,270.8 469.1,270.6 469.3,268.8 469.6,268.3 469.8,267.1 470.1,265.0 470.3,264.9 470.6,265.0 470.8,266.6 471.1,265.4 471.3,266.1 471.6,267.5 471.8,266.3 472.1,266.9 472.3,267.5 472.6,267.9 472.8,268.7 473.1,271.1 473.4,269.5 473.6,269.5 473.9,269.5 474.1,269.8 474.4,270.6 474.6,271.1 474.9,271.3 475.1,271.5 475.4,271.6 475.6,273.3 475.9,275.2 476.1,275.9 476.4,274.5 476.6,277.7 476.9,272.5 477.1,273.5 477.4,272.0 477.6,272.1 477.9,274.0 478.2,274.0 478.4,274.9 478.7,275.9 478.9,276.3 479.2,276.5 479.4,275.6 479.7,275.2 479.9,276.1 480.2,277.0 480.4,276.1 480.7,275.8 480.9,274.4 481.2,274.7 481.4,275.8 481.7,275.2 481.9,274.9 482.2,275.8 482.4,275.9 482.7,276.5 482.9,277.7 483.2,277.4 483.5,277.0 483.7,277.6 484.0,277.4 484.2,276.8 484.5,277.0 484.7,277.2 485.0,277.2 485.2,277.0 485.5,277.4 485.7,276.8 486.0,277.0 486.2,278.3 486.5,278.1 486.7,278.1 487.0,277.7 487.2,278.5 487.5,278.8 487.7,278.1 488.0,279.0 488.2,279.6 488.5,279.4 488.8,280.7 489.0,280.3 489.3,284.2 489.5,284.8 489.8,286.6 490.0,286.6 490.3,287.0 490.5,286.4 490.8,286.4 491.0,287.0 491.3,286.0 491.5,283.2 491.8,284.2 492.0,283.0 492.3,288.3 492.5,293.7 492.8,290.2 493.0,292.6 493.3,291.7 493.6,291.7 493.8,289.1 494.1,290.0 494.3,289.4 494.6,288.9 494.8,288.3 495.1,286.4 495.3,282.2 495.6,276.1 495.8,278.1 496.1,279.2 496.3,279.4 496.6,275.2 496.8,278.1 497.1,278.1 497.3,279.0 497.6,278.8 497.8,279.6 498.1,281.9 498.3,281.1 498.6,283.6 498.9,284.4 499.1,281.7 499.4,280.9 499.6,280.0 499.9,280.5 500.1,282.2 500.4,283.6 500.6,285.8 500.9,287.5 501.1,287.9 501.4,287.5 501.6,286.2 501.9,285.8 502.1,286.6 502.4,287.0 502.6,286.6 502.9,284.8 503.1,284.4 503.4,283.8 503.6,285.4 503.9,286.6 504.2,288.3 504.4,288.5 504.7,287.9 504.9,288.9 505.2,288.5 505.4,289.1 505.7,289.1 505.9,287.5 506.2,287.0 506.4,288.1 506.7,288.1 506.9,289.4 507.2,290.4 507.4,291.1 507.7,290.0 507.9,290.0 508.2,289.6 508.4,290.9 508.7,289.4 509.0,290.2 509.2,284.8 509.5,284.2 509.7,282.1 510.0,280.7 510.2,286.2 510.5,286.4 510.7,283.2 511.0,282.2 511.2,281.3 511.5,281.9 511.7,283.0 512.0,283.6 512.2,284.6 512.5,286.0 512.7,288.3 513.0,290.9 513.2,291.3 513.5,287.9 513.7,289.6 514.0,290.6 514.3,291.7 514.5,290.9 514.8,291.1 515.0,291.1 515.3,293.5 515.5,293.3 515.8,290.9 516.0,290.9 516.3,289.1 516.5,290.0 516.8,292.4 517.0,292.0 517.3,291.5 517.5,292.2 517.8,292.4 518.0,292.2 518.3,293.5 518.5,293.5 518.8,294.7 519.0,293.3 519.3,291.5 519.6,292.4 519.8,293.5 520.1,293.1 520.3,294.7 520.6,294.9 520.8,294.9 521.1,293.1 521.3,292.4 521.6,295.3 521.8,297.7 522.1,298.4 522.3,298.9 522.6,298.4 522.8,297.7 523.1,298.4 523.3,298.9 523.6,299.1 523.8,299.1 524.1,299.6 524.4,301.1 524.6,303.1 524.9,305.5 525.1,302.6 525.4,300.6 525.6,299.6 525.9,300.4 526.1,300.1 526.4,301.6 526.6,304.7 526.9,305.2 527.1,305.2 527.4,303.4 527.6,303.9 527.9,303.9 528.1,304.2 528.4,303.4 528.6,301.4 528.9,300.4 529.1,300.4 529.4,299.1 529.7,299.1 529.9,298.7 530.2,297.9 530.4,298.2 530.7,298.4 530.9,297.2 531.2,297.5 531.4,296.3 531.7,294.7 531.9,295.3 532.2,297.0 532.4,297.0 532.7,299.4 532.9,299.6 533.2,297.9 533.4,297.0 533.7,298.4 533.9,299.9 534.2,299.4 534.5,297.2 534.7,295.6 535.0,294.4 535.2,294.9 535.5,295.8 535.7,295.8 536.0,296.7 536.2,299.1 536.5,298.9 536.7,298.2 537.0,300.4 537.2,297.9 537.5,301.1 537.7,299.1 538.0,301.4 538.2,303.4 538.5,302.9 538.7,303.9 539.0,302.9 539.2,302.4 539.5,303.7 539.8,302.6 540.0,302.6 540.3,302.6 540.5,302.1 540.8,301.9 541.0,301.9 541.3,301.4 541.5,302.4 541.8,302.1 542.0,301.9 542.3,301.6 542.5,301.9 542.8,301.9 543.0,303.1 543.3,302.6 543.5,303.9 543.8,303.4 544.0,303.9 544.3,304.2 544.5,303.9 544.8,304.4 545.1,304.2 545.3,304.4 545.6,304.7 545.8,304.4 546.1,305.7 546.3,305.2 546.6,306.0 546.8,306.0 547.1,304.4 547.3,305.5 547.6,305.0 547.8,305.5 548.1,305.5 548.3,306.0 548.6,306.0 548.8,305.5 549.1,305.5 549.3,306.0 549.6,304.4 549.9,304.2 550.1,304.4 550.4,304.2 550.6,304.2 550.9,304.7 551.1,305.0 551.4,304.7 551.6,304.2 551.9,305.0 552.1,304.7 552.4,304.7 552.6,304.7 552.9,304.7 553.1,305.0 553.4,304.7 553.6,305.2 553.9,305.2 554.1,304.7 554.4,305.0 554.6,304.7 554.9,303.7 555.2,304.7 555.4,304.7 555.7,303.9 555.9,303.9 556.2,304.4 556.4,304.7 556.7,303.9 556.9,304.7 557.2,305.2 557.4,305.2 557.7,305.2 557.9,303.7 558.2,303.9 558.4,305.0 558.7,304.7 558.9,305.0 559.2,304.7 559.4,305.2 559.7,305.2 559.9,305.5 560.2,306.0 560.5,305.5 560.7,306.0 561.0,306.5 561.2,306.3 561.5,307.6 561.7,307.6 562.0,308.2 562.2,307.4 562.5,308.2 562.7,307.9 563.0,308.5 563.2,308.5 563.5,308.7 563.7,309.0 564.0,309.0 564.2,309.6 564.5,309.6 564.7,307.1 565.0,305.7 565.3,306.3 565.5,306.3 565.8,308.2 566.0,307.9 566.3,307.4 566.5,308.5 566.8,308.7 567.0,308.5 567.3,308.5 567.5,308.5 567.8,307.9 568.0,308.7 568.3,308.2 568.5,308.2 568.8,307.6 569.0,307.9 569.3,308.7 569.5,309.0 569.8,309.0 570.0,309.0 570.3,308.7 570.6,308.5 570.8,308.5 571.1,307.9 571.3,308.2 571.6,309.0 571.8,309.0 572.1,308.7 572.3,308.7 572.6,309.6 572.8,309.6 573.1,309.8 573.3,309.8 573.6,309.3 573.8,309.6 574.1,309.8 574.3,311.6 574.6,311.3 574.8,311.0 575.1,311.8 575.3,312.1 575.6,313.0 575.9,313.3 576.1,313.3 576.4,315.4 576.6,315.4 576.9,315.7 577.1,316.9 577.4,316.6 577.6,316.0 577.9,316.6 578.1,317.2 578.4,317.2 578.6,316.9 578.9,316.3 579.1,316.3 579.4,316.6 579.6,316.3 579.9,317.5 580.1,316.6 580.4,317.2 580.7,316.0 580.9,315.7 581.2,314.8 581.4,314.8 581.7,314.2 581.9,314.8 582.2,313.6 582.4,314.2 582.7,314.8 582.9,313.9 583.2,315.1 583.4,315.1 583.7,314.5 583.9,313.9 584.2,313.6 584.4,313.6 584.7,316.0 584.9,315.4 585.2,317.2 585.4,317.2 585.7,317.5 586.0,317.2 586.2,316.6 586.5,316.9 586.7,316.9 587.0,316.9 587.2,315.4 587.5,314.8 587.7,314.8 588.0,314.5 588.2,313.6 588.5,314.5 588.7,313.3 589.0,313.3 589.2,313.6 589.5,314.2 589.7,315.1 590.0,315.1 590.2,315.4 590.5,315.4 590.7,315.4 591.0,315.4 591.3,315.4 591.5,315.4 591.8,315.1 592.0,311.0 592.3,309.0 592.5,309.0 592.8,310.4 593.0,309.6 593.3,308.5 593.5,308.7 593.8,309.6 594.0,310.1 594.3,310.4 594.5,311.0 594.8,310.7 595.0,311.0 595.3,311.3 595.5,310.1 595.8,309.3 596.1,309.8 596.3,310.4 596.6,310.4 596.8,309.8 597.1,309.3 597.3,309.8 597.6,308.2 597.8,308.2 598.1,307.4 598.3,307.6 598.6,306.8 598.8,307.6 599.1,307.6 599.3,306.8 599.6,306.8 599.8,305.7 600.1,304.2 600.3,304.4 600.6,306.0 600.8,305.5 601.1,305.2 601.4,305.5 601.6,306.3 601.9,305.2 602.1,305.5 602.4,302.9 602.6,302.9 602.9,302.4 603.1,302.4 603.4,297.0 603.6,299.6 603.9,300.6 604.1,301.6 604.4,297.5 604.6,299.9 604.9,299.6 605.1,299.1 605.4,299.4 605.6,301.1 605.9,296.0 606.1,294.0 606.4,277.7 606.7,278.7 606.9,279.2 607.2,282.1 607.4,286.4 607.7,287.9 607.9,287.9 608.2,281.7 608.4,281.9 608.7,281.7 608.9,282.8 609.2,285.6 609.4,287.7 609.7,286.8 609.9,288.5 610.2,287.3 610.4,292.0 610.7,291.1 610.9,291.7 611.2,291.7 611.5,290.9 611.7,290.0 612.0,291.7 612.2,292.4 612.5,292.6 612.7,292.6 613.0,292.0 613.2,292.6 613.5,292.2 613.7,292.4 614.0,294.2 614.2,294.2 614.5,295.1 614.7,294.7 615.0,294.9 615.2,295.6 615.5,296.3 615.7,297.7 616.0,301.6 616.2,303.1 616.5,304.2 616.8,303.4 617.0,301.9 617.3,301.9 617.5,300.6 617.8,300.4 618.0,298.4 618.3,299.6 618.5,297.2 618.8,296.7 619.0,297.2 619.3,296.5 619.5,297.5 619.8,297.7 620.0,298.2 620.3,299.4 620.5,298.9 620.8,297.7 621.0,297.0 621.3,297.5 621.5,298.2 621.8,298.9 622.1,299.1 622.3,299.6 622.6,299.4 622.8,298.4 623.1,298.7 623.3,298.9 623.6,296.5 623.8,296.5 624.1,296.0 624.3,294.4 624.6,299.1 624.8,298.7 625.1,297.9 625.3,297.7 625.6,298.2 625.8,298.9 626.1,300.1 626.3,300.6 626.6,302.6 626.9,300.6 627.1,301.4 627.4,300.4 627.6,301.4 627.9,302.9 628.1,303.1 628.4,303.4 628.6,303.1 628.9,303.7 629.1,304.2 629.4,304.7 629.6,305.0 629.9,304.2 630.1,302.9 630.4,303.4 630.6,305.2 630.9,304.4 631.1,304.2 631.4,302.6 631.6,304.2 631.9,306.8 632.2,305.7 632.4,306.5 632.7,305.5 632.9,305.0 633.2,305.0 633.4,304.7 633.7,305.7 633.9,306.5 634.2,306.3 634.4,307.6 634.7,307.1 634.9,306.8 635.2,308.7 635.4,309.0 635.7,308.5 635.9,308.7 636.2,309.0 636.4,309.6 636.7,309.6 636.9,310.1 637.2,311.0 637.5,307.1 637.7,309.6 638.0,309.8 638.2,311.6 638.5,310.7 638.7,312.4 639.0,313.0 639.2,300.1 639.5,296.0 639.7,290.2 640.0,287.9 640.2,284.8 640.5,276.5 640.7,275.6 641.0,278.1 641.2,264.7 641.5,254.2 641.7,241.3 642.0,245.9 642.3,241.1 642.5,245.5 642.8,252.1 643.0,251.9 643.3,257.0 643.5,256.2 643.8,252.9 644.0,255.9 644.3,252.0 644.5,251.6 644.8,253.5 645.0,254.3 645.3,243.0 645.5,248.1 645.8,244.1 646.0,242.7 646.3,245.9 646.5,247.7 646.8,247.7 647.0,246.3 647.3,239.3 647.6,230.4 647.8,230.5 648.1,239.2 648.3,239.1 648.6,229.0 648.8,223.5 649.1,224.2 649.3,225.6 649.6,224.4 649.8,212.2 650.1,201.7 650.3,219.9 650.6,220.2 650.8,225.7 651.1,225.4 651.3,217.3 651.6,222.7 651.8,224.8 652.1,224.6 652.3,225.0 652.6,227.5 652.9,230.9 653.1,232.7 653.4,232.9 653.6,233.0 653.9,234.5 654.1,234.2 654.4,234.4 654.6,237.0 654.9,236.5 655.1,234.4 655.4,229.3 655.6,222.4 655.9,211.8 656.1,201.3 656.4,184.0 656.6,170.0 656.9,154.6 657.1,139.1 657.4,126.2 657.7,144.9 657.9,161.9 658.2,157.6 658.4,172.4 658.7,174.2 658.9,170.4 659.2,177.2 659.4,166.6 659.7,151.9 659.9,145.5 660.2,148.6 660.4,148.6 660.7,160.0 660.9,167.1 661.2,172.9 661.4,172.6 661.7,171.5 661.9,170.4 662.2,178.0 662.4,180.3 662.7,162.9 663.0,166.3 663.2,169.2 663.5,168.6 663.7,172.6 664.0,172.9 664.2,175.2 664.5,178.1 664.7,178.1 665.0,177.2 665.2,160.5 665.5,160.1 665.7,167.0 666.0,170.8 666.2,166.9 666.5,159.3 666.7,162.1 667.0,164.8 667.2,161.6 667.5,159.7 667.7,160.4 668.0,163.4 668.3,164.0 668.5,160.7 668.8,162.7 669.0,164.4 669.3,167.3 669.5,169.1 669.8,167.1 670.0,165.0 670.3,166.6 670.5,166.3 670.8,164.0 671.0,166.2 671.3,165.8 671.5,160.9 671.8,162.7 672.0,160.1 672.3,161.2 672.5,165.0 672.8,164.4 673.1,164.3 673.3,167.1 673.6,170.0 673.8,174.8 674.1,175.1 674.3,176.4 674.6,178.2 674.8,180.7 675.1,175.7 675.3,176.9 675.6,171.7 675.8,177.1 676.1,183.7 676.3,200.9 676.6,191.5 676.8,188.4 677.1,190.4 677.3,190.8 677.6,188.8 677.8,188.9 678.1,187.0 678.4,191.2 678.6,195.8 678.9,195.7 679.1,195.7 679.4,184.5 679.6,188.8 679.9,188.1 680.1,192.6 680.4,195.8 680.6,194.4 680.9,191.6 681.1,188.0 681.4,182.3 681.6,188.2 681.9,189.4 682.1,193.2 682.4,195.5 682.6,194.9 682.9,198.2 683.1,192.6 683.4,193.3 683.7,196.3 683.9,199.7 684.2,198.5 684.4,198.4 684.7,191.3 684.9,191.3 685.2,196.1 685.4,186.5 685.7,190.9 685.9,186.4 686.2,185.0 686.4,189.6 686.7,188.0 686.9,193.9 687.2,196.3 687.4,195.7 687.7,198.3 687.9,197.3 688.2,197.4 688.5,198.7 688.7,199.5 689.0,196.5 689.2,195.7 689.5,195.7 689.7,198.1 690.0,201.5 690.2,207.3 690.5,202.9 690.7,197.4 691.0,198.7 691.2,199.2 691.5,203.5 691.7,205.4 692.0,204.7 692.2,204.4 692.5,204.1 692.7,203.3 693.0,204.5 693.2,205.0 693.5,205.7 693.8,214.4 694.0,211.0 694.3,211.5 694.5,211.4 694.8,212.2 695.0,208.8 695.3,211.8 695.5,216.7 695.8,218.0 696.0,217.7 696.3,224.1 696.5,228.6 696.8,226.9 697.0,228.6 697.3,227.5 697.5,226.9 697.8,232.9 698.0,238.2 698.3,239.0 698.5,238.5 698.8,239.5 699.1,242.3 699.3,242.8 699.6,241.7 699.8,245.1 700.1,240.2 700.3,242.0 700.6,237.5 700.8,242.8 701.1,241.8 701.3,238.4 701.6,239.0 701.8,240.5 702.1,236.5 702.3,235.2 702.6,239.1 702.8,238.6 703.1,241.5 703.3,242.3 703.6,242.8 703.9,245.9 704.1,240.8 704.4,241.9 704.6,240.5 704.9,240.3 705.1,235.6 705.4,237.0 705.6,233.3 705.9,231.6 706.1,234.7 706.4,236.5 706.6,237.7 706.9,235.8 707.1,237.1 707.4,236.5 707.6,229.8 707.9,229.4 708.1,226.7 708.4,229.8 708.6,229.4 708.9,238.8 709.2,239.1 709.4,248.6 709.7,245.3 709.9,239.7 710.2,234.0 710.4,230.1 710.7,228.4 710.9,231.9 711.2,218.5 711.4,215.3 711.7,216.9 711.9,207.7 712.2,209.4 712.4,204.9 712.7,204.6 712.9,207.2 713.2,211.7 713.4,208.9 713.7,206.3 714.0,204.1 714.2,207.9 714.5,209.8 714.7,209.2 715.0,207.0 715.2,210.5 715.5,211.3 715.7,212.9 716.0,213.7 716.2,218.2 716.5,222.7 716.7,223.5 717.0,228.5 717.2,239.0 717.5,233.2 717.7,238.6 718.0,231.8 718.2,230.1 718.5,228.6 718.7,226.1 719.0,227.2 719.3,225.2 719.5,223.5 719.8,221.7 720.0,221.8 720.3,215.6 720.5,214.5 720.8,217.3 721.0,218.1 721.3,218.4 721.5,218.1 721.8,219.5 722.0,221.3 722.3,221.8 722.5,223.1 722.8,221.3 723.0,218.1 723.3,215.7 723.5,213.8 723.8,226.3 724.0,228.1 724.3,231.6 724.6,230.9 724.8,232.2 725.1,234.3 725.3,233.5 725.6,233.2 725.8,233.6 726.1,219.9 726.3,208.3 726.6,189.5 726.8,184.0 727.1,169.9 727.3,165.4 727.6,167.0 727.8,152.2 728.1,141.9 728.3,148.7 728.6,144.4 728.8,149.6 729.1,152.0 729.4,141.3 729.6,155.8 729.9,146.4 730.1,148.8 730.4,154.3 730.6,159.5 730.9,165.7 731.1,174.2 731.4,179.0 731.6,176.0 731.9,176.8 732.1,177.1 732.4,176.9 732.6,160.2 732.9,146.6 733.1,132.5 733.4,120.5 733.6,106.6 733.9,120.5 734.1,119.8 734.4,124.8 734.7,122.9 734.9,108.5 735.2,117.1 735.4,112.9 735.7,108.5 735.9,113.5 736.2,116.4 736.4,120.1 736.7,124.8 736.9,119.1 737.2,119.4 737.4,126.4 737.7,133.0 737.9,132.0 738.2,131.3 738.4,128.1 738.7,122.9 738.9,125.0 739.2,143.4 739.4,140.3 739.7,135.8 740.0,127.2 740.2,123.3 740.5,129.1 740.7,126.9 741.0,132.6 741.2,138.1 741.5,139.8 741.7,143.7 742.0,148.6 742.2,151.5 742.5,142.3 742.7,140.8 743.0,133.8 743.2,141.3 743.5,140.6 743.7,139.8 744.0,138.3 744.2,132.9 744.5,147.1 744.8,164.7 745.0,150.3 745.3,155.2 745.5,157.3 745.8,155.7 746.0,146.2 746.3,132.4 746.5,128.5 746.8,136.1 747.0,151.0 747.3,151.5 747.5,156.0 747.8,158.6 748.0,155.5 748.3,152.6 748.5,163.5 748.8,174.4 749.0,180.2 749.3,183.7 749.5,178.3 749.8,180.4 750.1,176.5 750.3,178.4 750.6,182.1 750.8,174.6 751.1,170.5 751.3,172.1 751.6,166.8 751.8,166.6 752.1,170.2 752.3,171.3 752.6,162.9 752.8,162.4 753.1,155.3 753.3,160.0 753.6,162.5 753.8,149.5 754.1,146.6 754.3,137.3 754.6,138.0 754.8,139.2 755.1,143.1 755.4,148.0 755.6,152.9 755.9,149.6 756.1,150.6 756.4,152.8 756.6,157.8 756.9,158.3 757.1,144.6 757.4,146.8 757.6,151.1 757.9,154.4 758.1,152.6 758.4,156.1 758.6,153.8 758.9,155.5 759.1,155.5 759.4,157.8 759.6,157.2 759.9,158.2 760.2,158.8 760.4,159.8 760.7,162.9 760.9,164.9 761.2,163.0 761.4,158.3 761.7,159.1 761.9,157.7 762.2,159.6 762.4,161.4 762.7,159.7 762.9,159.8 763.2,155.7 763.4,154.4 763.7,152.6 763.9,149.6 764.2,152.7 764.4,152.7 764.7,151.8 764.9,149.8 765.2,151.9 765.5,155.2 765.7,156.4 766.0,158.5 766.2,158.7 766.5,158.7 766.7,158.7 767.0,158.7 767.2,158.8 767.5,160.3 767.7,164.4 768.0,165.1 768.2,164.5 768.5,164.7 768.7,167.7 769.0,169.6 769.2,167.2 769.5,162.3 769.7,157.5 770.0,163.1 770.2,160.2 770.5,162.5 770.8,163.1 771.0,161.6 771.3,164.1 771.5,166.9 771.8,165.9 772.0,164.5 772.3,163.6 772.5,167.5 772.8,171.3 773.0,179.2 773.3,177.2 773.5,177.8 773.8,178.7 774.0,173.7 774.3,172.1 774.5,171.9 774.8,175.2 775.0,176.4 775.3,179.4 775.6,178.9 775.8,181.7 776.1,192.1 776.3,190.4 776.6,184.5 776.8,186.4 777.1,186.6 777.3,189.7 777.6,193.3 777.8,187.6 778.1,188.5 778.3,189.5 778.6,190.6 778.8,191.4 779.1,187.0 779.3,187.2 779.6,188.0 779.8,188.1 780.1,183.7 780.3,182.3 780.6,178.7 780.9,176.1 781.1,176.7 781.4,176.7 781.6,179.7 781.9,180.8 782.1,182.0 782.4,182.6 782.6,180.8 782.9,181.6 783.1,182.3 783.4,172.2 783.6,156.4 783.9,147.4 784.1,150.9 784.4,150.0 784.6,154.3 784.9,147.9 785.1,133.6 785.4,121.5 785.6,120.3 785.9,106.4 786.2,94.7 786.4,99.7 786.7,96.0 786.9,100.6 787.2,89.6 787.4,76.5 787.7,87.2 787.9,101.9 788.2,90.8 788.4,82.1 788.7,93.2 788.9,92.6 789.2,98.0 789.4,102.6 789.7,102.2 789.9,98.2 790.2,94.0 790.4,88.8 790.7,93.0 791.0,90.1 791.2,87.8 791.5,91.3 791.7,99.2 792.0,97.2 792.2,93.8 792.5,105.0 792.7,116.2 793.0,118.9 793.2,119.9 793.5,127.0 793.7,125.7 794.0,129.6 794.2,134.8 794.5,136.5 794.7,131.5 795.0,132.8 795.2,133.6 795.5,133.5 795.7,129.7 796.0,133.5"/>
<text x="78" y="392" font-size="11" fill="#16a34a">Total return +171.0%</text><text x="268" y="392" font-size="11" fill="#2563eb">Price-only +171.0%</text><text x="78" y="362" font-size="11" text-anchor="middle" fill="#64748b">2014-12</text><text x="258" y="362" font-size="11" text-anchor="middle" fill="#64748b">2017-11</text><text x="437" y="362" font-size="11" text-anchor="middle" fill="#64748b">2020-09</text><text x="616" y="362" font-size="11" text-anchor="middle" fill="#64748b">2023-08</text><text x="796" y="362" font-size="11" text-anchor="middle" fill="#64748b">2026-07</text></svg>