<svg xmlns="http://www.w3.org/2000/svg" width="820" height="410" viewBox="0 0 820 410">
<rect width="820" height="410" fill="#fafafa"/><text x="78" y="22" font-size="14" font-family="sans-serif" fill="#0f172a">3905.T cumulative return since 2014-12-24 | dividends reinvested</text>
<text x="78" y="40" font-size="11" font-family="sans-serif" fill="#334155">Total return +146.8% | Price-only +146.8% | logarithmic scale</text>
<text x="78" y="54" font-size="9" font-family="sans-serif" fill="#64748b">Regular $0.00 | Special $0.00 | Other $0.00 per initial share path</text>
<line x1="78" y1="332.0" x2="796" y2="332.0" stroke="#e2e8f0"/><text x="70" y="336.0" font-size="10" text-anchor="end" fill="#64748b">-81.3%</text><line x1="78" y1="287.0" x2="796" y2="287.0" stroke="#e2e8f0"/><text x="70" y="291.0" font-size="10" text-anchor="end" fill="#64748b">-65.8%</text><line x1="78" y1="242.0" x2="796" y2="242.0" stroke="#e2e8f0"/><text x="70" y="246.0" font-size="10" text-anchor="end" fill="#64748b">-37.2%</text><line x1="78" y1="207.4" x2="796" y2="207.4" stroke="#e2e8f0"/><text x="70" y="211.4" font-size="10" text-anchor="end" fill="#64748b">0%</text><line x1="78" y1="197.0" x2="796" y2="197.0" stroke="#e2e8f0"/><text x="70" y="201.0" font-size="10" text-anchor="end" fill="#64748b">+15.1%</text><line x1="78" y1="152.0" x2="796" y2="152.0" stroke="#e2e8f0"/><text x="70" y="156.0" font-size="10" text-anchor="end" fill="#64748b">+111.2%</text><line x1="78" y1="107.0" x2="796" y2="107.0" stroke="#e2e8f0"/><text x="70" y="111.0" font-size="10" text-anchor="end" fill="#64748b">+287.4%</text><line x1="78" y1="62.0" x2="796" y2="62.0" stroke="#e2e8f0"/><text x="70" y="66.0" font-size="10" text-anchor="end" fill="#64748b">+610.7%</text>
<line x1="78" y1="332" x2="796" y2="332" stroke="#cbd5e1"/>
<polyline fill="none" stroke="#2563eb" stroke-width="2" points="78.0,207.4 78.3,188.8 78.5,205.0 78.8,207.8 79.0,201.5 79.3,184.2 79.5,175.3 79.8,179.7 80.0,191.3 80.3,190.5 80.5,192.2 80.8,199.9 81.0,206.0 81.3,204.1 81.5,200.0 81.8,198.1 82.0,205.5 82.3,205.5 82.5,207.4 82.8,211.4 83.0,201.0 83.3,202.3 83.6,209.7 83.8,208.4 84.1,206.4 84.3,209.6 84.6,210.7 84.8,213.6 85.1,212.9 85.3,211.0 85.6,208.2 85.8,212.0 86.1,214.7 86.3,219.0 86.6,217.6 86.8,218.6 87.1,220.8 87.3,212.9 87.6,218.6 87.8,218.7 88.1,218.6 88.3,218.9 88.6,216.1 88.8,218.6 89.1,221.7 89.4,221.9 89.6,222.6 89.9,223.1 90.1,228.5 90.4,231.5 90.6,231.1 90.9,230.5 91.1,229.5 91.4,223.2 91.6,228.6 91.9,232.3 92.1,231.3 92.4,227.8 92.6,226.3 92.9,227.3 93.1,226.0 93.4,230.9 93.6,230.0 93.9,231.6 94.1,232.4 94.4,235.2 94.7,235.6 94.9,237.9 95.2,237.3 95.4,236.1 95.7,235.6 95.9,236.9 96.2,236.6 96.4,229.6 96.7,229.2 96.9,226.9 97.2,226.5 97.4,226.8 97.7,231.5 97.9,233.6 98.2,233.2 98.4,231.2 98.7,227.7 98.9,226.7 99.2,230.1 99.4,232.6 99.7,234.3 99.9,233.4 100.2,232.7 100.5,234.1 100.7,234.5 101.0,235.2 101.2,235.1 101.5,232.9 101.7,232.3 102.0,233.7 102.2,234.6 102.5,235.2 102.7,235.2 103.0,235.2 103.2,235.2 103.5,235.2 103.7,235.5 104.0,235.5 104.2,235.4 104.5,235.2 104.7,235.4 105.0,233.8 105.2,235.4 105.5,221.4 105.8,220.4 106.0,227.2 106.3,228.9 106.5,225.9 106.8,228.6 107.0,231.7 107.3,228.9 107.5,232.1 107.8,227.6 108.0,227.2 108.3,224.4 108.5,225.9 108.8,228.6 109.0,228.6 109.3,232.6 109.5,232.6 109.8,227.4 110.0,230.2 110.3,231.4 110.5,233.7 110.8,232.3 111.0,235.7 111.3,237.2 111.6,238.2 111.8,237.5 112.1,234.4 112.3,235.7 112.6,230.9 112.8,227.9 113.1,229.0 113.3,230.7 113.6,232.8 113.8,233.7 114.1,234.6 114.3,233.9 114.6,235.4 114.8,235.0 115.1,236.2 115.3,236.3 115.6,237.6 115.8,238.7 116.1,239.5 116.3,240.1 116.6,240.1 116.9,239.5 117.1,239.7 117.4,242.4 117.6,243.0 117.9,245.3 118.1,244.2 118.4,238.3 118.6,237.8 118.9,240.5 119.1,252.5 119.4,258.2 119.6,250.0 119.9,252.2 120.1,250.7 120.4,249.8 120.6,254.3 120.9,256.2 121.1,256.8 121.4,260.3 121.6,262.6 121.9,264.9 122.1,261.3 122.4,257.5 122.7,255.8 122.9,256.5 123.2,258.6 123.4,260.1 123.7,260.1 123.9,259.7 124.2,260.6 124.4,255.3 124.7,253.7 124.9,256.5 125.2,253.9 125.4,254.3 125.7,254.1 125.9,251.9 126.2,253.4 126.4,251.5 126.7,252.4 126.9,251.3 127.2,250.1 127.4,251.3 127.7,250.0 128.0,250.1 128.2,251.0 128.5,253.5 128.7,254.3 129.0,255.4 129.2,255.0 129.5,253.8 129.7,254.7 130.0,245.8 130.2,243.2 130.5,246.6 130.7,250.7 131.0,252.8 131.2,253.4 131.5,254.2 131.7,253.4 132.0,252.1 132.2,252.0 132.5,250.8 132.7,252.1 133.0,258.2 133.3,258.0 133.5,257.0 133.8,257.5 134.0,257.5 134.3,256.8 134.5,253.0 134.8,254.2 135.0,245.5 135.3,250.8 135.5,252.2 135.8,254.5 136.0,248.2 136.3,246.2 136.5,248.8 136.8,249.6 137.0,248.8 137.3,250.7 137.5,251.3 137.8,253.9 138.0,259.4 138.3,257.5 138.5,257.2 138.8,259.4 139.1,260.0 139.3,262.5 139.6,265.4 139.8,265.4 140.1,261.2 140.3,255.9 140.6,252.1 140.8,248.0 141.1,246.2 141.3,251.1 141.6,253.0 141.8,241.1 142.1,248.5 142.3,248.0 142.6,251.5 142.8,258.4 143.1,259.0 143.3,256.8 143.6,263.8 143.8,269.8 144.1,264.7 144.4,257.5 144.6,260.3 144.9,258.7 145.1,258.0 145.4,259.6 145.6,256.9 145.9,259.1 146.1,262.8 146.4,263.2 146.6,267.2 146.9,265.8 147.1,266.0 147.4,272.1 147.6,283.4 147.9,279.2 148.1,277.6 148.4,277.9 148.6,277.0 148.9,277.6 149.1,275.8 149.4,276.8 149.6,279.0 149.9,265.5 150.2,270.8 150.4,270.5 150.7,270.3 150.9,266.9 151.2,265.8 151.4,264.0 151.7,259.7 151.9,260.3 152.2,261.4 152.4,260.7 152.7,254.1 152.9,241.9 153.2,245.3 153.4,246.3 153.7,250.7 153.9,251.7 154.2,248.2 154.4,247.5 154.7,245.6 154.9,246.0 155.2,244.9 155.5,246.0 155.7,247.7 156.0,248.0 156.2,252.1 156.5,252.9 156.7,258.6 157.0,258.3 157.2,255.1 157.5,249.6 157.7,249.0 158.0,251.0 158.2,243.4 158.5,244.6 158.7,245.5 159.0,244.7 159.2,235.4 159.5,236.6 159.7,233.1 160.0,223.8 160.2,219.5 160.5,228.2 160.7,229.7 161.0,232.6 161.3,227.0 161.5,214.3 161.8,203.5 162.0,206.4 162.3,193.2 162.5,196.3 162.8,201.6 163.0,211.7 163.3,208.1 163.5,219.6 163.8,218.5 164.0,219.3 164.3,212.6 164.5,211.1 164.8,210.6 165.0,215.3 165.3,218.9 165.5,210.8 165.8,211.5 166.0,215.1 166.3,215.3 166.6,213.3 166.8,216.3 167.1,219.0 167.3,220.7 167.6,221.2 167.8,221.7 168.1,227.4 168.3,233.6 168.6,230.5 168.8,234.1 169.1,233.8 169.3,231.3 169.6,231.6 169.8,235.1 170.1,234.2 170.3,243.2 170.6,238.1 170.8,234.1 171.1,231.4 171.3,231.5 171.6,226.5 171.8,226.7 172.1,231.0 172.4,224.8 172.6,226.8 172.9,229.4 173.1,229.4 173.4,228.1 173.6,229.8 173.9,228.1 174.1,230.2 174.4,233.5 174.6,234.3 174.9,235.2 175.1,236.5 175.4,235.4 175.6,238.1 175.9,239.0 176.1,241.5 176.4,238.9 176.6,239.6 176.9,239.7 177.1,244.6 177.4,244.6 177.7,245.6 177.9,245.6 178.2,243.9 178.4,243.7 178.7,241.3 178.9,240.7 179.2,239.7 179.4,241.2 179.7,242.9 179.9,243.2 180.2,242.8 180.4,241.2 180.7,241.9 180.9,242.0 181.2,243.4 181.4,242.1 181.7,241.9 181.9,242.6 182.2,241.8 182.4,240.7 182.7,236.3 183.0,236.4 183.2,234.6 183.5,234.7 183.7,232.0 184.0,234.3 184.2,233.9 184.5,237.9 184.7,238.3 185.0,238.4 185.2,238.5 185.5,237.7 185.7,237.3 186.0,235.8 186.2,234.0 186.5,229.3 186.7,228.7 187.0,230.4 187.2,229.3 187.5,229.4 187.7,228.1 188.0,228.2 188.2,226.4 188.5,229.6 188.8,231.9 189.0,233.6 189.3,233.7 189.5,232.7 189.8,231.3 190.0,230.4 190.3,229.6 190.5,231.4 190.8,231.0 191.0,232.2 191.3,231.6 191.5,233.0 191.8,233.9 192.0,234.7 192.3,235.2 192.5,237.8 192.8,240.9 193.0,239.6 193.3,239.5 193.5,244.3 193.8,242.3 194.1,244.1 194.3,237.9 194.6,238.1 194.8,237.3 195.1,235.8 195.3,237.5 195.6,234.8 195.8,236.8 196.1,237.6 196.3,239.8 196.6,239.1 196.8,239.3 197.1,239.6 197.3,240.1 197.6,240.9 197.8,241.3 198.1,241.7 198.3,240.3 198.6,240.3 198.8,239.5 199.1,238.9 199.3,239.2 199.6,239.3 199.9,239.9 200.1,241.7 200.4,242.4 200.6,242.4 200.9,243.1 201.1,243.2 201.4,239.7 201.6,235.9 201.9,237.6 202.1,238.7 202.4,237.6 202.6,235.3 202.9,230.6 203.1,231.5 203.4,230.2 203.6,232.0 203.9,233.4 204.1,231.9 204.4,232.4 204.6,235.2 204.9,234.5 205.2,235.0 205.4,235.9 205.7,234.6 205.9,235.6 206.2,234.4 206.4,234.1 206.7,228.2 206.9,227.3 207.2,228.5 207.4,225.9 207.7,222.3 207.9,220.5 208.2,221.4 208.4,222.5 208.7,219.4 208.9,222.9 209.2,223.5 209.4,222.1 209.7,226.0 209.9,227.2 210.2,226.6 210.4,224.2 210.7,222.3 211.0,224.0 211.2,217.3 211.5,217.9 211.7,215.2 212.0,216.9 212.2,214.1 212.5,215.6 212.7,216.7 213.0,216.0 213.2,212.3 213.5,213.6 213.7,215.0 214.0,212.7 214.2,213.3 214.5,217.7 214.7,217.7 215.0,222.1 215.2,221.7 215.5,222.3 215.7,217.1 216.0,218.8 216.3,218.7 216.5,220.1 216.8,223.0 217.0,223.8 217.3,219.7 217.5,221.9 217.8,221.1 218.0,223.6 218.3,227.2 218.5,225.6 218.8,230.4 219.0,229.5 219.3,228.6 219.5,232.9 219.8,236.5 220.0,234.4 220.3,235.4 220.5,232.9 220.8,232.9 221.0,231.0 221.3,232.1 221.5,232.7 221.8,233.1 222.1,232.1 222.3,229.1 222.6,229.4 222.8,229.9 223.1,230.0 223.3,229.1 223.6,226.3 223.8,224.4 224.1,225.0 224.3,225.3 224.6,224.0 224.8,227.2 225.1,224.9 225.3,226.6 225.6,227.1 225.8,227.5 226.1,226.1 226.3,225.3 226.6,220.7 226.8,221.9 227.1,223.4 227.4,224.9 227.6,226.2 227.9,226.0 228.1,221.8 228.4,224.3 228.6,224.4 228.9,226.6 229.1,227.2 229.4,227.6 229.6,228.8 229.9,229.7 230.1,230.5 230.4,228.3 230.6,230.1 230.9,229.6 231.1,228.6 231.4,228.9 231.6,228.5 231.9,228.1 232.1,229.2 232.4,227.5 232.7,224.0 232.9,226.3 233.2,222.2 233.4,224.4 233.7,226.7 233.9,229.1 234.2,229.2 234.4,230.3 234.7,229.8 234.9,229.2 235.2,228.8 235.4,228.6 235.7,229.3 235.9,229.8 236.2,229.8 236.4,230.5 236.7,231.9 236.9,231.8 237.2,231.6 237.4,231.8 237.7,230.4 237.9,229.4 238.2,230.4 238.5,231.7 238.7,232.7 239.0,235.6 239.2,234.3 239.5,235.9 239.7,234.9 240.0,235.7 240.2,234.5 240.5,235.1 240.7,237.0 241.0,237.0 241.2,237.6 241.5,237.9 241.7,235.1 242.0,235.3 242.2,235.9 242.5,237.8 242.7,238.1 243.0,237.3 243.2,237.0 243.5,237.5 243.8,237.0 244.0,237.2 244.3,237.7 244.5,238.2 244.8,236.1 245.0,237.2 245.3,240.7 245.5,241.1 245.8,244.2 246.0,245.9 246.3,244.3 246.5,242.1 246.8,243.0 247.0,245.0 247.3,243.9 247.5,243.9 247.8,240.2 248.0,239.1 248.3,239.8 248.5,243.2 248.8,243.1 249.0,244.2 249.3,242.0 249.6,237.2 249.8,237.2 250.1,229.6 250.3,231.4 250.6,232.9 250.8,235.2 251.1,233.0 251.3,233.0 251.6,233.8 251.8,234.3 252.1,234.2 252.3,235.7 252.6,236.2 252.8,234.7 253.1,235.9 253.3,236.5 253.6,234.9 253.8,234.0 254.1,234.6 254.3,235.4 254.6,236.4 254.9,235.7 255.1,234.4 255.4,235.2 255.6,235.4 255.9,233.9 256.1,233.9 256.4,235.7 256.6,236.4 256.9,236.2 257.1,237.7 257.4,236.2 257.6,239.7 257.9,242.1 258.1,242.1 258.4,241.2 258.6,240.9 258.9,239.2 259.1,240.2 259.4,240.0 259.6,240.0 259.9,239.7 260.1,237.6 260.4,237.4 260.7,237.0 260.9,238.9 261.2,240.1 261.4,241.4 261.7,243.1 261.9,243.2 262.2,241.4 262.4,239.8 262.7,238.1 262.9,237.7 263.2,238.3 263.4,239.0 263.7,240.3 263.9,238.5 264.2,233.9 264.4,236.9 264.7,238.3 264.9,236.9 265.2,236.6 265.4,236.8 265.7,235.5 266.0,237.5 266.2,237.4 266.5,237.4 266.7,237.4 267.0,237.4 267.2,236.5 267.5,236.6 267.7,236.6 268.0,236.3 268.2,235.0 268.5,232.6 268.7,233.7 269.0,232.9 269.2,234.5 269.5,235.8 269.7,237.3 270.0,237.9 270.2,236.2 270.5,236.8 270.7,235.8 271.0,235.9 271.2,236.5 271.5,237.0 271.8,237.8 272.0,238.5 272.3,238.3 272.5,238.7 272.8,241.8 273.0,251.1 273.3,251.5 273.5,248.1 273.8,249.2 274.0,249.2 274.3,248.7 274.5,250.7 274.8,246.2 275.0,246.5 275.3,245.5 275.5,245.5 275.8,246.6 276.0,247.4 276.3,246.9 276.5,246.4 276.8,245.6 277.1,245.2 277.3,246.3 277.6,248.0 277.8,251.0 278.1,249.0 278.3,248.8 278.6,248.5 278.8,247.5 279.1,247.4 279.3,246.8 279.6,245.7 279.8,245.7 280.1,245.1 280.3,246.0 280.6,248.1 280.8,248.1 281.1,247.4 281.3,250.7 281.6,252.5 281.8,251.7 282.1,249.0 282.3,248.7 282.6,248.7 282.9,247.9 283.1,245.3 283.4,241.1 283.6,241.4 283.9,239.1 284.1,238.6 284.4,241.0 284.6,243.7 284.9,241.8 285.1,238.9 285.4,241.8 285.6,242.0 285.9,239.5 286.1,241.0 286.4,241.4 286.6,242.1 286.9,242.7 287.1,242.4 287.4,243.0 287.6,244.9 287.9,244.9 288.2,244.5 288.4,246.6 288.7,246.6 288.9,246.6 289.2,247.2 289.4,245.1 289.7,244.2 289.9,243.2 290.2,244.1 290.4,241.0 290.7,243.1 290.9,243.4 291.2,241.8 291.4,243.9 291.7,242.3 291.9,242.1 292.2,241.1 292.4,239.6 292.7,240.4 292.9,239.3 293.2,244.2 293.5,245.2 293.7,245.7 294.0,245.9 294.2,246.3 294.5,246.6 294.7,247.6 295.0,246.3 295.2,246.5 295.5,246.5 295.7,245.3 296.0,245.2 296.2,246.0 296.5,243.8 296.7,244.5 297.0,246.0 297.2,246.2 297.5,246.5 297.7,247.2 298.0,249.0 298.2,248.2 298.5,249.0 298.7,250.3 299.0,248.6 299.3,249.6 299.5,250.0 299.8,250.3 300.0,253.0 300.3,250.6 300.5,238.9 300.8,228.8 301.0,224.0 301.3,221.1 301.5,221.0 301.8,221.0 302.0,221.8 302.3,221.4 302.5,218.9 302.8,214.6 303.0,217.6 303.3,211.6 303.5,212.6 303.8,224.3 304.0,222.3 304.3,225.7 304.6,222.7 304.8,225.2 305.1,223.4 305.3,223.3 305.6,226.2 305.8,227.0 306.1,230.8 306.3,227.3 306.6,229.0 306.8,232.6 307.1,234.4 307.3,234.2 307.6,236.5 307.8,234.1 308.1,228.4 308.3,227.6 308.6,218.7 308.8,216.8 309.1,216.8 309.3,215.3 309.6,216.8 309.8,217.1 310.1,208.7 310.4,205.7 310.6,210.8 310.9,208.4 311.1,206.5 311.4,209.8 311.6,208.6 311.9,203.0 312.1,200.9 312.4,204.4 312.6,206.1 312.9,201.7 313.1,201.7 313.4,204.2 313.6,206.5 313.9,207.5 314.1,206.0 314.4,206.0 314.6,207.0 314.9,199.9 315.1,195.4 315.4,192.0 315.7,194.1 315.9,197.2 316.2,196.3 316.4,197.2 316.7,197.6 316.9,197.6 317.2,199.4 317.4,198.5 317.7,209.9 317.9,204.1 318.2,210.4 318.4,208.7 318.7,205.5 318.9,206.8 319.2,207.9 319.4,206.6 319.7,210.8 319.9,212.7 320.2,217.9 320.4,218.7 320.7,221.5 320.9,216.3 321.2,215.0 321.5,216.8 321.7,212.6 322.0,214.0 322.2,216.5 322.5,214.0 322.7,211.4 323.0,213.5 323.2,226.0 323.5,225.2 323.7,228.6 324.0,227.3 324.2,227.9 324.5,226.1 324.7,228.2 325.0,229.0 325.2,229.1 325.5,229.1 325.7,226.8 326.0,227.7 326.2,225.1 326.5,227.2 326.8,227.6 327.0,225.8 327.3,227.5 327.5,228.4 327.8,232.5 328.0,231.3 328.3,234.8 328.5,235.3 328.8,232.1 329.0,232.7 329.3,236.2 329.5,238.7 329.8,241.3 330.0,239.5 330.3,242.0 330.5,245.2 330.8,245.2 331.0,252.5 331.3,249.2 331.5,245.1 331.8,247.9 332.0,247.9 332.3,247.7 332.6,244.7 332.8,237.3 333.1,238.1 333.3,239.8 333.6,239.8 333.8,236.6 334.1,237.8 334.3,232.7 334.6,234.8 334.8,237.3 335.1,234.3 335.3,234.7 335.6,235.1 335.8,234.8 336.1,236.2 336.3,235.3 336.6,237.9 336.8,234.7 337.1,234.7 337.3,231.7 337.6,234.5 337.9,234.7 338.1,236.2 338.4,238.9 338.6,237.8 338.9,235.9 339.1,237.6 339.4,239.3 339.6,237.5 339.9,237.6 340.1,238.3 340.4,239.2 340.6,237.5 340.9,237.3 341.1,237.7 341.4,235.1 341.6,236.7 341.9,234.1 342.1,233.5 342.4,234.0 342.6,236.3 342.9,237.4 343.2,241.4 343.4,242.2 343.7,240.7 343.9,240.4 344.2,240.3 344.4,239.5 344.7,238.7 344.9,239.9 345.2,238.8 345.4,239.7 345.7,242.3 345.9,243.0 346.2,241.7 346.4,239.8 346.7,239.8 346.9,239.9 347.2,241.7 347.4,240.9 347.7,240.7 347.9,240.8 348.2,240.3 348.4,240.9 348.7,241.8 349.0,242.3 349.2,243.7 349.5,242.4 349.7,241.7 350.0,242.3 350.2,243.7 350.5,244.7 350.7,245.2 351.0,245.9 351.2,244.3 351.5,243.1 351.7,242.9 352.0,243.2 352.2,243.4 352.5,244.3 352.7,243.4 353.0,240.8 353.2,240.9 353.5,240.7 353.7,248.3 354.0,247.9 354.3,247.4 354.5,250.7 354.8,246.8 355.0,249.1 355.3,249.6 355.5,249.3 355.8,246.6 356.0,247.6 356.3,248.3 356.5,249.7 356.8,254.3 357.0,253.8 357.3,251.0 357.5,252.4 357.8,251.3 358.0,249.2 358.3,249.0 358.5,249.5 358.8,251.0 359.0,250.5 359.3,249.5 359.5,250.5 359.8,249.2 360.1,246.4 360.3,249.3 360.6,247.6 360.8,248.6 361.1,250.5 361.3,249.2 361.6,249.1 361.8,246.8 362.1,246.0 362.3,246.6 362.6,245.5 362.8,244.3 363.1,245.8 363.3,246.8 363.6,244.5 363.8,243.9 364.1,245.7 364.3,246.3 364.6,246.9 364.8,248.6 365.1,248.5 365.4,249.0 365.6,247.7 365.9,248.6 366.1,247.6 366.4,247.1 366.6,247.4 366.9,246.9 367.1,247.7 367.4,246.6 367.6,248.0 367.9,249.7 368.1,251.6 368.4,251.1 368.6,250.1 368.9,250.1 369.1,257.7 369.4,257.2 369.6,257.9 369.9,258.9 370.1,258.0 370.4,256.8 370.6,256.5 370.9,258.4 371.2,258.7 371.4,257.6 371.7,259.0 371.9,259.3 372.2,261.4 372.4,259.4 372.7,260.0 372.9,260.4 373.2,260.1 373.4,257.9 373.7,256.4 373.9,253.4 374.2,251.2 374.4,252.2 374.7,251.9 374.9,252.6 375.2,247.0 375.4,252.8 375.7,253.2 375.9,253.7 376.2,254.1 376.5,254.3 376.7,253.3 377.0,255.0 377.2,257.3 377.5,256.8 377.7,256.2 378.0,257.7 378.2,257.3 378.5,256.6 378.7,255.4 379.0,256.2 379.2,258.0 379.5,258.0 379.7,256.8 380.0,257.3 380.2,257.5 380.5,257.0 380.7,256.4 381.0,256.1 381.2,254.7 381.5,253.7 381.7,252.9 382.0,253.2 382.3,253.8 382.5,254.1 382.8,253.3 383.0,253.9 383.3,253.3 383.5,252.0 383.8,253.2 384.0,253.2 384.3,253.0 384.5,253.8 384.8,254.3 385.0,252.0 385.3,249.2 385.5,248.7 385.8,248.6 386.0,249.3 386.3,249.2 386.5,247.9 386.8,247.7 387.0,247.1 387.3,248.1 387.6,248.1 387.8,246.9 388.1,246.3 388.3,246.6 388.6,246.4 388.8,245.1 389.1,245.5 389.3,245.9 389.6,243.0 389.8,244.4 390.1,245.9 390.3,244.5 390.6,241.8 390.8,243.7 391.1,245.0 391.3,244.3 391.6,246.9 391.8,245.8 392.1,245.3 392.3,243.8 392.6,244.6 392.9,246.6 393.1,247.7 393.4,247.0 393.6,249.3 393.9,246.5 394.1,246.5 394.4,247.0 394.6,245.8 394.9,242.3 395.1,244.2 395.4,241.8 395.6,243.4 395.9,244.2 396.1,245.8 396.4,246.5 396.6,249.8 396.9,248.2 397.1,250.3 397.4,253.9 397.6,252.6 397.9,253.3 398.1,252.5 398.4,252.4 398.7,252.4 398.9,253.2 399.2,253.5 399.4,252.8 399.7,250.2 399.9,253.5 400.2,259.1 400.4,259.0 400.7,256.9 400.9,258.3 401.2,258.4 401.4,262.0 401.7,262.6 401.9,264.3 402.2,271.6 402.4,268.7 402.7,268.7 402.9,269.5 403.2,270.5 403.4,275.6 403.7,284.8 404.0,281.9 404.2,286.4 404.5,289.8 404.7,300.4 405.0,299.4 405.2,294.0 405.5,295.3 405.7,300.9 406.0,297.2 406.2,291.1 406.5,287.3 406.7,292.6 407.0,292.6 407.2,290.4 407.5,289.1 407.7,282.4 408.0,274.9 408.2,283.6 408.5,282.1 408.7,278.5 409.0,277.4 409.2,279.6 409.5,280.3 409.8,280.1 410.0,276.7 410.3,278.8 410.5,278.5 410.8,277.7 411.0,274.2 411.3,277.4 411.5,280.9 411.8,275.6 412.0,271.8 412.3,271.1 412.5,262.8 412.8,262.8 413.0,264.3 413.3,263.1 413.5,264.9 413.8,262.6 414.0,260.6 414.3,261.2 414.5,263.5 414.8,263.5 415.1,261.7 415.3,262.2 415.6,258.6 415.8,258.7 416.1,257.5 416.3,254.1 416.6,250.7 416.8,243.6 417.1,246.6 417.3,244.4 417.6,233.6 417.8,235.6 418.1,239.3 418.3,237.0 418.6,240.9 418.8,236.6 419.1,237.0 419.3,234.4 419.6,228.7 419.8,226.3 420.1,234.6 420.3,226.3 420.6,229.9 420.9,227.2 421.1,229.0 421.4,230.8 421.6,232.1 421.9,231.2 422.1,235.4 422.4,241.4 422.6,246.8 422.9,245.2 423.1,246.8 423.4,252.0 423.6,251.0 423.9,247.6 424.1,249.3 424.4,246.5 424.6,248.2 424.9,245.3 425.1,241.5 425.4,246.6 425.6,246.2 425.9,249.3 426.2,251.6 426.4,250.2 426.7,249.5 426.9,249.2 427.2,250.2 427.4,251.6 427.7,254.9 427.9,254.3 428.2,257.5 428.4,254.3 428.7,253.2 428.9,252.2 429.2,252.9 429.4,254.3 429.7,254.1 429.9,253.5 430.2,252.5 430.4,250.7 430.7,242.9 430.9,243.0 431.2,239.0 431.4,244.2 431.7,241.7 432.0,242.7 432.2,243.9 432.5,244.5 432.7,246.3 433.0,250.3 433.2,247.4 433.5,246.0 433.7,246.8 434.0,245.9 434.2,248.0 434.5,250.2 434.7,247.9 435.0,248.5 435.2,249.8 435.5,249.0 435.7,247.6 436.0,247.2 436.2,245.0 436.5,247.1 436.7,245.5 437.0,244.2 437.3,245.0 437.5,245.5 437.8,246.6 438.0,244.3 438.3,252.0 438.5,257.9 438.8,255.8 439.0,253.5 439.3,252.2 439.5,250.7 439.8,250.6 440.0,251.2 440.3,251.2 440.5,252.8 440.8,255.1 441.0,255.7 441.3,254.5 441.5,255.3 441.8,255.4 442.0,258.7 442.3,258.4 442.6,262.6 442.8,261.0 443.1,262.3 443.3,261.0 443.6,264.1 443.8,262.8 444.1,260.9 444.3,259.1 444.6,260.9 444.8,260.0 445.1,261.2 445.3,260.0 445.6,258.4 445.8,260.3 446.1,260.6 446.3,263.8 446.6,264.7 446.8,264.6 447.1,263.7 447.3,261.6 447.6,263.1 447.8,261.7 448.1,260.3 448.4,260.6 448.6,258.6 448.9,258.7 449.1,258.9 449.4,260.1 449.6,262.0 449.9,260.1 450.1,262.2 450.4,264.4 450.6,263.8 450.9,263.8 451.1,266.1 451.4,267.9 451.6,269.0 451.9,270.6 452.1,270.8 452.4,275.1 452.6,272.8 452.9,272.8 453.1,273.8 453.4,276.5 453.7,273.5 453.9,271.8 454.2,273.0 454.4,273.7 454.7,272.1 454.9,273.0 455.2,272.1 455.4,272.3 455.7,272.0 455.9,273.7 456.2,274.2 456.4,269.5 456.7,269.6 456.9,269.3 457.2,268.7 457.4,267.7 457.7,264.0 457.9,266.8 458.2,269.3 458.4,269.1 458.7,270.6 458.9,271.3 459.2,269.1 459.5,268.5 459.7,268.5 460.0,267.5 460.2,267.1 460.5,267.1 460.7,267.1 461.0,267.9 461.2,265.0 461.5,263.7 461.7,261.4 462.0,263.4 462.2,265.0 462.5,262.8 462.7,261.3 463.0,262.3 463.2,261.9 463.5,262.2 463.7,264.4 464.0,264.1 464.2,266.9 464.5,267.5 464.8,268.0 465.0,266.9 465.3,267.5 465.5,267.1 465.8,264.9 466.0,265.8 466.3,266.9 466.5,266.1 466.8,267.4 467.0,266.4 467.3,266.4 467.5,267.7 467.8,270.5 468.0,271.3 468.3,270.1 468.5,270.8 468.8,270.6 469.0,268.8 469.3,268.3 469.5,267.1 469.8,265.0 470.0,264.9 470.3,265.0 470.6,266.6 470.8,265.4 471.1,266.1 471.3,267.5 471.6,266.3 471.8,266.9 472.1,267.5 472.3,267.9 472.6,268.7 472.8,271.1 473.1,269.5 473.3,269.5 473.6,269.5 473.8,269.8 474.1,270.6 474.3,271.1 474.6,271.3 474.8,271.5 475.1,271.6 475.3,273.3 475.6,275.2 475.9,275.9 476.1,274.5 476.4,277.7 476.6,272.5 476.9,273.5 477.1,272.0 477.4,272.1 477.6,274.0 477.9,274.0 478.1,274.9 478.4,275.9 478.6,276.3 478.9,276.5 479.1,275.6 479.4,275.2 479.6,276.1 479.9,277.0 480.1,276.1 480.4,275.8 480.6,274.4 480.9,274.7 481.1,275.8 481.4,275.2 481.7,274.9 481.9,275.8 482.2,275.9 482.4,276.5 482.7,277.7 482.9,277.4 483.2,277.0 483.4,277.6 483.7,277.4 483.9,276.8 484.2,277.0 484.4,277.2 484.7,277.2 484.9,277.0 485.2,277.4 485.4,276.8 485.7,277.0 485.9,278.3 486.2,278.1 486.4,278.1 486.7,277.7 487.0,278.5 487.2,278.8 487.5,278.1 487.7,279.0 488.0,279.6 488.2,279.4 488.5,280.7 488.7,280.3 489.0,284.2 489.2,284.8 489.5,286.6 489.7,286.6 490.0,287.0 490.2,286.4 490.5,286.4 490.7,287.0 491.0,286.0 491.2,283.2 491.5,284.2 491.7,283.0 492.0,288.3 492.3,293.7 492.5,290.2 492.8,292.6 493.0,291.7 493.3,291.7 493.5,289.1 493.8,290.0 494.0,289.4 494.3,288.9 494.5,288.3 494.8,286.4 495.0,282.2 495.3,276.1 495.5,278.1 495.8,279.2 496.0,279.4 496.3,275.2 496.5,278.1 496.8,278.1 497.0,279.0 497.3,278.8 497.5,279.6 497.8,281.9 498.1,281.1 498.3,283.6 498.6,284.4 498.8,281.7 499.1,280.9 499.3,280.0 499.6,280.5 499.8,282.2 500.1,283.6 500.3,285.8 500.6,287.5 500.8,287.9 501.1,287.5 501.3,286.2 501.6,285.8 501.8,286.6 502.1,287.0 502.3,286.6 502.6,284.8 502.8,284.4 503.1,283.8 503.4,285.4 503.6,286.6 503.9,288.3 504.1,288.5 504.4,287.9 504.6,288.9 504.9,288.5 505.1,289.1 505.4,289.1 505.6,287.5 505.9,287.0 506.1,288.1 506.4,288.1 506.6,289.4 506.9,290.4 507.1,291.1 507.4,290.0 507.6,290.0 507.9,289.6 508.1,290.9 508.4,289.4 508.6,290.2 508.9,284.8 509.2,284.2 509.4,282.1 509.7,280.7 509.9,286.2 510.2,286.4 510.4,283.2 510.7,282.2 510.9,281.3 511.2,281.9 511.4,283.0 511.7,283.6 511.9,284.6 512.2,286.0 512.4,288.3 512.7,290.9 512.9,291.3 513.2,287.9 513.4,289.6 513.7,290.6 513.9,291.7 514.2,290.9 514.5,291.1 514.7,291.1 515.0,293.5 515.2,293.3 515.5,290.9 515.7,290.9 516.0,289.1 516.2,290.0 516.5,292.4 516.7,292.0 517.0,291.5 517.2,292.2 517.5,292.4 517.7,292.2 518.0,293.5 518.2,293.5 518.5,294.7 518.7,293.3 519.0,291.5 519.2,292.4 519.5,293.5 519.7,293.1 520.0,294.7 520.3,294.9 520.5,294.9 520.8,293.1 521.0,292.4 521.3,295.3 521.5,297.7 521.8,298.4 522.0,298.9 522.3,298.4 522.5,297.7 522.8,298.4 523.0,298.9 523.3,299.1 523.5,299.1 523.8,299.6 524.0,301.1 524.3,303.1 524.5,305.5 524.8,302.6 525.0,300.6 525.3,299.6 525.6,300.4 525.8,300.1 526.1,301.6 526.3,304.7 526.6,305.2 526.8,305.2 527.1,303.4 527.3,303.9 527.6,303.9 527.8,304.2 528.1,303.4 528.3,301.4 528.6,300.4 528.8,300.4 529.1,299.1 529.3,299.1 529.6,298.7 529.8,297.9 530.1,298.2 530.3,298.4 530.6,297.2 530.8,297.5 531.1,296.3 531.4,294.7 531.6,295.3 531.9,297.0 532.1,297.0 532.4,299.4 532.6,299.6 532.9,297.9 533.1,297.0 533.4,298.4 533.6,299.9 533.9,299.4 534.1,297.2 534.4,295.6 534.6,294.4 534.9,294.9 535.1,295.8 535.4,295.8 535.6,296.7 535.9,299.1 536.1,298.9 536.4,298.2 536.7,300.4 536.9,297.9 537.2,301.1 537.4,299.1 537.7,301.4 537.9,303.4 538.2,302.9 538.4,303.9 538.7,302.9 538.9,302.4 539.2,303.7 539.4,302.6 539.7,302.6 539.9,302.6 540.2,302.1 540.4,301.9 540.7,301.9 540.9,301.4 541.2,302.4 541.4,302.1 541.7,301.9 542.0,301.6 542.2,301.9 542.5,301.9 542.7,303.1 543.0,302.6 543.2,303.9 543.5,303.4 543.7,303.9 544.0,304.2 544.2,303.9 544.5,304.4 544.7,304.2 545.0,304.4 545.2,304.7 545.5,304.4 545.7,305.7 546.0,305.2 546.2,306.0 546.5,306.0 546.7,304.4 547.0,305.5 547.2,305.0 547.5,305.5 547.8,305.5 548.0,306.0 548.3,306.0 548.5,305.5 548.8,305.5 549.0,306.0 549.3,304.4 549.5,304.2 549.8,304.4 550.0,304.2 550.3,304.2 550.5,304.7 550.8,305.0 551.0,304.7 551.3,304.2 551.5,305.0 551.8,304.7 552.0,304.7 552.3,304.7 552.5,304.7 552.8,305.0 553.1,304.7 553.3,305.2 553.6,305.2 553.8,304.7 554.1,305.0 554.3,304.7 554.6,303.7 554.8,304.7 555.1,304.7 555.3,303.9 555.6,303.9 555.8,304.4 556.1,304.7 556.3,303.9 556.6,304.7 556.8,305.2 557.1,305.2 557.3,305.2 557.6,303.7 557.8,303.9 558.1,305.0 558.3,304.7 558.6,305.0 558.9,304.7 559.1,305.2 559.4,305.2 559.6,305.5 559.9,306.0 560.1,305.5 560.4,306.0 560.6,306.5 560.9,306.3 561.1,307.6 561.4,307.6 561.6,308.2 561.9,307.4 562.1,308.2 562.4,307.9 562.6,308.5 562.9,308.5 563.1,308.7 563.4,309.0 563.6,309.0 563.9,309.6 564.2,309.6 564.4,307.1 564.7,305.7 564.9,306.3 565.2,306.3 565.4,308.2 565.7,307.9 565.9,307.4 566.2,308.5 566.4,308.7 566.7,308.5 566.9,308.5 567.2,308.5 567.4,307.9 567.7,308.7 567.9,308.2 568.2,308.2 568.4,307.6 568.7,307.9 568.9,308.7 569.2,309.0 569.4,309.0 569.7,309.0 570.0,308.7 570.2,308.5 570.5,308.5 570.7,307.9 571.0,308.2 571.2,309.0 571.5,309.0 571.7,308.7 572.0,308.7 572.2,309.6 572.5,309.6 572.7,309.8 573.0,309.8 573.2,309.3 573.5,309.6 573.7,309.8 574.0,311.6 574.2,311.3 574.5,311.0 574.7,311.8 575.0,312.1 575.3,313.0 575.5,313.3 575.8,313.3 576.0,315.4 576.3,315.4 576.5,315.7 576.8,316.9 577.0,316.6 577.3,316.0 577.5,316.6 577.8,317.2 578.0,317.2 578.3,316.9 578.5,316.3 578.8,316.3 579.0,316.6 579.3,316.3 579.5,317.5 579.8,316.6 580.0,317.2 580.3,316.0 580.5,315.7 580.8,314.8 581.1,314.8 581.3,314.2 581.6,314.8 581.8,313.6 582.1,314.2 582.3,314.8 582.6,313.9 582.8,315.1 583.1,315.1 583.3,314.5 583.6,313.9 583.8,313.6 584.1,313.6 584.3,316.0 584.6,315.4 584.8,317.2 585.1,317.2 585.3,317.5 585.6,317.2 585.8,316.6 586.1,316.9 586.4,316.9 586.6,316.9 586.9,315.4 587.1,314.8 587.4,314.8 587.6,314.5 587.9,313.6 588.1,314.5 588.4,313.3 588.6,313.3 588.9,313.6 589.1,314.2 589.4,315.1 589.6,315.1 589.9,315.4 590.1,315.4 590.4,315.4 590.6,315.4 590.9,315.4 591.1,315.4 591.4,315.1 591.7,311.0 591.9,309.0 592.2,309.0 592.4,310.4 592.7,309.6 592.9,308.5 593.2,308.7 593.4,309.6 593.7,310.1 593.9,310.4 594.2,311.0 594.4,310.7 594.7,311.0 594.9,311.3 595.2,310.1 595.4,309.3 595.7,309.8 595.9,310.4 596.2,310.4 596.4,309.8 596.7,309.3 596.9,309.8 597.2,308.2 597.5,308.2 597.7,307.4 598.0,307.6 598.2,306.8 598.5,307.6 598.7,307.6 599.0,306.8 599.2,306.8 599.5,305.7 599.7,304.2 600.0,304.4 600.2,306.0 600.5,305.5 600.7,305.2 601.0,305.5 601.2,306.3 601.5,305.2 601.7,305.5 602.0,302.9 602.2,302.9 602.5,302.4 602.8,302.4 603.0,297.0 603.3,299.6 603.5,300.6 603.8,301.6 604.0,297.5 604.3,299.9 604.5,299.6 604.8,299.1 605.0,299.4 605.3,301.1 605.5,296.0 605.8,294.0 606.0,277.7 606.3,278.7 606.5,279.2 606.8,282.1 607.0,286.4 607.3,287.9 607.5,287.9 607.8,281.7 608.0,281.9 608.3,281.7 608.6,282.8 608.8,285.6 609.1,287.7 609.3,286.8 609.6,288.5 609.8,287.3 610.1,292.0 610.3,291.1 610.6,291.7 610.8,291.7 611.1,290.9 611.3,290.0 611.6,291.7 611.8,292.4 612.1,292.6 612.3,292.6 612.6,292.0 612.8,292.6 613.1,292.2 613.3,292.4 613.6,294.2 613.9,294.2 614.1,295.1 614.4,294.7 614.6,294.9 614.9,295.6 615.1,296.3 615.4,297.7 615.6,301.6 615.9,303.1 616.1,304.2 616.4,303.4 616.6,301.9 616.9,301.9 617.1,300.6 617.4,300.4 617.6,298.4 617.9,299.6 618.1,297.2 618.4,296.7 618.6,297.2 618.9,296.5 619.1,297.5 619.4,297.7 619.7,298.2 619.9,299.4 620.2,298.9 620.4,297.7 620.7,297.0 620.9,297.5 621.2,298.2 621.4,298.9 621.7,299.1 621.9,299.6 622.2,299.4 622.4,298.4 622.7,298.7 622.9,298.9 623.2,296.5 623.4,296.5 623.7,296.0 623.9,294.4 624.2,299.1 624.4,298.7 624.7,297.9 625.0,297.7 625.2,298.2 625.5,298.9 625.7,300.1 626.0,300.6 626.2,302.6 626.5,300.6 626.7,301.4 627.0,300.4 627.2,301.4 627.5,302.9 627.7,303.1 628.0,303.4 628.2,303.1 628.5,303.7 628.7,304.2 629.0,304.7 629.2,305.0 629.5,304.2 629.7,302.9 630.0,303.4 630.2,305.2 630.5,304.4 630.8,304.2 631.0,302.6 631.3,304.2 631.5,306.8 631.8,305.7 632.0,306.5 632.3,305.5 632.5,305.0 632.8,305.0 633.0,304.7 633.3,305.7 633.5,306.5 633.8,306.3 634.0,307.6 634.3,307.1 634.5,306.8 634.8,308.7 635.0,309.0 635.3,308.5 635.5,308.7 635.8,309.0 636.1,309.6 636.3,309.6 636.6,310.1 636.8,311.0 637.1,307.1 637.3,309.6 637.6,309.8 637.8,311.6 638.1,310.7 638.3,312.4 638.6,313.0 638.8,300.1 639.1,296.0 639.3,290.2 639.6,287.9 639.8,284.8 640.1,276.5 640.3,275.6 640.6,278.1 640.8,264.7 641.1,254.2 641.3,241.3 641.6,245.9 641.9,241.1 642.1,245.5 642.4,252.1 642.6,251.9 642.9,257.0 643.1,256.2 643.4,252.9 643.6,255.9 643.9,252.0 644.1,251.6 644.4,253.5 644.6,254.3 644.9,243.0 645.1,248.1 645.4,244.1 645.6,242.7 645.9,245.9 646.1,247.7 646.4,247.7 646.6,246.3 646.9,239.3 647.2,230.4 647.4,230.5 647.7,239.2 647.9,239.1 648.2,229.0 648.4,223.5 648.7,224.2 648.9,225.6 649.2,224.4 649.4,212.2 649.7,201.7 649.9,219.9 650.2,220.2 650.4,225.7 650.7,225.4 650.9,217.3 651.2,222.7 651.4,224.8 651.7,224.6 651.9,225.0 652.2,227.5 652.5,230.9 652.7,232.7 653.0,232.9 653.2,233.0 653.5,234.5 653.7,234.2 654.0,234.4 654.2,237.0 654.5,236.5 654.7,234.4 655.0,229.3 655.2,222.4 655.5,211.8 655.7,201.3 656.0,184.0 656.2,170.0 656.5,154.6 656.7,139.1 657.0,126.2 657.2,144.9 657.5,161.9 657.7,157.6 658.0,172.4 658.3,174.2 658.5,170.4 658.8,177.2 659.0,166.6 659.3,151.9 659.5,145.5 659.8,148.6 660.0,148.6 660.3,160.0 660.5,167.1 660.8,172.9 661.0,172.6 661.3,171.5 661.5,170.4 661.8,178.0 662.0,180.3 662.3,162.9 662.5,166.3 662.8,169.2 663.0,168.6 663.3,172.6 663.6,172.9 663.8,175.2 664.1,178.1 664.3,178.1 664.6,177.2 664.8,160.5 665.1,160.1 665.3,167.0 665.6,170.8 665.8,166.9 666.1,159.3 666.3,162.1 666.6,164.8 666.8,161.6 667.1,159.7 667.3,160.4 667.6,163.4 667.8,164.0 668.1,160.7 668.3,162.7 668.6,164.4 668.8,167.3 669.1,169.1 669.4,167.1 669.6,165.0 669.9,166.6 670.1,166.3 670.4,164.0 670.6,166.2 670.9,165.8 671.1,160.9 671.4,162.7 671.6,160.1 671.9,161.2 672.1,165.0 672.4,164.4 672.6,164.3 672.9,167.1 673.1,170.0 673.4,174.8 673.6,175.1 673.9,176.4 674.1,178.2 674.4,180.7 674.7,175.7 674.9,176.9 675.2,171.7 675.4,177.1 675.7,183.7 675.9,200.9 676.2,191.5 676.4,188.4 676.7,190.4 676.9,190.8 677.2,188.8 677.4,188.9 677.7,187.0 677.9,191.2 678.2,195.8 678.4,195.7 678.7,195.7 678.9,184.5 679.2,188.8 679.4,188.1 679.7,192.6 679.9,195.8 680.2,194.4 680.5,191.6 680.7,188.0 681.0,182.3 681.2,188.2 681.5,189.4 681.7,193.2 682.0,195.5 682.2,194.9 682.5,198.2 682.7,192.6 683.0,193.3 683.2,196.3 683.5,199.7 683.7,198.5 684.0,198.4 684.2,191.3 684.5,191.3 684.7,196.1 685.0,186.5 685.2,190.9 685.5,186.4 685.8,185.0 686.0,189.6 686.3,188.0 686.5,193.9 686.8,196.3 687.0,195.7 687.3,198.3 687.5,197.3 687.8,197.4 688.0,198.7 688.3,199.5 688.5,196.5 688.8,195.7 689.0,195.7 689.3,198.1 689.5,201.5 689.8,207.3 690.0,202.9 690.3,197.4 690.5,198.7 690.8,199.2 691.0,203.5 691.3,205.4 691.6,204.7 691.8,204.4 692.1,204.1 692.3,203.3 692.6,204.5 692.8,205.0 693.1,205.7 693.3,214.4 693.6,211.0 693.8,211.5 694.1,211.4 694.3,212.2 694.6,208.8 694.8,211.8 695.1,216.7 695.3,218.0 695.6,217.7 695.8,224.1 696.1,228.6 696.3,226.9 696.6,228.6 696.9,227.5 697.1,226.9 697.4,232.9 697.6,238.2 697.9,239.0 698.1,238.5 698.4,239.5 698.6,242.3 698.9,242.8 699.1,241.7 699.4,245.1 699.6,240.2 699.9,242.0 700.1,237.5 700.4,242.8 700.6,241.8 700.9,238.4 701.1,239.0 701.4,240.5 701.6,236.5 701.9,235.2 702.2,239.1 702.4,238.6 702.7,241.5 702.9,242.3 703.2,242.8 703.4,245.9 703.7,240.8 703.9,241.9 704.2,240.5 704.4,240.3 704.7,235.6 704.9,237.0 705.2,233.3 705.4,231.6 705.7,234.7 705.9,236.5 706.2,237.7 706.4,235.8 706.7,237.1 706.9,236.5 707.2,229.8 707.4,229.4 707.7,226.7 708.0,229.8 708.2,229.4 708.5,238.8 708.7,239.1 709.0,248.6 709.2,245.3 709.5,239.7 709.7,234.0 710.0,230.1 710.2,228.4 710.5,231.9 710.7,218.5 711.0,215.3 711.2,216.9 711.5,207.7 711.7,209.4 712.0,204.9 712.2,204.6 712.5,207.2 712.7,211.7 713.0,208.9 713.3,206.3 713.5,204.1 713.8,207.9 714.0,209.8 714.3,209.2 714.5,207.0 714.8,210.5 715.0,211.3 715.3,212.9 715.5,213.7 715.8,218.2 716.0,222.7 716.3,223.5 716.5,228.5 716.8,239.0 717.0,233.2 717.3,238.6 717.5,231.8 717.8,230.1 718.0,228.6 718.3,226.1 718.5,227.2 718.8,225.2 719.1,223.5 719.3,221.7 719.6,221.8 719.8,215.6 720.1,214.5 720.3,217.3 720.6,218.1 720.8,218.4 721.1,218.1 721.3,219.5 721.6,221.3 721.8,221.8 722.1,223.1 722.3,221.3 722.6,218.1 722.8,215.7 723.1,213.8 723.3,226.3 723.6,228.1 723.8,231.6 724.1,230.9 724.4,232.2 724.6,234.3 724.9,233.5 725.1,233.2 725.4,233.6 725.6,219.9 725.9,208.3 726.1,189.5 726.4,184.0 726.6,169.9 726.9,165.4 727.1,167.0 727.4,152.2 727.6,141.9 727.9,148.7 728.1,144.4 728.4,149.6 728.6,152.0 728.9,141.3 729.1,155.8 729.4,146.4 729.6,148.8 729.9,154.3 730.2,159.5 730.4,165.7 730.7,174.2 730.9,179.0 731.2,176.0 731.4,176.8 731.7,177.1 731.9,176.9 732.2,160.2 732.4,146.6 732.7,132.5 732.9,120.5 733.2,106.6 733.4,120.5 733.7,119.8 733.9,124.8 734.2,122.9 734.4,108.5 734.7,117.1 734.9,112.9 735.2,108.5 735.5,113.5 735.7,116.4 736.0,120.1 736.2,124.8 736.5,119.1 736.7,119.4 737.0,126.4 737.2,133.0 737.5,132.0 737.7,131.3 738.0,128.1 738.2,122.9 738.5,125.0 738.7,143.4 739.0,140.3 739.2,135.8 739.5,127.2 739.7,123.3 740.0,129.1 740.2,126.9 740.5,132.6 740.7,138.1 741.0,139.8 741.3,143.7 741.5,148.6 741.8,151.5 742.0,142.3 742.3,140.8 742.5,133.8 742.8,141.3 743.0,140.6 743.3,139.8 743.5,138.3 743.8,132.9 744.0,147.1 744.3,164.7 744.5,150.3 744.8,155.2 745.0,157.3 745.3,155.7 745.5,146.2 745.8,132.4 746.0,128.5 746.3,136.1 746.6,151.0 746.8,151.5 747.1,156.0 747.3,158.6 747.6,155.5 747.8,152.6 748.1,163.5 748.3,174.4 748.6,180.2 748.8,183.7 749.1,178.3 749.3,180.4 749.6,176.5 749.8,178.4 750.1,182.1 750.3,174.6 750.6,170.5 750.8,172.1 751.1,166.8 751.3,166.6 751.6,170.2 751.9,171.3 752.1,162.9 752.4,162.4 752.6,155.3 752.9,160.0 753.1,162.5 753.4,149.5 753.6,146.6 753.9,137.3 754.1,138.0 754.4,139.2 754.6,143.1 754.9,148.0 755.1,152.9 755.4,149.6 755.6,150.6 755.9,152.8 756.1,157.8 756.4,158.3 756.6,144.6 756.9,146.8 757.1,151.1 757.4,154.4 757.7,152.6 757.9,156.1 758.2,153.8 758.4,155.5 758.7,155.5 758.9,157.8 759.2,157.2 759.4,158.2 759.7,158.8 759.9,159.8 760.2,162.9 760.4,164.9 760.7,163.0 760.9,158.3 761.2,159.1 761.4,157.7 761.7,159.6 761.9,161.4 762.2,159.7 762.4,159.8 762.7,155.7 763.0,154.4 763.2,152.6 763.5,149.6 763.7,152.7 764.0,152.7 764.2,151.8 764.5,149.8 764.7,151.9 765.0,155.2 765.2,156.4 765.5,158.5 765.7,158.7 766.0,158.7 766.2,158.7 766.5,158.7 766.7,158.8 767.0,160.3 767.2,164.4 767.5,165.1 767.7,164.5 768.0,164.7 768.2,167.7 768.5,169.6 768.8,167.2 769.0,162.3 769.3,157.5 769.5,163.1 769.8,160.2 770.0,162.5 770.3,163.1 770.5,161.6 770.8,164.1 771.0,166.9 771.3,165.9 771.5,164.5 771.8,163.6 772.0,167.5 772.3,171.3 772.5,179.2 772.8,177.2 773.0,177.8 773.3,178.7 773.5,173.7 773.8,172.1 774.1,171.9 774.3,175.2 774.6,176.4 774.8,179.4 775.1,178.9 775.3,181.7 775.6,192.1 775.8,190.4 776.1,184.5 776.3,186.4 776.6,186.6 776.8,189.7 777.1,193.3 777.3,187.6 777.6,188.5 777.8,189.5 778.1,190.6 778.3,191.4 778.6,187.0 778.8,187.2 779.1,188.0 779.3,188.1 779.6,183.7 779.9,182.3 780.1,178.7 780.4,176.1 780.6,176.7 780.9,176.7 781.1,179.7 781.4,180.8 781.6,182.0 781.9,182.6 782.1,180.8 782.4,181.6 782.6,182.3 782.9,172.2 783.1,156.4 783.4,147.4 783.6,150.9 783.9,150.0 784.1,154.3 784.4,147.9 784.6,133.6 784.9,121.5 785.2,120.3 785.4,106.4 785.7,94.7 785.9,99.7 786.2,96.0 786.4,100.6 786.7,89.6 786.9,76.5 787.2,87.2 787.4,101.9 787.7,90.8 787.9,82.1 788.2,93.2 788.4,92.6 788.7,98.0 788.9,102.6 789.2,102.2 789.4,98.2 789.7,94.0 789.9,88.8 790.2,93.0 790.4,90.1 790.7,87.8 791.0,91.3 791.2,99.2 791.5,97.2 791.7,93.8 792.0,105.0 792.2,116.2 792.5,118.9 792.7,119.9 793.0,127.0 793.2,125.7 793.5,129.6 793.7,134.8 794.0,136.5 794.2,131.5 794.5,132.8 794.7,133.6 795.0,133.5 795.2,129.7 795.5,137.7 795.7,142.3 796.0,140.5"/><polyline fill="none" stroke="#16a34a" stroke-width="3" points="78.0,207.4 78.3,188.8 78.5,205.0 78.8,207.8 79.0,201.5 79.3,184.2 79.5,175.3 79.8,179.7 80.0,191.3 80.3,190.5 80.5,192.2 80.8,199.9 81.0,206.0 81.3,204.1 81.5,200.0 81.8,198.1 82.0,205.5 82.3,205.5 82.5,207.4 82.8,211.4 83.0,201.0 83.3,202.3 83.6,209.7 83.8,208.4 84.1,206.4 84.3,209.6 84.6,210.7 84.8,213.6 85.1,212.9 85.3,211.0 85.6,208.2 85.8,212.0 86.1,214.7 86.3,219.0 86.6,217.6 86.8,218.6 87.1,220.8 87.3,212.9 87.6,218.6 87.8,218.7 88.1,218.6 88.3,218.9 88.6,216.1 88.8,218.6 89.1,221.7 89.4,221.9 89.6,222.6 89.9,223.1 90.1,228.5 90.4,231.5 90.6,231.1 90.9,230.5 91.1,229.5 91.4,223.2 91.6,228.6 91.9,232.3 92.1,231.3 92.4,227.8 92.6,226.3 92.9,227.3 93.1,226.0 93.4,230.9 93.6,230.0 93.9,231.6 94.1,232.4 94.4,235.2 94.7,235.6 94.9,237.9 95.2,237.3 95.4,236.1 95.7,235.6 95.9,236.9 96.2,236.6 96.4,229.6 96.7,229.2 96.9,226.9 97.2,226.5 97.4,226.8 97.7,231.5 97.9,233.6 98.2,233.2 98.4,231.2 98.7,227.7 98.9,226.7 99.2,230.1 99.4,232.6 99.7,234.3 99.9,233.4 100.2,232.7 100.5,234.1 100.7,234.5 101.0,235.2 101.2,235.1 101.5,232.9 101.7,232.3 102.0,233.7 102.2,234.6 102.5,235.2 102.7,235.2 103.0,235.2 103.2,235.2 103.5,235.2 103.7,235.5 104.0,235.5 104.2,235.4 104.5,235.2 104.7,235.4 105.0,233.8 105.2,235.4 105.5,221.4 105.8,220.4 106.0,227.2 106.3,228.9 106.5,225.9 106.8,228.6 107.0,231.7 107.3,228.9 107.5,232.1 107.8,227.6 108.0,227.2 108.3,224.4 108.5,225.9 108.8,228.6 109.0,228.6 109.3,232.6 109.5,232.6 109.8,227.4 110.0,230.2 110.3,231.4 110.5,233.7 110.8,232.3 111.0,235.7 111.3,237.2 111.6,238.2 111.8,237.5 112.1,234.4 112.3,235.7 112.6,230.9 112.8,227.9 113.1,229.0 113.3,230.7 113.6,232.8 113.8,233.7 114.1,234.6 114.3,233.9 114.6,235.4 114.8,235.0 115.1,236.2 115.3,236.3 115.6,237.6 115.8,238.7 116.1,239.5 116.3,240.1 116.6,240.1 116.9,239.5 117.1,239.7 117.4,242.4 117.6,243.0 117.9,245.3 118.1,244.2 118.4,238.3 118.6,237.8 118.9,240.5 119.1,252.5 119.4,258.2 119.6,250.0 119.9,252.2 120.1,250.7 120.4,249.8 120.6,254.3 120.9,256.2 121.1,256.8 121.4,260.3 121.6,262.6 121.9,264.9 122.1,261.3 122.4,257.5 122.7,255.8 122.9,256.5 123.2,258.6 123.4,260.1 123.7,260.1 123.9,259.7 124.2,260.6 124.4,255.3 124.7,253.7 124.9,256.5 125.2,253.9 125.4,254.3 125.7,254.1 125.9,251.9 126.2,253.4 126.4,251.5 126.7,252.4 126.9,251.3 127.2,250.1 127.4,251.3 127.7,250.0 128.0,250.1 128.2,251.0 128.5,253.5 128.7,254.3 129.0,255.4 129.2,255.0 129.5,253.8 129.7,254.7 130.0,245.8 130.2,243.2 130.5,246.6 130.7,250.7 131.0,252.8 131.2,253.4 131.5,254.2 131.7,253.4 132.0,252.1 132.2,252.0 132.5,250.8 132.7,252.1 133.0,258.2 133.3,258.0 133.5,257.0 133.8,257.5 134.0,257.5 134.3,256.8 134.5,253.0 134.8,254.2 135.0,245.5 135.3,250.8 135.5,252.2 135.8,254.5 136.0,248.2 136.3,246.2 136.5,248.8 136.8,249.6 137.0,248.8 137.3,250.7 137.5,251.3 137.8,253.9 138.0,259.4 138.3,257.5 138.5,257.2 138.8,259.4 139.1,260.0 139.3,262.5 139.6,265.4 139.8,265.4 140.1,261.2 140.3,255.9 140.6,252.1 140.8,248.0 141.1,246.2 141.3,251.1 141.6,253.0 141.8,241.1 142.1,248.5 142.3,248.0 142.6,251.5 142.8,258.4 143.1,259.0 143.3,256.8 143.6,263.8 143.8,269.8 144.1,264.7 144.4,257.5 144.6,260.3 144.9,258.7 145.1,258.0 145.4,259.6 145.6,256.9 145.9,259.1 146.1,262.8 146.4,263.2 146.6,267.2 146.9,265.8 147.1,266.0 147.4,272.1 147.6,283.4 147.9,279.2 148.1,277.6 148.4,277.9 148.6,277.0 148.9,277.6 149.1,275.8 149.4,276.8 149.6,279.0 149.9,265.5 150.2,270.8 150.4,270.5 150.7,270.3 150.9,266.9 151.2,265.8 151.4,264.0 151.7,259.7 151.9,260.3 152.2,261.4 152.4,260.7 152.7,254.1 152.9,241.9 153.2,245.3 153.4,246.3 153.7,250.7 153.9,251.7 154.2,248.2 154.4,247.5 154.7,245.6 154.9,246.0 155.2,244.9 155.5,246.0 155.7,247.7 156.0,248.0 156.2,252.1 156.5,252.9 156.7,258.6 157.0,258.3 157.2,255.1 157.5,249.6 157.7,249.0 158.0,251.0 158.2,243.4 158.5,244.6 158.7,245.5 159.0,244.7 159.2,235.4 159.5,236.6 159.7,233.1 160.0,223.8 160.2,219.5 160.5,228.2 160.7,229.7 161.0,232.6 161.3,227.0 161.5,214.3 161.8,203.5 162.0,206.4 162.3,193.2 162.5,196.3 162.8,201.6 163.0,211.7 163.3,208.1 163.5,219.6 163.8,218.5 164.0,219.3 164.3,212.6 164.5,211.1 164.8,210.6 165.0,215.3 165.3,218.9 165.5,210.8 165.8,211.5 166.0,215.1 166.3,215.3 166.6,213.3 166.8,216.3 167.1,219.0 167.3,220.7 167.6,221.2 167.8,221.7 168.1,227.4 168.3,233.6 168.6,230.5 168.8,234.1 169.1,233.8 169.3,231.3 169.6,231.6 169.8,235.1 170.1,234.2 170.3,243.2 170.6,238.1 170.8,234.1 171.1,231.4 171.3,231.5 171.6,226.5 171.8,226.7 172.1,231.0 172.4,224.8 172.6,226.8 172.9,229.4 173.1,229.4 173.4,228.1 173.6,229.8 173.9,228.1 174.1,230.2 174.4,233.5 174.6,234.3 174.9,235.2 175.1,236.5 175.4,235.4 175.6,238.1 175.9,239.0 176.1,241.5 176.4,238.9 176.6,239.6 176.9,239.7 177.1,244.6 177.4,244.6 177.7,245.6 177.9,245.6 178.2,243.9 178.4,243.7 178.7,241.3 178.9,240.7 179.2,239.7 179.4,241.2 179.7,242.9 179.9,243.2 180.2,242.8 180.4,241.2 180.7,241.9 180.9,242.0 181.2,243.4 181.4,242.1 181.7,241.9 181.9,242.6 182.2,241.8 182.4,240.7 182.7,236.3 183.0,236.4 183.2,234.6 183.5,234.7 183.7,232.0 184.0,234.3 184.2,233.9 184.5,237.9 184.7,238.3 185.0,238.4 185.2,238.5 185.5,237.7 185.7,237.3 186.0,235.8 186.2,234.0 186.5,229.3 186.7,228.7 187.0,230.4 187.2,229.3 187.5,229.4 187.7,228.1 188.0,228.2 188.2,226.4 188.5,229.6 188.8,231.9 189.0,233.6 189.3,233.7 189.5,232.7 189.8,231.3 190.0,230.4 190.3,229.6 190.5,231.4 190.8,231.0 191.0,232.2 191.3,231.6 191.5,233.0 191.8,233.9 192.0,234.7 192.3,235.2 192.5,237.8 192.8,240.9 193.0,239.6 193.3,239.5 193.5,244.3 193.8,242.3 194.1,244.1 194.3,237.9 194.6,238.1 194.8,237.3 195.1,235.8 195.3,237.5 195.6,234.8 195.8,236.8 196.1,237.6 196.3,239.8 196.6,239.1 196.8,239.3 197.1,239.6 197.3,240.1 197.6,240.9 197.8,241.3 198.1,241.7 198.3,240.3 198.6,240.3 198.8,239.5 199.1,238.9 199.3,239.2 199.6,239.3 199.9,239.9 200.1,241.7 200.4,242.4 200.6,242.4 200.9,243.1 201.1,243.2 201.4,239.7 201.6,235.9 201.9,237.6 202.1,238.7 202.4,237.6 202.6,235.3 202.9,230.6 203.1,231.5 203.4,230.2 203.6,232.0 203.9,233.4 204.1,231.9 204.4,232.4 204.6,235.2 204.9,234.5 205.2,235.0 205.4,235.9 205.7,234.6 205.9,235.6 206.2,234.4 206.4,234.1 206.7,228.2 206.9,227.3 207.2,228.5 207.4,225.9 207.7,222.3 207.9,220.5 208.2,221.4 208.4,222.5 208.7,219.4 208.9,222.9 209.2,223.5 209.4,222.1 209.7,226.0 209.9,227.2 210.2,226.6 210.4,224.2 210.7,222.3 211.0,224.0 211.2,217.3 211.5,217.9 211.7,215.2 212.0,216.9 212.2,214.1 212.5,215.6 212.7,216.7 213.0,216.0 213.2,212.3 213.5,213.6 213.7,215.0 214.0,212.7 214.2,213.3 214.5,217.7 214.7,217.7 215.0,222.1 215.2,221.7 215.5,222.3 215.7,217.1 216.0,218.8 216.3,218.7 216.5,220.1 216.8,223.0 217.0,223.8 217.3,219.7 217.5,221.9 217.8,221.1 218.0,223.6 218.3,227.2 218.5,225.6 218.8,230.4 219.0,229.5 219.3,228.6 219.5,232.9 219.8,236.5 220.0,234.4 220.3,235.4 220.5,232.9 220.8,232.9 221.0,231.0 221.3,232.1 221.5,232.7 221.8,233.1 222.1,232.1 222.3,229.1 222.6,229.4 222.8,229.9 223.1,230.0 223.3,229.1 223.6,226.3 223.8,224.4 224.1,225.0 224.3,225.3 224.6,224.0 224.8,227.2 225.1,224.9 225.3,226.6 225.6,227.1 225.8,227.5 226.1,226.1 226.3,225.3 226.6,220.7 226.8,221.9 227.1,223.4 227.4,224.9 227.6,226.2 227.9,226.0 228.1,221.8 228.4,224.3 228.6,224.4 228.9,226.6 229.1,227.2 229.4,227.6 229.6,228.8 229.9,229.7 230.1,230.5 230.4,228.3 230.6,230.1 230.9,229.6 231.1,228.6 231.4,228.9 231.6,228.5 231.9,228.1 232.1,229.2 232.4,227.5 232.7,224.0 232.9,226.3 233.2,222.2 233.4,224.4 233.7,226.7 233.9,229.1 234.2,229.2 234.4,230.3 234.7,229.8 234.9,229.2 235.2,228.8 235.4,228.6 235.7,229.3 235.9,229.8 236.2,229.8 236.4,230.5 236.7,231.9 236.9,231.8 237.2,231.6 237.4,231.8 237.7,230.4 237.9,229.4 238.2,230.4 238.5,231.7 238.7,232.7 239.0,235.6 239.2,234.3 239.5,235.9 239.7,234.9 240.0,235.7 240.2,234.5 240.5,235.1 240.7,237.0 241.0,237.0 241.2,237.6 241.5,237.9 241.7,235.1 242.0,235.3 242.2,235.9 242.5,237.8 242.7,238.1 243.0,237.3 243.2,237.0 243.5,237.5 243.8,237.0 244.0,237.2 244.3,237.7 244.5,238.2 244.8,236.1 245.0,237.2 245.3,240.7 245.5,241.1 245.8,244.2 246.0,245.9 246.3,244.3 246.5,242.1 246.8,243.0 247.0,245.0 247.3,243.9 247.5,243.9 247.8,240.2 248.0,239.1 248.3,239.8 248.5,243.2 248.8,243.1 249.0,244.2 249.3,242.0 249.6,237.2 249.8,237.2 250.1,229.6 250.3,231.4 250.6,232.9 250.8,235.2 251.1,233.0 251.3,233.0 251.6,233.8 251.8,234.3 252.1,234.2 252.3,235.7 252.6,236.2 252.8,234.7 253.1,235.9 253.3,236.5 253.6,234.9 253.8,234.0 254.1,234.6 254.3,235.4 254.6,236.4 254.9,235.7 255.1,234.4 255.4,235.2 255.6,235.4 255.9,233.9 256.1,233.9 256.4,235.7 256.6,236.4 256.9,236.2 257.1,237.7 257.4,236.2 257.6,239.7 257.9,242.1 258.1,242.1 258.4,241.2 258.6,240.9 258.9,239.2 259.1,240.2 259.4,240.0 259.6,240.0 259.9,239.7 260.1,237.6 260.4,237.4 260.7,237.0 260.9,238.9 261.2,240.1 261.4,241.4 261.7,243.1 261.9,243.2 262.2,241.4 262.4,239.8 262.7,238.1 262.9,237.7 263.2,238.3 263.4,239.0 263.7,240.3 263.9,238.5 264.2,233.9 264.4,236.9 264.7,238.3 264.9,236.9 265.2,236.6 265.4,236.8 265.7,235.5 266.0,237.5 266.2,237.4 266.5,237.4 266.7,237.4 267.0,237.4 267.2,236.5 267.5,236.6 267.7,236.6 268.0,236.3 268.2,235.0 268.5,232.6 268.7,233.7 269.0,232.9 269.2,234.5 269.5,235.8 269.7,237.3 270.0,237.9 270.2,236.2 270.5,236.8 270.7,235.8 271.0,235.9 271.2,236.5 271.5,237.0 271.8,237.8 272.0,238.5 272.3,238.3 272.5,238.7 272.8,241.8 273.0,251.1 273.3,251.5 273.5,248.1 273.8,249.2 274.0,249.2 274.3,248.7 274.5,250.7 274.8,246.2 275.0,246.5 275.3,245.5 275.5,245.5 275.8,246.6 276.0,247.4 276.3,246.9 276.5,246.4 276.8,245.6 277.1,245.2 277.3,246.3 277.6,248.0 277.8,251.0 278.1,249.0 278.3,248.8 278.6,248.5 278.8,247.5 279.1,247.4 279.3,246.8 279.6,245.7 279.8,245.7 280.1,245.1 280.3,246.0 280.6,248.1 280.8,248.1 281.1,247.4 281.3,250.7 281.6,252.5 281.8,251.7 282.1,249.0 282.3,248.7 282.6,248.7 282.9,247.9 283.1,245.3 283.4,241.1 283.6,241.4 283.9,239.1 284.1,238.6 284.4,241.0 284.6,243.7 284.9,241.8 285.1,238.9 285.4,241.8 285.6,242.0 285.9,239.5 286.1,241.0 286.4,241.4 286.6,242.1 286.9,242.7 287.1,242.4 287.4,243.0 287.6,244.9 287.9,244.9 288.2,244.5 288.4,246.6 288.7,246.6 288.9,246.6 289.2,247.2 289.4,245.1 289.7,244.2 289.9,243.2 290.2,244.1 290.4,241.0 290.7,243.1 290.9,243.4 291.2,241.8 291.4,243.9 291.7,242.3 291.9,242.1 292.2,241.1 292.4,239.6 292.7,240.4 292.9,239.3 293.2,244.2 293.5,245.2 293.7,245.7 294.0,245.9 294.2,246.3 294.5,246.6 294.7,247.6 295.0,246.3 295.2,246.5 295.5,246.5 295.7,245.3 296.0,245.2 296.2,246.0 296.5,243.8 296.7,244.5 297.0,246.0 297.2,246.2 297.5,246.5 297.7,247.2 298.0,249.0 298.2,248.2 298.5,249.0 298.7,250.3 299.0,248.6 299.3,249.6 299.5,250.0 299.8,250.3 300.0,253.0 300.3,250.6 300.5,238.9 300.8,228.8 301.0,224.0 301.3,221.1 301.5,221.0 301.8,221.0 302.0,221.8 302.3,221.4 302.5,218.9 302.8,214.6 303.0,217.6 303.3,211.6 303.5,212.6 303.8,224.3 304.0,222.3 304.3,225.7 304.6,222.7 304.8,225.2 305.1,223.4 305.3,223.3 305.6,226.2 305.8,227.0 306.1,230.8 306.3,227.3 306.6,229.0 306.8,232.6 307.1,234.4 307.3,234.2 307.6,236.5 307.8,234.1 308.1,228.4 308.3,227.6 308.6,218.7 308.8,216.8 309.1,216.8 309.3,215.3 309.6,216.8 309.8,217.1 310.1,208.7 310.4,205.7 310.6,210.8 310.9,208.4 311.1,206.5 311.4,209.8 311.6,208.6 311.9,203.0 312.1,200.9 312.4,204.4 312.6,206.1 312.9,201.7 313.1,201.7 313.4,204.2 313.6,206.5 313.9,207.5 314.1,206.0 314.4,206.0 314.6,207.0 314.9,199.9 315.1,195.4 315.4,192.0 315.7,194.1 315.9,197.2 316.2,196.3 316.4,197.2 316.7,197.6 316.9,197.6 317.2,199.4 317.4,198.5 317.7,209.9 317.9,204.1 318.2,210.4 318.4,208.7 318.7,205.5 318.9,206.8 319.2,207.9 319.4,206.6 319.7,210.8 319.9,212.7 320.2,217.9 320.4,218.7 320.7,221.5 320.9,216.3 321.2,215.0 321.5,216.8 321.7,212.6 322.0,214.0 322.2,216.5 322.5,214.0 322.7,211.4 323.0,213.5 323.2,226.0 323.5,225.2 323.7,228.6 324.0,227.3 324.2,227.9 324.5,226.1 324.7,228.2 325.0,229.0 325.2,229.1 325.5,229.1 325.7,226.8 326.0,227.7 326.2,225.1 326.5,227.2 326.8,227.6 327.0,225.8 327.3,227.5 327.5,228.4 327.8,232.5 328.0,231.3 328.3,234.8 328.5,235.3 328.8,232.1 329.0,232.7 329.3,236.2 329.5,238.7 329.8,241.3 330.0,239.5 330.3,242.0 330.5,245.2 330.8,245.2 331.0,252.5 331.3,249.2 331.5,245.1 331.8,247.9 332.0,247.9 332.3,247.7 332.6,244.7 332.8,237.3 333.1,238.1 333.3,239.8 333.6,239.8 333.8,236.6 334.1,237.8 334.3,232.7 334.6,234.8 334.8,237.3 335.1,234.3 335.3,234.7 335.6,235.1 335.8,234.8 336.1,236.2 336.3,235.3 336.6,237.9 336.8,234.7 337.1,234.7 337.3,231.7 337.6,234.5 337.9,234.7 338.1,236.2 338.4,238.9 338.6,237.8 338.9,235.9 339.1,237.6 339.4,239.3 339.6,237.5 339.9,237.6 340.1,238.3 340.4,239.2 340.6,237.5 340.9,237.3 341.1,237.7 341.4,235.1 341.6,236.7 341.9,234.1 342.1,233.5 342.4,234.0 342.6,236.3 342.9,237.4 343.2,241.4 343.4,242.2 343.7,240.7 343.9,240.4 344.2,240.3 344.4,239.5 344.7,238.7 344.9,239.9 345.2,238.8 345.4,239.7 345.7,242.3 345.9,243.0 346.2,241.7 346.4,239.8 346.7,239.8 346.9,239.9 347.2,241.7 347.4,240.9 347.7,240.7 347.9,240.8 348.2,240.3 348.4,240.9 348.7,241.8 349.0,242.3 349.2,243.7 349.5,242.4 349.7,241.7 350.0,242.3 350.2,243.7 350.5,244.7 350.7,245.2 351.0,245.9 351.2,244.3 351.5,243.1 351.7,242.9 352.0,243.2 352.2,243.4 352.5,244.3 352.7,243.4 353.0,240.8 353.2,240.9 353.5,240.7 353.7,248.3 354.0,247.9 354.3,247.4 354.5,250.7 354.8,246.8 355.0,249.1 355.3,249.6 355.5,249.3 355.8,246.6 356.0,247.6 356.3,248.3 356.5,249.7 356.8,254.3 357.0,253.8 357.3,251.0 357.5,252.4 357.8,251.3 358.0,249.2 358.3,249.0 358.5,249.5 358.8,251.0 359.0,250.5 359.3,249.5 359.5,250.5 359.8,249.2 360.1,246.4 360.3,249.3 360.6,247.6 360.8,248.6 361.1,250.5 361.3,249.2 361.6,249.1 361.8,246.8 362.1,246.0 362.3,246.6 362.6,245.5 362.8,244.3 363.1,245.8 363.3,246.8 363.6,244.5 363.8,243.9 364.1,245.7 364.3,246.3 364.6,246.9 364.8,248.6 365.1,248.5 365.4,249.0 365.6,247.7 365.9,248.6 366.1,247.6 366.4,247.1 366.6,247.4 366.9,246.9 367.1,247.7 367.4,246.6 367.6,248.0 367.9,249.7 368.1,251.6 368.4,251.1 368.6,250.1 368.9,250.1 369.1,257.7 369.4,257.2 369.6,257.9 369.9,258.9 370.1,258.0 370.4,256.8 370.6,256.5 370.9,258.4 371.2,258.7 371.4,257.6 371.7,259.0 371.9,259.3 372.2,261.4 372.4,259.4 372.7,260.0 372.9,260.4 373.2,260.1 373.4,257.9 373.7,256.4 373.9,253.4 374.2,251.2 374.4,252.2 374.7,251.9 374.9,252.6 375.2,247.0 375.4,252.8 375.7,253.2 375.9,253.7 376.2,254.1 376.5,254.3 376.7,253.3 377.0,255.0 377.2,257.3 377.5,256.8 377.7,256.2 378.0,257.7 378.2,257.3 378.5,256.6 378.7,255.4 379.0,256.2 379.2,258.0 379.5,258.0 379.7,256.8 380.0,257.3 380.2,257.5 380.5,257.0 380.7,256.4 381.0,256.1 381.2,254.7 381.5,253.7 381.7,252.9 382.0,253.2 382.3,253.8 382.5,254.1 382.8,253.3 383.0,253.9 383.3,253.3 383.5,252.0 383.8,253.2 384.0,253.2 384.3,253.0 384.5,253.8 384.8,254.3 385.0,252.0 385.3,249.2 385.5,248.7 385.8,248.6 386.0,249.3 386.3,249.2 386.5,247.9 386.8,247.7 387.0,247.1 387.3,248.1 387.6,248.1 387.8,246.9 388.1,246.3 388.3,246.6 388.6,246.4 388.8,245.1 389.1,245.5 389.3,245.9 389.6,243.0 389.8,244.4 390.1,245.9 390.3,244.5 390.6,241.8 390.8,243.7 391.1,245.0 391.3,244.3 391.6,246.9 391.8,245.8 392.1,245.3 392.3,243.8 392.6,244.6 392.9,246.6 393.1,247.7 393.4,247.0 393.6,249.3 393.9,246.5 394.1,246.5 394.4,247.0 394.6,245.8 394.9,242.3 395.1,244.2 395.4,241.8 395.6,243.4 395.9,244.2 396.1,245.8 396.4,246.5 396.6,249.8 396.9,248.2 397.1,250.3 397.4,253.9 397.6,252.6 397.9,253.3 398.1,252.5 398.4,252.4 398.7,252.4 398.9,253.2 399.2,253.5 399.4,252.8 399.7,250.2 399.9,253.5 400.2,259.1 400.4,259.0 400.7,256.9 400.9,258.3 401.2,258.4 401.4,262.0 401.7,262.6 401.9,264.3 402.2,271.6 402.4,268.7 402.7,268.7 402.9,269.5 403.2,270.5 403.4,275.6 403.7,284.8 404.0,281.9 404.2,286.4 404.5,289.8 404.7,300.4 405.0,299.4 405.2,294.0 405.5,295.3 405.7,300.9 406.0,297.2 406.2,291.1 406.5,287.3 406.7,292.6 407.0,292.6 407.2,290.4 407.5,289.1 407.7,282.4 408.0,274.9 408.2,283.6 408.5,282.1 408.7,278.5 409.0,277.4 409.2,279.6 409.5,280.3 409.8,280.1 410.0,276.7 410.3,278.8 410.5,278.5 410.8,277.7 411.0,274.2 411.3,277.4 411.5,280.9 411.8,275.6 412.0,271.8 412.3,271.1 412.5,262.8 412.8,262.8 413.0,264.3 413.3,263.1 413.5,264.9 413.8,262.6 414.0,260.6 414.3,261.2 414.5,263.5 414.8,263.5 415.1,261.7 415.3,262.2 415.6,258.6 415.8,258.7 416.1,257.5 416.3,254.1 416.6,250.7 416.8,243.6 417.1,246.6 417.3,244.4 417.6,233.6 417.8,235.6 418.1,239.3 418.3,237.0 418.6,240.9 418.8,236.6 419.1,237.0 419.3,234.4 419.6,228.7 419.8,226.3 420.1,234.6 420.3,226.3 420.6,229.9 420.9,227.2 421.1,229.0 421.4,230.8 421.6,232.1 421.9,231.2 422.1,235.4 422.4,241.4 422.6,246.8 422.9,245.2 423.1,246.8 423.4,252.0 423.6,251.0 423.9,247.6 424.1,249.3 424.4,246.5 424.6,248.2 424.9,245.3 425.1,241.5 425.4,246.6 425.6,246.2 425.9,249.3 426.2,251.6 426.4,250.2 426.7,249.5 426.9,249.2 427.2,250.2 427.4,251.6 427.7,254.9 427.9,254.3 428.2,257.5 428.4,254.3 428.7,253.2 428.9,252.2 429.2,252.9 429.4,254.3 429.7,254.1 429.9,253.5 430.2,252.5 430.4,250.7 430.7,242.9 430.9,243.0 431.2,239.0 431.4,244.2 431.7,241.7 432.0,242.7 432.2,243.9 432.5,244.5 432.7,246.3 433.0,250.3 433.2,247.4 433.5,246.0 433.7,246.8 434.0,245.9 434.2,248.0 434.5,250.2 434.7,247.9 435.0,248.5 435.2,249.8 435.5,249.0 435.7,247.6 436.0,247.2 436.2,245.0 436.5,247.1 436.7,245.5 437.0,244.2 437.3,245.0 437.5,245.5 437.8,246.6 438.0,244.3 438.3,252.0 438.5,257.9 438.8,255.8 439.0,253.5 439.3,252.2 439.5,250.7 439.8,250.6 440.0,251.2 440.3,251.2 440.5,252.8 440.8,255.1 441.0,255.7 441.3,254.5 441.5,255.3 441.8,255.4 442.0,258.7 442.3,258.4 442.6,262.6 442.8,261.0 443.1,262.3 443.3,261.0 443.6,264.1 443.8,262.8 444.1,260.9 444.3,259.1 444.6,260.9 444.8,260.0 445.1,261.2 445.3,260.0 445.6,258.4 445.8,260.3 446.1,260.6 446.3,263.8 446.6,264.7 446.8,264.6 447.1,263.7 447.3,261.6 447.6,263.1 447.8,261.7 448.1,260.3 448.4,260.6 448.6,258.6 448.9,258.7 449.1,258.9 449.4,260.1 449.6,262.0 449.9,260.1 450.1,262.2 450.4,264.4 450.6,263.8 450.9,263.8 451.1,266.1 451.4,267.9 451.6,269.0 451.9,270.6 452.1,270.8 452.4,275.1 452.6,272.8 452.9,272.8 453.1,273.8 453.4,276.5 453.7,273.5 453.9,271.8 454.2,273.0 454.4,273.7 454.7,272.1 454.9,273.0 455.2,272.1 455.4,272.3 455.7,272.0 455.9,273.7 456.2,274.2 456.4,269.5 456.7,269.6 456.9,269.3 457.2,268.7 457.4,267.7 457.7,264.0 457.9,266.8 458.2,269.3 458.4,269.1 458.7,270.6 458.9,271.3 459.2,269.1 459.5,268.5 459.7,268.5 460.0,267.5 460.2,267.1 460.5,267.1 460.7,267.1 461.0,267.9 461.2,265.0 461.5,263.7 461.7,261.4 462.0,263.4 462.2,265.0 462.5,262.8 462.7,261.3 463.0,262.3 463.2,261.9 463.5,262.2 463.7,264.4 464.0,264.1 464.2,266.9 464.5,267.5 464.8,268.0 465.0,266.9 465.3,267.5 465.5,267.1 465.8,264.9 466.0,265.8 466.3,266.9 466.5,266.1 466.8,267.4 467.0,266.4 467.3,266.4 467.5,267.7 467.8,270.5 468.0,271.3 468.3,270.1 468.5,270.8 468.8,270.6 469.0,268.8 469.3,268.3 469.5,267.1 469.8,265.0 470.0,264.9 470.3,265.0 470.6,266.6 470.8,265.4 471.1,266.1 471.3,267.5 471.6,266.3 471.8,266.9 472.1,267.5 472.3,267.9 472.6,268.7 472.8,271.1 473.1,269.5 473.3,269.5 473.6,269.5 473.8,269.8 474.1,270.6 474.3,271.1 474.6,271.3 474.8,271.5 475.1,271.6 475.3,273.3 475.6,275.2 475.9,275.9 476.1,274.5 476.4,277.7 476.6,272.5 476.9,273.5 477.1,272.0 477.4,272.1 477.6,274.0 477.9,274.0 478.1,274.9 478.4,275.9 478.6,276.3 478.9,276.5 479.1,275.6 479.4,275.2 479.6,276.1 479.9,277.0 480.1,276.1 480.4,275.8 480.6,274.4 480.9,274.7 481.1,275.8 481.4,275.2 481.7,274.9 481.9,275.8 482.2,275.9 482.4,276.5 482.7,277.7 482.9,277.4 483.2,277.0 483.4,277.6 483.7,277.4 483.9,276.8 484.2,277.0 484.4,277.2 484.7,277.2 484.9,277.0 485.2,277.4 485.4,276.8 485.7,277.0 485.9,278.3 486.2,278.1 486.4,278.1 486.7,277.7 487.0,278.5 487.2,278.8 487.5,278.1 487.7,279.0 488.0,279.6 488.2,279.4 488.5,280.7 488.7,280.3 489.0,284.2 489.2,284.8 489.5,286.6 489.7,286.6 490.0,287.0 490.2,286.4 490.5,286.4 490.7,287.0 491.0,286.0 491.2,283.2 491.5,284.2 491.7,283.0 492.0,288.3 492.3,293.7 492.5,290.2 492.8,292.6 493.0,291.7 493.3,291.7 493.5,289.1 493.8,290.0 494.0,289.4 494.3,288.9 494.5,288.3 494.8,286.4 495.0,282.2 495.3,276.1 495.5,278.1 495.8,279.2 496.0,279.4 496.3,275.2 496.5,278.1 496.8,278.1 497.0,279.0 497.3,278.8 497.5,279.6 497.8,281.9 498.1,281.1 498.3,283.6 498.6,284.4 498.8,281.7 499.1,280.9 499.3,280.0 499.6,280.5 499.8,282.2 500.1,283.6 500.3,285.8 500.6,287.5 500.8,287.9 501.1,287.5 501.3,286.2 501.6,285.8 501.8,286.6 502.1,287.0 502.3,286.6 502.6,284.8 502.8,284.4 503.1,283.8 503.4,285.4 503.6,286.6 503.9,288.3 504.1,288.5 504.4,287.9 504.6,288.9 504.9,288.5 505.1,289.1 505.4,289.1 505.6,287.5 505.9,287.0 506.1,288.1 506.4,288.1 506.6,289.4 506.9,290.4 507.1,291.1 507.4,290.0 507.6,290.0 507.9,289.6 508.1,290.9 508.4,289.4 508.6,290.2 508.9,284.8 509.2,284.2 509.4,282.1 509.7,280.7 509.9,286.2 510.2,286.4 510.4,283.2 510.7,282.2 510.9,281.3 511.2,281.9 511.4,283.0 511.7,283.6 511.9,284.6 512.2,286.0 512.4,288.3 512.7,290.9 512.9,291.3 513.2,287.9 513.4,289.6 513.7,290.6 513.9,291.7 514.2,290.9 514.5,291.1 514.7,291.1 515.0,293.5 515.2,293.3 515.5,290.9 515.7,290.9 516.0,289.1 516.2,290.0 516.5,292.4 516.7,292.0 517.0,291.5 517.2,292.2 517.5,292.4 517.7,292.2 518.0,293.5 518.2,293.5 518.5,294.7 518.7,293.3 519.0,291.5 519.2,292.4 519.5,293.5 519.7,293.1 520.0,294.7 520.3,294.9 520.5,294.9 520.8,293.1 521.0,292.4 521.3,295.3 521.5,297.7 521.8,298.4 522.0,298.9 522.3,298.4 522.5,297.7 522.8,298.4 523.0,298.9 523.3,299.1 523.5,299.1 523.8,299.6 524.0,301.1 524.3,303.1 524.5,305.5 524.8,302.6 525.0,300.6 525.3,299.6 525.6,300.4 525.8,300.1 526.1,301.6 526.3,304.7 526.6,305.2 526.8,305.2 527.1,303.4 527.3,303.9 527.6,303.9 527.8,304.2 528.1,303.4 528.3,301.4 528.6,300.4 528.8,300.4 529.1,299.1 529.3,299.1 529.6,298.7 529.8,297.9 530.1,298.2 530.3,298.4 530.6,297.2 530.8,297.5 531.1,296.3 531.4,294.7 531.6,295.3 531.9,297.0 532.1,297.0 532.4,299.4 532.6,299.6 532.9,297.9 533.1,297.0 533.4,298.4 533.6,299.9 533.9,299.4 534.1,297.2 534.4,295.6 534.6,294.4 534.9,294.9 535.1,295.8 535.4,295.8 535.6,296.7 535.9,299.1 536.1,298.9 536.4,298.2 536.7,300.4 536.9,297.9 537.2,301.1 537.4,299.1 537.7,301.4 537.9,303.4 538.2,302.9 538.4,303.9 538.7,302.9 538.9,302.4 539.2,303.7 539.4,302.6 539.7,302.6 539.9,302.6 540.2,302.1 540.4,301.9 540.7,301.9 540.9,301.4 541.2,302.4 541.4,302.1 541.7,301.9 542.0,301.6 542.2,301.9 542.5,301.9 542.7,303.1 543.0,302.6 543.2,303.9 543.5,303.4 543.7,303.9 544.0,304.2 544.2,303.9 544.5,304.4 544.7,304.2 545.0,304.4 545.2,304.7 545.5,304.4 545.7,305.7 546.0,305.2 546.2,306.0 546.5,306.0 546.7,304.4 547.0,305.5 547.2,305.0 547.5,305.5 547.8,305.5 548.0,306.0 548.3,306.0 548.5,305.5 548.8,305.5 549.0,306.0 549.3,304.4 549.5,304.2 549.8,304.4 550.0,304.2 550.3,304.2 550.5,304.7 550.8,305.0 551.0,304.7 551.3,304.2 551.5,305.0 551.8,304.7 552.0,304.7 552.3,304.7 552.5,304.7 552.8,305.0 553.1,304.7 553.3,305.2 553.6,305.2 553.8,304.7 554.1,305.0 554.3,304.7 554.6,303.7 554.8,304.7 555.1,304.7 555.3,303.9 555.6,303.9 555.8,304.4 556.1,304.7 556.3,303.9 556.6,304.7 556.8,305.2 557.1,305.2 557.3,305.2 557.6,303.7 557.8,303.9 558.1,305.0 558.3,304.7 558.6,305.0 558.9,304.7 559.1,305.2 559.4,305.2 559.6,305.5 559.9,306.0 560.1,305.5 560.4,306.0 560.6,306.5 560.9,306.3 561.1,307.6 561.4,307.6 561.6,308.2 561.9,307.4 562.1,308.2 562.4,307.9 562.6,308.5 562.9,308.5 563.1,308.7 563.4,309.0 563.6,309.0 563.9,309.6 564.2,309.6 564.4,307.1 564.7,305.7 564.9,306.3 565.2,306.3 565.4,308.2 565.7,307.9 565.9,307.4 566.2,308.5 566.4,308.7 566.7,308.5 566.9,308.5 567.2,308.5 567.4,307.9 567.7,308.7 567.9,308.2 568.2,308.2 568.4,307.6 568.7,307.9 568.9,308.7 569.2,309.0 569.4,309.0 569.7,309.0 570.0,308.7 570.2,308.5 570.5,308.5 570.7,307.9 571.0,308.2 571.2,309.0 571.5,309.0 571.7,308.7 572.0,308.7 572.2,309.6 572.5,309.6 572.7,309.8 573.0,309.8 573.2,309.3 573.5,309.6 573.7,309.8 574.0,311.6 574.2,311.3 574.5,311.0 574.7,311.8 575.0,312.1 575.3,313.0 575.5,313.3 575.8,313.3 576.0,315.4 576.3,315.4 576.5,315.7 576.8,316.9 577.0,316.6 577.3,316.0 577.5,316.6 577.8,317.2 578.0,317.2 578.3,316.9 578.5,316.3 578.8,316.3 579.0,316.6 579.3,316.3 579.5,317.5 579.8,316.6 580.0,317.2 580.3,316.0 580.5,315.7 580.8,314.8 581.1,314.8 581.3,314.2 581.6,314.8 581.8,313.6 582.1,314.2 582.3,314.8 582.6,313.9 582.8,315.1 583.1,315.1 583.3,314.5 583.6,313.9 583.8,313.6 584.1,313.6 584.3,316.0 584.6,315.4 584.8,317.2 585.1,317.2 585.3,317.5 585.6,317.2 585.8,316.6 586.1,316.9 586.4,316.9 586.6,316.9 586.9,315.4 587.1,314.8 587.4,314.8 587.6,314.5 587.9,313.6 588.1,314.5 588.4,313.3 588.6,313.3 588.9,313.6 589.1,314.2 589.4,315.1 589.6,315.1 589.9,315.4 590.1,315.4 590.4,315.4 590.6,315.4 590.9,315.4 591.1,315.4 591.4,315.1 591.7,311.0 591.9,309.0 592.2,309.0 592.4,310.4 592.7,309.6 592.9,308.5 593.2,308.7 593.4,309.6 593.7,310.1 593.9,310.4 594.2,311.0 594.4,310.7 594.7,311.0 594.9,311.3 595.2,310.1 595.4,309.3 595.7,309.8 595.9,310.4 596.2,310.4 596.4,309.8 596.7,309.3 596.9,309.8 597.2,308.2 597.5,308.2 597.7,307.4 598.0,307.6 598.2,306.8 598.5,307.6 598.7,307.6 599.0,306.8 599.2,306.8 599.5,305.7 599.7,304.2 600.0,304.4 600.2,306.0 600.5,305.5 600.7,305.2 601.0,305.5 601.2,306.3 601.5,305.2 601.7,305.5 602.0,302.9 602.2,302.9 602.5,302.4 602.8,302.4 603.0,297.0 603.3,299.6 603.5,300.6 603.8,301.6 604.0,297.5 604.3,299.9 604.5,299.6 604.8,299.1 605.0,299.4 605.3,301.1 605.5,296.0 605.8,294.0 606.0,277.7 606.3,278.7 606.5,279.2 606.8,282.1 607.0,286.4 607.3,287.9 607.5,287.9 607.8,281.7 608.0,281.9 608.3,281.7 608.6,282.8 608.8,285.6 609.1,287.7 609.3,286.8 609.6,288.5 609.8,287.3 610.1,292.0 610.3,291.1 610.6,291.7 610.8,291.7 611.1,290.9 611.3,290.0 611.6,291.7 611.8,292.4 612.1,292.6 612.3,292.6 612.6,292.0 612.8,292.6 613.1,292.2 613.3,292.4 613.6,294.2 613.9,294.2 614.1,295.1 614.4,294.7 614.6,294.9 614.9,295.6 615.1,296.3 615.4,297.7 615.6,301.6 615.9,303.1 616.1,304.2 616.4,303.4 616.6,301.9 616.9,301.9 617.1,300.6 617.4,300.4 617.6,298.4 617.9,299.6 618.1,297.2 618.4,296.7 618.6,297.2 618.9,296.5 619.1,297.5 619.4,297.7 619.7,298.2 619.9,299.4 620.2,298.9 620.4,297.7 620.7,297.0 620.9,297.5 621.2,298.2 621.4,298.9 621.7,299.1 621.9,299.6 622.2,299.4 622.4,298.4 622.7,298.7 622.9,298.9 623.2,296.5 623.4,296.5 623.7,296.0 623.9,294.4 624.2,299.1 624.4,298.7 624.7,297.9 625.0,297.7 625.2,298.2 625.5,298.9 625.7,300.1 626.0,300.6 626.2,302.6 626.5,300.6 626.7,301.4 627.0,300.4 627.2,301.4 627.5,302.9 627.7,303.1 628.0,303.4 628.2,303.1 628.5,303.7 628.7,304.2 629.0,304.7 629.2,305.0 629.5,304.2 629.7,302.9 630.0,303.4 630.2,305.2 630.5,304.4 630.8,304.2 631.0,302.6 631.3,304.2 631.5,306.8 631.8,305.7 632.0,306.5 632.3,305.5 632.5,305.0 632.8,305.0 633.0,304.7 633.3,305.7 633.5,306.5 633.8,306.3 634.0,307.6 634.3,307.1 634.5,306.8 634.8,308.7 635.0,309.0 635.3,308.5 635.5,308.7 635.8,309.0 636.1,309.6 636.3,309.6 636.6,310.1 636.8,311.0 637.1,307.1 637.3,309.6 637.6,309.8 637.8,311.6 638.1,310.7 638.3,312.4 638.6,313.0 638.8,300.1 639.1,296.0 639.3,290.2 639.6,287.9 639.8,284.8 640.1,276.5 640.3,275.6 640.6,278.1 640.8,264.7 641.1,254.2 641.3,241.3 641.6,245.9 641.9,241.1 642.1,245.5 642.4,252.1 642.6,251.9 642.9,257.0 643.1,256.2 643.4,252.9 643.6,255.9 643.9,252.0 644.1,251.6 644.4,253.5 644.6,254.3 644.9,243.0 645.1,248.1 645.4,244.1 645.6,242.7 645.9,245.9 646.1,247.7 646.4,247.7 646.6,246.3 646.9,239.3 647.2,230.4 647.4,230.5 647.7,239.2 647.9,239.1 648.2,229.0 648.4,223.5 648.7,224.2 648.9,225.6 649.2,224.4 649.4,212.2 649.7,201.7 649.9,219.9 650.2,220.2 650.4,225.7 650.7,225.4 650.9,217.3 651.2,222.7 651.4,224.8 651.7,224.6 651.9,225.0 652.2,227.5 652.5,230.9 652.7,232.7 653.0,232.9 653.2,233.0 653.5,234.5 653.7,234.2 654.0,234.4 654.2,237.0 654.5,236.5 654.7,234.4 655.0,229.3 655.2,222.4 655.5,211.8 655.7,201.3 656.0,184.0 656.2,170.0 656.5,154.6 656.7,139.1 657.0,126.2 657.2,144.9 657.5,161.9 657.7,157.6 658.0,172.4 658.3,174.2 658.5,170.4 658.8,177.2 659.0,166.6 659.3,151.9 659.5,145.5 659.8,148.6 660.0,148.6 660.3,160.0 660.5,167.1 660.8,172.9 661.0,172.6 661.3,171.5 661.5,170.4 661.8,178.0 662.0,180.3 662.3,162.9 662.5,166.3 662.8,169.2 663.0,168.6 663.3,172.6 663.6,172.9 663.8,175.2 664.1,178.1 664.3,178.1 664.6,177.2 664.8,160.5 665.1,160.1 665.3,167.0 665.6,170.8 665.8,166.9 666.1,159.3 666.3,162.1 666.6,164.8 666.8,161.6 667.1,159.7 667.3,160.4 667.6,163.4 667.8,164.0 668.1,160.7 668.3,162.7 668.6,164.4 668.8,167.3 669.1,169.1 669.4,167.1 669.6,165.0 669.9,166.6 670.1,166.3 670.4,164.0 670.6,166.2 670.9,165.8 671.1,160.9 671.4,162.7 671.6,160.1 671.9,161.2 672.1,165.0 672.4,164.4 672.6,164.3 672.9,167.1 673.1,170.0 673.4,174.8 673.6,175.1 673.9,176.4 674.1,178.2 674.4,180.7 674.7,175.7 674.9,176.9 675.2,171.7 675.4,177.1 675.7,183.7 675.9,200.9 676.2,191.5 676.4,188.4 676.7,190.4 676.9,190.8 677.2,188.8 677.4,188.9 677.7,187.0 677.9,191.2 678.2,195.8 678.4,195.7 678.7,195.7 678.9,184.5 679.2,188.8 679.4,188.1 679.7,192.6 679.9,195.8 680.2,194.4 680.5,191.6 680.7,188.0 681.0,182.3 681.2,188.2 681.5,189.4 681.7,193.2 682.0,195.5 682.2,194.9 682.5,198.2 682.7,192.6 683.0,193.3 683.2,196.3 683.5,199.7 683.7,198.5 684.0,198.4 684.2,191.3 684.5,191.3 684.7,196.1 685.0,186.5 685.2,190.9 685.5,186.4 685.8,185.0 686.0,189.6 686.3,188.0 686.5,193.9 686.8,196.3 687.0,195.7 687.3,198.3 687.5,197.3 687.8,197.4 688.0,198.7 688.3,199.5 688.5,196.5 688.8,195.7 689.0,195.7 689.3,198.1 689.5,201.5 689.8,207.3 690.0,202.9 690.3,197.4 690.5,198.7 690.8,199.2 691.0,203.5 691.3,205.4 691.6,204.7 691.8,204.4 692.1,204.1 692.3,203.3 692.6,204.5 692.8,205.0 693.1,205.7 693.3,214.4 693.6,211.0 693.8,211.5 694.1,211.4 694.3,212.2 694.6,208.8 694.8,211.8 695.1,216.7 695.3,218.0 695.6,217.7 695.8,224.1 696.1,228.6 696.3,226.9 696.6,228.6 696.9,227.5 697.1,226.9 697.4,232.9 697.6,238.2 697.9,239.0 698.1,238.5 698.4,239.5 698.6,242.3 698.9,242.8 699.1,241.7 699.4,245.1 699.6,240.2 699.9,242.0 700.1,237.5 700.4,242.8 700.6,241.8 700.9,238.4 701.1,239.0 701.4,240.5 701.6,236.5 701.9,235.2 702.2,239.1 702.4,238.6 702.7,241.5 702.9,242.3 703.2,242.8 703.4,245.9 703.7,240.8 703.9,241.9 704.2,240.5 704.4,240.3 704.7,235.6 704.9,237.0 705.2,233.3 705.4,231.6 705.7,234.7 705.9,236.5 706.2,237.7 706.4,235.8 706.7,237.1 706.9,236.5 707.2,229.8 707.4,229.4 707.7,226.7 708.0,229.8 708.2,229.4 708.5,238.8 708.7,239.1 709.0,248.6 709.2,245.3 709.5,239.7 709.7,234.0 710.0,230.1 710.2,228.4 710.5,231.9 710.7,218.5 711.0,215.3 711.2,216.9 711.5,207.7 711.7,209.4 712.0,204.9 712.2,204.6 712.5,207.2 712.7,211.7 713.0,208.9 713.3,206.3 713.5,204.1 713.8,207.9 714.0,209.8 714.3,209.2 714.5,207.0 714.8,210.5 715.0,211.3 715.3,212.9 715.5,213.7 715.8,218.2 716.0,222.7 716.3,223.5 716.5,228.5 716.8,239.0 717.0,233.2 717.3,238.6 717.5,231.8 717.8,230.1 718.0,228.6 718.3,226.1 718.5,227.2 718.8,225.2 719.1,223.5 719.3,221.7 719.6,221.8 719.8,215.6 720.1,214.5 720.3,217.3 720.6,218.1 720.8,218.4 721.1,218.1 721.3,219.5 721.6,221.3 721.8,221.8 722.1,223.1 722.3,221.3 722.6,218.1 722.8,215.7 723.1,213.8 723.3,226.3 723.6,228.1 723.8,231.6 724.1,230.9 724.4,232.2 724.6,234.3 724.9,233.5 725.1,233.2 725.4,233.6 725.6,219.9 725.9,208.3 726.1,189.5 726.4,184.0 726.6,169.9 726.9,165.4 727.1,167.0 727.4,152.2 727.6,141.9 727.9,148.7 728.1,144.4 728.4,149.6 728.6,152.0 728.9,141.3 729.1,155.8 729.4,146.4 729.6,148.8 729.9,154.3 730.2,159.5 730.4,165.7 730.7,174.2 730.9,179.0 731.2,176.0 731.4,176.8 731.7,177.1 731.9,176.9 732.2,160.2 732.4,146.6 732.7,132.5 732.9,120.5 733.2,106.6 733.4,120.5 733.7,119.8 733.9,124.8 734.2,122.9 734.4,108.5 734.7,117.1 734.9,112.9 735.2,108.5 735.5,113.5 735.7,116.4 736.0,120.1 736.2,124.8 736.5,119.1 736.7,119.4 737.0,126.4 737.2,133.0 737.5,132.0 737.7,131.3 738.0,128.1 738.2,122.9 738.5,125.0 738.7,143.4 739.0,140.3 739.2,135.8 739.5,127.2 739.7,123.3 740.0,129.1 740.2,126.9 740.5,132.6 740.7,138.1 741.0,139.8 741.3,143.7 741.5,148.6 741.8,151.5 742.0,142.3 742.3,140.8 742.5,133.8 742.8,141.3 743.0,140.6 743.3,139.8 743.5,138.3 743.8,132.9 744.0,147.1 744.3,164.7 744.5,150.3 744.8,155.2 745.0,157.3 745.3,155.7 745.5,146.2 745.8,132.4 746.0,128.5 746.3,136.1 746.6,151.0 746.8,151.5 747.1,156.0 747.3,158.6 747.6,155.5 747.8,152.6 748.1,163.5 748.3,174.4 748.6,180.2 748.8,183.7 749.1,178.3 749.3,180.4 749.6,176.5 749.8,178.4 750.1,182.1 750.3,174.6 750.6,170.5 750.8,172.1 751.1,166.8 751.3,166.6 751.6,170.2 751.9,171.3 752.1,162.9 752.4,162.4 752.6,155.3 752.9,160.0 753.1,162.5 753.4,149.5 753.6,146.6 753.9,137.3 754.1,138.0 754.4,139.2 754.6,143.1 754.9,148.0 755.1,152.9 755.4,149.6 755.6,150.6 755.9,152.8 756.1,157.8 756.4,158.3 756.6,144.6 756.9,146.8 757.1,151.1 757.4,154.4 757.7,152.6 757.9,156.1 758.2,153.8 758.4,155.5 758.7,155.5 758.9,157.8 759.2,157.2 759.4,158.2 759.7,158.8 759.9,159.8 760.2,162.9 760.4,164.9 760.7,163.0 760.9,158.3 761.2,159.1 761.4,157.7 761.7,159.6 761.9,161.4 762.2,159.7 762.4,159.8 762.7,155.7 763.0,154.4 763.2,152.6 763.5,149.6 763.7,152.7 764.0,152.7 764.2,151.8 764.5,149.8 764.7,151.9 765.0,155.2 765.2,156.4 765.5,158.5 765.7,158.7 766.0,158.7 766.2,158.7 766.5,158.7 766.7,158.8 767.0,160.3 767.2,164.4 767.5,165.1 767.7,164.5 768.0,164.7 768.2,167.7 768.5,169.6 768.8,167.2 769.0,162.3 769.3,157.5 769.5,163.1 769.8,160.2 770.0,162.5 770.3,163.1 770.5,161.6 770.8,164.1 771.0,166.9 771.3,165.9 771.5,164.5 771.8,163.6 772.0,167.5 772.3,171.3 772.5,179.2 772.8,177.2 773.0,177.8 773.3,178.7 773.5,173.7 773.8,172.1 774.1,171.9 774.3,175.2 774.6,176.4 774.8,179.4 775.1,178.9 775.3,181.7 775.6,192.1 775.8,190.4 776.1,184.5 776.3,186.4 776.6,186.6 776.8,189.7 777.1,193.3 777.3,187.6 777.6,188.5 777.8,189.5 778.1,190.6 778.3,191.4 778.6,187.0 778.8,187.2 779.1,188.0 779.3,188.1 779.6,183.7 779.9,182.3 780.1,178.7 780.4,176.1 780.6,176.7 780.9,176.7 781.1,179.7 781.4,180.8 781.6,182.0 781.9,182.6 782.1,180.8 782.4,181.6 782.6,182.3 782.9,172.2 783.1,156.4 783.4,147.4 783.6,150.9 783.9,150.0 784.1,154.3 784.4,147.9 784.6,133.6 784.9,121.5 785.2,120.3 785.4,106.4 785.7,94.7 785.9,99.7 786.2,96.0 786.4,100.6 786.7,89.6 786.9,76.5 787.2,87.2 787.4,101.9 787.7,90.8 787.9,82.1 788.2,93.2 788.4,92.6 788.7,98.0 788.9,102.6 789.2,102.2 789.4,98.2 789.7,94.0 789.9,88.8 790.2,93.0 790.4,90.1 790.7,87.8 791.0,91.3 791.2,99.2 791.5,97.2 791.7,93.8 792.0,105.0 792.2,116.2 792.5,118.9 792.7,119.9 793.0,127.0 793.2,125.7 793.5,129.6 793.7,134.8 794.0,136.5 794.2,131.5 794.5,132.8 794.7,133.6 795.0,133.5 795.2,129.7 795.5,137.7 795.7,142.3 796.0,140.5"/>
<text x="78" y="392" font-size="11" fill="#16a34a">Total return +146.8%</text><text x="268" y="392" font-size="11" fill="#2563eb">Price-only +146.8%</text><text x="78" y="362" font-size="11" text-anchor="middle" fill="#64748b">2014-12</text><text x="257" y="362" font-size="11" text-anchor="middle" fill="#64748b">2017-11</text><text x="437" y="362" font-size="11" text-anchor="middle" fill="#64748b">2020-09</text><text x="617" y="362" font-size="11" text-anchor="middle" fill="#64748b">2023-08</text><text x="796" y="362" font-size="11" text-anchor="middle" fill="#64748b">2026-07</text></svg>