<svg xmlns="http://www.w3.org/2000/svg" width="720" height="360" viewBox="0 0 720 360">
  <rect width="720" height="360" fill="#fafafa"/>
  <text x="56" y="22" font-size="13" font-family="sans-serif" fill="#222">RGLD total return (rebased 100) · cumulative distributions $0.00/sh · market cap n/a</text>
  <line x1="56" y1="308" x2="696" y2="308" stroke="#ccc"/>
  <line x1="56" y1="48" x2="56" y2="308" stroke="#ccc"/>
  <polyline fill="none" stroke="#2563eb" stroke-width="2" points="56.0,285.3 58.7,285.2 61.4,287.3 64.0,285.5 66.7,283.5 69.4,280.2 72.1,283.2 74.7,282.5 77.4,284.9 80.1,285.6 82.8,287.5 85.5,290.1 88.1,289.3 90.8,286.8 93.5,282.8 96.2,280.7 98.8,286.0 101.5,284.6 104.2,285.0 106.9,283.8 109.6,284.9 112.2,286.4 114.9,284.4 117.6,283.9 120.3,280.4 122.9,281.2 125.6,280.2 128.3,286.0 131.0,276.9 133.7,269.4 136.3,270.3 139.0,276.5 141.7,271.4 144.4,280.0 147.0,271.6 149.7,275.5 152.4,276.0 155.1,277.1 157.8,272.3 160.4,273.5 163.1,265.7 165.8,271.1 168.5,274.8 171.1,272.9 173.8,271.8 176.5,267.8 179.2,268.7 181.9,270.4 184.5,273.5 187.2,269.5 189.9,268.9 192.6,269.2 195.2,267.5 197.9,265.0 200.6,271.7 203.3,269.1 206.0,266.8 208.6,259.9 211.3,259.0 214.0,261.8 216.7,257.3 219.3,247.1 222.0,257.4 224.7,251.2 227.4,243.2 230.1,254.6 232.7,247.6 235.4,253.0 238.1,256.4 240.8,259.1 243.4,254.4 246.1,245.7 248.8,247.9 251.5,237.9 254.2,228.3 256.8,237.8 259.5,243.8 262.2,243.3 264.9,248.7 267.5,256.2 270.2,251.7 272.9,264.2 275.6,264.9 278.3,275.2 280.9,267.4 283.6,262.2 286.3,269.9 289.0,270.4 291.6,272.8 294.3,272.0 297.0,263.9 299.7,253.6 302.4,258.5 305.0,255.6 307.7,258.4 310.4,247.6 313.1,248.0 315.7,246.2 318.4,256.6 321.1,263.0 323.8,257.7 326.5,258.5 329.1,250.5 331.8,250.8 334.5,258.1 337.2,257.0 339.8,256.8 342.5,259.4 345.2,268.4 347.9,270.3 350.6,271.2 353.2,270.5 355.9,280.2 358.6,279.8 361.3,285.2 363.9,271.7 366.6,267.7 369.3,258.5 372.0,263.8 374.7,250.9 377.3,240.7 380.0,249.8 382.7,246.5 385.4,253.5 388.1,252.8 390.7,257.9 393.4,250.8 396.1,255.7 398.8,252.5 401.4,252.0 404.1,244.1 406.8,245.9 409.5,239.0 412.2,233.6 414.8,239.5 417.5,241.1 420.2,242.2 422.9,242.7 425.5,237.1 428.2,243.8 430.9,239.6 433.6,237.3 436.3,236.6 438.9,234.0 441.6,240.7 444.3,247.4 447.0,246.8 449.6,247.1 452.3,250.0 455.0,239.8 457.7,238.4 460.4,237.6 463.0,235.5 465.7,238.7 468.4,237.9 471.1,226.1 473.7,216.4 476.4,201.1 479.1,209.3 481.8,215.6 484.5,214.1 487.1,210.1 489.8,215.7 492.5,231.0 495.2,238.1 497.8,209.9 500.5,201.2 503.2,208.4 505.9,195.7 508.6,198.7 511.2,211.8 513.9,212.9 516.6,219.7 519.3,223.0 521.9,222.6 524.6,225.2 527.3,222.0 530.0,218.5 532.7,208.9 535.3,216.7 538.0,210.7 540.7,219.0 543.4,231.8 546.0,229.0 548.7,228.1 551.4,223.9 554.1,226.9 556.8,210.9 559.4,194.6 562.1,203.4 564.8,217.5 567.5,222.7 570.1,224.3 572.8,234.7 575.5,233.2 578.2,232.3 580.9,218.2 583.5,217.8 586.2,206.2 588.9,212.9 591.6,204.0 594.2,201.8 596.9,208.8 599.6,216.2 602.3,211.8 605.0,218.4 607.6,223.0 610.3,224.7 613.0,210.5 615.7,211.1 618.3,216.5 621.0,226.0 623.7,210.5 626.4,211.8 629.1,205.3 631.7,207.7 634.4,197.2 637.1,195.5 639.8,195.4 642.4,190.8 645.1,190.6 647.8,202.3 650.5,195.8 653.2,190.0 655.8,176.6 658.5,161.0 661.2,164.7 663.9,165.0 666.5,186.4 669.2,163.5 671.9,146.5 674.6,167.4 677.3,143.8 679.9,128.9 682.6,95.6 685.3,65.9 688.0,102.7 690.6,119.9 693.3,127.1 696.0,147.1"/>
  <polyline fill="none" stroke="#16a34a" stroke-width="2" points="56.0,285.3 58.7,285.2 61.4,287.3 64.0,285.5 66.7,283.5 69.4,280.2 72.1,283.2 74.7,282.5 77.4,284.9 80.1,285.6 82.8,287.5 85.5,290.1 88.1,289.3 90.8,286.8 93.5,282.8 96.2,280.7 98.8,286.0 101.5,284.6 104.2,285.0 106.9,283.8 109.6,284.9 112.2,286.4 114.9,284.4 117.6,283.9 120.3,280.4 122.9,281.2 125.6,280.2 128.3,286.0 131.0,276.9 133.7,269.4 136.3,270.3 139.0,276.5 141.7,271.4 144.4,280.0 147.0,271.6 149.7,275.5 152.4,276.0 155.1,277.1 157.8,272.3 160.4,273.5 163.1,265.7 165.8,271.1 168.5,274.8 171.1,272.9 173.8,271.8 176.5,267.8 179.2,268.7 181.9,270.4 184.5,273.5 187.2,269.5 189.9,268.9 192.6,269.2 195.2,267.5 197.9,265.0 200.6,271.7 203.3,269.1 206.0,266.8 208.6,259.9 211.3,259.0 214.0,261.8 216.7,257.3 219.3,247.1 222.0,257.4 224.7,251.2 227.4,243.2 230.1,254.6 232.7,247.6 235.4,253.0 238.1,256.4 240.8,259.1 243.4,254.4 246.1,245.7 248.8,247.9 251.5,237.9 254.2,228.3 256.8,237.8 259.5,243.8 262.2,243.3 264.9,248.7 267.5,256.2 270.2,251.7 272.9,264.2 275.6,264.9 278.3,275.2 280.9,267.4 283.6,262.2 286.3,269.9 289.0,270.4 291.6,272.8 294.3,272.0 297.0,263.9 299.7,253.6 302.4,258.5 305.0,255.6 307.7,258.4 310.4,247.6 313.1,248.0 315.7,246.2 318.4,256.6 321.1,263.0 323.8,257.7 326.5,258.5 329.1,250.5 331.8,250.8 334.5,258.1 337.2,257.0 339.8,256.8 342.5,259.4 345.2,268.4 347.9,270.3 350.6,271.2 353.2,270.5 355.9,280.2 358.6,279.8 361.3,285.2 363.9,271.7 366.6,267.7 369.3,258.5 372.0,263.8 374.7,250.9 377.3,240.7 380.0,249.8 382.7,246.5 385.4,253.5 388.1,252.8 390.7,257.9 393.4,250.8 396.1,255.7 398.8,252.5 401.4,252.0 404.1,244.1 406.8,245.9 409.5,239.0 412.2,233.6 414.8,239.5 417.5,241.1 420.2,242.2 422.9,242.7 425.5,237.1 428.2,243.8 430.9,239.6 433.6,237.3 436.3,236.6 438.9,234.0 441.6,240.7 444.3,247.4 447.0,246.8 449.6,247.1 452.3,250.0 455.0,239.8 457.7,238.4 460.4,237.6 463.0,235.5 465.7,238.7 468.4,237.9 471.1,226.1 473.7,216.4 476.4,201.1 479.1,209.3 481.8,215.6 484.5,214.1 487.1,210.1 489.8,215.7 492.5,231.0 495.2,238.1 497.8,209.9 500.5,201.2 503.2,208.4 505.9,195.7 508.6,198.7 511.2,211.8 513.9,212.9 516.6,219.7 519.3,223.0 521.9,222.6 524.6,225.2 527.3,222.0 530.0,218.5 532.7,208.9 535.3,216.7 538.0,210.7 540.7,219.0 543.4,231.8 546.0,229.0 548.7,228.1 551.4,223.9 554.1,226.9 556.8,210.9 559.4,194.6 562.1,203.4 564.8,217.5 567.5,222.7 570.1,224.3 572.8,234.7 575.5,233.2 578.2,232.3 580.9,218.2 583.5,217.8 586.2,206.2 588.9,212.9 591.6,204.0 594.2,201.8 596.9,208.8 599.6,216.2 602.3,211.8 605.0,218.4 607.6,223.0 610.3,224.7 613.0,210.5 615.7,211.1 618.3,216.5 621.0,226.0 623.7,210.5 626.4,211.8 629.1,205.3 631.7,207.7 634.4,197.2 637.1,195.5 639.8,195.4 642.4,190.8 645.1,190.6 647.8,202.3 650.5,195.8 653.2,190.0 655.8,176.6 658.5,161.0 661.2,164.7 663.9,165.0 666.5,186.4 669.2,163.5 671.9,146.5 674.6,167.4 677.3,143.8 679.9,128.9 682.6,95.6 685.3,65.9 688.0,102.7 690.6,119.9 693.3,127.1 696.0,147.1"/>
  <text x="60" y="62" font-size="11" fill="#2563eb">Price index</text>
  <text x="146" y="62" font-size="11" fill="#16a34a">Total return (price + distributions)</text>
  <text x="56" y="348" font-size="11" text-anchor="middle" fill="#444">2006-07</text><text x="217" y="348" font-size="11" text-anchor="middle" fill="#444">2011-07</text><text x="377" y="348" font-size="11" text-anchor="middle" fill="#444">2016-07</text><text x="538" y="348" font-size="11" text-anchor="middle" fill="#444">2021-07</text><text x="696" y="348" font-size="11" text-anchor="middle" fill="#444">2026-06</text>
</svg>
