<svg xmlns="http://www.w3.org/2000/svg" width="820" height="410" viewBox="0 0 820 410">
<rect width="820" height="410" fill="#fafafa"/><text x="78" y="22" font-size="14" font-family="sans-serif" fill="#0f172a">7176.T cumulative return since 2015-01-27 | dividends reinvested</text>
<text x="78" y="40" font-size="11" font-family="sans-serif" fill="#334155">Total return +172,337% | Price-only +172,337% | logarithmic scale</text>
<text x="78" y="54" font-size="9" font-family="sans-serif" fill="#64748b">Regular $0.00 | Special $0.00 | Other $0.00 per initial share path</text>
<line x1="78" y1="332.0" x2="796" y2="332.0" stroke="#e2e8f0"/><text x="70" y="336.0" font-size="10" text-anchor="end" fill="#64748b">-44.1%</text><line x1="78" y1="317.5" x2="796" y2="317.5" stroke="#e2e8f0"/><text x="70" y="321.5" font-size="10" text-anchor="end" fill="#64748b">0%</text><line x1="78" y1="287.0" x2="796" y2="287.0" stroke="#e2e8f0"/><text x="70" y="291.0" font-size="10" text-anchor="end" fill="#64748b">+241.3%</text><line x1="78" y1="242.0" x2="796" y2="242.0" stroke="#e2e8f0"/><text x="70" y="246.0" font-size="10" text-anchor="end" fill="#64748b">+1,984%</text><line x1="78" y1="197.0" x2="796" y2="197.0" stroke="#e2e8f0"/><text x="70" y="201.0" font-size="10" text-anchor="end" fill="#64748b">+12,626%</text><line x1="78" y1="152.0" x2="796" y2="152.0" stroke="#e2e8f0"/><text x="70" y="156.0" font-size="10" text-anchor="end" fill="#64748b">+77,607%</text><line x1="78" y1="107.0" x2="796" y2="107.0" stroke="#e2e8f0"/><text x="70" y="111.0" font-size="10" text-anchor="end" fill="#64748b">+474,375%</text><line x1="78" y1="62.0" x2="796" y2="62.0" stroke="#e2e8f0"/><text x="70" y="66.0" font-size="10" text-anchor="end" fill="#64748b">+2,897,039%</text><line x1="78" y1="62.0" x2="796" y2="62.0" stroke="#e2e8f0"/><text x="70" y="66.0" font-size="10" text-anchor="end" fill="#64748b">+2,897,039%</text>
<line x1="78" y1="332" x2="796" y2="332" stroke="#cbd5e1"/>
<polyline fill="none" stroke="#2563eb" stroke-width="2" points="78.0,317.5 78.3,317.5 78.5,317.5 78.8,317.5 79.0,317.5 79.3,317.5 79.5,317.5 79.8,317.5 80.0,317.5 80.3,317.5 80.5,317.5 80.8,317.5 81.0,317.5 81.3,317.5 81.6,317.5 81.8,317.5 82.1,317.5 82.3,317.5 82.6,317.5 82.8,317.5 83.1,317.5 83.3,317.5 83.6,317.5 83.8,317.5 84.1,317.5 84.4,317.5 84.6,317.5 84.9,317.5 85.1,317.5 85.4,317.5 85.6,317.5 85.9,317.5 86.1,317.5 86.4,317.5 86.6,317.5 86.9,317.5 87.1,317.5 87.4,317.5 87.7,317.5 87.9,317.5 88.2,317.5 88.4,317.5 88.7,317.5 88.9,317.5 89.2,317.5 89.4,317.5 89.7,317.5 89.9,317.5 90.2,317.5 90.5,317.5 90.7,317.5 91.0,317.5 91.2,317.5 91.5,317.5 91.7,317.5 92.0,317.5 92.2,317.5 92.5,317.5 92.7,317.5 93.0,317.5 93.2,317.5 93.5,317.5 93.8,317.5 94.0,317.5 94.3,317.5 94.5,317.5 94.8,317.5 95.0,317.5 95.3,317.5 95.5,317.5 95.8,317.5 96.0,317.5 96.3,317.5 96.6,317.5 96.8,317.5 97.1,317.5 97.3,317.5 97.6,317.5 97.8,317.5 98.1,317.5 98.3,317.5 98.6,317.5 98.8,317.5 99.1,317.5 99.3,317.5 99.6,317.5 99.9,317.5 100.1,317.5 100.4,317.5 100.6,317.5 100.9,317.5 101.1,317.5 101.4,317.5 101.6,317.5 101.9,317.5 102.1,317.5 102.4,317.5 102.7,317.5 102.9,317.5 103.2,317.5 103.4,317.5 103.7,317.5 103.9,317.5 104.2,317.5 104.4,317.5 104.7,317.5 104.9,317.5 105.2,317.5 105.4,317.5 105.7,317.5 106.0,317.5 106.2,317.5 106.5,317.5 106.7,317.5 107.0,317.5 107.2,317.5 107.5,317.5 107.7,317.5 108.0,317.5 108.2,317.5 108.5,317.5 108.8,317.5 109.0,317.5 109.3,317.5 109.5,317.5 109.8,317.5 110.0,317.5 110.3,317.5 110.5,317.5 110.8,317.5 111.0,317.5 111.3,317.5 111.5,317.5 111.8,317.5 112.1,317.5 112.3,317.5 112.6,317.5 112.8,317.5 113.1,317.5 113.3,317.5 113.6,317.5 113.8,317.5 114.1,317.5 114.3,317.5 114.6,317.5 114.9,317.5 115.1,317.5 115.4,317.5 115.6,317.5 115.9,317.5 116.1,317.5 116.4,317.5 116.6,317.5 116.9,317.5 117.1,317.5 117.4,317.5 117.6,317.5 117.9,317.5 118.2,317.5 118.4,317.5 118.7,317.5 118.9,317.5 119.2,317.5 119.4,317.5 119.7,317.5 119.9,317.5 120.2,317.5 120.4,317.5 120.7,317.5 121.0,317.5 121.2,317.5 121.5,317.5 121.7,317.5 122.0,317.5 122.2,317.5 122.5,317.5 122.7,317.5 123.0,317.5 123.2,317.5 123.5,317.5 123.7,317.5 124.0,317.5 124.3,317.5 124.5,317.5 124.8,317.5 125.0,317.5 125.3,317.5 125.5,317.5 125.8,317.5 126.0,317.5 126.3,317.5 126.5,317.5 126.8,317.5 127.1,317.5 127.3,317.5 127.6,317.5 127.8,317.5 128.1,317.5 128.3,317.5 128.6,317.5 128.8,317.5 129.1,317.5 129.3,317.5 129.6,317.5 129.8,317.5 130.1,317.5 130.4,317.5 130.6,317.5 130.9,317.5 131.1,317.5 131.4,317.5 131.6,317.5 131.9,317.5 132.1,317.5 132.4,317.5 132.6,317.5 132.9,317.5 133.2,317.5 133.4,317.5 133.7,317.5 133.9,317.5 134.2,317.5 134.4,317.5 134.7,317.5 134.9,317.5 135.2,317.5 135.4,317.5 135.7,317.5 135.9,317.5 136.2,317.5 136.5,317.5 136.7,317.5 137.0,317.5 137.2,317.5 137.5,317.5 137.7,317.5 138.0,317.5 138.2,317.5 138.5,317.5 138.7,317.5 139.0,275.1 139.3,275.1 139.5,275.1 139.8,275.1 140.0,275.1 140.3,275.1 140.5,275.1 140.8,275.1 141.0,275.1 141.3,275.1 141.5,275.1 141.8,275.1 142.0,275.1 142.3,275.1 142.6,275.1 142.8,275.1 143.1,275.1 143.3,275.1 143.6,275.1 143.8,275.1 144.1,275.1 144.3,275.1 144.6,275.1 144.8,275.1 145.1,275.1 145.4,275.1 145.6,275.1 145.9,275.1 146.1,275.1 146.4,275.1 146.6,275.1 146.9,275.1 147.1,275.1 147.4,275.1 147.6,275.1 147.9,275.1 148.1,275.1 148.4,275.1 148.7,275.1 148.9,275.1 149.2,275.1 149.4,275.1 149.7,275.1 149.9,275.1 150.2,275.1 150.4,275.1 150.7,275.1 150.9,275.1 151.2,275.1 151.5,275.1 151.7,275.1 152.0,275.1 152.2,275.1 152.5,275.1 152.7,275.1 153.0,275.1 153.2,275.1 153.5,275.1 153.7,275.1 154.0,275.1 154.2,275.1 154.5,275.1 154.8,275.1 155.0,275.1 155.3,275.1 155.5,275.1 155.8,275.1 156.0,275.1 156.3,275.1 156.5,275.1 156.8,275.1 157.0,275.1 157.3,275.1 157.6,275.1 157.8,275.1 158.1,275.1 158.3,275.1 158.6,275.1 158.8,275.1 159.1,275.1 159.3,275.1 159.6,275.1 159.8,275.1 160.1,275.1 160.3,275.1 160.6,275.1 160.9,275.1 161.1,275.1 161.4,275.1 161.6,275.1 161.9,275.1 162.1,275.1 162.4,275.1 162.6,275.1 162.9,275.1 163.1,275.1 163.4,275.1 163.7,275.1 163.9,275.1 164.2,275.1 164.4,275.1 164.7,275.1 164.9,275.1 165.2,275.1 165.4,275.1 165.7,275.1 165.9,275.1 166.2,275.1 166.4,275.1 166.7,275.1 167.0,275.1 167.2,275.1 167.5,275.1 167.7,275.1 168.0,275.1 168.2,275.1 168.5,275.1 168.7,275.1 169.0,275.1 169.2,275.1 169.5,275.1 169.8,275.1 170.0,275.1 170.3,275.1 170.5,275.1 170.8,275.1 171.0,275.1 171.3,275.1 171.5,275.1 171.8,275.1 172.0,275.1 172.3,275.1 172.5,275.1 172.8,275.1 173.1,275.1 173.3,275.1 173.6,275.1 173.8,275.1 174.1,275.1 174.3,275.1 174.6,275.1 174.8,275.1 175.1,275.1 175.3,275.1 175.6,275.1 175.9,275.1 176.1,275.1 176.4,275.1 176.6,275.1 176.9,275.1 177.1,275.1 177.4,275.1 177.6,275.1 177.9,275.1 178.1,275.1 178.4,275.1 178.6,275.1 178.9,275.1 179.2,275.1 179.4,275.1 179.7,275.1 179.9,275.1 180.2,275.1 180.4,275.1 180.7,275.1 180.9,275.1 181.2,275.1 181.4,275.1 181.7,275.1 182.0,275.1 182.2,275.1 182.5,275.1 182.7,275.1 183.0,275.1 183.2,275.1 183.5,275.1 183.7,275.1 184.0,275.1 184.2,275.1 184.5,275.1 184.7,275.1 185.0,275.1 185.3,275.1 185.5,275.1 185.8,275.1 186.0,275.1 186.3,275.1 186.5,275.1 186.8,275.1 187.0,275.1 187.3,275.1 187.5,275.1 187.8,275.1 188.1,275.1 188.3,275.1 188.6,275.1 188.8,275.1 189.1,275.1 189.3,275.1 189.6,275.1 189.8,275.1 190.1,275.1 190.3,275.1 190.6,275.1 190.8,275.1 191.1,275.1 191.4,275.1 191.6,275.1 191.9,275.1 192.1,275.1 192.4,275.1 192.6,275.1 192.9,275.1 193.1,275.1 193.4,275.1 193.6,275.1 193.9,275.1 194.2,275.1 194.4,275.1 194.7,275.1 194.9,275.1 195.2,275.1 195.4,275.1 195.7,275.1 195.9,275.1 196.2,275.1 196.4,275.1 196.7,275.1 196.9,275.1 197.2,275.1 197.5,275.1 197.7,275.1 198.0,275.1 198.2,275.1 198.5,275.1 198.7,275.1 199.0,275.1 199.2,275.1 199.5,275.1 199.7,275.1 200.0,275.1 200.3,275.1 200.5,275.1 200.8,275.1 201.0,275.1 201.3,275.1 201.5,275.1 201.8,275.1 202.0,275.1 202.3,275.1 202.5,275.1 202.8,275.1 203.0,275.1 203.3,275.1 203.6,275.1 203.8,275.1 204.1,275.1 204.3,275.1 204.6,275.1 204.8,275.1 205.1,275.1 205.3,275.1 205.6,275.1 205.8,275.1 206.1,275.1 206.4,275.1 206.6,275.1 206.9,275.1 207.1,275.1 207.4,275.1 207.6,275.1 207.9,275.1 208.1,275.1 208.4,275.1 208.6,275.1 208.9,275.1 209.1,275.1 209.4,275.1 209.7,275.1 209.9,275.1 210.2,275.1 210.4,275.1 210.7,275.1 210.9,275.1 211.2,275.1 211.4,275.1 211.7,275.1 211.9,275.1 212.2,275.1 212.5,275.1 212.7,275.1 213.0,275.1 213.2,275.1 213.5,275.1 213.7,275.1 214.0,275.1 214.2,275.1 214.5,275.1 214.7,275.1 215.0,275.1 215.2,275.1 215.5,275.1 215.8,275.1 216.0,275.1 216.3,275.1 216.5,275.1 216.8,275.1 217.0,275.1 217.3,275.1 217.5,275.1 217.8,275.1 218.0,275.1 218.3,275.1 218.6,275.1 218.8,275.1 219.1,275.1 219.3,275.1 219.6,275.1 219.8,275.1 220.1,275.1 220.3,275.1 220.6,275.1 220.8,275.1 221.1,275.1 221.3,275.1 221.6,275.1 221.9,275.1 222.1,275.1 222.4,275.1 222.6,275.1 222.9,275.1 223.1,275.1 223.4,275.1 223.6,275.1 223.9,275.1 224.1,275.1 224.4,275.1 224.6,275.1 224.9,275.1 225.2,275.1 225.4,275.1 225.7,275.1 225.9,275.1 226.2,275.1 226.4,275.1 226.7,275.1 226.9,275.1 227.2,275.1 227.4,275.1 227.7,275.1 228.0,275.1 228.2,275.1 228.5,275.1 228.7,275.1 229.0,275.1 229.2,275.1 229.5,275.1 229.7,275.1 230.0,275.1 230.2,275.1 230.5,275.1 230.7,275.1 231.0,275.1 231.3,275.1 231.5,275.1 231.8,275.1 232.0,275.1 232.3,275.1 232.5,275.1 232.8,275.1 233.0,275.1 233.3,275.1 233.5,275.1 233.8,275.1 234.1,275.1 234.3,275.1 234.6,275.1 234.8,275.1 235.1,275.1 235.3,275.1 235.6,275.1 235.8,275.1 236.1,275.1 236.3,275.1 236.6,275.1 236.8,275.1 237.1,275.1 237.4,275.1 237.6,275.1 237.9,275.1 238.1,275.1 238.4,275.1 238.6,275.1 238.9,275.1 239.1,275.1 239.4,275.1 239.6,275.1 239.9,275.1 240.2,275.1 240.4,275.1 240.7,275.1 240.9,275.1 241.2,275.1 241.4,275.1 241.7,275.1 241.9,275.1 242.2,275.1 242.4,275.1 242.7,275.1 242.9,275.1 243.2,275.1 243.5,275.1 243.7,275.1 244.0,275.1 244.2,275.1 244.5,275.1 244.7,275.1 245.0,275.1 245.2,275.1 245.5,275.1 245.7,275.1 246.0,275.1 246.3,275.1 246.5,275.1 246.8,275.1 247.0,275.1 247.3,275.1 247.5,275.1 247.8,275.1 248.0,275.1 248.3,275.1 248.5,275.1 248.8,275.1 249.0,275.1 249.3,275.1 249.6,275.1 249.8,275.1 250.1,275.1 250.3,275.1 250.6,275.1 250.8,275.1 251.1,275.1 251.3,275.1 251.6,275.1 251.8,275.1 252.1,275.1 252.4,275.1 252.6,275.1 252.9,275.1 253.1,275.1 253.4,275.1 253.6,275.1 253.9,275.1 254.1,275.1 254.4,275.1 254.6,275.1 254.9,275.1 255.1,275.1 255.4,275.1 255.7,275.1 255.9,275.1 256.2,275.1 256.4,275.1 256.7,275.1 256.9,275.1 257.2,275.1 257.4,275.1 257.7,275.1 257.9,275.1 258.2,275.1 258.5,275.1 258.7,275.1 259.0,275.1 259.2,275.1 259.5,275.1 259.7,275.1 260.0,275.1 260.2,275.1 260.5,275.1 260.7,275.1 261.0,275.1 261.2,275.1 261.5,275.1 261.8,275.1 262.0,275.1 262.3,275.1 262.5,275.1 262.8,275.1 263.0,275.1 263.3,275.1 263.5,275.1 263.8,275.1 264.0,275.1 264.3,275.1 264.6,275.1 264.8,275.1 265.1,275.1 265.3,275.1 265.6,275.1 265.8,275.1 266.1,275.1 266.3,275.1 266.6,275.1 266.8,275.1 267.1,275.1 267.3,275.1 267.6,275.1 267.9,275.1 268.1,275.1 268.4,275.1 268.6,275.1 268.9,275.1 269.1,275.1 269.4,275.1 269.6,275.1 269.9,275.1 270.1,275.1 270.4,275.1 270.7,275.1 270.9,275.1 271.2,275.1 271.4,275.1 271.7,275.1 271.9,275.1 272.2,275.1 272.4,275.1 272.7,275.1 272.9,275.1 273.2,275.1 273.4,275.1 273.7,275.1 274.0,275.1 274.2,275.1 274.5,275.1 274.7,275.1 275.0,275.1 275.2,275.1 275.5,275.1 275.7,221.2 276.0,221.2 276.2,221.2 276.5,221.2 276.8,221.2 277.0,221.2 277.3,221.2 277.5,221.2 277.8,221.2 278.0,221.2 278.3,221.2 278.5,221.2 278.8,221.2 279.0,221.2 279.3,221.2 279.5,221.2 279.8,221.2 280.1,221.2 280.3,221.2 280.6,221.2 280.8,221.2 281.1,221.2 281.3,221.2 281.6,221.2 281.8,221.2 282.1,221.2 282.3,221.2 282.6,221.2 282.9,221.2 283.1,221.2 283.4,221.2 283.6,221.2 283.9,221.2 284.1,221.2 284.4,221.2 284.6,221.2 284.9,221.2 285.1,221.2 285.4,221.2 285.6,221.2 285.9,221.2 286.2,221.2 286.4,221.2 286.7,221.2 286.9,221.2 287.2,221.2 287.4,221.2 287.7,221.2 287.9,221.2 288.2,221.2 288.4,221.2 288.7,221.2 289.0,221.2 289.2,221.2 289.5,221.2 289.7,221.2 290.0,221.2 290.2,221.2 290.5,221.2 290.7,221.2 291.0,221.2 291.2,221.2 291.5,221.2 291.7,221.2 292.0,221.2 292.3,221.2 292.5,221.2 292.8,221.2 293.0,221.2 293.3,221.2 293.5,221.2 293.8,221.2 294.0,221.2 294.3,221.2 294.5,221.2 294.8,221.2 295.1,221.2 295.3,221.2 295.6,221.2 295.8,221.2 296.1,221.2 296.3,221.2 296.6,221.2 296.8,221.2 297.1,221.2 297.3,221.2 297.6,221.2 297.8,221.2 298.1,221.2 298.4,221.2 298.6,221.2 298.9,221.2 299.1,221.2 299.4,221.2 299.6,221.2 299.9,221.2 300.1,221.2 300.4,221.2 300.6,221.2 300.9,221.2 301.2,221.2 301.4,221.2 301.7,221.2 301.9,221.2 302.2,221.2 302.4,221.2 302.7,221.2 302.9,221.2 303.2,221.2 303.4,221.2 303.7,221.2 303.9,221.2 304.2,221.2 304.5,221.2 304.7,221.2 305.0,221.2 305.2,221.2 305.5,221.2 305.7,221.2 306.0,221.2 306.2,221.2 306.5,221.2 306.7,221.2 307.0,221.2 307.3,221.2 307.5,221.2 307.8,221.2 308.0,221.2 308.3,221.2 308.5,221.2 308.8,221.2 309.0,221.2 309.3,221.2 309.5,221.2 309.8,221.2 310.0,221.2 310.3,221.2 310.6,221.2 310.8,221.2 311.1,221.2 311.3,221.2 311.6,221.2 311.8,221.2 312.1,221.2 312.3,221.2 312.6,221.2 312.8,221.2 313.1,221.2 313.4,221.2 313.6,221.2 313.9,221.2 314.1,221.2 314.4,221.2 314.6,221.2 314.9,221.2 315.1,221.2 315.4,221.2 315.6,221.2 315.9,221.2 316.1,221.2 316.4,221.2 316.7,221.2 316.9,221.2 317.2,221.2 317.4,221.2 317.7,221.2 317.9,221.2 318.2,221.2 318.4,221.2 318.7,221.2 318.9,221.2 319.2,221.2 319.5,221.2 319.7,221.2 320.0,221.2 320.2,221.2 320.5,221.2 320.7,221.2 321.0,221.2 321.2,221.2 321.5,221.2 321.7,221.2 322.0,221.2 322.2,221.2 322.5,221.2 322.8,221.2 323.0,221.2 323.3,221.2 323.5,221.2 323.8,221.2 324.0,221.2 324.3,221.2 324.5,221.2 324.8,221.2 325.0,221.2 325.3,221.2 325.6,221.2 325.8,221.2 326.1,221.2 326.3,221.2 326.6,221.2 326.8,221.2 327.1,221.2 327.3,221.2 327.6,221.2 327.8,221.2 328.1,221.2 328.3,221.2 328.6,221.2 328.9,221.2 329.1,221.2 329.4,221.2 329.6,221.2 329.9,221.2 330.1,221.2 330.4,221.2 330.6,221.2 330.9,221.2 331.1,221.2 331.4,221.2 331.7,221.2 331.9,221.2 332.2,221.2 332.4,221.2 332.7,221.2 332.9,221.2 333.2,221.2 333.4,221.2 333.7,221.2 333.9,221.2 334.2,221.2 334.4,221.2 334.7,221.2 335.0,221.2 335.2,221.2 335.5,221.2 335.7,221.2 336.0,221.2 336.2,221.2 336.5,221.2 336.7,221.2 337.0,221.2 337.2,221.2 337.5,221.2 337.8,221.2 338.0,221.2 338.3,221.2 338.5,221.2 338.8,221.2 339.0,221.2 339.3,221.2 339.5,221.2 339.8,221.2 340.0,221.2 340.3,221.2 340.5,221.2 340.8,221.2 341.1,221.2 341.3,221.2 341.6,221.2 341.8,221.2 342.1,221.2 342.3,221.2 342.6,221.2 342.8,221.2 343.1,221.2 343.3,221.2 343.6,221.2 343.9,221.2 344.1,221.2 344.4,221.2 344.6,221.2 344.9,221.2 345.1,221.2 345.4,221.2 345.6,221.2 345.9,221.2 346.1,221.2 346.4,221.2 346.6,221.2 346.9,221.2 347.2,221.2 347.4,221.2 347.7,221.2 347.9,221.2 348.2,221.2 348.4,221.2 348.7,221.2 348.9,221.2 349.2,221.2 349.4,221.2 349.7,221.2 350.0,221.2 350.2,221.2 350.5,221.2 350.7,221.2 351.0,221.2 351.2,221.2 351.5,221.2 351.7,221.2 352.0,221.2 352.2,221.2 352.5,221.2 352.7,221.2 353.0,221.2 353.3,221.2 353.5,221.2 353.8,221.2 354.0,221.2 354.3,221.2 354.5,221.2 354.8,221.2 355.0,221.2 355.3,221.2 355.5,221.2 355.8,221.2 356.1,221.2 356.3,221.2 356.6,221.2 356.8,221.2 357.1,221.2 357.3,221.2 357.6,221.2 357.8,221.2 358.1,221.2 358.3,221.2 358.6,221.2 358.8,221.2 359.1,221.2 359.4,221.2 359.6,221.2 359.9,221.2 360.1,221.2 360.4,221.2 360.6,221.2 360.9,221.2 361.1,221.2 361.4,221.2 361.6,221.2 361.9,221.2 362.2,221.2 362.4,221.2 362.7,221.2 362.9,221.2 363.2,221.2 363.4,221.2 363.7,221.2 363.9,221.2 364.2,221.2 364.4,221.2 364.7,221.2 364.9,221.2 365.2,221.2 365.5,221.2 365.7,221.2 366.0,221.2 366.2,221.2 366.5,221.2 366.7,221.2 367.0,221.2 367.2,221.2 367.5,221.2 367.7,221.2 368.0,221.2 368.2,221.2 368.5,221.2 368.8,221.2 369.0,221.2 369.3,221.2 369.5,221.2 369.8,221.2 370.0,221.2 370.3,221.2 370.5,221.2 370.8,221.2 371.0,221.2 371.3,221.2 371.6,221.2 371.8,221.2 372.1,221.2 372.3,221.2 372.6,221.2 372.8,221.2 373.1,221.2 373.3,221.2 373.6,221.2 373.8,221.2 374.1,221.2 374.3,221.2 374.6,221.2 374.9,221.2 375.1,221.2 375.4,221.2 375.6,221.2 375.9,221.2 376.1,221.2 376.4,221.2 376.6,221.2 376.9,221.2 377.1,221.2 377.4,221.2 377.7,221.2 377.9,221.2 378.2,221.2 378.4,221.2 378.7,221.2 378.9,221.2 379.2,221.2 379.4,221.2 379.7,221.2 379.9,221.2 380.2,221.2 380.4,221.2 380.7,221.2 381.0,221.2 381.2,221.2 381.5,221.2 381.7,221.2 382.0,221.2 382.2,221.2 382.5,221.2 382.7,221.2 383.0,221.2 383.2,221.2 383.5,221.2 383.8,221.2 384.0,221.2 384.3,221.2 384.5,221.2 384.8,221.2 385.0,221.2 385.3,221.2 385.5,221.2 385.8,221.2 386.0,221.2 386.3,221.2 386.5,221.2 386.8,221.2 387.1,221.2 387.3,221.2 387.6,221.2 387.8,221.2 388.1,221.2 388.3,221.2 388.6,221.2 388.8,221.2 389.1,221.2 389.3,221.2 389.6,221.2 389.9,221.2 390.1,221.2 390.4,221.2 390.6,221.2 390.9,221.2 391.1,221.2 391.4,221.2 391.6,221.2 391.9,221.2 392.1,221.2 392.4,221.2 392.6,221.2 392.9,221.2 393.2,221.2 393.4,221.2 393.7,221.2 393.9,221.2 394.2,221.2 394.4,221.2 394.7,221.2 394.9,221.2 395.2,221.2 395.4,221.2 395.7,221.2 396.0,221.2 396.2,221.2 396.5,162.6 396.7,162.6 397.0,162.6 397.2,162.6 397.5,162.6 397.7,162.6 398.0,162.6 398.2,162.6 398.5,162.6 398.7,162.6 399.0,162.6 399.3,162.6 399.5,162.6 399.8,162.6 400.0,162.6 400.3,162.6 400.5,162.6 400.8,162.6 401.0,162.6 401.3,162.6 401.5,162.6 401.8,162.6 402.1,162.6 402.3,162.6 402.6,162.6 402.8,162.6 403.1,162.6 403.3,162.6 403.6,162.6 403.8,162.6 404.1,162.6 404.3,162.6 404.6,162.6 404.8,162.6 405.1,162.6 405.4,162.6 405.6,162.6 405.9,162.6 406.1,162.6 406.4,162.6 406.6,162.6 406.9,162.6 407.1,162.6 407.4,162.6 407.6,162.6 407.9,162.6 408.2,162.6 408.4,162.6 408.7,162.6 408.9,162.6 409.2,162.6 409.4,162.6 409.7,162.6 409.9,162.6 410.2,162.6 410.4,162.6 410.7,162.6 410.9,162.6 411.2,162.6 411.5,162.6 411.7,162.6 412.0,162.6 412.2,162.6 412.5,162.6 412.7,162.6 413.0,162.6 413.2,162.6 413.5,162.6 413.7,162.6 414.0,162.6 414.3,162.6 414.5,162.6 414.8,162.6 415.0,162.6 415.3,162.6 415.5,162.6 415.8,162.6 416.0,162.6 416.3,162.6 416.5,162.6 416.8,162.6 417.0,162.6 417.3,162.6 417.6,162.6 417.8,162.6 418.1,162.6 418.3,162.6 418.6,162.6 418.8,162.6 419.1,162.6 419.3,162.6 419.6,162.6 419.8,162.6 420.1,162.6 420.4,162.6 420.6,162.6 420.9,162.6 421.1,162.6 421.4,162.6 421.6,162.6 421.9,162.6 422.1,162.6 422.4,162.6 422.6,162.6 422.9,162.6 423.1,162.6 423.4,162.6 423.7,162.6 423.9,162.6 424.2,162.6 424.4,162.6 424.7,162.6 424.9,162.6 425.2,162.6 425.4,162.6 425.7,162.6 425.9,162.6 426.2,162.6 426.5,162.6 426.7,162.6 427.0,162.6 427.2,162.6 427.5,162.6 427.7,162.6 428.0,162.6 428.2,162.6 428.5,162.6 428.7,162.6 429.0,162.6 429.2,162.6 429.5,162.6 429.8,162.6 430.0,162.6 430.3,162.6 430.5,162.6 430.8,162.6 431.0,162.6 431.3,162.6 431.5,162.6 431.8,162.6 432.0,162.6 432.3,162.6 432.6,162.6 432.8,162.6 433.1,162.6 433.3,162.6 433.6,162.6 433.8,162.6 434.1,162.6 434.3,162.6 434.6,162.6 434.8,162.6 435.1,162.6 435.3,162.6 435.6,162.6 435.9,162.6 436.1,162.6 436.4,162.6 436.6,162.6 436.9,162.6 437.1,162.6 437.4,162.6 437.6,162.6 437.9,162.6 438.1,162.6 438.4,162.6 438.7,162.6 438.9,162.6 439.2,162.6 439.4,162.6 439.7,162.6 439.9,162.6 440.2,162.6 440.4,162.6 440.7,162.6 440.9,162.6 441.2,162.6 441.4,162.6 441.7,162.6 442.0,162.6 442.2,162.6 442.5,162.6 442.7,162.6 443.0,162.6 443.2,162.6 443.5,162.6 443.7,162.6 444.0,162.6 444.2,162.6 444.5,162.6 444.8,162.6 445.0,162.6 445.3,162.6 445.5,162.6 445.8,162.6 446.0,162.6 446.3,162.6 446.5,162.6 446.8,162.6 447.0,162.6 447.3,162.6 447.5,162.6 447.8,162.6 448.1,162.6 448.3,162.6 448.6,162.6 448.8,162.6 449.1,162.6 449.3,162.6 449.6,162.6 449.8,162.6 450.1,162.6 450.3,162.6 450.6,162.6 450.9,162.6 451.1,162.6 451.4,162.6 451.6,162.6 451.9,162.6 452.1,162.6 452.4,162.6 452.6,153.3 452.9,153.3 453.1,153.3 453.4,153.3 453.6,153.3 453.9,153.3 454.2,153.3 454.4,153.3 454.7,153.3 454.9,153.3 455.2,153.3 455.4,153.3 455.7,153.3 455.9,153.3 456.2,153.3 456.4,153.3 456.7,153.3 457.0,153.3 457.2,153.3 457.5,153.3 457.7,153.3 458.0,153.3 458.2,153.3 458.5,153.3 458.7,153.3 459.0,153.3 459.2,153.3 459.5,153.3 459.7,153.3 460.0,153.3 460.3,153.3 460.5,153.3 460.8,153.3 461.0,153.3 461.3,153.3 461.5,153.3 461.8,153.3 462.0,153.3 462.3,153.3 462.5,153.3 462.8,153.3 463.1,153.3 463.3,153.3 463.6,153.3 463.8,153.3 464.1,153.3 464.3,153.3 464.6,153.3 464.8,153.3 465.1,153.3 465.3,153.3 465.6,153.3 465.8,153.3 466.1,153.3 466.4,153.3 466.6,153.3 466.9,153.3 467.1,153.3 467.4,153.3 467.6,153.3 467.9,153.3 468.1,153.3 468.4,153.3 468.6,153.3 468.9,153.3 469.2,153.3 469.4,153.3 469.7,153.3 469.9,153.3 470.2,153.3 470.4,153.3 470.7,153.3 470.9,153.3 471.2,153.3 471.4,153.3 471.7,153.3 471.9,153.3 472.2,153.3 472.5,153.3 472.7,153.3 473.0,153.3 473.2,153.3 473.5,153.3 473.7,153.3 474.0,153.3 474.2,153.3 474.5,153.3 474.7,153.3 475.0,153.3 475.3,153.3 475.5,153.3 475.8,153.3 476.0,153.3 476.3,153.3 476.5,153.3 476.8,153.3 477.0,153.3 477.3,153.3 477.5,153.3 477.8,153.3 478.0,153.3 478.3,153.3 478.6,153.3 478.8,153.3 479.1,153.3 479.3,153.3 479.6,153.3 479.8,153.3 480.1,153.3 480.3,153.3 480.6,153.3 480.8,153.3 481.1,153.3 481.4,153.3 481.6,153.3 481.9,153.3 482.1,153.3 482.4,153.3 482.6,153.3 482.9,153.3 483.1,153.3 483.4,144.4 483.6,144.4 483.9,144.4 484.1,144.4 484.4,144.4 484.7,144.4 484.9,144.4 485.2,144.4 485.4,144.4 485.7,144.4 485.9,144.4 486.2,144.4 486.4,144.4 486.7,144.4 486.9,144.4 487.2,144.4 487.5,144.4 487.7,144.4 488.0,144.4 488.2,144.4 488.5,144.4 488.7,144.4 489.0,144.4 489.2,144.4 489.5,144.4 489.7,144.4 490.0,144.4 490.2,144.4 490.5,144.4 490.8,144.4 491.0,144.4 491.3,144.4 491.5,144.4 491.8,144.4 492.0,144.4 492.3,144.4 492.5,144.4 492.8,144.4 493.0,144.4 493.3,144.4 493.6,144.4 493.8,144.4 494.1,144.4 494.3,144.4 494.6,144.4 494.8,144.4 495.1,144.4 495.3,144.4 495.6,144.4 495.8,144.4 496.1,144.4 496.3,144.4 496.6,144.4 496.9,144.4 497.1,144.4 497.4,144.4 497.6,144.4 497.9,144.4 498.1,144.4 498.4,144.4 498.6,144.4 498.9,144.4 499.1,144.4 499.4,144.4 499.7,144.4 499.9,144.4 500.2,144.4 500.4,144.4 500.7,144.4 500.9,144.4 501.2,144.4 501.4,144.4 501.7,144.4 501.9,144.4 502.2,144.4 502.4,144.4 502.7,144.4 503.0,144.4 503.2,144.4 503.5,144.4 503.7,144.4 504.0,144.4 504.2,144.4 504.5,144.4 504.7,144.4 505.0,144.4 505.2,144.4 505.5,144.4 505.8,144.4 506.0,144.4 506.3,144.4 506.5,144.4 506.8,144.4 507.0,144.4 507.3,144.4 507.5,144.4 507.8,144.4 508.0,144.4 508.3,144.4 508.5,144.4 508.8,144.4 509.1,144.4 509.3,144.4 509.6,144.4 509.8,144.4 510.1,144.4 510.3,144.4 510.6,144.4 510.8,144.4 511.1,144.4 511.3,144.4 511.6,144.4 511.8,144.4 512.1,144.4 512.4,144.4 512.6,144.4 512.9,144.4 513.1,144.4 513.4,144.4 513.6,144.4 513.9,144.4 514.1,144.4 514.4,144.4 514.6,144.4 514.9,136.6 515.2,136.6 515.4,136.6 515.7,136.6 515.9,136.6 516.2,136.6 516.4,136.6 516.7,136.6 516.9,136.6 517.2,136.6 517.4,136.6 517.7,136.6 517.9,136.6 518.2,136.6 518.5,136.6 518.7,136.6 519.0,136.6 519.2,136.6 519.5,136.6 519.7,136.6 520.0,136.6 520.2,136.6 520.5,136.6 520.7,136.6 521.0,136.6 521.3,136.6 521.5,136.6 521.8,136.6 522.0,136.6 522.3,136.6 522.5,136.6 522.8,136.6 523.0,136.6 523.3,136.6 523.5,136.6 523.8,136.6 524.0,136.6 524.3,136.6 524.6,136.6 524.8,136.6 525.1,136.6 525.3,136.6 525.6,136.6 525.8,136.6 526.1,136.6 526.3,136.6 526.6,136.6 526.8,136.6 527.1,136.6 527.4,136.6 527.6,136.6 527.9,136.6 528.1,136.6 528.4,136.6 528.6,136.6 528.9,136.6 529.1,136.6 529.4,136.6 529.6,136.6 529.9,136.6 530.1,136.6 530.4,136.6 530.7,136.6 530.9,136.6 531.2,136.6 531.4,136.6 531.7,136.6 531.9,136.6 532.2,136.6 532.4,136.6 532.7,136.6 532.9,136.6 533.2,136.6 533.5,136.6 533.7,136.6 534.0,136.6 534.2,136.6 534.5,136.6 534.7,136.6 535.0,136.6 535.2,136.6 535.5,136.6 535.7,136.6 536.0,136.6 536.2,136.6 536.5,136.6 536.8,136.6 537.0,136.6 537.3,136.6 537.5,136.6 537.8,136.6 538.0,136.6 538.3,136.6 538.5,136.6 538.8,136.6 539.0,136.6 539.3,136.6 539.6,136.6 539.8,136.6 540.1,136.6 540.3,136.6 540.6,136.6 540.8,136.6 541.1,136.6 541.3,136.6 541.6,136.6 541.8,136.6 542.1,136.6 542.3,136.6 542.6,136.6 542.9,136.6 543.1,136.6 543.4,136.6 543.6,136.6 543.9,136.6 544.1,136.6 544.4,136.6 544.6,136.6 544.9,136.6 545.1,136.6 545.4,128.3 545.7,128.3 545.9,128.3 546.2,128.3 546.4,128.3 546.7,128.3 546.9,128.3 547.2,128.3 547.4,128.3 547.7,128.3 547.9,128.3 548.2,128.3 548.4,128.3 548.7,128.3 549.0,128.3 549.2,128.3 549.5,128.3 549.7,128.3 550.0,128.3 550.2,128.3 550.5,128.3 550.7,128.3 551.0,128.3 551.2,128.3 551.5,128.3 551.8,128.3 552.0,128.3 552.3,128.3 552.5,128.3 552.8,128.3 553.0,128.3 553.3,128.3 553.5,128.3 553.8,128.3 554.0,128.3 554.3,128.3 554.5,128.3 554.8,128.3 555.1,128.3 555.3,128.3 555.6,128.3 555.8,128.3 556.1,128.3 556.3,128.3 556.6,128.3 556.8,128.3 557.1,128.3 557.3,128.3 557.6,128.3 557.9,128.3 558.1,128.3 558.4,128.3 558.6,128.3 558.9,128.3 559.1,128.3 559.4,128.3 559.6,128.3 559.9,128.3 560.1,128.3 560.4,128.3 560.6,128.3 560.9,128.3 561.2,128.3 561.4,128.3 561.7,128.3 561.9,128.3 562.2,128.3 562.4,128.3 562.7,128.3 562.9,128.3 563.2,128.3 563.4,128.3 563.7,128.3 564.0,128.3 564.2,128.3 564.5,128.3 564.7,128.3 565.0,128.3 565.2,128.3 565.5,128.3 565.7,128.3 566.0,128.3 566.2,128.3 566.5,128.3 566.7,128.3 567.0,128.3 567.3,128.3 567.5,128.3 567.8,128.3 568.0,128.3 568.3,128.3 568.5,128.3 568.8,128.3 569.0,128.3 569.3,128.3 569.5,128.3 569.8,128.3 570.1,128.3 570.3,128.3 570.6,128.3 570.8,128.3 571.1,128.3 571.3,128.3 571.6,128.3 571.8,128.3 572.1,128.3 572.3,128.3 572.6,128.3 572.8,128.3 573.1,128.3 573.4,128.3 573.6,128.3 573.9,128.3 574.1,128.3 574.4,128.3 574.6,128.3 574.9,128.3 575.1,128.3 575.4,128.3 575.6,128.3 575.9,128.3 576.2,128.3 576.4,128.3 576.7,128.3 576.9,128.3 577.2,118.1 577.4,118.1 577.7,118.1 577.9,118.1 578.2,118.1 578.4,118.1 578.7,118.1 578.9,118.1 579.2,118.1 579.5,118.1 579.7,118.1 580.0,118.1 580.2,118.1 580.5,118.1 580.7,118.1 581.0,118.1 581.2,118.1 581.5,118.1 581.7,118.1 582.0,118.1 582.3,118.1 582.5,118.1 582.8,118.1 583.0,118.1 583.3,118.1 583.5,118.1 583.8,118.1 584.0,118.1 584.3,118.1 584.5,118.1 584.8,118.1 585.0,118.1 585.3,118.1 585.6,118.1 585.8,118.1 586.1,118.1 586.3,118.1 586.6,118.1 586.8,118.1 587.1,118.1 587.3,118.1 587.6,118.1 587.8,118.1 588.1,118.1 588.4,118.1 588.6,118.1 588.9,118.1 589.1,118.1 589.4,118.1 589.6,118.1 589.9,118.1 590.1,118.1 590.4,118.1 590.6,118.1 590.9,118.1 591.1,118.1 591.4,118.1 591.7,118.1 591.9,118.1 592.2,118.1 592.4,118.1 592.7,118.1 592.9,118.1 593.2,118.1 593.4,118.1 593.7,118.1 593.9,118.1 594.2,118.1 594.5,118.1 594.7,118.1 595.0,118.1 595.2,118.1 595.5,118.1 595.7,118.1 596.0,118.1 596.2,118.1 596.5,118.1 596.7,118.1 597.0,118.1 597.2,118.1 597.5,118.1 597.8,118.1 598.0,118.1 598.3,118.1 598.5,118.1 598.8,118.1 599.0,118.1 599.3,118.1 599.5,118.1 599.8,118.1 600.0,118.1 600.3,118.1 600.6,118.1 600.8,118.1 601.1,118.1 601.3,118.1 601.6,118.1 601.8,118.1 602.1,118.1 602.3,118.1 602.6,118.1 602.8,118.1 603.1,118.1 603.3,118.1 603.6,118.1 603.9,118.1 604.1,118.1 604.4,118.1 604.6,118.1 604.9,118.1 605.1,118.1 605.4,118.1 605.6,118.1 605.9,118.1 606.1,118.1 606.4,118.1 606.7,118.1 606.9,118.1 607.2,118.1 607.4,112.0 607.7,112.0 607.9,112.0 608.2,112.0 608.4,112.0 608.7,112.0 608.9,112.0 609.2,112.0 609.4,112.0 609.7,112.0 610.0,112.0 610.2,112.0 610.5,112.0 610.7,112.0 611.0,112.0 611.2,112.0 611.5,112.0 611.7,112.0 612.0,112.0 612.2,112.0 612.5,112.0 612.8,112.0 613.0,112.0 613.3,112.0 613.5,112.0 613.8,112.0 614.0,112.0 614.3,112.0 614.5,112.0 614.8,112.0 615.0,112.0 615.3,112.0 615.5,112.0 615.8,112.0 616.1,112.0 616.3,112.0 616.6,112.0 616.8,112.0 617.1,112.0 617.3,112.0 617.6,112.0 617.8,112.0 618.1,112.0 618.3,112.0 618.6,112.0 618.9,112.0 619.1,112.0 619.4,112.0 619.6,112.0 619.9,112.0 620.1,112.0 620.4,112.0 620.6,112.0 620.9,112.0 621.1,112.0 621.4,112.0 621.6,112.0 621.9,112.0 622.2,112.0 622.4,112.0 622.7,112.0 622.9,112.0 623.2,112.0 623.4,112.0 623.7,112.0 623.9,112.0 624.2,112.0 624.4,112.0 624.7,112.0 625.0,112.0 625.2,112.0 625.5,112.0 625.7,112.0 626.0,112.0 626.2,112.0 626.5,112.0 626.7,112.0 627.0,112.0 627.2,112.0 627.5,112.0 627.7,112.0 628.0,112.0 628.3,112.0 628.5,112.0 628.8,112.0 629.0,112.0 629.3,112.0 629.5,112.0 629.8,112.0 630.0,112.0 630.3,112.0 630.5,112.0 630.8,112.0 631.1,112.0 631.3,112.0 631.6,112.0 631.8,112.0 632.1,112.0 632.3,112.0 632.6,112.0 632.8,112.0 633.1,112.0 633.3,112.0 633.6,112.0 633.8,112.0 634.1,112.0 634.4,112.0 634.6,112.0 634.9,112.0 635.1,112.0 635.4,112.0 635.6,112.0 635.9,112.0 636.1,112.0 636.4,112.0 636.6,112.0 636.9,112.0 637.2,112.0 637.4,112.0 637.7,112.0 637.9,112.0 638.2,112.0 638.4,112.0 638.7,112.0 638.9,112.0 639.2,112.0 639.4,104.2 639.7,104.2 639.9,104.2 640.2,104.2 640.5,104.2 640.7,104.2 641.0,104.2 641.2,104.2 641.5,104.2 641.7,104.2 642.0,104.2 642.2,104.2 642.5,104.2 642.7,104.2 643.0,104.2 643.3,104.2 643.5,104.2 643.8,104.2 644.0,104.2 644.3,104.2 644.5,104.2 644.8,104.2 645.0,104.2 645.3,104.2 645.5,104.2 645.8,104.2 646.0,104.2 646.3,104.2 646.6,104.2 646.8,104.2 647.1,104.2 647.3,104.2 647.6,104.2 647.8,104.2 648.1,104.2 648.3,104.2 648.6,104.2 648.8,104.2 649.1,104.2 649.4,104.2 649.6,104.2 649.9,104.2 650.1,104.2 650.4,104.2 650.6,104.2 650.9,104.2 651.1,104.2 651.4,104.2 651.6,104.2 651.9,104.2 652.1,104.2 652.4,104.2 652.7,104.2 652.9,104.2 653.2,104.2 653.4,104.2 653.7,104.2 653.9,104.2 654.2,104.2 654.4,104.2 654.7,104.2 654.9,104.2 655.2,104.2 655.4,104.2 655.7,104.2 656.0,104.2 656.2,104.2 656.5,104.2 656.7,104.2 657.0,104.2 657.2,104.2 657.5,104.2 657.7,104.2 658.0,104.2 658.2,104.2 658.5,104.2 658.8,104.2 659.0,104.2 659.3,104.2 659.5,104.2 659.8,104.2 660.0,104.2 660.3,104.2 660.5,104.2 660.8,104.2 661.0,104.2 661.3,104.2 661.5,104.2 661.8,104.2 662.1,104.2 662.3,104.2 662.6,104.2 662.8,104.2 663.1,104.2 663.3,104.2 663.6,104.2 663.8,104.2 664.1,104.2 664.3,104.2 664.6,104.2 664.9,104.2 665.1,104.2 665.4,104.2 665.6,104.2 665.9,104.2 666.1,104.2 666.4,104.2 666.6,104.2 666.9,104.2 667.1,104.2 667.4,104.2 667.6,104.2 667.9,104.2 668.2,104.2 668.4,104.2 668.7,104.2 668.9,104.2 669.2,104.2 669.4,104.2 669.7,91.5 669.9,91.5 670.2,91.5 670.4,91.5 670.7,91.5 671.0,91.5 671.2,91.5 671.5,91.5 671.7,91.5 672.0,91.5 672.2,91.5 672.5,91.5 672.7,91.5 673.0,91.5 673.2,91.5 673.5,91.5 673.7,91.5 674.0,91.5 674.3,91.5 674.5,91.5 674.8,91.5 675.0,91.5 675.3,91.5 675.5,91.5 675.8,91.5 676.0,91.5 676.3,91.5 676.5,91.5 676.8,91.5 677.1,91.5 677.3,91.5 677.6,91.5 677.8,91.5 678.1,91.5 678.3,91.5 678.6,91.5 678.8,91.5 679.1,91.5 679.3,91.5 679.6,91.5 679.8,91.5 680.1,91.5 680.4,91.5 680.6,91.5 680.9,91.5 681.1,91.5 681.4,91.5 681.6,91.5 681.9,91.5 682.1,91.5 682.4,91.5 682.6,91.5 682.9,91.5 683.2,91.5 683.4,91.5 683.7,91.5 683.9,91.5 684.2,91.5 684.4,91.5 684.7,91.5 684.9,91.5 685.2,91.5 685.4,91.5 685.7,91.5 685.9,91.5 686.2,91.5 686.5,91.5 686.7,91.5 687.0,91.5 687.2,91.5 687.5,91.5 687.7,91.5 688.0,91.5 688.2,91.5 688.5,91.5 688.7,91.5 689.0,91.5 689.3,91.5 689.5,91.5 689.8,91.5 690.0,91.5 690.3,91.5 690.5,91.5 690.8,91.5 691.0,91.5 691.3,91.5 691.5,91.5 691.8,91.5 692.0,91.5 692.3,91.5 692.6,91.5 692.8,91.5 693.1,91.5 693.3,91.5 693.6,91.5 693.8,91.5 694.1,91.5 694.3,91.5 694.6,91.5 694.8,91.5 695.1,91.5 695.4,91.5 695.6,91.5 695.9,91.5 696.1,91.5 696.4,91.5 696.6,91.5 696.9,91.5 697.1,91.5 697.4,91.5 697.6,91.5 697.9,91.5 698.1,91.5 698.4,91.5 698.7,91.5 698.9,91.5 699.2,91.5 699.4,91.5 699.7,91.5 699.9,91.5 700.2,91.5 700.4,91.5 700.7,91.5 700.9,91.5 701.2,91.5 701.5,84.6 701.7,84.6 702.0,84.6 702.2,84.6 702.5,84.6 702.7,84.6 703.0,84.6 703.2,84.6 703.5,84.6 703.7,84.6 704.0,84.6 704.2,84.6 704.5,84.6 704.8,84.6 705.0,84.6 705.3,84.6 705.5,84.6 705.8,84.6 706.0,84.6 706.3,84.6 706.5,84.6 706.8,84.6 707.0,84.6 707.3,84.6 707.6,84.6 707.8,84.6 708.1,84.6 708.3,84.6 708.6,84.6 708.8,84.6 709.1,84.6 709.3,84.6 709.6,84.6 709.8,84.6 710.1,84.6 710.3,84.6 710.6,84.6 710.9,84.6 711.1,84.6 711.4,84.6 711.6,84.6 711.9,84.6 712.1,84.6 712.4,84.6 712.6,84.6 712.9,84.6 713.1,84.6 713.4,84.6 713.7,84.6 713.9,84.6 714.2,84.6 714.4,84.6 714.7,84.6 714.9,84.6 715.2,84.6 715.4,84.6 715.7,84.6 715.9,84.6 716.2,84.6 716.4,84.6 716.7,84.6 717.0,84.6 717.2,84.6 717.5,84.6 717.7,84.6 718.0,84.6 718.2,84.6 718.5,84.6 718.7,84.6 719.0,84.6 719.2,84.6 719.5,84.6 719.8,84.6 720.0,84.6 720.3,84.6 720.5,84.6 720.8,84.6 721.0,84.6 721.3,84.6 721.5,84.6 721.8,84.6 722.0,84.6 722.3,84.6 722.5,84.6 722.8,84.6 723.1,84.6 723.3,84.6 723.6,84.6 723.8,84.6 724.1,84.6 724.3,84.6 724.6,84.6 724.8,84.6 725.1,84.6 725.3,84.6 725.6,84.6 725.9,84.6 726.1,84.6 726.4,84.6 726.6,84.6 726.9,84.6 727.1,84.6 727.4,84.6 727.6,84.6 727.9,84.6 728.1,84.6 728.4,84.6 728.6,84.6 728.9,84.6 729.2,84.6 729.4,84.6 729.7,84.6 729.9,84.6 730.2,84.6 730.4,84.6 730.7,84.6 730.9,84.6 731.2,84.6 731.4,84.6 731.7,76.5 732.0,76.5 732.2,76.5 732.5,76.5 732.7,76.5 733.0,76.5 733.2,76.5 733.5,76.5 733.7,76.5 734.0,76.5 734.2,76.5 734.5,76.5 734.7,76.5 735.0,76.5 735.3,76.5 735.5,76.5 735.8,76.5 736.0,76.5 736.3,76.5 736.5,76.5 736.8,76.5 737.0,76.5 737.3,76.5 737.5,76.5 737.8,76.5 738.1,76.5 738.3,76.5 738.6,76.5 738.8,76.5 739.1,76.5 739.3,76.5 739.6,76.5 739.8,76.5 740.1,76.5 740.3,76.5 740.6,76.5 740.8,76.5 741.1,76.5 741.4,76.5 741.6,76.5 741.9,76.5 742.1,76.5 742.4,76.5 742.6,76.5 742.9,76.5 743.1,76.5 743.4,76.5 743.6,76.5 743.9,76.5 744.2,76.5 744.4,76.5 744.7,76.5 744.9,76.5 745.2,76.5 745.4,76.5 745.7,76.5 745.9,76.5 746.2,76.5 746.4,76.5 746.7,76.5 746.9,76.5 747.2,76.5 747.5,76.5 747.7,76.5 748.0,76.5 748.2,76.5 748.5,76.5 748.7,76.5 749.0,76.5 749.2,76.5 749.5,76.5 749.7,76.5 750.0,76.5 750.3,151.0 750.5,151.0 750.8,151.0 751.0,151.0 751.3,151.0 751.5,151.0 751.8,151.0 752.0,151.0 752.3,151.0 752.5,151.0 752.8,151.0 753.0,151.0 753.3,151.0 753.6,151.0 753.8,151.0 754.1,151.0 754.3,151.0 754.6,151.0 754.8,151.0 755.1,151.0 755.3,151.0 755.6,151.0 755.8,151.0 756.1,151.0 756.4,151.0 756.6,151.0 756.9,151.0 757.1,151.0 757.4,151.0 757.6,151.0 757.9,151.0 758.1,151.0 758.4,151.0 758.6,151.0 758.9,151.0 759.1,151.0 759.4,151.0 759.7,151.0 759.9,151.0 760.2,151.0 760.4,151.0 760.7,151.0 760.9,151.0 761.2,151.0 761.4,151.0 761.7,151.0 761.9,151.0 762.2,151.0 762.5,151.0 762.7,151.0 763.0,151.0 763.2,144.3 763.5,144.3 763.7,144.3 764.0,144.3 764.2,144.3 764.5,144.3 764.7,144.3 765.0,144.3 765.2,144.3 765.5,144.3 765.8,144.3 766.0,144.3 766.3,144.3 766.5,144.3 766.8,144.3 767.0,144.3 767.3,144.3 767.5,144.3 767.8,144.3 768.0,144.3 768.3,144.3 768.6,144.3 768.8,144.3 769.1,144.3 769.3,144.3 769.6,144.3 769.8,144.3 770.1,144.3 770.3,144.3 770.6,144.3 770.8,144.3 771.1,144.3 771.3,144.3 771.6,144.3 771.9,144.3 772.1,144.3 772.4,144.3 772.6,144.3 772.9,144.3 773.1,144.3 773.4,144.3 773.6,144.3 773.9,144.3 774.1,144.3 774.4,144.3 774.7,144.3 774.9,144.3 775.2,144.3 775.4,144.3 775.7,144.3 775.9,144.3 776.2,144.3 776.4,144.3 776.7,144.3 776.9,144.3 777.2,144.3 777.4,144.3 777.7,144.3 778.0,144.3 778.2,144.3 778.5,144.3 778.7,144.3 779.0,144.3 779.2,144.3 779.5,144.3 779.7,144.3 780.0,144.3 780.2,144.3 780.5,144.3 780.8,144.3 781.0,144.3 781.3,144.3 781.5,144.3 781.8,144.3 782.0,144.3 782.3,144.3 782.5,144.3 782.8,144.3 783.0,144.3 783.3,144.3 783.5,144.3 783.8,144.3 784.1,144.3 784.3,144.3 784.6,144.3 784.8,144.3 785.1,144.3 785.3,144.3 785.6,144.3 785.8,144.3 786.1,144.3 786.3,144.3 786.6,144.3 786.9,144.3 787.1,144.3 787.4,144.3 787.6,144.3 787.9,144.3 788.1,144.3 788.4,144.3 788.6,144.3 788.9,144.3 789.1,144.3 789.4,144.3 789.6,144.3 789.9,144.3 790.2,144.3 790.4,144.3 790.7,144.3 790.9,144.3 791.2,144.3 791.4,144.3 791.7,144.3 791.9,144.3 792.2,144.3 792.4,144.3 792.7,144.3 793.0,144.3 793.2,144.3 793.5,144.3 793.7,144.3 794.0,144.3 794.2,144.3 794.5,132.2 794.7,132.2 795.0,132.2 795.2,132.2 795.5,132.2 795.7,132.2 796.0,132.2"/><polyline fill="none" stroke="#16a34a" stroke-width="3" points="78.0,317.5 78.3,317.5 78.5,317.5 78.8,317.5 79.0,317.5 79.3,317.5 79.5,317.5 79.8,317.5 80.0,317.5 80.3,317.5 80.5,317.5 80.8,317.5 81.0,317.5 81.3,317.5 81.6,317.5 81.8,317.5 82.1,317.5 82.3,317.5 82.6,317.5 82.8,317.5 83.1,317.5 83.3,317.5 83.6,317.5 83.8,317.5 84.1,317.5 84.4,317.5 84.6,317.5 84.9,317.5 85.1,317.5 85.4,317.5 85.6,317.5 85.9,317.5 86.1,317.5 86.4,317.5 86.6,317.5 86.9,317.5 87.1,317.5 87.4,317.5 87.7,317.5 87.9,317.5 88.2,317.5 88.4,317.5 88.7,317.5 88.9,317.5 89.2,317.5 89.4,317.5 89.7,317.5 89.9,317.5 90.2,317.5 90.5,317.5 90.7,317.5 91.0,317.5 91.2,317.5 91.5,317.5 91.7,317.5 92.0,317.5 92.2,317.5 92.5,317.5 92.7,317.5 93.0,317.5 93.2,317.5 93.5,317.5 93.8,317.5 94.0,317.5 94.3,317.5 94.5,317.5 94.8,317.5 95.0,317.5 95.3,317.5 95.5,317.5 95.8,317.5 96.0,317.5 96.3,317.5 96.6,317.5 96.8,317.5 97.1,317.5 97.3,317.5 97.6,317.5 97.8,317.5 98.1,317.5 98.3,317.5 98.6,317.5 98.8,317.5 99.1,317.5 99.3,317.5 99.6,317.5 99.9,317.5 100.1,317.5 100.4,317.5 100.6,317.5 100.9,317.5 101.1,317.5 101.4,317.5 101.6,317.5 101.9,317.5 102.1,317.5 102.4,317.5 102.7,317.5 102.9,317.5 103.2,317.5 103.4,317.5 103.7,317.5 103.9,317.5 104.2,317.5 104.4,317.5 104.7,317.5 104.9,317.5 105.2,317.5 105.4,317.5 105.7,317.5 106.0,317.5 106.2,317.5 106.5,317.5 106.7,317.5 107.0,317.5 107.2,317.5 107.5,317.5 107.7,317.5 108.0,317.5 108.2,317.5 108.5,317.5 108.8,317.5 109.0,317.5 109.3,317.5 109.5,317.5 109.8,317.5 110.0,317.5 110.3,317.5 110.5,317.5 110.8,317.5 111.0,317.5 111.3,317.5 111.5,317.5 111.8,317.5 112.1,317.5 112.3,317.5 112.6,317.5 112.8,317.5 113.1,317.5 113.3,317.5 113.6,317.5 113.8,317.5 114.1,317.5 114.3,317.5 114.6,317.5 114.9,317.5 115.1,317.5 115.4,317.5 115.6,317.5 115.9,317.5 116.1,317.5 116.4,317.5 116.6,317.5 116.9,317.5 117.1,317.5 117.4,317.5 117.6,317.5 117.9,317.5 118.2,317.5 118.4,317.5 118.7,317.5 118.9,317.5 119.2,317.5 119.4,317.5 119.7,317.5 119.9,317.5 120.2,317.5 120.4,317.5 120.7,317.5 121.0,317.5 121.2,317.5 121.5,317.5 121.7,317.5 122.0,317.5 122.2,317.5 122.5,317.5 122.7,317.5 123.0,317.5 123.2,317.5 123.5,317.5 123.7,317.5 124.0,317.5 124.3,317.5 124.5,317.5 124.8,317.5 125.0,317.5 125.3,317.5 125.5,317.5 125.8,317.5 126.0,317.5 126.3,317.5 126.5,317.5 126.8,317.5 127.1,317.5 127.3,317.5 127.6,317.5 127.8,317.5 128.1,317.5 128.3,317.5 128.6,317.5 128.8,317.5 129.1,317.5 129.3,317.5 129.6,317.5 129.8,317.5 130.1,317.5 130.4,317.5 130.6,317.5 130.9,317.5 131.1,317.5 131.4,317.5 131.6,317.5 131.9,317.5 132.1,317.5 132.4,317.5 132.6,317.5 132.9,317.5 133.2,317.5 133.4,317.5 133.7,317.5 133.9,317.5 134.2,317.5 134.4,317.5 134.7,317.5 134.9,317.5 135.2,317.5 135.4,317.5 135.7,317.5 135.9,317.5 136.2,317.5 136.5,317.5 136.7,317.5 137.0,317.5 137.2,317.5 137.5,317.5 137.7,317.5 138.0,317.5 138.2,317.5 138.5,317.5 138.7,317.5 139.0,275.1 139.3,275.1 139.5,275.1 139.8,275.1 140.0,275.1 140.3,275.1 140.5,275.1 140.8,275.1 141.0,275.1 141.3,275.1 141.5,275.1 141.8,275.1 142.0,275.1 142.3,275.1 142.6,275.1 142.8,275.1 143.1,275.1 143.3,275.1 143.6,275.1 143.8,275.1 144.1,275.1 144.3,275.1 144.6,275.1 144.8,275.1 145.1,275.1 145.4,275.1 145.6,275.1 145.9,275.1 146.1,275.1 146.4,275.1 146.6,275.1 146.9,275.1 147.1,275.1 147.4,275.1 147.6,275.1 147.9,275.1 148.1,275.1 148.4,275.1 148.7,275.1 148.9,275.1 149.2,275.1 149.4,275.1 149.7,275.1 149.9,275.1 150.2,275.1 150.4,275.1 150.7,275.1 150.9,275.1 151.2,275.1 151.5,275.1 151.7,275.1 152.0,275.1 152.2,275.1 152.5,275.1 152.7,275.1 153.0,275.1 153.2,275.1 153.5,275.1 153.7,275.1 154.0,275.1 154.2,275.1 154.5,275.1 154.8,275.1 155.0,275.1 155.3,275.1 155.5,275.1 155.8,275.1 156.0,275.1 156.3,275.1 156.5,275.1 156.8,275.1 157.0,275.1 157.3,275.1 157.6,275.1 157.8,275.1 158.1,275.1 158.3,275.1 158.6,275.1 158.8,275.1 159.1,275.1 159.3,275.1 159.6,275.1 159.8,275.1 160.1,275.1 160.3,275.1 160.6,275.1 160.9,275.1 161.1,275.1 161.4,275.1 161.6,275.1 161.9,275.1 162.1,275.1 162.4,275.1 162.6,275.1 162.9,275.1 163.1,275.1 163.4,275.1 163.7,275.1 163.9,275.1 164.2,275.1 164.4,275.1 164.7,275.1 164.9,275.1 165.2,275.1 165.4,275.1 165.7,275.1 165.9,275.1 166.2,275.1 166.4,275.1 166.7,275.1 167.0,275.1 167.2,275.1 167.5,275.1 167.7,275.1 168.0,275.1 168.2,275.1 168.5,275.1 168.7,275.1 169.0,275.1 169.2,275.1 169.5,275.1 169.8,275.1 170.0,275.1 170.3,275.1 170.5,275.1 170.8,275.1 171.0,275.1 171.3,275.1 171.5,275.1 171.8,275.1 172.0,275.1 172.3,275.1 172.5,275.1 172.8,275.1 173.1,275.1 173.3,275.1 173.6,275.1 173.8,275.1 174.1,275.1 174.3,275.1 174.6,275.1 174.8,275.1 175.1,275.1 175.3,275.1 175.6,275.1 175.9,275.1 176.1,275.1 176.4,275.1 176.6,275.1 176.9,275.1 177.1,275.1 177.4,275.1 177.6,275.1 177.9,275.1 178.1,275.1 178.4,275.1 178.6,275.1 178.9,275.1 179.2,275.1 179.4,275.1 179.7,275.1 179.9,275.1 180.2,275.1 180.4,275.1 180.7,275.1 180.9,275.1 181.2,275.1 181.4,275.1 181.7,275.1 182.0,275.1 182.2,275.1 182.5,275.1 182.7,275.1 183.0,275.1 183.2,275.1 183.5,275.1 183.7,275.1 184.0,275.1 184.2,275.1 184.5,275.1 184.7,275.1 185.0,275.1 185.3,275.1 185.5,275.1 185.8,275.1 186.0,275.1 186.3,275.1 186.5,275.1 186.8,275.1 187.0,275.1 187.3,275.1 187.5,275.1 187.8,275.1 188.1,275.1 188.3,275.1 188.6,275.1 188.8,275.1 189.1,275.1 189.3,275.1 189.6,275.1 189.8,275.1 190.1,275.1 190.3,275.1 190.6,275.1 190.8,275.1 191.1,275.1 191.4,275.1 191.6,275.1 191.9,275.1 192.1,275.1 192.4,275.1 192.6,275.1 192.9,275.1 193.1,275.1 193.4,275.1 193.6,275.1 193.9,275.1 194.2,275.1 194.4,275.1 194.7,275.1 194.9,275.1 195.2,275.1 195.4,275.1 195.7,275.1 195.9,275.1 196.2,275.1 196.4,275.1 196.7,275.1 196.9,275.1 197.2,275.1 197.5,275.1 197.7,275.1 198.0,275.1 198.2,275.1 198.5,275.1 198.7,275.1 199.0,275.1 199.2,275.1 199.5,275.1 199.7,275.1 200.0,275.1 200.3,275.1 200.5,275.1 200.8,275.1 201.0,275.1 201.3,275.1 201.5,275.1 201.8,275.1 202.0,275.1 202.3,275.1 202.5,275.1 202.8,275.1 203.0,275.1 203.3,275.1 203.6,275.1 203.8,275.1 204.1,275.1 204.3,275.1 204.6,275.1 204.8,275.1 205.1,275.1 205.3,275.1 205.6,275.1 205.8,275.1 206.1,275.1 206.4,275.1 206.6,275.1 206.9,275.1 207.1,275.1 207.4,275.1 207.6,275.1 207.9,275.1 208.1,275.1 208.4,275.1 208.6,275.1 208.9,275.1 209.1,275.1 209.4,275.1 209.7,275.1 209.9,275.1 210.2,275.1 210.4,275.1 210.7,275.1 210.9,275.1 211.2,275.1 211.4,275.1 211.7,275.1 211.9,275.1 212.2,275.1 212.5,275.1 212.7,275.1 213.0,275.1 213.2,275.1 213.5,275.1 213.7,275.1 214.0,275.1 214.2,275.1 214.5,275.1 214.7,275.1 215.0,275.1 215.2,275.1 215.5,275.1 215.8,275.1 216.0,275.1 216.3,275.1 216.5,275.1 216.8,275.1 217.0,275.1 217.3,275.1 217.5,275.1 217.8,275.1 218.0,275.1 218.3,275.1 218.6,275.1 218.8,275.1 219.1,275.1 219.3,275.1 219.6,275.1 219.8,275.1 220.1,275.1 220.3,275.1 220.6,275.1 220.8,275.1 221.1,275.1 221.3,275.1 221.6,275.1 221.9,275.1 222.1,275.1 222.4,275.1 222.6,275.1 222.9,275.1 223.1,275.1 223.4,275.1 223.6,275.1 223.9,275.1 224.1,275.1 224.4,275.1 224.6,275.1 224.9,275.1 225.2,275.1 225.4,275.1 225.7,275.1 225.9,275.1 226.2,275.1 226.4,275.1 226.7,275.1 226.9,275.1 227.2,275.1 227.4,275.1 227.7,275.1 228.0,275.1 228.2,275.1 228.5,275.1 228.7,275.1 229.0,275.1 229.2,275.1 229.5,275.1 229.7,275.1 230.0,275.1 230.2,275.1 230.5,275.1 230.7,275.1 231.0,275.1 231.3,275.1 231.5,275.1 231.8,275.1 232.0,275.1 232.3,275.1 232.5,275.1 232.8,275.1 233.0,275.1 233.3,275.1 233.5,275.1 233.8,275.1 234.1,275.1 234.3,275.1 234.6,275.1 234.8,275.1 235.1,275.1 235.3,275.1 235.6,275.1 235.8,275.1 236.1,275.1 236.3,275.1 236.6,275.1 236.8,275.1 237.1,275.1 237.4,275.1 237.6,275.1 237.9,275.1 238.1,275.1 238.4,275.1 238.6,275.1 238.9,275.1 239.1,275.1 239.4,275.1 239.6,275.1 239.9,275.1 240.2,275.1 240.4,275.1 240.7,275.1 240.9,275.1 241.2,275.1 241.4,275.1 241.7,275.1 241.9,275.1 242.2,275.1 242.4,275.1 242.7,275.1 242.9,275.1 243.2,275.1 243.5,275.1 243.7,275.1 244.0,275.1 244.2,275.1 244.5,275.1 244.7,275.1 245.0,275.1 245.2,275.1 245.5,275.1 245.7,275.1 246.0,275.1 246.3,275.1 246.5,275.1 246.8,275.1 247.0,275.1 247.3,275.1 247.5,275.1 247.8,275.1 248.0,275.1 248.3,275.1 248.5,275.1 248.8,275.1 249.0,275.1 249.3,275.1 249.6,275.1 249.8,275.1 250.1,275.1 250.3,275.1 250.6,275.1 250.8,275.1 251.1,275.1 251.3,275.1 251.6,275.1 251.8,275.1 252.1,275.1 252.4,275.1 252.6,275.1 252.9,275.1 253.1,275.1 253.4,275.1 253.6,275.1 253.9,275.1 254.1,275.1 254.4,275.1 254.6,275.1 254.9,275.1 255.1,275.1 255.4,275.1 255.7,275.1 255.9,275.1 256.2,275.1 256.4,275.1 256.7,275.1 256.9,275.1 257.2,275.1 257.4,275.1 257.7,275.1 257.9,275.1 258.2,275.1 258.5,275.1 258.7,275.1 259.0,275.1 259.2,275.1 259.5,275.1 259.7,275.1 260.0,275.1 260.2,275.1 260.5,275.1 260.7,275.1 261.0,275.1 261.2,275.1 261.5,275.1 261.8,275.1 262.0,275.1 262.3,275.1 262.5,275.1 262.8,275.1 263.0,275.1 263.3,275.1 263.5,275.1 263.8,275.1 264.0,275.1 264.3,275.1 264.6,275.1 264.8,275.1 265.1,275.1 265.3,275.1 265.6,275.1 265.8,275.1 266.1,275.1 266.3,275.1 266.6,275.1 266.8,275.1 267.1,275.1 267.3,275.1 267.6,275.1 267.9,275.1 268.1,275.1 268.4,275.1 268.6,275.1 268.9,275.1 269.1,275.1 269.4,275.1 269.6,275.1 269.9,275.1 270.1,275.1 270.4,275.1 270.7,275.1 270.9,275.1 271.2,275.1 271.4,275.1 271.7,275.1 271.9,275.1 272.2,275.1 272.4,275.1 272.7,275.1 272.9,275.1 273.2,275.1 273.4,275.1 273.7,275.1 274.0,275.1 274.2,275.1 274.5,275.1 274.7,275.1 275.0,275.1 275.2,275.1 275.5,275.1 275.7,221.2 276.0,221.2 276.2,221.2 276.5,221.2 276.8,221.2 277.0,221.2 277.3,221.2 277.5,221.2 277.8,221.2 278.0,221.2 278.3,221.2 278.5,221.2 278.8,221.2 279.0,221.2 279.3,221.2 279.5,221.2 279.8,221.2 280.1,221.2 280.3,221.2 280.6,221.2 280.8,221.2 281.1,221.2 281.3,221.2 281.6,221.2 281.8,221.2 282.1,221.2 282.3,221.2 282.6,221.2 282.9,221.2 283.1,221.2 283.4,221.2 283.6,221.2 283.9,221.2 284.1,221.2 284.4,221.2 284.6,221.2 284.9,221.2 285.1,221.2 285.4,221.2 285.6,221.2 285.9,221.2 286.2,221.2 286.4,221.2 286.7,221.2 286.9,221.2 287.2,221.2 287.4,221.2 287.7,221.2 287.9,221.2 288.2,221.2 288.4,221.2 288.7,221.2 289.0,221.2 289.2,221.2 289.5,221.2 289.7,221.2 290.0,221.2 290.2,221.2 290.5,221.2 290.7,221.2 291.0,221.2 291.2,221.2 291.5,221.2 291.7,221.2 292.0,221.2 292.3,221.2 292.5,221.2 292.8,221.2 293.0,221.2 293.3,221.2 293.5,221.2 293.8,221.2 294.0,221.2 294.3,221.2 294.5,221.2 294.8,221.2 295.1,221.2 295.3,221.2 295.6,221.2 295.8,221.2 296.1,221.2 296.3,221.2 296.6,221.2 296.8,221.2 297.1,221.2 297.3,221.2 297.6,221.2 297.8,221.2 298.1,221.2 298.4,221.2 298.6,221.2 298.9,221.2 299.1,221.2 299.4,221.2 299.6,221.2 299.9,221.2 300.1,221.2 300.4,221.2 300.6,221.2 300.9,221.2 301.2,221.2 301.4,221.2 301.7,221.2 301.9,221.2 302.2,221.2 302.4,221.2 302.7,221.2 302.9,221.2 303.2,221.2 303.4,221.2 303.7,221.2 303.9,221.2 304.2,221.2 304.5,221.2 304.7,221.2 305.0,221.2 305.2,221.2 305.5,221.2 305.7,221.2 306.0,221.2 306.2,221.2 306.5,221.2 306.7,221.2 307.0,221.2 307.3,221.2 307.5,221.2 307.8,221.2 308.0,221.2 308.3,221.2 308.5,221.2 308.8,221.2 309.0,221.2 309.3,221.2 309.5,221.2 309.8,221.2 310.0,221.2 310.3,221.2 310.6,221.2 310.8,221.2 311.1,221.2 311.3,221.2 311.6,221.2 311.8,221.2 312.1,221.2 312.3,221.2 312.6,221.2 312.8,221.2 313.1,221.2 313.4,221.2 313.6,221.2 313.9,221.2 314.1,221.2 314.4,221.2 314.6,221.2 314.9,221.2 315.1,221.2 315.4,221.2 315.6,221.2 315.9,221.2 316.1,221.2 316.4,221.2 316.7,221.2 316.9,221.2 317.2,221.2 317.4,221.2 317.7,221.2 317.9,221.2 318.2,221.2 318.4,221.2 318.7,221.2 318.9,221.2 319.2,221.2 319.5,221.2 319.7,221.2 320.0,221.2 320.2,221.2 320.5,221.2 320.7,221.2 321.0,221.2 321.2,221.2 321.5,221.2 321.7,221.2 322.0,221.2 322.2,221.2 322.5,221.2 322.8,221.2 323.0,221.2 323.3,221.2 323.5,221.2 323.8,221.2 324.0,221.2 324.3,221.2 324.5,221.2 324.8,221.2 325.0,221.2 325.3,221.2 325.6,221.2 325.8,221.2 326.1,221.2 326.3,221.2 326.6,221.2 326.8,221.2 327.1,221.2 327.3,221.2 327.6,221.2 327.8,221.2 328.1,221.2 328.3,221.2 328.6,221.2 328.9,221.2 329.1,221.2 329.4,221.2 329.6,221.2 329.9,221.2 330.1,221.2 330.4,221.2 330.6,221.2 330.9,221.2 331.1,221.2 331.4,221.2 331.7,221.2 331.9,221.2 332.2,221.2 332.4,221.2 332.7,221.2 332.9,221.2 333.2,221.2 333.4,221.2 333.7,221.2 333.9,221.2 334.2,221.2 334.4,221.2 334.7,221.2 335.0,221.2 335.2,221.2 335.5,221.2 335.7,221.2 336.0,221.2 336.2,221.2 336.5,221.2 336.7,221.2 337.0,221.2 337.2,221.2 337.5,221.2 337.8,221.2 338.0,221.2 338.3,221.2 338.5,221.2 338.8,221.2 339.0,221.2 339.3,221.2 339.5,221.2 339.8,221.2 340.0,221.2 340.3,221.2 340.5,221.2 340.8,221.2 341.1,221.2 341.3,221.2 341.6,221.2 341.8,221.2 342.1,221.2 342.3,221.2 342.6,221.2 342.8,221.2 343.1,221.2 343.3,221.2 343.6,221.2 343.9,221.2 344.1,221.2 344.4,221.2 344.6,221.2 344.9,221.2 345.1,221.2 345.4,221.2 345.6,221.2 345.9,221.2 346.1,221.2 346.4,221.2 346.6,221.2 346.9,221.2 347.2,221.2 347.4,221.2 347.7,221.2 347.9,221.2 348.2,221.2 348.4,221.2 348.7,221.2 348.9,221.2 349.2,221.2 349.4,221.2 349.7,221.2 350.0,221.2 350.2,221.2 350.5,221.2 350.7,221.2 351.0,221.2 351.2,221.2 351.5,221.2 351.7,221.2 352.0,221.2 352.2,221.2 352.5,221.2 352.7,221.2 353.0,221.2 353.3,221.2 353.5,221.2 353.8,221.2 354.0,221.2 354.3,221.2 354.5,221.2 354.8,221.2 355.0,221.2 355.3,221.2 355.5,221.2 355.8,221.2 356.1,221.2 356.3,221.2 356.6,221.2 356.8,221.2 357.1,221.2 357.3,221.2 357.6,221.2 357.8,221.2 358.1,221.2 358.3,221.2 358.6,221.2 358.8,221.2 359.1,221.2 359.4,221.2 359.6,221.2 359.9,221.2 360.1,221.2 360.4,221.2 360.6,221.2 360.9,221.2 361.1,221.2 361.4,221.2 361.6,221.2 361.9,221.2 362.2,221.2 362.4,221.2 362.7,221.2 362.9,221.2 363.2,221.2 363.4,221.2 363.7,221.2 363.9,221.2 364.2,221.2 364.4,221.2 364.7,221.2 364.9,221.2 365.2,221.2 365.5,221.2 365.7,221.2 366.0,221.2 366.2,221.2 366.5,221.2 366.7,221.2 367.0,221.2 367.2,221.2 367.5,221.2 367.7,221.2 368.0,221.2 368.2,221.2 368.5,221.2 368.8,221.2 369.0,221.2 369.3,221.2 369.5,221.2 369.8,221.2 370.0,221.2 370.3,221.2 370.5,221.2 370.8,221.2 371.0,221.2 371.3,221.2 371.6,221.2 371.8,221.2 372.1,221.2 372.3,221.2 372.6,221.2 372.8,221.2 373.1,221.2 373.3,221.2 373.6,221.2 373.8,221.2 374.1,221.2 374.3,221.2 374.6,221.2 374.9,221.2 375.1,221.2 375.4,221.2 375.6,221.2 375.9,221.2 376.1,221.2 376.4,221.2 376.6,221.2 376.9,221.2 377.1,221.2 377.4,221.2 377.7,221.2 377.9,221.2 378.2,221.2 378.4,221.2 378.7,221.2 378.9,221.2 379.2,221.2 379.4,221.2 379.7,221.2 379.9,221.2 380.2,221.2 380.4,221.2 380.7,221.2 381.0,221.2 381.2,221.2 381.5,221.2 381.7,221.2 382.0,221.2 382.2,221.2 382.5,221.2 382.7,221.2 383.0,221.2 383.2,221.2 383.5,221.2 383.8,221.2 384.0,221.2 384.3,221.2 384.5,221.2 384.8,221.2 385.0,221.2 385.3,221.2 385.5,221.2 385.8,221.2 386.0,221.2 386.3,221.2 386.5,221.2 386.8,221.2 387.1,221.2 387.3,221.2 387.6,221.2 387.8,221.2 388.1,221.2 388.3,221.2 388.6,221.2 388.8,221.2 389.1,221.2 389.3,221.2 389.6,221.2 389.9,221.2 390.1,221.2 390.4,221.2 390.6,221.2 390.9,221.2 391.1,221.2 391.4,221.2 391.6,221.2 391.9,221.2 392.1,221.2 392.4,221.2 392.6,221.2 392.9,221.2 393.2,221.2 393.4,221.2 393.7,221.2 393.9,221.2 394.2,221.2 394.4,221.2 394.7,221.2 394.9,221.2 395.2,221.2 395.4,221.2 395.7,221.2 396.0,221.2 396.2,221.2 396.5,162.6 396.7,162.6 397.0,162.6 397.2,162.6 397.5,162.6 397.7,162.6 398.0,162.6 398.2,162.6 398.5,162.6 398.7,162.6 399.0,162.6 399.3,162.6 399.5,162.6 399.8,162.6 400.0,162.6 400.3,162.6 400.5,162.6 400.8,162.6 401.0,162.6 401.3,162.6 401.5,162.6 401.8,162.6 402.1,162.6 402.3,162.6 402.6,162.6 402.8,162.6 403.1,162.6 403.3,162.6 403.6,162.6 403.8,162.6 404.1,162.6 404.3,162.6 404.6,162.6 404.8,162.6 405.1,162.6 405.4,162.6 405.6,162.6 405.9,162.6 406.1,162.6 406.4,162.6 406.6,162.6 406.9,162.6 407.1,162.6 407.4,162.6 407.6,162.6 407.9,162.6 408.2,162.6 408.4,162.6 408.7,162.6 408.9,162.6 409.2,162.6 409.4,162.6 409.7,162.6 409.9,162.6 410.2,162.6 410.4,162.6 410.7,162.6 410.9,162.6 411.2,162.6 411.5,162.6 411.7,162.6 412.0,162.6 412.2,162.6 412.5,162.6 412.7,162.6 413.0,162.6 413.2,162.6 413.5,162.6 413.7,162.6 414.0,162.6 414.3,162.6 414.5,162.6 414.8,162.6 415.0,162.6 415.3,162.6 415.5,162.6 415.8,162.6 416.0,162.6 416.3,162.6 416.5,162.6 416.8,162.6 417.0,162.6 417.3,162.6 417.6,162.6 417.8,162.6 418.1,162.6 418.3,162.6 418.6,162.6 418.8,162.6 419.1,162.6 419.3,162.6 419.6,162.6 419.8,162.6 420.1,162.6 420.4,162.6 420.6,162.6 420.9,162.6 421.1,162.6 421.4,162.6 421.6,162.6 421.9,162.6 422.1,162.6 422.4,162.6 422.6,162.6 422.9,162.6 423.1,162.6 423.4,162.6 423.7,162.6 423.9,162.6 424.2,162.6 424.4,162.6 424.7,162.6 424.9,162.6 425.2,162.6 425.4,162.6 425.7,162.6 425.9,162.6 426.2,162.6 426.5,162.6 426.7,162.6 427.0,162.6 427.2,162.6 427.5,162.6 427.7,162.6 428.0,162.6 428.2,162.6 428.5,162.6 428.7,162.6 429.0,162.6 429.2,162.6 429.5,162.6 429.8,162.6 430.0,162.6 430.3,162.6 430.5,162.6 430.8,162.6 431.0,162.6 431.3,162.6 431.5,162.6 431.8,162.6 432.0,162.6 432.3,162.6 432.6,162.6 432.8,162.6 433.1,162.6 433.3,162.6 433.6,162.6 433.8,162.6 434.1,162.6 434.3,162.6 434.6,162.6 434.8,162.6 435.1,162.6 435.3,162.6 435.6,162.6 435.9,162.6 436.1,162.6 436.4,162.6 436.6,162.6 436.9,162.6 437.1,162.6 437.4,162.6 437.6,162.6 437.9,162.6 438.1,162.6 438.4,162.6 438.7,162.6 438.9,162.6 439.2,162.6 439.4,162.6 439.7,162.6 439.9,162.6 440.2,162.6 440.4,162.6 440.7,162.6 440.9,162.6 441.2,162.6 441.4,162.6 441.7,162.6 442.0,162.6 442.2,162.6 442.5,162.6 442.7,162.6 443.0,162.6 443.2,162.6 443.5,162.6 443.7,162.6 444.0,162.6 444.2,162.6 444.5,162.6 444.8,162.6 445.0,162.6 445.3,162.6 445.5,162.6 445.8,162.6 446.0,162.6 446.3,162.6 446.5,162.6 446.8,162.6 447.0,162.6 447.3,162.6 447.5,162.6 447.8,162.6 448.1,162.6 448.3,162.6 448.6,162.6 448.8,162.6 449.1,162.6 449.3,162.6 449.6,162.6 449.8,162.6 450.1,162.6 450.3,162.6 450.6,162.6 450.9,162.6 451.1,162.6 451.4,162.6 451.6,162.6 451.9,162.6 452.1,162.6 452.4,162.6 452.6,153.3 452.9,153.3 453.1,153.3 453.4,153.3 453.6,153.3 453.9,153.3 454.2,153.3 454.4,153.3 454.7,153.3 454.9,153.3 455.2,153.3 455.4,153.3 455.7,153.3 455.9,153.3 456.2,153.3 456.4,153.3 456.7,153.3 457.0,153.3 457.2,153.3 457.5,153.3 457.7,153.3 458.0,153.3 458.2,153.3 458.5,153.3 458.7,153.3 459.0,153.3 459.2,153.3 459.5,153.3 459.7,153.3 460.0,153.3 460.3,153.3 460.5,153.3 460.8,153.3 461.0,153.3 461.3,153.3 461.5,153.3 461.8,153.3 462.0,153.3 462.3,153.3 462.5,153.3 462.8,153.3 463.1,153.3 463.3,153.3 463.6,153.3 463.8,153.3 464.1,153.3 464.3,153.3 464.6,153.3 464.8,153.3 465.1,153.3 465.3,153.3 465.6,153.3 465.8,153.3 466.1,153.3 466.4,153.3 466.6,153.3 466.9,153.3 467.1,153.3 467.4,153.3 467.6,153.3 467.9,153.3 468.1,153.3 468.4,153.3 468.6,153.3 468.9,153.3 469.2,153.3 469.4,153.3 469.7,153.3 469.9,153.3 470.2,153.3 470.4,153.3 470.7,153.3 470.9,153.3 471.2,153.3 471.4,153.3 471.7,153.3 471.9,153.3 472.2,153.3 472.5,153.3 472.7,153.3 473.0,153.3 473.2,153.3 473.5,153.3 473.7,153.3 474.0,153.3 474.2,153.3 474.5,153.3 474.7,153.3 475.0,153.3 475.3,153.3 475.5,153.3 475.8,153.3 476.0,153.3 476.3,153.3 476.5,153.3 476.8,153.3 477.0,153.3 477.3,153.3 477.5,153.3 477.8,153.3 478.0,153.3 478.3,153.3 478.6,153.3 478.8,153.3 479.1,153.3 479.3,153.3 479.6,153.3 479.8,153.3 480.1,153.3 480.3,153.3 480.6,153.3 480.8,153.3 481.1,153.3 481.4,153.3 481.6,153.3 481.9,153.3 482.1,153.3 482.4,153.3 482.6,153.3 482.9,153.3 483.1,153.3 483.4,144.4 483.6,144.4 483.9,144.4 484.1,144.4 484.4,144.4 484.7,144.4 484.9,144.4 485.2,144.4 485.4,144.4 485.7,144.4 485.9,144.4 486.2,144.4 486.4,144.4 486.7,144.4 486.9,144.4 487.2,144.4 487.5,144.4 487.7,144.4 488.0,144.4 488.2,144.4 488.5,144.4 488.7,144.4 489.0,144.4 489.2,144.4 489.5,144.4 489.7,144.4 490.0,144.4 490.2,144.4 490.5,144.4 490.8,144.4 491.0,144.4 491.3,144.4 491.5,144.4 491.8,144.4 492.0,144.4 492.3,144.4 492.5,144.4 492.8,144.4 493.0,144.4 493.3,144.4 493.6,144.4 493.8,144.4 494.1,144.4 494.3,144.4 494.6,144.4 494.8,144.4 495.1,144.4 495.3,144.4 495.6,144.4 495.8,144.4 496.1,144.4 496.3,144.4 496.6,144.4 496.9,144.4 497.1,144.4 497.4,144.4 497.6,144.4 497.9,144.4 498.1,144.4 498.4,144.4 498.6,144.4 498.9,144.4 499.1,144.4 499.4,144.4 499.7,144.4 499.9,144.4 500.2,144.4 500.4,144.4 500.7,144.4 500.9,144.4 501.2,144.4 501.4,144.4 501.7,144.4 501.9,144.4 502.2,144.4 502.4,144.4 502.7,144.4 503.0,144.4 503.2,144.4 503.5,144.4 503.7,144.4 504.0,144.4 504.2,144.4 504.5,144.4 504.7,144.4 505.0,144.4 505.2,144.4 505.5,144.4 505.8,144.4 506.0,144.4 506.3,144.4 506.5,144.4 506.8,144.4 507.0,144.4 507.3,144.4 507.5,144.4 507.8,144.4 508.0,144.4 508.3,144.4 508.5,144.4 508.8,144.4 509.1,144.4 509.3,144.4 509.6,144.4 509.8,144.4 510.1,144.4 510.3,144.4 510.6,144.4 510.8,144.4 511.1,144.4 511.3,144.4 511.6,144.4 511.8,144.4 512.1,144.4 512.4,144.4 512.6,144.4 512.9,144.4 513.1,144.4 513.4,144.4 513.6,144.4 513.9,144.4 514.1,144.4 514.4,144.4 514.6,144.4 514.9,136.6 515.2,136.6 515.4,136.6 515.7,136.6 515.9,136.6 516.2,136.6 516.4,136.6 516.7,136.6 516.9,136.6 517.2,136.6 517.4,136.6 517.7,136.6 517.9,136.6 518.2,136.6 518.5,136.6 518.7,136.6 519.0,136.6 519.2,136.6 519.5,136.6 519.7,136.6 520.0,136.6 520.2,136.6 520.5,136.6 520.7,136.6 521.0,136.6 521.3,136.6 521.5,136.6 521.8,136.6 522.0,136.6 522.3,136.6 522.5,136.6 522.8,136.6 523.0,136.6 523.3,136.6 523.5,136.6 523.8,136.6 524.0,136.6 524.3,136.6 524.6,136.6 524.8,136.6 525.1,136.6 525.3,136.6 525.6,136.6 525.8,136.6 526.1,136.6 526.3,136.6 526.6,136.6 526.8,136.6 527.1,136.6 527.4,136.6 527.6,136.6 527.9,136.6 528.1,136.6 528.4,136.6 528.6,136.6 528.9,136.6 529.1,136.6 529.4,136.6 529.6,136.6 529.9,136.6 530.1,136.6 530.4,136.6 530.7,136.6 530.9,136.6 531.2,136.6 531.4,136.6 531.7,136.6 531.9,136.6 532.2,136.6 532.4,136.6 532.7,136.6 532.9,136.6 533.2,136.6 533.5,136.6 533.7,136.6 534.0,136.6 534.2,136.6 534.5,136.6 534.7,136.6 535.0,136.6 535.2,136.6 535.5,136.6 535.7,136.6 536.0,136.6 536.2,136.6 536.5,136.6 536.8,136.6 537.0,136.6 537.3,136.6 537.5,136.6 537.8,136.6 538.0,136.6 538.3,136.6 538.5,136.6 538.8,136.6 539.0,136.6 539.3,136.6 539.6,136.6 539.8,136.6 540.1,136.6 540.3,136.6 540.6,136.6 540.8,136.6 541.1,136.6 541.3,136.6 541.6,136.6 541.8,136.6 542.1,136.6 542.3,136.6 542.6,136.6 542.9,136.6 543.1,136.6 543.4,136.6 543.6,136.6 543.9,136.6 544.1,136.6 544.4,136.6 544.6,136.6 544.9,136.6 545.1,136.6 545.4,128.3 545.7,128.3 545.9,128.3 546.2,128.3 546.4,128.3 546.7,128.3 546.9,128.3 547.2,128.3 547.4,128.3 547.7,128.3 547.9,128.3 548.2,128.3 548.4,128.3 548.7,128.3 549.0,128.3 549.2,128.3 549.5,128.3 549.7,128.3 550.0,128.3 550.2,128.3 550.5,128.3 550.7,128.3 551.0,128.3 551.2,128.3 551.5,128.3 551.8,128.3 552.0,128.3 552.3,128.3 552.5,128.3 552.8,128.3 553.0,128.3 553.3,128.3 553.5,128.3 553.8,128.3 554.0,128.3 554.3,128.3 554.5,128.3 554.8,128.3 555.1,128.3 555.3,128.3 555.6,128.3 555.8,128.3 556.1,128.3 556.3,128.3 556.6,128.3 556.8,128.3 557.1,128.3 557.3,128.3 557.6,128.3 557.9,128.3 558.1,128.3 558.4,128.3 558.6,128.3 558.9,128.3 559.1,128.3 559.4,128.3 559.6,128.3 559.9,128.3 560.1,128.3 560.4,128.3 560.6,128.3 560.9,128.3 561.2,128.3 561.4,128.3 561.7,128.3 561.9,128.3 562.2,128.3 562.4,128.3 562.7,128.3 562.9,128.3 563.2,128.3 563.4,128.3 563.7,128.3 564.0,128.3 564.2,128.3 564.5,128.3 564.7,128.3 565.0,128.3 565.2,128.3 565.5,128.3 565.7,128.3 566.0,128.3 566.2,128.3 566.5,128.3 566.7,128.3 567.0,128.3 567.3,128.3 567.5,128.3 567.8,128.3 568.0,128.3 568.3,128.3 568.5,128.3 568.8,128.3 569.0,128.3 569.3,128.3 569.5,128.3 569.8,128.3 570.1,128.3 570.3,128.3 570.6,128.3 570.8,128.3 571.1,128.3 571.3,128.3 571.6,128.3 571.8,128.3 572.1,128.3 572.3,128.3 572.6,128.3 572.8,128.3 573.1,128.3 573.4,128.3 573.6,128.3 573.9,128.3 574.1,128.3 574.4,128.3 574.6,128.3 574.9,128.3 575.1,128.3 575.4,128.3 575.6,128.3 575.9,128.3 576.2,128.3 576.4,128.3 576.7,128.3 576.9,128.3 577.2,118.1 577.4,118.1 577.7,118.1 577.9,118.1 578.2,118.1 578.4,118.1 578.7,118.1 578.9,118.1 579.2,118.1 579.5,118.1 579.7,118.1 580.0,118.1 580.2,118.1 580.5,118.1 580.7,118.1 581.0,118.1 581.2,118.1 581.5,118.1 581.7,118.1 582.0,118.1 582.3,118.1 582.5,118.1 582.8,118.1 583.0,118.1 583.3,118.1 583.5,118.1 583.8,118.1 584.0,118.1 584.3,118.1 584.5,118.1 584.8,118.1 585.0,118.1 585.3,118.1 585.6,118.1 585.8,118.1 586.1,118.1 586.3,118.1 586.6,118.1 586.8,118.1 587.1,118.1 587.3,118.1 587.6,118.1 587.8,118.1 588.1,118.1 588.4,118.1 588.6,118.1 588.9,118.1 589.1,118.1 589.4,118.1 589.6,118.1 589.9,118.1 590.1,118.1 590.4,118.1 590.6,118.1 590.9,118.1 591.1,118.1 591.4,118.1 591.7,118.1 591.9,118.1 592.2,118.1 592.4,118.1 592.7,118.1 592.9,118.1 593.2,118.1 593.4,118.1 593.7,118.1 593.9,118.1 594.2,118.1 594.5,118.1 594.7,118.1 595.0,118.1 595.2,118.1 595.5,118.1 595.7,118.1 596.0,118.1 596.2,118.1 596.5,118.1 596.7,118.1 597.0,118.1 597.2,118.1 597.5,118.1 597.8,118.1 598.0,118.1 598.3,118.1 598.5,118.1 598.8,118.1 599.0,118.1 599.3,118.1 599.5,118.1 599.8,118.1 600.0,118.1 600.3,118.1 600.6,118.1 600.8,118.1 601.1,118.1 601.3,118.1 601.6,118.1 601.8,118.1 602.1,118.1 602.3,118.1 602.6,118.1 602.8,118.1 603.1,118.1 603.3,118.1 603.6,118.1 603.9,118.1 604.1,118.1 604.4,118.1 604.6,118.1 604.9,118.1 605.1,118.1 605.4,118.1 605.6,118.1 605.9,118.1 606.1,118.1 606.4,118.1 606.7,118.1 606.9,118.1 607.2,118.1 607.4,112.0 607.7,112.0 607.9,112.0 608.2,112.0 608.4,112.0 608.7,112.0 608.9,112.0 609.2,112.0 609.4,112.0 609.7,112.0 610.0,112.0 610.2,112.0 610.5,112.0 610.7,112.0 611.0,112.0 611.2,112.0 611.5,112.0 611.7,112.0 612.0,112.0 612.2,112.0 612.5,112.0 612.8,112.0 613.0,112.0 613.3,112.0 613.5,112.0 613.8,112.0 614.0,112.0 614.3,112.0 614.5,112.0 614.8,112.0 615.0,112.0 615.3,112.0 615.5,112.0 615.8,112.0 616.1,112.0 616.3,112.0 616.6,112.0 616.8,112.0 617.1,112.0 617.3,112.0 617.6,112.0 617.8,112.0 618.1,112.0 618.3,112.0 618.6,112.0 618.9,112.0 619.1,112.0 619.4,112.0 619.6,112.0 619.9,112.0 620.1,112.0 620.4,112.0 620.6,112.0 620.9,112.0 621.1,112.0 621.4,112.0 621.6,112.0 621.9,112.0 622.2,112.0 622.4,112.0 622.7,112.0 622.9,112.0 623.2,112.0 623.4,112.0 623.7,112.0 623.9,112.0 624.2,112.0 624.4,112.0 624.7,112.0 625.0,112.0 625.2,112.0 625.5,112.0 625.7,112.0 626.0,112.0 626.2,112.0 626.5,112.0 626.7,112.0 627.0,112.0 627.2,112.0 627.5,112.0 627.7,112.0 628.0,112.0 628.3,112.0 628.5,112.0 628.8,112.0 629.0,112.0 629.3,112.0 629.5,112.0 629.8,112.0 630.0,112.0 630.3,112.0 630.5,112.0 630.8,112.0 631.1,112.0 631.3,112.0 631.6,112.0 631.8,112.0 632.1,112.0 632.3,112.0 632.6,112.0 632.8,112.0 633.1,112.0 633.3,112.0 633.6,112.0 633.8,112.0 634.1,112.0 634.4,112.0 634.6,112.0 634.9,112.0 635.1,112.0 635.4,112.0 635.6,112.0 635.9,112.0 636.1,112.0 636.4,112.0 636.6,112.0 636.9,112.0 637.2,112.0 637.4,112.0 637.7,112.0 637.9,112.0 638.2,112.0 638.4,112.0 638.7,112.0 638.9,112.0 639.2,112.0 639.4,104.2 639.7,104.2 639.9,104.2 640.2,104.2 640.5,104.2 640.7,104.2 641.0,104.2 641.2,104.2 641.5,104.2 641.7,104.2 642.0,104.2 642.2,104.2 642.5,104.2 642.7,104.2 643.0,104.2 643.3,104.2 643.5,104.2 643.8,104.2 644.0,104.2 644.3,104.2 644.5,104.2 644.8,104.2 645.0,104.2 645.3,104.2 645.5,104.2 645.8,104.2 646.0,104.2 646.3,104.2 646.6,104.2 646.8,104.2 647.1,104.2 647.3,104.2 647.6,104.2 647.8,104.2 648.1,104.2 648.3,104.2 648.6,104.2 648.8,104.2 649.1,104.2 649.4,104.2 649.6,104.2 649.9,104.2 650.1,104.2 650.4,104.2 650.6,104.2 650.9,104.2 651.1,104.2 651.4,104.2 651.6,104.2 651.9,104.2 652.1,104.2 652.4,104.2 652.7,104.2 652.9,104.2 653.2,104.2 653.4,104.2 653.7,104.2 653.9,104.2 654.2,104.2 654.4,104.2 654.7,104.2 654.9,104.2 655.2,104.2 655.4,104.2 655.7,104.2 656.0,104.2 656.2,104.2 656.5,104.2 656.7,104.2 657.0,104.2 657.2,104.2 657.5,104.2 657.7,104.2 658.0,104.2 658.2,104.2 658.5,104.2 658.8,104.2 659.0,104.2 659.3,104.2 659.5,104.2 659.8,104.2 660.0,104.2 660.3,104.2 660.5,104.2 660.8,104.2 661.0,104.2 661.3,104.2 661.5,104.2 661.8,104.2 662.1,104.2 662.3,104.2 662.6,104.2 662.8,104.2 663.1,104.2 663.3,104.2 663.6,104.2 663.8,104.2 664.1,104.2 664.3,104.2 664.6,104.2 664.9,104.2 665.1,104.2 665.4,104.2 665.6,104.2 665.9,104.2 666.1,104.2 666.4,104.2 666.6,104.2 666.9,104.2 667.1,104.2 667.4,104.2 667.6,104.2 667.9,104.2 668.2,104.2 668.4,104.2 668.7,104.2 668.9,104.2 669.2,104.2 669.4,104.2 669.7,91.5 669.9,91.5 670.2,91.5 670.4,91.5 670.7,91.5 671.0,91.5 671.2,91.5 671.5,91.5 671.7,91.5 672.0,91.5 672.2,91.5 672.5,91.5 672.7,91.5 673.0,91.5 673.2,91.5 673.5,91.5 673.7,91.5 674.0,91.5 674.3,91.5 674.5,91.5 674.8,91.5 675.0,91.5 675.3,91.5 675.5,91.5 675.8,91.5 676.0,91.5 676.3,91.5 676.5,91.5 676.8,91.5 677.1,91.5 677.3,91.5 677.6,91.5 677.8,91.5 678.1,91.5 678.3,91.5 678.6,91.5 678.8,91.5 679.1,91.5 679.3,91.5 679.6,91.5 679.8,91.5 680.1,91.5 680.4,91.5 680.6,91.5 680.9,91.5 681.1,91.5 681.4,91.5 681.6,91.5 681.9,91.5 682.1,91.5 682.4,91.5 682.6,91.5 682.9,91.5 683.2,91.5 683.4,91.5 683.7,91.5 683.9,91.5 684.2,91.5 684.4,91.5 684.7,91.5 684.9,91.5 685.2,91.5 685.4,91.5 685.7,91.5 685.9,91.5 686.2,91.5 686.5,91.5 686.7,91.5 687.0,91.5 687.2,91.5 687.5,91.5 687.7,91.5 688.0,91.5 688.2,91.5 688.5,91.5 688.7,91.5 689.0,91.5 689.3,91.5 689.5,91.5 689.8,91.5 690.0,91.5 690.3,91.5 690.5,91.5 690.8,91.5 691.0,91.5 691.3,91.5 691.5,91.5 691.8,91.5 692.0,91.5 692.3,91.5 692.6,91.5 692.8,91.5 693.1,91.5 693.3,91.5 693.6,91.5 693.8,91.5 694.1,91.5 694.3,91.5 694.6,91.5 694.8,91.5 695.1,91.5 695.4,91.5 695.6,91.5 695.9,91.5 696.1,91.5 696.4,91.5 696.6,91.5 696.9,91.5 697.1,91.5 697.4,91.5 697.6,91.5 697.9,91.5 698.1,91.5 698.4,91.5 698.7,91.5 698.9,91.5 699.2,91.5 699.4,91.5 699.7,91.5 699.9,91.5 700.2,91.5 700.4,91.5 700.7,91.5 700.9,91.5 701.2,91.5 701.5,84.6 701.7,84.6 702.0,84.6 702.2,84.6 702.5,84.6 702.7,84.6 703.0,84.6 703.2,84.6 703.5,84.6 703.7,84.6 704.0,84.6 704.2,84.6 704.5,84.6 704.8,84.6 705.0,84.6 705.3,84.6 705.5,84.6 705.8,84.6 706.0,84.6 706.3,84.6 706.5,84.6 706.8,84.6 707.0,84.6 707.3,84.6 707.6,84.6 707.8,84.6 708.1,84.6 708.3,84.6 708.6,84.6 708.8,84.6 709.1,84.6 709.3,84.6 709.6,84.6 709.8,84.6 710.1,84.6 710.3,84.6 710.6,84.6 710.9,84.6 711.1,84.6 711.4,84.6 711.6,84.6 711.9,84.6 712.1,84.6 712.4,84.6 712.6,84.6 712.9,84.6 713.1,84.6 713.4,84.6 713.7,84.6 713.9,84.6 714.2,84.6 714.4,84.6 714.7,84.6 714.9,84.6 715.2,84.6 715.4,84.6 715.7,84.6 715.9,84.6 716.2,84.6 716.4,84.6 716.7,84.6 717.0,84.6 717.2,84.6 717.5,84.6 717.7,84.6 718.0,84.6 718.2,84.6 718.5,84.6 718.7,84.6 719.0,84.6 719.2,84.6 719.5,84.6 719.8,84.6 720.0,84.6 720.3,84.6 720.5,84.6 720.8,84.6 721.0,84.6 721.3,84.6 721.5,84.6 721.8,84.6 722.0,84.6 722.3,84.6 722.5,84.6 722.8,84.6 723.1,84.6 723.3,84.6 723.6,84.6 723.8,84.6 724.1,84.6 724.3,84.6 724.6,84.6 724.8,84.6 725.1,84.6 725.3,84.6 725.6,84.6 725.9,84.6 726.1,84.6 726.4,84.6 726.6,84.6 726.9,84.6 727.1,84.6 727.4,84.6 727.6,84.6 727.9,84.6 728.1,84.6 728.4,84.6 728.6,84.6 728.9,84.6 729.2,84.6 729.4,84.6 729.7,84.6 729.9,84.6 730.2,84.6 730.4,84.6 730.7,84.6 730.9,84.6 731.2,84.6 731.4,84.6 731.7,76.5 732.0,76.5 732.2,76.5 732.5,76.5 732.7,76.5 733.0,76.5 733.2,76.5 733.5,76.5 733.7,76.5 734.0,76.5 734.2,76.5 734.5,76.5 734.7,76.5 735.0,76.5 735.3,76.5 735.5,76.5 735.8,76.5 736.0,76.5 736.3,76.5 736.5,76.5 736.8,76.5 737.0,76.5 737.3,76.5 737.5,76.5 737.8,76.5 738.1,76.5 738.3,76.5 738.6,76.5 738.8,76.5 739.1,76.5 739.3,76.5 739.6,76.5 739.8,76.5 740.1,76.5 740.3,76.5 740.6,76.5 740.8,76.5 741.1,76.5 741.4,76.5 741.6,76.5 741.9,76.5 742.1,76.5 742.4,76.5 742.6,76.5 742.9,76.5 743.1,76.5 743.4,76.5 743.6,76.5 743.9,76.5 744.2,76.5 744.4,76.5 744.7,76.5 744.9,76.5 745.2,76.5 745.4,76.5 745.7,76.5 745.9,76.5 746.2,76.5 746.4,76.5 746.7,76.5 746.9,76.5 747.2,76.5 747.5,76.5 747.7,76.5 748.0,76.5 748.2,76.5 748.5,76.5 748.7,76.5 749.0,76.5 749.2,76.5 749.5,76.5 749.7,76.5 750.0,76.5 750.3,151.0 750.5,151.0 750.8,151.0 751.0,151.0 751.3,151.0 751.5,151.0 751.8,151.0 752.0,151.0 752.3,151.0 752.5,151.0 752.8,151.0 753.0,151.0 753.3,151.0 753.6,151.0 753.8,151.0 754.1,151.0 754.3,151.0 754.6,151.0 754.8,151.0 755.1,151.0 755.3,151.0 755.6,151.0 755.8,151.0 756.1,151.0 756.4,151.0 756.6,151.0 756.9,151.0 757.1,151.0 757.4,151.0 757.6,151.0 757.9,151.0 758.1,151.0 758.4,151.0 758.6,151.0 758.9,151.0 759.1,151.0 759.4,151.0 759.7,151.0 759.9,151.0 760.2,151.0 760.4,151.0 760.7,151.0 760.9,151.0 761.2,151.0 761.4,151.0 761.7,151.0 761.9,151.0 762.2,151.0 762.5,151.0 762.7,151.0 763.0,151.0 763.2,144.3 763.5,144.3 763.7,144.3 764.0,144.3 764.2,144.3 764.5,144.3 764.7,144.3 765.0,144.3 765.2,144.3 765.5,144.3 765.8,144.3 766.0,144.3 766.3,144.3 766.5,144.3 766.8,144.3 767.0,144.3 767.3,144.3 767.5,144.3 767.8,144.3 768.0,144.3 768.3,144.3 768.6,144.3 768.8,144.3 769.1,144.3 769.3,144.3 769.6,144.3 769.8,144.3 770.1,144.3 770.3,144.3 770.6,144.3 770.8,144.3 771.1,144.3 771.3,144.3 771.6,144.3 771.9,144.3 772.1,144.3 772.4,144.3 772.6,144.3 772.9,144.3 773.1,144.3 773.4,144.3 773.6,144.3 773.9,144.3 774.1,144.3 774.4,144.3 774.7,144.3 774.9,144.3 775.2,144.3 775.4,144.3 775.7,144.3 775.9,144.3 776.2,144.3 776.4,144.3 776.7,144.3 776.9,144.3 777.2,144.3 777.4,144.3 777.7,144.3 778.0,144.3 778.2,144.3 778.5,144.3 778.7,144.3 779.0,144.3 779.2,144.3 779.5,144.3 779.7,144.3 780.0,144.3 780.2,144.3 780.5,144.3 780.8,144.3 781.0,144.3 781.3,144.3 781.5,144.3 781.8,144.3 782.0,144.3 782.3,144.3 782.5,144.3 782.8,144.3 783.0,144.3 783.3,144.3 783.5,144.3 783.8,144.3 784.1,144.3 784.3,144.3 784.6,144.3 784.8,144.3 785.1,144.3 785.3,144.3 785.6,144.3 785.8,144.3 786.1,144.3 786.3,144.3 786.6,144.3 786.9,144.3 787.1,144.3 787.4,144.3 787.6,144.3 787.9,144.3 788.1,144.3 788.4,144.3 788.6,144.3 788.9,144.3 789.1,144.3 789.4,144.3 789.6,144.3 789.9,144.3 790.2,144.3 790.4,144.3 790.7,144.3 790.9,144.3 791.2,144.3 791.4,144.3 791.7,144.3 791.9,144.3 792.2,144.3 792.4,144.3 792.7,144.3 793.0,144.3 793.2,144.3 793.5,144.3 793.7,144.3 794.0,144.3 794.2,144.3 794.5,132.2 794.7,132.2 795.0,132.2 795.2,132.2 795.5,132.2 795.7,132.2 796.0,132.2"/>
<text x="78" y="392" font-size="11" fill="#16a34a">Total return +172,337%</text><text x="268" y="392" font-size="11" fill="#2563eb">Price-only +172,337%</text><text x="78" y="362" font-size="11" text-anchor="middle" fill="#64748b">2015-01</text><text x="257" y="362" font-size="11" text-anchor="middle" fill="#64748b">2017-12</text><text x="437" y="362" font-size="11" text-anchor="middle" fill="#64748b">2020-10</text><text x="617" y="362" font-size="11" text-anchor="middle" fill="#64748b">2023-08</text><text x="796" y="362" font-size="11" text-anchor="middle" fill="#64748b">2026-07</text></svg>