<svg xmlns="http://www.w3.org/2000/svg" width="820" height="410" viewBox="0 0 820 410">
<rect width="820" height="410" fill="#fafafa"/><text x="78" y="22" font-size="14" font-family="sans-serif" fill="#0f172a">7176.T cumulative return since 2015-01-27 | dividends reinvested</text>
<text x="78" y="40" font-size="11" font-family="sans-serif" fill="#334155">Total return +172,337% | Price-only +172,337% | logarithmic scale</text>
<text x="78" y="54" font-size="9" font-family="sans-serif" fill="#64748b">Regular $0.00 | Special $0.00 | Other $0.00 per initial share path</text>
<line x1="78" y1="332.0" x2="796" y2="332.0" stroke="#e2e8f0"/><text x="70" y="336.0" font-size="10" text-anchor="end" fill="#64748b">-44.1%</text><line x1="78" y1="317.5" x2="796" y2="317.5" stroke="#e2e8f0"/><text x="70" y="321.5" font-size="10" text-anchor="end" fill="#64748b">0%</text><line x1="78" y1="287.0" x2="796" y2="287.0" stroke="#e2e8f0"/><text x="70" y="291.0" font-size="10" text-anchor="end" fill="#64748b">+241.3%</text><line x1="78" y1="242.0" x2="796" y2="242.0" stroke="#e2e8f0"/><text x="70" y="246.0" font-size="10" text-anchor="end" fill="#64748b">+1,984%</text><line x1="78" y1="197.0" x2="796" y2="197.0" stroke="#e2e8f0"/><text x="70" y="201.0" font-size="10" text-anchor="end" fill="#64748b">+12,626%</text><line x1="78" y1="152.0" x2="796" y2="152.0" stroke="#e2e8f0"/><text x="70" y="156.0" font-size="10" text-anchor="end" fill="#64748b">+77,607%</text><line x1="78" y1="107.0" x2="796" y2="107.0" stroke="#e2e8f0"/><text x="70" y="111.0" font-size="10" text-anchor="end" fill="#64748b">+474,375%</text><line x1="78" y1="62.0" x2="796" y2="62.0" stroke="#e2e8f0"/><text x="70" y="66.0" font-size="10" text-anchor="end" fill="#64748b">+2,897,039%</text><line x1="78" y1="62.0" x2="796" y2="62.0" stroke="#e2e8f0"/><text x="70" y="66.0" font-size="10" text-anchor="end" fill="#64748b">+2,897,039%</text>
<line x1="78" y1="332" x2="796" y2="332" stroke="#cbd5e1"/>
<polyline fill="none" stroke="#2563eb" stroke-width="2" points="78.0,317.5 78.3,317.5 78.5,317.5 78.8,317.5 79.0,317.5 79.3,317.5 79.5,317.5 79.8,317.5 80.0,317.5 80.3,317.5 80.5,317.5 80.8,317.5 81.0,317.5 81.3,317.5 81.6,317.5 81.8,317.5 82.1,317.5 82.3,317.5 82.6,317.5 82.8,317.5 83.1,317.5 83.3,317.5 83.6,317.5 83.8,317.5 84.1,317.5 84.3,317.5 84.6,317.5 84.9,317.5 85.1,317.5 85.4,317.5 85.6,317.5 85.9,317.5 86.1,317.5 86.4,317.5 86.6,317.5 86.9,317.5 87.1,317.5 87.4,317.5 87.6,317.5 87.9,317.5 88.2,317.5 88.4,317.5 88.7,317.5 88.9,317.5 89.2,317.5 89.4,317.5 89.7,317.5 89.9,317.5 90.2,317.5 90.4,317.5 90.7,317.5 90.9,317.5 91.2,317.5 91.5,317.5 91.7,317.5 92.0,317.5 92.2,317.5 92.5,317.5 92.7,317.5 93.0,317.5 93.2,317.5 93.5,317.5 93.7,317.5 94.0,317.5 94.2,317.5 94.5,317.5 94.8,317.5 95.0,317.5 95.3,317.5 95.5,317.5 95.8,317.5 96.0,317.5 96.3,317.5 96.5,317.5 96.8,317.5 97.0,317.5 97.3,317.5 97.5,317.5 97.8,317.5 98.1,317.5 98.3,317.5 98.6,317.5 98.8,317.5 99.1,317.5 99.3,317.5 99.6,317.5 99.8,317.5 100.1,317.5 100.3,317.5 100.6,317.5 100.9,317.5 101.1,317.5 101.4,317.5 101.6,317.5 101.9,317.5 102.1,317.5 102.4,317.5 102.6,317.5 102.9,317.5 103.1,317.5 103.4,317.5 103.6,317.5 103.9,317.5 104.2,317.5 104.4,317.5 104.7,317.5 104.9,317.5 105.2,317.5 105.4,317.5 105.7,317.5 105.9,317.5 106.2,317.5 106.4,317.5 106.7,317.5 106.9,317.5 107.2,317.5 107.5,317.5 107.7,317.5 108.0,317.5 108.2,317.5 108.5,317.5 108.7,317.5 109.0,317.5 109.2,317.5 109.5,317.5 109.7,317.5 110.0,317.5 110.2,317.5 110.5,317.5 110.8,317.5 111.0,317.5 111.3,317.5 111.5,317.5 111.8,317.5 112.0,317.5 112.3,317.5 112.5,317.5 112.8,317.5 113.0,317.5 113.3,317.5 113.5,317.5 113.8,317.5 114.1,317.5 114.3,317.5 114.6,317.5 114.8,317.5 115.1,317.5 115.3,317.5 115.6,317.5 115.8,317.5 116.1,317.5 116.3,317.5 116.6,317.5 116.8,317.5 117.1,317.5 117.4,317.5 117.6,317.5 117.9,317.5 118.1,317.5 118.4,317.5 118.6,317.5 118.9,317.5 119.1,317.5 119.4,317.5 119.6,317.5 119.9,317.5 120.1,317.5 120.4,317.5 120.7,317.5 120.9,317.5 121.2,317.5 121.4,317.5 121.7,317.5 121.9,317.5 122.2,317.5 122.4,317.5 122.7,317.5 122.9,317.5 123.2,317.5 123.4,317.5 123.7,317.5 124.0,317.5 124.2,317.5 124.5,317.5 124.7,317.5 125.0,317.5 125.2,317.5 125.5,317.5 125.7,317.5 126.0,317.5 126.2,317.5 126.5,317.5 126.7,317.5 127.0,317.5 127.3,317.5 127.5,317.5 127.8,317.5 128.0,317.5 128.3,317.5 128.5,317.5 128.8,317.5 129.0,317.5 129.3,317.5 129.5,317.5 129.8,317.5 130.0,317.5 130.3,317.5 130.6,317.5 130.8,317.5 131.1,317.5 131.3,317.5 131.6,317.5 131.8,317.5 132.1,317.5 132.3,317.5 132.6,317.5 132.8,317.5 133.1,317.5 133.3,317.5 133.6,317.5 133.9,317.5 134.1,317.5 134.4,317.5 134.6,317.5 134.9,317.5 135.1,317.5 135.4,317.5 135.6,317.5 135.9,317.5 136.1,317.5 136.4,317.5 136.6,317.5 136.9,317.5 137.2,317.5 137.4,317.5 137.7,317.5 137.9,317.5 138.2,317.5 138.4,317.5 138.7,317.5 138.9,275.1 139.2,275.1 139.4,275.1 139.7,275.1 139.9,275.1 140.2,275.1 140.5,275.1 140.7,275.1 141.0,275.1 141.2,275.1 141.5,275.1 141.7,275.1 142.0,275.1 142.2,275.1 142.5,275.1 142.7,275.1 143.0,275.1 143.2,275.1 143.5,275.1 143.8,275.1 144.0,275.1 144.3,275.1 144.5,275.1 144.8,275.1 145.0,275.1 145.3,275.1 145.5,275.1 145.8,275.1 146.0,275.1 146.3,275.1 146.6,275.1 146.8,275.1 147.1,275.1 147.3,275.1 147.6,275.1 147.8,275.1 148.1,275.1 148.3,275.1 148.6,275.1 148.8,275.1 149.1,275.1 149.3,275.1 149.6,275.1 149.9,275.1 150.1,275.1 150.4,275.1 150.6,275.1 150.9,275.1 151.1,275.1 151.4,275.1 151.6,275.1 151.9,275.1 152.1,275.1 152.4,275.1 152.6,275.1 152.9,275.1 153.2,275.1 153.4,275.1 153.7,275.1 153.9,275.1 154.2,275.1 154.4,275.1 154.7,275.1 154.9,275.1 155.2,275.1 155.4,275.1 155.7,275.1 155.9,275.1 156.2,275.1 156.5,275.1 156.7,275.1 157.0,275.1 157.2,275.1 157.5,275.1 157.7,275.1 158.0,275.1 158.2,275.1 158.5,275.1 158.7,275.1 159.0,275.1 159.2,275.1 159.5,275.1 159.8,275.1 160.0,275.1 160.3,275.1 160.5,275.1 160.8,275.1 161.0,275.1 161.3,275.1 161.5,275.1 161.8,275.1 162.0,275.1 162.3,275.1 162.5,275.1 162.8,275.1 163.1,275.1 163.3,275.1 163.6,275.1 163.8,275.1 164.1,275.1 164.3,275.1 164.6,275.1 164.8,275.1 165.1,275.1 165.3,275.1 165.6,275.1 165.8,275.1 166.1,275.1 166.4,275.1 166.6,275.1 166.9,275.1 167.1,275.1 167.4,275.1 167.6,275.1 167.9,275.1 168.1,275.1 168.4,275.1 168.6,275.1 168.9,275.1 169.1,275.1 169.4,275.1 169.7,275.1 169.9,275.1 170.2,275.1 170.4,275.1 170.7,275.1 170.9,275.1 171.2,275.1 171.4,275.1 171.7,275.1 171.9,275.1 172.2,275.1 172.4,275.1 172.7,275.1 173.0,275.1 173.2,275.1 173.5,275.1 173.7,275.1 174.0,275.1 174.2,275.1 174.5,275.1 174.7,275.1 175.0,275.1 175.2,275.1 175.5,275.1 175.7,275.1 176.0,275.1 176.3,275.1 176.5,275.1 176.8,275.1 177.0,275.1 177.3,275.1 177.5,275.1 177.8,275.1 178.0,275.1 178.3,275.1 178.5,275.1 178.8,275.1 179.0,275.1 179.3,275.1 179.6,275.1 179.8,275.1 180.1,275.1 180.3,275.1 180.6,275.1 180.8,275.1 181.1,275.1 181.3,275.1 181.6,275.1 181.8,275.1 182.1,275.1 182.3,275.1 182.6,275.1 182.9,275.1 183.1,275.1 183.4,275.1 183.6,275.1 183.9,275.1 184.1,275.1 184.4,275.1 184.6,275.1 184.9,275.1 185.1,275.1 185.4,275.1 185.6,275.1 185.9,275.1 186.2,275.1 186.4,275.1 186.7,275.1 186.9,275.1 187.2,275.1 187.4,275.1 187.7,275.1 187.9,275.1 188.2,275.1 188.4,275.1 188.7,275.1 188.9,275.1 189.2,275.1 189.5,275.1 189.7,275.1 190.0,275.1 190.2,275.1 190.5,275.1 190.7,275.1 191.0,275.1 191.2,275.1 191.5,275.1 191.7,275.1 192.0,275.1 192.3,275.1 192.5,275.1 192.8,275.1 193.0,275.1 193.3,275.1 193.5,275.1 193.8,275.1 194.0,275.1 194.3,275.1 194.5,275.1 194.8,275.1 195.0,275.1 195.3,275.1 195.6,275.1 195.8,275.1 196.1,275.1 196.3,275.1 196.6,275.1 196.8,275.1 197.1,275.1 197.3,275.1 197.6,275.1 197.8,275.1 198.1,275.1 198.3,275.1 198.6,275.1 198.9,275.1 199.1,275.1 199.4,275.1 199.6,275.1 199.9,275.1 200.1,275.1 200.4,275.1 200.6,275.1 200.9,275.1 201.1,275.1 201.4,275.1 201.6,275.1 201.9,275.1 202.2,275.1 202.4,275.1 202.7,275.1 202.9,275.1 203.2,275.1 203.4,275.1 203.7,275.1 203.9,275.1 204.2,275.1 204.4,275.1 204.7,275.1 204.9,275.1 205.2,275.1 205.5,275.1 205.7,275.1 206.0,275.1 206.2,275.1 206.5,275.1 206.7,275.1 207.0,275.1 207.2,275.1 207.5,275.1 207.7,275.1 208.0,275.1 208.2,275.1 208.5,275.1 208.8,275.1 209.0,275.1 209.3,275.1 209.5,275.1 209.8,275.1 210.0,275.1 210.3,275.1 210.5,275.1 210.8,275.1 211.0,275.1 211.3,275.1 211.5,275.1 211.8,275.1 212.1,275.1 212.3,275.1 212.6,275.1 212.8,275.1 213.1,275.1 213.3,275.1 213.6,275.1 213.8,275.1 214.1,275.1 214.3,275.1 214.6,275.1 214.8,275.1 215.1,275.1 215.4,275.1 215.6,275.1 215.9,275.1 216.1,275.1 216.4,275.1 216.6,275.1 216.9,275.1 217.1,275.1 217.4,275.1 217.6,275.1 217.9,275.1 218.1,275.1 218.4,275.1 218.7,275.1 218.9,275.1 219.2,275.1 219.4,275.1 219.7,275.1 219.9,275.1 220.2,275.1 220.4,275.1 220.7,275.1 220.9,275.1 221.2,275.1 221.4,275.1 221.7,275.1 222.0,275.1 222.2,275.1 222.5,275.1 222.7,275.1 223.0,275.1 223.2,275.1 223.5,275.1 223.7,275.1 224.0,275.1 224.2,275.1 224.5,275.1 224.7,275.1 225.0,275.1 225.3,275.1 225.5,275.1 225.8,275.1 226.0,275.1 226.3,275.1 226.5,275.1 226.8,275.1 227.0,275.1 227.3,275.1 227.5,275.1 227.8,275.1 228.0,275.1 228.3,275.1 228.6,275.1 228.8,275.1 229.1,275.1 229.3,275.1 229.6,275.1 229.8,275.1 230.1,275.1 230.3,275.1 230.6,275.1 230.8,275.1 231.1,275.1 231.3,275.1 231.6,275.1 231.9,275.1 232.1,275.1 232.4,275.1 232.6,275.1 232.9,275.1 233.1,275.1 233.4,275.1 233.6,275.1 233.9,275.1 234.1,275.1 234.4,275.1 234.6,275.1 234.9,275.1 235.2,275.1 235.4,275.1 235.7,275.1 235.9,275.1 236.2,275.1 236.4,275.1 236.7,275.1 236.9,275.1 237.2,275.1 237.4,275.1 237.7,275.1 238.0,275.1 238.2,275.1 238.5,275.1 238.7,275.1 239.0,275.1 239.2,275.1 239.5,275.1 239.7,275.1 240.0,275.1 240.2,275.1 240.5,275.1 240.7,275.1 241.0,275.1 241.3,275.1 241.5,275.1 241.8,275.1 242.0,275.1 242.3,275.1 242.5,275.1 242.8,275.1 243.0,275.1 243.3,275.1 243.5,275.1 243.8,275.1 244.0,275.1 244.3,275.1 244.6,275.1 244.8,275.1 245.1,275.1 245.3,275.1 245.6,275.1 245.8,275.1 246.1,275.1 246.3,275.1 246.6,275.1 246.8,275.1 247.1,275.1 247.3,275.1 247.6,275.1 247.9,275.1 248.1,275.1 248.4,275.1 248.6,275.1 248.9,275.1 249.1,275.1 249.4,275.1 249.6,275.1 249.9,275.1 250.1,275.1 250.4,275.1 250.6,275.1 250.9,275.1 251.2,275.1 251.4,275.1 251.7,275.1 251.9,275.1 252.2,275.1 252.4,275.1 252.7,275.1 252.9,275.1 253.2,275.1 253.4,275.1 253.7,275.1 253.9,275.1 254.2,275.1 254.5,275.1 254.7,275.1 255.0,275.1 255.2,275.1 255.5,275.1 255.7,275.1 256.0,275.1 256.2,275.1 256.5,275.1 256.7,275.1 257.0,275.1 257.2,275.1 257.5,275.1 257.8,275.1 258.0,275.1 258.3,275.1 258.5,275.1 258.8,275.1 259.0,275.1 259.3,275.1 259.5,275.1 259.8,275.1 260.0,275.1 260.3,275.1 260.5,275.1 260.8,275.1 261.1,275.1 261.3,275.1 261.6,275.1 261.8,275.1 262.1,275.1 262.3,275.1 262.6,275.1 262.8,275.1 263.1,275.1 263.3,275.1 263.6,275.1 263.8,275.1 264.1,275.1 264.4,275.1 264.6,275.1 264.9,275.1 265.1,275.1 265.4,275.1 265.6,275.1 265.9,275.1 266.1,275.1 266.4,275.1 266.6,275.1 266.9,275.1 267.1,275.1 267.4,275.1 267.7,275.1 267.9,275.1 268.2,275.1 268.4,275.1 268.7,275.1 268.9,275.1 269.2,275.1 269.4,275.1 269.7,275.1 269.9,275.1 270.2,275.1 270.4,275.1 270.7,275.1 271.0,275.1 271.2,275.1 271.5,275.1 271.7,275.1 272.0,275.1 272.2,275.1 272.5,275.1 272.7,275.1 273.0,275.1 273.2,275.1 273.5,275.1 273.7,275.1 274.0,275.1 274.3,275.1 274.5,275.1 274.8,275.1 275.0,275.1 275.3,275.1 275.5,221.2 275.8,221.2 276.0,221.2 276.3,221.2 276.5,221.2 276.8,221.2 277.0,221.2 277.3,221.2 277.6,221.2 277.8,221.2 278.1,221.2 278.3,221.2 278.6,221.2 278.8,221.2 279.1,221.2 279.3,221.2 279.6,221.2 279.8,221.2 280.1,221.2 280.4,221.2 280.6,221.2 280.9,221.2 281.1,221.2 281.4,221.2 281.6,221.2 281.9,221.2 282.1,221.2 282.4,221.2 282.6,221.2 282.9,221.2 283.1,221.2 283.4,221.2 283.7,221.2 283.9,221.2 284.2,221.2 284.4,221.2 284.7,221.2 284.9,221.2 285.2,221.2 285.4,221.2 285.7,221.2 285.9,221.2 286.2,221.2 286.4,221.2 286.7,221.2 287.0,221.2 287.2,221.2 287.5,221.2 287.7,221.2 288.0,221.2 288.2,221.2 288.5,221.2 288.7,221.2 289.0,221.2 289.2,221.2 289.5,221.2 289.7,221.2 290.0,221.2 290.3,221.2 290.5,221.2 290.8,221.2 291.0,221.2 291.3,221.2 291.5,221.2 291.8,221.2 292.0,221.2 292.3,221.2 292.5,221.2 292.8,221.2 293.0,221.2 293.3,221.2 293.6,221.2 293.8,221.2 294.1,221.2 294.3,221.2 294.6,221.2 294.8,221.2 295.1,221.2 295.3,221.2 295.6,221.2 295.8,221.2 296.1,221.2 296.3,221.2 296.6,221.2 296.9,221.2 297.1,221.2 297.4,221.2 297.6,221.2 297.9,221.2 298.1,221.2 298.4,221.2 298.6,221.2 298.9,221.2 299.1,221.2 299.4,221.2 299.6,221.2 299.9,221.2 300.2,221.2 300.4,221.2 300.7,221.2 300.9,221.2 301.2,221.2 301.4,221.2 301.7,221.2 301.9,221.2 302.2,221.2 302.4,221.2 302.7,221.2 302.9,221.2 303.2,221.2 303.5,221.2 303.7,221.2 304.0,221.2 304.2,221.2 304.5,221.2 304.7,221.2 305.0,221.2 305.2,221.2 305.5,221.2 305.7,221.2 306.0,221.2 306.2,221.2 306.5,221.2 306.8,221.2 307.0,221.2 307.3,221.2 307.5,221.2 307.8,221.2 308.0,221.2 308.3,221.2 308.5,221.2 308.8,221.2 309.0,221.2 309.3,221.2 309.5,221.2 309.8,221.2 310.1,221.2 310.3,221.2 310.6,221.2 310.8,221.2 311.1,221.2 311.3,221.2 311.6,221.2 311.8,221.2 312.1,221.2 312.3,221.2 312.6,221.2 312.8,221.2 313.1,221.2 313.4,221.2 313.6,221.2 313.9,221.2 314.1,221.2 314.4,221.2 314.6,221.2 314.9,221.2 315.1,221.2 315.4,221.2 315.6,221.2 315.9,221.2 316.1,221.2 316.4,221.2 316.7,221.2 316.9,221.2 317.2,221.2 317.4,221.2 317.7,221.2 317.9,221.2 318.2,221.2 318.4,221.2 318.7,221.2 318.9,221.2 319.2,221.2 319.4,221.2 319.7,221.2 320.0,221.2 320.2,221.2 320.5,221.2 320.7,221.2 321.0,221.2 321.2,221.2 321.5,221.2 321.7,221.2 322.0,221.2 322.2,221.2 322.5,221.2 322.7,221.2 323.0,221.2 323.3,221.2 323.5,221.2 323.8,221.2 324.0,221.2 324.3,221.2 324.5,221.2 324.8,221.2 325.0,221.2 325.3,221.2 325.5,221.2 325.8,221.2 326.1,221.2 326.3,221.2 326.6,221.2 326.8,221.2 327.1,221.2 327.3,221.2 327.6,221.2 327.8,221.2 328.1,221.2 328.3,221.2 328.6,221.2 328.8,221.2 329.1,221.2 329.4,221.2 329.6,221.2 329.9,221.2 330.1,221.2 330.4,221.2 330.6,221.2 330.9,221.2 331.1,221.2 331.4,221.2 331.6,221.2 331.9,221.2 332.1,221.2 332.4,221.2 332.7,221.2 332.9,221.2 333.2,221.2 333.4,221.2 333.7,221.2 333.9,221.2 334.2,221.2 334.4,221.2 334.7,221.2 334.9,221.2 335.2,221.2 335.4,221.2 335.7,221.2 336.0,221.2 336.2,221.2 336.5,221.2 336.7,221.2 337.0,221.2 337.2,221.2 337.5,221.2 337.7,221.2 338.0,221.2 338.2,221.2 338.5,221.2 338.7,221.2 339.0,221.2 339.3,221.2 339.5,221.2 339.8,221.2 340.0,221.2 340.3,221.2 340.5,221.2 340.8,221.2 341.0,221.2 341.3,221.2 341.5,221.2 341.8,221.2 342.0,221.2 342.3,221.2 342.6,221.2 342.8,221.2 343.1,221.2 343.3,221.2 343.6,221.2 343.8,221.2 344.1,221.2 344.3,221.2 344.6,221.2 344.8,221.2 345.1,221.2 345.3,221.2 345.6,221.2 345.9,221.2 346.1,221.2 346.4,221.2 346.6,221.2 346.9,221.2 347.1,221.2 347.4,221.2 347.6,221.2 347.9,221.2 348.1,221.2 348.4,221.2 348.6,221.2 348.9,221.2 349.2,221.2 349.4,221.2 349.7,221.2 349.9,221.2 350.2,221.2 350.4,221.2 350.7,221.2 350.9,221.2 351.2,221.2 351.4,221.2 351.7,221.2 351.9,221.2 352.2,221.2 352.5,221.2 352.7,221.2 353.0,221.2 353.2,221.2 353.5,221.2 353.7,221.2 354.0,221.2 354.2,221.2 354.5,221.2 354.7,221.2 355.0,221.2 355.2,221.2 355.5,221.2 355.8,221.2 356.0,221.2 356.3,221.2 356.5,221.2 356.8,221.2 357.0,221.2 357.3,221.2 357.5,221.2 357.8,221.2 358.0,221.2 358.3,221.2 358.5,221.2 358.8,221.2 359.1,221.2 359.3,221.2 359.6,221.2 359.8,221.2 360.1,221.2 360.3,221.2 360.6,221.2 360.8,221.2 361.1,221.2 361.3,221.2 361.6,221.2 361.8,221.2 362.1,221.2 362.4,221.2 362.6,221.2 362.9,221.2 363.1,221.2 363.4,221.2 363.6,221.2 363.9,221.2 364.1,221.2 364.4,221.2 364.6,221.2 364.9,221.2 365.1,221.2 365.4,221.2 365.7,221.2 365.9,221.2 366.2,221.2 366.4,221.2 366.7,221.2 366.9,221.2 367.2,221.2 367.4,221.2 367.7,221.2 367.9,221.2 368.2,221.2 368.4,221.2 368.7,221.2 369.0,221.2 369.2,221.2 369.5,221.2 369.7,221.2 370.0,221.2 370.2,221.2 370.5,221.2 370.7,221.2 371.0,221.2 371.2,221.2 371.5,221.2 371.8,221.2 372.0,221.2 372.3,221.2 372.5,221.2 372.8,221.2 373.0,221.2 373.3,221.2 373.5,221.2 373.8,221.2 374.0,221.2 374.3,221.2 374.5,221.2 374.8,221.2 375.1,221.2 375.3,221.2 375.6,221.2 375.8,221.2 376.1,221.2 376.3,221.2 376.6,221.2 376.8,221.2 377.1,221.2 377.3,221.2 377.6,221.2 377.8,221.2 378.1,221.2 378.4,221.2 378.6,221.2 378.9,221.2 379.1,221.2 379.4,221.2 379.6,221.2 379.9,221.2 380.1,221.2 380.4,221.2 380.6,221.2 380.9,221.2 381.1,221.2 381.4,221.2 381.7,221.2 381.9,221.2 382.2,221.2 382.4,221.2 382.7,221.2 382.9,221.2 383.2,221.2 383.4,221.2 383.7,221.2 383.9,221.2 384.2,221.2 384.4,221.2 384.7,221.2 385.0,221.2 385.2,221.2 385.5,221.2 385.7,221.2 386.0,221.2 386.2,221.2 386.5,221.2 386.7,221.2 387.0,221.2 387.2,221.2 387.5,221.2 387.7,221.2 388.0,221.2 388.3,221.2 388.5,221.2 388.8,221.2 389.0,221.2 389.3,221.2 389.5,221.2 389.8,221.2 390.0,221.2 390.3,221.2 390.5,221.2 390.8,221.2 391.0,221.2 391.3,221.2 391.6,221.2 391.8,221.2 392.1,221.2 392.3,221.2 392.6,221.2 392.8,221.2 393.1,221.2 393.3,221.2 393.6,221.2 393.8,221.2 394.1,221.2 394.3,221.2 394.6,221.2 394.9,221.2 395.1,221.2 395.4,221.2 395.6,221.2 395.9,221.2 396.1,162.6 396.4,162.6 396.6,162.6 396.9,162.6 397.1,162.6 397.4,162.6 397.6,162.6 397.9,162.6 398.2,162.6 398.4,162.6 398.7,162.6 398.9,162.6 399.2,162.6 399.4,162.6 399.7,162.6 399.9,162.6 400.2,162.6 400.4,162.6 400.7,162.6 400.9,162.6 401.2,162.6 401.5,162.6 401.7,162.6 402.0,162.6 402.2,162.6 402.5,162.6 402.7,162.6 403.0,162.6 403.2,162.6 403.5,162.6 403.7,162.6 404.0,162.6 404.2,162.6 404.5,162.6 404.8,162.6 405.0,162.6 405.3,162.6 405.5,162.6 405.8,162.6 406.0,162.6 406.3,162.6 406.5,162.6 406.8,162.6 407.0,162.6 407.3,162.6 407.5,162.6 407.8,162.6 408.1,162.6 408.3,162.6 408.6,162.6 408.8,162.6 409.1,162.6 409.3,162.6 409.6,162.6 409.8,162.6 410.1,162.6 410.3,162.6 410.6,162.6 410.8,162.6 411.1,162.6 411.4,162.6 411.6,162.6 411.9,162.6 412.1,162.6 412.4,162.6 412.6,162.6 412.9,162.6 413.1,162.6 413.4,162.6 413.6,162.6 413.9,162.6 414.1,162.6 414.4,162.6 414.7,162.6 414.9,162.6 415.2,162.6 415.4,162.6 415.7,162.6 415.9,162.6 416.2,162.6 416.4,162.6 416.7,162.6 416.9,162.6 417.2,162.6 417.5,162.6 417.7,162.6 418.0,162.6 418.2,162.6 418.5,162.6 418.7,162.6 419.0,162.6 419.2,162.6 419.5,162.6 419.7,162.6 420.0,162.6 420.2,162.6 420.5,162.6 420.8,162.6 421.0,162.6 421.3,162.6 421.5,162.6 421.8,162.6 422.0,162.6 422.3,162.6 422.5,162.6 422.8,162.6 423.0,162.6 423.3,162.6 423.5,162.6 423.8,162.6 424.1,162.6 424.3,162.6 424.6,162.6 424.8,162.6 425.1,162.6 425.3,162.6 425.6,162.6 425.8,162.6 426.1,162.6 426.3,162.6 426.6,162.6 426.8,162.6 427.1,162.6 427.4,162.6 427.6,162.6 427.9,162.6 428.1,162.6 428.4,162.6 428.6,162.6 428.9,162.6 429.1,162.6 429.4,162.6 429.6,162.6 429.9,162.6 430.1,162.6 430.4,162.6 430.7,162.6 430.9,162.6 431.2,162.6 431.4,162.6 431.7,162.6 431.9,162.6 432.2,162.6 432.4,162.6 432.7,162.6 432.9,162.6 433.2,162.6 433.4,162.6 433.7,162.6 434.0,162.6 434.2,162.6 434.5,162.6 434.7,162.6 435.0,162.6 435.2,162.6 435.5,162.6 435.7,162.6 436.0,162.6 436.2,162.6 436.5,162.6 436.7,162.6 437.0,162.6 437.3,162.6 437.5,162.6 437.8,162.6 438.0,162.6 438.3,162.6 438.5,162.6 438.8,162.6 439.0,162.6 439.3,162.6 439.5,162.6 439.8,162.6 440.0,162.6 440.3,162.6 440.6,162.6 440.8,162.6 441.1,162.6 441.3,162.6 441.6,162.6 441.8,162.6 442.1,162.6 442.3,162.6 442.6,162.6 442.8,162.6 443.1,162.6 443.3,162.6 443.6,162.6 443.9,162.6 444.1,162.6 444.4,162.6 444.6,162.6 444.9,162.6 445.1,162.6 445.4,162.6 445.6,162.6 445.9,162.6 446.1,162.6 446.4,162.6 446.6,162.6 446.9,162.6 447.2,162.6 447.4,162.6 447.7,162.6 447.9,162.6 448.2,162.6 448.4,162.6 448.7,162.6 448.9,162.6 449.2,162.6 449.4,162.6 449.7,162.6 449.9,162.6 450.2,162.6 450.5,162.6 450.7,162.6 451.0,162.6 451.2,162.6 451.5,162.6 451.7,162.6 452.0,162.6 452.2,153.3 452.5,153.3 452.7,153.3 453.0,153.3 453.2,153.3 453.5,153.3 453.8,153.3 454.0,153.3 454.3,153.3 454.5,153.3 454.8,153.3 455.0,153.3 455.3,153.3 455.5,153.3 455.8,153.3 456.0,153.3 456.3,153.3 456.5,153.3 456.8,153.3 457.1,153.3 457.3,153.3 457.6,153.3 457.8,153.3 458.1,153.3 458.3,153.3 458.6,153.3 458.8,153.3 459.1,153.3 459.3,153.3 459.6,153.3 459.9,153.3 460.1,153.3 460.4,153.3 460.6,153.3 460.9,153.3 461.1,153.3 461.4,153.3 461.6,153.3 461.9,153.3 462.1,153.3 462.4,153.3 462.6,153.3 462.9,153.3 463.2,153.3 463.4,153.3 463.7,153.3 463.9,153.3 464.2,153.3 464.4,153.3 464.7,153.3 464.9,153.3 465.2,153.3 465.4,153.3 465.7,153.3 465.9,153.3 466.2,153.3 466.5,153.3 466.7,153.3 467.0,153.3 467.2,153.3 467.5,153.3 467.7,153.3 468.0,153.3 468.2,153.3 468.5,153.3 468.7,153.3 469.0,153.3 469.2,153.3 469.5,153.3 469.8,153.3 470.0,153.3 470.3,153.3 470.5,153.3 470.8,153.3 471.0,153.3 471.3,153.3 471.5,153.3 471.8,153.3 472.0,153.3 472.3,153.3 472.5,153.3 472.8,153.3 473.1,153.3 473.3,153.3 473.6,153.3 473.8,153.3 474.1,153.3 474.3,153.3 474.6,153.3 474.8,153.3 475.1,153.3 475.3,153.3 475.6,153.3 475.8,153.3 476.1,153.3 476.4,153.3 476.6,153.3 476.9,153.3 477.1,153.3 477.4,153.3 477.6,153.3 477.9,153.3 478.1,153.3 478.4,153.3 478.6,153.3 478.9,153.3 479.1,153.3 479.4,153.3 479.7,153.3 479.9,153.3 480.2,153.3 480.4,153.3 480.7,153.3 480.9,153.3 481.2,153.3 481.4,153.3 481.7,153.3 481.9,153.3 482.2,153.3 482.4,153.3 482.7,153.3 483.0,144.4 483.2,144.4 483.5,144.4 483.7,144.4 484.0,144.4 484.2,144.4 484.5,144.4 484.7,144.4 485.0,144.4 485.2,144.4 485.5,144.4 485.7,144.4 486.0,144.4 486.3,144.4 486.5,144.4 486.8,144.4 487.0,144.4 487.3,144.4 487.5,144.4 487.8,144.4 488.0,144.4 488.3,144.4 488.5,144.4 488.8,144.4 489.0,144.4 489.3,144.4 489.6,144.4 489.8,144.4 490.1,144.4 490.3,144.4 490.6,144.4 490.8,144.4 491.1,144.4 491.3,144.4 491.6,144.4 491.8,144.4 492.1,144.4 492.3,144.4 492.6,144.4 492.9,144.4 493.1,144.4 493.4,144.4 493.6,144.4 493.9,144.4 494.1,144.4 494.4,144.4 494.6,144.4 494.9,144.4 495.1,144.4 495.4,144.4 495.6,144.4 495.9,144.4 496.2,144.4 496.4,144.4 496.7,144.4 496.9,144.4 497.2,144.4 497.4,144.4 497.7,144.4 497.9,144.4 498.2,144.4 498.4,144.4 498.7,144.4 498.9,144.4 499.2,144.4 499.5,144.4 499.7,144.4 500.0,144.4 500.2,144.4 500.5,144.4 500.7,144.4 501.0,144.4 501.2,144.4 501.5,144.4 501.7,144.4 502.0,144.4 502.2,144.4 502.5,144.4 502.8,144.4 503.0,144.4 503.3,144.4 503.5,144.4 503.8,144.4 504.0,144.4 504.3,144.4 504.5,144.4 504.8,144.4 505.0,144.4 505.3,144.4 505.6,144.4 505.8,144.4 506.1,144.4 506.3,144.4 506.6,144.4 506.8,144.4 507.1,144.4 507.3,144.4 507.6,144.4 507.8,144.4 508.1,144.4 508.3,144.4 508.6,144.4 508.9,144.4 509.1,144.4 509.4,144.4 509.6,144.4 509.9,144.4 510.1,144.4 510.4,144.4 510.6,144.4 510.9,144.4 511.1,144.4 511.4,144.4 511.6,144.4 511.9,144.4 512.2,144.4 512.4,144.4 512.7,144.4 512.9,144.4 513.2,144.4 513.4,144.4 513.7,144.4 513.9,144.4 514.2,144.4 514.4,136.6 514.7,136.6 514.9,136.6 515.2,136.6 515.5,136.6 515.7,136.6 516.0,136.6 516.2,136.6 516.5,136.6 516.7,136.6 517.0,136.6 517.2,136.6 517.5,136.6 517.7,136.6 518.0,136.6 518.2,136.6 518.5,136.6 518.8,136.6 519.0,136.6 519.3,136.6 519.5,136.6 519.8,136.6 520.0,136.6 520.3,136.6 520.5,136.6 520.8,136.6 521.0,136.6 521.3,136.6 521.5,136.6 521.8,136.6 522.1,136.6 522.3,136.6 522.6,136.6 522.8,136.6 523.1,136.6 523.3,136.6 523.6,136.6 523.8,136.6 524.1,136.6 524.3,136.6 524.6,136.6 524.8,136.6 525.1,136.6 525.4,136.6 525.6,136.6 525.9,136.6 526.1,136.6 526.4,136.6 526.6,136.6 526.9,136.6 527.1,136.6 527.4,136.6 527.6,136.6 527.9,136.6 528.1,136.6 528.4,136.6 528.7,136.6 528.9,136.6 529.2,136.6 529.4,136.6 529.7,136.6 529.9,136.6 530.2,136.6 530.4,136.6 530.7,136.6 530.9,136.6 531.2,136.6 531.4,136.6 531.7,136.6 532.0,136.6 532.2,136.6 532.5,136.6 532.7,136.6 533.0,136.6 533.2,136.6 533.5,136.6 533.7,136.6 534.0,136.6 534.2,136.6 534.5,136.6 534.7,136.6 535.0,136.6 535.3,136.6 535.5,136.6 535.8,136.6 536.0,136.6 536.3,136.6 536.5,136.6 536.8,136.6 537.0,136.6 537.3,136.6 537.5,136.6 537.8,136.6 538.0,136.6 538.3,136.6 538.6,136.6 538.8,136.6 539.1,136.6 539.3,136.6 539.6,136.6 539.8,136.6 540.1,136.6 540.3,136.6 540.6,136.6 540.8,136.6 541.1,136.6 541.3,136.6 541.6,136.6 541.9,136.6 542.1,136.6 542.4,136.6 542.6,136.6 542.9,136.6 543.1,136.6 543.4,136.6 543.6,136.6 543.9,136.6 544.1,136.6 544.4,136.6 544.6,136.6 544.9,128.3 545.2,128.3 545.4,128.3 545.7,128.3 545.9,128.3 546.2,128.3 546.4,128.3 546.7,128.3 546.9,128.3 547.2,128.3 547.4,128.3 547.7,128.3 547.9,128.3 548.2,128.3 548.5,128.3 548.7,128.3 549.0,128.3 549.2,128.3 549.5,128.3 549.7,128.3 550.0,128.3 550.2,128.3 550.5,128.3 550.7,128.3 551.0,128.3 551.3,128.3 551.5,128.3 551.8,128.3 552.0,128.3 552.3,128.3 552.5,128.3 552.8,128.3 553.0,128.3 553.3,128.3 553.5,128.3 553.8,128.3 554.0,128.3 554.3,128.3 554.6,128.3 554.8,128.3 555.1,128.3 555.3,128.3 555.6,128.3 555.8,128.3 556.1,128.3 556.3,128.3 556.6,128.3 556.8,128.3 557.1,128.3 557.3,128.3 557.6,128.3 557.9,128.3 558.1,128.3 558.4,128.3 558.6,128.3 558.9,128.3 559.1,128.3 559.4,128.3 559.6,128.3 559.9,128.3 560.1,128.3 560.4,128.3 560.6,128.3 560.9,128.3 561.2,128.3 561.4,128.3 561.7,128.3 561.9,128.3 562.2,128.3 562.4,128.3 562.7,128.3 562.9,128.3 563.2,128.3 563.4,128.3 563.7,128.3 563.9,128.3 564.2,128.3 564.5,128.3 564.7,128.3 565.0,128.3 565.2,128.3 565.5,128.3 565.7,128.3 566.0,128.3 566.2,128.3 566.5,128.3 566.7,128.3 567.0,128.3 567.2,128.3 567.5,128.3 567.8,128.3 568.0,128.3 568.3,128.3 568.5,128.3 568.8,128.3 569.0,128.3 569.3,128.3 569.5,128.3 569.8,128.3 570.0,128.3 570.3,128.3 570.5,128.3 570.8,128.3 571.1,128.3 571.3,128.3 571.6,128.3 571.8,128.3 572.1,128.3 572.3,128.3 572.6,128.3 572.8,128.3 573.1,128.3 573.3,128.3 573.6,128.3 573.8,128.3 574.1,128.3 574.4,128.3 574.6,128.3 574.9,128.3 575.1,128.3 575.4,128.3 575.6,128.3 575.9,128.3 576.1,128.3 576.4,128.3 576.6,118.1 576.9,118.1 577.1,118.1 577.4,118.1 577.7,118.1 577.9,118.1 578.2,118.1 578.4,118.1 578.7,118.1 578.9,118.1 579.2,118.1 579.4,118.1 579.7,118.1 579.9,118.1 580.2,118.1 580.4,118.1 580.7,118.1 581.0,118.1 581.2,118.1 581.5,118.1 581.7,118.1 582.0,118.1 582.2,118.1 582.5,118.1 582.7,118.1 583.0,118.1 583.2,118.1 583.5,118.1 583.7,118.1 584.0,118.1 584.3,118.1 584.5,118.1 584.8,118.1 585.0,118.1 585.3,118.1 585.5,118.1 585.8,118.1 586.0,118.1 586.3,118.1 586.5,118.1 586.8,118.1 587.0,118.1 587.3,118.1 587.6,118.1 587.8,118.1 588.1,118.1 588.3,118.1 588.6,118.1 588.8,118.1 589.1,118.1 589.3,118.1 589.6,118.1 589.8,118.1 590.1,118.1 590.3,118.1 590.6,118.1 590.9,118.1 591.1,118.1 591.4,118.1 591.6,118.1 591.9,118.1 592.1,118.1 592.4,118.1 592.6,118.1 592.9,118.1 593.1,118.1 593.4,118.1 593.6,118.1 593.9,118.1 594.2,118.1 594.4,118.1 594.7,118.1 594.9,118.1 595.2,118.1 595.4,118.1 595.7,118.1 595.9,118.1 596.2,118.1 596.4,118.1 596.7,118.1 597.0,118.1 597.2,118.1 597.5,118.1 597.7,118.1 598.0,118.1 598.2,118.1 598.5,118.1 598.7,118.1 599.0,118.1 599.2,118.1 599.5,118.1 599.7,118.1 600.0,118.1 600.3,118.1 600.5,118.1 600.8,118.1 601.0,118.1 601.3,118.1 601.5,118.1 601.8,118.1 602.0,118.1 602.3,118.1 602.5,118.1 602.8,118.1 603.0,118.1 603.3,118.1 603.6,118.1 603.8,118.1 604.1,118.1 604.3,118.1 604.6,118.1 604.8,118.1 605.1,118.1 605.3,118.1 605.6,118.1 605.8,118.1 606.1,118.1 606.3,118.1 606.6,118.1 606.9,112.0 607.1,112.0 607.4,112.0 607.6,112.0 607.9,112.0 608.1,112.0 608.4,112.0 608.6,112.0 608.9,112.0 609.1,112.0 609.4,112.0 609.6,112.0 609.9,112.0 610.2,112.0 610.4,112.0 610.7,112.0 610.9,112.0 611.2,112.0 611.4,112.0 611.7,112.0 611.9,112.0 612.2,112.0 612.4,112.0 612.7,112.0 612.9,112.0 613.2,112.0 613.5,112.0 613.7,112.0 614.0,112.0 614.2,112.0 614.5,112.0 614.7,112.0 615.0,112.0 615.2,112.0 615.5,112.0 615.7,112.0 616.0,112.0 616.2,112.0 616.5,112.0 616.8,112.0 617.0,112.0 617.3,112.0 617.5,112.0 617.8,112.0 618.0,112.0 618.3,112.0 618.5,112.0 618.8,112.0 619.0,112.0 619.3,112.0 619.5,112.0 619.8,112.0 620.1,112.0 620.3,112.0 620.6,112.0 620.8,112.0 621.1,112.0 621.3,112.0 621.6,112.0 621.8,112.0 622.1,112.0 622.3,112.0 622.6,112.0 622.8,112.0 623.1,112.0 623.4,112.0 623.6,112.0 623.9,112.0 624.1,112.0 624.4,112.0 624.6,112.0 624.9,112.0 625.1,112.0 625.4,112.0 625.6,112.0 625.9,112.0 626.1,112.0 626.4,112.0 626.7,112.0 626.9,112.0 627.2,112.0 627.4,112.0 627.7,112.0 627.9,112.0 628.2,112.0 628.4,112.0 628.7,112.0 628.9,112.0 629.2,112.0 629.4,112.0 629.7,112.0 630.0,112.0 630.2,112.0 630.5,112.0 630.7,112.0 631.0,112.0 631.2,112.0 631.5,112.0 631.7,112.0 632.0,112.0 632.2,112.0 632.5,112.0 632.7,112.0 633.0,112.0 633.3,112.0 633.5,112.0 633.8,112.0 634.0,112.0 634.3,112.0 634.5,112.0 634.8,112.0 635.0,112.0 635.3,112.0 635.5,112.0 635.8,112.0 636.0,112.0 636.3,112.0 636.6,112.0 636.8,112.0 637.1,112.0 637.3,112.0 637.6,112.0 637.8,112.0 638.1,112.0 638.3,112.0 638.6,112.0 638.8,104.2 639.1,104.2 639.4,104.2 639.6,104.2 639.9,104.2 640.1,104.2 640.4,104.2 640.6,104.2 640.9,104.2 641.1,104.2 641.4,104.2 641.6,104.2 641.9,104.2 642.1,104.2 642.4,104.2 642.7,104.2 642.9,104.2 643.2,104.2 643.4,104.2 643.7,104.2 643.9,104.2 644.2,104.2 644.4,104.2 644.7,104.2 644.9,104.2 645.2,104.2 645.4,104.2 645.7,104.2 646.0,104.2 646.2,104.2 646.5,104.2 646.7,104.2 647.0,104.2 647.2,104.2 647.5,104.2 647.7,104.2 648.0,104.2 648.2,104.2 648.5,104.2 648.7,104.2 649.0,104.2 649.3,104.2 649.5,104.2 649.8,104.2 650.0,104.2 650.3,104.2 650.5,104.2 650.8,104.2 651.0,104.2 651.3,104.2 651.5,104.2 651.8,104.2 652.0,104.2 652.3,104.2 652.6,104.2 652.8,104.2 653.1,104.2 653.3,104.2 653.6,104.2 653.8,104.2 654.1,104.2 654.3,104.2 654.6,104.2 654.8,104.2 655.1,104.2 655.3,104.2 655.6,104.2 655.9,104.2 656.1,104.2 656.4,104.2 656.6,104.2 656.9,104.2 657.1,104.2 657.4,104.2 657.6,104.2 657.9,104.2 658.1,104.2 658.4,104.2 658.6,104.2 658.9,104.2 659.2,104.2 659.4,104.2 659.7,104.2 659.9,104.2 660.2,104.2 660.4,104.2 660.7,104.2 660.9,104.2 661.2,104.2 661.4,104.2 661.7,104.2 661.9,104.2 662.2,104.2 662.5,104.2 662.7,104.2 663.0,104.2 663.2,104.2 663.5,104.2 663.7,104.2 664.0,104.2 664.2,104.2 664.5,104.2 664.7,104.2 665.0,104.2 665.2,104.2 665.5,104.2 665.8,104.2 666.0,104.2 666.3,104.2 666.5,104.2 666.8,104.2 667.0,104.2 667.3,104.2 667.5,104.2 667.8,104.2 668.0,104.2 668.3,104.2 668.5,104.2 668.8,104.2 669.1,91.5 669.3,91.5 669.6,91.5 669.8,91.5 670.1,91.5 670.3,91.5 670.6,91.5 670.8,91.5 671.1,91.5 671.3,91.5 671.6,91.5 671.8,91.5 672.1,91.5 672.4,91.5 672.6,91.5 672.9,91.5 673.1,91.5 673.4,91.5 673.6,91.5 673.9,91.5 674.1,91.5 674.4,91.5 674.6,91.5 674.9,91.5 675.1,91.5 675.4,91.5 675.7,91.5 675.9,91.5 676.2,91.5 676.4,91.5 676.7,91.5 676.9,91.5 677.2,91.5 677.4,91.5 677.7,91.5 677.9,91.5 678.2,91.5 678.4,91.5 678.7,91.5 679.0,91.5 679.2,91.5 679.5,91.5 679.7,91.5 680.0,91.5 680.2,91.5 680.5,91.5 680.7,91.5 681.0,91.5 681.2,91.5 681.5,91.5 681.7,91.5 682.0,91.5 682.3,91.5 682.5,91.5 682.8,91.5 683.0,91.5 683.3,91.5 683.5,91.5 683.8,91.5 684.0,91.5 684.3,91.5 684.5,91.5 684.8,91.5 685.1,91.5 685.3,91.5 685.6,91.5 685.8,91.5 686.1,91.5 686.3,91.5 686.6,91.5 686.8,91.5 687.1,91.5 687.3,91.5 687.6,91.5 687.8,91.5 688.1,91.5 688.4,91.5 688.6,91.5 688.9,91.5 689.1,91.5 689.4,91.5 689.6,91.5 689.9,91.5 690.1,91.5 690.4,91.5 690.6,91.5 690.9,91.5 691.1,91.5 691.4,91.5 691.7,91.5 691.9,91.5 692.2,91.5 692.4,91.5 692.7,91.5 692.9,91.5 693.2,91.5 693.4,91.5 693.7,91.5 693.9,91.5 694.2,91.5 694.4,91.5 694.7,91.5 695.0,91.5 695.2,91.5 695.5,91.5 695.7,91.5 696.0,91.5 696.2,91.5 696.5,91.5 696.7,91.5 697.0,91.5 697.2,91.5 697.5,91.5 697.7,91.5 698.0,91.5 698.3,91.5 698.5,91.5 698.8,91.5 699.0,91.5 699.3,91.5 699.5,91.5 699.8,91.5 700.0,91.5 700.3,91.5 700.5,91.5 700.8,84.6 701.0,84.6 701.3,84.6 701.6,84.6 701.8,84.6 702.1,84.6 702.3,84.6 702.6,84.6 702.8,84.6 703.1,84.6 703.3,84.6 703.6,84.6 703.8,84.6 704.1,84.6 704.3,84.6 704.6,84.6 704.9,84.6 705.1,84.6 705.4,84.6 705.6,84.6 705.9,84.6 706.1,84.6 706.4,84.6 706.6,84.6 706.9,84.6 707.1,84.6 707.4,84.6 707.6,84.6 707.9,84.6 708.2,84.6 708.4,84.6 708.7,84.6 708.9,84.6 709.2,84.6 709.4,84.6 709.7,84.6 709.9,84.6 710.2,84.6 710.4,84.6 710.7,84.6 710.9,84.6 711.2,84.6 711.5,84.6 711.7,84.6 712.0,84.6 712.2,84.6 712.5,84.6 712.7,84.6 713.0,84.6 713.2,84.6 713.5,84.6 713.7,84.6 714.0,84.6 714.2,84.6 714.5,84.6 714.8,84.6 715.0,84.6 715.3,84.6 715.5,84.6 715.8,84.6 716.0,84.6 716.3,84.6 716.5,84.6 716.8,84.6 717.0,84.6 717.3,84.6 717.5,84.6 717.8,84.6 718.1,84.6 718.3,84.6 718.6,84.6 718.8,84.6 719.1,84.6 719.3,84.6 719.6,84.6 719.8,84.6 720.1,84.6 720.3,84.6 720.6,84.6 720.8,84.6 721.1,84.6 721.4,84.6 721.6,84.6 721.9,84.6 722.1,84.6 722.4,84.6 722.6,84.6 722.9,84.6 723.1,84.6 723.4,84.6 723.6,84.6 723.9,84.6 724.1,84.6 724.4,84.6 724.7,84.6 724.9,84.6 725.2,84.6 725.4,84.6 725.7,84.6 725.9,84.6 726.2,84.6 726.4,84.6 726.7,84.6 726.9,84.6 727.2,84.6 727.4,84.6 727.7,84.6 728.0,84.6 728.2,84.6 728.5,84.6 728.7,84.6 729.0,84.6 729.2,84.6 729.5,84.6 729.7,84.6 730.0,84.6 730.2,84.6 730.5,84.6 730.8,84.6 731.0,76.5 731.3,76.5 731.5,76.5 731.8,76.5 732.0,76.5 732.3,76.5 732.5,76.5 732.8,76.5 733.0,76.5 733.3,76.5 733.5,76.5 733.8,76.5 734.1,76.5 734.3,76.5 734.6,76.5 734.8,76.5 735.1,76.5 735.3,76.5 735.6,76.5 735.8,76.5 736.1,76.5 736.3,76.5 736.6,76.5 736.8,76.5 737.1,76.5 737.4,76.5 737.6,76.5 737.9,76.5 738.1,76.5 738.4,76.5 738.6,76.5 738.9,76.5 739.1,76.5 739.4,76.5 739.6,76.5 739.9,76.5 740.1,76.5 740.4,76.5 740.7,76.5 740.9,76.5 741.2,76.5 741.4,76.5 741.7,76.5 741.9,76.5 742.2,76.5 742.4,76.5 742.7,76.5 742.9,76.5 743.2,76.5 743.4,76.5 743.7,76.5 744.0,76.5 744.2,76.5 744.5,76.5 744.7,76.5 745.0,76.5 745.2,76.5 745.5,76.5 745.7,76.5 746.0,76.5 746.2,76.5 746.5,76.5 746.7,76.5 747.0,76.5 747.3,76.5 747.5,76.5 747.8,76.5 748.0,76.5 748.3,76.5 748.5,76.5 748.8,76.5 749.0,76.5 749.3,76.5 749.5,151.0 749.8,151.0 750.0,151.0 750.3,151.0 750.6,151.0 750.8,151.0 751.1,151.0 751.3,151.0 751.6,151.0 751.8,151.0 752.1,151.0 752.3,151.0 752.6,151.0 752.8,151.0 753.1,151.0 753.3,151.0 753.6,151.0 753.9,151.0 754.1,151.0 754.4,151.0 754.6,151.0 754.9,151.0 755.1,151.0 755.4,151.0 755.6,151.0 755.9,151.0 756.1,151.0 756.4,151.0 756.6,151.0 756.9,151.0 757.2,151.0 757.4,151.0 757.7,151.0 757.9,151.0 758.2,151.0 758.4,151.0 758.7,151.0 758.9,151.0 759.2,151.0 759.4,151.0 759.7,151.0 759.9,151.0 760.2,151.0 760.5,151.0 760.7,151.0 761.0,151.0 761.2,151.0 761.5,151.0 761.7,151.0 762.0,151.0 762.2,151.0 762.5,144.3 762.7,144.3 763.0,144.3 763.2,144.3 763.5,144.3 763.8,144.3 764.0,144.3 764.3,144.3 764.5,144.3 764.8,144.3 765.0,144.3 765.3,144.3 765.5,144.3 765.8,144.3 766.0,144.3 766.3,144.3 766.5,144.3 766.8,144.3 767.1,144.3 767.3,144.3 767.6,144.3 767.8,144.3 768.1,144.3 768.3,144.3 768.6,144.3 768.8,144.3 769.1,144.3 769.3,144.3 769.6,144.3 769.8,144.3 770.1,144.3 770.4,144.3 770.6,144.3 770.9,144.3 771.1,144.3 771.4,144.3 771.6,144.3 771.9,144.3 772.1,144.3 772.4,144.3 772.6,144.3 772.9,144.3 773.1,144.3 773.4,144.3 773.7,144.3 773.9,144.3 774.2,144.3 774.4,144.3 774.7,144.3 774.9,144.3 775.2,144.3 775.4,144.3 775.7,144.3 775.9,144.3 776.2,144.3 776.5,144.3 776.7,144.3 777.0,144.3 777.2,144.3 777.5,144.3 777.7,144.3 778.0,144.3 778.2,144.3 778.5,144.3 778.7,144.3 779.0,144.3 779.2,144.3 779.5,144.3 779.8,144.3 780.0,144.3 780.3,144.3 780.5,144.3 780.8,144.3 781.0,144.3 781.3,144.3 781.5,144.3 781.8,144.3 782.0,144.3 782.3,144.3 782.5,144.3 782.8,144.3 783.1,144.3 783.3,144.3 783.6,144.3 783.8,144.3 784.1,144.3 784.3,144.3 784.6,144.3 784.8,144.3 785.1,144.3 785.3,144.3 785.6,144.3 785.8,144.3 786.1,144.3 786.4,144.3 786.6,144.3 786.9,144.3 787.1,144.3 787.4,144.3 787.6,144.3 787.9,144.3 788.1,144.3 788.4,144.3 788.6,144.3 788.9,144.3 789.1,144.3 789.4,144.3 789.7,144.3 789.9,144.3 790.2,144.3 790.4,144.3 790.7,144.3 790.9,144.3 791.2,144.3 791.4,144.3 791.7,144.3 791.9,144.3 792.2,144.3 792.4,144.3 792.7,144.3 793.0,144.3 793.2,144.3 793.5,144.3 793.7,132.2 794.0,132.2 794.2,132.2 794.5,132.2 794.7,132.2 795.0,132.2 795.2,132.2 795.5,132.2 795.7,132.2 796.0,132.2"/><polyline fill="none" stroke="#16a34a" stroke-width="3" points="78.0,317.5 78.3,317.5 78.5,317.5 78.8,317.5 79.0,317.5 79.3,317.5 79.5,317.5 79.8,317.5 80.0,317.5 80.3,317.5 80.5,317.5 80.8,317.5 81.0,317.5 81.3,317.5 81.6,317.5 81.8,317.5 82.1,317.5 82.3,317.5 82.6,317.5 82.8,317.5 83.1,317.5 83.3,317.5 83.6,317.5 83.8,317.5 84.1,317.5 84.3,317.5 84.6,317.5 84.9,317.5 85.1,317.5 85.4,317.5 85.6,317.5 85.9,317.5 86.1,317.5 86.4,317.5 86.6,317.5 86.9,317.5 87.1,317.5 87.4,317.5 87.6,317.5 87.9,317.5 88.2,317.5 88.4,317.5 88.7,317.5 88.9,317.5 89.2,317.5 89.4,317.5 89.7,317.5 89.9,317.5 90.2,317.5 90.4,317.5 90.7,317.5 90.9,317.5 91.2,317.5 91.5,317.5 91.7,317.5 92.0,317.5 92.2,317.5 92.5,317.5 92.7,317.5 93.0,317.5 93.2,317.5 93.5,317.5 93.7,317.5 94.0,317.5 94.2,317.5 94.5,317.5 94.8,317.5 95.0,317.5 95.3,317.5 95.5,317.5 95.8,317.5 96.0,317.5 96.3,317.5 96.5,317.5 96.8,317.5 97.0,317.5 97.3,317.5 97.5,317.5 97.8,317.5 98.1,317.5 98.3,317.5 98.6,317.5 98.8,317.5 99.1,317.5 99.3,317.5 99.6,317.5 99.8,317.5 100.1,317.5 100.3,317.5 100.6,317.5 100.9,317.5 101.1,317.5 101.4,317.5 101.6,317.5 101.9,317.5 102.1,317.5 102.4,317.5 102.6,317.5 102.9,317.5 103.1,317.5 103.4,317.5 103.6,317.5 103.9,317.5 104.2,317.5 104.4,317.5 104.7,317.5 104.9,317.5 105.2,317.5 105.4,317.5 105.7,317.5 105.9,317.5 106.2,317.5 106.4,317.5 106.7,317.5 106.9,317.5 107.2,317.5 107.5,317.5 107.7,317.5 108.0,317.5 108.2,317.5 108.5,317.5 108.7,317.5 109.0,317.5 109.2,317.5 109.5,317.5 109.7,317.5 110.0,317.5 110.2,317.5 110.5,317.5 110.8,317.5 111.0,317.5 111.3,317.5 111.5,317.5 111.8,317.5 112.0,317.5 112.3,317.5 112.5,317.5 112.8,317.5 113.0,317.5 113.3,317.5 113.5,317.5 113.8,317.5 114.1,317.5 114.3,317.5 114.6,317.5 114.8,317.5 115.1,317.5 115.3,317.5 115.6,317.5 115.8,317.5 116.1,317.5 116.3,317.5 116.6,317.5 116.8,317.5 117.1,317.5 117.4,317.5 117.6,317.5 117.9,317.5 118.1,317.5 118.4,317.5 118.6,317.5 118.9,317.5 119.1,317.5 119.4,317.5 119.6,317.5 119.9,317.5 120.1,317.5 120.4,317.5 120.7,317.5 120.9,317.5 121.2,317.5 121.4,317.5 121.7,317.5 121.9,317.5 122.2,317.5 122.4,317.5 122.7,317.5 122.9,317.5 123.2,317.5 123.4,317.5 123.7,317.5 124.0,317.5 124.2,317.5 124.5,317.5 124.7,317.5 125.0,317.5 125.2,317.5 125.5,317.5 125.7,317.5 126.0,317.5 126.2,317.5 126.5,317.5 126.7,317.5 127.0,317.5 127.3,317.5 127.5,317.5 127.8,317.5 128.0,317.5 128.3,317.5 128.5,317.5 128.8,317.5 129.0,317.5 129.3,317.5 129.5,317.5 129.8,317.5 130.0,317.5 130.3,317.5 130.6,317.5 130.8,317.5 131.1,317.5 131.3,317.5 131.6,317.5 131.8,317.5 132.1,317.5 132.3,317.5 132.6,317.5 132.8,317.5 133.1,317.5 133.3,317.5 133.6,317.5 133.9,317.5 134.1,317.5 134.4,317.5 134.6,317.5 134.9,317.5 135.1,317.5 135.4,317.5 135.6,317.5 135.9,317.5 136.1,317.5 136.4,317.5 136.6,317.5 136.9,317.5 137.2,317.5 137.4,317.5 137.7,317.5 137.9,317.5 138.2,317.5 138.4,317.5 138.7,317.5 138.9,275.1 139.2,275.1 139.4,275.1 139.7,275.1 139.9,275.1 140.2,275.1 140.5,275.1 140.7,275.1 141.0,275.1 141.2,275.1 141.5,275.1 141.7,275.1 142.0,275.1 142.2,275.1 142.5,275.1 142.7,275.1 143.0,275.1 143.2,275.1 143.5,275.1 143.8,275.1 144.0,275.1 144.3,275.1 144.5,275.1 144.8,275.1 145.0,275.1 145.3,275.1 145.5,275.1 145.8,275.1 146.0,275.1 146.3,275.1 146.6,275.1 146.8,275.1 147.1,275.1 147.3,275.1 147.6,275.1 147.8,275.1 148.1,275.1 148.3,275.1 148.6,275.1 148.8,275.1 149.1,275.1 149.3,275.1 149.6,275.1 149.9,275.1 150.1,275.1 150.4,275.1 150.6,275.1 150.9,275.1 151.1,275.1 151.4,275.1 151.6,275.1 151.9,275.1 152.1,275.1 152.4,275.1 152.6,275.1 152.9,275.1 153.2,275.1 153.4,275.1 153.7,275.1 153.9,275.1 154.2,275.1 154.4,275.1 154.7,275.1 154.9,275.1 155.2,275.1 155.4,275.1 155.7,275.1 155.9,275.1 156.2,275.1 156.5,275.1 156.7,275.1 157.0,275.1 157.2,275.1 157.5,275.1 157.7,275.1 158.0,275.1 158.2,275.1 158.5,275.1 158.7,275.1 159.0,275.1 159.2,275.1 159.5,275.1 159.8,275.1 160.0,275.1 160.3,275.1 160.5,275.1 160.8,275.1 161.0,275.1 161.3,275.1 161.5,275.1 161.8,275.1 162.0,275.1 162.3,275.1 162.5,275.1 162.8,275.1 163.1,275.1 163.3,275.1 163.6,275.1 163.8,275.1 164.1,275.1 164.3,275.1 164.6,275.1 164.8,275.1 165.1,275.1 165.3,275.1 165.6,275.1 165.8,275.1 166.1,275.1 166.4,275.1 166.6,275.1 166.9,275.1 167.1,275.1 167.4,275.1 167.6,275.1 167.9,275.1 168.1,275.1 168.4,275.1 168.6,275.1 168.9,275.1 169.1,275.1 169.4,275.1 169.7,275.1 169.9,275.1 170.2,275.1 170.4,275.1 170.7,275.1 170.9,275.1 171.2,275.1 171.4,275.1 171.7,275.1 171.9,275.1 172.2,275.1 172.4,275.1 172.7,275.1 173.0,275.1 173.2,275.1 173.5,275.1 173.7,275.1 174.0,275.1 174.2,275.1 174.5,275.1 174.7,275.1 175.0,275.1 175.2,275.1 175.5,275.1 175.7,275.1 176.0,275.1 176.3,275.1 176.5,275.1 176.8,275.1 177.0,275.1 177.3,275.1 177.5,275.1 177.8,275.1 178.0,275.1 178.3,275.1 178.5,275.1 178.8,275.1 179.0,275.1 179.3,275.1 179.6,275.1 179.8,275.1 180.1,275.1 180.3,275.1 180.6,275.1 180.8,275.1 181.1,275.1 181.3,275.1 181.6,275.1 181.8,275.1 182.1,275.1 182.3,275.1 182.6,275.1 182.9,275.1 183.1,275.1 183.4,275.1 183.6,275.1 183.9,275.1 184.1,275.1 184.4,275.1 184.6,275.1 184.9,275.1 185.1,275.1 185.4,275.1 185.6,275.1 185.9,275.1 186.2,275.1 186.4,275.1 186.7,275.1 186.9,275.1 187.2,275.1 187.4,275.1 187.7,275.1 187.9,275.1 188.2,275.1 188.4,275.1 188.7,275.1 188.9,275.1 189.2,275.1 189.5,275.1 189.7,275.1 190.0,275.1 190.2,275.1 190.5,275.1 190.7,275.1 191.0,275.1 191.2,275.1 191.5,275.1 191.7,275.1 192.0,275.1 192.3,275.1 192.5,275.1 192.8,275.1 193.0,275.1 193.3,275.1 193.5,275.1 193.8,275.1 194.0,275.1 194.3,275.1 194.5,275.1 194.8,275.1 195.0,275.1 195.3,275.1 195.6,275.1 195.8,275.1 196.1,275.1 196.3,275.1 196.6,275.1 196.8,275.1 197.1,275.1 197.3,275.1 197.6,275.1 197.8,275.1 198.1,275.1 198.3,275.1 198.6,275.1 198.9,275.1 199.1,275.1 199.4,275.1 199.6,275.1 199.9,275.1 200.1,275.1 200.4,275.1 200.6,275.1 200.9,275.1 201.1,275.1 201.4,275.1 201.6,275.1 201.9,275.1 202.2,275.1 202.4,275.1 202.7,275.1 202.9,275.1 203.2,275.1 203.4,275.1 203.7,275.1 203.9,275.1 204.2,275.1 204.4,275.1 204.7,275.1 204.9,275.1 205.2,275.1 205.5,275.1 205.7,275.1 206.0,275.1 206.2,275.1 206.5,275.1 206.7,275.1 207.0,275.1 207.2,275.1 207.5,275.1 207.7,275.1 208.0,275.1 208.2,275.1 208.5,275.1 208.8,275.1 209.0,275.1 209.3,275.1 209.5,275.1 209.8,275.1 210.0,275.1 210.3,275.1 210.5,275.1 210.8,275.1 211.0,275.1 211.3,275.1 211.5,275.1 211.8,275.1 212.1,275.1 212.3,275.1 212.6,275.1 212.8,275.1 213.1,275.1 213.3,275.1 213.6,275.1 213.8,275.1 214.1,275.1 214.3,275.1 214.6,275.1 214.8,275.1 215.1,275.1 215.4,275.1 215.6,275.1 215.9,275.1 216.1,275.1 216.4,275.1 216.6,275.1 216.9,275.1 217.1,275.1 217.4,275.1 217.6,275.1 217.9,275.1 218.1,275.1 218.4,275.1 218.7,275.1 218.9,275.1 219.2,275.1 219.4,275.1 219.7,275.1 219.9,275.1 220.2,275.1 220.4,275.1 220.7,275.1 220.9,275.1 221.2,275.1 221.4,275.1 221.7,275.1 222.0,275.1 222.2,275.1 222.5,275.1 222.7,275.1 223.0,275.1 223.2,275.1 223.5,275.1 223.7,275.1 224.0,275.1 224.2,275.1 224.5,275.1 224.7,275.1 225.0,275.1 225.3,275.1 225.5,275.1 225.8,275.1 226.0,275.1 226.3,275.1 226.5,275.1 226.8,275.1 227.0,275.1 227.3,275.1 227.5,275.1 227.8,275.1 228.0,275.1 228.3,275.1 228.6,275.1 228.8,275.1 229.1,275.1 229.3,275.1 229.6,275.1 229.8,275.1 230.1,275.1 230.3,275.1 230.6,275.1 230.8,275.1 231.1,275.1 231.3,275.1 231.6,275.1 231.9,275.1 232.1,275.1 232.4,275.1 232.6,275.1 232.9,275.1 233.1,275.1 233.4,275.1 233.6,275.1 233.9,275.1 234.1,275.1 234.4,275.1 234.6,275.1 234.9,275.1 235.2,275.1 235.4,275.1 235.7,275.1 235.9,275.1 236.2,275.1 236.4,275.1 236.7,275.1 236.9,275.1 237.2,275.1 237.4,275.1 237.7,275.1 238.0,275.1 238.2,275.1 238.5,275.1 238.7,275.1 239.0,275.1 239.2,275.1 239.5,275.1 239.7,275.1 240.0,275.1 240.2,275.1 240.5,275.1 240.7,275.1 241.0,275.1 241.3,275.1 241.5,275.1 241.8,275.1 242.0,275.1 242.3,275.1 242.5,275.1 242.8,275.1 243.0,275.1 243.3,275.1 243.5,275.1 243.8,275.1 244.0,275.1 244.3,275.1 244.6,275.1 244.8,275.1 245.1,275.1 245.3,275.1 245.6,275.1 245.8,275.1 246.1,275.1 246.3,275.1 246.6,275.1 246.8,275.1 247.1,275.1 247.3,275.1 247.6,275.1 247.9,275.1 248.1,275.1 248.4,275.1 248.6,275.1 248.9,275.1 249.1,275.1 249.4,275.1 249.6,275.1 249.9,275.1 250.1,275.1 250.4,275.1 250.6,275.1 250.9,275.1 251.2,275.1 251.4,275.1 251.7,275.1 251.9,275.1 252.2,275.1 252.4,275.1 252.7,275.1 252.9,275.1 253.2,275.1 253.4,275.1 253.7,275.1 253.9,275.1 254.2,275.1 254.5,275.1 254.7,275.1 255.0,275.1 255.2,275.1 255.5,275.1 255.7,275.1 256.0,275.1 256.2,275.1 256.5,275.1 256.7,275.1 257.0,275.1 257.2,275.1 257.5,275.1 257.8,275.1 258.0,275.1 258.3,275.1 258.5,275.1 258.8,275.1 259.0,275.1 259.3,275.1 259.5,275.1 259.8,275.1 260.0,275.1 260.3,275.1 260.5,275.1 260.8,275.1 261.1,275.1 261.3,275.1 261.6,275.1 261.8,275.1 262.1,275.1 262.3,275.1 262.6,275.1 262.8,275.1 263.1,275.1 263.3,275.1 263.6,275.1 263.8,275.1 264.1,275.1 264.4,275.1 264.6,275.1 264.9,275.1 265.1,275.1 265.4,275.1 265.6,275.1 265.9,275.1 266.1,275.1 266.4,275.1 266.6,275.1 266.9,275.1 267.1,275.1 267.4,275.1 267.7,275.1 267.9,275.1 268.2,275.1 268.4,275.1 268.7,275.1 268.9,275.1 269.2,275.1 269.4,275.1 269.7,275.1 269.9,275.1 270.2,275.1 270.4,275.1 270.7,275.1 271.0,275.1 271.2,275.1 271.5,275.1 271.7,275.1 272.0,275.1 272.2,275.1 272.5,275.1 272.7,275.1 273.0,275.1 273.2,275.1 273.5,275.1 273.7,275.1 274.0,275.1 274.3,275.1 274.5,275.1 274.8,275.1 275.0,275.1 275.3,275.1 275.5,221.2 275.8,221.2 276.0,221.2 276.3,221.2 276.5,221.2 276.8,221.2 277.0,221.2 277.3,221.2 277.6,221.2 277.8,221.2 278.1,221.2 278.3,221.2 278.6,221.2 278.8,221.2 279.1,221.2 279.3,221.2 279.6,221.2 279.8,221.2 280.1,221.2 280.4,221.2 280.6,221.2 280.9,221.2 281.1,221.2 281.4,221.2 281.6,221.2 281.9,221.2 282.1,221.2 282.4,221.2 282.6,221.2 282.9,221.2 283.1,221.2 283.4,221.2 283.7,221.2 283.9,221.2 284.2,221.2 284.4,221.2 284.7,221.2 284.9,221.2 285.2,221.2 285.4,221.2 285.7,221.2 285.9,221.2 286.2,221.2 286.4,221.2 286.7,221.2 287.0,221.2 287.2,221.2 287.5,221.2 287.7,221.2 288.0,221.2 288.2,221.2 288.5,221.2 288.7,221.2 289.0,221.2 289.2,221.2 289.5,221.2 289.7,221.2 290.0,221.2 290.3,221.2 290.5,221.2 290.8,221.2 291.0,221.2 291.3,221.2 291.5,221.2 291.8,221.2 292.0,221.2 292.3,221.2 292.5,221.2 292.8,221.2 293.0,221.2 293.3,221.2 293.6,221.2 293.8,221.2 294.1,221.2 294.3,221.2 294.6,221.2 294.8,221.2 295.1,221.2 295.3,221.2 295.6,221.2 295.8,221.2 296.1,221.2 296.3,221.2 296.6,221.2 296.9,221.2 297.1,221.2 297.4,221.2 297.6,221.2 297.9,221.2 298.1,221.2 298.4,221.2 298.6,221.2 298.9,221.2 299.1,221.2 299.4,221.2 299.6,221.2 299.9,221.2 300.2,221.2 300.4,221.2 300.7,221.2 300.9,221.2 301.2,221.2 301.4,221.2 301.7,221.2 301.9,221.2 302.2,221.2 302.4,221.2 302.7,221.2 302.9,221.2 303.2,221.2 303.5,221.2 303.7,221.2 304.0,221.2 304.2,221.2 304.5,221.2 304.7,221.2 305.0,221.2 305.2,221.2 305.5,221.2 305.7,221.2 306.0,221.2 306.2,221.2 306.5,221.2 306.8,221.2 307.0,221.2 307.3,221.2 307.5,221.2 307.8,221.2 308.0,221.2 308.3,221.2 308.5,221.2 308.8,221.2 309.0,221.2 309.3,221.2 309.5,221.2 309.8,221.2 310.1,221.2 310.3,221.2 310.6,221.2 310.8,221.2 311.1,221.2 311.3,221.2 311.6,221.2 311.8,221.2 312.1,221.2 312.3,221.2 312.6,221.2 312.8,221.2 313.1,221.2 313.4,221.2 313.6,221.2 313.9,221.2 314.1,221.2 314.4,221.2 314.6,221.2 314.9,221.2 315.1,221.2 315.4,221.2 315.6,221.2 315.9,221.2 316.1,221.2 316.4,221.2 316.7,221.2 316.9,221.2 317.2,221.2 317.4,221.2 317.7,221.2 317.9,221.2 318.2,221.2 318.4,221.2 318.7,221.2 318.9,221.2 319.2,221.2 319.4,221.2 319.7,221.2 320.0,221.2 320.2,221.2 320.5,221.2 320.7,221.2 321.0,221.2 321.2,221.2 321.5,221.2 321.7,221.2 322.0,221.2 322.2,221.2 322.5,221.2 322.7,221.2 323.0,221.2 323.3,221.2 323.5,221.2 323.8,221.2 324.0,221.2 324.3,221.2 324.5,221.2 324.8,221.2 325.0,221.2 325.3,221.2 325.5,221.2 325.8,221.2 326.1,221.2 326.3,221.2 326.6,221.2 326.8,221.2 327.1,221.2 327.3,221.2 327.6,221.2 327.8,221.2 328.1,221.2 328.3,221.2 328.6,221.2 328.8,221.2 329.1,221.2 329.4,221.2 329.6,221.2 329.9,221.2 330.1,221.2 330.4,221.2 330.6,221.2 330.9,221.2 331.1,221.2 331.4,221.2 331.6,221.2 331.9,221.2 332.1,221.2 332.4,221.2 332.7,221.2 332.9,221.2 333.2,221.2 333.4,221.2 333.7,221.2 333.9,221.2 334.2,221.2 334.4,221.2 334.7,221.2 334.9,221.2 335.2,221.2 335.4,221.2 335.7,221.2 336.0,221.2 336.2,221.2 336.5,221.2 336.7,221.2 337.0,221.2 337.2,221.2 337.5,221.2 337.7,221.2 338.0,221.2 338.2,221.2 338.5,221.2 338.7,221.2 339.0,221.2 339.3,221.2 339.5,221.2 339.8,221.2 340.0,221.2 340.3,221.2 340.5,221.2 340.8,221.2 341.0,221.2 341.3,221.2 341.5,221.2 341.8,221.2 342.0,221.2 342.3,221.2 342.6,221.2 342.8,221.2 343.1,221.2 343.3,221.2 343.6,221.2 343.8,221.2 344.1,221.2 344.3,221.2 344.6,221.2 344.8,221.2 345.1,221.2 345.3,221.2 345.6,221.2 345.9,221.2 346.1,221.2 346.4,221.2 346.6,221.2 346.9,221.2 347.1,221.2 347.4,221.2 347.6,221.2 347.9,221.2 348.1,221.2 348.4,221.2 348.6,221.2 348.9,221.2 349.2,221.2 349.4,221.2 349.7,221.2 349.9,221.2 350.2,221.2 350.4,221.2 350.7,221.2 350.9,221.2 351.2,221.2 351.4,221.2 351.7,221.2 351.9,221.2 352.2,221.2 352.5,221.2 352.7,221.2 353.0,221.2 353.2,221.2 353.5,221.2 353.7,221.2 354.0,221.2 354.2,221.2 354.5,221.2 354.7,221.2 355.0,221.2 355.2,221.2 355.5,221.2 355.8,221.2 356.0,221.2 356.3,221.2 356.5,221.2 356.8,221.2 357.0,221.2 357.3,221.2 357.5,221.2 357.8,221.2 358.0,221.2 358.3,221.2 358.5,221.2 358.8,221.2 359.1,221.2 359.3,221.2 359.6,221.2 359.8,221.2 360.1,221.2 360.3,221.2 360.6,221.2 360.8,221.2 361.1,221.2 361.3,221.2 361.6,221.2 361.8,221.2 362.1,221.2 362.4,221.2 362.6,221.2 362.9,221.2 363.1,221.2 363.4,221.2 363.6,221.2 363.9,221.2 364.1,221.2 364.4,221.2 364.6,221.2 364.9,221.2 365.1,221.2 365.4,221.2 365.7,221.2 365.9,221.2 366.2,221.2 366.4,221.2 366.7,221.2 366.9,221.2 367.2,221.2 367.4,221.2 367.7,221.2 367.9,221.2 368.2,221.2 368.4,221.2 368.7,221.2 369.0,221.2 369.2,221.2 369.5,221.2 369.7,221.2 370.0,221.2 370.2,221.2 370.5,221.2 370.7,221.2 371.0,221.2 371.2,221.2 371.5,221.2 371.8,221.2 372.0,221.2 372.3,221.2 372.5,221.2 372.8,221.2 373.0,221.2 373.3,221.2 373.5,221.2 373.8,221.2 374.0,221.2 374.3,221.2 374.5,221.2 374.8,221.2 375.1,221.2 375.3,221.2 375.6,221.2 375.8,221.2 376.1,221.2 376.3,221.2 376.6,221.2 376.8,221.2 377.1,221.2 377.3,221.2 377.6,221.2 377.8,221.2 378.1,221.2 378.4,221.2 378.6,221.2 378.9,221.2 379.1,221.2 379.4,221.2 379.6,221.2 379.9,221.2 380.1,221.2 380.4,221.2 380.6,221.2 380.9,221.2 381.1,221.2 381.4,221.2 381.7,221.2 381.9,221.2 382.2,221.2 382.4,221.2 382.7,221.2 382.9,221.2 383.2,221.2 383.4,221.2 383.7,221.2 383.9,221.2 384.2,221.2 384.4,221.2 384.7,221.2 385.0,221.2 385.2,221.2 385.5,221.2 385.7,221.2 386.0,221.2 386.2,221.2 386.5,221.2 386.7,221.2 387.0,221.2 387.2,221.2 387.5,221.2 387.7,221.2 388.0,221.2 388.3,221.2 388.5,221.2 388.8,221.2 389.0,221.2 389.3,221.2 389.5,221.2 389.8,221.2 390.0,221.2 390.3,221.2 390.5,221.2 390.8,221.2 391.0,221.2 391.3,221.2 391.6,221.2 391.8,221.2 392.1,221.2 392.3,221.2 392.6,221.2 392.8,221.2 393.1,221.2 393.3,221.2 393.6,221.2 393.8,221.2 394.1,221.2 394.3,221.2 394.6,221.2 394.9,221.2 395.1,221.2 395.4,221.2 395.6,221.2 395.9,221.2 396.1,162.6 396.4,162.6 396.6,162.6 396.9,162.6 397.1,162.6 397.4,162.6 397.6,162.6 397.9,162.6 398.2,162.6 398.4,162.6 398.7,162.6 398.9,162.6 399.2,162.6 399.4,162.6 399.7,162.6 399.9,162.6 400.2,162.6 400.4,162.6 400.7,162.6 400.9,162.6 401.2,162.6 401.5,162.6 401.7,162.6 402.0,162.6 402.2,162.6 402.5,162.6 402.7,162.6 403.0,162.6 403.2,162.6 403.5,162.6 403.7,162.6 404.0,162.6 404.2,162.6 404.5,162.6 404.8,162.6 405.0,162.6 405.3,162.6 405.5,162.6 405.8,162.6 406.0,162.6 406.3,162.6 406.5,162.6 406.8,162.6 407.0,162.6 407.3,162.6 407.5,162.6 407.8,162.6 408.1,162.6 408.3,162.6 408.6,162.6 408.8,162.6 409.1,162.6 409.3,162.6 409.6,162.6 409.8,162.6 410.1,162.6 410.3,162.6 410.6,162.6 410.8,162.6 411.1,162.6 411.4,162.6 411.6,162.6 411.9,162.6 412.1,162.6 412.4,162.6 412.6,162.6 412.9,162.6 413.1,162.6 413.4,162.6 413.6,162.6 413.9,162.6 414.1,162.6 414.4,162.6 414.7,162.6 414.9,162.6 415.2,162.6 415.4,162.6 415.7,162.6 415.9,162.6 416.2,162.6 416.4,162.6 416.7,162.6 416.9,162.6 417.2,162.6 417.5,162.6 417.7,162.6 418.0,162.6 418.2,162.6 418.5,162.6 418.7,162.6 419.0,162.6 419.2,162.6 419.5,162.6 419.7,162.6 420.0,162.6 420.2,162.6 420.5,162.6 420.8,162.6 421.0,162.6 421.3,162.6 421.5,162.6 421.8,162.6 422.0,162.6 422.3,162.6 422.5,162.6 422.8,162.6 423.0,162.6 423.3,162.6 423.5,162.6 423.8,162.6 424.1,162.6 424.3,162.6 424.6,162.6 424.8,162.6 425.1,162.6 425.3,162.6 425.6,162.6 425.8,162.6 426.1,162.6 426.3,162.6 426.6,162.6 426.8,162.6 427.1,162.6 427.4,162.6 427.6,162.6 427.9,162.6 428.1,162.6 428.4,162.6 428.6,162.6 428.9,162.6 429.1,162.6 429.4,162.6 429.6,162.6 429.9,162.6 430.1,162.6 430.4,162.6 430.7,162.6 430.9,162.6 431.2,162.6 431.4,162.6 431.7,162.6 431.9,162.6 432.2,162.6 432.4,162.6 432.7,162.6 432.9,162.6 433.2,162.6 433.4,162.6 433.7,162.6 434.0,162.6 434.2,162.6 434.5,162.6 434.7,162.6 435.0,162.6 435.2,162.6 435.5,162.6 435.7,162.6 436.0,162.6 436.2,162.6 436.5,162.6 436.7,162.6 437.0,162.6 437.3,162.6 437.5,162.6 437.8,162.6 438.0,162.6 438.3,162.6 438.5,162.6 438.8,162.6 439.0,162.6 439.3,162.6 439.5,162.6 439.8,162.6 440.0,162.6 440.3,162.6 440.6,162.6 440.8,162.6 441.1,162.6 441.3,162.6 441.6,162.6 441.8,162.6 442.1,162.6 442.3,162.6 442.6,162.6 442.8,162.6 443.1,162.6 443.3,162.6 443.6,162.6 443.9,162.6 444.1,162.6 444.4,162.6 444.6,162.6 444.9,162.6 445.1,162.6 445.4,162.6 445.6,162.6 445.9,162.6 446.1,162.6 446.4,162.6 446.6,162.6 446.9,162.6 447.2,162.6 447.4,162.6 447.7,162.6 447.9,162.6 448.2,162.6 448.4,162.6 448.7,162.6 448.9,162.6 449.2,162.6 449.4,162.6 449.7,162.6 449.9,162.6 450.2,162.6 450.5,162.6 450.7,162.6 451.0,162.6 451.2,162.6 451.5,162.6 451.7,162.6 452.0,162.6 452.2,153.3 452.5,153.3 452.7,153.3 453.0,153.3 453.2,153.3 453.5,153.3 453.8,153.3 454.0,153.3 454.3,153.3 454.5,153.3 454.8,153.3 455.0,153.3 455.3,153.3 455.5,153.3 455.8,153.3 456.0,153.3 456.3,153.3 456.5,153.3 456.8,153.3 457.1,153.3 457.3,153.3 457.6,153.3 457.8,153.3 458.1,153.3 458.3,153.3 458.6,153.3 458.8,153.3 459.1,153.3 459.3,153.3 459.6,153.3 459.9,153.3 460.1,153.3 460.4,153.3 460.6,153.3 460.9,153.3 461.1,153.3 461.4,153.3 461.6,153.3 461.9,153.3 462.1,153.3 462.4,153.3 462.6,153.3 462.9,153.3 463.2,153.3 463.4,153.3 463.7,153.3 463.9,153.3 464.2,153.3 464.4,153.3 464.7,153.3 464.9,153.3 465.2,153.3 465.4,153.3 465.7,153.3 465.9,153.3 466.2,153.3 466.5,153.3 466.7,153.3 467.0,153.3 467.2,153.3 467.5,153.3 467.7,153.3 468.0,153.3 468.2,153.3 468.5,153.3 468.7,153.3 469.0,153.3 469.2,153.3 469.5,153.3 469.8,153.3 470.0,153.3 470.3,153.3 470.5,153.3 470.8,153.3 471.0,153.3 471.3,153.3 471.5,153.3 471.8,153.3 472.0,153.3 472.3,153.3 472.5,153.3 472.8,153.3 473.1,153.3 473.3,153.3 473.6,153.3 473.8,153.3 474.1,153.3 474.3,153.3 474.6,153.3 474.8,153.3 475.1,153.3 475.3,153.3 475.6,153.3 475.8,153.3 476.1,153.3 476.4,153.3 476.6,153.3 476.9,153.3 477.1,153.3 477.4,153.3 477.6,153.3 477.9,153.3 478.1,153.3 478.4,153.3 478.6,153.3 478.9,153.3 479.1,153.3 479.4,153.3 479.7,153.3 479.9,153.3 480.2,153.3 480.4,153.3 480.7,153.3 480.9,153.3 481.2,153.3 481.4,153.3 481.7,153.3 481.9,153.3 482.2,153.3 482.4,153.3 482.7,153.3 483.0,144.4 483.2,144.4 483.5,144.4 483.7,144.4 484.0,144.4 484.2,144.4 484.5,144.4 484.7,144.4 485.0,144.4 485.2,144.4 485.5,144.4 485.7,144.4 486.0,144.4 486.3,144.4 486.5,144.4 486.8,144.4 487.0,144.4 487.3,144.4 487.5,144.4 487.8,144.4 488.0,144.4 488.3,144.4 488.5,144.4 488.8,144.4 489.0,144.4 489.3,144.4 489.6,144.4 489.8,144.4 490.1,144.4 490.3,144.4 490.6,144.4 490.8,144.4 491.1,144.4 491.3,144.4 491.6,144.4 491.8,144.4 492.1,144.4 492.3,144.4 492.6,144.4 492.9,144.4 493.1,144.4 493.4,144.4 493.6,144.4 493.9,144.4 494.1,144.4 494.4,144.4 494.6,144.4 494.9,144.4 495.1,144.4 495.4,144.4 495.6,144.4 495.9,144.4 496.2,144.4 496.4,144.4 496.7,144.4 496.9,144.4 497.2,144.4 497.4,144.4 497.7,144.4 497.9,144.4 498.2,144.4 498.4,144.4 498.7,144.4 498.9,144.4 499.2,144.4 499.5,144.4 499.7,144.4 500.0,144.4 500.2,144.4 500.5,144.4 500.7,144.4 501.0,144.4 501.2,144.4 501.5,144.4 501.7,144.4 502.0,144.4 502.2,144.4 502.5,144.4 502.8,144.4 503.0,144.4 503.3,144.4 503.5,144.4 503.8,144.4 504.0,144.4 504.3,144.4 504.5,144.4 504.8,144.4 505.0,144.4 505.3,144.4 505.6,144.4 505.8,144.4 506.1,144.4 506.3,144.4 506.6,144.4 506.8,144.4 507.1,144.4 507.3,144.4 507.6,144.4 507.8,144.4 508.1,144.4 508.3,144.4 508.6,144.4 508.9,144.4 509.1,144.4 509.4,144.4 509.6,144.4 509.9,144.4 510.1,144.4 510.4,144.4 510.6,144.4 510.9,144.4 511.1,144.4 511.4,144.4 511.6,144.4 511.9,144.4 512.2,144.4 512.4,144.4 512.7,144.4 512.9,144.4 513.2,144.4 513.4,144.4 513.7,144.4 513.9,144.4 514.2,144.4 514.4,136.6 514.7,136.6 514.9,136.6 515.2,136.6 515.5,136.6 515.7,136.6 516.0,136.6 516.2,136.6 516.5,136.6 516.7,136.6 517.0,136.6 517.2,136.6 517.5,136.6 517.7,136.6 518.0,136.6 518.2,136.6 518.5,136.6 518.8,136.6 519.0,136.6 519.3,136.6 519.5,136.6 519.8,136.6 520.0,136.6 520.3,136.6 520.5,136.6 520.8,136.6 521.0,136.6 521.3,136.6 521.5,136.6 521.8,136.6 522.1,136.6 522.3,136.6 522.6,136.6 522.8,136.6 523.1,136.6 523.3,136.6 523.6,136.6 523.8,136.6 524.1,136.6 524.3,136.6 524.6,136.6 524.8,136.6 525.1,136.6 525.4,136.6 525.6,136.6 525.9,136.6 526.1,136.6 526.4,136.6 526.6,136.6 526.9,136.6 527.1,136.6 527.4,136.6 527.6,136.6 527.9,136.6 528.1,136.6 528.4,136.6 528.7,136.6 528.9,136.6 529.2,136.6 529.4,136.6 529.7,136.6 529.9,136.6 530.2,136.6 530.4,136.6 530.7,136.6 530.9,136.6 531.2,136.6 531.4,136.6 531.7,136.6 532.0,136.6 532.2,136.6 532.5,136.6 532.7,136.6 533.0,136.6 533.2,136.6 533.5,136.6 533.7,136.6 534.0,136.6 534.2,136.6 534.5,136.6 534.7,136.6 535.0,136.6 535.3,136.6 535.5,136.6 535.8,136.6 536.0,136.6 536.3,136.6 536.5,136.6 536.8,136.6 537.0,136.6 537.3,136.6 537.5,136.6 537.8,136.6 538.0,136.6 538.3,136.6 538.6,136.6 538.8,136.6 539.1,136.6 539.3,136.6 539.6,136.6 539.8,136.6 540.1,136.6 540.3,136.6 540.6,136.6 540.8,136.6 541.1,136.6 541.3,136.6 541.6,136.6 541.9,136.6 542.1,136.6 542.4,136.6 542.6,136.6 542.9,136.6 543.1,136.6 543.4,136.6 543.6,136.6 543.9,136.6 544.1,136.6 544.4,136.6 544.6,136.6 544.9,128.3 545.2,128.3 545.4,128.3 545.7,128.3 545.9,128.3 546.2,128.3 546.4,128.3 546.7,128.3 546.9,128.3 547.2,128.3 547.4,128.3 547.7,128.3 547.9,128.3 548.2,128.3 548.5,128.3 548.7,128.3 549.0,128.3 549.2,128.3 549.5,128.3 549.7,128.3 550.0,128.3 550.2,128.3 550.5,128.3 550.7,128.3 551.0,128.3 551.3,128.3 551.5,128.3 551.8,128.3 552.0,128.3 552.3,128.3 552.5,128.3 552.8,128.3 553.0,128.3 553.3,128.3 553.5,128.3 553.8,128.3 554.0,128.3 554.3,128.3 554.6,128.3 554.8,128.3 555.1,128.3 555.3,128.3 555.6,128.3 555.8,128.3 556.1,128.3 556.3,128.3 556.6,128.3 556.8,128.3 557.1,128.3 557.3,128.3 557.6,128.3 557.9,128.3 558.1,128.3 558.4,128.3 558.6,128.3 558.9,128.3 559.1,128.3 559.4,128.3 559.6,128.3 559.9,128.3 560.1,128.3 560.4,128.3 560.6,128.3 560.9,128.3 561.2,128.3 561.4,128.3 561.7,128.3 561.9,128.3 562.2,128.3 562.4,128.3 562.7,128.3 562.9,128.3 563.2,128.3 563.4,128.3 563.7,128.3 563.9,128.3 564.2,128.3 564.5,128.3 564.7,128.3 565.0,128.3 565.2,128.3 565.5,128.3 565.7,128.3 566.0,128.3 566.2,128.3 566.5,128.3 566.7,128.3 567.0,128.3 567.2,128.3 567.5,128.3 567.8,128.3 568.0,128.3 568.3,128.3 568.5,128.3 568.8,128.3 569.0,128.3 569.3,128.3 569.5,128.3 569.8,128.3 570.0,128.3 570.3,128.3 570.5,128.3 570.8,128.3 571.1,128.3 571.3,128.3 571.6,128.3 571.8,128.3 572.1,128.3 572.3,128.3 572.6,128.3 572.8,128.3 573.1,128.3 573.3,128.3 573.6,128.3 573.8,128.3 574.1,128.3 574.4,128.3 574.6,128.3 574.9,128.3 575.1,128.3 575.4,128.3 575.6,128.3 575.9,128.3 576.1,128.3 576.4,128.3 576.6,118.1 576.9,118.1 577.1,118.1 577.4,118.1 577.7,118.1 577.9,118.1 578.2,118.1 578.4,118.1 578.7,118.1 578.9,118.1 579.2,118.1 579.4,118.1 579.7,118.1 579.9,118.1 580.2,118.1 580.4,118.1 580.7,118.1 581.0,118.1 581.2,118.1 581.5,118.1 581.7,118.1 582.0,118.1 582.2,118.1 582.5,118.1 582.7,118.1 583.0,118.1 583.2,118.1 583.5,118.1 583.7,118.1 584.0,118.1 584.3,118.1 584.5,118.1 584.8,118.1 585.0,118.1 585.3,118.1 585.5,118.1 585.8,118.1 586.0,118.1 586.3,118.1 586.5,118.1 586.8,118.1 587.0,118.1 587.3,118.1 587.6,118.1 587.8,118.1 588.1,118.1 588.3,118.1 588.6,118.1 588.8,118.1 589.1,118.1 589.3,118.1 589.6,118.1 589.8,118.1 590.1,118.1 590.3,118.1 590.6,118.1 590.9,118.1 591.1,118.1 591.4,118.1 591.6,118.1 591.9,118.1 592.1,118.1 592.4,118.1 592.6,118.1 592.9,118.1 593.1,118.1 593.4,118.1 593.6,118.1 593.9,118.1 594.2,118.1 594.4,118.1 594.7,118.1 594.9,118.1 595.2,118.1 595.4,118.1 595.7,118.1 595.9,118.1 596.2,118.1 596.4,118.1 596.7,118.1 597.0,118.1 597.2,118.1 597.5,118.1 597.7,118.1 598.0,118.1 598.2,118.1 598.5,118.1 598.7,118.1 599.0,118.1 599.2,118.1 599.5,118.1 599.7,118.1 600.0,118.1 600.3,118.1 600.5,118.1 600.8,118.1 601.0,118.1 601.3,118.1 601.5,118.1 601.8,118.1 602.0,118.1 602.3,118.1 602.5,118.1 602.8,118.1 603.0,118.1 603.3,118.1 603.6,118.1 603.8,118.1 604.1,118.1 604.3,118.1 604.6,118.1 604.8,118.1 605.1,118.1 605.3,118.1 605.6,118.1 605.8,118.1 606.1,118.1 606.3,118.1 606.6,118.1 606.9,112.0 607.1,112.0 607.4,112.0 607.6,112.0 607.9,112.0 608.1,112.0 608.4,112.0 608.6,112.0 608.9,112.0 609.1,112.0 609.4,112.0 609.6,112.0 609.9,112.0 610.2,112.0 610.4,112.0 610.7,112.0 610.9,112.0 611.2,112.0 611.4,112.0 611.7,112.0 611.9,112.0 612.2,112.0 612.4,112.0 612.7,112.0 612.9,112.0 613.2,112.0 613.5,112.0 613.7,112.0 614.0,112.0 614.2,112.0 614.5,112.0 614.7,112.0 615.0,112.0 615.2,112.0 615.5,112.0 615.7,112.0 616.0,112.0 616.2,112.0 616.5,112.0 616.8,112.0 617.0,112.0 617.3,112.0 617.5,112.0 617.8,112.0 618.0,112.0 618.3,112.0 618.5,112.0 618.8,112.0 619.0,112.0 619.3,112.0 619.5,112.0 619.8,112.0 620.1,112.0 620.3,112.0 620.6,112.0 620.8,112.0 621.1,112.0 621.3,112.0 621.6,112.0 621.8,112.0 622.1,112.0 622.3,112.0 622.6,112.0 622.8,112.0 623.1,112.0 623.4,112.0 623.6,112.0 623.9,112.0 624.1,112.0 624.4,112.0 624.6,112.0 624.9,112.0 625.1,112.0 625.4,112.0 625.6,112.0 625.9,112.0 626.1,112.0 626.4,112.0 626.7,112.0 626.9,112.0 627.2,112.0 627.4,112.0 627.7,112.0 627.9,112.0 628.2,112.0 628.4,112.0 628.7,112.0 628.9,112.0 629.2,112.0 629.4,112.0 629.7,112.0 630.0,112.0 630.2,112.0 630.5,112.0 630.7,112.0 631.0,112.0 631.2,112.0 631.5,112.0 631.7,112.0 632.0,112.0 632.2,112.0 632.5,112.0 632.7,112.0 633.0,112.0 633.3,112.0 633.5,112.0 633.8,112.0 634.0,112.0 634.3,112.0 634.5,112.0 634.8,112.0 635.0,112.0 635.3,112.0 635.5,112.0 635.8,112.0 636.0,112.0 636.3,112.0 636.6,112.0 636.8,112.0 637.1,112.0 637.3,112.0 637.6,112.0 637.8,112.0 638.1,112.0 638.3,112.0 638.6,112.0 638.8,104.2 639.1,104.2 639.4,104.2 639.6,104.2 639.9,104.2 640.1,104.2 640.4,104.2 640.6,104.2 640.9,104.2 641.1,104.2 641.4,104.2 641.6,104.2 641.9,104.2 642.1,104.2 642.4,104.2 642.7,104.2 642.9,104.2 643.2,104.2 643.4,104.2 643.7,104.2 643.9,104.2 644.2,104.2 644.4,104.2 644.7,104.2 644.9,104.2 645.2,104.2 645.4,104.2 645.7,104.2 646.0,104.2 646.2,104.2 646.5,104.2 646.7,104.2 647.0,104.2 647.2,104.2 647.5,104.2 647.7,104.2 648.0,104.2 648.2,104.2 648.5,104.2 648.7,104.2 649.0,104.2 649.3,104.2 649.5,104.2 649.8,104.2 650.0,104.2 650.3,104.2 650.5,104.2 650.8,104.2 651.0,104.2 651.3,104.2 651.5,104.2 651.8,104.2 652.0,104.2 652.3,104.2 652.6,104.2 652.8,104.2 653.1,104.2 653.3,104.2 653.6,104.2 653.8,104.2 654.1,104.2 654.3,104.2 654.6,104.2 654.8,104.2 655.1,104.2 655.3,104.2 655.6,104.2 655.9,104.2 656.1,104.2 656.4,104.2 656.6,104.2 656.9,104.2 657.1,104.2 657.4,104.2 657.6,104.2 657.9,104.2 658.1,104.2 658.4,104.2 658.6,104.2 658.9,104.2 659.2,104.2 659.4,104.2 659.7,104.2 659.9,104.2 660.2,104.2 660.4,104.2 660.7,104.2 660.9,104.2 661.2,104.2 661.4,104.2 661.7,104.2 661.9,104.2 662.2,104.2 662.5,104.2 662.7,104.2 663.0,104.2 663.2,104.2 663.5,104.2 663.7,104.2 664.0,104.2 664.2,104.2 664.5,104.2 664.7,104.2 665.0,104.2 665.2,104.2 665.5,104.2 665.8,104.2 666.0,104.2 666.3,104.2 666.5,104.2 666.8,104.2 667.0,104.2 667.3,104.2 667.5,104.2 667.8,104.2 668.0,104.2 668.3,104.2 668.5,104.2 668.8,104.2 669.1,91.5 669.3,91.5 669.6,91.5 669.8,91.5 670.1,91.5 670.3,91.5 670.6,91.5 670.8,91.5 671.1,91.5 671.3,91.5 671.6,91.5 671.8,91.5 672.1,91.5 672.4,91.5 672.6,91.5 672.9,91.5 673.1,91.5 673.4,91.5 673.6,91.5 673.9,91.5 674.1,91.5 674.4,91.5 674.6,91.5 674.9,91.5 675.1,91.5 675.4,91.5 675.7,91.5 675.9,91.5 676.2,91.5 676.4,91.5 676.7,91.5 676.9,91.5 677.2,91.5 677.4,91.5 677.7,91.5 677.9,91.5 678.2,91.5 678.4,91.5 678.7,91.5 679.0,91.5 679.2,91.5 679.5,91.5 679.7,91.5 680.0,91.5 680.2,91.5 680.5,91.5 680.7,91.5 681.0,91.5 681.2,91.5 681.5,91.5 681.7,91.5 682.0,91.5 682.3,91.5 682.5,91.5 682.8,91.5 683.0,91.5 683.3,91.5 683.5,91.5 683.8,91.5 684.0,91.5 684.3,91.5 684.5,91.5 684.8,91.5 685.1,91.5 685.3,91.5 685.6,91.5 685.8,91.5 686.1,91.5 686.3,91.5 686.6,91.5 686.8,91.5 687.1,91.5 687.3,91.5 687.6,91.5 687.8,91.5 688.1,91.5 688.4,91.5 688.6,91.5 688.9,91.5 689.1,91.5 689.4,91.5 689.6,91.5 689.9,91.5 690.1,91.5 690.4,91.5 690.6,91.5 690.9,91.5 691.1,91.5 691.4,91.5 691.7,91.5 691.9,91.5 692.2,91.5 692.4,91.5 692.7,91.5 692.9,91.5 693.2,91.5 693.4,91.5 693.7,91.5 693.9,91.5 694.2,91.5 694.4,91.5 694.7,91.5 695.0,91.5 695.2,91.5 695.5,91.5 695.7,91.5 696.0,91.5 696.2,91.5 696.5,91.5 696.7,91.5 697.0,91.5 697.2,91.5 697.5,91.5 697.7,91.5 698.0,91.5 698.3,91.5 698.5,91.5 698.8,91.5 699.0,91.5 699.3,91.5 699.5,91.5 699.8,91.5 700.0,91.5 700.3,91.5 700.5,91.5 700.8,84.6 701.0,84.6 701.3,84.6 701.6,84.6 701.8,84.6 702.1,84.6 702.3,84.6 702.6,84.6 702.8,84.6 703.1,84.6 703.3,84.6 703.6,84.6 703.8,84.6 704.1,84.6 704.3,84.6 704.6,84.6 704.9,84.6 705.1,84.6 705.4,84.6 705.6,84.6 705.9,84.6 706.1,84.6 706.4,84.6 706.6,84.6 706.9,84.6 707.1,84.6 707.4,84.6 707.6,84.6 707.9,84.6 708.2,84.6 708.4,84.6 708.7,84.6 708.9,84.6 709.2,84.6 709.4,84.6 709.7,84.6 709.9,84.6 710.2,84.6 710.4,84.6 710.7,84.6 710.9,84.6 711.2,84.6 711.5,84.6 711.7,84.6 712.0,84.6 712.2,84.6 712.5,84.6 712.7,84.6 713.0,84.6 713.2,84.6 713.5,84.6 713.7,84.6 714.0,84.6 714.2,84.6 714.5,84.6 714.8,84.6 715.0,84.6 715.3,84.6 715.5,84.6 715.8,84.6 716.0,84.6 716.3,84.6 716.5,84.6 716.8,84.6 717.0,84.6 717.3,84.6 717.5,84.6 717.8,84.6 718.1,84.6 718.3,84.6 718.6,84.6 718.8,84.6 719.1,84.6 719.3,84.6 719.6,84.6 719.8,84.6 720.1,84.6 720.3,84.6 720.6,84.6 720.8,84.6 721.1,84.6 721.4,84.6 721.6,84.6 721.9,84.6 722.1,84.6 722.4,84.6 722.6,84.6 722.9,84.6 723.1,84.6 723.4,84.6 723.6,84.6 723.9,84.6 724.1,84.6 724.4,84.6 724.7,84.6 724.9,84.6 725.2,84.6 725.4,84.6 725.7,84.6 725.9,84.6 726.2,84.6 726.4,84.6 726.7,84.6 726.9,84.6 727.2,84.6 727.4,84.6 727.7,84.6 728.0,84.6 728.2,84.6 728.5,84.6 728.7,84.6 729.0,84.6 729.2,84.6 729.5,84.6 729.7,84.6 730.0,84.6 730.2,84.6 730.5,84.6 730.8,84.6 731.0,76.5 731.3,76.5 731.5,76.5 731.8,76.5 732.0,76.5 732.3,76.5 732.5,76.5 732.8,76.5 733.0,76.5 733.3,76.5 733.5,76.5 733.8,76.5 734.1,76.5 734.3,76.5 734.6,76.5 734.8,76.5 735.1,76.5 735.3,76.5 735.6,76.5 735.8,76.5 736.1,76.5 736.3,76.5 736.6,76.5 736.8,76.5 737.1,76.5 737.4,76.5 737.6,76.5 737.9,76.5 738.1,76.5 738.4,76.5 738.6,76.5 738.9,76.5 739.1,76.5 739.4,76.5 739.6,76.5 739.9,76.5 740.1,76.5 740.4,76.5 740.7,76.5 740.9,76.5 741.2,76.5 741.4,76.5 741.7,76.5 741.9,76.5 742.2,76.5 742.4,76.5 742.7,76.5 742.9,76.5 743.2,76.5 743.4,76.5 743.7,76.5 744.0,76.5 744.2,76.5 744.5,76.5 744.7,76.5 745.0,76.5 745.2,76.5 745.5,76.5 745.7,76.5 746.0,76.5 746.2,76.5 746.5,76.5 746.7,76.5 747.0,76.5 747.3,76.5 747.5,76.5 747.8,76.5 748.0,76.5 748.3,76.5 748.5,76.5 748.8,76.5 749.0,76.5 749.3,76.5 749.5,151.0 749.8,151.0 750.0,151.0 750.3,151.0 750.6,151.0 750.8,151.0 751.1,151.0 751.3,151.0 751.6,151.0 751.8,151.0 752.1,151.0 752.3,151.0 752.6,151.0 752.8,151.0 753.1,151.0 753.3,151.0 753.6,151.0 753.9,151.0 754.1,151.0 754.4,151.0 754.6,151.0 754.9,151.0 755.1,151.0 755.4,151.0 755.6,151.0 755.9,151.0 756.1,151.0 756.4,151.0 756.6,151.0 756.9,151.0 757.2,151.0 757.4,151.0 757.7,151.0 757.9,151.0 758.2,151.0 758.4,151.0 758.7,151.0 758.9,151.0 759.2,151.0 759.4,151.0 759.7,151.0 759.9,151.0 760.2,151.0 760.5,151.0 760.7,151.0 761.0,151.0 761.2,151.0 761.5,151.0 761.7,151.0 762.0,151.0 762.2,151.0 762.5,144.3 762.7,144.3 763.0,144.3 763.2,144.3 763.5,144.3 763.8,144.3 764.0,144.3 764.3,144.3 764.5,144.3 764.8,144.3 765.0,144.3 765.3,144.3 765.5,144.3 765.8,144.3 766.0,144.3 766.3,144.3 766.5,144.3 766.8,144.3 767.1,144.3 767.3,144.3 767.6,144.3 767.8,144.3 768.1,144.3 768.3,144.3 768.6,144.3 768.8,144.3 769.1,144.3 769.3,144.3 769.6,144.3 769.8,144.3 770.1,144.3 770.4,144.3 770.6,144.3 770.9,144.3 771.1,144.3 771.4,144.3 771.6,144.3 771.9,144.3 772.1,144.3 772.4,144.3 772.6,144.3 772.9,144.3 773.1,144.3 773.4,144.3 773.7,144.3 773.9,144.3 774.2,144.3 774.4,144.3 774.7,144.3 774.9,144.3 775.2,144.3 775.4,144.3 775.7,144.3 775.9,144.3 776.2,144.3 776.5,144.3 776.7,144.3 777.0,144.3 777.2,144.3 777.5,144.3 777.7,144.3 778.0,144.3 778.2,144.3 778.5,144.3 778.7,144.3 779.0,144.3 779.2,144.3 779.5,144.3 779.8,144.3 780.0,144.3 780.3,144.3 780.5,144.3 780.8,144.3 781.0,144.3 781.3,144.3 781.5,144.3 781.8,144.3 782.0,144.3 782.3,144.3 782.5,144.3 782.8,144.3 783.1,144.3 783.3,144.3 783.6,144.3 783.8,144.3 784.1,144.3 784.3,144.3 784.6,144.3 784.8,144.3 785.1,144.3 785.3,144.3 785.6,144.3 785.8,144.3 786.1,144.3 786.4,144.3 786.6,144.3 786.9,144.3 787.1,144.3 787.4,144.3 787.6,144.3 787.9,144.3 788.1,144.3 788.4,144.3 788.6,144.3 788.9,144.3 789.1,144.3 789.4,144.3 789.7,144.3 789.9,144.3 790.2,144.3 790.4,144.3 790.7,144.3 790.9,144.3 791.2,144.3 791.4,144.3 791.7,144.3 791.9,144.3 792.2,144.3 792.4,144.3 792.7,144.3 793.0,144.3 793.2,144.3 793.5,144.3 793.7,132.2 794.0,132.2 794.2,132.2 794.5,132.2 794.7,132.2 795.0,132.2 795.2,132.2 795.5,132.2 795.7,132.2 796.0,132.2"/>
<text x="78" y="392" font-size="11" fill="#16a34a">Total return +172,337%</text><text x="268" y="392" font-size="11" fill="#2563eb">Price-only +172,337%</text><text x="78" y="362" font-size="11" text-anchor="middle" fill="#64748b">2015-01</text><text x="258" y="362" font-size="11" text-anchor="middle" fill="#64748b">2017-12</text><text x="437" y="362" font-size="11" text-anchor="middle" fill="#64748b">2020-10</text><text x="616" y="362" font-size="11" text-anchor="middle" fill="#64748b">2023-08</text><text x="796" y="362" font-size="11" text-anchor="middle" fill="#64748b">2026-07</text></svg>