<svg xmlns="http://www.w3.org/2000/svg" width="720" height="360" viewBox="0 0 720 360">
  <rect width="720" height="360" fill="#fafafa"/>
  <text x="56" y="22" font-size="13" font-family="sans-serif" fill="#222">7176.T total return (rebased 100) · cumulative distributions $0.00/sh · market cap n/a</text>
  <line x1="56" y1="308" x2="696" y2="308" stroke="#ccc"/>
  <line x1="56" y1="48" x2="56" y2="308" stroke="#ccc"/>
  <polyline fill="none" stroke="#2563eb" stroke-width="2" points="56.0,290.1 56.2,290.1 56.5,290.1 56.7,290.1 56.9,290.1 57.1,290.1 57.4,290.1 57.6,290.1 57.8,290.1 58.1,290.1 58.3,290.1 58.5,290.1 58.7,290.1 59.0,290.1 59.2,290.1 59.4,290.1 59.7,290.1 59.9,290.1 60.1,290.1 60.3,290.1 60.6,290.1 60.8,290.1 61.0,290.1 61.3,290.1 61.5,290.1 61.7,290.1 61.9,290.1 62.2,290.1 62.4,290.1 62.6,290.1 62.9,290.1 63.1,290.1 63.3,290.1 63.5,290.1 63.8,290.1 64.0,290.1 64.2,290.1 64.5,290.1 64.7,290.1 64.9,290.1 65.1,290.1 65.4,290.1 65.6,290.1 65.8,290.1 66.1,290.1 66.3,290.1 66.5,290.1 66.8,290.1 67.0,290.1 67.2,290.1 67.4,290.1 67.7,290.1 67.9,290.1 68.1,290.1 68.4,290.1 68.6,290.1 68.8,290.1 69.0,290.1 69.3,290.1 69.5,290.1 69.7,290.1 70.0,290.1 70.2,290.1 70.4,290.1 70.6,290.1 70.9,290.1 71.1,290.1 71.3,290.1 71.6,290.1 71.8,290.1 72.0,290.1 72.2,290.1 72.5,290.1 72.7,290.1 72.9,290.1 73.2,290.1 73.4,290.1 73.6,290.1 73.8,290.1 74.1,290.1 74.3,290.1 74.5,290.1 74.8,290.1 75.0,290.1 75.2,290.1 75.4,290.1 75.7,290.1 75.9,290.1 76.1,290.1 76.4,290.1 76.6,290.1 76.8,290.1 77.0,290.1 77.3,290.1 77.5,290.1 77.7,290.1 78.0,290.1 78.2,290.1 78.4,290.1 78.6,290.1 78.9,290.1 79.1,290.1 79.3,290.1 79.6,290.1 79.8,290.1 80.0,290.1 80.2,290.1 80.5,290.1 80.7,290.1 80.9,290.1 81.2,290.1 81.4,290.1 81.6,290.1 81.8,290.1 82.1,290.1 82.3,290.1 82.5,290.1 82.8,290.1 83.0,290.1 83.2,290.1 83.4,290.1 83.7,290.1 83.9,290.1 84.1,290.1 84.4,290.1 84.6,290.1 84.8,290.1 85.0,290.1 85.3,290.1 85.5,290.1 85.7,290.1 86.0,290.1 86.2,290.1 86.4,290.1 86.7,290.1 86.9,290.1 87.1,290.1 87.3,290.1 87.6,290.1 87.8,290.1 88.0,290.1 88.3,290.1 88.5,290.1 88.7,290.1 88.9,290.1 89.2,290.1 89.4,290.1 89.6,290.1 89.9,290.1 90.1,290.1 90.3,290.1 90.5,290.1 90.8,290.1 91.0,290.1 91.2,290.1 91.5,290.1 91.7,290.1 91.9,290.1 92.1,290.1 92.4,290.1 92.6,290.1 92.8,290.1 93.1,290.1 93.3,290.1 93.5,290.1 93.7,290.1 94.0,290.1 94.2,290.1 94.4,290.1 94.7,290.1 94.9,290.1 95.1,290.1 95.3,290.1 95.6,290.1 95.8,290.1 96.0,290.1 96.3,290.1 96.5,290.1 96.7,290.1 96.9,290.1 97.2,290.1 97.4,290.1 97.6,290.1 97.9,290.1 98.1,290.1 98.3,290.1 98.5,290.1 98.8,290.1 99.0,290.1 99.2,290.1 99.5,290.1 99.7,290.1 99.9,290.1 100.1,290.1 100.4,290.1 100.6,290.1 100.8,290.1 101.1,290.1 101.3,290.1 101.5,290.1 101.7,290.1 102.0,290.1 102.2,290.1 102.4,290.1 102.7,290.1 102.9,290.1 103.1,290.1 103.3,290.1 103.6,290.1 103.8,290.1 104.0,290.1 104.3,290.1 104.5,290.1 104.7,290.1 104.9,290.1 105.2,290.1 105.4,290.1 105.6,290.1 105.9,290.1 106.1,290.1 106.3,290.1 106.6,290.1 106.8,290.1 107.0,290.1 107.2,290.1 107.5,290.1 107.7,290.1 107.9,290.1 108.2,290.1 108.4,290.1 108.6,290.1 108.8,290.1 109.1,290.1 109.3,290.1 109.5,290.1 109.8,290.1 110.0,290.1 110.2,290.1 110.4,290.1 110.7,290.1 110.9,290.0 111.1,290.0 111.4,290.0 111.6,290.0 111.8,290.0 112.0,290.0 112.3,290.0 112.5,290.0 112.7,290.0 113.0,290.0 113.2,290.0 113.4,290.0 113.6,290.0 113.9,290.0 114.1,290.0 114.3,290.0 114.6,290.0 114.8,290.0 115.0,290.0 115.2,290.0 115.5,290.0 115.7,290.0 115.9,290.0 116.2,290.0 116.4,290.0 116.6,290.0 116.8,290.0 117.1,290.0 117.3,290.0 117.5,290.0 117.8,290.0 118.0,290.0 118.2,290.0 118.4,290.0 118.7,290.0 118.9,290.0 119.1,290.0 119.4,290.0 119.6,290.0 119.8,290.0 120.0,290.0 120.3,290.0 120.5,290.0 120.7,290.0 121.0,290.0 121.2,290.0 121.4,290.0 121.6,290.0 121.9,290.0 122.1,290.0 122.3,290.0 122.6,290.0 122.8,290.0 123.0,290.0 123.2,290.0 123.5,290.0 123.7,290.0 123.9,290.0 124.2,290.0 124.4,290.0 124.6,290.0 124.8,290.0 125.1,290.0 125.3,290.0 125.5,290.0 125.8,290.0 126.0,290.0 126.2,290.0 126.5,290.0 126.7,290.0 126.9,290.0 127.1,290.0 127.4,290.0 127.6,290.0 127.8,290.0 128.1,290.0 128.3,290.0 128.5,290.0 128.7,290.0 129.0,290.0 129.2,290.0 129.4,290.0 129.7,290.0 129.9,290.0 130.1,290.0 130.3,290.0 130.6,290.0 130.8,290.0 131.0,290.0 131.3,290.0 131.5,290.0 131.7,290.0 131.9,290.0 132.2,290.0 132.4,290.0 132.6,290.0 132.9,290.0 133.1,290.0 133.3,290.0 133.5,290.0 133.8,290.0 134.0,290.0 134.2,290.0 134.5,290.0 134.7,290.0 134.9,290.0 135.1,290.0 135.4,290.0 135.6,290.0 135.8,290.0 136.1,290.0 136.3,290.0 136.5,290.0 136.7,290.0 137.0,290.0 137.2,290.0 137.4,290.0 137.7,290.0 137.9,290.0 138.1,290.0 138.3,290.0 138.6,290.0 138.8,290.0 139.0,290.0 139.3,290.0 139.5,290.0 139.7,290.0 139.9,290.0 140.2,290.0 140.4,290.0 140.6,290.0 140.9,290.0 141.1,290.0 141.3,290.0 141.5,290.0 141.8,290.0 142.0,290.0 142.2,290.0 142.5,290.0 142.7,290.0 142.9,290.0 143.1,290.0 143.4,290.0 143.6,290.0 143.8,290.0 144.1,290.0 144.3,290.0 144.5,290.0 144.7,290.0 145.0,290.0 145.2,290.0 145.4,290.0 145.7,290.0 145.9,290.0 146.1,290.0 146.4,290.0 146.6,290.0 146.8,290.0 147.0,290.0 147.3,290.0 147.5,290.0 147.7,290.0 148.0,290.0 148.2,290.0 148.4,290.0 148.6,290.0 148.9,290.0 149.1,290.0 149.3,290.0 149.6,290.0 149.8,290.0 150.0,290.0 150.2,290.0 150.5,290.0 150.7,290.0 150.9,290.0 151.2,290.0 151.4,290.0 151.6,290.0 151.8,290.0 152.1,290.0 152.3,290.0 152.5,290.0 152.8,290.0 153.0,290.0 153.2,290.0 153.4,290.0 153.7,290.0 153.9,290.0 154.1,290.0 154.4,290.0 154.6,290.0 154.8,290.0 155.0,290.0 155.3,290.0 155.5,290.0 155.7,290.0 156.0,290.0 156.2,290.0 156.4,290.0 156.6,290.0 156.9,290.0 157.1,290.0 157.3,290.0 157.6,290.0 157.8,290.0 158.0,290.0 158.2,290.0 158.5,290.0 158.7,290.0 158.9,290.0 159.2,290.0 159.4,290.0 159.6,290.0 159.8,290.0 160.1,290.0 160.3,290.0 160.5,290.0 160.8,290.0 161.0,290.0 161.2,290.0 161.4,290.0 161.7,290.0 161.9,290.0 162.1,290.0 162.4,290.0 162.6,290.0 162.8,290.0 163.0,290.0 163.3,290.0 163.5,290.0 163.7,290.0 164.0,290.0 164.2,290.0 164.4,290.0 164.6,290.0 164.9,290.0 165.1,290.0 165.3,290.0 165.6,290.0 165.8,290.0 166.0,290.0 166.3,290.0 166.5,290.0 166.7,290.0 166.9,290.0 167.2,290.0 167.4,290.0 167.6,290.0 167.9,290.0 168.1,290.0 168.3,290.0 168.5,290.0 168.8,290.0 169.0,290.0 169.2,290.0 169.5,290.0 169.7,290.0 169.9,290.0 170.1,290.0 170.4,290.0 170.6,290.0 170.8,290.0 171.1,290.0 171.3,290.0 171.5,290.0 171.7,290.0 172.0,290.0 172.2,290.0 172.4,290.0 172.7,290.0 172.9,290.0 173.1,290.0 173.3,290.0 173.6,290.0 173.8,290.0 174.0,290.0 174.3,290.0 174.5,290.0 174.7,290.0 174.9,290.0 175.2,290.0 175.4,290.0 175.6,290.0 175.9,290.0 176.1,290.0 176.3,290.0 176.5,290.0 176.8,290.0 177.0,290.0 177.2,290.0 177.5,290.0 177.7,290.0 177.9,290.0 178.1,290.0 178.4,290.0 178.6,290.0 178.8,290.0 179.1,290.0 179.3,290.0 179.5,290.0 179.7,290.0 180.0,290.0 180.2,290.0 180.4,290.0 180.7,290.0 180.9,290.0 181.1,290.0 181.3,290.0 181.6,290.0 181.8,290.0 182.0,290.0 182.3,290.0 182.5,290.0 182.7,290.0 182.9,290.0 183.2,290.0 183.4,290.0 183.6,290.0 183.9,290.0 184.1,290.0 184.3,290.0 184.5,290.0 184.8,290.0 185.0,290.0 185.2,290.0 185.5,290.0 185.7,290.0 185.9,290.0 186.2,290.0 186.4,290.0 186.6,290.0 186.8,290.0 187.1,290.0 187.3,290.0 187.5,290.0 187.8,290.0 188.0,290.0 188.2,290.0 188.4,290.0 188.7,290.0 188.9,290.0 189.1,290.0 189.4,290.0 189.6,290.0 189.8,290.0 190.0,290.0 190.3,290.0 190.5,290.0 190.7,290.0 191.0,290.0 191.2,290.0 191.4,290.0 191.6,290.0 191.9,290.0 192.1,290.0 192.3,290.0 192.6,290.0 192.8,290.0 193.0,290.0 193.2,290.0 193.5,290.0 193.7,290.0 193.9,290.0 194.2,290.0 194.4,290.0 194.6,290.0 194.8,290.0 195.1,290.0 195.3,290.0 195.5,290.0 195.8,290.0 196.0,290.0 196.2,290.0 196.4,290.0 196.7,290.0 196.9,290.0 197.1,290.0 197.4,290.0 197.6,290.0 197.8,290.0 198.0,290.0 198.3,290.0 198.5,290.0 198.7,290.0 199.0,290.0 199.2,290.0 199.4,290.0 199.6,290.0 199.9,290.0 200.1,290.0 200.3,290.0 200.6,290.0 200.8,290.0 201.0,290.0 201.2,290.0 201.5,290.0 201.7,290.0 201.9,290.0 202.2,290.0 202.4,290.0 202.6,290.0 202.8,290.0 203.1,290.0 203.3,290.0 203.5,290.0 203.8,290.0 204.0,290.0 204.2,290.0 204.4,290.0 204.7,290.0 204.9,290.0 205.1,290.0 205.4,290.0 205.6,290.0 205.8,290.0 206.1,290.0 206.3,290.0 206.5,290.0 206.7,290.0 207.0,290.0 207.2,290.0 207.4,290.0 207.7,290.0 207.9,290.0 208.1,290.0 208.3,290.0 208.6,290.0 208.8,290.0 209.0,290.0 209.3,290.0 209.5,290.0 209.7,290.0 209.9,290.0 210.2,290.0 210.4,290.0 210.6,290.0 210.9,290.0 211.1,290.0 211.3,290.0 211.5,290.0 211.8,290.0 212.0,290.0 212.2,290.0 212.5,290.0 212.7,290.0 212.9,290.0 213.1,290.0 213.4,290.0 213.6,290.0 213.8,290.0 214.1,290.0 214.3,290.0 214.5,290.0 214.7,290.0 215.0,290.0 215.2,290.0 215.4,290.0 215.7,290.0 215.9,290.0 216.1,290.0 216.3,290.0 216.6,290.0 216.8,290.0 217.0,290.0 217.3,290.0 217.5,290.0 217.7,290.0 217.9,290.0 218.2,290.0 218.4,290.0 218.6,290.0 218.9,290.0 219.1,290.0 219.3,290.0 219.5,290.0 219.8,290.0 220.0,290.0 220.2,290.0 220.5,290.0 220.7,290.0 220.9,290.0 221.1,290.0 221.4,290.0 221.6,290.0 221.8,290.0 222.1,290.0 222.3,290.0 222.5,290.0 222.7,290.0 223.0,290.0 223.2,290.0 223.4,290.0 223.7,290.0 223.9,290.0 224.1,290.0 224.3,290.0 224.6,290.0 224.8,290.0 225.0,290.0 225.3,290.0 225.5,290.0 225.7,290.0 225.9,290.0 226.2,290.0 226.4,290.0 226.6,290.0 226.9,290.0 227.1,290.0 227.3,290.0 227.6,290.0 227.8,290.0 228.0,290.0 228.2,290.0 228.5,290.0 228.7,290.0 228.9,290.0 229.2,290.0 229.4,290.0 229.6,290.0 229.8,290.0 230.1,290.0 230.3,290.0 230.5,290.0 230.8,290.0 231.0,290.0 231.2,290.0 231.4,290.0 231.7,290.0 231.9,290.0 232.1,290.0 232.4,290.0 232.6,290.0 232.8,290.0 233.0,290.0 233.3,290.0 233.5,290.0 233.7,290.0 234.0,289.4 234.2,289.4 234.4,289.4 234.6,289.4 234.9,289.4 235.1,289.4 235.3,289.4 235.6,289.4 235.8,289.4 236.0,289.4 236.2,289.4 236.5,289.4 236.7,289.4 236.9,289.4 237.2,289.4 237.4,289.4 237.6,289.4 237.8,289.4 238.1,289.4 238.3,289.4 238.5,289.4 238.8,289.4 239.0,289.4 239.2,289.4 239.4,289.4 239.7,289.4 239.9,289.4 240.1,289.4 240.4,289.4 240.6,289.4 240.8,289.4 241.0,289.4 241.3,289.4 241.5,289.4 241.7,289.4 242.0,289.4 242.2,289.4 242.4,289.4 242.6,289.4 242.9,289.4 243.1,289.4 243.3,289.4 243.6,289.4 243.8,289.4 244.0,289.4 244.2,289.4 244.5,289.4 244.7,289.4 244.9,289.4 245.2,289.4 245.4,289.4 245.6,289.4 245.8,289.4 246.1,289.4 246.3,289.4 246.5,289.4 246.8,289.4 247.0,289.4 247.2,289.4 247.5,289.4 247.7,289.4 247.9,289.4 248.1,289.4 248.4,289.4 248.6,289.4 248.8,289.4 249.1,289.4 249.3,289.4 249.5,289.4 249.7,289.4 250.0,289.4 250.2,289.4 250.4,289.4 250.7,289.4 250.9,289.4 251.1,289.4 251.3,289.4 251.6,289.4 251.8,289.4 252.0,289.4 252.3,289.4 252.5,289.4 252.7,289.4 252.9,289.4 253.2,289.4 253.4,289.4 253.6,289.4 253.9,289.4 254.1,289.4 254.3,289.4 254.5,289.4 254.8,289.4 255.0,289.4 255.2,289.4 255.5,289.4 255.7,289.4 255.9,289.4 256.1,289.4 256.4,289.4 256.6,289.4 256.8,289.4 257.1,289.4 257.3,289.4 257.5,289.4 257.7,289.4 258.0,289.4 258.2,289.4 258.4,289.4 258.7,289.4 258.9,289.4 259.1,289.4 259.3,289.4 259.6,289.4 259.8,289.4 260.0,289.4 260.3,289.4 260.5,289.4 260.7,289.4 260.9,289.4 261.2,289.4 261.4,289.4 261.6,289.4 261.9,289.4 262.1,289.4 262.3,289.4 262.5,289.4 262.8,289.4 263.0,289.4 263.2,289.4 263.5,289.4 263.7,289.4 263.9,289.4 264.1,289.4 264.4,289.4 264.6,289.4 264.8,289.4 265.1,289.4 265.3,289.4 265.5,289.4 265.7,289.4 266.0,289.4 266.2,289.4 266.4,289.4 266.7,289.4 266.9,289.4 267.1,289.4 267.4,289.4 267.6,289.4 267.8,289.4 268.0,289.4 268.3,289.4 268.5,289.4 268.7,289.4 269.0,289.4 269.2,289.4 269.4,289.4 269.6,289.4 269.9,289.4 270.1,289.4 270.3,289.4 270.6,289.4 270.8,289.4 271.0,289.4 271.2,289.4 271.5,289.4 271.7,289.4 271.9,289.4 272.2,289.4 272.4,289.4 272.6,289.4 272.8,289.4 273.1,289.4 273.3,289.4 273.5,289.4 273.8,289.4 274.0,289.4 274.2,289.4 274.4,289.4 274.7,289.4 274.9,289.4 275.1,289.4 275.4,289.4 275.6,289.4 275.8,289.4 276.0,289.4 276.3,289.4 276.5,289.4 276.7,289.4 277.0,289.4 277.2,289.4 277.4,289.4 277.6,289.4 277.9,289.4 278.1,289.4 278.3,289.4 278.6,289.4 278.8,289.4 279.0,289.4 279.2,289.4 279.5,289.4 279.7,289.4 279.9,289.4 280.2,289.4 280.4,289.4 280.6,289.4 280.8,289.4 281.1,289.4 281.3,289.4 281.5,289.4 281.8,289.4 282.0,289.4 282.2,289.4 282.4,289.4 282.7,289.4 282.9,289.4 283.1,289.4 283.4,289.4 283.6,289.4 283.8,289.4 284.0,289.4 284.3,289.4 284.5,289.4 284.7,289.4 285.0,289.4 285.2,289.4 285.4,289.4 285.6,289.4 285.9,289.4 286.1,289.4 286.3,289.4 286.6,289.4 286.8,289.4 287.0,289.4 287.3,289.4 287.5,289.4 287.7,289.4 287.9,289.4 288.2,289.4 288.4,289.4 288.6,289.4 288.9,289.4 289.1,289.4 289.3,289.4 289.5,289.4 289.8,289.4 290.0,289.4 290.2,289.4 290.5,289.4 290.7,289.4 290.9,289.4 291.1,289.4 291.4,289.4 291.6,289.4 291.8,289.4 292.1,289.4 292.3,289.4 292.5,289.4 292.7,289.4 293.0,289.4 293.2,289.4 293.4,289.4 293.7,289.4 293.9,289.4 294.1,289.4 294.3,289.4 294.6,289.4 294.8,289.4 295.0,289.4 295.3,289.4 295.5,289.4 295.7,289.4 295.9,289.4 296.2,289.4 296.4,289.4 296.6,289.4 296.9,289.4 297.1,289.4 297.3,289.4 297.5,289.4 297.8,289.4 298.0,289.4 298.2,289.4 298.5,289.4 298.7,289.4 298.9,289.4 299.1,289.4 299.4,289.4 299.6,289.4 299.8,289.4 300.1,289.4 300.3,289.4 300.5,289.4 300.7,289.4 301.0,289.4 301.2,289.4 301.4,289.4 301.7,289.4 301.9,289.4 302.1,289.4 302.3,289.4 302.6,289.4 302.8,289.4 303.0,289.4 303.3,289.4 303.5,289.4 303.7,289.4 303.9,289.4 304.2,289.4 304.4,289.4 304.6,289.4 304.9,289.4 305.1,289.4 305.3,289.4 305.5,289.4 305.8,289.4 306.0,289.4 306.2,289.4 306.5,289.4 306.7,289.4 306.9,289.4 307.2,289.4 307.4,289.4 307.6,289.4 307.8,289.4 308.1,289.4 308.3,289.4 308.5,289.4 308.8,289.4 309.0,289.4 309.2,289.4 309.4,289.4 309.7,289.4 309.9,289.4 310.1,289.4 310.4,289.4 310.6,289.4 310.8,289.4 311.0,289.4 311.3,289.4 311.5,289.4 311.7,289.4 312.0,289.4 312.2,289.4 312.4,289.4 312.6,289.4 312.9,289.4 313.1,289.4 313.3,289.4 313.6,289.4 313.8,289.4 314.0,289.4 314.2,289.4 314.5,289.4 314.7,289.4 314.9,289.4 315.2,289.4 315.4,289.4 315.6,289.4 315.8,289.4 316.1,289.4 316.3,289.4 316.5,289.4 316.8,289.4 317.0,289.4 317.2,289.4 317.4,289.4 317.7,289.4 317.9,289.4 318.1,289.4 318.4,289.4 318.6,289.4 318.8,289.4 319.0,289.4 319.3,289.4 319.5,289.4 319.7,289.4 320.0,289.4 320.2,289.4 320.4,289.4 320.6,289.4 320.9,289.4 321.1,289.4 321.3,289.4 321.6,289.4 321.8,289.4 322.0,289.4 322.2,289.4 322.5,289.4 322.7,289.4 322.9,289.4 323.2,289.4 323.4,289.4 323.6,289.4 323.8,289.4 324.1,289.4 324.3,289.4 324.5,289.4 324.8,289.4 325.0,289.4 325.2,289.4 325.4,289.4 325.7,289.4 325.9,289.4 326.1,289.4 326.4,289.4 326.6,289.4 326.8,289.4 327.1,289.4 327.3,289.4 327.5,289.4 327.7,289.4 328.0,289.4 328.2,289.4 328.4,289.4 328.7,289.4 328.9,289.4 329.1,289.4 329.3,289.4 329.6,289.4 329.8,289.4 330.0,289.4 330.3,289.4 330.5,289.4 330.7,289.4 330.9,289.4 331.2,289.4 331.4,289.4 331.6,289.4 331.9,289.4 332.1,289.4 332.3,289.4 332.5,289.4 332.8,289.4 333.0,289.4 333.2,289.4 333.5,289.4 333.7,289.4 333.9,289.4 334.1,289.4 334.4,289.4 334.6,289.4 334.8,289.4 335.1,289.4 335.3,289.4 335.5,289.4 335.7,289.4 336.0,289.4 336.2,289.4 336.4,289.4 336.7,289.4 336.9,289.4 337.1,289.4 337.3,289.4 337.6,289.4 337.8,289.4 338.0,289.4 338.3,289.4 338.5,289.4 338.7,289.4 338.9,289.4 339.2,289.4 339.4,289.4 339.6,289.4 339.9,289.4 340.1,289.4 340.3,289.4 340.5,289.4 340.8,289.4 341.0,289.4 341.2,289.4 341.5,289.4 341.7,289.4 341.9,289.4 342.1,289.4 342.4,289.4 342.6,283.0 342.8,283.0 343.1,283.0 343.3,283.0 343.5,283.0 343.7,283.0 344.0,283.0 344.2,283.0 344.4,283.0 344.7,283.0 344.9,283.0 345.1,283.0 345.3,283.0 345.6,283.0 345.8,283.0 346.0,283.0 346.3,283.0 346.5,283.0 346.7,283.0 347.0,283.0 347.2,283.0 347.4,283.0 347.6,283.0 347.9,283.0 348.1,283.0 348.3,283.0 348.6,283.0 348.8,283.0 349.0,283.0 349.2,283.0 349.5,283.0 349.7,283.0 349.9,283.0 350.2,283.0 350.4,283.0 350.6,283.0 350.8,283.0 351.1,283.0 351.3,283.0 351.5,283.0 351.8,283.0 352.0,283.0 352.2,283.0 352.4,283.0 352.7,283.0 352.9,283.0 353.1,283.0 353.4,283.0 353.6,283.0 353.8,283.0 354.0,283.0 354.3,283.0 354.5,283.0 354.7,283.0 355.0,283.0 355.2,283.0 355.4,283.0 355.6,283.0 355.9,283.0 356.1,283.0 356.3,283.0 356.6,283.0 356.8,283.0 357.0,283.0 357.2,283.0 357.5,283.0 357.7,283.0 357.9,283.0 358.2,283.0 358.4,283.0 358.6,283.0 358.8,283.0 359.1,283.0 359.3,283.0 359.5,283.0 359.8,283.0 360.0,283.0 360.2,283.0 360.4,283.0 360.7,283.0 360.9,283.0 361.1,283.0 361.4,283.0 361.6,283.0 361.8,283.0 362.0,283.0 362.3,283.0 362.5,283.0 362.7,283.0 363.0,283.0 363.2,283.0 363.4,283.0 363.6,283.0 363.9,283.0 364.1,283.0 364.3,283.0 364.6,283.0 364.8,283.0 365.0,283.0 365.2,283.0 365.5,283.0 365.7,283.0 365.9,283.0 366.2,283.0 366.4,283.0 366.6,283.0 366.9,283.0 367.1,283.0 367.3,283.0 367.5,283.0 367.8,283.0 368.0,283.0 368.2,283.0 368.5,283.0 368.7,283.0 368.9,283.0 369.1,283.0 369.4,283.0 369.6,283.0 369.8,283.0 370.1,283.0 370.3,283.0 370.5,283.0 370.7,283.0 371.0,283.0 371.2,283.0 371.4,283.0 371.7,283.0 371.9,283.0 372.1,283.0 372.3,283.0 372.6,283.0 372.8,283.0 373.0,283.0 373.3,283.0 373.5,283.0 373.7,283.0 373.9,283.0 374.2,283.0 374.4,283.0 374.6,283.0 374.9,283.0 375.1,283.0 375.3,283.0 375.5,283.0 375.8,283.0 376.0,283.0 376.2,283.0 376.5,283.0 376.7,283.0 376.9,283.0 377.1,283.0 377.4,283.0 377.6,283.0 377.8,283.0 378.1,283.0 378.3,283.0 378.5,283.0 378.7,283.0 379.0,283.0 379.2,283.0 379.4,283.0 379.7,283.0 379.9,283.0 380.1,283.0 380.3,283.0 380.6,283.0 380.8,283.0 381.0,283.0 381.3,283.0 381.5,283.0 381.7,283.0 381.9,283.0 382.2,283.0 382.4,283.0 382.6,283.0 382.9,283.0 383.1,283.0 383.3,283.0 383.5,283.0 383.8,283.0 384.0,283.0 384.2,283.0 384.5,283.0 384.7,283.0 384.9,283.0 385.1,283.0 385.4,283.0 385.6,283.0 385.8,283.0 386.1,283.0 386.3,283.0 386.5,283.0 386.8,283.0 387.0,283.0 387.2,283.0 387.4,283.0 387.7,283.0 387.9,283.0 388.1,283.0 388.4,283.0 388.6,283.0 388.8,283.0 389.0,283.0 389.3,283.0 389.5,283.0 389.7,283.0 390.0,283.0 390.2,283.0 390.4,283.0 390.6,283.0 390.9,283.0 391.1,283.0 391.3,283.0 391.6,283.0 391.8,283.0 392.0,283.0 392.2,283.0 392.5,283.0 392.7,283.0 392.9,283.0 393.2,279.9 393.4,279.9 393.6,279.9 393.8,279.9 394.1,279.9 394.3,279.9 394.5,279.9 394.8,279.9 395.0,279.9 395.2,279.9 395.4,279.9 395.7,279.9 395.9,279.9 396.1,279.9 396.4,279.9 396.6,279.9 396.8,279.9 397.0,279.9 397.3,279.9 397.5,279.9 397.7,279.9 398.0,279.9 398.2,279.9 398.4,279.9 398.6,279.9 398.9,279.9 399.1,279.9 399.3,279.9 399.6,279.9 399.8,279.9 400.0,279.9 400.2,279.9 400.5,279.9 400.7,279.9 400.9,279.9 401.2,279.9 401.4,279.9 401.6,279.9 401.8,279.9 402.1,279.9 402.3,279.9 402.5,279.9 402.8,279.9 403.0,279.9 403.2,279.9 403.4,279.9 403.7,279.9 403.9,279.9 404.1,279.9 404.4,279.9 404.6,279.9 404.8,279.9 405.0,279.9 405.3,279.9 405.5,279.9 405.7,279.9 406.0,279.9 406.2,279.9 406.4,279.9 406.7,279.9 406.9,279.9 407.1,279.9 407.3,279.9 407.6,279.9 407.8,279.9 408.0,279.9 408.3,279.9 408.5,279.9 408.7,279.9 408.9,279.9 409.2,279.9 409.4,279.9 409.6,279.9 409.9,279.9 410.1,279.9 410.3,279.9 410.5,279.9 410.8,279.9 411.0,279.9 411.2,279.9 411.5,279.9 411.7,279.9 411.9,279.9 412.1,279.9 412.4,279.9 412.6,279.9 412.8,279.9 413.1,279.9 413.3,279.9 413.5,279.9 413.7,279.9 414.0,279.9 414.2,279.9 414.4,279.9 414.7,279.9 414.9,279.9 415.1,279.9 415.3,279.9 415.6,279.9 415.8,279.9 416.0,279.9 416.3,279.9 416.5,279.9 416.7,279.9 416.9,279.9 417.2,279.9 417.4,279.9 417.6,279.9 417.9,279.9 418.1,279.9 418.3,279.9 418.5,279.9 418.8,279.9 419.0,279.9 419.2,279.9 419.5,279.9 419.7,279.9 419.9,279.9 420.1,279.9 420.4,279.9 420.6,279.9 420.8,275.5 421.1,275.5 421.3,275.5 421.5,275.5 421.7,275.5 422.0,275.5 422.2,275.5 422.4,275.5 422.7,275.5 422.9,275.5 423.1,275.5 423.3,275.5 423.6,275.5 423.8,275.5 424.0,275.5 424.3,275.5 424.5,275.5 424.7,275.5 424.9,275.5 425.2,275.5 425.4,275.5 425.6,275.5 425.9,275.5 426.1,275.5 426.3,275.5 426.6,275.5 426.8,275.5 427.0,275.5 427.2,275.5 427.5,275.5 427.7,275.5 427.9,275.5 428.2,275.5 428.4,275.5 428.6,275.5 428.8,275.5 429.1,275.5 429.3,275.5 429.5,275.5 429.8,275.5 430.0,275.5 430.2,275.5 430.4,275.5 430.7,275.5 430.9,275.5 431.1,275.5 431.4,275.5 431.6,275.5 431.8,275.5 432.0,275.5 432.3,275.5 432.5,275.5 432.7,275.5 433.0,275.5 433.2,275.5 433.4,275.5 433.6,275.5 433.9,275.5 434.1,275.5 434.3,275.5 434.6,275.5 434.8,275.5 435.0,275.5 435.2,275.5 435.5,275.5 435.7,275.5 435.9,275.5 436.2,275.5 436.4,275.5 436.6,275.5 436.8,275.5 437.1,275.5 437.3,275.5 437.5,275.5 437.8,275.5 438.0,275.5 438.2,275.5 438.4,275.5 438.7,275.5 438.9,275.5 439.1,275.5 439.4,275.5 439.6,275.5 439.8,275.5 440.0,275.5 440.3,275.5 440.5,275.5 440.7,275.5 441.0,275.5 441.2,275.5 441.4,275.5 441.6,275.5 441.9,275.5 442.1,275.5 442.3,275.5 442.6,275.5 442.8,275.5 443.0,275.5 443.2,275.5 443.5,275.5 443.7,275.5 443.9,275.5 444.2,275.5 444.4,275.5 444.6,275.5 444.8,275.5 445.1,275.5 445.3,275.5 445.5,275.5 445.8,275.5 446.0,275.5 446.2,275.5 446.5,275.5 446.7,275.5 446.9,275.5 447.1,275.5 447.4,275.5 447.6,275.5 447.8,275.5 448.1,275.5 448.3,275.5 448.5,275.5 448.7,275.5 449.0,275.5 449.2,270.1 449.4,270.1 449.7,270.1 449.9,270.1 450.1,270.1 450.3,270.1 450.6,270.1 450.8,270.1 451.0,270.1 451.3,270.1 451.5,270.1 451.7,270.1 451.9,270.1 452.2,270.1 452.4,270.1 452.6,270.1 452.9,270.1 453.1,270.1 453.3,270.1 453.5,270.1 453.8,270.1 454.0,270.1 454.2,270.1 454.5,270.1 454.7,270.1 454.9,270.1 455.1,270.1 455.4,270.1 455.6,270.1 455.8,270.1 456.1,270.1 456.3,270.1 456.5,270.1 456.7,270.1 457.0,270.1 457.2,270.1 457.4,270.1 457.7,270.1 457.9,270.1 458.1,270.1 458.3,270.1 458.6,270.1 458.8,270.1 459.0,270.1 459.3,270.1 459.5,270.1 459.7,270.1 459.9,270.1 460.2,270.1 460.4,270.1 460.6,270.1 460.9,270.1 461.1,270.1 461.3,270.1 461.5,270.1 461.8,270.1 462.0,270.1 462.2,270.1 462.5,270.1 462.7,270.1 462.9,270.1 463.1,270.1 463.4,270.1 463.6,270.1 463.8,270.1 464.1,270.1 464.3,270.1 464.5,270.1 464.7,270.1 465.0,270.1 465.2,270.1 465.4,270.1 465.7,270.1 465.9,270.1 466.1,270.1 466.4,270.1 466.6,270.1 466.8,270.1 467.0,270.1 467.3,270.1 467.5,270.1 467.7,270.1 468.0,270.1 468.2,270.1 468.4,270.1 468.6,270.1 468.9,270.1 469.1,270.1 469.3,270.1 469.6,270.1 469.8,270.1 470.0,270.1 470.2,270.1 470.5,270.1 470.7,270.1 470.9,270.1 471.2,270.1 471.4,270.1 471.6,270.1 471.8,270.1 472.1,270.1 472.3,270.1 472.5,270.1 472.8,270.1 473.0,270.1 473.2,270.1 473.4,270.1 473.7,270.1 473.9,270.1 474.1,270.1 474.4,270.1 474.6,270.1 474.8,270.1 475.0,270.1 475.3,270.1 475.5,270.1 475.7,270.1 476.0,270.1 476.2,270.1 476.4,270.1 476.6,262.2 476.9,262.2 477.1,262.2 477.3,262.2 477.6,262.2 477.8,262.2 478.0,262.2 478.2,262.2 478.5,262.2 478.7,262.2 478.9,262.2 479.2,262.2 479.4,262.2 479.6,262.2 479.8,262.2 480.1,262.2 480.3,262.2 480.5,262.2 480.8,262.2 481.0,262.2 481.2,262.2 481.4,262.2 481.7,262.2 481.9,262.2 482.1,262.2 482.4,262.2 482.6,262.2 482.8,262.2 483.0,262.2 483.3,262.2 483.5,262.2 483.7,262.2 484.0,262.2 484.2,262.2 484.4,262.2 484.6,262.2 484.9,262.2 485.1,262.2 485.3,262.2 485.6,262.2 485.8,262.2 486.0,262.2 486.3,262.2 486.5,262.2 486.7,262.2 486.9,262.2 487.2,262.2 487.4,262.2 487.6,262.2 487.9,262.2 488.1,262.2 488.3,262.2 488.5,262.2 488.8,262.2 489.0,262.2 489.2,262.2 489.5,262.2 489.7,262.2 489.9,262.2 490.1,262.2 490.4,262.2 490.6,262.2 490.8,262.2 491.1,262.2 491.3,262.2 491.5,262.2 491.7,262.2 492.0,262.2 492.2,262.2 492.4,262.2 492.7,262.2 492.9,262.2 493.1,262.2 493.3,262.2 493.6,262.2 493.8,262.2 494.0,262.2 494.3,262.2 494.5,262.2 494.7,262.2 494.9,262.2 495.2,262.2 495.4,262.2 495.6,262.2 495.9,262.2 496.1,262.2 496.3,262.2 496.5,262.2 496.8,262.2 497.0,262.2 497.2,262.2 497.5,262.2 497.7,262.2 497.9,262.2 498.1,262.2 498.4,262.2 498.6,262.2 498.8,262.2 499.1,262.2 499.3,262.2 499.5,262.2 499.7,262.2 500.0,262.2 500.2,262.2 500.4,262.2 500.7,262.2 500.9,262.2 501.1,262.2 501.3,262.2 501.6,262.2 501.8,262.2 502.0,262.2 502.3,262.2 502.5,262.2 502.7,262.2 502.9,262.2 503.2,262.2 503.4,262.2 503.6,262.2 503.9,262.2 504.1,262.2 504.3,262.2 504.5,262.2 504.8,262.2 505.0,262.2 505.2,248.0 505.5,248.0 505.7,248.0 505.9,248.0 506.2,248.0 506.4,248.0 506.6,248.0 506.8,248.0 507.1,248.0 507.3,248.0 507.5,248.0 507.8,248.0 508.0,248.0 508.2,248.0 508.4,248.0 508.7,248.0 508.9,248.0 509.1,248.0 509.4,248.0 509.6,248.0 509.8,248.0 510.0,248.0 510.3,248.0 510.5,248.0 510.7,248.0 511.0,248.0 511.2,248.0 511.4,248.0 511.6,248.0 511.9,248.0 512.1,248.0 512.3,248.0 512.6,248.0 512.8,248.0 513.0,248.0 513.2,248.0 513.5,248.0 513.7,248.0 513.9,248.0 514.2,248.0 514.4,248.0 514.6,248.0 514.8,248.0 515.1,248.0 515.3,248.0 515.5,248.0 515.8,248.0 516.0,248.0 516.2,248.0 516.4,248.0 516.7,248.0 516.9,248.0 517.1,248.0 517.4,248.0 517.6,248.0 517.8,248.0 518.0,248.0 518.3,248.0 518.5,248.0 518.7,248.0 519.0,248.0 519.2,248.0 519.4,248.0 519.6,248.0 519.9,248.0 520.1,248.0 520.3,248.0 520.6,248.0 520.8,248.0 521.0,248.0 521.2,248.0 521.5,248.0 521.7,248.0 521.9,248.0 522.2,248.0 522.4,248.0 522.6,248.0 522.8,248.0 523.1,248.0 523.3,248.0 523.5,248.0 523.8,248.0 524.0,248.0 524.2,248.0 524.4,248.0 524.7,248.0 524.9,248.0 525.1,248.0 525.4,248.0 525.6,248.0 525.8,248.0 526.1,248.0 526.3,248.0 526.5,248.0 526.7,248.0 527.0,248.0 527.2,248.0 527.4,248.0 527.7,248.0 527.9,248.0 528.1,248.0 528.3,248.0 528.6,248.0 528.8,248.0 529.0,248.0 529.3,248.0 529.5,248.0 529.7,248.0 529.9,248.0 530.2,248.0 530.4,248.0 530.6,248.0 530.9,248.0 531.1,248.0 531.3,248.0 531.5,248.0 531.8,248.0 532.0,248.0 532.2,248.0 532.5,236.4 532.7,236.4 532.9,236.4 533.1,236.4 533.4,236.4 533.6,236.4 533.8,236.4 534.1,236.4 534.3,236.4 534.5,236.4 534.7,236.4 535.0,236.4 535.2,236.4 535.4,236.4 535.7,236.4 535.9,236.4 536.1,236.4 536.3,236.4 536.6,236.4 536.8,236.4 537.0,236.4 537.3,236.4 537.5,236.4 537.7,236.4 537.9,236.4 538.2,236.4 538.4,236.4 538.6,236.4 538.9,236.4 539.1,236.4 539.3,236.4 539.5,236.4 539.8,236.4 540.0,236.4 540.2,236.4 540.5,236.4 540.7,236.4 540.9,236.4 541.1,236.4 541.4,236.4 541.6,236.4 541.8,236.4 542.1,236.4 542.3,236.4 542.5,236.4 542.7,236.4 543.0,236.4 543.2,236.4 543.4,236.4 543.7,236.4 543.9,236.4 544.1,236.4 544.3,236.4 544.6,236.4 544.8,236.4 545.0,236.4 545.3,236.4 545.5,236.4 545.7,236.4 545.9,236.4 546.2,236.4 546.4,236.4 546.6,236.4 546.9,236.4 547.1,236.4 547.3,236.4 547.6,236.4 547.8,236.4 548.0,236.4 548.2,236.4 548.5,236.4 548.7,236.4 548.9,236.4 549.2,236.4 549.4,236.4 549.6,236.4 549.8,236.4 550.1,236.4 550.3,236.4 550.5,236.4 550.8,236.4 551.0,236.4 551.2,236.4 551.4,236.4 551.7,236.4 551.9,236.4 552.1,236.4 552.4,236.4 552.6,236.4 552.8,236.4 553.0,236.4 553.3,236.4 553.5,236.4 553.7,236.4 554.0,236.4 554.2,236.4 554.4,236.4 554.6,236.4 554.9,236.4 555.1,236.4 555.3,236.4 555.6,236.4 555.8,236.4 556.0,236.4 556.2,236.4 556.5,236.4 556.7,236.4 556.9,236.4 557.2,236.4 557.4,236.4 557.6,236.4 557.8,236.4 558.1,236.4 558.3,236.4 558.5,236.4 558.8,236.4 559.0,236.4 559.2,236.4 559.4,236.4 559.7,236.4 559.9,236.4 560.1,236.4 560.4,236.4 560.6,236.4 560.8,236.4 561.0,236.4 561.3,216.6 561.5,216.6 561.7,216.6 562.0,216.6 562.2,216.6 562.4,216.6 562.6,216.6 562.9,216.6 563.1,216.6 563.3,216.6 563.6,216.6 563.8,216.6 564.0,216.6 564.2,216.6 564.5,216.6 564.7,216.6 564.9,216.6 565.2,216.6 565.4,216.6 565.6,216.6 565.8,216.6 566.1,216.6 566.3,216.6 566.5,216.6 566.8,216.6 567.0,216.6 567.2,216.6 567.5,216.6 567.7,216.6 567.9,216.6 568.1,216.6 568.4,216.6 568.6,216.6 568.8,216.6 569.1,216.6 569.3,216.6 569.5,216.6 569.7,216.6 570.0,216.6 570.2,216.6 570.4,216.6 570.7,216.6 570.9,216.6 571.1,216.6 571.3,216.6 571.6,216.6 571.8,216.6 572.0,216.6 572.3,216.6 572.5,216.6 572.7,216.6 572.9,216.6 573.2,216.6 573.4,216.6 573.6,216.6 573.9,216.6 574.1,216.6 574.3,216.6 574.5,216.6 574.8,216.6 575.0,216.6 575.2,216.6 575.5,216.6 575.7,216.6 575.9,216.6 576.1,216.6 576.4,216.6 576.6,216.6 576.8,216.6 577.1,216.6 577.3,216.6 577.5,216.6 577.7,216.6 578.0,216.6 578.2,216.6 578.4,216.6 578.7,216.6 578.9,216.6 579.1,216.6 579.3,216.6 579.6,216.6 579.8,216.6 580.0,216.6 580.3,216.6 580.5,216.6 580.7,216.6 580.9,216.6 581.2,216.6 581.4,216.6 581.6,216.6 581.9,216.6 582.1,216.6 582.3,216.6 582.5,216.6 582.8,216.6 583.0,216.6 583.2,216.6 583.5,216.6 583.7,216.6 583.9,216.6 584.1,216.6 584.4,216.6 584.6,216.6 584.8,216.6 585.1,216.6 585.3,216.6 585.5,216.6 585.7,216.6 586.0,216.6 586.2,216.6 586.4,216.6 586.7,216.6 586.9,216.6 587.1,216.6 587.4,216.6 587.6,216.6 587.8,216.6 588.0,216.6 588.3,216.6 588.5,167.6 588.7,167.6 589.0,167.6 589.2,167.6 589.4,167.6 589.6,167.6 589.9,167.6 590.1,167.6 590.3,167.6 590.6,167.6 590.8,167.6 591.0,167.6 591.2,167.6 591.5,167.6 591.7,167.6 591.9,167.6 592.2,167.6 592.4,167.6 592.6,167.6 592.8,167.6 593.1,167.6 593.3,167.6 593.5,167.6 593.8,167.6 594.0,167.6 594.2,167.6 594.4,167.6 594.7,167.6 594.9,167.6 595.1,167.6 595.4,167.6 595.6,167.6 595.8,167.6 596.0,167.6 596.3,167.6 596.5,167.6 596.7,167.6 597.0,167.6 597.2,167.6 597.4,167.6 597.6,167.6 597.9,167.6 598.1,167.6 598.3,167.6 598.6,167.6 598.8,167.6 599.0,167.6 599.2,167.6 599.5,167.6 599.7,167.6 599.9,167.6 600.2,167.6 600.4,167.6 600.6,167.6 600.8,167.6 601.1,167.6 601.3,167.6 601.5,167.6 601.8,167.6 602.0,167.6 602.2,167.6 602.4,167.6 602.7,167.6 602.9,167.6 603.1,167.6 603.4,167.6 603.6,167.6 603.8,167.6 604.0,167.6 604.3,167.6 604.5,167.6 604.7,167.6 605.0,167.6 605.2,167.6 605.4,167.6 605.6,167.6 605.9,167.6 606.1,167.6 606.3,167.6 606.6,167.6 606.8,167.6 607.0,167.6 607.3,167.6 607.5,167.6 607.7,167.6 607.9,167.6 608.2,167.6 608.4,167.6 608.6,167.6 608.9,167.6 609.1,167.6 609.3,167.6 609.5,167.6 609.8,167.6 610.0,167.6 610.2,167.6 610.5,167.6 610.7,167.6 610.9,167.6 611.1,167.6 611.4,167.6 611.6,167.6 611.8,167.6 612.1,167.6 612.3,167.6 612.5,167.6 612.7,167.6 613.0,167.6 613.2,167.6 613.4,167.6 613.7,167.6 613.9,167.6 614.1,167.6 614.3,167.6 614.6,167.6 614.8,167.6 615.0,167.6 615.3,167.6 615.5,167.6 615.7,167.6 615.9,167.6 616.2,167.6 616.4,167.6 616.6,167.6 616.9,167.6 617.1,128.4 617.3,128.4 617.5,128.4 617.8,128.4 618.0,128.4 618.2,128.4 618.5,128.4 618.7,128.4 618.9,128.4 619.1,128.4 619.4,128.4 619.6,128.4 619.8,128.4 620.1,128.4 620.3,128.4 620.5,128.4 620.7,128.4 621.0,128.4 621.2,128.4 621.4,128.4 621.7,128.4 621.9,128.4 622.1,128.4 622.3,128.4 622.6,128.4 622.8,128.4 623.0,128.4 623.3,128.4 623.5,128.4 623.7,128.4 623.9,128.4 624.2,128.4 624.4,128.4 624.6,128.4 624.9,128.4 625.1,128.4 625.3,128.4 625.5,128.4 625.8,128.4 626.0,128.4 626.2,128.4 626.5,128.4 626.7,128.4 626.9,128.4 627.2,128.4 627.4,128.4 627.6,128.4 627.8,128.4 628.1,128.4 628.3,128.4 628.5,128.4 628.8,128.4 629.0,128.4 629.2,128.4 629.4,128.4 629.7,128.4 629.9,128.4 630.1,128.4 630.4,128.4 630.6,128.4 630.8,128.4 631.0,128.4 631.3,128.4 631.5,128.4 631.7,128.4 632.0,128.4 632.2,128.4 632.4,128.4 632.6,128.4 632.9,128.4 633.1,128.4 633.3,128.4 633.6,128.4 633.8,128.4 634.0,128.4 634.2,128.4 634.5,128.4 634.7,128.4 634.9,128.4 635.2,128.4 635.4,128.4 635.6,128.4 635.8,128.4 636.1,128.4 636.3,128.4 636.5,128.4 636.8,128.4 637.0,128.4 637.2,128.4 637.4,128.4 637.7,128.4 637.9,128.4 638.1,128.4 638.4,128.4 638.6,128.4 638.8,128.4 639.0,128.4 639.3,128.4 639.5,128.4 639.7,128.4 640.0,128.4 640.2,128.4 640.4,128.4 640.6,128.4 640.9,128.4 641.1,128.4 641.3,128.4 641.6,128.4 641.8,128.4 642.0,128.4 642.2,128.4 642.5,128.4 642.7,128.4 642.9,128.4 643.2,128.4 643.4,128.4 643.6,128.4 643.8,128.4 644.1,128.4 644.3,65.9 644.5,65.9 644.8,65.9 645.0,65.9 645.2,65.9 645.4,65.9 645.7,65.9 645.9,65.9 646.1,65.9 646.4,65.9 646.6,65.9 646.8,65.9 647.1,65.9 647.3,65.9 647.5,65.9 647.7,65.9 648.0,65.9 648.2,65.9 648.4,65.9 648.7,65.9 648.9,65.9 649.1,65.9 649.3,65.9 649.6,65.9 649.8,65.9 650.0,65.9 650.3,65.9 650.5,65.9 650.7,65.9 650.9,65.9 651.2,65.9 651.4,65.9 651.6,65.9 651.9,65.9 652.1,65.9 652.3,65.9 652.5,65.9 652.8,65.9 653.0,65.9 653.2,65.9 653.5,65.9 653.7,65.9 653.9,65.9 654.1,65.9 654.4,65.9 654.6,65.9 654.8,65.9 655.1,65.9 655.3,65.9 655.5,65.9 655.7,65.9 656.0,65.9 656.2,65.9 656.4,65.9 656.7,65.9 656.9,65.9 657.1,65.9 657.3,65.9 657.6,65.9 657.8,65.9 658.0,65.9 658.3,65.9 658.5,65.9 658.7,65.9 658.9,65.9 659.2,65.9 659.4,65.9 659.6,65.9 659.9,65.9 660.1,65.9 660.3,65.9 660.5,65.9 660.8,65.9 661.0,278.9 661.2,278.9 661.5,278.9 661.7,278.9 661.9,278.9 662.1,278.9 662.4,278.9 662.6,278.9 662.8,278.9 663.1,278.9 663.3,278.9 663.5,278.9 663.7,278.9 664.0,278.9 664.2,278.9 664.4,278.9 664.7,278.9 664.9,278.9 665.1,278.9 665.3,278.9 665.6,278.9 665.8,278.9 666.0,278.9 666.3,278.9 666.5,278.9 666.7,278.9 667.0,278.9 667.2,278.9 667.4,278.9 667.6,278.9 667.9,278.9 668.1,278.9 668.3,278.9 668.6,278.9 668.8,278.9 669.0,278.9 669.2,278.9 669.5,278.9 669.7,278.9 669.9,278.9 670.2,278.9 670.4,278.9 670.6,278.9 670.8,278.9 671.1,278.9 671.3,278.9 671.5,278.9 671.8,278.9 672.0,278.9 672.2,278.9 672.4,278.9 672.7,275.5 672.9,275.5 673.1,275.5 673.4,275.5 673.6,275.5 673.8,275.5 674.0,275.5 674.3,275.5 674.5,275.5 674.7,275.5 675.0,275.5 675.2,275.5 675.4,275.5 675.6,275.5 675.9,275.5 676.1,275.5 676.3,275.5 676.6,275.5 676.8,275.5 677.0,275.5 677.2,275.5 677.5,275.5 677.7,275.5 677.9,275.5 678.2,275.5 678.4,275.5 678.6,275.5 678.8,275.5 679.1,275.5 679.3,275.5 679.5,275.5 679.8,275.5 680.0,275.5 680.2,275.5 680.4,275.5 680.7,275.5 680.9,275.5 681.1,275.5 681.4,275.5 681.6,275.5 681.8,275.5 682.0,275.5 682.3,275.5 682.5,275.5 682.7,275.5 683.0,275.5 683.2,275.5 683.4,275.5 683.6,275.5 683.9,275.5 684.1,275.5 684.3,275.5 684.6,275.5 684.8,275.5 685.0,275.5 685.2,275.5 685.5,275.5 685.7,275.5 685.9,275.5 686.2,275.5 686.4,275.5 686.6,275.5 686.9,275.5 687.1,275.5 687.3,275.5 687.5,275.5 687.8,275.5 688.0,275.5 688.2,275.5 688.5,275.5 688.7,275.5 688.9,275.5 689.1,275.5 689.4,275.5 689.6,275.5 689.8,275.5 690.1,275.5 690.3,275.5 690.5,275.5 690.7,275.5 691.0,275.5 691.2,275.5 691.4,275.5 691.7,275.5 691.9,275.5 692.1,275.5 692.3,275.5 692.6,275.5 692.8,275.5 693.0,275.5 693.3,275.5 693.5,275.5 693.7,275.5 693.9,275.5 694.2,275.5 694.4,275.5 694.6,275.5 694.9,275.5 695.1,275.5 695.3,275.5 695.5,275.5 695.8,275.5 696.0,275.5"/>
  <polyline fill="none" stroke="#16a34a" stroke-width="2" points="56.0,290.1 56.2,290.1 56.5,290.1 56.7,290.1 56.9,290.1 57.1,290.1 57.4,290.1 57.6,290.1 57.8,290.1 58.1,290.1 58.3,290.1 58.5,290.1 58.7,290.1 59.0,290.1 59.2,290.1 59.4,290.1 59.7,290.1 59.9,290.1 60.1,290.1 60.3,290.1 60.6,290.1 60.8,290.1 61.0,290.1 61.3,290.1 61.5,290.1 61.7,290.1 61.9,290.1 62.2,290.1 62.4,290.1 62.6,290.1 62.9,290.1 63.1,290.1 63.3,290.1 63.5,290.1 63.8,290.1 64.0,290.1 64.2,290.1 64.5,290.1 64.7,290.1 64.9,290.1 65.1,290.1 65.4,290.1 65.6,290.1 65.8,290.1 66.1,290.1 66.3,290.1 66.5,290.1 66.8,290.1 67.0,290.1 67.2,290.1 67.4,290.1 67.7,290.1 67.9,290.1 68.1,290.1 68.4,290.1 68.6,290.1 68.8,290.1 69.0,290.1 69.3,290.1 69.5,290.1 69.7,290.1 70.0,290.1 70.2,290.1 70.4,290.1 70.6,290.1 70.9,290.1 71.1,290.1 71.3,290.1 71.6,290.1 71.8,290.1 72.0,290.1 72.2,290.1 72.5,290.1 72.7,290.1 72.9,290.1 73.2,290.1 73.4,290.1 73.6,290.1 73.8,290.1 74.1,290.1 74.3,290.1 74.5,290.1 74.8,290.1 75.0,290.1 75.2,290.1 75.4,290.1 75.7,290.1 75.9,290.1 76.1,290.1 76.4,290.1 76.6,290.1 76.8,290.1 77.0,290.1 77.3,290.1 77.5,290.1 77.7,290.1 78.0,290.1 78.2,290.1 78.4,290.1 78.6,290.1 78.9,290.1 79.1,290.1 79.3,290.1 79.6,290.1 79.8,290.1 80.0,290.1 80.2,290.1 80.5,290.1 80.7,290.1 80.9,290.1 81.2,290.1 81.4,290.1 81.6,290.1 81.8,290.1 82.1,290.1 82.3,290.1 82.5,290.1 82.8,290.1 83.0,290.1 83.2,290.1 83.4,290.1 83.7,290.1 83.9,290.1 84.1,290.1 84.4,290.1 84.6,290.1 84.8,290.1 85.0,290.1 85.3,290.1 85.5,290.1 85.7,290.1 86.0,290.1 86.2,290.1 86.4,290.1 86.7,290.1 86.9,290.1 87.1,290.1 87.3,290.1 87.6,290.1 87.8,290.1 88.0,290.1 88.3,290.1 88.5,290.1 88.7,290.1 88.9,290.1 89.2,290.1 89.4,290.1 89.6,290.1 89.9,290.1 90.1,290.1 90.3,290.1 90.5,290.1 90.8,290.1 91.0,290.1 91.2,290.1 91.5,290.1 91.7,290.1 91.9,290.1 92.1,290.1 92.4,290.1 92.6,290.1 92.8,290.1 93.1,290.1 93.3,290.1 93.5,290.1 93.7,290.1 94.0,290.1 94.2,290.1 94.4,290.1 94.7,290.1 94.9,290.1 95.1,290.1 95.3,290.1 95.6,290.1 95.8,290.1 96.0,290.1 96.3,290.1 96.5,290.1 96.7,290.1 96.9,290.1 97.2,290.1 97.4,290.1 97.6,290.1 97.9,290.1 98.1,290.1 98.3,290.1 98.5,290.1 98.8,290.1 99.0,290.1 99.2,290.1 99.5,290.1 99.7,290.1 99.9,290.1 100.1,290.1 100.4,290.1 100.6,290.1 100.8,290.1 101.1,290.1 101.3,290.1 101.5,290.1 101.7,290.1 102.0,290.1 102.2,290.1 102.4,290.1 102.7,290.1 102.9,290.1 103.1,290.1 103.3,290.1 103.6,290.1 103.8,290.1 104.0,290.1 104.3,290.1 104.5,290.1 104.7,290.1 104.9,290.1 105.2,290.1 105.4,290.1 105.6,290.1 105.9,290.1 106.1,290.1 106.3,290.1 106.6,290.1 106.8,290.1 107.0,290.1 107.2,290.1 107.5,290.1 107.7,290.1 107.9,290.1 108.2,290.1 108.4,290.1 108.6,290.1 108.8,290.1 109.1,290.1 109.3,290.1 109.5,290.1 109.8,290.1 110.0,290.1 110.2,290.1 110.4,290.1 110.7,290.1 110.9,290.0 111.1,290.0 111.4,290.0 111.6,290.0 111.8,290.0 112.0,290.0 112.3,290.0 112.5,290.0 112.7,290.0 113.0,290.0 113.2,290.0 113.4,290.0 113.6,290.0 113.9,290.0 114.1,290.0 114.3,290.0 114.6,290.0 114.8,290.0 115.0,290.0 115.2,290.0 115.5,290.0 115.7,290.0 115.9,290.0 116.2,290.0 116.4,290.0 116.6,290.0 116.8,290.0 117.1,290.0 117.3,290.0 117.5,290.0 117.8,290.0 118.0,290.0 118.2,290.0 118.4,290.0 118.7,290.0 118.9,290.0 119.1,290.0 119.4,290.0 119.6,290.0 119.8,290.0 120.0,290.0 120.3,290.0 120.5,290.0 120.7,290.0 121.0,290.0 121.2,290.0 121.4,290.0 121.6,290.0 121.9,290.0 122.1,290.0 122.3,290.0 122.6,290.0 122.8,290.0 123.0,290.0 123.2,290.0 123.5,290.0 123.7,290.0 123.9,290.0 124.2,290.0 124.4,290.0 124.6,290.0 124.8,290.0 125.1,290.0 125.3,290.0 125.5,290.0 125.8,290.0 126.0,290.0 126.2,290.0 126.5,290.0 126.7,290.0 126.9,290.0 127.1,290.0 127.4,290.0 127.6,290.0 127.8,290.0 128.1,290.0 128.3,290.0 128.5,290.0 128.7,290.0 129.0,290.0 129.2,290.0 129.4,290.0 129.7,290.0 129.9,290.0 130.1,290.0 130.3,290.0 130.6,290.0 130.8,290.0 131.0,290.0 131.3,290.0 131.5,290.0 131.7,290.0 131.9,290.0 132.2,290.0 132.4,290.0 132.6,290.0 132.9,290.0 133.1,290.0 133.3,290.0 133.5,290.0 133.8,290.0 134.0,290.0 134.2,290.0 134.5,290.0 134.7,290.0 134.9,290.0 135.1,290.0 135.4,290.0 135.6,290.0 135.8,290.0 136.1,290.0 136.3,290.0 136.5,290.0 136.7,290.0 137.0,290.0 137.2,290.0 137.4,290.0 137.7,290.0 137.9,290.0 138.1,290.0 138.3,290.0 138.6,290.0 138.8,290.0 139.0,290.0 139.3,290.0 139.5,290.0 139.7,290.0 139.9,290.0 140.2,290.0 140.4,290.0 140.6,290.0 140.9,290.0 141.1,290.0 141.3,290.0 141.5,290.0 141.8,290.0 142.0,290.0 142.2,290.0 142.5,290.0 142.7,290.0 142.9,290.0 143.1,290.0 143.4,290.0 143.6,290.0 143.8,290.0 144.1,290.0 144.3,290.0 144.5,290.0 144.7,290.0 145.0,290.0 145.2,290.0 145.4,290.0 145.7,290.0 145.9,290.0 146.1,290.0 146.4,290.0 146.6,290.0 146.8,290.0 147.0,290.0 147.3,290.0 147.5,290.0 147.7,290.0 148.0,290.0 148.2,290.0 148.4,290.0 148.6,290.0 148.9,290.0 149.1,290.0 149.3,290.0 149.6,290.0 149.8,290.0 150.0,290.0 150.2,290.0 150.5,290.0 150.7,290.0 150.9,290.0 151.2,290.0 151.4,290.0 151.6,290.0 151.8,290.0 152.1,290.0 152.3,290.0 152.5,290.0 152.8,290.0 153.0,290.0 153.2,290.0 153.4,290.0 153.7,290.0 153.9,290.0 154.1,290.0 154.4,290.0 154.6,290.0 154.8,290.0 155.0,290.0 155.3,290.0 155.5,290.0 155.7,290.0 156.0,290.0 156.2,290.0 156.4,290.0 156.6,290.0 156.9,290.0 157.1,290.0 157.3,290.0 157.6,290.0 157.8,290.0 158.0,290.0 158.2,290.0 158.5,290.0 158.7,290.0 158.9,290.0 159.2,290.0 159.4,290.0 159.6,290.0 159.8,290.0 160.1,290.0 160.3,290.0 160.5,290.0 160.8,290.0 161.0,290.0 161.2,290.0 161.4,290.0 161.7,290.0 161.9,290.0 162.1,290.0 162.4,290.0 162.6,290.0 162.8,290.0 163.0,290.0 163.3,290.0 163.5,290.0 163.7,290.0 164.0,290.0 164.2,290.0 164.4,290.0 164.6,290.0 164.9,290.0 165.1,290.0 165.3,290.0 165.6,290.0 165.8,290.0 166.0,290.0 166.3,290.0 166.5,290.0 166.7,290.0 166.9,290.0 167.2,290.0 167.4,290.0 167.6,290.0 167.9,290.0 168.1,290.0 168.3,290.0 168.5,290.0 168.8,290.0 169.0,290.0 169.2,290.0 169.5,290.0 169.7,290.0 169.9,290.0 170.1,290.0 170.4,290.0 170.6,290.0 170.8,290.0 171.1,290.0 171.3,290.0 171.5,290.0 171.7,290.0 172.0,290.0 172.2,290.0 172.4,290.0 172.7,290.0 172.9,290.0 173.1,290.0 173.3,290.0 173.6,290.0 173.8,290.0 174.0,290.0 174.3,290.0 174.5,290.0 174.7,290.0 174.9,290.0 175.2,290.0 175.4,290.0 175.6,290.0 175.9,290.0 176.1,290.0 176.3,290.0 176.5,290.0 176.8,290.0 177.0,290.0 177.2,290.0 177.5,290.0 177.7,290.0 177.9,290.0 178.1,290.0 178.4,290.0 178.6,290.0 178.8,290.0 179.1,290.0 179.3,290.0 179.5,290.0 179.7,290.0 180.0,290.0 180.2,290.0 180.4,290.0 180.7,290.0 180.9,290.0 181.1,290.0 181.3,290.0 181.6,290.0 181.8,290.0 182.0,290.0 182.3,290.0 182.5,290.0 182.7,290.0 182.9,290.0 183.2,290.0 183.4,290.0 183.6,290.0 183.9,290.0 184.1,290.0 184.3,290.0 184.5,290.0 184.8,290.0 185.0,290.0 185.2,290.0 185.5,290.0 185.7,290.0 185.9,290.0 186.2,290.0 186.4,290.0 186.6,290.0 186.8,290.0 187.1,290.0 187.3,290.0 187.5,290.0 187.8,290.0 188.0,290.0 188.2,290.0 188.4,290.0 188.7,290.0 188.9,290.0 189.1,290.0 189.4,290.0 189.6,290.0 189.8,290.0 190.0,290.0 190.3,290.0 190.5,290.0 190.7,290.0 191.0,290.0 191.2,290.0 191.4,290.0 191.6,290.0 191.9,290.0 192.1,290.0 192.3,290.0 192.6,290.0 192.8,290.0 193.0,290.0 193.2,290.0 193.5,290.0 193.7,290.0 193.9,290.0 194.2,290.0 194.4,290.0 194.6,290.0 194.8,290.0 195.1,290.0 195.3,290.0 195.5,290.0 195.8,290.0 196.0,290.0 196.2,290.0 196.4,290.0 196.7,290.0 196.9,290.0 197.1,290.0 197.4,290.0 197.6,290.0 197.8,290.0 198.0,290.0 198.3,290.0 198.5,290.0 198.7,290.0 199.0,290.0 199.2,290.0 199.4,290.0 199.6,290.0 199.9,290.0 200.1,290.0 200.3,290.0 200.6,290.0 200.8,290.0 201.0,290.0 201.2,290.0 201.5,290.0 201.7,290.0 201.9,290.0 202.2,290.0 202.4,290.0 202.6,290.0 202.8,290.0 203.1,290.0 203.3,290.0 203.5,290.0 203.8,290.0 204.0,290.0 204.2,290.0 204.4,290.0 204.7,290.0 204.9,290.0 205.1,290.0 205.4,290.0 205.6,290.0 205.8,290.0 206.1,290.0 206.3,290.0 206.5,290.0 206.7,290.0 207.0,290.0 207.2,290.0 207.4,290.0 207.7,290.0 207.9,290.0 208.1,290.0 208.3,290.0 208.6,290.0 208.8,290.0 209.0,290.0 209.3,290.0 209.5,290.0 209.7,290.0 209.9,290.0 210.2,290.0 210.4,290.0 210.6,290.0 210.9,290.0 211.1,290.0 211.3,290.0 211.5,290.0 211.8,290.0 212.0,290.0 212.2,290.0 212.5,290.0 212.7,290.0 212.9,290.0 213.1,290.0 213.4,290.0 213.6,290.0 213.8,290.0 214.1,290.0 214.3,290.0 214.5,290.0 214.7,290.0 215.0,290.0 215.2,290.0 215.4,290.0 215.7,290.0 215.9,290.0 216.1,290.0 216.3,290.0 216.6,290.0 216.8,290.0 217.0,290.0 217.3,290.0 217.5,290.0 217.7,290.0 217.9,290.0 218.2,290.0 218.4,290.0 218.6,290.0 218.9,290.0 219.1,290.0 219.3,290.0 219.5,290.0 219.8,290.0 220.0,290.0 220.2,290.0 220.5,290.0 220.7,290.0 220.9,290.0 221.1,290.0 221.4,290.0 221.6,290.0 221.8,290.0 222.1,290.0 222.3,290.0 222.5,290.0 222.7,290.0 223.0,290.0 223.2,290.0 223.4,290.0 223.7,290.0 223.9,290.0 224.1,290.0 224.3,290.0 224.6,290.0 224.8,290.0 225.0,290.0 225.3,290.0 225.5,290.0 225.7,290.0 225.9,290.0 226.2,290.0 226.4,290.0 226.6,290.0 226.9,290.0 227.1,290.0 227.3,290.0 227.6,290.0 227.8,290.0 228.0,290.0 228.2,290.0 228.5,290.0 228.7,290.0 228.9,290.0 229.2,290.0 229.4,290.0 229.6,290.0 229.8,290.0 230.1,290.0 230.3,290.0 230.5,290.0 230.8,290.0 231.0,290.0 231.2,290.0 231.4,290.0 231.7,290.0 231.9,290.0 232.1,290.0 232.4,290.0 232.6,290.0 232.8,290.0 233.0,290.0 233.3,290.0 233.5,290.0 233.7,290.0 234.0,289.4 234.2,289.4 234.4,289.4 234.6,289.4 234.9,289.4 235.1,289.4 235.3,289.4 235.6,289.4 235.8,289.4 236.0,289.4 236.2,289.4 236.5,289.4 236.7,289.4 236.9,289.4 237.2,289.4 237.4,289.4 237.6,289.4 237.8,289.4 238.1,289.4 238.3,289.4 238.5,289.4 238.8,289.4 239.0,289.4 239.2,289.4 239.4,289.4 239.7,289.4 239.9,289.4 240.1,289.4 240.4,289.4 240.6,289.4 240.8,289.4 241.0,289.4 241.3,289.4 241.5,289.4 241.7,289.4 242.0,289.4 242.2,289.4 242.4,289.4 242.6,289.4 242.9,289.4 243.1,289.4 243.3,289.4 243.6,289.4 243.8,289.4 244.0,289.4 244.2,289.4 244.5,289.4 244.7,289.4 244.9,289.4 245.2,289.4 245.4,289.4 245.6,289.4 245.8,289.4 246.1,289.4 246.3,289.4 246.5,289.4 246.8,289.4 247.0,289.4 247.2,289.4 247.5,289.4 247.7,289.4 247.9,289.4 248.1,289.4 248.4,289.4 248.6,289.4 248.8,289.4 249.1,289.4 249.3,289.4 249.5,289.4 249.7,289.4 250.0,289.4 250.2,289.4 250.4,289.4 250.7,289.4 250.9,289.4 251.1,289.4 251.3,289.4 251.6,289.4 251.8,289.4 252.0,289.4 252.3,289.4 252.5,289.4 252.7,289.4 252.9,289.4 253.2,289.4 253.4,289.4 253.6,289.4 253.9,289.4 254.1,289.4 254.3,289.4 254.5,289.4 254.8,289.4 255.0,289.4 255.2,289.4 255.5,289.4 255.7,289.4 255.9,289.4 256.1,289.4 256.4,289.4 256.6,289.4 256.8,289.4 257.1,289.4 257.3,289.4 257.5,289.4 257.7,289.4 258.0,289.4 258.2,289.4 258.4,289.4 258.7,289.4 258.9,289.4 259.1,289.4 259.3,289.4 259.6,289.4 259.8,289.4 260.0,289.4 260.3,289.4 260.5,289.4 260.7,289.4 260.9,289.4 261.2,289.4 261.4,289.4 261.6,289.4 261.9,289.4 262.1,289.4 262.3,289.4 262.5,289.4 262.8,289.4 263.0,289.4 263.2,289.4 263.5,289.4 263.7,289.4 263.9,289.4 264.1,289.4 264.4,289.4 264.6,289.4 264.8,289.4 265.1,289.4 265.3,289.4 265.5,289.4 265.7,289.4 266.0,289.4 266.2,289.4 266.4,289.4 266.7,289.4 266.9,289.4 267.1,289.4 267.4,289.4 267.6,289.4 267.8,289.4 268.0,289.4 268.3,289.4 268.5,289.4 268.7,289.4 269.0,289.4 269.2,289.4 269.4,289.4 269.6,289.4 269.9,289.4 270.1,289.4 270.3,289.4 270.6,289.4 270.8,289.4 271.0,289.4 271.2,289.4 271.5,289.4 271.7,289.4 271.9,289.4 272.2,289.4 272.4,289.4 272.6,289.4 272.8,289.4 273.1,289.4 273.3,289.4 273.5,289.4 273.8,289.4 274.0,289.4 274.2,289.4 274.4,289.4 274.7,289.4 274.9,289.4 275.1,289.4 275.4,289.4 275.6,289.4 275.8,289.4 276.0,289.4 276.3,289.4 276.5,289.4 276.7,289.4 277.0,289.4 277.2,289.4 277.4,289.4 277.6,289.4 277.9,289.4 278.1,289.4 278.3,289.4 278.6,289.4 278.8,289.4 279.0,289.4 279.2,289.4 279.5,289.4 279.7,289.4 279.9,289.4 280.2,289.4 280.4,289.4 280.6,289.4 280.8,289.4 281.1,289.4 281.3,289.4 281.5,289.4 281.8,289.4 282.0,289.4 282.2,289.4 282.4,289.4 282.7,289.4 282.9,289.4 283.1,289.4 283.4,289.4 283.6,289.4 283.8,289.4 284.0,289.4 284.3,289.4 284.5,289.4 284.7,289.4 285.0,289.4 285.2,289.4 285.4,289.4 285.6,289.4 285.9,289.4 286.1,289.4 286.3,289.4 286.6,289.4 286.8,289.4 287.0,289.4 287.3,289.4 287.5,289.4 287.7,289.4 287.9,289.4 288.2,289.4 288.4,289.4 288.6,289.4 288.9,289.4 289.1,289.4 289.3,289.4 289.5,289.4 289.8,289.4 290.0,289.4 290.2,289.4 290.5,289.4 290.7,289.4 290.9,289.4 291.1,289.4 291.4,289.4 291.6,289.4 291.8,289.4 292.1,289.4 292.3,289.4 292.5,289.4 292.7,289.4 293.0,289.4 293.2,289.4 293.4,289.4 293.7,289.4 293.9,289.4 294.1,289.4 294.3,289.4 294.6,289.4 294.8,289.4 295.0,289.4 295.3,289.4 295.5,289.4 295.7,289.4 295.9,289.4 296.2,289.4 296.4,289.4 296.6,289.4 296.9,289.4 297.1,289.4 297.3,289.4 297.5,289.4 297.8,289.4 298.0,289.4 298.2,289.4 298.5,289.4 298.7,289.4 298.9,289.4 299.1,289.4 299.4,289.4 299.6,289.4 299.8,289.4 300.1,289.4 300.3,289.4 300.5,289.4 300.7,289.4 301.0,289.4 301.2,289.4 301.4,289.4 301.7,289.4 301.9,289.4 302.1,289.4 302.3,289.4 302.6,289.4 302.8,289.4 303.0,289.4 303.3,289.4 303.5,289.4 303.7,289.4 303.9,289.4 304.2,289.4 304.4,289.4 304.6,289.4 304.9,289.4 305.1,289.4 305.3,289.4 305.5,289.4 305.8,289.4 306.0,289.4 306.2,289.4 306.5,289.4 306.7,289.4 306.9,289.4 307.2,289.4 307.4,289.4 307.6,289.4 307.8,289.4 308.1,289.4 308.3,289.4 308.5,289.4 308.8,289.4 309.0,289.4 309.2,289.4 309.4,289.4 309.7,289.4 309.9,289.4 310.1,289.4 310.4,289.4 310.6,289.4 310.8,289.4 311.0,289.4 311.3,289.4 311.5,289.4 311.7,289.4 312.0,289.4 312.2,289.4 312.4,289.4 312.6,289.4 312.9,289.4 313.1,289.4 313.3,289.4 313.6,289.4 313.8,289.4 314.0,289.4 314.2,289.4 314.5,289.4 314.7,289.4 314.9,289.4 315.2,289.4 315.4,289.4 315.6,289.4 315.8,289.4 316.1,289.4 316.3,289.4 316.5,289.4 316.8,289.4 317.0,289.4 317.2,289.4 317.4,289.4 317.7,289.4 317.9,289.4 318.1,289.4 318.4,289.4 318.6,289.4 318.8,289.4 319.0,289.4 319.3,289.4 319.5,289.4 319.7,289.4 320.0,289.4 320.2,289.4 320.4,289.4 320.6,289.4 320.9,289.4 321.1,289.4 321.3,289.4 321.6,289.4 321.8,289.4 322.0,289.4 322.2,289.4 322.5,289.4 322.7,289.4 322.9,289.4 323.2,289.4 323.4,289.4 323.6,289.4 323.8,289.4 324.1,289.4 324.3,289.4 324.5,289.4 324.8,289.4 325.0,289.4 325.2,289.4 325.4,289.4 325.7,289.4 325.9,289.4 326.1,289.4 326.4,289.4 326.6,289.4 326.8,289.4 327.1,289.4 327.3,289.4 327.5,289.4 327.7,289.4 328.0,289.4 328.2,289.4 328.4,289.4 328.7,289.4 328.9,289.4 329.1,289.4 329.3,289.4 329.6,289.4 329.8,289.4 330.0,289.4 330.3,289.4 330.5,289.4 330.7,289.4 330.9,289.4 331.2,289.4 331.4,289.4 331.6,289.4 331.9,289.4 332.1,289.4 332.3,289.4 332.5,289.4 332.8,289.4 333.0,289.4 333.2,289.4 333.5,289.4 333.7,289.4 333.9,289.4 334.1,289.4 334.4,289.4 334.6,289.4 334.8,289.4 335.1,289.4 335.3,289.4 335.5,289.4 335.7,289.4 336.0,289.4 336.2,289.4 336.4,289.4 336.7,289.4 336.9,289.4 337.1,289.4 337.3,289.4 337.6,289.4 337.8,289.4 338.0,289.4 338.3,289.4 338.5,289.4 338.7,289.4 338.9,289.4 339.2,289.4 339.4,289.4 339.6,289.4 339.9,289.4 340.1,289.4 340.3,289.4 340.5,289.4 340.8,289.4 341.0,289.4 341.2,289.4 341.5,289.4 341.7,289.4 341.9,289.4 342.1,289.4 342.4,289.4 342.6,283.0 342.8,283.0 343.1,283.0 343.3,283.0 343.5,283.0 343.7,283.0 344.0,283.0 344.2,283.0 344.4,283.0 344.7,283.0 344.9,283.0 345.1,283.0 345.3,283.0 345.6,283.0 345.8,283.0 346.0,283.0 346.3,283.0 346.5,283.0 346.7,283.0 347.0,283.0 347.2,283.0 347.4,283.0 347.6,283.0 347.9,283.0 348.1,283.0 348.3,283.0 348.6,283.0 348.8,283.0 349.0,283.0 349.2,283.0 349.5,283.0 349.7,283.0 349.9,283.0 350.2,283.0 350.4,283.0 350.6,283.0 350.8,283.0 351.1,283.0 351.3,283.0 351.5,283.0 351.8,283.0 352.0,283.0 352.2,283.0 352.4,283.0 352.7,283.0 352.9,283.0 353.1,283.0 353.4,283.0 353.6,283.0 353.8,283.0 354.0,283.0 354.3,283.0 354.5,283.0 354.7,283.0 355.0,283.0 355.2,283.0 355.4,283.0 355.6,283.0 355.9,283.0 356.1,283.0 356.3,283.0 356.6,283.0 356.8,283.0 357.0,283.0 357.2,283.0 357.5,283.0 357.7,283.0 357.9,283.0 358.2,283.0 358.4,283.0 358.6,283.0 358.8,283.0 359.1,283.0 359.3,283.0 359.5,283.0 359.8,283.0 360.0,283.0 360.2,283.0 360.4,283.0 360.7,283.0 360.9,283.0 361.1,283.0 361.4,283.0 361.6,283.0 361.8,283.0 362.0,283.0 362.3,283.0 362.5,283.0 362.7,283.0 363.0,283.0 363.2,283.0 363.4,283.0 363.6,283.0 363.9,283.0 364.1,283.0 364.3,283.0 364.6,283.0 364.8,283.0 365.0,283.0 365.2,283.0 365.5,283.0 365.7,283.0 365.9,283.0 366.2,283.0 366.4,283.0 366.6,283.0 366.9,283.0 367.1,283.0 367.3,283.0 367.5,283.0 367.8,283.0 368.0,283.0 368.2,283.0 368.5,283.0 368.7,283.0 368.9,283.0 369.1,283.0 369.4,283.0 369.6,283.0 369.8,283.0 370.1,283.0 370.3,283.0 370.5,283.0 370.7,283.0 371.0,283.0 371.2,283.0 371.4,283.0 371.7,283.0 371.9,283.0 372.1,283.0 372.3,283.0 372.6,283.0 372.8,283.0 373.0,283.0 373.3,283.0 373.5,283.0 373.7,283.0 373.9,283.0 374.2,283.0 374.4,283.0 374.6,283.0 374.9,283.0 375.1,283.0 375.3,283.0 375.5,283.0 375.8,283.0 376.0,283.0 376.2,283.0 376.5,283.0 376.7,283.0 376.9,283.0 377.1,283.0 377.4,283.0 377.6,283.0 377.8,283.0 378.1,283.0 378.3,283.0 378.5,283.0 378.7,283.0 379.0,283.0 379.2,283.0 379.4,283.0 379.7,283.0 379.9,283.0 380.1,283.0 380.3,283.0 380.6,283.0 380.8,283.0 381.0,283.0 381.3,283.0 381.5,283.0 381.7,283.0 381.9,283.0 382.2,283.0 382.4,283.0 382.6,283.0 382.9,283.0 383.1,283.0 383.3,283.0 383.5,283.0 383.8,283.0 384.0,283.0 384.2,283.0 384.5,283.0 384.7,283.0 384.9,283.0 385.1,283.0 385.4,283.0 385.6,283.0 385.8,283.0 386.1,283.0 386.3,283.0 386.5,283.0 386.8,283.0 387.0,283.0 387.2,283.0 387.4,283.0 387.7,283.0 387.9,283.0 388.1,283.0 388.4,283.0 388.6,283.0 388.8,283.0 389.0,283.0 389.3,283.0 389.5,283.0 389.7,283.0 390.0,283.0 390.2,283.0 390.4,283.0 390.6,283.0 390.9,283.0 391.1,283.0 391.3,283.0 391.6,283.0 391.8,283.0 392.0,283.0 392.2,283.0 392.5,283.0 392.7,283.0 392.9,283.0 393.2,279.9 393.4,279.9 393.6,279.9 393.8,279.9 394.1,279.9 394.3,279.9 394.5,279.9 394.8,279.9 395.0,279.9 395.2,279.9 395.4,279.9 395.7,279.9 395.9,279.9 396.1,279.9 396.4,279.9 396.6,279.9 396.8,279.9 397.0,279.9 397.3,279.9 397.5,279.9 397.7,279.9 398.0,279.9 398.2,279.9 398.4,279.9 398.6,279.9 398.9,279.9 399.1,279.9 399.3,279.9 399.6,279.9 399.8,279.9 400.0,279.9 400.2,279.9 400.5,279.9 400.7,279.9 400.9,279.9 401.2,279.9 401.4,279.9 401.6,279.9 401.8,279.9 402.1,279.9 402.3,279.9 402.5,279.9 402.8,279.9 403.0,279.9 403.2,279.9 403.4,279.9 403.7,279.9 403.9,279.9 404.1,279.9 404.4,279.9 404.6,279.9 404.8,279.9 405.0,279.9 405.3,279.9 405.5,279.9 405.7,279.9 406.0,279.9 406.2,279.9 406.4,279.9 406.7,279.9 406.9,279.9 407.1,279.9 407.3,279.9 407.6,279.9 407.8,279.9 408.0,279.9 408.3,279.9 408.5,279.9 408.7,279.9 408.9,279.9 409.2,279.9 409.4,279.9 409.6,279.9 409.9,279.9 410.1,279.9 410.3,279.9 410.5,279.9 410.8,279.9 411.0,279.9 411.2,279.9 411.5,279.9 411.7,279.9 411.9,279.9 412.1,279.9 412.4,279.9 412.6,279.9 412.8,279.9 413.1,279.9 413.3,279.9 413.5,279.9 413.7,279.9 414.0,279.9 414.2,279.9 414.4,279.9 414.7,279.9 414.9,279.9 415.1,279.9 415.3,279.9 415.6,279.9 415.8,279.9 416.0,279.9 416.3,279.9 416.5,279.9 416.7,279.9 416.9,279.9 417.2,279.9 417.4,279.9 417.6,279.9 417.9,279.9 418.1,279.9 418.3,279.9 418.5,279.9 418.8,279.9 419.0,279.9 419.2,279.9 419.5,279.9 419.7,279.9 419.9,279.9 420.1,279.9 420.4,279.9 420.6,279.9 420.8,275.5 421.1,275.5 421.3,275.5 421.5,275.5 421.7,275.5 422.0,275.5 422.2,275.5 422.4,275.5 422.7,275.5 422.9,275.5 423.1,275.5 423.3,275.5 423.6,275.5 423.8,275.5 424.0,275.5 424.3,275.5 424.5,275.5 424.7,275.5 424.9,275.5 425.2,275.5 425.4,275.5 425.6,275.5 425.9,275.5 426.1,275.5 426.3,275.5 426.6,275.5 426.8,275.5 427.0,275.5 427.2,275.5 427.5,275.5 427.7,275.5 427.9,275.5 428.2,275.5 428.4,275.5 428.6,275.5 428.8,275.5 429.1,275.5 429.3,275.5 429.5,275.5 429.8,275.5 430.0,275.5 430.2,275.5 430.4,275.5 430.7,275.5 430.9,275.5 431.1,275.5 431.4,275.5 431.6,275.5 431.8,275.5 432.0,275.5 432.3,275.5 432.5,275.5 432.7,275.5 433.0,275.5 433.2,275.5 433.4,275.5 433.6,275.5 433.9,275.5 434.1,275.5 434.3,275.5 434.6,275.5 434.8,275.5 435.0,275.5 435.2,275.5 435.5,275.5 435.7,275.5 435.9,275.5 436.2,275.5 436.4,275.5 436.6,275.5 436.8,275.5 437.1,275.5 437.3,275.5 437.5,275.5 437.8,275.5 438.0,275.5 438.2,275.5 438.4,275.5 438.7,275.5 438.9,275.5 439.1,275.5 439.4,275.5 439.6,275.5 439.8,275.5 440.0,275.5 440.3,275.5 440.5,275.5 440.7,275.5 441.0,275.5 441.2,275.5 441.4,275.5 441.6,275.5 441.9,275.5 442.1,275.5 442.3,275.5 442.6,275.5 442.8,275.5 443.0,275.5 443.2,275.5 443.5,275.5 443.7,275.5 443.9,275.5 444.2,275.5 444.4,275.5 444.6,275.5 444.8,275.5 445.1,275.5 445.3,275.5 445.5,275.5 445.8,275.5 446.0,275.5 446.2,275.5 446.5,275.5 446.7,275.5 446.9,275.5 447.1,275.5 447.4,275.5 447.6,275.5 447.8,275.5 448.1,275.5 448.3,275.5 448.5,275.5 448.7,275.5 449.0,275.5 449.2,270.1 449.4,270.1 449.7,270.1 449.9,270.1 450.1,270.1 450.3,270.1 450.6,270.1 450.8,270.1 451.0,270.1 451.3,270.1 451.5,270.1 451.7,270.1 451.9,270.1 452.2,270.1 452.4,270.1 452.6,270.1 452.9,270.1 453.1,270.1 453.3,270.1 453.5,270.1 453.8,270.1 454.0,270.1 454.2,270.1 454.5,270.1 454.7,270.1 454.9,270.1 455.1,270.1 455.4,270.1 455.6,270.1 455.8,270.1 456.1,270.1 456.3,270.1 456.5,270.1 456.7,270.1 457.0,270.1 457.2,270.1 457.4,270.1 457.7,270.1 457.9,270.1 458.1,270.1 458.3,270.1 458.6,270.1 458.8,270.1 459.0,270.1 459.3,270.1 459.5,270.1 459.7,270.1 459.9,270.1 460.2,270.1 460.4,270.1 460.6,270.1 460.9,270.1 461.1,270.1 461.3,270.1 461.5,270.1 461.8,270.1 462.0,270.1 462.2,270.1 462.5,270.1 462.7,270.1 462.9,270.1 463.1,270.1 463.4,270.1 463.6,270.1 463.8,270.1 464.1,270.1 464.3,270.1 464.5,270.1 464.7,270.1 465.0,270.1 465.2,270.1 465.4,270.1 465.7,270.1 465.9,270.1 466.1,270.1 466.4,270.1 466.6,270.1 466.8,270.1 467.0,270.1 467.3,270.1 467.5,270.1 467.7,270.1 468.0,270.1 468.2,270.1 468.4,270.1 468.6,270.1 468.9,270.1 469.1,270.1 469.3,270.1 469.6,270.1 469.8,270.1 470.0,270.1 470.2,270.1 470.5,270.1 470.7,270.1 470.9,270.1 471.2,270.1 471.4,270.1 471.6,270.1 471.8,270.1 472.1,270.1 472.3,270.1 472.5,270.1 472.8,270.1 473.0,270.1 473.2,270.1 473.4,270.1 473.7,270.1 473.9,270.1 474.1,270.1 474.4,270.1 474.6,270.1 474.8,270.1 475.0,270.1 475.3,270.1 475.5,270.1 475.7,270.1 476.0,270.1 476.2,270.1 476.4,270.1 476.6,262.2 476.9,262.2 477.1,262.2 477.3,262.2 477.6,262.2 477.8,262.2 478.0,262.2 478.2,262.2 478.5,262.2 478.7,262.2 478.9,262.2 479.2,262.2 479.4,262.2 479.6,262.2 479.8,262.2 480.1,262.2 480.3,262.2 480.5,262.2 480.8,262.2 481.0,262.2 481.2,262.2 481.4,262.2 481.7,262.2 481.9,262.2 482.1,262.2 482.4,262.2 482.6,262.2 482.8,262.2 483.0,262.2 483.3,262.2 483.5,262.2 483.7,262.2 484.0,262.2 484.2,262.2 484.4,262.2 484.6,262.2 484.9,262.2 485.1,262.2 485.3,262.2 485.6,262.2 485.8,262.2 486.0,262.2 486.3,262.2 486.5,262.2 486.7,262.2 486.9,262.2 487.2,262.2 487.4,262.2 487.6,262.2 487.9,262.2 488.1,262.2 488.3,262.2 488.5,262.2 488.8,262.2 489.0,262.2 489.2,262.2 489.5,262.2 489.7,262.2 489.9,262.2 490.1,262.2 490.4,262.2 490.6,262.2 490.8,262.2 491.1,262.2 491.3,262.2 491.5,262.2 491.7,262.2 492.0,262.2 492.2,262.2 492.4,262.2 492.7,262.2 492.9,262.2 493.1,262.2 493.3,262.2 493.6,262.2 493.8,262.2 494.0,262.2 494.3,262.2 494.5,262.2 494.7,262.2 494.9,262.2 495.2,262.2 495.4,262.2 495.6,262.2 495.9,262.2 496.1,262.2 496.3,262.2 496.5,262.2 496.8,262.2 497.0,262.2 497.2,262.2 497.5,262.2 497.7,262.2 497.9,262.2 498.1,262.2 498.4,262.2 498.6,262.2 498.8,262.2 499.1,262.2 499.3,262.2 499.5,262.2 499.7,262.2 500.0,262.2 500.2,262.2 500.4,262.2 500.7,262.2 500.9,262.2 501.1,262.2 501.3,262.2 501.6,262.2 501.8,262.2 502.0,262.2 502.3,262.2 502.5,262.2 502.7,262.2 502.9,262.2 503.2,262.2 503.4,262.2 503.6,262.2 503.9,262.2 504.1,262.2 504.3,262.2 504.5,262.2 504.8,262.2 505.0,262.2 505.2,248.0 505.5,248.0 505.7,248.0 505.9,248.0 506.2,248.0 506.4,248.0 506.6,248.0 506.8,248.0 507.1,248.0 507.3,248.0 507.5,248.0 507.8,248.0 508.0,248.0 508.2,248.0 508.4,248.0 508.7,248.0 508.9,248.0 509.1,248.0 509.4,248.0 509.6,248.0 509.8,248.0 510.0,248.0 510.3,248.0 510.5,248.0 510.7,248.0 511.0,248.0 511.2,248.0 511.4,248.0 511.6,248.0 511.9,248.0 512.1,248.0 512.3,248.0 512.6,248.0 512.8,248.0 513.0,248.0 513.2,248.0 513.5,248.0 513.7,248.0 513.9,248.0 514.2,248.0 514.4,248.0 514.6,248.0 514.8,248.0 515.1,248.0 515.3,248.0 515.5,248.0 515.8,248.0 516.0,248.0 516.2,248.0 516.4,248.0 516.7,248.0 516.9,248.0 517.1,248.0 517.4,248.0 517.6,248.0 517.8,248.0 518.0,248.0 518.3,248.0 518.5,248.0 518.7,248.0 519.0,248.0 519.2,248.0 519.4,248.0 519.6,248.0 519.9,248.0 520.1,248.0 520.3,248.0 520.6,248.0 520.8,248.0 521.0,248.0 521.2,248.0 521.5,248.0 521.7,248.0 521.9,248.0 522.2,248.0 522.4,248.0 522.6,248.0 522.8,248.0 523.1,248.0 523.3,248.0 523.5,248.0 523.8,248.0 524.0,248.0 524.2,248.0 524.4,248.0 524.7,248.0 524.9,248.0 525.1,248.0 525.4,248.0 525.6,248.0 525.8,248.0 526.1,248.0 526.3,248.0 526.5,248.0 526.7,248.0 527.0,248.0 527.2,248.0 527.4,248.0 527.7,248.0 527.9,248.0 528.1,248.0 528.3,248.0 528.6,248.0 528.8,248.0 529.0,248.0 529.3,248.0 529.5,248.0 529.7,248.0 529.9,248.0 530.2,248.0 530.4,248.0 530.6,248.0 530.9,248.0 531.1,248.0 531.3,248.0 531.5,248.0 531.8,248.0 532.0,248.0 532.2,248.0 532.5,236.4 532.7,236.4 532.9,236.4 533.1,236.4 533.4,236.4 533.6,236.4 533.8,236.4 534.1,236.4 534.3,236.4 534.5,236.4 534.7,236.4 535.0,236.4 535.2,236.4 535.4,236.4 535.7,236.4 535.9,236.4 536.1,236.4 536.3,236.4 536.6,236.4 536.8,236.4 537.0,236.4 537.3,236.4 537.5,236.4 537.7,236.4 537.9,236.4 538.2,236.4 538.4,236.4 538.6,236.4 538.9,236.4 539.1,236.4 539.3,236.4 539.5,236.4 539.8,236.4 540.0,236.4 540.2,236.4 540.5,236.4 540.7,236.4 540.9,236.4 541.1,236.4 541.4,236.4 541.6,236.4 541.8,236.4 542.1,236.4 542.3,236.4 542.5,236.4 542.7,236.4 543.0,236.4 543.2,236.4 543.4,236.4 543.7,236.4 543.9,236.4 544.1,236.4 544.3,236.4 544.6,236.4 544.8,236.4 545.0,236.4 545.3,236.4 545.5,236.4 545.7,236.4 545.9,236.4 546.2,236.4 546.4,236.4 546.6,236.4 546.9,236.4 547.1,236.4 547.3,236.4 547.6,236.4 547.8,236.4 548.0,236.4 548.2,236.4 548.5,236.4 548.7,236.4 548.9,236.4 549.2,236.4 549.4,236.4 549.6,236.4 549.8,236.4 550.1,236.4 550.3,236.4 550.5,236.4 550.8,236.4 551.0,236.4 551.2,236.4 551.4,236.4 551.7,236.4 551.9,236.4 552.1,236.4 552.4,236.4 552.6,236.4 552.8,236.4 553.0,236.4 553.3,236.4 553.5,236.4 553.7,236.4 554.0,236.4 554.2,236.4 554.4,236.4 554.6,236.4 554.9,236.4 555.1,236.4 555.3,236.4 555.6,236.4 555.8,236.4 556.0,236.4 556.2,236.4 556.5,236.4 556.7,236.4 556.9,236.4 557.2,236.4 557.4,236.4 557.6,236.4 557.8,236.4 558.1,236.4 558.3,236.4 558.5,236.4 558.8,236.4 559.0,236.4 559.2,236.4 559.4,236.4 559.7,236.4 559.9,236.4 560.1,236.4 560.4,236.4 560.6,236.4 560.8,236.4 561.0,236.4 561.3,216.6 561.5,216.6 561.7,216.6 562.0,216.6 562.2,216.6 562.4,216.6 562.6,216.6 562.9,216.6 563.1,216.6 563.3,216.6 563.6,216.6 563.8,216.6 564.0,216.6 564.2,216.6 564.5,216.6 564.7,216.6 564.9,216.6 565.2,216.6 565.4,216.6 565.6,216.6 565.8,216.6 566.1,216.6 566.3,216.6 566.5,216.6 566.8,216.6 567.0,216.6 567.2,216.6 567.5,216.6 567.7,216.6 567.9,216.6 568.1,216.6 568.4,216.6 568.6,216.6 568.8,216.6 569.1,216.6 569.3,216.6 569.5,216.6 569.7,216.6 570.0,216.6 570.2,216.6 570.4,216.6 570.7,216.6 570.9,216.6 571.1,216.6 571.3,216.6 571.6,216.6 571.8,216.6 572.0,216.6 572.3,216.6 572.5,216.6 572.7,216.6 572.9,216.6 573.2,216.6 573.4,216.6 573.6,216.6 573.9,216.6 574.1,216.6 574.3,216.6 574.5,216.6 574.8,216.6 575.0,216.6 575.2,216.6 575.5,216.6 575.7,216.6 575.9,216.6 576.1,216.6 576.4,216.6 576.6,216.6 576.8,216.6 577.1,216.6 577.3,216.6 577.5,216.6 577.7,216.6 578.0,216.6 578.2,216.6 578.4,216.6 578.7,216.6 578.9,216.6 579.1,216.6 579.3,216.6 579.6,216.6 579.8,216.6 580.0,216.6 580.3,216.6 580.5,216.6 580.7,216.6 580.9,216.6 581.2,216.6 581.4,216.6 581.6,216.6 581.9,216.6 582.1,216.6 582.3,216.6 582.5,216.6 582.8,216.6 583.0,216.6 583.2,216.6 583.5,216.6 583.7,216.6 583.9,216.6 584.1,216.6 584.4,216.6 584.6,216.6 584.8,216.6 585.1,216.6 585.3,216.6 585.5,216.6 585.7,216.6 586.0,216.6 586.2,216.6 586.4,216.6 586.7,216.6 586.9,216.6 587.1,216.6 587.4,216.6 587.6,216.6 587.8,216.6 588.0,216.6 588.3,216.6 588.5,167.6 588.7,167.6 589.0,167.6 589.2,167.6 589.4,167.6 589.6,167.6 589.9,167.6 590.1,167.6 590.3,167.6 590.6,167.6 590.8,167.6 591.0,167.6 591.2,167.6 591.5,167.6 591.7,167.6 591.9,167.6 592.2,167.6 592.4,167.6 592.6,167.6 592.8,167.6 593.1,167.6 593.3,167.6 593.5,167.6 593.8,167.6 594.0,167.6 594.2,167.6 594.4,167.6 594.7,167.6 594.9,167.6 595.1,167.6 595.4,167.6 595.6,167.6 595.8,167.6 596.0,167.6 596.3,167.6 596.5,167.6 596.7,167.6 597.0,167.6 597.2,167.6 597.4,167.6 597.6,167.6 597.9,167.6 598.1,167.6 598.3,167.6 598.6,167.6 598.8,167.6 599.0,167.6 599.2,167.6 599.5,167.6 599.7,167.6 599.9,167.6 600.2,167.6 600.4,167.6 600.6,167.6 600.8,167.6 601.1,167.6 601.3,167.6 601.5,167.6 601.8,167.6 602.0,167.6 602.2,167.6 602.4,167.6 602.7,167.6 602.9,167.6 603.1,167.6 603.4,167.6 603.6,167.6 603.8,167.6 604.0,167.6 604.3,167.6 604.5,167.6 604.7,167.6 605.0,167.6 605.2,167.6 605.4,167.6 605.6,167.6 605.9,167.6 606.1,167.6 606.3,167.6 606.6,167.6 606.8,167.6 607.0,167.6 607.3,167.6 607.5,167.6 607.7,167.6 607.9,167.6 608.2,167.6 608.4,167.6 608.6,167.6 608.9,167.6 609.1,167.6 609.3,167.6 609.5,167.6 609.8,167.6 610.0,167.6 610.2,167.6 610.5,167.6 610.7,167.6 610.9,167.6 611.1,167.6 611.4,167.6 611.6,167.6 611.8,167.6 612.1,167.6 612.3,167.6 612.5,167.6 612.7,167.6 613.0,167.6 613.2,167.6 613.4,167.6 613.7,167.6 613.9,167.6 614.1,167.6 614.3,167.6 614.6,167.6 614.8,167.6 615.0,167.6 615.3,167.6 615.5,167.6 615.7,167.6 615.9,167.6 616.2,167.6 616.4,167.6 616.6,167.6 616.9,167.6 617.1,128.4 617.3,128.4 617.5,128.4 617.8,128.4 618.0,128.4 618.2,128.4 618.5,128.4 618.7,128.4 618.9,128.4 619.1,128.4 619.4,128.4 619.6,128.4 619.8,128.4 620.1,128.4 620.3,128.4 620.5,128.4 620.7,128.4 621.0,128.4 621.2,128.4 621.4,128.4 621.7,128.4 621.9,128.4 622.1,128.4 622.3,128.4 622.6,128.4 622.8,128.4 623.0,128.4 623.3,128.4 623.5,128.4 623.7,128.4 623.9,128.4 624.2,128.4 624.4,128.4 624.6,128.4 624.9,128.4 625.1,128.4 625.3,128.4 625.5,128.4 625.8,128.4 626.0,128.4 626.2,128.4 626.5,128.4 626.7,128.4 626.9,128.4 627.2,128.4 627.4,128.4 627.6,128.4 627.8,128.4 628.1,128.4 628.3,128.4 628.5,128.4 628.8,128.4 629.0,128.4 629.2,128.4 629.4,128.4 629.7,128.4 629.9,128.4 630.1,128.4 630.4,128.4 630.6,128.4 630.8,128.4 631.0,128.4 631.3,128.4 631.5,128.4 631.7,128.4 632.0,128.4 632.2,128.4 632.4,128.4 632.6,128.4 632.9,128.4 633.1,128.4 633.3,128.4 633.6,128.4 633.8,128.4 634.0,128.4 634.2,128.4 634.5,128.4 634.7,128.4 634.9,128.4 635.2,128.4 635.4,128.4 635.6,128.4 635.8,128.4 636.1,128.4 636.3,128.4 636.5,128.4 636.8,128.4 637.0,128.4 637.2,128.4 637.4,128.4 637.7,128.4 637.9,128.4 638.1,128.4 638.4,128.4 638.6,128.4 638.8,128.4 639.0,128.4 639.3,128.4 639.5,128.4 639.7,128.4 640.0,128.4 640.2,128.4 640.4,128.4 640.6,128.4 640.9,128.4 641.1,128.4 641.3,128.4 641.6,128.4 641.8,128.4 642.0,128.4 642.2,128.4 642.5,128.4 642.7,128.4 642.9,128.4 643.2,128.4 643.4,128.4 643.6,128.4 643.8,128.4 644.1,128.4 644.3,65.9 644.5,65.9 644.8,65.9 645.0,65.9 645.2,65.9 645.4,65.9 645.7,65.9 645.9,65.9 646.1,65.9 646.4,65.9 646.6,65.9 646.8,65.9 647.1,65.9 647.3,65.9 647.5,65.9 647.7,65.9 648.0,65.9 648.2,65.9 648.4,65.9 648.7,65.9 648.9,65.9 649.1,65.9 649.3,65.9 649.6,65.9 649.8,65.9 650.0,65.9 650.3,65.9 650.5,65.9 650.7,65.9 650.9,65.9 651.2,65.9 651.4,65.9 651.6,65.9 651.9,65.9 652.1,65.9 652.3,65.9 652.5,65.9 652.8,65.9 653.0,65.9 653.2,65.9 653.5,65.9 653.7,65.9 653.9,65.9 654.1,65.9 654.4,65.9 654.6,65.9 654.8,65.9 655.1,65.9 655.3,65.9 655.5,65.9 655.7,65.9 656.0,65.9 656.2,65.9 656.4,65.9 656.7,65.9 656.9,65.9 657.1,65.9 657.3,65.9 657.6,65.9 657.8,65.9 658.0,65.9 658.3,65.9 658.5,65.9 658.7,65.9 658.9,65.9 659.2,65.9 659.4,65.9 659.6,65.9 659.9,65.9 660.1,65.9 660.3,65.9 660.5,65.9 660.8,65.9 661.0,278.9 661.2,278.9 661.5,278.9 661.7,278.9 661.9,278.9 662.1,278.9 662.4,278.9 662.6,278.9 662.8,278.9 663.1,278.9 663.3,278.9 663.5,278.9 663.7,278.9 664.0,278.9 664.2,278.9 664.4,278.9 664.7,278.9 664.9,278.9 665.1,278.9 665.3,278.9 665.6,278.9 665.8,278.9 666.0,278.9 666.3,278.9 666.5,278.9 666.7,278.9 667.0,278.9 667.2,278.9 667.4,278.9 667.6,278.9 667.9,278.9 668.1,278.9 668.3,278.9 668.6,278.9 668.8,278.9 669.0,278.9 669.2,278.9 669.5,278.9 669.7,278.9 669.9,278.9 670.2,278.9 670.4,278.9 670.6,278.9 670.8,278.9 671.1,278.9 671.3,278.9 671.5,278.9 671.8,278.9 672.0,278.9 672.2,278.9 672.4,278.9 672.7,275.5 672.9,275.5 673.1,275.5 673.4,275.5 673.6,275.5 673.8,275.5 674.0,275.5 674.3,275.5 674.5,275.5 674.7,275.5 675.0,275.5 675.2,275.5 675.4,275.5 675.6,275.5 675.9,275.5 676.1,275.5 676.3,275.5 676.6,275.5 676.8,275.5 677.0,275.5 677.2,275.5 677.5,275.5 677.7,275.5 677.9,275.5 678.2,275.5 678.4,275.5 678.6,275.5 678.8,275.5 679.1,275.5 679.3,275.5 679.5,275.5 679.8,275.5 680.0,275.5 680.2,275.5 680.4,275.5 680.7,275.5 680.9,275.5 681.1,275.5 681.4,275.5 681.6,275.5 681.8,275.5 682.0,275.5 682.3,275.5 682.5,275.5 682.7,275.5 683.0,275.5 683.2,275.5 683.4,275.5 683.6,275.5 683.9,275.5 684.1,275.5 684.3,275.5 684.6,275.5 684.8,275.5 685.0,275.5 685.2,275.5 685.5,275.5 685.7,275.5 685.9,275.5 686.2,275.5 686.4,275.5 686.6,275.5 686.9,275.5 687.1,275.5 687.3,275.5 687.5,275.5 687.8,275.5 688.0,275.5 688.2,275.5 688.5,275.5 688.7,275.5 688.9,275.5 689.1,275.5 689.4,275.5 689.6,275.5 689.8,275.5 690.1,275.5 690.3,275.5 690.5,275.5 690.7,275.5 691.0,275.5 691.2,275.5 691.4,275.5 691.7,275.5 691.9,275.5 692.1,275.5 692.3,275.5 692.6,275.5 692.8,275.5 693.0,275.5 693.3,275.5 693.5,275.5 693.7,275.5 693.9,275.5 694.2,275.5 694.4,275.5 694.6,275.5 694.9,275.5 695.1,275.5 695.3,275.5 695.5,275.5 695.8,275.5 696.0,275.5"/>
  <text x="60" y="62" font-size="11" fill="#2563eb">Price index</text>
  <text x="146" y="62" font-size="11" fill="#16a34a">Total return (price + distributions)</text>
  <text x="56" y="348" font-size="11" text-anchor="middle" fill="#444">2015-01</text><text x="216" y="348" font-size="11" text-anchor="middle" fill="#444">2017-11</text><text x="376" y="348" font-size="11" text-anchor="middle" fill="#444">2020-09</text><text x="536" y="348" font-size="11" text-anchor="middle" fill="#444">2023-07</text><text x="696" y="348" font-size="11" text-anchor="middle" fill="#444">2026-06</text>
</svg>
