<svg xmlns="http://www.w3.org/2000/svg" width="820" height="410" viewBox="0 0 820 410">
<rect width="820" height="410" fill="#fafafa"/><text x="78" y="22" font-size="14" font-family="sans-serif" fill="#0f172a">7176.T cumulative return since 2015-01-27 | dividends reinvested</text>
<text x="78" y="40" font-size="11" font-family="sans-serif" fill="#334155">Total return +172,337% | Price-only +172,337% | logarithmic scale</text>
<text x="78" y="54" font-size="9" font-family="sans-serif" fill="#64748b">Regular $0.00 | Special $0.00 | Other $0.00 per initial share path</text>
<line x1="78" y1="332.0" x2="796" y2="332.0" stroke="#e2e8f0"/><text x="70" y="336.0" font-size="10" text-anchor="end" fill="#64748b">-44.1%</text><line x1="78" y1="317.5" x2="796" y2="317.5" stroke="#e2e8f0"/><text x="70" y="321.5" font-size="10" text-anchor="end" fill="#64748b">0%</text><line x1="78" y1="287.0" x2="796" y2="287.0" stroke="#e2e8f0"/><text x="70" y="291.0" font-size="10" text-anchor="end" fill="#64748b">+241.3%</text><line x1="78" y1="242.0" x2="796" y2="242.0" stroke="#e2e8f0"/><text x="70" y="246.0" font-size="10" text-anchor="end" fill="#64748b">+1,984%</text><line x1="78" y1="197.0" x2="796" y2="197.0" stroke="#e2e8f0"/><text x="70" y="201.0" font-size="10" text-anchor="end" fill="#64748b">+12,626%</text><line x1="78" y1="152.0" x2="796" y2="152.0" stroke="#e2e8f0"/><text x="70" y="156.0" font-size="10" text-anchor="end" fill="#64748b">+77,607%</text><line x1="78" y1="107.0" x2="796" y2="107.0" stroke="#e2e8f0"/><text x="70" y="111.0" font-size="10" text-anchor="end" fill="#64748b">+474,375%</text><line x1="78" y1="62.0" x2="796" y2="62.0" stroke="#e2e8f0"/><text x="70" y="66.0" font-size="10" text-anchor="end" fill="#64748b">+2,897,039%</text><line x1="78" y1="62.0" x2="796" y2="62.0" stroke="#e2e8f0"/><text x="70" y="66.0" font-size="10" text-anchor="end" fill="#64748b">+2,897,039%</text>
<line x1="78" y1="332" x2="796" y2="332" stroke="#cbd5e1"/>
<polyline fill="none" stroke="#2563eb" stroke-width="2" points="78.0,317.5 78.3,317.5 78.5,317.5 78.8,317.5 79.0,317.5 79.3,317.5 79.5,317.5 79.8,317.5 80.0,317.5 80.3,317.5 80.5,317.5 80.8,317.5 81.1,317.5 81.3,317.5 81.6,317.5 81.8,317.5 82.1,317.5 82.3,317.5 82.6,317.5 82.8,317.5 83.1,317.5 83.3,317.5 83.6,317.5 83.8,317.5 84.1,317.5 84.4,317.5 84.6,317.5 84.9,317.5 85.1,317.5 85.4,317.5 85.6,317.5 85.9,317.5 86.1,317.5 86.4,317.5 86.6,317.5 86.9,317.5 87.2,317.5 87.4,317.5 87.7,317.5 87.9,317.5 88.2,317.5 88.4,317.5 88.7,317.5 88.9,317.5 89.2,317.5 89.4,317.5 89.7,317.5 90.0,317.5 90.2,317.5 90.5,317.5 90.7,317.5 91.0,317.5 91.2,317.5 91.5,317.5 91.7,317.5 92.0,317.5 92.2,317.5 92.5,317.5 92.8,317.5 93.0,317.5 93.3,317.5 93.5,317.5 93.8,317.5 94.0,317.5 94.3,317.5 94.5,317.5 94.8,317.5 95.0,317.5 95.3,317.5 95.5,317.5 95.8,317.5 96.1,317.5 96.3,317.5 96.6,317.5 96.8,317.5 97.1,317.5 97.3,317.5 97.6,317.5 97.8,317.5 98.1,317.5 98.3,317.5 98.6,317.5 98.9,317.5 99.1,317.5 99.4,317.5 99.6,317.5 99.9,317.5 100.1,317.5 100.4,317.5 100.6,317.5 100.9,317.5 101.1,317.5 101.4,317.5 101.7,317.5 101.9,317.5 102.2,317.5 102.4,317.5 102.7,317.5 102.9,317.5 103.2,317.5 103.4,317.5 103.7,317.5 103.9,317.5 104.2,317.5 104.5,317.5 104.7,317.5 105.0,317.5 105.2,317.5 105.5,317.5 105.7,317.5 106.0,317.5 106.2,317.5 106.5,317.5 106.7,317.5 107.0,317.5 107.2,317.5 107.5,317.5 107.8,317.5 108.0,317.5 108.3,317.5 108.5,317.5 108.8,317.5 109.0,317.5 109.3,317.5 109.5,317.5 109.8,317.5 110.0,317.5 110.3,317.5 110.6,317.5 110.8,317.5 111.1,317.5 111.3,317.5 111.6,317.5 111.8,317.5 112.1,317.5 112.3,317.5 112.6,317.5 112.8,317.5 113.1,317.5 113.4,317.5 113.6,317.5 113.9,317.5 114.1,317.5 114.4,317.5 114.6,317.5 114.9,317.5 115.1,317.5 115.4,317.5 115.6,317.5 115.9,317.5 116.2,317.5 116.4,317.5 116.7,317.5 116.9,317.5 117.2,317.5 117.4,317.5 117.7,317.5 117.9,317.5 118.2,317.5 118.4,317.5 118.7,317.5 118.9,317.5 119.2,317.5 119.5,317.5 119.7,317.5 120.0,317.5 120.2,317.5 120.5,317.5 120.7,317.5 121.0,317.5 121.2,317.5 121.5,317.5 121.7,317.5 122.0,317.5 122.3,317.5 122.5,317.5 122.8,317.5 123.0,317.5 123.3,317.5 123.5,317.5 123.8,317.5 124.0,317.5 124.3,317.5 124.5,317.5 124.8,317.5 125.1,317.5 125.3,317.5 125.6,317.5 125.8,317.5 126.1,317.5 126.3,317.5 126.6,317.5 126.8,317.5 127.1,317.5 127.3,317.5 127.6,317.5 127.9,317.5 128.1,317.5 128.4,317.5 128.6,317.5 128.9,317.5 129.1,317.5 129.4,317.5 129.6,317.5 129.9,317.5 130.1,317.5 130.4,317.5 130.6,317.5 130.9,317.5 131.2,317.5 131.4,317.5 131.7,317.5 131.9,317.5 132.2,317.5 132.4,317.5 132.7,317.5 132.9,317.5 133.2,317.5 133.4,317.5 133.7,317.5 134.0,317.5 134.2,317.5 134.5,317.5 134.7,317.5 135.0,317.5 135.2,317.5 135.5,317.5 135.7,317.5 136.0,317.5 136.2,317.5 136.5,317.5 136.8,317.5 137.0,317.5 137.3,317.5 137.5,317.5 137.8,317.5 138.0,317.5 138.3,317.5 138.5,317.5 138.8,317.5 139.0,275.1 139.3,275.1 139.6,275.1 139.8,275.1 140.1,275.1 140.3,275.1 140.6,275.1 140.8,275.1 141.1,275.1 141.3,275.1 141.6,275.1 141.8,275.1 142.1,275.1 142.3,275.1 142.6,275.1 142.9,275.1 143.1,275.1 143.4,275.1 143.6,275.1 143.9,275.1 144.1,275.1 144.4,275.1 144.6,275.1 144.9,275.1 145.1,275.1 145.4,275.1 145.7,275.1 145.9,275.1 146.2,275.1 146.4,275.1 146.7,275.1 146.9,275.1 147.2,275.1 147.4,275.1 147.7,275.1 147.9,275.1 148.2,275.1 148.5,275.1 148.7,275.1 149.0,275.1 149.2,275.1 149.5,275.1 149.7,275.1 150.0,275.1 150.2,275.1 150.5,275.1 150.7,275.1 151.0,275.1 151.2,275.1 151.5,275.1 151.8,275.1 152.0,275.1 152.3,275.1 152.5,275.1 152.8,275.1 153.0,275.1 153.3,275.1 153.5,275.1 153.8,275.1 154.0,275.1 154.3,275.1 154.6,275.1 154.8,275.1 155.1,275.1 155.3,275.1 155.6,275.1 155.8,275.1 156.1,275.1 156.3,275.1 156.6,275.1 156.8,275.1 157.1,275.1 157.4,275.1 157.6,275.1 157.9,275.1 158.1,275.1 158.4,275.1 158.6,275.1 158.9,275.1 159.1,275.1 159.4,275.1 159.6,275.1 159.9,275.1 160.2,275.1 160.4,275.1 160.7,275.1 160.9,275.1 161.2,275.1 161.4,275.1 161.7,275.1 161.9,275.1 162.2,275.1 162.4,275.1 162.7,275.1 162.9,275.1 163.2,275.1 163.5,275.1 163.7,275.1 164.0,275.1 164.2,275.1 164.5,275.1 164.7,275.1 165.0,275.1 165.2,275.1 165.5,275.1 165.7,275.1 166.0,275.1 166.3,275.1 166.5,275.1 166.8,275.1 167.0,275.1 167.3,275.1 167.5,275.1 167.8,275.1 168.0,275.1 168.3,275.1 168.5,275.1 168.8,275.1 169.1,275.1 169.3,275.1 169.6,275.1 169.8,275.1 170.1,275.1 170.3,275.1 170.6,275.1 170.8,275.1 171.1,275.1 171.3,275.1 171.6,275.1 171.9,275.1 172.1,275.1 172.4,275.1 172.6,275.1 172.9,275.1 173.1,275.1 173.4,275.1 173.6,275.1 173.9,275.1 174.1,275.1 174.4,275.1 174.6,275.1 174.9,275.1 175.2,275.1 175.4,275.1 175.7,275.1 175.9,275.1 176.2,275.1 176.4,275.1 176.7,275.1 176.9,275.1 177.2,275.1 177.4,275.1 177.7,275.1 178.0,275.1 178.2,275.1 178.5,275.1 178.7,275.1 179.0,275.1 179.2,275.1 179.5,275.1 179.7,275.1 180.0,275.1 180.2,275.1 180.5,275.1 180.8,275.1 181.0,275.1 181.3,275.1 181.5,275.1 181.8,275.1 182.0,275.1 182.3,275.1 182.5,275.1 182.8,275.1 183.0,275.1 183.3,275.1 183.6,275.1 183.8,275.1 184.1,275.1 184.3,275.1 184.6,275.1 184.8,275.1 185.1,275.1 185.3,275.1 185.6,275.1 185.8,275.1 186.1,275.1 186.3,275.1 186.6,275.1 186.9,275.1 187.1,275.1 187.4,275.1 187.6,275.1 187.9,275.1 188.1,275.1 188.4,275.1 188.6,275.1 188.9,275.1 189.1,275.1 189.4,275.1 189.7,275.1 189.9,275.1 190.2,275.1 190.4,275.1 190.7,275.1 190.9,275.1 191.2,275.1 191.4,275.1 191.7,275.1 191.9,275.1 192.2,275.1 192.5,275.1 192.7,275.1 193.0,275.1 193.2,275.1 193.5,275.1 193.7,275.1 194.0,275.1 194.2,275.1 194.5,275.1 194.7,275.1 195.0,275.1 195.3,275.1 195.5,275.1 195.8,275.1 196.0,275.1 196.3,275.1 196.5,275.1 196.8,275.1 197.0,275.1 197.3,275.1 197.5,275.1 197.8,275.1 198.0,275.1 198.3,275.1 198.6,275.1 198.8,275.1 199.1,275.1 199.3,275.1 199.6,275.1 199.8,275.1 200.1,275.1 200.3,275.1 200.6,275.1 200.8,275.1 201.1,275.1 201.4,275.1 201.6,275.1 201.9,275.1 202.1,275.1 202.4,275.1 202.6,275.1 202.9,275.1 203.1,275.1 203.4,275.1 203.6,275.1 203.9,275.1 204.2,275.1 204.4,275.1 204.7,275.1 204.9,275.1 205.2,275.1 205.4,275.1 205.7,275.1 205.9,275.1 206.2,275.1 206.4,275.1 206.7,275.1 207.0,275.1 207.2,275.1 207.5,275.1 207.7,275.1 208.0,275.1 208.2,275.1 208.5,275.1 208.7,275.1 209.0,275.1 209.2,275.1 209.5,275.1 209.7,275.1 210.0,275.1 210.3,275.1 210.5,275.1 210.8,275.1 211.0,275.1 211.3,275.1 211.5,275.1 211.8,275.1 212.0,275.1 212.3,275.1 212.5,275.1 212.8,275.1 213.1,275.1 213.3,275.1 213.6,275.1 213.8,275.1 214.1,275.1 214.3,275.1 214.6,275.1 214.8,275.1 215.1,275.1 215.3,275.1 215.6,275.1 215.9,275.1 216.1,275.1 216.4,275.1 216.6,275.1 216.9,275.1 217.1,275.1 217.4,275.1 217.6,275.1 217.9,275.1 218.1,275.1 218.4,275.1 218.6,275.1 218.9,275.1 219.2,275.1 219.4,275.1 219.7,275.1 219.9,275.1 220.2,275.1 220.4,275.1 220.7,275.1 220.9,275.1 221.2,275.1 221.4,275.1 221.7,275.1 222.0,275.1 222.2,275.1 222.5,275.1 222.7,275.1 223.0,275.1 223.2,275.1 223.5,275.1 223.7,275.1 224.0,275.1 224.2,275.1 224.5,275.1 224.8,275.1 225.0,275.1 225.3,275.1 225.5,275.1 225.8,275.1 226.0,275.1 226.3,275.1 226.5,275.1 226.8,275.1 227.0,275.1 227.3,275.1 227.6,275.1 227.8,275.1 228.1,275.1 228.3,275.1 228.6,275.1 228.8,275.1 229.1,275.1 229.3,275.1 229.6,275.1 229.8,275.1 230.1,275.1 230.3,275.1 230.6,275.1 230.9,275.1 231.1,275.1 231.4,275.1 231.6,275.1 231.9,275.1 232.1,275.1 232.4,275.1 232.6,275.1 232.9,275.1 233.1,275.1 233.4,275.1 233.7,275.1 233.9,275.1 234.2,275.1 234.4,275.1 234.7,275.1 234.9,275.1 235.2,275.1 235.4,275.1 235.7,275.1 235.9,275.1 236.2,275.1 236.5,275.1 236.7,275.1 237.0,275.1 237.2,275.1 237.5,275.1 237.7,275.1 238.0,275.1 238.2,275.1 238.5,275.1 238.7,275.1 239.0,275.1 239.3,275.1 239.5,275.1 239.8,275.1 240.0,275.1 240.3,275.1 240.5,275.1 240.8,275.1 241.0,275.1 241.3,275.1 241.5,275.1 241.8,275.1 242.0,275.1 242.3,275.1 242.6,275.1 242.8,275.1 243.1,275.1 243.3,275.1 243.6,275.1 243.8,275.1 244.1,275.1 244.3,275.1 244.6,275.1 244.8,275.1 245.1,275.1 245.4,275.1 245.6,275.1 245.9,275.1 246.1,275.1 246.4,275.1 246.6,275.1 246.9,275.1 247.1,275.1 247.4,275.1 247.6,275.1 247.9,275.1 248.2,275.1 248.4,275.1 248.7,275.1 248.9,275.1 249.2,275.1 249.4,275.1 249.7,275.1 249.9,275.1 250.2,275.1 250.4,275.1 250.7,275.1 251.0,275.1 251.2,275.1 251.5,275.1 251.7,275.1 252.0,275.1 252.2,275.1 252.5,275.1 252.7,275.1 253.0,275.1 253.2,275.1 253.5,275.1 253.7,275.1 254.0,275.1 254.3,275.1 254.5,275.1 254.8,275.1 255.0,275.1 255.3,275.1 255.5,275.1 255.8,275.1 256.0,275.1 256.3,275.1 256.5,275.1 256.8,275.1 257.1,275.1 257.3,275.1 257.6,275.1 257.8,275.1 258.1,275.1 258.3,275.1 258.6,275.1 258.8,275.1 259.1,275.1 259.3,275.1 259.6,275.1 259.9,275.1 260.1,275.1 260.4,275.1 260.6,275.1 260.9,275.1 261.1,275.1 261.4,275.1 261.6,275.1 261.9,275.1 262.1,275.1 262.4,275.1 262.7,275.1 262.9,275.1 263.2,275.1 263.4,275.1 263.7,275.1 263.9,275.1 264.2,275.1 264.4,275.1 264.7,275.1 264.9,275.1 265.2,275.1 265.4,275.1 265.7,275.1 266.0,275.1 266.2,275.1 266.5,275.1 266.7,275.1 267.0,275.1 267.2,275.1 267.5,275.1 267.7,275.1 268.0,275.1 268.2,275.1 268.5,275.1 268.8,275.1 269.0,275.1 269.3,275.1 269.5,275.1 269.8,275.1 270.0,275.1 270.3,275.1 270.5,275.1 270.8,275.1 271.0,275.1 271.3,275.1 271.6,275.1 271.8,275.1 272.1,275.1 272.3,275.1 272.6,275.1 272.8,275.1 273.1,275.1 273.3,275.1 273.6,275.1 273.8,275.1 274.1,275.1 274.3,275.1 274.6,275.1 274.9,275.1 275.1,275.1 275.4,275.1 275.6,275.1 275.9,221.2 276.1,221.2 276.4,221.2 276.6,221.2 276.9,221.2 277.1,221.2 277.4,221.2 277.7,221.2 277.9,221.2 278.2,221.2 278.4,221.2 278.7,221.2 278.9,221.2 279.2,221.2 279.4,221.2 279.7,221.2 279.9,221.2 280.2,221.2 280.5,221.2 280.7,221.2 281.0,221.2 281.2,221.2 281.5,221.2 281.7,221.2 282.0,221.2 282.2,221.2 282.5,221.2 282.7,221.2 283.0,221.2 283.3,221.2 283.5,221.2 283.8,221.2 284.0,221.2 284.3,221.2 284.5,221.2 284.8,221.2 285.0,221.2 285.3,221.2 285.5,221.2 285.8,221.2 286.0,221.2 286.3,221.2 286.6,221.2 286.8,221.2 287.1,221.2 287.3,221.2 287.6,221.2 287.8,221.2 288.1,221.2 288.3,221.2 288.6,221.2 288.8,221.2 289.1,221.2 289.4,221.2 289.6,221.2 289.9,221.2 290.1,221.2 290.4,221.2 290.6,221.2 290.9,221.2 291.1,221.2 291.4,221.2 291.6,221.2 291.9,221.2 292.2,221.2 292.4,221.2 292.7,221.2 292.9,221.2 293.2,221.2 293.4,221.2 293.7,221.2 293.9,221.2 294.2,221.2 294.4,221.2 294.7,221.2 295.0,221.2 295.2,221.2 295.5,221.2 295.7,221.2 296.0,221.2 296.2,221.2 296.5,221.2 296.7,221.2 297.0,221.2 297.2,221.2 297.5,221.2 297.7,221.2 298.0,221.2 298.3,221.2 298.5,221.2 298.8,221.2 299.0,221.2 299.3,221.2 299.5,221.2 299.8,221.2 300.0,221.2 300.3,221.2 300.5,221.2 300.8,221.2 301.1,221.2 301.3,221.2 301.6,221.2 301.8,221.2 302.1,221.2 302.3,221.2 302.6,221.2 302.8,221.2 303.1,221.2 303.3,221.2 303.6,221.2 303.9,221.2 304.1,221.2 304.4,221.2 304.6,221.2 304.9,221.2 305.1,221.2 305.4,221.2 305.6,221.2 305.9,221.2 306.1,221.2 306.4,221.2 306.7,221.2 306.9,221.2 307.2,221.2 307.4,221.2 307.7,221.2 307.9,221.2 308.2,221.2 308.4,221.2 308.7,221.2 308.9,221.2 309.2,221.2 309.4,221.2 309.7,221.2 310.0,221.2 310.2,221.2 310.5,221.2 310.7,221.2 311.0,221.2 311.2,221.2 311.5,221.2 311.7,221.2 312.0,221.2 312.2,221.2 312.5,221.2 312.8,221.2 313.0,221.2 313.3,221.2 313.5,221.2 313.8,221.2 314.0,221.2 314.3,221.2 314.5,221.2 314.8,221.2 315.0,221.2 315.3,221.2 315.6,221.2 315.8,221.2 316.1,221.2 316.3,221.2 316.6,221.2 316.8,221.2 317.1,221.2 317.3,221.2 317.6,221.2 317.8,221.2 318.1,221.2 318.4,221.2 318.6,221.2 318.9,221.2 319.1,221.2 319.4,221.2 319.6,221.2 319.9,221.2 320.1,221.2 320.4,221.2 320.6,221.2 320.9,221.2 321.1,221.2 321.4,221.2 321.7,221.2 321.9,221.2 322.2,221.2 322.4,221.2 322.7,221.2 322.9,221.2 323.2,221.2 323.4,221.2 323.7,221.2 323.9,221.2 324.2,221.2 324.5,221.2 324.7,221.2 325.0,221.2 325.2,221.2 325.5,221.2 325.7,221.2 326.0,221.2 326.2,221.2 326.5,221.2 326.7,221.2 327.0,221.2 327.3,221.2 327.5,221.2 327.8,221.2 328.0,221.2 328.3,221.2 328.5,221.2 328.8,221.2 329.0,221.2 329.3,221.2 329.5,221.2 329.8,221.2 330.1,221.2 330.3,221.2 330.6,221.2 330.8,221.2 331.1,221.2 331.3,221.2 331.6,221.2 331.8,221.2 332.1,221.2 332.3,221.2 332.6,221.2 332.8,221.2 333.1,221.2 333.4,221.2 333.6,221.2 333.9,221.2 334.1,221.2 334.4,221.2 334.6,221.2 334.9,221.2 335.1,221.2 335.4,221.2 335.6,221.2 335.9,221.2 336.2,221.2 336.4,221.2 336.7,221.2 336.9,221.2 337.2,221.2 337.4,221.2 337.7,221.2 337.9,221.2 338.2,221.2 338.4,221.2 338.7,221.2 339.0,221.2 339.2,221.2 339.5,221.2 339.7,221.2 340.0,221.2 340.2,221.2 340.5,221.2 340.7,221.2 341.0,221.2 341.2,221.2 341.5,221.2 341.7,221.2 342.0,221.2 342.3,221.2 342.5,221.2 342.8,221.2 343.0,221.2 343.3,221.2 343.5,221.2 343.8,221.2 344.0,221.2 344.3,221.2 344.5,221.2 344.8,221.2 345.1,221.2 345.3,221.2 345.6,221.2 345.8,221.2 346.1,221.2 346.3,221.2 346.6,221.2 346.8,221.2 347.1,221.2 347.3,221.2 347.6,221.2 347.9,221.2 348.1,221.2 348.4,221.2 348.6,221.2 348.9,221.2 349.1,221.2 349.4,221.2 349.6,221.2 349.9,221.2 350.1,221.2 350.4,221.2 350.7,221.2 350.9,221.2 351.2,221.2 351.4,221.2 351.7,221.2 351.9,221.2 352.2,221.2 352.4,221.2 352.7,221.2 352.9,221.2 353.2,221.2 353.4,221.2 353.7,221.2 354.0,221.2 354.2,221.2 354.5,221.2 354.7,221.2 355.0,221.2 355.2,221.2 355.5,221.2 355.7,221.2 356.0,221.2 356.2,221.2 356.5,221.2 356.8,221.2 357.0,221.2 357.3,221.2 357.5,221.2 357.8,221.2 358.0,221.2 358.3,221.2 358.5,221.2 358.8,221.2 359.0,221.2 359.3,221.2 359.6,221.2 359.8,221.2 360.1,221.2 360.3,221.2 360.6,221.2 360.8,221.2 361.1,221.2 361.3,221.2 361.6,221.2 361.8,221.2 362.1,221.2 362.4,221.2 362.6,221.2 362.9,221.2 363.1,221.2 363.4,221.2 363.6,221.2 363.9,221.2 364.1,221.2 364.4,221.2 364.6,221.2 364.9,221.2 365.1,221.2 365.4,221.2 365.7,221.2 365.9,221.2 366.2,221.2 366.4,221.2 366.7,221.2 366.9,221.2 367.2,221.2 367.4,221.2 367.7,221.2 367.9,221.2 368.2,221.2 368.5,221.2 368.7,221.2 369.0,221.2 369.2,221.2 369.5,221.2 369.7,221.2 370.0,221.2 370.2,221.2 370.5,221.2 370.7,221.2 371.0,221.2 371.3,221.2 371.5,221.2 371.8,221.2 372.0,221.2 372.3,221.2 372.5,221.2 372.8,221.2 373.0,221.2 373.3,221.2 373.5,221.2 373.8,221.2 374.1,221.2 374.3,221.2 374.6,221.2 374.8,221.2 375.1,221.2 375.3,221.2 375.6,221.2 375.8,221.2 376.1,221.2 376.3,221.2 376.6,221.2 376.8,221.2 377.1,221.2 377.4,221.2 377.6,221.2 377.9,221.2 378.1,221.2 378.4,221.2 378.6,221.2 378.9,221.2 379.1,221.2 379.4,221.2 379.6,221.2 379.9,221.2 380.2,221.2 380.4,221.2 380.7,221.2 380.9,221.2 381.2,221.2 381.4,221.2 381.7,221.2 381.9,221.2 382.2,221.2 382.4,221.2 382.7,221.2 383.0,221.2 383.2,221.2 383.5,221.2 383.7,221.2 384.0,221.2 384.2,221.2 384.5,221.2 384.7,221.2 385.0,221.2 385.2,221.2 385.5,221.2 385.8,221.2 386.0,221.2 386.3,221.2 386.5,221.2 386.8,221.2 387.0,221.2 387.3,221.2 387.5,221.2 387.8,221.2 388.0,221.2 388.3,221.2 388.5,221.2 388.8,221.2 389.1,221.2 389.3,221.2 389.6,221.2 389.8,221.2 390.1,221.2 390.3,221.2 390.6,221.2 390.8,221.2 391.1,221.2 391.3,221.2 391.6,221.2 391.9,221.2 392.1,221.2 392.4,221.2 392.6,221.2 392.9,221.2 393.1,221.2 393.4,221.2 393.6,221.2 393.9,221.2 394.1,221.2 394.4,221.2 394.7,221.2 394.9,221.2 395.2,221.2 395.4,221.2 395.7,221.2 395.9,221.2 396.2,221.2 396.4,221.2 396.7,162.6 396.9,162.6 397.2,162.6 397.5,162.6 397.7,162.6 398.0,162.6 398.2,162.6 398.5,162.6 398.7,162.6 399.0,162.6 399.2,162.6 399.5,162.6 399.7,162.6 400.0,162.6 400.2,162.6 400.5,162.6 400.8,162.6 401.0,162.6 401.3,162.6 401.5,162.6 401.8,162.6 402.0,162.6 402.3,162.6 402.5,162.6 402.8,162.6 403.0,162.6 403.3,162.6 403.6,162.6 403.8,162.6 404.1,162.6 404.3,162.6 404.6,162.6 404.8,162.6 405.1,162.6 405.3,162.6 405.6,162.6 405.8,162.6 406.1,162.6 406.4,162.6 406.6,162.6 406.9,162.6 407.1,162.6 407.4,162.6 407.6,162.6 407.9,162.6 408.1,162.6 408.4,162.6 408.6,162.6 408.9,162.6 409.1,162.6 409.4,162.6 409.7,162.6 409.9,162.6 410.2,162.6 410.4,162.6 410.7,162.6 410.9,162.6 411.2,162.6 411.4,162.6 411.7,162.6 411.9,162.6 412.2,162.6 412.5,162.6 412.7,162.6 413.0,162.6 413.2,162.6 413.5,162.6 413.7,162.6 414.0,162.6 414.2,162.6 414.5,162.6 414.7,162.6 415.0,162.6 415.3,162.6 415.5,162.6 415.8,162.6 416.0,162.6 416.3,162.6 416.5,162.6 416.8,162.6 417.0,162.6 417.3,162.6 417.5,162.6 417.8,162.6 418.1,162.6 418.3,162.6 418.6,162.6 418.8,162.6 419.1,162.6 419.3,162.6 419.6,162.6 419.8,162.6 420.1,162.6 420.3,162.6 420.6,162.6 420.8,162.6 421.1,162.6 421.4,162.6 421.6,162.6 421.9,162.6 422.1,162.6 422.4,162.6 422.6,162.6 422.9,162.6 423.1,162.6 423.4,162.6 423.6,162.6 423.9,162.6 424.2,162.6 424.4,162.6 424.7,162.6 424.9,162.6 425.2,162.6 425.4,162.6 425.7,162.6 425.9,162.6 426.2,162.6 426.4,162.6 426.7,162.6 427.0,162.6 427.2,162.6 427.5,162.6 427.7,162.6 428.0,162.6 428.2,162.6 428.5,162.6 428.7,162.6 429.0,162.6 429.2,162.6 429.5,162.6 429.8,162.6 430.0,162.6 430.3,162.6 430.5,162.6 430.8,162.6 431.0,162.6 431.3,162.6 431.5,162.6 431.8,162.6 432.0,162.6 432.3,162.6 432.5,162.6 432.8,162.6 433.1,162.6 433.3,162.6 433.6,162.6 433.8,162.6 434.1,162.6 434.3,162.6 434.6,162.6 434.8,162.6 435.1,162.6 435.3,162.6 435.6,162.6 435.9,162.6 436.1,162.6 436.4,162.6 436.6,162.6 436.9,162.6 437.1,162.6 437.4,162.6 437.6,162.6 437.9,162.6 438.1,162.6 438.4,162.6 438.7,162.6 438.9,162.6 439.2,162.6 439.4,162.6 439.7,162.6 439.9,162.6 440.2,162.6 440.4,162.6 440.7,162.6 440.9,162.6 441.2,162.6 441.5,162.6 441.7,162.6 442.0,162.6 442.2,162.6 442.5,162.6 442.7,162.6 443.0,162.6 443.2,162.6 443.5,162.6 443.7,162.6 444.0,162.6 444.2,162.6 444.5,162.6 444.8,162.6 445.0,162.6 445.3,162.6 445.5,162.6 445.8,162.6 446.0,162.6 446.3,162.6 446.5,162.6 446.8,162.6 447.0,162.6 447.3,162.6 447.6,162.6 447.8,162.6 448.1,162.6 448.3,162.6 448.6,162.6 448.8,162.6 449.1,162.6 449.3,162.6 449.6,162.6 449.8,162.6 450.1,162.6 450.4,162.6 450.6,162.6 450.9,162.6 451.1,162.6 451.4,162.6 451.6,162.6 451.9,162.6 452.1,162.6 452.4,162.6 452.6,162.6 452.9,153.3 453.2,153.3 453.4,153.3 453.7,153.3 453.9,153.3 454.2,153.3 454.4,153.3 454.7,153.3 454.9,153.3 455.2,153.3 455.4,153.3 455.7,153.3 455.9,153.3 456.2,153.3 456.5,153.3 456.7,153.3 457.0,153.3 457.2,153.3 457.5,153.3 457.7,153.3 458.0,153.3 458.2,153.3 458.5,153.3 458.7,153.3 459.0,153.3 459.3,153.3 459.5,153.3 459.8,153.3 460.0,153.3 460.3,153.3 460.5,153.3 460.8,153.3 461.0,153.3 461.3,153.3 461.5,153.3 461.8,153.3 462.1,153.3 462.3,153.3 462.6,153.3 462.8,153.3 463.1,153.3 463.3,153.3 463.6,153.3 463.8,153.3 464.1,153.3 464.3,153.3 464.6,153.3 464.9,153.3 465.1,153.3 465.4,153.3 465.6,153.3 465.9,153.3 466.1,153.3 466.4,153.3 466.6,153.3 466.9,153.3 467.1,153.3 467.4,153.3 467.6,153.3 467.9,153.3 468.2,153.3 468.4,153.3 468.7,153.3 468.9,153.3 469.2,153.3 469.4,153.3 469.7,153.3 469.9,153.3 470.2,153.3 470.4,153.3 470.7,153.3 471.0,153.3 471.2,153.3 471.5,153.3 471.7,153.3 472.0,153.3 472.2,153.3 472.5,153.3 472.7,153.3 473.0,153.3 473.2,153.3 473.5,153.3 473.8,153.3 474.0,153.3 474.3,153.3 474.5,153.3 474.8,153.3 475.0,153.3 475.3,153.3 475.5,153.3 475.8,153.3 476.0,153.3 476.3,153.3 476.5,153.3 476.8,153.3 477.1,153.3 477.3,153.3 477.6,153.3 477.8,153.3 478.1,153.3 478.3,153.3 478.6,153.3 478.8,153.3 479.1,153.3 479.3,153.3 479.6,153.3 479.9,153.3 480.1,153.3 480.4,153.3 480.6,153.3 480.9,153.3 481.1,153.3 481.4,153.3 481.6,153.3 481.9,153.3 482.1,153.3 482.4,153.3 482.7,153.3 482.9,153.3 483.2,153.3 483.4,153.3 483.7,144.4 483.9,144.4 484.2,144.4 484.4,144.4 484.7,144.4 484.9,144.4 485.2,144.4 485.5,144.4 485.7,144.4 486.0,144.4 486.2,144.4 486.5,144.4 486.7,144.4 487.0,144.4 487.2,144.4 487.5,144.4 487.7,144.4 488.0,144.4 488.2,144.4 488.5,144.4 488.8,144.4 489.0,144.4 489.3,144.4 489.5,144.4 489.8,144.4 490.0,144.4 490.3,144.4 490.5,144.4 490.8,144.4 491.0,144.4 491.3,144.4 491.6,144.4 491.8,144.4 492.1,144.4 492.3,144.4 492.6,144.4 492.8,144.4 493.1,144.4 493.3,144.4 493.6,144.4 493.8,144.4 494.1,144.4 494.4,144.4 494.6,144.4 494.9,144.4 495.1,144.4 495.4,144.4 495.6,144.4 495.9,144.4 496.1,144.4 496.4,144.4 496.6,144.4 496.9,144.4 497.2,144.4 497.4,144.4 497.7,144.4 497.9,144.4 498.2,144.4 498.4,144.4 498.7,144.4 498.9,144.4 499.2,144.4 499.4,144.4 499.7,144.4 499.9,144.4 500.2,144.4 500.5,144.4 500.7,144.4 501.0,144.4 501.2,144.4 501.5,144.4 501.7,144.4 502.0,144.4 502.2,144.4 502.5,144.4 502.7,144.4 503.0,144.4 503.3,144.4 503.5,144.4 503.8,144.4 504.0,144.4 504.3,144.4 504.5,144.4 504.8,144.4 505.0,144.4 505.3,144.4 505.5,144.4 505.8,144.4 506.1,144.4 506.3,144.4 506.6,144.4 506.8,144.4 507.1,144.4 507.3,144.4 507.6,144.4 507.8,144.4 508.1,144.4 508.3,144.4 508.6,144.4 508.9,144.4 509.1,144.4 509.4,144.4 509.6,144.4 509.9,144.4 510.1,144.4 510.4,144.4 510.6,144.4 510.9,144.4 511.1,144.4 511.4,144.4 511.6,144.4 511.9,144.4 512.2,144.4 512.4,144.4 512.7,144.4 512.9,144.4 513.2,144.4 513.4,144.4 513.7,144.4 513.9,144.4 514.2,144.4 514.4,144.4 514.7,144.4 515.0,144.4 515.2,136.6 515.5,136.6 515.7,136.6 516.0,136.6 516.2,136.6 516.5,136.6 516.7,136.6 517.0,136.6 517.2,136.6 517.5,136.6 517.8,136.6 518.0,136.6 518.3,136.6 518.5,136.6 518.8,136.6 519.0,136.6 519.3,136.6 519.5,136.6 519.8,136.6 520.0,136.6 520.3,136.6 520.6,136.6 520.8,136.6 521.1,136.6 521.3,136.6 521.6,136.6 521.8,136.6 522.1,136.6 522.3,136.6 522.6,136.6 522.8,136.6 523.1,136.6 523.3,136.6 523.6,136.6 523.9,136.6 524.1,136.6 524.4,136.6 524.6,136.6 524.9,136.6 525.1,136.6 525.4,136.6 525.6,136.6 525.9,136.6 526.1,136.6 526.4,136.6 526.7,136.6 526.9,136.6 527.2,136.6 527.4,136.6 527.7,136.6 527.9,136.6 528.2,136.6 528.4,136.6 528.7,136.6 528.9,136.6 529.2,136.6 529.5,136.6 529.7,136.6 530.0,136.6 530.2,136.6 530.5,136.6 530.7,136.6 531.0,136.6 531.2,136.6 531.5,136.6 531.7,136.6 532.0,136.6 532.3,136.6 532.5,136.6 532.8,136.6 533.0,136.6 533.3,136.6 533.5,136.6 533.8,136.6 534.0,136.6 534.3,136.6 534.5,136.6 534.8,136.6 535.0,136.6 535.3,136.6 535.6,136.6 535.8,136.6 536.1,136.6 536.3,136.6 536.6,136.6 536.8,136.6 537.1,136.6 537.3,136.6 537.6,136.6 537.8,136.6 538.1,136.6 538.4,136.6 538.6,136.6 538.9,136.6 539.1,136.6 539.4,136.6 539.6,136.6 539.9,136.6 540.1,136.6 540.4,136.6 540.6,136.6 540.9,136.6 541.2,136.6 541.4,136.6 541.7,136.6 541.9,136.6 542.2,136.6 542.4,136.6 542.7,136.6 542.9,136.6 543.2,136.6 543.4,136.6 543.7,136.6 543.9,136.6 544.2,136.6 544.5,136.6 544.7,136.6 545.0,136.6 545.2,136.6 545.5,136.6 545.7,128.3 546.0,128.3 546.2,128.3 546.5,128.3 546.7,128.3 547.0,128.3 547.3,128.3 547.5,128.3 547.8,128.3 548.0,128.3 548.3,128.3 548.5,128.3 548.8,128.3 549.0,128.3 549.3,128.3 549.5,128.3 549.8,128.3 550.1,128.3 550.3,128.3 550.6,128.3 550.8,128.3 551.1,128.3 551.3,128.3 551.6,128.3 551.8,128.3 552.1,128.3 552.3,128.3 552.6,128.3 552.9,128.3 553.1,128.3 553.4,128.3 553.6,128.3 553.9,128.3 554.1,128.3 554.4,128.3 554.6,128.3 554.9,128.3 555.1,128.3 555.4,128.3 555.6,128.3 555.9,128.3 556.2,128.3 556.4,128.3 556.7,128.3 556.9,128.3 557.2,128.3 557.4,128.3 557.7,128.3 557.9,128.3 558.2,128.3 558.4,128.3 558.7,128.3 559.0,128.3 559.2,128.3 559.5,128.3 559.7,128.3 560.0,128.3 560.2,128.3 560.5,128.3 560.7,128.3 561.0,128.3 561.2,128.3 561.5,128.3 561.8,128.3 562.0,128.3 562.3,128.3 562.5,128.3 562.8,128.3 563.0,128.3 563.3,128.3 563.5,128.3 563.8,128.3 564.0,128.3 564.3,128.3 564.6,128.3 564.8,128.3 565.1,128.3 565.3,128.3 565.6,128.3 565.8,128.3 566.1,128.3 566.3,128.3 566.6,128.3 566.8,128.3 567.1,128.3 567.3,128.3 567.6,128.3 567.9,128.3 568.1,128.3 568.4,128.3 568.6,128.3 568.9,128.3 569.1,128.3 569.4,128.3 569.6,128.3 569.9,128.3 570.1,128.3 570.4,128.3 570.7,128.3 570.9,128.3 571.2,128.3 571.4,128.3 571.7,128.3 571.9,128.3 572.2,128.3 572.4,128.3 572.7,128.3 572.9,128.3 573.2,128.3 573.5,128.3 573.7,128.3 574.0,128.3 574.2,128.3 574.5,128.3 574.7,128.3 575.0,128.3 575.2,128.3 575.5,128.3 575.7,128.3 576.0,128.3 576.3,128.3 576.5,128.3 576.8,128.3 577.0,128.3 577.3,128.3 577.5,118.1 577.8,118.1 578.0,118.1 578.3,118.1 578.5,118.1 578.8,118.1 579.0,118.1 579.3,118.1 579.6,118.1 579.8,118.1 580.1,118.1 580.3,118.1 580.6,118.1 580.8,118.1 581.1,118.1 581.3,118.1 581.6,118.1 581.8,118.1 582.1,118.1 582.4,118.1 582.6,118.1 582.9,118.1 583.1,118.1 583.4,118.1 583.6,118.1 583.9,118.1 584.1,118.1 584.4,118.1 584.6,118.1 584.9,118.1 585.2,118.1 585.4,118.1 585.7,118.1 585.9,118.1 586.2,118.1 586.4,118.1 586.7,118.1 586.9,118.1 587.2,118.1 587.4,118.1 587.7,118.1 588.0,118.1 588.2,118.1 588.5,118.1 588.7,118.1 589.0,118.1 589.2,118.1 589.5,118.1 589.7,118.1 590.0,118.1 590.2,118.1 590.5,118.1 590.7,118.1 591.0,118.1 591.3,118.1 591.5,118.1 591.8,118.1 592.0,118.1 592.3,118.1 592.5,118.1 592.8,118.1 593.0,118.1 593.3,118.1 593.5,118.1 593.8,118.1 594.1,118.1 594.3,118.1 594.6,118.1 594.8,118.1 595.1,118.1 595.3,118.1 595.6,118.1 595.8,118.1 596.1,118.1 596.3,118.1 596.6,118.1 596.9,118.1 597.1,118.1 597.4,118.1 597.6,118.1 597.9,118.1 598.1,118.1 598.4,118.1 598.6,118.1 598.9,118.1 599.1,118.1 599.4,118.1 599.7,118.1 599.9,118.1 600.2,118.1 600.4,118.1 600.7,118.1 600.9,118.1 601.2,118.1 601.4,118.1 601.7,118.1 601.9,118.1 602.2,118.1 602.4,118.1 602.7,118.1 603.0,118.1 603.2,118.1 603.5,118.1 603.7,118.1 604.0,118.1 604.2,118.1 604.5,118.1 604.7,118.1 605.0,118.1 605.2,118.1 605.5,118.1 605.8,118.1 606.0,118.1 606.3,118.1 606.5,118.1 606.8,118.1 607.0,118.1 607.3,118.1 607.5,118.1 607.8,112.0 608.0,112.0 608.3,112.0 608.6,112.0 608.8,112.0 609.1,112.0 609.3,112.0 609.6,112.0 609.8,112.0 610.1,112.0 610.3,112.0 610.6,112.0 610.8,112.0 611.1,112.0 611.3,112.0 611.6,112.0 611.9,112.0 612.1,112.0 612.4,112.0 612.6,112.0 612.9,112.0 613.1,112.0 613.4,112.0 613.6,112.0 613.9,112.0 614.1,112.0 614.4,112.0 614.7,112.0 614.9,112.0 615.2,112.0 615.4,112.0 615.7,112.0 615.9,112.0 616.2,112.0 616.4,112.0 616.7,112.0 616.9,112.0 617.2,112.0 617.5,112.0 617.7,112.0 618.0,112.0 618.2,112.0 618.5,112.0 618.7,112.0 619.0,112.0 619.2,112.0 619.5,112.0 619.7,112.0 620.0,112.0 620.3,112.0 620.5,112.0 620.8,112.0 621.0,112.0 621.3,112.0 621.5,112.0 621.8,112.0 622.0,112.0 622.3,112.0 622.5,112.0 622.8,112.0 623.0,112.0 623.3,112.0 623.6,112.0 623.8,112.0 624.1,112.0 624.3,112.0 624.6,112.0 624.8,112.0 625.1,112.0 625.3,112.0 625.6,112.0 625.8,112.0 626.1,112.0 626.4,112.0 626.6,112.0 626.9,112.0 627.1,112.0 627.4,112.0 627.6,112.0 627.9,112.0 628.1,112.0 628.4,112.0 628.6,112.0 628.9,112.0 629.2,112.0 629.4,112.0 629.7,112.0 629.9,112.0 630.2,112.0 630.4,112.0 630.7,112.0 630.9,112.0 631.2,112.0 631.4,112.0 631.7,112.0 632.0,112.0 632.2,112.0 632.5,112.0 632.7,112.0 633.0,112.0 633.2,112.0 633.5,112.0 633.7,112.0 634.0,112.0 634.2,112.0 634.5,112.0 634.7,112.0 635.0,112.0 635.3,112.0 635.5,112.0 635.8,112.0 636.0,112.0 636.3,112.0 636.5,112.0 636.8,112.0 637.0,112.0 637.3,112.0 637.5,112.0 637.8,112.0 638.1,112.0 638.3,112.0 638.6,112.0 638.8,112.0 639.1,112.0 639.3,112.0 639.6,112.0 639.8,104.2 640.1,104.2 640.3,104.2 640.6,104.2 640.9,104.2 641.1,104.2 641.4,104.2 641.6,104.2 641.9,104.2 642.1,104.2 642.4,104.2 642.6,104.2 642.9,104.2 643.1,104.2 643.4,104.2 643.7,104.2 643.9,104.2 644.2,104.2 644.4,104.2 644.7,104.2 644.9,104.2 645.2,104.2 645.4,104.2 645.7,104.2 645.9,104.2 646.2,104.2 646.4,104.2 646.7,104.2 647.0,104.2 647.2,104.2 647.5,104.2 647.7,104.2 648.0,104.2 648.2,104.2 648.5,104.2 648.7,104.2 649.0,104.2 649.2,104.2 649.5,104.2 649.8,104.2 650.0,104.2 650.3,104.2 650.5,104.2 650.8,104.2 651.0,104.2 651.3,104.2 651.5,104.2 651.8,104.2 652.0,104.2 652.3,104.2 652.6,104.2 652.8,104.2 653.1,104.2 653.3,104.2 653.6,104.2 653.8,104.2 654.1,104.2 654.3,104.2 654.6,104.2 654.8,104.2 655.1,104.2 655.4,104.2 655.6,104.2 655.9,104.2 656.1,104.2 656.4,104.2 656.6,104.2 656.9,104.2 657.1,104.2 657.4,104.2 657.6,104.2 657.9,104.2 658.1,104.2 658.4,104.2 658.7,104.2 658.9,104.2 659.2,104.2 659.4,104.2 659.7,104.2 659.9,104.2 660.2,104.2 660.4,104.2 660.7,104.2 660.9,104.2 661.2,104.2 661.5,104.2 661.7,104.2 662.0,104.2 662.2,104.2 662.5,104.2 662.7,104.2 663.0,104.2 663.2,104.2 663.5,104.2 663.7,104.2 664.0,104.2 664.3,104.2 664.5,104.2 664.8,104.2 665.0,104.2 665.3,104.2 665.5,104.2 665.8,104.2 666.0,104.2 666.3,104.2 666.5,104.2 666.8,104.2 667.0,104.2 667.3,104.2 667.6,104.2 667.8,104.2 668.1,104.2 668.3,104.2 668.6,104.2 668.8,104.2 669.1,104.2 669.3,104.2 669.6,104.2 669.8,104.2 670.1,91.5 670.4,91.5 670.6,91.5 670.9,91.5 671.1,91.5 671.4,91.5 671.6,91.5 671.9,91.5 672.1,91.5 672.4,91.5 672.6,91.5 672.9,91.5 673.2,91.5 673.4,91.5 673.7,91.5 673.9,91.5 674.2,91.5 674.4,91.5 674.7,91.5 674.9,91.5 675.2,91.5 675.4,91.5 675.7,91.5 676.0,91.5 676.2,91.5 676.5,91.5 676.7,91.5 677.0,91.5 677.2,91.5 677.5,91.5 677.7,91.5 678.0,91.5 678.2,91.5 678.5,91.5 678.7,91.5 679.0,91.5 679.3,91.5 679.5,91.5 679.8,91.5 680.0,91.5 680.3,91.5 680.5,91.5 680.8,91.5 681.0,91.5 681.3,91.5 681.5,91.5 681.8,91.5 682.1,91.5 682.3,91.5 682.6,91.5 682.8,91.5 683.1,91.5 683.3,91.5 683.6,91.5 683.8,91.5 684.1,91.5 684.3,91.5 684.6,91.5 684.9,91.5 685.1,91.5 685.4,91.5 685.6,91.5 685.9,91.5 686.1,91.5 686.4,91.5 686.6,91.5 686.9,91.5 687.1,91.5 687.4,91.5 687.7,91.5 687.9,91.5 688.2,91.5 688.4,91.5 688.7,91.5 688.9,91.5 689.2,91.5 689.4,91.5 689.7,91.5 689.9,91.5 690.2,91.5 690.4,91.5 690.7,91.5 691.0,91.5 691.2,91.5 691.5,91.5 691.7,91.5 692.0,91.5 692.2,91.5 692.5,91.5 692.7,91.5 693.0,91.5 693.2,91.5 693.5,91.5 693.8,91.5 694.0,91.5 694.3,91.5 694.5,91.5 694.8,91.5 695.0,91.5 695.3,91.5 695.5,91.5 695.8,91.5 696.0,91.5 696.3,91.5 696.6,91.5 696.8,91.5 697.1,91.5 697.3,91.5 697.6,91.5 697.8,91.5 698.1,91.5 698.3,91.5 698.6,91.5 698.8,91.5 699.1,91.5 699.4,91.5 699.6,91.5 699.9,91.5 700.1,91.5 700.4,91.5 700.6,91.5 700.9,91.5 701.1,91.5 701.4,91.5 701.6,91.5 701.9,84.6 702.1,84.6 702.4,84.6 702.7,84.6 702.9,84.6 703.2,84.6 703.4,84.6 703.7,84.6 703.9,84.6 704.2,84.6 704.4,84.6 704.7,84.6 704.9,84.6 705.2,84.6 705.5,84.6 705.7,84.6 706.0,84.6 706.2,84.6 706.5,84.6 706.7,84.6 707.0,84.6 707.2,84.6 707.5,84.6 707.7,84.6 708.0,84.6 708.3,84.6 708.5,84.6 708.8,84.6 709.0,84.6 709.3,84.6 709.5,84.6 709.8,84.6 710.0,84.6 710.3,84.6 710.5,84.6 710.8,84.6 711.1,84.6 711.3,84.6 711.6,84.6 711.8,84.6 712.1,84.6 712.3,84.6 712.6,84.6 712.8,84.6 713.1,84.6 713.3,84.6 713.6,84.6 713.8,84.6 714.1,84.6 714.4,84.6 714.6,84.6 714.9,84.6 715.1,84.6 715.4,84.6 715.6,84.6 715.9,84.6 716.1,84.6 716.4,84.6 716.6,84.6 716.9,84.6 717.2,84.6 717.4,84.6 717.7,84.6 717.9,84.6 718.2,84.6 718.4,84.6 718.7,84.6 718.9,84.6 719.2,84.6 719.4,84.6 719.7,84.6 720.0,84.6 720.2,84.6 720.5,84.6 720.7,84.6 721.0,84.6 721.2,84.6 721.5,84.6 721.7,84.6 722.0,84.6 722.2,84.6 722.5,84.6 722.8,84.6 723.0,84.6 723.3,84.6 723.5,84.6 723.8,84.6 724.0,84.6 724.3,84.6 724.5,84.6 724.8,84.6 725.0,84.6 725.3,84.6 725.5,84.6 725.8,84.6 726.1,84.6 726.3,84.6 726.6,84.6 726.8,84.6 727.1,84.6 727.3,84.6 727.6,84.6 727.8,84.6 728.1,84.6 728.3,84.6 728.6,84.6 728.9,84.6 729.1,84.6 729.4,84.6 729.6,84.6 729.9,84.6 730.1,84.6 730.4,84.6 730.6,84.6 730.9,84.6 731.1,84.6 731.4,84.6 731.7,84.6 731.9,84.6 732.2,76.5 732.4,76.5 732.7,76.5 732.9,76.5 733.2,76.5 733.4,76.5 733.7,76.5 733.9,76.5 734.2,76.5 734.4,76.5 734.7,76.5 735.0,76.5 735.2,76.5 735.5,76.5 735.7,76.5 736.0,76.5 736.2,76.5 736.5,76.5 736.7,76.5 737.0,76.5 737.2,76.5 737.5,76.5 737.8,76.5 738.0,76.5 738.3,76.5 738.5,76.5 738.8,76.5 739.0,76.5 739.3,76.5 739.5,76.5 739.8,76.5 740.0,76.5 740.3,76.5 740.6,76.5 740.8,76.5 741.1,76.5 741.3,76.5 741.6,76.5 741.8,76.5 742.1,76.5 742.3,76.5 742.6,76.5 742.8,76.5 743.1,76.5 743.4,76.5 743.6,76.5 743.9,76.5 744.1,76.5 744.4,76.5 744.6,76.5 744.9,76.5 745.1,76.5 745.4,76.5 745.6,76.5 745.9,76.5 746.1,76.5 746.4,76.5 746.7,76.5 746.9,76.5 747.2,76.5 747.4,76.5 747.7,76.5 747.9,76.5 748.2,76.5 748.4,76.5 748.7,76.5 748.9,76.5 749.2,76.5 749.5,76.5 749.7,76.5 750.0,76.5 750.2,76.5 750.5,76.5 750.7,151.0 751.0,151.0 751.2,151.0 751.5,151.0 751.7,151.0 752.0,151.0 752.3,151.0 752.5,151.0 752.8,151.0 753.0,151.0 753.3,151.0 753.5,151.0 753.8,151.0 754.0,151.0 754.3,151.0 754.5,151.0 754.8,151.0 755.1,151.0 755.3,151.0 755.6,151.0 755.8,151.0 756.1,151.0 756.3,151.0 756.6,151.0 756.8,151.0 757.1,151.0 757.3,151.0 757.6,151.0 757.8,151.0 758.1,151.0 758.4,151.0 758.6,151.0 758.9,151.0 759.1,151.0 759.4,151.0 759.6,151.0 759.9,151.0 760.1,151.0 760.4,151.0 760.6,151.0 760.9,151.0 761.2,151.0 761.4,151.0 761.7,151.0 761.9,151.0 762.2,151.0 762.4,151.0 762.7,151.0 762.9,151.0 763.2,151.0 763.4,151.0 763.7,144.3 764.0,144.3 764.2,144.3 764.5,144.3 764.7,144.3 765.0,144.3 765.2,144.3 765.5,144.3 765.7,144.3 766.0,144.3 766.2,144.3 766.5,144.3 766.8,144.3 767.0,144.3 767.3,144.3 767.5,144.3 767.8,144.3 768.0,144.3 768.3,144.3 768.5,144.3 768.8,144.3 769.0,144.3 769.3,144.3 769.5,144.3 769.8,144.3 770.1,144.3 770.3,144.3 770.6,144.3 770.8,144.3 771.1,144.3 771.3,144.3 771.6,144.3 771.8,144.3 772.1,144.3 772.3,144.3 772.6,144.3 772.9,144.3 773.1,144.3 773.4,144.3 773.6,144.3 773.9,144.3 774.1,144.3 774.4,144.3 774.6,144.3 774.9,144.3 775.1,144.3 775.4,144.3 775.7,144.3 775.9,144.3 776.2,144.3 776.4,144.3 776.7,144.3 776.9,144.3 777.2,144.3 777.4,144.3 777.7,144.3 777.9,144.3 778.2,144.3 778.5,144.3 778.7,144.3 779.0,144.3 779.2,144.3 779.5,144.3 779.7,144.3 780.0,144.3 780.2,144.3 780.5,144.3 780.7,144.3 781.0,144.3 781.2,144.3 781.5,144.3 781.8,144.3 782.0,144.3 782.3,144.3 782.5,144.3 782.8,144.3 783.0,144.3 783.3,144.3 783.5,144.3 783.8,144.3 784.0,144.3 784.3,144.3 784.6,144.3 784.8,144.3 785.1,144.3 785.3,144.3 785.6,144.3 785.8,144.3 786.1,144.3 786.3,144.3 786.6,144.3 786.8,144.3 787.1,144.3 787.4,144.3 787.6,144.3 787.9,144.3 788.1,144.3 788.4,144.3 788.6,144.3 788.9,144.3 789.1,144.3 789.4,144.3 789.6,144.3 789.9,144.3 790.2,144.3 790.4,144.3 790.7,144.3 790.9,144.3 791.2,144.3 791.4,144.3 791.7,144.3 791.9,144.3 792.2,144.3 792.4,144.3 792.7,144.3 792.9,144.3 793.2,144.3 793.5,144.3 793.7,144.3 794.0,144.3 794.2,144.3 794.5,144.3 794.7,144.3 795.0,132.2 795.2,132.2 795.5,132.2 795.7,132.2 796.0,132.2"/><polyline fill="none" stroke="#16a34a" stroke-width="3" points="78.0,317.5 78.3,317.5 78.5,317.5 78.8,317.5 79.0,317.5 79.3,317.5 79.5,317.5 79.8,317.5 80.0,317.5 80.3,317.5 80.5,317.5 80.8,317.5 81.1,317.5 81.3,317.5 81.6,317.5 81.8,317.5 82.1,317.5 82.3,317.5 82.6,317.5 82.8,317.5 83.1,317.5 83.3,317.5 83.6,317.5 83.8,317.5 84.1,317.5 84.4,317.5 84.6,317.5 84.9,317.5 85.1,317.5 85.4,317.5 85.6,317.5 85.9,317.5 86.1,317.5 86.4,317.5 86.6,317.5 86.9,317.5 87.2,317.5 87.4,317.5 87.7,317.5 87.9,317.5 88.2,317.5 88.4,317.5 88.7,317.5 88.9,317.5 89.2,317.5 89.4,317.5 89.7,317.5 90.0,317.5 90.2,317.5 90.5,317.5 90.7,317.5 91.0,317.5 91.2,317.5 91.5,317.5 91.7,317.5 92.0,317.5 92.2,317.5 92.5,317.5 92.8,317.5 93.0,317.5 93.3,317.5 93.5,317.5 93.8,317.5 94.0,317.5 94.3,317.5 94.5,317.5 94.8,317.5 95.0,317.5 95.3,317.5 95.5,317.5 95.8,317.5 96.1,317.5 96.3,317.5 96.6,317.5 96.8,317.5 97.1,317.5 97.3,317.5 97.6,317.5 97.8,317.5 98.1,317.5 98.3,317.5 98.6,317.5 98.9,317.5 99.1,317.5 99.4,317.5 99.6,317.5 99.9,317.5 100.1,317.5 100.4,317.5 100.6,317.5 100.9,317.5 101.1,317.5 101.4,317.5 101.7,317.5 101.9,317.5 102.2,317.5 102.4,317.5 102.7,317.5 102.9,317.5 103.2,317.5 103.4,317.5 103.7,317.5 103.9,317.5 104.2,317.5 104.5,317.5 104.7,317.5 105.0,317.5 105.2,317.5 105.5,317.5 105.7,317.5 106.0,317.5 106.2,317.5 106.5,317.5 106.7,317.5 107.0,317.5 107.2,317.5 107.5,317.5 107.8,317.5 108.0,317.5 108.3,317.5 108.5,317.5 108.8,317.5 109.0,317.5 109.3,317.5 109.5,317.5 109.8,317.5 110.0,317.5 110.3,317.5 110.6,317.5 110.8,317.5 111.1,317.5 111.3,317.5 111.6,317.5 111.8,317.5 112.1,317.5 112.3,317.5 112.6,317.5 112.8,317.5 113.1,317.5 113.4,317.5 113.6,317.5 113.9,317.5 114.1,317.5 114.4,317.5 114.6,317.5 114.9,317.5 115.1,317.5 115.4,317.5 115.6,317.5 115.9,317.5 116.2,317.5 116.4,317.5 116.7,317.5 116.9,317.5 117.2,317.5 117.4,317.5 117.7,317.5 117.9,317.5 118.2,317.5 118.4,317.5 118.7,317.5 118.9,317.5 119.2,317.5 119.5,317.5 119.7,317.5 120.0,317.5 120.2,317.5 120.5,317.5 120.7,317.5 121.0,317.5 121.2,317.5 121.5,317.5 121.7,317.5 122.0,317.5 122.3,317.5 122.5,317.5 122.8,317.5 123.0,317.5 123.3,317.5 123.5,317.5 123.8,317.5 124.0,317.5 124.3,317.5 124.5,317.5 124.8,317.5 125.1,317.5 125.3,317.5 125.6,317.5 125.8,317.5 126.1,317.5 126.3,317.5 126.6,317.5 126.8,317.5 127.1,317.5 127.3,317.5 127.6,317.5 127.9,317.5 128.1,317.5 128.4,317.5 128.6,317.5 128.9,317.5 129.1,317.5 129.4,317.5 129.6,317.5 129.9,317.5 130.1,317.5 130.4,317.5 130.6,317.5 130.9,317.5 131.2,317.5 131.4,317.5 131.7,317.5 131.9,317.5 132.2,317.5 132.4,317.5 132.7,317.5 132.9,317.5 133.2,317.5 133.4,317.5 133.7,317.5 134.0,317.5 134.2,317.5 134.5,317.5 134.7,317.5 135.0,317.5 135.2,317.5 135.5,317.5 135.7,317.5 136.0,317.5 136.2,317.5 136.5,317.5 136.8,317.5 137.0,317.5 137.3,317.5 137.5,317.5 137.8,317.5 138.0,317.5 138.3,317.5 138.5,317.5 138.8,317.5 139.0,275.1 139.3,275.1 139.6,275.1 139.8,275.1 140.1,275.1 140.3,275.1 140.6,275.1 140.8,275.1 141.1,275.1 141.3,275.1 141.6,275.1 141.8,275.1 142.1,275.1 142.3,275.1 142.6,275.1 142.9,275.1 143.1,275.1 143.4,275.1 143.6,275.1 143.9,275.1 144.1,275.1 144.4,275.1 144.6,275.1 144.9,275.1 145.1,275.1 145.4,275.1 145.7,275.1 145.9,275.1 146.2,275.1 146.4,275.1 146.7,275.1 146.9,275.1 147.2,275.1 147.4,275.1 147.7,275.1 147.9,275.1 148.2,275.1 148.5,275.1 148.7,275.1 149.0,275.1 149.2,275.1 149.5,275.1 149.7,275.1 150.0,275.1 150.2,275.1 150.5,275.1 150.7,275.1 151.0,275.1 151.2,275.1 151.5,275.1 151.8,275.1 152.0,275.1 152.3,275.1 152.5,275.1 152.8,275.1 153.0,275.1 153.3,275.1 153.5,275.1 153.8,275.1 154.0,275.1 154.3,275.1 154.6,275.1 154.8,275.1 155.1,275.1 155.3,275.1 155.6,275.1 155.8,275.1 156.1,275.1 156.3,275.1 156.6,275.1 156.8,275.1 157.1,275.1 157.4,275.1 157.6,275.1 157.9,275.1 158.1,275.1 158.4,275.1 158.6,275.1 158.9,275.1 159.1,275.1 159.4,275.1 159.6,275.1 159.9,275.1 160.2,275.1 160.4,275.1 160.7,275.1 160.9,275.1 161.2,275.1 161.4,275.1 161.7,275.1 161.9,275.1 162.2,275.1 162.4,275.1 162.7,275.1 162.9,275.1 163.2,275.1 163.5,275.1 163.7,275.1 164.0,275.1 164.2,275.1 164.5,275.1 164.7,275.1 165.0,275.1 165.2,275.1 165.5,275.1 165.7,275.1 166.0,275.1 166.3,275.1 166.5,275.1 166.8,275.1 167.0,275.1 167.3,275.1 167.5,275.1 167.8,275.1 168.0,275.1 168.3,275.1 168.5,275.1 168.8,275.1 169.1,275.1 169.3,275.1 169.6,275.1 169.8,275.1 170.1,275.1 170.3,275.1 170.6,275.1 170.8,275.1 171.1,275.1 171.3,275.1 171.6,275.1 171.9,275.1 172.1,275.1 172.4,275.1 172.6,275.1 172.9,275.1 173.1,275.1 173.4,275.1 173.6,275.1 173.9,275.1 174.1,275.1 174.4,275.1 174.6,275.1 174.9,275.1 175.2,275.1 175.4,275.1 175.7,275.1 175.9,275.1 176.2,275.1 176.4,275.1 176.7,275.1 176.9,275.1 177.2,275.1 177.4,275.1 177.7,275.1 178.0,275.1 178.2,275.1 178.5,275.1 178.7,275.1 179.0,275.1 179.2,275.1 179.5,275.1 179.7,275.1 180.0,275.1 180.2,275.1 180.5,275.1 180.8,275.1 181.0,275.1 181.3,275.1 181.5,275.1 181.8,275.1 182.0,275.1 182.3,275.1 182.5,275.1 182.8,275.1 183.0,275.1 183.3,275.1 183.6,275.1 183.8,275.1 184.1,275.1 184.3,275.1 184.6,275.1 184.8,275.1 185.1,275.1 185.3,275.1 185.6,275.1 185.8,275.1 186.1,275.1 186.3,275.1 186.6,275.1 186.9,275.1 187.1,275.1 187.4,275.1 187.6,275.1 187.9,275.1 188.1,275.1 188.4,275.1 188.6,275.1 188.9,275.1 189.1,275.1 189.4,275.1 189.7,275.1 189.9,275.1 190.2,275.1 190.4,275.1 190.7,275.1 190.9,275.1 191.2,275.1 191.4,275.1 191.7,275.1 191.9,275.1 192.2,275.1 192.5,275.1 192.7,275.1 193.0,275.1 193.2,275.1 193.5,275.1 193.7,275.1 194.0,275.1 194.2,275.1 194.5,275.1 194.7,275.1 195.0,275.1 195.3,275.1 195.5,275.1 195.8,275.1 196.0,275.1 196.3,275.1 196.5,275.1 196.8,275.1 197.0,275.1 197.3,275.1 197.5,275.1 197.8,275.1 198.0,275.1 198.3,275.1 198.6,275.1 198.8,275.1 199.1,275.1 199.3,275.1 199.6,275.1 199.8,275.1 200.1,275.1 200.3,275.1 200.6,275.1 200.8,275.1 201.1,275.1 201.4,275.1 201.6,275.1 201.9,275.1 202.1,275.1 202.4,275.1 202.6,275.1 202.9,275.1 203.1,275.1 203.4,275.1 203.6,275.1 203.9,275.1 204.2,275.1 204.4,275.1 204.7,275.1 204.9,275.1 205.2,275.1 205.4,275.1 205.7,275.1 205.9,275.1 206.2,275.1 206.4,275.1 206.7,275.1 207.0,275.1 207.2,275.1 207.5,275.1 207.7,275.1 208.0,275.1 208.2,275.1 208.5,275.1 208.7,275.1 209.0,275.1 209.2,275.1 209.5,275.1 209.7,275.1 210.0,275.1 210.3,275.1 210.5,275.1 210.8,275.1 211.0,275.1 211.3,275.1 211.5,275.1 211.8,275.1 212.0,275.1 212.3,275.1 212.5,275.1 212.8,275.1 213.1,275.1 213.3,275.1 213.6,275.1 213.8,275.1 214.1,275.1 214.3,275.1 214.6,275.1 214.8,275.1 215.1,275.1 215.3,275.1 215.6,275.1 215.9,275.1 216.1,275.1 216.4,275.1 216.6,275.1 216.9,275.1 217.1,275.1 217.4,275.1 217.6,275.1 217.9,275.1 218.1,275.1 218.4,275.1 218.6,275.1 218.9,275.1 219.2,275.1 219.4,275.1 219.7,275.1 219.9,275.1 220.2,275.1 220.4,275.1 220.7,275.1 220.9,275.1 221.2,275.1 221.4,275.1 221.7,275.1 222.0,275.1 222.2,275.1 222.5,275.1 222.7,275.1 223.0,275.1 223.2,275.1 223.5,275.1 223.7,275.1 224.0,275.1 224.2,275.1 224.5,275.1 224.8,275.1 225.0,275.1 225.3,275.1 225.5,275.1 225.8,275.1 226.0,275.1 226.3,275.1 226.5,275.1 226.8,275.1 227.0,275.1 227.3,275.1 227.6,275.1 227.8,275.1 228.1,275.1 228.3,275.1 228.6,275.1 228.8,275.1 229.1,275.1 229.3,275.1 229.6,275.1 229.8,275.1 230.1,275.1 230.3,275.1 230.6,275.1 230.9,275.1 231.1,275.1 231.4,275.1 231.6,275.1 231.9,275.1 232.1,275.1 232.4,275.1 232.6,275.1 232.9,275.1 233.1,275.1 233.4,275.1 233.7,275.1 233.9,275.1 234.2,275.1 234.4,275.1 234.7,275.1 234.9,275.1 235.2,275.1 235.4,275.1 235.7,275.1 235.9,275.1 236.2,275.1 236.5,275.1 236.7,275.1 237.0,275.1 237.2,275.1 237.5,275.1 237.7,275.1 238.0,275.1 238.2,275.1 238.5,275.1 238.7,275.1 239.0,275.1 239.3,275.1 239.5,275.1 239.8,275.1 240.0,275.1 240.3,275.1 240.5,275.1 240.8,275.1 241.0,275.1 241.3,275.1 241.5,275.1 241.8,275.1 242.0,275.1 242.3,275.1 242.6,275.1 242.8,275.1 243.1,275.1 243.3,275.1 243.6,275.1 243.8,275.1 244.1,275.1 244.3,275.1 244.6,275.1 244.8,275.1 245.1,275.1 245.4,275.1 245.6,275.1 245.9,275.1 246.1,275.1 246.4,275.1 246.6,275.1 246.9,275.1 247.1,275.1 247.4,275.1 247.6,275.1 247.9,275.1 248.2,275.1 248.4,275.1 248.7,275.1 248.9,275.1 249.2,275.1 249.4,275.1 249.7,275.1 249.9,275.1 250.2,275.1 250.4,275.1 250.7,275.1 251.0,275.1 251.2,275.1 251.5,275.1 251.7,275.1 252.0,275.1 252.2,275.1 252.5,275.1 252.7,275.1 253.0,275.1 253.2,275.1 253.5,275.1 253.7,275.1 254.0,275.1 254.3,275.1 254.5,275.1 254.8,275.1 255.0,275.1 255.3,275.1 255.5,275.1 255.8,275.1 256.0,275.1 256.3,275.1 256.5,275.1 256.8,275.1 257.1,275.1 257.3,275.1 257.6,275.1 257.8,275.1 258.1,275.1 258.3,275.1 258.6,275.1 258.8,275.1 259.1,275.1 259.3,275.1 259.6,275.1 259.9,275.1 260.1,275.1 260.4,275.1 260.6,275.1 260.9,275.1 261.1,275.1 261.4,275.1 261.6,275.1 261.9,275.1 262.1,275.1 262.4,275.1 262.7,275.1 262.9,275.1 263.2,275.1 263.4,275.1 263.7,275.1 263.9,275.1 264.2,275.1 264.4,275.1 264.7,275.1 264.9,275.1 265.2,275.1 265.4,275.1 265.7,275.1 266.0,275.1 266.2,275.1 266.5,275.1 266.7,275.1 267.0,275.1 267.2,275.1 267.5,275.1 267.7,275.1 268.0,275.1 268.2,275.1 268.5,275.1 268.8,275.1 269.0,275.1 269.3,275.1 269.5,275.1 269.8,275.1 270.0,275.1 270.3,275.1 270.5,275.1 270.8,275.1 271.0,275.1 271.3,275.1 271.6,275.1 271.8,275.1 272.1,275.1 272.3,275.1 272.6,275.1 272.8,275.1 273.1,275.1 273.3,275.1 273.6,275.1 273.8,275.1 274.1,275.1 274.3,275.1 274.6,275.1 274.9,275.1 275.1,275.1 275.4,275.1 275.6,275.1 275.9,221.2 276.1,221.2 276.4,221.2 276.6,221.2 276.9,221.2 277.1,221.2 277.4,221.2 277.7,221.2 277.9,221.2 278.2,221.2 278.4,221.2 278.7,221.2 278.9,221.2 279.2,221.2 279.4,221.2 279.7,221.2 279.9,221.2 280.2,221.2 280.5,221.2 280.7,221.2 281.0,221.2 281.2,221.2 281.5,221.2 281.7,221.2 282.0,221.2 282.2,221.2 282.5,221.2 282.7,221.2 283.0,221.2 283.3,221.2 283.5,221.2 283.8,221.2 284.0,221.2 284.3,221.2 284.5,221.2 284.8,221.2 285.0,221.2 285.3,221.2 285.5,221.2 285.8,221.2 286.0,221.2 286.3,221.2 286.6,221.2 286.8,221.2 287.1,221.2 287.3,221.2 287.6,221.2 287.8,221.2 288.1,221.2 288.3,221.2 288.6,221.2 288.8,221.2 289.1,221.2 289.4,221.2 289.6,221.2 289.9,221.2 290.1,221.2 290.4,221.2 290.6,221.2 290.9,221.2 291.1,221.2 291.4,221.2 291.6,221.2 291.9,221.2 292.2,221.2 292.4,221.2 292.7,221.2 292.9,221.2 293.2,221.2 293.4,221.2 293.7,221.2 293.9,221.2 294.2,221.2 294.4,221.2 294.7,221.2 295.0,221.2 295.2,221.2 295.5,221.2 295.7,221.2 296.0,221.2 296.2,221.2 296.5,221.2 296.7,221.2 297.0,221.2 297.2,221.2 297.5,221.2 297.7,221.2 298.0,221.2 298.3,221.2 298.5,221.2 298.8,221.2 299.0,221.2 299.3,221.2 299.5,221.2 299.8,221.2 300.0,221.2 300.3,221.2 300.5,221.2 300.8,221.2 301.1,221.2 301.3,221.2 301.6,221.2 301.8,221.2 302.1,221.2 302.3,221.2 302.6,221.2 302.8,221.2 303.1,221.2 303.3,221.2 303.6,221.2 303.9,221.2 304.1,221.2 304.4,221.2 304.6,221.2 304.9,221.2 305.1,221.2 305.4,221.2 305.6,221.2 305.9,221.2 306.1,221.2 306.4,221.2 306.7,221.2 306.9,221.2 307.2,221.2 307.4,221.2 307.7,221.2 307.9,221.2 308.2,221.2 308.4,221.2 308.7,221.2 308.9,221.2 309.2,221.2 309.4,221.2 309.7,221.2 310.0,221.2 310.2,221.2 310.5,221.2 310.7,221.2 311.0,221.2 311.2,221.2 311.5,221.2 311.7,221.2 312.0,221.2 312.2,221.2 312.5,221.2 312.8,221.2 313.0,221.2 313.3,221.2 313.5,221.2 313.8,221.2 314.0,221.2 314.3,221.2 314.5,221.2 314.8,221.2 315.0,221.2 315.3,221.2 315.6,221.2 315.8,221.2 316.1,221.2 316.3,221.2 316.6,221.2 316.8,221.2 317.1,221.2 317.3,221.2 317.6,221.2 317.8,221.2 318.1,221.2 318.4,221.2 318.6,221.2 318.9,221.2 319.1,221.2 319.4,221.2 319.6,221.2 319.9,221.2 320.1,221.2 320.4,221.2 320.6,221.2 320.9,221.2 321.1,221.2 321.4,221.2 321.7,221.2 321.9,221.2 322.2,221.2 322.4,221.2 322.7,221.2 322.9,221.2 323.2,221.2 323.4,221.2 323.7,221.2 323.9,221.2 324.2,221.2 324.5,221.2 324.7,221.2 325.0,221.2 325.2,221.2 325.5,221.2 325.7,221.2 326.0,221.2 326.2,221.2 326.5,221.2 326.7,221.2 327.0,221.2 327.3,221.2 327.5,221.2 327.8,221.2 328.0,221.2 328.3,221.2 328.5,221.2 328.8,221.2 329.0,221.2 329.3,221.2 329.5,221.2 329.8,221.2 330.1,221.2 330.3,221.2 330.6,221.2 330.8,221.2 331.1,221.2 331.3,221.2 331.6,221.2 331.8,221.2 332.1,221.2 332.3,221.2 332.6,221.2 332.8,221.2 333.1,221.2 333.4,221.2 333.6,221.2 333.9,221.2 334.1,221.2 334.4,221.2 334.6,221.2 334.9,221.2 335.1,221.2 335.4,221.2 335.6,221.2 335.9,221.2 336.2,221.2 336.4,221.2 336.7,221.2 336.9,221.2 337.2,221.2 337.4,221.2 337.7,221.2 337.9,221.2 338.2,221.2 338.4,221.2 338.7,221.2 339.0,221.2 339.2,221.2 339.5,221.2 339.7,221.2 340.0,221.2 340.2,221.2 340.5,221.2 340.7,221.2 341.0,221.2 341.2,221.2 341.5,221.2 341.7,221.2 342.0,221.2 342.3,221.2 342.5,221.2 342.8,221.2 343.0,221.2 343.3,221.2 343.5,221.2 343.8,221.2 344.0,221.2 344.3,221.2 344.5,221.2 344.8,221.2 345.1,221.2 345.3,221.2 345.6,221.2 345.8,221.2 346.1,221.2 346.3,221.2 346.6,221.2 346.8,221.2 347.1,221.2 347.3,221.2 347.6,221.2 347.9,221.2 348.1,221.2 348.4,221.2 348.6,221.2 348.9,221.2 349.1,221.2 349.4,221.2 349.6,221.2 349.9,221.2 350.1,221.2 350.4,221.2 350.7,221.2 350.9,221.2 351.2,221.2 351.4,221.2 351.7,221.2 351.9,221.2 352.2,221.2 352.4,221.2 352.7,221.2 352.9,221.2 353.2,221.2 353.4,221.2 353.7,221.2 354.0,221.2 354.2,221.2 354.5,221.2 354.7,221.2 355.0,221.2 355.2,221.2 355.5,221.2 355.7,221.2 356.0,221.2 356.2,221.2 356.5,221.2 356.8,221.2 357.0,221.2 357.3,221.2 357.5,221.2 357.8,221.2 358.0,221.2 358.3,221.2 358.5,221.2 358.8,221.2 359.0,221.2 359.3,221.2 359.6,221.2 359.8,221.2 360.1,221.2 360.3,221.2 360.6,221.2 360.8,221.2 361.1,221.2 361.3,221.2 361.6,221.2 361.8,221.2 362.1,221.2 362.4,221.2 362.6,221.2 362.9,221.2 363.1,221.2 363.4,221.2 363.6,221.2 363.9,221.2 364.1,221.2 364.4,221.2 364.6,221.2 364.9,221.2 365.1,221.2 365.4,221.2 365.7,221.2 365.9,221.2 366.2,221.2 366.4,221.2 366.7,221.2 366.9,221.2 367.2,221.2 367.4,221.2 367.7,221.2 367.9,221.2 368.2,221.2 368.5,221.2 368.7,221.2 369.0,221.2 369.2,221.2 369.5,221.2 369.7,221.2 370.0,221.2 370.2,221.2 370.5,221.2 370.7,221.2 371.0,221.2 371.3,221.2 371.5,221.2 371.8,221.2 372.0,221.2 372.3,221.2 372.5,221.2 372.8,221.2 373.0,221.2 373.3,221.2 373.5,221.2 373.8,221.2 374.1,221.2 374.3,221.2 374.6,221.2 374.8,221.2 375.1,221.2 375.3,221.2 375.6,221.2 375.8,221.2 376.1,221.2 376.3,221.2 376.6,221.2 376.8,221.2 377.1,221.2 377.4,221.2 377.6,221.2 377.9,221.2 378.1,221.2 378.4,221.2 378.6,221.2 378.9,221.2 379.1,221.2 379.4,221.2 379.6,221.2 379.9,221.2 380.2,221.2 380.4,221.2 380.7,221.2 380.9,221.2 381.2,221.2 381.4,221.2 381.7,221.2 381.9,221.2 382.2,221.2 382.4,221.2 382.7,221.2 383.0,221.2 383.2,221.2 383.5,221.2 383.7,221.2 384.0,221.2 384.2,221.2 384.5,221.2 384.7,221.2 385.0,221.2 385.2,221.2 385.5,221.2 385.8,221.2 386.0,221.2 386.3,221.2 386.5,221.2 386.8,221.2 387.0,221.2 387.3,221.2 387.5,221.2 387.8,221.2 388.0,221.2 388.3,221.2 388.5,221.2 388.8,221.2 389.1,221.2 389.3,221.2 389.6,221.2 389.8,221.2 390.1,221.2 390.3,221.2 390.6,221.2 390.8,221.2 391.1,221.2 391.3,221.2 391.6,221.2 391.9,221.2 392.1,221.2 392.4,221.2 392.6,221.2 392.9,221.2 393.1,221.2 393.4,221.2 393.6,221.2 393.9,221.2 394.1,221.2 394.4,221.2 394.7,221.2 394.9,221.2 395.2,221.2 395.4,221.2 395.7,221.2 395.9,221.2 396.2,221.2 396.4,221.2 396.7,162.6 396.9,162.6 397.2,162.6 397.5,162.6 397.7,162.6 398.0,162.6 398.2,162.6 398.5,162.6 398.7,162.6 399.0,162.6 399.2,162.6 399.5,162.6 399.7,162.6 400.0,162.6 400.2,162.6 400.5,162.6 400.8,162.6 401.0,162.6 401.3,162.6 401.5,162.6 401.8,162.6 402.0,162.6 402.3,162.6 402.5,162.6 402.8,162.6 403.0,162.6 403.3,162.6 403.6,162.6 403.8,162.6 404.1,162.6 404.3,162.6 404.6,162.6 404.8,162.6 405.1,162.6 405.3,162.6 405.6,162.6 405.8,162.6 406.1,162.6 406.4,162.6 406.6,162.6 406.9,162.6 407.1,162.6 407.4,162.6 407.6,162.6 407.9,162.6 408.1,162.6 408.4,162.6 408.6,162.6 408.9,162.6 409.1,162.6 409.4,162.6 409.7,162.6 409.9,162.6 410.2,162.6 410.4,162.6 410.7,162.6 410.9,162.6 411.2,162.6 411.4,162.6 411.7,162.6 411.9,162.6 412.2,162.6 412.5,162.6 412.7,162.6 413.0,162.6 413.2,162.6 413.5,162.6 413.7,162.6 414.0,162.6 414.2,162.6 414.5,162.6 414.7,162.6 415.0,162.6 415.3,162.6 415.5,162.6 415.8,162.6 416.0,162.6 416.3,162.6 416.5,162.6 416.8,162.6 417.0,162.6 417.3,162.6 417.5,162.6 417.8,162.6 418.1,162.6 418.3,162.6 418.6,162.6 418.8,162.6 419.1,162.6 419.3,162.6 419.6,162.6 419.8,162.6 420.1,162.6 420.3,162.6 420.6,162.6 420.8,162.6 421.1,162.6 421.4,162.6 421.6,162.6 421.9,162.6 422.1,162.6 422.4,162.6 422.6,162.6 422.9,162.6 423.1,162.6 423.4,162.6 423.6,162.6 423.9,162.6 424.2,162.6 424.4,162.6 424.7,162.6 424.9,162.6 425.2,162.6 425.4,162.6 425.7,162.6 425.9,162.6 426.2,162.6 426.4,162.6 426.7,162.6 427.0,162.6 427.2,162.6 427.5,162.6 427.7,162.6 428.0,162.6 428.2,162.6 428.5,162.6 428.7,162.6 429.0,162.6 429.2,162.6 429.5,162.6 429.8,162.6 430.0,162.6 430.3,162.6 430.5,162.6 430.8,162.6 431.0,162.6 431.3,162.6 431.5,162.6 431.8,162.6 432.0,162.6 432.3,162.6 432.5,162.6 432.8,162.6 433.1,162.6 433.3,162.6 433.6,162.6 433.8,162.6 434.1,162.6 434.3,162.6 434.6,162.6 434.8,162.6 435.1,162.6 435.3,162.6 435.6,162.6 435.9,162.6 436.1,162.6 436.4,162.6 436.6,162.6 436.9,162.6 437.1,162.6 437.4,162.6 437.6,162.6 437.9,162.6 438.1,162.6 438.4,162.6 438.7,162.6 438.9,162.6 439.2,162.6 439.4,162.6 439.7,162.6 439.9,162.6 440.2,162.6 440.4,162.6 440.7,162.6 440.9,162.6 441.2,162.6 441.5,162.6 441.7,162.6 442.0,162.6 442.2,162.6 442.5,162.6 442.7,162.6 443.0,162.6 443.2,162.6 443.5,162.6 443.7,162.6 444.0,162.6 444.2,162.6 444.5,162.6 444.8,162.6 445.0,162.6 445.3,162.6 445.5,162.6 445.8,162.6 446.0,162.6 446.3,162.6 446.5,162.6 446.8,162.6 447.0,162.6 447.3,162.6 447.6,162.6 447.8,162.6 448.1,162.6 448.3,162.6 448.6,162.6 448.8,162.6 449.1,162.6 449.3,162.6 449.6,162.6 449.8,162.6 450.1,162.6 450.4,162.6 450.6,162.6 450.9,162.6 451.1,162.6 451.4,162.6 451.6,162.6 451.9,162.6 452.1,162.6 452.4,162.6 452.6,162.6 452.9,153.3 453.2,153.3 453.4,153.3 453.7,153.3 453.9,153.3 454.2,153.3 454.4,153.3 454.7,153.3 454.9,153.3 455.2,153.3 455.4,153.3 455.7,153.3 455.9,153.3 456.2,153.3 456.5,153.3 456.7,153.3 457.0,153.3 457.2,153.3 457.5,153.3 457.7,153.3 458.0,153.3 458.2,153.3 458.5,153.3 458.7,153.3 459.0,153.3 459.3,153.3 459.5,153.3 459.8,153.3 460.0,153.3 460.3,153.3 460.5,153.3 460.8,153.3 461.0,153.3 461.3,153.3 461.5,153.3 461.8,153.3 462.1,153.3 462.3,153.3 462.6,153.3 462.8,153.3 463.1,153.3 463.3,153.3 463.6,153.3 463.8,153.3 464.1,153.3 464.3,153.3 464.6,153.3 464.9,153.3 465.1,153.3 465.4,153.3 465.6,153.3 465.9,153.3 466.1,153.3 466.4,153.3 466.6,153.3 466.9,153.3 467.1,153.3 467.4,153.3 467.6,153.3 467.9,153.3 468.2,153.3 468.4,153.3 468.7,153.3 468.9,153.3 469.2,153.3 469.4,153.3 469.7,153.3 469.9,153.3 470.2,153.3 470.4,153.3 470.7,153.3 471.0,153.3 471.2,153.3 471.5,153.3 471.7,153.3 472.0,153.3 472.2,153.3 472.5,153.3 472.7,153.3 473.0,153.3 473.2,153.3 473.5,153.3 473.8,153.3 474.0,153.3 474.3,153.3 474.5,153.3 474.8,153.3 475.0,153.3 475.3,153.3 475.5,153.3 475.8,153.3 476.0,153.3 476.3,153.3 476.5,153.3 476.8,153.3 477.1,153.3 477.3,153.3 477.6,153.3 477.8,153.3 478.1,153.3 478.3,153.3 478.6,153.3 478.8,153.3 479.1,153.3 479.3,153.3 479.6,153.3 479.9,153.3 480.1,153.3 480.4,153.3 480.6,153.3 480.9,153.3 481.1,153.3 481.4,153.3 481.6,153.3 481.9,153.3 482.1,153.3 482.4,153.3 482.7,153.3 482.9,153.3 483.2,153.3 483.4,153.3 483.7,144.4 483.9,144.4 484.2,144.4 484.4,144.4 484.7,144.4 484.9,144.4 485.2,144.4 485.5,144.4 485.7,144.4 486.0,144.4 486.2,144.4 486.5,144.4 486.7,144.4 487.0,144.4 487.2,144.4 487.5,144.4 487.7,144.4 488.0,144.4 488.2,144.4 488.5,144.4 488.8,144.4 489.0,144.4 489.3,144.4 489.5,144.4 489.8,144.4 490.0,144.4 490.3,144.4 490.5,144.4 490.8,144.4 491.0,144.4 491.3,144.4 491.6,144.4 491.8,144.4 492.1,144.4 492.3,144.4 492.6,144.4 492.8,144.4 493.1,144.4 493.3,144.4 493.6,144.4 493.8,144.4 494.1,144.4 494.4,144.4 494.6,144.4 494.9,144.4 495.1,144.4 495.4,144.4 495.6,144.4 495.9,144.4 496.1,144.4 496.4,144.4 496.6,144.4 496.9,144.4 497.2,144.4 497.4,144.4 497.7,144.4 497.9,144.4 498.2,144.4 498.4,144.4 498.7,144.4 498.9,144.4 499.2,144.4 499.4,144.4 499.7,144.4 499.9,144.4 500.2,144.4 500.5,144.4 500.7,144.4 501.0,144.4 501.2,144.4 501.5,144.4 501.7,144.4 502.0,144.4 502.2,144.4 502.5,144.4 502.7,144.4 503.0,144.4 503.3,144.4 503.5,144.4 503.8,144.4 504.0,144.4 504.3,144.4 504.5,144.4 504.8,144.4 505.0,144.4 505.3,144.4 505.5,144.4 505.8,144.4 506.1,144.4 506.3,144.4 506.6,144.4 506.8,144.4 507.1,144.4 507.3,144.4 507.6,144.4 507.8,144.4 508.1,144.4 508.3,144.4 508.6,144.4 508.9,144.4 509.1,144.4 509.4,144.4 509.6,144.4 509.9,144.4 510.1,144.4 510.4,144.4 510.6,144.4 510.9,144.4 511.1,144.4 511.4,144.4 511.6,144.4 511.9,144.4 512.2,144.4 512.4,144.4 512.7,144.4 512.9,144.4 513.2,144.4 513.4,144.4 513.7,144.4 513.9,144.4 514.2,144.4 514.4,144.4 514.7,144.4 515.0,144.4 515.2,136.6 515.5,136.6 515.7,136.6 516.0,136.6 516.2,136.6 516.5,136.6 516.7,136.6 517.0,136.6 517.2,136.6 517.5,136.6 517.8,136.6 518.0,136.6 518.3,136.6 518.5,136.6 518.8,136.6 519.0,136.6 519.3,136.6 519.5,136.6 519.8,136.6 520.0,136.6 520.3,136.6 520.6,136.6 520.8,136.6 521.1,136.6 521.3,136.6 521.6,136.6 521.8,136.6 522.1,136.6 522.3,136.6 522.6,136.6 522.8,136.6 523.1,136.6 523.3,136.6 523.6,136.6 523.9,136.6 524.1,136.6 524.4,136.6 524.6,136.6 524.9,136.6 525.1,136.6 525.4,136.6 525.6,136.6 525.9,136.6 526.1,136.6 526.4,136.6 526.7,136.6 526.9,136.6 527.2,136.6 527.4,136.6 527.7,136.6 527.9,136.6 528.2,136.6 528.4,136.6 528.7,136.6 528.9,136.6 529.2,136.6 529.5,136.6 529.7,136.6 530.0,136.6 530.2,136.6 530.5,136.6 530.7,136.6 531.0,136.6 531.2,136.6 531.5,136.6 531.7,136.6 532.0,136.6 532.3,136.6 532.5,136.6 532.8,136.6 533.0,136.6 533.3,136.6 533.5,136.6 533.8,136.6 534.0,136.6 534.3,136.6 534.5,136.6 534.8,136.6 535.0,136.6 535.3,136.6 535.6,136.6 535.8,136.6 536.1,136.6 536.3,136.6 536.6,136.6 536.8,136.6 537.1,136.6 537.3,136.6 537.6,136.6 537.8,136.6 538.1,136.6 538.4,136.6 538.6,136.6 538.9,136.6 539.1,136.6 539.4,136.6 539.6,136.6 539.9,136.6 540.1,136.6 540.4,136.6 540.6,136.6 540.9,136.6 541.2,136.6 541.4,136.6 541.7,136.6 541.9,136.6 542.2,136.6 542.4,136.6 542.7,136.6 542.9,136.6 543.2,136.6 543.4,136.6 543.7,136.6 543.9,136.6 544.2,136.6 544.5,136.6 544.7,136.6 545.0,136.6 545.2,136.6 545.5,136.6 545.7,128.3 546.0,128.3 546.2,128.3 546.5,128.3 546.7,128.3 547.0,128.3 547.3,128.3 547.5,128.3 547.8,128.3 548.0,128.3 548.3,128.3 548.5,128.3 548.8,128.3 549.0,128.3 549.3,128.3 549.5,128.3 549.8,128.3 550.1,128.3 550.3,128.3 550.6,128.3 550.8,128.3 551.1,128.3 551.3,128.3 551.6,128.3 551.8,128.3 552.1,128.3 552.3,128.3 552.6,128.3 552.9,128.3 553.1,128.3 553.4,128.3 553.6,128.3 553.9,128.3 554.1,128.3 554.4,128.3 554.6,128.3 554.9,128.3 555.1,128.3 555.4,128.3 555.6,128.3 555.9,128.3 556.2,128.3 556.4,128.3 556.7,128.3 556.9,128.3 557.2,128.3 557.4,128.3 557.7,128.3 557.9,128.3 558.2,128.3 558.4,128.3 558.7,128.3 559.0,128.3 559.2,128.3 559.5,128.3 559.7,128.3 560.0,128.3 560.2,128.3 560.5,128.3 560.7,128.3 561.0,128.3 561.2,128.3 561.5,128.3 561.8,128.3 562.0,128.3 562.3,128.3 562.5,128.3 562.8,128.3 563.0,128.3 563.3,128.3 563.5,128.3 563.8,128.3 564.0,128.3 564.3,128.3 564.6,128.3 564.8,128.3 565.1,128.3 565.3,128.3 565.6,128.3 565.8,128.3 566.1,128.3 566.3,128.3 566.6,128.3 566.8,128.3 567.1,128.3 567.3,128.3 567.6,128.3 567.9,128.3 568.1,128.3 568.4,128.3 568.6,128.3 568.9,128.3 569.1,128.3 569.4,128.3 569.6,128.3 569.9,128.3 570.1,128.3 570.4,128.3 570.7,128.3 570.9,128.3 571.2,128.3 571.4,128.3 571.7,128.3 571.9,128.3 572.2,128.3 572.4,128.3 572.7,128.3 572.9,128.3 573.2,128.3 573.5,128.3 573.7,128.3 574.0,128.3 574.2,128.3 574.5,128.3 574.7,128.3 575.0,128.3 575.2,128.3 575.5,128.3 575.7,128.3 576.0,128.3 576.3,128.3 576.5,128.3 576.8,128.3 577.0,128.3 577.3,128.3 577.5,118.1 577.8,118.1 578.0,118.1 578.3,118.1 578.5,118.1 578.8,118.1 579.0,118.1 579.3,118.1 579.6,118.1 579.8,118.1 580.1,118.1 580.3,118.1 580.6,118.1 580.8,118.1 581.1,118.1 581.3,118.1 581.6,118.1 581.8,118.1 582.1,118.1 582.4,118.1 582.6,118.1 582.9,118.1 583.1,118.1 583.4,118.1 583.6,118.1 583.9,118.1 584.1,118.1 584.4,118.1 584.6,118.1 584.9,118.1 585.2,118.1 585.4,118.1 585.7,118.1 585.9,118.1 586.2,118.1 586.4,118.1 586.7,118.1 586.9,118.1 587.2,118.1 587.4,118.1 587.7,118.1 588.0,118.1 588.2,118.1 588.5,118.1 588.7,118.1 589.0,118.1 589.2,118.1 589.5,118.1 589.7,118.1 590.0,118.1 590.2,118.1 590.5,118.1 590.7,118.1 591.0,118.1 591.3,118.1 591.5,118.1 591.8,118.1 592.0,118.1 592.3,118.1 592.5,118.1 592.8,118.1 593.0,118.1 593.3,118.1 593.5,118.1 593.8,118.1 594.1,118.1 594.3,118.1 594.6,118.1 594.8,118.1 595.1,118.1 595.3,118.1 595.6,118.1 595.8,118.1 596.1,118.1 596.3,118.1 596.6,118.1 596.9,118.1 597.1,118.1 597.4,118.1 597.6,118.1 597.9,118.1 598.1,118.1 598.4,118.1 598.6,118.1 598.9,118.1 599.1,118.1 599.4,118.1 599.7,118.1 599.9,118.1 600.2,118.1 600.4,118.1 600.7,118.1 600.9,118.1 601.2,118.1 601.4,118.1 601.7,118.1 601.9,118.1 602.2,118.1 602.4,118.1 602.7,118.1 603.0,118.1 603.2,118.1 603.5,118.1 603.7,118.1 604.0,118.1 604.2,118.1 604.5,118.1 604.7,118.1 605.0,118.1 605.2,118.1 605.5,118.1 605.8,118.1 606.0,118.1 606.3,118.1 606.5,118.1 606.8,118.1 607.0,118.1 607.3,118.1 607.5,118.1 607.8,112.0 608.0,112.0 608.3,112.0 608.6,112.0 608.8,112.0 609.1,112.0 609.3,112.0 609.6,112.0 609.8,112.0 610.1,112.0 610.3,112.0 610.6,112.0 610.8,112.0 611.1,112.0 611.3,112.0 611.6,112.0 611.9,112.0 612.1,112.0 612.4,112.0 612.6,112.0 612.9,112.0 613.1,112.0 613.4,112.0 613.6,112.0 613.9,112.0 614.1,112.0 614.4,112.0 614.7,112.0 614.9,112.0 615.2,112.0 615.4,112.0 615.7,112.0 615.9,112.0 616.2,112.0 616.4,112.0 616.7,112.0 616.9,112.0 617.2,112.0 617.5,112.0 617.7,112.0 618.0,112.0 618.2,112.0 618.5,112.0 618.7,112.0 619.0,112.0 619.2,112.0 619.5,112.0 619.7,112.0 620.0,112.0 620.3,112.0 620.5,112.0 620.8,112.0 621.0,112.0 621.3,112.0 621.5,112.0 621.8,112.0 622.0,112.0 622.3,112.0 622.5,112.0 622.8,112.0 623.0,112.0 623.3,112.0 623.6,112.0 623.8,112.0 624.1,112.0 624.3,112.0 624.6,112.0 624.8,112.0 625.1,112.0 625.3,112.0 625.6,112.0 625.8,112.0 626.1,112.0 626.4,112.0 626.6,112.0 626.9,112.0 627.1,112.0 627.4,112.0 627.6,112.0 627.9,112.0 628.1,112.0 628.4,112.0 628.6,112.0 628.9,112.0 629.2,112.0 629.4,112.0 629.7,112.0 629.9,112.0 630.2,112.0 630.4,112.0 630.7,112.0 630.9,112.0 631.2,112.0 631.4,112.0 631.7,112.0 632.0,112.0 632.2,112.0 632.5,112.0 632.7,112.0 633.0,112.0 633.2,112.0 633.5,112.0 633.7,112.0 634.0,112.0 634.2,112.0 634.5,112.0 634.7,112.0 635.0,112.0 635.3,112.0 635.5,112.0 635.8,112.0 636.0,112.0 636.3,112.0 636.5,112.0 636.8,112.0 637.0,112.0 637.3,112.0 637.5,112.0 637.8,112.0 638.1,112.0 638.3,112.0 638.6,112.0 638.8,112.0 639.1,112.0 639.3,112.0 639.6,112.0 639.8,104.2 640.1,104.2 640.3,104.2 640.6,104.2 640.9,104.2 641.1,104.2 641.4,104.2 641.6,104.2 641.9,104.2 642.1,104.2 642.4,104.2 642.6,104.2 642.9,104.2 643.1,104.2 643.4,104.2 643.7,104.2 643.9,104.2 644.2,104.2 644.4,104.2 644.7,104.2 644.9,104.2 645.2,104.2 645.4,104.2 645.7,104.2 645.9,104.2 646.2,104.2 646.4,104.2 646.7,104.2 647.0,104.2 647.2,104.2 647.5,104.2 647.7,104.2 648.0,104.2 648.2,104.2 648.5,104.2 648.7,104.2 649.0,104.2 649.2,104.2 649.5,104.2 649.8,104.2 650.0,104.2 650.3,104.2 650.5,104.2 650.8,104.2 651.0,104.2 651.3,104.2 651.5,104.2 651.8,104.2 652.0,104.2 652.3,104.2 652.6,104.2 652.8,104.2 653.1,104.2 653.3,104.2 653.6,104.2 653.8,104.2 654.1,104.2 654.3,104.2 654.6,104.2 654.8,104.2 655.1,104.2 655.4,104.2 655.6,104.2 655.9,104.2 656.1,104.2 656.4,104.2 656.6,104.2 656.9,104.2 657.1,104.2 657.4,104.2 657.6,104.2 657.9,104.2 658.1,104.2 658.4,104.2 658.7,104.2 658.9,104.2 659.2,104.2 659.4,104.2 659.7,104.2 659.9,104.2 660.2,104.2 660.4,104.2 660.7,104.2 660.9,104.2 661.2,104.2 661.5,104.2 661.7,104.2 662.0,104.2 662.2,104.2 662.5,104.2 662.7,104.2 663.0,104.2 663.2,104.2 663.5,104.2 663.7,104.2 664.0,104.2 664.3,104.2 664.5,104.2 664.8,104.2 665.0,104.2 665.3,104.2 665.5,104.2 665.8,104.2 666.0,104.2 666.3,104.2 666.5,104.2 666.8,104.2 667.0,104.2 667.3,104.2 667.6,104.2 667.8,104.2 668.1,104.2 668.3,104.2 668.6,104.2 668.8,104.2 669.1,104.2 669.3,104.2 669.6,104.2 669.8,104.2 670.1,91.5 670.4,91.5 670.6,91.5 670.9,91.5 671.1,91.5 671.4,91.5 671.6,91.5 671.9,91.5 672.1,91.5 672.4,91.5 672.6,91.5 672.9,91.5 673.2,91.5 673.4,91.5 673.7,91.5 673.9,91.5 674.2,91.5 674.4,91.5 674.7,91.5 674.9,91.5 675.2,91.5 675.4,91.5 675.7,91.5 676.0,91.5 676.2,91.5 676.5,91.5 676.7,91.5 677.0,91.5 677.2,91.5 677.5,91.5 677.7,91.5 678.0,91.5 678.2,91.5 678.5,91.5 678.7,91.5 679.0,91.5 679.3,91.5 679.5,91.5 679.8,91.5 680.0,91.5 680.3,91.5 680.5,91.5 680.8,91.5 681.0,91.5 681.3,91.5 681.5,91.5 681.8,91.5 682.1,91.5 682.3,91.5 682.6,91.5 682.8,91.5 683.1,91.5 683.3,91.5 683.6,91.5 683.8,91.5 684.1,91.5 684.3,91.5 684.6,91.5 684.9,91.5 685.1,91.5 685.4,91.5 685.6,91.5 685.9,91.5 686.1,91.5 686.4,91.5 686.6,91.5 686.9,91.5 687.1,91.5 687.4,91.5 687.7,91.5 687.9,91.5 688.2,91.5 688.4,91.5 688.7,91.5 688.9,91.5 689.2,91.5 689.4,91.5 689.7,91.5 689.9,91.5 690.2,91.5 690.4,91.5 690.7,91.5 691.0,91.5 691.2,91.5 691.5,91.5 691.7,91.5 692.0,91.5 692.2,91.5 692.5,91.5 692.7,91.5 693.0,91.5 693.2,91.5 693.5,91.5 693.8,91.5 694.0,91.5 694.3,91.5 694.5,91.5 694.8,91.5 695.0,91.5 695.3,91.5 695.5,91.5 695.8,91.5 696.0,91.5 696.3,91.5 696.6,91.5 696.8,91.5 697.1,91.5 697.3,91.5 697.6,91.5 697.8,91.5 698.1,91.5 698.3,91.5 698.6,91.5 698.8,91.5 699.1,91.5 699.4,91.5 699.6,91.5 699.9,91.5 700.1,91.5 700.4,91.5 700.6,91.5 700.9,91.5 701.1,91.5 701.4,91.5 701.6,91.5 701.9,84.6 702.1,84.6 702.4,84.6 702.7,84.6 702.9,84.6 703.2,84.6 703.4,84.6 703.7,84.6 703.9,84.6 704.2,84.6 704.4,84.6 704.7,84.6 704.9,84.6 705.2,84.6 705.5,84.6 705.7,84.6 706.0,84.6 706.2,84.6 706.5,84.6 706.7,84.6 707.0,84.6 707.2,84.6 707.5,84.6 707.7,84.6 708.0,84.6 708.3,84.6 708.5,84.6 708.8,84.6 709.0,84.6 709.3,84.6 709.5,84.6 709.8,84.6 710.0,84.6 710.3,84.6 710.5,84.6 710.8,84.6 711.1,84.6 711.3,84.6 711.6,84.6 711.8,84.6 712.1,84.6 712.3,84.6 712.6,84.6 712.8,84.6 713.1,84.6 713.3,84.6 713.6,84.6 713.8,84.6 714.1,84.6 714.4,84.6 714.6,84.6 714.9,84.6 715.1,84.6 715.4,84.6 715.6,84.6 715.9,84.6 716.1,84.6 716.4,84.6 716.6,84.6 716.9,84.6 717.2,84.6 717.4,84.6 717.7,84.6 717.9,84.6 718.2,84.6 718.4,84.6 718.7,84.6 718.9,84.6 719.2,84.6 719.4,84.6 719.7,84.6 720.0,84.6 720.2,84.6 720.5,84.6 720.7,84.6 721.0,84.6 721.2,84.6 721.5,84.6 721.7,84.6 722.0,84.6 722.2,84.6 722.5,84.6 722.8,84.6 723.0,84.6 723.3,84.6 723.5,84.6 723.8,84.6 724.0,84.6 724.3,84.6 724.5,84.6 724.8,84.6 725.0,84.6 725.3,84.6 725.5,84.6 725.8,84.6 726.1,84.6 726.3,84.6 726.6,84.6 726.8,84.6 727.1,84.6 727.3,84.6 727.6,84.6 727.8,84.6 728.1,84.6 728.3,84.6 728.6,84.6 728.9,84.6 729.1,84.6 729.4,84.6 729.6,84.6 729.9,84.6 730.1,84.6 730.4,84.6 730.6,84.6 730.9,84.6 731.1,84.6 731.4,84.6 731.7,84.6 731.9,84.6 732.2,76.5 732.4,76.5 732.7,76.5 732.9,76.5 733.2,76.5 733.4,76.5 733.7,76.5 733.9,76.5 734.2,76.5 734.4,76.5 734.7,76.5 735.0,76.5 735.2,76.5 735.5,76.5 735.7,76.5 736.0,76.5 736.2,76.5 736.5,76.5 736.7,76.5 737.0,76.5 737.2,76.5 737.5,76.5 737.8,76.5 738.0,76.5 738.3,76.5 738.5,76.5 738.8,76.5 739.0,76.5 739.3,76.5 739.5,76.5 739.8,76.5 740.0,76.5 740.3,76.5 740.6,76.5 740.8,76.5 741.1,76.5 741.3,76.5 741.6,76.5 741.8,76.5 742.1,76.5 742.3,76.5 742.6,76.5 742.8,76.5 743.1,76.5 743.4,76.5 743.6,76.5 743.9,76.5 744.1,76.5 744.4,76.5 744.6,76.5 744.9,76.5 745.1,76.5 745.4,76.5 745.6,76.5 745.9,76.5 746.1,76.5 746.4,76.5 746.7,76.5 746.9,76.5 747.2,76.5 747.4,76.5 747.7,76.5 747.9,76.5 748.2,76.5 748.4,76.5 748.7,76.5 748.9,76.5 749.2,76.5 749.5,76.5 749.7,76.5 750.0,76.5 750.2,76.5 750.5,76.5 750.7,151.0 751.0,151.0 751.2,151.0 751.5,151.0 751.7,151.0 752.0,151.0 752.3,151.0 752.5,151.0 752.8,151.0 753.0,151.0 753.3,151.0 753.5,151.0 753.8,151.0 754.0,151.0 754.3,151.0 754.5,151.0 754.8,151.0 755.1,151.0 755.3,151.0 755.6,151.0 755.8,151.0 756.1,151.0 756.3,151.0 756.6,151.0 756.8,151.0 757.1,151.0 757.3,151.0 757.6,151.0 757.8,151.0 758.1,151.0 758.4,151.0 758.6,151.0 758.9,151.0 759.1,151.0 759.4,151.0 759.6,151.0 759.9,151.0 760.1,151.0 760.4,151.0 760.6,151.0 760.9,151.0 761.2,151.0 761.4,151.0 761.7,151.0 761.9,151.0 762.2,151.0 762.4,151.0 762.7,151.0 762.9,151.0 763.2,151.0 763.4,151.0 763.7,144.3 764.0,144.3 764.2,144.3 764.5,144.3 764.7,144.3 765.0,144.3 765.2,144.3 765.5,144.3 765.7,144.3 766.0,144.3 766.2,144.3 766.5,144.3 766.8,144.3 767.0,144.3 767.3,144.3 767.5,144.3 767.8,144.3 768.0,144.3 768.3,144.3 768.5,144.3 768.8,144.3 769.0,144.3 769.3,144.3 769.5,144.3 769.8,144.3 770.1,144.3 770.3,144.3 770.6,144.3 770.8,144.3 771.1,144.3 771.3,144.3 771.6,144.3 771.8,144.3 772.1,144.3 772.3,144.3 772.6,144.3 772.9,144.3 773.1,144.3 773.4,144.3 773.6,144.3 773.9,144.3 774.1,144.3 774.4,144.3 774.6,144.3 774.9,144.3 775.1,144.3 775.4,144.3 775.7,144.3 775.9,144.3 776.2,144.3 776.4,144.3 776.7,144.3 776.9,144.3 777.2,144.3 777.4,144.3 777.7,144.3 777.9,144.3 778.2,144.3 778.5,144.3 778.7,144.3 779.0,144.3 779.2,144.3 779.5,144.3 779.7,144.3 780.0,144.3 780.2,144.3 780.5,144.3 780.7,144.3 781.0,144.3 781.2,144.3 781.5,144.3 781.8,144.3 782.0,144.3 782.3,144.3 782.5,144.3 782.8,144.3 783.0,144.3 783.3,144.3 783.5,144.3 783.8,144.3 784.0,144.3 784.3,144.3 784.6,144.3 784.8,144.3 785.1,144.3 785.3,144.3 785.6,144.3 785.8,144.3 786.1,144.3 786.3,144.3 786.6,144.3 786.8,144.3 787.1,144.3 787.4,144.3 787.6,144.3 787.9,144.3 788.1,144.3 788.4,144.3 788.6,144.3 788.9,144.3 789.1,144.3 789.4,144.3 789.6,144.3 789.9,144.3 790.2,144.3 790.4,144.3 790.7,144.3 790.9,144.3 791.2,144.3 791.4,144.3 791.7,144.3 791.9,144.3 792.2,144.3 792.4,144.3 792.7,144.3 792.9,144.3 793.2,144.3 793.5,144.3 793.7,144.3 794.0,144.3 794.2,144.3 794.5,144.3 794.7,144.3 795.0,132.2 795.2,132.2 795.5,132.2 795.7,132.2 796.0,132.2"/>
<text x="78" y="392" font-size="11" fill="#16a34a">Total return +172,337%</text><text x="268" y="392" font-size="11" fill="#2563eb">Price-only +172,337%</text><text x="78" y="362" font-size="11" text-anchor="middle" fill="#64748b">2015-01</text><text x="258" y="362" font-size="11" text-anchor="middle" fill="#64748b">2017-12</text><text x="437" y="362" font-size="11" text-anchor="middle" fill="#64748b">2020-10</text><text x="617" y="362" font-size="11" text-anchor="middle" fill="#64748b">2023-08</text><text x="796" y="362" font-size="11" text-anchor="middle" fill="#64748b">2026-07</text></svg>