<svg xmlns="http://www.w3.org/2000/svg" width="820" height="410" viewBox="0 0 820 410">
<rect width="820" height="410" fill="#fafafa"/><text x="78" y="22" font-size="14" font-family="sans-serif" fill="#0f172a">MIAX cumulative return since 2025-08-14 | dividends reinvested</text>
<text x="78" y="40" font-size="11" font-family="sans-serif" fill="#334155">Total return +38.0% | Price-only +38.0% | logarithmic scale</text>
<text x="78" y="54" font-size="9" font-family="sans-serif" fill="#64748b">Regular $0.00 | Special $0.00 | Other $0.00 per initial share path</text>
<line x1="78" y1="332.0" x2="796" y2="332.0" stroke="#e2e8f0"/><text x="70" y="336.0" font-size="10" text-anchor="end" fill="#64748b">-3.9%</text><line x1="78" y1="316.5" x2="796" y2="316.5" stroke="#e2e8f0"/><text x="70" y="320.5" font-size="10" text-anchor="end" fill="#64748b">0%</text><line x1="78" y1="287.0" x2="796" y2="287.0" stroke="#e2e8f0"/><text x="70" y="291.0" font-size="10" text-anchor="end" fill="#64748b">+7.9%</text><line x1="78" y1="242.0" x2="796" y2="242.0" stroke="#e2e8f0"/><text x="70" y="246.0" font-size="10" text-anchor="end" fill="#64748b">+21.1%</text><line x1="78" y1="197.0" x2="796" y2="197.0" stroke="#e2e8f0"/><text x="70" y="201.0" font-size="10" text-anchor="end" fill="#64748b">+36.0%</text><line x1="78" y1="152.0" x2="796" y2="152.0" stroke="#e2e8f0"/><text x="70" y="156.0" font-size="10" text-anchor="end" fill="#64748b">+52.7%</text><line x1="78" y1="107.0" x2="796" y2="107.0" stroke="#e2e8f0"/><text x="70" y="111.0" font-size="10" text-anchor="end" fill="#64748b">+71.4%</text><line x1="78" y1="62.0" x2="796" y2="62.0" stroke="#e2e8f0"/><text x="70" y="66.0" font-size="10" text-anchor="end" fill="#64748b">+92.5%</text>
<line x1="78" y1="332" x2="796" y2="332" stroke="#cbd5e1"/>
<polyline fill="none" stroke="#2563eb" stroke-width="2" points="78.0,316.5 81.1,311.7 84.3,292.9 87.4,290.2 90.5,291.6 93.7,273.4 96.8,282.8 99.9,285.5 103.1,278.4 106.2,269.4 109.4,260.6 112.5,238.4 115.6,251.5 118.8,261.8 121.9,260.5 125.0,266.6 128.2,236.4 131.3,241.3 134.4,246.4 137.6,240.3 140.7,239.6 143.8,241.7 147.0,233.8 150.1,232.6 153.2,225.3 156.4,233.8 159.5,218.8 162.7,218.0 165.8,198.4 168.9,195.6 172.1,202.3 175.2,206.7 178.3,211.6 181.5,224.2 184.6,204.2 187.7,194.3 190.9,179.6 194.0,173.4 197.1,171.2 200.3,186.5 203.4,181.2 206.6,185.0 209.7,181.0 212.8,183.0 216.0,192.7 219.1,195.8 222.2,185.5 225.4,200.1 228.5,197.3 231.6,190.5 234.8,184.1 237.9,174.7 241.0,184.6 244.2,184.6 247.3,179.5 250.4,179.7 253.6,163.7 256.7,174.2 259.9,161.2 263.0,151.3 266.1,137.6 269.3,135.7 272.4,131.4 275.5,120.0 278.7,138.2 281.8,139.0 284.9,153.0 288.1,153.9 291.2,173.9 294.3,190.1 297.5,176.4 300.6,170.7 303.7,176.4 306.9,161.0 310.0,163.1 313.2,172.7 316.3,165.0 319.4,170.7 322.6,164.4 325.7,176.5 328.8,163.5 332.0,161.5 335.1,189.5 338.2,197.2 341.4,188.9 344.5,189.8 347.6,182.8 350.8,178.9 353.9,174.9 357.0,171.6 360.2,149.3 363.3,148.2 366.5,149.7 369.6,154.2 372.7,158.7 375.9,162.5 379.0,173.7 382.1,180.2 385.3,157.6 388.4,175.0 391.5,191.4 394.7,188.2 397.8,192.1 400.9,190.8 404.1,196.5 407.2,188.2 410.3,190.1 413.5,181.3 416.6,187.1 419.8,177.6 422.9,172.2 426.0,191.1 429.2,185.2 432.3,200.6 435.4,202.3 438.6,198.0 441.7,197.7 444.8,197.2 448.0,203.9 451.1,207.7 454.2,197.5 457.4,193.0 460.5,201.4 463.7,207.8 466.8,203.4 469.9,199.1 473.1,193.9 476.2,205.6 479.3,212.2 482.5,207.9 485.6,209.0 488.7,224.1 491.9,218.4 495.0,204.6 498.1,196.5 501.3,189.6 504.4,187.0 507.5,194.8 510.7,187.6 513.8,191.6 517.0,204.7 520.1,202.7 523.2,208.9 526.4,219.1 529.5,233.1 532.6,229.3 535.8,219.1 538.9,215.9 542.0,218.5 545.2,223.8 548.3,223.0 551.4,223.2 554.6,219.4 557.7,228.9 560.8,230.9 564.0,241.2 567.1,239.2 570.3,224.7 573.4,220.3 576.5,212.5 579.7,198.6 582.8,201.5 585.9,193.1 589.1,201.2 592.2,195.6 595.3,187.0 598.5,186.8 601.6,175.1 604.7,169.6 607.9,166.9 611.0,168.9 614.1,175.5 617.3,166.1 620.4,164.1 623.6,160.9 626.7,153.8 629.8,149.0 633.0,146.2 636.1,155.7 639.2,150.0 642.4,148.9 645.5,145.6 648.6,145.8 651.8,129.2 654.9,112.2 658.0,110.7 661.2,108.6 664.3,88.9 667.4,77.5 670.6,82.2 673.7,93.8 676.9,102.5 680.0,112.2 683.1,116.3 686.3,116.5 689.4,133.6 692.5,125.8 695.7,145.2 698.8,149.4 701.9,158.9 705.1,190.5 708.2,210.9 711.3,217.9 714.5,221.9 717.6,226.6 720.8,216.1 723.9,206.5 727.0,202.0 730.2,183.4 733.3,176.1 736.4,211.8 739.6,236.1 742.7,237.6 745.8,248.1 749.0,257.1 752.1,249.8 755.2,247.2 758.4,234.9 761.5,246.2 764.6,242.7 767.8,223.5 770.9,206.0 774.1,196.4 777.2,179.5 780.3,196.4 783.5,186.1 786.6,187.5 789.7,192.3 792.9,201.7 796.0,191.2"/><polyline fill="none" stroke="#16a34a" stroke-width="3" points="78.0,316.5 81.1,311.7 84.3,292.9 87.4,290.2 90.5,291.6 93.7,273.4 96.8,282.8 99.9,285.5 103.1,278.4 106.2,269.4 109.4,260.6 112.5,238.4 115.6,251.5 118.8,261.8 121.9,260.5 125.0,266.6 128.2,236.4 131.3,241.3 134.4,246.4 137.6,240.3 140.7,239.6 143.8,241.7 147.0,233.8 150.1,232.6 153.2,225.3 156.4,233.8 159.5,218.8 162.7,218.0 165.8,198.4 168.9,195.6 172.1,202.3 175.2,206.7 178.3,211.6 181.5,224.2 184.6,204.2 187.7,194.3 190.9,179.6 194.0,173.4 197.1,171.2 200.3,186.5 203.4,181.2 206.6,185.0 209.7,181.0 212.8,183.0 216.0,192.7 219.1,195.8 222.2,185.5 225.4,200.1 228.5,197.3 231.6,190.5 234.8,184.1 237.9,174.7 241.0,184.6 244.2,184.6 247.3,179.5 250.4,179.7 253.6,163.7 256.7,174.2 259.9,161.2 263.0,151.3 266.1,137.6 269.3,135.7 272.4,131.4 275.5,120.0 278.7,138.2 281.8,139.0 284.9,153.0 288.1,153.9 291.2,173.9 294.3,190.1 297.5,176.4 300.6,170.7 303.7,176.4 306.9,161.0 310.0,163.1 313.2,172.7 316.3,165.0 319.4,170.7 322.6,164.4 325.7,176.5 328.8,163.5 332.0,161.5 335.1,189.5 338.2,197.2 341.4,188.9 344.5,189.8 347.6,182.8 350.8,178.9 353.9,174.9 357.0,171.6 360.2,149.3 363.3,148.2 366.5,149.7 369.6,154.2 372.7,158.7 375.9,162.5 379.0,173.7 382.1,180.2 385.3,157.6 388.4,175.0 391.5,191.4 394.7,188.2 397.8,192.1 400.9,190.8 404.1,196.5 407.2,188.2 410.3,190.1 413.5,181.3 416.6,187.1 419.8,177.6 422.9,172.2 426.0,191.1 429.2,185.2 432.3,200.6 435.4,202.3 438.6,198.0 441.7,197.7 444.8,197.2 448.0,203.9 451.1,207.7 454.2,197.5 457.4,193.0 460.5,201.4 463.7,207.8 466.8,203.4 469.9,199.1 473.1,193.9 476.2,205.6 479.3,212.2 482.5,207.9 485.6,209.0 488.7,224.1 491.9,218.4 495.0,204.6 498.1,196.5 501.3,189.6 504.4,187.0 507.5,194.8 510.7,187.6 513.8,191.6 517.0,204.7 520.1,202.7 523.2,208.9 526.4,219.1 529.5,233.1 532.6,229.3 535.8,219.1 538.9,215.9 542.0,218.5 545.2,223.8 548.3,223.0 551.4,223.2 554.6,219.4 557.7,228.9 560.8,230.9 564.0,241.2 567.1,239.2 570.3,224.7 573.4,220.3 576.5,212.5 579.7,198.6 582.8,201.5 585.9,193.1 589.1,201.2 592.2,195.6 595.3,187.0 598.5,186.8 601.6,175.1 604.7,169.6 607.9,166.9 611.0,168.9 614.1,175.5 617.3,166.1 620.4,164.1 623.6,160.9 626.7,153.8 629.8,149.0 633.0,146.2 636.1,155.7 639.2,150.0 642.4,148.9 645.5,145.6 648.6,145.8 651.8,129.2 654.9,112.2 658.0,110.7 661.2,108.6 664.3,88.9 667.4,77.5 670.6,82.2 673.7,93.8 676.9,102.5 680.0,112.2 683.1,116.3 686.3,116.5 689.4,133.6 692.5,125.8 695.7,145.2 698.8,149.4 701.9,158.9 705.1,190.5 708.2,210.9 711.3,217.9 714.5,221.9 717.6,226.6 720.8,216.1 723.9,206.5 727.0,202.0 730.2,183.4 733.3,176.1 736.4,211.8 739.6,236.1 742.7,237.6 745.8,248.1 749.0,257.1 752.1,249.8 755.2,247.2 758.4,234.9 761.5,246.2 764.6,242.7 767.8,223.5 770.9,206.0 774.1,196.4 777.2,179.5 780.3,196.4 783.5,186.1 786.6,187.5 789.7,192.3 792.9,201.7 796.0,191.2"/>
<text x="78" y="392" font-size="11" fill="#16a34a">Total return +38.0%</text><text x="268" y="392" font-size="11" fill="#2563eb">Price-only +38.0%</text><text x="78" y="362" font-size="11" text-anchor="middle" fill="#64748b">2025-08</text><text x="257" y="362" font-size="11" text-anchor="middle" fill="#64748b">2025-11</text><text x="439" y="362" font-size="11" text-anchor="middle" fill="#64748b">2026-01</text><text x="617" y="362" font-size="11" text-anchor="middle" fill="#64748b">2026-04</text><text x="796" y="362" font-size="11" text-anchor="middle" fill="#64748b">2026-07</text></svg>