<svg xmlns="http://www.w3.org/2000/svg" width="720" height="360" viewBox="0 0 720 360">
  <rect width="720" height="360" fill="#fafafa"/>
  <text x="56" y="22" font-size="13" font-family="sans-serif" fill="#222">MIAX total return (rebased 100) · cumulative distributions $0.00/sh · market cap n/a</text>
  <line x1="56" y1="308" x2="696" y2="308" stroke="#ccc"/>
  <line x1="56" y1="48" x2="56" y2="308" stroke="#ccc"/>
  <polyline fill="none" stroke="#2563eb" stroke-width="2" points="56.0,290.1 59.1,286.8 62.2,273.6 65.3,271.6 68.4,272.6 71.5,259.2 74.6,266.2 77.6,268.2 80.7,262.9 83.8,256.1 86.9,249.3 90.0,231.3 93.1,242.1 96.2,250.2 99.3,249.2 102.4,253.9 105.5,229.7 108.6,233.7 111.7,237.9 114.7,233.0 117.8,232.4 120.9,234.1 124.0,227.6 127.1,226.5 130.2,220.3 133.3,227.6 136.4,214.7 139.5,214.0 142.6,196.4 145.7,193.8 148.8,200.0 151.8,203.9 154.9,208.3 158.0,219.3 161.1,201.7 164.2,192.6 167.3,178.7 170.4,172.6 173.5,170.4 176.6,185.3 179.7,180.1 182.8,183.8 185.9,180.0 188.9,182.0 192.0,191.1 195.1,194.0 198.2,184.4 201.3,197.9 204.4,195.3 207.5,189.1 210.6,183.0 213.7,173.9 216.8,183.4 219.9,183.5 223.0,178.5 226.0,178.8 229.1,163.0 232.2,173.4 235.3,160.5 238.4,150.3 241.5,135.8 244.6,133.8 247.7,129.1 250.8,116.4 253.9,136.4 257.0,137.3 260.1,152.1 263.1,153.0 266.2,173.1 269.3,188.6 272.4,175.5 275.5,169.9 278.6,175.6 281.7,160.2 284.8,162.4 287.9,171.9 291.0,164.3 294.1,169.9 297.2,163.7 300.3,175.7 303.3,162.8 306.4,160.7 309.5,188.0 312.6,195.3 315.7,187.5 318.8,188.4 321.9,181.7 325.0,178.0 328.1,174.0 331.2,170.9 334.3,148.2 337.4,147.1 340.4,148.6 343.5,153.3 346.6,157.9 349.7,161.8 352.8,172.9 355.9,179.2 359.0,156.8 362.1,174.1 365.2,189.9 368.3,186.8 371.4,190.5 374.5,189.3 377.5,194.7 380.6,186.8 383.7,188.6 386.8,180.3 389.9,185.8 393.0,176.7 396.1,171.4 399.2,189.6 402.3,184.0 405.4,198.4 408.5,200.0 411.6,196.0 414.6,195.7 417.7,195.3 420.8,201.4 423.9,204.9 427.0,195.5 430.1,191.4 433.2,199.1 436.3,205.0 439.4,200.9 442.5,197.0 445.6,192.2 448.7,202.9 451.7,208.8 454.8,205.1 457.9,206.0 461.0,219.2 464.1,214.3 467.2,202.0 470.3,194.7 473.4,188.2 476.5,185.7 479.6,193.0 482.7,186.3 485.8,190.1 488.9,202.1 491.9,200.3 495.0,205.9 498.1,214.9 501.2,226.9 504.3,223.7 507.4,214.9 510.5,212.1 513.6,214.4 516.7,219.0 519.8,218.3 522.9,218.4 526.0,215.2 529.0,223.3 532.1,225.1 535.2,233.6 538.3,232.0 541.4,219.8 544.5,216.0 547.6,209.1 550.7,196.5 553.8,199.2 556.9,191.5 560.0,199.0 563.1,193.8 566.1,185.7 569.2,185.6 572.3,174.3 575.4,168.9 578.5,166.1 581.6,168.2 584.7,174.7 587.8,165.4 590.9,163.4 594.0,160.1 597.1,152.8 600.2,147.9 603.2,144.9 606.3,154.8 609.4,149.0 612.5,147.8 615.6,144.3 618.7,144.5 621.8,126.6 624.9,107.6 628.0,105.9 631.1,103.5 634.2,79.9 637.3,65.9 640.3,71.8 643.4,85.9 646.5,96.2 649.6,107.6 652.7,112.3 655.8,112.5 658.9,131.5 662.0,122.9 665.1,143.9 668.2,148.3 671.3,158.2 674.4,189.0 677.4,207.7 680.5,213.9 683.6,217.3 686.7,221.4 689.8,212.3 692.9,203.8 696.0,190.0"/>
  <polyline fill="none" stroke="#16a34a" stroke-width="2" points="56.0,290.1 59.1,286.8 62.2,273.6 65.3,271.6 68.4,272.6 71.5,259.2 74.6,266.2 77.6,268.2 80.7,262.9 83.8,256.1 86.9,249.3 90.0,231.3 93.1,242.1 96.2,250.2 99.3,249.2 102.4,253.9 105.5,229.7 108.6,233.7 111.7,237.9 114.7,233.0 117.8,232.4 120.9,234.1 124.0,227.6 127.1,226.5 130.2,220.3 133.3,227.6 136.4,214.7 139.5,214.0 142.6,196.4 145.7,193.8 148.8,200.0 151.8,203.9 154.9,208.3 158.0,219.3 161.1,201.7 164.2,192.6 167.3,178.7 170.4,172.6 173.5,170.4 176.6,185.3 179.7,180.1 182.8,183.8 185.9,180.0 188.9,182.0 192.0,191.1 195.1,194.0 198.2,184.4 201.3,197.9 204.4,195.3 207.5,189.1 210.6,183.0 213.7,173.9 216.8,183.4 219.9,183.5 223.0,178.5 226.0,178.8 229.1,163.0 232.2,173.4 235.3,160.5 238.4,150.3 241.5,135.8 244.6,133.8 247.7,129.1 250.8,116.4 253.9,136.4 257.0,137.3 260.1,152.1 263.1,153.0 266.2,173.1 269.3,188.6 272.4,175.5 275.5,169.9 278.6,175.6 281.7,160.2 284.8,162.4 287.9,171.9 291.0,164.3 294.1,169.9 297.2,163.7 300.3,175.7 303.3,162.8 306.4,160.7 309.5,188.0 312.6,195.3 315.7,187.5 318.8,188.4 321.9,181.7 325.0,178.0 328.1,174.0 331.2,170.9 334.3,148.2 337.4,147.1 340.4,148.6 343.5,153.3 346.6,157.9 349.7,161.8 352.8,172.9 355.9,179.2 359.0,156.8 362.1,174.1 365.2,189.9 368.3,186.8 371.4,190.5 374.5,189.3 377.5,194.7 380.6,186.8 383.7,188.6 386.8,180.3 389.9,185.8 393.0,176.7 396.1,171.4 399.2,189.6 402.3,184.0 405.4,198.4 408.5,200.0 411.6,196.0 414.6,195.7 417.7,195.3 420.8,201.4 423.9,204.9 427.0,195.5 430.1,191.4 433.2,199.1 436.3,205.0 439.4,200.9 442.5,197.0 445.6,192.2 448.7,202.9 451.7,208.8 454.8,205.1 457.9,206.0 461.0,219.2 464.1,214.3 467.2,202.0 470.3,194.7 473.4,188.2 476.5,185.7 479.6,193.0 482.7,186.3 485.8,190.1 488.9,202.1 491.9,200.3 495.0,205.9 498.1,214.9 501.2,226.9 504.3,223.7 507.4,214.9 510.5,212.1 513.6,214.4 516.7,219.0 519.8,218.3 522.9,218.4 526.0,215.2 529.0,223.3 532.1,225.1 535.2,233.6 538.3,232.0 541.4,219.8 544.5,216.0 547.6,209.1 550.7,196.5 553.8,199.2 556.9,191.5 560.0,199.0 563.1,193.8 566.1,185.7 569.2,185.6 572.3,174.3 575.4,168.9 578.5,166.1 581.6,168.2 584.7,174.7 587.8,165.4 590.9,163.4 594.0,160.1 597.1,152.8 600.2,147.9 603.2,144.9 606.3,154.8 609.4,149.0 612.5,147.8 615.6,144.3 618.7,144.5 621.8,126.6 624.9,107.6 628.0,105.9 631.1,103.5 634.2,79.9 637.3,65.9 640.3,71.8 643.4,85.9 646.5,96.2 649.6,107.6 652.7,112.3 655.8,112.5 658.9,131.5 662.0,122.9 665.1,143.9 668.2,148.3 671.3,158.2 674.4,189.0 677.4,207.7 680.5,213.9 683.6,217.3 686.7,221.4 689.8,212.3 692.9,203.8 696.0,190.0"/>
  <text x="60" y="62" font-size="11" fill="#2563eb">Price index</text>
  <text x="146" y="62" font-size="11" fill="#16a34a">Total return (price + distributions)</text>
  <text x="56" y="348" font-size="11" text-anchor="middle" fill="#444">2025-08</text><text x="217" y="348" font-size="11" text-anchor="middle" fill="#444">2025-10</text><text x="378" y="348" font-size="11" text-anchor="middle" fill="#444">2026-01</text><text x="538" y="348" font-size="11" text-anchor="middle" fill="#444">2026-03</text><text x="696" y="348" font-size="11" text-anchor="middle" fill="#444">2026-06</text>
</svg>
