<svg xmlns="http://www.w3.org/2000/svg" width="720" height="360" viewBox="0 0 720 360">
  <rect width="720" height="360" fill="#fafafa"/>
  <text x="56" y="22" font-size="13" font-family="sans-serif" fill="#222">MIAX total return (rebased 100) · cumulative distributions $0.00/sh · market cap n/a</text>
  <line x1="56" y1="308" x2="696" y2="308" stroke="#ccc"/>
  <line x1="56" y1="48" x2="56" y2="308" stroke="#ccc"/>
  <polyline fill="none" stroke="#2563eb" stroke-width="2" points="56.0,290.1 120.0,228.0 184.0,148.2 248.0,103.9 312.0,132.5 376.0,193.9 440.0,173.7 504.0,259.0 568.0,83.5 632.0,65.9 696.0,188.9"/>
  <polyline fill="none" stroke="#16a34a" stroke-width="2" points="56.0,290.1 120.0,228.0 184.0,148.2 248.0,103.9 312.0,132.5 376.0,193.9 440.0,173.7 504.0,259.0 568.0,83.5 632.0,65.9 696.0,188.9"/>
  <text x="60" y="62" font-size="11" fill="#2563eb">Price index</text>
  <text x="146" y="62" font-size="11" fill="#16a34a">Total return (price + distributions)</text>
  <text x="56" y="348" font-size="11" text-anchor="middle" fill="#444">2025-08</text><text x="184" y="348" font-size="11" text-anchor="middle" fill="#444">2025-10</text><text x="376" y="348" font-size="11" text-anchor="middle" fill="#444">2026-01</text><text x="568" y="348" font-size="11" text-anchor="middle" fill="#444">2026-04</text><text x="696" y="348" font-size="11" text-anchor="middle" fill="#444">2026-06</text>
</svg>
