<svg xmlns="http://www.w3.org/2000/svg" width="720" height="360" viewBox="0 0 720 360">
  <rect width="720" height="360" fill="#fafafa"/>
  <text x="56" y="22" font-size="13" font-family="sans-serif" fill="#222">SNOW total return (rebased 100) · cumulative distributions $0.00/sh · market cap n/a</text>
  <line x1="56" y1="308" x2="696" y2="308" stroke="#ccc"/>
  <line x1="56" y1="48" x2="56" y2="308" stroke="#ccc"/>
  <polyline fill="none" stroke="#2563eb" stroke-width="2" points="56.0,179.0 56.4,199.2 56.9,189.6 57.3,198.2 57.8,193.3 58.2,206.9 58.7,199.8 59.1,198.0 59.6,181.7 60.0,175.0 60.4,181.2 60.9,187.0 61.3,199.5 61.8,189.6 62.2,185.7 62.7,185.0 63.1,189.5 63.6,191.2 64.0,186.6 64.4,182.3 64.9,187.2 65.3,188.9 65.8,187.7 66.2,184.5 66.7,180.6 67.1,166.2 67.6,146.0 68.0,170.5 68.4,180.9 68.9,169.2 69.3,164.8 69.8,169.9 70.2,182.0 70.7,180.3 71.1,172.7 71.6,171.4 72.0,171.9 72.4,170.5 72.9,189.8 73.3,192.9 73.8,189.1 74.2,193.2 74.7,193.6 75.1,188.2 75.6,183.5 76.0,173.9 76.4,171.3 76.9,169.8 77.3,163.5 77.8,157.5 78.2,141.5 78.7,121.8 79.1,124.0 79.6,139.5 80.0,149.4 80.4,113.3 80.9,76.8 81.3,75.8 81.8,75.0 82.2,89.3 82.7,87.8 83.1,102.6 83.6,121.5 84.0,121.9 84.4,120.9 84.9,124.3 85.3,117.6 85.8,105.7 86.2,112.3 86.7,119.6 87.1,126.2 87.6,141.6 88.0,140.7 88.4,143.1 88.9,158.0 89.3,160.4 89.8,156.1 90.2,168.2 90.7,140.6 91.1,143.7 91.6,149.0 92.0,148.9 92.4,146.4 92.9,140.9 93.3,150.4 93.8,154.3 94.2,157.6 94.7,154.2 95.1,154.7 95.6,153.5 96.0,158.3 96.4,169.6 96.9,164.3 97.3,164.8 97.8,157.5 98.2,143.2 98.7,140.2 99.1,141.0 99.6,139.2 100.0,140.3 100.4,132.9 100.9,139.3 101.3,144.8 101.8,144.2 102.2,148.0 102.7,152.4 103.1,151.6 103.6,151.4 104.0,167.0 104.4,167.4 104.9,164.0 105.3,174.1 105.8,174.7 106.2,165.1 106.7,166.3 107.1,184.3 107.6,182.8 108.0,189.8 108.4,209.5 108.9,197.3 109.3,199.5 109.8,191.3 110.2,197.3 110.7,190.6 111.1,195.6 111.6,197.0 112.0,207.4 112.4,204.3 112.9,204.3 113.3,204.9 113.8,213.6 114.2,207.2 114.7,193.5 115.1,202.2 115.6,203.3 116.0,197.8 116.4,192.1 116.9,195.5 117.3,192.7 117.8,194.2 118.2,194.4 118.7,199.7 119.1,194.7 119.6,191.1 120.0,197.9 120.4,192.4 120.9,195.2 121.3,198.0 121.8,200.9 122.2,196.2 122.7,196.2 123.1,193.0 123.6,191.4 124.0,191.0 124.4,192.2 124.9,197.6 125.3,196.1 125.8,202.1 126.2,206.1 126.7,209.7 127.1,220.3 127.6,215.6 128.0,224.9 128.4,219.1 128.9,226.8 129.3,229.2 129.8,212.6 130.2,210.5 130.7,202.2 131.1,198.2 131.6,196.8 132.0,194.7 132.4,194.3 132.9,197.3 133.3,193.3 133.8,185.7 134.2,191.1 134.7,189.0 135.1,187.2 135.6,190.8 136.0,187.7 136.4,181.6 136.9,181.7 137.3,184.3 137.8,182.9 138.2,189.2 138.7,186.4 139.1,188.6 139.6,190.5 140.0,185.4 140.4,182.5 140.9,183.3 141.3,182.5 141.8,182.8 142.2,181.0 142.7,184.2 143.1,183.8 143.6,185.2 144.0,188.3 144.4,192.1 144.9,191.7 145.3,190.4 145.8,182.9 146.2,181.8 146.7,167.1 147.1,169.0 147.6,170.8 148.0,180.1 148.4,181.2 148.9,181.4 149.3,180.3 149.8,177.2 150.2,174.9 150.7,168.8 151.1,170.6 151.6,167.6 152.0,172.3 152.4,167.2 152.9,168.0 153.3,170.0 153.8,168.0 154.2,155.6 154.7,164.1 155.1,161.4 155.6,161.0 156.0,159.1 156.4,163.3 156.9,162.2 157.3,154.3 157.8,150.3 158.2,157.4 158.7,160.6 159.1,159.1 159.6,159.5 160.0,169.3 160.4,161.8 160.9,158.0 161.3,156.2 161.8,139.8 162.2,145.5 162.7,145.4 163.1,140.5 163.6,143.0 164.0,138.5 164.4,136.1 164.9,134.2 165.3,130.0 165.8,128.5 166.2,129.6 166.7,129.7 167.1,129.1 167.6,125.4 168.0,125.8 168.4,126.4 168.9,136.1 169.3,132.9 169.8,132.2 170.2,127.4 170.7,131.2 171.1,135.2 171.6,145.3 172.0,148.5 172.4,141.9 172.9,140.9 173.3,147.9 173.8,143.6 174.2,136.4 174.7,128.5 175.1,133.5 175.6,136.3 176.0,133.9 176.4,122.5 176.9,119.2 177.3,118.1 177.8,114.8 178.2,113.4 178.7,117.7 179.1,111.7 179.6,113.4 180.0,112.1 180.4,111.5 180.9,107.8 181.3,107.1 181.8,102.6 182.2,99.7 182.7,98.2 183.1,103.2 183.6,100.4 184.0,94.3 184.4,89.7 184.9,85.2 185.3,97.1 185.8,91.0 186.2,77.7 186.7,72.2 187.1,65.9 187.6,68.9 188.0,69.3 188.4,73.4 188.9,101.0 189.3,110.5 189.8,101.5 190.2,96.0 190.7,94.3 191.1,113.1 191.6,135.4 192.0,97.7 192.4,109.3 192.9,112.0 193.3,95.5 193.8,90.1 194.2,96.9 194.7,89.4 195.1,102.6 195.6,105.1 196.0,97.7 196.4,124.7 196.9,119.1 197.3,120.0 197.8,101.9 198.2,99.4 198.7,106.2 199.1,104.1 199.6,113.1 200.0,110.0 200.4,112.7 200.9,114.2 201.3,119.3 201.8,131.9 202.2,146.2 202.7,146.0 203.1,144.0 203.6,141.7 204.0,142.8 204.4,138.3 204.9,150.1 205.3,151.7 205.8,153.2 206.2,157.1 206.7,159.6 207.1,168.6 207.6,161.0 208.0,171.7 208.4,179.6 208.9,186.0 209.3,179.3 209.8,162.2 210.2,156.2 210.7,168.0 211.1,177.2 211.6,162.3 212.0,149.0 212.4,148.7 212.9,137.7 213.3,135.3 213.8,148.6 214.2,150.6 214.7,143.8 215.1,140.2 215.6,154.3 216.0,163.8 216.4,168.4 216.9,180.0 217.3,166.8 217.8,167.2 218.2,170.0 218.7,171.9 219.1,170.8 219.6,201.8 220.0,212.8 220.4,225.5 220.9,226.6 221.3,214.4 221.8,221.8 222.2,235.2 222.7,245.6 223.1,242.5 223.6,221.8 224.0,213.4 224.4,202.7 224.9,210.3 225.3,201.1 225.8,203.2 226.2,199.1 226.7,205.1 227.1,192.8 227.6,189.9 228.0,196.0 228.4,197.9 228.9,193.6 229.3,188.7 229.8,199.5 230.2,211.0 230.7,209.6 231.1,213.8 231.6,213.7 232.0,211.8 232.4,209.2 232.9,221.2 233.3,226.0 233.8,222.2 234.2,230.9 234.7,239.2 235.1,240.2 235.6,230.2 236.0,236.4 236.4,239.3 236.9,231.1 237.3,242.0 237.8,237.2 238.2,238.2 238.7,230.9 239.1,246.0 239.6,254.4 240.0,263.5 240.4,263.2 240.9,271.5 241.3,265.6 241.8,252.0 242.2,262.6 242.7,261.6 243.1,267.8 243.6,260.8 244.0,264.9 244.4,266.9 244.9,274.0 245.3,271.6 245.8,276.1 246.2,273.8 246.7,275.5 247.1,276.6 247.6,267.4 248.0,273.8 248.4,275.2 248.9,272.7 249.3,269.4 249.8,271.2 250.2,279.5 250.7,286.4 251.1,286.0 251.6,279.4 252.0,285.6 252.4,281.8 252.9,279.4 253.3,275.7 253.8,263.7 254.2,257.2 254.7,259.8 255.1,263.2 255.6,263.7 256.0,266.8 256.4,262.6 256.9,254.7 257.3,255.3 257.8,251.5 258.2,251.0 258.7,254.3 259.1,261.9 259.6,258.7 260.0,261.3 260.4,260.0 260.9,261.1 261.3,261.1 261.8,253.1 262.2,252.5 262.7,263.8 263.1,265.8 263.6,273.6 264.0,265.1 264.4,263.5 264.9,258.5 265.3,257.7 265.8,255.8 266.2,249.0 266.7,250.2 267.1,246.5 267.6,242.5 268.0,250.3 268.4,239.8 268.9,244.7 269.3,244.1 269.8,242.8 270.2,245.1 270.7,249.8 271.1,249.4 271.6,255.4 272.0,257.2 272.4,256.1 272.9,251.2 273.3,223.0 273.8,221.9 274.2,230.6 274.7,231.9 275.1,234.8 275.6,240.7 276.0,242.0 276.4,243.3 276.9,237.2 277.3,235.9 277.8,229.2 278.2,223.9 278.7,229.8 279.1,221.7 279.6,222.9 280.0,231.9 280.4,229.6 280.9,233.4 281.3,236.5 281.8,241.8 282.2,241.5 282.7,246.9 283.1,243.2 283.6,240.2 284.0,242.9 284.4,243.2 284.9,241.2 285.3,232.6 285.8,231.4 286.2,228.7 286.7,239.2 287.1,251.5 287.6,255.7 288.0,251.9 288.4,253.6 288.9,256.6 289.3,245.0 289.8,240.7 290.2,242.3 290.7,240.0 291.1,237.7 291.6,239.5 292.0,234.1 292.4,243.5 292.9,243.8 293.3,251.0 293.8,250.5 294.2,251.1 294.7,260.1 295.1,258.0 295.6,271.9 296.0,274.4 296.4,274.3 296.9,276.5 297.3,261.9 297.8,251.2 298.2,252.4 298.7,248.1 299.1,255.2 299.6,260.2 300.0,261.3 300.4,265.2 300.9,263.5 301.3,261.1 301.8,262.4 302.2,265.2 302.7,268.7 303.1,263.8 303.6,255.3 304.0,258.6 304.4,269.4 304.9,268.5 305.3,268.0 305.8,263.9 306.2,262.6 306.7,257.7 307.1,258.0 307.6,259.0 308.0,264.0 308.4,264.2 308.9,267.5 309.3,265.1 309.8,260.9 310.2,265.8 310.7,267.2 311.1,267.8 311.6,267.3 312.0,264.2 312.4,263.3 312.9,269.5 313.3,273.4 313.8,280.1 314.2,278.2 314.7,270.3 315.1,267.6 315.6,266.3 316.0,264.4 316.4,265.4 316.9,261.7 317.3,266.0 317.8,269.7 318.2,262.4 318.7,258.2 319.1,261.6 319.6,262.7 320.0,256.5 320.4,251.3 320.9,256.2 321.3,253.5 321.8,246.8 322.2,237.0 322.7,248.2 323.1,252.2 323.6,250.2 324.0,251.5 324.4,248.7 324.9,252.8 325.3,249.3 325.8,242.3 326.2,239.1 326.7,247.4 327.1,255.3 327.6,257.4 328.0,257.9 328.4,256.0 328.9,259.6 329.3,254.9 329.8,255.1 330.2,255.0 330.7,269.7 331.1,264.4 331.6,264.5 332.0,264.2 332.4,264.0 332.9,268.9 333.3,272.6 333.8,267.8 334.2,266.2 334.7,266.4 335.1,266.9 335.6,269.4 336.0,269.5 336.4,264.9 336.9,269.4 337.3,265.6 337.8,268.7 338.2,269.9 338.7,270.0 339.1,268.0 339.6,264.4 340.0,255.1 340.4,258.4 340.9,254.3 341.3,261.1 341.8,261.7 342.2,260.1 342.7,266.7 343.1,266.3 343.6,265.0 344.0,264.4 344.4,262.0 344.9,261.5 345.3,262.6 345.8,264.0 346.2,262.1 346.7,264.1 347.1,269.5 347.6,260.7 348.0,259.3 348.4,259.9 348.9,260.7 349.3,262.3 349.8,262.5 350.2,254.4 350.7,255.2 351.1,250.4 351.6,247.8 352.0,241.6 352.4,243.1 352.9,245.1 353.3,241.6 353.8,241.8 354.2,240.0 354.7,232.2 355.1,237.9 355.6,236.6 356.0,239.2 356.4,237.7 356.9,260.0 357.3,258.4 357.8,251.8 358.2,246.7 358.7,245.2 359.1,239.1 359.6,234.1 360.0,233.8 360.4,243.8 360.9,239.8 361.3,242.6 361.8,241.7 362.2,240.5 362.7,234.7 363.1,227.1 363.6,232.3 364.0,236.2 364.4,240.5 364.9,236.6 365.3,236.8 365.8,243.2 366.2,237.8 366.7,232.5 367.1,238.7 367.6,238.6 368.0,237.8 368.4,241.2 368.9,241.4 369.3,242.7 369.8,243.4 370.2,241.6 370.7,241.6 371.1,232.3 371.6,234.9 372.0,232.3 372.4,229.2 372.9,231.3 373.3,238.3 373.8,238.6 374.2,239.5 374.7,236.0 375.1,243.1 375.6,244.4 376.0,239.4 376.4,237.2 376.9,238.1 377.3,247.2 377.8,250.0 378.2,245.7 378.7,245.7 379.1,253.6 379.6,255.3 380.0,254.6 380.4,255.8 380.9,256.2 381.3,257.6 381.8,258.6 382.2,260.7 382.7,260.2 383.1,257.0 383.6,256.4 384.0,254.0 384.4,260.2 384.9,256.5 385.3,259.4 385.8,255.9 386.2,254.3 386.7,253.2 387.1,253.0 387.6,251.2 388.0,252.7 388.4,250.9 388.9,246.2 389.3,243.0 389.8,245.5 390.2,246.7 390.7,248.5 391.1,248.9 391.6,249.7 392.0,251.0 392.4,251.8 392.9,259.1 393.3,258.6 393.8,258.6 394.2,260.7 394.7,260.3 395.1,257.5 395.6,256.3 396.0,257.5 396.4,259.3 396.9,256.9 397.3,258.2 397.8,250.8 398.2,249.4 398.7,248.4 399.1,248.1 399.6,250.8 400.0,252.9 400.4,249.1 400.9,251.2 401.3,255.9 401.8,255.8 402.2,260.2 402.7,259.5 403.1,257.5 403.6,264.2 404.0,265.4 404.4,263.5 404.9,262.9 405.3,262.1 405.8,262.8 406.2,263.9 406.7,258.4 407.1,262.8 407.6,251.1 408.0,251.8 408.4,253.6 408.9,250.5 409.3,251.8 409.8,246.3 410.2,248.4 410.7,250.0 411.1,249.3 411.6,245.6 412.0,245.7 412.4,243.9 412.9,242.2 413.3,242.9 413.8,241.9 414.2,239.1 414.7,229.6 415.1,230.9 415.6,229.1 416.0,230.8 416.4,232.1 416.9,229.9 417.3,227.3 417.8,225.6 418.2,225.2 418.7,222.8 419.1,219.5 419.6,221.0 420.0,221.0 420.4,220.9 420.9,224.6 421.3,222.7 421.8,223.5 422.2,221.3 422.7,221.2 423.1,219.3 423.6,221.0 424.0,228.5 424.4,232.3 424.9,232.6 425.3,228.5 425.8,223.0 426.2,222.6 426.7,222.2 427.1,223.5 427.6,226.9 428.0,229.4 428.4,229.3 428.9,230.4 429.3,225.5 429.8,220.9 430.2,215.9 430.7,217.3 431.1,215.6 431.6,218.3 432.0,212.9 432.4,215.4 432.9,223.5 433.3,220.2 433.8,205.9 434.2,208.3 434.7,209.7 435.1,206.3 435.6,202.7 436.0,194.8 436.4,195.6 436.9,199.1 437.3,192.7 437.8,195.4 438.2,197.0 438.7,204.9 439.1,207.8 439.6,200.6 440.0,197.8 440.4,196.6 440.9,194.2 441.3,197.3 441.8,229.2 442.2,230.3 442.7,237.1 443.1,244.8 443.6,245.4 444.0,244.3 444.4,248.9 444.9,249.0 445.3,249.3 445.8,249.0 446.2,251.6 446.7,253.1 447.1,253.6 447.6,252.5 448.0,248.4 448.4,252.0 448.9,251.5 449.3,252.2 449.8,252.3 450.2,250.7 450.7,249.5 451.1,250.4 451.6,253.7 452.0,256.1 452.4,257.4 452.9,255.5 453.3,254.7 453.8,254.1 454.2,256.1 454.7,251.3 455.1,251.9 455.6,256.9 456.0,258.2 456.4,259.3 456.9,259.6 457.3,261.9 457.8,260.5 458.2,257.5 458.7,254.6 459.1,256.5 459.6,252.2 460.0,252.7 460.4,254.4 460.9,253.7 461.3,252.5 461.8,251.3 462.2,248.0 462.7,251.5 463.1,252.5 463.6,253.9 464.0,252.9 464.4,250.9 464.9,250.0 465.3,247.4 465.8,246.9 466.2,249.3 466.7,247.1 467.1,248.7 467.6,248.2 468.0,254.9 468.4,253.7 468.9,257.8 469.3,259.8 469.8,265.3 470.2,269.0 470.7,268.4 471.1,268.3 471.6,270.4 472.0,272.1 472.4,272.8 472.9,276.2 473.3,274.8 473.8,273.4 474.2,276.8 474.7,275.8 475.1,273.2 475.6,275.5 476.0,276.3 476.4,275.4 476.9,277.7 477.3,278.1 477.8,274.4 478.2,270.7 478.7,269.8 479.1,263.9 479.6,264.6 480.0,263.9 480.4,263.7 480.9,264.8 481.3,268.0 481.8,268.0 482.2,267.4 482.7,269.3 483.1,270.8 483.6,268.9 484.0,269.8 484.4,273.8 484.9,273.8 485.3,272.8 485.8,271.7 486.2,277.0 486.7,274.0 487.1,274.5 487.6,274.0 488.0,274.5 488.4,273.4 488.9,278.1 489.3,281.5 489.8,287.0 490.2,285.3 490.7,285.1 491.1,280.1 491.6,278.0 492.0,279.0 492.4,275.9 492.9,275.7 493.3,275.9 493.8,275.2 494.2,272.6 494.7,272.2 495.1,269.8 495.6,285.0 496.0,284.5 496.4,282.9 496.9,284.7 497.3,287.8 497.8,285.8 498.2,285.7 498.7,288.7 499.1,288.4 499.6,287.6 500.0,290.1 500.4,289.0 500.9,288.8 501.3,287.4 501.8,286.7 502.2,286.2 502.7,286.8 503.1,287.7 503.6,288.4 504.0,285.9 504.4,288.8 504.9,286.5 505.3,287.1 505.8,287.0 506.2,287.1 506.7,286.0 507.1,285.3 507.6,288.8 508.0,289.2 508.4,288.6 508.9,285.4 509.3,286.0 509.8,286.3 510.2,281.6 510.7,278.4 511.1,278.2 511.6,278.9 512.0,279.2 512.4,282.2 512.9,282.1 513.3,281.7 513.8,281.7 514.2,284.8 514.7,286.2 515.1,285.2 515.6,284.4 516.0,283.4 516.4,282.6 516.9,282.1 517.3,285.3 517.8,284.8 518.2,286.1 518.7,284.0 519.1,280.2 519.6,278.6 520.0,280.6 520.4,278.7 520.9,277.2 521.3,273.1 521.8,274.2 522.2,276.8 522.7,275.7 523.1,273.5 523.6,274.4 524.0,242.1 524.4,245.1 524.9,242.0 525.3,242.1 525.8,240.3 526.2,239.5 526.7,241.3 527.1,238.6 527.6,230.5 528.0,233.1 528.4,232.7 528.9,234.9 529.3,241.9 529.8,241.6 530.2,243.1 530.7,244.9 531.1,241.2 531.6,242.5 532.0,248.8 532.4,247.5 532.9,246.0 533.3,249.7 533.8,248.4 534.2,248.1 534.7,251.8 535.1,254.6 535.6,255.0 536.0,252.7 536.4,249.1 536.9,248.4 537.3,251.6 537.8,250.0 538.2,248.9 538.7,248.9 539.1,248.2 539.6,246.4 540.0,244.9 540.4,242.5 540.9,240.4 541.3,237.4 541.8,239.3 542.2,240.0 542.7,238.9 543.1,229.4 543.6,233.3 544.0,236.0 544.4,234.3 544.9,233.5 545.3,228.5 545.8,228.7 546.2,230.6 546.7,232.4 547.1,230.8 547.6,232.8 548.0,230.0 548.4,225.8 548.9,229.7 549.3,225.7 549.8,230.5 550.2,231.7 550.7,237.1 551.1,242.4 551.6,247.6 552.0,246.0 552.4,240.3 552.9,237.7 553.3,240.3 553.8,240.4 554.2,237.5 554.7,253.7 555.1,251.6 555.6,260.2 556.0,258.5 556.4,256.6 556.9,258.5 557.3,253.7 557.8,253.5 558.2,255.1 558.7,253.8 559.1,252.9 559.6,252.0 560.0,248.3 560.4,248.6 560.9,251.0 561.3,253.1 561.8,257.9 562.2,261.3 562.7,258.8 563.1,255.4 563.6,266.1 564.0,273.3 564.4,272.9 564.9,271.0 565.3,257.5 565.8,262.6 566.2,262.3 566.7,262.6 567.1,261.0 567.6,261.4 568.0,263.4 568.4,268.3 568.9,265.9 569.3,260.4 569.8,251.8 570.2,252.0 570.7,251.6 571.1,250.5 571.6,251.2 572.0,246.7 572.4,244.9 572.9,244.7 573.3,244.3 573.8,242.7 574.2,240.1 574.7,240.0 575.1,235.1 575.6,234.7 576.0,234.4 576.4,233.2 576.9,233.1 577.3,233.9 577.8,233.3 578.2,236.2 578.7,217.8 579.1,220.2 579.6,215.3 580.0,216.8 580.4,218.4 580.9,215.9 581.3,212.4 581.8,213.2 582.2,212.9 582.7,212.5 583.1,211.9 583.6,211.9 584.0,213.9 584.4,213.6 584.9,211.6 585.3,213.9 585.8,213.2 586.2,213.0 586.7,211.0 587.1,211.0 587.6,209.7 588.0,202.5 588.4,203.8 588.9,203.4 589.3,202.9 589.8,202.0 590.2,208.0 590.7,206.9 591.1,203.8 591.6,200.5 592.0,202.2 592.4,203.5 592.9,209.2 593.3,211.9 593.8,209.9 594.2,210.4 594.7,211.1 595.1,211.3 595.6,207.3 596.0,208.2 596.4,210.8 596.9,210.6 597.3,208.7 597.8,205.3 598.2,205.9 598.7,205.9 599.1,204.7 599.6,202.2 600.0,216.4 600.4,213.7 600.9,215.8 601.3,212.1 601.8,215.3 602.2,226.5 602.7,226.5 603.1,225.5 603.6,222.6 604.0,224.1 604.4,220.9 604.9,221.5 605.3,225.8 605.8,224.2 606.2,224.3 606.7,222.6 607.1,224.3 607.6,224.5 608.0,219.9 608.4,188.9 608.9,190.7 609.3,194.5 609.8,197.8 610.2,203.5 610.7,200.7 611.1,199.9 611.6,200.7 612.0,200.4 612.4,201.5 612.9,204.0 613.3,200.5 613.8,208.0 614.2,206.5 614.7,203.3 615.1,196.9 615.6,197.6 616.0,202.2 616.4,203.0 616.9,203.7 617.3,201.4 617.8,200.9 618.2,200.7 618.7,196.9 619.1,189.2 619.6,193.4 620.0,187.7 620.4,193.6 620.9,181.8 621.3,181.5 621.8,188.0 622.2,184.1 622.7,189.0 623.1,189.0 623.6,189.6 624.0,189.1 624.4,185.3 624.9,183.9 625.3,188.4 625.8,179.7 626.2,175.9 626.7,169.8 627.1,169.0 627.6,166.9 628.0,165.8 628.4,163.0 628.9,161.3 629.3,170.2 629.8,170.7 630.2,170.7 630.7,172.2 631.1,167.8 631.6,165.7 632.0,166.8 632.4,176.7 632.9,176.6 633.3,179.9 633.8,178.5 634.2,179.7 634.7,186.1 635.1,194.2 635.6,188.1 636.0,181.7 636.4,183.0 636.9,181.0 637.3,180.5 637.8,174.6 638.2,170.5 638.7,193.6 639.1,198.2 639.6,200.9 640.0,202.9 640.4,207.6 640.9,204.5 641.3,206.5 641.8,208.5 642.2,204.5 642.7,207.8 643.1,203.9 643.6,203.0 644.0,199.7 644.4,201.0 644.9,203.4 645.3,202.0 645.8,202.7 646.2,203.3 646.7,205.4 647.1,207.4 647.6,201.6 648.0,193.8 648.4,194.6 648.9,202.0 649.3,205.6 649.8,204.7 650.2,213.0 650.7,215.5 651.1,214.3 651.6,212.3 652.0,215.5 652.4,215.2 652.9,211.7 653.3,212.8 653.8,211.6 654.2,210.5 654.7,208.0 655.1,220.7 655.6,225.8 656.0,227.3 656.4,240.6 656.9,246.7 657.3,253.3 657.8,244.3 658.2,238.6 658.7,233.5 659.1,236.4 659.6,240.9 660.0,233.7 660.4,237.7 660.9,238.5 661.3,236.1 661.8,241.2 662.2,252.6 662.7,250.0 663.1,243.7 663.6,240.8 664.0,244.3 664.4,242.9 664.9,246.3 665.3,244.5 665.8,237.4 666.2,235.1 666.7,233.3 667.1,239.1 667.6,235.9 668.0,237.6 668.4,236.5 668.9,239.8 669.3,239.6 669.8,240.6 670.2,239.0 670.7,244.6 671.1,239.9 671.6,249.7 672.0,250.3 672.4,249.0 672.9,256.3 673.3,255.6 673.8,257.8 674.2,256.0 674.7,257.0 675.1,258.9 675.6,259.0 676.0,258.4 676.4,272.0 676.9,280.5 677.3,270.4 677.8,269.5 678.2,262.6 678.7,263.3 679.1,263.0 679.6,258.1 680.0,257.8 680.4,254.1 680.9,261.2 681.3,265.8 681.8,262.8 682.2,264.1 682.7,265.1 683.1,268.7 683.6,265.3 684.0,262.8 684.4,264.7 684.9,266.2 685.3,255.6 685.8,256.5 686.2,257.3 686.7,256.9 687.1,256.6 687.6,257.8 688.0,252.7 688.4,247.5 688.9,243.5 689.3,245.4 689.8,246.5 690.2,241.4 690.7,237.3 691.1,239.1 691.6,190.2 692.0,177.8 692.4,158.9 692.9,173.5 693.3,188.7 693.8,186.4 694.2,191.0 694.7,189.3 695.1,189.9 695.6,189.7 696.0,190.9"/>
  <polyline fill="none" stroke="#16a34a" stroke-width="2" points="56.0,179.0 56.4,199.2 56.9,189.6 57.3,198.2 57.8,193.3 58.2,206.9 58.7,199.8 59.1,198.0 59.6,181.7 60.0,175.0 60.4,181.2 60.9,187.0 61.3,199.5 61.8,189.6 62.2,185.7 62.7,185.0 63.1,189.5 63.6,191.2 64.0,186.6 64.4,182.3 64.9,187.2 65.3,188.9 65.8,187.7 66.2,184.5 66.7,180.6 67.1,166.2 67.6,146.0 68.0,170.5 68.4,180.9 68.9,169.2 69.3,164.8 69.8,169.9 70.2,182.0 70.7,180.3 71.1,172.7 71.6,171.4 72.0,171.9 72.4,170.5 72.9,189.8 73.3,192.9 73.8,189.1 74.2,193.2 74.7,193.6 75.1,188.2 75.6,183.5 76.0,173.9 76.4,171.3 76.9,169.8 77.3,163.5 77.8,157.5 78.2,141.5 78.7,121.8 79.1,124.0 79.6,139.5 80.0,149.4 80.4,113.3 80.9,76.8 81.3,75.8 81.8,75.0 82.2,89.3 82.7,87.8 83.1,102.6 83.6,121.5 84.0,121.9 84.4,120.9 84.9,124.3 85.3,117.6 85.8,105.7 86.2,112.3 86.7,119.6 87.1,126.2 87.6,141.6 88.0,140.7 88.4,143.1 88.9,158.0 89.3,160.4 89.8,156.1 90.2,168.2 90.7,140.6 91.1,143.7 91.6,149.0 92.0,148.9 92.4,146.4 92.9,140.9 93.3,150.4 93.8,154.3 94.2,157.6 94.7,154.2 95.1,154.7 95.6,153.5 96.0,158.3 96.4,169.6 96.9,164.3 97.3,164.8 97.8,157.5 98.2,143.2 98.7,140.2 99.1,141.0 99.6,139.2 100.0,140.3 100.4,132.9 100.9,139.3 101.3,144.8 101.8,144.2 102.2,148.0 102.7,152.4 103.1,151.6 103.6,151.4 104.0,167.0 104.4,167.4 104.9,164.0 105.3,174.1 105.8,174.7 106.2,165.1 106.7,166.3 107.1,184.3 107.6,182.8 108.0,189.8 108.4,209.5 108.9,197.3 109.3,199.5 109.8,191.3 110.2,197.3 110.7,190.6 111.1,195.6 111.6,197.0 112.0,207.4 112.4,204.3 112.9,204.3 113.3,204.9 113.8,213.6 114.2,207.2 114.7,193.5 115.1,202.2 115.6,203.3 116.0,197.8 116.4,192.1 116.9,195.5 117.3,192.7 117.8,194.2 118.2,194.4 118.7,199.7 119.1,194.7 119.6,191.1 120.0,197.9 120.4,192.4 120.9,195.2 121.3,198.0 121.8,200.9 122.2,196.2 122.7,196.2 123.1,193.0 123.6,191.4 124.0,191.0 124.4,192.2 124.9,197.6 125.3,196.1 125.8,202.1 126.2,206.1 126.7,209.7 127.1,220.3 127.6,215.6 128.0,224.9 128.4,219.1 128.9,226.8 129.3,229.2 129.8,212.6 130.2,210.5 130.7,202.2 131.1,198.2 131.6,196.8 132.0,194.7 132.4,194.3 132.9,197.3 133.3,193.3 133.8,185.7 134.2,191.1 134.7,189.0 135.1,187.2 135.6,190.8 136.0,187.7 136.4,181.6 136.9,181.7 137.3,184.3 137.8,182.9 138.2,189.2 138.7,186.4 139.1,188.6 139.6,190.5 140.0,185.4 140.4,182.5 140.9,183.3 141.3,182.5 141.8,182.8 142.2,181.0 142.7,184.2 143.1,183.8 143.6,185.2 144.0,188.3 144.4,192.1 144.9,191.7 145.3,190.4 145.8,182.9 146.2,181.8 146.7,167.1 147.1,169.0 147.6,170.8 148.0,180.1 148.4,181.2 148.9,181.4 149.3,180.3 149.8,177.2 150.2,174.9 150.7,168.8 151.1,170.6 151.6,167.6 152.0,172.3 152.4,167.2 152.9,168.0 153.3,170.0 153.8,168.0 154.2,155.6 154.7,164.1 155.1,161.4 155.6,161.0 156.0,159.1 156.4,163.3 156.9,162.2 157.3,154.3 157.8,150.3 158.2,157.4 158.7,160.6 159.1,159.1 159.6,159.5 160.0,169.3 160.4,161.8 160.9,158.0 161.3,156.2 161.8,139.8 162.2,145.5 162.7,145.4 163.1,140.5 163.6,143.0 164.0,138.5 164.4,136.1 164.9,134.2 165.3,130.0 165.8,128.5 166.2,129.6 166.7,129.7 167.1,129.1 167.6,125.4 168.0,125.8 168.4,126.4 168.9,136.1 169.3,132.9 169.8,132.2 170.2,127.4 170.7,131.2 171.1,135.2 171.6,145.3 172.0,148.5 172.4,141.9 172.9,140.9 173.3,147.9 173.8,143.6 174.2,136.4 174.7,128.5 175.1,133.5 175.6,136.3 176.0,133.9 176.4,122.5 176.9,119.2 177.3,118.1 177.8,114.8 178.2,113.4 178.7,117.7 179.1,111.7 179.6,113.4 180.0,112.1 180.4,111.5 180.9,107.8 181.3,107.1 181.8,102.6 182.2,99.7 182.7,98.2 183.1,103.2 183.6,100.4 184.0,94.3 184.4,89.7 184.9,85.2 185.3,97.1 185.8,91.0 186.2,77.7 186.7,72.2 187.1,65.9 187.6,68.9 188.0,69.3 188.4,73.4 188.9,101.0 189.3,110.5 189.8,101.5 190.2,96.0 190.7,94.3 191.1,113.1 191.6,135.4 192.0,97.7 192.4,109.3 192.9,112.0 193.3,95.5 193.8,90.1 194.2,96.9 194.7,89.4 195.1,102.6 195.6,105.1 196.0,97.7 196.4,124.7 196.9,119.1 197.3,120.0 197.8,101.9 198.2,99.4 198.7,106.2 199.1,104.1 199.6,113.1 200.0,110.0 200.4,112.7 200.9,114.2 201.3,119.3 201.8,131.9 202.2,146.2 202.7,146.0 203.1,144.0 203.6,141.7 204.0,142.8 204.4,138.3 204.9,150.1 205.3,151.7 205.8,153.2 206.2,157.1 206.7,159.6 207.1,168.6 207.6,161.0 208.0,171.7 208.4,179.6 208.9,186.0 209.3,179.3 209.8,162.2 210.2,156.2 210.7,168.0 211.1,177.2 211.6,162.3 212.0,149.0 212.4,148.7 212.9,137.7 213.3,135.3 213.8,148.6 214.2,150.6 214.7,143.8 215.1,140.2 215.6,154.3 216.0,163.8 216.4,168.4 216.9,180.0 217.3,166.8 217.8,167.2 218.2,170.0 218.7,171.9 219.1,170.8 219.6,201.8 220.0,212.8 220.4,225.5 220.9,226.6 221.3,214.4 221.8,221.8 222.2,235.2 222.7,245.6 223.1,242.5 223.6,221.8 224.0,213.4 224.4,202.7 224.9,210.3 225.3,201.1 225.8,203.2 226.2,199.1 226.7,205.1 227.1,192.8 227.6,189.9 228.0,196.0 228.4,197.9 228.9,193.6 229.3,188.7 229.8,199.5 230.2,211.0 230.7,209.6 231.1,213.8 231.6,213.7 232.0,211.8 232.4,209.2 232.9,221.2 233.3,226.0 233.8,222.2 234.2,230.9 234.7,239.2 235.1,240.2 235.6,230.2 236.0,236.4 236.4,239.3 236.9,231.1 237.3,242.0 237.8,237.2 238.2,238.2 238.7,230.9 239.1,246.0 239.6,254.4 240.0,263.5 240.4,263.2 240.9,271.5 241.3,265.6 241.8,252.0 242.2,262.6 242.7,261.6 243.1,267.8 243.6,260.8 244.0,264.9 244.4,266.9 244.9,274.0 245.3,271.6 245.8,276.1 246.2,273.8 246.7,275.5 247.1,276.6 247.6,267.4 248.0,273.8 248.4,275.2 248.9,272.7 249.3,269.4 249.8,271.2 250.2,279.5 250.7,286.4 251.1,286.0 251.6,279.4 252.0,285.6 252.4,281.8 252.9,279.4 253.3,275.7 253.8,263.7 254.2,257.2 254.7,259.8 255.1,263.2 255.6,263.7 256.0,266.8 256.4,262.6 256.9,254.7 257.3,255.3 257.8,251.5 258.2,251.0 258.7,254.3 259.1,261.9 259.6,258.7 260.0,261.3 260.4,260.0 260.9,261.1 261.3,261.1 261.8,253.1 262.2,252.5 262.7,263.8 263.1,265.8 263.6,273.6 264.0,265.1 264.4,263.5 264.9,258.5 265.3,257.7 265.8,255.8 266.2,249.0 266.7,250.2 267.1,246.5 267.6,242.5 268.0,250.3 268.4,239.8 268.9,244.7 269.3,244.1 269.8,242.8 270.2,245.1 270.7,249.8 271.1,249.4 271.6,255.4 272.0,257.2 272.4,256.1 272.9,251.2 273.3,223.0 273.8,221.9 274.2,230.6 274.7,231.9 275.1,234.8 275.6,240.7 276.0,242.0 276.4,243.3 276.9,237.2 277.3,235.9 277.8,229.2 278.2,223.9 278.7,229.8 279.1,221.7 279.6,222.9 280.0,231.9 280.4,229.6 280.9,233.4 281.3,236.5 281.8,241.8 282.2,241.5 282.7,246.9 283.1,243.2 283.6,240.2 284.0,242.9 284.4,243.2 284.9,241.2 285.3,232.6 285.8,231.4 286.2,228.7 286.7,239.2 287.1,251.5 287.6,255.7 288.0,251.9 288.4,253.6 288.9,256.6 289.3,245.0 289.8,240.7 290.2,242.3 290.7,240.0 291.1,237.7 291.6,239.5 292.0,234.1 292.4,243.5 292.9,243.8 293.3,251.0 293.8,250.5 294.2,251.1 294.7,260.1 295.1,258.0 295.6,271.9 296.0,274.4 296.4,274.3 296.9,276.5 297.3,261.9 297.8,251.2 298.2,252.4 298.7,248.1 299.1,255.2 299.6,260.2 300.0,261.3 300.4,265.2 300.9,263.5 301.3,261.1 301.8,262.4 302.2,265.2 302.7,268.7 303.1,263.8 303.6,255.3 304.0,258.6 304.4,269.4 304.9,268.5 305.3,268.0 305.8,263.9 306.2,262.6 306.7,257.7 307.1,258.0 307.6,259.0 308.0,264.0 308.4,264.2 308.9,267.5 309.3,265.1 309.8,260.9 310.2,265.8 310.7,267.2 311.1,267.8 311.6,267.3 312.0,264.2 312.4,263.3 312.9,269.5 313.3,273.4 313.8,280.1 314.2,278.2 314.7,270.3 315.1,267.6 315.6,266.3 316.0,264.4 316.4,265.4 316.9,261.7 317.3,266.0 317.8,269.7 318.2,262.4 318.7,258.2 319.1,261.6 319.6,262.7 320.0,256.5 320.4,251.3 320.9,256.2 321.3,253.5 321.8,246.8 322.2,237.0 322.7,248.2 323.1,252.2 323.6,250.2 324.0,251.5 324.4,248.7 324.9,252.8 325.3,249.3 325.8,242.3 326.2,239.1 326.7,247.4 327.1,255.3 327.6,257.4 328.0,257.9 328.4,256.0 328.9,259.6 329.3,254.9 329.8,255.1 330.2,255.0 330.7,269.7 331.1,264.4 331.6,264.5 332.0,264.2 332.4,264.0 332.9,268.9 333.3,272.6 333.8,267.8 334.2,266.2 334.7,266.4 335.1,266.9 335.6,269.4 336.0,269.5 336.4,264.9 336.9,269.4 337.3,265.6 337.8,268.7 338.2,269.9 338.7,270.0 339.1,268.0 339.6,264.4 340.0,255.1 340.4,258.4 340.9,254.3 341.3,261.1 341.8,261.7 342.2,260.1 342.7,266.7 343.1,266.3 343.6,265.0 344.0,264.4 344.4,262.0 344.9,261.5 345.3,262.6 345.8,264.0 346.2,262.1 346.7,264.1 347.1,269.5 347.6,260.7 348.0,259.3 348.4,259.9 348.9,260.7 349.3,262.3 349.8,262.5 350.2,254.4 350.7,255.2 351.1,250.4 351.6,247.8 352.0,241.6 352.4,243.1 352.9,245.1 353.3,241.6 353.8,241.8 354.2,240.0 354.7,232.2 355.1,237.9 355.6,236.6 356.0,239.2 356.4,237.7 356.9,260.0 357.3,258.4 357.8,251.8 358.2,246.7 358.7,245.2 359.1,239.1 359.6,234.1 360.0,233.8 360.4,243.8 360.9,239.8 361.3,242.6 361.8,241.7 362.2,240.5 362.7,234.7 363.1,227.1 363.6,232.3 364.0,236.2 364.4,240.5 364.9,236.6 365.3,236.8 365.8,243.2 366.2,237.8 366.7,232.5 367.1,238.7 367.6,238.6 368.0,237.8 368.4,241.2 368.9,241.4 369.3,242.7 369.8,243.4 370.2,241.6 370.7,241.6 371.1,232.3 371.6,234.9 372.0,232.3 372.4,229.2 372.9,231.3 373.3,238.3 373.8,238.6 374.2,239.5 374.7,236.0 375.1,243.1 375.6,244.4 376.0,239.4 376.4,237.2 376.9,238.1 377.3,247.2 377.8,250.0 378.2,245.7 378.7,245.7 379.1,253.6 379.6,255.3 380.0,254.6 380.4,255.8 380.9,256.2 381.3,257.6 381.8,258.6 382.2,260.7 382.7,260.2 383.1,257.0 383.6,256.4 384.0,254.0 384.4,260.2 384.9,256.5 385.3,259.4 385.8,255.9 386.2,254.3 386.7,253.2 387.1,253.0 387.6,251.2 388.0,252.7 388.4,250.9 388.9,246.2 389.3,243.0 389.8,245.5 390.2,246.7 390.7,248.5 391.1,248.9 391.6,249.7 392.0,251.0 392.4,251.8 392.9,259.1 393.3,258.6 393.8,258.6 394.2,260.7 394.7,260.3 395.1,257.5 395.6,256.3 396.0,257.5 396.4,259.3 396.9,256.9 397.3,258.2 397.8,250.8 398.2,249.4 398.7,248.4 399.1,248.1 399.6,250.8 400.0,252.9 400.4,249.1 400.9,251.2 401.3,255.9 401.8,255.8 402.2,260.2 402.7,259.5 403.1,257.5 403.6,264.2 404.0,265.4 404.4,263.5 404.9,262.9 405.3,262.1 405.8,262.8 406.2,263.9 406.7,258.4 407.1,262.8 407.6,251.1 408.0,251.8 408.4,253.6 408.9,250.5 409.3,251.8 409.8,246.3 410.2,248.4 410.7,250.0 411.1,249.3 411.6,245.6 412.0,245.7 412.4,243.9 412.9,242.2 413.3,242.9 413.8,241.9 414.2,239.1 414.7,229.6 415.1,230.9 415.6,229.1 416.0,230.8 416.4,232.1 416.9,229.9 417.3,227.3 417.8,225.6 418.2,225.2 418.7,222.8 419.1,219.5 419.6,221.0 420.0,221.0 420.4,220.9 420.9,224.6 421.3,222.7 421.8,223.5 422.2,221.3 422.7,221.2 423.1,219.3 423.6,221.0 424.0,228.5 424.4,232.3 424.9,232.6 425.3,228.5 425.8,223.0 426.2,222.6 426.7,222.2 427.1,223.5 427.6,226.9 428.0,229.4 428.4,229.3 428.9,230.4 429.3,225.5 429.8,220.9 430.2,215.9 430.7,217.3 431.1,215.6 431.6,218.3 432.0,212.9 432.4,215.4 432.9,223.5 433.3,220.2 433.8,205.9 434.2,208.3 434.7,209.7 435.1,206.3 435.6,202.7 436.0,194.8 436.4,195.6 436.9,199.1 437.3,192.7 437.8,195.4 438.2,197.0 438.7,204.9 439.1,207.8 439.6,200.6 440.0,197.8 440.4,196.6 440.9,194.2 441.3,197.3 441.8,229.2 442.2,230.3 442.7,237.1 443.1,244.8 443.6,245.4 444.0,244.3 444.4,248.9 444.9,249.0 445.3,249.3 445.8,249.0 446.2,251.6 446.7,253.1 447.1,253.6 447.6,252.5 448.0,248.4 448.4,252.0 448.9,251.5 449.3,252.2 449.8,252.3 450.2,250.7 450.7,249.5 451.1,250.4 451.6,253.7 452.0,256.1 452.4,257.4 452.9,255.5 453.3,254.7 453.8,254.1 454.2,256.1 454.7,251.3 455.1,251.9 455.6,256.9 456.0,258.2 456.4,259.3 456.9,259.6 457.3,261.9 457.8,260.5 458.2,257.5 458.7,254.6 459.1,256.5 459.6,252.2 460.0,252.7 460.4,254.4 460.9,253.7 461.3,252.5 461.8,251.3 462.2,248.0 462.7,251.5 463.1,252.5 463.6,253.9 464.0,252.9 464.4,250.9 464.9,250.0 465.3,247.4 465.8,246.9 466.2,249.3 466.7,247.1 467.1,248.7 467.6,248.2 468.0,254.9 468.4,253.7 468.9,257.8 469.3,259.8 469.8,265.3 470.2,269.0 470.7,268.4 471.1,268.3 471.6,270.4 472.0,272.1 472.4,272.8 472.9,276.2 473.3,274.8 473.8,273.4 474.2,276.8 474.7,275.8 475.1,273.2 475.6,275.5 476.0,276.3 476.4,275.4 476.9,277.7 477.3,278.1 477.8,274.4 478.2,270.7 478.7,269.8 479.1,263.9 479.6,264.6 480.0,263.9 480.4,263.7 480.9,264.8 481.3,268.0 481.8,268.0 482.2,267.4 482.7,269.3 483.1,270.8 483.6,268.9 484.0,269.8 484.4,273.8 484.9,273.8 485.3,272.8 485.8,271.7 486.2,277.0 486.7,274.0 487.1,274.5 487.6,274.0 488.0,274.5 488.4,273.4 488.9,278.1 489.3,281.5 489.8,287.0 490.2,285.3 490.7,285.1 491.1,280.1 491.6,278.0 492.0,279.0 492.4,275.9 492.9,275.7 493.3,275.9 493.8,275.2 494.2,272.6 494.7,272.2 495.1,269.8 495.6,285.0 496.0,284.5 496.4,282.9 496.9,284.7 497.3,287.8 497.8,285.8 498.2,285.7 498.7,288.7 499.1,288.4 499.6,287.6 500.0,290.1 500.4,289.0 500.9,288.8 501.3,287.4 501.8,286.7 502.2,286.2 502.7,286.8 503.1,287.7 503.6,288.4 504.0,285.9 504.4,288.8 504.9,286.5 505.3,287.1 505.8,287.0 506.2,287.1 506.7,286.0 507.1,285.3 507.6,288.8 508.0,289.2 508.4,288.6 508.9,285.4 509.3,286.0 509.8,286.3 510.2,281.6 510.7,278.4 511.1,278.2 511.6,278.9 512.0,279.2 512.4,282.2 512.9,282.1 513.3,281.7 513.8,281.7 514.2,284.8 514.7,286.2 515.1,285.2 515.6,284.4 516.0,283.4 516.4,282.6 516.9,282.1 517.3,285.3 517.8,284.8 518.2,286.1 518.7,284.0 519.1,280.2 519.6,278.6 520.0,280.6 520.4,278.7 520.9,277.2 521.3,273.1 521.8,274.2 522.2,276.8 522.7,275.7 523.1,273.5 523.6,274.4 524.0,242.1 524.4,245.1 524.9,242.0 525.3,242.1 525.8,240.3 526.2,239.5 526.7,241.3 527.1,238.6 527.6,230.5 528.0,233.1 528.4,232.7 528.9,234.9 529.3,241.9 529.8,241.6 530.2,243.1 530.7,244.9 531.1,241.2 531.6,242.5 532.0,248.8 532.4,247.5 532.9,246.0 533.3,249.7 533.8,248.4 534.2,248.1 534.7,251.8 535.1,254.6 535.6,255.0 536.0,252.7 536.4,249.1 536.9,248.4 537.3,251.6 537.8,250.0 538.2,248.9 538.7,248.9 539.1,248.2 539.6,246.4 540.0,244.9 540.4,242.5 540.9,240.4 541.3,237.4 541.8,239.3 542.2,240.0 542.7,238.9 543.1,229.4 543.6,233.3 544.0,236.0 544.4,234.3 544.9,233.5 545.3,228.5 545.8,228.7 546.2,230.6 546.7,232.4 547.1,230.8 547.6,232.8 548.0,230.0 548.4,225.8 548.9,229.7 549.3,225.7 549.8,230.5 550.2,231.7 550.7,237.1 551.1,242.4 551.6,247.6 552.0,246.0 552.4,240.3 552.9,237.7 553.3,240.3 553.8,240.4 554.2,237.5 554.7,253.7 555.1,251.6 555.6,260.2 556.0,258.5 556.4,256.6 556.9,258.5 557.3,253.7 557.8,253.5 558.2,255.1 558.7,253.8 559.1,252.9 559.6,252.0 560.0,248.3 560.4,248.6 560.9,251.0 561.3,253.1 561.8,257.9 562.2,261.3 562.7,258.8 563.1,255.4 563.6,266.1 564.0,273.3 564.4,272.9 564.9,271.0 565.3,257.5 565.8,262.6 566.2,262.3 566.7,262.6 567.1,261.0 567.6,261.4 568.0,263.4 568.4,268.3 568.9,265.9 569.3,260.4 569.8,251.8 570.2,252.0 570.7,251.6 571.1,250.5 571.6,251.2 572.0,246.7 572.4,244.9 572.9,244.7 573.3,244.3 573.8,242.7 574.2,240.1 574.7,240.0 575.1,235.1 575.6,234.7 576.0,234.4 576.4,233.2 576.9,233.1 577.3,233.9 577.8,233.3 578.2,236.2 578.7,217.8 579.1,220.2 579.6,215.3 580.0,216.8 580.4,218.4 580.9,215.9 581.3,212.4 581.8,213.2 582.2,212.9 582.7,212.5 583.1,211.9 583.6,211.9 584.0,213.9 584.4,213.6 584.9,211.6 585.3,213.9 585.8,213.2 586.2,213.0 586.7,211.0 587.1,211.0 587.6,209.7 588.0,202.5 588.4,203.8 588.9,203.4 589.3,202.9 589.8,202.0 590.2,208.0 590.7,206.9 591.1,203.8 591.6,200.5 592.0,202.2 592.4,203.5 592.9,209.2 593.3,211.9 593.8,209.9 594.2,210.4 594.7,211.1 595.1,211.3 595.6,207.3 596.0,208.2 596.4,210.8 596.9,210.6 597.3,208.7 597.8,205.3 598.2,205.9 598.7,205.9 599.1,204.7 599.6,202.2 600.0,216.4 600.4,213.7 600.9,215.8 601.3,212.1 601.8,215.3 602.2,226.5 602.7,226.5 603.1,225.5 603.6,222.6 604.0,224.1 604.4,220.9 604.9,221.5 605.3,225.8 605.8,224.2 606.2,224.3 606.7,222.6 607.1,224.3 607.6,224.5 608.0,219.9 608.4,188.9 608.9,190.7 609.3,194.5 609.8,197.8 610.2,203.5 610.7,200.7 611.1,199.9 611.6,200.7 612.0,200.4 612.4,201.5 612.9,204.0 613.3,200.5 613.8,208.0 614.2,206.5 614.7,203.3 615.1,196.9 615.6,197.6 616.0,202.2 616.4,203.0 616.9,203.7 617.3,201.4 617.8,200.9 618.2,200.7 618.7,196.9 619.1,189.2 619.6,193.4 620.0,187.7 620.4,193.6 620.9,181.8 621.3,181.5 621.8,188.0 622.2,184.1 622.7,189.0 623.1,189.0 623.6,189.6 624.0,189.1 624.4,185.3 624.9,183.9 625.3,188.4 625.8,179.7 626.2,175.9 626.7,169.8 627.1,169.0 627.6,166.9 628.0,165.8 628.4,163.0 628.9,161.3 629.3,170.2 629.8,170.7 630.2,170.7 630.7,172.2 631.1,167.8 631.6,165.7 632.0,166.8 632.4,176.7 632.9,176.6 633.3,179.9 633.8,178.5 634.2,179.7 634.7,186.1 635.1,194.2 635.6,188.1 636.0,181.7 636.4,183.0 636.9,181.0 637.3,180.5 637.8,174.6 638.2,170.5 638.7,193.6 639.1,198.2 639.6,200.9 640.0,202.9 640.4,207.6 640.9,204.5 641.3,206.5 641.8,208.5 642.2,204.5 642.7,207.8 643.1,203.9 643.6,203.0 644.0,199.7 644.4,201.0 644.9,203.4 645.3,202.0 645.8,202.7 646.2,203.3 646.7,205.4 647.1,207.4 647.6,201.6 648.0,193.8 648.4,194.6 648.9,202.0 649.3,205.6 649.8,204.7 650.2,213.0 650.7,215.5 651.1,214.3 651.6,212.3 652.0,215.5 652.4,215.2 652.9,211.7 653.3,212.8 653.8,211.6 654.2,210.5 654.7,208.0 655.1,220.7 655.6,225.8 656.0,227.3 656.4,240.6 656.9,246.7 657.3,253.3 657.8,244.3 658.2,238.6 658.7,233.5 659.1,236.4 659.6,240.9 660.0,233.7 660.4,237.7 660.9,238.5 661.3,236.1 661.8,241.2 662.2,252.6 662.7,250.0 663.1,243.7 663.6,240.8 664.0,244.3 664.4,242.9 664.9,246.3 665.3,244.5 665.8,237.4 666.2,235.1 666.7,233.3 667.1,239.1 667.6,235.9 668.0,237.6 668.4,236.5 668.9,239.8 669.3,239.6 669.8,240.6 670.2,239.0 670.7,244.6 671.1,239.9 671.6,249.7 672.0,250.3 672.4,249.0 672.9,256.3 673.3,255.6 673.8,257.8 674.2,256.0 674.7,257.0 675.1,258.9 675.6,259.0 676.0,258.4 676.4,272.0 676.9,280.5 677.3,270.4 677.8,269.5 678.2,262.6 678.7,263.3 679.1,263.0 679.6,258.1 680.0,257.8 680.4,254.1 680.9,261.2 681.3,265.8 681.8,262.8 682.2,264.1 682.7,265.1 683.1,268.7 683.6,265.3 684.0,262.8 684.4,264.7 684.9,266.2 685.3,255.6 685.8,256.5 686.2,257.3 686.7,256.9 687.1,256.6 687.6,257.8 688.0,252.7 688.4,247.5 688.9,243.5 689.3,245.4 689.8,246.5 690.2,241.4 690.7,237.3 691.1,239.1 691.6,190.2 692.0,177.8 692.4,158.9 692.9,173.5 693.3,188.7 693.8,186.4 694.2,191.0 694.7,189.3 695.1,189.9 695.6,189.7 696.0,190.9"/>
  <text x="60" y="62" font-size="11" fill="#2563eb">Price index</text>
  <text x="146" y="62" font-size="11" fill="#16a34a">Total return (price + distributions)</text>
  <text x="56" y="348" font-size="11" text-anchor="middle" fill="#444">2020-09</text><text x="216" y="348" font-size="11" text-anchor="middle" fill="#444">2022-02</text><text x="376" y="348" font-size="11" text-anchor="middle" fill="#444">2023-07</text><text x="536" y="348" font-size="11" text-anchor="middle" fill="#444">2025-01</text><text x="696" y="348" font-size="11" text-anchor="middle" fill="#444">2026-06</text>
</svg>
