<svg xmlns="http://www.w3.org/2000/svg" width="720" height="360" viewBox="0 0 720 360">
  <rect width="720" height="360" fill="#fafafa"/>
  <text x="56" y="22" font-size="13" font-family="sans-serif" fill="#222">SNOW total return (rebased 100) · cumulative distributions $0.00/sh · market cap n/a</text>
  <line x1="56" y1="308" x2="696" y2="308" stroke="#ccc"/>
  <line x1="56" y1="48" x2="56" y2="308" stroke="#ccc"/>
  <polyline fill="none" stroke="#2563eb" stroke-width="2" points="56.0,162.1 65.3,163.0 74.6,92.1 83.8,133.7 93.1,142.1 102.4,154.1 111.7,182.4 120.9,180.3 130.2,174.3 139.5,170.7 148.8,148.4 158.0,112.2 167.3,114.0 176.6,65.9 185.9,78.7 195.1,80.0 204.4,138.8 213.7,148.4 223.0,182.6 232.2,236.6 241.5,277.5 250.8,266.8 260.1,256.7 269.3,227.7 278.6,237.9 287.9,247.0 297.2,263.3 306.4,262.7 315.7,250.6 325.0,252.5 334.3,252.6 343.5,258.4 352.8,242.2 362.1,232.3 371.4,230.7 380.6,250.2 389.9,254.0 399.2,261.2 408.5,221.4 417.7,210.8 427.0,213.9 436.3,220.8 445.6,245.8 454.8,251.7 464.1,269.5 473.4,270.6 482.7,275.0 491.9,290.1 501.2,289.5 510.5,289.5 519.8,233.4 529.0,252.5 538.3,227.1 547.6,231.3 556.9,260.2 566.1,247.7 575.4,204.5 584.7,187.6 594.0,187.9 603.2,173.7 612.5,185.9 621.8,139.8 631.1,161.9 640.3,191.7 649.6,216.7 658.9,239.4 668.2,255.8 677.4,269.3 686.7,157.9 696.0,173.1"/>
  <polyline fill="none" stroke="#16a34a" stroke-width="2" points="56.0,162.1 65.3,163.0 74.6,92.1 83.8,133.7 93.1,142.1 102.4,154.1 111.7,182.4 120.9,180.3 130.2,174.3 139.5,170.7 148.8,148.4 158.0,112.2 167.3,114.0 176.6,65.9 185.9,78.7 195.1,80.0 204.4,138.8 213.7,148.4 223.0,182.6 232.2,236.6 241.5,277.5 250.8,266.8 260.1,256.7 269.3,227.7 278.6,237.9 287.9,247.0 297.2,263.3 306.4,262.7 315.7,250.6 325.0,252.5 334.3,252.6 343.5,258.4 352.8,242.2 362.1,232.3 371.4,230.7 380.6,250.2 389.9,254.0 399.2,261.2 408.5,221.4 417.7,210.8 427.0,213.9 436.3,220.8 445.6,245.8 454.8,251.7 464.1,269.5 473.4,270.6 482.7,275.0 491.9,290.1 501.2,289.5 510.5,289.5 519.8,233.4 529.0,252.5 538.3,227.1 547.6,231.3 556.9,260.2 566.1,247.7 575.4,204.5 584.7,187.6 594.0,187.9 603.2,173.7 612.5,185.9 621.8,139.8 631.1,161.9 640.3,191.7 649.6,216.7 658.9,239.4 668.2,255.8 677.4,269.3 686.7,157.9 696.0,173.1"/>
  <text x="60" y="62" font-size="11" fill="#2563eb">Price index</text>
  <text x="146" y="62" font-size="11" fill="#16a34a">Total return (price + distributions)</text>
  <text x="56" y="348" font-size="11" text-anchor="middle" fill="#444">2020-09</text><text x="214" y="348" font-size="11" text-anchor="middle" fill="#444">2022-02</text><text x="381" y="348" font-size="11" text-anchor="middle" fill="#444">2023-08</text><text x="538" y="348" font-size="11" text-anchor="middle" fill="#444">2025-01</text><text x="696" y="348" font-size="11" text-anchor="middle" fill="#444">2026-06</text>
</svg>
