<svg xmlns="http://www.w3.org/2000/svg" width="820" height="410" viewBox="0 0 820 410">
<rect width="820" height="410" fill="#fafafa"/><text x="78" y="22" font-size="14" font-family="sans-serif" fill="#0f172a">SNOW cumulative return since 2020-09-16 | dividends reinvested</text>
<text x="78" y="40" font-size="11" font-family="sans-serif" fill="#334155">Total return +7.1% | Price-only +7.1% | logarithmic scale</text>
<text x="78" y="54" font-size="9" font-family="sans-serif" fill="#64748b">Regular $0.00 | Special $0.00 | Other $0.00 per initial share path</text>
<line x1="78" y1="332.0" x2="796" y2="332.0" stroke="#e2e8f0"/><text x="70" y="336.0" font-size="10" text-anchor="end" fill="#64748b">-60.5%</text><line x1="78" y1="287.0" x2="796" y2="287.0" stroke="#e2e8f0"/><text x="70" y="291.0" font-size="10" text-anchor="end" fill="#64748b">-49.5%</text><line x1="78" y1="242.0" x2="796" y2="242.0" stroke="#e2e8f0"/><text x="70" y="246.0" font-size="10" text-anchor="end" fill="#64748b">-35.6%</text><line x1="78" y1="197.0" x2="796" y2="197.0" stroke="#e2e8f0"/><text x="70" y="201.0" font-size="10" text-anchor="end" fill="#64748b">-17.7%</text><line x1="78" y1="161.0" x2="796" y2="161.0" stroke="#e2e8f0"/><text x="70" y="165.0" font-size="10" text-anchor="end" fill="#64748b">0%</text><line x1="78" y1="152.0" x2="796" y2="152.0" stroke="#e2e8f0"/><text x="70" y="156.0" font-size="10" text-anchor="end" fill="#64748b">+5.0%</text><line x1="78" y1="107.0" x2="796" y2="107.0" stroke="#e2e8f0"/><text x="70" y="111.0" font-size="10" text-anchor="end" fill="#64748b">+34.1%</text><line x1="78" y1="62.0" x2="796" y2="62.0" stroke="#e2e8f0"/><text x="70" y="66.0" font-size="10" text-anchor="end" fill="#64748b">+71.2%</text>
<line x1="78" y1="332" x2="796" y2="332" stroke="#cbd5e1"/>
<polyline fill="none" stroke="#2563eb" stroke-width="2" points="78.0,161.0 78.5,181.2 79.0,171.4 79.5,180.2 80.0,175.2 80.5,189.6 80.9,181.9 81.4,180.1 81.9,163.6 82.4,157.3 82.9,163.2 83.4,168.8 83.9,181.6 84.4,171.4 84.9,167.5 85.4,166.9 85.9,171.3 86.3,173.0 86.8,168.4 87.3,164.2 87.8,169.0 88.3,170.7 88.8,169.5 89.3,166.3 89.8,162.6 90.3,149.3 90.8,132.1 91.3,153.1 91.8,162.9 92.2,151.9 92.7,148.1 93.2,152.6 93.7,163.9 94.2,162.3 94.7,155.2 95.2,153.9 95.7,154.4 96.2,153.2 96.7,171.5 97.2,174.8 97.6,170.8 98.1,175.0 98.6,175.5 99.1,170.0 99.6,165.4 100.1,156.3 100.6,153.9 101.1,152.5 101.6,146.9 102.1,141.6 102.6,128.5 103.0,113.4 103.5,115.1 104.0,126.9 104.5,134.9 105.0,107.3 105.5,83.1 106.0,82.5 106.5,82.0 107.0,91.1 107.5,90.1 108.0,99.9 108.4,113.2 108.9,113.5 109.4,112.8 109.9,115.3 110.4,110.4 110.9,102.0 111.4,106.6 111.9,111.8 112.4,116.7 112.9,128.6 113.4,127.8 113.9,129.8 114.3,142.1 114.8,144.2 115.3,140.5 115.8,151.1 116.3,127.8 116.8,130.3 117.3,134.5 117.8,134.4 118.3,132.4 118.8,128.0 119.3,135.7 119.7,139.0 120.2,141.8 120.7,138.9 121.2,139.3 121.7,138.3 122.2,142.4 122.7,152.3 123.2,147.6 123.7,148.1 124.2,141.7 124.7,129.9 125.1,127.5 125.6,128.1 126.1,126.6 126.6,127.6 127.1,121.7 127.6,126.7 128.1,131.1 128.6,130.6 129.1,133.7 129.6,137.3 130.1,136.7 130.5,136.6 131.0,150.0 131.5,150.4 132.0,147.3 132.5,156.4 133.0,157.0 133.5,148.2 134.0,149.3 134.5,166.1 135.0,164.6 135.5,171.6 136.0,192.5 136.4,179.2 136.9,181.6 137.4,173.1 137.9,179.3 138.4,172.4 138.9,177.6 139.4,179.0 139.9,190.2 140.4,186.8 140.9,186.8 141.4,187.4 141.8,197.2 142.3,190.0 142.8,175.3 143.3,184.5 143.8,185.7 144.3,179.8 144.8,173.9 145.3,177.4 145.8,174.5 146.3,176.1 146.8,176.3 147.2,181.8 147.7,176.6 148.2,172.9 148.7,179.9 149.2,174.2 149.7,177.1 150.2,180.0 150.7,183.1 151.2,178.1 151.7,178.1 152.2,174.8 152.6,173.2 153.1,172.8 153.6,174.0 154.1,179.6 154.6,178.0 155.1,184.4 155.6,188.8 156.1,192.7 156.6,205.1 157.1,199.5 157.6,210.8 158.1,203.7 158.5,213.1 159.0,216.2 159.5,196.0 160.0,193.7 160.5,184.5 161.0,180.2 161.5,178.8 162.0,176.6 162.5,176.1 163.0,179.3 163.5,175.1 163.9,167.5 164.4,172.9 164.9,170.8 165.4,169.0 165.9,172.6 166.4,169.5 166.9,163.5 167.4,163.7 167.9,166.1 168.4,164.8 168.9,171.0 169.3,168.2 169.8,170.3 170.3,172.3 170.8,167.2 171.3,164.3 171.8,165.2 172.3,164.4 172.8,164.6 173.3,163.0 173.8,166.1 174.3,165.6 174.7,167.0 175.2,170.0 175.7,173.9 176.2,173.5 176.7,172.1 177.2,164.8 177.7,163.7 178.2,150.1 178.7,151.7 179.2,153.4 179.7,162.0 180.2,163.2 180.6,163.3 181.1,162.2 181.6,159.3 182.1,157.2 182.6,151.6 183.1,153.2 183.6,150.5 184.1,154.8 184.6,150.2 185.1,150.9 185.6,152.7 186.0,150.9 186.5,140.0 187.0,147.4 187.5,145.0 188.0,144.7 188.5,143.0 189.0,146.7 189.5,145.8 190.0,138.9 190.5,135.6 191.0,141.6 191.4,144.3 191.9,143.0 192.4,143.4 192.9,152.0 193.4,145.4 193.9,142.1 194.4,140.6 194.9,127.1 195.4,131.7 195.9,131.6 196.4,127.7 196.8,129.7 197.3,126.1 197.8,124.3 198.3,122.8 198.8,119.5 199.3,118.4 199.8,119.3 200.3,119.3 200.8,118.9 201.3,116.1 201.8,116.4 202.3,116.8 202.7,124.2 203.2,121.8 203.7,121.3 204.2,117.6 204.7,120.5 205.2,123.6 205.7,131.6 206.2,134.2 206.7,128.8 207.2,128.0 207.7,133.6 208.1,130.1 208.6,124.5 209.1,118.4 209.6,122.2 210.1,124.4 210.6,122.5 211.1,114.0 211.6,111.6 212.1,110.8 212.6,108.4 213.1,107.4 213.5,110.5 214.0,106.2 214.5,107.4 215.0,106.5 215.5,106.1 216.0,103.5 216.5,103.0 217.0,99.9 217.5,97.9 218.0,96.9 218.5,100.3 218.9,98.4 219.4,94.3 219.9,91.3 220.4,88.4 220.9,96.2 221.4,92.1 221.9,83.7 222.4,80.3 222.9,76.5 223.4,78.3 223.9,78.5 224.4,81.0 224.8,98.8 225.3,105.3 225.8,99.1 226.3,95.4 226.8,94.3 227.3,107.2 227.8,123.7 228.3,96.6 228.8,104.5 229.3,106.4 229.8,95.1 230.2,91.6 230.7,96.1 231.2,91.1 231.7,99.9 232.2,101.6 232.7,96.6 233.2,115.6 233.7,111.5 234.2,112.2 234.7,99.4 235.2,97.7 235.6,102.3 236.1,100.9 236.6,107.2 237.1,105.0 237.6,106.9 238.1,107.9 238.6,111.6 239.1,121.0 239.6,132.3 240.1,132.1 240.6,130.5 241.0,128.6 241.5,129.5 242.0,126.0 242.5,135.4 243.0,136.8 243.5,138.0 244.0,141.3 244.5,143.5 245.0,151.4 245.5,144.7 246.0,154.3 246.5,161.6 246.9,167.8 247.4,161.3 247.9,145.7 248.4,140.6 248.9,150.9 249.4,159.3 249.9,145.9 250.4,134.5 250.9,134.3 251.4,125.5 251.9,123.6 252.3,134.2 252.8,135.8 253.3,130.3 253.8,127.5 254.3,138.9 254.8,147.2 255.3,151.2 255.8,162.0 256.3,149.8 256.8,150.1 257.3,152.7 257.7,154.4 258.2,153.4 258.7,184.1 259.2,196.3 259.7,211.6 260.2,212.9 260.7,198.2 261.2,207.0 261.7,224.0 262.2,238.5 262.7,234.1 263.1,207.0 263.6,197.0 264.1,185.1 264.6,193.4 265.1,183.3 265.6,185.6 266.1,181.2 266.6,187.6 267.1,174.6 267.6,171.7 268.1,178.0 268.5,180.0 269.0,175.4 269.5,170.5 270.0,181.6 270.5,194.2 271.0,192.6 271.5,197.5 272.0,197.3 272.5,195.2 273.0,192.2 273.5,206.3 274.0,212.1 274.4,207.4 274.9,218.4 275.4,229.4 275.9,230.9 276.4,217.4 276.9,225.7 277.4,229.6 277.9,218.7 278.4,233.4 278.9,226.7 279.4,228.1 279.8,218.4 280.3,239.1 280.8,251.6 281.3,266.4 281.8,265.8 282.3,280.3 282.8,269.9 283.3,248.0 283.8,264.9 284.3,263.2 284.8,273.7 285.2,261.9 285.7,268.7 286.2,272.2 286.7,284.9 287.2,280.5 287.7,288.9 288.2,284.5 288.7,287.7 289.2,289.9 289.7,273.0 290.2,284.6 290.6,287.1 291.1,282.6 291.6,276.6 292.1,279.8 292.6,295.4 293.1,309.7 293.6,308.7 294.1,295.2 294.6,307.9 295.1,300.0 295.6,295.2 296.1,288.1 296.5,266.6 297.0,256.1 297.5,260.3 298.0,265.8 298.5,266.7 299.0,271.9 299.5,264.8 300.0,252.1 300.5,253.1 301.0,247.2 301.5,246.5 301.9,251.5 302.4,263.7 302.9,258.5 303.4,262.7 303.9,260.5 304.4,262.4 304.9,262.4 305.4,249.7 305.9,248.7 306.4,266.8 306.9,270.3 307.3,284.2 307.8,269.0 308.3,266.4 308.8,258.1 309.3,256.8 309.8,253.9 310.3,243.4 310.8,245.2 311.3,239.8 311.8,234.0 312.3,245.5 312.7,230.2 313.2,237.2 313.7,236.4 314.2,234.5 314.7,237.8 315.2,244.6 315.7,244.1 316.2,253.2 316.7,256.0 317.2,254.3 317.7,246.7 318.2,208.5 318.6,207.1 319.1,217.9 319.6,219.6 320.1,223.4 320.6,231.5 321.1,233.3 321.6,235.1 322.1,226.7 322.6,224.9 323.1,216.2 323.6,209.5 324.0,217.0 324.5,206.9 325.0,208.3 325.5,219.7 326.0,216.7 326.5,221.6 327.0,225.7 327.5,233.0 328.0,232.6 328.5,240.3 329.0,235.1 329.4,230.8 329.9,234.6 330.4,235.0 330.9,232.2 331.4,220.5 331.9,219.0 332.4,215.5 332.9,229.5 333.4,247.2 333.9,253.7 334.4,247.8 334.8,250.5 335.3,255.1 335.8,237.6 336.3,231.5 336.8,233.8 337.3,230.6 337.8,227.4 338.3,229.8 338.8,222.6 339.3,235.5 339.8,235.9 340.3,246.5 340.7,245.8 341.2,246.7 341.7,260.8 342.2,257.4 342.7,281.1 343.2,285.6 343.7,285.5 344.2,289.7 344.7,263.7 345.2,246.8 345.7,248.6 346.1,242.1 346.6,253.0 347.1,260.8 347.6,262.7 348.1,269.2 348.6,266.3 349.1,262.4 349.6,264.6 350.1,269.3 350.6,275.3 351.1,266.9 351.5,253.1 352.0,258.3 352.5,276.5 353.0,275.0 353.5,274.1 354.0,267.0 354.5,264.8 355.0,256.9 355.5,257.3 356.0,259.0 356.5,267.2 356.9,267.5 357.4,273.2 357.9,269.1 358.4,262.0 358.9,270.2 359.4,272.7 359.9,273.7 360.4,272.8 360.9,267.6 361.4,266.1 361.9,276.7 362.4,283.7 362.8,296.7 363.3,293.0 363.8,278.2 364.3,273.4 364.8,271.1 365.3,267.9 365.8,269.5 366.3,263.3 366.8,270.5 367.3,277.1 367.8,264.5 368.2,257.6 368.7,263.2 369.2,264.9 369.7,255.0 370.2,246.8 370.7,254.4 371.2,250.2 371.7,240.2 372.2,226.4 372.7,242.3 373.2,248.3 373.6,245.2 374.1,247.2 374.6,243.0 375.1,249.2 375.6,243.9 376.1,233.8 376.6,229.3 377.1,241.1 377.6,253.0 378.1,256.4 378.6,257.2 379.0,254.2 379.5,259.9 380.0,252.4 380.5,252.7 381.0,252.5 381.5,277.0 382.0,267.9 382.5,268.0 383.0,267.5 383.5,267.2 384.0,275.6 384.5,282.3 384.9,273.7 385.4,270.9 385.9,271.2 386.4,272.1 386.9,276.5 387.4,276.7 387.9,268.8 388.4,276.5 388.9,269.9 389.4,275.3 389.9,277.4 390.3,277.6 390.8,274.1 391.3,267.9 391.8,252.8 392.3,258.0 392.8,251.4 393.3,262.4 393.8,263.4 394.3,260.7 394.8,271.8 395.3,271.1 395.7,268.9 396.2,267.9 396.7,263.9 397.2,263.1 397.7,264.8 398.2,267.1 398.7,264.0 399.2,267.4 399.7,276.7 400.2,261.6 400.7,259.5 401.1,260.4 401.6,261.7 402.1,264.4 402.6,264.7 403.1,251.6 403.6,252.9 404.1,245.6 404.6,241.7 405.1,232.7 405.6,234.9 406.1,237.8 406.6,232.7 407.0,233.1 407.5,230.6 408.0,220.0 408.5,227.7 409.0,226.0 409.5,229.4 410.0,227.4 410.5,260.6 411.0,258.0 411.5,247.7 412.0,240.0 412.4,237.9 412.9,229.4 413.4,222.6 413.9,222.1 414.4,235.9 414.9,230.3 415.4,234.2 415.9,232.9 416.4,231.2 416.9,223.3 417.4,213.5 417.8,220.2 418.3,225.3 418.8,231.3 419.3,225.8 419.8,226.2 420.3,235.1 420.8,227.5 421.3,220.5 421.8,228.8 422.3,228.6 422.8,227.5 423.2,232.2 423.7,232.6 424.2,234.3 424.7,235.3 425.2,232.7 425.7,232.9 426.2,220.1 426.7,223.6 427.2,220.1 427.7,216.2 428.2,218.9 428.7,228.2 429.1,228.6 429.6,229.8 430.1,225.1 430.6,234.9 431.1,236.8 431.6,229.8 432.1,226.8 432.6,227.9 433.1,240.9 433.6,244.9 434.1,238.6 434.5,238.6 435.0,250.4 435.5,253.1 436.0,251.9 436.5,253.9 437.0,254.5 437.5,256.6 438.0,258.4 438.5,261.8 439.0,260.9 439.5,255.7 439.9,254.8 440.4,251.1 440.9,260.9 441.4,254.9 441.9,259.5 442.4,254.0 442.9,251.5 443.4,249.8 443.9,249.5 444.4,246.8 444.9,249.0 445.3,246.3 445.8,239.4 446.3,234.7 446.8,238.4 447.3,240.1 447.8,242.7 448.3,243.3 448.8,244.4 449.3,246.4 449.8,247.7 450.3,259.2 450.8,258.4 451.2,258.3 451.7,261.6 452.2,261.1 452.7,256.6 453.2,254.6 453.7,256.6 454.2,259.5 454.7,255.6 455.2,257.7 455.7,246.2 456.2,244.0 456.6,242.5 457.1,242.1 457.6,246.1 458.1,249.4 458.6,243.7 459.1,246.8 459.6,254.1 460.1,253.8 460.6,260.9 461.1,259.7 461.6,256.6 462.0,267.6 462.5,269.6 463.0,266.3 463.5,265.3 464.0,264.1 464.5,265.2 465.0,267.1 465.5,258.0 466.0,265.2 466.5,246.6 467.0,247.7 467.4,250.3 467.9,245.6 468.4,247.6 468.9,239.5 469.4,242.6 469.9,245.0 470.4,244.0 470.9,238.5 471.4,238.6 471.9,236.1 472.4,233.7 472.9,234.6 473.3,233.3 473.8,229.3 474.3,216.7 474.8,218.4 475.3,216.1 475.8,218.2 476.3,219.9 476.8,217.1 477.3,213.8 477.8,211.6 478.3,211.1 478.7,208.2 479.2,204.2 479.7,205.9 480.2,205.9 480.7,205.9 481.2,210.3 481.7,208.0 482.2,209.0 482.7,206.3 483.2,206.2 483.7,203.9 484.1,205.9 484.6,215.3 485.1,220.1 485.6,220.6 486.1,215.3 486.6,208.4 487.1,207.9 487.6,207.4 488.1,209.1 488.6,213.2 489.1,216.4 489.5,216.3 490.0,217.8 490.5,211.4 491.0,205.8 491.5,199.9 492.0,201.5 492.5,199.5 493.0,202.7 493.5,196.4 494.0,199.3 494.5,209.1 495.0,205.1 495.4,188.5 495.9,191.2 496.4,192.8 496.9,188.9 497.4,185.0 497.9,176.6 498.4,177.5 498.9,181.2 499.4,174.5 499.9,177.3 500.4,179.0 500.8,187.4 501.3,190.6 501.8,182.8 502.3,179.8 502.8,178.5 503.3,176.1 503.8,179.3 504.3,216.1 504.8,217.7 505.3,226.5 505.8,237.4 506.2,238.2 506.7,236.6 507.2,243.4 507.7,243.5 508.2,243.9 508.7,243.5 509.2,247.3 509.7,249.6 510.2,250.4 510.7,248.8 511.2,242.6 511.6,248.0 512.1,247.2 512.6,248.3 513.1,248.4 513.6,246.1 514.1,244.3 514.6,245.5 515.1,250.5 515.6,254.3 516.1,256.3 516.6,253.3 517.1,252.1 517.5,251.3 518.0,254.4 518.5,246.8 519.0,247.8 519.5,255.6 520.0,257.6 520.5,259.5 521.0,259.9 521.5,263.7 522.0,261.4 522.5,256.6 522.9,252.0 523.4,254.9 523.9,248.3 524.4,249.1 524.9,251.7 525.4,250.6 525.9,248.7 526.4,246.9 526.9,241.9 527.4,247.1 527.9,248.7 528.3,250.9 528.8,249.4 529.3,246.3 529.8,245.0 530.3,241.1 530.8,240.4 531.3,244.0 531.8,240.7 532.3,243.0 532.8,242.3 533.3,252.4 533.7,250.6 534.2,257.1 534.7,260.2 535.2,269.4 535.7,275.8 536.2,274.8 536.7,274.7 537.2,278.4 537.7,281.5 538.2,282.6 538.7,289.0 539.2,286.5 539.6,283.9 540.1,290.2 540.6,288.4 541.1,283.4 541.6,287.8 542.1,289.2 542.6,287.5 543.1,291.9 543.6,292.7 544.1,285.6 544.6,278.9 545.0,277.3 545.5,267.1 546.0,268.2 546.5,267.0 547.0,266.8 547.5,268.6 548.0,274.1 548.5,274.0 549.0,273.1 549.5,276.4 550.0,279.1 550.4,275.7 550.9,277.3 551.4,284.6 551.9,284.6 552.4,282.7 552.9,280.7 553.4,290.7 553.9,284.9 554.4,285.8 554.9,285.0 555.4,285.9 555.8,283.8 556.3,292.7 556.8,299.4 557.3,310.8 557.8,307.2 558.3,306.8 558.8,296.6 559.3,292.4 559.8,294.5 560.3,288.6 560.8,288.2 561.3,288.6 561.7,287.1 562.2,282.3 562.7,281.6 563.2,277.3 563.7,306.6 564.2,305.5 564.7,302.2 565.2,306.1 565.7,312.5 566.2,308.3 566.7,308.2 567.1,314.4 567.6,313.8 568.1,312.2 568.6,317.5 569.1,315.2 569.6,314.7 570.1,311.8 570.6,310.2 571.1,309.1 571.6,310.4 572.1,312.4 572.5,313.8 573.0,308.5 573.5,314.7 574.0,309.7 574.5,311.0 575.0,310.8 575.5,311.0 576.0,308.7 576.5,307.1 577.0,314.7 577.5,315.7 577.9,314.3 578.4,307.4 578.9,308.8 579.4,309.3 579.9,299.6 580.4,293.4 580.9,293.0 581.4,294.3 581.9,294.9 582.4,300.8 582.9,300.6 583.4,299.8 583.8,299.8 584.3,306.1 584.8,309.2 585.3,307.0 585.8,305.3 586.3,303.2 586.8,301.6 587.3,300.6 587.8,307.2 588.3,306.1 588.8,309.0 589.2,304.5 589.7,296.9 590.2,293.7 590.7,297.7 591.2,293.8 591.7,290.9 592.2,283.3 592.7,285.4 593.2,290.2 593.7,288.0 594.2,284.0 594.6,285.6 595.1,233.5 595.6,237.7 596.1,233.4 596.6,233.5 597.1,231.0 597.6,229.8 598.1,232.3 598.6,228.6 599.1,217.9 599.6,221.3 600.0,220.7 600.5,223.6 601.0,233.3 601.5,232.8 602.0,234.9 602.5,237.5 603.0,232.3 603.5,234.1 604.0,243.1 604.5,241.3 605.0,239.0 605.5,244.4 605.9,242.6 606.4,242.1 606.9,247.7 607.4,252.0 607.9,252.6 608.4,249.0 608.9,243.6 609.4,242.6 609.9,247.4 610.4,244.9 610.9,243.3 611.3,243.3 611.8,242.2 612.3,239.6 612.8,237.5 613.3,234.1 613.8,231.1 614.3,227.0 614.8,229.7 615.3,230.5 615.8,229.0 616.3,216.4 616.7,221.5 617.2,225.1 617.7,222.9 618.2,221.8 618.7,215.3 619.2,215.5 619.7,218.0 620.2,220.3 620.7,218.2 621.2,220.8 621.7,217.2 622.1,211.9 622.6,216.8 623.1,211.8 623.6,217.8 624.1,219.4 624.6,226.6 625.1,233.9 625.6,241.3 626.1,239.1 626.6,231.0 627.1,227.4 627.5,231.0 628.0,231.1 628.5,227.2 629.0,250.5 629.5,247.4 630.0,261.0 630.5,258.1 631.0,255.1 631.5,258.2 632.0,250.6 632.5,250.3 633.0,252.7 633.4,250.8 633.9,249.4 634.4,248.0 634.9,242.5 635.4,242.9 635.9,246.4 636.4,249.6 636.9,257.2 637.4,262.8 637.9,258.5 638.4,253.2 638.8,270.8 639.3,283.6 639.8,282.9 640.3,279.4 640.8,256.6 641.3,264.9 641.8,264.3 642.3,264.8 642.8,262.3 643.3,262.9 643.8,266.2 644.2,274.7 644.7,270.4 645.2,261.2 645.7,247.6 646.2,247.9 646.7,247.3 647.2,245.7 647.7,246.7 648.2,240.0 648.7,237.5 649.2,237.3 649.6,236.6 650.1,234.3 650.6,230.7 651.1,230.5 651.6,223.9 652.1,223.4 652.6,222.9 653.1,221.4 653.6,221.3 654.1,222.3 654.6,221.5 655.1,225.3 655.5,202.1 656.0,205.0 656.5,199.2 657.0,201.0 657.5,202.9 658.0,199.8 658.5,195.9 659.0,196.8 659.5,196.4 660.0,195.9 660.5,195.3 660.9,195.3 661.4,197.6 661.9,197.2 662.4,194.9 662.9,197.6 663.4,196.8 663.9,196.5 664.4,194.2 664.9,194.3 665.4,192.8 665.9,184.8 666.3,186.2 666.8,185.8 667.3,185.3 667.8,184.3 668.3,190.8 668.8,189.7 669.3,186.2 669.8,182.7 670.3,184.5 670.8,185.9 671.3,192.2 671.7,195.3 672.2,192.9 672.7,193.6 673.2,194.3 673.7,194.6 674.2,190.1 674.7,191.1 675.2,194.0 675.7,193.8 676.2,191.7 676.7,187.9 677.2,188.6 677.6,188.5 678.1,187.2 678.6,184.5 679.1,200.4 679.6,197.3 680.1,199.8 680.6,195.5 681.1,199.2 681.6,212.8 682.1,212.7 682.6,211.5 683.0,207.9 683.5,209.8 684.0,205.8 684.5,206.6 685.0,211.9 685.5,209.8 686.0,210.0 686.5,208.0 687.0,210.0 687.5,210.3 688.0,204.6 688.4,170.7 688.9,172.4 689.4,176.4 689.9,179.8 690.4,185.9 690.9,182.8 691.4,182.1 691.9,182.8 692.4,182.6 692.9,183.7 693.4,186.5 693.8,182.7 694.3,190.9 694.8,189.2 695.3,185.7 695.8,178.9 696.3,179.6 696.8,184.5 697.3,185.3 697.8,186.1 698.3,183.6 698.8,183.1 699.3,182.9 699.7,178.8 700.2,171.0 700.7,175.2 701.2,169.5 701.7,175.4 702.2,163.7 702.7,163.4 703.2,169.8 703.7,165.9 704.2,170.8 704.7,170.8 705.1,171.4 705.6,170.9 706.1,167.1 706.6,165.7 707.1,170.1 707.6,161.7 708.1,158.1 708.6,152.5 709.1,151.7 709.6,149.9 710.1,148.9 710.5,146.4 711.0,144.9 711.5,152.9 712.0,153.3 712.5,153.4 713.0,154.7 713.5,150.7 714.0,148.9 714.5,149.8 715.0,158.9 715.5,158.8 715.9,161.9 716.4,160.6 716.9,161.7 717.4,167.9 717.9,176.1 718.4,169.9 718.9,163.7 719.4,164.9 719.9,163.0 720.4,162.4 720.9,156.9 721.4,153.2 721.8,175.5 722.3,180.2 722.8,183.1 723.3,185.3 723.8,190.4 724.3,187.0 724.8,189.2 725.3,191.4 725.8,186.9 726.3,190.6 726.8,186.3 727.2,185.4 727.7,181.8 728.2,183.2 728.7,185.8 729.2,184.2 729.7,185.0 730.2,185.7 730.7,188.0 731.2,190.2 731.7,183.8 732.2,175.7 732.6,176.5 733.1,184.3 733.6,188.2 734.1,187.2 734.6,196.5 735.1,199.4 735.6,198.0 736.1,195.7 736.6,199.4 737.1,199.1 737.6,195.0 738.0,196.3 738.5,194.9 739.0,193.6 739.5,190.8 740.0,205.6 740.5,211.8 741.0,213.8 741.5,231.5 742.0,240.1 742.5,249.9 743.0,236.6 743.5,228.6 743.9,221.8 744.4,225.6 744.9,231.8 745.4,222.1 745.9,227.4 746.4,228.5 746.9,225.2 747.4,232.2 747.9,248.9 748.4,244.9 748.9,235.8 749.3,231.6 749.8,236.7 750.3,234.6 750.8,239.5 751.3,236.8 751.8,227.0 752.3,223.9 752.8,221.5 753.3,229.3 753.8,225.0 754.3,227.2 754.7,225.8 755.2,230.2 755.7,230.0 756.2,231.4 756.7,229.2 757.2,237.1 757.7,230.4 758.2,244.6 758.7,245.4 759.2,243.4 759.7,254.6 760.1,253.5 760.6,257.0 761.1,254.2 761.6,255.7 762.1,258.7 762.6,258.9 763.1,258.0 763.6,281.2 764.1,297.4 764.6,278.4 765.1,276.7 765.6,264.9 766.0,266.1 766.5,265.5 767.0,257.4 767.5,257.0 768.0,251.3 768.5,262.5 769.0,270.3 769.5,265.2 770.0,267.4 770.5,269.1 771.0,275.4 771.4,269.4 771.9,265.2 772.4,268.5 772.9,271.0 773.4,253.5 773.9,255.0 774.4,256.2 774.9,255.6 775.4,255.1 775.9,257.1 776.4,249.0 776.8,241.3 777.3,235.4 777.8,238.2 778.3,239.8 778.8,232.6 779.3,226.9 779.8,229.3 780.3,172.0 780.8,159.9 781.3,142.9 781.8,155.9 782.2,170.4 782.7,168.2 783.2,172.8 783.7,171.1 784.2,171.7 784.7,171.5 785.2,171.1 785.7,177.0 786.2,170.8 786.7,172.7 787.2,175.7 787.7,177.4 788.1,182.0 788.6,178.9 789.1,182.5 789.6,181.6 790.1,164.7 790.6,162.7 791.1,160.6 791.6,155.8 792.1,156.6 792.6,155.2 793.1,154.7 793.5,155.7 794.0,151.4 794.5,155.7 795.0,150.6 795.5,145.7 796.0,148.5"/><polyline fill="none" stroke="#16a34a" stroke-width="3" points="78.0,161.0 78.5,181.2 79.0,171.4 79.5,180.2 80.0,175.2 80.5,189.6 80.9,181.9 81.4,180.1 81.9,163.6 82.4,157.3 82.9,163.2 83.4,168.8 83.9,181.6 84.4,171.4 84.9,167.5 85.4,166.9 85.9,171.3 86.3,173.0 86.8,168.4 87.3,164.2 87.8,169.0 88.3,170.7 88.8,169.5 89.3,166.3 89.8,162.6 90.3,149.3 90.8,132.1 91.3,153.1 91.8,162.9 92.2,151.9 92.7,148.1 93.2,152.6 93.7,163.9 94.2,162.3 94.7,155.2 95.2,153.9 95.7,154.4 96.2,153.2 96.7,171.5 97.2,174.8 97.6,170.8 98.1,175.0 98.6,175.5 99.1,170.0 99.6,165.4 100.1,156.3 100.6,153.9 101.1,152.5 101.6,146.9 102.1,141.6 102.6,128.5 103.0,113.4 103.5,115.1 104.0,126.9 104.5,134.9 105.0,107.3 105.5,83.1 106.0,82.5 106.5,82.0 107.0,91.1 107.5,90.1 108.0,99.9 108.4,113.2 108.9,113.5 109.4,112.8 109.9,115.3 110.4,110.4 110.9,102.0 111.4,106.6 111.9,111.8 112.4,116.7 112.9,128.6 113.4,127.8 113.9,129.8 114.3,142.1 114.8,144.2 115.3,140.5 115.8,151.1 116.3,127.8 116.8,130.3 117.3,134.5 117.8,134.4 118.3,132.4 118.8,128.0 119.3,135.7 119.7,139.0 120.2,141.8 120.7,138.9 121.2,139.3 121.7,138.3 122.2,142.4 122.7,152.3 123.2,147.6 123.7,148.1 124.2,141.7 124.7,129.9 125.1,127.5 125.6,128.1 126.1,126.6 126.6,127.6 127.1,121.7 127.6,126.7 128.1,131.1 128.6,130.6 129.1,133.7 129.6,137.3 130.1,136.7 130.5,136.6 131.0,150.0 131.5,150.4 132.0,147.3 132.5,156.4 133.0,157.0 133.5,148.2 134.0,149.3 134.5,166.1 135.0,164.6 135.5,171.6 136.0,192.5 136.4,179.2 136.9,181.6 137.4,173.1 137.9,179.3 138.4,172.4 138.9,177.6 139.4,179.0 139.9,190.2 140.4,186.8 140.9,186.8 141.4,187.4 141.8,197.2 142.3,190.0 142.8,175.3 143.3,184.5 143.8,185.7 144.3,179.8 144.8,173.9 145.3,177.4 145.8,174.5 146.3,176.1 146.8,176.3 147.2,181.8 147.7,176.6 148.2,172.9 148.7,179.9 149.2,174.2 149.7,177.1 150.2,180.0 150.7,183.1 151.2,178.1 151.7,178.1 152.2,174.8 152.6,173.2 153.1,172.8 153.6,174.0 154.1,179.6 154.6,178.0 155.1,184.4 155.6,188.8 156.1,192.7 156.6,205.1 157.1,199.5 157.6,210.8 158.1,203.7 158.5,213.1 159.0,216.2 159.5,196.0 160.0,193.7 160.5,184.5 161.0,180.2 161.5,178.8 162.0,176.6 162.5,176.1 163.0,179.3 163.5,175.1 163.9,167.5 164.4,172.9 164.9,170.8 165.4,169.0 165.9,172.6 166.4,169.5 166.9,163.5 167.4,163.7 167.9,166.1 168.4,164.8 168.9,171.0 169.3,168.2 169.8,170.3 170.3,172.3 170.8,167.2 171.3,164.3 171.8,165.2 172.3,164.4 172.8,164.6 173.3,163.0 173.8,166.1 174.3,165.6 174.7,167.0 175.2,170.0 175.7,173.9 176.2,173.5 176.7,172.1 177.2,164.8 177.7,163.7 178.2,150.1 178.7,151.7 179.2,153.4 179.7,162.0 180.2,163.2 180.6,163.3 181.1,162.2 181.6,159.3 182.1,157.2 182.6,151.6 183.1,153.2 183.6,150.5 184.1,154.8 184.6,150.2 185.1,150.9 185.6,152.7 186.0,150.9 186.5,140.0 187.0,147.4 187.5,145.0 188.0,144.7 188.5,143.0 189.0,146.7 189.5,145.8 190.0,138.9 190.5,135.6 191.0,141.6 191.4,144.3 191.9,143.0 192.4,143.4 192.9,152.0 193.4,145.4 193.9,142.1 194.4,140.6 194.9,127.1 195.4,131.7 195.9,131.6 196.4,127.7 196.8,129.7 197.3,126.1 197.8,124.3 198.3,122.8 198.8,119.5 199.3,118.4 199.8,119.3 200.3,119.3 200.8,118.9 201.3,116.1 201.8,116.4 202.3,116.8 202.7,124.2 203.2,121.8 203.7,121.3 204.2,117.6 204.7,120.5 205.2,123.6 205.7,131.6 206.2,134.2 206.7,128.8 207.2,128.0 207.7,133.6 208.1,130.1 208.6,124.5 209.1,118.4 209.6,122.2 210.1,124.4 210.6,122.5 211.1,114.0 211.6,111.6 212.1,110.8 212.6,108.4 213.1,107.4 213.5,110.5 214.0,106.2 214.5,107.4 215.0,106.5 215.5,106.1 216.0,103.5 216.5,103.0 217.0,99.9 217.5,97.9 218.0,96.9 218.5,100.3 218.9,98.4 219.4,94.3 219.9,91.3 220.4,88.4 220.9,96.2 221.4,92.1 221.9,83.7 222.4,80.3 222.9,76.5 223.4,78.3 223.9,78.5 224.4,81.0 224.8,98.8 225.3,105.3 225.8,99.1 226.3,95.4 226.8,94.3 227.3,107.2 227.8,123.7 228.3,96.6 228.8,104.5 229.3,106.4 229.8,95.1 230.2,91.6 230.7,96.1 231.2,91.1 231.7,99.9 232.2,101.6 232.7,96.6 233.2,115.6 233.7,111.5 234.2,112.2 234.7,99.4 235.2,97.7 235.6,102.3 236.1,100.9 236.6,107.2 237.1,105.0 237.6,106.9 238.1,107.9 238.6,111.6 239.1,121.0 239.6,132.3 240.1,132.1 240.6,130.5 241.0,128.6 241.5,129.5 242.0,126.0 242.5,135.4 243.0,136.8 243.5,138.0 244.0,141.3 244.5,143.5 245.0,151.4 245.5,144.7 246.0,154.3 246.5,161.6 246.9,167.8 247.4,161.3 247.9,145.7 248.4,140.6 248.9,150.9 249.4,159.3 249.9,145.9 250.4,134.5 250.9,134.3 251.4,125.5 251.9,123.6 252.3,134.2 252.8,135.8 253.3,130.3 253.8,127.5 254.3,138.9 254.8,147.2 255.3,151.2 255.8,162.0 256.3,149.8 256.8,150.1 257.3,152.7 257.7,154.4 258.2,153.4 258.7,184.1 259.2,196.3 259.7,211.6 260.2,212.9 260.7,198.2 261.2,207.0 261.7,224.0 262.2,238.5 262.7,234.1 263.1,207.0 263.6,197.0 264.1,185.1 264.6,193.4 265.1,183.3 265.6,185.6 266.1,181.2 266.6,187.6 267.1,174.6 267.6,171.7 268.1,178.0 268.5,180.0 269.0,175.4 269.5,170.5 270.0,181.6 270.5,194.2 271.0,192.6 271.5,197.5 272.0,197.3 272.5,195.2 273.0,192.2 273.5,206.3 274.0,212.1 274.4,207.4 274.9,218.4 275.4,229.4 275.9,230.9 276.4,217.4 276.9,225.7 277.4,229.6 277.9,218.7 278.4,233.4 278.9,226.7 279.4,228.1 279.8,218.4 280.3,239.1 280.8,251.6 281.3,266.4 281.8,265.8 282.3,280.3 282.8,269.9 283.3,248.0 283.8,264.9 284.3,263.2 284.8,273.7 285.2,261.9 285.7,268.7 286.2,272.2 286.7,284.9 287.2,280.5 287.7,288.9 288.2,284.5 288.7,287.7 289.2,289.9 289.7,273.0 290.2,284.6 290.6,287.1 291.1,282.6 291.6,276.6 292.1,279.8 292.6,295.4 293.1,309.7 293.6,308.7 294.1,295.2 294.6,307.9 295.1,300.0 295.6,295.2 296.1,288.1 296.5,266.6 297.0,256.1 297.5,260.3 298.0,265.8 298.5,266.7 299.0,271.9 299.5,264.8 300.0,252.1 300.5,253.1 301.0,247.2 301.5,246.5 301.9,251.5 302.4,263.7 302.9,258.5 303.4,262.7 303.9,260.5 304.4,262.4 304.9,262.4 305.4,249.7 305.9,248.7 306.4,266.8 306.9,270.3 307.3,284.2 307.8,269.0 308.3,266.4 308.8,258.1 309.3,256.8 309.8,253.9 310.3,243.4 310.8,245.2 311.3,239.8 311.8,234.0 312.3,245.5 312.7,230.2 313.2,237.2 313.7,236.4 314.2,234.5 314.7,237.8 315.2,244.6 315.7,244.1 316.2,253.2 316.7,256.0 317.2,254.3 317.7,246.7 318.2,208.5 318.6,207.1 319.1,217.9 319.6,219.6 320.1,223.4 320.6,231.5 321.1,233.3 321.6,235.1 322.1,226.7 322.6,224.9 323.1,216.2 323.6,209.5 324.0,217.0 324.5,206.9 325.0,208.3 325.5,219.7 326.0,216.7 326.5,221.6 327.0,225.7 327.5,233.0 328.0,232.6 328.5,240.3 329.0,235.1 329.4,230.8 329.9,234.6 330.4,235.0 330.9,232.2 331.4,220.5 331.9,219.0 332.4,215.5 332.9,229.5 333.4,247.2 333.9,253.7 334.4,247.8 334.8,250.5 335.3,255.1 335.8,237.6 336.3,231.5 336.8,233.8 337.3,230.6 337.8,227.4 338.3,229.8 338.8,222.6 339.3,235.5 339.8,235.9 340.3,246.5 340.7,245.8 341.2,246.7 341.7,260.8 342.2,257.4 342.7,281.1 343.2,285.6 343.7,285.5 344.2,289.7 344.7,263.7 345.2,246.8 345.7,248.6 346.1,242.1 346.6,253.0 347.1,260.8 347.6,262.7 348.1,269.2 348.6,266.3 349.1,262.4 349.6,264.6 350.1,269.3 350.6,275.3 351.1,266.9 351.5,253.1 352.0,258.3 352.5,276.5 353.0,275.0 353.5,274.1 354.0,267.0 354.5,264.8 355.0,256.9 355.5,257.3 356.0,259.0 356.5,267.2 356.9,267.5 357.4,273.2 357.9,269.1 358.4,262.0 358.9,270.2 359.4,272.7 359.9,273.7 360.4,272.8 360.9,267.6 361.4,266.1 361.9,276.7 362.4,283.7 362.8,296.7 363.3,293.0 363.8,278.2 364.3,273.4 364.8,271.1 365.3,267.9 365.8,269.5 366.3,263.3 366.8,270.5 367.3,277.1 367.8,264.5 368.2,257.6 368.7,263.2 369.2,264.9 369.7,255.0 370.2,246.8 370.7,254.4 371.2,250.2 371.7,240.2 372.2,226.4 372.7,242.3 373.2,248.3 373.6,245.2 374.1,247.2 374.6,243.0 375.1,249.2 375.6,243.9 376.1,233.8 376.6,229.3 377.1,241.1 377.6,253.0 378.1,256.4 378.6,257.2 379.0,254.2 379.5,259.9 380.0,252.4 380.5,252.7 381.0,252.5 381.5,277.0 382.0,267.9 382.5,268.0 383.0,267.5 383.5,267.2 384.0,275.6 384.5,282.3 384.9,273.7 385.4,270.9 385.9,271.2 386.4,272.1 386.9,276.5 387.4,276.7 387.9,268.8 388.4,276.5 388.9,269.9 389.4,275.3 389.9,277.4 390.3,277.6 390.8,274.1 391.3,267.9 391.8,252.8 392.3,258.0 392.8,251.4 393.3,262.4 393.8,263.4 394.3,260.7 394.8,271.8 395.3,271.1 395.7,268.9 396.2,267.9 396.7,263.9 397.2,263.1 397.7,264.8 398.2,267.1 398.7,264.0 399.2,267.4 399.7,276.7 400.2,261.6 400.7,259.5 401.1,260.4 401.6,261.7 402.1,264.4 402.6,264.7 403.1,251.6 403.6,252.9 404.1,245.6 404.6,241.7 405.1,232.7 405.6,234.9 406.1,237.8 406.6,232.7 407.0,233.1 407.5,230.6 408.0,220.0 408.5,227.7 409.0,226.0 409.5,229.4 410.0,227.4 410.5,260.6 411.0,258.0 411.5,247.7 412.0,240.0 412.4,237.9 412.9,229.4 413.4,222.6 413.9,222.1 414.4,235.9 414.9,230.3 415.4,234.2 415.9,232.9 416.4,231.2 416.9,223.3 417.4,213.5 417.8,220.2 418.3,225.3 418.8,231.3 419.3,225.8 419.8,226.2 420.3,235.1 420.8,227.5 421.3,220.5 421.8,228.8 422.3,228.6 422.8,227.5 423.2,232.2 423.7,232.6 424.2,234.3 424.7,235.3 425.2,232.7 425.7,232.9 426.2,220.1 426.7,223.6 427.2,220.1 427.7,216.2 428.2,218.9 428.7,228.2 429.1,228.6 429.6,229.8 430.1,225.1 430.6,234.9 431.1,236.8 431.6,229.8 432.1,226.8 432.6,227.9 433.1,240.9 433.6,244.9 434.1,238.6 434.5,238.6 435.0,250.4 435.5,253.1 436.0,251.9 436.5,253.9 437.0,254.5 437.5,256.6 438.0,258.4 438.5,261.8 439.0,260.9 439.5,255.7 439.9,254.8 440.4,251.1 440.9,260.9 441.4,254.9 441.9,259.5 442.4,254.0 442.9,251.5 443.4,249.8 443.9,249.5 444.4,246.8 444.9,249.0 445.3,246.3 445.8,239.4 446.3,234.7 446.8,238.4 447.3,240.1 447.8,242.7 448.3,243.3 448.8,244.4 449.3,246.4 449.8,247.7 450.3,259.2 450.8,258.4 451.2,258.3 451.7,261.6 452.2,261.1 452.7,256.6 453.2,254.6 453.7,256.6 454.2,259.5 454.7,255.6 455.2,257.7 455.7,246.2 456.2,244.0 456.6,242.5 457.1,242.1 457.6,246.1 458.1,249.4 458.6,243.7 459.1,246.8 459.6,254.1 460.1,253.8 460.6,260.9 461.1,259.7 461.6,256.6 462.0,267.6 462.5,269.6 463.0,266.3 463.5,265.3 464.0,264.1 464.5,265.2 465.0,267.1 465.5,258.0 466.0,265.2 466.5,246.6 467.0,247.7 467.4,250.3 467.9,245.6 468.4,247.6 468.9,239.5 469.4,242.6 469.9,245.0 470.4,244.0 470.9,238.5 471.4,238.6 471.9,236.1 472.4,233.7 472.9,234.6 473.3,233.3 473.8,229.3 474.3,216.7 474.8,218.4 475.3,216.1 475.8,218.2 476.3,219.9 476.8,217.1 477.3,213.8 477.8,211.6 478.3,211.1 478.7,208.2 479.2,204.2 479.7,205.9 480.2,205.9 480.7,205.9 481.2,210.3 481.7,208.0 482.2,209.0 482.7,206.3 483.2,206.2 483.7,203.9 484.1,205.9 484.6,215.3 485.1,220.1 485.6,220.6 486.1,215.3 486.6,208.4 487.1,207.9 487.6,207.4 488.1,209.1 488.6,213.2 489.1,216.4 489.5,216.3 490.0,217.8 490.5,211.4 491.0,205.8 491.5,199.9 492.0,201.5 492.5,199.5 493.0,202.7 493.5,196.4 494.0,199.3 494.5,209.1 495.0,205.1 495.4,188.5 495.9,191.2 496.4,192.8 496.9,188.9 497.4,185.0 497.9,176.6 498.4,177.5 498.9,181.2 499.4,174.5 499.9,177.3 500.4,179.0 500.8,187.4 501.3,190.6 501.8,182.8 502.3,179.8 502.8,178.5 503.3,176.1 503.8,179.3 504.3,216.1 504.8,217.7 505.3,226.5 505.8,237.4 506.2,238.2 506.7,236.6 507.2,243.4 507.7,243.5 508.2,243.9 508.7,243.5 509.2,247.3 509.7,249.6 510.2,250.4 510.7,248.8 511.2,242.6 511.6,248.0 512.1,247.2 512.6,248.3 513.1,248.4 513.6,246.1 514.1,244.3 514.6,245.5 515.1,250.5 515.6,254.3 516.1,256.3 516.6,253.3 517.1,252.1 517.5,251.3 518.0,254.4 518.5,246.8 519.0,247.8 519.5,255.6 520.0,257.6 520.5,259.5 521.0,259.9 521.5,263.7 522.0,261.4 522.5,256.6 522.9,252.0 523.4,254.9 523.9,248.3 524.4,249.1 524.9,251.7 525.4,250.6 525.9,248.7 526.4,246.9 526.9,241.9 527.4,247.1 527.9,248.7 528.3,250.9 528.8,249.4 529.3,246.3 529.8,245.0 530.3,241.1 530.8,240.4 531.3,244.0 531.8,240.7 532.3,243.0 532.8,242.3 533.3,252.4 533.7,250.6 534.2,257.1 534.7,260.2 535.2,269.4 535.7,275.8 536.2,274.8 536.7,274.7 537.2,278.4 537.7,281.5 538.2,282.6 538.7,289.0 539.2,286.5 539.6,283.9 540.1,290.2 540.6,288.4 541.1,283.4 541.6,287.8 542.1,289.2 542.6,287.5 543.1,291.9 543.6,292.7 544.1,285.6 544.6,278.9 545.0,277.3 545.5,267.1 546.0,268.2 546.5,267.0 547.0,266.8 547.5,268.6 548.0,274.1 548.5,274.0 549.0,273.1 549.5,276.4 550.0,279.1 550.4,275.7 550.9,277.3 551.4,284.6 551.9,284.6 552.4,282.7 552.9,280.7 553.4,290.7 553.9,284.9 554.4,285.8 554.9,285.0 555.4,285.9 555.8,283.8 556.3,292.7 556.8,299.4 557.3,310.8 557.8,307.2 558.3,306.8 558.8,296.6 559.3,292.4 559.8,294.5 560.3,288.6 560.8,288.2 561.3,288.6 561.7,287.1 562.2,282.3 562.7,281.6 563.2,277.3 563.7,306.6 564.2,305.5 564.7,302.2 565.2,306.1 565.7,312.5 566.2,308.3 566.7,308.2 567.1,314.4 567.6,313.8 568.1,312.2 568.6,317.5 569.1,315.2 569.6,314.7 570.1,311.8 570.6,310.2 571.1,309.1 571.6,310.4 572.1,312.4 572.5,313.8 573.0,308.5 573.5,314.7 574.0,309.7 574.5,311.0 575.0,310.8 575.5,311.0 576.0,308.7 576.5,307.1 577.0,314.7 577.5,315.7 577.9,314.3 578.4,307.4 578.9,308.8 579.4,309.3 579.9,299.6 580.4,293.4 580.9,293.0 581.4,294.3 581.9,294.9 582.4,300.8 582.9,300.6 583.4,299.8 583.8,299.8 584.3,306.1 584.8,309.2 585.3,307.0 585.8,305.3 586.3,303.2 586.8,301.6 587.3,300.6 587.8,307.2 588.3,306.1 588.8,309.0 589.2,304.5 589.7,296.9 590.2,293.7 590.7,297.7 591.2,293.8 591.7,290.9 592.2,283.3 592.7,285.4 593.2,290.2 593.7,288.0 594.2,284.0 594.6,285.6 595.1,233.5 595.6,237.7 596.1,233.4 596.6,233.5 597.1,231.0 597.6,229.8 598.1,232.3 598.6,228.6 599.1,217.9 599.6,221.3 600.0,220.7 600.5,223.6 601.0,233.3 601.5,232.8 602.0,234.9 602.5,237.5 603.0,232.3 603.5,234.1 604.0,243.1 604.5,241.3 605.0,239.0 605.5,244.4 605.9,242.6 606.4,242.1 606.9,247.7 607.4,252.0 607.9,252.6 608.4,249.0 608.9,243.6 609.4,242.6 609.9,247.4 610.4,244.9 610.9,243.3 611.3,243.3 611.8,242.2 612.3,239.6 612.8,237.5 613.3,234.1 613.8,231.1 614.3,227.0 614.8,229.7 615.3,230.5 615.8,229.0 616.3,216.4 616.7,221.5 617.2,225.1 617.7,222.9 618.2,221.8 618.7,215.3 619.2,215.5 619.7,218.0 620.2,220.3 620.7,218.2 621.2,220.8 621.7,217.2 622.1,211.9 622.6,216.8 623.1,211.8 623.6,217.8 624.1,219.4 624.6,226.6 625.1,233.9 625.6,241.3 626.1,239.1 626.6,231.0 627.1,227.4 627.5,231.0 628.0,231.1 628.5,227.2 629.0,250.5 629.5,247.4 630.0,261.0 630.5,258.1 631.0,255.1 631.5,258.2 632.0,250.6 632.5,250.3 633.0,252.7 633.4,250.8 633.9,249.4 634.4,248.0 634.9,242.5 635.4,242.9 635.9,246.4 636.4,249.6 636.9,257.2 637.4,262.8 637.9,258.5 638.4,253.2 638.8,270.8 639.3,283.6 639.8,282.9 640.3,279.4 640.8,256.6 641.3,264.9 641.8,264.3 642.3,264.8 642.8,262.3 643.3,262.9 643.8,266.2 644.2,274.7 644.7,270.4 645.2,261.2 645.7,247.6 646.2,247.9 646.7,247.3 647.2,245.7 647.7,246.7 648.2,240.0 648.7,237.5 649.2,237.3 649.6,236.6 650.1,234.3 650.6,230.7 651.1,230.5 651.6,223.9 652.1,223.4 652.6,222.9 653.1,221.4 653.6,221.3 654.1,222.3 654.6,221.5 655.1,225.3 655.5,202.1 656.0,205.0 656.5,199.2 657.0,201.0 657.5,202.9 658.0,199.8 658.5,195.9 659.0,196.8 659.5,196.4 660.0,195.9 660.5,195.3 660.9,195.3 661.4,197.6 661.9,197.2 662.4,194.9 662.9,197.6 663.4,196.8 663.9,196.5 664.4,194.2 664.9,194.3 665.4,192.8 665.9,184.8 666.3,186.2 666.8,185.8 667.3,185.3 667.8,184.3 668.3,190.8 668.8,189.7 669.3,186.2 669.8,182.7 670.3,184.5 670.8,185.9 671.3,192.2 671.7,195.3 672.2,192.9 672.7,193.6 673.2,194.3 673.7,194.6 674.2,190.1 674.7,191.1 675.2,194.0 675.7,193.8 676.2,191.7 676.7,187.9 677.2,188.6 677.6,188.5 678.1,187.2 678.6,184.5 679.1,200.4 679.6,197.3 680.1,199.8 680.6,195.5 681.1,199.2 681.6,212.8 682.1,212.7 682.6,211.5 683.0,207.9 683.5,209.8 684.0,205.8 684.5,206.6 685.0,211.9 685.5,209.8 686.0,210.0 686.5,208.0 687.0,210.0 687.5,210.3 688.0,204.6 688.4,170.7 688.9,172.4 689.4,176.4 689.9,179.8 690.4,185.9 690.9,182.8 691.4,182.1 691.9,182.8 692.4,182.6 692.9,183.7 693.4,186.5 693.8,182.7 694.3,190.9 694.8,189.2 695.3,185.7 695.8,178.9 696.3,179.6 696.8,184.5 697.3,185.3 697.8,186.1 698.3,183.6 698.8,183.1 699.3,182.9 699.7,178.8 700.2,171.0 700.7,175.2 701.2,169.5 701.7,175.4 702.2,163.7 702.7,163.4 703.2,169.8 703.7,165.9 704.2,170.8 704.7,170.8 705.1,171.4 705.6,170.9 706.1,167.1 706.6,165.7 707.1,170.1 707.6,161.7 708.1,158.1 708.6,152.5 709.1,151.7 709.6,149.9 710.1,148.9 710.5,146.4 711.0,144.9 711.5,152.9 712.0,153.3 712.5,153.4 713.0,154.7 713.5,150.7 714.0,148.9 714.5,149.8 715.0,158.9 715.5,158.8 715.9,161.9 716.4,160.6 716.9,161.7 717.4,167.9 717.9,176.1 718.4,169.9 718.9,163.7 719.4,164.9 719.9,163.0 720.4,162.4 720.9,156.9 721.4,153.2 721.8,175.5 722.3,180.2 722.8,183.1 723.3,185.3 723.8,190.4 724.3,187.0 724.8,189.2 725.3,191.4 725.8,186.9 726.3,190.6 726.8,186.3 727.2,185.4 727.7,181.8 728.2,183.2 728.7,185.8 729.2,184.2 729.7,185.0 730.2,185.7 730.7,188.0 731.2,190.2 731.7,183.8 732.2,175.7 732.6,176.5 733.1,184.3 733.6,188.2 734.1,187.2 734.6,196.5 735.1,199.4 735.6,198.0 736.1,195.7 736.6,199.4 737.1,199.1 737.6,195.0 738.0,196.3 738.5,194.9 739.0,193.6 739.5,190.8 740.0,205.6 740.5,211.8 741.0,213.8 741.5,231.5 742.0,240.1 742.5,249.9 743.0,236.6 743.5,228.6 743.9,221.8 744.4,225.6 744.9,231.8 745.4,222.1 745.9,227.4 746.4,228.5 746.9,225.2 747.4,232.2 747.9,248.9 748.4,244.9 748.9,235.8 749.3,231.6 749.8,236.7 750.3,234.6 750.8,239.5 751.3,236.8 751.8,227.0 752.3,223.9 752.8,221.5 753.3,229.3 753.8,225.0 754.3,227.2 754.7,225.8 755.2,230.2 755.7,230.0 756.2,231.4 756.7,229.2 757.2,237.1 757.7,230.4 758.2,244.6 758.7,245.4 759.2,243.4 759.7,254.6 760.1,253.5 760.6,257.0 761.1,254.2 761.6,255.7 762.1,258.7 762.6,258.9 763.1,258.0 763.6,281.2 764.1,297.4 764.6,278.4 765.1,276.7 765.6,264.9 766.0,266.1 766.5,265.5 767.0,257.4 767.5,257.0 768.0,251.3 768.5,262.5 769.0,270.3 769.5,265.2 770.0,267.4 770.5,269.1 771.0,275.4 771.4,269.4 771.9,265.2 772.4,268.5 772.9,271.0 773.4,253.5 773.9,255.0 774.4,256.2 774.9,255.6 775.4,255.1 775.9,257.1 776.4,249.0 776.8,241.3 777.3,235.4 777.8,238.2 778.3,239.8 778.8,232.6 779.3,226.9 779.8,229.3 780.3,172.0 780.8,159.9 781.3,142.9 781.8,155.9 782.2,170.4 782.7,168.2 783.2,172.8 783.7,171.1 784.2,171.7 784.7,171.5 785.2,171.1 785.7,177.0 786.2,170.8 786.7,172.7 787.2,175.7 787.7,177.4 788.1,182.0 788.6,178.9 789.1,182.5 789.6,181.6 790.1,164.7 790.6,162.7 791.1,160.6 791.6,155.8 792.1,156.6 792.6,155.2 793.1,154.7 793.5,155.7 794.0,151.4 794.5,155.7 795.0,150.6 795.5,145.7 796.0,148.5"/>
<text x="78" y="392" font-size="11" fill="#16a34a">Total return +7.1%</text><text x="268" y="392" font-size="11" fill="#2563eb">Price-only +7.1%</text><text x="78" y="362" font-size="11" text-anchor="middle" fill="#64748b">2020-09</text><text x="257" y="362" font-size="11" text-anchor="middle" fill="#64748b">2022-02</text><text x="437" y="362" font-size="11" text-anchor="middle" fill="#64748b">2023-08</text><text x="617" y="362" font-size="11" text-anchor="middle" fill="#64748b">2025-01</text><text x="796" y="362" font-size="11" text-anchor="middle" fill="#64748b">2026-07</text></svg>