<svg xmlns="http://www.w3.org/2000/svg" width="820" height="410" viewBox="0 0 820 410">
<rect width="820" height="410" fill="#fafafa"/><text x="78" y="22" font-size="14" font-family="sans-serif" fill="#0f172a">AFRM cumulative return since 2021-01-13 | dividends reinvested</text>
<text x="78" y="40" font-size="11" font-family="sans-serif" fill="#334155">Total return -22.2% | Price-only -22.2% | logarithmic scale</text>
<text x="78" y="54" font-size="9" font-family="sans-serif" fill="#64748b">Regular $0.00 | Special $0.00 | Other $0.00 per initial share path</text>
<line x1="78" y1="332.0" x2="796" y2="332.0" stroke="#e2e8f0"/><text x="70" y="336.0" font-size="10" text-anchor="end" fill="#64748b">-92.2%</text><line x1="78" y1="287.0" x2="796" y2="287.0" stroke="#e2e8f0"/><text x="70" y="291.0" font-size="10" text-anchor="end" fill="#64748b">-86.6%</text><line x1="78" y1="242.0" x2="796" y2="242.0" stroke="#e2e8f0"/><text x="70" y="246.0" font-size="10" text-anchor="end" fill="#64748b">-76.8%</text><line x1="78" y1="197.0" x2="796" y2="197.0" stroke="#e2e8f0"/><text x="70" y="201.0" font-size="10" text-anchor="end" fill="#64748b">-59.8%</text><line x1="78" y1="152.0" x2="796" y2="152.0" stroke="#e2e8f0"/><text x="70" y="156.0" font-size="10" text-anchor="end" fill="#64748b">-30.4%</text><line x1="78" y1="122.3" x2="796" y2="122.3" stroke="#e2e8f0"/><text x="70" y="126.3" font-size="10" text-anchor="end" fill="#64748b">0%</text><line x1="78" y1="107.0" x2="796" y2="107.0" stroke="#e2e8f0"/><text x="70" y="111.0" font-size="10" text-anchor="end" fill="#64748b">+20.5%</text><line x1="78" y1="62.0" x2="796" y2="62.0" stroke="#e2e8f0"/><text x="70" y="66.0" font-size="10" text-anchor="end" fill="#64748b">+108.6%</text>
<line x1="78" y1="332" x2="796" y2="332" stroke="#cbd5e1"/>
<polyline fill="none" stroke="#2563eb" stroke-width="2" points="78.0,122.3 78.5,107.8 79.0,106.4 79.6,110.7 80.1,114.3 80.6,112.2 81.1,104.3 81.6,109.5 82.2,111.4 82.7,115.0 83.2,119.7 83.7,119.6 84.2,113.2 84.7,109.2 85.3,110.7 85.8,112.4 86.3,116.5 86.8,102.4 87.3,97.1 87.9,93.9 88.4,91.7 88.9,100.4 89.4,104.9 89.9,109.6 90.5,114.8 91.0,114.5 91.5,115.4 92.0,117.6 92.5,117.2 93.0,124.2 93.6,125.2 94.1,126.6 94.6,126.3 95.1,131.3 95.6,133.1 96.2,136.4 96.7,143.6 97.2,137.9 97.7,136.8 98.2,136.3 98.8,138.0 99.3,136.2 99.8,136.7 100.3,136.4 100.8,143.5 101.3,140.3 101.9,135.5 102.4,138.7 102.9,145.5 103.4,149.0 103.9,148.8 104.5,148.5 105.0,152.8 105.5,147.7 106.0,146.8 106.5,149.2 107.1,145.1 107.6,146.8 108.1,148.7 108.6,147.7 109.1,151.0 109.6,148.4 110.2,150.0 110.7,150.1 111.2,148.8 111.7,153.3 112.2,154.6 112.8,151.4 113.3,150.1 113.8,143.8 114.3,139.7 114.8,141.4 115.4,140.5 115.9,143.9 116.4,147.9 116.9,152.4 117.4,158.2 117.9,164.5 118.5,169.1 119.0,169.8 119.5,165.4 120.0,167.6 120.5,176.4 121.1,178.8 121.6,169.8 122.1,175.1 122.6,173.5 123.1,175.4 123.7,168.4 124.2,170.8 124.7,171.1 125.2,169.7 125.7,165.4 126.2,164.9 126.8,160.0 127.3,157.8 127.8,154.3 128.3,156.8 128.8,161.6 129.4,161.9 129.9,157.8 130.4,160.8 130.9,156.3 131.4,150.9 132.0,149.8 132.5,151.8 133.0,151.6 133.5,149.2 134.0,150.7 134.5,156.1 135.1,156.6 135.6,154.4 136.1,152.9 136.6,155.3 137.1,155.3 137.7,152.8 138.2,151.7 138.7,150.4 139.2,149.8 139.7,150.9 140.3,155.5 140.8,155.9 141.3,151.8 141.8,154.6 142.3,163.6 142.8,165.7 143.4,164.7 143.9,164.6 144.4,167.0 144.9,164.8 145.4,160.3 146.0,162.5 146.5,163.0 147.0,161.9 147.5,161.8 148.0,159.5 148.6,160.0 149.1,166.3 149.6,155.0 150.1,152.5 150.6,150.6 151.1,151.9 151.7,151.9 152.2,153.5 152.7,153.9 153.2,150.1 153.7,151.4 154.3,153.4 154.8,156.4 155.3,156.5 155.8,155.0 156.3,156.5 156.9,154.9 157.4,151.2 157.9,150.2 158.4,145.4 158.9,148.5 159.4,151.0 160.0,119.6 160.5,122.3 161.0,122.2 161.5,120.1 162.0,125.2 162.6,126.5 163.1,130.2 163.6,126.0 164.1,101.8 164.6,112.0 165.2,112.9 165.7,111.6 166.2,106.0 166.7,106.9 167.2,113.2 167.8,112.9 168.3,108.5 168.8,99.7 169.3,101.8 169.8,98.8 170.3,108.1 170.9,109.4 171.4,104.9 171.9,105.8 172.4,113.0 172.9,110.4 173.5,95.4 174.0,95.3 174.5,91.0 175.0,94.6 175.5,91.3 176.1,88.2 176.6,86.9 177.1,87.8 177.6,82.1 178.1,83.1 178.6,87.3 179.2,83.1 179.7,83.2 180.2,80.7 180.7,85.0 181.2,85.4 181.8,79.8 182.3,79.4 182.8,84.6 183.3,82.9 183.8,80.2 184.4,76.5 184.9,78.6 185.4,79.0 185.9,81.9 186.4,95.5 186.9,85.0 187.5,86.6 188.0,87.1 188.5,85.3 189.0,85.1 189.5,92.2 190.1,93.9 190.6,101.9 191.1,99.3 191.6,96.0 192.1,93.5 192.7,96.4 193.2,99.9 193.7,106.7 194.2,108.7 194.7,113.5 195.2,110.7 195.8,102.5 196.3,99.0 196.8,104.9 197.3,108.0 197.8,111.5 198.4,114.7 198.9,110.7 199.4,119.9 199.9,120.3 200.4,121.4 201.0,116.3 201.5,118.4 202.0,118.3 202.5,114.7 203.0,117.8 203.5,120.7 204.1,116.1 204.6,118.8 205.1,123.3 205.6,132.2 206.1,138.0 206.7,136.4 207.2,137.9 207.7,139.4 208.2,136.5 208.7,138.8 209.3,146.0 209.8,149.5 210.3,155.6 210.8,155.5 211.3,157.4 211.8,164.5 212.4,163.6 212.9,169.0 213.4,167.2 213.9,174.5 214.4,161.5 215.0,155.8 215.5,151.5 216.0,159.9 216.5,164.7 217.0,157.5 217.6,157.1 218.1,154.3 218.6,143.2 219.1,163.0 219.6,182.0 220.1,187.1 220.7,185.1 221.2,188.6 221.7,199.3 222.2,200.1 222.7,202.1 223.3,205.3 223.8,197.1 224.3,196.1 224.8,190.7 225.3,189.7 225.9,190.8 226.4,196.3 226.9,203.4 227.4,208.8 227.9,207.0 228.4,201.2 229.0,201.8 229.5,215.7 230.0,229.0 230.5,222.7 231.0,209.3 231.6,201.3 232.1,193.0 232.6,190.5 233.1,187.5 233.6,186.4 234.2,185.1 234.7,190.1 235.2,188.0 235.7,179.2 236.2,181.6 236.7,182.4 237.3,181.9 237.8,180.0 238.3,186.9 238.8,192.6 239.3,197.1 239.9,199.5 240.4,199.3 240.9,199.7 241.4,197.7 241.9,204.9 242.5,204.9 243.0,200.7 243.5,205.9 244.0,210.4 244.5,214.9 245.0,211.5 245.6,217.5 246.1,219.8 246.6,214.7 247.1,221.6 247.6,217.0 248.2,217.7 248.7,213.3 249.2,226.6 249.7,233.1 250.2,248.8 250.8,259.0 251.3,276.9 251.8,259.7 252.3,237.3 252.8,240.0 253.3,232.2 253.9,234.8 254.4,230.6 254.9,233.5 255.4,234.5 255.9,248.2 256.5,239.7 257.0,223.6 257.5,217.0 258.0,222.2 258.5,235.2 259.1,228.4 259.6,232.6 260.1,237.2 260.6,235.1 261.1,238.6 261.7,246.5 262.2,249.4 262.7,260.2 263.2,261.3 263.7,257.2 264.2,265.9 264.8,258.5 265.3,254.5 265.8,254.3 266.3,244.7 266.8,238.8 267.4,240.8 267.9,249.0 268.4,255.4 268.9,259.6 269.4,263.6 270.0,251.9 270.5,250.5 271.0,237.6 271.5,238.6 272.0,245.8 272.5,242.7 273.1,248.1 273.6,244.1 274.1,239.6 274.6,236.8 275.1,229.6 275.7,218.9 276.2,218.7 276.7,227.3 277.2,229.2 277.7,239.4 278.3,229.6 278.8,230.3 279.3,227.1 279.8,226.1 280.3,223.2 280.8,213.0 281.4,211.3 281.9,209.2 282.4,205.6 282.9,211.2 283.4,201.3 284.0,200.9 284.5,196.1 285.0,197.7 285.5,194.6 286.0,199.9 286.6,203.6 287.1,215.5 287.6,219.4 288.1,219.9 288.6,217.4 289.1,214.7 289.7,234.4 290.2,236.3 290.7,237.9 291.2,238.3 291.7,239.2 292.3,241.8 292.8,242.3 293.3,239.6 293.8,237.3 294.3,228.9 294.9,227.3 295.4,235.6 295.9,235.2 296.4,236.3 296.9,242.3 297.4,240.8 298.0,242.9 298.5,246.0 299.0,251.2 299.5,254.2 300.0,255.3 300.6,253.8 301.1,248.6 301.6,255.2 302.1,256.5 302.6,255.4 303.2,244.9 303.7,247.5 304.2,247.4 304.7,255.9 305.2,257.2 305.7,253.9 306.3,252.0 306.8,256.5 307.3,263.3 307.8,257.9 308.3,253.2 308.9,260.3 309.4,259.7 309.9,258.5 310.4,259.6 310.9,248.7 311.5,249.0 312.0,248.7 312.5,249.9 313.0,250.9 313.5,253.5 314.0,261.7 314.6,266.2 315.1,268.9 315.6,271.5 316.1,271.4 316.6,292.4 317.2,274.9 317.7,264.5 318.2,268.1 318.7,263.1 319.2,274.2 319.8,277.1 320.3,283.4 320.8,286.8 321.3,288.7 321.8,284.6 322.3,286.1 322.9,289.3 323.4,287.8 323.9,281.0 324.4,278.1 324.9,276.9 325.5,286.6 326.0,293.4 326.5,297.8 327.0,295.8 327.5,297.8 328.1,291.3 328.6,294.6 329.1,298.1 329.6,305.1 330.1,307.1 330.6,312.5 331.2,312.8 331.7,312.2 332.2,315.4 332.7,315.0 333.2,317.5 333.8,316.4 334.3,310.9 334.8,310.8 335.3,315.8 335.8,309.0 336.4,315.0 336.9,316.2 337.4,312.9 337.9,307.6 338.4,297.9 338.9,291.8 339.5,287.3 340.0,283.8 340.5,286.7 341.0,291.4 341.5,278.7 342.1,272.4 342.6,278.6 343.1,279.7 343.6,278.4 344.1,268.3 344.7,274.3 345.2,268.6 345.7,261.2 346.2,246.7 346.7,259.2 347.2,264.5 347.8,263.6 348.3,269.4 348.8,284.7 349.3,289.6 349.8,288.5 350.4,285.9 350.9,276.5 351.4,283.0 351.9,286.7 352.4,287.8 353.0,283.7 353.5,282.3 354.0,286.1 354.5,287.6 355.0,282.7 355.6,289.1 356.1,287.0 356.6,282.7 357.1,285.5 357.6,293.1 358.1,292.2 358.7,298.0 359.2,305.1 359.7,305.4 360.2,308.0 360.7,309.4 361.3,308.4 361.8,312.4 362.3,314.1 362.8,304.1 363.3,310.1 363.9,308.2 364.4,305.4 364.9,306.3 365.4,312.5 365.9,304.1 366.4,304.7 367.0,298.3 367.5,298.1 368.0,301.7 368.5,304.9 369.0,303.5 369.6,299.3 370.1,295.2 370.6,300.7 371.1,297.5 371.6,300.0 372.2,296.5 372.7,295.3 373.2,296.7 373.7,300.9 374.2,300.3 374.7,303.8 375.3,308.5 375.8,309.4 376.3,306.8 376.8,309.2 377.3,308.2 377.9,316.6 378.4,314.4 378.9,315.5 379.4,302.4 379.9,293.5 380.5,291.1 381.0,291.4 381.5,290.0 382.0,292.6 382.5,287.8 383.0,290.5 383.6,285.6 384.1,276.5 384.6,281.9 385.1,277.4 385.6,278.1 386.2,278.7 386.7,282.2 387.2,280.0 387.7,276.3 388.2,275.6 388.8,277.2 389.3,271.1 389.8,271.9 390.3,270.5 390.8,268.5 391.3,256.1 391.9,262.7 392.4,258.7 392.9,256.6 393.4,264.4 393.9,263.2 394.5,266.2 395.0,269.3 395.5,272.1 396.0,275.4 396.5,275.9 397.1,275.7 397.6,273.7 398.1,272.2 398.6,272.8 399.1,273.0 399.6,268.9 400.2,272.6 400.7,281.7 401.2,282.6 401.7,276.0 402.2,268.5 402.8,267.7 403.3,262.4 403.8,267.6 404.3,264.0 404.8,264.4 405.4,261.5 405.9,264.0 406.4,264.0 406.9,264.2 407.4,261.7 407.9,261.1 408.5,267.4 409.0,263.3 409.5,253.8 410.0,252.8 410.5,260.9 411.1,262.4 411.6,266.1 412.1,271.3 412.6,270.6 413.1,272.0 413.7,274.9 414.2,274.0 414.7,274.1 415.2,277.6 415.7,278.3 416.2,279.2 416.8,277.6 417.3,276.8 417.8,279.2 418.3,277.5 418.8,281.6 419.4,260.8 419.9,260.1 420.4,254.8 420.9,251.1 421.4,248.0 422.0,243.9 422.5,243.7 423.0,243.0 423.5,241.6 424.0,241.7 424.5,237.8 425.1,236.7 425.6,238.5 426.1,237.6 426.6,235.0 427.1,232.9 427.7,237.1 428.2,239.4 428.7,246.3 429.2,250.5 429.7,250.3 430.3,251.6 430.8,250.2 431.3,247.8 431.8,246.2 432.3,249.4 432.8,258.6 433.4,260.3 433.9,262.1 434.4,260.1 434.9,256.4 435.4,252.5 436.0,250.7 436.5,257.2 437.0,259.9 437.5,256.0 438.0,251.4 438.6,256.3 439.1,258.6 439.6,258.7 440.1,257.6 440.6,253.1 441.2,266.3 441.7,262.6 442.2,264.9 442.7,264.1 443.2,261.7 443.7,261.7 444.3,247.1 444.8,241.8 445.3,244.5 445.8,243.1 446.3,244.3 446.9,233.4 447.4,241.8 447.9,240.2 448.4,231.1 448.9,229.8 449.5,234.5 450.0,233.6 450.5,231.4 451.0,232.8 451.5,231.1 452.0,229.0 452.6,219.7 453.1,210.8 453.6,207.4 454.1,206.7 454.6,199.3 455.2,197.4 455.7,198.2 456.2,197.8 456.7,195.6 457.2,190.3 457.8,194.6 458.3,195.4 458.8,185.8 459.3,185.0 459.8,186.6 460.3,187.1 460.9,175.3 461.4,183.8 461.9,179.5 462.4,177.7 462.9,176.0 463.5,174.1 464.0,173.8 464.5,177.5 465.0,181.9 465.5,187.5 466.1,189.4 466.6,188.4 467.1,184.1 467.6,186.4 468.1,187.4 468.6,188.8 469.2,190.8 469.7,192.4 470.2,192.4 470.7,194.1 471.2,190.1 471.8,185.9 472.3,190.6 472.8,193.4 473.3,193.0 473.8,191.7 474.4,187.0 474.9,189.0 475.4,193.4 475.9,195.1 476.4,192.4 476.9,191.3 477.5,187.6 478.0,185.5 478.5,177.4 479.0,186.8 479.5,184.7 480.1,194.9 480.6,192.4 481.1,191.3 481.6,198.3 482.1,198.6 482.7,201.5 483.2,200.1 483.7,200.8 484.2,200.0 484.7,195.8 485.2,199.7 485.8,199.6 486.3,198.6 486.8,199.3 487.3,203.0 487.8,201.1 488.4,201.7 488.9,197.0 489.4,200.3 489.9,199.6 490.4,196.9 491.0,209.1 491.5,208.4 492.0,207.2 492.5,207.9 493.0,199.1 493.5,199.7 494.1,202.9 494.6,201.6 495.1,200.1 495.6,201.4 496.1,200.2 496.7,205.7 497.2,207.5 497.7,208.5 498.2,212.4 498.7,210.5 499.3,207.5 499.8,204.5 500.3,208.8 500.8,208.2 501.3,211.1 501.8,215.1 502.4,215.5 502.9,215.6 503.4,214.9 503.9,215.3 504.4,212.8 505.0,210.8 505.5,212.5 506.0,213.6 506.5,209.4 507.0,209.1 507.6,213.0 508.1,212.4 508.6,206.7 509.1,205.5 509.6,203.0 510.1,205.6 510.7,213.8 511.2,205.8 511.7,213.8 512.2,212.7 512.7,209.1 513.3,211.9 513.8,214.5 514.3,208.1 514.8,210.1 515.3,212.0 515.9,216.3 516.4,218.9 516.9,217.9 517.4,219.0 517.9,221.6 518.4,219.8 519.0,220.0 519.5,221.3 520.0,217.6 520.5,215.3 521.0,214.8 521.6,217.8 522.1,216.8 522.6,208.2 523.1,203.6 523.6,209.1 524.2,215.6 524.7,215.8 525.2,216.5 525.7,217.6 526.2,218.3 526.8,208.4 527.3,210.2 527.8,214.2 528.3,216.7 528.8,217.4 529.3,218.5 529.9,219.7 530.4,220.8 530.9,222.0 531.4,223.2 531.9,222.6 532.5,223.1 533.0,219.1 533.5,219.3 534.0,212.4 534.5,209.0 535.1,212.0 535.6,215.7 536.1,218.1 536.6,219.0 537.1,219.8 537.6,228.3 538.2,228.3 538.7,226.3 539.2,227.1 539.7,225.2 540.2,222.8 540.8,228.4 541.3,230.4 541.8,234.4 542.3,235.7 542.8,235.9 543.4,232.2 543.9,231.5 544.4,232.4 544.9,228.9 545.4,227.9 545.9,222.6 546.5,222.3 547.0,217.1 547.5,219.9 548.0,218.7 548.5,218.1 549.1,214.1 549.6,213.0 550.1,211.4 550.6,213.8 551.1,191.1 551.7,186.6 552.2,191.2 552.7,193.9 553.2,195.1 553.7,197.7 554.2,198.2 554.8,200.2 555.3,193.9 555.8,190.9 556.3,186.6 556.8,186.5 557.4,186.6 557.9,186.1 558.4,184.8 558.9,184.9 559.4,185.3 560.0,185.4 560.5,188.0 561.0,191.1 561.5,192.1 562.0,192.7 562.5,197.6 563.1,196.4 563.6,197.5 564.1,195.7 564.6,197.3 565.1,192.1 565.7,188.0 566.2,190.4 566.7,181.0 567.2,177.3 567.7,179.7 568.3,179.5 568.8,186.7 569.3,185.6 569.8,187.2 570.3,186.6 570.8,190.8 571.4,190.3 571.9,193.0 572.4,190.2 572.9,188.7 573.4,184.3 574.0,186.9 574.5,188.0 575.0,187.2 575.5,183.7 576.0,176.1 576.6,178.1 577.1,182.1 577.6,164.5 578.1,164.5 578.6,168.6 579.1,171.0 579.7,166.6 580.2,158.4 580.7,155.9 581.2,156.9 581.7,153.7 582.3,152.7 582.8,149.3 583.3,153.0 583.8,150.4 584.3,148.5 584.9,150.4 585.4,147.6 585.9,146.2 586.4,150.5 586.9,146.3 587.4,149.9 588.0,152.9 588.5,148.6 589.0,150.0 589.5,147.7 590.0,145.2 590.6,147.5 591.1,156.7 591.6,157.1 592.1,153.8 592.6,154.6 593.2,153.5 593.7,152.3 594.2,155.0 594.7,157.6 595.2,159.9 595.7,157.8 596.3,152.7 596.8,154.5 597.3,159.4 597.8,163.0 598.3,167.8 598.9,168.7 599.4,167.8 599.9,163.6 600.4,163.9 600.9,163.9 601.5,165.7 602.0,166.2 602.5,165.7 603.0,167.2 603.5,168.0 604.0,164.4 604.6,162.6 605.1,158.3 605.6,159.7 606.1,161.3 606.6,161.8 607.2,157.4 607.7,158.8 608.2,142.6 608.7,139.9 609.2,139.6 609.8,142.1 610.3,138.3 610.8,136.9 611.3,136.6 611.8,141.4 612.3,143.3 612.9,150.2 613.4,152.7 613.9,155.9 614.4,155.2 614.9,158.8 615.5,155.7 616.0,158.6 616.5,165.3 617.0,163.0 617.5,171.9 618.1,172.9 618.6,182.2 619.1,181.6 619.6,178.1 620.1,181.3 620.7,176.0 621.2,179.5 621.7,187.1 622.2,179.9 622.7,179.5 623.2,176.3 623.8,172.0 624.3,174.6 624.8,178.9 625.3,180.5 625.8,182.6 626.4,184.4 626.9,183.8 627.4,179.9 627.9,196.7 628.4,203.6 629.0,199.5 629.5,202.0 630.0,186.0 630.5,192.9 631.0,193.4 631.5,192.8 632.1,191.2 632.6,192.9 633.1,190.2 633.6,193.1 634.1,186.9 634.7,181.5 635.2,179.1 635.7,177.6 636.2,177.5 636.7,175.4 637.3,176.5 637.8,176.5 638.3,172.3 638.8,172.7 639.3,174.5 639.8,173.6 640.4,169.4 640.9,182.2 641.4,170.2 641.9,169.9 642.4,166.0 643.0,173.3 643.5,172.0 644.0,173.3 644.5,176.5 645.0,180.8 645.6,177.8 646.1,177.3 646.6,174.2 647.1,175.0 647.6,172.8 648.1,173.0 648.7,171.5 649.2,168.3 649.7,169.3 650.2,167.2 650.7,162.6 651.3,159.3 651.8,159.8 652.3,156.5 652.8,159.7 653.3,162.4 653.9,160.0 654.4,161.3 654.9,158.9 655.4,158.4 655.9,158.2 656.4,153.8 657.0,153.0 657.5,152.2 658.0,150.8 658.5,149.5 659.0,152.0 659.6,150.4 660.1,149.5 660.6,147.1 661.1,151.2 661.6,149.6 662.2,150.2 662.7,154.9 663.2,155.8 663.7,153.1 664.2,151.8 664.7,149.1 665.3,149.8 665.8,152.4 666.3,154.0 666.8,153.8 667.3,153.6 667.9,152.0 668.4,151.5 668.9,150.9 669.4,151.6 669.9,150.2 670.5,152.8 671.0,143.1 671.5,143.0 672.0,140.4 672.5,138.6 673.0,145.8 673.6,145.1 674.1,140.8 674.6,139.9 675.1,140.7 675.6,138.9 676.2,139.4 676.7,144.1 677.2,145.1 677.7,143.4 678.2,138.1 678.8,140.3 679.3,139.7 679.8,140.1 680.3,137.6 680.8,129.3 681.3,135.3 681.9,132.3 682.4,128.2 682.9,130.3 683.4,131.7 683.9,129.4 684.5,132.7 685.0,136.1 685.5,134.5 686.0,128.4 686.5,127.9 687.1,127.5 687.6,128.0 688.1,125.9 688.6,127.8 689.1,134.8 689.6,136.0 690.2,139.7 690.7,141.7 691.2,141.2 691.7,145.0 692.2,143.5 692.8,140.2 693.3,143.0 693.8,141.9 694.3,141.1 694.8,142.6 695.4,140.2 695.9,147.2 696.4,144.9 696.9,145.2 697.4,145.0 697.9,149.6 698.5,151.0 699.0,146.1 699.5,143.4 700.0,146.3 700.5,142.3 701.1,142.4 701.6,141.3 702.1,141.8 702.6,145.4 703.1,149.8 703.7,146.3 704.2,146.1 704.7,146.9 705.2,146.7 705.7,153.4 706.2,144.4 706.8,141.7 707.3,142.7 707.8,138.6 708.3,144.9 708.8,147.9 709.4,150.7 709.9,153.7 710.4,154.1 710.9,157.7 711.4,155.4 712.0,152.2 712.5,149.9 713.0,149.9 713.5,147.4 714.0,149.6 714.6,152.1 715.1,148.9 715.6,150.1 716.1,150.9 716.6,150.8 717.1,150.4 717.7,147.5 718.2,149.7 718.7,151.8 719.2,153.8 719.7,144.6 720.3,146.2 720.8,141.4 721.3,141.5 721.8,139.0 722.3,142.2 722.9,141.8 723.4,142.0 723.9,142.3 724.4,141.9 724.9,143.5 725.4,143.9 726.0,136.7 726.5,135.2 727.0,134.5 727.5,135.9 728.0,135.7 728.6,141.3 729.1,141.8 729.6,145.5 730.1,146.4 730.6,143.1 731.2,147.2 731.7,146.5 732.2,145.3 732.7,146.8 733.2,150.0 733.7,149.9 734.3,154.1 734.8,157.4 735.3,160.7 735.8,158.5 736.3,158.9 736.9,158.2 737.4,161.9 737.9,165.3 738.4,164.0 738.9,161.6 739.5,166.0 740.0,176.5 740.5,176.4 741.0,173.5 741.5,173.4 742.0,173.2 742.6,174.3 743.1,180.9 743.6,179.7 744.1,179.5 744.6,175.4 745.2,181.2 745.7,181.7 746.2,179.7 746.7,174.9 747.2,172.1 747.8,173.4 748.3,174.8 748.8,176.5 749.3,174.8 749.8,182.3 750.3,181.4 750.9,180.0 751.4,180.2 751.9,185.8 752.4,185.8 752.9,186.9 753.5,182.6 754.0,185.1 754.5,184.6 755.0,186.9 755.5,189.4 756.1,188.4 756.6,183.3 757.1,183.8 757.6,182.4 758.1,178.7 758.6,180.5 759.2,176.4 759.7,177.7 760.2,178.5 760.7,172.9 761.2,167.1 761.8,161.7 762.3,160.8 762.8,155.2 763.3,152.0 763.8,155.1 764.4,152.6 764.9,157.2 765.4,156.2 765.9,154.4 766.4,156.9 766.9,156.5 767.5,155.5 768.0,151.4 768.5,152.0 769.0,152.3 769.5,153.9 770.1,151.7 770.6,155.8 771.1,152.8 771.6,154.0 772.1,156.5 772.7,151.4 773.2,153.6 773.7,155.3 774.2,154.2 774.7,152.0 775.2,151.9 775.8,154.3 776.3,149.4 776.8,148.0 777.3,145.1 777.8,144.3 778.4,145.2 778.9,147.3 779.4,153.0 779.9,150.0 780.4,156.4 781.0,154.0 781.5,154.4 782.0,157.4 782.5,152.7 783.0,153.1 783.5,146.3 784.1,143.2 784.6,147.7 785.1,144.0 785.6,146.0 786.1,146.4 786.7,140.0 787.2,140.9 787.7,138.1 788.2,135.7 788.7,136.0 789.3,133.7 789.8,133.0 790.3,131.8 790.8,133.9 791.3,136.3 791.8,133.8 792.4,134.1 792.9,135.6 793.4,133.1 793.9,135.8 794.4,137.7 795.0,141.7 795.5,142.5 796.0,142.9"/><polyline fill="none" stroke="#16a34a" stroke-width="3" points="78.0,122.3 78.5,107.8 79.0,106.4 79.6,110.7 80.1,114.3 80.6,112.2 81.1,104.3 81.6,109.5 82.2,111.4 82.7,115.0 83.2,119.7 83.7,119.6 84.2,113.2 84.7,109.2 85.3,110.7 85.8,112.4 86.3,116.5 86.8,102.4 87.3,97.1 87.9,93.9 88.4,91.7 88.9,100.4 89.4,104.9 89.9,109.6 90.5,114.8 91.0,114.5 91.5,115.4 92.0,117.6 92.5,117.2 93.0,124.2 93.6,125.2 94.1,126.6 94.6,126.3 95.1,131.3 95.6,133.1 96.2,136.4 96.7,143.6 97.2,137.9 97.7,136.8 98.2,136.3 98.8,138.0 99.3,136.2 99.8,136.7 100.3,136.4 100.8,143.5 101.3,140.3 101.9,135.5 102.4,138.7 102.9,145.5 103.4,149.0 103.9,148.8 104.5,148.5 105.0,152.8 105.5,147.7 106.0,146.8 106.5,149.2 107.1,145.1 107.6,146.8 108.1,148.7 108.6,147.7 109.1,151.0 109.6,148.4 110.2,150.0 110.7,150.1 111.2,148.8 111.7,153.3 112.2,154.6 112.8,151.4 113.3,150.1 113.8,143.8 114.3,139.7 114.8,141.4 115.4,140.5 115.9,143.9 116.4,147.9 116.9,152.4 117.4,158.2 117.9,164.5 118.5,169.1 119.0,169.8 119.5,165.4 120.0,167.6 120.5,176.4 121.1,178.8 121.6,169.8 122.1,175.1 122.6,173.5 123.1,175.4 123.7,168.4 124.2,170.8 124.7,171.1 125.2,169.7 125.7,165.4 126.2,164.9 126.8,160.0 127.3,157.8 127.8,154.3 128.3,156.8 128.8,161.6 129.4,161.9 129.9,157.8 130.4,160.8 130.9,156.3 131.4,150.9 132.0,149.8 132.5,151.8 133.0,151.6 133.5,149.2 134.0,150.7 134.5,156.1 135.1,156.6 135.6,154.4 136.1,152.9 136.6,155.3 137.1,155.3 137.7,152.8 138.2,151.7 138.7,150.4 139.2,149.8 139.7,150.9 140.3,155.5 140.8,155.9 141.3,151.8 141.8,154.6 142.3,163.6 142.8,165.7 143.4,164.7 143.9,164.6 144.4,167.0 144.9,164.8 145.4,160.3 146.0,162.5 146.5,163.0 147.0,161.9 147.5,161.8 148.0,159.5 148.6,160.0 149.1,166.3 149.6,155.0 150.1,152.5 150.6,150.6 151.1,151.9 151.7,151.9 152.2,153.5 152.7,153.9 153.2,150.1 153.7,151.4 154.3,153.4 154.8,156.4 155.3,156.5 155.8,155.0 156.3,156.5 156.9,154.9 157.4,151.2 157.9,150.2 158.4,145.4 158.9,148.5 159.4,151.0 160.0,119.6 160.5,122.3 161.0,122.2 161.5,120.1 162.0,125.2 162.6,126.5 163.1,130.2 163.6,126.0 164.1,101.8 164.6,112.0 165.2,112.9 165.7,111.6 166.2,106.0 166.7,106.9 167.2,113.2 167.8,112.9 168.3,108.5 168.8,99.7 169.3,101.8 169.8,98.8 170.3,108.1 170.9,109.4 171.4,104.9 171.9,105.8 172.4,113.0 172.9,110.4 173.5,95.4 174.0,95.3 174.5,91.0 175.0,94.6 175.5,91.3 176.1,88.2 176.6,86.9 177.1,87.8 177.6,82.1 178.1,83.1 178.6,87.3 179.2,83.1 179.7,83.2 180.2,80.7 180.7,85.0 181.2,85.4 181.8,79.8 182.3,79.4 182.8,84.6 183.3,82.9 183.8,80.2 184.4,76.5 184.9,78.6 185.4,79.0 185.9,81.9 186.4,95.5 186.9,85.0 187.5,86.6 188.0,87.1 188.5,85.3 189.0,85.1 189.5,92.2 190.1,93.9 190.6,101.9 191.1,99.3 191.6,96.0 192.1,93.5 192.7,96.4 193.2,99.9 193.7,106.7 194.2,108.7 194.7,113.5 195.2,110.7 195.8,102.5 196.3,99.0 196.8,104.9 197.3,108.0 197.8,111.5 198.4,114.7 198.9,110.7 199.4,119.9 199.9,120.3 200.4,121.4 201.0,116.3 201.5,118.4 202.0,118.3 202.5,114.7 203.0,117.8 203.5,120.7 204.1,116.1 204.6,118.8 205.1,123.3 205.6,132.2 206.1,138.0 206.7,136.4 207.2,137.9 207.7,139.4 208.2,136.5 208.7,138.8 209.3,146.0 209.8,149.5 210.3,155.6 210.8,155.5 211.3,157.4 211.8,164.5 212.4,163.6 212.9,169.0 213.4,167.2 213.9,174.5 214.4,161.5 215.0,155.8 215.5,151.5 216.0,159.9 216.5,164.7 217.0,157.5 217.6,157.1 218.1,154.3 218.6,143.2 219.1,163.0 219.6,182.0 220.1,187.1 220.7,185.1 221.2,188.6 221.7,199.3 222.2,200.1 222.7,202.1 223.3,205.3 223.8,197.1 224.3,196.1 224.8,190.7 225.3,189.7 225.9,190.8 226.4,196.3 226.9,203.4 227.4,208.8 227.9,207.0 228.4,201.2 229.0,201.8 229.5,215.7 230.0,229.0 230.5,222.7 231.0,209.3 231.6,201.3 232.1,193.0 232.6,190.5 233.1,187.5 233.6,186.4 234.2,185.1 234.7,190.1 235.2,188.0 235.7,179.2 236.2,181.6 236.7,182.4 237.3,181.9 237.8,180.0 238.3,186.9 238.8,192.6 239.3,197.1 239.9,199.5 240.4,199.3 240.9,199.7 241.4,197.7 241.9,204.9 242.5,204.9 243.0,200.7 243.5,205.9 244.0,210.4 244.5,214.9 245.0,211.5 245.6,217.5 246.1,219.8 246.6,214.7 247.1,221.6 247.6,217.0 248.2,217.7 248.7,213.3 249.2,226.6 249.7,233.1 250.2,248.8 250.8,259.0 251.3,276.9 251.8,259.7 252.3,237.3 252.8,240.0 253.3,232.2 253.9,234.8 254.4,230.6 254.9,233.5 255.4,234.5 255.9,248.2 256.5,239.7 257.0,223.6 257.5,217.0 258.0,222.2 258.5,235.2 259.1,228.4 259.6,232.6 260.1,237.2 260.6,235.1 261.1,238.6 261.7,246.5 262.2,249.4 262.7,260.2 263.2,261.3 263.7,257.2 264.2,265.9 264.8,258.5 265.3,254.5 265.8,254.3 266.3,244.7 266.8,238.8 267.4,240.8 267.9,249.0 268.4,255.4 268.9,259.6 269.4,263.6 270.0,251.9 270.5,250.5 271.0,237.6 271.5,238.6 272.0,245.8 272.5,242.7 273.1,248.1 273.6,244.1 274.1,239.6 274.6,236.8 275.1,229.6 275.7,218.9 276.2,218.7 276.7,227.3 277.2,229.2 277.7,239.4 278.3,229.6 278.8,230.3 279.3,227.1 279.8,226.1 280.3,223.2 280.8,213.0 281.4,211.3 281.9,209.2 282.4,205.6 282.9,211.2 283.4,201.3 284.0,200.9 284.5,196.1 285.0,197.7 285.5,194.6 286.0,199.9 286.6,203.6 287.1,215.5 287.6,219.4 288.1,219.9 288.6,217.4 289.1,214.7 289.7,234.4 290.2,236.3 290.7,237.9 291.2,238.3 291.7,239.2 292.3,241.8 292.8,242.3 293.3,239.6 293.8,237.3 294.3,228.9 294.9,227.3 295.4,235.6 295.9,235.2 296.4,236.3 296.9,242.3 297.4,240.8 298.0,242.9 298.5,246.0 299.0,251.2 299.5,254.2 300.0,255.3 300.6,253.8 301.1,248.6 301.6,255.2 302.1,256.5 302.6,255.4 303.2,244.9 303.7,247.5 304.2,247.4 304.7,255.9 305.2,257.2 305.7,253.9 306.3,252.0 306.8,256.5 307.3,263.3 307.8,257.9 308.3,253.2 308.9,260.3 309.4,259.7 309.9,258.5 310.4,259.6 310.9,248.7 311.5,249.0 312.0,248.7 312.5,249.9 313.0,250.9 313.5,253.5 314.0,261.7 314.6,266.2 315.1,268.9 315.6,271.5 316.1,271.4 316.6,292.4 317.2,274.9 317.7,264.5 318.2,268.1 318.7,263.1 319.2,274.2 319.8,277.1 320.3,283.4 320.8,286.8 321.3,288.7 321.8,284.6 322.3,286.1 322.9,289.3 323.4,287.8 323.9,281.0 324.4,278.1 324.9,276.9 325.5,286.6 326.0,293.4 326.5,297.8 327.0,295.8 327.5,297.8 328.1,291.3 328.6,294.6 329.1,298.1 329.6,305.1 330.1,307.1 330.6,312.5 331.2,312.8 331.7,312.2 332.2,315.4 332.7,315.0 333.2,317.5 333.8,316.4 334.3,310.9 334.8,310.8 335.3,315.8 335.8,309.0 336.4,315.0 336.9,316.2 337.4,312.9 337.9,307.6 338.4,297.9 338.9,291.8 339.5,287.3 340.0,283.8 340.5,286.7 341.0,291.4 341.5,278.7 342.1,272.4 342.6,278.6 343.1,279.7 343.6,278.4 344.1,268.3 344.7,274.3 345.2,268.6 345.7,261.2 346.2,246.7 346.7,259.2 347.2,264.5 347.8,263.6 348.3,269.4 348.8,284.7 349.3,289.6 349.8,288.5 350.4,285.9 350.9,276.5 351.4,283.0 351.9,286.7 352.4,287.8 353.0,283.7 353.5,282.3 354.0,286.1 354.5,287.6 355.0,282.7 355.6,289.1 356.1,287.0 356.6,282.7 357.1,285.5 357.6,293.1 358.1,292.2 358.7,298.0 359.2,305.1 359.7,305.4 360.2,308.0 360.7,309.4 361.3,308.4 361.8,312.4 362.3,314.1 362.8,304.1 363.3,310.1 363.9,308.2 364.4,305.4 364.9,306.3 365.4,312.5 365.9,304.1 366.4,304.7 367.0,298.3 367.5,298.1 368.0,301.7 368.5,304.9 369.0,303.5 369.6,299.3 370.1,295.2 370.6,300.7 371.1,297.5 371.6,300.0 372.2,296.5 372.7,295.3 373.2,296.7 373.7,300.9 374.2,300.3 374.7,303.8 375.3,308.5 375.8,309.4 376.3,306.8 376.8,309.2 377.3,308.2 377.9,316.6 378.4,314.4 378.9,315.5 379.4,302.4 379.9,293.5 380.5,291.1 381.0,291.4 381.5,290.0 382.0,292.6 382.5,287.8 383.0,290.5 383.6,285.6 384.1,276.5 384.6,281.9 385.1,277.4 385.6,278.1 386.2,278.7 386.7,282.2 387.2,280.0 387.7,276.3 388.2,275.6 388.8,277.2 389.3,271.1 389.8,271.9 390.3,270.5 390.8,268.5 391.3,256.1 391.9,262.7 392.4,258.7 392.9,256.6 393.4,264.4 393.9,263.2 394.5,266.2 395.0,269.3 395.5,272.1 396.0,275.4 396.5,275.9 397.1,275.7 397.6,273.7 398.1,272.2 398.6,272.8 399.1,273.0 399.6,268.9 400.2,272.6 400.7,281.7 401.2,282.6 401.7,276.0 402.2,268.5 402.8,267.7 403.3,262.4 403.8,267.6 404.3,264.0 404.8,264.4 405.4,261.5 405.9,264.0 406.4,264.0 406.9,264.2 407.4,261.7 407.9,261.1 408.5,267.4 409.0,263.3 409.5,253.8 410.0,252.8 410.5,260.9 411.1,262.4 411.6,266.1 412.1,271.3 412.6,270.6 413.1,272.0 413.7,274.9 414.2,274.0 414.7,274.1 415.2,277.6 415.7,278.3 416.2,279.2 416.8,277.6 417.3,276.8 417.8,279.2 418.3,277.5 418.8,281.6 419.4,260.8 419.9,260.1 420.4,254.8 420.9,251.1 421.4,248.0 422.0,243.9 422.5,243.7 423.0,243.0 423.5,241.6 424.0,241.7 424.5,237.8 425.1,236.7 425.6,238.5 426.1,237.6 426.6,235.0 427.1,232.9 427.7,237.1 428.2,239.4 428.7,246.3 429.2,250.5 429.7,250.3 430.3,251.6 430.8,250.2 431.3,247.8 431.8,246.2 432.3,249.4 432.8,258.6 433.4,260.3 433.9,262.1 434.4,260.1 434.9,256.4 435.4,252.5 436.0,250.7 436.5,257.2 437.0,259.9 437.5,256.0 438.0,251.4 438.6,256.3 439.1,258.6 439.6,258.7 440.1,257.6 440.6,253.1 441.2,266.3 441.7,262.6 442.2,264.9 442.7,264.1 443.2,261.7 443.7,261.7 444.3,247.1 444.8,241.8 445.3,244.5 445.8,243.1 446.3,244.3 446.9,233.4 447.4,241.8 447.9,240.2 448.4,231.1 448.9,229.8 449.5,234.5 450.0,233.6 450.5,231.4 451.0,232.8 451.5,231.1 452.0,229.0 452.6,219.7 453.1,210.8 453.6,207.4 454.1,206.7 454.6,199.3 455.2,197.4 455.7,198.2 456.2,197.8 456.7,195.6 457.2,190.3 457.8,194.6 458.3,195.4 458.8,185.8 459.3,185.0 459.8,186.6 460.3,187.1 460.9,175.3 461.4,183.8 461.9,179.5 462.4,177.7 462.9,176.0 463.5,174.1 464.0,173.8 464.5,177.5 465.0,181.9 465.5,187.5 466.1,189.4 466.6,188.4 467.1,184.1 467.6,186.4 468.1,187.4 468.6,188.8 469.2,190.8 469.7,192.4 470.2,192.4 470.7,194.1 471.2,190.1 471.8,185.9 472.3,190.6 472.8,193.4 473.3,193.0 473.8,191.7 474.4,187.0 474.9,189.0 475.4,193.4 475.9,195.1 476.4,192.4 476.9,191.3 477.5,187.6 478.0,185.5 478.5,177.4 479.0,186.8 479.5,184.7 480.1,194.9 480.6,192.4 481.1,191.3 481.6,198.3 482.1,198.6 482.7,201.5 483.2,200.1 483.7,200.8 484.2,200.0 484.7,195.8 485.2,199.7 485.8,199.6 486.3,198.6 486.8,199.3 487.3,203.0 487.8,201.1 488.4,201.7 488.9,197.0 489.4,200.3 489.9,199.6 490.4,196.9 491.0,209.1 491.5,208.4 492.0,207.2 492.5,207.9 493.0,199.1 493.5,199.7 494.1,202.9 494.6,201.6 495.1,200.1 495.6,201.4 496.1,200.2 496.7,205.7 497.2,207.5 497.7,208.5 498.2,212.4 498.7,210.5 499.3,207.5 499.8,204.5 500.3,208.8 500.8,208.2 501.3,211.1 501.8,215.1 502.4,215.5 502.9,215.6 503.4,214.9 503.9,215.3 504.4,212.8 505.0,210.8 505.5,212.5 506.0,213.6 506.5,209.4 507.0,209.1 507.6,213.0 508.1,212.4 508.6,206.7 509.1,205.5 509.6,203.0 510.1,205.6 510.7,213.8 511.2,205.8 511.7,213.8 512.2,212.7 512.7,209.1 513.3,211.9 513.8,214.5 514.3,208.1 514.8,210.1 515.3,212.0 515.9,216.3 516.4,218.9 516.9,217.9 517.4,219.0 517.9,221.6 518.4,219.8 519.0,220.0 519.5,221.3 520.0,217.6 520.5,215.3 521.0,214.8 521.6,217.8 522.1,216.8 522.6,208.2 523.1,203.6 523.6,209.1 524.2,215.6 524.7,215.8 525.2,216.5 525.7,217.6 526.2,218.3 526.8,208.4 527.3,210.2 527.8,214.2 528.3,216.7 528.8,217.4 529.3,218.5 529.9,219.7 530.4,220.8 530.9,222.0 531.4,223.2 531.9,222.6 532.5,223.1 533.0,219.1 533.5,219.3 534.0,212.4 534.5,209.0 535.1,212.0 535.6,215.7 536.1,218.1 536.6,219.0 537.1,219.8 537.6,228.3 538.2,228.3 538.7,226.3 539.2,227.1 539.7,225.2 540.2,222.8 540.8,228.4 541.3,230.4 541.8,234.4 542.3,235.7 542.8,235.9 543.4,232.2 543.9,231.5 544.4,232.4 544.9,228.9 545.4,227.9 545.9,222.6 546.5,222.3 547.0,217.1 547.5,219.9 548.0,218.7 548.5,218.1 549.1,214.1 549.6,213.0 550.1,211.4 550.6,213.8 551.1,191.1 551.7,186.6 552.2,191.2 552.7,193.9 553.2,195.1 553.7,197.7 554.2,198.2 554.8,200.2 555.3,193.9 555.8,190.9 556.3,186.6 556.8,186.5 557.4,186.6 557.9,186.1 558.4,184.8 558.9,184.9 559.4,185.3 560.0,185.4 560.5,188.0 561.0,191.1 561.5,192.1 562.0,192.7 562.5,197.6 563.1,196.4 563.6,197.5 564.1,195.7 564.6,197.3 565.1,192.1 565.7,188.0 566.2,190.4 566.7,181.0 567.2,177.3 567.7,179.7 568.3,179.5 568.8,186.7 569.3,185.6 569.8,187.2 570.3,186.6 570.8,190.8 571.4,190.3 571.9,193.0 572.4,190.2 572.9,188.7 573.4,184.3 574.0,186.9 574.5,188.0 575.0,187.2 575.5,183.7 576.0,176.1 576.6,178.1 577.1,182.1 577.6,164.5 578.1,164.5 578.6,168.6 579.1,171.0 579.7,166.6 580.2,158.4 580.7,155.9 581.2,156.9 581.7,153.7 582.3,152.7 582.8,149.3 583.3,153.0 583.8,150.4 584.3,148.5 584.9,150.4 585.4,147.6 585.9,146.2 586.4,150.5 586.9,146.3 587.4,149.9 588.0,152.9 588.5,148.6 589.0,150.0 589.5,147.7 590.0,145.2 590.6,147.5 591.1,156.7 591.6,157.1 592.1,153.8 592.6,154.6 593.2,153.5 593.7,152.3 594.2,155.0 594.7,157.6 595.2,159.9 595.7,157.8 596.3,152.7 596.8,154.5 597.3,159.4 597.8,163.0 598.3,167.8 598.9,168.7 599.4,167.8 599.9,163.6 600.4,163.9 600.9,163.9 601.5,165.7 602.0,166.2 602.5,165.7 603.0,167.2 603.5,168.0 604.0,164.4 604.6,162.6 605.1,158.3 605.6,159.7 606.1,161.3 606.6,161.8 607.2,157.4 607.7,158.8 608.2,142.6 608.7,139.9 609.2,139.6 609.8,142.1 610.3,138.3 610.8,136.9 611.3,136.6 611.8,141.4 612.3,143.3 612.9,150.2 613.4,152.7 613.9,155.9 614.4,155.2 614.9,158.8 615.5,155.7 616.0,158.6 616.5,165.3 617.0,163.0 617.5,171.9 618.1,172.9 618.6,182.2 619.1,181.6 619.6,178.1 620.1,181.3 620.7,176.0 621.2,179.5 621.7,187.1 622.2,179.9 622.7,179.5 623.2,176.3 623.8,172.0 624.3,174.6 624.8,178.9 625.3,180.5 625.8,182.6 626.4,184.4 626.9,183.8 627.4,179.9 627.9,196.7 628.4,203.6 629.0,199.5 629.5,202.0 630.0,186.0 630.5,192.9 631.0,193.4 631.5,192.8 632.1,191.2 632.6,192.9 633.1,190.2 633.6,193.1 634.1,186.9 634.7,181.5 635.2,179.1 635.7,177.6 636.2,177.5 636.7,175.4 637.3,176.5 637.8,176.5 638.3,172.3 638.8,172.7 639.3,174.5 639.8,173.6 640.4,169.4 640.9,182.2 641.4,170.2 641.9,169.9 642.4,166.0 643.0,173.3 643.5,172.0 644.0,173.3 644.5,176.5 645.0,180.8 645.6,177.8 646.1,177.3 646.6,174.2 647.1,175.0 647.6,172.8 648.1,173.0 648.7,171.5 649.2,168.3 649.7,169.3 650.2,167.2 650.7,162.6 651.3,159.3 651.8,159.8 652.3,156.5 652.8,159.7 653.3,162.4 653.9,160.0 654.4,161.3 654.9,158.9 655.4,158.4 655.9,158.2 656.4,153.8 657.0,153.0 657.5,152.2 658.0,150.8 658.5,149.5 659.0,152.0 659.6,150.4 660.1,149.5 660.6,147.1 661.1,151.2 661.6,149.6 662.2,150.2 662.7,154.9 663.2,155.8 663.7,153.1 664.2,151.8 664.7,149.1 665.3,149.8 665.8,152.4 666.3,154.0 666.8,153.8 667.3,153.6 667.9,152.0 668.4,151.5 668.9,150.9 669.4,151.6 669.9,150.2 670.5,152.8 671.0,143.1 671.5,143.0 672.0,140.4 672.5,138.6 673.0,145.8 673.6,145.1 674.1,140.8 674.6,139.9 675.1,140.7 675.6,138.9 676.2,139.4 676.7,144.1 677.2,145.1 677.7,143.4 678.2,138.1 678.8,140.3 679.3,139.7 679.8,140.1 680.3,137.6 680.8,129.3 681.3,135.3 681.9,132.3 682.4,128.2 682.9,130.3 683.4,131.7 683.9,129.4 684.5,132.7 685.0,136.1 685.5,134.5 686.0,128.4 686.5,127.9 687.1,127.5 687.6,128.0 688.1,125.9 688.6,127.8 689.1,134.8 689.6,136.0 690.2,139.7 690.7,141.7 691.2,141.2 691.7,145.0 692.2,143.5 692.8,140.2 693.3,143.0 693.8,141.9 694.3,141.1 694.8,142.6 695.4,140.2 695.9,147.2 696.4,144.9 696.9,145.2 697.4,145.0 697.9,149.6 698.5,151.0 699.0,146.1 699.5,143.4 700.0,146.3 700.5,142.3 701.1,142.4 701.6,141.3 702.1,141.8 702.6,145.4 703.1,149.8 703.7,146.3 704.2,146.1 704.7,146.9 705.2,146.7 705.7,153.4 706.2,144.4 706.8,141.7 707.3,142.7 707.8,138.6 708.3,144.9 708.8,147.9 709.4,150.7 709.9,153.7 710.4,154.1 710.9,157.7 711.4,155.4 712.0,152.2 712.5,149.9 713.0,149.9 713.5,147.4 714.0,149.6 714.6,152.1 715.1,148.9 715.6,150.1 716.1,150.9 716.6,150.8 717.1,150.4 717.7,147.5 718.2,149.7 718.7,151.8 719.2,153.8 719.7,144.6 720.3,146.2 720.8,141.4 721.3,141.5 721.8,139.0 722.3,142.2 722.9,141.8 723.4,142.0 723.9,142.3 724.4,141.9 724.9,143.5 725.4,143.9 726.0,136.7 726.5,135.2 727.0,134.5 727.5,135.9 728.0,135.7 728.6,141.3 729.1,141.8 729.6,145.5 730.1,146.4 730.6,143.1 731.2,147.2 731.7,146.5 732.2,145.3 732.7,146.8 733.2,150.0 733.7,149.9 734.3,154.1 734.8,157.4 735.3,160.7 735.8,158.5 736.3,158.9 736.9,158.2 737.4,161.9 737.9,165.3 738.4,164.0 738.9,161.6 739.5,166.0 740.0,176.5 740.5,176.4 741.0,173.5 741.5,173.4 742.0,173.2 742.6,174.3 743.1,180.9 743.6,179.7 744.1,179.5 744.6,175.4 745.2,181.2 745.7,181.7 746.2,179.7 746.7,174.9 747.2,172.1 747.8,173.4 748.3,174.8 748.8,176.5 749.3,174.8 749.8,182.3 750.3,181.4 750.9,180.0 751.4,180.2 751.9,185.8 752.4,185.8 752.9,186.9 753.5,182.6 754.0,185.1 754.5,184.6 755.0,186.9 755.5,189.4 756.1,188.4 756.6,183.3 757.1,183.8 757.6,182.4 758.1,178.7 758.6,180.5 759.2,176.4 759.7,177.7 760.2,178.5 760.7,172.9 761.2,167.1 761.8,161.7 762.3,160.8 762.8,155.2 763.3,152.0 763.8,155.1 764.4,152.6 764.9,157.2 765.4,156.2 765.9,154.4 766.4,156.9 766.9,156.5 767.5,155.5 768.0,151.4 768.5,152.0 769.0,152.3 769.5,153.9 770.1,151.7 770.6,155.8 771.1,152.8 771.6,154.0 772.1,156.5 772.7,151.4 773.2,153.6 773.7,155.3 774.2,154.2 774.7,152.0 775.2,151.9 775.8,154.3 776.3,149.4 776.8,148.0 777.3,145.1 777.8,144.3 778.4,145.2 778.9,147.3 779.4,153.0 779.9,150.0 780.4,156.4 781.0,154.0 781.5,154.4 782.0,157.4 782.5,152.7 783.0,153.1 783.5,146.3 784.1,143.2 784.6,147.7 785.1,144.0 785.6,146.0 786.1,146.4 786.7,140.0 787.2,140.9 787.7,138.1 788.2,135.7 788.7,136.0 789.3,133.7 789.8,133.0 790.3,131.8 790.8,133.9 791.3,136.3 791.8,133.8 792.4,134.1 792.9,135.6 793.4,133.1 793.9,135.8 794.4,137.7 795.0,141.7 795.5,142.5 796.0,142.9"/>
<text x="78" y="392" font-size="11" fill="#16a34a">Total return -22.2%</text><text x="268" y="392" font-size="11" fill="#2563eb">Price-only -22.2%</text><text x="78" y="362" font-size="11" text-anchor="middle" fill="#64748b">2021-01</text><text x="258" y="362" font-size="11" text-anchor="middle" fill="#64748b">2022-05</text><text x="437" y="362" font-size="11" text-anchor="middle" fill="#64748b">2023-10</text><text x="616" y="362" font-size="11" text-anchor="middle" fill="#64748b">2025-03</text><text x="796" y="362" font-size="11" text-anchor="middle" fill="#64748b">2026-07</text></svg>