<svg xmlns="http://www.w3.org/2000/svg" width="720" height="360" viewBox="0 0 720 360">
  <rect width="720" height="360" fill="#fafafa"/>
  <text x="56" y="22" font-size="13" font-family="sans-serif" fill="#222">LSEG total return (rebased 100) · cumulative distributions $0.00/sh · market cap n/a</text>
  <line x1="56" y1="308" x2="696" y2="308" stroke="#ccc"/>
  <line x1="56" y1="48" x2="56" y2="308" stroke="#ccc"/>
  <polyline fill="none" stroke="#2563eb" stroke-width="2" points="56.0,278.0 58.9,277.3 61.8,275.8 64.7,275.4 67.6,274.6 70.5,274.5 73.5,274.7 76.4,275.4 79.3,275.5 82.2,272.4 85.1,273.7 88.0,273.8 90.9,273.5 93.8,268.6 96.7,268.0 99.6,266.2 102.5,262.7 105.5,267.8 108.4,273.7 111.3,278.7 114.2,279.6 117.1,283.9 120.0,283.0 122.9,283.7 125.8,282.5 128.7,287.9 131.6,287.0 134.5,288.7 137.5,289.2 140.4,290.1 143.3,284.5 146.2,285.5 149.1,285.3 152.0,285.1 154.9,283.5 157.8,282.6 160.7,282.7 163.6,284.4 166.5,285.0 169.5,286.4 172.4,286.0 175.3,285.6 178.2,286.4 181.1,287.8 184.0,286.3 186.9,286.1 189.8,285.7 192.7,284.7 195.6,284.3 198.5,282.9 201.5,282.8 204.4,281.8 207.3,282.3 210.2,280.4 213.1,278.9 216.0,280.1 218.9,281.4 221.8,283.3 224.7,281.8 227.6,282.5 230.5,283.7 233.5,282.3 236.4,281.8 239.3,278.5 242.2,280.0 245.1,280.0 248.0,280.6 250.9,280.1 253.8,281.0 256.7,280.5 259.6,280.4 262.5,278.5 265.5,276.4 268.4,274.1 271.3,274.0 274.2,272.8 277.1,274.0 280.0,269.8 282.9,270.1 285.8,270.5 288.7,268.6 291.6,268.9 294.5,267.0 297.5,265.1 300.4,261.8 303.3,265.6 306.2,263.0 309.1,262.2 312.0,263.4 314.9,261.5 317.8,261.8 320.7,259.0 323.6,254.3 326.5,255.0 329.5,252.2 332.4,250.0 335.3,248.7 338.2,250.4 341.1,252.1 344.0,247.5 346.9,249.2 349.8,251.2 352.7,248.7 355.6,246.7 358.5,244.9 361.5,250.1 364.4,246.2 367.3,245.5 370.2,245.1 373.1,249.0 376.0,244.3 378.9,244.7 381.8,243.8 384.7,243.6 387.6,244.8 390.5,241.6 393.5,236.7 396.4,238.5 399.3,232.6 402.2,231.8 405.1,227.5 408.0,225.6 410.9,221.7 413.8,224.0 416.7,225.3 419.6,225.0 422.5,224.7 425.5,222.1 428.4,220.2 431.3,214.9 434.2,211.5 437.1,211.6 440.0,213.1 442.9,208.7 445.8,209.4 448.7,214.7 451.6,220.1 454.5,219.5 457.5,209.6 460.4,211.0 463.3,201.2 466.2,196.0 469.1,192.1 472.0,170.1 474.9,163.8 477.8,157.0 480.7,163.8 483.6,165.4 486.5,148.5 489.5,146.8 492.4,151.8 495.3,154.1 498.2,143.1 501.1,136.8 504.0,134.3 506.9,128.3 509.8,126.8 512.7,138.3 515.6,141.6 518.5,124.2 521.5,130.4 524.4,112.5 527.3,155.2 530.2,151.9 533.1,144.2 536.0,153.5 538.9,144.5 541.8,154.3 544.7,161.0 547.6,172.5 550.5,164.3 553.5,158.7 556.4,171.1 559.3,145.3 562.2,155.2 565.1,150.8 568.0,143.7 570.9,141.7 573.8,150.8 576.7,152.0 579.6,138.9 582.5,160.3 585.5,155.1 588.4,154.6 591.3,137.0 594.2,133.1 597.1,136.6 600.0,134.8 602.9,140.2 605.8,139.2 608.7,138.3 611.6,126.2 614.5,119.1 617.5,125.5 620.4,126.8 623.3,127.4 626.2,121.3 629.1,116.7 632.0,115.3 634.9,100.3 637.8,100.9 640.7,95.2 643.6,80.7 646.5,80.4 649.5,65.9 652.4,69.6 655.3,73.8 658.2,80.6 661.1,92.9 664.0,119.4 666.9,121.2 669.8,133.7 672.7,115.0 675.6,126.2 678.5,125.3 681.5,141.3 684.4,127.1 687.3,113.8 690.2,124.0 693.1,124.1 696.0,127.5"/>
  <polyline fill="none" stroke="#16a34a" stroke-width="2" points="56.0,278.0 58.9,277.3 61.8,275.8 64.7,275.4 67.6,274.6 70.5,274.5 73.5,274.7 76.4,275.4 79.3,275.5 82.2,272.4 85.1,273.7 88.0,273.8 90.9,273.5 93.8,268.6 96.7,268.0 99.6,266.2 102.5,262.7 105.5,267.8 108.4,273.7 111.3,278.7 114.2,279.6 117.1,283.9 120.0,283.0 122.9,283.7 125.8,282.5 128.7,287.9 131.6,287.0 134.5,288.7 137.5,289.2 140.4,290.1 143.3,284.5 146.2,285.5 149.1,285.3 152.0,285.1 154.9,283.5 157.8,282.6 160.7,282.7 163.6,284.4 166.5,285.0 169.5,286.4 172.4,286.0 175.3,285.6 178.2,286.4 181.1,287.8 184.0,286.3 186.9,286.1 189.8,285.7 192.7,284.7 195.6,284.3 198.5,282.9 201.5,282.8 204.4,281.8 207.3,282.3 210.2,280.4 213.1,278.9 216.0,280.1 218.9,281.4 221.8,283.3 224.7,281.8 227.6,282.5 230.5,283.7 233.5,282.3 236.4,281.8 239.3,278.5 242.2,280.0 245.1,280.0 248.0,280.6 250.9,280.1 253.8,281.0 256.7,280.5 259.6,280.4 262.5,278.5 265.5,276.4 268.4,274.1 271.3,274.0 274.2,272.8 277.1,274.0 280.0,269.8 282.9,270.1 285.8,270.5 288.7,268.6 291.6,268.9 294.5,267.0 297.5,265.1 300.4,261.8 303.3,265.6 306.2,263.0 309.1,262.2 312.0,263.4 314.9,261.5 317.8,261.8 320.7,259.0 323.6,254.3 326.5,255.0 329.5,252.2 332.4,250.0 335.3,248.7 338.2,250.4 341.1,252.1 344.0,247.5 346.9,249.2 349.8,251.2 352.7,248.7 355.6,246.7 358.5,244.9 361.5,250.1 364.4,246.2 367.3,245.5 370.2,245.1 373.1,249.0 376.0,244.3 378.9,244.7 381.8,243.8 384.7,243.6 387.6,244.8 390.5,241.6 393.5,236.7 396.4,238.5 399.3,232.6 402.2,231.8 405.1,227.5 408.0,225.6 410.9,221.7 413.8,224.0 416.7,225.3 419.6,225.0 422.5,224.7 425.5,222.1 428.4,220.2 431.3,214.9 434.2,211.5 437.1,211.6 440.0,213.1 442.9,208.7 445.8,209.4 448.7,214.7 451.6,220.1 454.5,219.5 457.5,209.6 460.4,211.0 463.3,201.2 466.2,196.0 469.1,192.1 472.0,170.1 474.9,163.8 477.8,157.0 480.7,163.8 483.6,165.4 486.5,148.5 489.5,146.8 492.4,151.8 495.3,154.1 498.2,143.1 501.1,136.8 504.0,134.3 506.9,128.3 509.8,126.8 512.7,138.3 515.6,141.6 518.5,124.2 521.5,130.4 524.4,112.5 527.3,155.2 530.2,151.9 533.1,144.2 536.0,153.5 538.9,144.5 541.8,154.3 544.7,161.0 547.6,172.5 550.5,164.3 553.5,158.7 556.4,171.1 559.3,145.3 562.2,155.2 565.1,150.8 568.0,143.7 570.9,141.7 573.8,150.8 576.7,152.0 579.6,138.9 582.5,160.3 585.5,155.1 588.4,154.6 591.3,137.0 594.2,133.1 597.1,136.6 600.0,134.8 602.9,140.2 605.8,139.2 608.7,138.3 611.6,126.2 614.5,119.1 617.5,125.5 620.4,126.8 623.3,127.4 626.2,121.3 629.1,116.7 632.0,115.3 634.9,100.3 637.8,100.9 640.7,95.2 643.6,80.7 646.5,80.4 649.5,65.9 652.4,69.6 655.3,73.8 658.2,80.6 661.1,92.9 664.0,119.4 666.9,121.2 669.8,133.7 672.7,115.0 675.6,126.2 678.5,125.3 681.5,141.3 684.4,127.1 687.3,113.8 690.2,124.0 693.1,124.1 696.0,127.5"/>
  <text x="60" y="62" font-size="11" fill="#2563eb">Price index</text>
  <text x="146" y="62" font-size="11" fill="#16a34a">Total return (price + distributions)</text>
  <text x="56" y="348" font-size="11" text-anchor="middle" fill="#444">2006-06</text><text x="216" y="348" font-size="11" text-anchor="middle" fill="#444">2011-06</text><text x="376" y="348" font-size="11" text-anchor="middle" fill="#444">2016-06</text><text x="536" y="348" font-size="11" text-anchor="middle" fill="#444">2021-06</text><text x="696" y="348" font-size="11" text-anchor="middle" fill="#444">2026-06</text>
</svg>
