<svg xmlns="http://www.w3.org/2000/svg" width="720" height="360" viewBox="0 0 720 360">
  <rect width="720" height="360" fill="#fafafa"/>
  <text x="56" y="22" font-size="13" font-family="sans-serif" fill="#222">NZX.NZ total return (rebased 100) · cumulative distributions $0.00/sh · market cap n/a</text>
  <line x1="56" y1="308" x2="696" y2="308" stroke="#ccc"/>
  <line x1="56" y1="48" x2="56" y2="308" stroke="#ccc"/>
  <polyline fill="none" stroke="#2563eb" stroke-width="2" points="56.0,149.9 56.5,137.2 56.9,139.7 57.4,134.6 57.8,139.7 58.3,139.7 58.7,142.3 59.2,142.3 59.6,139.7 60.1,139.7 60.6,137.2 61.0,129.5 61.5,129.5 61.9,132.1 62.4,129.5 62.8,129.5 63.3,129.5 63.7,129.5 64.2,119.4 64.7,119.4 65.1,119.4 65.6,116.8 66.0,116.8 66.5,104.1 66.9,106.6 67.4,106.6 67.9,106.6 68.3,106.6 68.8,109.2 69.2,109.2 69.7,111.7 70.1,111.7 70.6,114.3 71.0,116.8 71.5,129.5 72.0,124.5 72.4,127.0 72.9,129.5 73.3,127.0 73.8,127.0 74.2,127.0 74.7,124.5 75.1,124.5 75.6,127.0 76.1,116.8 76.5,119.4 77.0,121.9 77.4,121.9 77.9,121.9 78.3,121.9 78.8,119.4 79.2,116.8 79.7,114.3 80.2,116.8 80.6,116.8 81.1,116.8 81.5,119.4 82.0,119.4 82.4,116.8 82.9,116.8 83.4,116.8 83.8,116.8 84.3,116.8 84.7,114.3 85.2,114.3 85.6,111.7 86.1,109.2 86.5,109.2 87.0,116.8 87.5,116.8 87.9,116.8 88.4,116.8 88.8,119.4 89.3,119.4 89.7,119.4 90.2,116.8 90.6,116.8 91.1,116.8 91.6,116.8 92.0,114.3 92.5,111.7 92.9,111.7 93.4,111.7 93.8,111.7 94.3,111.7 94.7,114.3 95.2,114.3 95.7,111.7 96.1,111.7 96.6,114.3 97.0,116.8 97.5,116.8 97.9,124.5 98.4,129.5 98.8,129.5 99.3,129.5 99.8,129.5 100.2,124.5 100.7,124.5 101.1,124.5 101.6,127.0 102.0,127.0 102.5,127.0 103.0,127.0 103.4,127.0 103.9,129.5 104.3,129.5 104.8,129.5 105.2,129.5 105.7,132.1 106.1,129.5 106.6,129.5 107.1,132.1 107.5,132.1 108.0,132.1 108.4,134.6 108.9,137.2 109.3,137.2 109.8,139.7 110.2,142.3 110.7,139.7 111.2,139.7 111.6,137.2 112.1,137.2 112.5,139.7 113.0,139.7 113.4,139.7 113.9,139.7 114.3,139.7 114.8,139.7 115.3,139.7 115.7,142.3 116.2,139.7 116.6,137.2 117.1,137.2 117.5,137.2 118.0,129.5 118.5,129.5 118.9,132.1 119.4,129.5 119.8,129.5 120.3,129.5 120.7,132.1 121.2,121.9 121.6,119.4 122.1,119.4 122.6,119.4 123.0,121.9 123.5,121.9 123.9,116.8 124.4,116.8 124.8,119.4 125.3,116.8 125.7,114.3 126.2,109.2 126.7,111.7 127.1,111.7 127.6,111.7 128.0,114.3 128.5,111.7 128.9,111.7 129.4,96.5 129.8,101.6 130.3,101.6 130.8,96.5 131.2,88.8 131.7,86.3 132.1,78.7 132.6,93.9 133.0,99.0 133.5,104.1 133.9,104.1 134.4,104.1 134.9,106.6 135.3,104.1 135.8,104.1 136.2,106.6 136.7,104.1 137.1,104.1 137.6,106.6 138.1,104.1 138.5,99.0 139.0,104.1 139.4,104.1 139.9,106.6 140.3,109.2 140.8,109.2 141.2,106.6 141.7,101.6 142.2,104.1 142.6,104.1 143.1,96.5 143.5,93.9 144.0,93.9 144.4,93.9 144.9,93.9 145.3,91.4 145.8,91.4 146.3,88.8 146.7,91.4 147.2,83.7 147.6,91.4 148.1,88.8 148.5,96.5 149.0,91.4 149.4,91.4 149.9,91.4 150.4,91.4 150.8,99.0 151.3,99.0 151.7,93.9 152.2,93.9 152.6,91.4 153.1,88.8 153.5,88.8 154.0,88.8 154.5,88.8 154.9,86.3 155.4,88.8 155.8,91.4 156.3,93.9 156.7,93.9 157.2,91.4 157.7,91.4 158.1,91.4 158.6,93.9 159.0,93.9 159.5,93.9 159.9,93.9 160.4,91.4 160.8,91.4 161.3,88.8 161.8,88.8 162.2,86.3 162.7,83.7 163.1,83.7 163.6,68.5 164.0,73.6 164.5,73.6 164.9,73.6 165.4,73.6 165.9,68.5 166.3,68.5 166.8,68.5 167.2,73.6 167.7,71.0 168.1,71.0 168.6,68.5 169.0,65.9 169.5,83.7 170.0,86.3 170.4,86.3 170.9,96.5 171.3,99.0 171.8,99.0 172.2,109.2 172.7,106.6 173.2,109.2 173.6,99.0 174.1,101.6 174.5,91.4 175.0,91.4 175.4,93.9 175.9,93.9 176.3,93.9 176.8,93.9 177.3,96.5 177.7,99.0 178.2,101.6 178.6,106.6 179.1,114.3 179.5,114.3 180.0,119.4 180.4,119.4 180.9,119.4 181.4,114.3 181.8,109.2 182.3,109.2 182.7,106.6 183.2,106.6 183.6,104.1 184.1,104.1 184.5,99.0 185.0,99.0 185.5,99.0 185.9,99.0 186.4,93.9 186.8,93.9 187.3,93.9 187.7,101.6 188.2,101.6 188.6,96.5 189.1,93.9 189.6,93.9 190.0,93.9 190.5,88.8 190.9,86.3 191.4,88.8 191.8,88.8 192.3,88.8 192.8,88.8 193.2,91.4 193.7,93.9 194.1,93.9 194.6,91.4 195.0,99.0 195.5,101.6 195.9,106.6 196.4,106.6 196.9,106.6 197.3,106.6 197.8,104.1 198.2,106.6 198.7,104.1 199.1,106.6 199.6,99.0 200.0,93.9 200.5,88.8 201.0,86.3 201.4,86.3 201.9,86.3 202.3,86.3 202.8,86.3 203.2,88.8 203.7,83.7 204.1,91.4 204.6,93.9 205.1,93.9 205.5,93.9 206.0,96.5 206.4,93.9 206.9,93.9 207.3,93.9 207.8,99.0 208.3,96.5 208.7,93.9 209.2,93.9 209.6,96.5 210.1,96.5 210.5,96.5 211.0,96.5 211.4,96.5 211.9,99.0 212.4,99.0 212.8,96.5 213.3,96.5 213.7,93.9 214.2,96.5 214.6,96.5 215.1,104.1 215.5,106.6 216.0,109.2 216.5,106.6 216.9,106.6 217.4,111.7 217.8,111.7 218.3,119.4 218.7,119.4 219.2,124.5 219.6,121.9 220.1,124.5 220.6,124.5 221.0,124.5 221.5,124.5 221.9,127.0 222.4,124.5 222.8,127.0 223.3,127.0 223.7,129.5 224.2,124.5 224.7,129.5 225.1,134.6 225.6,134.6 226.0,134.6 226.5,137.2 226.9,137.2 227.4,137.2 227.9,134.6 228.3,134.6 228.8,129.5 229.2,127.0 229.7,132.1 230.1,132.1 230.6,137.2 231.0,137.2 231.5,155.0 232.0,162.6 232.4,157.5 232.9,157.5 233.3,152.5 233.8,149.9 234.2,152.5 234.7,149.9 235.1,149.9 235.6,149.9 236.1,152.5 236.5,152.5 237.0,152.5 237.4,152.5 237.9,149.9 238.3,149.9 238.8,149.9 239.2,155.0 239.7,157.5 240.2,152.5 240.6,147.4 241.1,149.9 241.5,142.3 242.0,139.7 242.4,132.1 242.9,137.2 243.4,134.6 243.8,134.6 244.3,134.6 244.7,134.6 245.2,132.1 245.6,132.1 246.1,129.5 246.5,129.5 247.0,132.1 247.5,132.1 247.9,127.0 248.4,127.0 248.8,124.5 249.3,124.5 249.7,124.5 250.2,127.0 250.6,127.0 251.1,127.0 251.6,124.5 252.0,127.0 252.5,127.0 252.9,129.5 253.4,127.0 253.8,127.0 254.3,121.9 254.7,119.4 255.2,121.9 255.7,119.4 256.1,114.3 256.6,116.8 257.0,116.8 257.5,116.8 257.9,116.8 258.4,124.5 258.8,127.0 259.3,127.0 259.8,129.5 260.2,132.1 260.7,132.1 261.1,132.1 261.6,129.5 262.0,121.9 262.5,121.9 263.0,127.0 263.4,127.0 263.9,132.1 264.3,129.5 264.8,127.0 265.2,124.5 265.7,124.5 266.1,124.5 266.6,123.9 267.1,123.2 267.5,125.7 268.0,124.5 268.4,129.5 268.9,133.6 269.3,133.9 269.8,137.2 270.2,136.2 270.7,136.4 271.2,132.1 271.6,134.4 272.1,133.4 272.5,131.8 273.0,129.5 273.4,128.5 273.9,131.1 274.3,130.3 274.8,131.3 275.3,129.3 275.7,126.0 276.2,121.9 276.6,124.5 277.1,126.2 277.5,126.0 278.0,126.7 278.5,126.5 278.9,124.5 279.4,124.5 279.8,126.0 280.3,124.5 280.7,124.5 281.2,123.7 281.6,126.0 282.1,127.0 282.6,127.0 283.0,127.0 283.5,127.0 283.9,127.0 284.4,127.0 284.8,116.8 285.3,109.2 285.7,101.6 286.2,104.1 286.7,99.0 287.1,101.6 287.6,101.6 288.0,106.4 288.5,109.2 288.9,114.0 289.4,114.3 289.8,121.7 290.3,119.4 290.8,118.6 291.2,119.9 291.7,120.1 292.1,121.2 292.6,120.1 293.0,116.8 293.5,116.3 293.9,119.4 294.4,119.4 294.9,121.9 295.3,123.9 295.8,123.9 296.2,124.2 296.7,119.4 297.1,110.5 297.6,114.3 298.1,114.3 298.5,115.8 299.0,116.8 299.4,119.4 299.9,123.4 300.3,119.4 300.8,121.4 301.2,116.8 301.7,114.3 302.2,116.3 302.6,111.7 303.1,111.5 303.5,113.5 304.0,116.6 304.4,114.3 304.9,123.9 305.3,126.2 305.8,126.5 306.3,120.6 306.7,121.9 307.2,119.4 307.6,123.9 308.1,126.0 308.5,124.2 309.0,118.6 309.4,129.0 309.9,136.2 310.4,128.8 310.8,121.7 311.3,121.9 311.7,127.0 312.2,126.0 312.6,129.5 313.1,131.3 313.5,129.3 314.0,127.0 314.5,126.0 314.9,127.0 315.4,128.5 315.8,124.5 316.3,126.2 316.7,116.8 317.2,116.8 317.7,116.8 318.1,121.4 318.6,123.9 319.0,124.2 319.5,124.5 319.9,121.7 320.4,119.4 320.8,121.9 321.3,124.2 321.8,119.4 322.2,128.3 322.7,144.8 323.1,147.4 323.6,148.1 324.0,151.9 324.5,154.5 324.9,153.7 325.4,160.1 325.9,160.1 326.3,167.7 326.8,167.7 327.2,169.8 327.7,164.7 328.1,160.1 328.6,160.1 329.0,159.1 329.5,155.0 330.0,149.9 330.4,154.7 330.9,155.0 331.3,156.8 331.8,159.8 332.2,161.6 332.7,165.2 333.2,160.1 333.6,157.5 334.1,157.5 334.5,159.3 335.0,157.5 335.4,157.5 335.9,159.1 336.3,157.5 336.8,165.2 337.3,165.2 337.7,167.7 338.2,170.3 338.6,172.8 339.1,175.1 339.5,177.9 340.0,184.3 340.4,185.5 340.9,193.2 341.4,195.7 341.8,197.7 342.3,198.3 342.7,198.3 343.2,200.8 343.6,200.5 344.1,205.9 344.5,198.5 345.0,198.3 345.5,193.2 345.9,190.6 346.4,193.2 346.8,192.4 347.3,192.7 347.7,192.4 348.2,191.9 348.6,185.3 349.1,187.1 349.6,187.3 350.0,187.1 350.5,185.5 350.9,187.1 351.4,188.1 351.8,188.1 352.3,189.3 352.8,190.6 353.2,188.1 353.7,188.1 354.1,190.4 354.6,190.6 355.0,187.3 355.5,190.6 355.9,193.2 356.4,189.6 356.9,185.5 357.3,185.5 357.8,183.0 358.2,183.0 358.7,185.5 359.1,200.8 359.6,195.7 360.0,195.7 360.5,200.8 361.0,205.9 361.4,212.8 361.9,208.4 362.3,208.2 362.8,208.2 363.2,205.9 363.7,205.9 364.1,208.2 364.6,207.2 365.1,205.9 365.5,203.3 366.0,200.8 366.4,195.7 366.9,198.3 367.3,195.7 367.8,197.5 368.3,185.5 368.7,184.3 369.2,184.8 369.6,185.5 370.1,183.0 370.5,180.4 371.0,182.0 371.4,177.9 371.9,180.4 372.4,180.4 372.8,176.9 373.3,174.3 373.7,172.8 374.2,174.3 374.6,175.4 375.1,175.4 375.5,182.5 376.0,182.5 376.5,185.0 376.9,177.4 377.4,183.0 377.8,185.5 378.3,188.1 378.7,187.8 379.2,188.1 379.6,190.4 380.1,188.1 380.6,190.6 381.0,185.5 381.5,185.0 381.9,185.5 382.4,185.0 382.8,185.0 383.3,185.5 383.7,185.5 384.2,184.3 384.7,183.0 385.1,185.5 385.6,185.5 386.0,187.3 386.5,183.0 386.9,183.0 387.4,187.1 387.9,187.8 388.3,188.1 388.8,187.6 389.2,187.8 389.7,187.1 390.1,188.1 390.6,185.5 391.0,188.1 391.5,188.1 392.0,188.1 392.4,189.3 392.9,190.4 393.3,190.6 393.8,192.7 394.2,192.4 394.7,190.6 395.1,192.7 395.6,193.2 396.1,193.2 396.5,193.2 397.0,193.2 397.4,192.4 397.9,193.2 398.3,193.2 398.8,193.2 399.2,193.2 399.7,198.3 400.2,200.3 400.6,199.8 401.1,200.8 401.5,200.5 402.0,203.3 402.4,205.9 402.9,208.4 403.4,208.4 403.8,208.4 404.3,207.7 404.7,208.4 405.2,210.0 405.6,210.7 406.1,210.7 406.5,207.9 407.0,211.0 407.5,211.0 407.9,212.5 408.4,211.0 408.8,211.0 409.3,212.8 409.7,213.5 410.2,215.8 410.6,217.6 411.1,218.1 411.6,218.6 412.0,218.6 412.5,223.7 412.9,225.7 413.4,223.7 413.8,225.2 414.3,226.2 414.7,226.2 415.2,226.2 415.7,226.0 416.1,225.7 416.6,225.0 417.0,225.7 417.5,225.7 417.9,195.7 418.4,194.7 418.8,193.2 419.3,193.2 419.8,197.5 420.2,198.3 420.7,198.3 421.1,200.5 421.6,200.8 422.0,200.0 422.5,202.6 423.0,200.8 423.4,199.8 423.9,195.7 424.3,193.2 424.8,192.7 425.2,193.2 425.7,192.7 426.1,192.4 426.6,194.4 427.1,192.9 427.5,193.2 428.0,195.2 428.4,193.2 428.9,188.1 429.3,190.6 429.8,190.6 430.2,192.7 430.7,193.2 431.2,195.2 431.6,203.1 432.1,197.7 432.5,195.7 433.0,197.0 433.4,198.5 433.9,200.8 434.3,205.9 434.8,199.5 435.3,207.9 435.7,199.5 436.2,199.5 436.6,202.3 437.1,205.9 437.5,205.9 438.0,204.9 438.5,203.3 438.9,205.4 439.4,205.1 439.8,208.2 440.3,210.0 440.7,213.0 441.2,213.3 441.6,213.5 442.1,215.3 442.6,213.5 443.0,215.3 443.5,216.1 443.9,215.8 444.4,217.8 444.8,216.1 445.3,223.7 445.7,223.7 446.2,221.2 446.7,225.2 447.1,223.7 447.6,223.4 448.0,223.7 448.5,226.2 448.9,225.2 449.4,225.7 449.8,226.0 450.3,225.5 450.8,223.7 451.2,225.2 451.7,226.2 452.1,228.8 452.6,228.8 453.0,238.0 453.5,240.5 453.9,240.8 454.4,241.3 454.9,242.3 455.3,243.6 455.8,244.8 456.2,244.8 456.7,245.8 457.1,247.1 457.6,247.1 458.1,246.9 458.5,247.1 459.0,249.9 459.4,250.2 459.9,248.9 460.3,248.1 460.8,244.8 461.2,243.3 461.7,244.3 462.2,241.5 462.6,239.5 463.1,236.4 463.5,238.2 464.0,233.1 464.4,233.9 464.9,236.4 465.3,236.4 465.8,239.5 466.3,239.0 466.7,240.0 467.2,238.7 467.6,238.2 468.1,233.9 468.5,233.6 469.0,231.3 469.4,230.1 469.9,231.3 470.4,230.3 470.8,228.5 471.3,228.8 471.7,228.8 472.2,231.3 472.6,233.1 473.1,233.6 473.5,233.1 474.0,231.3 474.5,230.8 474.9,231.3 475.4,216.8 475.8,251.7 476.3,250.4 476.7,250.4 477.2,248.9 477.7,247.9 478.1,247.6 478.6,246.6 479.0,246.6 479.5,247.9 479.9,247.4 480.4,247.4 480.8,247.9 481.3,249.4 481.8,249.7 482.2,249.9 482.7,249.7 483.1,249.1 483.6,247.6 484.0,247.9 484.5,248.6 484.9,248.6 485.4,248.9 485.9,248.9 486.3,248.9 486.8,248.4 487.2,248.1 487.7,249.1 488.1,249.7 488.6,247.9 489.0,249.4 489.5,248.6 490.0,248.6 490.4,248.6 490.9,249.1 491.3,249.1 491.8,247.9 492.2,246.9 492.7,246.6 493.2,247.1 493.6,248.6 494.1,247.9 494.5,248.6 495.0,247.6 495.4,247.9 495.9,247.6 496.3,247.6 496.8,247.6 497.3,247.4 497.7,247.1 498.2,247.1 498.6,246.9 499.1,247.1 499.5,246.6 500.0,246.3 500.4,248.1 500.9,245.8 501.4,247.4 501.8,247.1 502.3,248.6 502.7,245.6 503.2,246.1 503.6,244.8 504.1,244.8 504.5,243.0 505.0,234.9 505.5,235.4 505.9,233.6 506.4,239.7 506.8,239.2 507.3,243.3 507.7,238.2 508.2,234.1 508.6,238.2 509.1,235.2 509.6,234.6 510.0,234.9 510.5,234.6 510.9,234.6 511.4,234.9 511.8,239.7 512.3,235.7 512.8,235.7 513.2,237.7 513.7,238.0 514.1,231.3 514.6,233.6 515.0,233.9 515.5,232.9 515.9,234.9 516.4,235.2 516.9,234.4 517.3,234.1 517.8,233.9 518.2,230.3 518.7,233.1 519.1,232.9 519.6,231.6 520.0,231.8 520.5,231.3 521.0,230.3 521.4,231.3 521.9,231.3 522.3,231.3 522.8,231.1 523.2,231.3 523.7,233.1 524.1,233.6 524.6,233.9 525.1,233.9 525.5,233.1 526.0,235.7 526.4,235.1 526.9,237.2 527.3,236.4 527.8,235.9 528.3,235.9 528.7,232.8 529.2,232.3 529.6,229.8 530.1,226.7 530.5,226.5 531.0,224.9 531.4,223.7 531.9,224.2 532.4,222.9 532.8,222.9 533.3,222.9 533.7,222.9 534.2,222.6 534.6,224.2 535.1,224.7 535.5,224.7 536.0,224.9 536.5,224.7 536.9,224.4 537.4,223.9 537.8,223.1 538.3,224.7 538.7,223.4 539.2,223.4 539.6,223.1 540.1,223.1 540.6,223.1 541.0,223.9 541.5,224.4 541.9,224.4 542.4,224.4 542.8,223.1 543.3,244.6 543.7,246.4 544.2,247.9 544.7,246.4 545.1,246.4 545.6,248.9 546.0,250.2 546.5,251.5 546.9,252.0 547.4,251.5 547.9,251.5 548.3,249.7 548.8,250.5 549.2,250.7 549.7,250.5 550.1,249.7 550.6,249.7 551.0,247.9 551.5,252.0 552.0,249.2 552.4,250.2 552.9,251.0 553.3,251.0 553.8,251.0 554.2,251.0 554.7,251.0 555.1,251.2 555.6,251.2 556.1,251.8 556.5,252.0 557.0,252.0 557.4,252.3 557.9,252.3 558.3,252.0 558.8,251.5 559.2,251.5 559.7,251.0 560.2,253.3 560.6,253.5 561.1,253.3 561.5,253.0 562.0,255.3 562.4,254.0 562.9,253.0 563.4,253.0 563.8,253.0 564.3,254.0 564.7,253.0 565.2,253.3 565.6,255.8 566.1,255.8 566.5,255.6 567.0,255.1 567.5,255.1 567.9,255.1 568.4,255.1 568.8,255.3 569.3,254.6 569.7,255.8 570.2,255.8 570.6,255.3 571.1,255.8 571.6,255.1 572.0,255.1 572.5,255.1 572.9,255.1 573.4,255.1 573.8,254.8 574.3,254.8 574.7,254.3 575.2,254.0 575.7,254.0 576.1,253.8 576.6,253.8 577.0,253.3 577.5,252.5 577.9,252.5 578.4,253.5 578.8,253.3 579.3,255.6 579.8,254.6 580.2,254.8 580.7,254.0 581.1,252.5 581.6,253.5 582.0,252.3 582.5,253.0 583.0,253.0 583.4,253.0 583.9,253.8 584.3,252.8 584.8,253.0 585.2,252.8 585.7,252.8 586.1,253.8 586.6,253.3 587.1,253.3 587.5,253.0 588.0,253.8 588.4,256.3 588.9,258.1 589.3,258.1 589.8,256.1 590.2,254.3 590.7,253.3 591.2,247.7 591.6,249.7 592.1,249.5 592.5,250.0 593.0,250.0 593.4,251.0 593.9,250.2 594.3,251.0 594.8,250.7 595.3,250.0 595.7,251.5 596.2,251.5 596.6,250.7 597.1,251.5 597.5,245.6 598.0,245.6 598.5,244.1 598.9,243.8 599.4,246.4 599.8,249.5 600.3,251.2 600.7,256.1 601.2,254.0 601.6,251.5 602.1,249.5 602.6,248.9 603.0,249.5 603.5,249.5 603.9,250.7 604.4,249.7 604.8,251.5 605.3,251.5 605.7,250.7 606.2,251.0 606.7,251.5 607.1,251.2 607.6,250.5 608.0,251.0 608.5,255.8 608.9,256.1 609.4,255.8 609.8,255.1 610.3,256.1 610.8,253.8 611.2,254.0 611.7,254.3 612.1,253.3 612.6,253.8 613.0,253.3 613.5,253.3 613.9,254.0 614.4,254.3 614.9,253.3 615.3,253.5 615.8,253.8 616.2,252.3 616.7,253.5 617.1,256.9 617.6,255.3 618.1,254.8 618.5,255.1 619.0,255.3 619.4,255.3 619.9,254.3 620.3,254.3 620.8,255.3 621.2,254.6 621.7,255.3 622.2,254.8 622.6,254.8 623.1,255.6 623.5,255.1 624.0,255.1 624.4,255.1 624.9,254.0 625.3,255.8 625.8,256.6 626.3,256.1 626.7,255.8 627.2,257.6 627.6,257.6 628.1,257.6 628.5,259.2 629.0,259.2 629.4,259.4 629.9,258.1 630.4,259.2 630.8,143.9 631.3,258.1 631.7,258.1 632.2,257.6 632.6,259.4 633.1,259.4 633.5,259.9 634.0,260.7 634.5,261.5 634.9,262.2 635.4,261.2 635.8,262.5 636.3,262.2 636.7,262.5 637.2,262.5 637.7,263.0 638.1,262.0 638.6,262.0 639.0,262.5 639.5,262.7 639.9,262.7 640.4,262.7 640.8,263.0 641.3,261.5 641.8,260.9 642.2,260.9 642.7,260.9 643.1,261.2 643.6,262.0 644.0,260.9 644.5,260.9 644.9,261.2 645.4,258.6 645.9,259.4 646.3,259.7 646.8,259.4 647.2,259.7 647.7,259.7 648.1,259.9 648.6,258.6 649.0,258.1 649.5,257.6 650.0,258.1 650.4,256.1 650.9,253.0 651.3,253.3 651.8,252.8 652.2,254.6 652.7,254.0 653.2,253.8 653.6,253.8 654.1,254.0 654.5,254.0 655.0,253.8 655.4,254.3 655.9,254.6 656.3,254.6 656.8,254.6 657.3,254.6 657.7,253.8 658.2,253.8 658.6,253.0 659.1,253.0 659.5,251.0 660.0,251.2 660.4,250.7 660.9,251.5 661.4,252.3 661.8,251.8 662.3,253.0 662.7,252.5 663.2,253.3 663.6,252.8 664.1,253.3 664.5,254.3 665.0,254.3 665.5,253.8 665.9,255.6 666.4,255.3 666.8,253.3 667.3,252.5 667.7,252.0 668.2,251.2 668.6,255.3 669.1,257.6 669.6,257.6 670.0,254.8 670.5,255.1 670.9,255.1 671.4,102.3 671.8,255.6 672.3,256.9 672.8,256.9 673.2,256.6 673.7,256.6 674.1,255.3 674.6,255.3 675.0,255.6 675.5,256.6 675.9,256.3 676.4,256.3 676.9,256.6 677.3,256.9 677.8,256.9 678.2,256.3 678.7,256.6 679.1,256.3 679.6,255.6 680.0,238.7 680.5,241.5 681.0,242.8 681.4,240.8 681.9,242.8 682.3,243.8 682.8,243.3 683.2,253.5 683.7,252.8 684.1,251.8 684.6,250.5 685.1,290.1 685.5,288.5 686.0,288.5 686.4,288.3 686.9,288.5 687.3,288.5 687.8,289.3 688.3,289.3 688.7,289.3 689.2,288.5 689.6,274.7 690.1,284.2 690.5,283.7 691.0,283.9 691.4,284.7 691.9,283.9 692.4,281.9 692.8,282.4 693.3,282.9 693.7,283.2 694.2,282.9 694.6,282.9 695.1,282.9 695.5,283.7 696.0,283.7"/>
  <polyline fill="none" stroke="#16a34a" stroke-width="2" points="56.0,149.9 56.5,137.2 56.9,139.7 57.4,134.6 57.8,139.7 58.3,139.7 58.7,142.3 59.2,142.3 59.6,139.7 60.1,139.7 60.6,137.2 61.0,129.5 61.5,129.5 61.9,132.1 62.4,129.5 62.8,129.5 63.3,129.5 63.7,129.5 64.2,119.4 64.7,119.4 65.1,119.4 65.6,116.8 66.0,116.8 66.5,104.1 66.9,106.6 67.4,106.6 67.9,106.6 68.3,106.6 68.8,109.2 69.2,109.2 69.7,111.7 70.1,111.7 70.6,114.3 71.0,116.8 71.5,129.5 72.0,124.5 72.4,127.0 72.9,129.5 73.3,127.0 73.8,127.0 74.2,127.0 74.7,124.5 75.1,124.5 75.6,127.0 76.1,116.8 76.5,119.4 77.0,121.9 77.4,121.9 77.9,121.9 78.3,121.9 78.8,119.4 79.2,116.8 79.7,114.3 80.2,116.8 80.6,116.8 81.1,116.8 81.5,119.4 82.0,119.4 82.4,116.8 82.9,116.8 83.4,116.8 83.8,116.8 84.3,116.8 84.7,114.3 85.2,114.3 85.6,111.7 86.1,109.2 86.5,109.2 87.0,116.8 87.5,116.8 87.9,116.8 88.4,116.8 88.8,119.4 89.3,119.4 89.7,119.4 90.2,116.8 90.6,116.8 91.1,116.8 91.6,116.8 92.0,114.3 92.5,111.7 92.9,111.7 93.4,111.7 93.8,111.7 94.3,111.7 94.7,114.3 95.2,114.3 95.7,111.7 96.1,111.7 96.6,114.3 97.0,116.8 97.5,116.8 97.9,124.5 98.4,129.5 98.8,129.5 99.3,129.5 99.8,129.5 100.2,124.5 100.7,124.5 101.1,124.5 101.6,127.0 102.0,127.0 102.5,127.0 103.0,127.0 103.4,127.0 103.9,129.5 104.3,129.5 104.8,129.5 105.2,129.5 105.7,132.1 106.1,129.5 106.6,129.5 107.1,132.1 107.5,132.1 108.0,132.1 108.4,134.6 108.9,137.2 109.3,137.2 109.8,139.7 110.2,142.3 110.7,139.7 111.2,139.7 111.6,137.2 112.1,137.2 112.5,139.7 113.0,139.7 113.4,139.7 113.9,139.7 114.3,139.7 114.8,139.7 115.3,139.7 115.7,142.3 116.2,139.7 116.6,137.2 117.1,137.2 117.5,137.2 118.0,129.5 118.5,129.5 118.9,132.1 119.4,129.5 119.8,129.5 120.3,129.5 120.7,132.1 121.2,121.9 121.6,119.4 122.1,119.4 122.6,119.4 123.0,121.9 123.5,121.9 123.9,116.8 124.4,116.8 124.8,119.4 125.3,116.8 125.7,114.3 126.2,109.2 126.7,111.7 127.1,111.7 127.6,111.7 128.0,114.3 128.5,111.7 128.9,111.7 129.4,96.5 129.8,101.6 130.3,101.6 130.8,96.5 131.2,88.8 131.7,86.3 132.1,78.7 132.6,93.9 133.0,99.0 133.5,104.1 133.9,104.1 134.4,104.1 134.9,106.6 135.3,104.1 135.8,104.1 136.2,106.6 136.7,104.1 137.1,104.1 137.6,106.6 138.1,104.1 138.5,99.0 139.0,104.1 139.4,104.1 139.9,106.6 140.3,109.2 140.8,109.2 141.2,106.6 141.7,101.6 142.2,104.1 142.6,104.1 143.1,96.5 143.5,93.9 144.0,93.9 144.4,93.9 144.9,93.9 145.3,91.4 145.8,91.4 146.3,88.8 146.7,91.4 147.2,83.7 147.6,91.4 148.1,88.8 148.5,96.5 149.0,91.4 149.4,91.4 149.9,91.4 150.4,91.4 150.8,99.0 151.3,99.0 151.7,93.9 152.2,93.9 152.6,91.4 153.1,88.8 153.5,88.8 154.0,88.8 154.5,88.8 154.9,86.3 155.4,88.8 155.8,91.4 156.3,93.9 156.7,93.9 157.2,91.4 157.7,91.4 158.1,91.4 158.6,93.9 159.0,93.9 159.5,93.9 159.9,93.9 160.4,91.4 160.8,91.4 161.3,88.8 161.8,88.8 162.2,86.3 162.7,83.7 163.1,83.7 163.6,68.5 164.0,73.6 164.5,73.6 164.9,73.6 165.4,73.6 165.9,68.5 166.3,68.5 166.8,68.5 167.2,73.6 167.7,71.0 168.1,71.0 168.6,68.5 169.0,65.9 169.5,83.7 170.0,86.3 170.4,86.3 170.9,96.5 171.3,99.0 171.8,99.0 172.2,109.2 172.7,106.6 173.2,109.2 173.6,99.0 174.1,101.6 174.5,91.4 175.0,91.4 175.4,93.9 175.9,93.9 176.3,93.9 176.8,93.9 177.3,96.5 177.7,99.0 178.2,101.6 178.6,106.6 179.1,114.3 179.5,114.3 180.0,119.4 180.4,119.4 180.9,119.4 181.4,114.3 181.8,109.2 182.3,109.2 182.7,106.6 183.2,106.6 183.6,104.1 184.1,104.1 184.5,99.0 185.0,99.0 185.5,99.0 185.9,99.0 186.4,93.9 186.8,93.9 187.3,93.9 187.7,101.6 188.2,101.6 188.6,96.5 189.1,93.9 189.6,93.9 190.0,93.9 190.5,88.8 190.9,86.3 191.4,88.8 191.8,88.8 192.3,88.8 192.8,88.8 193.2,91.4 193.7,93.9 194.1,93.9 194.6,91.4 195.0,99.0 195.5,101.6 195.9,106.6 196.4,106.6 196.9,106.6 197.3,106.6 197.8,104.1 198.2,106.6 198.7,104.1 199.1,106.6 199.6,99.0 200.0,93.9 200.5,88.8 201.0,86.3 201.4,86.3 201.9,86.3 202.3,86.3 202.8,86.3 203.2,88.8 203.7,83.7 204.1,91.4 204.6,93.9 205.1,93.9 205.5,93.9 206.0,96.5 206.4,93.9 206.9,93.9 207.3,93.9 207.8,99.0 208.3,96.5 208.7,93.9 209.2,93.9 209.6,96.5 210.1,96.5 210.5,96.5 211.0,96.5 211.4,96.5 211.9,99.0 212.4,99.0 212.8,96.5 213.3,96.5 213.7,93.9 214.2,96.5 214.6,96.5 215.1,104.1 215.5,106.6 216.0,109.2 216.5,106.6 216.9,106.6 217.4,111.7 217.8,111.7 218.3,119.4 218.7,119.4 219.2,124.5 219.6,121.9 220.1,124.5 220.6,124.5 221.0,124.5 221.5,124.5 221.9,127.0 222.4,124.5 222.8,127.0 223.3,127.0 223.7,129.5 224.2,124.5 224.7,129.5 225.1,134.6 225.6,134.6 226.0,134.6 226.5,137.2 226.9,137.2 227.4,137.2 227.9,134.6 228.3,134.6 228.8,129.5 229.2,127.0 229.7,132.1 230.1,132.1 230.6,137.2 231.0,137.2 231.5,155.0 232.0,162.6 232.4,157.5 232.9,157.5 233.3,152.5 233.8,149.9 234.2,152.5 234.7,149.9 235.1,149.9 235.6,149.9 236.1,152.5 236.5,152.5 237.0,152.5 237.4,152.5 237.9,149.9 238.3,149.9 238.8,149.9 239.2,155.0 239.7,157.5 240.2,152.5 240.6,147.4 241.1,149.9 241.5,142.3 242.0,139.7 242.4,132.1 242.9,137.2 243.4,134.6 243.8,134.6 244.3,134.6 244.7,134.6 245.2,132.1 245.6,132.1 246.1,129.5 246.5,129.5 247.0,132.1 247.5,132.1 247.9,127.0 248.4,127.0 248.8,124.5 249.3,124.5 249.7,124.5 250.2,127.0 250.6,127.0 251.1,127.0 251.6,124.5 252.0,127.0 252.5,127.0 252.9,129.5 253.4,127.0 253.8,127.0 254.3,121.9 254.7,119.4 255.2,121.9 255.7,119.4 256.1,114.3 256.6,116.8 257.0,116.8 257.5,116.8 257.9,116.8 258.4,124.5 258.8,127.0 259.3,127.0 259.8,129.5 260.2,132.1 260.7,132.1 261.1,132.1 261.6,129.5 262.0,121.9 262.5,121.9 263.0,127.0 263.4,127.0 263.9,132.1 264.3,129.5 264.8,127.0 265.2,124.5 265.7,124.5 266.1,124.5 266.6,123.9 267.1,123.2 267.5,125.7 268.0,124.5 268.4,129.5 268.9,133.6 269.3,133.9 269.8,137.2 270.2,136.2 270.7,136.4 271.2,132.1 271.6,134.4 272.1,133.4 272.5,131.8 273.0,129.5 273.4,128.5 273.9,131.1 274.3,130.3 274.8,131.3 275.3,129.3 275.7,126.0 276.2,121.9 276.6,124.5 277.1,126.2 277.5,126.0 278.0,126.7 278.5,126.5 278.9,124.5 279.4,124.5 279.8,126.0 280.3,124.5 280.7,124.5 281.2,123.7 281.6,126.0 282.1,127.0 282.6,127.0 283.0,127.0 283.5,127.0 283.9,127.0 284.4,127.0 284.8,116.8 285.3,109.2 285.7,101.6 286.2,104.1 286.7,99.0 287.1,101.6 287.6,101.6 288.0,106.4 288.5,109.2 288.9,114.0 289.4,114.3 289.8,121.7 290.3,119.4 290.8,118.6 291.2,119.9 291.7,120.1 292.1,121.2 292.6,120.1 293.0,116.8 293.5,116.3 293.9,119.4 294.4,119.4 294.9,121.9 295.3,123.9 295.8,123.9 296.2,124.2 296.7,119.4 297.1,110.5 297.6,114.3 298.1,114.3 298.5,115.8 299.0,116.8 299.4,119.4 299.9,123.4 300.3,119.4 300.8,121.4 301.2,116.8 301.7,114.3 302.2,116.3 302.6,111.7 303.1,111.5 303.5,113.5 304.0,116.6 304.4,114.3 304.9,123.9 305.3,126.2 305.8,126.5 306.3,120.6 306.7,121.9 307.2,119.4 307.6,123.9 308.1,126.0 308.5,124.2 309.0,118.6 309.4,129.0 309.9,136.2 310.4,128.8 310.8,121.7 311.3,121.9 311.7,127.0 312.2,126.0 312.6,129.5 313.1,131.3 313.5,129.3 314.0,127.0 314.5,126.0 314.9,127.0 315.4,128.5 315.8,124.5 316.3,126.2 316.7,116.8 317.2,116.8 317.7,116.8 318.1,121.4 318.6,123.9 319.0,124.2 319.5,124.5 319.9,121.7 320.4,119.4 320.8,121.9 321.3,124.2 321.8,119.4 322.2,128.3 322.7,144.8 323.1,147.4 323.6,148.1 324.0,151.9 324.5,154.5 324.9,153.7 325.4,160.1 325.9,160.1 326.3,167.7 326.8,167.7 327.2,169.8 327.7,164.7 328.1,160.1 328.6,160.1 329.0,159.1 329.5,155.0 330.0,149.9 330.4,154.7 330.9,155.0 331.3,156.8 331.8,159.8 332.2,161.6 332.7,165.2 333.2,160.1 333.6,157.5 334.1,157.5 334.5,159.3 335.0,157.5 335.4,157.5 335.9,159.1 336.3,157.5 336.8,165.2 337.3,165.2 337.7,167.7 338.2,170.3 338.6,172.8 339.1,175.1 339.5,177.9 340.0,184.3 340.4,185.5 340.9,193.2 341.4,195.7 341.8,197.7 342.3,198.3 342.7,198.3 343.2,200.8 343.6,200.5 344.1,205.9 344.5,198.5 345.0,198.3 345.5,193.2 345.9,190.6 346.4,193.2 346.8,192.4 347.3,192.7 347.7,192.4 348.2,191.9 348.6,185.3 349.1,187.1 349.6,187.3 350.0,187.1 350.5,185.5 350.9,187.1 351.4,188.1 351.8,188.1 352.3,189.3 352.8,190.6 353.2,188.1 353.7,188.1 354.1,190.4 354.6,190.6 355.0,187.3 355.5,190.6 355.9,193.2 356.4,189.6 356.9,185.5 357.3,185.5 357.8,183.0 358.2,183.0 358.7,185.5 359.1,200.8 359.6,195.7 360.0,195.7 360.5,200.8 361.0,205.9 361.4,212.8 361.9,208.4 362.3,208.2 362.8,208.2 363.2,205.9 363.7,205.9 364.1,208.2 364.6,207.2 365.1,205.9 365.5,203.3 366.0,200.8 366.4,195.7 366.9,198.3 367.3,195.7 367.8,197.5 368.3,185.5 368.7,184.3 369.2,184.8 369.6,185.5 370.1,183.0 370.5,180.4 371.0,182.0 371.4,177.9 371.9,180.4 372.4,180.4 372.8,176.9 373.3,174.3 373.7,172.8 374.2,174.3 374.6,175.4 375.1,175.4 375.5,182.5 376.0,182.5 376.5,185.0 376.9,177.4 377.4,183.0 377.8,185.5 378.3,188.1 378.7,187.8 379.2,188.1 379.6,190.4 380.1,188.1 380.6,190.6 381.0,185.5 381.5,185.0 381.9,185.5 382.4,185.0 382.8,185.0 383.3,185.5 383.7,185.5 384.2,184.3 384.7,183.0 385.1,185.5 385.6,185.5 386.0,187.3 386.5,183.0 386.9,183.0 387.4,187.1 387.9,187.8 388.3,188.1 388.8,187.6 389.2,187.8 389.7,187.1 390.1,188.1 390.6,185.5 391.0,188.1 391.5,188.1 392.0,188.1 392.4,189.3 392.9,190.4 393.3,190.6 393.8,192.7 394.2,192.4 394.7,190.6 395.1,192.7 395.6,193.2 396.1,193.2 396.5,193.2 397.0,193.2 397.4,192.4 397.9,193.2 398.3,193.2 398.8,193.2 399.2,193.2 399.7,198.3 400.2,200.3 400.6,199.8 401.1,200.8 401.5,200.5 402.0,203.3 402.4,205.9 402.9,208.4 403.4,208.4 403.8,208.4 404.3,207.7 404.7,208.4 405.2,210.0 405.6,210.7 406.1,210.7 406.5,207.9 407.0,211.0 407.5,211.0 407.9,212.5 408.4,211.0 408.8,211.0 409.3,212.8 409.7,213.5 410.2,215.8 410.6,217.6 411.1,218.1 411.6,218.6 412.0,218.6 412.5,223.7 412.9,225.7 413.4,223.7 413.8,225.2 414.3,226.2 414.7,226.2 415.2,226.2 415.7,226.0 416.1,225.7 416.6,225.0 417.0,225.7 417.5,225.7 417.9,195.7 418.4,194.7 418.8,193.2 419.3,193.2 419.8,197.5 420.2,198.3 420.7,198.3 421.1,200.5 421.6,200.8 422.0,200.0 422.5,202.6 423.0,200.8 423.4,199.8 423.9,195.7 424.3,193.2 424.8,192.7 425.2,193.2 425.7,192.7 426.1,192.4 426.6,194.4 427.1,192.9 427.5,193.2 428.0,195.2 428.4,193.2 428.9,188.1 429.3,190.6 429.8,190.6 430.2,192.7 430.7,193.2 431.2,195.2 431.6,203.1 432.1,197.7 432.5,195.7 433.0,197.0 433.4,198.5 433.9,200.8 434.3,205.9 434.8,199.5 435.3,207.9 435.7,199.5 436.2,199.5 436.6,202.3 437.1,205.9 437.5,205.9 438.0,204.9 438.5,203.3 438.9,205.4 439.4,205.1 439.8,208.2 440.3,210.0 440.7,213.0 441.2,213.3 441.6,213.5 442.1,215.3 442.6,213.5 443.0,215.3 443.5,216.1 443.9,215.8 444.4,217.8 444.8,216.1 445.3,223.7 445.7,223.7 446.2,221.2 446.7,225.2 447.1,223.7 447.6,223.4 448.0,223.7 448.5,226.2 448.9,225.2 449.4,225.7 449.8,226.0 450.3,225.5 450.8,223.7 451.2,225.2 451.7,226.2 452.1,228.8 452.6,228.8 453.0,238.0 453.5,240.5 453.9,240.8 454.4,241.3 454.9,242.3 455.3,243.6 455.8,244.8 456.2,244.8 456.7,245.8 457.1,247.1 457.6,247.1 458.1,246.9 458.5,247.1 459.0,249.9 459.4,250.2 459.9,248.9 460.3,248.1 460.8,244.8 461.2,243.3 461.7,244.3 462.2,241.5 462.6,239.5 463.1,236.4 463.5,238.2 464.0,233.1 464.4,233.9 464.9,236.4 465.3,236.4 465.8,239.5 466.3,239.0 466.7,240.0 467.2,238.7 467.6,238.2 468.1,233.9 468.5,233.6 469.0,231.3 469.4,230.1 469.9,231.3 470.4,230.3 470.8,228.5 471.3,228.8 471.7,228.8 472.2,231.3 472.6,233.1 473.1,233.6 473.5,233.1 474.0,231.3 474.5,230.8 474.9,231.3 475.4,216.8 475.8,251.7 476.3,250.4 476.7,250.4 477.2,248.9 477.7,247.9 478.1,247.6 478.6,246.6 479.0,246.6 479.5,247.9 479.9,247.4 480.4,247.4 480.8,247.9 481.3,249.4 481.8,249.7 482.2,249.9 482.7,249.7 483.1,249.1 483.6,247.6 484.0,247.9 484.5,248.6 484.9,248.6 485.4,248.9 485.9,248.9 486.3,248.9 486.8,248.4 487.2,248.1 487.7,249.1 488.1,249.7 488.6,247.9 489.0,249.4 489.5,248.6 490.0,248.6 490.4,248.6 490.9,249.1 491.3,249.1 491.8,247.9 492.2,246.9 492.7,246.6 493.2,247.1 493.6,248.6 494.1,247.9 494.5,248.6 495.0,247.6 495.4,247.9 495.9,247.6 496.3,247.6 496.8,247.6 497.3,247.4 497.7,247.1 498.2,247.1 498.6,246.9 499.1,247.1 499.5,246.6 500.0,246.3 500.4,248.1 500.9,245.8 501.4,247.4 501.8,247.1 502.3,248.6 502.7,245.6 503.2,246.1 503.6,244.8 504.1,244.8 504.5,243.0 505.0,234.9 505.5,235.4 505.9,233.6 506.4,239.7 506.8,239.2 507.3,243.3 507.7,238.2 508.2,234.1 508.6,238.2 509.1,235.2 509.6,234.6 510.0,234.9 510.5,234.6 510.9,234.6 511.4,234.9 511.8,239.7 512.3,235.7 512.8,235.7 513.2,237.7 513.7,238.0 514.1,231.3 514.6,233.6 515.0,233.9 515.5,232.9 515.9,234.9 516.4,235.2 516.9,234.4 517.3,234.1 517.8,233.9 518.2,230.3 518.7,233.1 519.1,232.9 519.6,231.6 520.0,231.8 520.5,231.3 521.0,230.3 521.4,231.3 521.9,231.3 522.3,231.3 522.8,231.1 523.2,231.3 523.7,233.1 524.1,233.6 524.6,233.9 525.1,233.9 525.5,233.1 526.0,235.7 526.4,235.1 526.9,237.2 527.3,236.4 527.8,235.9 528.3,235.9 528.7,232.8 529.2,232.3 529.6,229.8 530.1,226.7 530.5,226.5 531.0,224.9 531.4,223.7 531.9,224.2 532.4,222.9 532.8,222.9 533.3,222.9 533.7,222.9 534.2,222.6 534.6,224.2 535.1,224.7 535.5,224.7 536.0,224.9 536.5,224.7 536.9,224.4 537.4,223.9 537.8,223.1 538.3,224.7 538.7,223.4 539.2,223.4 539.6,223.1 540.1,223.1 540.6,223.1 541.0,223.9 541.5,224.4 541.9,224.4 542.4,224.4 542.8,223.1 543.3,244.6 543.7,246.4 544.2,247.9 544.7,246.4 545.1,246.4 545.6,248.9 546.0,250.2 546.5,251.5 546.9,252.0 547.4,251.5 547.9,251.5 548.3,249.7 548.8,250.5 549.2,250.7 549.7,250.5 550.1,249.7 550.6,249.7 551.0,247.9 551.5,252.0 552.0,249.2 552.4,250.2 552.9,251.0 553.3,251.0 553.8,251.0 554.2,251.0 554.7,251.0 555.1,251.2 555.6,251.2 556.1,251.8 556.5,252.0 557.0,252.0 557.4,252.3 557.9,252.3 558.3,252.0 558.8,251.5 559.2,251.5 559.7,251.0 560.2,253.3 560.6,253.5 561.1,253.3 561.5,253.0 562.0,255.3 562.4,254.0 562.9,253.0 563.4,253.0 563.8,253.0 564.3,254.0 564.7,253.0 565.2,253.3 565.6,255.8 566.1,255.8 566.5,255.6 567.0,255.1 567.5,255.1 567.9,255.1 568.4,255.1 568.8,255.3 569.3,254.6 569.7,255.8 570.2,255.8 570.6,255.3 571.1,255.8 571.6,255.1 572.0,255.1 572.5,255.1 572.9,255.1 573.4,255.1 573.8,254.8 574.3,254.8 574.7,254.3 575.2,254.0 575.7,254.0 576.1,253.8 576.6,253.8 577.0,253.3 577.5,252.5 577.9,252.5 578.4,253.5 578.8,253.3 579.3,255.6 579.8,254.6 580.2,254.8 580.7,254.0 581.1,252.5 581.6,253.5 582.0,252.3 582.5,253.0 583.0,253.0 583.4,253.0 583.9,253.8 584.3,252.8 584.8,253.0 585.2,252.8 585.7,252.8 586.1,253.8 586.6,253.3 587.1,253.3 587.5,253.0 588.0,253.8 588.4,256.3 588.9,258.1 589.3,258.1 589.8,256.1 590.2,254.3 590.7,253.3 591.2,247.7 591.6,249.7 592.1,249.5 592.5,250.0 593.0,250.0 593.4,251.0 593.9,250.2 594.3,251.0 594.8,250.7 595.3,250.0 595.7,251.5 596.2,251.5 596.6,250.7 597.1,251.5 597.5,245.6 598.0,245.6 598.5,244.1 598.9,243.8 599.4,246.4 599.8,249.5 600.3,251.2 600.7,256.1 601.2,254.0 601.6,251.5 602.1,249.5 602.6,248.9 603.0,249.5 603.5,249.5 603.9,250.7 604.4,249.7 604.8,251.5 605.3,251.5 605.7,250.7 606.2,251.0 606.7,251.5 607.1,251.2 607.6,250.5 608.0,251.0 608.5,255.8 608.9,256.1 609.4,255.8 609.8,255.1 610.3,256.1 610.8,253.8 611.2,254.0 611.7,254.3 612.1,253.3 612.6,253.8 613.0,253.3 613.5,253.3 613.9,254.0 614.4,254.3 614.9,253.3 615.3,253.5 615.8,253.8 616.2,252.3 616.7,253.5 617.1,256.9 617.6,255.3 618.1,254.8 618.5,255.1 619.0,255.3 619.4,255.3 619.9,254.3 620.3,254.3 620.8,255.3 621.2,254.6 621.7,255.3 622.2,254.8 622.6,254.8 623.1,255.6 623.5,255.1 624.0,255.1 624.4,255.1 624.9,254.0 625.3,255.8 625.8,256.6 626.3,256.1 626.7,255.8 627.2,257.6 627.6,257.6 628.1,257.6 628.5,259.2 629.0,259.2 629.4,259.4 629.9,258.1 630.4,259.2 630.8,143.9 631.3,258.1 631.7,258.1 632.2,257.6 632.6,259.4 633.1,259.4 633.5,259.9 634.0,260.7 634.5,261.5 634.9,262.2 635.4,261.2 635.8,262.5 636.3,262.2 636.7,262.5 637.2,262.5 637.7,263.0 638.1,262.0 638.6,262.0 639.0,262.5 639.5,262.7 639.9,262.7 640.4,262.7 640.8,263.0 641.3,261.5 641.8,260.9 642.2,260.9 642.7,260.9 643.1,261.2 643.6,262.0 644.0,260.9 644.5,260.9 644.9,261.2 645.4,258.6 645.9,259.4 646.3,259.7 646.8,259.4 647.2,259.7 647.7,259.7 648.1,259.9 648.6,258.6 649.0,258.1 649.5,257.6 650.0,258.1 650.4,256.1 650.9,253.0 651.3,253.3 651.8,252.8 652.2,254.6 652.7,254.0 653.2,253.8 653.6,253.8 654.1,254.0 654.5,254.0 655.0,253.8 655.4,254.3 655.9,254.6 656.3,254.6 656.8,254.6 657.3,254.6 657.7,253.8 658.2,253.8 658.6,253.0 659.1,253.0 659.5,251.0 660.0,251.2 660.4,250.7 660.9,251.5 661.4,252.3 661.8,251.8 662.3,253.0 662.7,252.5 663.2,253.3 663.6,252.8 664.1,253.3 664.5,254.3 665.0,254.3 665.5,253.8 665.9,255.6 666.4,255.3 666.8,253.3 667.3,252.5 667.7,252.0 668.2,251.2 668.6,255.3 669.1,257.6 669.6,257.6 670.0,254.8 670.5,255.1 670.9,255.1 671.4,102.3 671.8,255.6 672.3,256.9 672.8,256.9 673.2,256.6 673.7,256.6 674.1,255.3 674.6,255.3 675.0,255.6 675.5,256.6 675.9,256.3 676.4,256.3 676.9,256.6 677.3,256.9 677.8,256.9 678.2,256.3 678.7,256.6 679.1,256.3 679.6,255.6 680.0,238.7 680.5,241.5 681.0,242.8 681.4,240.8 681.9,242.8 682.3,243.8 682.8,243.3 683.2,253.5 683.7,252.8 684.1,251.8 684.6,250.5 685.1,290.1 685.5,288.5 686.0,288.5 686.4,288.3 686.9,288.5 687.3,288.5 687.8,289.3 688.3,289.3 688.7,289.3 689.2,288.5 689.6,274.7 690.1,284.2 690.5,283.7 691.0,283.9 691.4,284.7 691.9,283.9 692.4,281.9 692.8,282.4 693.3,282.9 693.7,283.2 694.2,282.9 694.6,282.9 695.1,282.9 695.5,283.7 696.0,283.7"/>
  <text x="60" y="62" font-size="11" fill="#2563eb">Price index</text>
  <text x="146" y="62" font-size="11" fill="#16a34a">Total return (price + distributions)</text>
  <text x="56" y="348" font-size="11" text-anchor="middle" fill="#444">2005-05</text><text x="216" y="348" font-size="11" text-anchor="middle" fill="#444">2006-10</text><text x="376" y="348" font-size="11" text-anchor="middle" fill="#444">2008-03</text><text x="536" y="348" font-size="11" text-anchor="middle" fill="#444">2014-09</text><text x="696" y="348" font-size="11" text-anchor="middle" fill="#444">2017-03</text>
</svg>
