<svg xmlns="http://www.w3.org/2000/svg" width="820" height="410" viewBox="0 0 820 410">
<rect width="820" height="410" fill="#fafafa"/><text x="78" y="22" font-size="14" font-family="sans-serif" fill="#0f172a">IREN cumulative return since 2021-11-17 | dividends reinvested</text>
<text x="78" y="40" font-size="11" font-family="sans-serif" fill="#334155">Total return +37.5% | Price-only +37.5% | logarithmic scale</text>
<text x="78" y="54" font-size="9" font-family="sans-serif" fill="#64748b">Regular $0.00 | Special $0.00 | Other $0.00 per initial share path</text>
<line x1="78" y1="332.0" x2="796" y2="332.0" stroke="#e2e8f0"/><text x="70" y="336.0" font-size="10" text-anchor="end" fill="#64748b">-96.6%</text><line x1="78" y1="287.0" x2="796" y2="287.0" stroke="#e2e8f0"/><text x="70" y="291.0" font-size="10" text-anchor="end" fill="#64748b">-92.5%</text><line x1="78" y1="242.0" x2="796" y2="242.0" stroke="#e2e8f0"/><text x="70" y="246.0" font-size="10" text-anchor="end" fill="#64748b">-83.4%</text><line x1="78" y1="197.0" x2="796" y2="197.0" stroke="#e2e8f0"/><text x="70" y="201.0" font-size="10" text-anchor="end" fill="#64748b">-63.2%</text><line x1="78" y1="152.0" x2="796" y2="152.0" stroke="#e2e8f0"/><text x="70" y="156.0" font-size="10" text-anchor="end" fill="#64748b">-18.2%</text><line x1="78" y1="140.7" x2="796" y2="140.7" stroke="#e2e8f0"/><text x="70" y="144.7" font-size="10" text-anchor="end" fill="#64748b">0%</text><line x1="78" y1="107.0" x2="796" y2="107.0" stroke="#e2e8f0"/><text x="70" y="111.0" font-size="10" text-anchor="end" fill="#64748b">+81.8%</text><line x1="78" y1="62.0" x2="796" y2="62.0" stroke="#e2e8f0"/><text x="70" y="66.0" font-size="10" text-anchor="end" fill="#64748b">+304.0%</text>
<line x1="78" y1="332" x2="796" y2="332" stroke="#cbd5e1"/>
<polyline fill="none" stroke="#2563eb" stroke-width="2" points="78.0,140.7 78.6,143.2 79.2,139.9 79.8,145.0 80.5,149.2 81.1,151.8 81.7,154.9 82.3,154.7 82.9,157.5 83.5,156.5 84.1,160.3 84.8,166.6 85.4,166.9 86.0,163.9 86.6,166.3 87.2,168.7 87.8,170.5 88.5,174.1 89.1,176.3 89.7,173.0 90.3,172.0 90.9,158.9 91.5,160.1 92.1,158.0 92.8,161.3 93.4,160.6 94.0,165.1 94.6,161.9 95.2,162.3 95.8,161.6 96.4,164.0 97.1,167.4 97.7,174.3 98.3,176.3 98.9,178.4 99.5,180.8 100.1,184.9 100.7,179.3 101.4,178.9 102.0,180.5 102.6,179.2 103.2,184.5 103.8,182.9 104.4,183.7 105.0,193.5 105.7,195.1 106.3,193.7 106.9,187.0 107.5,190.2 108.1,185.7 108.7,175.5 109.4,172.8 110.0,178.5 110.6,178.5 111.2,175.6 111.8,166.9 112.4,170.7 113.0,171.0 113.7,169.2 114.3,169.0 114.9,171.7 115.5,170.0 116.1,169.0 116.7,173.8 117.3,174.0 118.0,171.5 118.6,174.6 119.2,172.7 119.8,170.2 120.4,168.3 121.0,167.8 121.6,166.7 122.3,169.3 122.9,170.4 123.5,170.2 124.1,168.2 124.7,163.1 125.3,158.6 125.9,160.1 126.6,166.9 127.2,171.7 127.8,169.6 128.4,170.3 129.0,175.5 129.6,176.0 130.3,171.4 130.9,170.4 131.5,172.8 132.1,170.6 132.7,172.7 133.3,166.0 133.9,164.9 134.6,165.7 135.2,165.3 135.8,165.8 136.4,167.5 137.0,171.0 137.6,172.1 138.2,173.4 138.9,176.0 139.5,177.0 140.1,175.6 140.7,179.2 141.3,184.8 141.9,184.7 142.5,185.1 143.2,187.9 143.8,187.4 144.4,184.4 145.0,190.6 145.6,191.1 146.2,191.9 146.8,199.0 147.5,197.1 148.1,194.0 148.7,190.3 149.3,192.1 149.9,194.0 150.5,200.1 151.2,205.9 151.8,212.1 152.4,214.5 153.0,205.7 153.6,231.3 154.2,220.6 154.8,223.7 155.5,213.3 156.1,217.5 156.7,222.3 157.3,229.3 157.9,226.6 158.5,222.7 159.1,222.1 159.8,220.4 160.4,222.4 161.0,220.2 161.6,225.8 162.2,224.6 162.8,227.4 163.4,226.5 164.1,231.1 164.7,232.2 165.3,241.9 165.9,244.6 166.5,244.4 167.1,245.3 167.8,246.5 168.4,249.6 169.0,254.2 169.6,257.2 170.2,258.0 170.8,251.5 171.4,257.1 172.1,255.3 172.7,252.7 173.3,248.6 173.9,252.0 174.5,253.5 175.1,248.0 175.7,245.3 176.4,250.4 177.0,254.7 177.6,254.4 178.2,256.5 178.8,254.4 179.4,256.0 180.0,250.4 180.7,242.6 181.3,241.0 181.9,246.0 182.5,249.1 183.1,249.9 183.7,243.3 184.3,243.1 185.0,243.1 185.6,242.1 186.2,242.6 186.8,232.4 187.4,236.9 188.0,233.1 188.7,225.5 189.3,226.3 189.9,221.7 190.5,217.8 191.1,220.3 191.7,221.2 192.3,221.8 193.0,226.6 193.6,222.4 194.2,229.6 194.8,228.9 195.4,227.2 196.0,229.1 196.6,230.1 197.3,232.1 197.9,234.3 198.5,233.3 199.1,241.9 199.7,242.6 200.3,241.6 200.9,241.4 201.6,238.6 202.2,240.4 202.8,234.7 203.4,234.0 204.0,239.1 204.6,236.3 205.2,236.2 205.9,229.4 206.5,238.2 207.1,241.9 207.7,242.7 208.3,242.1 208.9,247.5 209.6,250.2 210.2,247.4 210.8,246.0 211.4,245.9 212.0,240.9 212.6,242.0 213.2,237.7 213.9,236.2 214.5,237.3 215.1,246.9 215.7,249.1 216.3,251.7 216.9,249.9 217.5,247.9 218.2,251.9 218.8,248.9 219.4,251.2 220.0,253.7 220.6,257.2 221.2,258.5 221.8,260.6 222.5,252.0 223.1,248.6 223.7,252.2 224.3,250.7 224.9,252.1 225.5,252.0 226.1,261.2 226.8,267.7 227.4,263.0 228.0,263.0 228.6,269.4 229.2,277.4 229.8,271.7 230.5,259.5 231.1,268.7 231.7,271.2 232.3,276.4 232.9,283.5 233.5,284.9 234.1,296.1 234.8,296.9 235.4,291.6 236.0,292.1 236.6,296.9 237.2,299.1 237.8,298.3 238.4,295.4 239.1,294.3 239.7,294.0 240.3,297.6 240.9,301.5 241.5,303.1 242.1,301.9 242.7,301.5 243.4,303.9 244.0,302.3 244.6,305.2 245.2,302.7 245.8,304.7 246.4,301.9 247.0,304.3 247.7,313.9 248.3,311.0 248.9,312.0 249.5,317.5 250.1,315.4 250.7,308.2 251.4,311.0 252.0,306.9 252.6,305.2 253.2,306.9 253.8,305.2 254.4,293.3 255.0,296.9 255.7,291.9 256.3,286.8 256.9,283.2 257.5,284.1 258.1,285.5 258.7,282.3 259.3,277.2 260.0,276.6 260.6,277.4 261.2,276.9 261.8,279.4 262.4,279.3 263.0,277.9 263.6,277.9 264.3,270.8 264.9,275.2 265.5,276.0 266.1,277.9 266.7,279.7 267.3,285.8 268.0,289.0 268.6,278.2 269.2,267.8 269.8,238.9 270.4,240.6 271.0,246.3 271.6,253.4 272.3,254.4 272.9,258.7 273.5,262.4 274.1,264.0 274.7,263.4 275.3,264.0 275.9,269.2 276.6,266.6 277.2,266.1 277.8,263.8 278.4,268.3 279.0,271.7 279.6,267.6 280.2,266.1 280.9,265.3 281.5,264.4 282.1,259.3 282.7,259.3 283.3,258.5 283.9,253.2 284.5,260.0 285.2,255.3 285.8,260.2 286.4,264.4 287.0,263.4 287.6,258.9 288.2,259.3 288.9,257.8 289.5,259.3 290.1,260.6 290.7,263.0 291.3,259.1 291.9,252.7 292.5,244.1 293.2,247.9 293.8,239.9 294.4,235.8 295.0,238.4 295.6,234.5 296.2,238.6 296.8,243.0 297.5,243.1 298.1,241.4 298.7,243.0 299.3,239.5 299.9,239.5 300.5,242.7 301.1,247.5 301.8,244.1 302.4,248.0 303.0,249.1 303.6,246.6 304.2,253.9 304.8,245.6 305.4,244.1 306.1,250.5 306.7,247.2 307.3,243.3 307.9,243.8 308.5,242.7 309.1,243.7 309.8,243.4 310.4,242.1 311.0,246.2 311.6,246.8 312.2,250.4 312.8,250.7 313.4,247.2 314.1,249.1 314.7,248.9 315.3,250.2 315.9,256.0 316.5,251.5 317.1,251.9 317.7,249.1 318.4,248.0 319.0,246.5 319.6,248.9 320.2,250.5 320.8,253.5 321.4,251.5 322.0,240.8 322.7,241.6 323.3,235.2 323.9,234.8 324.5,239.9 325.1,236.3 325.7,237.6 326.3,232.9 327.0,234.1 327.6,223.1 328.2,221.2 328.8,219.0 329.4,213.9 330.0,210.8 330.7,213.2 331.3,211.5 331.9,205.4 332.5,210.0 333.1,210.9 333.7,213.5 334.3,207.3 335.0,213.3 335.6,213.1 336.2,213.7 336.8,214.6 337.4,213.1 338.0,217.5 338.6,215.2 339.3,214.0 339.9,217.6 340.5,219.0 341.1,222.4 341.7,224.1 342.3,226.0 342.9,221.9 343.6,224.8 344.2,224.8 344.8,223.1 345.4,228.5 346.0,229.4 346.6,231.6 347.2,234.2 347.9,237.2 348.5,239.1 349.1,240.2 349.7,236.6 350.3,238.6 350.9,240.2 351.6,238.5 352.2,227.5 352.8,226.6 353.4,231.7 354.0,235.4 354.6,237.2 355.2,236.2 355.9,236.3 356.5,234.0 357.1,240.2 357.7,237.3 358.3,236.9 358.9,230.0 359.5,236.2 360.2,232.9 360.8,235.4 361.4,239.8 362.0,244.7 362.6,245.1 363.2,245.9 363.8,249.3 364.5,248.5 365.1,246.0 365.7,246.9 366.3,248.6 366.9,254.4 367.5,253.2 368.2,256.2 368.8,250.9 369.4,253.9 370.0,254.1 370.6,254.9 371.2,257.1 371.8,258.2 372.5,253.4 373.1,250.2 373.7,255.6 374.3,257.1 374.9,256.3 375.5,255.3 376.1,250.2 376.8,252.4 377.4,257.8 378.0,255.3 378.6,258.7 379.2,257.4 379.8,258.2 380.4,250.5 381.1,250.4 381.7,252.9 382.3,253.0 382.9,257.4 383.5,259.5 384.1,259.7 384.7,259.1 385.4,260.6 386.0,256.9 386.6,261.8 387.2,262.2 387.8,260.0 388.4,261.4 389.1,256.0 389.7,249.6 390.3,245.6 390.9,237.7 391.5,232.0 392.1,230.9 392.7,224.0 393.4,226.0 394.0,224.1 394.6,225.8 395.2,221.7 395.8,221.6 396.4,230.0 397.0,228.5 397.7,221.9 398.3,221.1 398.9,219.8 399.5,219.8 400.1,222.5 400.7,224.4 401.3,205.9 402.0,201.1 402.6,198.3 403.2,193.6 403.8,200.0 404.4,210.0 405.0,212.8 405.6,215.0 406.3,213.3 406.9,218.1 407.5,216.0 408.1,219.1 408.7,215.8 409.3,219.5 410.0,228.5 410.6,232.3 411.2,233.5 411.8,238.2 412.4,238.4 413.0,238.6 413.6,240.6 414.3,242.7 414.9,241.9 415.5,239.0 416.1,236.3 416.7,238.2 417.3,243.8 417.9,246.3 418.6,245.7 419.2,247.9 419.8,245.0 420.4,241.0 421.0,229.0 421.6,220.4 422.2,211.7 422.9,211.8 423.5,201.6 424.1,205.5 424.7,212.7 425.3,212.2 425.9,214.1 426.5,214.2 427.2,218.2 427.8,211.9 428.4,213.0 429.0,219.4 429.6,220.8 430.2,219.9 430.9,222.7 431.5,229.1 432.1,225.8 432.7,226.2 433.3,226.3 433.9,229.2 434.5,230.9 435.2,231.3 435.8,235.3 436.4,234.8 437.0,234.7 437.6,236.2 438.2,223.0 438.8,223.2 439.5,229.6 440.1,223.9 440.7,222.8 441.3,226.1 441.9,225.8 442.5,215.6 443.1,220.9 443.8,224.1 444.4,222.1 445.0,223.7 445.6,225.7 446.2,230.0 446.8,231.3 447.5,230.5 448.1,234.2 448.7,238.2 449.3,238.0 449.9,236.1 450.5,233.8 451.1,230.7 451.8,224.6 452.4,223.9 453.0,227.4 453.6,228.2 454.2,229.2 454.8,233.7 455.4,238.1 456.1,238.2 456.7,235.2 457.3,233.3 457.9,226.8 458.5,229.3 459.1,228.7 459.7,228.9 460.4,232.5 461.0,231.8 461.6,231.6 462.2,227.9 462.8,221.5 463.4,219.7 464.0,216.6 464.7,208.0 465.3,205.4 465.9,210.6 466.5,204.8 467.1,204.4 467.7,205.5 468.4,208.0 469.0,205.1 469.6,203.6 470.2,197.7 470.8,196.6 471.4,189.6 472.0,188.2 472.7,189.3 473.3,179.2 473.9,173.9 474.5,173.3 475.1,175.3 475.7,170.3 476.3,172.3 477.0,172.5 477.6,175.1 478.2,177.9 478.8,176.3 479.4,179.5 480.0,181.8 480.6,184.2 481.3,177.9 481.9,170.6 482.5,170.7 483.1,168.1 483.7,169.6 484.3,177.1 484.9,176.7 485.6,184.7 486.2,179.3 486.8,180.8 487.4,179.2 488.0,184.4 488.6,189.8 489.3,184.2 489.9,182.8 490.5,186.3 491.1,189.9 491.7,194.4 492.3,193.7 492.9,192.7 493.6,194.7 494.2,190.7 494.8,195.2 495.4,199.4 496.0,201.0 496.6,204.2 497.2,213.1 497.9,206.5 498.5,207.2 499.1,206.7 499.7,208.4 500.3,209.2 500.9,207.5 501.5,203.8 502.2,202.8 502.8,202.7 503.4,199.0 504.0,202.9 504.6,199.4 505.2,202.7 505.8,204.6 506.5,207.9 507.1,200.1 507.7,204.3 508.3,212.0 508.9,213.5 509.5,213.0 510.2,215.9 510.8,210.1 511.4,207.0 512.0,207.0 512.6,208.1 513.2,206.8 513.8,205.6 514.5,203.4 515.1,205.6 515.7,205.1 516.3,207.2 516.9,204.1 517.5,197.1 518.1,198.7 518.8,196.2 519.4,197.9 520.0,200.6 520.6,205.6 521.2,205.1 521.8,204.8 522.4,199.0 523.1,201.2 523.7,203.3 524.3,207.2 524.9,208.6 525.5,205.5 526.1,200.0 526.8,198.7 527.4,194.8 528.0,197.3 528.6,194.0 529.2,193.2 529.8,195.3 530.4,199.0 531.1,195.5 531.7,195.5 532.3,186.2 532.9,188.0 533.5,189.3 534.1,196.3 534.7,196.7 535.4,200.2 536.0,197.4 536.6,185.5 537.2,184.6 537.8,185.7 538.4,177.4 539.0,178.9 539.7,186.3 540.3,189.2 540.9,187.4 541.5,189.7 542.1,188.8 542.7,190.5 543.3,192.7 544.0,186.8 544.6,188.8 545.2,193.6 545.8,178.9 546.4,174.1 547.0,177.9 547.7,176.6 548.3,171.0 548.9,171.5 549.5,166.8 550.1,170.1 550.7,174.7 551.3,173.7 552.0,174.4 552.6,175.8 553.2,172.5 553.8,173.2 554.4,180.2 555.0,183.6 555.6,181.7 556.3,184.4 556.9,181.7 557.5,184.0 558.1,187.2 558.7,191.4 559.3,192.1 559.9,188.5 560.6,184.0 561.2,181.9 561.8,183.8 562.4,188.3 563.0,185.7 563.6,188.5 564.2,185.8 564.9,182.9 565.5,183.4 566.1,180.8 566.7,186.7 567.3,182.4 567.9,179.5 568.6,174.9 569.2,190.6 569.8,190.6 570.4,191.2 571.0,189.4 571.6,189.8 572.2,187.4 572.9,187.4 573.5,185.3 574.1,182.7 574.7,178.6 575.3,176.9 575.9,178.8 576.5,176.2 577.2,175.9 577.8,176.2 578.4,176.4 579.0,176.3 579.6,179.1 580.2,186.3 580.8,190.2 581.5,198.4 582.1,200.3 582.7,204.6 583.3,202.0 583.9,206.7 584.5,207.0 585.1,203.2 585.8,206.4 586.4,205.8 587.0,214.3 587.6,210.8 588.2,210.8 588.8,213.2 589.5,209.5 590.1,208.4 590.7,214.6 591.3,209.6 591.9,209.5 592.5,210.0 593.1,205.9 593.8,208.0 594.4,213.5 595.0,215.7 595.6,219.2 596.2,219.0 596.8,214.1 597.4,213.1 598.1,219.5 598.7,220.4 599.3,221.0 599.9,226.8 600.5,220.8 601.1,224.9 601.7,223.4 602.4,222.2 603.0,225.3 603.6,225.1 604.2,223.8 604.8,224.6 605.4,219.3 606.0,218.9 606.7,217.1 607.3,215.0 607.9,216.3 608.5,217.4 609.1,218.8 609.7,216.5 610.4,215.1 611.0,218.1 611.6,215.3 612.2,214.7 612.8,212.1 613.4,210.8 614.0,207.2 614.7,202.8 615.3,203.8 615.9,205.4 616.5,200.8 617.1,200.0 617.7,199.5 618.3,197.7 619.0,195.3 619.6,196.3 620.2,195.5 620.8,197.9 621.4,199.6 622.0,201.0 622.6,198.7 623.3,197.7 623.9,194.4 624.5,197.3 625.1,192.5 625.7,189.2 626.3,188.4 627.0,189.4 627.6,190.1 628.2,192.0 628.8,188.9 629.4,192.4 630.0,192.2 630.6,188.5 631.3,187.5 631.9,183.0 632.5,181.4 633.1,175.8 633.7,172.1 634.3,169.9 634.9,167.4 635.6,165.8 636.2,161.8 636.8,161.3 637.4,161.5 638.0,161.3 638.6,161.1 639.2,163.8 639.9,160.2 640.5,161.6 641.1,160.1 641.7,157.8 642.3,158.1 642.9,157.5 643.5,156.1 644.2,154.9 644.8,157.5 645.4,158.8 646.0,162.6 646.6,165.3 647.2,164.1 647.9,164.2 648.5,166.7 649.1,162.9 649.7,163.0 650.3,156.9 650.9,156.2 651.5,156.5 652.2,158.0 652.8,158.5 653.4,158.8 654.0,154.7 654.6,152.9 655.2,150.0 655.8,155.7 656.5,152.7 657.1,153.2 657.7,148.1 658.3,143.8 658.9,144.1 659.5,145.7 660.1,144.0 660.8,136.2 661.4,130.8 662.0,132.6 662.6,136.9 663.2,136.9 663.8,136.8 664.4,128.8 665.1,122.7 665.7,124.0 666.3,122.2 666.9,117.1 667.5,118.2 668.1,116.0 668.8,118.4 669.4,114.9 670.0,110.3 670.6,110.5 671.2,103.7 671.8,104.7 672.4,110.4 673.1,105.1 673.7,103.9 674.3,103.8 674.9,103.8 675.5,99.8 676.1,92.2 676.7,88.5 677.4,90.0 678.0,86.6 678.6,90.3 679.2,86.3 679.8,81.8 680.4,83.1 681.0,88.4 681.7,89.4 682.3,90.8 682.9,94.8 683.5,98.3 684.1,94.1 684.7,87.4 685.3,85.6 686.0,87.9 686.6,89.7 687.2,91.8 687.8,89.4 688.4,83.2 689.0,84.2 689.7,76.5 690.3,83.9 690.9,87.9 691.5,89.9 692.1,92.6 692.7,94.3 693.3,101.9 694.0,104.6 694.6,103.4 695.2,101.7 695.8,105.3 696.4,108.3 697.0,109.8 697.6,102.1 698.3,103.3 698.9,102.1 699.5,102.9 700.1,102.1 700.7,111.4 701.3,107.6 701.9,104.5 702.6,106.7 703.2,104.6 703.8,104.0 704.4,107.7 705.0,107.6 705.6,112.8 706.2,119.7 706.9,118.0 707.5,122.5 708.1,119.2 708.7,113.1 709.3,110.1 709.9,110.1 710.6,110.2 711.2,112.5 711.8,113.8 712.4,115.4 713.0,116.2 713.6,109.3 714.2,102.4 714.9,105.2 715.5,108.0 716.1,105.5 716.7,105.0 717.3,100.0 717.9,97.1 718.5,97.2 719.2,98.3 719.8,92.2 720.4,95.8 721.0,96.6 721.6,97.9 722.2,93.3 722.8,97.8 723.5,90.1 724.1,87.4 724.7,90.2 725.3,96.3 725.9,97.0 726.5,95.6 727.2,106.4 727.8,113.2 728.4,110.4 729.0,104.9 729.6,109.0 730.2,109.3 730.8,112.9 731.5,109.9 732.1,111.6 732.7,110.1 733.3,108.5 733.9,113.0 734.5,109.7 735.1,105.7 735.8,107.5 736.4,107.3 737.0,111.6 737.6,111.0 738.2,114.6 738.8,107.8 739.4,112.8 740.1,117.8 740.7,114.6 741.3,115.7 741.9,110.2 742.5,111.0 743.1,110.8 743.7,106.4 744.4,108.9 745.0,109.9 745.6,110.6 746.2,111.1 746.8,110.0 747.4,111.4 748.1,111.0 748.7,116.7 749.3,120.3 749.9,126.2 750.5,121.6 751.1,121.9 751.7,120.8 752.4,120.3 753.0,119.3 753.6,117.6 754.2,117.2 754.8,113.9 755.4,108.8 756.0,103.4 756.7,101.7 757.3,103.0 757.9,102.5 758.5,101.8 759.1,106.1 759.7,102.2 760.3,98.1 761.0,99.6 761.6,102.2 762.2,107.0 762.8,109.0 763.4,105.7 764.0,105.5 764.6,101.0 765.3,95.3 765.9,89.2 766.5,93.1 767.1,89.0 767.7,94.8 768.3,93.4 769.0,94.8 769.6,91.6 770.2,97.1 770.8,99.8 771.4,103.0 772.0,97.4 772.6,91.9 773.3,93.1 773.9,90.3 774.5,83.2 775.1,86.4 775.7,86.9 776.3,85.3 776.9,84.2 777.6,85.2 778.2,88.4 778.8,95.7 779.4,90.9 780.0,96.0 780.6,98.7 781.2,93.3 781.9,90.3 782.5,89.3 783.1,90.9 783.7,91.9 784.3,90.1 784.9,93.1 785.5,95.3 786.2,100.0 786.8,103.0 787.4,103.6 788.0,105.2 788.6,105.4 789.2,108.4 789.9,114.6 790.5,107.7 791.1,113.2 791.7,108.9 792.3,110.6 792.9,111.4 793.5,114.4 794.2,115.0 794.8,115.4 795.4,120.7 796.0,122.7"/><polyline fill="none" stroke="#16a34a" stroke-width="3" points="78.0,140.7 78.6,143.2 79.2,139.9 79.8,145.0 80.5,149.2 81.1,151.8 81.7,154.9 82.3,154.7 82.9,157.5 83.5,156.5 84.1,160.3 84.8,166.6 85.4,166.9 86.0,163.9 86.6,166.3 87.2,168.7 87.8,170.5 88.5,174.1 89.1,176.3 89.7,173.0 90.3,172.0 90.9,158.9 91.5,160.1 92.1,158.0 92.8,161.3 93.4,160.6 94.0,165.1 94.6,161.9 95.2,162.3 95.8,161.6 96.4,164.0 97.1,167.4 97.7,174.3 98.3,176.3 98.9,178.4 99.5,180.8 100.1,184.9 100.7,179.3 101.4,178.9 102.0,180.5 102.6,179.2 103.2,184.5 103.8,182.9 104.4,183.7 105.0,193.5 105.7,195.1 106.3,193.7 106.9,187.0 107.5,190.2 108.1,185.7 108.7,175.5 109.4,172.8 110.0,178.5 110.6,178.5 111.2,175.6 111.8,166.9 112.4,170.7 113.0,171.0 113.7,169.2 114.3,169.0 114.9,171.7 115.5,170.0 116.1,169.0 116.7,173.8 117.3,174.0 118.0,171.5 118.6,174.6 119.2,172.7 119.8,170.2 120.4,168.3 121.0,167.8 121.6,166.7 122.3,169.3 122.9,170.4 123.5,170.2 124.1,168.2 124.7,163.1 125.3,158.6 125.9,160.1 126.6,166.9 127.2,171.7 127.8,169.6 128.4,170.3 129.0,175.5 129.6,176.0 130.3,171.4 130.9,170.4 131.5,172.8 132.1,170.6 132.7,172.7 133.3,166.0 133.9,164.9 134.6,165.7 135.2,165.3 135.8,165.8 136.4,167.5 137.0,171.0 137.6,172.1 138.2,173.4 138.9,176.0 139.5,177.0 140.1,175.6 140.7,179.2 141.3,184.8 141.9,184.7 142.5,185.1 143.2,187.9 143.8,187.4 144.4,184.4 145.0,190.6 145.6,191.1 146.2,191.9 146.8,199.0 147.5,197.1 148.1,194.0 148.7,190.3 149.3,192.1 149.9,194.0 150.5,200.1 151.2,205.9 151.8,212.1 152.4,214.5 153.0,205.7 153.6,231.3 154.2,220.6 154.8,223.7 155.5,213.3 156.1,217.5 156.7,222.3 157.3,229.3 157.9,226.6 158.5,222.7 159.1,222.1 159.8,220.4 160.4,222.4 161.0,220.2 161.6,225.8 162.2,224.6 162.8,227.4 163.4,226.5 164.1,231.1 164.7,232.2 165.3,241.9 165.9,244.6 166.5,244.4 167.1,245.3 167.8,246.5 168.4,249.6 169.0,254.2 169.6,257.2 170.2,258.0 170.8,251.5 171.4,257.1 172.1,255.3 172.7,252.7 173.3,248.6 173.9,252.0 174.5,253.5 175.1,248.0 175.7,245.3 176.4,250.4 177.0,254.7 177.6,254.4 178.2,256.5 178.8,254.4 179.4,256.0 180.0,250.4 180.7,242.6 181.3,241.0 181.9,246.0 182.5,249.1 183.1,249.9 183.7,243.3 184.3,243.1 185.0,243.1 185.6,242.1 186.2,242.6 186.8,232.4 187.4,236.9 188.0,233.1 188.7,225.5 189.3,226.3 189.9,221.7 190.5,217.8 191.1,220.3 191.7,221.2 192.3,221.8 193.0,226.6 193.6,222.4 194.2,229.6 194.8,228.9 195.4,227.2 196.0,229.1 196.6,230.1 197.3,232.1 197.9,234.3 198.5,233.3 199.1,241.9 199.7,242.6 200.3,241.6 200.9,241.4 201.6,238.6 202.2,240.4 202.8,234.7 203.4,234.0 204.0,239.1 204.6,236.3 205.2,236.2 205.9,229.4 206.5,238.2 207.1,241.9 207.7,242.7 208.3,242.1 208.9,247.5 209.6,250.2 210.2,247.4 210.8,246.0 211.4,245.9 212.0,240.9 212.6,242.0 213.2,237.7 213.9,236.2 214.5,237.3 215.1,246.9 215.7,249.1 216.3,251.7 216.9,249.9 217.5,247.9 218.2,251.9 218.8,248.9 219.4,251.2 220.0,253.7 220.6,257.2 221.2,258.5 221.8,260.6 222.5,252.0 223.1,248.6 223.7,252.2 224.3,250.7 224.9,252.1 225.5,252.0 226.1,261.2 226.8,267.7 227.4,263.0 228.0,263.0 228.6,269.4 229.2,277.4 229.8,271.7 230.5,259.5 231.1,268.7 231.7,271.2 232.3,276.4 232.9,283.5 233.5,284.9 234.1,296.1 234.8,296.9 235.4,291.6 236.0,292.1 236.6,296.9 237.2,299.1 237.8,298.3 238.4,295.4 239.1,294.3 239.7,294.0 240.3,297.6 240.9,301.5 241.5,303.1 242.1,301.9 242.7,301.5 243.4,303.9 244.0,302.3 244.6,305.2 245.2,302.7 245.8,304.7 246.4,301.9 247.0,304.3 247.7,313.9 248.3,311.0 248.9,312.0 249.5,317.5 250.1,315.4 250.7,308.2 251.4,311.0 252.0,306.9 252.6,305.2 253.2,306.9 253.8,305.2 254.4,293.3 255.0,296.9 255.7,291.9 256.3,286.8 256.9,283.2 257.5,284.1 258.1,285.5 258.7,282.3 259.3,277.2 260.0,276.6 260.6,277.4 261.2,276.9 261.8,279.4 262.4,279.3 263.0,277.9 263.6,277.9 264.3,270.8 264.9,275.2 265.5,276.0 266.1,277.9 266.7,279.7 267.3,285.8 268.0,289.0 268.6,278.2 269.2,267.8 269.8,238.9 270.4,240.6 271.0,246.3 271.6,253.4 272.3,254.4 272.9,258.7 273.5,262.4 274.1,264.0 274.7,263.4 275.3,264.0 275.9,269.2 276.6,266.6 277.2,266.1 277.8,263.8 278.4,268.3 279.0,271.7 279.6,267.6 280.2,266.1 280.9,265.3 281.5,264.4 282.1,259.3 282.7,259.3 283.3,258.5 283.9,253.2 284.5,260.0 285.2,255.3 285.8,260.2 286.4,264.4 287.0,263.4 287.6,258.9 288.2,259.3 288.9,257.8 289.5,259.3 290.1,260.6 290.7,263.0 291.3,259.1 291.9,252.7 292.5,244.1 293.2,247.9 293.8,239.9 294.4,235.8 295.0,238.4 295.6,234.5 296.2,238.6 296.8,243.0 297.5,243.1 298.1,241.4 298.7,243.0 299.3,239.5 299.9,239.5 300.5,242.7 301.1,247.5 301.8,244.1 302.4,248.0 303.0,249.1 303.6,246.6 304.2,253.9 304.8,245.6 305.4,244.1 306.1,250.5 306.7,247.2 307.3,243.3 307.9,243.8 308.5,242.7 309.1,243.7 309.8,243.4 310.4,242.1 311.0,246.2 311.6,246.8 312.2,250.4 312.8,250.7 313.4,247.2 314.1,249.1 314.7,248.9 315.3,250.2 315.9,256.0 316.5,251.5 317.1,251.9 317.7,249.1 318.4,248.0 319.0,246.5 319.6,248.9 320.2,250.5 320.8,253.5 321.4,251.5 322.0,240.8 322.7,241.6 323.3,235.2 323.9,234.8 324.5,239.9 325.1,236.3 325.7,237.6 326.3,232.9 327.0,234.1 327.6,223.1 328.2,221.2 328.8,219.0 329.4,213.9 330.0,210.8 330.7,213.2 331.3,211.5 331.9,205.4 332.5,210.0 333.1,210.9 333.7,213.5 334.3,207.3 335.0,213.3 335.6,213.1 336.2,213.7 336.8,214.6 337.4,213.1 338.0,217.5 338.6,215.2 339.3,214.0 339.9,217.6 340.5,219.0 341.1,222.4 341.7,224.1 342.3,226.0 342.9,221.9 343.6,224.8 344.2,224.8 344.8,223.1 345.4,228.5 346.0,229.4 346.6,231.6 347.2,234.2 347.9,237.2 348.5,239.1 349.1,240.2 349.7,236.6 350.3,238.6 350.9,240.2 351.6,238.5 352.2,227.5 352.8,226.6 353.4,231.7 354.0,235.4 354.6,237.2 355.2,236.2 355.9,236.3 356.5,234.0 357.1,240.2 357.7,237.3 358.3,236.9 358.9,230.0 359.5,236.2 360.2,232.9 360.8,235.4 361.4,239.8 362.0,244.7 362.6,245.1 363.2,245.9 363.8,249.3 364.5,248.5 365.1,246.0 365.7,246.9 366.3,248.6 366.9,254.4 367.5,253.2 368.2,256.2 368.8,250.9 369.4,253.9 370.0,254.1 370.6,254.9 371.2,257.1 371.8,258.2 372.5,253.4 373.1,250.2 373.7,255.6 374.3,257.1 374.9,256.3 375.5,255.3 376.1,250.2 376.8,252.4 377.4,257.8 378.0,255.3 378.6,258.7 379.2,257.4 379.8,258.2 380.4,250.5 381.1,250.4 381.7,252.9 382.3,253.0 382.9,257.4 383.5,259.5 384.1,259.7 384.7,259.1 385.4,260.6 386.0,256.9 386.6,261.8 387.2,262.2 387.8,260.0 388.4,261.4 389.1,256.0 389.7,249.6 390.3,245.6 390.9,237.7 391.5,232.0 392.1,230.9 392.7,224.0 393.4,226.0 394.0,224.1 394.6,225.8 395.2,221.7 395.8,221.6 396.4,230.0 397.0,228.5 397.7,221.9 398.3,221.1 398.9,219.8 399.5,219.8 400.1,222.5 400.7,224.4 401.3,205.9 402.0,201.1 402.6,198.3 403.2,193.6 403.8,200.0 404.4,210.0 405.0,212.8 405.6,215.0 406.3,213.3 406.9,218.1 407.5,216.0 408.1,219.1 408.7,215.8 409.3,219.5 410.0,228.5 410.6,232.3 411.2,233.5 411.8,238.2 412.4,238.4 413.0,238.6 413.6,240.6 414.3,242.7 414.9,241.9 415.5,239.0 416.1,236.3 416.7,238.2 417.3,243.8 417.9,246.3 418.6,245.7 419.2,247.9 419.8,245.0 420.4,241.0 421.0,229.0 421.6,220.4 422.2,211.7 422.9,211.8 423.5,201.6 424.1,205.5 424.7,212.7 425.3,212.2 425.9,214.1 426.5,214.2 427.2,218.2 427.8,211.9 428.4,213.0 429.0,219.4 429.6,220.8 430.2,219.9 430.9,222.7 431.5,229.1 432.1,225.8 432.7,226.2 433.3,226.3 433.9,229.2 434.5,230.9 435.2,231.3 435.8,235.3 436.4,234.8 437.0,234.7 437.6,236.2 438.2,223.0 438.8,223.2 439.5,229.6 440.1,223.9 440.7,222.8 441.3,226.1 441.9,225.8 442.5,215.6 443.1,220.9 443.8,224.1 444.4,222.1 445.0,223.7 445.6,225.7 446.2,230.0 446.8,231.3 447.5,230.5 448.1,234.2 448.7,238.2 449.3,238.0 449.9,236.1 450.5,233.8 451.1,230.7 451.8,224.6 452.4,223.9 453.0,227.4 453.6,228.2 454.2,229.2 454.8,233.7 455.4,238.1 456.1,238.2 456.7,235.2 457.3,233.3 457.9,226.8 458.5,229.3 459.1,228.7 459.7,228.9 460.4,232.5 461.0,231.8 461.6,231.6 462.2,227.9 462.8,221.5 463.4,219.7 464.0,216.6 464.7,208.0 465.3,205.4 465.9,210.6 466.5,204.8 467.1,204.4 467.7,205.5 468.4,208.0 469.0,205.1 469.6,203.6 470.2,197.7 470.8,196.6 471.4,189.6 472.0,188.2 472.7,189.3 473.3,179.2 473.9,173.9 474.5,173.3 475.1,175.3 475.7,170.3 476.3,172.3 477.0,172.5 477.6,175.1 478.2,177.9 478.8,176.3 479.4,179.5 480.0,181.8 480.6,184.2 481.3,177.9 481.9,170.6 482.5,170.7 483.1,168.1 483.7,169.6 484.3,177.1 484.9,176.7 485.6,184.7 486.2,179.3 486.8,180.8 487.4,179.2 488.0,184.4 488.6,189.8 489.3,184.2 489.9,182.8 490.5,186.3 491.1,189.9 491.7,194.4 492.3,193.7 492.9,192.7 493.6,194.7 494.2,190.7 494.8,195.2 495.4,199.4 496.0,201.0 496.6,204.2 497.2,213.1 497.9,206.5 498.5,207.2 499.1,206.7 499.7,208.4 500.3,209.2 500.9,207.5 501.5,203.8 502.2,202.8 502.8,202.7 503.4,199.0 504.0,202.9 504.6,199.4 505.2,202.7 505.8,204.6 506.5,207.9 507.1,200.1 507.7,204.3 508.3,212.0 508.9,213.5 509.5,213.0 510.2,215.9 510.8,210.1 511.4,207.0 512.0,207.0 512.6,208.1 513.2,206.8 513.8,205.6 514.5,203.4 515.1,205.6 515.7,205.1 516.3,207.2 516.9,204.1 517.5,197.1 518.1,198.7 518.8,196.2 519.4,197.9 520.0,200.6 520.6,205.6 521.2,205.1 521.8,204.8 522.4,199.0 523.1,201.2 523.7,203.3 524.3,207.2 524.9,208.6 525.5,205.5 526.1,200.0 526.8,198.7 527.4,194.8 528.0,197.3 528.6,194.0 529.2,193.2 529.8,195.3 530.4,199.0 531.1,195.5 531.7,195.5 532.3,186.2 532.9,188.0 533.5,189.3 534.1,196.3 534.7,196.7 535.4,200.2 536.0,197.4 536.6,185.5 537.2,184.6 537.8,185.7 538.4,177.4 539.0,178.9 539.7,186.3 540.3,189.2 540.9,187.4 541.5,189.7 542.1,188.8 542.7,190.5 543.3,192.7 544.0,186.8 544.6,188.8 545.2,193.6 545.8,178.9 546.4,174.1 547.0,177.9 547.7,176.6 548.3,171.0 548.9,171.5 549.5,166.8 550.1,170.1 550.7,174.7 551.3,173.7 552.0,174.4 552.6,175.8 553.2,172.5 553.8,173.2 554.4,180.2 555.0,183.6 555.6,181.7 556.3,184.4 556.9,181.7 557.5,184.0 558.1,187.2 558.7,191.4 559.3,192.1 559.9,188.5 560.6,184.0 561.2,181.9 561.8,183.8 562.4,188.3 563.0,185.7 563.6,188.5 564.2,185.8 564.9,182.9 565.5,183.4 566.1,180.8 566.7,186.7 567.3,182.4 567.9,179.5 568.6,174.9 569.2,190.6 569.8,190.6 570.4,191.2 571.0,189.4 571.6,189.8 572.2,187.4 572.9,187.4 573.5,185.3 574.1,182.7 574.7,178.6 575.3,176.9 575.9,178.8 576.5,176.2 577.2,175.9 577.8,176.2 578.4,176.4 579.0,176.3 579.6,179.1 580.2,186.3 580.8,190.2 581.5,198.4 582.1,200.3 582.7,204.6 583.3,202.0 583.9,206.7 584.5,207.0 585.1,203.2 585.8,206.4 586.4,205.8 587.0,214.3 587.6,210.8 588.2,210.8 588.8,213.2 589.5,209.5 590.1,208.4 590.7,214.6 591.3,209.6 591.9,209.5 592.5,210.0 593.1,205.9 593.8,208.0 594.4,213.5 595.0,215.7 595.6,219.2 596.2,219.0 596.8,214.1 597.4,213.1 598.1,219.5 598.7,220.4 599.3,221.0 599.9,226.8 600.5,220.8 601.1,224.9 601.7,223.4 602.4,222.2 603.0,225.3 603.6,225.1 604.2,223.8 604.8,224.6 605.4,219.3 606.0,218.9 606.7,217.1 607.3,215.0 607.9,216.3 608.5,217.4 609.1,218.8 609.7,216.5 610.4,215.1 611.0,218.1 611.6,215.3 612.2,214.7 612.8,212.1 613.4,210.8 614.0,207.2 614.7,202.8 615.3,203.8 615.9,205.4 616.5,200.8 617.1,200.0 617.7,199.5 618.3,197.7 619.0,195.3 619.6,196.3 620.2,195.5 620.8,197.9 621.4,199.6 622.0,201.0 622.6,198.7 623.3,197.7 623.9,194.4 624.5,197.3 625.1,192.5 625.7,189.2 626.3,188.4 627.0,189.4 627.6,190.1 628.2,192.0 628.8,188.9 629.4,192.4 630.0,192.2 630.6,188.5 631.3,187.5 631.9,183.0 632.5,181.4 633.1,175.8 633.7,172.1 634.3,169.9 634.9,167.4 635.6,165.8 636.2,161.8 636.8,161.3 637.4,161.5 638.0,161.3 638.6,161.1 639.2,163.8 639.9,160.2 640.5,161.6 641.1,160.1 641.7,157.8 642.3,158.1 642.9,157.5 643.5,156.1 644.2,154.9 644.8,157.5 645.4,158.8 646.0,162.6 646.6,165.3 647.2,164.1 647.9,164.2 648.5,166.7 649.1,162.9 649.7,163.0 650.3,156.9 650.9,156.2 651.5,156.5 652.2,158.0 652.8,158.5 653.4,158.8 654.0,154.7 654.6,152.9 655.2,150.0 655.8,155.7 656.5,152.7 657.1,153.2 657.7,148.1 658.3,143.8 658.9,144.1 659.5,145.7 660.1,144.0 660.8,136.2 661.4,130.8 662.0,132.6 662.6,136.9 663.2,136.9 663.8,136.8 664.4,128.8 665.1,122.7 665.7,124.0 666.3,122.2 666.9,117.1 667.5,118.2 668.1,116.0 668.8,118.4 669.4,114.9 670.0,110.3 670.6,110.5 671.2,103.7 671.8,104.7 672.4,110.4 673.1,105.1 673.7,103.9 674.3,103.8 674.9,103.8 675.5,99.8 676.1,92.2 676.7,88.5 677.4,90.0 678.0,86.6 678.6,90.3 679.2,86.3 679.8,81.8 680.4,83.1 681.0,88.4 681.7,89.4 682.3,90.8 682.9,94.8 683.5,98.3 684.1,94.1 684.7,87.4 685.3,85.6 686.0,87.9 686.6,89.7 687.2,91.8 687.8,89.4 688.4,83.2 689.0,84.2 689.7,76.5 690.3,83.9 690.9,87.9 691.5,89.9 692.1,92.6 692.7,94.3 693.3,101.9 694.0,104.6 694.6,103.4 695.2,101.7 695.8,105.3 696.4,108.3 697.0,109.8 697.6,102.1 698.3,103.3 698.9,102.1 699.5,102.9 700.1,102.1 700.7,111.4 701.3,107.6 701.9,104.5 702.6,106.7 703.2,104.6 703.8,104.0 704.4,107.7 705.0,107.6 705.6,112.8 706.2,119.7 706.9,118.0 707.5,122.5 708.1,119.2 708.7,113.1 709.3,110.1 709.9,110.1 710.6,110.2 711.2,112.5 711.8,113.8 712.4,115.4 713.0,116.2 713.6,109.3 714.2,102.4 714.9,105.2 715.5,108.0 716.1,105.5 716.7,105.0 717.3,100.0 717.9,97.1 718.5,97.2 719.2,98.3 719.8,92.2 720.4,95.8 721.0,96.6 721.6,97.9 722.2,93.3 722.8,97.8 723.5,90.1 724.1,87.4 724.7,90.2 725.3,96.3 725.9,97.0 726.5,95.6 727.2,106.4 727.8,113.2 728.4,110.4 729.0,104.9 729.6,109.0 730.2,109.3 730.8,112.9 731.5,109.9 732.1,111.6 732.7,110.1 733.3,108.5 733.9,113.0 734.5,109.7 735.1,105.7 735.8,107.5 736.4,107.3 737.0,111.6 737.6,111.0 738.2,114.6 738.8,107.8 739.4,112.8 740.1,117.8 740.7,114.6 741.3,115.7 741.9,110.2 742.5,111.0 743.1,110.8 743.7,106.4 744.4,108.9 745.0,109.9 745.6,110.6 746.2,111.1 746.8,110.0 747.4,111.4 748.1,111.0 748.7,116.7 749.3,120.3 749.9,126.2 750.5,121.6 751.1,121.9 751.7,120.8 752.4,120.3 753.0,119.3 753.6,117.6 754.2,117.2 754.8,113.9 755.4,108.8 756.0,103.4 756.7,101.7 757.3,103.0 757.9,102.5 758.5,101.8 759.1,106.1 759.7,102.2 760.3,98.1 761.0,99.6 761.6,102.2 762.2,107.0 762.8,109.0 763.4,105.7 764.0,105.5 764.6,101.0 765.3,95.3 765.9,89.2 766.5,93.1 767.1,89.0 767.7,94.8 768.3,93.4 769.0,94.8 769.6,91.6 770.2,97.1 770.8,99.8 771.4,103.0 772.0,97.4 772.6,91.9 773.3,93.1 773.9,90.3 774.5,83.2 775.1,86.4 775.7,86.9 776.3,85.3 776.9,84.2 777.6,85.2 778.2,88.4 778.8,95.7 779.4,90.9 780.0,96.0 780.6,98.7 781.2,93.3 781.9,90.3 782.5,89.3 783.1,90.9 783.7,91.9 784.3,90.1 784.9,93.1 785.5,95.3 786.2,100.0 786.8,103.0 787.4,103.6 788.0,105.2 788.6,105.4 789.2,108.4 789.9,114.6 790.5,107.7 791.1,113.2 791.7,108.9 792.3,110.6 792.9,111.4 793.5,114.4 794.2,115.0 794.8,115.4 795.4,120.7 796.0,122.7"/>
<text x="78" y="392" font-size="11" fill="#16a34a">Total return +37.5%</text><text x="268" y="392" font-size="11" fill="#2563eb">Price-only +37.5%</text><text x="78" y="362" font-size="11" text-anchor="middle" fill="#64748b">2021-11</text><text x="258" y="362" font-size="11" text-anchor="middle" fill="#64748b">2023-01</text><text x="437" y="362" font-size="11" text-anchor="middle" fill="#64748b">2024-03</text><text x="616" y="362" font-size="11" text-anchor="middle" fill="#64748b">2025-05</text><text x="796" y="362" font-size="11" text-anchor="middle" fill="#64748b">2026-07</text></svg>