<svg xmlns="http://www.w3.org/2000/svg" width="820" height="410" viewBox="0 0 820 410">
<rect width="820" height="410" fill="#fafafa"/><text x="78" y="22" font-size="14" font-family="sans-serif" fill="#0f172a">APLD cumulative return since 2022-04-13 | dividends reinvested</text>
<text x="78" y="40" font-size="11" font-family="sans-serif" fill="#334155">Total return +498.6% | Price-only +498.6% | logarithmic scale</text>
<text x="78" y="54" font-size="9" font-family="sans-serif" fill="#64748b">Regular $0.00 | Special $0.00 | Other $0.00 per initial share path</text>
<line x1="78" y1="332.0" x2="796" y2="332.0" stroke="#e2e8f0"/><text x="70" y="336.0" font-size="10" text-anchor="end" fill="#64748b">-85.8%</text><line x1="78" y1="287.0" x2="796" y2="287.0" stroke="#e2e8f0"/><text x="70" y="291.0" font-size="10" text-anchor="end" fill="#64748b">-69.8%</text><line x1="78" y1="242.0" x2="796" y2="242.0" stroke="#e2e8f0"/><text x="70" y="246.0" font-size="10" text-anchor="end" fill="#64748b">-35.8%</text><line x1="78" y1="215.5" x2="796" y2="215.5" stroke="#e2e8f0"/><text x="70" y="219.5" font-size="10" text-anchor="end" fill="#64748b">0%</text><line x1="78" y1="197.0" x2="796" y2="197.0" stroke="#e2e8f0"/><text x="70" y="201.0" font-size="10" text-anchor="end" fill="#64748b">+36.3%</text><line x1="78" y1="152.0" x2="796" y2="152.0" stroke="#e2e8f0"/><text x="70" y="156.0" font-size="10" text-anchor="end" fill="#64748b">+189.3%</text><line x1="78" y1="107.0" x2="796" y2="107.0" stroke="#e2e8f0"/><text x="70" y="111.0" font-size="10" text-anchor="end" fill="#64748b">+514.2%</text><line x1="78" y1="62.0" x2="796" y2="62.0" stroke="#e2e8f0"/><text x="70" y="66.0" font-size="10" text-anchor="end" fill="#64748b">+1,204%</text>
<line x1="78" y1="332" x2="796" y2="332" stroke="#cbd5e1"/>
<polyline fill="none" stroke="#2563eb" stroke-width="2" points="78.0,215.5 78.7,216.4 79.3,220.0 80.0,216.8 80.7,217.4 81.4,225.4 82.0,226.7 82.7,227.0 83.4,230.1 84.1,233.7 84.7,236.2 85.4,237.4 86.1,245.2 86.8,245.2 87.4,240.0 88.1,237.3 88.8,234.3 89.5,247.9 90.1,253.0 90.8,256.3 91.5,274.8 92.2,274.8 92.8,263.3 93.5,255.1 94.2,254.2 94.9,242.5 95.5,232.5 96.2,234.0 96.9,232.3 97.6,230.6 98.2,230.1 98.9,218.7 99.6,215.8 100.2,215.4 100.9,216.1 101.6,222.0 102.3,230.2 102.9,229.5 103.6,227.3 104.3,235.9 105.0,249.6 105.6,294.2 106.3,308.1 107.0,309.3 107.7,308.1 108.3,305.3 109.0,298.5 109.7,299.0 110.4,304.7 111.0,300.5 111.7,305.8 112.4,301.5 113.1,304.2 113.7,307.0 114.4,312.0 115.1,308.7 115.8,310.6 116.4,304.2 117.1,306.4 117.8,306.4 118.5,310.7 119.1,317.5 119.8,316.3 120.5,307.5 121.1,306.4 121.8,265.0 122.5,255.4 123.2,261.4 123.8,264.7 124.5,270.3 125.2,272.8 125.9,263.9 126.5,262.8 127.2,265.0 127.9,261.4 128.6,258.6 129.2,259.6 129.9,263.3 130.6,267.6 131.3,263.0 131.9,266.4 132.6,265.3 133.3,264.1 134.0,263.3 134.6,260.4 135.3,263.3 136.0,265.0 136.7,267.0 137.3,269.4 138.0,271.8 138.7,271.2 139.4,269.1 140.0,270.9 140.7,266.7 141.4,264.4 142.0,266.1 142.7,258.3 143.4,263.0 144.1,261.7 144.7,265.5 145.4,265.3 146.1,265.8 146.8,261.2 147.4,259.6 148.1,265.8 148.8,265.3 149.5,269.1 150.1,264.1 150.8,266.1 151.5,266.7 152.2,270.9 152.8,276.1 153.5,282.2 154.2,282.2 154.9,277.1 155.5,276.8 156.2,281.8 156.9,278.2 157.6,277.1 158.2,277.1 158.9,280.0 159.6,281.1 160.2,283.7 160.9,281.8 161.6,278.9 162.3,276.8 162.9,270.6 163.6,270.6 164.3,267.3 165.0,265.3 165.6,265.5 166.3,267.0 167.0,268.2 167.7,266.4 168.3,262.5 169.0,262.8 169.7,262.8 170.4,262.2 171.0,261.4 171.7,260.4 172.4,261.2 173.1,261.4 173.7,257.3 174.4,254.4 175.1,258.6 175.8,269.4 176.4,265.5 177.1,259.1 177.8,258.8 178.5,256.3 179.1,255.8 179.8,256.8 180.5,262.8 181.1,264.4 181.8,265.3 182.5,261.7 183.2,261.7 183.8,268.5 184.5,268.2 185.2,270.0 185.9,271.2 186.5,271.8 187.2,270.9 187.9,274.8 188.6,281.8 189.2,280.3 189.9,282.2 190.6,278.2 191.3,281.8 191.9,280.7 192.6,281.4 193.3,281.4 194.0,285.3 194.6,281.4 195.3,277.8 196.0,270.9 196.7,270.9 197.3,273.8 198.0,275.8 198.7,272.2 199.4,273.4 200.0,273.4 200.7,273.8 201.4,275.1 202.0,272.8 202.7,266.1 203.4,263.6 204.1,265.5 204.7,262.8 205.4,264.4 206.1,261.4 206.8,258.6 207.4,257.1 208.1,257.6 208.8,259.1 209.5,254.9 210.1,255.6 210.8,252.1 211.5,240.4 212.2,240.4 212.8,242.3 213.5,238.9 214.2,238.0 214.9,238.7 215.5,240.2 216.2,238.2 216.9,236.6 217.6,241.7 218.2,241.1 218.9,243.7 219.6,245.2 220.3,242.6 220.9,244.2 221.6,241.7 222.3,246.9 222.9,246.2 223.6,247.3 224.3,252.3 225.0,252.8 225.6,251.6 226.3,250.3 227.0,252.1 227.7,251.0 228.3,254.9 229.0,257.8 229.7,261.4 230.4,267.7 231.0,272.5 231.7,271.5 232.4,270.0 233.1,269.7 233.7,268.8 234.4,268.5 235.1,267.6 235.8,262.5 236.4,265.0 237.1,266.4 237.8,267.0 238.5,266.7 239.1,267.3 239.8,265.8 240.5,263.0 241.2,261.7 241.8,258.8 242.5,262.2 243.2,264.1 243.8,255.1 244.5,251.9 245.2,243.6 245.9,241.3 246.5,234.3 247.2,234.4 247.9,231.2 248.6,234.5 249.2,235.7 249.9,239.8 250.6,240.6 251.3,244.4 251.9,243.0 252.6,241.9 253.3,240.4 254.0,240.4 254.6,242.3 255.3,240.9 256.0,241.9 256.7,239.6 257.3,236.9 258.0,236.9 258.7,236.6 259.4,232.3 260.0,235.2 260.7,246.7 261.4,236.5 262.1,201.7 262.7,193.1 263.4,190.3 264.1,181.5 264.7,182.6 265.4,186.0 266.1,178.0 266.8,179.4 267.4,186.1 268.1,177.0 268.8,182.9 269.5,177.2 270.1,177.0 270.8,176.3 271.5,174.1 272.2,179.6 272.8,176.8 273.5,185.6 274.2,180.7 274.9,179.8 275.5,179.8 276.2,175.7 276.9,178.9 277.6,176.7 278.2,177.8 278.9,174.3 279.6,184.9 280.3,177.3 280.9,190.5 281.6,187.6 282.3,183.1 283.0,176.3 283.6,172.8 284.3,178.7 285.0,187.9 285.6,182.9 286.3,183.5 287.0,182.4 287.7,185.9 288.3,184.9 289.0,189.7 289.7,189.2 290.4,185.3 291.0,182.7 291.7,187.6 292.4,187.7 293.1,180.0 293.7,170.8 294.4,172.3 295.1,172.4 295.8,175.9 296.4,174.8 297.1,176.8 297.8,182.7 298.5,185.5 299.1,187.2 299.8,186.3 300.5,188.8 301.2,190.7 301.8,192.3 302.5,193.1 303.2,190.5 303.8,197.5 304.5,198.6 305.2,201.4 305.9,202.8 306.5,203.8 307.2,201.4 307.9,195.5 308.6,203.1 309.2,204.1 309.9,204.9 310.6,201.1 311.3,199.4 311.9,202.4 312.6,205.0 313.3,207.2 314.0,206.5 314.6,210.9 315.3,211.6 316.0,211.2 316.7,208.2 317.3,210.5 318.0,209.1 318.7,210.7 319.4,214.2 320.0,213.8 320.7,210.9 321.4,211.3 322.1,210.3 322.7,208.9 323.4,206.1 324.1,202.2 324.7,199.6 325.4,200.4 326.1,201.5 326.8,209.3 327.4,208.3 328.1,211.3 328.8,211.7 329.5,216.0 330.1,208.9 330.8,210.7 331.5,211.7 332.2,212.2 332.8,208.1 333.5,208.4 334.2,215.4 334.9,213.6 335.5,217.5 336.2,215.6 336.9,212.9 337.6,216.4 338.2,216.8 338.9,216.0 339.6,218.9 340.3,215.1 340.9,214.5 341.6,210.4 342.3,208.4 343.0,209.5 343.6,211.6 344.3,215.0 345.0,216.8 345.6,217.5 346.3,227.9 347.0,221.9 347.7,222.4 348.3,223.0 349.0,226.4 349.7,221.5 350.4,220.4 351.0,219.2 351.7,217.4 352.4,218.4 353.1,215.8 353.7,216.8 354.4,217.8 355.1,211.5 355.8,208.0 356.4,209.3 357.1,206.7 357.8,206.6 358.5,197.3 359.1,202.9 359.8,204.0 360.5,200.9 361.2,197.5 361.8,197.9 362.5,197.0 363.2,195.7 363.9,196.8 364.5,192.8 365.2,192.0 365.9,193.1 366.5,189.1 367.2,191.1 367.9,195.8 368.6,193.9 369.2,195.0 369.9,191.2 370.6,190.5 371.3,188.7 371.9,181.8 372.6,184.0 373.3,186.8 374.0,189.5 374.6,207.7 375.3,212.2 376.0,214.5 376.7,215.4 377.3,215.3 378.0,215.8 378.7,216.4 379.4,211.9 380.0,213.3 380.7,208.4 381.4,209.1 382.1,212.0 382.7,213.6 383.4,217.5 384.1,223.3 384.8,217.6 385.4,216.9 386.1,213.4 386.8,210.5 387.4,215.5 388.1,220.7 388.8,217.1 389.5,214.4 390.1,215.6 390.8,217.0 391.5,221.5 392.2,222.3 392.8,226.4 393.5,222.7 394.2,222.4 394.9,221.5 395.5,224.8 396.2,224.0 396.9,225.4 397.6,225.7 398.2,225.7 398.9,224.7 399.6,218.8 400.3,224.1 400.9,222.7 401.6,218.5 402.3,223.7 403.0,220.0 403.6,223.5 404.3,223.0 405.0,218.0 405.7,219.3 406.3,223.5 407.0,221.2 407.7,222.3 408.3,222.0 409.0,223.0 409.7,225.4 410.4,229.8 411.0,238.0 411.7,239.1 412.4,244.6 413.1,241.8 413.7,247.3 414.4,244.4 415.1,242.8 415.8,250.3 416.4,254.8 417.1,256.3 417.8,257.6 418.5,257.8 419.1,255.8 419.8,250.3 420.5,245.6 421.2,244.6 421.8,244.2 422.5,245.4 423.2,250.3 423.9,250.4 424.5,244.2 425.2,245.0 425.9,243.6 426.6,238.9 427.2,242.3 427.9,238.5 428.6,237.8 429.2,238.3 429.9,235.4 430.6,233.7 431.3,230.1 431.9,232.3 432.6,225.0 433.3,218.9 434.0,221.1 434.6,223.5 435.3,223.4 436.0,218.5 436.7,218.4 437.3,222.3 438.0,224.3 438.7,223.7 439.4,227.6 440.0,223.4 440.7,217.8 441.4,214.7 442.1,220.0 442.7,225.1 443.4,225.0 444.1,225.1 444.8,221.7 445.4,218.0 446.1,208.4 446.8,211.8 447.4,202.4 448.1,207.8 448.8,202.0 449.5,199.6 450.1,202.5 450.8,200.4 451.5,203.3 452.2,198.0 452.8,199.5 453.5,195.6 454.2,194.1 454.9,192.4 455.5,208.3 456.2,204.2 456.9,204.0 457.6,200.8 458.2,195.7 458.9,195.2 459.6,200.8 460.3,206.1 460.9,205.6 461.6,210.1 462.3,213.1 463.0,219.1 463.6,220.7 464.3,220.8 465.0,223.3 465.7,227.3 466.3,215.4 467.0,220.1 467.7,223.5 468.3,227.5 469.0,224.0 469.7,228.5 470.4,225.0 471.0,228.5 471.7,227.3 472.4,227.8 473.1,229.5 473.7,227.0 474.4,226.9 475.1,225.4 475.8,226.6 476.4,224.3 477.1,225.7 477.8,219.3 478.5,214.7 479.1,217.0 479.8,221.2 480.5,229.8 481.2,232.5 481.8,241.3 482.5,239.6 483.2,209.4 483.9,219.3 484.5,197.3 485.2,198.6 485.9,204.1 486.6,202.6 487.2,201.9 487.9,203.9 488.6,204.7 489.2,202.1 489.9,207.3 490.6,202.6 491.3,196.2 491.9,192.9 492.6,188.1 493.3,183.8 494.0,184.2 494.6,183.8 495.3,185.0 496.0,184.2 496.7,185.3 497.3,189.8 498.0,192.7 498.7,186.7 499.4,190.3 500.0,194.5 500.7,191.2 501.4,189.1 502.1,191.1 502.7,185.2 503.4,186.0 504.1,184.3 504.8,180.5 505.4,177.7 506.1,181.2 506.8,183.9 507.5,185.3 508.1,183.6 508.8,186.6 509.5,190.6 510.1,195.7 510.8,198.4 511.5,203.1 512.2,199.2 512.8,193.0 513.5,187.2 514.2,189.0 514.9,188.8 515.5,188.7 516.2,192.1 516.9,194.8 517.6,191.6 518.2,187.5 518.9,177.5 519.6,180.2 520.3,177.6 520.9,173.2 521.6,168.3 522.3,173.8 523.0,174.3 523.6,171.7 524.3,174.6 525.0,174.9 525.7,174.6 526.3,172.0 527.0,168.4 527.7,175.2 528.4,179.0 529.0,180.2 529.7,178.3 530.4,179.2 531.0,172.2 531.7,174.1 532.4,180.2 533.1,185.3 533.7,185.5 534.4,186.2 535.1,180.1 535.8,177.2 536.4,182.7 537.1,185.8 537.8,188.3 538.5,187.1 539.1,177.8 539.8,173.5 540.5,175.8 541.2,180.5 541.8,183.5 542.5,187.4 543.2,181.7 543.9,182.9 544.5,178.7 545.2,179.2 545.9,175.9 546.6,174.4 547.2,176.8 547.9,178.8 548.6,198.2 549.3,197.8 549.9,196.3 550.6,190.4 551.3,192.6 551.9,190.7 552.6,188.0 553.3,184.8 554.0,186.5 554.6,187.2 555.3,184.8 556.0,188.7 556.7,189.0 557.3,186.3 558.0,177.8 558.7,174.5 559.4,172.6 560.0,171.2 560.7,168.5 561.4,178.4 562.1,186.3 562.7,184.8 563.4,186.9 564.1,185.6 564.8,194.6 565.4,194.3 566.1,188.0 566.8,193.6 567.5,191.4 568.1,200.4 568.8,199.2 569.5,196.9 570.2,200.1 570.8,193.6 571.5,190.7 572.2,193.5 572.8,191.4 573.5,191.1 574.2,193.0 574.9,185.7 575.5,189.9 576.2,197.7 576.9,201.8 577.6,205.6 578.2,206.7 578.9,201.9 579.6,200.4 580.3,206.3 580.9,214.7 581.6,210.7 582.3,212.7 583.0,207.8 583.6,212.2 584.3,210.3 585.0,209.4 585.7,236.0 586.3,225.8 587.0,227.8 587.7,227.8 588.4,226.6 589.0,225.8 589.7,219.5 590.4,217.4 591.0,217.3 591.7,220.3 592.4,219.5 593.1,211.2 593.7,210.2 594.4,211.7 595.1,211.2 595.8,210.8 596.4,208.0 597.1,209.2 597.8,210.1 598.5,206.8 599.1,203.0 599.8,207.0 600.5,195.0 601.2,195.1 601.8,195.9 602.5,195.5 603.2,189.6 603.9,190.6 604.5,188.7 605.2,191.3 605.9,193.2 606.6,195.0 607.2,171.4 607.9,170.8 608.6,155.4 609.3,157.6 609.9,152.7 610.6,156.5 611.3,159.0 611.9,161.1 612.6,158.9 613.3,165.6 614.0,163.6 614.6,166.6 615.3,168.7 616.0,170.3 616.7,173.0 617.3,170.4 618.0,173.3 618.7,169.0 619.4,170.0 620.0,171.8 620.7,173.7 621.4,169.0 622.1,169.6 622.7,174.3 623.4,177.1 624.1,175.3 624.8,176.4 625.4,177.4 626.1,175.2 626.8,172.4 627.5,171.9 628.1,167.0 628.8,161.7 629.5,166.1 630.2,166.8 630.8,166.9 631.5,165.5 632.2,167.9 632.8,168.9 633.5,171.5 634.2,172.1 634.9,155.9 635.5,158.8 636.2,152.4 636.9,148.5 637.6,148.9 638.2,151.1 638.9,151.3 639.6,152.0 640.3,148.1 640.9,148.8 641.6,149.8 642.3,151.8 643.0,142.9 643.6,146.7 644.3,145.2 645.0,145.0 645.7,144.0 646.3,144.3 647.0,142.4 647.7,141.6 648.4,142.0 649.0,144.2 649.7,147.0 650.4,150.5 651.1,150.7 651.7,152.6 652.4,152.5 653.1,147.2 653.7,140.6 654.4,139.9 655.1,134.9 655.8,132.8 656.4,132.5 657.1,131.3 657.8,131.1 658.5,129.4 659.1,118.8 659.8,118.3 660.5,121.3 661.2,123.5 661.8,125.9 662.5,124.7 663.2,122.6 663.9,117.5 664.5,114.1 665.2,113.9 665.9,111.3 666.6,112.2 667.2,110.8 667.9,108.0 668.6,99.1 669.3,98.7 669.9,97.3 670.6,92.8 671.3,94.6 672.0,98.7 672.6,95.8 673.3,101.7 674.0,105.4 674.6,100.2 675.3,100.1 676.0,98.5 676.7,98.5 677.3,98.4 678.0,99.2 678.7,97.9 679.4,101.1 680.0,104.5 680.7,100.7 681.4,104.5 682.1,104.7 682.7,103.8 683.4,109.5 684.1,114.2 684.8,122.3 685.4,120.8 686.1,122.6 686.8,122.9 687.5,122.2 688.1,126.9 688.8,127.6 689.5,120.4 690.2,120.6 690.8,117.6 691.5,112.7 692.2,110.3 692.9,110.6 693.5,107.9 694.2,104.4 694.9,104.2 695.5,102.5 696.2,101.3 696.9,104.6 697.6,105.1 698.2,111.0 698.9,122.5 699.6,119.3 700.3,125.1 700.9,120.2 701.6,111.0 702.3,111.2 703.0,115.0 703.6,115.8 704.3,119.8 705.0,117.9 705.7,119.7 706.3,118.6 707.0,110.5 707.7,106.2 708.4,106.1 709.0,107.5 709.7,102.8 710.4,93.0 711.1,92.1 711.7,94.5 712.4,95.5 713.1,97.0 713.8,93.4 714.4,96.6 715.1,97.3 715.8,97.8 716.4,92.9 717.1,95.4 717.8,87.4 718.5,89.1 719.1,92.3 719.8,99.3 720.5,97.7 721.2,94.5 721.8,103.6 722.5,111.0 723.2,97.5 723.9,92.0 724.5,93.3 725.2,94.7 725.9,95.4 726.6,96.9 727.2,99.9 727.9,102.9 728.6,103.6 729.3,108.5 729.9,106.6 730.6,105.3 731.3,108.4 732.0,109.3 732.6,112.3 733.3,110.9 734.0,114.8 734.6,109.3 735.3,110.5 736.0,117.1 736.7,112.8 737.3,112.0 738.0,109.6 738.7,111.8 739.4,112.8 740.0,111.3 740.7,111.8 741.4,113.7 742.1,113.5 742.7,115.3 743.4,112.3 744.1,113.3 744.8,109.9 745.4,115.8 746.1,120.5 746.8,129.2 747.5,120.6 748.1,118.7 748.8,118.5 749.5,117.0 750.2,117.0 750.8,111.2 751.5,116.1 752.2,114.5 752.9,111.6 753.5,103.7 754.2,105.0 754.9,106.4 755.5,103.6 756.2,102.4 756.9,104.0 757.6,101.9 758.2,95.1 758.9,97.4 759.6,99.7 760.3,102.5 760.9,101.5 761.6,98.7 762.3,99.9 763.0,96.3 763.6,89.6 764.3,83.4 765.0,87.1 765.7,87.5 766.3,82.9 767.0,83.8 767.7,81.7 768.4,80.1 769.0,85.7 769.7,90.7 770.4,94.7 771.1,90.1 771.7,78.5 772.4,81.2 773.1,82.2 773.8,77.3 774.4,76.5 775.1,79.4 775.8,78.6 776.4,78.7 777.1,82.7 777.8,83.5 778.5,90.0 779.1,88.0 779.8,86.6 780.5,91.0 781.2,87.2 781.8,85.5 782.5,80.4 783.2,80.7 783.9,81.6 784.5,80.3 785.2,82.1 785.9,82.0 786.6,86.5 787.2,88.0 787.9,90.7 788.6,92.8 789.3,93.6 789.9,96.5 790.6,100.8 791.3,100.0 792.0,105.2 792.6,103.8 793.3,102.2 794.0,104.3 794.7,108.9 795.3,109.7 796.0,108.5"/><polyline fill="none" stroke="#16a34a" stroke-width="3" points="78.0,215.5 78.7,216.4 79.3,220.0 80.0,216.8 80.7,217.4 81.4,225.4 82.0,226.7 82.7,227.0 83.4,230.1 84.1,233.7 84.7,236.2 85.4,237.4 86.1,245.2 86.8,245.2 87.4,240.0 88.1,237.3 88.8,234.3 89.5,247.9 90.1,253.0 90.8,256.3 91.5,274.8 92.2,274.8 92.8,263.3 93.5,255.1 94.2,254.2 94.9,242.5 95.5,232.5 96.2,234.0 96.9,232.3 97.6,230.6 98.2,230.1 98.9,218.7 99.6,215.8 100.2,215.4 100.9,216.1 101.6,222.0 102.3,230.2 102.9,229.5 103.6,227.3 104.3,235.9 105.0,249.6 105.6,294.2 106.3,308.1 107.0,309.3 107.7,308.1 108.3,305.3 109.0,298.5 109.7,299.0 110.4,304.7 111.0,300.5 111.7,305.8 112.4,301.5 113.1,304.2 113.7,307.0 114.4,312.0 115.1,308.7 115.8,310.6 116.4,304.2 117.1,306.4 117.8,306.4 118.5,310.7 119.1,317.5 119.8,316.3 120.5,307.5 121.1,306.4 121.8,265.0 122.5,255.4 123.2,261.4 123.8,264.7 124.5,270.3 125.2,272.8 125.9,263.9 126.5,262.8 127.2,265.0 127.9,261.4 128.6,258.6 129.2,259.6 129.9,263.3 130.6,267.6 131.3,263.0 131.9,266.4 132.6,265.3 133.3,264.1 134.0,263.3 134.6,260.4 135.3,263.3 136.0,265.0 136.7,267.0 137.3,269.4 138.0,271.8 138.7,271.2 139.4,269.1 140.0,270.9 140.7,266.7 141.4,264.4 142.0,266.1 142.7,258.3 143.4,263.0 144.1,261.7 144.7,265.5 145.4,265.3 146.1,265.8 146.8,261.2 147.4,259.6 148.1,265.8 148.8,265.3 149.5,269.1 150.1,264.1 150.8,266.1 151.5,266.7 152.2,270.9 152.8,276.1 153.5,282.2 154.2,282.2 154.9,277.1 155.5,276.8 156.2,281.8 156.9,278.2 157.6,277.1 158.2,277.1 158.9,280.0 159.6,281.1 160.2,283.7 160.9,281.8 161.6,278.9 162.3,276.8 162.9,270.6 163.6,270.6 164.3,267.3 165.0,265.3 165.6,265.5 166.3,267.0 167.0,268.2 167.7,266.4 168.3,262.5 169.0,262.8 169.7,262.8 170.4,262.2 171.0,261.4 171.7,260.4 172.4,261.2 173.1,261.4 173.7,257.3 174.4,254.4 175.1,258.6 175.8,269.4 176.4,265.5 177.1,259.1 177.8,258.8 178.5,256.3 179.1,255.8 179.8,256.8 180.5,262.8 181.1,264.4 181.8,265.3 182.5,261.7 183.2,261.7 183.8,268.5 184.5,268.2 185.2,270.0 185.9,271.2 186.5,271.8 187.2,270.9 187.9,274.8 188.6,281.8 189.2,280.3 189.9,282.2 190.6,278.2 191.3,281.8 191.9,280.7 192.6,281.4 193.3,281.4 194.0,285.3 194.6,281.4 195.3,277.8 196.0,270.9 196.7,270.9 197.3,273.8 198.0,275.8 198.7,272.2 199.4,273.4 200.0,273.4 200.7,273.8 201.4,275.1 202.0,272.8 202.7,266.1 203.4,263.6 204.1,265.5 204.7,262.8 205.4,264.4 206.1,261.4 206.8,258.6 207.4,257.1 208.1,257.6 208.8,259.1 209.5,254.9 210.1,255.6 210.8,252.1 211.5,240.4 212.2,240.4 212.8,242.3 213.5,238.9 214.2,238.0 214.9,238.7 215.5,240.2 216.2,238.2 216.9,236.6 217.6,241.7 218.2,241.1 218.9,243.7 219.6,245.2 220.3,242.6 220.9,244.2 221.6,241.7 222.3,246.9 222.9,246.2 223.6,247.3 224.3,252.3 225.0,252.8 225.6,251.6 226.3,250.3 227.0,252.1 227.7,251.0 228.3,254.9 229.0,257.8 229.7,261.4 230.4,267.7 231.0,272.5 231.7,271.5 232.4,270.0 233.1,269.7 233.7,268.8 234.4,268.5 235.1,267.6 235.8,262.5 236.4,265.0 237.1,266.4 237.8,267.0 238.5,266.7 239.1,267.3 239.8,265.8 240.5,263.0 241.2,261.7 241.8,258.8 242.5,262.2 243.2,264.1 243.8,255.1 244.5,251.9 245.2,243.6 245.9,241.3 246.5,234.3 247.2,234.4 247.9,231.2 248.6,234.5 249.2,235.7 249.9,239.8 250.6,240.6 251.3,244.4 251.9,243.0 252.6,241.9 253.3,240.4 254.0,240.4 254.6,242.3 255.3,240.9 256.0,241.9 256.7,239.6 257.3,236.9 258.0,236.9 258.7,236.6 259.4,232.3 260.0,235.2 260.7,246.7 261.4,236.5 262.1,201.7 262.7,193.1 263.4,190.3 264.1,181.5 264.7,182.6 265.4,186.0 266.1,178.0 266.8,179.4 267.4,186.1 268.1,177.0 268.8,182.9 269.5,177.2 270.1,177.0 270.8,176.3 271.5,174.1 272.2,179.6 272.8,176.8 273.5,185.6 274.2,180.7 274.9,179.8 275.5,179.8 276.2,175.7 276.9,178.9 277.6,176.7 278.2,177.8 278.9,174.3 279.6,184.9 280.3,177.3 280.9,190.5 281.6,187.6 282.3,183.1 283.0,176.3 283.6,172.8 284.3,178.7 285.0,187.9 285.6,182.9 286.3,183.5 287.0,182.4 287.7,185.9 288.3,184.9 289.0,189.7 289.7,189.2 290.4,185.3 291.0,182.7 291.7,187.6 292.4,187.7 293.1,180.0 293.7,170.8 294.4,172.3 295.1,172.4 295.8,175.9 296.4,174.8 297.1,176.8 297.8,182.7 298.5,185.5 299.1,187.2 299.8,186.3 300.5,188.8 301.2,190.7 301.8,192.3 302.5,193.1 303.2,190.5 303.8,197.5 304.5,198.6 305.2,201.4 305.9,202.8 306.5,203.8 307.2,201.4 307.9,195.5 308.6,203.1 309.2,204.1 309.9,204.9 310.6,201.1 311.3,199.4 311.9,202.4 312.6,205.0 313.3,207.2 314.0,206.5 314.6,210.9 315.3,211.6 316.0,211.2 316.7,208.2 317.3,210.5 318.0,209.1 318.7,210.7 319.4,214.2 320.0,213.8 320.7,210.9 321.4,211.3 322.1,210.3 322.7,208.9 323.4,206.1 324.1,202.2 324.7,199.6 325.4,200.4 326.1,201.5 326.8,209.3 327.4,208.3 328.1,211.3 328.8,211.7 329.5,216.0 330.1,208.9 330.8,210.7 331.5,211.7 332.2,212.2 332.8,208.1 333.5,208.4 334.2,215.4 334.9,213.6 335.5,217.5 336.2,215.6 336.9,212.9 337.6,216.4 338.2,216.8 338.9,216.0 339.6,218.9 340.3,215.1 340.9,214.5 341.6,210.4 342.3,208.4 343.0,209.5 343.6,211.6 344.3,215.0 345.0,216.8 345.6,217.5 346.3,227.9 347.0,221.9 347.7,222.4 348.3,223.0 349.0,226.4 349.7,221.5 350.4,220.4 351.0,219.2 351.7,217.4 352.4,218.4 353.1,215.8 353.7,216.8 354.4,217.8 355.1,211.5 355.8,208.0 356.4,209.3 357.1,206.7 357.8,206.6 358.5,197.3 359.1,202.9 359.8,204.0 360.5,200.9 361.2,197.5 361.8,197.9 362.5,197.0 363.2,195.7 363.9,196.8 364.5,192.8 365.2,192.0 365.9,193.1 366.5,189.1 367.2,191.1 367.9,195.8 368.6,193.9 369.2,195.0 369.9,191.2 370.6,190.5 371.3,188.7 371.9,181.8 372.6,184.0 373.3,186.8 374.0,189.5 374.6,207.7 375.3,212.2 376.0,214.5 376.7,215.4 377.3,215.3 378.0,215.8 378.7,216.4 379.4,211.9 380.0,213.3 380.7,208.4 381.4,209.1 382.1,212.0 382.7,213.6 383.4,217.5 384.1,223.3 384.8,217.6 385.4,216.9 386.1,213.4 386.8,210.5 387.4,215.5 388.1,220.7 388.8,217.1 389.5,214.4 390.1,215.6 390.8,217.0 391.5,221.5 392.2,222.3 392.8,226.4 393.5,222.7 394.2,222.4 394.9,221.5 395.5,224.8 396.2,224.0 396.9,225.4 397.6,225.7 398.2,225.7 398.9,224.7 399.6,218.8 400.3,224.1 400.9,222.7 401.6,218.5 402.3,223.7 403.0,220.0 403.6,223.5 404.3,223.0 405.0,218.0 405.7,219.3 406.3,223.5 407.0,221.2 407.7,222.3 408.3,222.0 409.0,223.0 409.7,225.4 410.4,229.8 411.0,238.0 411.7,239.1 412.4,244.6 413.1,241.8 413.7,247.3 414.4,244.4 415.1,242.8 415.8,250.3 416.4,254.8 417.1,256.3 417.8,257.6 418.5,257.8 419.1,255.8 419.8,250.3 420.5,245.6 421.2,244.6 421.8,244.2 422.5,245.4 423.2,250.3 423.9,250.4 424.5,244.2 425.2,245.0 425.9,243.6 426.6,238.9 427.2,242.3 427.9,238.5 428.6,237.8 429.2,238.3 429.9,235.4 430.6,233.7 431.3,230.1 431.9,232.3 432.6,225.0 433.3,218.9 434.0,221.1 434.6,223.5 435.3,223.4 436.0,218.5 436.7,218.4 437.3,222.3 438.0,224.3 438.7,223.7 439.4,227.6 440.0,223.4 440.7,217.8 441.4,214.7 442.1,220.0 442.7,225.1 443.4,225.0 444.1,225.1 444.8,221.7 445.4,218.0 446.1,208.4 446.8,211.8 447.4,202.4 448.1,207.8 448.8,202.0 449.5,199.6 450.1,202.5 450.8,200.4 451.5,203.3 452.2,198.0 452.8,199.5 453.5,195.6 454.2,194.1 454.9,192.4 455.5,208.3 456.2,204.2 456.9,204.0 457.6,200.8 458.2,195.7 458.9,195.2 459.6,200.8 460.3,206.1 460.9,205.6 461.6,210.1 462.3,213.1 463.0,219.1 463.6,220.7 464.3,220.8 465.0,223.3 465.7,227.3 466.3,215.4 467.0,220.1 467.7,223.5 468.3,227.5 469.0,224.0 469.7,228.5 470.4,225.0 471.0,228.5 471.7,227.3 472.4,227.8 473.1,229.5 473.7,227.0 474.4,226.9 475.1,225.4 475.8,226.6 476.4,224.3 477.1,225.7 477.8,219.3 478.5,214.7 479.1,217.0 479.8,221.2 480.5,229.8 481.2,232.5 481.8,241.3 482.5,239.6 483.2,209.4 483.9,219.3 484.5,197.3 485.2,198.6 485.9,204.1 486.6,202.6 487.2,201.9 487.9,203.9 488.6,204.7 489.2,202.1 489.9,207.3 490.6,202.6 491.3,196.2 491.9,192.9 492.6,188.1 493.3,183.8 494.0,184.2 494.6,183.8 495.3,185.0 496.0,184.2 496.7,185.3 497.3,189.8 498.0,192.7 498.7,186.7 499.4,190.3 500.0,194.5 500.7,191.2 501.4,189.1 502.1,191.1 502.7,185.2 503.4,186.0 504.1,184.3 504.8,180.5 505.4,177.7 506.1,181.2 506.8,183.9 507.5,185.3 508.1,183.6 508.8,186.6 509.5,190.6 510.1,195.7 510.8,198.4 511.5,203.1 512.2,199.2 512.8,193.0 513.5,187.2 514.2,189.0 514.9,188.8 515.5,188.7 516.2,192.1 516.9,194.8 517.6,191.6 518.2,187.5 518.9,177.5 519.6,180.2 520.3,177.6 520.9,173.2 521.6,168.3 522.3,173.8 523.0,174.3 523.6,171.7 524.3,174.6 525.0,174.9 525.7,174.6 526.3,172.0 527.0,168.4 527.7,175.2 528.4,179.0 529.0,180.2 529.7,178.3 530.4,179.2 531.0,172.2 531.7,174.1 532.4,180.2 533.1,185.3 533.7,185.5 534.4,186.2 535.1,180.1 535.8,177.2 536.4,182.7 537.1,185.8 537.8,188.3 538.5,187.1 539.1,177.8 539.8,173.5 540.5,175.8 541.2,180.5 541.8,183.5 542.5,187.4 543.2,181.7 543.9,182.9 544.5,178.7 545.2,179.2 545.9,175.9 546.6,174.4 547.2,176.8 547.9,178.8 548.6,198.2 549.3,197.8 549.9,196.3 550.6,190.4 551.3,192.6 551.9,190.7 552.6,188.0 553.3,184.8 554.0,186.5 554.6,187.2 555.3,184.8 556.0,188.7 556.7,189.0 557.3,186.3 558.0,177.8 558.7,174.5 559.4,172.6 560.0,171.2 560.7,168.5 561.4,178.4 562.1,186.3 562.7,184.8 563.4,186.9 564.1,185.6 564.8,194.6 565.4,194.3 566.1,188.0 566.8,193.6 567.5,191.4 568.1,200.4 568.8,199.2 569.5,196.9 570.2,200.1 570.8,193.6 571.5,190.7 572.2,193.5 572.8,191.4 573.5,191.1 574.2,193.0 574.9,185.7 575.5,189.9 576.2,197.7 576.9,201.8 577.6,205.6 578.2,206.7 578.9,201.9 579.6,200.4 580.3,206.3 580.9,214.7 581.6,210.7 582.3,212.7 583.0,207.8 583.6,212.2 584.3,210.3 585.0,209.4 585.7,236.0 586.3,225.8 587.0,227.8 587.7,227.8 588.4,226.6 589.0,225.8 589.7,219.5 590.4,217.4 591.0,217.3 591.7,220.3 592.4,219.5 593.1,211.2 593.7,210.2 594.4,211.7 595.1,211.2 595.8,210.8 596.4,208.0 597.1,209.2 597.8,210.1 598.5,206.8 599.1,203.0 599.8,207.0 600.5,195.0 601.2,195.1 601.8,195.9 602.5,195.5 603.2,189.6 603.9,190.6 604.5,188.7 605.2,191.3 605.9,193.2 606.6,195.0 607.2,171.4 607.9,170.8 608.6,155.4 609.3,157.6 609.9,152.7 610.6,156.5 611.3,159.0 611.9,161.1 612.6,158.9 613.3,165.6 614.0,163.6 614.6,166.6 615.3,168.7 616.0,170.3 616.7,173.0 617.3,170.4 618.0,173.3 618.7,169.0 619.4,170.0 620.0,171.8 620.7,173.7 621.4,169.0 622.1,169.6 622.7,174.3 623.4,177.1 624.1,175.3 624.8,176.4 625.4,177.4 626.1,175.2 626.8,172.4 627.5,171.9 628.1,167.0 628.8,161.7 629.5,166.1 630.2,166.8 630.8,166.9 631.5,165.5 632.2,167.9 632.8,168.9 633.5,171.5 634.2,172.1 634.9,155.9 635.5,158.8 636.2,152.4 636.9,148.5 637.6,148.9 638.2,151.1 638.9,151.3 639.6,152.0 640.3,148.1 640.9,148.8 641.6,149.8 642.3,151.8 643.0,142.9 643.6,146.7 644.3,145.2 645.0,145.0 645.7,144.0 646.3,144.3 647.0,142.4 647.7,141.6 648.4,142.0 649.0,144.2 649.7,147.0 650.4,150.5 651.1,150.7 651.7,152.6 652.4,152.5 653.1,147.2 653.7,140.6 654.4,139.9 655.1,134.9 655.8,132.8 656.4,132.5 657.1,131.3 657.8,131.1 658.5,129.4 659.1,118.8 659.8,118.3 660.5,121.3 661.2,123.5 661.8,125.9 662.5,124.7 663.2,122.6 663.9,117.5 664.5,114.1 665.2,113.9 665.9,111.3 666.6,112.2 667.2,110.8 667.9,108.0 668.6,99.1 669.3,98.7 669.9,97.3 670.6,92.8 671.3,94.6 672.0,98.7 672.6,95.8 673.3,101.7 674.0,105.4 674.6,100.2 675.3,100.1 676.0,98.5 676.7,98.5 677.3,98.4 678.0,99.2 678.7,97.9 679.4,101.1 680.0,104.5 680.7,100.7 681.4,104.5 682.1,104.7 682.7,103.8 683.4,109.5 684.1,114.2 684.8,122.3 685.4,120.8 686.1,122.6 686.8,122.9 687.5,122.2 688.1,126.9 688.8,127.6 689.5,120.4 690.2,120.6 690.8,117.6 691.5,112.7 692.2,110.3 692.9,110.6 693.5,107.9 694.2,104.4 694.9,104.2 695.5,102.5 696.2,101.3 696.9,104.6 697.6,105.1 698.2,111.0 698.9,122.5 699.6,119.3 700.3,125.1 700.9,120.2 701.6,111.0 702.3,111.2 703.0,115.0 703.6,115.8 704.3,119.8 705.0,117.9 705.7,119.7 706.3,118.6 707.0,110.5 707.7,106.2 708.4,106.1 709.0,107.5 709.7,102.8 710.4,93.0 711.1,92.1 711.7,94.5 712.4,95.5 713.1,97.0 713.8,93.4 714.4,96.6 715.1,97.3 715.8,97.8 716.4,92.9 717.1,95.4 717.8,87.4 718.5,89.1 719.1,92.3 719.8,99.3 720.5,97.7 721.2,94.5 721.8,103.6 722.5,111.0 723.2,97.5 723.9,92.0 724.5,93.3 725.2,94.7 725.9,95.4 726.6,96.9 727.2,99.9 727.9,102.9 728.6,103.6 729.3,108.5 729.9,106.6 730.6,105.3 731.3,108.4 732.0,109.3 732.6,112.3 733.3,110.9 734.0,114.8 734.6,109.3 735.3,110.5 736.0,117.1 736.7,112.8 737.3,112.0 738.0,109.6 738.7,111.8 739.4,112.8 740.0,111.3 740.7,111.8 741.4,113.7 742.1,113.5 742.7,115.3 743.4,112.3 744.1,113.3 744.8,109.9 745.4,115.8 746.1,120.5 746.8,129.2 747.5,120.6 748.1,118.7 748.8,118.5 749.5,117.0 750.2,117.0 750.8,111.2 751.5,116.1 752.2,114.5 752.9,111.6 753.5,103.7 754.2,105.0 754.9,106.4 755.5,103.6 756.2,102.4 756.9,104.0 757.6,101.9 758.2,95.1 758.9,97.4 759.6,99.7 760.3,102.5 760.9,101.5 761.6,98.7 762.3,99.9 763.0,96.3 763.6,89.6 764.3,83.4 765.0,87.1 765.7,87.5 766.3,82.9 767.0,83.8 767.7,81.7 768.4,80.1 769.0,85.7 769.7,90.7 770.4,94.7 771.1,90.1 771.7,78.5 772.4,81.2 773.1,82.2 773.8,77.3 774.4,76.5 775.1,79.4 775.8,78.6 776.4,78.7 777.1,82.7 777.8,83.5 778.5,90.0 779.1,88.0 779.8,86.6 780.5,91.0 781.2,87.2 781.8,85.5 782.5,80.4 783.2,80.7 783.9,81.6 784.5,80.3 785.2,82.1 785.9,82.0 786.6,86.5 787.2,88.0 787.9,90.7 788.6,92.8 789.3,93.6 789.9,96.5 790.6,100.8 791.3,100.0 792.0,105.2 792.6,103.8 793.3,102.2 794.0,104.3 794.7,108.9 795.3,109.7 796.0,108.5"/>
<text x="78" y="392" font-size="11" fill="#16a34a">Total return +498.6%</text><text x="268" y="392" font-size="11" fill="#2563eb">Price-only +498.6%</text><text x="78" y="362" font-size="11" text-anchor="middle" fill="#64748b">2022-04</text><text x="257" y="362" font-size="11" text-anchor="middle" fill="#64748b">2023-05</text><text x="437" y="362" font-size="11" text-anchor="middle" fill="#64748b">2024-05</text><text x="617" y="362" font-size="11" text-anchor="middle" fill="#64748b">2025-06</text><text x="796" y="362" font-size="11" text-anchor="middle" fill="#64748b">2026-07</text></svg>