<svg xmlns="http://www.w3.org/2000/svg" width="720" height="360" viewBox="0 0 720 360">
  <rect width="720" height="360" fill="#fafafa"/>
  <text x="56" y="22" font-size="13" font-family="sans-serif" fill="#222">APLD total return (rebased 100) · cumulative distributions $0.00/sh · market cap n/a</text>
  <line x1="56" y1="308" x2="696" y2="308" stroke="#ccc"/>
  <line x1="56" y1="48" x2="56" y2="308" stroke="#ccc"/>
  <polyline fill="none" stroke="#2563eb" stroke-width="2" points="56.0,278.9 68.8,271.7 81.6,290.1 94.4,284.9 107.2,283.7 120.0,286.9 132.8,284.3 145.6,285.7 158.4,286.2 171.2,280.1 184.0,282.3 196.8,284.3 209.6,279.6 222.4,254.6 235.2,249.8 248.0,248.7 260.8,265.9 273.6,264.9 286.4,271.5 299.2,272.5 312.0,262.5 324.8,270.2 337.6,275.0 350.4,274.4 363.2,282.0 376.0,274.7 388.8,266.3 401.6,271.6 414.4,277.5 427.2,255.2 440.0,262.4 452.8,246.2 465.6,258.1 478.4,260.6 491.2,256.4 504.0,267.9 516.8,273.1 529.6,262.0 542.4,246.3 555.2,231.5 568.0,217.7 580.8,183.9 593.6,127.1 606.4,163.8 619.2,176.3 632.0,130.9 644.8,162.9 657.6,180.1 670.4,129.1 683.2,65.9 696.0,101.6"/>
  <polyline fill="none" stroke="#16a34a" stroke-width="2" points="56.0,278.9 68.8,271.7 81.6,290.1 94.4,284.9 107.2,283.7 120.0,286.9 132.8,284.3 145.6,285.7 158.4,286.2 171.2,280.1 184.0,282.3 196.8,284.3 209.6,279.6 222.4,254.6 235.2,249.8 248.0,248.7 260.8,265.9 273.6,264.9 286.4,271.5 299.2,272.5 312.0,262.5 324.8,270.2 337.6,275.0 350.4,274.4 363.2,282.0 376.0,274.7 388.8,266.3 401.6,271.6 414.4,277.5 427.2,255.2 440.0,262.4 452.8,246.2 465.6,258.1 478.4,260.6 491.2,256.4 504.0,267.9 516.8,273.1 529.6,262.0 542.4,246.3 555.2,231.5 568.0,217.7 580.8,183.9 593.6,127.1 606.4,163.8 619.2,176.3 632.0,130.9 644.8,162.9 657.6,180.1 670.4,129.1 683.2,65.9 696.0,101.6"/>
  <text x="60" y="62" font-size="11" fill="#2563eb">Price index</text>
  <text x="146" y="62" font-size="11" fill="#16a34a">Total return (price + distributions)</text>
  <text x="56" y="348" font-size="11" text-anchor="middle" fill="#444">2022-04</text><text x="210" y="348" font-size="11" text-anchor="middle" fill="#444">2023-04</text><text x="376" y="348" font-size="11" text-anchor="middle" fill="#444">2024-05</text><text x="542" y="348" font-size="11" text-anchor="middle" fill="#444">2025-06</text><text x="696" y="348" font-size="11" text-anchor="middle" fill="#444">2026-06</text>
</svg>
