<svg xmlns="http://www.w3.org/2000/svg" width="820" height="410" viewBox="0 0 820 410">
<rect width="820" height="410" fill="#fafafa"/><text x="78" y="22" font-size="14" font-family="sans-serif" fill="#0f172a">APLD cumulative return since 2022-04-13 | dividends reinvested</text>
<text x="78" y="40" font-size="11" font-family="sans-serif" fill="#334155">Total return +474.2% | Price-only +474.2% | logarithmic scale</text>
<text x="78" y="54" font-size="9" font-family="sans-serif" fill="#64748b">Regular $0.00 | Special $0.00 | Other $0.00 per initial share path</text>
<line x1="78" y1="332.0" x2="796" y2="332.0" stroke="#e2e8f0"/><text x="70" y="336.0" font-size="10" text-anchor="end" fill="#64748b">-85.8%</text><line x1="78" y1="287.0" x2="796" y2="287.0" stroke="#e2e8f0"/><text x="70" y="291.0" font-size="10" text-anchor="end" fill="#64748b">-69.8%</text><line x1="78" y1="242.0" x2="796" y2="242.0" stroke="#e2e8f0"/><text x="70" y="246.0" font-size="10" text-anchor="end" fill="#64748b">-35.8%</text><line x1="78" y1="215.5" x2="796" y2="215.5" stroke="#e2e8f0"/><text x="70" y="219.5" font-size="10" text-anchor="end" fill="#64748b">0%</text><line x1="78" y1="197.0" x2="796" y2="197.0" stroke="#e2e8f0"/><text x="70" y="201.0" font-size="10" text-anchor="end" fill="#64748b">+36.3%</text><line x1="78" y1="152.0" x2="796" y2="152.0" stroke="#e2e8f0"/><text x="70" y="156.0" font-size="10" text-anchor="end" fill="#64748b">+189.3%</text><line x1="78" y1="107.0" x2="796" y2="107.0" stroke="#e2e8f0"/><text x="70" y="111.0" font-size="10" text-anchor="end" fill="#64748b">+514.2%</text><line x1="78" y1="62.0" x2="796" y2="62.0" stroke="#e2e8f0"/><text x="70" y="66.0" font-size="10" text-anchor="end" fill="#64748b">+1,204%</text>
<line x1="78" y1="332" x2="796" y2="332" stroke="#cbd5e1"/>
<polyline fill="none" stroke="#2563eb" stroke-width="2" points="78.0,215.5 78.7,216.4 79.3,220.0 80.0,216.8 80.7,217.4 81.4,225.4 82.0,226.7 82.7,227.0 83.4,230.1 84.1,233.7 84.7,236.2 85.4,237.4 86.1,245.2 86.7,245.2 87.4,240.0 88.1,237.3 88.8,234.3 89.4,247.9 90.1,253.0 90.8,256.3 91.4,274.8 92.1,274.8 92.8,263.3 93.5,255.1 94.1,254.2 94.8,242.5 95.5,232.5 96.2,234.0 96.8,232.3 97.5,230.6 98.2,230.1 98.8,218.7 99.5,215.8 100.2,215.4 100.9,216.1 101.5,222.0 102.2,230.2 102.9,229.5 103.5,227.3 104.2,235.9 104.9,249.6 105.6,294.2 106.2,308.1 106.9,309.3 107.6,308.1 108.3,305.3 108.9,298.5 109.6,299.0 110.3,304.7 110.9,300.5 111.6,305.8 112.3,301.5 113.0,304.2 113.6,307.0 114.3,312.0 115.0,308.7 115.6,310.6 116.3,304.2 117.0,306.4 117.7,306.4 118.3,310.7 119.0,317.5 119.7,316.3 120.4,307.5 121.0,306.4 121.7,265.0 122.4,255.4 123.0,261.4 123.7,264.7 124.4,270.3 125.1,272.8 125.7,263.9 126.4,262.8 127.1,265.0 127.7,261.4 128.4,258.6 129.1,259.6 129.8,263.3 130.4,267.6 131.1,263.0 131.8,266.4 132.5,265.3 133.1,264.1 133.8,263.3 134.5,260.4 135.1,263.3 135.8,265.0 136.5,267.0 137.2,269.4 137.8,271.8 138.5,271.2 139.2,269.1 139.9,270.9 140.5,266.7 141.2,264.4 141.9,266.1 142.5,258.3 143.2,263.0 143.9,261.7 144.6,265.5 145.2,265.3 145.9,265.8 146.6,261.2 147.2,259.6 147.9,265.8 148.6,265.3 149.3,269.1 149.9,264.1 150.6,266.1 151.3,266.7 152.0,270.9 152.6,276.1 153.3,282.2 154.0,282.2 154.6,277.1 155.3,276.8 156.0,281.8 156.7,278.2 157.3,277.1 158.0,277.1 158.7,280.0 159.3,281.1 160.0,283.7 160.7,281.8 161.4,278.9 162.0,276.8 162.7,270.6 163.4,270.6 164.1,267.3 164.7,265.3 165.4,265.5 166.1,267.0 166.7,268.2 167.4,266.4 168.1,262.5 168.8,262.8 169.4,262.8 170.1,262.2 170.8,261.4 171.4,260.4 172.1,261.2 172.8,261.4 173.5,257.3 174.1,254.4 174.8,258.6 175.5,269.4 176.2,265.5 176.8,259.1 177.5,258.8 178.2,256.3 178.8,255.8 179.5,256.8 180.2,262.8 180.9,264.4 181.5,265.3 182.2,261.7 182.9,261.7 183.5,268.5 184.2,268.2 184.9,270.0 185.6,271.2 186.2,271.8 186.9,270.9 187.6,274.8 188.3,281.8 188.9,280.3 189.6,282.2 190.3,278.2 190.9,281.8 191.6,280.7 192.3,281.4 193.0,281.4 193.6,285.3 194.3,281.4 195.0,277.8 195.6,270.9 196.3,270.9 197.0,273.8 197.7,275.8 198.3,272.2 199.0,273.4 199.7,273.4 200.4,273.8 201.0,275.1 201.7,272.8 202.4,266.1 203.0,263.6 203.7,265.5 204.4,262.8 205.1,264.4 205.7,261.4 206.4,258.6 207.1,257.1 207.8,257.6 208.4,259.1 209.1,254.9 209.8,255.6 210.4,252.1 211.1,240.4 211.8,240.4 212.5,242.3 213.1,238.9 213.8,238.0 214.5,238.7 215.1,240.2 215.8,238.2 216.5,236.6 217.2,241.7 217.8,241.1 218.5,243.7 219.2,245.2 219.9,242.6 220.5,244.2 221.2,241.7 221.9,246.9 222.5,246.2 223.2,247.3 223.9,252.3 224.6,252.8 225.2,251.6 225.9,250.3 226.6,252.1 227.2,251.0 227.9,254.9 228.6,257.8 229.3,261.4 229.9,267.7 230.6,272.5 231.3,271.5 232.0,270.0 232.6,269.7 233.3,268.8 234.0,268.5 234.6,267.6 235.3,262.5 236.0,265.0 236.7,266.4 237.3,267.0 238.0,266.7 238.7,267.3 239.3,265.8 240.0,263.0 240.7,261.7 241.4,258.8 242.0,262.2 242.7,264.1 243.4,255.1 244.1,251.9 244.7,243.6 245.4,241.3 246.1,234.3 246.7,234.4 247.4,231.2 248.1,234.5 248.8,235.7 249.4,239.8 250.1,240.6 250.8,244.4 251.4,243.0 252.1,241.9 252.8,240.4 253.5,240.4 254.1,242.3 254.8,240.9 255.5,241.9 256.2,239.6 256.8,236.9 257.5,236.9 258.2,236.6 258.8,232.3 259.5,235.2 260.2,246.7 260.9,236.5 261.5,201.7 262.2,193.1 262.9,190.3 263.6,181.5 264.2,182.6 264.9,186.0 265.6,178.0 266.2,179.4 266.9,186.1 267.6,177.0 268.3,182.9 268.9,177.2 269.6,177.0 270.3,176.3 270.9,174.1 271.6,179.6 272.3,176.8 273.0,185.6 273.6,180.7 274.3,179.8 275.0,179.8 275.7,175.7 276.3,178.9 277.0,176.7 277.7,177.8 278.3,174.3 279.0,184.9 279.7,177.3 280.4,190.5 281.0,187.6 281.7,183.1 282.4,176.3 283.0,172.8 283.7,178.7 284.4,187.9 285.1,182.9 285.7,183.5 286.4,182.4 287.1,185.9 287.8,184.9 288.4,189.7 289.1,189.2 289.8,185.3 290.4,182.7 291.1,187.6 291.8,187.7 292.5,180.0 293.1,170.8 293.8,172.3 294.5,172.4 295.1,175.9 295.8,174.8 296.5,176.8 297.2,182.7 297.8,185.5 298.5,187.2 299.2,186.3 299.9,188.8 300.5,190.7 301.2,192.3 301.9,193.1 302.5,190.5 303.2,197.5 303.9,198.6 304.6,201.4 305.2,202.8 305.9,203.8 306.6,201.4 307.2,195.5 307.9,203.1 308.6,204.1 309.3,204.9 309.9,201.1 310.6,199.4 311.3,202.4 312.0,205.0 312.6,207.2 313.3,206.5 314.0,210.9 314.6,211.6 315.3,211.2 316.0,208.2 316.7,210.5 317.3,209.1 318.0,210.7 318.7,214.2 319.4,213.8 320.0,210.9 320.7,211.3 321.4,210.3 322.0,208.9 322.7,206.1 323.4,202.2 324.1,199.6 324.7,200.4 325.4,201.5 326.1,209.3 326.7,208.3 327.4,211.3 328.1,211.7 328.8,216.0 329.4,208.9 330.1,210.7 330.8,211.7 331.5,212.2 332.1,208.1 332.8,208.4 333.5,215.4 334.1,213.6 334.8,217.5 335.5,215.6 336.2,212.9 336.8,216.4 337.5,216.8 338.2,216.0 338.8,218.9 339.5,215.1 340.2,214.5 340.9,210.4 341.5,208.4 342.2,209.5 342.9,211.6 343.6,215.0 344.2,216.8 344.9,217.5 345.6,227.9 346.2,221.9 346.9,222.4 347.6,223.0 348.3,226.4 348.9,221.5 349.6,220.4 350.3,219.2 350.9,217.4 351.6,218.4 352.3,215.8 353.0,216.8 353.6,217.8 354.3,211.5 355.0,208.0 355.7,209.3 356.3,206.7 357.0,206.6 357.7,197.3 358.3,202.9 359.0,204.0 359.7,200.9 360.4,197.5 361.0,197.9 361.7,197.0 362.4,195.7 363.0,196.8 363.7,192.8 364.4,192.0 365.1,193.1 365.7,189.1 366.4,191.1 367.1,195.8 367.8,193.9 368.4,195.0 369.1,191.2 369.8,190.5 370.4,188.7 371.1,181.8 371.8,184.0 372.5,186.8 373.1,189.5 373.8,207.7 374.5,212.2 375.1,214.5 375.8,215.4 376.5,215.3 377.2,215.8 377.8,216.4 378.5,211.9 379.2,213.3 379.9,208.4 380.5,209.1 381.2,212.0 381.9,213.6 382.5,217.5 383.2,223.3 383.9,217.6 384.6,216.9 385.2,213.4 385.9,210.5 386.6,215.5 387.3,220.7 387.9,217.1 388.6,214.4 389.3,215.6 389.9,217.0 390.6,221.5 391.3,222.3 392.0,226.4 392.6,222.7 393.3,222.4 394.0,221.5 394.6,224.8 395.3,224.0 396.0,225.4 396.7,225.7 397.3,225.7 398.0,224.7 398.7,218.8 399.4,224.1 400.0,222.7 400.7,218.5 401.4,223.7 402.0,220.0 402.7,223.5 403.4,223.0 404.1,218.0 404.7,219.3 405.4,223.5 406.1,221.2 406.7,222.3 407.4,222.0 408.1,223.0 408.8,225.4 409.4,229.8 410.1,238.0 410.8,239.1 411.5,244.6 412.1,241.8 412.8,247.3 413.5,244.4 414.1,242.8 414.8,250.3 415.5,254.8 416.2,256.3 416.8,257.6 417.5,257.8 418.2,255.8 418.8,250.3 419.5,245.6 420.2,244.6 420.9,244.2 421.5,245.4 422.2,250.3 422.9,250.4 423.6,244.2 424.2,245.0 424.9,243.6 425.6,238.9 426.2,242.3 426.9,238.5 427.6,237.8 428.3,238.3 428.9,235.4 429.6,233.7 430.3,230.1 430.9,232.3 431.6,225.0 432.3,218.9 433.0,221.1 433.6,223.5 434.3,223.4 435.0,218.5 435.7,218.4 436.3,222.3 437.0,224.3 437.7,223.7 438.3,227.6 439.0,223.4 439.7,217.8 440.4,214.7 441.0,220.0 441.7,225.1 442.4,225.0 443.1,225.1 443.7,221.7 444.4,218.0 445.1,208.4 445.7,211.8 446.4,202.4 447.1,207.8 447.8,202.0 448.4,199.6 449.1,202.5 449.8,200.4 450.4,203.3 451.1,198.0 451.8,199.5 452.5,195.6 453.1,194.1 453.8,192.4 454.5,208.3 455.2,204.2 455.8,204.0 456.5,200.8 457.2,195.7 457.8,195.2 458.5,200.8 459.2,206.1 459.9,205.6 460.5,210.1 461.2,213.1 461.9,219.1 462.5,220.7 463.2,220.8 463.9,223.3 464.6,227.3 465.2,215.4 465.9,220.1 466.6,223.5 467.3,227.5 467.9,224.0 468.6,228.5 469.3,225.0 469.9,228.5 470.6,227.3 471.3,227.8 472.0,229.5 472.6,227.0 473.3,226.9 474.0,225.4 474.6,226.6 475.3,224.3 476.0,225.7 476.7,219.3 477.3,214.7 478.0,217.0 478.7,221.2 479.4,229.8 480.0,232.5 480.7,241.3 481.4,239.6 482.0,209.4 482.7,219.3 483.4,197.3 484.1,198.6 484.7,204.1 485.4,202.6 486.1,201.9 486.7,203.9 487.4,204.7 488.1,202.1 488.8,207.3 489.4,202.6 490.1,196.2 490.8,192.9 491.5,188.1 492.1,183.8 492.8,184.2 493.5,183.8 494.1,185.0 494.8,184.2 495.5,185.3 496.2,189.8 496.8,192.7 497.5,186.7 498.2,190.3 498.9,194.5 499.5,191.2 500.2,189.1 500.9,191.1 501.5,185.2 502.2,186.0 502.9,184.3 503.6,180.5 504.2,177.7 504.9,181.2 505.6,183.9 506.2,185.3 506.9,183.6 507.6,186.6 508.3,190.6 508.9,195.7 509.6,198.4 510.3,203.1 511.0,199.2 511.6,193.0 512.3,187.2 513.0,189.0 513.6,188.8 514.3,188.7 515.0,192.1 515.7,194.8 516.3,191.6 517.0,187.5 517.7,177.5 518.3,180.2 519.0,177.6 519.7,173.2 520.4,168.3 521.0,173.8 521.7,174.3 522.4,171.7 523.1,174.6 523.7,174.9 524.4,174.6 525.1,172.0 525.7,168.4 526.4,175.2 527.1,179.0 527.8,180.2 528.4,178.3 529.1,179.2 529.8,172.2 530.4,174.1 531.1,180.2 531.8,185.3 532.5,185.5 533.1,186.2 533.8,180.1 534.5,177.2 535.2,182.7 535.8,185.8 536.5,188.3 537.2,187.1 537.8,177.8 538.5,173.5 539.2,175.8 539.9,180.5 540.5,183.5 541.2,187.4 541.9,181.7 542.5,182.9 543.2,178.7 543.9,179.2 544.6,175.9 545.2,174.4 545.9,176.8 546.6,178.8 547.3,198.2 547.9,197.8 548.6,196.3 549.3,190.4 549.9,192.6 550.6,190.7 551.3,188.0 552.0,184.8 552.6,186.5 553.3,187.2 554.0,184.8 554.6,188.7 555.3,189.0 556.0,186.3 556.7,177.8 557.3,174.5 558.0,172.6 558.7,171.2 559.4,168.5 560.0,178.4 560.7,186.3 561.4,184.8 562.0,186.9 562.7,185.6 563.4,194.6 564.1,194.3 564.7,188.0 565.4,193.6 566.1,191.4 566.8,200.4 567.4,199.2 568.1,196.9 568.8,200.1 569.4,193.6 570.1,190.7 570.8,193.5 571.5,191.4 572.1,191.1 572.8,193.0 573.5,185.7 574.1,189.9 574.8,197.7 575.5,201.8 576.2,205.6 576.8,206.7 577.5,201.9 578.2,200.4 578.9,206.3 579.5,214.7 580.2,210.7 580.9,212.7 581.5,207.8 582.2,212.2 582.9,210.3 583.6,209.4 584.2,236.0 584.9,225.8 585.6,227.8 586.2,227.8 586.9,226.6 587.6,225.8 588.3,219.5 588.9,217.4 589.6,217.3 590.3,220.3 591.0,219.5 591.6,211.2 592.3,210.2 593.0,211.7 593.6,211.2 594.3,210.8 595.0,208.0 595.7,209.2 596.3,210.1 597.0,206.8 597.7,203.0 598.3,207.0 599.0,195.0 599.7,195.1 600.4,195.9 601.0,195.5 601.7,189.6 602.4,190.6 603.1,188.7 603.7,191.3 604.4,193.2 605.1,195.0 605.7,171.4 606.4,170.8 607.1,155.4 607.8,157.6 608.4,152.7 609.1,156.5 609.8,159.0 610.4,161.1 611.1,158.9 611.8,165.6 612.5,163.6 613.1,166.6 613.8,168.7 614.5,170.3 615.2,173.0 615.8,170.4 616.5,173.3 617.2,169.0 617.8,170.0 618.5,171.8 619.2,173.7 619.9,169.0 620.5,169.6 621.2,174.3 621.9,177.1 622.6,175.3 623.2,176.4 623.9,177.4 624.6,175.2 625.2,172.4 625.9,171.9 626.6,167.0 627.3,161.7 627.9,166.1 628.6,166.8 629.3,166.9 629.9,165.5 630.6,167.9 631.3,168.9 632.0,171.5 632.6,172.1 633.3,155.9 634.0,158.8 634.7,152.4 635.3,148.5 636.0,148.9 636.7,151.1 637.3,151.3 638.0,152.0 638.7,148.1 639.4,148.8 640.0,149.8 640.7,151.8 641.4,142.9 642.0,146.7 642.7,145.2 643.4,145.0 644.1,144.0 644.7,144.3 645.4,142.4 646.1,141.6 646.8,142.0 647.4,144.2 648.1,147.0 648.8,150.5 649.4,150.7 650.1,152.6 650.8,152.5 651.5,147.2 652.1,140.6 652.8,139.9 653.5,134.9 654.1,132.8 654.8,132.5 655.5,131.3 656.2,131.1 656.8,129.4 657.5,118.8 658.2,118.3 658.9,121.3 659.5,123.5 660.2,125.9 660.9,124.7 661.5,122.6 662.2,117.5 662.9,114.1 663.6,113.9 664.2,111.3 664.9,112.2 665.6,110.8 666.2,108.0 666.9,99.1 667.6,98.7 668.3,97.3 668.9,92.8 669.6,94.6 670.3,98.7 671.0,95.8 671.6,101.7 672.3,105.4 673.0,100.2 673.6,100.1 674.3,98.5 675.0,98.5 675.7,98.4 676.3,99.2 677.0,97.9 677.7,101.1 678.4,104.5 679.0,100.7 679.7,104.5 680.4,104.7 681.0,103.8 681.7,109.5 682.4,114.2 683.1,122.3 683.7,120.8 684.4,122.6 685.1,122.9 685.7,122.2 686.4,126.9 687.1,127.6 687.8,120.4 688.4,120.6 689.1,117.6 689.8,112.7 690.5,110.3 691.1,110.6 691.8,107.9 692.5,104.4 693.1,104.2 693.8,102.5 694.5,101.3 695.2,104.6 695.8,105.1 696.5,111.0 697.2,122.5 697.8,119.3 698.5,125.1 699.2,120.2 699.9,111.0 700.5,111.2 701.2,115.0 701.9,115.8 702.6,119.8 703.2,117.9 703.9,119.7 704.6,118.6 705.2,110.5 705.9,106.2 706.6,106.1 707.3,107.5 707.9,102.8 708.6,93.0 709.3,92.1 709.9,94.5 710.6,95.5 711.3,97.0 712.0,93.4 712.6,96.6 713.3,97.3 714.0,97.8 714.7,92.9 715.3,95.4 716.0,87.4 716.7,89.1 717.3,92.3 718.0,99.3 718.7,97.7 719.4,94.5 720.0,103.6 720.7,111.0 721.4,97.5 722.0,92.0 722.7,93.3 723.4,94.7 724.1,95.4 724.7,96.9 725.4,99.9 726.1,102.9 726.8,103.6 727.4,108.5 728.1,106.6 728.8,105.3 729.4,108.4 730.1,109.3 730.8,112.3 731.5,110.9 732.1,114.8 732.8,109.3 733.5,110.5 734.1,117.1 734.8,112.8 735.5,112.0 736.2,109.6 736.8,111.8 737.5,112.8 738.2,111.3 738.9,111.8 739.5,113.7 740.2,113.5 740.9,115.3 741.5,112.3 742.2,113.3 742.9,109.9 743.6,115.8 744.2,120.5 744.9,129.2 745.6,120.6 746.3,118.7 746.9,118.5 747.6,117.0 748.3,117.0 748.9,111.2 749.6,116.1 750.3,114.5 751.0,111.6 751.6,103.7 752.3,105.0 753.0,106.4 753.6,103.6 754.3,102.4 755.0,104.0 755.7,101.9 756.3,95.1 757.0,97.4 757.7,99.7 758.4,102.5 759.0,101.5 759.7,98.7 760.4,99.9 761.0,96.3 761.7,89.6 762.4,83.4 763.1,87.1 763.7,87.5 764.4,82.9 765.1,83.8 765.7,81.7 766.4,80.1 767.1,85.7 767.8,90.7 768.4,94.7 769.1,90.1 769.8,78.5 770.5,81.2 771.1,82.2 771.8,77.3 772.5,76.5 773.1,79.4 773.8,78.6 774.5,78.7 775.2,82.7 775.8,83.5 776.5,90.0 777.2,88.0 777.8,86.6 778.5,91.0 779.2,87.2 779.9,85.5 780.5,80.4 781.2,80.7 781.9,81.6 782.6,80.3 783.2,82.1 783.9,82.0 784.6,86.5 785.2,88.0 785.9,90.7 786.6,92.8 787.3,93.6 787.9,96.5 788.6,100.8 789.3,100.0 789.9,105.2 790.6,103.8 791.3,102.2 792.0,104.3 792.6,108.9 793.3,109.7 794.0,108.5 794.7,114.1 795.3,115.6 796.0,111.0"/><polyline fill="none" stroke="#16a34a" stroke-width="3" points="78.0,215.5 78.7,216.4 79.3,220.0 80.0,216.8 80.7,217.4 81.4,225.4 82.0,226.7 82.7,227.0 83.4,230.1 84.1,233.7 84.7,236.2 85.4,237.4 86.1,245.2 86.7,245.2 87.4,240.0 88.1,237.3 88.8,234.3 89.4,247.9 90.1,253.0 90.8,256.3 91.4,274.8 92.1,274.8 92.8,263.3 93.5,255.1 94.1,254.2 94.8,242.5 95.5,232.5 96.2,234.0 96.8,232.3 97.5,230.6 98.2,230.1 98.8,218.7 99.5,215.8 100.2,215.4 100.9,216.1 101.5,222.0 102.2,230.2 102.9,229.5 103.5,227.3 104.2,235.9 104.9,249.6 105.6,294.2 106.2,308.1 106.9,309.3 107.6,308.1 108.3,305.3 108.9,298.5 109.6,299.0 110.3,304.7 110.9,300.5 111.6,305.8 112.3,301.5 113.0,304.2 113.6,307.0 114.3,312.0 115.0,308.7 115.6,310.6 116.3,304.2 117.0,306.4 117.7,306.4 118.3,310.7 119.0,317.5 119.7,316.3 120.4,307.5 121.0,306.4 121.7,265.0 122.4,255.4 123.0,261.4 123.7,264.7 124.4,270.3 125.1,272.8 125.7,263.9 126.4,262.8 127.1,265.0 127.7,261.4 128.4,258.6 129.1,259.6 129.8,263.3 130.4,267.6 131.1,263.0 131.8,266.4 132.5,265.3 133.1,264.1 133.8,263.3 134.5,260.4 135.1,263.3 135.8,265.0 136.5,267.0 137.2,269.4 137.8,271.8 138.5,271.2 139.2,269.1 139.9,270.9 140.5,266.7 141.2,264.4 141.9,266.1 142.5,258.3 143.2,263.0 143.9,261.7 144.6,265.5 145.2,265.3 145.9,265.8 146.6,261.2 147.2,259.6 147.9,265.8 148.6,265.3 149.3,269.1 149.9,264.1 150.6,266.1 151.3,266.7 152.0,270.9 152.6,276.1 153.3,282.2 154.0,282.2 154.6,277.1 155.3,276.8 156.0,281.8 156.7,278.2 157.3,277.1 158.0,277.1 158.7,280.0 159.3,281.1 160.0,283.7 160.7,281.8 161.4,278.9 162.0,276.8 162.7,270.6 163.4,270.6 164.1,267.3 164.7,265.3 165.4,265.5 166.1,267.0 166.7,268.2 167.4,266.4 168.1,262.5 168.8,262.8 169.4,262.8 170.1,262.2 170.8,261.4 171.4,260.4 172.1,261.2 172.8,261.4 173.5,257.3 174.1,254.4 174.8,258.6 175.5,269.4 176.2,265.5 176.8,259.1 177.5,258.8 178.2,256.3 178.8,255.8 179.5,256.8 180.2,262.8 180.9,264.4 181.5,265.3 182.2,261.7 182.9,261.7 183.5,268.5 184.2,268.2 184.9,270.0 185.6,271.2 186.2,271.8 186.9,270.9 187.6,274.8 188.3,281.8 188.9,280.3 189.6,282.2 190.3,278.2 190.9,281.8 191.6,280.7 192.3,281.4 193.0,281.4 193.6,285.3 194.3,281.4 195.0,277.8 195.6,270.9 196.3,270.9 197.0,273.8 197.7,275.8 198.3,272.2 199.0,273.4 199.7,273.4 200.4,273.8 201.0,275.1 201.7,272.8 202.4,266.1 203.0,263.6 203.7,265.5 204.4,262.8 205.1,264.4 205.7,261.4 206.4,258.6 207.1,257.1 207.8,257.6 208.4,259.1 209.1,254.9 209.8,255.6 210.4,252.1 211.1,240.4 211.8,240.4 212.5,242.3 213.1,238.9 213.8,238.0 214.5,238.7 215.1,240.2 215.8,238.2 216.5,236.6 217.2,241.7 217.8,241.1 218.5,243.7 219.2,245.2 219.9,242.6 220.5,244.2 221.2,241.7 221.9,246.9 222.5,246.2 223.2,247.3 223.9,252.3 224.6,252.8 225.2,251.6 225.9,250.3 226.6,252.1 227.2,251.0 227.9,254.9 228.6,257.8 229.3,261.4 229.9,267.7 230.6,272.5 231.3,271.5 232.0,270.0 232.6,269.7 233.3,268.8 234.0,268.5 234.6,267.6 235.3,262.5 236.0,265.0 236.7,266.4 237.3,267.0 238.0,266.7 238.7,267.3 239.3,265.8 240.0,263.0 240.7,261.7 241.4,258.8 242.0,262.2 242.7,264.1 243.4,255.1 244.1,251.9 244.7,243.6 245.4,241.3 246.1,234.3 246.7,234.4 247.4,231.2 248.1,234.5 248.8,235.7 249.4,239.8 250.1,240.6 250.8,244.4 251.4,243.0 252.1,241.9 252.8,240.4 253.5,240.4 254.1,242.3 254.8,240.9 255.5,241.9 256.2,239.6 256.8,236.9 257.5,236.9 258.2,236.6 258.8,232.3 259.5,235.2 260.2,246.7 260.9,236.5 261.5,201.7 262.2,193.1 262.9,190.3 263.6,181.5 264.2,182.6 264.9,186.0 265.6,178.0 266.2,179.4 266.9,186.1 267.6,177.0 268.3,182.9 268.9,177.2 269.6,177.0 270.3,176.3 270.9,174.1 271.6,179.6 272.3,176.8 273.0,185.6 273.6,180.7 274.3,179.8 275.0,179.8 275.7,175.7 276.3,178.9 277.0,176.7 277.7,177.8 278.3,174.3 279.0,184.9 279.7,177.3 280.4,190.5 281.0,187.6 281.7,183.1 282.4,176.3 283.0,172.8 283.7,178.7 284.4,187.9 285.1,182.9 285.7,183.5 286.4,182.4 287.1,185.9 287.8,184.9 288.4,189.7 289.1,189.2 289.8,185.3 290.4,182.7 291.1,187.6 291.8,187.7 292.5,180.0 293.1,170.8 293.8,172.3 294.5,172.4 295.1,175.9 295.8,174.8 296.5,176.8 297.2,182.7 297.8,185.5 298.5,187.2 299.2,186.3 299.9,188.8 300.5,190.7 301.2,192.3 301.9,193.1 302.5,190.5 303.2,197.5 303.9,198.6 304.6,201.4 305.2,202.8 305.9,203.8 306.6,201.4 307.2,195.5 307.9,203.1 308.6,204.1 309.3,204.9 309.9,201.1 310.6,199.4 311.3,202.4 312.0,205.0 312.6,207.2 313.3,206.5 314.0,210.9 314.6,211.6 315.3,211.2 316.0,208.2 316.7,210.5 317.3,209.1 318.0,210.7 318.7,214.2 319.4,213.8 320.0,210.9 320.7,211.3 321.4,210.3 322.0,208.9 322.7,206.1 323.4,202.2 324.1,199.6 324.7,200.4 325.4,201.5 326.1,209.3 326.7,208.3 327.4,211.3 328.1,211.7 328.8,216.0 329.4,208.9 330.1,210.7 330.8,211.7 331.5,212.2 332.1,208.1 332.8,208.4 333.5,215.4 334.1,213.6 334.8,217.5 335.5,215.6 336.2,212.9 336.8,216.4 337.5,216.8 338.2,216.0 338.8,218.9 339.5,215.1 340.2,214.5 340.9,210.4 341.5,208.4 342.2,209.5 342.9,211.6 343.6,215.0 344.2,216.8 344.9,217.5 345.6,227.9 346.2,221.9 346.9,222.4 347.6,223.0 348.3,226.4 348.9,221.5 349.6,220.4 350.3,219.2 350.9,217.4 351.6,218.4 352.3,215.8 353.0,216.8 353.6,217.8 354.3,211.5 355.0,208.0 355.7,209.3 356.3,206.7 357.0,206.6 357.7,197.3 358.3,202.9 359.0,204.0 359.7,200.9 360.4,197.5 361.0,197.9 361.7,197.0 362.4,195.7 363.0,196.8 363.7,192.8 364.4,192.0 365.1,193.1 365.7,189.1 366.4,191.1 367.1,195.8 367.8,193.9 368.4,195.0 369.1,191.2 369.8,190.5 370.4,188.7 371.1,181.8 371.8,184.0 372.5,186.8 373.1,189.5 373.8,207.7 374.5,212.2 375.1,214.5 375.8,215.4 376.5,215.3 377.2,215.8 377.8,216.4 378.5,211.9 379.2,213.3 379.9,208.4 380.5,209.1 381.2,212.0 381.9,213.6 382.5,217.5 383.2,223.3 383.9,217.6 384.6,216.9 385.2,213.4 385.9,210.5 386.6,215.5 387.3,220.7 387.9,217.1 388.6,214.4 389.3,215.6 389.9,217.0 390.6,221.5 391.3,222.3 392.0,226.4 392.6,222.7 393.3,222.4 394.0,221.5 394.6,224.8 395.3,224.0 396.0,225.4 396.7,225.7 397.3,225.7 398.0,224.7 398.7,218.8 399.4,224.1 400.0,222.7 400.7,218.5 401.4,223.7 402.0,220.0 402.7,223.5 403.4,223.0 404.1,218.0 404.7,219.3 405.4,223.5 406.1,221.2 406.7,222.3 407.4,222.0 408.1,223.0 408.8,225.4 409.4,229.8 410.1,238.0 410.8,239.1 411.5,244.6 412.1,241.8 412.8,247.3 413.5,244.4 414.1,242.8 414.8,250.3 415.5,254.8 416.2,256.3 416.8,257.6 417.5,257.8 418.2,255.8 418.8,250.3 419.5,245.6 420.2,244.6 420.9,244.2 421.5,245.4 422.2,250.3 422.9,250.4 423.6,244.2 424.2,245.0 424.9,243.6 425.6,238.9 426.2,242.3 426.9,238.5 427.6,237.8 428.3,238.3 428.9,235.4 429.6,233.7 430.3,230.1 430.9,232.3 431.6,225.0 432.3,218.9 433.0,221.1 433.6,223.5 434.3,223.4 435.0,218.5 435.7,218.4 436.3,222.3 437.0,224.3 437.7,223.7 438.3,227.6 439.0,223.4 439.7,217.8 440.4,214.7 441.0,220.0 441.7,225.1 442.4,225.0 443.1,225.1 443.7,221.7 444.4,218.0 445.1,208.4 445.7,211.8 446.4,202.4 447.1,207.8 447.8,202.0 448.4,199.6 449.1,202.5 449.8,200.4 450.4,203.3 451.1,198.0 451.8,199.5 452.5,195.6 453.1,194.1 453.8,192.4 454.5,208.3 455.2,204.2 455.8,204.0 456.5,200.8 457.2,195.7 457.8,195.2 458.5,200.8 459.2,206.1 459.9,205.6 460.5,210.1 461.2,213.1 461.9,219.1 462.5,220.7 463.2,220.8 463.9,223.3 464.6,227.3 465.2,215.4 465.9,220.1 466.6,223.5 467.3,227.5 467.9,224.0 468.6,228.5 469.3,225.0 469.9,228.5 470.6,227.3 471.3,227.8 472.0,229.5 472.6,227.0 473.3,226.9 474.0,225.4 474.6,226.6 475.3,224.3 476.0,225.7 476.7,219.3 477.3,214.7 478.0,217.0 478.7,221.2 479.4,229.8 480.0,232.5 480.7,241.3 481.4,239.6 482.0,209.4 482.7,219.3 483.4,197.3 484.1,198.6 484.7,204.1 485.4,202.6 486.1,201.9 486.7,203.9 487.4,204.7 488.1,202.1 488.8,207.3 489.4,202.6 490.1,196.2 490.8,192.9 491.5,188.1 492.1,183.8 492.8,184.2 493.5,183.8 494.1,185.0 494.8,184.2 495.5,185.3 496.2,189.8 496.8,192.7 497.5,186.7 498.2,190.3 498.9,194.5 499.5,191.2 500.2,189.1 500.9,191.1 501.5,185.2 502.2,186.0 502.9,184.3 503.6,180.5 504.2,177.7 504.9,181.2 505.6,183.9 506.2,185.3 506.9,183.6 507.6,186.6 508.3,190.6 508.9,195.7 509.6,198.4 510.3,203.1 511.0,199.2 511.6,193.0 512.3,187.2 513.0,189.0 513.6,188.8 514.3,188.7 515.0,192.1 515.7,194.8 516.3,191.6 517.0,187.5 517.7,177.5 518.3,180.2 519.0,177.6 519.7,173.2 520.4,168.3 521.0,173.8 521.7,174.3 522.4,171.7 523.1,174.6 523.7,174.9 524.4,174.6 525.1,172.0 525.7,168.4 526.4,175.2 527.1,179.0 527.8,180.2 528.4,178.3 529.1,179.2 529.8,172.2 530.4,174.1 531.1,180.2 531.8,185.3 532.5,185.5 533.1,186.2 533.8,180.1 534.5,177.2 535.2,182.7 535.8,185.8 536.5,188.3 537.2,187.1 537.8,177.8 538.5,173.5 539.2,175.8 539.9,180.5 540.5,183.5 541.2,187.4 541.9,181.7 542.5,182.9 543.2,178.7 543.9,179.2 544.6,175.9 545.2,174.4 545.9,176.8 546.6,178.8 547.3,198.2 547.9,197.8 548.6,196.3 549.3,190.4 549.9,192.6 550.6,190.7 551.3,188.0 552.0,184.8 552.6,186.5 553.3,187.2 554.0,184.8 554.6,188.7 555.3,189.0 556.0,186.3 556.7,177.8 557.3,174.5 558.0,172.6 558.7,171.2 559.4,168.5 560.0,178.4 560.7,186.3 561.4,184.8 562.0,186.9 562.7,185.6 563.4,194.6 564.1,194.3 564.7,188.0 565.4,193.6 566.1,191.4 566.8,200.4 567.4,199.2 568.1,196.9 568.8,200.1 569.4,193.6 570.1,190.7 570.8,193.5 571.5,191.4 572.1,191.1 572.8,193.0 573.5,185.7 574.1,189.9 574.8,197.7 575.5,201.8 576.2,205.6 576.8,206.7 577.5,201.9 578.2,200.4 578.9,206.3 579.5,214.7 580.2,210.7 580.9,212.7 581.5,207.8 582.2,212.2 582.9,210.3 583.6,209.4 584.2,236.0 584.9,225.8 585.6,227.8 586.2,227.8 586.9,226.6 587.6,225.8 588.3,219.5 588.9,217.4 589.6,217.3 590.3,220.3 591.0,219.5 591.6,211.2 592.3,210.2 593.0,211.7 593.6,211.2 594.3,210.8 595.0,208.0 595.7,209.2 596.3,210.1 597.0,206.8 597.7,203.0 598.3,207.0 599.0,195.0 599.7,195.1 600.4,195.9 601.0,195.5 601.7,189.6 602.4,190.6 603.1,188.7 603.7,191.3 604.4,193.2 605.1,195.0 605.7,171.4 606.4,170.8 607.1,155.4 607.8,157.6 608.4,152.7 609.1,156.5 609.8,159.0 610.4,161.1 611.1,158.9 611.8,165.6 612.5,163.6 613.1,166.6 613.8,168.7 614.5,170.3 615.2,173.0 615.8,170.4 616.5,173.3 617.2,169.0 617.8,170.0 618.5,171.8 619.2,173.7 619.9,169.0 620.5,169.6 621.2,174.3 621.9,177.1 622.6,175.3 623.2,176.4 623.9,177.4 624.6,175.2 625.2,172.4 625.9,171.9 626.6,167.0 627.3,161.7 627.9,166.1 628.6,166.8 629.3,166.9 629.9,165.5 630.6,167.9 631.3,168.9 632.0,171.5 632.6,172.1 633.3,155.9 634.0,158.8 634.7,152.4 635.3,148.5 636.0,148.9 636.7,151.1 637.3,151.3 638.0,152.0 638.7,148.1 639.4,148.8 640.0,149.8 640.7,151.8 641.4,142.9 642.0,146.7 642.7,145.2 643.4,145.0 644.1,144.0 644.7,144.3 645.4,142.4 646.1,141.6 646.8,142.0 647.4,144.2 648.1,147.0 648.8,150.5 649.4,150.7 650.1,152.6 650.8,152.5 651.5,147.2 652.1,140.6 652.8,139.9 653.5,134.9 654.1,132.8 654.8,132.5 655.5,131.3 656.2,131.1 656.8,129.4 657.5,118.8 658.2,118.3 658.9,121.3 659.5,123.5 660.2,125.9 660.9,124.7 661.5,122.6 662.2,117.5 662.9,114.1 663.6,113.9 664.2,111.3 664.9,112.2 665.6,110.8 666.2,108.0 666.9,99.1 667.6,98.7 668.3,97.3 668.9,92.8 669.6,94.6 670.3,98.7 671.0,95.8 671.6,101.7 672.3,105.4 673.0,100.2 673.6,100.1 674.3,98.5 675.0,98.5 675.7,98.4 676.3,99.2 677.0,97.9 677.7,101.1 678.4,104.5 679.0,100.7 679.7,104.5 680.4,104.7 681.0,103.8 681.7,109.5 682.4,114.2 683.1,122.3 683.7,120.8 684.4,122.6 685.1,122.9 685.7,122.2 686.4,126.9 687.1,127.6 687.8,120.4 688.4,120.6 689.1,117.6 689.8,112.7 690.5,110.3 691.1,110.6 691.8,107.9 692.5,104.4 693.1,104.2 693.8,102.5 694.5,101.3 695.2,104.6 695.8,105.1 696.5,111.0 697.2,122.5 697.8,119.3 698.5,125.1 699.2,120.2 699.9,111.0 700.5,111.2 701.2,115.0 701.9,115.8 702.6,119.8 703.2,117.9 703.9,119.7 704.6,118.6 705.2,110.5 705.9,106.2 706.6,106.1 707.3,107.5 707.9,102.8 708.6,93.0 709.3,92.1 709.9,94.5 710.6,95.5 711.3,97.0 712.0,93.4 712.6,96.6 713.3,97.3 714.0,97.8 714.7,92.9 715.3,95.4 716.0,87.4 716.7,89.1 717.3,92.3 718.0,99.3 718.7,97.7 719.4,94.5 720.0,103.6 720.7,111.0 721.4,97.5 722.0,92.0 722.7,93.3 723.4,94.7 724.1,95.4 724.7,96.9 725.4,99.9 726.1,102.9 726.8,103.6 727.4,108.5 728.1,106.6 728.8,105.3 729.4,108.4 730.1,109.3 730.8,112.3 731.5,110.9 732.1,114.8 732.8,109.3 733.5,110.5 734.1,117.1 734.8,112.8 735.5,112.0 736.2,109.6 736.8,111.8 737.5,112.8 738.2,111.3 738.9,111.8 739.5,113.7 740.2,113.5 740.9,115.3 741.5,112.3 742.2,113.3 742.9,109.9 743.6,115.8 744.2,120.5 744.9,129.2 745.6,120.6 746.3,118.7 746.9,118.5 747.6,117.0 748.3,117.0 748.9,111.2 749.6,116.1 750.3,114.5 751.0,111.6 751.6,103.7 752.3,105.0 753.0,106.4 753.6,103.6 754.3,102.4 755.0,104.0 755.7,101.9 756.3,95.1 757.0,97.4 757.7,99.7 758.4,102.5 759.0,101.5 759.7,98.7 760.4,99.9 761.0,96.3 761.7,89.6 762.4,83.4 763.1,87.1 763.7,87.5 764.4,82.9 765.1,83.8 765.7,81.7 766.4,80.1 767.1,85.7 767.8,90.7 768.4,94.7 769.1,90.1 769.8,78.5 770.5,81.2 771.1,82.2 771.8,77.3 772.5,76.5 773.1,79.4 773.8,78.6 774.5,78.7 775.2,82.7 775.8,83.5 776.5,90.0 777.2,88.0 777.8,86.6 778.5,91.0 779.2,87.2 779.9,85.5 780.5,80.4 781.2,80.7 781.9,81.6 782.6,80.3 783.2,82.1 783.9,82.0 784.6,86.5 785.2,88.0 785.9,90.7 786.6,92.8 787.3,93.6 787.9,96.5 788.6,100.8 789.3,100.0 789.9,105.2 790.6,103.8 791.3,102.2 792.0,104.3 792.6,108.9 793.3,109.7 794.0,108.5 794.7,114.1 795.3,115.6 796.0,111.0"/>
<text x="78" y="392" font-size="11" fill="#16a34a">Total return +474.2%</text><text x="268" y="392" font-size="11" fill="#2563eb">Price-only +474.2%</text><text x="78" y="362" font-size="11" text-anchor="middle" fill="#64748b">2022-04</text><text x="258" y="362" font-size="11" text-anchor="middle" fill="#64748b">2023-05</text><text x="437" y="362" font-size="11" text-anchor="middle" fill="#64748b">2024-05</text><text x="616" y="362" font-size="11" text-anchor="middle" fill="#64748b">2025-06</text><text x="796" y="362" font-size="11" text-anchor="middle" fill="#64748b">2026-07</text></svg>